<svg width="100%" height="100%" overflow="visible" style="display: block;" viewBox="0 0 125.269 129.96" fill="none" xmlns="http://www.w3.org/2000/svg">
<path id="Vector (Stroke)" d="M10.1387 94.3008V114.532C10.1387 116.398 10.1413 117.505 10.208 118.322C10.2373 118.681 10.2735 118.886 10.2959 118.987C10.3021 119.015 10.3122 119.043 10.3262 119.068C10.4578 119.305 10.6516 119.495 10.8828 119.626C10.9082 119.64 10.9355 119.651 10.9639 119.657C11.0573 119.678 11.2621 119.721 11.6377 119.752C12.4548 119.819 13.5616 119.821 15.4277 119.821H109.842C111.708 119.821 112.814 119.819 113.631 119.752C113.998 119.722 114.202 119.678 114.297 119.657C114.325 119.651 114.352 119.64 114.378 119.626C114.613 119.494 114.804 119.304 114.936 119.069C114.95 119.044 114.96 119.017 114.967 118.988C114.988 118.894 115.031 118.69 115.061 118.322C115.127 117.505 115.13 116.398 115.13 114.532V94.3008H124.969V115.785C124.965 117.009 124.948 118.14 124.868 119.123C124.785 120.146 124.617 121.248 124.221 122.362L123.737 123.489C122.792 125.345 121.355 126.9 119.591 127.985L118.799 128.429C117.307 129.188 115.799 129.448 114.432 129.56C113.121 129.667 111.546 129.66 109.842 129.66H15.4277C13.7229 129.66 12.1472 129.667 10.8369 129.56C9.81506 129.476 8.71432 129.307 7.60059 128.912L6.46191 128.424C4.33985 127.34 2.61305 125.612 1.53125 123.489C0.771756 121.998 0.513079 120.49 0.401367 119.123C0.294411 117.813 0.299805 116.237 0.299805 114.532V94.3008H10.1387ZM67.5537 0.299805V81.9287C67.5537 82.05 67.6272 82.1596 67.7393 82.2061C67.8513 82.2525 67.9806 82.2273 68.0664 82.1416L100.911 49.2959L107.867 56.252L66.1123 98.0078C64.1911 99.9287 61.0773 99.9288 59.1562 98.0078L17.4014 56.2529L24.3574 49.2959L57.2031 82.1416C57.2889 82.2272 57.4183 82.2524 57.5303 82.2061C57.6421 82.1595 57.7148 82.0499 57.7148 81.9287V0.299805H67.5537Z" fill="var(--fill-0, #B5B1E2)" stroke="var(--stroke-0, #6058B4)" stroke-width="0.6" stroke-linecap="square" stroke-linejoin="round"/>
</svg>
