<svg width="24" height="24" viewBox="0 0 24 24" fill="none" xmlns="http://www.w3.org/2000/svg">
<path d="M19 19.5V21H5.00004V19.5H19ZM19.5 19V5C19.5 4.72386 19.2762 4.5 19 4.5H5.00004C4.7239 4.5 4.50004 4.72386 4.50004 5V19C4.50004 19.2761 4.7239 19.5 5.00004 19.5V21L4.79594 20.9893C3.85439 20.8938 3.10624 20.1457 3.01079 19.2041L3.00004 19V5C3.00004 3.89543 3.89547 3 5.00004 3H19C20.1046 3 21 3.89543 21 5V19C21 20.0357 20.2128 20.887 19.2041 20.9893L19 21V19.5C19.2762 19.5 19.5 19.2761 19.5 19Z" fill="#161616"/>
<path d="M15.5254 14.3887V13.3516C15.5255 12.9052 15.6984 12.4734 16.0118 12.1523L16.1582 12.001L16.0118 11.8496C15.6984 11.5286 15.5255 11.0968 15.5254 10.6504V9.61328C15.5254 9.4828 15.4264 9.4082 15.3428 9.4082V7.9082C16.2889 7.9082 17.0254 8.68882 17.0254 9.61328V10.6504C17.0255 10.7105 17.0488 10.7646 17.085 10.8018L17.4141 11.1396C17.8805 11.6175 17.8805 12.3845 17.4141 12.8623L17.085 13.2002C17.0488 13.2373 17.0255 13.2914 17.0254 13.3516V14.3887C17.0254 15.3131 16.2889 16.0938 15.3428 16.0938V14.5938C15.4264 14.5938 15.5254 14.5192 15.5254 14.3887Z" fill="#161616"/>
<path d="M8.47465 14.3887V13.3516C8.47463 12.9052 8.3017 12.4734 7.98833 12.1523L7.84184 12.001L7.98833 11.8496C8.3017 11.5286 8.47463 11.0968 8.47465 10.6504V9.61328C8.47465 9.4828 8.57365 9.4082 8.65727 9.4082V7.9082C7.71118 7.9082 6.97465 8.68882 6.97465 9.61328V10.6504C6.97463 10.7105 6.95132 10.7646 6.91508 10.8018L6.58598 11.1396C6.11957 11.6175 6.11957 12.3845 6.58598 12.8623L6.91508 13.2002C6.95132 13.2373 6.97463 13.2914 6.97465 13.3516V14.3887C6.97465 15.3131 7.71118 16.0938 8.65727 16.0938V14.5938C8.57365 14.5938 8.47465 14.5192 8.47465 14.3887Z" fill="#161616"/>
<path d="M10.3365 11.252C10.7505 11.2521 11.0865 11.5878 11.0865 12.002C11.0865 12.4161 10.7505 12.7518 10.3365 12.752H10.3287C9.91444 12.752 9.57866 12.4162 9.57866 12.002C9.57866 11.5877 9.91444 11.252 10.3287 11.252H10.3365ZM13.6714 11.252C14.0856 11.252 14.4214 11.5877 14.4214 12.002C14.4214 12.4162 14.0856 12.752 13.6714 12.752H13.6636C13.2496 12.7518 12.9136 12.4161 12.9136 12.002C12.9136 11.5878 13.2496 11.2521 13.6636 11.252H13.6714Z" fill="#161616"/>
</svg>
