<svg width="24" height="24" viewBox="0 0 24 24" fill="none" xmlns="http://www.w3.org/2000/svg">
<path d="M15.5254 14.3867V13.3496C15.5254 12.9032 15.6983 12.4714 16.0117 12.1504L16.1582 11.999L16.0117 11.8477C15.6983 11.5266 15.5254 11.0948 15.5254 10.6484V9.61133C15.5254 9.48084 15.4264 9.40625 15.3428 9.40625V7.90625C16.2889 7.90625 17.0254 8.68686 17.0254 9.61133V10.6484C17.0254 10.7086 17.0487 10.7627 17.085 10.7998L17.4141 11.1377C17.8805 11.6155 17.8805 12.3825 17.4141 12.8604L17.085 13.1982C17.0487 13.2354 17.0254 13.2895 17.0254 13.3496V14.3867C17.0254 15.3112 16.2889 16.0918 15.3428 16.0918V14.5918C15.4264 14.5918 15.5254 14.5172 15.5254 14.3867Z" fill="#161616"/>
<path d="M8.47461 14.3867V13.3496C8.47458 12.9032 8.30166 12.4714 7.98828 12.1504L7.8418 11.999L7.98828 11.8477C8.30166 11.5266 8.47458 11.0948 8.47461 10.6484V9.61133C8.47461 9.48084 8.5736 9.40625 8.65723 9.40625V7.90625C7.71114 7.90625 6.97461 8.68686 6.97461 9.61133V10.6484C6.97458 10.7086 6.95127 10.7627 6.91504 10.7998L6.58594 11.1377C6.11952 11.6155 6.11952 12.3825 6.58594 12.8604L6.91504 13.1982C6.95127 13.2354 6.97458 13.2895 6.97461 13.3496V14.3867C6.97461 15.3112 7.71114 16.0918 8.65723 16.0918V14.5918C8.5736 14.5918 8.47461 14.5172 8.47461 14.3867Z" fill="#161616"/>
<path d="M10.3364 11.25C10.7505 11.2502 11.0864 11.5859 11.0864 12C11.0864 12.4141 10.7505 12.7498 10.3364 12.75H10.3286C9.9144 12.75 9.57861 12.4142 9.57861 12C9.57861 11.5858 9.9144 11.25 10.3286 11.25H10.3364ZM13.6714 11.25C14.0856 11.25 14.4214 11.5858 14.4214 12C14.4214 12.4142 14.0856 12.75 13.6714 12.75H13.6636C13.2495 12.7498 12.9136 12.4141 12.9136 12C12.9136 11.5859 13.2495 11.2502 13.6636 11.25H13.6714Z" fill="#161616"/>
<path d="M20.25 12C20.25 7.44365 16.5563 3.75 12 3.75C7.44365 3.75 3.75 7.44365 3.75 12C3.75 16.5563 7.44365 20.25 12 20.25C16.5563 20.25 20.25 16.5563 20.25 12ZM21.75 12C21.75 17.3848 17.3848 21.75 12 21.75C6.61522 21.75 2.25 17.3848 2.25 12C2.25 6.61522 6.61522 2.25 12 2.25C17.3848 2.25 21.75 6.61522 21.75 12Z" fill="#161616"/>
</svg>
