<svg width="24" height="24" viewBox="0 0 24 24" fill="none" xmlns="http://www.w3.org/2000/svg">
<path d="M8.4078 11.2501C8.82201 11.2501 9.1578 11.5859 9.1578 12.0001C9.1578 12.4144 8.82201 12.7501 8.4078 12.7501H8.39998C7.98577 12.7501 7.64998 12.4144 7.64998 12.0001C7.64998 11.5859 7.98577 11.2501 8.39998 11.2501H8.4078ZM12.0045 11.2501C12.4185 11.2504 12.7545 11.5861 12.7545 12.0001C12.7545 12.4142 12.4185 12.7499 12.0045 12.7501H11.9957C11.5816 12.75 11.2457 12.4143 11.2457 12.0001C11.2457 11.586 11.5816 11.2503 11.9957 11.2501H12.0045ZM15.6002 11.2501C16.0143 11.2503 16.3502 11.586 16.3502 12.0001C16.3502 12.4143 16.0143 12.75 15.6002 12.7501H15.5924C15.1782 12.7501 14.8424 12.4144 14.8424 12.0001C14.8424 11.5859 15.1782 11.2501 15.5924 11.2501H15.6002Z" fill="#161616"/>
<path d="M18.6578 17.7859C18.6578 16.8134 18.6316 15.8799 18.7994 15.0027C18.9757 14.0817 19.3603 13.2248 20.1392 12.3269C20.2866 12.157 20.2866 11.8435 20.1392 11.6736C19.3602 10.7757 18.9757 9.91883 18.7994 8.9978C18.6315 8.12055 18.6578 7.18714 18.6578 6.2146C18.6578 5.24714 17.9983 4.65015 17.4 4.65015V3.15015C19.0196 3.15015 20.1578 4.62577 20.1578 6.2146C20.1578 7.26461 20.139 8.01497 20.273 8.71558C20.3988 9.37256 20.6635 9.98864 21.2721 10.6902C21.9088 11.4241 21.9088 12.5764 21.2721 13.3103C20.6636 14.0117 20.3988 14.6271 20.273 15.2839C20.1389 15.9847 20.1578 16.7356 20.1578 17.7859C20.1578 19.3747 19.0196 20.8503 17.4 20.8503V19.3503C17.9983 19.3503 18.6578 18.7533 18.6578 17.7859Z" fill="#161616"/>
<path d="M5.34217 17.7859C5.34217 16.8134 5.36841 15.8799 5.20057 15.0027C5.02429 14.0817 4.6397 13.2248 3.86073 12.3269C3.71332 12.157 3.71332 11.8435 3.86073 11.6736C5.42552 9.87004 5.34218 8.22404 5.34217 6.2146C5.34217 5.24714 6.0017 4.65015 6.59998 4.65015V3.15015C4.98037 3.15015 3.84217 4.62577 3.84217 6.2146C3.84217 8.2881 3.87758 9.36493 2.72791 10.6902C2.09117 11.4241 2.09117 12.5764 2.72791 13.3103C3.33633 14.0117 3.60117 14.6271 3.72694 15.2839C3.86106 15.9847 3.84217 16.7356 3.84217 17.7859C3.84218 19.3747 4.98038 20.8503 6.59998 20.8503V19.3503C6.0017 19.3503 5.34218 18.7533 5.34217 17.7859Z" fill="#161616"/>
</svg>
