<svg width="30" height="30" viewBox="0 0 30 30" fill="none" xmlns="http://www.w3.org/2000/svg">
<path d="M2.375 23.1494V9.48926C2.37503 8.38075 2.79078 7.36733 3.47266 6.58887L3.63574 6.41211C4.47674 5.54901 5.66615 5.01379 6.97852 5.01367H14.1523V6.51367H6.97852C6.07921 6.51379 5.27444 6.87955 4.70996 7.45898L4.60059 7.57715C4.14535 8.09687 3.87503 8.76352 3.875 9.48926V23.1494C3.875 24.7688 5.24029 26.1248 6.97852 26.125H21.1104C22.8487 26.1249 24.2139 24.7689 24.2139 23.1494V16.8115H25.7139V23.1494C25.7139 25.6448 23.6288 27.6249 21.1104 27.625H6.97852C4.46019 27.6248 2.375 25.6448 2.375 23.1494ZM26.125 7.25586C26.125 5.42783 24.5449 3.875 22.5068 3.875C20.4689 3.87518 18.8896 5.42794 18.8896 7.25586C18.8898 7.75953 19.0949 8.37296 19.4766 9.05469C19.8523 9.72586 20.3634 10.4003 20.8906 11.0098C21.4156 11.6165 21.9427 12.143 22.3398 12.5186C22.398 12.5735 22.4549 12.6238 22.5068 12.6719C22.5589 12.6237 22.6166 12.5736 22.6748 12.5186C23.0719 12.143 23.5991 11.6164 24.124 11.0098C24.6513 10.4003 25.1623 9.72586 25.5381 9.05469C25.9197 8.37296 26.1249 7.75953 26.125 7.25586ZM21.7568 7.34766V7.26758C21.757 6.8536 22.0929 6.51777 22.5068 6.51758C22.921 6.51758 23.2567 6.85349 23.2568 7.26758V7.34766C23.2566 7.76167 22.9209 8.09766 22.5068 8.09766C22.0929 8.09747 21.7571 7.76155 21.7568 7.34766ZM27.625 7.25586C27.6249 8.12873 27.2838 9.00632 26.8467 9.78711C26.4035 10.5787 25.8225 11.3386 25.2578 11.9912C24.6911 12.6462 24.1268 13.2095 23.7051 13.6084C23.4937 13.8083 23.3171 13.9686 23.1924 14.0791C23.13 14.1344 23.0803 14.1774 23.0459 14.207C23.0287 14.2218 23.0153 14.2332 23.0059 14.2412C23.0011 14.2452 22.9968 14.2487 22.9941 14.251C22.9931 14.2519 22.9919 14.2523 22.9912 14.2529L22.9902 14.2539V14.2549C22.7462 14.46 22.4034 14.4858 22.1348 14.332L22.0244 14.2549V14.2539L22.0234 14.2529C22.0226 14.2523 22.0208 14.2521 22.0195 14.251C22.0169 14.2487 22.0135 14.2452 22.0088 14.2412C21.9994 14.2332 21.9859 14.2218 21.9688 14.207C21.9343 14.1774 21.8846 14.1343 21.8223 14.0791C21.6975 13.9686 21.521 13.8083 21.3096 13.6084C20.8878 13.2095 20.3227 12.6464 19.7559 11.9912C19.1913 11.3386 18.6101 10.5787 18.167 9.78711C17.73 9.0064 17.3898 8.12862 17.3896 7.25586C17.3896 4.52165 19.7205 2.37518 22.5068 2.375C25.2933 2.375 27.625 4.52153 27.625 7.25586Z" fill="#161616"/>
<path d="M16.6052 23.102H14.1687V15.9311H16.6449C18.7843 15.9311 20.0818 17.2781 20.0818 19.5067C20.0818 21.7451 18.7843 23.102 16.6052 23.102ZM15.4563 21.9828H16.5359C18.0315 21.9828 18.7942 21.1607 18.7942 19.5067C18.7942 17.8625 18.0315 17.0503 16.5755 17.0503H15.4563V21.9828Z" fill="#161616"/>
<path d="M8.29346 23.102V22.171L10.829 19.7246C11.5521 19.0015 11.9285 18.5756 11.9285 17.9714C11.9285 17.3078 11.4035 16.8819 10.7003 16.8819C9.95744 16.8819 9.48201 17.3474 9.49192 18.0705H8.26374C8.25384 16.7135 9.27402 15.832 10.7102 15.832C12.1761 15.832 13.1665 16.7036 13.1665 17.912C13.1665 18.7242 12.7704 19.3779 11.3639 20.7051L10.0862 21.9729V22.0224H13.2755V23.102H8.29346Z" fill="#161616"/>
</svg>
