<svg width="24" height="24" viewBox="0 0 24 24" fill="none" xmlns="http://www.w3.org/2000/svg">
<path d="M4.49988 18.4393L7.58289 15.3563V9.08289H4.49988V18.4393ZM19.4999 5.56043L16.4169 8.64344V12.5409H14.9169V9.08289H9.08289V15.6669C9.08281 15.8657 9.00374 16.0566 8.86316 16.1971L5.56043 19.4999H9.69031V20.9999H4.48328C4.36731 20.9999 4.23503 21.0004 4.12098 20.9911C4.02882 20.9836 3.91228 20.9674 3.78699 20.9227L3.66004 20.868C3.43268 20.7522 3.24757 20.5671 3.13172 20.3397C3.04403 20.1675 3.01871 20.0015 3.00867 19.8788C2.99935 19.7647 2.99988 19.6325 2.99988 19.5165V8.94031C2.99988 8.75199 2.99502 8.53574 3.04578 8.3241C3.08661 8.15404 3.15362 7.9908 3.245 7.84168C3.35885 7.65592 3.51602 7.50621 3.6493 7.37293L7.37293 3.6493L7.58777 3.44031C7.66514 3.37023 7.7487 3.30199 7.84168 3.245C7.9908 3.15362 8.15404 3.08661 8.3241 3.04578C8.53575 2.99502 8.75199 2.99988 8.94031 2.99988H19.5165C19.6325 2.99988 19.7647 2.99935 19.8788 3.00867C19.9709 3.01621 20.0875 3.0324 20.2128 3.07703L20.3397 3.13172L20.5018 3.23133C20.6042 3.30572 20.694 3.39562 20.7684 3.49793L20.868 3.66004L20.9227 3.78699C20.9674 3.91228 20.9836 4.02882 20.9911 4.12098C21.0004 4.23503 20.9999 4.36731 20.9999 4.48328V12.5409H19.4999V5.56043ZM9.08289 7.58289H15.3563L18.4393 4.49988H9.08289V7.58289ZM5.56141 7.58289H7.58289V5.56141L5.56141 7.58289Z" fill="#161616"/>
<path d="M19.3419 20.7387H17.0895V14.0241H19.3785C21.3562 14.0241 22.5557 15.2854 22.5557 17.3721C22.5557 19.4681 21.3562 20.7387 19.3419 20.7387ZM18.2798 19.6907H19.2778C20.6604 19.6907 21.3654 18.9209 21.3654 17.3721C21.3654 15.8326 20.6604 15.0721 19.3144 15.0721H18.2798V19.6907Z" fill="#161616"/>
<path d="M13.5095 20.8314C12.0903 20.8314 11.0831 20.0524 11.0557 18.9209H12.2551C12.2917 19.4588 12.8228 19.8112 13.5095 19.8112C14.242 19.8112 14.7639 19.4032 14.7639 18.8096C14.7639 18.2068 14.2511 17.7709 13.3905 17.7709H12.7953V16.8435H13.3905C14.0955 16.8435 14.5899 16.4447 14.5807 15.8604C14.5899 15.2947 14.1687 14.9145 13.5186 14.9145C12.896 14.9145 12.3558 15.2669 12.3375 15.8326H11.193C11.2205 14.7012 12.2276 13.9314 13.5278 13.9314C14.8737 13.9314 15.7436 14.7661 15.7344 15.7955C15.7436 16.5467 15.2491 17.0939 14.5258 17.2423V17.2979C15.4597 17.4278 15.9908 18.0306 15.9816 18.8745C15.9908 20.006 14.947 20.8314 13.5095 20.8314Z" fill="#161616"/>
</svg>
