<svg width="30" height="30" viewBox="0 0 30 30" fill="none" xmlns="http://www.w3.org/2000/svg">
<path d="M2.375 23.1494V9.48926C2.37503 8.38075 2.79078 7.36733 3.47266 6.58887L3.63574 6.41211C4.47674 5.54901 5.66615 5.01379 6.97852 5.01367H14.1523V6.51367H6.97852C6.07921 6.51379 5.27444 6.87955 4.70996 7.45898L4.60059 7.57715C4.14535 8.09687 3.87503 8.76352 3.875 9.48926V23.1494C3.875 24.7688 5.24029 26.1248 6.97852 26.125H21.1104C22.8487 26.1249 24.2139 24.7689 24.2139 23.1494V16.8115H25.7139V23.1494C25.7139 25.6448 23.6288 27.6249 21.1104 27.625H6.97852C4.46019 27.6248 2.375 25.6448 2.375 23.1494ZM26.125 7.25586C26.125 5.42783 24.5449 3.875 22.5068 3.875C20.4689 3.87518 18.8896 5.42794 18.8896 7.25586C18.8898 7.75953 19.0949 8.37296 19.4766 9.05469C19.8523 9.72586 20.3634 10.4003 20.8906 11.0098C21.4156 11.6165 21.9427 12.143 22.3398 12.5186C22.398 12.5735 22.4549 12.6238 22.5068 12.6719C22.5589 12.6237 22.6166 12.5736 22.6748 12.5186C23.0719 12.143 23.5991 11.6164 24.124 11.0098C24.6513 10.4003 25.1623 9.72586 25.5381 9.05469C25.9197 8.37296 26.1249 7.75953 26.125 7.25586ZM21.7568 7.34766V7.26758C21.757 6.8536 22.0929 6.51777 22.5068 6.51758C22.921 6.51758 23.2567 6.85349 23.2568 7.26758V7.34766C23.2566 7.76167 22.9209 8.09766 22.5068 8.09766C22.0929 8.09747 21.7571 7.76155 21.7568 7.34766ZM27.625 7.25586C27.6249 8.12873 27.2838 9.00632 26.8467 9.78711C26.4035 10.5787 25.8225 11.3386 25.2578 11.9912C24.6911 12.6462 24.1268 13.2095 23.7051 13.6084C23.4937 13.8083 23.3171 13.9686 23.1924 14.0791C23.13 14.1344 23.0803 14.1774 23.0459 14.207C23.0287 14.2218 23.0153 14.2332 23.0059 14.2412C23.0011 14.2452 22.9968 14.2487 22.9941 14.251C22.9931 14.2519 22.9919 14.2523 22.9912 14.2529L22.9902 14.2539V14.2549C22.7462 14.46 22.4034 14.4858 22.1348 14.332L22.0244 14.2549V14.2539L22.0234 14.2529C22.0226 14.2523 22.0208 14.2521 22.0195 14.251C22.0169 14.2487 22.0135 14.2452 22.0088 14.2412C21.9994 14.2332 21.9859 14.2218 21.9688 14.207C21.9343 14.1774 21.8846 14.1343 21.8223 14.0791C21.6975 13.9686 21.521 13.8083 21.3096 13.6084C20.8878 13.2095 20.3227 12.6464 19.7559 11.9912C19.1913 11.3386 18.6101 10.5787 18.167 9.78711C17.73 9.0064 17.3898 8.12862 17.3896 7.25586C17.3896 4.52165 19.7205 2.37518 22.5068 2.375C25.2933 2.375 27.625 4.52153 27.625 7.25586Z" fill="#161616"/>
<path d="M16.6353 23.0022H14.2329V15.9319H16.6743C18.7837 15.9319 20.063 17.26 20.063 19.4573C20.063 21.6643 18.7837 23.0022 16.6353 23.0022ZM15.5024 21.8987H16.5669C18.0415 21.8987 18.7935 21.0881 18.7935 19.4573C18.7935 17.8362 18.0415 17.0354 16.606 17.0354H15.5024V21.8987Z" fill="#161616"/>
<path d="M10.7144 23.0999C9.20068 23.0999 8.12646 22.2795 8.09717 21.0881H9.37646C9.41553 21.6545 9.98193 22.0256 10.7144 22.0256C11.4956 22.0256 12.0522 21.5959 12.0522 20.9709C12.0522 20.3362 11.5054 19.8772 10.5874 19.8772H9.95264V18.9006H10.5874C11.3394 18.9006 11.8667 18.4807 11.8569 17.8655C11.8667 17.2698 11.4175 16.8694 10.7241 16.8694C10.0601 16.8694 9.48389 17.2405 9.46436 17.8362H8.24365C8.27295 16.6448 9.34717 15.8342 10.7339 15.8342C12.1694 15.8342 13.0972 16.7131 13.0874 17.7971C13.0972 18.5881 12.5698 19.1643 11.7983 19.3206V19.3792C12.7944 19.5159 13.3608 20.1506 13.3511 21.0393C13.3608 22.2307 12.2476 23.0999 10.7144 23.0999Z" fill="#161616"/>
</svg>
