<svg width="24" height="24" viewBox="0 0 24 24" fill="none" xmlns="http://www.w3.org/2000/svg">
<path fill-rule="evenodd" clip-rule="evenodd" d="M11.477 2.46225C11.7681 2.17925 12.2315 2.17925 12.5226 2.46225L19.7226 9.46225C19.9415 9.67505 20.0096 9.99928 19.8947 10.2821C19.7799 10.565 19.5051 10.75 19.1998 10.75H15.8355L15.8355 20.2205C15.8356 20.3424 15.8356 20.4757 15.8259 20.5912C15.8149 20.7227 15.7874 20.8965 15.6938 21.0751C15.5697 21.312 15.3738 21.5006 15.1377 21.6176C14.9612 21.705 14.7904 21.7305 14.6599 21.7408C14.5437 21.7501 14.4091 21.75 14.2829 21.75H9.71679C9.59054 21.75 9.45594 21.7501 9.3398 21.7408C9.2093 21.7305 9.03847 21.705 8.862 21.6176C8.62589 21.5006 8.42998 21.312 8.30587 21.0751C8.21223 20.8965 8.1848 20.7227 8.17376 20.5912C8.16405 20.4757 8.16408 20.3424 8.16411 20.2205L8.16411 10.75H4.79983C4.49456 10.75 4.21975 10.565 4.10492 10.2821C3.99008 9.99928 4.05814 9.67505 4.27702 9.46225L11.477 2.46225ZM6.64718 9.25H8.91411C9.32833 9.25 9.66411 9.58579 9.66411 10V20.2C9.66411 20.2176 9.66412 20.2342 9.66413 20.25C9.68653 20.25 9.71067 20.25 9.73697 20.25H14.2627C14.289 20.25 14.3131 20.25 14.3355 20.25C14.3355 20.2342 14.3355 20.2176 14.3355 20.2V10C14.3355 9.58579 14.6713 9.25 15.0855 9.25H17.3525L11.9998 4.04603L6.64718 9.25Z" fill="#161616"/>
</svg>
