<svg width="24" height="24" viewBox="0 0 24 24" fill="none" xmlns="http://www.w3.org/2000/svg">
<path d="M4.5 14.5H3L3 9.5H4.5L4.5 14.5ZM5 15H15C15.2761 15 15.5 14.7761 15.5 14.5V9.5C15.5 9.22386 15.2761 9 15 9L5 9C4.72386 9 4.5 9.22386 4.5 9.5H3L3.01074 9.2959C3.1062 8.35435 3.85435 7.6062 4.7959 7.51074L5 7.5L15 7.5C16.1046 7.5 17 8.39543 17 9.5V14.5C17 15.6046 16.1046 16.5 15 16.5H5C3.96435 16.5 3.113 15.7128 3.01074 14.7041L3 14.5H4.5C4.5 14.7761 4.72386 15 5 15Z" fill="#161616"/>
<path d="M21 3V21H19.5V3L21 3Z" fill="#161616"/>
</svg>
