<svg width="24" height="24" viewBox="0 0 24 24" fill="none" xmlns="http://www.w3.org/2000/svg">
<path d="M12.0576 3.75C9.35193 3.75016 6.97443 5.1758 5.55762 7.33203V4.14551H4.05762V9.1875C4.05768 9.60149 4.39367 9.93724 4.80762 9.9375H9.84961V8.4375H6.61621C7.75265 6.51699 9.76869 5.25016 12.0576 5.25C15.5766 5.25 18.4688 8.25016 18.4688 12C18.4687 15.7498 15.5766 18.75 12.0576 18.75C9.32128 18.7498 6.9673 16.9393 6.05273 14.3672L5.96973 14.1162L5.86816 13.8564H4.34082L4.56445 14.5713L4.66699 14.877C5.77879 18.0026 8.6579 20.2498 12.0576 20.25C16.4331 20.25 19.9424 16.5344 19.9424 12C19.9424 7.46557 16.4331 3.75 12.0576 3.75Z" fill="#161616"/>
</svg>
