<svg width="24" height="24" viewBox="0 0 24 24" fill="none" xmlns="http://www.w3.org/2000/svg">
<path d="M11.9424 3.75C14.6481 3.75016 17.0256 5.1758 18.4424 7.33203V4.14551H19.9424V9.1875C19.9423 9.60149 19.6063 9.93724 19.1924 9.9375H14.1504V8.4375H17.3838C16.2474 6.51699 14.2313 5.25016 11.9424 5.25C8.42345 5.25 5.53125 8.25016 5.53125 12C5.53125 15.7498 8.42345 18.75 11.9424 18.75C14.6787 18.7498 17.0327 16.9393 17.9473 14.3672L18.0303 14.1162L18.1318 13.8564H19.6592L19.4355 14.5713L19.333 14.877C18.2212 18.0026 15.3421 20.2498 11.9424 20.25C7.56691 20.25 4.05762 16.5344 4.05762 12C4.05762 7.46557 7.56691 3.75 11.9424 3.75Z" fill="#161616"/>
</svg>
