<svg width="24" height="24" viewBox="0 0 24 24" fill="none" xmlns="http://www.w3.org/2000/svg">
<path d="M16.2974 9.70527C16.2971 7.33213 14.3727 5.4084 11.9995 5.4084C9.62654 5.40866 7.70291 7.33229 7.70265 9.70527V15.6711C7.70265 16.341 7.70449 16.768 7.7466 17.0813C7.78581 17.3729 7.84723 17.4514 7.88625 17.4904C7.92528 17.5294 8.00389 17.5909 8.29543 17.6301C8.60865 17.6722 9.03569 17.674 9.70558 17.674H14.2944C14.9643 17.674 15.3914 17.6722 15.7046 17.6301C15.9962 17.5909 16.0748 17.5294 16.1138 17.4904C16.1528 17.4514 16.2142 17.3729 16.2534 17.0813C16.2955 16.768 16.2974 16.341 16.2974 15.6711V9.70527ZM17.7974 15.6711C17.7974 16.2987 17.7994 16.8451 17.7407 17.2814C17.6791 17.7394 17.5384 18.1869 17.1743 18.551C16.8102 18.9151 16.3627 19.0548 15.9048 19.1164C15.4684 19.1751 14.9221 19.174 14.2944 19.174H9.70558C9.07794 19.174 8.53164 19.1751 8.09523 19.1164C7.6373 19.0548 7.18981 18.915 6.8257 18.551C6.46158 18.1869 6.32089 17.7394 6.25929 17.2814C6.20062 16.8451 6.20265 16.2987 6.20265 15.6711V9.70527C6.20291 6.50386 8.79812 3.90866 11.9995 3.9084C15.2012 3.9084 17.7971 6.5037 17.7974 9.70527V15.6711Z" fill="#161616"/>
<path d="M18.5916 10.3323H20.0916V17.3382H18.5916V10.3323Z" fill="#161616"/>
<path d="M14.0031 17.6739H15.5031V21.9268H14.0031V17.6739Z" fill="#161616"/>
<path d="M8.4969 17.6739H9.9969V21.9268H8.4969V17.6739Z" fill="#161616"/>
<path d="M3.9084 10.3323H5.4084V17.3382H3.9084V10.3323Z" fill="#161616"/>
<path d="M11.2148 4.80835L10.0146 5.70874L7.73825 2.67261L8.93844 1.77319L11.2148 4.80835ZM16.2617 2.67261L13.9853 5.70874L12.7851 4.80835L15.0615 1.77319L16.2617 2.67261Z" fill="#161616"/>
<path d="M17.7974 9.4146V10.9146H6.20265V9.4146H17.7974Z" fill="#161616"/>
</svg>
