<svg width="24" height="24" viewBox="0 0 24 24" fill="none" xmlns="http://www.w3.org/2000/svg">
<path d="M12.0002 7.84961C13.0079 7.84961 13.9318 8.20844 14.6506 8.80566V7.84961H16.1506V12.8496C16.1507 13.3268 16.3397 13.7846 16.677 14.1221C17.0146 14.4596 17.4731 14.6494 17.9504 14.6494C18.4278 14.6494 18.8854 14.4596 19.2229 14.1221C19.5604 13.7845 19.7502 13.3269 19.7502 12.8496V12L19.7434 11.6719C19.6743 10.0392 19.0898 8.46705 18.0706 7.18262C16.9834 5.81268 15.4651 4.85069 13.762 4.45312C12.0586 4.0556 10.2702 4.24581 8.68872 4.99316C7.10738 5.74053 5.82532 7.00099 5.05103 8.56933C4.27676 10.1377 4.05581 11.9219 4.42408 13.6318C4.79236 15.3417 5.72811 16.8767 7.07935 17.9873C8.43068 19.0979 10.1185 19.7189 11.8674 19.749C13.6161 19.779 15.3236 19.2166 16.7122 18.1533L17.3079 17.6973L18.22 18.8877L17.6243 19.3437C15.9668 20.6131 13.9285 21.2849 11.8411 21.249C9.75382 21.2131 7.74001 20.4719 6.1272 19.1465C4.51432 17.8209 3.39684 15.9882 2.95728 13.9473C2.51783 11.9065 2.78216 9.77714 3.7063 7.90527C4.63051 6.03329 6.16056 4.52872 8.0481 3.63672C9.93562 2.74475 12.0697 2.51774 14.1028 2.99219C16.1357 3.46669 17.9487 4.61474 19.2463 6.25C20.5439 7.88523 21.25 9.9115 21.2502 11.999V12.8496C21.2502 13.7248 20.9023 14.5638 20.2835 15.1826C19.6646 15.8014 18.8256 16.1494 17.9504 16.1494C17.0752 16.1494 16.2353 15.8015 15.6165 15.1826C15.4546 15.0208 15.3111 14.844 15.1877 14.6553C14.4265 15.5679 13.2816 16.1494 12.0002 16.1494C9.70827 16.1494 7.84986 14.291 7.84986 11.999C7.8501 9.70725 9.70842 7.84961 12.0002 7.84961ZM9.34986 11.999C9.34986 13.4626 10.5367 14.6494 12.0002 14.6494C13.3723 14.6494 14.5012 13.6068 14.637 12.2705L14.6506 11.999L14.637 11.7285C14.5013 10.3922 13.3723 9.34961 12.0002 9.34961C10.5368 9.34961 9.3501 10.5357 9.34986 11.999Z" fill="#161616"/>
</svg>
