<svg width="24" height="24" viewBox="0 0 24 24" fill="none" xmlns="http://www.w3.org/2000/svg">
<path fill-rule="evenodd" clip-rule="evenodd" d="M13.7179 4.10504C14.0007 3.9902 14.325 4.05827 14.5378 4.27714L21.5378 11.4771C21.8208 11.7682 21.8208 12.2317 21.5378 12.5228L14.5378 19.7228C14.325 19.9416 14.0007 20.0097 13.7179 19.8949C13.435 19.78 13.25 19.5052 13.25 19.2V15.8357L3.77949 15.8357C3.65762 15.8357 3.52434 15.8357 3.4088 15.826C3.27734 15.815 3.10353 15.7875 2.92486 15.6939C2.68805 15.5698 2.4994 15.3739 2.38244 15.1378C2.29503 14.9613 2.26954 14.7905 2.25917 14.66C2.24995 14.5438 2.24998 14.4092 2.25 14.283L2.25001 9.73709C2.25001 9.73039 2.25 9.72366 2.25 9.71691C2.24998 9.59066 2.24995 9.45606 2.25917 9.33992C2.26954 9.20942 2.29503 9.03859 2.38244 8.86212C2.4994 8.62601 2.68805 8.4301 2.92486 8.30599C3.10353 8.21235 3.27734 8.18493 3.4088 8.17388C3.52435 8.16417 3.65763 8.1642 3.7795 8.16423C3.78637 8.16424 3.79321 8.16424 3.80001 8.16424H13.25V4.79995C13.25 4.49468 13.435 4.21987 13.7179 4.10504ZM14.75 6.6473V8.91424C14.75 9.32845 14.4142 9.66424 14 9.66424H3.80001C3.78237 9.66424 3.76576 9.66424 3.75005 9.66425C3.75001 9.68665 3.75001 9.7108 3.75001 9.73709V14.2628C3.75001 14.2891 3.75001 14.3132 3.75004 14.3356C3.76576 14.3357 3.78237 14.3357 3.80001 14.3357H14C14.4142 14.3357 14.75 14.6715 14.75 15.0857V17.3526L19.954 12L14.75 6.6473ZM3.75612 14.5571C3.75612 14.5571 3.75606 14.5567 3.75595 14.556L3.75612 14.5571Z" fill="#161616"/>
</svg>
