<svg width="24" height="24" viewBox="0 0 24 24" fill="none" xmlns="http://www.w3.org/2000/svg">
<path d="M4.5 3L4.5 21H3L3 3L4.5 3Z" fill="#161616"/>
<path d="M7.5 14.5H6L6 9.5H7.5V14.5ZM8 15H19C19.2761 15 19.5 14.7761 19.5 14.5V9.5C19.5 9.22386 19.2761 9 19 9L8 9C7.72386 9 7.5 9.22386 7.5 9.5H6L6.01074 9.2959C6.1062 8.35435 6.85435 7.6062 7.7959 7.51074L8 7.5L19 7.5C20.1046 7.5 21 8.39543 21 9.5V14.5C21 15.6046 20.1046 16.5 19 16.5H8C6.96435 16.5 6.11301 15.7128 6.01074 14.7041L6 14.5H7.5C7.5 14.7761 7.72386 15 8 15Z" fill="#161616"/>
</svg>
