<svg width="24" height="24" viewBox="0 0 24 24" fill="none" xmlns="http://www.w3.org/2000/svg">
<path d="M19.75 12C19.75 7.71979 16.2802 4.25 12 4.25C7.71979 4.25 4.25 7.71979 4.25 12C4.25 16.2802 7.71979 19.75 12 19.75C16.2802 19.75 19.75 16.2802 19.75 12ZM11.25 7.84961H12.75V13.5898L15.4004 10.9395L16.4609 12L12.5303 15.9307C12.3896 16.0712 12.1988 16.1504 12 16.1504C11.8509 16.1504 11.7062 16.1059 11.584 16.0244L11.4697 15.9307L7.53906 12L8.59961 10.9395L11.25 13.5898V7.84961ZM21.25 12C21.25 17.1086 17.1086 21.25 12 21.25C6.89137 21.25 2.75 17.1086 2.75 12C2.75 6.89137 6.89137 2.75 12 2.75C17.1086 2.75 21.25 6.89137 21.25 12Z" fill="#161616"/>
</svg>
