<svg width="24" height="24" viewBox="0 0 24 24" fill="none" xmlns="http://www.w3.org/2000/svg">
<path d="M19.75 12C19.75 7.71979 16.2802 4.25 12 4.25C7.71979 4.25 4.25 7.71979 4.25 12C4.25 16.2802 7.71979 19.75 12 19.75C16.2802 19.75 19.75 16.2802 19.75 12ZM11.25 10.4102L8.59961 13.0605L7.53906 12L11.4697 8.06934L11.5264 8.01855C11.8209 7.77806 12.2556 7.79483 12.5303 8.06934L16.4609 12L15.4004 13.0605L12.75 10.4102V16.1504H11.25V10.4102ZM21.25 12C21.25 17.1086 17.1086 21.25 12 21.25C6.89137 21.25 2.75 17.1086 2.75 12C2.75 6.89137 6.89137 2.75 12 2.75C17.1086 2.75 21.25 6.89137 21.25 12Z" fill="#161616"/>
</svg>
