<svg width="24" height="24" viewBox="0 0 24 24" fill="none" xmlns="http://www.w3.org/2000/svg">
<path fill-rule="evenodd" clip-rule="evenodd" d="M10.2821 4.10504C10.565 4.21987 10.75 4.49468 10.75 4.79995V8.16424L20.2205 8.16423C20.3424 8.1642 20.4757 8.16417 20.5912 8.17388C20.7227 8.18493 20.8965 8.21235 21.0751 8.30599C21.312 8.4301 21.5006 8.62601 21.6176 8.86212C21.705 9.03859 21.7305 9.20942 21.7408 9.33992C21.7501 9.45606 21.75 9.59067 21.75 9.71692V14.283C21.75 14.4092 21.7501 14.5438 21.7408 14.66C21.7305 14.7905 21.705 14.9613 21.6176 15.1378C21.5006 15.3739 21.312 15.5698 21.0751 15.6939C20.8965 15.7875 20.7227 15.815 20.5912 15.826C20.4757 15.8357 20.3424 15.8357 20.2205 15.8357L10.75 15.8357V19.2C10.75 19.5052 10.565 19.78 10.2821 19.8949C9.99928 20.0097 9.67505 19.9416 9.46225 19.7228L2.46225 12.5228C2.17925 12.2317 2.17925 11.7682 2.46225 11.4771L9.46225 4.27714C9.67505 4.05827 9.99928 3.9902 10.2821 4.10504ZM4.04603 12L9.25 17.3526V15.0857C9.25 14.6715 9.58579 14.3357 10 14.3357H20.2C20.2176 14.3357 20.2342 14.3357 20.25 14.3356C20.25 14.3132 20.25 14.2891 20.25 14.2628V9.73709C20.25 9.7108 20.25 9.68665 20.25 9.66425C20.2342 9.66424 20.2176 9.66424 20.2 9.66424H10C9.58579 9.66424 9.25 9.32845 9.25 8.91424V6.6473L4.04603 12Z" fill="#161616"/>
</svg>
