<svg width="24" height="24" viewBox="0 0 24 24" fill="none" xmlns="http://www.w3.org/2000/svg">
<path d="M19.75 12C19.75 7.71979 16.2802 4.25 12 4.25C7.71979 4.25 4.25 7.71979 4.25 12C4.25 16.2802 7.71979 19.75 12 19.75C16.2802 19.75 19.75 16.2802 19.75 12ZM21.25 12C21.25 17.1086 17.1086 21.25 12 21.25C6.89137 21.25 2.75 17.1086 2.75 12C2.75 6.89137 6.89137 2.75 12 2.75C17.1086 2.75 21.25 6.89137 21.25 12ZM15.2998 15.2998H13.7998V11.2607L9.4502 15.6104L8.38965 14.5498L12.7393 10.2002H8.7002V8.7002H14.5498C14.964 8.7002 15.2998 9.03598 15.2998 9.4502V15.2998Z" fill="#161616"/>
</svg>
