<svg width="24" height="24" viewBox="0 0 24 24" fill="none" xmlns="http://www.w3.org/2000/svg">
<path d="M9.48828 2.75C9.81094 2.75009 10.0971 2.95663 10.1992 3.2627L15.1543 18.1279L17.2764 11.7627L17.3232 11.6533C17.4508 11.4084 17.7057 11.25 17.9883 11.25H22.5156V12.75H18.5283L15.8662 20.7373C15.7641 21.0435 15.4771 21.25 15.1543 21.25C14.8317 21.2498 14.5454 21.0433 14.4434 20.7373L9.4873 5.87109L7.36621 12.2373C7.26409 12.5435 6.97707 12.75 6.6543 12.75H2.12695V11.25H6.11426L8.77637 3.2627L8.82324 3.15332C8.95084 2.90842 9.20568 2.75 9.48828 2.75Z" fill="#161616"/>
</svg>
