<svg width="24" height="24" viewBox="0 0 24 24" fill="none" xmlns="http://www.w3.org/2000/svg">
<path d="M7.0498 12.1504C7.33383 12.1504 7.59363 12.3105 7.7207 12.5645L8.42676 13.9766C8.67844 14.4799 8.76312 14.642 8.86816 14.7783C8.97034 14.9108 9.08917 15.0297 9.22168 15.1318C9.35796 15.2369 9.52006 15.3216 10.0234 15.5732L11.4355 16.2793C11.6895 16.4064 11.8496 16.6662 11.8496 16.9502C11.8495 17.2342 11.6896 17.4941 11.4355 17.6211L10.0234 18.3271C9.52018 18.5788 9.35794 18.6626 9.22168 18.7676C9.08898 18.8699 8.97045 18.9894 8.86816 19.1221C8.76312 19.2583 8.67844 19.4205 8.42676 19.9238L7.7207 21.335C7.59366 21.5891 7.33388 21.75 7.0498 21.75C6.7658 21.7499 6.50592 21.589 6.37891 21.335L5.67285 19.9238C5.42134 19.4208 5.33737 19.2583 5.23242 19.1221C5.13014 18.9894 5.01063 18.8699 4.87793 18.7676C4.80991 18.7152 4.73532 18.6681 4.61523 18.6025L4.07617 18.3271L2.66504 17.6211C2.41101 17.4941 2.25007 17.2342 2.25 16.9502C2.25 16.6661 2.41095 16.4063 2.66504 16.2793L4.07617 15.5732L4.61523 15.2979C4.73558 15.2322 4.80981 15.1843 4.87793 15.1318C5.01062 15.0296 5.13014 14.911 5.23242 14.7783C5.33745 14.6421 5.42122 14.4798 5.67285 13.9766L6.37891 12.5645L6.43262 12.4736C6.57128 12.2728 6.80132 12.1505 7.0498 12.1504ZM7.01465 14.6475C6.78854 15.0997 6.63398 15.4156 6.41992 15.6934C6.23896 15.9281 6.02871 16.1393 5.79395 16.3203C5.65497 16.4274 5.50633 16.5196 5.33594 16.6133L4.74707 16.915L4.67676 16.9502L4.74707 16.9854L5.33594 17.2871C5.50629 17.3808 5.655 17.473 5.79395 17.5801C6.02861 17.761 6.23901 17.9714 6.41992 18.2061C6.63409 18.4839 6.78846 18.8005 7.01465 19.2529L7.0498 19.3232L7.08496 19.2529C7.31114 18.8006 7.46555 18.4839 7.67969 18.2061C7.86065 17.9713 8.07187 17.761 8.30664 17.5801C8.5844 17.366 8.90032 17.2115 9.35254 16.9854L9.42285 16.9502L9.35254 16.915C8.90038 16.689 8.58437 16.5343 8.30664 16.3203C8.07187 16.1393 7.86065 15.9281 7.67969 15.6934C7.46569 15.4156 7.31104 15.0996 7.08496 14.6475L7.0498 14.5771L7.01465 14.6475ZM14.7002 2.25C15.0104 2.25008 15.289 2.44096 15.4004 2.73047L16.4609 5.48828C16.7285 6.18405 16.8205 6.40837 16.9502 6.59082C17.0765 6.76839 17.2316 6.92352 17.4092 7.0498C17.5916 7.17954 17.816 7.27146 18.5117 7.53906L21.2695 8.59961C21.559 8.71102 21.7499 8.9896 21.75 9.2998C21.75 9.61004 21.559 9.88853 21.2695 10L18.5117 11.0605C17.816 11.3281 17.5916 11.4201 17.4092 11.5498C17.2317 11.676 17.0765 11.8313 16.9502 12.0088C16.8205 12.1912 16.7285 12.4156 16.4609 13.1113L15.4004 15.8691C15.289 16.1587 15.0104 16.3495 14.7002 16.3496C14.3899 16.3496 14.1114 16.1588 14 15.8691L12.9395 13.1113C12.6719 12.4156 12.5799 12.1912 12.4502 12.0088C12.3239 11.8313 12.1687 11.6761 11.9912 11.5498C11.8088 11.4201 11.5844 11.3281 10.8887 11.0605L8.13086 10C7.84122 9.8886 7.65039 9.61013 7.65039 9.2998C7.65047 8.98955 7.84128 8.71099 8.13086 8.59961L10.8887 7.53906C11.5844 7.27146 11.8088 7.17954 11.9912 7.0498C12.1687 6.92353 12.324 6.76835 12.4502 6.59082C12.5799 6.40838 12.6719 6.18395 12.9395 5.48828L14 2.73047L14.0498 2.62695C14.182 2.39645 14.4287 2.25 14.7002 2.25ZM14.3389 6.02734C14.099 6.65113 13.9377 7.08743 13.6729 7.45996C13.4494 7.7742 13.1746 8.049 12.8604 8.27246C12.4877 8.53742 12.0508 8.69944 11.4268 8.93945L10.4883 9.2998L11.4268 9.66113C12.0508 9.90115 12.4877 10.0622 12.8604 10.3271C13.1746 10.5506 13.4494 10.8254 13.6729 11.1396C13.9378 11.5123 14.0988 11.9492 14.3389 12.5732L14.6992 13.5107L15.0605 12.5732C15.3006 11.9492 15.4626 11.5123 15.7275 11.1396C15.951 10.8254 16.2258 10.5506 16.54 10.3271C16.9126 10.0623 17.3489 9.90105 17.9727 9.66113L18.9102 9.2998L17.9727 8.93945C17.3487 8.69946 16.9126 8.53739 16.54 8.27246C16.2257 8.04897 15.951 7.77427 15.7275 7.45996C15.4626 7.08735 15.3005 6.65134 15.0605 6.02734L14.6992 5.08887L14.3389 6.02734Z" fill="#161616"/>
</svg>
