<svg width="24" height="24" viewBox="0 0 24 24" fill="none" xmlns="http://www.w3.org/2000/svg">
<path d="M9.25 17.3393C9.25 16.0967 8.24264 15.0893 7 15.0893C5.75736 15.0893 4.75 16.0967 4.75 17.3393C4.75 18.5819 5.75736 19.5893 7 19.5893C8.24264 19.5893 9.25 18.5819 9.25 17.3393ZM10.75 17.3393C10.75 19.4104 9.07107 21.0893 7 21.0893C4.92893 21.0893 3.25 19.4104 3.25 17.3393C3.25 15.2682 4.92893 13.5893 7 13.5893C9.07107 13.5893 10.75 15.2682 10.75 17.3393Z" fill="#161616"/>
<path d="M19.25 17.3393C19.25 16.0967 18.2426 15.0893 17 15.0893C15.7574 15.0893 14.75 16.0967 14.75 17.3393C14.75 18.5819 15.7574 19.5893 17 19.5893C18.2426 19.5893 19.25 18.5819 19.25 17.3393ZM20.75 17.3393C20.75 19.4104 19.0711 21.0893 17 21.0893C14.9289 21.0893 13.25 19.4104 13.25 17.3393C13.25 15.2682 14.9289 13.5893 17 13.5893C19.0711 13.5893 20.75 15.2682 20.75 17.3393Z" fill="#161616"/>
<path d="M14 16.0522C14.4142 16.0522 14.75 16.388 14.75 16.8022C14.75 17.2164 14.4142 17.5522 14 17.5522H10C9.58579 17.5522 9.25 17.2164 9.25 16.8022C9.25 16.388 9.58579 16.0522 10 16.0522H14Z" fill="#161616"/>
<path d="M12.0005 10.16C16.4142 10.1601 20.4265 11.0161 23.2339 12.4188L22.564 13.7606C20.0167 12.4878 16.2475 11.6601 12.0005 11.66C7.75329 11.66 3.98342 12.4878 1.43604 13.7606L0.766113 12.4188C3.57356 11.0161 7.58661 10.16 12.0005 10.16Z" fill="#161616"/>
<path d="M14.6465 2.59271C16.3272 1.66371 18.3895 2.71006 18.6836 4.59661L19.7412 11.3847C19.8048 11.7939 19.5244 12.1774 19.1152 12.2411C18.706 12.3048 18.3225 12.0244 18.2588 11.6152L17.2012 4.82806C17.0638 3.94635 16.1192 3.49227 15.3721 3.90521L14.7568 4.24505C13.0387 5.19482 10.9613 5.19482 9.24316 4.24505L8.62793 3.90521C7.88076 3.49227 6.9362 3.94635 6.79883 4.82806L5.74121 11.6152C5.67746 12.0244 5.29395 12.3048 4.88477 12.2411C4.47557 12.1774 4.19517 11.7939 4.25879 11.3847L5.31641 4.59661C5.61054 2.71006 7.67285 1.66371 9.35352 2.59271L9.96875 2.93255C11.2353 3.63265 12.7647 3.63265 14.0312 2.93255L14.6465 2.59271Z" fill="#161616"/>
</svg>
