<svg width="24" height="24" viewBox="0 0 24 24" fill="none" xmlns="http://www.w3.org/2000/svg">
<path d="M11.5477 4.80667H12.66V3.69435H11.5477V4.80667ZM14.1601 5.80669C14.1601 6.08283 13.9362 6.30669 13.6601 6.30669H10.5477L10.4471 6.29693C10.2192 6.2504 10.0477 6.0484 10.0477 5.80669V2.69434C10.0477 2.4182 10.2716 2.19434 10.5477 2.19434H13.6601C13.9362 2.19434 14.1601 2.4182 14.1601 2.69434V5.80669Z" fill="#161616"/>
<path d="M3.97721 7.80667H5.08953V6.69435H3.97721V7.80667ZM6.58954 8.80668C6.58954 9.08283 6.36568 9.30669 6.08954 9.30669H2.97719L2.87661 9.29692C2.64864 9.25039 2.47719 9.0484 2.47719 8.80668V5.69434C2.47719 5.41819 2.70105 5.19433 2.97719 5.19433H6.08954C6.36568 5.19433 6.58954 5.41819 6.58954 5.69434V8.80668Z" fill="#161616"/>
<path d="M5.08203 14.6582H6.19434V13.5459H5.08203V14.6582ZM7.69436 15.6582C7.69436 15.9344 7.4705 16.1583 7.19436 16.1583H4.08201L3.98143 16.1485C3.75346 16.102 3.58201 15.9 3.58201 15.6582V12.5459C3.58201 12.2698 3.80587 12.0459 4.08201 12.0459H7.19436C7.4705 12.0459 7.69436 12.2698 7.69436 12.5459V15.6582Z" fill="#161616"/>
<path d="M18.5502 19.8913L19.6087 18.8327L10.1462 9.37023L9.08767 10.4288L18.5502 19.8913ZM21.3764 18.4792L21.44 18.5579C21.55 18.7243 21.5506 18.9419 21.4407 19.1083L21.3765 19.1863L18.9038 21.659C18.7085 21.8543 18.3919 21.8543 18.1967 21.659L7.31994 10.7823C7.14902 10.6114 7.12742 10.3473 7.25571 10.1532L7.31992 10.0752L9.79263 7.60248L9.87066 7.53826C10.0647 7.41008 10.3288 7.43162 10.4997 7.6025L21.3764 18.4792Z" fill="#161616"/>
<path d="M12.8889 10.9835L13.9495 12.0442L12.1037 13.89L11.0431 12.8293L12.8889 10.9835Z" fill="#161616"/>
</svg>
