<svg width="24" height="24" viewBox="0 0 24 24" fill="none" xmlns="http://www.w3.org/2000/svg">
<path d="M20.0713 12C20.0713 7.71979 16.6015 4.25 12.3213 4.25C8.04108 4.25 4.57129 7.71979 4.57129 12C4.57129 16.2802 8.04108 19.75 12.3213 19.75C16.6015 19.75 20.0713 16.2802 20.0713 12ZM13.0713 7.75V11.25H16.5713V12.75H13.0713V16.25H11.5713V12.75H8.07129V11.25H11.5713V7.75H13.0713ZM21.5713 12C21.5713 17.1086 17.4299 21.25 12.3213 21.25C7.21266 21.25 3.07129 17.1086 3.07129 12C3.07129 6.89137 7.21266 2.75 12.3213 2.75C17.4299 2.75 21.5713 6.89137 21.5713 12Z" fill="#161616"/>
</svg>
