<svg width="24" height="24" viewBox="0 0 24 24" fill="none" xmlns="http://www.w3.org/2000/svg">
<path d="M20.0713 12C20.0713 7.71979 16.6015 4.25 12.3213 4.25C8.04108 4.25 4.57129 7.71979 4.57129 12C4.57129 16.2802 8.04108 19.75 12.3213 19.75C16.6015 19.75 20.0713 16.2802 20.0713 12ZM11.0596 6.65723C11.3668 6.67831 11.6305 6.88521 11.7236 7.17871L13.7734 13.6377L14.9258 11.2178L14.9785 11.125C15.1162 10.918 15.3502 10.791 15.6035 10.791H17.666V12.291H16.0762L14.3115 15.998C14.1792 16.276 13.8901 16.4448 13.583 16.4238C13.2758 16.4027 13.0121 16.1958 12.9189 15.9023L10.8682 9.44336L9.7168 11.8633C9.5924 12.1244 9.32829 12.291 9.03906 12.291H6.97656V10.791H8.56543L10.3311 7.08301L10.3877 6.98438C10.5358 6.76589 10.7907 6.63889 11.0596 6.65723ZM21.5713 12C21.5713 17.1086 17.4299 21.25 12.3213 21.25C7.21266 21.25 3.07129 17.1086 3.07129 12C3.07129 6.89137 7.21266 2.75 12.3213 2.75C17.4299 2.75 21.5713 6.89137 21.5713 12Z" fill="#161616"/>
</svg>
