<svg width="24" height="24" viewBox="0 0 24 24" fill="none" xmlns="http://www.w3.org/2000/svg">
<path d="M17.3682 5.98047C17.3682 5.50617 17.3675 5.19642 17.3496 4.97461C17.341 4.86833 17.3291 4.81069 17.3232 4.78516C17.3108 4.77154 17.3048 4.76583 17.3027 4.76465C17.3001 4.76312 17.2894 4.759 17.2637 4.75391C17.2365 4.76142 17.1715 4.78236 17.0527 4.83496C16.8298 4.93366 16.5306 5.09303 16.082 5.33301C14.5757 6.13882 12.4858 7.06055 10.6934 7.06055H7.58887C6.82065 7.06055 6.2883 7.06061 5.875 7.09375C5.47017 7.12622 5.2448 7.1862 5.07813 7.26953C4.71004 7.45359 4.41354 7.7462 4.22852 8.10254C4.1461 8.26129 4.08558 8.47706 4.05274 8.87109C4.01915 9.2746 4.01856 9.79523 4.01856 10.5498V11.6094C4.01856 12.0314 4.01928 12.3101 4.03418 12.5244C4.0486 12.7314 4.07376 12.8227 4.09668 12.877C4.20086 13.1238 4.40258 13.3242 4.66211 13.4297C4.72224 13.4541 4.8205 13.4798 5.03418 13.4941C5.25428 13.5089 5.5396 13.5088 5.96875 13.5088C6.38277 13.5089 6.71858 13.8448 6.71875 14.2588V18.0127C6.71875 18.2359 6.71966 18.2924 6.72364 18.332C6.7712 18.8048 7.15599 19.1959 7.66407 19.2451C7.70698 19.2493 7.76702 19.25 7.99317 19.25C8.21964 19.25 8.28031 19.2493 8.32325 19.2451C8.83124 19.1958 9.21613 18.8048 9.26368 18.332C9.26765 18.2924 9.26856 18.2359 9.26856 18.0127V14.2588C9.26873 13.8447 9.60445 13.5088 10.0186 13.5088H10.6934C12.4858 13.5088 14.5757 14.4305 16.082 15.2363C16.5306 15.4763 16.8298 15.6357 17.0527 15.7344C17.1712 15.7868 17.2363 15.8069 17.2637 15.8145C17.2892 15.8094 17.3001 15.8062 17.3027 15.8047C17.3048 15.8035 17.3105 15.7972 17.3232 15.7832C17.3292 15.7572 17.3411 15.6998 17.3496 15.5947C17.3675 15.3729 17.3682 15.0632 17.3682 14.5889V5.98047ZM20.5186 7.76856H22.0186V12.8008H20.5186V7.76856ZM18.8682 14.5889C18.8682 15.0365 18.8687 15.4189 18.8447 15.7158C18.8223 15.9928 18.7716 16.3495 18.5566 16.6445C18.2765 17.0289 17.8867 17.2541 17.417 17.3105C17.0539 17.354 16.7075 17.2225 16.4453 17.1064C16.159 16.9797 15.8015 16.7877 15.375 16.5596C13.9075 15.7745 12.145 15.037 10.7686 15.0107V18.0127C10.7686 18.1995 10.7692 18.3483 10.7559 18.4814C10.635 19.6858 9.66774 20.6222 8.4668 20.7383C8.33382 20.7511 8.18442 20.75 7.99317 20.75C7.80192 20.75 7.65251 20.7511 7.51954 20.7383C6.31879 20.622 5.35231 19.6857 5.23145 18.4814C5.2181 18.3483 5.21875 18.1995 5.21875 18.0127V15C5.1175 14.9973 5.02244 14.9962 4.9336 14.9902C4.64534 14.9709 4.36823 14.9293 4.09766 14.8193C3.47514 14.5663 2.97604 14.0788 2.71485 13.46C2.60083 13.1898 2.55695 12.9133 2.53711 12.6279C2.51776 12.3496 2.51856 12.0104 2.51856 11.6094V10.5498C2.51856 9.82044 2.51765 9.22724 2.55762 8.74707C2.59836 8.25772 2.68564 7.81912 2.89747 7.41113C3.23017 6.77046 3.75933 6.2517 4.40723 5.92774C4.81799 5.72236 5.25955 5.63837 5.75489 5.59863C6.24205 5.55957 6.84495 5.56055 7.58887 5.56055H10.6934C12.0804 5.56055 13.8807 4.80918 15.375 4.00977C15.8015 3.7816 16.159 3.58967 16.4453 3.46289C16.7075 3.34682 17.0539 3.2153 17.417 3.25879C17.8866 3.31523 18.2765 3.53968 18.5566 3.92383C18.7718 4.21897 18.8223 4.57646 18.8447 4.85352C18.8687 5.15041 18.8682 5.53289 18.8682 5.98047V14.5889Z" fill="#161616"/>
</svg>
