<svg width="24" height="24" viewBox="0 0 24 24" fill="none" xmlns="http://www.w3.org/2000/svg">
<path d="M7.94531 8.56798C8.25784 8.55661 8.54476 8.74024 8.66504 9.02892L10.9023 14.3981C11.0617 14.7804 10.8804 15.2202 10.498 15.3795C10.1158 15.5385 9.67682 15.3574 9.51758 14.9752L9.15039 14.0944H7.1709L6.89453 14.9244C6.76347 15.3173 6.3382 15.529 5.94531 15.3981C5.55257 15.267 5.33988 14.8426 5.4707 14.4498L7.26074 9.0797L7.30566 8.97326C7.42834 8.73508 7.67171 8.57798 7.94531 8.56798ZM7.6709 12.5944H8.52539L8.05078 11.4547L7.6709 12.5944Z" fill="#161616"/>
<path d="M14.8303 10.6598C14.8303 10.3326 14.5647 10.067 14.2375 10.067H13.1975V11.2516H14.2375C14.5646 11.2515 14.8301 10.9868 14.8303 10.6598ZM16.3303 10.6598C16.3301 11.8153 15.393 12.7515 14.2375 12.7516H13.1975V14.6871C13.1974 15.1012 12.8616 15.4371 12.4475 15.4371C12.0334 15.4371 11.6976 15.1012 11.6975 14.6871V9.94396C11.6975 9.83575 11.6882 9.60301 11.7561 9.39416L11.8078 9.26134C11.9469 8.96091 12.2058 8.72928 12.5246 8.6256L12.6838 8.58751C12.8422 8.56153 12.9933 8.56701 13.0744 8.56701H14.2375C15.3931 8.56705 16.3303 9.50416 16.3303 10.6598Z" fill="#161616"/>
<path d="M17.0674 14.6871V9.31701C17.0674 8.90279 17.4032 8.56701 17.8174 8.56701C18.2316 8.56701 18.5674 8.90279 18.5674 9.31701V14.6871C18.5673 15.1012 18.2315 15.4371 17.8174 15.4371C17.4032 15.4371 17.0675 15.1012 17.0674 14.6871Z" fill="#161616"/>
<path d="M19 19.5V21H5V19.5H19ZM19.5 19V5C19.5 4.72386 19.2761 4.5 19 4.5H5C4.72386 4.5 4.5 4.72386 4.5 5V19C4.5 19.2761 4.72386 19.5 5 19.5V21L4.7959 20.9893C3.85435 20.8938 3.1062 20.1457 3.01074 19.2041L3 19V5C3 3.89543 3.89543 3 5 3H19C20.1046 3 21 3.89543 21 5V19C21 20.0357 20.2128 20.887 19.2041 20.9893L19 21V19.5C19.2761 19.5 19.5 19.2761 19.5 19Z" fill="#161616"/>
</svg>
