<svg width="24" height="24" viewBox="0 0 24 24" fill="none" xmlns="http://www.w3.org/2000/svg">
<path d="M3 3H21V4.5H3V3Z" fill="#161616"/>
<path d="M14.5 19.5V21H9.5V19.5H14.5ZM15 19V8C15 7.72386 14.7761 7.5 14.5 7.5H9.5C9.22386 7.5 9 7.72386 9 8V19C9 19.2761 9.22386 19.5 9.5 19.5V21L9.2959 20.9893C8.35435 20.8938 7.6062 20.1457 7.51074 19.2041L7.5 19V8C7.5 6.89543 8.39543 6 9.5 6H14.5C15.6046 6 16.5 6.89543 16.5 8V19C16.5 20.0357 15.7128 20.887 14.7041 20.9893L14.5 21V19.5C14.7761 19.5 15 19.2761 15 19Z" fill="#161616"/>
</svg>
