<svg width="100%" height="100%" overflow="visible" style="display: block;" viewBox="0 0 304.846 397.154" fill="none" xmlns="http://www.w3.org/2000/svg">
<path id="Icon (Stroke)" d="M271.498 172.635C271.496 162.485 263.364 154.56 254.047 154.56H50.7989C41.4824 154.56 33.3499 162.485 33.3482 172.635V345.566C33.3499 355.716 41.4824 363.641 50.7989 363.641H254.047C263.364 363.641 271.496 355.716 271.498 345.566V172.635ZM135.999 216.115H168.847V294.52H135.999V216.115ZM304.346 345.566C304.345 373.456 281.991 396.654 254.047 396.654H50.7989C22.8551 396.654 0.501646 373.456 0.5 345.566V172.635C0.501231 151.791 12.9796 133.551 30.9531 125.674C30.4682 124.116 30.1404 122.47 30.1404 120.752C30.1453 54.4091 82.5815 0.500024 148.189 0.5C186.457 0.5 220.327 18.9031 241.836 47.3971L245.964 53.2216L255.095 66.9555L227.786 85.2888L218.676 71.5764L215.66 67.3424C200.066 46.6798 175.673 33.5128 148.189 33.5128C101.209 33.5128 62.9935 72.1496 62.9886 120.752C62.9886 121.016 62.958 121.286 62.9459 121.547L254.047 182.194C281.991 182.194 304.345 144.745 304.346 172.635V345.566Z" fill="var(--fill-0, #B5B1E2)" stroke="var(--stroke-0, #6058B4)" stroke-linecap="round"/>
</svg>
