<svg width="24" height="24" viewBox="0 0 24 24" fill="none" xmlns="http://www.w3.org/2000/svg">
<path d="M8.13574 2.82318C8.39699 2.69884 8.70709 2.73546 8.93164 2.91791L14.5977 7.5224C14.781 7.67134 14.8833 7.89773 14.874 8.13373C14.8647 8.36967 14.7452 8.58756 14.5508 8.72162L9.7959 11.9999L14.5508 15.2783C14.7452 15.4123 14.8647 15.6302 14.874 15.8662C14.8833 16.1022 14.781 16.3285 14.5977 16.4775L8.93164 21.082C8.70709 21.2644 8.39699 21.301 8.13574 21.1767C7.87472 21.0523 7.70801 20.7891 7.70801 20.4999V13.4404L3.92578 16.0488L3.07422 14.8144L7.1543 11.9999L3.07422 9.18549L3.92578 7.95111L7.70801 10.5585V3.49994C7.70801 3.21075 7.87472 2.9476 8.13574 2.82318ZM9.20801 18.9238L12.874 15.9443L9.20801 13.416V18.9238ZM9.20801 10.5829L12.874 8.05463L9.20801 5.07514V10.5829Z" fill="#161616"/>
<path d="M15.0098 11.2499C15.424 11.2499 15.7598 11.5857 15.7598 11.9999C15.7598 12.4142 15.424 12.7499 15.0098 12.7499H15C14.5858 12.7499 14.25 12.4142 14.25 11.9999C14.25 11.5857 14.5858 11.2499 15 11.2499H15.0098ZM18.0098 11.2499C18.424 11.2499 18.7598 11.5857 18.7598 11.9999C18.7598 12.4142 18.424 12.7499 18.0098 12.7499H18C17.5858 12.7499 17.25 12.4142 17.25 11.9999C17.25 11.5857 17.5858 11.2499 18 11.2499H18.0098ZM21.0098 11.2499C21.424 11.2499 21.7598 11.5857 21.7598 11.9999C21.7598 12.4142 21.424 12.7499 21.0098 12.7499H21C20.5858 12.7499 20.25 12.4142 20.25 11.9999C20.25 11.5857 20.5858 11.2499 21 11.2499H21.0098Z" fill="#161616"/>
</svg>
