<svg width="24" height="24" viewBox="0 0 24 24" fill="none" xmlns="http://www.w3.org/2000/svg">
<path d="M2.75 15.5H4.25V17.625H7.4375V19.125H3.5C3.08589 19.1249 2.75 18.7891 2.75 18.375V15.5ZM19.75 15.5H21.25V18.375C21.25 18.7892 20.9142 19.125 20.5 19.125H16.5625V17.625H19.75V15.5ZM6.25 8.25781H7.75V15.6924H6.25V8.25781ZM9.58398 8.25781H11.084V15.6924H9.58398V8.25781ZM12.917 8.25781H14.417V15.6924H12.917V8.25781ZM16.25 8.25781H17.75V15.6924H16.25V8.25781ZM2.75 5.625L2.75391 5.54785C2.79253 5.16988 3.11183 4.875 3.5 4.875H7.4375V6.375H4.25V8.5H2.75V5.625ZM19.75 6.375H16.5625V4.875H20.5C20.9142 4.875 21.25 5.21081 21.25 5.625V8.5H19.75V6.375Z" fill="#161616"/>
</svg>
