<svg width="24" height="24" viewBox="0 0 24 24" fill="none" xmlns="http://www.w3.org/2000/svg">
<path d="M19.5 19.5V21H4.5V19.5H19.5ZM19.5 4.5H4.5V21L4.34668 20.9922C3.64069 20.9205 3.07949 20.3593 3.00781 19.6533L3 19.5V4.5C3 3.67157 3.67157 3 4.5 3H19.5C20.3284 3 21 3.67157 21 4.5V19.5C21 20.2767 20.4097 20.9154 19.6533 20.9922L19.5 21V4.5Z" fill="#161616"/>
<path d="M6.66667 14.1775H8.16667V17.9695H6.66667V14.1775ZM11.2497 11.8855H12.7497V17.9695H11.2497V11.8855ZM15.8337 7.3025H17.3337V17.9695H15.8337V7.3025Z" fill="#161616"/>
</svg>
