<svg width="24" height="24" viewBox="0 0 24 24" fill="none" xmlns="http://www.w3.org/2000/svg">
<path d="M3 17.3164V3H4.5V17.3164C4.5 17.8422 4.50056 18.1919 4.52246 18.46C4.54364 18.7189 4.58115 18.8355 4.61817 18.9082L4.70703 19.0537C4.80703 19.1913 4.93885 19.3039 5.0918 19.3818L5.15625 19.4092C5.23189 19.4363 5.3459 19.4617 5.54004 19.4775C5.80813 19.4994 6.15784 19.5 6.6836 19.5H21V21H6.6836C6.18259 21 5.76131 21.0007 5.41797 20.9727C5.10993 20.9475 4.81436 20.8958 4.53125 20.7744L4.41016 20.7188C3.9849 20.502 3.62904 20.1722 3.38086 19.7676L3.28125 19.5898C3.11851 19.2705 3.05612 18.9341 3.02735 18.582C2.99929 18.2387 3 17.8174 3 17.3164ZM8.16699 14.292V17.042H6.66699V14.292H8.16699ZM12.292 11.542V17.042H10.792V11.542H12.292ZM16.417 8.79199V17.042H14.917V8.79199H16.417ZM20.542 6.04199V17.042H19.042V6.04199H20.542Z" fill="#161616"/>
</svg>
