<svg width="24" height="24" viewBox="0 0 24 24" fill="none" xmlns="http://www.w3.org/2000/svg">
<path d="M20.8501 4.8681C20.8498 4.67659 20.694 4.52142 20.5024 4.52142H15.7378C14.7728 4.52142 13.8469 4.90449 13.1646 5.58685L12.4761 6.27533V18.4169L12.6528 18.2411C13.6165 17.2775 14.9238 16.7353 16.2866 16.7353H20.5024C20.6941 16.7353 20.8501 16.5803 20.8501 16.3886V4.8681ZM3.1499 16.3886C3.14993 16.581 3.30497 16.735 3.49561 16.7353H7.16553C8.52842 16.7353 9.83475 17.2776 10.7983 18.2411L10.9761 18.4179V6.27631L10.2866 5.58685C9.60426 4.9045 8.67838 4.52142 7.71338 4.52142H3.49658C3.30523 4.52167 3.15015 4.67675 3.1499 4.8681V16.3886ZM22.3501 16.3886C22.3501 17.4087 21.5226 18.2353 20.5024 18.2353H16.2866C15.3216 18.2353 14.3957 18.6193 13.7134 19.3017L12.2563 20.7587C12.1158 20.8993 11.9248 20.9783 11.7261 20.9785C11.5272 20.9785 11.3355 20.8994 11.1948 20.7587L9.73779 19.3017C9.05538 18.6193 8.13042 18.2353 7.16553 18.2353H3.49561C2.47484 18.235 1.64993 17.4077 1.6499 16.3886V4.8681C1.65015 3.84832 2.4768 3.02167 3.49658 3.02142H7.71338C9.0762 3.02142 10.3835 3.56265 11.3472 4.52631L11.7251 4.90424L12.104 4.52631C13.0677 3.56264 14.375 3.02142 15.7378 3.02142H20.5024C21.5224 3.02142 22.3498 3.84817 22.3501 4.8681V16.3886Z" fill="#161616"/>
</svg>
