<svg width="100%" height="100%" overflow="visible" style="display: block;" viewBox="0 0 26 23.6003" fill="none" xmlns="http://www.w3.org/2000/svg">
<path id="Icon (Stroke)" d="M22.7995 14.4401C22.7995 13.7517 22.7994 13.2953 22.7708 12.9453C22.7432 12.607 22.6941 12.4568 22.6471 12.3646C22.5129 12.1012 22.2986 11.8868 22.0352 11.7526C21.9429 11.7057 21.7924 11.6565 21.4544 11.6289C21.1045 11.6003 20.6479 11.6003 19.9596 11.6003H15.2005V21.6003H22.7995V14.4401ZM10 14.3997V16.3997H6.39974V14.3997H10ZM10 9.60026V11.6003H6.39974V9.60026H10ZM10 4.79948V6.79948H6.39974V4.79948H10ZM13.2005 4.83984C13.2005 4.15137 13.1992 3.69506 13.1706 3.34505C13.1429 3.00674 13.0939 2.85654 13.0469 2.76432C12.9127 2.50116 12.6994 2.28653 12.4362 2.15234C12.344 2.10538 12.1934 2.0576 11.8555 2.02995C11.5054 2.00135 11.0479 2 10.3594 2H6.04036C5.35207 2 4.89556 2.00138 4.54557 2.02995C4.20775 2.05755 4.05711 2.10542 3.96484 2.15234C3.70148 2.28654 3.48709 2.50098 3.35286 2.76432C3.30588 2.85654 3.25681 3.00672 3.22917 3.34505C3.20057 3.69506 3.20052 4.15137 3.20052 4.83984V21.6003H13.2005V4.83984ZM15.2005 9.60026H19.9596C20.6149 9.60026 21.1669 9.59867 21.6172 9.63542C22.0792 9.67317 22.5228 9.75546 22.944 9.97005C23.5837 10.296 24.1037 10.8173 24.4297 11.457C24.6441 11.878 24.7266 12.3207 24.7643 12.7826C24.8011 13.2329 24.7995 13.7847 24.7995 14.4401V21.6003H26V23.6003H0V21.6003H1.20052V4.83984C1.20052 4.18438 1.19889 3.63262 1.23568 3.18229C1.27342 2.72038 1.35586 2.27782 1.57031 1.85677C1.89619 1.21721 2.4165 0.697081 3.05599 0.371094C3.47715 0.156501 3.92077 0.0742091 4.38281 0.0364584C4.83309 -0.000295306 5.38506 1.10492e-07 6.04036 1.10492e-07H10.3594C11.0149 1.10492e-07 11.5679 -0.000338403 12.0182 0.0364584C12.4801 0.0742281 12.9227 0.156581 13.3438 0.371094C13.9833 0.697075 14.5035 1.21714 14.8294 1.85677C15.0439 2.27785 15.1263 2.72034 15.1641 3.18229C15.2009 3.63262 15.2005 4.18437 15.2005 4.83984V9.60026Z" fill="var(--fill-0, #161616)"/>
</svg>
