<svg width="24" height="24" viewBox="0 0 24 24" fill="none" xmlns="http://www.w3.org/2000/svg">
<path d="M0 2C0 0.89543 0.895431 0 2 0H22C23.1046 0 24 0.895431 24 2V22C24 23.1046 23.1046 24 22 24H2C0.89543 24 0 23.1046 0 22V2Z" fill="#F5F4FD"/>
<path d="M18.1247 13.6501C18.1247 13.2198 18.1246 12.9346 18.1068 12.7158C18.0895 12.5044 18.0588 12.4105 18.0295 12.3529C17.9456 12.1882 17.8116 12.0543 17.647 11.9704C17.5893 11.941 17.4952 11.9103 17.284 11.8931C17.0653 11.8752 16.7799 11.8752 16.3498 11.8752H13.3753V18.1252H18.1247V13.6501ZM10.125 13.6248V14.8748H7.87484V13.6248H10.125ZM10.125 10.6252V11.8752H7.87484V10.6252H10.125ZM10.125 7.62467V8.87467H7.87484V7.62467H10.125ZM12.1253 7.6499C12.1253 7.2196 12.1245 6.93441 12.1066 6.71566C12.0893 6.50421 12.0587 6.41034 12.0293 6.3527C11.9454 6.18822 11.8121 6.05408 11.6476 5.97021C11.59 5.94086 11.4959 5.911 11.2847 5.89372C11.0659 5.87584 10.78 5.875 10.3496 5.875H7.65023C7.22004 5.875 6.93472 5.87586 6.71598 5.89372C6.50484 5.91097 6.41069 5.94089 6.35303 5.97021C6.18842 6.05408 6.05443 6.18811 5.97054 6.3527C5.94117 6.41034 5.91051 6.5042 5.89323 6.71566C5.87536 6.93441 5.87533 7.2196 5.87533 7.6499V18.1252H12.1253V7.6499ZM13.3753 10.6252H16.3498C16.7593 10.6252 17.1043 10.6242 17.3857 10.6471C17.6745 10.6707 17.9518 10.7222 18.215 10.8563C18.6148 11.06 18.9398 11.3858 19.1436 11.7856C19.2775 12.0488 19.3291 12.3254 19.3527 12.6141C19.3757 12.8955 19.3747 13.2404 19.3747 13.6501V18.1252H20.125V19.3752H3.875V18.1252H4.62533V7.6499C4.62533 7.24024 4.62431 6.89539 4.6473 6.61393C4.67089 6.32524 4.72241 6.04864 4.85645 5.78548C5.06012 5.38575 5.38531 5.06068 5.78499 4.85693C6.04822 4.72281 6.32548 4.67138 6.61426 4.64779C6.89568 4.62482 7.24066 4.625 7.65023 4.625H10.3496C10.7593 4.625 11.1049 4.62479 11.3864 4.64779C11.6751 4.67139 11.9517 4.72286 12.2148 4.85693C12.6146 5.06067 12.9397 5.38571 13.1434 5.78548C13.2774 6.04866 13.3289 6.32522 13.3525 6.61393C13.3755 6.89539 13.3753 7.24023 13.3753 7.6499V10.6252Z" fill="#3A3480"/>
</svg>
