<svg width="24" height="24" viewBox="0 0 24 24" fill="none" xmlns="http://www.w3.org/2000/svg">
<path d="M8.13574 2.82318C8.39699 2.69884 8.70709 2.73546 8.93164 2.91791L14.5977 7.5224C14.781 7.67134 14.8833 7.89773 14.874 8.13373C14.8647 8.36967 14.7452 8.58756 14.5508 8.72162L9.7959 11.9999L14.5508 15.2783C14.7452 15.4123 14.8647 15.6302 14.874 15.8662C14.8833 16.1022 14.781 16.3285 14.5977 16.4775L8.93164 21.082C8.70709 21.2644 8.39699 21.301 8.13574 21.1767C7.87472 21.0523 7.70801 20.7891 7.70801 20.4999V13.4404L3.92578 16.0488L3.07422 14.8144L7.1543 11.9999L3.07422 9.18549L3.92578 7.95111L7.70801 10.5585V3.49994L7.71582 3.39252C7.75132 3.14682 7.90746 2.932 8.13574 2.82318ZM9.20801 18.9238L12.874 15.9443L9.20801 13.416V18.9238ZM19.75 11.9999C19.75 10.4553 18.9275 9.11197 17.7129 8.39545L18.0947 7.74994L18.4756 7.10443C20.137 8.08463 21.25 9.91263 21.25 11.9999C21.25 14.0873 20.137 15.9152 18.4756 16.8954L18.0947 16.2499L17.7129 15.6044C18.9275 14.8879 19.75 13.5446 19.75 11.9999ZM16.7031 11.9999C16.7031 11.5397 16.4194 11.088 15.9092 10.8271L16.5908 9.49115C17.5185 9.96515 18.2031 10.8871 18.2031 11.9999C18.2031 13.1127 17.5185 14.0347 16.5908 14.5087L15.9092 13.1728C16.4194 12.9119 16.7031 12.4601 16.7031 11.9999ZM9.20801 10.5829L12.874 8.05463L9.20801 5.07514V10.5829Z" fill="#161616"/>
</svg>
