<svg width="24" height="24" viewBox="0 0 24 24" fill="none" xmlns="http://www.w3.org/2000/svg">
<path d="M10.9393 9L8.81802 6.87868L9.87868 5.81802L12 7.93934L14.1213 5.81802L15.182 6.87868L13.0607 9L15.182 11.1213L14.1213 12.182L12 10.0607L9.87868 12.182L8.81802 11.1213L10.9393 9Z" fill="#161616"/>
<path d="M17.75 5C17.75 4.30964 17.1904 3.75 16.5 3.75H7.5C6.80964 3.75 6.25 4.30964 6.25 5V19.3232L11.5 14.6338C11.7846 14.3796 12.2154 14.3796 12.5 14.6338L17.75 19.3232V5ZM19.25 19.8828C19.25 20.9628 17.9724 21.5349 17.167 20.8154L12 16.1992L6.83301 20.8154C6.02756 21.5349 4.75 20.9628 4.75 19.8828V5C4.75 3.48122 5.98122 2.25 7.5 2.25H16.5C18.0188 2.25 19.25 3.48122 19.25 5V19.8828Z" fill="#161616"/>
</svg>
