<svg width="24" height="24" viewBox="0 0 24 24" fill="none" xmlns="http://www.w3.org/2000/svg">
<path d="M4.5 4.75C4.5 4.61193 4.61193 4.5 4.75 4.5H8.14453C8.2826 4.5 8.39453 4.61193 8.39453 4.75V19.5H4.5V4.75ZM19.5 19.5H15.4482V16.3623C15.454 16.2294 15.5629 16.123 15.6973 16.123H19.25C19.388 16.123 19.4998 16.2351 19.5 16.373V19.5ZM13.9482 16.3535C13.9482 16.3603 13.9473 16.3672 13.9473 16.374L13.9482 19.5H9.89453V11.1885L9.90039 11.1387C9.92357 11.0247 10.0238 10.9386 10.1445 10.9385H13.6982C13.8362 10.9385 13.9481 11.0505 13.9482 11.1885V16.3535ZM3 21H21V16.373C20.9998 15.4067 20.2164 14.623 19.25 14.623H15.6973C15.6128 14.623 15.5296 14.631 15.4482 14.6426V11.1885C15.4481 10.2221 14.6647 9.43848 13.6982 9.43848H10.1445C10.0596 9.43849 9.97625 9.44629 9.89453 9.45801V4.75C9.89453 3.7835 9.11103 3 8.14453 3H4.75C3.7835 3 3 3.7835 3 4.75V21Z" fill="#161616"/>
</svg>
