<svg width="24" height="24" viewBox="0 0 24 24" fill="none" xmlns="http://www.w3.org/2000/svg">
<path d="M19.5 4.75C19.5 4.61193 19.3881 4.5 19.25 4.5H15.8555C15.7174 4.5 15.6055 4.61193 15.6055 4.75V19.5H19.5V4.75ZM4.5 19.5H8.55176V16.3623C8.54596 16.2294 8.4371 16.123 8.30273 16.123H4.75C4.61203 16.123 4.50015 16.2351 4.5 16.373V19.5ZM10.0518 16.3516C10.0518 16.359 10.0527 16.3666 10.0527 16.374L10.0518 19.5H14.1055V11.1895L14.0996 11.1387C14.0762 11.0245 13.9756 10.9386 13.8555 10.9385H10.3018C10.1638 10.9385 10.0519 11.0505 10.0518 11.1885V16.3516ZM21 21H3V16.373C3.00015 15.4067 3.7836 14.623 4.75 14.623H8.30273C8.38725 14.623 8.47045 14.631 8.55176 14.6426V11.1885C8.55186 10.2221 9.33533 9.43848 10.3018 9.43848H13.8555C13.9404 9.43849 14.0238 9.44629 14.1055 9.45801V4.75C14.1055 3.7835 14.889 3 15.8555 3H19.25C20.2165 3 21 3.7835 21 4.75V21Z" fill="#161616"/>
</svg>
