<svg width="24" height="24" viewBox="0 0 24 24" fill="none" xmlns="http://www.w3.org/2000/svg">
<path d="M17.651 2.50781C18.4072 2.58481 18.9977 3.22348 18.9977 4V20C18.9977 20.7765 18.4072 21.4152 17.651 21.4922L17.4977 21.5H6.49768C5.66925 21.5 4.99768 20.8284 4.99768 20V4C4.99768 3.17157 5.66925 2.5 6.49768 2.5H17.4977L17.651 2.50781ZM6.49768 20H17.4977V4H6.49768V20ZM11.0543 17.2812H9.49377V15.1699H11.0543V17.2812ZM14.5006 17.2812H12.9391V15.1699H14.5006V17.2812ZM11.0543 13.0586H9.49377V10.9482H11.0543V13.0586ZM14.5006 13.0586H12.9391V10.9482H14.5006V13.0586ZM11.0543 8.83691H9.49377V6.72559H11.0543V8.83691ZM14.5006 8.83691H12.9391V6.72559H14.5006V8.83691Z" fill="#161616"/>
</svg>
