<svg width="24" height="24" viewBox="0 0 24 24" fill="none" xmlns="http://www.w3.org/2000/svg">
<path d="M17.5205 8.35254C17.5203 7.46744 16.8021 6.75 15.917 6.75H4.15234C3.26738 6.75022 2.55002 7.46758 2.5498 8.35254V15.4121C2.54999 16.2971 3.26736 17.0144 4.15234 17.0146H15.917C16.8022 17.0146 17.5203 16.2972 17.5205 15.4121V8.35254ZM21.0498 9.36719H22.5498V14.3975H21.0498V9.36719ZM19.0205 15.4121C19.0203 17.1257 17.6306 18.5146 15.917 18.5146H4.15234C2.43894 18.5144 1.04999 17.1255 1.0498 15.4121V8.35254C1.05002 6.63915 2.43896 5.25022 4.15234 5.25H15.917C17.6306 5.25 19.0203 6.63902 19.0205 8.35254V15.4121Z" fill="#161616"/>
<path d="M6.0791 9.36719H4.5791V14.3975H6.0791V9.36719Z" fill="#35A142"/>
<path d="M10.7852 9.36719H9.28516V14.3975H10.7852V9.36719Z" fill="#35A142"/>
<path d="M15.4912 9.36719H13.9912V14.3975H15.4912V9.36719Z" fill="#35A142"/>
</svg>
