<svg width="24" height="24" viewBox="0 0 24 24" fill="none" xmlns="http://www.w3.org/2000/svg">
<path d="M19.5 9.14062H4.5V18.1875C4.5 18.9124 5.08763 19.5 5.8125 19.5H18.1875C18.9124 19.5 19.5 18.9124 19.5 18.1875V9.14062ZM19.5 5.8125C19.5 5.08763 18.9124 4.5 18.1875 4.5H5.8125C5.08763 4.5 4.5 5.08763 4.5 5.8125V7.64062H19.5V5.8125ZM21 18.1875C21 19.7408 19.7408 21 18.1875 21H5.8125C4.2592 21 3 19.7408 3 18.1875V5.8125C3 4.2592 4.2592 3 5.8125 3H18.1875C19.7408 3 21 4.2592 21 5.8125V18.1875Z" fill="#161616"/>
</svg>
