<svg width="24" height="24" viewBox="0 0 24 24" fill="none" xmlns="http://www.w3.org/2000/svg">
<path d="M11.2891 2.82823C11.5445 2.70172 11.8494 2.73078 12.0762 2.90343L18.1211 7.50792C18.3152 7.6559 18.4253 7.88904 18.416 8.13292C18.4066 8.37702 18.2784 8.60185 18.0732 8.73448L13.0215 12.0001L18.0732 15.2657C18.2784 15.3984 18.4066 15.6232 18.416 15.8673C18.4253 16.1112 18.3152 16.3443 18.1211 16.4923L12.0762 21.0968C11.8494 21.2694 11.5445 21.2985 11.2891 21.172C11.0336 21.0454 10.8721 20.7852 10.8721 20.5001V13.3898L6.74023 16.0616L5.92578 14.8019L10.2588 12.0001L5.92578 9.19835L6.74023 7.93858L10.8721 10.6095V3.50011L10.8789 3.39464C10.9133 3.15203 11.0655 2.93898 11.2891 2.82823ZM12.3721 18.9855L16.3623 15.9454L12.3721 13.3653V18.9855ZM12.3721 10.6339L16.3623 8.05382L12.3721 5.01378V10.6339Z" fill="#161616"/>
</svg>
