<svg width="24" height="24" viewBox="0 0 24 24" fill="none" xmlns="http://www.w3.org/2000/svg">
<path d="M17.7207 8.47021C17.7205 7.58512 17.0023 6.86768 16.1172 6.86768H4.35254C3.46758 6.86789 2.75022 7.58525 2.75 8.47021V15.5298C2.75019 16.4148 3.46756 17.1321 4.35254 17.1323H16.1172C17.0024 17.1323 17.7205 16.4149 17.7207 15.5298V8.47021ZM11.8838 9.05908L9.69336 11.2505H13.1768C13.48 11.2506 13.7531 11.4332 13.8691 11.7134C13.9851 11.9936 13.9215 12.3163 13.707 12.5308L10.2354 16.0015L9.1748 14.9409L11.3652 12.7505H7.88281C7.57947 12.7505 7.30554 12.5669 7.18945 12.2866C7.07357 12.0064 7.13716 11.6836 7.35156 11.4692L10.8232 7.99854L11.8838 9.05908ZM21.25 9.48486H22.75V14.5151H21.25V9.48486ZM19.2207 15.5298C19.2205 17.2433 17.8308 18.6323 16.1172 18.6323H4.35254C2.63913 18.6321 1.25019 17.2432 1.25 15.5298V8.47021C1.25022 6.75683 2.63915 5.36789 4.35254 5.36768H16.1172C17.8308 5.36768 19.2205 6.75669 19.2207 8.47021V15.5298Z" fill="#35A142"/>
</svg>
