<svg width="48" height="48" viewBox="0 0 48 48" fill="none" xmlns="http://www.w3.org/2000/svg">
<path d="M0 6C0 2.68629 2.68629 0 6 0H42C45.3137 0 48 2.68629 48 6V42C48 45.3137 45.3137 48 42 48H6C2.68629 48 0 45.3137 0 42V6Z" fill="#F5F4FD"/>
<path d="M33.7995 26.6393C33.7995 25.9509 33.7994 25.4945 33.7708 25.1445C33.7432 24.8062 33.6941 24.656 33.6471 24.5638C33.5129 24.3004 33.2986 24.086 33.0352 23.9518C32.9429 23.9049 32.7924 23.8557 32.4544 23.8281C32.1045 23.7996 31.6479 23.7995 30.9596 23.7995H26.2005V33.7995H33.7995V26.6393ZM21 26.599V28.599H17.3997V26.599H21ZM21 21.7995V23.7995H17.3997V21.7995H21ZM21 16.9987V18.9987H17.3997V16.9987H21ZM24.2005 17.0391C24.2005 16.3506 24.1992 15.8943 24.1706 15.5443C24.1429 15.206 24.0939 15.0558 24.0469 14.9635C23.9127 14.7004 23.6994 14.4857 23.4362 14.3516C23.344 14.3046 23.1934 14.2568 22.8555 14.2292C22.5054 14.2006 22.0479 14.1992 21.3594 14.1992H17.0404C16.3521 14.1992 15.8956 14.2006 15.5456 14.2292C15.2077 14.2568 15.0571 14.3046 14.9648 14.3516C14.7015 14.4858 14.4871 14.7002 14.3529 14.9635C14.3059 15.0558 14.2568 15.2059 14.2292 15.5443C14.2006 15.8943 14.2005 16.3506 14.2005 17.0391V33.7995H24.2005V17.0391ZM26.2005 21.7995H30.9596C31.6149 21.7995 32.1669 21.7979 32.6172 21.8346C33.0792 21.8724 33.5228 21.9547 33.944 22.1693C34.5837 22.4952 35.1037 23.0165 35.4297 23.6562C35.6441 24.0772 35.7266 24.5199 35.7643 24.9818C35.8011 25.4321 35.7995 25.9839 35.7995 26.6393V33.7995H37V35.7995H11V33.7995H12.2005V17.0391C12.2005 16.3836 12.1989 15.8318 12.2357 15.3815C12.2734 14.9196 12.3559 14.477 12.5703 14.056C12.8962 13.4164 13.4165 12.8963 14.056 12.5703C14.4772 12.3557 14.9208 12.2734 15.3828 12.2357C15.8331 12.1989 16.3851 12.1992 17.0404 12.1992H21.3594C22.0149 12.1992 22.5679 12.1989 23.0182 12.2357C23.4801 12.2734 23.9227 12.3558 24.3438 12.5703C24.9833 12.8963 25.5035 13.4164 25.8294 14.056C26.0439 14.4771 26.1263 14.9196 26.1641 15.3815C26.2009 15.8318 26.2005 16.3836 26.2005 17.0391V21.7995Z" fill="#3A3480"/>
</svg>
