<svg width="24" height="24" viewBox="0 0 24 24" fill="none" xmlns="http://www.w3.org/2000/svg">
<path d="M15.4169 20.25V21.75H8.58295V20.25H15.4169ZM11.9999 3.75C8.7938 3.75 6.04307 6.71933 6.04291 10.5811V10.5898L6.0185 12.8428C6.01667 14.5184 5.42134 15.9089 4.79486 16.875H19.205C18.5785 15.9089 17.9832 14.5184 17.9814 12.8428L17.957 10.5898L18.707 10.5811L19.457 10.5732L19.4814 12.8271V12.835C19.4814 14.2051 19.9851 15.3537 20.5165 16.1445C20.8128 16.5855 20.789 17.116 20.6513 17.4932C20.5203 17.8518 20.1563 18.375 19.4921 18.375H4.50776C3.84363 18.375 3.47956 17.8518 3.34858 17.4932C3.21084 17.116 3.18707 16.5855 3.48334 16.1445L3.67963 15.8311C4.13218 15.0628 4.5185 14.0339 4.5185 12.835V12.8271L4.54291 10.5732C4.54683 6.06452 7.80033 2.25 11.9999 2.25V3.75Z" fill="#161616"/>
<path d="M15.2499 6.75H12.2499V5.25H15.2499V2.25H16.7499V5.25H19.7499V6.75H16.7499V9.75H15.2499V6.75Z" fill="#161616"/>
</svg>
