<svg width="32" height="32" viewBox="0 0 32 32" fill="none" xmlns="http://www.w3.org/2000/svg">
<path d="M0 4C0 1.79086 1.79086 0 4 0H28C30.2091 0 32 1.79086 32 4V28C32 30.2091 30.2091 32 28 32H4C1.79086 32 0 30.2091 0 28V4Z" fill="#F5F4FD"/>
<path d="M23.3496 17.9785C23.3496 17.4622 23.3496 17.1199 23.3281 16.8574C23.3074 16.6037 23.2706 16.491 23.2354 16.4219C23.1347 16.2243 22.9739 16.0636 22.7764 15.9629C22.7072 15.9277 22.5943 15.8908 22.3408 15.8701C22.0783 15.8487 21.7359 15.8486 21.2197 15.8486H17.6504V23.3486H23.3496V17.9785ZM13.75 17.9482V19.4482H11.0498V17.9482H13.75ZM13.75 14.3486V15.8486H11.0498V14.3486H13.75ZM13.75 10.748V12.248H11.0498V10.748H13.75ZM16.1504 10.7783C16.1504 10.262 16.1494 9.91974 16.1279 9.65723C16.1072 9.40349 16.0704 9.29084 16.0352 9.22168C15.9345 9.0243 15.7745 8.86333 15.5771 8.7627C15.508 8.72747 15.395 8.69164 15.1416 8.6709C14.8791 8.64945 14.536 8.64844 14.0195 8.64844H10.7803C10.2641 8.64844 9.92167 8.64947 9.65918 8.6709C9.40581 8.6916 9.29283 8.7275 9.22363 8.7627C9.02611 8.86334 8.86532 9.02417 8.76465 9.22168C8.72941 9.29085 8.69261 9.40348 8.67188 9.65723C8.65043 9.91974 8.65039 10.262 8.65039 10.7783V23.3486H16.1504V10.7783ZM17.6504 14.3486H21.2197C21.7112 14.3486 22.1252 14.3474 22.4629 14.375C22.8094 14.4033 23.1421 14.465 23.458 14.626C23.9378 14.8705 24.3278 15.2614 24.5723 15.7412C24.733 16.057 24.7949 16.389 24.8232 16.7354C24.8508 17.0731 24.8496 17.487 24.8496 17.9785V23.3486H25.75V24.8486H6.25V23.3486H7.15039V10.7783C7.15039 10.2867 7.14917 9.8729 7.17676 9.53516C7.20506 9.18872 7.2669 8.8568 7.42773 8.54102C7.67214 8.06134 8.06237 7.67125 8.54199 7.42676C8.85786 7.26581 9.19057 7.20409 9.53711 7.17578C9.87482 7.14822 10.2888 7.14844 10.7803 7.14844H14.0195C14.5112 7.14844 14.9259 7.14818 15.2637 7.17578C15.6101 7.20411 15.9421 7.26587 16.2578 7.42676C16.7375 7.67124 17.1276 8.06129 17.3721 8.54102C17.5329 8.85683 17.5947 9.1887 17.623 9.53516C17.6506 9.8729 17.6504 10.2867 17.6504 10.7783V14.3486Z" fill="#3A3480"/>
</svg>
