<svg width="24" height="24" viewBox="0 0 24 24" fill="none" xmlns="http://www.w3.org/2000/svg">
<path d="M4.5 15.8037C4.5 15.6656 4.61193 15.5537 4.75 15.5537H8.14453C8.2826 15.5537 8.39453 15.6656 8.39453 15.8037V19.5H4.5V15.8037ZM9.89453 4.75C9.89453 4.61203 10.0066 4.50017 10.1445 4.5H13.6982C13.8363 4.5 13.9482 4.61193 13.9482 4.75V10.9375C13.948 10.9495 13.9463 10.9616 13.9463 10.9736L13.9482 19.5H9.89453V4.75ZM19.5 19.5H15.4482V10.957C15.4569 10.827 15.5641 10.7239 15.6963 10.7236H19.25C19.388 10.7236 19.4999 10.8356 19.5 10.9736V19.5ZM8.39453 14.0723C8.31292 14.0606 8.22937 14.0537 8.14453 14.0537H4.75C3.7835 14.0537 3 14.8372 3 15.8037V21H21V10.9736C20.9999 10.0072 20.2164 9.22363 19.25 9.22363H15.6963C15.612 9.22366 15.5294 9.23162 15.4482 9.24316V4.75C15.4482 3.7835 14.6647 3 13.6982 3H10.1445C9.17818 3.00017 8.39453 3.7836 8.39453 4.75V14.0723Z" fill="#161616"/>
</svg>
