<svg width="20" height="20" viewBox="0 0 20 20" fill="none" xmlns="http://www.w3.org/2000/svg">
<path d="M0 2C0 0.895431 0.895431 0 2 0H18C19.1046 0 20 0.895431 20 2V18C20 19.1046 19.1046 20 18 20H2C0.895431 20 0 19.1046 0 18V2Z" fill="#F5F4FD"/>
<path d="M14.8997 11.3216C14.8997 10.9774 14.8997 10.7492 14.8854 10.5742C14.8716 10.4051 14.8471 10.33 14.8236 10.2839C14.7565 10.1521 14.6493 10.045 14.5176 9.97786C14.4715 9.9544 14.3962 9.92982 14.2272 9.91602C14.0522 9.90174 13.8239 9.90169 13.4798 9.90169H11.1003V14.9017H14.8997V11.3216ZM8.5 11.3014V12.3014H6.69987V11.3014H8.5ZM8.5 8.90169V9.90169H6.69987V8.90169H8.5ZM8.5 6.5013V7.5013H6.69987V6.5013H8.5ZM10.1003 6.52148C10.1003 6.17725 10.0996 5.94909 10.0853 5.77409C10.0715 5.60493 10.0469 5.52983 10.0234 5.48372C9.95635 5.35214 9.84968 5.24483 9.7181 5.17773C9.67201 5.15425 9.5967 5.13036 9.42773 5.11654C9.25272 5.10224 9.02397 5.10156 8.67969 5.10156H6.52018C6.17603 5.10156 5.94778 5.10225 5.77279 5.11654C5.60387 5.13034 5.52855 5.15427 5.48242 5.17773C5.35074 5.24483 5.24355 5.35205 5.17643 5.48372C5.15294 5.52983 5.12841 5.60492 5.11458 5.77409C5.10028 5.94909 5.10026 6.17725 5.10026 6.52148V14.9017H10.1003V6.52148ZM11.1003 8.90169H13.4798C13.8075 8.90169 14.0835 8.9009 14.3086 8.91927C14.5396 8.93815 14.7614 8.97929 14.972 9.08659C15.2919 9.24958 15.5519 9.51023 15.7148 9.83008C15.822 10.0406 15.8633 10.2619 15.8822 10.4928C15.9005 10.718 15.8997 10.9939 15.8997 11.3216V14.9017H16.5V15.9017H3.5V14.9017H4.10026V6.52148C4.10026 6.19375 4.09944 5.91787 4.11784 5.69271C4.13671 5.46175 4.17793 5.24047 4.28516 5.02995C4.44809 4.71017 4.70825 4.4501 5.02799 4.28711C5.23858 4.17981 5.46038 4.13867 5.69141 4.11979C5.91654 4.10141 6.19253 4.10156 6.52018 4.10156H8.67969C9.00747 4.10156 9.28393 4.10139 9.50911 4.11979C9.74004 4.13868 9.96137 4.17985 10.1719 4.28711C10.4917 4.4501 10.7518 4.71013 10.9147 5.02995C11.022 5.24049 11.0632 5.46173 11.082 5.69271C11.1004 5.91787 11.1003 6.19375 11.1003 6.52148V8.90169Z" fill="#3A3480"/>
</svg>
