<svg width="24" height="24" viewBox="0 0 24 24" fill="none" xmlns="http://www.w3.org/2000/svg">
<path d="M20.25 10.3804C20.25 9.86401 20.249 9.5209 20.2275 9.25837C20.2068 9.00493 20.171 8.89195 20.1357 8.82282C20.0351 8.62545 19.8741 8.46544 19.6768 8.36481C19.6076 8.32957 19.4949 8.29277 19.2412 8.27204C18.9787 8.25059 18.6365 8.24958 18.1201 8.24958H5.87988C5.36353 8.24958 5.0213 8.25059 4.75879 8.27204C4.50505 8.29277 4.39241 8.32957 4.32324 8.36481C4.12587 8.46544 3.9649 8.62545 3.86426 8.82282C3.82904 8.89195 3.7932 9.00493 3.77246 9.25837C3.75101 9.5209 3.75 9.86401 3.75 10.3804V17.2203C3.75 17.7365 3.75102 18.0789 3.77246 18.3414C3.7932 18.595 3.82903 18.7078 3.86426 18.7769C3.96493 18.9744 4.12572 19.1353 4.32324 19.2359C4.39241 19.2711 4.50519 19.307 4.75879 19.3277C5.0213 19.3492 5.36353 19.3502 5.87988 19.3502H18.1201C18.6365 19.3502 18.9787 19.3492 19.2412 19.3277C19.4948 19.307 19.6076 19.2711 19.6768 19.2359C19.8743 19.1353 20.0351 18.9744 20.1357 18.7769C20.171 18.7078 20.2068 18.595 20.2275 18.3414C20.249 18.0789 20.25 17.7365 20.25 17.2203V10.3804ZM12 4.64997C11.1152 4.64997 10.8196 4.65647 10.5957 4.71637C9.9228 4.89668 9.39713 5.42239 9.2168 6.09528C9.17837 6.23867 9.16312 6.41144 9.15625 6.74958H14.8438C14.8369 6.41144 14.8216 6.23867 14.7832 6.09528C14.6029 5.42239 14.0772 4.89668 13.4043 4.71637C13.1804 4.65647 12.8848 4.64997 12 4.64997ZM21.75 17.2203C21.75 17.7118 21.7502 18.1257 21.7227 18.4634C21.6943 18.8099 21.6326 19.1418 21.4717 19.4576C21.2272 19.9373 20.8372 20.3274 20.3574 20.5718C20.0416 20.7327 19.7098 20.7945 19.3633 20.8228C19.0255 20.8504 18.6117 20.8502 18.1201 20.8502H5.87988C5.38827 20.8502 4.97447 20.8504 4.63672 20.8228C4.29023 20.7945 3.95841 20.7327 3.64258 20.5718C3.1628 20.3274 2.7728 19.9374 2.52832 19.4576C2.36741 19.1418 2.30566 18.8099 2.27734 18.4634C2.24975 18.1257 2.25 17.7118 2.25 17.2203V10.3804C2.25 9.88877 2.24975 9.47408 2.27734 9.1363C2.30567 8.7899 2.36744 8.45791 2.52832 8.14216C2.77281 7.66246 3.16285 7.27233 3.64258 7.0279C3.95839 6.86703 4.29026 6.80523 4.63672 6.77692C4.97446 6.74933 5.38828 6.74958 5.87988 6.74958H7.65625C7.66435 6.33874 7.68737 6.00596 7.76758 5.70661C8.08669 4.51624 9.0166 3.58613 10.207 3.26716C10.6698 3.14317 11.2113 3.14997 12 3.14997C12.7887 3.14997 13.3302 3.14317 13.793 3.26716C14.9834 3.58613 15.9133 4.51624 16.2324 5.70661C16.3126 6.00596 16.3357 6.33874 16.3438 6.74958H18.1201C18.6117 6.74958 19.0255 6.74933 19.3633 6.77692C19.7097 6.80523 20.0416 6.86703 20.3574 7.0279C20.8371 7.27233 21.2272 7.66247 21.4717 8.14216C21.6326 8.45791 21.6943 8.7899 21.7227 9.1363C21.7503 9.47408 21.75 9.88877 21.75 10.3804V17.2203Z" fill="#161616"/>
</svg>
