<svg width="16" height="16" viewBox="0 0 16 16" fill="none" xmlns="http://www.w3.org/2000/svg">
<path d="M0 2C0 0.895431 0.895431 0 2 0H14C15.1046 0 16 0.895431 16 2V14C16 15.1046 15.1046 16 14 16H2C0.895431 16 0 15.1046 0 14V2Z" fill="#F5F4FD"/>
<path d="M11.6748 8.98926C11.6748 8.7311 11.6748 8.55996 11.6641 8.42871C11.6537 8.30184 11.6353 8.24552 11.6177 8.21094C11.5673 8.11215 11.487 8.03178 11.3882 7.98145C11.3536 7.96384 11.2971 7.94541 11.1704 7.93506C11.0392 7.92435 10.868 7.92432 10.6099 7.92432H8.8252V11.6743H11.6748V8.98926ZM6.875 8.97412V9.72412H5.5249V8.97412H6.875ZM6.875 7.17432V7.92432H5.5249V7.17432H6.875ZM6.875 5.37402V6.12402H5.5249V5.37402H6.875ZM8.0752 5.38916C8.0752 5.13098 8.07469 4.95987 8.06396 4.82861C8.0536 4.70174 8.0352 4.64542 8.01758 4.61084C7.96727 4.51215 7.88726 4.43167 7.78857 4.38135C7.75401 4.36374 7.69752 4.34582 7.5708 4.33545C7.43954 4.32472 7.26798 4.32422 7.00977 4.32422H5.39014C5.13203 4.32422 4.96083 4.32474 4.82959 4.33545C4.70291 4.3458 4.64642 4.36375 4.61182 4.38135C4.51305 4.43167 4.43266 4.51209 4.38232 4.61084C4.3647 4.64542 4.3463 4.70174 4.33594 4.82861C4.32521 4.95987 4.3252 5.13098 4.3252 5.38916V11.6743H8.0752V5.38916ZM8.8252 7.17432H10.6099C10.8556 7.17432 11.0626 7.17372 11.2314 7.1875C11.4047 7.20166 11.5711 7.23252 11.729 7.31299C11.9689 7.43523 12.1639 7.63072 12.2861 7.87061C12.3665 8.02848 12.3975 8.19449 12.4116 8.36768C12.4254 8.53654 12.4248 8.74348 12.4248 8.98926V11.6743H12.875V12.4243H3.125V11.6743H3.5752V5.38916C3.5752 5.14336 3.57458 4.93645 3.58838 4.76758C3.60253 4.59436 3.63345 4.4284 3.71387 4.27051C3.83607 4.03067 4.03119 3.83562 4.271 3.71338C4.42893 3.63291 4.59529 3.60205 4.76855 3.58789C4.93741 3.57411 5.1444 3.57422 5.39014 3.57422H7.00977C7.2556 3.57422 7.46295 3.57409 7.63184 3.58789C7.80503 3.60205 7.97103 3.63294 8.12891 3.71338C8.36875 3.83562 8.56382 4.03065 8.68604 4.27051C8.76647 4.42841 8.79737 4.59435 8.81152 4.76758C8.82532 4.93645 8.8252 5.14336 8.8252 5.38916V7.17432Z" fill="#3A3480"/>
</svg>
