<svg width="18" height="18" viewBox="0 0 18 18" fill="none" xmlns="http://www.w3.org/2000/svg">
<path d="M0 2C0 0.89543 0.895431 0 2 0H16C17.1046 0 18 0.895431 18 2V16C18 17.1046 17.1046 18 16 18H2C0.89543 18 0 17.1046 0 16V2Z" fill="#F5F4FD"/>
<path d="M13.2873 10.1535C13.2873 9.8523 13.2872 9.65264 13.2747 9.49951C13.2626 9.35149 13.2412 9.28579 13.2206 9.24544C13.1619 9.13019 13.0681 9.03642 12.9529 8.9777C12.9125 8.95717 12.8467 8.93566 12.6988 8.92358C12.5457 8.91109 12.3459 8.91105 12.0448 8.91105H9.96273V13.2861H13.2873V10.1535ZM7.6875 10.1358V11.0108H6.11239V10.1358H7.6875ZM7.6875 8.03605V8.91105H6.11239V8.03605H7.6875ZM7.6875 5.93571V6.81071H6.11239V5.93571H7.6875ZM9.08773 5.95337C9.08773 5.65216 9.08714 5.45253 9.07463 5.2994C9.06253 5.15138 9.04107 5.08568 9.02051 5.04533C8.96181 4.93019 8.86847 4.83629 8.75334 4.77759C8.71301 4.75704 8.64711 4.73614 8.49927 4.72404C8.34613 4.71153 8.14597 4.71094 7.84473 4.71094H5.95516C5.65403 4.71094 5.45431 4.71154 5.30119 4.72404C5.15339 4.73612 5.08748 4.75706 5.04712 4.77759C4.9319 4.8363 4.8381 4.93012 4.77938 5.04533C4.75882 5.08568 4.73736 5.15138 4.72526 5.2994C4.71275 5.45253 4.71273 5.65216 4.71273 5.95337V13.2861H9.08773V5.95337ZM9.96273 8.03605H12.0448C12.3315 8.03605 12.573 8.03536 12.77 8.05143C12.9722 8.06795 13.1662 8.10395 13.3505 8.19784C13.6304 8.34045 13.8579 8.56852 14.0005 8.84839C14.0943 9.03257 14.1304 9.22625 14.1469 9.4283C14.163 9.62532 14.1623 9.86674 14.1623 10.1535V13.2861H14.6875V14.1611H3.3125V13.2861H3.83773V5.95337C3.83773 5.6666 3.83701 5.42521 3.85311 5.22819C3.86962 5.02611 3.90569 4.83248 3.99951 4.64827C4.14208 4.36847 4.36972 4.14091 4.6495 3.99829C4.83375 3.90441 5.02784 3.8684 5.22998 3.85189C5.42698 3.83581 5.66846 3.83594 5.95516 3.83594H7.84473C8.13153 3.83594 8.37344 3.83579 8.57048 3.85189C8.77254 3.86841 8.9662 3.90444 9.15039 3.99829C9.43021 4.14091 9.65779 4.36844 9.80037 4.64827C9.89421 4.8325 9.93026 5.02609 9.94678 5.22819C9.96287 5.42521 9.96273 5.6666 9.96273 5.95337V8.03605Z" fill="#3A3480"/>
</svg>
