<svg width="24" height="24" viewBox="0 0 24 24" fill="none" xmlns="http://www.w3.org/2000/svg">
<path d="M19.5 19.5V21H4.5V19.5H19.5ZM19.5 4.5H4.5V21L4.34668 20.9922C3.64069 20.9205 3.07949 20.3593 3.00781 19.6533L3 19.5V4.5C3 3.67157 3.67157 3 4.5 3H19.5C20.3284 3 21 3.67157 21 4.5V19.5C21 20.2767 20.4097 20.9154 19.6533 20.9922L19.5 21V4.5Z" fill="#161616"/>
<path d="M17.3333 14.1775H15.8333V17.9695H17.3333V14.1775ZM12.7503 11.8855H11.2503V17.9695H12.7503V11.8855ZM8.16634 7.3025H6.66634V17.9695H8.16634V7.3025Z" fill="#161616"/>
</svg>
