<svg width="24" height="24" viewBox="0 0 24 24" fill="none" xmlns="http://www.w3.org/2000/svg">
<path d="M20.25 8.22021C20.25 7.76829 19.8594 7.3501 19.3125 7.3501H4.6875C4.14058 7.3501 3.75 7.76829 3.75 8.22021V15.7798C3.75 16.2317 4.14058 16.6499 4.6875 16.6499H19.3125C19.8594 16.6499 20.25 16.2317 20.25 15.7798V8.22021ZM13.5 12.0005C13.5 11.2503 12.8576 10.5903 12 10.5903C11.1424 10.5903 10.5 11.2503 10.5 12.0005C10.5002 12.7505 11.1426 13.4097 12 13.4097C12.8574 13.4097 13.4998 12.7505 13.5 12.0005ZM5.625 9.09033H7.125V14.3706H5.625V9.09033ZM16.875 9.09033H18.375V14.3706H16.875V9.09033ZM15 12.0005C14.9998 13.636 13.6276 14.9097 12 14.9097C10.3724 14.9097 9.00022 13.636 9 12.0005C9 10.3648 10.3723 9.09033 12 9.09033C13.6277 9.09033 15 10.3648 15 12.0005ZM21.75 15.7798C21.75 17.1173 20.6295 18.1499 19.3125 18.1499H4.6875C3.37046 18.1499 2.25 17.1173 2.25 15.7798V8.22021C2.25 6.88274 3.37046 5.8501 4.6875 5.8501H19.3125C20.6295 5.8501 21.75 6.88274 21.75 8.22021V15.7798Z" fill="#161616"/>
</svg>
