<svg width="24" height="24" viewBox="0 0 24 24" fill="none" xmlns="http://www.w3.org/2000/svg">
<path d="M3.27832 17.1428V13.3391L2.46973 12.5305C2.3291 12.3899 2.25003 12.1991 2.25 12.0002C2.25 11.8014 2.32911 11.6106 2.46973 11.47L3.27832 10.6604V6.85767C3.27832 5.30681 4.5351 4.05015 6.08594 4.05005H6.83594V5.55005H6.08594C5.36353 5.55015 4.77832 6.13523 4.77832 6.85767V10.9709C4.77832 11.1699 4.69925 11.3615 4.55859 11.5022L4.06055 12.0002L4.55859 12.4983C4.69918 12.6389 4.77825 12.8297 4.77832 13.0286V17.1428C4.77835 17.8652 5.36355 18.4503 6.08594 18.4504H6.83594V19.9504H6.08594C4.53512 19.9503 3.27835 18.6937 3.27832 17.1428ZM19.2217 17.1428V13.0286C19.2218 12.8297 19.3008 12.6389 19.4414 12.4983L19.9395 12.0002L19.4414 11.5022C19.3008 11.3615 19.2217 11.1699 19.2217 10.9709V6.85767C19.2217 6.13523 18.6365 5.55015 17.9141 5.55005H17.1641V4.05005H17.9141C19.4649 4.05015 20.7217 5.30681 20.7217 6.85767V10.6604L21.5303 11.47C21.8231 11.7629 21.8231 12.2376 21.5303 12.5305L20.7217 13.3391V17.1428C20.7217 18.6939 19.4638 19.9503 17.9141 19.9504H17.1641V18.4504H17.9141C18.6358 18.4503 19.2217 17.865 19.2217 17.1428ZM15.7607 9.30005L13.0605 12.0002L15.7607 14.7004L14.7002 15.761L12 13.0608L9.2998 15.761L8.23926 14.7004L10.9395 12.0002L8.23926 9.30005L9.2998 8.2395L12 10.9397L14.7002 8.2395L15.7607 9.30005Z" fill="#161616"/>
</svg>
