<svg width="24" height="24" viewBox="0 0 24 24" fill="none" xmlns="http://www.w3.org/2000/svg">
<path d="M11.3283 11.3087C11.6761 11.0838 12.1405 11.1836 12.3654 11.5313C12.5277 11.7823 12.5192 12.0926 12.3723 12.3311V18.9854L16.1438 16.1133C16.4732 15.8624 16.9435 15.9257 17.1945 16.2549C17.4455 16.5844 17.3822 17.0547 17.0529 17.3057L12.0764 21.0967C11.8496 21.2694 11.5447 21.2984 11.2893 21.1719C11.0338 21.0454 10.8723 20.7851 10.8723 20.5001V13.3897L6.74044 16.0616L5.92599 14.8018L11.1369 11.4327C11.1947 11.3832 11.2574 11.3389 11.3283 11.3087Z" fill="#161616"/>
<path d="M22.0561 20.5173L21.0299 21.6121L4.2655 5.88927L5.29073 4.79454L22.0561 20.5173Z" fill="#161616"/>
<path d="M11.2891 2.82823C11.5445 2.70172 11.8494 2.73078 12.0762 2.90343L18.1211 7.50792C18.3152 7.65591 18.4254 7.88907 18.4161 8.13292C18.4066 8.37696 18.2784 8.60188 18.0733 8.73448L14.1143 11.2931L12.9873 10.2355L16.3623 8.05382L12.3721 5.01378V9.65831L10.8721 8.25206V3.50011C10.8721 3.21505 11.0337 2.95479 11.2891 2.82823Z" fill="#161616"/>
</svg>
