<svg width="24" height="24" viewBox="0 0 24 24" fill="none" xmlns="http://www.w3.org/2000/svg">
<path d="M4.98593 16.3673V20.2501H3.48593V16.3673H4.98593ZM12.7506 10.544V20.2501H11.2506V10.544H12.7506ZM20.5152 13.4561V20.2501H19.0152V13.4561H20.5152ZM10.441 3.64658C11.3025 2.78513 12.6987 2.78513 13.5602 3.64658C13.9973 4.08379 14.2113 4.65857 14.2047 5.23154L18.0875 6.68759C18.1251 6.64352 18.164 6.59939 18.2057 6.55771C19.0671 5.69658 20.4634 5.69655 21.3248 6.55771C22.1862 7.41916 22.1862 8.81638 21.3248 9.67783C20.4634 10.539 19.0671 10.5389 18.2057 9.67783C17.7684 9.24052 17.5535 8.66501 17.5602 8.09189L13.6764 6.63486C13.6387 6.67887 13.6018 6.72408 13.5602 6.76572C12.8075 7.51833 11.6465 7.61338 10.7906 7.05087L6.34531 10.3849C6.57514 11.1393 6.39204 11.9923 5.7955 12.589C4.93406 13.4504 3.53781 13.4504 2.67636 12.589C1.81491 11.7275 1.81491 10.3313 2.67636 9.46982C3.42894 8.71737 4.59012 8.62137 5.44589 9.18369L9.89023 5.8497C9.66086 5.09546 9.84465 4.24296 10.441 3.64658ZM4.73495 10.5304C4.45934 10.2547 4.01258 10.2548 3.73691 10.5304C3.46124 10.806 3.46124 11.2527 3.73691 11.5284C4.01257 11.804 4.4593 11.8041 4.73495 11.5284C5.01047 11.2527 5.01054 10.806 4.73495 10.5304ZM20.2643 7.61826C19.9887 7.34288 19.5418 7.34292 19.2662 7.61826C18.9905 7.89392 18.9905 8.34162 19.2662 8.61728C19.5418 8.89258 19.9887 8.89262 20.2643 8.61728C20.5399 8.34162 20.5399 7.89392 20.2643 7.61826ZM12.4996 4.70712C12.2239 4.43146 11.7772 4.43146 11.5016 4.70712C11.2259 4.98279 11.2259 5.42952 11.5016 5.70517C11.7772 5.98068 12.224 5.98076 12.4996 5.70517C12.7752 5.42955 12.7751 4.9828 12.4996 4.70712Z" fill="#161616"/>
</svg>
