<svg width="24" height="24" viewBox="0 0 24 24" fill="none" xmlns="http://www.w3.org/2000/svg">
<path d="M19.75 8.5H4.25V18.375C4.25 19.1344 4.86561 19.75 5.625 19.75H18.375C19.1344 19.75 19.75 19.1344 19.75 18.375V8.5ZM15.25 10.75V12.25H8.75V10.75H15.25ZM6.61035 4.25C6.29076 4.25 5.99839 4.43095 5.85547 4.7168L4.71387 7H19.2861L18.1445 4.7168C18.0016 4.43095 17.7092 4.25 17.3896 4.25H6.61035ZM21.25 18.375C21.25 19.9628 19.9628 21.25 18.375 21.25H5.625C4.03718 21.25 2.75 19.9628 2.75 18.375V8.25195C2.75 7.80562 2.85411 7.36503 3.05371 6.96582L4.51367 4.0459L4.59277 3.90039C5.01229 3.19091 5.77801 2.75 6.61035 2.75H17.3896C18.2774 2.75 19.0893 3.25187 19.4863 4.0459L20.9463 6.96582L21.0166 7.11719C21.1703 7.47507 21.25 7.8613 21.25 8.25195V18.375Z" fill="#161616"/>
</svg>
