<svg width="24" height="24" viewBox="0 0 24 24" fill="none" xmlns="http://www.w3.org/2000/svg">
<path d="M1.0498 15.4121V8.35254C1.05002 6.63915 2.43896 5.25022 4.15234 5.25C4.56656 5.25 4.90234 5.58579 4.90234 6C4.90234 6.41421 4.56656 6.75 4.15234 6.75C3.26738 6.75022 2.55002 7.46758 2.5498 8.35254V15.4121C2.54999 16.2971 3.26736 17.0144 4.15234 17.0146H15.0049C15.4191 17.0146 15.7549 17.3505 15.7549 17.7646C15.7549 18.1789 15.4191 18.5146 15.0049 18.5146H4.15234C2.43894 18.5144 1.04999 17.1255 1.0498 15.4121Z" fill="black" fill-opacity="0.3"/>
<path d="M17.9102 19.5107L16.8115 20.5312L1.91211 4.48047L3.01074 3.45996L17.9102 19.5107Z" fill="#E76067"/>
<mask id="mask0_1374_89097" style="mask-type:alpha" maskUnits="userSpaceOnUse" x="1" y="5" width="22" height="14">
<path d="M1.0498 15.4121V8.35254C1.05002 6.63915 2.43896 5.25022 4.15234 5.25C4.56656 5.25 4.90234 5.58579 4.90234 6C4.90234 6.41421 4.56656 6.75 4.15234 6.75C3.26738 6.75022 2.55002 7.46758 2.5498 8.35254V15.4121C2.54999 16.2971 3.26736 17.0144 4.15234 17.0146H15.0049C15.4191 17.0146 15.7549 17.3505 15.7549 17.7646C15.7549 18.1789 15.4191 18.5146 15.0049 18.5146H4.15234C2.43894 18.5144 1.04999 17.1255 1.0498 15.4121ZM17.5205 15.4121V8.35254C17.5203 7.46744 16.8021 6.75 15.917 6.75H5.43359V5.25H15.917C17.6306 5.25 19.0203 6.63902 19.0205 8.35254V15.4121C19.0204 16.2141 18.7152 16.9468 18.2158 17.4971L17.7119 18.0518L16.6006 17.0439L17.1045 16.4883C17.3632 16.2032 17.5204 15.827 17.5205 15.4121ZM21.0498 9.36719H22.5498V14.3975H21.0498V9.36719Z" fill="#161616"/>
</mask>
<g mask="url(#mask0_1374_89097)">
<path d="M19.6743 19.4716L5.79541 4.51968V3.51953H23.0001V19.4716H19.6743Z" fill="black" fill-opacity="0.3"/>
</g>
</svg>
