<svg width="24" height="24" viewBox="0 0 24 24" fill="none" xmlns="http://www.w3.org/2000/svg">
<path d="M16.7762 3.45703C17.8225 2.48823 19.4475 2.51917 20.4559 3.52735C21.4643 4.53568 21.496 6.16066 20.5272 7.20703L12.6356 15.7295C12.2648 16.1299 11.9734 16.4569 11.6376 16.6553C11.2217 16.9008 10.7512 17.0147 10.284 16.9971C10.4157 18.1057 10.0576 19.2616 9.2069 20.1123C8.42411 20.895 7.34147 21.1368 6.36119 21.2148C5.39977 21.2914 4.29657 21.2168 3.51647 21.2168C3.25527 21.2168 3.01308 21.0812 2.87682 20.8584C2.74057 20.6355 2.7303 20.3575 2.84947 20.125C3.18307 19.4739 3.13905 18.7059 3.09947 17.7119C3.06507 16.8478 3.01418 15.6341 3.87193 14.7764C4.72248 13.926 5.87784 13.5668 6.98619 13.6982C6.96879 13.2315 7.08359 12.7612 7.32897 12.3457C7.52731 12.01 7.85347 11.7183 8.25377 11.3477L16.7762 3.45703ZM8.14635 15.8369C7.25886 14.9496 5.82003 14.9497 4.93248 15.8369C4.60975 16.1596 4.55814 16.6633 4.59752 17.6523C4.62067 18.2338 4.67495 18.9812 4.53697 19.7373C5.1144 19.7528 5.67724 19.7647 6.24205 19.7197C7.11479 19.6502 7.74865 19.4494 8.14635 19.0518C9.03394 18.1642 9.03394 16.7245 8.14635 15.8369ZM9.2733 12.4482C8.79322 12.8928 8.67855 13.0093 8.61998 13.1084C8.44573 13.4034 8.43865 13.7688 8.60143 14.0703C8.65611 14.1716 8.76566 14.2922 9.22838 14.7549C9.69131 15.2178 9.81264 15.3272 9.91393 15.3818C10.2154 15.5445 10.5799 15.5375 10.8749 15.3633C10.9739 15.3047 11.0905 15.191 11.535 14.7109L11.784 14.4414L9.54186 12.1992L9.2733 12.4482ZM19.3954 4.58789C18.9569 4.14964 18.2507 4.13642 17.7958 4.55762L10.6434 11.1797L12.8036 13.3398L19.4266 6.1875C19.8476 5.73253 19.8337 5.02622 19.3954 4.58789Z" fill="#161616"/>
</svg>
