<svg width="24" height="24" viewBox="0 0 24 24" fill="none" xmlns="http://www.w3.org/2000/svg">
<path d="M17.5713 16C17.5713 14.1871 16.1428 12.75 14.4209 12.75H7.07129V19.25H14.4209C16.1428 19.25 17.5713 17.8129 17.5713 16ZM16.3711 8C16.3711 6.1872 14.9434 4.75022 13.2217 4.75H7.07129V11.25H13.2217C14.9434 11.2498 16.3711 9.8128 16.3711 8ZM17.8711 8C17.8711 9.44495 17.2352 10.7468 16.2285 11.6211C17.9055 12.3439 19.0713 14.042 19.0713 16C19.0713 18.6053 17.0068 20.75 14.4209 20.75H6.32129C5.90708 20.75 5.57129 20.4142 5.57129 20V4L5.5752 3.92285C5.61382 3.54488 5.93312 3.25 6.32129 3.25H13.2217C15.8074 3.25022 17.8711 5.39479 17.8711 8Z" fill="#161616"/>
</svg>
