<svg width="24" height="24" viewBox="0 0 24 24" fill="none" xmlns="http://www.w3.org/2000/svg">
<path fill-rule="evenodd" clip-rule="evenodd" d="M15.4169 21.75H8.58393V20.25H15.4169V21.75ZM19.4482 19.6602L18.8476 20.1104L18.247 20.5596L16.6103 18.375H4.50775C3.84375 18.375 3.47962 17.8518 3.34857 17.4932C3.21087 17.116 3.18703 16.5855 3.48334 16.1445L3.67963 15.8311C4.13213 15.0628 4.51847 14.0338 4.5185 12.835V12.8271L4.54291 10.5732C4.54481 8.39925 5.29259 6.40837 6.53022 4.91699L5.43061 3.44922L6.63178 2.55078L19.4482 19.6602ZM11.9999 2.25C16.1994 2.25016 19.4531 6.06461 19.457 10.5732L19.4814 12.8271V12.835L19.4872 13.0889C19.5445 14.347 20.0183 15.4031 20.5165 16.1445L20.6132 16.3135C20.8052 16.7156 20.7718 17.1632 20.6513 17.4932C20.5749 17.7023 20.4179 17.9657 20.1699 18.1504L19.165 16.8086C18.5541 15.8456 17.9832 14.481 17.9814 12.8428L17.957 10.5898V10.5811L17.9492 10.2217C17.7846 6.53673 15.1058 3.75015 11.9999 3.75C11.215 3.75 10.4573 3.92844 9.76068 4.25391L8.84369 3.02832C9.79618 2.53116 10.8631 2.25 11.9999 2.25ZM7.46088 6.16016C6.58132 7.34583 6.04301 8.88613 6.04291 10.5811V10.5898L6.0185 12.8438C6.01645 14.5189 5.42119 15.9091 4.79486 16.875H15.4872L7.46088 6.16016Z" fill="#161616"/>
</svg>
