<svg width="40" height="40" viewBox="0 0 40 40" fill="none" xmlns="http://www.w3.org/2000/svg">
<path d="M0 4C0 1.79086 1.79086 0 4 0H36C38.2091 0 40 1.79086 40 4V36C40 38.2091 38.2091 40 36 40H4C1.79086 40 0 38.2091 0 36V4Z" fill="#F5F4FD"/>
<path d="M28.5745 22.3109C28.5745 21.7085 28.5745 21.3092 28.5495 21.0029C28.5253 20.7069 28.4824 20.5755 28.4412 20.4948C28.3238 20.2643 28.1363 20.0768 27.9058 19.9593C27.825 19.9182 27.6933 19.8752 27.3976 19.8511C27.0914 19.8261 26.6919 19.826 26.0897 19.826H21.9255V28.576H28.5745V22.3109ZM17.375 22.2756V24.0256H14.2248V22.2756H17.375ZM17.375 18.076V19.826H14.2248V18.076H17.375ZM17.375 13.8753V15.6253H14.2248V13.8753H17.375ZM20.1755 13.9106C20.1755 13.3082 20.1743 12.909 20.1493 12.6027C20.1251 12.3067 20.0821 12.1753 20.041 12.0946C19.9236 11.8643 19.7369 11.6765 19.5067 11.5591C19.426 11.518 19.2942 11.4762 18.9985 11.452C18.6923 11.427 18.2919 11.4258 17.6895 11.4258H13.9103C13.3081 11.4258 12.9086 11.427 12.6024 11.452C12.3068 11.4761 12.175 11.518 12.0942 11.5591C11.8638 11.6765 11.6762 11.8641 11.5588 12.0946C11.5176 12.1753 11.4747 12.3067 11.4505 12.6027C11.4255 12.909 11.4255 13.3082 11.4255 13.9106V28.576H20.1755V13.9106ZM21.9255 18.076H26.0897C26.663 18.076 27.1461 18.0746 27.54 18.1068C27.9443 18.1398 28.3325 18.2118 28.701 18.3996C29.2607 18.6848 29.7158 19.1409 30.001 19.7007C30.1886 20.069 30.2608 20.4564 30.2938 20.8605C30.326 21.2545 30.3245 21.7374 30.3245 22.3109V28.576H31.375V30.326H8.625V28.576H9.67546V13.9106C9.67546 13.3371 9.67403 12.8543 9.70622 12.4603C9.73924 12.0561 9.81138 11.6689 9.99902 11.3005C10.2842 10.7408 10.7394 10.2857 11.299 10.0005C11.6675 9.81272 12.0557 9.74071 12.46 9.70768C12.854 9.67552 13.3369 9.67578 13.9103 9.67578H17.6895C18.2631 9.67578 18.7469 9.67549 19.141 9.70768C19.5451 9.74073 19.9324 9.81279 20.3008 10.0005C20.8604 10.2857 21.3156 10.7408 21.6007 11.3005C21.7884 11.6689 21.8605 12.0561 21.8936 12.4603C21.9257 12.8543 21.9255 13.3371 21.9255 13.9106V18.076Z" fill="#3A3480"/>
</svg>
