<svg width="24" height="24" viewBox="0 0 24 24" fill="none" xmlns="http://www.w3.org/2000/svg">
<path d="M2.75 16.4338V10.134C2.75 9.86994 2.74929 9.68279 2.76563 9.51782L2.80567 9.24048C3.06429 7.87227 4.19589 6.81946 5.60352 6.67993L5.88086 6.66626C5.98503 6.66445 6.10328 6.66431 6.24219 6.66431C6.36766 6.66431 6.39768 6.66456 6.41797 6.66333L6.54004 6.64673C6.8195 6.58891 7.05557 6.39498 7.16407 6.12524L7.21778 5.96997C7.24859 5.87754 7.27309 5.8001 7.30176 5.72876L7.3711 5.57349C7.74224 4.81296 8.49625 4.30488 9.34961 4.25317L9.6045 4.24927H13.9854V5.74927H9.6045L9.44043 5.75024C9.15023 5.76782 8.89132 5.93021 8.74805 6.177L8.69434 6.28833C8.68669 6.30737 8.67768 6.33246 8.64063 6.4436L8.55567 6.68481C8.23676 7.47782 7.51637 8.03209 6.67774 8.1438L6.50782 8.1604C6.43095 8.16504 6.34567 8.16431 6.24219 8.16431C6.08395 8.16431 5.97936 8.16513 5.90528 8.16626L5.75196 8.1731C5.01132 8.24648 4.41546 8.79992 4.2793 9.51978L4.25782 9.66626C4.25064 9.73885 4.25001 9.83428 4.25 10.134V16.4338C4.25001 17.1225 4.25044 17.5941 4.28028 17.9592C4.30939 18.3154 4.36291 18.5039 4.43165 18.6389L4.4961 18.7542C4.6561 19.0149 4.8851 19.2277 5.15918 19.3674L5.27247 19.4153C5.39922 19.4607 5.57228 19.4969 5.83985 19.5188C6.20502 19.5486 6.67654 19.5491 7.36524 19.5491H15.7402C16.429 19.5491 16.9005 19.5486 17.2656 19.5188C17.6217 19.4897 17.8103 19.4361 17.9453 19.3674L18.0606 19.303C18.3215 19.1429 18.5341 18.9132 18.6738 18.6389L18.7227 18.5266C18.7681 18.3999 18.8033 18.2267 18.8252 17.9592C18.855 17.5941 18.8555 17.1225 18.8555 16.4338V10.134H20.3555V16.4338C20.3555 17.0978 20.3563 17.6409 20.3203 18.0813C20.2882 18.4744 20.224 18.836 20.0781 19.176L20.0098 19.3206C19.7442 19.8415 19.3404 20.2772 18.8447 20.5813L18.627 20.7034C18.2452 20.8979 17.8369 20.9762 17.3877 21.0129C16.9473 21.0489 16.4042 21.0491 15.7402 21.0491H7.36524C6.70126 21.0491 6.15819 21.0489 5.71778 21.0129C5.32479 20.9808 4.96296 20.9175 4.62305 20.7717L4.47852 20.7034C3.95733 20.4378 3.52095 20.0342 3.2168 19.5383L3.09473 19.3206C2.90023 18.9388 2.82186 18.5305 2.78516 18.0813C2.74918 17.6409 2.75 17.0978 2.75 16.4338ZM14.0234 13.4543C14.0234 12.0897 12.9174 10.9827 11.5527 10.9827C10.188 10.9827 9.08204 12.0896 9.08204 13.4543C9.0822 14.8189 10.1881 15.925 11.5527 15.925C12.9173 15.925 14.0233 14.8189 14.0234 13.4543ZM17.5127 6.68872H15.2764V5.18872H17.5127V2.95142H19.0127V5.18872H21.25V6.68872H19.0127V8.92505H17.5127V6.68872ZM15.5234 13.4543C15.5233 15.6473 13.7457 17.425 11.5527 17.425C9.35969 17.425 7.5822 15.6474 7.58204 13.4543C7.58204 11.2612 9.35959 9.48267 11.5527 9.48267C13.7458 9.48272 15.5234 11.2612 15.5234 13.4543Z" fill="#161616"/>
</svg>
