<svg width="24" height="24" viewBox="0 0 24 24" fill="none" xmlns="http://www.w3.org/2000/svg">
<path d="M20.5 19.4053V20.9053H3.5V19.4053H20.5ZM20.5 14.4053H3.5V20.9053L3.34668 20.8975C2.59028 20.8207 2 20.1819 2 19.4053V14.4053C2 13.5768 2.67157 12.9053 3.5 12.9053H20.5C21.3284 12.9053 22 13.5768 22 14.4053V19.4053C22 20.2337 21.3284 20.9053 20.5 20.9053V14.4053Z" fill="#161616"/>
<path d="M9.26172 6.12891C9.26159 5.28158 8.57392 4.59473 7.72656 4.59473C6.87932 4.59486 6.19251 5.28166 6.19238 6.12891C6.19238 6.97626 6.87924 7.66393 7.72656 7.66406V9.16406L7.57031 9.15918C5.96719 9.07773 4.69238 7.75228 4.69238 6.12891C4.69251 4.45323 6.05089 3.09486 7.72656 3.09473C9.40235 3.09473 10.7616 4.45315 10.7617 6.12891L10.7568 6.28516C10.6756 7.88851 9.3501 9.16406 7.72656 9.16406V7.66406C8.574 7.66406 9.26172 6.97635 9.26172 6.12891Z" fill="#161616"/>
<path d="M18.2744 12.9053V14.4053H14.2744V12.9053H18.2744ZM18.2744 8.90527H14.2744V14.4053C13.446 14.4053 12.7744 13.7337 12.7744 12.9053V8.90527C12.7744 8.07685 13.446 7.40527 14.2744 7.40527H18.2744L18.4277 7.41309C19.184 7.49003 19.7744 8.12872 19.7744 8.90527V12.9053L19.7666 13.0586C19.6949 13.7645 19.1336 14.3256 18.4277 14.3975L18.2744 14.4053V8.90527Z" fill="#161616"/>
<path d="M9.72656 11.4053C9.72656 10.5768 9.05499 9.90527 8.22656 9.90527H7.22656C6.39814 9.90527 5.72656 10.5768 5.72656 11.4053V12.9053H9.72656V11.4053ZM11.2266 14.4053H4.22656V11.4053C4.22656 9.74842 5.56971 8.40527 7.22656 8.40527H8.22656C9.88342 8.40527 11.2266 9.74842 11.2266 11.4053V14.4053Z" fill="#161616"/>
</svg>
