<svg width="24" height="24" viewBox="0 0 24 24" fill="none" xmlns="http://www.w3.org/2000/svg">
<path d="M13.4595 10.7466L10.897 14.5894H14.5054C14.7818 14.5895 15.0361 14.7421 15.1665 14.9858C15.2969 15.2295 15.2825 15.5253 15.1294 15.7554L11.7896 20.7651L10.5415 19.9331L13.103 16.0894H9.49561C9.21911 16.0894 8.96503 15.9376 8.83447 15.6938C8.70396 15.45 8.71815 15.1535 8.87158 14.9233L12.2114 9.91455L13.4595 10.7466ZM19.5991 11.5825C19.599 10.0169 18.4018 8.72992 16.8735 8.58838C16.5339 8.55674 16.258 8.3 16.2026 7.96338C15.8704 5.94277 14.115 4.40106 12.0005 4.40088C9.88582 4.40088 8.12956 5.94265 7.79736 7.96338C7.742 8.30007 7.4662 8.55684 7.12646 8.58838C5.59818 8.72992 4.40095 10.0169 4.40088 11.5825C4.40088 12.8907 5.23678 14.0053 6.40576 14.4185L5.90576 15.8335C4.1562 15.2151 2.90088 13.5461 2.90088 11.5825C2.90094 9.42835 4.41189 7.62833 6.43213 7.18213C7.08501 4.71739 9.33022 2.90088 12.0005 2.90088C14.6705 2.90104 16.9139 4.71765 17.5669 7.18213C19.5877 7.62789 21.0991 9.42794 21.0991 11.5825C21.0991 13.5461 19.8438 15.2151 18.0942 15.8335L17.5942 14.4185C18.7632 14.0053 19.5991 12.8907 19.5991 11.5825Z" fill="#161616"/>
</svg>
