<svg width="24" height="24" viewBox="0 0 24 24" fill="none" xmlns="http://www.w3.org/2000/svg">
<path d="M1.78998 12C1.78998 6.89137 5.93134 2.75 11.04 2.75C16.1486 2.75 20.29 6.89137 20.29 12H18.79C18.79 7.71979 15.3202 4.25 11.04 4.25C6.75977 4.25 3.28998 7.71979 3.28998 12C3.28998 16.2802 6.75977 19.75 11.04 19.75C11.5376 19.75 12.0237 19.7035 12.4941 19.6143L12.7734 21.0879C12.2113 21.1945 11.6318 21.25 11.04 21.25C5.93134 21.25 1.78998 17.1086 1.78998 12ZM11.79 8.62012V12.5215L14.4648 13.4131L13.9902 14.8369L10.8027 13.7744C10.4964 13.6723 10.29 13.3853 10.29 13.0625V8.62012H11.79Z" fill="#161616"/>
<path d="M19.791 15.2035C20.0943 15.2035 20.3683 15.3861 20.4844 15.6664C20.6005 15.9466 20.5358 16.2692 20.3213 16.4837L17.9736 18.8314H20.541V20.3314H16.1631C15.8597 20.3314 15.5858 20.1488 15.4697 19.8685C15.3539 19.5883 15.4184 19.2655 15.6328 19.0511L17.9805 16.7035H15.4131V15.2035H19.791Z" fill="#161616"/>
</svg>
