<svg width="24" height="24" viewBox="0 0 24 24" fill="none" xmlns="http://www.w3.org/2000/svg">
<path fill-rule="evenodd" clip-rule="evenodd" d="M18.4418 3C19.8546 3 21 4.14535 21 5.55822V18.4418C21 19.8546 19.8546 21 18.4418 21H5.55822C4.14536 21 3 19.8546 3 18.4418L3 5.55822C3 4.14535 4.14535 3 5.55822 3L18.4418 3ZM12.75 4.5V19.5H18.4418C19.0262 19.5 19.5 19.0262 19.5 18.4418V5.55822C19.5 4.97378 19.0262 4.5 18.4418 4.5L12.75 4.5ZM11.25 19.5V4.5H5.55822C4.97378 4.5 4.5 4.97378 4.5 5.55822L4.5 18.4418C4.5 19.0262 4.97378 19.5 5.55822 19.5H11.25Z" fill="#161616"/>
</svg>
