<svg width="24" height="24" viewBox="0 0 24 24" fill="none" xmlns="http://www.w3.org/2000/svg">
<path d="M19.8213 5.97949C19.8212 5.16245 19.1588 4.50013 18.3418 4.5H6.30078C5.48374 4.50013 4.82142 5.16245 4.82129 5.97949V18.0205C4.82142 18.8376 5.48374 19.4999 6.30078 19.5H18.3418C19.1588 19.4999 19.8212 18.8376 19.8213 18.0205V5.97949ZM18.0225 7.35938L7.68066 17.7012L6.62012 16.6406L16.9619 6.29883L18.0225 7.35938ZM18.2275 14.8594V16.3594H12.6025V14.8594H18.2275ZM8.47754 9.65625H6.41504V8.15625H8.47754V6.09375H9.97754V8.15625H12.04V9.65625H9.97754V11.7188H8.47754V9.65625ZM21.3213 18.0205C21.3212 19.666 19.9873 20.9999 18.3418 21H6.30078C4.65531 20.9999 3.32142 19.666 3.32129 18.0205V5.97949C3.32142 4.33402 4.65531 3.00013 6.30078 3H18.3418C19.9873 3.00013 21.3212 4.33402 21.3213 5.97949V18.0205Z" fill="#161616"/>
</svg>
