<svg width="24" height="24" viewBox="0 0 24 24" fill="none" xmlns="http://www.w3.org/2000/svg">
<path d="M1.79004 12C1.79004 6.89137 5.9314 2.75 11.04 2.75C16.1487 2.75 20.29 6.89137 20.29 12H18.79C18.79 7.71979 15.3202 4.25 11.04 4.25C6.75983 4.25 3.29004 7.71979 3.29004 12C3.29004 16.2802 6.75983 19.75 11.04 19.75C11.5376 19.75 12.0237 19.7035 12.4941 19.6143L12.7734 21.0879C12.2114 21.1945 11.6319 21.25 11.04 21.25C5.9314 21.25 1.79004 17.1086 1.79004 12ZM21.1328 15.7178L16.8828 19.9678C16.7422 20.1084 16.5514 20.1875 16.3525 20.1875C16.1535 20.1874 15.9619 20.1086 15.8213 19.9678L13.4141 17.5547L14.4756 16.4951L16.3525 18.376L20.0723 14.6572L21.1328 15.7178ZM11.79 8.62012V12.5215L14.4648 13.4131L13.9902 14.8369L10.8027 13.7744C10.4965 13.6723 10.29 13.3853 10.29 13.0625V8.62012H11.79Z" fill="#161616"/>
</svg>
