<svg width="24" height="24" viewBox="0 0 24 24" fill="none" xmlns="http://www.w3.org/2000/svg">
<path d="M20.2324 7.62598C20.1555 6.87059 19.5174 6.28125 18.7412 6.28125H5.24902C4.4212 6.28125 3.74998 6.95245 3.75 7.78027V8.7168H20.2402V7.7793L20.2324 7.62598ZM21.7402 12.4658H20.2402V10.2168H3.75V16.2129C3.75002 17.0406 4.42128 17.7119 5.24902 17.7119H14.9941V19.2119H5.24902C3.59287 19.2119 2.25005 17.8691 2.25 16.2129V7.78027C2.24995 6.12401 3.59276 4.78125 5.24902 4.78125H18.7412C20.3971 4.78125 21.7401 6.1229 21.7402 7.7793V12.4658Z" fill="#161616"/>
<path d="M16.938 14.909L18.6118 16.5829L16.9387 18.256L17.9993 19.3167L19.6725 17.6435L21.3464 19.3174L22.407 18.2567L20.7332 16.5829L22.407 14.909L21.3464 13.8483L19.6725 15.5222L17.9987 13.8483L16.938 14.909Z" fill="#161616"/>
</svg>
