<svg width="24" height="24" viewBox="0 0 24 24" fill="none" xmlns="http://www.w3.org/2000/svg">
<path d="M19.5 5.8125C19.5 5.08763 18.9124 4.5 18.1875 4.5H5.8125C5.08763 4.5 4.5 5.08763 4.5 5.8125V18.1875C4.5 18.9124 5.08763 19.5 5.8125 19.5H18.1875C18.9124 19.5 19.5 18.9124 19.5 18.1875V5.8125ZM10.998 9.42188L8.41992 12L10.998 14.5781L9.9375 15.6387L6.8291 12.5303C6.53621 12.2374 6.53621 11.7626 6.8291 11.4697L9.9375 8.36133L10.998 9.42188ZM17.1709 11.4697L17.2227 11.5264C17.463 11.8209 17.4455 12.2557 17.1709 12.5303L14.0625 15.6387L13.002 14.5781L15.5801 12L13.002 9.42188L14.0625 8.36133L17.1709 11.4697ZM21 18.1875C21 19.7408 19.7408 21 18.1875 21H5.8125C4.2592 21 3 19.7408 3 18.1875V5.8125C3 4.2592 4.2592 3 5.8125 3H18.1875C19.7408 3 21 4.2592 21 5.8125V18.1875Z" fill="#161616"/>
</svg>
