<svg width="24" height="24" viewBox="0 0 24 24" fill="none" xmlns="http://www.w3.org/2000/svg">
<path d="M19.5 16.5371C19.4998 14.9011 18.1731 13.5752 16.5371 13.5752C16.4712 13.5752 16.4055 13.5768 16.3408 13.5811C16.0558 13.5995 15.7851 13.4545 15.6426 13.207C14.9162 11.9461 13.5564 11.0996 12 11.0996C10.1688 11.0996 8.60931 12.2728 8.03516 13.9102C7.92201 14.2321 7.60575 14.4374 7.26562 14.4092C7.19477 14.4033 7.12249 14.4004 7.0498 14.4004C5.64157 14.4005 4.5 15.5419 4.5 16.9502C4.50011 18.3584 5.64163 19.4999 7.0498 19.5H16.5371C18.1733 19.5 19.5 18.1733 19.5 16.5371ZM3.8252 9.9375C3.8252 6.10602 6.93122 3 10.7627 3C14.2811 3.0001 17.1864 5.61884 17.6387 9.01367L16.8955 9.1123L16.1523 9.21191C15.798 6.55243 13.5192 4.5001 10.7627 4.5C7.75965 4.5 5.3252 6.93445 5.3252 9.9375C5.3252 10.3108 5.3624 10.6745 5.43359 11.0254L3.96387 11.3242C3.87279 10.8755 3.8252 10.4117 3.8252 9.9375ZM21 16.5371C21 19.0017 19.0017 21 16.5371 21H7.0498C4.81321 20.9999 3.00011 19.1868 3 16.9502C3 14.7885 4.69353 13.0224 6.82617 12.9062C7.73047 10.9549 9.70601 9.59961 12 9.59961C13.9531 9.59961 15.6738 10.5841 16.7002 12.0791C19.0893 12.1647 20.9998 14.1272 21 16.5371Z" fill="#161616"/>
</svg>
