<svg width="24" height="24" viewBox="0 0 24 24" fill="none" xmlns="http://www.w3.org/2000/svg">
<path d="M19 19.5V21H5V19.5H19ZM19.5 19V5C19.5 4.72386 19.2761 4.5 19 4.5H5C4.72386 4.5 4.5 4.72386 4.5 5V19C4.5 19.2761 4.72386 19.5 5 19.5V21L4.7959 20.9893C3.85435 20.8938 3.1062 20.1457 3.01074 19.2041L3 19V5C3 3.89543 3.89543 3 5 3H19C20.1046 3 21 3.89543 21 5V19C21 20.0357 20.2128 20.887 19.2041 20.9893L19 21V19.5C19.2761 19.5 19.5 19.2761 19.5 19Z" fill="#161616"/>
<path d="M16.5859 7.46875L8.58594 17.4688L7.41406 16.5312L15.4141 6.53125L16.5859 7.46875Z" fill="#161616"/>
</svg>
