<svg width="24" height="24" viewBox="0 0 24 24" fill="none" xmlns="http://www.w3.org/2000/svg">
<path d="M18.9097 10.373C19.2042 10.133 19.639 10.1503 19.9136 10.4248L22.0386 12.5498L20.978 13.6104L20.2495 12.8818C19.8053 17.5769 15.8526 21.25 11.0405 21.25C5.93097 21.2499 1.78857 17.1087 1.78857 12C1.78857 6.89127 5.93097 2.75014 11.0405 2.75C14.466 2.75 17.4565 4.61117 19.0552 7.37402L17.7563 8.12598C16.4149 5.80756 13.9091 4.25 11.0405 4.25C6.75904 4.25014 3.28857 7.72006 3.28857 12C3.28857 16.2799 6.75904 19.7499 11.0405 19.75C15.1089 19.75 18.443 16.6168 18.7651 12.6328L17.7876 13.6104L16.7271 12.5498L18.853 10.4248L18.9097 10.373ZM11.7886 8.8125V12.7148L14.4634 13.6064L13.9888 15.0293L10.8013 13.9668C10.4951 13.8647 10.2886 13.5777 10.2886 13.2549V8.8125H11.7886Z" fill="#161616"/>
</svg>
