<svg width="24" height="24" viewBox="0 0 24 24" fill="none" xmlns="http://www.w3.org/2000/svg">
<path d="M11.25 18H12.75V21.75H11.25V18ZM7.65039 17.0996H9.15039V20.8496H7.65039V17.0996ZM14.8496 17.0996H16.3496V20.8496H14.8496V17.0996ZM2.25 10.2002C2.25 7.41986 4.41136 5.14523 7.14551 4.96289C8.1483 3.33652 9.94643 2.25 12 2.25C14.4125 2.25 16.4721 3.74867 17.3047 5.86426C19.79 6.04583 21.75 8.11875 21.75 10.6504C21.7498 13.3011 19.6009 15.4501 16.9502 15.4502H7.5C4.60057 15.4502 2.25011 13.0996 2.25 10.2002ZM3.75 10.2002C3.75011 12.2712 5.429 13.9502 7.5 13.9502H16.9502C18.7725 13.9501 20.2498 12.4727 20.25 10.6504C20.25 8.82792 18.7726 7.34972 16.9502 7.34961C16.8995 7.34961 16.8489 7.35127 16.7988 7.35352C16.4508 7.36918 16.1375 7.14295 16.043 6.80762C15.5454 5.04258 13.9227 3.75 12 3.75C10.3686 3.75 8.95283 4.67982 8.25684 6.04199C8.12625 6.29753 7.86114 6.45676 7.57422 6.45117C7.54953 6.45069 7.52479 6.4502 7.5 6.4502C5.42893 6.4502 3.75 8.12913 3.75 10.2002Z" fill="#161616"/>
</svg>
