<svg width="24" height="24" viewBox="0 0 24 24" fill="none" xmlns="http://www.w3.org/2000/svg">
<path d="M19.3501 17.0627C19.3501 15.6876 18.2351 14.5725 16.8599 14.5725C16.6422 14.5725 16.4319 14.6007 16.2319 14.6526L16.0356 14.7122C15.6519 14.8468 15.2309 14.6508 15.0864 14.2708C14.6133 13.0255 13.4082 12.1428 11.9995 12.1428C10.591 12.143 9.38667 13.0256 8.91357 14.2708C8.76909 14.6509 8.34809 14.8468 7.96436 14.7122C7.70735 14.622 7.43033 14.5725 7.14014 14.5725C5.76495 14.5725 4.6499 15.6876 4.6499 17.0627C4.65003 18.4378 5.76503 19.553 7.14014 19.553H16.8599C18.235 19.553 19.35 18.4378 19.3501 17.0627ZM5.9458 9.83228V11.3323H3.1499V9.83228H5.9458ZM6.79541 10.5823C6.79557 8.37889 8.58128 6.59318 10.7847 6.59302C12.194 6.59302 13.432 7.32354 14.1411 8.42407L14.2759 8.64868L14.6401 9.30493L13.3276 10.0325L12.9644 9.37622L12.8794 9.2356C12.4353 8.54667 11.6625 8.09302 10.7847 8.09302C9.40971 8.09318 8.29557 9.20732 8.29541 10.5823V11.3323H6.79541V10.5823ZM7.75635 6.49341L6.6958 7.55396L4.71826 5.57642L5.77881 4.51587L7.75635 6.49341ZM16.8521 5.57642L14.8755 7.55396L13.8149 6.49341L15.7915 4.51587L16.8521 5.57642ZM10.0347 2.94751H11.5347V5.74341H10.0347V2.94751ZM20.8501 17.0627C20.85 19.2663 19.0634 21.053 16.8599 21.053H7.14014C4.9366 21.053 3.15003 19.2663 3.1499 17.0627C3.1499 14.8591 4.93652 13.0725 7.14014 13.0725C7.36337 13.0725 7.58255 13.0917 7.79639 13.1272C8.61325 11.6472 10.1877 10.643 11.9995 10.6428C13.8114 10.6428 15.3857 11.6473 16.2026 13.1272C16.4168 13.0916 16.6363 13.0725 16.8599 13.0725C19.0635 13.0725 20.8501 14.8591 20.8501 17.0627Z" fill="#161616"/>
</svg>
