<svg width="100%" height="100%" overflow="visible" style="display: block;" viewBox="0 0 23.6003 24.1406" fill="none" xmlns="http://www.w3.org/2000/svg">
<path id="Icon (Stroke)" d="M21.6003 18.8203C21.6003 16.9867 20.1135 15.5 18.2799 15.5C17.9897 15.5 17.7094 15.5375 17.4427 15.6068L17.181 15.6862C16.6694 15.8657 16.108 15.6044 15.9154 15.0977C15.2845 13.4373 13.6777 12.2604 11.7995 12.2604C9.92148 12.2606 8.31569 13.4375 7.6849 15.0977C7.49225 15.6045 6.93092 15.8657 6.41927 15.6862C6.0766 15.566 5.70724 15.5 5.32031 15.5C3.48673 15.5 2 16.9867 2 18.8203C2.00017 20.6538 3.48683 22.1406 5.32031 22.1406H18.2799C20.1134 22.1406 21.6001 20.6538 21.6003 18.8203ZM3.72786 9.17969V11.1797H0V9.17969H3.72786ZM4.86068 10.1797C4.86089 7.24184 7.24184 4.86089 10.1797 4.86068C12.0588 4.86068 13.7094 5.83471 14.6549 7.30208L14.8346 7.60156L15.3203 8.47656L13.5703 9.44661L13.0859 8.57161L12.9727 8.38411C12.3805 7.46555 11.3501 6.86068 10.1797 6.86068C8.34641 6.86089 6.86089 8.34641 6.86068 10.1797V11.1797H4.86068V10.1797ZM6.14193 4.72786L4.72786 6.14193L2.09115 3.50521L3.50521 2.09115L6.14193 4.72786ZM18.2695 3.50521L15.6341 6.14193L14.2201 4.72786L16.8555 2.09115L18.2695 3.50521ZM9.17969 0H11.1797V3.72786H9.17969V0ZM23.6003 18.8203C23.6001 21.7583 21.218 24.1406 18.2799 24.1406H5.32031C2.38226 24.1406 0.000168358 21.7583 0 18.8203C0 15.8822 2.38216 13.5 5.32031 13.5C5.61796 13.5 5.91019 13.5256 6.19531 13.5729C7.28446 11.5996 9.38369 10.2606 11.7995 10.2604C14.2153 10.2604 16.3144 11.5997 17.4036 13.5729C17.6892 13.5255 17.9819 13.5 18.2799 13.5C21.2181 13.5 23.6003 15.8822 23.6003 18.8203Z" fill="var(--fill-0, #161616)"/>
</svg>
