<svg width="24" height="24" viewBox="0 0 24 24" fill="none" xmlns="http://www.w3.org/2000/svg">
<path d="M5.80448 5.13076C9.4356 1.85033 15.0415 1.95953 18.5408 5.45889L18.8689 5.80459C22.0434 9.31846 22.0434 14.6814 18.8689 18.1952L18.5408 18.5409C15.0415 22.0403 9.43559 22.1495 5.80448 18.869L5.45878 18.5409C1.84642 14.9286 1.84642 9.07122 5.45878 5.45889L5.80448 5.13076ZM7.86112 12.3017C6.74915 13.6531 6.15378 15.4039 6.26737 17.2147C6.34915 17.3045 6.43257 17.3936 6.51932 17.4804L6.80839 17.7548C8.06184 18.8874 9.59657 19.5358 11.1726 19.704C9.46764 18.215 8.40374 16.0897 8.26249 13.8046C8.03262 13.3286 7.89855 12.8181 7.86112 12.3017ZM10.1912 15.7343C10.8052 17.3726 12.0229 18.7634 13.6473 19.5712C15.0516 19.267 16.3887 18.5719 17.4803 17.4804L17.7547 17.1913C17.9364 16.9902 18.1046 16.7809 18.2615 16.5663C16.1186 17.3001 13.7452 17.1576 11.6941 16.1366C11.1775 16.0987 10.6672 15.9648 10.1912 15.7343ZM19.0857 8.86025C18.6497 11.0826 17.3396 13.0672 15.4305 14.3329C15.2863 14.5445 15.122 14.7468 14.9344 14.9345C14.7462 15.1227 14.543 15.2871 14.3308 15.4315C16.0572 15.7186 17.87 15.3593 19.3816 14.3554C19.953 12.5595 19.8553 10.5982 19.0857 8.86025ZM9.66874 8.56631C7.9426 8.27936 6.12849 8.63877 4.61698 9.64248C4.04513 11.4385 4.1444 13.4004 4.91386 15.1386C5.35001 12.917 6.65896 10.9325 8.56718 9.66689C8.71152 9.45502 8.87729 9.25326 9.06522 9.06533C9.25369 8.87687 9.45621 8.71094 9.66874 8.56631ZM12.0252 9.35049C11.3386 9.34395 10.6497 9.60198 10.1258 10.1259C9.09088 11.1608 9.09089 12.839 10.1258 13.8739C11.1607 14.9088 12.8389 14.9088 13.8738 13.8739C13.991 13.7567 14.0927 13.6298 14.1834 13.4979C14.2087 13.4414 14.2428 13.3891 14.282 13.3397C14.7337 12.5716 14.7664 11.628 14.3777 10.8349C14.3483 10.7914 14.3244 10.7447 14.3045 10.6952C14.1892 10.4919 14.0471 10.2992 13.8738 10.1259C13.3909 9.643 12.7678 9.38762 12.1355 9.35537C12.0987 9.35603 12.0621 9.35536 12.0252 9.35049ZM12.826 4.29482C14.531 5.78337 15.5934 7.90848 15.7351 10.1933C15.9656 10.6696 16.0999 11.1802 16.1375 11.6972C17.2496 10.3455 17.8451 8.59522 17.7312 6.78408L17.4803 6.51943C16.1775 5.21661 14.5257 4.47602 12.826 4.29482ZM10.3514 4.42764C9.06884 4.70557 7.84275 5.31037 6.80839 6.24502L6.51932 6.51943C6.23104 6.80772 5.97047 7.11336 5.7371 7.43252C7.87959 6.69874 10.2536 6.84084 12.3045 7.86123C12.8207 7.899 13.3308 8.03355 13.8064 8.26357C13.192 6.6259 11.9755 5.23493 10.3514 4.42764Z" fill="#161616"/>
</svg>
