<svg width="24" height="24" viewBox="0 0 24 24" fill="none" xmlns="http://www.w3.org/2000/svg">
<path d="M19.8213 5.97949C19.8212 5.16245 19.1588 4.50013 18.3418 4.5H13.2939V19.5H18.3418C19.1588 19.4999 19.8212 18.8376 19.8213 18.0205V5.97949ZM10.5068 15.9326V17.4326H6.1084V15.9326H10.5068ZM18.8682 13.0342V14.5342H14.4697V13.0342H18.8682ZM18.8682 10.3584V11.8584H14.4697V10.3584H18.8682ZM7.55762 8.84766H6.1084V7.34766H7.55762V5.89844H9.05762V7.34766H10.5068V8.84766H9.05762V10.2969H7.55762V8.84766ZM4.82129 18.0205C4.82142 18.8376 5.48374 19.4999 6.30078 19.5H11.7939V12.9727H4.82129V18.0205ZM4.82129 11.4727H11.7939V4.5H6.30078C5.48374 4.50013 4.82142 5.16245 4.82129 5.97949V11.4727ZM21.3213 18.0205C21.3212 19.666 19.9873 20.9999 18.3418 21H6.30078C4.65531 20.9999 3.32142 19.666 3.32129 18.0205V5.97949C3.32142 4.33402 4.65531 3.00013 6.30078 3H18.3418C19.9873 3.00013 21.3212 4.33402 21.3213 5.97949V18.0205Z" fill="#161616"/>
</svg>
