<svg width="24" height="24" viewBox="0 0 24 24" fill="none" xmlns="http://www.w3.org/2000/svg">
<path d="M15.0273 13.5107C15.0273 11.9119 15.0272 10.7578 14.9531 9.85059C14.8889 9.06436 14.772 8.51405 14.5791 8.06543L14.4922 7.87891C14.0208 6.95378 13.2679 6.20185 12.3428 5.73047C11.8601 5.48461 11.2703 5.34294 10.3721 5.26953C9.46477 5.1954 8.31013 5.19434 6.71094 5.19434H3.5V3.69434H6.71094C8.28538 3.69434 9.51159 3.69414 10.4941 3.77441C11.4854 3.85541 12.295 4.02191 13.0244 4.39355L13.248 4.51367C14.3529 5.13284 15.2514 6.06641 15.8281 7.19824C16.1997 7.92763 16.3673 8.73728 16.4482 9.72852C16.5285 10.7109 16.5273 11.9367 16.5273 13.5107V17.7451L19.9697 14.3027L21.0303 15.3633L16.3086 20.0859C16.1679 20.2266 15.9763 20.3057 15.7773 20.3057C15.5786 20.3055 15.3876 20.2265 15.2471 20.0859L10.5254 15.3633L11.5859 14.3027L15.0273 17.7441V13.5107Z" fill="#161616"/>
</svg>
