<svg width="24" height="24" viewBox="0 0 24 24" fill="none" xmlns="http://www.w3.org/2000/svg">
<path d="M21.3105 16.375L19.2666 18.4189L21.3105 20.4639L20.25 21.5244L18.2051 19.4795L16.1611 21.5244L15.1006 20.4639L17.1445 18.4189L15.1006 16.375L16.1611 15.3145L18.2051 17.3584L20.25 15.3145L21.3105 16.375ZM14.4844 5.7666H8.91699V7.5332H7.41699V5.76855C6.95746 5.77054 6.60335 5.77686 6.31055 5.80078C6.0138 5.82504 5.8172 5.86426 5.66992 5.91699L5.53711 5.97363C5.22424 6.1331 4.96281 6.37609 4.78027 6.67383L4.70703 6.80469C4.62556 6.96471 4.56551 7.18209 4.5332 7.57715C4.50017 7.9814 4.5 8.25249 4.5 9.00684V9.31738H18.9014V9.00684C18.9014 8.25249 18.9002 7.9814 18.8672 7.57715C18.843 7.28096 18.8036 7.08467 18.751 6.9375L18.6943 6.80469C18.5348 6.49167 18.292 6.22946 17.9941 6.04688L17.8633 5.97363C17.7033 5.8922 17.4858 5.83308 17.0908 5.80078C16.798 5.77686 16.4438 5.77054 15.9844 5.76855V7.5332H14.4844V5.7666ZM20.4014 12.1426H18.9014V10.8174H4.5V16.4277C4.5 17.1822 4.50017 17.7031 4.5332 18.1074C4.56552 18.5029 4.62546 18.7208 4.70703 18.8809L4.78027 19.0117C4.96278 19.3092 5.22447 19.5516 5.53711 19.7109L5.66992 19.7676C5.81721 19.8203 6.01371 19.8605 6.31055 19.8848C6.71483 19.9178 7.23578 19.918 7.99023 19.918H12.8926V21.418H7.99023C7.26053 21.418 6.66801 21.4191 6.18848 21.3799C5.76125 21.345 5.37355 21.2748 5.01074 21.1191L4.85645 21.0479C4.29672 20.7627 3.82864 20.3284 3.50195 19.7959L3.37012 19.5615C3.16291 19.1548 3.07896 18.7177 3.03906 18.2295C2.99988 17.7499 3 17.1575 3 16.4277V9.00684C3 8.27722 2.99989 7.93457 3.03906 7.45508C3.07897 6.96692 3.16289 6.52975 3.37012 6.12305L3.50195 5.88965C3.82862 5.35696 4.29662 4.92299 4.85645 4.6377L5.01074 4.56543C5.37351 4.40984 5.76131 4.34057 6.18848 4.30566C6.53568 4.2773 6.94218 4.27055 7.41699 4.26855V2.5H8.91699V4.2666H14.4844V2.5H15.9844V4.26855C16.4591 4.27055 16.8657 4.2773 17.2129 4.30566C17.7011 4.34557 18.1382 4.43046 18.5449 4.6377L18.7793 4.76855C19.3117 5.09517 19.7451 5.56351 20.0303 6.12305L20.1025 6.27734C20.2582 6.64011 20.3274 7.02791 20.3623 7.45508C20.4015 7.93457 20.4014 8.27722 20.4014 9.00684V12.1426Z" fill="#161616"/>
</svg>
