<svg width="24" height="24" viewBox="0 0 24 24" fill="none" xmlns="http://www.w3.org/2000/svg">
<path d="M3.07129 12C3.07129 6.89137 7.21266 2.75 12.3213 2.75C13.59 2.75 14.8009 3.00536 15.9033 3.46875L16.3682 3.68066L17.043 4.00879L16.3857 5.35742L15.7119 5.02832L15.3223 4.85254C14.4 4.4648 13.3866 4.25 12.3213 4.25C8.04108 4.25 4.57129 7.71979 4.57129 12C4.57129 16.2802 8.04108 19.75 12.3213 19.75C16.6015 19.75 20.0713 16.2802 20.0713 12V11.25H21.5713V12C21.5713 17.1086 17.4299 21.25 12.3213 21.25C7.21266 21.25 3.07129 17.1086 3.07129 12ZM20.2881 6.6875L12.3203 14.6553C12.0274 14.9482 11.5527 14.9482 11.2598 14.6553L8.60449 12L9.66504 10.9395L11.79 13.0645L19.2275 5.62695L20.2881 6.6875Z" fill="#161616"/>
</svg>
