<svg width="24" height="24" viewBox="0 0 24 24" fill="none" xmlns="http://www.w3.org/2000/svg">
<path d="M22.8281 14.874V16.374H16.6338V14.874H22.8281ZM19.9453 7.59375C19.8702 6.85647 19.2478 6.28125 18.4902 6.28125H5.21289C4.40497 6.28129 3.75004 6.93623 3.75 7.74414V8.65332H19.9531V7.74414L19.9453 7.59375ZM21.4531 12.3672H19.9531V10.1533H3.75V16.043C3.75017 16.8507 4.40517 17.5057 5.21289 17.5059H14.8145V19.0059H5.21289C3.57675 19.0057 2.25017 17.6791 2.25 16.043V7.74414C2.25004 6.1078 3.57654 4.78129 5.21289 4.78125H18.4902C20.1264 4.78125 21.4531 6.10744 21.4531 7.74414V12.3672Z" fill="#161616"/>
</svg>
