<svg width="24" height="24" viewBox="0 0 24 24" fill="none" xmlns="http://www.w3.org/2000/svg">
<path d="M19.75 9.34595C19.75 9.03065 19.7491 8.92708 19.7412 8.8479C19.6567 7.99428 18.9815 7.31842 18.128 7.23364C18.049 7.22582 17.9383 7.22485 17.6055 7.22485C17.4955 7.22485 17.4069 7.22577 17.3272 7.22095C16.3824 7.16373 15.5552 6.56689 15.2022 5.68872C15.1725 5.61489 15.146 5.53484 15.1133 5.43677C15.0744 5.32013 15.0643 5.29229 15.0557 5.27075C14.9188 4.93039 14.5986 4.69929 14.2324 4.677C14.2092 4.6756 14.1791 4.67505 14.0557 4.67505H9.94436C9.82099 4.67505 9.79081 4.6756 9.7676 4.677C9.40144 4.69929 9.08125 4.93039 8.94436 5.27075C8.9357 5.29229 8.92563 5.32012 8.88675 5.43677C8.85405 5.53484 8.82755 5.61489 8.79788 5.68872C8.44484 6.56689 7.61762 7.16373 6.67288 7.22095C6.5932 7.22577 6.50458 7.22485 6.39456 7.22485C6.06171 7.22485 5.95105 7.22582 5.8721 7.23364C5.01854 7.31842 4.34339 7.99428 4.25882 8.8479C4.251 8.92708 4.25003 9.03065 4.25003 9.34595V15.9954C4.25003 16.7215 4.2506 17.2211 4.28225 17.6086C4.3132 17.9874 4.37023 18.1927 4.44632 18.342C4.61885 18.6807 4.89385 18.9566 5.23245 19.1292C5.38178 19.2052 5.58725 19.2623 5.96585 19.2932C6.35344 19.3249 6.85366 19.3254 7.5801 19.3254H16.4199C17.1464 19.3254 17.6466 19.3249 18.0342 19.2932C18.4128 19.2623 18.6183 19.2052 18.7676 19.1292C19.1062 18.9566 19.3812 18.6807 19.5537 18.342C19.6298 18.1927 19.6869 17.9874 19.7178 17.6086C19.7495 17.2211 19.75 16.7215 19.75 15.9954V9.34595ZM14.6504 12.8499C14.6503 11.3864 13.4635 10.2004 12 10.2004C10.5365 10.2004 9.34974 11.3864 9.34964 12.8499C9.34964 14.3134 10.5365 15.5002 12 15.5002C13.4636 15.5002 14.6504 14.3134 14.6504 12.8499ZM16.1504 12.8499C16.1504 15.1418 14.292 17.0002 12 17.0002C9.70805 17.0002 7.84964 15.1418 7.84964 12.8499C7.84974 10.558 9.70811 8.70044 12 8.70044C14.2919 8.70044 16.1503 10.558 16.1504 12.8499ZM21.25 15.9954C21.25 16.6968 21.2507 17.268 21.2129 17.7307C21.1744 18.2023 21.0925 18.6276 20.8907 19.0237C20.5743 19.6444 20.069 20.1487 19.4483 20.4651C19.0523 20.6669 18.6277 20.7488 18.1563 20.7874C17.6934 20.8252 17.1216 20.8254 16.4199 20.8254H7.5801C6.87841 20.8254 6.30662 20.8252 5.84378 20.7874C5.37233 20.7488 4.94777 20.6669 4.55178 20.4651C3.93101 20.1487 3.42576 19.6444 3.1094 19.0237C2.90758 18.6276 2.82567 18.2023 2.78714 17.7307C2.74935 17.268 2.75003 16.6968 2.75003 15.9954V9.34595C2.75003 9.06613 2.74865 8.87105 2.76565 8.69946C2.92081 7.13433 4.15948 5.89656 5.72464 5.74146C5.89643 5.72443 6.1 5.72485 6.39456 5.72485C6.52623 5.72485 6.55907 5.72429 6.58206 5.7229C6.94839 5.70071 7.26938 5.46967 7.40628 5.12915C7.41492 5.10762 7.42506 5.07963 7.46389 4.96313C7.49659 4.86505 7.5221 4.78503 7.55178 4.71118C7.90477 3.83314 8.73222 3.23731 9.67678 3.17993C9.75626 3.17512 9.84092 3.17505 9.94436 3.17505H14.0557C14.1591 3.17505 14.2438 3.17512 14.3233 3.17993C15.2678 3.23731 16.0953 3.83314 16.4483 4.71118C16.4779 4.78502 16.5035 4.86504 16.5362 4.96313C16.575 5.07962 16.5851 5.10762 16.5938 5.12915C16.7307 5.46967 17.0517 5.70071 17.418 5.7229C17.441 5.72429 17.4738 5.72485 17.6055 5.72485C17.9 5.72485 18.1036 5.72443 18.2754 5.74146C19.8406 5.89655 21.0792 7.13433 21.2344 8.69946C21.2514 8.87105 21.25 9.06613 21.25 9.34595V15.9954Z" fill="#161616"/>
</svg>
