<svg width="24" height="24" viewBox="0 0 24 24" fill="none" xmlns="http://www.w3.org/2000/svg">
<path d="M15.0273 10.4893V6.25586L11.5859 9.69727L10.5254 8.63574L15.2471 3.91406L15.3613 3.82031C15.4836 3.73873 15.6282 3.69442 15.7773 3.69434C15.9763 3.69434 16.1679 3.77341 16.3086 3.91406L21.0303 8.63574L19.9697 9.69727L16.5273 6.25488L16.5264 11.6055C16.5228 12.6606 16.5084 13.5345 16.4482 14.2715C16.3672 15.2628 16.1998 16.0723 15.8281 16.8018C15.2129 18.0091 14.2318 18.9913 13.0244 19.6064C12.295 19.9781 11.4854 20.1446 10.4941 20.2256C9.51159 20.3059 8.28538 20.3057 6.71094 20.3057H3.5V18.8057H6.71094L7.83008 18.8037C8.87196 18.8001 9.69157 18.7861 10.3721 18.7305C11.2703 18.6571 11.8601 18.5154 12.3428 18.2695C13.2679 17.7982 14.0208 17.0462 14.4922 16.1211L14.5791 15.9346C14.7721 15.4859 14.8889 14.9357 14.9531 14.1494C15.0272 13.2422 15.0273 12.0881 15.0273 10.4893Z" fill="#161616"/>
</svg>
