<svg width="24" height="24" viewBox="0 0 24 24" fill="none" xmlns="http://www.w3.org/2000/svg">
<path d="M12.0088 20.0249L12.0859 20.0288C12.464 20.0673 12.7587 20.3867 12.7588 20.7749C12.7588 21.1631 12.464 21.4825 12.0859 21.521L12.0088 21.5249H12C11.5858 21.5249 11.25 21.1891 11.25 20.7749C11.2501 20.3608 11.5859 20.0249 12 20.0249H12.0088ZM8.40918 19.5747L8.48535 19.5786C8.86359 19.6168 9.15898 19.9364 9.15918 20.3247C9.15918 20.7131 8.86368 21.0325 8.48535 21.0708L8.40918 21.0747H8.40039C7.98618 21.0747 7.65039 20.7389 7.65039 20.3247C7.6506 19.9107 7.98631 19.5747 8.40039 19.5747H8.40918ZM15.6094 19.5747L15.6855 19.5786C16.0637 19.6169 16.3592 19.9365 16.3594 20.3247C16.3594 20.7131 16.0638 21.0324 15.6855 21.0708L15.6094 21.0747H15.5996C15.1856 21.0745 14.8496 20.7388 14.8496 20.3247C14.8498 19.9108 15.1857 19.5749 15.5996 19.5747H15.6094ZM12.0088 17.3247L12.0859 17.3286C12.4639 17.3671 12.7586 17.6866 12.7588 18.0747C12.7588 18.4629 12.464 18.7823 12.0859 18.8208L12.0088 18.8247H12C11.5858 18.8247 11.25 18.4889 11.25 18.0747C11.2502 17.6607 11.5859 17.3247 12 17.3247H12.0088ZM8.40918 16.8755C8.82331 16.8756 9.15918 17.2113 9.15918 17.6255C9.15897 18.0395 8.82318 18.3754 8.40918 18.3755H8.40039C7.98631 18.3755 7.6506 18.0395 7.65039 17.6255C7.65039 17.2113 7.98618 16.8755 8.40039 16.8755H8.40918ZM15.6094 16.8755C16.0234 16.8757 16.3594 17.2114 16.3594 17.6255C16.3592 18.0394 16.0233 18.3753 15.6094 18.3755H15.5996C15.1857 18.3753 14.8498 18.0394 14.8496 17.6255C14.8496 17.2114 15.1856 16.8757 15.5996 16.8755H15.6094ZM2.25 10.4253C2.25 7.64496 4.41136 5.37032 7.14551 5.18799C8.1483 3.56162 9.94643 2.4751 12 2.4751C14.4125 2.4751 16.4721 3.97376 17.3047 6.08936C19.79 6.27093 21.75 8.34385 21.75 10.8755C21.7498 13.5262 19.6009 15.6752 16.9502 15.6753H7.5C4.60057 15.6753 2.25011 13.3247 2.25 10.4253ZM3.75 10.4253C3.75011 12.4963 5.429 14.1753 7.5 14.1753H16.9502C18.7725 14.1752 20.2498 12.6978 20.25 10.8755C20.25 9.05301 18.7726 7.57481 16.9502 7.57471C16.8995 7.57471 16.8489 7.57636 16.7988 7.57861C16.4508 7.59427 16.1375 7.36805 16.043 7.03271C15.5454 5.26768 13.9227 3.9751 12 3.9751C10.3686 3.9751 8.95283 4.90492 8.25684 6.26709C8.12625 6.52263 7.86114 6.68185 7.57422 6.67627C7.54953 6.67579 7.52479 6.67529 7.5 6.67529C5.42893 6.67529 3.75 8.35423 3.75 10.4253Z" fill="#161616"/>
</svg>
