<svg width="24" height="24" viewBox="0 0 24 24" fill="none" xmlns="http://www.w3.org/2000/svg">
<path d="M18.2402 13.0781H19.7402V17.042L21.2559 15.5332L22.3135 16.5967L19.5195 19.377C19.2271 19.668 18.7546 19.6687 18.4619 19.3779L15.7676 16.6992L16.8252 15.6348L17.3564 16.1641L18.2402 17.042V13.0781ZM19.9424 7.59375C19.8675 6.85649 19.2448 6.28125 18.4873 6.28125H5.21289C4.40511 6.28125 3.74998 6.93636 3.75 7.74414V8.65332H19.9502V7.74316L19.9424 7.59375ZM21.4502 12.3662H19.9502V10.1533H3.75V16.041C3.75008 16.8487 4.40518 17.5039 5.21289 17.5039H14.8125V19.0039H5.21289C3.57676 19.0039 2.25008 17.6771 2.25 16.041V7.74414C2.24995 6.10792 3.57667 4.78125 5.21289 4.78125H18.4873C20.1232 4.78125 21.4501 6.10674 21.4502 7.74316V12.3662Z" fill="#161616"/>
</svg>
