<svg width="24" height="24" viewBox="0 0 24 24" fill="none" xmlns="http://www.w3.org/2000/svg">
<path d="M13.2715 15.4004C13.2715 15.0519 13.2293 14.7135 13.1523 14.3896C12.8808 14.4283 12.6035 14.4502 12.3213 14.4502C10.1089 14.4502 8.18361 13.2218 7.18945 11.4102C5.64878 12.0798 4.57129 13.6145 4.57129 15.4004C4.5715 17.8025 6.51877 19.7498 8.9209 19.75C11.3232 19.75 13.2713 17.8027 13.2715 15.4004ZM14.7715 15.4004C14.7714 16.8077 14.2733 18.0982 13.4453 19.1074C14.1074 19.5149 14.8867 19.75 15.7217 19.75C18.1238 19.7498 20.0711 17.8025 20.0713 15.4004C20.0713 13.6142 18.9933 12.0796 17.4521 11.4102C16.821 12.56 15.8153 13.4745 14.5986 13.9893C14.7107 14.4417 14.7715 14.9145 14.7715 15.4004ZM16.6709 8.59961C16.6707 6.19735 14.7236 4.25 12.3213 4.25C9.91898 4.25 7.97189 6.19735 7.97168 8.59961C7.97168 11.002 9.91885 12.9502 12.3213 12.9502C14.7237 12.9502 16.6709 11.002 16.6709 8.59961ZM18.1709 8.59961C18.1709 9.08617 18.11 9.55878 17.998 10.0107C20.0973 10.8987 21.5713 12.9765 21.5713 15.4004C21.5711 18.631 18.9522 21.2498 15.7217 21.25C14.4536 21.25 13.2796 20.844 12.3213 20.1582C11.3628 20.8443 10.1895 21.25 8.9209 21.25C5.69034 21.2498 3.0715 18.6309 3.07129 15.4004C3.07129 12.9768 4.54472 10.8989 6.64355 10.0107C6.53164 9.55885 6.47168 9.08609 6.47168 8.59961C6.47189 5.36892 9.09055 2.75 12.3213 2.75C15.552 2.75 18.1707 5.36892 18.1709 8.59961Z" fill="#161616"/>
</svg>
