<svg width="24" height="24" viewBox="0 0 24 24" fill="none" xmlns="http://www.w3.org/2000/svg">
<path d="M1.79004 12C1.79004 6.89137 5.9314 2.75 11.04 2.75C16.1487 2.75 20.29 6.89137 20.29 12H18.79C18.79 7.71979 15.3202 4.25 11.04 4.25C6.75983 4.25 3.29004 7.71979 3.29004 12C3.29004 16.2802 6.75983 19.75 11.04 19.75C11.5376 19.75 12.0237 19.7035 12.4941 19.6143L12.7734 21.0879C12.2114 21.1945 11.6319 21.25 11.04 21.25C5.9314 21.25 1.79004 17.1086 1.79004 12ZM18.6963 15.1875V17.0938H20.6025V18.5938H18.6963V20.5H17.1963V18.5938H15.29V17.0938H17.1963V15.1875H18.6963ZM11.79 8.62012V12.5215L14.4648 13.4131L13.9902 14.8369L10.8027 13.7744C10.4965 13.6723 10.29 13.3853 10.29 13.0625V8.62012H11.79Z" fill="#161616"/>
</svg>
