<svg width="24" height="24" viewBox="0 0 24 24" fill="none" xmlns="http://www.w3.org/2000/svg">
<path d="M19.2188 12.5771C19.5133 12.3367 19.948 12.3542 20.2227 12.6289L22.876 15.2822C23.0165 15.4229 23.0957 15.6137 23.0957 15.8125C23.0956 16.0113 23.0165 16.2022 22.876 16.3428L18.8965 20.3223C18.7559 20.4629 18.565 20.5419 18.3662 20.542H15.7129C15.2987 20.542 14.9629 20.2062 14.9629 19.792V17.1387C14.9629 16.9398 15.042 16.749 15.1826 16.6084L19.1621 12.6289L19.2188 12.5771ZM16.4629 17.4492V19.042H18.0557L21.2852 15.8125L19.6924 14.2197L16.4629 17.4492ZM19.9307 7.5918C19.8559 6.8557 19.2344 6.28145 18.4775 6.28125H5.21191C4.40507 6.28127 3.751 6.93535 3.75098 7.74219V8.65039H19.9385V7.74121L19.9307 7.5918ZM21.4385 9.40039C21.4385 9.59926 21.3594 9.79003 21.2188 9.93066C21.0781 10.0713 20.8873 10.1503 20.6885 10.1504H3.75098V16.0332C3.751 16.84 4.40518 17.494 5.21191 17.4941H13.1475V18.9941H5.21191C3.57677 18.994 2.25102 17.6684 2.25098 16.0332V7.74219C2.251 6.10692 3.57664 4.78127 5.21191 4.78125H18.4775C20.1122 4.78146 21.4385 6.1054 21.4385 7.74121V9.40039Z" fill="#161616"/>
</svg>
