<svg width="24" height="24" viewBox="0 0 24 24" fill="none" xmlns="http://www.w3.org/2000/svg">
<path d="M3.98529 14.3418V6.4203C3.98529 5.46328 4.7611 4.68747 5.71811 4.68747H12.5798C13.3193 4.68747 13.9191 5.28731 13.9191 6.02674H15.4044C15.4044 4.46701 14.1396 3.20218 12.5798 3.20218H5.71811C3.94079 3.20218 2.5 4.64298 2.5 6.4203V14.3418C2.5 16.1192 3.94079 17.56 5.71811 17.56H7.34748V16.0747H5.71811C4.7611 16.0747 3.98529 15.2989 3.98529 14.3418Z" fill="#161616"/>
<path d="M10.811 19.3125V20.7978H19.0245V19.3125H10.811ZM9.8198 18.3214V9.49572C9.8198 8.94885 10.2641 8.50553 10.811 8.50553H19.0245C19.5714 8.50553 20.0147 8.94885 20.0147 9.49572V18.3214C20.0147 18.8683 19.5714 19.3125 19.0245 19.3125V20.7978L19.2779 20.7843C20.526 20.6574 21.5 19.603 21.5 18.3214L21.5 9.49572C21.5 8.12855 20.3917 7.02024 19.0245 7.02024H10.811C9.44379 7.02024 8.33451 8.12855 8.33451 9.49572V18.3214L8.34805 18.5747C8.46628 19.74 9.39238 20.6661 10.5576 20.7843L10.811 20.7978V19.3125C10.2641 19.3125 9.8198 18.8683 9.8198 18.3214Z" fill="#161616"/>
</svg>
