<svg width="24" height="24" viewBox="0 0 24 24" fill="none" xmlns="http://www.w3.org/2000/svg">
<path d="M19.5001 5.56043L16.4171 8.64344V18.4384L19.2902 15.5653C19.3739 15.4816 19.4198 15.4359 19.4523 15.4003C19.4797 15.3701 19.4806 15.366 19.4757 15.3739C19.4848 15.3591 19.4912 15.3429 19.4952 15.3261C19.4959 15.3208 19.4973 15.3094 19.4982 15.2899C19.5004 15.2418 19.5001 15.1776 19.5001 15.0595V5.56043ZM4.50013 19.4999H14.9171V9.08289H4.50013V19.4999ZM8.71009 4.50184C8.6906 4.50273 8.67924 4.50415 8.67396 4.50477C8.65711 4.50885 8.64089 4.51525 8.6261 4.5243C8.63405 4.51942 8.62987 4.52027 8.59974 4.54774C8.56412 4.58024 8.51845 4.6261 8.4347 4.70984L5.56165 7.58289H15.3566L18.4396 4.49988H8.94056C8.82243 4.49988 8.75821 4.49965 8.71009 4.50184ZM21.0001 15.0595C21.0001 15.2478 21.005 15.464 20.9542 15.6757C20.9134 15.8457 20.8464 16.009 20.755 16.1581C20.6412 16.3439 20.484 16.4936 20.3507 16.6268L16.6271 20.3505C16.4938 20.4837 16.3441 20.6409 16.1583 20.7548C16.0092 20.8461 15.846 20.9132 15.6759 20.954C15.4643 21.0047 15.248 20.9999 15.0597 20.9999H4.48353C4.36756 20.9999 4.23528 21.0004 4.12122 20.9911C4.02907 20.9836 3.91252 20.9674 3.78724 20.9227L3.66028 20.868C3.43292 20.7522 3.24781 20.5671 3.13196 20.3397C3.04427 20.1675 3.01895 20.0015 3.00892 19.8788C2.9996 19.7647 3.00013 19.6325 3.00013 19.5165V8.94031C3.00012 8.75199 2.99527 8.53575 3.04603 8.3241C3.08685 8.15404 3.15386 7.9908 3.24525 7.84168C3.3591 7.65592 3.51626 7.50621 3.64954 7.37293L7.37318 3.6493L7.58802 3.44031C7.66538 3.37023 7.74895 3.30199 7.84193 3.245C7.99105 3.15362 8.15429 3.08661 8.32435 3.04578C8.53599 2.99502 8.75223 2.99988 8.94056 2.99988H19.5167C19.6327 2.99988 19.765 2.99935 19.879 3.00867C19.9712 3.01621 20.0877 3.0324 20.213 3.07703L20.34 3.13172L20.5021 3.23133C20.6044 3.30572 20.6943 3.39562 20.7687 3.49793L20.8683 3.66004L20.923 3.78699C20.9676 3.91228 20.9838 4.02882 20.9913 4.12098C21.0007 4.23503 21.0001 4.36731 21.0001 4.48328V15.0595Z" fill="#161616"/>
</svg>
