<svg width="24" height="24" viewBox="0 0 24 24" fill="none" xmlns="http://www.w3.org/2000/svg">
<path d="M8.86035 5.9499C8.28326 5.9499 8.03885 5.95701 7.89551 5.9831L7.77734 6.0163C7.66663 6.0599 7.56517 6.12329 7.47852 6.2038L7.39648 6.29072C7.30312 6.40244 7.2342 6.56763 6.99121 7.29658L6.23438 9.56415C6.61818 9.54927 7.06392 9.54951 7.58008 9.54951H16.4199C16.9356 9.54951 17.3811 9.54931 17.7646 9.56415L17.0088 7.29658C16.8264 6.74954 16.7419 6.52006 16.6719 6.39228L16.6035 6.29072C16.527 6.19922 16.4341 6.12294 16.3301 6.06611L16.2227 6.0163C16.0871 5.96299 15.9085 5.9499 15.1396 5.9499H8.86035ZM17 17.1003C17.0002 17.6248 17.4257 18.0495 17.9502 18.0495H18.375C18.8058 18.0495 18.9118 18.0465 18.9854 18.0319C19.3622 17.957 19.6565 17.6617 19.7314 17.2849L19.7461 17.114C19.7488 17.0244 19.75 16.8899 19.75 16.6745V14.3796C19.75 13.6534 19.7494 13.1538 19.7178 12.7663C19.6868 12.3876 19.6298 12.1823 19.5537 12.0329C19.4027 11.7366 19.1735 11.4881 18.8916 11.3151L18.7676 11.2458C18.6182 11.1697 18.4128 11.1127 18.0342 11.0817C17.6466 11.0501 17.1464 11.0495 16.4199 11.0495H7.58008C6.85364 11.0495 6.35341 11.0501 5.96582 11.0817C5.58723 11.1127 5.38176 11.1697 5.23242 11.2458C4.89382 11.4184 4.61883 11.6943 4.44629 12.0329C4.3702 12.1823 4.31317 12.3876 4.28223 12.7663C4.25058 13.1538 4.25 13.6534 4.25 14.3796V16.6745C4.25 17.1048 4.25398 17.2114 4.26855 17.2849L4.30664 17.4226C4.41844 17.7323 4.68497 17.9663 5.01465 18.0319L5.18555 18.0466C5.27508 18.0493 5.40935 18.0495 5.625 18.0495H6.0498C6.57434 18.0495 6.99979 17.6248 7 17.1003C7 16.4514 7.52596 15.9246 8.1748 15.9245H15.8252C16.474 15.9246 17 16.4514 17 17.1003ZM21.25 16.6745C21.25 16.9437 21.2518 17.1739 21.2314 17.3796L21.2031 17.5778C21.0098 18.5496 20.25 19.3092 19.2783 19.5026C19.0234 19.5533 18.734 19.5495 18.375 19.5495H17.9502C16.7073 19.5495 15.6834 18.624 15.5244 17.4245H8.47559C8.31661 18.624 7.29271 19.5495 6.0498 19.5495H5.625C5.35565 19.5495 5.12565 19.5523 4.91992 19.5319L4.72168 19.5026C3.8107 19.3213 3.08612 18.6424 2.83984 17.7575L2.79688 17.5778C2.74618 17.3229 2.75 17.0335 2.75 16.6745V14.3796C2.75 13.6782 2.74932 13.107 2.78711 12.6442C2.82564 12.1726 2.90756 11.7474 3.10938 11.3513C3.28517 11.0063 3.52107 10.699 3.80078 10.4382L3.16504 10.1208L2.49414 9.78486L3.16504 8.44404L4.76172 9.24189L5.56836 6.82294C5.77106 6.21485 5.92604 5.71055 6.24609 5.32783L6.34766 5.21357C6.59384 4.95405 6.89448 4.7512 7.22852 4.61982L7.40527 4.56025C7.82595 4.44021 8.29935 4.44989 8.86035 4.4499H15.1396C15.7806 4.44989 16.3072 4.43722 16.7715 4.61982L16.9121 4.68036C17.2361 4.83179 17.5236 5.05258 17.7539 5.32783L17.8672 5.47724C18.1139 5.83832 18.2543 6.29091 18.4316 6.82294L19.2354 9.23505L20.127 8.78193L20.7949 8.44111L21.4766 9.77704L20.1914 10.4313C20.4745 10.6937 20.7132 11.0032 20.8906 11.3513C21.0924 11.7474 21.1744 12.1726 21.2129 12.6442C21.2507 13.107 21.25 13.6782 21.25 14.3796V16.6745Z" fill="#161616"/>
<path d="M18.3838 12.2573V13.7573H14.25V12.2573H18.3838Z" fill="#161616"/>
<path d="M9.38369 12.2573V13.7573H5.2499V12.2573H9.38369Z" fill="#161616"/>
</svg>
