<svg width="24" height="24" viewBox="0 0 24 24" fill="none" xmlns="http://www.w3.org/2000/svg">
<path d="M1.78999 12C1.78999 6.89137 5.93136 2.75 11.04 2.75C16.1486 2.75 20.29 6.89137 20.29 12H18.79C18.79 7.71979 15.3202 4.25 11.04 4.25C6.75979 4.25 3.28999 7.71979 3.28999 12C3.28999 16.2802 6.75979 19.75 11.04 19.75C11.5376 19.75 12.0237 19.7035 12.4941 19.6143L12.7734 21.0879C12.2114 21.1945 11.6318 21.25 11.04 21.25C5.93136 21.25 1.78999 17.1086 1.78999 12ZM11.79 8.62012V12.5215L14.4648 13.4131L13.9902 14.8369L10.8027 13.7744C10.4964 13.6723 10.29 13.3853 10.29 13.0625V8.62012H11.79Z" fill="#161616"/>
<path d="M20.7736 17.2254C21.0123 17.5194 20.9954 17.9521 20.7229 18.2264L18.5422 20.4197L17.4787 19.3621L18.3879 18.4481H14.5813V16.9481H18.3869L17.3752 15.9324L18.4387 14.8739L20.7219 17.1688L20.7736 17.2254Z" fill="#161616"/>
</svg>
