<svg width="24" height="24" viewBox="0 0 24 24" fill="none" xmlns="http://www.w3.org/2000/svg">
<path d="M21.0005 9.75684V11.2568H17.2671V9.75684H21.0005ZM19.2407 5.82715L16.6997 8.375L15.6372 7.31641L17.6489 5.29883L18.1792 4.76855L19.2407 5.82715ZM12.772 3H14.272V6.74316H12.772V3ZM14.3423 15.5H12.8423V13.752C12.1098 14.3418 11.1842 14.7254 10.2153 14.9727C8.23017 15.4792 5.80285 15.5 3.75049 15.5C3.33635 15.4999 3.00052 15.1641 3.00049 14.75C3.00049 14.3358 3.33633 14.0001 3.75049 14C5.83854 14 8.07393 13.9716 9.84521 13.5195C11.2058 13.1722 12.1341 12.6208 12.5796 11.7637H9.73779V10.2637H13.5923C14.0065 10.2637 14.3423 10.5995 14.3423 11.0137V15.5Z" fill="#161616"/>
<path d="M3.00049 18.25V5.75C3.00049 4.23122 4.23171 3 5.75049 3H10.0308V4.5H5.75049C5.06013 4.5 4.50049 5.05964 4.50049 5.75V18.25C4.50053 18.9403 5.06016 19.5 5.75049 19.5H18.2505C18.9408 19.5 19.5004 18.9403 19.5005 18.25V12.6338H21.0005V18.25C21.0004 19.7687 19.7692 21 18.2505 21H5.75049C4.23173 21 3.00053 19.7687 3.00049 18.25Z" fill="#161616"/>
</svg>
