<svg width="24" height="24" viewBox="0 0 24 24" fill="none" xmlns="http://www.w3.org/2000/svg">
<path d="M20.5713 8.40039C20.5713 7.82056 20.1013 7.34972 19.5215 7.34961H13.2217C12.6418 7.34961 12.1709 7.82049 12.1709 8.40039V19.2002C12.171 19.78 12.6418 20.25 13.2217 20.25H19.5215C20.1012 20.2499 20.5712 19.7799 20.5713 19.2002V8.40039ZM16.9824 12L15.9316 13.0498H18.9209V14.5498H15.9316L16.9824 15.5996L15.9209 16.6611L13.5908 14.3301C13.4503 14.1894 13.3711 13.9986 13.3711 13.7998C13.3711 13.601 13.4502 13.4101 13.5908 13.2695L15.9209 10.9395L16.9824 12ZM12.4717 4.7998C12.4716 4.22 12.0007 3.75 11.4209 3.75H5.12109C4.54135 3.75011 4.07139 4.22006 4.07129 4.7998V15.5996C4.07129 16.1794 4.54128 16.6503 5.12109 16.6504H10.6709V10.6484C10.6497 10.6767 10.6273 10.7048 10.6016 10.7305L8.27148 13.0605L7.21094 12L8.26074 10.9502H5.27148V9.4502H8.26074L7.21094 8.40039L8.27148 7.33887L10.6016 9.66992C10.6269 9.6953 10.6499 9.72213 10.6709 9.75V8.40039C10.6709 7.25293 11.4292 6.28206 12.4717 5.96191V4.7998ZM13.9717 5.84961H19.5215C20.9297 5.84972 22.0713 6.99213 22.0713 8.40039V19.2002C22.0712 20.6084 20.9297 21.7499 19.5215 21.75H13.2217C11.8134 21.75 10.671 20.6084 10.6709 19.2002V18.1504H5.12109C3.71286 18.1503 2.57129 17.0079 2.57129 15.5996V4.7998C2.57139 3.39163 3.71292 2.25011 5.12109 2.25H11.4209C12.8292 2.25 13.9716 3.39157 13.9717 4.7998V5.84961Z" fill="#161616"/>
</svg>
