<svg width="24" height="24" viewBox="0 0 24 24" fill="none" xmlns="http://www.w3.org/2000/svg">
<path d="M19.8203 16.6437C19.8203 14.928 18.4286 13.5372 16.7129 13.5372C16.4223 13.5373 16.1421 13.5766 15.877 13.6505C15.539 13.7447 15.1807 13.5924 15.0146 13.2833C14.2729 11.9024 12.8165 10.9659 11.1426 10.9659C9.21598 10.966 7.57765 12.2072 6.98633 13.9357C6.89746 14.1955 6.67303 14.3865 6.40234 14.4327C5.14034 14.6485 4.17969 15.749 4.17969 17.0724C4.17985 18.5512 5.37862 19.75 6.85742 19.7501H16.7129C18.4286 19.7501 19.8203 18.3593 19.8203 16.6437ZM21.3203 16.6437C21.3203 19.1878 19.257 21.2501 16.7129 21.2501H6.85742C4.5502 21.25 2.67985 19.3796 2.67969 17.0724C2.67969 15.1594 3.96485 13.548 5.71875 13.0519C6.5461 11.1085 8.38831 9.70066 10.5811 9.49328C10.4593 9.04001 10.3926 8.56409 10.3926 8.07336C10.3926 5.51291 12.1536 3.36569 14.5293 2.77258C14.7848 2.70883 15.055 2.78367 15.2412 2.96985C15.4274 3.15605 15.5022 3.42629 15.4385 3.68176C15.3618 3.98924 15.3213 4.31165 15.3213 4.64465C15.3213 6.8336 17.0953 8.60842 19.2842 8.60852C19.6175 8.60852 19.9403 8.56719 20.248 8.49035C20.5035 8.42656 20.7737 8.50239 20.96 8.6886C21.1461 8.87479 21.221 9.14507 21.1572 9.40051C20.8271 10.7231 20.0147 11.8541 18.918 12.5978C20.3491 13.3793 21.3203 14.8982 21.3203 16.6437ZM11.8926 8.07336C11.8926 8.60055 11.9967 9.10197 12.1826 9.56067C13.7658 9.84278 15.1275 10.7558 16.002 12.0304C17.3851 11.9804 18.5854 11.2235 19.2549 10.1075C16.2606 10.0917 13.8368 7.66828 13.8213 4.67395C12.6665 5.36682 11.8926 6.62948 11.8926 8.07336Z" fill="#161616"/>
</svg>
