<svg width="24" height="24" viewBox="0 0 24 24" fill="none" xmlns="http://www.w3.org/2000/svg">
<path d="M20.75 14.3752C20.75 12.5399 19.3463 11.0314 17.5547 10.8655C17.215 10.8339 16.9391 10.5761 16.8838 10.2395C16.4975 7.89135 14.4574 6.09985 12 6.09985C9.5426 6.09985 7.50247 7.89135 7.11621 10.2395C7.06087 10.5761 6.78497 10.8339 6.44531 10.8655C4.65366 11.0314 3.25 12.5399 3.25 14.3752C3.25021 16.3219 4.82872 17.8997 6.77539 17.8997H17.2246C19.1713 17.8997 20.7498 16.3219 20.75 14.3752ZM22.25 14.3752C22.2498 17.1503 19.9997 19.3997 17.2246 19.3997H6.77539C4.00029 19.3997 1.75021 17.1503 1.75 14.3752C1.75 11.9515 3.46559 9.92929 5.74902 9.45532C6.45908 6.6642 8.98772 4.59985 12 4.59985C15.0122 4.59985 17.5399 6.66431 18.25 9.45532C20.5339 9.92894 22.25 11.9512 22.25 14.3752Z" fill="#161616"/>
</svg>
