<svg width="24" height="24" viewBox="0 0 24 24" fill="none" xmlns="http://www.w3.org/2000/svg">
<path d="M19.2499 18.5996C19.2499 16.9075 19.2495 15.6835 19.1708 14.7207C19.0929 13.7666 18.9418 13.1346 18.6777 12.6162C18.1744 11.6286 17.3714 10.8256 16.3837 10.3223C15.8653 10.0581 15.2334 9.90706 14.2792 9.8291C13.3165 9.75047 12.0924 9.75 10.4003 9.75H5.81049L9.53022 13.4697L8.46967 14.5303L3.46967 9.53027C3.17678 9.23738 3.17678 8.76262 3.46967 8.46973L8.46967 3.46973L9.53022 4.53027L5.81049 8.25H10.4003C12.0679 8.25 13.3642 8.24917 14.4023 8.33398C15.4489 8.41953 16.2995 8.59562 17.0644 8.98535C18.3345 9.6325 19.3674 10.6655 20.0146 11.9355L20.1503 12.2266C20.4464 12.9162 20.5911 13.6817 20.666 14.5977C20.7508 15.6357 20.7499 16.932 20.7499 18.5996V20H19.2499V18.5996Z" fill="#161616"/>
</svg>
