<svg width="24" height="24" viewBox="0 0 24 24" fill="none" xmlns="http://www.w3.org/2000/svg">
<path d="M8.19629 20.8289L7.91797 21.5251L6.52539 20.9675L6.80371 20.2712L8.19629 20.8289ZM11.7959 20.8289L11.5176 21.5251L10.125 20.9675L10.4033 20.2712L11.7959 20.8289ZM15.3965 20.8289L15.1182 21.5251L13.7256 20.9675L14.0039 20.2712L15.3965 20.8289ZM9.375 17.8826L8.19629 20.8289L7.5 20.5496L6.80371 20.2712L7.98242 17.325L9.375 17.8826ZM12.9746 17.8826L11.7959 20.8289L11.0996 20.5496L10.4033 20.2712L11.582 17.325L12.9746 17.8826ZM16.5752 17.8826L16.2959 18.5789L15.3965 20.8289L14.7002 20.5496L14.0039 20.2712L14.9033 18.0212L15.1826 17.325L16.5752 17.8826ZM2.25 10.6501C2.25 7.86981 4.41136 5.59518 7.14551 5.41284C8.1483 3.78647 9.94643 2.69995 12 2.69995C14.4125 2.69995 16.4721 4.19862 17.3047 6.31421C19.79 6.49578 21.75 8.5687 21.75 11.1003C21.7498 13.7511 19.6009 15.9 16.9502 15.9001H7.5C4.60057 15.9001 2.25011 13.5496 2.25 10.6501ZM3.75 10.6501C3.75011 12.7211 5.429 14.4001 7.5 14.4001H16.9502C18.7725 14.4 20.2498 12.9226 20.25 11.1003C20.25 9.27787 18.7726 7.79967 16.9502 7.79956C16.8995 7.79956 16.8489 7.80122 16.7988 7.80347C16.4508 7.81913 16.1375 7.5929 16.043 7.25757C15.5454 5.49253 13.9227 4.19995 12 4.19995C10.3686 4.19995 8.95283 5.12977 8.25684 6.49194C8.12625 6.74748 7.86114 6.90671 7.57422 6.90112C7.54953 6.90065 7.52479 6.90015 7.5 6.90015C5.42893 6.90015 3.75 8.57908 3.75 10.6501Z" fill="#161616"/>
</svg>
