<svg width="24" height="24" viewBox="0 0 24 24" fill="none" xmlns="http://www.w3.org/2000/svg">
<path d="M20.25 11C20.25 10.3096 19.6904 9.75 19 9.75H9C8.30964 9.75 7.75 10.3096 7.75 11V17C7.75 17.6904 8.30964 18.25 9 18.25H19C19.6904 18.25 20.25 17.6904 20.25 17V11ZM15.25 14C15.25 13.3096 14.6904 12.75 14 12.75C13.3096 12.75 12.75 13.3096 12.75 14C12.75 14.6904 13.3096 15.25 14 15.25C14.6904 15.25 15.25 14.6904 15.25 14ZM16.75 14C16.75 15.5188 15.5188 16.75 14 16.75C12.4812 16.75 11.25 15.5188 11.25 14C11.25 12.4812 12.4812 11.25 14 11.25C15.5188 11.25 16.75 12.4812 16.75 14ZM16.25 7C16.25 6.66848 16.1182 6.35063 15.8838 6.11621C15.6494 5.88179 15.3315 5.75 15 5.75H5C4.66848 5.75 4.35063 5.88179 4.11621 6.11621C3.88179 6.35063 3.75 6.66848 3.75 7V13C3.75 13.3315 3.88179 13.6494 4.11621 13.8838C4.35063 14.1182 4.66848 14.25 5 14.25H6.25V11C6.25 9.48122 7.48122 8.25 9 8.25H16.25V7ZM17.75 8.25H19C20.5188 8.25 21.75 9.48122 21.75 11V17C21.75 18.5188 20.5188 19.75 19 19.75H9C7.48122 19.75 6.25 18.5188 6.25 17V15.75H5C4.27065 15.75 3.57139 15.4601 3.05566 14.9443C2.53994 14.4286 2.25 13.7293 2.25 13V7C2.25 6.27065 2.53994 5.57139 3.05566 5.05566C3.57139 4.53994 4.27065 4.25 5 4.25H15C15.7293 4.25 16.4286 4.53994 16.9443 5.05566C17.4601 5.57139 17.75 6.27065 17.75 7V8.25Z" fill="#161616"/>
</svg>
