<svg width="24" height="24" viewBox="0 0 24 24" fill="none" xmlns="http://www.w3.org/2000/svg">
<path d="M3.25 5.40039V4H4.75V5.40039C4.75 7.09247 4.75047 8.31655 4.8291 9.2793C4.90706 10.2334 5.05814 10.8654 5.32227 11.3838C5.82556 12.3714 6.62859 13.1744 7.61621 13.6777L7.81641 13.7715C8.29759 13.9784 8.8857 14.1027 9.7207 14.1709C10.6835 14.2495 11.9075 14.25 13.5996 14.25H18.1895L14.4697 10.5303L15.5303 9.46973L20.5303 14.4697C20.8232 14.7626 20.8232 15.2374 20.5303 15.5303L15.5303 20.5303L14.4697 19.4697L18.1895 15.75H13.5996C11.932 15.75 10.6357 15.7508 9.59766 15.666C8.68173 15.5912 7.91618 15.4464 7.22656 15.1504L6.93555 15.0146C5.74482 14.4079 4.76266 13.4622 4.11133 12.2998L3.98535 12.0645C3.59562 11.2995 3.41953 10.449 3.33398 9.40234C3.24917 8.36429 3.25 7.06798 3.25 5.40039Z" fill="#161616"/>
</svg>
