<svg width="24" height="24" viewBox="0 0 24 24" fill="none" xmlns="http://www.w3.org/2000/svg">
<path d="M21.0376 16.5835C21.0376 16.5127 20.9944 16.4513 20.9331 16.4253L20.8667 16.4126H17.1821C17.0879 16.4129 17.0112 16.4892 17.0112 16.5835V18.4253C17.0114 18.5194 17.088 18.5959 17.1821 18.5962H20.8667C20.9609 18.596 21.0374 18.5195 21.0376 18.4253V16.5835ZM19.9243 7.59229C19.8493 6.85615 19.2276 6.28174 18.4712 6.28174H5.21045C4.40421 6.2819 3.75065 6.93546 3.75049 7.7417V8.6499H19.9321V7.7417L19.9243 7.59229ZM19.6558 14.2808C19.6558 13.9322 19.3734 13.6491 19.0249 13.6489C18.6762 13.6489 18.3931 13.932 18.3931 14.2808V14.9126H19.6558V14.2808ZM21.1558 14.938C21.9406 15.0751 22.5376 15.7594 22.5376 16.5835V18.4253C22.5374 19.3479 21.7893 20.096 20.8667 20.0962H17.1821C16.2596 20.0959 15.5114 19.3478 15.5112 18.4253V16.5835C15.5112 15.7595 16.1083 15.0752 16.8931 14.938V14.2808C16.8931 13.1036 17.8478 12.1489 19.0249 12.1489C20.2019 12.1491 21.1558 13.1037 21.1558 14.2808V14.938ZM21.4321 9.3999C21.4321 9.59877 21.353 9.78957 21.2124 9.93018C21.0717 10.0708 20.881 10.1499 20.6821 10.1499H3.75049V16.0308C3.7507 16.8371 4.40509 17.4907 5.21143 17.4907H13.144V18.9907H5.21143C3.57667 18.9907 2.2507 17.6655 2.25049 16.0308V7.7417C2.25065 6.10704 3.57578 4.7819 5.21045 4.78174H18.4712C20.106 4.78174 21.432 6.10645 21.4321 7.7417V9.3999Z" fill="#161616"/>
</svg>
