<svg width="24" height="24" viewBox="0 0 24 24" fill="none" xmlns="http://www.w3.org/2000/svg">
<path d="M9 19.5V21H5V19.5H9ZM9.5 19V5C9.5 4.72386 9.27614 4.5 9 4.5H5C4.72386 4.5 4.5 4.72386 4.5 5V19C4.5 19.2761 4.72386 19.5 5 19.5V21C3.96435 21 3.113 20.2128 3.01074 19.2041L3 19V5C3 3.89543 3.89543 3 5 3H9L9.2041 3.01074C10.2128 3.113 11 3.96435 11 5V19C11 20.1046 10.1046 21 9 21V19.5C9.27614 19.5 9.5 19.2761 9.5 19Z" fill="#161616"/>
<path d="M19 19.5V21H15V19.5H19ZM19.5 19V5C19.5 4.72386 19.2761 4.5 19 4.5H15C14.7239 4.5 14.5 4.72386 14.5 5V19C14.5 19.2761 14.7239 19.5 15 19.5V21C13.9643 21 13.113 20.2128 13.0107 19.2041L13 19V5C13 3.89543 13.8954 3 15 3H19L19.2041 3.01074C20.2128 3.113 21 3.96435 21 5V19C21 20.1046 20.1046 21 19 21V19.5C19.2761 19.5 19.5 19.2761 19.5 19Z" fill="#161616"/>
</svg>
