<svg width="24" height="24" viewBox="0 0 24 24" fill="none" xmlns="http://www.w3.org/2000/svg">
<path d="M14.2832 6.69824C14.283 5.75084 13.5148 4.98242 12.5674 4.98242C11.6201 4.98257 10.8518 5.75093 10.8516 6.69824C10.8516 7.64574 11.6199 8.41392 12.5674 8.41406C13.515 8.41406 14.2832 7.64583 14.2832 6.69824ZM7.86523 16.5C9.25579 17.6388 10.8696 18.2773 12.5684 18.2773C14.1825 18.2772 15.7203 17.7013 17.0625 16.667L13.4189 9.79883C13.1477 9.87315 12.8622 9.91406 12.5674 9.91406C12.2657 9.91404 11.9741 9.87163 11.6973 9.79395L7.86523 16.5ZM15.7832 6.69824C15.7832 7.6397 15.3762 8.48417 14.7314 9.07227L18.2061 15.6211C18.6143 15.1846 18.9987 14.7022 19.3496 14.1738L19.7646 13.5498L21.0146 14.3789L20.5996 15.0039C20.1082 15.7437 19.5524 16.4178 18.9443 17.0127L21.2256 21.3105L19.9004 22.0137L17.7744 18.0078C16.2505 19.1247 14.4792 19.7772 12.5684 19.7773C10.552 19.7773 8.69019 19.0514 7.11133 17.8193L4.70996 22.0234L3.40723 21.2793L5.9707 16.792C5.52063 16.3272 5.10105 15.8183 4.71777 15.2705L4.53613 15.0039L4.12109 14.3789L5.37109 13.5498L5.78613 14.1738L6.11426 14.6436C6.31719 14.919 6.53098 15.1792 6.75098 15.4268L10.3896 9.05957C9.75306 8.47202 9.35156 7.63284 9.35156 6.69824C9.35174 5.18077 10.4034 3.90926 11.8174 3.57129V2.25H13.3174V3.57129C14.7316 3.90908 15.783 5.18059 15.7832 6.69824Z" fill="#161616"/>
</svg>
