<svg width="24" height="24" viewBox="0 0 24 24" fill="none" xmlns="http://www.w3.org/2000/svg">
<path d="M19.8936 12.3872C19.8936 8.107 16.4238 4.63721 12.1436 4.63721C7.86335 4.63721 4.39355 8.107 4.39355 12.3872C4.39355 16.6674 7.86335 20.1372 12.1436 20.1372C16.4238 20.1372 19.8936 16.6674 19.8936 12.3872ZM14.3682 14.5122C14.3682 13.7528 13.7526 13.1372 12.9932 13.1372H12.8936V15.8872H12.9932C13.7526 15.8872 14.3682 15.2716 14.3682 14.5122ZM14.3682 10.1206C14.3682 9.43945 13.8159 8.88721 13.1348 8.88721H12.8936V11.6372H12.9932C14.581 11.6372 15.8682 12.9244 15.8682 14.5122C15.8682 16.1 14.581 17.3872 12.9932 17.3872H12.8936V18.6626H11.3936V17.3872H11.1523C9.64277 17.3872 8.41895 16.1634 8.41895 14.6538V13.9038H9.91895V14.6538C9.91895 15.335 10.4712 15.8872 11.1523 15.8872H11.3936V13.1372H11.2939C9.70613 13.1372 8.41895 11.85 8.41895 10.2622C8.41895 8.67439 9.70613 7.38721 11.2939 7.38721H11.3936V6.11182H12.8936V7.38721H13.1348C14.6443 7.38721 15.8682 8.61103 15.8682 10.1206V10.8706H14.3682V10.1206ZM21.3936 12.3872C21.3936 17.4958 17.2522 21.6372 12.1436 21.6372C7.03492 21.6372 2.89355 17.4958 2.89355 12.3872C2.89355 7.27857 7.03492 3.13721 12.1436 3.13721C17.2522 3.13721 21.3936 7.27857 21.3936 12.3872ZM9.91895 10.2622C9.91895 11.0216 10.5346 11.6372 11.2939 11.6372H11.3936V8.88721H11.2939C10.5346 8.88721 9.91895 9.50282 9.91895 10.2622Z" fill="#161616"/>
</svg>
