<svg width="24" height="24" viewBox="0 0 24 24" fill="none" xmlns="http://www.w3.org/2000/svg">
<path d="M15.7129 3.23038C17.2078 1.87988 19.5154 1.9245 20.9561 3.36514L21.0908 3.50772C22.3977 4.95434 22.3977 7.16167 21.0908 8.60831L20.9561 8.75088L17.3564 12.3505L18.4375 13.4315L17.377 14.4921L16.2959 13.411L8.17676 21.5302C8.03618 21.6708 7.84528 21.7498 7.64648 21.7499H3.32129C2.90708 21.7499 2.57129 21.4141 2.57129 20.9999V16.6747C2.57137 16.4759 2.65044 16.285 2.79102 16.1444L10.9102 8.0253L9.8291 6.94424L10.8896 5.8837L11.9707 6.96475L15.5703 3.36514L15.7129 3.23038ZM4.07129 16.9853V20.2499H7.33594L15.2354 12.3505L11.9707 9.08584L4.07129 16.9853ZM19.8955 4.42569C19.0505 3.5807 17.7132 3.52823 16.8066 4.26749L16.6309 4.42569L13.0312 8.0253L16.2959 11.2899L19.8955 7.69034L20.0537 7.51456C20.7436 6.66847 20.7437 5.44754 20.0537 4.60147L19.8955 4.42569Z" fill="#161616"/>
</svg>
