<svg width="24" height="24" viewBox="0 0 24 24" fill="none" xmlns="http://www.w3.org/2000/svg">
<path d="M12.0088 19.7996C12.4229 19.7996 12.7586 20.1355 12.7588 20.5496C12.7588 20.9638 12.423 21.2996 12.0088 21.2996H12C11.5858 21.2996 11.25 20.9638 11.25 20.5496C11.2502 20.1355 11.5859 19.7996 12 19.7996H12.0088ZM8.40918 17.9998C8.82325 17.9999 9.15907 18.3357 9.15918 18.7498C9.15918 19.1639 8.82331 19.4997 8.40918 19.4998H8.40039C7.98618 19.4998 7.65039 19.164 7.65039 18.7498C7.6505 18.3356 7.98624 17.9998 8.40039 17.9998H8.40918ZM15.6094 17.9998C16.0234 18 16.3593 18.3358 16.3594 18.7498C16.3594 19.1638 16.0234 19.4996 15.6094 19.4998H15.5996C15.1856 19.4995 14.8496 19.1638 14.8496 18.7498C14.8497 18.3358 15.1856 18 15.5996 17.9998H15.6094ZM12.0088 16.2L12.0859 16.2039C12.464 16.2424 12.7588 16.5617 12.7588 16.95C12.7588 17.3382 12.464 17.6575 12.0859 17.696L12.0088 17.7H12C11.5858 17.7 11.25 17.3642 11.25 16.95C11.25 16.5357 11.5858 16.2 12 16.2H12.0088ZM20.25 11.9998C20.2499 10.3891 19.0955 9.04708 17.5693 8.75757L17.2588 8.7146C16.9617 8.68699 16.7137 8.4866 16.6191 8.21167L16.5879 8.08862C16.225 5.88283 14.3084 4.19995 12 4.19995C9.69158 4.19995 7.77496 5.88283 7.41211 8.08862C7.35676 8.42529 7.08092 8.68303 6.74121 8.7146C5.06403 8.86993 3.7501 10.2816 3.75 11.9998C3.75 13.1431 4.33063 14.1516 5.2168 14.7449L4.38281 15.991C3.09838 15.1311 2.25 13.6646 2.25 11.9998C2.25009 9.69352 3.87634 7.76872 6.04492 7.3064C6.72997 4.65675 9.13608 2.69995 12 2.69995C14.8638 2.69995 17.269 4.65687 17.9541 7.3064C20.1231 7.76836 21.7499 9.69319 21.75 11.9998C21.75 13.6646 20.9016 15.1311 19.6172 15.991L18.7832 14.7449C19.6694 14.1516 20.25 13.1431 20.25 11.9998ZM8.40918 14.4001L8.48535 14.4041C8.86369 14.4423 9.15918 14.7617 9.15918 15.1501C9.15908 15.5385 8.86365 15.858 8.48535 15.8962L8.40918 15.9001H8.40039C7.98624 15.9001 7.6505 15.5643 7.65039 15.1501C7.65039 14.7359 7.98618 14.4001 8.40039 14.4001H8.40918ZM15.6094 14.4001L15.6855 14.4041C16.0638 14.4424 16.3594 14.7618 16.3594 15.1501C16.3593 15.5384 16.0637 15.8579 15.6855 15.8962L15.6094 15.9001H15.5996C15.1856 15.8999 14.8497 15.5641 14.8496 15.1501C14.8496 14.7361 15.1856 14.4004 15.5996 14.4001H15.6094Z" fill="#161616"/>
</svg>
