<svg width="24" height="24" viewBox="0 0 24 24" fill="none" xmlns="http://www.w3.org/2000/svg">
<path d="M18 18.6006H15V17.1006H18V14.1006H19.5V17.1006H22.5V18.6006H19.5V21.6006H18V18.6006ZM14.917 5.83301H9.08301V7.66699H7.58301V5.83496C7.0925 5.83687 6.71598 5.8428 6.40527 5.86816C6.0962 5.89342 5.88941 5.93542 5.7334 5.99121L5.5918 6.05176C5.26251 6.21962 4.98703 6.4747 4.79492 6.78809L4.71777 6.92578C4.63087 7.09652 4.56881 7.32644 4.53516 7.73828C4.50077 8.15922 4.5 8.45098 4.5 9.2334V9.58301H19.5V9.2334C19.5 8.45098 19.4992 8.15922 19.4648 7.73828C19.4396 7.42916 19.3986 7.22243 19.3428 7.06641L19.2822 6.92578C19.1145 6.59661 18.859 6.32106 18.5459 6.12891L18.4082 6.05176C18.2374 5.96474 18.0069 5.90184 17.5947 5.86816C17.284 5.8428 16.9075 5.83687 16.417 5.83496V7.66699H14.917V5.83301ZM21 12.458H19.5V11.083H4.5V16.3477C4.5 17.13 4.50077 17.6719 4.53516 18.0928C4.56883 18.5047 4.63082 18.7346 4.71777 18.9053L4.79492 19.043C4.98705 19.3563 5.26254 19.6115 5.5918 19.7793L5.7334 19.8398C5.8894 19.8956 6.09627 19.9376 6.40527 19.9629C6.82616 19.9972 7.36821 19.9971 8.15039 19.9971H13.208V21.4971H8.15039C7.39292 21.4971 6.77932 21.4975 6.2832 21.457C5.84151 21.4209 5.44181 21.3502 5.06934 21.1904L4.91113 21.1162C4.33483 20.8226 3.85289 20.3755 3.5166 19.8271L3.38184 19.5859C3.16922 19.1686 3.0813 18.7196 3.04004 18.2148C2.9995 17.7187 3 17.1052 3 16.3477L3 9.2334C3 8.47577 2.99951 8.11238 3.04004 7.61621C3.0813 7.11126 3.16912 6.66162 3.38184 6.24414L3.5166 6.00293C3.85288 5.45481 4.335 5.0084 4.91113 4.71484L5.06934 4.64062C5.44185 4.48087 5.84146 4.40914 6.2832 4.37305C6.64912 4.34317 7.07878 4.33685 7.58301 4.33496V2.5H9.08301V4.33301H14.917V2.5H16.417V4.33496C16.9212 4.33685 17.3509 4.34317 17.7168 4.37305C18.2217 4.4143 18.6714 4.50215 19.0889 4.71484L19.3301 4.84961C19.8783 5.18583 20.3245 5.66802 20.6182 6.24414L20.6924 6.40234C20.8523 6.77497 20.9239 7.17431 20.96 7.61621C21.0005 8.11238 21 8.47577 21 9.2334V12.458Z" fill="#161616"/>
</svg>
