<svg width="24" height="24" viewBox="0 0 24 24" fill="none" xmlns="http://www.w3.org/2000/svg">
<path d="M3.25 18.5996C3.25 16.932 3.24917 15.6357 3.33398 14.5977C3.41953 13.551 3.59562 12.7005 3.98535 11.9355L4.11133 11.7002C4.76266 10.5378 5.74482 9.59206 6.93555 8.98535C7.70049 8.59562 8.55103 8.41953 9.59766 8.33398C10.6357 8.24917 11.932 8.25 13.5996 8.25H18.1895L14.4697 4.53027L15.5303 3.46973L20.5303 8.46973C20.8232 8.76262 20.8232 9.23738 20.5303 9.53027L15.5303 14.5303L14.4697 13.4697L18.1895 9.75H13.5996C11.9075 9.75 10.6835 9.75047 9.7207 9.8291C8.76657 9.90706 8.1346 10.0581 7.61621 10.3223C6.62859 10.8256 5.82556 11.6286 5.32227 12.6162C5.05814 13.1346 4.90706 13.7666 4.8291 14.7207C4.75047 15.6835 4.75 16.9075 4.75 18.5996V20H3.25V18.5996Z" fill="#161616"/>
</svg>
