<svg width="24" height="24" viewBox="0 0 24 24" fill="none" xmlns="http://www.w3.org/2000/svg">
<path d="M7.47266 10.4893V6.25488L4.03027 9.69727L2.96973 8.63574L7.69141 3.91406L7.80566 3.82031C7.92804 3.73862 8.07335 3.69434 8.22266 3.69434C8.42141 3.69445 8.61238 3.77351 8.75293 3.91406L13.4746 8.63574L12.4141 9.69727L8.97266 6.25586V10.4893C8.97266 12.0881 8.97276 13.2422 9.04688 14.1494C9.12029 15.048 9.26185 15.6384 9.50781 16.1211L9.59961 16.292C10.074 17.1388 10.7898 17.8276 11.6572 18.2695C12.1399 18.5154 12.7297 18.6571 13.6279 18.7305C14.5352 18.8046 15.6899 18.8057 17.2891 18.8057H20.5V20.3057H17.2891C15.7146 20.3057 14.4884 20.3059 13.5059 20.2256C12.6384 20.1547 11.9101 20.0184 11.2529 19.7363L10.9756 19.6064C9.8436 19.0297 8.91018 18.1304 8.29102 17.0254L8.17188 16.8018C7.80021 16.0723 7.63275 15.2628 7.55176 14.2715C7.47151 13.2891 7.47266 12.0633 7.47266 10.4893Z" fill="#161616"/>
</svg>
