<svg width="24" height="24" viewBox="0 0 24 24" fill="none" xmlns="http://www.w3.org/2000/svg">
<path fill-rule="evenodd" clip-rule="evenodd" d="M11.9998 4.25C7.71955 4.25 4.24976 7.71979 4.24976 12C4.24976 16.2802 7.71955 19.75 11.9998 19.75C16.28 19.75 19.7498 16.2802 19.7498 12C19.7498 7.71979 16.28 4.25 11.9998 4.25ZM2.74976 12C2.74976 6.89137 6.89112 2.75 11.9998 2.75C17.1084 2.75 21.2498 6.89137 21.2498 12C21.2498 17.1086 17.1084 21.25 11.9998 21.25C6.89112 21.25 2.74976 17.1086 2.74976 12ZM16.3551 9.98033L11.2551 15.0803C10.9622 15.3732 10.4873 15.3732 10.1944 15.0803L7.64443 12.5303L8.70509 11.4697L10.7248 13.4893L15.2944 8.91967L16.3551 9.98033Z" fill="#161616"/>
</svg>
