<svg width="24" height="24" viewBox="0 0 24 24" fill="none" xmlns="http://www.w3.org/2000/svg">
<path d="M19.5 18.5V20H4.5V18.5H19.5ZM19.5 5.5H4.5V20L4.34668 19.9922C3.59028 19.9154 3 19.2767 3 18.5V5.5C3 4.67157 3.67157 4 4.5 4H19.5C20.3284 4 21 4.67157 21 5.5V18.5C21 19.2767 20.4097 19.9154 19.6533 19.9922L19.5 20V5.5Z" fill="#161616"/>
<path d="M10 18.9248H8.5L8.5 5.27148L10 5.27148L10 18.9248Z" fill="#161616"/>
<path d="M15.5 18.9248H14L14 5.27148L15.5 5.27148L15.5 18.9248Z" fill="#161616"/>
</svg>
