<svg width="24" height="24" viewBox="0 0 24 24" fill="none" xmlns="http://www.w3.org/2000/svg">
<path d="M19.5 11.083H4.5V16.3506C4.5 17.1329 4.50077 17.6748 4.53516 18.0957C4.56883 18.5076 4.63082 18.7375 4.71777 18.9082L4.79492 19.0459C4.98705 19.3592 5.26254 19.6144 5.5918 19.7822L5.7334 19.8428C5.8894 19.8986 6.09627 19.9406 6.40527 19.9658C6.82616 20.0002 7.36821 20 8.15039 20H15.8496C16.6318 20 17.1738 20.0002 17.5947 19.9658C18.0069 19.9321 18.2374 19.8692 18.4082 19.7822L18.5459 19.7051C18.8591 19.5129 19.1145 19.2374 19.2822 18.9082L19.3428 18.7676C19.3986 18.6116 19.4396 18.4049 19.4648 18.0957C19.4992 17.6748 19.5 17.1329 19.5 16.3506V11.083ZM14.917 5.83301H9.08301V7.66699H7.58301V5.83496C7.0925 5.83687 6.71598 5.8428 6.40527 5.86816C6.0962 5.89342 5.88941 5.93542 5.7334 5.99121L5.5918 6.05176C5.26251 6.21962 4.98703 6.4747 4.79492 6.78809L4.71777 6.92578C4.63087 7.09652 4.56881 7.32644 4.53516 7.73828C4.50077 8.15922 4.5 8.45098 4.5 9.2334V9.58301H19.5V9.2334C19.5 8.45098 19.4992 8.15922 19.4648 7.73828C19.4396 7.42916 19.3986 7.22243 19.3428 7.06641L19.2822 6.92578C19.1145 6.59661 18.859 6.32106 18.5459 6.12891L18.4082 6.05176C18.2374 5.96474 18.0069 5.90184 17.5947 5.86816C17.284 5.8428 16.9075 5.83687 16.417 5.83496V7.66699H14.917V5.83301ZM21 16.3506C21 17.1082 21.0005 17.7216 20.96 18.2178C20.9238 18.6597 20.8523 19.059 20.6924 19.4316L20.6182 19.5889C20.3246 20.165 19.8782 20.6471 19.3301 20.9834L19.0889 21.1191C18.6714 21.3318 18.2217 21.4187 17.7168 21.46C17.2207 21.5005 16.6071 21.5 15.8496 21.5H8.15039C7.39292 21.5 6.77932 21.5005 6.2832 21.46C5.84151 21.4239 5.44181 21.3531 5.06934 21.1934L4.91113 21.1191C4.33483 20.8255 3.85289 20.3784 3.5166 19.8301L3.38184 19.5889C3.16922 19.1715 3.0813 18.7226 3.04004 18.2178C2.9995 17.7216 3 17.1082 3 16.3506L3 9.2334C3 8.47577 2.99951 8.11238 3.04004 7.61621C3.0813 7.11126 3.16912 6.66162 3.38184 6.24414L3.5166 6.00293C3.85288 5.45481 4.335 5.0084 4.91113 4.71484L5.06934 4.64062C5.44185 4.48087 5.84146 4.40914 6.2832 4.37305C6.64912 4.34317 7.07878 4.33685 7.58301 4.33496V2.5H9.08301V4.33301H14.917V2.5H16.417V4.33496C16.9212 4.33685 17.3509 4.34317 17.7168 4.37305C18.2217 4.4143 18.6714 4.50215 19.0889 4.71484L19.3301 4.84961C19.8783 5.18583 20.3245 5.66802 20.6182 6.24414L20.6924 6.40234C20.8523 6.77497 20.9239 7.17431 20.96 7.61621C21.0005 8.11238 21 8.47577 21 9.2334V16.3506Z" fill="#161616"/>
</svg>
