<svg width="24" height="24" viewBox="0 0 24 24" fill="none" xmlns="http://www.w3.org/2000/svg">
<path d="M5.90527 13.091H4.40527V18.0304L2.15527 15.7804L1.09473 16.841L5.15527 20.9015L9.21582 16.841L8.15527 15.7804L5.90527 18.0304V13.091ZM22.9053 12.3576C22.9052 9.63223 20.7666 7.43153 18.0713 7.15544C17.466 5.3671 15.9581 3.96864 14.042 3.38493C11.9277 2.74164 9.68601 3.25245 8.23926 4.21696C7.31139 4.83555 5.79909 6.10987 5.4707 8.06559C5.15927 8.07917 4.77496 8.12522 4.37207 8.24919C3.8708 8.40345 3.32606 8.68153 2.86621 9.17204C2.46042 9.60491 2.14911 10.1731 1.97949 10.8976L1.91504 11.2179L1.79199 11.9572L3.27148 12.2043L3.39551 11.464C3.49893 10.8436 3.72065 10.4527 3.95996 10.1974C4.20318 9.93799 4.5023 9.77853 4.81348 9.68278C5.12776 9.58609 5.43947 9.55973 5.67871 9.55973C5.79649 9.55973 5.89197 9.56551 5.95508 9.57145C5.98617 9.57438 6.00908 9.57749 6.02246 9.57926C6.02707 9.57988 6.03101 9.57992 6.0332 9.58024L6.90527 9.72575V8.84098C6.90527 7.23917 8.1166 6.10149 9.07129 5.46501C10.1797 4.72605 11.9589 4.31994 13.6045 4.82047C15.2553 5.32335 16.4386 6.5686 16.7666 8.03923L16.8975 8.62614H17.498C19.6831 8.62614 21.4052 10.3236 21.4053 12.3576C21.4053 14.3925 19.6832 16.0915 17.4971 16.0949H11.4053V17.5949H17.499C20.4569 17.5903 22.9053 15.2746 22.9053 12.3576Z" fill="#161616"/>
<path d="M16.6664 14.6818V14.0724L17.845 13.1818C18.066 13.0144 18.2401 12.9006 18.2401 12.6997C18.2401 12.4988 18.0459 12.405 17.8115 12.405C17.5638 12.405 17.3963 12.5122 17.3963 12.7532H16.5861C16.5861 12.1037 17.1017 11.7354 17.8249 11.7354C18.5749 11.7354 19.0437 12.1573 19.0437 12.6863C19.0437 13.1215 18.7825 13.4497 18.1999 13.7778L17.8852 13.9586V13.9854H19.0504V14.6818H16.6664Z" fill="#161616"/>
<path d="M16.6754 11.4206C16.6754 13.0345 15.6441 13.9117 14.3316 13.9117C13.0057 13.9117 11.9812 13.0278 11.9812 11.4206C11.9812 9.80681 13.0057 8.92957 14.3316 8.92957C15.6441 8.92957 16.6754 9.80681 16.6754 11.4206ZM15.3629 11.4206C15.3629 10.53 14.9946 10.0412 14.3316 10.0412C13.662 10.0412 13.2937 10.53 13.2937 11.4206C13.2937 12.3113 13.662 12.8001 14.3316 12.8001C14.9946 12.8001 15.3629 12.3113 15.3629 11.4206Z" fill="#161616"/>
<path d="M10.6776 10.7979C10.6374 10.3425 10.3294 10.0412 9.81376 10.0412C9.14411 10.0412 8.76242 10.5568 8.76242 11.4206C8.76242 12.3314 9.15081 12.8001 9.80706 12.8001C10.2959 12.8001 10.6106 12.5323 10.6776 12.1037L11.97 12.1171C11.903 12.9474 11.1731 13.9117 9.78027 13.9117C8.44768 13.9117 7.44992 13.0278 7.44992 11.4206C7.44992 9.80681 8.47447 8.92957 9.78027 8.92957C10.9856 8.92957 11.8629 9.60591 11.97 10.7979H10.6776Z" fill="#161616"/>
</svg>
