<svg width="24" height="24" viewBox="0 0 24 24" fill="none" xmlns="http://www.w3.org/2000/svg">
<path d="M11.6638 2.2495C11.8853 2.20394 12.1142 2.20394 12.3357 2.2495C12.6125 2.30647 12.8585 2.45292 13.0759 2.57372L19.8591 6.34227C20.0885 6.46971 20.3572 6.60841 20.5584 6.82665C20.7191 7.00112 20.8413 7.20782 20.9158 7.43309C21.0089 7.71501 20.9998 8.0173 20.9998 8.27977V15.7202C20.9998 15.9827 21.0089 16.285 20.9158 16.5669C20.8413 16.7922 20.7191 16.9988 20.5584 17.1733C20.3572 17.3916 20.0885 17.5303 19.8591 17.6577L13.0759 21.4263C12.8585 21.5471 12.6125 21.6935 12.3357 21.7505C12.1142 21.796 11.8853 21.796 11.6638 21.7505C11.387 21.6935 11.141 21.5471 10.9236 21.4263L4.14038 17.6577C3.91098 17.5303 3.64235 17.3916 3.44117 17.1733C3.28037 16.9988 3.15818 16.7922 3.08374 16.5669C2.99061 16.285 2.99976 15.9827 2.99976 15.7202V8.27977C2.99976 8.0173 2.9906 7.71501 3.08374 7.43309C3.15818 7.20782 3.28038 7.00112 3.44117 6.82665C3.64235 6.60841 3.911 6.46971 4.14038 6.34227L10.9236 2.57372L11.2712 2.3872C11.3946 2.32847 11.5254 2.27798 11.6638 2.2495ZM5.29273 16.5825L11.2498 19.8921V13.2739L5.29273 16.5825ZM12.7498 19.8921L18.7058 16.5825L12.7498 13.2739V19.8921ZM4.49976 15.3081L10.4548 11.9995L4.49976 8.69091V15.3081ZM13.5437 11.9995L19.4998 15.3081V8.69091L13.5437 11.9995ZM5.29273 7.41649L11.2498 10.7251V4.10692L5.29273 7.41649ZM12.7498 10.7251L18.7058 7.41649L12.7498 4.10692V10.7251Z" fill="#161616"/>
</svg>
