<svg width="24" height="24" viewBox="0 0 24 24" fill="none" xmlns="http://www.w3.org/2000/svg">
<path d="M20.3206 15.7798V8.22022C20.3206 7.45177 20.3201 6.91993 20.2861 6.50733C20.2528 6.10366 20.1908 5.87975 20.1058 5.71436C19.9173 5.34772 19.6168 5.0497 19.247 4.86279C19.0802 4.77852 18.8544 4.71708 18.4472 4.68408C18.0311 4.65037 17.4947 4.6499 16.7197 4.6499H7.28021C6.50519 4.6499 5.9688 4.65037 5.55266 4.68408C5.14554 4.71708 4.91971 4.77852 4.75291 4.86279C4.38313 5.0497 4.08256 5.34772 3.89406 5.71436C3.80906 5.87975 3.7471 6.10366 3.71381 6.50733C3.67982 6.91993 3.67934 7.45177 3.67934 8.22022V10.1196H2.16651V8.22022C2.16651 7.47652 2.1657 6.87311 2.2059 6.38526C2.24683 5.88875 2.33396 5.44575 2.5457 5.03369C2.87929 4.38453 3.4117 3.85664 4.06642 3.52588C4.482 3.31594 4.92879 3.22955 5.42955 3.18897C5.92158 3.14911 6.53015 3.1499 7.28021 3.1499H16.7197C17.4697 3.1499 18.0783 3.14911 18.5704 3.18897C19.0711 3.22955 19.5179 3.31594 19.9335 3.52588C20.5882 3.85664 21.1206 4.38453 21.4542 5.03369C21.6659 5.44575 21.7531 5.88875 21.794 6.38526C21.8342 6.87311 21.8334 7.47652 21.8334 8.22022V15.7798C21.8334 16.5235 21.8342 17.1269 21.794 17.6147C21.7531 18.1112 21.6659 18.5543 21.4542 18.9663C21.1206 19.6154 20.5882 20.1434 19.9335 20.4741C19.5179 20.684 19.0711 20.7705 18.5704 20.811C18.0783 20.8509 17.4697 20.8501 16.7197 20.8501H13.0587V19.3501H16.7197C17.4947 19.3501 18.0311 19.3496 18.4472 19.3159C18.8544 19.2829 19.0802 19.2215 19.247 19.1372C19.6168 18.9503 19.9173 18.6522 20.1058 18.2856C20.1909 18.1202 20.2528 17.8956 20.2861 17.4917C20.32 17.0792 20.3206 16.5479 20.3206 15.7798Z" fill="#161616"/>
<path d="M2.91553 15.8511C3.99346 16.0709 4.98333 16.6034 5.76123 17.3813C6.53912 18.1592 7.07167 19.1491 7.2915 20.2271L7.41846 20.8501H5.88721L5.8208 20.5259C5.65969 19.7364 5.27041 19.0116 4.70068 18.4419C4.13094 17.8722 3.40615 17.4829 2.6167 17.3218L2.1665 17.229V15.7729L2.18115 15.7017L2.91553 15.8511Z" fill="#161616"/>
<path d="M2.84912 12.2612C4.9009 12.4895 6.81409 13.4089 8.27393 14.8687C9.73369 16.3286 10.6541 18.2426 10.8823 20.2944L10.9438 20.8501H9.43506L9.39111 20.4595C9.20047 18.7462 8.43224 17.1482 7.21338 15.9292C5.99432 14.7102 4.39647 13.9421 2.68311 13.7515L2.1665 13.6938V12.1851L2.84912 12.2612Z" fill="#161616"/>
<path d="M2.94482 19.3276C3.35655 19.3277 3.68994 19.6635 3.68994 20.0776C3.68986 20.4917 3.3565 20.8275 2.94482 20.8276H2.93604C2.52428 20.8276 2.19002 20.4918 2.18994 20.0776C2.18994 19.6634 2.52423 19.3276 2.93604 19.3276H2.94482Z" fill="#161616"/>
</svg>
