<svg width="24" height="24" viewBox="0 0 24 24" fill="none" xmlns="http://www.w3.org/2000/svg">
<path d="M19.4998 8.69091L12.7498 12.4409V19.8921L19.1316 16.3472C19.2763 16.2668 19.3561 16.2218 19.4138 16.185C19.4639 16.1531 19.4654 16.1464 19.4558 16.1567C19.4718 16.1393 19.4836 16.1186 19.491 16.0962C19.4921 16.0883 19.4933 16.0728 19.4949 16.0464C19.499 15.9781 19.4998 15.886 19.4998 15.7202V8.69091ZM11.9226 3.73876C11.8645 3.76681 11.7888 3.80832 11.6521 3.88427L5.29273 7.41649L11.9998 11.1411L18.7058 7.41649L12.3474 3.88427C12.2107 3.80832 12.135 3.76681 12.0769 3.73876C12.0268 3.71461 12.0204 3.7156 12.033 3.71825C12.0111 3.71382 11.9884 3.71382 11.9666 3.71825C11.9791 3.7156 11.9727 3.71461 11.9226 3.73876ZM4.50464 16.0464C4.50624 16.0728 4.50738 16.0883 4.50855 16.0962C4.51597 16.1186 4.52772 16.1393 4.5437 16.1567L4.5857 16.185C4.64339 16.2218 4.7232 16.2668 4.86792 16.3472L11.2498 19.8921V12.4409L4.49976 8.69091V15.7202C4.49976 15.886 4.50053 15.9781 4.50464 16.0464ZM20.9998 15.7202C20.9998 15.9827 21.0089 16.285 20.9158 16.5669C20.8413 16.7922 20.7191 16.9988 20.5584 17.1733C20.3572 17.3916 20.0885 17.5303 19.8591 17.6577L13.0759 21.4263C12.8585 21.5471 12.6125 21.6935 12.3357 21.7505C12.1142 21.796 11.8853 21.796 11.6638 21.7505C11.387 21.6935 11.141 21.5471 10.9236 21.4263L4.14038 17.6577C3.91098 17.5303 3.64235 17.3916 3.44117 17.1733C3.28037 16.9988 3.15818 16.7922 3.08374 16.5669C2.99061 16.285 2.99976 15.9827 2.99976 15.7202V8.27977C2.99976 8.0173 2.9906 7.71501 3.08374 7.43309C3.15818 7.20782 3.28038 7.00112 3.44117 6.82665C3.64235 6.60841 3.911 6.46971 4.14038 6.34227L10.9236 2.57372L11.2712 2.3872C11.3946 2.32847 11.5254 2.27798 11.6638 2.2495C11.8853 2.20394 12.1142 2.20394 12.3357 2.2495C12.6125 2.30647 12.8585 2.45292 13.0759 2.57372L19.8591 6.34227C20.0885 6.46971 20.3572 6.60841 20.5584 6.82665C20.7191 7.00112 20.8413 7.20782 20.9158 7.43309C21.0089 7.71501 20.9998 8.0173 20.9998 8.27977V15.7202Z" fill="#161616"/>
</svg>
