<svg width="24" height="24" viewBox="0 0 24 24" fill="none" xmlns="http://www.w3.org/2000/svg">
<path d="M6.36035 5.2998H6.40625C6.52927 5.2998 6.55886 5.29926 6.58203 5.29785L6.7168 5.28027C7.02553 5.21653 7.28646 5.00209 7.40625 4.7041L7.46289 4.53809C7.4956 4.43996 7.52207 4.35999 7.55176 4.28613L7.62402 4.125C8.00924 3.3358 8.79118 2.80861 9.67676 2.75488L9.94336 2.75H14.0557C14.159 2.75 14.2429 2.75009 14.3223 2.75488L14.498 2.77148C15.3687 2.88727 16.1162 3.46286 16.4473 4.28613L16.5361 4.53809C16.575 4.65466 16.5851 4.68257 16.5938 4.7041L16.6533 4.82715C16.8115 5.09965 17.0975 5.27845 17.418 5.29785L17.6055 5.2998C17.8999 5.2998 18.1036 5.29939 18.2754 5.31641L18.5645 5.35742C19.9908 5.62688 21.0879 6.80704 21.2334 8.27441L21.248 8.55664C21.25 8.66182 21.25 8.78081 21.25 8.9209V17.0996C21.25 17.9577 20.9206 18.7377 20.3848 19.3242L21.5605 20.5L20.5 21.5605L18.7363 19.7969C18.7319 19.7922 18.727 19.788 18.7227 19.7832L14.1289 15.1895C14.1267 15.1877 14.1242 15.1864 14.1221 15.1846C14.0872 15.1553 14.0565 15.1227 14.0283 15.0889L9.3252 10.3857C9.29568 10.3601 9.26714 10.3326 9.24121 10.3018L2.43945 3.5L3.5 2.43945L6.36035 5.2998ZM4.79199 7.73926C4.53424 7.99148 4.35115 8.31976 4.28125 8.68945L4.25879 8.84766C4.25097 8.92682 4.25 9.0306 4.25 9.3457V15.9951C4.25 16.7211 4.2506 17.2209 4.28223 17.6084C4.31316 17.987 4.37026 18.1924 4.44629 18.3418L4.51562 18.4658C4.68851 18.7477 4.93619 18.9779 5.23242 19.1289L5.35742 19.1816C5.49582 19.2311 5.68204 19.2698 5.96582 19.293C6.3534 19.3246 6.85368 19.3252 7.58008 19.3252H16.3779L17.8574 20.8047C17.4533 20.8237 16.9776 20.8252 16.4199 20.8252H7.58008C6.87842 20.8252 6.30658 20.8249 5.84375 20.7871C5.4314 20.7534 5.05499 20.6865 4.70215 20.5352L4.55176 20.4648C4.00857 20.188 3.55431 19.7668 3.2373 19.25L3.10938 19.0234C2.90764 18.6274 2.82563 18.202 2.78711 17.7305C2.74934 17.2678 2.75 16.6964 2.75 15.9951V9.3457C2.75 9.06602 2.74863 8.87075 2.76562 8.69922L2.80762 8.41016C2.93469 7.73782 3.266 7.1405 3.73242 6.67969L4.79199 7.73926ZM9.76758 4.25195C9.4469 4.27141 9.16098 4.45073 9.00293 4.72363L8.94336 4.8457C8.93472 4.86722 8.92549 4.89539 8.88672 5.01172L8.79785 5.26367C8.56854 5.83408 8.13821 6.28383 7.60645 6.5459L9.90234 8.8418C10.5178 8.48107 11.2358 8.27539 12 8.27539C14.2918 8.2755 16.1493 10.133 16.1494 12.4248C16.1494 13.1889 15.9416 13.9052 15.5811 14.5205L19.3203 18.2598C19.5866 17.9456 19.75 17.5425 19.75 17.0996V8.9209C19.75 8.76311 19.7493 8.65816 19.748 8.58301L19.7412 8.42285C19.6619 7.62242 19.0632 6.97805 18.2852 6.83105L18.127 6.80859C18.048 6.8008 17.9377 6.79981 17.6055 6.7998L17.3271 6.7959C16.4413 6.74225 15.6586 6.2143 15.2734 5.4248L15.2021 5.26367C15.1725 5.18982 15.146 5.10982 15.1133 5.01172L15.0557 4.8457C14.9359 4.54786 14.6757 4.33336 14.3672 4.26953L14.2324 4.25195C14.2092 4.25055 14.179 4.25 14.0557 4.25H9.94336L9.76758 4.25195ZM9.39844 12.3457C9.36697 12.5089 9.34964 12.6772 9.34961 12.8496C9.34961 14.3131 10.5365 15.5 12 15.5C12.1721 15.5 12.34 15.4815 12.5029 15.4502L13.6914 16.6387C13.1746 16.8698 12.6027 17 12 17C9.70806 17 7.84961 15.1416 7.84961 12.8496C7.84967 12.2467 7.97868 11.6741 8.20996 11.1572L9.39844 12.3457ZM12 9.77539C11.6543 9.77539 11.3249 9.84197 11.0225 9.96191L14.4619 13.4014C14.5818 13.0991 14.6494 12.7703 14.6494 12.4248C14.6493 10.9614 13.4634 9.7755 12 9.77539Z" fill="#161616"/>
</svg>
