<svg width="24" height="24" viewBox="0 0 24 24" fill="none" xmlns="http://www.w3.org/2000/svg">
<path d="M11.9668 1.78027C12.1803 1.69215 12.4247 1.70691 12.6279 1.82421L20.8779 6.58691C21.1099 6.72081 21.2528 6.96854 21.2529 7.23632V16.7627C21.2529 17.0306 21.1099 17.2781 20.8779 17.4121L12.6279 22.1758C12.3959 22.3097 12.11 22.3097 11.8779 22.1758L3.62793 17.4121C3.396 17.2781 3.25293 17.0306 3.25293 16.7627V7.23632C3.25309 6.96854 3.39601 6.72081 3.62793 6.58691L11.8779 1.82421L11.9668 1.78027ZM4.75293 7.66992V16.3291L12.2529 20.6602L19.7529 16.3291V7.66992L12.2529 3.33886L4.75293 7.66992ZM16.793 10.8643L13.0029 13.0293V17.0635H11.5029V13.0293L7.71289 10.8643L8.45703 9.5625L12.2529 11.7314L16.0488 9.5625L16.793 10.8643Z" fill="#161616"/>
</svg>
