<svg width="24" height="24" viewBox="0 0 24 24" fill="none" xmlns="http://www.w3.org/2000/svg">
<path d="M4.25 12C4.25 16.2802 7.71979 19.75 12 19.75C16.2802 19.75 19.75 16.2802 19.75 12C19.75 7.71979 16.2802 4.25 12 4.25V2.75C17.1086 2.75 21.25 6.89137 21.25 12C21.25 17.1086 17.1086 21.25 12 21.25C6.89137 21.25 2.75 17.1086 2.75 12H4.25ZM12.75 8.62012V12.5215L15.4248 13.4131L14.9502 14.8369L11.7627 13.7744C11.4564 13.6723 11.25 13.3853 11.25 13.0625V8.62012H12.75Z" fill="#161616"/>
<path d="M3.6123 10.6152L4.35254 10.7363C4.28522 11.1471 4.25 11.5692 4.25 12H2.75C2.75 11.4875 2.79164 10.9839 2.87207 10.4932L3.6123 10.6152ZM6.00879 7.08398C5.47541 7.73319 5.04515 8.4702 4.74414 9.26953L3.34082 8.74023C3.70056 7.78506 4.21378 6.90576 4.84961 6.13184L6.00879 7.08398ZM9.26953 4.74414C8.4702 5.04515 7.73319 5.47541 7.08398 6.00879L6.13184 4.84961C6.90576 4.21378 7.78506 3.70056 8.74023 3.34082L9.26953 4.74414ZM12 4.25C11.5692 4.25 11.1471 4.28522 10.7363 4.35254L10.6152 3.6123L10.4932 2.87207C10.9839 2.79164 11.4875 2.75 12 2.75V4.25Z" fill="#161616"/>
</svg>
