<svg width="24" height="24" viewBox="0 0 24 24" fill="none" xmlns="http://www.w3.org/2000/svg">
<path d="M19.2499 5.40039V4H20.7499V5.40039C20.7499 7.06798 20.7508 8.36429 20.666 9.40234C20.5911 10.3183 20.4464 11.0838 20.1503 11.7734L20.0146 12.0645C19.4079 13.2552 18.4621 14.2373 17.2997 14.8887L17.0644 15.0146C16.2995 15.4044 15.4489 15.5805 14.4023 15.666C13.3642 15.7508 12.0679 15.75 10.4003 15.75H5.81049L9.53022 19.4697L8.46967 20.5303L3.46967 15.5303C3.17678 15.2374 3.17678 14.7626 3.46967 14.4697L8.46967 9.46973L9.53022 10.5303L5.81049 14.25H10.4003C12.0924 14.25 13.3165 14.2495 14.2792 14.1709C15.2334 14.0929 15.8653 13.9419 16.3837 13.6777L16.5663 13.5801C17.4704 13.0735 18.2058 12.3098 18.6777 11.3838L18.7714 11.1836C18.9784 10.7024 19.1026 10.1143 19.1708 9.2793C19.2495 8.31655 19.2499 7.09247 19.2499 5.40039Z" fill="#161616"/>
</svg>
