<svg width="24" height="24" viewBox="0 0 24 24" fill="none" xmlns="http://www.w3.org/2000/svg">
<path d="M12.9209 14.9785L10.4014 21.2783L9.00879 20.7217L11.5283 14.4219L12.9209 14.9785ZM9.34473 12.9004L10.041 13.1787L7.52148 19.4785L6.12891 18.9219L8.64844 12.6211L9.34473 12.9004ZM16.5449 12.9004L17.2412 13.1787L14.7217 19.4785L13.3291 18.9219L15.8486 12.6211L16.5449 12.9004ZM20.25 11.5498C20.2499 9.8317 18.936 8.41998 17.2588 8.26465C16.9191 8.23308 16.6432 7.97534 16.5879 7.63867C16.225 5.43288 14.3084 3.75 12 3.75C9.76364 3.75 7.89461 5.32938 7.4502 7.43359L7.41211 7.63867C7.36368 7.93327 7.14634 8.16728 6.86523 8.24219L6.74121 8.26465C5.06403 8.41998 3.7501 9.8317 3.75 11.5498C3.75 12.6932 4.33063 13.7016 5.2168 14.2949L4.38281 15.541C3.09838 14.6812 2.25 13.2147 2.25 11.5498C2.25009 9.24357 3.87634 7.31876 6.04492 6.85645C6.72997 4.2068 9.13608 2.25 12 2.25C14.8638 2.25 17.269 4.20692 17.9541 6.85645C20.1231 7.31841 21.7499 9.24324 21.75 11.5498C21.75 13.2147 20.9016 14.6812 19.6172 15.541L18.7832 14.2949C19.6694 13.7016 20.25 12.6932 20.25 11.5498Z" fill="#161616"/>
</svg>
