<svg width="24" height="24" viewBox="0 0 24 24" fill="none" xmlns="http://www.w3.org/2000/svg">
<path d="M19.25 8C19.25 7.02195 19.2431 6.68003 19.1729 6.41797C18.9648 5.64151 18.3585 5.0352 17.5821 4.82715C17.402 4.77892 17.1842 4.76053 16.7481 4.75391C16.7463 4.88524 16.7425 5.00789 16.7334 5.11816C16.716 5.33121 16.6769 5.56473 16.5596 5.79492C16.3919 6.12403 16.1241 6.39182 15.795 6.55957C15.5648 6.67686 15.3313 6.71597 15.1182 6.7334C14.9139 6.75009 14.6679 6.75 14.4004 6.75H9.59966C9.33216 6.75 9.08616 6.75009 8.88188 6.7334C8.66884 6.71597 8.43531 6.67686 8.20512 6.55957C7.87602 6.39182 7.60822 6.12403 7.44048 5.79492C7.32319 5.56473 7.28408 5.33121 7.26665 5.11816C7.25764 5.00788 7.25278 4.88524 7.25102 4.75391C6.81554 4.76054 6.59798 4.77895 6.41802 4.82715C5.64156 5.0352 5.03525 5.64151 4.82719 6.41797C4.75701 6.68003 4.75005 7.02195 4.75005 8V17.2002C4.75005 18.0525 4.75034 18.6468 4.78813 19.1094C4.82521 19.5632 4.89454 19.824 4.99516 20.0215C5.21088 20.4448 5.5552 20.7892 5.97856 21.0049C6.17607 21.1055 6.43685 21.1748 6.89067 21.2119C7.35327 21.2497 7.9475 21.25 8.79985 21.25H15.2002C16.0526 21.25 16.6468 21.2497 17.1094 21.2119C17.5632 21.1748 17.824 21.1055 18.0215 21.0049C18.4449 20.7892 18.7892 20.4448 19.0049 20.0215C19.1056 19.824 19.1749 19.5632 19.212 19.1094C19.2498 18.6468 19.25 18.0525 19.25 17.2002V8ZM16.5606 12.5L11.5303 17.5303C11.2374 17.8232 10.7627 17.8232 10.4698 17.5303L7.9395 15L9.00005 13.9395L11 15.9395L15.5 11.4395L16.5606 12.5ZM9.59966 2.75C9.30749 2.75 9.13302 2.7502 9.00395 2.76074C8.88389 2.77058 8.87039 2.78569 8.88677 2.77734C8.83972 2.80131 8.80136 2.83968 8.77739 2.88672C8.78574 2.87034 8.77062 2.88384 8.76079 3.00391C8.75024 3.13298 8.75005 3.30744 8.75005 3.59961V4.40039L8.752 4.75879C8.75346 4.85517 8.75551 4.93146 8.76079 4.99609C8.77062 5.11616 8.78574 5.12966 8.77739 5.11328C8.80136 5.16032 8.83972 5.19869 8.88677 5.22266C8.87039 5.21431 8.88389 5.22942 9.00395 5.23926C9.13302 5.2498 9.30749 5.25 9.59966 5.25H14.4004C14.6926 5.25 14.8671 5.2498 14.9961 5.23926C15.1162 5.22942 15.1297 5.21431 15.1133 5.22266C15.1604 5.19869 15.1987 5.16032 15.2227 5.11328C15.2144 5.12966 15.2295 5.11616 15.2393 4.99609C15.2446 4.93146 15.2466 4.85517 15.2481 4.75879L15.25 4.40039V3.59961C15.25 3.30744 15.2498 3.13298 15.2393 3.00391C15.2295 2.88384 15.2144 2.87034 15.2227 2.88672C15.1987 2.83968 15.1604 2.80131 15.1133 2.77734C15.1297 2.78569 15.1162 2.77058 14.9961 2.76074C14.8671 2.7502 14.6926 2.75 14.4004 2.75H9.59966ZM20.75 17.2002C20.75 18.0278 20.751 18.6936 20.7071 19.2314C20.6624 19.7781 20.5672 20.2579 20.3409 20.7021C19.9813 21.4078 19.4078 21.9813 18.7022 22.3408C18.258 22.5671 17.7781 22.6624 17.2315 22.707C16.6937 22.751 16.0278 22.75 15.2002 22.75H8.79985C7.97227 22.75 7.30643 22.751 6.7686 22.707C6.22199 22.6624 5.7421 22.5671 5.2979 22.3408C4.59229 21.9813 4.01875 21.4078 3.65923 20.7021C3.43291 20.2579 3.33767 19.7781 3.29301 19.2314C3.24908 18.6936 3.25005 18.0278 3.25005 17.2002V8C3.25005 7.11831 3.24376 6.53021 3.37798 6.0293C3.72475 4.73533 4.73538 3.72471 6.02934 3.37793C6.37321 3.28579 6.75825 3.26106 7.25102 3.25391C7.25272 3.11961 7.25746 2.9943 7.26665 2.88184C7.28408 2.66879 7.32319 2.43527 7.44048 2.20508C7.60822 1.87597 7.87602 1.60818 8.20512 1.44043C8.43531 1.32314 8.66884 1.28403 8.88188 1.2666C9.08616 1.24991 9.33216 1.25 9.59966 1.25H14.4004C14.6679 1.25 14.9139 1.24991 15.1182 1.2666C15.3313 1.28403 15.5648 1.32314 15.795 1.44043C16.1241 1.60818 16.3919 1.87597 16.5596 2.20508C16.6769 2.43527 16.716 2.66879 16.7334 2.88184C16.7426 2.9943 16.7464 3.11961 16.7481 3.25391C17.2413 3.26104 17.6267 3.28573 17.9707 3.37793C19.2647 3.72471 20.2753 4.73533 20.6221 6.0293C20.7563 6.53021 20.75 7.11831 20.75 8V17.2002Z" fill="#161616"/>
</svg>
