<svg width="24" height="24" viewBox="0 0 24 24" fill="none" xmlns="http://www.w3.org/2000/svg">
<path d="M11.2498 18.0594H12.7498V19.826L14.3533 18.9354L15.0818 20.2459L13.0759 21.3602C12.8857 21.4659 12.6737 21.5912 12.4382 21.659L12.3357 21.6844C12.1694 21.7186 11.9991 21.727 11.8308 21.7098L11.6638 21.6844C11.5254 21.6559 11.3946 21.6055 11.2712 21.5467L10.9236 21.3602L8.91773 20.2459L9.64624 18.9354L11.2498 19.826V18.0594ZM2.99976 15.6541V13.4754H4.49976V15.6541C4.49976 15.8199 4.50053 15.912 4.50464 15.9803C4.50624 16.0067 4.50738 16.0223 4.50855 16.0301C4.51597 16.0526 4.52772 16.0733 4.5437 16.0907L4.5857 16.119C4.64339 16.1557 4.7232 16.2007 4.86792 16.2811L6.83179 17.3719L6.10327 18.6834L4.14038 17.5916C3.9396 17.4801 3.70862 17.36 3.51929 17.1854L3.44117 17.1073C3.28037 16.9328 3.15818 16.7261 3.08374 16.5008C2.99061 16.2189 2.99976 15.9166 2.99976 15.6541ZM19.4998 15.6541V13.4754H20.9998V15.6541C20.9998 15.8838 21.0068 16.1441 20.946 16.3944L20.9158 16.5008C20.8413 16.7261 20.7191 16.9328 20.5584 17.1073C20.3572 17.3255 20.0885 17.4642 19.8591 17.5916L17.8962 18.6834L17.1677 17.3719L19.1316 16.2811L19.4138 16.119C19.4639 16.0871 19.4654 16.0804 19.4558 16.0907C19.4718 16.0733 19.4836 16.0526 19.491 16.0301L19.4949 15.9803C19.499 15.912 19.4998 15.8199 19.4998 15.6541ZM11.2498 12.3748L8.91773 11.0799L9.64624 9.7684L11.9998 11.075L14.3533 9.7684L15.0818 11.0799L12.7498 12.3748V14.9754H11.2498V12.3748ZM2.99976 8.21372C2.99976 7.95124 2.9906 7.64895 3.08374 7.36704L3.1482 7.202C3.22137 7.04052 3.32052 6.89151 3.44117 6.76059L3.51929 6.68247C3.70861 6.50786 3.93961 6.38776 4.14038 6.27622L6.10327 5.18539L6.83179 6.49594L6.17652 6.8602L5.2937 7.34946L6.83179 8.20493L6.10327 9.51645L4.49976 8.62485V10.3924H2.99976V8.21372ZM19.4998 8.62485L17.8962 9.51645L17.1677 8.20493L18.7048 7.34946L17.1677 6.49594L17.8962 5.18539L19.8591 6.27622L20.2195 6.48422C20.3404 6.56215 20.4577 6.65145 20.5584 6.76059L20.6716 6.89731C20.7772 7.03965 20.8599 7.19805 20.9158 7.36704L20.946 7.47348C21.0068 7.72381 20.9998 7.984 20.9998 8.21372V10.3924H19.4998V8.62485ZM11.8308 2.15805C11.9991 2.14091 12.1694 2.14924 12.3357 2.18344L12.4382 2.20883C12.6737 2.27662 12.8857 2.40199 13.0759 2.50766L15.0818 3.62192L14.3533 4.93344L12.3474 3.81821C12.2107 3.74226 12.135 3.70075 12.0769 3.6727L12.033 3.65219H11.9666C11.9791 3.64954 11.9727 3.64855 11.9226 3.6727C11.8645 3.70075 11.7888 3.74226 11.6521 3.81821L9.64624 4.93344L8.91773 3.62192L10.9236 2.50766L11.2712 2.32114C11.3946 2.26241 11.5254 2.21192 11.6638 2.18344L11.8308 2.15805Z" fill="#161616"/>
</svg>
