<svg width="24" height="24" viewBox="0 0 24 24" fill="none" xmlns="http://www.w3.org/2000/svg">
<path d="M20.2422 7.62695C20.1653 6.87107 19.5268 6.28138 18.75 6.28125H5.25C4.42157 6.28126 3.75001 6.95283 3.75 7.78125V8.71875H20.25V7.78027L20.2422 7.62695ZM9.6582 12.6973V14.1973H6.45801V12.6973H9.6582ZM3.75 16.2188C3.75005 17.0471 4.42171 17.7186 5.25 17.7188H18.75C19.5271 17.7188 20.1654 17.129 20.2422 16.373L20.25 16.2197V10.2188H3.75V16.2188ZM21.75 16.2197L21.7461 16.374C21.6658 17.9595 20.3547 19.2188 18.75 19.2188H5.25C3.59329 19.2186 2.25005 17.8755 2.25 16.2188V7.78125C2.25001 6.1244 3.59314 4.78126 5.25 4.78125H18.75C20.4063 4.78139 21.7499 6.12328 21.75 7.78027V16.2197Z" fill="#161616"/>
</svg>
