<svg width="24" height="24" viewBox="0 0 24 24" fill="none" xmlns="http://www.w3.org/2000/svg">
<path fill-rule="evenodd" clip-rule="evenodd" d="M11.2979 7.73777C11.6426 5.20324 13.8155 3.25 16.4447 3.25C19.3135 3.25 21.6391 5.57563 21.6391 8.44444C21.6391 9.98806 20.9656 11.3737 19.8982 12.3245C20.961 13.1956 21.6391 14.5186 21.6391 16C21.6391 18.6234 19.5125 20.75 16.8891 20.75H7.55577C4.68696 20.75 2.36133 18.4244 2.36133 15.5556C2.36133 12.8063 4.49716 10.5559 7.20006 10.3731C8.07633 8.95506 9.5647 7.95313 11.2979 7.73777ZM12.8148 7.75284C14.8409 8.04596 16.5173 9.41612 17.2468 11.2633C17.6782 11.2954 18.0936 11.3851 18.4852 11.5248C19.4832 10.8623 20.1391 9.72951 20.1391 8.44444C20.1391 6.40406 18.485 4.75 16.4447 4.75C14.6407 4.75 13.1386 6.04302 12.8148 7.75284ZM12.0002 9.19444C10.3926 9.19444 8.99772 10.1108 8.31184 11.4532C8.18126 11.7088 7.9163 11.8674 7.62937 11.8618C7.60489 11.8614 7.58035 11.8611 7.55577 11.8611C5.51539 11.8611 3.86133 13.5152 3.86133 15.5556C3.86133 17.5959 5.51539 19.25 7.55577 19.25H16.8891C18.684 19.25 20.1391 17.7949 20.1391 16C20.1391 14.2051 18.684 12.75 16.8891 12.75C16.8391 12.75 16.7894 12.7511 16.74 12.7534C16.3919 12.769 16.0789 12.5429 15.9844 12.2076C15.4941 10.4682 13.8949 9.19444 12.0002 9.19444Z" fill="#161616"/>
</svg>
