<svg width="24" height="24" viewBox="0 0 24 24" fill="none" xmlns="http://www.w3.org/2000/svg">
<path d="M20.0713 12C20.0713 7.71979 16.6015 4.25 12.3213 4.25C8.04108 4.25 4.57129 7.71979 4.57129 12C4.57129 16.2802 8.04108 19.75 12.3213 19.75C16.6015 19.75 20.0713 16.2802 20.0713 12ZM16.8838 11.5576C16.8838 9.38569 15.2031 7.60642 13.0713 7.44922V16.5498C15.203 16.3926 16.8838 14.6143 16.8838 12.4424V11.5576ZM21.5713 12C21.5713 17.1086 17.4299 21.25 12.3213 21.25C7.21266 21.25 3.07129 17.1086 3.07129 12C3.07129 6.89137 7.21266 2.75 12.3213 2.75C17.4299 2.75 21.5713 6.89137 21.5713 12ZM18.3838 12.4424C18.3838 15.5461 15.8674 18.0625 12.7637 18.0625C12.1052 18.0623 11.5715 17.5286 11.5713 16.8701V7.12988C11.5715 6.47143 12.1052 5.93768 12.7637 5.9375L13.0527 5.94434C16.0223 6.09461 18.3838 8.55072 18.3838 11.5576V12.4424Z" fill="#161616"/>
</svg>
