<svg width="24" height="24" viewBox="0 0 24 24" fill="none" xmlns="http://www.w3.org/2000/svg">
<path d="M2.74998 11.8721C2.74998 6.76344 6.89135 2.62207 12 2.62207C17.1086 2.62207 21.25 6.76344 21.25 11.8721H19.75C19.75 7.59186 16.2802 4.12207 12 4.12207C7.71978 4.12207 4.24998 7.59186 4.24998 11.8721C4.24998 16.1523 7.71978 19.6221 12 19.6221C12.4976 19.6221 12.9837 19.5756 13.4541 19.4863L13.7334 20.96C13.1713 21.0666 12.5918 21.1221 12 21.1221C6.89135 21.1221 2.74998 16.9807 2.74998 11.8721ZM12.75 8.49219V12.3936L15.4248 13.2852L14.9502 14.709L11.7627 13.6465C11.4564 13.5444 11.25 13.2574 11.25 12.9346V8.49219H12.75Z" fill="#161616"/>
<path d="M21.1514 14.4463V15.9463H20.9258C20.8105 16.4575 20.5803 16.939 20.2451 17.3506L19.7842 17.916L20.1748 18.3701C20.5492 18.8056 20.804 19.3248 20.9267 19.8779H21.1514V21.3779H15.8974V19.8779H16.1416C16.2644 19.3248 16.5192 18.8056 16.8935 18.3701L17.2832 17.916L16.8232 17.3506C16.488 16.939 16.2578 16.4575 16.1426 15.9463H15.8974V14.4463H21.1514ZM18.5332 18.7637L18.0312 19.3477C17.8943 19.507 17.7861 19.6868 17.707 19.8779H19.3613C19.2823 19.6868 19.1741 19.507 19.0371 19.3477L18.5351 18.7637L18.5342 18.7617L18.5332 18.7637ZM17.7109 15.9463C17.7806 16.1096 17.8726 16.2637 17.9863 16.4033L18.5342 17.0762L19.082 16.4033C19.1956 16.2638 19.2868 16.1095 19.3564 15.9463H17.7109Z" fill="#161616"/>
</svg>
