<svg width="24" height="24" viewBox="0 0 24 24" fill="none" xmlns="http://www.w3.org/2000/svg">
<path d="M7.47266 13.5107C7.47266 11.9367 7.47152 10.7109 7.55176 9.72852C7.63275 8.73728 7.80027 7.92763 8.17188 7.19824L8.29102 6.97461C8.91016 5.86952 9.84358 4.97036 10.9756 4.39355L11.2529 4.26367C11.9101 3.98154 12.6384 3.8453 13.5059 3.77441C14.4884 3.69414 15.7146 3.69434 17.2891 3.69434H20.5V5.19434H17.2891C15.6899 5.19434 14.5352 5.1954 13.6279 5.26953C12.8416 5.33379 12.2914 5.4496 11.8428 5.64258L11.6572 5.73047C10.79 6.17234 10.074 6.86051 9.59961 7.70703L9.50781 7.87891C9.26189 8.36161 9.12028 8.95212 9.04688 9.85059C8.97278 10.7578 8.97266 11.9119 8.97266 13.5107V17.7441L12.4141 14.3027L13.4746 15.3633L8.75293 20.0859C8.61238 20.2265 8.42141 20.3055 8.22266 20.3057C8.02374 20.3057 7.83206 20.2266 7.69141 20.0859L2.96973 15.3633L4.03027 14.3027L7.47266 17.7451V13.5107Z" fill="#161616"/>
</svg>
