<svg width="24" height="24" viewBox="0 0 24 24" fill="none" xmlns="http://www.w3.org/2000/svg">
<path d="M17.5947 20.6035L16.9258 21.9463L16.2549 21.6123L16.9238 20.2695L17.5947 20.6035ZM10.3037 15.3096C10.3037 15.0611 10.102 14.8595 9.85352 14.8594H5.44336C5.19503 14.8596 4.99414 15.0612 4.99414 15.3096V19.7188C4.99414 19.9671 5.19504 20.1687 5.44336 20.1689H9.85352C10.102 20.1689 10.3037 19.9672 10.3037 19.7188V15.3096ZM21.877 12.8154L21.875 13.0771C21.8436 14.4155 21.4581 16.1313 20.3428 17.5781C19.4894 18.6849 18.2405 19.5878 16.4961 20.0557L16.9238 20.2695L16.5889 20.9404L16.2549 21.6123L13.6631 20.3213C13.3548 20.1677 13.1911 19.8235 13.2656 19.4873C13.3402 19.151 13.6342 18.9082 13.9785 18.8994C16.6813 18.8305 18.2484 17.8384 19.1553 16.6621C20.0277 15.5304 20.3484 14.1495 20.375 13.0479L20.377 12.8311L20.3691 12.0811L21.8691 12.0654L21.877 12.8154ZM10.9795 3.67969C11.2877 3.83327 11.4514 4.1765 11.377 4.5127C11.3023 4.84899 11.0084 5.09181 10.6641 5.10059C7.96133 5.16955 6.39416 6.1616 5.4873 7.33789C4.61487 8.46956 4.29417 9.85052 4.26758 10.9521L4.26562 11.1689L4.27441 11.9189L2.77441 11.9346L2.76562 11.1846L2.76758 10.9229C2.79903 9.58462 3.1846 7.86955 4.2998 6.42285C5.15319 5.31589 6.40181 4.4113 8.14648 3.94336L7.71973 3.73047L7.04785 3.39648L7.7168 2.05371L10.9795 3.67969ZM19.6504 6.66895C19.6504 5.10189 18.3796 3.83105 16.8125 3.83105C15.2455 3.83114 13.9756 5.10194 13.9756 6.66895C13.9757 8.23584 15.2456 9.50578 16.8125 9.50586C18.3795 9.50586 19.6503 8.23589 19.6504 6.66895ZM11.8037 19.7188C11.8037 20.7957 10.9304 21.6689 9.85352 21.6689H5.44336C4.36661 21.6687 3.49414 20.7956 3.49414 19.7188V15.3096C3.49414 14.2328 4.36661 13.3596 5.44336 13.3594H9.85352C10.9304 13.3595 11.8037 14.2327 11.8037 15.3096V19.7188ZM21.1504 6.66895C21.1503 9.06431 19.2079 11.0059 16.8125 11.0059C14.4172 11.0058 12.4757 9.06426 12.4756 6.66895C12.4756 4.27351 14.4171 2.33114 16.8125 2.33105C19.208 2.33105 21.1504 4.27346 21.1504 6.66895Z" fill="#161616"/>
</svg>
