<svg width="24" height="24" viewBox="0 0 24 24" fill="none" xmlns="http://www.w3.org/2000/svg">
<path d="M19.7129 7.20422C21.1457 7.20435 21.9715 8.8324 21.125 9.9884L16.6641 16.0802C16.3345 16.5302 15.8097 16.796 15.252 16.796H4.28712C2.85435 16.7959 2.02862 15.1679 2.87501 14.0118L7.33594 7.92004C7.66553 7.46999 8.19022 7.20424 8.74805 7.20422H19.7129ZM8.74805 8.70422C8.66841 8.70424 8.59396 8.74252 8.54688 8.80676L4.08594 14.8976C3.96502 15.0627 4.08248 15.2959 4.28712 15.296H15.252C15.3315 15.296 15.4061 15.2576 15.4531 15.1935L19.9141 9.10168C20.035 8.93658 19.9175 8.70435 19.7129 8.70422H8.74805Z" fill="#161616"/>
</svg>
