<svg width="24" height="24" viewBox="0 0 24 24" fill="none" xmlns="http://www.w3.org/2000/svg">
<path d="M11.1905 14.1768C11.815 13.5523 12.8278 13.5523 13.4522 14.1768L15.8741 16.5986C16.4983 17.223 16.4983 18.235 15.8741 18.8594L13.4522 21.2812C12.8278 21.9057 11.815 21.9057 11.1905 21.2812L8.76865 18.8594C8.1445 18.235 8.14447 17.223 8.76865 16.5986L11.1905 14.1768ZM12.3917 15.2373C12.353 15.1986 12.2897 15.1986 12.2511 15.2373L9.82919 17.6592C9.7908 17.6978 9.79084 17.7602 9.82919 17.7988L12.2511 20.2207C12.2898 20.2594 12.353 20.2594 12.3917 20.2207L14.8136 17.7988C14.8519 17.7602 14.852 17.6978 14.8136 17.6592L12.3917 15.2373ZM5.46201 8.44727C6.08643 7.82312 7.09835 7.82309 7.72275 8.44727L10.1446 10.8691C10.7691 11.4936 10.7691 12.5064 10.1446 13.1309L7.72275 15.5527C7.09835 16.1769 6.08643 16.1769 5.46201 15.5527L3.04013 13.1309C2.41566 12.5064 2.41566 11.4936 3.04013 10.8691L5.46201 8.44727ZM16.92 8.44727C17.5444 7.82309 18.5563 7.82312 19.1808 8.44727L21.6026 10.8691C22.2271 11.4936 22.2271 12.5064 21.6026 13.1309L19.1808 15.5527C18.5563 16.1769 17.5444 16.1769 16.92 15.5527L14.4981 13.1309C13.8737 12.5064 13.8737 11.4936 14.4981 10.8691L16.92 8.44727ZM6.6622 9.50781C6.62358 9.46942 6.56118 9.46946 6.52255 9.50781L4.10068 11.9297C4.06199 11.9684 4.06199 12.0316 4.10068 12.0703L6.52255 14.4922C6.56119 14.5305 6.62359 14.5306 6.6622 14.4922L9.08408 12.0703C9.12276 12.0316 9.12276 11.9684 9.08408 11.9297L6.6622 9.50781ZM18.1202 9.50781C18.0816 9.46946 18.0192 9.46943 17.9806 9.50781L15.5587 11.9297C15.52 11.9684 15.52 12.0316 15.5587 12.0703L17.9806 14.4922C18.0192 14.5306 18.0816 14.5305 18.1202 14.4922L20.5421 12.0703C20.5808 12.0316 20.5808 11.9684 20.5421 11.9297L18.1202 9.50781ZM11.3126 2.6084C11.9407 2.09645 12.8669 2.13343 13.4522 2.71875L15.8741 5.14063C16.4983 5.76505 16.4983 6.77697 15.8741 7.40137L13.4522 9.82324C12.8278 10.4477 11.815 10.4477 11.1905 9.82324L8.76865 7.40137C8.14447 6.77697 8.1445 5.76505 8.76865 5.14063L11.1905 2.71875L11.3126 2.6084ZM12.3917 3.7793C12.353 3.74061 12.2898 3.74061 12.2511 3.7793L9.82919 6.20117C9.79084 6.23981 9.79081 6.30221 9.82919 6.34082L12.2511 8.7627C12.2898 8.80138 12.353 8.80138 12.3917 8.7627L14.8136 6.34082C14.852 6.30221 14.8519 6.23981 14.8136 6.20117L12.3917 3.7793Z" fill="#161616"/>
</svg>
