<svg width="24" height="24" viewBox="0 0 24 24" fill="none" xmlns="http://www.w3.org/2000/svg">
<path d="M20.0498 19.0398C20.0497 18.4821 19.5978 18.03 19.04 18.03C18.4824 18.0301 18.0304 18.4821 18.0303 19.0398C18.0303 19.5975 18.4823 20.0495 19.04 20.0496C19.5978 20.0496 20.0498 19.5976 20.0498 19.0398ZM20.0498 11.9998C20.0497 11.442 19.5978 10.99 19.04 10.99C18.4824 10.9901 18.0304 11.4421 18.0303 11.9998C18.0303 12.5575 18.4823 13.0094 19.04 13.0095C19.5978 13.0095 20.0498 12.5576 20.0498 11.9998ZM3.9502 11.9998C3.9502 12.5575 4.40226 13.0094 4.95996 13.0095C5.51777 13.0095 5.96973 12.5576 5.96973 11.9998C5.96962 11.442 5.5177 10.99 4.95996 10.99C4.40233 10.9901 3.9503 11.4421 3.9502 11.9998ZM20.0498 4.95972C20.0497 4.40202 19.5978 3.94995 19.04 3.94995C18.4824 3.95004 18.0304 4.40207 18.0303 4.95972C18.0303 5.51747 18.4823 5.9694 19.04 5.96948C19.5978 5.96948 20.0498 5.51752 20.0498 4.95972ZM21.5498 4.95972C21.5498 6.34595 20.4263 7.46948 19.04 7.46948C17.915 7.46941 16.9623 6.72975 16.6436 5.70972H12.2197C12.1483 5.70997 12.09 5.76812 12.0898 5.8396V11.2498H16.6436C16.9625 10.2299 17.9151 9.49006 19.04 9.48999C20.4262 9.48999 21.5497 10.6136 21.5498 11.9998C21.5498 13.386 20.4263 14.5095 19.04 14.5095C17.915 14.5095 16.9623 13.7698 16.6436 12.7498H12.0898V18.1599C12.0898 18.2316 12.1481 18.2895 12.2197 18.2898H16.6436C16.9624 17.2699 17.9151 16.5301 19.04 16.53C20.4262 16.53 21.5497 17.6536 21.5498 19.0398C21.5498 20.426 20.4263 21.5496 19.04 21.5496C17.915 21.5495 16.9624 20.8098 16.6436 19.7898H12.2197C11.3197 19.7895 10.5898 19.06 10.5898 18.1599V12.7498H7.35645C7.03761 13.7698 6.08504 14.5095 4.95996 14.5095C3.57383 14.5094 2.4502 13.3859 2.4502 11.9998C2.4503 10.6137 3.5739 9.49012 4.95996 9.48999C6.08491 9.48999 7.0375 10.2299 7.35645 11.2498H10.5898V5.8396C10.59 4.93969 11.3198 4.20997 12.2197 4.20972H16.6436C16.9625 3.1899 17.9151 2.45002 19.04 2.44995C20.4262 2.44995 21.5497 3.57359 21.5498 4.95972Z" fill="#161616"/>
</svg>
