<svg width="24" height="24" viewBox="0 0 24 24" fill="none" xmlns="http://www.w3.org/2000/svg">
<path d="M21.2295 20.1494L20.1689 21.21L17.835 18.876C17.5286 18.9379 17.2121 18.9717 16.8887 18.9717H7.11133C4.48798 18.9717 2.36133 16.845 2.36133 14.2217C2.36161 11.9405 3.96963 10.0365 6.11426 9.57812C6.27187 8.97146 6.51922 8.40116 6.84277 7.88379L4.16895 5.20996L5.22949 4.14941L21.2295 20.1494ZM7.94043 8.98145C7.71667 9.4066 7.55816 9.87102 7.47754 10.3613C7.42897 10.6559 7.21187 10.8891 6.93066 10.9639L6.80664 10.9863C5.15516 11.1394 3.86163 12.5299 3.86133 14.2217C3.86133 16.0166 5.3164 17.4717 7.11133 17.4717H16.4307L7.94043 8.98145ZM12.001 5.02734C14.8317 5.02734 17.21 6.96116 17.8896 9.5791C20.0332 10.0385 21.6396 11.9422 21.6396 14.2227C21.6395 15.4495 21.1738 16.5674 20.4102 17.4102L19.3457 16.3457C19.8387 15.776 20.1395 15.0352 20.1396 14.2227C20.1396 12.6364 19.0031 11.3144 17.5 11.0293L17.1943 10.9863C16.8548 10.9548 16.579 10.6978 16.5234 10.3613C16.1658 8.18711 14.2763 6.52832 12.001 6.52832C11.28 6.52836 10.5973 6.69349 9.99023 6.99023L8.88477 5.88477C9.79605 5.34025 10.8621 5.02739 12.001 5.02734Z" fill="#161616"/>
</svg>
