<svg width="24" height="24" viewBox="0 0 24 24" fill="none" xmlns="http://www.w3.org/2000/svg">
<path d="M19.5 17.1335C19.4999 16.5722 19.0355 16.1003 18.4414 16.1003H5.55859C4.96454 16.1003 4.50006 16.5722 4.5 17.1335V19.8093H3V17.1335C3.00006 15.7246 4.15542 14.6003 5.55859 14.6003H18.4414C19.8446 14.6003 20.9999 15.7246 21 17.1335V19.8093H19.5V17.1335ZM3.80469 10.8093L3.88184 10.8132C4.25997 10.8517 4.55466 11.1711 4.55469 11.5593C4.55469 11.9476 4.25998 12.267 3.88184 12.3054L3.80469 12.3093H3.75C3.33579 12.3093 3 11.9735 3 11.5593C3.00003 11.1451 3.33581 10.8093 3.75 10.8093H3.80469ZM7.86133 10.8093L7.9375 10.8132C8.31587 10.8514 8.6113 11.1709 8.61133 11.5593C8.61133 11.9478 8.31589 12.2672 7.9375 12.3054L7.86133 12.3093H7.80664C7.39243 12.3093 7.05664 11.9735 7.05664 11.5593C7.05667 11.1451 7.39245 10.8093 7.80664 10.8093H7.86133ZM12.0273 10.8093L12.1045 10.8132C12.4825 10.8518 12.7773 11.1711 12.7773 11.5593C12.7773 11.9476 12.4825 12.2669 12.1045 12.3054L12.0273 12.3093H11.9727C11.5584 12.3093 11.2227 11.9735 11.2227 11.5593C11.2227 11.1451 11.5585 10.8093 11.9727 10.8093H12.0273ZM16.1387 10.8093L16.2158 10.8132C16.5938 10.8518 16.8886 11.1712 16.8887 11.5593C16.8887 11.9475 16.5938 12.2668 16.2158 12.3054L16.1387 12.3093H16.084C15.6698 12.3093 15.334 11.9735 15.334 11.5593C15.334 11.1451 15.6698 10.8093 16.084 10.8093H16.1387ZM20.25 10.8093L20.3271 10.8132C20.7051 10.8518 21 11.1712 21 11.5593C21 11.9475 20.7051 12.2668 20.3271 12.3054L20.25 12.3093H20.1953C19.7811 12.3093 19.4453 11.9735 19.4453 11.5593C19.4453 11.1451 19.7811 10.8093 20.1953 10.8093H20.25ZM3 5.98511V3.30933H4.5V5.98511C4.50006 6.54642 4.96454 7.01831 5.55859 7.01831H18.4414C19.0355 7.01831 19.4999 6.54642 19.5 5.98511V3.30933H21V5.98511C20.9999 7.39402 19.8446 8.51831 18.4414 8.51831H5.55859C4.15542 8.51831 3.00006 7.39402 3 5.98511Z" fill="#161616"/>
</svg>
