<svg width="24" height="24" viewBox="0 0 24 24" fill="none" xmlns="http://www.w3.org/2000/svg">
<path fill-rule="evenodd" clip-rule="evenodd" d="M10.6196 2.3772C12.5692 2.37726 14.3682 2.67225 15.7065 3.17407C16.3727 3.42393 16.9646 3.73975 17.4028 4.12817C17.8399 4.51578 18.1915 5.04066 18.1918 5.68481L18.1908 9.41528H16.6908V7.74146C16.3912 7.91203 16.0589 8.064 15.7055 8.19653C14.3671 8.69833 12.5682 8.99339 10.6186 8.99341C8.66878 8.99336 6.86908 8.69843 5.53069 8.19653C5.1775 8.06404 4.84584 7.91197 4.54632 7.74146V11.6204L4.55511 11.6829C4.57552 11.7612 4.64019 11.8869 4.82952 12.0549C5.08158 12.2784 5.49018 12.5138 6.05804 12.7268C6.92038 13.0502 8.06352 13.2871 9.3637 13.3821V14.885C7.90362 14.7872 6.57622 14.5232 5.53069 14.1311C5.17752 13.9986 4.84585 13.8465 4.54632 13.676V17.6233C4.54633 17.685 4.57715 17.8339 4.82952 18.0579C5.08158 18.2813 5.49018 18.5167 6.05804 18.7297C6.92038 19.0531 8.06352 19.29 9.3637 19.385V20.8879C7.90362 20.7904 6.57622 20.5271 5.53069 20.135C4.86449 19.8851 4.27256 19.5694 3.8344 19.1809C3.39712 18.7931 3.04633 18.2679 3.04632 17.6233L3.04632 5.68481C3.04667 5.04071 3.39737 4.51578 3.8344 4.12817C4.27264 3.73963 4.86532 3.42398 5.53167 3.17407C6.87012 2.67223 8.66978 2.3772 10.6196 2.3772ZM10.6196 3.8772C8.80199 3.8772 7.18863 4.15446 6.05804 4.57837C5.49019 4.79136 5.08158 5.02774 4.82952 5.25122C4.57717 5.47518 4.54632 5.62413 4.54632 5.68579C4.54642 5.74766 4.57731 5.89663 4.82952 6.12036C5.08158 6.34384 5.49019 6.57925 6.05804 6.79224C7.18854 7.21613 8.80115 7.49336 10.6186 7.49341C12.436 7.49339 14.0486 7.21611 15.1791 6.79224C15.7468 6.57936 16.1545 6.34375 16.4067 6.12036C16.6592 5.89643 16.6917 5.74769 16.6918 5.68579C16.6918 5.6241 16.6603 5.47535 16.4076 5.25122C16.1556 5.02774 15.748 4.79136 15.1801 4.57837C14.0496 4.15444 12.437 3.87726 10.6196 3.8772Z" fill="#161616"/>
<path d="M18.5901 20.9504C16.409 22.2104 13.6754 21.643 12.1584 19.7239L12.1047 19.9446L11.9309 20.6741L10.4719 20.3254L11.1174 17.6243C11.2078 17.2465 11.5721 17.0004 11.9563 17.0569L14.8059 17.4768L14.5872 18.9612L13.3215 18.7747C14.3817 20.1331 16.305 20.5378 17.8391 19.6516C18.8492 19.0681 19.4604 18.0588 19.5754 16.9778L19.6555 16.2327L21.1467 16.3909L21.0676 17.137C20.9041 18.6736 20.0327 20.1169 18.5901 20.9504Z" fill="#161616"/>
<path d="M13.5696 11.5774C15.7506 10.3174 18.4842 10.8848 20.0012 12.804L20.0549 12.5833L20.2288 11.8538L21.6877 12.2024L21.0422 14.9036C20.9518 15.2813 20.5876 15.5274 20.2034 15.4709L17.3538 15.051L17.5725 13.5667L18.8381 13.7532C17.7779 12.3948 15.8546 11.99 14.3205 12.8762C13.3105 13.4597 12.6992 14.4691 12.5842 15.55L12.5041 16.2952L11.0129 16.137L11.092 15.3909C11.2556 13.8542 12.127 12.411 13.5696 11.5774Z" fill="#161616"/>
</svg>
