<svg width="24" height="24" viewBox="0 0 24 24" fill="none" xmlns="http://www.w3.org/2000/svg">
<path fill-rule="evenodd" clip-rule="evenodd" d="M3 4.78125C3 3.79749 3.79749 3 4.78125 3H7.875C8.85876 3 9.65625 3.79749 9.65625 4.78125V19.2188C9.65625 20.2025 8.85876 21 7.875 21H4.78125C3.79749 21 3 20.2025 3 19.2188V4.78125ZM4.78125 4.5C4.62592 4.5 4.5 4.62592 4.5 4.78125V19.2188C4.5 19.3741 4.62592 19.5 4.78125 19.5H7.875C8.03033 19.5 8.15625 19.3741 8.15625 19.2188V4.78125C8.15625 4.62592 8.03033 4.5 7.875 4.5H4.78125ZM11.25 4.78125C11.25 3.79749 12.0475 3 13.0312 3H19.2188C20.2025 3 21 3.79749 21 4.78125V6.84375C21 7.82751 20.2025 8.625 19.2188 8.625H13.0312C12.0475 8.625 11.25 7.82751 11.25 6.84375V4.78125ZM13.0312 4.5C12.8759 4.5 12.75 4.62592 12.75 4.78125V6.84375C12.75 6.99908 12.8759 7.125 13.0312 7.125H19.2188C19.3741 7.125 19.5 6.99908 19.5 6.84375V4.78125C19.5 4.62592 19.3741 4.5 19.2188 4.5H13.0312ZM11.25 12C11.25 11.0162 12.0475 10.2188 13.0312 10.2188H19.2188C20.2025 10.2188 21 11.0162 21 12V19.2188C21 20.2025 20.2025 21 19.2188 21H13.0312C12.0475 21 11.25 20.2025 11.25 19.2188V12ZM13.0312 11.7188C12.8759 11.7188 12.75 11.8447 12.75 12V19.2188C12.75 19.3741 12.8759 19.5 13.0312 19.5H19.2188C19.3741 19.5 19.5 19.3741 19.5 19.2188V12C19.5 11.8447 19.3741 11.7188 19.2188 11.7188H13.0312Z" fill="#161616"/>
</svg>
