<svg width="24" height="24" viewBox="0 0 24 24" fill="none" xmlns="http://www.w3.org/2000/svg">
<path d="M8.5 17.5C8.5 16.3954 7.60457 15.5 6.5 15.5C5.39543 15.5 4.5 16.3954 4.5 17.5C4.5 18.6046 5.39543 19.5 6.5 19.5C7.60457 19.5 8.5 18.6046 8.5 17.5ZM19.5 17.5C19.5 16.3954 18.6046 15.5 17.5 15.5C16.3954 15.5 15.5 16.3954 15.5 17.5C15.5 18.6046 16.3954 19.5 17.5 19.5C18.6046 19.5 19.5 18.6046 19.5 17.5ZM20.083 10.625V13.375H18.583V10.625H20.083ZM19.5 6.5C19.5 5.39543 18.6046 4.5 17.5 4.5C16.3954 4.5 15.5 5.39543 15.5 6.5C15.5 7.60457 16.3954 8.5 17.5 8.5C18.6046 8.5 19.5 7.60457 19.5 6.5ZM8.5 6.5C8.5 5.39543 7.60457 4.5 6.5 4.5C5.39543 4.5 4.5 5.39543 4.5 6.5C4.5 7.60457 5.39543 8.5 6.5 8.5C7.60457 8.5 8.5 7.60457 8.5 6.5ZM21 17.5C21 19.433 19.433 21 17.5 21C15.567 21 14 19.433 14 17.5C14 15.567 15.567 14 17.5 14C19.433 14 21 15.567 21 17.5ZM10 6.5C10 8.433 8.433 10 6.5 10C6.12189 10 5.75811 9.93905 5.41699 9.82812V14.1709C5.75802 14.06 6.122 14 6.5 14C8.433 14 10 15.567 10 17.5C10 17.8781 9.93905 18.2419 9.82812 18.583H12.917V20.083H8.86133C8.23884 20.6524 7.4101 21 6.5 21C4.567 21 3 19.433 3 17.5C3 16.5896 3.34732 15.7602 3.91699 15.1377V8.86133C3.34761 8.23884 3 7.4101 3 6.5C3 4.567 4.567 3 6.5 3C7.4101 3 8.23884 3.34761 8.86133 3.91699H12.917V5.41699H9.82812C9.93905 5.75811 10 6.12189 10 6.5ZM21 6.5C21 8.433 19.433 10 17.5 10C15.567 10 14 8.433 14 6.5C14 4.567 15.567 3 17.5 3C19.433 3 21 4.567 21 6.5Z" fill="#161616"/>
</svg>
