<svg width="24" height="24" viewBox="0 0 24 24" fill="none" xmlns="http://www.w3.org/2000/svg">
<path d="M19.25 12.5C19.25 8.21979 15.7802 4.75 11.5 4.75C7.21979 4.75 3.75 8.21979 3.75 12.5C3.75 16.7802 7.21979 20.25 11.5 20.25C15.7802 20.25 19.25 16.7802 19.25 12.5ZM15.2178 9.84277L8.84277 16.2178L7.78223 15.1572L14.1572 8.78223L15.2178 9.84277ZM14.7461 14.7373C15.0374 15.0316 15.0354 15.5064 14.7412 15.7979C14.447 16.0891 13.9721 16.0869 13.6807 15.793L14.7461 14.7373ZM13.6729 14.7188C13.9488 14.4457 14.3834 14.4313 14.6768 14.6729L14.7334 14.7246L14.7461 14.7373L14.2129 15.2646L13.6807 15.793L13.668 15.7803L13.6162 15.7227C13.3776 15.4269 13.3969 14.9919 13.6729 14.7188ZM8.2627 9.25293C8.53868 8.97984 8.97328 8.96529 9.2666 9.20703L9.32324 9.25879L9.33594 9.27148L9.38672 9.32812C9.62579 9.62386 9.60699 10.0587 9.33105 10.332C9.05494 10.6054 8.61954 10.6201 8.32617 10.3779L8.26953 10.3262L8.25781 10.3135L8.20605 10.2568C7.96726 9.96105 7.98672 9.52614 8.2627 9.25293ZM20.75 12.5C20.75 17.6086 16.6086 21.75 11.5 21.75C6.39137 21.75 2.25 17.6086 2.25 12.5C2.25 7.39137 6.39137 3.25 11.5 3.25C16.6086 3.25 20.75 7.39137 20.75 12.5Z" fill="#161616"/>
</svg>
