<svg width="24" height="24" viewBox="0 0 24 24" fill="none" xmlns="http://www.w3.org/2000/svg">
<path d="M19.75 15.4004C19.75 14.6234 19.4717 13.5251 19 12.2549C18.5355 11.0042 17.912 9.65899 17.2812 8.41406C16.6516 7.17125 16.0204 6.04001 15.5469 5.21875C15.4964 5.1312 15.4461 5.04796 15.3994 4.96777C15.3528 5.04781 15.3033 5.13138 15.2529 5.21875C14.7794 6.04 14.1482 7.1713 13.5186 8.41406C12.8879 9.65897 12.2643 11.0042 11.7998 12.2549C11.3281 13.5251 11.0498 14.6234 11.0498 15.4004C11.05 17.8026 12.9981 19.75 15.4004 19.75C17.8025 19.7498 19.7498 17.8025 19.75 15.4004ZM7.84961 9.4502C7.84961 9.13156 7.73071 8.63432 7.49805 8.00781C7.27262 7.40084 6.96819 6.7417 6.65625 6.12598C6.44744 5.71383 6.23572 5.32751 6.0498 4.99414C5.86395 5.32741 5.65307 5.71399 5.44434 6.12598C5.13238 6.74174 4.82699 7.40081 4.60156 8.00781C4.3689 8.63432 4.25 9.13156 4.25 9.4502C4.25011 10.4442 5.05585 11.2499 6.0498 11.25C7.04385 11.25 7.8495 10.4442 7.84961 9.4502ZM21.25 15.4004C21.2498 18.6309 18.6309 21.2498 15.4004 21.25C12.1697 21.25 9.55002 18.6311 9.5498 15.4004C9.5498 14.344 9.90903 13.0372 10.3936 11.7324C10.8853 10.4084 11.5365 9.00788 12.1807 7.73633C12.826 6.46254 13.4704 5.30582 13.9531 4.46875C14.1946 4.04996 14.3967 3.71017 14.5381 3.47461C14.6087 3.35696 14.6639 3.26476 14.7021 3.20215C14.7211 3.17102 14.736 3.14722 14.7461 3.13086C14.751 3.12286 14.7552 3.1166 14.7578 3.1123C14.759 3.11042 14.76 3.10855 14.7607 3.10742L14.7617 3.10547H14.7627C14.8994 2.88472 15.1407 2.75 15.4004 2.75C15.6599 2.75013 15.9004 2.88483 16.0371 3.10547L15.4004 3.5L16.0381 3.10547L16.0391 3.10742C16.0398 3.10856 16.0408 3.11037 16.042 3.1123C16.0446 3.11661 16.0488 3.12281 16.0537 3.13086C16.0638 3.1472 16.0787 3.17101 16.0977 3.20215C16.1359 3.26475 16.1911 3.357 16.2617 3.47461C16.4031 3.71015 16.6052 4.05 16.8467 4.46875C17.3294 5.30582 17.9738 6.46254 18.6191 7.73633C19.2633 9.00788 19.9145 10.4084 20.4062 11.7324C20.8908 13.0372 21.25 14.344 21.25 15.4004ZM9.34961 9.4502C9.3495 11.2726 7.87228 12.75 6.0498 12.75C4.22742 12.7499 2.75011 11.2726 2.75 9.4502C2.75 8.85217 2.94985 8.14634 3.19531 7.48535C3.44799 6.80501 3.78099 6.09065 4.10645 5.44824C4.43295 4.8038 4.75839 4.21926 5.00195 3.79688C5.12381 3.58555 5.22619 3.41429 5.29785 3.29492C5.33357 3.23542 5.36129 3.18831 5.38086 3.15625C5.39065 3.14021 5.39904 3.12768 5.4043 3.11914C5.40685 3.11499 5.40873 3.11168 5.41016 3.10938C5.41087 3.10821 5.4117 3.10711 5.41211 3.10645V3.10547L5.46875 3.02637C5.61003 2.85295 5.82276 2.75006 6.0498 2.75C6.30947 2.75 6.55076 2.88472 6.6875 3.10547L6.68848 3.10645C6.68888 3.1071 6.68976 3.1083 6.69043 3.10938C6.69185 3.11167 6.69381 3.11511 6.69629 3.11914C6.70154 3.12768 6.70903 3.14033 6.71875 3.15625C6.73832 3.18832 6.76695 3.23531 6.80273 3.29492C6.87442 3.41433 6.9768 3.58558 7.09863 3.79688C7.34223 4.21931 7.6676 4.8037 7.99414 5.44824C8.31958 6.09061 8.65163 6.80505 8.9043 7.48535C9.14976 8.14634 9.34961 8.85217 9.34961 9.4502Z" fill="#161616"/>
</svg>
