<svg width="24" height="24" viewBox="0 0 24 24" fill="none" xmlns="http://www.w3.org/2000/svg">
<path d="M14.5471 20.2909C14.4449 21.1635 13.6012 21.7779 12.72 21.5741L6.12231 20.0468L5.99731 20.0116C5.4248 19.826 5.01766 19.3144 4.96606 18.7148L4.96021 18.5849H6.46021L13.0579 20.1132L13.0579 3.88664L6.46021 5.41496H4.96021L4.96607 5.28507C5.02134 4.64262 5.48465 4.10069 6.12232 3.95304L12.72 2.4257C13.6599 2.20833 14.5577 2.92185 14.5579 3.88664L14.5579 20.1132L14.5471 20.2909ZM6.46021 18.5849H4.96021L4.96021 5.41496H6.46021L6.46021 18.5849Z" fill="#161616"/>
<path d="M11.2591 13.7411H9.75907V10.2577H11.2591V13.7411Z" fill="#161616"/>
<path d="M18.2896 18.2929V6.09367C18.2896 5.973 18.2041 5.87202 18.0904 5.84855L18.0396 5.84367H15.9244V4.34367H18.0396L18.2183 4.35246C19.1008 4.442 19.7896 5.18752 19.7896 6.09367V18.2929C19.7896 19.2594 19.0061 20.0428 18.0396 20.0429H15.9244V18.5429H18.0396C18.1776 18.5428 18.2896 18.4309 18.2896 18.2929Z" fill="#161616"/>
</svg>
