<svg width="24" height="24" viewBox="0 0 24 24" fill="none" xmlns="http://www.w3.org/2000/svg">
<path d="M19.7498 12C19.7498 7.71979 16.28 4.25 11.9998 4.25C7.71955 4.25 4.24976 7.71979 4.24976 12C4.24976 16.2802 7.71955 19.75 11.9998 19.75C16.28 19.75 19.7498 16.2802 19.7498 12ZM21.2498 12C21.2498 17.1086 17.1084 21.25 11.9998 21.25C6.89112 21.25 2.74976 17.1086 2.74976 12C2.74976 6.89137 6.89112 2.75 11.9998 2.75C17.1084 2.75 21.2498 6.89137 21.2498 12Z" fill="#161616"/>
<path d="M16.0607 8.99995L9.0002 16.0605L7.93965 15L15.0002 7.9394L16.0607 8.99995Z" fill="#161616"/>
</svg>
