<svg width="24" height="24" viewBox="0 0 24 24" fill="none" xmlns="http://www.w3.org/2000/svg">
<path d="M5.65772 10.443C5.86212 10.443 6.06454 10.4832 6.25341 10.5613C6.44228 10.6395 6.6139 10.7541 6.75848 10.8986C6.90306 11.0431 7.01777 11.2146 7.09605 11.4034C7.17433 11.5922 7.21466 11.7946 7.21472 11.999C7.21479 12.2034 7.17459 12.4058 7.09643 12.5947C7.01827 12.7836 6.90368 12.9552 6.75919 13.0998C6.6147 13.2444 6.44315 13.3591 6.25433 13.4374C6.06551 13.5156 5.86312 13.556 5.65872 13.556C5.24591 13.5562 4.84996 13.3923 4.55796 13.1005C4.26597 12.8087 4.10185 12.4128 4.10172 12C4.10159 11.5872 4.26545 11.1913 4.55726 10.8993C4.84906 10.6073 5.24491 10.4432 5.65772 10.443Z" fill="#161616"/>
<path d="M11.9997 10.443C11.1403 10.443 10.4437 11.1397 10.4437 11.999C10.4437 12.8584 11.1403 13.555 11.9997 13.555C12.859 13.555 13.5557 12.8584 13.5557 11.999C13.5557 11.1397 12.859 10.443 11.9997 10.443Z" fill="#161616"/>
<path d="M18.3427 10.443C17.4833 10.443 16.7867 11.1397 16.7867 11.999C16.7867 12.8584 17.4833 13.555 18.3427 13.555C19.202 13.555 19.8987 12.8584 19.8987 11.999C19.8987 11.1397 19.202 10.443 18.3427 10.443Z" fill="#161616"/>
</svg>
