<svg width="24" height="24" viewBox="0 0 24 24" fill="none" xmlns="http://www.w3.org/2000/svg">
<path d="M17.625 14.4961C17.625 13.5004 17.2771 12.3524 16.7021 11.1523C16.1316 9.9614 15.3636 8.77248 14.583 7.70898C13.804 6.64763 13.0232 5.7249 12.4365 5.06738C12.2745 4.88581 12.1276 4.72476 12 4.58691C11.8724 4.72476 11.7255 4.88582 11.5635 5.06738C10.9768 5.7249 10.196 6.64763 9.41699 7.70898C8.6364 8.77247 7.86846 9.96141 7.29785 11.1523C6.7229 12.3524 6.375 13.5004 6.375 14.4961C6.37521 17.3508 8.85624 19.75 12 19.75C15.1438 19.75 17.6248 17.3508 17.625 14.4961ZM15.9023 14.3535C15.3523 16.0745 13.9768 17.4331 12.2412 18.0225L11.7588 16.6025C13.0646 16.1592 14.0739 15.144 14.4727 13.8965L15.9023 14.3535ZM19.125 14.4961C19.1248 18.2626 15.8863 21.25 12 21.25C8.11376 21.25 4.87521 18.2626 4.875 14.4961C4.875 13.1814 5.32395 11.7988 5.94434 10.5039C6.56902 9.20008 7.39491 7.92904 8.20801 6.82129C9.02265 5.71143 9.8357 4.7515 10.4443 4.06934C10.7489 3.72796 11.0035 3.45497 11.1826 3.2666C11.2721 3.1725 11.3427 3.09889 11.3916 3.04883C11.416 3.02385 11.4351 3.00447 11.4482 2.99121L11.4697 2.96973L11.584 2.87598C11.7063 2.79444 11.8509 2.75002 12 2.75C12.1989 2.75 12.3896 2.82911 12.5303 2.96973L12.5518 2.99121C12.5649 3.00447 12.584 3.02379 12.6084 3.04883C12.6573 3.09889 12.7279 3.17244 12.8174 3.2666C12.9965 3.45497 13.251 3.7279 13.5557 4.06934C14.1643 4.7515 14.9774 5.71141 15.792 6.82129C16.6051 7.92903 17.431 9.20009 18.0557 10.5039C18.676 11.7988 19.125 13.1814 19.125 14.4961Z" fill="#161616"/>
</svg>
