<svg width="24" height="24" viewBox="0 0 24 24" fill="none" xmlns="http://www.w3.org/2000/svg">
<path d="M9.93313 3.35281C11.1132 2.30847 12.8869 2.30854 14.0669 3.35281L14.7574 3.96414C15.0279 4.20365 15.3713 4.34542 15.732 4.36746L16.6529 4.4241C18.2258 4.51999 19.4797 5.77407 19.5757 7.34695L19.6324 8.26785C19.6543 8.62861 19.7961 8.97182 20.0357 9.24246L20.647 9.93289C21.6915 11.1129 21.6914 12.8866 20.647 14.0667L20.0357 14.7571C19.7962 15.0277 19.6544 15.371 19.6324 15.7317L19.5757 16.6526C19.4798 18.2256 18.2258 19.4796 16.6529 19.5755L15.732 19.6321C15.3713 19.6541 15.0279 19.7959 14.7574 20.0354L14.0669 20.6468C12.8868 21.6912 11.1132 21.6912 9.93313 20.6468L9.2427 20.0354C8.97206 19.7959 8.62886 19.6541 8.26809 19.6321L7.3472 19.5755C5.77432 19.4795 4.52024 18.2255 4.42434 16.6526L4.3677 15.7317C4.34566 15.371 4.20389 15.0277 3.96438 14.7571L3.35305 14.0667C2.30879 12.8866 2.30871 11.1129 3.35305 9.93289L3.96438 9.24246C4.20395 8.97182 4.34571 8.62861 4.3677 8.26785L4.42434 7.34695C4.52035 5.77414 5.77439 4.5201 7.3472 4.4241L8.26809 4.36746C8.62885 4.34546 8.97207 4.2037 9.2427 3.96414L9.93313 3.35281ZM13.0728 4.47586C12.4603 3.93404 11.5397 3.93397 10.9273 4.47586L10.2368 5.08719C9.71537 5.54878 9.05405 5.82317 8.35891 5.86551L7.43899 5.92117C6.62247 5.9709 5.97114 6.62222 5.92141 7.43875L5.86575 8.35867C5.82341 9.0538 5.54903 9.71513 5.08743 10.2366L4.4761 10.927C3.93421 11.5394 3.93429 12.4601 4.4761 13.0725L5.08743 13.763C5.54903 14.2844 5.82342 14.9458 5.86575 15.6409L5.92141 16.5608C5.97114 17.3773 6.62247 18.0287 7.43899 18.0784L8.35891 18.135C9.05405 18.1774 9.71538 18.4508 10.2368 18.9124L10.9273 19.5237C11.5397 20.0657 12.4603 20.0657 13.0728 19.5237L13.7632 18.9124C14.2847 18.4508 14.946 18.1774 15.6411 18.135L16.5611 18.0784C17.3776 18.0287 18.0289 17.3773 18.0786 16.5608L18.1353 15.6409C18.1776 14.9458 18.451 14.2844 18.9126 13.763L19.524 13.0725C20.0659 12.46 20.066 11.5395 19.524 10.927L18.9126 10.2366C18.451 9.71513 18.1776 9.0538 18.1353 8.35867L18.0786 7.43875C18.0289 6.62222 17.3776 5.9709 16.5611 5.92117L15.6411 5.86551C14.946 5.82317 14.2847 5.54878 13.7632 5.08719L13.0728 4.47586ZM15.3042 14.2962L15.355 14.3528C15.594 14.6486 15.5744 15.0835 15.2984 15.3567C15.004 15.6479 14.5291 15.6451 14.2378 15.3509L14.2251 15.3382L15.2915 14.2825L15.3042 14.2962ZM14.231 14.2776C14.5254 13.9864 15.0002 13.9882 15.2915 14.2825L14.2251 15.3382C13.9337 15.0438 13.9366 14.569 14.231 14.2776ZM9.77884 8.71414L9.82962 8.77078C10.0687 9.06653 10.0499 9.50136 9.77395 9.77469C9.47959 10.0661 9.00384 10.0632 8.71243 9.76883L8.69973 9.75613L9.76614 8.70047L9.77884 8.71414ZM8.70559 8.69558C8.9999 8.40432 9.47474 8.40633 9.76614 8.70047L8.69973 9.75613C8.40854 9.46175 8.4113 8.98692 8.70559 8.69558Z" fill="#161616"/>
<path d="M16.3164 8.74478L8.74514 16.3161L7.6846 15.2545L15.2549 7.68423L16.3164 8.74478Z" fill="#161616"/>
</svg>
