<svg width="24" height="24" viewBox="0 0 24 24" fill="none" xmlns="http://www.w3.org/2000/svg">
<path d="M20.5714 7.2002C20.5714 6.98269 20.4172 6.8007 20.212 6.75879L20.1212 6.75H8.21595L4.37415 11.8496C4.30704 11.9387 4.30704 12.0613 4.37415 12.1504L8.21595 17.25H20.1212L20.212 17.2412C20.4172 17.1993 20.5714 17.0173 20.5714 16.7998V7.2002ZM16.9825 9.59961L14.5812 12L16.9825 14.4004L15.921 15.4609L13.5206 13.0605L11.1212 15.4609L10.0607 14.4004L12.4611 12L10.0607 9.59961L11.1212 8.53906L13.5206 10.9385L15.921 8.53906L16.9825 9.59961ZM22.0714 16.7998C22.0714 17.8096 21.3039 18.6405 20.3204 18.7402L20.1212 18.75H7.84192C7.6066 18.7499 7.38491 18.6391 7.24329 18.4512L3.17591 13.0527C2.70634 12.4293 2.70634 11.5707 3.17591 10.9473L7.24329 5.54883L7.29993 5.48145C7.44044 5.33445 7.63609 5.25012 7.84192 5.25H20.1212L20.3204 5.25977C21.3039 5.35945 22.0714 6.19042 22.0714 7.2002V16.7998Z" fill="#161616"/>
</svg>
