<svg width="24" height="24" viewBox="0 0 24 24" fill="none" xmlns="http://www.w3.org/2000/svg">
<path d="M19.5 5.58301C19.4998 4.98496 19.015 4.50018 18.417 4.5H5.58301C4.98496 4.50018 4.50018 4.98496 4.5 5.58301V18.417C4.50018 19.015 4.98496 19.4998 5.58301 19.5H18.417C19.015 19.4998 19.4998 19.015 19.5 18.417V5.58301ZM21 18.417C20.9998 19.8435 19.8435 20.9998 18.417 21H5.58301C4.15653 20.9998 3.00018 19.8435 3 18.417V5.58301C3.00018 4.15653 4.15653 3.00018 5.58301 3H18.417C19.8435 3.00018 20.9998 4.15653 21 5.58301V18.417Z" fill="#161616"/>
<path d="M7.41699 9.25H9.25033V11.0833H7.41699V9.25Z" fill="#161616"/>
<path d="M7.41699 12.9167H9.25033V14.7501H7.41699V12.9167Z" fill="#161616"/>
<path d="M7.41699 16.5833H9.25033V18.4166H7.41699V16.5833Z" fill="#161616"/>
<path d="M3.75 12.9167H5.58333V14.75H3.75V12.9167Z" fill="#161616"/>
<path d="M3.75 16.5833H5.58333V18.4167H3.75V16.5833Z" fill="#161616"/>
<path d="M5.58301 11.0833L7.41699 11.0833V12.9167L5.58333 12.9167L5.58301 11.0833Z" fill="#161616"/>
<path d="M5.58333 14.75L7.41699 14.7501V16.5833L5.58333 16.5833V14.75Z" fill="#161616"/>
<path d="M5.58333 18.4167L7.41699 18.4166L7.41634 20.2501H5.58301L5.58333 18.4167Z" fill="#161616"/>
<path d="M11.083 9.25H12.9163V11.0833H11.083V9.25Z" fill="#161616"/>
<path d="M11.083 12.9167H12.9163V14.7501H11.083V12.9167Z" fill="#161616"/>
<path d="M11.083 16.5833H12.9163V18.4166H11.083V16.5833Z" fill="#161616"/>
<path d="M9.25033 11.0833H11.083V12.9167H9.25033V11.0833Z" fill="#161616"/>
<path d="M9.25033 14.7501H11.083V16.5833H9.25033V14.7501Z" fill="#161616"/>
<path d="M9.25033 18.4166H11.083L11.0833 20.25H9.25L9.25033 18.4166Z" fill="#161616"/>
<path d="M14.75 9.25H16.5833V11.0833H14.75V9.25Z" fill="#161616"/>
<path d="M14.75 12.9167H16.5833V14.75H14.75V12.9167Z" fill="#161616"/>
<path d="M14.75 16.5833H16.5833V18.4167H14.75V16.5833Z" fill="#161616"/>
<path d="M18.417 12.9167H20.2503V14.7501H18.417V12.9167Z" fill="#161616"/>
<path d="M18.417 16.5833H20.2503V18.4166H18.417V16.5833Z" fill="#161616"/>
<path d="M12.9163 11.0833H14.75V12.9167L12.9163 12.9167V11.0833Z" fill="#161616"/>
<path d="M12.9163 14.7501L14.75 14.75V16.5833L12.9163 16.5833V14.7501Z" fill="#161616"/>
<path d="M12.9163 18.4166L14.75 18.4167L14.7503 20.2501H12.917L12.9163 18.4166Z" fill="#161616"/>
<path d="M16.5833 11.0833L18.4163 11.0833L18.417 12.9167L16.5833 12.9167V11.0833Z" fill="#161616"/>
<path d="M16.5833 14.75L18.417 14.7501V16.5833L16.5833 16.5833V14.75Z" fill="#161616"/>
<path d="M16.5833 18.4167L18.417 18.4166L18.4163 20.2501H16.583L16.5833 18.4167Z" fill="#161616"/>
</svg>
