<svg width="24" height="24" viewBox="0 0 24 24" fill="none" xmlns="http://www.w3.org/2000/svg">
<path d="M12.3616 4.69336V6.19336H7.11157V4.69336H12.3616ZM15.7366 5.25C15.7366 4.42158 15.065 3.75 14.2366 3.75H5.23657C4.40815 3.75 3.73657 4.42157 3.73657 5.25V18.75C3.73657 19.5784 4.40815 20.25 5.23657 20.25H14.2366C15.065 20.25 15.7366 19.5784 15.7366 18.75V18H17.2366V18.75C17.2366 20.4069 15.8934 21.75 14.2366 21.75H5.23657C3.57972 21.75 2.23657 20.4069 2.23657 18.75V5.25C2.23657 3.59315 3.57972 2.25 5.23657 2.25H14.2366C15.8934 2.25 17.2366 3.59315 17.2366 5.25V6H15.7366V5.25Z" fill="#161616"/>
<path d="M16.9641 12C16.9641 11.7363 16.7502 11.5225 16.4866 11.5225C16.2229 11.5225 16.009 11.7363 16.009 12C16.0091 12.2637 16.2229 12.4775 16.4866 12.4775V13.9775L16.2844 13.9667C15.3537 13.8723 14.6133 13.1328 14.5188 12.2021L14.5091 12C14.5091 10.9079 15.3945 10.0225 16.4866 10.0225L16.6887 10.0323C17.6858 10.1335 18.464 10.9761 18.464 12L18.4533 12.2021C18.352 13.1992 17.5104 13.9775 16.4866 13.9775V12.4775C16.7502 12.4775 16.9641 12.2637 16.9641 12Z" fill="#161616"/>
<path d="M14.3457 15.7073H18.626L20.7676 12.0002L18.626 8.29224L14.3457 8.29224L12.2051 12.0002L14.3457 15.7073ZM18.916 6.79224L19.0479 6.80103C19.3528 6.84163 19.6248 7.0217 19.7812 7.29224L22.2109 11.5002L22.2695 11.6194C22.3699 11.8632 22.37 12.1373 22.2695 12.3811L22.2109 12.5002L19.7812 16.7073C19.6249 16.978 19.3529 17.1578 19.0479 17.1985L18.916 17.2073H14.0576C13.7004 17.2073 13.37 17.0167 13.1914 16.7073L10.7627 12.5002C10.5841 12.1908 10.5841 11.8096 10.7627 11.5002L13.1914 7.29224C13.3701 6.98302 13.7005 6.79224 14.0576 6.79224L18.916 6.79224Z" fill="#161616"/>
</svg>
