<svg width="12" height="24" viewBox="0 0 12 24" fill="none" xmlns="http://www.w3.org/2000/svg">
<path d="M5.19971 7.5C5.19971 8.19036 4.64006 8.75 3.94971 8.75C3.25935 8.75 2.69971 8.19036 2.69971 7.5C2.69971 6.80964 3.25935 6.25 3.94971 6.25C4.64006 6.25 5.19971 6.80964 5.19971 7.5Z" fill="#ABABAB"/>
<path d="M5.19971 12C5.19971 12.6904 4.64006 13.25 3.94971 13.25C3.25935 13.25 2.69971 12.6904 2.69971 12C2.69971 11.3096 3.25935 10.75 3.94971 10.75C4.64006 10.75 5.19971 11.3096 5.19971 12Z" fill="#ABABAB"/>
<path d="M5.19971 16.5C5.19971 17.1904 4.64006 17.75 3.94971 17.75C3.25935 17.75 2.69971 17.1904 2.69971 16.5C2.69971 15.8096 3.25935 15.25 3.94971 15.25C4.64006 15.25 5.19971 15.8096 5.19971 16.5Z" fill="#ABABAB"/>
<path d="M9.2998 7.5C9.2998 8.19036 8.74016 8.75 8.0498 8.75C7.35945 8.75 6.7998 8.19036 6.7998 7.5C6.7998 6.80964 7.35945 6.25 8.0498 6.25C8.74016 6.25 9.2998 6.80964 9.2998 7.5Z" fill="#ABABAB"/>
<path d="M9.2998 12C9.2998 12.6904 8.74016 13.25 8.0498 13.25C7.35945 13.25 6.7998 12.6904 6.7998 12C6.7998 11.3096 7.35945 10.75 8.0498 10.75C8.74016 10.75 9.2998 11.3096 9.2998 12Z" fill="#ABABAB"/>
<path d="M9.2998 16.5C9.2998 17.1904 8.74016 17.75 8.0498 17.75C7.35945 17.75 6.7998 17.1904 6.7998 16.5C6.7998 15.8096 7.35945 15.25 8.0498 15.25C8.74016 15.25 9.2998 15.8096 9.2998 16.5Z" fill="#ABABAB"/>
</svg>
