<svg width="24" height="24" viewBox="0 0 24 24" fill="none" xmlns="http://www.w3.org/2000/svg">
<path d="M3.3213 18.7832V15.833H4.8213V18.7832C4.8213 19.0522 4.82166 19.209 4.83106 19.3242C4.83516 19.3744 4.84008 19.4019 4.84278 19.4141C4.85767 19.4408 4.87962 19.4624 4.90626 19.4775C4.91786 19.4802 4.94528 19.486 4.99708 19.4902C5.1123 19.4996 5.26913 19.5 5.5381 19.5H19.1045C19.3735 19.5 19.5303 19.4996 19.6455 19.4902C19.696 19.4861 19.7233 19.4802 19.7354 19.4775C19.7622 19.4625 19.7838 19.4409 19.7988 19.4141C19.8015 19.402 19.8074 19.3747 19.8115 19.3242C19.8209 19.209 19.8213 19.0522 19.8213 18.7832V15.833H21.3213V18.7832C21.3213 19.0274 21.3222 19.2558 21.3067 19.4463C21.2944 19.5957 21.2698 19.7585 21.2109 19.9238L21.1397 20.0898C20.9999 20.3641 20.7873 20.5938 20.5264 20.7539L20.4111 20.8184C20.1898 20.9311 19.9668 20.9691 19.7676 20.9854C19.5771 21.0009 19.3487 21 19.1045 21H5.5381C5.29387 21 5.06545 21.0009 4.87501 20.9854C4.72564 20.9731 4.56283 20.9485 4.39747 20.8896L4.23145 20.8184C3.91785 20.6586 3.66273 20.4034 3.50294 20.0898C3.39018 19.8685 3.35222 19.6455 3.33595 19.4463C3.3204 19.2558 3.3213 19.0274 3.3213 18.7832ZM11.5713 3H13.0713V14.7725L17.8213 10.0225L18.8818 11.083L12.8516 17.1133C12.5587 17.4062 12.0839 17.4062 11.791 17.1133L5.76075 11.083L6.8213 10.0225L11.5713 14.7725V3Z" fill="#161616"/>
</svg>
