<svg width="24" height="24" viewBox="0 0 24 24" fill="none" xmlns="http://www.w3.org/2000/svg">
<path d="M20.1387 16.8331V18.3331H8.59375V16.8331H20.1387ZM20.1387 11.2394V12.7394H8.59375V11.2394H20.1387ZM20.1387 5.64661V7.14661H8.59375V5.64661H20.1387Z" fill="#161616"/>
<path d="M5.30307 4.84839C5.50747 4.84832 5.70989 4.88852 5.89876 4.96668C6.08762 5.04484 6.25925 5.15944 6.40383 5.30392C6.54841 5.44841 6.66312 5.61996 6.7414 5.80878C6.81968 5.9976 6.86 6.19999 6.86007 6.40439C6.86014 6.60879 6.81994 6.81121 6.74178 7.00007C6.66362 7.18894 6.54902 7.36057 6.40454 7.50515C6.26005 7.64973 6.0885 7.76443 5.89968 7.84272C5.71086 7.921 5.50847 7.96132 5.30407 7.96139C4.89126 7.96152 4.49531 7.79766 4.20331 7.50585C3.91132 7.21405 3.7472 6.8182 3.74707 6.40539C3.74694 5.99258 3.9108 5.59662 4.2026 5.30463C4.49441 5.01264 4.89026 4.84852 5.30307 4.84839Z" fill="#161616"/>
<path d="M5.30307 10.4435C5.50747 10.4434 5.70989 10.4836 5.89876 10.5618C6.08762 10.6399 6.25925 10.7545 6.40383 10.899C6.54841 11.0435 6.66312 11.2151 6.7414 11.4039C6.81968 11.5927 6.86 11.7951 6.86007 11.9995C6.86014 12.2039 6.81994 12.4063 6.74178 12.5952C6.66362 12.784 6.54902 12.9557 6.40454 13.1002C6.26005 13.2448 6.0885 13.3595 5.89968 13.4378C5.71086 13.5161 5.50847 13.5564 5.30407 13.5565C4.89126 13.5566 4.49531 13.3928 4.20331 13.1009C3.91132 12.8091 3.7472 12.4133 3.74707 12.0005C3.74694 11.5877 3.9108 11.1917 4.2026 10.8997C4.49441 10.6077 4.89026 10.4436 5.30307 10.4435Z" fill="#161616"/>
<path d="M5.30307 16.0385C5.50747 16.0385 5.70989 16.0787 5.89876 16.1568C6.08762 16.235 6.25925 16.3496 6.40383 16.4941C6.54841 16.6386 6.66312 16.8101 6.7414 16.9989C6.81968 17.1877 6.86 17.3901 6.86007 17.5945C6.86014 17.7989 6.81994 18.0014 6.74178 18.1902C6.66362 18.3791 6.54902 18.5507 6.40454 18.6953C6.26005 18.8399 6.0885 18.9546 5.89968 19.0329C5.71086 19.1111 5.50847 19.1515 5.30407 19.1515C4.89126 19.1517 4.49531 18.9878 4.20331 18.696C3.91132 18.4042 3.7472 18.0083 3.74707 17.5955C3.74694 17.1827 3.9108 16.7868 4.2026 16.4948C4.49441 16.2028 4.89026 16.0387 5.30307 16.0385Z" fill="#161616"/>
</svg>
