<svg width="24" height="24" viewBox="0 0 24 24" fill="none" xmlns="http://www.w3.org/2000/svg">
<path d="M16.208 4.25H7.79102V5.94043C7.79102 6.45799 7.9701 6.95999 8.29688 7.36133L10.9746 10.6504C11.6403 11.468 11.6666 12.6073 11.0635 13.4492L10.9346 13.6143L8.33496 16.6377C7.98422 17.0458 7.79102 17.5664 7.79102 18.1045V19.75H16.208V18.1045C16.208 17.5663 16.0149 17.0458 15.6641 16.6377L13.0654 13.6143C12.3325 12.7617 12.3145 11.5226 13.0244 10.6504L15.7031 7.36133C16.0298 6.96002 16.208 6.4579 16.208 5.94043V4.25ZM17.708 5.94043C17.708 6.803 17.4108 7.6397 16.8662 8.30859L14.1875 11.5967C13.9366 11.9047 13.9422 12.3331 14.2021 12.6357L16.8018 15.6602C17.3864 16.3404 17.708 17.2076 17.708 18.1045V19.75H18.6113V21.25H5.38867V19.75H6.29102V18.1045C6.29102 17.2075 6.61349 16.3404 7.19824 15.6602L9.79688 12.6357L9.88281 12.5176C10.0549 12.2286 10.0312 11.8664 9.81152 11.5967L7.13379 8.30859C6.58908 7.63966 6.29102 6.80309 6.29102 5.94043V4.25H5.38867V2.75H18.6113V4.25H17.708V5.94043Z" fill="#161616"/>
</svg>
