<svg width="24" height="24" viewBox="0 0 24 24" fill="none" xmlns="http://www.w3.org/2000/svg">
<path d="M10.0693 16.2882C11.102 15.2759 12.77 15.276 13.8027 16.2882C14.8437 17.3088 14.8437 18.9697 13.8027 19.9903C12.77 21.0028 11.1021 21.0029 10.0693 19.9903C9.0285 18.9697 9.02839 17.3088 10.0693 16.2882ZM12.7529 17.3595C12.3035 16.9189 11.5686 16.9189 11.1191 17.3595C10.6781 17.792 10.678 18.4875 11.1191 18.92C11.5685 19.3605 12.3035 19.3604 12.7529 18.92C13.1941 18.4875 13.1941 17.792 12.7529 17.3595ZM21 11.3126V12.8126H3V11.3126H21ZM10.0693 4.00987C11.1021 2.99735 12.77 2.99737 13.8027 4.00987C14.8437 5.0305 14.8437 6.69139 13.8027 7.71202C12.77 8.72418 11.102 8.72431 10.0693 7.71202C9.02839 6.69144 9.0285 5.03051 10.0693 4.00987ZM12.7529 5.08018C12.3035 4.6398 11.5685 4.63967 11.1191 5.08018C10.678 5.51268 10.6781 6.20818 11.1191 6.64073C11.5686 7.08135 12.3035 7.08131 12.7529 6.64073C13.1941 6.20819 13.1941 5.51272 12.7529 5.08018Z" fill="#161616"/>
</svg>
