<svg width="24" height="24" viewBox="0 0 24 24" fill="none" xmlns="http://www.w3.org/2000/svg">
<path d="M10.3105 14.75L5.56055 19.5H10V21H3.75C3.55109 21 3.36038 20.9209 3.21973 20.7803C3.07907 20.6396 3 20.4489 3 20.25V14H4.5V18.4395L9.25 13.6895L10.3105 14.75ZM21 10H19.5V5.56055L14.75 10.3105L13.6895 9.25L18.4395 4.5H14V3H20.25C20.6642 3 21 3.33579 21 3.75V10Z" fill="#161616"/>
<path d="M19.5 18.25V14.0625H21V18.25C21 19.7688 19.7688 21 18.25 21H14.0625V19.5H18.25C18.9404 19.5 19.5 18.9404 19.5 18.25ZM3 5.75C3 4.23122 4.23122 3 5.75 3H9.9375V4.5H5.75C5.05964 4.5 4.5 5.05964 4.5 5.75V9.9375H3V5.75Z" fill="#161616"/>
</svg>
