<svg width="24" height="24" viewBox="0 0 24 24" fill="none" xmlns="http://www.w3.org/2000/svg">
<path d="M21.3213 20.25V21.75H3.32129V20.25H21.3213ZM19.3213 8.64551C19.3212 8.59501 19.3012 8.54656 19.2656 8.51074L14.5605 3.80469C14.5247 3.7691 14.4763 3.75006 14.4258 3.75C14.3752 3.75 14.3259 3.76997 14.29 3.80566L4.87598 13.2207C4.8412 13.2565 4.82129 13.3046 4.82129 13.3545C4.82139 13.4042 4.84135 13.4517 4.87598 13.4873L8.42285 17.0342H11.0127L19.2656 8.78125C19.3013 8.74535 19.3213 8.69614 19.3213 8.64551ZM20.8213 8.64551C20.8213 9.09241 20.6442 9.52191 20.3291 9.83887L11.8535 18.3145C11.713 18.455 11.522 18.5341 11.3232 18.5342H8.1123C7.96294 18.5342 7.81772 18.49 7.69531 18.4082L7.58105 18.3145L3.81543 14.5479L3.81348 14.5469C3.4985 14.23 3.3214 13.8013 3.32129 13.3545C3.32129 12.9076 3.49841 12.4781 3.81348 12.1611L3.81543 12.1602L13.2314 2.74316L13.2334 2.74219L13.3564 2.62988C13.657 2.38494 14.0347 2.25 14.4258 2.25C14.8166 2.25005 15.1937 2.38515 15.4941 2.62988L15.6182 2.74219L15.6201 2.74316L20.3291 7.45312L20.4414 7.57715C20.6862 7.87754 20.8212 8.25465 20.8213 8.64551Z" fill="#161616"/>
</svg>
