<svg width="24" height="24" viewBox="0 0 24 24" fill="none" xmlns="http://www.w3.org/2000/svg">
<path d="M21.2568 19.0312L20.1963 20.0918L17.7646 17.6602C16.447 18.4956 14.7847 19.0953 12.7275 19.1367L12.3086 19.1377C8.62131 19.0773 6.18467 17.3699 4.68652 15.6855C3.94177 14.8482 3.42732 14.0162 3.09863 13.3926C2.93409 13.0803 2.81446 12.818 2.73535 12.6309C2.69585 12.5374 2.66682 12.4616 2.64648 12.4082C2.63638 12.3817 2.6277 12.3602 2.62207 12.3447C2.61938 12.3373 2.61692 12.3309 2.61523 12.3262C2.61443 12.3239 2.61382 12.321 2.61328 12.3193L2.6123 12.3174L3.32129 12.0713L2.6123 12.3154L2.53223 12.083L2.60547 11.8467L2.60645 11.8447C2.60669 11.844 2.60711 11.8428 2.60742 11.8418C2.60829 11.8391 2.60996 11.8352 2.61133 11.8311C2.61412 11.8225 2.61724 11.8103 2.62207 11.7959C2.63183 11.767 2.6466 11.7265 2.66504 11.6758C2.70203 11.5741 2.75709 11.4302 2.83203 11.2539C2.98198 10.9012 3.21285 10.4133 3.54102 9.86328C4.16265 8.82158 5.14826 7.53138 6.61426 6.50977L5.07324 4.96875L6.13379 3.9082L21.2568 19.0312ZM7.66895 7.60645C6.31997 8.48873 5.40706 9.66332 4.8291 10.6318C4.54154 11.1138 4.34088 11.5388 4.21289 11.8398C4.17715 11.9239 4.1485 11.9996 4.12402 12.0625C4.1887 12.2144 4.28807 12.432 4.42578 12.6934C4.71188 13.2362 5.16097 13.9624 5.80762 14.6895C7.09312 16.1345 9.15676 17.5857 12.334 17.6377L12.6953 17.6367C14.3147 17.6044 15.621 17.1726 16.6719 16.5674L14.3008 14.1963L14.0986 14.3564C13.6 14.7159 12.984 14.9268 12.3213 14.9268C10.684 14.9268 9.32149 13.6297 9.32129 11.9873C9.32136 11.2364 9.60961 10.5518 10.0781 10.0352L10.1064 10.002L7.69336 7.58887L7.66895 7.60645ZM12.3213 4.82129C16.0683 4.82129 18.5134 6.59635 20.001 8.35742C20.7402 9.23267 21.2458 10.1058 21.5664 10.7598C21.727 11.0873 21.8426 11.3625 21.9189 11.5586C21.9571 11.6566 21.9854 11.7352 22.0049 11.791C22.0146 11.8189 22.022 11.8413 22.0273 11.8574C22.03 11.8654 22.0326 11.872 22.0342 11.877C22.035 11.8794 22.0356 11.8821 22.0361 11.8838V11.8857L22.0371 11.8867L22.1094 12.1182L22.0332 12.3486L22.0322 12.3496V12.3516C22.0317 12.3532 22.0301 12.3551 22.0293 12.3574C22.0277 12.3622 22.0261 12.3692 22.0234 12.377C22.0179 12.3928 22.01 12.4151 22 12.4424C21.9798 12.4973 21.9495 12.5746 21.9102 12.6709C21.8313 12.8637 21.7123 13.1347 21.5479 13.4561C21.2204 14.096 20.7079 14.9483 19.9648 15.7998L18.8994 14.7344C19.5079 14.0219 19.9367 13.3123 20.2129 12.7725C20.3557 12.4934 20.4558 12.2618 20.5205 12.1035C20.4577 11.9421 20.3595 11.7051 20.2197 11.4199C19.9391 10.8476 19.4971 10.0849 18.8555 9.3252C17.581 7.81629 15.5261 6.32129 12.3213 6.32129C11.7194 6.32129 11.158 6.37407 10.6348 6.46973L9.38867 5.22363C10.2629 4.96998 11.2376 4.82129 12.3213 4.82129ZM11.1699 11.0654C10.9506 11.3173 10.8214 11.6384 10.8213 11.9873C10.8215 12.7629 11.4736 13.4268 12.3213 13.4268C12.6669 13.4268 12.9809 13.3134 13.2324 13.1279L11.1699 11.0654Z" fill="#161616"/>
</svg>
