<svg width="24" height="24" viewBox="0 0 24 24" fill="none" xmlns="http://www.w3.org/2000/svg">
<path d="M3.70898 9.86633C3.70938 9.86746 3.71048 9.87018 3.71191 9.87415C3.71479 9.8821 3.71949 9.89562 3.72656 9.91418C3.74083 9.95166 3.76375 10.01 3.7959 10.0861C3.86033 10.2385 3.96184 10.4618 4.10449 10.7325C4.39058 11.2754 4.83947 12.0014 5.48633 12.7286C6.77181 14.1738 8.83512 15.6249 12.0127 15.6769C15.174 15.7284 17.2264 14.2863 18.5098 12.8175C19.1559 12.078 19.6049 11.333 19.8916 10.7726C20.0345 10.4933 20.1355 10.2619 20.2002 10.1036C20.2325 10.0247 20.2561 9.9641 20.2705 9.92493C20.2776 9.90577 20.2822 9.89139 20.2852 9.88293C20.2866 9.87874 20.2877 9.8754 20.2881 9.87415L21.7119 10.3488L21.7109 10.3497V10.3517C21.7104 10.3533 21.7088 10.3552 21.708 10.3575C21.7064 10.3624 21.7049 10.3693 21.7021 10.3771C21.6966 10.393 21.6888 10.4151 21.6787 10.4425C21.6585 10.4974 21.6283 10.5746 21.5889 10.671C21.5101 10.8638 21.3909 11.1339 21.2266 11.4552C20.8985 12.0964 20.3852 12.9515 19.6396 13.8048C18.1394 15.5218 15.6911 17.2375 11.9873 17.1769C8.29999 17.1164 5.86338 15.41 4.36523 13.7257C3.62027 12.8881 3.10604 12.0555 2.77734 11.4318C2.61271 11.1193 2.49315 10.8572 2.41406 10.67C2.37463 10.5767 2.34552 10.5017 2.3252 10.4484C2.31509 10.4218 2.3064 10.4004 2.30078 10.3849C2.29797 10.3771 2.29565 10.3702 2.29395 10.3654C2.29314 10.3631 2.29255 10.3611 2.29199 10.3595L2.29102 10.3575L3.70898 9.86633Z" fill="#161616"/>
<path d="M6.03027 13.5302L3.03027 16.5302L1.96973 15.4696L4.96973 12.4696L6.03027 13.5302Z" fill="#161616"/>
<path d="M17.9697 13.5302L20.9697 16.5302L22.0303 15.4696L19.0303 12.4696L17.9697 13.5302Z" fill="#161616"/>
<path d="M10.2374 15.8779L8.50082 19.4308L7.06399 18.7958L8.80115 15.2438L10.2374 15.8779Z" fill="#161616"/>
<path d="M13.7626 15.878L15.4992 19.4308L16.936 18.7959L15.1988 15.2439L13.7626 15.878Z" fill="#161616"/>
</svg>
