<svg width="24" height="24" viewBox="0 0 24 24" fill="none" xmlns="http://www.w3.org/2000/svg">
<path d="M12 2C12.1988 2.00001 12.3896 2.0792 12.5303 2.21973L17.5303 7.21973L16.4697 8.28027L12.75 4.56055L12.751 10.75H12.75L12.75 19.4395L16.4707 15.7197L17.5312 16.7803L12.5303 21.7803L12.416 21.874C12.2938 21.9554 12.149 22 12 22C11.8013 21.9999 11.6103 21.9208 11.4697 21.7803L6.46973 16.7803L7.53027 15.7197L11.25 19.4395L11.25 4.56055L7.53027 8.28027L6.46973 7.21973L11.4697 2.21973L11.585 2.12598C11.7071 2.0447 11.8512 2.00007 12 2Z" fill="#161616"/>
</svg>
