<svg width="100%" height="100%" overflow="visible" style="display: block;" viewBox="0 0 21.5833 21.5833" fill="none" xmlns="http://www.w3.org/2000/svg">
<path id="Icon (Stroke)" d="M19.8333 10.7917C19.8333 5.79809 15.7852 1.75 10.7917 1.75C5.79809 1.75 1.75 5.79809 1.75 10.7917C1.75 15.7852 5.79809 19.8333 10.7917 19.8333C15.7852 19.8333 19.8333 15.7852 19.8333 10.7917ZM9.91667 13.5921H11.6667V15.3854H9.91667V13.5921ZM9.91667 4.95833H11.6667V11.6667H9.91667V4.95833ZM21.5833 10.7917C21.5833 16.7517 16.7517 21.5833 10.7917 21.5833C4.83159 21.5833 0 16.7517 0 10.7917C0 4.83159 4.83159 0 10.7917 0C16.7517 0 21.5833 4.83159 21.5833 10.7917Z" fill="var(--fill-0, #161616)"/>
</svg>
