<svg width="24" height="24" viewBox="0 0 24 24" fill="none" xmlns="http://www.w3.org/2000/svg">
<path d="M19.8408 19.75V21.25H3.59766V19.75H19.8408ZM16.6465 3.12109C17.2972 2.59072 18.2568 2.62891 18.8633 3.23535L20.5596 4.93164C21.2064 5.57866 21.2064 6.62745 20.5596 7.27442L11.6221 16.2119C11.3089 16.525 10.9208 16.7511 10.4961 16.8691L10.3125 16.9131L7.12793 17.5498C6.88206 17.599 6.62751 17.522 6.4502 17.3447C6.27288 17.1674 6.19594 16.9129 6.24512 16.667L6.88184 13.4824L6.92578 13.2988C7.04379 12.8741 7.26988 12.4861 7.58301 12.1729L16.5205 3.23535L16.6465 3.12109ZM8.64355 13.2334C8.53224 13.3448 8.44728 13.4789 8.39453 13.626L8.35254 13.7764L7.93555 15.8574L10.0186 15.4414L10.1689 15.4004C10.316 15.3476 10.4501 15.2627 10.5615 15.1514L17.376 8.33692L15.458 6.41895L8.64355 13.2334ZM17.8027 4.2959C17.7415 4.23469 17.6423 4.23475 17.5811 4.2959L16.5186 5.3584L18.4365 7.27637L19.499 6.21387C19.5601 6.15269 19.56 6.05342 19.499 5.99219L17.8027 4.2959Z" fill="#161616"/>
</svg>
