<svg width="24" height="24" viewBox="0 0 24 24" fill="none" xmlns="http://www.w3.org/2000/svg">
<path d="M16.8304 19.0119C16.4526 18.9724 16.1584 18.6527 16.1592 18.2646L16.1659 15.6025L16.1669 14.8525L17.6673 14.8564L17.6633 16.5236C19.9378 13.6833 19.7659 9.52668 17.1381 6.88654C16.846 6.59295 16.847 6.11819 17.1405 5.82601C17.4341 5.53408 17.9089 5.53507 18.2011 5.82843C21.3913 9.03369 21.5843 14.092 18.7879 17.5214L19.5722 17.5223L20.3225 17.5243L20.3195 19.0244L16.9072 19.0158L16.8304 19.0119Z" fill="#161616"/>
<path d="M12.0049 3.25C14.3727 3.25 16.5194 4.19192 18.0947 5.71973C18.1008 5.72499 18.1064 5.73086 18.1123 5.73633C19.7419 7.32551 20.7549 9.54401 20.7549 12C20.7549 12.1465 20.7512 12.2921 20.7441 12.4365C20.7241 12.8427 20.3841 13.1589 19.9775 13.1494H19.9668C19.9615 13.1493 19.9543 13.1487 19.9453 13.1484C19.9268 13.1478 19.9004 13.1471 19.8672 13.1455C19.801 13.1424 19.7067 13.1376 19.5898 13.1289C19.3561 13.1115 19.029 13.0798 18.6523 13.0234C18.0041 12.9265 17.1669 12.7496 16.3955 12.4209L16.0693 12.2705C15.7364 12.1039 15.3534 11.7637 15.04 11.3535C14.7173 10.931 14.4119 10.3609 14.3135 9.69531C14.2123 9.01088 14.3372 8.26036 14.8271 7.5332C15.1584 7.04163 15.6435 6.58311 16.2988 6.15918C15.0967 5.27397 13.6122 4.75 12.0049 4.75C11.3085 4.75 10.6355 4.84991 9.99805 5.0332L11.9863 7.8623L12.0713 8.00488C12.2205 8.30024 12.2351 8.64625 12.1113 8.95312L12.0381 9.10352L10.5703 11.6152L10.582 14.1523L10.5742 14.2852C10.5071 14.8958 9.96534 15.3482 9.35254 15.3047L9.21973 15.2871L6.34375 14.749L5.5127 15.2285C6.70032 17.6121 9.16095 19.25 12.0049 19.25H12.7549V20.75H12.0049C7.17239 20.75 3.25488 16.8325 3.25488 12C3.25488 7.16751 7.17239 3.25 12.0049 3.25ZM17.4492 7.21484C16.7268 7.62256 16.3055 8.02201 16.0703 8.37109C15.7978 8.77556 15.7481 9.14698 15.7969 9.47656C15.8485 9.82488 16.0178 10.1624 16.2324 10.4434C16.4559 10.7358 16.6729 10.8949 16.7402 10.9287L16.9902 11.0439C17.5878 11.2977 18.2801 11.4512 18.874 11.54C19.0042 11.5595 19.1279 11.5736 19.2422 11.5869C19.1483 9.91482 18.4875 8.39522 17.4492 7.21484ZM4.75488 12C4.75488 12.6227 4.83378 13.227 4.98145 13.8037L5.70605 13.3857L5.79688 13.3379C5.98221 13.2519 6.18726 13.2168 6.39062 13.2363L6.49219 13.251L9.08008 13.7354L9.07031 11.5273C9.0694 11.3218 9.12289 11.1189 9.22656 10.9414L10.6289 8.54004L8.57227 5.6123C6.29954 6.83619 4.75488 9.23778 4.75488 12Z" fill="#161616"/>
</svg>
