<svg width="24" height="24" viewBox="0 0 24 24" fill="none" xmlns="http://www.w3.org/2000/svg">
<g clip-path="url(#clip0_1582_108442)">
<path d="M8.04117 12.7499H3.21572L5.40885 14.9431L4.34819 16.0037L0.874807 12.5303C0.734155 12.3897 0.655218 12.1989 0.655218 12C0.655229 11.8011 0.734165 11.6103 0.874807 11.4697L4.34819 7.99629L5.40885 9.05695L3.21572 11.2501H8.04117V12.7499ZM12.7499 20.7843L14.9431 18.5912L16.0037 19.6518L12.5303 23.1252C12.2374 23.4181 11.7626 23.4181 11.4697 23.1252L7.99628 19.6518L9.05694 18.5912L11.2501 20.7843V15.9588H12.7499V20.7843ZM11.4697 0.874812C11.7626 0.58192 12.2374 0.581919 12.5303 0.874812L16.0037 4.3482L14.9431 5.40886L12.7499 3.21572V8.04117H11.2501V3.21572L9.05694 5.40886L7.99628 4.3482L11.4697 0.874812ZM19.6518 16.0037L18.5911 14.9431L20.7843 12.7499H15.9588V11.2501H20.7843L18.5911 9.05695L19.6518 7.99629L23.1252 11.4697C23.4181 11.7626 23.4181 12.2374 23.1252 12.5303L19.6518 16.0037Z" fill="#161616"/>
</g>
<defs>
<clipPath id="clip0_1582_108442">
<rect width="24" height="24" fill="white"/>
</clipPath>
</defs>
</svg>
