<svg width="24" height="24" viewBox="0 0 24 24" fill="none" xmlns="http://www.w3.org/2000/svg">
<path d="M19.5 19.5V21H4.5V19.5H19.5ZM19.5 4.5H4.5V21L4.34668 20.9922C3.64069 20.9205 3.07949 20.3593 3.00781 19.6533L3 19.5V4.5C3 3.67157 3.67157 3 4.5 3H19.5C20.3284 3 21 3.67157 21 4.5V19.5C21 20.2767 20.4097 20.9154 19.6533 20.9922L19.5 21V4.5Z" fill="#161616"/>
<path d="M12.75 20H11.25L11.25 4L12.75 4L12.75 20Z" fill="#161616"/>
<path d="M8.625 8.625V12.6523L9.31445 11.877L10.4355 12.873L8.43555 15.123C8.29322 15.2832 8.08923 15.375 7.875 15.375C7.66077 15.375 7.45678 15.2832 7.31445 15.123L5.31445 12.873L6.43555 11.877L7.125 12.6523V8.625H8.625Z" fill="#161616"/>
<path d="M15.375 15.375V11.3477L14.6855 12.123L13.5645 11.127L15.5645 8.87695C15.7068 8.71684 15.9108 8.625 16.125 8.625C16.3392 8.625 16.5432 8.71684 16.6855 8.87695L18.6855 11.127L17.5645 12.123L16.875 11.3477V15.375H15.375Z" fill="#161616"/>
</svg>
