<svg width="24" height="24" viewBox="0 0 24 24" fill="none" xmlns="http://www.w3.org/2000/svg">
<path d="M17.5302 7.21962L16.4696 8.28028L12.7496 4.56038L12.7503 10.7496L11.2498 10.7503V4.56038L7.5299 8.28028L6.46924 7.21962L11.4694 2.21947L11.584 2.12556C11.7062 2.04416 11.8507 1.99991 11.9997 1.99988C12.1986 1.99988 12.3894 2.0789 12.5301 2.21947L17.5302 7.21962Z" fill="#161616"/>
<path d="M6.46941 16.7803L7.53007 15.7196L11.25 19.4395L11.2493 13.2503L12.7498 13.2496V19.4395L16.4697 15.7196L17.5304 16.7803L12.5302 21.7804L12.4156 21.8744C12.2934 21.9557 12.1489 22 11.9999 22C11.8011 22 11.6102 21.921 11.4696 21.7804L6.46941 16.7803Z" fill="#161616"/>
</svg>
