<svg width="100%" height="100%" overflow="visible" style="display: block;" viewBox="0 0 9.25 9.25" fill="none" xmlns="http://www.w3.org/2000/svg">
<path id="Icon (Stroke)" d="M8.5 4.625C8.5 2.4849 6.7651 0.75 4.625 0.75C2.4849 0.75 0.75 2.4849 0.75 4.625C0.75 6.7651 2.4849 8.5 4.625 8.5C6.7651 8.5 8.5 6.7651 8.5 4.625ZM4.25 5.8252H5V6.59375H4.25V5.8252ZM4.25 2.125H5V5H4.25V2.125ZM9.25 4.625C9.25 7.17932 7.17932 9.25 4.625 9.25C2.07068 9.25 0 7.17932 0 4.625C0 2.07068 2.07068 0 4.625 0C7.17932 0 9.25 2.07068 9.25 4.625Z" fill="var(--fill-0, #161616)"/>
</svg>
