<svg width="24" height="24" viewBox="0 0 24 24" fill="none" xmlns="http://www.w3.org/2000/svg">
<path d="M16.7793 17.5303L15.7186 16.4697L19.4385 12.7498L13.2493 12.7505L13.2486 11.2499L19.4385 11.2499L15.7186 7.53002L16.7793 6.46936L21.7794 11.4695L21.8733 11.5841C21.9547 11.7063 21.999 11.8509 21.999 11.9998C21.999 12.1987 21.92 12.3895 21.7794 12.5302L16.7793 17.5303Z" fill="#161616"/>
<path d="M7.21862 6.46953L8.27928 7.5302L4.55937 11.2501L10.7486 11.2494L10.7493 12.7499L4.55937 12.7499L8.27928 16.4698L7.21862 17.5305L2.21846 12.5304L2.12455 12.4157C2.04315 12.2935 1.9989 12.149 1.99887 12C1.99887 11.8012 2.07789 11.6103 2.21846 11.4697L7.21862 6.46953Z" fill="#161616"/>
</svg>
