<svg width="24" height="24" viewBox="0 0 24 24" fill="none" xmlns="http://www.w3.org/2000/svg">
<path d="M10.4719 5.12329C10.4719 4.62624 10.0686 4.22303 9.57153 4.2229C9.0744 4.2229 8.67114 4.62615 8.67114 5.12329C8.67127 5.62032 9.07448 6.02368 9.57153 6.02368C10.0685 6.02355 10.4718 5.62023 10.4719 5.12329ZM11.9719 5.12329C11.9718 6.44866 10.8969 7.52355 9.57153 7.52368C8.24605 7.52368 7.17127 6.44874 7.17114 5.12329C7.17114 3.79773 8.24597 2.7229 9.57153 2.7229C10.897 2.72303 11.9719 3.79781 11.9719 5.12329Z" fill="#161616"/>
<path d="M20.0999 9.60864C20.0996 8.61459 19.2932 7.80884 18.2991 7.80884H15.3079L7.39966 15.7161C7.16526 15.9504 6.8473 16.0823 6.51587 16.0823H5.74829C4.72802 16.0823 3.90063 16.9097 3.90063 17.9299C3.90079 18.9501 4.72812 19.7766 5.74829 19.7766H8.38696L16.3889 11.7756L16.4807 11.6926C16.7031 11.5105 16.9827 11.4094 17.2727 11.4094H18.2991C19.2933 11.4094 20.0999 10.6029 20.0999 9.60864ZM21.5999 9.60864C21.5999 11.4313 20.1218 12.9094 18.2991 12.9094H17.3762L9.37427 20.9104C9.13985 21.1448 8.822 21.2766 8.49048 21.2766H5.74829C3.89969 21.2766 2.40079 19.7785 2.40063 17.9299C2.40063 16.0812 3.89959 14.5823 5.74829 14.5823H6.41235L14.3196 6.67505C14.554 6.44063 14.8728 6.30884 15.2043 6.30884H18.2991C20.1216 6.30884 21.5996 7.78617 21.5999 9.60864Z" fill="#161616"/>
<path d="M7.46118 8.05786C7.46125 7.74753 7.54185 7.3569 7.82642 7.0354C8.12608 6.69689 8.58598 6.34586 9.18774 6.20825C9.81337 6.06519 10.5113 6.17189 11.2151 6.62427C11.8835 7.05396 12.2043 7.75737 12.3625 8.3479L12.7249 9.69751L11.2756 10.0862L10.9143 8.7356C10.7999 8.30896 10.621 8.02676 10.4036 7.88696C10.0082 7.6328 9.7197 7.6249 9.52173 7.67017C9.30714 7.71932 9.11186 7.85238 8.96411 8.01392C8.96374 8.0159 8.9635 8.0182 8.96313 8.02075C8.96179 8.03024 8.9612 8.04277 8.96118 8.05786V13.8069H7.46118V8.05786Z" fill="#161616"/>
</svg>
