<svg width="100%" height="100%" overflow="visible" style="display: block;" viewBox="0 0 18.5 18.5" fill="none" xmlns="http://www.w3.org/2000/svg">
<path id="Icon (Stroke)" d="M17 9.25C17 4.96979 13.5302 1.5 9.25 1.5C4.96979 1.5 1.5 4.96979 1.5 9.25C1.5 13.5302 4.96979 17 9.25 17C13.5302 17 17 13.5302 17 9.25ZM8.5 11.6504H10V13.1875H8.5V11.6504ZM8.5 4.25H10V10H8.5V4.25ZM18.5 9.25C18.5 14.3586 14.3586 18.5 9.25 18.5C4.14137 18.5 0 14.3586 0 9.25C0 4.14137 4.14137 0 9.25 0C14.3586 0 18.5 4.14137 18.5 9.25Z" fill="var(--fill-0, #161616)"/>
</svg>
