<svg width="100%" height="100%" overflow="visible" style="display: block;" viewBox="0 0 10.7917 10.7917" fill="none" xmlns="http://www.w3.org/2000/svg">
<path id="Icon (Stroke)" d="M9.91667 5.39583C9.91667 2.89905 7.89262 0.875 5.39583 0.875C2.89905 0.875 0.875 2.89905 0.875 5.39583C0.875 7.89262 2.89905 9.91667 5.39583 9.91667C7.89262 9.91667 9.91667 7.89262 9.91667 5.39583ZM4.95833 6.79606H5.83333V7.69271H4.95833V6.79606ZM4.95833 2.47917H5.83333V5.83333H4.95833V2.47917ZM10.7917 5.39583C10.7917 8.37587 8.37587 10.7917 5.39583 10.7917C2.4158 10.7917 0 8.37587 0 5.39583C0 2.4158 2.4158 0 5.39583 0C8.37587 0 10.7917 2.4158 10.7917 5.39583Z" fill="var(--fill-0, #161616)"/>
</svg>
