<svg width="24" height="24" viewBox="0 0 24 24" fill="none" xmlns="http://www.w3.org/2000/svg">
<path d="M12.3213 4.82129C16.0683 4.82129 18.5135 6.59633 20.001 8.35742C20.7403 9.23271 21.2458 10.1058 21.5664 10.7598C21.727 11.0873 21.8426 11.3625 21.9189 11.5586C21.9571 11.6566 21.9854 11.7352 22.0049 11.791C22.0146 11.8189 22.022 11.8413 22.0273 11.8574C22.03 11.8655 22.0326 11.872 22.0342 11.877C22.035 11.8794 22.0356 11.8821 22.0361 11.8838V11.8857L22.0371 11.8867C22.0369 11.8872 22.0206 11.8923 21.3213 12.1113L22.0332 12.3486L22.0322 12.3496V12.3516C22.0317 12.3532 22.0301 12.3551 22.0293 12.3574C22.0276 12.3623 22.0262 12.3692 22.0234 12.377C22.0179 12.3928 22.0101 12.415 22 12.4424C21.9798 12.4973 21.9496 12.5745 21.9102 12.6709C21.8313 12.8637 21.7123 13.1346 21.5479 13.4561C21.2198 14.0972 20.7063 14.9516 19.9609 15.8047C18.4607 17.5217 16.0124 19.2373 12.3086 19.1768C8.62125 19.1163 6.18466 17.4099 4.68652 15.7256C3.94156 14.888 3.42733 14.0554 3.09863 13.4316C2.93402 13.1192 2.81443 12.857 2.73535 12.6699C2.69592 12.5766 2.6668 12.5016 2.64648 12.4482C2.63636 12.4217 2.62769 12.4003 2.62207 12.3848C2.61926 12.377 2.61694 12.3701 2.61523 12.3652C2.61443 12.363 2.61384 12.361 2.61328 12.3594L2.6123 12.3574L3.32129 12.1113C2.62196 11.8923 2.60572 11.8872 2.60547 11.8867L2.60645 11.8857V11.8838C2.60698 11.8821 2.6076 11.8794 2.6084 11.877C2.61 11.872 2.61257 11.8655 2.61523 11.8574C2.62057 11.8413 2.62796 11.8189 2.6377 11.791C2.65714 11.7352 2.68549 11.6566 2.72363 11.5586C2.79994 11.3625 2.91558 11.0873 3.07617 10.7598C3.39681 10.1058 3.9023 9.23271 4.6416 8.35742C6.12913 6.59633 8.57427 4.82129 12.3213 4.82129ZM12.3213 6.32129C9.11646 6.32129 7.06161 7.81626 5.78711 9.3252C5.14541 10.0849 4.70347 10.8476 4.42285 11.4199C4.28407 11.703 4.1859 11.9374 4.12305 12.0986C4.18767 12.2507 4.28703 12.4691 4.42578 12.7324C4.71187 13.2753 5.16076 14.0012 5.80762 14.7285C7.09309 16.1737 9.15637 17.6248 12.334 17.6768C15.4953 17.7283 17.5477 16.2861 18.8311 14.8174C19.4771 14.0779 19.9262 13.3328 20.2129 12.7725C20.3557 12.4933 20.4558 12.2618 20.5205 12.1035C20.4577 11.9421 20.3596 11.7051 20.2197 11.4199C19.9391 10.8476 19.4972 10.0849 18.8555 9.3252C17.581 7.81626 15.5261 6.32129 12.3213 6.32129ZM13.8213 12.0273C13.8213 11.2516 13.1692 10.5879 12.3213 10.5879C11.4734 10.5879 10.8213 11.2516 10.8213 12.0273C10.8214 12.8031 11.4735 13.4668 12.3213 13.4668C13.1691 13.4668 13.8212 12.8031 13.8213 12.0273ZM3.32129 12.1113L2.6123 12.3555L2.53223 12.1221L2.60547 11.8867L3.32129 12.1113ZM22.1094 12.1182L22.0332 12.3486L21.3213 12.1113L22.0371 11.8867L22.1094 12.1182ZM15.3213 12.0273C15.3212 13.6698 13.9587 14.9668 12.3213 14.9668C10.6839 14.9668 9.32137 13.6698 9.32129 12.0273C9.32129 10.3848 10.6839 9.08789 12.3213 9.08789C13.9587 9.08789 15.3213 10.3848 15.3213 12.0273Z" fill="#161616"/>
</svg>
