<svg width="100%" height="100%" overflow="visible" style="display: block;" viewBox="0 0 24.6667 24.6667" fill="none" xmlns="http://www.w3.org/2000/svg">
<path id="Icon (Stroke)" d="M22.6667 12.3333C22.6667 6.62639 18.0403 2 12.3333 2C6.62639 2 2 6.62639 2 12.3333C2 18.0403 6.62639 22.6667 12.3333 22.6667C18.0403 22.6667 22.6667 18.0403 22.6667 12.3333ZM11.3333 15.5339H13.3333V17.5833H11.3333V15.5339ZM11.3333 5.66667H13.3333V13.3333H11.3333V5.66667ZM24.6667 12.3333C24.6667 19.1448 19.1448 24.6667 12.3333 24.6667C5.52182 24.6667 0 19.1448 0 12.3333C0 5.52182 5.52182 0 12.3333 0C19.1448 0 24.6667 5.52182 24.6667 12.3333Z" fill="var(--fill-0, #161616)"/>
</svg>
