<svg width="100%" height="100%" overflow="visible" style="display: block;" viewBox="0 0 15.4167 15.4167" fill="none" xmlns="http://www.w3.org/2000/svg">
<path id="Icon (Stroke)" d="M14.1667 7.70833C14.1667 4.14149 11.2752 1.25 7.70833 1.25C4.14149 1.25 1.25 4.14149 1.25 7.70833C1.25 11.2752 4.14149 14.1667 7.70833 14.1667C11.2752 14.1667 14.1667 11.2752 14.1667 7.70833ZM7.08333 9.70866H8.33333V10.9896H7.08333V9.70866ZM7.08333 3.54167H8.33333V8.33333H7.08333V3.54167ZM15.4167 7.70833C15.4167 11.9655 11.9655 15.4167 7.70833 15.4167C3.45114 15.4167 0 11.9655 0 7.70833C0 3.45114 3.45114 0 7.70833 0C11.9655 0 15.4167 3.45114 15.4167 7.70833Z" fill="var(--fill-0, #161616)"/>
</svg>
