<svg width="24" height="24" viewBox="0 0 24 24" fill="none" xmlns="http://www.w3.org/2000/svg">
<path d="M9.39355 15.667L5.56055 19.5H9.08301V21H3.75C3.55109 21 3.36038 20.9209 3.21973 20.7803C3.07907 20.6396 3 20.4489 3 20.25V14.917H4.5V18.4395L8.33301 14.6064L9.39355 15.667ZM19.5 18.4395V14.917H21V20.25C21 20.6642 20.6642 21 20.25 21H14.917V19.5H18.4395L14.6064 15.667L15.667 14.6064L19.5 18.4395ZM3 3.75C3 3.33579 3.33579 3 3.75 3H9.08301V4.5H5.56055L9.39355 8.33301L8.33301 9.39355L4.5 5.56055V9.08301H3V3.75ZM21 9.08301H19.5V5.56055L15.667 9.39355L14.6064 8.33301L18.4395 4.5H14.917V3H20.25L20.3271 3.00391C20.7051 3.04253 21 3.36183 21 3.75V9.08301Z" fill="#161616"/>
</svg>
