<svg width="24" height="24" viewBox="0 0 24 24" fill="none" xmlns="http://www.w3.org/2000/svg">
<path d="M18.8213 14.75H15.6064L13.8213 16.3359V20C13.8213 20.1381 13.9332 20.25 14.0713 20.25H18.5713C18.7094 20.25 18.8213 20.1381 18.8213 20V14.75ZM4.32227 15.7217L4.32129 2.25H5.82129V6.85938H10.3213V8.35938H5.82129L5.82227 15.7217C5.82232 16.9643 6.82966 17.9717 8.07227 17.9717H10.3213V19.4717H8.07227C6.00126 19.4717 4.32235 17.7927 4.32227 15.7217ZM18.8213 3.75H15.6064L13.8213 5.33594V9L13.8262 9.05078C13.8496 9.16452 13.9506 9.25 14.0713 9.25H18.5713C18.7094 9.25 18.8213 9.13807 18.8213 9V3.75ZM20.3125 20.1787C20.223 21.0613 19.4775 21.75 18.5713 21.75H14.0713C13.1048 21.75 12.3213 20.9665 12.3213 20V16C12.3213 15.7858 12.4131 15.5818 12.5732 15.4395L14.8232 13.4395L14.9326 13.3584C15.0491 13.2879 15.1834 13.25 15.3213 13.25H19.5713C19.7702 13.25 19.9609 13.3291 20.1016 13.4697C20.2422 13.6104 20.3213 13.8011 20.3213 14V20L20.3125 20.1787ZM20.3125 9.17871C20.2289 10.0025 19.5738 10.6577 18.75 10.7412L18.5713 10.75H14.0713C13.1651 10.75 12.4196 10.0613 12.3301 9.17871L12.3213 9V5C12.3213 4.78578 12.4131 4.58178 12.5732 4.43945L14.8232 2.43945L14.9326 2.3584C15.0491 2.28785 15.1834 2.25 15.3213 2.25H19.5713C19.7702 2.25 19.9609 2.32912 20.1016 2.46973C20.2422 2.61038 20.3213 2.80109 20.3213 3V9L20.3125 9.17871Z" fill="#161616"/>
</svg>
