<svg width="24" height="24" viewBox="0 0 24 24" fill="none" xmlns="http://www.w3.org/2000/svg">
<path d="M17.8594 12.498C18.1539 12.2582 18.5878 12.2755 18.8623 12.5498L22.0303 15.7178C22.1709 15.8584 22.25 16.0492 22.25 16.248C22.25 16.447 22.1709 16.6377 22.0303 16.7783L17.2783 21.5303C17.1377 21.6708 16.9469 21.75 16.748 21.75H13.5801C13.166 21.7498 12.8301 21.4141 12.8301 21V17.832C12.8301 17.6332 12.9093 17.4424 13.0498 17.3018L17.8018 12.5498L17.8594 12.498ZM14.3301 18.1426V20.25H16.4375L20.4395 16.248L18.332 14.1406L14.3301 18.1426ZM17.3105 5.24023C17.3105 4.41729 16.6433 3.75 15.8203 3.75H5.74023C4.9173 3.75 4.25001 4.4173 4.25 5.24023V18.6807C4.25013 19.5035 4.91738 20.1709 5.74023 20.1709H10.9697V21.6709H5.74023C4.08895 21.6709 2.75013 20.3319 2.75 18.6807V5.24023C2.75001 3.58887 4.08887 2.25 5.74023 2.25H15.8203C17.4717 2.25 18.8105 3.58887 18.8105 5.24023V10.4697H17.3105V5.24023Z" fill="#161616"/>
</svg>
