<svg width="24" height="24" viewBox="0 0 24 24" fill="none" xmlns="http://www.w3.org/2000/svg">
<path d="M3.79586 11.9996L9.63766 17.8414V6.15877L3.79586 11.9996ZM14.4082 11.9996L20.25 17.8414V6.15877L14.4082 11.9996ZM11.1337 18.2262C11.0484 19.3485 9.70657 19.9044 8.8525 19.1715L8.76851 19.0933L2.65621 12.981C2.11458 12.4392 2.11461 11.561 2.65621 11.0191L8.76851 4.90682L8.8525 4.8287C9.73486 4.07144 11.1374 4.68981 11.1377 5.88729V18.1129L11.1337 18.2262ZM21.7461 18.2262C21.6607 19.3485 20.3189 19.9043 19.4648 19.1715L19.3808 19.0933L13.2685 12.981C12.7268 12.4392 12.7269 11.561 13.2685 11.0191L19.3808 4.90682L19.4648 4.8287C20.3472 4.07152 21.7498 4.68983 21.75 5.88729V18.1129L21.7461 18.2262Z" fill="#161616"/>
</svg>
