<svg width="24" height="24" viewBox="0 0 24 24" fill="none" xmlns="http://www.w3.org/2000/svg">
<path d="M10.5935 15.2693H9.09346V8.73123H10.5935V15.2693Z" fill="#858585"/>
<path d="M14.906 15.2693H13.406V8.73123H14.906V15.2693Z" fill="#858585"/>
<path fill-rule="evenodd" clip-rule="evenodd" d="M5.45869 5.45877C9.071 1.84657 14.9284 1.84661 18.5407 5.45877C22.153 9.07109 22.153 14.9284 18.5407 18.5408L18.195 18.8689C14.6812 22.0434 9.31827 22.0434 5.8044 18.8689L5.45869 18.5408C1.8465 14.9284 1.8464 9.07107 5.45869 5.45877ZM17.4802 6.51932C14.4536 3.49294 9.54576 3.4929 6.51924 6.51932C3.49273 9.54583 3.49284 14.4537 6.51924 17.4803C9.5458 20.5068 14.4536 20.5068 17.4802 17.4803C20.5066 14.4537 20.5067 9.54585 17.4802 6.51932Z" fill="#858585"/>
</svg>
