<svg width="24" height="24" viewBox="0 0 24 24" fill="none" xmlns="http://www.w3.org/2000/svg">
<path d="M3.9375 18H5.4375V21.75H3.9375V18ZM11.8125 18H13.3125V21.75H11.8125V18ZM19.6875 18H21.1875V21.75H19.6875V18ZM7.875 18H9.375V20.625H7.875V18ZM15.75 18H17.25V20.625H15.75V18ZM21.75 14.0625V15.5625H2.25V14.0625H21.75ZM3.9375 5.25C3.93751 3.59318 5.28069 2.25005 6.9375 2.25H15.4404C15.9692 2.25 16.465 2.47282 16.8203 2.84668L17.415 3.45508C17.641 3.67954 17.886 3.9151 18.125 4.12891L18.4717 4.45117C18.8432 4.80902 19.2685 5.24659 19.543 5.53125L19.6621 5.66699C19.9228 5.99637 20.0625 6.40438 20.0625 6.82324V11.0625H18.5625V8.25H15.9375C14.9021 8.24981 14.0625 7.41042 14.0625 6.375V3.75H6.9375C6.10912 3.75005 5.43751 4.4216 5.4375 5.25V11.0625H3.9375V5.25ZM15.5625 6.375C15.5625 6.58199 15.7306 6.74981 15.9375 6.75H18.5547C18.5457 6.70494 18.5299 6.66234 18.5059 6.625L18.4639 6.57227C18.0914 6.18591 17.4933 5.57564 17.125 5.24609C16.8633 5.01196 16.5984 4.75795 16.3574 4.51855L15.7334 3.87988C15.684 3.82793 15.6247 3.79232 15.5625 3.77148V6.375Z" fill="#161616"/>
</svg>
