<svg width="24" height="24" viewBox="0 0 24 24" fill="none" xmlns="http://www.w3.org/2000/svg">
<path fill-rule="evenodd" clip-rule="evenodd" d="M8.20996 10.6943L6.68164 12.9961L10.168 13.04H10.1699L10.3613 13.0527C11.3049 13.1596 12.0688 13.941 12.0693 14.9375L12.0771 19.873L14.1963 16.6807L15.2793 17.7637L13.0293 21.1523L13.0273 21.1563C12.3254 22.1991 10.5805 21.798 10.5791 20.4277L10.5693 14.9395L10.5615 14.8633C10.5256 14.6917 10.3691 14.5435 10.1475 14.54L6.3457 14.4912H6.33984C5.32846 14.4699 4.6419 13.3462 5.25098 12.4385L7.12793 9.61231L8.20996 10.6943ZM11.6895 2.73828C12.0677 2.28084 12.6467 2.17227 13.1123 2.30176C13.6133 2.44122 14.0911 2.89177 14.0918 3.57227L14.1016 9.06055L14.1094 9.12988C14.1444 9.29187 14.3013 9.4561 14.5596 9.45996L18.4795 9.50879H18.4854L18.668 9.52442C19.5618 9.66551 20.1906 10.6851 19.584 11.5664L19.585 11.5674L16.8857 15.5029L21.2588 19.876L20.1982 20.9365L3.38672 4.125L4.44727 3.06445L8.61133 7.22852L11.6143 2.83887L11.6172 2.83496L11.6895 2.73828ZM9.69043 8.30762L15.8066 14.4238L18.1523 11.0039L14.5391 10.96C13.5111 10.9448 12.6021 10.1463 12.6016 9.0625L12.5918 4.06348L9.69043 8.30762Z" fill="#161616"/>
</svg>
