<svg width="24" height="24" viewBox="0 0 24 24" fill="none" xmlns="http://www.w3.org/2000/svg">
<path d="M17.375 5.25C17.375 4.42157 16.7034 3.75 15.875 3.75H5.75C4.92162 3.75005 4.25001 4.4216 4.25 5.25V18.75C4.25 19.5784 4.92157 20.25 5.75 20.25H11V21.75H5.75C4.09315 21.75 2.75 20.4068 2.75 18.75V5.25C2.75001 3.59318 4.09319 2.25005 5.75 2.25H15.875C17.5319 2.25 18.875 3.59314 18.875 5.25V12.1875H17.375V5.25Z" fill="#161616"/>
<path d="M18.8092 17.8558C18.8092 17.7221 18.7008 17.6129 18.5671 17.6127H14.5963C14.4626 17.6128 14.3542 17.722 14.3542 17.8558V20.8324C14.3542 20.9662 14.4626 21.0754 14.5963 21.0756H18.5671C18.7008 21.0753 18.8092 20.9662 18.8092 20.8324V17.8558ZM17.32 15.6263C17.3198 15.2186 16.9895 14.8881 16.5817 14.8881C16.1738 14.8881 15.8427 15.2185 15.8424 15.6263V16.1127H17.32V15.6263ZM18.82 16.1332C19.6621 16.256 20.3092 16.9796 20.3092 17.8558V20.8324C20.3092 21.7946 19.5292 22.5753 18.5671 22.5756H14.5963C13.6341 22.5754 12.8542 21.7946 12.8542 20.8324V17.8558C12.8542 16.9799 13.5007 16.2563 14.3424 16.1332V15.6263C14.3427 14.3901 15.3454 13.3881 16.5817 13.3881C17.818 13.3881 18.8198 14.3901 18.82 15.6263V16.1332Z" fill="#161616"/>
</svg>
