<svg width="24" height="24" viewBox="0 0 24 24" fill="none" xmlns="http://www.w3.org/2000/svg">
<path d="M2.7002 19.2002V8.40039C2.7002 6.99216 3.8418 5.84975 5.25 5.84961H8.10059V4.7998C8.10069 3.39157 9.24213 2.25 10.6504 2.25H17.4521C17.9174 2.25 18.3534 2.44572 18.665 2.77344C18.9228 3.04462 19.3223 3.45288 19.7002 3.79102C20.0382 4.09346 20.5507 4.61793 20.8428 4.9209C21.1395 5.22871 21.3008 5.63758 21.3008 6.05859L21.2998 15.5996C21.2998 17.0079 20.1583 18.1504 18.75 18.1504H15.9004V19.2002C15.9003 20.6083 14.7587 21.7498 13.3506 21.75H5.25C3.84184 21.7499 2.70032 20.6083 2.7002 19.2002ZM12.3008 9.2998C12.3008 9.38255 12.3675 9.45004 12.4502 9.4502H14.2539C13.9581 9.14523 13.5576 8.73855 13.3008 8.50879C12.9367 8.18305 12.5672 7.8089 12.3008 7.53223V9.2998ZM4.2002 19.2002C4.20032 19.7799 4.67027 20.2499 5.25 20.25H13.3506C13.9303 20.2498 14.4003 19.7799 14.4004 19.2002V10.9502H12.4502C11.5391 10.95 10.8008 10.211 10.8008 9.2998V7.34961H5.25C4.67023 7.34975 4.2002 7.82058 4.2002 8.40039V19.2002ZM17.7002 5.7002C17.7003 5.78295 17.7678 5.84961 17.8506 5.84961H19.6523C19.3566 5.54472 18.9567 5.13865 18.7002 4.90918C18.3359 4.5832 17.9667 4.20838 17.7002 3.93164V5.7002ZM9.60059 5.84961H12.3008V5.87109C12.6709 5.92733 13.0102 6.10527 13.2656 6.37402C13.5234 6.64524 13.9229 7.05255 14.3008 7.39062C14.6388 7.69307 15.1513 8.21755 15.4434 8.52051C15.6908 8.77717 15.8418 9.10458 15.8857 9.4502H15.9004V16.6504H18.75C19.3299 16.6504 19.7998 16.1795 19.7998 15.5996L19.8008 7.34961H17.8506C16.9394 7.34961 16.2003 6.61138 16.2002 5.7002V3.75H10.6504C10.0706 3.75 9.60069 4.22 9.60059 4.7998V5.84961Z" fill="#161616"/>
<path d="M12.3838 11.25V12.75H6.25V11.25H12.3838Z" fill="#161616"/>
<path d="M12.3838 14.25V15.75H6.25V14.25H12.3838Z" fill="#161616"/>
<path d="M12.3838 17.25V18.75H6.25V17.25H12.3838Z" fill="#161616"/>
</svg>
