<svg width="24" height="24" viewBox="0 0 24 24" fill="none" xmlns="http://www.w3.org/2000/svg">
<path d="M18.2764 13.4597H19.7764V18.0144L21.3242 16.4744L22.3818 17.5378L19.5557 20.3503C19.2632 20.6414 18.7907 20.6413 18.498 20.3503L16.3047 18.1707L15.7734 17.6414L16.8311 16.5779L18.2764 18.0144V13.4597ZM20.5205 8.42456C20.5203 8.2195 20.3545 8.05369 20.1494 8.05347H12.374C12.1666 8.05343 11.9679 7.96663 11.8262 7.81519L9.46387 5.29175H4.44336C4.2374 5.29175 4.07137 5.4581 4.07129 5.66284C4.07156 6.54402 4.07227 7.76142 4.07227 8.61597V17.1462C4.07228 17.9712 4.74051 18.6403 5.56543 18.6404H14.9658V20.1404H5.56543C3.91208 20.1403 2.57228 18.7996 2.57227 17.1462V8.61597C2.57227 7.76176 2.57156 6.54498 2.57129 5.66382C2.57097 4.62917 3.40989 3.79175 4.44336 3.79175H9.78906L9.86621 3.79565C10.0452 3.81414 10.2128 3.89646 10.3369 4.02905L12.7002 6.55347H20.1494C21.1829 6.55369 22.0203 7.39107 22.0205 8.42456V12.155H20.5205V8.42456Z" fill="#161616"/>
</svg>
