<svg width="24" height="24" viewBox="0 0 24 24" fill="none" xmlns="http://www.w3.org/2000/svg">
<path d="M10.0513 4.33147C10.7865 4.33155 11.4435 4.79182 11.6948 5.48284L14.3169 12.6948H16.5083V16.2006C16.5556 16.2587 16.6019 16.3177 16.645 16.3793L16.7944 16.6147L16.8003 16.6244L16.897 16.8129C17.1067 17.2581 17.2123 17.7467 17.2046 18.2407V18.2524C17.1812 18.9988 16.8881 19.7116 16.3804 20.2592C15.8725 20.8069 15.1836 21.1522 14.4409 21.2319C13.6983 21.3115 12.9519 21.1202 12.3394 20.6928C11.7268 20.2652 11.2891 19.6304 11.1079 18.9057C11.0638 18.7294 11.0365 18.5506 11.0239 18.3715H7.81787C7.70685 19.9797 6.36827 21.2494 4.73193 21.2494C3.02296 21.2494 1.63741 19.8646 1.63721 18.1557C1.63721 16.6472 2.71655 15.3908 4.14502 15.1166V7.07854C4.14524 5.56134 5.37581 4.33147 6.89307 4.33147H10.0513ZM14.6323 16.6489C14.2685 16.5229 13.8712 16.5323 13.5142 16.6762C13.1572 16.8201 12.8647 17.0884 12.6899 17.4311C12.5151 17.774 12.4696 18.169 12.563 18.5424C12.6564 18.9156 12.8822 19.242 13.1978 19.4623C13.5134 19.6827 13.898 19.7817 14.2808 19.7407C14.6636 19.6996 15.019 19.5219 15.2808 19.2397C15.5415 18.9585 15.6906 18.5925 15.7036 18.2094C15.707 17.9111 15.6336 17.6173 15.4897 17.3559C15.2979 17.0251 14.994 16.774 14.6323 16.6489ZM5.64502 15.1977C6.49207 15.4589 7.18145 16.0752 7.54541 16.8715H11.2983C11.3167 16.8313 11.3329 16.79 11.353 16.7504C11.6923 16.085 12.2608 15.5638 12.9536 15.2846C13.6094 15.0204 14.3341 14.9922 15.0083 15.1967V14.1948H5.64502V15.1977ZM3.13721 18.1557C3.13741 19.0362 3.85138 19.7494 4.73193 19.7494C5.61242 19.7494 6.32646 19.0361 6.32666 18.1557C6.32666 17.2751 5.61255 16.561 4.73193 16.561C3.85126 16.561 3.13721 17.275 3.13721 18.1557ZM5.64502 12.6948H12.7212L10.2847 5.99553C10.2489 5.89729 10.1558 5.83155 10.0513 5.83147H6.89307C6.20424 5.83147 5.64524 6.38977 5.64502 7.07854V12.6948Z" fill="#161616"/>
<path d="M15.0078 2.05786H16.5078V16.1975H15.0078V2.05786Z" fill="#161616"/>
<path d="M22.4072 15.3434V16.8434H15.1416V15.3434H22.4072Z" fill="#161616"/>
</svg>
