<svg width="24" height="24" viewBox="0 0 24 24" fill="none" xmlns="http://www.w3.org/2000/svg">
<path d="M9.14062 8.10352V16.3535H7.64062V8.10352H9.14062ZM16.3594 8.10352V16.3535H14.8594V8.10352H16.3594Z" fill="#161616"/>
<path d="M19 19.7285V21.2285H5V19.7285H19ZM19.5 19.2285V5.22852C19.5 4.95237 19.2761 4.72852 19 4.72852H5C4.72386 4.72852 4.5 4.95237 4.5 5.22852V19.2285C4.5 19.5047 4.72386 19.7285 5 19.7285V21.2285L4.7959 21.2178C3.85435 21.1223 3.1062 20.3742 3.01074 19.4326L3 19.2285V5.22852C3 4.12395 3.89543 3.22852 5 3.22852H19C20.1046 3.22852 21 4.12395 21 5.22852V19.2285C21 20.2642 20.2128 21.1155 19.2041 21.2178L19 21.2285V19.7285C19.2761 19.7285 19.5 19.5047 19.5 19.2285Z" fill="#161616"/>
</svg>
