<svg width="24" height="24" viewBox="0 0 24 24" fill="none" xmlns="http://www.w3.org/2000/svg">
<path d="M18.375 14.5498L18.9219 15.0635L18.8877 15.0977C18.8726 15.1123 18.8537 15.1305 18.8311 15.1504C18.7858 15.1901 18.7248 15.239 18.6475 15.2939C18.4923 15.4043 18.2708 15.5374 17.9717 15.665C17.3714 15.9211 16.4732 16.1504 15.1875 16.1504C13.8174 16.1504 12.6865 15.6585 11.7061 15.2402C10.6944 14.8086 9.83279 14.4502 8.8125 14.4502C7.70781 14.4502 7.01198 14.6456 6.61621 14.8145C6.51941 14.8558 6.43941 14.8957 6.375 14.9316V21.25H4.875V4.34961C4.8751 4.1592 4.94789 3.97583 5.07812 3.83691L5.625 4.34961C5.08419 3.8426 5.07782 3.8364 5.07812 3.83594L5.0791 3.83496L5.08105 3.83398L5.09277 3.82227C5.09853 3.81641 5.10475 3.80909 5.1123 3.80176C5.12741 3.78711 5.14636 3.76984 5.16895 3.75C5.21421 3.71024 5.2751 3.66151 5.35254 3.60645C5.50772 3.49609 5.72907 3.36303 6.02832 3.23535C6.62864 2.97926 7.52675 2.75 8.8125 2.75C10.1827 2.75 11.3135 3.24184 12.2939 3.66016C13.3056 4.09181 14.1672 4.4502 15.1875 4.4502C16.2922 4.4502 16.988 4.25382 17.3838 4.08496C17.582 4.00034 17.7094 3.92108 17.7783 3.87207C17.8125 3.84773 17.833 3.83012 17.8408 3.82324C17.8446 3.81993 17.8459 3.81922 17.8438 3.82129C17.8426 3.82239 17.8405 3.82451 17.8379 3.82715C17.8366 3.82843 17.8346 3.8294 17.833 3.83105C17.8322 3.83185 17.8319 3.8331 17.8311 3.83398L17.8291 3.83594H17.8281C18.0385 3.6121 18.3646 3.53954 18.6504 3.65234C18.9365 3.76547 19.1248 4.04201 19.125 4.34961V14.5498C19.125 14.7403 19.0521 14.9235 18.9219 15.0625L18.375 14.5498ZM8.8125 4.25C7.70781 4.25 7.01198 4.44637 6.61621 4.61523C6.51937 4.65657 6.43941 4.69648 6.375 4.73242V13.3047C6.95826 13.1069 7.75372 12.9502 8.8125 12.9502C10.1827 12.9502 11.3135 13.442 12.2939 13.8604C13.3056 14.292 14.1672 14.6504 15.1875 14.6504C16.2922 14.6504 16.988 14.454 17.3838 14.2852C17.4808 14.2437 17.5605 14.203 17.625 14.167V5.59473C17.0417 5.79258 16.2464 5.9502 15.1875 5.9502C13.8174 5.9502 12.6865 5.45835 11.7061 5.04004C10.6944 4.60839 9.83279 4.25 8.8125 4.25Z" fill="#161616"/>
</svg>
