<svg width="24" height="24" viewBox="0 0 24 24" fill="none" xmlns="http://www.w3.org/2000/svg">
<path d="M2.57227 17.4314V8.62769C2.57227 7.72985 2.57157 6.43224 2.57129 5.54175C2.57098 4.57453 3.35533 3.79195 4.32129 3.79175H9.80762L9.88477 3.79565C10.0637 3.81417 10.2314 3.89649 10.3555 4.02905L12.7246 6.5603H20.3213C21.2878 6.56032 22.0713 7.34477 22.0713 8.31128V17.4314C22.0712 18.95 20.8399 20.1812 19.3213 20.1814H5.32227C3.8035 20.1814 2.5723 18.9501 2.57227 17.4314ZM4.07227 17.4314C4.0723 18.1217 4.63193 18.6814 5.32227 18.6814H19.3213C20.0115 18.6812 20.5713 18.1216 20.5713 17.4314V8.3103C20.571 8.17246 20.4592 8.06032 20.3213 8.0603H12.3994C12.192 8.06021 11.9943 7.97439 11.8525 7.823L9.48242 5.29175H4.32129C4.18289 5.29195 4.0715 5.40359 4.07129 5.54077C4.07157 6.43126 4.07227 7.72957 4.07227 8.62769V17.4314Z" fill="#161616"/>
</svg>
