<svg width="24" height="24" viewBox="0 0 24 24" fill="none" xmlns="http://www.w3.org/2000/svg">
<path d="M15.125 19.6875H16.625V21.2725H15.125V19.6875ZM17.375 15.3262C17.375 14.5402 16.719 13.875 15.875 13.875C15.0311 13.8752 14.375 14.5403 14.375 15.3262V16.0762H12.875V15.3262C12.875 13.681 14.2339 12.3752 15.875 12.375C17.5162 12.375 18.875 13.6809 18.875 15.3262L18.8711 15.4795C18.803 16.7961 17.8624 17.8653 16.625 18.1797V18.9502H15.125V17.5273C15.125 17.1133 15.461 16.7776 15.875 16.7773C16.719 16.7773 17.375 16.1122 17.375 15.3262ZM17.375 5.25C17.375 4.42157 16.7034 3.75 15.875 3.75H5.75C4.92162 3.75005 4.25001 4.4216 4.25 5.25V18.75C4.25 19.5784 4.92157 20.25 5.75 20.25H12.125V21.75H5.75C4.09315 21.75 2.75 20.4068 2.75 18.75V5.25C2.75001 3.59318 4.09319 2.25005 5.75 2.25H15.875C17.5319 2.25 18.875 3.59314 18.875 5.25V9.9375H17.375V5.25Z" fill="#161616"/>
</svg>
