<svg width="24" height="24" viewBox="0 0 24 24" fill="none" xmlns="http://www.w3.org/2000/svg">
<path d="M14.6221 15.3721L14.0938 15.9043L13.1787 16.8242H18.1504C18.6541 16.8242 19.0625 16.4158 19.0625 15.9121C19.0625 15.4084 18.6541 15 18.1504 15H15.875V13.5H18.1504C19.4825 13.5 20.5625 14.58 20.5625 15.9121C20.5625 17.2443 19.4825 18.3242 18.1504 18.3242H13.1807L14.1973 19.3457L14.7256 19.8779L13.6631 20.9355L10.8438 18.1035C10.5526 17.811 10.5528 17.3376 10.8438 17.0449L13.0303 14.8467L13.5586 14.3145L14.6221 15.3721ZM17.375 5.25C17.375 4.42157 16.7034 3.75 15.875 3.75H5.75C4.92162 3.75005 4.25001 4.4216 4.25 5.25V18.75C4.25 19.5784 4.92157 20.25 5.75 20.25H10.4375V21.75H5.75C4.09315 21.75 2.75 20.4068 2.75 18.75V5.25C2.75001 3.59318 4.09319 2.25005 5.75 2.25H15.875C17.5319 2.25 18.875 3.59314 18.875 5.25V11.0625H17.375V5.25Z" fill="#161616"/>
</svg>
