<svg width="24" height="24" viewBox="0 0 24 24" fill="none" xmlns="http://www.w3.org/2000/svg">
<path d="M18.5713 8.24902H15.9453C14.9097 8.24902 14.0704 7.4096 14.0703 6.37402V3.74805H8.17285V2.24805H15.4473C15.9761 2.24805 16.4727 2.4708 16.8281 2.84473L17.4229 3.45312C17.6488 3.67759 17.8939 3.91314 18.1328 4.12695L18.4785 4.4502C18.8503 4.80823 19.2772 5.2455 19.5518 5.53027L19.6699 5.66602C19.9306 5.99542 20.0713 6.40338 20.0713 6.82227V18.0928H18.5713V8.24902ZM15.5703 6.37402C15.5704 6.58117 15.7381 6.74902 15.9453 6.74902H18.5635C18.5545 6.70386 18.5378 6.66145 18.5137 6.62402L18.4717 6.57129C18.1923 6.28154 17.7862 5.86581 17.4453 5.53711L17.1328 5.24512C16.871 5.01088 16.6063 4.75612 16.3652 4.5166L15.7412 3.87793C15.6919 3.82609 15.6324 3.79041 15.5703 3.76953V6.37402Z" fill="#161616"/>
<path d="M20.9355 22.2588L19.752 23.1797L3.07715 1.74121L4.26172 0.820312L20.9355 22.2588Z" fill="#161616"/>
<path d="M5.44238 7.18787V18.7513L5.4502 18.9056C5.52724 19.6621 6.1666 20.2523 6.94336 20.2523H15.6211L16.7852 21.7523H6.94336C5.33816 21.7523 4.02687 20.4918 3.94629 18.9066L3.94238 18.7513L3.94629 5.24158L5.44238 7.18787Z" fill="#161616"/>
</svg>
