<svg width="24" height="24" viewBox="0 0 24 24" fill="none" xmlns="http://www.w3.org/2000/svg">
<path d="M3.93726 18.75V5.25C3.93727 3.59318 5.28045 2.25005 6.93726 2.25H15.4402C15.9689 2.25 16.4647 2.47283 16.8201 2.84668L17.4148 3.45508C17.6407 3.67954 17.8858 3.9151 18.1248 4.12891L18.4714 4.45117C18.843 4.80902 19.2683 5.24659 19.5427 5.53125L19.6619 5.66699C19.9226 5.99637 20.0623 6.40437 20.0623 6.82324V18.75L20.0583 18.9043C19.9806 20.4384 18.7506 21.6684 17.2166 21.7461L17.0623 21.75H6.93726C5.33217 21.75 4.02149 20.4894 3.94116 18.9043L3.93726 18.75ZM15.5623 6.375C15.5623 6.58199 15.7303 6.74981 15.9373 6.75H18.5544C18.5455 6.70494 18.5297 6.66234 18.5056 6.625L18.4636 6.57227C18.1843 6.28249 17.7781 5.86676 17.4373 5.53809L17.1248 5.24609C16.8631 5.01196 16.5981 4.75795 16.3572 4.51855L15.7332 3.87988C15.6838 3.82793 15.6245 3.79232 15.5623 3.77148V6.375ZM5.43726 18.75L5.44507 18.9033C5.52188 19.6597 6.16061 20.25 6.93726 20.25H17.0623L17.2156 20.2422C17.9216 20.1705 18.4828 19.6093 18.5544 18.9033L18.5623 18.75V8.25H15.9373C14.9019 8.24981 14.0623 7.41042 14.0623 6.375V3.75H6.93726C6.10887 3.75005 5.43726 4.4216 5.43726 5.25V18.75Z" fill="#161616"/>
<path d="M16.1674 15.0014V16.5014H10.8188V15.0014H16.1674ZM16.1674 11.9995V13.4995H10.8188V11.9995H16.1674ZM16.1674 8.99652V10.4965H10.8188V8.99652H16.1674Z" fill="#161616"/>
<path d="M9.31976 15.0014V16.5014H7.83246V15.0014H9.31976ZM9.31976 11.9995V13.4995H7.83246V11.9995H9.31976ZM9.31976 8.99652V10.4965H7.83246V8.99652H9.31976Z" fill="#161616"/>
</svg>
