<svg width="24" height="24" viewBox="0 0 24 24" fill="none" xmlns="http://www.w3.org/2000/svg">
<path d="M16.9092 13.4561C16.9092 10.118 14.2033 7.41211 10.8652 7.41211C7.52724 7.4122 4.82129 10.118 4.82129 13.4561C4.82138 16.794 7.5273 19.4999 10.8652 19.5C14.2033 19.5 16.9091 16.794 16.9092 13.4561ZM21.3213 9.35254H19.8213V5.56055L16.7031 8.67773C17.7693 9.97883 18.4092 11.6427 18.4092 13.4561C18.4091 17.6225 15.0317 21 10.8652 21C6.69887 20.9999 3.32138 17.6224 3.32129 13.4561C3.32129 9.28961 6.69881 5.9122 10.8652 5.91211C12.6781 5.91211 14.3416 6.55151 15.6426 7.61719L18.7607 4.5H14.9688V3H20.5713C20.9855 3 21.3213 3.33579 21.3213 3.75V9.35254Z" fill="#161616"/>
</svg>
