<svg width="24" height="24" viewBox="0 0 24 24" fill="none" xmlns="http://www.w3.org/2000/svg">
<path d="M16.6221 17.1787L15.0693 18.7256L14.0107 17.6621L14.543 17.1338L16.8438 14.8438L16.9004 14.792C17.1943 14.5534 17.6271 14.5702 17.9014 14.8428L20.1006 17.0293L20.6318 17.5586L19.5752 18.6221L19.043 18.0938L18.1221 17.1777V21.75H16.6221V17.1787ZM17.6963 5.25C17.6963 4.42157 17.0247 3.75 16.1963 3.75H6.07129C5.24291 3.75005 4.57129 4.42161 4.57129 5.25V18.75C4.57132 19.5784 5.24288 20.25 6.07129 20.25H11.3213V21.75H6.07129C4.41445 21.75 3.07131 20.4068 3.07129 18.75V5.25C3.0713 3.59318 4.41448 2.25005 6.07129 2.25H16.1963C17.8531 2.25 19.1963 3.59314 19.1963 5.25V12.1875H17.6963V5.25Z" fill="#161616"/>
</svg>
