<svg width="24" height="24" viewBox="0 0 24 24" fill="none" xmlns="http://www.w3.org/2000/svg">
<path d="M16.5205 14.625H18.0205V19.1963L19.5742 17.6494L20.6318 18.7129L17.7998 21.5312C17.5074 21.8223 17.0349 21.8229 16.7422 21.5322L14.0107 18.8164L15.0684 17.7529L16.5205 19.1953V14.625ZM17.6963 5.25C17.6963 4.42157 17.0247 3.75 16.1963 3.75H6.07129C5.24291 3.75005 4.57129 4.42161 4.57129 5.25V18.75C4.57132 19.5784 5.24288 20.25 6.07129 20.25H11.3213V21.75H6.07129C4.41445 21.75 3.07131 20.4068 3.07129 18.75V5.25C3.0713 3.59318 4.41448 2.25005 6.07129 2.25H16.1963C17.8531 2.25 19.1963 3.59314 19.1963 5.25V12.1875H17.6963V5.25Z" fill="#161616"/>
</svg>
