<svg width="24" height="24" viewBox="0 0 24 24" fill="none" xmlns="http://www.w3.org/2000/svg">
<path d="M18.2754 17.7617H15.1025V16.2617H18.2754V13.0889H19.7754V16.2617H22.9482V17.7617H19.7754V20.9336H18.2754V17.7617ZM20.5195 8.42285C20.5195 8.21756 20.3528 8.05079 20.1475 8.05078H12.373C12.1657 8.05071 11.9679 7.96484 11.8262 7.81348L9.46387 5.29004H4.44336C4.23743 5.29004 4.07131 5.4564 4.07129 5.66113C4.07156 6.54223 4.07227 7.75979 4.07227 8.61426V17.1436C4.07239 17.9683 4.74065 18.6367 5.56543 18.6367H13.6055V20.1367H5.56543C3.91222 20.1367 2.57239 18.7967 2.57227 17.1436V8.61426C2.57227 7.76016 2.57156 6.54318 2.57129 5.66211C2.57097 4.62752 3.40995 3.79004 4.44336 3.79004H9.78809L9.86621 3.79395C10.0449 3.81254 10.212 3.89497 10.3359 4.02734L12.6982 6.55078H20.1475C21.1812 6.55079 22.0195 7.38912 22.0195 8.42285V12.1523H20.5195V8.42285Z" fill="#161616"/>
</svg>
