<svg width="24" height="24" viewBox="0 0 24 24" fill="none" xmlns="http://www.w3.org/2000/svg">
<path d="M20.1992 8.42456C20.199 8.2195 20.0332 8.05368 19.8281 8.05347H12.0527C11.8453 8.05343 11.6467 7.96663 11.5049 7.81519L9.14258 5.29175H4.12207C3.91611 5.29175 3.75008 5.4581 3.75 5.66284C3.75027 6.54402 3.75098 7.76142 3.75098 8.61597V17.1462C3.75099 17.9712 4.41922 18.6403 5.24414 18.6404H14.6445V20.1404H5.24414C3.59079 20.1403 2.25099 18.7996 2.25098 17.1462V8.61597C2.25098 7.76176 2.25027 6.54498 2.25 5.66382C2.24968 4.62917 3.0886 3.79175 4.12207 3.79175H9.46777C9.67527 3.79175 9.87382 3.87757 10.0156 4.02905L12.3789 6.55347H19.8281C20.8616 6.55368 21.699 7.39107 21.6992 8.42456V12.155H20.1992V8.42456Z" fill="#161616"/>
<path d="M22.0537 17.683C22.0537 17.5492 21.9453 17.4401 21.8115 17.4398H17.8408C17.707 17.44 17.5986 17.5492 17.5986 17.683V20.6596C17.5986 20.7934 17.707 20.9026 17.8408 20.9027H21.8115C21.9453 20.9025 22.0537 20.7933 22.0537 20.6596V17.683ZM20.5645 15.4535C20.5642 15.0457 20.234 14.7153 19.8262 14.7152C19.4183 14.7152 19.0871 15.0457 19.0869 15.4535V15.9398H20.5645V15.4535ZM22.0645 15.9603C22.9066 16.0831 23.5537 16.8068 23.5537 17.683V20.6596C23.5537 21.6218 22.7737 22.4025 21.8115 22.4027H17.8408C16.8786 22.4026 16.0986 21.6218 16.0986 20.6596V17.683C16.0986 16.8071 16.7452 16.0835 17.5869 15.9603V15.4535C17.5871 14.2173 18.5899 13.2152 19.8262 13.2152C21.0624 13.2153 22.0642 14.2173 22.0645 15.4535V15.9603Z" fill="#161616"/>
</svg>
