<svg width="24" height="24" viewBox="0 0 24 24" fill="none" xmlns="http://www.w3.org/2000/svg">
<path fill-rule="evenodd" clip-rule="evenodd" d="M12.0005 2.75C17.1089 2.75026 21.2505 6.89153 21.2505 12C21.2504 17.1084 17.1089 21.2497 12.0005 21.25C6.89189 21.25 2.74958 17.1086 2.74951 12C2.74951 6.89137 6.89185 2.75 12.0005 2.75ZM11.1821 15.7188V17.2188H12.6821V15.7188H11.1821ZM12.4907 7.04395C11.7227 6.91221 10.9321 7.05643 10.2603 7.45117C9.58842 7.84604 9.07843 8.46604 8.81982 9.20117L8.5708 9.9082L9.98584 10.4062L10.2339 9.69922C10.3749 9.29828 10.6536 8.95953 11.02 8.74414C11.3864 8.52888 11.818 8.45061 12.2368 8.52246C12.6554 8.59443 13.0355 8.81185 13.3091 9.13672C13.5486 9.42134 13.6942 9.77259 13.7261 10.1406L13.7319 10.2998C13.7318 10.7514 13.3833 11.1932 12.7915 11.5879C12.5184 11.77 12.2391 11.9101 12.0259 12.0049C11.9206 12.0517 11.8336 12.087 11.7749 12.1094C11.7459 12.1204 11.7232 12.1279 11.7095 12.1328C11.703 12.1351 11.6974 12.1377 11.6948 12.1387C11.3889 12.2408 11.1823 12.527 11.1821 12.8496V14.7871H12.6821V13.3535C12.9415 13.2359 13.2807 13.0654 13.6235 12.8369C14.2636 12.4102 15.1178 11.6506 15.2222 10.5293L15.2319 10.2998C15.2328 9.52106 14.958 8.76674 14.4565 8.1709C13.9549 7.57507 13.2583 7.17586 12.4907 7.04395Z" fill="#858585"/>
</svg>
