<svg width="24" height="24" viewBox="0 0 24 24" fill="none" xmlns="http://www.w3.org/2000/svg">
<path d="M18.876 5.09668C18.7992 4.34029 18.1604 3.75 17.3838 3.75H7.25879C6.43041 3.75005 5.75879 4.4216 5.75879 5.25V18.75C5.75881 19.5784 6.43038 20.25 7.25879 20.25H17.3838C18.1605 20.25 18.7992 19.6597 18.876 18.9033L18.8838 18.75V5.25L18.876 5.09668ZM8.19629 11.8125H9.69629V18.375H8.19629V11.8125ZM11.5713 6.75H13.0713V18.375H11.5713V6.75ZM14.9463 10.125H16.4463V18.375H14.9463V10.125ZM20.3838 18.75L20.3799 18.9043C20.2996 20.4895 18.9889 21.75 17.3838 21.75H7.25879C5.60195 21.75 4.25881 20.4068 4.25879 18.75V5.25C4.2588 3.59318 5.60198 2.25005 7.25879 2.25H17.3838C19.0406 2.25 20.3838 3.59315 20.3838 5.25V18.75Z" fill="#161616"/>
</svg>
