<svg width="24" height="24" viewBox="0 0 24 24" fill="none" xmlns="http://www.w3.org/2000/svg">
<path d="M16.4375 12.375C18.2232 12.375 19.4023 13.21 20.1152 14.0371C20.4669 14.4451 20.7062 14.8512 20.8584 15.1553C20.9349 15.3081 20.9909 15.438 21.0283 15.5322C21.047 15.5792 21.0611 15.618 21.0713 15.6465L21.0869 15.6934C21.0874 15.6949 21.0885 15.6961 21.0889 15.6973V15.6992L21.0898 15.7002C21.0897 15.7006 21.0766 15.7045 20.375 15.9287L21.0859 16.1709H21.085V16.1729C21.0845 16.1741 21.0836 16.1761 21.083 16.1777C21.082 16.1808 21.0806 16.1843 21.0791 16.1885C21.0759 16.1975 21.0717 16.2096 21.0664 16.2236C21.0559 16.2517 21.0408 16.2896 21.0215 16.3359C20.9828 16.4286 20.9259 16.5561 20.8477 16.7061C20.6919 17.0044 20.4476 17.4018 20.0928 17.7998C19.3733 18.6067 18.1927 19.415 16.4258 19.3867C14.6746 19.3586 13.5043 18.5588 12.7871 17.7686C12.4331 17.3784 12.1886 16.991 12.0322 16.7002C11.9539 16.5544 11.8963 16.4311 11.8574 16.3408C11.8379 16.2956 11.8232 16.258 11.8125 16.2305C11.8072 16.2167 11.8031 16.2051 11.7998 16.1963C11.7983 16.1922 11.797 16.1886 11.7959 16.1855C11.7953 16.184 11.7944 16.1819 11.7939 16.1807L11.793 16.1787L12.5 15.9287C11.8057 15.7069 11.7865 15.7007 11.7861 15.7002V15.6992L11.7871 15.6973C11.7875 15.6961 11.7876 15.6948 11.7881 15.6934C11.7891 15.6902 11.7905 15.6861 11.792 15.6816C11.7951 15.6725 11.7996 15.6607 11.8047 15.6465C11.8148 15.618 11.829 15.5793 11.8477 15.5322C11.8851 15.438 11.9411 15.3081 12.0176 15.1553C12.1697 14.8512 12.4091 14.4451 12.7607 14.0371C13.4736 13.2101 14.6521 12.3751 16.4375 12.375ZM16.4375 13.875C15.1821 13.8751 14.3919 14.4418 13.8965 15.0166C13.6441 15.3095 13.4693 15.6046 13.3584 15.8262C13.3427 15.8575 13.3304 15.8883 13.3174 15.916C13.3291 15.9391 13.3397 15.9646 13.3535 15.9902C13.4661 16.1995 13.6438 16.4801 13.8984 16.7607C14.3991 17.3124 15.1978 17.8666 16.4502 17.8867C17.6868 17.9065 18.4753 17.3607 18.9736 16.8018C19.2275 16.517 19.4044 16.2284 19.5176 16.0117C19.5341 15.9802 19.546 15.9488 19.5596 15.9209C19.546 15.8919 19.5341 15.8591 19.5176 15.8262C19.4067 15.6046 19.2319 15.3095 18.9795 15.0166C18.484 14.4417 17.6931 13.875 16.4375 13.875ZM15.6875 15.8809V15.8223C15.6875 15.4082 16.0235 15.0725 16.4375 15.0723C16.8517 15.0723 17.1875 15.4081 17.1875 15.8223V15.8809C17.1875 16.2951 16.8517 16.6309 16.4375 16.6309C16.0235 16.6307 15.6875 16.2949 15.6875 15.8809ZM12.5 15.9287L11.793 16.1777C11.7389 16.0239 11.7366 15.8565 11.7861 15.7012L12.5 15.9287ZM21.0898 15.7012C21.1385 15.8538 21.1374 16.0182 21.0859 16.1699L20.375 15.9287L21.0898 15.7012ZM17.375 5.25C17.375 4.42157 16.7034 3.75 15.875 3.75H5.75C4.92162 3.75005 4.25001 4.4216 4.25 5.25V18.75C4.25 19.5784 4.92157 20.25 5.75 20.25H12.125V21.75H5.75C4.09315 21.75 2.75 20.4068 2.75 18.75V5.25C2.75001 3.59318 4.09319 2.25005 5.75 2.25H15.875C17.5319 2.25 18.875 3.59314 18.875 5.25V10.5H17.375V5.25Z" fill="#161616"/>
</svg>
