<svg width="24" height="24" viewBox="0 0 24 24" fill="none" xmlns="http://www.w3.org/2000/svg">
<path d="M2.25098 17.4315V8.62778C2.25098 7.72995 2.25028 6.43233 2.25 5.54184C2.2497 4.57462 3.03404 3.79204 4 3.79184H9.48633L9.56348 3.79575C9.74239 3.81426 9.91009 3.89659 10.0342 4.02914L12.4033 6.56039H20C20.9665 6.56041 21.75 7.34486 21.75 8.31137V17.4315C21.75 18.9501 20.5186 20.1813 19 20.1815H5.00098C3.48221 20.1815 2.25101 18.9502 2.25098 17.4315ZM3.75098 17.4315C3.75101 18.1218 4.31064 18.6815 5.00098 18.6815H19C19.6902 18.6813 20.25 18.1217 20.25 17.4315V8.31039C20.2497 8.17255 20.1379 8.06041 20 8.06039H12.0781C11.8708 8.0603 11.673 7.97449 11.5312 7.82309L9.16113 5.29184H4C3.8616 5.29204 3.75021 5.40368 3.75 5.54086C3.75028 6.43135 3.75098 7.72967 3.75098 8.62778V17.4315Z" fill="#161616"/>
<path d="M10.7899 10.9728L8.51943 13.2423L10.7899 15.5128L9.72939 16.5733L6.92959 13.7726C6.78905 13.6319 6.70986 13.4411 6.70986 13.2423C6.70996 13.0435 6.78902 12.8526 6.92959 12.712L9.72939 9.91222L10.7899 10.9728ZM17.0702 12.712C17.3629 13.0048 17.3627 13.4797 17.0702 13.7726L14.2694 16.5733L13.2089 15.5128L15.4784 13.2423L13.2089 10.9728L14.2694 9.91222L17.0702 12.712Z" fill="#161616"/>
</svg>
