<svg width="24" height="24" viewBox="0 0 24 24" fill="none" xmlns="http://www.w3.org/2000/svg">
<path d="M6.41309 12.4014C7.83743 12.4734 9.01399 13.4828 9.33887 14.8252H20.8213V16.3252H9.33887C9.01413 17.6678 7.83759 18.6779 6.41309 18.75L6.25 18.7539C4.49452 18.7539 3.07129 17.3307 3.07129 15.5752C3.0714 13.8198 4.4946 12.3965 6.25 12.3965L6.41309 12.4014ZM20.0625 8.25293C19.9822 7.46303 19.3544 6.83516 18.5645 6.75488L18.3926 6.74609C17.4656 6.74617 16.7139 7.4978 16.7139 8.4248L16.7227 8.59668C16.8088 9.44289 17.5237 10.1034 18.3926 10.1035L18.5645 10.0947C19.4108 10.0087 20.0712 9.29382 20.0713 8.4248L20.0625 8.25293ZM4.57129 15.5752C4.57129 16.5022 5.32295 17.2539 6.25 17.2539L6.42188 17.2451C7.26811 17.159 7.92871 16.4442 7.92871 15.5752C7.9286 14.7063 7.26806 13.9914 6.42188 13.9053L6.25 13.8965C5.32302 13.8965 4.5714 14.6482 4.57129 15.5752ZM21.5674 8.58789C21.4852 10.2132 20.1819 11.5161 18.5566 11.5986L18.3926 11.6035C16.8956 11.6035 15.6409 10.5682 15.3037 9.1748H3.82129V7.6748H15.3037C15.6408 6.28131 16.8955 5.24616 18.3926 5.24609L18.5566 5.25C20.2359 5.3353 21.5713 6.7243 21.5713 8.4248L21.5674 8.58789Z" fill="#161616"/>
</svg>
