<svg width="24" height="24" viewBox="0 0 24 24" fill="none" xmlns="http://www.w3.org/2000/svg">
<path d="M22.3193 14.2139L16.5576 20.3867C16.4189 20.5353 16.2257 20.6214 16.0225 20.625C15.8191 20.6285 15.6223 20.5491 15.4785 20.4053L12.8857 17.8125L13.9463 16.752L15.9902 18.7959L21.2227 13.1904L22.3193 14.2139ZM17.6963 5.25C17.6963 4.42157 17.0247 3.75 16.1963 3.75H6.07129C5.24291 3.75005 4.57129 4.4216 4.57129 5.25V18.75C4.57129 19.5784 5.24286 20.25 6.07129 20.25H11.3213V21.75H6.07129C4.41444 21.75 3.07129 20.4068 3.07129 18.75V5.25C3.0713 3.59318 4.41448 2.25005 6.07129 2.25H16.1963C17.8531 2.25 19.1963 3.59314 19.1963 5.25V12.1875H17.6963V5.25Z" fill="#161616"/>
</svg>
