<svg width="24" height="24" viewBox="0 0 24 24" fill="none" xmlns="http://www.w3.org/2000/svg">
<path d="M18.9805 15.6084C18.9803 14.5124 18.0921 13.6242 16.9961 13.624C15.8999 13.624 15.0109 14.5122 15.0107 15.6084C15.0107 16.7047 15.8998 17.5938 16.9961 17.5938C18.0922 17.5936 18.9805 16.7046 18.9805 15.6084ZM2.57129 16.8311L2.57227 8.5127C2.57227 7.67966 2.57155 6.49299 2.57129 5.63379C2.57108 4.61472 3.39716 3.79019 4.41504 3.79004H9.62793L9.70605 3.79395C9.88474 3.81254 10.0518 3.89497 10.1758 4.02734L12.4746 6.48242H19.7305C20.7489 6.48242 21.5752 7.30874 21.5752 8.32715V11.9824H20.0752V8.32715C20.0752 8.13717 19.9204 7.98242 19.7305 7.98242H12.1494C11.9419 7.98242 11.7434 7.8966 11.6016 7.74512L9.30273 5.29004H4.41504C4.22453 5.29019 4.07123 5.44442 4.07129 5.63379C4.07155 6.49296 4.07227 7.67948 4.07227 8.5127L4.07129 16.8311C4.07128 17.6252 4.71559 18.2695 5.50977 18.2695H12.8994V19.7695H5.50977C3.88716 19.7695 2.57127 18.4537 2.57129 16.8311ZM20.4805 15.6084C20.4805 16.2993 20.2784 16.9427 19.9316 17.4844L21.3389 18.8906L20.2773 19.9512L18.8711 18.5449C18.3296 18.8915 17.6867 19.0937 16.9961 19.0938C15.0714 19.0938 13.5107 17.5331 13.5107 15.6084C13.5109 13.6838 15.0715 12.124 16.9961 12.124C18.9206 12.1242 20.4803 13.6839 20.4805 15.6084Z" fill="#161616"/>
</svg>
