<svg width="24" height="24" viewBox="0 0 24 24" fill="none" xmlns="http://www.w3.org/2000/svg">
<path fill-rule="evenodd" clip-rule="evenodd" d="M16.4587 11.9997L9.25066 16.324V7.67552L16.4587 11.9997ZM10.7507 13.6745L13.5417 11.9997L10.7507 10.324V13.6745Z" fill="#858585"/>
<path fill-rule="evenodd" clip-rule="evenodd" d="M5.45867 5.45872C9.07096 1.84658 14.9284 1.84663 18.5407 5.45872C22.153 9.07103 22.1529 14.9284 18.5407 18.5408L18.195 18.8689C14.6811 22.0434 9.31824 22.0434 5.80437 18.8689L5.45867 18.5408C1.84653 14.9284 1.84639 9.07101 5.45867 5.45872ZM17.4802 6.51927C14.4536 3.49296 9.54572 3.49291 6.51922 6.51927C3.49272 9.54577 3.49286 14.4536 6.51922 17.4802C9.54578 20.5068 14.4536 20.5068 17.4802 17.4802C20.5066 14.4536 20.5067 9.54579 17.4802 6.51927Z" fill="#858585"/>
</svg>
