<svg width="24" height="24" viewBox="0 0 24 24" fill="none" xmlns="http://www.w3.org/2000/svg">
<path d="M18.75 14.375C18.75 11.8042 17.5415 10.2482 16.168 8.65042C15.0252 7.3211 13.6864 5.89567 13.2617 3.85061C12.1831 4.82665 11.5701 6.19878 11.2314 7.56155C10.8154 9.23615 10.8456 10.7768 10.8662 11.2266C10.8927 11.8083 10.295 12.3166 9.67578 12.0332C9.18652 11.8092 8.0573 11.1073 7.65039 9.44729C6.18145 10.6358 5.25 12.4297 5.25 14.375C5.25001 17.8601 8.23536 20.75 12 20.75C15.7646 20.75 18.75 17.8601 18.75 14.375ZM20.2393 14.7832C20.0163 18.9747 16.3785 22.25 12 22.25C7.48036 22.25 3.75001 18.7601 3.75 14.375C3.75 11.5152 5.35456 8.9552 7.72559 7.5762L7.83887 7.51956C8.40495 7.28622 8.98482 7.73101 9.00195 8.28811C9.02237 8.95257 9.1828 9.44072 9.38574 9.7969C9.4312 9.06495 9.53906 8.15421 9.77637 7.19925C10.2399 5.3342 11.2295 3.17713 13.3477 1.93655L13.4609 1.87991C14.0272 1.64471 14.6115 2.09025 14.627 2.65042C14.683 4.71443 15.8737 6.00626 17.3057 7.6719C18.7112 9.30682 20.25 11.2248 20.25 14.375L20.2393 14.7832Z" fill="#161616"/>
<path d="M14.75 18.6748C14.75 18.2907 14.613 17.8121 14.3545 17.2725C14.1003 16.742 13.7542 16.2045 13.3955 15.7158C13.0776 15.2827 12.7569 14.9001 12.5 14.6074C12.2431 14.9001 11.9224 15.2827 11.6045 15.7158C11.2458 16.2045 10.8997 16.742 10.6455 17.2725C10.387 17.8121 10.25 18.2907 10.25 18.6748C10.2502 19.7767 11.2172 20.75 12.5 20.75C13.7828 20.75 14.7498 19.7768 14.75 18.6748ZM16.25 18.6748C16.2498 20.6886 14.5253 22.25 12.5 22.25C10.4747 22.25 8.7502 20.6886 8.75 18.6748C8.75 17.9719 8.98814 17.2593 9.29199 16.625C9.60027 15.9816 10.0043 15.3611 10.3955 14.8281C10.7884 14.2929 11.1794 13.8305 11.4717 13.5029C11.618 13.3389 11.7404 13.2075 11.8271 13.1162C11.8704 13.0707 11.9055 13.0355 11.9297 13.0107C11.9418 12.9984 11.9513 12.9882 11.958 12.9814L11.9697 12.9697C12.1104 12.8291 12.3011 12.75 12.5 12.75C12.6989 12.75 12.8896 12.8291 13.0303 12.9697L13.042 12.9814C13.0487 12.9882 13.0582 12.9984 13.0703 13.0107C13.0945 13.0355 13.1296 13.0707 13.1729 13.1162C13.2596 13.2075 13.382 13.3389 13.5283 13.5029C13.8206 13.8305 14.2116 14.2929 14.6045 14.8281C14.9957 15.3611 15.3997 15.9816 15.708 16.625C16.0119 17.2593 16.25 17.9719 16.25 18.6748Z" fill="#161616"/>
</svg>
