<svg width="24" height="24" viewBox="0 0 24 24" fill="none" xmlns="http://www.w3.org/2000/svg">
<path d="M19.5068 16.5L17.2568 18.75L19.5068 21L18.4463 22.0605L16.1963 19.8105L13.9463 22.0605L12.8857 21L15.1357 18.75L12.8857 16.5L13.9463 15.4395L16.1963 17.6895L18.4463 15.4395L19.5068 16.5ZM17.6963 5.25C17.6963 4.42157 17.0247 3.75 16.1963 3.75H6.07129C5.24291 3.75005 4.57129 4.42161 4.57129 5.25V18.75C4.57132 19.5784 5.24288 20.25 6.07129 20.25H10.7588V21.75H6.07129C4.41445 21.75 3.07131 20.4068 3.07129 18.75V5.25C3.0713 3.59318 4.41448 2.25005 6.07129 2.25H16.1963C17.8531 2.25 19.1963 3.59314 19.1963 5.25V13.3125H17.6963V5.25Z" fill="#161616"/>
</svg>
