<svg width="24" height="24" viewBox="0 0 24 24" fill="none" xmlns="http://www.w3.org/2000/svg">
<path d="M11.5713 16.0503H13.0713V19.9497H11.5713V16.0503ZM2.375 6.53467C2.62292 6.40558 2.9223 6.42531 3.15137 6.58545L9.15137 10.7856C9.35181 10.926 9.47162 11.1552 9.47168 11.3999C9.47169 11.6446 9.35185 11.8738 9.15137 12.0142L3.15234 16.2144C2.92326 16.3747 2.62401 16.3943 2.37598 16.2651C2.12802 16.136 1.97268 15.8797 1.97266 15.6001L1.97168 7.19971C1.97182 6.92027 2.12716 6.66379 2.375 6.53467ZM21.4912 6.58545C21.7203 6.4253 22.0197 6.40561 22.2676 6.53467C22.5154 6.66377 22.6708 6.92024 22.6709 7.19971L22.6719 15.6001C22.6719 15.8797 22.5156 16.136 22.2676 16.2651C22.0196 16.3941 21.7202 16.3747 21.4912 16.2144L15.4912 12.0142C15.291 11.8738 15.1719 11.6445 15.1719 11.3999C15.1719 11.1553 15.2909 10.926 15.4912 10.7856L21.4912 6.58545ZM17.2285 11.3999L21.1709 14.1597V8.64111L17.2285 11.3999ZM3.47168 14.1587L7.41406 11.3999L3.47168 8.64014V14.1587ZM11.5713 9.44971H13.0713V13.3501H11.5713V9.44971ZM11.5713 2.8501H13.0713V6.75049H11.5713V2.8501Z" fill="#161616"/>
</svg>
