<svg width="24" height="24" viewBox="0 0 24 24" fill="none" xmlns="http://www.w3.org/2000/svg">
<path d="M11.6913 2.74989C12.4319 1.82691 14.069 2.24476 14.0702 3.57216L14.08 9.06044V9.06141L14.0878 9.13661C14.1237 9.30828 14.2801 9.45649 14.5019 9.45985H14.5009L18.3036 9.50868H18.3027C19.3471 9.51523 19.9699 10.6769 19.4052 11.5507L19.4003 11.5585L13.0292 21.1522L13.0273 21.1561C12.3253 22.1991 10.5803 21.798 10.579 20.4276L10.5693 14.9393V14.9384L10.5614 14.8632C10.5256 14.6915 10.3691 14.5434 10.1474 14.5399V14.539L6.34562 14.4911H6.33976C5.32836 14.4698 4.64177 13.3461 5.25089 12.4384L11.6191 2.84755L11.622 2.84364L11.6913 2.74989ZM6.68156 12.996L10.1679 13.0399H10.1698L10.3612 13.0526C11.3049 13.1594 12.0688 13.9409 12.0693 14.9374L12.0771 19.8729L17.9667 11.0028L14.4804 10.9599H14.4794C13.4499 10.9442 12.5805 10.1255 12.58 9.06239L12.5712 4.12587L6.68156 12.996ZM6.36613 13.1874L6.49601 13.2743V13.2733L6.36613 13.1864V13.1874Z" fill="#161616"/>
</svg>
