<svg width="24" height="24" viewBox="0 0 24 24" fill="none" xmlns="http://www.w3.org/2000/svg">
<path d="M17.375 5.25C17.375 4.42157 16.7034 3.75 15.875 3.75H5.75C4.92162 3.75005 4.25001 4.4216 4.25 5.25V18.75C4.25 19.5784 4.92157 20.25 5.75 20.25H11V21.75H5.75C4.09315 21.75 2.75 20.4068 2.75 18.75V5.25C2.75001 3.59318 4.09319 2.25005 5.75 2.25H15.875C17.5319 2.25 18.875 3.59314 18.875 5.25V12.1875H17.375V5.25Z" fill="#161616"/>
<path d="M15.5254 15.3917L13.2549 17.6612L15.5254 19.9317L14.4648 20.9922L11.665 18.1915C11.5245 18.0508 11.4453 17.86 11.4453 17.6612C11.4454 17.4624 11.5245 17.2715 11.665 17.1309L14.4648 14.3311L15.5254 15.3917ZM21.8057 17.1309C22.0984 17.4237 22.0981 17.8986 21.8057 18.1915L19.0049 20.9922L17.9443 19.9317L20.2139 17.6612L17.9443 15.3917L19.0049 14.3311L21.8057 17.1309Z" fill="#161616"/>
</svg>
