<svg width="24" height="24" viewBox="0 0 24 24" fill="none" xmlns="http://www.w3.org/2000/svg">
<path d="M14.5005 14.0593V15.5593H9.50049V14.0593H14.5005ZM14.5005 9.05933H9.50049V15.5593L9.34717 15.5515C8.59077 15.4747 8.00049 14.836 8.00049 14.0593V9.05933C8.00049 8.2309 8.67206 7.55933 9.50049 7.55933H14.5005C15.3289 7.55933 16.0005 8.2309 16.0005 9.05933V14.0593C16.0005 14.8878 15.3289 15.5593 14.5005 15.5593V9.05933Z" fill="#161616"/>
<path d="M3.00049 17.8093V13.6218H4.50049V17.8093C4.50049 18.4997 5.06013 19.0593 5.75049 19.0593H9.93799V20.5593H5.75049C4.23171 20.5593 3.00049 19.3281 3.00049 17.8093ZM19.5005 17.8093V13.6218H21.0005V17.8093C21.0005 19.3281 19.7693 20.5593 18.2505 20.5593H14.063V19.0593H18.2505C18.9408 19.0593 19.5005 18.4997 19.5005 17.8093ZM3.00049 5.30933C3.00049 3.79054 4.23171 2.55933 5.75049 2.55933H9.93799V4.05933H5.75049C5.06013 4.05933 4.50049 4.61897 4.50049 5.30933V9.49683H3.00049V5.30933ZM19.5005 5.30933C19.5005 4.61897 18.9408 4.05933 18.2505 4.05933H14.063V2.55933H18.2505C19.7693 2.55933 21.0005 3.79054 21.0005 5.30933V9.49683H19.5005V5.30933Z" fill="#161616"/>
</svg>
