<svg width="24" height="24" viewBox="0 0 24 24" fill="none" xmlns="http://www.w3.org/2000/svg">
<path d="M2.57227 17.1387V8.6123C2.57227 7.75842 2.57156 6.5419 2.57129 5.66113C2.57107 4.62696 3.4094 3.7902 4.44238 3.79004H9.78613L9.86328 3.79395C10.0422 3.81246 10.2099 3.89478 10.334 4.02734L12.6953 6.5498H20.1406C21.1741 6.5498 22.0127 7.38836 22.0127 8.42188V12.1504H20.5127V8.42188C20.5127 8.21679 20.3457 8.0498 20.1406 8.0498H12.3701C12.1626 8.0498 11.9641 7.96398 11.8223 7.8125L9.46094 5.29004H4.44238C4.23677 5.2902 4.07123 5.45666 4.07129 5.66113C4.07156 6.54187 4.07227 7.75825 4.07227 8.6123V17.1387C4.07236 17.963 4.74013 18.6309 5.56445 18.6309H13.6025V20.1309H5.56445C3.9117 20.1309 2.57236 18.7914 2.57227 17.1387ZM22.9414 15.5029V17.0029H15.0977V15.5029H22.9414Z" fill="#161616"/>
</svg>
