<svg width="24" height="24" viewBox="0 0 24 24" fill="none" xmlns="http://www.w3.org/2000/svg">
<path d="M7.75684 10.0801C7.77287 10.0811 7.78885 10.081 7.80469 10.083C7.82933 10.0861 7.85348 10.092 7.87793 10.0977C7.89986 10.1027 7.92207 10.1063 7.94336 10.1133C7.95936 10.1185 7.97446 10.1264 7.99023 10.1328C8.01857 10.1442 8.04655 10.1562 8.07324 10.1709C8.07726 10.1731 8.08194 10.1745 8.08594 10.1768L10.8232 11.7568L10.0732 13.0557L8.90332 12.3799L8.95508 12.5713L9.00586 12.7451C9.2816 13.6032 9.86503 14.3327 10.6465 14.79C11.4801 15.2777 12.4735 15.4168 13.4092 15.1777L14.1357 14.9922L14.5059 16.4453L13.7793 16.6309C12.4612 16.9675 11.0638 16.771 9.88965 16.084C8.71546 15.3969 7.85811 14.275 7.50586 12.9609L7.50684 12.96L7.45508 12.7686L6.78027 13.9385L5.48047 13.1885L7.06152 10.4512L7.07324 10.4316C7.07805 10.4239 7.0828 10.4158 7.08789 10.4082L7.10352 10.3857C7.11275 10.373 7.12389 10.3616 7.13379 10.3496C7.14784 10.3326 7.16218 10.3156 7.17773 10.2998C7.19481 10.2825 7.21297 10.2664 7.23145 10.251C7.24902 10.2363 7.26713 10.2221 7.28613 10.209C7.30533 10.1958 7.32547 10.1841 7.3457 10.1729C7.36353 10.1629 7.38158 10.1531 7.40039 10.1445C7.42644 10.1327 7.45331 10.123 7.48047 10.1143C7.49252 10.1104 7.50423 10.1049 7.5166 10.1016C7.52128 10.1003 7.52657 10.0998 7.53125 10.0986C7.56012 10.0915 7.58958 10.0877 7.61914 10.084C7.63552 10.0819 7.65166 10.0791 7.66797 10.0781C7.69754 10.0764 7.72708 10.0783 7.75684 10.0801Z" fill="#858585"/>
<path d="M10.2471 7.31445C11.5653 6.97768 12.9643 7.17423 14.1387 7.86133C15.3126 8.54844 16.1683 9.67153 16.5205 10.9854L16.5713 11.1768L17.2471 10.0078L18.5459 10.7578L16.9648 13.4951C16.9602 13.5032 16.9542 13.5107 16.9492 13.5186C16.9468 13.5223 16.9448 13.5265 16.9424 13.5303C16.9193 13.5656 16.893 13.5978 16.8652 13.6279C16.8556 13.6384 16.8443 13.6473 16.834 13.6572C16.6475 13.8372 16.3822 13.908 16.1309 13.8438C16.1182 13.8405 16.1052 13.8388 16.0928 13.835C16.041 13.8188 15.9894 13.7978 15.9404 13.7695L13.2031 12.1895L13.9531 10.8906L15.1221 11.5654L15.0713 11.374C14.8213 10.4414 14.2141 9.64403 13.3809 9.15625C12.5474 8.6686 11.5547 8.52966 10.6191 8.76855L9.8916 8.9541L9.52051 7.5L10.2471 7.31445Z" fill="#858585"/>
<path fill-rule="evenodd" clip-rule="evenodd" d="M12 2.75C17.1086 2.75 21.25 6.89137 21.25 12C21.25 17.1086 17.1086 21.25 12 21.25C6.89137 21.25 2.75 17.1086 2.75 12C2.75 6.89137 6.89137 2.75 12 2.75ZM12 4.25C7.71979 4.25 4.25 7.71979 4.25 12C4.25 16.2802 7.71979 19.75 12 19.75C16.2802 19.75 19.75 16.2802 19.75 12C19.75 7.71979 16.2802 4.25 12 4.25Z" fill="#858585"/>
</svg>
