<svg width="24" height="24" viewBox="0 0 24 24" fill="none" xmlns="http://www.w3.org/2000/svg">
<path d="M18.5 15.9375C18.5 14.7984 17.5766 13.875 16.4375 13.875C15.2986 13.8752 14.375 14.7986 14.375 15.9375C14.375 17.0765 15.2986 17.9998 16.4375 18C17.5766 18 18.5 17.0766 18.5 15.9375ZM17.375 5.25C17.375 4.42157 16.7034 3.75 15.875 3.75H5.75C4.92162 3.75005 4.25001 4.4216 4.25 5.25V18.75C4.25 19.5784 4.92157 20.25 5.75 20.25H12.125V21.75H5.75C4.09315 21.75 2.75 20.4068 2.75 18.75V5.25C2.75001 3.59318 4.09319 2.25005 5.75 2.25H15.875C17.5319 2.25 18.875 3.59314 18.875 5.25V10.5H17.375V5.25ZM20 15.9375C20 16.6499 19.7898 17.3125 19.4297 17.8691L20.874 19.3125L19.8125 20.373L18.3691 18.9297C17.8126 19.2897 17.1497 19.5 16.4375 19.5C14.4702 19.4998 12.875 17.9049 12.875 15.9375C12.875 13.9701 14.4702 12.3752 16.4375 12.375C18.405 12.375 20 13.97 20 15.9375Z" fill="#161616"/>
</svg>
