<svg width="24" height="24" viewBox="0 0 24 24" fill="none" xmlns="http://www.w3.org/2000/svg">
<path d="M14.4199 14.8066H9.01562C7.98567 14.8062 7.15057 13.9704 7.15039 12.9404C7.15078 11.9695 7.89398 11.1709 8.8418 11.083C9.10199 11.0585 9.31389 10.8614 9.35645 10.6035C9.39457 10.3718 9.46185 10.1492 9.55566 9.94141L14.4199 14.8066Z" fill="#858585"/>
<path fill-rule="evenodd" clip-rule="evenodd" d="M12 2.75C17.1085 2.75 21.2498 6.89153 21.25 12C21.25 17.1086 17.1086 21.25 12 21.25C6.89137 21.25 2.75 17.1086 2.75 12C2.7502 6.89153 6.89149 2.75 12 2.75ZM7.1377 7.52344L8.7041 9.08984C8.53585 9.3745 8.40363 9.68374 8.3125 10.0098C6.98659 10.3274 5.99938 11.5174 5.99902 12.9404C5.99921 14.606 7.35007 15.9566 9.01562 15.957H14.9844C15.167 15.957 15.3462 15.9385 15.5205 15.9072L16.9023 17.2891L17.3086 16.8818L17.7168 16.4746L7.95117 6.71094L7.1377 7.52344ZM12.001 7.21191C11.2736 7.21192 10.5944 7.41649 10.0156 7.76855L10.8613 8.61621C11.207 8.45372 11.594 8.36231 12.001 8.3623C13.3305 8.36272 14.4353 9.33307 14.6445 10.6035C14.6873 10.8615 14.8988 11.0588 15.1592 11.083C16.1068 11.171 16.8492 11.9696 16.8496 12.9404C16.8495 13.4035 16.6788 13.8262 16.3994 14.1523L17.2139 14.9668C17.7006 14.431 18.0009 13.7212 18.001 12.9404C18.0006 11.5171 17.0138 10.3271 15.6875 10.0098C15.2363 8.39658 13.7582 7.2123 12.001 7.21191Z" fill="#858585"/>
</svg>
