<svg width="24" height="24" viewBox="0 0 24 24" fill="none" xmlns="http://www.w3.org/2000/svg">
<path d="M20.2041 11.9996L14.3623 17.8414V6.15877L20.2041 11.9996ZM9.59184 11.9996L3.75004 17.8414V6.15877L9.59184 11.9996ZM12.8663 18.2262C12.9516 19.3485 14.2934 19.9044 15.1475 19.1715L15.2315 19.0933L21.3438 12.981C21.8854 12.4392 21.8854 11.561 21.3438 11.0191L15.2315 4.90682L15.1475 4.8287C14.2651 4.07144 12.8626 4.68981 12.8623 5.88729V18.1129L12.8663 18.2262ZM2.25395 18.2262C2.33927 19.3485 3.68112 19.9043 4.5352 19.1715L4.61918 19.0933L10.7315 12.981C11.2732 12.4392 11.2731 11.561 10.7315 11.0191L4.61918 4.90682L4.5352 4.8287C3.65283 4.07152 2.25025 4.68983 2.25004 5.88729V18.1129L2.25395 18.2262Z" fill="#161616"/>
</svg>
