<svg width="24" height="24" viewBox="0 0 24 24" fill="none" xmlns="http://www.w3.org/2000/svg">
<path fill-rule="evenodd" clip-rule="evenodd" d="M8.4638 5.12823C10.085 2.49046 13.9158 2.49046 15.537 5.12823C15.5435 5.13878 15.5496 5.1496 15.5556 5.16045L21.2167 15.4964C21.5864 16.1034 21.9181 16.957 21.6581 17.8538C21.1566 19.5833 19.562 20.8499 17.6699 20.8499H6.33001C4.43803 20.8497 2.84424 19.5831 2.34271 17.8538C2.08269 16.957 2.41447 16.1034 2.78411 15.4964L8.44525 5.16045C8.4512 5.14959 8.45732 5.13878 8.4638 5.12823Z" fill="#E76067"/>
<path d="M11.25 15.5278H12.75V17.0679H11.25V15.5278ZM11.25 7.61963H12.75V13.6616H11.25V7.61963Z" fill="white"/>
</svg>
