<svg width="24" height="24" viewBox="0 0 24 24" fill="none" xmlns="http://www.w3.org/2000/svg">
<path d="M14.1171 4.35456V2.17096H15.6171V4.35456C15.6171 5.05128 15.6188 5.49847 15.663 5.82721C15.7043 6.13442 15.7699 6.22419 15.8173 6.27155C15.8646 6.31888 15.954 6.38456 16.2606 6.42584C16.5894 6.47005 17.0373 6.47174 17.7343 6.47174H19.9178V7.97174H17.7343C17.0798 7.97174 16.5133 7.97292 16.0614 7.91217C15.5879 7.84851 15.1292 7.70454 14.7567 7.33209C14.3842 6.9596 14.2403 6.50093 14.1766 6.02741C14.1159 5.57546 14.1171 5.0091 14.1171 4.35456Z" fill="#161616"/>
<path d="M18.8887 7.60913C18.8832 7.53681 18.8757 7.5287 18.8799 7.53882C18.884 7.54874 18.8838 7.53775 18.8369 7.48316C18.7816 7.41873 18.7014 7.3379 18.5557 7.19214L14.8965 3.53296C14.7507 3.38721 14.6699 3.30703 14.6055 3.25171C14.5509 3.20486 14.5399 3.2046 14.5498 3.20874C14.5599 3.21294 14.5518 3.20545 14.4795 3.19995C14.3948 3.19354 14.2812 3.19312 14.0752 3.19312H10.0889C8.71631 3.19312 7.76209 3.1951 7.04297 3.29175C6.3454 3.38554 5.98191 3.55594 5.72461 3.81323C5.46732 4.07053 5.29691 4.43402 5.20313 5.13159C5.10648 5.85071 5.10449 6.80494 5.10449 8.17749V15.823C5.10449 17.1956 5.10645 18.1498 5.20313 18.8689C5.29692 19.5664 5.46734 19.93 5.72461 20.1873C5.98189 20.4444 6.34562 20.615 7.04297 20.7087C7.76208 20.8054 8.71636 20.8074 10.0889 20.8074H13.9111C15.2836 20.8074 16.2379 20.8054 16.957 20.7087C17.6544 20.615 18.0181 20.4444 18.2754 20.1873C18.5327 19.93 18.7031 19.5664 18.7969 18.8689C18.8936 18.1498 18.8955 17.1956 18.8955 15.823V8.01343C18.8955 7.80747 18.8951 7.6938 18.8887 7.60913ZM20.3955 15.823C20.3955 17.1532 20.3974 18.2268 20.2842 19.0691C20.168 19.9328 19.9183 20.6654 19.3359 21.2478C18.7535 21.8301 18.021 22.0789 17.1572 22.1951C16.3149 22.3083 15.2415 22.3074 13.9111 22.3074H10.0889C8.75853 22.3074 7.68511 22.3083 6.84278 22.1951C5.97899 22.0789 5.24647 21.8301 4.66406 21.2478C4.08171 20.6654 3.83199 19.9328 3.71582 19.0691C3.60258 18.2268 3.60449 17.1532 3.60449 15.823V8.17749C3.60449 6.84719 3.60258 5.77372 3.71582 4.9314C3.83197 4.06749 4.08162 3.33514 4.66406 2.75269C5.24651 2.17024 5.97887 1.92059 6.84278 1.80445C7.6851 1.69121 8.75857 1.69312 10.0889 1.69312H14.3291C14.5895 1.69607 14.8647 1.7156 15.124 1.823C15.3831 1.93032 15.5913 2.11085 15.7773 2.29273L19.7959 6.31128C19.9778 6.49737 20.1583 6.70556 20.2656 6.9646C20.373 7.22389 20.3926 7.49911 20.3955 7.75952V15.823Z" fill="#161616"/>
<path d="M15.551 14.6615H12.7502V16.0287H14.3889C14.8606 16.0287 15.1394 16.0271 15.3381 16.0004C15.4256 15.9886 15.4693 15.975 15.4885 15.9672C15.4963 15.9486 15.5107 15.905 15.5226 15.8158C15.5493 15.6172 15.551 15.339 15.551 14.8676V14.6615ZM8.4494 14.8676C8.44941 15.339 8.45103 15.6172 8.47772 15.8158C8.48967 15.9046 8.5031 15.9485 8.51093 15.9672C8.52978 15.975 8.57392 15.9885 8.66229 16.0004C8.8609 16.027 9.13917 16.0287 9.61054 16.0287H11.2502V14.6615H8.4494V14.8676ZM15.551 12.9554C15.551 12.4841 15.5493 12.2058 15.5226 12.0072C15.5107 11.9184 15.4963 11.8745 15.4885 11.8558C15.4694 11.848 15.4257 11.8344 15.3381 11.8226C15.1394 11.7959 14.8606 11.7943 14.3889 11.7943H12.7502V13.1615H15.551V12.9554ZM8.4494 13.1615H11.2502V11.7943H9.61054C9.13914 11.7943 8.8609 11.796 8.66229 11.8226C8.57379 11.8345 8.52974 11.848 8.51093 11.8558C8.50309 11.8746 8.48962 11.9187 8.47772 12.0072C8.45105 12.2058 8.4494 12.4841 8.4494 12.9554V13.1615ZM17.051 14.8676C17.051 15.2967 17.0522 15.6943 17.009 16.016C16.9628 16.3593 16.8534 16.7263 16.551 17.0287C16.2486 17.3311 15.8816 17.4405 15.5383 17.4867C15.2164 17.53 14.8182 17.5287 14.3889 17.5287H9.61054C9.18132 17.5287 8.78388 17.53 8.4621 17.4867C8.11876 17.4405 7.75188 17.3311 7.4494 17.0287C7.14698 16.7263 7.0376 16.3593 6.9914 16.016C6.94814 15.6943 6.9494 15.2967 6.9494 14.8676V12.9554C6.9494 12.5262 6.94813 12.1288 6.9914 11.807C7.03758 11.4636 7.14691 11.0968 7.4494 10.7943C7.7519 10.4918 8.11872 10.3825 8.4621 10.3363C8.78388 10.293 9.18132 10.2943 9.61054 10.2943H14.3889C14.8182 10.2943 15.2164 10.293 15.5383 10.3363C15.8815 10.3825 16.2486 10.4919 16.551 10.7943C16.8533 11.0968 16.9628 11.4637 17.009 11.807C17.0522 12.1288 17.051 12.5262 17.051 12.9554V14.8676Z" fill="#161616"/>
</svg>
