<svg width="24" height="24" viewBox="0 0 24 24" fill="none" xmlns="http://www.w3.org/2000/svg">
<path d="M11.25 12.75H8.25V11.25H11.25V8.25H12.75V11.25H15.75V12.75H12.75V15.75H11.25V12.75Z" fill="#161616"/>
<path d="M3 18.25V14.0625H4.5V18.25C4.5 18.9404 5.05964 19.5 5.75 19.5H9.9375V21H5.75C4.23122 21 3 19.7688 3 18.25ZM19.5 18.25V14.0625H21V18.25C21 19.7688 19.7688 21 18.25 21H14.0625V19.5H18.25C18.9404 19.5 19.5 18.9404 19.5 18.25ZM3 5.75C3 4.23122 4.23122 3 5.75 3H9.9375V4.5H5.75C5.05964 4.5 4.5 5.05964 4.5 5.75V9.9375H3V5.75ZM19.5 5.75C19.5 5.05964 18.9404 4.5 18.25 4.5H14.0625V3H18.25C19.7688 3 21 4.23122 21 5.75V9.9375H19.5V5.75Z" fill="#161616"/>
</svg>
