<svg width="24" height="24" viewBox="0 0 24 24" fill="none" xmlns="http://www.w3.org/2000/svg">
<path d="M11.6318 2.34668C11.8601 2.21826 12.1399 2.21826 12.3682 2.34668L20.3682 6.84668C20.604 6.9796 20.75 7.22924 20.75 7.5V16.5C20.75 16.7708 20.604 17.0204 20.3682 17.1533L12.3682 21.6533C12.1399 21.7817 11.8601 21.7817 11.6318 21.6533L3.63184 17.1533C3.39598 17.0204 3.25 16.7708 3.25 16.5V7.5C3.25 7.22924 3.39598 6.9796 3.63184 6.84668L11.6318 2.34668ZM4.75 7.93848V16.0606L12 20.1387L19.25 16.0606V7.93848L12 3.86036L4.75 7.93848ZM14.3291 12C14.3291 10.7757 13.3049 9.75 12 9.75C10.6951 9.75001 9.6709 10.7757 9.6709 12C9.6709 13.2243 10.6951 14.25 12 14.25C13.3049 14.25 14.3291 13.2243 14.3291 12ZM15.8291 12C15.8291 14.0894 14.0963 15.75 12 15.75C9.90373 15.75 8.1709 14.0894 8.1709 12C8.1709 9.91063 9.90373 8.25001 12 8.25C14.0963 8.25 15.8291 9.91063 15.8291 12Z" fill="#161616"/>
</svg>
