<svg width="24" height="24" viewBox="0 0 24 24" fill="none" xmlns="http://www.w3.org/2000/svg">
<path d="M12.9137 20.3003H18.6104V13.2915H12.9137V20.3003ZM5.38953 20.3003H11.4143V13.2915H5.38953V20.3003ZM12.9137 11.7915H20.2465V8.70952H12.9137V11.7915ZM3.75351 11.7915H11.4143V8.70952H3.75351V11.7915ZM9.4542 3.99565C9.05926 3.60062 8.41842 3.60316 8.03196 3.98979C7.64552 4.3764 7.64293 5.01752 8.03781 5.41264C8.08398 5.45883 8.21734 5.55196 8.4722 5.67339C8.71056 5.78695 8.99993 5.89957 9.30485 6.00444C9.68138 6.13394 10.0628 6.2421 10.3659 6.32475C10.2827 6.02119 10.173 5.6388 10.0428 5.26128C9.93736 4.95543 9.82425 4.66482 9.71093 4.42632C9.58934 4.17046 9.4974 4.03888 9.4542 3.99565ZM15.4868 3.98979C15.1003 3.60319 14.4595 3.60061 14.0645 3.99565C14.0184 4.04184 13.9253 4.17524 13.8039 4.43022C13.6904 4.6687 13.5778 4.95817 13.473 5.26323C13.3435 5.64003 13.2345 6.02149 13.1518 6.32475C13.4554 6.24144 13.8381 6.13184 14.2158 6.00151C14.5216 5.89601 14.812 5.78286 15.0504 5.66948C15.3054 5.54822 15.4363 5.45604 15.4799 5.41264C15.8749 5.01756 15.8732 4.37645 15.4868 3.98979ZM21.7458 11.8863C21.7458 12.6619 21.1174 13.2914 20.3421 13.2915H20.1098V20.396C20.1097 21.1717 19.4814 21.8003 18.7061 21.8003H5.29387C4.51856 21.8003 3.89028 21.1717 3.89017 20.396V13.2915H3.65785C2.88258 13.2914 2.25415 12.6619 2.25415 11.8863V8.61382C2.25425 7.83828 2.88265 7.20965 3.65785 7.20952H8.24671C8.10282 7.15142 7.96151 7.09151 7.82794 7.02788C7.53586 6.88872 7.21103 6.7066 6.97772 6.47319C6.00231 5.49729 5.99489 3.90664 6.97186 2.92924C7.94891 1.95178 9.53888 1.95935 10.5143 2.9351C10.746 3.16692 10.9268 3.49133 11.0648 3.78178C11.2111 4.08958 11.3449 4.43754 11.4602 4.77202C11.575 5.10506 11.6757 5.4383 11.7579 5.7271C11.8393 5.4394 11.9415 5.1081 12.0556 4.77592C12.1704 4.44185 12.3031 4.09429 12.45 3.78569C12.5891 3.49349 12.7711 3.16851 13.0044 2.9351C13.9799 1.95928 15.5699 1.95186 16.5469 2.92924C17.5239 3.90671 17.5163 5.49738 16.541 6.47319C16.3093 6.705 15.985 6.88588 15.6947 7.02397C15.5586 7.08871 15.4142 7.15029 15.2671 7.20952H20.3421C21.1173 7.20965 21.7457 7.83828 21.7458 8.61382V11.8863Z" fill="#161616"/>
</svg>
