<svg width="24" height="24" viewBox="0 0 24 24" fill="none" xmlns="http://www.w3.org/2000/svg">
<path fill-rule="evenodd" clip-rule="evenodd" d="M4.37583 10.6016C4.29318 11.0552 4.25 11.5225 4.25 12C4.25 12.664 4.3335 13.3085 4.49058 13.9235C4.54249 13.9122 4.59641 13.9062 4.65173 13.9062H7.62153C7.56221 13.2897 7.53125 12.6519 7.53125 12C7.53125 11.5336 7.5471 11.0743 7.57784 10.625H4.5625C4.49806 10.625 4.43551 10.6169 4.37583 10.6016ZM4.80077 9.125H7.74055C7.93491 7.83198 8.25823 6.66063 8.68333 5.68898C8.8212 5.37385 8.97193 5.0748 9.13548 4.7966C7.1628 5.58173 5.5887 7.15374 4.80077 9.125ZM12 2.75C6.89137 2.75 2.75 6.89137 2.75 12C2.75 17.1086 6.89137 21.25 12 21.25C17.1086 21.25 21.25 17.1086 21.25 12C21.25 6.89137 17.1086 2.75 12 2.75ZM12 4.25C11.7347 4.25 11.4228 4.36974 11.0738 4.70718C10.7211 5.04811 10.3693 5.57766 10.0576 6.29021C9.71475 7.07379 9.43825 8.03791 9.259 9.125H14.741C14.5617 8.03791 14.2853 7.07379 13.9424 6.29021C13.6307 5.57766 13.2789 5.04811 12.9262 4.70718C12.5772 4.36974 12.2653 4.25 12 4.25ZM16.2595 9.125C16.0651 7.83198 15.7418 6.66063 15.3167 5.68898C15.1788 5.37385 15.0281 5.0748 14.8645 4.7966C16.8372 5.58173 18.4113 7.15374 19.1992 9.125H16.2595ZM14.9184 10.625H9.08162C9.04859 11.0705 9.03125 11.5299 9.03125 12C9.03125 12.6594 9.06536 13.2976 9.12903 13.9062H14.871C14.9346 13.2976 14.9688 12.6594 14.9688 12C14.9688 11.5299 14.9514 11.0705 14.9184 10.625ZM16.3785 13.9062C16.4378 13.2897 16.4688 12.6519 16.4688 12C16.4688 11.5336 16.4529 11.0743 16.4222 10.625H19.4375C19.5019 10.625 19.5645 10.6169 19.6242 10.6016C19.7068 11.0552 19.75 11.5225 19.75 12C19.75 12.6577 19.6681 13.2963 19.5138 13.9062H16.3785ZM14.6438 15.4062H9.35621C9.53192 16.2773 9.77168 17.0563 10.0576 17.7098C10.3693 18.4223 10.7211 18.9519 11.0738 19.2928C11.4228 19.6303 11.7347 19.75 12 19.75C12.2653 19.75 12.5772 19.6303 12.9262 19.2928C13.2789 18.9519 13.6307 18.4223 13.9424 17.7098C14.2283 17.0563 14.4681 16.2773 14.6438 15.4062ZM14.8645 19.2034C15.0281 18.9252 15.1788 18.6261 15.3167 18.311C15.6828 17.4742 15.9734 16.4893 16.1711 15.4062H18.9633C18.1197 17.1275 16.6566 18.4902 14.8645 19.2034ZM9.13548 19.2034C8.97193 18.9252 8.8212 18.6261 8.68333 18.311C8.31723 17.4742 8.02663 16.4893 7.82886 15.4062H5.03669C5.88031 17.1275 7.34344 18.4902 9.13548 19.2034Z" fill="#161616"/>
</svg>
