<svg width="24" height="24" viewBox="0 0 24 24" fill="none" xmlns="http://www.w3.org/2000/svg">
<path d="M17.1084 20.25V21.75H6.8916V20.25H17.1084ZM17.5742 7.13477C17.574 6.74324 17.2568 6.42598 16.8652 6.42578H7.13477C6.74324 6.42598 6.42598 6.74324 6.42578 7.13477V16.8652C6.42598 17.2568 6.74324 17.574 7.13477 17.5742H16.8652C17.2568 17.574 17.574 17.2568 17.5742 16.8652V7.13477ZM3.75 6.8916V17.1084H2.25V6.8916H3.75ZM21.75 6.8916V17.1084H20.25V6.8916H21.75ZM14.8838 11.5283V13.0283H9.11621V11.5283H14.8838ZM17.1084 2.25V3.75H6.8916V2.25H17.1084ZM19.0742 16.8652C19.074 18.0852 18.0852 19.074 16.8652 19.0742H7.13477C5.91481 19.074 4.92598 18.0852 4.92578 16.8652V7.13477C4.92598 5.91481 5.91481 4.92598 7.13477 4.92578H16.8652C18.0852 4.92598 19.074 5.91481 19.0742 7.13477V16.8652Z" fill="#161616"/>
</svg>
