<svg width="24" height="24" viewBox="0 0 24 24" fill="none" xmlns="http://www.w3.org/2000/svg">
<path d="M5.64453 3.22705L7.14453 3.22705L7.14453 12.7505H5.64453L5.64453 3.22705Z" fill="#161616"/>
<path d="M16.8555 3.22705L18.3555 3.22705V12.7505H16.8555V3.22705Z" fill="#161616"/>
<path d="M11.5986 15.4382V16.9382H5.67671V15.4382H11.5986Z" fill="#161616"/>
<path d="M15.1279 16.9382C14.7137 16.9382 14.3779 16.6024 14.3779 16.1882C14.3779 15.774 14.7137 15.4382 15.1279 15.4382C15.5421 15.4382 15.8779 15.774 15.8779 16.1882C15.8779 16.5764 15.583 16.8958 15.205 16.9343L15.1279 16.9382Z" fill="#161616"/>
<path d="M17.5732 16.9382C17.159 16.9382 16.8232 16.6024 16.8232 16.1882C16.8232 15.774 17.159 15.4382 17.5732 15.4382C17.9874 15.4382 18.3232 15.774 18.3232 16.1882C18.3232 16.5764 18.0284 16.8958 17.6503 16.9343L17.5732 16.9382Z" fill="#161616"/>
<path d="M19.75 14.4524C19.75 13.762 19.1904 13.2024 18.5 13.2024H5.5C4.80964 13.2024 4.25 13.762 4.25 14.4524V17.9524C4.25 18.6427 4.80964 19.2024 5.5 19.2024H18.5C19.1904 19.2024 19.75 18.6427 19.75 17.9524V14.4524ZM21.25 17.9524C21.25 19.4712 20.0188 20.7024 18.5 20.7024H5.5C3.98122 20.7024 2.75 19.4712 2.75 17.9524V14.4524C2.75 12.9336 3.98122 11.7024 5.5 11.7024H18.5C20.0188 11.7024 21.25 12.9336 21.25 14.4524V17.9524Z" fill="#161616"/>
<path d="M11.5527 9.36938C11.8499 9.08095 12.3248 9.08792 12.6133 9.38501C12.9018 9.68224 12.8949 10.1571 12.5977 10.4456L12.5879 10.4543C12.2907 10.7428 11.8158 10.736 11.5273 10.4387C11.2391 10.1415 11.2468 9.66657 11.5439 9.37817L11.5527 9.36938ZM9.93457 7.81665C11.1142 6.67177 13.0176 6.67178 14.1973 7.81665L13.1523 8.89282C12.5547 8.31306 11.5772 8.31305 10.9795 8.89282L9.93457 7.81665ZM8.3252 6.25513C10.3936 4.24768 13.7383 4.24768 15.8066 6.25513L14.7617 7.3313C13.2753 5.88871 10.8565 5.88871 9.37012 7.3313L8.3252 6.25513Z" fill="#161616"/>
</svg>
