<svg width="24" height="24" viewBox="0 0 24 24" fill="none" xmlns="http://www.w3.org/2000/svg">
<path d="M19.3496 13.98C19.3496 13.4637 19.3496 13.1214 19.3281 12.8589C19.3074 12.6051 19.2706 12.4925 19.2354 12.4233C19.1347 12.2258 18.9739 12.065 18.7764 11.9644C18.7072 11.9292 18.5943 11.8923 18.3408 11.8716C18.0783 11.8502 17.7359 11.8501 17.2197 11.8501H13.6504V19.3501H19.3496V13.98ZM9.75 13.9497V15.4497H7.0498V13.9497H9.75ZM9.75 10.3501V11.8501H7.0498V10.3501H9.75ZM9.75 6.74951V8.24951H7.0498V6.74951H9.75ZM12.1504 6.77979C12.1504 6.26343 12.1494 5.9212 12.1279 5.65869C12.1072 5.40495 12.0704 5.29231 12.0352 5.22314C11.9345 5.02577 11.7745 4.8648 11.5771 4.76416C11.508 4.72894 11.395 4.6931 11.1416 4.67236C10.8791 4.65091 10.536 4.6499 10.0195 4.6499H6.78027C6.26405 4.6499 5.92167 4.65094 5.65918 4.67236C5.40581 4.69306 5.29283 4.72897 5.22363 4.76416C5.02611 4.8648 4.86532 5.02564 4.76465 5.22314C4.72941 5.29231 4.69261 5.40494 4.67188 5.65869C4.65043 5.9212 4.65039 6.26343 4.65039 6.77979V19.3501H12.1504V6.77979ZM13.6504 10.3501H17.2197C17.7112 10.3501 18.1252 10.3489 18.4629 10.3765C18.8094 10.4048 19.1421 10.4665 19.458 10.6274C19.9378 10.8719 20.3278 11.2629 20.5723 11.7427C20.733 12.0584 20.7949 12.3904 20.8232 12.7368C20.8508 13.0746 20.8496 13.4884 20.8496 13.98V19.3501H21.75V20.8501H2.25V19.3501H3.15039V6.77979C3.15039 6.28819 3.14917 5.87436 3.17676 5.53662C3.20506 5.19019 3.2669 4.85827 3.42773 4.54248C3.67214 4.06281 4.06237 3.67271 4.54199 3.42822C4.85786 3.26728 5.19057 3.20556 5.53711 3.17725C5.87482 3.14968 6.28879 3.1499 6.78027 3.1499H10.0195C10.5112 3.1499 10.9259 3.14965 11.2637 3.17725C11.6101 3.20557 11.9421 3.26734 12.2578 3.42822C12.7375 3.67271 13.1276 4.06276 13.3721 4.54248C13.5329 4.85829 13.5947 5.19016 13.623 5.53662C13.6506 5.87437 13.6504 6.28818 13.6504 6.77979V10.3501Z" fill="#161616"/>
</svg>
