<svg width="24" height="24" viewBox="0 0 24 24" fill="none" xmlns="http://www.w3.org/2000/svg">
<path d="M8.33333 7.87501C8.33333 8.12814 8.12813 8.33335 7.875 8.33335C7.62187 8.33335 7.41667 8.12814 7.41667 7.87501C7.41667 7.62188 7.62187 7.41668 7.875 7.41668C8.12813 7.41668 8.33333 7.62188 8.33333 7.87501Z" fill="#161616"/>
<path d="M19.8367 4.73971C19.8367 4.99284 19.6315 5.19804 19.3784 5.19804C19.1253 5.19804 18.9201 4.99284 18.9201 4.73971C18.9201 4.48657 19.1253 4.28137 19.3784 4.28137C19.6315 4.28137 19.8367 4.48657 19.8367 4.73971Z" fill="#161616"/>
<path d="M15.6667 17.0417C15.6667 17.2948 15.4615 17.5 15.2083 17.5C14.9552 17.5 14.75 17.2948 14.75 17.0417C14.75 16.7886 14.9552 16.5833 15.2083 16.5833C15.4615 16.5833 15.6667 16.7886 15.6667 17.0417Z" fill="#161616"/>
<path d="M3 18.25V3H4.5V18.25C4.5 18.9404 5.05964 19.5 5.75 19.5H21V21H5.75C4.23122 21 3 19.7688 3 18.25ZM9.41699 14.75C9.41699 14.1517 8.93132 13.667 8.33301 13.667C7.73485 13.6672 7.25 14.1518 7.25 14.75C7.25 15.3482 7.73485 15.8328 8.33301 15.833C8.93132 15.833 9.41699 15.3483 9.41699 14.75ZM15.208 16.75C15.0471 16.7502 14.917 16.881 14.917 17.042L14.9229 17.1006C14.9501 17.2333 15.0673 17.3329 15.208 17.333C15.3489 17.333 15.4669 17.2334 15.4941 17.1006L15.5 17.042L15.4941 16.9824C15.4707 16.8688 15.3811 16.7793 15.2676 16.7559L15.208 16.75ZM16.75 10.167C16.75 9.06242 15.8546 8.16699 14.75 8.16699C13.6454 8.16699 12.75 9.06242 12.75 10.167C12.7502 11.2714 13.6455 12.167 14.75 12.167C15.8545 12.167 16.7498 11.2714 16.75 10.167ZM7.875 7.58301C7.71392 7.58301 7.58301 7.71392 7.58301 7.875L7.58887 7.93359C7.61597 8.06663 7.73396 8.16699 7.875 8.16699C8.01604 8.16699 8.13403 8.06663 8.16113 7.93359L8.16699 7.875L8.16113 7.81641C8.13789 7.70228 8.04772 7.61211 7.93359 7.58887L7.875 7.58301ZM19.3779 4.44824C19.2172 4.44849 19.0871 4.57853 19.0869 4.73926L19.0928 4.79883C19.1201 4.93141 19.2373 5.03103 19.3779 5.03125C19.5188 5.03125 19.6367 4.93156 19.6641 4.79883L19.6699 4.73926L19.6641 4.68066C19.6407 4.56698 19.5512 4.47751 19.4375 4.4541L19.3779 4.44824ZM16.417 17.042C16.4168 17.7092 15.8752 18.25 15.208 18.25C14.5824 18.2498 14.0676 17.7743 14.0059 17.165L14 17.042L14.0059 16.918C14.0678 16.3088 14.5826 15.8332 15.208 15.833L15.332 15.8398C15.9413 15.9018 16.417 16.4164 16.417 17.042ZM10.917 14.75C10.917 16.1767 9.75974 17.333 8.33301 17.333C6.90642 17.3328 5.75 16.1766 5.75 14.75C5.75 13.3234 6.90642 12.1672 8.33301 12.167C9.75974 12.167 10.917 13.3233 10.917 14.75ZM18.25 10.167C18.2498 12.0998 16.6829 13.667 14.75 13.667C12.8171 13.667 11.2502 12.0998 11.25 10.167C11.25 8.234 12.817 6.66699 14.75 6.66699C16.683 6.66699 18.25 8.234 18.25 10.167ZM9.08301 7.875C9.08301 8.54234 8.54234 9.08301 7.875 9.08301C7.24952 9.08301 6.73495 8.60811 6.67285 7.99902L6.66699 7.875L6.67285 7.75098C6.73495 7.14189 7.24953 6.66699 7.875 6.66699L7.99902 6.67285C8.60811 6.73495 9.08301 7.24952 9.08301 7.875ZM20.5869 4.73926C20.5869 5.4066 20.0453 5.94824 19.3779 5.94824C18.7525 5.94801 18.2387 5.4724 18.1768 4.86328L18.1699 4.73926L18.1768 4.61621C18.2386 4.00704 18.7525 3.53148 19.3779 3.53125L19.502 3.53711C20.1111 3.59896 20.5867 4.11381 20.5869 4.73926Z" fill="#161616"/>
</svg>
