<svg width="24" height="24" viewBox="0 0 24 24" fill="none" xmlns="http://www.w3.org/2000/svg">
<path d="M7.58301 16.125C7.58301 15.2737 6.89328 14.5832 6.04199 14.583C5.19055 14.583 4.5 15.2736 4.5 16.125V17.958C4.5 18.8094 5.19055 19.5 6.04199 19.5C6.89328 19.4998 7.58301 18.8093 7.58301 17.958V16.125ZM19.5 12C19.5 7.85787 16.1421 4.5 12 4.5C7.85786 4.5 4.5 7.85787 4.5 12V13.5059C4.9524 13.239 5.47873 13.083 6.04199 13.083C7.72171 13.0832 9.08301 14.4452 9.08301 16.125V17.958C9.08301 19.6378 7.72171 20.9998 6.04199 21C4.4605 21 3.16046 19.793 3.01367 18.25H3V12C3 7.02944 7.02944 3 12 3C16.9706 3 21 7.02944 21 12V18.25H20.9863C20.8395 19.793 19.5395 21 17.958 21C16.2783 20.9998 14.917 19.6378 14.917 17.958V16.125C14.917 14.4452 16.2783 13.0832 17.958 13.083C18.5213 13.083 19.0476 13.239 19.5 13.5059V12ZM16.417 17.958C16.417 18.8093 17.1067 19.4998 17.958 19.5C18.8094 19.5 19.5 18.8094 19.5 17.958V16.125C19.5 15.2736 18.8094 14.583 17.958 14.583C17.1067 14.5832 16.417 15.2737 16.417 16.125V17.958Z" fill="#161616"/>
</svg>
