<svg width="24" height="24" viewBox="0 0 24 24" fill="none" xmlns="http://www.w3.org/2000/svg">
<path d="M16.4326 20.7559C15.1799 21.0695 13.6456 21.25 12 21.25C10.3544 21.25 8.82013 21.0695 7.56738 20.7559L7.93262 19.3008C9.04749 19.5799 10.4566 19.75 12 19.75C13.5434 19.75 14.9525 19.5799 16.0674 19.3008L16.4326 20.7559ZM17.9316 16.8857C16.4379 17.4499 14.3165 17.7871 12 17.7871C9.68352 17.7871 7.5621 17.4499 6.06836 16.8857L6.59863 15.4824C7.87379 15.964 9.80329 16.2871 12 16.2871C14.1967 16.2871 16.1262 15.964 17.4014 15.4824L17.9316 16.8857ZM19.083 11.6865L19.4805 12.3232C17.9505 13.2766 15.1154 13.8516 12 13.8516C8.88457 13.8516 6.04946 13.2766 4.51953 12.3232L4.91699 11.6865L5.31348 11.0498C6.48741 11.7813 8.98254 12.3516 12 12.3516C15.0175 12.3516 17.5126 11.7813 18.6865 11.0498L19.083 11.6865ZM19.75 6.33301C19.7499 6.26982 19.7121 6.09042 19.3682 5.81934C19.032 5.5544 18.4988 5.28282 17.7734 5.04102C16.3304 4.56001 14.289 4.25 12 4.25C9.71097 4.25 7.66957 4.56001 6.22656 5.04102C5.50118 5.28282 4.96801 5.5544 4.63184 5.81934C4.28791 6.09042 4.25013 6.26982 4.25 6.33301C4.25 6.39588 4.28761 6.57527 4.63184 6.84668C4.96798 7.11159 5.50128 7.38321 6.22656 7.625C7.66957 8.106 9.71097 8.41699 12 8.41699C14.289 8.41699 16.3304 8.106 17.7734 7.625C18.4987 7.38321 19.032 7.11159 19.3682 6.84668C19.7124 6.57527 19.75 6.39588 19.75 6.33301ZM21.25 6.33301C21.25 7.05251 20.8115 7.61905 20.2959 8.02539C19.772 8.4382 19.0604 8.77701 18.248 9.04785C16.6147 9.59231 14.4054 9.91699 12 9.91699C9.59461 9.91699 7.38534 9.59231 5.75195 9.04785C4.93956 8.77701 4.22801 8.4382 3.7041 8.02539C3.1885 7.61905 2.75 7.05251 2.75 6.33301C2.75013 5.61366 3.18858 5.04788 3.7041 4.6416C4.22807 4.22871 4.9394 3.88905 5.75195 3.61816C7.38534 3.0737 9.59461 2.75 12 2.75C14.4054 2.75 16.6147 3.0737 18.248 3.61816C19.0606 3.88905 19.7719 4.22871 20.2959 4.6416C20.8114 5.04788 21.2499 5.61366 21.25 6.33301Z" fill="#161616"/>
</svg>
