<svg width="24" height="24" viewBox="0 0 24 24" fill="none" xmlns="http://www.w3.org/2000/svg">
<path d="M11.5391 3.65823C11.8099 3.44758 12.1901 3.44758 12.4609 3.65823L21.4609 10.6582C21.6434 10.8003 21.75 11.0188 21.75 11.25V18.25H20.25V11.6162L12 5.20022L3.75 11.6162V18.25H2.25V11.25C2.25 11.0188 2.35662 10.8003 2.53906 10.6582L11.5391 3.65823Z" fill="#161616"/>
<path d="M15.25 16.25C15.25 14.4332 13.8275 13 12.1211 13C11.2396 13.0001 10.4379 13.3805 9.86523 14H10.6895V15.5H8C7.58579 15.5 7.25 15.1642 7.25 14.75V12H8.75V12.9991C9.59094 12.0812 10.7858 11.5001 12.1211 11.5C14.6991 11.5 16.75 13.6486 16.75 16.25C16.75 18.8515 14.6991 21 12.1211 21C11.1513 21 10.2503 20.6928 9.50781 20.1709L8.89453 19.7403L9.75684 18.5127L10.3711 18.9444C10.8717 19.2961 11.4731 19.5 12.1211 19.5C13.8275 19.5 15.25 18.0669 15.25 16.25Z" fill="#161616"/>
</svg>
