<svg width="24" height="24" viewBox="0 0 24 24" fill="none" xmlns="http://www.w3.org/2000/svg">
<path d="M19.7393 11.0302C19.7393 10.4668 19.7322 10.3284 19.6993 10.2109C19.6644 10.0862 19.6074 9.96837 19.5304 9.86422C19.4578 9.76616 19.352 9.67588 18.9073 9.33004L12.753 4.54293C12.5854 4.41254 12.4901 4.33945 12.4161 4.29C12.3499 4.2458 12.3427 4.25024 12.3634 4.25582C12.3364 4.24852 12.3073 4.24852 12.2804 4.25582C12.301 4.25024 12.2938 4.2458 12.2276 4.29C12.1536 4.33944 12.0585 4.41247 11.8907 4.54293L5.73642 9.33004C5.29197 9.67572 5.18595 9.76621 5.11337 9.86422C5.03634 9.96837 4.97837 10.0862 4.94345 10.2109C4.9106 10.3284 4.90439 10.467 4.90439 11.0302V17.5957C4.90439 18.116 4.90523 18.4616 4.92685 18.7265C4.94779 18.9828 4.98454 19.0981 5.0206 19.1689C5.12265 19.369 5.28537 19.5317 5.48544 19.6338C5.55621 19.6698 5.67156 19.7066 5.92782 19.7275C6.19279 19.7491 6.53837 19.75 7.05868 19.75H17.5851C18.1055 19.75 18.4509 19.7491 18.7159 19.7275C18.972 19.7066 19.0865 19.6698 19.1573 19.6338C19.3576 19.5317 19.521 19.3692 19.6231 19.1689C19.6592 19.0981 19.6959 18.9828 19.7169 18.7265C19.7385 18.4616 19.7393 18.116 19.7393 17.5957V11.0302ZM15.9513 16.1201V17.6201H8.6915V16.1201H15.9513ZM21.2393 17.5957C21.2393 18.0915 21.2398 18.5093 21.212 18.8496C21.1835 19.1985 21.1208 19.5322 20.9591 19.8496C20.7132 20.332 20.3214 20.7248 19.839 20.9707C19.5215 21.1324 19.187 21.1941 18.838 21.2226C18.4978 21.2504 18.0808 21.25 17.5851 21.25H7.05868C6.56282 21.25 6.14505 21.2504 5.80478 21.2226C5.45591 21.1941 5.12211 21.1324 4.80478 20.9707C4.32215 20.7248 3.92959 20.3322 3.68368 19.8496C3.522 19.5322 3.46026 19.1984 3.43173 18.8496C3.40393 18.5093 3.40439 18.0915 3.40439 17.5957V11.0302C3.40439 10.5517 3.39773 10.1689 3.49911 9.8066C3.58321 9.50616 3.72179 9.22346 3.90732 8.97262L3.99521 8.86227C4.20881 8.61169 4.48413 8.40343 4.81454 8.14645L11.1749 3.20016C11.3867 3.03883 11.621 2.88007 11.8888 2.80758C12.1724 2.73082 12.4714 2.73079 12.755 2.80758C13.112 2.90426 13.4099 3.15396 13.6739 3.35934L19.8282 8.14645C20.2061 8.44037 20.5126 8.67001 20.7364 8.97262C20.9219 9.22344 21.0605 9.50619 21.1446 9.8066C21.246 10.1689 21.2393 10.5517 21.2393 11.0302V17.5957Z" fill="#161616"/>
</svg>
