<svg width="24" height="24" viewBox="0 0 24 24" fill="none" xmlns="http://www.w3.org/2000/svg">
<path d="M16.4678 4.24996C17.1672 4.24364 17.8602 4.38233 18.5059 4.65719C19.1515 4.9321 19.7364 5.33756 20.2266 5.84762C20.7167 6.35775 21.1033 6.96315 21.3643 7.62692C21.6251 8.29045 21.7559 9.00053 21.75 9.71578C21.744 10.4313 21.6011 11.1398 21.3291 11.7988C21.0587 12.4538 20.6644 13.0474 20.1699 13.5468L20.1709 13.5478L12.5127 21.5195C12.3713 21.6667 12.1758 21.75 11.9717 21.75C11.7676 21.7499 11.572 21.6666 11.4307 21.5195L3.77246 13.5478C2.79428 12.5294 2.25 11.1541 2.25 9.72653C2.25006 8.29915 2.79449 6.92451 3.77246 5.90621C4.75189 4.88715 6.08699 4.3086 7.48535 4.30856C8.88343 4.30856 10.2179 4.88659 11.1973 5.90524H11.1982L11.9717 6.70992L12.7461 5.90524C13.2257 5.39112 13.7998 4.97897 14.4365 4.6943C15.0775 4.40773 15.7682 4.25629 16.4678 4.24996ZM3.75 9.72653C3.75 10.7753 4.15051 11.7758 4.85449 12.5088L11.9717 19.917L19.0898 12.5088L19.0986 12.499C19.4568 12.1389 19.7442 11.7067 19.9424 11.2265C20.1406 10.7463 20.2456 10.2285 20.25 9.70406C20.2544 9.17955 20.158 8.65972 19.9678 8.17574C19.7776 7.69198 19.4977 7.25429 19.1455 6.88766C18.7933 6.52112 18.3758 6.23265 17.9189 6.03805C17.462 5.84349 16.9732 5.74553 16.4814 5.74996C15.9897 5.75441 15.5026 5.86058 15.0488 6.06344C14.595 6.26635 14.1822 6.56238 13.8359 6.93551L13.8271 6.94528L12.5127 8.31246C12.3713 8.4595 12.1757 8.54293 11.9717 8.54293C11.7679 8.54286 11.573 8.45931 11.4316 8.31246L10.1172 6.94528H10.1162C9.41302 6.21373 8.46615 5.80856 7.48535 5.80856C6.50454 5.8086 5.55766 6.21367 4.85449 6.94528C4.15064 7.67812 3.75006 8.67792 3.75 9.72653Z" fill="#161616"/>
</svg>
