<svg width="24" height="24" viewBox="0 0 24 24" fill="none" xmlns="http://www.w3.org/2000/svg">
<path d="M11.7168 2.60373C11.9285 2.51736 12.1704 2.53146 12.3721 2.64669L19.9863 6.99826C20.2197 7.13177 20.3641 7.37976 20.3643 7.64865V16.3508C20.3643 16.6199 20.22 16.8686 19.9863 17.0022L12.3721 21.3527C12.1415 21.4845 11.8585 21.4845 11.6279 21.3527L4.01367 17.0022C3.77999 16.8686 3.63574 16.6199 3.63574 16.3508V7.64865C3.63587 7.37971 3.78019 7.13175 4.01367 6.99826L11.6279 2.64669L11.7168 2.60373ZM5.13574 8.08322V15.9152L12 19.8381L18.8643 15.9152V8.08322L12 4.16134L5.13574 8.08322Z" fill="#161616"/>
</svg>
