<svg width="24" height="24" viewBox="0 0 24 24" fill="none" xmlns="http://www.w3.org/2000/svg">
<path d="M14.25 10.8093C14.25 9.9809 13.5784 9.30933 12.75 9.30933H9.75V12.3093C9.75 13.1378 10.4216 13.8093 11.25 13.8093H14.25V10.8093ZM3.75 18.3093C3.75 19.1378 4.42157 19.8093 5.25 19.8093H12.75C13.5784 19.8093 14.25 19.1378 14.25 18.3093V15.3093H11.25C9.59315 15.3093 8.25 13.9662 8.25 12.3093V9.30933H5.25C4.42157 9.30933 3.75 9.9809 3.75 10.8093V18.3093ZM15.75 13.8093H18.75C19.5784 13.8093 20.25 13.1378 20.25 12.3093V4.80933C20.25 3.9809 19.5784 3.30933 18.75 3.30933H11.25C10.4216 3.30933 9.75 3.9809 9.75 4.80933V7.80933H12.75C14.4069 7.80933 15.75 9.15247 15.75 10.8093V13.8093ZM21.75 12.3093C21.75 13.9662 20.4069 15.3093 18.75 15.3093H15.75V18.3093C15.75 19.9662 14.4069 21.3093 12.75 21.3093H5.25C3.59315 21.3093 2.25 19.9662 2.25 18.3093V10.8093C2.25 9.15247 3.59315 7.80933 5.25 7.80933H8.25V4.80933C8.25 3.15247 9.59315 1.80933 11.25 1.80933H18.75C20.4069 1.80933 21.75 3.15247 21.75 4.80933V12.3093Z" fill="#161616"/>
</svg>
