<svg width="24" height="24" viewBox="0 0 24 24" fill="none" xmlns="http://www.w3.org/2000/svg">
<path d="M8.25 13V11H9.75V13C9.75 13.6904 10.3096 14.25 11 14.25H13V15.75H11C9.48122 15.75 8.25 14.5188 8.25 13ZM20.25 13V11H21.75V13C21.75 14.5188 20.5188 15.75 19 15.75H17V14.25H19C19.6904 14.25 20.25 13.6904 20.25 13ZM8.25 5C8.25 3.48122 9.48122 2.25 11 2.25H13V3.75H11C10.3096 3.75 9.75 4.30964 9.75 5V7H8.25V5ZM20.25 5C20.25 4.30964 19.6904 3.75 19 3.75H17V2.25H19C20.5188 2.25 21.75 3.48122 21.75 5V7H20.25V5Z" fill="#161616"/>
<path d="M5.2438 20.0895L10.9124 14.4209C11.1764 14.1569 11.3084 14.0249 11.4607 13.9754C11.5946 13.9319 11.7388 13.9319 11.8727 13.9754C12.0249 14.0249 12.1569 14.1569 12.4209 14.4209L15 17V17.8C15 18.9201 15 19.4802 14.782 19.908C14.5903 20.2843 14.2843 20.5903 13.908 20.782C13.4802 21 12.9201 21 11.8 21H5.62092C5.21704 21 5.0151 21 4.92159 20.9201C4.84046 20.8508 4.7974 20.7469 4.80577 20.6405C4.81542 20.5179 4.95821 20.3751 5.2438 20.0895Z" fill="#F5F5F5"/>
<path d="M3 12.2C3 11.0799 3 10.5198 3.21799 10.092C3.40974 9.71569 3.7157 9.40973 4.09202 9.21799C4.51985 9 5.0799 9 6.2 9H11.8C12.9201 9 13.4802 9 13.908 9.21799C14.2843 9.40973 14.5903 9.71569 14.782 10.092C15 10.5198 15 11.0799 15 12.2V17.8C15 18.9201 15 19.4802 14.782 19.908C14.5903 20.2843 14.2843 20.5903 13.908 20.782C13.4802 21 12.9201 21 11.8 21H6.2C5.0799 21 4.51985 21 4.09202 20.782C3.7157 20.5903 3.40974 20.2843 3.21799 19.908C3 19.4802 3 18.9201 3 17.8V12.2Z" fill="#F5F5F5"/>
<path d="M6.66667 14C7.40305 14 8 13.403 8 12.6667C8 11.9303 7.40305 11.3333 6.66667 11.3333C5.93029 11.3333 5.33334 11.9303 5.33334 12.6667C5.33334 13.403 5.93029 14 6.66667 14Z" fill="#F5F5F5"/>
<path d="M14.25 17.3105L11.8906 14.9512C11.7864 14.8469 11.717 14.7816 11.666 14.7344C11.6152 14.7816 11.5461 14.8474 11.4424 14.9512L6.14454 20.249C6.16283 20.249 6.18151 20.25 6.2002 20.25H11.7998C12.3722 20.25 12.7569 20.2498 13.0527 20.2256C13.3397 20.2021 13.4768 20.1594 13.5674 20.1133C13.8025 19.9935 13.9935 19.8025 14.1133 19.5674C14.1594 19.4768 14.2021 19.3397 14.2256 19.0527C14.2498 18.7569 14.25 18.3722 14.25 17.7998V17.3105ZM7.25 12.667C7.25 12.3449 6.98901 12.0832 6.667 12.083C6.34483 12.083 6.08301 12.3448 6.08301 12.667C6.08319 12.989 6.34494 13.25 6.667 13.25C6.9889 13.2498 7.24983 12.9889 7.25 12.667ZM14.25 12.2002C14.25 11.6278 14.2498 11.2431 14.2256 10.9473C14.2021 10.6603 14.1594 10.5232 14.1133 10.4326C13.9935 10.1975 13.8025 10.0065 13.5674 9.88672C13.4768 9.84059 13.3397 9.79788 13.0527 9.77441C12.7569 9.75024 12.3722 9.75 11.7998 9.75H6.2002C5.62777 9.75 5.24315 9.75024 4.94727 9.77441C4.66027 9.79788 4.52316 9.84059 4.43262 9.88672C4.19751 10.0065 4.00655 10.1975 3.88672 10.4326C3.84059 10.5232 3.79788 10.6603 3.77442 10.9473C3.75024 11.2431 3.75 11.6278 3.75 12.2002V17.7998C3.75 18.3722 3.75024 18.7569 3.77442 19.0527C3.79788 19.3397 3.84059 19.4768 3.88672 19.5674C3.98 19.7504 4.11639 19.9066 4.28321 20.0234C4.30691 19.9919 4.3292 19.9652 4.34668 19.9443C4.44574 19.8261 4.58173 19.6917 4.71387 19.5596L10.3818 13.8906C10.5051 13.7674 10.6294 13.6425 10.7432 13.5459C10.8636 13.4437 11.0209 13.3292 11.2285 13.2617C11.4775 13.1808 11.7439 13.1707 11.9971 13.2314L12.1045 13.2617L12.251 13.3203C12.3885 13.3856 12.4995 13.4692 12.5898 13.5459C12.7037 13.6425 12.8279 13.7674 12.9512 13.8906L14.25 15.1895V12.2002ZM8.75001 12.667C8.74983 13.8173 7.81733 14.7498 6.667 14.75C5.51651 14.75 4.58319 13.8174 4.58301 12.667C4.58301 11.5164 5.5164 10.583 6.667 10.583C7.81744 10.5832 8.75001 11.5165 8.75001 12.667ZM15.75 17.7998C15.75 18.3475 15.751 18.8037 15.7207 19.1748C15.6897 19.5545 15.6219 19.9109 15.4502 20.248C15.1865 20.7655 14.7655 21.1865 14.2481 21.4502C13.9109 21.6219 13.5545 21.6897 13.1748 21.7207C12.8037 21.751 12.3475 21.75 11.7998 21.75H5.6211C5.43409 21.75 5.24259 21.7509 5.08887 21.7373C5.08016 21.7365 5.07063 21.7344 5.06055 21.7334C4.97868 21.7295 4.90011 21.7268 4.8252 21.7207C4.44547 21.6897 4.0891 21.6219 3.75196 21.4502C3.23451 21.1865 2.81346 20.7655 2.54981 20.248C2.3781 19.9109 2.31033 19.5545 2.2793 19.1748C2.24898 18.8037 2.25 18.3475 2.25 17.7998V12.2002C2.25 11.6525 2.24898 11.1963 2.2793 10.8252C2.31033 10.4455 2.3781 10.0891 2.54981 9.75195C2.81346 9.23451 3.23451 8.81346 3.75196 8.54981C4.0891 8.37809 4.44547 8.31033 4.8252 8.2793C5.19633 8.24897 5.65252 8.25 6.2002 8.25H11.7998C12.3475 8.25 12.8037 8.24897 13.1748 8.2793C13.5545 8.31033 13.9109 8.37809 14.2481 8.54981C14.7655 8.81346 15.1865 9.23451 15.4502 9.75195C15.6219 10.0891 15.6897 10.4455 15.7207 10.8252C15.751 11.1963 15.75 11.6525 15.75 12.2002V17.7998Z" fill="#161616"/>
</svg>
