<svg width="24" height="24" viewBox="0 0 24 24" fill="none" xmlns="http://www.w3.org/2000/svg">
<path d="M2.75 18.5V14.125H4.25V18.5C4.25 19.1904 4.80964 19.75 5.5 19.75H9.875V21.25H5.5C3.98122 21.25 2.75 20.0188 2.75 18.5ZM19.75 18.5V14.125H21.25V18.5C21.25 20.0188 20.0188 21.25 18.5 21.25H14.125V19.75H18.5C19.1904 19.75 19.75 19.1904 19.75 18.5ZM2.75 5.5C2.75 3.98122 3.98122 2.75 5.5 2.75H9.875V4.25H5.5C4.80964 4.25 4.25 4.80964 4.25 5.5V9.875H2.75V5.5ZM19.75 5.5C19.75 4.80964 19.1904 4.25 18.5 4.25H14.125V2.75H18.5C20.0188 2.75 21.25 3.98122 21.25 5.5V9.875H19.75V5.5Z" fill="#161616"/>
<path d="M7.5 16.5H16.5V7.5H7.5V16.5ZM18 17C18 17.5177 17.6067 17.9438 17.1025 17.9951L17 18H7L6.89746 17.9951C6.42703 17.9472 6.05278 17.573 6.00488 17.1025L6 17V7C6 6.44772 6.44772 6 7 6H17C17.5523 6 18 6.44772 18 7V17Z" fill="#161616"/>
<path d="M12.6456 11.7451C13.4739 10.7282 14.9756 10.7281 15.8038 11.7451L17.6876 14.0586C17.949 14.3798 17.9003 14.8518 17.5792 15.1133C17.2581 15.3748 16.7861 15.3269 16.5245 15.0059L14.6407 12.6924C14.4127 12.4124 14.0367 12.4125 13.8087 12.6924L12.5636 14.2217C11.8185 15.1368 10.4762 15.1897 9.66903 14.3223C9.49383 14.134 9.23388 14.134 9.05867 14.3223L7.70321 15.7784C7.42103 16.0815 6.94685 16.0986 6.64364 15.8164C6.3404 15.5343 6.32339 15.0601 6.60555 14.7569L7.96004 13.3008C8.72852 12.475 9.99918 12.475 10.7677 13.3008C10.9489 13.4951 11.2252 13.4897 11.4005 13.2744L12.6456 11.7451Z" fill="#161616"/>
<path d="M9 9.49977V9.49C9 8.93772 9.44772 8.49 10 8.49C10.5523 8.49 11 8.93772 11 9.49V9.49977C11 10.0521 10.5523 10.4998 10 10.4998C9.44772 10.4998 9 10.0521 9 9.49977Z" fill="#161616"/>
</svg>
