<svg width="24" height="24" viewBox="0 0 24 24" fill="none" xmlns="http://www.w3.org/2000/svg">
<path d="M21.7501 18.5627V20.0627H2.25012V18.5627H21.7501ZM20.6027 8.55196C20.8338 8.40757 21.125 8.39933 21.3634 8.53145C21.6018 8.66361 21.7501 8.91509 21.7501 9.1877V14.8127C21.75 15.0852 21.6018 15.3358 21.3634 15.468C21.125 15.6001 20.8339 15.5929 20.6027 15.4484L16.1027 12.6359C15.8834 12.4989 15.7502 12.2587 15.7501 12.0002C15.7501 11.7416 15.8834 11.5015 16.1027 11.3645L20.6027 8.55196ZM12.7501 13.6877V15.1877H2.25012V13.6877H12.7501ZM17.9142 11.9992L20.2501 13.4582V10.5402L17.9142 11.9992ZM12.7501 8.8127V10.3127H2.25012V8.8127H12.7501ZM21.7501 3.9377V5.4377H2.25012V3.9377H21.7501Z" fill="#161616"/>
</svg>
