<svg width="24" height="24" viewBox="0 0 24 24" fill="none" xmlns="http://www.w3.org/2000/svg">
<path d="M14.6855 11.1357C14.9451 11.0713 15.2174 11.072 15.4775 11.1387L15.626 11.1865C15.7677 11.2406 15.8891 11.3124 15.9951 11.3848C16.1288 11.476 16.2781 11.5963 16.4336 11.7207L18.8623 13.6641L19.2734 14.001C19.3964 14.1092 19.5055 14.2178 19.6006 14.3389L19.7559 14.5605C19.8986 14.7899 20.0034 15.0415 20.0654 15.3057L20.1055 15.5342C20.1339 15.7669 20.1318 16.015 20.1318 16.3037C20.1318 16.4547 20.1293 16.5989 20.1289 16.7363C20.1296 16.7496 20.1318 16.7629 20.1318 16.7764C20.1318 17.4406 20.1362 17.9268 20.0566 18.3398L20.0176 18.5127C19.9899 18.6162 19.9549 18.7172 19.918 18.8164C19.914 18.8275 19.9103 18.8386 19.9062 18.8496C19.8936 18.8824 19.8808 18.915 19.8672 18.9473L19.8613 18.9648C19.8396 19.0157 19.8161 19.0657 19.792 19.1152C19.7833 19.133 19.7736 19.1503 19.7646 19.168C19.7428 19.2109 19.7199 19.2531 19.6963 19.2949C19.6877 19.3102 19.6797 19.3257 19.6709 19.3408C19.602 19.4585 19.5256 19.5709 19.4434 19.6787C19.4374 19.6865 19.4318 19.6944 19.4258 19.7021C19.3935 19.7437 19.3603 19.7843 19.3262 19.8242C19.3121 19.8407 19.2976 19.8568 19.2832 19.873C19.195 19.9723 19.1013 20.0662 19.002 20.1543C18.9924 20.1627 18.9823 20.1704 18.9727 20.1787C18.8191 20.3118 18.6539 20.4314 18.4775 20.5352C18.4646 20.5428 18.4515 20.5502 18.4385 20.5576C18.3869 20.587 18.3345 20.6149 18.2812 20.6416C18.2744 20.6451 18.2677 20.6489 18.2607 20.6523C18.2547 20.6553 18.2492 20.6592 18.2432 20.6621L18.0957 20.7295C18.0919 20.7311 18.0878 20.7318 18.084 20.7334C18.0576 20.7446 18.0306 20.7541 18.0039 20.7646C17.9837 20.7724 17.9637 20.7809 17.9434 20.7881C17.915 20.7986 17.8871 20.8105 17.8584 20.8203L17.6445 20.8857C17.1939 21.0064 16.6672 21 15.9082 21H7.28418C7.07241 21 6.87056 20.9969 6.69824 20.9883C6.49936 20.9827 6.31577 20.9757 6.14648 20.9619C5.72591 20.9276 5.34273 20.8597 4.98438 20.7061L4.83203 20.6348C4.2797 20.3533 3.81749 19.9249 3.49512 19.3994L3.36523 19.168C3.16048 18.766 3.07736 18.3342 3.03809 17.8535C2.99955 17.3816 3 16.7989 3 16.082V8.78711C3 8.06994 2.99952 7.48671 3.03809 7.01465C3.07737 6.53384 3.16041 6.10219 3.36523 5.7002L3.49512 5.46973C3.81749 4.94403 4.27955 4.5159 4.83203 4.23438L4.98438 4.16309C5.3428 4.00935 5.72581 3.94062 6.14648 3.90625C6.61839 3.86771 7.20115 3.86816 7.91797 3.86816H12V5.36816H7.91797C7.17642 5.36816 6.66525 5.36897 6.26855 5.40137C5.97722 5.42517 5.78499 5.46426 5.6416 5.51562L5.5127 5.57031C5.20716 5.72601 4.95168 5.96316 4.77344 6.25391L4.70215 6.38184C4.62312 6.53709 4.56489 6.74902 4.5332 7.13672C4.50078 7.53353 4.5 8.04519 4.5 8.78711V16.082C4.5 16.8236 4.5008 17.3347 4.5332 17.7314C4.56491 18.1195 4.62302 18.332 4.70215 18.4873L4.77344 18.6152C4.95165 18.9057 5.20739 19.1422 5.5127 19.2979L5.5498 19.3135C5.63014 19.1612 5.73253 19.0464 5.79883 18.9746C5.93195 18.8306 6.11696 18.6641 6.3125 18.4863L13.6582 11.8086L13.873 11.6143C13.9427 11.5528 14.0103 11.4961 14.0742 11.4463C14.2093 11.341 14.3707 11.2334 14.5752 11.167L14.6855 11.1357ZM15.0469 12.5918C15.0384 12.5971 15.0222 12.6085 14.9961 12.6289L14.667 12.918L7.42871 19.4971C7.57992 19.4976 7.74249 19.5 7.91797 19.5H15.4355C16.071 19.5 16.5092 19.4996 16.8506 19.4756C17.1778 19.4526 17.3617 19.4099 17.4971 19.3535C17.5469 19.3325 17.5951 19.3083 17.6426 19.2832C17.6566 19.2758 17.6707 19.2685 17.6846 19.2607C17.7275 19.2366 17.7699 19.2119 17.8105 19.1846C17.8212 19.1774 17.8313 19.1695 17.8418 19.1621C17.8752 19.1387 17.9078 19.1144 17.9395 19.0889C18.1346 18.9317 18.2967 18.7362 18.415 18.5127C18.4396 18.4662 18.4627 18.4188 18.4834 18.3701C18.5408 18.2343 18.5842 18.0498 18.6074 17.7188C18.6314 17.3773 18.6318 16.9392 18.6318 16.3037C18.6318 15.9618 18.6285 15.8158 18.6182 15.7256L18.6055 15.6484C18.5808 15.5435 18.5391 15.4436 18.4824 15.3525L18.4209 15.2646C18.3919 15.2278 18.3572 15.1914 18.2852 15.1289L17.9258 14.835L15.4961 12.8916C15.3232 12.7533 15.2252 12.6758 15.1494 12.624C15.1216 12.605 15.1043 12.5955 15.0957 12.5908C15.0794 12.588 15.0629 12.5878 15.0469 12.5918ZM9.5127 9.39453C9.51258 8.84963 9.07129 8.40823 8.52637 8.4082C7.98142 8.4082 7.53917 8.84961 7.53906 9.39453C7.53906 9.93955 7.98135 10.3818 8.52637 10.3818C9.07136 10.3818 9.5127 9.93953 9.5127 9.39453ZM16.8945 3H18.3945V7.15039L20.25 5.29492L21.3105 6.35547L18.1748 9.49121C18.0342 9.63167 17.8433 9.71094 17.6445 9.71094C17.4457 9.71088 17.2549 9.63175 17.1143 9.49121L13.9785 6.35547L15.0391 5.29492L16.8945 7.15039V3ZM11.0127 9.39453C11.0127 10.768 9.89979 11.8818 8.52637 11.8818C7.15292 11.8818 6.03906 10.768 6.03906 9.39453C6.03917 8.02118 7.15299 6.9082 8.52637 6.9082C9.89972 6.90823 11.0126 8.0212 11.0127 9.39453Z" fill="#161616"/>
</svg>
