<svg width="24" height="24" viewBox="0 0 24 24" fill="none" xmlns="http://www.w3.org/2000/svg">
<path d="M14.6855 10.7019C14.9451 10.6375 15.2173 10.6381 15.4775 10.7048L15.626 10.7527C15.7677 10.8068 15.889 10.8785 15.9951 10.9509C16.1288 11.0422 16.2781 11.1625 16.4336 11.2869L18.8623 13.2302L19.2734 13.5662C19.3966 13.6745 19.5054 13.7837 19.6006 13.905L19.7559 14.1267C19.8986 14.3561 20.0034 14.6076 20.0654 14.8718L20.1055 15.1003C20.1339 15.333 20.1318 15.5812 20.1318 15.8699C20.1318 16.0209 20.1293 16.165 20.1289 16.3025C20.1296 16.3157 20.1318 16.3292 20.1318 16.3425C20.1318 17.0067 20.1363 17.4929 20.0566 17.906L20.0176 18.0789C19.9903 18.1807 19.9562 18.28 19.9199 18.3777C19.9154 18.3904 19.9109 18.4031 19.9062 18.4158C19.893 18.4502 19.8796 18.4845 19.8652 18.5183L19.8613 18.53C19.8122 18.6449 19.7563 18.7563 19.6953 18.864C19.6872 18.8784 19.6792 18.8928 19.6709 18.907C19.602 19.0246 19.5256 19.1371 19.4434 19.2449C19.4374 19.2526 19.4318 19.2606 19.4258 19.2683C19.3935 19.3098 19.3603 19.3505 19.3262 19.3904C19.3124 19.4065 19.2983 19.4224 19.2842 19.4382C19.1963 19.5371 19.1028 19.6307 19.0039 19.7185C18.9899 19.7309 18.9751 19.7424 18.9609 19.7546C18.9239 19.7864 18.8861 19.8172 18.8477 19.8474C18.8351 19.8573 18.8232 19.868 18.8105 19.8777C18.7044 19.9586 18.5932 20.0332 18.4775 20.1013C18.4646 20.1089 18.4515 20.1163 18.4385 20.1238C18.3922 20.1502 18.3455 20.1757 18.2979 20.2C18.2855 20.2062 18.2732 20.2124 18.2607 20.2185C18.2547 20.2215 18.2492 20.2253 18.2432 20.2283L18.0957 20.2957C18.0919 20.2973 18.0878 20.298 18.084 20.2996C18.0576 20.3107 18.0306 20.3203 18.0039 20.3308C17.9837 20.3385 17.9637 20.347 17.9434 20.3542C17.915 20.3648 17.8871 20.3767 17.8584 20.3865L17.6445 20.4519C17.1939 20.5726 16.6672 20.5662 15.9082 20.5662H7.28418C7.07241 20.5662 6.87055 20.563 6.69824 20.5544C6.49937 20.5489 6.31576 20.5419 6.14648 20.5281C5.72581 20.4937 5.3428 20.425 4.98438 20.2712L4.83203 20.2C4.27955 19.9184 3.81749 19.4903 3.49512 18.9646L3.36523 18.7341C3.16041 18.3321 3.07737 17.9005 3.03809 17.4197C2.99952 16.9476 3 16.3644 3 15.6472V8.35229C3 7.63547 2.99955 7.05272 3.03809 6.58081C3.07736 6.10008 3.16048 5.6683 3.36523 5.26636L3.49512 5.03491C3.81749 4.50943 4.27969 4.08099 4.83203 3.79956L4.98438 3.72827C5.34273 3.57462 5.72591 3.50677 6.14648 3.47241C6.6184 3.43387 7.20114 3.43433 7.91797 3.43433H12V4.93433H7.91797C7.1764 4.93433 6.66526 4.93513 6.26855 4.96753C5.97738 4.99132 5.78496 5.02949 5.6416 5.08081L5.5127 5.13647C5.20739 5.29208 4.95165 5.52862 4.77344 5.81909L4.70215 5.94702C4.62302 6.10232 4.56491 6.31483 4.5332 6.70288C4.5008 7.09958 4.5 7.61073 4.5 8.35229V15.6472C4.5 16.3891 4.50078 16.9008 4.5332 17.2976C4.56489 17.6853 4.62312 17.8972 4.70215 18.0525L4.77344 18.1804C4.95168 18.4712 5.20716 18.7083 5.5127 18.864L5.55078 18.8796C5.6311 18.7274 5.73256 18.6125 5.79883 18.5408C5.93196 18.3967 6.11689 18.2303 6.3125 18.0525L13.6582 11.3738L13.873 11.1804C13.9428 11.1189 14.0103 11.0613 14.0742 11.0115C14.2092 10.9063 14.371 10.7995 14.5752 10.7332L14.6855 10.7019ZM15.0469 12.158C15.0383 12.1633 15.0222 12.1747 14.9961 12.1951L14.667 12.4841L7.42871 19.0632C7.57992 19.0637 7.74249 19.0662 7.91797 19.0662H15.4355C16.071 19.0662 16.5092 19.0657 16.8506 19.0417C17.1787 19.0187 17.3626 18.9753 17.498 18.9187C17.5475 18.8978 17.5955 18.8743 17.6426 18.8494C17.6566 18.8419 17.6707 18.8347 17.6846 18.8269C17.7275 18.8028 17.7699 18.7781 17.8105 18.7507C17.8196 18.7446 17.8279 18.7375 17.8369 18.7312C17.8744 18.7051 17.9109 18.6779 17.9463 18.6492C18.0448 18.569 18.1347 18.4791 18.2148 18.3806C18.2465 18.3417 18.2772 18.302 18.3057 18.2605C18.3095 18.2549 18.3136 18.2495 18.3174 18.2439C18.3444 18.2036 18.3687 18.1614 18.3926 18.1189C18.4004 18.1051 18.4076 18.091 18.415 18.0769C18.44 18.0298 18.4635 17.9818 18.4844 17.9324C18.541 17.7969 18.5844 17.613 18.6074 17.2849C18.6314 16.9435 18.6318 16.5053 18.6318 15.8699C18.6318 15.5282 18.6285 15.382 18.6182 15.2917L18.6055 15.2146C18.5808 15.1097 18.5391 15.0098 18.4824 14.9187L18.4209 14.8308C18.3919 14.7939 18.3572 14.7576 18.2852 14.6951L17.9258 14.4011L15.4961 12.4578C15.3231 12.3194 15.2252 12.2419 15.1494 12.1902C15.1216 12.1712 15.1044 12.1617 15.0957 12.157C15.0794 12.1541 15.0629 12.154 15.0469 12.158ZM9.5127 8.96069C9.5127 8.41569 9.07136 7.97342 8.52637 7.97339C7.98135 7.97339 7.53906 8.41568 7.53906 8.96069C7.53909 9.50569 7.98137 9.94702 8.52637 9.94702C9.07134 9.94699 9.51267 9.50567 9.5127 8.96069ZM21.3105 4.18433L17.3066 8.18823C17.166 8.32887 16.9753 8.40795 16.7764 8.40796C16.5775 8.40796 16.3867 8.32888 16.2461 8.18823L13.9785 5.92163L15.0391 4.86011L16.7764 6.59741L20.25 3.12378L21.3105 4.18433ZM11.0127 8.96069C11.0127 10.3341 9.89977 11.447 8.52637 11.447C7.15294 11.447 6.03909 10.3341 6.03906 8.96069C6.03906 7.58725 7.15292 6.47339 8.52637 6.47339C9.89979 6.47342 11.0127 7.58727 11.0127 8.96069Z" fill="#161616"/>
</svg>
