<svg width="24" height="24" viewBox="0 0 24 24" fill="none" xmlns="http://www.w3.org/2000/svg">
<path d="M19.5 15.0605L16.1738 11.7344C15.9836 11.5442 15.8723 11.4332 15.7842 11.3584C15.7443 11.3245 15.7209 11.309 15.7109 11.3027C15.6815 11.2946 15.6505 11.2944 15.6211 11.3027C15.64 11.2955 15.6244 11.2951 15.5498 11.3584C15.5057 11.3958 15.4553 11.4421 15.3926 11.5029L15.1602 11.7344L7.39648 19.4961C7.62046 19.4978 7.87018 19.5 8.15039 19.5H15.8496L16.8584 19.4951C17.144 19.4907 17.3844 19.482 17.5947 19.4648C18.0069 19.4312 18.2374 19.3692 18.4082 19.2822L18.5459 19.2051C18.8592 19.0129 19.1145 18.7374 19.2822 18.4082L19.3428 18.2666C19.3985 18.1106 19.4396 17.9037 19.4648 17.5947C19.4992 17.1738 19.5 16.6318 19.5 15.8496V15.0605ZM9.875 8.79199C9.875 8.19379 9.39015 7.70818 8.79199 7.70801C8.19368 7.70801 7.70801 8.19368 7.70801 8.79199C7.70818 9.39015 8.19379 9.875 8.79199 9.875C9.39004 9.87482 9.87482 9.39004 9.875 8.79199ZM19.5 8.15039C19.5 7.36818 19.4992 6.82616 19.4648 6.40527C19.4312 5.99309 19.3692 5.76257 19.2822 5.5918C19.1145 5.26256 18.8592 4.98707 18.5459 4.79492L18.4082 4.71777C18.2374 4.63076 18.0069 4.56883 17.5947 4.53516C17.1738 4.50079 16.6318 4.5 15.8496 4.5H8.15039C7.36818 4.5 6.82616 4.50079 6.40527 4.53516C6.09634 4.5604 5.88939 4.60147 5.7334 4.65723L5.5918 4.71777C5.26256 4.88555 4.98707 5.14085 4.79492 5.4541L4.71777 5.5918C4.63076 5.76257 4.56883 5.99309 4.53516 6.40527C4.50079 6.82616 4.5 7.36818 4.5 8.15039V15.8496C4.5 16.6318 4.50079 17.1738 4.53516 17.5947C4.56883 18.0069 4.63076 18.2374 4.71777 18.4082L4.79492 18.5459C4.98707 18.8592 5.26256 19.1145 5.5918 19.2822C5.59615 19.2844 5.60103 19.2859 5.60547 19.2881C5.67414 19.1547 5.7572 19.0502 5.81641 18.9795C5.9427 18.8286 6.11887 18.6536 6.30469 18.4678L14.0996 10.6738L14.3496 10.4258C14.4296 10.3484 14.5063 10.2766 14.5791 10.2148C14.7314 10.0856 14.9153 9.95467 15.1514 9.87793L15.2783 9.8418C15.5761 9.77046 15.8888 9.78279 16.1816 9.87793C16.418 9.95471 16.6025 10.0855 16.7549 10.2148C16.9006 10.3385 17.0616 10.5011 17.2344 10.6738L19.5 12.9395V8.15039ZM11.375 8.79199C11.3748 10.2185 10.2185 11.3748 8.79199 11.375C7.36537 11.375 6.20818 10.2186 6.20801 8.79199C6.20801 7.36526 7.36526 6.20801 8.79199 6.20801C10.2186 6.20818 11.375 7.36537 11.375 8.79199ZM21 15.8496L20.9951 16.8818C20.9902 17.1917 20.9802 17.4689 20.96 17.7168C20.9187 18.2217 20.8309 18.6714 20.6182 19.0889C20.2826 19.7474 19.7474 20.2826 19.0889 20.6182C18.6714 20.8309 18.2217 20.9187 17.7168 20.96C17.4689 20.9802 17.1917 20.9902 16.8818 20.9951L15.8496 21H7.35352C7.09078 21 6.84243 21.0008 6.64648 20.9834C6.6368 20.9825 6.62677 20.9805 6.61621 20.9795C6.49974 20.9742 6.3888 20.9686 6.2832 20.96C5.77825 20.9187 5.32861 20.8309 4.91113 20.6182C4.25262 20.2826 3.71738 19.7474 3.38184 19.0889C3.16912 18.6714 3.0813 18.2217 3.04004 17.7168C2.99954 17.2207 3 16.6071 3 15.8496V8.15039C3 7.39293 2.99954 6.77932 3.04004 6.2832C3.0813 5.77825 3.16912 5.32861 3.38184 4.91113C3.71738 4.25262 4.25262 3.71738 4.91113 3.38184C5.32861 3.16912 5.77825 3.0813 6.2832 3.04004C6.77932 2.99954 7.39293 3 8.15039 3H15.8496C16.6071 3 17.2207 2.99954 17.7168 3.04004C18.2217 3.0813 18.6714 3.16912 19.0889 3.38184C19.7474 3.71738 20.2826 4.25262 20.6182 4.91113C20.8309 5.32861 20.9187 5.77825 20.96 6.2832C21.0005 6.77932 21 7.39293 21 8.15039V15.8496Z" fill="#161616"/>
</svg>
