<svg width="24" height="24" viewBox="0 0 24 24" fill="none" xmlns="http://www.w3.org/2000/svg">
<path d="M21.7501 18.5627V20.0627H2.25012V18.5627H21.7501ZM2.63684 8.53145C2.87524 8.39945 3.16648 8.40753 3.39758 8.55196L7.89758 11.3645C8.11688 11.5015 8.25012 11.7416 8.25012 12.0002C8.25006 12.2587 8.11682 12.4989 7.89758 12.6359L3.39758 15.4484C3.16645 15.5927 2.87519 15.6001 2.63684 15.468C2.39863 15.3358 2.25021 15.0851 2.25012 14.8127V9.1877C2.2501 8.91505 2.39838 8.66363 2.63684 8.53145ZM21.7501 13.6877V15.1877H11.2501V13.6877H21.7501ZM3.75012 13.4582L6.08508 11.9992L3.75012 10.5402V13.4582ZM21.7501 8.8127V10.3127H11.2501V8.8127H21.7501ZM21.7501 3.9377V5.4377H2.25012V3.9377H21.7501Z" fill="#161616"/>
</svg>
