<svg width="24" height="24" viewBox="0 0 24 24" fill="none" xmlns="http://www.w3.org/2000/svg">
<path d="M17.8076 16.394C17.742 16.3668 17.6793 16.3304 17.6221 16.2837L17.5645 16.2319L14.377 13.0444L8.41699 18.6538H15.7812C16.9004 18.6538 17.8076 17.7466 17.8076 16.6274V16.394ZM8.55273 8.76123C8.55273 8.40886 8.26737 8.12274 7.91504 8.12256C7.56255 8.12256 7.27637 8.40874 7.27637 8.76123C7.27655 9.11356 7.56267 9.39893 7.91504 9.39893C8.26725 9.39874 8.55255 9.11345 8.55273 8.76123ZM21 6.62256V8.12256H14.2646V6.62256H21ZM19.3076 16.6274C19.3076 18.5751 17.7289 20.1538 15.7812 20.1538H6.52637C4.5788 20.1538 3 18.575 3 16.6274V7.37256C3.00005 5.42502 4.57883 3.84624 6.52637 3.84619H12.542V5.34619H6.52637C5.40726 5.34624 4.50005 6.25345 4.5 7.37256V16.6274C4.5 17.653 5.26231 18.4977 6.25098 18.6323L13.8789 11.4536L13.9971 11.3628C14.2872 11.1821 14.6731 11.2195 14.9238 11.4702L17.8076 14.354V12.0005H19.3076V16.6274ZM10.0527 8.76123C10.0525 9.94187 9.09568 10.8987 7.91504 10.8989C6.73424 10.8989 5.77655 9.94199 5.77637 8.76123C5.77637 7.58032 6.73413 6.62256 7.91504 6.62256C9.0958 6.62274 10.0527 7.58043 10.0527 8.76123Z" fill="#161616"/>
</svg>
