<svg width="24" height="24" viewBox="0 0 24 24" fill="none" xmlns="http://www.w3.org/2000/svg">
<path d="M14.5576 10.6328C14.8251 10.4376 15.1892 10.4406 15.4531 10.6406L21.4424 15.1836L20.5361 16.3789L14.9912 12.1729L4.83106 19.5889L3.94629 18.3779L14.5576 10.6328Z" fill="#161616"/>
<path d="M20.5 8L22 8V16H20.5V8ZM18 5.5L6 5.5C5.27539 5.5 4.82206 5.50141 4.48047 5.5293C4.15635 5.55578 4.06659 5.59883 4.0459 5.60938C3.85793 5.70522 3.70521 5.85793 3.60937 6.0459C3.59883 6.06659 3.55578 6.15635 3.5293 6.48047C3.50141 6.82207 3.5 7.27539 3.5 8L3.5 16C3.5 16.7246 3.50141 17.1779 3.5293 17.5195C3.55578 17.8437 3.59883 17.9334 3.60938 17.9541C3.70522 18.1421 3.85793 18.2948 4.0459 18.3906C4.06659 18.4012 4.15635 18.4442 4.48047 18.4707C4.82206 18.4986 5.27539 18.5 6 18.5L18 18.5C18.7246 18.5 19.1779 18.4986 19.5195 18.4707C19.8437 18.4442 19.9334 18.4012 19.9541 18.3906C20.1421 18.2948 20.2948 18.1421 20.3906 17.9541C20.4012 17.9334 20.4442 17.8436 20.4707 17.5195C20.4986 17.1779 20.5 16.7246 20.5 16H22C22 17.2252 22 17.9144 21.8174 18.4258L21.7275 18.6348C21.4879 19.1052 21.1052 19.4879 20.6348 19.7275C20.2336 19.9319 19.7395 19.9833 18.9268 19.9961L18 20H6C4.77477 20 4.08563 20 3.57422 19.8174L3.36523 19.7275C2.95378 19.5179 2.60933 19.199 2.36914 18.8076L2.27246 18.6348C2.00007 18.1 2 17.4 2 16L2 8L2.00391 7.07324C2.01667 6.26046 2.06814 5.76636 2.27246 5.36524C2.51214 4.89483 2.89483 4.51214 3.36523 4.27246C3.89999 4.00007 4.60002 4 6 4L18 4C19.4 4 20.1 4.00007 20.6348 4.27246L20.8076 4.36914C21.199 4.60933 21.5179 4.95378 21.7275 5.36523L21.8174 5.57422C22 6.08563 22 6.77477 22 8L20.5 8C20.5 7.27539 20.4986 6.82206 20.4707 6.48047C20.4442 6.15635 20.4012 6.06659 20.3906 6.0459C20.2948 5.85793 20.1421 5.70521 19.9541 5.60937C19.9334 5.59883 19.8437 5.55578 19.5195 5.5293C19.1779 5.50141 18.7246 5.5 18 5.5Z" fill="#161616"/>
<path d="M8.50684 9.49109C8.50684 8.94623 8.06531 8.50404 7.52051 8.50379C6.97549 8.50379 6.5332 8.94607 6.5332 9.49109C6.53345 10.0359 6.97564 10.4774 7.52051 10.4774C8.06516 10.4772 8.50659 10.0357 8.50684 9.49109ZM10.0068 9.49109C10.0066 10.8642 8.89359 11.9772 7.52051 11.9774C6.14722 11.9774 5.03345 10.8643 5.0332 9.49109C5.0332 8.11765 6.14706 7.00379 7.52051 7.00379C8.89374 7.00404 10.0068 8.1178 10.0068 9.49109Z" fill="#161616"/>
</svg>
