<svg width="24" height="24" viewBox="0 0 24 24" fill="none" xmlns="http://www.w3.org/2000/svg">
<path d="M18.5293 16.582C18.4553 16.5541 18.3842 16.516 18.3203 16.4639L18.2637 16.4131L14.8955 13.0439L8.55273 19.0146H16.3672C17.5611 19.0146 18.5293 18.0464 18.5293 16.8525V16.582ZM8.82324 8.60254C8.82299 8.2129 8.50688 7.89746 8.11719 7.89746C7.7277 7.89771 7.41236 8.21306 7.41211 8.60254C7.41211 8.99223 7.72755 9.30835 8.11719 9.30859C8.50704 9.30859 8.82324 8.99239 8.82324 8.60254ZM21.3105 4.23535L19.3691 6.17578L21.3105 8.11816L20.25 9.17871L18.3086 7.2373L16.8984 8.64844L16.3672 9.17871L15.3066 8.11816L17.2471 6.17578L15.3066 4.23535L16.3672 3.1748L18.3086 5.11523L20.25 3.1748L21.3105 4.23535ZM20.0293 16.8525C20.0293 18.8749 18.3895 20.5146 16.3672 20.5146H6.66211C4.63977 20.5146 3 18.8749 3 16.8525V7.14746C3 5.12512 4.63977 3.48535 6.66211 3.48535H12.9707V4.98535H6.66211C5.4682 4.98535 4.5 5.95355 4.5 7.14746V16.8525C4.5 17.9525 5.3218 18.859 6.38477 18.9951L14.3975 11.4541L14.5156 11.3633C14.8058 11.1824 15.1915 11.2189 15.4424 11.4697L18.5293 14.5566V11.0293H20.0293V16.8525ZM10.3232 8.60254C10.3232 9.82081 9.33546 10.8086 8.11719 10.8086C6.89912 10.8083 5.91211 9.82066 5.91211 8.60254C5.91236 7.38463 6.89928 6.39771 8.11719 6.39746C9.33531 6.39746 10.323 7.38447 10.3232 8.60254Z" fill="#161616"/>
</svg>
