<svg width="24" height="24" viewBox="0 0 24 24" fill="none" xmlns="http://www.w3.org/2000/svg">
<path d="M2.57129 5.4375L2.57129 3.9375L22.0713 3.9375L22.0713 5.4375L2.57129 5.4375ZM16.4463 13.6875C16.4463 13.8946 16.6142 14.0625 16.8213 14.0625L20.1963 14.0625C20.4034 14.0625 20.5713 13.8946 20.5713 13.6875L20.5713 10.3125C20.5713 10.1054 20.4034 9.9375 20.1963 9.9375L16.8213 9.9375C16.6142 9.9375 16.4463 10.1054 16.4463 10.3125L16.4463 13.6875ZM2.57129 10.3125L2.57129 8.8125L11.9463 8.8125L11.9463 10.3125L2.57129 10.3125ZM2.57129 15.1875L2.57129 13.6875L11.9463 13.6875L11.9463 15.1875L2.57129 15.1875ZM2.57129 20.0625L2.57129 18.5625L22.0713 18.5625L22.0713 20.0625L2.57129 20.0625ZM14.9463 10.3125C14.9463 9.27697 15.7858 8.4375 16.8213 8.4375L20.1963 8.4375C21.2318 8.4375 22.0713 9.27697 22.0713 10.3125L22.0713 13.6875C22.0713 14.723 21.2318 15.5625 20.1963 15.5625L16.8213 15.5625C15.7858 15.5625 14.9463 14.723 14.9463 13.6875L14.9463 10.3125Z" fill="#161616"/>
</svg>
