<svg width="24" height="24" viewBox="0 0 24 24" fill="none" xmlns="http://www.w3.org/2000/svg">
<path d="M19.5 17.3496C19.4152 17.3216 19.3331 17.2817 19.2607 17.2227L19.2041 17.1709L15.5928 13.5596L8.73438 20.0156H17.1562C18.4507 20.0156 19.5 18.9663 19.5 17.6719V17.3496ZM9.1875 8.90625C9.1875 8.46615 8.83073 8.10938 8.39062 8.10938C7.95052 8.10938 7.59375 8.46615 7.59375 8.90625C7.59375 9.34635 7.95052 9.70312 8.39062 9.70312C8.83073 9.70312 9.1875 9.34635 9.1875 8.90625ZM18.9375 9.58496V11.0137H17.4375V9.58496H18.9375ZM17.4375 7.26953C17.4376 6.85544 17.7734 6.51953 18.1875 6.51953C18.8818 6.51953 19.4277 6.00723 19.4932 5.37891L19.5 5.25195C19.4999 4.56731 18.9279 3.98438 18.1875 3.98438C17.4471 3.98438 16.8751 4.56731 16.875 5.25195V6.00195H15.375V5.25195C15.3751 3.70801 16.6499 2.48438 18.1875 2.48438C19.7251 2.48438 20.9999 3.70801 21 5.25195L20.9854 5.53809C20.8657 6.69138 20.0292 7.61838 18.9375 7.91602V8.94043H17.4375V7.26953ZM21 17.6719C21 19.7947 19.2791 21.5156 17.1562 21.5156H6.84375C4.72091 21.5156 3 19.7947 3 17.6719V7.35938C3 5.23653 4.72091 3.51562 6.84375 3.51562H12.5156V5.01562H6.84375C5.54933 5.01562 4.5 6.06496 4.5 7.35938V17.6719C4.5 18.872 5.40233 19.8593 6.56543 19.9971L15.0957 11.9697L15.2129 11.8789C15.5031 11.6978 15.8887 11.7344 16.1396 11.9854L19.5 15.3457V12H21V17.6719ZM10.6875 8.90625C10.6875 10.1748 9.65915 11.2031 8.39062 11.2031C7.1221 11.2031 6.09375 10.1748 6.09375 8.90625C6.09375 7.63772 7.1221 6.60938 8.39062 6.60938C9.65915 6.60938 10.6875 7.63772 10.6875 8.90625Z" fill="#161616"/>
</svg>
