<svg width="24" height="24" viewBox="0 0 24 24" fill="none" xmlns="http://www.w3.org/2000/svg">
<path d="M7.24951 17.0055L7.24951 16.2555C7.0506 16.2555 6.85983 16.3345 6.71918 16.4751C6.57853 16.6158 6.49951 16.8065 6.49951 17.0055H7.24951ZM16.7569 7.5V6.75H16.0069V7.5H16.7569ZM20.2495 9.9375H19.4995V18.0625H20.2495H20.9995V9.9375H20.2495ZM17.812 20.5V19.75H9.68701V20.5V21.25H17.812V20.5ZM7.24951 18.0625H7.99951V17.0055H7.24951H6.49951V18.0625H7.24951ZM9.68701 20.5V19.75C8.75503 19.75 7.99951 18.9945 7.99951 18.0625H7.24951H6.49951C6.49951 19.8229 7.9266 21.25 9.68701 21.25V20.5ZM20.2495 18.0625H19.4995C19.4995 18.9945 18.744 19.75 17.812 19.75V20.5V21.25C19.5724 21.25 20.9995 19.8229 20.9995 18.0625H20.2495ZM17.812 7.5V8.25C18.744 8.25 19.4995 9.00552 19.4995 9.9375H20.2495H20.9995C20.9995 8.17709 19.5724 6.75 17.812 6.75V7.5ZM16.7569 7.5V8.25H17.812V7.5V6.75H16.7569V7.5ZM16.7569 7.5H16.0069V14.0055H16.7569H17.5069V7.5H16.7569ZM13.7569 17.0055V16.2555L7.24951 16.2555L7.24951 17.0055L7.24951 17.7555L13.7569 17.7555V17.0055ZM16.7569 14.0055H16.0069C16.0069 15.2481 14.9995 16.2555 13.7569 16.2555V17.0055V17.7555C15.8279 17.7555 17.5069 16.0765 17.5069 14.0055H16.7569Z" fill="#161616"/>
<rect x="3.75098" y="4" width="13" height="13" rx="3" stroke="#161616" stroke-width="1.5"/>
<path d="M7.58154 14V12.9902L10.3315 10.3369C11.1157 9.55273 11.5239 9.09082 11.5239 8.43555C11.5239 7.71582 10.9546 7.25391 10.1919 7.25391C9.38623 7.25391 8.87061 7.75879 8.88135 8.54297H7.54932C7.53857 7.07129 8.64502 6.11523 10.2026 6.11523C11.7925 6.11523 12.8667 7.06055 12.8667 8.37109C12.8667 9.25195 12.437 9.96094 10.9116 11.4004L9.52588 12.7754V12.8291H12.9849V14H7.58154Z" fill="#161616"/>
</svg>
