<svg width="24" height="24" viewBox="0 0 24 24" fill="none" xmlns="http://www.w3.org/2000/svg">
<path d="M22.0713 18.5625V20.0625H2.57129V18.5625H22.0713ZM8.19629 10.3125C8.19629 10.1054 8.0284 9.9375 7.82129 9.9375H4.44629C4.23918 9.9375 4.07129 10.1054 4.07129 10.3125V13.6875C4.07129 13.8946 4.23918 14.0625 4.44629 14.0625H7.82129C8.0284 14.0625 8.19629 13.8946 8.19629 13.6875V10.3125ZM22.0713 13.6875V15.1875H12.6963V13.6875H22.0713ZM22.0713 8.8125V10.3125H12.6963V8.8125H22.0713ZM22.0713 3.9375V5.4375H2.57129V3.9375H22.0713ZM9.69629 13.6875C9.69629 14.723 8.85682 15.5625 7.82129 15.5625H4.44629C3.41076 15.5625 2.57129 14.723 2.57129 13.6875V10.3125C2.57129 9.27697 3.41076 8.4375 4.44629 8.4375H7.82129C8.85682 8.4375 9.69629 9.27697 9.69629 10.3125V13.6875Z" fill="#161616"/>
</svg>
