<svg width="24" height="24" viewBox="0 0 24 24" fill="none" xmlns="http://www.w3.org/2000/svg">
<path d="M14.9614 11.1412C15.1518 11.0957 15.3502 11.0956 15.5405 11.1412L15.6343 11.1676L15.7671 11.2203C15.8899 11.2787 15.9864 11.3521 16.0601 11.4147L16.3384 11.6803L16.3667 11.7106L19.5972 15.3248L19.646 15.3844C19.8692 15.6918 19.8277 16.1246 19.5386 16.3834C19.2297 16.6595 18.755 16.6327 18.479 16.3239L15.2612 12.7242C15.2576 12.7206 15.254 12.717 15.2505 12.7135C15.2419 12.7221 15.2335 12.7315 15.2241 12.7408L7.15771 21.3219C6.874 21.6237 6.39896 21.6378 6.09717 21.3541C5.79565 21.0705 5.78061 20.5963 6.06396 20.2946L14.147 11.6969C14.1522 11.6913 14.1581 11.6857 14.1636 11.6803C14.2523 11.5915 14.3503 11.4924 14.4419 11.4147C14.5402 11.3312 14.6789 11.2286 14.8667 11.1676L14.9614 11.1412Z" fill="#161616"/>
<path d="M16 20.5V22H8V20.5H16ZM18.5 18V6C18.5 5.27539 18.4986 4.82206 18.4707 4.48047C18.4442 4.15635 18.4012 4.06659 18.3906 4.0459C18.2948 3.85793 18.1421 3.70521 17.9541 3.60938C17.9334 3.59883 17.8436 3.55578 17.5195 3.5293C17.1779 3.50141 16.7246 3.5 16 3.5H8C7.27539 3.5 6.82206 3.50141 6.48047 3.5293C6.15635 3.55578 6.06659 3.59883 6.0459 3.60938C5.85793 3.70521 5.70521 3.85793 5.60938 4.0459C5.59883 4.06659 5.55578 4.15635 5.5293 4.48047C5.50141 4.82206 5.5 5.27539 5.5 6V18C5.5 18.7246 5.50141 19.1779 5.5293 19.5195C5.55578 19.8437 5.59883 19.9334 5.60938 19.9541C5.70521 20.1421 5.85793 20.2948 6.0459 20.3906C6.06659 20.4012 6.15635 20.4442 6.48047 20.4707C6.82206 20.4986 7.27539 20.5 8 20.5V22C6.77477 22 6.08563 22 5.57422 21.8174L5.36523 21.7275C4.89483 21.4879 4.51214 21.1052 4.27246 20.6348C4.06814 20.2336 4.01667 19.7395 4.00391 18.9268L4 18V6C4 4.77477 4.00002 4.08563 4.18262 3.57422L4.27246 3.36523C4.48211 2.95378 4.80096 2.60933 5.19238 2.36914L5.36523 2.27246C5.89999 2.00007 6.60002 2 8 2H16L16.9268 2.00391C17.7395 2.01667 18.2336 2.06814 18.6348 2.27246C19.1052 2.51214 19.4879 2.89483 19.7275 3.36523C19.9999 3.89999 20 4.60002 20 6V18C20 19.4 19.9999 20.1 19.7275 20.6348L19.6309 20.8076C19.3907 21.199 19.0462 21.5179 18.6348 21.7275L18.4258 21.8174C17.9144 22 17.2252 22 16 22V20.5C16.7246 20.5 17.1779 20.4986 17.5195 20.4707C17.8436 20.4442 17.9334 20.4012 17.9541 20.3906C18.1421 20.2948 18.2948 20.1421 18.3906 19.9541C18.4012 19.9334 18.4442 19.8437 18.4707 19.5195C18.4986 19.1779 18.5 18.7246 18.5 18Z" fill="#161616"/>
<path d="M9.84668 9.37097C9.84668 8.82611 9.40516 8.38392 8.86035 8.38367C8.31533 8.38367 7.87305 8.82595 7.87305 9.37097C7.8733 9.91578 8.31549 10.3573 8.86035 10.3573C9.405 10.357 9.84643 9.91562 9.84668 9.37097ZM11.3467 9.37097C11.3464 10.7441 10.2334 11.857 8.86035 11.8573C7.48706 11.8573 6.3733 10.7442 6.37305 9.37097C6.37305 7.99753 7.48691 6.88367 8.86035 6.88367C10.2336 6.88392 11.3467 7.99768 11.3467 9.37097Z" fill="#161616"/>
</svg>
