<svg width="24" height="24" viewBox="0 0 24 24" fill="none" xmlns="http://www.w3.org/2000/svg">
<path d="M3.2628 7.45512C4.25702 4.1524 7.77034 2.28394 11.0997 3.25785C14.4154 4.22781 16.3275 7.65909 15.3683 10.9502L15.3077 11.2754L20.7765 16.667C20.9194 16.808 21.0001 17.0004 21.0001 17.2012V20.25C21.0001 20.6643 20.6643 21 20.2501 21H17.1573C16.9603 21 16.7713 20.9225 16.631 20.7842L11.2003 15.4307C9.97664 15.746 8.65048 15.5319 7.5167 15.2002C4.18342 14.225 2.26752 10.7622 3.2628 7.45512ZM10.6788 4.6973C8.12409 3.94995 5.45137 5.38909 4.69932 7.88676C3.94881 10.3799 5.38726 13.0145 7.9376 13.7608C9.1257 14.1083 10.2569 14.2211 11.1349 13.8809L11.2394 13.8487C11.4862 13.7925 11.7479 13.8649 11.9317 14.0459L17.4649 19.5H19.5001V17.5147L13.9718 12.0655C13.7948 11.891 13.7159 11.64 13.7608 11.3955L13.8976 10.6514C13.9025 10.6244 13.9092 10.5976 13.9171 10.5713C14.6676 8.0781 13.2293 5.44348 10.6788 4.6973ZM9.52647 8.67191C9.94061 8.672 10.2765 9.00775 10.2765 9.42191C10.2763 9.83597 9.94053 10.1718 9.52647 10.1719H9.42198C9.00794 10.1718 8.6721 9.83595 8.67198 9.42191C8.67198 9.00777 9.00786 8.67202 9.42198 8.67191H9.52647Z" fill="#161616"/>
</svg>
