<svg width="24" height="24" viewBox="0 0 24 24" fill="none" xmlns="http://www.w3.org/2000/svg">
<path d="M16.9175 5.46875C16.9175 5.02319 16.9164 4.73828 16.897 4.52246C16.8786 4.31819 16.8476 4.24557 16.8276 4.20996C16.7466 4.06568 16.6099 3.93446 16.4243 3.84863C16.3591 3.81848 16.2499 3.78653 16.0073 3.76855C15.7581 3.75011 15.4336 3.75 14.9468 3.75H9.05127C8.56389 3.75 8.23913 3.75007 7.98975 3.76855C7.74741 3.78653 7.63896 3.8185 7.57373 3.84863C7.38807 3.93446 7.2505 4.06562 7.16943 4.20996C7.14947 4.24566 7.11943 4.31864 7.10107 4.52246C7.08164 4.73828 7.08057 5.02317 7.08057 5.46875V15.6162C7.08057 16.0614 7.08168 16.3458 7.10107 16.5615C7.11951 16.7662 7.14947 16.8395 7.16943 16.875C7.2505 17.0193 7.3881 17.1495 7.57373 17.2354C7.63894 17.2655 7.7473 17.2974 7.98975 17.3154C8.23913 17.3339 8.56389 17.334 9.05127 17.334H14.9468C15.4337 17.334 15.7581 17.3339 16.0073 17.3154C16.2499 17.2975 16.3591 17.2655 16.4243 17.2354C16.6097 17.1496 16.7466 17.0191 16.8276 16.875C16.8476 16.8395 16.8785 16.7662 16.897 16.5615C16.9164 16.3458 16.9175 16.0614 16.9175 15.6162V5.46875ZM18.4175 15.6162C18.4175 16.0344 18.418 16.3977 18.3911 16.6963C18.3632 17.0061 18.3006 17.3149 18.1353 17.6094C17.8903 18.0455 17.5074 18.3867 17.0532 18.5967C16.7547 18.7347 16.4432 18.7875 16.1187 18.8115C15.801 18.8351 15.4115 18.834 14.9468 18.834H12.7485V20.25H15.3931V21.75H8.62842V20.25H11.2485V18.834H9.05127C8.58655 18.834 8.19703 18.835 7.8794 18.8115C7.55493 18.7875 7.24327 18.7346 6.94482 18.5967C6.49056 18.3867 6.10681 18.0456 5.86182 17.6094C5.69644 17.3149 5.63484 17.0061 5.60693 16.6963C5.58006 16.3977 5.58057 16.0344 5.58057 15.6162V5.46875C5.58057 5.05037 5.58004 4.68637 5.60693 4.3877C5.63484 4.0779 5.69646 3.76903 5.86182 3.47461C6.10682 3.03852 6.49066 2.69725 6.94482 2.4873C7.24323 2.34945 7.55498 2.29748 7.8794 2.27344C8.19704 2.24991 8.58653 2.25 9.05127 2.25H14.9468C15.4115 2.25 15.801 2.24989 16.1187 2.27344C16.4432 2.2975 16.7547 2.34934 17.0532 2.4873C17.5073 2.69721 17.8902 3.03864 18.1353 3.47461C18.3006 3.76904 18.3632 4.07789 18.3911 4.3877C18.418 4.68637 18.4175 5.05037 18.4175 5.46875V15.6162Z" fill="#161616"/>
<path d="M11.2454 9.7915H12.7454V14.6909H11.2454V9.7915ZM12.7542 6.39111V7.89111H11.2454V6.39111H12.7542Z" fill="#161616"/>
</svg>
