<svg width="24" height="24" viewBox="0 0 24 24" fill="none" xmlns="http://www.w3.org/2000/svg">
<path d="M20.8506 8.40039C20.8506 7.48912 20.1115 6.75 19.2002 6.75H4.80078C3.88951 6.75 3.15039 7.48912 3.15039 8.40039V15.5996C3.15039 16.5109 3.88951 17.25 4.80078 17.25H19.2002C20.1115 17.25 20.8506 16.5109 20.8506 15.5996V8.40039ZM8.42871 13.0498C8.84277 13.0499 9.17861 13.3857 9.17871 13.7998C9.17871 14.214 8.84283 14.5497 8.42871 14.5498H8.40039C7.98618 14.5498 7.65039 14.214 7.65039 13.7998C7.6505 13.3857 7.98624 13.0498 8.40039 13.0498H8.42871ZM12.0283 13.0498C12.4425 13.0498 12.7782 13.3857 12.7783 13.7998C12.7783 14.214 12.4425 14.5498 12.0283 14.5498H12C11.586 14.5496 11.25 14.2139 11.25 13.7998C11.2501 13.3858 11.586 13.05 12 13.0498H12.0283ZM15.6289 13.0498C16.0429 13.05 16.3788 13.3858 16.3789 13.7998C16.3789 14.2139 16.0429 14.5496 15.6289 14.5498H15.6006C15.1864 14.5498 14.8506 14.214 14.8506 13.7998C14.8507 13.3857 15.1864 13.0498 15.6006 13.0498H15.6289ZM6.62891 9.4502C7.04294 9.45041 7.37891 9.78611 7.37891 10.2002C7.3788 10.6142 7.04288 10.95 6.62891 10.9502H6.60059C6.18644 10.9502 5.85069 10.6143 5.85059 10.2002C5.85059 9.78598 6.18637 9.4502 6.60059 9.4502H6.62891ZM10.2285 9.4502L10.3057 9.4541C10.6836 9.49273 10.9785 9.81204 10.9785 10.2002C10.9784 10.5883 10.6836 10.9077 10.3057 10.9463L10.2285 10.9502H10.2002C9.78614 10.9501 9.4503 10.6143 9.4502 10.2002C9.4502 9.78605 9.78607 9.4503 10.2002 9.4502H10.2285ZM13.8281 9.4502L13.9053 9.4541C14.2834 9.49255 14.5781 9.8119 14.5781 10.2002C14.578 10.5884 14.2834 10.9079 13.9053 10.9463L13.8281 10.9502H13.8008C13.3866 10.9502 13.0509 10.6143 13.0508 10.2002C13.0508 9.78598 13.3866 9.4502 13.8008 9.4502H13.8281ZM17.4004 9.4502L17.4775 9.4541C17.8555 9.49273 18.1504 9.81204 18.1504 10.2002C18.1503 10.5883 17.8555 10.9077 17.4775 10.9463L17.4004 10.9502H17.3721C16.958 10.9501 16.6222 10.6143 16.6221 10.2002C16.6221 9.78605 16.9579 9.4503 17.3721 9.4502H17.4004ZM22.3506 15.5996C22.3506 17.3393 20.9399 18.75 19.2002 18.75H4.80078C3.06108 18.75 1.65039 17.3393 1.65039 15.5996V8.40039C1.65039 6.66069 3.06108 5.25 4.80078 5.25H19.2002C20.9399 5.25 22.3506 6.66069 22.3506 8.40039V15.5996Z" fill="#161616"/>
</svg>
