<svg width="24" height="24" viewBox="0 0 24 24" fill="none" xmlns="http://www.w3.org/2000/svg">
<path fill-rule="evenodd" clip-rule="evenodd" d="M12 6.08863L4.67705 9.75011L7.82865 11.3259C7.83353 11.3283 7.83838 11.3307 7.8432 11.3332L12 13.4116L16.1568 11.3332C16.1616 11.3307 16.1665 11.3283 16.1713 11.3259L19.3229 9.75011L12 6.08863ZM18.1771 12.0001L21.3354 10.4209C21.5895 10.2939 21.75 10.0342 21.75 9.75011C21.75 9.46603 21.5895 9.20633 21.3354 9.07929L12.6574 4.74028C12.65 4.7366 12.6419 4.73247 12.6331 4.72798C12.5469 4.68418 12.393 4.60602 12.2213 4.5738C12.075 4.54636 11.925 4.54636 11.7787 4.5738C11.607 4.60602 11.4531 4.68418 11.3669 4.72798C11.3581 4.73247 11.35 4.7366 11.3426 4.74028L2.66459 9.07929C2.4105 9.20633 2.25 9.46603 2.25 9.75011C2.25 10.0342 2.4105 10.2939 2.66459 10.4209L5.82295 12.0001L2.66459 13.5793C2.4105 13.7063 2.25 13.966 2.25 14.2501C2.25 14.5342 2.4105 14.7939 2.66459 14.9209L11.3426 19.2599C11.35 19.2636 11.3581 19.2677 11.3669 19.2722C11.4531 19.316 11.607 19.3942 11.7787 19.4264C11.925 19.4539 12.075 19.4539 12.2213 19.4264C12.393 19.3942 12.5469 19.316 12.6331 19.2722C12.6419 19.2677 12.65 19.2636 12.6574 19.2599L21.3354 14.9209C21.5895 14.7939 21.75 14.5342 21.75 14.2501C21.75 13.966 21.5895 13.7063 21.3354 13.5793L18.1771 12.0001ZM16.5 12.8386L12.6574 14.7599C12.65 14.7636 12.6419 14.7677 12.6331 14.7722C12.5469 14.816 12.393 14.8942 12.2213 14.9264C12.075 14.9539 11.925 14.9539 11.7787 14.9264C11.607 14.8942 11.4531 14.816 11.3669 14.7722C11.3581 14.7677 11.35 14.7636 11.3426 14.7599L7.5 12.8386L4.67705 14.2501L12 17.9116L19.3229 14.2501L16.5 12.8386Z" fill="#161616"/>
</svg>
