<svg width="24" height="24" viewBox="0 0 24 24" fill="none" xmlns="http://www.w3.org/2000/svg">
<path d="M15.375 10.6338L10.9648 14.7578C10.6766 15.0272 10.2287 15.0273 9.94043 14.7578L8.10645 13.043L4.5 16.6504V18.1875C4.5 18.9124 5.08763 19.5 5.8125 19.5H18.1875C18.9124 19.5 19.5 18.9124 19.5 18.1875V5.8125C19.5 5.08763 18.9124 4.5 18.1875 4.5H5.8125C5.08763 4.5 4.5 5.08763 4.5 5.8125V14.5293L7.55957 11.4697L7.67383 11.376C7.95768 11.1865 8.34297 11.2105 8.60156 11.4521L10.4521 13.1826L14.2246 9.65625H11.3643V8.15625H16.125C16.5392 8.15625 16.875 8.49204 16.875 8.90625V13.4062H15.375V10.6338ZM21 18.1875C21 19.7408 19.7408 21 18.1875 21H5.8125C4.2592 21 3 19.7408 3 18.1875V5.8125C3 4.2592 4.2592 3 5.8125 3H18.1875C19.7408 3 21 4.2592 21 5.8125V18.1875Z" fill="#161616"/>
</svg>
