<svg width="24" height="24" viewBox="0 0 24 24" fill="none" xmlns="http://www.w3.org/2000/svg">
<path d="M17.0937 6.80762C18.4684 6.80774 19.7697 7.3707 20.7343 8.34961C21.6959 9.32549 22.2457 10.6361 22.2489 12.0166C22.2711 13.4275 21.7182 14.7479 20.7528 15.7275C19.78 16.7146 18.4564 17.2499 17.0937 17.25H15.1708V15.75H17.0937C18.0651 15.7499 19.0005 15.3679 19.6845 14.6738C20.3761 13.9719 20.7655 13.0368 20.7499 12.04L20.7489 12.0283C20.7488 11.0442 20.3584 10.1051 19.6659 9.40234C18.9737 8.69984 18.0534 8.30774 17.0937 8.30762H13.2177V6.80762H17.0937ZM8.82901 6.75V8.25H6.90615C5.93469 8.2501 4.9993 8.63208 4.31533 9.32617C3.6237 10.0281 3.23427 10.9632 3.2499 11.96C3.25002 11.9677 3.25003 11.9757 3.2499 11.9834C3.23431 12.98 3.62383 13.9154 4.31533 14.6172C5.02467 15.3369 5.92547 15.7119 6.8876 15.7119H10.7636V17.2119H6.8876C5.5152 17.2119 4.23212 16.6695 3.24697 15.6699C2.28186 14.6905 1.72881 13.3708 1.75088 11.96C1.73512 10.5577 2.28687 9.24678 3.24697 8.27246C4.21985 7.28541 5.54336 6.7501 6.90615 6.75H8.82901ZM12.2749 11.25V12.75H8.0126V11.25H12.2749Z" fill="#161616"/>
<path d="M19.0087 20.105L18.4081 20.5552L17.8075 21.0045L4.99111 3.8941L6.19229 2.99567L19.0087 20.105Z" fill="#161616"/>
<path d="M13.0279 12.75H8.0126V11.25H11.9048L13.0279 12.75Z" fill="#161616"/>
<path d="M15.9878 12.75H14.9029L13.7789 11.25H15.9878V12.75Z" fill="#161616"/>
</svg>
