<svg width="24" height="24" viewBox="0 0 24 24" fill="none" xmlns="http://www.w3.org/2000/svg">
<path d="M17.4152 6.80762L17.672 6.81348C18.9513 6.87901 20.1515 7.43188 21.0558 8.34961L21.2316 8.53711C22.0841 9.49019 22.5675 10.7226 22.5705 12.0166L22.5685 12.2803C22.5256 13.5039 22.05 14.6456 21.2511 15.5391L21.0744 15.7275C20.1015 16.7146 18.778 17.2499 17.4152 17.25H13.5392V15.75H17.4152C18.3867 15.7499 19.322 15.3679 20.006 14.6738L20.132 14.54C20.7447 13.8553 21.0861 12.9746 21.0714 12.04L21.0705 12.0283L21.0666 11.8447C21.0241 10.989 20.6861 10.1773 20.1134 9.53711L19.9875 9.40234C19.3383 8.74356 18.4886 8.35712 17.5939 8.31152L17.4152 8.30762H13.5392V6.80762H17.4152ZM11.1037 6.75V8.25H7.22769C6.31696 8.25009 5.43765 8.58541 4.76773 9.19922L4.63687 9.32617C3.94523 10.0281 3.55581 10.9632 3.57144 11.96C3.57155 11.9677 3.57156 11.9757 3.57144 11.9834C3.55585 12.98 3.94537 13.9154 4.63687 14.6172L4.77163 14.748C5.45864 15.3824 6.30703 15.7119 7.20913 15.7119H11.0851V17.2119H7.20913C5.92226 17.2119 4.71383 16.7351 3.75601 15.8516L3.56851 15.6699C2.60339 14.6905 2.05035 13.3708 2.07241 11.96C2.05665 10.5577 2.6084 9.24678 3.56851 8.27246L3.75503 8.09277C4.70705 7.22065 5.95007 6.75009 7.22769 6.75H11.1037Z" fill="#161616"/>
</svg>
