<svg width="24" height="24" viewBox="0 0 24 24" fill="none" xmlns="http://www.w3.org/2000/svg">
<path d="M17.4375 10.8213C17.4374 10.3601 17.0661 10 16.6406 10H7.35938C6.93394 10 6.56258 10.3601 6.5625 10.8213V18.6787C6.56257 19.1399 6.93394 19.5 7.35938 19.5H16.6406C17.0661 19.5 17.4374 19.1399 17.4375 18.6787V10.8213ZM11.25 12.7969H12.75V16.3594H11.25V12.7969ZM15.8906 8.46387C15.8904 6.25553 14.1453 4.5 12 4.5C9.85468 4.5 8.1096 6.25553 8.10938 8.46387V8.5H15.8906V8.46387ZM17.3906 8.62891C18.2939 8.94572 18.9374 9.81552 18.9375 10.8213V18.6787C18.9374 19.946 17.9167 21 16.6406 21H7.35938C6.08334 21 5.06257 19.946 5.0625 18.6787V10.8213C5.06256 9.81552 5.70612 8.94572 6.60938 8.62891V8.46387C6.6096 5.44946 9.00408 3 12 3C14.9959 3 17.3904 5.44946 17.3906 8.46387V8.62891Z" fill="#161616"/>
</svg>
