<svg width="24" height="24" viewBox="0 0 24 24" fill="none" xmlns="http://www.w3.org/2000/svg">
<path fill-rule="evenodd" clip-rule="evenodd" d="M12 3.83851L4.67705 7.49998L7.82865 9.07579C7.83353 9.07816 7.83838 9.08058 7.8432 9.08306L12 11.1615L16.1568 9.08306C16.1616 9.08058 16.1665 9.07816 16.1713 9.07579L19.3229 7.49998L12 3.83851ZM18.1771 9.74998L21.3354 8.17081C21.5895 8.04376 21.75 7.78406 21.75 7.49999C21.75 7.21591 21.5895 6.95621 21.3354 6.82916L12.6574 2.49016C12.65 2.48648 12.6419 2.48235 12.6331 2.47785C12.5469 2.43405 12.393 2.3559 12.2213 2.32368C12.075 2.29624 11.925 2.29624 11.7787 2.32368C11.607 2.3559 11.4531 2.43406 11.3669 2.47786C11.3581 2.48235 11.35 2.48648 11.3426 2.49016L2.66459 6.82916C2.4105 6.95621 2.25 7.21591 2.25 7.49999C2.25 7.78406 2.4105 8.04376 2.66459 8.17081L5.82295 9.74999L2.66459 11.3292C2.4105 11.4562 2.25 11.7159 2.25 12C2.25 12.2841 2.4105 12.5438 2.66459 12.6708L5.82295 14.25L2.66459 15.8292C2.4105 15.9562 2.25 16.2159 2.25 16.5C2.25 16.7841 2.4105 17.0438 2.66459 17.1708L11.3426 21.5098C11.35 21.5135 11.3581 21.5176 11.3669 21.5221C11.4532 21.5659 11.607 21.6441 11.7787 21.6763C11.925 21.7037 12.075 21.7037 12.2213 21.6763C12.393 21.6441 12.5468 21.5659 12.6331 21.5221C12.6419 21.5176 12.65 21.5135 12.6574 21.5098L21.3354 17.1708C21.5895 17.0438 21.75 16.7841 21.75 16.5C21.75 16.2159 21.5895 15.9562 21.3354 15.8292L18.1771 14.25L21.3354 12.6708C21.5895 12.5438 21.75 12.2841 21.75 12C21.75 11.7159 21.5895 11.4562 21.3354 11.3292L18.1771 9.74998ZM16.5 10.5885L12.6574 12.5098C12.65 12.5135 12.6419 12.5176 12.6331 12.5221C12.5469 12.5659 12.393 12.6441 12.2213 12.6763C12.075 12.7037 11.925 12.7037 11.7787 12.6763C11.607 12.6441 11.4531 12.5659 11.3669 12.5221C11.3581 12.5176 11.35 12.5135 11.3426 12.5098L7.5 10.5885L4.67705 12L7.82867 13.5758C7.83353 13.5782 7.83837 13.5806 7.84318 13.5831L12 15.6615L16.1568 13.5831C16.1616 13.5806 16.1665 13.5782 16.1713 13.5758L19.3229 12L16.5 10.5885ZM16.5 15.0885L12.6574 17.0098C12.65 17.0135 12.6419 17.0176 12.6331 17.0221C12.5469 17.0659 12.393 17.1441 12.2213 17.1763C12.075 17.2037 11.925 17.2037 11.7787 17.1763C11.607 17.1441 11.4531 17.0659 11.3669 17.0221C11.3581 17.0176 11.35 17.0135 11.3426 17.0098L7.5 15.0885L4.67705 16.5L12 20.1615L19.3229 16.5L16.5 15.0885Z" fill="#161616"/>
</svg>
