<svg width="24" height="24" viewBox="0 0 24 24" fill="none" xmlns="http://www.w3.org/2000/svg">
<path d="M12.75 16.8857V21H11.25V16.8857H12.75ZM9.0752 15.9854L6.16602 18.8945L5.10547 17.834L8.01465 14.9248L9.0752 15.9854ZM18.8945 17.833L17.834 18.8945L14.9248 15.9854L15.9854 14.9238L18.8945 17.833ZM7.11426 11.25V12.75H3V11.25H7.11426ZM21 11.25V12.75H16.8857V11.25H21ZM18.8945 6.16699L15.9854 9.07617L14.9248 8.01465L17.834 5.10547L18.8945 6.16699ZM9.0752 8.01465L8.01465 9.0752L5.10547 6.16602L6.16602 5.10547L9.0752 8.01465ZM12.75 3V7.11426H11.25V3H12.75Z" fill="#161616"/>
</svg>
