<svg width="24" height="24" viewBox="0 0 24 24" fill="none" xmlns="http://www.w3.org/2000/svg">
<path d="M2.75 18.5V2.75H4.25V18.5C4.25 19.1904 4.80964 19.75 5.5 19.75H21.249V21.25H5.5C3.98122 21.25 2.75 20.0188 2.75 18.5ZM20.5 5.9375C20.9142 5.9375 21.25 6.27329 21.25 6.6875V11.1953H19.75V8.49707L14.6553 13.5928C14.5146 13.7334 14.3229 13.8125 14.124 13.8125C13.9749 13.8124 13.8303 13.7681 13.708 13.6865L13.5938 13.5928L11.4678 11.4668L8.28027 14.6553L7.21973 13.5947L10.9385 9.87598L11.0527 9.78223C11.175 9.70083 11.3197 9.65625 11.4688 9.65625C11.6675 9.65635 11.8585 9.7354 11.999 9.87598L14.124 12.001L18.6885 7.4375H15.9922V5.9375H20.5Z" fill="#161616"/>
</svg>
