<svg width="24" height="24" viewBox="0 0 24 24" fill="none" xmlns="http://www.w3.org/2000/svg">
<path d="M2.75 18.5V2.75H4.25V18.5C4.25 19.1904 4.80964 19.75 5.5 19.75H21.25V21.25H5.5C3.98122 21.25 2.75 20.0188 2.75 18.5ZM11.4688 9.3457L13.5947 7.21973L13.708 7.12598C13.8304 7.04427 13.9757 7 14.125 7C14.3238 7.00011 14.5147 7.07916 14.6553 7.21973L19.75 12.3145V9.61719H21.25V14.125C21.25 14.5392 20.9142 14.875 20.5 14.875H15.9922V13.375H18.6885L14.124 8.81055L11.999 10.9365C11.8584 11.0771 11.6676 11.1562 11.4688 11.1562C11.2699 11.1562 11.0791 11.0771 10.9385 10.9365L7.21973 7.21777L8.28027 6.15723L11.4688 9.3457Z" fill="#161616"/>
</svg>
