<svg width="24" height="24" viewBox="0 0 24 24" fill="none" xmlns="http://www.w3.org/2000/svg">
<path d="M18.7832 20.6787L15.833 20.6787L15.833 19.1787L18.7832 19.1787C19.0522 19.1787 19.209 19.1783 19.3242 19.1689C19.3744 19.1648 19.4019 19.1599 19.4141 19.1572C19.4408 19.1423 19.4624 19.1204 19.4775 19.0937C19.4802 19.0821 19.486 19.0547 19.4902 19.0029C19.4996 18.8877 19.5 18.7309 19.5 18.4619L19.5 4.8955C19.5 4.62653 19.4996 4.4697 19.4902 4.35448C19.4861 4.30402 19.4802 4.27674 19.4775 4.26464C19.4625 4.2378 19.4409 4.21618 19.4141 4.20116C19.402 4.19847 19.3747 4.19259 19.3242 4.18847C19.209 4.17906 19.0522 4.1787 18.7832 4.1787L15.833 4.1787L15.833 2.6787L18.7832 2.6787C19.0274 2.6787 19.2558 2.6778 19.4463 2.69335C19.5957 2.70555 19.7585 2.73017 19.9238 2.78905L20.0898 2.86034C20.3641 3.00011 20.5938 3.21268 20.7539 3.47362L20.8184 3.58886C20.9311 3.81021 20.9691 4.03321 20.9854 4.23241C21.0009 4.42285 21 4.65127 21 4.8955L21 18.4619C21 18.7061 21.0009 18.9346 20.9854 19.125C20.9731 19.2744 20.9485 19.4372 20.8896 19.6025L20.8184 19.7685C20.6586 20.0821 20.4034 20.3373 20.0898 20.4971C19.8685 20.6098 19.6455 20.6478 19.4463 20.6641C19.2558 20.6796 19.0274 20.6787 18.7832 20.6787ZM3 12.4287L3 10.9287L14.7725 10.9287L10.0225 6.1787L11.083 5.11815L17.1133 11.1484C17.4062 11.4413 17.4062 11.9161 17.1133 12.209L11.083 18.2392L10.0225 17.1787L14.7725 12.4287L3 12.4287Z" fill="#161616"/>
</svg>
