<svg width="24" height="24" viewBox="0 0 24 24" fill="none" xmlns="http://www.w3.org/2000/svg">
<path d="M17.4375 10.8213C17.4374 10.3601 17.0661 10 16.6406 10H7.35938C6.93394 10 6.56258 10.3601 6.5625 10.8213V18.6787C6.56258 19.1399 6.93394 19.5 7.35938 19.5H16.6406C17.0661 19.5 17.4374 19.1399 17.4375 18.6787V10.8213ZM11.25 12.7969H12.75V16.3594H11.25V12.7969ZM18.9375 18.6787C18.9374 19.946 17.9167 21 16.6406 21H7.35938C6.08334 21 5.06258 19.946 5.0625 18.6787V10.8213C5.06256 9.87419 5.63238 9.04542 6.45312 8.6875C6.43098 8.61671 6.41602 8.54195 6.41602 8.46387C6.41624 5.44946 8.81072 3 11.8066 3C13.5541 3 15.1008 3.83618 16.083 5.13086L16.2715 5.39551L16.6885 6.01953L15.4414 6.85254L15.0254 6.22949L14.8877 6.03711C14.1756 5.09827 13.0617 4.5 11.8066 4.5C9.66132 4.5 7.91624 6.25553 7.91602 8.46387C7.91602 8.47586 7.91462 8.48815 7.91406 8.5H16.6406C17.9167 8.5 18.9374 9.55403 18.9375 10.8213V18.6787Z" fill="#161616"/>
</svg>
