<svg width="24" height="24" viewBox="0 0 24 24" fill="none" xmlns="http://www.w3.org/2000/svg">
<path d="M19.5 5.8125C19.5 5.08763 18.9124 4.5 18.1875 4.5H5.8125C5.08763 4.5 4.5 5.08763 4.5 5.8125V7.34961L8.10645 10.9561L9.94043 9.24219L10.0557 9.1543C10.3384 8.97739 10.7126 9.00644 10.9648 9.24219L15.375 13.3652V10.5938H16.875V15.0938C16.875 15.508 16.5392 15.8438 16.125 15.8438H11.3643V14.3438H14.2246L10.4521 10.8164L8.60156 12.5479C8.34297 12.7895 7.95768 12.8135 7.67383 12.624L7.55957 12.5303L4.5 9.4707V18.1875C4.5 18.9124 5.08763 19.5 5.8125 19.5H18.1875C18.9124 19.5 19.5 18.9124 19.5 18.1875V5.8125ZM21 18.1875C21 19.7408 19.7408 21 18.1875 21H5.8125C4.2592 21 3 19.7408 3 18.1875V5.8125C3 4.2592 4.2592 3 5.8125 3H18.1875C19.7408 3 21 4.2592 21 5.8125V18.1875Z" fill="#161616"/>
</svg>
