<svg width="24" height="24" viewBox="0 0 24 24" fill="none" xmlns="http://www.w3.org/2000/svg">
<path d="M12.7657 2.03067C12.9849 1.84273 13.2973 1.79492 13.5665 1.91837C13.8741 2.05955 14.0488 2.38922 13.9933 2.72305L12.8859 9.36954H20.1466C20.433 9.36954 20.6945 9.5332 20.8204 9.79044C20.9462 10.0477 20.9151 10.3544 20.7394 10.5805L11.9659 21.8608C11.7622 22.1227 11.4099 22.2197 11.1007 22.099C10.7916 21.9783 10.5985 21.668 10.6261 21.3373L11.1857 14.6303H3.85363C3.56262 14.6303 3.29836 14.4612 3.17492 14.1977C3.0516 13.9342 3.0912 13.6233 3.27746 13.3998L12.6779 2.11954L12.7657 2.03067ZM5.45422 13.1303H12.0001C12.2099 13.1303 12.4099 13.2181 12.5519 13.3725C12.6938 13.5267 12.7654 13.733 12.7482 13.9418L12.3302 18.9467L18.6134 10.8695H12.0001C11.7797 10.8695 11.5703 10.7731 11.4279 10.6049C11.2854 10.4367 11.2246 10.2139 11.2609 9.99649L12.0587 5.20548L5.45422 13.1303Z" fill="#161616"/>
</svg>
