<svg width="24" height="24" viewBox="0 0 24 24" fill="none" xmlns="http://www.w3.org/2000/svg">
<path d="M11.5303 11.4697C11.8232 11.7626 11.8232 12.2374 11.5303 12.5303L8.53027 15.5303L7.46973 14.4697L9.93945 12L7.46973 9.53027L8.53027 8.46973L11.5303 11.4697Z" fill="#161616"/>
<path fill-rule="evenodd" clip-rule="evenodd" d="M19 3C20.1046 3 21 3.89543 21 5V19C21 20.0357 20.2128 20.887 19.2041 20.9893L19 21H5L4.7959 20.9893C3.85435 20.8938 3.1062 20.1457 3.01074 19.2041L3 19V5C3 3.89543 3.89543 3 5 3H19ZM5 4.5C4.72386 4.5 4.5 4.72386 4.5 5V19C4.5 19.2761 4.72386 19.5 5 19.5H14.5029V4.5H5ZM16.0029 19.5H19C19.2761 19.5 19.5 19.2761 19.5 19V5C19.5 4.72386 19.2761 4.5 19 4.5H16.0029V19.5Z" fill="#161616"/>
</svg>
