<svg width="24" height="24" viewBox="0 0 24 24" fill="none" xmlns="http://www.w3.org/2000/svg">
<path d="M16.5303 9.53027L14.0605 12L16.5303 14.4697L15.4697 15.5303L12.4697 12.5303C12.1768 12.2374 12.1768 11.7626 12.4697 11.4697L15.4697 8.46973L16.5303 9.53027Z" fill="#161616"/>
<path fill-rule="evenodd" clip-rule="evenodd" d="M19 3C20.1046 3 21 3.89543 21 5V19C21 20.0357 20.2128 20.887 19.2041 20.9893L19 21H5L4.7959 20.9893C3.85435 20.8938 3.1062 20.1457 3.01074 19.2041L3 19V5C3 3.89543 3.89543 3 5 3H19ZM5 4.5C4.72386 4.5 4.5 4.72386 4.5 5V19C4.5 19.2761 4.72386 19.5 5 19.5H7.99707V4.5H5ZM9.49707 19.5H19C19.2761 19.5 19.5 19.2761 19.5 19V5C19.5 4.72386 19.2761 4.5 19 4.5H9.49707V19.5Z" fill="#161616"/>
</svg>
