<svg width="24" height="24" viewBox="0 0 24 24" fill="none" xmlns="http://www.w3.org/2000/svg">
<path d="M18.153 5.96045C18.153 5.89812 18.1021 5.84717 18.0398 5.84717H5.95968C5.89735 5.84717 5.8464 5.89812 5.8464 5.96045V14.2085H18.153V5.96045ZM3.77413 17.9722C3.75565 17.9968 3.75073 18.0157 3.74972 18.0298C3.74853 18.0469 3.7525 18.0685 3.76339 18.0903C3.77425 18.1121 3.78908 18.1278 3.80343 18.1372C3.81532 18.1449 3.83312 18.1528 3.86398 18.1528H20.1355C20.1663 18.1528 20.1841 18.1449 20.196 18.1372C20.2104 18.1278 20.2252 18.1121 20.236 18.0903C20.2469 18.0685 20.2509 18.0469 20.2497 18.0298C20.2492 18.0228 20.2473 18.0148 20.2439 18.0054L20.2253 17.9722L18.5271 15.7085H5.47238L3.77413 17.9722ZM19.653 14.7085L21.4255 17.0728L21.4958 17.1733C22.175 18.229 21.4229 19.6527 20.1355 19.6528H3.86398C2.53509 19.6527 1.77676 18.136 2.57394 17.0728L4.3464 14.7085V5.96045C4.3464 5.06969 5.06892 4.34717 5.95968 4.34717H18.0398C18.9305 4.34717 19.653 5.06969 19.653 5.96045V14.7085Z" fill="#161616"/>
</svg>
