<svg width="24" height="24" viewBox="0 0 24 24" fill="none" xmlns="http://www.w3.org/2000/svg">
<path d="M14.1621 16.3909C14.1619 16.2693 14.0629 16.1713 13.9414 16.1711H10.0586C9.937 16.1712 9.83814 16.2693 9.83789 16.3909V19.5237H14.1621V16.3909ZM14.1621 4.52368H9.83789V8.62622C9.83789 9.82013 10.8061 10.7883 12 10.7883C13.1939 10.7883 14.1621 9.82011 14.1621 8.62622V4.52368ZM15.6621 19.5237H18.7939C18.9158 19.5237 19.0146 19.4248 19.0146 19.303V12.0891C18.6411 12.2176 18.2404 12.2883 17.8232 12.2883C16.6355 12.2883 15.5801 11.7225 14.9111 10.8459C14.2421 11.7222 13.1876 12.2883 12 12.2883C10.8122 12.2883 9.75692 11.7225 9.08789 10.8459C8.41892 11.7222 7.36429 12.2882 6.17676 12.2883C5.75965 12.2883 5.35886 12.2176 4.98535 12.0891V19.303C4.98535 19.4248 5.08423 19.5237 5.20605 19.5237H8.33789V16.3909C8.33814 15.4409 9.10857 14.6712 10.0586 14.6711H13.9414C14.8914 14.6713 15.6619 15.4409 15.6621 16.3909V19.5237ZM15.6621 8.62622C15.6621 9.82005 16.6294 10.7882 17.8232 10.7883C19.0172 10.7883 19.9854 9.82013 19.9854 8.62622V5.71509C19.9854 5.05722 19.4518 4.52368 18.7939 4.52368H15.6621V8.62622ZM4.01465 8.62622C4.01465 9.82013 4.98285 10.7883 6.17676 10.7883C7.37051 10.7881 8.33789 9.82002 8.33789 8.62622V4.52368H5.20605C4.54819 4.52368 4.01465 5.05722 4.01465 5.71509V8.62622ZM21.4854 8.62622C21.4854 9.58417 21.1168 10.4561 20.5146 11.1086V19.303C20.5146 20.2532 19.7442 21.0237 18.7939 21.0237H5.20605C4.2558 21.0237 3.48535 20.2532 3.48535 19.303V11.1086C2.88317 10.4561 2.51465 9.5842 2.51465 8.62622V5.71509C2.51465 4.22879 3.71976 3.02368 5.20605 3.02368H18.7939C20.2802 3.02368 21.4854 4.22879 21.4854 5.71509V8.62622Z" fill="#161616"/>
</svg>
