<svg width="24" height="24" viewBox="0 0 24 24" fill="none" xmlns="http://www.w3.org/2000/svg">
<path d="M11.8476 2.41809C12.1422 2.17778 12.5769 2.19524 12.8515 2.46984L16.5351 6.15344L15.4746 7.21398L13.0712 4.81066V11.2501H19.5107L17.1074 8.8468L18.1679 7.78625L21.8515 11.4698C21.9922 11.6105 22.0712 11.8012 22.0712 12.0001C22.0712 12.199 21.9922 12.3897 21.8515 12.5304L18.1679 16.214L17.1074 15.1534L19.5107 12.7501H13.0712V19.1896L15.4746 16.7863L16.5351 17.8468L12.8515 21.5304C12.7109 21.671 12.5201 21.7501 12.3212 21.7501C12.1223 21.7501 11.9316 21.671 11.791 21.5304L8.10737 17.8468L9.16791 16.7863L11.5712 19.1896V12.7501H5.13178L7.5351 15.1534L6.47455 16.214L2.79096 12.5304C2.49807 12.2375 2.49807 11.7627 2.79096 11.4698L6.47455 7.78625L7.5351 8.8468L5.13178 11.2501H11.5712V4.81066L9.16791 7.21398L8.10737 6.15344L11.791 2.46984L11.8476 2.41809Z" fill="#161616"/>
</svg>
