<svg width="24" height="24" viewBox="0 0 24 24" fill="none" xmlns="http://www.w3.org/2000/svg">
<path fill-rule="evenodd" clip-rule="evenodd" d="M9.26274 2.96969C9.48343 3.19039 9.54438 3.52469 9.41577 3.80907C8.95395 4.83027 8.69648 5.96434 8.69648 7.16058C8.69648 11.6578 12.3422 15.3035 16.8394 15.3035C18.0357 15.3035 19.1698 15.0461 20.191 14.5842C20.4753 14.4556 20.8096 14.5166 21.0303 14.7373C21.251 14.958 21.312 15.2923 21.1834 15.5767C19.671 18.9207 16.3048 21.25 12.393 21.25C7.0673 21.25 2.75 16.9327 2.75 11.6071C2.75 7.6952 5.07928 4.32898 8.42336 2.81665C8.70774 2.68805 9.04204 2.749 9.26274 2.96969ZM7.40182 5.1724C5.48335 6.66268 4.25 8.99134 4.25 11.6071C4.25 16.1043 7.89573 19.75 12.393 19.75C15.0087 19.75 17.3373 18.5167 18.8276 16.5982C18.1857 16.7328 17.5206 16.8035 16.8394 16.8035C11.5138 16.8035 7.19648 12.4862 7.19648 7.16058C7.19648 6.47942 7.26722 5.81432 7.40182 5.1724Z" fill="#161616"/>
</svg>
