<svg width="24" height="24" viewBox="0 0 24 24" fill="none" xmlns="http://www.w3.org/2000/svg">
<path d="M20.627 5.74536L17.124 9.45532L14.8643 7.44165L15.8623 6.32153L17.0342 7.36548L19.5371 4.71606L20.627 5.74536Z" fill="#161616"/>
<path d="M14.1621 16.3909C14.1619 16.2693 14.0629 16.1713 13.9414 16.1711H10.0586C9.937 16.1712 9.83814 16.2693 9.83789 16.3909V19.5237H14.1621V16.3909ZM15.6621 19.5237H18.7939C18.9158 19.5237 19.0146 19.4248 19.0146 19.303V13.5344H20.5146V19.303C20.5146 20.2532 19.7442 21.0237 18.7939 21.0237H5.20605C4.2558 21.0237 3.48535 20.2532 3.48535 19.303V11.1086C2.88317 10.4561 2.51465 9.5842 2.51465 8.62622V5.71509C2.51465 4.22879 3.71976 3.02368 5.20605 3.02368H10.9629V4.52368H9.83789V8.62622C9.83789 9.45958 10.3098 10.1848 11.0039 10.5461C11.3012 10.7008 11.6393 10.7883 12 10.7883V12.2883C11.3925 12.2883 10.8176 12.1396 10.3115 11.8762C9.83155 11.6264 9.41507 11.2716 9.08887 10.844C8.41996 11.7212 7.36506 12.2882 6.17676 12.2883C5.75965 12.2883 5.35886 12.2176 4.98535 12.0891V19.303C4.98535 19.4248 5.08423 19.5237 5.20605 19.5237H8.33789V16.3909C8.33814 15.4409 9.10857 14.6712 10.0586 14.6711H13.9414C14.8914 14.6713 15.6619 15.4409 15.6621 16.3909V19.5237ZM4.01465 8.62622C4.01465 9.82013 4.98285 10.7883 6.17676 10.7883C7.37051 10.7881 8.33789 9.82002 8.33789 8.62622V4.52368H5.20605C4.54819 4.52368 4.01465 5.05722 4.01465 5.71509V8.62622Z" fill="#161616"/>
<path d="M21.98 7.00708C21.98 4.64967 20.0721 2.74048 17.7222 2.74048C15.3724 2.74066 13.4653 4.64978 13.4653 7.00708C13.4656 9.36418 15.3726 11.2725 17.7222 11.2727C20.0719 11.2727 21.9798 9.36429 21.98 7.00708ZM23.48 7.00708C23.4798 10.1902 20.9029 12.7727 17.7222 12.7727C14.5416 12.7725 11.9656 10.1901 11.9653 7.00708C11.9653 3.82389 14.5415 1.24066 17.7222 1.24048C20.903 1.24048 23.48 3.82378 23.48 7.00708Z" fill="#161616"/>
</svg>
