<svg width="24" height="24" viewBox="0 0 24 24" fill="none" xmlns="http://www.w3.org/2000/svg">
<path d="M19.8213 10.5439C19.8212 7.20601 17.1153 4.50009 13.7773 4.5C10.4393 4.5 7.73349 7.20595 7.7334 10.5439C7.7334 13.882 10.4393 16.5879 13.7773 16.5879C17.1153 16.5878 19.8213 13.882 19.8213 10.5439ZM21.3213 10.5439C21.3213 14.7104 17.9438 18.0878 13.7773 18.0879C11.9639 18.0879 10.3001 17.448 8.99902 16.3818L7.55762 17.8232L9.98535 20.25L8.92383 21.3105L6.49707 18.8838L4.07129 21.3105L3.01074 20.25L5.43652 17.8232L3.01074 15.3975L4.07129 14.3359L6.49707 16.7627L7.93848 15.3213C6.8728 14.0203 6.2334 12.3569 6.2334 10.5439C6.23349 6.37752 9.6109 3 13.7773 3C17.9437 3.00009 21.3212 6.37758 21.3213 10.5439Z" fill="#161616"/>
</svg>
