<svg width="24" height="24" viewBox="0 0 24 24" fill="none" xmlns="http://www.w3.org/2000/svg">
<path d="M8.9873 6.34071C8.9873 5.52266 9.5536 4.81379 10.3516 4.63368L20.835 2.26844C21.0573 2.21828 21.2907 2.27163 21.4687 2.41395C21.6467 2.55628 21.75 2.77205 21.75 2.99989V16.6356L21.7353 16.9677C21.6695 17.7377 21.3773 18.4742 20.8916 19.0868C20.3369 19.7864 19.5623 20.2848 18.6914 20.5106C17.8206 20.7364 16.8965 20.6782 16.0625 20.3436C15.2284 20.009 14.5269 19.4149 14.0703 18.6493C13.6134 17.883 13.4289 16.9887 13.5488 16.1073C13.6688 15.2263 14.0855 14.4123 14.7285 13.7899C15.3712 13.1679 16.2046 12.7719 17.0977 12.6581C17.9691 12.5471 18.8539 12.712 19.624 13.1268L19.7393 13.1854C19.859 13.2526 19.9872 13.3418 20.1006 13.4247C20.1486 13.4598 20.1984 13.4981 20.25 13.538V3.93739L10.6816 6.09657C10.5677 6.12234 10.4873 6.22389 10.4873 6.34071V17.7401C10.487 18.6292 10.183 19.4903 9.62792 20.1903C9.07311 20.89 8.29876 21.3893 7.42773 21.6151C6.55696 21.8408 5.63375 21.7817 4.7998 21.4472C3.96553 21.1125 3.26324 20.5186 2.80664 19.7528C2.3499 18.9866 2.16621 18.093 2.28613 17.2118C2.40604 16.3308 2.82199 15.5168 3.46484 14.8944C4.10749 14.2723 4.94086 13.8754 5.83398 13.7616C6.72701 13.6478 7.63563 13.8228 8.41894 14.2606H8.41796C8.55294 14.3298 8.70613 14.432 8.83789 14.5282C8.88606 14.5634 8.93557 14.6025 8.9873 14.6425V6.34071ZM20.25 15.6141C20.1419 15.4607 19.9373 15.2377 19.6641 14.997C19.5051 14.857 19.3466 14.7312 19.2158 14.6356C19.0833 14.5389 19.015 14.4996 19.0078 14.495C18.9882 14.4862 18.969 14.4762 18.9502 14.4657C18.4493 14.1858 17.8642 14.0719 17.2871 14.1454C16.71 14.2189 16.1775 14.475 15.7715 14.8681C15.366 15.2606 15.1089 15.7684 15.0352 16.3104C14.9615 16.8522 15.0741 17.4039 15.3584 17.8807C15.6431 18.3582 16.0855 18.7362 16.6211 18.9511C17.157 19.1661 17.7528 19.204 18.3144 19.0585C18.8759 18.9129 19.3676 18.5933 19.7158 18.1542C20.0635 17.7157 20.2498 17.1819 20.25 16.6356V15.6141ZM7.68652 15.5692C7.18563 15.2893 6.60055 15.1764 6.02343 15.2499C5.44656 15.3234 4.91469 15.5788 4.50878 15.9716C4.10324 16.3641 3.84628 16.8719 3.77246 17.414C3.6987 17.9559 3.81127 18.5082 4.0957 18.9852C4.38042 19.4626 4.82284 19.8407 5.35839 20.0556C5.8943 20.2705 6.49018 20.3085 7.05175 20.163C7.61311 20.0174 8.10499 19.6977 8.45312 19.2587C8.80073 18.8202 8.98703 18.2863 8.9873 17.7401V16.7186C8.87939 16.5652 8.67473 16.3423 8.40136 16.1015C8.24252 15.9615 8.08387 15.8357 7.95312 15.7401C7.80519 15.6321 7.73736 15.595 7.74511 15.5985C7.72535 15.5896 7.70544 15.5798 7.68652 15.5692Z" fill="#161616"/>
</svg>
