<svg width="24" height="24" viewBox="0 0 24 24" fill="none" xmlns="http://www.w3.org/2000/svg">
<path d="M2.24268 12.5361C2.2429 7.89668 5.53778 4.02809 9.91455 3.13965L10.6489 2.99121L10.9478 4.46094L10.2124 4.61035C6.52106 5.35978 3.7429 8.6242 3.74268 12.5361C3.74268 17.0032 7.36444 20.625 11.8315 20.625C15.7435 20.6248 19.0079 17.8466 19.7573 14.1553L19.9067 13.4199L21.3765 13.7188L21.228 14.4531C20.3396 18.8299 16.471 22.1248 11.8315 22.125C6.53602 22.125 2.24268 17.8317 2.24268 12.5361Z" fill="#161616"/>
<path d="M17.6753 17.8413L17.0659 17.9321C16.7599 17.9777 16.4538 18.0005 16.1499 18.0024L16.1401 16.5024C16.3738 16.501 16.6095 16.4838 16.8452 16.4487L17.4546 16.3579L17.6753 17.8413ZM13.4565 15.7378C13.8563 15.9889 14.2897 16.1825 14.7437 16.312L14.3325 17.7544C13.742 17.586 13.1777 17.335 12.6577 17.0083L13.4565 15.7378ZM19.5024 17.5688L18.8931 17.6597L18.6724 16.1763L19.2817 16.0854L19.5024 17.5688ZM11.3804 13.5259C11.586 13.7565 11.7771 14.0036 11.9507 14.2661C12.082 14.4647 12.2254 14.652 12.3804 14.8266L11.2593 15.8227C11.0575 15.5953 10.8694 15.3514 10.6987 15.0933C10.565 14.8911 10.4183 14.7011 10.2603 14.5239L11.3804 13.5259ZM8.23975 11.5845C8.84262 11.7484 9.41924 11.9982 9.95068 12.3266L9.16162 13.603C8.75296 13.3505 8.30977 13.1578 7.84619 13.0317L8.04346 12.3081L8.23975 11.5845ZM3.76514 13.2554L3.11768 13.3647L2.86768 11.8852L3.51514 11.7759L3.76514 13.2554ZM6.42334 12.8579C6.18581 12.8635 5.94664 12.8868 5.70752 12.9272L5.06006 13.0366L4.81006 11.5571L5.45752 11.4477C5.76807 11.3953 6.07903 11.3661 6.38818 11.3589L6.42334 12.8579Z" fill="#161616"/>
<path d="M20.2573 6.65723C20.2571 4.88344 18.7234 3.3751 16.7427 3.375C14.7618 3.375 13.2283 4.88338 13.228 6.65723C13.228 7.2978 13.5698 8.10569 14.1499 8.97656C14.7151 9.825 15.4381 10.6335 16.0513 11.2549C16.4403 11.649 17.0441 11.649 17.4331 11.2549C18.0464 10.6335 18.7702 9.82517 19.3354 8.97656C19.9155 8.1057 20.2573 7.2978 20.2573 6.65723ZM21.7573 6.65723C21.7573 7.75342 21.2082 8.87071 20.5835 9.80859C19.9441 10.7684 19.148 11.6534 18.5015 12.3086C17.5251 13.2979 15.9602 13.2979 14.9839 12.3086C14.3372 11.6533 13.5404 10.7686 12.9009 9.80859C12.2761 8.87071 11.728 7.75342 11.728 6.65723C11.7283 3.9771 14.0135 1.875 16.7427 1.875C19.4718 1.8751 21.7571 3.97717 21.7573 6.65723Z" fill="#161616"/>
<path d="M17.2271 6.60645C17.2271 6.33883 17.0102 6.12136 16.7427 6.12109C16.4749 6.12109 16.2573 6.33866 16.2573 6.60645C16.2576 6.874 16.4751 7.09082 16.7427 7.09082V8.59082L16.5396 8.58105C15.6051 8.48632 14.8618 7.74303 14.7671 6.80859L14.7573 6.60645C14.7573 5.51024 15.6465 4.62109 16.7427 4.62109L16.9448 4.63086C17.9459 4.73234 18.7271 5.57863 18.7271 6.60645L18.7173 6.80859C18.6158 7.80948 17.7703 8.59057 16.7427 8.59082V7.09082C17.0101 7.09056 17.2268 6.87384 17.2271 6.60645Z" fill="#161616"/>
</svg>
