<svg width="24" height="24" viewBox="0 0 24 24" fill="none" xmlns="http://www.w3.org/2000/svg">
<path d="M10.8522 19.2929C10.8522 18.829 10.4762 18.4531 10.0123 18.4531C9.54855 18.4532 9.1725 18.8291 9.17249 19.2929C9.17249 19.7567 9.54855 20.1326 10.0123 20.1328C10.4763 20.1328 10.8522 19.7568 10.8522 19.2929ZM17.2125 19.2929C17.2125 18.829 16.8366 18.4531 16.3727 18.4531C15.9088 18.4532 15.5328 18.8291 15.5328 19.2929C15.5328 19.7568 15.9088 20.1327 16.3727 20.1328C16.8366 20.1328 17.2125 19.7568 17.2125 19.2929ZM4.84338 2.80464C4.93709 2.80464 5.04969 2.80394 5.14807 2.81147C5.22894 2.81767 5.33087 2.83109 5.44202 2.86714L5.5553 2.91108L5.70374 2.99214C5.7977 3.05267 5.88248 3.12642 5.95569 3.21089L6.05725 3.34565L6.11682 3.4521C6.16821 3.55702 6.19594 3.65613 6.2135 3.7353C6.23486 3.83162 6.25006 3.94334 6.26331 4.03608L6.6676 6.86714L6.66858 6.873L7.56702 13.4814C7.62557 13.9118 7.66448 14.1928 7.71057 14.4072C7.75473 14.6125 7.79498 14.7007 7.82874 14.7539C7.92784 14.9099 8.07 15.0341 8.23792 15.1113C8.29511 15.1376 8.38796 15.1655 8.59729 15.1816C8.816 15.1984 9.10013 15.1992 9.53479 15.1992H16.8492C17.263 15.1992 17.5327 15.1981 17.7408 15.1826C17.9393 15.1677 18.0285 15.1418 18.0846 15.1171C18.2475 15.0454 18.3879 14.9298 18.4889 14.7832C18.5236 14.7327 18.5652 14.65 18.6168 14.458C18.6711 14.2564 18.722 13.9915 18.7994 13.5849L19.5367 13.7255L20.2731 13.8652C20.1998 14.25 20.1382 14.5794 20.066 14.8476C19.9915 15.1248 19.8934 15.388 19.7242 15.6337C19.4655 16.0096 19.1067 16.3063 18.6891 16.4902C18.4161 16.6103 18.1393 16.6573 17.8531 16.6787C17.5762 16.6993 17.241 16.6992 16.8492 16.6992H9.53479C9.1231 16.6992 8.77147 16.6989 8.48206 16.6767C8.18346 16.6537 7.89437 16.6043 7.61194 16.4746C7.18119 16.2767 6.81728 15.9577 6.56311 15.5576C6.39642 15.2951 6.30776 15.0155 6.24475 14.7226C6.18373 14.4389 6.13617 14.0913 6.08069 13.6835L5.18225 7.07905L4.78577 4.30464H3.72717V2.80464H4.84338ZM12.3522 19.2929C12.3522 20.5853 11.3047 21.6328 10.0123 21.6328C8.72012 21.6326 7.67249 20.5852 7.67249 19.2929C7.6725 18.0007 8.72013 16.9532 10.0123 16.9531C11.3047 16.9531 12.3522 18.0006 12.3522 19.2929ZM18.7125 19.2929C18.7125 20.5853 17.665 21.6328 16.3727 21.6328C15.0804 21.6327 14.0328 20.5852 14.0328 19.2929C14.0328 18.0006 15.0804 16.9532 16.3727 16.9531C17.665 16.9531 18.7125 18.0006 18.7125 19.2929Z" fill="#161616"/>
<path d="M18.1135 8.11719C18.1135 5.76998 16.2107 3.86719 13.8635 3.86719C11.5163 3.86719 9.61347 5.76998 9.61347 8.11719C9.61347 10.4644 11.5163 12.3672 13.8635 12.3672C16.2107 12.3672 18.1135 10.4644 18.1135 8.11719ZM12.3644 5.29199C12.7677 5.10368 13.1766 5.22004 13.4445 5.38965C13.4592 5.39898 13.4734 5.40959 13.4875 5.41992L15.966 7.24414C16.1989 7.39128 16.5259 7.68305 16.5266 8.16211C16.5272 8.66204 16.1683 8.96856 15.9475 9.1123L13.5031 10.8223C13.4816 10.8373 13.4587 10.8506 13.4357 10.8633C13.2034 10.9919 12.7741 11.153 12.341 10.9219C11.9001 10.6864 11.799 10.2299 11.7824 9.95117C11.7816 9.93718 11.7805 9.9232 11.7805 9.90918L11.7697 6.2998L11.7707 6.29883C11.7674 5.92922 11.9257 5.49707 12.3644 5.29199ZM13.2775 9.14844L14.6848 8.16406L13.2717 7.12305L13.2775 9.14844ZM19.6135 8.11719C19.6135 11.2928 17.0391 13.8672 13.8635 13.8672C10.6878 13.8672 8.11347 11.2928 8.11347 8.11719C8.11347 4.94155 10.6878 2.36719 13.8635 2.36719C17.0391 2.36719 19.6135 4.94155 19.6135 8.11719Z" fill="#161616"/>
</svg>
