<svg width="24" height="24" viewBox="0 0 24 24" fill="none" xmlns="http://www.w3.org/2000/svg">
<path d="M20.1232 18.3096C20.1232 17.8814 20.1225 17.5976 20.1077 17.3789C20.0935 17.1677 20.0688 17.0719 20.045 17.0137C19.9403 16.758 19.7388 16.5542 19.4861 16.4482C19.4286 16.4242 19.3339 16.3992 19.1251 16.3848C18.9089 16.3698 18.6283 16.3691 18.2051 16.3691H5.7942C5.3714 16.3691 5.0913 16.3699 4.87523 16.3848C4.66595 16.3992 4.57078 16.4242 4.51324 16.4482C4.26047 16.5542 4.06 16.758 3.9553 17.0137C3.9315 17.0718 3.90588 17.1673 3.89159 17.3789C3.87684 17.5976 3.87614 17.8814 3.87614 18.3096C3.87614 18.7377 3.87684 19.0216 3.89159 19.2402C3.90588 19.4518 3.93149 19.5473 3.9553 19.6055C4.06 19.8612 4.26047 20.065 4.51324 20.1709C4.57078 20.195 4.66596 20.2199 4.87523 20.2344C5.0913 20.2493 5.3714 20.25 5.7942 20.25H18.2051C18.6283 20.25 18.9089 20.2493 19.1251 20.2344C19.3339 20.2199 19.4286 20.1949 19.4861 20.1709C19.7388 20.065 19.9403 19.8612 20.045 19.6055C20.0688 19.5473 20.0935 19.4515 20.1077 19.2402C20.1225 19.0216 20.1232 18.7377 20.1232 18.3096ZM8.76251 6.06641C6.97492 7.87485 6.97496 10.8077 8.76251 12.6162L7.71419 13.6768C5.34761 11.2825 5.34756 7.40009 7.71419 5.00586L8.76251 6.06641ZM16.2851 5.00586C18.6518 7.40012 18.6518 11.2825 16.2851 13.6768L15.2368 12.6162C17.0244 10.8077 17.0244 7.87488 15.2368 6.06641L16.2851 5.00586ZM21.6059 18.3096C21.6059 18.7171 21.6065 19.0603 21.5875 19.3418C21.5681 19.6301 21.5258 19.9083 21.4148 20.1797C21.1596 20.8029 20.6698 21.2985 20.0537 21.5566C19.7854 21.669 19.5104 21.7118 19.2254 21.7314C18.9472 21.7506 18.6079 21.75 18.2051 21.75H5.7942C5.3914 21.75 5.05216 21.7507 4.77388 21.7314C4.48888 21.7118 4.21394 21.6691 3.94564 21.5566C3.32957 21.2985 2.83975 20.8029 2.58457 20.1797C2.47351 19.9083 2.43122 19.63 2.41178 19.3418C2.3928 19.0603 2.39344 18.7171 2.39344 18.3096C2.39344 17.9021 2.3928 17.5589 2.41178 17.2773C2.43121 16.9891 2.47351 16.7108 2.58457 16.4395C2.83975 15.8162 3.32957 15.3207 3.94564 15.0625C4.02219 15.0304 4.09963 15.0052 4.17732 14.9834C1.49527 11.1873 1.83834 5.87798 5.2073 2.46973L6.25562 3.53027C3.17466 6.64716 3.08681 11.644 5.99016 14.8691H11.2588V9.3418H12.7415V14.8691H18.0092C20.9126 11.644 20.8247 6.64719 17.7437 3.53027L18.792 2.46973C22.1611 5.87814 22.5035 11.1873 19.821 14.9834C19.899 15.0053 19.9768 15.0303 20.0537 15.0625C20.6698 15.3207 21.1596 15.8162 21.4148 16.4395C21.5258 16.7108 21.5681 16.9891 21.5875 17.2773C21.6065 17.5589 21.6059 17.9021 21.6059 18.3096Z" fill="#161616"/>
</svg>
