<svg width="24" height="24" viewBox="0 0 24 24" fill="none" xmlns="http://www.w3.org/2000/svg">
<path d="M20.5645 7.11621L12.707 11.8311C12.4625 11.9776 12.1559 11.9725 11.916 11.8184L4.13477 6.81641C4.09339 6.95366 4.07129 7.09925 4.07129 7.25V16.0547C4.07147 16.883 4.74297 17.5547 5.57129 17.5547H19.0713C19.8996 17.5547 20.5711 16.883 20.5713 16.0547V7.25C20.5713 7.20488 20.5684 7.16031 20.5645 7.11621ZM5.57129 5.75C5.47549 5.75 5.38183 5.7592 5.29102 5.77637L12.334 10.3037L19.6953 5.88672C19.5052 5.79955 19.2941 5.75 19.0713 5.75H5.57129ZM22.0713 16.0547C22.0711 17.7114 20.728 19.0547 19.0713 19.0547H5.57129C3.91455 19.0547 2.57147 17.7114 2.57129 16.0547V7.25C2.57129 5.59315 3.91443 4.25 5.57129 4.25H19.0713C20.7281 4.25 22.0713 5.59315 22.0713 7.25V16.0547Z" fill="#161616"/>
</svg>
