<svg width="24" height="24" viewBox="0 0 24 24" fill="none" xmlns="http://www.w3.org/2000/svg">
<path d="M11.25 19.9131C7.45808 19.5582 4.4408 16.5419 4.08594 12.75H2.25V11.25H4.08594C4.4408 7.45803 7.45803 4.4408 11.25 4.08594V2.25H12.75V4.08594C16.542 4.4408 19.5592 7.45803 19.9141 11.25H21.75V12.75H19.9141C19.5592 16.5419 16.5419 19.5582 12.75 19.9131V21.75H11.25V19.9131ZM12 5.5498C8.43776 5.5498 5.5498 8.43776 5.5498 12C5.5498 15.5622 8.43776 18.4502 12 18.4502C15.5622 18.4502 18.4502 15.5622 18.4502 12C18.4502 8.43776 15.5622 5.5498 12 5.5498ZM13.9502 12C13.9502 10.923 13.077 10.0498 12 10.0498C10.923 10.0498 10.0498 10.923 10.0498 12C10.0498 13.077 10.923 13.9502 12 13.9502C13.077 13.9502 13.9502 13.077 13.9502 12ZM15.4502 12C15.4502 13.9054 13.9054 15.4502 12 15.4502C10.0946 15.4502 8.5498 13.9054 8.5498 12C8.5498 10.0946 10.0946 8.5498 12 8.5498C13.9054 8.5498 15.4502 10.0946 15.4502 12Z" fill="#161616"/>
</svg>
