<svg width="24" height="24" viewBox="0 0 24 24" fill="none" xmlns="http://www.w3.org/2000/svg">
<path fill-rule="evenodd" clip-rule="evenodd" d="M3.08413 3.8202C3.29286 3.68112 3.55731 3.65559 3.7888 3.75217L8.69212 5.798L14.3298 3.73982C14.4959 3.67918 14.6781 3.67918 14.8442 3.73982L14.897 3.75912C14.9081 3.76286 14.919 3.76684 14.9298 3.77107L20.7572 5.89855C21.0531 6.00659 21.25 6.28804 21.25 6.60307V19.5554C21.25 19.8003 21.1305 20.0297 20.9299 20.17C20.7293 20.3104 20.4728 20.3439 20.2428 20.26L14.587 18.1951L8.93112 20.26C8.75403 20.3246 8.5591 20.3202 8.38512 20.2476L3.2112 18.0889C2.9319 17.9724 2.75 17.6994 2.75 17.3967V4.44434C2.75 4.19351 2.87539 3.95929 3.08413 3.8202ZM15.4052 16.897L19.75 18.4832V7.12768L15.4062 5.54186V16.857C15.4062 16.8705 15.4059 16.8838 15.4052 16.897ZM13.9062 5.49127L9.5625 7.07708V18.4326L13.9062 16.8468V5.49127ZM8.0625 18.4877L4.25 16.897V5.56993L8.0625 7.16063V18.4877Z" fill="#161616"/>
</svg>
