<svg width="24" height="24" viewBox="0 0 24 24" fill="none" xmlns="http://www.w3.org/2000/svg">
<path d="M2.5 18.3904V10.9519C2.5 9.43312 3.73122 8.20191 5.25 8.20191H7.625V9.70191H5.25C4.55964 9.70191 4 10.2616 4 10.9519V18.3904C4 19.0807 4.55964 19.6404 5.25 19.6404H18.75C19.4404 19.6404 20 19.0807 20 18.3904V10.9519C20 10.2616 19.4404 9.70191 18.75 9.70191H16.375V8.20191H18.75C20.2688 8.20191 21.5 9.43313 21.5 10.9519V18.3904C21.5 19.9092 20.2688 21.1404 18.75 21.1404H5.25C3.73122 21.1404 2.5 19.9092 2.5 18.3904Z" fill="#161616"/>
<path d="M13.9043 14.9145L18.0234 12.1694L18.8555 13.4174L15.3467 15.7553L18.8174 17.7807L18.0615 19.0756L10.415 14.6147L5.97461 17.5512L5.14648 16.3002L8.96973 13.7719L5.18262 11.5629L5.93848 10.268L13.9043 14.9145Z" fill="#161616"/>
<path d="M13.4131 5.77344C13.4129 4.99353 12.7799 4.36133 12 4.36133C11.2202 4.36148 10.588 4.99362 10.5879 5.77344C10.5879 6.55338 11.2201 7.18637 12 7.18652C12.78 7.18652 13.4131 6.55348 13.4131 5.77344ZM14.9131 5.77344C14.9131 7.12227 13.9945 8.25282 12.75 8.58398V11.8516H11.25V8.58398C10.0057 8.25264 9.08789 7.12208 9.08789 5.77344C9.08804 4.16519 10.3918 2.86148 12 2.86133C13.6084 2.86133 14.9129 4.1651 14.9131 5.77344Z" fill="#161616"/>
</svg>
