<svg width="24" height="24" viewBox="0 0 24 24" fill="none" xmlns="http://www.w3.org/2000/svg">
<path d="M4.25 16.8966L8.0625 18.4855V7.16026L4.25 5.56944V16.8966ZM19.75 7.12705L15.4062 5.54112V12.5333H13.9062V5.49034L9.5625 7.07627V19.6105C9.56237 19.8611 9.43705 20.0954 9.22852 20.2345C9.02004 20.3734 8.75571 20.399 8.52441 20.3028L3.21191 18.089C2.93241 17.9725 2.75 17.6994 2.75 17.3966V4.44444C2.75 4.19367 2.87534 3.95951 3.08398 3.82041C3.29272 3.68133 3.55757 3.65547 3.78906 3.75205L8.69141 5.79795L14.3301 3.74034L14.457 3.70616C14.586 3.68346 14.7193 3.69494 14.8438 3.74034L20.7568 5.89854C21.0528 6.00658 21.25 6.28859 21.25 6.60362V12.5333H19.75V7.12705Z" fill="#161616"/>
<path d="M19.4092 20.8314H17.098V14.0254H19.4468C21.4762 14.0254 22.707 15.3039 22.707 17.419C22.707 19.5435 21.4762 20.8314 19.4092 20.8314ZM18.3194 19.7691H19.3435C20.7622 19.7691 21.4856 18.9889 21.4856 17.419C21.4856 15.8585 20.7622 15.0877 19.3811 15.0877H18.3194V19.7691Z" fill="#161616"/>
<path d="M11.2353 20.8314V19.9477L13.6405 17.6258C14.3264 16.9396 14.6834 16.5353 14.6834 15.9619C14.6834 15.3321 14.1854 14.9279 13.5184 14.9279C12.8137 14.9279 12.3627 15.3697 12.3721 16.0559H11.2071C11.1977 14.768 12.1654 13.9314 13.5278 13.9314C14.9183 13.9314 15.8578 14.7586 15.8578 15.9055C15.8578 16.6764 15.482 17.2968 14.1479 18.5565L12.9359 19.7597V19.8067H15.9612V20.8314H11.2353Z" fill="#161616"/>
</svg>
