<svg width="24" height="24" viewBox="0 0 24 24" fill="none" xmlns="http://www.w3.org/2000/svg">
<path d="M20.8213 13.3252C21.2631 13.3252 21.6211 13.6832 21.6211 14.125V20.5C21.6211 20.9418 21.2631 21.2998 20.8213 21.2998H14.4463C14.0045 21.2998 13.6465 20.9418 13.6465 20.5V14.125C13.6465 13.6832 14.0045 13.3252 14.4463 13.3252H20.8213ZM3.02148 10.9375C3.02148 9.03457 3.77747 7.20983 5.12305 5.86426L5.38086 5.61914C6.69706 4.42731 8.41225 3.7627 10.1963 3.7627H10.9961V5.3623H10.1963C8.81003 5.3623 7.47681 5.87857 6.4541 6.80469L6.25391 6.99512C5.20839 8.04063 4.62109 9.45892 4.62109 10.9375C4.62109 12.4161 5.20839 13.8344 6.25391 14.8799C7.14467 15.7706 8.30629 16.3269 9.54492 16.4727L8.55859 14.7383L9.94922 13.9463L11.875 17.3291C12.0936 17.7131 11.9592 18.2013 11.5752 18.4199L8.19238 20.3467L7.40137 18.9561L9.04688 18.0186C7.57006 17.7788 6.19457 17.0823 5.12305 16.0107C3.77747 14.6652 3.02148 12.8404 3.02148 10.9375ZM15.2461 19.7002H20.0215V14.9248H15.2461V19.7002ZM20.8213 2.7002C21.2631 2.7002 21.6211 3.05817 21.6211 3.5V9.875C21.6211 10.3168 21.2631 10.6748 20.8213 10.6748H14.4463C14.0045 10.6748 13.6465 10.3168 13.6465 9.875V3.5L13.6504 3.41797C13.6915 3.01467 14.0322 2.7002 14.4463 2.7002H20.8213ZM15.2461 9.0752H20.0215V4.2998H15.2461V9.0752Z" fill="#161616"/>
</svg>
