<svg width="24" height="24" viewBox="0 0 24 24" fill="none" xmlns="http://www.w3.org/2000/svg">
<path d="M20.144 6.67773C20.1437 4.90395 18.6101 3.39561 16.6294 3.39551C14.6485 3.39551 13.115 4.90389 13.1147 6.67773C13.1147 7.31831 13.4565 8.1262 14.0366 8.99707C14.6018 9.8455 15.3248 10.654 15.9379 11.2754C16.3269 11.6696 16.9308 11.6695 17.3198 11.2754C17.9331 10.654 18.6569 9.84568 19.2221 8.99707C19.8022 8.1262 20.144 7.31831 20.144 6.67773ZM21.644 6.67773C21.644 7.77393 21.0949 8.89122 20.4702 9.8291C19.8307 10.7889 19.0347 11.6739 18.3881 12.3291C17.4118 13.3184 15.8469 13.3184 14.8706 12.3291C14.2239 11.6738 13.4271 10.7891 12.7876 9.8291C12.1628 8.89122 11.6147 7.77393 11.6147 6.67773C11.615 3.99761 13.9001 1.89551 16.6294 1.89551C19.3585 1.89561 21.6437 3.99768 21.644 6.67773Z" fill="#161616"/>
<path d="M17.1137 6.62695C17.1137 6.35933 16.8969 6.14187 16.6294 6.1416C16.3616 6.1416 16.144 6.35917 16.144 6.62695C16.1443 6.89451 16.3617 7.11133 16.6294 7.11133V8.61133L16.4262 8.60156C15.4918 8.50683 14.7485 7.76354 14.6538 6.8291L14.644 6.62695C14.644 5.53074 15.5331 4.6416 16.6294 4.6416L16.8315 4.65137C17.8325 4.75285 18.6137 5.59914 18.6137 6.62695L18.604 6.8291C18.5025 7.82999 17.6569 8.61108 16.6294 8.61133V7.11133C16.8967 7.11106 17.1135 6.89435 17.1137 6.62695Z" fill="#161616"/>
<path d="M2.35669 19.3555V5.85547C2.35669 4.33669 3.58791 3.10547 5.10669 3.10547H10.3752V4.60547H5.10669C4.41633 4.60547 3.85669 5.16511 3.85669 5.85547V19.3555C3.85669 20.0458 4.41633 20.6055 5.10669 20.6055H18.6067C19.297 20.6055 19.8567 20.0458 19.8567 19.3555V14.0244H21.3567V19.3555C21.3567 20.8743 20.1255 22.1055 18.6067 22.1055H5.10669C3.58791 22.1055 2.35669 20.8743 2.35669 19.3555Z" fill="#161616"/>
<path d="M19.803 20.1807L18.7424 21.2412L3.22095 5.71973L4.28149 4.65918L19.803 20.1807Z" fill="#161616"/>
<path d="M12.0422 13.4805L4.28149 21.2412L3.22095 20.1807L10.9817 12.4199L12.0422 13.4805Z" fill="#161616"/>
</svg>
