<svg width="24" height="24" viewBox="0 0 24 24" fill="none" xmlns="http://www.w3.org/2000/svg">
<path d="M20.5713 10.8683L12.7295 15.9601C12.5157 16.0989 12.2485 16.1193 12.0195 16.0187L11.9238 15.9679L11.9229 15.9669C11.9218 15.9663 11.92 15.9653 11.918 15.964C11.9139 15.9614 11.9074 15.9573 11.8994 15.9523C11.8833 15.9422 11.8591 15.9276 11.8281 15.9083C11.7656 15.8693 11.6737 15.8122 11.5566 15.7394C11.3224 15.5937 10.9877 15.3847 10.584 15.1349C9.77641 14.6351 8.69514 13.9696 7.60059 13.3038C6.50509 12.6375 5.39951 11.9738 4.54199 11.4777C4.3741 11.3805 4.21645 11.2902 4.07129 11.2081V17.8419L4.0791 17.9806C4.1526 18.6701 4.76667 19.2501 5.57129 19.2501H19.0713C19.9294 19.2501 20.5712 18.5906 20.5713 17.8419V10.8683ZM4.35352 9.65051C4.61683 9.79321 4.93712 9.97294 5.29297 10.1788C6.16506 10.6834 7.2818 11.3537 8.37988 12.0216C9.47894 12.6901 10.5635 13.3585 11.373 13.8595C11.7573 14.0973 12.0797 14.2978 12.3125 14.4425L20.3828 9.20227L12.3408 4.86242L4.35352 9.65051ZM22.0713 17.8419C22.0712 19.4772 20.6984 20.7501 19.0713 20.7501H5.57129C3.99507 20.7501 2.6574 19.5556 2.5752 17.9943L2.57129 17.8419V9.99426C2.57129 9.34886 2.91839 8.76329 3.46484 8.43567L11.9355 3.35656L12.0234 3.31164C12.2326 3.22114 12.4741 3.23006 12.6777 3.33996L21.1035 7.88684C21.6905 8.20356 22.0712 8.81094 22.0713 9.48742V17.8419Z" fill="#161616"/>
</svg>
