<svg width="24" height="24" viewBox="0 0 24 24" fill="none" xmlns="http://www.w3.org/2000/svg">
<path d="M18.4502 10.0439C18.4502 6.58367 15.5778 3.7501 12 3.75C8.42214 3.75 5.5498 6.58361 5.5498 10.0439C5.54997 11.3809 6.24542 12.9635 7.28809 14.5518C8.31606 16.1176 9.61176 17.5855 10.6621 18.6709C11.4076 19.4413 12.5924 19.4413 13.3379 18.6709C14.3882 17.5855 15.683 16.1175 16.7109 14.5518C17.7537 12.9634 18.45 11.381 18.4502 10.0439ZM13.5498 9.75C13.5497 8.93709 12.8716 8.25 12 8.25C11.1284 8.25005 10.4503 8.93712 10.4502 9.75C10.4502 10.5629 11.1284 11.2499 12 11.25C12.8717 11.25 13.5498 10.563 13.5498 9.75ZM19.9502 10.0439C19.95 11.8323 19.0502 13.7217 17.9648 15.375C16.8645 17.0511 15.498 18.5948 14.415 19.7139C13.08 21.0934 10.919 21.0934 9.58398 19.7139C8.50108 18.5948 7.13444 17.051 6.03418 15.375C4.94884 13.7217 4.04996 11.8322 4.0498 10.0439C4.0498 5.72427 7.62496 2.25 12 2.25C16.3749 2.2501 19.9502 5.72434 19.9502 10.0439ZM15.0498 9.75C15.0498 11.4223 13.6688 12.75 12 12.75C10.3312 12.7499 8.9502 11.4223 8.9502 9.75C8.95027 8.07779 10.3312 6.75005 12 6.75C13.6688 6.75 15.0497 8.07776 15.0498 9.75Z" fill="#161616"/>
</svg>
