<svg width="24" height="24" viewBox="0 0 24 24" fill="none" xmlns="http://www.w3.org/2000/svg">
<path d="M20.8213 13.3252C21.2631 13.3252 21.6211 13.6832 21.6211 14.125V20.5C21.6211 20.9418 21.2631 21.2998 20.8213 21.2998H14.4463C14.0045 21.2998 13.6465 20.9418 13.6465 20.5V14.125C13.6465 13.6832 14.0045 13.3252 14.4463 13.3252H20.8213ZM3.02148 13.0625C3.02148 11.1596 3.77747 9.33483 5.12305 7.98926C6.1946 6.9177 7.57 6.22016 9.04688 5.98047L8.09668 5.44043L7.40137 5.04395L8.19238 3.65332L11.5752 5.58008C11.9592 5.79867 12.0936 6.28693 11.875 6.6709L9.94922 10.0537L8.55859 9.26172L9.54492 7.52637C8.30624 7.67207 7.1447 8.22933 6.25391 9.12012C5.20839 10.1656 4.62109 11.5839 4.62109 13.0625C4.62109 14.5411 5.20839 15.9594 6.25391 17.0049L6.4541 17.1953C7.47681 18.1214 8.81003 18.6377 10.1963 18.6377H10.9961V20.2373H10.1963C8.41225 20.2373 6.69706 19.5727 5.38086 18.3809L5.12305 18.1357C3.77747 16.7902 3.02148 14.9654 3.02148 13.0625ZM15.2461 19.7002H20.0215V14.9248H15.2461V19.7002ZM20.8213 2.7002C21.2631 2.7002 21.6211 3.05817 21.6211 3.5V9.875C21.6211 10.3168 21.2631 10.6748 20.8213 10.6748H14.4463C14.0045 10.6748 13.6465 10.3168 13.6465 9.875V3.5L13.6504 3.41797C13.6915 3.01467 14.0322 2.7002 14.4463 2.7002H20.8213ZM15.2461 9.0752H20.0215V4.2998H15.2461V9.0752Z" fill="#161616"/>
</svg>
