<svg width="24" height="24" viewBox="0 0 24 24" fill="none" xmlns="http://www.w3.org/2000/svg">
<path d="M16.5625 8.59961C16.5624 7.45629 16.0895 6.3534 15.2373 5.53516C14.3838 4.71579 13.2197 4.25 12 4.25C10.7803 4.25 9.6162 4.71579 8.7627 5.53516C7.91051 6.3534 7.43761 7.45629 7.4375 8.59961V15.4004C7.43761 16.5437 7.91051 17.6466 8.7627 18.4648C9.6162 19.2842 10.7803 19.75 12 19.75C13.2197 19.75 14.3838 19.2842 15.2373 18.4648C16.0895 17.6466 16.5624 16.5437 16.5625 15.4004V8.59961ZM11.25 7.53125H12.75V11.1562H11.25V7.53125ZM18.0625 15.4004C18.0624 16.9617 17.4161 18.4525 16.2764 19.5469C15.1373 20.6404 13.5982 21.25 12 21.25C10.4018 21.25 8.8627 20.6404 7.72363 19.5469C6.58389 18.4525 5.93761 16.9617 5.9375 15.4004V8.59961C5.93761 7.03833 6.58389 5.5475 7.72363 4.45312C8.8627 3.35962 10.4018 2.75 12 2.75C13.5982 2.75 15.1373 3.35962 16.2764 4.45312C17.4161 5.5475 18.0624 7.03833 18.0625 8.59961V15.4004Z" fill="#161616"/>
</svg>
