<svg width="24" height="24" viewBox="0 0 24 24" fill="none" xmlns="http://www.w3.org/2000/svg">
<path d="M12.7408 7.92773C13.0299 7.85845 13.3334 7.87051 13.6177 7.96289C13.8483 8.0378 14.0273 8.16506 14.1734 8.28906C14.3129 8.40748 14.4673 8.56247 14.6304 8.72559L15.2701 9.36523C15.4332 9.52835 15.5882 9.68278 15.7066 9.82227C15.7996 9.93181 15.895 10.0595 15.9683 10.2139L16.0328 10.3779L16.0679 10.501C16.1371 10.79 16.1251 11.0937 16.0328 11.3779C15.9578 11.6085 15.8306 11.7875 15.7066 11.9336C15.5882 12.073 15.4331 12.2266 15.2701 12.3896L13.7437 13.915L12.6841 14.9766L12.6832 14.9756L7.25249 20.4082C7.08958 20.5711 6.93578 20.7254 6.79643 20.8438C6.65025 20.9678 6.47055 21.0959 6.23979 21.1709C5.9149 21.2764 5.56467 21.2765 5.23979 21.1709C5.00915 21.0959 4.83026 20.9678 4.68413 20.8438C4.54478 20.7254 4.391 20.5711 4.22808 20.4082L3.58745 19.7676C3.42452 19.6046 3.27022 19.4509 3.1519 19.3115C3.02784 19.1654 2.89974 18.9865 2.82475 18.7559C2.7192 18.431 2.71925 18.0807 2.82475 17.7559L2.89018 17.5918C2.96354 17.4373 3.05886 17.3088 3.1519 17.1992C3.27024 17.0599 3.42454 16.9061 3.58745 16.7432L11.606 8.72559C11.769 8.56255 11.9226 8.40742 12.0621 8.28906C12.2082 8.16506 12.3872 8.03784 12.6177 7.96289L12.7408 7.92773ZM4.648 17.8037C4.46746 17.9843 4.36499 18.089 4.29546 18.1709C4.27013 18.2007 4.25628 18.2195 4.24956 18.2295C4.24563 18.2467 4.24569 18.2641 4.24956 18.2812C4.25621 18.2911 4.26981 18.3106 4.29546 18.3408C4.36496 18.4227 4.46775 18.5268 4.648 18.707L5.28862 19.3477C5.46887 19.5279 5.57299 19.6307 5.65483 19.7002C5.68394 19.7249 5.70326 19.7382 5.71343 19.7451C5.73073 19.7492 5.74785 19.749 5.76518 19.7451C5.77507 19.7385 5.79469 19.7257 5.82475 19.7002C5.90666 19.6307 6.0114 19.5282 6.19194 19.3477L11.6226 13.915L10.0796 12.3721L4.648 17.8037ZM19.8296 13.9688L18.7691 15.0293L16.7876 13.0479L17.8482 11.9873L19.8296 13.9688ZM13.0894 9.3877C13.0791 9.3948 13.0609 9.40876 13.0328 9.43262C12.9509 9.50214 12.847 9.60565 12.6666 9.78613L11.1402 11.3115L12.6832 12.8545L14.2095 11.3291C14.39 11.1486 14.4935 11.0448 14.563 10.9629C14.5871 10.9346 14.5999 10.9156 14.607 10.9053C14.6115 10.8867 14.6116 10.8682 14.607 10.8496C14.5998 10.8392 14.5866 10.8207 14.563 10.793C14.4935 10.711 14.3901 10.6064 14.2095 10.4258L13.5699 9.78613C13.3893 9.60552 13.2846 9.50217 13.2027 9.43262C13.1739 9.40818 13.1552 9.39462 13.1451 9.3877C13.1266 9.38328 13.1078 9.38309 13.0894 9.3877ZM21.2544 8.82617V10.3262H18.4527V8.82617H21.2544ZM12.0171 6.15625L10.9566 7.2168L8.97515 5.23633L10.0367 4.1748L12.0171 6.15625ZM19.8296 5.23633L17.8482 7.2168L16.7876 6.15625L18.2388 4.70605L18.7691 4.1748L19.8296 5.23633ZM13.6792 2.75H15.1792V5.55176H13.6792V2.75Z" fill="#161616"/>
</svg>
