<svg width="24" height="24" viewBox="0 0 24 24" fill="none" xmlns="http://www.w3.org/2000/svg">
<path d="M14.4907 3.82434C15.9226 2.39242 18.2443 2.39242 19.6763 3.82434C21.1079 5.25629 21.1081 7.57807 19.6763 9.00989C18.2445 10.4417 15.9227 10.4415 14.4907 9.00989C13.0588 7.57797 13.0588 5.25626 14.4907 3.82434ZM18.6157 4.88489C17.7696 4.03875 16.3974 4.03875 15.5513 4.88489C14.7051 5.73102 14.7051 7.10321 15.5513 7.94934C16.3974 8.79515 17.7697 8.79537 18.6157 7.94934C19.4618 7.10331 19.4615 5.73105 18.6157 4.88489Z" fill="#161616"/>
<path d="M2.74951 18.0001V5.50012C2.74951 3.98134 3.98073 2.75012 5.49951 2.75012H11.7495V4.25012H5.49951C4.80916 4.25012 4.24951 4.80977 4.24951 5.50012V18.0001C4.24951 18.6905 4.80916 19.2501 5.49951 19.2501H17.9995C18.6899 19.2501 19.2495 18.6905 19.2495 18.0001V11.7501H20.7495V18.0001C20.7495 19.5189 19.5183 20.7501 17.9995 20.7501H5.49951C3.98073 20.7501 2.74951 19.5189 2.74951 18.0001Z" fill="#161616"/>
</svg>
