<svg width="24" height="24" viewBox="0 0 24 24" fill="none" xmlns="http://www.w3.org/2000/svg">
<path d="M14.8291 9.10449C16.3839 10.7066 16.384 13.2944 14.8291 14.8965L14.3066 15.4346L13.2305 14.3906L13.7529 13.8525C14.743 12.8324 14.743 11.1686 13.7529 10.1484L13.2305 9.61035L14.3066 8.56543L14.8291 9.10449ZM17.1338 6.73047C19.9607 9.64362 19.9608 14.3574 17.1338 17.2705L16.6113 17.8086L15.5352 16.7646L16.0566 16.2266C18.3193 13.8953 18.3193 10.1057 16.0566 7.77441L15.5352 7.23633L16.6113 6.19141L17.1338 6.73047ZM19.1699 4.34277C23.2766 8.57413 23.2766 15.4259 19.1699 19.6572L18.6475 20.1953L17.5713 19.1504L18.0937 18.6123C21.6355 14.9629 21.6355 9.03709 18.0937 5.3877L17.5713 4.84961L18.6475 3.80469L19.1699 4.34277Z" fill="#161616"/>
<path fill-rule="evenodd" clip-rule="evenodd" d="M9.96191 4.11499C10.9282 4.11516 11.7118 4.89871 11.7119 5.86499V18.1345C11.7118 19.1008 10.9282 19.8843 9.96191 19.8845H3.5C2.53355 19.8845 1.75008 19.1009 1.75 18.1345V5.86499C1.75013 4.8986 2.53358 4.11499 3.5 4.11499H9.96191ZM6.73047 17.7371C6.34221 17.7373 6.02751 18.0519 6.02734 18.4402C6.02734 18.8286 6.3421 19.1441 6.73047 19.1443C7.11903 19.1443 7.43457 18.8287 7.43457 18.4402C7.43441 18.0518 7.11893 17.7371 6.73047 17.7371ZM3.5 5.61499C3.36201 5.61499 3.25013 5.72703 3.25 5.86499V16.7371L3.25488 16.7869C3.2781 16.9009 3.37911 16.9871 3.5 16.9871H9.96191C10.0997 16.9869 10.2117 16.8749 10.2119 16.7371V5.86499C10.2118 5.72713 10.0998 5.61516 9.96191 5.61499H3.5Z" fill="#161616"/>
</svg>
