<svg width="24" height="24" viewBox="0 0 24 24" fill="none" xmlns="http://www.w3.org/2000/svg">
<path d="M6.45 10.6V10.5101C6.45 10.0959 6.78579 9.76012 7.2 9.76012C7.61421 9.76012 7.95 10.0959 7.95 10.5101V10.6C7.95 11.0142 7.61421 11.35 7.2 11.35C6.78579 11.35 6.45 11.0142 6.45 10.6ZM11.2498 10.6V10.5101C11.2498 10.096 11.5857 9.76022 11.9998 9.76012C12.414 9.76012 12.7498 10.0959 12.7498 10.5101V10.6C12.7498 11.0142 12.414 11.35 11.9998 11.35C11.5857 11.3499 11.2498 11.0141 11.2498 10.6ZM16.0496 10.6V10.5101C16.0496 10.096 16.3856 9.76033 16.7996 9.76012C17.2138 9.76012 17.5496 10.0959 17.5496 10.5101V10.6C17.5496 11.0142 17.2138 11.35 16.7996 11.35C16.3856 11.3497 16.0496 11.014 16.0496 10.6Z" fill="#161616"/>
<path d="M20.25 5.28488C20.25 4.59453 19.6904 4.03488 19 4.03488H5C4.30964 4.03488 3.75 4.59453 3.75 5.28488V15.2849C3.75 15.9752 4.30964 16.5349 5 16.5349H8.35156V19.6765L11.8906 16.7107L12.0996 16.5349H19C19.6904 16.5349 20.25 15.9752 20.25 15.2849V5.28488ZM21.75 15.2849C21.75 16.8037 20.5188 18.0349 19 18.0349H12.6445L8.9043 21.1706C8.09096 21.8525 6.85192 21.2748 6.85156 20.2136V18.0349H5C3.48122 18.0349 2.25 16.8037 2.25 15.2849V5.28488C2.25 3.7661 3.48122 2.53488 5 2.53488H19C20.5188 2.53488 21.75 3.7661 21.75 5.28488V15.2849Z" fill="#161616"/>
</svg>
