<svg width="24" height="24" viewBox="0 0 24 24" fill="none" xmlns="http://www.w3.org/2000/svg">
<path d="M18.3364 5.73019C18.3364 5.03984 17.7768 4.48019 17.0864 4.48019H4.74854C4.05818 4.48019 3.49854 5.03984 3.49854 5.73019V14.4372C3.49854 15.1276 4.05818 15.6872 4.74854 15.6872H7.67529V18.4597L10.7729 15.863L11.2554 16.4372L11.7368 17.0124L8.22803 19.9538C7.41468 20.6358 6.17565 20.0581 6.17529 18.9968V17.1872H4.74854C3.22975 17.1872 1.99854 15.956 1.99854 14.4372V5.73019C1.99854 4.21141 3.22975 2.98019 4.74854 2.98019H17.0864C18.6052 2.98019 19.8364 4.21141 19.8364 5.73019V11.4792H18.3364V5.73019Z" fill="#161616"/>
<path d="M12.3306 13.1687C12.3306 12.4783 12.8902 11.9187 13.5806 11.9187H19.2515C19.9418 11.9187 20.5015 12.4783 20.5015 13.1687V16.6902C20.5015 17.3805 19.9418 17.9402 19.2515 17.9402H18.0288V19.2312L16.6978 18.1159L16.4888 17.9402H13.5806C12.8902 17.9402 12.3306 17.3805 12.3306 16.6902V13.1687ZM10.8306 16.6902C10.8306 18.2089 12.0618 19.4402 13.5806 19.4402H15.9429L17.4761 20.7253C18.2894 21.4073 19.5285 20.8296 19.5288 19.7683V19.4265C20.9173 19.2874 22.0015 18.1153 22.0015 16.6902V13.1687C22.0015 11.6499 20.7702 10.4187 19.2515 10.4187H13.5806C12.0618 10.4187 10.8306 11.6499 10.8306 13.1687V16.6902Z" fill="#161616"/>
</svg>
