<svg width="24" height="24" viewBox="0 0 24 24" fill="none" xmlns="http://www.w3.org/2000/svg">
<path d="M19 19.4998V20.9998H5V19.4998H19ZM19.5 18.9998V4.99982C19.5 4.72367 19.2761 4.49982 19 4.49982H5C4.72386 4.49982 4.5 4.72367 4.5 4.99982V18.9998C4.5 19.276 4.72386 19.4998 5 19.4998V20.9998L4.7959 20.9891C3.85435 20.8936 3.1062 20.1455 3.01074 19.2039L3 18.9998V4.99982C3 3.89525 3.89543 2.99982 5 2.99982H19C20.1046 2.99982 21 3.89525 21 4.99982V18.9998C21 20.0355 20.2128 20.8868 19.2041 20.9891L19 20.9998V19.4998C19.2761 19.4998 19.5 19.276 19.5 18.9998Z" fill="#161616"/>
</svg>
