<svg width="24" height="24" viewBox="0 0 24 24" fill="none" xmlns="http://www.w3.org/2000/svg">
<path d="M20.5 5C21.3284 5 22 5.67157 22 6.5V17.5C22 18.2767 21.4097 18.9154 20.6533 18.9922L20.5 19H3.5L3.34668 18.9922C2.59028 18.9154 2 18.2767 2 17.5V6.5C2 5.67157 2.67157 5 3.5 5H20.5ZM3.5 17.5H20.5V6.5H3.5V17.5ZM8.25 9.25C9.76878 9.25 11 10.4812 11 12C11 13.5188 9.76878 14.75 8.25 14.75C6.73122 14.75 5.5 13.5188 5.5 12C5.5 10.4812 6.73122 9.25 8.25 9.25ZM8.25 10.75C7.55964 10.75 7 11.3096 7 12C7 12.6904 7.55964 13.25 8.25 13.25C8.94036 13.25 9.5 12.6904 9.5 12C9.5 11.3096 8.94036 10.75 8.25 10.75ZM13.0156 11C13.5679 11 14.0156 11.4477 14.0156 12C14.0156 12.5523 13.5679 13 13.0156 13C12.4633 13 12.0156 12.5523 12.0156 12C12.0156 11.4477 12.4633 11 13.0156 11Z" fill="#161616"/>
</svg>
