<svg width="24" height="24" viewBox="0 0 24 24" fill="none" xmlns="http://www.w3.org/2000/svg">
<path d="M12.7568 11.4642H11.2568L11.2568 6.64482H12.7568L12.7568 11.4642ZM12.751 13.5374V13.597C12.751 14.011 12.415 14.3467 12.001 14.347C11.5868 14.347 11.251 14.0112 11.251 13.597V13.5374C11.251 13.1232 11.5868 12.7874 12.001 12.7874C12.415 12.7877 12.751 13.1233 12.751 13.5374Z" fill="#161616"/>
<path d="M20.25 5.28488C20.25 4.59453 19.6904 4.03488 19 4.03488H5C4.30964 4.03488 3.75 4.59453 3.75 5.28488V15.2849C3.75 15.9752 4.30964 16.5349 5 16.5349H8.35156V19.6765L11.8906 16.7107L12.0996 16.5349H19C19.6904 16.5349 20.25 15.9752 20.25 15.2849V5.28488ZM21.75 15.2849C21.75 16.8037 20.5188 18.0349 19 18.0349H12.6445L8.9043 21.1706C8.09096 21.8525 6.85192 21.2748 6.85156 20.2136V18.0349H5C3.48122 18.0349 2.25 16.8037 2.25 15.2849V5.28488C2.25 3.7661 3.48122 2.53488 5 2.53488H19C20.5188 2.53488 21.75 3.7661 21.75 5.28488V15.2849Z" fill="#161616"/>
</svg>
