<svg width="24" height="24" viewBox="0 0 24 24" fill="none" xmlns="http://www.w3.org/2000/svg">
<path d="M15.3486 3.63375C16.8131 2.16929 19.1869 2.16929 20.6514 3.63375C22.1158 5.09822 22.1158 7.47202 20.6514 8.93649C19.1869 10.401 16.8131 10.401 15.3486 8.93649C13.8842 7.47202 13.8842 5.09822 15.3486 3.63375ZM19.5908 4.6943C18.7121 3.81562 17.2879 3.81562 16.4092 4.6943C15.5305 5.57298 15.5305 6.99726 16.4092 7.87594C17.2879 8.75462 18.7121 8.75462 19.5908 7.87594C20.4695 6.99726 20.4695 5.57298 19.5908 4.6943Z" fill="#161616"/>
<path d="M2.25 15.2849V5.28488C2.25 3.7661 3.48122 2.53488 5 2.53488H13.0283V4.03488H5C4.30964 4.03488 3.75 4.59453 3.75 5.28488V15.2849C3.75 15.9752 4.30964 16.5349 5 16.5349H8.35156V19.6765L11.8906 16.7107L12.0996 16.5349H19C19.6904 16.5349 20.25 15.9752 20.25 15.2849V11.2693H21.75V15.2849C21.75 16.8037 20.5188 18.0349 19 18.0349H12.6445L8.9043 21.1706C8.09096 21.8525 6.85192 21.2748 6.85156 20.2136V18.0349H5C3.48122 18.0349 2.25 16.8037 2.25 15.2849Z" fill="#161616"/>
</svg>
