<svg width="24" height="24" viewBox="0 0 24 24" fill="none" xmlns="http://www.w3.org/2000/svg">
<path d="M20.3203 12C20.3203 7.40482 16.5952 3.67969 12 3.67969C7.40482 3.67969 3.67969 7.40482 3.67969 12C3.67969 16.5952 7.40482 20.3203 12 20.3203C16.5952 20.3203 20.3203 16.5952 20.3203 12ZM21.8203 12C21.8203 17.4236 17.4236 21.8203 12 21.8203C6.57639 21.8203 2.17969 17.4236 2.17969 12C2.17969 6.57639 6.57639 2.17969 12 2.17969C17.4236 2.17969 21.8203 6.57639 21.8203 12Z" fill="#161616"/>
<path d="M15.4996 6.36777C16.0235 6.23408 16.6904 6.15533 17.2145 6.58848L17.318 6.68223L17.4117 6.78477C17.8452 7.30894 17.7662 7.97659 17.6324 8.50059C17.4827 9.08718 17.1695 9.84361 16.7965 10.7496L15.776 13.2281C15.4916 13.9188 15.2815 14.4638 14.8727 14.8727C14.4638 15.2815 13.9188 15.4916 13.2281 15.776L10.7496 16.7965C9.84361 17.1695 9.08718 17.4827 8.50059 17.6324C7.9417 17.7751 7.21959 17.8552 6.68223 17.318C6.1449 16.7806 6.22514 16.0585 6.36777 15.4996C6.51753 14.9129 6.83057 14.1558 7.20371 13.2496L8.22422 10.7711C8.50852 10.0806 8.71876 9.53632 9.12754 9.12754C9.53632 8.71876 10.0806 8.50852 10.7711 8.22422L13.2496 7.20371C14.1558 6.83057 14.9129 6.51753 15.4996 6.36777ZM16.235 7.76328C16.1739 7.76316 16.062 7.77209 15.8707 7.8209C15.412 7.93798 14.7736 8.19812 13.8209 8.59043L11.3424 9.61094C10.538 9.94217 10.3355 10.0407 10.1881 10.1881C10.0407 10.3355 9.94217 10.538 9.61094 11.3424L8.59043 13.8209C8.19812 14.7736 7.93798 15.412 7.8209 15.8707C7.77209 16.062 7.76316 16.1739 7.76328 16.235C7.8239 16.2353 7.93623 16.2286 8.12949 16.1793C8.58815 16.0622 9.22655 15.8021 10.1793 15.4098L12.6568 14.3893C13.4614 14.058 13.6647 13.9595 13.8121 13.8121C13.9595 13.6647 14.058 13.4614 14.3893 12.6568L15.4098 10.1793C15.8021 9.22655 16.0622 8.58815 16.1793 8.12949C16.2286 7.93623 16.2353 7.8239 16.235 7.76328Z" fill="#161616"/>
<path d="M11 12.0098V12C11 11.4477 11.4477 11 12 11C12.5523 11 13 11.4477 13 12V12.0098C13 12.5621 12.5523 13.0098 12 13.0098C11.4477 13.0098 11 12.5621 11 12.0098Z" fill="#161616"/>
</svg>
