<svg width="24" height="24" viewBox="0 0 24 24" fill="none" xmlns="http://www.w3.org/2000/svg">
<path d="M20.2422 4.65601C20.1654 3.8996 19.5267 3.30933 18.75 3.30933H11.25C10.4216 3.30933 9.75 3.9809 9.75 4.80933V12.3093C9.75 13.1378 10.4216 13.8093 11.25 13.8093H18.75C19.5784 13.8093 20.25 13.1378 20.25 12.3093V4.80933L20.2422 4.65601ZM3.75 18.3093C3.75 19.1378 4.42157 19.8093 5.25 19.8093H12.75C13.5784 19.8093 14.25 19.1378 14.25 18.3093V15.4968C14.25 15.4318 14.2608 15.3695 14.2764 15.3093H11.25C9.59315 15.3093 8.25 13.9662 8.25 12.3093V9.30933H5.25C4.42157 9.30933 3.75 9.9809 3.75 10.8093V18.3093ZM21.75 12.3093C21.75 13.9662 20.4069 15.3093 18.75 15.3093H15.7236C15.7392 15.3695 15.75 15.4318 15.75 15.4968V18.3093C15.75 19.9662 14.4069 21.3093 12.75 21.3093H5.25C3.59315 21.3093 2.25 19.9662 2.25 18.3093V10.8093C2.25 9.15247 3.59315 7.80933 5.25 7.80933H8.25V4.80933C8.25 3.15247 9.59315 1.80933 11.25 1.80933H18.75C20.4069 1.80933 21.75 3.15247 21.75 4.80933V12.3093Z" fill="#161616"/>
</svg>
