<svg width="24" height="24" viewBox="0 0 24 24" fill="none" xmlns="http://www.w3.org/2000/svg">
<path d="M16.0438 20.25V21.75H4.59658V20.25H16.0438ZM19.4931 17.0391C19.4923 17.0329 19.4837 16.9587 19.4267 16.7979C19.3725 16.6454 19.2944 16.4665 19.203 16.2793C19.1642 16.1998 19.1229 16.1213 19.0829 16.0449C19.0427 16.122 19.0028 16.202 18.9638 16.2822C18.8721 16.4704 18.7934 16.6501 18.7392 16.8027C18.6835 16.9594 18.6739 17.0318 18.6728 17.0391C18.6728 17.2708 18.8615 17.4561 19.0829 17.4561C19.3043 17.456 19.4931 17.2708 19.4931 17.0391ZM17.7489 9.48633L17.8388 9.58398C17.8992 9.65649 17.9506 9.73453 17.995 9.81543C18.3613 10.2739 18.5529 10.8253 18.5673 11.3799L18.5614 11.6396C18.5236 12.1582 18.3319 12.6688 17.9862 13.0957L17.8007 13.3018L12.9628 18.1396C12.0033 19.0992 10.4845 19.1597 9.45498 18.3203L9.25576 18.1396L4.4169 13.3018C3.88778 12.7726 3.63237 12.0719 3.6503 11.3799L3.66787 11.1377C3.73486 10.5743 3.98455 10.0271 4.4169 9.59473L7.5917 6.47656C8.36478 5.71773 9.13395 4.96269 9.70987 4.39746C9.8645 4.2457 10.0047 4.10714 10.1278 3.98633L9.14151 3L10.2021 1.93945L17.7489 9.48633ZM5.39541 12.1494C5.42085 12.181 5.44806 12.2118 5.47744 12.2412L10.3163 17.0791L10.4013 17.1562C10.8416 17.5155 11.4908 17.4896 11.9013 17.0791L16.7401 12.2412L16.8192 12.1533C16.8203 12.1521 16.8212 12.1507 16.8222 12.1494H5.39541ZM10.7606 5.46875C10.1848 6.03392 9.41537 6.78823 8.64248 7.54688C7.86955 8.30556 7.09323 9.06872 6.50186 9.64941C6.20629 9.93964 5.95645 10.1843 5.77725 10.3604C5.68773 10.4483 5.61585 10.5197 5.56436 10.5703C5.53859 10.5957 5.5178 10.6161 5.50283 10.6309L5.48428 10.6494H16.746C16.7221 10.615 16.7004 10.5791 16.6825 10.541L11.1894 5.04785C11.0639 5.17099 10.9195 5.31284 10.7606 5.46875ZM20.9931 17.0391C20.9931 18.0921 20.1397 18.956 19.0829 18.9561C18.026 18.9561 17.1728 18.092 17.1728 17.0391C17.1728 16.7769 17.2516 16.5066 17.3251 16.2998C17.4051 16.0748 17.5103 15.8404 17.6151 15.625C17.8252 15.1936 18.0607 14.7901 18.1728 14.6055L18.1806 14.5928C18.3671 14.2985 18.6988 14.0918 19.0829 14.0918L19.2245 14.1016C19.5015 14.1389 19.7429 14.2834 19.9091 14.4863L19.9853 14.5928L19.9931 14.6055L20.2343 15.0205C20.3334 15.1977 20.4455 15.4056 20.5507 15.6211C20.6557 15.8362 20.7606 16.071 20.8407 16.2969C20.9147 16.5054 20.993 16.7759 20.9931 17.0391Z" fill="#161616"/>
</svg>
