<svg width="24" height="24" viewBox="0 0 24 24" fill="none" xmlns="http://www.w3.org/2000/svg">
<path d="M19.75 12C19.75 7.71979 16.2802 4.25 12 4.25C7.71979 4.25 4.25 7.71979 4.25 12C4.25 16.2802 7.71979 19.75 12 19.75C16.2802 19.75 19.75 16.2802 19.75 12ZM9.6748 7.67285C10.0886 7.47976 10.5238 7.55382 10.8662 7.72754L11.0068 7.80762L11.0498 7.83691L15.2725 10.9463C15.6068 11.1514 16.0022 11.5146 16.0029 12.0771C16.0036 12.6401 15.6042 13.0177 15.2754 13.2363L15.2764 13.2373L11.0859 16.168C11.0645 16.1829 11.0424 16.1973 11.0195 16.21C10.6787 16.3986 10.1572 16.5721 9.6582 16.3057C9.15146 16.035 9.00968 15.4954 8.98535 15.0869C8.98452 15.073 8.98442 15.0589 8.98438 15.0449L8.9668 8.91016V8.90918C8.96076 8.42086 9.16521 7.91079 9.6748 7.67285ZM10.4834 14.7578L14.2979 12.0908L10.4678 9.27051L10.4834 14.7578ZM21.25 12C21.25 17.1086 17.1086 21.25 12 21.25C6.89137 21.25 2.75 17.1086 2.75 12C2.75 6.89137 6.89137 2.75 12 2.75C17.1086 2.75 21.25 6.89137 21.25 12Z" fill="#161616"/>
</svg>
