<svg width="24" height="24" viewBox="0 0 24 24" fill="none" xmlns="http://www.w3.org/2000/svg">
<path d="M9.67188 7.66787C10.0859 7.47451 10.5217 7.54959 10.8643 7.72353L11.0049 7.80361L11.0273 7.81728L11.0479 7.83291L15.2734 10.9462C15.6071 11.1519 15.9992 11.5147 16 12.0751C16.0007 12.6376 15.6022 13.0153 15.2734 13.2343L15.2744 13.2353L11.084 16.1679L11.0518 16.1903L11.0166 16.2099C10.6759 16.3985 10.1552 16.572 9.65625 16.3056C9.14957 16.0348 9.00771 15.4953 8.9834 15.0868L8.98242 15.0653L8.98145 15.0448L8.96387 8.90615L8.96484 8.90517C8.95885 8.41699 9.1623 7.90597 9.67188 7.66787ZM10.4805 14.7587L14.2949 12.0888L10.4648 9.2665L10.4805 14.7587Z" fill="#161616"/>
</svg>
