<svg width="28" height="28" viewBox="0 0 28 28" fill="none" xmlns="http://www.w3.org/2000/svg">
<path d="M2 8H26V20H2V8Z" fill="#657596"/>
<path d="M3 10.9922C3 10.4399 3.44772 9.99219 4 9.99219C4.55228 9.99219 5 10.4399 5 10.9922C5 11.5445 4.55228 11.9922 4 11.9922C3.44772 11.9922 3 11.5445 3 10.9922Z" fill="#C9EDCC"/>
<path d="M1 19.5C1 19.2239 1.22386 19 1.5 19H26.5C26.7761 19 27 19.2239 27 19.5V20.5C27 20.7761 26.7761 21 26.5 21H1.5C1.22386 21 1 20.7761 1 20.5V19.5Z" fill="#9BB0DF"/>
<path d="M1 7.5C1 7.22386 1.22386 7 1.5 7H26.5C26.7761 7 27 7.22386 27 7.5V8.5C27 8.77614 26.7761 9 26.5 9H1.5C1.22386 9 1 8.77614 1 8.5V7.5Z" fill="#9BB0DF"/>
<path d="M1 13.5C1 13.2239 1.22386 13 1.5 13H26.5C26.7761 13 27 13.2239 27 13.5V14.5C27 14.7761 26.7761 15 26.5 15H1.5C1.22386 15 1 14.7761 1 14.5V13.5Z" fill="#9BB0DF"/>
</svg>
