<svg width="24" height="24" viewBox="0 0 24 24" fill="none" xmlns="http://www.w3.org/2000/svg">
<path d="M19.75 12C19.75 7.71979 16.2802 4.25 12 4.25C7.71979 4.25 4.25 7.71979 4.25 12C4.25 16.2802 7.71979 19.75 12 19.75C16.2802 19.75 19.75 16.2802 19.75 12ZM14.6436 10.5342C14.6436 9.51159 13.8146 8.68262 12.792 8.68262H10.2617V12.3857H12.792C13.8145 12.3857 14.6434 11.5566 14.6436 10.5342ZM21.25 12C21.25 17.1086 17.1086 21.25 12 21.25C6.89137 21.25 2.75 17.1086 2.75 12C2.75 6.89137 6.89137 2.75 12 2.75C17.1086 2.75 21.25 6.89137 21.25 12ZM16.1436 10.5342C16.1434 12.3851 14.6429 13.8857 12.792 13.8857H10.2617V17.5381H8.76172V7.93262C8.76172 7.51841 9.09751 7.18262 9.51172 7.18262H12.792C14.643 7.18262 16.1436 8.68315 16.1436 10.5342Z" fill="#161616"/>
</svg>
