<svg width="24" height="24" viewBox="0 0 24 24" fill="none" xmlns="http://www.w3.org/2000/svg">
<path d="M22.7384 12.5689C22.3305 12.9767 21.8035 13.025 21.5389 13.0253C21.5358 13.0253 21.5324 13.0253 21.5293 13.0253C21.5276 13.0253 21.526 13.0246 21.5244 13.0246C21.1462 13.0372 20.7747 13.0352 20.3954 13.0295C20.3013 13.0281 20.2058 13.0267 20.1061 13.026C20.011 13.0254 19.9121 13.0246 19.8119 13.0232L18.1194 13.0253C17.6902 13.0258 17.2171 12.9281 16.8613 12.5723C16.5055 12.2165 16.4078 11.7434 16.4083 11.3142C16.4084 11.153 16.4055 10.9522 16.409 10.768C16.4077 10.6545 16.4066 10.5807 16.4062 10.5401C16.4059 10.5026 16.405 10.4481 16.411 10.3875C16.4123 10.3746 16.4137 10.3636 16.4145 10.3578C16.4156 10.349 16.4153 10.3501 16.4159 10.3453C16.4163 10.342 16.4175 10.3355 16.4186 10.3233C16.4212 10.2952 16.4266 10.2376 16.4331 10.1209H16.4317C16.4318 10.0613 16.4226 10.0298 16.4186 10.018C16.415 10.0073 16.4125 10.0028 16.4103 10.0001C16.4022 9.98985 16.3784 9.96621 16.2964 9.92343C15.6316 9.65005 14.8969 9.47394 13.885 9.35443L13.2042 9.29643C11.6357 9.18981 10.2115 9.28976 8.86901 9.59336C8.70418 9.63042 8.54316 9.68431 8.35249 9.74804C8.19969 9.79911 8.0151 9.86057 7.83597 9.9041C7.82771 9.90641 7.82058 9.90877 7.81457 9.91031C7.81246 9.91085 7.81038 9.91188 7.80835 9.91238C7.75636 9.93132 7.73863 9.94619 7.72963 9.9552C7.71598 9.96885 7.70669 9.98477 7.69994 10.0111C7.69219 10.0415 7.691 10.0702 7.69096 10.1113L7.68958 11.3266C7.6893 11.5852 7.64904 12.1419 7.23383 12.5571L7.15511 12.6303C6.77003 12.9613 6.30071 13.0047 6.02884 12.997C6.02743 12.997 6.02639 12.9977 6.02539 12.9977C6.02456 12.9977 6.02372 12.9977 6.02263 12.9977C6.02147 12.9977 6.02033 12.997 6.01918 12.997L2.60656 13.0011L2.47536 12.9956C1.83319 12.9396 1.43437 12.453 1.25587 12.1891C1.14416 12.0238 1.0623 11.8637 1.00935 11.7478C0.982427 11.6889 0.961844 11.6386 0.947206 11.6014C0.939867 11.5828 0.934336 11.5671 0.929943 11.5552C0.927758 11.5492 0.925882 11.5441 0.924418 11.54C0.923759 11.5381 0.922859 11.5366 0.922347 11.5351L0.921656 11.5331V11.5317C0.893466 11.4505 0.878804 11.3642 0.879534 11.2783C0.879539 11.2776 0.879523 11.2753 0.879534 11.2741C0.879559 11.2713 0.880179 11.2666 0.880224 11.261C0.880316 11.2497 0.880066 11.2327 0.880224 11.2113C0.880538 11.1684 0.880526 11.1066 0.880915 11.031C0.881694 10.8797 0.882647 10.6736 0.882296 10.4551C0.881563 10.0021 0.876161 9.54346 0.86227 9.37031C0.861311 9.35839 0.860587 9.34567 0.860199 9.33372C0.832251 8.46964 1.12966 7.74395 1.75375 7.11986C1.79659 7.07702 1.86412 7.01037 1.93536 6.94792C3.02892 5.98575 4.35882 5.44958 5.32519 5.10765L5.32864 5.10696C8.03585 4.16345 10.8895 3.81284 13.8015 4.06701L13.8049 4.0677C16.2015 4.28836 18.171 4.77492 19.9949 5.61174C21.1161 6.12228 21.9274 6.67459 22.5423 7.39953L22.5443 7.4016C22.9894 7.9301 23.2128 8.54165 23.2121 9.23359L23.2093 11.348V11.3715C23.1959 11.7837 23.0751 12.2321 22.7384 12.5689ZM21.6798 11.5048C21.6891 11.4851 21.7061 11.4332 21.7102 11.3294L21.7123 9.23221C21.7126 8.89513 21.614 8.62647 21.3967 8.36835C21.0246 7.9302 20.5182 7.54065 19.7297 7.14611L19.3734 6.97623L19.3713 6.97554C17.7322 6.22326 15.9343 5.7707 13.671 5.56202L13.1648 5.52404C10.6366 5.36838 8.169 5.70541 5.82238 6.52324C4.89143 6.85277 3.79226 7.31092 2.92559 8.07349L2.9242 8.07487C2.89663 8.099 2.8644 8.13054 2.81441 8.18052C2.51324 8.4817 2.37991 8.77164 2.36073 9.12863L2.35935 9.28607C2.37684 9.54461 2.38217 10.0438 2.38283 10.4531C2.38319 10.6758 2.38224 10.8851 2.38145 11.0386C2.38126 11.0745 2.38163 11.1074 2.38145 11.1367C2.41106 11.2002 2.45029 11.2776 2.49884 11.3494C2.55279 11.4291 2.5998 11.4774 2.63073 11.5006L2.6328 11.5013L6.0178 11.4972C6.02077 11.4972 6.0225 11.4979 6.02401 11.4978C6.0255 11.4978 6.02725 11.4972 6.03023 11.4972C6.0417 11.4972 6.05329 11.498 6.06475 11.4985C6.08456 11.4994 6.10541 11.499 6.12552 11.4972C6.14374 11.4955 6.15895 11.4924 6.1704 11.4896C6.17122 11.487 6.1716 11.4837 6.17248 11.4806C6.18334 11.4414 6.18966 11.3872 6.18974 11.3252L6.19112 10.1099C6.19125 9.9857 6.18112 9.38239 6.66897 8.89454C6.86403 8.69947 7.09294 8.56838 7.34638 8.48367C7.37384 8.4745 7.39739 8.46825 7.41267 8.46433C7.42159 8.46205 7.43011 8.46023 7.43615 8.45881L7.40508 8.46779L7.47137 8.44983C7.57703 8.425 7.70071 8.38368 7.87671 8.32485C8.05781 8.26432 8.2881 8.18781 8.53825 8.1315C10.2538 7.7435 12.0603 7.65939 14.0383 7.86288C14.0439 7.8634 14.0501 7.86292 14.0556 7.86357C15.1705 7.99494 16.0544 8.19944 16.8896 8.54582C16.9056 8.55245 16.9217 8.5595 16.9372 8.56722C16.9434 8.57032 16.9503 8.5738 16.9565 8.57689C16.9626 8.57993 16.9684 8.58352 16.9745 8.58656L16.9849 8.59139C17.1335 8.6686 17.3809 8.81083 17.5856 9.06924C17.7934 9.33159 17.9191 9.66517 17.9295 10.0664C17.9312 10.0869 17.9314 10.1057 17.9316 10.1223L17.9302 10.1941C17.9229 10.3259 17.9166 10.4065 17.9116 10.4614C17.9095 10.4832 17.9084 10.5011 17.9067 10.5159C17.9067 10.5189 17.906 10.5224 17.906 10.5263C17.9064 10.5705 17.9073 10.6364 17.9088 10.7735V11.3162C17.9087 11.4181 17.9205 11.4755 17.9288 11.5048C17.958 11.5131 18.0157 11.5256 18.118 11.5255L19.8105 11.5234H19.8216C19.9189 11.5248 20.0168 11.5262 20.1164 11.5269C20.2151 11.5275 20.3164 11.5281 20.4175 11.5296C20.7999 11.5354 21.1473 11.5376 21.4934 11.5255C21.5018 11.5252 21.5105 11.5248 21.5189 11.5248C21.5219 11.5248 21.5249 11.5255 21.5279 11.5255C21.5308 11.5255 21.5339 11.5248 21.5369 11.5248C21.5892 11.5247 21.6331 11.5191 21.6632 11.5103C21.6707 11.5081 21.6763 11.5062 21.6798 11.5048ZM16.4352 10.152C16.4359 10.1732 16.437 10.1978 16.4407 10.2252C16.4373 10.2009 16.4362 10.1766 16.4352 10.152ZM16.4435 10.2473C16.4491 10.2812 16.4567 10.3187 16.4697 10.3578C16.4577 10.3217 16.4498 10.2846 16.4435 10.2473ZM17.9288 10.2107C17.9289 10.2093 17.9293 10.2068 17.9295 10.2045C17.9291 10.2087 17.9282 10.2118 17.9281 10.2128L17.9288 10.2107Z" fill="#161616"/>
<path d="M11.2501 21.0626L11.2501 13.8106L9.13189 15.9288L8.07134 14.8682L11.4698 11.4698C11.7627 11.1769 12.2374 11.1769 12.5303 11.4698L15.9288 14.8682L14.8682 15.9288L12.7501 13.8106L12.7501 21.0626L11.2501 21.0626Z" fill="#161616"/>
</svg>
