<svg width="24" height="24" viewBox="0 0 24 24" fill="none" xmlns="http://www.w3.org/2000/svg">
<path d="M13.9762 20.8388C14.6967 21.4264 15.7596 21.3842 16.4313 20.7128L21.0338 16.1103C21.75 15.3938 21.7502 14.232 21.0338 13.5156L19.1159 11.5986C18.8014 11.2842 18.4015 11.1077 17.9908 11.0693L16.3414 6.42083C16.0617 5.63245 15.3882 5.04892 14.568 4.8847L3.96839 2.76458C3.72497 2.71589 3.47273 2.79091 3.29554 2.96477C3.11853 3.13856 3.03873 3.38861 3.08265 3.63274L5.01722 14.3593C5.17431 15.2304 5.80224 15.9429 6.6471 16.207L11.3922 17.6904C11.4346 18.0938 11.6104 18.4857 11.9196 18.7949L13.8366 20.7128L13.9762 20.8388ZM7.09534 14.7753C6.78368 14.6779 6.55185 14.415 6.49378 14.0937L4.98401 5.72454L8.00843 8.74895C7.36034 9.86585 7.51132 11.3189 8.46741 12.2753C9.60751 13.4154 11.4562 13.4154 12.5963 12.2753C13.7364 11.1352 13.7364 9.28651 12.5963 8.14641C11.6396 7.18999 10.186 7.03955 9.06897 7.68841L6.10218 4.72161L14.2731 6.3554L14.3844 6.38469C14.6361 6.47044 14.838 6.66728 14.9283 6.9218L16.5709 11.5536C16.5547 11.5687 16.5369 11.5828 16.5211 11.5986L11.9196 16.2001C11.899 16.2207 11.8804 16.2433 11.861 16.2646L7.09534 14.7753ZM11.5358 11.2148C10.9815 11.769 10.0833 11.7689 9.52894 11.2148C8.97462 10.6605 8.97462 9.76225 9.52894 9.20794C10.0833 8.65362 10.9815 8.65362 11.5358 9.20794C12.0899 9.76226 12.09 10.6605 11.5358 11.2148ZM15.3707 19.6523C15.2564 19.7664 15.0796 19.7809 14.9498 19.6952L14.8971 19.6523L12.9801 17.7343C12.8494 17.6036 12.8494 17.3914 12.9801 17.2607L17.5817 12.6591C17.7124 12.5284 17.9246 12.5284 18.0553 12.6591L19.9733 14.5761C20.1039 14.7067 20.1037 14.919 19.9733 15.0497L15.3707 19.6523Z" fill="#161616"/>
</svg>
