<svg width="24" height="24" viewBox="0 0 24 24" fill="none" xmlns="http://www.w3.org/2000/svg">
<path d="M5.96973 19.0398C5.96964 18.4821 5.51772 18.03 4.95996 18.03C4.40231 18.0302 3.95028 18.4821 3.9502 19.0398C3.9502 19.5975 4.40226 20.0494 4.95996 20.0496C5.51777 20.0496 5.96973 19.5976 5.96973 19.0398ZM13.0098 19.0398C13.0097 18.4821 12.5578 18.03 12 18.03C11.4423 18.0301 10.9903 18.4821 10.9902 19.0398C10.9902 19.5975 11.4423 20.0495 12 20.0496C12.5578 20.0496 13.0098 19.5976 13.0098 19.0398ZM20.0498 19.0398C20.0497 18.4821 19.5978 18.03 19.04 18.03C18.4824 18.0301 18.0304 18.4821 18.0303 19.0398C18.0303 19.5975 18.4823 20.0495 19.04 20.0496C19.5978 20.0496 20.0498 19.5976 20.0498 19.0398ZM17.8506 4.29956C17.8504 4.10644 17.6932 3.94995 17.5 3.94995H6.5C6.30692 3.95006 6.1506 4.10651 6.15039 4.29956V6.49976C6.15039 6.69299 6.30679 6.85024 6.5 6.85034H17.5C17.6933 6.85034 17.8506 6.69306 17.8506 6.49976V4.29956ZM21.5498 19.0398C21.5498 20.426 20.4263 21.5496 19.04 21.5496C17.6539 21.5495 16.5303 20.426 16.5303 19.0398C16.5303 17.9149 17.2702 16.9622 18.29 16.6433V12.2195C18.2898 12.1479 18.2318 12.0896 18.1602 12.0896H12.75V16.6433C13.77 16.9621 14.5097 17.9147 14.5098 19.0398C14.5098 20.426 13.3862 21.5496 12 21.5496C10.6139 21.5495 9.49023 20.426 9.49023 19.0398C9.4903 17.9149 10.2302 16.9622 11.25 16.6433V12.0896H5.83984C5.76836 12.0898 5.71021 12.148 5.70996 12.2195V16.6433C6.73 16.9621 7.46966 17.9147 7.46973 19.0398C7.46973 20.426 6.34619 21.5496 4.95996 21.5496C3.57383 21.5494 2.4502 20.426 2.4502 19.0398C2.45026 17.9149 3.19015 16.9622 4.20996 16.6433V12.2195C4.21021 11.3196 4.93994 10.5898 5.83984 10.5896H18.1602C19.0602 10.5896 19.7898 11.3195 19.79 12.2195V16.6433C20.81 16.9621 21.5497 17.9148 21.5498 19.0398ZM19.3506 6.49976C19.3506 7.52148 18.5217 8.35034 17.5 8.35034H6.5C5.47836 8.35024 4.65039 7.52142 4.65039 6.49976V4.29956C4.6506 3.27808 5.47849 2.45006 6.5 2.44995H17.5C18.5216 2.44995 19.3504 3.27801 19.3506 4.29956V6.49976Z" fill="#161616"/>
</svg>
