<svg width="28" height="28" viewBox="0 0 28 28" fill="none" xmlns="http://www.w3.org/2000/svg">
<path d="M20.1897 9.98633C21.5677 9.98636 22.6848 11.1034 22.6848 12.4814C22.6848 13.8594 21.5677 14.9765 20.1897 14.9766L9.05005 14.9775C6.86942 14.9777 5.10203 16.7452 5.10181 18.9258C5.10181 21.1066 6.86926 22.8749 9.05005 22.875L12.718 22.875L12.718 21.375L9.05005 21.375C7.69769 21.3749 6.60181 20.2782 6.60181 18.9258C6.60203 17.5736 7.69781 16.4776 9.05005 16.4775L20.1897 16.4766C22.3961 16.4764 24.1848 14.6878 24.1848 12.4814C24.1848 10.275 22.3961 8.48636 20.1897 8.48633L14.3157 8.48633L14.3157 9.98633L20.1897 9.98633Z" fill="#657596"/>
<path d="M20.0579 22.1045C20.0578 20.8343 19.0282 19.8047 17.7581 19.8047C16.488 19.8048 15.4584 20.8344 15.4583 22.1045C15.4583 23.3747 16.4879 24.4042 17.7581 24.4043V25.9043C15.6595 25.9042 13.9583 24.2031 13.9583 22.1045C13.9584 20.006 15.6595 18.3048 17.7581 18.3047C19.8567 18.3047 21.5578 20.0059 21.5579 22.1045C21.5579 24.2032 19.8567 25.9043 17.7581 25.9043V24.4043C19.0283 24.4043 20.0579 23.3747 20.0579 22.1045Z" fill="#657596"/>
<path d="M8.56543 2.09766C11.1888 2.09766 13.3154 4.09492 13.3154 6.55859C13.3154 8.87601 10.4306 11.7957 9.15723 12.9717C8.82 13.2827 8.31086 13.2827 7.97363 12.9717C6.70021 11.7957 3.81549 8.87601 3.81543 6.55859C3.81543 4.09492 5.94208 2.09766 8.56543 2.09766ZM8.56543 4.59766C7.42683 4.59766 6.50404 5.52061 6.50391 6.65918C6.50391 7.79786 7.42675 8.7207 8.56543 8.7207C9.70411 8.7207 10.627 7.79786 10.627 6.65918C10.6268 5.52061 9.70403 4.59766 8.56543 4.59766Z" fill="#9BB0DF"/>
</svg>
