<svg width="28" height="28" viewBox="0 0 28 28" fill="none" xmlns="http://www.w3.org/2000/svg">
<g clip-path="url(#clip0_7973_60517)">
<path d="M23.6893 8.43845L14.0033 14.0028L4.31732 8.43845C4.51699 8.09715 4.80041 7.81162 5.14116 7.60847L12.8264 3.20139C13.5561 2.79224 14.4505 2.79224 15.1802 3.20139L22.8654 7.60847C23.2067 7.81071 23.4904 8.09711 23.6893 8.43845Z" fill="white"/>
<path d="M18.5314 11.3994L14.009 13.999L4.32245 8.43457C4.52212 8.09327 4.80592 7.80764 5.14667 7.60449L8.52948 5.66406L18.5314 11.3994ZM12.8322 3.19727C13.5618 2.78835 14.4562 2.7882 15.1857 3.19727L22.8713 7.60449C23.2124 7.80671 23.4957 8.09334 23.6945 8.43457L19.5334 10.8242L9.53143 5.08887L12.8322 3.19727Z" fill="#9791D4"/>
<path d="M14.0037 14.0058V25.1112C13.6327 25.1102 13.2666 25.0263 12.9327 24.8657L5.17685 20.4118C4.81938 20.2068 4.52246 19.9121 4.31589 19.5571C4.10932 19.2022 4.00036 18.7995 3.99994 18.3895V9.62208C4.00188 9.20793 4.11133 8.80128 4.3177 8.44141L14.0037 14.0058Z" fill="#7B74C4"/>
<path d="M24 9.62208V18.3895C23.9995 18.7995 23.8906 19.2022 23.684 19.5571C23.4774 19.9121 23.1805 20.2068 22.823 20.4118L15.0319 24.8774C14.7082 25.0293 14.354 25.1088 13.9962 25.1112V14.0058L23.6822 8.44141C23.8881 8.80145 23.9976 9.20826 24 9.62208Z" fill="#7B74C4"/>
<path d="M21.25 13.4297C25.185 13.4297 28.375 16.6197 28.375 20.5547C28.375 24.4897 25.185 27.6797 21.25 27.6797C17.315 27.6797 14.125 24.4897 14.125 20.5547C14.125 16.6197 17.315 13.4297 21.25 13.4297Z" fill="#3A3480"/>
<path d="M21.25 13.4297C25.185 13.4297 28.375 16.6197 28.375 20.5547C28.375 24.4897 25.185 27.6797 21.25 27.6797C17.315 27.6797 14.125 24.4897 14.125 20.5547C14.125 16.6197 17.315 13.4297 21.25 13.4297Z" stroke="white" stroke-width="1.25"/>
<path d="M18.5806 24.0547V23.0449L21.3306 20.3916C22.1147 19.6074 22.5229 19.1455 22.5229 18.4902C22.5229 17.7705 21.9536 17.3086 21.1909 17.3086C20.3853 17.3086 19.8696 17.8135 19.8804 18.5977H18.5483C18.5376 17.126 19.644 16.1699 21.2017 16.1699C22.7915 16.1699 23.8657 17.1152 23.8657 18.4258C23.8657 19.3066 23.436 20.0156 21.9106 21.4551L20.5249 22.8301V22.8838H23.9839V24.0547H18.5806Z" fill="white"/>
</g>
<defs>
<clipPath id="clip0_7973_60517">
<rect width="28" height="28" fill="white"/>
</clipPath>
</defs>
</svg>
