<svg width="24" height="24" viewBox="0 0 24 24" fill="none" xmlns="http://www.w3.org/2000/svg">
<path d="M21.25 13V9C21.25 8.86193 21.1381 8.75 21 8.75H3C2.86193 8.75 2.75 8.86193 2.75 9V13C2.75 13.1381 2.86193 13.25 3 13.25H7V14.75H3C2.0335 14.75 1.25 13.9665 1.25 13V9C1.25 8.0335 2.0335 7.25 3 7.25H21C21.9665 7.25 22.75 8.0335 22.75 9V13C22.75 13.9665 21.9665 14.75 21 14.75H17V13.25H21C21.1381 13.25 21.25 13.1381 21.25 13Z" fill="#161616"/>
<path d="M7 15.5H17V11.5H7V15.5ZM18.5 16L18.4951 16.1025C18.4472 16.573 18.073 16.9472 17.6025 16.9951L17.5 17H6.5L6.39746 16.9951C5.92703 16.9472 5.55278 16.573 5.50488 16.1025L5.5 16V11C5.5 10.4823 5.89333 10.0562 6.39746 10.0049L6.5 10H17.5L17.6025 10.0049C18.1067 10.0562 18.5 10.4823 18.5 11V16Z" fill="#161616"/>
<path d="M15 12.75V14.25H9V12.75H15Z" fill="#161616"/>
</svg>
