<svg width="24" height="24" viewBox="0 0 24 24" fill="none" xmlns="http://www.w3.org/2000/svg">
<path d="M6.4502 9.95459H7.9502V12.6548H6.4502V9.95459ZM11.25 8.75537H12.75V12.6548H11.25V8.75537ZM16.0498 6.35498H17.5498V12.6548H16.0498V6.35498Z" fill="#161616"/>
<path d="M19.5908 15.7026V17.2026H4.40918V15.7026H19.5908ZM20.0908 15.2026V4.23193C20.0908 3.95579 19.867 3.73193 19.5908 3.73193H4.40918C4.13304 3.73193 3.90918 3.95579 3.90918 4.23193V15.2026C3.90918 15.4788 4.13304 15.7026 4.40918 15.7026V17.2026L4.20508 17.1919C3.1964 17.0896 2.40918 16.2383 2.40918 15.2026V4.23193C2.40918 3.19628 3.1964 2.34494 4.20508 2.24268L4.40918 2.23193H19.5908C20.6954 2.23193 21.5908 3.12736 21.5908 4.23193V15.2026L21.5801 15.4067C21.4778 16.4154 20.6265 17.2026 19.5908 17.2026V15.7026C19.867 15.7026 20.0908 15.4788 20.0908 15.2026Z" fill="#161616"/>
<path d="M10.3018 16.9683L8.50195 21.7681L7.7998 21.5044L7.09766 21.2417L8.89746 16.4409L10.3018 16.9683ZM17.2764 21.1274L15.9102 21.7485L13.7891 17.0815L15.1553 16.4604L17.2764 21.1274Z" fill="#161616"/>
</svg>
