<svg width="24" height="24" viewBox="0 0 24 24" fill="none" xmlns="http://www.w3.org/2000/svg">
<g clip-path="url(#clip0_5739_120837)">
<path d="M15.7684 12.2618C15.8302 12.2001 15.901 12.1277 15.9825 12.0629C16.048 12.0109 16.1177 11.9643 16.1904 11.9228C16.2807 11.8711 16.3746 11.8322 16.4548 11.7978L18.6998 10.8359C19.0403 10.6899 19.2484 10.5988 19.3937 10.5203C19.4569 10.4861 19.4899 10.4632 19.5049 10.4519C19.5187 10.4255 19.5241 10.3966 19.5208 10.367C19.5107 10.3504 19.4883 10.3172 19.4435 10.2634C19.3377 10.1366 19.1778 9.97562 18.9159 9.71374L14.2866 5.0844C14.0246 4.82249 13.8637 4.66257 13.7369 4.55683C13.6823 4.51136 13.6489 4.48876 13.6326 4.4788C13.6031 4.47562 13.574 4.48094 13.5477 4.49469C13.5364 4.50962 13.5135 4.54268 13.4793 4.60586C13.4008 4.75118 13.3104 4.95992 13.1644 5.30054L12.2025 7.54547C12.1681 7.62573 12.1292 7.71959 12.0775 7.80994C12.036 7.88256 11.9887 7.95161 11.9367 8.0171C11.9042 8.05793 11.8705 8.09675 11.8365 8.13242L10.3816 9.58737C10.2706 9.69841 10.1444 9.83012 9.99006 9.93195C9.86605 10.0137 9.73154 10.0788 9.59024 10.1246C9.41419 10.1816 9.23194 10.1977 9.07579 10.2151L6.82741 10.465C6.3361 10.5196 6.01914 10.5559 5.79437 10.6018C5.68689 10.6237 5.63051 10.6427 5.60586 10.6522C5.58995 10.6747 5.58011 10.7007 5.57823 10.7281C5.5911 10.7503 5.62265 10.801 5.69424 10.887C5.84114 11.0632 6.06621 11.2893 6.41585 11.639L12.3613 17.5844C12.7109 17.934 12.9371 18.1592 13.1133 18.3061C13.1973 18.376 13.2479 18.4073 13.2708 18.4207C13.2986 18.419 13.3247 18.4098 13.3474 18.3938C13.3569 18.369 13.3767 18.3129 13.3985 18.2059C13.4444 17.9811 13.48 17.6637 13.5346 17.1722L13.7852 14.9245C13.8026 14.7683 13.8187 14.5862 13.8757 14.4101C13.9215 14.2687 13.9866 14.1343 14.0683 14.0102C14.1702 13.8559 14.3012 13.7291 14.4122 13.618L15.7684 12.2618ZM15.4729 14.6787C15.4031 14.7485 15.3659 14.7862 15.3389 14.8154C15.316 14.8402 15.3155 14.8427 15.3203 14.8354C15.3129 14.8466 15.3072 14.8593 15.303 14.872C15.3055 14.8642 15.3039 14.8668 15.2989 14.8997C15.2929 14.939 15.2864 14.9917 15.2754 15.0902L15.0261 17.3379C14.9748 17.7997 14.9307 18.198 14.868 18.5056C14.8155 18.7629 14.7298 19.0726 14.5248 19.3308L14.4302 19.4378L14.29 19.5628C13.9502 19.8337 13.5143 19.9613 13.0774 19.9122C12.6906 19.8687 12.3839 19.6498 12.1535 19.4579C11.9124 19.2569 11.6291 18.9735 11.3007 18.6451L8.85827 16.2027L4.40364 20.6573L3.34298 19.5967L7.79761 15.142L5.35519 12.6996C5.02669 12.3711 4.7434 12.0879 4.54243 11.8468C4.35047 11.6165 4.13164 11.3097 4.08806 10.9229C4.03203 10.4235 4.20676 9.92504 4.56246 9.57011L4.66949 9.47551C4.92772 9.27045 5.23741 9.1848 5.49468 9.13231C5.80226 9.06957 6.20061 9.02549 6.66237 8.97418L8.91006 8.7249C9.00859 8.71395 9.06131 8.70738 9.10065 8.70142C9.13335 8.69647 9.136 8.69482 9.12827 8.69728C9.14096 8.69312 9.15303 8.68667 9.16418 8.67932C9.16778 8.67632 9.17471 8.67078 9.18489 8.66137C9.21406 8.63441 9.25113 8.59651 9.32093 8.52671L10.7524 7.09524C10.7577 7.08972 10.7604 7.086 10.7621 7.08419C10.7668 7.07824 10.7714 7.07214 10.7752 7.06554C10.7763 7.06334 10.7783 7.05924 10.7814 7.05242C10.7905 7.03258 10.802 7.00536 10.8235 6.95506L11.7861 4.70944C11.9207 4.3954 12.0406 4.11245 12.159 3.89323C12.2785 3.67215 12.4431 3.42295 12.7114 3.24689L12.8516 3.16472C13.1858 2.98981 13.5719 2.93376 13.9447 3.00935L14.0594 3.03835C14.3196 3.11589 14.5285 3.26354 14.6974 3.40433C14.8889 3.56392 15.1055 3.78204 15.3472 4.02374L19.9766 8.65308C20.2182 8.89472 20.4364 9.11147 20.596 9.30287C20.7367 9.47179 20.8845 9.68068 20.9619 9.94093L20.991 10.0556L21.0151 10.2165C21.0533 10.5916 20.962 10.9708 20.7534 11.2889C20.5773 11.5572 20.3275 11.7211 20.1064 11.8406C19.8872 11.959 19.6048 12.0796 19.2909 12.2142L17.0452 13.1768C16.9949 13.1983 16.9677 13.2098 16.9479 13.2189C16.9411 13.222 16.937 13.224 16.9348 13.2251C16.9281 13.2289 16.9214 13.2328 16.9154 13.2375C16.919 13.2347 16.918 13.2355 16.9051 13.2479C16.8893 13.263 16.868 13.2836 16.8291 13.3225L15.4729 14.6787Z" fill="#161616"/>
</g>
<defs>
<clipPath id="clip0_5739_120837">
<rect width="24" height="24" fill="white"/>
</clipPath>
</defs>
</svg>
