<svg width="28" height="28" viewBox="0 0 28 28" fill="none" xmlns="http://www.w3.org/2000/svg">
<path fill-rule="evenodd" clip-rule="evenodd" d="M16.2041 2.01074C17.2128 2.113 18 2.96435 18 4V5.0293C19.9731 5.27536 21.5 6.95825 21.5 8.99805V23.998C21.5 25.1026 20.6046 25.998 19.5 25.998H8.5C7.39543 25.998 6.5 25.1026 6.5 23.998V8.99805C6.5 6.95825 8.02686 5.27536 10 5.0293V4C10 2.89543 10.8954 2 12 2H16L16.2041 2.01074ZM12 4.99805H16V3.64648H12V4.99805Z" fill="#657596"/>
<path d="M9.5 12.5C9.5 12.2239 9.72386 12 10 12H18C18.2761 12 18.5 12.2239 18.5 12.5V23.5C18.5 23.7761 18.2761 24 18 24H10C9.72386 24 9.5 23.7761 9.5 23.5V12.5Z" fill="#E6E7EC"/>
<path d="M12 15H16V15.7981H12V15Z" fill="#657596"/>
<path d="M12 16.5201H16V17.8612H12V16.5201Z" fill="#657596"/>
<path d="M12 20.1597H16V22H12V20.1597Z" fill="#657596"/>
<path d="M12 18.547H16V19.4355H12V18.547Z" fill="#657596"/>
<circle cx="14" cy="8" r="1" fill="#9BB0DF"/>
</svg>
