<svg width="24" height="24" viewBox="0 0 24 24" fill="none" xmlns="http://www.w3.org/2000/svg">
<path d="M4.4939 16.0664L10.7878 19.7002V12.9804L4.4939 9.10739V16.0664ZM4.98511 7.64841L11.5271 11.6748L13.9998 10.0683L7.60718 6.13473L4.98511 7.64841ZM9.08374 5.2822L15.3064 9.1113L15.3923 9.16403L17.8972 7.53708L11.5378 3.8652L9.08374 5.2822ZM20.0828 12.75H18.5828V8.88083L12.2878 12.9697V21C12.2878 21.2679 12.1449 21.5154 11.9128 21.6494C11.6808 21.7833 11.3948 21.7833 11.1628 21.6494L3.3689 17.1494C3.13687 17.0154 2.9939 16.7679 2.9939 16.5V7.49997C2.9939 7.23204 3.13687 6.98454 3.3689 6.85055L11.1628 2.35055C11.3948 2.21661 11.6808 2.21668 11.9128 2.35055L19.7078 6.85055C19.9396 6.98458 20.0828 7.23215 20.0828 7.49997V12.75Z" fill="#161616"/>
<path d="M20.1314 18C20.1314 16.7573 19.124 15.75 17.8814 15.75C16.6388 15.75 15.6314 16.7573 15.6314 18C15.6314 19.2426 16.6388 20.25 17.8814 20.25C19.124 20.25 20.1314 19.2426 20.1314 18ZM21.6314 18C21.6314 18.8927 21.3182 19.7115 20.7974 20.3554L21.9419 21.5L20.8814 22.5605L19.6353 21.3144C19.1118 21.592 18.5152 21.75 17.8814 21.75C15.8103 21.75 14.1314 20.071 14.1314 18C14.1314 15.9289 15.8103 14.25 17.8814 14.25C19.9525 14.25 21.6314 15.9289 21.6314 18Z" fill="#161616"/>
</svg>
