<svg width="24" height="24" viewBox="0 0 24 24" fill="none" xmlns="http://www.w3.org/2000/svg">
<path d="M12.9951 5.58652C14.3516 5.81389 15.5824 6.45515 16.5605 7.43124C17.5401 8.40881 18.1776 9.63784 18.4101 10.9889L16.9316 11.2428C16.752 10.199 16.2617 9.25192 15.5009 8.49277C14.7389 7.7324 13.79 7.24081 12.747 7.06601L12.9951 5.58652ZM13.1797 1.66074C15.326 2.02392 17.2944 2.99898 18.8965 4.47714L19.2119 4.77988L19.2129 4.78085C20.8696 6.4344 21.9517 8.51765 22.3398 10.8023L20.8603 11.0543C20.5249 9.07981 19.592 7.27821 18.1533 5.84238C16.7135 4.41 14.9072 3.47398 12.9287 3.13925L13.0547 2.39999L13.1797 1.66074Z" fill="#161616"/>
<path d="M6.28417 2.65447C6.86098 2.65447 7.26775 2.99295 7.45507 3.17986C7.45726 3.18205 7.45971 3.18451 7.4619 3.1867C7.46304 3.18784 7.46369 3.18947 7.46483 3.1906C7.74121 3.44912 8.00244 3.71327 8.26659 3.98553C8.33216 4.05308 8.39873 4.12159 8.46874 4.19256C8.53552 4.26025 8.60494 4.33071 8.67479 4.40252L9.87303 5.59783C10.1769 5.90105 10.4424 6.3046 10.4424 6.80779C10.4423 7.31092 10.1768 7.71456 9.87303 8.01775C9.75895 8.13161 9.61904 8.27561 9.48632 8.40349C9.40698 8.48459 9.35561 8.5376 9.32714 8.56658C9.30087 8.59332 9.26291 8.63248 9.21581 8.67107C9.20583 8.67924 9.19702 8.68601 9.19237 8.68963C9.18539 8.69505 9.18639 8.69448 9.1826 8.69744C9.17997 8.6995 9.17449 8.70325 9.16503 8.71111C9.14333 8.72914 9.09881 8.76608 9.01171 8.84392L9.01268 8.8449C8.97046 8.88704 8.95471 8.91582 8.94921 8.92693C8.94422 8.93707 8.94277 8.94204 8.94237 8.94549C8.94087 8.95845 8.94099 8.992 8.96874 9.08025C9.24552 9.74365 9.64052 10.3877 10.2715 11.1877L10.7119 11.7101C11.7456 12.8946 12.8234 13.831 13.9873 14.5656C14.1301 14.656 14.282 14.7317 14.4619 14.8215C14.6061 14.8934 14.78 14.9805 14.9375 15.0763C14.945 15.0806 14.9517 15.0839 14.957 15.0871C14.9589 15.0882 14.9611 15.0889 14.9629 15.09C15.013 15.1134 15.0361 15.1154 15.0488 15.1154C15.0681 15.1154 15.0859 15.1107 15.1094 15.0969C15.1363 15.0809 15.1575 15.0614 15.1865 15.0324L16.0469 14.174C16.2299 13.9914 16.652 13.6262 17.2392 13.6262L17.3467 13.6301C17.853 13.6683 18.2156 13.9695 18.4023 14.1672C18.4033 14.1682 18.4046 14.1684 18.4053 14.1691C18.4059 14.1697 18.4064 14.1703 18.4072 14.1711C18.408 14.1719 18.4084 14.1732 18.4092 14.174L20.8252 16.5842L20.914 16.6808C21.3285 17.1745 21.2665 17.8006 21.206 18.1135C21.1682 18.3093 21.1129 18.4804 21.0683 18.5998C21.0457 18.6605 21.0247 18.7106 21.0088 18.7472C21.0008 18.7656 20.9936 18.7806 20.9883 18.7922C20.9856 18.7979 20.9833 18.8029 20.9814 18.8068C20.9806 18.8086 20.9801 18.8103 20.9795 18.8117L20.9785 18.8137L20.9775 18.8146C20.9401 18.8919 20.8894 18.9634 20.8281 19.0236C20.8277 19.0241 20.8261 19.0257 20.8252 19.0265C20.8232 19.0285 20.8194 19.0314 20.8154 19.0353C20.8074 19.0433 20.7955 19.0554 20.7803 19.0705C20.7497 19.1006 20.706 19.1443 20.6523 19.1974C20.5448 19.3039 20.3984 19.4489 20.2441 19.6037C19.9243 19.9246 19.6038 20.2527 19.4912 20.3849C19.4834 20.394 19.475 20.4036 19.4668 20.4123C18.8755 21.043 18.1521 21.3459 17.2695 21.3459C17.2089 21.3459 17.114 21.3453 17.0195 21.339C15.5659 21.2461 14.2464 20.6849 13.3213 20.2433L13.3183 20.2414C10.7369 18.9943 8.47115 17.2244 6.59178 14.9855L6.58983 14.9826C5.05122 13.1319 4.00266 11.3953 3.30468 9.51385C2.8729 8.36006 2.68975 7.39582 2.76757 6.44842V6.44549C2.82659 5.7571 3.10103 5.16669 3.59081 4.67791L5.08788 3.18474L5.10448 3.16814C5.40547 2.88616 5.80796 2.65452 6.28417 2.65447ZM6.28026 4.15545C6.25978 4.16272 6.21107 4.18745 6.13475 4.25799L4.65038 5.73943C4.41178 5.97754 4.29156 6.23725 4.26268 6.57342C4.21597 7.14634 4.2986 7.77988 4.57714 8.61639L4.70897 8.98846L4.70995 8.99041C5.33707 10.6814 6.28835 12.2727 7.7412 14.0207L8.07225 14.4054C9.74994 16.3033 11.7331 17.8098 13.9707 18.8908C14.862 19.3161 15.9632 19.7693 17.1152 19.8429H17.1172C17.1537 19.8454 17.1988 19.8459 17.2695 19.8459C17.6954 19.8459 17.9947 19.7351 18.2607 19.4963L18.373 19.3859C18.5435 19.1907 18.8927 18.834 19.1816 18.5441C19.3389 18.3863 19.4876 18.239 19.5967 18.131C19.6221 18.1058 19.6452 18.0823 19.666 18.0617C19.6899 17.9959 19.7169 17.9134 19.7334 17.8283C19.7516 17.7338 19.7525 17.6664 19.7471 17.6281L19.7461 17.6262L17.3496 15.2355C17.3475 15.2334 17.3468 15.2317 17.3457 15.2306C17.3446 15.2296 17.3429 15.2288 17.3408 15.2267C17.3327 15.2186 17.3251 15.2098 17.3174 15.2013C17.304 15.1867 17.2889 15.1723 17.2734 15.1594C17.2594 15.1476 17.2464 15.1391 17.2363 15.133C17.2339 15.1342 17.2313 15.1363 17.2285 15.1379C17.1931 15.1579 17.1503 15.1918 17.1064 15.2355L16.2461 16.0939C16.1582 16.1816 15.7387 16.6154 15.0488 16.6154C14.773 16.6154 14.5184 16.5462 14.2793 16.4269C14.2534 16.414 14.2323 16.4018 14.2187 16.3937C14.2108 16.389 14.2035 16.3843 14.1982 16.381L14.2266 16.3967L14.167 16.3625C14.0747 16.3053 13.958 16.2471 13.792 16.1642C13.6211 16.079 13.4042 15.9702 13.1875 15.8332C11.7 14.8944 10.3632 13.6765 9.10839 12.134C9.10486 12.1297 9.1001 12.1256 9.09667 12.1213C8.40122 11.24 7.9208 10.4704 7.57518 9.63494C7.56856 9.61894 7.56212 9.60253 7.55663 9.58611C7.55443 9.57954 7.55199 9.57217 7.54979 9.5656C7.54764 9.55916 7.54609 9.55252 7.54393 9.54607L7.54003 9.53533C7.48948 9.37561 7.41513 9.1001 7.45311 8.77264C7.4917 8.4402 7.63868 8.11544 7.91503 7.82439C7.92834 7.80864 7.94151 7.79528 7.95311 7.78338L8.00487 7.73357C8.10323 7.64556 8.16463 7.59301 8.20702 7.55779C8.22388 7.54379 8.23735 7.53187 8.24901 7.52264C8.25112 7.5205 8.25408 7.51859 8.25682 7.5158C8.28784 7.48422 8.33381 7.43699 8.42968 7.33904L8.81346 6.95525C8.88557 6.88328 8.9178 6.83432 8.9326 6.80779C8.91785 6.78129 8.88588 6.73162 8.81346 6.65935L7.61522 5.46404L7.60741 5.45623C7.53956 5.3864 7.47132 5.31621 7.40135 5.24529C7.33208 5.17507 7.26083 5.10299 7.19042 5.03045C6.92412 4.75598 6.67998 4.50878 6.42675 4.27264C6.42057 4.26687 6.41417 4.26103 6.40819 4.25506C6.40607 4.25294 6.40445 4.25033 6.40233 4.24822C6.40024 4.24613 6.39758 4.24445 6.3955 4.24236C6.35846 4.20541 6.3234 4.17834 6.29589 4.16326C6.28901 4.1595 6.28379 4.15689 6.28026 4.15545ZM9.03221 8.82049C9.04672 8.80502 9.06329 8.78679 9.08007 8.76482C9.06528 8.78442 9.04888 8.80241 9.03221 8.82049ZM9.09374 8.74724C9.11379 8.71929 9.13483 8.68741 9.15331 8.65057C9.13627 8.68454 9.11565 8.71634 9.09374 8.74724ZM8.01757 7.72283C8.01646 7.72375 8.01445 7.72523 8.01268 7.72674C8.01596 7.724 8.01875 7.72248 8.01952 7.72185L8.01757 7.72283Z" fill="#161616"/>
</svg>
