<svg width="30" height="29" viewBox="0 0 30 29" fill="none" xmlns="http://www.w3.org/2000/svg">
<g opacity="0.36">
<path d="M23.6892 8.43845L14.0032 14.0028L4.31726 8.43845C4.51693 8.09715 4.80035 7.81162 5.1411 7.60847L12.8263 3.20139C13.556 2.79224 14.4505 2.79224 15.1801 3.20139L22.8654 7.60847C23.2067 7.81071 23.4903 8.09711 23.6892 8.43845Z" fill="white"/>
<path d="M18.5314 11.3994L14.0089 13.999L4.32239 8.43457C4.52206 8.09327 4.80586 7.80764 5.14661 7.60449L8.52942 5.66406L18.5314 11.3994ZM12.8322 3.19727C13.5618 2.78835 14.4561 2.7882 15.1857 3.19727L22.8712 7.60449C23.2124 7.80671 23.4956 8.09334 23.6945 8.43457L19.5333 10.8242L9.53137 5.08887L12.8322 3.19727Z" fill="#9791D4"/>
<path d="M14.0036 14.0058V25.1112C13.6326 25.1102 13.2665 25.0263 12.9326 24.8657L5.17679 20.4118C4.81932 20.2068 4.5224 19.9121 4.31583 19.5571C4.10926 19.2022 4.0003 18.7995 3.99988 18.3895V9.62208C4.00182 9.20793 4.11127 8.80128 4.31764 8.44141L14.0036 14.0058Z" fill="#7B74C4"/>
<path d="M23.9999 9.62208V18.3895C23.9995 18.7995 23.8905 19.2022 23.6839 19.5571C23.4774 19.9121 23.1805 20.2068 22.823 20.4118L15.0318 24.8774C14.7082 25.0293 14.3539 25.1088 13.9962 25.1112V14.0058L23.6821 8.44141C23.8881 8.80145 23.9975 9.20826 23.9999 9.62208Z" fill="#7B74C4"/>
</g>
<path d="M21.5 13.375C25.435 13.375 28.625 16.565 28.625 20.5C28.625 24.435 25.435 27.625 21.5 27.625C17.565 27.625 14.375 24.435 14.375 20.5C14.375 16.565 17.565 13.375 21.5 13.375Z" fill="#D0D0D0"/>
<path d="M21.5 13.375C25.435 13.375 28.625 16.565 28.625 20.5C28.625 24.435 25.435 27.625 21.5 27.625C17.565 27.625 14.375 24.435 14.375 20.5C14.375 16.565 17.565 13.375 21.5 13.375Z" stroke="white" stroke-width="1.25"/>
<path d="M18.8306 24V22.9902L21.5806 20.3369C22.3647 19.5527 22.7729 19.0908 22.7729 18.4355C22.7729 17.7158 22.2036 17.2539 21.4409 17.2539C20.6353 17.2539 20.1196 17.7588 20.1304 18.543H18.7983C18.7876 17.0713 19.894 16.1152 21.4517 16.1152C23.0415 16.1152 24.1157 17.0605 24.1157 18.3711C24.1157 19.252 23.686 19.9609 22.1606 21.4004L20.7749 22.7754V22.8291H24.2339V24H18.8306Z" fill="white"/>
</svg>
