<svg width="24" height="24" viewBox="0 0 24 24" fill="none" xmlns="http://www.w3.org/2000/svg">
<path d="M17.0605 16L15.8105 17.25H18L18.2227 17.2393C18.7376 17.1881 19.2217 16.96 19.5908 16.5908C19.96 16.2217 20.1881 15.7376 20.2393 15.2227L20.25 15C20.25 14.4033 20.0128 13.8311 19.5908 13.4092C19.1689 12.9872 18.5967 12.75 18 12.75H2.25V11.25H18C18.9946 11.25 19.9481 11.6454 20.6514 12.3486C21.3546 13.0519 21.75 14.0054 21.75 15L21.7451 15.1855C21.6992 16.1125 21.3108 16.992 20.6514 17.6514C19.9481 18.3546 18.9946 18.75 18 18.75H15.8105L17.0605 20L16 21.0605L13.4697 18.5303C13.1768 18.2374 13.1768 17.7626 13.4697 17.4697L16 14.9395L17.0605 16ZM10.75 17.25V18.75H2.25V17.25H10.75ZM21.75 5.25V6.75H2.25V5.25H21.75Z" fill="#161616"/>
</svg>
