<svg width="24" height="24" viewBox="0 0 24 24" fill="none" xmlns="http://www.w3.org/2000/svg">
<path d="M3.25 12C3.25 9.3865 4.39661 7.03972 6.21191 5.4375L6.77441 4.94141L7.7666 6.06641L7.20508 6.5625C5.6987 7.89206 4.75 9.83473 4.75 12C4.75 16.0041 7.99594 19.25 12 19.25C16.0041 19.25 19.25 16.0041 19.25 12C19.25 9.83473 18.3013 7.89206 16.7949 6.5625L17.7881 5.4375C19.6034 7.03972 20.75 9.3865 20.75 12C20.75 16.8325 16.8325 20.75 12 20.75C7.16751 20.75 3.25 16.8325 3.25 12ZM11.25 3.25H12.75V12.25H11.25V3.25ZM17.7881 5.4375L16.7949 6.5625L16.2334 6.06641L17.2256 4.94141L17.7881 5.4375Z" fill="#161616"/>
</svg>
