<svg width="24" height="24" viewBox="0 0 24 24" fill="none" xmlns="http://www.w3.org/2000/svg">
<path d="M19.75 12.7537H12.75V19.0671L17.8633 19.7058C17.9981 19.6471 18.1491 19.6291 18.2969 19.656C18.9931 19.7823 19.75 19.1944 19.75 18.3757V12.7537ZM19.75 5.52514C19.7497 4.83275 19.0997 4.18272 18.2246 4.25561L12.75 4.9392V11.2537H19.75V5.52514ZM4.25 16.8894C4.25022 17.4849 4.70329 18.0177 5.35449 18.1414L5.4873 18.1609L5.50586 18.1628L11.25 18.8796V12.7537H4.25V16.8894ZM4.25 11.2537H11.25V5.1267L5.50586 5.84545C5.4998 5.84621 5.49338 5.8468 5.4873 5.84741C4.76566 5.91954 4.25 6.48355 4.25 7.11889V11.2537ZM21.25 18.3757C21.25 19.9428 19.9533 21.1757 18.4893 21.1726C18.36 21.2354 18.2147 21.2621 18.0693 21.2439L5.31934 19.6511C3.9243 19.5027 2.75023 18.3712 2.75 16.8894V7.11889C2.75 5.63681 3.92411 4.50457 5.31934 4.3562L18.0693 2.76342L18.1006 2.76049C19.7749 2.62121 21.2497 3.88166 21.25 5.52514V18.3757Z" fill="#161616"/>
</svg>
