<svg width="100%" height="100%" overflow="visible" style="display: block;" viewBox="0 0 23.6003 24.8362" fill="none" xmlns="http://www.w3.org/2000/svg">
<g id="Vector">
<path d="M6.72852 23.9078L6.35742 24.8362L4.50065 24.0927L4.87174 23.1643L6.72852 23.9078ZM11.528 23.9078L11.1569 24.8362L9.30013 24.0927L9.67122 23.1643L11.528 23.9078ZM16.3288 23.9078L15.9577 24.8362L14.1009 24.0927L14.472 23.1643L16.3288 23.9078ZM8.30013 19.9794L6.72852 23.9078L5.80013 23.5354L4.87174 23.1643L6.44336 19.2359L8.30013 19.9794ZM13.0996 19.9794L11.528 23.9078L10.5996 23.5354L9.67122 23.1643L11.2428 19.2359L13.0996 19.9794ZM17.9004 19.9794L17.528 20.9078L16.3288 23.9078L15.4004 23.5354L14.472 23.1643L15.6712 20.1643L16.0436 19.2359L17.9004 19.9794Z" fill="var(--fill-0, #161616)"/>
<path d="M3.72858 8.31641V10.3164H0.864001V8.31641H3.72858ZM4.86009 9.31641C4.86009 6.37825 7.24225 3.99609 10.1804 3.99609C12.1846 3.99621 13.928 5.10545 14.8341 6.73828L15.3197 7.61198L13.571 8.58203L13.0854 7.70833C12.5176 6.68522 11.4289 5.99621 10.1804 5.99609C8.34682 5.99609 6.86009 7.48282 6.86009 9.31641V10.3164H4.86009V9.31641ZM6.14134 3.86328L4.72728 5.27734L2.70254 3.2526L4.1166 1.83854L6.14134 3.86328ZM17.6596 3.2526L15.6335 5.27734L14.2195 3.86328L16.2442 1.83854L17.6596 3.2526ZM9.18041 0H11.1804V2.86458H9.18041V0Z" fill="var(--fill-0, #161616)"/>
<path d="M21.6003 17.9558C21.6002 16.1223 20.1135 14.6355 18.2799 14.6355C17.8931 14.6355 17.5236 14.7016 17.181 14.8217C16.6693 15.0012 16.108 14.7401 15.9154 14.2332C15.2845 12.5729 13.6776 11.3959 11.7995 11.3959C9.92157 11.3961 8.31575 12.5731 7.6849 14.2332C7.4923 14.7401 6.93096 15.0012 6.41927 14.8217C6.07664 14.7015 5.70719 14.6355 5.32031 14.6355C3.48676 14.6355 2.00006 16.1223 2 17.9558C2 18.7933 2.30933 19.5573 2.82161 20.142L3.05208 20.3816L3.78255 21.0639L2.41667 22.5248L1.6862 21.8412C0.649923 20.8717 0 19.4889 0 17.9558C5.63506e-05 15.0177 2.38219 12.6355 5.32031 12.6355C5.61793 12.6355 5.91021 12.6612 6.19531 12.7084C7.28451 10.7353 9.38382 9.39612 11.7995 9.39593C14.2152 9.39593 16.3143 10.7354 17.4036 12.7084C17.6891 12.661 17.9819 12.6355 18.2799 12.6355C21.2181 12.6355 23.6002 15.0177 23.6003 17.9558C23.6003 19.4888 22.9503 20.8717 21.9141 21.8412L21.1836 22.5248L19.8164 21.0639L20.5469 20.3816L20.7786 20.142C21.2909 19.5573 21.6003 18.7932 21.6003 17.9558Z" fill="var(--fill-0, #161616)"/>
</g>
</svg>
