<svg width="24" height="24" viewBox="0 0 24 24" fill="none" xmlns="http://www.w3.org/2000/svg">
<path d="M5.94634 8.54871V10.0487H3.7979V8.54871H5.94634ZM6.79497 9.29871C6.79497 7.09509 8.58159 5.30847 10.7852 5.30847C12.2883 5.30856 13.5959 6.14049 14.2754 7.36511L14.6397 8.02039L13.3282 8.74792L12.9639 8.09265C12.5381 7.32531 11.7216 6.80856 10.7852 6.80847C9.41002 6.80847 8.29497 7.92352 8.29497 9.29871V10.0487H6.79497V9.29871ZM7.75591 5.20886L6.69536 6.26941L5.17681 4.75085L6.23736 3.69031L7.75591 5.20886ZM16.3946 4.75085L14.8751 6.26941L13.8145 5.20886L15.3331 3.69031L16.3946 4.75085ZM10.0352 2.3114H11.5352V4.45984H10.0352V2.3114Z" fill="#161616"/>
<path d="M19.3501 15.7783C19.3501 14.4031 18.235 13.288 16.8599 13.288C16.5697 13.288 16.2926 13.3376 16.0356 13.4277C15.6519 13.5623 15.2309 13.3665 15.0864 12.9863C14.6133 11.7411 13.4081 10.8583 11.9995 10.8583C10.5911 10.8585 9.38672 11.7412 8.91357 12.9863C8.76912 13.3665 8.34812 13.5623 7.96436 13.4277C7.70738 13.3376 7.43029 13.2881 7.14014 13.288C5.76497 13.288 4.64994 14.4031 4.6499 15.7783C4.6499 16.4064 4.8819 16.9794 5.26611 17.4179L5.43896 17.5976L5.98682 18.1093L4.9624 19.205L4.41455 18.6923C3.63734 17.9652 3.1499 16.9281 3.1499 15.7783C3.14994 13.5747 4.93655 11.788 7.14014 11.788C7.36335 11.788 7.58256 11.8073 7.79639 11.8427C8.61328 10.3629 10.1878 9.35849 11.9995 9.35835C13.8113 9.35835 15.3856 10.363 16.2026 11.8427C16.4168 11.8072 16.6363 11.788 16.8599 11.788C19.0635 11.788 20.8501 13.5747 20.8501 15.7783C20.8501 16.928 20.3626 17.9652 19.5854 18.6923L19.0376 19.205L18.0122 18.1093L18.5601 17.5976L18.7339 17.4179C19.118 16.9794 19.3501 16.4063 19.3501 15.7783Z" fill="#161616"/>
<path d="M12.6558 20.3136C12.6557 19.9536 12.3637 19.6614 12.0036 19.6614H11.996C11.6359 19.6614 11.3439 19.9536 11.3437 20.3136C11.3437 20.6738 11.6358 20.9658 11.996 20.9658H12.0036C12.3638 20.9658 12.6558 20.6738 12.6558 20.3136Z" fill="#161616"/>
<path d="M9.52548 18.7484C9.52539 18.3884 9.23334 18.0963 8.87325 18.0962H8.86561C8.50545 18.0962 8.21347 18.3883 8.21338 18.7484C8.21338 19.1087 8.50539 19.4007 8.86561 19.4007H8.87325C9.2334 19.4006 9.52548 19.1086 9.52548 18.7484Z" fill="#161616"/>
<path d="M15.7871 18.7484C15.787 18.3884 15.4948 18.0964 15.1348 18.0962H15.1263C14.7663 18.0964 14.4742 18.3884 14.4741 18.7484C14.4741 19.1085 14.7663 19.4005 15.1263 19.4007H15.1348C15.4949 19.4005 15.7871 19.1085 15.7871 18.7484Z" fill="#161616"/>
<path d="M12.0707 17.0685L12.0036 17.0651H11.996C11.6358 17.0651 11.3437 17.3571 11.3437 17.7173C11.3437 18.0776 11.6358 18.3696 11.996 18.3696H12.0036L12.0707 18.3662C12.3995 18.3327 12.6558 18.055 12.6558 17.7173C12.6558 17.3797 12.3995 17.102 12.0707 17.0685Z" fill="#161616"/>
<path d="M8.93949 15.5033L8.87325 15.4999H8.86561C8.50539 15.4999 8.21338 15.7919 8.21338 16.1522C8.21347 16.5123 8.50545 16.8044 8.86561 16.8044H8.87325L8.93949 16.801C9.26847 16.7677 9.52539 16.4899 9.52548 16.1522C9.52548 15.8144 9.26851 15.5366 8.93949 15.5033Z" fill="#161616"/>
<path d="M15.2011 15.5033L15.1348 15.4999H15.1263C14.7663 15.5001 14.4741 15.7921 14.4741 16.1522C14.4742 16.5122 14.7663 16.8042 15.1263 16.8044H15.1348L15.2011 16.801C15.53 16.7677 15.787 16.4898 15.7871 16.1522C15.7871 15.8144 15.53 15.5367 15.2011 15.5033Z" fill="#161616"/>
</svg>
