<svg width="24" height="24" viewBox="0 0 24 24" fill="none" xmlns="http://www.w3.org/2000/svg">
<path d="M16.25 6C16.25 5.30964 15.6904 4.75 15 4.75H9C8.30964 4.75 7.75 5.30964 7.75 6V7.25H16.25V6ZM17.75 8C17.75 8.41421 17.4142 8.75 17 8.75H7C6.58579 8.75 6.25 8.41421 6.25 8V6C6.25 4.48122 7.48122 3.25 9 3.25H15C16.5188 3.25 17.75 4.48122 17.75 6V8Z" fill="#161616"/>
<path d="M16.25 14.75H7.75V18C7.75 18.6904 8.30964 19.25 9 19.25H15C15.6904 19.25 16.25 18.6904 16.25 18V14.75ZM17.75 18C17.75 19.5188 16.5188 20.75 15 20.75H9C7.48122 20.75 6.25 19.5188 6.25 18V14L6.25391 13.9229C6.29253 13.5449 6.61183 13.25 7 13.25H17L17.0771 13.2539C17.4551 13.2925 17.75 13.6118 17.75 14V18Z" fill="#161616"/>
<path d="M20.25 10C20.25 9.30964 19.6904 8.75 19 8.75H5C4.30964 8.75 3.75 9.30964 3.75 10V16.25H7C7.41421 16.25 7.75 16.5858 7.75 17C7.75 17.4142 7.41421 17.75 7 17.75H3C2.58579 17.75 2.25 17.4142 2.25 17V10C2.25 8.48122 3.48122 7.25 5 7.25H19C20.5188 7.25 21.75 8.48122 21.75 10V17C21.75 17.4142 21.4142 17.75 21 17.75H17C16.5858 17.75 16.25 17.4142 16.25 17C16.25 16.5858 16.5858 16.25 17 16.25H20.25V10Z" fill="#161616"/>
<path d="M18.75 10.25V11.75H15.25V10.25L18.75 10.25Z" fill="#161616"/>
</svg>
