<svg width="24" height="24" viewBox="0 0 24 24" fill="none" xmlns="http://www.w3.org/2000/svg">
<path d="M4.35303 16.0665L10.647 19.7002V12.9805L4.35303 9.10748V16.0665ZM21.4575 15.3751L17.5522 19.2803C17.4116 19.4209 17.2208 19.5001 17.022 19.5001C16.8232 19.5 16.6323 19.4209 16.4917 19.2803L14.8364 17.6251L15.897 16.5645L17.022 17.6895L20.397 14.3145L21.4575 15.3751ZM4.84424 7.64849L11.3862 11.6749L13.8589 10.0684L7.46631 6.13482L4.84424 7.64849ZM8.94287 5.28228L15.1655 9.11138L15.2515 9.16412L17.7563 7.53716L11.397 3.86529L8.94287 5.28228ZM19.9419 12.7501H18.4419V8.88091L12.147 12.9698V21.0001C12.147 21.268 12.004 21.5155 11.772 21.6495C11.54 21.7833 11.254 21.7834 11.022 21.6495L3.22803 17.1495C2.996 17.0155 2.85303 16.768 2.85303 16.5001V7.50005C2.85303 7.23212 2.996 6.98462 3.22803 6.85064L11.022 2.35064L11.1118 2.30669C11.3251 2.21887 11.569 2.23353 11.772 2.35064L19.5669 6.85064C19.7987 6.98466 19.9419 7.23224 19.9419 7.50005V12.7501Z" fill="#161616"/>
</svg>
