<svg width="24" height="24" viewBox="0 0 24 24" fill="none" xmlns="http://www.w3.org/2000/svg">
<path d="M20.9966 15.17L19.2065 16.959L20.9966 18.7501L19.936 19.8106L18.146 18.0206L16.3569 19.8106L15.2954 18.7501L15.8267 18.2198L17.0854 16.96L15.2954 15.17L16.356 14.1094L18.146 15.8995L19.936 14.1094L20.9966 15.17ZM4.81299 16.0665L11.1069 19.7002V12.9805L4.81299 9.10748V16.0665ZM5.3042 7.64849L11.8462 11.6749L14.3188 10.0684L7.92627 6.13482L5.3042 7.64849ZM9.40283 5.28228L15.6255 9.11138L15.7114 9.16412L18.2163 7.53716L11.8569 3.86529L9.40283 5.28228ZM20.4019 12.7501H18.9019V8.88091L12.6069 12.9698V21.0001C12.6069 21.268 12.464 21.5155 12.2319 21.6495C11.9999 21.7833 11.7139 21.7834 11.4819 21.6495L3.68799 17.1495C3.45596 17.0155 3.31299 16.768 3.31299 16.5001V7.50005C3.31299 7.23212 3.45596 6.98462 3.68799 6.85064L11.4819 2.35064L11.5718 2.30669C11.785 2.21887 12.029 2.23353 12.2319 2.35064L20.0269 6.85064C20.2587 6.98466 20.4019 7.23224 20.4019 7.50005V12.7501Z" fill="#161616"/>
</svg>
