<svg width="24" height="24" viewBox="0 0 24 24" fill="none" xmlns="http://www.w3.org/2000/svg">
<path d="M14.5537 5.00061C15.2276 4.45083 16.2214 4.49058 16.8496 5.11877L20.9473 9.21545L21.0645 9.34533C21.5777 9.97434 21.5776 10.8823 21.0645 11.5113L20.9473 11.6412L19.2402 13.3483C18.96 13.6285 18.6062 13.7898 18.2412 13.8356L16.7891 17.9274C16.5464 18.6111 15.9837 19.1281 15.2891 19.3151L15.1484 19.3483L5.71191 21.236C5.46873 21.2844 5.21711 21.2094 5.04004 21.0358C4.86285 20.8619 4.78309 20.6111 4.82715 20.3668L6.54883 10.818L6.58105 10.6686C6.76739 9.93135 7.32398 9.33803 8.05664 9.10901L12.2314 7.80334C12.2807 7.44572 12.4419 7.10077 12.7168 6.8258L14.4238 5.11877L14.5537 5.00061ZM8.50391 10.5406C8.28688 10.6086 8.11851 10.7775 8.04883 10.9899L8.02539 11.0836L6.72852 18.276L9.18945 15.8141C8.63061 14.7959 8.78104 13.4922 9.64355 12.6295C10.6906 11.5824 12.3884 11.5825 13.4355 12.6295C14.4827 13.6766 14.4827 15.3744 13.4355 16.4215C12.5724 17.2844 11.2684 17.4344 10.25 16.8746L7.84766 19.278L14.8545 17.8776L14.9424 17.8541C15.143 17.7859 15.304 17.6292 15.376 17.4264L16.8203 13.3541L16.8135 13.3483L12.7168 9.25158C12.7099 9.24473 12.704 9.23703 12.6973 9.2301L8.50391 10.5406ZM12.375 13.6901C11.9137 13.2289 11.1664 13.229 10.7051 13.6901C10.2437 14.1514 10.2437 14.8996 10.7051 15.361C11.1664 15.8218 11.9138 15.8219 12.375 15.361C12.8363 14.8996 12.8363 14.1514 12.375 13.6901ZM15.7891 6.17932C15.7155 6.10575 15.6022 6.09604 15.5186 6.151L15.4844 6.17932L13.7773 7.88635C13.6932 7.97058 13.6932 8.10686 13.7773 8.19104L17.874 12.2877L17.9082 12.316C17.9919 12.3711 18.1061 12.3613 18.1797 12.2877L19.8867 10.5807L19.9141 10.5475C19.9615 10.4758 19.9613 10.3819 19.9141 10.3102L19.8867 10.276L15.7891 6.17932ZM8.8584 4.83752V6.33752H3.18945V4.83752H8.8584Z" fill="#161616"/>
</svg>
