<svg width="28" height="28" viewBox="0 0 28 28" fill="none" xmlns="http://www.w3.org/2000/svg">
<path d="M13.7734 2.25781C11.3581 2.25781 9.39844 4.21745 9.39844 6.63281V14.2919C8.05404 15.4905 7.21094 17.2405 7.21094 19.1819C7.21094 22.8049 10.1504 25.7444 13.7734 25.7444C17.3965 25.7444 20.3359 22.8049 20.3359 19.1819C20.3359 17.2405 19.4928 15.4905 18.1484 14.2919V6.63281C18.1484 4.21745 16.1888 2.25781 13.7734 2.25781Z" fill="#9BB0DF"/>
<path d="M17.0547 18.6172C17.0547 20.427 15.5833 21.8984 13.7734 21.8984C11.9636 21.8984 10.4922 20.427 10.4922 18.6172C10.4922 17.238 11.3381 16.0588 12.543 15.5769V9.18359C12.543 8.50171 13.0916 7.95312 13.7734 7.95312C14.4553 7.95312 15.0039 8.50171 15.0039 9.18359V15.5769C16.2087 16.064 17.0547 17.2432 17.0547 18.6172Z" fill="#657596"/>
</svg>
