<svg width="28" height="28" viewBox="0 0 28 28" fill="none" xmlns="http://www.w3.org/2000/svg">
<path d="M20.7209 8.02337L12.0035 13.0653L3.28613 8.02337C3.46583 7.71411 3.72091 7.45539 4.02759 7.27132L10.9443 3.27805C11.601 2.90732 12.406 2.90732 13.0628 3.27805L19.9795 7.27132C20.2867 7.45456 20.5419 7.71407 20.7209 8.02337Z" fill="#F9C8CA"/>
<path d="M16.0771 10.708L12.0039 13.0654L3.28613 8.02344C3.46576 7.71431 3.72084 7.45554 4.02734 7.27148L7.0752 5.51074L16.0771 10.708ZM10.9443 3.27734C11.6009 2.90679 12.4059 2.90686 13.0625 3.27734L19.9795 7.27148C20.2866 7.45472 20.5417 7.71421 20.7207 8.02344L16.9795 10.1865L7.97754 4.98926L10.9443 3.27734Z" fill="#EE7A80"/>
<path d="M12 13.007V23C11.6662 22.9992 11.3369 22.9237 11.0365 22.7791L4.05882 18.7714C3.73722 18.5869 3.4701 18.3217 3.28425 18.0023C3.09841 17.6829 3.00038 17.3205 3 16.9516V9.06241C3.00175 8.68974 3.10021 8.32382 3.28588 8L12 13.007Z" fill="#E76067"/>
<path d="M21 9.06241V16.9516C20.9996 17.3205 20.9016 17.6829 20.7157 18.0023C20.5299 18.3217 20.2628 18.5869 19.9412 18.7714L12.9318 22.7896C12.6406 22.9264 12.3219 22.9979 12 23V13.007L20.7141 8C20.8994 8.32398 20.9979 8.69004 21 9.06241Z" fill="#E76067"/>
<path d="M19.5 26C23.0899 26 26 23.0899 26 19.5C26 15.9101 23.0899 13 19.5 13C15.9101 13 13 15.9101 13 19.5C13 23.0899 15.9101 26 19.5 26Z" fill="#B84451"/>
<path d="M26 19.5C26 15.9101 23.0899 13 19.5 13C15.9101 13 13 15.9101 13 19.5C13 23.0899 15.9101 26 19.5 26C23.0899 26 26 23.0899 26 19.5ZM27.25 19.5C27.25 23.7802 23.7802 27.25 19.5 27.25C15.2198 27.25 11.75 23.7802 11.75 19.5C11.75 15.2198 15.2198 11.75 19.5 11.75C23.7802 11.75 27.25 15.2198 27.25 19.5Z" fill="white"/>
<path d="M23 21.633C23 21.7901 22.945 21.9237 22.835 22.0337L22.0337 22.835C21.9237 22.945 21.7901 23 21.633 23C21.4759 23 21.3423 22.945 21.2323 22.835L19.5 21.1027L17.7677 22.835C17.6577 22.945 17.5241 23 17.367 23C17.2099 23 17.0763 22.945 16.9663 22.835L16.165 22.0337C16.055 21.9237 16 21.7901 16 21.633C16 21.4759 16.055 21.3423 16.165 21.2323L17.8973 19.5L16.165 17.7677C16.055 17.6577 16 17.5241 16 17.367C16 17.2099 16.055 17.0763 16.165 16.9663L16.9663 16.165C17.0763 16.055 17.2099 16 17.367 16C17.5241 16 17.6577 16.055 17.7677 16.165L19.5 17.8973L21.2323 16.165C21.3423 16.055 21.4759 16 21.633 16C21.7901 16 21.9237 16.055 22.0337 16.165L22.835 16.9663C22.945 17.0763 23 17.2099 23 17.367C23 17.5241 22.945 17.6577 22.835 17.7677L21.1027 19.5L22.835 21.2323C22.945 21.3423 23 21.4759 23 21.633Z" fill="white"/>
</svg>
