<svg width="24" height="24" viewBox="0 0 24 24" fill="none" xmlns="http://www.w3.org/2000/svg">
<path d="M8.19629 20.2423L7.91797 20.9385L6.52539 20.3809L6.80371 19.6846L8.19629 20.2423ZM11.7959 20.2423L11.5176 20.9385L10.125 20.3809L10.4033 19.6846L11.7959 20.2423ZM15.3965 20.2423L15.1182 20.9385L13.7256 20.3809L14.0039 19.6846L15.3965 20.2423ZM9.375 17.296L8.19629 20.2423L7.5 19.963L6.80371 19.6846L7.98242 16.7384L9.375 17.296ZM12.9746 17.296L11.7959 20.2423L11.0996 19.963L10.4033 19.6846L11.582 16.7384L12.9746 17.296ZM16.5752 17.296L16.2959 17.9923L15.3965 20.2423L14.7002 19.963L14.0039 19.6846L14.9033 17.4346L15.1826 16.7384L16.5752 17.296Z" fill="#161616"/>
<path d="M5.94634 8.54871V10.0487H3.7979V8.54871H5.94634ZM6.79497 9.29871C6.79497 7.09509 8.58159 5.30847 10.7852 5.30847C12.2883 5.30856 13.5959 6.14049 14.2754 7.36511L14.6397 8.02039L13.3282 8.74792L12.9639 8.09265C12.5381 7.32531 11.7216 6.80856 10.7852 6.80847C9.41002 6.80847 8.29497 7.92352 8.29497 9.29871V10.0487H6.79497V9.29871ZM7.75591 5.20886L6.69536 6.26941L5.17681 4.75085L6.23736 3.69031L7.75591 5.20886ZM16.3946 4.75085L14.8751 6.26941L13.8145 5.20886L15.3331 3.69031L16.3946 4.75085ZM10.0352 2.3114H11.5352V4.45984H10.0352V2.3114Z" fill="#161616"/>
<path d="M19.3501 15.7783C19.3501 14.4031 18.235 13.288 16.8599 13.288C16.5697 13.288 16.2926 13.3376 16.0356 13.4277C15.6519 13.5623 15.2309 13.3665 15.0864 12.9863C14.6133 11.7411 13.4081 10.8583 11.9995 10.8583C10.5911 10.8585 9.38672 11.7412 8.91357 12.9863C8.76912 13.3665 8.34812 13.5623 7.96436 13.4277C7.70738 13.3376 7.43029 13.2881 7.14014 13.288C5.76497 13.288 4.64994 14.4031 4.6499 15.7783C4.6499 16.4064 4.8819 16.9794 5.26611 17.4179L5.43896 17.5976L5.98682 18.1093L4.9624 19.205L4.41455 18.6923C3.63734 17.9652 3.1499 16.9281 3.1499 15.7783C3.14994 13.5747 4.93655 11.788 7.14014 11.788C7.36335 11.788 7.58256 11.8073 7.79639 11.8427C8.61328 10.3629 10.1878 9.35849 11.9995 9.35835C13.8113 9.35835 15.3856 10.363 16.2026 11.8427C16.4168 11.8072 16.6363 11.788 16.8599 11.788C19.0635 11.788 20.8501 13.5747 20.8501 15.7783C20.8501 16.928 20.3626 17.9652 19.5854 18.6923L19.0376 19.205L18.0122 18.1093L18.5601 17.5976L18.7339 17.4179C19.118 16.9794 19.3501 16.4063 19.3501 15.7783Z" fill="#161616"/>
</svg>
