<svg width="24" height="24" viewBox="0 0 24 24" fill="none" xmlns="http://www.w3.org/2000/svg">
<path d="M20.0713 12C20.0713 7.71979 16.6015 4.25 12.3213 4.25C8.04108 4.25 4.57129 7.71979 4.57129 12C4.57129 16.2802 8.04108 19.75 12.3213 19.75C13.0337 19.75 13.7224 19.6538 14.376 19.4746L14.4746 19.4424C14.96 19.2574 15.3115 18.7233 15.3115 18.043V17.876C15.3115 17.706 15.2713 17.5378 15.1953 17.3857C14.5545 16.1038 15.0745 14.5452 16.3564 13.9043L16.4932 13.8408C16.8161 13.7022 17.1641 13.6299 17.5166 13.6299H18.0713C19.2337 13.6299 20.0713 12.8814 20.0713 12ZM8.05566 15.2051C8.34851 14.9125 8.8234 14.9125 9.11621 15.2051C9.4091 15.498 9.4091 15.9737 9.11621 16.2666L9.0957 16.2871C8.8029 16.5799 8.32807 16.5797 8.03516 16.2871C7.74226 15.9942 7.74226 15.5195 8.03516 15.2266L8.05566 15.2051ZM7.03809 11.25C7.45222 11.25 7.78796 11.5859 7.78809 12C7.78809 12.4142 7.4523 12.75 7.03809 12.75H7.00879C6.59458 12.75 6.25879 12.4142 6.25879 12C6.25891 11.5859 6.59465 11.25 7.00879 11.25H7.03809ZM15.5479 7.71289C15.8407 7.42035 16.3156 7.42031 16.6084 7.71289C16.9013 8.00578 16.9013 8.48152 16.6084 8.77441L16.5879 8.79492C16.2951 9.08773 15.8203 9.08755 15.5273 8.79492C15.2344 8.50203 15.2345 8.02727 15.5273 7.73438L15.5479 7.71289ZM8.03516 7.71289C8.30963 7.43868 8.74361 7.42128 9.03809 7.66113L9.0957 7.71289L9.11621 7.7334C9.4091 8.02629 9.4091 8.50203 9.11621 8.79492C8.8234 9.08749 8.34851 9.08745 8.05566 8.79492L8.03516 8.77344L7.9834 8.7168C7.74302 8.42221 7.76053 7.98752 8.03516 7.71289ZM11.5713 6.7168V6.6875C11.5713 6.27336 11.9072 5.93762 12.3213 5.9375C12.7355 5.9375 13.0713 6.27329 13.0713 6.6875V6.7168C13.0713 7.13101 12.7355 7.4668 12.3213 7.4668C11.9072 7.46668 11.5713 7.13094 11.5713 6.7168ZM21.5713 12C21.5713 13.9769 19.7671 15.1299 18.0713 15.1299H17.5166C17.3891 15.1299 17.2628 15.1521 17.1436 15.1953L17.0273 15.2461C16.4864 15.5166 16.2668 16.1739 16.5371 16.7148C16.7173 17.0752 16.8115 17.4731 16.8115 17.876V18.043C16.8115 19.1899 16.2012 20.3923 15.0176 20.8418L14.7734 20.9209C13.9918 21.1353 13.1691 21.25 12.3213 21.25C7.21266 21.25 3.07129 17.1086 3.07129 12C3.07129 6.89137 7.21266 2.75 12.3213 2.75C17.4299 2.75 21.5713 6.89137 21.5713 12Z" fill="#161616"/>
</svg>
