<svg width="24" height="24" viewBox="0 0 24 24" fill="none" xmlns="http://www.w3.org/2000/svg">
<path d="M20.6606 15.0605L19.686 14.5732C18.8837 14.1721 17.9386 14.1721 17.1362 14.5732L16.1606 15.0605V17.9424C16.1606 18.0641 16.22 18.2831 16.4946 18.6221C16.7658 18.9567 17.1952 19.3438 17.8032 19.7852C18.1619 20.0455 18.662 20.0521 19.0474 19.7891C20.3337 18.9109 20.6606 18.4296 20.6606 17.9424V15.0605ZM6.66846 9.55273L6.74561 9.55664C7.12373 9.59512 7.41846 9.91446 7.41846 10.3027C7.41826 10.6909 7.12364 11.0104 6.74561 11.0488L6.66846 11.0527H6.52881C6.11473 11.0527 5.77902 10.7168 5.77881 10.3027C5.77881 9.88852 6.11459 9.55273 6.52881 9.55273H6.66846ZM12.1401 9.55273C12.5543 9.55285 12.8901 9.88859 12.8901 10.3027C12.8899 10.7167 12.5541 11.0526 12.1401 11.0527H11.9995C11.5856 11.0525 11.2497 10.7166 11.2495 10.3027C11.2495 9.88865 11.5855 9.55294 11.9995 9.55273H12.1401ZM17.4692 9.55273C17.8835 9.55273 18.2192 9.88852 18.2192 10.3027C18.219 10.7168 17.8833 11.0527 17.4692 11.0527H17.3296C16.9155 11.0527 16.5798 10.7168 16.5796 10.3027C16.5796 9.88852 16.9154 9.55273 17.3296 9.55273H17.4692ZM20.8501 7.03613C20.8501 6.27214 20.2303 5.65234 19.4663 5.65234H4.53369C3.7697 5.65234 3.1499 6.27214 3.1499 7.03613V13.5693C3.15008 14.3332 3.76981 14.9521 4.53369 14.9521H12.1499V16.4521H4.53369C2.94138 16.4521 1.65008 15.1616 1.6499 13.5693V7.03613C1.6499 5.44371 2.94127 4.15234 4.53369 4.15234H19.4663C21.0587 4.15234 22.3501 5.44371 22.3501 7.03613V11.0527H20.8501V7.03613ZM22.1606 17.9424C22.1606 19.3007 21.1255 20.186 19.8931 21.0273C19.004 21.6342 17.8125 21.6451 16.9224 20.999C16.264 20.5212 15.7178 20.0454 15.3296 19.5664C14.945 19.0918 14.6606 18.5458 14.6606 17.9424V14.5977C14.6606 14.3136 14.8216 14.0538 15.0757 13.9268L16.4653 13.2314C17.69 12.6191 19.1323 12.6191 20.3569 13.2314L21.7466 13.9268C22.0006 14.0538 22.1606 14.3136 22.1606 14.5977V17.9424Z" fill="#161616"/>
</svg>
