<svg width="24" height="24" viewBox="0 0 24 24" fill="none" xmlns="http://www.w3.org/2000/svg">
<path d="M8.06934 17.4629C8.06917 16.568 7.33965 15.8369 6.43359 15.8369C5.52762 15.837 4.79801 16.568 4.79785 17.4629C4.79785 18.3579 5.52752 19.0888 6.43359 19.0889C7.33975 19.0889 8.06934 18.358 8.06934 17.4629ZM20.5293 19.4688L19.4707 20.5312L3.4707 4.59668L4.5293 3.5332L20.5293 19.4688ZM19.2021 6.37598C19.2021 5.48097 18.4725 4.75009 17.5664 4.75C16.6603 4.75 15.9307 5.48091 15.9307 6.37598C15.9307 7.27099 16.6603 8.00195 17.5664 8.00195C18.4724 8.00186 19.2021 7.27093 19.2021 6.37598ZM9.56934 17.4629C9.56934 19.1921 8.16242 20.5889 6.43359 20.5889C4.70484 20.5888 3.29785 19.1921 3.29785 17.4629C3.29801 15.7339 4.70494 14.337 6.43359 14.3369C8.16232 14.3369 9.56917 15.7338 9.56934 17.4629ZM20.7021 6.37598C20.7021 8.1051 19.2951 9.50186 17.5664 9.50195C15.8376 9.50195 14.4307 8.10515 14.4307 6.37598C14.4307 4.64674 15.8376 3.25 17.5664 3.25C19.2952 3.25009 20.7021 4.6468 20.7021 6.37598Z" fill="#161616"/>
</svg>
