<svg width="28" height="28" viewBox="0 0 28 28" fill="none" xmlns="http://www.w3.org/2000/svg">
<path d="M4.41034 8.32422C5.07717 8.14554 5.76291 8.54118 5.94159 9.20801L7.7619 16.001H20.258L22.0598 9.27637C22.2386 8.60986 22.9234 8.21409 23.59 8.39258C24.2569 8.57126 24.6525 9.257 24.4738 9.92383L22.8 16.168C23.5062 16.4766 24.0002 17.1809 24.0002 18.001V21.001C24.0002 22.1055 23.1046 23.0009 22.0002 23.001H6.00018C4.89563 23.001 4.00022 22.1055 4.00018 21.001V18.001C4.00018 17.1746 4.50105 16.465 5.216 16.1602L3.52655 9.85449C3.34811 9.18784 3.74377 8.50297 4.41034 8.32422Z" fill="#9BB0DF"/>
<path d="M14.0018 9.50149C15.1405 9.50159 16.2328 9.95415 17.038 10.7593C17.3895 11.1108 17.3894 11.6813 17.038 12.0327C16.6866 12.3839 16.117 12.3837 15.7655 12.0327C15.2979 11.5651 14.6632 11.3024 14.0018 11.3023C13.3404 11.3023 12.7059 11.565 12.2382 12.0327C11.8867 12.3842 11.3162 12.3842 10.9647 12.0327C10.6133 11.6813 10.6133 11.1108 10.9647 10.7593C11.77 9.95403 12.863 9.50149 14.0018 9.50149ZM9.16004 8.80422C11.831 6.13259 16.1618 6.13279 18.8329 8.80422C19.1843 9.15574 19.1844 9.72623 18.8329 10.0777C18.4814 10.4288 17.9118 10.4281 17.5604 10.0767C15.5924 8.10835 12.4016 8.10848 10.4335 10.0767C10.0821 10.4282 9.51156 10.4291 9.16004 10.0777C8.80857 9.72623 8.80863 9.15573 9.16004 8.80422ZM7.38075 6.73782C11.0897 3.22281 16.9101 3.22281 20.619 6.73782C20.9797 7.07973 20.9951 7.64952 20.6532 8.01028C20.3113 8.37096 19.7415 8.38627 19.3807 8.04446C16.3661 5.18746 11.6337 5.18746 8.61903 8.04446C8.25827 8.38627 7.68846 8.37096 7.34657 8.01028C7.00468 7.64952 7.02003 7.07973 7.38075 6.73782Z" fill="#657596"/>
</svg>
