<svg width="28" height="28" viewBox="0 0 28 28" fill="none" xmlns="http://www.w3.org/2000/svg">
<g clip-path="url(#clip0_6533_60956)">
<path d="M20 1C21.1046 1 22 1.89543 22 3L22 25C22 26.1046 21.1046 27 20 27L8 27C6.89543 27 6 26.1046 6 25L6 3C6 1.89543 6.89543 0.999999 8 0.999999L20 1Z" fill="#8DA3D6"/>
<path d="M20 25V27H8V25H20ZM20 3H8V27L7.7959 26.9893C6.78722 26.887 6 26.0357 6 25V3C6 1.89543 6.89543 1 8 1H20C21.1046 1 22 1.89543 22 3V25L21.9893 25.2041C21.8938 26.1457 21.1457 26.8938 20.2041 26.9893L20 27V3Z" fill="#657596"/>
<path d="M1 9.11486C1 8.49914 1.49914 8 2.11486 8H15.8851C16.5009 8 17 8.49914 17 9.11486V18.8851C17 19.5009 16.5009 20 15.8851 20H2.11486C1.49914 20 1 19.5009 1 18.8851V9.11486Z" fill="#657596"/>
<path d="M-0.115234 18.8828V9.11328C-0.115234 7.88184 0.883793 6.88281 2.11523 6.88281V7.99805L2.00098 8.00391C1.43876 8.06096 1 8.53601 1 9.11328V18.8828C1 19.4601 1.43876 19.9351 2.00098 19.9922L2.11523 19.998H15.8848C16.462 19.998 16.9371 19.5593 16.9941 18.9971L17 18.8828V9.11328C17 8.49756 16.5005 7.99805 15.8848 7.99805V6.88281C17.1162 6.88281 18.1152 7.88184 18.1152 9.11328V18.8828C18.1152 20.1143 17.1162 21.1133 15.8848 21.1133H2.11523C0.883793 21.1133 -0.115234 20.1143 -0.115234 18.8828ZM15.8848 6.88281V7.99805H2.11523V6.88281H15.8848Z" fill="white"/>
<mask id="mask0_6533_60956" style="mask-type:alpha" maskUnits="userSpaceOnUse" x="2" y="9" width="14" height="10">
<path d="M2.5 10.0833C2.5 9.76117 2.76117 9.5 3.08333 9.5H14.9167C15.2388 9.5 15.5 9.76117 15.5 10.0833V17.9167C15.5 18.2388 15.2388 18.5 14.9167 18.5H3.08333C2.76117 18.5 2.5 18.2388 2.5 17.9167V10.0833Z" fill="#657596"/>
</mask>
<g mask="url(#mask0_6533_60956)">
<path d="M6.26282 12.8047C6.65916 12.3724 7.3408 12.3724 7.73713 12.8047L16.4639 22.3248C17.0518 22.9663 16.5968 24.0006 15.7267 24.0006H-1.72679C-2.59689 24.0006 -3.05189 22.9663 -2.46394 22.3249L6.26282 12.8047Z" fill="#CBDBFF"/>
<path d="M11 11.5C11 11.1022 11.158 10.7206 11.4393 10.4393C11.7206 10.158 12.1022 10 12.5 10C12.8978 10 13.2794 10.158 13.5607 10.4393C13.842 10.7206 14 11.1022 14 11.5C14 11.8978 13.842 12.2794 13.5607 12.5607C13.2794 12.842 12.8978 13 12.5 13C12.1022 13 11.7206 12.842 11.4393 12.5607C11.158 12.2794 11 11.8978 11 11.5Z" fill="#CBDBFF"/>
</g>
</g>
<defs>
<clipPath id="clip0_6533_60956">
<rect width="28" height="28" fill="white"/>
</clipPath>
</defs>
</svg>
