<svg width="28" height="28" viewBox="0 0 28 28" fill="none" xmlns="http://www.w3.org/2000/svg">
<path d="M24 4C25.1046 4 26 4.89543 26 6L26 22C26 23.1046 25.1046 24 24 24L4 24C2.89543 24 2 23.1046 2 22L2 6C2 4.89543 2.89543 4 4 4L24 4Z" fill="#657596"/>
<path d="M21.5 7C21.7761 7 22 7.22386 22 7.5V20.5C22 20.7761 21.7761 21 21.5 21L6.5 21C6.22386 21 6 20.7761 6 20.5L6 7.5C6 7.22386 6.22386 7 6.5 7L21.5 7Z" fill="#E6E7EC"/>
<path d="M12.4824 16.5H9.5V11.5H12.4824V16.5Z" fill="#657596"/>
<path d="M14.0049 16.5H12.9707V11.5H14.0049V16.5Z" fill="#657596"/>
<path d="M16.4443 16.5H14.8555V11.5H16.4443V16.5Z" fill="#657596"/>
<path d="M18.502 16.5H17.5732V11.5H18.5029L18.502 16.5Z" fill="#657596"/>
<circle cx="24" cy="14" r="1" fill="#9BB0DF"/>
</svg>
