<svg width="24" height="24" viewBox="0 0 24 24" fill="none" xmlns="http://www.w3.org/2000/svg">
<path d="M14.5566 4.99805C15.2306 4.44847 16.2244 4.48808 16.8525 5.11621L20.9502 9.21387C21.6202 9.8839 21.6201 10.9696 20.9502 11.6396L19.2432 13.3477C18.9629 13.6279 18.6092 13.7882 18.2441 13.834L16.792 17.9268C16.5332 18.656 15.9101 19.1958 15.1514 19.3477L5.71387 21.2354C5.47044 21.284 5.21821 21.209 5.04102 21.0352C4.86399 20.8614 4.7842 20.6113 4.82812 20.3672L6.55078 10.8164C6.6961 10.0106 7.27702 9.35166 8.05859 9.10742L12.2344 7.80176C12.2836 7.44397 12.4437 7.09833 12.7188 6.82324L14.4268 5.11621L14.5566 4.99805ZM8.50586 10.5391C8.25755 10.6167 8.0726 10.826 8.02637 11.082L6.72852 18.2764L9.19141 15.8135C8.63229 14.7951 8.78263 13.4908 9.64551 12.6279C10.6927 11.5807 12.3912 11.5807 13.4385 12.6279C14.4857 13.6752 14.4857 15.3737 13.4385 16.4209C12.5753 17.2841 11.2705 17.4339 10.252 16.874L7.84766 19.2783L14.8574 17.877C15.0984 17.8286 15.2967 17.6574 15.3789 17.4258L16.8223 13.3535L12.7188 9.25C12.7119 9.24315 12.7059 9.23545 12.6992 9.22852L8.50586 10.5391ZM12.3779 13.6885C11.9165 13.227 11.1675 13.227 10.7061 13.6885C10.2446 14.1499 10.2446 14.8989 10.7061 15.3604C11.1675 15.8218 11.9165 15.8218 12.3779 15.3604C12.8394 14.8989 12.8394 14.1499 12.3779 13.6885ZM15.792 6.17676C15.7077 6.09254 15.5716 6.0926 15.4873 6.17676L13.7793 7.88379C13.6951 7.96806 13.6951 8.1052 13.7793 8.18945L17.877 12.2871C17.9612 12.3713 18.0984 12.3713 18.1826 12.2871L19.8896 10.5791C19.9738 10.4948 19.9738 10.3587 19.8896 10.2744L15.792 6.17676ZM5.27441 6.33496H3.18945V4.83496H5.27441V2.75H6.77441V4.83496H8.8584V6.33496H6.77441V8.41895H5.27441V6.33496Z" fill="#161616"/>
</svg>
