<svg width="24" height="24" viewBox="0 0 24 24" fill="none" xmlns="http://www.w3.org/2000/svg">
<path fill-rule="evenodd" clip-rule="evenodd" d="M4.5993 3.00197C5.28963 2.34186 6.38175 2.35722 7.05325 3.03646L9.50324 5.51471C10.18 6.19925 10.1768 7.30182 9.49617 7.98247L8.59577 8.88286L8.57223 8.89856C8.57336 8.91524 8.57632 8.93601 8.58201 8.95966C8.59061 8.9954 8.6015 9.02133 8.60567 9.02984L8.61608 9.05105L8.62513 9.07287C10.1078 12.6488 13.2942 14.7201 14.2926 15.3691C14.3768 15.4238 14.4454 15.4684 14.4961 15.5029C14.5148 15.5156 14.5288 15.5198 14.5437 15.5218C14.5622 15.5242 14.5917 15.5238 14.6327 15.514C14.6742 15.5041 14.717 15.4869 14.7544 15.4666C14.7873 15.4488 14.8033 15.4358 14.8033 15.4358L14.8098 15.4297L15.9989 14.3745C16.693 13.7586 17.7473 13.7916 18.4015 14.4497L20.9487 17.012C21.6286 17.696 21.627 18.8012 20.945 19.4832L20.825 19.6032L19.3465 21.1102L19.3336 21.1222C18.5525 21.8465 17.5021 21.9438 16.6557 21.8608C15.8028 21.7772 14.9951 21.4975 14.4896 21.2569C5.50111 17.4911 2.50366 10.3062 2.1456 7.04426L2.14463 7.03545C2.00932 5.65216 2.83721 4.62413 3.30898 4.2358L4.5993 3.00197ZM5.98653 4.09103C5.8906 3.99399 5.73458 3.9918 5.63596 4.0861L4.2976 5.36586L4.26985 5.38779C4.03934 5.56996 3.5683 6.16099 3.63717 6.88531C3.9435 9.65581 6.63318 16.3463 15.0857 19.8803L15.1038 19.8879L15.1215 19.8964C15.5013 20.0791 16.1477 20.3038 16.8021 20.3679C17.4652 20.433 17.9821 20.3211 18.3022 20.0327L19.7618 18.545L19.8843 18.4225C19.9818 18.3251 19.982 18.1672 19.8849 18.0695L17.3377 15.5072C17.2443 15.4132 17.0937 15.4085 16.9945 15.4965L15.8221 16.5368C15.6316 16.7134 15.3293 16.8897 14.9816 16.9729C14.608 17.0622 14.1134 17.057 13.6519 16.7428C13.6103 16.7144 13.5495 16.6753 13.4719 16.6253C12.5048 16.0022 8.9266 13.6968 7.24724 9.666C7.15193 9.46289 7.06 9.15663 7.07289 8.81957C7.08655 8.46224 7.2256 8.03136 7.63127 7.72604L8.43551 6.92181C8.53274 6.82457 8.53319 6.66706 8.43652 6.56927L5.98653 4.09103Z" fill="#161616"/>
</svg>
