<svg width="24" height="24" viewBox="0 0 24 24" fill="none" xmlns="http://www.w3.org/2000/svg">
<path fill-rule="evenodd" clip-rule="evenodd" d="M6.28429 2.6543C6.86101 2.65435 7.26788 2.99278 7.45518 3.17969C7.45738 3.18187 7.45983 3.18434 7.46202 3.18652L7.46495 3.19043C7.74132 3.44894 8.00256 3.71311 8.26671 3.98535C8.33228 4.0529 8.39885 4.12142 8.46886 4.19238C8.53563 4.26007 8.60507 4.33055 8.67491 4.40234L9.87315 5.59766C10.177 5.90084 10.4424 6.30451 10.4425 6.80762C10.4424 7.31065 10.1769 7.71441 9.87315 8.01758C9.75912 8.13139 9.61911 8.27547 9.48643 8.40332C9.40725 8.48427 9.35576 8.53739 9.32726 8.56641C9.30102 8.59311 9.26295 8.63235 9.21593 8.6709C9.20607 8.67897 9.19719 8.6858 9.19249 8.68945C9.18562 8.69479 9.18631 8.69446 9.18272 8.69727C9.18011 8.69931 9.17451 8.70317 9.16515 8.71094C9.14347 8.72895 9.09882 8.76601 9.01183 8.84375L9.0128 8.84473C8.97083 8.88661 8.95492 8.9155 8.94933 8.92676C8.94444 8.9367 8.94292 8.94187 8.94249 8.94531C8.94099 8.95827 8.94114 8.99192 8.96886 9.08008C9.22038 9.68294 9.5704 10.2693 10.1056 10.9717L9.03526 12.042C8.37307 11.1935 7.91057 10.4452 7.5753 9.63477C7.5687 9.6188 7.56223 9.60232 7.55675 9.58594C7.55456 9.5794 7.55209 9.57196 7.54991 9.56543C7.54778 9.55903 7.54619 9.5523 7.54405 9.5459L7.54015 9.53516C7.4896 9.37541 7.41526 9.09984 7.45323 8.77246C7.49185 8.44009 7.63885 8.1152 7.91515 7.82422C7.92841 7.80854 7.94167 7.79506 7.95323 7.7832L8.00499 7.7334C8.10326 7.64548 8.16478 7.59281 8.20714 7.55762C8.22392 7.54367 8.2375 7.53166 8.24913 7.52246C8.25123 7.52039 8.25427 7.51834 8.25694 7.51562C8.28796 7.48405 8.3341 7.43664 8.42979 7.33887L8.81358 6.95508C8.88557 6.88319 8.91793 6.83413 8.93272 6.80762C8.91795 6.7811 8.88592 6.73137 8.81358 6.65918L7.61534 5.46387L7.60753 5.45605C7.53969 5.38624 7.47143 5.31603 7.40147 5.24512C7.33221 5.1749 7.26095 5.1028 7.19054 5.03027C6.92425 4.75582 6.68009 4.5086 6.42686 4.27246C6.42069 4.2667 6.41429 4.26085 6.40831 4.25488C6.4062 4.25277 6.40456 4.25015 6.40245 4.24805C6.40036 4.24597 6.3977 4.24426 6.39561 4.24219C6.35861 4.20526 6.32351 4.17816 6.29601 4.16309C6.28916 4.15934 6.28391 4.15672 6.28038 4.15527C6.25991 4.16254 6.2111 4.18739 6.13487 4.25781L4.6505 5.73926C4.41195 5.97732 4.29171 6.23717 4.2628 6.57324C4.21609 7.14614 4.29875 7.77976 4.57726 8.61621L4.70909 8.98828L4.71007 8.99023C5.29179 10.5588 6.15454 12.04 7.43565 13.6416L6.36925 14.708C4.95182 12.9584 3.96845 11.3026 3.30479 9.51367C2.87305 8.35993 2.68987 7.39562 2.76769 6.44824V6.44531C2.82674 5.75701 3.1012 5.16647 3.59093 4.67773L5.088 3.18457L5.1046 3.16797C5.40557 2.88606 5.80817 2.65435 6.28429 2.6543ZM8.01768 7.72266C8.01768 7.72266 8.01453 7.72511 8.0128 7.72656C8.016 7.72392 8.01964 7.72168 8.01964 7.72168L8.01768 7.72266Z" fill="#161616"/>
<path d="M11.4882 12.5449C12.2837 13.345 13.1106 14.0121 13.9873 14.5654C14.1301 14.6558 14.2819 14.7324 14.4619 14.8223C14.5937 14.888 14.7493 14.9676 14.8955 15.0537C14.9214 15.0666 14.9434 15.0789 14.957 15.0869L14.9609 15.0898C15.0121 15.1139 15.0359 15.1152 15.0488 15.1152C15.068 15.1152 15.0852 15.1104 15.1084 15.0967C15.1354 15.0807 15.1565 15.0612 15.1855 15.0322L16.0459 14.1738C16.2288 13.9913 16.6512 13.6262 17.2382 13.626C17.8009 13.626 18.2025 13.9555 18.4023 14.167L18.4052 14.1689L18.4072 14.1709L18.4091 14.1738L20.8242 16.584C21.3358 17.0896 21.2705 17.7797 21.206 18.1133C21.1682 18.3092 21.1119 18.4802 21.0674 18.5996C21.0448 18.6602 21.0246 18.7105 21.0088 18.7471C21.0008 18.7654 20.9936 18.7805 20.9883 18.792C20.9856 18.7977 20.9833 18.8027 20.9814 18.8066C20.9805 18.8085 20.9785 18.8115 20.9785 18.8115L20.9775 18.8145C20.9401 18.8917 20.8893 18.9632 20.8281 19.0234L20.8154 19.0361C20.8074 19.044 20.7953 19.0554 20.7802 19.0703C20.7497 19.1004 20.706 19.1441 20.6523 19.1973C20.5448 19.3037 20.3984 19.4488 20.2441 19.6035C19.9244 19.9243 19.6039 20.2524 19.4912 20.3848C19.4834 20.3939 19.4749 20.4034 19.4668 20.4121C18.8755 21.043 18.1521 21.3457 17.2695 21.3457C17.2086 21.3457 17.1126 21.3462 17.0175 21.3398C15.5647 21.2466 14.246 20.6845 13.3213 20.2432L13.3183 20.2412C11.2456 19.2399 9.37589 17.9008 7.74606 16.252L8.81247 15.1982C10.3231 16.7266 12.0534 17.9644 13.9707 18.8906C14.862 19.3159 15.9631 19.7692 17.1152 19.8428H17.1172C17.1537 19.8452 17.1987 19.8457 17.2695 19.8457C17.6952 19.8457 17.9938 19.7347 18.2597 19.4961L18.372 19.3867C18.5422 19.1918 18.8923 18.8351 19.1816 18.5449C19.339 18.3871 19.4875 18.2389 19.5966 18.1309C19.6222 18.1056 19.6451 18.0821 19.666 18.0615C19.6899 17.9958 19.7169 17.914 19.7334 17.8291C19.7425 17.7817 19.7471 17.7406 19.749 17.707L19.747 17.6279L17.3496 15.2354L17.3408 15.2266C17.3328 15.2186 17.325 15.2105 17.3174 15.2021C17.3039 15.1874 17.2881 15.1722 17.2724 15.1592C17.2587 15.1478 17.2462 15.1398 17.2363 15.1338C17.2339 15.135 17.2313 15.1361 17.2285 15.1377C17.193 15.1577 17.1495 15.1914 17.1054 15.2354L16.2451 16.0938C16.157 16.1817 15.7383 16.6152 15.0488 16.6152C14.7729 16.6152 14.5184 16.5461 14.2793 16.4268C14.2533 16.4138 14.2323 16.4016 14.2187 16.3936C14.2057 16.3859 14.1935 16.3789 14.1904 16.377C14.1851 16.3737 14.1882 16.3755 14.1924 16.3779L14.2265 16.3965L14.167 16.3623C14.0747 16.3052 13.958 16.2469 13.792 16.1641C13.6209 16.0787 13.4034 15.9703 13.1865 15.833C12.2079 15.2153 11.2929 14.4759 10.4238 13.6016L11.4882 12.5449Z" fill="#161616"/>
<path d="M18.7758 6.6004L4.05222 21.3231L2.99167 20.2625L17.7143 5.53986L18.7758 6.6004Z" fill="#161616"/>
</svg>
