<svg width="28" height="28" viewBox="0 0 28 28" fill="none" xmlns="http://www.w3.org/2000/svg">
<path d="M24 6C25.1046 6 26 6.89543 26 8L26 20C26 21.1046 25.1046 22 24 22H4C2.89543 22 2 21.1046 2 20L2 8C2 6.89543 2.89543 6 4 6L24 6Z" fill="#657596"/>
<path d="M21.5 9C21.7761 9 22 9.22386 22 9.5V18.5C22 18.7761 21.7761 19 21.5 19L5.5 19C5.22386 19 5 18.7761 5 18.5L5 9.5C5 9.22386 5.22386 9 5.5 9L21.5 9Z" fill="#E6E7EC"/>
<path d="M18 12V16H17.0163V12L18 12Z" fill="#657596"/>
<path d="M15.8165 12V16H14.1364L14.1364 12L15.8165 12Z" fill="#657596"/>
<path d="M11.2683 12L11.2683 16H9L9 12L11.2683 12Z" fill="#657596"/>
<path d="M13.2458 12V16H12.1505V12L13.2458 12Z" fill="#657596"/>
<circle cx="24" cy="14" r="1" fill="#9BB0DF"/>
</svg>
