<svg width="28" height="28" viewBox="0 0 28 28" fill="none" xmlns="http://www.w3.org/2000/svg">
<path d="M18.8125 2.44141C16.3971 2.44141 14.4375 4.40104 14.4375 6.81641V14.4755C13.0931 15.6741 12.25 17.4241 12.25 19.3655C12.25 22.9885 15.1895 25.9279 18.8125 25.9279C22.4355 25.9279 25.375 22.9885 25.375 19.3655C25.375 17.4241 24.5319 15.6741 23.1875 14.4755V6.81641C23.1875 4.40104 21.2279 2.44141 18.8125 2.44141Z" fill="#9BB0DF"/>
<path d="M22.0938 18.8047C22.0938 20.6145 20.6223 22.0859 18.8125 22.0859C17.0027 22.0859 15.5312 20.6145 15.5312 18.8047C15.5312 17.4255 16.3772 16.2463 17.582 15.7644V9.37109C17.582 8.68921 18.1306 8.14062 18.8125 8.14062C19.4944 8.14062 20.043 8.68921 20.043 9.37109V15.7644C21.2478 16.2515 22.0938 17.4307 22.0938 18.8047Z" fill="#657596"/>
<path d="M7 15.3828C5.67392 15.3828 4.40215 14.8266 3.46447 13.8366C2.52678 12.8466 2 11.5038 2 10.1037C2 7.58456 4.5618 3.82571 6.01796 1.8926C6.52998 1.21288 7.47002 1.21288 7.98204 1.8926C9.4382 3.82571 12 7.58456 12 10.1037C12 11.5038 11.4732 12.8466 10.5355 13.8366C9.59785 14.8266 8.32608 15.3828 7 15.3828Z" fill="#9BB0DF"/>
</svg>
