<svg width="24" height="24" viewBox="0 0 24 24" fill="none" xmlns="http://www.w3.org/2000/svg">
<path d="M12 2.75C17.1086 2.75003 21.25 6.8914 21.25 12C20.9895 11.7397 20.7291 11.6608 20.5 11.668C20.7656 11.6763 20.989 11.8001 21.1211 11.8945L21.25 12L21.1211 12.1055C20.989 12.1999 20.7656 12.3227 20.5 12.3311C20.6878 12.3369 20.8966 12.2865 21.1094 12.124L21.25 12C21.25 17.1086 17.1086 21.25 12 21.25C6.89137 21.25 2.75 17.1086 2.75 12C2.75 6.89138 6.89137 2.75 12 2.75ZM7.0752 17.9844C8.41413 19.0875 10.1297 19.75 12 19.75C16.0271 19.75 19.3356 16.6782 19.7129 12.75H12.3105L7.0752 17.9844ZM12.75 11.25H19.7129C19.3593 7.56858 16.4314 4.63967 12.75 4.28613V11.25ZM4.25 12C4.25 13.8698 4.91203 15.585 6.01465 16.9238L11.25 11.6895V4.28613C7.32172 4.66337 4.25 7.97283 4.25 12Z" fill="#161616"/>
</svg>
