<svg width="24" height="24" viewBox="0 0 24 24" fill="none" xmlns="http://www.w3.org/2000/svg">
<path d="M6.66846 9.55273C7.08267 9.55273 7.41846 9.88852 7.41846 10.3027C7.41825 10.7168 7.08254 11.0527 6.66846 11.0527H6.52881C6.11473 11.0527 5.77902 10.7168 5.77881 10.3027C5.77881 9.88852 6.11459 9.55273 6.52881 9.55273H6.66846ZM12.1401 9.55273C12.5543 9.55285 12.8901 9.88859 12.8901 10.3027C12.8899 10.7167 12.5541 11.0526 12.1401 11.0527H11.9995C11.5856 11.0525 11.2497 10.7166 11.2495 10.3027C11.2495 9.88865 11.5855 9.55294 11.9995 9.55273H12.1401ZM20.8501 7.03613C20.8501 6.27214 20.2303 5.65234 19.4663 5.65234H4.53369C3.7697 5.65234 3.1499 6.27214 3.1499 7.03613V13.5693C3.15008 14.3332 3.76981 14.9521 4.53369 14.9521H12.1499V16.4521H4.53369C2.94138 16.4521 1.65008 15.1616 1.6499 13.5693V7.03613C1.6499 5.44371 2.94127 4.15234 4.53369 4.15234H19.4663C21.0587 4.15234 22.3501 5.44371 22.3501 7.03613V11.0527H20.8501V7.03613Z" fill="#161616"/>
<path d="M19.8969 14.0201C19.8969 13.8863 19.7884 13.7772 19.6547 13.777H15.684C15.5502 13.7771 15.4418 13.8863 15.4418 14.0201V16.9967C15.4418 17.1305 15.5502 17.2397 15.684 17.2398H19.6547C19.7884 17.2396 19.8969 17.1305 19.8969 16.9967V14.0201ZM18.4076 11.7906C18.4074 11.3828 18.0772 11.0524 17.6693 11.0523C17.2615 11.0523 16.9303 11.3828 16.9301 11.7906V12.277H18.4076V11.7906ZM19.9076 12.2975C20.7498 12.4203 21.3969 13.1439 21.3969 14.0201V16.9967C21.3969 17.9589 20.6168 18.7396 19.6547 18.7398H15.684C14.7218 18.7397 13.9418 17.9589 13.9418 16.9967V14.0201C13.9418 13.1442 14.5884 12.4206 15.4301 12.2975V11.7906C15.4303 10.5544 16.4331 9.55235 17.6693 9.55235C18.9056 9.55238 19.9074 10.5544 19.9076 11.7906V12.2975Z" fill="#161616"/>
</svg>
