<svg width="24" height="24" viewBox="0 0 24 24" fill="none" xmlns="http://www.w3.org/2000/svg">
<path d="M11.7231 2.30267C11.9305 2.22032 12.1658 2.2347 12.3638 2.34466L20.4644 6.84466C20.7023 6.97698 20.8501 7.22768 20.8501 7.49993V16.4999C20.8501 16.7722 20.7023 17.0229 20.4644 17.1552L12.3638 21.6552C12.1373 21.781 11.8617 21.781 11.6353 21.6552L3.53564 17.1552C3.29764 17.0229 3.1499 16.7722 3.1499 16.4999V7.49993C3.1499 7.22762 3.29764 6.97696 3.53564 6.84466L11.6353 2.34466L11.7231 2.30267ZM4.6499 16.0585L11.2495 19.7255V12.9892L4.6499 9.08196V16.0585ZM12.7495 12.9902V19.7255L19.3501 16.0585V9.08099L12.7495 12.9902ZM8.20361 6.09466C8.16732 6.073 8.13424 6.04788 8.10303 6.02142L5.17432 7.64837L11.9995 11.6904L14.8052 10.0292L8.20361 6.09466ZM9.60791 5.18548L16.2739 9.15911L18.8247 7.64837L11.9995 3.85736L9.60791 5.18548Z" fill="#161616"/>
</svg>
