<svg width="28" height="28" viewBox="0 0 28 28" fill="none" xmlns="http://www.w3.org/2000/svg">
<path d="M10.9434 3.27798C11.6 2.9073 12.4048 2.90737 13.0615 3.27798L19.9785 7.27115C20.6064 7.64571 20.9958 8.33231 21 9.06216V16.9518C20.9992 17.6894 20.5843 18.4023 19.9414 18.7711L12.9316 22.7897C12.6405 22.9264 12.3218 22.9976 12 22.9997C11.6662 22.9988 11.3365 22.9235 11.0361 22.779L4.05859 18.7711C3.41568 18.4023 3.00085 17.6894 3 16.9518V9.06216C3.00355 8.32008 3.39205 7.65193 4.02637 7.27115L10.9434 3.27798Z" fill="#B5B1E2"/>
<path d="M12 21.2516C12.2761 21.2516 12.5 21.4754 12.5 21.7516V22.4205C12.5616 22.4013 12.6216 22.3771 12.6807 22.3512C12.6889 22.3475 12.6979 22.3452 12.7061 22.3414L13.5596 21.8531C13.7395 21.7502 13.9564 21.7717 14.1113 21.8902L14.1836 21.9566C14.2055 21.9816 14.225 22.0097 14.2422 22.0396C14.3104 22.1594 14.3237 22.2953 14.29 22.4186C14.2566 22.5417 14.1762 22.6527 14.0566 22.7213L13.1807 23.2242C13.1691 23.2309 13.1566 23.2371 13.1445 23.2428C12.8766 23.3686 12.5895 23.4485 12.2969 23.482C12.1996 23.4931 12.1011 23.4999 12.0029 23.5006L12.001 23.4996L11.999 23.5006C11.9482 23.5005 11.8974 23.4986 11.8467 23.4957C11.5415 23.4779 11.2413 23.4085 10.959 23.2916C10.912 23.2721 10.8652 23.2521 10.8193 23.2301C10.8085 23.2249 10.7975 23.2194 10.7871 23.2135L9.91504 22.7125C9.7654 22.6265 9.67665 22.4743 9.66504 22.3141C9.65806 22.218 9.67898 22.1186 9.73047 22.0289C9.86805 21.7897 10.1737 21.707 10.4131 21.8443L11.2588 22.3297C11.3017 22.3502 11.3463 22.3673 11.3906 22.3844C11.4268 22.3977 11.4631 22.4112 11.5 22.4225V21.7516C11.5 21.4754 11.7239 21.2516 12 21.2516Z" fill="#7B74C4"/>
<path d="M17.0645 19.8443C17.3039 19.7073 17.6087 19.7906 17.7461 20.0299C17.8487 20.2093 17.8284 20.4257 17.7109 20.5807C17.6717 20.6326 17.6215 20.6781 17.5615 20.7125L15.8086 21.7174C15.689 21.7857 15.5528 21.7987 15.4297 21.7652C15.3679 21.7484 15.3095 21.7196 15.2578 21.6803C15.2063 21.6411 15.1612 21.5915 15.127 21.5318C14.9896 21.2923 15.072 20.9856 15.3115 20.8482L17.0645 19.8443Z" fill="#7B74C4"/>
<path d="M6.63867 19.776C6.71734 19.77 6.79701 19.785 6.87305 19.818C6.88986 19.8253 6.90756 19.8311 6.92383 19.8404L8.66895 20.8424C8.90809 20.98 8.99098 21.2867 8.85352 21.526C8.83638 21.5557 8.81681 21.5832 8.79492 21.608C8.68501 21.7324 8.52049 21.7925 8.35938 21.773C8.29492 21.7653 8.23073 21.7448 8.1709 21.7105L6.42676 20.7086C6.41832 20.7037 6.41136 20.6963 6.40332 20.691C6.18266 20.5474 6.10872 20.2562 6.24121 20.025C6.32714 19.8756 6.47875 19.7877 6.63867 19.776Z" fill="#7B74C4"/>
<path d="M21 15.4654C21.2761 15.4654 21.5 15.6903 21.5 15.9664V16.9527C21.4997 17.1419 21.4762 17.3289 21.4346 17.5113C21.2741 18.2138 20.8232 18.8426 20.1904 19.2057L19.3135 19.7076C19.2236 19.759 19.1243 19.7782 19.0283 19.7711C18.8684 19.7593 18.7167 19.6723 18.6309 19.523C18.5623 19.4034 18.5485 19.2666 18.582 19.1432C18.6153 19.0194 18.6965 18.9082 18.8164 18.8395L19.6924 18.3365C20.1807 18.0562 20.499 17.5089 20.5 16.9518V15.9654C20.5002 15.6894 20.724 15.4654 21 15.4654Z" fill="#7B74C4"/>
<path d="M3 15.4654C3.27603 15.4654 3.49982 15.6894 3.5 15.9654V16.9508L3.51465 17.1588C3.58258 17.6411 3.88001 18.0921 4.30762 18.3375L5.17969 18.8385C5.41911 18.976 5.50179 19.2826 5.36426 19.5221C5.34712 19.5518 5.32755 19.5793 5.30566 19.6041C5.19573 19.7285 5.03121 19.7886 4.87012 19.7691C4.80567 19.7613 4.74147 19.7409 4.68164 19.7066L3.80957 19.2057C3.61036 19.0914 3.42857 18.9505 3.26855 18.7896C3.10853 18.6287 2.97024 18.4472 2.85645 18.2516C2.68559 17.9579 2.57038 17.6319 2.52344 17.2936C2.50784 17.1811 2.50015 17.0672 2.5 16.9527V15.9664C2.5 15.6903 2.72386 15.4654 3 15.4654Z" fill="#7B74C4"/>
<path d="M12 16.2545C12.276 16.2545 12.4997 16.4786 12.5 16.7545V19.2535C12.4994 19.5292 12.2758 19.7535 12 19.7535C11.7242 19.7535 11.5006 19.5292 11.5 19.2535V16.7545C11.5003 16.4786 11.724 16.2545 12 16.2545Z" fill="#7B74C4"/>
<path d="M12.8398 11.9478C13.0792 11.8103 13.3848 11.8932 13.5225 12.1324C13.6595 12.3718 13.5771 12.6776 13.3379 12.815L12.5 13.2965V14.2564C12.5 14.2907 12.4968 14.3247 12.4902 14.357C12.4769 14.4219 12.4508 14.4827 12.415 14.5357C12.3252 14.6687 12.1725 14.7564 12 14.7564C11.8275 14.7564 11.6748 14.6687 11.585 14.5357C11.5492 14.4827 11.5231 14.4219 11.5098 14.357C11.5032 14.3247 11.5 14.2907 11.5 14.2564V13.2965L10.6621 12.815C10.4229 12.6776 10.3404 12.3718 10.4775 12.1324C10.6152 11.8932 10.9208 11.8103 11.1602 11.9478L12 12.4303L12.8398 11.9478Z" fill="#7B74C4"/>
<path d="M3 11.5201C3.27594 11.5201 3.49967 11.7442 3.5 12.0201V13.9928C3.5 14.1153 3.45398 14.2261 3.38086 14.3131C3.28914 14.4222 3.15366 14.4937 3 14.4937C2.84612 14.4937 2.70988 14.4225 2.61816 14.3131C2.54529 14.2262 2.5 14.115 2.5 13.9928V12.0201C2.50033 11.7442 2.72406 11.5201 3 11.5201Z" fill="#7B74C4"/>
<path d="M21 11.5201C21.2759 11.5201 21.4997 11.7442 21.5 12.0201V13.9928C21.5 14.1153 21.454 14.2261 21.3809 14.3131C21.2891 14.4222 21.1536 14.4937 21 14.4937C20.8461 14.4937 20.7099 14.4225 20.6182 14.3131C20.5453 14.2262 20.5 14.115 20.5 13.9928V12.0201C20.5003 11.7442 20.7241 11.5201 21 11.5201Z" fill="#7B74C4"/>
<path d="M6.12012 9.62949C6.25769 9.39006 6.5633 9.30734 6.80273 9.44492L8.98145 10.6969C9.22041 10.8346 9.30347 11.1403 9.16602 11.3795C9.0283 11.6182 8.72253 11.7002 8.4834 11.5631L6.30469 10.3121C6.06554 10.1747 5.98323 9.86879 6.12012 9.62949Z" fill="#7B74C4"/>
<path d="M17.1973 9.44492C17.4367 9.30734 17.7423 9.39006 17.8799 9.62949C18.0167 9.86879 17.9344 10.1747 17.6953 10.3121L15.5166 11.5631C15.2775 11.7002 14.9717 11.6182 14.834 11.3795C14.6965 11.1403 14.7796 10.8346 15.0186 10.6969L17.1973 9.44492Z" fill="#7B74C4"/>
<path d="M4.64062 6.33847C4.87967 6.20057 5.18612 6.28315 5.32422 6.52207C5.46191 6.76111 5.37953 7.06666 5.14062 7.20468L4.2832 7.69883C4.20127 7.74802 4.12615 7.80518 4.05566 7.86582L4.62402 8.19297C4.86321 8.33063 4.94611 8.63626 4.80859 8.87558C4.67092 9.11444 4.36516 9.19734 4.12598 9.06015L3.54004 8.72324C3.51545 8.83379 3.50057 8.94835 3.5 9.06504V10.0494C3.4997 10.187 3.44373 10.3116 3.35352 10.402C3.26302 10.4926 3.13813 10.5494 3 10.5494C2.86187 10.5494 2.73698 10.4926 2.64648 10.402C2.55627 10.3116 2.5003 10.187 2.5 10.0494V9.06113L2.50195 9.02402L2.50684 8.88828C2.51168 8.81921 2.5201 8.75089 2.53027 8.6832C2.55895 8.48998 2.60858 8.30041 2.67854 8.11807C2.72689 7.99206 2.78496 7.8695 2.85254 7.75156C2.97544 7.57781 3.10444 7.39582 3.25436 7.24496C3.40635 7.09203 3.57857 6.95649 3.76855 6.84238L3.77637 6.8375L4.64062 6.33847Z" fill="#7B74C4"/>
<path d="M18.6807 6.52207C18.8188 6.28315 19.1252 6.20057 19.3643 6.33847L20.2285 6.8375L20.2344 6.8414C20.452 6.97125 20.6461 7.13142 20.8131 7.3143C20.9375 7.45051 21.056 7.59086 21.1484 7.75254C21.3192 8.05137 21.4298 8.37954 21.4756 8.71836C21.4912 8.83063 21.4993 8.94448 21.5 9.05918V10.0484C21.4999 10.1863 21.4439 10.3115 21.3535 10.402C21.263 10.4926 21.1381 10.5494 21 10.5494C20.8619 10.5494 20.737 10.4926 20.6465 10.402C20.5561 10.3115 20.5001 10.1863 20.5 10.0484V9.06504L20.4854 8.85801C20.4791 8.81251 20.4691 8.76781 20.459 8.72324L19.874 9.06015C19.6349 9.1973 19.3291 9.11438 19.1914 8.87558C19.0539 8.63627 19.1368 8.33064 19.376 8.19297L19.9453 7.86484C19.8776 7.80605 19.8063 7.75058 19.7285 7.70371L18.8643 7.20468C18.6254 7.06666 18.543 6.76111 18.6807 6.52207Z" fill="#7B74C4"/>
<path d="M8.09961 4.34238C8.33861 4.20451 8.64408 4.2862 8.78223 4.525C8.9202 4.764 8.83843 5.06943 8.59961 5.20761L6.87012 6.20664C6.631 6.34453 6.32552 6.26213 6.1875 6.02304C6.04972 5.78399 6.1312 5.47847 6.37012 5.34043L8.09961 4.34238Z" fill="#7B74C4"/>
<path d="M15.2227 4.525C15.3608 4.2862 15.6663 4.20451 15.9053 4.34238L17.6348 5.34043C17.8737 5.47847 17.9552 5.78399 17.8174 6.02304C17.6794 6.26213 17.3739 6.34453 17.1348 6.20664L15.4053 5.20761C15.1665 5.06943 15.0847 4.764 15.2227 4.525Z" fill="#7B74C4"/>
<path d="M10.6973 2.84238C11.4559 2.41422 12.3748 2.38776 13.1533 2.7623L13.3076 2.84238L13.3115 2.84433L14.1758 3.34336C14.4149 3.48137 14.4972 3.78783 14.3594 4.02695C14.2213 4.26604 13.9149 4.34761 13.6758 4.20957L12.8154 3.7125C12.3114 3.42834 11.6933 3.42914 11.1895 3.71347L11.1885 3.7125L10.3291 4.20957C10.09 4.34761 9.78359 4.26604 9.64551 4.02695C9.50765 3.78783 9.59003 3.48137 9.8291 3.34336L10.6934 2.84433L10.6973 2.84238Z" fill="#7B74C4"/>
<path d="M19.5 26C23.0899 26 26 23.0899 26 19.5C26 15.9101 23.0899 13 19.5 13C15.9101 13 13 15.9101 13 19.5C13 23.0899 15.9101 26 19.5 26Z" fill="#3A3480"/>
<path d="M26 19.5C26 15.9101 23.0899 13 19.5 13C15.9101 13 13 15.9101 13 19.5C13 23.0899 15.9101 26 19.5 26C23.0899 26 26 23.0899 26 19.5ZM27.25 19.5C27.25 23.7802 23.7802 27.25 19.5 27.25C15.2198 27.25 11.75 23.7802 11.75 19.5C11.75 15.2198 15.2198 11.75 19.5 11.75C23.7802 11.75 27.25 15.2198 27.25 19.5Z" fill="white"/>
<path d="M20.0783 21.3057C20.1931 21.3057 20.2945 21.351 20.3732 21.4297C20.452 21.5084 20.4973 21.6098 20.4973 21.7246V23.0371C20.4972 23.1518 20.4518 23.2524 20.3732 23.3311C20.2945 23.4098 20.1932 23.4561 20.0783 23.4561H18.7658C18.6511 23.456 18.5505 23.4097 18.4719 23.3311C18.3932 23.2524 18.3479 23.1518 18.3479 23.0371V21.7246C18.3479 21.6098 18.3932 21.5084 18.4719 21.4297C18.5505 21.3512 18.6512 21.3058 18.7658 21.3057H20.0783Z" fill="white"/>
<path fill-rule="evenodd" clip-rule="evenodd" d="M19.5432 15.5469C19.861 15.5469 20.1784 15.6086 20.4943 15.7295C20.8081 15.8496 21.0931 16.0109 21.3469 16.2139C21.6053 16.4206 21.815 16.6747 21.9768 16.9727C22.1415 17.2761 22.2258 17.5975 22.2258 17.9346C22.2258 18.1508 22.1948 18.3565 22.1311 18.5498C22.071 18.7318 22.0001 18.8887 21.9162 19.0156C21.8319 19.1431 21.717 19.2658 21.5773 19.3838C21.4454 19.4953 21.3314 19.5816 21.2385 19.6387L20.8986 19.8369C20.7791 19.904 20.6769 19.9998 20.593 20.1279C20.4965 20.2753 20.4758 20.3556 20.4758 20.3848C20.4757 20.4975 20.4347 20.5987 20.3684 20.6846C20.2962 20.7778 20.191 20.8467 20.0568 20.8467H18.7443C18.5894 20.8467 18.4881 20.7454 18.4309 20.6445C18.3776 20.5507 18.3479 20.4487 18.3479 20.3408V20.0947C18.3479 19.7347 18.49 19.4039 18.7531 19.1064C19.0061 18.8204 19.2889 18.6037 19.6027 18.4629C19.8064 18.3696 19.9288 18.2826 19.9924 18.209C20.0455 18.1473 20.0812 18.0585 20.0813 17.9238C20.0813 17.858 20.0491 17.777 19.9133 17.6836C19.7798 17.5918 19.624 17.5439 19.4387 17.5439C19.2317 17.544 19.0763 17.5897 18.9602 17.668C18.8576 17.7428 18.6797 17.9311 18.4191 18.2568L18.4182 18.2578C18.3391 18.355 18.2287 18.4188 18.094 18.4189C18.0044 18.4189 17.9222 18.3891 17.8518 18.3457C17.8461 18.3422 17.8404 18.338 17.8352 18.334L16.9387 17.6504C16.8546 17.5857 16.7957 17.4964 16.7775 17.3877C16.7605 17.2852 16.7808 17.185 16.8352 17.0967C17.4537 16.0697 18.3637 15.5469 19.5432 15.5469Z" fill="white"/>
</svg>
