<svg width="24" height="24" viewBox="0 0 24 24" fill="none" xmlns="http://www.w3.org/2000/svg">
<path d="M6.28429 2.65448C6.8611 2.65448 7.26787 2.99296 7.45519 3.17987C7.45739 3.18206 7.45983 3.18452 7.46202 3.18671C7.46316 3.18785 7.46381 3.18948 7.46495 3.19061C7.74133 3.44913 8.00256 3.71328 8.26671 3.98553C8.33229 4.05309 8.39885 4.1216 8.46886 4.19257C8.53564 4.26026 8.60507 4.33072 8.67491 4.40253L9.87316 5.59784C10.177 5.90106 10.4425 6.30461 10.4425 6.8078C10.4424 7.31093 10.177 7.71457 9.87316 8.01776C9.75907 8.13162 9.61916 8.27562 9.48644 8.4035C9.40711 8.4846 9.35573 8.5376 9.32726 8.56659C9.30099 8.59333 9.26303 8.63249 9.21593 8.67108C9.20595 8.67925 9.19715 8.68602 9.19249 8.68964C9.18552 8.69506 9.18652 8.69449 9.18273 8.69745C9.18009 8.69951 9.17462 8.70326 9.16515 8.71112C9.14346 8.72915 9.09894 8.76609 9.01183 8.84393L9.0128 8.84491C8.97058 8.88705 8.95483 8.91583 8.94933 8.92694C8.94435 8.93708 8.94289 8.94205 8.94249 8.9455C8.94099 8.95846 8.94111 8.99201 8.96886 9.08026C9.24564 9.74366 9.64064 10.3877 10.2716 11.1877L10.712 11.7101C11.7457 12.8946 12.8235 13.831 13.9874 14.5656C14.1302 14.656 14.2821 14.7317 14.462 14.8215C14.6062 14.8934 14.7802 14.9805 14.9376 15.0764C14.9451 15.0806 14.9518 15.0839 14.9571 15.0871C14.959 15.0882 14.9612 15.089 14.963 15.09C15.0132 15.1134 15.0362 15.1154 15.0489 15.1154C15.0682 15.1154 15.0861 15.1107 15.1095 15.0969C15.1364 15.0809 15.1576 15.0614 15.1866 15.0324L16.047 14.174C16.23 13.9914 16.6522 13.6262 17.2394 13.6262L17.3468 13.6301C17.8531 13.6683 18.2157 13.9695 18.4025 14.1672C18.4035 14.1682 18.4047 14.1684 18.4054 14.1691C18.406 14.1697 18.4066 14.1703 18.4073 14.1711C18.4081 14.1719 18.4085 14.1732 18.4093 14.174L20.8253 16.5842L20.9142 16.6808C21.3287 17.1745 21.2666 17.8006 21.2062 18.1135C21.1683 18.3093 21.113 18.4804 21.0685 18.5998C21.0458 18.6605 21.0248 18.7107 21.0089 18.7473C21.0009 18.7656 20.9937 18.7807 20.9884 18.7922C20.9858 18.7979 20.9834 18.8029 20.9816 18.8068C20.9807 18.8086 20.9803 18.8103 20.9796 18.8117L20.9786 18.8137L20.9776 18.8146C20.9402 18.892 20.8895 18.9634 20.8282 19.0236C20.8278 19.0241 20.8262 19.0257 20.8253 19.0266C20.8233 19.0285 20.8195 19.0314 20.8155 19.0353C20.8075 19.0433 20.7957 19.0554 20.7804 19.0705C20.7498 19.1006 20.7061 19.1443 20.6525 19.1974C20.5449 19.3039 20.3985 19.4489 20.2442 19.6037C19.9244 19.9246 19.6039 20.2527 19.4913 20.3849C19.4836 20.3941 19.4751 20.4036 19.4669 20.4123C18.8757 21.0431 18.1522 21.3459 17.2696 21.3459C17.209 21.3459 17.1142 21.3453 17.0196 21.3391C15.566 21.2461 14.2465 20.6849 13.3214 20.2433L13.3185 20.2414C10.737 18.9943 8.47128 17.2244 6.59191 14.9855L6.58995 14.9826C5.05134 13.1319 4.00278 11.3953 3.3048 9.51385C2.87302 8.36006 2.68987 7.39583 2.76769 6.44843V6.4455C2.82671 5.75711 3.10115 5.16669 3.59093 4.67792L5.088 3.18475L5.1046 3.16815C5.40559 2.88617 5.80808 2.65453 6.28429 2.65448ZM6.28038 4.15546C6.2599 4.16273 6.21119 4.18746 6.13488 4.258L4.6505 5.73944C4.4119 5.97755 4.29168 6.23726 4.2628 6.57343C4.21609 7.14635 4.29872 7.77989 4.57726 8.61639L4.70909 8.98846L4.71007 8.99042C5.33719 10.6814 6.28847 12.2727 7.74132 14.0207L8.07238 14.4055C9.75006 16.3033 11.7332 17.8098 13.9708 18.8908C14.8621 19.3161 15.9633 19.7693 17.1153 19.843H17.1173C17.1539 19.8454 17.1989 19.8459 17.2696 19.8459C17.6956 19.8459 17.9949 19.7351 18.2609 19.4963L18.3732 19.3859C18.5436 19.1907 18.8928 18.834 19.1817 18.5441C19.339 18.3864 19.4877 18.239 19.5968 18.131C19.6223 18.1058 19.6453 18.0823 19.6661 18.0617C19.6901 17.9959 19.7171 17.9134 19.7335 17.8283C19.7517 17.7338 19.7527 17.6664 19.7472 17.6281L19.7462 17.6262L17.3497 15.2355C17.3476 15.2334 17.3469 15.2317 17.3458 15.2307C17.3448 15.2296 17.343 15.2288 17.3409 15.2267C17.3328 15.2186 17.3252 15.2098 17.3175 15.2014C17.3041 15.1867 17.289 15.1723 17.2735 15.1594C17.2595 15.1477 17.2465 15.1391 17.2364 15.133C17.234 15.1343 17.2315 15.1363 17.2286 15.1379C17.1933 15.1579 17.1504 15.1918 17.1066 15.2355L16.2462 16.0939C16.1583 16.1816 15.7389 16.6154 15.0489 16.6154C14.7731 16.6154 14.5185 16.5463 14.2794 16.4269C14.2535 16.414 14.2324 16.4018 14.2189 16.3937C14.2109 16.389 14.2036 16.3843 14.1984 16.381L14.2267 16.3967L14.1671 16.3625C14.0748 16.3053 13.9582 16.2471 13.7921 16.1642C13.6212 16.079 13.4043 15.9703 13.1876 15.8332C11.7002 14.8945 10.3633 13.6765 9.10851 12.134C9.10498 12.1297 9.10022 12.1256 9.09679 12.1213C8.40135 11.2401 7.92092 10.4704 7.5753 9.63495C7.56869 9.61895 7.56225 9.60254 7.55675 9.58612C7.55456 9.57955 7.55211 9.57218 7.54991 9.56561C7.54776 9.55917 7.54621 9.55253 7.54405 9.54608L7.54015 9.53534C7.48961 9.37562 7.41525 9.10011 7.45323 8.77264C7.49182 8.44021 7.6388 8.11545 7.91515 7.8244C7.92846 7.80865 7.94163 7.79529 7.95323 7.78339L8.00499 7.73358C8.10336 7.64557 8.16475 7.59302 8.20714 7.5578C8.224 7.54379 8.23747 7.53188 8.24913 7.52264C8.25125 7.52051 8.25421 7.5186 8.25695 7.51581C8.28796 7.48423 8.33394 7.43699 8.4298 7.33905L8.81359 6.95526C8.88569 6.88329 8.91792 6.83433 8.93273 6.8078C8.91797 6.7813 8.886 6.73163 8.81359 6.65936L7.61534 5.46405L7.60753 5.45624C7.53968 5.38641 7.47144 5.31622 7.40148 5.2453C7.3322 5.17508 7.26096 5.103 7.19054 5.03046C6.92424 4.75599 6.6801 4.50879 6.42687 4.27264C6.42069 4.26688 6.41429 4.26103 6.40831 4.25507C6.40619 4.25295 6.40457 4.25034 6.40245 4.24823C6.40036 4.24614 6.39771 4.24445 6.39562 4.24237C6.35859 4.20542 6.32352 4.17835 6.29601 4.16327C6.28913 4.15951 6.28391 4.1569 6.28038 4.15546ZM9.03234 8.8205C9.04684 8.80503 9.06341 8.7868 9.08019 8.76483C9.0654 8.78443 9.049 8.80241 9.03234 8.8205ZM9.09386 8.74725C9.11391 8.71929 9.13495 8.68742 9.15343 8.65057C9.13639 8.68455 9.11577 8.71634 9.09386 8.74725ZM8.01769 7.72284C8.01659 7.72376 8.01457 7.72524 8.0128 7.72675C8.01608 7.72401 8.01888 7.72249 8.01964 7.72186L8.01769 7.72284Z" fill="#161616"/>
<path d="M14.2832 8.96898L18.7158 4.53734L15.2149 4.53733V3.03733L20.5264 3.03734C20.9403 3.0374 21.276 3.37247 21.2764 3.78636L21.2783 8.56663L19.7783 8.56761L19.7774 5.59788L15.3447 10.0295L14.2832 8.96898Z" fill="#161616"/>
</svg>
