<svg width="24" height="24" viewBox="0 0 24 24" fill="none" xmlns="http://www.w3.org/2000/svg">
<path d="M16.9751 18.0938H14.4429V16.5938H16.9751V14.0626H18.4751V16.5938H21.0054V18.0938H18.4751V20.6251H16.9751V18.0938ZM4.49365 16.0665L10.7876 19.7002V12.9805L4.49365 9.10748V16.0665ZM4.98486 7.64849L11.5269 11.6749L13.9995 10.0684L7.60693 6.13482L4.98486 7.64849ZM9.0835 5.28228L15.3062 9.11138L15.3921 9.16412L17.897 7.53716L11.5376 3.86529L9.0835 5.28228ZM20.0825 12.7501H18.5825V8.88091L12.2876 12.9698V21.0001C12.2876 21.268 12.1446 21.5155 11.9126 21.6495C11.6806 21.7833 11.3946 21.7834 11.1626 21.6495L3.36865 17.1495C3.13663 17.0155 2.99365 16.768 2.99365 16.5001V7.50005C2.99365 7.23212 3.13663 6.98462 3.36865 6.85064L11.1626 2.35064L11.2524 2.30669C11.4657 2.21887 11.7096 2.23353 11.9126 2.35064L19.7075 6.85064C19.9394 6.98466 20.0825 7.23224 20.0825 7.50005V12.7501Z" fill="#161616"/>
</svg>
