<svg width="28" height="28" viewBox="0 0 28 28" fill="none" xmlns="http://www.w3.org/2000/svg">
<path d="M9 18C9 17.4477 9.44772 17 10 17H18C18.5523 17 19 17.4477 19 18V24C19 24.5523 18.5523 25 18 25H10C9.44772 25 9 24.5523 9 24V18Z" fill="#96A1B6"/>
<path d="M4 6C4 4.89543 4.89543 4 6 4H22C23.1046 4 24 4.89543 24 6V18C24 19.1046 23.1046 20 22 20H6C4.89543 20 4 19.1046 4 18V6Z" fill="#657596"/>
<path d="M7 8C7 7.44772 7.44772 7 8 7H10C10.5523 7 11 7.44772 11 8V10C11 10.5523 10.5523 11 10 11H8C7.44772 11 7 10.5523 7 10V8Z" fill="#CEEBEB"/>
</svg>
