<svg width="24" height="24" viewBox="0 0 24 24" fill="none" xmlns="http://www.w3.org/2000/svg">
<path d="M10.9678 19.4707H12.9678V22H10.9678V19.4707ZM10.9844 13.8038C10.9844 13.3726 11.2607 12.9891 11.6699 12.8536C11.671 12.8532 11.6741 12.8528 11.6777 12.8516C11.685 12.8491 11.6974 12.8447 11.7139 12.8389C11.7472 12.8272 11.7985 12.8084 11.8652 12.7832C11.9997 12.7325 12.1959 12.6551 12.4326 12.5508C12.9092 12.341 13.5368 12.0289 14.1572 11.6192C15.4614 10.7579 16.4326 9.66921 16.4326 8.40531V8.40434C16.4342 7.36848 16.0659 6.36413 15.3906 5.56938C14.7151 4.77444 13.7759 4.23989 12.7383 4.06352C11.7005 3.88716 10.633 4.0807 9.72656 4.60844C8.82049 5.13607 8.13438 5.96347 7.78711 6.94145L7.45215 7.88383L5.56738 7.21391L5.90234 6.27152C6.40904 4.84482 7.40839 3.64398 8.7207 2.87992C10.0329 2.11596 11.5747 1.8372 13.0732 2.09184C14.5718 2.34652 15.9333 3.11913 16.915 4.27445C17.8964 5.42949 18.4344 6.89267 18.4326 8.40531C18.4326 10.7398 16.6798 12.3502 15.2598 13.2881C14.5182 13.7779 13.7833 14.1409 13.2383 14.3809C13.1488 14.4203 13.0636 14.4552 12.9844 14.4883V18.294H10.9844V13.8038Z" fill="#161616"/>
</svg>
