<svg width="24" height="24" viewBox="0 0 24 24" fill="none" xmlns="http://www.w3.org/2000/svg">
<path d="M9.417 15.2998C9.417 15.0309 9.41567 14.874 9.40626 14.7588C9.40211 14.7082 9.39721 14.6809 9.39454 14.669C9.37932 14.6418 9.35736 14.6195 9.33009 14.6045C9.31758 14.6018 9.29031 14.5978 9.24122 14.5938C9.12602 14.5843 8.96915 14.583 8.70021 14.583H5.21681C4.9478 14.583 4.79102 14.5844 4.67579 14.5938C4.57891 14.6017 4.56722 14.6123 4.58497 14.6045C4.55816 14.6196 4.53648 14.6421 4.52149 14.669C4.51881 14.681 4.51391 14.7083 4.50978 14.7588C4.50036 14.874 4.50001 15.0309 4.50001 15.2998V18.7832C4.50001 19.0522 4.50037 19.209 4.50978 19.3242C4.51388 19.3744 4.51879 19.4019 4.52149 19.4141C4.53638 19.4408 4.55833 19.4625 4.58497 19.4775C4.59657 19.4802 4.62399 19.486 4.67579 19.4902C4.79101 19.4996 4.94784 19.5 5.21681 19.5H8.70021C8.96915 19.5 9.12602 19.4997 9.24122 19.4902C9.29071 19.4862 9.3177 19.4803 9.33009 19.4775C9.3572 19.4625 9.37943 19.4411 9.39454 19.4141C9.39723 19.4019 9.40214 19.3746 9.40626 19.3242C9.41567 19.209 9.417 19.0522 9.417 18.7832V15.2998ZM13.0908 15.375H14.5908V21H13.0908V15.375ZM19.5 15.834H21V20.25C21 20.6642 20.6642 21 20.25 21H15.8818V19.5H19.5V15.834ZM6.96778 16.292L7.04396 16.2959C7.42224 16.3342 7.71778 16.6536 7.71778 17.042C7.71762 17.4303 7.42217 17.7498 7.04396 17.7881L6.96778 17.792H6.95802C6.54406 17.7918 6.20819 17.456 6.20802 17.042C6.20802 16.6279 6.54395 16.2922 6.95802 16.292H6.96778ZM21 13.084V14.584H15.375V13.084H21ZM12.9258 12.167C13.34 12.167 13.6758 12.5028 13.6758 12.917C13.6756 13.3311 13.3399 13.667 12.9258 13.667H12.917C12.5029 13.667 12.1672 13.3311 12.167 12.917C12.167 12.5028 12.5028 12.167 12.917 12.167H12.9258ZM9.417 5.21681C9.417 4.9478 9.41567 4.79102 9.40626 4.67579C9.40204 4.62409 9.39718 4.59661 9.39454 4.58497C9.37935 4.5581 9.35713 4.53641 9.33009 4.52149C9.31761 4.51877 9.29044 4.5138 9.24122 4.50978C9.12602 4.50036 8.96915 4.50001 8.70021 4.50001H5.21681C4.94784 4.50001 4.79101 4.50037 4.67579 4.50978C4.57913 4.51767 4.56739 4.5292 4.58497 4.52149C4.55839 4.53645 4.53645 4.55839 4.52149 4.58497C4.5292 4.56739 4.51767 4.57913 4.50978 4.67579C4.50037 4.79101 4.50001 4.94784 4.50001 5.21681V8.70021C4.50001 8.96915 4.50036 9.12602 4.50978 9.24122C4.5138 9.29044 4.51877 9.31761 4.52149 9.33009C4.53641 9.35713 4.5581 9.37935 4.58497 9.39454C4.59661 9.39718 4.62409 9.40204 4.67579 9.40626C4.79102 9.41567 4.9478 9.417 5.21681 9.417H8.70021C8.96915 9.417 9.12602 9.41567 9.24122 9.40626C9.29058 9.40222 9.31767 9.39726 9.33009 9.39454C9.35742 9.3794 9.3794 9.35742 9.39454 9.33009C9.39726 9.31767 9.40222 9.29058 9.40626 9.24122C9.41567 9.12602 9.417 8.96915 9.417 8.70021V5.21681ZM19.5 5.21681C19.5 4.94784 19.4996 4.79101 19.4902 4.67579C19.486 4.62399 19.4802 4.59657 19.4775 4.58497C19.4625 4.55833 19.4408 4.53638 19.4141 4.52149C19.4019 4.51879 19.3744 4.51388 19.3242 4.50978C19.209 4.50037 19.0522 4.50001 18.7832 4.50001H15.2998C15.0309 4.50001 14.874 4.50036 14.7588 4.50978C14.7083 4.51391 14.681 4.51881 14.669 4.52149C14.6421 4.53648 14.6196 4.55816 14.6045 4.58497C14.6123 4.56722 14.6017 4.57891 14.5938 4.67579C14.5844 4.79102 14.583 4.9478 14.583 5.21681V8.70021C14.583 8.96915 14.5843 9.12602 14.5938 9.24122C14.5978 9.29031 14.6018 9.31758 14.6045 9.33009C14.6195 9.35736 14.6418 9.37932 14.669 9.39454C14.6809 9.39721 14.7082 9.40211 14.7588 9.40626C14.874 9.41567 15.0309 9.417 15.2998 9.417H18.7832C19.0522 9.417 19.209 9.41567 19.3242 9.40626C19.3746 9.40214 19.4019 9.39723 19.4141 9.39454C19.4411 9.37943 19.4625 9.3572 19.4775 9.33009C19.4803 9.3177 19.4862 9.29071 19.4902 9.24122C19.4997 9.12602 19.5 8.96915 19.5 8.70021V5.21681ZM6.96778 6.20802C7.38176 6.20817 7.71761 6.54404 7.71778 6.95802C7.71778 7.37214 7.38187 7.70787 6.96778 7.70802H6.95802C6.54395 7.70784 6.20802 7.37212 6.20802 6.95802C6.20819 6.54406 6.54406 6.20819 6.95802 6.20802H6.96778ZM17.0508 6.20802L17.1279 6.21192C17.5058 6.2505 17.8006 6.56997 17.8008 6.95802C17.8008 7.34619 17.5059 7.6655 17.1279 7.70411L17.0508 7.70802H17.042C16.6278 7.70802 16.292 7.37223 16.292 6.95802C16.2922 6.54395 16.6279 6.20802 17.042 6.20802H17.0508ZM10.917 18.7832C10.917 19.0275 10.9169 19.2558 10.9014 19.4463C10.8892 19.5956 10.8655 19.7585 10.8067 19.9238L10.7354 20.0899C10.5955 20.3643 10.3823 20.5938 10.1211 20.7539L10.0068 20.8184C9.78549 20.9312 9.5625 20.9691 9.36329 20.9854C9.17286 21.0009 8.94445 21 8.70021 21H5.21681C4.97258 21 4.74416 21.0009 4.55372 20.9854C4.40435 20.9732 4.24154 20.9485 4.07618 20.8897L3.91017 20.8184C3.63586 20.6786 3.40623 20.466 3.2461 20.2051L3.18165 20.0899C3.06889 19.8685 3.03093 19.6455 3.01466 19.4463C2.99911 19.2559 3.00001 19.0274 3.00001 18.7832V15.2998C3.00001 15.0556 2.9991 14.8272 3.01466 14.6367C3.03094 14.4375 3.06887 14.2145 3.18165 13.9932L3.2461 13.8789C3.40625 13.6178 3.6357 13.4045 3.91017 13.2647L4.07618 13.1934C4.24151 13.1345 4.40438 13.1108 4.55372 13.0986C4.74417 13.0831 4.97256 13.083 5.21681 13.083H8.70021C8.94445 13.083 9.17286 13.0831 9.36329 13.0986C9.51267 13.1109 9.67547 13.1345 9.84083 13.1934L10.0068 13.2647L10.1211 13.3291C10.3823 13.4893 10.5955 13.7187 10.7354 13.9932L10.8067 14.1592C10.8656 14.3246 10.8892 14.4873 10.9014 14.6367C10.9169 14.8272 10.917 15.0556 10.917 15.2998V18.7832ZM10.917 8.70021C10.917 8.94445 10.9169 9.17286 10.9014 9.36329C10.8892 9.51267 10.8656 9.67547 10.8067 9.84083L10.7354 10.0068C10.5955 10.2814 10.3823 10.5108 10.1211 10.6709L10.0068 10.7354C9.78551 10.8481 9.56249 10.8851 9.36329 10.9014C9.17286 10.9169 8.94445 10.917 8.70021 10.917H5.21681C4.97256 10.917 4.74417 10.9169 4.55372 10.9014C4.40438 10.8892 4.24151 10.8655 4.07618 10.8067L3.91017 10.7354C3.6357 10.5955 3.40625 10.3823 3.2461 10.1211L3.18165 10.0068C3.06887 9.78549 3.03094 9.5625 3.01466 9.36329C2.9991 9.17286 3.00001 8.94445 3.00001 8.70021V5.21681C3.00001 4.97258 2.99911 4.74416 3.01466 4.55372C3.03093 4.35452 3.06889 4.13152 3.18165 3.91017L3.2461 3.79493C3.40623 3.53398 3.63586 3.32142 3.91017 3.18165L4.07618 3.11036C4.24154 3.05148 4.40435 3.02686 4.55372 3.01466C4.74416 2.99911 4.97258 3.00001 5.21681 3.00001H8.70021C8.94445 3.00001 9.17286 2.9991 9.36329 3.01466C9.51272 3.02687 9.67541 3.05142 9.84083 3.11036L10.0068 3.18165L10.1211 3.2461C10.3823 3.40625 10.5955 3.6357 10.7354 3.91017L10.8067 4.07618C10.8655 4.24151 10.8892 4.40438 10.9014 4.55372C10.9169 4.74417 10.917 4.97256 10.917 5.21681V8.70021ZM21 8.70021C21 8.94445 21.0009 9.17286 20.9854 9.36329C20.9731 9.51272 20.9486 9.67541 20.8897 9.84083L20.8184 10.0068C20.6786 10.2811 20.4661 10.5108 20.2051 10.6709L20.0899 10.7354C19.8685 10.8481 19.6455 10.8851 19.4463 10.9014C19.2558 10.9169 19.0275 10.917 18.7832 10.917H15.2998C15.0556 10.917 14.8272 10.9169 14.6367 10.9014C14.4873 10.8892 14.3246 10.8656 14.1592 10.8067L13.9932 10.7354C13.7187 10.5955 13.4893 10.3823 13.3291 10.1211L13.2647 10.0068C13.1519 9.78551 13.1149 9.56249 13.0986 9.36329C13.0831 9.17286 13.083 8.94445 13.083 8.70021V5.21681C13.083 4.97256 13.0831 4.74417 13.0986 4.55372C13.1149 4.35456 13.152 4.13148 13.2647 3.91017L13.3291 3.79493C13.4892 3.53396 13.7189 3.32144 13.9932 3.18165L14.1592 3.11036C14.3246 3.05142 14.4873 3.02687 14.6367 3.01466C14.8272 2.9991 15.0556 3.00001 15.2998 3.00001H18.7832C19.0274 3.00001 19.2559 2.99911 19.4463 3.01466C19.5957 3.02686 19.7585 3.05148 19.9238 3.11036L20.0899 3.18165L20.2051 3.2461C20.466 3.40623 20.6786 3.63586 20.8184 3.91017L20.8897 4.07618C20.9485 4.24154 20.9732 4.40435 20.9854 4.55372C21.0009 4.74416 21 4.97258 21 5.21681V8.70021Z" fill="#161616"/>
</svg>
