<svg width="24" height="24" viewBox="0 0 24 24" fill="none" xmlns="http://www.w3.org/2000/svg">
<path d="M3 18.417V14H4.5V18.417C4.50018 19.015 4.98496 19.4998 5.58301 19.5H10V21H5.58301C4.15653 20.9998 3.00018 19.8435 3 18.417ZM19.5 18.417V14H21V18.417C20.9998 19.8435 19.8435 20.9998 18.417 21H14V19.5H18.417C19.015 19.4998 19.4998 19.015 19.5 18.417ZM3 5.58301C3.00018 4.15653 4.15653 3.00018 5.58301 3H10V4.5H5.58301C4.98496 4.50018 4.50018 4.98496 4.5 5.58301V10H3V5.58301ZM19.5 5.58301C19.4998 4.98496 19.015 4.50018 18.417 4.5H14V3H18.417C19.8435 3.00018 20.9998 4.15653 21 5.58301V10H19.5V5.58301Z" fill="#161616"/>
<path d="M10.2302 13.7683C10.175 13.7668 10.1009 13.7654 9.99292 13.7654H7.87378C7.76477 13.7654 7.68993 13.7668 7.63452 13.7683C7.63299 13.8237 7.63159 13.8984 7.63159 14.0076V16.1267C7.63159 16.2347 7.63303 16.3088 7.63452 16.364C7.68993 16.3655 7.76474 16.3689 7.87378 16.3689H9.99292C10.101 16.3689 10.175 16.3655 10.2302 16.364C10.2317 16.3088 10.2351 16.2347 10.2351 16.1267V14.0076C10.2351 13.8984 10.2318 13.8237 10.2302 13.7683ZM12.4695 13.8591H13.7693V17.6687H12.4695V13.8591ZM16.3689 14.1384H17.6687V17.0193C17.6684 17.378 17.3771 17.6687 17.0183 17.6687H14.1677V16.3689H16.3689V14.1384ZM17.6687 12.4656V13.7654H13.8591V12.4656H17.6687ZM10.2302 7.63452C10.175 7.63303 10.1009 7.63159 9.99292 7.63159H7.87378C7.76477 7.63159 7.68993 7.633 7.63452 7.63452C7.633 7.68993 7.63159 7.76477 7.63159 7.87378V9.99292C7.63159 10.1009 7.63303 10.175 7.63452 10.2302C7.68993 10.2318 7.76475 10.2351 7.87378 10.2351H9.99292C10.101 10.2351 10.175 10.2317 10.2302 10.2302C10.2317 10.175 10.2351 10.101 10.2351 9.99292V7.87378C10.2351 7.76475 10.2317 7.68993 10.2302 7.63452ZM16.364 7.63452C16.3088 7.63303 16.2347 7.63159 16.1267 7.63159H14.0076C13.8984 7.63159 13.8237 7.63299 13.7683 7.63452C13.7668 7.68993 13.7654 7.76477 13.7654 7.87378V9.99292C13.7654 10.1009 13.7668 10.175 13.7683 10.2302C13.8237 10.2318 13.8984 10.2351 14.0076 10.2351H16.1267C16.2347 10.2351 16.3088 10.2317 16.364 10.2302C16.3655 10.175 16.3689 10.101 16.3689 9.99292V7.87378C16.3689 7.76475 16.3655 7.68993 16.364 7.63452ZM11.5349 16.1267C11.5349 16.2721 11.5354 16.4201 11.5251 16.5457C11.517 16.6455 11.5004 16.7629 11.4568 16.8855L11.4031 17.0095C11.3162 17.1799 11.1901 17.3258 11.0369 17.4373L10.8757 17.5369C10.7093 17.6217 10.545 17.648 10.4119 17.6589C10.2864 17.6692 10.1382 17.6687 9.99292 17.6687H7.87378C7.72835 17.6687 7.57945 17.6692 7.45386 17.6589C7.35417 17.6508 7.23728 17.6341 7.11499 17.5906L6.99096 17.5369C6.82062 17.4501 6.67369 17.3248 6.56225 17.1716L6.46264 17.0095C6.37778 16.843 6.35146 16.6788 6.34057 16.5457C6.33032 16.4201 6.33081 16.272 6.33081 16.1267V14.0076C6.33081 13.8623 6.33035 13.7141 6.34057 13.5886C6.35145 13.4555 6.37786 13.2912 6.46264 13.1248L6.56225 12.9626C6.67371 12.8094 6.82054 12.6833 6.99096 12.5964L7.11499 12.5437C7.23731 12.5002 7.35415 12.4835 7.45386 12.4753C7.57945 12.4651 7.72835 12.4656 7.87378 12.4656H9.99292C10.1382 12.4656 10.2864 12.4651 10.4119 12.4753C10.5118 12.4835 10.6291 12.5 10.7517 12.5437L10.8757 12.5964L11.0369 12.696C11.1392 12.7704 11.2291 12.8604 11.3035 12.9626L11.4031 13.1248L11.4568 13.2488C11.5004 13.3713 11.517 13.4888 11.5251 13.5886C11.5354 13.7141 11.5349 13.8623 11.5349 14.0076V16.1267ZM11.5349 9.99292C11.5349 10.1382 11.5354 10.2864 11.5251 10.4119C11.517 10.5118 11.5005 10.6291 11.4568 10.7517L11.4031 10.8757C11.3162 11.0461 11.1901 11.1921 11.0369 11.3035L10.8757 11.4031C10.7093 11.4879 10.545 11.5143 10.4119 11.5251C10.2864 11.5354 10.1382 11.5349 9.99292 11.5349H7.87378C7.72835 11.5349 7.57945 11.5354 7.45386 11.5251C7.35419 11.517 7.23726 11.5003 7.11499 11.4568L6.99096 11.4031C6.82044 11.3162 6.67373 11.1902 6.56225 11.0369L6.46264 10.8757C6.37783 10.7093 6.35147 10.545 6.34057 10.4119C6.33032 10.2864 6.33081 10.1382 6.33081 9.99292V7.87378C6.33081 7.72835 6.33031 7.57945 6.34057 7.45386C6.35146 7.32084 6.37801 7.15724 6.46264 6.99097L6.56225 6.82886C6.67373 6.67553 6.82048 6.54951 6.99096 6.46265L7.11499 6.40991C7.23736 6.36637 7.35411 6.34874 7.45386 6.34058C7.57945 6.33031 7.72835 6.33081 7.87378 6.33081H9.99292C10.1382 6.33081 10.2864 6.33033 10.4119 6.34058C10.5118 6.34875 10.629 6.36616 10.7517 6.40991L10.8757 6.46265L11.0369 6.56226C11.1392 6.63662 11.2291 6.72656 11.3035 6.82886L11.4031 6.99097L11.4568 7.11499C11.5003 7.23727 11.517 7.35419 11.5251 7.45386C11.5354 7.57945 11.5349 7.72835 11.5349 7.87378V9.99292ZM17.6687 9.99292C17.6687 10.1382 17.6692 10.2864 17.6589 10.4119C17.6508 10.5118 17.6343 10.6291 17.5906 10.7517L17.5369 10.8757C17.4501 11.0459 17.3246 11.1921 17.1716 11.3035L17.0095 11.4031C16.843 11.4879 16.6788 11.5143 16.5457 11.5251C16.4201 11.5354 16.272 11.5349 16.1267 11.5349H14.0076C13.8623 11.5349 13.7141 11.5354 13.5886 11.5251C13.4888 11.517 13.3713 11.5004 13.2488 11.4568L13.1248 11.4031C12.9542 11.3162 12.8075 11.1903 12.696 11.0369L12.5964 10.8757C12.5116 10.7093 12.4862 10.545 12.4753 10.4119C12.4651 10.2864 12.4656 10.1382 12.4656 9.99292V7.87378C12.4656 7.72835 12.4651 7.57945 12.4753 7.45386C12.4862 7.32087 12.5119 7.15718 12.5964 6.99097L12.696 6.82886C12.8075 6.67548 12.9542 6.54954 13.1248 6.46265L13.2488 6.40991C13.3714 6.36626 13.4887 6.34874 13.5886 6.34058C13.7141 6.33035 13.8623 6.33081 14.0076 6.33081H16.1267C16.272 6.33081 16.4201 6.33032 16.5457 6.34058C16.6456 6.34874 16.7628 6.36618 16.8855 6.40991L17.0095 6.46265L17.1716 6.56226C17.2737 6.63653 17.363 6.72677 17.4373 6.82886L17.5369 6.99097L17.5906 7.11499C17.6341 7.23728 17.6508 7.35417 17.6589 7.45386C17.6692 7.57945 17.6687 7.72835 17.6687 7.87378V9.99292Z" fill="#161616"/>
</svg>
