<svg width="24" height="24" viewBox="0 0 24 24" fill="none" xmlns="http://www.w3.org/2000/svg">
<path d="M15.2373 2.82712C16.007 2.05765 17.2547 2.05761 18.0244 2.82712L21.4941 6.29685L21.6289 6.44626C22.2605 7.22038 22.2156 8.36221 21.4941 9.08396L9.40525 21.1728C8.6835 21.8943 7.54167 21.9392 6.76755 21.3076L6.61814 21.1728L3.14841 17.7031C2.3789 16.9334 2.37893 15.6857 3.14841 14.916L15.2373 2.82712ZM16.9638 3.88767C16.8028 3.72681 16.5539 3.70634 16.3711 3.82712L16.2978 3.88767L4.20896 15.9765C4.02527 16.1605 4.02523 16.4586 4.20896 16.6426L7.67868 20.1123C7.8626 20.296 8.16076 20.296 8.3447 20.1123L10.0937 18.3623L7.61716 15.8857L8.67771 14.8242L11.1543 17.3017L12.6845 15.7715L10.207 13.2949L11.2685 12.2343L13.7451 14.7109L15.2744 13.1816L12.7978 10.7051L13.8584 9.64353L16.3359 12.1211L17.8652 10.5908L15.3886 8.11423L16.4492 7.05368L18.9258 9.53025L20.4336 8.02341C20.6173 7.83947 20.6173 7.54131 20.4336 7.35739L16.9638 3.88767Z" fill="#161616"/>
</svg>
