<svg width="24" height="24" viewBox="0 0 24 24" fill="none" xmlns="http://www.w3.org/2000/svg">
<path d="M7.22718 7.22706C9.87866 4.57559 14.0802 4.53434 16.6122 7.06617C18.2593 8.71326 18.814 11.0596 18.2737 13.2354L16.7206 11.6824L15.66 12.743L18.7619 15.8449C19.0548 16.1378 19.5296 16.1378 19.8225 15.8449L23.0045 12.6629L21.9438 11.6023L19.6554 13.8907L19.6678 13.8451C20.4319 11.1283 19.7814 8.114 17.6729 6.00551C14.5245 2.85736 9.37278 2.96014 6.16652 6.1664C2.96026 9.37266 2.85749 14.5244 6.00563 17.6728C7.19198 18.8591 8.66887 19.5859 10.2179 19.8562L10.9568 19.9847L11.2143 18.5076L10.4761 18.3785C9.21828 18.159 8.02518 17.571 7.06629 16.6121C4.53446 14.0801 4.57571 9.87854 7.22718 7.22706Z" fill="#161616"/>
<path d="M13.5001 12C13.5001 12.8285 12.8286 13.5 12.0001 13.5C11.1717 13.5 10.5001 12.8285 10.5001 12C10.5001 11.1716 11.1717 10.5 12.0001 10.5C12.8286 10.5 13.5001 11.1716 13.5001 12Z" fill="#161616"/>
</svg>
