<svg width="24" height="24" viewBox="0 0 24 24" fill="none" xmlns="http://www.w3.org/2000/svg">
<path d="M20.25 15.375V8.625C20.25 7.17525 19.0747 6 17.625 6H15.1875V4.5H17.625C19.9032 4.5 21.75 6.34683 21.75 8.625V15.375C21.75 17.6532 19.9032 19.5 17.625 19.5H12.123L13.623 21L12.5625 22.0605L9.78223 19.2803C9.64161 19.1396 9.5625 18.9489 9.5625 18.75C9.56253 18.5511 9.64161 18.3604 9.78223 18.2197L12.5625 15.4395L13.623 16.5L12.123 18H17.625C19.0747 18 20.25 16.8247 20.25 15.375ZM2.25 15.375V8.625C2.25 6.34683 4.09683 4.5 6.375 4.5H10.752L9.25195 3L10.3125 1.93945L13.0928 4.71973L13.1445 4.77637C13.3848 5.07095 13.3674 5.50567 13.0928 5.78027L10.3125 8.56055L9.25195 7.5L10.752 6H6.375C4.92525 6 3.75 7.17525 3.75 8.625V15.375C3.75 16.8247 4.92525 18 6.375 18H7.125V19.5H6.375C4.09683 19.5 2.25 17.6532 2.25 15.375Z" fill="#161616"/>
</svg>
