<svg width="24" height="24" viewBox="0 0 24 24" fill="none" xmlns="http://www.w3.org/2000/svg">
<path d="M12.5222 15.9102C12.5222 15.66 12.5219 15.5172 12.5135 15.4131C12.5106 15.378 12.5068 15.3563 12.5047 15.3447C12.4974 15.3338 12.4884 15.3246 12.4775 15.3174C12.4658 15.3153 12.4445 15.3124 12.4104 15.3096C12.3587 15.3053 12.2973 15.303 12.2178 15.3018L11.9154 15.2998H11.2377C10.9886 15.2998 10.8463 15.3011 10.7427 15.3096C10.7075 15.3125 10.6861 15.3153 10.6747 15.3174C10.6639 15.3247 10.6546 15.3339 10.6474 15.3447C10.6453 15.3564 10.6425 15.3782 10.6397 15.4131C10.6312 15.5172 10.6309 15.66 10.6309 15.9102V19.1397C10.6309 19.3897 10.6312 19.5327 10.6397 19.6367C10.6424 19.6705 10.6453 19.6922 10.6474 19.7041C10.6546 19.7151 10.6639 19.724 10.6747 19.7315C10.686 19.7336 10.7073 19.7383 10.7427 19.7412C10.8463 19.7497 10.9886 19.75 11.2377 19.75H11.9154C12.1646 19.75 12.3067 19.7497 12.4104 19.7412C12.4448 19.7384 12.4658 19.7336 12.4775 19.7315C12.4884 19.7241 12.4974 19.7152 12.5047 19.7041C12.5068 19.6923 12.5107 19.6707 12.5135 19.6367C12.5219 19.5327 12.5222 19.3897 12.5222 19.1397V15.9102ZM14.0158 19.1397C14.0158 19.3653 14.0168 19.5804 14.0022 19.7598C13.9869 19.9477 13.9512 20.162 13.8427 20.376C13.69 20.6769 13.4461 20.9218 13.1465 21.0752C12.9331 21.1844 12.7192 21.221 12.5319 21.2363C12.3534 21.251 12.14 21.25 11.9154 21.25H11.2377C11.0132 21.25 10.7997 21.251 10.6212 21.2363C10.4339 21.221 10.2199 21.1843 10.0066 21.0752C9.70707 20.9218 9.46306 20.6769 9.3104 20.376C9.20195 20.162 9.16624 19.9477 9.15093 19.7598C9.13633 19.5804 9.13731 19.3653 9.13731 19.1397V15.9102C9.13731 15.6847 9.13637 15.4703 9.15093 15.291C9.16622 15.103 9.20182 14.888 9.3104 14.6738L9.37263 14.5635C9.52563 14.313 9.74455 14.1088 10.0066 13.9746L10.1671 13.9053C10.3257 13.8486 10.4809 13.826 10.6212 13.8145C10.6865 13.8091 10.7568 13.8067 10.8302 13.8047C10.8303 13.3693 10.8306 12.9983 10.8555 12.6924C10.8824 12.3625 10.9409 12.0425 11.0957 11.7373C11.3296 11.2766 11.7027 10.9018 12.1615 10.667C12.4653 10.5115 12.784 10.4527 13.1124 10.4258C13.4322 10.3996 13.8235 10.4004 14.2852 10.4004H17.3317C17.8179 10.4004 18.138 10.399 18.3828 10.3789C18.6182 10.3596 18.7183 10.3266 18.7766 10.2969C18.9546 10.2058 19.1002 10.0596 19.1909 9.88086C19.2205 9.82232 19.2533 9.72176 19.2726 9.48536C19.2925 9.23952 19.2939 8.91805 19.2939 8.42969V8.17481C19.2939 7.76862 19.2933 7.50149 19.2794 7.2959C19.2659 7.09775 19.2424 7.01159 19.222 6.96192C19.126 6.72914 18.9413 6.54369 18.7095 6.44727C18.6602 6.42675 18.5746 6.40322 18.377 6.38965C18.329 6.38636 18.2771 6.38576 18.2214 6.38379C18.2154 6.43305 18.2102 6.48158 18.201 6.52833C18.0084 7.50004 17.252 8.25983 16.2844 8.45313C16.0306 8.50382 15.7424 8.50001 15.3849 8.50001H6.07525C5.71778 8.50001 5.42963 8.50384 5.17579 8.45313C4.20829 8.25973 3.45178 7.49998 3.2592 6.52833C3.20871 6.2734 3.21253 5.98401 3.21253 5.62501C3.21253 5.266 3.20871 4.97661 3.2592 4.72168C3.45178 3.75003 4.20829 2.99028 5.17579 2.79688C5.42963 2.74617 5.71777 2.75001 6.07525 2.75001H15.3849C15.7424 2.75001 16.0306 2.74619 16.2844 2.79688C17.252 2.99018 18.0084 3.74997 18.201 4.72168C18.2113 4.7737 18.218 4.82766 18.2243 4.88282C18.314 4.88545 18.3987 4.88714 18.4781 4.89258C18.7522 4.91136 19.0196 4.95266 19.2813 5.06153C19.879 5.3102 20.3542 5.78742 20.6018 6.3877C20.71 6.65027 20.7504 6.91838 20.7691 7.19336C20.7873 7.46185 20.7875 7.78911 20.7875 8.17481V8.42969C20.7875 8.89327 20.7874 9.28636 20.7613 9.60743C20.7344 9.93729 20.6759 10.2573 20.5211 10.5625C20.2873 11.0233 19.9142 11.398 19.4554 11.6328C19.1515 11.7883 18.8328 11.8471 18.5044 11.874C18.1847 11.9002 17.7933 11.9004 17.3317 11.9004H14.2852C13.7988 11.9004 13.4788 11.9008 13.234 11.9209C12.998 11.9403 12.8984 11.9741 12.8402 12.0039C12.6622 12.095 12.5176 12.2402 12.4269 12.419C12.3973 12.4774 12.3635 12.5775 12.3443 12.8145C12.3252 13.0492 12.3239 13.3527 12.3238 13.8047C12.397 13.8068 12.4668 13.8091 12.5319 13.8145C12.6725 13.826 12.828 13.8484 12.987 13.9053L13.1465 13.9746L13.2564 14.0361C13.5058 14.1899 13.7091 14.4105 13.8427 14.6738C13.9513 14.888 13.9869 15.103 14.0022 15.291C14.0167 15.4703 14.0158 15.6847 14.0158 15.9102V19.1397ZM4.70612 5.62501C4.70612 6.05591 4.71004 6.16185 4.7246 6.23536C4.79926 6.61215 5.09232 6.90647 5.46751 6.98145C5.5407 6.99607 5.64619 7.00001 6.07525 7.00001H15.3849C15.8134 7.00001 15.9195 6.99602 15.9927 6.98145C16.3679 6.90649 16.6619 6.61221 16.7366 6.23536C16.7511 6.16185 16.7541 6.05583 16.7541 5.62501C16.7541 5.19418 16.7511 5.08816 16.7366 5.01465C16.6619 4.6378 16.3679 4.34352 15.9927 4.26856C15.9195 4.25399 15.8134 4.25001 15.3849 4.25001H6.07525C5.64619 4.25001 5.5407 4.25394 5.46751 4.26856C5.09232 4.34354 4.79926 4.63786 4.7246 5.01465C4.71004 5.08816 4.70612 5.1941 4.70612 5.62501Z" fill="#161616"/>
</svg>
