<svg width="24" height="24" viewBox="0 0 24 24" fill="none" xmlns="http://www.w3.org/2000/svg">
<path d="M18.6167 5.2002C18.6167 4.57117 18.1954 4.25 17.8931 4.25H6.10693C5.80461 4.25 5.3833 4.57117 5.3833 5.2002V19.0684L6.66162 18.1836L6.76221 18.125C7.00282 18.0085 7.29148 18.0281 7.51611 18.1836L9.54443 19.5879L11.5728 18.1836L11.6733 18.125C11.914 18.0085 12.2026 18.0281 12.4272 18.1836L14.4556 19.5879L16.4839 18.1836L16.5845 18.125C16.8251 18.0085 17.1138 18.0281 17.3384 18.1836L18.6167 19.0684V5.2002ZM15.9663 11.8164V13.3164H8.03369V11.8164H15.9663ZM15.9663 7.2832V8.7832H8.03369V7.2832H15.9663ZM20.1167 20.5C20.1167 20.779 19.9615 21.0346 19.7144 21.1641C19.4673 21.2934 19.1692 21.275 18.9399 21.1162L16.9106 19.7119L14.8823 21.1162C14.6255 21.294 14.2856 21.294 14.0288 21.1162L11.9995 19.7119L9.97119 21.1162C9.71436 21.294 9.37451 21.294 9.11768 21.1162L7.08838 19.7119L5.06006 21.1162C4.83077 21.275 4.5327 21.2934 4.28564 21.1641C4.03855 21.0346 3.8833 20.779 3.8833 20.5V5.2002C3.8833 3.95145 4.78186 2.75 6.10693 2.75H17.8931C19.2181 2.75 20.1167 3.95145 20.1167 5.2002V20.5Z" fill="#161616"/>
</svg>
