<svg width="24" height="24" viewBox="0 0 24 24" fill="none" xmlns="http://www.w3.org/2000/svg">
<path d="M12.4214 4.85815C12.4213 4.62567 12.2321 4.43726 11.9996 4.43726C11.7672 4.43743 11.5788 4.62577 11.5787 4.85815C11.5787 5.09068 11.7671 5.27986 11.9996 5.28003V6.78003L11.8033 6.76929C10.8346 6.6708 10.0787 5.85282 10.0787 4.85815C10.0788 3.79735 10.9388 2.93743 11.9996 2.93726C13.0605 2.93726 13.9213 3.79724 13.9214 4.85815L13.9107 5.05444C13.8125 6.02342 12.9945 6.78003 11.9996 6.78003V5.28003C12.2322 5.28003 12.4214 5.09078 12.4214 4.85815Z" fill="#161616"/>
<path d="M17.5996 9.78166C17.5996 9.09131 17.04 8.53166 16.3496 8.53166H7.65037C6.96002 8.53166 6.40037 9.09131 6.40037 9.78166V17.478C6.40057 18.1681 6.96014 18.728 7.65037 18.728H16.3496C17.0398 18.728 17.5994 18.1681 17.5996 17.478V9.78166ZM19.0996 17.478C19.0994 18.9966 17.8683 20.228 16.3496 20.228H7.65037C6.13172 20.228 4.90057 18.9966 4.90037 17.478V9.78166C4.90037 8.26288 6.13159 7.03166 7.65037 7.03166H16.3496C17.8684 7.03166 19.0996 8.26288 19.0996 9.78166V17.478Z" fill="#161616"/>
<path d="M6.40039 16.5747L6.40039 10.685H4.5C3.5335 10.685 2.75 11.4685 2.75 12.435L2.75 14.8247C2.75 15.7912 3.5335 16.5747 4.5 16.5747L6.40039 16.5747ZM4.25 12.435C4.25 12.297 4.36193 12.185 4.5 12.185H4.90039L4.90039 15.0747H4.5C4.36193 15.0747 4.25 14.9628 4.25 14.8247L4.25 12.435Z" fill="#161616"/>
<path d="M17.5996 10.6846L17.5996 16.5742H19.5C20.4665 16.5742 21.25 15.7907 21.25 14.8242V12.4346C21.25 11.4681 20.4665 10.6846 19.5 10.6846L17.5996 10.6846ZM19.75 14.8242C19.75 14.9623 19.6381 15.0742 19.5 15.0742H19.0996V12.1846H19.5C19.6381 12.1846 19.75 12.2965 19.75 12.4346V14.8242Z" fill="#161616"/>
<path d="M11.1642 12.6846C11.1642 13.3749 10.6046 13.9346 9.91424 13.9346C9.22389 13.9346 8.66424 13.3749 8.66424 12.6846C8.66424 11.9942 9.22389 11.4346 9.91424 11.4346C10.6046 11.4346 11.1642 11.9942 11.1642 12.6846Z" fill="#161616"/>
<path d="M15.3361 12.6846C15.3361 13.3749 14.7765 13.9346 14.0861 13.9346C13.3958 13.9346 12.8361 13.3749 12.8361 12.6846C12.8361 11.9942 13.3958 11.4346 14.0861 11.4346C14.7765 11.4346 15.3361 11.9942 15.3361 12.6846Z" fill="#161616"/>
<path d="M12.6894 7.78211H11.3097V5.77725H12.6894V7.78211Z" fill="#161616"/>
</svg>
