<svg width="24" height="24" viewBox="0 0 24 24" fill="none" xmlns="http://www.w3.org/2000/svg">
<path d="M18.75 9.5C18.75 5.77208 15.7279 2.75 12 2.75C8.27208 2.75 5.25 5.77208 5.25 9.5C5.25 13.2279 8.27208 16.25 12 16.25C15.7279 16.25 18.75 13.2279 18.75 9.5ZM16.25 16.5713C15.0086 17.319 13.5548 17.75 12 17.75C10.4452 17.75 8.9914 17.319 7.75 16.5713V20.8916L11.4248 19.4229C11.5027 19.3917 11.6493 19.3275 11.8105 19.3027L12 19.2881C12.0633 19.2881 12.1267 19.2931 12.1895 19.3027C12.3507 19.3275 12.4973 19.3917 12.5752 19.4229L16.25 20.8916V16.5713ZM20.25 9.5C20.25 11.8197 19.2911 13.9142 17.75 15.4131V22C17.75 22.2488 17.6268 22.4816 17.4209 22.6211C17.2149 22.7606 16.9527 22.7886 16.7217 22.6963L12.0186 20.8154C12.012 20.8128 12.0058 20.8099 12 20.8076C11.9942 20.8099 11.988 20.8128 11.9814 20.8154L7.27832 22.6963C7.04729 22.7886 6.78513 22.7606 6.5791 22.6211C6.37319 22.4816 6.25 22.2488 6.25 22V15.4131C4.70885 13.9142 3.75 11.8197 3.75 9.5C3.75 4.94365 7.44365 1.25 12 1.25C16.5563 1.25 20.25 4.94365 20.25 9.5Z" fill="#161616"/>
<path d="M9.25537 13.4243L9.24463 12.2534L12.0376 9.68604C12.7681 8.98779 13.1548 8.55811 13.1548 7.9458C13.1548 7.2583 12.6284 6.82861 11.9194 6.82861C11.189 6.82861 10.7163 7.29053 10.7163 8.03174H9.18018C9.16943 6.50635 10.2974 5.53955 11.9409 5.53955C13.606 5.53955 14.7124 6.48486 14.7124 7.83838C14.7124 8.71924 14.2827 9.44971 12.6821 10.8999L11.5005 12.0493V12.0923H14.8198V13.4243H9.25537Z" fill="#161616"/>
</svg>
