<svg width="24" height="24" viewBox="0 0 24 24" fill="none" xmlns="http://www.w3.org/2000/svg">
<path d="M19.3466 11.9998C19.3466 9.59039 18.1567 7.455 16.3215 6.1355L15.707 5.69409L16.6015 4.48218L17.2161 4.92358C19.4271 6.51327 20.8666 9.09063 20.8666 11.9998C20.8666 16.5232 17.3883 20.2444 12.9272 20.7019L14.0286 21.7878L12.9539 22.8484L10.8263 20.7498H10.763V20.6863L10.5087 20.4363C10.212 20.1435 10.2121 19.6686 10.5087 19.3757L12.9539 16.9626L14.0286 18.0232L12.8332 19.2019C16.4982 18.7935 19.3466 15.7257 19.3466 11.9998ZM3.1333 11.9998C3.13338 7.47699 6.61057 3.75497 11.0708 3.29663L9.97133 2.21167L11.046 1.15112L13.1736 3.24976H13.237V3.31226L13.4913 3.56323L13.5437 3.62085C13.7869 3.91542 13.7694 4.35027 13.4913 4.62476L11.046 7.03687L9.97133 5.97632L11.1658 4.79663C7.50117 5.20539 4.65338 8.27413 4.6533 11.9998C4.6533 14.2585 5.69914 16.2765 7.342 17.6072L7.67846 17.864L8.29299 18.3054L7.39841 19.5183L6.78388 19.0759L6.37815 18.7664C4.39837 17.1626 3.1333 14.7269 3.1333 11.9998Z" fill="#161616"/>
</svg>
