<svg width="24" height="24" viewBox="0 0 24 24" fill="none" xmlns="http://www.w3.org/2000/svg">
<path d="M11.9812 19.2588H19.2498V11.9902H13.6697L11.9812 13.6787V19.2588ZM20.7498 19.7588C20.7498 20.3111 20.3021 20.7588 19.7498 20.7588H11.4812L11.3786 20.7539C10.8745 20.7026 10.4812 20.2765 10.4812 19.7588V13.4716C10.4812 13.2064 10.5866 12.9521 10.7741 12.7646L12.7556 10.7831C12.9197 10.619 13.135 10.5177 13.364 10.495L13.4626 10.4902H19.7498C20.3021 10.4902 20.7498 10.9379 20.7498 11.4902V19.7588Z" fill="#161616"/>
<path d="M5.22494 9.75643C5.22515 7.24913 7.25768 5.2166 9.76498 5.21639C12.2725 5.21639 14.3058 7.249 14.306 9.75643H12.806C12.8058 8.07742 11.444 6.71639 9.76498 6.71639C8.08611 6.7166 6.72515 8.07755 6.72494 9.75643C6.72494 11.4355 8.08597 12.7972 9.76498 12.7974V14.2974C7.25755 14.2972 5.22494 12.2639 5.22494 9.75643Z" fill="#161616"/>
<path d="M2.49976 9.75659C2.49982 5.74393 5.75272 2.49103 9.76538 2.49097C13.7781 2.49097 17.0309 5.74389 17.031 9.75659H15.531C15.5309 6.57231 12.9497 3.99097 9.76538 3.99097C6.58114 3.99103 3.99982 6.57235 3.99976 9.75659C3.99976 12.9409 6.5811 15.5222 9.76538 15.5222V17.0222C5.75268 17.0222 2.49976 13.7693 2.49976 9.75659Z" fill="#161616"/>
</svg>
