<svg width="24" height="24" viewBox="0 0 24 24" fill="none" xmlns="http://www.w3.org/2000/svg">
<path d="M18.7217 11.4502C18.7217 7.61188 15.6098 4.50011 11.7715 4.5C7.93311 4.5 4.82129 7.61182 4.82129 11.4502C4.82139 15.2885 7.93317 18.4004 11.7715 18.4004C15.6097 18.4003 18.7216 15.2884 18.7217 11.4502ZM20.2217 11.4502C20.2216 13.5376 19.4624 15.4466 18.208 16.9209L21.6318 20.2324L20.5889 21.3105L17.1406 17.9746C15.6808 19.1773 13.8106 19.9003 11.7715 19.9004C7.10474 19.9004 3.32139 16.1169 3.32129 11.4502C3.32129 6.78339 7.10468 3 11.7715 3C16.4382 3.00011 20.2217 6.78345 20.2217 11.4502Z" fill="#161616"/>
</svg>
