<svg width="24" height="24" viewBox="0 0 24 24" fill="none" xmlns="http://www.w3.org/2000/svg">
<path d="M19.75 16.25C19.75 14.317 18.183 12.75 16.25 12.75H7.75C5.817 12.75 4.25 14.317 4.25 16.25C4.25006 18.183 5.81705 19.75 7.75 19.75H16.25C18.183 19.75 19.75 18.183 19.75 16.25ZM6.46875 16.3301V16.25C6.46875 15.8358 6.80454 15.5 7.21875 15.5C7.6329 15.5001 7.96875 15.8358 7.96875 16.25V16.3301C7.96865 16.7442 7.63284 17.08 7.21875 17.0801C6.8046 17.0801 6.46885 16.7442 6.46875 16.3301ZM17.5312 15.5V17H10.7188V15.5H17.5312ZM11.2021 2.75H12.7021V7.00684L14.127 5.58887L15.1855 6.65234L12.4805 9.34375C12.188 9.63479 11.7155 9.63557 11.4229 9.34473L9.3457 7.2793L9.875 6.74805L10.4033 6.21582L11.2021 7.00977V2.75ZM10.4033 6.21582L9.3457 7.2793L8.81445 6.75098L9.87207 5.68652L10.4033 6.21582ZM21.25 16.25C21.25 19.0114 19.0114 21.25 16.25 21.25H7.75C4.98864 21.25 2.75009 19.0114 2.75 16.25C2.75 13.4886 4.98857 11.25 7.75 11.25H16.25C19.0114 11.25 21.25 13.4886 21.25 16.25Z" fill="#161616"/>
</svg>
