<svg width="24" height="24" viewBox="0 0 24 24" fill="none" xmlns="http://www.w3.org/2000/svg">
<path d="M15.7822 5.25195C15.9029 5.25389 16.0159 5.25824 16.1182 5.2666C16.3312 5.28403 16.5647 5.32314 16.7949 5.44043C17.124 5.60818 17.3918 5.87597 17.5596 6.20508C17.6769 6.43527 17.716 6.66879 17.7334 6.88184C17.7501 7.08611 17.75 7.33211 17.75 7.59961V17.8086C17.75 18.0761 17.7501 18.3221 17.7334 18.5264C17.716 18.7394 17.6769 18.9729 17.5596 19.2031C17.3918 19.5323 17.124 19.8 16.7949 19.9678C16.5647 20.0851 16.3312 20.1252 16.1182 20.1426C15.9139 20.1593 15.6679 20.1582 15.4004 20.1582H13.25V21.25H15.3496V22.75H9.66895V21.25H11.75V20.1582H8.9082C7.99239 20.1581 7.25 19.4158 7.25 18.5V17.75H8.75V18.5C8.75 18.5874 8.82082 18.6581 8.9082 18.6582H15.4004C15.6926 18.6582 15.867 18.658 15.9961 18.6475C16.1161 18.6376 16.1297 18.6225 16.1133 18.6309C16.1603 18.6069 16.1987 18.5685 16.2227 18.5215C16.2143 18.5379 16.2294 18.5245 16.2393 18.4043C16.2498 18.2752 16.25 18.1008 16.25 17.8086V7.59961C16.25 7.30744 16.2498 7.13298 16.2393 7.00391C16.2294 6.88384 16.2143 6.87034 16.2227 6.88672C16.1987 6.83968 16.1603 6.80131 16.1133 6.77734C16.1297 6.78569 16.1162 6.77058 15.9961 6.76074C15.9315 6.75546 15.8552 6.75342 15.7588 6.75195L15.4004 6.75H9.59961C9.30744 6.75 9.13298 6.7502 9.00391 6.76074C8.88384 6.77058 8.87034 6.78569 8.88672 6.77734C8.83968 6.80131 8.80131 6.83968 8.77734 6.88672C8.78569 6.87034 8.77058 6.88384 8.76074 7.00391C8.7502 7.13298 8.75 7.30744 8.75 7.59961V9.41699H7.25V7.59961C7.25 7.33211 7.24991 7.08611 7.2666 6.88184C7.28403 6.66879 7.32314 6.43527 7.44043 6.20508C7.60818 5.87597 7.87597 5.60818 8.20508 5.44043C8.43527 5.32314 8.66879 5.28403 8.88184 5.2666C9.08611 5.24991 9.33211 5.25 9.59961 5.25H15.4004L15.7822 5.25195ZM7.5 11.75H5.5C4.5335 11.75 3.75 12.5335 3.75 13.5C3.75 14.4665 4.5335 15.25 5.5 15.25H7.5V16.75H5.5C3.70507 16.75 2.25 15.2949 2.25 13.5C2.25 11.7051 3.70507 10.25 5.5 10.25H7.5V11.75ZM10.5 10.25C12.2949 10.25 13.75 11.7051 13.75 13.5C13.75 15.2949 12.2949 16.75 10.5 16.75H8.5V15.25H10.5C11.4665 15.25 12.25 14.4665 12.25 13.5C12.25 12.5335 11.4665 11.75 10.5 11.75H8.5V10.25H10.5ZM19 2.25C19.9665 2.25 20.75 3.0335 20.75 4V14.9336C20.75 15.7344 20.1006 16.3838 19.2998 16.3838H18.25V14.8838H19.25V4C19.25 3.86193 19.1381 3.75 19 3.75H11.75V4.75H10.25V3.7002C10.25 2.89938 10.8994 2.25 11.7002 2.25H19ZM10.4541 14.25H5.5459V12.75H10.4541V14.25Z" fill="#161616"/>
</svg>
