<svg width="24" height="24" viewBox="0 0 24 24" fill="none" xmlns="http://www.w3.org/2000/svg">
<path d="M8.27734 13.583L5.32715 16.4971H20.5V17.9971H5.32715L8.27734 20.9111L7.22266 21.9785L2.97266 17.7803C2.83021 17.6394 2.75001 17.4474 2.75 17.2471C2.75 17.0467 2.83023 16.8547 2.97266 16.7139L7.22266 12.5156L8.27734 13.583ZM21.0273 6.21973C21.1698 6.36055 21.2499 6.55261 21.25 6.75293C21.25 6.95345 21.17 7.1462 21.0273 7.28711L16.7773 11.4844L15.7227 10.417L18.6729 7.50293H3.5V6.00293H18.6729L15.7227 3.08887L16.7773 2.02246L21.0273 6.21973Z" fill="#161616"/>
</svg>
