<svg width="24" height="24" viewBox="0 0 24 24" fill="none" xmlns="http://www.w3.org/2000/svg">
<path d="M12 20.5459L13.096 21.6399L14.192 20.5459L13.096 19.4499L12 20.5459Z" fill="#161616"/>
<path d="M9 19.4959L9.646 20.1399L12.192 17.5959L11.546 16.9499L9 19.4959Z" fill="#161616"/>
<path d="M15 17.5449L16.096 18.6399L17.192 17.5449L16.096 16.4489L15 17.5449Z" fill="#161616"/>
<path d="M6 17.5449L7.096 18.6399L8.192 17.5449L7.096 16.4489L6 17.5449Z" fill="#161616"/>
<path d="M2 10.4302C2 7.64984 4.16136 5.37521 6.89551 5.19287C7.8983 3.5665 9.69643 2.47998 11.75 2.47998C14.1625 2.47998 16.2221 3.97865 17.0547 6.09424C19.54 6.27581 21.5 8.34873 21.5 10.8804C21.4998 13.5311 19.3509 15.6801 16.7002 15.6802H7.25C4.35057 15.6802 2.00011 13.3296 2 10.4302ZM3.5 10.4302C3.50011 12.5012 5.179 14.1802 7.25 14.1802H16.7002C18.5225 14.1801 19.9998 12.7027 20 10.8804C20 9.0579 18.5226 7.5797 16.7002 7.57959C16.6495 7.57959 16.5989 7.58125 16.5488 7.5835C16.2008 7.59916 15.8875 7.37293 15.793 7.0376C15.2954 5.27256 13.6727 3.97998 11.75 3.97998C10.1186 3.97998 8.70283 4.9098 8.00684 6.27197C7.87625 6.52751 7.61114 6.68674 7.32422 6.68115C7.29953 6.68067 7.27479 6.68018 7.25 6.68018C5.17893 6.68018 3.5 8.35911 3.5 10.4302Z" fill="#161616"/>
</svg>
