<svg width="24" height="24" viewBox="0 0 24 24" fill="none" xmlns="http://www.w3.org/2000/svg">
<path d="M19 19.5V21H5V19.5H19ZM19.5 19V5C19.5 4.72386 19.2761 4.5 19 4.5H5C4.72386 4.5 4.5 4.72386 4.5 5V19C4.5 19.2761 4.72386 19.5 5 19.5V21L4.7959 20.9893C3.85435 20.8938 3.1062 20.1457 3.01074 19.2041L3 19V5C3 3.89543 3.89543 3 5 3H19C20.1046 3 21 3.89543 21 5V19C21 20.0357 20.2128 20.887 19.2041 20.9893L19 21V19.5C19.2761 19.5 19.5 19.2761 19.5 19Z" fill="#161616"/>
<path d="M11.25 13.5C11.25 13.0858 10.9142 12.75 10.5 12.75H3V11.25H10.5C11.7426 11.25 12.75 12.2574 12.75 13.5V21H11.25V13.5Z" fill="#161616"/>
<path d="M18.2461 10.7871H16.7461V8.24805L13.4961 11.498L12.4355 10.4375L15.6855 7.1875H13.3887V5.6875H17.4961C17.9103 5.6875 18.2461 6.02329 18.2461 6.4375V10.7871Z" fill="#161616"/>
</svg>
