<svg width="24" height="24" viewBox="0 0 24 24" fill="none" xmlns="http://www.w3.org/2000/svg">
<path d="M18.8291 20.4778L18.3125 21.0217L17.2246 19.9895L17.7412 19.4456L18.8291 20.4778ZM6.13965 5.98364C7.4112 5.9837 8.60467 6.59737 9.34375 7.63208L15.2178 15.8567L15.3076 15.9739C15.7686 16.5431 16.4635 16.8771 17.2012 16.8772H18.7549L17.7412 15.8088L18.8291 14.7766L21.0439 17.1106C21.3186 17.4 21.3186 17.8544 21.0439 18.1438L18.8291 20.4778L17.7412 19.4456L18.7549 18.3772H17.2012C16.0092 18.3771 14.8863 17.8372 14.1416 16.9172L13.9971 16.7288L8.12305 8.50415C7.66554 7.86364 6.92677 7.4837 6.13965 7.48364H2.75V5.98364H6.13965ZM10.6855 14.7971L9.34375 16.676C8.60467 17.7107 7.41116 18.3244 6.13965 18.3245H2.75V16.8245H6.13965C6.92677 16.8244 7.66554 16.4445 8.12305 15.804L9.46484 13.925L10.6855 14.7971ZM18.8291 14.7766L17.7412 15.8088L17.2246 15.2649L18.3125 14.2327L18.8291 14.7766ZM21.0439 5.85669L21.1338 5.97192C21.2885 6.21608 21.2885 6.52953 21.1338 6.77368L21.0439 6.88892L18.3125 9.76782L17.2246 8.73462L18.7549 7.12231H17.2012C16.4634 7.12245 15.7686 7.45723 15.3076 8.02661L15.2178 8.1438L13.7686 10.1731L12.5479 9.302L13.9971 7.27173L14.1416 7.08228C14.8863 6.1625 16.0093 5.62245 17.2012 5.62231H18.7539L17.2246 4.01099L18.3125 2.97778L21.0439 5.85669Z" fill="#161616"/>
</svg>
