<svg width="24" height="24" viewBox="0 0 24 24" fill="none" xmlns="http://www.w3.org/2000/svg">
<path d="M17.9502 18.0496V19.5496H6.0498V18.0496H17.9502ZM12 9.54956C14.9767 9.54956 17.4316 11.7736 17.7998 14.6501H20.5V16.1501H3.5V14.6501H6.2002C6.5684 11.7736 9.02329 9.54956 12 9.54956ZM12 11.0496C9.85333 11.0496 8.07124 12.6051 7.71582 14.6501H16.2842C15.9288 12.6051 14.1467 11.0496 12 11.0496ZM7.37793 8.86694L6.31738 9.92749L4.05469 7.66479L5.11523 6.60425L7.37793 8.86694ZM19.9453 7.66479L17.6826 9.92749L16.6221 8.86694L18.8848 6.60425L19.9453 7.66479ZM11.25 4.44995H12.75V7.65015H11.25V4.44995Z" fill="#161616"/>
</svg>
