<svg width="24" height="24" viewBox="0 0 24 24" fill="none" xmlns="http://www.w3.org/2000/svg">
<path d="M4.5 14.5H3L3 9.5H4.5L4.5 14.5ZM5 15H19C19.2761 15 19.5 14.7761 19.5 14.5V9.5C19.5 9.22386 19.2761 9 19 9L5 9C4.72386 9 4.5 9.22386 4.5 9.5H3L3.01074 9.2959C3.1062 8.35435 3.85435 7.6062 4.7959 7.51074L5 7.5L19 7.5C20.1046 7.5 21 8.39543 21 9.5V14.5C21 15.6046 20.1046 16.5 19 16.5H5C3.96435 16.5 3.113 15.7128 3.01074 14.7041L3 14.5H4.5C4.5 14.7761 4.72386 15 5 15Z" fill="#161616"/>
<path d="M3 19.5H21V21H3V19.5Z" fill="#161616"/>
<path d="M3 3H21V4.5H3V3Z" fill="#161616"/>
</svg>
