<svg width="24" height="24" viewBox="0 0 24 24" fill="none" xmlns="http://www.w3.org/2000/svg">
<path d="M19.5 16.125C19.5 14.2611 17.9889 12.75 16.125 12.75H7.875C6.01102 12.75 4.49994 14.261 4.5 16.125C4.50006 17.9889 6.0111 19.5 7.875 19.5H16.125C17.9889 19.5 19.4999 17.9889 19.5 16.125ZM6.60938 16.2021V16.125C6.60938 15.7108 6.94516 15.375 7.35938 15.375C7.77351 15.3751 8.10938 15.7108 8.10938 16.125V16.2021C8.10938 16.6163 7.77351 16.9521 7.35938 16.9521C6.94516 16.9521 6.60938 16.6164 6.60938 16.2021ZM17.3906 15.375V16.875H10.7344V15.375H17.3906ZM6.60938 7.875V7.79785C6.60938 7.38364 6.94516 7.04785 7.35938 7.04785C7.77351 7.04794 8.10938 7.38369 8.10938 7.79785V7.875C8.10936 8.28914 7.7735 8.62491 7.35938 8.625C6.94517 8.625 6.60939 8.2892 6.60938 7.875ZM17.3906 7.125V8.625H10.7344V7.125H17.3906ZM19.5 7.875C19.5 6.01106 17.9889 4.5 16.125 4.5H7.875C6.01104 4.5 4.49998 6.01105 4.5 7.875C4.50006 9.7389 6.0111 11.25 7.875 11.25H16.125L16.2988 11.2451C18.082 11.1547 19.5 9.68063 19.5 7.875ZM21 7.875C21 9.61241 20.0899 11.1357 18.7217 11.999C20.0904 12.8623 21 14.3872 21 16.125C20.9999 18.8173 18.8173 21 16.125 21H7.875C5.18269 21 3.00009 18.8173 3 16.125C2.99996 14.3874 3.90981 12.8633 5.27832 12C3.90985 11.1368 3.00006 9.61255 3 7.875C2.99998 5.18263 5.18261 3 7.875 3H16.125C18.8174 3 21 5.18263 21 7.875Z" fill="#161616"/>
</svg>
