<svg width="24" height="24" viewBox="0 0 24 24" fill="none" xmlns="http://www.w3.org/2000/svg">
<path d="M5.8623 17.7109C5.8623 17.6019 5.77307 17.5127 5.66406 17.5127H2.82227C2.71331 17.5128 2.625 17.602 2.625 17.7109V20.5527C2.62506 20.6617 2.71334 20.7499 2.82227 20.75H5.66406C5.77303 20.75 5.86225 20.6617 5.8623 20.5527V17.7109ZM19.125 17.7109C19.125 17.602 19.0367 17.5127 18.9277 17.5127H16.0859C15.9769 17.5127 15.8877 17.6019 15.8877 17.7109V20.5527C15.8878 20.6617 15.977 20.75 16.0859 20.75H18.9277C19.0367 20.7499 19.1249 20.6617 19.125 20.5527V17.7109ZM16.6377 6.61816H9.6123V7.28906C9.6123 8.22649 8.85149 8.9873 7.91406 8.9873H7.12891L5.16602 16.0127H5.66406C6.60149 16.0127 7.3623 16.7735 7.3623 17.7109V18.3818H14.3877V17.7109C14.3877 16.7735 15.1485 16.0127 16.0859 16.0127H16.9287L18.7832 8.9873H18.3359C17.3985 8.9873 16.6377 8.22649 16.6377 7.28906V6.61816ZM8.1123 4.44727C8.11225 4.33831 8.02303 4.25 7.91406 4.25H5.07227C4.96334 4.25006 4.87506 4.33834 4.875 4.44727V7.28906C4.875 7.39803 4.96331 7.48725 5.07227 7.4873H7.91406C8.02307 7.4873 8.1123 7.39807 8.1123 7.28906V4.44727ZM21.375 4.44727C21.3749 4.33834 21.2867 4.25005 21.1777 4.25H18.3359C18.227 4.25 18.1378 4.33831 18.1377 4.44727V7.28906C18.1377 7.39806 18.2269 7.4873 18.3359 7.4873H21.1777C21.2867 7.48725 21.375 7.39803 21.375 7.28906V4.44727ZM22.875 7.28906C22.875 8.22646 22.1151 8.98725 21.1777 8.9873H20.334L18.4795 16.0127H18.9277C19.8651 16.0127 20.625 16.7735 20.625 17.7109V20.5527C20.6249 21.4901 19.8651 22.2499 18.9277 22.25H16.0859C15.1485 22.25 14.3878 21.4901 14.3877 20.5527V19.8818H7.3623V20.5527C7.36225 21.4901 6.60146 22.25 5.66406 22.25H2.82227C1.88492 22.2499 1.12506 21.4901 1.125 20.5527V17.7109C1.125 16.7735 1.88488 16.0128 2.82227 16.0127H3.6084L5.57129 8.9873H5.07227C4.13488 8.98725 3.375 8.22646 3.375 7.28906V4.44727C3.37506 3.50992 4.13492 2.75006 5.07227 2.75H7.91406C8.85146 2.75 9.61225 3.50988 9.6123 4.44727V5.11816H16.6377V4.44727C16.6378 3.50988 17.3985 2.75 18.3359 2.75H21.1777C22.1151 2.75005 22.8749 3.50992 22.875 4.44727V7.28906Z" fill="#161616"/>
</svg>
