<svg width="24" height="24" viewBox="0 0 24 24" fill="none" xmlns="http://www.w3.org/2000/svg">
<path d="M19.5 17.3613V18.8613H4.5V17.3613H19.5ZM20 16.8613V7.13867C20 6.86253 19.7761 6.63867 19.5 6.63867H4.5C4.22386 6.63867 4 6.86253 4 7.13867V16.8613C4.00023 17.1373 4.224 17.3613 4.5 17.3613V18.8613L4.2959 18.8506C3.35447 18.7552 2.60638 18.0068 2.51074 17.0654L2.5 16.8613V7.13867C2.5 6.0341 3.39543 5.13867 4.5 5.13867H19.5L19.7041 5.14941C20.7128 5.25168 21.5 6.10302 21.5 7.13867V16.8613L21.4893 17.0654C21.3936 18.0068 20.6455 18.7552 19.7041 18.8506L19.5 18.8613V17.3613C19.776 17.3613 19.9998 17.1373 20 16.8613Z" fill="#161616"/>
<path d="M19.031 11.9992V15.588C19.031 16.0021 18.695 16.3378 18.281 16.338H14.6921V14.838H17.531V11.9992H19.031ZM9.30836 7.66031V9.16031H6.46949V11.9992H4.96949V8.41031C4.96949 7.9961 5.30528 7.66031 5.71949 7.66031H9.30836Z" fill="#161616"/>
</svg>
