<svg width="24" height="24" viewBox="0 0 24 24" fill="none" xmlns="http://www.w3.org/2000/svg">
<path d="M16.312 3C17.678 3 18.8657 3.93774 19.1821 5.2666L21.5298 15.126C21.5558 15.2354 21.5537 15.3448 21.5327 15.4482C21.5429 15.5807 21.5503 15.7145 21.5503 15.8496C21.5503 18.6939 19.2442 21 16.3999 21H7.6001C4.75604 21 2.45003 18.6946 2.44971 15.8506C2.4497 15.5776 2.47228 15.3094 2.51318 15.0479C2.45425 14.9123 2.43318 14.7584 2.46436 14.6025L4.31104 5.37109C4.58699 3.99242 5.79755 3 7.20361 3H16.312ZM6.29932 15.9326V15.8496C6.29953 15.4357 6.63541 15.0998 7.04932 15.0996C7.4634 15.0996 7.79911 15.4356 7.79932 15.8496V15.9326C7.79932 16.3468 7.46353 16.6826 7.04932 16.6826C6.63528 16.6824 6.29932 16.3467 6.29932 15.9326ZM17.6997 15.0996V16.5996H10.6997V15.0996H17.6997ZM7.20361 4.5C6.51243 4.5 5.91729 4.98825 5.78174 5.66602L4.57861 11.6797C5.42733 11.0638 6.47122 10.7002 7.6001 10.7002H16.3999C17.3975 10.7002 18.3289 10.9836 19.1177 11.4746L17.7222 5.61426C17.5666 4.96108 16.9834 4.5 16.312 4.5H7.20361ZM3.94971 15.8506C3.95003 17.8662 5.58446 19.5 7.6001 19.5H16.3999C18.4157 19.5 20.0503 17.8654 20.0503 15.8496C20.0501 13.834 18.4156 12.2002 16.3999 12.2002H7.6001C5.58421 12.2002 3.94964 13.8347 3.94971 15.8506Z" fill="#161616"/>
</svg>
