<svg width="24" height="24" viewBox="0 0 24 24" fill="none" xmlns="http://www.w3.org/2000/svg">
<path d="M19.25 6.375C19.25 4.93634 18.0618 3.75 16.5713 3.75H7.42871C5.9382 3.75 4.75 4.93634 4.75 6.375V17.625C4.75 19.0637 5.9382 20.25 7.42871 20.25H16.5713C18.0618 20.25 19.25 19.0637 19.25 17.625V6.375ZM14.6787 14.25C14.6787 12.8113 13.4905 11.625 12 11.625C10.5095 11.625 9.32129 12.8113 9.32129 14.25C9.32129 15.6887 10.5095 16.875 12 16.875C13.4905 16.875 14.6787 15.6887 14.6787 14.25ZM12.0811 5.625C12.4952 5.62505 12.8311 5.96082 12.8311 6.375V6.44727C12.8309 6.86136 12.4952 7.19721 12.0811 7.19727H12C11.5859 7.19727 11.2501 6.86139 11.25 6.44727V6.375C11.25 5.96079 11.5858 5.625 12 5.625H12.0811ZM16.1787 14.25C16.1787 16.5393 14.2966 18.375 12 18.375C9.70342 18.375 7.82129 16.5393 7.82129 14.25C7.82129 11.9607 9.70342 10.125 12 10.125C14.2966 10.125 16.1787 11.9607 16.1787 14.25ZM20.75 17.625C20.75 19.9143 18.8679 21.75 16.5713 21.75H7.42871C5.13213 21.75 3.25 19.9143 3.25 17.625V6.375C3.25 4.08573 5.13213 2.25 7.42871 2.25H16.5713C18.8679 2.25 20.75 4.08573 20.75 6.375V17.625Z" fill="#161616"/>
</svg>
