<svg width="24" height="24" viewBox="0 0 24 24" fill="none" xmlns="http://www.w3.org/2000/svg">
<path d="M19.2844 2.31645C20.7324 1.92915 22.0711 3.26777 21.6838 4.71586L21.6398 4.86137L16.2385 20.4288C15.64 22.1537 13.2173 22.2013 12.5519 20.501L10.0803 14.1836C10.0449 14.0931 9.98246 14.0164 9.90252 13.9639L9.81659 13.92L3.4992 11.4483C1.79893 10.783 1.84653 8.36021 3.57147 7.76176L19.1389 2.36137L19.2844 2.31645ZM11.4601 13.5996C11.4653 13.6121 11.4718 13.6241 11.4767 13.6368L13.9494 19.9541C14.1068 20.3564 14.6799 20.3456 14.8215 19.9375L19.9719 5.08793L11.4601 13.5996ZM4.06268 9.17875C3.6546 9.32033 3.64384 9.89342 4.04608 10.0508L10.3635 12.5235L10.3996 12.5391L18.9113 4.02738L4.06268 9.17875Z" fill="#161616"/>
</svg>
