<svg width="24" height="24" viewBox="0 0 24 24" fill="none" xmlns="http://www.w3.org/2000/svg">
<path d="M17.8613 8.5918C17.8613 8.28049 17.6082 8.02734 17.2969 8.02734H15.583V9.75879H14.083V8.02734H9.91699V9.75879H8.41699V8.02734H6.70215C6.39093 8.02745 6.13867 8.28055 6.13867 8.5918V18.9238C6.1388 19.3801 6.50862 19.7499 6.96484 19.75H17.0342C17.4905 19.75 17.8612 19.3801 17.8613 18.9238V8.5918ZM14.083 6.12695C14.0828 5.0903 13.2428 4.25 12.2061 4.25H11.7939C10.7573 4.25011 9.91721 5.09037 9.91699 6.12695V6.52734H14.083V6.12695ZM15.583 6.52734H17.2969C18.4366 6.52734 19.3613 7.45206 19.3613 8.5918V18.9238C19.3612 20.2086 18.3189 21.25 17.0342 21.25H6.96484C5.68019 21.2499 4.6388 20.2085 4.63867 18.9238V8.5918C4.63867 7.45213 5.5625 6.52745 6.70215 6.52734H8.41699V6.12695C8.41721 4.26194 9.92891 2.75011 11.7939 2.75H12.2061C14.0712 2.75 15.5828 4.26188 15.583 6.12695V6.52734Z" fill="#161616"/>
</svg>
