<svg width="24" height="24" viewBox="0 0 24 24" fill="none" xmlns="http://www.w3.org/2000/svg">
<path d="M17.8574 4.27932C17.8564 4.27616 17.8559 4.27345 17.8545 4.2715C17.8512 4.26685 17.8433 4.2601 17.8311 4.2549C17.8185 4.24965 17.8091 4.24958 17.8066 4.25002C17.8058 4.25018 17.8051 4.25123 17.8037 4.25197L17.7881 4.26467L10.1719 11.96C10.1621 11.9699 10.1562 11.9829 10.1562 12C10.1562 12.0171 10.1621 12.0302 10.1719 12.0401L17.7881 19.7354L17.8037 19.7481C17.8051 19.7488 17.8058 19.7499 17.8066 19.75C17.8091 19.7505 17.8185 19.7504 17.8311 19.7451C17.8433 19.7399 17.8512 19.7332 17.8545 19.7285C17.8559 19.7266 17.8564 19.7239 17.8574 19.7207L17.8613 19.6953V4.30471L17.8574 4.27932ZM4.63867 3.55471H6.13867V20.4453H4.63867V3.55471ZM19.3613 19.6953L19.3564 19.8223C19.2613 21.0664 17.7746 21.7113 16.8154 20.8789L16.7217 20.791L9.10547 13.0957C8.50598 12.49 8.50598 11.5101 9.10547 10.9043L16.7217 3.209L16.8154 3.12111C17.8067 2.26096 19.3613 2.97871 19.3613 4.30471V19.6953Z" fill="#161616"/>
</svg>
