<svg width="24" height="24" viewBox="0 0 24 24" fill="none" xmlns="http://www.w3.org/2000/svg">
<path d="M19.2207 17.9502C19.2207 16.9561 18.415 16.1504 17.4209 16.1504C16.7904 16.1504 16.2356 16.4741 15.9141 16.9648C15.9025 16.9914 15.8909 17.0183 15.876 17.0439C15.8602 17.071 15.8417 17.0958 15.8232 17.1201C15.694 17.3684 15.6211 17.6509 15.6211 17.9502C15.6212 18.9442 16.4269 19.75 17.4209 19.75C18.4149 19.75 19.2206 18.9442 19.2207 17.9502ZM9.02051 12C9.02051 11.6778 8.93538 11.3759 8.78711 11.1143C8.78301 11.1077 8.77834 11.1015 8.77441 11.0947C8.77237 11.0912 8.77054 11.0875 8.76855 11.084C8.45498 10.5553 7.87993 10.2002 7.2207 10.2002C6.22668 10.2003 5.4209 11.006 5.4209 12C5.4209 12.994 6.22668 13.7997 7.2207 13.7998C8.21482 13.7998 9.02051 12.9941 9.02051 12ZM19.2207 6.0498C19.2206 5.05578 18.4149 4.25 17.4209 4.25C16.4269 4.25 15.6212 5.05578 15.6211 6.0498C15.6211 6.37471 15.7078 6.67925 15.8584 6.94238C15.8611 6.94676 15.8646 6.95063 15.8672 6.95508C15.8682 6.95687 15.8691 6.95914 15.8701 6.96094C16.183 7.49243 16.7595 7.84961 17.4209 7.84961C18.415 7.84961 19.2207 7.04392 19.2207 6.0498ZM20.7207 6.0498C20.7207 7.87234 19.2434 9.34961 17.4209 9.34961C16.476 9.34961 15.625 8.95185 15.0234 8.31543L10.375 11.0283C10.4695 11.3356 10.5205 11.6618 10.5205 12C10.5205 12.3379 10.4694 12.6637 10.375 12.9707L15.0254 15.6807C15.6268 15.046 16.4775 14.6504 17.4209 14.6504C19.2434 14.6504 20.7207 16.1277 20.7207 17.9502C20.7206 19.7726 19.2434 21.25 17.4209 21.25C15.5984 21.25 14.1212 19.7726 14.1211 17.9502C14.1211 17.6106 14.1723 17.2829 14.2676 16.9746L9.61816 14.2656C9.01659 14.9019 8.16547 15.2998 7.2207 15.2998C5.39825 15.2997 3.9209 13.8225 3.9209 12C3.9209 10.1775 5.39825 8.7003 7.2207 8.7002C8.16496 8.7002 9.01665 9.09672 9.61816 9.73242L14.2666 7.02051C14.1723 6.71361 14.1211 6.38763 14.1211 6.0498C14.1212 4.22735 15.5984 2.75 17.4209 2.75C19.2434 2.75 20.7206 4.22736 20.7207 6.0498Z" fill="#161616"/>
</svg>
