<svg width="24" height="24" viewBox="0 0 24 24" fill="none" xmlns="http://www.w3.org/2000/svg">
<path d="M11.25 18.4502H12.75V21.75H11.25V18.4502ZM6.14062 18.9238L5.61035 19.4541L4.54883 18.3936L5.0791 17.8633L6.14062 18.9238ZM19.4512 18.3936L18.3896 19.4541L16.0566 17.1211L17.1172 16.0605L19.4512 18.3936ZM7.94336 17.1211L6.14062 18.9238L5.0791 17.8633L6.88281 16.0605L7.94336 17.1211ZM15.75 12C15.75 9.92893 14.0711 8.25 12 8.25C9.92893 8.25 8.25 9.92893 8.25 12C8.25 14.0711 9.92893 15.75 12 15.75C14.0711 15.75 15.75 14.0711 15.75 12ZM5.5498 11.25V12.75H2.25V11.25H5.5498ZM21.75 11.25V12.75H18.4502V11.25H21.75ZM7.94336 6.88281L6.88281 7.94336L5.0791 6.14062L5.61035 5.61035L6.14062 5.0791L7.94336 6.88281ZM18.3896 5.61035L18.9209 6.14062L17.1172 7.94336L16.0566 6.88281L17.8594 5.0791L18.3896 5.61035ZM6.14062 5.0791L5.0791 6.14062L4.54883 5.61035L5.61035 4.54883L6.14062 5.0791ZM19.4512 5.61035L18.9209 6.14062L17.8594 5.0791L18.3896 4.54883L19.4512 5.61035ZM11.25 2.25H12.75V5.5498H11.25V2.25ZM17.25 12C17.25 14.8995 14.8995 17.25 12 17.25C9.1005 17.25 6.75 14.8995 6.75 12C6.75 9.1005 9.1005 6.75 12 6.75C14.8995 6.75 17.25 9.1005 17.25 12Z" fill="#161616"/>
</svg>
