<svg width="24" height="24" viewBox="0 0 24 24" fill="none" xmlns="http://www.w3.org/2000/svg">
<path d="M17.3138 3.59082L17.4029 3.5957C17.6094 3.61985 17.798 3.72758 17.9235 3.89453L21.7318 8.96191C21.9451 9.24569 21.9284 9.63782 21.6922 9.90332L12.5711 20.1543C12.4268 20.3164 12.2188 20.4092 12.0001 20.4092C11.7814 20.4092 11.5733 20.3164 11.429 20.1543L2.30791 9.90332C2.06968 9.63549 2.05499 9.23899 2.27327 8.95508L6.16973 3.8877C6.31344 3.70078 6.53765 3.59082 6.77543 3.59082H17.3138ZM12.006 17.2266L14.3477 10.1592H9.70594L12.006 17.2266ZM10.1582 16.4531L8.10955 10.1592H4.5575L10.1582 16.4531ZM13.8736 16.417L19.4426 10.1592H15.947L13.8736 16.417ZM16.047 8.65918H19.6119L16.9318 5.09082H14.6911L16.047 8.65918ZM9.70891 8.65918H14.4229L13.067 5.09082H11.1044L9.70891 8.65918ZM4.41004 8.65918H8.07887L9.47534 5.09082H7.15251L4.41004 8.65918Z" fill="#161616"/>
</svg>
