<svg width="24" height="24" viewBox="0 0 24 24" fill="none" xmlns="http://www.w3.org/2000/svg">
<path d="M10 19.5V21H5.75V19.5H10ZM18.25 19.5V21H14V19.5H18.25ZM19.5 6.6836C19.5 6.15784 19.4994 5.80813 19.4775 5.54004C19.4564 5.2811 19.4189 5.16452 19.3818 5.0918C19.278 4.88796 19.112 4.72203 18.9082 4.61817C18.8355 4.58115 18.7189 4.54364 18.46 4.52246C18.1919 4.50056 17.8422 4.5 17.3164 4.5H6.6836C6.15784 4.5 5.80813 4.50056 5.54004 4.52246C5.2811 4.54364 5.16452 4.58115 5.0918 4.61817C4.88796 4.72203 4.72203 4.88796 4.61817 5.0918C4.58115 5.16452 4.54364 5.2811 4.52246 5.54004C4.50056 5.80813 4.5 6.15784 4.5 6.6836V14.5664C4.5 15.0922 4.50056 15.4419 4.52246 15.71C4.54364 15.9689 4.58115 16.0855 4.61817 16.1582C4.72203 16.362 4.88796 16.528 5.0918 16.6318C5.16452 16.6689 5.2811 16.7064 5.54004 16.7275C5.80813 16.7494 6.15784 16.75 6.6836 16.75H17.3164C17.8422 16.75 18.1919 16.7494 18.46 16.7275C18.7189 16.7064 18.8355 16.6689 18.9082 16.6318C19.112 16.528 19.278 16.362 19.3818 16.1582C19.4189 16.0855 19.4564 15.9689 19.4775 15.71C19.4994 15.4419 19.5 15.0922 19.5 14.5664V6.6836ZM17.792 6.95801V14.292H16.292V6.95801H17.792ZM10.792 10.625C10.792 9.77356 10.1014 9.08301 9.25 9.08301C8.39856 9.08301 7.70801 9.77356 7.70801 10.625C7.70801 11.4764 8.39856 12.167 9.25 12.167C10.1014 12.167 10.792 11.4764 10.792 10.625ZM12.292 10.625C12.292 12.3049 10.9299 13.667 9.25 13.667C7.57014 13.667 6.20801 12.3049 6.20801 10.625C6.20801 8.94514 7.57014 7.58301 9.25 7.58301C10.9299 7.58301 12.292 8.94514 12.292 10.625ZM21 14.5664C21 15.0674 21.0007 15.4887 20.9727 15.832C20.9439 16.1841 20.8815 16.5205 20.7188 16.8398C20.4711 17.3258 20.0758 17.7211 19.5898 17.9688C19.2705 18.1315 18.9341 18.1939 18.582 18.2227C18.2387 18.2507 17.8174 18.25 17.3164 18.25H6.6836C6.18259 18.25 5.76131 18.2507 5.41797 18.2227C5.06593 18.1939 4.72955 18.1315 4.41016 17.9688C3.9242 17.7211 3.5289 17.3258 3.28125 16.8398C3.11851 16.5205 3.05612 16.1841 3.02735 15.832C2.99929 15.4887 3 15.0674 3 14.5664V6.6836C3 6.18259 2.99929 5.76131 3.02735 5.41797C3.05612 5.06593 3.11851 4.72955 3.28125 4.41016C3.5289 3.9242 3.9242 3.5289 4.41016 3.28125C4.72955 3.11851 5.06593 3.05612 5.41797 3.02735C5.76131 2.99929 6.18259 3 6.6836 3H17.3164C17.8174 3 18.2387 2.99929 18.582 3.02735C18.9341 3.05612 19.2705 3.11851 19.5898 3.28125C20.0758 3.5289 20.4711 3.9242 20.7188 4.41016C20.8815 4.72955 20.9439 5.06593 20.9727 5.41797C21.0007 5.76131 21 6.18259 21 6.6836V14.5664Z" fill="#161616"/>
</svg>
