<svg width="24" height="24" viewBox="0 0 24 24" fill="none" xmlns="http://www.w3.org/2000/svg">
<path d="M6.63867 19.4999H5.13867L5.13867 4.49988L6.63867 4.49988L6.63867 19.4999ZM7.13867 19.9999H16.8613C17.1375 19.9999 17.3613 19.776 17.3613 19.4999L17.3613 4.49988C17.3613 4.22374 17.1375 3.99988 16.8613 3.99988L7.13867 3.99988C6.86273 4.00011 6.63867 4.22388 6.63867 4.49988L5.13867 4.49988L5.14941 4.29578C5.24484 3.35435 5.99321 2.60626 6.93457 2.51062L7.13867 2.49988L16.8613 2.49988C17.9659 2.49988 18.8613 3.39531 18.8613 4.49988L18.8613 19.4999L18.8506 19.704C18.7483 20.7127 17.897 21.4999 16.8613 21.4999H7.13867L6.93457 21.4891C5.9932 21.3935 5.24484 20.6454 5.14941 19.704L5.13867 19.4999H6.63867C6.63867 19.7759 6.86273 19.9996 7.13867 19.9999Z" fill="#161616"/>
<path d="M12.0007 19.0296H8.41178C7.99771 19.0296 7.66201 18.6936 7.66178 18.2796L7.66178 14.6907H9.16178L9.16178 17.5296H12.0007V19.0296ZM16.3395 9.30695H14.8395V6.46809L12.0007 6.46809V4.96809L15.5895 4.96809C16.0037 4.96809 16.3395 5.30387 16.3395 5.71809V9.30695Z" fill="#161616"/>
</svg>
