<svg width="24" height="24" viewBox="0 0 24 24" fill="none" xmlns="http://www.w3.org/2000/svg">
<path d="M2 17.3503V12.3503C2 11.5219 2.67157 10.8503 3.5 10.8503H18.8594V18.8503H3.5V17.3503H17.3594V12.3503H3.5V18.8503L3.34668 18.8425C2.59028 18.7657 2 18.127 2 17.3503Z" fill="#161616"/>
<path d="M20.5005 18.689V20.189H18.8608V18.689H20.5005ZM20.5005 6.229H18.8608V20.189C18.0842 20.189 17.4454 19.5987 17.3687 18.8423L17.3608 18.689V6.229C17.3608 5.45234 17.9511 4.81361 18.7075 4.73682L18.8608 4.729H20.5005L20.6538 4.73682C21.41 4.81382 22.0005 5.4525 22.0005 6.229V18.689L21.9927 18.8423C21.921 19.5481 21.3596 20.1093 20.6538 20.1812L20.5005 20.189V6.229Z" fill="#161616"/>
<path d="M4.521 8.4209H7.7124V6.80566H4.521V8.4209ZM9.2124 8.9209L9.20654 9.02246C9.15881 9.49324 8.78474 9.86731 8.31396 9.91504L8.2124 9.9209H4.021L3.91846 9.91504C3.41435 9.86368 3.021 9.43758 3.021 8.91992V6.30566C3.021 5.78799 3.41433 5.36188 3.91846 5.31055L4.021 5.30566H8.2124L8.31396 5.31055C8.81833 5.36166 9.2124 5.78782 9.2124 6.30566V8.9209Z" fill="#161616"/>
<path d="M5.3667 9.39771H6.8667V11.823H5.3667V9.39771Z" fill="#161616"/>
<path d="M11.5288 10.8486H14.8325V9.46191H11.5288V10.8486ZM16.3325 11.3477C16.3325 11.8653 15.9392 12.2914 15.4351 12.3428L15.3325 12.3486H11.0288L10.9263 12.3428C10.4222 12.2914 10.0288 11.8653 10.0288 11.3477V8.96191C10.0288 8.40963 10.4765 7.96191 11.0288 7.96191H15.3325C15.8848 7.96191 16.3325 8.40963 16.3325 8.96191V11.3477Z" fill="#161616"/>
<path d="M13.1807 5.86621C14.4948 5.86634 15.5605 6.93194 15.5605 8.24609H14.0605C14.0605 7.76036 13.6664 7.36634 13.1807 7.36621C12.6949 7.36621 12.3008 7.76028 12.3008 8.24609H10.8008C10.8008 6.93186 11.8664 5.86621 13.1807 5.86621Z" fill="#161616"/>
</svg>
