<svg width="24" height="24" viewBox="0 0 24 24" fill="none" xmlns="http://www.w3.org/2000/svg">
<path d="M16.7055 5.46875C16.7055 5.02319 16.7045 4.73828 16.6859 4.52246C16.6771 4.42022 16.6651 4.35089 16.6532 4.30273L16.6196 4.20996C16.5614 4.10172 16.4734 4.00057 16.358 3.9209L16.2337 3.84863C16.1713 3.81848 16.0668 3.78653 15.8348 3.76855C15.5963 3.75011 15.2859 3.75 14.8201 3.75H9.17983C8.71355 3.75 8.40285 3.75007 8.16426 3.76855C7.99043 3.78203 7.88867 3.80368 7.82231 3.82617L7.76626 3.84863C7.63295 3.91304 7.52563 4.00279 7.44766 4.10449L7.37946 4.20996C7.36036 4.24566 7.33162 4.31864 7.31406 4.52246C7.29547 4.73828 7.29444 5.02317 7.29444 5.46875V15.6162C7.29444 16.0614 7.2955 16.3458 7.31406 16.5615C7.33169 16.7662 7.36037 16.8395 7.37946 16.875L7.44766 16.9795C7.52564 17.0813 7.63287 17.1709 7.76626 17.2354L7.82231 17.2578C7.88866 17.2803 7.99035 17.3019 8.16426 17.3154C8.40285 17.3339 8.71355 17.334 9.17983 17.334H14.8201C15.2859 17.334 15.5963 17.3339 15.8348 17.3154C16.0668 17.2975 16.1713 17.2655 16.2337 17.2354L16.358 17.1631C16.4732 17.0835 16.5614 16.9831 16.6196 16.875L16.6532 16.7822C16.6652 16.734 16.6771 16.6642 16.6859 16.5615C16.7045 16.3458 16.7055 16.0614 16.7055 15.6162V5.46875ZM18.1406 15.6162C18.1406 16.0344 18.1411 16.3977 18.1154 16.6963C18.092 16.9674 18.0434 17.2375 17.9257 17.498L17.8706 17.6094C17.6655 17.9909 17.3595 18.2998 16.9951 18.5117L16.8354 18.5967C16.5498 18.7347 16.2518 18.7875 15.9413 18.8115C15.6374 18.8351 15.2647 18.834 14.8201 18.834H12.717V20.25H15.2471V21.75H8.77529V20.25H11.282V18.834H9.17983C8.73523 18.834 8.36258 18.835 8.05869 18.8115C7.82574 18.7935 7.59933 18.7596 7.3804 18.6855L7.16457 18.5967C6.78439 18.413 6.45592 18.1289 6.22281 17.7686L6.12845 17.6094C5.97023 17.3149 5.9113 17.0061 5.8846 16.6963C5.85889 16.3977 5.85938 16.0344 5.85938 15.6162V5.46875C5.85938 5.05037 5.85887 4.68637 5.8846 4.3877C5.9113 4.0779 5.97025 3.76903 6.12845 3.47461L6.22281 3.31641C6.45594 2.95586 6.78424 2.67107 7.16457 2.4873L7.3804 2.39941C7.59939 2.3253 7.82568 2.29149 8.05869 2.27344C8.36259 2.24991 8.73521 2.25 9.17983 2.25H14.8201C15.2647 2.25 15.6374 2.24989 15.9413 2.27344C16.2517 2.2975 16.5498 2.34934 16.8354 2.4873L16.9951 2.57227C17.3595 2.78417 17.6655 3.09318 17.8706 3.47461L17.9257 3.58594C18.0434 3.84651 18.092 4.11656 18.1154 4.3877C18.1411 4.68637 18.1406 5.05037 18.1406 5.46875V15.6162Z" fill="#161616"/>
</svg>
