<svg width="24" height="24" viewBox="0 0 24 24" fill="none" xmlns="http://www.w3.org/2000/svg">
<path d="M9.50195 3.71189C10.1392 1.09604 13.8608 1.09604 14.498 3.71189L14.5039 3.73533C14.545 3.89055 14.6192 4.03503 14.7236 4.1572C14.8331 4.28505 14.9715 4.38574 15.127 4.45017C15.2825 4.51457 15.4513 4.54132 15.6191 4.5283C15.787 4.51523 15.95 4.4627 16.0937 4.37498L16.3105 4.25486C18.5552 3.13716 20.9838 5.67745 19.626 7.90623L19.625 7.9072C19.5374 8.05083 19.4847 8.21313 19.4717 8.38084C19.4586 8.5487 19.4854 8.71746 19.5498 8.87302C19.6142 9.02859 19.7149 9.16685 19.8428 9.27635C19.9706 9.38574 20.1226 9.46326 20.2861 9.50291C22.9054 10.1372 22.9034 13.8614 20.2871 14.497C20.1235 14.5368 19.9716 14.615 19.8438 14.7246C19.7158 14.8342 19.6152 14.9723 19.5508 15.1279C19.4864 15.2835 19.4597 15.4523 19.4727 15.6201C19.4857 15.7879 19.5385 15.95 19.626 16.0937C21.0279 18.3945 18.3944 21.0277 16.0937 19.626C15.95 19.5384 15.7879 19.4857 15.6201 19.4726C15.4523 19.4596 15.2835 19.4864 15.1279 19.5508C14.9723 19.6152 14.8342 19.7158 14.7246 19.8437C14.615 19.9716 14.5369 20.1234 14.4971 20.2871C13.8622 22.9055 10.1385 22.9032 9.50293 20.2871V20.2861C9.46329 20.1226 9.38574 19.9706 9.27637 19.8428C9.16691 19.7149 9.02856 19.6142 8.87305 19.5498C8.71754 19.4854 8.54866 19.4586 8.38086 19.4717C8.21297 19.4847 8.04999 19.5373 7.90625 19.625V19.626C5.60557 21.0277 2.97213 18.3945 4.37402 16.0937H4.375C4.46272 15.95 4.51525 15.787 4.52832 15.6191C4.54132 15.4514 4.51457 15.2824 4.45019 15.1269C4.3858 14.9715 4.28499 14.834 4.15723 14.7246C4.02932 14.6151 3.8775 14.5367 3.71387 14.497C1.09459 13.8628 1.09649 10.1385 3.71289 9.50291C4.41669 9.33185 4.75082 8.52444 4.37402 7.90623C2.97241 5.6055 5.60562 2.97316 7.90625 4.37498C8.04988 4.4624 8.21223 4.51436 8.37988 4.52732C8.54773 4.54027 8.71657 4.51368 8.87207 4.4492C9.02753 4.38471 9.16599 4.28413 9.27539 4.15623C9.38465 4.02837 9.46239 3.87633 9.50195 3.71287V3.71189ZM13.0303 4.02927C12.7389 2.97873 11.2228 2.9902 10.959 4.06443L10.96 4.06541C10.8648 4.45854 10.6779 4.82443 10.415 5.13181C10.1521 5.43914 9.81987 5.68002 9.44629 5.83494C9.07273 5.9898 8.66783 6.05452 8.26465 6.02342C7.86137 5.9923 7.47141 5.86566 7.12598 5.65525C6.16808 5.07159 5.07167 6.16819 5.65527 7.12595C6.53253 8.56548 5.80636 10.4293 4.22363 10.9179L4.06738 10.9609C2.97685 11.2257 2.9788 12.7752 4.06641 13.039H4.06738C4.46048 13.1343 4.82552 13.3219 5.13281 13.5849C5.44009 13.848 5.68118 14.18 5.83594 14.5537C5.99068 14.9275 6.05483 15.333 6.02344 15.7363C5.99198 16.1395 5.86597 16.5297 5.65527 16.875L5.6543 16.874C5.07099 17.8316 6.16727 18.9277 7.125 18.3447C7.47038 18.1339 7.86125 18.0079 8.26465 17.9765C8.6678 17.9452 9.07267 18.0094 9.44629 18.164C9.82 18.3188 10.152 18.5599 10.415 18.8672C10.6781 19.1744 10.8656 19.5395 10.9609 19.9326L10.9893 20.0322C11.3214 21.0221 12.7836 20.9871 13.0391 19.9336V19.9326C13.1346 19.5396 13.3218 19.1743 13.585 18.8672C13.8481 18.5601 14.1801 18.3197 14.5537 18.165C14.9273 18.0103 15.3322 17.9463 15.7354 17.9775C16.1385 18.0087 16.5287 18.1344 16.874 18.3447C17.8319 18.9284 18.9283 17.8318 18.3447 16.874C18.1344 16.5286 18.0087 16.1385 17.9775 15.7353C17.9464 15.3322 18.0103 14.9273 18.165 14.5537C18.3198 14.1801 18.5601 13.848 18.8672 13.5849C19.1743 13.3218 19.5397 13.1356 19.9326 13.04V13.039C21.0232 12.7743 21.0213 11.2247 19.9336 10.9609C19.5404 10.8657 19.1746 10.6791 18.8672 10.416C18.5598 10.1529 18.3189 9.8201 18.1641 9.44627C18.0094 9.07263 17.9452 8.66779 17.9766 8.26463C18.008 7.86123 18.1339 7.47036 18.3447 7.12498C18.9273 6.16756 17.8325 5.07255 16.875 5.65525C16.5296 5.86603 16.1387 5.99202 15.7354 6.02342C15.3322 6.05473 14.9274 5.9906 14.5537 5.83592C14.1799 5.68114 13.8481 5.44011 13.585 5.13279C13.3219 4.82544 13.1343 4.46055 13.0391 4.06736L13.0303 4.02927ZM14.417 12C14.417 10.6653 13.3347 9.58299 12 9.58299C10.6653 9.58299 9.58301 10.6653 9.58301 12C9.58301 13.3347 10.6653 14.417 12 14.417C13.3347 14.417 14.417 13.3347 14.417 12ZM15.917 12C15.917 14.1631 14.1631 15.917 12 15.917C9.83688 15.917 8.08301 14.1631 8.08301 12C8.08301 9.83686 9.83688 8.08299 12 8.08299C14.1631 8.08299 15.917 9.83686 15.917 12Z" fill="#161616"/>
</svg>
