<svg width="24" height="24" viewBox="0 0 24 24" fill="none" xmlns="http://www.w3.org/2000/svg">
<path d="M9.44629 17.3125C9.44629 15.9663 8.35498 14.875 7.00879 14.875C5.6626 14.875 4.57129 15.9663 4.57129 17.3125C4.57129 18.6587 5.6626 19.75 7.00879 19.75C8.35498 19.75 9.44629 18.6587 9.44629 17.3125ZM9.44629 6.6875C9.44629 5.34131 8.35498 4.25 7.00879 4.25C5.6626 4.25 4.57129 5.34131 4.57129 6.6875C4.57129 8.03369 5.6626 9.125 7.00879 9.125C8.35498 9.125 9.44629 8.03369 9.44629 6.6875ZM10.9463 6.6875C10.9463 8.19102 10.1031 9.49684 8.86426 10.1602L11.1777 11.1797L21.2051 6.76074L21.8105 8.13379L13.0381 12L21.8105 15.8662L21.2051 17.2393L11.1777 12.8193L8.86426 13.8389C10.1033 14.5021 10.9463 15.8088 10.9463 17.3125C10.9463 19.4871 9.18341 21.25 7.00879 21.25C4.83417 21.25 3.07129 19.4871 3.07129 17.3125C3.07129 15.8854 3.83017 14.6349 4.9668 13.9443L4.95703 13.9229L5.19922 13.8154C5.34832 13.7381 5.50263 13.6694 5.66211 13.6113L9.31836 12L5.66211 10.3877C5.5026 10.3296 5.34834 10.2609 5.19922 10.1836L4.95703 10.0771L4.9668 10.0547C3.83041 9.36406 3.07129 8.11447 3.07129 6.6875C3.07129 4.51288 4.83417 2.75 7.00879 2.75C9.18341 2.75 10.9463 4.51288 10.9463 6.6875Z" fill="#161616"/>
</svg>
