<svg width="24" height="24" viewBox="0 0 24 24" fill="none" xmlns="http://www.w3.org/2000/svg">
<path d="M21.7559 3.12964V4.62964H12.7051V9.90601L19.9346 11.8884L20.1328 11.9558C21.0376 12.3225 21.4671 13.372 21.0762 14.2703L21.1211 14.283L21.291 14.3386C22.0633 14.6371 22.522 15.4421 22.3848 16.2585L22.3457 16.4333L21.8194 18.3533C21.5797 19.227 20.7184 19.7639 19.8438 19.6169L19.669 19.5779L18.3106 19.2058L17.9727 19.8074C17.6035 20.4634 16.8604 20.8054 16.1309 20.6707L15.9854 20.6365L3.2715 17.1511C2.07326 16.8225 1.36784 15.5848 1.69631 14.3865L3.01369 9.58276L3.08595 9.36401C3.497 8.30028 4.65486 7.69968 5.77834 8.00757L11.2051 9.49487V4.62964H2.15431V3.12964H21.7559ZM5.38185 9.45386C5.0075 9.35134 4.62149 9.55165 4.48439 9.90601L4.45998 9.97925L3.14357 14.783C3.03407 15.1823 3.26867 15.5952 3.66799 15.7048L16.3819 19.1902L16.4649 19.199C16.5471 19.1934 16.6238 19.147 16.666 19.072L19.6895 13.699L19.7119 13.6443C19.7436 13.5331 19.694 13.4129 19.5928 13.3572L19.5371 13.3357L5.38185 9.45386ZM19.0694 17.8582L20.0654 18.1316L20.1153 18.1394C20.2313 18.1472 20.341 18.0732 20.3731 17.9568L20.8994 16.0369L20.9072 15.9871C20.9139 15.8875 20.8604 15.793 20.7715 15.7478L20.7236 15.7292L20.3281 15.6208L19.0694 17.8582Z" fill="#161616"/>
</svg>
