<svg width="24" height="24" viewBox="0 0 24 24" fill="none" xmlns="http://www.w3.org/2000/svg">
<path d="M21.0273 16.7139C21.1698 16.8547 21.25 17.0467 21.25 17.2471C21.25 17.4474 21.1698 17.6394 21.0273 17.7803L16.7773 21.9785L15.7227 20.9111L18.6729 17.9971H3.5V16.4971H18.6729L15.7227 13.583L16.7773 12.5156L21.0273 16.7139ZM8.27734 3.08887L5.32715 6.00293H20.5V7.50293H5.32715L8.27734 10.417L7.22266 11.4844L2.97266 7.28711C2.82999 7.1462 2.75 6.95345 2.75 6.75293C2.75007 6.55261 2.83019 6.36055 2.97266 6.21973L7.22266 2.02246L8.27734 3.08887Z" fill="#161616"/>
</svg>
