<svg width="24" height="24" viewBox="0 0 24 24" fill="none" xmlns="http://www.w3.org/2000/svg">
<path d="M7.50293 3.5V18.6729L10.417 15.7227L11.4844 16.7773L7.28711 21.0273C7.1462 21.17 6.95345 21.25 6.75293 21.25C6.55261 21.2499 6.36055 21.1698 6.21973 21.0273L2.02246 16.7773L3.08887 15.7227L6.00293 18.6719V3.5H7.50293ZM17.2471 2.75C17.4474 2.75001 17.6394 2.83021 17.7803 2.97266L21.9785 7.22266L20.9111 8.27734L17.9971 5.32617V20.5H16.4971V5.32617L13.583 8.27734L12.5156 7.22266L16.7139 2.97266L16.8281 2.87793C16.951 2.79519 17.0967 2.75 17.2471 2.75Z" fill="#161616"/>
</svg>
