<svg width="24" height="24" viewBox="0 0 24 24" fill="none" xmlns="http://www.w3.org/2000/svg">
<path d="M21.25 19.75V21.25H2.75V19.75H21.25ZM5.9502 16.3496V17.8496H2.75V16.3496H5.9502ZM15.5 17.0996C15.4998 15.1668 13.9329 13.5996 12 13.5996C10.0671 13.5996 8.50021 15.1668 8.5 17.0996V17.8496H7V17.0996C7.00021 14.3384 9.23871 12.0996 12 12.0996C14.7613 12.0996 16.9998 14.3384 17 17.0996V17.8496H15.5V17.0996ZM21.25 16.3496V17.8496H18.0498V16.3496H21.25ZM8.22754 12.2666L7.16699 13.3281L6.63672 12.7969L5.43457 11.5957L4.9043 11.0645L5.96484 10.0039L8.22754 12.2666ZM19.0957 11.0645L18.5654 11.5957L17.3633 12.7969L16.833 13.3281L15.7725 12.2666L18.0352 10.0039L19.0957 11.0645ZM12 2.75C12.1989 2.75 12.3896 2.82907 12.5303 2.96973L15.9307 6.37012L14.8701 7.43066L12.75 5.31055V9.4502H11.25V5.31055L9.12988 7.43066L8.06934 6.37012L11.4697 2.96973L11.584 2.87598C11.7063 2.79445 11.8508 2.75 12 2.75Z" fill="#161616"/>
</svg>
