<svg width="24" height="24" viewBox="0 0 24 24" fill="none" xmlns="http://www.w3.org/2000/svg">
<path d="M11.8945 3.41517C12.1588 3.45277 12.3636 3.5873 12.4854 3.67396C12.6382 3.78274 12.8155 3.93575 13 4.09388L20.8984 10.8644C21.002 10.9532 21.117 11.0501 21.207 11.1417C21.2784 11.2145 21.3662 11.3146 21.4365 11.4464L21.5 11.589L21.5312 11.6896C21.5939 11.9269 21.5835 12.1787 21.5 12.4113C21.4264 12.6162 21.3021 12.7606 21.207 12.8576C21.117 12.9493 21.0021 13.047 20.8984 13.1359L13 19.9054C12.8155 20.0636 12.6383 20.2165 12.4854 20.3253C12.3462 20.4244 12.0985 20.5859 11.7773 20.5939C11.4014 20.6032 11.0423 20.4381 10.8047 20.1466C10.6017 19.8976 10.5622 19.6039 10.5469 19.4337C10.53 19.2469 10.5312 19.0126 10.5312 18.7697V15.7003C9.56129 15.8462 8.61532 16.1343 7.72656 16.5607C6.44298 17.1765 5.30777 18.0629 4.39844 19.1583C4.19657 19.4014 3.8636 19.4922 3.56641 19.3849C3.26918 19.2776 3.07129 18.9948 3.07129 18.6788V18.1076L3.08203 17.6593C3.18606 15.422 4.05691 13.2832 5.55566 11.6066L5.83691 11.3048C7.12192 9.98404 8.75107 9.05926 10.5312 8.62708V5.22962C10.5312 4.9866 10.53 4.75244 10.5469 4.56556C10.5622 4.39538 10.6018 4.10262 10.8047 3.85365L10.8984 3.75013C11.1316 3.52308 11.4481 3.39724 11.7773 3.4054L11.8945 3.41517ZM12.0312 9.23451C12.0312 9.59883 11.769 9.91095 11.4102 9.97376C9.69959 10.273 8.12489 11.1042 6.91211 12.3507L6.67383 12.6056C5.62572 13.778 4.94176 15.2181 4.68555 16.7511C5.41333 16.1404 6.21669 15.6214 7.07812 15.2081L7.57227 14.9855C8.73488 14.4944 9.97147 14.1998 11.2305 14.1144C11.4375 14.1005 11.6413 14.173 11.793 14.3146C11.9447 14.4564 12.0312 14.6557 12.0312 14.8634V18.7609L19.9189 11.9992L12.0312 5.23841V9.23451Z" fill="#161616"/>
</svg>
