<svg width="24" height="24" viewBox="0 0 24 24" fill="none" xmlns="http://www.w3.org/2000/svg">
<path d="M2.75 12.0005C2.75 8.57583 4.61128 5.58606 7.37402 3.98779L8.12598 5.28662C5.80754 6.62776 4.25 9.13284 4.25 12.0005C4.25016 14.868 5.80765 17.3723 8.12598 18.7134L7.37402 20.0122C4.61142 18.414 2.75016 15.4249 2.75 12.0005ZM19.75 12.0005C19.75 9.13284 18.1925 6.62776 15.874 5.28662L16.626 3.98779C19.3887 5.58606 21.25 8.57583 21.25 12.0005C21.2498 15.4249 19.3886 18.414 16.626 20.0122L15.874 18.7134C18.1923 17.3723 19.7498 14.868 19.75 12.0005Z" fill="black" fill-opacity="0.3"/>
<path d="M7 12.0001C7.00001 10.1165 8.04193 8.47692 9.57715 7.62506L9.94141 8.28131L10.3047 8.93756C9.2269 9.53574 8.50001 10.6834 8.5 12.0001C8.5 13.3168 9.22673 14.4654 10.3047 15.0635L9.57715 16.3751C8.04192 15.5232 7 13.8836 7 12.0001ZM15.5 12.0001C15.5 10.6834 14.7731 9.53574 13.6953 8.93756L14.0586 8.28131L14.4229 7.62506C15.9581 8.47692 17 10.1165 17 12.0001C17 13.8836 15.9581 15.5232 14.4229 16.3751L13.6953 15.0635C14.7733 14.4654 15.5 13.3168 15.5 12.0001ZM12 11.2501C12.4142 11.2501 12.75 11.5859 12.75 12.0001C12.75 12.4143 12.4142 12.7501 12 12.7501H11.9502C11.536 12.7501 11.2002 12.4143 11.2002 12.0001C11.2002 11.5859 11.536 11.2501 11.9502 11.2501H12Z" fill="#161616"/>
</svg>
