<svg width="24" height="24" viewBox="0 0 24 24" fill="none" xmlns="http://www.w3.org/2000/svg">
<path d="M13.4004 5.25C13.6679 5.25 13.9139 5.24991 14.1182 5.2666C14.3312 5.28403 14.5647 5.32314 14.7949 5.44043C15.124 5.60818 15.3918 5.87597 15.5596 6.20508C15.6769 6.43527 15.716 6.66879 15.7334 6.88184C15.7501 7.08611 15.75 7.33211 15.75 7.59961V17.8086C15.75 18.0761 15.7501 18.3221 15.7334 18.5264C15.716 18.7394 15.6769 18.9729 15.5596 19.2031C15.3918 19.5323 15.124 19.8 14.7949 19.9678C14.5647 20.0851 14.3312 20.1252 14.1182 20.1426C13.9139 20.1593 13.6679 20.1582 13.4004 20.1582H11.25V21.25H13.3496V22.75H7.66895V21.25H9.75V20.1582H7.59961C7.33211 20.1582 7.08611 20.1593 6.88184 20.1426C6.66877 20.1252 6.43529 20.0851 6.20508 19.9678C5.87596 19.8 5.60817 19.5323 5.44043 19.2031C5.32312 18.9729 5.28403 18.7394 5.2666 18.5264C5.24991 18.3221 5.25 18.0761 5.25 17.8086V7.59961C5.25 7.33211 5.24991 7.08611 5.2666 6.88184C5.28403 6.66879 5.32314 6.43527 5.44043 6.20508C5.60818 5.87597 5.87597 5.60818 6.20508 5.44043C6.43527 5.32314 6.66879 5.28403 6.88184 5.2666C7.08611 5.24991 7.33211 5.25 7.59961 5.25H13.4004ZM7.59961 6.75C7.30744 6.75 7.13298 6.7502 7.00391 6.76074C6.88384 6.77058 6.87034 6.78569 6.88672 6.77734C6.83968 6.80131 6.80131 6.83968 6.77734 6.88672C6.78569 6.87034 6.77058 6.88384 6.76074 7.00391C6.7502 7.13298 6.75 7.30744 6.75 7.59961V17.8086C6.75 18.1008 6.7502 18.2752 6.76074 18.4043C6.77058 18.5245 6.78569 18.5379 6.77734 18.5215C6.80131 18.5685 6.83968 18.6069 6.88672 18.6309C6.87034 18.6225 6.88385 18.6376 7.00391 18.6475C7.13298 18.658 7.30744 18.6582 7.59961 18.6582H13.4004C13.6926 18.6582 13.867 18.658 13.9961 18.6475C14.1161 18.6376 14.1297 18.6225 14.1133 18.6309C14.1603 18.6069 14.1987 18.5685 14.2227 18.5215C14.2143 18.5379 14.2294 18.5245 14.2393 18.4043C14.2498 18.2752 14.25 18.1008 14.25 17.8086V7.59961C14.25 7.30744 14.2498 7.13298 14.2393 7.00391C14.2294 6.88384 14.2143 6.87034 14.2227 6.88672C14.1987 6.83968 14.1603 6.80131 14.1133 6.77734C14.1297 6.78569 14.1162 6.77058 13.9961 6.76074C13.867 6.7502 13.6926 6.75 13.4004 6.75H7.59961ZM17 2.25C17.9665 2.25 18.75 3.0335 18.75 4V14.9336C18.75 15.7344 18.1006 16.3838 17.2998 16.3838H16.25V14.8838H17.25V4C17.25 3.86193 17.1381 3.75 17 3.75H9.75V4.75H8.25V3.7002C8.25 2.89938 8.89938 2.25 9.7002 2.25H17Z" fill="#161616"/>
</svg>
