<svg width="24" height="24" viewBox="0 0 24 24" fill="none" xmlns="http://www.w3.org/2000/svg">
<path d="M9.96777 3.5L10.3916 3.92383L9.09277 5.22266V7.375L10.9561 6.29883L11.4326 4.52539L12.5918 4.83594L12.207 6.26953L13.6416 6.6543L13.3311 7.81348L11.5566 7.33789L9.69336 8.41406L11.5566 9.48926L13.3311 9.01465L13.6416 10.1738L12.207 10.5576L12.5918 11.9932L11.4326 12.3037L10.957 10.5303L9.09277 9.45312V11.6055L10.3916 12.9043L9.54297 13.7529L8.49219 12.7021L7.44336 13.7529L6.59473 12.9043L7.89258 11.6055V9.45312L6.0293 10.5293L5.55371 12.3037L4.39453 11.9932L4.77832 10.5576L3.34473 10.1738L3.65527 9.01465L5.42773 9.49023L7.29199 8.41406L5.42773 7.33691L3.65527 7.81348L3.34473 6.6543L4.77832 6.26953L4.39453 4.83594L5.55371 4.52539L6.0293 6.29883L7.89258 7.37402V5.22168L6.59473 3.92383L7.01855 3.5L7.44336 3.07617L8.49219 4.125L9.54297 3.07617L9.96777 3.5Z" fill="#161616"/>
<path d="M19.9004 16.9678C19.9003 16.416 19.7063 15.7659 19.373 15.0703C19.0431 14.3816 18.5974 13.6903 18.1416 13.0693C17.6874 12.4505 17.2313 11.9124 16.8887 11.5283C16.8406 11.4745 16.7932 11.4244 16.75 11.377C16.7068 11.4244 16.6594 11.4745 16.6113 11.5283C16.2686 11.9124 15.8126 12.4505 15.3584 13.0693C14.9026 13.6903 14.4569 14.3816 14.127 15.0703C13.7937 15.7659 13.5997 16.416 13.5996 16.9678C13.5996 18.5505 14.9793 19.9004 16.75 19.9004C18.5207 19.9004 19.9004 18.5506 19.9004 16.9678ZM19.1963 16.9326C18.8567 17.995 18.0097 18.8312 16.9434 19.1934L16.5566 18.0566C17.2793 17.8113 17.8352 17.2511 18.0537 16.5674L19.1963 16.9326ZM21.0996 16.9678C21.0996 19.28 19.1147 21.0996 16.75 21.0996C14.3853 21.0996 12.4004 19.28 12.4004 16.9678C12.4005 16.1608 12.6753 15.3233 13.0449 14.5518C13.4181 13.7728 13.9099 13.0157 14.3916 12.3594C14.8746 11.7014 15.3565 11.1323 15.7168 10.7285C15.8971 10.5264 16.048 10.3647 16.1543 10.2529C16.2072 10.1973 16.2491 10.1539 16.2783 10.124C16.2929 10.1091 16.3046 10.0969 16.3125 10.0889C16.3164 10.0849 16.3201 10.0823 16.3223 10.0801C16.3233 10.0791 16.3236 10.0778 16.3242 10.0771L16.3252 10.0762C16.4377 9.96367 16.5909 9.90041 16.75 9.90039C16.9091 9.90039 17.0623 9.96365 17.1748 10.0762L17.1875 10.0889C17.1954 10.0969 17.2071 10.1091 17.2217 10.124C17.2509 10.1539 17.2928 10.1973 17.3457 10.2529C17.4521 10.3648 17.6037 10.5262 17.7842 10.7285C18.1445 11.1323 18.6255 11.7015 19.1084 12.3594C19.5901 13.0157 20.0819 13.7728 20.4551 14.5518C20.8247 15.3233 21.0995 16.1608 21.0996 16.9678Z" fill="#161616"/>
</svg>
