<svg width="24" height="24" viewBox="0 0 24 24" fill="none" xmlns="http://www.w3.org/2000/svg">
<path d="M20.25 5.25H3.75V6.09961L3.76367 6.23145C3.82448 6.52738 4.08646 6.75 4.40039 6.75H19.5996C19.9586 6.75 20.25 6.45859 20.25 6.09961V5.25ZM21.75 6.09961C21.75 7.28702 20.787 8.25 19.5996 8.25H4.40039C3.28734 8.25 2.37105 7.40425 2.26074 6.32031L2.25 6.09961V4.90039C2.25 4.26526 2.76526 3.75 3.40039 3.75H20.5996C21.2347 3.75 21.75 4.26526 21.75 4.90039V6.09961Z" fill="#161616"/>
<path d="M18.75 8.25H5.25V12C5.25 15.7279 8.27208 18.75 12 18.75C15.7279 18.75 18.75 15.7279 18.75 12V8.25ZM20.25 12C20.25 16.5563 16.5563 20.25 12 20.25C7.44365 20.25 3.75 16.5563 3.75 12V6.75H20.25V12Z" fill="#161616"/>
<path d="M13.8506 13.3384C13.8504 12.3168 13.0216 11.4888 12 11.4888C10.9786 11.489 10.1506 12.317 10.1504 13.3384C10.1504 14.36 10.9785 15.1888 12 15.189C13.0217 15.189 13.8506 14.3601 13.8506 13.3384ZM15.3506 13.3384C15.3506 15.1885 13.8502 16.689 12 16.689C10.15 16.6888 8.65039 15.1884 8.65039 13.3384C8.6506 11.4885 10.1502 9.98898 12 9.98877C13.85 9.98877 15.3504 11.4884 15.3506 13.3384Z" fill="#161616"/>
<path d="M17.6133 10.338C17.6133 10.7522 17.2775 11.088 16.8633 11.088C16.4491 11.088 16.1133 10.7522 16.1133 10.338C16.1133 9.9238 16.4491 9.58801 16.8633 9.58801C17.2775 9.58801 17.6133 9.9238 17.6133 10.338Z" fill="#161616"/>
</svg>
