<svg width="24" height="24" viewBox="0 0 24 24" fill="none" xmlns="http://www.w3.org/2000/svg">
<path d="M4.2002 16.6797V7.32034C4.2002 6.57664 4.19941 5.97324 4.23852 5.48538C4.27833 4.98888 4.3631 4.54587 4.56907 4.13382C4.89358 3.48466 5.4115 2.95677 6.0484 2.626C6.45267 2.41607 6.8873 2.32967 7.37442 2.28909C7.85306 2.24923 8.44507 2.25003 9.17472 2.25003H12.0107C12.6233 2.25003 13.0494 2.2457 13.4584 2.34573C13.8038 2.43024 14.1348 2.56966 14.4376 2.75882C14.7963 2.98294 15.0947 3.29382 15.528 3.73538L18.3429 6.60452C18.7762 7.04621 19.0811 7.3501 19.301 7.71585C19.4866 8.02449 19.6234 8.36094 19.7063 8.71292C19.8045 9.13005 19.8002 9.56478 19.8002 10.1895V16.6797C19.8002 17.4234 19.8 18.0268 19.7609 18.5147C19.7211 19.0111 19.6372 19.4542 19.4313 19.8662C19.1068 20.5153 18.5888 21.0433 17.952 21.3741C17.5476 21.584 17.1122 21.6704 16.625 21.711C16.1464 21.7508 15.5551 21.75 14.8257 21.75H9.17472C8.44507 21.75 7.85306 21.7508 7.37442 21.711C6.8873 21.6704 6.45267 21.584 6.0484 21.3741C5.4115 21.0433 4.89358 20.5154 4.56907 19.8662C4.3631 19.4542 4.27833 19.0112 4.23852 18.5147C4.19941 18.0268 4.2002 17.4234 4.2002 16.6797ZM14.8257 12.1504C14.9371 12.1504 15.0649 12.149 15.1754 12.1582C15.2647 12.1657 15.3781 12.1823 15.5002 12.2266L15.6247 12.2813L15.7828 12.3799C15.8824 12.4538 15.97 12.543 16.0425 12.6446L16.1392 12.8057L16.1929 12.9317C16.2365 13.0563 16.2517 13.1725 16.259 13.2637C16.268 13.3763 16.2676 13.5066 16.2676 13.6201V16.6797C16.2676 16.7934 16.268 16.9245 16.259 17.0371C16.2492 17.1585 16.2248 17.3239 16.1392 17.4951C16.0264 17.7208 15.8461 17.9046 15.6247 18.0196C15.4566 18.1068 15.2944 18.1317 15.1754 18.1416C15.0649 18.1508 14.9371 18.1504 14.8257 18.1504H9.17472C9.06323 18.1504 8.93458 18.1508 8.82405 18.1416C8.70496 18.1317 8.54273 18.1068 8.37469 18.0196C8.15327 17.9045 7.97304 17.7208 7.86019 17.4951C7.77457 17.3239 7.75018 17.1585 7.74042 17.0371C7.73139 16.9245 7.7318 16.7934 7.7318 16.6797V13.6201C7.7318 13.5066 7.73142 13.3763 7.74042 13.2637C7.75015 13.1424 7.77466 12.977 7.86019 12.8057L7.95696 12.6446C8.06556 12.4922 8.20858 12.3676 8.37469 12.2813L8.49925 12.2266C8.62133 12.1823 8.7347 12.1657 8.82405 12.1582C8.93458 12.149 9.06323 12.1504 9.17472 12.1504H14.8257ZM9.20346 16.6504H14.796V13.6504H9.20346V16.6504ZM5.67186 16.6797C5.67186 17.4482 5.67232 17.98 5.70539 18.3926C5.73777 18.7963 5.79805 19.0202 5.88073 19.1856C6.0641 19.5522 6.35649 19.8502 6.7162 20.0371C6.87847 20.1214 7.09815 20.1828 7.49419 20.2158C7.899 20.2496 8.42079 20.25 9.17472 20.25H14.8257C15.5794 20.25 16.1005 20.2495 16.5052 20.2158C16.9014 20.1829 17.1209 20.1214 17.2832 20.0371C17.6431 19.8502 17.9362 19.5524 18.1197 19.1856C18.2023 19.0202 18.2617 18.7962 18.294 18.3926C18.3271 17.98 18.3285 17.4482 18.3285 16.6797V10.1895C18.3285 9.49362 18.323 9.26779 18.2749 9.0635C18.228 8.86453 18.1508 8.67352 18.0459 8.49905C17.9382 8.32007 17.7848 8.15677 17.3024 7.66507L14.4875 4.79593C14.0045 4.30371 13.8441 4.14694 13.6683 4.03714C13.4972 3.93028 13.3106 3.85149 13.1154 3.80374C12.915 3.75469 12.6934 3.75003 12.0107 3.75003H9.17472C8.42079 3.75003 7.899 3.7505 7.49419 3.78421C7.09815 3.81721 6.87847 3.87865 6.7162 3.96292C6.35649 4.14982 6.0641 4.44784 5.88073 4.81448C5.79805 4.97987 5.73777 5.20378 5.70539 5.60745C5.67232 6.02006 5.67186 6.55189 5.67186 7.32034V16.6797Z" fill="#161616"/>
</svg>
