<svg width="100%" height="100%" overflow="visible" style="display: block;" viewBox="0 0 26 26" fill="none" xmlns="http://www.w3.org/2000/svg">
<path id="Icon (Stroke)" d="M12 21.6003H14V26H12V21.6003ZM5.1875 22.2318L4.48047 22.9388L3.0651 21.5247L3.77214 20.8177L5.1875 22.2318ZM22.9349 21.5247L21.5195 22.9388L18.4089 19.8281L19.8229 18.4141L22.9349 21.5247ZM7.59115 19.8281L5.1875 22.2318L3.77214 20.8177L6.17708 18.4141L7.59115 19.8281ZM18 13C18 10.2386 15.7614 8 13 8C10.2386 8 8 10.2386 8 13C8 15.7614 10.2386 18 13 18C15.7614 18 18 15.7614 18 13ZM4.39974 12V14H0V12H4.39974ZM26 12V14H21.6003V12H26ZM7.59115 6.17708L6.17708 7.59115L3.77214 5.1875L4.48047 4.48047L5.1875 3.77214L7.59115 6.17708ZM21.5195 4.48047L22.2279 5.1875L19.8229 7.59115L18.4089 6.17708L20.8125 3.77214L21.5195 4.48047ZM5.1875 3.77214L3.77214 5.1875L3.0651 4.48047L4.48047 3.0651L5.1875 3.77214ZM22.9349 4.48047L22.2279 5.1875L20.8125 3.77214L21.5195 3.0651L22.9349 4.48047ZM12 0H14V4.39974H12V0ZM20 13C20 16.866 16.866 20 13 20C9.13401 20 6 16.866 6 13C6 9.13401 9.13401 6 13 6C16.866 6 20 9.13401 20 13Z" fill="var(--fill-0, #161616)"/>
</svg>
