<svg width="24" height="24" viewBox="0 0 24 24" fill="none" xmlns="http://www.w3.org/2000/svg">
<path d="M2.72583 11.8843C2.72583 8.45962 4.58711 5.46985 7.34985 3.87158L8.10181 5.17041C5.78337 6.51155 4.22583 9.01663 4.22583 11.8843C4.22599 14.7517 5.78348 17.2561 8.10181 18.5972L7.34985 19.896C4.58725 18.2978 2.72599 15.3087 2.72583 11.8843ZM19.7258 11.8843C19.7258 9.01663 18.1683 6.51155 15.8499 5.17041L16.6018 3.87158C19.3646 5.46985 21.2258 8.45962 21.2258 11.8843C21.2258 12.6696 21.1275 13.433 20.9426 14.1626L19.4885 13.7944C19.6432 13.1842 19.7258 12.5444 19.7258 11.8843Z" fill="black" fill-opacity="0.3"/>
<path d="M6.97583 11.8838C6.97584 10.0003 8.01776 8.36071 9.55298 7.50885L9.91724 8.1651L10.2805 8.82135C9.20273 9.41953 8.47584 10.5672 8.47583 11.8838C8.47583 13.2006 9.20256 14.3492 10.2805 14.9473L9.55298 16.2588C8.01775 15.407 6.97583 13.7674 6.97583 11.8838ZM14.3987 7.50885C15.9339 8.36071 16.9758 10.0003 16.9758 11.8838H15.4758C15.4758 10.5672 14.7489 9.41953 13.6711 8.82135L14.0344 8.1651L14.3987 7.50885Z" fill="black" fill-opacity="0.3"/>
<path d="M11.9758 11.1338C12.39 11.1338 12.7258 11.4696 12.7258 11.8838C12.7258 12.2981 12.39 12.6338 11.9758 12.6338H11.926C11.5118 12.6338 11.176 12.2981 11.176 11.8838C11.176 11.4696 11.5118 11.1338 11.926 11.1338H11.9758Z" fill="#161616"/>
<path d="M14.137 13.9433C15.0422 12.4704 17.1432 12.4239 18.1233 13.8046L18.2151 13.9433L18.2336 13.9755L20.9729 18.9765C21.1706 19.3089 21.3801 19.8283 21.2141 20.4013C20.9252 21.3976 20.0066 22.1287 18.9153 22.1288H13.4368C12.3454 22.1287 11.4269 21.3976 11.1379 20.4013C10.9719 19.8283 11.1814 19.3089 11.3792 18.9765L14.1184 13.9755L14.137 13.9433ZM16.9329 14.7226C16.583 14.1626 15.7678 14.1623 15.4182 14.7226L12.6956 19.6962C12.6896 19.7071 12.6826 19.7187 12.676 19.7294C12.6248 19.8128 12.5971 19.8808 12.5852 19.9296C12.5796 19.9526 12.5784 19.9677 12.5784 19.9755C12.5784 19.979 12.5784 19.9823 12.5784 19.9823L12.5793 19.9833C12.6877 20.3569 13.0318 20.6287 13.4368 20.6288H18.9153C19.3202 20.6287 19.6644 20.3569 19.7727 19.9833L19.7737 19.9823C19.7737 19.9823 19.7737 19.979 19.7737 19.9755C19.7736 19.9677 19.7724 19.9526 19.7668 19.9296C19.7549 19.8808 19.7272 19.8128 19.676 19.7294C19.6695 19.7187 19.6625 19.7071 19.6565 19.6962L16.9329 14.7226Z" fill="#E76067"/>
<path d="M15.426 18.4424H16.926V19.9658H15.426V18.4424ZM15.426 15.8447H16.926V18.0918H15.426V15.8447Z" fill="#E76067"/>
</svg>
