<svg width="24" height="24" viewBox="0 0 24 24" fill="none" xmlns="http://www.w3.org/2000/svg">
<path d="M19 19.5V21H5V19.5H19ZM19.5 19V5C19.5 4.72386 19.2761 4.5 19 4.5H5C4.72386 4.5 4.5 4.72386 4.5 5V19C4.5 19.2761 4.72386 19.5 5 19.5V21L4.7959 20.9893C3.85435 20.8938 3.1062 20.1457 3.01074 19.2041L3 19V5C3 3.89543 3.89543 3 5 3H19C20.1046 3 21 3.89543 21 5V19C21 20.0357 20.2128 20.887 19.2041 20.9893L19 21V19.5C19.2761 19.5 19.5 19.2761 19.5 19Z" fill="#161616"/>
<path d="M12.75 10.5C12.75 10.9142 13.0858 11.25 13.5 11.25H21V12.75H13.5C12.2574 12.75 11.25 11.7426 11.25 10.5V3H12.75V10.5Z" fill="#161616"/>
<path d="M5.65188 13.3044H7.15188V15.8435L10.4019 12.5935L11.4624 13.654L8.21243 16.904H10.5093V18.404H6.40188C5.98767 18.404 5.65188 18.0682 5.65188 17.654V13.3044Z" fill="#161616"/>
</svg>
