<svg width="24" height="24" viewBox="0 0 24 24" fill="none" xmlns="http://www.w3.org/2000/svg">
<path d="M10.9737 3.38912C11.4654 2.68116 12.5347 2.68116 13.0264 3.38912L13.1231 3.55123L15.4552 8.23092L20.6749 8.98287C21.6948 9.12963 22.1236 10.3866 21.3682 11.1157L17.5948 14.7553L18.4864 19.896C18.6657 20.9316 17.5749 21.6854 16.67 21.2143L12.0001 18.7827L7.33016 21.2143C6.42521 21.6854 5.33447 20.9316 5.51375 19.896L6.40437 14.7553L2.63191 11.1157C1.87656 10.3866 2.30532 9.12963 3.32527 8.98287L8.54402 8.23092L10.877 3.55123L10.9737 3.38912ZM9.82918 9.01803C9.64499 9.3875 9.29022 9.64037 8.88484 9.6987L4.045 10.394L7.54207 13.77C7.83858 14.0562 7.97604 14.4713 7.90535 14.8794L7.0782 19.6548L11.419 17.395L11.5587 17.3325C11.843 17.2259 12.1571 17.2259 12.4415 17.3325L12.5811 17.395L16.921 19.6548L16.0948 14.8794C16.0241 14.4713 16.1616 14.0562 16.4581 13.77L19.9542 10.394L15.1153 9.6987C14.7099 9.64037 14.3552 9.3875 14.171 9.01803L12.0001 4.66061L9.82918 9.01803Z" fill="#161616"/>
</svg>
