<svg width="24" height="24" viewBox="0 0 24 24" fill="none" xmlns="http://www.w3.org/2000/svg">
<path d="M19.75 16.2499C19.75 14.317 18.183 12.7499 16.25 12.7499H7.75C5.81698 12.7499 4.24994 14.3169 4.25 16.2499C4.25006 18.1829 5.81707 19.7499 7.75 19.7499H16.25C18.1829 19.7499 19.7499 18.1829 19.75 16.2499ZM6.46875 16.33V16.2499C6.46875 15.8357 6.80454 15.4999 7.21875 15.4999C7.63289 15.5 7.96875 15.8358 7.96875 16.2499V16.33C7.96859 16.744 7.63279 17.0799 7.21875 17.08C6.80463 17.08 6.46891 16.7441 6.46875 16.33ZM17.5312 15.4999V16.9999H10.7188V15.4999H17.5312ZM11.2979 5.30462L9.87207 6.72357L8.81445 5.66009L11.5186 2.96869L11.5752 2.91693C11.8691 2.67811 12.3017 2.69529 12.5762 2.96771L15.1855 5.56146L14.1279 6.62591L12.7979 5.30267V9.56244H11.2979V5.30462ZM21.25 16.2499C21.2499 19.0113 19.0114 21.2499 16.25 21.2499H7.75C4.98866 21.2499 2.75009 19.0113 2.75 16.2499C2.74994 13.4885 4.98855 11.2499 7.75 11.2499H16.25C19.0114 11.2499 21.25 13.4885 21.25 16.2499Z" fill="#161616"/>
</svg>
