<svg width="24" height="24" viewBox="0 0 24 24" fill="none" xmlns="http://www.w3.org/2000/svg">
<path d="M18 19.5V21H6V19.5H18ZM19.5 18V6C19.5 5.17157 18.8284 4.5 18 4.5H6C5.17157 4.5 4.5 5.17157 4.5 6V18C4.5 18.8284 5.17157 19.5 6 19.5V21C4.39489 21 3.08421 19.7394 3.00391 18.1543L3 18V6C3 4.34315 4.34315 3 6 3H18L18.1543 3.00391C19.7394 3.08421 21 4.39489 21 6V18L20.9961 18.1543C20.9184 19.6883 19.6883 20.9184 18.1543 20.9961L18 21V19.5C18.8284 19.5 19.5 18.8284 19.5 18Z" fill="#161616"/>
</svg>
