<svg width="24" height="24" viewBox="0 0 24 24" fill="none" xmlns="http://www.w3.org/2000/svg">
<path d="M17.9971 3.5V18.6729L20.9111 15.7227L21.9785 16.7773L17.7803 21.0273C17.6394 21.1698 17.4474 21.25 17.2471 21.25C17.0467 21.25 16.8547 21.1698 16.7139 21.0273L12.5156 16.7773L13.583 15.7227L16.4971 18.6729V3.5H17.9971ZM6.75293 2.75C6.95345 2.75 7.1462 2.82999 7.28711 2.97266L11.4844 7.22266L10.417 8.27734L7.50293 5.32617V20.5H6.00293V5.32715L3.08887 8.27734L2.02246 7.22266L6.21973 2.97266L6.33398 2.87793C6.45684 2.79514 6.60257 2.75005 6.75293 2.75Z" fill="#161616"/>
</svg>
