<svg width="24" height="24" viewBox="0 0 24 24" fill="none" xmlns="http://www.w3.org/2000/svg">
<path d="M3 18.417V14H4.5V18.417C4.50018 19.015 4.98496 19.4998 5.58301 19.5H10V21H5.58301C4.15653 20.9998 3.00018 19.8435 3 18.417ZM19.5 18.417V14H21V18.417C20.9998 19.8435 19.8435 20.9998 18.417 21H14V19.5H18.417C19.015 19.4998 19.4998 19.015 19.5 18.417ZM21 11.251V12.751H3V11.251H21ZM3 5.58301C3.00018 4.15653 4.15653 3.00018 5.58301 3H10V4.5H5.58301C4.98496 4.50018 4.50018 4.98496 4.5 5.58301V10H3V5.58301ZM19.5 5.58301C19.4998 4.98496 19.015 4.50018 18.417 4.5H14V3H18.417C19.8435 3.00018 20.9998 4.15653 21 5.58301V10H19.5V5.58301Z" fill="#161616"/>
</svg>
