<svg width="24" height="24" viewBox="0 0 24 24" fill="none" xmlns="http://www.w3.org/2000/svg">
<path d="M10.625 19.0742C10.625 18.6103 10.2491 18.2344 9.78516 18.2344C9.32138 18.2345 8.94532 18.6104 8.94531 19.0742C8.94531 19.538 9.32137 19.9139 9.78516 19.9141C10.2491 19.9141 10.625 19.5381 10.625 19.0742ZM16.9854 19.0742C16.9853 18.6103 16.6094 18.2344 16.1455 18.2344C15.6817 18.2345 15.3057 18.6104 15.3057 19.0742C15.3057 19.5381 15.6817 19.914 16.1455 19.9141C16.6094 19.9141 16.9854 19.5381 16.9854 19.0742ZM4.61621 2.58594L4.9209 2.59277C5.00177 2.59897 5.1037 2.61239 5.21484 2.64844L5.32812 2.69238L5.47656 2.77344C5.57053 2.83397 5.6553 2.90772 5.72852 2.99219L5.83008 3.12695L5.88965 3.2334C5.94103 3.33832 5.96877 3.43743 5.98633 3.5166C6.00769 3.61292 6.02288 3.72464 6.03613 3.81738L6.34863 6.00488H19.7686C19.8967 6.00488 20.0416 6.00392 20.165 6.01465C20.2626 6.02315 20.393 6.04178 20.5312 6.09668L20.6719 6.16504L20.7598 6.22168C20.9292 6.34175 21.0642 6.50447 21.1504 6.69336L21.1895 6.79004L21.2295 6.94043C21.2577 7.08672 21.2511 7.21785 21.2412 7.31543C21.2287 7.43877 21.2017 7.58102 21.1777 7.70703L20.0459 13.6465C19.9726 14.0313 19.911 14.3607 19.8389 14.6289C19.7829 14.8368 19.7136 15.0368 19.6113 15.2275L19.4971 15.415C19.2707 15.7438 18.968 16.0122 18.6162 16.1973L18.4619 16.2715C18.189 16.3916 17.9122 16.4386 17.626 16.46C17.349 16.4806 17.0138 16.4805 16.6221 16.4805H9.30762C8.89592 16.4805 8.5443 16.4802 8.25488 16.458C8.03084 16.4408 7.81214 16.4088 7.59766 16.3389L7.38477 16.2559C6.95402 16.058 6.5901 15.739 6.33594 15.3389C6.16925 15.0764 6.08058 14.7968 6.01758 14.5039C5.95656 14.2202 5.909 13.8726 5.85352 13.4648L4.95508 6.86035V6.86133L4.55859 4.08594H3.5V2.58594H4.61621ZM7.33984 13.2627C7.3984 13.6931 7.4373 13.9741 7.4834 14.1885C7.52756 14.3938 7.56781 14.482 7.60156 14.5352C7.70066 14.6912 7.84283 14.8154 8.01074 14.8926L8.13379 14.9316C8.19019 14.9439 8.2656 14.9549 8.37012 14.9629C8.58882 14.9797 8.87296 14.9805 9.30762 14.9805H16.6221C17.0358 14.9805 17.3055 14.9794 17.5137 14.9639C17.7122 14.949 17.8013 14.9231 17.8574 14.8984L17.9756 14.8369C18.0883 14.7673 18.186 14.6744 18.2617 14.5645L18.3193 14.4551C18.3406 14.4041 18.3638 14.3353 18.3896 14.2393C18.4439 14.0377 18.4948 13.7728 18.5723 13.3662L19.6895 7.50488H6.55664L7.33984 13.2627ZM12.125 19.0742C12.125 20.3666 11.0775 21.4141 9.78516 21.4141C8.49295 21.4139 7.44531 20.3665 7.44531 19.0742C7.44532 17.782 8.49295 16.7345 9.78516 16.7344C11.0775 16.7344 12.125 17.7819 12.125 19.0742ZM18.4854 19.0742C18.4854 20.3666 17.4379 21.4141 16.1455 21.4141C14.8532 21.414 13.8057 20.3665 13.8057 19.0742C13.8057 17.7819 14.8532 16.7345 16.1455 16.7344C17.4379 16.7344 18.4853 17.7819 18.4854 19.0742Z" fill="#161616"/>
</svg>
