<svg width="24" height="24" viewBox="0 0 24 24" fill="none" xmlns="http://www.w3.org/2000/svg">
<path d="M18.1533 6.50692L13.209 4.03524C12.4485 3.65499 11.5525 3.65499 10.792 4.03524L5.84766 6.50692V13.7403C5.84766 14.3891 6.18556 15.1837 7.03223 16.1554C7.87186 17.1189 9.14278 18.1777 10.8408 19.3419C11.5372 19.8193 12.4632 19.8222 13.1836 19.3497C14.8974 18.2254 16.154 17.2901 16.9824 16.379C17.7913 15.4892 18.1533 14.6655 18.1533 13.7403V6.50692ZM15.9375 9.4952L11.9551 13.4776C11.6622 13.7701 11.1873 13.7703 10.8945 13.4776L8.63867 11.2208L9.69922 10.1602L11.4248 11.8858L14.877 8.43466L15.9375 9.4952ZM19.6533 13.7403C19.6533 15.1356 19.078 16.304 18.0918 17.3888C17.125 18.452 15.7277 19.4746 14.0068 20.6036C12.7919 21.4006 11.2047 21.4105 9.99219 20.5792C8.24845 19.3836 6.86073 18.2417 5.90137 17.1407C4.94903 16.0477 4.34766 14.9117 4.34766 13.7403V6.04403C4.34768 5.75998 4.50862 5.50017 4.7627 5.37313L10.1211 2.69345C11.3038 2.10211 12.6962 2.10226 13.8789 2.69345L19.2383 5.37313C19.4924 5.50017 19.6533 5.75998 19.6533 6.04403V13.7403Z" fill="#161616"/>
</svg>
