<svg width="24" height="24" viewBox="0 0 24 24" fill="none" xmlns="http://www.w3.org/2000/svg">
<path d="M14.9473 2.25C15.4119 2.25 15.8016 2.2499 16.1191 2.27344C16.4436 2.2975 16.7553 2.34938 17.0537 2.4873C17.5077 2.69722 17.8908 3.0387 18.1357 3.47461C18.3011 3.76901 18.3637 4.07793 18.3916 4.3877C18.4185 4.68637 18.418 5.05038 18.418 5.46875V15.6162C18.418 16.0344 18.4185 16.3977 18.3916 16.6963C18.3637 17.0061 18.3011 17.3149 18.1357 17.6094C17.8908 18.0454 17.5078 18.3867 17.0537 18.5967C16.7553 18.7346 16.4436 18.7875 16.1191 18.8115C15.8016 18.8351 15.4119 18.834 14.9473 18.834H12.749V20.25H15.3936V21.75H8.62891V20.25H11.249V18.834H9.05176C8.58715 18.834 8.19748 18.835 7.87988 18.8115C7.5555 18.7875 7.2437 18.7345 6.94531 18.5967C6.49108 18.3867 6.1073 18.0455 5.86231 17.6094C5.69693 17.3149 5.63533 17.0061 5.60742 16.6963C5.58055 16.3977 5.58106 16.0344 5.58106 15.6162V5.46875C5.58106 5.05037 5.58052 4.68637 5.60742 4.3877C5.63533 4.07791 5.69695 3.76902 5.86231 3.47461C6.10731 3.03857 6.49118 2.69723 6.94531 2.4873C7.24365 2.34952 7.55554 2.29748 7.87988 2.27344C8.19749 2.24993 8.58713 2.25 9.05176 2.25H14.9473ZM8.29785 17.3262C8.49847 17.3309 8.74245 17.334 9.05176 17.334H14.9473C15.434 17.334 15.7586 17.3339 16.0078 17.3154C16.2502 17.2974 16.3596 17.2655 16.4248 17.2354C16.6101 17.1496 16.7471 17.0191 16.8281 16.875C16.8481 16.8394 16.879 16.766 16.8975 16.5615C16.9169 16.3458 16.918 16.0614 16.918 15.6162V13.8516C16.8497 13.8125 16.7838 13.766 16.7285 13.7041L14.2793 10.9639L8.29785 17.3262ZM9.05176 3.75C8.56453 3.75 8.23958 3.75009 7.99024 3.76855C7.74815 3.78651 7.63947 3.81853 7.57422 3.84863C7.3886 3.93444 7.251 4.06566 7.16992 4.20996C7.14996 4.24566 7.11992 4.31866 7.10156 4.52246C7.08213 4.73828 7.08106 5.02317 7.08106 5.46875V15.6162C7.08106 15.9682 7.08485 16.2195 7.09473 16.416L13.2939 9.82324L13.3096 9.80664C13.378 9.73817 13.4616 9.65456 13.54 9.58789C13.6253 9.51553 13.7537 9.4196 13.9297 9.3623L14.1045 9.32031C14.2221 9.30178 14.3424 9.30179 14.46 9.32031L14.6348 9.3623L14.7578 9.41113C14.8723 9.46546 14.9604 9.53355 15.0244 9.58789L15.2549 9.80664L15.2832 9.83691L16.918 11.665V5.46875C16.918 5.02321 16.9169 4.73827 16.8975 4.52246C16.8791 4.31838 16.8481 4.24561 16.8281 4.20996C16.7471 4.06573 16.6102 3.93446 16.4248 3.84863C16.3596 3.81849 16.2502 3.78654 16.0078 3.76855C15.7586 3.75011 15.434 3.75 14.9473 3.75H9.05176ZM9.88867 6.0918C11.092 6.0918 12.0673 7.06722 12.0674 8.27051C12.0672 9.47372 11.0919 10.4492 9.88867 10.4492C8.68569 10.4489 7.71013 9.47353 7.70996 8.27051C7.71005 7.06742 8.68564 6.09211 9.88867 6.0918ZM9.88867 7.5918C9.51407 7.59211 9.21005 7.89585 9.20996 8.27051C9.21013 8.6451 9.51411 8.9489 9.88867 8.94922C10.2635 8.94922 10.5672 8.6453 10.5674 8.27051C10.5673 7.89565 10.2635 7.5918 9.88867 7.5918Z" fill="#161616"/>
</svg>
