<svg width="24" height="24" viewBox="0 0 24 24" fill="none" xmlns="http://www.w3.org/2000/svg">
<path d="M15.1875 3.67236L12.75 6.10986V10.7007L16.7256 8.40576L17.6182 5.07568L18.3428 5.27002L19.0674 5.46338L18.2881 8.36865L21.1943 9.14795L20.8057 10.5972L17.4756 9.70459L13.499 11.9995L17.4756 14.2944L20.8057 13.4028L21.1943 14.8521L18.2881 15.6304L19.0674 18.5366L18.3428 18.73L17.6182 18.9243L16.7256 15.5933L12.75 13.2983V17.8901L15.1875 20.3276L14.127 21.3882L12 19.2612L9.87305 21.3882L8.8125 20.3276L11.25 17.8901V13.2983L7.27344 15.5933L6.38184 18.9243L5.65723 18.731L4.93262 18.5366L5.71094 15.6304L2.80566 14.8521L3.19434 13.4038L6.52246 14.2954L10.5 11.9995L6.52344 9.70459L3.19434 10.5972L2.80566 9.14795L5.71094 8.36865L4.93262 5.46436L6.38184 5.07568L7.27344 8.40576L11.25 10.7007V6.10986L8.8125 3.67236L9.87305 2.61182L12 4.73877L14.127 2.61182L15.1875 3.67236Z" fill="#161616"/>
</svg>
