<svg width="24" height="24" viewBox="0 0 24 24" fill="none" xmlns="http://www.w3.org/2000/svg">
<path d="M2.75 12.0005C2.75 8.57583 4.61128 5.58606 7.37402 3.98779L8.12598 5.28662C5.80754 6.62776 4.25 9.13284 4.25 12.0005C4.25016 14.868 5.80765 17.3723 8.12598 18.7134L7.37402 20.0122C4.61142 18.414 2.75016 15.4249 2.75 12.0005ZM19.75 12.0005C19.75 9.13284 18.1925 6.62776 15.874 5.28662L16.626 3.98779C19.3887 5.58606 21.25 8.57583 21.25 12.0005C21.2498 15.4249 19.3886 18.414 16.626 20.0122L15.874 18.7134C18.1923 17.3723 19.7498 14.868 19.75 12.0005ZM7 12.0005C7 10.117 8.04192 8.47736 9.57715 7.62549L10.3047 8.93701C9.22677 9.53516 8.5 10.6837 8.5 12.0005C8.50016 13.317 9.22691 14.4649 10.3047 15.063L9.94141 15.7192L9.57715 16.3745C8.04204 15.5227 7.00016 13.8838 7 12.0005ZM15.5 12.0005C15.5 10.6837 14.7732 9.53516 13.6953 8.93701L14.4229 7.62549C15.9581 8.47736 17 10.117 17 12.0005C16.9998 13.8838 15.958 15.5227 14.4229 16.3745L14.0586 15.7192L13.6953 15.063C14.7731 14.4649 15.4998 13.317 15.5 12.0005ZM12 11.2505L12.0771 11.2544C12.4551 11.293 12.75 11.6123 12.75 12.0005C12.7498 12.3885 12.455 12.708 12.0771 12.7466L12 12.7505H11.9502C11.5361 12.7505 11.2004 12.4145 11.2002 12.0005C11.2002 11.5863 11.536 11.2505 11.9502 11.2505H12Z" fill="#161616"/>
</svg>
