<svg width="24" height="24" viewBox="0 0 24 24" fill="none" xmlns="http://www.w3.org/2000/svg">
<path d="M9.5 4.49954V2.99954L14.5 2.99954V4.49954L9.5 4.49954ZM9 4.99954L9 18.9995C9 19.2757 9.22386 19.4995 9.5 19.4995H14.5C14.7761 19.4995 15 19.2757 15 18.9995L15 4.99954C15 4.7234 14.7761 4.49954 14.5 4.49954V2.99954L14.7041 3.01028C15.6457 3.10574 16.3938 3.85389 16.4893 4.79544L16.5 4.99954L16.5 18.9995C16.5 20.1041 15.6046 20.9995 14.5 20.9995H9.5C8.39543 20.9995 7.5 20.1041 7.5 18.9995L7.5 4.99954C7.5 3.96389 8.28722 3.11255 9.2959 3.01028L9.5 2.99954V4.49954C9.22386 4.49954 9 4.7234 9 4.99954Z" fill="#161616"/>
<path d="M4.5 3.00048L4.5 21.0005H3L3 3.00048L4.5 3.00048Z" fill="#161616"/>
<path d="M21 3.00048V21.0005H19.5V3.00048L21 3.00048Z" fill="#161616"/>
</svg>
