<svg width="24" height="24" viewBox="0 0 24 24" fill="none" xmlns="http://www.w3.org/2000/svg">
<path d="M16.2119 14.5781C16.2119 14.4228 16.086 14.2969 15.9307 14.2969H8.71191C8.55658 14.2969 8.43066 14.4228 8.43066 14.5781V19.2188C8.43066 19.3184 8.41026 19.413 8.375 19.5H16.2119V14.5781ZM16.2119 4.78125C16.2119 4.73249 16.2167 4.68484 16.2256 4.63867C16.1001 4.56565 15.9602 4.51932 15.8145 4.50488L15.7139 4.5H8.43066V6.84375C8.43066 6.99908 8.55658 7.125 8.71191 7.125H15.9307C16.086 7.125 16.2119 6.99908 16.2119 6.84375V4.78125ZM3.32129 5.51758C3.32144 4.12721 4.4485 3.00015 5.83887 3H15.7139L15.9629 3.0127C16.5392 3.06993 17.081 3.32428 17.4941 3.7373L20.584 6.82715L20.751 7.01172C21.1181 7.45975 21.3213 8.02314 21.3213 8.60742V18.4824C21.3211 19.8728 20.1941 20.9998 18.8037 21H5.83887C4.4485 20.9998 3.32144 19.8728 3.32129 18.4824V5.51758ZM4.82129 18.4824C4.82144 19.0444 5.27693 19.4998 5.83887 19.5H6.98633C6.95107 19.413 6.93066 19.3184 6.93066 19.2188V14.5781C6.93066 13.5944 7.72816 12.7969 8.71191 12.7969H15.9307C16.9144 12.7969 17.7119 13.5944 17.7119 14.5781V19.5H18.8037C19.3657 19.4998 19.8211 19.0444 19.8213 18.4824V8.60742C19.8213 8.37115 19.7393 8.14306 19.5908 7.96191L19.5234 7.8877L17.7119 6.07617V6.84375C17.7119 7.82751 16.9144 8.625 15.9307 8.625H8.71191C7.72816 8.625 6.93066 7.82751 6.93066 6.84375V4.5H5.83887C5.27693 4.50015 4.82144 4.95564 4.82129 5.51758V18.4824Z" fill="#161616"/>
</svg>
