<svg width="24" height="24" viewBox="0 0 24 24" fill="none" xmlns="http://www.w3.org/2000/svg">
<path d="M4.63867 4.30457C4.63867 2.93587 6.29484 2.21509 7.27832 3.20886L14.8936 10.9042L14.999 11.0223C15.4582 11.5907 15.4582 12.4091 14.999 12.9774L14.8936 13.0956L7.27832 20.7909C6.32566 21.7535 4.74184 21.1076 4.64355 19.8221L4.63867 19.6952V4.30457ZM17.8613 3.55457H19.3613V20.4452H17.8613V3.55457ZM6.13867 19.6952L6.1416 19.7206C6.14265 19.7238 6.14413 19.7264 6.14551 19.7284C6.14888 19.7331 6.15668 19.7399 6.16895 19.745C6.18111 19.7501 6.18962 19.7503 6.19238 19.7499C6.1933 19.7497 6.19469 19.7488 6.19629 19.7479C6.19821 19.7469 6.20374 19.7435 6.21191 19.7352L13.8281 12.0399L13.8389 12.0223C13.8416 12.0157 13.8438 12.0084 13.8438 11.9999C13.8438 11.9914 13.8416 11.984 13.8389 11.9774L13.8281 11.9598L6.21191 4.26453C6.20374 4.25627 6.19821 4.25289 6.19629 4.25183C6.19469 4.251 6.1933 4.25004 6.19238 4.24988C6.18962 4.24945 6.18111 4.24969 6.16895 4.25476C6.15668 4.2599 6.14888 4.26668 6.14551 4.27136C6.14413 4.27335 6.14265 4.27594 6.1416 4.27918C6.14059 4.28237 6.13867 4.29062 6.13867 4.30457V19.6952Z" fill="#161616"/>
</svg>
