<svg width="24" height="24" viewBox="0 0 24 24" fill="none" xmlns="http://www.w3.org/2000/svg">
<path d="M7.35369 10.4638L4.73846 13.0791C4.42066 13.397 4.42071 13.9124 4.73846 14.2304L10.2697 19.7617C10.5877 20.0793 11.1032 20.0794 11.4211 19.7617L14.0363 17.1464L15.0969 18.207L12.4816 20.8222C11.5779 21.7258 10.1129 21.7257 9.20916 20.8222L3.67791 15.291C2.77438 14.3872 2.77433 12.9223 3.67791 12.0185L6.29314 9.40328L7.35369 10.4638Z" fill="#161616"/>
<path d="M16.1857 7.65426C16.5638 7.6945 16.8576 8.01593 16.8556 8.40426C16.8536 8.79266 16.5564 9.11011 16.1779 9.14645L16.1017 9.15035H16.0959C15.6817 9.1482 15.3477 8.81062 15.3498 8.39645C15.352 7.98234 15.6896 7.64826 16.1037 7.65035H16.1096L16.1857 7.65426Z" fill="#161616"/>
<path fill-rule="evenodd" clip-rule="evenodd" d="M13.8322 3.0068L18.9679 3.40231C20.106 3.48992 21.0103 4.39409 21.0978 5.53219L21.4933 10.6679C21.545 11.3413 21.3 12.0038 20.8224 12.4814L17.1818 16.1211L20.7804 19.7197L19.7199 20.7802L3.7199 4.78024L4.78045 3.71969L8.37811 7.31735L12.0187 3.6777C12.4964 3.20017 13.1588 2.95509 13.8322 3.0068ZM13.7179 4.50192C13.481 4.48369 13.2474 4.57027 13.0793 4.73825L9.43865 8.37789L16.1213 15.0605L19.7619 11.4209C19.9298 11.2528 20.0164 11.0191 19.9982 10.7822L19.6027 5.64645C19.5717 5.24639 19.2537 4.92849 18.8537 4.89742L13.7179 4.50192Z" fill="#161616"/>
</svg>
