<svg width="24" height="24" viewBox="0 0 24 24" fill="none" xmlns="http://www.w3.org/2000/svg">
<path d="M9.69629 4.5V6H8.00879V18H9.69629V19.5H4.82129V18H6.50879V16.125H4.44629C3.41076 16.125 2.57129 15.2855 2.57129 14.25V9.75C2.57129 8.71447 3.41076 7.875 4.44629 7.875H6.50879V6H4.82129V4.5H9.69629ZM20.5713 14.25V9.75C20.5713 9.54289 20.4034 9.375 20.1963 9.375H10.4463V7.875H20.1963C21.2318 7.875 22.0713 8.71447 22.0713 9.75V14.25C22.0713 15.2855 21.2318 16.125 20.1963 16.125H10.4463V14.625H20.1963C20.4034 14.625 20.5713 14.4571 20.5713 14.25ZM4.07129 14.25C4.07129 14.4571 4.23918 14.625 4.44629 14.625H6.50879V9.375H4.44629C4.23918 9.375 4.07129 9.54289 4.07129 9.75V14.25Z" fill="#161616"/>
</svg>
