<svg width="24" height="24" viewBox="0 0 24 24" fill="none" xmlns="http://www.w3.org/2000/svg">
<path d="M21.0713 12.0002C21.0713 9.26643 18.8549 7.05005 16.1211 7.05005H8.52148C5.78768 7.05005 3.57129 9.26643 3.57129 12.0002C3.57139 14.734 5.78774 16.9504 8.52148 16.9504H16.1211C18.8548 16.9504 21.0712 14.734 21.0713 12.0002ZM18.1982 12.0002C18.1982 10.8404 17.2575 9.89966 16.0977 9.89966C14.9381 9.8999 13.998 10.8406 13.998 12.0002C13.9982 13.1598 14.9381 14.0996 16.0977 14.0999C17.2574 14.0999 18.1981 13.16 18.1982 12.0002ZM19.6982 12.0002C19.6981 13.9884 18.0858 15.5999 16.0977 15.5999C14.1097 15.5996 12.4982 13.9882 12.498 12.0002C12.498 10.0122 14.1096 8.3999 16.0977 8.39966C18.0859 8.39966 19.6982 10.012 19.6982 12.0002ZM22.5713 12.0002C22.5712 15.5624 19.6833 18.4504 16.1211 18.4504H8.52148C4.95931 18.4504 2.07139 15.5624 2.07129 12.0002C2.07129 8.43801 4.95925 5.55005 8.52148 5.55005H16.1211C19.6833 5.55005 22.5713 8.43801 22.5713 12.0002Z" fill="#161616"/>
</svg>
