<svg width="24" height="24" viewBox="0 0 24 24" fill="none" xmlns="http://www.w3.org/2000/svg">
<path d="M5.72227 4.5L5.72227 3L18.2778 3L18.2778 4.5L5.72227 4.5ZM5.72227 19.5L18.2778 19.5L18.2778 3C19.0545 3 19.6932 3.59028 19.77 4.34668L19.7778 4.5L19.7778 19.5C19.7778 20.3284 19.1063 21 18.2778 21L5.72227 21L5.56895 20.9922C4.8126 20.9153 4.22228 20.2766 4.22228 19.5L4.22228 4.5L4.23009 4.34668C4.30176 3.64072 4.86301 3.07954 5.56895 3.00781L5.72227 3L5.72227 19.5Z" fill="#161616"/>
<path d="M11.1005 16.9418C11.1005 16.4447 11.5034 16.0418 12.0005 16.0418C12.4975 16.0418 12.9005 16.4447 12.9005 16.9418C12.9005 17.4389 12.4975 17.8418 12.0005 17.8418C11.5034 17.8418 11.1005 17.4389 11.1005 16.9418Z" fill="#161616"/>
</svg>
