<svg width="24" height="24" viewBox="0 0 24 24" fill="none" xmlns="http://www.w3.org/2000/svg">
<path d="M13.582 2.7568L18.7177 3.15231C19.8559 3.23986 20.76 4.14404 20.8476 5.28219L21.2431 10.4179C21.2948 11.0914 21.0497 11.7538 20.5722 12.2314L12.2314 20.5722C11.3276 21.4758 9.86269 21.4758 8.95892 20.5722L3.42767 15.041C2.52414 14.1372 2.52409 12.6723 3.42767 11.7685L11.7685 3.4277L11.956 3.25973C12.412 2.8936 12.9927 2.71155 13.582 2.7568ZM13.4677 4.25192C13.2308 4.23369 12.9971 4.32025 12.829 4.48824L4.48821 12.8291C4.17042 13.147 4.17047 13.6624 4.48821 13.9804L10.0195 19.5117C10.3375 19.8294 10.8529 19.8295 11.1708 19.5117L19.5117 11.1709C19.6796 11.0028 19.7662 10.7691 19.748 10.5322L19.3525 5.39645C19.3215 4.99634 19.0036 4.67843 18.6034 4.64742L13.4677 4.25192ZM15.8583 7.40035L15.9355 7.40524C16.3134 7.44558 16.6073 7.76602 16.6054 8.15426C16.6034 8.54267 16.3062 8.86105 15.9277 8.89742L15.8515 8.90035H15.8456C15.4314 8.89826 15.0975 8.56065 15.0995 8.14645C15.1018 7.73239 15.4394 7.39826 15.8534 7.40035H15.8583Z" fill="#161616"/>
</svg>
