<svg width="24" height="24" viewBox="0 0 24 24" fill="none" xmlns="http://www.w3.org/2000/svg">
<path d="M21 10.25V11.75H15V10.25H21ZM21 6.24996V7.74996H15V6.24996H21ZM21 2.24996V3.74996H15V2.24996H21Z" fill="#161616"/>
<path fill-rule="evenodd" clip-rule="evenodd" d="M4.99974 4.74988C4.99974 2.95495 6.45482 1.49988 8.24974 1.49988C10.0447 1.49988 11.4997 2.95495 11.4997 4.74988V13.1266C12.7167 14.087 13.4997 15.5769 13.4997 17.2499C13.4997 20.1494 11.1492 22.4999 8.24974 22.4999C5.35025 22.4999 2.99974 20.1494 2.99974 17.2499C2.99974 15.5769 3.78282 14.087 4.99974 13.1266V4.74988ZM8.24974 2.99988C7.28324 2.99988 6.49974 3.78338 6.49974 4.74988V13.5077C6.49974 13.7579 6.37491 13.9917 6.16694 14.1309C5.16006 14.8049 4.49974 15.9504 4.49974 17.2499C4.49974 19.3209 6.17867 20.9999 8.24974 20.9999C10.3208 20.9999 11.9997 19.3209 11.9997 17.2499C11.9997 15.9504 11.3394 14.8049 10.3325 14.1309C10.1246 13.9917 9.99974 13.7579 9.99974 13.5077V4.74988C9.99974 3.78338 9.21624 2.99988 8.24974 2.99988ZM8.24986 16.2435C7.69643 16.2435 7.24779 16.6922 7.24779 17.2456C7.24779 17.799 7.69643 18.2477 8.24986 18.2477C8.80329 18.2477 9.25194 17.799 9.25194 17.2456C9.25194 16.6922 8.80329 16.2435 8.24986 16.2435ZM5.74779 17.2456C5.74779 15.8637 6.86801 14.7435 8.24986 14.7435C9.63172 14.7435 10.7519 15.8637 10.7519 17.2456C10.7519 18.6275 9.63172 19.7477 8.24986 19.7477C6.86801 19.7477 5.74779 18.6275 5.74779 17.2456Z" fill="#161616"/>
</svg>
