<svg width="24" height="24" viewBox="0 0 24 24" fill="none" xmlns="http://www.w3.org/2000/svg">
<path d="M20.627 5.75V7.25H18.6787C18.6855 7.29781 18.6914 7.34592 18.6943 7.39453L18.6963 7.57129L18.2646 18.5293C18.2497 19.9945 17.1142 21.2499 15.627 21.25H9.01562C7.52797 21.25 6.39241 19.994 6.37793 18.5283L6.37695 18.5293L5.94629 7.57129C5.94202 7.46275 5.94895 7.35529 5.96387 7.25H4.01562V5.75H20.627ZM7.5791 7.26465C7.513 7.29459 7.43997 7.37212 7.44531 7.51172L7.87598 18.4707L7.87695 18.4854V18.5C7.87695 19.2313 8.42645 19.75 9.01562 19.75H15.627C16.2161 19.7499 16.7656 19.2312 16.7656 18.5V18.4854L16.7666 18.4707L17.1973 7.51172L17.1943 7.44727C17.179 7.34776 17.1186 7.28967 17.0635 7.26465L17.0029 7.25H7.63867L7.5791 7.26465ZM15.9043 2.75V4.25H8.73828V2.75H15.9043Z" fill="#161616"/>
</svg>
