<svg width="24" height="24" viewBox="0 0 24 24" fill="none" xmlns="http://www.w3.org/2000/svg">
<path d="M6.9873 17.7109C6.9873 17.6019 6.89807 17.5127 6.78906 17.5127H3.94727C3.83831 17.5128 3.75 17.602 3.75 17.7109V20.5527C3.75006 20.6617 3.83834 20.7499 3.94727 20.75H6.78906C6.89803 20.75 6.98725 20.6617 6.9873 20.5527V17.7109ZM20.25 17.7109C20.25 17.602 20.1617 17.5128 20.0527 17.5127H17.2109C17.1019 17.5127 17.0127 17.6019 17.0127 17.7109V20.5527C17.0128 20.6617 17.102 20.75 17.2109 20.75H20.0527C20.1617 20.7499 20.2499 20.6617 20.25 20.5527V17.7109ZM15.5127 6.61816H8.4873V7.28906C8.4873 8.22649 7.72649 8.9873 6.78906 8.9873H6.11816V16.0127H6.78906C7.72649 16.0127 8.4873 16.7735 8.4873 17.7109V18.3818H15.5127V17.7109C15.5127 16.7735 16.2735 16.0127 17.2109 16.0127H17.8818V8.9873H17.2109C16.2735 8.9873 15.5127 8.22649 15.5127 7.28906V6.61816ZM6.9873 4.44727C6.98725 4.33831 6.89803 4.25 6.78906 4.25H3.94727C3.83834 4.25006 3.75006 4.33834 3.75 4.44727V7.28906L3.75391 7.3291C3.77224 7.41909 3.85188 7.48726 3.94727 7.4873H6.78906C6.89807 7.4873 6.9873 7.39807 6.9873 7.28906V4.44727ZM20.25 4.44727C20.2499 4.33834 20.1617 4.25006 20.0527 4.25H17.2109C17.102 4.25 17.0128 4.33831 17.0127 4.44727V7.28906C17.0127 7.39807 17.1019 7.4873 17.2109 7.4873H20.0527C20.1617 7.48725 20.25 7.39803 20.25 7.28906V4.44727ZM21.75 7.28906C21.75 8.22646 20.9901 8.98725 20.0527 8.9873H19.3818V16.0127H20.0527C20.9901 16.0128 21.75 16.7735 21.75 17.7109V20.5527C21.7499 21.4901 20.9901 22.2499 20.0527 22.25H17.2109C16.2735 22.25 15.5128 21.4901 15.5127 20.5527V19.8818H8.4873V20.5527C8.48725 21.4901 7.72646 22.25 6.78906 22.25H3.94727C3.00992 22.2499 2.25006 21.4901 2.25 20.5527V17.7109C2.25 16.7735 3.00988 16.0128 3.94727 16.0127H4.61816V8.9873H3.94727C3.06843 8.98725 2.34565 8.31883 2.25879 7.46289L2.25 7.28906V4.44727C2.25006 3.50992 3.00992 2.75006 3.94727 2.75H6.78906C7.72646 2.75 8.48725 3.50988 8.4873 4.44727V5.11816H15.5127V4.44727C15.5128 3.50988 16.2735 2.75 17.2109 2.75H20.0527C20.9901 2.75006 21.7499 3.50992 21.75 4.44727V7.28906Z" fill="#161616"/>
</svg>
