<svg width="24" height="24" viewBox="0 0 24 24" fill="none" xmlns="http://www.w3.org/2000/svg">
<path d="M18 15C19.6569 15 21 16.3431 21 18C21 19.6569 19.6569 21 18 21C16.3431 21 15 19.6569 15 18C15 16.3431 16.3431 15 18 15ZM18 16.5C17.1716 16.5 16.5 17.1716 16.5 18C16.5 18.8284 17.1716 19.5 18 19.5C18.8284 19.5 19.5 18.8284 19.5 18C19.5 17.1716 18.8284 16.5 18 16.5ZM16 6.25C18.0711 6.25 19.75 7.92893 19.75 10C19.75 12.0711 18.0711 13.75 16 13.75H9.5C8.5335 13.75 7.75 14.5335 7.75 15.5C7.75 16.4665 8.5335 17.25 9.5 17.25H13.9951V18.75H9.5C7.70507 18.75 6.25 17.2949 6.25 15.5C6.25 13.7051 7.70507 12.25 9.5 12.25H16C17.2426 12.25 18.25 11.2426 18.25 10C18.25 8.75736 17.2426 7.75 16 7.75H11.9971V6.25H16ZM7 3C9.209 3 10.9998 4.69332 11 6.78223C11 8.37793 9.39799 10.3107 8.22168 11.5146L8.08984 11.6367C7.45391 12.1688 6.54608 12.1688 5.91016 11.6367L5.77832 11.5146C4.60201 10.3107 3 8.37793 3 6.78223C3.00022 4.69333 4.791 3 7 3ZM7 4.5C5.53937 4.5 4.50022 5.5996 4.5 6.78223C4.5 7.13179 4.69994 7.70896 5.20117 8.47168C5.67461 9.19209 6.29634 9.89851 6.85059 10.4658C6.90399 10.5205 6.95695 10.5361 7 10.5361C7.04305 10.5361 7.09601 10.5205 7.14941 10.4658C7.70366 9.89851 8.32539 9.19209 8.79883 8.47168C9.30006 7.70896 9.5 7.13179 9.5 6.78223C9.49978 5.59959 8.46063 4.5 7 4.5ZM7 6.04395C7.4142 6.04395 7.74998 6.37975 7.75 6.79395V6.86621C7.75 7.28042 7.41421 7.61621 7 7.61621C6.58579 7.61621 6.25 7.28042 6.25 6.86621V6.79395C6.25002 6.37975 6.5858 6.04395 7 6.04395Z" fill="#161616"/>
</svg>
