<svg width="24" height="24" viewBox="0 0 24 24" fill="none" xmlns="http://www.w3.org/2000/svg">
<path fill-rule="evenodd" clip-rule="evenodd" d="M5.85009 3.1499H12.7499C13.2285 3.14989 13.6324 3.14988 13.9633 3.17692C14.3098 3.20523 14.6418 3.26689 14.9577 3.42784C15.4375 3.67231 15.8276 4.06241 16.0721 4.54223C16.233 4.8581 16.2947 5.19006 16.323 5.53659C16.35 5.8675 16.35 6.27141 16.35 6.74997V7.6499H17.7035C17.7182 7.6499 17.733 7.64987 17.748 7.64984C17.922 7.64949 18.1191 7.64908 18.3124 7.69549C18.4808 7.73591 18.6417 7.80258 18.7893 7.89305C18.9588 7.99693 19.0979 8.1366 19.2207 8.25988C19.2313 8.2705 19.2418 8.281 19.2521 8.29134L21.1086 10.1478C21.1189 10.1582 21.1294 10.1686 21.14 10.1792C21.2633 10.302 21.403 10.4411 21.5069 10.6106C21.5973 10.7582 21.664 10.9191 21.7044 11.0875C21.7508 11.2808 21.7504 11.4779 21.7501 11.6519C21.75 11.6669 21.75 11.6817 21.75 11.6964V14.1853C21.75 14.4154 21.75 14.631 21.7352 14.8121C21.7192 15.0086 21.6821 15.2294 21.5702 15.449C21.412 15.7595 21.1596 16.0119 20.8491 16.1701C20.6295 16.282 20.4086 16.3191 20.2122 16.3352C20.0311 16.3499 19.8155 16.3499 19.5854 16.3499L19.5487 16.3499C19.8039 16.7912 19.95 17.3035 19.95 17.8499C19.95 19.5068 18.6069 20.8499 16.95 20.8499C15.2931 20.8499 13.95 19.5068 13.95 17.8499C13.95 17.3035 14.0961 16.7912 14.3513 16.3499H9.64865C9.90391 16.7912 10.05 17.3035 10.05 17.8499C10.05 19.5068 8.70686 20.8499 7.05 20.8499C5.39315 20.8499 4.05 19.5068 4.05 17.8499C4.05 17.2857 4.20575 16.7579 4.4766 16.3071C4.18763 16.2731 3.90923 16.208 3.64233 16.072C3.16251 15.8275 2.77241 15.4374 2.52793 14.9576C2.36699 14.6417 2.30533 14.3097 2.27702 13.9632C2.24998 13.6323 2.24999 13.2284 2.25 12.7498V6.74999C2.24999 6.27142 2.24998 5.8675 2.27702 5.53659C2.30533 5.19006 2.36699 4.8581 2.52793 4.54223C2.77241 4.06241 3.16251 3.67231 3.64233 3.42784C3.9582 3.26689 4.29016 3.20523 4.63669 3.17692C4.9676 3.14988 5.37152 3.14989 5.85009 3.1499ZM7.05 16.3499C6.22157 16.3499 5.55 17.0215 5.55 17.8499C5.55 18.6783 6.22157 19.3499 7.05 19.3499C7.87843 19.3499 8.55 18.6783 8.55 17.8499C8.55 17.0215 7.87843 16.3499 7.05 16.3499ZM14.85 14.8499V6.7799C14.85 6.26348 14.8494 5.92127 14.828 5.65874C14.8072 5.40497 14.7708 5.29238 14.7356 5.22321C14.6349 5.02564 14.4743 4.86501 14.2767 4.76435C14.2075 4.7291 14.0949 4.69267 13.8412 4.67194C13.5786 4.65049 13.2364 4.6499 12.72 4.6499H5.88C5.36358 4.6499 5.02137 4.65049 4.75884 4.67194C4.50507 4.69267 4.39248 4.7291 4.32331 4.76435C4.12574 4.86501 3.96511 5.02564 3.86444 5.22321C3.8292 5.29238 3.79277 5.40497 3.77203 5.65874C3.75058 5.92127 3.75 6.26348 3.75 6.7799V12.7199C3.75 13.2363 3.75058 13.5785 3.77203 13.8411C3.79277 14.0948 3.8292 14.2074 3.86444 14.2766C3.96511 14.4742 4.12574 14.6348 4.32331 14.7355C4.39248 14.7707 4.50507 14.8071 4.75884 14.8279C5.02137 14.8493 5.36358 14.8499 5.88 14.8499H14.85ZM16.35 9.1499V14.8499H19.56C19.8244 14.8499 19.9776 14.8493 20.09 14.8401C20.1396 14.8361 20.1658 14.8313 20.1767 14.8288C20.1982 14.816 20.2161 14.7981 20.2289 14.7766C20.2313 14.7657 20.2362 14.7395 20.2402 14.6899C20.2494 14.5775 20.25 14.4243 20.25 14.1599V11.6964C20.25 11.5798 20.2498 11.517 20.2477 11.47C20.2467 11.4497 20.2457 11.439 20.2451 11.4348C20.2417 11.4215 20.2364 11.4087 20.2294 11.3969C20.2268 11.3935 20.22 11.3852 20.2063 11.3702C20.1746 11.3354 20.1303 11.2909 20.0479 11.2085L18.1914 9.352C18.109 9.26956 18.0645 9.22528 18.0297 9.1936C18.0147 9.17986 18.0064 9.1731 18.003 9.17049C17.9912 9.16353 17.9784 9.15824 17.9651 9.15477C17.9609 9.15425 17.9502 9.15316 17.9299 9.15223C17.8829 9.15008 17.8201 9.1499 17.7035 9.1499H16.35ZM16.95 16.3499C16.1216 16.3499 15.45 17.0215 15.45 17.8499C15.45 18.6783 16.1216 19.3499 16.95 19.3499C17.7784 19.3499 18.45 18.6783 18.45 17.8499C18.45 17.0215 17.7784 16.3499 16.95 16.3499Z" fill="#161616"/>
</svg>
