<svg width="24" height="24" viewBox="0 0 24 24" fill="none" xmlns="http://www.w3.org/2000/svg">
<path fill-rule="evenodd" clip-rule="evenodd" d="M8.75 4.75C8.75 2.95507 10.2051 1.5 12 1.5C13.7949 1.5 15.25 2.95507 15.25 4.75V13.1267C16.4669 14.0871 17.25 15.577 17.25 17.25C17.25 20.1495 14.8995 22.5 12 22.5C9.1005 22.5 6.75 20.1495 6.75 17.25C6.75 15.577 7.53308 14.0871 8.75 13.1267V4.75ZM12 3C11.0335 3 10.25 3.7835 10.25 4.75V13.5078C10.25 13.758 10.1252 13.9918 9.91719 14.131C8.91032 14.805 8.25 15.9505 8.25 17.25C8.25 19.3211 9.92893 21 12 21C14.0711 21 15.75 19.3211 15.75 17.25C15.75 15.9505 15.0897 14.805 14.0828 14.131C13.8748 13.9918 13.75 13.758 13.75 13.5078V4.75C13.75 3.7835 12.9665 3 12 3ZM12.0001 16.2437C11.4467 16.2437 10.998 16.6923 10.998 17.2457C10.998 17.7992 11.4467 18.2478 12.0001 18.2478C12.5536 18.2478 13.0022 17.7992 13.0022 17.2457C13.0022 16.6923 12.5536 16.2437 12.0001 16.2437ZM9.49805 17.2457C9.49805 15.8639 10.6183 14.7437 12.0001 14.7437C13.382 14.7437 14.5022 15.8639 14.5022 17.2457C14.5022 18.6276 13.382 19.7478 12.0001 19.7478C10.6183 19.7478 9.49805 18.6276 9.49805 17.2457Z" fill="#161616"/>
</svg>
