<svg width="24" height="24" viewBox="0 0 24 24" fill="none" xmlns="http://www.w3.org/2000/svg">
<path d="M11.2012 8.29096C11.5634 7.70318 12.4366 7.70318 12.7988 8.29096L12.8682 8.42572L13.6719 10.3271L15.5742 11.1318L15.709 11.2011C16.2968 11.5634 16.2968 12.4365 15.709 12.7988L15.5742 12.8691L13.6719 13.6718L12.8682 15.5742C12.5638 16.2938 11.5893 16.3386 11.2012 15.7089L11.1318 15.5742L10.3271 13.6718L8.42578 12.8691C7.65791 12.5447 7.65814 11.4564 8.42578 11.1318L10.3271 10.3271L11.1318 8.42572L11.2012 8.29096ZM11.4688 10.9677C11.3851 11.1655 11.237 11.3282 11.0498 11.4296L10.9678 11.4687L9.70996 11.9999L10.9678 12.5312L11.0498 12.5703C11.2105 12.6573 11.3426 12.7894 11.4297 12.9501L11.4688 13.0322L12 14.289L12.5312 13.0322L12.5703 12.9501C12.6718 12.7629 12.8345 12.6149 13.0322 12.5312L14.2891 11.9999L13.0322 11.4687C12.8345 11.385 12.6718 11.237 12.5703 11.0497L12.5312 10.9677L12 9.7099L11.4688 10.9677Z" fill="#161616"/>
<path d="M19.2959 9.05781L16.8467 10.5891L16.4482 9.95331L16.0508 9.31757L18.8633 7.55878C18.7005 7.35049 18.4969 7.17221 18.2588 7.03827L12.793 3.96406C12.2123 3.63746 11.5117 3.61668 10.916 3.90253L10.7988 3.96406L5.33301 7.03827C5.09414 7.17264 4.88866 7.35059 4.72559 7.55976L7.52734 9.31855L7.12793 9.95331L6.72949 10.5891L4.2959 9.06073V14.8351C4.2959 15.5701 4.69243 16.2483 5.33301 16.6086L10.7988 19.6828C10.879 19.7279 10.9617 19.7666 11.0459 19.8V17.2619H12.5459V19.8C12.6301 19.7666 12.7128 19.7279 12.793 19.6828L18.2588 16.6086C18.8994 16.2483 19.2959 15.5701 19.2959 14.8351V9.05781ZM20.7959 14.8351C20.7959 16.112 20.107 17.2902 18.9941 17.9162L13.5283 20.9904C12.4526 21.5954 11.1392 21.5954 10.0635 20.9904L4.59766 17.9162C3.48476 17.2902 2.7959 16.112 2.7959 14.8351V8.81073C2.79595 8.3793 2.87634 7.95985 3.02344 7.56855C3.02917 7.55248 3.0351 7.5365 3.04199 7.5207C3.33488 6.77463 3.87631 6.13641 4.59766 5.73066L10.0635 2.65644C11.1393 2.05137 12.4525 2.05137 13.5283 2.65644L18.9941 5.73066C19.7152 6.13626 20.2568 6.77402 20.5498 7.51972C20.5576 7.53742 20.564 7.5554 20.5703 7.57343C20.7162 7.96334 20.7959 8.38111 20.7959 8.81073V14.8351Z" fill="#161616"/>
</svg>
