<svg width="24" height="24" viewBox="0 0 24 24" fill="none" xmlns="http://www.w3.org/2000/svg">
<path d="M17.9688 5.57666C17.9688 5.39936 17.8248 5.25537 17.6475 5.25537H13.2939V7.39795H11.7939V5.25537H9.92676V3.75537H17.6475C18.6532 3.75537 19.4688 4.57093 19.4688 5.57666V8.34229H17.9688V5.57666ZM5.17871 5.57666C5.17871 5.10194 5.36132 4.66878 5.6582 4.34521L4.82812 3.39111L4.33496 2.82568L5.4668 1.84033L5.95898 2.40674L20.9111 19.5728L19.7793 20.5581L13.2939 13.1108V18.7495H16.8535V20.2495H8.39258V18.7495H11.7939V11.3882L6.68945 5.52783H6.68457C6.68216 5.54378 6.67871 5.55999 6.67871 5.57666V7.90186H5.17871V5.57666Z" fill="#161616"/>
</svg>
