<svg width="100%" height="100%" overflow="visible" style="display: block;" viewBox="0 0 14 28" fill="none" xmlns="http://www.w3.org/2000/svg">
<path id="Vector (Stroke)" fill-rule="evenodd" clip-rule="evenodd" d="M2.66667 4.33333C2.66667 1.9401 4.60677 0 7 0C9.39323 0 11.3333 1.9401 11.3333 4.33333V15.5022C12.9559 16.7829 14 18.7693 14 21C14 24.866 10.866 28 7 28C3.13401 28 0 24.866 0 21C0 18.7693 1.0441 16.7829 2.66667 15.5022V4.33333ZM7 2C5.71134 2 4.66667 3.04467 4.66667 4.33333V16.0104C4.66667 16.3441 4.50022 16.6558 4.22293 16.8414C2.88042 17.74 2 19.2674 2 21C2 23.7614 4.23858 26 7 26C9.76142 26 12 23.7614 12 21C12 19.2674 11.1196 17.74 9.77707 16.8414C9.49978 16.6558 9.33333 16.3441 9.33333 16.0104V4.33333C9.33333 3.04467 8.28866 2 7 2ZM7.00016 19.6582C6.26226 19.6582 5.66406 20.2564 5.66406 20.9943C5.66406 21.7322 6.26226 22.3304 7.00016 22.3304C7.73807 22.3304 8.33626 21.7322 8.33626 20.9943C8.33626 20.2564 7.73807 19.6582 7.00016 19.6582ZM3.66406 20.9943C3.66406 19.1518 5.15769 17.6582 7.00016 17.6582C8.84264 17.6582 10.3363 19.1518 10.3363 20.9943C10.3363 22.8368 8.84264 24.3304 7.00016 24.3304C5.15769 24.3304 3.66406 22.8368 3.66406 20.9943Z" fill="var(--fill-0, #161616)"/>
</svg>
