<svg width="24" height="24" viewBox="0 0 24 24" fill="none" xmlns="http://www.w3.org/2000/svg">
<path fill-rule="evenodd" clip-rule="evenodd" d="M7.51869 4.25C6.46859 4.25 5.5724 5.00918 5.39977 6.045L4.24624 12.9662C4.12615 13.6867 4.68179 14.3426 5.41226 14.3426H9.89391C10.1186 14.3426 10.3315 14.4433 10.4739 14.6171C10.6164 14.7909 10.6734 15.0194 10.6293 15.2397L9.96544 18.5589C9.96543 18.5589 9.96544 18.5589 9.96544 18.5589C9.86697 19.0512 10.1505 19.5399 10.6269 19.6986C11.0969 19.8553 11.6106 19.6425 11.8322 19.1994L15.0193 12.8251C15.1464 12.571 15.4061 12.4105 15.6901 12.4105H15.9062V5.83349L14.3155 4.77303C13.8039 4.43199 13.2029 4.25 12.5881 4.25H7.51869ZM15.9062 4.03071L15.1476 3.52495C14.3896 3.01964 13.499 2.75 12.5881 2.75H7.51869C5.73533 2.75 4.21336 4.0393 3.92018 5.7984L2.76665 12.7196C2.49418 14.3544 3.75488 15.8426 5.41226 15.8426H8.97904L8.49457 18.2647C8.24774 19.4988 8.95852 20.7237 10.1525 21.1217C11.3307 21.5144 12.6184 20.981 13.1738 19.8702L15.9062 14.4055V15.0926C15.9062 15.5068 16.242 15.8426 16.6562 15.8426H19.5543C20.5021 15.8426 21.2704 15.0743 21.2704 14.1266V4.46605C21.2704 3.5183 20.5021 2.75 19.5543 2.75H16.6562C16.242 2.75 15.9062 3.08579 15.9062 3.5V4.03071ZM17.4062 5.44372C17.4063 5.43643 17.4063 5.42914 17.4062 5.42186V4.25H19.5543C19.6737 4.25 19.7704 4.34673 19.7704 4.46605V14.1266C19.7704 14.2459 19.6737 14.3426 19.5543 14.3426H17.4062V5.44372Z" fill="#161616"/>
</svg>
