<svg width="24" height="24" viewBox="0 0 24 24" fill="none" xmlns="http://www.w3.org/2000/svg">
<path d="M7.24938 16.7532H5.99938C5.99234 16.7532 5.98493 16.7524 5.97789 16.7522L5.80211 16.7473C5.79465 16.7471 5.7871 16.7468 5.77965 16.7463C5.23277 16.7143 4.69921 16.5632 4.21715 16.303C3.73527 16.0428 3.31637 15.6799 2.98961 15.2405C2.66282 14.8008 2.43586 14.2946 2.32555 13.758C2.2455 13.3686 2.22878 12.9696 2.27379 12.5764C1.97368 12.2585 1.72993 11.8902 1.55602 11.4866C1.32269 10.945 1.22115 10.3554 1.25817 9.76684C1.29522 9.17836 1.47057 8.6069 1.76989 8.09887C1.9573 7.78081 2.18958 7.49291 2.45934 7.24437C2.24096 6.62161 2.19021 5.94782 2.31676 5.29223C2.48517 4.41998 2.95816 3.63566 3.65074 3.07934C4.34333 2.52313 5.21102 2.23046 6.09899 2.25414C6.77739 2.27226 7.43301 2.47589 8.00035 2.83422C8.5674 2.47692 9.22217 2.2739 9.89977 2.25609C10.7873 2.23287 11.6549 2.52524 12.347 3.08129C13.0392 3.6374 13.5115 4.42145 13.68 5.2932C13.8066 5.94795 13.755 6.62023 13.5375 7.24242C13.808 7.49128 14.041 7.78015 14.2289 8.09887C14.5282 8.60684 14.7035 9.17838 14.7406 9.76684C14.7777 10.3552 14.6759 10.9441 14.4427 11.4856C14.2689 11.8892 14.025 12.2575 13.725 12.5754C13.7722 12.9872 13.7513 13.405 13.6615 13.8118C13.5393 14.3647 13.2938 14.883 12.9427 15.3274C12.5917 15.7717 12.1448 16.1313 11.6351 16.3782C11.1253 16.625 10.5658 16.7533 9.99938 16.7532H8.74938V21.7473H7.24938V16.7532ZM14.2494 18.7473H12.2494V17.2473H20.1879L17.4691 14.5286C17.2853 14.3448 17.2102 14.0784 17.2699 13.8254C17.3296 13.5726 17.5157 13.3686 17.7621 13.2864L19.6107 12.6702L16.4691 9.52855C16.2986 9.35808 16.2205 9.11516 16.2591 8.87719C16.2979 8.63939 16.4489 8.43514 16.6644 8.32738L17.7328 7.79223L14.9388 4.9973L15.9994 3.93676L19.5297 7.46703C19.7 7.6374 19.7781 7.87958 19.7396 8.11742C19.701 8.35524 19.5507 8.56033 19.3353 8.6682L18.265 9.20238L21.5297 12.467C21.7135 12.6508 21.7896 12.9172 21.7298 13.1702C21.6701 13.4231 21.4833 13.627 21.2367 13.7092L19.3881 14.3254L22.5297 17.467C22.7441 17.6814 22.8086 18.0042 22.6927 18.2844C22.5767 18.5647 22.3027 18.7473 21.9994 18.7473H15.7494V21.7473H14.2494V18.7473ZM6.05895 3.75414C5.52614 3.73993 5.00576 3.9155 4.5902 4.24926C4.17469 4.58302 3.89049 5.05312 3.78942 5.57641C3.68838 6.09979 3.77697 6.64217 4.03844 7.10668C4.23361 7.45341 4.12368 7.89238 3.78844 8.10668C3.49034 8.29725 3.24148 8.55575 3.06188 8.86059C2.88233 9.16539 2.77744 9.5085 2.75524 9.86156C2.73309 10.2146 2.794 10.568 2.93395 10.8928C3.07395 11.2177 3.28904 11.5053 3.5609 11.7317C3.77958 11.914 3.87591 12.2047 3.80992 12.4817C3.73381 12.8014 3.72912 13.1344 3.79528 13.4563C3.86146 13.7779 3.99688 14.0814 4.19274 14.345C4.38882 14.6087 4.64082 14.8265 4.93004 14.9827C5.21789 15.1381 5.53619 15.2285 5.86266 15.2483L6.02086 15.2532H7.24938V13.3088L4.93883 10.9973L5.99938 9.93676L7.24938 11.1868V7.2473H8.74938V10.1868L9.99938 8.93676L11.0599 9.9973L8.74938 12.3088V12.6868V12.9973V13.3079V15.2532H9.99938C10.3392 15.2532 10.675 15.1757 10.9808 15.0276C11.2867 14.8795 11.5553 14.6644 11.766 14.3977C11.9766 14.1311 12.1243 13.8202 12.1976 13.4885C12.2709 13.1567 12.2675 12.8122 12.1888 12.4817C12.1228 12.2046 12.22 11.914 12.4388 11.7317C12.7106 11.5053 12.9249 11.2177 13.0648 10.8928C13.2047 10.568 13.2657 10.2145 13.2435 9.86156C13.2212 9.50857 13.1164 9.16532 12.9369 8.86059C12.7572 8.55577 12.5075 8.29719 12.2093 8.10668C11.8746 7.89254 11.7649 7.45421 11.9593 7.10766C12.2203 6.64323 12.3085 6.10043 12.2074 5.57738C12.1062 5.05459 11.8227 4.58477 11.4076 4.25121C10.9924 3.91762 10.4722 3.74225 9.93981 3.75609C9.40725 3.77003 8.89666 3.97245 8.49938 4.32738C8.21458 4.58173 7.78391 4.58106 7.49938 4.32641C7.10223 3.971 6.59172 3.76838 6.05895 3.75414Z" fill="#161616"/>
</svg>
