<svg width="24" height="24" viewBox="0 0 24 24" fill="none" xmlns="http://www.w3.org/2000/svg">
<path d="M6.48096 16.4517C6.48096 15.5767 5.77183 14.867 4.89697 14.8667C4.02189 14.8667 3.31201 15.5766 3.31201 16.4517C3.31228 17.3265 4.02206 18.0356 4.89697 18.0356C5.77167 18.0354 6.48069 17.3264 6.48096 16.4517ZM7.98096 16.4517C7.98069 18.1548 6.60009 19.5354 4.89697 19.5356C3.19363 19.5356 1.81228 18.1549 1.81201 16.4517C1.81201 14.7482 3.19347 13.3667 4.89697 13.3667C6.60026 13.367 7.98096 14.7483 7.98096 16.4517Z" fill="#161616"/>
<path d="M13.6772 12.8586C13.6772 11.9837 12.9681 11.2739 12.0933 11.2737C11.2182 11.2737 10.5083 11.9836 10.5083 12.8586C10.5086 13.7335 11.2183 14.4426 12.0933 14.4426H12.8433V15.9426H12.0933C10.3899 15.9426 9.00856 14.5619 9.0083 12.8586C9.0083 11.1551 10.3898 9.77368 12.0933 9.77368C13.7965 9.77395 15.1772 11.1553 15.1772 12.8586V13.6086H13.6772V12.8586Z" fill="#161616"/>
<path d="M17.4409 5.07812C17.4409 4.20321 16.7318 3.49343 15.8569 3.49316C14.9819 3.49316 14.272 4.20304 14.272 5.07812C14.2722 5.95298 14.982 6.66211 15.8569 6.66211C16.7316 6.66185 17.4407 5.95282 17.4409 5.07812ZM18.9409 5.07812C18.9407 6.78125 17.5601 8.16185 15.8569 8.16211C14.1536 8.16211 12.7722 6.78141 12.772 5.07812C12.772 3.37462 14.1534 1.99316 15.8569 1.99316C17.5602 1.99343 18.9409 3.37478 18.9409 5.07812Z" fill="#161616"/>
<path d="M9.68652 13.4848L10.3636 14.8233L7.60205 16.2202L6.92499 14.8817L9.68652 13.4848Z" fill="#161616"/>
<path d="M14.0931 7.27052L15.4508 7.9082L14.0405 10.9109L12.6828 10.2732L14.0931 7.27052Z" fill="#161616"/>
<path d="M17.7368 14.199C19.7412 14.199 21.0589 15.1541 21.854 16.0955C22.2469 16.5606 22.5142 17.0234 22.6841 17.3699C22.7694 17.5438 22.8321 17.6911 22.8735 17.7976C22.8943 17.8509 22.9093 17.8947 22.9204 17.9265C22.926 17.9424 22.9308 17.9556 22.9341 17.9656C22.9357 17.9705 22.9369 17.9749 22.938 17.9783C22.9385 17.9798 22.9396 17.981 22.9399 17.9822V17.9851C22.9365 17.9865 22.8883 18.002 22.2251 18.2097L22.936 18.447L22.9351 18.45C22.9347 18.4511 22.9346 18.4524 22.9341 18.4539C22.9329 18.4572 22.9309 18.4616 22.9292 18.4666C22.9258 18.4763 22.9212 18.4891 22.9155 18.5046C22.904 18.536 22.8881 18.5791 22.8667 18.6316C22.8239 18.7364 22.7597 18.8807 22.6724 19.0515C22.4984 19.3915 22.2263 19.8456 21.8296 20.2996C21.0272 21.2178 19.7076 22.1415 17.7251 22.1091C15.7585 22.077 14.4493 21.1623 13.6489 20.2625C13.2529 19.8172 12.9807 19.375 12.8062 19.0437C12.7186 18.8776 12.654 18.7375 12.6108 18.6355C12.5893 18.5844 12.5727 18.5421 12.561 18.5115C12.5553 18.4964 12.5508 18.4839 12.5474 18.4744C12.5456 18.4695 12.5446 18.465 12.5435 18.4617L12.5405 18.4558L13.2495 18.2097C12.5339 17.9856 12.5336 17.9855 12.5337 17.9851L12.5347 17.9841V17.9822C12.5351 17.981 12.5361 17.9798 12.5366 17.9783C12.5377 17.9749 12.5389 17.9705 12.5405 17.9656C12.5438 17.9556 12.5477 17.9424 12.5532 17.9265C12.5643 17.8947 12.5803 17.851 12.6011 17.7976C12.6425 17.6911 12.7043 17.5438 12.7896 17.3699C12.9595 17.0234 13.2276 16.5608 13.6206 16.0955C14.4157 15.1542 15.7328 14.1991 17.7368 14.199ZM17.7368 15.699C16.2749 15.6991 15.3482 16.3741 14.7661 17.0632C14.4706 17.4131 14.2661 17.7661 14.1362 18.031C14.1066 18.0914 14.0836 18.1479 14.062 18.197C14.083 18.241 14.1052 18.2912 14.1333 18.3445C14.2653 18.5949 14.4721 18.9304 14.77 19.2654C15.3577 19.926 16.2929 20.5853 17.7495 20.6091C19.1898 20.6327 20.1141 19.9824 20.6997 19.3123C20.997 18.972 21.2048 18.6271 21.3374 18.3679C21.3681 18.3079 21.3912 18.2515 21.4136 18.2029C21.3914 18.1523 21.3682 18.0937 21.3374 18.031C21.2075 17.7661 21.003 17.4131 20.7075 17.0632C20.1254 16.3742 19.1987 15.699 17.7368 15.699ZM13.2495 18.2097L12.5405 18.4539L12.4604 18.2214L12.5337 17.9851L13.2495 18.2097ZM23.0132 18.2166L22.937 18.446L22.2251 18.2097L22.9409 17.9861L23.0132 18.2166Z" fill="#161616"/>
<path d="M19.29 18.1545C19.29 19.0122 18.5947 19.7075 17.7371 19.7075C16.8794 19.7075 16.1841 19.0122 16.1841 18.1545C16.1841 17.2969 16.8794 16.6016 17.7371 16.6016C18.5947 16.6016 19.29 17.2969 19.29 18.1545Z" fill="#161616"/>
</svg>
