<svg width="24" height="24" viewBox="0 0 24 24" fill="none" xmlns="http://www.w3.org/2000/svg">
<path d="M6.7002 16.7998L4.91016 18.5898L3.84961 17.5293L5.63965 15.7393L6.7002 16.7998ZM11.2617 7.60254L11.2383 9.10156L10.4883 9.08984C9.85253 9.0796 9.23094 9.28272 8.72363 9.66602C8.21657 10.0493 7.85229 10.5909 7.68848 11.2051C7.52469 11.8193 7.57043 12.4708 7.81934 13.0557C8.03737 13.5677 8.4002 14.0036 8.86035 14.3105L9.0625 14.4336L9.71973 14.7969L8.99316 16.1094L8.33691 15.7461L8.17969 15.6553C7.4052 15.1838 6.79587 14.4806 6.43945 13.6436C6.05934 12.7507 5.98922 11.756 6.23926 10.8184C6.48935 9.8809 7.04524 9.05369 7.81934 8.46875C8.59356 7.88379 9.54149 7.57429 10.5117 7.58984L11.2617 7.60254ZM4.0498 11.1904V12.6904H1.5V11.1904H4.0498ZM6.7002 7.08008L5.63965 8.14062L3.84961 6.35059L4.91016 5.29004L6.7002 7.08008ZM9.75 2.94043H11.25V5.49023H9.75V2.94043Z" fill="#161616"/>
<path fill-rule="evenodd" clip-rule="evenodd" d="M13.9987 4.75C13.9987 2.95507 15.4538 1.5 17.2487 1.5C19.0436 1.5 20.4987 2.95507 20.4987 4.75V13.1267C21.7156 14.0871 22.4987 15.577 22.4987 17.25C22.4987 20.1495 20.1482 22.5 17.2487 22.5C14.3492 22.5 11.9987 20.1495 11.9987 17.25C11.9987 15.577 12.7818 14.0871 13.9987 13.1267V4.75ZM17.2487 3C16.2822 3 15.4987 3.7835 15.4987 4.75V13.5078C15.4987 13.758 15.3739 13.9918 15.1659 14.131C14.159 14.805 13.4987 15.9505 13.4987 17.25C13.4987 19.3211 15.1776 21 17.2487 21C19.3198 21 20.9987 19.3211 20.9987 17.25C20.9987 15.9505 20.3384 14.805 19.3315 14.131C19.1235 13.9918 18.9987 13.758 18.9987 13.5078V4.75C18.9987 3.7835 18.2152 3 17.2487 3ZM17.2488 16.2437C16.6954 16.2437 16.2468 16.6923 16.2468 17.2457C16.2468 17.7992 16.6954 18.2478 17.2488 18.2478C17.8023 18.2478 18.2509 17.7992 18.2509 17.2457C18.2509 16.6923 17.8023 16.2437 17.2488 16.2437ZM14.7468 17.2457C14.7468 15.8639 15.867 14.7437 17.2488 14.7437C18.6307 14.7437 19.7509 15.8639 19.7509 17.2457C19.7509 18.6276 18.6307 19.7478 17.2488 19.7478C15.867 19.7478 14.7468 18.6276 14.7468 17.2457Z" fill="#161616"/>
</svg>
