<svg width="24" height="24" viewBox="0 0 24 24" fill="none" xmlns="http://www.w3.org/2000/svg">
<path fill-rule="evenodd" clip-rule="evenodd" d="M17.25 14.7441C18.6319 14.7441 19.752 15.8642 19.752 17.2461C19.7518 18.6278 18.6317 19.748 17.25 19.748C15.8683 19.748 14.7482 18.6277 14.748 17.2461C14.748 15.8643 15.8682 14.7442 17.25 14.7441ZM17.25 16.2441C16.6966 16.2442 16.248 16.6927 16.248 17.2461C16.2482 17.7993 16.6967 18.248 17.25 18.248C17.8033 18.248 18.2518 17.7994 18.252 17.2461C18.252 16.6927 17.8034 16.2441 17.25 16.2441Z" fill="#161616"/>
<path fill-rule="evenodd" clip-rule="evenodd" d="M17.25 1.5C19.0449 1.5 20.5 2.95507 20.5 4.75V13.127C21.7168 14.0874 22.5 15.5771 22.5 17.25C22.5 20.1495 20.1495 22.5 17.25 22.5C14.3505 22.5 12 20.1495 12 17.25C12 15.5771 12.7832 14.0874 14 13.127V4.75C14 2.95507 15.4551 1.5 17.25 1.5ZM17.25 3C16.2835 3 15.5 3.7835 15.5 4.75V13.5078C15.5 13.7581 15.375 13.9917 15.167 14.1309C14.1601 14.8048 13.5 15.9506 13.5 17.25C13.5 19.3211 15.1789 21 17.25 21C19.3211 21 21 19.3211 21 17.25C21 15.9506 20.3399 14.8048 19.333 14.1309C19.125 13.9917 19 13.7581 19 13.5078V4.75C19 3.7835 18.2165 3 17.25 3Z" fill="#161616"/>
<path d="M9.00391 7.31445L10.8584 5.38184L11.8994 6.38184L9.00391 9.39844V11.0918H11.8955V12.5352H9.00391V14.2275L10.6006 15.8926L9.55957 16.8926L9.06055 16.3721L9.00391 16.3115V19.75H7.56055V16.3115L5.70605 18.2451L4.66504 17.2451L7.56055 14.2275V12.5352H5.99219L3.1084 15.5391L2.06738 14.54L3.99121 12.5352H1.5V11.0918H3.99121L2.06738 9.08691L3.1084 8.08789L5.99219 11.0918H7.56055V9.39844L4.66504 6.38184L5.70605 5.38184L7.56055 7.31445V3.87695H9.00391V7.31445Z" fill="#161616"/>
</svg>
