<svg width="24" height="24" viewBox="0 0 24 24" fill="none" xmlns="http://www.w3.org/2000/svg">
<path d="M11.2501 16.7532H10.0001C9.99308 16.7532 9.98566 16.7524 9.97863 16.7522L9.80284 16.7473C9.79538 16.7471 9.78784 16.7468 9.78038 16.7463C9.2335 16.7143 8.69994 16.5632 8.21788 16.303C7.73601 16.0428 7.31711 15.6799 6.99034 15.2405C6.66355 14.8008 6.43659 14.2946 6.32628 13.758C6.24623 13.3686 6.22951 12.9696 6.27452 12.5764C5.97442 12.2585 5.73066 11.8902 5.55675 11.4866C5.32342 10.945 5.22188 10.3554 5.2589 9.76684C5.29595 9.17835 5.4713 8.60689 5.77062 8.09887C5.95804 7.78081 6.19031 7.49291 6.46007 7.24437C6.24169 6.62161 6.19094 5.94782 6.31749 5.29223C6.48591 4.41998 6.95889 3.63566 7.65148 3.07934C8.34406 2.52313 9.21175 2.23046 10.0997 2.25414C10.7781 2.27226 11.4337 2.47589 12.0011 2.83422C12.5681 2.47692 13.2229 2.2739 13.9005 2.25609C14.788 2.23287 15.6556 2.52524 16.3478 3.08129C17.0399 3.6374 17.5122 4.42145 17.6808 5.2932C17.8074 5.94795 17.7557 6.62023 17.5382 7.24242C17.8087 7.49128 18.0417 7.78015 18.2296 8.09887C18.529 8.60684 18.7042 9.17838 18.7413 9.76684C18.7784 10.3552 18.6766 10.9441 18.4435 11.4856C18.2697 11.8892 18.0257 12.2575 17.7257 12.5754C17.7729 12.9872 17.7521 13.405 17.6622 13.8118C17.54 14.3647 17.2945 14.883 16.9435 15.3274C16.5924 15.7717 16.1455 16.1313 15.6359 16.3782C15.1261 16.625 14.5665 16.7533 14.0001 16.7532H12.7501V21.7473H11.2501V16.7532ZM10.0597 3.75414C9.52687 3.73993 9.00649 3.9155 8.59093 4.24926C8.17542 4.58302 7.89122 5.05312 7.79015 5.57641C7.68912 6.09979 7.7777 6.64217 8.03917 7.10668C8.23434 7.45341 8.12441 7.89238 7.78917 8.10668C7.49107 8.29725 7.24221 8.55575 7.06261 8.86059C6.88307 9.16539 6.77818 9.5085 6.75597 9.86156C6.73382 10.2146 6.79473 10.568 6.93468 10.8928C7.07468 11.2177 7.28977 11.5053 7.56163 11.7317C7.78032 11.914 7.87664 12.2047 7.81066 12.4817C7.73454 12.8014 7.72985 13.1344 7.79601 13.4563C7.86219 13.7779 7.99761 14.0814 8.19347 14.345C8.38956 14.6087 8.64155 14.8265 8.93077 14.9827C9.21862 15.1381 9.53692 15.2285 9.86339 15.2483L10.0216 15.2532H11.2501V13.3088L8.93956 10.9973L10.0001 9.93676L11.2501 11.1868V7.2473H12.7501V10.1868L14.0001 8.93676L15.0607 9.9973L12.7501 12.3088V12.6868V13.0805V13.3079V15.2532H14.0001C14.34 15.2532 14.6757 15.1757 14.9816 15.0276C15.2874 14.8795 15.5561 14.6644 15.7667 14.3977C15.9773 14.1311 16.125 13.8202 16.1984 13.4885C16.2716 13.1567 16.2683 12.8122 16.1896 12.4817C16.1236 12.2046 16.2207 11.914 16.4396 11.7317C16.7113 11.5053 16.9256 11.2177 17.0655 10.8928C17.2054 10.568 17.2665 10.2145 17.2443 9.86156C17.222 9.50857 17.1172 9.16532 16.9376 8.86059C16.7579 8.55576 16.5082 8.29719 16.2101 8.10668C15.8753 7.89254 15.7656 7.45421 15.9601 7.10766C16.2211 6.64324 16.3092 6.10043 16.2081 5.57738C16.1069 5.05459 15.8234 4.58477 15.4083 4.25121C14.9931 3.91762 14.473 3.74225 13.9405 3.75609C13.408 3.77003 12.8974 3.97245 12.5001 4.32738C12.2153 4.58173 11.7846 4.58106 11.5001 4.32641C11.103 3.971 10.5924 3.76838 10.0597 3.75414Z" fill="#161616"/>
</svg>
