<svg width="24" height="24" viewBox="0 0 24 24" fill="none" xmlns="http://www.w3.org/2000/svg">
<path fill-rule="evenodd" clip-rule="evenodd" d="M16.4813 19.75C17.5314 19.75 18.4276 18.9908 18.6002 17.955L19.7538 11.0338C19.8738 10.3133 19.3182 9.6574 18.5877 9.6574L14.1061 9.6574C13.8814 9.6574 13.6685 9.55665 13.5261 9.38288C13.3836 9.20911 13.3266 8.98063 13.3707 8.76029L14.0346 5.44111C14.0346 5.44111 14.0346 5.44112 14.0346 5.44111C14.133 4.94877 13.8495 4.46013 13.3731 4.30136C12.9031 4.14468 12.3894 4.35747 12.1678 4.80062L8.98068 11.1749C8.85364 11.429 8.59394 11.5895 8.30986 11.5895L8.09381 11.5895L8.09381 18.1665L9.6845 19.227C10.1961 19.568 10.7971 19.75 11.4119 19.75L16.4813 19.75ZM8.09381 19.9693L8.85245 20.475C9.61041 20.9804 10.501 21.25 11.4119 21.25L16.4813 21.25C18.2647 21.25 19.7866 19.9607 20.0798 18.2016L21.2334 11.2804C21.5058 9.64561 20.2451 8.1574 18.5877 8.1574L15.021 8.1574L15.5054 5.7353C15.7523 4.50116 15.0415 3.27633 13.8475 2.87833C12.6693 2.4856 11.3816 3.01898 10.8262 4.1298L8.09381 9.59455L8.09381 8.9074C8.09381 8.49318 7.75802 8.1574 7.34381 8.1574L4.44566 8.1574C3.49791 8.1574 2.72961 8.9257 2.72961 9.87345L2.72961 19.5339C2.72961 20.4817 3.49791 21.25 4.44566 21.25L7.34381 21.25C7.75802 21.25 8.09381 20.9142 8.09381 20.5L8.09381 19.9693ZM6.59381 18.5563C6.5937 18.5636 6.5937 18.5709 6.59381 18.5781L6.59381 19.75L4.44566 19.75C4.32634 19.75 4.22961 19.6533 4.22961 19.5339L4.22961 9.87345C4.22961 9.75413 4.32634 9.6574 4.44566 9.6574L6.59381 9.6574L6.59381 18.5563Z" fill="#161616"/>
</svg>
