<svg width="24" height="24" viewBox="0 0 24 24" fill="none" xmlns="http://www.w3.org/2000/svg">
<path d="M2.45001 18.7402V16.8047C2.45006 14.9328 3.96775 13.415 5.83966 13.415H12.8777C13.8079 13.415 14.6518 13.7913 15.2635 14.3975L15.7967 14.9248L14.741 15.9902L14.2078 15.4629C13.8656 15.1237 13.3966 14.915 12.8777 14.915H5.83966C4.79618 14.915 3.95006 15.7612 3.95001 16.8047V18.7402C3.95001 19.2978 4.40218 19.75 4.95978 19.75H12.2166V21.25H4.95978C3.57375 21.25 2.45001 20.1263 2.45001 18.7402ZM12.1277 7.01953C12.1277 5.49027 10.8884 4.25026 9.35919 4.25C7.82977 4.25 6.58966 5.49011 6.58966 7.01953C6.58981 8.54882 7.82987 9.78809 9.35919 9.78809C10.8883 9.78783 12.1276 8.54866 12.1277 7.01953ZM13.6277 7.01953C13.6276 9.37709 11.7167 11.2878 9.35919 11.2881C7.00144 11.2881 5.08981 9.37725 5.08966 7.01953C5.08966 4.66169 7.00135 2.75 9.35919 2.75C11.7168 2.75026 13.6277 4.66185 13.6277 7.01953Z" fill="#161616"/>
<path d="M18.9546 13.2538C19.4297 12.7787 20.2001 12.7787 20.6753 13.2538L21.5484 14.1269C22.0235 14.6021 22.0235 15.3724 21.5484 15.8476L16.9487 20.4472C16.7137 20.6822 16.4143 20.842 16.0884 20.9072L14.4497 21.2353C14.2038 21.2845 13.9493 21.2075 13.772 21.0302C13.5947 20.8529 13.5177 20.5984 13.5669 20.3525L13.895 18.7138C13.9602 18.3879 14.12 18.0884 14.355 17.8535L18.9546 13.2538ZM15.4155 18.914C15.39 18.9395 15.3729 18.9723 15.3657 19.0077L15.2583 19.5429L15.7944 19.4365C15.8299 19.4293 15.8626 19.4122 15.8882 19.3867L19.1382 16.1367L18.6655 15.664L15.4155 18.914ZM19.7261 14.6035L20.1987 15.0761L20.2876 14.9872L19.815 14.5146L19.7261 14.6035Z" fill="#161616"/>
</svg>
