<svg width="24" height="24" viewBox="0 0 24 24" fill="none" xmlns="http://www.w3.org/2000/svg">
<path d="M2.51208 18.1648V16.2292C2.51214 14.3574 4.02983 12.8396 5.90173 12.8396H12.9506V14.3396H5.90173C4.85826 14.3396 4.01214 15.1858 4.01208 16.2292V18.1648C4.01208 18.7224 4.46425 19.1746 5.02185 19.1746H12.3021V20.6746H5.02185C3.63582 20.6746 2.51208 19.5508 2.51208 18.1648ZM12.1898 6.44409C12.1898 4.91483 10.9505 3.67482 9.42126 3.67456C7.89185 3.67456 6.65173 4.91467 6.65173 6.44409C6.65188 7.97338 7.89194 9.21265 9.42126 9.21265C10.9504 9.21239 12.1897 7.97322 12.1898 6.44409ZM13.6898 6.44409C13.6897 8.80165 11.7788 10.7124 9.42126 10.7126C7.06351 10.7126 5.15188 8.80181 5.15173 6.44409C5.15173 4.08625 7.06342 2.17456 9.42126 2.17456C11.7789 2.17482 13.6898 4.08641 13.6898 6.44409Z" fill="#161616"/>
<path d="M19.8541 13.8899L19.3122 14.8176C19.5807 15.0619 19.8178 15.3497 20.0084 15.6799C20.1989 16.0098 20.3296 16.3589 20.4069 16.7131L21.4811 16.7092L21.485 17.4592L21.4879 18.2092L20.4127 18.2131C20.2595 18.9473 19.8795 19.6317 19.3004 20.1526L19.82 21.052L18.5211 21.802L18.0016 20.9026C17.2611 21.1434 16.4785 21.1301 15.7663 20.8958L15.2252 21.8254L13.9293 21.0696L14.4704 20.1399C14.2023 19.8959 13.9654 19.6083 13.775 19.2786C13.5845 18.9485 13.4529 18.5998 13.3756 18.2454L12.3014 18.2502L12.2956 16.7502L13.3698 16.7454C13.5231 16.0115 13.9032 15.3266 14.4821 14.8059L13.9635 13.9075L15.2624 13.1575L15.7809 14.0559C16.5211 13.815 17.3042 13.8278 18.0163 14.0618L18.5583 13.134L19.8541 13.8899ZM17.9499 15.6672C17.3189 15.3 16.5171 15.2728 15.8424 15.6624C15.1678 16.0519 14.7901 16.7595 14.7926 17.4895C14.7938 17.8421 14.8839 18.1994 15.0739 18.5286C15.264 18.8578 15.5288 19.1148 15.8336 19.2922C16.4647 19.6595 17.2664 19.6867 17.9411 19.2971C18.6156 18.9076 18.9933 18.2 18.9909 17.47C18.9896 17.1173 18.8997 16.7592 18.7096 16.4299C18.5195 16.1007 18.2546 15.8446 17.9499 15.6672Z" fill="#161616"/>
</svg>
