<svg width="24" height="24" viewBox="0 0 24 24" fill="none" xmlns="http://www.w3.org/2000/svg">
<path d="M20.25 4.80933C20.25 3.9809 19.5784 3.30933 18.75 3.30933H11.25C10.4216 3.30933 9.75 3.9809 9.75 4.80933V8.55933C9.75 8.75824 9.67093 8.94895 9.53027 9.0896C9.38962 9.23025 9.19891 9.30933 9 9.30933H5.25C4.42157 9.30933 3.75 9.9809 3.75 10.8093V18.3093C3.75 19.1378 4.42157 19.8093 5.25 19.8093H12.75C13.5784 19.8093 14.25 19.1378 14.25 18.3093V14.5593C14.25 14.1451 14.5858 13.8093 15 13.8093H18.75C19.5267 13.8093 20.1654 13.219 20.2422 12.4626L20.25 12.3093V4.80933ZM21.75 12.3093C21.75 13.9662 20.4069 15.3093 18.75 15.3093H15.75V18.3093C15.75 19.9662 14.4069 21.3093 12.75 21.3093H5.25C3.59315 21.3093 2.25 19.9662 2.25 18.3093V10.8093C2.25 9.15247 3.59315 7.80933 5.25 7.80933H8.25V4.80933C8.25 3.15247 9.59315 1.80933 11.25 1.80933H18.75C20.4069 1.80933 21.75 3.15247 21.75 4.80933V12.3093Z" fill="#161616"/>
</svg>
