<svg width="24" height="24" viewBox="0 0 24 24" fill="none" xmlns="http://www.w3.org/2000/svg">
<path d="M3.01465 18.7402V16.8047C3.0147 14.9328 4.53239 13.415 6.4043 13.415H14.9131V14.915H6.4043C5.36082 14.915 4.5147 15.7612 4.51465 16.8047V18.7402C4.51465 19.2978 4.96681 19.75 5.52441 19.75H14.9131V21.25H5.52441C4.13839 21.25 3.01465 20.1263 3.01465 18.7402ZM19.4014 13.0117C19.609 13.0111 19.8079 13.0968 19.9502 13.248L22.375 15.8291L21.2822 16.8564L20.1533 15.6543V19.752H18.6533V15.6719L17.5566 16.8535L16.457 15.833L18.8545 13.252L18.9102 13.1973C19.0455 13.0789 19.2198 13.0123 19.4014 13.0117ZM12.6924 7.01953C12.6924 5.49027 11.453 4.25026 9.92383 4.25C8.39441 4.25 7.1543 5.49011 7.1543 7.01953C7.15445 8.54882 8.3945 9.78809 9.92383 9.78809C11.4529 9.78783 12.6922 8.54866 12.6924 7.01953ZM16.1279 7.10352C16.1279 6.29628 15.7379 5.58008 15.1338 5.13184L16.0283 3.92676C16.9973 4.64578 17.6279 5.80137 17.6279 7.10352C17.6279 8.40546 16.9971 9.56031 16.0283 10.2793L15.1338 9.0752C15.7379 8.62699 16.1279 7.91066 16.1279 7.10352ZM14.1924 7.01953C14.1922 9.37709 12.2814 11.2878 9.92383 11.2881C7.56607 11.2881 5.65445 9.37725 5.6543 7.01953C5.6543 4.66169 7.56598 2.75 9.92383 2.75C12.2815 2.75026 14.1924 4.66185 14.1924 7.01953Z" fill="#161616"/>
</svg>
