<svg width="24" height="24" viewBox="0 0 24 24" fill="none" xmlns="http://www.w3.org/2000/svg">
<path d="M16.2062 15.8668C16.2061 15.1079 15.5912 14.4928 14.8322 14.4928H9.16718C8.40837 14.493 7.79328 15.108 7.79315 15.8668V17.4244C7.79315 17.7923 8.09132 18.0913 8.45917 18.0914H15.5402C15.9082 18.0914 16.2062 17.7924 16.2062 17.4244V15.8668ZM14.0822 7.99084C14.082 6.84102 13.15 5.90895 12.0002 5.90881C10.8502 5.90881 9.9174 6.84093 9.91718 7.99084C9.91718 9.14095 10.8501 10.0739 12.0002 10.0739C13.1502 10.0737 14.0822 9.14086 14.0822 7.99084ZM17.7062 17.4244C17.7062 18.6208 16.7366 19.5914 15.5402 19.5914H8.45917C7.26289 19.5913 6.29315 18.6207 6.29315 17.4244V15.8668C6.29328 14.2796 7.57995 12.993 9.16718 12.9928H14.8322C16.4196 12.9928 17.7061 14.2795 17.7062 15.8668V17.4244ZM15.5822 7.99084C15.5822 9.96929 13.9786 11.5737 12.0002 11.5739C10.0217 11.5739 8.41718 9.96937 8.41718 7.99084C8.4174 6.01251 10.0218 4.40881 12.0002 4.40881C13.9785 4.40895 15.582 6.01259 15.5822 7.99084Z" fill="#161616"/>
<path d="M21.2774 15.6294V14.6665C21.2774 14.3554 21.025 14.1032 20.7139 14.103H17.8555V12.603H20.7139C21.8534 12.6032 22.7774 13.527 22.7774 14.6665V15.6294C22.7774 16.5272 22.0493 17.2554 21.1514 17.2554H18.5606V15.7554H21.1514C21.2208 15.7554 21.2774 15.6988 21.2774 15.6294ZM19.9639 9.24561C19.9637 8.69275 19.5149 8.24463 18.962 8.24463C18.4092 8.24481 17.9612 8.69286 17.961 9.24561C17.961 9.7985 18.4091 10.2474 18.962 10.2476C19.515 10.2476 19.9639 9.79861 19.9639 9.24561ZM21.4639 9.24561C21.4639 10.627 20.3434 11.7476 18.962 11.7476C17.5807 11.7474 16.461 10.6269 16.461 9.24561C16.4612 7.86444 17.5808 6.74481 18.962 6.74463C20.3433 6.74463 21.4637 7.86433 21.4639 9.24561Z" fill="#161616"/>
<path d="M2.72272 15.354V14.3911C2.72272 14.08 2.97513 13.8278 3.28619 13.8276H6.14459V12.3276H3.28619C2.14671 12.3278 1.22272 13.2516 1.22272 14.3911V15.354C1.22272 16.2518 1.95087 16.98 2.84869 16.98H5.43951V15.48H2.84869C2.7793 15.48 2.72272 15.4234 2.72272 15.354ZM4.03619 8.97021C4.03638 8.41736 4.48525 7.96924 5.03815 7.96924C5.59089 7.96942 6.03894 8.41747 6.03912 8.97021C6.03912 9.52311 5.591 9.97199 5.03815 9.97217C4.48514 9.97217 4.03619 9.52322 4.03619 8.97021ZM2.53619 8.97021C2.53619 10.3517 3.65671 11.4722 5.03815 11.4722C6.41943 11.472 7.53912 10.3515 7.53912 8.97021C7.53894 7.58905 6.41932 6.46942 5.03815 6.46924C3.65682 6.46924 2.53638 7.58894 2.53619 8.97021Z" fill="#161616"/>
</svg>
