<svg width="24" height="24" viewBox="0 0 24 24" fill="none" xmlns="http://www.w3.org/2000/svg">
<path d="M2.62793 18.7402V16.8047C2.62798 14.9328 4.14567 13.415 6.01758 13.415H15.6953V14.915H6.01758C4.9741 14.915 4.12798 15.7612 4.12793 16.8047V18.7402C4.12793 19.2978 4.58009 19.75 5.1377 19.75H15.6953V21.25H5.1377C3.75167 21.25 2.62793 20.1263 2.62793 18.7402ZM21.1523 15.6045L17.6338 19.124C17.4932 19.2646 17.3023 19.3436 17.1035 19.3438C16.9545 19.3438 16.8097 19.2992 16.6875 19.2178L16.5732 19.124L14.8135 17.3643L15.874 16.3037L17.1025 17.5322L20.0918 14.5439L21.1523 15.6045ZM12.3057 7.01953C12.3057 5.49027 11.0663 4.25026 9.53711 4.25C8.00769 4.25 6.76758 5.49011 6.76758 7.01953C6.76773 8.54882 8.00778 9.78809 9.53711 9.78809C11.0662 9.78783 12.3055 8.54866 12.3057 7.01953ZM15.7412 7.10352C15.7412 6.29628 15.3512 5.58008 14.7471 5.13184L15.6416 3.92676C16.6106 4.64578 17.2412 5.80137 17.2412 7.10352C17.2411 8.40546 16.6104 9.56031 15.6416 10.2793L14.7471 9.0752C15.3511 8.62699 15.7411 7.91066 15.7412 7.10352ZM13.8057 7.01953C13.8055 9.37709 11.8946 11.2878 9.53711 11.2881C7.17936 11.2881 5.26773 9.37725 5.26758 7.01953C5.26758 4.66169 7.17926 2.75 9.53711 2.75C11.8947 2.75026 13.8057 4.66185 13.8057 7.01953Z" fill="#161616"/>
</svg>
