<svg width="24" height="24" viewBox="0 0 24 24" fill="none" xmlns="http://www.w3.org/2000/svg">
<path d="M15.225 16.5853C15.2248 16.065 14.803 15.643 14.2827 15.6429H9.76898C9.24863 15.643 8.8268 16.065 8.8266 16.5853V17.8265C8.8266 18.0354 8.99576 18.2052 9.20453 18.2054H14.8471C15.0559 18.2052 15.225 18.0354 15.225 17.8265V16.5853ZM13.5327 10.3109C13.5327 9.47878 12.8579 8.80408 12.0258 8.80408C11.1937 8.80408 10.519 9.47879 10.519 10.3109C10.5191 11.143 11.1937 11.8177 12.0258 11.8177C12.8579 11.8177 13.5326 11.143 13.5327 10.3109ZM16.725 17.8265C16.725 18.8638 15.8843 19.7052 14.8471 19.7054H9.20453C8.16734 19.7052 7.3266 18.8638 7.3266 17.8265V16.5853C7.3268 15.2366 8.4202 14.143 9.76898 14.1429H14.2827C15.6314 14.143 16.7248 15.2366 16.725 16.5853V17.8265ZM15.0327 10.3109C15.0326 11.9714 13.6863 13.3177 12.0258 13.3177C10.3653 13.3177 9.01905 11.9714 9.01898 10.3109C9.01898 8.65036 10.3653 7.30408 12.0258 7.30408C13.6864 7.30408 15.0327 8.65036 15.0327 10.3109Z" fill="#161616"/>
<path d="M21.3033 11.6659C21.3033 11.3548 21.0509 11.1026 20.7398 11.1024H17.2369C16.9257 11.1024 16.6734 11.3547 16.6734 11.6659V12.6288C16.6734 12.6982 16.73 12.7548 16.7994 12.7548H21.1773C21.2467 12.7548 21.3033 12.6982 21.3033 12.6288V11.6659ZM19.9898 6.79578C19.9896 6.24292 19.5408 5.7948 18.9879 5.7948C18.4351 5.79498 17.9871 6.24303 17.9869 6.79578C17.9869 7.34867 18.435 7.79755 18.9879 7.79773C19.5409 7.79773 19.9898 7.34879 19.9898 6.79578ZM22.8033 12.6288C22.8033 13.5266 22.0751 14.2548 21.1773 14.2548H16.7994C15.9016 14.2548 15.1734 13.5266 15.1734 12.6288V11.6659C15.1734 10.5263 16.0972 9.60242 17.2369 9.60242H20.7398C21.8793 9.60258 22.8033 10.5264 22.8033 11.6659V12.6288ZM21.4898 6.79578C21.4898 8.17721 20.3693 9.29773 18.9879 9.29773C17.6066 9.29755 16.4869 8.1771 16.4869 6.79578C16.4871 5.41461 17.6067 4.29498 18.9879 4.2948C20.3692 4.2948 21.4896 5.41449 21.4898 6.79578Z" fill="#161616"/>
<path d="M7.3269 11.6659C7.3269 11.3548 7.07449 11.1026 6.76343 11.1024H3.2605C2.9493 11.1024 2.69702 11.3547 2.69702 11.6659V12.6288C2.69702 12.6982 2.7536 12.7548 2.823 12.7548H7.20093C7.27033 12.7548 7.3269 12.6982 7.3269 12.6288V11.6659ZM6.01343 6.79578C6.01325 6.24292 5.56437 5.7948 5.01147 5.7948C4.45873 5.79498 4.01068 6.24303 4.0105 6.79578C4.0105 7.34867 4.45862 7.79755 5.01147 7.79773C5.56448 7.79773 6.01343 7.34879 6.01343 6.79578ZM8.8269 12.6288C8.8269 13.5266 8.09875 14.2548 7.20093 14.2548H2.823C1.92517 14.2548 1.19702 13.5266 1.19702 12.6288V11.6659C1.19702 10.5263 2.12087 9.60242 3.2605 9.60242H6.76343C7.90292 9.60258 8.8269 10.5264 8.8269 11.6659V12.6288ZM7.51343 6.79578C7.51343 8.17721 6.39291 9.29773 5.01147 9.29773C3.6302 9.29755 2.5105 8.1771 2.5105 6.79578C2.51068 5.41461 3.63031 4.29498 5.01147 4.2948C6.3928 4.2948 7.51325 5.41449 7.51343 6.79578Z" fill="#161616"/>
</svg>
