<svg width="100%" height="100%" overflow="visible" style="display: block;" viewBox="0 0 18.4232 24.6667" fill="none" xmlns="http://www.w3.org/2000/svg">
<path id="Vector (Stroke)" d="M16.4232 18.7396C16.4231 17.3483 15.295 16.2201 13.9036 16.2201H4.51953C3.12823 16.2201 2.00007 17.3483 2 18.7396V21.3203C2 22.0638 2.60288 22.6667 3.34635 22.6667H15.0768C15.8203 22.6667 16.4232 22.0638 16.4232 21.3203V18.7396ZM12.9036 5.69271C12.9036 3.6537 11.2512 2.00035 9.21224 2C7.17302 2 5.51953 3.65348 5.51953 5.69271C5.51973 7.73176 7.17314 9.38411 9.21224 9.38411C11.251 9.38377 12.9034 7.73155 12.9036 5.69271ZM18.4232 21.3203C18.4232 23.1684 16.9249 24.6667 15.0768 24.6667H3.34635C1.49832 24.6667 0 23.1684 0 21.3203V18.7396C6.87197e-05 16.2437 2.02366 14.2201 4.51953 14.2201H13.9036C16.3995 14.2201 18.4231 16.2437 18.4232 18.7396V21.3203ZM14.9036 5.69271C14.9034 8.83612 12.3556 11.3838 9.21224 11.3841C6.06857 11.3841 3.51973 8.83633 3.51953 5.69271C3.51953 2.54891 6.06845 0 9.21224 0C12.3557 0.000347011 14.9036 2.54913 14.9036 5.69271Z" fill="var(--fill-0, #161616)"/>
</svg>
