<svg width="24" height="24" viewBox="0 0 24 24" fill="none" xmlns="http://www.w3.org/2000/svg">
<path d="M14.7676 16.8047C14.7675 15.7612 13.9214 14.915 12.8779 14.915H5.83984C4.79637 14.915 3.95025 15.7612 3.9502 16.8047V18.7402C3.9502 19.2978 4.40236 19.75 4.95996 19.75H13.7578C14.3154 19.75 14.7676 19.2978 14.7676 18.7402V16.8047ZM18.5996 7.91699L17.5029 9.09863L16.9922 9.64746L15.8936 8.62695L18.8008 5.49609L18.8564 5.44238C18.9919 5.32396 19.166 5.25742 19.3477 5.25684C19.5554 5.25624 19.7542 5.34183 19.8965 5.49316L22.835 8.62109L21.7422 9.64844L20.0996 7.89941V12.7471H18.5996V7.91699ZM12.1279 7.01953C12.1279 5.49027 10.8886 4.25026 9.35938 4.25C7.82996 4.25 6.58984 5.49011 6.58984 7.01953C6.58999 8.54882 7.83005 9.78809 9.35938 9.78809C10.8885 9.78783 12.1278 8.54866 12.1279 7.01953ZM16.2676 18.7402C16.2676 20.1263 15.1438 21.25 13.7578 21.25H4.95996C3.57393 21.25 2.4502 20.1263 2.4502 18.7402V16.8047C2.45025 14.9328 3.96794 13.415 5.83984 13.415H12.8779C14.7498 13.415 16.2675 14.9328 16.2676 16.8047V18.7402ZM13.6279 7.01953C13.6278 9.37709 11.7169 11.2878 9.35938 11.2881C7.00162 11.2881 5.08999 9.37725 5.08984 7.01953C5.08984 4.66169 7.00153 2.75 9.35938 2.75C11.717 2.75026 13.6279 4.66185 13.6279 7.01953Z" fill="#161616"/>
</svg>
