<svg width="24" height="24" viewBox="0 0 24 24" fill="none" xmlns="http://www.w3.org/2000/svg">
<path d="M14.7674 16.8047C14.7673 15.7612 13.9212 14.915 12.8777 14.915H5.83966C4.79618 14.915 3.95006 15.7612 3.95001 16.8047V18.7402C3.95001 19.2978 4.40218 19.75 4.95978 19.75H13.7576C14.3152 19.75 14.7674 19.2978 14.7674 18.7402V16.8047ZM12.1277 7.01953C12.1277 5.49027 10.8884 4.25026 9.35919 4.25C7.82977 4.25 6.58966 5.49011 6.58966 7.01953C6.58981 8.54882 7.82987 9.78809 9.35919 9.78809C10.8883 9.78783 12.1276 8.54866 12.1277 7.01953ZM16.2674 18.7402C16.2674 20.1263 15.1437 21.25 13.7576 21.25H4.95978C3.57375 21.25 2.45001 20.1263 2.45001 18.7402V16.8047C2.45006 14.9328 3.96775 13.415 5.83966 13.415H12.8777C14.7497 13.415 16.2673 14.9328 16.2674 16.8047V18.7402ZM13.6277 7.01953C13.6276 9.37709 11.7167 11.2878 9.35919 11.2881C7.00144 11.2881 5.08981 9.37725 5.08966 7.01953C5.08966 4.66169 7.00135 2.75 9.35919 2.75C11.7168 2.75026 13.6277 4.66185 13.6277 7.01953Z" fill="#161616"/>
<path d="M18.2065 5.04785C18.4984 5.04785 18.7642 5.21768 18.8872 5.48242L19.5747 6.96387L21.1987 7.16113C21.4883 7.19626 21.7315 7.39641 21.8217 7.67383C21.9119 7.95144 21.8324 8.25634 21.6186 8.45508L20.4214 9.56738L20.7358 11.1729C20.7919 11.4593 20.677 11.7523 20.4409 11.9238C20.2047 12.0954 19.8903 12.1146 19.6352 11.9727L18.2065 11.1768L16.7778 11.9727C16.5228 12.1144 16.2082 12.0953 15.9721 11.9238C15.7362 11.7522 15.6211 11.4591 15.6772 11.1729L15.9907 9.56738L14.7944 8.45508C14.5807 8.25633 14.5021 7.95137 14.5923 7.67383C14.6826 7.39647 14.9257 7.19623 15.2153 7.16113L16.8384 6.96387L17.5268 5.48242L17.5796 5.3877C17.7167 5.17795 17.9512 5.04793 18.2065 5.04785ZM18.0229 7.97461C17.9137 8.20978 17.6904 8.37196 17.4331 8.40332L16.9975 8.45508L17.3188 8.75391C17.5088 8.9305 17.5942 9.19273 17.5444 9.44727L17.4594 9.87598L17.8423 9.66406L17.9292 9.62207C18.1369 9.53933 18.3734 9.55371 18.5717 9.66406L18.9536 9.87598L18.8696 9.44727C18.8198 9.19282 18.9044 8.93052 19.0942 8.75391L19.4145 8.45508L18.9809 8.40332C18.7234 8.3721 18.5004 8.20992 18.3911 7.97461L18.2065 7.57812L18.0229 7.97461Z" fill="#161616"/>
</svg>
