<svg width="24" height="24" viewBox="0 0 24 24" fill="none" xmlns="http://www.w3.org/2000/svg">
<path d="M3.01465 18.7402V16.8047C3.0147 14.9328 4.53239 13.415 6.4043 13.415H14.9131V14.915H6.4043C5.36082 14.915 4.5147 15.7612 4.51465 16.8047V18.7402C4.51465 19.2978 4.96681 19.75 5.52441 19.75H14.9131V21.25H5.52441C4.13839 21.25 3.01465 20.1263 3.01465 18.7402ZM12.6924 7.01953C12.6924 5.49027 11.453 4.25026 9.92383 4.25C8.39441 4.25 7.1543 5.49011 7.1543 7.01953C7.15445 8.54882 8.3945 9.78809 9.92383 9.78809C11.4529 9.78783 12.6922 8.54866 12.6924 7.01953ZM16.1279 7.10352C16.1279 6.29628 15.7379 5.58008 15.1338 5.13184L16.0283 3.92676C16.9973 4.64578 17.6279 5.80137 17.6279 7.10352C17.6279 8.40546 16.9971 9.56031 16.0283 10.2793L15.1338 9.0752C15.7379 8.62699 16.1279 7.91066 16.1279 7.10352ZM14.1924 7.01953C14.1922 9.37709 12.2814 11.2878 9.92383 11.2881C7.56607 11.2881 5.65445 9.37725 5.6543 7.01953C5.6543 4.66169 7.56598 2.75 9.92383 2.75C12.2815 2.75026 14.1924 4.66185 14.1924 7.01953Z" fill="#161616"/>
<path d="M18.9414 13.5694C19.2333 13.5694 19.4991 13.7392 19.6221 14.004L20.3096 15.4854L21.9336 15.6827C22.2232 15.7178 22.4664 15.918 22.5566 16.1954C22.6468 16.473 22.5673 16.7779 22.3535 16.9766L21.1562 18.0889L21.4707 19.6944C21.5268 19.9808 21.4119 20.2738 21.1758 20.4454C20.9396 20.6169 20.6252 20.6361 20.3701 20.4942L18.9414 19.6983L17.5127 20.4942C17.2577 20.6359 16.9431 20.6169 16.707 20.4454C16.4711 20.2738 16.356 19.9807 16.4121 19.6944L16.7256 18.0889L15.5293 16.9766C15.3156 16.7779 15.237 16.4729 15.3271 16.1954C15.4175 15.918 15.6606 15.7178 15.9502 15.6827L17.5732 15.4854L18.2617 14.004L18.3145 13.9092C18.4516 13.6995 18.6861 13.5695 18.9414 13.5694ZM18.7578 16.4962C18.6486 16.7313 18.4253 16.8935 18.168 16.9249L17.7324 16.9766L18.0537 17.2755C18.2437 17.452 18.3291 17.7143 18.2793 17.9688L18.1943 18.3975L18.5771 18.1856L18.6641 18.1436C18.8718 18.0609 19.1083 18.0753 19.3066 18.1856L19.6885 18.3975L19.6045 17.9688C19.5547 17.7144 19.6393 17.4521 19.8291 17.2755L20.1494 16.9766L19.7158 16.9249C19.4583 16.8937 19.2353 16.7315 19.126 16.4962L18.9414 16.0997L18.7578 16.4962Z" fill="#161616"/>
</svg>
