<svg width="24" height="24" viewBox="0 0 24 24" fill="none" xmlns="http://www.w3.org/2000/svg">
<path d="M15.1978 16.8047C15.1977 15.7612 14.3516 14.915 13.3081 14.915H6.27002C5.22654 14.915 4.38042 15.7612 4.38037 16.8047V18.7402C4.38037 19.2978 4.83253 19.75 5.39014 19.75H14.188C14.7456 19.75 15.1978 19.2978 15.1978 18.7402V16.8047ZM19.6196 17.2969C19.6196 15.9421 18.5213 14.8438 17.1665 14.8438V13.3438C19.3497 13.3438 21.1196 15.1137 21.1196 17.2969V20.082H19.6196V17.2969ZM12.5581 7.01953C12.5581 5.49027 11.3187 4.25026 9.78955 4.25C8.26013 4.25 7.02002 5.49011 7.02002 7.01953C7.02017 8.54882 8.26022 9.78809 9.78955 9.78809C11.3187 9.78783 12.558 8.54866 12.5581 7.01953ZM15.9937 7.10352C15.9937 6.29628 15.6036 5.58008 14.9995 5.13184L15.894 3.92676C16.8631 4.64578 17.4937 5.80137 17.4937 7.10352C17.4936 8.40545 16.8629 9.5603 15.894 10.2793L14.9995 9.0752C15.6036 8.62699 15.9936 7.91066 15.9937 7.10352ZM16.6978 18.7402C16.6978 20.1263 15.574 21.25 14.188 21.25H5.39014C4.00411 21.25 2.88037 20.1263 2.88037 18.7402V16.8047C2.88042 14.9328 4.39811 13.415 6.27002 13.415H13.3081C15.18 13.415 16.6977 14.9328 16.6978 16.8047V18.7402ZM14.0581 7.01953C14.058 9.37709 12.1471 11.2878 9.78955 11.2881C7.4318 11.2881 5.52017 9.37725 5.52002 7.01953C5.52002 4.66169 7.43171 2.75 9.78955 2.75C12.1472 2.75026 14.0581 4.66185 14.0581 7.01953Z" fill="#161616"/>
</svg>
