<svg width="24" height="24" viewBox="0 0 24 24" fill="none" xmlns="http://www.w3.org/2000/svg">
<path d="M18.3285 12.1797C18.3285 11.6634 18.3275 11.3211 18.3065 11.0586C18.2862 10.805 18.25 10.6922 18.2155 10.6231C18.1167 10.4257 17.9597 10.2647 17.7661 10.1641C17.6983 10.1288 17.5875 10.093 17.3388 10.0723C17.0812 10.0508 16.7446 10.0498 16.2379 10.0498H7.7615C7.2549 10.0498 6.91914 10.0508 6.66159 10.0723C6.41278 10.093 6.30214 10.1288 6.23427 10.1641C6.04048 10.2647 5.88273 10.4255 5.78396 10.6231C5.74939 10.6922 5.71424 10.805 5.6939 11.0586C5.67286 11.3211 5.67186 11.6634 5.67186 12.1797V16.6797C5.67186 17.4481 5.67232 17.98 5.70539 18.3926C5.73777 18.7963 5.79805 19.0202 5.88073 19.1856C6.0641 19.5522 6.35649 19.8502 6.7162 20.0371C6.87847 20.1214 7.09815 20.1828 7.49419 20.2158C7.899 20.2495 8.42079 20.25 9.17472 20.25H14.8257C15.5794 20.25 16.1005 20.2495 16.5052 20.2158C16.9014 20.1828 17.1209 20.1214 17.2832 20.0371C17.6432 19.8502 17.9362 19.5524 18.1197 19.1856C18.2023 19.0202 18.2617 18.7962 18.294 18.3926C18.3271 17.98 18.3285 17.4481 18.3285 16.6797V12.1797ZM9.49856 4.9502H10.9702V7.34961H9.49856V4.9502ZM13.0302 4.9502H14.5018V7.34961H13.0302V4.9502ZM16.5618 4.44043C16.5618 4.17617 16.5612 4.0226 16.5522 3.91016C16.5483 3.86166 16.5431 3.83553 16.5407 3.82422C16.5278 3.80194 16.51 3.78342 16.488 3.77051C16.4762 3.76796 16.4508 3.76355 16.4056 3.75977C16.2953 3.75058 16.1447 3.75 15.8853 3.75H8.11505C7.85565 3.75 7.70512 3.75058 7.59479 3.75977C7.5486 3.76362 7.52304 3.76798 7.51144 3.77051C7.48913 3.78368 7.47067 3.80243 7.45778 3.8252C7.45529 3.83713 7.45099 3.86337 7.44724 3.91016C7.43825 4.02259 7.43766 4.1762 7.43766 4.44043V8.55079C7.5415 8.55049 7.64944 8.54981 7.7615 8.54981H16.2379C16.3498 8.54981 16.4581 8.55049 16.5618 8.55079V4.44043ZM18.0334 8.67481C18.1694 8.71229 18.3034 8.76036 18.4339 8.82813C18.9046 9.07261 19.2873 9.46264 19.5271 9.94239C19.685 10.2582 19.7456 10.5901 19.7734 10.9365C19.8004 11.2742 19.8002 11.6882 19.8002 12.1797V16.6797C19.8002 17.4234 19.8 18.0268 19.7609 18.5147C19.7211 19.0111 19.6372 19.4542 19.4313 19.8662C19.1069 20.5153 18.5888 21.0433 17.952 21.374C17.5477 21.584 17.1122 21.6704 16.625 21.7109C16.1465 21.7508 15.5551 21.75 14.8257 21.75H9.17472C8.44508 21.75 7.85307 21.7508 7.37443 21.7109C6.8873 21.6704 6.45267 21.584 6.0484 21.374C5.4115 21.0433 4.89359 20.5154 4.56907 19.8662C4.3631 19.4542 4.27833 19.0112 4.23852 18.5147C4.19941 18.0268 4.2002 17.4234 4.2002 16.6797V12.1797C4.2002 11.6882 4.19995 11.2742 4.22702 10.9365C4.25481 10.5901 4.31538 10.2582 4.47326 9.94239C4.71312 9.46262 5.09575 9.07259 5.56647 8.82813C5.69674 8.76048 5.83025 8.71227 5.966 8.67481V4.44043C5.966 4.20091 5.96535 3.97573 5.98037 3.78809C5.99611 3.59178 6.0327 3.37082 6.14229 3.15137L6.20553 3.03711C6.36106 2.77879 6.58392 2.56805 6.85034 2.42969L7.0113 2.35938C7.17226 2.3009 7.33039 2.2767 7.47503 2.26465C7.65917 2.24932 7.87997 2.25 8.11505 2.25H15.8853C16.1204 2.25 16.3413 2.24932 16.5254 2.26465C16.6698 2.27669 16.8275 2.30108 16.9881 2.35938L17.1501 2.42969L17.2612 2.49317C17.5149 2.65171 17.7213 2.8796 17.8571 3.15137C17.9668 3.3709 18.0033 3.59171 18.0191 3.78809C18.0341 3.97574 18.0334 4.20089 18.0334 4.44043V8.67481Z" fill="#161616"/>
</svg>
