<svg width="24" height="24" viewBox="0 0 24 24" fill="none" xmlns="http://www.w3.org/2000/svg">
<path fill-rule="evenodd" clip-rule="evenodd" d="M12 4.25C7.71979 4.25 4.25 7.71979 4.25 12C4.25 13.7133 4.80595 15.2967 5.7473 16.5798C6.11911 15.2492 7.34033 14.2733 8.78947 14.2733H15.2114C16.6603 14.2733 17.8812 15.2488 18.2533 16.5789C19.1943 15.296 19.75 13.7129 19.75 12C19.75 7.71979 16.2802 4.25 12 4.25ZM16.8698 17.4317C16.8698 16.5158 16.1273 15.7733 15.2114 15.7733H8.78947C7.87367 15.7733 7.13124 16.5156 7.13106 17.4314C7.13106 17.4314 7.13106 17.4314 7.13106 17.4315C7.13106 17.4315 7.13106 17.4315 7.13106 17.4315L7.1311 18.03C8.46173 19.1057 10.1556 19.75 12 19.75C13.8447 19.75 15.5389 19.1055 16.8697 18.0293L16.8698 17.4318C16.8698 17.4318 16.8698 17.4318 16.8698 17.4317ZM2.75 12C2.75 6.89137 6.89137 2.75 12 2.75C17.1086 2.75 21.25 6.89137 21.25 12C21.25 17.1086 17.1086 21.25 12 21.25C6.89137 21.25 2.75 17.1086 2.75 12ZM12.0001 7.43748C10.9473 7.43748 10.0938 8.29094 10.0938 9.34373C10.0938 10.3965 10.9473 11.25 12.0001 11.25C13.0529 11.25 13.9063 10.3965 13.9063 9.34373C13.9063 8.29094 13.0529 7.43748 12.0001 7.43748ZM8.59384 9.34373C8.59384 7.46251 10.1189 5.93748 12.0001 5.93748C13.8813 5.93748 15.4063 7.46251 15.4063 9.34373C15.4063 11.2249 13.8813 12.75 12.0001 12.75C10.1189 12.75 8.59384 11.2249 8.59384 9.34373Z" fill="#161616"/>
</svg>
