<svg width="24" height="24" viewBox="0 0 24 24" fill="none" xmlns="http://www.w3.org/2000/svg">
<path d="M20.6143 4.66113L18.3721 6.91602C20.6758 7.6929 22.335 9.86985 22.335 12.4355C22.3348 14.2443 21.5098 15.8617 20.2178 16.9287L19.2627 15.7715C20.2243 14.9772 20.8348 13.7778 20.835 12.4355C20.835 10.2606 19.229 8.46028 17.1387 8.15625L13.3818 11.9355L17.1104 15.6641L16.0498 16.7246L13.1094 13.7842V21.0273H11.6094V13.7188L6.17969 19.1816L5.65137 19.7148L4.58789 18.6572L19.5498 3.60449L20.6143 4.66113ZM9.95996 2.75C12.0903 2.75 14.0204 3.60153 15.4316 4.98047L14.3701 6.04004C13.2291 4.93232 11.6744 4.25 9.95996 4.25C6.46242 4.25018 3.62713 7.08546 3.62695 10.583C3.62695 12.2934 4.3048 13.8441 5.40723 14.9844L4.3457 16.043C2.97427 14.6327 2.12695 12.7064 2.12695 10.583C2.12713 6.25704 5.63399 2.75018 9.95996 2.75Z" fill="#161616"/>
</svg>
