<svg width="24" height="24" viewBox="0 0 24 24" fill="none" xmlns="http://www.w3.org/2000/svg">
<path d="M11.5713 5.7395L6.8213 10.4895L5.76075 9.42896L11.791 3.39868L11.9053 3.30493C12.0276 3.2234 12.1721 3.17896 12.3213 3.17896C12.5202 3.17896 12.7109 3.25803 12.8516 3.39868L18.8818 9.42896L17.8213 10.4895L13.0713 5.7395V17.512H11.5713V5.7395Z" fill="#161616"/>
<path d="M3.3213 18.9625V16.0123H4.8213V18.9625C4.8213 19.2314 4.82165 19.3883 4.83106 19.5035C4.83509 19.5527 4.84006 19.5799 4.84278 19.5924C4.8577 19.6194 4.87939 19.6416 4.90626 19.6568C4.9179 19.6595 4.94538 19.6643 4.99708 19.6685C5.1123 19.6779 5.26908 19.6793 5.5381 19.6793H19.1045C19.3735 19.6793 19.5303 19.6779 19.6455 19.6685C19.6959 19.6644 19.7232 19.6595 19.7354 19.6568C19.7624 19.6417 19.7838 19.6195 19.7988 19.5924C19.8016 19.58 19.8075 19.553 19.8115 19.5035C19.8209 19.3883 19.8213 19.2314 19.8213 18.9625V16.0123H21.3213V18.9625C21.3213 19.2067 21.3222 19.4351 21.3067 19.6256C21.2944 19.775 21.2699 19.9377 21.2109 20.1031L21.1397 20.2691C20.9999 20.5434 20.7873 20.7731 20.5264 20.9332L20.4111 20.9976C20.1898 21.1103 19.9668 21.1474 19.7676 21.1637C19.5771 21.1792 19.3488 21.1793 19.1045 21.1793H5.5381C5.29385 21.1793 5.06546 21.1792 4.87501 21.1637C4.72567 21.1515 4.5628 21.1278 4.39747 21.0689L4.23146 20.9976C3.9179 20.8379 3.66273 20.5827 3.50294 20.2691C3.39016 20.0478 3.35223 19.8248 3.33595 19.6256C3.32039 19.4351 3.3213 19.2067 3.3213 18.9625Z" fill="#161616"/>
</svg>
