<svg width="24" height="24" viewBox="0 0 24 24" fill="none" xmlns="http://www.w3.org/2000/svg">
<path d="M8.58887 12.6904L8.58984 12.6914C8.34939 12.792 8.0739 12.7606 7.8623 12.6084V12.6094H7.86328V12.6104C7.86265 12.6099 7.86117 12.6084 7.8584 12.6064C7.85247 12.6023 7.84184 12.5947 7.82715 12.585C7.79744 12.5652 7.75016 12.5352 7.68848 12.498C7.56455 12.4233 7.38309 12.3213 7.16016 12.2197C6.70605 12.0128 6.12283 11.8253 5.52539 11.8252C4.9278 11.8252 4.34386 12.0128 3.88965 12.2197C3.66677 12.3213 3.48523 12.4233 3.36133 12.498C3.29989 12.5351 3.25333 12.5652 3.22363 12.585C3.20894 12.5947 3.19838 12.6023 3.19238 12.6064L3.18652 12.6104V12.6094H3.1875C3.18752 12.6094 3.1872 12.6094 3.18652 12.6084C2.9582 12.7722 2.65835 12.7952 2.4082 12.667C2.15777 12.5387 2 12.2814 2 12C2 6.47715 6.47715 2 12 2C17.5228 2 22 6.47715 22 12C22 12.2814 21.8422 12.5387 21.5918 12.667C21.3414 12.7953 21.0409 12.7726 20.8125 12.6084V12.6094H20.8135V12.6104C20.8128 12.6099 20.8106 12.6085 20.8076 12.6064C20.8016 12.6023 20.7911 12.5947 20.7764 12.585C20.7467 12.5652 20.7001 12.5351 20.6387 12.498C20.5148 12.4233 20.3332 12.3213 20.1104 12.2197C19.6561 12.0128 19.0722 11.8252 18.4746 11.8252C17.8772 11.8253 17.294 12.0128 16.8398 12.2197C16.6169 12.3213 16.4354 12.4233 16.3115 12.498C16.2498 12.5352 16.2026 12.5652 16.1729 12.585C16.1582 12.5947 16.1475 12.6023 16.1416 12.6064L16.1367 12.6104V12.6094H16.1377C16.1377 12.6094 16.1373 12.6093 16.1367 12.6084C15.9516 12.7412 15.7184 12.7829 15.502 12.7236L15.4102 12.6914C15.4096 12.6912 15.4085 12.691 15.4072 12.6904C15.4039 12.6891 15.398 12.6866 15.3906 12.6836C15.376 12.6776 15.3535 12.6689 15.3242 12.6572C15.2651 12.6336 15.1774 12.599 15.0674 12.5576C14.8467 12.4746 14.5375 12.3634 14.1846 12.2529C13.7224 12.1083 13.2171 11.9748 12.75 11.8965V18.8447C12.75 20.5592 11.4063 22 9.6875 22C7.96868 22 6.625 20.5592 6.625 18.8447H8.125C8.125 19.7868 8.85201 20.5 9.6875 20.5C10.523 20.5 11.25 19.7868 11.25 18.8447V11.8965C10.7829 11.9748 10.2776 12.1083 9.81543 12.2529C9.46253 12.3634 9.15328 12.4746 8.93262 12.5576C8.8226 12.599 8.73494 12.6336 8.67578 12.6572C8.64645 12.6689 8.62398 12.6776 8.60938 12.6836C8.60205 12.6866 8.5961 12.6891 8.59277 12.6904C8.59135 12.691 8.58944 12.6902 8.58887 12.6904ZM12 3.5C7.74174 3.5 4.21432 6.6312 3.5957 10.7168C4.12308 10.5097 4.79492 10.3252 5.52539 10.3252C6.41705 10.3253 7.22137 10.5999 7.78223 10.8555C8.01975 10.9637 8.22072 11.0728 8.37598 11.1631C8.38517 11.1596 8.39481 11.1569 8.4043 11.1533C8.64465 11.0629 8.9813 10.9421 9.36719 10.8213C10.1178 10.5863 11.1347 10.3252 12 10.3252C12.8653 10.3252 13.8822 10.5863 14.6328 10.8213C15.0187 10.9421 15.3554 11.0629 15.5957 11.1533C15.6049 11.1568 15.6141 11.1597 15.623 11.1631C15.7784 11.0728 15.9799 10.9639 16.2178 10.8555C16.7786 10.5999 17.5829 10.3253 18.4746 10.3252C19.2047 10.3252 19.8761 10.5099 20.4033 10.7168C19.7846 6.63127 16.2582 3.5 12 3.5Z" fill="#161616"/>
</svg>
