<svg width="24" height="24" viewBox="0 0 24 24" fill="none" xmlns="http://www.w3.org/2000/svg">
<path d="M14.769 16.8047C14.769 15.7612 13.9229 14.915 12.8794 14.915H5.84131C4.79783 14.915 3.95171 15.7612 3.95166 16.8047V18.7402C3.95166 19.2978 4.40382 19.75 4.96143 19.75H13.7593C14.3169 19.75 14.769 19.2978 14.769 18.7402V16.8047ZM12.1294 7.01953C12.1294 5.49027 10.89 4.25026 9.36084 4.25C7.83142 4.25 6.59131 5.49011 6.59131 7.01953C6.59146 8.54882 7.83151 9.78809 9.36084 9.78809C10.8899 9.78783 12.1292 8.54866 12.1294 7.01953ZM21.5483 8.61035V10.1104H14.769V8.61035H21.5483ZM16.269 18.7402C16.269 20.1263 15.1453 21.25 13.7593 21.25H4.96143C3.5754 21.25 2.45166 20.1263 2.45166 18.7402V16.8047C2.45171 14.9328 3.9694 13.415 5.84131 13.415H12.8794C14.7513 13.415 16.269 14.9328 16.269 16.8047V18.7402ZM13.6294 7.01953C13.6292 9.37709 11.7184 11.2878 9.36084 11.2881C7.00309 11.2881 5.09146 9.37725 5.09131 7.01953C5.09131 4.66169 7.00299 2.75 9.36084 2.75C11.7185 2.75026 13.6294 4.66185 13.6294 7.01953Z" fill="#161616"/>
</svg>
