<svg width="24" height="24" viewBox="0 0 24 24" fill="none" xmlns="http://www.w3.org/2000/svg">
<path d="M16.1328 12.2501H17.6328V20.0001C17.6328 20.3034 17.4501 20.5773 17.1699 20.6934C16.8897 20.8095 16.567 20.7448 16.3525 20.5304L11.9395 16.1173L13 15.0567L16.1328 18.1895V12.2501ZM16.3525 3.46981C16.567 3.25537 16.8897 3.19065 17.1699 3.30672C17.4501 3.42282 17.6328 3.69675 17.6328 4.00008V7.15633L19.5625 5.44148L20.5586 6.56258L5.9375 19.5587L4.94141 18.4376L7.57324 16.0977H5.5C5.08579 16.0977 4.75 15.7619 4.75 15.3477V8.65145C4.75 8.45257 4.82912 8.26182 4.96973 8.12117C5.11038 7.98052 5.30109 7.90145 5.5 7.90145H11.9209L16.3525 3.46981ZM12.7617 9.18172C12.6211 9.32232 12.4303 9.40145 12.2314 9.40145H6.25V14.5977H9.26074L16.1328 8.48934V5.81063L12.7617 9.18172Z" fill="#161616"/>
</svg>
