<svg width="24" height="24" viewBox="0 0 24 24" fill="none" xmlns="http://www.w3.org/2000/svg">
<path d="M17.5488 20.1582L16.3418 21.0488L14.5752 18.6553C14.1452 18.8961 13.651 19.0361 13.125 19.0361H5.25C3.58205 19.0361 2.25 17.6654 2.25 16V10.2861C2.25 8.62073 3.58205 7.25 5.25 7.25H6.1543L3.63867 3.8418L4.8457 2.95117L17.5488 20.1582ZM19.6094 8.63379C19.9756 8.43346 20.515 8.26129 21.0264 8.53125C21.4838 8.77285 21.6587 9.22816 21.7129 9.63184L21.7285 9.80078L21.7305 9.84375L21.75 16.4785L21.7432 16.6738C21.7015 17.1284 21.4764 17.5632 21.0127 17.7773C20.5873 17.9737 20.1356 17.8994 19.7754 17.7188L19.627 17.6348L19.584 17.6055L14.9336 14.2217C14.7397 14.0805 14.625 13.8551 14.625 13.6152V10.2861C14.625 9.4268 13.9423 8.75 13.125 8.75H11.25V7.25H13.125C14.7929 7.25 16.125 8.62073 16.125 10.2861V11.0371L19.543 8.6748L19.6094 8.63379ZM16.125 12.8613V13.2334L20.249 16.2354L20.2305 10.0234L16.125 12.8613ZM3.75 16C3.75 16.8593 4.43266 17.5361 5.25 17.5361H13.125C13.3178 17.5361 13.5009 17.4973 13.6699 17.4297L7.26172 8.75H5.25C4.43266 8.75 3.75 9.4268 3.75 10.2861V16Z" fill="#161616"/>
</svg>
