<svg width="24" height="24" viewBox="0 0 24 24" fill="none" xmlns="http://www.w3.org/2000/svg">
<path d="M10.8535 3.72463C11.4865 3.09163 12.5135 3.09163 13.1465 3.72463L20.2754 10.8535C20.9084 11.4865 20.9084 12.5135 20.2754 13.1465L13.1465 20.2754C12.5135 20.9084 11.4865 20.9084 10.8535 20.2754L3.7246 13.1465C3.0916 12.5135 3.0916 11.4865 3.7246 10.8535L10.8535 3.72463ZM12.0859 4.78518C12.0387 4.73796 11.9613 4.73796 11.9141 4.78518L4.78515 11.9141C4.73793 11.9613 4.73793 12.0387 4.78515 12.086L11.9141 19.2149C11.9613 19.2621 12.0387 19.2621 12.0859 19.2149L19.2148 12.086C19.2621 12.0387 19.2621 11.9613 19.2148 11.9141L12.0859 4.78518Z" fill="#161616"/>
</svg>
