<svg width="24" height="24" viewBox="0 0 24 24" fill="none" xmlns="http://www.w3.org/2000/svg">
<path d="M11.5488 5.41395C11.7741 5.23435 12.0822 5.1991 12.3418 5.3241C12.6012 5.44914 12.7656 5.71187 12.7656 5.99989V17.9999C12.7656 18.2879 12.6012 18.5506 12.3418 18.6757C12.0822 18.8007 11.7741 18.7654 11.5488 18.5858L7.37695 15.2597L3 15.2616C2.80118 15.2616 2.61036 15.1824 2.46973 15.0419C2.32912 14.9013 2.2501 14.7104 2.25 14.5116V9.48817C2.2502 9.07412 2.58591 8.73817 3 8.73817H7.37891L11.5488 5.41395ZM8.1084 10.0751C7.97557 10.181 7.81051 10.2382 7.64062 10.2382H3.75V13.7606L7.64062 13.7597L7.7666 13.7704C7.89098 13.7916 8.0087 13.8442 8.1084 13.9237L11.2656 16.4423V7.55653L8.1084 10.0751ZM17.7188 12.6669H15.1875V11.1669H17.7188V8.70008H19.2188V11.1669H21.75V12.6669H19.2188V15.1347H17.7188V12.6669Z" fill="#161616"/>
</svg>
