<svg width="24" height="24" viewBox="0 0 24 24" fill="none" xmlns="http://www.w3.org/2000/svg">
<path d="M13.6055 4.75C15.2527 4.75 16.6041 6.07062 16.6055 7.71973L16.6074 8.47754L20.1465 6.86914C20.5106 6.68439 21.0206 6.54098 21.5059 6.79004C21.9645 7.0255 22.1435 7.47456 22.1992 7.87598L22.2158 8.04492L22.2178 8.08789L22.25 16.1699L22.2432 16.3662C22.1998 16.8209 21.967 17.2477 21.5049 17.4551C21.0498 17.6592 20.5653 17.5578 20.1934 17.3496L16.6094 15.584L16.6055 16.2832C16.6025 17.9309 15.2517 19.25 13.6055 19.25H5.25C3.60196 19.25 2.25 17.9276 2.25 16.2773V7.72266C2.25 6.07239 3.60196 4.75 5.25 4.75H13.6055ZM16.6133 10.1221L16.625 13.4248V13.4326L16.6211 13.918L20.749 15.9502L20.7178 8.25684L16.6133 10.1221ZM12.8555 8.08301V9.58301H8.60547V8.08301H12.8555ZM3.75 16.2773C3.75 17.0817 4.41276 17.75 5.25 17.75H13.6055C14.4427 17.75 15.1055 17.0817 15.1055 16.2773V16.2725L15.125 13.4297L15.1055 7.72461V7.72266L15.0977 7.57324C15.0218 6.83708 14.3904 6.25 13.6055 6.25H5.25C4.41276 6.25 3.75 6.91833 3.75 7.72266V16.2773Z" fill="#161616"/>
</svg>
