<svg width="24" height="24" viewBox="0 0 24 24" fill="none" xmlns="http://www.w3.org/2000/svg">
<path d="M4.50439 17.2207H15.7593V6.77832H4.50439V17.2207ZM17.2642 17.6045L17.2573 17.7188C17.1935 18.2465 16.6926 18.6663 16.063 18.7197L15.9263 18.7256H4.33643L4.19971 18.7197C3.57044 18.666 3.07019 18.2463 3.00635 17.7188L2.99951 17.6045V6.39453C2.99951 5.77553 3.59803 5.2736 4.33643 5.27344H15.9263C16.6648 5.27344 17.2642 5.77543 17.2642 6.39453V17.6045Z" fill="#161616"/>
<path d="M19.2726 7.07898C19.8588 6.46657 20.8642 6.81691 20.9875 7.60828L21.0002 7.77234V16.0634L20.9865 16.2304C20.8587 17.0377 19.816 17.3769 19.2434 16.7255L15.7707 12.7743V10.7372L19.2726 7.07898ZM19.4953 14.7333V9.02137L17.2746 11.3417V12.2079L19.4953 14.7333Z" fill="#161616"/>
</svg>
