<svg width="24" height="24" viewBox="0 0 24 24" fill="none" xmlns="http://www.w3.org/2000/svg">
<path d="M13.4795 4.42393C13.703 4.2376 14.0148 4.19699 14.2783 4.32042C14.5418 4.44387 14.71 4.70913 14.71 5.0001V19.0001C14.71 19.2912 14.5409 19.5564 14.2773 19.6798C14.0139 19.8029 13.7029 19.7625 13.4795 19.5763L8.80469 15.6778L4 15.6798C3.80113 15.6798 3.61037 15.6007 3.46973 15.4601C3.32907 15.3194 3.25002 15.1287 3.25 14.9298V9.06944C3.25025 8.65544 3.58594 8.31944 4 8.31944H8.80664L13.4795 4.42393ZM9.55762 9.64561C9.42286 9.75794 9.25258 9.81941 9.07715 9.81944H4.75V14.1788L9.07715 14.1778L9.20703 14.1896C9.33527 14.2121 9.45646 14.2683 9.55762 14.3526L13.21 17.3976V6.60167L9.55762 9.64561ZM19.3516 8.87217C21.0329 10.944 21.2671 13.7276 19.6777 16.1524L19.2666 16.7794L18.0117 15.9571L18.4229 15.3302L18.5342 15.1544C19.6361 13.3322 19.424 11.3424 18.1865 9.81749L19.3516 8.87217ZM19.3516 8.87217L18.1865 9.81749L17.7139 9.23546L18.8789 8.29014L19.3516 8.87217Z" fill="#161616"/>
</svg>
