<svg width="24" height="24" viewBox="0 0 24 24" fill="none" xmlns="http://www.w3.org/2000/svg">
<path d="M11.5537 17.3946C11.8519 17.1587 12.2862 17.1823 12.5566 17.461C12.8448 17.7583 12.8372 18.2332 12.54 18.5215L12.5234 18.5381C12.2263 18.8265 11.7514 18.8195 11.4629 18.5225C11.1744 18.2253 11.1813 17.7505 11.4785 17.462L11.4961 17.4444L11.5537 17.3946ZM8.4834 14.5557C10.3675 12.7271 13.3776 12.6695 15.332 14.3839L15.5176 14.5557L16.0557 15.0782L15.0107 16.1544L14.4727 15.6319L14.3428 15.5118C12.9722 14.3104 10.8487 14.3504 9.52832 15.6319L8.99023 16.1544L7.94531 15.0782L8.4834 14.5557ZM5.48926 11.6485C8.97575 8.2651 14.5521 8.15969 18.1689 11.3321L18.5127 11.6485L19.0508 12.171L18.0059 13.2481L17.4678 12.7256L17.1797 12.459C14.1466 9.79987 9.45577 9.88917 6.5332 12.7256L5.99512 13.2481L4.95117 12.171L5.48926 11.6485ZM2.47754 9.08014C7.65695 4.0533 15.9954 3.97486 21.2734 8.84479L21.5225 9.08014L22.0605 9.6026L21.0156 10.6788L20.4775 10.1563L20.2559 9.94635C15.5611 5.61569 8.12881 5.68575 3.52246 10.1563L2.98438 10.6788L1.93945 9.6026L2.47754 9.08014Z" fill="#161616"/>
</svg>
