<svg width="100%" height="100%" overflow="visible" style="display: block;" viewBox="0 0 26.8281 17.9996" fill="none" xmlns="http://www.w3.org/2000/svg">
<path id="Icon (Stroke)" d="M12.819 16.1925C13.2165 15.8779 13.7956 15.9094 14.1563 16.281C14.5405 16.6774 14.5303 17.3106 14.1341 17.6951L14.112 17.7172C13.7158 18.1017 13.0826 18.0923 12.6979 17.6964C12.3133 17.3 12.3224 16.6669 12.7188 16.2823L12.7422 16.2589L12.819 16.1925ZM8.72526 12.4073C11.2374 9.96916 15.2508 9.89235 17.8568 12.1781L18.1042 12.4073L18.8216 13.1039L17.4284 14.5388L16.7109 13.8422L16.5378 13.682C14.7104 12.0801 11.879 12.1336 10.1185 13.8422L9.40104 14.5388L8.00781 13.1039L8.72526 12.4073ZM4.73307 8.53101C9.38173 4.0198 16.8169 3.87926 21.6393 8.10913L22.0977 8.53101L22.8151 9.22762L21.4219 10.6638L20.7044 9.96721L20.3203 9.61174C16.2762 6.06616 10.0218 6.18524 6.125 9.96721L5.40755 10.6638L4.01563 9.22762L4.73307 8.53101ZM0.717448 5.10653C7.62333 -1.59593 18.7413 -1.70051 25.7786 4.79273L26.1107 5.10653L26.8281 5.80314L25.4349 7.23804L24.7174 6.54142L24.4219 6.26148C18.1622 0.487258 8.25247 0.580671 2.11068 6.54142L1.39323 7.23804L0 5.80314L0.717448 5.10653Z" fill="var(--fill-0, #161616)"/>
</svg>
