<svg width="24" height="24" viewBox="0 0 24 24" fill="none" xmlns="http://www.w3.org/2000/svg">
<path d="M19.7352 11.4484C19.7352 10.9071 19.7344 10.546 19.7118 10.2687C19.6899 10.0003 19.6514 9.87665 19.6114 9.798C19.5024 9.58371 19.3282 9.40914 19.1143 9.29995C19.0358 9.25992 18.9122 9.22128 18.6445 9.19936C18.3677 9.17671 18.0073 9.17593 17.4671 9.17593H6.53296C5.99274 9.17593 5.63233 9.17671 5.35553 9.19936C5.08783 9.22128 4.96427 9.25992 4.88572 9.29995C4.67184 9.40914 4.49761 9.58371 4.38863 9.798C4.34863 9.87665 4.31014 10.0003 4.28823 10.2687C4.26562 10.546 4.26484 10.9071 4.26484 11.4484V17.6818C4.26484 18.2231 4.26562 18.5841 4.28823 18.8615C4.31014 19.1299 4.34863 19.2535 4.38863 19.3322C4.49761 19.5465 4.67184 19.721 4.88572 19.8302C4.96426 19.8703 5.08781 19.9089 5.35553 19.9308C5.63233 19.9535 5.99274 19.9542 6.53296 19.9542H17.4671C18.0073 19.9542 18.3677 19.9535 18.6445 19.9308C18.9122 19.9089 19.0358 19.8703 19.1143 19.8302C19.3282 19.721 19.5024 19.5465 19.6114 19.3322C19.6514 19.2535 19.6899 19.1299 19.7118 18.8615C19.7344 18.5841 19.7352 18.2231 19.7352 17.6818V11.4484ZM16.3667 13.3488C16.9818 13.4114 17.4622 13.9327 17.4622 14.5656C17.462 15.2404 16.9155 15.7873 16.2419 15.7873C15.6101 15.7873 15.0907 15.3061 15.0284 14.6896L15.0216 14.5656L15.0284 14.4406C15.0907 13.8241 15.6101 13.3429 16.2419 13.3429L16.3667 13.3488ZM15.0216 5.12124C15.0216 4.71397 15.0208 4.45993 15.004 4.27554C14.9952 4.17839 14.9836 4.13151 14.9787 4.1144C14.9518 4.08089 14.9151 4.05712 14.8734 4.04702C14.855 4.04991 14.8075 4.05991 14.7175 4.09194C14.5434 4.15394 14.3125 4.25925 13.9436 4.42983L6.92576 7.67593H15.0216V5.12124ZM16.5187 7.67593H17.4671C17.9826 7.67593 18.4145 7.67545 18.7664 7.70425C19.127 7.73377 19.4699 7.79822 19.7947 7.96401C20.2901 8.21702 20.6924 8.62093 20.9448 9.11733C21.1102 9.44267 21.1746 9.78533 21.2041 10.1466C21.2328 10.4992 21.2323 10.9319 21.2323 11.4484V17.6818C21.2323 18.1983 21.2328 18.6309 21.2041 18.9835C21.1746 19.3449 21.1102 19.6875 20.9448 20.0128C20.6924 20.5092 20.29 20.9131 19.7947 21.1662C19.4699 21.3319 19.127 21.3964 18.7664 21.4259C18.4145 21.4547 17.9826 21.4542 17.4671 21.4542H6.53296C6.01747 21.4542 5.58558 21.4547 5.23369 21.4259C4.87302 21.3964 4.53014 21.3319 4.20539 21.1662C3.70999 20.9131 3.30769 20.5092 3.05525 20.0128C2.88981 19.6875 2.82545 19.3449 2.79598 18.9835C2.76722 18.6309 2.76771 18.1983 2.76771 17.6818V10.3595C2.76771 9.71562 2.75739 9.20893 2.91976 8.75112C3.05424 8.37207 3.27396 8.02839 3.56111 7.74722C3.90799 7.40776 4.37139 7.20455 4.95493 6.93472L13.3168 3.0685C13.6596 2.91002 13.9627 2.7682 14.2165 2.67788C14.4703 2.58752 14.7777 2.50879 15.1112 2.56557C15.5625 2.64251 15.9635 2.89926 16.2224 3.27749C16.4137 3.55708 16.4708 3.87 16.4953 4.13882C16.5198 4.40752 16.5187 4.74303 16.5187 5.12124V7.67593Z" fill="#161616"/>
</svg>
