<svg width="24" height="24" viewBox="0 0 24 24" fill="none" xmlns="http://www.w3.org/2000/svg">
<path d="M17 2.25C18.5188 2.25 19.75 3.48122 19.75 5V13C19.75 14.5188 18.5188 15.75 17 15.75H16.75V20C16.75 20.9665 15.9665 21.75 15 21.75H9C8.0335 21.75 7.25 20.9665 7.25 20V15.75H7C5.48122 15.75 4.25 14.5188 4.25 13V5C4.25 3.48122 5.48122 2.25 7 2.25H17ZM8.75 20C8.75 20.1381 8.86193 20.25 9 20.25H15C15.1381 20.25 15.25 20.1381 15.25 20V15.75H8.75V20ZM11.25 18.75H9.75V17.25H11.25V18.75ZM14.25 18.75H12.75V17.25H14.25V18.75ZM7 3.75C6.30964 3.75 5.75 4.30964 5.75 5V13C5.75 13.6904 6.30964 14.25 7 14.25H17C17.6904 14.25 18.25 13.6904 18.25 13V5C18.25 4.30964 17.6904 3.75 17 3.75H7ZM10.0986 5.00488C10.6028 5.05621 10.9961 5.48232 10.9961 6V8L10.9912 8.10254C10.9399 8.60667 10.5138 9 9.99609 9H7.99609C7.44381 9 6.99609 8.55228 6.99609 8V6C6.99609 5.44772 7.44381 5 7.99609 5H9.99609L10.0986 5.00488ZM8.2959 7.7002H9.69629V6.2998H8.2959V7.7002Z" fill="#161616"/>
</svg>
