<svg width="24" height="24" viewBox="0 0 24 24" fill="none" xmlns="http://www.w3.org/2000/svg">
<path d="M8.46378 5.1284C10.0342 2.57319 13.6776 2.49288 15.3778 4.88817L15.536 5.1284L15.5546 5.16063L21.2245 15.5122C21.5905 16.1183 21.9151 16.9645 21.6571 17.854C21.1556 19.5834 19.562 20.8501 17.6698 20.8501H6.32999C4.4378 20.8501 2.84425 19.5834 2.34268 17.854C2.08475 16.9645 2.40935 16.1183 2.7753 15.5122L8.44522 5.16063L8.46378 5.1284ZM14.247 5.89696C13.2088 4.23462 10.7898 4.23433 9.75186 5.89696L4.09073 16.2329C4.08472 16.2439 4.07774 16.2545 4.0712 16.2651C3.78514 16.7306 3.69464 17.1305 3.78311 17.436L3.85147 17.6401C4.23246 18.6407 5.1996 19.3501 6.32999 19.3501H17.6698C18.8756 19.3501 19.8957 18.5427 20.2167 17.436C20.3052 17.1305 20.2147 16.7306 19.9286 16.2651C19.9221 16.2545 19.9151 16.2439 19.9091 16.2329L14.247 5.89696ZM11.2499 15.5278H12.7499V17.0679H11.2499V15.5278ZM11.2499 7.61962H12.7499V13.6616H11.2499V7.61962Z" fill="#161616"/>
</svg>
