<svg width="24" height="24" viewBox="0 0 24 24" fill="none" xmlns="http://www.w3.org/2000/svg">
<path d="M18.9316 20.0146V21.5146H5.06836V20.0146H18.9316ZM18.9316 3.98535H5.06836V21.5146L4.91504 21.5068C4.20905 21.4352 3.64785 20.874 3.57617 20.168L3.56836 20.0146V3.98535C3.56836 3.15692 4.23993 2.48535 5.06836 2.48535H18.9316C19.7601 2.48535 20.4316 3.15692 20.4316 3.98535V20.0146L20.4238 20.168C20.3521 20.874 19.791 21.4352 19.085 21.5068L18.9316 21.5146V3.98535Z" fill="#161616"/>
<path d="M7.86621 16.857H16.1338V7.14218H7.86621V16.857ZM17.6338 17.357C17.6338 17.9093 17.1861 18.357 16.6338 18.357H7.36621C6.81393 18.357 6.36621 17.9093 6.36621 17.357V6.64218C6.36621 6.1245 6.75954 5.69839 7.26367 5.64706L7.36621 5.64218H16.6338C17.1861 5.64218 17.6338 6.08989 17.6338 6.64218V17.357Z" fill="#161616"/>
<path d="M12.8499 18.357H11.3499L11.3499 5.64218H12.8499L12.8499 18.357Z" fill="#161616"/>
</svg>
