<svg width="24" height="24" viewBox="0 0 24 24" fill="none" xmlns="http://www.w3.org/2000/svg">
<path d="M15.75 7.7373C15.75 6.66806 15.3463 5.64933 14.6387 4.9043C13.9321 4.16053 12.9818 3.75 12 3.75C11.0182 3.75 10.0679 4.16053 9.36133 4.9043C8.65375 5.64933 8.25 6.66806 8.25 7.7373V12.4736C8.25 13.543 8.65362 14.5616 9.36133 15.3066C10.0679 16.0504 11.0182 16.4609 12 16.4609C12.9818 16.4609 13.9321 16.0504 14.6387 15.3066C15.3464 14.5616 15.75 13.543 15.75 12.4736V7.7373ZM13.0498 7.5C13.0498 6.9201 12.5799 6.4502 12 6.4502C11.4201 6.4502 10.9502 6.9201 10.9502 7.5C10.9502 8.0799 11.4201 8.5498 12 8.5498C12.5799 8.5498 13.0498 8.0799 13.0498 7.5ZM17.25 12.4736C17.25 13.9168 16.7056 15.3083 15.7256 16.3398C14.9209 17.1869 13.8752 17.7337 12.75 17.9033V20.25H14.5498V21.75H9.4502V20.25H11.25V17.9033C10.1248 17.7337 9.07915 17.1869 8.27441 16.3398C7.29441 15.3083 6.75 13.9168 6.75 12.4736V7.7373C6.75 6.29419 7.29445 4.90267 8.27441 3.87109C9.25566 2.8382 10.5948 2.25 12 2.25C13.4052 2.25 14.7443 2.8382 15.7256 3.87109C16.7056 4.90267 17.25 6.29419 17.25 7.7373V12.4736ZM14.5498 7.5C14.5498 8.90833 13.4083 10.0498 12 10.0498C10.5917 10.0498 9.4502 8.90833 9.4502 7.5C9.4502 6.09167 10.5917 4.9502 12 4.9502C13.4083 4.9502 14.5498 6.09167 14.5498 7.5Z" fill="#161616"/>
</svg>
