<svg width="24" height="24" viewBox="0 0 24 24" fill="none" xmlns="http://www.w3.org/2000/svg">
<path d="M10.1642 13.0849C10.5799 13.0849 10.9168 13.4219 10.9169 13.8374V20.2472C10.9169 20.6628 10.5799 20.9997 10.1642 20.9997H3.75301C3.33734 20.9997 3.00037 20.6628 3.00037 20.2472V13.8374C3.00045 13.4219 3.33739 13.0849 3.75301 13.0849H10.1642ZM4.50566 19.4948H9.41159V14.5899H4.50566V19.4948ZM10.1642 2.99988C10.5799 2.99988 10.9169 3.33678 10.9169 3.75236V10.1622C10.9169 10.5778 10.5799 10.9147 10.1642 10.9147H3.75301C3.33734 10.9147 3.00037 10.5778 3.00037 10.1622V3.75236C3.00037 3.33678 3.33734 2.99988 3.75301 2.99988H10.1642ZM20.2476 2.99988C20.6632 2.99988 21.0002 3.33678 21.0002 3.75236V10.1622C21.0002 10.5778 20.6632 10.9147 20.2476 10.9147H13.8363C13.4207 10.9146 13.0837 10.5777 13.0837 10.1622V3.75236C13.0837 3.33683 13.4207 2.99996 13.8363 2.99988H20.2476ZM14.589 9.40971H19.4949V4.50485H14.589V9.40971ZM4.50566 9.40971H9.41159V4.50485H4.50566V9.40971Z" fill="#161616"/>
<path d="M20.2477 13.0851C20.6634 13.0851 21.0004 13.422 21.0004 13.8376V20.2474C21.0004 20.663 20.6634 20.9999 20.2477 20.9999H13.8365C13.4208 20.9999 13.0838 20.663 13.0838 20.2474V13.8376C13.0838 13.422 13.4208 13.0851 13.8365 13.0851H20.2477ZM14.5891 19.4949H19.4951V14.59H14.5891V19.4949Z" fill="#161616"/>
</svg>
