<svg width="24" height="24" viewBox="0 0 24 24" fill="none" xmlns="http://www.w3.org/2000/svg">
<path d="M19.5 18.5V20H4.5V18.5H19.5ZM19.5 5.5H4.5V20L4.34668 19.9922C3.59028 19.9154 3 19.2767 3 18.5V5.5C3 4.67157 3.67157 4 4.5 4H19.5C20.3284 4 21 4.67157 21 5.5V18.5C21 19.2767 20.4097 19.9154 19.6533 19.9922L19.5 20V5.5Z" fill="#161616"/>
<path d="M20 8.91602V10.416H4V8.91602H20Z" fill="#161616"/>
<path d="M20 13.5879V15.0879H4V13.5879H20Z" fill="#161616"/>
<path d="M10.1426 19.4316H8.64258V15.0879H10.1426V19.4316Z" fill="#161616"/>
<path d="M10.1426 9.61523H8.64258V5.27148L10.1426 5.27148V9.61523Z" fill="#161616"/>
<path d="M15.4414 13.959H13.9414V9.61523H15.4414V13.959Z" fill="#161616"/>
</svg>
