<svg width="24" height="24" viewBox="0 0 24 24" fill="none" xmlns="http://www.w3.org/2000/svg">
<path d="M14.9502 17.5503C14.9502 16.9428 14.4571 16.4497 13.8496 16.4497H2.75V14.9497H13.8496C15.2855 14.9497 16.4502 16.1144 16.4502 17.5503C16.4501 18.9861 15.2855 20.1499 13.8496 20.1499C13.0797 20.1498 12.387 19.8143 11.9121 19.2837L13.0303 18.2837C13.2327 18.5096 13.5243 18.6498 13.8496 18.6499C14.4571 18.6499 14.9501 18.1577 14.9502 17.5503ZM20.5 9.2251C20.5 8.10672 19.593 7.19971 18.4746 7.19971C17.8751 7.19982 17.3376 7.46014 16.9658 7.87549L16.4062 7.37549L15.8477 6.87451C16.4919 6.15474 17.4308 5.69982 18.4746 5.69971C20.4214 5.69971 22 7.2783 22 9.2251C22 11.1719 20.4214 12.7505 18.4746 12.7505H2.75V11.2505H18.4746C19.593 11.2505 20.5 10.3435 20.5 9.2251ZM12.1748 6.44971C12.1746 5.84243 11.6825 5.3502 11.0752 5.3501C10.7495 5.3501 10.4574 5.49105 10.2549 5.71729L9.1377 4.71631C9.61269 4.18581 10.3053 3.8501 11.0752 3.8501C12.5109 3.8502 13.6746 5.01401 13.6748 6.44971C13.6748 7.88558 12.5111 9.05019 11.0752 9.05029H2.75V7.55029H11.0752C11.6826 7.55019 12.1748 7.05716 12.1748 6.44971Z" fill="#161616"/>
</svg>
