<svg width="24" height="24" viewBox="0 0 24 24" fill="none" xmlns="http://www.w3.org/2000/svg">
<path fill-rule="evenodd" clip-rule="evenodd" d="M16.8428 2.5C17.2409 2.50044 17.6232 2.65936 17.9043 2.94141L21.0625 6.11133C21.6466 6.69761 21.646 7.6465 21.0605 8.23145L8.21875 21.0615C7.93751 21.3424 7.55569 21.5 7.1582 21.5H4C3.17157 21.5 2.5 20.8284 2.5 20V16.8301C2.50002 16.4321 2.65788 16.0499 2.93945 15.7686L15.7812 2.93848L15.8916 2.83887C16.1587 2.62034 16.4946 2.49967 16.8428 2.5ZM4 16.8301V20H7.1582L17.0215 10.1445L13.8584 6.98047L4 16.8301ZM14.9189 5.91992L18.083 9.08496L20 7.16992L16.8418 4L14.9189 5.91992Z" fill="#161616"/>
</svg>
