<svg width="24" height="24" viewBox="0 0 24 24" fill="none" xmlns="http://www.w3.org/2000/svg">
<path d="M11.4658 17.4443C11.7631 17.1562 12.238 17.1638 12.5264 17.4609C12.8146 17.7582 12.8069 18.2331 12.5098 18.5215L12.4932 18.5381C12.196 18.8265 11.7211 18.8194 11.4326 18.5225C11.1441 18.2252 11.151 17.7504 11.4482 17.4619L11.4658 17.4443ZM8.45312 14.5557C9.80829 13.2404 11.7409 12.8454 13.4395 13.3545C13.836 13.4735 14.0611 13.8915 13.9424 14.2881C13.8235 14.6848 13.4055 14.9098 13.0088 14.791C11.8025 14.4294 10.4421 14.7156 9.49805 15.6318L8.95996 16.1543L7.91504 15.0781L8.45312 14.5557ZM9.15234 9.45703C9.54783 9.33389 9.96865 9.55471 10.0918 9.9502C10.2147 10.3456 9.99398 10.7656 9.59863 10.8887C8.46544 11.2415 7.40088 11.8541 6.50293 12.7256L5.96484 13.248L4.9209 12.1709L5.45898 11.6494C6.5317 10.6083 7.8027 9.87735 9.15234 9.45703ZM6.25781 6.48145C6.63482 6.3102 7.07957 6.47654 7.25098 6.85352C7.42239 7.23057 7.25498 7.67524 6.87793 7.84668C5.65232 8.40398 4.50442 9.17386 3.49219 10.1562L2.9541 10.6787L1.90918 9.60254L2.44727 9.08008C3.58618 7.97471 4.87902 7.10836 6.25781 6.48145Z" fill="black" fill-opacity="0.3"/>
<path d="M18.0928 18.041L17.0059 19.0742L16.4883 18.5312L3.59668 4.97363L4.68359 3.93945L18.0928 18.041Z" fill="#E76067"/>
<mask id="mask0_525_3603" style="mask-type:alpha" maskUnits="userSpaceOnUse" x="1" y="5" width="22" height="14">
<path d="M11.4658 17.4443C11.7631 17.1561 12.238 17.1638 12.5264 17.4609C12.8146 17.7582 12.8069 18.2331 12.5098 18.5214L12.4932 18.538C12.196 18.8264 11.7211 18.8194 11.4326 18.5224C11.1441 18.2252 11.151 17.7503 11.4482 17.4619L11.4658 17.4443ZM8.45312 14.5556C10.398 12.668 13.5424 12.668 15.4873 14.5556L16.0254 15.0781L14.9805 16.1543L14.4424 15.6318C13.0794 14.3091 10.8609 14.309 9.49805 15.6318L8.95996 16.1543L7.91504 15.0781L8.45312 14.5556ZM5.45898 11.6484C9.0578 8.15598 14.8837 8.15576 18.4824 11.6484L19.0205 12.1709L17.9756 13.248L17.4375 12.7255C14.4206 9.79756 9.51978 9.79756 6.50293 12.7255L5.96484 13.248L4.9209 12.1709L5.45898 11.6484ZM2.44727 9.08003C7.7088 3.97348 16.2306 3.97348 21.4922 9.08003L22.0303 9.60249L20.9854 10.6787L20.4473 10.1562C15.7677 5.61458 8.17175 5.61458 3.49219 10.1562L2.9541 10.6787L1.90918 9.60249L2.44727 9.08003Z" fill="#161616"/>
</mask>
<g mask="url(#mask0_525_3603)">
<path d="M6.85938 4.00006L19.2344 17.0141L22.7203 9.46741L16.4799 3.31079L6.85938 4.00006Z" fill="black" fill-opacity="0.3"/>
</g>
</svg>
