<svg width="100%" height="100%" overflow="visible" style="display: block;" viewBox="0 0 24.6667 21.3659" fill="none" xmlns="http://www.w3.org/2000/svg">
<path id="Icon (Stroke)" d="M0 10.6836C0 6.11739 2.4817 2.13103 6.16536 0L7.16797 1.73177C4.07672 3.51996 2 6.86006 2 10.6836C2.00021 14.5069 4.07687 17.846 7.16797 19.6341L6.16536 21.3659C2.48189 19.2349 0.000207798 15.2495 0 10.6836ZM22.6667 10.6836C22.6667 6.86006 20.5899 3.51996 17.4987 1.73177L18.5013 0C22.185 2.13103 24.6667 6.11739 24.6667 10.6836C24.6665 15.2495 22.1848 19.2349 18.5013 21.3659L17.4987 19.6341C20.5898 17.846 22.6665 14.5069 22.6667 10.6836ZM5.66667 10.6836C5.66667 8.17221 7.05589 5.98609 9.10286 4.85026L10.0729 6.59896C8.63569 7.39649 7.66667 8.92792 7.66667 10.6836C7.66688 12.439 8.63588 13.9695 10.0729 14.7669L9.58854 15.6419L9.10286 16.5156C7.05605 15.3799 5.66688 13.1947 5.66667 10.6836ZM17 10.6836C17 8.92792 16.031 7.39649 14.5937 6.59896L15.5638 4.85026C17.6108 5.98609 19 8.17221 19 10.6836C18.9998 13.1947 17.6106 15.3799 15.5638 16.5156L15.0781 15.6419L14.5937 14.7669C16.0308 13.9695 16.9998 12.439 17 10.6836ZM12.3333 9.68359L12.4362 9.6888C12.9401 9.74032 13.3333 10.1661 13.3333 10.6836C13.333 11.2009 12.94 11.6269 12.4362 11.6784L12.3333 11.6836H12.2669C11.7148 11.6836 11.2672 11.2356 11.2669 10.6836C11.2669 10.1313 11.7146 9.68359 12.2669 9.68359H12.3333Z" fill="var(--fill-0, #161616)"/>
</svg>
