<svg width="24" height="24" viewBox="0 0 24 24" fill="none" xmlns="http://www.w3.org/2000/svg">
<path d="M16 12.75C16.4142 12.75 16.75 13.0858 16.75 13.5V21.5C16.75 21.9142 16.4142 22.25 16 22.25H8C7.58579 22.25 7.25 21.9142 7.25 21.5V13.5C7.25 13.0858 7.58579 12.75 8 12.75H16ZM8.75 20.75H15.25V14.25H8.75V20.75Z" fill="#161616"/>
<path d="M20.75 8.98633C20.75 8.32652 20.7492 7.89065 20.7129 7.55566C20.6785 7.23888 20.6178 7.08242 20.541 6.9668C20.4643 6.85119 20.344 6.73465 20.0654 6.58008C19.7708 6.41657 19.3691 6.24639 18.7607 5.99023L13.2607 3.6748C12.4381 3.32841 12.2172 3.25 12 3.25C11.7829 3.25 11.562 3.32841 10.7393 3.6748L5.23926 5.99023C4.6309 6.24639 4.22926 6.41657 3.93457 6.58008C3.65602 6.73465 3.53574 6.8512 3.45899 6.9668C3.38224 7.08242 3.32147 7.23888 3.28711 7.55566C3.25082 7.89065 3.25 8.32652 3.25 8.98633V20.75H4.75V9.87109C4.75015 9.45701 5.08588 9.12109 5.5 9.12109H18.5C18.9141 9.12109 19.2499 9.45701 19.25 9.87109V20.75H20.75V8.98633ZM22.25 21.5C22.25 21.9142 21.9142 22.25 21.5 22.25H18.5C18.0858 22.25 17.75 21.9142 17.75 21.5V10.6211H6.25V21.5C6.25 21.9142 5.91422 22.25 5.5 22.25H2.5C2.08579 22.25 1.75 21.9142 1.75 21.5V8.98633C1.75 8.35879 1.74878 7.82802 1.7959 7.39355C1.84499 6.9409 1.95193 6.52387 2.20899 6.13672C2.46603 5.74959 2.80893 5.48945 3.20703 5.26855C3.58906 5.05659 4.0781 4.85183 4.65625 4.6084L10.1563 2.29199C10.8644 1.99382 11.4094 1.75 12 1.75C12.5906 1.75 13.1356 1.99382 13.8438 2.29199L19.3438 4.6084C19.9219 4.85183 20.4109 5.05659 20.793 5.26855C21.1911 5.48945 21.534 5.74959 21.791 6.13672C22.0481 6.52387 22.155 6.9409 22.2041 7.39355C22.2512 7.82802 22.25 8.35879 22.25 8.98633V21.5Z" fill="#161616"/>
<path d="M13.75 6.33639V7.83639H10.25V6.33639H13.75Z" fill="#161616"/>
</svg>
