<svg width="24" height="24" viewBox="0 0 24 24" fill="none" xmlns="http://www.w3.org/2000/svg">
<path d="M16.2434 17.7471H12.9883V16.2471H16.2434V12.9951H17.7449V16.2471H21V17.7471H17.7449V21H16.2434V17.7471ZM10.1456 13.0518C10.5602 13.0518 10.8963 13.3876 10.8964 13.8018V20.1904C10.8964 20.6046 10.5603 20.9404 10.1456 20.9404H3.75073C3.33611 20.9404 3 20.6046 3 20.1904V13.8018L3.00391 13.7256C3.04219 13.3472 3.36191 13.0518 3.75073 13.0518H10.1456ZM4.50147 19.4404H9.39492V14.5518H4.50147V19.4404ZM10.1456 3L10.2229 3.00391C10.6013 3.04249 10.8964 3.36181 10.8964 3.75V10.1387C10.8964 10.5529 10.5603 10.8887 10.1456 10.8887H3.75073C3.33611 10.8887 3 10.5529 3 10.1387V3.75L3.00391 3.67285C3.04257 3.29488 3.36219 3 3.75073 3H10.1456ZM20.2033 3L20.2805 3.00391C20.659 3.04242 20.9541 3.36176 20.9541 3.75V10.1387C20.9541 10.5529 20.6179 10.8887 20.2033 10.8887H13.8084C13.3939 10.8886 13.0577 10.5528 13.0577 10.1387V3.75L13.0616 3.67285C13.1002 3.29492 13.4199 3.00007 13.8084 3H20.2033ZM14.5591 9.38867H19.4526V4.5H14.5591V9.38867ZM4.50147 9.38867H9.39492V4.5H4.50147V9.38867Z" fill="#161616"/>
</svg>
