<svg width="24" height="24" viewBox="0 0 24 24" fill="none" xmlns="http://www.w3.org/2000/svg">
<path d="M19.75 12.0002C19.75 10.4215 19.7486 9.30969 19.6396 8.46899C19.5331 7.64753 19.3354 7.19871 19.0264 6.87817C18.9406 6.78923 18.7066 6.64985 18.2227 6.52271C17.7633 6.40204 17.1754 6.31592 16.4951 6.25708C15.1346 6.13943 13.5111 6.13892 12 6.13892C10.4889 6.13892 8.86544 6.13943 7.50488 6.25708C6.82457 6.31592 6.23674 6.40204 5.77734 6.52271C5.2934 6.64985 5.0594 6.78923 4.97363 6.87817C4.66463 7.19871 4.46689 7.64753 4.36035 8.46899C4.25136 9.30969 4.25 10.4215 4.25 12.0002C4.25 13.5787 4.25139 14.6899 4.36035 15.5305C4.4669 16.3524 4.66449 16.8017 4.97363 17.1223C5.05945 17.2113 5.29342 17.3507 5.77734 17.4778C6.23674 17.5985 6.82457 17.6836 7.50488 17.7424C8.86545 17.8601 10.4889 17.8616 12 17.8616C13.5111 17.8616 15.1345 17.8601 16.4951 17.7424C17.1754 17.6836 17.7633 17.5985 18.2227 17.4778C18.7066 17.3507 18.9406 17.2113 19.0264 17.1223C19.3355 16.8017 19.5331 16.3524 19.6396 15.5305C19.7486 14.6899 19.75 13.5787 19.75 12.0002ZM10.5713 8.07446C11.0467 7.81552 11.5387 7.98179 11.8467 8.20923L11.8691 8.22583L11.8896 8.24438L15.1211 11.0208C15.4156 11.2323 15.718 11.5778 15.7188 12.0686C15.7193 12.5593 15.4157 12.9152 15.1299 13.1379L15.1309 13.1389L11.9141 15.7639L11.8818 15.7903L11.8467 15.8127C11.5697 15.9915 11.0521 16.2132 10.5488 15.8997C10.0954 15.6172 10.0005 15.0979 9.9834 14.7629L9.98242 14.7444V14.7268L9.96875 9.23267V9.23169C9.96455 8.82902 10.1019 8.33015 10.5713 8.07446ZM11.4805 14.1799L14.0537 12.0803L11.4697 9.86157L11.4805 14.1799ZM14.2744 12.054L14.3174 12.1116L14.6572 11.6096L14.2744 12.054ZM14.3174 12.1116L14.2744 12.054L14.6572 11.6096L14.3174 12.1116ZM21.25 12.0002C21.25 13.5379 21.2514 14.7643 21.127 15.7239C21.0001 16.7021 20.7307 17.5159 20.1064 18.1633C19.7255 18.5584 19.156 18.7828 18.6035 18.928C18.0263 19.0796 17.3438 19.1754 16.625 19.2375C15.1871 19.3619 13.494 19.3616 12 19.3616C10.506 19.3616 8.81288 19.3619 7.375 19.2375C6.65618 19.1754 5.97367 19.0796 5.39649 18.928C4.84398 18.7828 4.27455 18.5584 3.89356 18.1633C3.26931 17.5159 2.99991 16.7021 2.87305 15.7239C2.74865 14.7643 2.75 13.5379 2.75 12.0002C2.75 10.4625 2.74865 9.2362 2.87305 8.27661C2.9999 7.29815 3.2691 6.48376 3.89356 5.83618C4.27457 5.4411 4.84399 5.21666 5.39649 5.07153C5.97366 4.91993 6.6562 4.82512 7.375 4.76294C8.81288 4.63858 10.506 4.63892 12 4.63892C13.494 4.63892 15.1871 4.63858 16.625 4.76294C17.3438 4.82512 18.0263 4.91993 18.6035 5.07153C19.156 5.21666 19.7254 5.4411 20.1064 5.83618C20.7309 6.48376 21.0001 7.29815 21.127 8.27661C21.2513 9.2362 21.25 10.4625 21.25 12.0002Z" fill="#161616"/>
</svg>
