<svg width="24" height="24" viewBox="0 0 24 24" fill="none" xmlns="http://www.w3.org/2000/svg">
<path d="M18.245 11.2949C18.245 7.45661 15.1331 4.34483 11.2948 4.34473C7.45642 4.34473 4.3446 7.45654 4.3446 11.2949C4.34471 15.1332 7.45649 18.2451 11.2948 18.2451C15.133 18.245 18.2449 15.1331 18.245 11.2949ZM10.5057 12.0059H7.55847V10.5059H10.5057V7.55859H12.0057V10.5059H14.952V12.0059H12.0057V14.9521H10.5057V12.0059ZM19.745 11.2949C19.7449 13.3823 18.9857 15.2913 17.7313 16.7656L21.1552 20.0771L20.1122 21.1553L16.6639 17.8193C15.2041 19.0221 13.3339 19.7451 11.2948 19.7451C6.62806 19.7451 2.84471 15.9616 2.8446 11.2949C2.8446 6.62812 6.62799 2.84473 11.2948 2.84473C15.9615 2.84483 19.745 6.62818 19.745 11.2949Z" fill="#161616"/>
</svg>
