<svg width="100%" height="100%" overflow="visible" style="display: block;" viewBox="0 0 100 100" fill="none" xmlns="http://www.w3.org/2000/svg">
<g id="-">
<g clip-path="url(#clip0_0_386)">
<path d="M0 50C0 22.3858 22.3858 0 50 0V0C77.6142 0 100 22.3858 100 50V50C100 77.6142 77.6142 100 50 100V100C22.3858 100 0 77.6142 0 50V50Z" fill="var(--fill-0, white)"/>
<circle id="bg" cx="49.9102" cy="50" r="50" fill="var(--fill-0, #F5F4FD)"/>
<path id="Vector (Stroke)" d="M6.95848 93.2988V112.157H-78.9594V93.2988H6.95848ZM-36.0005 -133C16.7977 -133 57.7012 -85.0433 57.7505 -28.3589L58.0574 -0.0224409V0.075779L58.1311 3.26793C58.8507 19.0856 64.8072 32.3626 71.0716 41.6842L72.287 43.8082C74.7011 48.8647 74.281 54.4905 72.7659 58.6394C71.119 63.1484 66.542 69.726 58.1925 69.726H-130.193C-138.543 69.726 -143.12 63.1484 -144.767 58.6394C-146.498 53.8978 -146.797 47.2284 -143.073 41.6842L-140.605 37.7431C-134.915 28.0841 -130.058 15.1491 -130.058 0.075779V-0.0224409L-129.751 -28.3589C-129.702 -85.0433 -88.7987 -133 -36.0005 -133ZM-36.0005 -114.142C-76.3087 -114.142 -110.891 -76.8109 -110.893 -28.2607V-28.1502L-111.2 0.173999C-111.223 21.2401 -118.708 38.7218 -126.584 50.8678H54.5829C46.7067 38.7218 39.2221 21.2401 39.1992 0.173999L38.8922 -28.1502V-28.2607L38.794 -32.7788C36.7255 -79.1078 3.04803 -114.142 -36.0005 -114.142Z" fill="var(--fill-0, #4D469A)" fill-opacity="0.36" stroke="var(--stroke-0, #4D469A)" stroke-opacity="0.8" stroke-width="0.6" stroke-linecap="square"/>
<path id="Vector (Stroke)_2" d="M72.287 43.8097L71.0716 41.6857C68.097 37.2594 65.1918 31.9413 62.8838 25.8828H43C45.9225 35.6678 50.1918 44.0977 54.5829 50.8692H24V69.7275H58.1925C66.542 69.7275 71.119 63.1498 72.7659 58.6409C74.281 54.4919 74.7011 48.8661 72.287 43.8097Z" fill="var(--fill-0, #3A3480)"/>
</g>
<path d="M50 0.5C77.3381 0.5 99.5 22.6619 99.5 50C99.5 77.3381 77.3381 99.5 50 99.5C22.6619 99.5 0.5 77.3381 0.5 50C0.5 22.6619 22.6619 0.5 50 0.5Z" stroke="var(--stroke-0, #282363)"/>
</g>
<defs>
<clipPath id="clip0_0_386">
<path d="M0 50C0 22.3858 22.3858 0 50 0V0C77.6142 0 100 22.3858 100 50V50C100 77.6142 77.6142 100 50 100V100C22.3858 100 0 77.6142 0 50V50Z" fill="white"/>
</clipPath>
</defs>
</svg>
