<svg width="106" height="137.514" viewBox="0 0 106 137.514" fill="none" xmlns="http://www.w3.org/2000/svg">
<g id="Group 2085669262">
<path id="Icon (Stroke)" d="M51.5225 0.299805C64.7708 0.299805 76.4981 6.63677 83.9482 16.4521V16.4531L85.3828 18.4668V18.4678L88.4014 22.9844L79.374 29.0146L76.3623 24.5059L76.3564 24.4971L75.3047 23.0273L75.2998 23.0215L74.7754 22.3496C69.2669 15.4934 60.9059 11.1592 51.5225 11.1592C34.9633 11.1594 21.5017 24.71 21.5 41.7422C21.5 41.8285 21.4911 41.8822 21.4854 42.0039L21.4707 42.3184H88.4531C98.0309 42.3186 105.7 50.2315 105.7 59.752V119.779C105.7 129.3 98.0309 137.214 88.4531 137.214H17.5469C7.96914 137.214 0.300369 129.3 0.299805 119.779V59.752C0.300227 52.6381 4.58118 46.4132 10.7441 43.7256L10.9902 43.6182L10.9102 43.3613C10.7474 42.8408 10.6407 42.3003 10.6406 41.7422C10.6423 18.8743 28.8051 0.299998 51.5225 0.299805ZM17.5469 53.1777C14.128 53.178 11.1598 56.0664 11.1592 59.752V119.779C11.1598 123.465 14.128 126.354 17.5469 126.354H88.4531C91.872 126.354 94.8402 123.465 94.8408 119.779V59.752C94.8402 56.0664 91.872 53.178 88.4531 53.1777H17.5469ZM58.4297 75.1445V101.761H47.5703V75.1445H58.4297Z" fill="var(--fill-0, #B5B1E2)" stroke="var(--stroke-0, #6058B4)" stroke-width="0.6" stroke-linecap="round"/>
<path id="Icon (Stroke)_2" d="M85.9779 18.4062L84.538 16.3844C83.9741 15.641 83.3857 14.9174 82.7742 14.2148L73.3828 20.9098C74.0969 21.6717 74.7724 22.4721 75.4063 23.3078L76.4582 24.7775L79.6364 29.5374L89.1636 23.1735L85.9779 18.4062Z" fill="var(--fill-0, #3A3480)"/>
<path id="Icon (Stroke)_3" d="M58.7515 74.8398H47.2695V84.3798H58.7515V74.8398Z" fill="var(--fill-0, #3A3480)"/>
</g>
</svg>
