<svg width="200" height="200" viewBox="0 0 200 200" fill="none" xmlns="http://www.w3.org/2000/svg">
<g clip-path="url(#clip0_1206_278123)">
<path d="M0 5.55556C0 2.48731 2.48731 0 5.55556 0H194.444C197.513 0 200 2.48731 200 5.55556V194.444C200 197.513 197.513 200 194.444 200H5.55556C2.48731 200 0 197.513 0 194.444V5.55556Z" fill="white"/>
<path d="M0 5.55556C0 2.48731 2.48731 0 5.55556 0H194.444C197.513 0 200 2.48731 200 5.55556V194.444C200 197.513 197.513 200 194.444 200H5.55556C2.48731 200 0 197.513 0 194.444V5.55556Z" fill="#4D469A" fill-opacity="0.1"/>
<rect x="24.8594" y="24.8672" width="150.276" height="150.276" rx="14.4444" stroke="black" stroke-opacity="0.08"/>
<rect x="16.5117" y="16.5117" width="166.974" height="166.974" rx="83.4868" stroke="black" stroke-opacity="0.08"/>
<rect x="58.2539" y="58.2578" width="83.4868" height="83.4868" rx="41.7434" stroke="black" stroke-opacity="0.08"/>
<rect x="16.5117" y="33.2148" width="166.974" height="133.579" rx="14.4444" stroke="black" stroke-opacity="0.08"/>
<rect x="33.207" y="183.484" width="166.974" height="133.579" rx="14.4444" transform="rotate(-90 33.207 183.484)" stroke="black" stroke-opacity="0.08"/>
<path d="M199.823 0.179688L0 200.002" stroke="black" stroke-opacity="0.08"/>
<path d="M0.000465393 0L200 200" stroke="black" stroke-opacity="0.08"/>
<path d="M98.5225 31.542C111.771 31.542 123.498 37.879 130.948 47.6943V47.6953L132.383 49.709V49.71L135.401 54.2266L126.374 60.2568L123.362 55.748L123.356 55.7393L122.305 54.2695L122.3 54.2637L121.775 53.5918C116.267 46.7356 107.906 42.4014 98.5225 42.4014C81.9633 42.4016 68.5017 55.9522 68.5 72.9844C68.5 73.0706 68.4911 73.1244 68.4854 73.2461L68.4707 73.5605H135.453C145.031 73.5608 152.7 81.4737 152.7 90.9941V151.021C152.7 160.542 145.031 168.456 135.453 168.456H64.5469C54.9691 168.456 47.3004 160.542 47.2998 151.021V90.9941C47.3002 83.8802 51.5812 77.6554 57.7441 74.9678L57.9902 74.8604L57.9102 74.6035C57.7474 74.083 57.6407 73.5425 57.6406 72.9844C57.6423 50.1165 75.8051 31.5422 98.5225 31.542ZM64.5469 84.4199C61.128 84.4202 58.1598 87.3086 58.1592 90.9941V151.021C58.1598 154.707 61.128 157.596 64.5469 157.597H135.453C138.872 157.596 141.84 154.707 141.841 151.021V90.9941C141.84 87.3086 138.872 84.4202 135.453 84.4199H64.5469ZM105.43 106.387V133.003H94.5703V106.387H105.43Z" fill="#B5B1E2" stroke="#6058B4" stroke-width="0.6" stroke-linecap="round"/>
<path d="M132.978 49.6484L131.538 47.6266C130.974 46.8832 130.386 46.1596 129.774 45.457L120.383 52.152C121.097 52.9139 121.772 53.7143 122.406 54.55L123.458 56.0197L126.636 60.7796L136.164 54.4157L132.978 49.6484Z" fill="#3A3480"/>
<path d="M105.751 106.082H94.2695V115.622H105.751V106.082Z" fill="#3A3480"/>
<rect opacity="0.12" x="8" y="8" width="184" height="184" stroke="#282363" stroke-width="16"/>
</g>
<path d="M5.55566 0.555664H194.444C197.206 0.555664 199.444 2.79424 199.444 5.55566V194.444C199.444 197.206 197.206 199.444 194.444 199.444H5.55566C2.79424 199.444 0.555664 197.206 0.555664 194.444V5.55566C0.555664 2.79424 2.79424 0.555664 5.55566 0.555664Z" stroke="#4D469A" stroke-opacity="0.36" stroke-width="1.11111"/>
<defs>
<clipPath id="clip0_1206_278123">
<path d="M0 5.55556C0 2.48731 2.48731 0 5.55556 0H194.444C197.513 0 200 2.48731 200 5.55556V194.444C200 197.513 197.513 200 194.444 200H5.55556C2.48731 200 0 197.513 0 194.444V5.55556Z" fill="white"/>
</clipPath>
</defs>
</svg>
