<svg width="200" height="200" viewBox="0 0 200 200" fill="none" xmlns="http://www.w3.org/2000/svg">
<g clip-path="url(#clip0_1206_278090)">
<path d="M0 5.55556C0 2.48731 2.48731 0 5.55556 0H194.444C197.513 0 200 2.48731 200 5.55556V194.444C200 197.513 197.513 200 194.444 200H5.55556C2.48731 200 0 197.513 0 194.444V5.55556Z" fill="white"/>
<path d="M0 5.55556C0 2.48731 2.48731 0 5.55556 0H194.444C197.513 0 200 2.48731 200 5.55556V194.444C200 197.513 197.513 200 194.444 200H5.55556C2.48731 200 0 197.513 0 194.444V5.55556Z" fill="#4D469A" fill-opacity="0.1"/>
<rect x="24.8594" y="24.8672" width="150.276" height="150.276" rx="14.4444" stroke="black" stroke-opacity="0.08"/>
<rect x="16.5117" y="16.5117" width="166.974" height="166.974" rx="83.4868" stroke="black" stroke-opacity="0.08"/>
<rect x="58.2539" y="58.2578" width="83.4868" height="83.4868" rx="41.7434" stroke="black" stroke-opacity="0.08"/>
<rect x="16.5117" y="33.2148" width="166.974" height="133.579" rx="14.4444" stroke="black" stroke-opacity="0.08"/>
<rect x="33.207" y="183.484" width="166.974" height="133.579" rx="14.4444" transform="rotate(-90 33.207 183.484)" stroke="black" stroke-opacity="0.08"/>
<path d="M199.823 0.179688L0 200.002" stroke="black" stroke-opacity="0.08"/>
<path d="M0.000465393 0L200 200" stroke="black" stroke-opacity="0.08"/>
<path d="M47.5059 126.973V147.204C47.5059 149.07 47.5085 150.177 47.5752 150.994C47.6045 151.353 47.6406 151.558 47.6631 151.659C47.6693 151.687 47.6794 151.715 47.6934 151.74C47.825 151.977 48.0188 152.167 48.25 152.298C48.2753 152.312 48.3027 152.323 48.3311 152.329C48.4245 152.35 48.6293 152.393 49.0049 152.424C49.822 152.491 50.9288 152.493 52.7949 152.493H147.209C149.075 152.493 150.181 152.491 150.998 152.424C151.366 152.394 151.569 152.35 151.664 152.329C151.693 152.323 151.72 152.312 151.745 152.298C151.98 152.166 152.171 151.976 152.303 151.741C152.317 151.716 152.328 151.689 152.334 151.66C152.355 151.565 152.398 151.362 152.428 150.994C152.494 150.177 152.497 149.07 152.497 147.204V126.973H162.336V148.457C162.333 149.681 162.316 150.812 162.235 151.795C162.152 152.818 161.984 153.92 161.588 155.034L161.104 156.161C160.159 158.017 158.722 159.572 156.958 160.657L156.166 161.101C154.675 161.86 153.166 162.12 151.799 162.231C150.489 162.338 148.914 162.332 147.209 162.332H52.7949C51.0901 162.332 49.5144 162.338 48.2041 162.231C47.1822 162.148 46.0815 161.979 44.9678 161.584L43.8291 161.096C41.707 160.012 39.9802 158.284 38.8984 156.161C38.1389 154.67 37.8803 153.162 37.7686 151.795C37.6616 150.485 37.667 148.909 37.667 147.204V126.973H47.5059ZM104.921 32.9717V114.601C104.921 114.722 104.994 114.831 105.106 114.878C105.219 114.924 105.348 114.899 105.434 114.813L138.278 81.9678L145.234 88.9238L103.479 130.68C101.558 132.601 98.4445 132.601 96.5234 130.68L54.7686 88.9248L61.7246 81.9678L94.5703 114.813C94.6561 114.899 94.7855 114.924 94.8975 114.878C95.0093 114.831 95.082 114.722 95.082 114.601V32.9717H104.921Z" fill="#B5B1E2" stroke="#6058B4" stroke-width="0.6" stroke-linecap="square" stroke-linejoin="round"/>
<path d="M159.35 66.9516L101.367 124.934C100.586 125.715 99.32 125.715 98.5389 124.934L40.5562 66.9516" stroke="#282363" stroke-linejoin="round" stroke-dasharray="1 1"/>
<path d="M158.094 60.6875V59.5312L163.188 51.6875H164.922V59.4531H166.5V60.6875H164.922V63H163.578V60.6875H158.094ZM159.609 59.4531H163.578V53.4688H163.438L159.609 59.3594V59.4531ZM172.047 63.1562C170 63.1562 168.453 61.8906 168.375 60.1562H169.734C169.844 61.1719 170.828 61.9219 172.047 61.9219C173.516 61.9219 174.578 60.8438 174.578 59.4219C174.578 57.9531 173.469 56.875 171.953 56.8594C171 56.8438 170.266 57.1406 169.844 57.875H168.484L169.281 51.6875H175.406V52.9375H170.453L170.031 56.25H170.141C170.641 55.8594 171.406 55.5938 172.203 55.5938C174.359 55.5938 175.953 57.1875 175.953 59.3906C175.953 61.5781 174.297 63.1562 172.047 63.1562ZM180.266 56.6875C178.859 56.6875 177.719 55.5469 177.719 54.1562C177.719 52.7344 178.859 51.5938 180.266 51.5938C181.672 51.5938 182.812 52.7344 182.812 54.1562C182.812 55.5469 181.672 56.6875 180.266 56.6875ZM180.266 55.5781C181.047 55.5781 181.688 54.9375 181.688 54.1562C181.688 53.3594 181.047 52.7188 180.266 52.7188C179.469 52.7188 178.828 53.3594 178.828 54.1562C178.828 54.9375 179.469 55.5781 180.266 55.5781Z" fill="#282363"/>
<rect x="93.25" y="31.0078" width="3.33333" height="3.33333" fill="white" stroke="#3A3480" stroke-width="0.694444" stroke-linecap="square"/>
<rect x="45.8906" y="125.355" width="3.33333" height="3.33333" fill="white" stroke="#3A3480" stroke-width="0.694444" stroke-linecap="square"/>
<rect x="45.8906" y="150.043" width="3.33333" height="3.33333" fill="white" stroke="#3A3480" stroke-width="0.694444" stroke-linecap="square"/>
<rect x="149.57" y="150.043" width="3.33333" height="3.33333" fill="white" stroke="#3A3480" stroke-width="0.694444" stroke-linecap="square"/>
<rect x="98.332" y="160.953" width="3.33333" height="3.33333" fill="white" stroke="#3A3480" stroke-width="0.694444" stroke-linecap="square"/>
<rect x="39.3008" y="157.621" width="3.33333" height="3.33333" fill="white" stroke="#3A3480" stroke-width="0.694444" stroke-linecap="square"/>
<rect x="156.652" y="157.621" width="3.33333" height="3.33333" fill="white" stroke="#3A3480" stroke-width="0.694444" stroke-linecap="square"/>
<rect x="98.332" y="150.758" width="3.33333" height="3.33333" fill="white" stroke="#3A3480" stroke-width="0.694444" stroke-linecap="square"/>
<rect x="159.988" y="125.355" width="3.33333" height="3.33333" fill="white" stroke="#3A3480" stroke-width="0.694444" stroke-linecap="square"/>
<rect x="35.9688" y="125.355" width="3.33333" height="3.33333" fill="white" stroke="#3A3480" stroke-width="0.694444" stroke-linecap="square"/>
<rect x="151.238" y="125.355" width="3.33333" height="3.33333" fill="white" stroke="#3A3480" stroke-width="0.694444" stroke-linecap="square"/>
<rect x="143.625" y="87.3594" width="3.33333" height="3.33333" fill="white" stroke="#3A3480" stroke-width="0.694444" stroke-linecap="square"/>
<rect x="136.547" y="80.1406" width="3.33333" height="3.33333" fill="white" stroke="#3A3480" stroke-width="0.694444" stroke-linecap="square"/>
<rect x="59.9766" y="80.1406" width="3.33333" height="3.33333" fill="white" stroke="#3A3480" stroke-width="0.694444" stroke-linecap="square"/>
<rect x="52.6328" y="87.3594" width="3.33333" height="3.33333" fill="white" stroke="#3A3480" stroke-width="0.694444" stroke-linecap="square"/>
<rect x="103.27" y="31.0078" width="3.33333" height="3.33333" fill="white" stroke="#3A3480" stroke-width="0.694444" stroke-linecap="square"/>
<rect opacity="0.12" x="8" y="8" width="184" height="184" stroke="#282363" stroke-width="16"/>
</g>
<path d="M5.55566 0.555664H194.444C197.206 0.555664 199.444 2.79424 199.444 5.55566V194.444C199.444 197.206 197.206 199.444 194.444 199.444H5.55566C2.79424 199.444 0.555664 197.206 0.555664 194.444V5.55566C0.555664 2.79424 2.79424 0.555664 5.55566 0.555664Z" stroke="#4D469A" stroke-opacity="0.36" stroke-width="1.11111"/>
<defs>
<clipPath id="clip0_1206_278090">
<path d="M0 5.55556C0 2.48731 2.48731 0 5.55556 0H194.444C197.513 0 200 2.48731 200 5.55556V194.444C200 197.513 197.513 200 194.444 200H5.55556C2.48731 200 0 197.513 0 194.444V5.55556Z" fill="white"/>
</clipPath>
</defs>
</svg>
