<svg width="24" height="24" viewBox="0 0 24 24" fill="none" xmlns="http://www.w3.org/2000/svg">
<path d="M19 19.5V21H5V19.5H19ZM19.5 19V5C19.5 4.72386 19.2761 4.5 19 4.5H5C4.72386 4.5 4.5 4.72386 4.5 5V19C4.5 19.2761 4.72386 19.5 5 19.5V21L4.7959 20.9893C3.85435 20.8938 3.1062 20.1457 3.01074 19.2041L3 19V5C3 3.89543 3.89543 3 5 3H19C20.1046 3 21 3.89543 21 5V19C21 20.0357 20.2128 20.887 19.2041 20.9893L19 21V19.5C19.2761 19.5 19.5 19.2761 19.5 19Z" fill="#161616"/>
<path d="M14.3287 7.38696L11.0953 17.0872L10.3834 16.8508L9.67149 16.6135L12.9059 6.91235L14.3287 7.38696Z" fill="#161616"/>
<path d="M9.41904 10.1973L7.61631 12L9.41904 13.8027L8.3585 14.8633L6.02549 12.5303C5.88484 12.3896 5.80576 12.1989 5.80576 12C5.80576 11.8011 5.88484 11.6104 6.02549 11.4697L8.3585 9.13672L9.41904 10.1973ZM17.9747 11.4697C18.2674 11.7626 18.2674 12.2374 17.9747 12.5303L15.6417 14.8633L14.5812 13.8027L16.3839 12L14.5812 10.1973L15.6417 9.13672L17.9747 11.4697Z" fill="#161616"/>
</svg>
