<svg width="24" height="24" viewBox="0 0 24 24" fill="none" xmlns="http://www.w3.org/2000/svg">
<path d="M20.25 12C20.25 7.44365 16.5563 3.75 12 3.75C7.44365 3.75 3.75 7.44365 3.75 12C3.75 16.5563 7.44365 20.25 12 20.25C16.5563 20.25 20.25 16.5563 20.25 12ZM21.75 12C21.75 17.3848 17.3848 21.75 12 21.75C6.61522 21.75 2.25 17.3848 2.25 12C2.25 6.61522 6.61522 2.25 12 2.25C17.3848 2.25 21.75 6.61522 21.75 12Z" fill="#161616"/>
<path d="M14.3291 7.38574L11.0957 17.0859L10.3838 16.8496L9.67188 16.6123L12.9062 6.91113L14.3291 7.38574Z" fill="#161616"/>
<path d="M9.41912 10.1953L7.61638 11.998L9.41912 13.8008L8.35857 14.8613L6.02556 12.5283C5.88491 12.3877 5.80584 12.197 5.80584 11.998C5.80584 11.7991 5.88491 11.6084 6.02556 11.4678L8.35857 9.13477L9.41912 10.1953ZM17.9748 11.4678C18.2674 11.7606 18.2674 12.2355 17.9748 12.5283L15.6418 14.8613L14.5812 13.8008L16.384 11.998L14.5812 10.1953L15.6418 9.13477L17.9748 11.4678Z" fill="#161616"/>
</svg>
