<svg width="444" height="200" viewBox="0 0 444 200" fill="none" xmlns="http://www.w3.org/2000/svg">
<g clip-path="url(#clip0_1206_278219)">
<path d="M0 8C0 3.58173 3.58172 0 8 0H436C440.418 0 444 3.58172 444 8V192C444 196.418 440.418 200 436 200H8C3.58172 200 0 196.418 0 192V8Z" fill="black" fill-opacity="0.04"/>
<rect x="42.5" y="40.5" width="763" height="117" rx="7.5" fill="white"/>
<rect x="42.5" y="40.5" width="763" height="117" rx="7.5" stroke="#E0E0E0"/>
<path d="M66 70C66 66.6863 68.6863 64 72 64H108C111.314 64 114 66.6863 114 70V106C114 109.314 111.314 112 108 112H72C68.6863 112 66 109.314 66 106V70Z" fill="#F5F4FD"/>
<path d="M103 80.6654C103 80.5044 102.886 80.3698 102.734 80.3385L102.667 80.332H77.3333C77.1492 80.332 77 80.4813 77 80.6654V95.332C77 95.5161 77.1492 95.6654 77.3333 95.6654H102.667C102.851 95.6654 103 95.5161 103 95.332V80.6654ZM82.3333 90.9987H97.6667V84.9987H82.3333V90.9987ZM100.315 85.9987H102.315V88.9987H100.315V85.9987ZM99.6667 91.332C99.6667 92.2525 98.9205 92.9987 98 92.9987H82C81.0795 92.9987 80.3333 92.2525 80.3333 91.332V84.6654C80.3333 83.7449 81.0795 82.9987 82 82.9987H98C98.9205 82.9987 99.6667 83.7449 99.6667 84.6654V91.332ZM105 95.332C105 96.6207 103.955 97.6654 102.667 97.6654H77.3333C76.0447 97.6654 75 96.6207 75 95.332V80.6654C75 79.3767 76.0447 78.332 77.3333 78.332H102.667L102.905 78.3438C104.082 78.4631 105 79.4571 105 80.6654V95.332Z" fill="#3A3480"/>
<path d="M135.502 82H131.178V69.2734H135.572C139.369 69.2734 141.672 71.6641 141.672 75.6191C141.672 79.5918 139.369 82 135.502 82ZM133.463 80.0137H135.379C138.033 80.0137 139.387 78.5547 139.387 75.6191C139.387 72.7012 138.033 71.2598 135.449 71.2598H133.463V80.0137ZM147.824 82.1934C144.941 82.1934 143.184 80.2773 143.184 77.2891C143.184 74.3359 144.977 72.332 147.701 72.332C150.039 72.332 152.061 73.791 152.061 77.1484V77.8516H145.398C145.425 79.4775 146.383 80.4355 147.842 80.4355C148.826 80.4355 149.494 80.0137 149.775 79.4512H151.973C151.568 81.1035 150.039 82.1934 147.824 82.1934ZM145.416 76.3223H149.916C149.898 75.0215 149.037 74.0723 147.736 74.0723C146.383 74.0723 145.486 75.1006 145.416 76.3223ZM162.045 72.4551L158.635 82H156.174L152.764 72.4551H155.154L157.352 79.5566H157.457L159.672 72.4551H162.045ZM163.451 82V72.4551H165.701V82H163.451ZM164.594 71.1016C163.891 71.1016 163.293 70.5566 163.293 69.8711C163.293 69.2031 163.891 68.6582 164.594 68.6582C165.314 68.6582 165.895 69.2031 165.895 69.8711C165.895 70.5566 165.314 71.1016 164.594 71.1016ZM172.012 82.1934C169.164 82.1934 167.441 80.1543 167.441 77.2715C167.441 74.3535 169.217 72.332 172.012 72.332C174.332 72.332 175.949 73.6855 176.107 75.7422H173.963C173.787 74.8281 173.119 74.125 172.029 74.125C170.641 74.125 169.709 75.3027 169.709 77.2188C169.709 79.1875 170.623 80.3652 172.029 80.3652C173.031 80.3652 173.77 79.7852 173.963 78.748H176.107C175.932 80.7695 174.402 82.1934 172.012 82.1934ZM182.031 82.1934C179.148 82.1934 177.391 80.2773 177.391 77.2891C177.391 74.3359 179.184 72.332 181.908 72.332C184.246 72.332 186.268 73.791 186.268 77.1484V77.8516H179.605C179.632 79.4775 180.59 80.4355 182.049 80.4355C183.033 80.4355 183.701 80.0137 183.982 79.4512H186.18C185.775 81.1035 184.246 82.1934 182.031 82.1934ZM179.623 76.3223H184.123C184.105 75.0215 183.244 74.0723 181.943 74.0723C180.59 74.0723 179.693 75.1006 179.623 76.3223ZM192.385 82V69.2734H200.664V71.1895H194.67V74.6699H200.225V76.5859H194.67V80.0664H200.699V82H192.385ZM209.787 72.7715C209.682 71.6816 208.75 71.0488 207.379 71.0488C205.938 71.0488 205.059 71.752 205.059 72.7012C205.059 73.7734 206.184 74.2129 207.238 74.459L208.434 74.7754C210.332 75.2148 212.16 76.2168 212.16 78.4316C212.16 80.6641 210.402 82.1934 207.344 82.1934C204.373 82.1934 202.51 80.7695 202.404 78.2559H204.654C204.76 79.5918 205.885 80.2422 207.326 80.2422C208.838 80.2422 209.875 79.5039 209.875 78.4141C209.875 77.4121 208.943 76.9902 207.572 76.6387L206.131 76.2695C204.039 75.7246 202.738 74.6699 202.738 72.8418C202.738 70.5918 204.742 69.0977 207.414 69.0977C210.121 69.0977 211.949 70.627 211.984 72.7715H209.787ZM214.059 82V69.2734H216.344V80.0664H221.969V82H214.059Z" fill="#636363"/>
<text x="131" y="109" font-family="Pretendard,-apple-system,BlinkMacSystemFont,'Segoe UI',Helvetica,Arial,sans-serif" font-size="14" font-weight="400" fill="#636363">Manage ingestion of ESL device data including status updates, button interactions, and firmware events.</text>
<text x="131" y="129" font-family="Pretendard,-apple-system,BlinkMacSystemFont,'Segoe UI',Helvetica,Arial,sans-serif" font-size="14" font-weight="400" fill="#636363">Configure and monitor real-time data collection via REST API and MQTT.</text>
</g>
<path d="M8 0.5H436C440.142 0.5 443.5 3.85786 443.5 8V192C443.5 196.142 440.142 199.5 436 199.5H8C3.85786 199.5 0.5 196.142 0.5 192V8C0.500002 3.85787 3.85787 0.5 8 0.5Z" stroke="#E0E0E0"/>
<defs>
<clipPath id="clip0_1206_278219">
<path d="M0 8C0 3.58173 3.58172 0 8 0H436C440.418 0 444 3.58172 444 8V192C444 196.418 440.418 200 436 200H8C3.58172 200 0 196.418 0 192V8Z" fill="white"/>
</clipPath>
</defs>
</svg>
