<svg width="444" height="200" viewBox="0 0 444 200" fill="none" xmlns="http://www.w3.org/2000/svg">
<g clip-path="url(#clip0_1206_278215)">
<path d="M0 8C0 3.58173 3.58172 0 8 0H436C440.418 0 444 3.58172 444 8V192C444 196.418 440.418 200 436 200H8C3.58172 200 0 196.418 0 192V8Z" fill="black" fill-opacity="0.04"/>
<path d="M60 52.5H1724C1728.14 52.5 1731.5 55.8579 1731.5 60V140C1731.5 144.142 1728.14 147.5 1724 147.5H60C55.8579 147.5 52.5 144.142 52.5 140V60C52.5 55.8579 55.8579 52.5 60 52.5Z" fill="white"/>
<path d="M60 52.5H1724C1728.14 52.5 1731.5 55.8579 1731.5 60V140C1731.5 144.142 1728.14 147.5 1724 147.5H60C55.8579 147.5 52.5 144.142 52.5 140V60C52.5 55.8579 55.8579 52.5 60 52.5Z" stroke="#E0E0E0"/>
<path d="M91.5302 94.5293L86.0605 99.999L91.5302 105.469L90.4697 106.529L84.4697 100.529C84.1768 100.236 84.1768 99.7616 84.4697 99.4688L90.4697 93.4688L91.5302 94.5293Z" fill="#161616"/>
<path d="M116 82C116 78.6863 118.686 76 122 76H158C161.314 76 164 78.6863 164 82V118C164 121.314 161.314 124 158 124H122C118.686 124 116 121.314 116 118V82Z" fill="#F5F4FD"/>
<path d="M149.799 102.639C149.799 101.951 149.799 101.495 149.771 101.145C149.743 100.806 149.694 100.656 149.647 100.564C149.513 100.3 149.299 100.086 149.035 99.9518C148.943 99.9049 148.792 99.8557 148.454 99.8281C148.104 99.7996 147.648 99.7995 146.96 99.7995H142.201V109.799H149.799V102.639ZM137 102.599V104.599H133.4V102.599H137ZM137 97.7995V99.7995H133.4V97.7995H137ZM137 92.9987V94.9987H133.4V92.9987H137ZM140.201 93.0391C140.201 92.3506 140.199 91.8943 140.171 91.5443C140.143 91.206 140.094 91.0558 140.047 90.9635C139.913 90.7004 139.699 90.4857 139.436 90.3516C139.344 90.3046 139.193 90.2568 138.855 90.2292C138.505 90.2006 138.048 90.1992 137.359 90.1992H133.04C132.352 90.1992 131.896 90.2006 131.546 90.2292C131.208 90.2568 131.057 90.3046 130.965 90.3516C130.701 90.4858 130.487 90.7002 130.353 90.9635C130.306 91.0558 130.257 91.2059 130.229 91.5443C130.201 91.8943 130.201 92.3506 130.201 93.0391V109.799H140.201V93.0391ZM142.201 97.7995H146.96C147.615 97.7995 148.167 97.7979 148.617 97.8346C149.079 97.8724 149.523 97.9547 149.944 98.1693C150.584 98.4952 151.104 99.0165 151.43 99.6562C151.644 100.077 151.727 100.52 151.764 100.982C151.801 101.432 151.799 101.984 151.799 102.639V109.799H153V111.799H127V109.799H128.201V93.0391C128.201 92.3836 128.199 91.8318 128.236 91.3815C128.273 90.9196 128.356 90.477 128.57 90.056C128.896 89.4164 129.416 88.8963 130.056 88.5703C130.477 88.3557 130.921 88.2734 131.383 88.2357C131.833 88.1989 132.385 88.1992 133.04 88.1992H137.359C138.015 88.1992 138.568 88.1989 139.018 88.2357C139.48 88.2734 139.923 88.3558 140.344 88.5703C140.983 88.8963 141.504 89.4164 141.829 90.056C142.044 90.4771 142.126 90.9196 142.164 91.3815C142.201 91.8318 142.201 92.3836 142.201 93.0391V97.7995Z" fill="#3A3480"/>
<path d="M181.57 109V92.0312H184.617V99.2266H192.516V92.0312H195.586V109H192.516V101.781H184.617V109H181.57ZM204.234 109.258C200.391 109.258 198.047 106.703 198.047 102.719C198.047 98.7812 200.438 96.1094 204.07 96.1094C207.188 96.1094 209.883 98.0547 209.883 102.531V103.469H201C201.035 105.637 202.312 106.914 204.258 106.914C205.57 106.914 206.461 106.352 206.836 105.602H209.766C209.227 107.805 207.188 109.258 204.234 109.258ZM201.023 101.43H207.023C207 99.6953 205.852 98.4297 204.117 98.4297C202.312 98.4297 201.117 99.8008 201.023 101.43ZM211.617 105.414C211.617 102.555 213.984 101.711 216.352 101.57C217.23 101.512 219.059 101.406 219.609 101.383V100.375C219.609 99.1094 218.789 98.3828 217.312 98.3828C215.977 98.3828 215.156 98.9922 214.922 99.9062H212.039C212.25 97.75 214.195 96.1094 217.383 96.1094C219.797 96.1094 222.586 97.0938 222.586 100.492V109H219.727V107.242H219.633C219.07 108.32 217.875 109.258 215.883 109.258C213.445 109.258 211.617 107.922 211.617 105.414ZM214.5 105.391C214.5 106.492 215.391 107.055 216.656 107.055C218.461 107.055 219.633 105.859 219.633 104.43V103.375L216.82 103.562C215.391 103.68 214.5 104.266 214.5 105.391ZM230.133 109.234C227.133 109.234 224.883 106.844 224.883 102.648C224.883 98.4062 227.203 96.1094 230.156 96.1094C232.406 96.1094 233.344 97.4453 233.789 98.3594H233.906V92.0312H236.883V109H233.953V106.984H233.789C233.32 107.922 232.336 109.234 230.133 109.234ZM230.953 106.773C232.875 106.773 233.977 105.109 233.977 102.625C233.977 100.164 232.898 98.5469 230.953 98.5469C228.961 98.5469 227.93 100.258 227.93 102.625C227.93 105.039 228.984 106.773 230.953 106.773ZM245.555 109.258C241.711 109.258 239.367 106.703 239.367 102.719C239.367 98.7812 241.758 96.1094 245.391 96.1094C248.508 96.1094 251.203 98.0547 251.203 102.531V103.469H242.32C242.355 105.637 243.633 106.914 245.578 106.914C246.891 106.914 247.781 106.352 248.156 105.602H251.086C250.547 107.805 248.508 109.258 245.555 109.258ZM242.344 101.43H248.344C248.32 99.6953 247.172 98.4297 245.438 98.4297C243.633 98.4297 242.438 99.8008 242.344 101.43ZM253.523 109V96.2734H256.43V98.3828H256.57C257.016 96.9297 258.258 96.0859 259.711 96.0859C260.039 96.0859 260.508 96.1094 260.789 96.1562V98.9219C260.531 98.8281 259.898 98.7344 259.406 98.7344C257.742 98.7344 256.523 99.8828 256.523 101.5V109H253.523Z" fill="#161616"/>
</g>
<path d="M8 0.5H436C440.142 0.5 443.5 3.85786 443.5 8V192C443.5 196.142 440.142 199.5 436 199.5H8C3.85786 199.5 0.5 196.142 0.5 192V8C0.500002 3.85787 3.85787 0.5 8 0.5Z" stroke="#E0E0E0"/>
<defs>
<clipPath id="clip0_1206_278215">
<path d="M0 8C0 3.58173 3.58172 0 8 0H436C440.418 0 444 3.58172 444 8V192C444 196.418 440.418 200 436 200H8C3.58172 200 0 196.418 0 192V8Z" fill="white"/>
</clipPath>
</defs>
</svg>
