<svg width="442" height="220" viewBox="0 0 442 220" fill="none" xmlns="http://www.w3.org/2000/svg">
<style>
:root {
  --sol-element-primary: #161616;
  --sol-element-secondary: #484848;
  --sol-element-quaternary: #858585;
  --sol-element-brand-variant: #3a3480;
  --sol-primary: #282363;
  --sol-fill-active: #4d469a;
  --sol-surface: #ffffff;
  --sol-border-normal-variant: #ebebeb;
  --sol-border-solid-variant: #e0e0e0;
  --sol-error: #e76067;
  --sol-error-dim: #b84451;
  --sol-static-white: #ffffff;
  --sol-static-black: #000000;
  --color-green-500: #35a142;
  --color-yellow-500: #d4ae00;
}
@media (prefers-color-scheme: dark) {
  :root {
    --sol-element-primary: #ffffff;
    --sol-element-secondary: rgba(255, 255, 255, 0.8);
    --sol-element-quaternary: rgba(255, 255, 255, 0.5);
    --sol-element-brand-variant: #ffffff;
    --sol-primary: #9791d4;
    --sol-fill-active: #7b74c4;
    --sol-surface: #161616;
    --sol-border-normal-variant: rgba(255, 255, 255, 0.08);
    --sol-border-solid-variant: #3d3d3d;
    --sol-error: #ee7a80;
    --sol-error-dim: #e76067;
  }
}
</style>
<g clip-path="url(#clip0_1664_177539)">
<path d="M0 8.00001C0 3.58173 3.58172 0 8 0H434C438.418 0 442 3.58172 442 8V212C442 216.418 438.418 220 434 220H8C3.58172 220 0 216.418 0 212V8.00001Z" fill="var(--sol-element-primary)" fill-opacity="0.04"/>
<mask id="path-2-inside-1_1664_177539" fill="var(--sol-static-white)">
<path d="M0 0H181V220H0V0Z"/>
</mask>
<path d="M0 0H181V220H0V0Z" fill="var(--sol-surface)"/>
<path d="M181 0H180V220H181H182V0H181Z" fill="var(--sol-border-solid-variant)" mask="url(#path-2-inside-1_1664_177539)"/>
<rect width="157" height="67.3818" transform="translate(12 12)" fill="var(--sol-surface)"/>
<mask id="mask0_1664_177539" style="mask-type:alpha" maskUnits="userSpaceOnUse" x="23" y="21" width="12" height="12">
<path d="M31.59 26.1526L28.8263 28.9162C28.6914 29.0511 28.4728 29.0511 28.3379 28.9162L25.5742 26.1526L26.0627 25.6641L28.5821 28.1835L31.1015 25.6641L31.59 26.1526Z" fill="var(--sol-element-primary)"/>
</mask>
<g mask="url(#mask0_1664_177539)">
<rect x="23.0547" y="21.7637" width="11.0545" height="11.0545" fill="var(--sol-element-quaternary)"/>
</g>
<path d="M40.2691 30.291V23.4521H41.4971V26.352H44.6804V23.4521H45.9178V30.291H44.6804V27.3816H41.4971V30.291H40.2691ZM49.3656 30.3949C47.8732 30.3949 46.9097 29.337 46.9097 27.75C46.9097 26.1537 47.8732 25.0957 49.3656 25.0957C50.8676 25.0957 51.8216 26.1537 51.8216 27.75C51.8216 29.337 50.8676 30.3949 49.3656 30.3949ZM49.3751 29.4314C50.1969 29.4314 50.6031 28.6852 50.6031 27.7406C50.6031 26.8054 50.1969 26.0498 49.3751 26.0498C48.5344 26.0498 48.1282 26.8054 48.1282 27.7406C48.1282 28.6852 48.5344 29.4314 49.3751 29.4314ZM52.7568 30.291V25.1618H53.9092V26.0309H53.9753C54.1831 25.4452 54.7026 25.0957 55.3828 25.0957C56.0818 25.0957 56.573 25.4452 56.7713 26.0309H56.828C57.0547 25.4641 57.6215 25.0957 58.3677 25.0957C59.3029 25.0957 59.9641 25.7002 59.9641 26.8432V30.291H58.7644V27.0321C58.7644 26.3898 58.3771 26.1064 57.8859 26.1064C57.2908 26.1064 56.9508 26.5126 56.9508 27.0888V30.291H55.7795V26.9849C55.7795 26.4559 55.4205 26.1064 54.9105 26.1064C54.3909 26.1064 53.9658 26.5315 53.9658 27.1738V30.291H52.7568ZM63.393 30.3949C61.8438 30.3949 60.8992 29.3653 60.8992 27.7595C60.8992 26.1725 61.8627 25.0957 63.3269 25.0957C64.5832 25.0957 65.6695 25.8797 65.6695 27.6839V28.0618H62.0894C62.1036 28.9355 62.6184 29.4503 63.4024 29.4503C63.9314 29.4503 64.2904 29.2236 64.4415 28.9213H65.6222C65.405 29.8093 64.5832 30.3949 63.393 30.3949ZM62.0989 27.24H64.5171C64.5076 26.5409 64.0448 26.0309 63.3457 26.0309C62.6184 26.0309 62.1367 26.5835 62.0989 27.24Z" fill="var(--sol-element-brand-variant)"/>
<rect width="157" height="0.690891" transform="translate(12 42.582)" fill="var(--sol-border-normal-variant)"/>
<rect width="157" height="36.1091" transform="translate(12 43.2734)" fill="var(--sol-element-primary)" fill-opacity="0.04"/>
<path d="M46.1734 55.3813C46.1734 57.5445 44.8982 58.8952 43.1506 58.8952C41.3937 58.8952 40.1279 57.5445 40.1279 55.3813C40.1279 53.2182 41.3937 51.8674 43.1506 51.8674C44.8982 51.8674 46.1734 53.2182 46.1734 55.3813ZM45.3516 55.3813C45.3516 53.6149 44.3881 52.6609 43.1506 52.6609C41.9132 52.6609 40.9497 53.6149 40.9497 55.3813C40.9497 57.1477 41.9132 58.1018 43.1506 58.1018C44.3881 58.1018 45.3516 57.1477 45.3516 55.3813ZM51.5387 53.6716L49.6401 58.8008H48.7994L46.9102 53.6716H47.7981L49.1961 57.7428H49.2528L50.6508 53.6716H51.5387ZM54.4009 58.9047C52.9178 58.9047 52.0016 57.8562 52.0016 56.2787C52.0016 54.7012 52.9273 53.6055 54.3253 53.6055C55.4021 53.6055 56.5357 54.2667 56.5357 56.1653V56.5054H52.8139C52.8517 57.5917 53.4846 58.1868 54.4009 58.1868C55.0148 58.1868 55.4021 57.9223 55.5911 57.6011H56.4601C56.2145 58.3757 55.4588 58.9047 54.4009 58.9047ZM52.8234 55.8158H55.7138C55.7138 54.9562 55.166 54.3234 54.3253 54.3234C53.4374 54.3234 52.8706 55.0224 52.8234 55.8158ZM57.5936 58.8008V53.6716H58.3776V54.4556H58.4343C58.6232 53.9361 59.1522 53.5866 59.7567 53.5866C59.8795 53.5866 60.0874 53.596 60.1818 53.6055V54.4273C60.1251 54.4084 59.8984 54.3706 59.6906 54.3706C58.9538 54.3706 58.406 54.8807 58.406 55.5702V58.8008H57.5936ZM65.3582 53.6716L63.4596 58.8008H62.6189L60.7297 53.6716H61.6176L63.0156 57.7428H63.0723L64.4703 53.6716H65.3582ZM66.2556 58.8008V53.6716H67.068V58.8008H66.2556ZM66.6618 52.8214C66.3501 52.8214 66.095 52.5853 66.095 52.283C66.095 51.9808 66.3501 51.7446 66.6618 51.7446C66.9735 51.7446 67.238 51.9808 67.238 52.283C67.238 52.5853 66.9735 52.8214 66.6618 52.8214ZM70.5158 58.9047C69.0327 58.9047 68.1165 57.8562 68.1165 56.2787C68.1165 54.7012 69.0422 53.6055 70.4402 53.6055C71.517 53.6055 72.6506 54.2667 72.6506 56.1653V56.5054H68.9288C68.9666 57.5917 69.5995 58.1868 70.5158 58.1868C71.1298 58.1868 71.517 57.9223 71.706 57.6011H72.575C72.3294 58.3757 71.5737 58.9047 70.5158 58.9047ZM68.9383 55.8158H71.8288C71.8288 54.9562 71.2809 54.3234 70.4402 54.3234C69.5523 54.3234 68.9855 55.0224 68.9383 55.8158ZM74.8609 58.8008L73.3023 53.6716H74.1619L75.2577 57.5822H75.3049L76.3912 53.6716H77.2602L78.3276 57.5634H78.3843L79.48 53.6716H80.3302L78.7716 58.8008H77.9687L76.854 54.8901H76.7785L75.6733 58.8008H74.8609Z" fill="var(--sol-element-secondary)"/>
<rect width="157" height="36.1091" transform="translate(12 79.3809)" fill="var(--sol-element-primary)" fill-opacity="0.04"/>
<path d="M40.6947 94.9082H39.8067L42.3099 88.0693H43.2073L45.7105 94.9082H44.8131L44.133 92.9812H41.3842L40.6947 94.9082ZM41.6393 92.235H43.8685L42.7822 89.1745H42.7256L41.6393 92.235ZM47.3447 91.8288V94.9082H46.5323V89.779H47.3163V90.5819H47.3825C47.6281 90.0624 48.1004 89.7129 48.8844 89.7129C49.9234 89.7129 50.613 90.3458 50.613 91.6493V94.9082H49.8006V91.706C49.8006 90.9125 49.3661 90.4402 48.6388 90.4402C47.8925 90.4402 47.3447 90.9409 47.3447 91.8288ZM51.671 93.4535C51.671 92.2728 52.71 92.0083 53.5979 91.9422C53.9238 91.9185 54.7551 91.876 54.9865 91.8666V91.451C54.9865 90.7992 54.5992 90.4213 53.8246 90.4213C53.1729 90.4213 52.7856 90.7236 52.6722 91.1109H51.8221C51.926 90.2891 52.7289 89.7129 53.8624 89.7129C54.5331 89.7129 55.7894 89.9113 55.7894 91.5265V94.9082H54.9865V94.2092H54.9487C54.7787 94.5587 54.3064 95.031 53.4185 95.031C52.4455 95.031 51.671 94.4548 51.671 93.4535ZM52.4833 93.4913C52.4833 94.0297 52.9367 94.3037 53.5602 94.3037C54.4764 94.3037 54.9865 93.6897 54.9865 93.0473V92.5278L53.6924 92.6223C52.9556 92.6695 52.4833 92.934 52.4833 93.4913ZM57.9053 88.0693V94.9082H57.093V88.0693H57.9053ZM59.719 96.8352C59.5395 96.8352 59.3695 96.8257 59.2656 96.8163V96.089C59.3506 96.0984 59.5395 96.1078 59.6623 96.1078C59.9929 96.1078 60.2668 96.0795 60.5408 95.3333L60.6919 94.946L58.7933 89.779H59.6812L61.0792 93.8502H61.1359L62.5339 89.779H63.4218L61.2492 95.645C60.9469 96.4479 60.4463 96.8352 59.719 96.8352ZM66.5579 89.779V90.4591H65.481V93.4346C65.481 94.0958 65.8022 94.1998 66.1517 94.1998C66.3028 94.1998 66.5107 94.1903 66.6335 94.1809V94.9365C66.5107 94.9554 66.3028 94.9743 66.0667 94.9743C65.3866 94.9743 64.6592 94.5493 64.6592 93.6424V90.4591H63.8847V89.779H64.6592V88.551H65.481V89.779H66.5579ZM67.6064 94.9082V89.779H68.4188V94.9082H67.6064ZM68.0126 88.9289C67.7009 88.9289 67.4458 88.6927 67.4458 88.3904C67.4458 88.0882 67.7009 87.852 68.0126 87.852C68.3243 87.852 68.5888 88.0882 68.5888 88.3904C68.5888 88.6927 68.3243 88.9289 68.0126 88.9289ZM71.8099 95.0121C70.3552 95.0121 69.4673 93.9069 69.4673 92.3672C69.4673 90.8086 70.393 89.7129 71.791 89.7129C72.8867 89.7129 73.6991 90.3552 73.8313 91.3282H73.019C72.9056 90.8559 72.49 90.4308 71.8099 90.4308C70.8936 90.4308 70.2796 91.1865 70.2796 92.3389C70.2796 93.5291 70.8747 94.2848 71.8099 94.2848C72.4144 94.2848 72.8773 93.9636 73.019 93.3968H73.8313C73.6991 94.3131 72.9528 95.0121 71.8099 95.0121ZM77.6853 91.1109C77.5719 90.6858 77.2508 90.4025 76.6462 90.4025C76.0134 90.4025 75.5599 90.7425 75.5599 91.177C75.5599 91.5171 75.8339 91.7532 76.4384 91.8949L77.2036 92.0838C78.1198 92.3011 78.5732 92.7545 78.5732 93.4724C78.5732 94.3603 77.8459 95.0121 76.5612 95.0121C75.4088 95.0121 74.7192 94.502 74.587 93.5669H75.4371C75.5316 94.0675 75.9 94.3037 76.5423 94.3037C77.2697 94.3037 77.7325 94.0014 77.7325 93.5196C77.7325 93.1607 77.4775 92.9151 76.8918 92.7828L76.1173 92.6034C75.2199 92.3956 74.7476 91.9044 74.7476 91.2243C74.7476 90.3458 75.5127 89.7129 76.6462 89.7129C77.7042 89.7129 78.3749 90.2797 78.4788 91.1109H77.6853Z" fill="var(--sol-element-secondary)"/>
<rect width="157" height="36.1091" transform="translate(12 115.49)" fill="var(--sol-element-primary)" fill-opacity="0.04"/>
<path d="M40.3924 131.018V124.179H42.7161C44.3219 124.179 45.0493 125.067 45.0493 126.285C45.0493 127.187 44.6431 127.9 43.7741 128.203L45.3138 131.018H44.3219L42.8956 128.354L42.7256 128.363H41.2425V131.018H40.3924ZM41.2425 127.589H42.6878C43.7741 127.589 44.2086 127.097 44.2086 126.285C44.2086 125.463 43.7741 124.934 42.6783 124.934H41.2425V127.589ZM48.2798 131.121C46.7968 131.121 45.8805 130.073 45.8805 128.495C45.8805 126.918 46.8063 125.822 48.2043 125.822C49.2811 125.822 50.4146 126.483 50.4146 128.382V128.722H46.6929C46.7307 129.808 47.3636 130.404 48.2798 130.404C48.8938 130.404 49.2811 130.139 49.47 129.818H50.3391C50.0935 130.593 49.3378 131.121 48.2798 131.121ZM46.7023 128.033H49.5928C49.5928 127.173 49.045 126.54 48.2043 126.54C47.3163 126.54 46.7496 127.239 46.7023 128.033ZM51.4726 132.945V125.888H52.2566V126.701H52.3511C52.5211 126.427 52.8423 125.822 53.8341 125.822C55.1188 125.822 56.0161 126.842 56.0161 128.467C56.0161 130.092 55.1188 131.121 53.8435 131.121C52.8612 131.121 52.5211 130.517 52.3511 130.234H52.2849V132.945H51.4726ZM52.2661 128.448C52.2661 129.601 52.7856 130.394 53.7302 130.394C54.7031 130.394 55.2038 129.544 55.2038 128.448C55.2038 127.381 54.7126 126.55 53.7302 126.55C52.7667 126.55 52.2661 127.315 52.2661 128.448ZM59.1711 131.121C57.7731 131.121 56.8285 130.073 56.8285 128.477C56.8285 126.88 57.7731 125.822 59.1711 125.822C60.5597 125.822 61.4948 126.88 61.4948 128.477C61.4948 130.073 60.5597 131.121 59.1711 131.121ZM59.1711 130.404C60.2007 130.404 60.6825 129.497 60.6825 128.477C60.6825 127.456 60.2007 126.54 59.1711 126.54C58.1226 126.54 57.6408 127.456 57.6408 128.477C57.6408 129.497 58.1226 130.404 59.1711 130.404ZM62.5622 131.018V125.888H63.3462V126.672H63.4029C63.5918 126.153 64.1208 125.803 64.7254 125.803C64.8482 125.803 65.056 125.813 65.1504 125.822V126.644C65.0938 126.625 64.867 126.587 64.6592 126.587C63.9224 126.587 63.3746 127.097 63.3746 127.787V131.018H62.5622ZM68.5038 125.888V126.569H67.4269V129.544C67.4269 130.205 67.7481 130.309 68.0976 130.309C68.2487 130.309 68.4565 130.3 68.5793 130.29V131.046C68.4565 131.065 68.2487 131.084 68.0126 131.084C67.3325 131.084 66.6051 130.659 66.6051 129.752V126.569H65.8305V125.888H66.6051V124.66H67.4269V125.888H68.5038ZM72.3105 127.22C72.1972 126.795 71.876 126.512 71.2714 126.512C70.6386 126.512 70.1852 126.852 70.1852 127.286C70.1852 127.626 70.4591 127.863 71.0636 128.004L71.8288 128.193C72.745 128.41 73.1984 128.864 73.1984 129.582C73.1984 130.47 72.4711 131.121 71.1864 131.121C70.034 131.121 69.3445 130.611 69.2122 129.676H70.0624C70.1568 130.177 70.5252 130.413 71.1675 130.413C71.8949 130.413 72.3577 130.111 72.3577 129.629C72.3577 129.27 72.1027 129.024 71.517 128.892L70.7425 128.713C69.8451 128.505 69.3728 128.014 69.3728 127.334C69.3728 126.455 70.1379 125.822 71.2714 125.822C72.3294 125.822 73.0001 126.389 73.104 127.22H72.3105Z" fill="var(--sol-element-secondary)"/>
<rect width="157" height="31.2727" transform="translate(12 151.6)" fill="var(--sol-surface)"/>
<mask id="mask1_1664_177539" style="mask-type:alpha" maskUnits="userSpaceOnUse" x="23" y="161" width="12" height="12">
<path d="M30.2082 166.646C30.3431 166.781 30.3431 167 30.2082 167.135L27.4445 169.899L26.9561 169.41L29.4754 166.891L26.9561 164.371L27.4445 163.883L30.2082 166.646Z" fill="var(--sol-element-primary)"/>
</mask>
<g mask="url(#mask1_1664_177539)">
<rect x="23.0547" y="161.363" width="11.0545" height="11.0545" fill="var(--sol-element-quaternary)"/>
</g>
<path d="M44.1231 164.771C44.0475 164.1 43.4335 163.713 42.6117 163.713C41.7049 163.713 41.1098 164.185 41.1098 164.837C41.1098 165.555 41.9127 165.819 42.4323 165.952L43.1124 166.141C43.8492 166.329 45.0488 166.755 45.0488 168.03C45.0488 169.144 44.1514 170.013 42.5645 170.013C41.0909 170.013 40.1747 169.248 40.0991 168.115H40.9681C41.0437 168.88 41.7521 169.239 42.5645 169.239C43.5091 169.239 44.2176 168.757 44.2176 168.011C44.2176 167.35 43.5847 167.095 42.8668 166.887L42.0261 166.66C40.9492 166.348 40.288 165.8 40.288 164.875C40.288 163.722 41.3176 162.957 42.6401 162.957C43.9625 162.957 44.9166 163.732 44.9543 164.771H44.1231ZM48.3171 169.995C46.8341 169.995 45.9178 168.946 45.9178 167.369C45.9178 165.791 46.8435 164.695 48.2416 164.695C49.3184 164.695 50.4519 165.357 50.4519 167.255V167.595H46.7302C46.768 168.682 47.4009 169.277 48.3171 169.277C48.9311 169.277 49.3184 169.012 49.5073 168.691H50.3764C50.1308 169.466 49.3751 169.995 48.3171 169.995ZM46.7396 166.906H49.6301C49.6301 166.046 49.0823 165.413 48.2416 165.413C47.3536 165.413 46.7869 166.112 46.7396 166.906ZM53.7486 164.761V165.442H52.6717V168.417C52.6717 169.078 52.9929 169.182 53.3424 169.182C53.4935 169.182 53.7014 169.173 53.8242 169.163V169.919C53.7014 169.938 53.4935 169.957 53.2574 169.957C52.5773 169.957 51.8499 169.532 51.8499 168.625V165.442H51.0754V164.761H51.8499V163.533H52.6717V164.761H53.7486ZM57.0358 164.761V165.442H55.959V168.417C55.959 169.078 56.2801 169.182 56.6296 169.182C56.7808 169.182 56.9886 169.173 57.1114 169.163V169.919C56.9886 169.938 56.7808 169.957 56.5446 169.957C55.8645 169.957 55.1372 169.532 55.1372 168.625V165.442H54.3626V164.761H55.1372V163.533H55.959V164.761H57.0358ZM58.0843 169.891V164.761H58.8967V169.891H58.0843ZM58.4905 163.911C58.1788 163.911 57.9237 163.675 57.9237 163.373C57.9237 163.071 58.1788 162.834 58.4905 162.834C58.8022 162.834 59.0667 163.071 59.0667 163.373C59.0667 163.675 58.8022 163.911 58.4905 163.911ZM61.0031 166.811V169.891H60.1908V164.761H60.9748V165.564H61.0409C61.2865 165.045 61.7588 164.695 62.5428 164.695C63.5819 164.695 64.2715 165.328 64.2715 166.632V169.891H63.4591V166.688C63.4591 165.895 63.0246 165.423 62.2972 165.423C61.551 165.423 61.0031 165.923 61.0031 166.811ZM67.6531 171.922C66.4157 171.922 65.575 171.383 65.4805 170.429H66.3307C66.444 170.949 66.9258 171.213 67.6531 171.213C68.5316 171.213 69.07 170.835 69.07 169.985V168.946H69.0039C68.8339 169.229 68.5033 169.815 67.5114 169.815C66.2646 169.815 65.3294 168.87 65.3294 167.255C65.3294 165.678 66.2362 164.695 67.5209 164.695C68.5127 164.695 68.8339 165.3 69.0228 165.574H69.0889V164.761H69.8824V170.032C69.8824 171.355 68.9 171.922 67.6531 171.922ZM67.6248 169.088C68.56 169.088 69.0889 168.417 69.0889 167.284C69.0889 166.188 68.5788 165.423 67.6248 165.423C66.6424 165.423 66.1512 166.254 66.1512 167.284C66.1512 168.351 66.6519 169.088 67.6248 169.088Z" fill="var(--sol-element-primary)"/>
<rect width="157" height="0.690891" transform="translate(12 182.182)" fill="var(--sol-border-normal-variant)"/>
<rect width="157" height="31.2727" transform="translate(12 182.873)" fill="var(--sol-surface)"/>
<mask id="mask2_1664_177539" style="mask-type:alpha" maskUnits="userSpaceOnUse" x="23" y="192" width="12" height="12">
<path d="M30.2082 197.92C30.3431 198.055 30.3431 198.273 30.2082 198.408L27.4445 201.172L26.9561 200.684L29.4754 198.164L26.9561 195.645L27.4445 195.156L30.2082 197.92Z" fill="var(--sol-element-primary)"/>
</mask>
<g mask="url(#mask2_1664_177539)">
<rect x="23.0547" y="192.637" width="11.0545" height="11.0545" fill="var(--sol-element-quaternary)"/>
</g>
<path d="M40.3919 194.325H41.4121L43.7169 199.955H43.8019L46.1068 194.325H47.1269V201.164H46.324V195.997H46.2579L44.1325 201.164H43.3769L41.2515 195.997H41.1948V201.164H40.3919V194.325ZM49.0539 203.091C48.8744 203.091 48.7044 203.082 48.6005 203.072V202.345C48.6855 202.354 48.8744 202.364 48.9972 202.364C49.3278 202.364 49.6018 202.335 49.8757 201.589L50.0269 201.202L48.1282 196.035H49.0161L50.4141 200.106H50.4708L51.8688 196.035H52.7568L50.5842 201.901C50.2819 202.704 49.7813 203.091 49.0539 203.091Z" fill="var(--sol-element-primary)"/>
<rect width="157" height="0.690891" transform="translate(12 213.455)" fill="var(--sol-border-normal-variant)"/>
</g>
<defs>
<clipPath id="clip0_1664_177539">
<path d="M0 8.00001C0 3.58173 3.58172 0 8 0H434C438.418 0 442 3.58172 442 8V212C442 216.418 438.418 220 434 220H8C3.58172 220 0 216.418 0 212V8.00001Z" fill="var(--sol-surface)"/>
</clipPath>
</defs>
</svg>
