<svg width="442" height="150" viewBox="0 0 442 150" fill="none" xmlns="http://www.w3.org/2000/svg">
<style>
:root {
  --sol-element-primary: #161616;
  --sol-element-secondary: #484848;
  --sol-element-quaternary: #858585;
  --sol-element-brand-variant: #3a3480;
  --sol-primary: #282363;
  --sol-fill-active: #4d469a;
  --sol-surface: #ffffff;
  --sol-border-normal-variant: #ebebeb;
  --sol-border-solid-variant: #e0e0e0;
  --sol-error: #e76067;
  --sol-error-dim: #b84451;
  --sol-static-white: #ffffff;
  --sol-static-black: #000000;
  --color-green-500: #35a142;
  --color-yellow-500: #d4ae00;
}
@media (prefers-color-scheme: dark) {
  :root {
    --sol-element-primary: #ffffff;
    --sol-element-secondary: rgba(255, 255, 255, 0.8);
    --sol-element-quaternary: rgba(255, 255, 255, 0.5);
    --sol-element-brand-variant: #ffffff;
    --sol-primary: #9791d4;
    --sol-fill-active: #7b74c4;
    --sol-surface: #161616;
    --sol-border-normal-variant: rgba(255, 255, 255, 0.08);
    --sol-border-solid-variant: #3d3d3d;
    --sol-error: #ee7a80;
    --sol-error-dim: #e76067;
  }
}
</style>
<g clip-path="url(#clip0_1664_177515)">
<rect width="442" height="150" fill="var(--sol-surface)"/>
<rect width="410" height="118" transform="translate(16 16)" fill="var(--sol-surface)"/>
<mask id="mask0_1664_177515" style="mask-type:alpha" maskUnits="userSpaceOnUse" x="32" y="30" width="16" height="16">
<path d="M44.3535 36.3535L40.3535 40.3535C40.1583 40.5488 39.8417 40.5488 39.6465 40.3535L35.6465 36.3535L36.3535 35.6465L40 39.293L43.6465 35.6465L44.3535 36.3535Z" fill="var(--sol-element-primary)"/>
</mask>
<g mask="url(#mask0_1664_177515)">
<rect x="32" y="30" width="16" height="16" fill="var(--sol-element-quaternary)"/>
</g>
<path d="M65.0508 33.1016V43H63.4648L58.7754 36.2324H58.6934V43H56.916V33.1016H58.5293L63.1914 39.8691H63.2871V33.1016H65.0508ZM70.0957 43.1504C67.8535 43.1504 66.4863 41.6602 66.4863 39.3359C66.4863 37.0391 67.8809 35.4805 70 35.4805C71.8184 35.4805 73.3906 36.6152 73.3906 39.2266V39.7734H68.209C68.2295 41.0381 68.9746 41.7832 70.1094 41.7832C70.875 41.7832 71.3945 41.4551 71.6133 41.0176H73.3223C73.0078 42.3027 71.8184 43.1504 70.0957 43.1504ZM68.2227 38.584H71.7227C71.709 37.5723 71.0391 36.834 70.0273 36.834C68.9746 36.834 68.2773 37.6338 68.2227 38.584ZM78.4492 35.5762V36.916H76.9863V40.7715C76.9863 41.4824 77.3418 41.6328 77.7793 41.6328C77.9844 41.6328 78.3262 41.6191 78.5449 41.6055V43.0273C78.3398 43.0684 77.998 43.0957 77.5605 43.0957C76.248 43.0957 75.2363 42.4531 75.25 41.0586V36.916H74.1836V35.5762H75.25V33.7988H76.9863V35.5762H78.4492ZM81.334 43L79.2285 35.5762H81.0059L82.3184 40.7988H82.3867L83.7129 35.5762H85.4766L86.8164 40.7715H86.8848L88.1836 35.5762H89.9609L87.8555 43H86.0371L84.6426 37.9688H84.5469L83.1523 43H81.334ZM94.1035 43.1504C91.9434 43.1504 90.5488 41.6191 90.5488 39.3223C90.5488 37.0117 91.9434 35.4805 94.1035 35.4805C96.2773 35.4805 97.6582 37.0117 97.6582 39.3223C97.6582 41.6191 96.2773 43.1504 94.1035 43.1504ZM94.1172 41.7559C95.3066 41.7559 95.8945 40.6758 95.8945 39.3086C95.8945 37.9551 95.3066 36.8613 94.1172 36.8613C92.9004 36.8613 92.3125 37.9551 92.3125 39.3086C92.3125 40.6758 92.9004 41.7559 94.1172 41.7559ZM99.0117 43V35.5762H100.707V36.8066H100.789C101.049 35.959 101.773 35.4668 102.621 35.4668C102.812 35.4668 103.086 35.4805 103.25 35.5078V37.1211C103.1 37.0664 102.73 37.0117 102.443 37.0117C101.473 37.0117 100.762 37.6816 100.762 38.625V43H99.0117ZM104.289 43V33.1016H106.039V38.5566H106.162L108.828 35.5762H110.865L107.994 38.7754L111.043 43H108.965L106.682 39.8145L106.039 40.498V43H104.289ZM119.438 37.6953C119.328 37.1348 118.863 36.7793 118.125 36.7793C117.373 36.7793 116.826 37.1484 116.84 37.6543C116.826 38.0371 117.141 38.3242 117.893 38.502L119.15 38.7617C120.559 39.0762 121.229 39.7188 121.242 40.7852C121.229 42.1797 120.012 43.1504 118.07 43.1504C116.184 43.1504 115.062 42.3027 114.885 40.8809H116.662C116.771 41.5098 117.264 41.8242 118.07 41.8242C118.904 41.8242 119.465 41.4824 119.465 40.9355C119.465 40.5117 119.123 40.2383 118.385 40.0742L117.195 39.8145C115.814 39.541 115.104 38.8164 115.104 37.75C115.104 36.3828 116.279 35.4805 118.098 35.4805C119.875 35.4805 120.969 36.3418 121.092 37.6953H119.438ZM125.863 43.1504C123.621 43.1504 122.254 41.6602 122.254 39.3359C122.254 37.0391 123.648 35.4805 125.768 35.4805C127.586 35.4805 129.158 36.6152 129.158 39.2266V39.7734H123.977C123.997 41.0381 124.742 41.7832 125.877 41.7832C126.643 41.7832 127.162 41.4551 127.381 41.0176H129.09C128.775 42.3027 127.586 43.1504 125.863 43.1504ZM123.99 38.584H127.49C127.477 37.5723 126.807 36.834 125.795 36.834C124.742 36.834 124.045 37.6338 123.99 38.584ZM134.217 35.5762V36.916H132.754V40.7715C132.754 41.4824 133.109 41.6328 133.547 41.6328C133.752 41.6328 134.094 41.6191 134.312 41.6055V43.0273C134.107 43.0684 133.766 43.0957 133.328 43.0957C132.016 43.0957 131.004 42.4531 131.018 41.0586V36.916H129.951V35.5762H131.018V33.7988H132.754V35.5762H134.217ZM139.262 35.5762V36.916H137.799V40.7715C137.799 41.4824 138.154 41.6328 138.592 41.6328C138.797 41.6328 139.139 41.6191 139.357 41.6055V43.0273C139.152 43.0684 138.811 43.0957 138.373 43.0957C137.061 43.0957 136.049 42.4531 136.062 41.0586V36.916H134.996V35.5762H136.062V33.7988H137.799V35.5762H139.262ZM140.602 43V35.5762H142.352V43H140.602ZM141.49 34.5234C140.943 34.5234 140.479 34.0996 140.479 33.5664C140.479 33.0469 140.943 32.623 141.49 32.623C142.051 32.623 142.502 33.0469 142.502 33.5664C142.502 34.0996 142.051 34.5234 141.49 34.5234ZM145.77 38.6523V43H144.02V35.5762H145.688V36.834H145.783C146.125 36 146.877 35.4805 147.984 35.4805C149.529 35.4805 150.541 36.4922 150.527 38.2695V43H148.791V38.543C148.791 37.5449 148.258 36.957 147.342 36.957C146.412 36.957 145.77 37.5723 145.77 38.6523ZM155.436 45.9395C153.467 45.9395 152.223 45.0645 152.1 43.6699H153.836C153.959 44.3125 154.574 44.627 155.463 44.627C156.502 44.627 157.186 44.1758 157.186 43.082V41.6602H157.104C156.83 42.207 156.242 42.8906 154.957 42.8906C153.248 42.8906 151.895 41.6465 151.895 39.2266C151.895 36.7793 153.248 35.4805 154.971 35.4805C156.283 35.4805 156.83 36.2598 157.104 36.793H157.186V35.5762H158.908V43.123C158.908 45.0234 157.445 45.9395 155.436 45.9395ZM155.436 41.5234C156.557 41.5234 157.199 40.6758 157.199 39.2539C157.199 37.8457 156.57 36.9023 155.436 36.9023C154.273 36.9023 153.672 37.9004 153.672 39.2539C153.672 40.6211 154.287 41.5234 155.436 41.5234ZM164.787 37.6953C164.678 37.1348 164.213 36.7793 163.475 36.7793C162.723 36.7793 162.176 37.1484 162.189 37.6543C162.176 38.0371 162.49 38.3242 163.242 38.502L164.5 38.7617C165.908 39.0762 166.578 39.7188 166.592 40.7852C166.578 42.1797 165.361 43.1504 163.42 43.1504C161.533 43.1504 160.412 42.3027 160.234 40.8809H162.012C162.121 41.5098 162.613 41.8242 163.42 41.8242C164.254 41.8242 164.814 41.4824 164.814 40.9355C164.814 40.5117 164.473 40.2383 163.734 40.0742L162.545 39.8145C161.164 39.541 160.453 38.8164 160.453 37.75C160.453 36.3828 161.629 35.4805 163.447 35.4805C165.225 35.4805 166.318 36.3418 166.441 37.6953H164.787Z" fill="var(--sol-element-brand-variant)"/>
<rect width="410" height="0.999974" transform="translate(16 60)" fill="var(--sol-border-normal-variant)"/>
<rect width="410" height="73" transform="translate(16 61)" fill="var(--sol-element-primary)" fill-opacity="0.04"/>
<path d="M57.0938 74.1016H58.5703L61.9062 82.25H62.0293L65.3652 74.1016H66.8418V84H65.6797V76.5215H65.584L62.5078 84H61.4141L58.3379 76.5215H58.2559V84H57.0938V74.1016ZM68.5234 81.8945C68.5234 80.1855 70.0273 79.8027 71.3125 79.707C71.7842 79.6729 72.9873 79.6113 73.3223 79.5977V78.9961C73.3223 78.0527 72.7617 77.5059 71.6406 77.5059C70.6973 77.5059 70.1367 77.9434 69.9727 78.5039H68.7422C68.8926 77.3145 70.0547 76.4805 71.6953 76.4805C72.666 76.4805 74.4844 76.7676 74.4844 79.1055V84H73.3223V82.9883H73.2676C73.0215 83.4941 72.3379 84.1777 71.0527 84.1777C69.6445 84.1777 68.5234 83.3438 68.5234 81.8945ZM69.6992 81.9492C69.6992 82.7285 70.3555 83.125 71.2578 83.125C72.584 83.125 73.3223 82.2363 73.3223 81.3066V80.5547L71.4492 80.6914C70.3828 80.7598 69.6992 81.1426 69.6992 81.9492ZM77.5469 79.543V84H76.3711V76.5762H77.5059V77.7383H77.6016C77.957 76.9863 78.6406 76.4805 79.7754 76.4805C81.2793 76.4805 82.2773 77.3965 82.2773 79.2832V84H81.1016V79.3652C81.1016 78.2168 80.4727 77.5332 79.4199 77.5332C78.3398 77.5332 77.5469 78.2578 77.5469 79.543ZM83.8086 81.8945C83.8086 80.1855 85.3125 79.8027 86.5977 79.707C87.0693 79.6729 88.2725 79.6113 88.6074 79.5977V78.9961C88.6074 78.0527 88.0469 77.5059 86.9258 77.5059C85.9824 77.5059 85.4219 77.9434 85.2578 78.5039H84.0273C84.1777 77.3145 85.3398 76.4805 86.9805 76.4805C87.9512 76.4805 89.7695 76.7676 89.7695 79.1055V84H88.6074V82.9883H88.5527C88.3066 83.4941 87.623 84.1777 86.3379 84.1777C84.9297 84.1777 83.8086 83.3438 83.8086 81.8945ZM84.9844 81.9492C84.9844 82.7285 85.6406 83.125 86.543 83.125C87.8691 83.125 88.6074 82.2363 88.6074 81.3066V80.5547L86.7344 80.6914C85.668 80.7598 84.9844 81.1426 84.9844 81.9492ZM94.6641 86.9395C92.873 86.9395 91.6562 86.1602 91.5195 84.7793H92.75C92.9141 85.5312 93.6113 85.9141 94.6641 85.9141C95.9355 85.9141 96.7148 85.3672 96.7148 84.1367V82.6328H96.6191C96.373 83.043 95.8945 83.8906 94.459 83.8906C92.6543 83.8906 91.3008 82.5234 91.3008 80.1855C91.3008 77.9023 92.6133 76.4805 94.4727 76.4805C95.9082 76.4805 96.373 77.3555 96.6465 77.752H96.7422V76.5762H97.8906V84.2051C97.8906 86.1191 96.4688 86.9395 94.6641 86.9395ZM94.623 82.8379C95.9766 82.8379 96.7422 81.8672 96.7422 80.2266C96.7422 78.6406 96.0039 77.5332 94.623 77.5332C93.2012 77.5332 92.4902 78.7363 92.4902 80.2266C92.4902 81.7715 93.2148 82.8379 94.623 82.8379ZM102.881 84.1504C100.734 84.1504 99.4082 82.6328 99.4082 80.3496C99.4082 78.0664 100.748 76.4805 102.771 76.4805C104.33 76.4805 105.971 77.4375 105.971 80.1855V80.6777H100.584C100.639 82.25 101.555 83.1113 102.881 83.1113C103.77 83.1113 104.33 82.7285 104.604 82.2637H105.861C105.506 83.3848 104.412 84.1504 102.881 84.1504ZM100.598 79.6797H104.781C104.781 78.4355 103.988 77.5195 102.771 77.5195C101.486 77.5195 100.666 78.5312 100.598 79.6797ZM112.998 84L110.291 74.1016H111.535L113.6 82.1133H113.695L115.787 74.1016H117.168L119.273 82.1133H119.355L121.42 74.1016H122.664L119.957 84H118.686L116.525 76.166H116.443L114.27 84H112.998ZM123.826 84V76.5762H125.002V84H123.826ZM124.414 75.3457C123.963 75.3457 123.594 75.0039 123.594 74.5664C123.594 74.1289 123.963 73.7871 124.414 73.7871C124.865 73.7871 125.248 74.1289 125.248 74.5664C125.248 75.0039 124.865 75.3457 124.414 75.3457ZM131.127 79.2285V80.3086H126.793V79.2285H131.127ZM133.082 84V74.1016H139.043V75.1953H134.312V78.5039H138.592V79.584H134.312V84H133.082ZM140.725 84V76.5762H141.9V84H140.725ZM141.312 75.3457C140.861 75.3457 140.492 75.0039 140.492 74.5664C140.492 74.1289 140.861 73.7871 141.312 73.7871C141.764 73.7871 142.146 74.1289 142.146 74.5664C142.146 75.0039 141.764 75.3457 141.312 75.3457ZM145.318 83.084L144.252 86.8027H143.24L143.992 83.084H145.318ZM153.891 86.9395C152.1 86.9395 150.883 86.1602 150.746 84.7793H151.977C152.141 85.5312 152.838 85.9141 153.891 85.9141C155.162 85.9141 155.941 85.3672 155.941 84.1367V82.6328H155.846C155.6 83.043 155.121 83.8906 153.686 83.8906C151.881 83.8906 150.527 82.5234 150.527 80.1855C150.527 77.9023 151.84 76.4805 153.699 76.4805C155.135 76.4805 155.6 77.3555 155.873 77.752H155.969V76.5762H157.117V84.2051C157.117 86.1191 155.695 86.9395 153.891 86.9395ZM153.85 82.8379C155.203 82.8379 155.969 81.8672 155.969 80.2266C155.969 78.6406 155.23 77.5332 153.85 77.5332C152.428 77.5332 151.717 78.7363 151.717 80.2266C151.717 81.7715 152.441 82.8379 153.85 82.8379ZM158.635 81.8945C158.635 80.1855 160.139 79.8027 161.424 79.707C161.896 79.6729 163.099 79.6113 163.434 79.5977V78.9961C163.434 78.0527 162.873 77.5059 161.752 77.5059C160.809 77.5059 160.248 77.9434 160.084 78.5039H158.854C159.004 77.3145 160.166 76.4805 161.807 76.4805C162.777 76.4805 164.596 76.7676 164.596 79.1055V84H163.434V82.9883H163.379C163.133 83.4941 162.449 84.1777 161.164 84.1777C159.756 84.1777 158.635 83.3438 158.635 81.8945ZM159.811 81.9492C159.811 82.7285 160.467 83.125 161.369 83.125C162.695 83.125 163.434 82.2363 163.434 81.3066V80.5547L161.561 80.6914C160.494 80.7598 159.811 81.1426 159.811 81.9492ZM169.723 76.5762V77.5605H168.164V81.8672C168.164 82.8242 168.629 82.9746 169.135 82.9746C169.354 82.9746 169.654 82.9609 169.832 82.9473V84.041C169.654 84.0684 169.354 84.0957 169.012 84.0957C168.027 84.0957 166.975 83.4805 166.975 82.168V77.5605H165.854V76.5762H166.975V74.7988H168.164V76.5762H169.723ZM174.289 84.1504C172.143 84.1504 170.816 82.6328 170.816 80.3496C170.816 78.0664 172.156 76.4805 174.18 76.4805C175.738 76.4805 177.379 77.4375 177.379 80.1855V80.6777H171.992C172.047 82.25 172.963 83.1113 174.289 83.1113C175.178 83.1113 175.738 82.7285 176.012 82.2637H177.27C176.914 83.3848 175.82 84.1504 174.289 84.1504ZM172.006 79.6797H176.189C176.189 78.4355 175.396 77.5195 174.18 77.5195C172.895 77.5195 172.074 78.5312 172.006 79.6797ZM180.578 84L178.322 76.5762H179.566L181.152 82.2363H181.221L182.793 76.5762H184.051L185.596 82.209H185.678L187.264 76.5762H188.494L186.238 84H185.076L183.463 78.3398H183.354L181.754 84H180.578ZM189.438 81.8945C189.438 80.1855 190.941 79.8027 192.227 79.707C192.698 79.6729 193.901 79.6113 194.236 79.5977V78.9961C194.236 78.0527 193.676 77.5059 192.555 77.5059C191.611 77.5059 191.051 77.9434 190.887 78.5039H189.656C189.807 77.3145 190.969 76.4805 192.609 76.4805C193.58 76.4805 195.398 76.7676 195.398 79.1055V84H194.236V82.9883H194.182C193.936 83.4941 193.252 84.1777 191.967 84.1777C190.559 84.1777 189.438 83.3438 189.438 81.8945ZM190.613 81.9492C190.613 82.7285 191.27 83.125 192.172 83.125C193.498 83.125 194.236 82.2363 194.236 81.3066V80.5547L192.363 80.6914C191.297 80.7598 190.613 81.1426 190.613 81.9492ZM197.764 86.7891C197.504 86.7891 197.258 86.7754 197.107 86.7617V85.709C197.23 85.7227 197.504 85.7363 197.682 85.7363C198.16 85.7363 198.557 85.6953 198.953 84.6152L199.172 84.0547L196.424 76.5762H197.709L199.732 82.4688H199.814L201.838 76.5762H203.123L199.979 85.0664C199.541 86.2285 198.816 86.7891 197.764 86.7891ZM205.502 83.084L204.436 86.8027H203.424L204.176 83.084H205.502ZM210.711 81.8945C210.711 80.1855 212.215 79.8027 213.5 79.707C213.972 79.6729 215.175 79.6113 215.51 79.5977V78.9961C215.51 78.0527 214.949 77.5059 213.828 77.5059C212.885 77.5059 212.324 77.9434 212.16 78.5039H210.93C211.08 77.3145 212.242 76.4805 213.883 76.4805C214.854 76.4805 216.672 76.7676 216.672 79.1055V84H215.51V82.9883H215.455C215.209 83.4941 214.525 84.1777 213.24 84.1777C211.832 84.1777 210.711 83.3438 210.711 81.8945ZM211.887 81.9492C211.887 82.7285 212.543 83.125 213.445 83.125C214.771 83.125 215.51 82.2363 215.51 81.3066V80.5547L213.637 80.6914C212.57 80.7598 211.887 81.1426 211.887 81.9492ZM219.734 79.543V84H218.559V76.5762H219.693V77.7383H219.789C220.145 76.9863 220.828 76.4805 221.963 76.4805C223.467 76.4805 224.465 77.3965 224.465 79.2832V84H223.289V79.3652C223.289 78.2168 222.66 77.5332 221.607 77.5332C220.527 77.5332 219.734 78.2578 219.734 79.543ZM229.154 84.1504C227.309 84.1504 225.996 82.6602 225.996 80.3086C225.996 77.957 227.309 76.4805 229.168 76.4805C230.604 76.4805 231.068 77.3555 231.314 77.752H231.396V74.1016H232.586V84H231.438V82.8652H231.314C231.055 83.2754 230.576 84.1504 229.154 84.1504ZM229.318 83.0977C230.672 83.0977 231.438 81.9492 231.438 80.2812C231.438 78.6406 230.699 77.5332 229.318 77.5332C227.896 77.5332 227.186 78.7363 227.186 80.2812C227.186 81.8672 227.91 83.0977 229.318 83.0977ZM241.172 84.1504C239.066 84.1504 237.781 82.5508 237.781 80.3223C237.781 78.0664 239.121 76.4805 241.145 76.4805C242.73 76.4805 243.906 77.4102 244.098 78.8184H242.922C242.758 78.1348 242.156 77.5195 241.172 77.5195C239.846 77.5195 238.957 78.6133 238.957 80.2812C238.957 82.0039 239.818 83.0977 241.172 83.0977C242.047 83.0977 242.717 82.6328 242.922 81.8125H244.098C243.906 83.1387 242.826 84.1504 241.172 84.1504ZM248.582 84.1504C246.559 84.1504 245.191 82.6328 245.191 80.3223C245.191 78.0117 246.559 76.4805 248.582 76.4805C250.592 76.4805 251.945 78.0117 251.945 80.3223C251.945 82.6328 250.592 84.1504 248.582 84.1504ZM248.582 83.1113C250.072 83.1113 250.77 81.7988 250.77 80.3223C250.77 78.8457 250.072 77.5195 248.582 77.5195C247.064 77.5195 246.367 78.8457 246.367 80.3223C246.367 81.7988 247.064 83.1113 248.582 83.1113ZM254.666 79.543V84H253.49V76.5762H254.625V77.7383H254.721C255.076 76.9863 255.76 76.4805 256.895 76.4805C258.398 76.4805 259.396 77.3965 259.396 79.2832V84H258.221V79.3652C258.221 78.2168 257.592 77.5332 256.539 77.5332C255.459 77.5332 254.666 78.2578 254.666 79.543ZM262.459 79.543V84H261.283V76.5762H262.418V77.7383H262.514C262.869 76.9863 263.553 76.4805 264.688 76.4805C266.191 76.4805 267.189 77.3965 267.189 79.2832V84H266.014V79.3652C266.014 78.2168 265.385 77.5332 264.332 77.5332C263.252 77.5332 262.459 78.2578 262.459 79.543ZM272.193 84.1504C270.047 84.1504 268.721 82.6328 268.721 80.3496C268.721 78.0664 270.061 76.4805 272.084 76.4805C273.643 76.4805 275.283 77.4375 275.283 80.1855V80.6777H269.896C269.951 82.25 270.867 83.1113 272.193 83.1113C273.082 83.1113 273.643 82.7285 273.916 82.2637H275.174C274.818 83.3848 273.725 84.1504 272.193 84.1504ZM269.91 79.6797H274.094C274.094 78.4355 273.301 77.5195 272.084 77.5195C270.799 77.5195 269.979 78.5312 269.91 79.6797ZM279.85 84.1504C277.744 84.1504 276.459 82.5508 276.459 80.3223C276.459 78.0664 277.799 76.4805 279.822 76.4805C281.408 76.4805 282.584 77.4102 282.775 78.8184H281.6C281.436 78.1348 280.834 77.5195 279.85 77.5195C278.523 77.5195 277.635 78.6133 277.635 80.2812C277.635 82.0039 278.496 83.0977 279.85 83.0977C280.725 83.0977 281.395 82.6328 281.6 81.8125H282.775C282.584 83.1387 281.504 84.1504 279.85 84.1504ZM287.465 76.5762V77.5605H285.906V81.8672C285.906 82.8242 286.371 82.9746 286.877 82.9746C287.096 82.9746 287.396 82.9609 287.574 82.9473V84.041C287.396 84.0684 287.096 84.0957 286.754 84.0957C285.77 84.0957 284.717 83.4805 284.717 82.168V77.5605H283.596V76.5762H284.717V74.7988H285.906V76.5762H287.465ZM288.982 84V76.5762H290.158V84H288.982ZM289.57 75.3457C289.119 75.3457 288.75 75.0039 288.75 74.5664C288.75 74.1289 289.119 73.7871 289.57 73.7871C290.021 73.7871 290.404 74.1289 290.404 74.5664C290.404 75.0039 290.021 75.3457 289.57 75.3457ZM295.066 84.1504C293.043 84.1504 291.676 82.6328 291.676 80.3223C291.676 78.0117 293.043 76.4805 295.066 76.4805C297.076 76.4805 298.43 78.0117 298.43 80.3223C298.43 82.6328 297.076 84.1504 295.066 84.1504ZM295.066 83.1113C296.557 83.1113 297.254 81.7988 297.254 80.3223C297.254 78.8457 296.557 77.5195 295.066 77.5195C293.549 77.5195 292.852 78.8457 292.852 80.3223C292.852 81.7988 293.549 83.1113 295.066 83.1113ZM301.15 79.543V84H299.975V76.5762H301.109V77.7383H301.205C301.561 76.9863 302.244 76.4805 303.379 76.4805C304.883 76.4805 305.881 77.3965 305.881 79.2832V84H304.705V79.3652C304.705 78.2168 304.076 77.5332 303.023 77.5332C301.943 77.5332 301.15 78.2578 301.15 79.543ZM314.316 84.1504C312.293 84.1504 310.926 82.6328 310.926 80.3223C310.926 78.0117 312.293 76.4805 314.316 76.4805C316.326 76.4805 317.68 78.0117 317.68 80.3223C317.68 82.6328 316.326 84.1504 314.316 84.1504ZM314.316 83.1113C315.807 83.1113 316.504 81.7988 316.504 80.3223C316.504 78.8457 315.807 77.5195 314.316 77.5195C312.799 77.5195 312.102 78.8457 312.102 80.3223C312.102 81.7988 312.799 83.1113 314.316 83.1113ZM319.225 86.7891V76.5762H320.359V77.752H320.496C320.742 77.3555 321.207 76.4805 322.643 76.4805C324.502 76.4805 325.801 77.957 325.801 80.3086C325.801 82.6602 324.502 84.1504 322.656 84.1504C321.234 84.1504 320.742 83.2754 320.496 82.8652H320.4V86.7891H319.225ZM320.373 80.2812C320.373 81.9492 321.125 83.0977 322.492 83.0977C323.9 83.0977 324.625 81.8672 324.625 80.2812C324.625 78.7363 323.914 77.5332 322.492 77.5332C321.098 77.5332 320.373 78.6406 320.373 80.2812ZM330.572 76.5762V77.5605H329.014V81.8672C329.014 82.8242 329.479 82.9746 329.984 82.9746C330.203 82.9746 330.504 82.9609 330.682 82.9473V84.041C330.504 84.0684 330.203 84.0957 329.861 84.0957C328.877 84.0957 327.824 83.4805 327.824 82.168V77.5605H326.703V76.5762H327.824V74.7988H329.014V76.5762H330.572ZM332.09 84V76.5762H333.266V84H332.09ZM332.678 75.3457C332.227 75.3457 331.857 75.0039 331.857 74.5664C331.857 74.1289 332.227 73.7871 332.678 73.7871C333.129 73.7871 333.512 74.1289 333.512 74.5664C333.512 75.0039 333.129 75.3457 332.678 75.3457ZM338.174 84.1504C336.15 84.1504 334.783 82.6328 334.783 80.3223C334.783 78.0117 336.15 76.4805 338.174 76.4805C340.184 76.4805 341.537 78.0117 341.537 80.3223C341.537 82.6328 340.184 84.1504 338.174 84.1504ZM338.174 83.1113C339.664 83.1113 340.361 81.7988 340.361 80.3223C340.361 78.8457 339.664 77.5195 338.174 77.5195C336.656 77.5195 335.959 78.8457 335.959 80.3223C335.959 81.7988 336.656 83.1113 338.174 83.1113ZM344.258 79.543V84H343.082V76.5762H344.217V77.7383H344.312C344.668 76.9863 345.352 76.4805 346.486 76.4805C347.99 76.4805 348.988 77.3965 348.988 79.2832V84H347.812V79.3652C347.812 78.2168 347.184 77.5332 346.131 77.5332C345.051 77.5332 344.258 78.2578 344.258 79.543ZM355.004 78.5039C354.84 77.8887 354.375 77.4785 353.5 77.4785C352.584 77.4785 351.928 77.9707 351.928 78.5996C351.928 79.0918 352.324 79.4336 353.199 79.6387L354.307 79.9121C355.633 80.2266 356.289 80.8828 356.289 81.9219C356.289 83.207 355.236 84.1504 353.377 84.1504C351.709 84.1504 350.711 83.4121 350.52 82.0586H351.75C351.887 82.7832 352.42 83.125 353.35 83.125C354.402 83.125 355.072 82.6875 355.072 81.9902C355.072 81.4707 354.703 81.1152 353.855 80.9238L352.734 80.6641C351.436 80.3633 350.752 79.6523 350.752 78.668C350.752 77.3965 351.859 76.4805 353.5 76.4805C355.031 76.4805 356.002 77.3008 356.152 78.5039H355.004ZM358.654 84.082C358.176 84.082 357.766 83.6855 357.779 83.1934C357.766 82.7148 358.176 82.3184 358.654 82.3184C359.133 82.3184 359.529 82.7148 359.529 83.1934C359.529 83.6855 359.133 84.082 358.654 84.082Z" fill="var(--sol-element-secondary)"/>
</g>
<defs>
<clipPath id="clip0_1664_177515">
<path d="M0 8C0 3.58172 3.58172 0 8 0H434C438.418 0 442 3.58172 442 8V142C442 146.418 438.418 150 434 150H8C3.58172 150 0 146.418 0 142V8Z" fill="var(--sol-surface)"/>
</clipPath>
</defs>
</svg>
