<svg width="442" height="180" viewBox="0 0 442 180" fill="none" xmlns="http://www.w3.org/2000/svg">
<style>
:root {
  --sol-element-primary: #161616;
  --sol-element-secondary: #484848;
  --sol-element-quaternary: #858585;
  --sol-element-brand-variant: #3a3480;
  --sol-primary: #282363;
  --sol-fill-active: #4d469a;
  --sol-surface: #ffffff;
  --sol-border-normal-variant: #ebebeb;
  --sol-border-solid-variant: #e0e0e0;
  --sol-error: #e76067;
  --sol-error-dim: #b84451;
  --sol-static-white: #ffffff;
  --sol-static-black: #000000;
  --color-green-500: #35a142;
  --color-yellow-500: #d4ae00;
}
@media (prefers-color-scheme: dark) {
  :root {
    --sol-element-primary: #ffffff;
    --sol-element-secondary: rgba(255, 255, 255, 0.8);
    --sol-element-quaternary: rgba(255, 255, 255, 0.5);
    --sol-element-brand-variant: #ffffff;
    --sol-primary: #9791d4;
    --sol-fill-active: #7b74c4;
    --sol-surface: #161616;
    --sol-border-normal-variant: rgba(255, 255, 255, 0.08);
    --sol-border-solid-variant: #3d3d3d;
    --sol-error: #ee7a80;
    --sol-error-dim: #e76067;
  }
}
</style>
<g clip-path="url(#clip0_1664_177557)">
<rect width="442" height="180" fill="var(--sol-surface)"/>
<mask id="mask0_1664_177557" style="mask-type:alpha" maskUnits="userSpaceOnUse" x="32" y="30" width="16" height="16">
<path d="M44.3535 36.3535L40.3535 40.3535C40.1583 40.5488 39.8417 40.5488 39.6465 40.3535L35.6465 36.3535L36.3535 35.6465L40 39.293L43.6465 35.6465L44.3535 36.3535Z" fill="var(--sol-element-primary)"/>
</mask>
<g mask="url(#mask0_1664_177557)">
<rect x="32" y="30" width="16" height="16" fill="var(--sol-element-quaternary)"/>
</g>
<path d="M58.1738 43H56.2734L59.7598 33.1016H61.9473L65.4473 43H63.5469L62.7266 40.5527H58.9941L58.1738 43ZM59.4727 39.1172H62.248L60.8945 35.125H60.8125L59.4727 39.1172ZM69.084 43.1367C67.334 43.1367 66.0215 41.7422 66.0215 39.2949C66.0215 36.8203 67.375 35.4805 69.0977 35.4805C70.4102 35.4805 70.957 36.2598 71.2168 36.793H71.2852V33.1016H73.0215V43H71.3125V41.8242H71.2168C70.9434 42.3711 70.3691 43.1367 69.084 43.1367ZM69.5625 41.7012C70.6836 41.7012 71.3262 40.7305 71.3262 39.2812C71.3262 37.8457 70.6973 36.9023 69.5625 36.9023C68.4004 36.9023 67.7988 37.9004 67.7988 39.2812C67.7988 40.6895 68.4141 41.7012 69.5625 41.7012ZM81.416 35.5762L78.7637 43H76.8496L74.1973 35.5762H76.0566L77.7656 41.0996H77.8477L79.5703 35.5762H81.416ZM81.9492 40.9082C81.9492 39.2402 83.3301 38.748 84.7109 38.666C85.2236 38.6318 86.29 38.5703 86.6113 38.5566V37.9688C86.6113 37.2305 86.1328 36.8066 85.2715 36.8066C84.4922 36.8066 84.0137 37.1621 83.877 37.6953H82.1953C82.3184 36.4375 83.4531 35.4805 85.3125 35.4805C86.7207 35.4805 88.3477 36.0547 88.3477 38.0371V43H86.6797V41.9746H86.625C86.2969 42.6035 85.5996 43.1504 84.4375 43.1504C83.0156 43.1504 81.9492 42.3711 81.9492 40.9082ZM83.6309 40.8945C83.6309 41.5371 84.1504 41.8652 84.8887 41.8652C85.9414 41.8652 86.625 41.168 86.625 40.334V39.7188L84.9844 39.8281C84.1504 39.8965 83.6309 40.2383 83.6309 40.8945ZM91.7383 38.6523V43H89.9883V35.5762H91.6562V36.834H91.752C92.0938 36 92.8457 35.4805 93.9531 35.4805C95.498 35.4805 96.5098 36.4922 96.4961 38.2695V43H94.7598V38.543C94.7598 37.5449 94.2266 36.957 93.3105 36.957C92.3809 36.957 91.7383 37.5723 91.7383 38.6523ZM101.404 43.1504C99.1895 43.1504 97.8496 41.5645 97.8496 39.3223C97.8496 37.0527 99.2305 35.4805 101.404 35.4805C103.209 35.4805 104.467 36.5332 104.59 38.1328H102.922C102.785 37.4219 102.266 36.875 101.418 36.875C100.338 36.875 99.6133 37.791 99.6133 39.2812C99.6133 40.8125 100.324 41.7285 101.418 41.7285C102.197 41.7285 102.771 41.2773 102.922 40.4707H104.59C104.453 42.043 103.264 43.1504 101.404 43.1504ZM109.197 43.1504C106.955 43.1504 105.588 41.6602 105.588 39.3359C105.588 37.0391 106.982 35.4805 109.102 35.4805C110.92 35.4805 112.492 36.6152 112.492 39.2266V39.7734H107.311C107.331 41.0381 108.076 41.7832 109.211 41.7832C109.977 41.7832 110.496 41.4551 110.715 41.0176H112.424C112.109 42.3027 110.92 43.1504 109.197 43.1504ZM107.324 38.584H110.824C110.811 37.5723 110.141 36.834 109.129 36.834C108.076 36.834 107.379 37.6338 107.324 38.584ZM116.607 43.1367C114.857 43.1367 113.545 41.7422 113.545 39.2949C113.545 36.8203 114.898 35.4805 116.621 35.4805C117.934 35.4805 118.48 36.2598 118.74 36.793H118.809V33.1016H120.545V43H118.836V41.8242H118.74C118.467 42.3711 117.893 43.1367 116.607 43.1367ZM117.086 41.7012C118.207 41.7012 118.85 40.7305 118.85 39.2812C118.85 37.8457 118.221 36.9023 117.086 36.9023C115.924 36.9023 115.322 37.9004 115.322 39.2812C115.322 40.6895 115.938 41.7012 117.086 41.7012ZM128.871 43.1504C126.711 43.1504 125.316 41.6191 125.316 39.3223C125.316 37.0117 126.711 35.4805 128.871 35.4805C131.045 35.4805 132.426 37.0117 132.426 39.3223C132.426 41.6191 131.045 43.1504 128.871 43.1504ZM128.885 41.7559C130.074 41.7559 130.662 40.6758 130.662 39.3086C130.662 37.9551 130.074 36.8613 128.885 36.8613C127.668 36.8613 127.08 37.9551 127.08 39.3086C127.08 40.6758 127.668 41.7559 128.885 41.7559ZM133.779 45.7891V35.5762H135.488V36.793H135.598C135.871 36.2598 136.418 35.4805 137.73 35.4805C139.439 35.4805 140.793 36.8203 140.793 39.2949C140.793 41.7422 139.48 43.1367 137.73 43.1367C136.445 43.1367 135.871 42.3711 135.598 41.8242H135.529V45.7891H133.779ZM135.488 39.2812C135.488 40.7305 136.117 41.7012 137.252 41.7012C138.4 41.7012 139.016 40.6895 139.016 39.2812C139.016 37.9004 138.414 36.9023 137.252 36.9023C136.117 36.9023 135.488 37.8457 135.488 39.2812ZM145.865 35.5762V36.916H144.402V40.7715C144.402 41.4824 144.758 41.6328 145.195 41.6328C145.4 41.6328 145.742 41.6191 145.961 41.6055V43.0273C145.756 43.0684 145.414 43.0957 144.977 43.0957C143.664 43.0957 142.652 42.4531 142.666 41.0586V36.916H141.6V35.5762H142.666V33.7988H144.402V35.5762H145.865ZM147.205 43V35.5762H148.955V43H147.205ZM148.094 34.5234C147.547 34.5234 147.082 34.0996 147.082 33.5664C147.082 33.0469 147.547 32.623 148.094 32.623C148.654 32.623 149.105 33.0469 149.105 33.5664C149.105 34.0996 148.654 34.5234 148.094 34.5234ZM153.863 43.1504C151.703 43.1504 150.309 41.6191 150.309 39.3223C150.309 37.0117 151.703 35.4805 153.863 35.4805C156.037 35.4805 157.418 37.0117 157.418 39.3223C157.418 41.6191 156.037 43.1504 153.863 43.1504ZM153.877 41.7559C155.066 41.7559 155.654 40.6758 155.654 39.3086C155.654 37.9551 155.066 36.8613 153.877 36.8613C152.66 36.8613 152.072 37.9551 152.072 39.3086C152.072 40.6758 152.66 41.7559 153.877 41.7559ZM160.521 38.6523V43H158.771V35.5762H160.439V36.834H160.535C160.877 36 161.629 35.4805 162.736 35.4805C164.281 35.4805 165.293 36.4922 165.279 38.2695V43H163.543V38.543C163.543 37.5449 163.01 36.957 162.094 36.957C161.164 36.957 160.521 37.5723 160.521 38.6523ZM171.158 37.6953C171.049 37.1348 170.584 36.7793 169.846 36.7793C169.094 36.7793 168.547 37.1484 168.561 37.6543C168.547 38.0371 168.861 38.3242 169.613 38.502L170.871 38.7617C172.279 39.0762 172.949 39.7188 172.963 40.7852C172.949 42.1797 171.732 43.1504 169.791 43.1504C167.904 43.1504 166.783 42.3027 166.605 40.8809H168.383C168.492 41.5098 168.984 41.8242 169.791 41.8242C170.625 41.8242 171.186 41.4824 171.186 40.9355C171.186 40.5117 170.844 40.2383 170.105 40.0742L168.916 39.8145C167.535 39.541 166.824 38.8164 166.824 37.75C166.824 36.3828 168 35.4805 169.818 35.4805C171.596 35.4805 172.689 36.3418 172.812 37.6953H171.158Z" fill="var(--sol-element-brand-variant)"/>
<rect width="410" height="0.999974" transform="translate(16 60)" fill="var(--sol-border-normal-variant)"/>
<rect width="410" height="103" transform="translate(16 61)" fill="var(--sol-element-primary)" fill-opacity="0.04"/>
<g clip-path="url(#clip1_1664_177557)">
<path d="M56 77C56 74.7909 57.7909 73 60 73H116C118.209 73 120 74.7909 120 77V101C120 103.209 118.209 105 116 105H60C57.7909 105 56 103.209 56 101V77Z" fill="var(--sol-surface)"/>
<path d="M79.8789 86.8477C79.8086 86.1211 79.1875 85.6992 78.2734 85.6992C77.3125 85.6992 76.7266 86.168 76.7266 86.8008C76.7266 87.5156 77.4766 87.8086 78.1797 87.9727L78.9766 88.1836C80.2422 88.4766 81.4609 89.1445 81.4609 90.6211C81.4609 92.1094 80.2891 93.1289 78.25 93.1289C76.2695 93.1289 75.0273 92.1797 74.957 90.5039H76.457C76.5273 91.3945 77.2773 91.8281 78.2383 91.8281C79.2461 91.8281 79.9375 91.3359 79.9375 90.6094C79.9375 89.9414 79.3164 89.6602 78.4023 89.4258L77.4414 89.1797C76.0469 88.8164 75.1797 88.1133 75.1797 86.8945C75.1797 85.3945 76.5156 84.3984 78.2969 84.3984C80.1016 84.3984 81.3203 85.418 81.3438 86.8477H79.8789ZM82.3633 91.207C82.3633 89.7773 83.5469 89.3555 84.7305 89.2852C85.1699 89.2559 86.084 89.2031 86.3594 89.1914V88.6875C86.3594 88.0547 85.9492 87.6914 85.2109 87.6914C84.543 87.6914 84.1328 87.9961 84.0156 88.4531H82.5742C82.6797 87.375 83.6523 86.5547 85.2461 86.5547C86.4531 86.5547 87.8477 87.0469 87.8477 88.7461V93H86.418V92.1211H86.3711C86.0898 92.6602 85.4922 93.1289 84.4961 93.1289C83.2773 93.1289 82.3633 92.4609 82.3633 91.207ZM83.8047 91.1953C83.8047 91.7461 84.25 92.0273 84.8828 92.0273C85.7852 92.0273 86.3711 91.4297 86.3711 90.7148V90.1875L84.9648 90.2812C84.25 90.3398 83.8047 90.6328 83.8047 91.1953ZM94.7031 86.6367L92.4297 93H90.7891L88.5156 86.6367H90.1094L91.5742 91.3711H91.6445L93.1211 86.6367H94.7031ZM98.2539 93.1289C96.332 93.1289 95.1602 91.8516 95.1602 89.8594C95.1602 87.8906 96.3555 86.5547 98.1719 86.5547C99.7305 86.5547 101.078 87.5273 101.078 89.7656V90.2344H96.6367C96.6543 91.3184 97.293 91.957 98.2656 91.957C98.9219 91.957 99.3672 91.6758 99.5547 91.3008H101.02C100.75 92.4023 99.7305 93.1289 98.2539 93.1289ZM96.6484 89.2148H99.6484C99.6367 88.3477 99.0625 87.7148 98.1953 87.7148C97.293 87.7148 96.6953 88.4004 96.6484 89.2148Z" fill="var(--sol-primary)"/>
</g>
<path d="M60 73.5H116C117.933 73.5 119.5 75.067 119.5 77V101C119.5 102.933 117.933 104.5 116 104.5H60C58.067 104.5 56.5 102.933 56.5 101V77C56.5 75.067 58.067 73.5 60 73.5Z" stroke="var(--sol-element-primary)" stroke-opacity="0.16"/>
<g clip-path="url(#clip2_1664_177557)">
<path d="M136 77C136 74.7909 137.791 73 140 73H196C198.209 73 200 74.7909 200 77V101C200 103.209 198.209 105 196 105H140C137.791 105 136 103.209 136 101V77Z" fill="var(--sol-surface)"/>
<path d="M158.039 93V84.5156H163.559V85.793H159.562V88.1133H163.266V89.3906H159.562V91.7109H163.582V93H158.039ZM167.32 93.1172C165.82 93.1172 164.695 91.9219 164.695 89.8242C164.695 87.7031 165.855 86.5547 167.332 86.5547C168.457 86.5547 168.926 87.2227 169.148 87.6797H169.207V84.5156H170.695V93H169.23V91.9922H169.148C168.914 92.4609 168.422 93.1172 167.32 93.1172ZM167.73 91.8867C168.691 91.8867 169.242 91.0547 169.242 89.8125C169.242 88.582 168.703 87.7734 167.73 87.7734C166.734 87.7734 166.219 88.6289 166.219 89.8125C166.219 91.0195 166.746 91.8867 167.73 91.8867ZM172.207 93V86.6367H173.707V93H172.207ZM172.969 85.7344C172.5 85.7344 172.102 85.3711 172.102 84.9141C172.102 84.4688 172.5 84.1055 172.969 84.1055C173.449 84.1055 173.836 84.4688 173.836 84.9141C173.836 85.3711 173.449 85.7344 172.969 85.7344ZM178.312 86.6367V87.7852H177.059V91.0898C177.059 91.6992 177.363 91.8281 177.738 91.8281C177.914 91.8281 178.207 91.8164 178.395 91.8047V93.0234C178.219 93.0586 177.926 93.082 177.551 93.082C176.426 93.082 175.559 92.5312 175.57 91.3359V87.7852H174.656V86.6367H175.57V85.1133H177.059V86.6367H178.312Z" fill="var(--sol-primary)"/>
</g>
<path d="M140 73.5H196C197.933 73.5 199.5 75.067 199.5 77V101C199.5 102.933 197.933 104.5 196 104.5H140C138.067 104.5 136.5 102.933 136.5 101V77C136.5 75.067 138.067 73.5 140 73.5Z" stroke="var(--sol-element-primary)" stroke-opacity="0.16"/>
<g clip-path="url(#clip3_1664_177557)">
<path d="M216 77C216 74.7909 217.791 73 220 73H276C278.209 73 280 74.7909 280 77V101C280 103.209 278.209 105 276 105H220C217.791 105 216 103.209 216 101V77Z" fill="var(--sol-surface)"/>
<path d="M233.686 93H230.803V84.5156H233.732C236.264 84.5156 237.799 86.1094 237.799 88.7461C237.799 91.3945 236.264 93 233.686 93ZM232.326 91.6758H233.604C235.373 91.6758 236.275 90.7031 236.275 88.7461C236.275 86.8008 235.373 85.8398 233.65 85.8398H232.326V91.6758ZM241.9 93.1289C239.979 93.1289 238.807 91.8516 238.807 89.8594C238.807 87.8906 240.002 86.5547 241.818 86.5547C243.377 86.5547 244.725 87.5273 244.725 89.7656V90.2344H240.283C240.301 91.3184 240.939 91.957 241.912 91.957C242.568 91.957 243.014 91.6758 243.201 91.3008H244.666C244.396 92.4023 243.377 93.1289 241.9 93.1289ZM240.295 89.2148H243.295C243.283 88.3477 242.709 87.7148 241.842 87.7148C240.939 87.7148 240.342 88.4004 240.295 89.2148ZM247.385 84.5156V93H245.885V84.5156H247.385ZM251.639 93.1289C249.717 93.1289 248.545 91.8516 248.545 89.8594C248.545 87.8906 249.74 86.5547 251.557 86.5547C253.115 86.5547 254.463 87.5273 254.463 89.7656V90.2344H250.021C250.039 91.3184 250.678 91.957 251.65 91.957C252.307 91.957 252.752 91.6758 252.939 91.3008H254.404C254.135 92.4023 253.115 93.1289 251.639 93.1289ZM250.033 89.2148H253.033C253.021 88.3477 252.447 87.7148 251.58 87.7148C250.678 87.7148 250.08 88.4004 250.033 89.2148ZM258.799 86.6367V87.7852H257.545V91.0898C257.545 91.6992 257.85 91.8281 258.225 91.8281C258.4 91.8281 258.693 91.8164 258.881 91.8047V93.0234C258.705 93.0586 258.412 93.082 258.037 93.082C256.912 93.082 256.045 92.5312 256.057 91.3359V87.7852H255.143V86.6367H256.057V85.1133H257.545V86.6367H258.799ZM262.713 93.1289C260.791 93.1289 259.619 91.8516 259.619 89.8594C259.619 87.8906 260.814 86.5547 262.631 86.5547C264.189 86.5547 265.537 87.5273 265.537 89.7656V90.2344H261.096C261.113 91.3184 261.752 91.957 262.725 91.957C263.381 91.957 263.826 91.6758 264.014 91.3008H265.479C265.209 92.4023 264.189 93.1289 262.713 93.1289ZM261.107 89.2148H264.107C264.096 88.3477 263.521 87.7148 262.654 87.7148C261.752 87.7148 261.154 88.4004 261.107 89.2148Z" fill="var(--sol-primary)"/>
</g>
<path d="M220 73.5H276C277.933 73.5 279.5 75.067 279.5 77V101C279.5 102.933 277.933 104.5 276 104.5H220C218.067 104.5 216.5 102.933 216.5 101V77C216.5 75.067 218.067 73.5 220 73.5Z" stroke="var(--sol-element-primary)" stroke-opacity="0.16"/>
</g>
<defs>
<clipPath id="clip0_1664_177557">
<path d="M0 8C0 3.58172 3.58172 0 8 0H434C438.418 0 442 3.58172 442 8V172C442 176.418 438.418 180 434 180H8C3.58172 180 0 176.418 0 172V8Z" fill="var(--sol-surface)"/>
</clipPath>
<clipPath id="clip1_1664_177557">
<path d="M56 77C56 74.7909 57.7909 73 60 73H116C118.209 73 120 74.7909 120 77V101C120 103.209 118.209 105 116 105H60C57.7909 105 56 103.209 56 101V77Z" fill="var(--sol-surface)"/>
</clipPath>
<clipPath id="clip2_1664_177557">
<path d="M136 77C136 74.7909 137.791 73 140 73H196C198.209 73 200 74.7909 200 77V101C200 103.209 198.209 105 196 105H140C137.791 105 136 103.209 136 101V77Z" fill="var(--sol-surface)"/>
</clipPath>
<clipPath id="clip3_1664_177557">
<path d="M216 77C216 74.7909 217.791 73 220 73H276C278.209 73 280 74.7909 280 77V101C280 103.209 278.209 105 276 105H220C217.791 105 216 103.209 216 101V77Z" fill="var(--sol-surface)"/>
</clipPath>
</defs>
</svg>
