<svg width="442" height="180" viewBox="0 0 442 180" fill="none" xmlns="http://www.w3.org/2000/svg">
<style>
:root {
  --sol-element-primary: #161616;
  --sol-element-secondary: #484848;
  --sol-element-quaternary: #858585;
  --sol-element-brand-variant: #3a3480;
  --sol-primary: #282363;
  --sol-fill-active: #4d469a;
  --sol-surface: #ffffff;
  --sol-border-normal-variant: #ebebeb;
  --sol-border-solid-variant: #e0e0e0;
  --sol-error: #e76067;
  --sol-error-dim: #b84451;
  --sol-static-white: #ffffff;
  --sol-static-black: #000000;
  --color-green-500: #35a142;
  --color-yellow-500: #d4ae00;
}
@media (prefers-color-scheme: dark) {
  :root {
    --sol-element-primary: #ffffff;
    --sol-element-secondary: rgba(255, 255, 255, 0.8);
    --sol-element-quaternary: rgba(255, 255, 255, 0.5);
    --sol-element-brand-variant: #ffffff;
    --sol-primary: #9791d4;
    --sol-fill-active: #7b74c4;
    --sol-surface: #161616;
    --sol-border-normal-variant: rgba(255, 255, 255, 0.08);
    --sol-border-solid-variant: #3d3d3d;
    --sol-error: #ee7a80;
    --sol-error-dim: #e76067;
  }
}
</style>
<g clip-path="url(#clip0_1664_177551)">
<rect width="442" height="180" fill="var(--sol-surface)"/>
<mask id="mask0_1664_177551" style="mask-type:alpha" maskUnits="userSpaceOnUse" x="32" y="33" width="16" height="17">
<path d="M44.3535 39.8535L40.3535 43.8535C40.1583 44.0488 39.8417 44.0488 39.6465 43.8535L35.6465 39.8535L36.3535 39.1465L40 42.793L43.6465 39.1465L44.3535 39.8535Z" fill="var(--sol-element-primary)"/>
</mask>
<g mask="url(#mask0_1664_177551)">
<rect x="32" y="33.5" width="16" height="16" fill="var(--sol-element-quaternary)"/>
</g>
<path d="M58.1738 46.5H56.2734L59.7598 36.6016H61.9473L65.4473 46.5H63.5469L62.7266 44.0527H58.9941L58.1738 46.5ZM59.4727 42.6172H62.248L60.8945 38.625H60.8125L59.4727 42.6172ZM69.084 46.6367C67.334 46.6367 66.0215 45.2422 66.0215 42.7949C66.0215 40.3203 67.375 38.9805 69.0977 38.9805C70.4102 38.9805 70.957 39.7598 71.2168 40.293H71.2852V36.6016H73.0215V46.5H71.3125V45.3242H71.2168C70.9434 45.8711 70.3691 46.6367 69.084 46.6367ZM69.5625 45.2012C70.6836 45.2012 71.3262 44.2305 71.3262 42.7812C71.3262 41.3457 70.6973 40.4023 69.5625 40.4023C68.4004 40.4023 67.7988 41.4004 67.7988 42.7812C67.7988 44.1895 68.4141 45.2012 69.5625 45.2012ZM81.416 39.0762L78.7637 46.5H76.8496L74.1973 39.0762H76.0566L77.7656 44.5996H77.8477L79.5703 39.0762H81.416ZM81.9492 44.4082C81.9492 42.7402 83.3301 42.248 84.7109 42.166C85.2236 42.1318 86.29 42.0703 86.6113 42.0566V41.4688C86.6113 40.7305 86.1328 40.3066 85.2715 40.3066C84.4922 40.3066 84.0137 40.6621 83.877 41.1953H82.1953C82.3184 39.9375 83.4531 38.9805 85.3125 38.9805C86.7207 38.9805 88.3477 39.5547 88.3477 41.5371V46.5H86.6797V45.4746H86.625C86.2969 46.1035 85.5996 46.6504 84.4375 46.6504C83.0156 46.6504 81.9492 45.8711 81.9492 44.4082ZM83.6309 44.3945C83.6309 45.0371 84.1504 45.3652 84.8887 45.3652C85.9414 45.3652 86.625 44.668 86.625 43.834V43.2188L84.9844 43.3281C84.1504 43.3965 83.6309 43.7383 83.6309 44.3945ZM91.7383 42.1523V46.5H89.9883V39.0762H91.6562V40.334H91.752C92.0938 39.5 92.8457 38.9805 93.9531 38.9805C95.498 38.9805 96.5098 39.9922 96.4961 41.7695V46.5H94.7598V42.043C94.7598 41.0449 94.2266 40.457 93.3105 40.457C92.3809 40.457 91.7383 41.0723 91.7383 42.1523ZM101.404 46.6504C99.1895 46.6504 97.8496 45.0645 97.8496 42.8223C97.8496 40.5527 99.2305 38.9805 101.404 38.9805C103.209 38.9805 104.467 40.0332 104.59 41.6328H102.922C102.785 40.9219 102.266 40.375 101.418 40.375C100.338 40.375 99.6133 41.291 99.6133 42.7812C99.6133 44.3125 100.324 45.2285 101.418 45.2285C102.197 45.2285 102.771 44.7773 102.922 43.9707H104.59C104.453 45.543 103.264 46.6504 101.404 46.6504ZM109.197 46.6504C106.955 46.6504 105.588 45.1602 105.588 42.8359C105.588 40.5391 106.982 38.9805 109.102 38.9805C110.92 38.9805 112.492 40.1152 112.492 42.7266V43.2734H107.311C107.331 44.5381 108.076 45.2832 109.211 45.2832C109.977 45.2832 110.496 44.9551 110.715 44.5176H112.424C112.109 45.8027 110.92 46.6504 109.197 46.6504ZM107.324 42.084H110.824C110.811 41.0723 110.141 40.334 109.129 40.334C108.076 40.334 107.379 41.1338 107.324 42.084ZM116.607 46.6367C114.857 46.6367 113.545 45.2422 113.545 42.7949C113.545 40.3203 114.898 38.9805 116.621 38.9805C117.934 38.9805 118.48 39.7598 118.74 40.293H118.809V36.6016H120.545V46.5H118.836V45.3242H118.74C118.467 45.8711 117.893 46.6367 116.607 46.6367ZM117.086 45.2012C118.207 45.2012 118.85 44.2305 118.85 42.7812C118.85 41.3457 118.221 40.4023 117.086 40.4023C115.924 40.4023 115.322 41.4004 115.322 42.7812C115.322 44.1895 115.938 45.2012 117.086 45.2012ZM128.871 46.6504C126.711 46.6504 125.316 45.1191 125.316 42.8223C125.316 40.5117 126.711 38.9805 128.871 38.9805C131.045 38.9805 132.426 40.5117 132.426 42.8223C132.426 45.1191 131.045 46.6504 128.871 46.6504ZM128.885 45.2559C130.074 45.2559 130.662 44.1758 130.662 42.8086C130.662 41.4551 130.074 40.3613 128.885 40.3613C127.668 40.3613 127.08 41.4551 127.08 42.8086C127.08 44.1758 127.668 45.2559 128.885 45.2559ZM133.779 49.2891V39.0762H135.488V40.293H135.598C135.871 39.7598 136.418 38.9805 137.73 38.9805C139.439 38.9805 140.793 40.3203 140.793 42.7949C140.793 45.2422 139.48 46.6367 137.73 46.6367C136.445 46.6367 135.871 45.8711 135.598 45.3242H135.529V49.2891H133.779ZM135.488 42.7812C135.488 44.2305 136.117 45.2012 137.252 45.2012C138.4 45.2012 139.016 44.1895 139.016 42.7812C139.016 41.4004 138.414 40.4023 137.252 40.4023C136.117 40.4023 135.488 41.3457 135.488 42.7812ZM145.865 39.0762V40.416H144.402V44.2715C144.402 44.9824 144.758 45.1328 145.195 45.1328C145.4 45.1328 145.742 45.1191 145.961 45.1055V46.5273C145.756 46.5684 145.414 46.5957 144.977 46.5957C143.664 46.5957 142.652 45.9531 142.666 44.5586V40.416H141.6V39.0762H142.666V37.2988H144.402V39.0762H145.865ZM147.205 46.5V39.0762H148.955V46.5H147.205ZM148.094 38.0234C147.547 38.0234 147.082 37.5996 147.082 37.0664C147.082 36.5469 147.547 36.123 148.094 36.123C148.654 36.123 149.105 36.5469 149.105 37.0664C149.105 37.5996 148.654 38.0234 148.094 38.0234ZM153.863 46.6504C151.703 46.6504 150.309 45.1191 150.309 42.8223C150.309 40.5117 151.703 38.9805 153.863 38.9805C156.037 38.9805 157.418 40.5117 157.418 42.8223C157.418 45.1191 156.037 46.6504 153.863 46.6504ZM153.877 45.2559C155.066 45.2559 155.654 44.1758 155.654 42.8086C155.654 41.4551 155.066 40.3613 153.877 40.3613C152.66 40.3613 152.072 41.4551 152.072 42.8086C152.072 44.1758 152.66 45.2559 153.877 45.2559ZM160.521 42.1523V46.5H158.771V39.0762H160.439V40.334H160.535C160.877 39.5 161.629 38.9805 162.736 38.9805C164.281 38.9805 165.293 39.9922 165.279 41.7695V46.5H163.543V42.043C163.543 41.0449 163.01 40.457 162.094 40.457C161.164 40.457 160.521 41.0723 160.521 42.1523ZM171.158 41.1953C171.049 40.6348 170.584 40.2793 169.846 40.2793C169.094 40.2793 168.547 40.6484 168.561 41.1543C168.547 41.5371 168.861 41.8242 169.613 42.002L170.871 42.2617C172.279 42.5762 172.949 43.2188 172.963 44.2852C172.949 45.6797 171.732 46.6504 169.791 46.6504C167.904 46.6504 166.783 45.8027 166.605 44.3809H168.383C168.492 45.0098 168.984 45.3242 169.791 45.3242C170.625 45.3242 171.186 44.9824 171.186 44.4355C171.186 44.0117 170.844 43.7383 170.105 43.5742L168.916 43.3145C167.535 43.041 166.824 42.3164 166.824 41.25C166.824 39.8828 168 38.9805 169.818 38.9805C171.596 38.9805 172.689 39.8418 172.812 41.1953H171.158Z" fill="var(--sol-element-brand-variant)"/>
<rect width="410" height="0.999974" transform="translate(16 63.5)" fill="var(--sol-border-normal-variant)"/>
<rect width="410" height="96" transform="translate(16 64.5)" fill="var(--sol-element-primary)" fill-opacity="0.04"/>
<g clip-path="url(#clip1_1664_177551)">
<g clip-path="url(#clip2_1664_177551)">
<path d="M39.333 88.5007C39.333 84.8188 42.3178 81.834 45.9997 81.834V81.834C49.6816 81.834 52.6663 84.8188 52.6663 88.5007V88.5007C52.6663 92.1825 49.6816 95.1673 45.9997 95.1673V95.1673C42.3178 95.1673 39.333 92.1825 39.333 88.5007V88.5007Z" fill="var(--sol-fill-active)"/>
<circle cx="45.9993" cy="88.5013" r="3.33333" fill="var(--sol-surface)"/>
</g>
<path d="M63.0938 93.5V83.6016H69.0957V84.6953H64.3242V88.0039H68.7812V89.084H64.3242V92.4062H69.1641V93.5H63.0938ZM72.0625 89.043V93.5H70.8867V86.0762H72.0215V87.2383H72.1172C72.4727 86.4863 73.1562 85.9805 74.291 85.9805C75.7949 85.9805 76.793 86.8965 76.793 88.7832V93.5H75.6172V88.8652C75.6172 87.7168 74.9883 87.0332 73.9355 87.0332C72.8555 87.0332 72.0625 87.7578 72.0625 89.043ZM78.3242 91.3945C78.3242 89.6855 79.8281 89.3027 81.1133 89.207C81.585 89.1729 82.7881 89.1113 83.123 89.0977V88.4961C83.123 87.5527 82.5625 87.0059 81.4414 87.0059C80.498 87.0059 79.9375 87.4434 79.7734 88.0039H78.543C78.6934 86.8145 79.8555 85.9805 81.4961 85.9805C82.4668 85.9805 84.2852 86.2676 84.2852 88.6055V93.5H83.123V92.4883H83.0684C82.8223 92.9941 82.1387 93.6777 80.8535 93.6777C79.4453 93.6777 78.3242 92.8438 78.3242 91.3945ZM79.5 91.4492C79.5 92.2285 80.1562 92.625 81.0586 92.625C82.3848 92.625 83.123 91.7363 83.123 90.8066V90.0547L81.25 90.1914C80.1836 90.2598 79.5 90.6426 79.5 91.4492ZM86.3223 93.5V83.6016H87.498V87.252H87.5938C87.8535 86.8555 88.291 85.9805 89.7402 85.9805C91.5996 85.9805 92.9121 87.457 92.9121 89.8086C92.9121 92.1602 91.5996 93.6504 89.7539 93.6504C88.332 93.6504 87.8535 92.7754 87.5938 92.3652H87.457V93.5H86.3223ZM87.4707 89.7812C87.4707 91.4492 88.2227 92.5977 89.5762 92.5977C90.9844 92.5977 91.7227 91.3672 91.7227 89.7812C91.7227 88.2363 91.0117 87.0332 89.5762 87.0332C88.209 87.0332 87.4707 88.1406 87.4707 89.7812ZM95.6191 83.6016V93.5H94.4434V83.6016H95.6191ZM100.609 93.6504C98.4629 93.6504 97.1367 92.1328 97.1367 89.8496C97.1367 87.5664 98.4766 85.9805 100.5 85.9805C102.059 85.9805 103.699 86.9375 103.699 89.6855V90.1777H98.3125C98.3672 91.75 99.2832 92.6113 100.609 92.6113C101.498 92.6113 102.059 92.2285 102.332 91.7637H103.59C103.234 92.8848 102.141 93.6504 100.609 93.6504ZM98.3262 89.1797H102.51C102.51 87.9355 101.717 87.0195 100.5 87.0195C99.2148 87.0195 98.3945 88.0312 98.3262 89.1797ZM108.389 91.3945C108.389 89.6855 109.893 89.3027 111.178 89.207C111.649 89.1729 112.853 89.1113 113.188 89.0977V88.4961C113.188 87.5527 112.627 87.0059 111.506 87.0059C110.562 87.0059 110.002 87.4434 109.838 88.0039H108.607C108.758 86.8145 109.92 85.9805 111.561 85.9805C112.531 85.9805 114.35 86.2676 114.35 88.6055V93.5H113.188V92.4883H113.133C112.887 92.9941 112.203 93.6777 110.918 93.6777C109.51 93.6777 108.389 92.8438 108.389 91.3945ZM109.564 91.4492C109.564 92.2285 110.221 92.625 111.123 92.625C112.449 92.625 113.188 91.7363 113.188 90.8066V90.0547L111.314 90.1914C110.248 90.2598 109.564 90.6426 109.564 91.4492ZM120.926 90.4512V86.0762H122.088V93.5H120.926V92.2422H120.844C120.488 92.9941 119.764 93.5957 118.643 93.5957C117.234 93.5957 116.236 92.6797 116.236 90.793V86.0762H117.412V90.7109C117.412 91.7773 118.082 92.4609 119.025 92.4609C119.859 92.4609 120.926 91.832 120.926 90.4512ZM127.215 86.0762V87.0605H125.656V91.3672C125.656 92.3242 126.121 92.4746 126.627 92.4746C126.846 92.4746 127.146 92.4609 127.324 92.4473V93.541C127.146 93.5684 126.846 93.5957 126.504 93.5957C125.52 93.5957 124.467 92.9805 124.467 91.668V87.0605H123.346V86.0762H124.467V84.2988H125.656V86.0762H127.215ZM131.699 93.6504C129.676 93.6504 128.309 92.1328 128.309 89.8223C128.309 87.5117 129.676 85.9805 131.699 85.9805C133.709 85.9805 135.062 87.5117 135.062 89.8223C135.062 92.1328 133.709 93.6504 131.699 93.6504ZM131.699 92.6113C133.189 92.6113 133.887 91.2988 133.887 89.8223C133.887 88.3457 133.189 87.0195 131.699 87.0195C130.182 87.0195 129.484 88.3457 129.484 89.8223C129.484 91.2988 130.182 92.6113 131.699 92.6113ZM144.811 90.4512V86.0762H145.973V93.5H144.811V92.2422H144.729C144.373 92.9941 143.648 93.5957 142.527 93.5957C141.119 93.5957 140.121 92.6797 140.121 90.793V86.0762H141.297V90.7109C141.297 91.7773 141.967 92.4609 142.91 92.4609C143.744 92.4609 144.811 91.832 144.811 90.4512ZM147.859 96.2891V86.0762H148.994V87.252H149.131C149.377 86.8555 149.842 85.9805 151.277 85.9805C153.137 85.9805 154.436 87.457 154.436 89.8086C154.436 92.1602 153.137 93.6504 151.291 93.6504C149.869 93.6504 149.377 92.7754 149.131 92.3652H149.035V96.2891H147.859ZM149.008 89.7812C149.008 91.4492 149.76 92.5977 151.127 92.5977C152.535 92.5977 153.26 91.3672 153.26 89.7812C153.26 88.2363 152.549 87.0332 151.127 87.0332C149.732 87.0332 149.008 88.1406 149.008 89.7812ZM158.77 93.6504C156.924 93.6504 155.611 92.1602 155.611 89.8086C155.611 87.457 156.924 85.9805 158.783 85.9805C160.219 85.9805 160.684 86.8555 160.93 87.252H161.012V83.6016H162.201V93.5H161.053V92.3652H160.93C160.67 92.7754 160.191 93.6504 158.77 93.6504ZM158.934 92.5977C160.287 92.5977 161.053 91.4492 161.053 89.7812C161.053 88.1406 160.314 87.0332 158.934 87.0332C157.512 87.0332 156.801 88.2363 156.801 89.7812C156.801 91.3672 157.525 92.5977 158.934 92.5977ZM163.883 91.3945C163.883 89.6855 165.387 89.3027 166.672 89.207C167.144 89.1729 168.347 89.1113 168.682 89.0977V88.4961C168.682 87.5527 168.121 87.0059 167 87.0059C166.057 87.0059 165.496 87.4434 165.332 88.0039H164.102C164.252 86.8145 165.414 85.9805 167.055 85.9805C168.025 85.9805 169.844 86.2676 169.844 88.6055V93.5H168.682V92.4883H168.627C168.381 92.9941 167.697 93.6777 166.412 93.6777C165.004 93.6777 163.883 92.8438 163.883 91.3945ZM165.059 91.4492C165.059 92.2285 165.715 92.625 166.617 92.625C167.943 92.625 168.682 91.7363 168.682 90.8066V90.0547L166.809 90.1914C165.742 90.2598 165.059 90.6426 165.059 91.4492ZM174.971 86.0762V87.0605H173.412V91.3672C173.412 92.3242 173.877 92.4746 174.383 92.4746C174.602 92.4746 174.902 92.4609 175.08 92.4473V93.541C174.902 93.5684 174.602 93.5957 174.26 93.5957C173.275 93.5957 172.223 92.9805 172.223 91.668V87.0605H171.102V86.0762H172.223V84.2988H173.412V86.0762H174.971ZM179.537 93.6504C177.391 93.6504 176.064 92.1328 176.064 89.8496C176.064 87.5664 177.404 85.9805 179.428 85.9805C180.986 85.9805 182.627 86.9375 182.627 89.6855V90.1777H177.24C177.295 91.75 178.211 92.6113 179.537 92.6113C180.426 92.6113 180.986 92.2285 181.26 91.7637H182.518C182.162 92.8848 181.068 93.6504 179.537 93.6504ZM177.254 89.1797H181.438C181.438 87.9355 180.645 87.0195 179.428 87.0195C178.143 87.0195 177.322 88.0312 177.254 89.1797Z" fill="var(--sol-element-primary)"/>
<path d="M39.333 120.501C39.333 116.819 42.3178 113.834 45.9997 113.834V113.834C49.6816 113.834 52.6663 116.819 52.6663 120.501V120.501C52.6663 124.183 49.6816 127.167 45.9997 127.167V127.167C42.3178 127.167 39.333 124.183 39.333 120.501V120.501Z" fill="var(--sol-surface)"/>
<path d="M46 114.334C49.4056 114.334 52.166 117.095 52.166 120.501C52.1658 123.906 49.4055 126.667 46 126.667C42.5944 126.667 39.8332 123.907 39.833 120.501C39.833 117.095 42.5942 114.334 46 114.334Z" stroke="var(--sol-element-primary)" stroke-opacity="0.16"/>
<path d="M63.5449 115.602L66.457 123.9H66.5664L69.4922 115.602H70.791L67.168 125.5H65.8691L62.2461 115.602H63.5449ZM71.9805 125.5V118.076H73.1562V125.5H71.9805ZM72.5684 116.846C72.1172 116.846 71.748 116.504 71.748 116.066C71.748 115.629 72.1172 115.287 72.5684 115.287C73.0195 115.287 73.4023 115.629 73.4023 116.066C73.4023 116.504 73.0195 116.846 72.5684 116.846ZM78.1465 125.65C76 125.65 74.6738 124.133 74.6738 121.85C74.6738 119.566 76.0137 117.98 78.0371 117.98C79.5957 117.98 81.2363 118.938 81.2363 121.686V122.178H75.8496C75.9043 123.75 76.8203 124.611 78.1465 124.611C79.0352 124.611 79.5957 124.229 79.8691 123.764H81.127C80.7715 124.885 79.6777 125.65 78.1465 125.65ZM75.8633 121.18H80.0469C80.0469 119.936 79.2539 119.02 78.0371 119.02C76.752 119.02 75.9316 120.031 75.8633 121.18ZM84.4355 125.5L82.1797 118.076H83.4238L85.0098 123.736H85.0781L86.6504 118.076H87.9082L89.4531 123.709H89.5352L91.1211 118.076H92.3516L90.0957 125.5H88.9336L87.3203 119.84H87.2109L85.6113 125.5H84.4355ZM99.9668 125.65C98.1211 125.65 96.8086 124.16 96.8086 121.809C96.8086 119.457 98.1211 117.98 99.9805 117.98C101.416 117.98 101.881 118.855 102.127 119.252H102.209V115.602H103.398V125.5H102.25V124.365H102.127C101.867 124.775 101.389 125.65 99.9668 125.65ZM100.131 124.598C101.484 124.598 102.25 123.449 102.25 121.781C102.25 120.141 101.512 119.033 100.131 119.033C98.709 119.033 97.998 120.236 97.998 121.781C97.998 123.367 98.7227 124.598 100.131 124.598ZM108.553 125.65C106.406 125.65 105.08 124.133 105.08 121.85C105.08 119.566 106.42 117.98 108.443 117.98C110.002 117.98 111.643 118.938 111.643 121.686V122.178H106.256C106.311 123.75 107.227 124.611 108.553 124.611C109.441 124.611 110.002 124.229 110.275 123.764H111.533C111.178 124.885 110.084 125.65 108.553 125.65ZM106.27 121.18H110.453C110.453 119.936 109.66 119.02 108.443 119.02C107.158 119.02 106.338 120.031 106.27 121.18ZM119.053 118.076L116.305 125.5H115.088L112.354 118.076H113.639L115.662 123.969H115.744L117.768 118.076H119.053ZM120.352 125.5V118.076H121.527V125.5H120.352ZM120.939 116.846C120.488 116.846 120.119 116.504 120.119 116.066C120.119 115.629 120.488 115.287 120.939 115.287C121.391 115.287 121.773 115.629 121.773 116.066C121.773 116.504 121.391 116.846 120.939 116.846ZM126.436 125.65C124.33 125.65 123.045 124.051 123.045 121.822C123.045 119.566 124.385 117.98 126.408 117.98C127.994 117.98 129.17 118.91 129.361 120.318H128.186C128.021 119.635 127.42 119.02 126.436 119.02C125.109 119.02 124.221 120.113 124.221 121.781C124.221 123.504 125.082 124.598 126.436 124.598C127.311 124.598 127.98 124.133 128.186 123.312H129.361C129.17 124.639 128.09 125.65 126.436 125.65ZM133.928 125.65C131.781 125.65 130.455 124.133 130.455 121.85C130.455 119.566 131.795 117.98 133.818 117.98C135.377 117.98 137.018 118.938 137.018 121.686V122.178H131.631C131.686 123.75 132.602 124.611 133.928 124.611C134.816 124.611 135.377 124.229 135.65 123.764H136.908C136.553 124.885 135.459 125.65 133.928 125.65ZM131.645 121.18H135.828C135.828 119.936 135.035 119.02 133.818 119.02C132.533 119.02 131.713 120.031 131.645 121.18ZM143.238 115.602V125.5H142.062V115.602H143.238ZM148.146 125.65C146.123 125.65 144.756 124.133 144.756 121.822C144.756 119.512 146.123 117.98 148.146 117.98C150.156 117.98 151.51 119.512 151.51 121.822C151.51 124.133 150.156 125.65 148.146 125.65ZM148.146 124.611C149.637 124.611 150.334 123.299 150.334 121.822C150.334 120.346 149.637 119.02 148.146 119.02C146.629 119.02 145.932 120.346 145.932 121.822C145.932 123.299 146.629 124.611 148.146 124.611ZM156.062 128.439C154.271 128.439 153.055 127.66 152.918 126.279H154.148C154.312 127.031 155.01 127.414 156.062 127.414C157.334 127.414 158.113 126.867 158.113 125.637V124.133H158.018C157.771 124.543 157.293 125.391 155.857 125.391C154.053 125.391 152.699 124.023 152.699 121.686C152.699 119.402 154.012 117.98 155.871 117.98C157.307 117.98 157.771 118.855 158.045 119.252H158.141V118.076H159.289V125.705C159.289 127.619 157.867 128.439 156.062 128.439ZM156.021 124.338C157.375 124.338 158.141 123.367 158.141 121.727C158.141 120.141 157.402 119.033 156.021 119.033C154.6 119.033 153.889 120.236 153.889 121.727C153.889 123.271 154.613 124.338 156.021 124.338ZM165.291 120.004C165.127 119.389 164.662 118.979 163.787 118.979C162.871 118.979 162.215 119.471 162.215 120.1C162.215 120.592 162.611 120.934 163.486 121.139L164.594 121.412C165.92 121.727 166.576 122.383 166.576 123.422C166.576 124.707 165.523 125.65 163.664 125.65C161.996 125.65 160.998 124.912 160.807 123.559H162.037C162.174 124.283 162.707 124.625 163.637 124.625C164.689 124.625 165.359 124.188 165.359 123.49C165.359 122.971 164.99 122.615 164.143 122.424L163.021 122.164C161.723 121.863 161.039 121.152 161.039 120.168C161.039 118.896 162.146 117.98 163.787 117.98C165.318 117.98 166.289 118.801 166.439 120.004H165.291Z" fill="var(--sol-element-primary)"/>
</g>
</g>
<defs>
<clipPath id="clip0_1664_177551">
<path d="M0 8C0 3.58172 3.58172 0 8 0H434C438.418 0 442 3.58172 442 8V172C442 176.418 438.418 180 434 180H8C3.58172 180 0 176.418 0 172V8Z" fill="var(--sol-surface)"/>
</clipPath>
<clipPath id="clip1_1664_177551">
<rect width="374" height="64" fill="var(--sol-surface)" transform="translate(36 72.5)"/>
</clipPath>
<clipPath id="clip2_1664_177551">
<path d="M39.333 88.5007C39.333 84.8188 42.3178 81.834 45.9997 81.834V81.834C49.6816 81.834 52.6663 84.8188 52.6663 88.5007V88.5007C52.6663 92.1825 49.6816 95.1673 45.9997 95.1673V95.1673C42.3178 95.1673 39.333 92.1825 39.333 88.5007V88.5007Z" fill="var(--sol-surface)"/>
</clipPath>
</defs>
</svg>
