<svg width="442" height="150" viewBox="0 0 442 150" fill="none" xmlns="http://www.w3.org/2000/svg">
<style>
:root {
  --sol-element-primary: #161616;
  --sol-element-secondary: #484848;
  --sol-element-quaternary: #858585;
  --sol-element-brand-variant: #3a3480;
  --sol-primary: #282363;
  --sol-fill-active: #4d469a;
  --sol-surface: #ffffff;
  --sol-border-normal-variant: #ebebeb;
  --sol-border-solid-variant: #e0e0e0;
  --sol-error: #e76067;
  --sol-error-dim: #b84451;
  --sol-static-white: #ffffff;
  --sol-static-black: #000000;
  --color-green-500: #35a142;
  --color-yellow-500: #d4ae00;
}
@media (prefers-color-scheme: dark) {
  :root {
    --sol-element-primary: #ffffff;
    --sol-element-secondary: rgba(255, 255, 255, 0.8);
    --sol-element-quaternary: rgba(255, 255, 255, 0.5);
    --sol-element-brand-variant: #ffffff;
    --sol-primary: #9791d4;
    --sol-fill-active: #7b74c4;
    --sol-surface: #161616;
    --sol-border-normal-variant: rgba(255, 255, 255, 0.08);
    --sol-border-solid-variant: #3d3d3d;
    --sol-error: #ee7a80;
    --sol-error-dim: #e76067;
  }
}
</style>
<g clip-path="url(#clip0_1664_177521)">
<rect width="442" height="150" fill="var(--sol-surface)"/>
<rect width="410" height="117" transform="translate(16 16.5)" fill="var(--sol-surface)"/>
<mask id="mask0_1664_177521" style="mask-type:alpha" maskUnits="userSpaceOnUse" x="32" y="40" width="16" height="17">
<path d="M44.3535 46.8535L40.3535 50.8535C40.1583 51.0488 39.8417 51.0488 39.6465 50.8535L35.6465 46.8535L36.3535 46.1465L40 49.793L43.6465 46.1465L44.3535 46.8535Z" fill="var(--sol-element-primary)"/>
</mask>
<g mask="url(#mask0_1664_177521)">
<rect x="32" y="40.5" width="16" height="16" fill="var(--sol-element-quaternary)"/>
</g>
<path d="M65.748 38.5508C65.748 41.75 63.8066 43.6367 61.209 43.6367C58.6113 43.6367 56.6699 41.7363 56.6699 38.5508C56.6699 35.3516 58.6113 33.4648 61.209 33.4648C63.8066 33.4648 65.748 35.3516 65.748 38.5508ZM63.957 38.5508C63.957 36.2949 62.8223 35.0645 61.209 35.0645C59.5957 35.0645 58.4609 36.2949 58.4609 38.5508C58.4609 40.8066 59.5957 42.0371 61.209 42.0371C62.8223 42.0371 63.957 40.8066 63.957 38.5508ZM67.252 46.2891V36.0762H68.9609V37.293H69.0703C69.3438 36.7598 69.8906 35.9805 71.2031 35.9805C72.9121 35.9805 74.2656 37.3203 74.2656 39.7949C74.2656 42.2422 72.9531 43.6367 71.2031 43.6367C69.918 43.6367 69.3438 42.8711 69.0703 42.3242H69.002V46.2891H67.252ZM68.9609 39.7812C68.9609 41.2305 69.5898 42.2012 70.7246 42.2012C71.873 42.2012 72.4883 41.1895 72.4883 39.7812C72.4883 38.4004 71.8867 37.4023 70.7246 37.4023C69.5898 37.4023 68.9609 38.3457 68.9609 39.7812ZM78.9277 43.6504C76.6855 43.6504 75.3184 42.1602 75.3184 39.8359C75.3184 37.5391 76.7129 35.9805 78.832 35.9805C80.6504 35.9805 82.2227 37.1152 82.2227 39.7266V40.2734H77.041C77.0615 41.5381 77.8066 42.2832 78.9414 42.2832C79.707 42.2832 80.2266 41.9551 80.4453 41.5176H82.1543C81.8398 42.8027 80.6504 43.6504 78.9277 43.6504ZM77.0547 39.084H80.5547C80.541 38.0723 79.8711 37.334 78.8594 37.334C77.8066 37.334 77.1094 38.1338 77.0547 39.084ZM85.3262 39.1523V43.5H83.5762V36.0762H85.2441V37.334H85.3398C85.6816 36.5 86.4336 35.9805 87.541 35.9805C89.0859 35.9805 90.0977 36.9922 90.084 38.7695V43.5H88.3477V39.043C88.3477 38.0449 87.8145 37.457 86.8984 37.457C85.9688 37.457 85.3262 38.0723 85.3262 39.1523ZM98.7793 36.0762V37.416H97.3164V41.2715C97.3164 41.9824 97.6719 42.1328 98.1094 42.1328C98.3145 42.1328 98.6562 42.1191 98.875 42.1055V43.5273C98.6699 43.5684 98.3281 43.5957 97.8906 43.5957C96.5781 43.5957 95.5664 42.9531 95.5801 41.5586V37.416H94.5137V36.0762H95.5801V34.2988H97.3164V36.0762H98.7793ZM102.033 39.1523V43.5H100.283V33.6016H101.992V37.334H102.088C102.43 36.5 103.141 35.9805 104.289 35.9805C105.834 35.9805 106.846 36.9785 106.846 38.7695V43.5H105.109V39.043C105.109 38.0312 104.562 37.457 103.646 37.457C102.703 37.457 102.033 38.0723 102.033 39.1523ZM108.5 43.5V36.0762H110.25V43.5H108.5ZM109.389 35.0234C108.842 35.0234 108.377 34.5996 108.377 34.0664C108.377 33.5469 108.842 33.123 109.389 33.123C109.949 33.123 110.4 33.5469 110.4 34.0664C110.4 34.5996 109.949 35.0234 109.389 35.0234ZM116.129 38.1953C116.02 37.6348 115.555 37.2793 114.816 37.2793C114.064 37.2793 113.518 37.6484 113.531 38.1543C113.518 38.5371 113.832 38.8242 114.584 39.002L115.842 39.2617C117.25 39.5762 117.92 40.2188 117.934 41.2852C117.92 42.6797 116.703 43.6504 114.762 43.6504C112.875 43.6504 111.754 42.8027 111.576 41.3809H113.354C113.463 42.0098 113.955 42.3242 114.762 42.3242C115.596 42.3242 116.156 41.9824 116.156 41.4355C116.156 41.0117 115.814 40.7383 115.076 40.5742L113.887 40.3145C112.506 40.041 111.795 39.3164 111.795 38.25C111.795 36.8828 112.971 35.9805 114.789 35.9805C116.566 35.9805 117.66 36.8418 117.783 38.1953H116.129ZM126.793 38.1953C126.684 37.6348 126.219 37.2793 125.48 37.2793C124.729 37.2793 124.182 37.6484 124.195 38.1543C124.182 38.5371 124.496 38.8242 125.248 39.002L126.506 39.2617C127.914 39.5762 128.584 40.2188 128.598 41.2852C128.584 42.6797 127.367 43.6504 125.426 43.6504C123.539 43.6504 122.418 42.8027 122.24 41.3809H124.018C124.127 42.0098 124.619 42.3242 125.426 42.3242C126.26 42.3242 126.82 41.9824 126.82 41.4355C126.82 41.0117 126.479 40.7383 125.74 40.5742L124.551 40.3145C123.17 40.041 122.459 39.3164 122.459 38.25C122.459 36.8828 123.635 35.9805 125.453 35.9805C127.23 35.9805 128.324 36.8418 128.447 38.1953H126.793ZM133.219 43.6504C130.977 43.6504 129.609 42.1602 129.609 39.8359C129.609 37.5391 131.004 35.9805 133.123 35.9805C134.941 35.9805 136.514 37.1152 136.514 39.7266V40.2734H131.332C131.353 41.5381 132.098 42.2832 133.232 42.2832C133.998 42.2832 134.518 41.9551 134.736 41.5176H136.445C136.131 42.8027 134.941 43.6504 133.219 43.6504ZM131.346 39.084H134.846C134.832 38.0723 134.162 37.334 133.15 37.334C132.098 37.334 131.4 38.1338 131.346 39.084ZM141.107 43.6504C138.893 43.6504 137.553 42.0645 137.553 39.8223C137.553 37.5527 138.934 35.9805 141.107 35.9805C142.912 35.9805 144.17 37.0332 144.293 38.6328H142.625C142.488 37.9219 141.969 37.375 141.121 37.375C140.041 37.375 139.316 38.291 139.316 39.7812C139.316 41.3125 140.027 42.2285 141.121 42.2285C141.9 42.2285 142.475 41.7773 142.625 40.9707H144.293C144.156 42.543 142.967 43.6504 141.107 43.6504ZM149.311 36.0762V37.416H147.848V41.2715C147.848 41.9824 148.203 42.1328 148.641 42.1328C148.846 42.1328 149.188 42.1191 149.406 42.1055V43.5273C149.201 43.5684 148.859 43.5957 148.422 43.5957C147.109 43.5957 146.098 42.9531 146.111 41.5586V37.416H145.045V36.0762H146.111V34.2988H147.848V36.0762H149.311ZM150.65 43.5V36.0762H152.4V43.5H150.65ZM151.539 35.0234C150.992 35.0234 150.527 34.5996 150.527 34.0664C150.527 33.5469 150.992 33.123 151.539 33.123C152.1 33.123 152.551 33.5469 152.551 34.0664C152.551 34.5996 152.1 35.0234 151.539 35.0234ZM157.309 43.6504C155.148 43.6504 153.754 42.1191 153.754 39.8223C153.754 37.5117 155.148 35.9805 157.309 35.9805C159.482 35.9805 160.863 37.5117 160.863 39.8223C160.863 42.1191 159.482 43.6504 157.309 43.6504ZM157.322 42.2559C158.512 42.2559 159.1 41.1758 159.1 39.8086C159.1 38.4551 158.512 37.3613 157.322 37.3613C156.105 37.3613 155.518 38.4551 155.518 39.8086C155.518 41.1758 156.105 42.2559 157.322 42.2559ZM163.967 39.1523V43.5H162.217V36.0762H163.885V37.334H163.98C164.322 36.5 165.074 35.9805 166.182 35.9805C167.727 35.9805 168.738 36.9922 168.725 38.7695V43.5H166.988V39.043C166.988 38.0449 166.455 37.457 165.539 37.457C164.609 37.457 163.967 38.0723 163.967 39.1523ZM177.42 36.0762V37.416H175.957V41.2715C175.957 41.9824 176.312 42.1328 176.75 42.1328C176.955 42.1328 177.297 42.1191 177.516 42.1055V43.5273C177.311 43.5684 176.969 43.5957 176.531 43.5957C175.219 43.5957 174.207 42.9531 174.221 41.5586V37.416H173.154V36.0762H174.221V34.2988H175.957V36.0762H177.42ZM181.932 43.6504C179.771 43.6504 178.377 42.1191 178.377 39.8223C178.377 37.5117 179.771 35.9805 181.932 35.9805C184.105 35.9805 185.486 37.5117 185.486 39.8223C185.486 42.1191 184.105 43.6504 181.932 43.6504ZM181.945 42.2559C183.135 42.2559 183.723 41.1758 183.723 39.8086C183.723 38.4551 183.135 37.3613 181.945 37.3613C180.729 37.3613 180.141 38.4551 180.141 39.8086C180.141 41.1758 180.729 42.2559 181.945 42.2559ZM193.402 43.6504C191.188 43.6504 189.848 42.0645 189.848 39.8223C189.848 37.5527 191.229 35.9805 193.402 35.9805C195.207 35.9805 196.465 37.0332 196.588 38.6328H194.92C194.783 37.9219 194.264 37.375 193.416 37.375C192.336 37.375 191.611 38.291 191.611 39.7812C191.611 41.3125 192.322 42.2285 193.416 42.2285C194.195 42.2285 194.77 41.7773 194.92 40.9707H196.588C196.451 42.543 195.262 43.6504 193.402 43.6504ZM199.65 39.1523V43.5H197.9V33.6016H199.609V37.334H199.705C200.047 36.5 200.758 35.9805 201.906 35.9805C203.451 35.9805 204.463 36.9785 204.463 38.7695V43.5H202.727V39.043C202.727 38.0312 202.18 37.457 201.264 37.457C200.32 37.457 199.65 38.0723 199.65 39.1523ZM209.412 43.6504C207.17 43.6504 205.803 42.1602 205.803 39.8359C205.803 37.5391 207.197 35.9805 209.316 35.9805C211.135 35.9805 212.707 37.1152 212.707 39.7266V40.2734H207.525C207.546 41.5381 208.291 42.2832 209.426 42.2832C210.191 42.2832 210.711 41.9551 210.93 41.5176H212.639C212.324 42.8027 211.135 43.6504 209.412 43.6504ZM207.539 39.084H211.039C211.025 38.0723 210.355 37.334 209.344 37.334C208.291 37.334 207.594 38.1338 207.539 39.084ZM217.301 43.6504C215.086 43.6504 213.746 42.0645 213.746 39.8223C213.746 37.5527 215.127 35.9805 217.301 35.9805C219.105 35.9805 220.363 37.0332 220.486 38.6328H218.818C218.682 37.9219 218.162 37.375 217.314 37.375C216.234 37.375 215.51 38.291 215.51 39.7812C215.51 41.3125 216.221 42.2285 217.314 42.2285C218.094 42.2285 218.668 41.7773 218.818 40.9707H220.486C220.35 42.543 219.16 43.6504 217.301 43.6504ZM221.799 43.5V33.6016H223.549V39.0566H223.672L226.338 36.0762H228.375L225.504 39.2754L228.553 43.5H226.475L224.191 40.3145L223.549 40.998V43.5H221.799ZM232.395 41.4082C232.395 39.7402 233.775 39.248 235.156 39.166C235.669 39.1318 236.735 39.0703 237.057 39.0566V38.4688C237.057 37.7305 236.578 37.3066 235.717 37.3066C234.938 37.3066 234.459 37.6621 234.322 38.1953H232.641C232.764 36.9375 233.898 35.9805 235.758 35.9805C237.166 35.9805 238.793 36.5547 238.793 38.5371V43.5H237.125V42.4746H237.07C236.742 43.1035 236.045 43.6504 234.883 43.6504C233.461 43.6504 232.395 42.8711 232.395 41.4082ZM234.076 41.3945C234.076 42.0371 234.596 42.3652 235.334 42.3652C236.387 42.3652 237.07 41.668 237.07 40.834V40.2188L235.43 40.3281C234.596 40.3965 234.076 40.7383 234.076 41.3945ZM242.184 33.6016V43.5H240.434V33.6016H242.184ZM245.602 33.6016V43.5H243.852V33.6016H245.602ZM252.342 39.1523V43.5H250.592V36.0762H252.26V37.334H252.355C252.697 36.5 253.449 35.9805 254.557 35.9805C256.102 35.9805 257.113 36.9922 257.1 38.7695V43.5H255.363V39.043C255.363 38.0449 254.83 37.457 253.914 37.457C252.984 37.457 252.342 38.0723 252.342 39.1523ZM262.062 43.6504C259.82 43.6504 258.453 42.1602 258.453 39.8359C258.453 37.5391 259.848 35.9805 261.967 35.9805C263.785 35.9805 265.357 37.1152 265.357 39.7266V40.2734H260.176C260.196 41.5381 260.941 42.2832 262.076 42.2832C262.842 42.2832 263.361 41.9551 263.58 41.5176H265.289C264.975 42.8027 263.785 43.6504 262.062 43.6504ZM260.189 39.084H263.689C263.676 38.0723 263.006 37.334 261.994 37.334C260.941 37.334 260.244 38.1338 260.189 39.084ZM270.416 36.0762V37.416H268.953V41.2715C268.953 41.9824 269.309 42.1328 269.746 42.1328C269.951 42.1328 270.293 42.1191 270.512 42.1055V43.5273C270.307 43.5684 269.965 43.5957 269.527 43.5957C268.215 43.5957 267.203 42.9531 267.217 41.5586V37.416H266.15V36.0762H267.217V34.2988H268.953V36.0762H270.416ZM273.301 43.5L271.195 36.0762H272.973L274.285 41.2988H274.354L275.68 36.0762H277.443L278.783 41.2715H278.852L280.15 36.0762H281.928L279.822 43.5H278.004L276.609 38.4688H276.514L275.119 43.5H273.301ZM286.07 43.6504C283.91 43.6504 282.516 42.1191 282.516 39.8223C282.516 37.5117 283.91 35.9805 286.07 35.9805C288.244 35.9805 289.625 37.5117 289.625 39.8223C289.625 42.1191 288.244 43.6504 286.07 43.6504ZM286.084 42.2559C287.273 42.2559 287.861 41.1758 287.861 39.8086C287.861 38.4551 287.273 37.3613 286.084 37.3613C284.867 37.3613 284.279 38.4551 284.279 39.8086C284.279 41.1758 284.867 42.2559 286.084 42.2559ZM290.979 43.5V36.0762H292.674V37.3066H292.756C293.016 36.459 293.74 35.9668 294.588 35.9668C294.779 35.9668 295.053 35.9805 295.217 36.0078V37.6211C295.066 37.5664 294.697 37.5117 294.41 37.5117C293.439 37.5117 292.729 38.1816 292.729 39.125V43.5H290.979ZM296.256 43.5V33.6016H298.006V39.0566H298.129L300.795 36.0762H302.832L299.961 39.2754L303.01 43.5H300.932L298.648 40.3145L298.006 40.998V43.5H296.256ZM305.854 42.5293L304.705 46.3574H303.406L304.117 42.5293H305.854ZM313.537 43.6367C311.787 43.6367 310.475 42.2422 310.475 39.7949C310.475 37.3203 311.828 35.9805 313.551 35.9805C314.863 35.9805 315.41 36.7598 315.67 37.293H315.738V33.6016H317.475V43.5H315.766V42.3242H315.67C315.396 42.8711 314.822 43.6367 313.537 43.6367ZM314.016 42.2012C315.137 42.2012 315.779 41.2305 315.779 39.7812C315.779 38.3457 315.15 37.4023 314.016 37.4023C312.854 37.4023 312.252 38.4004 312.252 39.7812C312.252 41.1895 312.867 42.2012 314.016 42.2012ZM322.533 43.6504C320.291 43.6504 318.924 42.1602 318.924 39.8359C318.924 37.5391 320.318 35.9805 322.438 35.9805C324.256 35.9805 325.828 37.1152 325.828 39.7266V40.2734H320.646C320.667 41.5381 321.412 42.2832 322.547 42.2832C323.312 42.2832 323.832 41.9551 324.051 41.5176H325.76C325.445 42.8027 324.256 43.6504 322.533 43.6504ZM320.66 39.084H324.16C324.146 38.0723 323.477 37.334 322.465 37.334C321.412 37.334 320.715 38.1338 320.66 39.084ZM333.594 36.0762L330.941 43.5H329.027L326.375 36.0762H328.234L329.943 41.5996H330.025L331.748 36.0762H333.594ZM334.688 43.5V36.0762H336.438V43.5H334.688ZM335.576 35.0234C335.029 35.0234 334.564 34.5996 334.564 34.0664C334.564 33.5469 335.029 33.123 335.576 33.123C336.137 33.123 336.588 33.5469 336.588 34.0664C336.588 34.5996 336.137 35.0234 335.576 35.0234ZM341.346 43.6504C339.131 43.6504 337.791 42.0645 337.791 39.8223C337.791 37.5527 339.172 35.9805 341.346 35.9805C343.15 35.9805 344.408 37.0332 344.531 38.6328H342.863C342.727 37.9219 342.207 37.375 341.359 37.375C340.279 37.375 339.555 38.291 339.555 39.7812C339.555 41.3125 340.266 42.2285 341.359 42.2285C342.139 42.2285 342.713 41.7773 342.863 40.9707H344.531C344.395 42.543 343.205 43.6504 341.346 43.6504ZM349.139 43.6504C346.896 43.6504 345.529 42.1602 345.529 39.8359C345.529 37.5391 346.924 35.9805 349.043 35.9805C350.861 35.9805 352.434 37.1152 352.434 39.7266V40.2734H347.252C347.272 41.5381 348.018 42.2832 349.152 42.2832C349.918 42.2832 350.438 41.9551 350.656 41.5176H352.365C352.051 42.8027 350.861 43.6504 349.139 43.6504ZM347.266 39.084H350.766C350.752 38.0723 350.082 37.334 349.07 37.334C348.018 37.334 347.32 38.1338 347.266 39.084ZM355.77 42.5293L354.621 46.3574H353.322L354.033 42.5293H355.77ZM364.902 38.1953C364.793 37.6348 364.328 37.2793 363.59 37.2793C362.838 37.2793 362.291 37.6484 362.305 38.1543C362.291 38.5371 362.605 38.8242 363.357 39.002L364.615 39.2617C366.023 39.5762 366.693 40.2188 366.707 41.2852C366.693 42.6797 365.477 43.6504 363.535 43.6504C361.648 43.6504 360.527 42.8027 360.35 41.3809H362.127C362.236 42.0098 362.729 42.3242 363.535 42.3242C364.369 42.3242 364.93 41.9824 364.93 41.4355C364.93 41.0117 364.588 40.7383 363.85 40.5742L362.66 40.3145C361.279 40.041 360.568 39.3164 360.568 38.25C360.568 36.8828 361.744 35.9805 363.562 35.9805C365.34 35.9805 366.434 36.8418 366.557 38.1953H364.902ZM371.738 36.0762V37.416H370.275V41.2715C370.275 41.9824 370.631 42.1328 371.068 42.1328C371.273 42.1328 371.615 42.1191 371.834 42.1055V43.5273C371.629 43.5684 371.287 43.5957 370.85 43.5957C369.537 43.5957 368.525 42.9531 368.539 41.5586V37.416H367.473V36.0762H368.539V34.2988H370.275V36.0762H371.738ZM376.25 43.6504C374.09 43.6504 372.695 42.1191 372.695 39.8223C372.695 37.5117 374.09 35.9805 376.25 35.9805C378.424 35.9805 379.805 37.5117 379.805 39.8223C379.805 42.1191 378.424 43.6504 376.25 43.6504ZM376.264 42.2559C377.453 42.2559 378.041 41.1758 378.041 39.8086C378.041 38.4551 377.453 37.3613 376.264 37.3613C375.047 37.3613 374.459 38.4551 374.459 39.8086C374.459 41.1758 375.047 42.2559 376.264 42.2559ZM381.158 43.5V36.0762H382.854V37.3066H382.936C383.195 36.459 383.92 35.9668 384.768 35.9668C384.959 35.9668 385.232 35.9805 385.396 36.0078V37.6211C385.246 37.5664 384.877 37.5117 384.59 37.5117C383.619 37.5117 382.908 38.1816 382.908 39.125V43.5H381.158ZM389.498 43.6504C387.256 43.6504 385.889 42.1602 385.889 39.8359C385.889 37.5391 387.283 35.9805 389.402 35.9805C391.221 35.9805 392.793 37.1152 392.793 39.7266V40.2734H387.611C387.632 41.5381 388.377 42.2832 389.512 42.2832C390.277 42.2832 390.797 41.9551 391.016 41.5176H392.725C392.41 42.8027 391.221 43.6504 389.498 43.6504ZM387.625 39.084H391.125C391.111 38.0723 390.441 37.334 389.43 37.334C388.377 37.334 387.68 38.1338 387.625 39.084ZM396.129 42.5293L394.98 46.3574H393.682L394.393 42.5293H396.129ZM56.916 63.5V53.6016H58.666V57.293H58.7344C59.0078 56.7598 59.541 55.9805 60.8535 55.9805C62.5762 55.9805 63.9297 57.3203 63.9297 59.7949C63.9297 62.2422 62.6035 63.6367 60.8672 63.6367C59.582 63.6367 59.0078 62.8711 58.7344 62.3242H58.625V63.5H56.916ZM58.625 59.7812C58.625 61.2305 59.2539 62.2012 60.375 62.2012C61.5371 62.2012 62.1523 61.1895 62.1523 59.7812C62.1523 58.4004 61.5508 57.4023 60.375 57.4023C59.2539 57.4023 58.625 58.3457 58.625 59.7812ZM65.2969 63.5V56.0762H67.0469V63.5H65.2969ZM66.1855 55.0234C65.6387 55.0234 65.1738 54.5996 65.1738 54.0664C65.1738 53.5469 65.6387 53.123 66.1855 53.123C66.7461 53.123 67.1973 53.5469 67.1973 54.0664C67.1973 54.5996 66.7461 55.0234 66.1855 55.0234ZM70.4648 53.6016V63.5H68.7148V53.6016H70.4648ZM73.8828 53.6016V63.5H72.1328V53.6016H73.8828ZM75.5508 63.5V56.0762H77.3008V63.5H75.5508ZM76.4395 55.0234C75.8926 55.0234 75.4277 54.5996 75.4277 54.0664C75.4277 53.5469 75.8926 53.123 76.4395 53.123C77 53.123 77.4512 53.5469 77.4512 54.0664C77.4512 54.5996 77 55.0234 76.4395 55.0234ZM80.7188 59.1523V63.5H78.9688V56.0762H80.6367V57.334H80.7324C81.0742 56.5 81.8262 55.9805 82.9336 55.9805C84.4785 55.9805 85.4902 56.9922 85.4766 58.7695V63.5H83.7402V59.043C83.7402 58.0449 83.207 57.457 82.291 57.457C81.3613 57.457 80.7188 58.0723 80.7188 59.1523ZM90.3848 66.4395C88.416 66.4395 87.1719 65.5645 87.0488 64.1699H88.7852C88.9082 64.8125 89.5234 65.127 90.4121 65.127C91.4512 65.127 92.1348 64.6758 92.1348 63.582V62.1602H92.0527C91.7793 62.707 91.1914 63.3906 89.9062 63.3906C88.1973 63.3906 86.8438 62.1465 86.8438 59.7266C86.8438 57.2793 88.1973 55.9805 89.9199 55.9805C91.2324 55.9805 91.7793 56.7598 92.0527 57.293H92.1348V56.0762H93.8574V63.623C93.8574 65.5234 92.3945 66.4395 90.3848 66.4395ZM90.3848 62.0234C91.5059 62.0234 92.1484 61.1758 92.1484 59.7539C92.1484 58.3457 91.5195 57.4023 90.3848 57.4023C89.2227 57.4023 88.6211 58.4004 88.6211 59.7539C88.6211 61.1211 89.2363 62.0234 90.3848 62.0234ZM97.5078 62.5293L96.3594 66.3574H95.0605L95.7715 62.5293H97.5078ZM102.088 61.4082C102.088 59.7402 103.469 59.248 104.85 59.166C105.362 59.1318 106.429 59.0703 106.75 59.0566V58.4688C106.75 57.7305 106.271 57.3066 105.41 57.3066C104.631 57.3066 104.152 57.6621 104.016 58.1953H102.334C102.457 56.9375 103.592 55.9805 105.451 55.9805C106.859 55.9805 108.486 56.5547 108.486 58.5371V63.5H106.818V62.4746H106.764C106.436 63.1035 105.738 63.6504 104.576 63.6504C103.154 63.6504 102.088 62.8711 102.088 61.4082ZM103.77 61.3945C103.77 62.0371 104.289 62.3652 105.027 62.3652C106.08 62.3652 106.764 61.668 106.764 60.834V60.2188L105.123 60.3281C104.289 60.3965 103.77 60.7383 103.77 61.3945ZM111.877 59.1523V63.5H110.127V56.0762H111.795V57.334H111.891C112.232 56.5 112.984 55.9805 114.092 55.9805C115.637 55.9805 116.648 56.9922 116.635 58.7695V63.5H114.898V59.043C114.898 58.0449 114.365 57.457 113.449 57.457C112.52 57.457 111.877 58.0723 111.877 59.1523ZM121.064 63.6367C119.314 63.6367 118.002 62.2422 118.002 59.7949C118.002 57.3203 119.355 55.9805 121.078 55.9805C122.391 55.9805 122.938 56.7598 123.197 57.293H123.266V53.6016H125.002V63.5H123.293V62.3242H123.197C122.924 62.8711 122.35 63.6367 121.064 63.6367ZM121.543 62.2012C122.664 62.2012 123.307 61.2305 123.307 59.7812C123.307 58.3457 122.678 57.4023 121.543 57.4023C120.381 57.4023 119.779 58.4004 119.779 59.7812C119.779 61.1895 120.395 62.2012 121.543 62.2012ZM129.746 61.4082C129.746 59.7402 131.127 59.248 132.508 59.166C133.021 59.1318 134.087 59.0703 134.408 59.0566V58.4688C134.408 57.7305 133.93 57.3066 133.068 57.3066C132.289 57.3066 131.811 57.6621 131.674 58.1953H129.992C130.115 56.9375 131.25 55.9805 133.109 55.9805C134.518 55.9805 136.145 56.5547 136.145 58.5371V63.5H134.477V62.4746H134.422C134.094 63.1035 133.396 63.6504 132.234 63.6504C130.812 63.6504 129.746 62.8711 129.746 61.4082ZM131.428 61.3945C131.428 62.0371 131.947 62.3652 132.686 62.3652C133.738 62.3652 134.422 61.668 134.422 60.834V60.2188L132.781 60.3281C131.947 60.3965 131.428 60.7383 131.428 61.3945ZM140.547 63.6367C138.797 63.6367 137.484 62.2422 137.484 59.7949C137.484 57.3203 138.838 55.9805 140.561 55.9805C141.873 55.9805 142.42 56.7598 142.68 57.293H142.748V53.6016H144.484V63.5H142.775V62.3242H142.68C142.406 62.8711 141.832 63.6367 140.547 63.6367ZM141.025 62.2012C142.146 62.2012 142.789 61.2305 142.789 59.7812C142.789 58.3457 142.16 57.4023 141.025 57.4023C139.863 57.4023 139.262 58.4004 139.262 59.7812C139.262 61.1895 139.877 62.2012 141.025 62.2012ZM146.248 63.5V56.0762H147.916V57.334H148.012C148.312 56.4863 149.064 55.9805 150.049 55.9805C151.061 55.9805 151.771 56.4863 152.059 57.334H152.141C152.469 56.5137 153.289 55.9805 154.369 55.9805C155.723 55.9805 156.68 56.8555 156.68 58.5098V63.5H154.943V58.7832C154.943 57.8535 154.383 57.4434 153.672 57.4434C152.811 57.4434 152.318 58.0312 152.318 58.8652V63.5H150.623V58.7148C150.623 57.9492 150.104 57.4434 149.365 57.4434C148.613 57.4434 147.998 58.0586 147.998 58.9883V63.5H146.248ZM158.348 63.5V56.0762H160.098V63.5H158.348ZM159.236 55.0234C158.689 55.0234 158.225 54.5996 158.225 54.0664C158.225 53.5469 158.689 53.123 159.236 53.123C159.797 53.123 160.248 53.5469 160.248 54.0664C160.248 54.5996 159.797 55.0234 159.236 55.0234ZM163.516 59.1523V63.5H161.766V56.0762H163.434V57.334H163.529C163.871 56.5 164.623 55.9805 165.73 55.9805C167.275 55.9805 168.287 56.9922 168.273 58.7695V63.5H166.537V59.043C166.537 58.0449 166.004 57.457 165.088 57.457C164.158 57.457 163.516 58.0723 163.516 59.1523ZM177.475 58.1953C177.365 57.6348 176.9 57.2793 176.162 57.2793C175.41 57.2793 174.863 57.6484 174.877 58.1543C174.863 58.5371 175.178 58.8242 175.93 59.002L177.188 59.2617C178.596 59.5762 179.266 60.2188 179.279 61.2852C179.266 62.6797 178.049 63.6504 176.107 63.6504C174.221 63.6504 173.1 62.8027 172.922 61.3809H174.699C174.809 62.0098 175.301 62.3242 176.107 62.3242C176.941 62.3242 177.502 61.9824 177.502 61.4355C177.502 61.0117 177.16 60.7383 176.422 60.5742L175.232 60.3145C173.852 60.041 173.141 59.3164 173.141 58.25C173.141 56.8828 174.316 55.9805 176.135 55.9805C177.912 55.9805 179.006 56.8418 179.129 58.1953H177.475ZM183.9 63.6504C181.658 63.6504 180.291 62.1602 180.291 59.8359C180.291 57.5391 181.686 55.9805 183.805 55.9805C185.623 55.9805 187.195 57.1152 187.195 59.7266V60.2734H182.014C182.034 61.5381 182.779 62.2832 183.914 62.2832C184.68 62.2832 185.199 61.9551 185.418 61.5176H187.127C186.812 62.8027 185.623 63.6504 183.9 63.6504ZM182.027 59.084H185.527C185.514 58.0723 184.844 57.334 183.832 57.334C182.779 57.334 182.082 58.1338 182.027 59.084ZM192.254 56.0762V57.416H190.791V61.2715C190.791 61.9824 191.146 62.1328 191.584 62.1328C191.789 62.1328 192.131 62.1191 192.35 62.1055V63.5273C192.145 63.5684 191.803 63.5957 191.365 63.5957C190.053 63.5957 189.041 62.9531 189.055 61.5586V57.416H187.988V56.0762H189.055V54.2988H190.791V56.0762H192.254ZM197.299 56.0762V57.416H195.836V61.2715C195.836 61.9824 196.191 62.1328 196.629 62.1328C196.834 62.1328 197.176 62.1191 197.395 62.1055V63.5273C197.189 63.5684 196.848 63.5957 196.41 63.5957C195.098 63.5957 194.086 62.9531 194.1 61.5586V57.416H193.033V56.0762H194.1V54.2988H195.836V56.0762H197.299ZM198.639 63.5V56.0762H200.389V63.5H198.639ZM199.527 55.0234C198.98 55.0234 198.516 54.5996 198.516 54.0664C198.516 53.5469 198.98 53.123 199.527 53.123C200.088 53.123 200.539 53.5469 200.539 54.0664C200.539 54.5996 200.088 55.0234 199.527 55.0234ZM203.807 59.1523V63.5H202.057V56.0762H203.725V57.334H203.82C204.162 56.5 204.914 55.9805 206.021 55.9805C207.566 55.9805 208.578 56.9922 208.564 58.7695V63.5H206.828V59.043C206.828 58.0449 206.295 57.457 205.379 57.457C204.449 57.457 203.807 58.0723 203.807 59.1523ZM213.473 66.4395C211.504 66.4395 210.26 65.5645 210.137 64.1699H211.873C211.996 64.8125 212.611 65.127 213.5 65.127C214.539 65.127 215.223 64.6758 215.223 63.582V62.1602H215.141C214.867 62.707 214.279 63.3906 212.994 63.3906C211.285 63.3906 209.932 62.1465 209.932 59.7266C209.932 57.2793 211.285 55.9805 213.008 55.9805C214.32 55.9805 214.867 56.7598 215.141 57.293H215.223V56.0762H216.945V63.623C216.945 65.5234 215.482 66.4395 213.473 66.4395ZM213.473 62.0234C214.594 62.0234 215.236 61.1758 215.236 59.7539C215.236 58.3457 214.607 57.4023 213.473 57.4023C212.311 57.4023 211.709 58.4004 211.709 59.7539C211.709 61.1211 212.324 62.0234 213.473 62.0234ZM222.824 58.1953C222.715 57.6348 222.25 57.2793 221.512 57.2793C220.76 57.2793 220.213 57.6484 220.227 58.1543C220.213 58.5371 220.527 58.8242 221.279 59.002L222.537 59.2617C223.945 59.5762 224.615 60.2188 224.629 61.2852C224.615 62.6797 223.398 63.6504 221.457 63.6504C219.57 63.6504 218.449 62.8027 218.271 61.3809H220.049C220.158 62.0098 220.65 62.3242 221.457 62.3242C222.291 62.3242 222.852 61.9824 222.852 61.4355C222.852 61.0117 222.51 60.7383 221.771 60.5742L220.582 60.3145C219.201 60.041 218.49 59.3164 218.49 58.25C218.49 56.8828 219.666 55.9805 221.484 55.9805C223.262 55.9805 224.355 56.8418 224.479 58.1953H222.824ZM227.035 63.6094C226.447 63.6094 225.969 63.1309 225.969 62.543C225.969 61.9688 226.447 61.4902 227.035 61.4902C227.596 61.4902 228.088 61.9688 228.088 62.543C228.088 63.1309 227.596 63.6094 227.035 63.6094Z" fill="var(--sol-element-brand-variant)"/>
<rect width="410" height="0.999974" transform="translate(16 80.5)" fill="var(--sol-border-normal-variant)"/>
<rect width="410" height="52" transform="translate(16 81.5)" fill="var(--sol-element-primary)" fill-opacity="0.04"/>
<path d="M57.0938 94.6016H58.5703L61.9062 102.75H62.0293L65.3652 94.6016H66.8418V104.5H65.6797V97.0215H65.584L62.5078 104.5H61.4141L58.3379 97.0215H58.2559V104.5H57.0938V94.6016ZM68.5234 102.395C68.5234 100.686 70.0273 100.303 71.3125 100.207C71.7842 100.173 72.9873 100.111 73.3223 100.098V99.4961C73.3223 98.5527 72.7617 98.0059 71.6406 98.0059C70.6973 98.0059 70.1367 98.4434 69.9727 99.0039H68.7422C68.8926 97.8145 70.0547 96.9805 71.6953 96.9805C72.666 96.9805 74.4844 97.2676 74.4844 99.6055V104.5H73.3223V103.488H73.2676C73.0215 103.994 72.3379 104.678 71.0527 104.678C69.6445 104.678 68.5234 103.844 68.5234 102.395ZM69.6992 102.449C69.6992 103.229 70.3555 103.625 71.2578 103.625C72.584 103.625 73.3223 102.736 73.3223 101.807V101.055L71.4492 101.191C70.3828 101.26 69.6992 101.643 69.6992 102.449ZM77.5469 100.043V104.5H76.3711V97.0762H77.5059V98.2383H77.6016C77.957 97.4863 78.6406 96.9805 79.7754 96.9805C81.2793 96.9805 82.2773 97.8965 82.2773 99.7832V104.5H81.1016V99.8652C81.1016 98.7168 80.4727 98.0332 79.4199 98.0332C78.3398 98.0332 77.5469 98.7578 77.5469 100.043ZM83.8086 102.395C83.8086 100.686 85.3125 100.303 86.5977 100.207C87.0693 100.173 88.2725 100.111 88.6074 100.098V99.4961C88.6074 98.5527 88.0469 98.0059 86.9258 98.0059C85.9824 98.0059 85.4219 98.4434 85.2578 99.0039H84.0273C84.1777 97.8145 85.3398 96.9805 86.9805 96.9805C87.9512 96.9805 89.7695 97.2676 89.7695 99.6055V104.5H88.6074V103.488H88.5527C88.3066 103.994 87.623 104.678 86.3379 104.678C84.9297 104.678 83.8086 103.844 83.8086 102.395ZM84.9844 102.449C84.9844 103.229 85.6406 103.625 86.543 103.625C87.8691 103.625 88.6074 102.736 88.6074 101.807V101.055L86.7344 101.191C85.668 101.26 84.9844 101.643 84.9844 102.449ZM94.6641 107.439C92.873 107.439 91.6562 106.66 91.5195 105.279H92.75C92.9141 106.031 93.6113 106.414 94.6641 106.414C95.9355 106.414 96.7148 105.867 96.7148 104.637V103.133H96.6191C96.373 103.543 95.8945 104.391 94.459 104.391C92.6543 104.391 91.3008 103.023 91.3008 100.686C91.3008 98.4023 92.6133 96.9805 94.4727 96.9805C95.9082 96.9805 96.373 97.8555 96.6465 98.252H96.7422V97.0762H97.8906V104.705C97.8906 106.619 96.4688 107.439 94.6641 107.439ZM94.623 103.338C95.9766 103.338 96.7422 102.367 96.7422 100.727C96.7422 99.1406 96.0039 98.0332 94.623 98.0332C93.2012 98.0332 92.4902 99.2363 92.4902 100.727C92.4902 102.271 93.2148 103.338 94.623 103.338ZM102.881 104.65C100.734 104.65 99.4082 103.133 99.4082 100.85C99.4082 98.5664 100.748 96.9805 102.771 96.9805C104.33 96.9805 105.971 97.9375 105.971 100.686V101.178H100.584C100.639 102.75 101.555 103.611 102.881 103.611C103.77 103.611 104.33 103.229 104.604 102.764H105.861C105.506 103.885 104.412 104.65 102.881 104.65ZM100.598 100.18H104.781C104.781 98.9355 103.988 98.0195 102.771 98.0195C101.486 98.0195 100.666 99.0312 100.598 100.18ZM112.998 104.5L110.291 94.6016H111.535L113.6 102.613H113.695L115.787 94.6016H117.168L119.273 102.613H119.355L121.42 94.6016H122.664L119.957 104.5H118.686L116.525 96.666H116.443L114.27 104.5H112.998ZM123.826 104.5V97.0762H125.002V104.5H123.826ZM124.414 95.8457C123.963 95.8457 123.594 95.5039 123.594 95.0664C123.594 94.6289 123.963 94.2871 124.414 94.2871C124.865 94.2871 125.248 94.6289 125.248 95.0664C125.248 95.5039 124.865 95.8457 124.414 95.8457ZM131.127 99.7285V100.809H126.793V99.7285H131.127ZM133.082 104.5V94.6016H139.043V95.6953H134.312V99.0039H138.592V100.084H134.312V104.5H133.082ZM140.725 104.5V97.0762H141.9V104.5H140.725ZM141.312 95.8457C140.861 95.8457 140.492 95.5039 140.492 95.0664C140.492 94.6289 140.861 94.2871 141.312 94.2871C141.764 94.2871 142.146 94.6289 142.146 95.0664C142.146 95.5039 141.764 95.8457 141.312 95.8457ZM145.318 103.584L144.252 107.303H143.24L143.992 103.584H145.318ZM153.891 107.439C152.1 107.439 150.883 106.66 150.746 105.279H151.977C152.141 106.031 152.838 106.414 153.891 106.414C155.162 106.414 155.941 105.867 155.941 104.637V103.133H155.846C155.6 103.543 155.121 104.391 153.686 104.391C151.881 104.391 150.527 103.023 150.527 100.686C150.527 98.4023 151.84 96.9805 153.699 96.9805C155.135 96.9805 155.6 97.8555 155.873 98.252H155.969V97.0762H157.117V104.705C157.117 106.619 155.695 107.439 153.891 107.439ZM153.85 103.338C155.203 103.338 155.969 102.367 155.969 100.727C155.969 99.1406 155.23 98.0332 153.85 98.0332C152.428 98.0332 151.717 99.2363 151.717 100.727C151.717 102.271 152.441 103.338 153.85 103.338ZM158.635 102.395C158.635 100.686 160.139 100.303 161.424 100.207C161.896 100.173 163.099 100.111 163.434 100.098V99.4961C163.434 98.5527 162.873 98.0059 161.752 98.0059C160.809 98.0059 160.248 98.4434 160.084 99.0039H158.854C159.004 97.8145 160.166 96.9805 161.807 96.9805C162.777 96.9805 164.596 97.2676 164.596 99.6055V104.5H163.434V103.488H163.379C163.133 103.994 162.449 104.678 161.164 104.678C159.756 104.678 158.635 103.844 158.635 102.395ZM159.811 102.449C159.811 103.229 160.467 103.625 161.369 103.625C162.695 103.625 163.434 102.736 163.434 101.807V101.055L161.561 101.191C160.494 101.26 159.811 101.643 159.811 102.449ZM169.723 97.0762V98.0605H168.164V102.367C168.164 103.324 168.629 103.475 169.135 103.475C169.354 103.475 169.654 103.461 169.832 103.447V104.541C169.654 104.568 169.354 104.596 169.012 104.596C168.027 104.596 166.975 103.98 166.975 102.668V98.0605H165.854V97.0762H166.975V95.2988H168.164V97.0762H169.723ZM174.289 104.65C172.143 104.65 170.816 103.133 170.816 100.85C170.816 98.5664 172.156 96.9805 174.18 96.9805C175.738 96.9805 177.379 97.9375 177.379 100.686V101.178H171.992C172.047 102.75 172.963 103.611 174.289 103.611C175.178 103.611 175.738 103.229 176.012 102.764H177.27C176.914 103.885 175.82 104.65 174.289 104.65ZM172.006 100.18H176.189C176.189 98.9355 175.396 98.0195 174.18 98.0195C172.895 98.0195 172.074 99.0312 172.006 100.18ZM180.578 104.5L178.322 97.0762H179.566L181.152 102.736H181.221L182.793 97.0762H184.051L185.596 102.709H185.678L187.264 97.0762H188.494L186.238 104.5H185.076L183.463 98.8398H183.354L181.754 104.5H180.578ZM189.438 102.395C189.438 100.686 190.941 100.303 192.227 100.207C192.698 100.173 193.901 100.111 194.236 100.098V99.4961C194.236 98.5527 193.676 98.0059 192.555 98.0059C191.611 98.0059 191.051 98.4434 190.887 99.0039H189.656C189.807 97.8145 190.969 96.9805 192.609 96.9805C193.58 96.9805 195.398 97.2676 195.398 99.6055V104.5H194.236V103.488H194.182C193.936 103.994 193.252 104.678 191.967 104.678C190.559 104.678 189.438 103.844 189.438 102.395ZM190.613 102.449C190.613 103.229 191.27 103.625 192.172 103.625C193.498 103.625 194.236 102.736 194.236 101.807V101.055L192.363 101.191C191.297 101.26 190.613 101.643 190.613 102.449ZM197.764 107.289C197.504 107.289 197.258 107.275 197.107 107.262V106.209C197.23 106.223 197.504 106.236 197.682 106.236C198.16 106.236 198.557 106.195 198.953 105.115L199.172 104.555L196.424 97.0762H197.709L199.732 102.969H199.814L201.838 97.0762H203.123L199.979 105.566C199.541 106.729 198.816 107.289 197.764 107.289ZM205.502 103.584L204.436 107.303H203.424L204.176 103.584H205.502ZM210.711 102.395C210.711 100.686 212.215 100.303 213.5 100.207C213.972 100.173 215.175 100.111 215.51 100.098V99.4961C215.51 98.5527 214.949 98.0059 213.828 98.0059C212.885 98.0059 212.324 98.4434 212.16 99.0039H210.93C211.08 97.8145 212.242 96.9805 213.883 96.9805C214.854 96.9805 216.672 97.2676 216.672 99.6055V104.5H215.51V103.488H215.455C215.209 103.994 214.525 104.678 213.24 104.678C211.832 104.678 210.711 103.844 210.711 102.395ZM211.887 102.449C211.887 103.229 212.543 103.625 213.445 103.625C214.771 103.625 215.51 102.736 215.51 101.807V101.055L213.637 101.191C212.57 101.26 211.887 101.643 211.887 102.449ZM219.734 100.043V104.5H218.559V97.0762H219.693V98.2383H219.789C220.145 97.4863 220.828 96.9805 221.963 96.9805C223.467 96.9805 224.465 97.8965 224.465 99.7832V104.5H223.289V99.8652C223.289 98.7168 222.66 98.0332 221.607 98.0332C220.527 98.0332 219.734 98.7578 219.734 100.043ZM229.154 104.65C227.309 104.65 225.996 103.16 225.996 100.809C225.996 98.457 227.309 96.9805 229.168 96.9805C230.604 96.9805 231.068 97.8555 231.314 98.252H231.396V94.6016H232.586V104.5H231.438V103.365H231.314C231.055 103.775 230.576 104.65 229.154 104.65ZM229.318 103.598C230.672 103.598 231.438 102.449 231.438 100.781C231.438 99.1406 230.699 98.0332 229.318 98.0332C227.896 98.0332 227.186 99.2363 227.186 100.781C227.186 102.367 227.91 103.598 229.318 103.598ZM241.172 104.65C239.066 104.65 237.781 103.051 237.781 100.822C237.781 98.5664 239.121 96.9805 241.145 96.9805C242.73 96.9805 243.906 97.9102 244.098 99.3184H242.922C242.758 98.6348 242.156 98.0195 241.172 98.0195C239.846 98.0195 238.957 99.1133 238.957 100.781C238.957 102.504 239.818 103.598 241.172 103.598C242.047 103.598 242.717 103.133 242.922 102.312H244.098C243.906 103.639 242.826 104.65 241.172 104.65ZM248.582 104.65C246.559 104.65 245.191 103.133 245.191 100.822C245.191 98.5117 246.559 96.9805 248.582 96.9805C250.592 96.9805 251.945 98.5117 251.945 100.822C251.945 103.133 250.592 104.65 248.582 104.65ZM248.582 103.611C250.072 103.611 250.77 102.299 250.77 100.822C250.77 99.3457 250.072 98.0195 248.582 98.0195C247.064 98.0195 246.367 99.3457 246.367 100.822C246.367 102.299 247.064 103.611 248.582 103.611ZM254.666 100.043V104.5H253.49V97.0762H254.625V98.2383H254.721C255.076 97.4863 255.76 96.9805 256.895 96.9805C258.398 96.9805 259.396 97.8965 259.396 99.7832V104.5H258.221V99.8652C258.221 98.7168 257.592 98.0332 256.539 98.0332C255.459 98.0332 254.666 98.7578 254.666 100.043ZM262.459 100.043V104.5H261.283V97.0762H262.418V98.2383H262.514C262.869 97.4863 263.553 96.9805 264.688 96.9805C266.191 96.9805 267.189 97.8965 267.189 99.7832V104.5H266.014V99.8652C266.014 98.7168 265.385 98.0332 264.332 98.0332C263.252 98.0332 262.459 98.7578 262.459 100.043ZM272.193 104.65C270.047 104.65 268.721 103.133 268.721 100.85C268.721 98.5664 270.061 96.9805 272.084 96.9805C273.643 96.9805 275.283 97.9375 275.283 100.686V101.178H269.896C269.951 102.75 270.867 103.611 272.193 103.611C273.082 103.611 273.643 103.229 273.916 102.764H275.174C274.818 103.885 273.725 104.65 272.193 104.65ZM269.91 100.18H274.094C274.094 98.9355 273.301 98.0195 272.084 98.0195C270.799 98.0195 269.979 99.0312 269.91 100.18ZM279.85 104.65C277.744 104.65 276.459 103.051 276.459 100.822C276.459 98.5664 277.799 96.9805 279.822 96.9805C281.408 96.9805 282.584 97.9102 282.775 99.3184H281.6C281.436 98.6348 280.834 98.0195 279.85 98.0195C278.523 98.0195 277.635 99.1133 277.635 100.781C277.635 102.504 278.496 103.598 279.85 103.598C280.725 103.598 281.395 103.133 281.6 102.312H282.775C282.584 103.639 281.504 104.65 279.85 104.65ZM287.465 97.0762V98.0605H285.906V102.367C285.906 103.324 286.371 103.475 286.877 103.475C287.096 103.475 287.396 103.461 287.574 103.447V104.541C287.396 104.568 287.096 104.596 286.754 104.596C285.77 104.596 284.717 103.98 284.717 102.668V98.0605H283.596V97.0762H284.717V95.2988H285.906V97.0762H287.465ZM288.982 104.5V97.0762H290.158V104.5H288.982ZM289.57 95.8457C289.119 95.8457 288.75 95.5039 288.75 95.0664C288.75 94.6289 289.119 94.2871 289.57 94.2871C290.021 94.2871 290.404 94.6289 290.404 95.0664C290.404 95.5039 290.021 95.8457 289.57 95.8457ZM295.066 104.65C293.043 104.65 291.676 103.133 291.676 100.822C291.676 98.5117 293.043 96.9805 295.066 96.9805C297.076 96.9805 298.43 98.5117 298.43 100.822C298.43 103.133 297.076 104.65 295.066 104.65ZM295.066 103.611C296.557 103.611 297.254 102.299 297.254 100.822C297.254 99.3457 296.557 98.0195 295.066 98.0195C293.549 98.0195 292.852 99.3457 292.852 100.822C292.852 102.299 293.549 103.611 295.066 103.611ZM301.15 100.043V104.5H299.975V97.0762H301.109V98.2383H301.205C301.561 97.4863 302.244 96.9805 303.379 96.9805C304.883 96.9805 305.881 97.8965 305.881 99.7832V104.5H304.705V99.8652C304.705 98.7168 304.076 98.0332 303.023 98.0332C301.943 98.0332 301.15 98.7578 301.15 100.043ZM314.316 104.65C312.293 104.65 310.926 103.133 310.926 100.822C310.926 98.5117 312.293 96.9805 314.316 96.9805C316.326 96.9805 317.68 98.5117 317.68 100.822C317.68 103.133 316.326 104.65 314.316 104.65ZM314.316 103.611C315.807 103.611 316.504 102.299 316.504 100.822C316.504 99.3457 315.807 98.0195 314.316 98.0195C312.799 98.0195 312.102 99.3457 312.102 100.822C312.102 102.299 312.799 103.611 314.316 103.611ZM319.225 107.289V97.0762H320.359V98.252H320.496C320.742 97.8555 321.207 96.9805 322.643 96.9805C324.502 96.9805 325.801 98.457 325.801 100.809C325.801 103.16 324.502 104.65 322.656 104.65C321.234 104.65 320.742 103.775 320.496 103.365H320.4V107.289H319.225ZM320.373 100.781C320.373 102.449 321.125 103.598 322.492 103.598C323.9 103.598 324.625 102.367 324.625 100.781C324.625 99.2363 323.914 98.0332 322.492 98.0332C321.098 98.0332 320.373 99.1406 320.373 100.781ZM330.572 97.0762V98.0605H329.014V102.367C329.014 103.324 329.479 103.475 329.984 103.475C330.203 103.475 330.504 103.461 330.682 103.447V104.541C330.504 104.568 330.203 104.596 329.861 104.596C328.877 104.596 327.824 103.98 327.824 102.668V98.0605H326.703V97.0762H327.824V95.2988H329.014V97.0762H330.572ZM332.09 104.5V97.0762H333.266V104.5H332.09ZM332.678 95.8457C332.227 95.8457 331.857 95.5039 331.857 95.0664C331.857 94.6289 332.227 94.2871 332.678 94.2871C333.129 94.2871 333.512 94.6289 333.512 95.0664C333.512 95.5039 333.129 95.8457 332.678 95.8457ZM338.174 104.65C336.15 104.65 334.783 103.133 334.783 100.822C334.783 98.5117 336.15 96.9805 338.174 96.9805C340.184 96.9805 341.537 98.5117 341.537 100.822C341.537 103.133 340.184 104.65 338.174 104.65ZM338.174 103.611C339.664 103.611 340.361 102.299 340.361 100.822C340.361 99.3457 339.664 98.0195 338.174 98.0195C336.656 98.0195 335.959 99.3457 335.959 100.822C335.959 102.299 336.656 103.611 338.174 103.611ZM344.258 100.043V104.5H343.082V97.0762H344.217V98.2383H344.312C344.668 97.4863 345.352 96.9805 346.486 96.9805C347.99 96.9805 348.988 97.8965 348.988 99.7832V104.5H347.812V99.8652C347.812 98.7168 347.184 98.0332 346.131 98.0332C345.051 98.0332 344.258 98.7578 344.258 100.043ZM355.004 99.0039C354.84 98.3887 354.375 97.9785 353.5 97.9785C352.584 97.9785 351.928 98.4707 351.928 99.0996C351.928 99.5918 352.324 99.9336 353.199 100.139L354.307 100.412C355.633 100.727 356.289 101.383 356.289 102.422C356.289 103.707 355.236 104.65 353.377 104.65C351.709 104.65 350.711 103.912 350.52 102.559H351.75C351.887 103.283 352.42 103.625 353.35 103.625C354.402 103.625 355.072 103.188 355.072 102.49C355.072 101.971 354.703 101.615 353.855 101.424L352.734 101.164C351.436 100.863 350.752 100.152 350.752 99.168C350.752 97.8965 351.859 96.9805 353.5 96.9805C355.031 96.9805 356.002 97.8008 356.152 99.0039H355.004ZM358.654 104.582C358.176 104.582 357.766 104.186 357.779 103.693C357.766 103.215 358.176 102.818 358.654 102.818C359.133 102.818 359.529 103.215 359.529 103.693C359.529 104.186 359.133 104.582 358.654 104.582Z" fill="var(--sol-element-secondary)"/>
</g>
<defs>
<clipPath id="clip0_1664_177521">
<path d="M0 8C0 3.58172 3.58172 0 8 0H434C438.418 0 442 3.58172 442 8V142C442 146.418 438.418 150 434 150H8C3.58172 150 0 146.418 0 142V8Z" fill="var(--sol-surface)"/>
</clipPath>
</defs>
</svg>
