<svg width="900" height="255" viewBox="0 0 900 255" fill="none" xmlns="http://www.w3.org/2000/svg">
<style>
:root {
  --sol-element-primary: #161616;
  --sol-element-secondary: #484848;
  --sol-element-quaternary: #858585;
  --sol-element-brand-variant: #3a3480;
  --sol-primary: #282363;
  --sol-fill-active: #4d469a;
  --sol-surface: #ffffff;
  --sol-border-normal-variant: #ebebeb;
  --sol-border-solid-variant: #e0e0e0;
  --sol-error: #e76067;
  --sol-error-dim: #b84451;
  --sol-static-white: #ffffff;
  --sol-static-black: #000000;
  --color-green-500: #35a142;
  --color-yellow-500: #d4ae00;
}
@media (prefers-color-scheme: dark) {
  :root {
    --sol-element-primary: #ffffff;
    --sol-element-secondary: rgba(255, 255, 255, 0.8);
    --sol-element-quaternary: rgba(255, 255, 255, 0.5);
    --sol-element-brand-variant: #ffffff;
    --sol-primary: #9791d4;
    --sol-fill-active: #7b74c4;
    --sol-surface: #161616;
    --sol-border-normal-variant: rgba(255, 255, 255, 0.08);
    --sol-border-solid-variant: #3d3d3d;
    --sol-error: #ee7a80;
    --sol-error-dim: #e76067;
  }
}
</style>
<path d="M0 8C0 3.58172 3.58172 0 8 0H892C896.418 0 900 3.58172 900 8V247C900 251.418 896.418 255 892 255H8.00001C3.58173 255 0 251.418 0 247V8Z" fill="var(--sol-surface)"/>
<rect width="352" height="117" transform="translate(48 48)" fill="var(--sol-surface)"/>
<mask id="mask0_1663_176440" style="mask-type:alpha" maskUnits="userSpaceOnUse" x="64" y="62" width="16" height="16">
<path d="M76.3535 68.3535L72.3535 72.3535C72.1583 72.5488 71.8417 72.5488 71.6465 72.3535L67.6465 68.3535L68.3535 67.6465L72 71.293L75.6465 67.6465L76.3535 68.3535Z" fill="var(--sol-element-primary)"/>
</mask>
<g mask="url(#mask0_1663_176440)">
<rect x="64" y="62" width="16" height="16" fill="var(--sol-element-quaternary)"/>
</g>
<path d="M97.0508 65.1016V75H95.4648L90.7754 68.2324H90.6934V75H88.916V65.1016H90.5293L95.1914 71.8691H95.2871V65.1016H97.0508ZM102.096 75.1504C99.8535 75.1504 98.4863 73.6602 98.4863 71.3359C98.4863 69.0391 99.8809 67.4805 102 67.4805C103.818 67.4805 105.391 68.6152 105.391 71.2266V71.7734H100.209C100.229 73.0381 100.975 73.7832 102.109 73.7832C102.875 73.7832 103.395 73.4551 103.613 73.0176H105.322C105.008 74.3027 103.818 75.1504 102.096 75.1504ZM100.223 70.584H103.723C103.709 69.5723 103.039 68.834 102.027 68.834C100.975 68.834 100.277 69.6338 100.223 70.584ZM110.449 67.5762V68.916H108.986V72.7715C108.986 73.4824 109.342 73.6328 109.779 73.6328C109.984 73.6328 110.326 73.6191 110.545 73.6055V75.0273C110.34 75.0684 109.998 75.0957 109.561 75.0957C108.248 75.0957 107.236 74.4531 107.25 73.0586V68.916H106.184V67.5762H107.25V65.7988H108.986V67.5762H110.449ZM113.334 75L111.229 67.5762H113.006L114.318 72.7988H114.387L115.713 67.5762H117.477L118.816 72.7715H118.885L120.184 67.5762H121.961L119.855 75H118.037L116.643 69.9688H116.547L115.152 75H113.334ZM126.104 75.1504C123.943 75.1504 122.549 73.6191 122.549 71.3223C122.549 69.0117 123.943 67.4805 126.104 67.4805C128.277 67.4805 129.658 69.0117 129.658 71.3223C129.658 73.6191 128.277 75.1504 126.104 75.1504ZM126.117 73.7559C127.307 73.7559 127.895 72.6758 127.895 71.3086C127.895 69.9551 127.307 68.8613 126.117 68.8613C124.9 68.8613 124.312 69.9551 124.312 71.3086C124.312 72.6758 124.9 73.7559 126.117 73.7559ZM131.012 75V67.5762H132.707V68.8066H132.789C133.049 67.959 133.773 67.4668 134.621 67.4668C134.812 67.4668 135.086 67.4805 135.25 67.5078V69.1211C135.1 69.0664 134.73 69.0117 134.443 69.0117C133.473 69.0117 132.762 69.6816 132.762 70.625V75H131.012ZM136.289 75V65.1016H138.039V70.5566H138.162L140.828 67.5762H142.865L139.994 70.7754L143.043 75H140.965L138.682 71.8145L138.039 72.498V75H136.289ZM151.438 69.6953C151.328 69.1348 150.863 68.7793 150.125 68.7793C149.373 68.7793 148.826 69.1484 148.84 69.6543C148.826 70.0371 149.141 70.3242 149.893 70.502L151.15 70.7617C152.559 71.0762 153.229 71.7188 153.242 72.7852C153.229 74.1797 152.012 75.1504 150.07 75.1504C148.184 75.1504 147.062 74.3027 146.885 72.8809H148.662C148.771 73.5098 149.264 73.8242 150.07 73.8242C150.904 73.8242 151.465 73.4824 151.465 72.9355C151.465 72.5117 151.123 72.2383 150.385 72.0742L149.195 71.8145C147.814 71.541 147.104 70.8164 147.104 69.75C147.104 68.3828 148.279 67.4805 150.098 67.4805C151.875 67.4805 152.969 68.3418 153.092 69.6953H151.438ZM157.863 75.1504C155.621 75.1504 154.254 73.6602 154.254 71.3359C154.254 69.0391 155.648 67.4805 157.768 67.4805C159.586 67.4805 161.158 68.6152 161.158 71.2266V71.7734H155.977C155.997 73.0381 156.742 73.7832 157.877 73.7832C158.643 73.7832 159.162 73.4551 159.381 73.0176H161.09C160.775 74.3027 159.586 75.1504 157.863 75.1504ZM155.99 70.584H159.49C159.477 69.5723 158.807 68.834 157.795 68.834C156.742 68.834 156.045 69.6338 155.99 70.584ZM166.217 67.5762V68.916H164.754V72.7715C164.754 73.4824 165.109 73.6328 165.547 73.6328C165.752 73.6328 166.094 73.6191 166.312 73.6055V75.0273C166.107 75.0684 165.766 75.0957 165.328 75.0957C164.016 75.0957 163.004 74.4531 163.018 73.0586V68.916H161.951V67.5762H163.018V65.7988H164.754V67.5762H166.217ZM171.262 67.5762V68.916H169.799V72.7715C169.799 73.4824 170.154 73.6328 170.592 73.6328C170.797 73.6328 171.139 73.6191 171.357 73.6055V75.0273C171.152 75.0684 170.811 75.0957 170.373 75.0957C169.061 75.0957 168.049 74.4531 168.062 73.0586V68.916H166.996V67.5762H168.062V65.7988H169.799V67.5762H171.262ZM172.602 75V67.5762H174.352V75H172.602ZM173.49 66.5234C172.943 66.5234 172.479 66.0996 172.479 65.5664C172.479 65.0469 172.943 64.623 173.49 64.623C174.051 64.623 174.502 65.0469 174.502 65.5664C174.502 66.0996 174.051 66.5234 173.49 66.5234ZM177.77 70.6523V75H176.02V67.5762H177.688V68.834H177.783C178.125 68 178.877 67.4805 179.984 67.4805C181.529 67.4805 182.541 68.4922 182.527 70.2695V75H180.791V70.543C180.791 69.5449 180.258 68.957 179.342 68.957C178.412 68.957 177.77 69.5723 177.77 70.6523ZM187.436 77.9395C185.467 77.9395 184.223 77.0645 184.1 75.6699H185.836C185.959 76.3125 186.574 76.627 187.463 76.627C188.502 76.627 189.186 76.1758 189.186 75.082V73.6602H189.104C188.83 74.207 188.242 74.8906 186.957 74.8906C185.248 74.8906 183.895 73.6465 183.895 71.2266C183.895 68.7793 185.248 67.4805 186.971 67.4805C188.283 67.4805 188.83 68.2598 189.104 68.793H189.186V67.5762H190.908V75.123C190.908 77.0234 189.445 77.9395 187.436 77.9395ZM187.436 73.5234C188.557 73.5234 189.199 72.6758 189.199 71.2539C189.199 69.8457 188.57 68.9023 187.436 68.9023C186.273 68.9023 185.672 69.9004 185.672 71.2539C185.672 72.6211 186.287 73.5234 187.436 73.5234ZM196.787 69.6953C196.678 69.1348 196.213 68.7793 195.475 68.7793C194.723 68.7793 194.176 69.1484 194.189 69.6543C194.176 70.0371 194.49 70.3242 195.242 70.502L196.5 70.7617C197.908 71.0762 198.578 71.7188 198.592 72.7852C198.578 74.1797 197.361 75.1504 195.42 75.1504C193.533 75.1504 192.412 74.3027 192.234 72.8809H194.012C194.121 73.5098 194.613 73.8242 195.42 73.8242C196.254 73.8242 196.814 73.4824 196.814 72.9355C196.814 72.5117 196.473 72.2383 195.734 72.0742L194.545 71.8145C193.164 71.541 192.453 70.8164 192.453 69.75C192.453 68.3828 193.629 67.4805 195.447 67.4805C197.225 67.4805 198.318 68.3418 198.441 69.6953H196.787Z" fill="var(--sol-element-brand-variant)"/>
<rect width="352" height="0.999974" transform="translate(48 92)" fill="var(--sol-border-normal-variant)"/>
<rect width="352" height="72" transform="translate(48 93)" fill="var(--sol-element-primary)" fill-opacity="0.04"/>
<path d="M89.0938 106.102H90.5703L93.9062 114.25H94.0293L97.3652 106.102H98.8418V116H97.6797V108.521H97.584L94.5078 116H93.4141L90.3379 108.521H90.2559V116H89.0938V106.102ZM100.523 113.895C100.523 112.186 102.027 111.803 103.312 111.707C103.784 111.673 104.987 111.611 105.322 111.598V110.996C105.322 110.053 104.762 109.506 103.641 109.506C102.697 109.506 102.137 109.943 101.973 110.504H100.742C100.893 109.314 102.055 108.48 103.695 108.48C104.666 108.48 106.484 108.768 106.484 111.105V116H105.322V114.988H105.268C105.021 115.494 104.338 116.178 103.053 116.178C101.645 116.178 100.523 115.344 100.523 113.895ZM101.699 113.949C101.699 114.729 102.355 115.125 103.258 115.125C104.584 115.125 105.322 114.236 105.322 113.307V112.555L103.449 112.691C102.383 112.76 101.699 113.143 101.699 113.949ZM109.547 111.543V116H108.371V108.576H109.506V109.738H109.602C109.957 108.986 110.641 108.48 111.775 108.48C113.279 108.48 114.277 109.396 114.277 111.283V116H113.102V111.365C113.102 110.217 112.473 109.533 111.42 109.533C110.34 109.533 109.547 110.258 109.547 111.543ZM115.809 113.895C115.809 112.186 117.312 111.803 118.598 111.707C119.069 111.673 120.272 111.611 120.607 111.598V110.996C120.607 110.053 120.047 109.506 118.926 109.506C117.982 109.506 117.422 109.943 117.258 110.504H116.027C116.178 109.314 117.34 108.48 118.98 108.48C119.951 108.48 121.77 108.768 121.77 111.105V116H120.607V114.988H120.553C120.307 115.494 119.623 116.178 118.338 116.178C116.93 116.178 115.809 115.344 115.809 113.895ZM116.984 113.949C116.984 114.729 117.641 115.125 118.543 115.125C119.869 115.125 120.607 114.236 120.607 113.307V112.555L118.734 112.691C117.668 112.76 116.984 113.143 116.984 113.949ZM126.664 118.939C124.873 118.939 123.656 118.16 123.52 116.779H124.75C124.914 117.531 125.611 117.914 126.664 117.914C127.936 117.914 128.715 117.367 128.715 116.137V114.633H128.619C128.373 115.043 127.895 115.891 126.459 115.891C124.654 115.891 123.301 114.523 123.301 112.186C123.301 109.902 124.613 108.48 126.473 108.48C127.908 108.48 128.373 109.355 128.646 109.752H128.742V108.576H129.891V116.205C129.891 118.119 128.469 118.939 126.664 118.939ZM126.623 114.838C127.977 114.838 128.742 113.867 128.742 112.227C128.742 110.641 128.004 109.533 126.623 109.533C125.201 109.533 124.49 110.736 124.49 112.227C124.49 113.771 125.215 114.838 126.623 114.838ZM134.881 116.15C132.734 116.15 131.408 114.633 131.408 112.35C131.408 110.066 132.748 108.48 134.771 108.48C136.33 108.48 137.971 109.438 137.971 112.186V112.678H132.584C132.639 114.25 133.555 115.111 134.881 115.111C135.77 115.111 136.33 114.729 136.604 114.264H137.861C137.506 115.385 136.412 116.15 134.881 116.15ZM132.598 111.68H136.781C136.781 110.436 135.988 109.52 134.771 109.52C133.486 109.52 132.666 110.531 132.598 111.68ZM144.998 116L142.291 106.102H143.535L145.6 114.113H145.695L147.787 106.102H149.168L151.273 114.113H151.355L153.42 106.102H154.664L151.957 116H150.686L148.525 108.166H148.443L146.27 116H144.998ZM155.826 116V108.576H157.002V116H155.826ZM156.414 107.346C155.963 107.346 155.594 107.004 155.594 106.566C155.594 106.129 155.963 105.787 156.414 105.787C156.865 105.787 157.248 106.129 157.248 106.566C157.248 107.004 156.865 107.346 156.414 107.346ZM163.127 111.229V112.309H158.793V111.229H163.127ZM165.082 116V106.102H171.043V107.195H166.312V110.504H170.592V111.584H166.312V116H165.082ZM172.725 116V108.576H173.9V116H172.725ZM173.312 107.346C172.861 107.346 172.492 107.004 172.492 106.566C172.492 106.129 172.861 105.787 173.312 105.787C173.764 105.787 174.146 106.129 174.146 106.566C174.146 107.004 173.764 107.346 173.312 107.346ZM177.318 115.084L176.252 118.803H175.24L175.992 115.084H177.318ZM185.891 118.939C184.1 118.939 182.883 118.16 182.746 116.779H183.977C184.141 117.531 184.838 117.914 185.891 117.914C187.162 117.914 187.941 117.367 187.941 116.137V114.633H187.846C187.6 115.043 187.121 115.891 185.686 115.891C183.881 115.891 182.527 114.523 182.527 112.186C182.527 109.902 183.84 108.48 185.699 108.48C187.135 108.48 187.6 109.355 187.873 109.752H187.969V108.576H189.117V116.205C189.117 118.119 187.695 118.939 185.891 118.939ZM185.85 114.838C187.203 114.838 187.969 113.867 187.969 112.227C187.969 110.641 187.23 109.533 185.85 109.533C184.428 109.533 183.717 110.736 183.717 112.227C183.717 113.771 184.441 114.838 185.85 114.838ZM190.635 113.895C190.635 112.186 192.139 111.803 193.424 111.707C193.896 111.673 195.099 111.611 195.434 111.598V110.996C195.434 110.053 194.873 109.506 193.752 109.506C192.809 109.506 192.248 109.943 192.084 110.504H190.854C191.004 109.314 192.166 108.48 193.807 108.48C194.777 108.48 196.596 108.768 196.596 111.105V116H195.434V114.988H195.379C195.133 115.494 194.449 116.178 193.164 116.178C191.756 116.178 190.635 115.344 190.635 113.895ZM191.811 113.949C191.811 114.729 192.467 115.125 193.369 115.125C194.695 115.125 195.434 114.236 195.434 113.307V112.555L193.561 112.691C192.494 112.76 191.811 113.143 191.811 113.949ZM201.723 108.576V109.561H200.164V113.867C200.164 114.824 200.629 114.975 201.135 114.975C201.354 114.975 201.654 114.961 201.832 114.947V116.041C201.654 116.068 201.354 116.096 201.012 116.096C200.027 116.096 198.975 115.48 198.975 114.168V109.561H197.854V108.576H198.975V106.799H200.164V108.576H201.723ZM206.289 116.15C204.143 116.15 202.816 114.633 202.816 112.35C202.816 110.066 204.156 108.48 206.18 108.48C207.738 108.48 209.379 109.438 209.379 112.186V112.678H203.992C204.047 114.25 204.963 115.111 206.289 115.111C207.178 115.111 207.738 114.729 208.012 114.264H209.27C208.914 115.385 207.82 116.15 206.289 116.15ZM204.006 111.68H208.189C208.189 110.436 207.396 109.52 206.18 109.52C204.895 109.52 204.074 110.531 204.006 111.68ZM212.578 116L210.322 108.576H211.566L213.152 114.236H213.221L214.793 108.576H216.051L217.596 114.209H217.678L219.264 108.576H220.494L218.238 116H217.076L215.463 110.34H215.354L213.754 116H212.578ZM221.438 113.895C221.438 112.186 222.941 111.803 224.227 111.707C224.698 111.673 225.901 111.611 226.236 111.598V110.996C226.236 110.053 225.676 109.506 224.555 109.506C223.611 109.506 223.051 109.943 222.887 110.504H221.656C221.807 109.314 222.969 108.48 224.609 108.48C225.58 108.48 227.398 108.768 227.398 111.105V116H226.236V114.988H226.182C225.936 115.494 225.252 116.178 223.967 116.178C222.559 116.178 221.438 115.344 221.438 113.895ZM222.613 113.949C222.613 114.729 223.27 115.125 224.172 115.125C225.498 115.125 226.236 114.236 226.236 113.307V112.555L224.363 112.691C223.297 112.76 222.613 113.143 222.613 113.949ZM229.764 118.789C229.504 118.789 229.258 118.775 229.107 118.762V117.709C229.23 117.723 229.504 117.736 229.682 117.736C230.16 117.736 230.557 117.695 230.953 116.615L231.172 116.055L228.424 108.576H229.709L231.732 114.469H231.814L233.838 108.576H235.123L231.979 117.066C231.541 118.229 230.816 118.789 229.764 118.789ZM237.502 115.084L236.436 118.803H235.424L236.176 115.084H237.502ZM242.711 113.895C242.711 112.186 244.215 111.803 245.5 111.707C245.972 111.673 247.175 111.611 247.51 111.598V110.996C247.51 110.053 246.949 109.506 245.828 109.506C244.885 109.506 244.324 109.943 244.16 110.504H242.93C243.08 109.314 244.242 108.48 245.883 108.48C246.854 108.48 248.672 108.768 248.672 111.105V116H247.51V114.988H247.455C247.209 115.494 246.525 116.178 245.24 116.178C243.832 116.178 242.711 115.344 242.711 113.895ZM243.887 113.949C243.887 114.729 244.543 115.125 245.445 115.125C246.771 115.125 247.51 114.236 247.51 113.307V112.555L245.637 112.691C244.57 112.76 243.887 113.143 243.887 113.949ZM251.734 111.543V116H250.559V108.576H251.693V109.738H251.789C252.145 108.986 252.828 108.48 253.963 108.48C255.467 108.48 256.465 109.396 256.465 111.283V116H255.289V111.365C255.289 110.217 254.66 109.533 253.607 109.533C252.527 109.533 251.734 110.258 251.734 111.543ZM261.154 116.15C259.309 116.15 257.996 114.66 257.996 112.309C257.996 109.957 259.309 108.48 261.168 108.48C262.604 108.48 263.068 109.355 263.314 109.752H263.396V106.102H264.586V116H263.438V114.865H263.314C263.055 115.275 262.576 116.15 261.154 116.15ZM261.318 115.098C262.672 115.098 263.438 113.949 263.438 112.281C263.438 110.641 262.699 109.533 261.318 109.533C259.896 109.533 259.186 110.736 259.186 112.281C259.186 113.867 259.91 115.098 261.318 115.098ZM273.172 116.15C271.066 116.15 269.781 114.551 269.781 112.322C269.781 110.066 271.121 108.48 273.145 108.48C274.73 108.48 275.906 109.41 276.098 110.818H274.922C274.758 110.135 274.156 109.52 273.172 109.52C271.846 109.52 270.957 110.613 270.957 112.281C270.957 114.004 271.818 115.098 273.172 115.098C274.047 115.098 274.717 114.633 274.922 113.812H276.098C275.906 115.139 274.826 116.15 273.172 116.15ZM280.582 116.15C278.559 116.15 277.191 114.633 277.191 112.322C277.191 110.012 278.559 108.48 280.582 108.48C282.592 108.48 283.945 110.012 283.945 112.322C283.945 114.633 282.592 116.15 280.582 116.15ZM280.582 115.111C282.072 115.111 282.77 113.799 282.77 112.322C282.77 110.846 282.072 109.52 280.582 109.52C279.064 109.52 278.367 110.846 278.367 112.322C278.367 113.799 279.064 115.111 280.582 115.111ZM286.666 111.543V116H285.49V108.576H286.625V109.738H286.721C287.076 108.986 287.76 108.48 288.895 108.48C290.398 108.48 291.396 109.396 291.396 111.283V116H290.221V111.365C290.221 110.217 289.592 109.533 288.539 109.533C287.459 109.533 286.666 110.258 286.666 111.543ZM294.459 111.543V116H293.283V108.576H294.418V109.738H294.514C294.869 108.986 295.553 108.48 296.688 108.48C298.191 108.48 299.189 109.396 299.189 111.283V116H298.014V111.365C298.014 110.217 297.385 109.533 296.332 109.533C295.252 109.533 294.459 110.258 294.459 111.543ZM304.193 116.15C302.047 116.15 300.721 114.633 300.721 112.35C300.721 110.066 302.061 108.48 304.084 108.48C305.643 108.48 307.283 109.438 307.283 112.186V112.678H301.896C301.951 114.25 302.867 115.111 304.193 115.111C305.082 115.111 305.643 114.729 305.916 114.264H307.174C306.818 115.385 305.725 116.15 304.193 116.15ZM301.91 111.68H306.094C306.094 110.436 305.301 109.52 304.084 109.52C302.799 109.52 301.979 110.531 301.91 111.68ZM311.85 116.15C309.744 116.15 308.459 114.551 308.459 112.322C308.459 110.066 309.799 108.48 311.822 108.48C313.408 108.48 314.584 109.41 314.775 110.818H313.6C313.436 110.135 312.834 109.52 311.85 109.52C310.523 109.52 309.635 110.613 309.635 112.281C309.635 114.004 310.496 115.098 311.85 115.098C312.725 115.098 313.395 114.633 313.6 113.812H314.775C314.584 115.139 313.504 116.15 311.85 116.15ZM319.465 108.576V109.561H317.906V113.867C317.906 114.824 318.371 114.975 318.877 114.975C319.096 114.975 319.396 114.961 319.574 114.947V116.041C319.396 116.068 319.096 116.096 318.754 116.096C317.77 116.096 316.717 115.48 316.717 114.168V109.561H315.596V108.576H316.717V106.799H317.906V108.576H319.465ZM320.982 116V108.576H322.158V116H320.982ZM321.57 107.346C321.119 107.346 320.75 107.004 320.75 106.566C320.75 106.129 321.119 105.787 321.57 105.787C322.021 105.787 322.404 106.129 322.404 106.566C322.404 107.004 322.021 107.346 321.57 107.346ZM327.066 116.15C325.043 116.15 323.676 114.633 323.676 112.322C323.676 110.012 325.043 108.48 327.066 108.48C329.076 108.48 330.43 110.012 330.43 112.322C330.43 114.633 329.076 116.15 327.066 116.15ZM327.066 115.111C328.557 115.111 329.254 113.799 329.254 112.322C329.254 110.846 328.557 109.52 327.066 109.52C325.549 109.52 324.852 110.846 324.852 112.322C324.852 113.799 325.549 115.111 327.066 115.111ZM333.15 111.543V116H331.975V108.576H333.109V109.738H333.205C333.561 108.986 334.244 108.48 335.379 108.48C336.883 108.48 337.881 109.396 337.881 111.283V116H336.705V111.365C336.705 110.217 336.076 109.533 335.023 109.533C333.943 109.533 333.15 110.258 333.15 111.543ZM91.9785 136.15C89.9551 136.15 88.5879 134.633 88.5879 132.322C88.5879 130.012 89.9551 128.48 91.9785 128.48C93.9883 128.48 95.3418 130.012 95.3418 132.322C95.3418 134.633 93.9883 136.15 91.9785 136.15ZM91.9785 135.111C93.4688 135.111 94.166 133.799 94.166 132.322C94.166 130.846 93.4688 129.52 91.9785 129.52C90.4609 129.52 89.7637 130.846 89.7637 132.322C89.7637 133.799 90.4609 135.111 91.9785 135.111ZM96.8867 138.789V128.576H98.0215V129.752H98.1582C98.4043 129.355 98.8691 128.48 100.305 128.48C102.164 128.48 103.463 129.957 103.463 132.309C103.463 134.66 102.164 136.15 100.318 136.15C98.8965 136.15 98.4043 135.275 98.1582 134.865H98.0625V138.789H96.8867ZM98.0352 132.281C98.0352 133.949 98.7871 135.098 100.154 135.098C101.562 135.098 102.287 133.867 102.287 132.281C102.287 130.736 101.576 129.533 100.154 129.533C98.7598 129.533 98.0352 130.641 98.0352 132.281ZM108.234 128.576V129.561H106.676V133.867C106.676 134.824 107.141 134.975 107.646 134.975C107.865 134.975 108.166 134.961 108.344 134.947V136.041C108.166 136.068 107.865 136.096 107.523 136.096C106.539 136.096 105.486 135.48 105.486 134.168V129.561H104.365V128.576H105.486V126.799H106.676V128.576H108.234ZM109.752 136V128.576H110.928V136H109.752ZM110.34 127.346C109.889 127.346 109.52 127.004 109.52 126.566C109.52 126.129 109.889 125.787 110.34 125.787C110.791 125.787 111.174 126.129 111.174 126.566C111.174 127.004 110.791 127.346 110.34 127.346ZM115.836 136.15C113.812 136.15 112.445 134.633 112.445 132.322C112.445 130.012 113.812 128.48 115.836 128.48C117.846 128.48 119.199 130.012 119.199 132.322C119.199 134.633 117.846 136.15 115.836 136.15ZM115.836 135.111C117.326 135.111 118.023 133.799 118.023 132.322C118.023 130.846 117.326 129.52 115.836 129.52C114.318 129.52 113.621 130.846 113.621 132.322C113.621 133.799 114.318 135.111 115.836 135.111ZM121.92 131.543V136H120.744V128.576H121.879V129.738H121.975C122.33 128.986 123.014 128.48 124.148 128.48C125.652 128.48 126.65 129.396 126.65 131.283V136H125.475V131.365C125.475 130.217 124.846 129.533 123.793 129.533C122.713 129.533 121.92 130.258 121.92 131.543ZM132.666 130.504C132.502 129.889 132.037 129.479 131.162 129.479C130.246 129.479 129.59 129.971 129.59 130.6C129.59 131.092 129.986 131.434 130.861 131.639L131.969 131.912C133.295 132.227 133.951 132.883 133.951 133.922C133.951 135.207 132.898 136.15 131.039 136.15C129.371 136.15 128.373 135.412 128.182 134.059H129.412C129.549 134.783 130.082 135.125 131.012 135.125C132.064 135.125 132.734 134.688 132.734 133.99C132.734 133.471 132.365 133.115 131.518 132.924L130.396 132.664C129.098 132.363 128.414 131.652 128.414 130.668C128.414 129.396 129.521 128.48 131.162 128.48C132.693 128.48 133.664 129.301 133.814 130.504H132.666ZM142.318 128.576V129.561H140.678V136H139.488V129.561H138.299V128.576H139.488V127.564C139.488 126.361 140.295 125.637 141.607 125.637C141.895 125.637 142.236 125.678 142.482 125.719V126.771C142.236 126.73 142.018 126.717 141.867 126.717C141.047 126.717 140.678 127.059 140.678 127.824V128.576H142.318ZM146.447 136.15C144.424 136.15 143.057 134.633 143.057 132.322C143.057 130.012 144.424 128.48 146.447 128.48C148.457 128.48 149.811 130.012 149.811 132.322C149.811 134.633 148.457 136.15 146.447 136.15ZM146.447 135.111C147.938 135.111 148.635 133.799 148.635 132.322C148.635 130.846 147.938 129.52 146.447 129.52C144.93 129.52 144.232 130.846 144.232 132.322C144.232 133.799 144.93 135.111 146.447 135.111ZM151.355 136V128.576H152.49V129.711H152.572C152.846 128.959 153.611 128.453 154.486 128.453C154.664 128.453 154.965 128.467 155.102 128.48V129.67C155.02 129.643 154.691 129.588 154.391 129.588C153.324 129.588 152.531 130.326 152.531 131.324V136H151.355ZM163.004 128.576V129.561H161.445V133.867C161.445 134.824 161.91 134.975 162.416 134.975C162.635 134.975 162.936 134.961 163.113 134.947V136.041C162.936 136.068 162.635 136.096 162.293 136.096C161.309 136.096 160.256 135.48 160.256 134.168V129.561H159.135V128.576H160.256V126.799H161.445V128.576H163.004ZM165.861 131.543V136H164.686V126.102H165.861V129.738H165.957C166.299 128.973 166.969 128.48 168.145 128.48C169.662 128.48 170.674 129.383 170.674 131.283V136H169.498V131.365C169.498 130.203 168.855 129.533 167.789 129.533C166.682 129.533 165.861 130.258 165.861 131.543ZM172.561 136V128.576H173.736V136H172.561ZM173.148 127.346C172.697 127.346 172.328 127.004 172.328 126.566C172.328 126.129 172.697 125.787 173.148 125.787C173.6 125.787 173.982 126.129 173.982 126.566C173.982 127.004 173.6 127.346 173.148 127.346ZM179.738 130.504C179.574 129.889 179.109 129.479 178.234 129.479C177.318 129.479 176.662 129.971 176.662 130.6C176.662 131.092 177.059 131.434 177.934 131.639L179.041 131.912C180.367 132.227 181.023 132.883 181.023 133.922C181.023 135.207 179.971 136.15 178.111 136.15C176.443 136.15 175.445 135.412 175.254 134.059H176.484C176.621 134.783 177.154 135.125 178.084 135.125C179.137 135.125 179.807 134.688 179.807 133.99C179.807 133.471 179.438 133.115 178.59 132.924L177.469 132.664C176.17 132.363 175.486 131.652 175.486 130.668C175.486 129.396 176.594 128.48 178.234 128.48C179.766 128.48 180.736 129.301 180.887 130.504H179.738ZM190.197 130.504C190.033 129.889 189.568 129.479 188.693 129.479C187.777 129.479 187.121 129.971 187.121 130.6C187.121 131.092 187.518 131.434 188.393 131.639L189.5 131.912C190.826 132.227 191.482 132.883 191.482 133.922C191.482 135.207 190.43 136.15 188.57 136.15C186.902 136.15 185.904 135.412 185.713 134.059H186.943C187.08 134.783 187.613 135.125 188.543 135.125C189.596 135.125 190.266 134.688 190.266 133.99C190.266 133.471 189.896 133.115 189.049 132.924L187.928 132.664C186.629 132.363 185.945 131.652 185.945 130.668C185.945 129.396 187.053 128.48 188.693 128.48C190.225 128.48 191.195 129.301 191.346 130.504H190.197ZM196.254 128.576V129.561H194.695V133.867C194.695 134.824 195.16 134.975 195.666 134.975C195.885 134.975 196.186 134.961 196.363 134.947V136.041C196.186 136.068 195.885 136.096 195.543 136.096C194.559 136.096 193.506 135.48 193.506 134.168V129.561H192.385V128.576H193.506V126.799H194.695V128.576H196.254ZM200.738 136.15C198.715 136.15 197.348 134.633 197.348 132.322C197.348 130.012 198.715 128.48 200.738 128.48C202.748 128.48 204.102 130.012 204.102 132.322C204.102 134.633 202.748 136.15 200.738 136.15ZM200.738 135.111C202.229 135.111 202.926 133.799 202.926 132.322C202.926 130.846 202.229 129.52 200.738 129.52C199.221 129.52 198.523 130.846 198.523 132.322C198.523 133.799 199.221 135.111 200.738 135.111ZM205.646 136V128.576H206.781V129.711H206.863C207.137 128.959 207.902 128.453 208.777 128.453C208.955 128.453 209.256 128.467 209.393 128.48V129.67C209.311 129.643 208.982 129.588 208.682 129.588C207.615 129.588 206.822 130.326 206.822 131.324V136H205.646ZM213.426 136.15C211.279 136.15 209.953 134.633 209.953 132.35C209.953 130.066 211.293 128.48 213.316 128.48C214.875 128.48 216.516 129.438 216.516 132.186V132.678H211.129C211.184 134.25 212.1 135.111 213.426 135.111C214.314 135.111 214.875 134.729 215.148 134.264H216.406C216.051 135.385 214.957 136.15 213.426 136.15ZM211.143 131.68H215.326C215.326 130.436 214.533 129.52 213.316 129.52C212.031 129.52 211.211 130.531 211.143 131.68ZM218.881 136.082C218.402 136.082 217.992 135.686 218.006 135.193C217.992 134.715 218.402 134.318 218.881 134.318C219.359 134.318 219.756 134.715 219.756 135.193C219.756 135.686 219.359 136.082 218.881 136.082Z" fill="var(--sol-element-secondary)"/>
<rect width="352" height="159" transform="translate(500 48)" fill="var(--sol-surface)"/>
<mask id="mask1_1663_176440" style="mask-type:alpha" maskUnits="userSpaceOnUse" x="516" y="60" width="20" height="20">
<path d="M531.442 67.9424L526.442 72.9424C526.198 73.1865 525.802 73.1865 525.558 72.9424L520.558 67.9424L521.442 67.0586L526 71.6167L530.558 67.0586L531.442 67.9424Z" fill="var(--sol-element-primary)"/>
</mask>
<g mask="url(#mask1_1663_176440)">
<rect x="516" y="60" width="20" height="20" fill="var(--sol-element-quaternary)"/>
</g>
<path d="M547.438 76L544.25 64.6875H546.438L548.484 73.0156H548.594L550.766 64.6875H552.766L554.953 73.0312H555.047L557.094 64.6875H559.281L556.094 76H554.078L551.812 68.0469H551.734L549.453 76H547.438ZM562.484 71.0312V76H560.484V64.6875H562.438V68.9531H562.547C562.938 68 563.75 67.4062 565.062 67.4062C566.828 67.4062 567.984 68.5469 567.984 70.5938V76H566V70.9062C566 69.75 565.375 69.0938 564.328 69.0938C563.25 69.0938 562.484 69.7969 562.484 71.0312ZM570.766 79.1875C570.375 79.1875 569.984 79.1719 569.734 79.1406V77.5469C569.984 77.5625 570.312 77.5781 570.578 77.5781C571.062 77.5781 571.469 77.5312 571.812 76.625L571.984 76.1719L568.891 67.5156H571L572.969 73.9219H573.062L575.031 67.5156H577.141L573.734 77.0312C573.25 78.3906 572.359 79.1875 570.766 79.1875ZM582.188 76V67.5156H584.188V76H582.188ZM583.203 66.3125C582.578 66.3125 582.047 65.8281 582.047 65.2188C582.047 64.625 582.578 64.1406 583.203 64.1406C583.844 64.1406 584.359 64.625 584.359 65.2188C584.359 65.8281 583.844 66.3125 583.203 66.3125ZM590.906 69.9375C590.781 69.2969 590.25 68.8906 589.406 68.8906C588.547 68.8906 587.922 69.3125 587.938 69.8906C587.922 70.3281 588.281 70.6562 589.141 70.8594L590.578 71.1562C592.188 71.5156 592.953 72.25 592.969 73.4688C592.953 75.0625 591.562 76.1719 589.344 76.1719C587.188 76.1719 585.906 75.2031 585.703 73.5781H587.734C587.859 74.2969 588.422 74.6562 589.344 74.6562C590.297 74.6562 590.938 74.2656 590.938 73.6406C590.938 73.1562 590.547 72.8438 589.703 72.6562L588.344 72.3594C586.766 72.0469 585.953 71.2188 585.953 70C585.953 68.4375 587.297 67.4062 589.375 67.4062C591.406 67.4062 592.656 68.3906 592.797 69.9375H590.906ZM597.891 73.6094C597.891 71.7031 599.469 71.1406 601.047 71.0469C601.633 71.0078 602.852 70.9375 603.219 70.9219V70.25C603.219 69.4062 602.672 68.9219 601.688 68.9219C600.797 68.9219 600.25 69.3281 600.094 69.9375H598.172C598.312 68.5 599.609 67.4062 601.734 67.4062C603.344 67.4062 605.203 68.0625 605.203 70.3281V76H603.297V74.8281H603.234C602.859 75.5469 602.062 76.1719 600.734 76.1719C599.109 76.1719 597.891 75.2812 597.891 73.6094ZM599.812 73.5938C599.812 74.3281 600.406 74.7031 601.25 74.7031C602.453 74.7031 603.234 73.9062 603.234 72.9531V72.25L601.359 72.375C600.406 72.4531 599.812 72.8438 599.812 73.5938ZM614.031 76.1562C612.031 76.1562 610.531 74.5625 610.531 71.7656C610.531 68.9375 612.078 67.4062 614.047 67.4062C615.547 67.4062 616.172 68.2969 616.469 68.9062H616.547V64.6875H618.531V76H616.578V74.6562H616.469C616.156 75.2812 615.5 76.1562 614.031 76.1562ZM614.578 74.5156C615.859 74.5156 616.594 73.4062 616.594 71.75C616.594 70.1094 615.875 69.0312 614.578 69.0312C613.25 69.0312 612.562 70.1719 612.562 71.75C612.562 73.3594 613.266 74.5156 614.578 74.5156ZM624.312 76.1719C621.75 76.1719 620.188 74.4688 620.188 71.8125C620.188 69.1875 621.781 67.4062 624.203 67.4062C626.281 67.4062 628.078 68.7031 628.078 71.6875V72.3125H622.156C622.18 73.7578 623.031 74.6094 624.328 74.6094C625.203 74.6094 625.797 74.2344 626.047 73.7344H628C627.641 75.2031 626.281 76.1719 624.312 76.1719ZM622.172 70.9531H626.172C626.156 69.7969 625.391 68.9531 624.234 68.9531C623.031 68.9531 622.234 69.8672 622.172 70.9531ZM636.953 67.5156L633.922 76H631.734L628.703 67.5156H630.828L632.781 73.8281H632.875L634.844 67.5156H636.953ZM638.203 76V67.5156H640.203V76H638.203ZM639.219 66.3125C638.594 66.3125 638.062 65.8281 638.062 65.2188C638.062 64.625 638.594 64.1406 639.219 64.1406C639.859 64.1406 640.375 64.625 640.375 65.2188C640.375 65.8281 639.859 66.3125 639.219 66.3125ZM645.812 76.1719C643.281 76.1719 641.75 74.3594 641.75 71.7969C641.75 69.2031 643.328 67.4062 645.812 67.4062C647.875 67.4062 649.312 68.6094 649.453 70.4375H647.547C647.391 69.625 646.797 69 645.828 69C644.594 69 643.766 70.0469 643.766 71.75C643.766 73.5 644.578 74.5469 645.828 74.5469C646.719 74.5469 647.375 74.0312 647.547 73.1094H649.453C649.297 74.9062 647.938 76.1719 645.812 76.1719ZM654.719 76.1719C652.156 76.1719 650.594 74.4688 650.594 71.8125C650.594 69.1875 652.188 67.4062 654.609 67.4062C656.688 67.4062 658.484 68.7031 658.484 71.6875V72.3125H652.562C652.586 73.7578 653.438 74.6094 654.734 74.6094C655.609 74.6094 656.203 74.2344 656.453 73.7344H658.406C658.047 75.2031 656.688 76.1719 654.719 76.1719ZM652.578 70.9531H656.578C656.562 69.7969 655.797 68.9531 654.641 68.9531C653.438 68.9531 652.641 69.8672 652.578 70.9531ZM668.641 69.9375C668.516 69.2969 667.984 68.8906 667.141 68.8906C666.281 68.8906 665.656 69.3125 665.672 69.8906C665.656 70.3281 666.016 70.6562 666.875 70.8594L668.312 71.1562C669.922 71.5156 670.688 72.25 670.703 73.4688C670.688 75.0625 669.297 76.1719 667.078 76.1719C664.922 76.1719 663.641 75.2031 663.438 73.5781H665.469C665.594 74.2969 666.156 74.6562 667.078 74.6562C668.031 74.6562 668.672 74.2656 668.672 73.6406C668.672 73.1562 668.281 72.8438 667.438 72.6562L666.078 72.3594C664.5 72.0469 663.688 71.2188 663.688 70C663.688 68.4375 665.031 67.4062 667.109 67.4062C669.141 67.4062 670.391 68.3906 670.531 69.9375H668.641ZM674.219 71.0312V76H672.219V64.6875H674.172V68.9531H674.281C674.672 68 675.484 67.4062 676.797 67.4062C678.562 67.4062 679.719 68.5469 679.719 70.5938V76H677.734V70.9062C677.734 69.75 677.109 69.0938 676.062 69.0938C674.984 69.0938 674.219 69.7969 674.219 71.0312ZM685.312 76.1719C682.844 76.1719 681.25 74.4219 681.25 71.7969C681.25 69.1562 682.844 67.4062 685.312 67.4062C687.797 67.4062 689.375 69.1562 689.375 71.7969C689.375 74.4219 687.797 76.1719 685.312 76.1719ZM685.328 74.5781C686.688 74.5781 687.359 73.3438 687.359 71.7812C687.359 70.2344 686.688 68.9844 685.328 68.9844C683.938 68.9844 683.266 70.2344 683.266 71.7812C683.266 73.3438 683.938 74.5781 685.328 74.5781ZM692.453 76L690.047 67.5156H692.078L693.578 73.4844H693.656L695.172 67.5156H697.188L698.719 73.4531H698.797L700.281 67.5156H702.312L699.906 76H697.828L696.234 70.25H696.125L694.531 76H692.453ZM703.578 76V67.5156H705.578V76H703.578ZM704.594 66.3125C703.969 66.3125 703.438 65.8281 703.438 65.2188C703.438 64.625 703.969 64.1406 704.594 64.1406C705.234 64.1406 705.75 64.625 705.75 65.2188C705.75 65.8281 705.234 66.3125 704.594 66.3125ZM709.484 71.0312V76H707.484V67.5156H709.391V68.9531H709.5C709.891 68 710.75 67.4062 712.016 67.4062C713.781 67.4062 714.938 68.5625 714.922 70.5938V76H712.938V70.9062C712.938 69.7656 712.328 69.0938 711.281 69.0938C710.219 69.0938 709.484 69.7969 709.484 71.0312ZM720.531 79.3594C718.281 79.3594 716.859 78.3594 716.719 76.7656H718.703C718.844 77.5 719.547 77.8594 720.562 77.8594C721.75 77.8594 722.531 77.3438 722.531 76.0938V74.4688H722.438C722.125 75.0938 721.453 75.875 719.984 75.875C718.031 75.875 716.484 74.4531 716.484 71.6875C716.484 68.8906 718.031 67.4062 720 67.4062C721.5 67.4062 722.125 68.2969 722.438 68.9062H722.531V67.5156H724.5V76.1406C724.5 78.3125 722.828 79.3594 720.531 79.3594ZM720.531 74.3125C721.812 74.3125 722.547 73.3438 722.547 71.7188C722.547 70.1094 721.828 69.0312 720.531 69.0312C719.203 69.0312 718.516 70.1719 718.516 71.7188C718.516 73.2812 719.219 74.3125 720.531 74.3125ZM729.812 73.6094C729.812 71.7031 731.391 71.1406 732.969 71.0469C733.555 71.0078 734.773 70.9375 735.141 70.9219V70.25C735.141 69.4062 734.594 68.9219 733.609 68.9219C732.719 68.9219 732.172 69.3281 732.016 69.9375H730.094C730.234 68.5 731.531 67.4062 733.656 67.4062C735.266 67.4062 737.125 68.0625 737.125 70.3281V76H735.219V74.8281H735.156C734.781 75.5469 733.984 76.1719 732.656 76.1719C731.031 76.1719 729.812 75.2812 729.812 73.6094ZM731.734 73.5938C731.734 74.3281 732.328 74.7031 733.172 74.7031C734.375 74.7031 735.156 73.9062 735.156 72.9531V72.25L733.281 72.375C732.328 72.4531 731.734 72.8438 731.734 73.5938ZM743.812 69.9375C743.688 69.2969 743.156 68.8906 742.312 68.8906C741.453 68.8906 740.828 69.3125 740.844 69.8906C740.828 70.3281 741.188 70.6562 742.047 70.8594L743.484 71.1562C745.094 71.5156 745.859 72.25 745.875 73.4688C745.859 75.0625 744.469 76.1719 742.25 76.1719C740.094 76.1719 738.812 75.2031 738.609 73.5781H740.641C740.766 74.2969 741.328 74.6562 742.25 74.6562C743.203 74.6562 743.844 74.2656 743.844 73.6406C743.844 73.1562 743.453 72.8438 742.609 72.6562L741.25 72.3594C739.672 72.0469 738.859 71.2188 738.859 70C738.859 68.4375 740.203 67.4062 742.281 67.4062C744.312 67.4062 745.562 68.3906 745.703 69.9375H743.812ZM754.891 76.1719C752.422 76.1719 750.828 74.4219 750.828 71.7969C750.828 69.1562 752.422 67.4062 754.891 67.4062C757.375 67.4062 758.953 69.1562 758.953 71.7969C758.953 74.4219 757.375 76.1719 754.891 76.1719ZM754.906 74.5781C756.266 74.5781 756.938 73.3438 756.938 71.7812C756.938 70.2344 756.266 68.9844 754.906 68.9844C753.516 68.9844 752.844 70.2344 752.844 71.7812C752.844 73.3438 753.516 74.5781 754.906 74.5781ZM764.797 67.5156V69.0469H763.047V76H761.047V69.0469H759.781V67.5156H761.047V66.7031C761.047 65.0469 762.078 64.1562 763.703 64.1562C764.172 64.1562 764.594 64.2031 764.969 64.2812V65.8594C764.641 65.8125 764.391 65.7969 764.25 65.7969C763.438 65.7969 763.047 66.125 763.047 66.8906V67.5156H764.797ZM770.516 67.5156V69.0469H768.766V76H766.766V69.0469H765.5V67.5156H766.766V66.7031C766.766 65.0469 767.797 64.1562 769.422 64.1562C769.891 64.1562 770.312 64.2031 770.688 64.2812V65.8594C770.359 65.8125 770.109 65.7969 769.969 65.7969C769.156 65.7969 768.766 66.125 768.766 66.8906V67.5156H770.516ZM773.938 64.6875V76H771.938V64.6875H773.938ZM775.844 76V67.5156H777.844V76H775.844ZM776.859 66.3125C776.234 66.3125 775.703 65.8281 775.703 65.2188C775.703 64.625 776.234 64.1406 776.859 64.1406C777.5 64.1406 778.016 64.625 778.016 65.2188C778.016 65.8281 777.5 66.3125 776.859 66.3125ZM781.75 71.0312V76H779.75V67.5156H781.656V68.9531H781.766C782.156 68 783.016 67.4062 784.281 67.4062C786.047 67.4062 787.203 68.5625 787.188 70.5938V76H785.203V70.9062C785.203 69.7656 784.594 69.0938 783.547 69.0938C782.484 69.0938 781.75 69.7969 781.75 71.0312ZM792.859 76.1719C790.297 76.1719 788.734 74.4688 788.734 71.8125C788.734 69.1875 790.328 67.4062 792.75 67.4062C794.828 67.4062 796.625 68.7031 796.625 71.6875V72.3125H790.703C790.727 73.7578 791.578 74.6094 792.875 74.6094C793.75 74.6094 794.344 74.2344 794.594 73.7344H796.547C796.188 75.2031 794.828 76.1719 792.859 76.1719ZM790.719 70.9531H794.719C794.703 69.7969 793.938 68.9531 792.781 68.9531C791.578 68.9531 790.781 69.8672 790.719 70.9531ZM800.078 72.5312C800.094 70.5469 800.656 69.9375 801.641 69.3281C802.312 68.9062 802.812 68.375 802.812 67.5938C802.812 66.7188 802.141 66.1562 801.281 66.1562C800.5 66.1562 799.75 66.6562 799.703 67.7031H797.75C797.797 65.6094 799.375 64.5312 801.297 64.5312C803.406 64.5312 804.859 65.7031 804.859 67.5625C804.859 68.8281 804.219 69.6562 803.203 70.2656C802.297 70.8125 801.922 71.3594 801.906 72.5312V72.6719H800.078V72.5312ZM801.047 76.125C800.375 76.125 799.828 75.5781 799.828 74.9062C799.828 74.25 800.375 73.7031 801.047 73.7031C801.688 73.7031 802.25 74.25 802.25 74.9062C802.25 75.5781 801.688 76.125 801.047 76.125Z" fill="var(--sol-element-brand-variant)"/>
<rect width="352" height="0.999974" transform="translate(500 93)" fill="var(--sol-border-normal-variant)"/>
<rect width="352" height="114" transform="translate(500 93)" fill="var(--sol-element-primary)" fill-opacity="0.04"/>
<path d="M541.75 122H540.281L544.422 110.688H545.906L550.047 122H548.562L547.438 118.812H542.891L541.75 122ZM543.312 117.578H547L545.203 112.516H545.109L543.312 117.578ZM558.625 122.172C556.516 122.172 555.016 120.469 555.016 117.781C555.016 115.094 556.516 113.406 558.641 113.406C560.281 113.406 560.812 114.406 561.094 114.859H561.188V110.688H562.547V122H561.234V120.703H561.094C560.797 121.172 560.25 122.172 558.625 122.172ZM558.812 120.969C560.359 120.969 561.234 119.656 561.234 117.75C561.234 115.875 560.391 114.609 558.812 114.609C557.188 114.609 556.375 115.984 556.375 117.75C556.375 119.562 557.203 120.969 558.812 120.969ZM568.438 122.172C565.984 122.172 564.469 120.438 564.469 117.828C564.469 115.219 566 113.406 568.312 113.406C570.094 113.406 571.969 114.5 571.969 117.641V118.203H565.812C565.875 120 566.922 120.984 568.438 120.984C569.453 120.984 570.094 120.547 570.406 120.016H571.844C571.438 121.297 570.188 122.172 568.438 122.172ZM565.828 117.062H570.609C570.609 115.641 569.703 114.594 568.312 114.594C566.844 114.594 565.906 115.75 565.828 117.062ZM580.438 113.516L577.297 122H575.906L572.781 113.516H574.25L576.562 120.25H576.656L578.969 113.516H580.438ZM581.922 122V113.516H583.266V122H581.922ZM582.594 112.109C582.078 112.109 581.656 111.719 581.656 111.219C581.656 110.719 582.078 110.328 582.594 110.328C583.109 110.328 583.547 110.719 583.547 111.219C583.547 111.719 583.109 112.109 582.594 112.109ZM588.875 122.172C586.469 122.172 585 120.344 585 117.797C585 115.219 586.531 113.406 588.844 113.406C590.656 113.406 592 114.469 592.219 116.078H590.875C590.688 115.297 590 114.594 588.875 114.594C587.359 114.594 586.344 115.844 586.344 117.75C586.344 119.719 587.328 120.969 588.875 120.969C589.875 120.969 590.641 120.438 590.875 119.5H592.219C592 121.016 590.766 122.172 588.875 122.172ZM597.438 122.172C594.984 122.172 593.469 120.438 593.469 117.828C593.469 115.219 595 113.406 597.312 113.406C599.094 113.406 600.969 114.5 600.969 117.641V118.203H594.812C594.875 120 595.922 120.984 597.438 120.984C598.453 120.984 599.094 120.547 599.406 120.016H600.844C600.438 121.297 599.188 122.172 597.438 122.172ZM594.828 117.062H599.609C599.609 115.641 598.703 114.594 597.312 114.594C595.844 114.594 594.906 115.75 594.828 117.062ZM606.734 122V113.516H608.031V114.844H608.141C608.5 113.938 609.312 113.406 610.422 113.406C611.531 113.406 612.281 113.938 612.688 114.844H612.781C613.219 113.969 614.109 113.406 615.328 113.406C616.844 113.406 617.922 114.328 617.922 116.328V122H616.578V116.344C616.578 115.094 615.781 114.609 614.859 114.609C613.672 114.609 613 115.406 613 116.484V122H611.641V116.203C611.641 115.25 610.953 114.609 609.984 114.609C608.969 114.609 608.078 115.469 608.078 116.703V122H606.734ZM619.672 119.594C619.672 117.641 621.391 117.203 622.859 117.094C623.398 117.055 624.773 116.984 625.156 116.969V116.281C625.156 115.203 624.516 114.578 623.234 114.578C622.156 114.578 621.516 115.078 621.328 115.719H619.922C620.094 114.359 621.422 113.406 623.297 113.406C624.406 113.406 626.484 113.734 626.484 116.406V122H625.156V120.844H625.094C624.812 121.422 624.031 122.203 622.562 122.203C620.953 122.203 619.672 121.25 619.672 119.594ZM621.016 119.656C621.016 120.547 621.766 121 622.797 121C624.312 121 625.156 119.984 625.156 118.922V118.062L623.016 118.219C621.797 118.297 621.016 118.734 621.016 119.656ZM629.188 125.188C628.891 125.188 628.609 125.172 628.438 125.156V123.953C628.578 123.969 628.891 123.984 629.094 123.984C629.641 123.984 630.094 123.938 630.547 122.703L630.797 122.062L627.656 113.516H629.125L631.438 120.25H631.531L633.844 113.516H635.312L631.719 123.219C631.219 124.547 630.391 125.188 629.188 125.188ZM640.406 119.594C640.406 117.641 642.125 117.203 643.594 117.094C644.133 117.055 645.508 116.984 645.891 116.969V116.281C645.891 115.203 645.25 114.578 643.969 114.578C642.891 114.578 642.25 115.078 642.062 115.719H640.656C640.828 114.359 642.156 113.406 644.031 113.406C645.141 113.406 647.219 113.734 647.219 116.406V122H645.891V120.844H645.828C645.547 121.422 644.766 122.203 643.297 122.203C641.688 122.203 640.406 121.25 640.406 119.594ZM641.75 119.656C641.75 120.547 642.5 121 643.531 121C645.047 121 645.891 119.984 645.891 118.922V118.062L643.75 118.219C642.531 118.297 641.75 118.734 641.75 119.656ZM649.375 125.188V113.516H650.672V114.859H650.828C651.109 114.406 651.641 113.406 653.281 113.406C655.406 113.406 656.891 115.094 656.891 117.781C656.891 120.469 655.406 122.172 653.297 122.172C651.672 122.172 651.109 121.172 650.828 120.703H650.719V125.188H649.375ZM650.688 117.75C650.688 119.656 651.547 120.969 653.109 120.969C654.719 120.969 655.547 119.562 655.547 117.75C655.547 115.984 654.734 114.609 653.109 114.609C651.516 114.609 650.688 115.875 650.688 117.75ZM658.641 125.188V113.516H659.938V114.859H660.094C660.375 114.406 660.906 113.406 662.547 113.406C664.672 113.406 666.156 115.094 666.156 117.781C666.156 120.469 664.672 122.172 662.562 122.172C660.938 122.172 660.375 121.172 660.094 120.703H659.984V125.188H658.641ZM659.953 117.75C659.953 119.656 660.812 120.969 662.375 120.969C663.984 120.969 664.812 119.562 664.812 117.75C664.812 115.984 664 114.609 662.375 114.609C660.781 114.609 659.953 115.875 659.953 117.75ZM671.469 122.172C669.016 122.172 667.5 120.438 667.5 117.828C667.5 115.219 669.031 113.406 671.344 113.406C673.125 113.406 675 114.5 675 117.641V118.203H668.844C668.906 120 669.953 120.984 671.469 120.984C672.484 120.984 673.125 120.547 673.438 120.016H674.875C674.469 121.297 673.219 122.172 671.469 122.172ZM668.859 117.062H673.641C673.641 115.641 672.734 114.594 671.344 114.594C669.875 114.594 668.938 115.75 668.859 117.062ZM676.344 119.594C676.344 117.641 678.062 117.203 679.531 117.094C680.07 117.055 681.445 116.984 681.828 116.969V116.281C681.828 115.203 681.188 114.578 679.906 114.578C678.828 114.578 678.188 115.078 678 115.719H676.594C676.766 114.359 678.094 113.406 679.969 113.406C681.078 113.406 683.156 113.734 683.156 116.406V122H681.828V120.844H681.766C681.484 121.422 680.703 122.203 679.234 122.203C677.625 122.203 676.344 121.25 676.344 119.594ZM677.688 119.656C677.688 120.547 678.438 121 679.469 121C680.984 121 681.828 119.984 681.828 118.922V118.062L679.688 118.219C678.469 118.297 677.688 118.734 677.688 119.656ZM685.312 122V113.516H686.609V114.812H686.703C687.016 113.953 687.891 113.375 688.891 113.375C689.094 113.375 689.438 113.391 689.594 113.406V114.766C689.5 114.734 689.125 114.672 688.781 114.672C687.562 114.672 686.656 115.516 686.656 116.656V122H685.312ZM698.391 122.172C696.078 122.172 694.516 120.438 694.516 117.797C694.516 115.156 696.078 113.406 698.391 113.406C700.688 113.406 702.234 115.156 702.234 117.797C702.234 120.438 700.688 122.172 698.391 122.172ZM698.391 120.984C700.094 120.984 700.891 119.484 700.891 117.797C700.891 116.109 700.094 114.594 698.391 114.594C696.656 114.594 695.859 116.109 695.859 117.797C695.859 119.484 696.656 120.984 698.391 120.984ZM707.797 113.516V114.641H705.922V122H704.562V114.641H703.203V113.516H704.562V112.359C704.562 110.984 705.484 110.156 706.984 110.156C707.312 110.156 707.703 110.203 707.984 110.25V111.453C707.703 111.406 707.453 111.391 707.281 111.391C706.344 111.391 705.922 111.781 705.922 112.656V113.516H707.797ZM713.188 113.516V114.641H711.312V122H709.953V114.641H708.594V113.516H709.953V112.359C709.953 110.984 710.875 110.156 712.375 110.156C712.703 110.156 713.094 110.203 713.375 110.25V111.453C713.094 111.406 712.844 111.391 712.672 111.391C711.734 111.391 711.312 111.781 711.312 112.656V113.516H713.188ZM716.125 110.688V122H714.781V110.688H716.125ZM718.266 122V113.516H719.609V122H718.266ZM718.938 112.109C718.422 112.109 718 111.719 718 111.219C718 110.719 718.422 110.328 718.938 110.328C719.453 110.328 719.891 110.719 719.891 111.219C719.891 111.719 719.453 112.109 718.938 112.109ZM723.094 116.906V122H721.75V113.516H723.047V114.844H723.156C723.562 113.984 724.344 113.406 725.641 113.406C727.359 113.406 728.5 114.453 728.5 116.609V122H727.156V116.703C727.156 115.391 726.438 114.609 725.234 114.609C724 114.609 723.094 115.438 723.094 116.906ZM734.219 122.172C731.766 122.172 730.25 120.438 730.25 117.828C730.25 115.219 731.781 113.406 734.094 113.406C735.875 113.406 737.75 114.5 737.75 117.641V118.203H731.594C731.656 120 732.703 120.984 734.219 120.984C735.234 120.984 735.875 120.547 736.188 120.016H737.625C737.219 121.297 735.969 122.172 734.219 122.172ZM731.609 117.062H736.391C736.391 115.641 735.484 114.594 734.094 114.594C732.625 114.594 731.688 115.75 731.609 117.062ZM746.719 122.172C744.609 122.172 743.109 120.469 743.109 117.781C743.109 115.094 744.609 113.406 746.734 113.406C748.375 113.406 748.906 114.406 749.188 114.859H749.281V110.688H750.641V122H749.328V120.703H749.188C748.891 121.172 748.344 122.172 746.719 122.172ZM746.906 120.969C748.453 120.969 749.328 119.656 749.328 117.75C749.328 115.875 748.484 114.609 746.906 114.609C745.281 114.609 744.469 115.984 744.469 117.75C744.469 119.562 745.297 120.969 746.906 120.969ZM758.328 118.516V113.516H759.656V122H758.328V120.562H758.234C757.828 121.422 757 122.109 755.719 122.109C754.109 122.109 752.969 121.062 752.969 118.906V113.516H754.312V118.812C754.312 120.031 755.078 120.812 756.156 120.812C757.109 120.812 758.328 120.094 758.328 118.516ZM765.375 122.172C762.922 122.172 761.406 120.438 761.406 117.828C761.406 115.219 762.938 113.406 765.25 113.406C767.031 113.406 768.906 114.5 768.906 117.641V118.203H762.75C762.812 120 763.859 120.984 765.375 120.984C766.391 120.984 767.031 120.547 767.344 120.016H768.781C768.375 121.297 767.125 122.172 765.375 122.172ZM762.766 117.062H767.547C767.547 115.641 766.641 114.594 765.25 114.594C763.781 114.594 762.844 115.75 762.766 117.062ZM778.375 113.516V114.641H776.594V119.562C776.594 120.656 777.125 120.828 777.703 120.828C777.953 120.828 778.297 120.812 778.5 120.797V122.047C778.297 122.078 777.953 122.109 777.562 122.109C776.438 122.109 775.234 121.406 775.234 119.906V114.641H773.953V113.516H775.234V111.484H776.594V113.516H778.375ZM783.5 122.172C781.188 122.172 779.625 120.438 779.625 117.797C779.625 115.156 781.188 113.406 783.5 113.406C785.797 113.406 787.344 115.156 787.344 117.797C787.344 120.438 785.797 122.172 783.5 122.172ZM783.5 120.984C785.203 120.984 786 119.484 786 117.797C786 116.109 785.203 114.594 783.5 114.594C781.766 114.594 780.969 116.109 780.969 117.797C780.969 119.484 781.766 120.984 783.5 120.984ZM542.422 138.906V144H541.078V135.516H542.375V136.844H542.484C542.891 135.984 543.672 135.406 544.969 135.406C546.688 135.406 547.828 136.453 547.828 138.609V144H546.484V138.703C546.484 137.391 545.766 136.609 544.562 136.609C543.328 136.609 542.422 137.438 542.422 138.906ZM553.547 144.172C551.094 144.172 549.578 142.438 549.578 139.828C549.578 137.219 551.109 135.406 553.422 135.406C555.203 135.406 557.078 136.5 557.078 139.641V140.203H550.922C550.984 142 552.031 142.984 553.547 142.984C554.562 142.984 555.203 142.547 555.516 142.016H556.953C556.547 143.297 555.297 144.172 553.547 144.172ZM550.938 139.062H555.719C555.719 137.641 554.812 136.594 553.422 136.594C551.953 136.594 551.016 137.75 550.938 139.062ZM562.531 135.516V136.641H560.75V141.562C560.75 142.656 561.281 142.828 561.859 142.828C562.109 142.828 562.453 142.812 562.656 142.797V144.047C562.453 144.078 562.109 144.109 561.719 144.109C560.594 144.109 559.391 143.406 559.391 141.906V136.641H558.109V135.516H559.391V133.484H560.75V135.516H562.531ZM566.172 144L563.594 135.516H565.016L566.828 141.984H566.906L568.703 135.516H570.141L571.906 141.953H572L573.812 135.516H575.219L572.641 144H571.312L569.469 137.531H569.344L567.516 144H566.172ZM579.891 144.172C577.578 144.172 576.016 142.438 576.016 139.797C576.016 137.156 577.578 135.406 579.891 135.406C582.188 135.406 583.734 137.156 583.734 139.797C583.734 142.438 582.188 144.172 579.891 144.172ZM579.891 142.984C581.594 142.984 582.391 141.484 582.391 139.797C582.391 138.109 581.594 136.594 579.891 136.594C578.156 136.594 577.359 138.109 577.359 139.797C577.359 141.484 578.156 142.984 579.891 142.984ZM585.5 144V135.516H586.797V136.812H586.891C587.203 135.953 588.078 135.375 589.078 135.375C589.281 135.375 589.625 135.391 589.781 135.406V136.766C589.688 136.734 589.312 136.672 588.969 136.672C587.75 136.672 586.844 137.516 586.844 138.656V144H585.5ZM591.094 144V132.688H592.438V139.266H592.594L596.266 135.516H597.922L594.344 139.141L598.188 144H596.484L593.344 140L592.438 140.828V144H591.094ZM603.375 144V135.516H604.719V144H603.375ZM604.047 134.109C603.531 134.109 603.109 133.719 603.109 133.219C603.109 132.719 603.531 132.328 604.047 132.328C604.562 132.328 605 132.719 605 133.219C605 133.719 604.562 134.109 604.047 134.109ZM611.578 137.719C611.391 137.016 610.859 136.547 609.859 136.547C608.812 136.547 608.062 137.109 608.062 137.828C608.062 138.391 608.516 138.781 609.516 139.016L610.781 139.328C612.297 139.688 613.047 140.438 613.047 141.625C613.047 143.094 611.844 144.172 609.719 144.172C607.812 144.172 606.672 143.328 606.453 141.781H607.859C608.016 142.609 608.625 143 609.688 143C610.891 143 611.656 142.5 611.656 141.703C611.656 141.109 611.234 140.703 610.266 140.484L608.984 140.188C607.5 139.844 606.719 139.031 606.719 137.906C606.719 136.453 607.984 135.406 609.859 135.406C611.609 135.406 612.719 136.344 612.891 137.719H611.578ZM619.516 137.719C619.328 137.016 618.797 136.547 617.797 136.547C616.75 136.547 616 137.109 616 137.828C616 138.391 616.453 138.781 617.453 139.016L618.719 139.328C620.234 139.688 620.984 140.438 620.984 141.625C620.984 143.094 619.781 144.172 617.656 144.172C615.75 144.172 614.609 143.328 614.391 141.781H615.797C615.953 142.609 616.562 143 617.625 143C618.828 143 619.594 142.5 619.594 141.703C619.594 141.109 619.172 140.703 618.203 140.484L616.922 140.188C615.438 139.844 614.656 139.031 614.656 137.906C614.656 136.453 615.922 135.406 617.797 135.406C619.547 135.406 620.656 136.344 620.828 137.719H619.516ZM628.094 140.516V135.516H629.422V144H628.094V142.562H628C627.594 143.422 626.766 144.109 625.484 144.109C623.875 144.109 622.734 143.062 622.734 140.906V135.516H624.078V140.812C624.078 142.031 624.844 142.812 625.922 142.812C626.875 142.812 628.094 142.094 628.094 140.516ZM635.141 144.172C632.688 144.172 631.172 142.438 631.172 139.828C631.172 137.219 632.703 135.406 635.016 135.406C636.797 135.406 638.672 136.5 638.672 139.641V140.203H632.516C632.578 142 633.625 142.984 635.141 142.984C636.156 142.984 636.797 142.547 637.109 142.016H638.547C638.141 143.297 636.891 144.172 635.141 144.172ZM632.531 139.062H637.312C637.312 137.641 636.406 136.594 635.016 136.594C633.547 136.594 632.609 137.75 632.531 139.062ZM645.141 137.719C644.953 137.016 644.422 136.547 643.422 136.547C642.375 136.547 641.625 137.109 641.625 137.828C641.625 138.391 642.078 138.781 643.078 139.016L644.344 139.328C645.859 139.688 646.609 140.438 646.609 141.625C646.609 143.094 645.406 144.172 643.281 144.172C641.375 144.172 640.234 143.328 640.016 141.781H641.422C641.578 142.609 642.188 143 643.25 143C644.453 143 645.219 142.5 645.219 141.703C645.219 141.109 644.797 140.703 643.828 140.484L642.547 140.188C641.062 139.844 640.281 139.031 640.281 137.906C640.281 136.453 641.547 135.406 643.422 135.406C645.172 135.406 646.281 136.344 646.453 137.719H645.141ZM650.125 142.953L648.906 147.203H647.75L648.609 142.953H650.125ZM659.922 147.359C657.875 147.359 656.484 146.469 656.328 144.891H657.734C657.922 145.75 658.719 146.188 659.922 146.188C661.375 146.188 662.266 145.562 662.266 144.156V142.438H662.156C661.875 142.906 661.328 143.875 659.688 143.875C657.625 143.875 656.078 142.312 656.078 139.641C656.078 137.031 657.578 135.406 659.703 135.406C661.344 135.406 661.875 136.406 662.188 136.859H662.297V135.516H663.609V144.234C663.609 146.422 661.984 147.359 659.922 147.359ZM659.875 142.672C661.422 142.672 662.297 141.562 662.297 139.688C662.297 137.875 661.453 136.609 659.875 136.609C658.25 136.609 657.438 137.984 657.438 139.688C657.438 141.453 658.266 142.672 659.875 142.672ZM665.344 141.594C665.344 139.641 667.062 139.203 668.531 139.094C669.07 139.055 670.445 138.984 670.828 138.969V138.281C670.828 137.203 670.188 136.578 668.906 136.578C667.828 136.578 667.188 137.078 667 137.719H665.594C665.766 136.359 667.094 135.406 668.969 135.406C670.078 135.406 672.156 135.734 672.156 138.406V144H670.828V142.844H670.766C670.484 143.422 669.703 144.203 668.234 144.203C666.625 144.203 665.344 143.25 665.344 141.594ZM666.688 141.656C666.688 142.547 667.438 143 668.469 143C669.984 143 670.828 141.984 670.828 140.922V140.062L668.688 140.219C667.469 140.297 666.688 140.734 666.688 141.656ZM678.016 135.516V136.641H676.234V141.562C676.234 142.656 676.766 142.828 677.344 142.828C677.594 142.828 677.938 142.812 678.141 142.797V144.047C677.938 144.078 677.594 144.109 677.203 144.109C676.078 144.109 674.875 143.406 674.875 141.906V136.641H673.594V135.516H674.875V133.484H676.234V135.516H678.016ZM683.234 144.172C680.781 144.172 679.266 142.438 679.266 139.828C679.266 137.219 680.797 135.406 683.109 135.406C684.891 135.406 686.766 136.5 686.766 139.641V140.203H680.609C680.672 142 681.719 142.984 683.234 142.984C684.25 142.984 684.891 142.547 685.203 142.016H686.641C686.234 143.297 684.984 144.172 683.234 144.172ZM680.625 139.062H685.406C685.406 137.641 684.5 136.594 683.109 136.594C681.641 136.594 680.703 137.75 680.625 139.062ZM690.422 144L687.844 135.516H689.266L691.078 141.984H691.156L692.953 135.516H694.391L696.156 141.953H696.25L698.062 135.516H699.469L696.891 144H695.562L693.719 137.531H693.594L691.766 144H690.422ZM700.547 141.594C700.547 139.641 702.266 139.203 703.734 139.094C704.273 139.055 705.648 138.984 706.031 138.969V138.281C706.031 137.203 705.391 136.578 704.109 136.578C703.031 136.578 702.391 137.078 702.203 137.719H700.797C700.969 136.359 702.297 135.406 704.172 135.406C705.281 135.406 707.359 135.734 707.359 138.406V144H706.031V142.844H705.969C705.688 143.422 704.906 144.203 703.438 144.203C701.828 144.203 700.547 143.25 700.547 141.594ZM701.891 141.656C701.891 142.547 702.641 143 703.672 143C705.188 143 706.031 141.984 706.031 140.922V140.062L703.891 140.219C702.672 140.297 701.891 140.734 701.891 141.656ZM710.062 147.188C709.766 147.188 709.484 147.172 709.312 147.156V145.953C709.453 145.969 709.766 145.984 709.969 145.984C710.516 145.984 710.969 145.938 711.422 144.703L711.672 144.062L708.531 135.516H710L712.312 142.25H712.406L714.719 135.516H716.188L712.594 145.219C712.094 146.547 711.266 147.188 710.062 147.188ZM724.891 144.172C722.781 144.172 721.281 142.469 721.281 139.781C721.281 137.094 722.781 135.406 724.906 135.406C726.547 135.406 727.078 136.406 727.359 136.859H727.453V132.688H728.812V144H727.5V142.703H727.359C727.062 143.172 726.516 144.172 724.891 144.172ZM725.078 142.969C726.625 142.969 727.5 141.656 727.5 139.75C727.5 137.875 726.656 136.609 725.078 136.609C723.453 136.609 722.641 137.984 722.641 139.75C722.641 141.562 723.469 142.969 725.078 142.969ZM731.141 144V135.516H732.484V144H731.141ZM731.812 134.109C731.297 134.109 730.875 133.719 730.875 133.219C730.875 132.719 731.297 132.328 731.812 132.328C732.328 132.328 732.766 132.719 732.766 133.219C732.766 133.719 732.328 134.109 731.812 134.109ZM739.344 137.719C739.156 137.016 738.625 136.547 737.625 136.547C736.578 136.547 735.828 137.109 735.828 137.828C735.828 138.391 736.281 138.781 737.281 139.016L738.547 139.328C740.062 139.688 740.812 140.438 740.812 141.625C740.812 143.094 739.609 144.172 737.484 144.172C735.578 144.172 734.438 143.328 734.219 141.781H735.625C735.781 142.609 736.391 143 737.453 143C738.656 143 739.422 142.5 739.422 141.703C739.422 141.109 739 140.703 738.031 140.484L736.75 140.188C735.266 139.844 734.484 139.031 734.484 137.906C734.484 136.453 735.75 135.406 737.625 135.406C739.375 135.406 740.484 136.344 740.656 137.719H739.344ZM746.031 144.172C743.625 144.172 742.156 142.344 742.156 139.797C742.156 137.219 743.688 135.406 746 135.406C747.812 135.406 749.156 136.469 749.375 138.078H748.031C747.844 137.297 747.156 136.594 746.031 136.594C744.516 136.594 743.5 137.844 743.5 139.75C743.5 141.719 744.484 142.969 746.031 142.969C747.031 142.969 747.797 142.438 748.031 141.5H749.375C749.156 143.016 747.922 144.172 746.031 144.172ZM754.5 144.172C752.188 144.172 750.625 142.438 750.625 139.797C750.625 137.156 752.188 135.406 754.5 135.406C756.797 135.406 758.344 137.156 758.344 139.797C758.344 142.438 756.797 144.172 754.5 144.172ZM754.5 142.984C756.203 142.984 757 141.484 757 139.797C757 138.109 756.203 136.594 754.5 136.594C752.766 136.594 751.969 138.109 751.969 139.797C751.969 141.484 752.766 142.984 754.5 142.984ZM761.453 138.906V144H760.109V135.516H761.406V136.844H761.516C761.922 135.984 762.703 135.406 764 135.406C765.719 135.406 766.859 136.453 766.859 138.609V144H765.516V138.703C765.516 137.391 764.797 136.609 763.594 136.609C762.359 136.609 761.453 137.438 761.453 138.906ZM770.359 138.906V144H769.016V135.516H770.312V136.844H770.422C770.828 135.984 771.609 135.406 772.906 135.406C774.625 135.406 775.766 136.453 775.766 138.609V144H774.422V138.703C774.422 137.391 773.703 136.609 772.5 136.609C771.266 136.609 770.359 137.438 770.359 138.906ZM781.484 144.172C779.031 144.172 777.516 142.438 777.516 139.828C777.516 137.219 779.047 135.406 781.359 135.406C783.141 135.406 785.016 136.5 785.016 139.641V140.203H778.859C778.922 142 779.969 142.984 781.484 142.984C782.5 142.984 783.141 142.547 783.453 142.016H784.891C784.484 143.297 783.234 144.172 781.484 144.172ZM778.875 139.062H783.656C783.656 137.641 782.75 136.594 781.359 136.594C779.891 136.594 778.953 137.75 778.875 139.062ZM790.234 144.172C787.828 144.172 786.359 142.344 786.359 139.797C786.359 137.219 787.891 135.406 790.203 135.406C792.016 135.406 793.359 136.469 793.578 138.078H792.234C792.047 137.297 791.359 136.594 790.234 136.594C788.719 136.594 787.703 137.844 787.703 139.75C787.703 141.719 788.688 142.969 790.234 142.969C791.234 142.969 792 142.438 792.234 141.5H793.578C793.359 143.016 792.125 144.172 790.234 144.172ZM798.938 135.516V136.641H797.156V141.562C797.156 142.656 797.688 142.828 798.266 142.828C798.516 142.828 798.859 142.812 799.062 142.797V144.047C798.859 144.078 798.516 144.109 798.125 144.109C797 144.109 795.797 143.406 795.797 141.906V136.641H794.516V135.516H795.797V133.484H797.156V135.516H798.938ZM800.672 144V135.516H802.016V144H800.672ZM801.344 134.109C800.828 134.109 800.406 133.719 800.406 133.219C800.406 132.719 800.828 132.328 801.344 132.328C801.859 132.328 802.297 132.719 802.297 133.219C802.297 133.719 801.859 134.109 801.344 134.109ZM807.625 144.172C805.312 144.172 803.75 142.438 803.75 139.797C803.75 137.156 805.312 135.406 807.625 135.406C809.922 135.406 811.469 137.156 811.469 139.797C811.469 142.438 809.922 144.172 807.625 144.172ZM807.625 142.984C809.328 142.984 810.125 141.484 810.125 139.797C810.125 138.109 809.328 136.594 807.625 136.594C805.891 136.594 805.094 138.109 805.094 139.797C805.094 141.484 805.891 142.984 807.625 142.984ZM814.578 138.906V144H813.234V135.516H814.531V136.844H814.641C815.047 135.984 815.828 135.406 817.125 135.406C818.844 135.406 819.984 136.453 819.984 138.609V144H818.641V138.703C818.641 137.391 817.922 136.609 816.719 136.609C815.484 136.609 814.578 137.438 814.578 138.906ZM823.906 142.953L822.688 147.203H821.531L822.391 142.953H823.906ZM542.422 154.688V166H541.078V154.688H542.422ZM548.031 166.172C545.719 166.172 544.156 164.438 544.156 161.797C544.156 159.156 545.719 157.406 548.031 157.406C550.328 157.406 551.875 159.156 551.875 161.797C551.875 164.438 550.328 166.172 548.031 166.172ZM548.031 164.984C549.734 164.984 550.531 163.484 550.531 161.797C550.531 160.109 549.734 158.594 548.031 158.594C546.297 158.594 545.5 160.109 545.5 161.797C545.5 163.484 546.297 164.984 548.031 164.984ZM555.266 166L552.688 157.516H554.109L555.922 163.984H556L557.797 157.516H559.234L561 163.953H561.094L562.906 157.516H564.312L561.734 166H560.406L558.562 159.531H558.438L556.609 166H555.266ZM569.984 166V154.688H571.328V158.859H571.438C571.734 158.406 572.234 157.406 573.891 157.406C576.016 157.406 577.516 159.094 577.516 161.781C577.516 164.469 576.016 166.172 573.906 166.172C572.281 166.172 571.734 165.172 571.438 164.703H571.281V166H569.984ZM571.297 161.75C571.297 163.656 572.156 164.969 573.703 164.969C575.312 164.969 576.156 163.562 576.156 161.75C576.156 159.984 575.344 158.609 573.703 158.609C572.141 158.609 571.297 159.875 571.297 161.75ZM578.859 163.594C578.859 161.641 580.578 161.203 582.047 161.094C582.586 161.055 583.961 160.984 584.344 160.969V160.281C584.344 159.203 583.703 158.578 582.422 158.578C581.344 158.578 580.703 159.078 580.516 159.719H579.109C579.281 158.359 580.609 157.406 582.484 157.406C583.594 157.406 585.672 157.734 585.672 160.406V166H584.344V164.844H584.281C584 165.422 583.219 166.203 581.75 166.203C580.141 166.203 578.859 165.25 578.859 163.594ZM580.203 163.656C580.203 164.547 580.953 165 581.984 165C583.5 165 584.344 163.984 584.344 162.922V162.062L582.203 162.219C580.984 162.297 580.203 162.734 580.203 163.656ZM591.531 157.516V158.641H589.75V163.562C589.75 164.656 590.281 164.828 590.859 164.828C591.109 164.828 591.453 164.812 591.656 164.797V166.047C591.453 166.078 591.109 166.109 590.719 166.109C589.594 166.109 588.391 165.406 588.391 163.906V158.641H587.109V157.516H588.391V155.484H589.75V157.516H591.531ZM596.969 157.516V158.641H595.188V163.562C595.188 164.656 595.719 164.828 596.297 164.828C596.547 164.828 596.891 164.812 597.094 164.797V166.047C596.891 166.078 596.547 166.109 596.156 166.109C595.031 166.109 593.828 165.406 593.828 163.906V158.641H592.547V157.516H593.828V155.484H595.188V157.516H596.969ZM602.188 166.172C599.734 166.172 598.219 164.438 598.219 161.828C598.219 159.219 599.75 157.406 602.062 157.406C603.844 157.406 605.719 158.5 605.719 161.641V162.203H599.562C599.625 164 600.672 164.984 602.188 164.984C603.203 164.984 603.844 164.547 604.156 164.016H605.594C605.188 165.297 603.938 166.172 602.188 166.172ZM599.578 161.062H604.359C604.359 159.641 603.453 158.594 602.062 158.594C600.594 158.594 599.656 159.75 599.578 161.062ZM607.469 166V157.516H608.766V158.812H608.859C609.172 157.953 610.047 157.375 611.047 157.375C611.25 157.375 611.594 157.391 611.75 157.406V158.766C611.656 158.734 611.281 158.672 610.938 158.672C609.719 158.672 608.812 159.516 608.812 160.656V166H607.469ZM614.188 169.188C613.891 169.188 613.609 169.172 613.438 169.156V167.953C613.578 167.969 613.891 167.984 614.094 167.984C614.641 167.984 615.094 167.938 615.547 166.703L615.797 166.062L612.656 157.516H614.125L616.438 164.25H616.531L618.844 157.516H620.312L616.719 167.219C616.219 168.547 615.391 169.188 614.188 169.188ZM623.031 164.953L621.812 169.203H620.656L621.516 164.953H623.031ZM632.859 166.172C630.547 166.172 628.984 164.438 628.984 161.797C628.984 159.156 630.547 157.406 632.859 157.406C635.156 157.406 636.703 159.156 636.703 161.797C636.703 164.438 635.156 166.172 632.859 166.172ZM632.859 164.984C634.562 164.984 635.359 163.484 635.359 161.797C635.359 160.109 634.562 158.594 632.859 158.594C631.125 158.594 630.328 160.109 630.328 161.797C630.328 163.484 631.125 164.984 632.859 164.984ZM638.469 166V157.516H639.766V158.812H639.859C640.172 157.953 641.047 157.375 642.047 157.375C642.25 157.375 642.594 157.391 642.75 157.406V158.766C642.656 158.734 642.281 158.672 641.938 158.672C640.719 158.672 639.812 159.516 639.812 160.656V166H638.469ZM651.281 166.172C649.172 166.172 647.672 164.469 647.672 161.781C647.672 159.094 649.172 157.406 651.297 157.406C652.938 157.406 653.469 158.406 653.75 158.859H653.844V154.688H655.203V166H653.891V164.703H653.75C653.453 165.172 652.906 166.172 651.281 166.172ZM651.469 164.969C653.016 164.969 653.891 163.656 653.891 161.75C653.891 159.875 653.047 158.609 651.469 158.609C649.844 158.609 649.031 159.984 649.031 161.75C649.031 163.562 649.859 164.969 651.469 164.969ZM661.094 166.172C658.641 166.172 657.125 164.438 657.125 161.828C657.125 159.219 658.656 157.406 660.969 157.406C662.75 157.406 664.625 158.5 664.625 161.641V162.203H658.469C658.531 164 659.578 164.984 661.094 164.984C662.109 164.984 662.75 164.547 663.062 164.016H664.5C664.094 165.297 662.844 166.172 661.094 166.172ZM658.484 161.062H663.266C663.266 159.641 662.359 158.594 660.969 158.594C659.5 158.594 658.562 159.75 658.484 161.062ZM667.719 154.688V166H666.375V154.688H667.719ZM669.453 163.594C669.453 161.641 671.172 161.203 672.641 161.094C673.18 161.055 674.555 160.984 674.938 160.969V160.281C674.938 159.203 674.297 158.578 673.016 158.578C671.938 158.578 671.297 159.078 671.109 159.719H669.703C669.875 158.359 671.203 157.406 673.078 157.406C674.188 157.406 676.266 157.734 676.266 160.406V166H674.938V164.844H674.875C674.594 165.422 673.812 166.203 672.344 166.203C670.734 166.203 669.453 165.25 669.453 163.594ZM670.797 163.656C670.797 164.547 671.547 165 672.578 165C674.094 165 674.938 163.984 674.938 162.922V162.062L672.797 162.219C671.578 162.297 670.797 162.734 670.797 163.656ZM678.969 169.188C678.672 169.188 678.391 169.172 678.219 169.156V167.953C678.359 167.969 678.672 167.984 678.875 167.984C679.422 167.984 679.875 167.938 680.328 166.703L680.578 166.062L677.438 157.516H678.906L681.219 164.25H681.312L683.625 157.516H685.094L681.5 167.219C681 168.547 680.172 169.188 678.969 169.188ZM689.828 166.172C687.375 166.172 685.859 164.438 685.859 161.828C685.859 159.219 687.391 157.406 689.703 157.406C691.484 157.406 693.359 158.5 693.359 161.641V162.203H687.203C687.266 164 688.312 164.984 689.828 164.984C690.844 164.984 691.484 164.547 691.797 164.016H693.234C692.828 165.297 691.578 166.172 689.828 166.172ZM687.219 161.062H692C692 159.641 691.094 158.594 689.703 158.594C688.234 158.594 687.297 159.75 687.219 161.062ZM698.312 166.172C696.203 166.172 694.703 164.469 694.703 161.781C694.703 159.094 696.203 157.406 698.328 157.406C699.969 157.406 700.5 158.406 700.781 158.859H700.875V154.688H702.234V166H700.922V164.703H700.781C700.484 165.172 699.938 166.172 698.312 166.172ZM698.5 164.969C700.047 164.969 700.922 163.656 700.922 161.75C700.922 159.875 700.078 158.609 698.5 158.609C696.875 158.609 696.062 159.984 696.062 161.75C696.062 163.562 696.891 164.969 698.5 164.969ZM713.297 159.719C713.109 159.016 712.578 158.547 711.578 158.547C710.531 158.547 709.781 159.109 709.781 159.828C709.781 160.391 710.234 160.781 711.234 161.016L712.5 161.328C714.016 161.688 714.766 162.438 714.766 163.625C714.766 165.094 713.562 166.172 711.438 166.172C709.531 166.172 708.391 165.328 708.172 163.781H709.578C709.734 164.609 710.344 165 711.406 165C712.609 165 713.375 164.5 713.375 163.703C713.375 163.109 712.953 162.703 711.984 162.484L710.703 162.188C709.219 161.844 708.438 161.031 708.438 159.906C708.438 158.453 709.703 157.406 711.578 157.406C713.328 157.406 714.438 158.344 714.609 159.719H713.297ZM720.219 157.516V158.641H718.438V163.562C718.438 164.656 718.969 164.828 719.547 164.828C719.797 164.828 720.141 164.812 720.344 164.797V166.047C720.141 166.078 719.797 166.109 719.406 166.109C718.281 166.109 717.078 165.406 717.078 163.906V158.641H715.797V157.516H717.078V155.484H718.438V157.516H720.219ZM721.547 163.594C721.547 161.641 723.266 161.203 724.734 161.094C725.273 161.055 726.648 160.984 727.031 160.969V160.281C727.031 159.203 726.391 158.578 725.109 158.578C724.031 158.578 723.391 159.078 723.203 159.719H721.797C721.969 158.359 723.297 157.406 725.172 157.406C726.281 157.406 728.359 157.734 728.359 160.406V166H727.031V164.844H726.969C726.688 165.422 725.906 166.203 724.438 166.203C722.828 166.203 721.547 165.25 721.547 163.594ZM722.891 163.656C722.891 164.547 723.641 165 724.672 165C726.188 165 727.031 163.984 727.031 162.922V162.062L724.891 162.219C723.672 162.297 722.891 162.734 722.891 163.656ZM734.219 157.516V158.641H732.438V163.562C732.438 164.656 732.969 164.828 733.547 164.828C733.797 164.828 734.141 164.812 734.344 164.797V166.047C734.141 166.078 733.797 166.109 733.406 166.109C732.281 166.109 731.078 165.406 731.078 163.906V158.641H729.797V157.516H731.078V155.484H732.438V157.516H734.219ZM741.312 162.516V157.516H742.641V166H741.312V164.562H741.219C740.812 165.422 739.984 166.109 738.703 166.109C737.094 166.109 735.953 165.062 735.953 162.906V157.516H737.297V162.812C737.297 164.031 738.062 164.812 739.141 164.812C740.094 164.812 741.312 164.094 741.312 162.516ZM749.516 159.719C749.328 159.016 748.797 158.547 747.797 158.547C746.75 158.547 746 159.109 746 159.828C746 160.391 746.453 160.781 747.453 161.016L748.719 161.328C750.234 161.688 750.984 162.438 750.984 163.625C750.984 165.094 749.781 166.172 747.656 166.172C745.75 166.172 744.609 165.328 744.391 163.781H745.797C745.953 164.609 746.562 165 747.625 165C748.828 165 749.594 164.5 749.594 163.703C749.594 163.109 749.172 162.703 748.203 162.484L746.922 162.188C745.438 161.844 744.656 161.031 744.656 159.906C744.656 158.453 745.922 157.406 747.797 157.406C749.547 157.406 750.656 158.344 750.828 159.719H749.516ZM762.109 162.516V157.516H763.438V166H762.109V164.562H762.016C761.609 165.422 760.781 166.109 759.5 166.109C757.891 166.109 756.75 165.062 756.75 162.906V157.516H758.094V162.812C758.094 164.031 758.859 164.812 759.938 164.812C760.891 164.812 762.109 164.094 762.109 162.516ZM765.594 169.188V157.516H766.891V158.859H767.047C767.328 158.406 767.859 157.406 769.5 157.406C771.625 157.406 773.109 159.094 773.109 161.781C773.109 164.469 771.625 166.172 769.516 166.172C767.891 166.172 767.328 165.172 767.047 164.703H766.938V169.188H765.594ZM766.906 161.75C766.906 163.656 767.766 164.969 769.328 164.969C770.938 164.969 771.766 163.562 771.766 161.75C771.766 159.984 770.953 158.609 769.328 158.609C767.734 158.609 766.906 159.875 766.906 161.75ZM778.062 166.172C775.953 166.172 774.453 164.469 774.453 161.781C774.453 159.094 775.953 157.406 778.078 157.406C779.719 157.406 780.25 158.406 780.531 158.859H780.625V154.688H781.984V166H780.672V164.703H780.531C780.234 165.172 779.688 166.172 778.062 166.172ZM778.25 164.969C779.797 164.969 780.672 163.656 780.672 161.75C780.672 159.875 779.828 158.609 778.25 158.609C776.625 158.609 775.812 159.984 775.812 161.75C775.812 163.562 776.641 164.969 778.25 164.969ZM783.906 163.594C783.906 161.641 785.625 161.203 787.094 161.094C787.633 161.055 789.008 160.984 789.391 160.969V160.281C789.391 159.203 788.75 158.578 787.469 158.578C786.391 158.578 785.75 159.078 785.562 159.719H784.156C784.328 158.359 785.656 157.406 787.531 157.406C788.641 157.406 790.719 157.734 790.719 160.406V166H789.391V164.844H789.328C789.047 165.422 788.266 166.203 786.797 166.203C785.188 166.203 783.906 165.25 783.906 163.594ZM785.25 163.656C785.25 164.547 786 165 787.031 165C788.547 165 789.391 163.984 789.391 162.922V162.062L787.25 162.219C786.031 162.297 785.25 162.734 785.25 163.656ZM796.578 157.516V158.641H794.797V163.562C794.797 164.656 795.328 164.828 795.906 164.828C796.156 164.828 796.5 164.812 796.703 164.797V166.047C796.5 166.078 796.156 166.109 795.766 166.109C794.641 166.109 793.438 165.406 793.438 163.906V158.641H792.156V157.516H793.438V155.484H794.797V157.516H796.578ZM801.797 166.172C799.344 166.172 797.828 164.438 797.828 161.828C797.828 159.219 799.359 157.406 801.672 157.406C803.453 157.406 805.328 158.5 805.328 161.641V162.203H799.172C799.234 164 800.281 164.984 801.797 164.984C802.812 164.984 803.453 164.547 803.766 164.016H805.203C804.797 165.297 803.547 166.172 801.797 166.172ZM799.188 161.062H803.969C803.969 159.641 803.062 158.594 801.672 158.594C800.203 158.594 799.266 159.75 799.188 161.062ZM811.797 159.719C811.609 159.016 811.078 158.547 810.078 158.547C809.031 158.547 808.281 159.109 808.281 159.828C808.281 160.391 808.734 160.781 809.734 161.016L811 161.328C812.516 161.688 813.266 162.438 813.266 163.625C813.266 165.094 812.062 166.172 809.938 166.172C808.031 166.172 806.891 165.328 806.672 163.781H808.078C808.234 164.609 808.844 165 809.906 165C811.109 165 811.875 164.5 811.875 163.703C811.875 163.109 811.453 162.703 810.484 162.484L809.203 162.188C807.719 161.844 806.938 161.031 806.938 159.906C806.938 158.453 808.203 157.406 810.078 157.406C811.828 157.406 812.938 158.344 813.109 159.719H811.797ZM815.969 166.094C815.422 166.094 814.953 165.641 814.969 165.078C814.953 164.531 815.422 164.078 815.969 164.078C816.516 164.078 816.969 164.531 816.969 165.078C816.969 165.641 816.516 166.094 815.969 166.094Z" fill="var(--sol-element-secondary)"/>
<rect width="352" height="8" transform="translate(48 93)" fill="var(--sol-error)" fill-opacity="0.1"/>
<path d="M407 93V101" stroke="var(--sol-error-dim)"/>
<path d="M404 93H410" stroke="var(--sol-error-dim)"/>
<path d="M404 101H410" stroke="var(--sol-error-dim)"/>
<rect x="414" y="87" width="20" height="20" rx="3.5" fill="var(--sol-error-dim)"/>
<path d="M420.582 101.109C420.045 101.109 419.566 101.017 419.144 100.832C418.725 100.647 418.393 100.391 418.148 100.062C417.906 99.7318 417.776 99.349 417.758 98.9141H418.984C419 99.151 419.079 99.3568 419.222 99.5312C419.368 99.7031 419.558 99.8359 419.793 99.9297C420.027 100.023 420.287 100.07 420.574 100.07C420.889 100.07 421.168 100.016 421.41 99.9062C421.655 99.7969 421.846 99.6445 421.984 99.4492C422.122 99.2513 422.191 99.0234 422.191 98.7656C422.191 98.4974 422.122 98.2617 421.984 98.0586C421.849 97.8529 421.649 97.6914 421.386 97.5742C421.126 97.457 420.811 97.3984 420.441 97.3984H419.765V96.4141H420.441C420.738 96.4141 420.998 96.3607 421.222 96.2539C421.449 96.1471 421.626 95.9987 421.754 95.8086C421.881 95.6159 421.945 95.3906 421.945 95.1328C421.945 94.8854 421.889 94.6706 421.777 94.4883C421.668 94.3034 421.511 94.1589 421.308 94.0547C421.108 93.9505 420.871 93.8984 420.597 93.8984C420.337 93.8984 420.093 93.9466 419.867 94.043C419.643 94.1367 419.461 94.2721 419.32 94.4492C419.179 94.6237 419.104 94.8333 419.093 95.0781H417.925C417.938 94.6458 418.066 94.2656 418.308 93.9375C418.553 93.6094 418.876 93.3529 419.277 93.168C419.678 92.9831 420.123 92.8906 420.613 92.8906C421.126 92.8906 421.569 92.9909 421.941 93.1914C422.316 93.3893 422.605 93.6536 422.808 93.9844C423.014 94.3151 423.116 94.6771 423.113 95.0703C423.116 95.5182 422.991 95.8984 422.738 96.2109C422.488 96.5234 422.155 96.7331 421.738 96.8398V96.9023C422.269 96.9831 422.681 97.194 422.972 97.5352C423.267 97.8763 423.412 98.2995 423.41 98.8047C423.412 99.2448 423.29 99.6393 423.043 99.9883C422.798 100.337 422.463 100.612 422.039 100.812C421.614 101.01 421.129 101.109 420.582 101.109ZM424.996 101V100.125L427.703 97.3203C427.993 97.0156 428.231 96.7487 428.418 96.5195C428.608 96.2878 428.75 96.0677 428.844 95.8594C428.938 95.651 428.985 95.4297 428.985 95.1953C428.985 94.9297 428.922 94.7005 428.797 94.5078C428.672 94.3125 428.502 94.1628 428.285 94.0586C428.069 93.9518 427.826 93.8984 427.555 93.8984C427.269 93.8984 427.019 93.957 426.805 94.0742C426.591 94.1914 426.427 94.3568 426.313 94.5703C426.198 94.7839 426.141 95.0339 426.141 95.3203H424.989C424.989 94.8333 425.101 94.4076 425.325 94.043C425.548 93.6784 425.856 93.3958 426.246 93.1953C426.637 92.9922 427.081 92.8906 427.578 92.8906C428.081 92.8906 428.524 92.9909 428.907 93.1914C429.292 93.3893 429.593 93.6602 429.809 94.0039C430.025 94.3451 430.133 94.7305 430.133 95.1602C430.133 95.457 430.077 95.7474 429.965 96.0312C429.856 96.3151 429.664 96.6315 429.391 96.9805C429.118 97.3268 428.737 97.7474 428.25 98.2422L426.66 99.9062V99.9648H430.262V101H424.996Z" fill="var(--sol-surface)"/>
<rect width="352" height="12" transform="translate(500 93)" fill="var(--sol-error)" fill-opacity="0.1"/>
<path d="M859 93V105" stroke="var(--sol-error-dim)"/>
<path d="M856 93H862" stroke="var(--sol-error-dim)"/>
<path d="M856 105H862" stroke="var(--sol-error-dim)"/>
<rect x="866" y="89" width="19" height="20" rx="3.5" fill="var(--sol-error-dim)"/>
<path d="M873.277 95V103H872.066V96.2109H872.019L870.105 97.4609V96.3047L872.101 95H873.277ZM875.551 103V102.125L878.258 99.3203C878.547 99.0156 878.785 98.7487 878.973 98.5195C879.163 98.2878 879.305 98.0677 879.399 97.8594C879.493 97.651 879.539 97.4297 879.539 97.1953C879.539 96.9297 879.477 96.7005 879.352 96.5078C879.227 96.3125 879.056 96.1628 878.84 96.0586C878.624 95.9518 878.381 95.8984 878.11 95.8984C877.823 95.8984 877.573 95.957 877.36 96.0742C877.146 96.1914 876.982 96.3568 876.868 96.5703C876.753 96.7839 876.696 97.0339 876.696 97.3203H875.543C875.543 96.8333 875.655 96.4076 875.879 96.043C876.103 95.6784 876.41 95.3958 876.801 95.1953C877.192 94.9922 877.636 94.8906 878.133 94.8906C878.636 94.8906 879.078 94.9909 879.461 95.1914C879.847 95.3893 880.147 95.6602 880.364 96.0039C880.58 96.3451 880.688 96.7305 880.688 97.1602C880.688 97.457 880.632 97.7474 880.52 98.0312C880.41 98.3151 880.219 98.6315 879.946 98.9805C879.672 99.3268 879.292 99.7474 878.805 100.242L877.215 101.906V101.965H880.817V103H875.551Z" fill="var(--sol-surface)"/>
<rect width="352" height="24" transform="translate(48 141)" fill="var(--sol-error)" fill-opacity="0.1"/>
<path d="M407 141V165" stroke="var(--sol-error-dim)"/>
<path d="M404 141H410" stroke="var(--sol-error-dim)"/>
<path d="M404 165H410" stroke="var(--sol-error-dim)"/>
<rect x="414" y="143" width="20" height="20" rx="3.5" fill="var(--sol-error-dim)"/>
<path d="M420.582 157.109C420.045 157.109 419.566 157.017 419.144 156.832C418.725 156.647 418.393 156.391 418.148 156.062C417.906 155.732 417.776 155.349 417.758 154.914H418.984C419 155.151 419.079 155.357 419.222 155.531C419.368 155.703 419.558 155.836 419.793 155.93C420.027 156.023 420.287 156.07 420.574 156.07C420.889 156.07 421.168 156.016 421.41 155.906C421.655 155.797 421.846 155.645 421.984 155.449C422.122 155.251 422.191 155.023 422.191 154.766C422.191 154.497 422.122 154.262 421.984 154.059C421.849 153.853 421.649 153.691 421.386 153.574C421.126 153.457 420.811 153.398 420.441 153.398H419.765V152.414H420.441C420.738 152.414 420.998 152.361 421.222 152.254C421.449 152.147 421.626 151.999 421.754 151.809C421.881 151.616 421.945 151.391 421.945 151.133C421.945 150.885 421.889 150.671 421.777 150.488C421.668 150.303 421.511 150.159 421.308 150.055C421.108 149.951 420.871 149.898 420.597 149.898C420.337 149.898 420.093 149.947 419.867 150.043C419.643 150.137 419.461 150.272 419.32 150.449C419.179 150.624 419.104 150.833 419.093 151.078H417.925C417.938 150.646 418.066 150.266 418.308 149.937C418.553 149.609 418.876 149.353 419.277 149.168C419.678 148.983 420.123 148.891 420.613 148.891C421.126 148.891 421.569 148.991 421.941 149.191C422.316 149.389 422.605 149.654 422.808 149.984C423.014 150.315 423.116 150.677 423.113 151.07C423.116 151.518 422.991 151.898 422.738 152.211C422.488 152.523 422.155 152.733 421.738 152.84V152.902C422.269 152.983 422.681 153.194 422.972 153.535C423.267 153.876 423.412 154.299 423.41 154.805C423.412 155.245 423.29 155.639 423.043 155.988C422.798 156.337 422.463 156.612 422.039 156.812C421.614 157.01 421.129 157.109 420.582 157.109ZM424.996 157V156.125L427.703 153.32C427.993 153.016 428.231 152.749 428.418 152.52C428.608 152.288 428.75 152.068 428.844 151.859C428.938 151.651 428.985 151.43 428.985 151.195C428.985 150.93 428.922 150.701 428.797 150.508C428.672 150.313 428.502 150.163 428.285 150.059C428.069 149.952 427.826 149.898 427.555 149.898C427.269 149.898 427.019 149.957 426.805 150.074C426.591 150.191 426.427 150.357 426.313 150.57C426.198 150.784 426.141 151.034 426.141 151.32H424.989C424.989 150.833 425.101 150.408 425.325 150.043C425.548 149.678 425.856 149.396 426.246 149.195C426.637 148.992 427.081 148.891 427.578 148.891C428.081 148.891 428.524 148.991 428.907 149.191C429.292 149.389 429.593 149.66 429.809 150.004C430.025 150.345 430.133 150.73 430.133 151.16C430.133 151.457 430.077 151.747 429.965 152.031C429.856 152.315 429.664 152.632 429.391 152.98C429.118 153.327 428.737 153.747 428.25 154.242L426.66 155.906V155.965H430.262V157H424.996Z" fill="var(--sol-surface)"/>
<rect width="352" height="36" transform="translate(500.5 171)" fill="var(--sol-error)" fill-opacity="0.1"/>
<path d="M859.5 171V207" stroke="var(--sol-error-dim)"/>
<path d="M856.5 171H862.5" stroke="var(--sol-error-dim)"/>
<path d="M856.5 207H862.5" stroke="var(--sol-error-dim)"/>
<rect x="866.5" y="179" width="21" height="20" rx="3.5" fill="var(--sol-error-dim)"/>
<path d="M873.458 193.109C872.922 193.109 872.443 193.017 872.021 192.832C871.601 192.647 871.269 192.391 871.025 192.062C870.782 191.732 870.652 191.349 870.634 190.914H871.861C871.876 191.151 871.956 191.357 872.099 191.531C872.245 191.703 872.435 191.836 872.669 191.93C872.903 192.023 873.164 192.07 873.45 192.07C873.765 192.07 874.044 192.016 874.286 191.906C874.531 191.797 874.723 191.645 874.861 191.449C874.999 191.251 875.068 191.023 875.068 190.766C875.068 190.497 874.999 190.262 874.861 190.059C874.725 189.853 874.526 189.691 874.263 189.574C874.002 189.457 873.687 189.398 873.318 189.398H872.642V188.414H873.318C873.614 188.414 873.875 188.361 874.099 188.254C874.325 188.147 874.502 187.999 874.63 187.809C874.758 187.616 874.821 187.391 874.821 187.133C874.821 186.885 874.765 186.671 874.653 186.488C874.544 186.303 874.388 186.159 874.185 186.055C873.984 185.951 873.747 185.898 873.474 185.898C873.213 185.898 872.97 185.947 872.743 186.043C872.519 186.137 872.337 186.272 872.196 186.449C872.056 186.624 871.98 186.833 871.97 187.078H870.802C870.815 186.646 870.943 186.266 871.185 185.937C871.43 185.609 871.752 185.353 872.153 185.168C872.555 184.983 873 184.891 873.489 184.891C874.002 184.891 874.445 184.991 874.818 185.191C875.193 185.389 875.482 185.654 875.685 185.984C875.89 186.315 875.992 186.677 875.989 187.07C875.992 187.518 875.867 187.898 875.614 188.211C875.364 188.523 875.031 188.733 874.614 188.84V188.902C875.146 188.983 875.557 189.194 875.849 189.535C876.143 189.876 876.289 190.299 876.286 190.805C876.289 191.245 876.167 191.639 875.919 191.988C875.674 192.337 875.34 192.612 874.915 192.812C874.491 193.01 874.005 193.109 873.458 193.109ZM880.666 193.109C880.309 193.104 879.958 193.039 879.611 192.914C879.267 192.789 878.955 192.581 878.674 192.289C878.392 191.997 878.167 191.605 877.998 191.113C877.831 190.621 877.748 190.007 877.748 189.27C877.748 188.572 877.817 187.952 877.955 187.41C878.096 186.868 878.297 186.411 878.56 186.039C878.823 185.664 879.141 185.379 879.513 185.184C879.886 184.988 880.304 184.891 880.767 184.891C881.244 184.891 881.667 184.984 882.037 185.172C882.407 185.359 882.706 185.618 882.935 185.949C883.167 186.28 883.314 186.656 883.377 187.078H882.185C882.105 186.745 881.944 186.473 881.705 186.262C881.465 186.051 881.153 185.945 880.767 185.945C880.181 185.945 879.724 186.201 879.396 186.711C879.071 187.221 878.907 187.931 878.904 188.84H878.963C879.101 188.613 879.27 188.421 879.471 188.262C879.674 188.1 879.9 187.977 880.15 187.891C880.403 187.802 880.668 187.758 880.947 187.758C881.411 187.758 881.83 187.871 882.205 188.098C882.583 188.322 882.883 188.632 883.107 189.027C883.331 189.423 883.443 189.876 883.443 190.387C883.443 190.897 883.327 191.359 883.096 191.773C882.866 192.187 882.543 192.516 882.127 192.758C881.71 192.997 881.223 193.115 880.666 193.109ZM880.662 192.094C880.969 192.094 881.244 192.018 881.486 191.867C881.728 191.716 881.92 191.513 882.06 191.258C882.201 191.003 882.271 190.717 882.271 190.402C882.271 190.095 882.202 189.815 882.064 189.562C881.929 189.31 881.741 189.109 881.502 188.961C881.265 188.812 880.994 188.738 880.689 188.738C880.458 188.738 880.243 188.783 880.045 188.871C879.849 188.96 879.678 189.082 879.529 189.238C879.381 189.395 879.263 189.574 879.178 189.777C879.094 189.978 879.053 190.19 879.053 190.414C879.053 190.714 879.122 190.991 879.26 191.246C879.4 191.501 879.592 191.707 879.834 191.863C880.079 192.017 880.355 192.094 880.662 192.094Z" fill="var(--sol-surface)"/>
<rect width="40" height="73" transform="translate(48 92)" fill="var(--sol-error)" fill-opacity="0.1"/>
<path d="M48 172L88 172" stroke="var(--sol-error-dim)"/>
<path d="M48 175L48 169" stroke="var(--sol-error-dim)"/>
<path d="M88 175L88 169" stroke="var(--sol-error-dim)"/>
<rect x="57.5" y="179" width="21" height="20" rx="3.5" fill="var(--sol-error-dim)"/>
<path d="M61.3976 191.438L61.3976 190.461L64.8547 185L65.6242 185L65.6242 186.437L65.1359 186.437L62.6633 190.352L62.6633 190.414L67.4015 190.414L67.4015 191.438L61.3976 191.438ZM65.1906 193L65.1906 191.141L65.1984 190.695L65.1984 185L66.3429 185L66.3429 193L65.1906 193ZM71.658 193.133C71.0408 193.13 70.5135 192.967 70.076 192.645C69.6385 192.322 69.3039 191.852 69.0721 191.234C68.8403 190.617 68.7244 189.874 68.7244 189.004C68.7244 188.137 68.8403 187.396 69.0721 186.781C69.3065 186.167 69.6424 185.698 70.0799 185.375C70.52 185.052 71.046 184.891 71.658 184.891C72.27 184.891 72.7947 185.053 73.2322 185.379C73.6697 185.702 74.0044 186.171 74.2362 186.785C74.4705 187.397 74.5877 188.137 74.5877 189.004C74.5877 189.876 74.4718 190.621 74.2401 191.238C74.0083 191.853 73.6737 192.323 73.2362 192.648C72.7987 192.971 72.2726 193.133 71.658 193.133ZM71.658 192.09C72.1997 192.09 72.6229 191.826 72.9276 191.297C73.2349 190.768 73.3885 190.004 73.3885 189.004C73.3885 188.34 73.3182 187.779 73.1776 187.32C73.0395 186.859 72.8403 186.51 72.5799 186.273C72.3221 186.034 72.0148 185.914 71.658 185.914C71.119 185.914 70.6958 186.18 70.3885 186.711C70.0812 187.242 69.9263 188.007 69.9237 189.004C69.9237 189.671 69.9927 190.234 70.1307 190.695C70.2713 191.154 70.4705 191.501 70.7283 191.738C70.9862 191.973 71.296 192.09 71.658 192.09Z" fill="var(--sol-surface)"/>
<rect width="40" height="113" transform="translate(500 94)" fill="var(--sol-error)" fill-opacity="0.1"/>
<path d="M500 214L540 214" stroke="var(--sol-error-dim)"/>
<path d="M500 217L500 211" stroke="var(--sol-error-dim)"/>
<path d="M540 217L540 211" stroke="var(--sol-error-dim)"/>
<rect x="509.5" y="221" width="21" height="20" rx="3.5" fill="var(--sol-error-dim)"/>
<path d="M513.398 233.438L513.398 232.461L516.855 227L517.624 227L517.624 228.437L517.136 228.437L514.663 232.352L514.663 232.414L519.402 232.414L519.402 233.438L513.398 233.438ZM517.191 235L517.191 233.141L517.198 232.695L517.198 227L518.343 227L518.343 235L517.191 235ZM523.658 235.133C523.041 235.13 522.513 234.967 522.076 234.645C521.638 234.322 521.304 233.852 521.072 233.234C520.84 232.617 520.724 231.874 520.724 231.004C520.724 230.137 520.84 229.396 521.072 228.781C521.306 228.167 521.642 227.698 522.08 227.375C522.52 227.052 523.046 226.891 523.658 226.891C524.27 226.891 524.795 227.053 525.232 227.379C525.67 227.702 526.004 228.171 526.236 228.785C526.471 229.397 526.588 230.137 526.588 231.004C526.588 231.876 526.472 232.621 526.24 233.238C526.008 233.853 525.674 234.323 525.236 234.648C524.799 234.971 524.273 235.133 523.658 235.133ZM523.658 234.09C524.2 234.09 524.623 233.826 524.928 233.297C525.235 232.768 525.388 232.004 525.388 231.004C525.388 230.34 525.318 229.779 525.178 229.32C525.04 228.859 524.84 228.51 524.58 228.273C524.322 228.034 524.015 227.914 523.658 227.914C523.119 227.914 522.696 228.18 522.388 228.711C522.081 229.242 521.926 230.007 521.924 231.004C521.924 231.671 521.993 232.234 522.131 232.695C522.271 233.154 522.471 233.501 522.728 233.738C522.986 233.973 523.296 234.09 523.658 234.09Z" fill="var(--sol-surface)"/>
<rect width="16" height="73" transform="translate(384 92)" fill="var(--sol-error)" fill-opacity="0.1"/>
<path d="M384 172L400 172" stroke="var(--sol-error-dim)"/>
<path d="M384 175L384 169" stroke="var(--sol-error-dim)"/>
<path d="M400 175L400 169" stroke="var(--sol-error-dim)"/>
<rect x="382.5" y="179" width="19" height="20" rx="3.5" fill="var(--sol-error-dim)"/>
<path d="M389.653 185L389.653 193L388.443 193L388.443 186.211L388.396 186.211L386.482 187.461L386.482 186.305L388.478 185L389.653 185ZM394.721 193.109C394.364 193.104 394.012 193.039 393.666 192.914C393.322 192.789 393.01 192.581 392.728 192.289C392.447 191.997 392.222 191.605 392.053 191.113C391.886 190.621 391.803 190.007 391.803 189.27C391.803 188.572 391.872 187.952 392.01 187.41C392.15 186.868 392.352 186.411 392.615 186.039C392.878 185.664 393.196 185.379 393.568 185.184C393.941 184.988 394.359 184.891 394.822 184.891C395.299 184.891 395.722 184.984 396.092 185.172C396.461 185.359 396.761 185.618 396.99 185.949C397.222 186.28 397.369 186.656 397.431 187.078L396.24 187.078C396.159 186.745 395.999 186.473 395.76 186.262C395.52 186.051 395.208 185.945 394.822 185.945C394.236 185.945 393.779 186.201 393.451 186.711C393.125 187.221 392.961 187.931 392.959 188.84L393.017 188.84C393.155 188.613 393.325 188.421 393.525 188.262C393.728 188.1 393.955 187.977 394.205 187.891C394.458 187.802 394.723 187.758 395.002 187.758C395.465 187.758 395.885 187.871 396.26 188.098C396.637 188.322 396.938 188.632 397.162 189.027C397.386 189.423 397.498 189.876 397.498 190.387C397.498 190.897 397.382 191.359 397.15 191.773C396.921 192.187 396.598 192.516 396.181 192.758C395.765 192.997 395.278 193.115 394.721 193.109ZM394.717 192.094C395.024 192.094 395.299 192.018 395.541 191.867C395.783 191.716 395.974 191.513 396.115 191.258C396.256 191.003 396.326 190.717 396.326 190.402C396.326 190.095 396.257 189.815 396.119 189.562C395.984 189.31 395.796 189.109 395.556 188.961C395.319 188.812 395.049 188.738 394.744 188.738C394.512 188.738 394.297 188.783 394.099 188.871C393.904 188.96 393.732 189.082 393.584 189.238C393.435 189.395 393.318 189.574 393.232 189.777C393.149 189.978 393.107 190.19 393.107 190.414C393.107 190.714 393.176 190.991 393.314 191.246C393.455 191.501 393.646 191.707 393.888 191.863C394.133 192.017 394.409 192.094 394.717 192.094Z" fill="var(--sol-surface)"/>
<rect width="16" height="113" transform="translate(836 94)" fill="var(--sol-error)" fill-opacity="0.1"/>
<path d="M836 214L852 214" stroke="var(--sol-error-dim)"/>
<path d="M836 217L836 211" stroke="var(--sol-error-dim)"/>
<path d="M852 217L852 211" stroke="var(--sol-error-dim)"/>
<rect x="834.5" y="221" width="19" height="20" rx="3.5" fill="var(--sol-error-dim)"/>
<path d="M841.653 227L841.653 235L840.443 235L840.443 228.211L840.396 228.211L838.482 229.461L838.482 228.305L840.478 227L841.653 227ZM846.721 235.109C846.364 235.104 846.012 235.039 845.666 234.914C845.322 234.789 845.01 234.581 844.728 234.289C844.447 233.997 844.222 233.605 844.053 233.113C843.886 232.621 843.803 232.007 843.803 231.27C843.803 230.572 843.872 229.952 844.01 229.41C844.15 228.868 844.352 228.411 844.615 228.039C844.878 227.664 845.196 227.379 845.568 227.184C845.941 226.988 846.359 226.891 846.822 226.891C847.299 226.891 847.722 226.984 848.092 227.172C848.461 227.359 848.761 227.618 848.99 227.949C849.222 228.28 849.369 228.656 849.431 229.078L848.24 229.078C848.159 228.745 847.999 228.473 847.76 228.262C847.52 228.051 847.208 227.945 846.822 227.945C846.236 227.945 845.779 228.201 845.451 228.711C845.125 229.221 844.961 229.931 844.959 230.84L845.017 230.84C845.155 230.613 845.325 230.421 845.525 230.262C845.728 230.1 845.955 229.977 846.205 229.891C846.458 229.802 846.723 229.758 847.002 229.758C847.465 229.758 847.885 229.871 848.26 230.098C848.637 230.322 848.938 230.632 849.162 231.027C849.386 231.423 849.498 231.876 849.498 232.387C849.498 232.897 849.382 233.359 849.15 233.773C848.921 234.187 848.598 234.516 848.181 234.758C847.765 234.997 847.278 235.115 846.721 235.109ZM846.717 234.094C847.024 234.094 847.299 234.018 847.541 233.867C847.783 233.716 847.974 233.513 848.115 233.258C848.256 233.003 848.326 232.717 848.326 232.402C848.326 232.095 848.257 231.815 848.119 231.562C847.984 231.31 847.796 231.109 847.556 230.961C847.319 230.812 847.049 230.738 846.744 230.738C846.512 230.738 846.297 230.783 846.099 230.871C845.904 230.96 845.732 231.082 845.584 231.238C845.435 231.395 845.318 231.574 845.232 231.777C845.149 231.978 845.107 232.19 845.107 232.414C845.107 232.714 845.176 232.991 845.314 233.246C845.455 233.501 845.646 233.707 845.888 233.863C846.133 234.017 846.409 234.094 846.717 234.094Z" fill="var(--sol-surface)"/>
</svg>
