<svg width="442" height="220" viewBox="0 0 442 220" fill="none" xmlns="http://www.w3.org/2000/svg">
<style>
:root {
  --sol-element-primary: #161616;
  --sol-element-secondary: #484848;
  --sol-element-quaternary: #858585;
  --sol-element-brand-variant: #3a3480;
  --sol-primary: #282363;
  --sol-fill-active: #4d469a;
  --sol-surface: #ffffff;
  --sol-border-normal-variant: #ebebeb;
  --sol-border-solid-variant: #e0e0e0;
  --sol-error: #e76067;
  --sol-error-dim: #b84451;
  --sol-static-white: #ffffff;
  --sol-static-black: #000000;
  --color-green-500: #35a142;
  --color-yellow-500: #d4ae00;
}
@media (prefers-color-scheme: dark) {
  :root {
    --sol-element-primary: #ffffff;
    --sol-element-secondary: rgba(255, 255, 255, 0.8);
    --sol-element-quaternary: rgba(255, 255, 255, 0.5);
    --sol-element-brand-variant: #ffffff;
    --sol-primary: #9791d4;
    --sol-fill-active: #7b74c4;
    --sol-surface: #161616;
    --sol-border-normal-variant: rgba(255, 255, 255, 0.08);
    --sol-border-solid-variant: #3d3d3d;
    --sol-error: #ee7a80;
    --sol-error-dim: #e76067;
  }
}
</style>
<g clip-path="url(#clip0_1664_177528)">
<rect width="442" height="220" fill="var(--sol-surface)"/>
<rect width="410" height="67.3818" transform="translate(16 16)" fill="var(--sol-surface)"/>
<mask id="mask0_1664_177528" style="mask-type:alpha" maskUnits="userSpaceOnUse" x="27" y="25" width="12" height="12">
<path d="M35.59 30.1526L32.8263 32.9162C32.6914 33.0511 32.4728 33.0511 32.3379 32.9162L29.5742 30.1526L30.0627 29.6641L32.5821 32.1835L35.1015 29.6641L35.59 30.1526Z" fill="var(--sol-element-primary)"/>
</mask>
<g mask="url(#mask0_1664_177528)">
<rect x="27.0547" y="25.7637" width="11.0545" height="11.0545" fill="var(--sol-element-quaternary)"/>
</g>
<path d="M45.1386 34.291H43.8256L46.2344 27.4521H47.7457L50.1639 34.291H48.8509L48.2842 32.6002H45.7054L45.1386 34.291ZM46.036 31.6083H47.9536L47.0184 28.8501H46.9617L46.036 31.6083ZM53.0072 34.3949C51.4769 34.3949 50.5512 33.2992 50.5512 31.75C50.5512 30.182 51.5053 29.0957 53.0072 29.0957C54.254 29.0957 55.1231 29.823 55.2081 30.9282H54.0557C53.9612 30.437 53.6023 30.0592 53.0166 30.0592C52.2704 30.0592 51.7697 30.6921 51.7697 31.7217C51.7697 32.7797 52.2609 33.4125 53.0166 33.4125C53.555 33.4125 53.9518 33.1008 54.0557 32.5435H55.2081C55.1136 33.6298 54.2918 34.3949 53.0072 34.3949ZM58.3536 34.3949C56.8234 34.3949 55.8977 33.2992 55.8977 31.75C55.8977 30.182 56.8517 29.0957 58.3536 29.0957C59.6005 29.0957 60.4695 29.823 60.5545 30.9282H59.4021C59.3077 30.437 58.9487 30.0592 58.3631 30.0592C57.6168 30.0592 57.1162 30.6921 57.1162 31.7217C57.1162 32.7797 57.6074 33.4125 58.3631 33.4125C58.9015 33.4125 59.2982 33.1008 59.4021 32.5435H60.5545C60.4601 33.6298 59.6383 34.3949 58.3536 34.3949ZM63.7001 34.3949C62.2076 34.3949 61.2441 33.337 61.2441 31.75C61.2441 30.1537 62.2076 29.0957 63.7001 29.0957C65.202 29.0957 66.156 30.1537 66.156 31.75C66.156 33.337 65.202 34.3949 63.7001 34.3949ZM63.7095 33.4314C64.5313 33.4314 64.9375 32.6852 64.9375 31.7406C64.9375 30.8054 64.5313 30.0498 63.7095 30.0498C62.8688 30.0498 62.4626 30.8054 62.4626 31.7406C62.4626 32.6852 62.8688 33.4314 63.7095 33.4314ZM67.0912 34.291V29.1618H68.2625V30.012H68.3192C68.4987 29.4263 68.9993 29.0863 69.5849 29.0863C69.7172 29.0863 69.9061 29.0957 70.0195 29.1146V30.2292C69.9156 30.1914 69.6605 30.1537 69.4621 30.1537C68.7915 30.1537 68.3003 30.6165 68.3003 31.2683V34.291H67.0912ZM72.4849 34.3855C71.2758 34.3855 70.369 33.422 70.369 31.7311C70.369 30.0214 71.3041 29.0957 72.4943 29.0957C73.4011 29.0957 73.779 29.6341 73.9585 30.0025H74.0057V27.4521H75.2053V34.291H74.0246V33.4787H73.9585C73.7695 33.8565 73.3728 34.3855 72.4849 34.3855ZM72.8155 33.3936C73.5901 33.3936 74.034 32.723 74.034 31.7217C74.034 30.7299 73.5995 30.0781 72.8155 30.0781C72.0126 30.0781 71.5969 30.7676 71.5969 31.7217C71.5969 32.6946 72.022 33.3936 72.8155 33.3936ZM76.4239 34.291V29.1618H77.633V34.291H76.4239ZM77.0379 28.4345C76.66 28.4345 76.3388 28.1417 76.3388 27.7733C76.3388 27.4143 76.66 27.1215 77.0379 27.1215C77.4251 27.1215 77.7369 27.4143 77.7369 27.7733C77.7369 28.1417 77.4251 28.4345 77.0379 28.4345ZM81.0241 34.3949C79.5316 34.3949 78.5681 33.337 78.5681 31.75C78.5681 30.1537 79.5316 29.0957 81.0241 29.0957C82.526 29.0957 83.48 30.1537 83.48 31.75C83.48 33.337 82.526 34.3949 81.0241 34.3949ZM81.0335 33.4314C81.8553 33.4314 82.2615 32.6852 82.2615 31.7406C82.2615 30.8054 81.8553 30.0498 81.0335 30.0498C80.1928 30.0498 79.7866 30.8054 79.7866 31.7406C79.7866 32.6852 80.1928 33.4314 81.0335 33.4314ZM85.6243 31.2872V34.291H84.4152V29.1618H85.5676V30.0309H85.6337C85.8699 29.4547 86.3894 29.0957 87.1545 29.0957C88.2219 29.0957 88.921 29.7947 88.9115 31.0227V34.291H87.7119V31.2116C87.7119 30.5221 87.3435 30.1159 86.7106 30.1159C86.0683 30.1159 85.6243 30.5409 85.6243 31.2872ZM94.9192 29.1618V30.0875H93.9085V32.7513C93.9085 33.2425 94.1541 33.3464 94.4563 33.3464C94.598 33.3464 94.8342 33.337 94.9853 33.3275V34.3099C94.8436 34.3382 94.6075 34.3571 94.3052 34.3571C93.3984 34.3571 92.6994 33.9132 92.7088 32.9497V30.0875H91.972V29.1618H92.7088V27.9338H93.9085V29.1618H94.9192ZM95.8449 34.291V29.1618H97.054V34.291H95.8449ZM96.4589 28.4345C96.081 28.4345 95.7599 28.1417 95.7599 27.7733C95.7599 27.4143 96.081 27.1215 96.4589 27.1215C96.8462 27.1215 97.1579 27.4143 97.1579 27.7733C97.1579 28.1417 96.8462 28.4345 96.4589 28.4345ZM100.766 29.1618V30.0875H99.7555V32.7513C99.7555 33.2425 100.001 33.3464 100.303 33.3464C100.445 33.3464 100.681 33.337 100.832 33.3275V34.3099C100.691 34.3382 100.455 34.3571 100.152 34.3571C99.2455 34.3571 98.5465 33.9132 98.5559 32.9497V30.0875H97.8191V29.1618H98.5559V27.9338H99.7555V29.1618H100.766ZM103.014 27.4521V34.291H101.805V27.4521H103.014ZM106.443 34.3949C104.894 34.3949 103.95 33.3653 103.95 31.7595C103.95 30.1725 104.913 29.0957 106.377 29.0957C107.634 29.0957 108.72 29.8797 108.72 31.6839V32.0618H105.14C105.154 32.9355 105.669 33.4503 106.453 33.4503C106.982 33.4503 107.341 33.2236 107.492 32.9213H108.673C108.455 33.8093 107.634 34.3949 106.443 34.3949ZM105.149 31.24H107.567C107.558 30.5409 107.095 30.0309 106.396 30.0309C105.669 30.0309 105.187 30.5835 105.149 31.24Z" fill="var(--sol-element-brand-variant)"/>
<rect width="410" height="0.690891" transform="translate(16 46.582)" fill="var(--sol-border-normal-variant)"/>
<rect width="410" height="36.1091" transform="translate(16 47.2734)" fill="var(--sol-element-primary)" fill-opacity="0.04"/>
<path d="M49.0587 58.1156C48.8604 57.171 48.048 56.6609 47.1506 56.6609C45.9132 56.6609 44.9497 57.6149 44.9497 59.3813C44.9497 61.1477 45.9132 62.1018 47.1506 62.1018C48.048 62.1018 48.8509 61.5917 49.0587 60.6565H49.9089C49.6633 62.0545 48.5392 62.8952 47.1506 62.8952C45.3937 62.8952 44.1279 61.5445 44.1279 59.3813C44.1279 57.2182 45.3937 55.8674 47.1506 55.8674C48.5298 55.8674 49.6538 56.6987 49.9089 58.1156H49.0587ZM53.0922 62.9047C51.6942 62.9047 50.7496 61.8562 50.7496 60.2598C50.7496 58.6634 51.6942 57.6055 53.0922 57.6055C54.4808 57.6055 55.4159 58.6634 55.4159 60.2598C55.4159 61.8562 54.4808 62.9047 53.0922 62.9047ZM53.0922 62.1868C54.1218 62.1868 54.6036 61.28 54.6036 60.2598C54.6036 59.2396 54.1218 58.3234 53.0922 58.3234C52.0437 58.3234 51.5619 59.2396 51.5619 60.2598C51.5619 61.28 52.0437 62.1868 53.0922 62.1868ZM57.2957 59.7214V62.8008H56.4833V57.6716H57.2673V58.4745H57.3335C57.579 57.955 58.0513 57.6055 58.8354 57.6055C59.8744 57.6055 60.564 58.2384 60.564 59.5419V62.8008H59.7516V59.5986C59.7516 58.8051 59.3171 58.3328 58.5898 58.3328C57.8435 58.3328 57.2957 58.8335 57.2957 59.7214ZM64.1062 57.6716V58.3517H63.0294V61.3272C63.0294 61.9884 63.3506 62.0923 63.7001 62.0923C63.8512 62.0923 64.059 62.0829 64.1818 62.0734V62.8291C64.059 62.848 63.8512 62.8669 63.6151 62.8669C62.9349 62.8669 62.2076 62.4418 62.2076 61.535V58.3517H61.433V57.6716H62.2076V56.4436H63.0294V57.6716H64.1062ZM67.2612 62.9047C65.7782 62.9047 64.8619 61.8562 64.8619 60.2787C64.8619 58.7012 65.7876 57.6055 67.1857 57.6055C68.2625 57.6055 69.396 58.2667 69.396 60.1653V60.5054H65.6743C65.7121 61.5917 66.345 62.1868 67.2612 62.1868C67.8752 62.1868 68.2625 61.9223 68.4514 61.6011H69.3205C69.0749 62.3757 68.3192 62.9047 67.2612 62.9047ZM65.6837 59.8158H68.5742C68.5742 58.9562 68.0264 58.3234 67.1857 58.3234C66.2977 58.3234 65.731 59.0224 65.6837 59.8158ZM71.2663 59.7214V62.8008H70.454V57.6716H71.238V58.4745H71.3041C71.5497 57.955 72.022 57.6055 72.806 57.6055C73.8451 57.6055 74.5347 58.2384 74.5347 59.5419V62.8008H73.7223V59.5986C73.7223 58.8051 73.2878 58.3328 72.5604 58.3328C71.8142 58.3328 71.2663 58.8335 71.2663 59.7214ZM78.0769 57.6716V58.3517H77.0001V61.3272C77.0001 61.9884 77.3212 62.0923 77.6707 62.0923C77.8219 62.0923 78.0297 62.0829 78.1525 62.0734V62.8291C78.0297 62.848 77.8219 62.8669 77.5857 62.8669C76.9056 62.8669 76.1783 62.4418 76.1783 61.535V58.3517H75.4037V57.6716H76.1783V56.4436H77.0001V57.6716H78.0769ZM81.657 62.8008V55.9619H82.4693V58.4839H82.5354C82.7149 58.21 83.0172 57.6055 84.0185 57.6055C85.3031 57.6055 86.2099 58.6256 86.2099 60.2504C86.2099 61.8751 85.3031 62.9047 84.0279 62.9047C83.0455 62.9047 82.7149 62.3001 82.5354 62.0168H82.441V62.8008H81.657ZM82.4504 60.2315C82.4504 61.3839 82.97 62.1773 83.9051 62.1773C84.8781 62.1773 85.3881 61.3272 85.3881 60.2315C85.3881 59.1641 84.8969 58.3328 83.9051 58.3328C82.9605 58.3328 82.4504 59.0979 82.4504 60.2315ZM89.3649 62.9047C87.9669 62.9047 87.0223 61.8562 87.0223 60.2598C87.0223 58.6634 87.9669 57.6055 89.3649 57.6055C90.7535 57.6055 91.6886 58.6634 91.6886 60.2598C91.6886 61.8562 90.7535 62.9047 89.3649 62.9047ZM89.3649 62.1868C90.3945 62.1868 90.8763 61.28 90.8763 60.2598C90.8763 59.2396 90.3945 58.3234 89.3649 58.3234C88.3164 58.3234 87.8347 59.2396 87.8347 60.2598C87.8347 61.28 88.3164 62.1868 89.3649 62.1868ZM94.6925 62.9047C93.4173 62.9047 92.5104 61.8751 92.5104 60.2504C92.5104 58.6256 93.4173 57.6055 94.7019 57.6055C95.6938 57.6055 96.0149 58.21 96.1849 58.4839H96.2416V55.9619H97.0634V62.8008H96.27V62.0168H96.1849C96.0055 62.3001 95.6749 62.9047 94.6925 62.9047ZM94.8058 62.1773C95.741 62.1773 96.27 61.3839 96.27 60.2315C96.27 59.0979 95.7599 58.3328 94.8058 58.3328C93.8234 58.3328 93.3322 59.1641 93.3322 60.2315C93.3322 61.3272 93.8329 62.1773 94.8058 62.1773ZM98.9904 64.7278C98.8109 64.7278 98.6409 64.7183 98.537 64.7089V63.9815C98.622 63.991 98.8109 64.0004 98.9337 64.0004C99.2643 64.0004 99.5383 63.9721 99.8122 63.2259L99.9634 62.8386L98.0647 57.6716H98.9526L100.351 61.7428H100.407L101.805 57.6716H102.693L100.521 63.5376C100.218 64.3405 99.7178 64.7278 98.9904 64.7278ZM108.257 57.6716V58.3517H107.18V61.3272C107.18 61.9884 107.501 62.0923 107.851 62.0923C108.002 62.0923 108.21 62.0829 108.333 62.0734V62.8291C108.21 62.848 108.002 62.8669 107.766 62.8669C107.086 62.8669 106.358 62.4418 106.358 61.535V58.3517H105.584V57.6716H106.358V56.4436H107.18V57.6716H108.257ZM111.412 62.9047C109.929 62.9047 109.013 61.8562 109.013 60.2787C109.013 58.7012 109.938 57.6055 111.336 57.6055C112.413 57.6055 113.547 58.2667 113.547 60.1653V60.5054H109.825C109.863 61.5917 110.496 62.1868 111.412 62.1868C112.026 62.1868 112.413 61.9223 112.602 61.6011H113.471C113.226 62.3757 112.47 62.9047 111.412 62.9047ZM109.834 59.8158H112.725C112.725 58.9562 112.177 58.3234 111.336 58.3234C110.448 58.3234 109.882 59.0224 109.834 59.8158ZM115.086 57.6716L116.296 59.7592L117.514 57.6716H118.449L116.796 60.2315L118.449 62.8008H117.524L116.296 60.8171L115.086 62.8008H114.151L115.767 60.2315L114.151 57.6716H115.086ZM121.67 57.6716V58.3517H120.593V61.3272C120.593 61.9884 120.915 62.0923 121.264 62.0923C121.415 62.0923 121.623 62.0829 121.746 62.0734V62.8291C121.623 62.848 121.415 62.8669 121.179 62.8669C120.499 62.8669 119.772 62.4418 119.772 61.535V58.3517H118.997V57.6716H119.772V56.4436H120.593V57.6716H121.67Z" fill="var(--sol-element-secondary)"/>
<rect width="410" height="31.2727" transform="translate(16 83.3809)" fill="var(--sol-surface)"/>
<mask id="mask1_1664_177528" style="mask-type:alpha" maskUnits="userSpaceOnUse" x="27" y="93" width="12" height="12">
<path d="M34.2082 98.4277C34.3431 98.5626 34.3431 98.7813 34.2082 98.9162L31.4445 101.68L30.9561 101.191L33.4754 98.6719L30.9561 96.1526L31.4445 95.6641L34.2082 98.4277Z" fill="var(--sol-element-primary)"/>
</mask>
<g mask="url(#mask1_1664_177528)">
<rect x="27.0547" y="93.1445" width="11.0545" height="11.0545" fill="var(--sol-element-quaternary)"/>
</g>
<path d="M44.6947 101.672H43.8067L46.3099 94.833H47.2073L49.7105 101.672H48.8131L48.133 99.7449H45.3842L44.6947 101.672ZM45.6393 98.9987H47.8685L46.7822 95.9381H46.7256L45.6393 98.9987ZM52.6199 101.776C51.1652 101.776 50.2773 100.671 50.2773 99.1309C50.2773 97.5723 51.203 96.4766 52.601 96.4766C53.6967 96.4766 54.5091 97.1189 54.6413 98.0918H53.829C53.7156 97.6195 53.3 97.1945 52.6199 97.1945C51.7036 97.1945 51.0896 97.9501 51.0896 99.1026C51.0896 100.293 51.6847 101.048 52.6199 101.048C53.2244 101.048 53.6873 100.727 53.829 100.161H54.6413C54.5091 101.077 53.7629 101.776 52.6199 101.776ZM57.7396 101.776C56.2849 101.776 55.397 100.671 55.397 99.1309C55.397 97.5723 56.3227 96.4766 57.7207 96.4766C58.8165 96.4766 59.6288 97.1189 59.7611 98.0918H58.9487C58.8354 97.6195 58.4197 97.1945 57.7396 97.1945C56.8234 97.1945 56.2094 97.9501 56.2094 99.1026C56.2094 100.293 56.8045 101.048 57.7396 101.048C58.3442 101.048 58.807 100.727 58.9487 100.161H59.7611C59.6288 101.077 58.8826 101.776 57.7396 101.776ZM62.8594 101.776C61.4614 101.776 60.5168 100.727 60.5168 99.1309C60.5168 97.5345 61.4614 96.4766 62.8594 96.4766C64.2479 96.4766 65.1831 97.5345 65.1831 99.1309C65.1831 100.727 64.2479 101.776 62.8594 101.776ZM62.8594 101.058C63.889 101.058 64.3707 100.151 64.3707 99.1309C64.3707 98.1107 63.889 97.1945 62.8594 97.1945C61.8109 97.1945 61.3291 98.1107 61.3291 99.1309C61.3291 100.151 61.8109 101.058 62.8594 101.058ZM66.2505 101.672V96.5427H67.0345V97.3267H67.0912C67.2801 96.8072 67.8091 96.4577 68.4136 96.4577C68.5364 96.4577 68.7442 96.4671 68.8387 96.4766V97.2984C68.782 97.2795 68.5553 97.2417 68.3475 97.2417C67.6107 97.2417 67.0629 97.7518 67.0629 98.4413V101.672H66.2505ZM71.408 101.776C70.1328 101.776 69.226 100.746 69.226 99.1214C69.226 97.4967 70.1328 96.4766 71.4175 96.4766C72.4093 96.4766 72.7305 97.0811 72.9005 97.355H72.9572V94.833H73.779V101.672H72.9855V100.888H72.9005C72.721 101.171 72.3904 101.776 71.408 101.776ZM71.5214 101.048C72.4565 101.048 72.9855 100.255 72.9855 99.1026C72.9855 97.969 72.4754 97.2039 71.5214 97.2039C70.539 97.2039 70.0478 98.0352 70.0478 99.1026C70.0478 100.198 70.5484 101.048 71.5214 101.048ZM75.1864 101.672V96.5427H75.9988V101.672H75.1864ZM75.5926 95.6925C75.2809 95.6925 75.0259 95.4564 75.0259 95.1541C75.0259 94.8518 75.2809 94.6157 75.5926 94.6157C75.9043 94.6157 76.1688 94.8518 76.1688 95.1541C76.1688 95.4564 75.9043 95.6925 75.5926 95.6925ZM79.3899 101.776C77.9919 101.776 77.0473 100.727 77.0473 99.1309C77.0473 97.5345 77.9919 96.4766 79.3899 96.4766C80.7785 96.4766 81.7136 97.5345 81.7136 99.1309C81.7136 100.727 80.7785 101.776 79.3899 101.776ZM79.3899 101.058C80.4195 101.058 80.9013 100.151 80.9013 99.1309C80.9013 98.1107 80.4195 97.1945 79.3899 97.1945C78.3414 97.1945 77.8597 98.1107 77.8597 99.1309C77.8597 100.151 78.3414 101.058 79.3899 101.058ZM83.5934 98.5925V101.672H82.781V96.5427H83.5651V97.3456H83.6312C83.8768 96.8261 84.3491 96.4766 85.1331 96.4766C86.1722 96.4766 86.8617 97.1094 86.8617 98.413V101.672H86.0494V98.4697C86.0494 97.6762 85.6148 97.2039 84.8875 97.2039C84.1413 97.2039 83.5934 97.7045 83.5934 98.5925ZM92.8316 96.5427V97.2228H91.7548V100.198C91.7548 100.86 92.0759 100.963 92.4254 100.963C92.5766 100.963 92.7844 100.954 92.9072 100.945V101.7C92.7844 101.719 92.5766 101.738 92.3404 101.738C91.6603 101.738 90.933 101.313 90.933 100.406V97.2228H90.1584V96.5427H90.933V95.3147H91.7548V96.5427H92.8316ZM93.8801 101.672V96.5427H94.6925V101.672H93.8801ZM94.2863 95.6925C93.9746 95.6925 93.7195 95.4564 93.7195 95.1541C93.7195 94.8518 93.9746 94.6157 94.2863 94.6157C94.598 94.6157 94.8625 94.8518 94.8625 95.1541C94.8625 95.4564 94.598 95.6925 94.2863 95.6925ZM98.2253 96.5427V97.2228H97.1484V100.198C97.1484 100.86 97.4696 100.963 97.8191 100.963C97.9702 100.963 98.1781 100.954 98.3009 100.945V101.7C98.1781 101.719 97.9702 101.738 97.7341 101.738C97.054 101.738 96.3266 101.313 96.3266 100.406V97.2228H95.5521V96.5427H96.3266V95.3147H97.1484V96.5427H98.2253ZM100.2 94.833V101.672H99.3871V94.833H100.2ZM103.647 101.776C102.164 101.776 101.248 100.727 101.248 99.1498C101.248 97.5723 102.174 96.4766 103.572 96.4766C104.649 96.4766 105.782 97.1378 105.782 99.0364V99.3765H102.06C102.098 100.463 102.731 101.058 103.647 101.058C104.261 101.058 104.649 100.793 104.837 100.472H105.707C105.461 101.247 104.705 101.776 103.647 101.776ZM102.07 98.6869H104.96C104.96 97.8273 104.412 97.1945 103.572 97.1945C102.684 97.1945 102.117 97.8935 102.07 98.6869Z" fill="var(--sol-element-primary)"/>
<rect width="410" height="0.690891" transform="translate(16 113.963)" fill="var(--sol-border-normal-variant)"/>
<rect width="410" height="31.2727" transform="translate(16 114.654)" fill="var(--sol-surface)"/>
<mask id="mask2_1664_177528" style="mask-type:alpha" maskUnits="userSpaceOnUse" x="27" y="124" width="12" height="12">
<path d="M34.2082 129.701C34.3431 129.836 34.3431 130.055 34.2082 130.19L31.4445 132.953L30.9561 132.465L33.4754 129.945L30.9561 127.426L31.4445 126.938L34.2082 129.701Z" fill="var(--sol-element-primary)"/>
</mask>
<g mask="url(#mask2_1664_177528)">
<rect x="27.0547" y="124.418" width="11.0545" height="11.0545" fill="var(--sol-element-quaternary)"/>
</g>
<path d="M44.6947 132.945H43.8067L46.3099 126.106H47.2073L49.7105 132.945H48.8131L48.133 131.018H45.3842L44.6947 132.945ZM45.6393 130.272H47.8685L46.7822 127.212H46.7256L45.6393 130.272ZM52.6199 133.049C51.1652 133.049 50.2773 131.944 50.2773 130.404C50.2773 128.846 51.203 127.75 52.601 127.75C53.6967 127.75 54.5091 128.392 54.6413 129.365H53.829C53.7156 128.893 53.3 128.468 52.6199 128.468C51.7036 128.468 51.0896 129.224 51.0896 130.376C51.0896 131.566 51.6847 132.322 52.6199 132.322C53.2244 132.322 53.6873 132.001 53.829 131.434H54.6413C54.5091 132.35 53.7629 133.049 52.6199 133.049ZM57.7396 133.049C56.2849 133.049 55.397 131.944 55.397 130.404C55.397 128.846 56.3227 127.75 57.7207 127.75C58.8165 127.75 59.6288 128.392 59.7611 129.365H58.9487C58.8354 128.893 58.4197 128.468 57.7396 128.468C56.8234 128.468 56.2094 129.224 56.2094 130.376C56.2094 131.566 56.8045 132.322 57.7396 132.322C58.3442 132.322 58.807 132.001 58.9487 131.434H59.7611C59.6288 132.35 58.8826 133.049 57.7396 133.049ZM62.8594 133.049C61.4614 133.049 60.5168 132.001 60.5168 130.404C60.5168 128.808 61.4614 127.75 62.8594 127.75C64.2479 127.75 65.1831 128.808 65.1831 130.404C65.1831 132.001 64.2479 133.049 62.8594 133.049ZM62.8594 132.331C63.889 132.331 64.3707 131.425 64.3707 130.404C64.3707 129.384 63.889 128.468 62.8594 128.468C61.8109 128.468 61.3291 129.384 61.3291 130.404C61.3291 131.425 61.8109 132.331 62.8594 132.331ZM66.2505 132.945V127.816H67.0345V128.6H67.0912C67.2801 128.081 67.8091 127.731 68.4136 127.731C68.5364 127.731 68.7442 127.741 68.8387 127.75V128.572C68.782 128.553 68.5553 128.515 68.3475 128.515C67.6107 128.515 67.0629 129.025 67.0629 129.715V132.945H66.2505ZM71.408 133.049C70.1328 133.049 69.226 132.02 69.226 130.395C69.226 128.77 70.1328 127.75 71.4175 127.75C72.4093 127.75 72.7305 128.355 72.9005 128.628H72.9572V126.106H73.779V132.945H72.9855V132.161H72.9005C72.721 132.445 72.3904 133.049 71.408 133.049ZM71.5214 132.322C72.4565 132.322 72.9855 131.528 72.9855 130.376C72.9855 129.242 72.4754 128.477 71.5214 128.477C70.539 128.477 70.0478 129.309 70.0478 130.376C70.0478 131.472 70.5484 132.322 71.5214 132.322ZM75.1864 132.945V127.816H75.9988V132.945H75.1864ZM75.5926 126.966C75.2809 126.966 75.0259 126.73 75.0259 126.428C75.0259 126.125 75.2809 125.889 75.5926 125.889C75.9043 125.889 76.1688 126.125 76.1688 126.428C76.1688 126.73 75.9043 126.966 75.5926 126.966ZM79.3899 133.049C77.9919 133.049 77.0473 132.001 77.0473 130.404C77.0473 128.808 77.9919 127.75 79.3899 127.75C80.7785 127.75 81.7136 128.808 81.7136 130.404C81.7136 132.001 80.7785 133.049 79.3899 133.049ZM79.3899 132.331C80.4195 132.331 80.9013 131.425 80.9013 130.404C80.9013 129.384 80.4195 128.468 79.3899 128.468C78.3414 128.468 77.8597 129.384 77.8597 130.404C77.8597 131.425 78.3414 132.331 79.3899 132.331ZM83.5934 129.866V132.945H82.781V127.816H83.5651V128.619H83.6312C83.8768 128.1 84.3491 127.75 85.1331 127.75C86.1722 127.75 86.8617 128.383 86.8617 129.686V132.945H86.0494V129.743C86.0494 128.95 85.6148 128.477 84.8875 128.477C84.1413 128.477 83.5934 128.978 83.5934 129.866ZM92.8316 127.816V128.496H91.7548V131.472C91.7548 132.133 92.0759 132.237 92.4254 132.237C92.5766 132.237 92.7844 132.227 92.9072 132.218V132.974C92.7844 132.993 92.5766 133.011 92.3404 133.011C91.6603 133.011 90.933 132.586 90.933 131.68V128.496H90.1584V127.816H90.933V126.588H91.7548V127.816H92.8316ZM93.8801 132.945V127.816H94.6925V132.945H93.8801ZM94.2863 126.966C93.9746 126.966 93.7195 126.73 93.7195 126.428C93.7195 126.125 93.9746 125.889 94.2863 125.889C94.598 125.889 94.8625 126.125 94.8625 126.428C94.8625 126.73 94.598 126.966 94.2863 126.966ZM98.2253 127.816V128.496H97.1484V131.472C97.1484 132.133 97.4696 132.237 97.8191 132.237C97.9702 132.237 98.1781 132.227 98.3009 132.218V132.974C98.1781 132.993 97.9702 133.011 97.7341 133.011C97.054 133.011 96.3266 132.586 96.3266 131.68V128.496H95.5521V127.816H96.3266V126.588H97.1484V127.816H98.2253ZM100.2 126.106V132.945H99.3871V126.106H100.2ZM103.647 133.049C102.164 133.049 101.248 132.001 101.248 130.423C101.248 128.846 102.174 127.75 103.572 127.75C104.649 127.75 105.782 128.411 105.782 130.31V130.65H102.06C102.098 131.736 102.731 132.331 103.647 132.331C104.261 132.331 104.649 132.067 104.837 131.746H105.707C105.461 132.52 104.705 133.049 103.647 133.049ZM102.07 129.96H104.96C104.96 129.101 104.412 128.468 103.572 128.468C102.684 128.468 102.117 129.167 102.07 129.96Z" fill="var(--sol-element-primary)"/>
<rect width="410" height="0.690891" transform="translate(16 145.236)" fill="var(--sol-border-normal-variant)"/>
<rect width="410" height="31.2727" transform="translate(16 145.928)" fill="var(--sol-surface)"/>
<mask id="mask3_1664_177528" style="mask-type:alpha" maskUnits="userSpaceOnUse" x="27" y="155" width="12" height="12">
<path d="M34.2082 160.975C34.3431 161.109 34.3431 161.328 34.2082 161.463L31.4445 164.227L30.9561 163.738L33.4754 161.219L30.9561 158.699L31.4445 158.211L34.2082 160.975Z" fill="var(--sol-element-primary)"/>
</mask>
<g mask="url(#mask3_1664_177528)">
<rect x="27.0547" y="155.691" width="11.0545" height="11.0545" fill="var(--sol-element-quaternary)"/>
</g>
<path d="M44.6947 164.219H43.8067L46.3099 157.38H47.2073L49.7105 164.219H48.8131L48.133 162.292H45.3842L44.6947 164.219ZM45.6393 161.546H47.8685L46.7822 158.485H46.7256L45.6393 161.546ZM52.6199 164.323C51.1652 164.323 50.2773 163.217 50.2773 161.678C50.2773 160.119 51.203 159.023 52.601 159.023C53.6967 159.023 54.5091 159.666 54.6413 160.639H53.829C53.7156 160.166 53.3 159.741 52.6199 159.741C51.7036 159.741 51.0896 160.497 51.0896 161.649C51.0896 162.84 51.6847 163.595 52.6199 163.595C53.2244 163.595 53.6873 163.274 53.829 162.707H54.6413C54.5091 163.624 53.7629 164.323 52.6199 164.323ZM57.7396 164.323C56.2849 164.323 55.397 163.217 55.397 161.678C55.397 160.119 56.3227 159.023 57.7207 159.023C58.8165 159.023 59.6288 159.666 59.7611 160.639H58.9487C58.8354 160.166 58.4197 159.741 57.7396 159.741C56.8234 159.741 56.2094 160.497 56.2094 161.649C56.2094 162.84 56.8045 163.595 57.7396 163.595C58.3442 163.595 58.807 163.274 58.9487 162.707H59.7611C59.6288 163.624 58.8826 164.323 57.7396 164.323ZM62.8594 164.323C61.4614 164.323 60.5168 163.274 60.5168 161.678C60.5168 160.081 61.4614 159.023 62.8594 159.023C64.2479 159.023 65.1831 160.081 65.1831 161.678C65.1831 163.274 64.2479 164.323 62.8594 164.323ZM62.8594 163.605C63.889 163.605 64.3707 162.698 64.3707 161.678C64.3707 160.658 63.889 159.741 62.8594 159.741C61.8109 159.741 61.3291 160.658 61.3291 161.678C61.3291 162.698 61.8109 163.605 62.8594 163.605ZM66.2505 164.219V159.09H67.0345V159.874H67.0912C67.2801 159.354 67.8091 159.005 68.4136 159.005C68.5364 159.005 68.7442 159.014 68.8387 159.023V159.845C68.782 159.826 68.5553 159.789 68.3475 159.789C67.6107 159.789 67.0629 160.299 67.0629 160.988V164.219H66.2505ZM71.408 164.323C70.1328 164.323 69.226 163.293 69.226 161.668C69.226 160.044 70.1328 159.023 71.4175 159.023C72.4093 159.023 72.7305 159.628 72.9005 159.902H72.9572V157.38H73.779V164.219H72.9855V163.435H72.9005C72.721 163.718 72.3904 164.323 71.408 164.323ZM71.5214 163.595C72.4565 163.595 72.9855 162.802 72.9855 161.649C72.9855 160.516 72.4754 159.751 71.5214 159.751C70.539 159.751 70.0478 160.582 70.0478 161.649C70.0478 162.745 70.5484 163.595 71.5214 163.595ZM75.1864 164.219V159.09H75.9988V164.219H75.1864ZM75.5926 158.239C75.2809 158.239 75.0259 158.003 75.0259 157.701C75.0259 157.399 75.2809 157.163 75.5926 157.163C75.9043 157.163 76.1688 157.399 76.1688 157.701C76.1688 158.003 75.9043 158.239 75.5926 158.239ZM79.3899 164.323C77.9919 164.323 77.0473 163.274 77.0473 161.678C77.0473 160.081 77.9919 159.023 79.3899 159.023C80.7785 159.023 81.7136 160.081 81.7136 161.678C81.7136 163.274 80.7785 164.323 79.3899 164.323ZM79.3899 163.605C80.4195 163.605 80.9013 162.698 80.9013 161.678C80.9013 160.658 80.4195 159.741 79.3899 159.741C78.3414 159.741 77.8597 160.658 77.8597 161.678C77.8597 162.698 78.3414 163.605 79.3899 163.605ZM83.5934 161.139V164.219H82.781V159.09H83.5651V159.892H83.6312C83.8768 159.373 84.3491 159.023 85.1331 159.023C86.1722 159.023 86.8617 159.656 86.8617 160.96V164.219H86.0494V161.017C86.0494 160.223 85.6148 159.751 84.8875 159.751C84.1413 159.751 83.5934 160.251 83.5934 161.139ZM92.8316 159.09V159.77H91.7548V162.745C91.7548 163.406 92.0759 163.51 92.4254 163.51C92.5766 163.51 92.7844 163.501 92.9072 163.491V164.247C92.7844 164.266 92.5766 164.285 92.3404 164.285C91.6603 164.285 90.933 163.86 90.933 162.953V159.77H90.1584V159.09H90.933V157.862H91.7548V159.09H92.8316ZM93.8801 164.219V159.09H94.6925V164.219H93.8801ZM94.2863 158.239C93.9746 158.239 93.7195 158.003 93.7195 157.701C93.7195 157.399 93.9746 157.163 94.2863 157.163C94.598 157.163 94.8625 157.399 94.8625 157.701C94.8625 158.003 94.598 158.239 94.2863 158.239ZM98.2253 159.09V159.77H97.1484V162.745C97.1484 163.406 97.4696 163.51 97.8191 163.51C97.9702 163.51 98.1781 163.501 98.3009 163.491V164.247C98.1781 164.266 97.9702 164.285 97.7341 164.285C97.054 164.285 96.3266 163.86 96.3266 162.953V159.77H95.5521V159.09H96.3266V157.862H97.1484V159.09H98.2253ZM100.2 157.38V164.219H99.3871V157.38H100.2ZM103.647 164.323C102.164 164.323 101.248 163.274 101.248 161.697C101.248 160.119 102.174 159.023 103.572 159.023C104.649 159.023 105.782 159.685 105.782 161.583V161.923H102.06C102.098 163.01 102.731 163.605 103.647 163.605C104.261 163.605 104.649 163.34 104.837 163.019H105.707C105.461 163.794 104.705 164.323 103.647 164.323ZM102.07 161.234H104.96C104.96 160.374 104.412 159.741 103.572 159.741C102.684 159.741 102.117 160.44 102.07 161.234Z" fill="var(--sol-element-primary)"/>
<rect width="410" height="0.690891" transform="translate(16 176.51)" fill="var(--sol-border-normal-variant)"/>
<rect width="410" height="31.2727" transform="translate(16 177.199)" fill="var(--sol-surface)"/>
<mask id="mask4_1664_177528" style="mask-type:alpha" maskUnits="userSpaceOnUse" x="27" y="186" width="12" height="13">
<path d="M34.2082 192.246C34.3431 192.381 34.3431 192.6 34.2082 192.735L31.4445 195.498L30.9561 195.01L33.4754 192.49L30.9561 189.971L31.4445 189.482L34.2082 192.246Z" fill="var(--sol-element-primary)"/>
</mask>
<g mask="url(#mask4_1664_177528)">
<rect x="27.0547" y="186.963" width="11.0545" height="11.0545" fill="var(--sol-element-quaternary)"/>
</g>
<path d="M44.6947 195.49H43.8067L46.3099 188.651H47.2073L49.7105 195.49H48.8131L48.133 193.563H45.3842L44.6947 195.49ZM45.6393 192.817H47.8685L46.7822 189.756H46.7256L45.6393 192.817ZM52.6199 195.594C51.1652 195.594 50.2773 194.489 50.2773 192.949C50.2773 191.391 51.203 190.295 52.601 190.295C53.6967 190.295 54.5091 190.937 54.6413 191.91H53.829C53.7156 191.438 53.3 191.013 52.6199 191.013C51.7036 191.013 51.0896 191.769 51.0896 192.921C51.0896 194.111 51.6847 194.867 52.6199 194.867C53.2244 194.867 53.6873 194.546 53.829 193.979H54.6413C54.5091 194.895 53.7629 195.594 52.6199 195.594ZM57.7396 195.594C56.2849 195.594 55.397 194.489 55.397 192.949C55.397 191.391 56.3227 190.295 57.7207 190.295C58.8165 190.295 59.6288 190.937 59.7611 191.91H58.9487C58.8354 191.438 58.4197 191.013 57.7396 191.013C56.8234 191.013 56.2094 191.769 56.2094 192.921C56.2094 194.111 56.8045 194.867 57.7396 194.867C58.3442 194.867 58.807 194.546 58.9487 193.979H59.7611C59.6288 194.895 58.8826 195.594 57.7396 195.594ZM62.8594 195.594C61.4614 195.594 60.5168 194.546 60.5168 192.949C60.5168 191.353 61.4614 190.295 62.8594 190.295C64.2479 190.295 65.1831 191.353 65.1831 192.949C65.1831 194.546 64.2479 195.594 62.8594 195.594ZM62.8594 194.876C63.889 194.876 64.3707 193.969 64.3707 192.949C64.3707 191.929 63.889 191.013 62.8594 191.013C61.8109 191.013 61.3291 191.929 61.3291 192.949C61.3291 193.969 61.8109 194.876 62.8594 194.876ZM66.2505 195.49V190.361H67.0345V191.145H67.0912C67.2801 190.626 67.8091 190.276 68.4136 190.276C68.5364 190.276 68.7442 190.285 68.8387 190.295V191.117C68.782 191.098 68.5553 191.06 68.3475 191.06C67.6107 191.06 67.0629 191.57 67.0629 192.26V195.49H66.2505ZM71.408 195.594C70.1328 195.594 69.226 194.565 69.226 192.94C69.226 191.315 70.1328 190.295 71.4175 190.295C72.4093 190.295 72.7305 190.899 72.9005 191.173H72.9572V188.651H73.779V195.49H72.9855V194.706H72.9005C72.721 194.99 72.3904 195.594 71.408 195.594ZM71.5214 194.867C72.4565 194.867 72.9855 194.073 72.9855 192.921C72.9855 191.787 72.4754 191.022 71.5214 191.022C70.539 191.022 70.0478 191.854 70.0478 192.921C70.0478 194.017 70.5484 194.867 71.5214 194.867ZM75.1864 195.49V190.361H75.9988V195.49H75.1864ZM75.5926 189.511C75.2809 189.511 75.0259 189.275 75.0259 188.972C75.0259 188.67 75.2809 188.434 75.5926 188.434C75.9043 188.434 76.1688 188.67 76.1688 188.972C76.1688 189.275 75.9043 189.511 75.5926 189.511ZM79.3899 195.594C77.9919 195.594 77.0473 194.546 77.0473 192.949C77.0473 191.353 77.9919 190.295 79.3899 190.295C80.7785 190.295 81.7136 191.353 81.7136 192.949C81.7136 194.546 80.7785 195.594 79.3899 195.594ZM79.3899 194.876C80.4195 194.876 80.9013 193.969 80.9013 192.949C80.9013 191.929 80.4195 191.013 79.3899 191.013C78.3414 191.013 77.8597 191.929 77.8597 192.949C77.8597 193.969 78.3414 194.876 79.3899 194.876ZM83.5934 192.411V195.49H82.781V190.361H83.5651V191.164H83.6312C83.8768 190.644 84.3491 190.295 85.1331 190.295C86.1722 190.295 86.8617 190.928 86.8617 192.231V195.49H86.0494V192.288C86.0494 191.495 85.6148 191.022 84.8875 191.022C84.1413 191.022 83.5934 191.523 83.5934 192.411ZM92.8316 190.361V191.041H91.7548V194.017C91.7548 194.678 92.0759 194.782 92.4254 194.782C92.5766 194.782 92.7844 194.772 92.9072 194.763V195.519C92.7844 195.537 92.5766 195.556 92.3404 195.556C91.6603 195.556 90.933 195.131 90.933 194.224V191.041H90.1584V190.361H90.933V189.133H91.7548V190.361H92.8316ZM93.8801 195.49V190.361H94.6925V195.49H93.8801ZM94.2863 189.511C93.9746 189.511 93.7195 189.275 93.7195 188.972C93.7195 188.67 93.9746 188.434 94.2863 188.434C94.598 188.434 94.8625 188.67 94.8625 188.972C94.8625 189.275 94.598 189.511 94.2863 189.511ZM98.2253 190.361V191.041H97.1484V194.017C97.1484 194.678 97.4696 194.782 97.8191 194.782C97.9702 194.782 98.1781 194.772 98.3009 194.763V195.519C98.1781 195.537 97.9702 195.556 97.7341 195.556C97.054 195.556 96.3266 195.131 96.3266 194.224V191.041H95.5521V190.361H96.3266V189.133H97.1484V190.361H98.2253ZM100.2 188.651V195.49H99.3871V188.651H100.2ZM103.647 195.594C102.164 195.594 101.248 194.546 101.248 192.968C101.248 191.391 102.174 190.295 103.572 190.295C104.649 190.295 105.782 190.956 105.782 192.855V193.195H102.06C102.098 194.281 102.731 194.876 103.647 194.876C104.261 194.876 104.649 194.612 104.837 194.291H105.707C105.461 195.065 104.705 195.594 103.647 195.594ZM102.07 192.505H104.96C104.96 191.646 104.412 191.013 103.572 191.013C102.684 191.013 102.117 191.712 102.07 192.505Z" fill="var(--sol-element-primary)"/>
<rect width="410" height="0.690891" transform="translate(16 207.781)" fill="var(--sol-border-normal-variant)"/>
</g>
<defs>
<clipPath id="clip0_1664_177528">
<path d="M0 8.00001C0 3.58173 3.58172 0 8 0H434C438.418 0 442 3.58172 442 8V212C442 216.418 438.418 220 434 220H8C3.58172 220 0 216.418 0 212V8.00001Z" fill="var(--sol-surface)"/>
</clipPath>
</defs>
</svg>
