<svg width="900" height="578" viewBox="0 0 900 578" fill="none" xmlns="http://www.w3.org/2000/svg">
<style>
:root {
  --sol-element-primary: #161616;
  --sol-element-secondary: #484848;
  --sol-element-quaternary: #858585;
  --sol-element-brand-variant: #3a3480;
  --sol-primary: #282363;
  --sol-fill-active: #4d469a;
  --sol-surface: #ffffff;
  --sol-border-normal-variant: #ebebeb;
  --sol-border-solid-variant: #e0e0e0;
  --sol-error: #e76067;
  --sol-error-dim: #b84451;
  --sol-static-white: #ffffff;
  --sol-static-black: #000000;
  --color-green-500: #35a142;
  --color-yellow-500: #d4ae00;
}
@media (prefers-color-scheme: dark) {
  :root {
    --sol-element-primary: #ffffff;
    --sol-element-secondary: rgba(255, 255, 255, 0.8);
    --sol-element-quaternary: rgba(255, 255, 255, 0.5);
    --sol-element-brand-variant: #ffffff;
    --sol-primary: #9791d4;
    --sol-fill-active: #7b74c4;
    --sol-surface: #161616;
    --sol-border-normal-variant: rgba(255, 255, 255, 0.08);
    --sol-border-solid-variant: #3d3d3d;
    --sol-error: #ee7a80;
    --sol-error-dim: #e76067;
  }
}
</style>
<path d="M0 8.00001C0 3.58174 3.58172 0 8 0H892C896.418 0 900 3.58172 900 8V570C900 574.418 896.418 578 892 578H8.00001C3.58173 578 0 574.418 0 570V8.00001Z" fill="var(--sol-element-primary)" fill-opacity="0.04"/>
<g clip-path="url(#clip0_1663_176644)">
<path d="M48 56C48 51.5817 51.5817 48 56 48H844C848.418 48 852 51.5817 852 56V522C852 526.418 848.418 530 844 530H56C51.5817 530 48 526.418 48 522V56Z" fill="var(--sol-surface)"/>
<rect width="804" height="23.2105" transform="translate(48 73.7891)" fill="var(--sol-surface)"/>
<g filter="url(#filter0_d_1663_176644)">
<rect x="48" y="73.7891" width="804" height="23" fill="var(--sol-surface)"/>
</g>
<path d="M837.815 88.0469C838.349 88.0469 838.783 88.4797 838.783 89.0137C838.783 89.5478 838.35 89.9814 837.815 89.9814C837.281 89.9813 836.849 89.5477 836.849 89.0137C836.849 88.4798 837.282 88.047 837.815 88.0469ZM837.815 84.8232C838.349 84.8232 838.783 85.2561 838.783 85.79C838.783 86.3242 838.35 86.7578 837.815 86.7578C837.281 86.7576 836.849 86.3241 836.849 85.79C836.849 85.2562 837.282 84.8234 837.815 84.8232ZM837.815 81.5996C838.349 81.5996 838.783 82.0324 838.783 82.5664C838.783 83.1005 838.35 83.5342 837.815 83.5342C837.281 83.534 836.849 83.1004 836.849 82.5664C836.849 82.0325 837.282 81.5998 837.815 81.5996Z" fill="var(--sol-element-primary)"/>
<rect x="120.21" y="76.3672" width="680" height="18" rx="9" fill="var(--sol-border-solid-variant)"/>
<g clip-path="url(#clip1_1663_176644)">
<path d="M789.24 83.8799L789.312 84.1045L789.547 84.1035L792.3 84.0977L790.07 85.7109L789.879 85.8496L789.953 86.0732L790.808 88.6895L788.584 87.0664L788.395 86.9277L788.205 87.0664L785.98 88.6895L786.837 86.0732L786.911 85.8496L786.719 85.7109L784.488 84.0977L787.242 84.1035L787.477 84.1045L787.549 83.8799L788.394 81.2578L789.24 83.8799Z" stroke="var(--sol-element-primary)" stroke-width="0.644737"/>
</g>
<path d="M131.815 81.498C132.883 81.498 133.749 82.3637 133.75 83.4316V84.25C134.135 84.4729 134.395 84.889 134.395 85.3662V87.3008C134.395 88.0129 133.817 88.5898 133.105 88.5898H130.526C129.814 88.5896 129.237 88.0128 129.237 87.3008V85.3662C129.237 84.8892 129.496 84.473 129.881 84.25V83.4316C129.882 82.364 130.747 81.4985 131.815 81.498ZM131.815 82.1426C131.103 82.143 130.526 82.72 130.526 83.4316V84.0771H133.105V83.4316C133.105 82.7198 132.527 82.1426 131.815 82.1426Z" fill="var(--sol-element-primary)"/>
<rect width="18.0526" height="18.0526" transform="translate(94.4209 76.3672)" fill="var(--sol-surface)"/>
<path d="M103.447 88.9401C105.185 88.9401 106.632 87.6894 106.935 86.0388H107.915C107.602 88.2259 105.721 89.9072 103.447 89.9072C100.955 89.9072 98.9341 87.8866 98.9341 85.394C98.9341 82.9015 100.955 80.8809 103.447 80.8809C104.858 80.8809 106.117 81.5279 106.945 82.5413L107.96 81.5256V84.7493H104.737L106.256 83.2296C105.608 82.3893 104.591 81.848 103.447 81.848C101.489 81.848 99.9012 83.4356 99.9012 85.394C99.9012 87.3524 101.489 88.9401 103.447 88.9401Z" fill="var(--sol-element-primary)"/>
<rect width="18.0526" height="18.0526" transform="translate(73.7891 76.3672)" fill="var(--sol-surface)"/>
<path d="M78.9468 85.2326H86.6836M83.1375 88.6175L86.6836 85.2326L83.1375 81.5254" stroke="var(--sol-border-solid-variant)" stroke-width="0.967105" stroke-linecap="round" stroke-linejoin="round"/>
<rect width="18.0526" height="18.0526" transform="translate(53.1582 76.3672)" fill="var(--sol-surface)"/>
<path d="M66.0532 85.2326H58.3164M61.8625 88.6175L58.3164 85.2326L61.8625 81.5254" stroke="var(--sol-element-primary)" stroke-width="0.967105" stroke-linecap="round" stroke-linejoin="round"/>
<g clip-path="url(#clip2_1663_176644)">
<path d="M48 52.1263C48 50.682 48 49.9598 48.2811 49.4081C48.5283 48.9229 48.9229 48.5283 49.4081 48.2811C49.9598 48 50.682 48 52.1263 48H847.874C849.318 48 850.04 48 850.592 48.2811C851.077 48.5283 851.472 48.9229 851.719 49.4081C852 49.9598 852 50.682 852 52.1263V74H48V52.1263Z" fill="var(--sol-border-solid-variant)"/>
<path d="M265.25 63.4463H271.697M268.474 60.2227V66.67" stroke="var(--sol-element-primary)" stroke-width="1.28947" stroke-linecap="round" stroke-linejoin="round"/>
<path d="M99.5791 58.3161C99.5791 55.4675 101.888 53.1582 104.737 53.1582H249.421C252.27 53.1582 254.579 55.4675 254.579 58.3161V74.1582H99.5791V58.3161Z" fill="var(--sol-surface)"/>
<path d="M248.549 60.7605L245.932 63.3777L248.549 65.9952L248.093 66.4511L245.476 63.8335L242.859 66.4511L242.403 65.9952L245.02 63.3777L242.403 60.7605L242.859 60.3047L245.476 62.9218L248.093 60.3047L248.549 60.7605Z" fill="var(--sol-element-primary)"/>
<path d="M259.737 74.1579H254.579V69C254.579 71.8486 256.888 74.1579 259.737 74.1579Z" fill="var(--sol-surface)"/>
<path d="M94.4214 74.1579H99.5793V69C99.5793 71.8486 97.27 74.1579 94.4214 74.1579Z" fill="var(--sol-surface)"/>
<circle cx="86.6839" cy="63.3684" r="3.86842" fill="var(--color-green-500)"/>
<circle cx="86.6839" cy="63.3684" r="3.70724" stroke="var(--sol-element-primary)" stroke-opacity="0.16" stroke-width="0.322368"/>
<circle cx="73.7893" cy="63.3684" r="3.86842" fill="var(--color-yellow-500)"/>
<circle cx="73.7893" cy="63.3684" r="3.70724" stroke="var(--sol-element-primary)" stroke-opacity="0.16" stroke-width="0.322368"/>
<circle cx="60.8948" cy="63.3684" r="3.86842" fill="var(--sol-error)"/>
<circle cx="60.8948" cy="63.3684" r="3.70724" stroke="var(--sol-element-primary)" stroke-opacity="0.16" stroke-width="0.322368"/>
</g>
<g clip-path="url(#clip3_1663_176644)">
<mask id="path-24-inside-1_1663_176644" fill="var(--sol-static-white)">
<path d="M48 97H202V530H48V97Z"/>
</mask>
<path d="M202 97H201V530H202H203V97H202Z" fill="var(--sol-border-solid-variant)" mask="url(#path-24-inside-1_1663_176644)"/>
<rect x="218" y="113" width="179" height="22" fill="var(--sol-element-primary)" fill-opacity="0.04"/>
<rect x="218" y="143" width="117" height="14" fill="var(--sol-element-primary)" fill-opacity="0.04"/>
<g clip-path="url(#clip4_1663_176644)">
<mask id="path-30-inside-2_1663_176644" fill="var(--sol-static-white)">
<path d="M218 177H357V514H218V177Z"/>
</mask>
<path d="M357 177H356V514H357H358V177H357Z" fill="var(--sol-border-normal-variant)" mask="url(#path-30-inside-2_1663_176644)"/>
<rect x="234" y="193" width="107" height="25" fill="var(--sol-element-primary)" fill-opacity="0.04"/>
<rect x="234" y="228" width="107" height="21.1111" fill="var(--sol-element-primary)" fill-opacity="0.04"/>
<rect x="234" y="259.111" width="107" height="21.1111" fill="var(--sol-element-primary)" fill-opacity="0.04"/>
<rect x="234" y="290.223" width="107" height="21.1111" fill="var(--sol-element-primary)" fill-opacity="0.04"/>
<rect x="234" y="321.334" width="107" height="21.1111" fill="var(--sol-element-primary)" fill-opacity="0.04"/>
<rect x="234" y="352.445" width="107" height="21.1111" fill="var(--sol-element-primary)" fill-opacity="0.04"/>
<rect x="234" y="383.555" width="107" height="21.1111" fill="var(--sol-element-primary)" fill-opacity="0.04"/>
<rect x="234" y="414.666" width="107" height="21.1111" fill="var(--sol-element-primary)" fill-opacity="0.04"/>
<rect x="234" y="445.777" width="107" height="21.1111" fill="var(--sol-element-primary)" fill-opacity="0.04"/>
<rect x="234" y="476.889" width="107" height="21.1111" fill="var(--sol-element-primary)" fill-opacity="0.04"/>
<rect x="373" y="193" width="179" height="22" fill="var(--sol-element-primary)" fill-opacity="0.04"/>
<rect width="447" height="67.3818" transform="translate(373 231)" fill="var(--sol-surface)"/>
<mask id="mask0_1663_176644" style="mask-type:alpha" maskUnits="userSpaceOnUse" x="384" y="240" width="12" height="12">
<path d="M392.59 245.153L389.826 247.916C389.691 248.051 389.473 248.051 389.338 247.916L386.574 245.153L387.063 244.664L389.582 247.183L392.101 244.664L392.59 245.153Z" fill="var(--sol-element-primary)"/>
</mask>
<g mask="url(#mask0_1663_176644)">
<rect x="384.055" y="240.764" width="11.0545" height="11.0545" fill="var(--sol-element-quaternary)"/>
</g>
<path d="M402.138 249.291H400.825L403.234 242.452H404.745L407.163 249.291H405.85L405.284 247.6H402.705L402.138 249.291ZM403.036 246.608H404.953L404.018 243.85H403.961L403.036 246.608ZM410.007 249.395C408.476 249.395 407.551 248.299 407.551 246.75C407.551 245.182 408.505 244.096 410.007 244.096C411.254 244.096 412.123 244.823 412.208 245.928H411.055C410.961 245.437 410.602 245.059 410.016 245.059C409.27 245.059 408.769 245.692 408.769 246.722C408.769 247.78 409.26 248.413 410.016 248.413C410.555 248.413 410.951 248.101 411.055 247.544H412.208C412.113 248.63 411.291 249.395 410.007 249.395ZM415.353 249.395C413.823 249.395 412.897 248.299 412.897 246.75C412.897 245.182 413.851 244.096 415.353 244.096C416.6 244.096 417.469 244.823 417.554 245.928H416.402C416.307 245.437 415.948 245.059 415.363 245.059C414.616 245.059 414.116 245.692 414.116 246.722C414.116 247.78 414.607 248.413 415.363 248.413C415.901 248.413 416.298 248.101 416.402 247.544H417.554C417.46 248.63 416.638 249.395 415.353 249.395ZM420.7 249.395C419.207 249.395 418.244 248.337 418.244 246.75C418.244 245.154 419.207 244.096 420.7 244.096C422.202 244.096 423.156 245.154 423.156 246.75C423.156 248.337 422.202 249.395 420.7 249.395ZM420.709 248.431C421.531 248.431 421.937 247.685 421.937 246.741C421.937 245.805 421.531 245.05 420.709 245.05C419.868 245.05 419.462 245.805 419.462 246.741C419.462 247.685 419.868 248.431 420.709 248.431ZM424.091 249.291V244.162H425.262V245.012H425.319C425.498 244.426 425.999 244.086 426.584 244.086C426.717 244.086 426.906 244.096 427.019 244.115V245.229C426.915 245.191 426.66 245.154 426.462 245.154C425.791 245.154 425.3 245.617 425.3 246.268V249.291H424.091ZM429.484 249.385C428.275 249.385 427.368 248.422 427.368 246.731C427.368 245.021 428.304 244.096 429.494 244.096C430.401 244.096 430.778 244.634 430.958 245.003H431.005V242.452H432.205V249.291H431.024V248.479H430.958C430.769 248.856 430.372 249.385 429.484 249.385ZM429.815 248.394C430.59 248.394 431.034 247.723 431.034 246.722C431.034 245.73 430.599 245.078 429.815 245.078C429.012 245.078 428.596 245.768 428.596 246.722C428.596 247.695 429.022 248.394 429.815 248.394ZM433.423 249.291V244.162H434.632V249.291H433.423ZM434.037 243.434C433.66 243.434 433.338 243.142 433.338 242.773C433.338 242.414 433.66 242.121 434.037 242.121C434.425 242.121 434.736 242.414 434.736 242.773C434.736 243.142 434.425 243.434 434.037 243.434ZM438.024 249.395C436.531 249.395 435.568 248.337 435.568 246.75C435.568 245.154 436.531 244.096 438.024 244.096C439.526 244.096 440.48 245.154 440.48 246.75C440.48 248.337 439.526 249.395 438.024 249.395ZM438.033 248.431C438.855 248.431 439.261 247.685 439.261 246.741C439.261 245.805 438.855 245.05 438.033 245.05C437.192 245.05 436.786 245.805 436.786 246.741C436.786 247.685 437.192 248.431 438.033 248.431ZM442.624 246.287V249.291H441.415V244.162H442.567V245.031H442.633C442.869 244.455 443.389 244.096 444.154 244.096C445.221 244.096 445.92 244.795 445.911 246.023V249.291H444.711V246.212C444.711 245.522 444.343 245.116 443.71 245.116C443.068 245.116 442.624 245.541 442.624 246.287ZM451.919 244.162V245.088H450.908V247.751C450.908 248.243 451.154 248.346 451.456 248.346C451.598 248.346 451.834 248.337 451.985 248.328V249.31C451.843 249.338 451.607 249.357 451.305 249.357C450.398 249.357 449.699 248.913 449.708 247.95V245.088H448.972V244.162H449.708V242.934H450.908V244.162H451.919ZM452.844 249.291V244.162H454.053V249.291H452.844ZM453.458 243.434C453.081 243.434 452.759 243.142 452.759 242.773C452.759 242.414 453.081 242.121 453.458 242.121C453.846 242.121 454.157 242.414 454.157 242.773C454.157 243.142 453.846 243.434 453.458 243.434ZM457.766 244.162V245.088H456.755V247.751C456.755 248.243 457.001 248.346 457.303 248.346C457.445 248.346 457.681 248.337 457.832 248.328V249.31C457.69 249.338 457.454 249.357 457.152 249.357C456.245 249.357 455.546 248.913 455.555 247.95V245.088H454.819V244.162H455.555V242.934H456.755V244.162H457.766ZM460.014 242.452V249.291H458.805V242.452H460.014ZM463.443 249.395C461.894 249.395 460.949 248.365 460.949 246.759C460.949 245.173 461.913 244.096 463.377 244.096C464.633 244.096 465.719 244.88 465.719 246.684V247.062H462.139C462.153 247.936 462.668 248.45 463.452 248.45C463.981 248.45 464.34 248.224 464.491 247.921H465.672C465.455 248.809 464.633 249.395 463.443 249.395ZM462.149 246.24H464.567C464.557 245.541 464.095 245.031 463.396 245.031C462.668 245.031 462.187 245.583 462.149 246.24Z" fill="var(--sol-element-brand-variant)"/>
<rect width="447" height="0.690891" transform="translate(373 261.582)" fill="var(--sol-border-normal-variant)"/>
<rect width="447" height="36.1091" transform="translate(373 262.273)" fill="var(--sol-element-primary)" fill-opacity="0.04"/>
<path d="M406.059 273.116C405.86 272.171 405.048 271.661 404.151 271.661C402.913 271.661 401.95 272.615 401.95 274.381C401.95 276.148 402.913 277.102 404.151 277.102C405.048 277.102 405.851 276.592 406.059 275.657H406.909C406.663 277.055 405.539 277.895 404.151 277.895C402.394 277.895 401.128 276.544 401.128 274.381C401.128 272.218 402.394 270.867 404.151 270.867C405.53 270.867 406.654 271.699 406.909 273.116H406.059ZM410.092 277.905C408.694 277.905 407.75 276.856 407.75 275.26C407.75 273.663 408.694 272.605 410.092 272.605C411.481 272.605 412.416 273.663 412.416 275.26C412.416 276.856 411.481 277.905 410.092 277.905ZM410.092 277.187C411.122 277.187 411.604 276.28 411.604 275.26C411.604 274.24 411.122 273.323 410.092 273.323C409.044 273.323 408.562 274.24 408.562 275.26C408.562 276.28 409.044 277.187 410.092 277.187ZM414.296 274.721V277.801H413.483V272.672H414.267V273.475H414.333C414.579 272.955 415.051 272.605 415.835 272.605C416.874 272.605 417.564 273.238 417.564 274.542V277.801H416.752V274.599C416.752 273.805 416.317 273.333 415.59 273.333C414.844 273.333 414.296 273.833 414.296 274.721ZM421.106 272.672V273.352H420.029V276.327C420.029 276.988 420.351 277.092 420.7 277.092C420.851 277.092 421.059 277.083 421.182 277.073V277.829C421.059 277.848 420.851 277.867 420.615 277.867C419.935 277.867 419.208 277.442 419.208 276.535V273.352H418.433V272.672H419.208V271.444H420.029V272.672H421.106ZM424.261 277.905C422.778 277.905 421.862 276.856 421.862 275.279C421.862 273.701 422.788 272.605 424.186 272.605C425.263 272.605 426.396 273.267 426.396 275.165V275.505H422.674C422.712 276.592 423.345 277.187 424.261 277.187C424.875 277.187 425.263 276.922 425.451 276.601H426.32C426.075 277.376 425.319 277.905 424.261 277.905ZM422.684 274.816H425.574C425.574 273.956 425.026 273.323 424.186 273.323C423.298 273.323 422.731 274.022 422.684 274.816ZM428.266 274.721V277.801H427.454V272.672H428.238V273.475H428.304C428.55 272.955 429.022 272.605 429.806 272.605C430.845 272.605 431.535 273.238 431.535 274.542V277.801H430.722V274.599C430.722 273.805 430.288 273.333 429.56 273.333C428.814 273.333 428.266 273.833 428.266 274.721ZM435.077 272.672V273.352H434V276.327C434 276.988 434.321 277.092 434.671 277.092C434.822 277.092 435.03 277.083 435.152 277.073V277.829C435.03 277.848 434.822 277.867 434.586 277.867C433.906 277.867 433.178 277.442 433.178 276.535V273.352H432.404V272.672H433.178V271.444H434V272.672H435.077ZM438.657 277.801V270.962H439.469V273.484H439.535C439.715 273.21 440.017 272.605 441.018 272.605C442.303 272.605 443.21 273.626 443.21 275.25C443.21 276.875 442.303 277.905 441.028 277.905C440.046 277.905 439.715 277.3 439.535 277.017H439.441V277.801H438.657ZM439.45 275.231C439.45 276.384 439.97 277.177 440.905 277.177C441.878 277.177 442.388 276.327 442.388 275.231C442.388 274.164 441.897 273.333 440.905 273.333C439.961 273.333 439.45 274.098 439.45 275.231ZM446.365 277.905C444.967 277.905 444.022 276.856 444.022 275.26C444.022 273.663 444.967 272.605 446.365 272.605C447.753 272.605 448.689 273.663 448.689 275.26C448.689 276.856 447.753 277.905 446.365 277.905ZM446.365 277.187C447.395 277.187 447.876 276.28 447.876 275.26C447.876 274.24 447.395 273.323 446.365 273.323C445.316 273.323 444.835 274.24 444.835 275.26C444.835 276.28 445.316 277.187 446.365 277.187ZM451.692 277.905C450.417 277.905 449.51 276.875 449.51 275.25C449.51 273.626 450.417 272.605 451.702 272.605C452.694 272.605 453.015 273.21 453.185 273.484H453.242V270.962H454.063V277.801H453.27V277.017H453.185C453.005 277.3 452.675 277.905 451.692 277.905ZM451.806 277.177C452.741 277.177 453.27 276.384 453.27 275.231C453.27 274.098 452.76 273.333 451.806 273.333C450.823 273.333 450.332 274.164 450.332 275.231C450.332 276.327 450.833 277.177 451.806 277.177ZM455.99 279.728C455.811 279.728 455.641 279.718 455.537 279.709V278.982C455.622 278.991 455.811 279 455.934 279C456.264 279 456.538 278.972 456.812 278.226L456.963 277.839L455.065 272.672H455.953L457.351 276.743H457.407L458.805 272.672H459.693L457.521 278.538C457.218 279.34 456.718 279.728 455.99 279.728ZM465.257 272.672V273.352H464.18V276.327C464.18 276.988 464.501 277.092 464.851 277.092C465.002 277.092 465.21 277.083 465.333 277.073V277.829C465.21 277.848 465.002 277.867 464.766 277.867C464.086 277.867 463.358 277.442 463.358 276.535V273.352H462.584V272.672H463.358V271.444H464.18V272.672H465.257ZM468.412 277.905C466.929 277.905 466.013 276.856 466.013 275.279C466.013 273.701 466.938 272.605 468.336 272.605C469.413 272.605 470.547 273.267 470.547 275.165V275.505H466.825C466.863 276.592 467.496 277.187 468.412 277.187C469.026 277.187 469.413 276.922 469.602 276.601H470.471C470.226 277.376 469.47 277.905 468.412 277.905ZM466.834 274.816H469.725C469.725 273.956 469.177 273.323 468.336 273.323C467.448 273.323 466.882 274.022 466.834 274.816ZM472.086 272.672L473.296 274.759L474.514 272.672H475.449L473.796 275.231L475.449 277.801H474.524L473.296 275.817L472.086 277.801H471.151L472.767 275.231L471.151 272.672H472.086ZM478.67 272.672V273.352H477.593V276.327C477.593 276.988 477.915 277.092 478.264 277.092C478.415 277.092 478.623 277.083 478.746 277.073V277.829C478.623 277.848 478.415 277.867 478.179 277.867C477.499 277.867 476.772 277.442 476.772 276.535V273.352H475.997V272.672H476.772V271.444H477.593V272.672H478.67Z" fill="var(--sol-element-secondary)"/>
<rect width="447" height="31.2727" transform="translate(373 298.381)" fill="var(--sol-surface)"/>
<mask id="mask1_1663_176644" style="mask-type:alpha" maskUnits="userSpaceOnUse" x="384" y="308" width="12" height="12">
<path d="M391.208 313.428C391.343 313.563 391.343 313.781 391.208 313.916L388.445 316.68L387.956 316.191L390.475 313.672L387.956 311.153L388.445 310.664L391.208 313.428Z" fill="var(--sol-element-primary)"/>
</mask>
<g mask="url(#mask1_1663_176644)">
<rect x="384.055" y="308.145" width="11.0545" height="11.0545" fill="var(--sol-element-quaternary)"/>
</g>
<path d="M401.694 316.672H400.806L403.309 309.833H404.207L406.71 316.672H405.813L405.133 314.745H402.384L401.694 316.672ZM402.639 313.999H404.868L403.782 310.938H403.725L402.639 313.999ZM409.619 316.776C408.165 316.776 407.277 315.671 407.277 314.131C407.277 312.572 408.202 311.477 409.601 311.477C410.696 311.477 411.509 312.119 411.641 313.092H410.828C410.715 312.62 410.3 312.194 409.619 312.194C408.703 312.194 408.089 312.95 408.089 314.103C408.089 315.293 408.684 316.048 409.619 316.048C410.224 316.048 410.687 315.727 410.828 315.161H411.641C411.509 316.077 410.762 316.776 409.619 316.776ZM414.739 316.776C413.284 316.776 412.397 315.671 412.397 314.131C412.397 312.572 413.322 311.477 414.72 311.477C415.816 311.477 416.628 312.119 416.761 313.092H415.948C415.835 312.62 415.419 312.194 414.739 312.194C413.823 312.194 413.209 312.95 413.209 314.103C413.209 315.293 413.804 316.048 414.739 316.048C415.344 316.048 415.807 315.727 415.948 315.161H416.761C416.628 316.077 415.882 316.776 414.739 316.776ZM419.859 316.776C418.461 316.776 417.516 315.727 417.516 314.131C417.516 312.535 418.461 311.477 419.859 311.477C421.247 311.477 422.183 312.535 422.183 314.131C422.183 315.727 421.247 316.776 419.859 316.776ZM419.859 316.058C420.889 316.058 421.37 315.151 421.37 314.131C421.37 313.111 420.889 312.194 419.859 312.194C418.81 312.194 418.329 313.111 418.329 314.131C418.329 315.151 418.81 316.058 419.859 316.058ZM423.25 316.672V311.543H424.034V312.327H424.091C424.28 311.807 424.809 311.458 425.413 311.458C425.536 311.458 425.744 311.467 425.838 311.477V312.298C425.782 312.279 425.555 312.242 425.347 312.242C424.61 312.242 424.062 312.752 424.062 313.441V316.672H423.25ZM428.408 316.776C427.132 316.776 426.226 315.746 426.226 314.121C426.226 312.497 427.132 311.477 428.417 311.477C429.409 311.477 429.73 312.081 429.9 312.355H429.957V309.833H430.778V316.672H429.985V315.888H429.9C429.721 316.171 429.39 316.776 428.408 316.776ZM428.521 316.048C429.456 316.048 429.985 315.255 429.985 314.103C429.985 312.969 429.475 312.204 428.521 312.204C427.539 312.204 427.047 313.035 427.047 314.103C427.047 315.198 427.548 316.048 428.521 316.048ZM432.186 316.672V311.543H432.998V316.672H432.186ZM432.592 310.693C432.28 310.693 432.025 310.456 432.025 310.154C432.025 309.852 432.28 309.616 432.592 309.616C432.904 309.616 433.168 309.852 433.168 310.154C433.168 310.456 432.904 310.693 432.592 310.693ZM436.389 316.776C434.991 316.776 434.047 315.727 434.047 314.131C434.047 312.535 434.991 311.477 436.389 311.477C437.778 311.477 438.713 312.535 438.713 314.131C438.713 315.727 437.778 316.776 436.389 316.776ZM436.389 316.058C437.419 316.058 437.901 315.151 437.901 314.131C437.901 313.111 437.419 312.194 436.389 312.194C435.341 312.194 434.859 313.111 434.859 314.131C434.859 315.151 435.341 316.058 436.389 316.058ZM440.593 313.592V316.672H439.781V311.543H440.565V312.346H440.631C440.876 311.826 441.349 311.477 442.133 311.477C443.172 311.477 443.861 312.109 443.861 313.413V316.672H443.049V313.47C443.049 312.676 442.614 312.204 441.887 312.204C441.141 312.204 440.593 312.705 440.593 313.592ZM449.831 311.543V312.223H448.754V315.198C448.754 315.86 449.075 315.963 449.425 315.963C449.576 315.963 449.784 315.954 449.907 315.945V316.7C449.784 316.719 449.576 316.738 449.34 316.738C448.66 316.738 447.932 316.313 447.932 315.406V312.223H447.158V311.543H447.932V310.315H448.754V311.543H449.831ZM450.88 316.672V311.543H451.692V316.672H450.88ZM451.286 310.693C450.974 310.693 450.719 310.456 450.719 310.154C450.719 309.852 450.974 309.616 451.286 309.616C451.598 309.616 451.862 309.852 451.862 310.154C451.862 310.456 451.598 310.693 451.286 310.693ZM455.225 311.543V312.223H454.148V315.198C454.148 315.86 454.469 315.963 454.819 315.963C454.97 315.963 455.178 315.954 455.3 315.945V316.7C455.178 316.719 454.97 316.738 454.734 316.738C454.053 316.738 453.326 316.313 453.326 315.406V312.223H452.552V311.543H453.326V310.315H454.148V311.543H455.225ZM457.199 309.833V316.672H456.387V309.833H457.199ZM460.647 316.776C459.164 316.776 458.248 315.727 458.248 314.15C458.248 312.572 459.173 311.477 460.571 311.477C461.648 311.477 462.782 312.138 462.782 314.036V314.376H459.06C459.098 315.463 459.731 316.058 460.647 316.058C461.261 316.058 461.648 315.793 461.837 315.472H462.706C462.46 316.247 461.705 316.776 460.647 316.776ZM459.069 313.687H461.96C461.96 312.827 461.412 312.194 460.571 312.194C459.683 312.194 459.117 312.893 459.069 313.687Z" fill="var(--sol-element-primary)"/>
<rect width="447" height="0.690891" transform="translate(373 328.963)" fill="var(--sol-border-normal-variant)"/>
<rect width="447" height="31.2727" transform="translate(373 329.654)" fill="var(--sol-surface)"/>
<mask id="mask2_1663_176644" style="mask-type:alpha" maskUnits="userSpaceOnUse" x="384" y="339" width="12" height="12">
<path d="M391.208 344.701C391.343 344.836 391.343 345.055 391.208 345.19L388.445 347.953L387.956 347.465L390.475 344.945L387.956 342.426L388.445 341.938L391.208 344.701Z" fill="var(--sol-element-primary)"/>
</mask>
<g mask="url(#mask2_1663_176644)">
<rect x="384.055" y="339.418" width="11.0545" height="11.0545" fill="var(--sol-element-quaternary)"/>
</g>
<path d="M401.694 347.945H400.806L403.309 341.106H404.207L406.71 347.945H405.813L405.133 346.018H402.384L401.694 347.945ZM402.639 345.272H404.868L403.782 342.212H403.725L402.639 345.272ZM409.619 348.049C408.165 348.049 407.277 346.944 407.277 345.404C407.277 343.846 408.202 342.75 409.601 342.75C410.696 342.75 411.509 343.392 411.641 344.365H410.828C410.715 343.893 410.3 343.468 409.619 343.468C408.703 343.468 408.089 344.224 408.089 345.376C408.089 346.566 408.684 347.322 409.619 347.322C410.224 347.322 410.687 347.001 410.828 346.434H411.641C411.509 347.35 410.762 348.049 409.619 348.049ZM414.739 348.049C413.284 348.049 412.397 346.944 412.397 345.404C412.397 343.846 413.322 342.75 414.72 342.75C415.816 342.75 416.628 343.392 416.761 344.365H415.948C415.835 343.893 415.419 343.468 414.739 343.468C413.823 343.468 413.209 344.224 413.209 345.376C413.209 346.566 413.804 347.322 414.739 347.322C415.344 347.322 415.807 347.001 415.948 346.434H416.761C416.628 347.35 415.882 348.049 414.739 348.049ZM419.859 348.049C418.461 348.049 417.516 347.001 417.516 345.404C417.516 343.808 418.461 342.75 419.859 342.75C421.247 342.75 422.183 343.808 422.183 345.404C422.183 347.001 421.247 348.049 419.859 348.049ZM419.859 347.331C420.889 347.331 421.37 346.425 421.37 345.404C421.37 344.384 420.889 343.468 419.859 343.468C418.81 343.468 418.329 344.384 418.329 345.404C418.329 346.425 418.81 347.331 419.859 347.331ZM423.25 347.945V342.816H424.034V343.6H424.091C424.28 343.081 424.809 342.731 425.413 342.731C425.536 342.731 425.744 342.741 425.838 342.75V343.572C425.782 343.553 425.555 343.515 425.347 343.515C424.61 343.515 424.062 344.025 424.062 344.715V347.945H423.25ZM428.408 348.049C427.132 348.049 426.226 347.02 426.226 345.395C426.226 343.77 427.132 342.75 428.417 342.75C429.409 342.75 429.73 343.355 429.9 343.628H429.957V341.106H430.778V347.945H429.985V347.161H429.9C429.721 347.445 429.39 348.049 428.408 348.049ZM428.521 347.322C429.456 347.322 429.985 346.528 429.985 345.376C429.985 344.242 429.475 343.477 428.521 343.477C427.539 343.477 427.047 344.309 427.047 345.376C427.047 346.472 427.548 347.322 428.521 347.322ZM432.186 347.945V342.816H432.998V347.945H432.186ZM432.592 341.966C432.28 341.966 432.025 341.73 432.025 341.428C432.025 341.125 432.28 340.889 432.592 340.889C432.904 340.889 433.168 341.125 433.168 341.428C433.168 341.73 432.904 341.966 432.592 341.966ZM436.389 348.049C434.991 348.049 434.047 347.001 434.047 345.404C434.047 343.808 434.991 342.75 436.389 342.75C437.778 342.75 438.713 343.808 438.713 345.404C438.713 347.001 437.778 348.049 436.389 348.049ZM436.389 347.331C437.419 347.331 437.901 346.425 437.901 345.404C437.901 344.384 437.419 343.468 436.389 343.468C435.341 343.468 434.859 344.384 434.859 345.404C434.859 346.425 435.341 347.331 436.389 347.331ZM440.593 344.866V347.945H439.781V342.816H440.565V343.619H440.631C440.876 343.1 441.349 342.75 442.133 342.75C443.172 342.75 443.861 343.383 443.861 344.686V347.945H443.049V344.743C443.049 343.95 442.614 343.477 441.887 343.477C441.141 343.477 440.593 343.978 440.593 344.866ZM449.831 342.816V343.496H448.754V346.472C448.754 347.133 449.075 347.237 449.425 347.237C449.576 347.237 449.784 347.227 449.907 347.218V347.974C449.784 347.993 449.576 348.011 449.34 348.011C448.66 348.011 447.932 347.586 447.932 346.68V343.496H447.158V342.816H447.932V341.588H448.754V342.816H449.831ZM450.88 347.945V342.816H451.692V347.945H450.88ZM451.286 341.966C450.974 341.966 450.719 341.73 450.719 341.428C450.719 341.125 450.974 340.889 451.286 340.889C451.598 340.889 451.862 341.125 451.862 341.428C451.862 341.73 451.598 341.966 451.286 341.966ZM455.225 342.816V343.496H454.148V346.472C454.148 347.133 454.469 347.237 454.819 347.237C454.97 347.237 455.178 347.227 455.3 347.218V347.974C455.178 347.993 454.97 348.011 454.734 348.011C454.053 348.011 453.326 347.586 453.326 346.68V343.496H452.552V342.816H453.326V341.588H454.148V342.816H455.225ZM457.199 341.106V347.945H456.387V341.106H457.199ZM460.647 348.049C459.164 348.049 458.248 347.001 458.248 345.423C458.248 343.846 459.173 342.75 460.571 342.75C461.648 342.75 462.782 343.411 462.782 345.31V345.65H459.06C459.098 346.736 459.731 347.331 460.647 347.331C461.261 347.331 461.648 347.067 461.837 346.746H462.706C462.46 347.52 461.705 348.049 460.647 348.049ZM459.069 344.96H461.96C461.96 344.101 461.412 343.468 460.571 343.468C459.683 343.468 459.117 344.167 459.069 344.96Z" fill="var(--sol-element-primary)"/>
<rect width="447" height="0.690891" transform="translate(373 360.236)" fill="var(--sol-border-normal-variant)"/>
<rect width="447" height="31.2727" transform="translate(373 360.928)" fill="var(--sol-surface)"/>
<mask id="mask3_1663_176644" style="mask-type:alpha" maskUnits="userSpaceOnUse" x="384" y="370" width="12" height="12">
<path d="M391.208 375.975C391.343 376.109 391.343 376.328 391.208 376.463L388.445 379.227L387.956 378.738L390.475 376.219L387.956 373.699L388.445 373.211L391.208 375.975Z" fill="var(--sol-element-primary)"/>
</mask>
<g mask="url(#mask3_1663_176644)">
<rect x="384.055" y="370.691" width="11.0545" height="11.0545" fill="var(--sol-element-quaternary)"/>
</g>
<path d="M401.694 379.219H400.806L403.309 372.38H404.207L406.71 379.219H405.813L405.133 377.292H402.384L401.694 379.219ZM402.639 376.546H404.868L403.782 373.485H403.725L402.639 376.546ZM409.619 379.323C408.165 379.323 407.277 378.217 407.277 376.678C407.277 375.119 408.202 374.023 409.601 374.023C410.696 374.023 411.509 374.666 411.641 375.639H410.828C410.715 375.166 410.3 374.741 409.619 374.741C408.703 374.741 408.089 375.497 408.089 376.649C408.089 377.84 408.684 378.595 409.619 378.595C410.224 378.595 410.687 378.274 410.828 377.707H411.641C411.509 378.624 410.762 379.323 409.619 379.323ZM414.739 379.323C413.284 379.323 412.397 378.217 412.397 376.678C412.397 375.119 413.322 374.023 414.72 374.023C415.816 374.023 416.628 374.666 416.761 375.639H415.948C415.835 375.166 415.419 374.741 414.739 374.741C413.823 374.741 413.209 375.497 413.209 376.649C413.209 377.84 413.804 378.595 414.739 378.595C415.344 378.595 415.807 378.274 415.948 377.707H416.761C416.628 378.624 415.882 379.323 414.739 379.323ZM419.859 379.323C418.461 379.323 417.516 378.274 417.516 376.678C417.516 375.081 418.461 374.023 419.859 374.023C421.247 374.023 422.183 375.081 422.183 376.678C422.183 378.274 421.247 379.323 419.859 379.323ZM419.859 378.605C420.889 378.605 421.37 377.698 421.37 376.678C421.37 375.658 420.889 374.741 419.859 374.741C418.81 374.741 418.329 375.658 418.329 376.678C418.329 377.698 418.81 378.605 419.859 378.605ZM423.25 379.219V374.09H424.034V374.874H424.091C424.28 374.354 424.809 374.005 425.413 374.005C425.536 374.005 425.744 374.014 425.838 374.023V374.845C425.782 374.826 425.555 374.789 425.347 374.789C424.61 374.789 424.062 375.299 424.062 375.988V379.219H423.25ZM428.408 379.323C427.132 379.323 426.226 378.293 426.226 376.668C426.226 375.044 427.132 374.023 428.417 374.023C429.409 374.023 429.73 374.628 429.9 374.902H429.957V372.38H430.778V379.219H429.985V378.435H429.9C429.721 378.718 429.39 379.323 428.408 379.323ZM428.521 378.595C429.456 378.595 429.985 377.802 429.985 376.649C429.985 375.516 429.475 374.751 428.521 374.751C427.539 374.751 427.047 375.582 427.047 376.649C427.047 377.745 427.548 378.595 428.521 378.595ZM432.186 379.219V374.09H432.998V379.219H432.186ZM432.592 373.239C432.28 373.239 432.025 373.003 432.025 372.701C432.025 372.399 432.28 372.163 432.592 372.163C432.904 372.163 433.168 372.399 433.168 372.701C433.168 373.003 432.904 373.239 432.592 373.239ZM436.389 379.323C434.991 379.323 434.047 378.274 434.047 376.678C434.047 375.081 434.991 374.023 436.389 374.023C437.778 374.023 438.713 375.081 438.713 376.678C438.713 378.274 437.778 379.323 436.389 379.323ZM436.389 378.605C437.419 378.605 437.901 377.698 437.901 376.678C437.901 375.658 437.419 374.741 436.389 374.741C435.341 374.741 434.859 375.658 434.859 376.678C434.859 377.698 435.341 378.605 436.389 378.605ZM440.593 376.139V379.219H439.781V374.09H440.565V374.892H440.631C440.876 374.373 441.349 374.023 442.133 374.023C443.172 374.023 443.861 374.656 443.861 375.96V379.219H443.049V376.017C443.049 375.223 442.614 374.751 441.887 374.751C441.141 374.751 440.593 375.251 440.593 376.139ZM449.831 374.09V374.77H448.754V377.745C448.754 378.406 449.075 378.51 449.425 378.51C449.576 378.51 449.784 378.501 449.907 378.491V379.247C449.784 379.266 449.576 379.285 449.34 379.285C448.66 379.285 447.932 378.86 447.932 377.953V374.77H447.158V374.09H447.932V372.862H448.754V374.09H449.831ZM450.88 379.219V374.09H451.692V379.219H450.88ZM451.286 373.239C450.974 373.239 450.719 373.003 450.719 372.701C450.719 372.399 450.974 372.163 451.286 372.163C451.598 372.163 451.862 372.399 451.862 372.701C451.862 373.003 451.598 373.239 451.286 373.239ZM455.225 374.09V374.77H454.148V377.745C454.148 378.406 454.469 378.51 454.819 378.51C454.97 378.51 455.178 378.501 455.3 378.491V379.247C455.178 379.266 454.97 379.285 454.734 379.285C454.053 379.285 453.326 378.86 453.326 377.953V374.77H452.552V374.09H453.326V372.862H454.148V374.09H455.225ZM457.199 372.38V379.219H456.387V372.38H457.199ZM460.647 379.323C459.164 379.323 458.248 378.274 458.248 376.697C458.248 375.119 459.173 374.023 460.571 374.023C461.648 374.023 462.782 374.685 462.782 376.583V376.923H459.06C459.098 378.01 459.731 378.605 460.647 378.605C461.261 378.605 461.648 378.34 461.837 378.019H462.706C462.46 378.794 461.705 379.323 460.647 379.323ZM459.069 376.234H461.96C461.96 375.374 461.412 374.741 460.571 374.741C459.683 374.741 459.117 375.44 459.069 376.234Z" fill="var(--sol-element-primary)"/>
<rect width="447" height="0.690891" transform="translate(373 391.51)" fill="var(--sol-border-normal-variant)"/>
<rect width="447" height="31.2727" transform="translate(373 392.199)" fill="var(--sol-surface)"/>
<mask id="mask4_1663_176644" style="mask-type:alpha" maskUnits="userSpaceOnUse" x="384" y="401" width="12" height="13">
<path d="M391.208 407.246C391.343 407.381 391.343 407.6 391.208 407.735L388.445 410.498L387.956 410.01L390.475 407.49L387.956 404.971L388.445 404.482L391.208 407.246Z" fill="var(--sol-element-primary)"/>
</mask>
<g mask="url(#mask4_1663_176644)">
<rect x="384.055" y="401.963" width="11.0545" height="11.0545" fill="var(--sol-element-quaternary)"/>
</g>
<path d="M401.694 410.49H400.806L403.309 403.651H404.207L406.71 410.49H405.813L405.133 408.563H402.384L401.694 410.49ZM402.639 407.817H404.868L403.782 404.756H403.725L402.639 407.817ZM409.619 410.594C408.165 410.594 407.277 409.489 407.277 407.949C407.277 406.391 408.202 405.295 409.601 405.295C410.696 405.295 411.509 405.937 411.641 406.91H410.828C410.715 406.438 410.3 406.013 409.619 406.013C408.703 406.013 408.089 406.769 408.089 407.921C408.089 409.111 408.684 409.867 409.619 409.867C410.224 409.867 410.687 409.546 410.828 408.979H411.641C411.509 409.895 410.762 410.594 409.619 410.594ZM414.739 410.594C413.284 410.594 412.397 409.489 412.397 407.949C412.397 406.391 413.322 405.295 414.72 405.295C415.816 405.295 416.628 405.937 416.761 406.91H415.948C415.835 406.438 415.419 406.013 414.739 406.013C413.823 406.013 413.209 406.769 413.209 407.921C413.209 409.111 413.804 409.867 414.739 409.867C415.344 409.867 415.807 409.546 415.948 408.979H416.761C416.628 409.895 415.882 410.594 414.739 410.594ZM419.859 410.594C418.461 410.594 417.516 409.546 417.516 407.949C417.516 406.353 418.461 405.295 419.859 405.295C421.247 405.295 422.183 406.353 422.183 407.949C422.183 409.546 421.247 410.594 419.859 410.594ZM419.859 409.876C420.889 409.876 421.37 408.969 421.37 407.949C421.37 406.929 420.889 406.013 419.859 406.013C418.81 406.013 418.329 406.929 418.329 407.949C418.329 408.969 418.81 409.876 419.859 409.876ZM423.25 410.49V405.361H424.034V406.145H424.091C424.28 405.626 424.809 405.276 425.413 405.276C425.536 405.276 425.744 405.285 425.838 405.295V406.117C425.782 406.098 425.555 406.06 425.347 406.06C424.61 406.06 424.062 406.57 424.062 407.26V410.49H423.25ZM428.408 410.594C427.132 410.594 426.226 409.565 426.226 407.94C426.226 406.315 427.132 405.295 428.417 405.295C429.409 405.295 429.73 405.899 429.9 406.173H429.957V403.651H430.778V410.49H429.985V409.706H429.9C429.721 409.99 429.39 410.594 428.408 410.594ZM428.521 409.867C429.456 409.867 429.985 409.073 429.985 407.921C429.985 406.787 429.475 406.022 428.521 406.022C427.539 406.022 427.047 406.854 427.047 407.921C427.047 409.017 427.548 409.867 428.521 409.867ZM432.186 410.49V405.361H432.998V410.49H432.186ZM432.592 404.511C432.28 404.511 432.025 404.275 432.025 403.972C432.025 403.67 432.28 403.434 432.592 403.434C432.904 403.434 433.168 403.67 433.168 403.972C433.168 404.275 432.904 404.511 432.592 404.511ZM436.389 410.594C434.991 410.594 434.047 409.546 434.047 407.949C434.047 406.353 434.991 405.295 436.389 405.295C437.778 405.295 438.713 406.353 438.713 407.949C438.713 409.546 437.778 410.594 436.389 410.594ZM436.389 409.876C437.419 409.876 437.901 408.969 437.901 407.949C437.901 406.929 437.419 406.013 436.389 406.013C435.341 406.013 434.859 406.929 434.859 407.949C434.859 408.969 435.341 409.876 436.389 409.876ZM440.593 407.411V410.49H439.781V405.361H440.565V406.164H440.631C440.876 405.644 441.349 405.295 442.133 405.295C443.172 405.295 443.861 405.928 443.861 407.231V410.49H443.049V407.288C443.049 406.495 442.614 406.022 441.887 406.022C441.141 406.022 440.593 406.523 440.593 407.411ZM449.831 405.361V406.041H448.754V409.017C448.754 409.678 449.075 409.782 449.425 409.782C449.576 409.782 449.784 409.772 449.907 409.763V410.519C449.784 410.537 449.576 410.556 449.34 410.556C448.66 410.556 447.932 410.131 447.932 409.224V406.041H447.158V405.361H447.932V404.133H448.754V405.361H449.831ZM450.88 410.49V405.361H451.692V410.49H450.88ZM451.286 404.511C450.974 404.511 450.719 404.275 450.719 403.972C450.719 403.67 450.974 403.434 451.286 403.434C451.598 403.434 451.862 403.67 451.862 403.972C451.862 404.275 451.598 404.511 451.286 404.511ZM455.225 405.361V406.041H454.148V409.017C454.148 409.678 454.469 409.782 454.819 409.782C454.97 409.782 455.178 409.772 455.3 409.763V410.519C455.178 410.537 454.97 410.556 454.734 410.556C454.053 410.556 453.326 410.131 453.326 409.224V406.041H452.552V405.361H453.326V404.133H454.148V405.361H455.225ZM457.199 403.651V410.49H456.387V403.651H457.199ZM460.647 410.594C459.164 410.594 458.248 409.546 458.248 407.968C458.248 406.391 459.173 405.295 460.571 405.295C461.648 405.295 462.782 405.956 462.782 407.855V408.195H459.06C459.098 409.281 459.731 409.876 460.647 409.876C461.261 409.876 461.648 409.612 461.837 409.291H462.706C462.46 410.065 461.705 410.594 460.647 410.594ZM459.069 407.505H461.96C461.96 406.646 461.412 406.013 460.571 406.013C459.683 406.013 459.117 406.712 459.069 407.505Z" fill="var(--sol-element-primary)"/>
<rect width="447" height="0.690891" transform="translate(373 422.781)" fill="var(--sol-border-normal-variant)"/>
</g>
<path d="M222 177.5H832C833.933 177.5 835.5 179.067 835.5 181V510C835.5 511.933 833.933 513.5 832 513.5H222C220.067 513.5 218.5 511.933 218.5 510V181C218.5 179.067 220.067 177.5 222 177.5Z" stroke="var(--sol-border-solid-variant)"/>
</g>
</g>
<path d="M56 48.5H844C848.142 48.5 851.5 51.8579 851.5 56V522C851.5 526.142 848.142 529.5 844 529.5H56C51.8579 529.5 48.5 526.142 48.5 522V56L48.5098 55.6143C48.7105 51.6514 51.9872 48.5 56 48.5Z" stroke="var(--sol-border-solid-variant)"/>
<defs>
<filter id="filter0_d_1663_176644" x="48" y="73.7891" width="804" height="23.6447" filterUnits="userSpaceOnUse" color-interpolation-filters="sRGB">
<feFlood flood-opacity="0" result="BackgroundImageFix"/>
<feColorMatrix in="SourceAlpha" type="matrix" values="0 0 0 0 0 0 0 0 0 0 0 0 0 0 0 0 0 0 127 0" result="hardAlpha"/>
<feOffset dy="0.644737"/>
<feColorMatrix type="matrix" values="0 0 0 0 0.937725 0 0 0 0 0.944105 0 0 0 0 0.956863 0 0 0 1 0"/>
<feBlend mode="normal" in2="BackgroundImageFix" result="effect1_dropShadow_1663_176644"/>
<feBlend mode="normal" in="SourceGraphic" in2="effect1_dropShadow_1663_176644" result="shape"/>
</filter>
<clipPath id="clip0_1663_176644">
<path d="M48 56C48 51.5817 51.5817 48 56 48H844C848.418 48 852 51.5817 852 56V522C852 526.418 848.418 530 844 530H56C51.5817 530 48 526.418 48 522V56Z" fill="var(--sol-surface)"/>
</clipPath>
<clipPath id="clip1_1663_176644">
<rect width="10.3158" height="10.3158" fill="var(--sol-surface)" transform="translate(783.237 80.209)"/>
</clipPath>
<clipPath id="clip2_1663_176644">
<rect width="804" height="25.7895" fill="var(--sol-surface)" transform="translate(48 48)"/>
</clipPath>
<clipPath id="clip3_1663_176644">
<rect width="804" height="433" fill="var(--sol-surface)" transform="translate(48 97)"/>
</clipPath>
<clipPath id="clip4_1663_176644">
<path d="M218 181C218 178.791 219.791 177 222 177H832C834.209 177 836 178.791 836 181V510C836 512.209 834.209 514 832 514H222C219.791 514 218 512.209 218 510V181Z" fill="var(--sol-surface)"/>
</clipPath>
</defs>
</svg>
