<svg width="442" height="130" viewBox="0 0 442 130" fill="none" xmlns="http://www.w3.org/2000/svg">
<style>
:root {
  --sol-primary: #282363;
  --sol-fill-active: #4d469a;
  --sol-surface: #ffffff;
  --sol-element-primary: #161616;
  --sol-element-quaternary: #858585;
  --sol-border-solid-variant: #e0e0e0;
  --sol-error: #e76067;
  --sol-static-white: #ffffff;
  --sol-static-black: #000000;
}
@media (prefers-color-scheme: dark) {
  :root {
    --sol-primary: #9791d4;
    --sol-fill-active: #7b74c4;
    --sol-surface: #161616;
    --sol-element-primary: #ffffff;
    --sol-element-quaternary: rgba(255, 255, 255, 0.5);
    --sol-border-solid-variant: #3d3d3d;
    --sol-error: #ee7a80;
  }
}
</style>
<g clip-path="url(#clip0_1665_176510)">
<path d="M113 53C113 50.7909 114.791 49 117 49H173C175.209 49 177 50.7909 177 53V77C177 79.2091 175.209 81 173 81H117C114.791 81 113 79.2091 113 77V53Z" fill="var(--sol-error)"/>
<path d="M130.85 69V60.5156H134.037C135.982 60.5156 137.025 61.6055 137.025 63.2227C137.025 64.377 136.498 65.2324 135.502 65.6367L137.33 69H135.631L133.967 65.8945H132.373V69H130.85ZM132.373 64.6172H133.803C134.951 64.6172 135.467 64.125 135.467 63.2227C135.467 62.3203 134.951 61.793 133.803 61.793H132.373V64.6172ZM140.998 69.1289C139.076 69.1289 137.904 67.8516 137.904 65.8594C137.904 63.8906 139.1 62.5547 140.916 62.5547C142.475 62.5547 143.822 63.5273 143.822 65.7656V66.2344H139.381C139.398 67.3184 140.037 67.957 141.01 67.957C141.666 67.957 142.111 67.6758 142.299 67.3008H143.764C143.494 68.4023 142.475 69.1289 140.998 69.1289ZM139.393 65.2148H142.393C142.381 64.3477 141.807 63.7148 140.939 63.7148C140.037 63.7148 139.439 64.4004 139.393 65.2148ZM148.158 62.6367V63.7852H146.904V67.0898C146.904 67.6992 147.209 67.8281 147.584 67.8281C147.76 67.8281 148.053 67.8164 148.24 67.8047V69.0234C148.064 69.0586 147.771 69.082 147.396 69.082C146.271 69.082 145.404 68.5312 145.416 67.3359V63.7852H144.502V62.6367H145.416V61.1133H146.904V62.6367H148.158ZM149.307 69V62.6367H150.76V63.6914H150.83C151.053 62.9648 151.674 62.543 152.4 62.543C152.564 62.543 152.799 62.5547 152.939 62.5781V63.9609C152.811 63.9141 152.494 63.8672 152.248 63.8672C151.416 63.8672 150.807 64.4414 150.807 65.25V69H149.307ZM154.932 71.3906C154.639 71.3906 154.346 71.3789 154.158 71.3555V70.1602C154.346 70.1719 154.592 70.1836 154.791 70.1836C155.154 70.1836 155.459 70.1484 155.717 69.4688L155.846 69.1289L153.525 62.6367H155.107L156.584 67.4414H156.654L158.131 62.6367H159.713L157.158 69.7734C156.795 70.793 156.127 71.3906 154.932 71.3906Z" fill="var(--sol-surface)"/>
</g>
<g clip-path="url(#clip1_1665_176510)">
<path d="M189 53C189 50.7909 190.791 49 193 49H249C251.209 49 253 50.7909 253 53V77C253 79.2091 251.209 81 249 81H193C190.791 81 189 79.2091 189 77V53Z" fill="var(--sol-error)"/>
<path d="M208.232 63.375C208.057 62.3555 207.236 61.7695 206.205 61.7695C204.811 61.7695 203.838 62.8359 203.838 64.7578C203.838 66.7031 204.822 67.7461 206.205 67.7461C207.213 67.7461 208.033 67.1836 208.232 66.1875H209.768C209.533 67.8164 208.197 69.1172 206.182 69.1172C203.943 69.1172 202.303 67.4883 202.303 64.7578C202.303 62.0156 203.967 60.3984 206.182 60.3984C208.057 60.3984 209.51 61.4883 209.768 63.375H208.232ZM210.717 67.207C210.717 65.7773 211.9 65.3555 213.084 65.2852C213.523 65.2559 214.438 65.2031 214.713 65.1914V64.6875C214.713 64.0547 214.303 63.6914 213.564 63.6914C212.896 63.6914 212.486 63.9961 212.369 64.4531H210.928C211.033 63.375 212.006 62.5547 213.6 62.5547C214.807 62.5547 216.201 63.0469 216.201 64.7461V69H214.771V68.1211H214.725C214.443 68.6602 213.846 69.1289 212.85 69.1289C211.631 69.1289 210.717 68.4609 210.717 67.207ZM212.158 67.1953C212.158 67.7461 212.604 68.0273 213.236 68.0273C214.139 68.0273 214.725 67.4297 214.725 66.7148V66.1875L213.318 66.2812C212.604 66.3398 212.158 66.6328 212.158 67.1953ZM219.107 65.2734V69H217.607V62.6367H219.037V63.7148H219.119C219.412 63 220.057 62.5547 221.006 62.5547C222.33 62.5547 223.197 63.4219 223.186 64.9453V69H221.697V65.1797C221.697 64.3242 221.24 63.8203 220.455 63.8203C219.658 63.8203 219.107 64.3477 219.107 65.2734ZM227.393 69.1289C225.494 69.1289 224.346 67.7695 224.346 65.8477C224.346 63.9023 225.529 62.5547 227.393 62.5547C228.939 62.5547 230.018 63.457 230.123 64.8281H228.693C228.576 64.2188 228.131 63.75 227.404 63.75C226.479 63.75 225.857 64.5352 225.857 65.8125C225.857 67.125 226.467 67.9102 227.404 67.9102C228.072 67.9102 228.564 67.5234 228.693 66.832H230.123C230.006 68.1797 228.986 69.1289 227.393 69.1289ZM234.072 69.1289C232.15 69.1289 230.979 67.8516 230.979 65.8594C230.979 63.8906 232.174 62.5547 233.99 62.5547C235.549 62.5547 236.896 63.5273 236.896 65.7656V66.2344H232.455C232.473 67.3184 233.111 67.957 234.084 67.957C234.74 67.957 235.186 67.6758 235.373 67.3008H236.838C236.568 68.4023 235.549 69.1289 234.072 69.1289ZM232.467 65.2148H235.467C235.455 64.3477 234.881 63.7148 234.014 63.7148C233.111 63.7148 232.514 64.4004 232.467 65.2148ZM239.557 60.5156V69H238.057V60.5156H239.557Z" fill="var(--sol-surface)"/>
</g>
<g clip-path="url(#clip2_1665_176510)">
<path d="M265 53C265 50.7909 266.791 49 269 49H325C327.209 49 329 50.7909 329 53V77C329 79.2091 327.209 81 325 81H269C266.791 81 265 79.2091 265 77V53Z" fill="var(--sol-error)"/>
<path d="M289.453 62.8477C289.383 62.1211 288.762 61.6992 287.848 61.6992C286.887 61.6992 286.301 62.168 286.301 62.8008C286.301 63.5156 287.051 63.8086 287.754 63.9727L288.551 64.1836C289.816 64.4766 291.035 65.1445 291.035 66.6211C291.035 68.1094 289.863 69.1289 287.824 69.1289C285.844 69.1289 284.602 68.1797 284.531 66.5039H286.031C286.102 67.3945 286.852 67.8281 287.812 67.8281C288.82 67.8281 289.512 67.3359 289.512 66.6094C289.512 65.9414 288.891 65.6602 287.977 65.4258L287.016 65.1797C285.621 64.8164 284.754 64.1133 284.754 62.8945C284.754 61.3945 286.09 60.3984 287.871 60.3984C289.676 60.3984 290.895 61.418 290.918 62.8477H289.453ZM295.406 62.6367V63.7852H294.152V67.0898C294.152 67.6992 294.457 67.8281 294.832 67.8281C295.008 67.8281 295.301 67.8164 295.488 67.8047V69.0234C295.312 69.0586 295.02 69.082 294.645 69.082C293.52 69.082 292.652 68.5312 292.664 67.3359V63.7852H291.75V62.6367H292.664V61.1133H294.152V62.6367H295.406ZM299.273 69.1289C297.422 69.1289 296.227 67.8164 296.227 65.8477C296.227 63.8672 297.422 62.5547 299.273 62.5547C301.137 62.5547 302.32 63.8672 302.32 65.8477C302.32 67.8164 301.137 69.1289 299.273 69.1289ZM299.285 67.9336C300.305 67.9336 300.809 67.0078 300.809 65.8359C300.809 64.6758 300.305 63.7383 299.285 63.7383C298.242 63.7383 297.738 64.6758 297.738 65.8359C297.738 67.0078 298.242 67.9336 299.285 67.9336ZM303.48 71.3906V62.6367H304.945V63.6797H305.039C305.273 63.2227 305.742 62.5547 306.867 62.5547C308.332 62.5547 309.492 63.7031 309.492 65.8242C309.492 67.9219 308.367 69.1172 306.867 69.1172C305.766 69.1172 305.273 68.4609 305.039 67.9922H304.98V71.3906H303.48ZM304.945 65.8125C304.945 67.0547 305.484 67.8867 306.457 67.8867C307.441 67.8867 307.969 67.0195 307.969 65.8125C307.969 64.6289 307.453 63.7734 306.457 63.7734C305.484 63.7734 304.945 64.582 304.945 65.8125Z" fill="var(--sol-surface)"/>
</g>
<defs>
<clipPath id="clip0_1665_176510">
<path d="M113 53C113 50.7909 114.791 49 117 49H173C175.209 49 177 50.7909 177 53V77C177 79.2091 175.209 81 173 81H117C114.791 81 113 79.2091 113 77V53Z" fill="var(--sol-surface)"/>
</clipPath>
<clipPath id="clip1_1665_176510">
<path d="M189 53C189 50.7909 190.791 49 193 49H249C251.209 49 253 50.7909 253 53V77C253 79.2091 251.209 81 249 81H193C190.791 81 189 79.2091 189 77V53Z" fill="var(--sol-surface)"/>
</clipPath>
<clipPath id="clip2_1665_176510">
<path d="M265 53C265 50.7909 266.791 49 269 49H325C327.209 49 329 50.7909 329 53V77C329 79.2091 327.209 81 325 81H269C266.791 81 265 79.2091 265 77V53Z" fill="var(--sol-surface)"/>
</clipPath>
</defs>
</svg>
