<svg width="442" height="130" viewBox="0 0 442 130" fill="none" xmlns="http://www.w3.org/2000/svg">
<style>
:root {
  --sol-primary: #282363;
  --sol-fill-active: #4d469a;
  --sol-surface: #ffffff;
  --sol-element-primary: #161616;
  --sol-element-quaternary: #858585;
  --sol-border-solid-variant: #e0e0e0;
  --sol-error: #e76067;
  --sol-static-white: #ffffff;
  --sol-static-black: #000000;
}
@media (prefers-color-scheme: dark) {
  :root {
    --sol-primary: #9791d4;
    --sol-fill-active: #7b74c4;
    --sol-surface: #161616;
    --sol-element-primary: #ffffff;
    --sol-element-quaternary: rgba(255, 255, 255, 0.5);
    --sol-border-solid-variant: #3d3d3d;
    --sol-error: #ee7a80;
  }
}
</style>
<g clip-path="url(#clip0_1665_176505)">
<path d="M189 53C189 50.7909 190.791 49 193 49H249C251.209 49 253 50.7909 253 53V77C253 79.2091 251.209 81 249 81H193C190.791 81 189 79.2091 189 77V53Z" fill="var(--sol-error)"/>
<path d="M206.686 69H203.803V60.5156H206.732C209.264 60.5156 210.799 62.1094 210.799 64.7461C210.799 67.3945 209.264 69 206.686 69ZM205.326 67.6758H206.604C208.373 67.6758 209.275 66.7031 209.275 64.7461C209.275 62.8008 208.373 61.8398 206.65 61.8398H205.326V67.6758ZM214.9 69.1289C212.979 69.1289 211.807 67.8516 211.807 65.8594C211.807 63.8906 213.002 62.5547 214.818 62.5547C216.377 62.5547 217.725 63.5273 217.725 65.7656V66.2344H213.283C213.301 67.3184 213.939 67.957 214.912 67.957C215.568 67.957 216.014 67.6758 216.201 67.3008H217.666C217.396 68.4023 216.377 69.1289 214.9 69.1289ZM213.295 65.2148H216.295C216.283 64.3477 215.709 63.7148 214.842 63.7148C213.939 63.7148 213.342 64.4004 213.295 65.2148ZM220.385 60.5156V69H218.885V60.5156H220.385ZM224.639 69.1289C222.717 69.1289 221.545 67.8516 221.545 65.8594C221.545 63.8906 222.74 62.5547 224.557 62.5547C226.115 62.5547 227.463 63.5273 227.463 65.7656V66.2344H223.021C223.039 67.3184 223.678 67.957 224.65 67.957C225.307 67.957 225.752 67.6758 225.939 67.3008H227.404C227.135 68.4023 226.115 69.1289 224.639 69.1289ZM223.033 65.2148H226.033C226.021 64.3477 225.447 63.7148 224.58 63.7148C223.678 63.7148 223.08 64.4004 223.033 65.2148ZM231.799 62.6367V63.7852H230.545V67.0898C230.545 67.6992 230.85 67.8281 231.225 67.8281C231.4 67.8281 231.693 67.8164 231.881 67.8047V69.0234C231.705 69.0586 231.412 69.082 231.037 69.082C229.912 69.082 229.045 68.5312 229.057 67.3359V63.7852H228.143V62.6367H229.057V61.1133H230.545V62.6367H231.799ZM235.713 69.1289C233.791 69.1289 232.619 67.8516 232.619 65.8594C232.619 63.8906 233.814 62.5547 235.631 62.5547C237.189 62.5547 238.537 63.5273 238.537 65.7656V66.2344H234.096C234.113 67.3184 234.752 67.957 235.725 67.957C236.381 67.957 236.826 67.6758 237.014 67.3008H238.479C238.209 68.4023 237.189 69.1289 235.713 69.1289ZM234.107 65.2148H237.107C237.096 64.3477 236.521 63.7148 235.654 63.7148C234.752 63.7148 234.154 64.4004 234.107 65.2148Z" fill="var(--sol-surface)"/>
</g>
<defs>
<clipPath id="clip0_1665_176505">
<path d="M189 53C189 50.7909 190.791 49 193 49H249C251.209 49 253 50.7909 253 53V77C253 79.2091 251.209 81 249 81H193C190.791 81 189 79.2091 189 77V53Z" fill="var(--sol-surface)"/>
</clipPath>
</defs>
</svg>
