<svg width="900" height="253" viewBox="0 0 900 253" fill="none" xmlns="http://www.w3.org/2000/svg">
<style>
:root {
  --sol-primary: #282363;
  --sol-fill-active: #4d469a;
  --sol-surface: #ffffff;
  --sol-element-primary: #161616;
  --sol-element-quaternary: #858585;
  --sol-border-solid-variant: #e0e0e0;
  --sol-error: #e76067;
  --sol-static-white: #ffffff;
  --sol-static-black: #000000;
}
@media (prefers-color-scheme: dark) {
  :root {
    --sol-primary: #9791d4;
    --sol-fill-active: #7b74c4;
    --sol-surface: #161616;
    --sol-element-primary: #ffffff;
    --sol-element-quaternary: rgba(255, 255, 255, 0.5);
    --sol-border-solid-variant: #3d3d3d;
    --sol-error: #ee7a80;
  }
}
</style>
<g clip-path="url(#clip0_1665_175653)">
<path d="M395 112C395 109.791 396.79 108 399 108H501C503.209 108 505 109.791 505 112V140C505 142.209 503.209 144 501 144H399C396.79 144 395 142.209 395 140V112Z" fill="var(--sol-primary)"/>
<path d="M414.38 126.5H409.38V125.5H414.38V120.5H415.38V125.5H420.38V126.5H415.38V131.5H414.38V126.5Z" fill="var(--sol-surface)"/>
<path d="M431.578 131H429.677L433.164 121.102H435.351L438.851 131H436.951L436.13 128.553H432.398L431.578 131ZM432.876 127.117H435.652L434.298 123.125H434.216L432.876 127.117ZM442.488 131.137C440.738 131.137 439.425 129.742 439.425 127.295C439.425 124.82 440.779 123.48 442.501 123.48C443.814 123.48 444.361 124.26 444.621 124.793H444.689V121.102H446.425V131H444.716V129.824H444.621C444.347 130.371 443.773 131.137 442.488 131.137ZM442.966 129.701C444.087 129.701 444.73 128.73 444.73 127.281C444.73 125.846 444.101 124.902 442.966 124.902C441.804 124.902 441.203 125.9 441.203 127.281C441.203 128.689 441.818 129.701 442.966 129.701ZM450.951 131.137C449.201 131.137 447.888 129.742 447.888 127.295C447.888 124.82 449.242 123.48 450.964 123.48C452.277 123.48 452.824 124.26 453.083 124.793H453.152V121.102H454.888V131H453.179V129.824H453.083C452.81 130.371 452.236 131.137 450.951 131.137ZM451.429 129.701C452.55 129.701 453.193 128.73 453.193 127.281C453.193 125.846 452.564 124.902 451.429 124.902C450.267 124.902 449.666 125.9 449.666 127.281C449.666 128.689 450.281 129.701 451.429 129.701ZM464.185 125.695C464.076 125.135 463.611 124.779 462.873 124.779C462.121 124.779 461.574 125.148 461.587 125.654C461.574 126.037 461.888 126.324 462.64 126.502L463.898 126.762C465.306 127.076 465.976 127.719 465.99 128.785C465.976 130.18 464.759 131.15 462.818 131.15C460.931 131.15 459.81 130.303 459.632 128.881H461.41C461.519 129.51 462.011 129.824 462.818 129.824C463.652 129.824 464.212 129.482 464.212 128.936C464.212 128.512 463.871 128.238 463.132 128.074L461.943 127.814C460.562 127.541 459.851 126.816 459.851 125.75C459.851 124.383 461.027 123.48 462.845 123.48C464.623 123.48 465.716 124.342 465.839 125.695H464.185ZM471.021 123.576V124.916H469.558V128.771C469.558 129.482 469.914 129.633 470.351 129.633C470.556 129.633 470.898 129.619 471.117 129.605V131.027C470.912 131.068 470.57 131.096 470.132 131.096C468.82 131.096 467.808 130.453 467.822 129.059V124.916H466.755V123.576H467.822V121.799H469.558V123.576H471.021ZM475.533 131.15C473.373 131.15 471.978 129.619 471.978 127.322C471.978 125.012 473.373 123.48 475.533 123.48C477.707 123.48 479.087 125.012 479.087 127.322C479.087 129.619 477.707 131.15 475.533 131.15ZM475.546 129.756C476.736 129.756 477.324 128.676 477.324 127.309C477.324 125.955 476.736 124.861 475.546 124.861C474.33 124.861 473.742 125.955 473.742 127.309C473.742 128.676 474.33 129.756 475.546 129.756ZM480.441 131V123.576H482.136V124.807H482.218C482.478 123.959 483.203 123.467 484.05 123.467C484.242 123.467 484.515 123.48 484.679 123.508V125.121C484.529 125.066 484.16 125.012 483.873 125.012C482.902 125.012 482.191 125.682 482.191 126.625V131H480.441ZM488.781 131.15C486.539 131.15 485.171 129.66 485.171 127.336C485.171 125.039 486.566 123.48 488.685 123.48C490.503 123.48 492.076 124.615 492.076 127.227V127.773H486.894C486.915 129.038 487.66 129.783 488.794 129.783C489.56 129.783 490.08 129.455 490.298 129.018H492.007C491.693 130.303 490.503 131.15 488.781 131.15ZM486.908 126.584H490.408C490.394 125.572 489.724 124.834 488.712 124.834C487.66 124.834 486.962 125.634 486.908 126.584Z" fill="var(--sol-surface)"/>
</g>
<rect x="338.5" y="112" width="28" height="28" rx="14" fill="var(--sol-element-primary)"/>
<path d="M354.359 120.688V132H352.312V122.672H352.25L349.609 124.359V122.5L352.406 120.688H354.359Z" fill="var(--sol-surface)"/>
<path d="M366.5 125.5H406C406.276 125.5 406.5 125.724 406.5 126C406.5 126.276 406.276 126.5 406 126.5H366.5V125.5Z" fill="var(--sol-element-primary)"/>
<circle cx="404.5" cy="126" r="2" fill="var(--sol-element-primary)"/>
<path d="M502.5 126C502.5 125.724 502.723 125.5 503 125.5H522.5V126.5H503C502.723 126.5 502.5 126.276 502.5 126Z" fill="var(--sol-element-primary)"/>
<rect x="522.5" y="112" width="28" height="28" rx="14" fill="var(--sol-element-primary)"/>
<path d="M536.492 132.156C534.07 132.156 532.351 130.844 532.304 128.938H534.351C534.414 129.844 535.32 130.438 536.492 130.438C537.742 130.438 538.632 129.75 538.632 128.75C538.632 127.734 537.757 127 536.289 127H535.273V125.438H536.289C537.492 125.438 538.335 124.766 538.32 123.781C538.335 122.828 537.617 122.188 536.507 122.188C535.445 122.188 534.523 122.781 534.492 123.734H532.539C532.585 121.828 534.304 120.531 536.523 120.531C538.82 120.531 540.304 121.938 540.289 123.672C540.304 124.938 539.46 125.859 538.226 126.109V126.203C539.82 126.422 540.726 127.438 540.71 128.859C540.726 130.766 538.945 132.156 536.492 132.156Z" fill="var(--sol-surface)"/>
<circle cx="504.5" cy="126" r="2" fill="var(--sol-element-primary)"/>
<rect x="440.5" y="64" width="28" height="28" rx="14" fill="var(--sol-element-primary)"/>
<path d="M450.617 84V82.5312L454.617 78.6719C455.757 77.5312 456.351 76.8594 456.351 75.9062C456.351 74.8594 455.523 74.1875 454.414 74.1875C453.242 74.1875 452.492 74.9219 452.507 76.0625H450.57C450.554 73.9219 452.164 72.5312 454.429 72.5312C456.742 72.5312 458.304 73.9062 458.304 75.8125C458.304 77.0938 457.679 78.125 455.46 80.2188L453.445 82.2188V82.2969H458.476V84H450.617Z" fill="var(--sol-surface)"/>
<path d="M454 92H455V119.5C455 119.776 454.776 120 454.5 120C454.223 120 454 119.776 454 119.5V92Z" fill="var(--sol-element-primary)"/>
<circle cx="454.5" cy="118" r="2" fill="var(--sol-element-primary)"/>
<defs>
<clipPath id="clip0_1665_175653">
<path d="M395 112C395 109.791 396.79 108 399 108H501C503.209 108 505 109.791 505 112V140C505 142.209 503.209 144 501 144H399C396.79 144 395 142.209 395 140V112Z" fill="var(--sol-surface)"/>
</clipPath>
</defs>
</svg>
