<svg width="442" height="130" viewBox="0 0 442 130" fill="none" xmlns="http://www.w3.org/2000/svg">
<style>
:root {
  --sol-primary: #282363;
  --sol-element-brand-variant: #3a3480;
  --sol-fill-active: #4d469a;
  --sol-selected-container-variant: #f5f4fd;
  --sol-surface: #ffffff;
  --sol-secondary-container: #e8e6f8;
  --sol-element-primary: #161616;
  --sol-element-secondary: #484848;
  --sol-element-tertiary: #636363;
  --sol-element-quaternary: #858585;
  --sol-border-brand: #7b74c4;
  --sol-border-normal-variant: rgba(0, 0, 0, 0.08);
  --sol-border-solid-variant: #e0e0e0;
  --sol-border-solid: #d0d0d0;
  --sol-error-dim: #b84451;
  --sol-static-white: #ffffff;
  --sol-static-black: #000000;
}
@media (prefers-color-scheme: dark) {
  :root {
    --sol-primary: #9791d4;
    --sol-element-brand-variant: #ffffff;
    --sol-fill-active: #7b74c4;
    --sol-selected-container-variant: rgba(0, 0, 0, 0.08);
    --sol-surface: #161616;
    --sol-secondary-container: rgba(255, 255, 255, 0.16);
    --sol-element-primary: #ffffff;
    --sol-element-secondary: rgba(255, 255, 255, 0.8);
    --sol-element-tertiary: rgba(255, 255, 255, 0.6);
    --sol-element-quaternary: rgba(255, 255, 255, 0.5);
    --sol-border-brand: #7b74c4;
    --sol-border-normal-variant: rgba(255, 255, 255, 0.08);
    --sol-border-solid-variant: #3d3d3d;
    --sol-border-solid: #333333;
    --sol-error-dim: #e76067;
    --sol-static-white: #ffffff;
    --sol-static-black: #000000;
  }
}
</style>
<g clip-path="url(#clip0_1274_156739)">
<path d="M-384 46.5H408C409.933 46.5 411.5 48.067 411.5 50V126C411.5 127.933 409.933 129.5 408 129.5H-384C-385.933 129.5 -387.5 127.933 -387.5 126V50C-387.5 48.067 -385.933 46.5 -384 46.5Z" fill="var(--sol-surface)"/>
<path d="M-384 46.5H408C409.933 46.5 411.5 48.067 411.5 50V126C411.5 127.933 409.933 129.5 408 129.5H-384C-385.933 129.5 -387.5 127.933 -387.5 126V50C-387.5 48.067 -385.933 46.5 -384 46.5Z" stroke="var(--sol-border-solid-variant)"/>
<g clip-path="url(#clip1_1274_156739)">
<path d="M82 74C82 71.7909 83.7909 70 86 70H114C116.209 70 118 71.7909 118 74V102C118 104.209 116.209 106 114 106H86C83.7909 106 82 104.209 82 102V74Z" fill="var(--sol-surface)"/>
<path d="M92.7678 93.6527V91.1942H94.0178V93.6527C94.0178 93.8768 94.0181 94.0075 94.026 94.1035C94.0294 94.1453 94.0335 94.1682 94.0357 94.1784C94.0481 94.2007 94.0664 94.2187 94.0886 94.2313C94.0983 94.2335 94.1211 94.2383 94.1643 94.2419C94.2603 94.2497 94.391 94.25 94.6152 94.25H105.921C106.145 94.25 106.275 94.2497 106.371 94.2419C106.413 94.2384 106.436 94.2335 106.446 94.2313C106.469 94.2188 106.487 94.2007 106.499 94.1784C106.501 94.1683 106.506 94.1456 106.51 94.1035C106.518 94.0075 106.518 93.8768 106.518 93.6527V91.1942H107.768V93.6527C107.768 93.8562 107.769 94.0465 107.756 94.2052C107.745 94.3297 107.725 94.4654 107.676 94.6032L107.616 94.7415C107.5 94.9701 107.323 95.1615 107.105 95.2949L107.009 95.3486C106.825 95.4426 106.639 95.4742 106.473 95.4878C106.314 95.5007 106.124 95.5 105.921 95.5H94.6152C94.4116 95.5 94.2213 95.5007 94.0626 95.4878C93.9381 95.4776 93.8024 95.4571 93.6646 95.408L93.5263 95.3486C93.265 95.2155 93.0524 95.0029 92.9192 94.7415C92.8252 94.5571 92.7936 94.3712 92.78 94.2052C92.7671 94.0465 92.7678 93.8562 92.7678 93.6527ZM99.6428 80.5H100.893V90.3104L104.851 86.3521L105.735 87.2358L100.71 92.2611C100.466 92.5051 100.07 92.5051 99.8259 92.2611L94.8007 87.2358L95.6845 86.3521L99.6428 90.3104V80.5Z" fill="var(--sol-element-primary)"/>
</g>
<path d="M86 70.5H114C115.933 70.5 117.5 72.067 117.5 74V102C117.5 103.933 115.933 105.5 114 105.5H86C84.067 105.5 82.5 103.933 82.5 102V74C82.5 72.067 84.067 70.5 86 70.5Z" stroke="var(--sol-element-primary)" stroke-opacity="0.16"/>
<g clip-path="url(#clip2_1274_156739)">
<path d="M130 74C130 71.7909 131.791 70 134 70H261C263.209 70 265 71.7909 265 74V102C265 104.209 263.209 106 261 106H134C131.791 106 130 104.209 130 102V74Z" fill="var(--sol-surface)"/>
<path d="M149.714 83.8262L146.547 86.9928L145.84 86.2858L149.861 82.2656L149.937 82.2031C150.018 82.1488 150.115 82.1191 150.214 82.1191C150.347 82.1191 150.474 82.1719 150.568 82.2656L154.588 86.2858L153.881 86.9928L150.714 83.8262V91.6745H149.714V83.8262Z" fill="var(--sol-element-primary)"/>
<path d="M144.214 92.6415V90.6747H145.214V92.6415C145.214 92.8208 145.214 92.9254 145.221 93.0022C145.223 93.035 145.227 93.0531 145.228 93.0614C145.238 93.0794 145.253 93.0943 145.271 93.1044C145.279 93.1061 145.297 93.1094 145.331 93.1122C145.408 93.1185 145.513 93.1194 145.692 93.1194H154.736C154.916 93.1194 155.02 93.1185 155.097 93.1122C155.131 93.1095 155.149 93.1062 155.157 93.1044C155.175 93.0943 155.189 93.0795 155.199 93.0614C155.201 93.0532 155.205 93.0352 155.208 93.0022C155.214 92.9254 155.214 92.8208 155.214 92.6415V90.6747H156.214V92.6415C156.214 92.8043 156.215 92.9566 156.204 93.0835C156.196 93.1832 156.18 93.2916 156.141 93.4019L156.093 93.5126C156 93.6954 155.858 93.8486 155.684 93.9553L155.607 93.9983C155.46 94.0734 155.311 94.0981 155.178 94.1089C155.051 94.1193 154.899 94.1194 154.736 94.1194H145.692C145.529 94.1194 145.377 94.1193 145.25 94.1089C145.15 94.1008 145.042 94.085 144.932 94.0458L144.821 93.9983C144.612 93.8918 144.442 93.7216 144.335 93.5126C144.26 93.365 144.235 93.2164 144.224 93.0835C144.214 92.9566 144.214 92.8043 144.214 92.6415Z" fill="var(--sol-element-primary)"/>
<path d="M166.958 83.1016V93H165.181V83.1016H166.958ZM168.722 93V85.5762H170.39V86.834H170.485C170.786 85.9863 171.538 85.4805 172.522 85.4805C173.534 85.4805 174.245 85.9863 174.532 86.834H174.614C174.942 86.0137 175.763 85.4805 176.843 85.4805C178.196 85.4805 179.153 86.3555 179.153 88.0098V93H177.417V88.2832C177.417 87.3535 176.856 86.9434 176.146 86.9434C175.284 86.9434 174.792 87.5312 174.792 88.3652V93H173.097V88.2148C173.097 87.4492 172.577 86.9434 171.839 86.9434C171.087 86.9434 170.472 87.5586 170.472 88.4883V93H168.722ZM180.821 95.7891V85.5762H182.53V86.793H182.64C182.913 86.2598 183.46 85.4805 184.772 85.4805C186.481 85.4805 187.835 86.8203 187.835 89.2949C187.835 91.7422 186.522 93.1367 184.772 93.1367C183.487 93.1367 182.913 92.3711 182.64 91.8242H182.571V95.7891H180.821ZM182.53 89.2812C182.53 90.7305 183.159 91.7012 184.294 91.7012C185.442 91.7012 186.058 90.6895 186.058 89.2812C186.058 87.9004 185.456 86.9023 184.294 86.9023C183.159 86.9023 182.53 87.8457 182.53 89.2812ZM192.442 93.1504C190.282 93.1504 188.888 91.6191 188.888 89.3223C188.888 87.0117 190.282 85.4805 192.442 85.4805C194.616 85.4805 195.997 87.0117 195.997 89.3223C195.997 91.6191 194.616 93.1504 192.442 93.1504ZM192.456 91.7559C193.646 91.7559 194.233 90.6758 194.233 89.3086C194.233 87.9551 193.646 86.8613 192.456 86.8613C191.239 86.8613 190.651 87.9551 190.651 89.3086C190.651 90.6758 191.239 91.7559 192.456 91.7559ZM197.351 93V85.5762H199.046V86.8066H199.128C199.388 85.959 200.112 85.4668 200.96 85.4668C201.151 85.4668 201.425 85.4805 201.589 85.5078V87.1211C201.438 87.0664 201.069 87.0117 200.782 87.0117C199.812 87.0117 199.101 87.6816 199.101 88.625V93H197.351ZM206.743 85.5762V86.916H205.28V90.7715C205.28 91.4824 205.636 91.6328 206.073 91.6328C206.278 91.6328 206.62 91.6191 206.839 91.6055V93.0273C206.634 93.0684 206.292 93.0957 205.854 93.0957C204.542 93.0957 203.53 92.4531 203.544 91.0586V86.916H202.478V85.5762H203.544V83.7988H205.28V85.5762H206.743ZM216.874 85.8223C216.792 84.9746 216.067 84.4824 215.001 84.4824C213.88 84.4824 213.196 85.0293 213.196 85.7676C213.196 86.6016 214.071 86.9434 214.892 87.1348L215.821 87.3809C217.298 87.7227 218.72 88.502 218.72 90.2246C218.72 91.9609 217.353 93.1504 214.974 93.1504C212.663 93.1504 211.214 92.043 211.132 90.0879H212.882C212.964 91.127 213.839 91.6328 214.96 91.6328C216.136 91.6328 216.942 91.0586 216.942 90.2109C216.942 89.4316 216.218 89.1035 215.151 88.8301L214.03 88.543C212.403 88.1191 211.392 87.2988 211.392 85.877C211.392 84.127 212.95 82.9648 215.028 82.9648C217.134 82.9648 218.556 84.1543 218.583 85.8223H216.874ZM223.819 85.5762V86.916H222.356V90.7715C222.356 91.4824 222.712 91.6328 223.149 91.6328C223.354 91.6328 223.696 91.6191 223.915 91.6055V93.0273C223.71 93.0684 223.368 93.0957 222.931 93.0957C221.618 93.0957 220.606 92.4531 220.62 91.0586V86.916H219.554V85.5762H220.62V83.7988H222.356V85.5762H223.819ZM228.331 93.1504C226.171 93.1504 224.776 91.6191 224.776 89.3223C224.776 87.0117 226.171 85.4805 228.331 85.4805C230.505 85.4805 231.886 87.0117 231.886 89.3223C231.886 91.6191 230.505 93.1504 228.331 93.1504ZM228.345 91.7559C229.534 91.7559 230.122 90.6758 230.122 89.3086C230.122 87.9551 229.534 86.8613 228.345 86.8613C227.128 86.8613 226.54 87.9551 226.54 89.3086C226.54 90.6758 227.128 91.7559 228.345 91.7559ZM233.239 93V85.5762H234.935V86.8066H235.017C235.276 85.959 236.001 85.4668 236.849 85.4668C237.04 85.4668 237.313 85.4805 237.478 85.5078V87.1211C237.327 87.0664 236.958 87.0117 236.671 87.0117C235.7 87.0117 234.989 87.6816 234.989 88.625V93H233.239ZM241.579 93.1504C239.337 93.1504 237.97 91.6602 237.97 89.3359C237.97 87.0391 239.364 85.4805 241.483 85.4805C243.302 85.4805 244.874 86.6152 244.874 89.2266V89.7734H239.692C239.713 91.0381 240.458 91.7832 241.593 91.7832C242.358 91.7832 242.878 91.4551 243.097 91.0176H244.806C244.491 92.3027 243.302 93.1504 241.579 93.1504ZM239.706 88.584H243.206C243.192 87.5723 242.522 86.834 241.511 86.834C240.458 86.834 239.761 87.6338 239.706 88.584ZM250.438 87.6953C250.329 87.1348 249.864 86.7793 249.126 86.7793C248.374 86.7793 247.827 87.1484 247.841 87.6543C247.827 88.0371 248.142 88.3242 248.894 88.502L250.151 88.7617C251.56 89.0762 252.229 89.7188 252.243 90.7852C252.229 92.1797 251.013 93.1504 249.071 93.1504C247.185 93.1504 246.063 92.3027 245.886 90.8809H247.663C247.772 91.5098 248.265 91.8242 249.071 91.8242C249.905 91.8242 250.466 91.4824 250.466 90.9355C250.466 90.5117 250.124 90.2383 249.386 90.0742L248.196 89.8145C246.815 89.541 246.104 88.8164 246.104 87.75C246.104 86.3828 247.28 85.4805 249.099 85.4805C250.876 85.4805 251.97 86.3418 252.093 87.6953H250.438Z" fill="var(--sol-primary)"/>
</g>
<path d="M134 70.5H261C262.933 70.5 264.5 72.067 264.5 74V102C264.5 103.933 262.933 105.5 261 105.5H134C132.067 105.5 130.5 103.933 130.5 102V74C130.5 72.1273 131.971 70.5984 133.82 70.5049L134 70.5Z" stroke="var(--sol-element-primary)" stroke-opacity="0.16"/>
<g clip-path="url(#clip3_1274_156739)">
<path d="M277 74C277 71.7909 278.791 70 281 70H384C386.209 70 388 71.7909 388 74V102C388 104.209 386.209 106 384 106H281C278.791 106 277 104.209 277 102V74Z" fill="var(--sol-primary)"/>
<path d="M296.381 88.5H291.381V87.5H296.381V82.5H297.381V87.5H302.381V88.5H297.381V93.5H296.381V88.5Z" fill="var(--sol-surface)"/>
<path d="M313.395 93H311.494L314.98 83.1016H317.168L320.668 93H318.768L317.947 90.5527H314.215L313.395 93ZM314.693 89.1172H317.469L316.115 85.125H316.033L314.693 89.1172ZM324.305 93.1367C322.555 93.1367 321.242 91.7422 321.242 89.2949C321.242 86.8203 322.596 85.4805 324.318 85.4805C325.631 85.4805 326.178 86.2598 326.438 86.793H326.506V83.1016H328.242V93H326.533V91.8242H326.438C326.164 92.3711 325.59 93.1367 324.305 93.1367ZM324.783 91.7012C325.904 91.7012 326.547 90.7305 326.547 89.2812C326.547 87.8457 325.918 86.9023 324.783 86.9023C323.621 86.9023 323.02 87.9004 323.02 89.2812C323.02 90.6895 323.635 91.7012 324.783 91.7012ZM332.768 93.1367C331.018 93.1367 329.705 91.7422 329.705 89.2949C329.705 86.8203 331.059 85.4805 332.781 85.4805C334.094 85.4805 334.641 86.2598 334.9 86.793H334.969V83.1016H336.705V93H334.996V91.8242H334.9C334.627 92.3711 334.053 93.1367 332.768 93.1367ZM333.246 91.7012C334.367 91.7012 335.01 90.7305 335.01 89.2812C335.01 87.8457 334.381 86.9023 333.246 86.9023C332.084 86.9023 331.482 87.9004 331.482 89.2812C331.482 90.6895 332.098 91.7012 333.246 91.7012ZM347.26 85.8223C347.178 84.9746 346.453 84.4824 345.387 84.4824C344.266 84.4824 343.582 85.0293 343.582 85.7676C343.582 86.6016 344.457 86.9434 345.277 87.1348L346.207 87.3809C347.684 87.7227 349.105 88.502 349.105 90.2246C349.105 91.9609 347.738 93.1504 345.359 93.1504C343.049 93.1504 341.6 92.043 341.518 90.0879H343.268C343.35 91.127 344.225 91.6328 345.346 91.6328C346.521 91.6328 347.328 91.0586 347.328 90.2109C347.328 89.4316 346.604 89.1035 345.537 88.8301L344.416 88.543C342.789 88.1191 341.777 87.2988 341.777 85.877C341.777 84.127 343.336 82.9648 345.414 82.9648C347.52 82.9648 348.941 84.1543 348.969 85.8223H347.26ZM354.205 85.5762V86.916H352.742V90.7715C352.742 91.4824 353.098 91.6328 353.535 91.6328C353.74 91.6328 354.082 91.6191 354.301 91.6055V93.0273C354.096 93.0684 353.754 93.0957 353.316 93.0957C352.004 93.0957 350.992 92.4531 351.006 91.0586V86.916H349.939V85.5762H351.006V83.7988H352.742V85.5762H354.205ZM358.717 93.1504C356.557 93.1504 355.162 91.6191 355.162 89.3223C355.162 87.0117 356.557 85.4805 358.717 85.4805C360.891 85.4805 362.271 87.0117 362.271 89.3223C362.271 91.6191 360.891 93.1504 358.717 93.1504ZM358.73 91.7559C359.92 91.7559 360.508 90.6758 360.508 89.3086C360.508 87.9551 359.92 86.8613 358.73 86.8613C357.514 86.8613 356.926 87.9551 356.926 89.3086C356.926 90.6758 357.514 91.7559 358.73 91.7559ZM363.625 93V85.5762H365.32V86.8066H365.402C365.662 85.959 366.387 85.4668 367.234 85.4668C367.426 85.4668 367.699 85.4805 367.863 85.5078V87.1211C367.713 87.0664 367.344 87.0117 367.057 87.0117C366.086 87.0117 365.375 87.6816 365.375 88.625V93H363.625ZM371.965 93.1504C369.723 93.1504 368.355 91.6602 368.355 89.3359C368.355 87.0391 369.75 85.4805 371.869 85.4805C373.688 85.4805 375.26 86.6152 375.26 89.2266V89.7734H370.078C370.099 91.0381 370.844 91.7832 371.979 91.7832C372.744 91.7832 373.264 91.4551 373.482 91.0176H375.191C374.877 92.3027 373.688 93.1504 371.965 93.1504ZM370.092 88.584H373.592C373.578 87.5723 372.908 86.834 371.896 86.834C370.844 86.834 370.146 87.6338 370.092 88.584Z" fill="var(--sol-surface)"/>
</g>
</g>
<defs>
<clipPath id="clip0_1274_156739">
<path d="M0 8C0 3.58172 3.58172 0 8 0H434C438.418 0 442 3.58172 442 8V122C442 126.418 438.418 130 434 130H8C3.58172 130 0 126.418 0 122V8Z" fill="var(--sol-surface)"/>
</clipPath>
<clipPath id="clip1_1274_156739">
<path d="M82 74C82 71.7909 83.7909 70 86 70H114C116.209 70 118 71.7909 118 74V102C118 104.209 116.209 106 114 106H86C83.7909 106 82 104.209 82 102V74Z" fill="var(--sol-surface)"/>
</clipPath>
<clipPath id="clip2_1274_156739">
<path d="M130 74C130 71.7909 131.791 70 134 70H261C263.209 70 265 71.7909 265 74V102C265 104.209 263.209 106 261 106H134C131.791 106 130 104.209 130 102V74Z" fill="var(--sol-surface)"/>
</clipPath>
<clipPath id="clip3_1274_156739">
<path d="M277 74C277 71.7909 278.791 70 281 70H384C386.209 70 388 71.7909 388 74V102C388 104.209 386.209 106 384 106H281C278.791 106 277 104.209 277 102V74Z" fill="var(--sol-surface)"/>
</clipPath>
</defs>
</svg>
