<svg width="442" height="130" viewBox="0 0 442 130" fill="none" xmlns="http://www.w3.org/2000/svg">
<style>
:root {
  --sol-primary: #282363;
  --sol-fill-active: #4d469a;
  --sol-surface: #ffffff;
  --sol-element-primary: #161616;
  --sol-element-quaternary: #858585;
  --sol-border-solid-variant: #e0e0e0;
  --sol-error: #e76067;
  --sol-static-white: #ffffff;
  --sol-static-black: #000000;
}
@media (prefers-color-scheme: dark) {
  :root {
    --sol-primary: #9791d4;
    --sol-fill-active: #7b74c4;
    --sol-surface: #161616;
    --sol-element-primary: #ffffff;
    --sol-element-quaternary: rgba(255, 255, 255, 0.5);
    --sol-border-solid-variant: #3d3d3d;
    --sol-error: #ee7a80;
  }
}
</style>
<path d="M181 53C181 50.7909 182.791 49 185 49H257C259.209 49 261 50.7909 261 53V77C261 79.2091 259.209 81 257 81H185C182.791 81 181 79.2091 181 77V53Z" fill="var(--sol-primary)"/>
<path d="M220.458 56.4375H216.083V55.5625H220.458V51.1875H221.333V55.5625H225.708V56.4375H221.333V60.8125H220.458V56.4375Z" fill="var(--sol-surface)"/>
<path d="M195.195 78H193.566L196.555 69.5156H198.43L201.43 78H199.801L199.098 75.9023H195.898L195.195 78ZM196.309 74.6719H198.688L197.527 71.25H197.457L196.309 74.6719ZM204.547 78.1172C203.047 78.1172 201.922 76.9219 201.922 74.8242C201.922 72.7031 203.082 71.5547 204.559 71.5547C205.684 71.5547 206.152 72.2227 206.375 72.6797H206.434V69.5156H207.922V78H206.457V76.9922H206.375C206.141 77.4609 205.648 78.1172 204.547 78.1172ZM204.957 76.8867C205.918 76.8867 206.469 76.0547 206.469 74.8125C206.469 73.582 205.93 72.7734 204.957 72.7734C203.961 72.7734 203.445 73.6289 203.445 74.8125C203.445 76.0195 203.973 76.8867 204.957 76.8867ZM211.801 78.1172C210.301 78.1172 209.176 76.9219 209.176 74.8242C209.176 72.7031 210.336 71.5547 211.812 71.5547C212.938 71.5547 213.406 72.2227 213.629 72.6797H213.688V69.5156H215.176V78H213.711V76.9922H213.629C213.395 77.4609 212.902 78.1172 211.801 78.1172ZM212.211 76.8867C213.172 76.8867 213.723 76.0547 213.723 74.8125C213.723 73.582 213.184 72.7734 212.211 72.7734C211.215 72.7734 210.699 73.6289 210.699 74.8125C210.699 76.0195 211.227 76.8867 212.211 76.8867ZM224.223 71.8477C224.152 71.1211 223.531 70.6992 222.617 70.6992C221.656 70.6992 221.07 71.168 221.07 71.8008C221.07 72.5156 221.82 72.8086 222.523 72.9727L223.32 73.1836C224.586 73.4766 225.805 74.1445 225.805 75.6211C225.805 77.1094 224.633 78.1289 222.594 78.1289C220.613 78.1289 219.371 77.1797 219.301 75.5039H220.801C220.871 76.3945 221.621 76.8281 222.582 76.8281C223.59 76.8281 224.281 76.3359 224.281 75.6094C224.281 74.9414 223.66 74.6602 222.746 74.4258L221.785 74.1797C220.391 73.8164 219.523 73.1133 219.523 71.8945C219.523 70.3945 220.859 69.3984 222.641 69.3984C224.445 69.3984 225.664 70.418 225.688 71.8477H224.223ZM230.176 71.6367V72.7852H228.922V76.0898C228.922 76.6992 229.227 76.8281 229.602 76.8281C229.777 76.8281 230.07 76.8164 230.258 76.8047V78.0234C230.082 78.0586 229.789 78.082 229.414 78.082C228.289 78.082 227.422 77.5312 227.434 76.3359V72.7852H226.52V71.6367H227.434V70.1133H228.922V71.6367H230.176ZM234.043 78.1289C232.191 78.1289 230.996 76.8164 230.996 74.8477C230.996 72.8672 232.191 71.5547 234.043 71.5547C235.906 71.5547 237.09 72.8672 237.09 74.8477C237.09 76.8164 235.906 78.1289 234.043 78.1289ZM234.055 76.9336C235.074 76.9336 235.578 76.0078 235.578 74.8359C235.578 73.6758 235.074 72.7383 234.055 72.7383C233.012 72.7383 232.508 73.6758 232.508 74.8359C232.508 76.0078 233.012 76.9336 234.055 76.9336ZM238.25 78V71.6367H239.703V72.6914H239.773C239.996 71.9648 240.617 71.543 241.344 71.543C241.508 71.543 241.742 71.5547 241.883 71.5781V72.9609C241.754 72.9141 241.438 72.8672 241.191 72.8672C240.359 72.8672 239.75 73.4414 239.75 74.25V78H238.25ZM245.398 78.1289C243.477 78.1289 242.305 76.8516 242.305 74.8594C242.305 72.8906 243.5 71.5547 245.316 71.5547C246.875 71.5547 248.223 72.5273 248.223 74.7656V75.2344H243.781C243.799 76.3184 244.438 76.957 245.41 76.957C246.066 76.957 246.512 76.6758 246.699 76.3008H248.164C247.895 77.4023 246.875 78.1289 245.398 78.1289ZM243.793 74.2148H246.793C246.781 73.3477 246.207 72.7148 245.34 72.7148C244.438 72.7148 243.84 73.4004 243.793 74.2148Z" fill="var(--sol-surface)"/>
</svg>
