<svg width="900" height="288" viewBox="0 0 900 288" fill="none" xmlns="http://www.w3.org/2000/svg">
<style>
:root {
  --sol-primary: #282363;
  --sol-fill-active: #4d469a;
  --sol-surface: #ffffff;
  --sol-element-primary: #161616;
  --sol-element-quaternary: #858585;
  --sol-border-solid-variant: #e0e0e0;
  --sol-error: #e76067;
  --sol-static-white: #ffffff;
  --sol-static-black: #000000;
}
@media (prefers-color-scheme: dark) {
  :root {
    --sol-primary: #9791d4;
    --sol-fill-active: #7b74c4;
    --sol-surface: #161616;
    --sol-element-primary: #ffffff;
    --sol-element-quaternary: rgba(255, 255, 255, 0.5);
    --sol-border-solid-variant: #3d3d3d;
    --sol-error: #ee7a80;
  }
}
</style>
<g clip-path="url(#clip0_1665_175867)">
<path d="M48 52C48 49.7909 49.7909 48 52 48H129C131.209 48 133 49.7909 133 52V76C133 78.2091 131.209 80 129 80H52C49.7909 80 48 78.2091 48 76V52Z" fill="var(--sol-primary)"/>
<path d="M69.6992 68V59.5156H72.8867C74.832 59.5156 75.875 60.6992 75.875 62.3281C75.875 63.957 74.8203 65.1289 72.8633 65.1289H71.2227V68H69.6992ZM71.2227 63.875H72.6523C73.8008 63.875 74.3164 63.2305 74.3164 62.3281C74.3164 61.4141 73.8008 60.793 72.6523 60.793H71.2227V63.875ZM77.0352 68V61.6367H78.4883V62.6914H78.5586C78.7812 61.9648 79.4023 61.543 80.1289 61.543C80.293 61.543 80.5273 61.5547 80.668 61.5781V62.9609C80.5391 62.9141 80.2227 62.8672 79.9766 62.8672C79.1445 62.8672 78.5352 63.4414 78.5352 64.25V68H77.0352ZM81.5586 68V61.6367H83.0586V68H81.5586ZM82.3203 60.7344C81.8516 60.7344 81.4531 60.3711 81.4531 59.9141C81.4531 59.4688 81.8516 59.1055 82.3203 59.1055C82.8008 59.1055 83.1875 59.4688 83.1875 59.9141C83.1875 60.3711 82.8008 60.7344 82.3203 60.7344ZM84.4883 68V61.6367H85.918V62.7148H86C86.2578 61.9883 86.9023 61.5547 87.7461 61.5547C88.6133 61.5547 89.2227 61.9883 89.4688 62.7148H89.5391C89.8203 62.0117 90.5234 61.5547 91.4492 61.5547C92.6094 61.5547 93.4297 62.3047 93.4297 63.7227V68H91.9414V63.957C91.9414 63.1602 91.4609 62.8086 90.8516 62.8086C90.1133 62.8086 89.6914 63.3125 89.6914 64.0273V68H88.2383V63.8984C88.2383 63.2422 87.793 62.8086 87.1602 62.8086C86.5156 62.8086 85.9883 63.3359 85.9883 64.1328V68H84.4883ZM94.5664 66.207C94.5664 64.7773 95.75 64.3555 96.9336 64.2852C97.373 64.2559 98.2871 64.2031 98.5625 64.1914V63.6875C98.5625 63.0547 98.1523 62.6914 97.4141 62.6914C96.7461 62.6914 96.3359 62.9961 96.2188 63.4531H94.7773C94.8828 62.375 95.8555 61.5547 97.4492 61.5547C98.6562 61.5547 100.051 62.0469 100.051 63.7461V68H98.6211V67.1211H98.5742C98.293 67.6602 97.6953 68.1289 96.6992 68.1289C95.4805 68.1289 94.5664 67.4609 94.5664 66.207ZM96.0078 66.1953C96.0078 66.7461 96.4531 67.0273 97.0859 67.0273C97.9883 67.0273 98.5742 66.4297 98.5742 65.7148V65.1875L97.168 65.2812C96.4531 65.3398 96.0078 65.6328 96.0078 66.1953ZM101.457 68V61.6367H102.91V62.6914H102.98C103.203 61.9648 103.824 61.543 104.551 61.543C104.715 61.543 104.949 61.5547 105.09 61.5781V62.9609C104.961 62.9141 104.645 62.8672 104.398 62.8672C103.566 62.8672 102.957 63.4414 102.957 64.25V68H101.457ZM107.082 70.3906C106.789 70.3906 106.496 70.3789 106.309 70.3555V69.1602C106.496 69.1719 106.742 69.1836 106.941 69.1836C107.305 69.1836 107.609 69.1484 107.867 68.4688L107.996 68.1289L105.676 61.6367H107.258L108.734 66.4414H108.805L110.281 61.6367H111.863L109.309 68.7734C108.945 69.793 108.277 70.3906 107.082 70.3906Z" fill="var(--sol-surface)"/>
</g>
<path d="M202.926 57.9531V63.1348H204.867V64.0371H202.926V70.1074H201.846V57.9531H202.926ZM193.342 66.8672C194.333 66.8672 195.488 66.8672 196.691 66.8262V65.4727C195.276 65.3154 194.354 64.4883 194.367 63.2852C194.354 61.918 195.516 61.0293 197.238 61.0293C198.934 61.0293 200.109 61.918 200.123 63.2852C200.109 64.4883 199.173 65.3154 197.771 65.4863V66.7852C198.906 66.7305 200.048 66.6416 201.107 66.4844L201.176 67.3047C198.523 67.7559 195.652 67.7832 193.52 67.7832L193.342 66.8672ZM200.889 59.4434V60.3184H193.561V59.4434H196.691V57.9805H197.771V59.4434H200.889ZM197.238 61.8633C196.117 61.8633 195.365 62.4375 195.365 63.2852C195.365 64.1328 196.117 64.6797 197.238 64.666C198.346 64.6797 199.098 64.1328 199.098 63.2852C199.098 62.4375 198.346 61.8633 197.238 61.8633ZM211.744 59.0195V60.0996H214.588V57.9668H215.668V66.8398H214.588V63.5996H211.744V64.6934H206.166V59.0195H211.744ZM207.232 59.9082V63.832H210.691V59.9082H207.232ZM215.941 68.9453V69.8477H207.807V66.0469H208.887V68.9453H215.941ZM211.744 62.7109H214.588V61.002H211.744V62.7109ZM228.109 57.9531V70.1074H227.07V57.9531H228.109ZM225.662 58.2129V69.4922H224.637V63.5859H223.078C222.962 65.9512 221.957 67.4277 220.453 67.4277C218.867 67.4277 217.842 65.7871 217.842 63.2031C217.842 60.6191 218.867 58.9785 220.453 58.9785C221.93 58.9785 222.928 60.4072 223.064 62.6973H224.637V58.2129H225.662ZM220.453 59.9902C219.469 59.9902 218.84 61.2207 218.854 63.2031C218.84 65.1719 219.469 66.416 220.453 66.4023C221.438 66.416 222.066 65.1719 222.066 63.2031C222.066 61.2207 221.438 59.9902 220.453 59.9902ZM234.07 61.2207C234.07 63.4219 235.479 65.6367 237.242 66.4434L236.6 67.3184C235.219 66.6074 234.077 65.1514 233.537 63.4219C232.997 65.2402 231.855 66.7988 230.475 67.5371L229.777 66.6758C231.555 65.8008 232.977 63.4629 232.977 61.2207V59.0059H234.07V61.2207ZM239.867 57.9531V70.1348H238.801V62.9844H235.916V62.1094H238.801V57.9531H239.867ZM254.811 57.9531V62.9023H256.779V63.8047H254.811V70.1074H253.744V57.9531H254.811ZM251.666 59.2656C251.666 62.7109 250.053 65.8418 246.088 67.7969L245.486 66.9492C248.631 65.3838 250.34 63.0459 250.586 60.168H246.047V59.2656H251.666ZM261.619 60.2637C261.619 61.8496 262.809 63.2715 264.6 63.8594L264.094 64.707C262.692 64.249 261.633 63.2783 261.113 62.0547C260.587 63.4492 259.466 64.5361 258.01 65.0625L257.463 64.2012C259.281 63.5859 260.553 62.0137 260.566 60.2637V59.7441H257.791V58.8555H264.354V59.7441H261.619V60.2637ZM267.006 57.9531V61.0566H268.838V61.959H267.006V65.2949H265.939V57.9531H267.006ZM263.109 65.623C265.611 65.623 267.115 66.4434 267.115 67.8379C267.115 69.2598 265.611 70.0801 263.109 70.0801C260.607 70.0801 259.076 69.2598 259.076 67.8379C259.076 66.4434 260.607 65.623 263.109 65.623ZM263.109 66.4844C261.277 66.4844 260.143 66.9902 260.156 67.8379C260.143 68.7129 261.277 69.2188 263.109 69.2188C264.955 69.2188 266.076 68.7129 266.076 67.8379C266.076 66.9902 264.955 66.4844 263.109 66.4844ZM284.191 63.6406V64.5293H279.174V65.8281C281.471 65.9238 282.824 66.6758 282.838 67.9609C282.824 69.3145 281.266 70.0801 278.654 70.0801C276.016 70.0801 274.457 69.3145 274.457 67.9609C274.457 66.6758 275.804 65.9238 278.121 65.8281V64.5293H273.117V63.6406H284.191ZM278.654 66.6484C276.699 66.6621 275.537 67.1406 275.551 67.9609C275.537 68.7676 276.699 69.2461 278.654 69.2461C280.582 69.2461 281.758 68.7676 281.758 67.9609C281.758 67.1406 280.582 66.6621 278.654 66.6484ZM283.207 58.5273V59.4023H279.352C279.42 60.7695 281.43 61.8291 283.576 62.0547L283.18 62.9023C281.19 62.6631 279.324 61.7744 278.654 60.4141C277.991 61.7744 276.132 62.6631 274.129 62.9023L273.746 62.0547C275.852 61.8291 277.875 60.7695 277.957 59.4023H274.129V58.5273H283.207ZM296.346 67.6465V68.5488H285.217V67.6465H287.979V64.3652C286.939 63.8252 286.311 62.9502 286.311 61.8496C286.311 59.9629 288.156 58.7324 290.754 58.7188C293.352 58.7324 295.197 59.9629 295.197 61.8496C295.197 62.9297 294.589 63.7979 293.584 64.3379V67.6465H296.346ZM290.754 59.6074C288.758 59.5938 287.35 60.4961 287.35 61.8496C287.35 63.2031 288.758 64.1191 290.754 64.1191C292.736 64.1191 294.158 63.2031 294.158 61.8496C294.158 60.4961 292.736 59.5938 290.754 59.6074ZM289.031 67.6465H292.504V64.748C291.978 64.8916 291.39 64.9668 290.754 64.9668C290.132 64.9668 289.551 64.8984 289.031 64.7617V67.6465ZM306.818 57.9668V61.9727H308.65V62.875H306.818V67.0723H305.752V57.9668H306.818ZM304.59 59.457V60.332H297.344V59.457H300.434V57.9668H301.5V59.457H304.59ZM300.967 61.002C302.703 61.002 303.879 61.8906 303.893 63.2715C303.879 64.6387 302.703 65.5137 300.967 65.5137C299.217 65.5137 298.027 64.6387 298.041 63.2715C298.027 61.8906 299.217 61.002 300.967 61.002ZM300.967 61.8496C299.818 61.8496 299.053 62.4102 299.066 63.2715C299.053 64.1328 299.818 64.6797 300.967 64.666C302.102 64.6797 302.867 64.1328 302.881 63.2715C302.867 62.4102 302.102 61.8496 300.967 61.8496ZM307.379 68.9453V69.8477H299.217V66.3477H300.27V68.9453H307.379ZM319.096 59.3887V60.2637H312.861V59.3887H315.459V58.0215H316.525V59.3887H319.096ZM315.992 60.8789C317.537 60.8789 318.59 61.7402 318.604 63.0391C318.59 64.3105 317.537 65.1719 315.992 65.1719C314.461 65.1719 313.381 64.3105 313.395 63.0391C313.381 61.7402 314.461 60.8789 315.992 60.8789ZM315.992 61.6855C315.021 61.6992 314.352 62.2324 314.352 63.0391C314.352 63.8184 315.021 64.3516 315.992 64.3516C316.963 64.3516 317.633 63.8184 317.633 63.0391C317.633 62.2324 316.963 61.6992 315.992 61.6855ZM323.252 57.9668V65.5137H322.227V62.2734H320.641V65.4316H319.615V58.1719H320.641V61.3848H322.227V57.9668H323.252ZM323.252 66.2383V70.1074H322.199V67.1133H315.062V66.2383H323.252ZM335.064 57.9668V64.8711H333.998V57.9668H335.064ZM335.064 65.5684V69.9434H327.162V65.5684H335.064ZM328.215 66.4434V69.0684H334.012V66.4434H328.215ZM329.336 59.6348C329.322 61.3574 330.635 62.875 332.426 63.5039L331.879 64.3242C330.471 63.8389 329.35 62.8135 328.803 61.4805C328.263 62.9023 327.128 64.0234 325.672 64.5566L325.125 63.709C326.971 63.0664 328.242 61.4258 328.242 59.6348V58.4453H329.336V59.6348ZM343.555 58.7188C345.154 58.7188 346.344 59.9082 346.344 61.5898C346.344 63.2852 345.154 64.4336 343.555 64.4336C341.928 64.4336 340.766 63.2852 340.779 61.5898C340.766 59.9082 341.928 58.7188 343.555 58.7188ZM343.555 59.6484C342.516 59.6484 341.736 60.4688 341.75 61.5898C341.736 62.7109 342.516 63.5312 343.555 63.5312C344.594 63.5312 345.346 62.7109 345.359 61.5898C345.346 60.4688 344.594 59.6484 343.555 59.6484ZM350.965 57.9668V65.1992H349.939V61.9863H348.326V65.1172H347.314V58.1992H348.326V61.0977H349.939V57.9668H350.965ZM350.965 65.8828V70.1074H349.912V66.7441H342.775V65.8828H350.965ZM356.898 60.209C356.898 61.9863 358.115 63.668 359.879 64.3652L359.277 65.1992C357.938 64.6455 356.898 63.5381 356.393 62.1504C355.866 63.6475 354.772 64.8369 353.357 65.418L352.77 64.5566C354.574 63.8594 355.832 62.1094 355.846 60.209V58.6504H356.898V60.209ZM362.818 57.9668V67.0449H361.738V63.1484H359.236V62.2734H361.738V60.6602H359.236V59.7715H361.738V57.9668H362.818ZM363.092 68.9453V69.8477H354.957V66.1016H356.037V68.9453H363.092ZM375.26 57.9531V70.1074H374.221V57.9531H375.26ZM372.812 58.2129V69.4922H371.787V63.5859H370.229C370.112 65.9512 369.107 67.4277 367.604 67.4277C366.018 67.4277 364.992 65.7871 364.992 63.2031C364.992 60.6191 366.018 58.9785 367.604 58.9785C369.08 58.9785 370.078 60.4072 370.215 62.6973H371.787V58.2129H372.812ZM367.604 59.9902C366.619 59.9902 365.99 61.2207 366.004 63.2031C365.99 65.1719 366.619 66.416 367.604 66.4023C368.588 66.416 369.217 65.1719 369.217 63.2031C369.217 61.2207 368.588 59.9902 367.604 59.9902ZM384.529 61.2207C384.529 63.3672 385.951 65.5684 387.674 66.416L387.018 67.2773C385.678 66.5732 384.557 65.1377 384.023 63.4492C383.477 65.2471 382.328 66.7783 380.961 67.5098L380.277 66.6484C382.055 65.7734 383.463 63.4355 383.477 61.2207V59.0059H384.529V61.2207ZM389.861 57.9531V62.8887H391.898V63.8184H389.861V70.1074H388.795V57.9531H389.861ZM403.629 63.9688V64.8574H392.555V63.9688H395.303V62.2598C394.332 61.8838 393.785 61.2617 393.785 60.4414C393.785 59.0059 395.426 58.1855 398.092 58.1855C400.73 58.1855 402.385 59.0059 402.385 60.4414C402.385 61.2549 401.845 61.877 400.881 62.2461V63.9688H403.629ZM398.092 65.7871C400.703 65.7871 402.262 66.5391 402.275 67.9336C402.262 69.3145 400.703 70.0801 398.092 70.0801C395.453 70.0801 393.895 69.3145 393.895 67.9336C393.895 66.5391 395.453 65.7871 398.092 65.7871ZM398.092 66.6074C396.137 66.6211 394.975 67.0996 394.988 67.9336C394.975 68.7539 396.137 69.2461 398.092 69.2461C400.02 69.2461 401.195 68.7539 401.195 67.9336C401.195 67.0996 400.02 66.6211 398.092 66.6074ZM398.092 59.0332C396.109 59.0332 394.879 59.5664 394.893 60.4414C394.879 61.3301 396.109 61.8496 398.092 61.8496C400.061 61.8496 401.291 61.3301 401.291 60.4414C401.291 59.5664 400.061 59.0332 398.092 59.0332ZM396.369 63.9688H399.814V62.5469C399.302 62.6357 398.728 62.6836 398.092 62.6836C397.456 62.6836 396.882 62.6357 396.369 62.5469V63.9688ZM414.156 57.9531V61.0703H415.988V61.9863H414.156V65.0215H413.09V57.9531H414.156ZM407.539 65.5547V66.8535H413.09V65.5547H414.156V69.9434H406.473V65.5547H407.539ZM407.539 69.082H413.09V67.7012H407.539V69.082ZM411.928 59.2109V60.0996H404.682V59.2109H407.771V57.8438H408.838V59.2109H411.928ZM408.305 60.6602C410.055 60.6602 411.217 61.4941 411.23 62.793C411.217 64.0918 410.055 64.9258 408.305 64.9258C406.541 64.9258 405.365 64.0918 405.379 62.793C405.365 61.4941 406.541 60.6602 408.305 60.6602ZM408.305 61.4941C407.156 61.4805 406.391 62.0137 406.404 62.793C406.391 63.5859 407.156 64.1055 408.305 64.1055C409.439 64.1055 410.205 63.5859 410.219 62.793C410.205 62.0137 409.439 61.4805 408.305 61.4941ZM426.775 57.9531V70.1074H425.709V57.9531H426.775ZM418.6 59.1562V66.0469C420.452 66.04 422.373 65.8896 424.41 65.459L424.561 66.375C422.4 66.8262 420.473 66.9766 418.531 66.9766H417.547V59.1562H418.6ZM438.26 57.9531V62.7656H440.297V63.668H438.26V70.1348H437.193V57.9531H438.26ZM435.061 59.1426V60.0312H430.453V66.1836C432.654 66.1836 434.213 66.0811 436.018 65.7461L436.154 66.6758C434.254 67.0176 432.654 67.0859 430.344 67.0859H429.387V59.1426H435.061ZM442.238 69.082C441.76 69.082 441.35 68.6855 441.363 68.1934C441.35 67.7148 441.76 67.3184 442.238 67.3184C442.717 67.3184 443.113 67.7148 443.113 68.1934C443.113 68.6855 442.717 69.082 442.238 69.082ZM457.441 57.9531V63.1348H459.383V64.0371H457.441V70.1074H456.361V57.9531H457.441ZM447.857 66.8672C448.849 66.8672 450.004 66.8672 451.207 66.8262V65.4727C449.792 65.3154 448.869 64.4883 448.883 63.2852C448.869 61.918 450.031 61.0293 451.754 61.0293C453.449 61.0293 454.625 61.918 454.639 63.2852C454.625 64.4883 453.688 65.3154 452.287 65.4863V66.7852C453.422 66.7305 454.563 66.6416 455.623 66.4844L455.691 67.3047C453.039 67.7559 450.168 67.7832 448.035 67.7832L447.857 66.8672ZM455.404 59.4434V60.3184H448.076V59.4434H451.207V57.9805H452.287V59.4434H455.404ZM451.754 61.8633C450.633 61.8633 449.881 62.4375 449.881 63.2852C449.881 64.1328 450.633 64.6797 451.754 64.666C452.861 64.6797 453.613 64.1328 453.613 63.2852C453.613 62.4375 452.861 61.8633 451.754 61.8633ZM466.26 59.0195V60.0996H469.104V57.9668H470.184V66.8398H469.104V63.5996H466.26V64.6934H460.682V59.0195H466.26ZM461.748 59.9082V63.832H465.207V59.9082H461.748ZM470.457 68.9453V69.8477H462.322V66.0469H463.402V68.9453H470.457ZM466.26 62.7109H469.104V61.002H466.26V62.7109ZM481.723 57.9531V61.125H483.541V62.0273H481.723V65.2129H480.643V57.9531H481.723ZM477.812 65.4453C480.287 65.4453 481.818 66.3066 481.818 67.7559C481.818 69.2324 480.287 70.0801 477.812 70.0801C475.324 70.0801 473.779 69.2324 473.779 67.7559C473.779 66.3066 475.324 65.4453 477.812 65.4453ZM477.812 66.334C475.98 66.3203 474.832 66.8672 474.832 67.7559C474.832 68.6582 475.98 69.2188 477.812 69.2188C479.631 69.2188 480.779 68.6582 480.779 67.7559C480.779 66.8672 479.631 66.3203 477.812 66.334ZM478.168 58.8828V59.7715H473.82V63.3398C476.281 63.3262 477.703 63.251 479.33 62.916L479.439 63.8047C477.744 64.1465 476.281 64.2148 473.711 64.2148H472.768V58.8828H478.168ZM497.227 57.9531V62.9707H499.264V63.8594H497.227V70.1074H496.16V57.9531H497.227ZM494.984 59.9082V60.7969H487.752V59.9082H490.883V58.1035H491.949V59.9082H494.984ZM491.43 61.8086C493.152 61.8086 494.396 62.957 494.41 64.5977C494.396 66.2383 493.152 67.3867 491.43 67.3867C489.693 67.3867 488.436 66.2383 488.449 64.5977C488.436 62.957 489.693 61.8086 491.43 61.8086ZM491.43 62.7109C490.295 62.7109 489.461 63.5039 489.475 64.5977C489.461 65.7051 490.295 66.4844 491.43 66.4707C492.551 66.4844 493.371 65.7051 493.385 64.5977C493.371 63.5039 492.551 62.7109 491.43 62.7109ZM511.295 62.8066V63.709H509.326V70.1074H508.26V57.9531H509.326V62.8066H511.295ZM501.492 59.1562V66.1152C503.27 66.1084 505.081 65.9717 507.084 65.5547L507.221 66.4707C505.129 66.8945 503.242 67.0176 501.396 67.0176H500.426V59.1562H501.492ZM515.998 58.8418C517.912 58.8418 519.266 60.0039 519.266 61.6992C519.266 63.3945 517.912 64.5566 515.998 64.5566C514.084 64.5566 512.703 63.3945 512.717 61.6992C512.703 60.0039 514.084 58.8418 515.998 58.8418ZM515.998 59.7852C514.699 59.7852 513.756 60.5645 513.77 61.6992C513.756 62.834 514.699 63.6133 515.998 63.6133C517.283 63.6133 518.213 62.834 518.213 61.6992C518.213 60.5645 517.283 59.7852 515.998 59.7852ZM521.986 57.9531V70.1348H520.92V57.9531H521.986ZM512.088 66.5391C514.33 66.5391 517.42 66.5254 520.113 66.1289L520.195 66.9219C517.42 67.4414 514.426 67.4551 512.238 67.4551L512.088 66.5391ZM537.709 57.9531V70.1348H536.643V63.3672H533.73V67.0586H528.125V58.9102H529.205V62.082H532.678V58.9102H533.73V62.4785H536.643V57.9531H537.709ZM529.205 66.1699H532.678V62.9434H529.205V66.1699ZM550.807 64.6934V65.5684H539.719V64.6934H550.807ZM549.645 68.9453V69.8477H541.168V66.457H542.234V68.9453H549.645ZM549.494 62.6973V63.5449H541.195V58.418H549.426V59.2793H542.275V60.5508H549.098V61.3848H542.275V62.6973H549.494ZM559.42 61.2207C559.42 63.3672 560.842 65.5684 562.564 66.416L561.908 67.2773C560.568 66.5732 559.447 65.1377 558.914 63.4492C558.367 65.2471 557.219 66.7783 555.852 67.5098L555.168 66.6484C556.945 65.7734 558.354 63.4355 558.367 61.2207V59.0059H559.42V61.2207ZM564.752 57.9531V62.8887H566.789V63.8184H564.752V70.1074H563.686V57.9531H564.752ZM578.52 63.9688V64.8574H567.445V63.9688H570.193V62.2598C569.223 61.8838 568.676 61.2617 568.676 60.4414C568.676 59.0059 570.316 58.1855 572.982 58.1855C575.621 58.1855 577.275 59.0059 577.275 60.4414C577.275 61.2549 576.735 61.877 575.771 62.2461V63.9688H578.52ZM572.982 65.7871C575.594 65.7871 577.152 66.5391 577.166 67.9336C577.152 69.3145 575.594 70.0801 572.982 70.0801C570.344 70.0801 568.785 69.3145 568.785 67.9336C568.785 66.5391 570.344 65.7871 572.982 65.7871ZM572.982 66.6074C571.027 66.6211 569.865 67.0996 569.879 67.9336C569.865 68.7539 571.027 69.2461 572.982 69.2461C574.91 69.2461 576.086 68.7539 576.086 67.9336C576.086 67.0996 574.91 66.6211 572.982 66.6074ZM572.982 59.0332C571 59.0332 569.77 59.5664 569.783 60.4414C569.77 61.3301 571 61.8496 572.982 61.8496C574.951 61.8496 576.182 61.3301 576.182 60.4414C576.182 59.5664 574.951 59.0332 572.982 59.0332ZM571.26 63.9688H574.705V62.5469C574.192 62.6357 573.618 62.6836 572.982 62.6836C572.347 62.6836 571.772 62.6357 571.26 62.5469V63.9688ZM585.082 58.1719C587.789 58.1719 589.375 58.9102 589.375 60.2637C589.375 61.6445 587.789 62.3828 585.082 62.3965C582.375 62.3828 580.775 61.6445 580.775 60.2637C580.775 58.9102 582.375 58.1719 585.082 58.1719ZM585.082 58.9785C583.059 58.9785 581.883 59.4707 581.896 60.2637C581.883 61.1113 583.059 61.5762 585.082 61.5762C587.092 61.5762 588.281 61.1113 588.281 60.2637C588.281 59.4707 587.092 58.9785 585.082 58.9785ZM590.619 63.2168V64.0918H579.545V63.2168H590.619ZM589.197 65.1445V67.8652H581.979V69.123H589.566V69.9707H580.912V67.0723H588.145V65.9648H580.885V65.1445H589.197ZM605.221 57.9668V67.1543H604.127V65.4453H601.447V64.5703H604.127V57.9668H605.221ZM605.521 68.9453V69.8477H596.895V66.1289H597.975V68.9453H605.521ZM595.076 62.7793C596.635 62.7793 598.597 62.7588 600.531 62.6289C600.771 61.2822 600.812 60.2773 600.818 59.5801H596.17V58.7051H601.885V59.1836C601.885 59.8535 601.885 60.9951 601.625 62.5332C602.104 62.499 602.568 62.4443 603.02 62.3828L603.102 63.1621C601.967 63.3535 600.777 63.4697 599.615 63.5449V66.3477H598.549V63.5996C597.346 63.6543 596.211 63.668 595.227 63.668L595.076 62.7793ZM611.373 60.2637C611.373 61.8496 612.562 63.2715 614.354 63.8594L613.848 64.707C612.446 64.249 611.387 63.2783 610.867 62.0547C610.341 63.4492 609.22 64.5361 607.764 65.0625L607.217 64.2012C609.035 63.5859 610.307 62.0137 610.32 60.2637V59.7441H607.545V58.8555H614.107V59.7441H611.373V60.2637ZM616.76 57.9531V61.0566H618.592V61.959H616.76V65.2949H615.693V57.9531H616.76ZM612.863 65.623C615.365 65.623 616.869 66.4434 616.869 67.8379C616.869 69.2598 615.365 70.0801 612.863 70.0801C610.361 70.0801 608.83 69.2598 608.83 67.8379C608.83 66.4434 610.361 65.623 612.863 65.623ZM612.863 66.4844C611.031 66.4844 609.896 66.9902 609.91 67.8379C609.896 68.7129 611.031 69.2188 612.863 69.2188C614.709 69.2188 615.83 68.7129 615.83 67.8379C615.83 66.9902 614.709 66.4844 612.863 66.4844ZM628.859 57.9531V61.0703H630.691V61.9863H628.859V65.0215H627.793V57.9531H628.859ZM622.242 65.5547V66.8535H627.793V65.5547H628.859V69.9434H621.176V65.5547H622.242ZM622.242 69.082H627.793V67.7012H622.242V69.082ZM626.631 59.2109V60.0996H619.385V59.2109H622.475V57.8438H623.541V59.2109H626.631ZM623.008 60.6602C624.758 60.6602 625.92 61.4941 625.934 62.793C625.92 64.0918 624.758 64.9258 623.008 64.9258C621.244 64.9258 620.068 64.0918 620.082 62.793C620.068 61.4941 621.244 60.6602 623.008 60.6602ZM623.008 61.4941C621.859 61.4805 621.094 62.0137 621.107 62.793C621.094 63.5859 621.859 64.1055 623.008 64.1055C624.143 64.1055 624.908 63.5859 624.922 62.793C624.908 62.0137 624.143 61.4805 623.008 61.4941ZM641.479 57.9531V70.1074H640.412V57.9531H641.479ZM633.303 59.1562V66.0469C635.155 66.04 637.076 65.8896 639.113 65.459L639.264 66.375C637.104 66.8262 635.176 66.9766 633.234 66.9766H632.25V59.1562H633.303ZM652.963 57.9531V62.7656H655V63.668H652.963V70.1348H651.896V57.9531H652.963ZM649.764 59.1426V60.0312H645.156V66.1836C647.357 66.1836 648.916 66.0811 650.721 65.7461L650.857 66.6758C648.957 67.0176 647.357 67.0859 645.047 67.0859H644.09V59.1426H649.764ZM656.941 69.082C656.463 69.082 656.053 68.6855 656.066 68.1934C656.053 67.7148 656.463 67.3184 656.941 67.3184C657.42 67.3184 657.816 67.7148 657.816 68.1934C657.816 68.6855 657.42 69.082 656.941 69.082Z" fill="var(--sol-element-primary)"/>
<g clip-path="url(#clip1_1665_175867)">
<path d="M48 132C48 129.791 49.7909 128 52 128H129C131.209 128 133 129.791 133 132V156C133 158.209 131.209 160 129 160H52C49.7909 160 48 158.209 48 156V132Z" fill="var(--sol-surface)"/>
<path d="M65.8555 141.848C65.7852 141.121 65.1641 140.699 64.25 140.699C63.2891 140.699 62.7031 141.168 62.7031 141.801C62.7031 142.516 63.4531 142.809 64.1562 142.973L64.9531 143.184C66.2188 143.477 67.4375 144.145 67.4375 145.621C67.4375 147.109 66.2656 148.129 64.2266 148.129C62.2461 148.129 61.0039 147.18 60.9336 145.504H62.4336C62.5039 146.395 63.2539 146.828 64.2148 146.828C65.2227 146.828 65.9141 146.336 65.9141 145.609C65.9141 144.941 65.293 144.66 64.3789 144.426L63.418 144.18C62.0234 143.816 61.1562 143.113 61.1562 141.895C61.1562 140.395 62.4922 139.398 64.2734 139.398C66.0781 139.398 67.2969 140.418 67.3203 141.848H65.8555ZM71.457 148.129C69.5352 148.129 68.3633 146.852 68.3633 144.859C68.3633 142.891 69.5586 141.555 71.375 141.555C72.9336 141.555 74.2812 142.527 74.2812 144.766V145.234H69.8398C69.8574 146.318 70.4961 146.957 71.4688 146.957C72.125 146.957 72.5703 146.676 72.7578 146.301H74.2227C73.9531 147.402 72.9336 148.129 71.457 148.129ZM69.8516 144.215H72.8516C72.8398 143.348 72.2656 142.715 71.3984 142.715C70.4961 142.715 69.8984 143.4 69.8516 144.215ZM78.2188 148.129C76.3203 148.129 75.1719 146.77 75.1719 144.848C75.1719 142.902 76.3555 141.555 78.2188 141.555C79.7656 141.555 80.8438 142.457 80.9492 143.828H79.5195C79.4023 143.219 78.957 142.75 78.2305 142.75C77.3047 142.75 76.6836 143.535 76.6836 144.812C76.6836 146.125 77.293 146.91 78.2305 146.91C78.8984 146.91 79.3906 146.523 79.5195 145.832H80.9492C80.832 147.18 79.8125 148.129 78.2188 148.129ZM84.8516 148.129C83 148.129 81.8047 146.816 81.8047 144.848C81.8047 142.867 83 141.555 84.8516 141.555C86.7148 141.555 87.8984 142.867 87.8984 144.848C87.8984 146.816 86.7148 148.129 84.8516 148.129ZM84.8633 146.934C85.8828 146.934 86.3867 146.008 86.3867 144.836C86.3867 143.676 85.8828 142.738 84.8633 142.738C83.8203 142.738 83.3164 143.676 83.3164 144.836C83.3164 146.008 83.8203 146.934 84.8633 146.934ZM90.5586 144.273V148H89.0586V141.637H90.4883V142.715H90.5703C90.8633 142 91.5078 141.555 92.457 141.555C93.7812 141.555 94.6484 142.422 94.6367 143.945V148H93.1484V144.18C93.1484 143.324 92.6914 142.82 91.9062 142.82C91.1094 142.82 90.5586 143.348 90.5586 144.273ZM98.4336 148.117C96.9336 148.117 95.8086 146.922 95.8086 144.824C95.8086 142.703 96.9688 141.555 98.4453 141.555C99.5703 141.555 100.039 142.223 100.262 142.68H100.32V139.516H101.809V148H100.344V146.992H100.262C100.027 147.461 99.5352 148.117 98.4336 148.117ZM98.8438 146.887C99.8047 146.887 100.355 146.055 100.355 144.812C100.355 143.582 99.8164 142.773 98.8438 142.773C97.8477 142.773 97.332 143.629 97.332 144.812C97.332 146.02 97.8594 146.887 98.8438 146.887ZM103.027 146.207C103.027 144.777 104.211 144.355 105.395 144.285C105.834 144.256 106.748 144.203 107.023 144.191V143.688C107.023 143.055 106.613 142.691 105.875 142.691C105.207 142.691 104.797 142.996 104.68 143.453H103.238C103.344 142.375 104.316 141.555 105.91 141.555C107.117 141.555 108.512 142.047 108.512 143.746V148H107.082V147.121H107.035C106.754 147.66 106.156 148.129 105.16 148.129C103.941 148.129 103.027 147.461 103.027 146.207ZM104.469 146.195C104.469 146.746 104.914 147.027 105.547 147.027C106.449 147.027 107.035 146.43 107.035 145.715V145.188L105.629 145.281C104.914 145.34 104.469 145.633 104.469 146.195ZM109.918 148V141.637H111.371V142.691H111.441C111.664 141.965 112.285 141.543 113.012 141.543C113.176 141.543 113.41 141.555 113.551 141.578V142.961C113.422 142.914 113.105 142.867 112.859 142.867C112.027 142.867 111.418 143.441 111.418 144.25V148H109.918ZM115.543 150.391C115.25 150.391 114.957 150.379 114.77 150.355V149.16C114.957 149.172 115.203 149.184 115.402 149.184C115.766 149.184 116.07 149.148 116.328 148.469L116.457 148.129L114.137 141.637H115.719L117.195 146.441H117.266L118.742 141.637H120.324L117.77 148.773C117.406 149.793 116.738 150.391 115.543 150.391Z" fill="var(--sol-primary)"/>
</g>
<path d="M52 128.5H129C130.933 128.5 132.5 130.067 132.5 132V156C132.5 157.933 130.933 159.5 129 159.5H52C50.067 159.5 48.5 157.933 48.5 156V132C48.5 130.067 50.067 128.5 52 128.5Z" stroke="var(--sol-element-primary)" stroke-opacity="0.16"/>
<path d="M194.094 149V139.102H197.457C199.781 139.102 200.834 140.482 200.834 142.246C200.834 143.996 199.781 145.404 197.471 145.404H195.324V149H194.094ZM195.324 144.311H197.416C198.988 144.311 199.617 143.422 199.617 142.246C199.617 141.057 198.988 140.195 197.402 140.195H195.324V144.311ZM202.406 149V141.576H203.541V142.711H203.623C203.896 141.959 204.662 141.453 205.537 141.453C205.715 141.453 206.016 141.467 206.152 141.48V142.67C206.07 142.643 205.742 142.588 205.441 142.588C204.375 142.588 203.582 143.326 203.582 144.324V149H202.406ZM207.301 149V141.576H208.477V149H207.301ZM207.889 140.346C207.438 140.346 207.068 140.004 207.068 139.566C207.068 139.129 207.438 138.787 207.889 138.787C208.34 138.787 208.723 139.129 208.723 139.566C208.723 140.004 208.34 140.346 207.889 140.346ZM210.35 149V141.576H211.484V142.738H211.58C211.895 141.945 212.605 141.48 213.576 141.48C214.547 141.48 215.203 141.945 215.559 142.738H215.641C216.023 141.973 216.803 141.48 217.869 141.48C219.195 141.48 220.139 142.287 220.139 144.037V149H218.963V144.051C218.963 142.957 218.266 142.533 217.459 142.533C216.42 142.533 215.832 143.23 215.832 144.174V149H214.643V143.928C214.643 143.094 214.041 142.533 213.193 142.533C212.305 142.533 211.525 143.285 211.525 144.365V149H210.35ZM221.67 146.895C221.67 145.186 223.174 144.803 224.459 144.707C224.931 144.673 226.134 144.611 226.469 144.598V143.996C226.469 143.053 225.908 142.506 224.787 142.506C223.844 142.506 223.283 142.943 223.119 143.504H221.889C222.039 142.314 223.201 141.48 224.842 141.48C225.812 141.48 227.631 141.768 227.631 144.105V149H226.469V147.988H226.414C226.168 148.494 225.484 149.178 224.199 149.178C222.791 149.178 221.67 148.344 221.67 146.895ZM222.846 146.949C222.846 147.729 223.502 148.125 224.404 148.125C225.73 148.125 226.469 147.236 226.469 146.307V145.555L224.596 145.691C223.529 145.76 222.846 146.143 222.846 146.949ZM229.518 149V141.576H230.652V142.711H230.734C231.008 141.959 231.773 141.453 232.648 141.453C232.826 141.453 233.127 141.467 233.264 141.48V142.67C233.182 142.643 232.854 142.588 232.553 142.588C231.486 142.588 230.693 143.326 230.693 144.324V149H229.518ZM235.396 151.789C235.137 151.789 234.891 151.775 234.74 151.762V150.709C234.863 150.723 235.137 150.736 235.314 150.736C235.793 150.736 236.189 150.695 236.586 149.615L236.805 149.055L234.057 141.576H235.342L237.365 147.469H237.447L239.471 141.576H240.756L237.611 150.066C237.174 151.229 236.449 151.789 235.396 151.789ZM248.029 138.719C249.629 138.719 250.818 139.908 250.818 141.59C250.818 143.285 249.629 144.434 248.029 144.434C246.402 144.434 245.24 143.285 245.254 141.59C245.24 139.908 246.402 138.719 248.029 138.719ZM248.029 139.648C246.99 139.648 246.211 140.469 246.225 141.59C246.211 142.711 246.99 143.531 248.029 143.531C249.068 143.531 249.82 142.711 249.834 141.59C249.82 140.469 249.068 139.648 248.029 139.648ZM255.439 137.967V145.199H254.414V141.986H252.801V145.117H251.789V138.199H252.801V141.098H254.414V137.967H255.439ZM255.439 145.883V150.107H254.387V146.744H247.25V145.883H255.439ZM261.373 140.209C261.373 141.986 262.59 143.668 264.354 144.365L263.752 145.199C262.412 144.646 261.373 143.538 260.867 142.15C260.341 143.647 259.247 144.837 257.832 145.418L257.244 144.557C259.049 143.859 260.307 142.109 260.32 140.209V138.65H261.373V140.209ZM267.293 137.967V147.045H266.213V143.148H263.711V142.273H266.213V140.66H263.711V139.771H266.213V137.967H267.293ZM267.566 148.945V149.848H259.432V146.102H260.512V148.945H267.566ZM274.854 138.172C277.561 138.172 279.146 138.91 279.146 140.264C279.146 141.645 277.561 142.383 274.854 142.396C272.146 142.383 270.547 141.645 270.547 140.264C270.547 138.91 272.146 138.172 274.854 138.172ZM274.854 138.979C272.83 138.979 271.654 139.471 271.668 140.264C271.654 141.111 272.83 141.576 274.854 141.576C276.863 141.576 278.053 141.111 278.053 140.264C278.053 139.471 276.863 138.979 274.854 138.979ZM280.391 143.217V144.092H269.316V143.217H280.391ZM278.969 145.145V147.865H271.75V149.123H279.338V149.971H270.684V147.072H277.916V145.965H270.656V145.145H278.969ZM296.059 147.66V148.549H284.93V147.66H289.934V145.035H286.242V138.814H287.322V141.016H293.639V138.814H294.691V145.035H290.986V147.66H296.059ZM287.322 144.16H293.639V141.891H287.322V144.16ZM300.734 138.527C302.512 138.527 303.756 139.484 303.756 140.934C303.756 142.185 302.771 143.094 301.309 143.271V144.461C302.443 144.413 303.599 144.311 304.658 144.146L304.74 144.953C302.17 145.418 299.258 145.445 297.152 145.445L297.016 144.557C297.959 144.563 299.066 144.557 300.229 144.516V143.285C298.725 143.121 297.713 142.205 297.727 140.934C297.713 139.484 298.957 138.527 300.734 138.527ZM300.734 139.361C299.559 139.361 298.725 139.99 298.738 140.934C298.725 141.85 299.559 142.479 300.734 142.492C301.924 142.479 302.73 141.85 302.744 140.934C302.73 139.99 301.924 139.361 300.734 139.361ZM306.518 137.967V142.082H308.336V142.998H306.518V147.264H305.438V137.967H306.518ZM306.955 148.932V149.834H298.793V146.457H299.873V148.932H306.955ZM318.535 137.953V142.971H320.572V143.859H318.535V150.107H317.469V137.953H318.535ZM316.293 139.908V140.797H309.061V139.908H312.191V138.104H313.258V139.908H316.293ZM312.738 141.809C314.461 141.809 315.705 142.957 315.719 144.598C315.705 146.238 314.461 147.387 312.738 147.387C311.002 147.387 309.744 146.238 309.758 144.598C309.744 142.957 311.002 141.809 312.738 141.809ZM312.738 142.711C311.604 142.711 310.77 143.504 310.783 144.598C310.77 145.705 311.604 146.484 312.738 146.471C313.859 146.484 314.68 145.705 314.693 144.598C314.68 143.504 313.859 142.711 312.738 142.711ZM331.291 137.953V150.107H330.225V143.736H327.326V142.848H330.225V137.953H331.291ZM327.354 139.279C327.354 142.725 325.891 145.787 321.83 147.797L321.242 146.936C324.537 145.343 326.062 143.005 326.273 140.154H321.775V139.279H327.354ZM344.703 142.807V143.709H342.734V150.107H341.668V137.953H342.734V142.807H344.703ZM334.9 139.156V146.115C336.678 146.108 338.489 145.972 340.492 145.555L340.629 146.471C338.537 146.895 336.65 147.018 334.805 147.018H333.834V139.156H334.9ZM359.332 137.953V150.107H358.307V143.736H356.516V149.479H355.531V138.227H356.516V142.848H358.307V137.953H359.332ZM353.945 139.443V140.332H350.459V146.184C352.134 146.177 353.296 146.115 354.643 145.842L354.738 146.744C353.275 147.045 352.031 147.1 350.172 147.1H349.393V139.443H353.945ZM364.596 141.699C364.596 143.654 365.594 145.65 367.248 146.539L366.633 147.346C365.423 146.689 364.548 145.432 364.104 143.969C363.666 145.527 362.798 146.881 361.588 147.619L360.945 146.799C362.6 145.842 363.57 143.709 363.584 141.699V141.098H361.273V140.209H363.584V138.404H364.609V140.209H366.879V141.098H364.596V141.699ZM371.432 137.953V150.107H370.406V137.953H371.432ZM368.971 138.254V149.479H367.959V143.668H366.045V142.752H367.959V138.254H368.971ZM382.643 137.912V140.865H384.488V141.754H382.643V144.639H381.576V137.912H382.643ZM382.643 145.268V147.961H375.971V149.15H383.094V149.971H374.918V147.168H381.576V146.074H374.891V145.268H382.643ZM380.414 139.061V139.922H373.168V139.061H376.258V137.83H377.324V139.061H380.414ZM376.791 140.469C378.555 140.469 379.703 141.234 379.717 142.465C379.703 143.695 378.555 144.461 376.791 144.461C375.014 144.461 373.852 143.695 373.865 142.465C373.852 141.234 375.014 140.469 376.791 140.469ZM376.791 141.262C375.643 141.262 374.877 141.74 374.891 142.465C374.877 143.203 375.643 143.654 376.791 143.654C377.939 143.654 378.691 143.203 378.705 142.465C378.691 141.74 377.939 141.262 376.791 141.262ZM396.807 138.227V142.93H398.283V137.953H399.309V150.107H398.283V143.818H396.807V149.506H395.809V138.227H396.807ZM391.762 139.498V140.387H390.121V146.02C390.579 146.006 391.181 145.951 391.844 145.787L391.939 146.703C390.914 146.936 390.121 146.936 389.602 146.936H389.123V139.498H391.762ZM394.988 139.498V140.387H393.266V146.02C393.833 146.013 394.51 145.958 395.248 145.746L395.344 146.662C394.332 146.936 393.498 146.936 392.787 146.936H392.295V139.498H394.988ZM402.85 148.084L401.783 151.803H400.771L401.523 148.084H402.85ZM419.037 143.641V144.529H414.02V145.828C416.316 145.924 417.67 146.676 417.684 147.961C417.67 149.314 416.111 150.08 413.5 150.08C410.861 150.08 409.303 149.314 409.303 147.961C409.303 146.676 410.649 145.924 412.967 145.828V144.529H407.963V143.641H419.037ZM413.5 146.648C411.545 146.662 410.383 147.141 410.396 147.961C410.383 148.768 411.545 149.246 413.5 149.246C415.428 149.246 416.604 148.768 416.604 147.961C416.604 147.141 415.428 146.662 413.5 146.648ZM418.053 138.527V139.402H414.197C414.266 140.77 416.275 141.829 418.422 142.055L418.025 142.902C416.036 142.663 414.17 141.774 413.5 140.414C412.837 141.774 410.978 142.663 408.975 142.902L408.592 142.055C410.697 141.829 412.721 140.77 412.803 139.402H408.975V138.527H418.053ZM431.191 147.646V148.549H420.062V147.646H422.824V144.365C421.785 143.825 421.156 142.95 421.156 141.85C421.156 139.963 423.002 138.732 425.6 138.719C428.197 138.732 430.043 139.963 430.043 141.85C430.043 142.93 429.435 143.798 428.43 144.338V147.646H431.191ZM425.6 139.607C423.604 139.594 422.195 140.496 422.195 141.85C422.195 143.203 423.604 144.119 425.6 144.119C427.582 144.119 429.004 143.203 429.004 141.85C429.004 140.496 427.582 139.594 425.6 139.607ZM423.877 147.646H427.35V144.748C426.823 144.892 426.235 144.967 425.6 144.967C424.978 144.967 424.396 144.898 423.877 144.762V147.646ZM441.979 143.654V144.529H438.219V147.674H443.291V148.576H432.162V147.674H437.166V144.529H433.584V138.951H441.855V139.826H434.664V143.654H441.979ZM453.668 137.953V142.902H455.637V143.805H453.668V150.107H452.602V137.953H453.668ZM450.523 139.266C450.523 142.711 448.91 145.842 444.945 147.797L444.344 146.949C447.488 145.384 449.197 143.046 449.443 140.168H444.904V139.266H450.523ZM470.99 144.885V145.773H468.051V150.107H466.971V145.773H463.854V150.107H462.746V145.773H459.861V144.885H470.99ZM465.398 138.445C467.955 138.445 469.678 139.471 469.678 141.098C469.678 142.711 467.955 143.736 465.398 143.723C462.842 143.736 461.119 142.711 461.119 141.098C461.119 139.471 462.842 138.445 465.398 138.445ZM465.398 139.32C463.498 139.32 462.213 140.018 462.227 141.098C462.213 142.178 463.498 142.861 465.398 142.861C467.285 142.861 468.584 142.178 468.584 141.098C468.584 140.018 467.285 139.32 465.398 139.32ZM476.049 141.221C476.049 143.367 477.471 145.568 479.193 146.416L478.537 147.277C477.197 146.573 476.076 145.138 475.543 143.449C474.996 145.247 473.848 146.778 472.48 147.51L471.797 146.648C473.574 145.773 474.982 143.436 474.996 141.221V139.006H476.049V141.221ZM481.381 137.953V142.889H483.418V143.818H481.381V150.107H480.314V137.953H481.381ZM493.576 137.967V141.973H495.408V142.875H493.576V147.072H492.51V137.967H493.576ZM491.348 139.457V140.332H484.102V139.457H487.191V137.967H488.258V139.457H491.348ZM487.725 141.002C489.461 141.002 490.637 141.891 490.65 143.271C490.637 144.639 489.461 145.514 487.725 145.514C485.975 145.514 484.785 144.639 484.799 143.271C484.785 141.891 485.975 141.002 487.725 141.002ZM487.725 141.85C486.576 141.85 485.811 142.41 485.824 143.271C485.811 144.133 486.576 144.68 487.725 144.666C488.859 144.68 489.625 144.133 489.639 143.271C489.625 142.41 488.859 141.85 487.725 141.85ZM494.137 148.945V149.848H485.975V146.348H487.027V148.945H494.137ZM510.078 137.953V150.107H509.053V143.736H507.262V149.479H506.277V138.227H507.262V142.848H509.053V137.953H510.078ZM504.691 139.443V140.332H501.205V146.184C502.88 146.177 504.042 146.115 505.389 145.842L505.484 146.744C504.021 147.045 502.777 147.1 500.918 147.1H500.139V139.443H504.691ZM521.289 137.953V141.658H523.121V142.561H521.289V146.922H520.223V137.953H521.289ZM521.85 148.945V149.848H513.688V145.992H514.74V148.945H521.85ZM515.205 138.814C517.023 138.814 518.391 140.045 518.404 141.809C518.391 143.572 517.023 144.803 515.205 144.803C513.387 144.803 512.006 143.572 512.02 141.809C512.006 140.045 513.387 138.814 515.205 138.814ZM515.205 139.758C514.002 139.758 513.059 140.605 513.072 141.809C513.059 143.012 514.002 143.859 515.205 143.859C516.436 143.859 517.352 143.012 517.352 141.809C517.352 140.605 516.436 139.758 515.205 139.758ZM530.312 138.719C531.912 138.719 533.102 139.908 533.102 141.59C533.102 143.285 531.912 144.434 530.312 144.434C528.686 144.434 527.523 143.285 527.537 141.59C527.523 139.908 528.686 138.719 530.312 138.719ZM530.312 139.648C529.273 139.648 528.494 140.469 528.508 141.59C528.494 142.711 529.273 143.531 530.312 143.531C531.352 143.531 532.104 142.711 532.117 141.59C532.104 140.469 531.352 139.648 530.312 139.648ZM537.723 137.967V145.199H536.697V141.986H535.084V145.117H534.072V138.199H535.084V141.098H536.697V137.967H537.723ZM537.723 145.883V150.107H536.67V146.744H529.533V145.883H537.723ZM543.656 140.209C543.656 141.986 544.873 143.668 546.637 144.365L546.035 145.199C544.695 144.646 543.656 143.538 543.15 142.15C542.624 143.647 541.53 144.837 540.115 145.418L539.527 144.557C541.332 143.859 542.59 142.109 542.604 140.209V138.65H543.656V140.209ZM549.576 137.967V147.045H548.496V143.148H545.994V142.273H548.496V140.66H545.994V139.771H548.496V137.967H549.576ZM549.85 148.945V149.848H541.715V146.102H542.795V148.945H549.85ZM562.018 137.953V150.107H560.979V137.953H562.018ZM559.57 138.213V149.492H558.545V143.586H556.986C556.87 145.951 555.865 147.428 554.361 147.428C552.775 147.428 551.75 145.787 551.75 143.203C551.75 140.619 552.775 138.979 554.361 138.979C555.838 138.979 556.836 140.407 556.973 142.697H558.545V138.213H559.57ZM554.361 139.99C553.377 139.99 552.748 141.221 552.762 143.203C552.748 145.172 553.377 146.416 554.361 146.402C555.346 146.416 555.975 145.172 555.975 143.203C555.975 141.221 555.346 139.99 554.361 139.99ZM571.287 141.221C571.287 143.367 572.709 145.568 574.432 146.416L573.775 147.277C572.436 146.573 571.314 145.138 570.781 143.449C570.234 145.247 569.086 146.778 567.719 147.51L567.035 146.648C568.812 145.773 570.221 143.436 570.234 141.221V139.006H571.287V141.221ZM576.619 137.953V142.889H578.656V143.818H576.619V150.107H575.553V137.953H576.619ZM590.387 143.969V144.857H579.312V143.969H582.061V142.26C581.09 141.884 580.543 141.262 580.543 140.441C580.543 139.006 582.184 138.186 584.85 138.186C587.488 138.186 589.143 139.006 589.143 140.441C589.143 141.255 588.603 141.877 587.639 142.246V143.969H590.387ZM584.85 145.787C587.461 145.787 589.02 146.539 589.033 147.934C589.02 149.314 587.461 150.08 584.85 150.08C582.211 150.08 580.652 149.314 580.652 147.934C580.652 146.539 582.211 145.787 584.85 145.787ZM584.85 146.607C582.895 146.621 581.732 147.1 581.746 147.934C581.732 148.754 582.895 149.246 584.85 149.246C586.777 149.246 587.953 148.754 587.953 147.934C587.953 147.1 586.777 146.621 584.85 146.607ZM584.85 139.033C582.867 139.033 581.637 139.566 581.65 140.441C581.637 141.33 582.867 141.85 584.85 141.85C586.818 141.85 588.049 141.33 588.049 140.441C588.049 139.566 586.818 139.033 584.85 139.033ZM583.127 143.969H586.572V142.547C586.06 142.636 585.485 142.684 584.85 142.684C584.214 142.684 583.64 142.636 583.127 142.547V143.969ZM600.914 137.953V141.07H602.746V141.986H600.914V145.021H599.848V137.953H600.914ZM594.297 145.555V146.854H599.848V145.555H600.914V149.943H593.23V145.555H594.297ZM594.297 149.082H599.848V147.701H594.297V149.082ZM598.686 139.211V140.1H591.439V139.211H594.529V137.844H595.596V139.211H598.686ZM595.062 140.66C596.812 140.66 597.975 141.494 597.988 142.793C597.975 144.092 596.812 144.926 595.062 144.926C593.299 144.926 592.123 144.092 592.137 142.793C592.123 141.494 593.299 140.66 595.062 140.66ZM595.062 141.494C593.914 141.48 593.148 142.014 593.162 142.793C593.148 143.586 593.914 144.105 595.062 144.105C596.197 144.105 596.963 143.586 596.977 142.793C596.963 142.014 596.197 141.48 595.062 141.494ZM613.533 137.953V150.107H612.467V137.953H613.533ZM605.357 139.156V146.047C607.21 146.04 609.131 145.89 611.168 145.459L611.318 146.375C609.158 146.826 607.23 146.977 605.289 146.977H604.305V139.156H605.357ZM625.018 137.953V142.766H627.055V143.668H625.018V150.135H623.951V137.953H625.018ZM621.818 139.143V140.031H617.211V146.184C619.412 146.184 620.971 146.081 622.775 145.746L622.912 146.676C621.012 147.018 619.412 147.086 617.102 147.086H616.145V139.143H621.818ZM628.996 149.082C628.518 149.082 628.107 148.686 628.121 148.193C628.107 147.715 628.518 147.318 628.996 147.318C629.475 147.318 629.871 147.715 629.871 148.193C629.871 148.686 629.475 149.082 628.996 149.082Z" fill="var(--sol-element-primary)"/>
<g clip-path="url(#clip2_1665_175867)">
<path d="M48 212C48 209.791 49.7909 208 52 208H129C131.209 208 133 209.791 133 212V236C133 238.209 131.209 240 129 240H52C49.7909 240 48 238.209 48 236V212Z" fill="var(--sol-fill-active)"/>
<path d="M69.1426 220.793V219.516H75.9043V220.793H73.291V228H71.7676V220.793H69.1426ZM78.9277 228.129C77.0059 228.129 75.834 226.852 75.834 224.859C75.834 222.891 77.0293 221.555 78.8457 221.555C80.4043 221.555 81.752 222.527 81.752 224.766V225.234H77.3105C77.3281 226.318 77.9668 226.957 78.9395 226.957C79.5957 226.957 80.041 226.676 80.2285 226.301H81.6934C81.4238 227.402 80.4043 228.129 78.9277 228.129ZM77.3223 224.215H80.3223C80.3105 223.348 79.7363 222.715 78.8691 222.715C77.9668 222.715 77.3691 223.4 77.3223 224.215ZM82.9121 228V221.637H84.3652V222.691H84.4355C84.6582 221.965 85.2793 221.543 86.0059 221.543C86.1699 221.543 86.4043 221.555 86.5449 221.578V222.961C86.416 222.914 86.0996 222.867 85.8535 222.867C85.0215 222.867 84.4121 223.441 84.4121 224.25V228H82.9121ZM90.9629 221.637V222.785H89.709V226.09C89.709 226.699 90.0137 226.828 90.3887 226.828C90.5645 226.828 90.8574 226.816 91.0449 226.805V228.023C90.8691 228.059 90.5762 228.082 90.2012 228.082C89.0762 228.082 88.209 227.531 88.2207 226.336V222.785H87.3066V221.637H88.2207V220.113H89.709V221.637H90.9629ZM92.1113 228V221.637H93.6113V228H92.1113ZM92.873 220.734C92.4043 220.734 92.0059 220.371 92.0059 219.914C92.0059 219.469 92.4043 219.105 92.873 219.105C93.3535 219.105 93.7402 219.469 93.7402 219.914C93.7402 220.371 93.3535 220.734 92.873 220.734ZM94.748 226.207C94.748 224.777 95.9316 224.355 97.1152 224.285C97.5547 224.256 98.4688 224.203 98.7441 224.191V223.688C98.7441 223.055 98.334 222.691 97.5957 222.691C96.9277 222.691 96.5176 222.996 96.4004 223.453H94.959C95.0645 222.375 96.0371 221.555 97.6309 221.555C98.8379 221.555 100.232 222.047 100.232 223.746V228H98.8027V227.121H98.7559C98.4746 227.66 97.877 228.129 96.8809 228.129C95.6621 228.129 94.748 227.461 94.748 226.207ZM96.1895 226.195C96.1895 226.746 96.6348 227.027 97.2676 227.027C98.1699 227.027 98.7559 226.43 98.7559 225.715V225.188L97.3496 225.281C96.6348 225.34 96.1895 225.633 96.1895 226.195ZM101.639 228V221.637H103.092V222.691H103.162C103.385 221.965 104.006 221.543 104.732 221.543C104.896 221.543 105.131 221.555 105.271 221.578V222.961C105.143 222.914 104.826 222.867 104.58 222.867C103.748 222.867 103.139 223.441 103.139 224.25V228H101.639ZM107.264 230.391C106.971 230.391 106.678 230.379 106.49 230.355V229.16C106.678 229.172 106.924 229.184 107.123 229.184C107.486 229.184 107.791 229.148 108.049 228.469L108.178 228.129L105.857 221.637H107.439L108.916 226.441H108.986L110.463 221.637H112.045L109.49 228.773C109.127 229.793 108.459 230.391 107.264 230.391Z" fill="var(--sol-surface)"/>
</g>
<path d="M204.566 225.309V226.211H199.549V230.135H198.496V226.211H193.492V225.309H204.566ZM199.562 220.359C199.562 221.877 201.682 223.203 203.855 223.504L203.459 224.365C201.579 224.078 199.809 223.135 199.043 221.809C198.264 223.148 196.466 224.078 194.586 224.365L194.189 223.504C196.35 223.203 198.496 221.891 198.496 220.359V220.346H194.572V219.471H198.496V217.953H199.549V219.471H203.5V220.346H199.562V220.359ZM214.998 217.953V222.902H216.967V223.805H214.998V230.107H213.932V217.953H214.998ZM211.854 219.266C211.854 222.711 210.24 225.842 206.275 227.797L205.674 226.949C208.818 225.384 210.527 223.046 210.773 220.168H206.234V219.266H211.854ZM226.742 218.158C229.408 218.158 231.035 218.951 231.035 220.373C231.035 221.692 229.613 222.492 227.248 222.574V223.709H232.279V224.598H221.205V223.709H226.209V222.574C223.857 222.485 222.436 221.686 222.436 220.373C222.436 218.951 224.076 218.158 226.742 218.158ZM226.742 218.979C224.76 218.965 223.529 219.498 223.543 220.373C223.529 221.234 224.76 221.754 226.742 221.754C228.711 221.754 229.941 221.234 229.941 220.373C229.941 219.498 228.711 218.965 226.742 218.979ZM223.68 225.322V226.676H229.777V225.322H230.871V229.943H222.613V225.322H223.68ZM223.68 229.068H229.777V227.537H223.68V229.068ZM237.461 220.209C237.461 221.986 238.678 223.668 240.441 224.365L239.84 225.199C238.5 224.646 237.461 223.538 236.955 222.15C236.429 223.647 235.335 224.837 233.92 225.418L233.332 224.557C235.137 223.859 236.395 222.109 236.408 220.209V218.65H237.461V220.209ZM243.381 217.967V227.045H242.301V223.148H239.799V222.273H242.301V220.66H239.799V219.771H242.301V217.967H243.381ZM243.654 228.945V229.848H235.52V226.102H236.6V228.945H243.654ZM260.006 223.736V224.639H248.918V223.736H260.006ZM258.707 221.699V222.574H250.326V218.445H258.625V219.348H251.379V221.699H258.707ZM254.455 225.705C257.066 225.705 258.625 226.498 258.639 227.893C258.625 229.301 257.066 230.08 254.455 230.08C251.83 230.08 250.258 229.301 250.258 227.893C250.258 226.498 251.83 225.705 254.455 225.705ZM254.455 226.539C252.5 226.553 251.338 227.045 251.352 227.893C251.338 228.754 252.5 229.232 254.455 229.232C256.383 229.232 257.559 228.754 257.559 227.893C257.559 227.045 256.383 226.553 254.455 226.539ZM275.66 227.66V228.549H264.531V227.66H269.535V225.035H265.844V218.814H266.924V221.016H273.24V218.814H274.293V225.035H270.588V227.66H275.66ZM266.924 224.16H273.24V221.891H266.924V224.16ZM287.76 227.646V228.549H276.631V227.646H281.648V224.693H282.729V227.646H287.76ZM282.729 220.264C282.729 222.205 285.135 223.873 287.227 224.215L286.789 225.062C284.93 224.7 282.968 223.518 282.195 221.822C281.409 223.524 279.454 224.734 277.629 225.117L277.178 224.256C279.229 223.9 281.621 222.205 281.621 220.264V219.963H277.547V219.061H286.803V219.963H282.729V220.264ZM292.955 220.195C292.955 221.781 294.172 223.285 295.949 223.9L295.389 224.748C294.015 224.256 292.955 223.237 292.436 221.986C291.909 223.388 290.788 224.509 289.346 225.035L288.785 224.188C290.576 223.545 291.875 221.918 291.875 220.209V219.676H289.127V218.801H295.676V219.676H292.955V220.195ZM298.807 225.883V230.107H297.727V226.771H290.631V225.883H298.807ZM298.807 217.953V225.24H297.727V222.041H295.293V221.139H297.727V217.953H298.807ZM310.865 217.967V226.854H309.799V217.967H310.865ZM311.248 228.945V229.848H303.018V225.951H304.084V228.945H311.248ZM304.303 218.814C306.121 218.814 307.488 220.045 307.488 221.795C307.488 223.572 306.121 224.789 304.303 224.789C302.484 224.789 301.117 223.572 301.117 221.795C301.117 220.045 302.484 218.814 304.303 218.814ZM304.303 219.758C303.072 219.758 302.156 220.605 302.17 221.795C302.156 223.012 303.072 223.846 304.303 223.846C305.506 223.846 306.436 223.012 306.436 221.795C306.436 220.605 305.506 219.758 304.303 219.758ZM326.492 217.953V230.107H325.412V217.953H326.492ZM322.896 219.279C322.883 222.779 321.256 225.869 317.182 227.824L316.594 226.949C319.882 225.391 321.557 223.06 321.803 220.154H317.154V219.279H322.896ZM338.359 221.357V222.246H330.061V218.199H331.127V221.357H338.359ZM339.631 223.668V224.557H328.543V223.668H339.631ZM334.08 225.65C336.691 225.65 338.25 226.443 338.264 227.852C338.25 229.26 336.691 230.053 334.08 230.053C331.455 230.053 329.883 229.26 329.883 227.852C329.883 226.443 331.455 225.65 334.08 225.65ZM334.08 226.498C332.125 226.512 330.963 226.99 330.977 227.852C330.963 228.699 332.125 229.219 334.08 229.219C336.008 229.219 337.184 228.699 337.184 227.852C337.184 226.99 336.008 226.512 334.08 226.498ZM351.061 217.953V230.107H350.021V217.953H351.061ZM348.613 218.213V229.492H347.588V223.586H346.029C345.913 225.951 344.908 227.428 343.404 227.428C341.818 227.428 340.793 225.787 340.793 223.203C340.793 220.619 341.818 218.979 343.404 218.979C344.881 218.979 345.879 220.407 346.016 222.697H347.588V218.213H348.613ZM343.404 219.99C342.42 219.99 341.791 221.221 341.805 223.203C341.791 225.172 342.42 226.416 343.404 226.402C344.389 226.416 345.018 225.172 345.018 223.203C345.018 221.221 344.389 219.99 343.404 219.99ZM360.33 221.221C360.33 223.367 361.752 225.568 363.475 226.416L362.818 227.277C361.479 226.573 360.357 225.138 359.824 223.449C359.277 225.247 358.129 226.778 356.762 227.51L356.078 226.648C357.855 225.773 359.264 223.436 359.277 221.221V219.006H360.33V221.221ZM365.662 217.953V222.889H367.699V223.818H365.662V230.107H364.596V217.953H365.662ZM379.43 223.969V224.857H368.355V223.969H371.104V222.26C370.133 221.884 369.586 221.262 369.586 220.441C369.586 219.006 371.227 218.186 373.893 218.186C376.531 218.186 378.186 219.006 378.186 220.441C378.186 221.255 377.646 221.877 376.682 222.246V223.969H379.43ZM373.893 225.787C376.504 225.787 378.062 226.539 378.076 227.934C378.062 229.314 376.504 230.08 373.893 230.08C371.254 230.08 369.695 229.314 369.695 227.934C369.695 226.539 371.254 225.787 373.893 225.787ZM373.893 226.607C371.938 226.621 370.775 227.1 370.789 227.934C370.775 228.754 371.938 229.246 373.893 229.246C375.82 229.246 376.996 228.754 376.996 227.934C376.996 227.1 375.82 226.621 373.893 226.607ZM373.893 219.033C371.91 219.033 370.68 219.566 370.693 220.441C370.68 221.33 371.91 221.85 373.893 221.85C375.861 221.85 377.092 221.33 377.092 220.441C377.092 219.566 375.861 219.033 373.893 219.033ZM372.17 223.969H375.615V222.547C375.103 222.636 374.528 222.684 373.893 222.684C373.257 222.684 372.683 222.636 372.17 222.547V223.969ZM389.861 217.953V222.971H391.898V223.859H389.861V230.107H388.795V217.953H389.861ZM387.619 219.908V220.797H380.387V219.908H383.518V218.104H384.584V219.908H387.619ZM384.064 221.809C385.787 221.809 387.031 222.957 387.045 224.598C387.031 226.238 385.787 227.387 384.064 227.387C382.328 227.387 381.07 226.238 381.084 224.598C381.07 222.957 382.328 221.809 384.064 221.809ZM384.064 222.711C382.93 222.711 382.096 223.504 382.109 224.598C382.096 225.705 382.93 226.484 384.064 226.471C385.186 226.484 386.006 225.705 386.02 224.598C386.006 223.504 385.186 222.711 384.064 222.711ZM398.584 219.17V220.879H401.564V217.953H402.631V230.135H401.564V225.117H398.584V227.031H393.047V219.17H398.584ZM394.113 220.018V226.17H397.545V220.018H394.113ZM398.584 224.229H401.564V221.768H398.584V224.229ZM406.65 228.084L405.584 231.803H404.572L405.324 228.084H406.65ZM421.197 217.953V223.135H423.139V224.037H421.197V230.107H420.117V217.953H421.197ZM411.613 226.867C412.604 226.867 413.76 226.867 414.963 226.826V225.473C413.548 225.315 412.625 224.488 412.639 223.285C412.625 221.918 413.787 221.029 415.51 221.029C417.205 221.029 418.381 221.918 418.395 223.285C418.381 224.488 417.444 225.315 416.043 225.486V226.785C417.178 226.73 418.319 226.642 419.379 226.484L419.447 227.305C416.795 227.756 413.924 227.783 411.791 227.783L411.613 226.867ZM419.16 219.443V220.318H411.832V219.443H414.963V217.98H416.043V219.443H419.16ZM415.51 221.863C414.389 221.863 413.637 222.438 413.637 223.285C413.637 224.133 414.389 224.68 415.51 224.666C416.617 224.68 417.369 224.133 417.369 223.285C417.369 222.438 416.617 221.863 415.51 221.863ZM430.016 219.02V220.1H432.859V217.967H433.939V226.84H432.859V223.6H430.016V224.693H424.438V219.02H430.016ZM425.504 219.908V223.832H428.963V219.908H425.504ZM434.213 228.945V229.848H426.078V226.047H427.158V228.945H434.213ZM430.016 222.711H432.859V221.002H430.016V222.711ZM449.854 217.953V230.107H448.801V223.818H447.051V229.479H446.039V218.227H447.051V222.902H448.801V217.953H449.854ZM441.158 219.443V226.006C442.368 225.992 443.653 225.91 445.137 225.609L445.273 226.566C443.578 226.867 442.184 226.963 440.844 226.963H440.092V219.443H441.158ZM459.41 221.221C459.396 223.436 460.914 225.678 462.705 226.484L462.049 227.332C460.668 226.655 459.472 225.227 458.891 223.49C458.323 225.329 457.127 226.86 455.705 227.578L455.021 226.676C456.826 225.842 458.33 223.531 458.344 221.221V219.006H459.41V221.221ZM465.111 217.953V230.135H464.031V217.953H465.111ZM476.691 217.953V221.043H478.523V221.959H476.691V225.09H475.625V217.953H476.691ZM473.355 218.732C473.355 221.809 471.209 223.996 467.613 224.953L467.176 224.119C470.156 223.312 471.995 221.686 472.221 219.621H467.723V218.732H473.355ZM476.691 225.65V230.107H475.625V226.525H468.734V225.65H476.691ZM483.514 220.195C483.514 221.781 484.73 223.285 486.508 223.9L485.947 224.748C484.573 224.256 483.514 223.237 482.994 221.986C482.468 223.388 481.347 224.509 479.904 225.035L479.344 224.188C481.135 223.545 482.434 221.918 482.434 220.209V219.676H479.686V218.801H486.234V219.676H483.514V220.195ZM489.365 225.883V230.107H488.285V226.771H481.189V225.883H489.365ZM489.365 217.953V225.24H488.285V222.041H485.852V221.139H488.285V217.953H489.365ZM506.018 224.926V225.828H500.945V230.107H499.893V225.828H494.889V224.926H506.018ZM500.426 218.445C502.982 218.445 504.705 219.471 504.705 221.125C504.705 222.738 502.982 223.764 500.426 223.764C497.869 223.764 496.146 222.738 496.146 221.125C496.146 219.471 497.869 218.445 500.426 218.445ZM500.426 219.32C498.525 219.32 497.24 220.031 497.254 221.125C497.24 222.205 498.525 222.902 500.426 222.902C502.312 222.902 503.611 222.205 503.611 221.125C503.611 220.031 502.312 219.32 500.426 219.32ZM511.158 220.25C511.158 221.945 512.389 223.545 514.166 224.188L513.564 225.021C512.231 224.488 511.172 223.429 510.652 222.109C510.133 223.579 509.025 224.748 507.59 225.322L507.016 224.447C508.834 223.777 510.092 222.082 510.105 220.209V218.705H511.158V220.25ZM517.078 217.967V227.072H515.998V221.727H513.291V220.824H515.998V217.967H517.078ZM517.352 228.945V229.848H509.217V226.033H510.297V228.945H517.352ZM525.199 218.883C525.199 220.469 527.414 221.918 529.52 222.246L529.096 223.094C527.25 222.779 525.425 221.754 524.652 220.332C523.887 221.781 522.041 222.793 520.195 223.107L519.771 222.26C521.891 221.932 524.092 220.523 524.092 218.883V218.268H525.199V218.883ZM530.217 224.146V225.035H525.268V227.523H524.201V225.035H519.088V224.146H530.217ZM528.973 228.945V229.848H520.51V226.334H521.59V228.945H528.973ZM535.207 218.555C537.025 218.541 538.324 219.539 538.324 221.029C538.324 222.506 537.025 223.531 535.207 223.518C533.389 223.531 532.09 222.506 532.09 221.029C532.09 219.539 533.389 218.541 535.207 218.555ZM535.207 219.43C533.99 219.416 533.129 220.086 533.143 221.029C533.129 221.986 533.99 222.643 535.207 222.629C536.438 222.643 537.299 221.986 537.299 221.029C537.299 220.086 536.438 219.416 535.207 219.43ZM541.223 217.967V230.121H540.17V217.967H541.223ZM531.174 224.557C533.457 224.557 536.574 224.516 539.281 224.119L539.35 224.926C538.188 225.138 536.978 225.268 535.809 225.336V229.738H534.742V225.404C533.505 225.459 532.336 225.466 531.324 225.473L531.174 224.557ZM554.416 223.6V224.447H543.287V223.6H554.416ZM553.021 225.418V228.002H545.721V229.164H553.418V229.943H544.641V227.264H551.955V226.225H544.627V225.418H553.021ZM552.98 218.322V220.838H545.803V221.904H553.199V222.684H544.736V220.1H551.9V219.102H544.695V218.322H552.98ZM563.521 224.365V226.594C564.69 226.546 565.887 226.443 567.008 226.279L567.09 227.072C564.314 227.578 561.32 227.592 559.133 227.592L558.982 226.703C560.001 226.696 561.204 226.689 562.469 226.648V224.365H563.521ZM566.379 219.553V220.441H563.521C563.549 222.014 564.854 223.292 566.652 223.805L566.146 224.652C564.684 224.215 563.542 223.278 563.002 222.041C562.469 223.347 561.334 224.317 559.871 224.762L559.352 223.941C561.149 223.415 562.414 222.082 562.441 220.441H559.652V219.553H562.469V218.049H563.521V219.553H566.379ZM568.881 217.953V230.135H567.814V217.953H568.881ZM582.143 227.633V228.521H571.014V227.633H575.99V224.652H577.043V227.633H582.143ZM577.07 219.717C577.07 221.754 579.477 223.531 581.596 223.9L581.117 224.789C579.265 224.413 577.31 223.155 576.523 221.398C575.724 223.148 573.782 224.413 571.93 224.789L571.451 223.9C573.57 223.531 575.949 221.754 575.949 219.717V218.787H577.07V219.717ZM592.547 217.953V223.135H594.488V224.037H592.547V230.107H591.467V217.953H592.547ZM582.963 226.867C583.954 226.867 585.109 226.867 586.312 226.826V225.473C584.897 225.315 583.975 224.488 583.988 223.285C583.975 221.918 585.137 221.029 586.859 221.029C588.555 221.029 589.73 221.918 589.744 223.285C589.73 224.488 588.794 225.315 587.393 225.486V226.785C588.527 226.73 589.669 226.642 590.729 226.484L590.797 227.305C588.145 227.756 585.273 227.783 583.141 227.783L582.963 226.867ZM590.51 219.443V220.318H583.182V219.443H586.312V217.98H587.393V219.443H590.51ZM586.859 221.863C585.738 221.863 584.986 222.438 584.986 223.285C584.986 224.133 585.738 224.68 586.859 224.666C587.967 224.68 588.719 224.133 588.719 223.285C588.719 222.438 587.967 221.863 586.859 221.863ZM604.715 217.953V221.07H606.547V221.986H604.715V225.021H603.648V217.953H604.715ZM598.098 225.555V226.854H603.648V225.555H604.715V229.943H597.031V225.555H598.098ZM598.098 229.082H603.648V227.701H598.098V229.082ZM602.486 219.211V220.1H595.24V219.211H598.33V217.844H599.396V219.211H602.486ZM598.863 220.66C600.613 220.66 601.775 221.494 601.789 222.793C601.775 224.092 600.613 224.926 598.863 224.926C597.1 224.926 595.924 224.092 595.938 222.793C595.924 221.494 597.1 220.66 598.863 220.66ZM598.863 221.494C597.715 221.48 596.949 222.014 596.963 222.793C596.949 223.586 597.715 224.105 598.863 224.105C599.998 224.105 600.764 223.586 600.777 222.793C600.764 222.014 599.998 221.48 598.863 221.494ZM617.334 217.953V230.107H616.268V217.953H617.334ZM609.158 219.156V226.047C611.011 226.04 612.932 225.89 614.969 225.459L615.119 226.375C612.959 226.826 611.031 226.977 609.09 226.977H608.105V219.156H609.158ZM628.818 217.953V222.766H630.855V223.668H628.818V230.135H627.752V217.953H628.818ZM625.619 219.143V220.031H621.012V226.184C623.213 226.184 624.771 226.081 626.576 225.746L626.713 226.676C624.812 227.018 623.213 227.086 620.902 227.086H619.945V219.143H625.619ZM632.797 229.082C632.318 229.082 631.908 228.686 631.922 228.193C631.908 227.715 632.318 227.318 632.797 227.318C633.275 227.318 633.672 227.715 633.672 228.193C633.672 228.686 633.275 229.082 632.797 229.082Z" fill="var(--sol-element-primary)"/>
<defs>
<clipPath id="clip0_1665_175867">
<path d="M48 52C48 49.7909 49.7909 48 52 48H129C131.209 48 133 49.7909 133 52V76C133 78.2091 131.209 80 129 80H52C49.7909 80 48 78.2091 48 76V52Z" fill="var(--sol-surface)"/>
</clipPath>
<clipPath id="clip1_1665_175867">
<path d="M48 132C48 129.791 49.7909 128 52 128H129C131.209 128 133 129.791 133 132V156C133 158.209 131.209 160 129 160H52C49.7909 160 48 158.209 48 156V132Z" fill="var(--sol-surface)"/>
</clipPath>
<clipPath id="clip2_1665_175867">
<path d="M48 212C48 209.791 49.7909 208 52 208H129C131.209 208 133 209.791 133 212V236C133 238.209 131.209 240 129 240H52C49.7909 240 48 238.209 48 236V212Z" fill="var(--sol-surface)"/>
</clipPath>
</defs>
</svg>
