<svg width="442" height="130" viewBox="0 0 442 130" fill="none" xmlns="http://www.w3.org/2000/svg">
<style>
:root {
  --sol-primary: #282363;
  --sol-fill-active: #4d469a;
  --sol-surface: #ffffff;
  --sol-element-primary: #161616;
  --sol-element-quaternary: #858585;
  --sol-border-solid-variant: #e0e0e0;
  --sol-error: #e76067;
  --sol-static-white: #ffffff;
  --sol-static-black: #000000;
}
@media (prefers-color-scheme: dark) {
  :root {
    --sol-primary: #9791d4;
    --sol-fill-active: #7b74c4;
    --sol-surface: #161616;
    --sol-element-primary: #ffffff;
    --sol-element-quaternary: rgba(255, 255, 255, 0.5);
    --sol-border-solid-variant: #3d3d3d;
    --sol-error: #ee7a80;
  }
}
</style>
<g clip-path="url(#clip0_1665_176519)">
<g clip-path="url(#clip1_1665_176519)">
<path d="M101.5 51C101.5 48.7909 103.291 47 105.5 47H235.5C237.709 47 239.5 48.7909 239.5 51V79C239.5 81.2091 237.709 83 235.5 83H105.5C103.291 83 101.5 81.2091 101.5 79V51Z" fill="var(--sol-primary)"/>
<path d="M121.431 63.2598C121.116 62.207 120.296 61.5645 119.093 61.5645C117.493 61.5645 116.345 62.8086 116.345 65.0371C116.345 67.293 117.479 68.5371 119.134 68.5371C120.624 68.5371 121.581 67.6348 121.608 66.2266H119.312V64.8184H123.331V66.0078C123.331 68.5508 121.581 70.1367 119.134 70.1367C116.399 70.1367 114.554 68.1953 114.554 65.0508C114.554 61.8789 116.481 59.9648 119.079 59.9648C121.267 59.9648 122.948 61.3184 123.249 63.2598H121.431ZM128.103 70.1504C125.942 70.1504 124.548 68.6191 124.548 66.3223C124.548 64.0117 125.942 62.4805 128.103 62.4805C130.276 62.4805 131.657 64.0117 131.657 66.3223C131.657 68.6191 130.276 70.1504 128.103 70.1504ZM128.116 68.7559C129.306 68.7559 129.894 67.6758 129.894 66.3086C129.894 64.9551 129.306 63.8613 128.116 63.8613C126.899 63.8613 126.312 64.9551 126.312 66.3086C126.312 67.6758 126.899 68.7559 128.116 68.7559ZM140.038 62.5762V63.916H138.575V67.7715C138.575 68.4824 138.931 68.6328 139.368 68.6328C139.573 68.6328 139.915 68.6191 140.134 68.6055V70.0273C139.929 70.0684 139.587 70.0957 139.149 70.0957C137.837 70.0957 136.825 69.4531 136.839 68.0586V63.916H135.772V62.5762H136.839V60.7988H138.575V62.5762H140.038ZM144.55 70.1504C142.39 70.1504 140.995 68.6191 140.995 66.3223C140.995 64.0117 142.39 62.4805 144.55 62.4805C146.724 62.4805 148.104 64.0117 148.104 66.3223C148.104 68.6191 146.724 70.1504 144.55 70.1504ZM144.563 68.7559C145.753 68.7559 146.341 67.6758 146.341 66.3086C146.341 64.9551 145.753 63.8613 144.563 63.8613C143.347 63.8613 142.759 64.9551 142.759 66.3086C142.759 67.6758 143.347 68.7559 144.563 68.7559ZM159.534 63.4375C159.329 62.248 158.372 61.5645 157.169 61.5645C155.542 61.5645 154.407 62.8086 154.407 65.0508C154.407 67.3203 155.556 68.5371 157.169 68.5371C158.345 68.5371 159.302 67.8809 159.534 66.7188H161.325C161.052 68.6191 159.493 70.1367 157.142 70.1367C154.53 70.1367 152.616 68.2363 152.616 65.0508C152.616 61.8516 154.558 59.9648 157.142 59.9648C159.329 59.9648 161.024 61.2363 161.325 63.4375H159.534ZM166.015 70.1504C163.854 70.1504 162.46 68.6191 162.46 66.3223C162.46 64.0117 163.854 62.4805 166.015 62.4805C168.188 62.4805 169.569 64.0117 169.569 66.3223C169.569 68.6191 168.188 70.1504 166.015 70.1504ZM166.028 68.7559C167.218 68.7559 167.806 67.6758 167.806 66.3086C167.806 64.9551 167.218 63.8613 166.028 63.8613C164.812 63.8613 164.224 64.9551 164.224 66.3086C164.224 67.6758 164.812 68.7559 166.028 68.7559ZM172.673 65.6523V70H170.923V62.5762H172.591V63.834H172.687C173.028 63 173.78 62.4805 174.888 62.4805C176.433 62.4805 177.444 63.4922 177.431 65.2695V70H175.694V65.543C175.694 64.5449 175.161 63.957 174.245 63.957C173.315 63.957 172.673 64.5723 172.673 65.6523ZM183.31 64.6953C183.2 64.1348 182.735 63.7793 181.997 63.7793C181.245 63.7793 180.698 64.1484 180.712 64.6543C180.698 65.0371 181.013 65.3242 181.765 65.502L183.022 65.7617C184.431 66.0762 185.101 66.7188 185.114 67.7852C185.101 69.1797 183.884 70.1504 181.942 70.1504C180.056 70.1504 178.935 69.3027 178.757 67.8809H180.534C180.644 68.5098 181.136 68.8242 181.942 68.8242C182.776 68.8242 183.337 68.4824 183.337 67.9355C183.337 67.5117 182.995 67.2383 182.257 67.0742L181.067 66.8145C179.687 66.541 178.976 65.8164 178.976 64.75C178.976 63.3828 180.151 62.4805 181.97 62.4805C183.747 62.4805 184.841 63.3418 184.964 64.6953H183.31ZM189.681 70.1504C187.521 70.1504 186.126 68.6191 186.126 66.3223C186.126 64.0117 187.521 62.4805 189.681 62.4805C191.854 62.4805 193.235 64.0117 193.235 66.3223C193.235 68.6191 191.854 70.1504 189.681 70.1504ZM189.694 68.7559C190.884 68.7559 191.472 67.6758 191.472 66.3086C191.472 64.9551 190.884 63.8613 189.694 63.8613C188.478 63.8613 187.89 64.9551 187.89 66.3086C187.89 67.6758 188.478 68.7559 189.694 68.7559ZM196.339 60.1016V70H194.589V60.1016H196.339ZM201.302 70.1504C199.06 70.1504 197.692 68.6602 197.692 66.3359C197.692 64.0391 199.087 62.4805 201.206 62.4805C203.024 62.4805 204.597 63.6152 204.597 66.2266V66.7734H199.415C199.436 68.0381 200.181 68.7832 201.315 68.7832C202.081 68.7832 202.601 68.4551 202.819 68.0176H204.528C204.214 69.3027 203.024 70.1504 201.302 70.1504ZM199.429 65.584H202.929C202.915 64.5723 202.245 63.834 201.233 63.834C200.181 63.834 199.483 64.6338 199.429 65.584Z" fill="var(--sol-surface)"/>
<path d="M221.854 64.6465C222.049 64.8417 222.049 65.1583 221.854 65.3535L217.854 69.3535L217.146 68.6465L220.793 65L217.146 61.3535L217.854 60.6465L221.854 64.6465Z" fill="var(--sol-surface)"/>
</g>
<path d="M277.243 65.1162L277.191 65.6136L277.146 65.9476C276.886 67.5547 275.97 69.0404 274.513 69.9587L274.361 70.0511C271.8 71.5585 268.569 70.8183 266.87 68.43L266.738 68.9352L266.611 69.4183L265.663 69.1592L266.166 67.249L266.145 67.2119L266.182 67.1905L266.241 66.9626L266.257 66.9138C266.345 66.6769 266.596 66.5421 266.842 66.6091L268.997 67.1976L268.743 68.1638L267.69 67.8753C269.104 69.8269 271.76 70.427 273.871 69.1852L274.12 69.0283C275.336 68.2086 276.07 66.9 276.215 65.5075L276.267 65.0108L277.243 65.1162ZM268.898 59.8057C271.415 58.4933 274.487 59.2625 276.129 61.5707L276.262 61.0655L276.389 60.5824L277.337 60.8415L277.21 61.3246L276.834 62.7523L276.855 62.7888L276.819 62.8096L276.759 63.0381C276.726 63.1662 276.643 63.2758 276.531 63.3421C276.418 63.4083 276.284 63.4258 276.159 63.3916L274.003 62.8031L274.257 61.8369L275.309 62.124C273.943 60.239 271.416 59.6155 269.344 60.6963L269.13 60.8155C267.765 61.6184 266.94 63.008 266.785 64.4932L266.732 64.9899L265.757 64.8845L265.809 64.3871L265.853 64.0531C266.123 62.3907 267.094 60.8585 268.639 59.9496L268.898 59.8057Z" fill="var(--sol-element-quaternary)"/>
<path d="M293.49 63.4375C293.285 62.248 292.328 61.5645 291.125 61.5645C289.498 61.5645 288.363 62.8086 288.363 65.0508C288.363 67.3203 289.512 68.5371 291.125 68.5371C292.301 68.5371 293.258 67.8809 293.49 66.7188H295.281C295.008 68.6191 293.449 70.1367 291.098 70.1367C288.486 70.1367 286.572 68.2363 286.572 65.0508C286.572 61.8516 288.514 59.9648 291.098 59.9648C293.285 59.9648 294.98 61.2363 295.281 63.4375H293.49ZM298.48 60.1016V70H296.73V60.1016H298.48ZM303.443 70.1504C301.201 70.1504 299.834 68.6602 299.834 66.3359C299.834 64.0391 301.229 62.4805 303.348 62.4805C305.166 62.4805 306.738 63.6152 306.738 66.2266V66.7734H301.557C301.577 68.0381 302.322 68.7832 303.457 68.7832C304.223 68.7832 304.742 68.4551 304.961 68.0176H306.67C306.355 69.3027 305.166 70.1504 303.443 70.1504ZM301.57 65.584H305.07C305.057 64.5723 304.387 63.834 303.375 63.834C302.322 63.834 301.625 64.6338 301.57 65.584ZM307.75 67.9082C307.75 66.2402 309.131 65.748 310.512 65.666C311.024 65.6318 312.091 65.5703 312.412 65.5566V64.9688C312.412 64.2305 311.934 63.8066 311.072 63.8066C310.293 63.8066 309.814 64.1621 309.678 64.6953H307.996C308.119 63.4375 309.254 62.4805 311.113 62.4805C312.521 62.4805 314.148 63.0547 314.148 65.0371V70H312.48V68.9746H312.426C312.098 69.6035 311.4 70.1504 310.238 70.1504C308.816 70.1504 307.75 69.3711 307.75 67.9082ZM309.432 67.8945C309.432 68.5371 309.951 68.8652 310.689 68.8652C311.742 68.8652 312.426 68.168 312.426 67.334V66.7188L310.785 66.8281C309.951 66.8965 309.432 67.2383 309.432 67.8945ZM315.789 70V62.5762H317.484V63.8066H317.566C317.826 62.959 318.551 62.4668 319.398 62.4668C319.59 62.4668 319.863 62.4805 320.027 62.5078V64.1211C319.877 64.0664 319.508 64.0117 319.221 64.0117C318.25 64.0117 317.539 64.6816 317.539 65.625V70H315.789ZM325.729 70H323.828L327.314 60.1016H329.502L333.002 70H331.102L330.281 67.5527H326.549L325.729 70ZM327.027 66.1172H329.803L328.449 62.125H328.367L327.027 66.1172ZM335.846 60.1016V70H334.096V60.1016H335.846ZM339.264 60.1016V70H337.514V60.1016H339.264Z" fill="var(--sol-element-quaternary)"/>
</g>
<defs>
<clipPath id="clip0_1665_176519">
<path d="M0 8C0 3.58172 3.58172 0 8 0H434C438.418 0 442 3.58172 442 8V122C442 126.418 438.418 130 434 130H8C3.58172 130 0 126.418 0 122V8Z" fill="var(--sol-surface)"/>
</clipPath>
<clipPath id="clip1_1665_176519">
<path d="M101.5 51C101.5 48.7909 103.291 47 105.5 47H235.5C237.709 47 239.5 48.7909 239.5 51V79C239.5 81.2091 237.709 83 235.5 83H105.5C103.291 83 101.5 81.2091 101.5 79V51Z" fill="var(--sol-surface)"/>
</clipPath>
</defs>
</svg>
