<svg width="442" height="130" viewBox="0 0 442 130" fill="none" xmlns="http://www.w3.org/2000/svg">
<style>
:root {
  --sol-primary: #282363;
  --sol-element-brand-variant: #3a3480;
  --sol-fill-active: #4d469a;
  --sol-selected-container-variant: #f5f4fd;
  --sol-surface: #ffffff;
  --sol-secondary-container: #e8e6f8;
  --sol-element-primary: #161616;
  --sol-element-secondary: #484848;
  --sol-element-tertiary: #636363;
  --sol-element-quaternary: #858585;
  --sol-border-brand: #7b74c4;
  --sol-border-normal-variant: rgba(0, 0, 0, 0.08);
  --sol-border-solid-variant: #e0e0e0;
  --sol-border-solid: #d0d0d0;
  --sol-error-dim: #b84451;
  --sol-static-white: #ffffff;
  --sol-static-black: #000000;
}
@media (prefers-color-scheme: dark) {
  :root {
    --sol-primary: #9791d4;
    --sol-element-brand-variant: #ffffff;
    --sol-fill-active: #7b74c4;
    --sol-selected-container-variant: rgba(0, 0, 0, 0.08);
    --sol-surface: #161616;
    --sol-secondary-container: rgba(255, 255, 255, 0.16);
    --sol-element-primary: #ffffff;
    --sol-element-secondary: rgba(255, 255, 255, 0.8);
    --sol-element-tertiary: rgba(255, 255, 255, 0.6);
    --sol-element-quaternary: rgba(255, 255, 255, 0.5);
    --sol-border-brand: #7b74c4;
    --sol-border-normal-variant: rgba(255, 255, 255, 0.08);
    --sol-border-solid-variant: #3d3d3d;
    --sol-border-solid: #333333;
    --sol-error-dim: #e76067;
    --sol-static-white: #ffffff;
    --sol-static-black: #000000;
  }
}
</style>
<g clip-path="url(#clip0_1274_156929)">
<g clip-path="url(#clip1_1274_156929)">
<path d="M100 51C100 48.7909 101.791 47 104 47H237C239.209 47 241 48.7909 241 51V79C241 81.2091 239.209 83 237 83H104C101.791 83 100 81.2091 100 79V51Z" fill="var(--sol-primary)"/>
<path d="M120.036 63.2598C119.722 62.207 118.901 61.5645 117.698 61.5645C116.099 61.5645 114.95 62.8086 114.95 65.0371C114.95 67.293 116.085 68.5371 117.739 68.5371C119.229 68.5371 120.187 67.6348 120.214 66.2266H117.917V64.8184H121.937V66.0078C121.937 68.5508 120.187 70.1367 117.739 70.1367C115.005 70.1367 113.159 68.1953 113.159 65.0508C113.159 61.8789 115.087 59.9648 117.685 59.9648C119.872 59.9648 121.554 61.3184 121.854 63.2598H120.036ZM126.708 70.1504C124.548 70.1504 123.153 68.6191 123.153 66.3223C123.153 64.0117 124.548 62.4805 126.708 62.4805C128.882 62.4805 130.263 64.0117 130.263 66.3223C130.263 68.6191 128.882 70.1504 126.708 70.1504ZM126.722 68.7559C127.911 68.7559 128.499 67.6758 128.499 66.3086C128.499 64.9551 127.911 63.8613 126.722 63.8613C125.505 63.8613 124.917 64.9551 124.917 66.3086C124.917 67.6758 125.505 68.7559 126.722 68.7559ZM134.583 61.5918V60.1016H142.472V61.5918H139.423V70H137.646V61.5918H134.583ZM145.944 70.1504C143.784 70.1504 142.39 68.6191 142.39 66.3223C142.39 64.0117 143.784 62.4805 145.944 62.4805C148.118 62.4805 149.499 64.0117 149.499 66.3223C149.499 68.6191 148.118 70.1504 145.944 70.1504ZM145.958 68.7559C147.147 68.7559 147.735 67.6758 147.735 66.3086C147.735 64.9551 147.147 63.8613 145.958 63.8613C144.741 63.8613 144.153 64.9551 144.153 66.3086C144.153 67.6758 144.741 68.7559 145.958 68.7559ZM160.929 63.4375C160.724 62.248 159.767 61.5645 158.563 61.5645C156.937 61.5645 155.802 62.8086 155.802 65.0508C155.802 67.3203 156.95 68.5371 158.563 68.5371C159.739 68.5371 160.696 67.8809 160.929 66.7188H162.72C162.446 68.6191 160.888 70.1367 158.536 70.1367C155.925 70.1367 154.011 68.2363 154.011 65.0508C154.011 61.8516 155.952 59.9648 158.536 59.9648C160.724 59.9648 162.419 61.2363 162.72 63.4375H160.929ZM167.409 70.1504C165.249 70.1504 163.854 68.6191 163.854 66.3223C163.854 64.0117 165.249 62.4805 167.409 62.4805C169.583 62.4805 170.964 64.0117 170.964 66.3223C170.964 68.6191 169.583 70.1504 167.409 70.1504ZM167.423 68.7559C168.612 68.7559 169.2 67.6758 169.2 66.3086C169.2 64.9551 168.612 63.8613 167.423 63.8613C166.206 63.8613 165.618 64.9551 165.618 66.3086C165.618 67.6758 166.206 68.7559 167.423 68.7559ZM174.067 65.6523V70H172.317V62.5762H173.985V63.834H174.081C174.423 63 175.175 62.4805 176.282 62.4805C177.827 62.4805 178.839 63.4922 178.825 65.2695V70H177.089V65.543C177.089 64.5449 176.556 63.957 175.64 63.957C174.71 63.957 174.067 64.5723 174.067 65.6523ZM184.704 64.6953C184.595 64.1348 184.13 63.7793 183.392 63.7793C182.64 63.7793 182.093 64.1484 182.106 64.6543C182.093 65.0371 182.407 65.3242 183.159 65.502L184.417 65.7617C185.825 66.0762 186.495 66.7188 186.509 67.7852C186.495 69.1797 185.278 70.1504 183.337 70.1504C181.45 70.1504 180.329 69.3027 180.151 67.8809H181.929C182.038 68.5098 182.53 68.8242 183.337 68.8242C184.171 68.8242 184.731 68.4824 184.731 67.9355C184.731 67.5117 184.39 67.2383 183.651 67.0742L182.462 66.8145C181.081 66.541 180.37 65.8164 180.37 64.75C180.37 63.3828 181.546 62.4805 183.364 62.4805C185.142 62.4805 186.235 63.3418 186.358 64.6953H184.704ZM191.075 70.1504C188.915 70.1504 187.521 68.6191 187.521 66.3223C187.521 64.0117 188.915 62.4805 191.075 62.4805C193.249 62.4805 194.63 64.0117 194.63 66.3223C194.63 68.6191 193.249 70.1504 191.075 70.1504ZM191.089 68.7559C192.278 68.7559 192.866 67.6758 192.866 66.3086C192.866 64.9551 192.278 63.8613 191.089 63.8613C189.872 63.8613 189.284 64.9551 189.284 66.3086C189.284 67.6758 189.872 68.7559 191.089 68.7559ZM197.733 60.1016V70H195.983V60.1016H197.733ZM202.696 70.1504C200.454 70.1504 199.087 68.6602 199.087 66.3359C199.087 64.0391 200.481 62.4805 202.601 62.4805C204.419 62.4805 205.991 63.6152 205.991 66.2266V66.7734H200.81C200.83 68.0381 201.575 68.7832 202.71 68.7832C203.476 68.7832 203.995 68.4551 204.214 68.0176H205.923C205.608 69.3027 204.419 70.1504 202.696 70.1504ZM200.823 65.584H204.323C204.31 64.5723 203.64 63.834 202.628 63.834C201.575 63.834 200.878 64.6338 200.823 65.584Z" fill="var(--sol-surface)"/>
<path d="M223.354 64.6465C223.549 64.8417 223.549 65.1583 223.354 65.3535L219.354 69.3535L218.646 68.6465L222.293 65L218.646 61.3535L219.354 60.6465L223.354 64.6465Z" fill="var(--sol-surface)"/>
</g>
<path d="M278.743 65.1162L278.691 65.6136L278.646 65.9476C278.386 67.5547 277.47 69.0404 276.013 69.9587L275.861 70.0511C273.3 71.5585 270.069 70.8183 268.37 68.43L268.238 68.9352L268.111 69.4183L267.163 69.1592L267.666 67.249L267.645 67.2119L267.682 67.1905L267.741 66.9626L267.757 66.9138C267.845 66.6769 268.096 66.5421 268.342 66.6091L270.497 67.1976L270.243 68.1638L269.19 67.8753C270.604 69.8269 273.26 70.427 275.371 69.1852L275.62 69.0283C276.836 68.2086 277.57 66.9 277.715 65.5075L277.767 65.0108L278.743 65.1162ZM270.398 59.8057C272.915 58.4933 275.987 59.2625 277.629 61.5707L277.762 61.0655L277.889 60.5824L278.837 60.8415L278.71 61.3246L278.334 62.7523L278.355 62.7888L278.319 62.8096L278.259 63.0381C278.226 63.1662 278.143 63.2758 278.031 63.3421C277.918 63.4083 277.784 63.4258 277.659 63.3916L275.503 62.8031L275.757 61.8369L276.809 62.124C275.443 60.239 272.916 59.6155 270.844 60.6963L270.63 60.8155C269.265 61.6184 268.44 63.008 268.285 64.4932L268.232 64.9899L267.257 64.8845L267.309 64.3871L267.353 64.0531C267.623 62.3907 268.594 60.8585 270.139 59.9496L270.398 59.8057Z" fill="var(--sol-element-quaternary)"/>
<path d="M294.99 63.4375C294.785 62.248 293.828 61.5645 292.625 61.5645C290.998 61.5645 289.863 62.8086 289.863 65.0508C289.863 67.3203 291.012 68.5371 292.625 68.5371C293.801 68.5371 294.758 67.8809 294.99 66.7188H296.781C296.508 68.6191 294.949 70.1367 292.598 70.1367C289.986 70.1367 288.072 68.2363 288.072 65.0508C288.072 61.8516 290.014 59.9648 292.598 59.9648C294.785 59.9648 296.48 61.2363 296.781 63.4375H294.99ZM299.98 60.1016V70H298.23V60.1016H299.98ZM304.943 70.1504C302.701 70.1504 301.334 68.6602 301.334 66.3359C301.334 64.0391 302.729 62.4805 304.848 62.4805C306.666 62.4805 308.238 63.6152 308.238 66.2266V66.7734H303.057C303.077 68.0381 303.822 68.7832 304.957 68.7832C305.723 68.7832 306.242 68.4551 306.461 68.0176H308.17C307.855 69.3027 306.666 70.1504 304.943 70.1504ZM303.07 65.584H306.57C306.557 64.5723 305.887 63.834 304.875 63.834C303.822 63.834 303.125 64.6338 303.07 65.584ZM309.25 67.9082C309.25 66.2402 310.631 65.748 312.012 65.666C312.524 65.6318 313.591 65.5703 313.912 65.5566V64.9688C313.912 64.2305 313.434 63.8066 312.572 63.8066C311.793 63.8066 311.314 64.1621 311.178 64.6953H309.496C309.619 63.4375 310.754 62.4805 312.613 62.4805C314.021 62.4805 315.648 63.0547 315.648 65.0371V70H313.98V68.9746H313.926C313.598 69.6035 312.9 70.1504 311.738 70.1504C310.316 70.1504 309.25 69.3711 309.25 67.9082ZM310.932 67.8945C310.932 68.5371 311.451 68.8652 312.189 68.8652C313.242 68.8652 313.926 68.168 313.926 67.334V66.7188L312.285 66.8281C311.451 66.8965 310.932 67.2383 310.932 67.8945ZM317.289 70V62.5762H318.984V63.8066H319.066C319.326 62.959 320.051 62.4668 320.898 62.4668C321.09 62.4668 321.363 62.4805 321.527 62.5078V64.1211C321.377 64.0664 321.008 64.0117 320.721 64.0117C319.75 64.0117 319.039 64.6816 319.039 65.625V70H317.289ZM327.229 70H325.328L328.814 60.1016H331.002L334.502 70H332.602L331.781 67.5527H328.049L327.229 70ZM328.527 66.1172H331.303L329.949 62.125H329.867L328.527 66.1172ZM337.346 60.1016V70H335.596V60.1016H337.346ZM340.764 60.1016V70H339.014V60.1016H340.764Z" fill="var(--sol-element-quaternary)"/>
</g>
<defs>
<clipPath id="clip0_1274_156929">
<path d="M0 8C0 3.58172 3.58172 0 8 0H434C438.418 0 442 3.58172 442 8V122C442 126.418 438.418 130 434 130H8C3.58172 130 0 126.418 0 122V8Z" fill="var(--sol-surface)"/>
</clipPath>
<clipPath id="clip1_1274_156929">
<path d="M100 51C100 48.7909 101.791 47 104 47H237C239.209 47 241 48.7909 241 51V79C241 81.2091 239.209 83 237 83H104C101.791 83 100 81.2091 100 79V51Z" fill="var(--sol-surface)"/>
</clipPath>
</defs>
</svg>
