<svg width="442" height="130" viewBox="0 0 442 130" fill="none" xmlns="http://www.w3.org/2000/svg">
<style>
:root {
  --sol-primary: #282363;
  --sol-element-brand-variant: #3a3480;
  --sol-fill-active: #4d469a;
  --sol-selected-container-variant: #f5f4fd;
  --sol-surface: #ffffff;
  --sol-secondary-container: #e8e6f8;
  --sol-element-primary: #161616;
  --sol-element-secondary: #484848;
  --sol-element-tertiary: #636363;
  --sol-element-quaternary: #858585;
  --sol-border-brand: #7b74c4;
  --sol-border-normal-variant: rgba(0, 0, 0, 0.08);
  --sol-border-solid-variant: #e0e0e0;
  --sol-border-solid: #d0d0d0;
  --sol-error-dim: #b84451;
  --sol-static-white: #ffffff;
  --sol-static-black: #000000;
}
@media (prefers-color-scheme: dark) {
  :root {
    --sol-primary: #9791d4;
    --sol-element-brand-variant: #ffffff;
    --sol-fill-active: #7b74c4;
    --sol-selected-container-variant: rgba(0, 0, 0, 0.08);
    --sol-surface: #161616;
    --sol-secondary-container: rgba(255, 255, 255, 0.16);
    --sol-element-primary: #ffffff;
    --sol-element-secondary: rgba(255, 255, 255, 0.8);
    --sol-element-tertiary: rgba(255, 255, 255, 0.6);
    --sol-element-quaternary: rgba(255, 255, 255, 0.5);
    --sol-border-brand: #7b74c4;
    --sol-border-normal-variant: rgba(255, 255, 255, 0.08);
    --sol-border-solid-variant: #3d3d3d;
    --sol-border-solid: #333333;
    --sol-error-dim: #e76067;
    --sol-static-white: #ffffff;
    --sol-static-black: #000000;
  }
}
</style>
<g clip-path="url(#clip0_1274_156925)">
<path d="M68 51C68 48.7909 69.7909 47 72 47H221C223.209 47 225 48.7909 225 51V79C225 81.2091 223.209 83 221 83H72C69.7909 83 68 81.2091 68 79V51Z" fill="var(--sol-surface)"/>
<path d="M87.7141 60.8262L84.5475 63.9928L83.8404 63.2858L87.8606 59.2656L87.9368 59.2031C88.0183 59.1488 88.1147 59.1191 88.2141 59.1191C88.3467 59.1191 88.4739 59.1719 88.5676 59.2656L92.5878 63.2858L91.8808 63.9928L88.7141 60.8262V68.6745H87.7141V60.8262Z" fill="var(--sol-primary)"/>
<path d="M82.2141 69.6415V67.6747H83.2141V69.6415C83.2141 69.8208 83.2144 69.9254 83.2206 70.0022C83.2233 70.035 83.2266 70.0531 83.2284 70.0614C83.2384 70.0794 83.2528 70.0943 83.2708 70.1044C83.2785 70.1061 83.2968 70.1094 83.3313 70.1122C83.4081 70.1185 83.5126 70.1194 83.692 70.1194H92.7363C92.9156 70.1194 93.0201 70.1185 93.0969 70.1122C93.1305 70.1095 93.1487 70.1062 93.1568 70.1044C93.1749 70.0943 93.1891 70.0795 93.1991 70.0614C93.201 70.0532 93.2049 70.0352 93.2076 70.0022C93.2139 69.9254 93.2141 69.8208 93.2141 69.6415V67.6747H94.2141V69.6415C94.2141 69.8043 94.2147 69.9566 94.2044 70.0835C94.1962 70.1832 94.1798 70.2916 94.1405 70.4019L94.093 70.5126C93.9998 70.6954 93.8581 70.8486 93.6842 70.9553L93.6073 70.9983C93.4598 71.0734 93.3111 71.0981 93.1783 71.1089C93.0513 71.1193 92.8991 71.1194 92.7363 71.1194H83.692C83.5292 71.1194 83.3769 71.1193 83.2499 71.1089C83.1504 71.1008 83.0418 71.085 82.9316 71.0458L82.8209 70.9983C82.6119 70.8918 82.4417 70.7216 82.3352 70.5126C82.26 70.365 82.2347 70.2164 82.2239 70.0835C82.2135 69.9566 82.2141 69.8043 82.2141 69.6415Z" fill="var(--sol-primary)"/>
<path d="M104.958 60.1016V70H103.181V60.1016H104.958ZM106.722 70V62.5762H108.39V63.834H108.485C108.786 62.9863 109.538 62.4805 110.522 62.4805C111.534 62.4805 112.245 62.9863 112.532 63.834H112.614C112.942 63.0137 113.763 62.4805 114.843 62.4805C116.196 62.4805 117.153 63.3555 117.153 65.0098V70H115.417V65.2832C115.417 64.3535 114.856 63.9434 114.146 63.9434C113.284 63.9434 112.792 64.5312 112.792 65.3652V70H111.097V65.2148C111.097 64.4492 110.577 63.9434 109.839 63.9434C109.087 63.9434 108.472 64.5586 108.472 65.4883V70H106.722ZM118.821 72.7891V62.5762H120.53V63.793H120.64C120.913 63.2598 121.46 62.4805 122.772 62.4805C124.481 62.4805 125.835 63.8203 125.835 66.2949C125.835 68.7422 124.522 70.1367 122.772 70.1367C121.487 70.1367 120.913 69.3711 120.64 68.8242H120.571V72.7891H118.821ZM120.53 66.2812C120.53 67.7305 121.159 68.7012 122.294 68.7012C123.442 68.7012 124.058 67.6895 124.058 66.2812C124.058 64.9004 123.456 63.9023 122.294 63.9023C121.159 63.9023 120.53 64.8457 120.53 66.2812ZM130.442 70.1504C128.282 70.1504 126.888 68.6191 126.888 66.3223C126.888 64.0117 128.282 62.4805 130.442 62.4805C132.616 62.4805 133.997 64.0117 133.997 66.3223C133.997 68.6191 132.616 70.1504 130.442 70.1504ZM130.456 68.7559C131.646 68.7559 132.233 67.6758 132.233 66.3086C132.233 64.9551 131.646 63.8613 130.456 63.8613C129.239 63.8613 128.651 64.9551 128.651 66.3086C128.651 67.6758 129.239 68.7559 130.456 68.7559ZM135.351 70V62.5762H137.046V63.8066H137.128C137.388 62.959 138.112 62.4668 138.96 62.4668C139.151 62.4668 139.425 62.4805 139.589 62.5078V64.1211C139.438 64.0664 139.069 64.0117 138.782 64.0117C137.812 64.0117 137.101 64.6816 137.101 65.625V70H135.351ZM144.743 62.5762V63.916H143.28V67.7715C143.28 68.4824 143.636 68.6328 144.073 68.6328C144.278 68.6328 144.62 68.6191 144.839 68.6055V70.0273C144.634 70.0684 144.292 70.0957 143.854 70.0957C142.542 70.0957 141.53 69.4531 141.544 68.0586V63.916H140.478V62.5762H141.544V60.7988H143.28V62.5762H144.743ZM154.874 62.8223C154.792 61.9746 154.067 61.4824 153.001 61.4824C151.88 61.4824 151.196 62.0293 151.196 62.7676C151.196 63.6016 152.071 63.9434 152.892 64.1348L153.821 64.3809C155.298 64.7227 156.72 65.502 156.72 67.2246C156.72 68.9609 155.353 70.1504 152.974 70.1504C150.663 70.1504 149.214 69.043 149.132 67.0879H150.882C150.964 68.127 151.839 68.6328 152.96 68.6328C154.136 68.6328 154.942 68.0586 154.942 67.2109C154.942 66.4316 154.218 66.1035 153.151 65.8301L152.03 65.543C150.403 65.1191 149.392 64.2988 149.392 62.877C149.392 61.127 150.95 59.9648 153.028 59.9648C155.134 59.9648 156.556 61.1543 156.583 62.8223H154.874ZM161.819 62.5762V63.916H160.356V67.7715C160.356 68.4824 160.712 68.6328 161.149 68.6328C161.354 68.6328 161.696 68.6191 161.915 68.6055V70.0273C161.71 70.0684 161.368 70.0957 160.931 70.0957C159.618 70.0957 158.606 69.4531 158.62 68.0586V63.916H157.554V62.5762H158.62V60.7988H160.356V62.5762H161.819ZM166.331 70.1504C164.171 70.1504 162.776 68.6191 162.776 66.3223C162.776 64.0117 164.171 62.4805 166.331 62.4805C168.505 62.4805 169.886 64.0117 169.886 66.3223C169.886 68.6191 168.505 70.1504 166.331 70.1504ZM166.345 68.7559C167.534 68.7559 168.122 67.6758 168.122 66.3086C168.122 64.9551 167.534 63.8613 166.345 63.8613C165.128 63.8613 164.54 64.9551 164.54 66.3086C164.54 67.6758 165.128 68.7559 166.345 68.7559ZM171.239 70V62.5762H172.935V63.8066H173.017C173.276 62.959 174.001 62.4668 174.849 62.4668C175.04 62.4668 175.313 62.4805 175.478 62.5078V64.1211C175.327 64.0664 174.958 64.0117 174.671 64.0117C173.7 64.0117 172.989 64.6816 172.989 65.625V70H171.239ZM179.579 70.1504C177.337 70.1504 175.97 68.6602 175.97 66.3359C175.97 64.0391 177.364 62.4805 179.483 62.4805C181.302 62.4805 182.874 63.6152 182.874 66.2266V66.7734H177.692C177.713 68.0381 178.458 68.7832 179.593 68.7832C180.358 68.7832 180.878 68.4551 181.097 68.0176H182.806C182.491 69.3027 181.302 70.1504 179.579 70.1504ZM177.706 65.584H181.206C181.192 64.5723 180.522 63.834 179.511 63.834C178.458 63.834 177.761 64.6338 177.706 65.584ZM188.438 64.6953C188.329 64.1348 187.864 63.7793 187.126 63.7793C186.374 63.7793 185.827 64.1484 185.841 64.6543C185.827 65.0371 186.142 65.3242 186.894 65.502L188.151 65.7617C189.56 66.0762 190.229 66.7188 190.243 67.7852C190.229 69.1797 189.013 70.1504 187.071 70.1504C185.185 70.1504 184.063 69.3027 183.886 67.8809H185.663C185.772 68.5098 186.265 68.8242 187.071 68.8242C187.905 68.8242 188.466 68.4824 188.466 67.9355C188.466 67.5117 188.124 67.2383 187.386 67.0742L186.196 66.8145C184.815 66.541 184.104 65.8164 184.104 64.75C184.104 63.3828 185.28 62.4805 187.099 62.4805C188.876 62.4805 189.97 63.3418 190.093 64.6953H188.438Z" fill="var(--sol-primary)"/>
<path d="M207.354 64.6465C207.549 64.8417 207.549 65.1583 207.354 65.3535L203.354 69.3535L202.646 68.6465L206.293 65L202.646 61.3535L203.354 60.6465L207.354 64.6465Z" fill="var(--sol-element-primary)"/>
</g>
<path d="M72 47.5H221C222.933 47.5 224.5 49.067 224.5 51V79C224.5 80.933 222.933 82.5 221 82.5H72C70.067 82.5 68.5 80.933 68.5 79V51C68.5 49.067 70.067 47.5 72 47.5Z" stroke="var(--sol-element-primary)" stroke-opacity="0.16"/>
<g clip-path="url(#clip1_1274_156925)">
<path d="M241 51C241 48.7909 242.791 47 245 47H370C372.209 47 374 48.7909 374 51V79C374 81.2091 372.209 83 370 83H245C242.791 83 241 81.2091 241 79V51Z" fill="var(--sol-primary)"/>
<path d="M260.381 65.5H255.381V64.5H260.381V59.5H261.381V64.5H266.381V65.5H261.381V70.5H260.381V65.5Z" fill="var(--sol-surface)"/>
<path d="M277.395 70H275.494L278.98 60.1016H281.168L284.668 70H282.768L281.947 67.5527H278.215L277.395 70ZM278.693 66.1172H281.469L280.115 62.125H280.033L278.693 66.1172ZM288.305 70.1367C286.555 70.1367 285.242 68.7422 285.242 66.2949C285.242 63.8203 286.596 62.4805 288.318 62.4805C289.631 62.4805 290.178 63.2598 290.438 63.793H290.506V60.1016H292.242V70H290.533V68.8242H290.438C290.164 69.3711 289.59 70.1367 288.305 70.1367ZM288.783 68.7012C289.904 68.7012 290.547 67.7305 290.547 66.2812C290.547 64.8457 289.918 63.9023 288.783 63.9023C287.621 63.9023 287.02 64.9004 287.02 66.2812C287.02 67.6895 287.635 68.7012 288.783 68.7012ZM296.768 70.1367C295.018 70.1367 293.705 68.7422 293.705 66.2949C293.705 63.8203 295.059 62.4805 296.781 62.4805C298.094 62.4805 298.641 63.2598 298.9 63.793H298.969V60.1016H300.705V70H298.996V68.8242H298.9C298.627 69.3711 298.053 70.1367 296.768 70.1367ZM297.246 68.7012C298.367 68.7012 299.01 67.7305 299.01 66.2812C299.01 64.8457 298.381 63.9023 297.246 63.9023C296.084 63.9023 295.482 64.9004 295.482 66.2812C295.482 67.6895 296.098 68.7012 297.246 68.7012ZM311.26 62.8223C311.178 61.9746 310.453 61.4824 309.387 61.4824C308.266 61.4824 307.582 62.0293 307.582 62.7676C307.582 63.6016 308.457 63.9434 309.277 64.1348L310.207 64.3809C311.684 64.7227 313.105 65.502 313.105 67.2246C313.105 68.9609 311.738 70.1504 309.359 70.1504C307.049 70.1504 305.6 69.043 305.518 67.0879H307.268C307.35 68.127 308.225 68.6328 309.346 68.6328C310.521 68.6328 311.328 68.0586 311.328 67.2109C311.328 66.4316 310.604 66.1035 309.537 65.8301L308.416 65.543C306.789 65.1191 305.777 64.2988 305.777 62.877C305.777 61.127 307.336 59.9648 309.414 59.9648C311.52 59.9648 312.941 61.1543 312.969 62.8223H311.26ZM318.205 62.5762V63.916H316.742V67.7715C316.742 68.4824 317.098 68.6328 317.535 68.6328C317.74 68.6328 318.082 68.6191 318.301 68.6055V70.0273C318.096 70.0684 317.754 70.0957 317.316 70.0957C316.004 70.0957 314.992 69.4531 315.006 68.0586V63.916H313.939V62.5762H315.006V60.7988H316.742V62.5762H318.205ZM322.717 70.1504C320.557 70.1504 319.162 68.6191 319.162 66.3223C319.162 64.0117 320.557 62.4805 322.717 62.4805C324.891 62.4805 326.271 64.0117 326.271 66.3223C326.271 68.6191 324.891 70.1504 322.717 70.1504ZM322.73 68.7559C323.92 68.7559 324.508 67.6758 324.508 66.3086C324.508 64.9551 323.92 63.8613 322.73 63.8613C321.514 63.8613 320.926 64.9551 320.926 66.3086C320.926 67.6758 321.514 68.7559 322.73 68.7559ZM327.625 70V62.5762H329.32V63.8066H329.402C329.662 62.959 330.387 62.4668 331.234 62.4668C331.426 62.4668 331.699 62.4805 331.863 62.5078V64.1211C331.713 64.0664 331.344 64.0117 331.057 64.0117C330.086 64.0117 329.375 64.6816 329.375 65.625V70H327.625ZM335.965 70.1504C333.723 70.1504 332.355 68.6602 332.355 66.3359C332.355 64.0391 333.75 62.4805 335.869 62.4805C337.688 62.4805 339.26 63.6152 339.26 66.2266V66.7734H334.078C334.099 68.0381 334.844 68.7832 335.979 68.7832C336.744 68.7832 337.264 68.4551 337.482 68.0176H339.191C338.877 69.3027 337.688 70.1504 335.965 70.1504ZM334.092 65.584H337.592C337.578 64.5723 336.908 63.834 335.896 63.834C334.844 63.834 334.146 64.6338 334.092 65.584Z" fill="var(--sol-surface)"/>
<path d="M356.354 64.6465C356.549 64.8417 356.549 65.1583 356.354 65.3535L352.354 69.3535L351.646 68.6465L355.293 65L351.646 61.3535L352.354 60.6465L356.354 64.6465Z" fill="var(--sol-surface)"/>
</g>
<defs>
<clipPath id="clip0_1274_156925">
<path d="M68 51C68 48.7909 69.7909 47 72 47H221C223.209 47 225 48.7909 225 51V79C225 81.2091 223.209 83 221 83H72C69.7909 83 68 81.2091 68 79V51Z" fill="var(--sol-surface)"/>
</clipPath>
<clipPath id="clip1_1274_156925">
<path d="M241 51C241 48.7909 242.791 47 245 47H370C372.209 47 374 48.7909 374 51V79C374 81.2091 372.209 83 370 83H245C242.791 83 241 81.2091 241 79V51Z" fill="var(--sol-surface)"/>
</clipPath>
</defs>
</svg>
