<svg width="442" height="130" viewBox="0 0 442 130" fill="none" xmlns="http://www.w3.org/2000/svg">
<style>
:root {
  --sol-element-primary: #161616;
  --sol-fill-active: #4d469a;
  --sol-surface: #ffffff;
  --sol-static-white: #ffffff;
  --sol-static-black: #000000;
}
@media (prefers-color-scheme: dark) {
  :root {
    --sol-element-primary: #ffffff;
    --sol-fill-active: #7b74c4;
    --sol-surface: #161616;
  }
}
</style>
<path d="M153.001 58.833H163.001C163.645 58.8332 164.167 59.3558 164.167 60V70C164.167 70.6441 163.645 71.1658 163.001 71.166H153.001C152.357 71.166 151.834 70.6442 151.834 70V60C151.834 59.3557 152.357 58.833 153.001 58.833Z" stroke="var(--sol-element-primary)" stroke-opacity="0.16"/>
<path d="M176.324 60.1016V70H175.094V60.1016H176.324ZM181.52 67.8945C181.52 66.1855 183.023 65.8027 184.309 65.707C184.78 65.6729 185.983 65.6113 186.318 65.5977V64.9961C186.318 64.0527 185.758 63.5059 184.637 63.5059C183.693 63.5059 183.133 63.9434 182.969 64.5039H181.738C181.889 63.3145 183.051 62.4805 184.691 62.4805C185.662 62.4805 187.48 62.7676 187.48 65.1055V70H186.318V68.9883H186.264C186.018 69.4941 185.334 70.1777 184.049 70.1777C182.641 70.1777 181.52 69.3438 181.52 67.8945ZM182.695 67.9492C182.695 68.7285 183.352 69.125 184.254 69.125C185.58 69.125 186.318 68.2363 186.318 67.3066V66.5547L184.445 66.6914C183.379 66.7598 182.695 67.1426 182.695 67.9492ZM192.375 72.9395C190.584 72.9395 189.367 72.1602 189.23 70.7793H190.461C190.625 71.5312 191.322 71.9141 192.375 71.9141C193.646 71.9141 194.426 71.3672 194.426 70.1367V68.6328H194.33C194.084 69.043 193.605 69.8906 192.17 69.8906C190.365 69.8906 189.012 68.5234 189.012 66.1855C189.012 63.9023 190.324 62.4805 192.184 62.4805C193.619 62.4805 194.084 63.3555 194.357 63.752H194.453V62.5762H195.602V70.2051C195.602 72.1191 194.18 72.9395 192.375 72.9395ZM192.334 68.8379C193.688 68.8379 194.453 67.8672 194.453 66.2266C194.453 64.6406 193.715 63.5332 192.334 63.5332C190.912 63.5332 190.201 64.7363 190.201 66.2266C190.201 67.7715 190.926 68.8379 192.334 68.8379ZM197.475 70V62.5762H198.609V63.7109H198.691C198.965 62.959 199.73 62.4531 200.605 62.4531C200.783 62.4531 201.084 62.4668 201.221 62.4805V63.6699C201.139 63.6426 200.811 63.5879 200.51 63.5879C199.443 63.5879 198.65 64.3262 198.65 65.3242V70H197.475ZM205.254 70.1504C203.107 70.1504 201.781 68.6328 201.781 66.3496C201.781 64.0664 203.121 62.4805 205.145 62.4805C206.703 62.4805 208.344 63.4375 208.344 66.1855V66.6777H202.957C203.012 68.25 203.928 69.1113 205.254 69.1113C206.143 69.1113 206.703 68.7285 206.977 68.2637H208.234C207.879 69.3848 206.785 70.1504 205.254 70.1504ZM202.971 65.6797H207.154C207.154 64.4355 206.361 63.5195 205.145 63.5195C203.859 63.5195 203.039 64.5312 202.971 65.6797ZM212.992 70.1504C210.846 70.1504 209.52 68.6328 209.52 66.3496C209.52 64.0664 210.859 62.4805 212.883 62.4805C214.441 62.4805 216.082 63.4375 216.082 66.1855V66.6777H210.695C210.75 68.25 211.666 69.1113 212.992 69.1113C213.881 69.1113 214.441 68.7285 214.715 68.2637H215.973C215.617 69.3848 214.523 70.1504 212.992 70.1504ZM210.709 65.6797H214.893C214.893 64.4355 214.1 63.5195 212.883 63.5195C211.598 63.5195 210.777 64.5312 210.709 65.6797ZM224.367 62.5762V63.5605H222.809V67.8672C222.809 68.8242 223.273 68.9746 223.779 68.9746C223.998 68.9746 224.299 68.9609 224.477 68.9473V70.041C224.299 70.0684 223.998 70.0957 223.656 70.0957C222.672 70.0957 221.619 69.4805 221.619 68.168V63.5605H220.498V62.5762H221.619V60.7988H222.809V62.5762H224.367ZM228.852 70.1504C226.828 70.1504 225.461 68.6328 225.461 66.3223C225.461 64.0117 226.828 62.4805 228.852 62.4805C230.861 62.4805 232.215 64.0117 232.215 66.3223C232.215 68.6328 230.861 70.1504 228.852 70.1504ZM228.852 69.1113C230.342 69.1113 231.039 67.7988 231.039 66.3223C231.039 64.8457 230.342 63.5195 228.852 63.5195C227.334 63.5195 226.637 64.8457 226.637 66.3223C226.637 67.7988 227.334 69.1113 228.852 69.1113ZM240.514 62.5762V63.5605H238.955V67.8672C238.955 68.8242 239.42 68.9746 239.926 68.9746C240.145 68.9746 240.445 68.9609 240.623 68.9473V70.041C240.445 70.0684 240.145 70.0957 239.803 70.0957C238.818 70.0957 237.766 69.4805 237.766 68.168V63.5605H236.645V62.5762H237.766V60.7988H238.955V62.5762H240.514ZM243.371 65.543V70H242.195V60.1016H243.371V63.7383H243.467C243.809 62.9727 244.479 62.4805 245.654 62.4805C247.172 62.4805 248.184 63.3828 248.184 65.2832V70H247.008V65.3652C247.008 64.2031 246.365 63.5332 245.299 63.5332C244.191 63.5332 243.371 64.2578 243.371 65.543ZM253.188 70.1504C251.041 70.1504 249.715 68.6328 249.715 66.3496C249.715 64.0664 251.055 62.4805 253.078 62.4805C254.637 62.4805 256.277 63.4375 256.277 66.1855V66.6777H250.891C250.945 68.25 251.861 69.1113 253.188 69.1113C254.076 69.1113 254.637 68.7285 254.91 68.2637H256.168C255.812 69.3848 254.719 70.1504 253.188 70.1504ZM250.904 65.6797H255.088C255.088 64.4355 254.295 63.5195 253.078 63.5195C251.793 63.5195 250.973 64.5312 250.904 65.6797ZM264.562 62.5762V63.5605H263.004V67.8672C263.004 68.8242 263.469 68.9746 263.975 68.9746C264.193 68.9746 264.494 68.9609 264.672 68.9473V70.041C264.494 70.0684 264.193 70.0957 263.852 70.0957C262.867 70.0957 261.814 69.4805 261.814 68.168V63.5605H260.693V62.5762H261.814V60.7988H263.004V62.5762H264.562ZM269.129 70.1504C266.982 70.1504 265.656 68.6328 265.656 66.3496C265.656 64.0664 266.996 62.4805 269.02 62.4805C270.578 62.4805 272.219 63.4375 272.219 66.1855V66.6777H266.832C266.887 68.25 267.803 69.1113 269.129 69.1113C270.018 69.1113 270.578 68.7285 270.852 68.2637H272.109C271.754 69.3848 270.66 70.1504 269.129 70.1504ZM266.846 65.6797H271.029C271.029 64.4355 270.236 63.5195 269.02 63.5195C267.734 63.5195 266.914 64.5312 266.846 65.6797ZM273.75 70V62.5762H274.885V63.7109H274.967C275.24 62.959 276.006 62.4531 276.881 62.4531C277.059 62.4531 277.359 62.4668 277.496 62.4805V63.6699C277.414 63.6426 277.086 63.5879 276.785 63.5879C275.719 63.5879 274.926 64.3262 274.926 65.3242V70H273.75ZM278.645 70V62.5762H279.779V63.7383H279.875C280.189 62.9453 280.9 62.4805 281.871 62.4805C282.842 62.4805 283.498 62.9453 283.854 63.7383H283.936C284.318 62.9727 285.098 62.4805 286.164 62.4805C287.49 62.4805 288.434 63.2871 288.434 65.0371V70H287.258V65.0508C287.258 63.957 286.561 63.5332 285.754 63.5332C284.715 63.5332 284.127 64.2305 284.127 65.1738V70H282.938V64.9277C282.938 64.0938 282.336 63.5332 281.488 63.5332C280.6 63.5332 279.82 64.2852 279.82 65.3652V70H278.645ZM294.449 64.5039C294.285 63.8887 293.82 63.4785 292.945 63.4785C292.029 63.4785 291.373 63.9707 291.373 64.5996C291.373 65.0918 291.77 65.4336 292.645 65.6387L293.752 65.9121C295.078 66.2266 295.734 66.8828 295.734 67.9219C295.734 69.207 294.682 70.1504 292.822 70.1504C291.154 70.1504 290.156 69.4121 289.965 68.0586H291.195C291.332 68.7832 291.865 69.125 292.795 69.125C293.848 69.125 294.518 68.6875 294.518 67.9902C294.518 67.4707 294.148 67.1152 293.301 66.9238L292.18 66.6641C290.881 66.3633 290.197 65.6523 290.197 64.668C290.197 63.3965 291.305 62.4805 292.945 62.4805C294.477 62.4805 295.447 63.3008 295.598 64.5039H294.449ZM298.1 70.082C297.621 70.082 297.211 69.6855 297.225 69.1934C297.211 68.7148 297.621 68.3184 298.1 68.3184C298.578 68.3184 298.975 68.7148 298.975 69.1934C298.975 69.6855 298.578 70.082 298.1 70.082Z" fill="var(--sol-element-primary)"/>
</svg>
