<svg width="442" height="268" viewBox="0 0 442 268" fill="none" xmlns="http://www.w3.org/2000/svg">
<style>
:root {
  --sol-element-primary: #161616;
  --sol-element-tertiary: #636363;
  --sol-element-quaternary: #858585;
  --sol-fill-active: #4d469a;
  --sol-surface: #ffffff;
  --sol-error: #e76067;
  --sol-error-dim: #b84451;
  --sol-static-white: #ffffff;
  --sol-static-black: #000000;
}
@media (prefers-color-scheme: dark) {
  :root {
    --sol-element-primary: #ffffff;
    --sol-element-tertiary: rgba(255, 255, 255, 0.6);
    --sol-element-quaternary: rgba(255, 255, 255, 0.5);
    --sol-fill-active: #7b74c4;
    --sol-surface: #161616;
    --sol-error: #ee7a80;
    --sol-error-dim: #e76067;
  }
}
</style>
<g clip-path="url(#clip0_1670_175833)">
<path d="M44.9551 77.1016V87H43.7793L38.4199 79.2891H38.3242V87H37.0938V77.1016H38.2832L43.6426 84.8262H43.7383V77.1016H44.9551ZM50.0273 87.1504C48.0039 87.1504 46.6367 85.6328 46.6367 83.3223C46.6367 81.0117 48.0039 79.4805 50.0273 79.4805C52.0371 79.4805 53.3906 81.0117 53.3906 83.3223C53.3906 85.6328 52.0371 87.1504 50.0273 87.1504ZM50.0273 86.1113C51.5176 86.1113 52.2148 84.7988 52.2148 83.3223C52.2148 81.8457 51.5176 80.5195 50.0273 80.5195C48.5098 80.5195 47.8125 81.8457 47.8125 83.3223C47.8125 84.7988 48.5098 86.1113 50.0273 86.1113ZM58.1758 79.5762V80.5605H56.6172V84.8672C56.6172 85.8242 57.082 85.9746 57.5879 85.9746C57.8066 85.9746 58.1074 85.9609 58.2852 85.9473V87.041C58.1074 87.0684 57.8066 87.0957 57.4648 87.0957C56.4805 87.0957 55.4277 86.4805 55.4277 85.168V80.5605H54.3066V79.5762H55.4277V77.7988H56.6172V79.5762H58.1758ZM59.6934 87V79.5762H60.8691V87H59.6934ZM60.2812 78.3457C59.8301 78.3457 59.4609 78.0039 59.4609 77.5664C59.4609 77.1289 59.8301 76.7871 60.2812 76.7871C60.7324 76.7871 61.1152 77.1289 61.1152 77.5664C61.1152 78.0039 60.7324 78.3457 60.2812 78.3457ZM66.0645 79.5762V80.5605H64.4238V87H63.2344V80.5605H62.0449V79.5762H63.2344V78.5645C63.2344 77.3613 64.041 76.6367 65.3535 76.6367C65.6406 76.6367 65.9824 76.6777 66.2285 76.7188V77.7715C65.9824 77.7305 65.7637 77.7168 65.6133 77.7168C64.793 77.7168 64.4238 78.0586 64.4238 78.8242V79.5762H66.0645ZM67.459 87V79.5762H68.6348V87H67.459ZM68.0469 78.3457C67.5957 78.3457 67.2266 78.0039 67.2266 77.5664C67.2266 77.1289 67.5957 76.7871 68.0469 76.7871C68.498 76.7871 68.8809 77.1289 68.8809 77.5664C68.8809 78.0039 68.498 78.3457 68.0469 78.3457ZM73.543 87.1504C71.4375 87.1504 70.1523 85.5508 70.1523 83.3223C70.1523 81.0664 71.4922 79.4805 73.5156 79.4805C75.1016 79.4805 76.2773 80.4102 76.4688 81.8184H75.293C75.1289 81.1348 74.5273 80.5195 73.543 80.5195C72.2168 80.5195 71.3281 81.6133 71.3281 83.2812C71.3281 85.0039 72.1895 86.0977 73.543 86.0977C74.418 86.0977 75.0879 85.6328 75.293 84.8125H76.4688C76.2773 86.1387 75.1973 87.1504 73.543 87.1504ZM77.5625 84.8945C77.5625 83.1855 79.0664 82.8027 80.3516 82.707C80.8232 82.6729 82.0264 82.6113 82.3613 82.5977V81.9961C82.3613 81.0527 81.8008 80.5059 80.6797 80.5059C79.7363 80.5059 79.1758 80.9434 79.0117 81.5039H77.7812C77.9316 80.3145 79.0938 79.4805 80.7344 79.4805C81.7051 79.4805 83.5234 79.7676 83.5234 82.1055V87H82.3613V85.9883H82.3066C82.0605 86.4941 81.377 87.1777 80.0918 87.1777C78.6836 87.1777 77.5625 86.3438 77.5625 84.8945ZM78.7383 84.9492C78.7383 85.7285 79.3945 86.125 80.2969 86.125C81.623 86.125 82.3613 85.2363 82.3613 84.3066V83.5547L80.4883 83.6914C79.4219 83.7598 78.7383 84.1426 78.7383 84.9492ZM88.6504 79.5762V80.5605H87.0918V84.8672C87.0918 85.8242 87.5566 85.9746 88.0625 85.9746C88.2812 85.9746 88.582 85.9609 88.7598 85.9473V87.041C88.582 87.0684 88.2812 87.0957 87.9395 87.0957C86.9551 87.0957 85.9023 86.4805 85.9023 85.168V80.5605H84.7812V79.5762H85.9023V77.7988H87.0918V79.5762H88.6504ZM90.168 87V79.5762H91.3438V87H90.168ZM90.7559 78.3457C90.3047 78.3457 89.9355 78.0039 89.9355 77.5664C89.9355 77.1289 90.3047 76.7871 90.7559 76.7871C91.207 76.7871 91.5898 77.1289 91.5898 77.5664C91.5898 78.0039 91.207 78.3457 90.7559 78.3457ZM96.252 87.1504C94.2285 87.1504 92.8613 85.6328 92.8613 83.3223C92.8613 81.0117 94.2285 79.4805 96.252 79.4805C98.2617 79.4805 99.6152 81.0117 99.6152 83.3223C99.6152 85.6328 98.2617 87.1504 96.252 87.1504ZM96.252 86.1113C97.7422 86.1113 98.4395 84.7988 98.4395 83.3223C98.4395 81.8457 97.7422 80.5195 96.252 80.5195C94.7344 80.5195 94.0371 81.8457 94.0371 83.3223C94.0371 84.7988 94.7344 86.1113 96.252 86.1113ZM102.336 82.543V87H101.16V79.5762H102.295V80.7383H102.391C102.746 79.9863 103.43 79.4805 104.564 79.4805C106.068 79.4805 107.066 80.3965 107.066 82.2832V87H105.891V82.3652C105.891 81.2168 105.262 80.5332 104.209 80.5332C103.129 80.5332 102.336 81.2578 102.336 82.543Z" fill="var(--sol-element-tertiary)"/>
<g clip-path="url(#clip1_1670_175833)">
<g clip-path="url(#clip2_1670_175833)">
<path d="M39.334 111.334C39.334 110.229 40.2294 109.334 41.334 109.334H50.6673C51.7719 109.334 52.6673 110.229 52.6673 111.334V120.667C52.6673 121.772 51.7719 122.667 50.6673 122.667H41.334C40.2294 122.667 39.334 121.772 39.334 120.667V111.334Z" fill="var(--sol-fill-active)"/>
<path d="M51.0464 113.269L44.8805 119.434C44.6365 119.678 44.2408 119.679 43.9967 119.434L40.9531 116.391L41.8369 115.507L44.4384 118.109L50.1627 112.385L51.0464 113.269Z" fill="var(--sol-surface)"/>
</g>
<path d="M63.0938 121V111.102H69.0957V112.195H64.3242V115.504H68.7812V116.584H64.3242V119.906H69.1641V121H63.0938ZM70.8867 121V113.576H72.0215V114.738H72.1172C72.4316 113.945 73.1426 113.48 74.1133 113.48C75.084 113.48 75.7402 113.945 76.0957 114.738H76.1777C76.5605 113.973 77.3398 113.48 78.4062 113.48C79.7324 113.48 80.6758 114.287 80.6758 116.037V121H79.5V116.051C79.5 114.957 78.8027 114.533 77.9961 114.533C76.957 114.533 76.3691 115.23 76.3691 116.174V121H75.1797V115.928C75.1797 115.094 74.5781 114.533 73.7305 114.533C72.8418 114.533 72.0625 115.285 72.0625 116.365V121H70.8867ZM82.207 118.895C82.207 117.186 83.7109 116.803 84.9961 116.707C85.4678 116.673 86.6709 116.611 87.0059 116.598V115.996C87.0059 115.053 86.4453 114.506 85.3242 114.506C84.3809 114.506 83.8203 114.943 83.6562 115.504H82.4258C82.5762 114.314 83.7383 113.48 85.3789 113.48C86.3496 113.48 88.168 113.768 88.168 116.105V121H87.0059V119.988H86.9512C86.7051 120.494 86.0215 121.178 84.7363 121.178C83.3281 121.178 82.207 120.344 82.207 118.895ZM83.3828 118.949C83.3828 119.729 84.0391 120.125 84.9414 120.125C86.2676 120.125 87.0059 119.236 87.0059 118.307V117.555L85.1328 117.691C84.0664 117.76 83.3828 118.143 83.3828 118.949ZM90.0547 121V113.576H91.2305V121H90.0547ZM90.6426 112.346C90.1914 112.346 89.8223 112.004 89.8223 111.566C89.8223 111.129 90.1914 110.787 90.6426 110.787C91.0938 110.787 91.4766 111.129 91.4766 111.566C91.4766 112.004 91.0938 112.346 90.6426 112.346ZM94.2793 111.102V121H93.1035V111.102H94.2793Z" fill="var(--sol-element-primary)"/>
<path d="M41.001 141.834H51.001C51.6452 141.834 52.167 142.357 52.167 143.001V153.001C52.1668 153.645 51.6451 154.167 51.001 154.167H41.001C40.3568 154.167 39.8342 153.645 39.834 153.001V143.001C39.834 142.357 40.3566 141.834 41.001 141.834Z" stroke="var(--sol-element-primary)" stroke-opacity="0.16"/>
<path d="M68.4941 145.59C68.3848 144.619 67.4961 144.059 66.3066 144.059C64.9941 144.059 64.1328 144.742 64.1328 145.686C64.1328 146.725 65.2949 147.107 66.0469 147.299L67.0312 147.572C68.0977 147.846 69.834 148.461 69.834 150.307C69.834 151.92 68.5352 153.178 66.2383 153.178C64.1055 153.178 62.7793 152.07 62.6699 150.43H63.9277C64.0371 151.537 65.0625 152.057 66.2383 152.057C67.6055 152.057 68.6309 151.359 68.6309 150.279C68.6309 149.322 67.7148 148.953 66.6758 148.652L65.459 148.324C63.9004 147.873 62.9434 147.08 62.9434 145.74C62.9434 144.072 64.4336 142.965 66.3477 142.965C68.2617 142.965 69.6426 144.086 69.6973 145.59H68.4941ZM71.5977 143.102H73.0742L76.4102 151.25H76.5332L79.8691 143.102H81.3457V153H80.1836V145.521H80.0879L77.0117 153H75.918L72.8418 145.521H72.7598V153H71.5977V143.102ZM88.9336 145.59C88.8242 144.619 87.9355 144.059 86.7461 144.059C85.4336 144.059 84.5723 144.742 84.5723 145.686C84.5723 146.725 85.7344 147.107 86.4863 147.299L87.4707 147.572C88.5371 147.846 90.2734 148.461 90.2734 150.307C90.2734 151.92 88.9746 153.178 86.6777 153.178C84.5449 153.178 83.2188 152.07 83.1094 150.43H84.3672C84.4766 151.537 85.502 152.057 86.6777 152.057C88.0449 152.057 89.0703 151.359 89.0703 150.279C89.0703 149.322 88.1543 148.953 87.1152 148.652L85.8984 148.324C84.3398 147.873 83.3828 147.08 83.3828 145.74C83.3828 144.072 84.873 142.965 86.7871 142.965C88.7012 142.965 90.082 144.086 90.1367 145.59H88.9336Z" fill="var(--sol-element-primary)"/>
<path d="M41.001 173.834H51.001C51.6452 173.834 52.167 174.357 52.167 175.001V185.001C52.1668 185.645 51.6451 186.167 51.001 186.167H41.001C40.3568 186.167 39.8342 185.645 39.834 185.001V175.001C39.834 174.357 40.3566 173.834 41.001 173.834Z" stroke="var(--sol-element-primary)" stroke-opacity="0.16"/>
<path d="M63.0938 185V175.102H66.457C68.7812 175.102 69.834 176.482 69.834 178.246C69.834 179.996 68.7812 181.404 66.4707 181.404H64.3242V185H63.0938ZM64.3242 180.311H66.416C67.9883 180.311 68.6172 179.422 68.6172 178.246C68.6172 177.057 67.9883 176.195 66.4023 176.195H64.3242V180.311ZM76.0957 181.951V177.576H77.2578V185H76.0957V183.742H76.0137C75.6582 184.494 74.9336 185.096 73.8125 185.096C72.4043 185.096 71.4062 184.18 71.4062 182.293V177.576H72.582V182.211C72.582 183.277 73.252 183.961 74.1953 183.961C75.0293 183.961 76.0957 183.332 76.0957 181.951ZM83.2734 179.504C83.1094 178.889 82.6445 178.479 81.7695 178.479C80.8535 178.479 80.1973 178.971 80.1973 179.6C80.1973 180.092 80.5938 180.434 81.4688 180.639L82.5762 180.912C83.9023 181.227 84.5586 181.883 84.5586 182.922C84.5586 184.207 83.5059 185.15 81.6465 185.15C79.9785 185.15 78.9805 184.412 78.7891 183.059H80.0195C80.1562 183.783 80.6895 184.125 81.6191 184.125C82.6719 184.125 83.3418 183.688 83.3418 182.99C83.3418 182.471 82.9727 182.115 82.125 181.924L81.0039 181.664C79.7051 181.363 79.0215 180.652 79.0215 179.668C79.0215 178.396 80.1289 177.48 81.7695 177.48C83.3008 177.48 84.2715 178.301 84.4219 179.504H83.2734ZM87.2656 180.543V185H86.0898V175.102H87.2656V178.738H87.3613C87.7031 177.973 88.373 177.48 89.5488 177.48C91.0664 177.48 92.0781 178.383 92.0781 180.283V185H90.9023V180.365C90.9023 179.203 90.2598 178.533 89.1934 178.533C88.0859 178.533 87.2656 179.258 87.2656 180.543Z" fill="var(--sol-element-primary)"/>
</g>
<path d="M228.094 87V77.1016H231.457C233.781 77.1016 234.834 78.4824 234.834 80.2461C234.834 81.9961 233.781 83.4043 231.471 83.4043H229.324V87H228.094ZM229.324 82.3105H231.416C232.988 82.3105 233.617 81.4219 233.617 80.2461C233.617 79.0566 232.988 78.1953 231.402 78.1953H229.324V82.3105ZM239.455 87.1504C237.309 87.1504 235.982 85.6328 235.982 83.3496C235.982 81.0664 237.322 79.4805 239.346 79.4805C240.904 79.4805 242.545 80.4375 242.545 83.1855V83.6777H237.158C237.213 85.25 238.129 86.1113 239.455 86.1113C240.344 86.1113 240.904 85.7285 241.178 85.2637H242.436C242.08 86.3848 240.986 87.1504 239.455 87.1504ZM237.172 82.6797H241.355C241.355 81.4355 240.562 80.5195 239.346 80.5195C238.061 80.5195 237.24 81.5312 237.172 82.6797ZM244.076 87V79.5762H245.211V80.7109H245.293C245.566 79.959 246.332 79.4531 247.207 79.4531C247.385 79.4531 247.686 79.4668 247.822 79.4805V80.6699C247.74 80.6426 247.412 80.5879 247.111 80.5879C246.045 80.5879 245.252 81.3262 245.252 82.3242V87H244.076ZM248.971 87V79.5762H250.105V80.7383H250.201C250.516 79.9453 251.227 79.4805 252.197 79.4805C253.168 79.4805 253.824 79.9453 254.18 80.7383H254.262C254.645 79.9727 255.424 79.4805 256.49 79.4805C257.816 79.4805 258.76 80.2871 258.76 82.0371V87H257.584V82.0508C257.584 80.957 256.887 80.5332 256.08 80.5332C255.041 80.5332 254.453 81.2305 254.453 82.1738V87H253.264V81.9277C253.264 81.0938 252.662 80.5332 251.814 80.5332C250.926 80.5332 250.146 81.2852 250.146 82.3652V87H248.971ZM260.646 87V79.5762H261.822V87H260.646ZM261.234 78.3457C260.783 78.3457 260.414 78.0039 260.414 77.5664C260.414 77.1289 260.783 76.7871 261.234 76.7871C261.686 76.7871 262.068 77.1289 262.068 77.5664C262.068 78.0039 261.686 78.3457 261.234 78.3457ZM267.824 81.5039C267.66 80.8887 267.195 80.4785 266.32 80.4785C265.404 80.4785 264.748 80.9707 264.748 81.5996C264.748 82.0918 265.145 82.4336 266.02 82.6387L267.127 82.9121C268.453 83.2266 269.109 83.8828 269.109 84.9219C269.109 86.207 268.057 87.1504 266.197 87.1504C264.529 87.1504 263.531 86.4121 263.34 85.0586H264.57C264.707 85.7832 265.24 86.125 266.17 86.125C267.223 86.125 267.893 85.6875 267.893 84.9902C267.893 84.4707 267.523 84.1152 266.676 83.9238L265.555 83.6641C264.256 83.3633 263.572 82.6523 263.572 81.668C263.572 80.3965 264.68 79.4805 266.32 79.4805C267.852 79.4805 268.822 80.3008 268.973 81.5039H267.824ZM274.77 81.5039C274.605 80.8887 274.141 80.4785 273.266 80.4785C272.35 80.4785 271.693 80.9707 271.693 81.5996C271.693 82.0918 272.09 82.4336 272.965 82.6387L274.072 82.9121C275.398 83.2266 276.055 83.8828 276.055 84.9219C276.055 86.207 275.002 87.1504 273.143 87.1504C271.475 87.1504 270.477 86.4121 270.285 85.0586H271.516C271.652 85.7832 272.186 86.125 273.115 86.125C274.168 86.125 274.838 85.6875 274.838 84.9902C274.838 84.4707 274.469 84.1152 273.621 83.9238L272.5 83.6641C271.201 83.3633 270.518 82.6523 270.518 81.668C270.518 80.3965 271.625 79.4805 273.266 79.4805C274.797 79.4805 275.768 80.3008 275.918 81.5039H274.77ZM277.586 87V79.5762H278.762V87H277.586ZM278.174 78.3457C277.723 78.3457 277.354 78.0039 277.354 77.5664C277.354 77.1289 277.723 76.7871 278.174 76.7871C278.625 76.7871 279.008 77.1289 279.008 77.5664C279.008 78.0039 278.625 78.3457 278.174 78.3457ZM283.67 87.1504C281.646 87.1504 280.279 85.6328 280.279 83.3223C280.279 81.0117 281.646 79.4805 283.67 79.4805C285.68 79.4805 287.033 81.0117 287.033 83.3223C287.033 85.6328 285.68 87.1504 283.67 87.1504ZM283.67 86.1113C285.16 86.1113 285.857 84.7988 285.857 83.3223C285.857 81.8457 285.16 80.5195 283.67 80.5195C282.152 80.5195 281.455 81.8457 281.455 83.3223C281.455 84.7988 282.152 86.1113 283.67 86.1113ZM289.754 82.543V87H288.578V79.5762H289.713V80.7383H289.809C290.164 79.9863 290.848 79.4805 291.982 79.4805C293.486 79.4805 294.484 80.3965 294.484 82.2832V87H293.309V82.3652C293.309 81.2168 292.68 80.5332 291.627 80.5332C290.547 80.5332 289.754 81.2578 289.754 82.543Z" fill="var(--sol-element-tertiary)"/>
<g clip-path="url(#clip3_1670_175833)">
<path d="M232.001 109.834H242.001C242.645 109.834 243.167 110.357 243.167 111.001V121.001C243.167 121.645 242.645 122.167 242.001 122.167H232.001C231.357 122.167 230.834 121.645 230.834 121.001V111.001C230.834 110.357 231.357 109.834 232.001 109.834Z" stroke="var(--sol-element-primary)" stroke-opacity="0.16"/>
<path d="M254.545 111.102L257.457 119.4H257.566L260.492 111.102H261.791L258.168 121H256.869L253.246 111.102H254.545ZM262.98 121V113.576H264.156V121H262.98ZM263.568 112.346C263.117 112.346 262.748 112.004 262.748 111.566C262.748 111.129 263.117 110.787 263.568 110.787C264.02 110.787 264.402 111.129 264.402 111.566C264.402 112.004 264.02 112.346 263.568 112.346ZM269.146 121.15C267 121.15 265.674 119.633 265.674 117.35C265.674 115.066 267.014 113.48 269.037 113.48C270.596 113.48 272.236 114.438 272.236 117.186V117.678H266.85C266.904 119.25 267.82 120.111 269.146 120.111C270.035 120.111 270.596 119.729 270.869 119.264H272.127C271.771 120.385 270.678 121.15 269.146 121.15ZM266.863 116.68H271.047C271.047 115.436 270.254 114.52 269.037 114.52C267.752 114.52 266.932 115.531 266.863 116.68ZM275.436 121L273.18 113.576H274.424L276.01 119.236H276.078L277.65 113.576H278.908L280.453 119.209H280.535L282.121 113.576H283.352L281.096 121H279.934L278.32 115.34H278.211L276.611 121H275.436Z" fill="var(--sol-element-primary)"/>
<g clip-path="url(#clip4_1670_175833)">
<path d="M230.334 143.334C230.334 142.229 231.229 141.334 232.334 141.334H241.667C242.772 141.334 243.667 142.229 243.667 143.334V152.667C243.667 153.772 242.772 154.667 241.667 154.667H232.334C231.229 154.667 230.334 153.772 230.334 152.667V143.334Z" fill="var(--sol-fill-active)"/>
<path d="M242.046 145.269L235.881 151.434C235.636 151.678 235.241 151.679 234.997 151.434L231.953 148.391L232.837 147.507L235.438 150.109L241.163 144.385L242.046 145.269Z" fill="var(--sol-surface)"/>
</g>
<path d="M254.094 153V143.102H260.096V144.195H255.324V147.504H259.781V148.584H255.324V151.906H260.164V153H254.094ZM264.689 153.15C262.844 153.15 261.531 151.66 261.531 149.309C261.531 146.957 262.844 145.48 264.703 145.48C266.139 145.48 266.604 146.355 266.85 146.752H266.932V143.102H268.121V153H266.973V151.865H266.85C266.59 152.275 266.111 153.15 264.689 153.15ZM264.854 152.098C266.207 152.098 266.973 150.949 266.973 149.281C266.973 147.641 266.234 146.533 264.854 146.533C263.432 146.533 262.721 147.736 262.721 149.281C262.721 150.867 263.445 152.098 264.854 152.098ZM270.158 153V145.576H271.334V153H270.158ZM270.746 144.346C270.295 144.346 269.926 144.004 269.926 143.566C269.926 143.129 270.295 142.787 270.746 142.787C271.197 142.787 271.58 143.129 271.58 143.566C271.58 144.004 271.197 144.346 270.746 144.346ZM276.447 145.576V146.561H274.889V150.867C274.889 151.824 275.354 151.975 275.859 151.975C276.078 151.975 276.379 151.961 276.557 151.947V153.041C276.379 153.068 276.078 153.096 275.736 153.096C274.752 153.096 273.699 152.48 273.699 151.168V146.561H272.578V145.576H273.699V143.799H274.889V145.576H276.447Z" fill="var(--sol-element-primary)"/>
<path d="M232.001 173.834H242.001C242.645 173.834 243.167 174.357 243.167 175.001V185.001C243.167 185.645 242.645 186.167 242.001 186.167H232.001C231.357 186.167 230.834 185.645 230.834 185.001V175.001C230.834 174.357 231.357 173.834 232.001 173.834Z" stroke="var(--sol-element-primary)" stroke-opacity="0.16"/>
<path d="M257.17 185H254.094V175.102H257.293C260.178 175.102 261.887 176.961 261.887 180.037C261.887 183.127 260.178 185 257.17 185ZM255.324 183.906H257.088C259.521 183.906 260.684 182.443 260.684 180.037C260.684 177.645 259.521 176.195 257.211 176.195H255.324V183.906ZM266.658 185.15C264.512 185.15 263.186 183.633 263.186 181.35C263.186 179.066 264.525 177.48 266.549 177.48C268.107 177.48 269.748 178.438 269.748 181.186V181.678H264.361C264.416 183.25 265.332 184.111 266.658 184.111C267.547 184.111 268.107 183.729 268.381 183.264H269.639C269.283 184.385 268.189 185.15 266.658 185.15ZM264.375 180.68H268.559C268.559 179.436 267.766 178.52 266.549 178.52C265.264 178.52 264.443 179.531 264.375 180.68ZM272.455 175.102V185H271.279V175.102H272.455ZM277.445 185.15C275.299 185.15 273.973 183.633 273.973 181.35C273.973 179.066 275.312 177.48 277.336 177.48C278.895 177.48 280.535 178.438 280.535 181.186V181.678H275.148C275.203 183.25 276.119 184.111 277.445 184.111C278.334 184.111 278.895 183.729 279.168 183.264H280.426C280.07 184.385 278.977 185.15 277.445 185.15ZM275.162 180.68H279.346C279.346 179.436 278.553 178.52 277.336 178.52C276.051 178.52 275.23 179.531 275.162 180.68ZM285.307 177.576V178.561H283.748V182.867C283.748 183.824 284.213 183.975 284.719 183.975C284.938 183.975 285.238 183.961 285.416 183.947V185.041C285.238 185.068 284.938 185.096 284.596 185.096C283.611 185.096 282.559 184.48 282.559 183.168V178.561H281.438V177.576H282.559V175.799H283.748V177.576H285.307ZM289.873 185.15C287.727 185.15 286.4 183.633 286.4 181.35C286.4 179.066 287.74 177.48 289.764 177.48C291.322 177.48 292.963 178.438 292.963 181.186V181.678H287.576C287.631 183.25 288.547 184.111 289.873 184.111C290.762 184.111 291.322 183.729 291.596 183.264H292.854C292.498 184.385 291.404 185.15 289.873 185.15ZM287.59 180.68H291.773C291.773 179.436 290.98 178.52 289.764 178.52C288.479 178.52 287.658 179.531 287.59 180.68Z" fill="var(--sol-element-primary)"/>
</g>
</g>
<defs>
<clipPath id="clip0_1670_175833">
<path d="M0 7.99999C0 3.58172 3.58172 0 8 0H434C438.418 0 442 3.58172 442 8V260C442 264.418 438.418 268 434 268H8C3.58172 268 0 264.418 0 260V7.99999Z" fill="var(--sol-surface)"/>
</clipPath>
<clipPath id="clip1_1670_175833">
<rect width="229" height="96" fill="var(--sol-surface)" transform="translate(36 100)"/>
</clipPath>
<clipPath id="clip2_1670_175833">
<path d="M39.334 111.334C39.334 110.229 40.2294 109.334 41.334 109.334H50.6673C51.7719 109.334 52.6673 110.229 52.6673 111.334V120.667C52.6673 121.772 51.7719 122.667 50.6673 122.667H41.334C40.2294 122.667 39.334 121.772 39.334 120.667V111.334Z" fill="var(--sol-surface)"/>
</clipPath>
<clipPath id="clip3_1670_175833">
<rect width="179" height="96" fill="var(--sol-surface)" transform="translate(227 100)"/>
</clipPath>
<clipPath id="clip4_1670_175833">
<path d="M230.334 143.334C230.334 142.229 231.229 141.334 232.334 141.334H241.667C242.772 141.334 243.667 142.229 243.667 143.334V152.667C243.667 153.772 242.772 154.667 241.667 154.667H232.334C231.229 154.667 230.334 153.772 230.334 152.667V143.334Z" fill="var(--sol-surface)"/>
</clipPath>
</defs>
</svg>
