<svg width="900" height="608" viewBox="0 0 900 608" fill="none" xmlns="http://www.w3.org/2000/svg">
<style>
:root {
  --sol-element-primary: #161616;
  --sol-element-tertiary: #636363;
  --sol-element-quaternary: #858585;
  --sol-fill-active: #4d469a;
  --sol-surface: #ffffff;
  --sol-error: #e76067;
  --sol-error-dim: #b84451;
  --sol-static-white: #ffffff;
  --sol-static-black: #000000;
}
@media (prefers-color-scheme: dark) {
  :root {
    --sol-element-primary: #ffffff;
    --sol-element-tertiary: rgba(255, 255, 255, 0.6);
    --sol-element-quaternary: rgba(255, 255, 255, 0.5);
    --sol-fill-active: #7b74c4;
    --sol-surface: #161616;
    --sol-error: #ee7a80;
    --sol-error-dim: #e76067;
  }
}
</style>
<path d="M0 8.00001C0 3.58173 3.58172 0 8 0H892C896.418 0 900 3.58172 900 8V600C900 604.418 896.418 608 892 608H8.00001C3.58173 608 0 604.418 0 600V8.00001Z" fill="var(--sol-surface)"/>
<path d="M48.916 75V65.1016H55.3555V66.5918H50.6934V69.2988H55.0137V70.7891H50.6934V73.4961H55.3828V75H48.916ZM58.7324 70.6523V75H56.9824V67.5762H58.6504V68.834H58.7461C59.0879 68 59.8398 67.4805 60.9473 67.4805C62.4922 67.4805 63.5039 68.4922 63.4902 70.2695V75H61.7539V70.543C61.7539 69.5449 61.2207 68.957 60.3047 68.957C59.375 68.957 58.7324 69.5723 58.7324 70.6523ZM64.8164 72.9082C64.8164 71.2402 66.1973 70.748 67.5781 70.666C68.0908 70.6318 69.1572 70.5703 69.4785 70.5566V69.9688C69.4785 69.2305 69 68.8066 68.1387 68.8066C67.3594 68.8066 66.8809 69.1621 66.7441 69.6953H65.0625C65.1855 68.4375 66.3203 67.4805 68.1797 67.4805C69.5879 67.4805 71.2148 68.0547 71.2148 70.0371V75H69.5469V73.9746H69.4922C69.1641 74.6035 68.4668 75.1504 67.3047 75.1504C65.8828 75.1504 64.8164 74.3711 64.8164 72.9082ZM66.498 72.8945C66.498 73.5371 67.0176 73.8652 67.7559 73.8652C68.8086 73.8652 69.4922 73.168 69.4922 72.334V71.7188L67.8516 71.8281C67.0176 71.8965 66.498 72.2383 66.498 72.8945ZM72.9375 75V65.1016H74.6875V68.793H74.7559C75.0293 68.2598 75.5625 67.4805 76.875 67.4805C78.5977 67.4805 79.9512 68.8203 79.9512 71.2949C79.9512 73.7422 78.625 75.1367 76.8887 75.1367C75.6035 75.1367 75.0293 74.3711 74.7559 73.8242H74.6465V75H72.9375ZM74.6465 71.2812C74.6465 72.7305 75.2754 73.7012 76.3965 73.7012C77.5586 73.7012 78.1738 72.6895 78.1738 71.2812C78.1738 69.9004 77.5723 68.9023 76.3965 68.9023C75.2754 68.9023 74.6465 69.8457 74.6465 71.2812ZM83.0684 65.1016V75H81.3184V65.1016H83.0684ZM88.0312 75.1504C85.7891 75.1504 84.4219 73.6602 84.4219 71.3359C84.4219 69.0391 85.8164 67.4805 87.9355 67.4805C89.7539 67.4805 91.3262 68.6152 91.3262 71.2266V71.7734H86.1445C86.165 73.0381 86.9102 73.7832 88.0449 73.7832C88.8105 73.7832 89.3301 73.4551 89.5488 73.0176H91.2578C90.9434 74.3027 89.7539 75.1504 88.0312 75.1504ZM86.1582 70.584H89.6582C89.6445 69.5723 88.9746 68.834 87.9629 68.834C86.9102 68.834 86.2129 69.6338 86.1582 70.584ZM95.4414 75.1367C93.6914 75.1367 92.3789 73.7422 92.3789 71.2949C92.3789 68.8203 93.7324 67.4805 95.4551 67.4805C96.7676 67.4805 97.3145 68.2598 97.5742 68.793H97.6426V65.1016H99.3789V75H97.6699V73.8242H97.5742C97.3008 74.3711 96.7266 75.1367 95.4414 75.1367ZM95.9199 73.7012C97.041 73.7012 97.6836 72.7305 97.6836 71.2812C97.6836 69.8457 97.0547 68.9023 95.9199 68.9023C94.7578 68.9023 94.1562 69.9004 94.1562 71.2812C94.1562 72.6895 94.7715 73.7012 95.9199 73.7012Z" fill="var(--sol-element-quaternary)"/>
<path d="M233.001 57.834H243.001C243.645 57.8342 244.167 58.3568 244.167 59.001V69.001C244.167 69.6451 243.645 70.1668 243.001 70.167H233.001C232.357 70.167 231.834 69.6452 231.834 69.001V59.001C231.834 58.3566 232.357 57.834 233.001 57.834Z" stroke="var(--sol-element-primary)" stroke-opacity="0.16"/>
<path d="M263.461 64.0508C263.461 67.1816 261.615 69.1367 259.086 69.1367C256.543 69.1367 254.711 67.1816 254.711 64.0508C254.711 60.9199 256.543 58.9648 259.086 58.9648C261.615 58.9648 263.461 60.9199 263.461 64.0508ZM262.271 64.0508C262.271 61.4941 260.877 60.1133 259.086 60.1133C257.295 60.1133 255.9 61.4941 255.9 64.0508C255.9 66.6074 257.295 67.9883 259.086 67.9883C260.877 67.9883 262.271 66.6074 262.271 64.0508ZM265.115 71.7891V61.5762H266.25V62.752H266.387C266.633 62.3555 267.098 61.4805 268.533 61.4805C270.393 61.4805 271.691 62.957 271.691 65.3086C271.691 67.6602 270.393 69.1504 268.547 69.1504C267.125 69.1504 266.633 68.2754 266.387 67.8652H266.291V71.7891H265.115ZM266.264 65.2812C266.264 66.9492 267.016 68.0977 268.383 68.0977C269.791 68.0977 270.516 66.8672 270.516 65.2812C270.516 63.7363 269.805 62.5332 268.383 62.5332C266.988 62.5332 266.264 63.6406 266.264 65.2812ZM276.463 61.5762V62.5605H274.904V66.8672C274.904 67.8242 275.369 67.9746 275.875 67.9746C276.094 67.9746 276.395 67.9609 276.572 67.9473V69.041C276.395 69.0684 276.094 69.0957 275.752 69.0957C274.768 69.0957 273.715 68.4805 273.715 67.168V62.5605H272.594V61.5762H273.715V59.7988H274.904V61.5762H276.463ZM277.98 69V61.5762H279.156V69H277.98ZM278.568 60.3457C278.117 60.3457 277.748 60.0039 277.748 59.5664C277.748 59.1289 278.117 58.7871 278.568 58.7871C279.02 58.7871 279.402 59.1289 279.402 59.5664C279.402 60.0039 279.02 60.3457 278.568 60.3457ZM284.064 69.1504C282.041 69.1504 280.674 67.6328 280.674 65.3223C280.674 63.0117 282.041 61.4805 284.064 61.4805C286.074 61.4805 287.428 63.0117 287.428 65.3223C287.428 67.6328 286.074 69.1504 284.064 69.1504ZM284.064 68.1113C285.555 68.1113 286.252 66.7988 286.252 65.3223C286.252 63.8457 285.555 62.5195 284.064 62.5195C282.547 62.5195 281.85 63.8457 281.85 65.3223C281.85 66.7988 282.547 68.1113 284.064 68.1113ZM290.148 64.543V69H288.973V61.5762H290.107V62.7383H290.203C290.559 61.9863 291.242 61.4805 292.377 61.4805C293.881 61.4805 294.879 62.3965 294.879 64.2832V69H293.703V64.3652C293.703 63.2168 293.074 62.5332 292.021 62.5332C290.941 62.5332 290.148 63.2578 290.148 64.543Z" fill="var(--sol-element-primary)"/>
<g clip-path="url(#clip0_1670_175480)">
<path d="M451.334 59.334C451.334 58.2294 452.229 57.334 453.334 57.334H462.667C463.772 57.334 464.667 58.2294 464.667 59.334V68.6673C464.667 69.7719 463.772 70.6673 462.667 70.6673H453.334C452.229 70.6673 451.334 69.7719 451.334 68.6673V59.334Z" fill="var(--sol-fill-active)"/>
<path d="M463.046 61.2686L456.881 67.4345C456.636 67.6785 456.241 67.6785 455.997 67.4345L452.953 64.3908L453.837 63.5071L456.438 66.1085L462.163 60.3848L463.046 61.2686Z" fill="var(--sol-surface)"/>
</g>
<path d="M483.461 64.0508C483.461 67.1816 481.615 69.1367 479.086 69.1367C476.543 69.1367 474.711 67.1816 474.711 64.0508C474.711 60.9199 476.543 58.9648 479.086 58.9648C481.615 58.9648 483.461 60.9199 483.461 64.0508ZM482.271 64.0508C482.271 61.4941 480.877 60.1133 479.086 60.1133C477.295 60.1133 475.9 61.4941 475.9 64.0508C475.9 66.6074 477.295 67.9883 479.086 67.9883C480.877 67.9883 482.271 66.6074 482.271 64.0508ZM485.115 71.7891V61.5762H486.25V62.752H486.387C486.633 62.3555 487.098 61.4805 488.533 61.4805C490.393 61.4805 491.691 62.957 491.691 65.3086C491.691 67.6602 490.393 69.1504 488.547 69.1504C487.125 69.1504 486.633 68.2754 486.387 67.8652H486.291V71.7891H485.115ZM486.264 65.2812C486.264 66.9492 487.016 68.0977 488.383 68.0977C489.791 68.0977 490.516 66.8672 490.516 65.2812C490.516 63.7363 489.805 62.5332 488.383 62.5332C486.988 62.5332 486.264 63.6406 486.264 65.2812ZM496.463 61.5762V62.5605H494.904V66.8672C494.904 67.8242 495.369 67.9746 495.875 67.9746C496.094 67.9746 496.395 67.9609 496.572 67.9473V69.041C496.395 69.0684 496.094 69.0957 495.752 69.0957C494.768 69.0957 493.715 68.4805 493.715 67.168V62.5605H492.594V61.5762H493.715V59.7988H494.904V61.5762H496.463ZM497.98 69V61.5762H499.156V69H497.98ZM498.568 60.3457C498.117 60.3457 497.748 60.0039 497.748 59.5664C497.748 59.1289 498.117 58.7871 498.568 58.7871C499.02 58.7871 499.402 59.1289 499.402 59.5664C499.402 60.0039 499.02 60.3457 498.568 60.3457ZM504.064 69.1504C502.041 69.1504 500.674 67.6328 500.674 65.3223C500.674 63.0117 502.041 61.4805 504.064 61.4805C506.074 61.4805 507.428 63.0117 507.428 65.3223C507.428 67.6328 506.074 69.1504 504.064 69.1504ZM504.064 68.1113C505.555 68.1113 506.252 66.7988 506.252 65.3223C506.252 63.8457 505.555 62.5195 504.064 62.5195C502.547 62.5195 501.85 63.8457 501.85 65.3223C501.85 66.7988 502.547 68.1113 504.064 68.1113ZM510.148 64.543V69H508.973V61.5762H510.107V62.7383H510.203C510.559 61.9863 511.242 61.4805 512.377 61.4805C513.881 61.4805 514.879 62.3965 514.879 64.2832V69H513.703V64.3652C513.703 63.2168 513.074 62.5332 512.021 62.5332C510.941 62.5332 510.148 63.2578 510.148 64.543Z" fill="var(--sol-element-primary)"/>
<g clip-path="url(#clip1_1670_175480)">
<path d="M671.334 59.334C671.334 58.2294 672.229 57.334 673.334 57.334H682.667C683.772 57.334 684.667 58.2294 684.667 59.334V68.6673C684.667 69.7719 683.772 70.6673 682.667 70.6673H673.334C672.229 70.6673 671.334 69.7719 671.334 68.6673V59.334Z" fill="var(--sol-fill-active)"/>
<path d="M682.792 63.375V64.625H673.209V63.375H682.792Z" fill="var(--sol-surface)"/>
</g>
<path d="M703.461 64.0508C703.461 67.1816 701.615 69.1367 699.086 69.1367C696.543 69.1367 694.711 67.1816 694.711 64.0508C694.711 60.9199 696.543 58.9648 699.086 58.9648C701.615 58.9648 703.461 60.9199 703.461 64.0508ZM702.271 64.0508C702.271 61.4941 700.877 60.1133 699.086 60.1133C697.295 60.1133 695.9 61.4941 695.9 64.0508C695.9 66.6074 697.295 67.9883 699.086 67.9883C700.877 67.9883 702.271 66.6074 702.271 64.0508ZM705.115 71.7891V61.5762H706.25V62.752H706.387C706.633 62.3555 707.098 61.4805 708.533 61.4805C710.393 61.4805 711.691 62.957 711.691 65.3086C711.691 67.6602 710.393 69.1504 708.547 69.1504C707.125 69.1504 706.633 68.2754 706.387 67.8652H706.291V71.7891H705.115ZM706.264 65.2812C706.264 66.9492 707.016 68.0977 708.383 68.0977C709.791 68.0977 710.516 66.8672 710.516 65.2812C710.516 63.7363 709.805 62.5332 708.383 62.5332C706.988 62.5332 706.264 63.6406 706.264 65.2812ZM716.463 61.5762V62.5605H714.904V66.8672C714.904 67.8242 715.369 67.9746 715.875 67.9746C716.094 67.9746 716.395 67.9609 716.572 67.9473V69.041C716.395 69.0684 716.094 69.0957 715.752 69.0957C714.768 69.0957 713.715 68.4805 713.715 67.168V62.5605H712.594V61.5762H713.715V59.7988H714.904V61.5762H716.463ZM717.98 69V61.5762H719.156V69H717.98ZM718.568 60.3457C718.117 60.3457 717.748 60.0039 717.748 59.5664C717.748 59.1289 718.117 58.7871 718.568 58.7871C719.02 58.7871 719.402 59.1289 719.402 59.5664C719.402 60.0039 719.02 60.3457 718.568 60.3457ZM724.064 69.1504C722.041 69.1504 720.674 67.6328 720.674 65.3223C720.674 63.0117 722.041 61.4805 724.064 61.4805C726.074 61.4805 727.428 63.0117 727.428 65.3223C727.428 67.6328 726.074 69.1504 724.064 69.1504ZM724.064 68.1113C725.555 68.1113 726.252 66.7988 726.252 65.3223C726.252 63.8457 725.555 62.5195 724.064 62.5195C722.547 62.5195 721.85 63.8457 721.85 65.3223C721.85 66.7988 722.547 68.1113 724.064 68.1113ZM730.148 64.543V69H728.973V61.5762H730.107V62.7383H730.203C730.559 61.9863 731.242 61.4805 732.377 61.4805C733.881 61.4805 734.879 62.3965 734.879 64.2832V69H733.703V64.3652C733.703 63.2168 733.074 62.5332 732.021 62.5332C730.941 62.5332 730.148 63.2578 730.148 64.543Z" fill="var(--sol-element-primary)"/>
<path d="M48.916 155V145.102H50.6934V149.299H55.3008V145.102H57.0918V155H55.3008V150.789H50.6934V155H48.916ZM62.082 155.15C59.9219 155.15 58.5273 153.619 58.5273 151.322C58.5273 149.012 59.9219 147.48 62.082 147.48C64.2559 147.48 65.6367 149.012 65.6367 151.322C65.6367 153.619 64.2559 155.15 62.082 155.15ZM62.0957 153.756C63.2852 153.756 63.873 152.676 63.873 151.309C63.873 149.955 63.2852 148.861 62.0957 148.861C60.8789 148.861 60.291 149.955 60.291 151.309C60.291 152.676 60.8789 153.756 62.0957 153.756ZM73.375 147.576L70.7227 155H68.8086L66.1562 147.576H68.0156L69.7246 153.1H69.8066L71.5293 147.576H73.375ZM77.5176 155.15C75.2754 155.15 73.9082 153.66 73.9082 151.336C73.9082 149.039 75.3027 147.48 77.4219 147.48C79.2402 147.48 80.8125 148.615 80.8125 151.227V151.773H75.6309C75.6514 153.038 76.3965 153.783 77.5312 153.783C78.2969 153.783 78.8164 153.455 79.0352 153.018H80.7441C80.4297 154.303 79.2402 155.15 77.5176 155.15ZM75.6445 150.584H79.1445C79.1309 149.572 78.4609 148.834 77.4492 148.834C76.3965 148.834 75.6992 149.634 75.6445 150.584ZM82.166 155V147.576H83.8613V148.807H83.9434C84.2031 147.959 84.9277 147.467 85.7754 147.467C85.9668 147.467 86.2402 147.48 86.4043 147.508V149.121C86.2539 149.066 85.8848 149.012 85.5977 149.012C84.627 149.012 83.916 149.682 83.916 150.625V155H82.166Z" fill="var(--sol-element-quaternary)"/>
<path d="M233.001 137.834H243.001C243.645 137.834 244.167 138.357 244.167 139.001V149.001C244.167 149.645 243.645 150.167 243.001 150.167H233.001C232.357 150.167 231.834 149.645 231.834 149.001V139.001C231.834 138.357 232.357 137.834 233.001 137.834Z" stroke="var(--sol-element-primary)" stroke-opacity="0.16"/>
<rect width="20" height="20" transform="translate(228 134)" fill="var(--sol-element-primary)" fill-opacity="0.08"/>
<path d="M263.461 144.051C263.461 147.182 261.615 149.137 259.086 149.137C256.543 149.137 254.711 147.182 254.711 144.051C254.711 140.92 256.543 138.965 259.086 138.965C261.615 138.965 263.461 140.92 263.461 144.051ZM262.271 144.051C262.271 141.494 260.877 140.113 259.086 140.113C257.295 140.113 255.9 141.494 255.9 144.051C255.9 146.607 257.295 147.988 259.086 147.988C260.877 147.988 262.271 146.607 262.271 144.051ZM265.115 151.789V141.576H266.25V142.752H266.387C266.633 142.355 267.098 141.48 268.533 141.48C270.393 141.48 271.691 142.957 271.691 145.309C271.691 147.66 270.393 149.15 268.547 149.15C267.125 149.15 266.633 148.275 266.387 147.865H266.291V151.789H265.115ZM266.264 145.281C266.264 146.949 267.016 148.098 268.383 148.098C269.791 148.098 270.516 146.867 270.516 145.281C270.516 143.736 269.805 142.533 268.383 142.533C266.988 142.533 266.264 143.641 266.264 145.281ZM276.463 141.576V142.561H274.904V146.867C274.904 147.824 275.369 147.975 275.875 147.975C276.094 147.975 276.395 147.961 276.572 147.947V149.041C276.395 149.068 276.094 149.096 275.752 149.096C274.768 149.096 273.715 148.48 273.715 147.168V142.561H272.594V141.576H273.715V139.799H274.904V141.576H276.463ZM277.98 149V141.576H279.156V149H277.98ZM278.568 140.346C278.117 140.346 277.748 140.004 277.748 139.566C277.748 139.129 278.117 138.787 278.568 138.787C279.02 138.787 279.402 139.129 279.402 139.566C279.402 140.004 279.02 140.346 278.568 140.346ZM284.064 149.15C282.041 149.15 280.674 147.633 280.674 145.322C280.674 143.012 282.041 141.48 284.064 141.48C286.074 141.48 287.428 143.012 287.428 145.322C287.428 147.633 286.074 149.15 284.064 149.15ZM284.064 148.111C285.555 148.111 286.252 146.799 286.252 145.322C286.252 143.846 285.555 142.52 284.064 142.52C282.547 142.52 281.85 143.846 281.85 145.322C281.85 146.799 282.547 148.111 284.064 148.111ZM290.148 144.543V149H288.973V141.576H290.107V142.738H290.203C290.559 141.986 291.242 141.48 292.377 141.48C293.881 141.48 294.879 142.396 294.879 144.283V149H293.703V144.365C293.703 143.217 293.074 142.533 292.021 142.533C290.941 142.533 290.148 143.258 290.148 144.543Z" fill="var(--sol-element-primary)"/>
<g clip-path="url(#clip2_1670_175480)">
<path d="M451.334 139.334C451.334 138.229 452.229 137.334 453.334 137.334H462.667C463.772 137.334 464.667 138.229 464.667 139.334V148.667C464.667 149.772 463.772 150.667 462.667 150.667H453.334C452.229 150.667 451.334 149.772 451.334 148.667V139.334Z" fill="var(--sol-fill-active)"/>
<path d="M463.046 141.269L456.881 147.434C456.636 147.678 456.241 147.679 455.997 147.434L452.953 144.391L453.837 143.507L456.438 146.109L462.163 140.385L463.046 141.269Z" fill="var(--sol-surface)"/>
<rect width="24" height="24" transform="translate(446.334 132.334)" fill="var(--sol-surface)" fill-opacity="0.08"/>
</g>
<path d="M483.461 144.051C483.461 147.182 481.615 149.137 479.086 149.137C476.543 149.137 474.711 147.182 474.711 144.051C474.711 140.92 476.543 138.965 479.086 138.965C481.615 138.965 483.461 140.92 483.461 144.051ZM482.271 144.051C482.271 141.494 480.877 140.113 479.086 140.113C477.295 140.113 475.9 141.494 475.9 144.051C475.9 146.607 477.295 147.988 479.086 147.988C480.877 147.988 482.271 146.607 482.271 144.051ZM485.115 151.789V141.576H486.25V142.752H486.387C486.633 142.355 487.098 141.48 488.533 141.48C490.393 141.48 491.691 142.957 491.691 145.309C491.691 147.66 490.393 149.15 488.547 149.15C487.125 149.15 486.633 148.275 486.387 147.865H486.291V151.789H485.115ZM486.264 145.281C486.264 146.949 487.016 148.098 488.383 148.098C489.791 148.098 490.516 146.867 490.516 145.281C490.516 143.736 489.805 142.533 488.383 142.533C486.988 142.533 486.264 143.641 486.264 145.281ZM496.463 141.576V142.561H494.904V146.867C494.904 147.824 495.369 147.975 495.875 147.975C496.094 147.975 496.395 147.961 496.572 147.947V149.041C496.395 149.068 496.094 149.096 495.752 149.096C494.768 149.096 493.715 148.48 493.715 147.168V142.561H492.594V141.576H493.715V139.799H494.904V141.576H496.463ZM497.98 149V141.576H499.156V149H497.98ZM498.568 140.346C498.117 140.346 497.748 140.004 497.748 139.566C497.748 139.129 498.117 138.787 498.568 138.787C499.02 138.787 499.402 139.129 499.402 139.566C499.402 140.004 499.02 140.346 498.568 140.346ZM504.064 149.15C502.041 149.15 500.674 147.633 500.674 145.322C500.674 143.012 502.041 141.48 504.064 141.48C506.074 141.48 507.428 143.012 507.428 145.322C507.428 147.633 506.074 149.15 504.064 149.15ZM504.064 148.111C505.555 148.111 506.252 146.799 506.252 145.322C506.252 143.846 505.555 142.52 504.064 142.52C502.547 142.52 501.85 143.846 501.85 145.322C501.85 146.799 502.547 148.111 504.064 148.111ZM510.148 144.543V149H508.973V141.576H510.107V142.738H510.203C510.559 141.986 511.242 141.48 512.377 141.48C513.881 141.48 514.879 142.396 514.879 144.283V149H513.703V144.365C513.703 143.217 513.074 142.533 512.021 142.533C510.941 142.533 510.148 143.258 510.148 144.543Z" fill="var(--sol-element-primary)"/>
<g clip-path="url(#clip3_1670_175480)">
<path d="M671.334 139.334C671.334 138.229 672.229 137.334 673.334 137.334H682.667C683.772 137.334 684.667 138.229 684.667 139.334V148.667C684.667 149.772 683.772 150.667 682.667 150.667H673.334C672.229 150.667 671.334 149.772 671.334 148.667V139.334Z" fill="var(--sol-fill-active)"/>
<path d="M682.792 143.375V144.625H673.209V143.375H682.792Z" fill="var(--sol-surface)"/>
<rect width="24" height="24" transform="translate(666.334 132.334)" fill="var(--sol-surface)" fill-opacity="0.08"/>
</g>
<path d="M703.461 144.051C703.461 147.182 701.615 149.137 699.086 149.137C696.543 149.137 694.711 147.182 694.711 144.051C694.711 140.92 696.543 138.965 699.086 138.965C701.615 138.965 703.461 140.92 703.461 144.051ZM702.271 144.051C702.271 141.494 700.877 140.113 699.086 140.113C697.295 140.113 695.9 141.494 695.9 144.051C695.9 146.607 697.295 147.988 699.086 147.988C700.877 147.988 702.271 146.607 702.271 144.051ZM705.115 151.789V141.576H706.25V142.752H706.387C706.633 142.355 707.098 141.48 708.533 141.48C710.393 141.48 711.691 142.957 711.691 145.309C711.691 147.66 710.393 149.15 708.547 149.15C707.125 149.15 706.633 148.275 706.387 147.865H706.291V151.789H705.115ZM706.264 145.281C706.264 146.949 707.016 148.098 708.383 148.098C709.791 148.098 710.516 146.867 710.516 145.281C710.516 143.736 709.805 142.533 708.383 142.533C706.988 142.533 706.264 143.641 706.264 145.281ZM716.463 141.576V142.561H714.904V146.867C714.904 147.824 715.369 147.975 715.875 147.975C716.094 147.975 716.395 147.961 716.572 147.947V149.041C716.395 149.068 716.094 149.096 715.752 149.096C714.768 149.096 713.715 148.48 713.715 147.168V142.561H712.594V141.576H713.715V139.799H714.904V141.576H716.463ZM717.98 149V141.576H719.156V149H717.98ZM718.568 140.346C718.117 140.346 717.748 140.004 717.748 139.566C717.748 139.129 718.117 138.787 718.568 138.787C719.02 138.787 719.402 139.129 719.402 139.566C719.402 140.004 719.02 140.346 718.568 140.346ZM724.064 149.15C722.041 149.15 720.674 147.633 720.674 145.322C720.674 143.012 722.041 141.48 724.064 141.48C726.074 141.48 727.428 143.012 727.428 145.322C727.428 147.633 726.074 149.15 724.064 149.15ZM724.064 148.111C725.555 148.111 726.252 146.799 726.252 145.322C726.252 143.846 725.555 142.52 724.064 142.52C722.547 142.52 721.85 143.846 721.85 145.322C721.85 146.799 722.547 148.111 724.064 148.111ZM730.148 144.543V149H728.973V141.576H730.107V142.738H730.203C730.559 141.986 731.242 141.48 732.377 141.48C733.881 141.48 734.879 142.396 734.879 144.283V149H733.703V144.365C733.703 143.217 733.074 142.533 732.021 142.533C730.941 142.533 730.148 143.258 730.148 144.543Z" fill="var(--sol-element-primary)"/>
<path d="M48.916 235V225.102H52.6348C54.9043 225.102 56.1211 226.482 56.1211 228.383C56.1211 230.283 54.8906 231.65 52.6074 231.65H50.6934V235H48.916ZM50.6934 230.188H52.3613C53.7012 230.188 54.3027 229.436 54.3027 228.383C54.3027 227.316 53.7012 226.592 52.3613 226.592H50.6934V230.188ZM57.4746 235V227.576H59.1699V228.807H59.252C59.5117 227.959 60.2363 227.467 61.084 227.467C61.2754 227.467 61.5488 227.48 61.7129 227.508V229.121C61.5625 229.066 61.1934 229.012 60.9062 229.012C59.9355 229.012 59.2246 229.682 59.2246 230.625V235H57.4746ZM65.8145 235.15C63.5723 235.15 62.2051 233.66 62.2051 231.336C62.2051 229.039 63.5996 227.48 65.7188 227.48C67.5371 227.48 69.1094 228.615 69.1094 231.227V231.773H63.9277C63.9482 233.038 64.6934 233.783 65.8281 233.783C66.5938 233.783 67.1133 233.455 67.332 233.018H69.041C68.7266 234.303 67.5371 235.15 65.8145 235.15ZM63.9414 230.584H67.4414C67.4277 229.572 66.7578 228.834 65.7461 228.834C64.6934 228.834 63.9961 229.634 63.9414 230.584ZM74.6738 229.695C74.5645 229.135 74.0996 228.779 73.3613 228.779C72.6094 228.779 72.0625 229.148 72.0762 229.654C72.0625 230.037 72.377 230.324 73.1289 230.502L74.3867 230.762C75.7949 231.076 76.4648 231.719 76.4785 232.785C76.4648 234.18 75.248 235.15 73.3066 235.15C71.4199 235.15 70.2988 234.303 70.1211 232.881H71.8984C72.0078 233.51 72.5 233.824 73.3066 233.824C74.1406 233.824 74.7012 233.482 74.7012 232.936C74.7012 232.512 74.3594 232.238 73.6211 232.074L72.4316 231.814C71.0508 231.541 70.3398 230.816 70.3398 229.75C70.3398 228.383 71.5156 227.48 73.334 227.48C75.1113 227.48 76.2051 228.342 76.3281 229.695H74.6738ZM82.0156 229.695C81.9062 229.135 81.4414 228.779 80.7031 228.779C79.9512 228.779 79.4043 229.148 79.418 229.654C79.4043 230.037 79.7188 230.324 80.4707 230.502L81.7285 230.762C83.1367 231.076 83.8066 231.719 83.8203 232.785C83.8066 234.18 82.5898 235.15 80.6484 235.15C78.7617 235.15 77.6406 234.303 77.4629 232.881H79.2402C79.3496 233.51 79.8418 233.824 80.6484 233.824C81.4824 233.824 82.043 233.482 82.043 232.936C82.043 232.512 81.7012 232.238 80.9629 232.074L79.7734 231.814C78.3926 231.541 77.6816 230.816 77.6816 229.75C77.6816 228.383 78.8574 227.48 80.6758 227.48C82.4531 227.48 83.5469 228.342 83.6699 229.695H82.0156ZM88.4414 235.15C86.1992 235.15 84.832 233.66 84.832 231.336C84.832 229.039 86.2266 227.48 88.3457 227.48C90.1641 227.48 91.7363 228.615 91.7363 231.227V231.773H86.5547C86.5752 233.038 87.3203 233.783 88.4551 233.783C89.2207 233.783 89.7402 233.455 89.959 233.018H91.668C91.3535 234.303 90.1641 235.15 88.4414 235.15ZM86.5684 230.584H90.0684C90.0547 229.572 89.3848 228.834 88.373 228.834C87.3203 228.834 86.623 229.634 86.5684 230.584ZM95.8516 235.137C94.1016 235.137 92.7891 233.742 92.7891 231.295C92.7891 228.82 94.1426 227.48 95.8652 227.48C97.1777 227.48 97.7246 228.26 97.9844 228.793H98.0527V225.102H99.7891V235H98.0801V233.824H97.9844C97.7109 234.371 97.1367 235.137 95.8516 235.137ZM96.3301 233.701C97.4512 233.701 98.0938 232.73 98.0938 231.281C98.0938 229.846 97.4648 228.902 96.3301 228.902C95.168 228.902 94.5664 229.9 94.5664 231.281C94.5664 232.689 95.1816 233.701 96.3301 233.701Z" fill="var(--sol-element-quaternary)"/>
<path d="M233.001 217.834H243.001C243.645 217.834 244.167 218.357 244.167 219.001V229.001C244.167 229.645 243.645 230.167 243.001 230.167H233.001C232.357 230.167 231.834 229.645 231.834 229.001V219.001C231.834 218.357 232.357 217.834 233.001 217.834Z" stroke="var(--sol-element-primary)" stroke-opacity="0.16"/>
<rect width="20" height="20" transform="translate(228 214)" fill="var(--sol-element-primary)" fill-opacity="0.12"/>
<path d="M263.461 224.051C263.461 227.182 261.615 229.137 259.086 229.137C256.543 229.137 254.711 227.182 254.711 224.051C254.711 220.92 256.543 218.965 259.086 218.965C261.615 218.965 263.461 220.92 263.461 224.051ZM262.271 224.051C262.271 221.494 260.877 220.113 259.086 220.113C257.295 220.113 255.9 221.494 255.9 224.051C255.9 226.607 257.295 227.988 259.086 227.988C260.877 227.988 262.271 226.607 262.271 224.051ZM265.115 231.789V221.576H266.25V222.752H266.387C266.633 222.355 267.098 221.48 268.533 221.48C270.393 221.48 271.691 222.957 271.691 225.309C271.691 227.66 270.393 229.15 268.547 229.15C267.125 229.15 266.633 228.275 266.387 227.865H266.291V231.789H265.115ZM266.264 225.281C266.264 226.949 267.016 228.098 268.383 228.098C269.791 228.098 270.516 226.867 270.516 225.281C270.516 223.736 269.805 222.533 268.383 222.533C266.988 222.533 266.264 223.641 266.264 225.281ZM276.463 221.576V222.561H274.904V226.867C274.904 227.824 275.369 227.975 275.875 227.975C276.094 227.975 276.395 227.961 276.572 227.947V229.041C276.395 229.068 276.094 229.096 275.752 229.096C274.768 229.096 273.715 228.48 273.715 227.168V222.561H272.594V221.576H273.715V219.799H274.904V221.576H276.463ZM277.98 229V221.576H279.156V229H277.98ZM278.568 220.346C278.117 220.346 277.748 220.004 277.748 219.566C277.748 219.129 278.117 218.787 278.568 218.787C279.02 218.787 279.402 219.129 279.402 219.566C279.402 220.004 279.02 220.346 278.568 220.346ZM284.064 229.15C282.041 229.15 280.674 227.633 280.674 225.322C280.674 223.012 282.041 221.48 284.064 221.48C286.074 221.48 287.428 223.012 287.428 225.322C287.428 227.633 286.074 229.15 284.064 229.15ZM284.064 228.111C285.555 228.111 286.252 226.799 286.252 225.322C286.252 223.846 285.555 222.52 284.064 222.52C282.547 222.52 281.85 223.846 281.85 225.322C281.85 226.799 282.547 228.111 284.064 228.111ZM290.148 224.543V229H288.973V221.576H290.107V222.738H290.203C290.559 221.986 291.242 221.48 292.377 221.48C293.881 221.48 294.879 222.396 294.879 224.283V229H293.703V224.365C293.703 223.217 293.074 222.533 292.021 222.533C290.941 222.533 290.148 223.258 290.148 224.543Z" fill="var(--sol-element-primary)"/>
<g clip-path="url(#clip4_1670_175480)">
<path d="M451.334 219.334C451.334 218.229 452.229 217.334 453.334 217.334H462.667C463.772 217.334 464.667 218.229 464.667 219.334V228.667C464.667 229.772 463.772 230.667 462.667 230.667H453.334C452.229 230.667 451.334 229.772 451.334 228.667V219.334Z" fill="var(--sol-fill-active)"/>
<path d="M463.046 221.269L456.881 227.434C456.636 227.678 456.241 227.679 455.997 227.434L452.953 224.391L453.837 223.507L456.438 226.109L462.163 220.385L463.046 221.269Z" fill="var(--sol-surface)"/>
<rect width="24" height="24" transform="translate(446.334 212.334)" fill="var(--sol-surface)" fill-opacity="0.12"/>
</g>
<path d="M483.461 224.051C483.461 227.182 481.615 229.137 479.086 229.137C476.543 229.137 474.711 227.182 474.711 224.051C474.711 220.92 476.543 218.965 479.086 218.965C481.615 218.965 483.461 220.92 483.461 224.051ZM482.271 224.051C482.271 221.494 480.877 220.113 479.086 220.113C477.295 220.113 475.9 221.494 475.9 224.051C475.9 226.607 477.295 227.988 479.086 227.988C480.877 227.988 482.271 226.607 482.271 224.051ZM485.115 231.789V221.576H486.25V222.752H486.387C486.633 222.355 487.098 221.48 488.533 221.48C490.393 221.48 491.691 222.957 491.691 225.309C491.691 227.66 490.393 229.15 488.547 229.15C487.125 229.15 486.633 228.275 486.387 227.865H486.291V231.789H485.115ZM486.264 225.281C486.264 226.949 487.016 228.098 488.383 228.098C489.791 228.098 490.516 226.867 490.516 225.281C490.516 223.736 489.805 222.533 488.383 222.533C486.988 222.533 486.264 223.641 486.264 225.281ZM496.463 221.576V222.561H494.904V226.867C494.904 227.824 495.369 227.975 495.875 227.975C496.094 227.975 496.395 227.961 496.572 227.947V229.041C496.395 229.068 496.094 229.096 495.752 229.096C494.768 229.096 493.715 228.48 493.715 227.168V222.561H492.594V221.576H493.715V219.799H494.904V221.576H496.463ZM497.98 229V221.576H499.156V229H497.98ZM498.568 220.346C498.117 220.346 497.748 220.004 497.748 219.566C497.748 219.129 498.117 218.787 498.568 218.787C499.02 218.787 499.402 219.129 499.402 219.566C499.402 220.004 499.02 220.346 498.568 220.346ZM504.064 229.15C502.041 229.15 500.674 227.633 500.674 225.322C500.674 223.012 502.041 221.48 504.064 221.48C506.074 221.48 507.428 223.012 507.428 225.322C507.428 227.633 506.074 229.15 504.064 229.15ZM504.064 228.111C505.555 228.111 506.252 226.799 506.252 225.322C506.252 223.846 505.555 222.52 504.064 222.52C502.547 222.52 501.85 223.846 501.85 225.322C501.85 226.799 502.547 228.111 504.064 228.111ZM510.148 224.543V229H508.973V221.576H510.107V222.738H510.203C510.559 221.986 511.242 221.48 512.377 221.48C513.881 221.48 514.879 222.396 514.879 224.283V229H513.703V224.365C513.703 223.217 513.074 222.533 512.021 222.533C510.941 222.533 510.148 223.258 510.148 224.543Z" fill="var(--sol-element-primary)"/>
<g clip-path="url(#clip5_1670_175480)">
<path d="M671.334 219.334C671.334 218.229 672.229 217.334 673.334 217.334H682.667C683.772 217.334 684.667 218.229 684.667 219.334V228.667C684.667 229.772 683.772 230.667 682.667 230.667H673.334C672.229 230.667 671.334 229.772 671.334 228.667V219.334Z" fill="var(--sol-fill-active)"/>
<path d="M682.792 223.375V224.625H673.209V223.375H682.792Z" fill="var(--sol-surface)"/>
<rect width="24" height="24" transform="translate(666.334 212.334)" fill="var(--sol-surface)" fill-opacity="0.12"/>
</g>
<path d="M703.461 224.051C703.461 227.182 701.615 229.137 699.086 229.137C696.543 229.137 694.711 227.182 694.711 224.051C694.711 220.92 696.543 218.965 699.086 218.965C701.615 218.965 703.461 220.92 703.461 224.051ZM702.271 224.051C702.271 221.494 700.877 220.113 699.086 220.113C697.295 220.113 695.9 221.494 695.9 224.051C695.9 226.607 697.295 227.988 699.086 227.988C700.877 227.988 702.271 226.607 702.271 224.051ZM705.115 231.789V221.576H706.25V222.752H706.387C706.633 222.355 707.098 221.48 708.533 221.48C710.393 221.48 711.691 222.957 711.691 225.309C711.691 227.66 710.393 229.15 708.547 229.15C707.125 229.15 706.633 228.275 706.387 227.865H706.291V231.789H705.115ZM706.264 225.281C706.264 226.949 707.016 228.098 708.383 228.098C709.791 228.098 710.516 226.867 710.516 225.281C710.516 223.736 709.805 222.533 708.383 222.533C706.988 222.533 706.264 223.641 706.264 225.281ZM716.463 221.576V222.561H714.904V226.867C714.904 227.824 715.369 227.975 715.875 227.975C716.094 227.975 716.395 227.961 716.572 227.947V229.041C716.395 229.068 716.094 229.096 715.752 229.096C714.768 229.096 713.715 228.48 713.715 227.168V222.561H712.594V221.576H713.715V219.799H714.904V221.576H716.463ZM717.98 229V221.576H719.156V229H717.98ZM718.568 220.346C718.117 220.346 717.748 220.004 717.748 219.566C717.748 219.129 718.117 218.787 718.568 218.787C719.02 218.787 719.402 219.129 719.402 219.566C719.402 220.004 719.02 220.346 718.568 220.346ZM724.064 229.15C722.041 229.15 720.674 227.633 720.674 225.322C720.674 223.012 722.041 221.48 724.064 221.48C726.074 221.48 727.428 223.012 727.428 225.322C727.428 227.633 726.074 229.15 724.064 229.15ZM724.064 228.111C725.555 228.111 726.252 226.799 726.252 225.322C726.252 223.846 725.555 222.52 724.064 222.52C722.547 222.52 721.85 223.846 721.85 225.322C721.85 226.799 722.547 228.111 724.064 228.111ZM730.148 224.543V229H728.973V221.576H730.107V222.738H730.203C730.559 221.986 731.242 221.48 732.377 221.48C733.881 221.48 734.879 222.396 734.879 224.283V229H733.703V224.365C733.703 223.217 733.074 222.533 732.021 222.533C730.941 222.533 730.148 223.258 730.148 224.543Z" fill="var(--sol-element-primary)"/>
<path d="M48.916 315V305.102H55.2598V306.592H50.6934V309.299H54.8223V310.789H50.6934V315H48.916ZM59.3887 315.15C57.2285 315.15 55.834 313.619 55.834 311.322C55.834 309.012 57.2285 307.48 59.3887 307.48C61.5625 307.48 62.9434 309.012 62.9434 311.322C62.9434 313.619 61.5625 315.15 59.3887 315.15ZM59.4023 313.756C60.5918 313.756 61.1797 312.676 61.1797 311.309C61.1797 309.955 60.5918 308.861 59.4023 308.861C58.1855 308.861 57.5977 309.955 57.5977 311.309C57.5977 312.676 58.1855 313.756 59.4023 313.756ZM67.5371 315.15C65.3223 315.15 63.9824 313.564 63.9824 311.322C63.9824 309.053 65.3633 307.48 67.5371 307.48C69.3418 307.48 70.5996 308.533 70.7227 310.133H69.0547C68.918 309.422 68.3984 308.875 67.5508 308.875C66.4707 308.875 65.7461 309.791 65.7461 311.281C65.7461 312.812 66.457 313.729 67.5508 313.729C68.3301 313.729 68.9043 313.277 69.0547 312.471H70.7227C70.5859 314.043 69.3965 315.15 67.5371 315.15ZM76.7793 311.883V307.576H78.5156V315H76.834V313.688H76.752C76.4102 314.508 75.6309 315.096 74.5234 315.096C73.0605 315.096 72.0488 314.084 72.0352 312.307V307.576H73.7852V312.033C73.7852 312.977 74.3457 313.578 75.1934 313.578C75.959 313.578 76.7793 313.018 76.7793 311.883ZM84.3945 309.695C84.2852 309.135 83.8203 308.779 83.082 308.779C82.3301 308.779 81.7832 309.148 81.7969 309.654C81.7832 310.037 82.0977 310.324 82.8496 310.502L84.1074 310.762C85.5156 311.076 86.1855 311.719 86.1992 312.785C86.1855 314.18 84.9688 315.15 83.0273 315.15C81.1406 315.15 80.0195 314.303 79.8418 312.881H81.6191C81.7285 313.51 82.2207 313.824 83.0273 313.824C83.8613 313.824 84.4219 313.482 84.4219 312.936C84.4219 312.512 84.0801 312.238 83.3418 312.074L82.1523 311.814C80.7715 311.541 80.0605 310.816 80.0605 309.75C80.0605 308.383 81.2363 307.48 83.0547 307.48C84.832 307.48 85.9258 308.342 86.0488 309.695H84.3945ZM90.8203 315.15C88.5781 315.15 87.2109 313.66 87.2109 311.336C87.2109 309.039 88.6055 307.48 90.7246 307.48C92.543 307.48 94.1152 308.615 94.1152 311.227V311.773H88.9336C88.9541 313.038 89.6992 313.783 90.834 313.783C91.5996 313.783 92.1191 313.455 92.3379 313.018H94.0469C93.7324 314.303 92.543 315.15 90.8203 315.15ZM88.9473 310.584H92.4473C92.4336 309.572 91.7637 308.834 90.752 308.834C89.6992 308.834 89.002 309.634 88.9473 310.584ZM98.2305 315.137C96.4805 315.137 95.168 313.742 95.168 311.295C95.168 308.82 96.5215 307.48 98.2441 307.48C99.5566 307.48 100.104 308.26 100.363 308.793H100.432V305.102H102.168V315H100.459V313.824H100.363C100.09 314.371 99.5156 315.137 98.2305 315.137ZM98.709 313.701C99.8301 313.701 100.473 312.73 100.473 311.281C100.473 309.846 99.8438 308.902 98.709 308.902C97.5469 308.902 96.9453 309.9 96.9453 311.281C96.9453 312.689 97.5605 313.701 98.709 313.701Z" fill="var(--sol-element-quaternary)"/>
<g filter="url(#filter0_dd_1670_175480)">
<g clip-path="url(#clip6_1670_175480)">
<path d="M231.334 299.334C231.334 298.229 232.229 297.334 233.334 297.334H242.667C243.772 297.334 244.667 298.229 244.667 299.334V308.667C244.667 309.772 243.772 310.667 242.667 310.667H233.334C232.229 310.667 231.334 309.772 231.334 308.667V299.334Z" fill="var(--sol-surface)"/>
</g>
<path d="M233.334 297.834H242.667C243.495 297.834 244.167 298.506 244.167 299.334V308.667C244.167 309.495 243.495 310.167 242.667 310.167H233.334C232.506 310.167 231.834 309.495 231.834 308.667V299.334C231.834 298.506 232.506 297.834 233.334 297.834Z" stroke="var(--sol-element-primary)" stroke-opacity="0.16"/>
</g>
<path d="M263.461 304.051C263.461 307.182 261.615 309.137 259.086 309.137C256.543 309.137 254.711 307.182 254.711 304.051C254.711 300.92 256.543 298.965 259.086 298.965C261.615 298.965 263.461 300.92 263.461 304.051ZM262.271 304.051C262.271 301.494 260.877 300.113 259.086 300.113C257.295 300.113 255.9 301.494 255.9 304.051C255.9 306.607 257.295 307.988 259.086 307.988C260.877 307.988 262.271 306.607 262.271 304.051ZM265.115 311.789V301.576H266.25V302.752H266.387C266.633 302.355 267.098 301.48 268.533 301.48C270.393 301.48 271.691 302.957 271.691 305.309C271.691 307.66 270.393 309.15 268.547 309.15C267.125 309.15 266.633 308.275 266.387 307.865H266.291V311.789H265.115ZM266.264 305.281C266.264 306.949 267.016 308.098 268.383 308.098C269.791 308.098 270.516 306.867 270.516 305.281C270.516 303.736 269.805 302.533 268.383 302.533C266.988 302.533 266.264 303.641 266.264 305.281ZM276.463 301.576V302.561H274.904V306.867C274.904 307.824 275.369 307.975 275.875 307.975C276.094 307.975 276.395 307.961 276.572 307.947V309.041C276.395 309.068 276.094 309.096 275.752 309.096C274.768 309.096 273.715 308.48 273.715 307.168V302.561H272.594V301.576H273.715V299.799H274.904V301.576H276.463ZM277.98 309V301.576H279.156V309H277.98ZM278.568 300.346C278.117 300.346 277.748 300.004 277.748 299.566C277.748 299.129 278.117 298.787 278.568 298.787C279.02 298.787 279.402 299.129 279.402 299.566C279.402 300.004 279.02 300.346 278.568 300.346ZM284.064 309.15C282.041 309.15 280.674 307.633 280.674 305.322C280.674 303.012 282.041 301.48 284.064 301.48C286.074 301.48 287.428 303.012 287.428 305.322C287.428 307.633 286.074 309.15 284.064 309.15ZM284.064 308.111C285.555 308.111 286.252 306.799 286.252 305.322C286.252 303.846 285.555 302.52 284.064 302.52C282.547 302.52 281.85 303.846 281.85 305.322C281.85 306.799 282.547 308.111 284.064 308.111ZM290.148 304.543V309H288.973V301.576H290.107V302.738H290.203C290.559 301.986 291.242 301.48 292.377 301.48C293.881 301.48 294.879 302.396 294.879 304.283V309H293.703V304.365C293.703 303.217 293.074 302.533 292.021 302.533C290.941 302.533 290.148 303.258 290.148 304.543Z" fill="var(--sol-element-primary)"/>
<g filter="url(#filter1_dd_1670_175480)">
<g clip-path="url(#clip7_1670_175480)">
<path d="M451.334 299.334C451.334 298.229 452.229 297.334 453.334 297.334H462.667C463.772 297.334 464.667 298.229 464.667 299.334V308.667C464.667 309.772 463.772 310.667 462.667 310.667H453.334C452.229 310.667 451.334 309.772 451.334 308.667V299.334Z" fill="var(--sol-fill-active)"/>
<path d="M463.046 301.269L456.881 307.434C456.636 307.678 456.241 307.679 455.997 307.434L452.953 304.391L453.837 303.507L456.438 306.109L462.163 300.385L463.046 301.269Z" fill="var(--sol-surface)"/>
</g>
</g>
<path d="M483.461 304.051C483.461 307.182 481.615 309.137 479.086 309.137C476.543 309.137 474.711 307.182 474.711 304.051C474.711 300.92 476.543 298.965 479.086 298.965C481.615 298.965 483.461 300.92 483.461 304.051ZM482.271 304.051C482.271 301.494 480.877 300.113 479.086 300.113C477.295 300.113 475.9 301.494 475.9 304.051C475.9 306.607 477.295 307.988 479.086 307.988C480.877 307.988 482.271 306.607 482.271 304.051ZM485.115 311.789V301.576H486.25V302.752H486.387C486.633 302.355 487.098 301.48 488.533 301.48C490.393 301.48 491.691 302.957 491.691 305.309C491.691 307.66 490.393 309.15 488.547 309.15C487.125 309.15 486.633 308.275 486.387 307.865H486.291V311.789H485.115ZM486.264 305.281C486.264 306.949 487.016 308.098 488.383 308.098C489.791 308.098 490.516 306.867 490.516 305.281C490.516 303.736 489.805 302.533 488.383 302.533C486.988 302.533 486.264 303.641 486.264 305.281ZM496.463 301.576V302.561H494.904V306.867C494.904 307.824 495.369 307.975 495.875 307.975C496.094 307.975 496.395 307.961 496.572 307.947V309.041C496.395 309.068 496.094 309.096 495.752 309.096C494.768 309.096 493.715 308.48 493.715 307.168V302.561H492.594V301.576H493.715V299.799H494.904V301.576H496.463ZM497.98 309V301.576H499.156V309H497.98ZM498.568 300.346C498.117 300.346 497.748 300.004 497.748 299.566C497.748 299.129 498.117 298.787 498.568 298.787C499.02 298.787 499.402 299.129 499.402 299.566C499.402 300.004 499.02 300.346 498.568 300.346ZM504.064 309.15C502.041 309.15 500.674 307.633 500.674 305.322C500.674 303.012 502.041 301.48 504.064 301.48C506.074 301.48 507.428 303.012 507.428 305.322C507.428 307.633 506.074 309.15 504.064 309.15ZM504.064 308.111C505.555 308.111 506.252 306.799 506.252 305.322C506.252 303.846 505.555 302.52 504.064 302.52C502.547 302.52 501.85 303.846 501.85 305.322C501.85 306.799 502.547 308.111 504.064 308.111ZM510.148 304.543V309H508.973V301.576H510.107V302.738H510.203C510.559 301.986 511.242 301.48 512.377 301.48C513.881 301.48 514.879 302.396 514.879 304.283V309H513.703V304.365C513.703 303.217 513.074 302.533 512.021 302.533C510.941 302.533 510.148 303.258 510.148 304.543Z" fill="var(--sol-element-primary)"/>
<g filter="url(#filter2_dd_1670_175480)">
<g clip-path="url(#clip8_1670_175480)">
<path d="M670 298C670 296.895 670.895 296 672 296H684C685.105 296 686 296.895 686 298V310C686 311.105 685.105 312 684 312H672C670.895 312 670 311.105 670 310V298Z" fill="var(--sol-fill-active)"/>
<path d="M683.75 303.25V304.75H672.25V303.25H683.75Z" fill="var(--sol-surface)"/>
</g>
</g>
<path d="M703.461 304.051C703.461 307.182 701.615 309.137 699.086 309.137C696.543 309.137 694.711 307.182 694.711 304.051C694.711 300.92 696.543 298.965 699.086 298.965C701.615 298.965 703.461 300.92 703.461 304.051ZM702.271 304.051C702.271 301.494 700.877 300.113 699.086 300.113C697.295 300.113 695.9 301.494 695.9 304.051C695.9 306.607 697.295 307.988 699.086 307.988C700.877 307.988 702.271 306.607 702.271 304.051ZM705.115 311.789V301.576H706.25V302.752H706.387C706.633 302.355 707.098 301.48 708.533 301.48C710.393 301.48 711.691 302.957 711.691 305.309C711.691 307.66 710.393 309.15 708.547 309.15C707.125 309.15 706.633 308.275 706.387 307.865H706.291V311.789H705.115ZM706.264 305.281C706.264 306.949 707.016 308.098 708.383 308.098C709.791 308.098 710.516 306.867 710.516 305.281C710.516 303.736 709.805 302.533 708.383 302.533C706.988 302.533 706.264 303.641 706.264 305.281ZM716.463 301.576V302.561H714.904V306.867C714.904 307.824 715.369 307.975 715.875 307.975C716.094 307.975 716.395 307.961 716.572 307.947V309.041C716.395 309.068 716.094 309.096 715.752 309.096C714.768 309.096 713.715 308.48 713.715 307.168V302.561H712.594V301.576H713.715V299.799H714.904V301.576H716.463ZM717.98 309V301.576H719.156V309H717.98ZM718.568 300.346C718.117 300.346 717.748 300.004 717.748 299.566C717.748 299.129 718.117 298.787 718.568 298.787C719.02 298.787 719.402 299.129 719.402 299.566C719.402 300.004 719.02 300.346 718.568 300.346ZM724.064 309.15C722.041 309.15 720.674 307.633 720.674 305.322C720.674 303.012 722.041 301.48 724.064 301.48C726.074 301.48 727.428 303.012 727.428 305.322C727.428 307.633 726.074 309.15 724.064 309.15ZM724.064 308.111C725.555 308.111 726.252 306.799 726.252 305.322C726.252 303.846 725.555 302.52 724.064 302.52C722.547 302.52 721.85 303.846 721.85 305.322C721.85 306.799 722.547 308.111 724.064 308.111ZM730.148 304.543V309H728.973V301.576H730.107V302.738H730.203C730.559 301.986 731.242 301.48 732.377 301.48C733.881 301.48 734.879 302.396 734.879 304.283V309H733.703V304.365C733.703 303.217 733.074 302.533 732.021 302.533C730.941 302.533 730.148 303.258 730.148 304.543Z" fill="var(--sol-element-primary)"/>
<path d="M48.916 395V385.102H55.3555V386.592H50.6934V389.299H55.0137V390.789H50.6934V393.496H55.3828V395H48.916ZM56.9824 395V387.576H58.6777V388.807H58.7598C59.0195 387.959 59.7441 387.467 60.5918 387.467C60.7832 387.467 61.0566 387.48 61.2207 387.508V389.121C61.0703 389.066 60.7012 389.012 60.4141 389.012C59.4434 389.012 58.7324 389.682 58.7324 390.625V395H56.9824ZM62.2598 395V387.576H63.9551V388.807H64.0371C64.2969 387.959 65.0215 387.467 65.8691 387.467C66.0605 387.467 66.334 387.48 66.498 387.508V389.121C66.3477 389.066 65.9785 389.012 65.6914 389.012C64.7207 389.012 64.0098 389.682 64.0098 390.625V395H62.2598ZM70.5449 395.15C68.3848 395.15 66.9902 393.619 66.9902 391.322C66.9902 389.012 68.3848 387.48 70.5449 387.48C72.7188 387.48 74.0996 389.012 74.0996 391.322C74.0996 393.619 72.7188 395.15 70.5449 395.15ZM70.5586 393.756C71.748 393.756 72.3359 392.676 72.3359 391.309C72.3359 389.955 71.748 388.861 70.5586 388.861C69.3418 388.861 68.7539 389.955 68.7539 391.309C68.7539 392.676 69.3418 393.756 70.5586 393.756ZM75.4531 395V387.576H77.1484V388.807H77.2305C77.4902 387.959 78.2148 387.467 79.0625 387.467C79.2539 387.467 79.5273 387.48 79.6914 387.508V389.121C79.541 389.066 79.1719 389.012 78.8848 389.012C77.9141 389.012 77.2031 389.682 77.2031 390.625V395H75.4531Z" fill="var(--sol-element-quaternary)"/>
<g clip-path="url(#clip9_1670_175480)">
<path d="M233.001 377.834H243.001C243.645 377.834 244.167 378.357 244.167 379.001V389.001C244.167 389.645 243.645 390.167 243.001 390.167H233.001C232.357 390.167 231.834 389.645 231.834 389.001V379.001C231.834 378.357 232.357 377.834 233.001 377.834Z" stroke="var(--sol-error-dim)"/>
</g>
<path d="M263.461 384.051C263.461 387.182 261.615 389.137 259.086 389.137C256.543 389.137 254.711 387.182 254.711 384.051C254.711 380.92 256.543 378.965 259.086 378.965C261.615 378.965 263.461 380.92 263.461 384.051ZM262.271 384.051C262.271 381.494 260.877 380.113 259.086 380.113C257.295 380.113 255.9 381.494 255.9 384.051C255.9 386.607 257.295 387.988 259.086 387.988C260.877 387.988 262.271 386.607 262.271 384.051ZM265.115 391.789V381.576H266.25V382.752H266.387C266.633 382.355 267.098 381.48 268.533 381.48C270.393 381.48 271.691 382.957 271.691 385.309C271.691 387.66 270.393 389.15 268.547 389.15C267.125 389.15 266.633 388.275 266.387 387.865H266.291V391.789H265.115ZM266.264 385.281C266.264 386.949 267.016 388.098 268.383 388.098C269.791 388.098 270.516 386.867 270.516 385.281C270.516 383.736 269.805 382.533 268.383 382.533C266.988 382.533 266.264 383.641 266.264 385.281ZM276.463 381.576V382.561H274.904V386.867C274.904 387.824 275.369 387.975 275.875 387.975C276.094 387.975 276.395 387.961 276.572 387.947V389.041C276.395 389.068 276.094 389.096 275.752 389.096C274.768 389.096 273.715 388.48 273.715 387.168V382.561H272.594V381.576H273.715V379.799H274.904V381.576H276.463ZM277.98 389V381.576H279.156V389H277.98ZM278.568 380.346C278.117 380.346 277.748 380.004 277.748 379.566C277.748 379.129 278.117 378.787 278.568 378.787C279.02 378.787 279.402 379.129 279.402 379.566C279.402 380.004 279.02 380.346 278.568 380.346ZM284.064 389.15C282.041 389.15 280.674 387.633 280.674 385.322C280.674 383.012 282.041 381.48 284.064 381.48C286.074 381.48 287.428 383.012 287.428 385.322C287.428 387.633 286.074 389.15 284.064 389.15ZM284.064 388.111C285.555 388.111 286.252 386.799 286.252 385.322C286.252 383.846 285.555 382.52 284.064 382.52C282.547 382.52 281.85 383.846 281.85 385.322C281.85 386.799 282.547 388.111 284.064 388.111ZM290.148 384.543V389H288.973V381.576H290.107V382.738H290.203C290.559 381.986 291.242 381.48 292.377 381.48C293.881 381.48 294.879 382.396 294.879 384.283V389H293.703V384.365C293.703 383.217 293.074 382.533 292.021 382.533C290.941 382.533 290.148 383.258 290.148 384.543Z" fill="var(--sol-element-primary)"/>
<g clip-path="url(#clip10_1670_175480)">
<path d="M451.334 379.334C451.334 378.229 452.229 377.334 453.334 377.334H462.667C463.772 377.334 464.667 378.229 464.667 379.334V388.667C464.667 389.772 463.772 390.667 462.667 390.667H453.334C452.229 390.667 451.334 389.772 451.334 388.667V379.334Z" fill="var(--sol-error-dim)"/>
<path d="M463.046 381.269L456.881 387.434C456.636 387.678 456.241 387.679 455.997 387.434L452.953 384.391L453.837 383.507L456.438 386.109L462.163 380.385L463.046 381.269Z" fill="var(--sol-surface)"/>
</g>
<path d="M483.461 384.051C483.461 387.182 481.615 389.137 479.086 389.137C476.543 389.137 474.711 387.182 474.711 384.051C474.711 380.92 476.543 378.965 479.086 378.965C481.615 378.965 483.461 380.92 483.461 384.051ZM482.271 384.051C482.271 381.494 480.877 380.113 479.086 380.113C477.295 380.113 475.9 381.494 475.9 384.051C475.9 386.607 477.295 387.988 479.086 387.988C480.877 387.988 482.271 386.607 482.271 384.051ZM485.115 391.789V381.576H486.25V382.752H486.387C486.633 382.355 487.098 381.48 488.533 381.48C490.393 381.48 491.691 382.957 491.691 385.309C491.691 387.66 490.393 389.15 488.547 389.15C487.125 389.15 486.633 388.275 486.387 387.865H486.291V391.789H485.115ZM486.264 385.281C486.264 386.949 487.016 388.098 488.383 388.098C489.791 388.098 490.516 386.867 490.516 385.281C490.516 383.736 489.805 382.533 488.383 382.533C486.988 382.533 486.264 383.641 486.264 385.281ZM496.463 381.576V382.561H494.904V386.867C494.904 387.824 495.369 387.975 495.875 387.975C496.094 387.975 496.395 387.961 496.572 387.947V389.041C496.395 389.068 496.094 389.096 495.752 389.096C494.768 389.096 493.715 388.48 493.715 387.168V382.561H492.594V381.576H493.715V379.799H494.904V381.576H496.463ZM497.98 389V381.576H499.156V389H497.98ZM498.568 380.346C498.117 380.346 497.748 380.004 497.748 379.566C497.748 379.129 498.117 378.787 498.568 378.787C499.02 378.787 499.402 379.129 499.402 379.566C499.402 380.004 499.02 380.346 498.568 380.346ZM504.064 389.15C502.041 389.15 500.674 387.633 500.674 385.322C500.674 383.012 502.041 381.48 504.064 381.48C506.074 381.48 507.428 383.012 507.428 385.322C507.428 387.633 506.074 389.15 504.064 389.15ZM504.064 388.111C505.555 388.111 506.252 386.799 506.252 385.322C506.252 383.846 505.555 382.52 504.064 382.52C502.547 382.52 501.85 383.846 501.85 385.322C501.85 386.799 502.547 388.111 504.064 388.111ZM510.148 384.543V389H508.973V381.576H510.107V382.738H510.203C510.559 381.986 511.242 381.48 512.377 381.48C513.881 381.48 514.879 382.396 514.879 384.283V389H513.703V384.365C513.703 383.217 513.074 382.533 512.021 382.533C510.941 382.533 510.148 383.258 510.148 384.543Z" fill="var(--sol-element-primary)"/>
<g clip-path="url(#clip11_1670_175480)">
<path d="M671.334 379.334C671.334 378.229 672.229 377.334 673.334 377.334H682.667C683.772 377.334 684.667 378.229 684.667 379.334V388.667C684.667 389.772 683.772 390.667 682.667 390.667H673.334C672.229 390.667 671.334 389.772 671.334 388.667V379.334Z" fill="var(--sol-error-dim)"/>
<path d="M682.792 383.375V384.625H673.209V383.375H682.792Z" fill="var(--sol-surface)"/>
</g>
<path d="M703.461 384.051C703.461 387.182 701.615 389.137 699.086 389.137C696.543 389.137 694.711 387.182 694.711 384.051C694.711 380.92 696.543 378.965 699.086 378.965C701.615 378.965 703.461 380.92 703.461 384.051ZM702.271 384.051C702.271 381.494 700.877 380.113 699.086 380.113C697.295 380.113 695.9 381.494 695.9 384.051C695.9 386.607 697.295 387.988 699.086 387.988C700.877 387.988 702.271 386.607 702.271 384.051ZM705.115 391.789V381.576H706.25V382.752H706.387C706.633 382.355 707.098 381.48 708.533 381.48C710.393 381.48 711.691 382.957 711.691 385.309C711.691 387.66 710.393 389.15 708.547 389.15C707.125 389.15 706.633 388.275 706.387 387.865H706.291V391.789H705.115ZM706.264 385.281C706.264 386.949 707.016 388.098 708.383 388.098C709.791 388.098 710.516 386.867 710.516 385.281C710.516 383.736 709.805 382.533 708.383 382.533C706.988 382.533 706.264 383.641 706.264 385.281ZM716.463 381.576V382.561H714.904V386.867C714.904 387.824 715.369 387.975 715.875 387.975C716.094 387.975 716.395 387.961 716.572 387.947V389.041C716.395 389.068 716.094 389.096 715.752 389.096C714.768 389.096 713.715 388.48 713.715 387.168V382.561H712.594V381.576H713.715V379.799H714.904V381.576H716.463ZM717.98 389V381.576H719.156V389H717.98ZM718.568 380.346C718.117 380.346 717.748 380.004 717.748 379.566C717.748 379.129 718.117 378.787 718.568 378.787C719.02 378.787 719.402 379.129 719.402 379.566C719.402 380.004 719.02 380.346 718.568 380.346ZM724.064 389.15C722.041 389.15 720.674 387.633 720.674 385.322C720.674 383.012 722.041 381.48 724.064 381.48C726.074 381.48 727.428 383.012 727.428 385.322C727.428 387.633 726.074 389.15 724.064 389.15ZM724.064 388.111C725.555 388.111 726.252 386.799 726.252 385.322C726.252 383.846 725.555 382.52 724.064 382.52C722.547 382.52 721.85 383.846 721.85 385.322C721.85 386.799 722.547 388.111 724.064 388.111ZM730.148 384.543V389H728.973V381.576H730.107V382.738H730.203C730.559 381.986 731.242 381.48 732.377 381.48C733.881 381.48 734.879 382.396 734.879 384.283V389H733.703V384.365C733.703 383.217 733.074 382.533 732.021 382.533C730.941 382.533 730.148 383.258 730.148 384.543Z" fill="var(--sol-element-primary)"/>
<path d="M48.916 475V465.102H52.6348C54.9043 465.102 56.1211 466.373 56.1211 468.26C56.1211 469.606 55.5059 470.604 54.3438 471.076L56.4766 475H54.4941L52.5527 471.377H50.6934V475H48.916ZM50.6934 469.887H52.3613C53.7012 469.887 54.3027 469.312 54.3027 468.26C54.3027 467.207 53.7012 466.592 52.3613 466.592H50.6934V469.887ZM60.7559 475.15C58.5137 475.15 57.1465 473.66 57.1465 471.336C57.1465 469.039 58.541 467.48 60.6602 467.48C62.4785 467.48 64.0508 468.615 64.0508 471.227V471.773H58.8691C58.8896 473.038 59.6348 473.783 60.7695 473.783C61.5352 473.783 62.0547 473.455 62.2734 473.018H63.9824C63.668 474.303 62.4785 475.15 60.7559 475.15ZM58.8828 470.584H62.3828C62.3691 469.572 61.6992 468.834 60.6875 468.834C59.6348 468.834 58.9375 469.634 58.8828 470.584ZM65.0625 472.908C65.0625 471.24 66.4434 470.748 67.8242 470.666C68.3369 470.632 69.4033 470.57 69.7246 470.557V469.969C69.7246 469.23 69.2461 468.807 68.3848 468.807C67.6055 468.807 67.127 469.162 66.9902 469.695H65.3086C65.4316 468.438 66.5664 467.48 68.4258 467.48C69.834 467.48 71.4609 468.055 71.4609 470.037V475H69.793V473.975H69.7383C69.4102 474.604 68.7129 475.15 67.5508 475.15C66.1289 475.15 65.0625 474.371 65.0625 472.908ZM66.7441 472.895C66.7441 473.537 67.2637 473.865 68.002 473.865C69.0547 473.865 69.7383 473.168 69.7383 472.334V471.719L68.0977 471.828C67.2637 471.896 66.7441 472.238 66.7441 472.895ZM75.8633 475.137C74.1133 475.137 72.8008 473.742 72.8008 471.295C72.8008 468.82 74.1543 467.48 75.877 467.48C77.1895 467.48 77.7363 468.26 77.9961 468.793H78.0645V465.102H79.8008V475H78.0918V473.824H77.9961C77.7227 474.371 77.1484 475.137 75.8633 475.137ZM76.3418 473.701C77.4629 473.701 78.1055 472.73 78.1055 471.281C78.1055 469.846 77.4766 468.902 76.3418 468.902C75.1797 468.902 74.5781 469.9 74.5781 471.281C74.5781 472.689 75.1934 473.701 76.3418 473.701ZM88.127 475.15C85.9668 475.15 84.5723 473.619 84.5723 471.322C84.5723 469.012 85.9668 467.48 88.127 467.48C90.3008 467.48 91.6816 469.012 91.6816 471.322C91.6816 473.619 90.3008 475.15 88.127 475.15ZM88.1406 473.756C89.3301 473.756 89.918 472.676 89.918 471.309C89.918 469.955 89.3301 468.861 88.1406 468.861C86.9238 468.861 86.3359 469.955 86.3359 471.309C86.3359 472.676 86.9238 473.756 88.1406 473.756ZM94.7852 470.652V475H93.0352V467.576H94.7031V468.834H94.7988C95.1406 468 95.8926 467.48 97 467.48C98.5449 467.48 99.5566 468.492 99.543 470.27V475H97.8066V470.543C97.8066 469.545 97.2734 468.957 96.3574 468.957C95.4277 468.957 94.7852 469.572 94.7852 470.652ZM102.961 465.102V475H101.211V465.102H102.961ZM105.682 477.789C105.34 477.789 104.998 477.775 104.779 477.748V476.354C104.998 476.367 105.285 476.381 105.518 476.381C105.941 476.381 106.297 476.34 106.598 475.547L106.748 475.15L104.041 467.576H105.887L107.609 473.182H107.691L109.414 467.576H111.26L108.279 475.902C107.855 477.092 107.076 477.789 105.682 477.789Z" fill="var(--sol-element-quaternary)"/>
<path d="M233.001 457.834H243.001C243.645 457.834 244.167 458.357 244.167 459.001V469.001C244.167 469.645 243.645 470.167 243.001 470.167H233.001C232.357 470.167 231.834 469.645 231.834 469.001V459.001C231.834 458.357 232.357 457.834 233.001 457.834Z" stroke="var(--sol-element-primary)" stroke-opacity="0.08"/>
<path d="M263.461 464.051C263.461 467.182 261.615 469.137 259.086 469.137C256.543 469.137 254.711 467.182 254.711 464.051C254.711 460.92 256.543 458.965 259.086 458.965C261.615 458.965 263.461 460.92 263.461 464.051ZM262.271 464.051C262.271 461.494 260.877 460.113 259.086 460.113C257.295 460.113 255.9 461.494 255.9 464.051C255.9 466.607 257.295 467.988 259.086 467.988C260.877 467.988 262.271 466.607 262.271 464.051ZM265.115 471.789V461.576H266.25V462.752H266.387C266.633 462.355 267.098 461.48 268.533 461.48C270.393 461.48 271.691 462.957 271.691 465.309C271.691 467.66 270.393 469.15 268.547 469.15C267.125 469.15 266.633 468.275 266.387 467.865H266.291V471.789H265.115ZM266.264 465.281C266.264 466.949 267.016 468.098 268.383 468.098C269.791 468.098 270.516 466.867 270.516 465.281C270.516 463.736 269.805 462.533 268.383 462.533C266.988 462.533 266.264 463.641 266.264 465.281ZM276.463 461.576V462.561H274.904V466.867C274.904 467.824 275.369 467.975 275.875 467.975C276.094 467.975 276.395 467.961 276.572 467.947V469.041C276.395 469.068 276.094 469.096 275.752 469.096C274.768 469.096 273.715 468.48 273.715 467.168V462.561H272.594V461.576H273.715V459.799H274.904V461.576H276.463ZM277.98 469V461.576H279.156V469H277.98ZM278.568 460.346C278.117 460.346 277.748 460.004 277.748 459.566C277.748 459.129 278.117 458.787 278.568 458.787C279.02 458.787 279.402 459.129 279.402 459.566C279.402 460.004 279.02 460.346 278.568 460.346ZM284.064 469.15C282.041 469.15 280.674 467.633 280.674 465.322C280.674 463.012 282.041 461.48 284.064 461.48C286.074 461.48 287.428 463.012 287.428 465.322C287.428 467.633 286.074 469.15 284.064 469.15ZM284.064 468.111C285.555 468.111 286.252 466.799 286.252 465.322C286.252 463.846 285.555 462.52 284.064 462.52C282.547 462.52 281.85 463.846 281.85 465.322C281.85 466.799 282.547 468.111 284.064 468.111ZM290.148 464.543V469H288.973V461.576H290.107V462.738H290.203C290.559 461.986 291.242 461.48 292.377 461.48C293.881 461.48 294.879 462.396 294.879 464.283V469H293.703V464.365C293.703 463.217 293.074 462.533 292.021 462.533C290.941 462.533 290.148 463.258 290.148 464.543Z" fill="var(--sol-element-primary)"/>
<g clip-path="url(#clip12_1670_175480)">
<path d="M463.046 461.269L456.881 467.434C456.636 467.678 456.241 467.679 455.997 467.434L452.953 464.391L453.837 463.507L456.438 466.109L462.163 460.385L463.046 461.269Z" fill="var(--sol-element-quaternary)"/>
</g>
<path d="M453.334 457.834H462.667C463.495 457.834 464.167 458.506 464.167 459.334V468.667C464.167 469.495 463.495 470.167 462.667 470.167H453.334C452.506 470.167 451.834 469.495 451.834 468.667V459.334C451.834 458.506 452.506 457.834 453.334 457.834Z" stroke="var(--sol-element-primary)" stroke-opacity="0.08"/>
<path d="M483.461 464.051C483.461 467.182 481.615 469.137 479.086 469.137C476.543 469.137 474.711 467.182 474.711 464.051C474.711 460.92 476.543 458.965 479.086 458.965C481.615 458.965 483.461 460.92 483.461 464.051ZM482.271 464.051C482.271 461.494 480.877 460.113 479.086 460.113C477.295 460.113 475.9 461.494 475.9 464.051C475.9 466.607 477.295 467.988 479.086 467.988C480.877 467.988 482.271 466.607 482.271 464.051ZM485.115 471.789V461.576H486.25V462.752H486.387C486.633 462.355 487.098 461.48 488.533 461.48C490.393 461.48 491.691 462.957 491.691 465.309C491.691 467.66 490.393 469.15 488.547 469.15C487.125 469.15 486.633 468.275 486.387 467.865H486.291V471.789H485.115ZM486.264 465.281C486.264 466.949 487.016 468.098 488.383 468.098C489.791 468.098 490.516 466.867 490.516 465.281C490.516 463.736 489.805 462.533 488.383 462.533C486.988 462.533 486.264 463.641 486.264 465.281ZM496.463 461.576V462.561H494.904V466.867C494.904 467.824 495.369 467.975 495.875 467.975C496.094 467.975 496.395 467.961 496.572 467.947V469.041C496.395 469.068 496.094 469.096 495.752 469.096C494.768 469.096 493.715 468.48 493.715 467.168V462.561H492.594V461.576H493.715V459.799H494.904V461.576H496.463ZM497.98 469V461.576H499.156V469H497.98ZM498.568 460.346C498.117 460.346 497.748 460.004 497.748 459.566C497.748 459.129 498.117 458.787 498.568 458.787C499.02 458.787 499.402 459.129 499.402 459.566C499.402 460.004 499.02 460.346 498.568 460.346ZM504.064 469.15C502.041 469.15 500.674 467.633 500.674 465.322C500.674 463.012 502.041 461.48 504.064 461.48C506.074 461.48 507.428 463.012 507.428 465.322C507.428 467.633 506.074 469.15 504.064 469.15ZM504.064 468.111C505.555 468.111 506.252 466.799 506.252 465.322C506.252 463.846 505.555 462.52 504.064 462.52C502.547 462.52 501.85 463.846 501.85 465.322C501.85 466.799 502.547 468.111 504.064 468.111ZM510.148 464.543V469H508.973V461.576H510.107V462.738H510.203C510.559 461.986 511.242 461.48 512.377 461.48C513.881 461.48 514.879 462.396 514.879 464.283V469H513.703V464.365C513.703 463.217 513.074 462.533 512.021 462.533C510.941 462.533 510.148 463.258 510.148 464.543Z" fill="var(--sol-element-primary)"/>
<g clip-path="url(#clip13_1670_175480)">
<path d="M682.792 463.375V464.625H673.209V463.375H682.792Z" fill="var(--sol-element-quaternary)"/>
</g>
<path d="M673.334 457.834H682.667C683.495 457.834 684.167 458.506 684.167 459.334V468.667C684.167 469.495 683.495 470.167 682.667 470.167H673.334C672.506 470.167 671.834 469.495 671.834 468.667V459.334C671.834 458.506 672.506 457.834 673.334 457.834Z" stroke="var(--sol-element-primary)" stroke-opacity="0.08"/>
<path d="M703.461 464.051C703.461 467.182 701.615 469.137 699.086 469.137C696.543 469.137 694.711 467.182 694.711 464.051C694.711 460.92 696.543 458.965 699.086 458.965C701.615 458.965 703.461 460.92 703.461 464.051ZM702.271 464.051C702.271 461.494 700.877 460.113 699.086 460.113C697.295 460.113 695.9 461.494 695.9 464.051C695.9 466.607 697.295 467.988 699.086 467.988C700.877 467.988 702.271 466.607 702.271 464.051ZM705.115 471.789V461.576H706.25V462.752H706.387C706.633 462.355 707.098 461.48 708.533 461.48C710.393 461.48 711.691 462.957 711.691 465.309C711.691 467.66 710.393 469.15 708.547 469.15C707.125 469.15 706.633 468.275 706.387 467.865H706.291V471.789H705.115ZM706.264 465.281C706.264 466.949 707.016 468.098 708.383 468.098C709.791 468.098 710.516 466.867 710.516 465.281C710.516 463.736 709.805 462.533 708.383 462.533C706.988 462.533 706.264 463.641 706.264 465.281ZM716.463 461.576V462.561H714.904V466.867C714.904 467.824 715.369 467.975 715.875 467.975C716.094 467.975 716.395 467.961 716.572 467.947V469.041C716.395 469.068 716.094 469.096 715.752 469.096C714.768 469.096 713.715 468.48 713.715 467.168V462.561H712.594V461.576H713.715V459.799H714.904V461.576H716.463ZM717.98 469V461.576H719.156V469H717.98ZM718.568 460.346C718.117 460.346 717.748 460.004 717.748 459.566C717.748 459.129 718.117 458.787 718.568 458.787C719.02 458.787 719.402 459.129 719.402 459.566C719.402 460.004 719.02 460.346 718.568 460.346ZM724.064 469.15C722.041 469.15 720.674 467.633 720.674 465.322C720.674 463.012 722.041 461.48 724.064 461.48C726.074 461.48 727.428 463.012 727.428 465.322C727.428 467.633 726.074 469.15 724.064 469.15ZM724.064 468.111C725.555 468.111 726.252 466.799 726.252 465.322C726.252 463.846 725.555 462.52 724.064 462.52C722.547 462.52 721.85 463.846 721.85 465.322C721.85 466.799 722.547 468.111 724.064 468.111ZM730.148 464.543V469H728.973V461.576H730.107V462.738H730.203C730.559 461.986 731.242 461.48 732.377 461.48C733.881 461.48 734.879 462.396 734.879 464.283V469H733.703V464.365C733.703 463.217 733.074 462.533 732.021 462.533C730.941 462.533 730.148 463.258 730.148 464.543Z" fill="var(--sol-element-primary)"/>
<path d="M52.2793 555H48.916V545.102H52.334C55.2871 545.102 57.0781 546.961 57.0781 550.037C57.0781 553.127 55.2871 555 52.2793 555ZM50.6934 553.455H52.1836C54.248 553.455 55.3008 552.32 55.3008 550.037C55.3008 547.768 54.248 546.646 52.2383 546.646H50.6934V553.455ZM58.5684 555V547.576H60.3184V555H58.5684ZM59.457 546.523C58.9102 546.523 58.4453 546.1 58.4453 545.566C58.4453 545.047 58.9102 544.623 59.457 544.623C60.0176 544.623 60.4688 545.047 60.4688 545.566C60.4688 546.1 60.0176 546.523 59.457 546.523ZM66.1973 549.695C66.0879 549.135 65.623 548.779 64.8848 548.779C64.1328 548.779 63.5859 549.148 63.5996 549.654C63.5859 550.037 63.9004 550.324 64.6523 550.502L65.9102 550.762C67.3184 551.076 67.9883 551.719 68.002 552.785C67.9883 554.18 66.7715 555.15 64.8301 555.15C62.9434 555.15 61.8223 554.303 61.6445 552.881H63.4219C63.5312 553.51 64.0234 553.824 64.8301 553.824C65.6641 553.824 66.2246 553.482 66.2246 552.936C66.2246 552.512 65.8828 552.238 65.1445 552.074L63.9551 551.814C62.5742 551.541 61.8633 550.816 61.8633 549.75C61.8633 548.383 63.0391 547.48 64.8574 547.48C66.6348 547.48 67.7285 548.342 67.8516 549.695H66.1973ZM68.9863 552.908C68.9863 551.24 70.3672 550.748 71.748 550.666C72.2607 550.632 73.3271 550.57 73.6484 550.557V549.969C73.6484 549.23 73.1699 548.807 72.3086 548.807C71.5293 548.807 71.0508 549.162 70.9141 549.695H69.2324C69.3555 548.438 70.4902 547.48 72.3496 547.48C73.7578 547.48 75.3848 548.055 75.3848 550.037V555H73.7168V553.975H73.6621C73.334 554.604 72.6367 555.15 71.4746 555.15C70.0527 555.15 68.9863 554.371 68.9863 552.908ZM70.668 552.895C70.668 553.537 71.1875 553.865 71.9258 553.865C72.9785 553.865 73.6621 553.168 73.6621 552.334V551.719L72.0215 551.828C71.1875 551.896 70.668 552.238 70.668 552.895ZM77.1074 555V545.102H78.8574V548.793H78.9258C79.1992 548.26 79.7324 547.48 81.0449 547.48C82.7676 547.48 84.1211 548.82 84.1211 551.295C84.1211 553.742 82.7949 555.137 81.0586 555.137C79.7734 555.137 79.1992 554.371 78.9258 553.824H78.8164V555H77.1074ZM78.8164 551.281C78.8164 552.73 79.4453 553.701 80.5664 553.701C81.7285 553.701 82.3438 552.689 82.3438 551.281C82.3438 549.9 81.7422 548.902 80.5664 548.902C79.4453 548.902 78.8164 549.846 78.8164 551.281ZM87.2383 545.102V555H85.4883V545.102H87.2383ZM92.2012 555.15C89.959 555.15 88.5918 553.66 88.5918 551.336C88.5918 549.039 89.9863 547.48 92.1055 547.48C93.9238 547.48 95.4961 548.615 95.4961 551.227V551.773H90.3145C90.335 553.038 91.0801 553.783 92.2148 553.783C92.9805 553.783 93.5 553.455 93.7188 553.018H95.4277C95.1133 554.303 93.9238 555.15 92.2012 555.15ZM90.3281 550.584H93.8281C93.8145 549.572 93.1445 548.834 92.1328 548.834C91.0801 548.834 90.3828 549.634 90.3281 550.584ZM99.6113 555.137C97.8613 555.137 96.5488 553.742 96.5488 551.295C96.5488 548.82 97.9023 547.48 99.625 547.48C100.938 547.48 101.484 548.26 101.744 548.793H101.812V545.102H103.549V555H101.84V553.824H101.744C101.471 554.371 100.896 555.137 99.6113 555.137ZM100.09 553.701C101.211 553.701 101.854 552.73 101.854 551.281C101.854 549.846 101.225 548.902 100.09 548.902C98.9277 548.902 98.3262 549.9 98.3262 551.281C98.3262 552.689 98.9414 553.701 100.09 553.701Z" fill="var(--sol-element-quaternary)"/>
<path d="M231.334 539.001C231.334 538.08 232.08 537.334 233.001 537.334H243.001C243.921 537.334 244.667 538.08 244.667 539.001V549.001C244.667 549.921 243.921 550.667 243.001 550.667H233.001C232.08 550.667 231.334 549.921 231.334 549.001V539.001Z" fill="var(--sol-element-primary)" fill-opacity="0.08"/>
<path d="M233.001 537.834H243.001C243.645 537.834 244.167 538.357 244.167 539.001V549.001C244.167 549.645 243.645 550.167 243.001 550.167H233.001C232.357 550.167 231.834 549.645 231.834 549.001V539.001C231.834 538.357 232.357 537.834 233.001 537.834Z" stroke="var(--sol-element-primary)" stroke-opacity="0.04"/>
<path d="M263.461 544.051C263.461 547.182 261.615 549.137 259.086 549.137C256.543 549.137 254.711 547.182 254.711 544.051C254.711 540.92 256.543 538.965 259.086 538.965C261.615 538.965 263.461 540.92 263.461 544.051ZM262.271 544.051C262.271 541.494 260.877 540.113 259.086 540.113C257.295 540.113 255.9 541.494 255.9 544.051C255.9 546.607 257.295 547.988 259.086 547.988C260.877 547.988 262.271 546.607 262.271 544.051ZM265.115 551.789V541.576H266.25V542.752H266.387C266.633 542.355 267.098 541.48 268.533 541.48C270.393 541.48 271.691 542.957 271.691 545.309C271.691 547.66 270.393 549.15 268.547 549.15C267.125 549.15 266.633 548.275 266.387 547.865H266.291V551.789H265.115ZM266.264 545.281C266.264 546.949 267.016 548.098 268.383 548.098C269.791 548.098 270.516 546.867 270.516 545.281C270.516 543.736 269.805 542.533 268.383 542.533C266.988 542.533 266.264 543.641 266.264 545.281ZM276.463 541.576V542.561H274.904V546.867C274.904 547.824 275.369 547.975 275.875 547.975C276.094 547.975 276.395 547.961 276.572 547.947V549.041C276.395 549.068 276.094 549.096 275.752 549.096C274.768 549.096 273.715 548.48 273.715 547.168V542.561H272.594V541.576H273.715V539.799H274.904V541.576H276.463ZM277.98 549V541.576H279.156V549H277.98ZM278.568 540.346C278.117 540.346 277.748 540.004 277.748 539.566C277.748 539.129 278.117 538.787 278.568 538.787C279.02 538.787 279.402 539.129 279.402 539.566C279.402 540.004 279.02 540.346 278.568 540.346ZM284.064 549.15C282.041 549.15 280.674 547.633 280.674 545.322C280.674 543.012 282.041 541.48 284.064 541.48C286.074 541.48 287.428 543.012 287.428 545.322C287.428 547.633 286.074 549.15 284.064 549.15ZM284.064 548.111C285.555 548.111 286.252 546.799 286.252 545.322C286.252 543.846 285.555 542.52 284.064 542.52C282.547 542.52 281.85 543.846 281.85 545.322C281.85 546.799 282.547 548.111 284.064 548.111ZM290.148 544.543V549H288.973V541.576H290.107V542.738H290.203C290.559 541.986 291.242 541.48 292.377 541.48C293.881 541.48 294.879 542.396 294.879 544.283V549H293.703V544.365C293.703 543.217 293.074 542.533 292.021 542.533C290.941 542.533 290.148 543.258 290.148 544.543Z" fill="var(--sol-element-primary)"/>
<g clip-path="url(#clip14_1670_175480)">
<path d="M451.334 539.334C451.334 538.229 452.229 537.334 453.334 537.334H462.667C463.772 537.334 464.667 538.229 464.667 539.334V548.667C464.667 549.772 463.772 550.667 462.667 550.667H453.334C452.229 550.667 451.334 549.772 451.334 548.667V539.334Z" fill="var(--sol-element-primary)" fill-opacity="0.08"/>
<path d="M463.046 541.269L456.881 547.434C456.636 547.678 456.241 547.679 455.997 547.434L452.953 544.391L453.837 543.507L456.438 546.109L462.163 540.385L463.046 541.269Z" fill="var(--sol-element-primary)" fill-opacity="0.3"/>
</g>
<path d="M483.461 544.051C483.461 547.182 481.615 549.137 479.086 549.137C476.543 549.137 474.711 547.182 474.711 544.051C474.711 540.92 476.543 538.965 479.086 538.965C481.615 538.965 483.461 540.92 483.461 544.051ZM482.271 544.051C482.271 541.494 480.877 540.113 479.086 540.113C477.295 540.113 475.9 541.494 475.9 544.051C475.9 546.607 477.295 547.988 479.086 547.988C480.877 547.988 482.271 546.607 482.271 544.051ZM485.115 551.789V541.576H486.25V542.752H486.387C486.633 542.355 487.098 541.48 488.533 541.48C490.393 541.48 491.691 542.957 491.691 545.309C491.691 547.66 490.393 549.15 488.547 549.15C487.125 549.15 486.633 548.275 486.387 547.865H486.291V551.789H485.115ZM486.264 545.281C486.264 546.949 487.016 548.098 488.383 548.098C489.791 548.098 490.516 546.867 490.516 545.281C490.516 543.736 489.805 542.533 488.383 542.533C486.988 542.533 486.264 543.641 486.264 545.281ZM496.463 541.576V542.561H494.904V546.867C494.904 547.824 495.369 547.975 495.875 547.975C496.094 547.975 496.395 547.961 496.572 547.947V549.041C496.395 549.068 496.094 549.096 495.752 549.096C494.768 549.096 493.715 548.48 493.715 547.168V542.561H492.594V541.576H493.715V539.799H494.904V541.576H496.463ZM497.98 549V541.576H499.156V549H497.98ZM498.568 540.346C498.117 540.346 497.748 540.004 497.748 539.566C497.748 539.129 498.117 538.787 498.568 538.787C499.02 538.787 499.402 539.129 499.402 539.566C499.402 540.004 499.02 540.346 498.568 540.346ZM504.064 549.15C502.041 549.15 500.674 547.633 500.674 545.322C500.674 543.012 502.041 541.48 504.064 541.48C506.074 541.48 507.428 543.012 507.428 545.322C507.428 547.633 506.074 549.15 504.064 549.15ZM504.064 548.111C505.555 548.111 506.252 546.799 506.252 545.322C506.252 543.846 505.555 542.52 504.064 542.52C502.547 542.52 501.85 543.846 501.85 545.322C501.85 546.799 502.547 548.111 504.064 548.111ZM510.148 544.543V549H508.973V541.576H510.107V542.738H510.203C510.559 541.986 511.242 541.48 512.377 541.48C513.881 541.48 514.879 542.396 514.879 544.283V549H513.703V544.365C513.703 543.217 513.074 542.533 512.021 542.533C510.941 542.533 510.148 543.258 510.148 544.543Z" fill="var(--sol-element-primary)"/>
<g clip-path="url(#clip15_1670_175480)">
<path d="M671.334 539.334C671.334 538.229 672.229 537.334 673.334 537.334H682.667C683.772 537.334 684.667 538.229 684.667 539.334V548.667C684.667 549.772 683.772 550.667 682.667 550.667H673.334C672.229 550.667 671.334 549.772 671.334 548.667V539.334Z" fill="var(--sol-element-primary)" fill-opacity="0.08"/>
<path d="M682.792 543.375V544.625H673.209V543.375H682.792Z" fill="var(--sol-element-primary)" fill-opacity="0.3"/>
</g>
<path d="M703.461 544.051C703.461 547.182 701.615 549.137 699.086 549.137C696.543 549.137 694.711 547.182 694.711 544.051C694.711 540.92 696.543 538.965 699.086 538.965C701.615 538.965 703.461 540.92 703.461 544.051ZM702.271 544.051C702.271 541.494 700.877 540.113 699.086 540.113C697.295 540.113 695.9 541.494 695.9 544.051C695.9 546.607 697.295 547.988 699.086 547.988C700.877 547.988 702.271 546.607 702.271 544.051ZM705.115 551.789V541.576H706.25V542.752H706.387C706.633 542.355 707.098 541.48 708.533 541.48C710.393 541.48 711.691 542.957 711.691 545.309C711.691 547.66 710.393 549.15 708.547 549.15C707.125 549.15 706.633 548.275 706.387 547.865H706.291V551.789H705.115ZM706.264 545.281C706.264 546.949 707.016 548.098 708.383 548.098C709.791 548.098 710.516 546.867 710.516 545.281C710.516 543.736 709.805 542.533 708.383 542.533C706.988 542.533 706.264 543.641 706.264 545.281ZM716.463 541.576V542.561H714.904V546.867C714.904 547.824 715.369 547.975 715.875 547.975C716.094 547.975 716.395 547.961 716.572 547.947V549.041C716.395 549.068 716.094 549.096 715.752 549.096C714.768 549.096 713.715 548.48 713.715 547.168V542.561H712.594V541.576H713.715V539.799H714.904V541.576H716.463ZM717.98 549V541.576H719.156V549H717.98ZM718.568 540.346C718.117 540.346 717.748 540.004 717.748 539.566C717.748 539.129 718.117 538.787 718.568 538.787C719.02 538.787 719.402 539.129 719.402 539.566C719.402 540.004 719.02 540.346 718.568 540.346ZM724.064 549.15C722.041 549.15 720.674 547.633 720.674 545.322C720.674 543.012 722.041 541.48 724.064 541.48C726.074 541.48 727.428 543.012 727.428 545.322C727.428 547.633 726.074 549.15 724.064 549.15ZM724.064 548.111C725.555 548.111 726.252 546.799 726.252 545.322C726.252 543.846 725.555 542.52 724.064 542.52C722.547 542.52 721.85 543.846 721.85 545.322C721.85 546.799 722.547 548.111 724.064 548.111ZM730.148 544.543V549H728.973V541.576H730.107V542.738H730.203C730.559 541.986 731.242 541.48 732.377 541.48C733.881 541.48 734.879 542.396 734.879 544.283V549H733.703V544.365C733.703 543.217 733.074 542.533 732.021 542.533C730.941 542.533 730.148 543.258 730.148 544.543Z" fill="var(--sol-element-primary)"/>
<defs>
<filter id="filter0_dd_1670_175480" x="227.334" y="293.334" width="21.334" height="21.334" filterUnits="userSpaceOnUse" color-interpolation-filters="sRGB">
<feFlood flood-opacity="0" result="BackgroundImageFix"/>
<feColorMatrix in="SourceAlpha" type="matrix" values="0 0 0 0 0 0 0 0 0 0 0 0 0 0 0 0 0 0 127 0" result="hardAlpha"/>
<feMorphology radius="4" operator="dilate" in="SourceAlpha" result="effect1_dropShadow_1670_175480"/>
<feOffset/>
<feComposite in2="hardAlpha" operator="out"/>
<feColorMatrix type="matrix" values="0 0 0 0 0.156863 0 0 0 0 0.137255 0 0 0 0 0.388235 0 0 0 1 0"/>
<feBlend mode="normal" in2="BackgroundImageFix" result="effect1_dropShadow_1670_175480"/>
<feColorMatrix in="SourceAlpha" type="matrix" values="0 0 0 0 0 0 0 0 0 0 0 0 0 0 0 0 0 0 127 0" result="hardAlpha"/>
<feMorphology radius="2" operator="dilate" in="SourceAlpha" result="effect2_dropShadow_1670_175480"/>
<feOffset/>
<feComposite in2="hardAlpha" operator="out"/>
<feColorMatrix type="matrix" values="0 0 0 0 1 0 0 0 0 1 0 0 0 0 1 0 0 0 1 0"/>
<feBlend mode="normal" in2="effect1_dropShadow_1670_175480" result="effect2_dropShadow_1670_175480"/>
<feBlend mode="normal" in="SourceGraphic" in2="effect2_dropShadow_1670_175480" result="shape"/>
</filter>
<filter id="filter1_dd_1670_175480" x="447.334" y="293.334" width="21.334" height="21.334" filterUnits="userSpaceOnUse" color-interpolation-filters="sRGB">
<feFlood flood-opacity="0" result="BackgroundImageFix"/>
<feColorMatrix in="SourceAlpha" type="matrix" values="0 0 0 0 0 0 0 0 0 0 0 0 0 0 0 0 0 0 127 0" result="hardAlpha"/>
<feMorphology radius="4" operator="dilate" in="SourceAlpha" result="effect1_dropShadow_1670_175480"/>
<feOffset/>
<feComposite in2="hardAlpha" operator="out"/>
<feColorMatrix type="matrix" values="0 0 0 0 0.156863 0 0 0 0 0.137255 0 0 0 0 0.388235 0 0 0 1 0"/>
<feBlend mode="normal" in2="BackgroundImageFix" result="effect1_dropShadow_1670_175480"/>
<feColorMatrix in="SourceAlpha" type="matrix" values="0 0 0 0 0 0 0 0 0 0 0 0 0 0 0 0 0 0 127 0" result="hardAlpha"/>
<feMorphology radius="2" operator="dilate" in="SourceAlpha" result="effect2_dropShadow_1670_175480"/>
<feOffset/>
<feComposite in2="hardAlpha" operator="out"/>
<feColorMatrix type="matrix" values="0 0 0 0 1 0 0 0 0 1 0 0 0 0 1 0 0 0 1 0"/>
<feBlend mode="normal" in2="effect1_dropShadow_1670_175480" result="effect2_dropShadow_1670_175480"/>
<feBlend mode="normal" in="SourceGraphic" in2="effect2_dropShadow_1670_175480" result="shape"/>
</filter>
<filter id="filter2_dd_1670_175480" x="666" y="292" width="24" height="24" filterUnits="userSpaceOnUse" color-interpolation-filters="sRGB">
<feFlood flood-opacity="0" result="BackgroundImageFix"/>
<feColorMatrix in="SourceAlpha" type="matrix" values="0 0 0 0 0 0 0 0 0 0 0 0 0 0 0 0 0 0 127 0" result="hardAlpha"/>
<feMorphology radius="4" operator="dilate" in="SourceAlpha" result="effect1_dropShadow_1670_175480"/>
<feOffset/>
<feComposite in2="hardAlpha" operator="out"/>
<feColorMatrix type="matrix" values="0 0 0 0 0.156863 0 0 0 0 0.137255 0 0 0 0 0.388235 0 0 0 1 0"/>
<feBlend mode="normal" in2="BackgroundImageFix" result="effect1_dropShadow_1670_175480"/>
<feColorMatrix in="SourceAlpha" type="matrix" values="0 0 0 0 0 0 0 0 0 0 0 0 0 0 0 0 0 0 127 0" result="hardAlpha"/>
<feMorphology radius="2" operator="dilate" in="SourceAlpha" result="effect2_dropShadow_1670_175480"/>
<feOffset/>
<feComposite in2="hardAlpha" operator="out"/>
<feColorMatrix type="matrix" values="0 0 0 0 1 0 0 0 0 1 0 0 0 0 1 0 0 0 1 0"/>
<feBlend mode="normal" in2="effect1_dropShadow_1670_175480" result="effect2_dropShadow_1670_175480"/>
<feBlend mode="normal" in="SourceGraphic" in2="effect2_dropShadow_1670_175480" result="shape"/>
</filter>
<clipPath id="clip0_1670_175480">
<path d="M451.334 59.334C451.334 58.2294 452.229 57.334 453.334 57.334H462.667C463.772 57.334 464.667 58.2294 464.667 59.334V68.6673C464.667 69.7719 463.772 70.6673 462.667 70.6673H453.334C452.229 70.6673 451.334 69.7719 451.334 68.6673V59.334Z" fill="var(--sol-surface)"/>
</clipPath>
<clipPath id="clip1_1670_175480">
<path d="M671.334 59.334C671.334 58.2294 672.229 57.334 673.334 57.334H682.667C683.772 57.334 684.667 58.2294 684.667 59.334V68.6673C684.667 69.7719 683.772 70.6673 682.667 70.6673H673.334C672.229 70.6673 671.334 69.7719 671.334 68.6673V59.334Z" fill="var(--sol-surface)"/>
</clipPath>
<clipPath id="clip2_1670_175480">
<path d="M451.334 139.334C451.334 138.229 452.229 137.334 453.334 137.334H462.667C463.772 137.334 464.667 138.229 464.667 139.334V148.667C464.667 149.772 463.772 150.667 462.667 150.667H453.334C452.229 150.667 451.334 149.772 451.334 148.667V139.334Z" fill="var(--sol-surface)"/>
</clipPath>
<clipPath id="clip3_1670_175480">
<path d="M671.334 139.334C671.334 138.229 672.229 137.334 673.334 137.334H682.667C683.772 137.334 684.667 138.229 684.667 139.334V148.667C684.667 149.772 683.772 150.667 682.667 150.667H673.334C672.229 150.667 671.334 149.772 671.334 148.667V139.334Z" fill="var(--sol-surface)"/>
</clipPath>
<clipPath id="clip4_1670_175480">
<path d="M451.334 219.334C451.334 218.229 452.229 217.334 453.334 217.334H462.667C463.772 217.334 464.667 218.229 464.667 219.334V228.667C464.667 229.772 463.772 230.667 462.667 230.667H453.334C452.229 230.667 451.334 229.772 451.334 228.667V219.334Z" fill="var(--sol-surface)"/>
</clipPath>
<clipPath id="clip5_1670_175480">
<path d="M671.334 219.334C671.334 218.229 672.229 217.334 673.334 217.334H682.667C683.772 217.334 684.667 218.229 684.667 219.334V228.667C684.667 229.772 683.772 230.667 682.667 230.667H673.334C672.229 230.667 671.334 229.772 671.334 228.667V219.334Z" fill="var(--sol-surface)"/>
</clipPath>
<clipPath id="clip6_1670_175480">
<path d="M231.334 299.334C231.334 298.229 232.229 297.334 233.334 297.334H242.667C243.772 297.334 244.667 298.229 244.667 299.334V308.667C244.667 309.772 243.772 310.667 242.667 310.667H233.334C232.229 310.667 231.334 309.772 231.334 308.667V299.334Z" fill="var(--sol-surface)"/>
</clipPath>
<clipPath id="clip7_1670_175480">
<path d="M451.334 299.334C451.334 298.229 452.229 297.334 453.334 297.334H462.667C463.772 297.334 464.667 298.229 464.667 299.334V308.667C464.667 309.772 463.772 310.667 462.667 310.667H453.334C452.229 310.667 451.334 309.772 451.334 308.667V299.334Z" fill="var(--sol-surface)"/>
</clipPath>
<clipPath id="clip8_1670_175480">
<path d="M670 298C670 296.895 670.895 296 672 296H684C685.105 296 686 296.895 686 298V310C686 311.105 685.105 312 684 312H672C670.895 312 670 311.105 670 310V298Z" fill="var(--sol-surface)"/>
</clipPath>
<clipPath id="clip9_1670_175480">
<rect width="13.3333" height="13.3333" fill="var(--sol-surface)" transform="translate(231.334 377.334)"/>
</clipPath>
<clipPath id="clip10_1670_175480">
<path d="M451.334 379.334C451.334 378.229 452.229 377.334 453.334 377.334H462.667C463.772 377.334 464.667 378.229 464.667 379.334V388.667C464.667 389.772 463.772 390.667 462.667 390.667H453.334C452.229 390.667 451.334 389.772 451.334 388.667V379.334Z" fill="var(--sol-surface)"/>
</clipPath>
<clipPath id="clip11_1670_175480">
<path d="M671.334 379.334C671.334 378.229 672.229 377.334 673.334 377.334H682.667C683.772 377.334 684.667 378.229 684.667 379.334V388.667C684.667 389.772 683.772 390.667 682.667 390.667H673.334C672.229 390.667 671.334 389.772 671.334 388.667V379.334Z" fill="var(--sol-surface)"/>
</clipPath>
<clipPath id="clip12_1670_175480">
<path d="M451.334 459.334C451.334 458.229 452.229 457.334 453.334 457.334H462.667C463.772 457.334 464.667 458.229 464.667 459.334V468.667C464.667 469.772 463.772 470.667 462.667 470.667H453.334C452.229 470.667 451.334 469.772 451.334 468.667V459.334Z" fill="var(--sol-surface)"/>
</clipPath>
<clipPath id="clip13_1670_175480">
<path d="M671.334 459.334C671.334 458.229 672.229 457.334 673.334 457.334H682.667C683.772 457.334 684.667 458.229 684.667 459.334V468.667C684.667 469.772 683.772 470.667 682.667 470.667H673.334C672.229 470.667 671.334 469.772 671.334 468.667V459.334Z" fill="var(--sol-surface)"/>
</clipPath>
<clipPath id="clip14_1670_175480">
<path d="M451.334 539.334C451.334 538.229 452.229 537.334 453.334 537.334H462.667C463.772 537.334 464.667 538.229 464.667 539.334V548.667C464.667 549.772 463.772 550.667 462.667 550.667H453.334C452.229 550.667 451.334 549.772 451.334 548.667V539.334Z" fill="var(--sol-surface)"/>
</clipPath>
<clipPath id="clip15_1670_175480">
<path d="M671.334 539.334C671.334 538.229 672.229 537.334 673.334 537.334H682.667C683.772 537.334 684.667 538.229 684.667 539.334V548.667C684.667 549.772 683.772 550.667 682.667 550.667H673.334C672.229 550.667 671.334 549.772 671.334 548.667V539.334Z" fill="var(--sol-surface)"/>
</clipPath>
</defs>
</svg>
