<svg width="442" height="172" viewBox="0 0 442 172" fill="none" xmlns="http://www.w3.org/2000/svg">
<style>
:root {
  --sol-element-primary: #161616;
  --sol-element-tertiary: #636363;
  --sol-element-quaternary: #858585;
  --sol-fill-active: #4d469a;
  --sol-surface: #ffffff;
  --sol-error: #e76067;
  --sol-error-dim: #b84451;
  --sol-static-white: #ffffff;
  --sol-static-black: #000000;
}
@media (prefers-color-scheme: dark) {
  :root {
    --sol-element-primary: #ffffff;
    --sol-element-tertiary: rgba(255, 255, 255, 0.6);
    --sol-element-quaternary: rgba(255, 255, 255, 0.5);
    --sol-fill-active: #7b74c4;
    --sol-surface: #161616;
    --sol-error: #ee7a80;
    --sol-error-dim: #e76067;
  }
}
</style>
<path d="M155.848 32.1914C155.424 30.9199 154.453 30.1133 153.045 30.1133C151.295 30.1133 149.9 31.4941 149.9 34.0508C149.9 36.6074 151.295 37.9883 153.127 37.9883C154.802 37.9883 155.943 36.8672 155.971 35.1172H153.387V34.0371H157.174V35.1035C157.174 37.5645 155.479 39.1367 153.127 39.1367C150.488 39.1367 148.711 37.1816 148.711 34.0508C148.711 30.9199 150.502 28.9648 153.045 28.9648C155.137 28.9648 156.75 30.2773 157.119 32.1914H155.848ZM158.869 39V31.5762H160.004V32.7109H160.086C160.359 31.959 161.125 31.4531 162 31.4531C162.178 31.4531 162.479 31.4668 162.615 31.4805V32.6699C162.533 32.6426 162.205 32.5879 161.904 32.5879C160.838 32.5879 160.045 33.3262 160.045 34.3242V39H158.869ZM166.566 39.1504C164.543 39.1504 163.176 37.6328 163.176 35.3223C163.176 33.0117 164.543 31.4805 166.566 31.4805C168.576 31.4805 169.93 33.0117 169.93 35.3223C169.93 37.6328 168.576 39.1504 166.566 39.1504ZM166.566 38.1113C168.057 38.1113 168.754 36.7988 168.754 35.3223C168.754 33.8457 168.057 32.5195 166.566 32.5195C165.049 32.5195 164.352 33.8457 164.352 35.3223C164.352 36.7988 165.049 38.1113 166.566 38.1113ZM176.164 35.9512V31.5762H177.326V39H176.164V37.7422H176.082C175.727 38.4941 175.002 39.0957 173.881 39.0957C172.473 39.0957 171.475 38.1797 171.475 36.293V31.5762H172.65V36.2109C172.65 37.2773 173.32 37.9609 174.264 37.9609C175.098 37.9609 176.164 37.332 176.164 35.9512ZM179.213 41.7891V31.5762H180.348V32.752H180.484C180.73 32.3555 181.195 31.4805 182.631 31.4805C184.49 31.4805 185.789 32.957 185.789 35.3086C185.789 37.6602 184.49 39.1504 182.645 39.1504C181.223 39.1504 180.73 38.2754 180.484 37.8652H180.389V41.7891H179.213ZM180.361 35.2812C180.361 36.9492 181.113 38.0977 182.48 38.0977C183.889 38.0977 184.613 36.8672 184.613 35.2812C184.613 33.7363 183.902 32.5332 182.48 32.5332C181.086 32.5332 180.361 33.6406 180.361 35.2812ZM192.01 29.1016V39H190.834V29.1016H192.01ZM193.527 36.8945C193.527 35.1855 195.031 34.8027 196.316 34.707C196.788 34.6729 197.991 34.6113 198.326 34.5977V33.9961C198.326 33.0527 197.766 32.5059 196.645 32.5059C195.701 32.5059 195.141 32.9434 194.977 33.5039H193.746C193.896 32.3145 195.059 31.4805 196.699 31.4805C197.67 31.4805 199.488 31.7676 199.488 34.1055V39H198.326V37.9883H198.271C198.025 38.4941 197.342 39.1777 196.057 39.1777C194.648 39.1777 193.527 38.3438 193.527 36.8945ZM194.703 36.9492C194.703 37.7285 195.359 38.125 196.262 38.125C197.588 38.125 198.326 37.2363 198.326 36.3066V35.5547L196.453 35.6914C195.387 35.7598 194.703 36.1426 194.703 36.9492ZM201.525 39V29.1016H202.701V32.752H202.797C203.057 32.3555 203.494 31.4805 204.943 31.4805C206.803 31.4805 208.115 32.957 208.115 35.3086C208.115 37.6602 206.803 39.1504 204.957 39.1504C203.535 39.1504 203.057 38.2754 202.797 37.8652H202.66V39H201.525ZM202.674 35.2812C202.674 36.9492 203.426 38.0977 204.779 38.0977C206.188 38.0977 206.926 36.8672 206.926 35.2812C206.926 33.7363 206.215 32.5332 204.779 32.5332C203.412 32.5332 202.674 33.6406 202.674 35.2812ZM212.764 39.1504C210.617 39.1504 209.291 37.6328 209.291 35.3496C209.291 33.0664 210.631 31.4805 212.654 31.4805C214.213 31.4805 215.854 32.4375 215.854 35.1855V35.6777H210.467C210.521 37.25 211.438 38.1113 212.764 38.1113C213.652 38.1113 214.213 37.7285 214.486 37.2637H215.744C215.389 38.3848 214.295 39.1504 212.764 39.1504ZM210.48 34.6797H214.664C214.664 33.4355 213.871 32.5195 212.654 32.5195C211.369 32.5195 210.549 33.5312 210.48 34.6797ZM218.561 29.1016V39H217.385V29.1016H218.561Z" fill="var(--sol-element-tertiary)"/>
<g clip-path="url(#clip0_1670_175851)">
<path d="M151.334 63.333C151.334 62.2284 152.229 61.333 153.334 61.333H162.667C163.772 61.333 164.667 62.2284 164.667 63.333V72.6663C164.667 73.7709 163.772 74.6663 162.667 74.6663H153.334C152.229 74.6663 151.334 73.7709 151.334 72.6663V63.333Z" fill="var(--sol-fill-active)"/>
<path d="M162.792 67.375V68.625H153.209V67.375H162.792Z" fill="var(--sol-surface)"/>
</g>
<path d="M175.531 73H174.246L177.869 63.1016H179.168L182.791 73H181.492L180.508 70.2109H176.529L175.531 73ZM176.898 69.1309H180.125L178.553 64.7012H178.471L176.898 69.1309ZM185.156 63.1016V73H183.98V63.1016H185.156ZM188.205 63.1016V73H187.029V63.1016H188.205Z" fill="var(--sol-element-primary)"/>
<path d="M177.001 93.833H187.001C187.645 93.8332 188.167 94.3558 188.167 95V105C188.167 105.644 187.645 106.166 187.001 106.166H177.001C176.357 106.166 175.834 105.644 175.834 105V95C175.834 94.3557 176.357 93.833 177.001 93.833Z" stroke="var(--sol-element-primary)" stroke-opacity="0.16"/>
<path d="M207.461 100.051C207.461 103.182 205.615 105.137 203.086 105.137C200.543 105.137 198.711 103.182 198.711 100.051C198.711 96.9199 200.543 94.9648 203.086 94.9648C205.615 94.9648 207.461 96.9199 207.461 100.051ZM206.271 100.051C206.271 97.4941 204.877 96.1133 203.086 96.1133C201.295 96.1133 199.9 97.4941 199.9 100.051C199.9 102.607 201.295 103.988 203.086 103.988C204.877 103.988 206.271 102.607 206.271 100.051ZM209.115 107.789V97.5762H210.25V98.752H210.387C210.633 98.3555 211.098 97.4805 212.533 97.4805C214.393 97.4805 215.691 98.957 215.691 101.309C215.691 103.66 214.393 105.15 212.547 105.15C211.125 105.15 210.633 104.275 210.387 103.865H210.291V107.789H209.115ZM210.264 101.281C210.264 102.949 211.016 104.098 212.383 104.098C213.791 104.098 214.516 102.867 214.516 101.281C214.516 99.7363 213.805 98.5332 212.383 98.5332C210.988 98.5332 210.264 99.6406 210.264 101.281ZM220.463 97.5762V98.5605H218.904V102.867C218.904 103.824 219.369 103.975 219.875 103.975C220.094 103.975 220.395 103.961 220.572 103.947V105.041C220.395 105.068 220.094 105.096 219.752 105.096C218.768 105.096 217.715 104.48 217.715 103.168V98.5605H216.594V97.5762H217.715V95.7988H218.904V97.5762H220.463ZM221.98 105V97.5762H223.156V105H221.98ZM222.568 96.3457C222.117 96.3457 221.748 96.0039 221.748 95.5664C221.748 95.1289 222.117 94.7871 222.568 94.7871C223.02 94.7871 223.402 95.1289 223.402 95.5664C223.402 96.0039 223.02 96.3457 222.568 96.3457ZM228.064 105.15C226.041 105.15 224.674 103.633 224.674 101.322C224.674 99.0117 226.041 97.4805 228.064 97.4805C230.074 97.4805 231.428 99.0117 231.428 101.322C231.428 103.633 230.074 105.15 228.064 105.15ZM228.064 104.111C229.555 104.111 230.252 102.799 230.252 101.322C230.252 99.8457 229.555 98.5195 228.064 98.5195C226.547 98.5195 225.85 99.8457 225.85 101.322C225.85 102.799 226.547 104.111 228.064 104.111ZM234.148 100.543V105H232.973V97.5762H234.107V98.7383H234.203C234.559 97.9863 235.242 97.4805 236.377 97.4805C237.881 97.4805 238.879 98.3965 238.879 100.283V105H237.703V100.365C237.703 99.2168 237.074 98.5332 236.021 98.5332C234.941 98.5332 234.148 99.2578 234.148 100.543Z" fill="var(--sol-element-primary)"/>
<g clip-path="url(#clip1_1670_175851)">
<path d="M175.334 127.333C175.334 126.228 176.229 125.333 177.334 125.333H186.667C187.772 125.333 188.667 126.228 188.667 127.333V136.666C188.667 137.771 187.772 138.666 186.667 138.666H177.334C176.229 138.666 175.334 137.771 175.334 136.666V127.333Z" fill="var(--sol-fill-active)"/>
<path d="M187.046 129.268L180.881 135.433C180.636 135.677 180.241 135.678 179.997 135.433L176.953 132.39L177.837 131.506L180.438 134.108L186.163 128.384L187.046 129.268Z" fill="var(--sol-surface)"/>
</g>
<path d="M207.461 132.051C207.461 135.182 205.615 137.137 203.086 137.137C200.543 137.137 198.711 135.182 198.711 132.051C198.711 128.92 200.543 126.965 203.086 126.965C205.615 126.965 207.461 128.92 207.461 132.051ZM206.271 132.051C206.271 129.494 204.877 128.113 203.086 128.113C201.295 128.113 199.9 129.494 199.9 132.051C199.9 134.607 201.295 135.988 203.086 135.988C204.877 135.988 206.271 134.607 206.271 132.051ZM209.115 139.789V129.576H210.25V130.752H210.387C210.633 130.355 211.098 129.48 212.533 129.48C214.393 129.48 215.691 130.957 215.691 133.309C215.691 135.66 214.393 137.15 212.547 137.15C211.125 137.15 210.633 136.275 210.387 135.865H210.291V139.789H209.115ZM210.264 133.281C210.264 134.949 211.016 136.098 212.383 136.098C213.791 136.098 214.516 134.867 214.516 133.281C214.516 131.736 213.805 130.533 212.383 130.533C210.988 130.533 210.264 131.641 210.264 133.281ZM220.463 129.576V130.561H218.904V134.867C218.904 135.824 219.369 135.975 219.875 135.975C220.094 135.975 220.395 135.961 220.572 135.947V137.041C220.395 137.068 220.094 137.096 219.752 137.096C218.768 137.096 217.715 136.48 217.715 135.168V130.561H216.594V129.576H217.715V127.799H218.904V129.576H220.463ZM221.98 137V129.576H223.156V137H221.98ZM222.568 128.346C222.117 128.346 221.748 128.004 221.748 127.566C221.748 127.129 222.117 126.787 222.568 126.787C223.02 126.787 223.402 127.129 223.402 127.566C223.402 128.004 223.02 128.346 222.568 128.346ZM228.064 137.15C226.041 137.15 224.674 135.633 224.674 133.322C224.674 131.012 226.041 129.48 228.064 129.48C230.074 129.48 231.428 131.012 231.428 133.322C231.428 135.633 230.074 137.15 228.064 137.15ZM228.064 136.111C229.555 136.111 230.252 134.799 230.252 133.322C230.252 131.846 229.555 130.52 228.064 130.52C226.547 130.52 225.85 131.846 225.85 133.322C225.85 134.799 226.547 136.111 228.064 136.111ZM234.148 132.543V137H232.973V129.576H234.107V130.738H234.203C234.559 129.986 235.242 129.48 236.377 129.48C237.881 129.48 238.879 130.396 238.879 132.283V137H237.703V132.365C237.703 131.217 237.074 130.533 236.021 130.533C234.941 130.533 234.148 131.258 234.148 132.543Z" fill="var(--sol-element-primary)"/>
<defs>
<clipPath id="clip0_1670_175851">
<path d="M151.334 63.333C151.334 62.2284 152.229 61.333 153.334 61.333H162.667C163.772 61.333 164.667 62.2284 164.667 63.333V72.6663C164.667 73.7709 163.772 74.6663 162.667 74.6663H153.334C152.229 74.6663 151.334 73.7709 151.334 72.6663V63.333Z" fill="var(--sol-surface)"/>
</clipPath>
<clipPath id="clip1_1670_175851">
<path d="M175.334 127.333C175.334 126.228 176.229 125.333 177.334 125.333H186.667C187.772 125.333 188.667 126.228 188.667 127.333V136.666C188.667 137.771 187.772 138.666 186.667 138.666H177.334C176.229 138.666 175.334 137.771 175.334 136.666V127.333Z" fill="var(--sol-surface)"/>
</clipPath>
</defs>
</svg>
