<svg width="442" height="172" viewBox="0 0 442 172" fill="none" xmlns="http://www.w3.org/2000/svg">
<style>
:root {
  --sol-element-primary: #161616;
  --sol-element-tertiary: #636363;
  --sol-element-quaternary: #858585;
  --sol-fill-active: #4d469a;
  --sol-surface: #ffffff;
  --sol-error: #e76067;
  --sol-error-dim: #b84451;
  --sol-static-white: #ffffff;
  --sol-static-black: #000000;
}
@media (prefers-color-scheme: dark) {
  :root {
    --sol-element-primary: #ffffff;
    --sol-element-tertiary: rgba(255, 255, 255, 0.6);
    --sol-element-quaternary: rgba(255, 255, 255, 0.5);
    --sol-fill-active: #7b74c4;
    --sol-surface: #161616;
    --sol-error: #ee7a80;
    --sol-error-dim: #e76067;
  }
}
</style>
<g clip-path="url(#clip0_1670_175857)">
<path d="M155.848 36.1914C155.424 34.9199 154.453 34.1133 153.045 34.1133C151.295 34.1133 149.9 35.4941 149.9 38.0508C149.9 40.6074 151.295 41.9883 153.127 41.9883C154.802 41.9883 155.943 40.8672 155.971 39.1172H153.387V38.0371H157.174V39.1035C157.174 41.5645 155.479 43.1367 153.127 43.1367C150.488 43.1367 148.711 41.1816 148.711 38.0508C148.711 34.9199 150.502 32.9648 153.045 32.9648C155.137 32.9648 156.75 34.2773 157.119 36.1914H155.848ZM158.869 43V35.5762H160.004V36.7109H160.086C160.359 35.959 161.125 35.4531 162 35.4531C162.178 35.4531 162.479 35.4668 162.615 35.4805V36.6699C162.533 36.6426 162.205 36.5879 161.904 36.5879C160.838 36.5879 160.045 37.3262 160.045 38.3242V43H158.869ZM166.566 43.1504C164.543 43.1504 163.176 41.6328 163.176 39.3223C163.176 37.0117 164.543 35.4805 166.566 35.4805C168.576 35.4805 169.93 37.0117 169.93 39.3223C169.93 41.6328 168.576 43.1504 166.566 43.1504ZM166.566 42.1113C168.057 42.1113 168.754 40.7988 168.754 39.3223C168.754 37.8457 168.057 36.5195 166.566 36.5195C165.049 36.5195 164.352 37.8457 164.352 39.3223C164.352 40.7988 165.049 42.1113 166.566 42.1113ZM176.164 39.9512V35.5762H177.326V43H176.164V41.7422H176.082C175.727 42.4941 175.002 43.0957 173.881 43.0957C172.473 43.0957 171.475 42.1797 171.475 40.293V35.5762H172.65V40.2109C172.65 41.2773 173.32 41.9609 174.264 41.9609C175.098 41.9609 176.164 41.332 176.164 39.9512ZM179.213 45.7891V35.5762H180.348V36.752H180.484C180.73 36.3555 181.195 35.4805 182.631 35.4805C184.49 35.4805 185.789 36.957 185.789 39.3086C185.789 41.6602 184.49 43.1504 182.645 43.1504C181.223 43.1504 180.73 42.2754 180.484 41.8652H180.389V45.7891H179.213ZM180.361 39.2812C180.361 40.9492 181.113 42.0977 182.48 42.0977C183.889 42.0977 184.613 40.8672 184.613 39.2812C184.613 37.7363 183.902 36.5332 182.48 36.5332C181.086 36.5332 180.361 37.6406 180.361 39.2812ZM192.01 33.1016V43H190.834V33.1016H192.01ZM193.527 40.8945C193.527 39.1855 195.031 38.8027 196.316 38.707C196.788 38.6729 197.991 38.6113 198.326 38.5977V37.9961C198.326 37.0527 197.766 36.5059 196.645 36.5059C195.701 36.5059 195.141 36.9434 194.977 37.5039H193.746C193.896 36.3145 195.059 35.4805 196.699 35.4805C197.67 35.4805 199.488 35.7676 199.488 38.1055V43H198.326V41.9883H198.271C198.025 42.4941 197.342 43.1777 196.057 43.1777C194.648 43.1777 193.527 42.3438 193.527 40.8945ZM194.703 40.9492C194.703 41.7285 195.359 42.125 196.262 42.125C197.588 42.125 198.326 41.2363 198.326 40.3066V39.5547L196.453 39.6914C195.387 39.7598 194.703 40.1426 194.703 40.9492ZM201.525 43V33.1016H202.701V36.752H202.797C203.057 36.3555 203.494 35.4805 204.943 35.4805C206.803 35.4805 208.115 36.957 208.115 39.3086C208.115 41.6602 206.803 43.1504 204.957 43.1504C203.535 43.1504 203.057 42.2754 202.797 41.8652H202.66V43H201.525ZM202.674 39.2812C202.674 40.9492 203.426 42.0977 204.779 42.0977C206.188 42.0977 206.926 40.8672 206.926 39.2812C206.926 37.7363 206.215 36.5332 204.779 36.5332C203.412 36.5332 202.674 37.6406 202.674 39.2812ZM212.764 43.1504C210.617 43.1504 209.291 41.6328 209.291 39.3496C209.291 37.0664 210.631 35.4805 212.654 35.4805C214.213 35.4805 215.854 36.4375 215.854 39.1855V39.6777H210.467C210.521 41.25 211.438 42.1113 212.764 42.1113C213.652 42.1113 214.213 41.7285 214.486 41.2637H215.744C215.389 42.3848 214.295 43.1504 212.764 43.1504ZM210.48 38.6797H214.664C214.664 37.4355 213.871 36.5195 212.654 36.5195C211.369 36.5195 210.549 37.5312 210.48 38.6797ZM218.561 33.1016V43H217.385V33.1016H218.561Z" fill="var(--sol-element-tertiary)"/>
<g clip-path="url(#clip1_1670_175857)">
<path d="M151.334 67.333C151.334 66.2284 152.229 65.333 153.334 65.333H162.667C163.772 65.333 164.667 66.2284 164.667 67.333V76.6663C164.667 77.7709 163.772 78.6663 162.667 78.6663H153.334C152.229 78.6663 151.334 77.7709 151.334 76.6663V67.333Z" fill="var(--sol-fill-active)"/>
<path d="M162.792 71.375V72.625H153.209V71.375H162.792Z" fill="var(--sol-surface)"/>
</g>
<path d="M175.531 77H174.246L177.869 67.1016H179.168L182.791 77H181.492L180.508 74.2109H176.529L175.531 77ZM176.898 73.1309H180.125L178.553 68.7012H178.471L176.898 73.1309ZM185.156 67.1016V77H183.98V67.1016H185.156ZM188.205 67.1016V77H187.029V67.1016H188.205Z" fill="var(--sol-element-primary)"/>
<path d="M175.999 97.167H183.999C184.459 97.167 184.833 97.5399 184.833 98V106C184.833 106.46 184.459 106.834 183.999 106.834H175.999C175.539 106.834 175.166 106.46 175.166 106V98C175.166 97.54 175.539 97.1672 175.999 97.167Z" stroke="var(--sol-element-primary)" stroke-opacity="0.16"/>
<path d="M202.109 101.758C202.109 104.441 200.527 106.117 198.359 106.117C196.18 106.117 194.609 104.441 194.609 101.758C194.609 99.0742 196.18 97.3984 198.359 97.3984C200.527 97.3984 202.109 99.0742 202.109 101.758ZM201.09 101.758C201.09 99.5664 199.895 98.3828 198.359 98.3828C196.824 98.3828 195.629 99.5664 195.629 101.758C195.629 103.949 196.824 105.133 198.359 105.133C199.895 105.133 201.09 103.949 201.09 101.758ZM203.527 108.391V99.6367H204.5V100.645H204.617C204.828 100.305 205.227 99.5547 206.457 99.5547C208.051 99.5547 209.164 100.82 209.164 102.836C209.164 104.852 208.051 106.129 206.469 106.129C205.25 106.129 204.828 105.379 204.617 105.027H204.535V108.391H203.527ZM204.512 102.812C204.512 104.242 205.156 105.227 206.328 105.227C207.535 105.227 208.156 104.172 208.156 102.812C208.156 101.488 207.547 100.457 206.328 100.457C205.133 100.457 204.512 101.406 204.512 102.812ZM213.254 99.6367V100.48H211.918V104.172C211.918 104.992 212.316 105.121 212.75 105.121C212.938 105.121 213.195 105.109 213.348 105.098V106.035C213.195 106.059 212.938 106.082 212.645 106.082C211.801 106.082 210.898 105.555 210.898 104.43V100.48H209.938V99.6367H210.898V98.1133H211.918V99.6367H213.254ZM214.555 106V99.6367H215.562V106H214.555ZM215.059 98.582C214.672 98.582 214.355 98.2891 214.355 97.9141C214.355 97.5391 214.672 97.2461 215.059 97.2461C215.445 97.2461 215.773 97.5391 215.773 97.9141C215.773 98.2891 215.445 98.582 215.059 98.582ZM219.77 106.129C218.035 106.129 216.863 104.828 216.863 102.848C216.863 100.867 218.035 99.5547 219.77 99.5547C221.492 99.5547 222.652 100.867 222.652 102.848C222.652 104.828 221.492 106.129 219.77 106.129ZM219.77 105.238C221.047 105.238 221.645 104.113 221.645 102.848C221.645 101.582 221.047 100.445 219.77 100.445C218.469 100.445 217.871 101.582 217.871 102.848C217.871 104.113 218.469 105.238 219.77 105.238ZM224.984 102.18V106H223.977V99.6367H224.949V100.633H225.031C225.336 99.9883 225.922 99.5547 226.895 99.5547C228.184 99.5547 229.039 100.34 229.039 101.957V106H228.031V102.027C228.031 101.043 227.492 100.457 226.59 100.457C225.664 100.457 224.984 101.078 224.984 102.18Z" fill="var(--sol-element-primary)"/>
<g clip-path="url(#clip2_1670_175857)">
<path d="M174.666 126.667C174.666 125.562 175.561 124.667 176.666 124.667H183.333C184.437 124.667 185.333 125.562 185.333 126.667V133.334C185.333 134.438 184.437 135.334 183.333 135.334H176.666C175.561 135.334 174.666 134.438 174.666 133.334V126.667Z" fill="var(--sol-fill-active)"/>
<path d="M184.038 127.814L179.105 132.747C178.91 132.942 178.593 132.942 178.398 132.747L175.963 130.312L176.67 129.605L178.751 131.686L183.331 127.107L184.038 127.814Z" fill="var(--sol-surface)"/>
</g>
<path d="M202.109 129.758C202.109 132.441 200.527 134.117 198.359 134.117C196.18 134.117 194.609 132.441 194.609 129.758C194.609 127.074 196.18 125.398 198.359 125.398C200.527 125.398 202.109 127.074 202.109 129.758ZM201.09 129.758C201.09 127.566 199.895 126.383 198.359 126.383C196.824 126.383 195.629 127.566 195.629 129.758C195.629 131.949 196.824 133.133 198.359 133.133C199.895 133.133 201.09 131.949 201.09 129.758ZM203.527 136.391V127.637H204.5V128.645H204.617C204.828 128.305 205.227 127.555 206.457 127.555C208.051 127.555 209.164 128.82 209.164 130.836C209.164 132.852 208.051 134.129 206.469 134.129C205.25 134.129 204.828 133.379 204.617 133.027H204.535V136.391H203.527ZM204.512 130.812C204.512 132.242 205.156 133.227 206.328 133.227C207.535 133.227 208.156 132.172 208.156 130.812C208.156 129.488 207.547 128.457 206.328 128.457C205.133 128.457 204.512 129.406 204.512 130.812ZM213.254 127.637V128.48H211.918V132.172C211.918 132.992 212.316 133.121 212.75 133.121C212.938 133.121 213.195 133.109 213.348 133.098V134.035C213.195 134.059 212.938 134.082 212.645 134.082C211.801 134.082 210.898 133.555 210.898 132.43V128.48H209.938V127.637H210.898V126.113H211.918V127.637H213.254ZM214.555 134V127.637H215.562V134H214.555ZM215.059 126.582C214.672 126.582 214.355 126.289 214.355 125.914C214.355 125.539 214.672 125.246 215.059 125.246C215.445 125.246 215.773 125.539 215.773 125.914C215.773 126.289 215.445 126.582 215.059 126.582ZM219.77 134.129C218.035 134.129 216.863 132.828 216.863 130.848C216.863 128.867 218.035 127.555 219.77 127.555C221.492 127.555 222.652 128.867 222.652 130.848C222.652 132.828 221.492 134.129 219.77 134.129ZM219.77 133.238C221.047 133.238 221.645 132.113 221.645 130.848C221.645 129.582 221.047 128.445 219.77 128.445C218.469 128.445 217.871 129.582 217.871 130.848C217.871 132.113 218.469 133.238 219.77 133.238ZM224.984 130.18V134H223.977V127.637H224.949V128.633H225.031C225.336 127.988 225.922 127.555 226.895 127.555C228.184 127.555 229.039 128.34 229.039 129.957V134H228.031V130.027C228.031 129.043 227.492 128.457 226.59 128.457C225.664 128.457 224.984 129.078 224.984 130.18Z" fill="var(--sol-element-primary)"/>
</g>
<defs>
<clipPath id="clip0_1670_175857">
<path d="M0 8C0 3.58173 3.58172 0 8 0H434C438.418 0 442 3.58172 442 8V164C442 168.418 438.418 172 434 172H8C3.58172 172 0 168.418 0 164V8Z" fill="var(--sol-surface)"/>
</clipPath>
<clipPath id="clip1_1670_175857">
<path d="M151.334 67.333C151.334 66.2284 152.229 65.333 153.334 65.333H162.667C163.772 65.333 164.667 66.2284 164.667 67.333V76.6663C164.667 77.7709 163.772 78.6663 162.667 78.6663H153.334C152.229 78.6663 151.334 77.7709 151.334 76.6663V67.333Z" fill="var(--sol-surface)"/>
</clipPath>
<clipPath id="clip2_1670_175857">
<path d="M174.666 126.667C174.666 125.562 175.561 124.667 176.666 124.667H183.333C184.437 124.667 185.333 125.562 185.333 126.667V133.334C185.333 134.438 184.437 135.334 183.333 135.334H176.666C175.561 135.334 174.666 134.438 174.666 133.334V126.667Z" fill="var(--sol-surface)"/>
</clipPath>
</defs>
</svg>
