<svg width="900" height="144" viewBox="0 0 900 144" fill="none" xmlns="http://www.w3.org/2000/svg">
<style>
:root {
  --sol-element-primary: #161616;
  --sol-element-secondary: #484848;
  --sol-element-tertiary: #636363;
  --sol-element-quaternary: #858585;
  --sol-fill-active: #4d469a;
  --sol-surface: #ffffff;
  --sol-border-normal-variant: rgba(0, 0, 0, 0.08);
  --sol-border-solid-variant: #e0e0e0;
  --sol-error: #e76067;
  --sol-static-white: #ffffff;
  --sol-static-black: #000000;
}
@media (prefers-color-scheme: dark) {
  :root {
    --sol-element-primary: #ffffff;
    --sol-element-secondary: rgba(255, 255, 255, 0.80);
    --sol-element-tertiary: rgba(255, 255, 255, 0.60);
    --sol-element-quaternary: rgba(255, 255, 255, 0.50);
    --sol-fill-active: #7b74c4;
    --sol-surface: #161616;
    --sol-border-normal-variant: rgba(255, 255, 255, 0.08);
    --sol-border-solid-variant: #3d3d3d;
    --sol-error: #ee7a80;
  }
}
</style>

<g clip-path="url(#clip0_1670_175458)">
<path d="M373.334 59.334C373.334 58.2294 374.229 57.334 375.334 57.334H384.667C385.772 57.334 386.667 58.2294 386.667 59.334V68.6673C386.667 69.7719 385.772 70.6673 384.667 70.6673H375.334C374.229 70.6673 373.334 69.7719 373.334 68.6673V59.334Z" fill="var(--sol-fill-active)"/>
<path d="M385.046 61.2686L378.881 67.4345C378.636 67.6785 378.241 67.6785 377.997 67.4345L374.953 64.3908L375.837 63.5071L378.438 66.1085L384.163 60.3848L385.046 61.2686Z" fill="var(--sol-surface)"/>
</g>
<path d="M403.848 62.2188C403.561 60.8516 402.385 60.1133 401.086 60.1133C399.295 60.1133 397.9 61.4941 397.9 64.0508C397.9 66.6074 399.295 67.9883 401.086 67.9883C402.385 67.9883 403.547 67.25 403.848 65.8965H405.078C404.723 67.9199 403.096 69.1367 401.086 69.1367C398.543 69.1367 396.711 67.1816 396.711 64.0508C396.711 60.9199 398.543 58.9648 401.086 58.9648C403.082 58.9648 404.709 60.168 405.078 62.2188H403.848ZM407.826 64.543V69H406.65V59.1016H407.826V62.7383H407.922C408.264 61.9727 408.934 61.4805 410.109 61.4805C411.627 61.4805 412.639 62.3828 412.639 64.2832V69H411.463V64.3652C411.463 63.2031 410.82 62.5332 409.754 62.5332C408.646 62.5332 407.826 63.2578 407.826 64.543ZM417.643 69.1504C415.496 69.1504 414.17 67.6328 414.17 65.3496C414.17 63.0664 415.51 61.4805 417.533 61.4805C419.092 61.4805 420.732 62.4375 420.732 65.1855V65.6777H415.346C415.4 67.25 416.316 68.1113 417.643 68.1113C418.531 68.1113 419.092 67.7285 419.365 67.2637H420.623C420.268 68.3848 419.174 69.1504 417.643 69.1504ZM415.359 64.6797H419.543C419.543 63.4355 418.75 62.5195 417.533 62.5195C416.248 62.5195 415.428 63.5312 415.359 64.6797ZM425.299 69.1504C423.193 69.1504 421.908 67.5508 421.908 65.3223C421.908 63.0664 423.248 61.4805 425.271 61.4805C426.857 61.4805 428.033 62.4102 428.225 63.8184H427.049C426.885 63.1348 426.283 62.5195 425.299 62.5195C423.973 62.5195 423.084 63.6133 423.084 65.2812C423.084 67.0039 423.945 68.0977 425.299 68.0977C426.174 68.0977 426.844 67.6328 427.049 66.8125H428.225C428.033 68.1387 426.953 69.1504 425.299 69.1504ZM429.674 69V59.1016H430.85V64.8574H430.986L434.199 61.5762H435.648L432.518 64.748L435.881 69H434.391L431.643 65.5L430.85 66.2246V69H429.674ZM437.057 69V59.1016H438.232V62.752H438.328C438.588 62.3555 439.025 61.4805 440.475 61.4805C442.334 61.4805 443.646 62.957 443.646 65.3086C443.646 67.6602 442.334 69.1504 440.488 69.1504C439.066 69.1504 438.588 68.2754 438.328 67.8652H438.191V69H437.057ZM438.205 65.2812C438.205 66.9492 438.957 68.0977 440.311 68.0977C441.719 68.0977 442.457 66.8672 442.457 65.2812C442.457 63.7363 441.746 62.5332 440.311 62.5332C438.943 62.5332 438.205 63.6406 438.205 65.2812ZM448.213 69.1504C446.189 69.1504 444.822 67.6328 444.822 65.3223C444.822 63.0117 446.189 61.4805 448.213 61.4805C450.223 61.4805 451.576 63.0117 451.576 65.3223C451.576 67.6328 450.223 69.1504 448.213 69.1504ZM448.213 68.1113C449.703 68.1113 450.4 66.7988 450.4 65.3223C450.4 63.8457 449.703 62.5195 448.213 62.5195C446.695 62.5195 445.998 63.8457 445.998 65.3223C445.998 66.7988 446.695 68.1113 448.213 68.1113ZM453.709 61.5762L455.459 64.5977L457.223 61.5762H458.576L456.184 65.2812L458.576 69H457.236L455.459 66.1289L453.709 69H452.355L454.693 65.2812L452.355 61.5762H453.709ZM464.688 59.1016V69H463.512V59.1016H464.688ZM466.205 66.8945C466.205 65.1855 467.709 64.8027 468.994 64.707C469.466 64.6729 470.669 64.6113 471.004 64.5977V63.9961C471.004 63.0527 470.443 62.5059 469.322 62.5059C468.379 62.5059 467.818 62.9434 467.654 63.5039H466.424C466.574 62.3145 467.736 61.4805 469.377 61.4805C470.348 61.4805 472.166 61.7676 472.166 64.1055V69H471.004V67.9883H470.949C470.703 68.4941 470.02 69.1777 468.734 69.1777C467.326 69.1777 466.205 68.3438 466.205 66.8945ZM467.381 66.9492C467.381 67.7285 468.037 68.125 468.939 68.125C470.266 68.125 471.004 67.2363 471.004 66.3066V65.5547L469.131 65.6914C468.064 65.7598 467.381 66.1426 467.381 66.9492ZM474.203 69V59.1016H475.379V62.752H475.475C475.734 62.3555 476.172 61.4805 477.621 61.4805C479.48 61.4805 480.793 62.957 480.793 65.3086C480.793 67.6602 479.48 69.1504 477.635 69.1504C476.213 69.1504 475.734 68.2754 475.475 67.8652H475.338V69H474.203ZM475.352 65.2812C475.352 66.9492 476.104 68.0977 477.457 68.0977C478.865 68.0977 479.604 66.8672 479.604 65.2812C479.604 63.7363 478.893 62.5332 477.457 62.5332C476.09 62.5332 475.352 63.6406 475.352 65.2812ZM485.441 69.1504C483.295 69.1504 481.969 67.6328 481.969 65.3496C481.969 63.0664 483.309 61.4805 485.332 61.4805C486.891 61.4805 488.531 62.4375 488.531 65.1855V65.6777H483.145C483.199 67.25 484.115 68.1113 485.441 68.1113C486.33 68.1113 486.891 67.7285 487.164 67.2637H488.422C488.066 68.3848 486.973 69.1504 485.441 69.1504ZM483.158 64.6797H487.342C487.342 63.4355 486.549 62.5195 485.332 62.5195C484.047 62.5195 483.227 63.5312 483.158 64.6797ZM491.238 59.1016V69H490.062V59.1016H491.238Z" fill="var(--sol-element-primary)"/>
<path d="M498.76 64.666H497.83L497.912 62.5469L496.107 63.6816L495.643 62.875L497.529 61.8906L495.643 60.8926L496.107 60.0859L497.912 61.2207L497.83 59.1016H498.76L498.678 61.2207L500.482 60.0859L500.947 60.8926L499.074 61.8906L500.947 62.875L500.482 63.6816L498.678 62.5469L498.76 64.666Z" fill="var(--sol-error)"/>
<path d="M399.574 87H396.938V78.5156H399.68C402.152 78.5156 403.617 80.1094 403.617 82.7461C403.617 85.3945 402.152 87 399.574 87ZM397.992 86.0625H399.504C401.59 86.0625 402.586 84.8086 402.586 82.7461C402.586 80.6953 401.59 79.4531 399.609 79.4531H397.992V86.0625ZM407.707 87.1289C405.867 87.1289 404.73 85.8281 404.73 83.8711C404.73 81.9141 405.879 80.5547 407.613 80.5547C408.949 80.5547 410.355 81.375 410.355 83.7305V84.1523H405.738C405.785 85.5 406.57 86.2383 407.707 86.2383C408.469 86.2383 408.949 85.9102 409.184 85.5117H410.262C409.957 86.4727 409.02 87.1289 407.707 87.1289ZM405.75 83.2969H409.336C409.336 82.2305 408.656 81.4453 407.613 81.4453C406.512 81.4453 405.809 82.3125 405.75 83.2969ZM415.207 82.2891C415.066 81.7617 414.668 81.4102 413.918 81.4102C413.133 81.4102 412.57 81.832 412.57 82.3711C412.57 82.793 412.91 83.0859 413.66 83.2617L414.609 83.4961C415.746 83.7656 416.309 84.3281 416.309 85.2188C416.309 86.3203 415.406 87.1289 413.812 87.1289C412.383 87.1289 411.527 86.4961 411.363 85.3359H412.418C412.535 85.957 412.992 86.25 413.789 86.25C414.691 86.25 415.266 85.875 415.266 85.2773C415.266 84.832 414.949 84.5273 414.223 84.3633L413.262 84.1406C412.148 83.8828 411.562 83.2734 411.562 82.4297C411.562 81.3398 412.512 80.5547 413.918 80.5547C415.23 80.5547 416.062 81.2578 416.191 82.2891H415.207ZM420.223 87.1289C418.418 87.1289 417.316 85.7578 417.316 83.8477C417.316 81.9141 418.465 80.5547 420.199 80.5547C421.559 80.5547 422.566 81.3516 422.73 82.5586H421.723C421.582 81.9727 421.066 81.4453 420.223 81.4453C419.086 81.4453 418.324 82.3828 418.324 83.8125C418.324 85.2891 419.062 86.2266 420.223 86.2266C420.973 86.2266 421.547 85.8281 421.723 85.125H422.73C422.566 86.2617 421.641 87.1289 420.223 87.1289ZM423.973 87V80.6367H424.945V81.6094H425.016C425.25 80.9648 425.906 80.5312 426.656 80.5312C426.809 80.5312 427.066 80.543 427.184 80.5547V81.5742C427.113 81.5508 426.832 81.5039 426.574 81.5039C425.66 81.5039 424.98 82.1367 424.98 82.9922V87H423.973ZM428.168 87V80.6367H429.176V87H428.168ZM428.672 79.582C428.285 79.582 427.969 79.2891 427.969 78.9141C427.969 78.5391 428.285 78.2461 428.672 78.2461C429.059 78.2461 429.387 78.5391 429.387 78.9141C429.387 79.2891 429.059 79.582 428.672 79.582ZM430.781 89.3906V80.6367H431.754V81.6445H431.871C432.082 81.3047 432.48 80.5547 433.711 80.5547C435.305 80.5547 436.418 81.8203 436.418 83.8359C436.418 85.8516 435.305 87.1289 433.723 87.1289C432.504 87.1289 432.082 86.3789 431.871 86.0273H431.789V89.3906H430.781ZM431.766 83.8125C431.766 85.2422 432.41 86.2266 433.582 86.2266C434.789 86.2266 435.41 85.1719 435.41 83.8125C435.41 82.4883 434.801 81.457 433.582 81.457C432.387 81.457 431.766 82.4062 431.766 83.8125ZM440.508 80.6367V81.4805H439.172V85.1719C439.172 85.9922 439.57 86.1211 440.004 86.1211C440.191 86.1211 440.449 86.1094 440.602 86.0977V87.0352C440.449 87.0586 440.191 87.082 439.898 87.082C439.055 87.082 438.152 86.5547 438.152 85.4297V81.4805H437.191V80.6367H438.152V79.1133H439.172V80.6367H440.508ZM441.809 87V80.6367H442.816V87H441.809ZM442.312 79.582C441.926 79.582 441.609 79.2891 441.609 78.9141C441.609 78.5391 441.926 78.2461 442.312 78.2461C442.699 78.2461 443.027 78.5391 443.027 78.9141C443.027 79.2891 442.699 79.582 442.312 79.582ZM447.023 87.1289C445.289 87.1289 444.117 85.8281 444.117 83.8477C444.117 81.8672 445.289 80.5547 447.023 80.5547C448.746 80.5547 449.906 81.8672 449.906 83.8477C449.906 85.8281 448.746 87.1289 447.023 87.1289ZM447.023 86.2383C448.301 86.2383 448.898 85.1133 448.898 83.8477C448.898 82.582 448.301 81.4453 447.023 81.4453C445.723 81.4453 445.125 82.582 445.125 83.8477C445.125 85.1133 445.723 86.2383 447.023 86.2383ZM452.238 83.1797V87H451.23V80.6367H452.203V81.6328H452.285C452.59 80.9883 453.176 80.5547 454.148 80.5547C455.438 80.5547 456.293 81.3398 456.293 82.957V87H455.285V83.0273C455.285 82.043 454.746 81.457 453.844 81.457C452.918 81.457 452.238 82.0781 452.238 83.1797Z" fill="var(--sol-element-tertiary)"/>
<rect x="328" y="50" width="28" height="28" rx="14" fill="var(--sol-element-primary)"/>
<path d="M343.859 58.6875V70H341.812V60.6719H341.75L339.109 62.3594V60.5L341.906 58.6875H343.859Z" fill="var(--sol-surface)"/>
<path d="M356 63.5H369.5C369.776 63.5 370 63.7239 370 64V64C370 64.2761 369.776 64.5 369.5 64.5H356V63.5Z" fill="var(--sol-element-primary)"/>
<circle cx="368" cy="64" r="2" fill="var(--sol-element-primary)"/>
<path d="M464.5 84C464.5 83.7239 464.724 83.5 465 83.5H502.5V84.5H465C464.724 84.5 464.5 84.2761 464.5 84V84Z" fill="var(--sol-element-primary)"/>
<rect x="502.5" y="70" width="28" height="28" rx="14" fill="var(--sol-element-primary)"/>
<path d="M512.07 87.8906V86.2656L516.961 78.6875H519.492V86.2188H520.977V87.8906H519.492V90H517.555V87.8906H512.07ZM514.148 86.2188H517.586V81H517.461L514.148 86.1406V86.2188Z" fill="var(--sol-surface)"/>
<circle cx="466.5" cy="84" r="2" fill="var(--sol-element-primary)"/>
<path d="M506 60C506 59.7239 506.224 59.5 506.5 59.5H538V60.5H506.5C506.224 60.5 506 60.2761 506 60V60Z" fill="var(--sol-element-primary)"/>
<rect x="538" y="46" width="28" height="28" rx="14" fill="var(--sol-element-primary)"/>
<path d="M551.992 66.1562C549.57 66.1562 547.852 64.8438 547.805 62.9375H549.852C549.914 63.8438 550.82 64.4375 551.992 64.4375C553.242 64.4375 554.133 63.75 554.133 62.75C554.133 61.7344 553.258 61 551.789 61H550.773V59.4375H551.789C552.992 59.4375 553.836 58.7656 553.82 57.7812C553.836 56.8281 553.117 56.1875 552.008 56.1875C550.945 56.1875 550.023 56.7812 549.992 57.7344H548.039C548.086 55.8281 549.805 54.5312 552.023 54.5312C554.32 54.5312 555.805 55.9375 555.789 57.6719C555.805 58.9375 554.961 59.8594 553.727 60.1094V60.2031C555.32 60.4219 556.227 61.4375 556.211 62.8594C556.227 64.7656 554.445 66.1562 551.992 66.1562Z" fill="var(--sol-surface)"/>
<circle cx="508" cy="60" r="2" fill="var(--sol-element-primary)"/>
<rect x="398.5" y="12" width="28" height="28" rx="14" fill="var(--sol-element-primary)"/>
<path d="M408.617 32V30.5312L412.617 26.6719C413.758 25.5312 414.352 24.8594 414.352 23.9062C414.352 22.8594 413.523 22.1875 412.414 22.1875C411.242 22.1875 410.492 22.9219 410.508 24.0625H408.57C408.555 21.9219 410.164 20.5312 412.43 20.5312C414.742 20.5312 416.305 21.9062 416.305 23.8125C416.305 25.0938 415.68 26.125 413.461 28.2188L411.445 30.2188V30.2969H416.477V32H408.617Z" fill="var(--sol-surface)"/>
<path d="M412 40H413V51.5C413 51.7761 412.776 52 412.5 52V52C412.224 52 412 51.7761 412 51.5V40Z" fill="var(--sol-element-primary)"/>
<circle cx="412.5" cy="50" r="2" fill="var(--sol-element-primary)"/>
<defs>
<clipPath id="clip0_1670_175458">
<path d="M373.334 59.334C373.334 58.2294 374.229 57.334 375.334 57.334H384.667C385.772 57.334 386.667 58.2294 386.667 59.334V68.6673C386.667 69.7719 385.772 70.6673 384.667 70.6673H375.334C374.229 70.6673 373.334 69.7719 373.334 68.6673V59.334Z" fill="var(--sol-surface)"/>
</clipPath>
</defs>
</svg>
