<svg width="442" height="144" viewBox="0 0 442 144" fill="none" xmlns="http://www.w3.org/2000/svg">
<style>
:root {
  --sol-element-primary: #161616;
  --sol-element-tertiary: #636363;
  --sol-element-quaternary: #858585;
  --sol-fill-active: #4d469a;
  --sol-surface: #ffffff;
  --sol-error: #e76067;
  --sol-error-dim: #b84451;
  --sol-static-white: #ffffff;
  --sol-static-black: #000000;
}
@media (prefers-color-scheme: dark) {
  :root {
    --sol-element-primary: #ffffff;
    --sol-element-tertiary: rgba(255, 255, 255, 0.6);
    --sol-element-quaternary: rgba(255, 255, 255, 0.5);
    --sol-fill-active: #7b74c4;
    --sol-surface: #161616;
    --sol-error: #ee7a80;
    --sol-error-dim: #e76067;
  }
}
</style>
<g clip-path="url(#clip0_1670_175820)">
<g clip-path="url(#clip1_1670_175820)">
<path d="M41.001 33.834H51.001C51.6452 33.8342 52.167 34.3568 52.167 35.001V45.001C52.1668 45.6451 51.6451 46.1668 51.001 46.167H41.001C40.3568 46.167 39.8342 45.6452 39.834 45.001V35.001C39.834 34.3566 40.3566 33.834 41.001 33.834Z" stroke="var(--sol-element-primary)" stroke-opacity="0.16"/>
<path d="M71.4609 40.0508C71.4609 43.1816 69.6152 45.1367 67.0859 45.1367C64.543 45.1367 62.7109 43.1816 62.7109 40.0508C62.7109 36.9199 64.543 34.9648 67.0859 34.9648C69.6152 34.9648 71.4609 36.9199 71.4609 40.0508ZM70.2715 40.0508C70.2715 37.4941 68.877 36.1133 67.0859 36.1133C65.2949 36.1133 63.9004 37.4941 63.9004 40.0508C63.9004 42.6074 65.2949 43.9883 67.0859 43.9883C68.877 43.9883 70.2715 42.6074 70.2715 40.0508ZM73.1152 47.7891V37.5762H74.25V38.752H74.3867C74.6328 38.3555 75.0977 37.4805 76.5332 37.4805C78.3926 37.4805 79.6914 38.957 79.6914 41.3086C79.6914 43.6602 78.3926 45.1504 76.5469 45.1504C75.125 45.1504 74.6328 44.2754 74.3867 43.8652H74.291V47.7891H73.1152ZM74.2637 41.2812C74.2637 42.9492 75.0156 44.0977 76.3828 44.0977C77.791 44.0977 78.5156 42.8672 78.5156 41.2812C78.5156 39.7363 77.8047 38.5332 76.3828 38.5332C74.9883 38.5332 74.2637 39.6406 74.2637 41.2812ZM84.4629 37.5762V38.5605H82.9043V42.8672C82.9043 43.8242 83.3691 43.9746 83.875 43.9746C84.0938 43.9746 84.3945 43.9609 84.5723 43.9473V45.041C84.3945 45.0684 84.0938 45.0957 83.752 45.0957C82.7676 45.0957 81.7148 44.4805 81.7148 43.168V38.5605H80.5938V37.5762H81.7148V35.7988H82.9043V37.5762H84.4629ZM85.9805 45V37.5762H87.1562V45H85.9805ZM86.5684 36.3457C86.1172 36.3457 85.748 36.0039 85.748 35.5664C85.748 35.1289 86.1172 34.7871 86.5684 34.7871C87.0195 34.7871 87.4023 35.1289 87.4023 35.5664C87.4023 36.0039 87.0195 36.3457 86.5684 36.3457ZM92.0645 45.1504C90.041 45.1504 88.6738 43.6328 88.6738 41.3223C88.6738 39.0117 90.041 37.4805 92.0645 37.4805C94.0742 37.4805 95.4277 39.0117 95.4277 41.3223C95.4277 43.6328 94.0742 45.1504 92.0645 45.1504ZM92.0645 44.1113C93.5547 44.1113 94.252 42.7988 94.252 41.3223C94.252 39.8457 93.5547 38.5195 92.0645 38.5195C90.5469 38.5195 89.8496 39.8457 89.8496 41.3223C89.8496 42.7988 90.5469 44.1113 92.0645 44.1113ZM98.1484 40.543V45H96.9727V37.5762H98.1074V38.7383H98.2031C98.5586 37.9863 99.2422 37.4805 100.377 37.4805C101.881 37.4805 102.879 38.3965 102.879 40.2832V45H101.703V40.3652C101.703 39.2168 101.074 38.5332 100.021 38.5332C98.9414 38.5332 98.1484 39.2578 98.1484 40.543Z" fill="var(--sol-element-primary)"/>
<path d="M41.001 65.834H51.001C51.6452 65.8342 52.167 66.3568 52.167 67.001V77.001C52.1668 77.6451 51.6451 78.1668 51.001 78.167H41.001C40.3568 78.167 39.8342 77.6452 39.834 77.001V67.001C39.834 66.3566 40.3566 65.834 41.001 65.834Z" stroke="var(--sol-element-primary)" stroke-opacity="0.16"/>
<path d="M71.4609 72.0508C71.4609 75.1816 69.6152 77.1367 67.0859 77.1367C64.543 77.1367 62.7109 75.1816 62.7109 72.0508C62.7109 68.9199 64.543 66.9648 67.0859 66.9648C69.6152 66.9648 71.4609 68.9199 71.4609 72.0508ZM70.2715 72.0508C70.2715 69.4941 68.877 68.1133 67.0859 68.1133C65.2949 68.1133 63.9004 69.4941 63.9004 72.0508C63.9004 74.6074 65.2949 75.9883 67.0859 75.9883C68.877 75.9883 70.2715 74.6074 70.2715 72.0508ZM73.1152 79.7891V69.5762H74.25V70.752H74.3867C74.6328 70.3555 75.0977 69.4805 76.5332 69.4805C78.3926 69.4805 79.6914 70.957 79.6914 73.3086C79.6914 75.6602 78.3926 77.1504 76.5469 77.1504C75.125 77.1504 74.6328 76.2754 74.3867 75.8652H74.291V79.7891H73.1152ZM74.2637 73.2812C74.2637 74.9492 75.0156 76.0977 76.3828 76.0977C77.791 76.0977 78.5156 74.8672 78.5156 73.2812C78.5156 71.7363 77.8047 70.5332 76.3828 70.5332C74.9883 70.5332 74.2637 71.6406 74.2637 73.2812ZM84.4629 69.5762V70.5605H82.9043V74.8672C82.9043 75.8242 83.3691 75.9746 83.875 75.9746C84.0938 75.9746 84.3945 75.9609 84.5723 75.9473V77.041C84.3945 77.0684 84.0938 77.0957 83.752 77.0957C82.7676 77.0957 81.7148 76.4805 81.7148 75.168V70.5605H80.5938V69.5762H81.7148V67.7988H82.9043V69.5762H84.4629ZM85.9805 77V69.5762H87.1562V77H85.9805ZM86.5684 68.3457C86.1172 68.3457 85.748 68.0039 85.748 67.5664C85.748 67.1289 86.1172 66.7871 86.5684 66.7871C87.0195 66.7871 87.4023 67.1289 87.4023 67.5664C87.4023 68.0039 87.0195 68.3457 86.5684 68.3457ZM92.0645 77.1504C90.041 77.1504 88.6738 75.6328 88.6738 73.3223C88.6738 71.0117 90.041 69.4805 92.0645 69.4805C94.0742 69.4805 95.4277 71.0117 95.4277 73.3223C95.4277 75.6328 94.0742 77.1504 92.0645 77.1504ZM92.0645 76.1113C93.5547 76.1113 94.252 74.7988 94.252 73.3223C94.252 71.8457 93.5547 70.5195 92.0645 70.5195C90.5469 70.5195 89.8496 71.8457 89.8496 73.3223C89.8496 74.7988 90.5469 76.1113 92.0645 76.1113ZM98.1484 72.543V77H96.9727V69.5762H98.1074V70.7383H98.2031C98.5586 69.9863 99.2422 69.4805 100.377 69.4805C101.881 69.4805 102.879 70.3965 102.879 72.2832V77H101.703V72.3652C101.703 71.2168 101.074 70.5332 100.021 70.5332C98.9414 70.5332 98.1484 71.2578 98.1484 72.543Z" fill="var(--sol-element-primary)"/>
<path d="M41.001 97.834H51.001C51.6452 97.8342 52.167 98.3568 52.167 99.001V109.001C52.1668 109.645 51.6451 110.167 51.001 110.167H41.001C40.3568 110.167 39.8342 109.645 39.834 109.001V99.001C39.834 98.3566 40.3566 97.834 41.001 97.834Z" stroke="var(--sol-element-primary)" stroke-opacity="0.16"/>
<path d="M71.4609 104.051C71.4609 107.182 69.6152 109.137 67.0859 109.137C64.543 109.137 62.7109 107.182 62.7109 104.051C62.7109 100.92 64.543 98.9648 67.0859 98.9648C69.6152 98.9648 71.4609 100.92 71.4609 104.051ZM70.2715 104.051C70.2715 101.494 68.877 100.113 67.0859 100.113C65.2949 100.113 63.9004 101.494 63.9004 104.051C63.9004 106.607 65.2949 107.988 67.0859 107.988C68.877 107.988 70.2715 106.607 70.2715 104.051ZM73.1152 111.789V101.576H74.25V102.752H74.3867C74.6328 102.355 75.0977 101.48 76.5332 101.48C78.3926 101.48 79.6914 102.957 79.6914 105.309C79.6914 107.66 78.3926 109.15 76.5469 109.15C75.125 109.15 74.6328 108.275 74.3867 107.865H74.291V111.789H73.1152ZM74.2637 105.281C74.2637 106.949 75.0156 108.098 76.3828 108.098C77.791 108.098 78.5156 106.867 78.5156 105.281C78.5156 103.736 77.8047 102.533 76.3828 102.533C74.9883 102.533 74.2637 103.641 74.2637 105.281ZM84.4629 101.576V102.561H82.9043V106.867C82.9043 107.824 83.3691 107.975 83.875 107.975C84.0938 107.975 84.3945 107.961 84.5723 107.947V109.041C84.3945 109.068 84.0938 109.096 83.752 109.096C82.7676 109.096 81.7148 108.48 81.7148 107.168V102.561H80.5938V101.576H81.7148V99.7988H82.9043V101.576H84.4629ZM85.9805 109V101.576H87.1562V109H85.9805ZM86.5684 100.346C86.1172 100.346 85.748 100.004 85.748 99.5664C85.748 99.1289 86.1172 98.7871 86.5684 98.7871C87.0195 98.7871 87.4023 99.1289 87.4023 99.5664C87.4023 100.004 87.0195 100.346 86.5684 100.346ZM92.0645 109.15C90.041 109.15 88.6738 107.633 88.6738 105.322C88.6738 103.012 90.041 101.48 92.0645 101.48C94.0742 101.48 95.4277 103.012 95.4277 105.322C95.4277 107.633 94.0742 109.15 92.0645 109.15ZM92.0645 108.111C93.5547 108.111 94.252 106.799 94.252 105.322C94.252 103.846 93.5547 102.52 92.0645 102.52C90.5469 102.52 89.8496 103.846 89.8496 105.322C89.8496 106.799 90.5469 108.111 92.0645 108.111ZM98.1484 104.543V109H96.9727V101.576H98.1074V102.738H98.2031C98.5586 101.986 99.2422 101.48 100.377 101.48C101.881 101.48 102.879 102.396 102.879 104.283V109H101.703V104.365C101.703 103.217 101.074 102.533 100.021 102.533C98.9414 102.533 98.1484 103.258 98.1484 104.543Z" fill="var(--sol-element-primary)"/>
</g>
<g clip-path="url(#clip2_1670_175820)">
<g clip-path="url(#clip3_1670_175820)">
<path d="M168 35.334C168 34.2294 168.895 33.334 170 33.334H179.333C180.438 33.334 181.333 34.2294 181.333 35.334V44.6673C181.333 45.7719 180.438 46.6673 179.333 46.6673H170C168.895 46.6673 168 45.7719 168 44.6673V35.334Z" fill="var(--sol-fill-active)"/>
<path d="M179.712 37.2686L173.547 43.4345C173.302 43.6785 172.907 43.6785 172.663 43.4345L169.619 40.3908L170.503 39.5071L173.104 42.1085L178.829 36.3848L179.712 37.2686Z" fill="var(--sol-surface)"/>
</g>
<path d="M200.127 40.0508C200.127 43.1816 198.281 45.1367 195.752 45.1367C193.209 45.1367 191.377 43.1816 191.377 40.0508C191.377 36.9199 193.209 34.9648 195.752 34.9648C198.281 34.9648 200.127 36.9199 200.127 40.0508ZM198.938 40.0508C198.938 37.4941 197.543 36.1133 195.752 36.1133C193.961 36.1133 192.566 37.4941 192.566 40.0508C192.566 42.6074 193.961 43.9883 195.752 43.9883C197.543 43.9883 198.938 42.6074 198.938 40.0508ZM201.781 47.7891V37.5762H202.916V38.752H203.053C203.299 38.3555 203.764 37.4805 205.199 37.4805C207.059 37.4805 208.357 38.957 208.357 41.3086C208.357 43.6602 207.059 45.1504 205.213 45.1504C203.791 45.1504 203.299 44.2754 203.053 43.8652H202.957V47.7891H201.781ZM202.93 41.2812C202.93 42.9492 203.682 44.0977 205.049 44.0977C206.457 44.0977 207.182 42.8672 207.182 41.2812C207.182 39.7363 206.471 38.5332 205.049 38.5332C203.654 38.5332 202.93 39.6406 202.93 41.2812ZM213.129 37.5762V38.5605H211.57V42.8672C211.57 43.8242 212.035 43.9746 212.541 43.9746C212.76 43.9746 213.061 43.9609 213.238 43.9473V45.041C213.061 45.0684 212.76 45.0957 212.418 45.0957C211.434 45.0957 210.381 44.4805 210.381 43.168V38.5605H209.26V37.5762H210.381V35.7988H211.57V37.5762H213.129ZM214.646 45V37.5762H215.822V45H214.646ZM215.234 36.3457C214.783 36.3457 214.414 36.0039 214.414 35.5664C214.414 35.1289 214.783 34.7871 215.234 34.7871C215.686 34.7871 216.068 35.1289 216.068 35.5664C216.068 36.0039 215.686 36.3457 215.234 36.3457ZM220.73 45.1504C218.707 45.1504 217.34 43.6328 217.34 41.3223C217.34 39.0117 218.707 37.4805 220.73 37.4805C222.74 37.4805 224.094 39.0117 224.094 41.3223C224.094 43.6328 222.74 45.1504 220.73 45.1504ZM220.73 44.1113C222.221 44.1113 222.918 42.7988 222.918 41.3223C222.918 39.8457 222.221 38.5195 220.73 38.5195C219.213 38.5195 218.516 39.8457 218.516 41.3223C218.516 42.7988 219.213 44.1113 220.73 44.1113ZM226.814 40.543V45H225.639V37.5762H226.773V38.7383H226.869C227.225 37.9863 227.908 37.4805 229.043 37.4805C230.547 37.4805 231.545 38.3965 231.545 40.2832V45H230.369V40.3652C230.369 39.2168 229.74 38.5332 228.688 38.5332C227.607 38.5332 226.814 39.2578 226.814 40.543Z" fill="var(--sol-element-primary)"/>
<path d="M169.667 65.834H179.667C180.311 65.8342 180.833 66.3568 180.833 67.001V77.001C180.833 77.6451 180.311 78.1668 179.667 78.167H169.667C169.023 78.167 168.5 77.6452 168.5 77.001V67.001C168.5 66.3566 169.023 65.834 169.667 65.834Z" stroke="var(--sol-element-primary)" stroke-opacity="0.16"/>
<path d="M200.127 72.0508C200.127 75.1816 198.281 77.1367 195.752 77.1367C193.209 77.1367 191.377 75.1816 191.377 72.0508C191.377 68.9199 193.209 66.9648 195.752 66.9648C198.281 66.9648 200.127 68.9199 200.127 72.0508ZM198.938 72.0508C198.938 69.4941 197.543 68.1133 195.752 68.1133C193.961 68.1133 192.566 69.4941 192.566 72.0508C192.566 74.6074 193.961 75.9883 195.752 75.9883C197.543 75.9883 198.938 74.6074 198.938 72.0508ZM201.781 79.7891V69.5762H202.916V70.752H203.053C203.299 70.3555 203.764 69.4805 205.199 69.4805C207.059 69.4805 208.357 70.957 208.357 73.3086C208.357 75.6602 207.059 77.1504 205.213 77.1504C203.791 77.1504 203.299 76.2754 203.053 75.8652H202.957V79.7891H201.781ZM202.93 73.2812C202.93 74.9492 203.682 76.0977 205.049 76.0977C206.457 76.0977 207.182 74.8672 207.182 73.2812C207.182 71.7363 206.471 70.5332 205.049 70.5332C203.654 70.5332 202.93 71.6406 202.93 73.2812ZM213.129 69.5762V70.5605H211.57V74.8672C211.57 75.8242 212.035 75.9746 212.541 75.9746C212.76 75.9746 213.061 75.9609 213.238 75.9473V77.041C213.061 77.0684 212.76 77.0957 212.418 77.0957C211.434 77.0957 210.381 76.4805 210.381 75.168V70.5605H209.26V69.5762H210.381V67.7988H211.57V69.5762H213.129ZM214.646 77V69.5762H215.822V77H214.646ZM215.234 68.3457C214.783 68.3457 214.414 68.0039 214.414 67.5664C214.414 67.1289 214.783 66.7871 215.234 66.7871C215.686 66.7871 216.068 67.1289 216.068 67.5664C216.068 68.0039 215.686 68.3457 215.234 68.3457ZM220.73 77.1504C218.707 77.1504 217.34 75.6328 217.34 73.3223C217.34 71.0117 218.707 69.4805 220.73 69.4805C222.74 69.4805 224.094 71.0117 224.094 73.3223C224.094 75.6328 222.74 77.1504 220.73 77.1504ZM220.73 76.1113C222.221 76.1113 222.918 74.7988 222.918 73.3223C222.918 71.8457 222.221 70.5195 220.73 70.5195C219.213 70.5195 218.516 71.8457 218.516 73.3223C218.516 74.7988 219.213 76.1113 220.73 76.1113ZM226.814 72.543V77H225.639V69.5762H226.773V70.7383H226.869C227.225 69.9863 227.908 69.4805 229.043 69.4805C230.547 69.4805 231.545 70.3965 231.545 72.2832V77H230.369V72.3652C230.369 71.2168 229.74 70.5332 228.688 70.5332C227.607 70.5332 226.814 71.2578 226.814 72.543Z" fill="var(--sol-element-primary)"/>
<g clip-path="url(#clip4_1670_175820)">
<path d="M168 99.334C168 98.2294 168.895 97.334 170 97.334H179.333C180.438 97.334 181.333 98.2294 181.333 99.334V108.667C181.333 109.772 180.438 110.667 179.333 110.667H170C168.895 110.667 168 109.772 168 108.667V99.334Z" fill="var(--sol-fill-active)"/>
<path d="M179.712 101.269L173.547 107.434C173.302 107.678 172.907 107.679 172.663 107.434L169.619 104.391L170.503 103.507L173.104 106.109L178.829 100.385L179.712 101.269Z" fill="var(--sol-surface)"/>
</g>
<path d="M200.127 104.051C200.127 107.182 198.281 109.137 195.752 109.137C193.209 109.137 191.377 107.182 191.377 104.051C191.377 100.92 193.209 98.9648 195.752 98.9648C198.281 98.9648 200.127 100.92 200.127 104.051ZM198.938 104.051C198.938 101.494 197.543 100.113 195.752 100.113C193.961 100.113 192.566 101.494 192.566 104.051C192.566 106.607 193.961 107.988 195.752 107.988C197.543 107.988 198.938 106.607 198.938 104.051ZM201.781 111.789V101.576H202.916V102.752H203.053C203.299 102.355 203.764 101.48 205.199 101.48C207.059 101.48 208.357 102.957 208.357 105.309C208.357 107.66 207.059 109.15 205.213 109.15C203.791 109.15 203.299 108.275 203.053 107.865H202.957V111.789H201.781ZM202.93 105.281C202.93 106.949 203.682 108.098 205.049 108.098C206.457 108.098 207.182 106.867 207.182 105.281C207.182 103.736 206.471 102.533 205.049 102.533C203.654 102.533 202.93 103.641 202.93 105.281ZM213.129 101.576V102.561H211.57V106.867C211.57 107.824 212.035 107.975 212.541 107.975C212.76 107.975 213.061 107.961 213.238 107.947V109.041C213.061 109.068 212.76 109.096 212.418 109.096C211.434 109.096 210.381 108.48 210.381 107.168V102.561H209.26V101.576H210.381V99.7988H211.57V101.576H213.129ZM214.646 109V101.576H215.822V109H214.646ZM215.234 100.346C214.783 100.346 214.414 100.004 214.414 99.5664C214.414 99.1289 214.783 98.7871 215.234 98.7871C215.686 98.7871 216.068 99.1289 216.068 99.5664C216.068 100.004 215.686 100.346 215.234 100.346ZM220.73 109.15C218.707 109.15 217.34 107.633 217.34 105.322C217.34 103.012 218.707 101.48 220.73 101.48C222.74 101.48 224.094 103.012 224.094 105.322C224.094 107.633 222.74 109.15 220.73 109.15ZM220.73 108.111C222.221 108.111 222.918 106.799 222.918 105.322C222.918 103.846 222.221 102.52 220.73 102.52C219.213 102.52 218.516 103.846 218.516 105.322C218.516 106.799 219.213 108.111 220.73 108.111ZM226.814 104.543V109H225.639V101.576H226.773V102.738H226.869C227.225 101.986 227.908 101.48 229.043 101.48C230.547 101.48 231.545 102.396 231.545 104.283V109H230.369V104.365C230.369 103.217 229.74 102.533 228.688 102.533C227.607 102.533 226.814 103.258 226.814 104.543Z" fill="var(--sol-element-primary)"/>
</g>
<g clip-path="url(#clip5_1670_175820)">
<path d="M298.335 33.834H308.335C308.979 33.8342 309.501 34.3568 309.501 35.001V45.001C309.501 45.6451 308.979 46.1668 308.335 46.167H298.335C297.691 46.167 297.168 45.6452 297.168 45.001V35.001C297.168 34.3566 297.691 33.834 298.335 33.834Z" stroke="var(--sol-element-primary)" stroke-opacity="0.16"/>
<path d="M328.795 40.0508C328.795 43.1816 326.949 45.1367 324.42 45.1367C321.877 45.1367 320.045 43.1816 320.045 40.0508C320.045 36.9199 321.877 34.9648 324.42 34.9648C326.949 34.9648 328.795 36.9199 328.795 40.0508ZM327.605 40.0508C327.605 37.4941 326.211 36.1133 324.42 36.1133C322.629 36.1133 321.234 37.4941 321.234 40.0508C321.234 42.6074 322.629 43.9883 324.42 43.9883C326.211 43.9883 327.605 42.6074 327.605 40.0508ZM330.449 47.7891V37.5762H331.584V38.752H331.721C331.967 38.3555 332.432 37.4805 333.867 37.4805C335.727 37.4805 337.025 38.957 337.025 41.3086C337.025 43.6602 335.727 45.1504 333.881 45.1504C332.459 45.1504 331.967 44.2754 331.721 43.8652H331.625V47.7891H330.449ZM331.598 41.2812C331.598 42.9492 332.35 44.0977 333.717 44.0977C335.125 44.0977 335.85 42.8672 335.85 41.2812C335.85 39.7363 335.139 38.5332 333.717 38.5332C332.322 38.5332 331.598 39.6406 331.598 41.2812ZM341.797 37.5762V38.5605H340.238V42.8672C340.238 43.8242 340.703 43.9746 341.209 43.9746C341.428 43.9746 341.729 43.9609 341.906 43.9473V45.041C341.729 45.0684 341.428 45.0957 341.086 45.0957C340.102 45.0957 339.049 44.4805 339.049 43.168V38.5605H337.928V37.5762H339.049V35.7988H340.238V37.5762H341.797ZM343.314 45V37.5762H344.49V45H343.314ZM343.902 36.3457C343.451 36.3457 343.082 36.0039 343.082 35.5664C343.082 35.1289 343.451 34.7871 343.902 34.7871C344.354 34.7871 344.736 35.1289 344.736 35.5664C344.736 36.0039 344.354 36.3457 343.902 36.3457ZM349.398 45.1504C347.375 45.1504 346.008 43.6328 346.008 41.3223C346.008 39.0117 347.375 37.4805 349.398 37.4805C351.408 37.4805 352.762 39.0117 352.762 41.3223C352.762 43.6328 351.408 45.1504 349.398 45.1504ZM349.398 44.1113C350.889 44.1113 351.586 42.7988 351.586 41.3223C351.586 39.8457 350.889 38.5195 349.398 38.5195C347.881 38.5195 347.184 39.8457 347.184 41.3223C347.184 42.7988 347.881 44.1113 349.398 44.1113ZM355.482 40.543V45H354.307V37.5762H355.441V38.7383H355.537C355.893 37.9863 356.576 37.4805 357.711 37.4805C359.215 37.4805 360.213 38.3965 360.213 40.2832V45H359.037V40.3652C359.037 39.2168 358.408 38.5332 357.355 38.5332C356.275 38.5332 355.482 39.2578 355.482 40.543Z" fill="var(--sol-element-primary)"/>
<path d="M298.335 65.834H308.335C308.979 65.8342 309.501 66.3568 309.501 67.001V77.001C309.501 77.6451 308.979 78.1668 308.335 78.167H298.335C297.691 78.167 297.168 77.6452 297.168 77.001V67.001C297.168 66.3566 297.691 65.834 298.335 65.834Z" stroke="var(--sol-element-primary)" stroke-opacity="0.16"/>
<path d="M328.795 72.0508C328.795 75.1816 326.949 77.1367 324.42 77.1367C321.877 77.1367 320.045 75.1816 320.045 72.0508C320.045 68.9199 321.877 66.9648 324.42 66.9648C326.949 66.9648 328.795 68.9199 328.795 72.0508ZM327.605 72.0508C327.605 69.4941 326.211 68.1133 324.42 68.1133C322.629 68.1133 321.234 69.4941 321.234 72.0508C321.234 74.6074 322.629 75.9883 324.42 75.9883C326.211 75.9883 327.605 74.6074 327.605 72.0508ZM330.449 79.7891V69.5762H331.584V70.752H331.721C331.967 70.3555 332.432 69.4805 333.867 69.4805C335.727 69.4805 337.025 70.957 337.025 73.3086C337.025 75.6602 335.727 77.1504 333.881 77.1504C332.459 77.1504 331.967 76.2754 331.721 75.8652H331.625V79.7891H330.449ZM331.598 73.2812C331.598 74.9492 332.35 76.0977 333.717 76.0977C335.125 76.0977 335.85 74.8672 335.85 73.2812C335.85 71.7363 335.139 70.5332 333.717 70.5332C332.322 70.5332 331.598 71.6406 331.598 73.2812ZM341.797 69.5762V70.5605H340.238V74.8672C340.238 75.8242 340.703 75.9746 341.209 75.9746C341.428 75.9746 341.729 75.9609 341.906 75.9473V77.041C341.729 77.0684 341.428 77.0957 341.086 77.0957C340.102 77.0957 339.049 76.4805 339.049 75.168V70.5605H337.928V69.5762H339.049V67.7988H340.238V69.5762H341.797ZM343.314 77V69.5762H344.49V77H343.314ZM343.902 68.3457C343.451 68.3457 343.082 68.0039 343.082 67.5664C343.082 67.1289 343.451 66.7871 343.902 66.7871C344.354 66.7871 344.736 67.1289 344.736 67.5664C344.736 68.0039 344.354 68.3457 343.902 68.3457ZM349.398 77.1504C347.375 77.1504 346.008 75.6328 346.008 73.3223C346.008 71.0117 347.375 69.4805 349.398 69.4805C351.408 69.4805 352.762 71.0117 352.762 73.3223C352.762 75.6328 351.408 77.1504 349.398 77.1504ZM349.398 76.1113C350.889 76.1113 351.586 74.7988 351.586 73.3223C351.586 71.8457 350.889 70.5195 349.398 70.5195C347.881 70.5195 347.184 71.8457 347.184 73.3223C347.184 74.7988 347.881 76.1113 349.398 76.1113ZM355.482 72.543V77H354.307V69.5762H355.441V70.7383H355.537C355.893 69.9863 356.576 69.4805 357.711 69.4805C359.215 69.4805 360.213 70.3965 360.213 72.2832V77H359.037V72.3652C359.037 71.2168 358.408 70.5332 357.355 70.5332C356.275 70.5332 355.482 71.2578 355.482 72.543Z" fill="var(--sol-element-primary)"/>
</g>
</g>
<defs>
<clipPath id="clip0_1670_175820">
<path d="M0 8C0 3.58173 3.58172 0 8 0H434C438.418 0 442 3.58172 442 8V136C442 140.418 438.418 144 434 144H8C3.58172 144 0 140.418 0 136V8Z" fill="var(--sol-surface)"/>
</clipPath>
<clipPath id="clip1_1670_175820">
<rect width="112.667" height="96" fill="var(--sol-surface)" transform="translate(36 24)"/>
</clipPath>
<clipPath id="clip2_1670_175820">
<rect width="112.667" height="96" fill="var(--sol-surface)" transform="translate(164.666 24)"/>
</clipPath>
<clipPath id="clip3_1670_175820">
<path d="M168 35.334C168 34.2294 168.895 33.334 170 33.334H179.333C180.438 33.334 181.333 34.2294 181.333 35.334V44.6673C181.333 45.7719 180.438 46.6673 179.333 46.6673H170C168.895 46.6673 168 45.7719 168 44.6673V35.334Z" fill="var(--sol-surface)"/>
</clipPath>
<clipPath id="clip4_1670_175820">
<path d="M168 99.334C168 98.2294 168.895 97.334 170 97.334H179.333C180.438 97.334 181.333 98.2294 181.333 99.334V108.667C181.333 109.772 180.438 110.667 179.333 110.667H170C168.895 110.667 168 109.772 168 108.667V99.334Z" fill="var(--sol-surface)"/>
</clipPath>
<clipPath id="clip5_1670_175820">
<rect width="112.667" height="64" fill="var(--sol-surface)" transform="translate(293.334 24)"/>
</clipPath>
</defs>
</svg>
