<svg width="442" height="144" viewBox="0 0 442 144" fill="none" xmlns="http://www.w3.org/2000/svg">
<style>
:root {
  --sol-element-primary: #161616;
  --sol-element-tertiary: #636363;
  --sol-element-quaternary: #858585;
  --sol-fill-active: #4d469a;
  --sol-surface: #ffffff;
  --sol-error: #e76067;
  --sol-error-dim: #b84451;
  --sol-static-white: #ffffff;
  --sol-static-black: #000000;
}
@media (prefers-color-scheme: dark) {
  :root {
    --sol-element-primary: #ffffff;
    --sol-element-tertiary: rgba(255, 255, 255, 0.6);
    --sol-element-quaternary: rgba(255, 255, 255, 0.5);
    --sol-fill-active: #7b74c4;
    --sol-surface: #161616;
    --sol-error: #ee7a80;
    --sol-error-dim: #e76067;
  }
}
</style>
<g clip-path="url(#clip0_1670_175826)">
<g clip-path="url(#clip1_1670_175826)">
<g clip-path="url(#clip2_1670_175826)">
<path d="M109.834 51.334C109.834 50.2294 110.729 49.334 111.834 49.334H121.167C122.272 49.334 123.167 50.2294 123.167 51.334V60.6673C123.167 61.7719 122.272 62.6673 121.167 62.6673H111.834C110.729 62.6673 109.834 61.7719 109.834 60.6673V51.334Z" fill="var(--sol-fill-active)"/>
<path d="M121.546 53.2686L115.381 59.4345C115.136 59.6785 114.741 59.6785 114.497 59.4345L111.453 56.3908L112.337 55.5071L114.938 58.1085L120.663 52.3848L121.546 53.2686Z" fill="var(--sol-surface)"/>
</g>
<path d="M133.594 51.1016H135.07L138.406 59.25H138.529L141.865 51.1016H143.342V61H142.18V53.5215H142.084L139.008 61H137.914L134.838 53.5215H134.756V61H133.594V51.1016ZM145.023 58.8945C145.023 57.1855 146.527 56.8027 147.812 56.707C148.284 56.6729 149.487 56.6113 149.822 56.5977V55.9961C149.822 55.0527 149.262 54.5059 148.141 54.5059C147.197 54.5059 146.637 54.9434 146.473 55.5039H145.242C145.393 54.3145 146.555 53.4805 148.195 53.4805C149.166 53.4805 150.984 53.7676 150.984 56.1055V61H149.822V59.9883H149.768C149.521 60.4941 148.838 61.1777 147.553 61.1777C146.145 61.1777 145.023 60.3438 145.023 58.8945ZM146.199 58.9492C146.199 59.7285 146.855 60.125 147.758 60.125C149.084 60.125 149.822 59.2363 149.822 58.3066V57.5547L147.949 57.6914C146.883 57.7598 146.199 58.1426 146.199 58.9492ZM154.047 51.1016V61H152.871V51.1016H154.047ZM159.037 61.1504C156.891 61.1504 155.564 59.6328 155.564 57.3496C155.564 55.0664 156.904 53.4805 158.928 53.4805C160.486 53.4805 162.127 54.4375 162.127 57.1855V57.6777H156.74C156.795 59.25 157.711 60.1113 159.037 60.1113C159.926 60.1113 160.486 59.7285 160.76 59.2637H162.018C161.662 60.3848 160.568 61.1504 159.037 61.1504ZM156.754 56.6797H160.938C160.938 55.4355 160.145 54.5195 158.928 54.5195C157.643 54.5195 156.822 55.5312 156.754 56.6797Z" fill="var(--sol-element-primary)"/>
<path d="M111.501 81.834H121.501C122.145 81.8342 122.667 82.3568 122.667 83.001V93.001C122.667 93.6451 122.145 94.1668 121.501 94.167H111.501C110.857 94.167 110.334 93.6452 110.334 93.001V83.001C110.334 82.3566 110.857 81.834 111.501 81.834Z" stroke="var(--sol-element-primary)" stroke-opacity="0.16"/>
<path d="M133.594 93V83.1016H139.555V84.1953H134.824V87.5039H139.104V88.584H134.824V93H133.594ZM143.82 93.1504C141.674 93.1504 140.348 91.6328 140.348 89.3496C140.348 87.0664 141.688 85.4805 143.711 85.4805C145.27 85.4805 146.91 86.4375 146.91 89.1855V89.6777H141.523C141.578 91.25 142.494 92.1113 143.82 92.1113C144.709 92.1113 145.27 91.7285 145.543 91.2637H146.801C146.445 92.3848 145.352 93.1504 143.82 93.1504ZM141.537 88.6797H145.721C145.721 87.4355 144.928 86.5195 143.711 86.5195C142.426 86.5195 141.605 87.5312 141.537 88.6797ZM148.441 93V85.5762H149.576V86.7383H149.672C149.986 85.9453 150.697 85.4805 151.668 85.4805C152.639 85.4805 153.295 85.9453 153.65 86.7383H153.732C154.115 85.9727 154.895 85.4805 155.961 85.4805C157.287 85.4805 158.23 86.2871 158.23 88.0371V93H157.055V88.0508C157.055 86.957 156.357 86.5332 155.551 86.5332C154.512 86.5332 153.924 87.2305 153.924 88.1738V93H152.734V87.9277C152.734 87.0938 152.133 86.5332 151.285 86.5332C150.396 86.5332 149.617 87.2852 149.617 88.3652V93H148.441ZM159.762 90.8945C159.762 89.1855 161.266 88.8027 162.551 88.707C163.022 88.6729 164.226 88.6113 164.561 88.5977V87.9961C164.561 87.0527 164 86.5059 162.879 86.5059C161.936 86.5059 161.375 86.9434 161.211 87.5039H159.98C160.131 86.3145 161.293 85.4805 162.934 85.4805C163.904 85.4805 165.723 85.7676 165.723 88.1055V93H164.561V91.9883H164.506C164.26 92.4941 163.576 93.1777 162.291 93.1777C160.883 93.1777 159.762 92.3438 159.762 90.8945ZM160.938 90.9492C160.938 91.7285 161.594 92.125 162.496 92.125C163.822 92.125 164.561 91.2363 164.561 90.3066V89.5547L162.688 89.6914C161.621 89.7598 160.938 90.1426 160.938 90.9492ZM168.785 83.1016V93H167.609V83.1016H168.785ZM173.775 93.1504C171.629 93.1504 170.303 91.6328 170.303 89.3496C170.303 87.0664 171.643 85.4805 173.666 85.4805C175.225 85.4805 176.865 86.4375 176.865 89.1855V89.6777H171.479C171.533 91.25 172.449 92.1113 173.775 92.1113C174.664 92.1113 175.225 91.7285 175.498 91.2637H176.756C176.4 92.3848 175.307 93.1504 173.775 93.1504ZM171.492 88.6797H175.676C175.676 87.4355 174.883 86.5195 173.666 86.5195C172.381 86.5195 171.561 87.5312 171.492 88.6797Z" fill="var(--sol-element-primary)"/>
</g>
</g>
<defs>
<clipPath id="clip0_1670_175826">
<path d="M0 8C0 3.58173 3.58172 0 8 0H434C438.418 0 442 3.58172 442 8V136C442 140.418 438.418 144 434 144H8C3.58172 144 0 140.418 0 136V8Z" fill="var(--sol-surface)"/>
</clipPath>
<clipPath id="clip1_1670_175826">
<rect width="229" height="64" fill="var(--sol-surface)" transform="translate(106.5 40)"/>
</clipPath>
<clipPath id="clip2_1670_175826">
<path d="M109.834 51.334C109.834 50.2294 110.729 49.334 111.834 49.334H121.167C122.272 49.334 123.167 50.2294 123.167 51.334V60.6673C123.167 61.7719 122.272 62.6673 121.167 62.6673H111.834C110.729 62.6673 109.834 61.7719 109.834 60.6673V51.334Z" fill="var(--sol-surface)"/>
</clipPath>
</defs>
</svg>
