<svg width="442" height="260" viewBox="0 0 442 260" fill="none" xmlns="http://www.w3.org/2000/svg">
<style>
:root {
  --sol-element-primary: #161616;
  --sol-element-tertiary: #636363;
  --sol-element-quaternary: #858585;
  --sol-fill-active: #4d469a;
  --sol-surface: #ffffff;
  --sol-error: #e76067;
  --sol-error-dim: #b84451;
  --sol-static-white: #ffffff;
  --sol-static-black: #000000;
}
@media (prefers-color-scheme: dark) {
  :root {
    --sol-element-primary: #ffffff;
    --sol-element-tertiary: rgba(255, 255, 255, 0.6);
    --sol-element-quaternary: rgba(255, 255, 255, 0.5);
    --sol-fill-active: #7b74c4;
    --sol-surface: #161616;
    --sol-error: #ee7a80;
    --sol-error-dim: #e76067;
  }
}
</style>
<g clip-path="url(#clip0_1670_176795)">
<g clip-path="url(#clip1_1670_176795)">
<g clip-path="url(#clip2_1670_176795)">
<path d="M25.334 75.334C25.334 74.2294 26.2294 73.334 27.334 73.334H36.6673C37.7719 73.334 38.6673 74.2294 38.6673 75.334V84.6673C38.6673 85.7719 37.7719 86.6673 36.6673 86.6673H27.334C26.2294 86.6673 25.334 85.7719 25.334 84.6673V75.334Z" fill="var(--sol-fill-active)"/>
<path d="M37.0464 77.2686L30.8805 83.4345C30.6365 83.6785 30.2408 83.6785 29.9967 83.4345L26.9531 80.3908L27.8369 79.5071L30.4384 82.1085L36.1627 76.3848L37.0464 77.2686Z" fill="var(--sol-surface)"/>
</g>
<path d="M48.5469 76.1953V75.1016H56.0117V76.1953H52.9082V85H51.6641V76.1953H48.5469ZM58.6777 80.543V85H57.502V75.1016H58.6777V78.7383H58.7734C59.1152 77.9727 59.7852 77.4805 60.9609 77.4805C62.4785 77.4805 63.4902 78.3828 63.4902 80.2832V85H62.3145V80.3652C62.3145 79.2031 61.6719 78.5332 60.6055 78.5332C59.498 78.5332 58.6777 79.2578 58.6777 80.543ZM65.377 85V77.5762H66.5527V85H65.377ZM65.9648 76.3457C65.5137 76.3457 65.1445 76.0039 65.1445 75.5664C65.1445 75.1289 65.5137 74.7871 65.9648 74.7871C66.416 74.7871 66.7988 75.1289 66.7988 75.5664C66.7988 76.0039 66.416 76.3457 65.9648 76.3457ZM72.5547 79.5039C72.3906 78.8887 71.9258 78.4785 71.0508 78.4785C70.1348 78.4785 69.4785 78.9707 69.4785 79.5996C69.4785 80.0918 69.875 80.4336 70.75 80.6387L71.8574 80.9121C73.1836 81.2266 73.8398 81.8828 73.8398 82.9219C73.8398 84.207 72.7871 85.1504 70.9277 85.1504C69.2598 85.1504 68.2617 84.4121 68.0703 83.0586H69.3008C69.4375 83.7832 69.9707 84.125 70.9004 84.125C71.9531 84.125 72.623 83.6875 72.623 82.9902C72.623 82.4707 72.2539 82.1152 71.4062 81.9238L70.2852 81.6641C68.9863 81.3633 68.3027 80.6523 68.3027 79.668C68.3027 78.3965 69.4102 77.4805 71.0508 77.4805C72.582 77.4805 73.5527 78.3008 73.7031 79.5039H72.5547ZM78.5293 82.8945C78.5293 81.1855 80.0332 80.8027 81.3184 80.707C81.79 80.6729 82.9932 80.6113 83.3281 80.5977V79.9961C83.3281 79.0527 82.7676 78.5059 81.6465 78.5059C80.7031 78.5059 80.1426 78.9434 79.9785 79.5039H78.748C78.8984 78.3145 80.0605 77.4805 81.7012 77.4805C82.6719 77.4805 84.4902 77.7676 84.4902 80.1055V85H83.3281V83.9883H83.2734C83.0273 84.4941 82.3438 85.1777 81.0586 85.1777C79.6504 85.1777 78.5293 84.3438 78.5293 82.8945ZM79.7051 82.9492C79.7051 83.7285 80.3613 84.125 81.2637 84.125C82.5898 84.125 83.3281 83.2363 83.3281 82.3066V81.5547L81.4551 81.6914C80.3887 81.7598 79.7051 82.1426 79.7051 82.9492ZM86.377 85V77.5762H87.5117V78.7109H87.5938C87.8672 77.959 88.6328 77.4531 89.5078 77.4531C89.6855 77.4531 89.9863 77.4668 90.123 77.4805V78.6699C90.041 78.6426 89.7129 78.5879 89.4121 78.5879C88.3457 78.5879 87.5527 79.3262 87.5527 80.3242V85H86.377ZM94.1562 85.1504C92.0098 85.1504 90.6836 83.6328 90.6836 81.3496C90.6836 79.0664 92.0234 77.4805 94.0469 77.4805C95.6055 77.4805 97.2461 78.4375 97.2461 81.1855V81.6777H91.8594C91.9141 83.25 92.8301 84.1113 94.1562 84.1113C95.0449 84.1113 95.6055 83.7285 95.8789 83.2637H97.1367C96.7812 84.3848 95.6875 85.1504 94.1562 85.1504ZM91.873 80.6797H96.0566C96.0566 79.4355 95.2637 78.5195 94.0469 78.5195C92.7617 78.5195 91.9414 79.5312 91.873 80.6797ZM98.4219 82.8945C98.4219 81.1855 99.9258 80.8027 101.211 80.707C101.683 80.6729 102.886 80.6113 103.221 80.5977V79.9961C103.221 79.0527 102.66 78.5059 101.539 78.5059C100.596 78.5059 100.035 78.9434 99.8711 79.5039H98.6406C98.791 78.3145 99.9531 77.4805 101.594 77.4805C102.564 77.4805 104.383 77.7676 104.383 80.1055V85H103.221V83.9883H103.166C102.92 84.4941 102.236 85.1777 100.951 85.1777C99.543 85.1777 98.4219 84.3438 98.4219 82.8945ZM99.5977 82.9492C99.5977 83.7285 100.254 84.125 101.156 84.125C102.482 84.125 103.221 83.2363 103.221 82.3066V81.5547L101.348 81.6914C100.281 81.7598 99.5977 82.1426 99.5977 82.9492ZM109.783 87.7891V77.5762H110.918V78.752H111.055C111.301 78.3555 111.766 77.4805 113.201 77.4805C115.061 77.4805 116.359 78.957 116.359 81.3086C116.359 83.6602 115.061 85.1504 113.215 85.1504C111.793 85.1504 111.301 84.2754 111.055 83.8652H110.959V87.7891H109.783ZM110.932 81.2812C110.932 82.9492 111.684 84.0977 113.051 84.0977C114.459 84.0977 115.184 82.8672 115.184 81.2812C115.184 79.7363 114.473 78.5332 113.051 78.5332C111.656 78.5332 110.932 79.6406 110.932 81.2812ZM117.891 85V77.5762H119.025V78.7109H119.107C119.381 77.959 120.146 77.4531 121.021 77.4531C121.199 77.4531 121.5 77.4668 121.637 77.4805V78.6699C121.555 78.6426 121.227 78.5879 120.926 78.5879C119.859 78.5879 119.066 79.3262 119.066 80.3242V85H117.891ZM125.588 85.1504C123.564 85.1504 122.197 83.6328 122.197 81.3223C122.197 79.0117 123.564 77.4805 125.588 77.4805C127.598 77.4805 128.951 79.0117 128.951 81.3223C128.951 83.6328 127.598 85.1504 125.588 85.1504ZM125.588 84.1113C127.078 84.1113 127.775 82.7988 127.775 81.3223C127.775 79.8457 127.078 78.5195 125.588 78.5195C124.07 78.5195 123.373 79.8457 123.373 81.3223C123.373 82.7988 124.07 84.1113 125.588 84.1113ZM136.334 77.5762L133.586 85H132.369L129.635 77.5762H130.92L132.943 83.4688H133.025L135.049 77.5762H136.334ZM137.633 85V77.5762H138.809V85H137.633ZM138.221 76.3457C137.77 76.3457 137.4 76.0039 137.4 75.5664C137.4 75.1289 137.77 74.7871 138.221 74.7871C138.672 74.7871 139.055 75.1289 139.055 75.5664C139.055 76.0039 138.672 76.3457 138.221 76.3457ZM143.484 85.1504C141.639 85.1504 140.326 83.6602 140.326 81.3086C140.326 78.957 141.639 77.4805 143.498 77.4805C144.934 77.4805 145.398 78.3555 145.645 78.752H145.727V75.1016H146.916V85H145.768V83.8652H145.645C145.385 84.2754 144.906 85.1504 143.484 85.1504ZM143.648 84.0977C145.002 84.0977 145.768 82.9492 145.768 81.2812C145.768 79.6406 145.029 78.5332 143.648 78.5332C142.227 78.5332 141.516 79.7363 141.516 81.2812C141.516 82.8672 142.24 84.0977 143.648 84.0977ZM152.07 85.1504C149.924 85.1504 148.598 83.6328 148.598 81.3496C148.598 79.0664 149.938 77.4805 151.961 77.4805C153.52 77.4805 155.16 78.4375 155.16 81.1855V81.6777H149.773C149.828 83.25 150.744 84.1113 152.07 84.1113C152.959 84.1113 153.52 83.7285 153.793 83.2637H155.051C154.695 84.3848 153.602 85.1504 152.07 85.1504ZM149.787 80.6797H153.971C153.971 79.4355 153.178 78.5195 151.961 78.5195C150.676 78.5195 149.855 79.5312 149.787 80.6797ZM160.82 79.5039C160.656 78.8887 160.191 78.4785 159.316 78.4785C158.4 78.4785 157.744 78.9707 157.744 79.5996C157.744 80.0918 158.141 80.4336 159.016 80.6387L160.123 80.9121C161.449 81.2266 162.105 81.8828 162.105 82.9219C162.105 84.207 161.053 85.1504 159.193 85.1504C157.525 85.1504 156.527 84.4121 156.336 83.0586H157.566C157.703 83.7832 158.236 84.125 159.166 84.125C160.219 84.125 160.889 83.6875 160.889 82.9902C160.889 82.4707 160.52 82.1152 159.672 81.9238L158.551 81.6641C157.252 81.3633 156.568 80.6523 156.568 79.668C156.568 78.3965 157.676 77.4805 159.316 77.4805C160.848 77.4805 161.818 78.3008 161.969 79.5039H160.82ZM166.795 82.8945C166.795 81.1855 168.299 80.8027 169.584 80.707C170.056 80.6729 171.259 80.6113 171.594 80.5977V79.9961C171.594 79.0527 171.033 78.5059 169.912 78.5059C168.969 78.5059 168.408 78.9434 168.244 79.5039H167.014C167.164 78.3145 168.326 77.4805 169.967 77.4805C170.938 77.4805 172.756 77.7676 172.756 80.1055V85H171.594V83.9883H171.539C171.293 84.4941 170.609 85.1777 169.324 85.1777C167.916 85.1777 166.795 84.3438 166.795 82.8945ZM167.971 82.9492C167.971 83.7285 168.627 84.125 169.529 84.125C170.855 84.125 171.594 83.2363 171.594 82.3066V81.5547L169.721 81.6914C168.654 81.7598 167.971 82.1426 167.971 82.9492ZM177.445 85.1504C175.6 85.1504 174.287 83.6602 174.287 81.3086C174.287 78.957 175.6 77.4805 177.459 77.4805C178.895 77.4805 179.359 78.3555 179.605 78.752H179.688V75.1016H180.877V85H179.729V83.8652H179.605C179.346 84.2754 178.867 85.1504 177.445 85.1504ZM177.609 84.0977C178.963 84.0977 179.729 82.9492 179.729 81.2812C179.729 79.6406 178.99 78.5332 177.609 78.5332C176.188 78.5332 175.477 79.7363 175.477 81.2812C175.477 82.8672 176.201 84.0977 177.609 84.0977ZM185.717 85.1504C183.871 85.1504 182.559 83.6602 182.559 81.3086C182.559 78.957 183.871 77.4805 185.73 77.4805C187.166 77.4805 187.631 78.3555 187.877 78.752H187.959V75.1016H189.148V85H188V83.8652H187.877C187.617 84.2754 187.139 85.1504 185.717 85.1504ZM185.881 84.0977C187.234 84.0977 188 82.9492 188 81.2812C188 79.6406 187.262 78.5332 185.881 78.5332C184.459 78.5332 183.748 79.7363 183.748 81.2812C183.748 82.8672 184.473 84.0977 185.881 84.0977ZM191.186 85V77.5762H192.361V85H191.186ZM191.773 76.3457C191.322 76.3457 190.953 76.0039 190.953 75.5664C190.953 75.1289 191.322 74.7871 191.773 74.7871C192.225 74.7871 192.607 75.1289 192.607 75.5664C192.607 76.0039 192.225 76.3457 191.773 76.3457ZM197.475 77.5762V78.5605H195.916V82.8672C195.916 83.8242 196.381 83.9746 196.887 83.9746C197.105 83.9746 197.406 83.9609 197.584 83.9473V85.041C197.406 85.0684 197.105 85.0957 196.764 85.0957C195.779 85.0957 194.727 84.4805 194.727 83.168V78.5605H193.605V77.5762H194.727V75.7988H195.916V77.5762H197.475ZM198.992 85V77.5762H200.168V85H198.992ZM199.58 76.3457C199.129 76.3457 198.76 76.0039 198.76 75.5664C198.76 75.1289 199.129 74.7871 199.58 74.7871C200.031 74.7871 200.414 75.1289 200.414 75.5664C200.414 76.0039 200.031 76.3457 199.58 76.3457ZM205.076 85.1504C203.053 85.1504 201.686 83.6328 201.686 81.3223C201.686 79.0117 203.053 77.4805 205.076 77.4805C207.086 77.4805 208.439 79.0117 208.439 81.3223C208.439 83.6328 207.086 85.1504 205.076 85.1504ZM205.076 84.1113C206.566 84.1113 207.264 82.7988 207.264 81.3223C207.264 79.8457 206.566 78.5195 205.076 78.5195C203.559 78.5195 202.861 79.8457 202.861 81.3223C202.861 82.7988 203.559 84.1113 205.076 84.1113ZM211.16 80.543V85H209.984V77.5762H211.119V78.7383H211.215C211.57 77.9863 212.254 77.4805 213.389 77.4805C214.893 77.4805 215.891 78.3965 215.891 80.2832V85H214.715V80.3652C214.715 79.2168 214.086 78.5332 213.033 78.5332C211.953 78.5332 211.16 79.2578 211.16 80.543ZM217.422 82.8945C217.422 81.1855 218.926 80.8027 220.211 80.707C220.683 80.6729 221.886 80.6113 222.221 80.5977V79.9961C222.221 79.0527 221.66 78.5059 220.539 78.5059C219.596 78.5059 219.035 78.9434 218.871 79.5039H217.641C217.791 78.3145 218.953 77.4805 220.594 77.4805C221.564 77.4805 223.383 77.7676 223.383 80.1055V85H222.221V83.9883H222.166C221.92 84.4941 221.236 85.1777 219.951 85.1777C218.543 85.1777 217.422 84.3438 217.422 82.8945ZM218.598 82.9492C218.598 83.7285 219.254 84.125 220.156 84.125C221.482 84.125 222.221 83.2363 222.221 82.3066V81.5547L220.348 81.6914C219.281 81.7598 218.598 82.1426 218.598 82.9492ZM226.445 75.1016V85H225.27V75.1016H226.445ZM231.832 85V77.5762H233.008V85H231.832ZM232.42 76.3457C231.969 76.3457 231.6 76.0039 231.6 75.5664C231.6 75.1289 231.969 74.7871 232.42 74.7871C232.871 74.7871 233.254 75.1289 233.254 75.5664C233.254 76.0039 232.871 76.3457 232.42 76.3457ZM236.057 80.543V85H234.881V77.5762H236.016V78.7383H236.111C236.467 77.9863 237.15 77.4805 238.285 77.4805C239.789 77.4805 240.787 78.3965 240.787 80.2832V85H239.611V80.3652C239.611 79.2168 238.982 78.5332 237.93 78.5332C236.85 78.5332 236.057 79.2578 236.057 80.543ZM245.996 77.5762V78.5605H244.355V85H243.166V78.5605H241.977V77.5762H243.166V76.5645C243.166 75.3613 243.973 74.6367 245.285 74.6367C245.572 74.6367 245.914 74.6777 246.16 74.7188V75.7715C245.914 75.7305 245.695 75.7168 245.545 75.7168C244.725 75.7168 244.355 76.0586 244.355 76.8242V77.5762H245.996ZM250.125 85.1504C248.102 85.1504 246.734 83.6328 246.734 81.3223C246.734 79.0117 248.102 77.4805 250.125 77.4805C252.135 77.4805 253.488 79.0117 253.488 81.3223C253.488 83.6328 252.135 85.1504 250.125 85.1504ZM250.125 84.1113C251.615 84.1113 252.312 82.7988 252.312 81.3223C252.312 79.8457 251.615 78.5195 250.125 78.5195C248.607 78.5195 247.91 79.8457 247.91 81.3223C247.91 82.7988 248.607 84.1113 250.125 84.1113ZM255.033 85V77.5762H256.168V78.7109H256.25C256.523 77.959 257.289 77.4531 258.164 77.4531C258.342 77.4531 258.643 77.4668 258.779 77.4805V78.6699C258.697 78.6426 258.369 78.5879 258.068 78.5879C257.002 78.5879 256.209 79.3262 256.209 80.3242V85H255.033ZM259.928 85V77.5762H261.062V78.7383H261.158C261.473 77.9453 262.184 77.4805 263.154 77.4805C264.125 77.4805 264.781 77.9453 265.137 78.7383H265.219C265.602 77.9727 266.381 77.4805 267.447 77.4805C268.773 77.4805 269.717 78.2871 269.717 80.0371V85H268.541V80.0508C268.541 78.957 267.844 78.5332 267.037 78.5332C265.998 78.5332 265.41 79.2305 265.41 80.1738V85H264.221V79.9277C264.221 79.0938 263.619 78.5332 262.771 78.5332C261.883 78.5332 261.104 79.2852 261.104 80.3652V85H259.928ZM271.248 82.8945C271.248 81.1855 272.752 80.8027 274.037 80.707C274.509 80.6729 275.712 80.6113 276.047 80.5977V79.9961C276.047 79.0527 275.486 78.5059 274.365 78.5059C273.422 78.5059 272.861 78.9434 272.697 79.5039H271.467C271.617 78.3145 272.779 77.4805 274.42 77.4805C275.391 77.4805 277.209 77.7676 277.209 80.1055V85H276.047V83.9883H275.992C275.746 84.4941 275.062 85.1777 273.777 85.1777C272.369 85.1777 271.248 84.3438 271.248 82.8945ZM272.424 82.9492C272.424 83.7285 273.08 84.125 273.982 84.125C275.309 84.125 276.047 83.2363 276.047 82.3066V81.5547L274.174 81.6914C273.107 81.7598 272.424 82.1426 272.424 82.9492ZM282.336 77.5762V78.5605H280.777V82.8672C280.777 83.8242 281.242 83.9746 281.748 83.9746C281.967 83.9746 282.268 83.9609 282.445 83.9473V85.041C282.268 85.0684 281.967 85.0957 281.625 85.0957C280.641 85.0957 279.588 84.4805 279.588 83.168V78.5605H278.467V77.5762H279.588V75.7988H280.777V77.5762H282.336ZM283.854 85V77.5762H285.029V85H283.854ZM284.441 76.3457C283.99 76.3457 283.621 76.0039 283.621 75.5664C283.621 75.1289 283.99 74.7871 284.441 74.7871C284.893 74.7871 285.275 75.1289 285.275 75.5664C285.275 76.0039 284.893 76.3457 284.441 76.3457ZM289.938 85.1504C287.914 85.1504 286.547 83.6328 286.547 81.3223C286.547 79.0117 287.914 77.4805 289.938 77.4805C291.947 77.4805 293.301 79.0117 293.301 81.3223C293.301 83.6328 291.947 85.1504 289.938 85.1504ZM289.938 84.1113C291.428 84.1113 292.125 82.7988 292.125 81.3223C292.125 79.8457 291.428 78.5195 289.938 78.5195C288.42 78.5195 287.723 79.8457 287.723 81.3223C287.723 82.7988 288.42 84.1113 289.938 84.1113ZM296.021 80.543V85H294.846V77.5762H295.98V78.7383H296.076C296.432 77.9863 297.115 77.4805 298.25 77.4805C299.754 77.4805 300.752 78.3965 300.752 80.2832V85H299.576V80.3652C299.576 79.2168 298.947 78.5332 297.895 78.5332C296.814 78.5332 296.021 79.2578 296.021 80.543ZM305.797 82.8945C305.797 81.1855 307.301 80.8027 308.586 80.707C309.058 80.6729 310.261 80.6113 310.596 80.5977V79.9961C310.596 79.0527 310.035 78.5059 308.914 78.5059C307.971 78.5059 307.41 78.9434 307.246 79.5039H306.016C306.166 78.3145 307.328 77.4805 308.969 77.4805C309.939 77.4805 311.758 77.7676 311.758 80.1055V85H310.596V83.9883H310.541C310.295 84.4941 309.611 85.1777 308.326 85.1777C306.918 85.1777 305.797 84.3438 305.797 82.8945ZM306.973 82.9492C306.973 83.7285 307.629 84.125 308.531 84.125C309.857 84.125 310.596 83.2363 310.596 82.3066V81.5547L308.723 81.6914C307.656 81.7598 306.973 82.1426 306.973 82.9492ZM313.795 85V75.1016H314.971V78.752H315.066C315.326 78.3555 315.764 77.4805 317.213 77.4805C319.072 77.4805 320.385 78.957 320.385 81.3086C320.385 83.6602 319.072 85.1504 317.227 85.1504C315.805 85.1504 315.326 84.2754 315.066 83.8652H314.93V85H313.795ZM314.943 81.2812C314.943 82.9492 315.695 84.0977 317.049 84.0977C318.457 84.0977 319.195 82.8672 319.195 81.2812C319.195 79.7363 318.484 78.5332 317.049 78.5332C315.682 78.5332 314.943 79.6406 314.943 81.2812ZM324.951 85.1504C322.928 85.1504 321.561 83.6328 321.561 81.3223C321.561 79.0117 322.928 77.4805 324.951 77.4805C326.961 77.4805 328.314 79.0117 328.314 81.3223C328.314 83.6328 326.961 85.1504 324.951 85.1504ZM324.951 84.1113C326.441 84.1113 327.139 82.7988 327.139 81.3223C327.139 79.8457 326.441 78.5195 324.951 78.5195C323.434 78.5195 322.736 79.8457 322.736 81.3223C322.736 82.7988 323.434 84.1113 324.951 84.1113ZM334.549 81.9512V77.5762H335.711V85H334.549V83.7422H334.467C334.111 84.4941 333.387 85.0957 332.266 85.0957C330.857 85.0957 329.859 84.1797 329.859 82.293V77.5762H331.035V82.2109C331.035 83.2773 331.705 83.9609 332.648 83.9609C333.482 83.9609 334.549 83.332 334.549 81.9512ZM340.838 77.5762V78.5605H339.279V82.8672C339.279 83.8242 339.744 83.9746 340.25 83.9746C340.469 83.9746 340.77 83.9609 340.947 83.9473V85.041C340.77 85.0684 340.469 85.0957 340.127 85.0957C339.143 85.0957 338.09 84.4805 338.09 83.168V78.5605H336.969V77.5762H338.09V75.7988H339.279V77.5762H340.838ZM349.109 77.5762V78.5605H347.551V82.8672C347.551 83.8242 348.016 83.9746 348.521 83.9746C348.74 83.9746 349.041 83.9609 349.219 83.9473V85.041C349.041 85.0684 348.74 85.0957 348.398 85.0957C347.414 85.0957 346.361 84.4805 346.361 83.168V78.5605H345.24V77.5762H346.361V75.7988H347.551V77.5762H349.109ZM351.967 80.543V85H350.791V75.1016H351.967V78.7383H352.062C352.404 77.9727 353.074 77.4805 354.25 77.4805C355.768 77.4805 356.779 78.3828 356.779 80.2832V85H355.604V80.3652C355.604 79.2031 354.961 78.5332 353.895 78.5332C352.787 78.5332 351.967 79.2578 351.967 80.543ZM361.783 85.1504C359.637 85.1504 358.311 83.6328 358.311 81.3496C358.311 79.0664 359.65 77.4805 361.674 77.4805C363.232 77.4805 364.873 78.4375 364.873 81.1855V81.6777H359.486C359.541 83.25 360.457 84.1113 361.783 84.1113C362.672 84.1113 363.232 83.7285 363.506 83.2637H364.764C364.408 84.3848 363.314 85.1504 361.783 85.1504ZM359.5 80.6797H363.684C363.684 79.4355 362.891 78.5195 361.674 78.5195C360.389 78.5195 359.568 79.5312 359.5 80.6797ZM53.0723 99.5039C52.9082 98.8887 52.4434 98.4785 51.5684 98.4785C50.6523 98.4785 49.9961 98.9707 49.9961 99.5996C49.9961 100.092 50.3926 100.434 51.2676 100.639L52.375 100.912C53.7012 101.227 54.3574 101.883 54.3574 102.922C54.3574 104.207 53.3047 105.15 51.4453 105.15C49.7773 105.15 48.7793 104.412 48.5879 103.059H49.8184C49.9551 103.783 50.4883 104.125 51.418 104.125C52.4707 104.125 53.1406 103.688 53.1406 102.99C53.1406 102.471 52.7715 102.115 51.9238 101.924L50.8027 101.664C49.5039 101.363 48.8203 100.652 48.8203 99.668C48.8203 98.3965 49.9277 97.4805 51.5684 97.4805C53.0996 97.4805 54.0703 98.3008 54.2207 99.5039H53.0723ZM59.0059 105.15C56.8594 105.15 55.5332 103.633 55.5332 101.35C55.5332 99.0664 56.873 97.4805 58.8965 97.4805C60.4551 97.4805 62.0957 98.4375 62.0957 101.186V101.678H56.709C56.7637 103.25 57.6797 104.111 59.0059 104.111C59.8945 104.111 60.4551 103.729 60.7285 103.264H61.9863C61.6309 104.385 60.5371 105.15 59.0059 105.15ZM56.7227 100.68H60.9062C60.9062 99.4355 60.1133 98.5195 58.8965 98.5195C57.6113 98.5195 56.791 99.5312 56.7227 100.68ZM64.8027 95.1016V105H63.627V95.1016H64.8027ZM69.793 105.15C67.6465 105.15 66.3203 103.633 66.3203 101.35C66.3203 99.0664 67.6602 97.4805 69.6836 97.4805C71.2422 97.4805 72.8828 98.4375 72.8828 101.186V101.678H67.4961C67.5508 103.25 68.4668 104.111 69.793 104.111C70.6816 104.111 71.2422 103.729 71.5156 103.264H72.7734C72.418 104.385 71.3242 105.15 69.793 105.15ZM67.5098 100.68H71.6934C71.6934 99.4355 70.9004 98.5195 69.6836 98.5195C68.3984 98.5195 67.5781 99.5312 67.5098 100.68ZM77.4492 105.15C75.3438 105.15 74.0586 103.551 74.0586 101.322C74.0586 99.0664 75.3984 97.4805 77.4219 97.4805C79.0078 97.4805 80.1836 98.4102 80.375 99.8184H79.1992C79.0352 99.1348 78.4336 98.5195 77.4492 98.5195C76.123 98.5195 75.2344 99.6133 75.2344 101.281C75.2344 103.004 76.0957 104.098 77.4492 104.098C78.3242 104.098 78.9941 103.633 79.1992 102.812H80.375C80.1836 104.139 79.1035 105.15 77.4492 105.15ZM85.0645 97.5762V98.5605H83.5059V102.867C83.5059 103.824 83.9707 103.975 84.4766 103.975C84.6953 103.975 84.9961 103.961 85.1738 103.947V105.041C84.9961 105.068 84.6953 105.096 84.3535 105.096C83.3691 105.096 82.3164 104.48 82.3164 103.168V98.5605H81.1953V97.5762H82.3164V95.7988H83.5059V97.5762H85.0645ZM89.6309 105.15C87.4844 105.15 86.1582 103.633 86.1582 101.35C86.1582 99.0664 87.498 97.4805 89.5215 97.4805C91.0801 97.4805 92.7207 98.4375 92.7207 101.186V101.678H87.334C87.3887 103.25 88.3047 104.111 89.6309 104.111C90.5195 104.111 91.0801 103.729 91.3535 103.264H92.6113C92.2559 104.385 91.1621 105.15 89.6309 105.15ZM87.3477 100.68H91.5312C91.5312 99.4355 90.7383 98.5195 89.5215 98.5195C88.2363 98.5195 87.416 99.5312 87.3477 100.68ZM97.0547 105.15C95.209 105.15 93.8965 103.66 93.8965 101.309C93.8965 98.957 95.209 97.4805 97.0684 97.4805C98.5039 97.4805 98.9688 98.3555 99.2148 98.752H99.2969V95.1016H100.486V105H99.3379V103.865H99.2148C98.9551 104.275 98.4766 105.15 97.0547 105.15ZM97.2188 104.098C98.5723 104.098 99.3379 102.949 99.3379 101.281C99.3379 99.6406 98.5996 98.5332 97.2188 98.5332C95.7969 98.5332 95.0859 99.7363 95.0859 101.281C95.0859 102.867 95.8105 104.098 97.2188 104.098ZM109.072 105.15C107.049 105.15 105.682 103.633 105.682 101.322C105.682 99.0117 107.049 97.4805 109.072 97.4805C111.082 97.4805 112.436 99.0117 112.436 101.322C112.436 103.633 111.082 105.15 109.072 105.15ZM109.072 104.111C110.562 104.111 111.26 102.799 111.26 101.322C111.26 99.8457 110.562 98.5195 109.072 98.5195C107.555 98.5195 106.857 99.8457 106.857 101.322C106.857 102.799 107.555 104.111 109.072 104.111ZM113.98 107.789V97.5762H115.115V98.752H115.252C115.498 98.3555 115.963 97.4805 117.398 97.4805C119.258 97.4805 120.557 98.957 120.557 101.309C120.557 103.66 119.258 105.15 117.412 105.15C115.99 105.15 115.498 104.275 115.252 103.865H115.156V107.789H113.98ZM115.129 101.281C115.129 102.949 115.881 104.098 117.248 104.098C118.656 104.098 119.381 102.867 119.381 101.281C119.381 99.7363 118.67 98.5332 117.248 98.5332C115.854 98.5332 115.129 99.6406 115.129 101.281ZM125.328 97.5762V98.5605H123.77V102.867C123.77 103.824 124.234 103.975 124.74 103.975C124.959 103.975 125.26 103.961 125.438 103.947V105.041C125.26 105.068 124.959 105.096 124.617 105.096C123.633 105.096 122.58 104.48 122.58 103.168V98.5605H121.459V97.5762H122.58V95.7988H123.77V97.5762H125.328ZM126.846 105V97.5762H128.021V105H126.846ZM127.434 96.3457C126.982 96.3457 126.613 96.0039 126.613 95.5664C126.613 95.1289 126.982 94.7871 127.434 94.7871C127.885 94.7871 128.268 95.1289 128.268 95.5664C128.268 96.0039 127.885 96.3457 127.434 96.3457ZM132.93 105.15C130.906 105.15 129.539 103.633 129.539 101.322C129.539 99.0117 130.906 97.4805 132.93 97.4805C134.939 97.4805 136.293 99.0117 136.293 101.322C136.293 103.633 134.939 105.15 132.93 105.15ZM132.93 104.111C134.42 104.111 135.117 102.799 135.117 101.322C135.117 99.8457 134.42 98.5195 132.93 98.5195C131.412 98.5195 130.715 99.8457 130.715 101.322C130.715 102.799 131.412 104.111 132.93 104.111ZM139.014 100.543V105H137.838V97.5762H138.973V98.7383H139.068C139.424 97.9863 140.107 97.4805 141.242 97.4805C142.746 97.4805 143.744 98.3965 143.744 100.283V105H142.568V100.365C142.568 99.2168 141.939 98.5332 140.887 98.5332C139.807 98.5332 139.014 99.2578 139.014 100.543ZM146.465 105.082C145.986 105.082 145.576 104.686 145.59 104.193C145.576 103.715 145.986 103.318 146.465 103.318C146.943 103.318 147.34 103.715 147.34 104.193C147.34 104.686 146.943 105.082 146.465 105.082ZM152.289 96.1953V95.1016H159.754V96.1953H156.65V105H155.406V96.1953H152.289ZM162.42 100.543V105H161.244V95.1016H162.42V98.7383H162.516C162.857 97.9727 163.527 97.4805 164.703 97.4805C166.221 97.4805 167.232 98.3828 167.232 100.283V105H166.057V100.365C166.057 99.2031 165.414 98.5332 164.348 98.5332C163.24 98.5332 162.42 99.2578 162.42 100.543ZM172.236 105.15C170.09 105.15 168.764 103.633 168.764 101.35C168.764 99.0664 170.104 97.4805 172.127 97.4805C173.686 97.4805 175.326 98.4375 175.326 101.186V101.678H169.939C169.994 103.25 170.91 104.111 172.236 104.111C173.125 104.111 173.686 103.729 173.959 103.264H175.217C174.861 104.385 173.768 105.15 172.236 105.15ZM169.953 100.68H174.137C174.137 99.4355 173.344 98.5195 172.127 98.5195C170.842 98.5195 170.021 99.5312 169.953 100.68ZM183.174 105.15C181.328 105.15 180.016 103.66 180.016 101.309C180.016 98.957 181.328 97.4805 183.188 97.4805C184.623 97.4805 185.088 98.3555 185.334 98.752H185.416V95.1016H186.605V105H185.457V103.865H185.334C185.074 104.275 184.596 105.15 183.174 105.15ZM183.338 104.098C184.691 104.098 185.457 102.949 185.457 101.281C185.457 99.6406 184.719 98.5332 183.338 98.5332C181.916 98.5332 181.205 99.7363 181.205 101.281C181.205 102.867 181.93 104.098 183.338 104.098ZM191.76 105.15C189.613 105.15 188.287 103.633 188.287 101.35C188.287 99.0664 189.627 97.4805 191.65 97.4805C193.209 97.4805 194.85 98.4375 194.85 101.186V101.678H189.463C189.518 103.25 190.434 104.111 191.76 104.111C192.648 104.111 193.209 103.729 193.482 103.264H194.74C194.385 104.385 193.291 105.15 191.76 105.15ZM189.477 100.68H193.66C193.66 99.4355 192.867 98.5195 191.65 98.5195C190.365 98.5195 189.545 99.5312 189.477 100.68ZM200.51 99.5039C200.346 98.8887 199.881 98.4785 199.006 98.4785C198.09 98.4785 197.434 98.9707 197.434 99.5996C197.434 100.092 197.83 100.434 198.705 100.639L199.812 100.912C201.139 101.227 201.795 101.883 201.795 102.922C201.795 104.207 200.742 105.15 198.883 105.15C197.215 105.15 196.217 104.412 196.025 103.059H197.256C197.393 103.783 197.926 104.125 198.855 104.125C199.908 104.125 200.578 103.688 200.578 102.99C200.578 102.471 200.209 102.115 199.361 101.924L198.24 101.664C196.941 101.363 196.258 100.652 196.258 99.668C196.258 98.3965 197.365 97.4805 199.006 97.4805C200.537 97.4805 201.508 98.3008 201.658 99.5039H200.51ZM206.361 105.15C204.256 105.15 202.971 103.551 202.971 101.322C202.971 99.0664 204.311 97.4805 206.334 97.4805C207.92 97.4805 209.096 98.4102 209.287 99.8184H208.111C207.947 99.1348 207.346 98.5195 206.361 98.5195C205.035 98.5195 204.146 99.6133 204.146 101.281C204.146 103.004 205.008 104.098 206.361 104.098C207.236 104.098 207.906 103.633 208.111 102.812H209.287C209.096 104.139 208.016 105.15 206.361 105.15ZM210.736 105V97.5762H211.871V98.7109H211.953C212.227 97.959 212.992 97.4531 213.867 97.4531C214.045 97.4531 214.346 97.4668 214.482 97.4805V98.6699C214.4 98.6426 214.072 98.5879 213.771 98.5879C212.705 98.5879 211.912 99.3262 211.912 100.324V105H210.736ZM215.631 105V97.5762H216.807V105H215.631ZM216.219 96.3457C215.768 96.3457 215.398 96.0039 215.398 95.5664C215.398 95.1289 215.768 94.7871 216.219 94.7871C216.67 94.7871 217.053 95.1289 217.053 95.5664C217.053 96.0039 216.67 96.3457 216.219 96.3457ZM218.68 107.789V97.5762H219.814V98.752H219.951C220.197 98.3555 220.662 97.4805 222.098 97.4805C223.957 97.4805 225.256 98.957 225.256 101.309C225.256 103.66 223.957 105.15 222.111 105.15C220.689 105.15 220.197 104.275 219.951 103.865H219.855V107.789H218.68ZM219.828 101.281C219.828 102.949 220.58 104.098 221.947 104.098C223.355 104.098 224.08 102.867 224.08 101.281C224.08 99.7363 223.369 98.5332 221.947 98.5332C220.553 98.5332 219.828 99.6406 219.828 101.281ZM230.027 97.5762V98.5605H228.469V102.867C228.469 103.824 228.934 103.975 229.439 103.975C229.658 103.975 229.959 103.961 230.137 103.947V105.041C229.959 105.068 229.658 105.096 229.316 105.096C228.332 105.096 227.279 104.48 227.279 103.168V98.5605H226.158V97.5762H227.279V95.7988H228.469V97.5762H230.027ZM231.545 105V97.5762H232.721V105H231.545ZM232.133 96.3457C231.682 96.3457 231.312 96.0039 231.312 95.5664C231.312 95.1289 231.682 94.7871 232.133 94.7871C232.584 94.7871 232.967 95.1289 232.967 95.5664C232.967 96.0039 232.584 96.3457 232.133 96.3457ZM237.629 105.15C235.605 105.15 234.238 103.633 234.238 101.322C234.238 99.0117 235.605 97.4805 237.629 97.4805C239.639 97.4805 240.992 99.0117 240.992 101.322C240.992 103.633 239.639 105.15 237.629 105.15ZM237.629 104.111C239.119 104.111 239.816 102.799 239.816 101.322C239.816 99.8457 239.119 98.5195 237.629 98.5195C236.111 98.5195 235.414 99.8457 235.414 101.322C235.414 102.799 236.111 104.111 237.629 104.111ZM243.713 100.543V105H242.537V97.5762H243.672V98.7383H243.768C244.123 97.9863 244.807 97.4805 245.941 97.4805C247.445 97.4805 248.443 98.3965 248.443 100.283V105H247.268V100.365C247.268 99.2168 246.639 98.5332 245.586 98.5332C244.506 98.5332 243.713 99.2578 243.713 100.543ZM257.973 99.5039C257.809 98.8887 257.344 98.4785 256.469 98.4785C255.553 98.4785 254.896 98.9707 254.896 99.5996C254.896 100.092 255.293 100.434 256.168 100.639L257.275 100.912C258.602 101.227 259.258 101.883 259.258 102.922C259.258 104.207 258.205 105.15 256.346 105.15C254.678 105.15 253.68 104.412 253.488 103.059H254.719C254.855 103.783 255.389 104.125 256.318 104.125C257.371 104.125 258.041 103.688 258.041 102.99C258.041 102.471 257.672 102.115 256.824 101.924L255.703 101.664C254.404 101.363 253.721 100.652 253.721 99.668C253.721 98.3965 254.828 97.4805 256.469 97.4805C258 97.4805 258.971 98.3008 259.121 99.5039H257.973ZM261.965 100.543V105H260.789V95.1016H261.965V98.7383H262.061C262.402 97.9727 263.072 97.4805 264.248 97.4805C265.766 97.4805 266.777 98.3828 266.777 100.283V105H265.602V100.365C265.602 99.2031 264.959 98.5332 263.893 98.5332C262.785 98.5332 261.965 99.2578 261.965 100.543ZM271.699 105.15C269.676 105.15 268.309 103.633 268.309 101.322C268.309 99.0117 269.676 97.4805 271.699 97.4805C273.709 97.4805 275.062 99.0117 275.062 101.322C275.062 103.633 273.709 105.15 271.699 105.15ZM271.699 104.111C273.189 104.111 273.887 102.799 273.887 101.322C273.887 99.8457 273.189 98.5195 271.699 98.5195C270.182 98.5195 269.484 99.8457 269.484 101.322C269.484 102.799 270.182 104.111 271.699 104.111ZM281.297 101.951V97.5762H282.459V105H281.297V103.742H281.215C280.859 104.494 280.135 105.096 279.014 105.096C277.605 105.096 276.607 104.18 276.607 102.293V97.5762H277.783V102.211C277.783 103.277 278.453 103.961 279.396 103.961C280.23 103.961 281.297 103.332 281.297 101.951ZM285.521 95.1016V105H284.346V95.1016H285.521ZM290.197 105.15C288.352 105.15 287.039 103.66 287.039 101.309C287.039 98.957 288.352 97.4805 290.211 97.4805C291.646 97.4805 292.111 98.3555 292.357 98.752H292.439V95.1016H293.629V105H292.48V103.865H292.357C292.098 104.275 291.619 105.15 290.197 105.15ZM290.361 104.098C291.715 104.098 292.48 102.949 292.48 101.281C292.48 99.6406 291.742 98.5332 290.361 98.5332C288.939 98.5332 288.229 99.7363 288.229 101.281C288.229 102.867 288.953 104.098 290.361 104.098ZM300.355 100.543V105H299.18V95.1016H300.355V98.7383H300.451C300.793 97.9727 301.463 97.4805 302.639 97.4805C304.156 97.4805 305.168 98.3828 305.168 100.283V105H303.992V100.365C303.992 99.2031 303.35 98.5332 302.283 98.5332C301.176 98.5332 300.355 99.2578 300.355 100.543ZM310.172 105.15C308.025 105.15 306.699 103.633 306.699 101.35C306.699 99.0664 308.039 97.4805 310.062 97.4805C311.621 97.4805 313.262 98.4375 313.262 101.186V101.678H307.875C307.93 103.25 308.846 104.111 310.172 104.111C311.061 104.111 311.621 103.729 311.895 103.264H313.152C312.797 104.385 311.703 105.15 310.172 105.15ZM307.889 100.68H312.072C312.072 99.4355 311.279 98.5195 310.062 98.5195C308.777 98.5195 307.957 99.5312 307.889 100.68ZM315.969 95.1016V105H314.793V95.1016H315.969ZM317.842 107.789V97.5762H318.977V98.752H319.113C319.359 98.3555 319.824 97.4805 321.26 97.4805C323.119 97.4805 324.418 98.957 324.418 101.309C324.418 103.66 323.119 105.15 321.273 105.15C319.852 105.15 319.359 104.275 319.113 103.865H319.018V107.789H317.842ZM318.99 101.281C318.99 102.949 319.742 104.098 321.109 104.098C322.518 104.098 323.242 102.867 323.242 101.281C323.242 99.7363 322.531 98.5332 321.109 98.5332C319.715 98.5332 318.99 99.6406 318.99 101.281ZM334.152 101.951V97.5762H335.314V105H334.152V103.742H334.07C333.715 104.494 332.99 105.096 331.869 105.096C330.461 105.096 329.463 104.18 329.463 102.293V97.5762H330.639V102.211C330.639 103.277 331.309 103.961 332.252 103.961C333.086 103.961 334.152 103.332 334.152 101.951ZM341.33 99.5039C341.166 98.8887 340.701 98.4785 339.826 98.4785C338.91 98.4785 338.254 98.9707 338.254 99.5996C338.254 100.092 338.65 100.434 339.525 100.639L340.633 100.912C341.959 101.227 342.615 101.883 342.615 102.922C342.615 104.207 341.562 105.15 339.703 105.15C338.035 105.15 337.037 104.412 336.846 103.059H338.076C338.213 103.783 338.746 104.125 339.676 104.125C340.729 104.125 341.398 103.688 341.398 102.99C341.398 102.471 341.029 102.115 340.182 101.924L339.061 101.664C337.762 101.363 337.078 100.652 337.078 99.668C337.078 98.3965 338.186 97.4805 339.826 97.4805C341.357 97.4805 342.328 98.3008 342.479 99.5039H341.33ZM347.264 105.15C345.117 105.15 343.791 103.633 343.791 101.35C343.791 99.0664 345.131 97.4805 347.154 97.4805C348.713 97.4805 350.354 98.4375 350.354 101.186V101.678H344.967C345.021 103.25 345.938 104.111 347.264 104.111C348.152 104.111 348.713 103.729 348.986 103.264H350.244C349.889 104.385 348.795 105.15 347.264 105.15ZM344.98 100.68H349.164C349.164 99.4355 348.371 98.5195 347.154 98.5195C345.869 98.5195 345.049 99.5312 344.98 100.68ZM351.885 105V97.5762H353.02V98.7109H353.102C353.375 97.959 354.141 97.4531 355.016 97.4531C355.193 97.4531 355.494 97.4668 355.631 97.4805V98.6699C355.549 98.6426 355.221 98.5879 354.92 98.5879C353.854 98.5879 353.061 99.3262 353.061 100.324V105H351.885ZM360.908 99.5039C360.744 98.8887 360.279 98.4785 359.404 98.4785C358.488 98.4785 357.832 98.9707 357.832 99.5996C357.832 100.092 358.229 100.434 359.104 100.639L360.211 100.912C361.537 101.227 362.193 101.883 362.193 102.922C362.193 104.207 361.141 105.15 359.281 105.15C357.613 105.15 356.615 104.412 356.424 103.059H357.654C357.791 103.783 358.324 104.125 359.254 104.125C360.307 104.125 360.977 103.688 360.977 102.99C360.977 102.471 360.607 102.115 359.76 101.924L358.639 101.664C357.34 101.363 356.656 100.652 356.656 99.668C356.656 98.3965 357.764 97.4805 359.404 97.4805C360.936 97.4805 361.906 98.3008 362.057 99.5039H360.908ZM53.6328 121.951V117.576H54.7949V125H53.6328V123.742H53.5508C53.1953 124.494 52.4707 125.096 51.3496 125.096C49.9414 125.096 48.9434 124.18 48.9434 122.293V117.576H50.1191V122.211C50.1191 123.277 50.7891 123.961 51.7324 123.961C52.5664 123.961 53.6328 123.332 53.6328 121.951ZM57.8574 120.543V125H56.6816V117.576H57.8164V118.738H57.9121C58.2676 117.986 58.9512 117.48 60.0859 117.48C61.5898 117.48 62.5879 118.396 62.5879 120.283V125H61.4121V120.365C61.4121 119.217 60.7832 118.533 59.7305 118.533C58.6504 118.533 57.8574 119.258 57.8574 120.543ZM67.2773 125.15C65.4316 125.15 64.1191 123.66 64.1191 121.309C64.1191 118.957 65.4316 117.48 67.291 117.48C68.7266 117.48 69.1914 118.355 69.4375 118.752H69.5195V115.102H70.709V125H69.5605V123.865H69.4375C69.1777 124.275 68.6992 125.15 67.2773 125.15ZM67.4414 124.098C68.7949 124.098 69.5605 122.949 69.5605 121.281C69.5605 119.641 68.8223 118.533 67.4414 118.533C66.0195 118.533 65.3086 119.736 65.3086 121.281C65.3086 122.867 66.0332 124.098 67.4414 124.098ZM75.8633 125.15C73.7168 125.15 72.3906 123.633 72.3906 121.35C72.3906 119.066 73.7305 117.48 75.7539 117.48C77.3125 117.48 78.9531 118.438 78.9531 121.186V121.678H73.5664C73.6211 123.25 74.5371 124.111 75.8633 124.111C76.752 124.111 77.3125 123.729 77.5859 123.264H78.8438C78.4883 124.385 77.3945 125.15 75.8633 125.15ZM73.5801 120.68H77.7637C77.7637 119.436 76.9707 118.52 75.7539 118.52C74.4688 118.52 73.6484 119.531 73.5801 120.68ZM80.4844 125V117.576H81.6191V118.711H81.7012C81.9746 117.959 82.7402 117.453 83.6152 117.453C83.793 117.453 84.0938 117.467 84.2305 117.48V118.67C84.1484 118.643 83.8203 118.588 83.5195 118.588C82.4531 118.588 81.6602 119.326 81.6602 120.324V125H80.4844ZM89.5078 119.504C89.3438 118.889 88.8789 118.479 88.0039 118.479C87.0879 118.479 86.4316 118.971 86.4316 119.6C86.4316 120.092 86.8281 120.434 87.7031 120.639L88.8105 120.912C90.1367 121.227 90.793 121.883 90.793 122.922C90.793 124.207 89.7402 125.15 87.8809 125.15C86.2129 125.15 85.2148 124.412 85.0234 123.059H86.2539C86.3906 123.783 86.9238 124.125 87.8535 124.125C88.9062 124.125 89.5762 123.688 89.5762 122.99C89.5762 122.471 89.207 122.115 88.3594 121.924L87.2383 121.664C85.9395 121.363 85.2559 120.652 85.2559 119.668C85.2559 118.396 86.3633 117.48 88.0039 117.48C89.5352 117.48 90.5059 118.301 90.6562 119.504H89.5078ZM95.5645 117.576V118.561H94.0059V122.867C94.0059 123.824 94.4707 123.975 94.9766 123.975C95.1953 123.975 95.4961 123.961 95.6738 123.947V125.041C95.4961 125.068 95.1953 125.096 94.8535 125.096C93.8691 125.096 92.8164 124.48 92.8164 123.168V118.561H91.6953V117.576H92.8164V115.799H94.0059V117.576H95.5645ZM96.7266 122.895C96.7266 121.186 98.2305 120.803 99.5156 120.707C99.9873 120.673 101.19 120.611 101.525 120.598V119.996C101.525 119.053 100.965 118.506 99.8438 118.506C98.9004 118.506 98.3398 118.943 98.1758 119.504H96.9453C97.0957 118.314 98.2578 117.48 99.8984 117.48C100.869 117.48 102.688 117.768 102.688 120.105V125H101.525V123.988H101.471C101.225 124.494 100.541 125.178 99.2559 125.178C97.8477 125.178 96.7266 124.344 96.7266 122.895ZM97.9023 122.949C97.9023 123.729 98.5586 124.125 99.4609 124.125C100.787 124.125 101.525 123.236 101.525 122.307V121.555L99.6523 121.691C98.5859 121.76 97.9023 122.143 97.9023 122.949ZM105.75 120.543V125H104.574V117.576H105.709V118.738H105.805C106.16 117.986 106.844 117.48 107.979 117.48C109.482 117.48 110.48 118.396 110.48 120.283V125H109.305V120.365C109.305 119.217 108.676 118.533 107.623 118.533C106.543 118.533 105.75 119.258 105.75 120.543ZM115.17 125.15C113.324 125.15 112.012 123.66 112.012 121.309C112.012 118.957 113.324 117.48 115.184 117.48C116.619 117.48 117.084 118.355 117.33 118.752H117.412V115.102H118.602V125H117.453V123.865H117.33C117.07 124.275 116.592 125.15 115.17 125.15ZM115.334 124.098C116.688 124.098 117.453 122.949 117.453 121.281C117.453 119.641 116.715 118.533 115.334 118.533C113.912 118.533 113.201 119.736 113.201 121.281C113.201 122.867 113.926 124.098 115.334 124.098ZM127.393 117.576V118.561H125.834V122.867C125.834 123.824 126.299 123.975 126.805 123.975C127.023 123.975 127.324 123.961 127.502 123.947V125.041C127.324 125.068 127.023 125.096 126.682 125.096C125.697 125.096 124.645 124.48 124.645 123.168V118.561H123.523V117.576H124.645V115.799H125.834V117.576H127.393ZM130.25 120.543V125H129.074V115.102H130.25V118.738H130.346C130.688 117.973 131.357 117.48 132.533 117.48C134.051 117.48 135.062 118.383 135.062 120.283V125H133.887V120.365C133.887 119.203 133.244 118.533 132.178 118.533C131.07 118.533 130.25 119.258 130.25 120.543ZM140.066 125.15C137.92 125.15 136.594 123.633 136.594 121.35C136.594 119.066 137.934 117.48 139.957 117.48C141.516 117.48 143.156 118.438 143.156 121.186V121.678H137.77C137.824 123.25 138.74 124.111 140.066 124.111C140.955 124.111 141.516 123.729 141.789 123.264H143.047C142.691 124.385 141.598 125.15 140.066 125.15ZM137.783 120.68H141.967C141.967 119.436 141.174 118.52 139.957 118.52C138.672 118.52 137.852 119.531 137.783 120.68ZM148.201 125V117.576H149.336V118.738H149.432C149.746 117.945 150.457 117.48 151.428 117.48C152.398 117.48 153.055 117.945 153.41 118.738H153.492C153.875 117.973 154.654 117.48 155.721 117.48C157.047 117.48 157.99 118.287 157.99 120.037V125H156.814V120.051C156.814 118.957 156.117 118.533 155.311 118.533C154.271 118.533 153.684 119.23 153.684 120.174V125H152.494V119.928C152.494 119.094 151.893 118.533 151.045 118.533C150.156 118.533 149.377 119.285 149.377 120.365V125H148.201ZM162.994 125.15C160.848 125.15 159.521 123.633 159.521 121.35C159.521 119.066 160.861 117.48 162.885 117.48C164.443 117.48 166.084 118.438 166.084 121.186V121.678H160.697C160.752 123.25 161.668 124.111 162.994 124.111C163.883 124.111 164.443 123.729 164.717 123.264H165.975C165.619 124.385 164.525 125.15 162.994 125.15ZM160.711 120.68H164.895C164.895 119.436 164.102 118.52 162.885 118.52C161.6 118.52 160.779 119.531 160.711 120.68ZM167.26 122.895C167.26 121.186 168.764 120.803 170.049 120.707C170.521 120.673 171.724 120.611 172.059 120.598V119.996C172.059 119.053 171.498 118.506 170.377 118.506C169.434 118.506 168.873 118.943 168.709 119.504H167.479C167.629 118.314 168.791 117.48 170.432 117.48C171.402 117.48 173.221 117.768 173.221 120.105V125H172.059V123.988H172.004C171.758 124.494 171.074 125.178 169.789 125.178C168.381 125.178 167.26 124.344 167.26 122.895ZM168.436 122.949C168.436 123.729 169.092 124.125 169.994 124.125C171.32 124.125 172.059 123.236 172.059 122.307V121.555L170.186 121.691C169.119 121.76 168.436 122.143 168.436 122.949ZM176.283 120.543V125H175.107V117.576H176.242V118.738H176.338C176.693 117.986 177.377 117.48 178.512 117.48C180.016 117.48 181.014 118.396 181.014 120.283V125H179.838V120.365C179.838 119.217 179.209 118.533 178.156 118.533C177.076 118.533 176.283 119.258 176.283 120.543ZM182.9 125V117.576H184.076V125H182.9ZM183.488 116.346C183.037 116.346 182.668 116.004 182.668 115.566C182.668 115.129 183.037 114.787 183.488 114.787C183.939 114.787 184.322 115.129 184.322 115.566C184.322 116.004 183.939 116.346 183.488 116.346ZM187.125 120.543V125H185.949V117.576H187.084V118.738H187.18C187.535 117.986 188.219 117.48 189.354 117.48C190.857 117.48 191.855 118.396 191.855 120.283V125H190.68V120.365C190.68 119.217 190.051 118.533 188.998 118.533C187.918 118.533 187.125 119.258 187.125 120.543ZM196.75 127.939C194.959 127.939 193.742 127.16 193.605 125.779H194.836C195 126.531 195.697 126.914 196.75 126.914C198.021 126.914 198.801 126.367 198.801 125.137V123.633H198.705C198.459 124.043 197.98 124.891 196.545 124.891C194.74 124.891 193.387 123.523 193.387 121.186C193.387 118.902 194.699 117.48 196.559 117.48C197.994 117.48 198.459 118.355 198.732 118.752H198.828V117.576H199.977V125.205C199.977 127.119 198.555 127.939 196.75 127.939ZM196.709 123.838C198.062 123.838 198.828 122.867 198.828 121.227C198.828 119.641 198.09 118.533 196.709 118.533C195.287 118.533 194.576 119.736 194.576 121.227C194.576 122.771 195.301 123.838 196.709 123.838ZM203.395 124.084L202.328 127.803H201.316L202.068 124.084H203.395ZM208.959 127.789V117.576H210.094V118.752H210.23C210.477 118.355 210.941 117.48 212.377 117.48C214.236 117.48 215.535 118.957 215.535 121.309C215.535 123.66 214.236 125.15 212.391 125.15C210.969 125.15 210.477 124.275 210.23 123.865H210.135V127.789H208.959ZM210.107 121.281C210.107 122.949 210.859 124.098 212.227 124.098C213.635 124.098 214.359 122.867 214.359 121.281C214.359 119.736 213.648 118.533 212.227 118.533C210.832 118.533 210.107 119.641 210.107 121.281ZM221.756 121.951V117.576H222.918V125H221.756V123.742H221.674C221.318 124.494 220.594 125.096 219.473 125.096C218.064 125.096 217.066 124.18 217.066 122.293V117.576H218.242V122.211C218.242 123.277 218.912 123.961 219.855 123.961C220.689 123.961 221.756 123.332 221.756 121.951ZM224.805 125V117.576H225.939V118.711H226.021C226.295 117.959 227.061 117.453 227.936 117.453C228.113 117.453 228.414 117.467 228.551 117.48V118.67C228.469 118.643 228.141 118.588 227.84 118.588C226.773 118.588 225.98 119.326 225.98 120.324V125H224.805ZM229.699 127.789V117.576H230.834V118.752H230.971C231.217 118.355 231.682 117.48 233.117 117.48C234.977 117.48 236.275 118.957 236.275 121.309C236.275 123.66 234.977 125.15 233.131 125.15C231.709 125.15 231.217 124.275 230.971 123.865H230.875V127.789H229.699ZM230.848 121.281C230.848 122.949 231.6 124.098 232.967 124.098C234.375 124.098 235.1 122.867 235.1 121.281C235.1 119.736 234.389 118.533 232.967 118.533C231.572 118.533 230.848 119.641 230.848 121.281ZM240.842 125.15C238.818 125.15 237.451 123.633 237.451 121.322C237.451 119.012 238.818 117.48 240.842 117.48C242.852 117.48 244.205 119.012 244.205 121.322C244.205 123.633 242.852 125.15 240.842 125.15ZM240.842 124.111C242.332 124.111 243.029 122.799 243.029 121.322C243.029 119.846 242.332 118.52 240.842 118.52C239.324 118.52 238.627 119.846 238.627 121.322C238.627 122.799 239.324 124.111 240.842 124.111ZM249.879 119.504C249.715 118.889 249.25 118.479 248.375 118.479C247.459 118.479 246.803 118.971 246.803 119.6C246.803 120.092 247.199 120.434 248.074 120.639L249.182 120.912C250.508 121.227 251.164 121.883 251.164 122.922C251.164 124.207 250.111 125.15 248.252 125.15C246.584 125.15 245.586 124.412 245.395 123.059H246.625C246.762 123.783 247.295 124.125 248.225 124.125C249.277 124.125 249.947 123.688 249.947 122.99C249.947 122.471 249.578 122.115 248.73 121.924L247.609 121.664C246.311 121.363 245.627 120.652 245.627 119.668C245.627 118.396 246.734 117.48 248.375 117.48C249.906 117.48 250.877 118.301 251.027 119.504H249.879ZM255.812 125.15C253.666 125.15 252.34 123.633 252.34 121.35C252.34 119.066 253.68 117.48 255.703 117.48C257.262 117.48 258.902 118.438 258.902 121.186V121.678H253.516C253.57 123.25 254.486 124.111 255.812 124.111C256.701 124.111 257.262 123.729 257.535 123.264H258.793C258.438 124.385 257.344 125.15 255.812 125.15ZM253.529 120.68H257.713C257.713 119.436 256.92 118.52 255.703 118.52C254.418 118.52 253.598 119.531 253.529 120.68ZM261.979 124.084L260.912 127.803H259.9L260.652 124.084H261.979ZM267.188 122.895C267.188 121.186 268.691 120.803 269.977 120.707C270.448 120.673 271.651 120.611 271.986 120.598V119.996C271.986 119.053 271.426 118.506 270.305 118.506C269.361 118.506 268.801 118.943 268.637 119.504H267.406C267.557 118.314 268.719 117.48 270.359 117.48C271.33 117.48 273.148 117.768 273.148 120.105V125H271.986V123.988H271.932C271.686 124.494 271.002 125.178 269.717 125.178C268.309 125.178 267.188 124.344 267.188 122.895ZM268.363 122.949C268.363 123.729 269.02 124.125 269.922 124.125C271.248 124.125 271.986 123.236 271.986 122.307V121.555L270.113 121.691C269.047 121.76 268.363 122.143 268.363 122.949ZM276.211 120.543V125H275.035V117.576H276.17V118.738H276.266C276.621 117.986 277.305 117.48 278.439 117.48C279.943 117.48 280.941 118.396 280.941 120.283V125H279.766V120.365C279.766 119.217 279.137 118.533 278.084 118.533C277.004 118.533 276.211 119.258 276.211 120.543ZM285.631 125.15C283.785 125.15 282.473 123.66 282.473 121.309C282.473 118.957 283.785 117.48 285.645 117.48C287.08 117.48 287.545 118.355 287.791 118.752H287.873V115.102H289.062V125H287.914V123.865H287.791C287.531 124.275 287.053 125.15 285.631 125.15ZM285.795 124.098C287.148 124.098 287.914 122.949 287.914 121.281C287.914 119.641 287.176 118.533 285.795 118.533C284.373 118.533 283.662 119.736 283.662 121.281C283.662 122.867 284.387 124.098 285.795 124.098ZM297.73 125.15C295.584 125.15 294.258 123.633 294.258 121.35C294.258 119.066 295.598 117.48 297.621 117.48C299.18 117.48 300.82 118.438 300.82 121.186V121.678H295.434C295.488 123.25 296.404 124.111 297.73 124.111C298.619 124.111 299.18 123.729 299.453 123.264H300.711C300.355 124.385 299.262 125.15 297.73 125.15ZM295.447 120.68H299.631C299.631 119.436 298.838 118.52 297.621 118.52C296.336 118.52 295.516 119.531 295.447 120.68ZM303.049 117.576L304.799 120.598L306.562 117.576H307.916L305.523 121.281L307.916 125H306.576L304.799 122.129L303.049 125H301.695L304.033 121.281L301.695 117.576H303.049ZM309.338 127.789V117.576H310.473V118.752H310.609C310.855 118.355 311.32 117.48 312.756 117.48C314.615 117.48 315.914 118.957 315.914 121.309C315.914 123.66 314.615 125.15 312.77 125.15C311.348 125.15 310.855 124.275 310.609 123.865H310.514V127.789H309.338ZM310.486 121.281C310.486 122.949 311.238 124.098 312.605 124.098C314.014 124.098 314.738 122.867 314.738 121.281C314.738 119.736 314.027 118.533 312.605 118.533C311.211 118.533 310.486 119.641 310.486 121.281ZM320.562 125.15C318.416 125.15 317.09 123.633 317.09 121.35C317.09 119.066 318.43 117.48 320.453 117.48C322.012 117.48 323.652 118.438 323.652 121.186V121.678H318.266C318.32 123.25 319.236 124.111 320.562 124.111C321.451 124.111 322.012 123.729 322.285 123.264H323.543C323.188 124.385 322.094 125.15 320.562 125.15ZM318.279 120.68H322.463C322.463 119.436 321.67 118.52 320.453 118.52C319.168 118.52 318.348 119.531 318.279 120.68ZM328.219 125.15C326.113 125.15 324.828 123.551 324.828 121.322C324.828 119.066 326.168 117.48 328.191 117.48C329.777 117.48 330.953 118.41 331.145 119.818H329.969C329.805 119.135 329.203 118.52 328.219 118.52C326.893 118.52 326.004 119.613 326.004 121.281C326.004 123.004 326.865 124.098 328.219 124.098C329.094 124.098 329.764 123.633 329.969 122.812H331.145C330.953 124.139 329.873 125.15 328.219 125.15ZM335.834 117.576V118.561H334.275V122.867C334.275 123.824 334.74 123.975 335.246 123.975C335.465 123.975 335.766 123.961 335.943 123.947V125.041C335.766 125.068 335.465 125.096 335.123 125.096C334.139 125.096 333.086 124.48 333.086 123.168V118.561H331.965V117.576H333.086V115.799H334.275V117.576H335.834ZM340.4 125.15C338.254 125.15 336.928 123.633 336.928 121.35C336.928 119.066 338.268 117.48 340.291 117.48C341.85 117.48 343.49 118.438 343.49 121.186V121.678H338.104C338.158 123.25 339.074 124.111 340.4 124.111C341.289 124.111 341.85 123.729 342.123 123.264H343.381C343.025 124.385 341.932 125.15 340.4 125.15ZM338.117 120.68H342.301C342.301 119.436 341.508 118.52 340.291 118.52C339.006 118.52 338.186 119.531 338.117 120.68ZM347.824 125.15C345.979 125.15 344.666 123.66 344.666 121.309C344.666 118.957 345.979 117.48 347.838 117.48C349.273 117.48 349.738 118.355 349.984 118.752H350.066V115.102H351.256V125H350.107V123.865H349.984C349.725 124.275 349.246 125.15 347.824 125.15ZM347.988 124.098C349.342 124.098 350.107 122.949 350.107 121.281C350.107 119.641 349.369 118.533 347.988 118.533C346.566 118.533 345.855 119.736 345.855 121.281C345.855 122.867 346.58 124.098 347.988 124.098ZM356.807 125V117.576H357.941V118.711H358.023C358.297 117.959 359.062 117.453 359.938 117.453C360.115 117.453 360.416 117.467 360.553 117.48V118.67C360.471 118.643 360.143 118.588 359.842 118.588C358.775 118.588 357.982 119.326 357.982 120.324V125H356.807ZM364.586 125.15C362.439 125.15 361.113 123.633 361.113 121.35C361.113 119.066 362.453 117.48 364.477 117.48C366.035 117.48 367.676 118.438 367.676 121.186V121.678H362.289C362.344 123.25 363.26 124.111 364.586 124.111C365.475 124.111 366.035 123.729 366.309 123.264H367.566C367.211 124.385 366.117 125.15 364.586 125.15ZM362.303 120.68H366.486C366.486 119.436 365.693 118.52 364.477 118.52C363.191 118.52 362.371 119.531 362.303 120.68ZM373.336 119.504C373.172 118.889 372.707 118.479 371.832 118.479C370.916 118.479 370.26 118.971 370.26 119.6C370.26 120.092 370.656 120.434 371.531 120.639L372.639 120.912C373.965 121.227 374.621 121.883 374.621 122.922C374.621 124.207 373.568 125.15 371.709 125.15C370.041 125.15 369.043 124.412 368.852 123.059H370.082C370.219 123.783 370.752 124.125 371.682 124.125C372.734 124.125 373.404 123.688 373.404 122.99C373.404 122.471 373.035 122.115 372.188 121.924L371.066 121.664C369.768 121.363 369.084 120.652 369.084 119.668C369.084 118.396 370.191 117.48 371.832 117.48C373.363 117.48 374.334 118.301 374.484 119.504H373.336ZM380.842 121.951V117.576H382.004V125H380.842V123.742H380.76C380.404 124.494 379.68 125.096 378.559 125.096C377.15 125.096 376.152 124.18 376.152 122.293V117.576H377.328V122.211C377.328 123.277 377.998 123.961 378.941 123.961C379.775 123.961 380.842 123.332 380.842 121.951ZM385.066 115.102V125H383.891V115.102H385.066ZM390.18 117.576V118.561H388.621V122.867C388.621 123.824 389.086 123.975 389.592 123.975C389.811 123.975 390.111 123.961 390.289 123.947V125.041C390.111 125.068 389.811 125.096 389.469 125.096C388.484 125.096 387.432 124.48 387.432 123.168V118.561H386.311V117.576H387.432V115.799H388.621V117.576H390.18ZM398.246 125.15C396.223 125.15 394.855 123.633 394.855 121.322C394.855 119.012 396.223 117.48 398.246 117.48C400.256 117.48 401.609 119.012 401.609 121.322C401.609 123.633 400.256 125.15 398.246 125.15ZM398.246 124.111C399.736 124.111 400.434 122.799 400.434 121.322C400.434 119.846 399.736 118.52 398.246 118.52C396.729 118.52 396.031 119.846 396.031 121.322C396.031 122.799 396.729 124.111 398.246 124.111ZM406.477 117.576V118.561H404.836V125H403.646V118.561H402.457V117.576H403.646V116.564C403.646 115.361 404.453 114.637 405.766 114.637C406.053 114.637 406.395 114.678 406.641 114.719V115.771C406.395 115.73 406.176 115.717 406.025 115.717C405.205 115.717 404.836 116.059 404.836 116.824V117.576H406.477ZM52.0605 145.15C49.9141 145.15 48.5879 143.633 48.5879 141.35C48.5879 139.066 49.9277 137.48 51.9512 137.48C53.5098 137.48 55.1504 138.438 55.1504 141.186V141.678H49.7637C49.8184 143.25 50.7344 144.111 52.0605 144.111C52.9492 144.111 53.5098 143.729 53.7832 143.264H55.041C54.6855 144.385 53.5918 145.15 52.0605 145.15ZM49.7773 140.68H53.9609C53.9609 139.436 53.168 138.52 51.9512 138.52C50.666 138.52 49.8457 139.531 49.7773 140.68ZM56.3262 142.895C56.3262 141.186 57.8301 140.803 59.1152 140.707C59.5869 140.673 60.79 140.611 61.125 140.598V139.996C61.125 139.053 60.5645 138.506 59.4434 138.506C58.5 138.506 57.9395 138.943 57.7754 139.504H56.5449C56.6953 138.314 57.8574 137.48 59.498 137.48C60.4688 137.48 62.2871 137.768 62.2871 140.105V145H61.125V143.988H61.0703C60.8242 144.494 60.1406 145.178 58.8555 145.178C57.4473 145.178 56.3262 144.344 56.3262 142.895ZM57.502 142.949C57.502 143.729 58.1582 144.125 59.0605 144.125C60.3867 144.125 61.125 143.236 61.125 142.307V141.555L59.252 141.691C58.1855 141.76 57.502 142.143 57.502 142.949ZM67.209 145.15C65.1035 145.15 63.8184 143.551 63.8184 141.322C63.8184 139.066 65.1582 137.48 67.1816 137.48C68.7676 137.48 69.9434 138.41 70.1348 139.818H68.959C68.7949 139.135 68.1934 138.52 67.209 138.52C65.8828 138.52 64.9941 139.613 64.9941 141.281C64.9941 143.004 65.8555 144.098 67.209 144.098C68.084 144.098 68.7539 143.633 68.959 142.812H70.1348C69.9434 144.139 68.8633 145.15 67.209 145.15ZM72.7598 140.543V145H71.584V135.102H72.7598V138.738H72.8555C73.1973 137.973 73.8672 137.48 75.043 137.48C76.5605 137.48 77.5723 138.383 77.5723 140.283V145H76.3965V140.365C76.3965 139.203 75.7539 138.533 74.6875 138.533C73.5801 138.533 72.7598 139.258 72.7598 140.543ZM86.0078 145.15C83.9844 145.15 82.6172 143.633 82.6172 141.322C82.6172 139.012 83.9844 137.48 86.0078 137.48C88.0176 137.48 89.3711 139.012 89.3711 141.322C89.3711 143.633 88.0176 145.15 86.0078 145.15ZM86.0078 144.111C87.498 144.111 88.1953 142.799 88.1953 141.322C88.1953 139.846 87.498 138.52 86.0078 138.52C84.4902 138.52 83.793 139.846 83.793 141.322C83.793 142.799 84.4902 144.111 86.0078 144.111ZM90.916 147.789V137.576H92.0508V138.752H92.1875C92.4336 138.355 92.8984 137.48 94.334 137.48C96.1934 137.48 97.4922 138.957 97.4922 141.309C97.4922 143.66 96.1934 145.15 94.3477 145.15C92.9258 145.15 92.4336 144.275 92.1875 143.865H92.0918V147.789H90.916ZM92.0645 141.281C92.0645 142.949 92.8164 144.098 94.1836 144.098C95.5918 144.098 96.3164 142.867 96.3164 141.281C96.3164 139.736 95.6055 138.533 94.1836 138.533C92.7891 138.533 92.0645 139.641 92.0645 141.281ZM102.264 137.576V138.561H100.705V142.867C100.705 143.824 101.17 143.975 101.676 143.975C101.895 143.975 102.195 143.961 102.373 143.947V145.041C102.195 145.068 101.895 145.096 101.553 145.096C100.568 145.096 99.5156 144.48 99.5156 143.168V138.561H98.3945V137.576H99.5156V135.799H100.705V137.576H102.264ZM103.781 145V137.576H104.957V145H103.781ZM104.369 136.346C103.918 136.346 103.549 136.004 103.549 135.566C103.549 135.129 103.918 134.787 104.369 134.787C104.82 134.787 105.203 135.129 105.203 135.566C105.203 136.004 104.82 136.346 104.369 136.346ZM109.865 145.15C107.842 145.15 106.475 143.633 106.475 141.322C106.475 139.012 107.842 137.48 109.865 137.48C111.875 137.48 113.229 139.012 113.229 141.322C113.229 143.633 111.875 145.15 109.865 145.15ZM109.865 144.111C111.355 144.111 112.053 142.799 112.053 141.322C112.053 139.846 111.355 138.52 109.865 138.52C108.348 138.52 107.65 139.846 107.65 141.322C107.65 142.799 108.348 144.111 109.865 144.111ZM115.949 140.543V145H114.773V137.576H115.908V138.738H116.004C116.359 137.986 117.043 137.48 118.178 137.48C119.682 137.48 120.68 138.396 120.68 140.283V145H119.504V140.365C119.504 139.217 118.875 138.533 117.822 138.533C116.742 138.533 115.949 139.258 115.949 140.543ZM123.4 145.082C122.922 145.082 122.512 144.686 122.525 144.193C122.512 143.715 122.922 143.318 123.4 143.318C123.879 143.318 124.275 143.715 124.275 144.193C124.275 144.686 123.879 145.082 123.4 145.082ZM131.604 145L128.896 135.102H130.141L132.205 143.113H132.301L134.393 135.102H135.773L137.879 143.113H137.961L140.025 135.102H141.27L138.562 145H137.291L135.131 137.166H135.049L132.875 145H131.604ZM143.607 140.543V145H142.432V135.102H143.607V138.738H143.703C144.045 137.973 144.715 137.48 145.891 137.48C147.408 137.48 148.42 138.383 148.42 140.283V145H147.244V140.365C147.244 139.203 146.602 138.533 145.535 138.533C144.428 138.533 143.607 139.258 143.607 140.543ZM153.424 145.15C151.277 145.15 149.951 143.633 149.951 141.35C149.951 139.066 151.291 137.48 153.314 137.48C154.873 137.48 156.514 138.438 156.514 141.186V141.678H151.127C151.182 143.25 152.098 144.111 153.424 144.111C154.312 144.111 154.873 143.729 155.146 143.264H156.404C156.049 144.385 154.955 145.15 153.424 145.15ZM151.141 140.68H155.324C155.324 139.436 154.531 138.52 153.314 138.52C152.029 138.52 151.209 139.531 151.141 140.68ZM159.221 140.543V145H158.045V137.576H159.18V138.738H159.275C159.631 137.986 160.314 137.48 161.449 137.48C162.953 137.48 163.951 138.396 163.951 140.283V145H162.775V140.365C162.775 139.217 162.146 138.533 161.094 138.533C160.014 138.533 159.221 139.258 159.221 140.543ZM172.592 137.576V138.561H171.033V142.867C171.033 143.824 171.498 143.975 172.004 143.975C172.223 143.975 172.523 143.961 172.701 143.947V145.041C172.523 145.068 172.223 145.096 171.881 145.096C170.896 145.096 169.844 144.48 169.844 143.168V138.561H168.723V137.576H169.844V135.799H171.033V137.576H172.592ZM175.449 140.543V145H174.273V135.102H175.449V138.738H175.545C175.887 137.973 176.557 137.48 177.732 137.48C179.25 137.48 180.262 138.383 180.262 140.283V145H179.086V140.365C179.086 139.203 178.443 138.533 177.377 138.533C176.27 138.533 175.449 139.258 175.449 140.543ZM185.266 145.15C183.119 145.15 181.793 143.633 181.793 141.35C181.793 139.066 183.133 137.48 185.156 137.48C186.715 137.48 188.355 138.438 188.355 141.186V141.678H182.969C183.023 143.25 183.939 144.111 185.266 144.111C186.154 144.111 186.715 143.729 186.988 143.264H188.246C187.891 144.385 186.797 145.15 185.266 145.15ZM182.982 140.68H187.166C187.166 139.436 186.373 138.52 185.156 138.52C183.871 138.52 183.051 139.531 182.982 140.68ZM196.436 145.15C194.33 145.15 193.045 143.551 193.045 141.322C193.045 139.066 194.385 137.48 196.408 137.48C197.994 137.48 199.17 138.41 199.361 139.818H198.186C198.021 139.135 197.42 138.52 196.436 138.52C195.109 138.52 194.221 139.613 194.221 141.281C194.221 143.004 195.082 144.098 196.436 144.098C197.311 144.098 197.98 143.633 198.186 142.812H199.361C199.17 144.139 198.09 145.15 196.436 145.15ZM203.846 145.15C201.822 145.15 200.455 143.633 200.455 141.322C200.455 139.012 201.822 137.48 203.846 137.48C205.855 137.48 207.209 139.012 207.209 141.322C207.209 143.633 205.855 145.15 203.846 145.15ZM203.846 144.111C205.336 144.111 206.033 142.799 206.033 141.322C206.033 139.846 205.336 138.52 203.846 138.52C202.328 138.52 201.631 139.846 201.631 141.322C201.631 142.799 202.328 144.111 203.846 144.111ZM209.93 140.543V145H208.754V137.576H209.889V138.738H209.984C210.34 137.986 211.023 137.48 212.158 137.48C213.662 137.48 214.66 138.396 214.66 140.283V145H213.484V140.365C213.484 139.217 212.855 138.533 211.803 138.533C210.723 138.533 209.93 139.258 209.93 140.543ZM219.787 137.576V138.561H218.229V142.867C218.229 143.824 218.693 143.975 219.199 143.975C219.418 143.975 219.719 143.961 219.896 143.947V145.041C219.719 145.068 219.418 145.096 219.076 145.096C218.092 145.096 217.039 144.48 217.039 143.168V138.561H215.918V137.576H217.039V135.799H218.229V137.576H219.787ZM224.354 145.15C222.207 145.15 220.881 143.633 220.881 141.35C220.881 139.066 222.221 137.48 224.244 137.48C225.803 137.48 227.443 138.438 227.443 141.186V141.678H222.057C222.111 143.25 223.027 144.111 224.354 144.111C225.242 144.111 225.803 143.729 226.076 143.264H227.334C226.979 144.385 225.885 145.15 224.354 145.15ZM222.07 140.68H226.254C226.254 139.436 225.461 138.52 224.244 138.52C222.959 138.52 222.139 139.531 222.07 140.68ZM230.15 140.543V145H228.975V137.576H230.109V138.738H230.205C230.561 137.986 231.244 137.48 232.379 137.48C233.883 137.48 234.881 138.396 234.881 140.283V145H233.705V140.365C233.705 139.217 233.076 138.533 232.023 138.533C230.943 138.533 230.15 139.258 230.15 140.543ZM240.008 137.576V138.561H238.449V142.867C238.449 143.824 238.914 143.975 239.42 143.975C239.639 143.975 239.939 143.961 240.117 143.947V145.041C239.939 145.068 239.639 145.096 239.297 145.096C238.312 145.096 237.26 144.48 237.26 143.168V138.561H236.139V137.576H237.26V135.799H238.449V137.576H240.008ZM245.189 145V135.102H246.365V138.752H246.461C246.721 138.355 247.158 137.48 248.607 137.48C250.467 137.48 251.779 138.957 251.779 141.309C251.779 143.66 250.467 145.15 248.621 145.15C247.199 145.15 246.721 144.275 246.461 143.865H246.324V145H245.189ZM246.338 141.281C246.338 142.949 247.09 144.098 248.443 144.098C249.852 144.098 250.59 142.867 250.59 141.281C250.59 139.736 249.879 138.533 248.443 138.533C247.076 138.533 246.338 139.641 246.338 141.281ZM256.428 145.15C254.281 145.15 252.955 143.633 252.955 141.35C252.955 139.066 254.295 137.48 256.318 137.48C257.877 137.48 259.518 138.438 259.518 141.186V141.678H254.131C254.186 143.25 255.102 144.111 256.428 144.111C257.316 144.111 257.877 143.729 258.15 143.264H259.408C259.053 144.385 257.959 145.15 256.428 145.15ZM254.145 140.68H258.328C258.328 139.436 257.535 138.52 256.318 138.52C255.033 138.52 254.213 139.531 254.145 140.68ZM264.084 145.15C261.979 145.15 260.693 143.551 260.693 141.322C260.693 139.066 262.033 137.48 264.057 137.48C265.643 137.48 266.818 138.41 267.01 139.818H265.834C265.67 139.135 265.068 138.52 264.084 138.52C262.758 138.52 261.869 139.613 261.869 141.281C261.869 143.004 262.73 144.098 264.084 144.098C264.959 144.098 265.629 143.633 265.834 142.812H267.01C266.818 144.139 265.738 145.15 264.084 145.15ZM271.494 145.15C269.471 145.15 268.104 143.633 268.104 141.322C268.104 139.012 269.471 137.48 271.494 137.48C273.504 137.48 274.857 139.012 274.857 141.322C274.857 143.633 273.504 145.15 271.494 145.15ZM271.494 144.111C272.984 144.111 273.682 142.799 273.682 141.322C273.682 139.846 272.984 138.52 271.494 138.52C269.977 138.52 269.279 139.846 269.279 141.322C269.279 142.799 269.977 144.111 271.494 144.111ZM276.402 145V137.576H277.537V138.738H277.633C277.947 137.945 278.658 137.48 279.629 137.48C280.6 137.48 281.256 137.945 281.611 138.738H281.693C282.076 137.973 282.855 137.48 283.922 137.48C285.248 137.48 286.191 138.287 286.191 140.037V145H285.016V140.051C285.016 138.957 284.318 138.533 283.512 138.533C282.473 138.533 281.885 139.23 281.885 140.174V145H280.695V139.928C280.695 139.094 280.094 138.533 279.246 138.533C278.357 138.533 277.578 139.285 277.578 140.365V145H276.402ZM291.195 145.15C289.049 145.15 287.723 143.633 287.723 141.35C287.723 139.066 289.062 137.48 291.086 137.48C292.645 137.48 294.285 138.438 294.285 141.186V141.678H288.898C288.953 143.25 289.869 144.111 291.195 144.111C292.084 144.111 292.645 143.729 292.918 143.264H294.176C293.82 144.385 292.727 145.15 291.195 145.15ZM288.912 140.68H293.096C293.096 139.436 292.303 138.52 291.086 138.52C289.801 138.52 288.98 139.531 288.912 140.68ZM299.945 139.504C299.781 138.889 299.316 138.479 298.441 138.479C297.525 138.479 296.869 138.971 296.869 139.6C296.869 140.092 297.266 140.434 298.141 140.639L299.248 140.912C300.574 141.227 301.23 141.883 301.23 142.922C301.23 144.207 300.178 145.15 298.318 145.15C296.65 145.15 295.652 144.412 295.461 143.059H296.691C296.828 143.783 297.361 144.125 298.291 144.125C299.344 144.125 300.014 143.688 300.014 142.99C300.014 142.471 299.645 142.115 298.797 141.924L297.676 141.664C296.377 141.363 295.693 140.652 295.693 139.668C295.693 138.396 296.801 137.48 298.441 137.48C299.973 137.48 300.943 138.301 301.094 139.504H299.945ZM307.451 135.102V145H306.275V135.102H307.451ZM312.359 145.15C310.336 145.15 308.969 143.633 308.969 141.322C308.969 139.012 310.336 137.48 312.359 137.48C314.369 137.48 315.723 139.012 315.723 141.322C315.723 143.633 314.369 145.15 312.359 145.15ZM312.359 144.111C313.85 144.111 314.547 142.799 314.547 141.322C314.547 139.846 313.85 138.52 312.359 138.52C310.842 138.52 310.145 139.846 310.145 141.322C310.145 142.799 310.842 144.111 312.359 144.111ZM318.443 140.543V145H317.268V137.576H318.402V138.738H318.498C318.854 137.986 319.537 137.48 320.672 137.48C322.176 137.48 323.174 138.396 323.174 140.283V145H321.998V140.365C321.998 139.217 321.369 138.533 320.316 138.533C319.236 138.533 318.443 139.258 318.443 140.543ZM328.068 147.939C326.277 147.939 325.061 147.16 324.924 145.779H326.154C326.318 146.531 327.016 146.914 328.068 146.914C329.34 146.914 330.119 146.367 330.119 145.137V143.633H330.023C329.777 144.043 329.299 144.891 327.863 144.891C326.059 144.891 324.705 143.523 324.705 141.186C324.705 138.902 326.018 137.48 327.877 137.48C329.312 137.48 329.777 138.355 330.051 138.752H330.146V137.576H331.295V145.205C331.295 147.119 329.873 147.939 328.068 147.939ZM328.027 143.838C329.381 143.838 330.146 142.867 330.146 141.227C330.146 139.641 329.408 138.533 328.027 138.533C326.605 138.533 325.895 139.736 325.895 141.227C325.895 142.771 326.619 143.838 328.027 143.838ZM336.285 145.15C334.139 145.15 332.812 143.633 332.812 141.35C332.812 139.066 334.152 137.48 336.176 137.48C337.734 137.48 339.375 138.438 339.375 141.186V141.678H333.988C334.043 143.25 334.959 144.111 336.285 144.111C337.174 144.111 337.734 143.729 338.008 143.264H339.266C338.91 144.385 337.816 145.15 336.285 145.15ZM334.002 140.68H338.186C338.186 139.436 337.393 138.52 336.176 138.52C334.891 138.52 334.07 139.531 334.002 140.68ZM340.906 145V137.576H342.041V138.711H342.123C342.396 137.959 343.162 137.453 344.037 137.453C344.215 137.453 344.516 137.467 344.652 137.48V138.67C344.57 138.643 344.242 138.588 343.941 138.588C342.875 138.588 342.082 139.326 342.082 140.324V145H340.906ZM346.498 144.084L345.432 147.803H344.42L345.172 144.084H346.498ZM352.062 147.789V137.576H353.197V138.752H353.334C353.58 138.355 354.045 137.48 355.48 137.48C357.34 137.48 358.639 138.957 358.639 141.309C358.639 143.66 357.34 145.15 355.494 145.15C354.072 145.15 353.58 144.275 353.334 143.865H353.238V147.789H352.062ZM353.211 141.281C353.211 142.949 353.963 144.098 355.33 144.098C356.738 144.098 357.463 142.867 357.463 141.281C357.463 139.736 356.752 138.533 355.33 138.533C353.936 138.533 353.211 139.641 353.211 141.281ZM361.346 135.102V145H360.17V135.102H361.346ZM362.863 142.895C362.863 141.186 364.367 140.803 365.652 140.707C366.124 140.673 367.327 140.611 367.662 140.598V139.996C367.662 139.053 367.102 138.506 365.98 138.506C365.037 138.506 364.477 138.943 364.312 139.504H363.082C363.232 138.314 364.395 137.48 366.035 137.48C367.006 137.48 368.824 137.768 368.824 140.105V145H367.662V143.988H367.607C367.361 144.494 366.678 145.178 365.393 145.178C363.984 145.178 362.863 144.344 362.863 142.895ZM364.039 142.949C364.039 143.729 364.695 144.125 365.598 144.125C366.924 144.125 367.662 143.236 367.662 142.307V141.555L365.789 141.691C364.723 141.76 364.039 142.143 364.039 142.949ZM373.746 145.15C371.641 145.15 370.355 143.551 370.355 141.322C370.355 139.066 371.695 137.48 373.719 137.48C375.305 137.48 376.48 138.41 376.672 139.818H375.496C375.332 139.135 374.73 138.52 373.746 138.52C372.42 138.52 371.531 139.613 371.531 141.281C371.531 143.004 372.393 144.098 373.746 144.098C374.621 144.098 375.291 143.633 375.496 142.812H376.672C376.48 144.139 375.4 145.15 373.746 145.15ZM381.238 145.15C379.092 145.15 377.766 143.633 377.766 141.35C377.766 139.066 379.105 137.48 381.129 137.48C382.688 137.48 384.328 138.438 384.328 141.186V141.678H378.941C378.996 143.25 379.912 144.111 381.238 144.111C382.127 144.111 382.688 143.729 382.961 143.264H384.219C383.863 144.385 382.77 145.15 381.238 145.15ZM378.955 140.68H383.139C383.139 139.436 382.346 138.52 381.129 138.52C379.844 138.52 379.023 139.531 378.955 140.68ZM392.613 137.576V138.561H391.055V142.867C391.055 143.824 391.52 143.975 392.025 143.975C392.244 143.975 392.545 143.961 392.723 143.947V145.041C392.545 145.068 392.244 145.096 391.902 145.096C390.918 145.096 389.865 144.48 389.865 143.168V138.561H388.744V137.576H389.865V135.799H391.055V137.576H392.613ZM395.471 140.543V145H394.295V135.102H395.471V138.738H395.566C395.908 137.973 396.578 137.48 397.754 137.48C399.271 137.48 400.283 138.383 400.283 140.283V145H399.107V140.365C399.107 139.203 398.465 138.533 397.398 138.533C396.291 138.533 395.471 139.258 395.471 140.543ZM405.287 145.15C403.141 145.15 401.814 143.633 401.814 141.35C401.814 139.066 403.154 137.48 405.178 137.48C406.736 137.48 408.377 138.438 408.377 141.186V141.678H402.99C403.045 143.25 403.961 144.111 405.287 144.111C406.176 144.111 406.736 143.729 407.01 143.264H408.268C407.912 144.385 406.818 145.15 405.287 145.15ZM403.004 140.68H407.188C407.188 139.436 406.395 138.52 405.178 138.52C403.893 138.52 403.072 139.531 403.004 140.68ZM48.9434 165V157.576H50.0781V158.738H50.1738C50.4883 157.945 51.1992 157.48 52.1699 157.48C53.1406 157.48 53.7969 157.945 54.1523 158.738H54.2344C54.6172 157.973 55.3965 157.48 56.4629 157.48C57.7891 157.48 58.7324 158.287 58.7324 160.037V165H57.5566V160.051C57.5566 158.957 56.8594 158.533 56.0527 158.533C55.0137 158.533 54.4258 159.23 54.4258 160.174V165H53.2363V159.928C53.2363 159.094 52.6348 158.533 51.7871 158.533C50.8984 158.533 50.1191 159.285 50.1191 160.365V165H48.9434ZM63.6543 165.15C61.6309 165.15 60.2637 163.633 60.2637 161.322C60.2637 159.012 61.6309 157.48 63.6543 157.48C65.6641 157.48 67.0176 159.012 67.0176 161.322C67.0176 163.633 65.6641 165.15 63.6543 165.15ZM63.6543 164.111C65.1445 164.111 65.8418 162.799 65.8418 161.322C65.8418 159.846 65.1445 158.52 63.6543 158.52C62.1367 158.52 61.4395 159.846 61.4395 161.322C61.4395 162.799 62.1367 164.111 63.6543 164.111ZM72.6914 159.504C72.5273 158.889 72.0625 158.479 71.1875 158.479C70.2715 158.479 69.6152 158.971 69.6152 159.6C69.6152 160.092 70.0117 160.434 70.8867 160.639L71.9941 160.912C73.3203 161.227 73.9766 161.883 73.9766 162.922C73.9766 164.207 72.9238 165.15 71.0645 165.15C69.3965 165.15 68.3984 164.412 68.207 163.059H69.4375C69.5742 163.783 70.1074 164.125 71.0371 164.125C72.0898 164.125 72.7598 163.688 72.7598 162.99C72.7598 162.471 72.3906 162.115 71.543 161.924L70.4219 161.664C69.123 161.363 68.4395 160.652 68.4395 159.668C68.4395 158.396 69.5469 157.48 71.1875 157.48C72.7188 157.48 73.6895 158.301 73.8398 159.504H72.6914ZM78.748 157.576V158.561H77.1895V162.867C77.1895 163.824 77.6543 163.975 78.1602 163.975C78.3789 163.975 78.6797 163.961 78.8574 163.947V165.041C78.6797 165.068 78.3789 165.096 78.0371 165.096C77.0527 165.096 76 164.48 76 163.168V158.561H74.8789V157.576H76V155.799H77.1895V157.576H78.748ZM83.7793 165V157.576H84.9551V165H83.7793ZM84.3672 156.346C83.916 156.346 83.5469 156.004 83.5469 155.566C83.5469 155.129 83.916 154.787 84.3672 154.787C84.8184 154.787 85.2012 155.129 85.2012 155.566C85.2012 156.004 84.8184 156.346 84.3672 156.346ZM86.8281 165V157.576H87.9629V158.738H88.0586C88.373 157.945 89.084 157.48 90.0547 157.48C91.0254 157.48 91.6816 157.945 92.0371 158.738H92.1191C92.502 157.973 93.2812 157.48 94.3477 157.48C95.6738 157.48 96.6172 158.287 96.6172 160.037V165H95.4414V160.051C95.4414 158.957 94.7441 158.533 93.9375 158.533C92.8984 158.533 92.3105 159.23 92.3105 160.174V165H91.1211V159.928C91.1211 159.094 90.5195 158.533 89.6719 158.533C88.7832 158.533 88.0039 159.285 88.0039 160.365V165H86.8281ZM98.5039 167.789V157.576H99.6387V158.752H99.7754C100.021 158.355 100.486 157.48 101.922 157.48C103.781 157.48 105.08 158.957 105.08 161.309C105.08 163.66 103.781 165.15 101.936 165.15C100.514 165.15 100.021 164.275 99.7754 163.865H99.6797V167.789H98.5039ZM99.6523 161.281C99.6523 162.949 100.404 164.098 101.771 164.098C103.18 164.098 103.904 162.867 103.904 161.281C103.904 159.736 103.193 158.533 101.771 158.533C100.377 158.533 99.6523 159.641 99.6523 161.281ZM109.646 165.15C107.623 165.15 106.256 163.633 106.256 161.322C106.256 159.012 107.623 157.48 109.646 157.48C111.656 157.48 113.01 159.012 113.01 161.322C113.01 163.633 111.656 165.15 109.646 165.15ZM109.646 164.111C111.137 164.111 111.834 162.799 111.834 161.322C111.834 159.846 111.137 158.52 109.646 158.52C108.129 158.52 107.432 159.846 107.432 161.322C107.432 162.799 108.129 164.111 109.646 164.111ZM114.555 165V157.576H115.689V158.711H115.771C116.045 157.959 116.811 157.453 117.686 157.453C117.863 157.453 118.164 157.467 118.301 157.48V158.67C118.219 158.643 117.891 158.588 117.59 158.588C116.523 158.588 115.73 159.326 115.73 160.324V165H114.555ZM123.154 157.576V158.561H121.596V162.867C121.596 163.824 122.061 163.975 122.566 163.975C122.785 163.975 123.086 163.961 123.264 163.947V165.041C123.086 165.068 122.785 165.096 122.443 165.096C121.459 165.096 120.406 164.48 120.406 163.168V158.561H119.285V157.576H120.406V155.799H121.596V157.576H123.154ZM124.316 162.895C124.316 161.186 125.82 160.803 127.105 160.707C127.577 160.673 128.78 160.611 129.115 160.598V159.996C129.115 159.053 128.555 158.506 127.434 158.506C126.49 158.506 125.93 158.943 125.766 159.504H124.535C124.686 158.314 125.848 157.48 127.488 157.48C128.459 157.48 130.277 157.768 130.277 160.105V165H129.115V163.988H129.061C128.814 164.494 128.131 165.178 126.846 165.178C125.438 165.178 124.316 164.344 124.316 162.895ZM125.492 162.949C125.492 163.729 126.148 164.125 127.051 164.125C128.377 164.125 129.115 163.236 129.115 162.307V161.555L127.242 161.691C126.176 161.76 125.492 162.143 125.492 162.949ZM133.34 160.543V165H132.164V157.576H133.299V158.738H133.395C133.75 157.986 134.434 157.48 135.568 157.48C137.072 157.48 138.07 158.396 138.07 160.283V165H136.895V160.365C136.895 159.217 136.266 158.533 135.213 158.533C134.133 158.533 133.34 159.258 133.34 160.543ZM143.197 157.576V158.561H141.639V162.867C141.639 163.824 142.104 163.975 142.609 163.975C142.828 163.975 143.129 163.961 143.307 163.947V165.041C143.129 165.068 142.828 165.096 142.486 165.096C141.502 165.096 140.449 164.48 140.449 163.168V158.561H139.328V157.576H140.449V155.799H141.639V157.576H143.197ZM148.229 165V157.576H149.404V165H148.229ZM148.816 156.346C148.365 156.346 147.996 156.004 147.996 155.566C147.996 155.129 148.365 154.787 148.816 154.787C149.268 154.787 149.65 155.129 149.65 155.566C149.65 156.004 149.268 156.346 148.816 156.346ZM152.453 160.543V165H151.277V157.576H152.412V158.738H152.508C152.863 157.986 153.547 157.48 154.682 157.48C156.186 157.48 157.184 158.396 157.184 160.283V165H156.008V160.365C156.008 159.217 155.379 158.533 154.326 158.533C153.246 158.533 152.453 159.258 152.453 160.543ZM162.393 157.576V158.561H160.752V165H159.562V158.561H158.373V157.576H159.562V156.564C159.562 155.361 160.369 154.637 161.682 154.637C161.969 154.637 162.311 154.678 162.557 154.719V155.771C162.311 155.73 162.092 155.717 161.941 155.717C161.121 155.717 160.752 156.059 160.752 156.824V157.576H162.393ZM166.521 165.15C164.498 165.15 163.131 163.633 163.131 161.322C163.131 159.012 164.498 157.48 166.521 157.48C168.531 157.48 169.885 159.012 169.885 161.322C169.885 163.633 168.531 165.15 166.521 165.15ZM166.521 164.111C168.012 164.111 168.709 162.799 168.709 161.322C168.709 159.846 168.012 158.52 166.521 158.52C165.004 158.52 164.307 159.846 164.307 161.322C164.307 162.799 165.004 164.111 166.521 164.111ZM171.43 165V157.576H172.564V158.711H172.646C172.92 157.959 173.686 157.453 174.561 157.453C174.738 157.453 175.039 157.467 175.176 157.48V158.67C175.094 158.643 174.766 158.588 174.465 158.588C173.398 158.588 172.605 159.326 172.605 160.324V165H171.43ZM176.324 165V157.576H177.459V158.738H177.555C177.869 157.945 178.58 157.48 179.551 157.48C180.521 157.48 181.178 157.945 181.533 158.738H181.615C181.998 157.973 182.777 157.48 183.844 157.48C185.17 157.48 186.113 158.287 186.113 160.037V165H184.938V160.051C184.938 158.957 184.24 158.533 183.434 158.533C182.395 158.533 181.807 159.23 181.807 160.174V165H180.617V159.928C180.617 159.094 180.016 158.533 179.168 158.533C178.279 158.533 177.5 159.285 177.5 160.365V165H176.324ZM187.645 162.895C187.645 161.186 189.148 160.803 190.434 160.707C190.905 160.673 192.108 160.611 192.443 160.598V159.996C192.443 159.053 191.883 158.506 190.762 158.506C189.818 158.506 189.258 158.943 189.094 159.504H187.863C188.014 158.314 189.176 157.48 190.816 157.48C191.787 157.48 193.605 157.768 193.605 160.105V165H192.443V163.988H192.389C192.143 164.494 191.459 165.178 190.174 165.178C188.766 165.178 187.645 164.344 187.645 162.895ZM188.82 162.949C188.82 163.729 189.477 164.125 190.379 164.125C191.705 164.125 192.443 163.236 192.443 162.307V161.555L190.57 161.691C189.504 161.76 188.82 162.143 188.82 162.949ZM198.732 157.576V158.561H197.174V162.867C197.174 163.824 197.639 163.975 198.145 163.975C198.363 163.975 198.664 163.961 198.842 163.947V165.041C198.664 165.068 198.363 165.096 198.021 165.096C197.037 165.096 195.984 164.48 195.984 163.168V158.561H194.863V157.576H195.984V155.799H197.174V157.576H198.732ZM200.25 165V157.576H201.426V165H200.25ZM200.838 156.346C200.387 156.346 200.018 156.004 200.018 155.566C200.018 155.129 200.387 154.787 200.838 154.787C201.289 154.787 201.672 155.129 201.672 155.566C201.672 156.004 201.289 156.346 200.838 156.346ZM206.334 165.15C204.311 165.15 202.943 163.633 202.943 161.322C202.943 159.012 204.311 157.48 206.334 157.48C208.344 157.48 209.697 159.012 209.697 161.322C209.697 163.633 208.344 165.15 206.334 165.15ZM206.334 164.111C207.824 164.111 208.521 162.799 208.521 161.322C208.521 159.846 207.824 158.52 206.334 158.52C204.816 158.52 204.119 159.846 204.119 161.322C204.119 162.799 204.816 164.111 206.334 164.111ZM212.418 160.543V165H211.242V157.576H212.377V158.738H212.473C212.828 157.986 213.512 157.48 214.646 157.48C216.15 157.48 217.148 158.396 217.148 160.283V165H215.973V160.365C215.973 159.217 215.344 158.533 214.291 158.533C213.211 158.533 212.418 159.258 212.418 160.543ZM225.871 157.576V158.561H224.23V165H223.041V158.561H221.852V157.576H223.041V156.564C223.041 155.361 223.848 154.637 225.16 154.637C225.447 154.637 225.789 154.678 226.035 154.719V155.771C225.789 155.73 225.57 155.717 225.42 155.717C224.6 155.717 224.23 156.059 224.23 156.824V157.576H225.871ZM227.266 165V157.576H228.441V165H227.266ZM227.854 156.346C227.402 156.346 227.033 156.004 227.033 155.566C227.033 155.129 227.402 154.787 227.854 154.787C228.305 154.787 228.688 155.129 228.688 155.566C228.688 156.004 228.305 156.346 227.854 156.346ZM230.314 165V157.576H231.449V158.711H231.531C231.805 157.959 232.57 157.453 233.445 157.453C233.623 157.453 233.924 157.467 234.061 157.48V158.67C233.979 158.643 233.65 158.588 233.35 158.588C232.283 158.588 231.49 159.326 231.49 160.324V165H230.314ZM239.338 159.504C239.174 158.889 238.709 158.479 237.834 158.479C236.918 158.479 236.262 158.971 236.262 159.6C236.262 160.092 236.658 160.434 237.533 160.639L238.641 160.912C239.967 161.227 240.623 161.883 240.623 162.922C240.623 164.207 239.57 165.15 237.711 165.15C236.043 165.15 235.045 164.412 234.854 163.059H236.084C236.221 163.783 236.754 164.125 237.684 164.125C238.736 164.125 239.406 163.688 239.406 162.99C239.406 162.471 239.037 162.115 238.189 161.924L237.068 161.664C235.77 161.363 235.086 160.652 235.086 159.668C235.086 158.396 236.193 157.48 237.834 157.48C239.365 157.48 240.336 158.301 240.486 159.504H239.338ZM245.395 157.576V158.561H243.836V162.867C243.836 163.824 244.301 163.975 244.807 163.975C245.025 163.975 245.326 163.961 245.504 163.947V165.041C245.326 165.068 245.025 165.096 244.684 165.096C243.699 165.096 242.646 164.48 242.646 163.168V158.561H241.525V157.576H242.646V155.799H243.836V157.576H245.395ZM254.555 159.504C254.391 158.889 253.926 158.479 253.051 158.479C252.135 158.479 251.479 158.971 251.479 159.6C251.479 160.092 251.875 160.434 252.75 160.639L253.857 160.912C255.184 161.227 255.84 161.883 255.84 162.922C255.84 164.207 254.787 165.15 252.928 165.15C251.26 165.15 250.262 164.412 250.07 163.059H251.301C251.438 163.783 251.971 164.125 252.9 164.125C253.953 164.125 254.623 163.688 254.623 162.99C254.623 162.471 254.254 162.115 253.406 161.924L252.285 161.664C250.986 161.363 250.303 160.652 250.303 159.668C250.303 158.396 251.41 157.48 253.051 157.48C254.582 157.48 255.553 158.301 255.703 159.504H254.555ZM260.406 165.15C258.383 165.15 257.016 163.633 257.016 161.322C257.016 159.012 258.383 157.48 260.406 157.48C262.416 157.48 263.77 159.012 263.77 161.322C263.77 163.633 262.416 165.15 260.406 165.15ZM260.406 164.111C261.896 164.111 262.594 162.799 262.594 161.322C262.594 159.846 261.896 158.52 260.406 158.52C258.889 158.52 258.191 159.846 258.191 161.322C258.191 162.799 258.889 164.111 260.406 164.111ZM273.518 161.951V157.576H274.68V165H273.518V163.742H273.436C273.08 164.494 272.355 165.096 271.234 165.096C269.826 165.096 268.828 164.18 268.828 162.293V157.576H270.004V162.211C270.004 163.277 270.674 163.961 271.617 163.961C272.451 163.961 273.518 163.332 273.518 161.951ZM280.695 159.504C280.531 158.889 280.066 158.479 279.191 158.479C278.275 158.479 277.619 158.971 277.619 159.6C277.619 160.092 278.016 160.434 278.891 160.639L279.998 160.912C281.324 161.227 281.98 161.883 281.98 162.922C281.98 164.207 280.928 165.15 279.068 165.15C277.4 165.15 276.402 164.412 276.211 163.059H277.441C277.578 163.783 278.111 164.125 279.041 164.125C280.094 164.125 280.764 163.688 280.764 162.99C280.764 162.471 280.395 162.115 279.547 161.924L278.426 161.664C277.127 161.363 276.443 160.652 276.443 159.668C276.443 158.396 277.551 157.48 279.191 157.48C280.723 157.48 281.693 158.301 281.844 159.504H280.695ZM286.629 165.15C284.482 165.15 283.156 163.633 283.156 161.35C283.156 159.066 284.496 157.48 286.52 157.48C288.078 157.48 289.719 158.438 289.719 161.186V161.678H284.332C284.387 163.25 285.303 164.111 286.629 164.111C287.518 164.111 288.078 163.729 288.352 163.264H289.609C289.254 164.385 288.16 165.15 286.629 165.15ZM284.346 160.68H288.529C288.529 159.436 287.736 158.52 286.52 158.52C285.234 158.52 284.414 159.531 284.346 160.68ZM291.25 165V157.576H292.385V158.711H292.467C292.74 157.959 293.506 157.453 294.381 157.453C294.559 157.453 294.859 157.467 294.996 157.48V158.67C294.914 158.643 294.586 158.588 294.285 158.588C293.219 158.588 292.426 159.326 292.426 160.324V165H291.25ZM300.273 159.504C300.109 158.889 299.645 158.479 298.77 158.479C297.854 158.479 297.197 158.971 297.197 159.6C297.197 160.092 297.594 160.434 298.469 160.639L299.576 160.912C300.902 161.227 301.559 161.883 301.559 162.922C301.559 164.207 300.506 165.15 298.646 165.15C296.979 165.15 295.98 164.412 295.789 163.059H297.02C297.156 163.783 297.689 164.125 298.619 164.125C299.672 164.125 300.342 163.688 300.342 162.99C300.342 162.471 299.973 162.115 299.125 161.924L298.004 161.664C296.705 161.363 296.021 160.652 296.021 159.668C296.021 158.396 297.129 157.48 298.77 157.48C300.301 157.48 301.271 158.301 301.422 159.504H300.273ZM309.639 165.15C307.533 165.15 306.248 163.551 306.248 161.322C306.248 159.066 307.588 157.48 309.611 157.48C311.197 157.48 312.373 158.41 312.564 159.818H311.389C311.225 159.135 310.623 158.52 309.639 158.52C308.312 158.52 307.424 159.613 307.424 161.281C307.424 163.004 308.285 164.098 309.639 164.098C310.514 164.098 311.184 163.633 311.389 162.812H312.564C312.373 164.139 311.293 165.15 309.639 165.15ZM313.658 162.895C313.658 161.186 315.162 160.803 316.447 160.707C316.919 160.673 318.122 160.611 318.457 160.598V159.996C318.457 159.053 317.896 158.506 316.775 158.506C315.832 158.506 315.271 158.943 315.107 159.504H313.877C314.027 158.314 315.189 157.48 316.83 157.48C317.801 157.48 319.619 157.768 319.619 160.105V165H318.457V163.988H318.402C318.156 164.494 317.473 165.178 316.188 165.178C314.779 165.178 313.658 164.344 313.658 162.895ZM314.834 162.949C314.834 163.729 315.49 164.125 316.393 164.125C317.719 164.125 318.457 163.236 318.457 162.307V161.555L316.584 161.691C315.518 161.76 314.834 162.143 314.834 162.949ZM322.682 160.543V165H321.506V157.576H322.641V158.738H322.736C323.092 157.986 323.775 157.48 324.91 157.48C326.414 157.48 327.412 158.396 327.412 160.283V165H326.236V160.365C326.236 159.217 325.607 158.533 324.555 158.533C323.475 158.533 322.682 159.258 322.682 160.543ZM337.857 167.789V163.865H337.775C337.516 164.275 337.037 165.15 335.615 165.15C333.77 165.15 332.457 163.66 332.457 161.309C332.457 158.957 333.77 157.48 335.629 157.48C337.064 157.48 337.529 158.355 337.775 158.752H337.898V157.576H339.047V167.789H337.857ZM335.779 164.098C337.133 164.098 337.898 162.949 337.898 161.281C337.898 159.641 337.16 158.533 335.779 158.533C334.357 158.533 333.646 159.736 333.646 161.281C333.646 162.867 334.371 164.098 335.779 164.098ZM345.609 161.951V157.576H346.771V165H345.609V163.742H345.527C345.172 164.494 344.447 165.096 343.326 165.096C341.918 165.096 340.92 164.18 340.92 162.293V157.576H342.096V162.211C342.096 163.277 342.766 163.961 343.709 163.961C344.543 163.961 345.609 163.332 345.609 161.951ZM348.658 165V157.576H349.834V165H348.658ZM349.246 156.346C348.795 156.346 348.426 156.004 348.426 155.566C348.426 155.129 348.795 154.787 349.246 154.787C349.697 154.787 350.08 155.129 350.08 155.566C350.08 156.004 349.697 156.346 349.246 156.346ZM354.742 165.15C352.637 165.15 351.352 163.551 351.352 161.322C351.352 159.066 352.691 157.48 354.715 157.48C356.301 157.48 357.477 158.41 357.668 159.818H356.492C356.328 159.135 355.727 158.52 354.742 158.52C353.416 158.52 352.527 159.613 352.527 161.281C352.527 163.004 353.389 164.098 354.742 164.098C355.617 164.098 356.287 163.633 356.492 162.812H357.668C357.477 164.139 356.396 165.15 354.742 165.15ZM359.117 165V155.102H360.293V160.857H360.43L363.643 157.576H365.092L361.961 160.748L365.324 165H363.834L361.086 161.5L360.293 162.225V165H359.117ZM367.525 155.102V165H366.35V155.102H367.525ZM370.15 167.789C369.891 167.789 369.645 167.775 369.494 167.762V166.709C369.617 166.723 369.891 166.736 370.068 166.736C370.547 166.736 370.943 166.695 371.34 165.615L371.559 165.055L368.811 157.576H370.096L372.119 163.469H372.201L374.225 157.576H375.51L372.365 166.066C371.928 167.229 371.203 167.789 370.15 167.789ZM384.451 159.504C384.287 158.889 383.822 158.479 382.947 158.479C382.031 158.479 381.375 158.971 381.375 159.6C381.375 160.092 381.771 160.434 382.646 160.639L383.754 160.912C385.08 161.227 385.736 161.883 385.736 162.922C385.736 164.207 384.684 165.15 382.824 165.15C381.156 165.15 380.158 164.412 379.967 163.059H381.197C381.334 163.783 381.867 164.125 382.797 164.125C383.85 164.125 384.52 163.688 384.52 162.99C384.52 162.471 384.15 162.115 383.303 161.924L382.182 161.664C380.883 161.363 380.199 160.652 380.199 159.668C380.199 158.396 381.307 157.48 382.947 157.48C384.479 157.48 385.449 158.301 385.6 159.504H384.451ZM390.303 165.15C388.197 165.15 386.912 163.551 386.912 161.322C386.912 159.066 388.252 157.48 390.275 157.48C391.861 157.48 393.037 158.41 393.229 159.818H392.053C391.889 159.135 391.287 158.52 390.303 158.52C388.977 158.52 388.088 159.613 388.088 161.281C388.088 163.004 388.949 164.098 390.303 164.098C391.178 164.098 391.848 163.633 392.053 162.812H393.229C393.037 164.139 391.957 165.15 390.303 165.15ZM394.322 162.895C394.322 161.186 395.826 160.803 397.111 160.707C397.583 160.673 398.786 160.611 399.121 160.598V159.996C399.121 159.053 398.561 158.506 397.439 158.506C396.496 158.506 395.936 158.943 395.771 159.504H394.541C394.691 158.314 395.854 157.48 397.494 157.48C398.465 157.48 400.283 157.768 400.283 160.105V165H399.121V163.988H399.066C398.82 164.494 398.137 165.178 396.852 165.178C395.443 165.178 394.322 164.344 394.322 162.895ZM395.498 162.949C395.498 163.729 396.154 164.125 397.057 164.125C398.383 164.125 399.121 163.236 399.121 162.307V161.555L397.248 161.691C396.182 161.76 395.498 162.143 395.498 162.949ZM403.346 160.543V165H402.17V157.576H403.305V158.738H403.4C403.756 157.986 404.439 157.48 405.574 157.48C407.078 157.48 408.076 158.396 408.076 160.283V165H406.9V160.365C406.9 159.217 406.271 158.533 405.219 158.533C404.139 158.533 403.346 159.258 403.346 160.543ZM48.5879 182.895C48.5879 181.186 50.0918 180.803 51.377 180.707C51.8486 180.673 53.0518 180.611 53.3867 180.598V179.996C53.3867 179.053 52.8262 178.506 51.7051 178.506C50.7617 178.506 50.2012 178.943 50.0371 179.504H48.8066C48.957 178.314 50.1191 177.48 51.7598 177.48C52.7305 177.48 54.5488 177.768 54.5488 180.105V185H53.3867V183.988H53.332C53.0859 184.494 52.4023 185.178 51.1172 185.178C49.709 185.178 48.5879 184.344 48.5879 182.895ZM49.7637 182.949C49.7637 183.729 50.4199 184.125 51.3223 184.125C52.6484 184.125 53.3867 183.236 53.3867 182.307V181.555L51.5137 181.691C50.4473 181.76 49.7637 182.143 49.7637 182.949ZM57.6113 180.543V185H56.4355V177.576H57.5703V178.738H57.666C58.0215 177.986 58.7051 177.48 59.8398 177.48C61.3438 177.48 62.3418 178.396 62.3418 180.283V185H61.166V180.365C61.166 179.217 60.5371 178.533 59.4844 178.533C58.4043 178.533 57.6113 179.258 57.6113 180.543ZM67.0312 185.15C65.1855 185.15 63.873 183.66 63.873 181.309C63.873 178.957 65.1855 177.48 67.0449 177.48C68.4805 177.48 68.9453 178.355 69.1914 178.752H69.2734V175.102H70.4629V185H69.3145V183.865H69.1914C68.9316 184.275 68.4531 185.15 67.0312 185.15ZM67.1953 184.098C68.5488 184.098 69.3145 182.949 69.3145 181.281C69.3145 179.641 68.5762 178.533 67.1953 178.533C65.7734 178.533 65.0625 179.736 65.0625 181.281C65.0625 182.867 65.7871 184.098 67.1953 184.098ZM76.0137 185V177.576H77.1484V178.738H77.2441C77.5586 177.945 78.2695 177.48 79.2402 177.48C80.2109 177.48 80.8672 177.945 81.2227 178.738H81.3047C81.6875 177.973 82.4668 177.48 83.5332 177.48C84.8594 177.48 85.8027 178.287 85.8027 180.037V185H84.627V180.051C84.627 178.957 83.9297 178.533 83.123 178.533C82.084 178.533 81.4961 179.23 81.4961 180.174V185H80.3066V179.928C80.3066 179.094 79.7051 178.533 78.8574 178.533C77.9688 178.533 77.1895 179.285 77.1895 180.365V185H76.0137ZM87.334 182.895C87.334 181.186 88.8379 180.803 90.123 180.707C90.5947 180.673 91.7979 180.611 92.1328 180.598V179.996C92.1328 179.053 91.5723 178.506 90.4512 178.506C89.5078 178.506 88.9473 178.943 88.7832 179.504H87.5527C87.7031 178.314 88.8652 177.48 90.5059 177.48C91.4766 177.48 93.2949 177.768 93.2949 180.105V185H92.1328V183.988H92.0781C91.832 184.494 91.1484 185.178 89.8633 185.178C88.4551 185.178 87.334 184.344 87.334 182.895ZM88.5098 182.949C88.5098 183.729 89.166 184.125 90.0684 184.125C91.3945 184.125 92.1328 183.236 92.1328 182.307V181.555L90.2598 181.691C89.1934 181.76 88.5098 182.143 88.5098 182.949ZM95.1816 185V175.102H96.3574V180.857H96.4941L99.707 177.576H101.156L98.0254 180.748L101.389 185H99.8984L97.1504 181.5L96.3574 182.225V185H95.1816ZM105.23 185.15C103.084 185.15 101.758 183.633 101.758 181.35C101.758 179.066 103.098 177.48 105.121 177.48C106.68 177.48 108.32 178.438 108.32 181.186V181.678H102.934C102.988 183.25 103.904 184.111 105.23 184.111C106.119 184.111 106.68 183.729 106.953 183.264H108.211C107.855 184.385 106.762 185.15 105.23 185.15ZM102.947 180.68H107.131C107.131 179.436 106.338 178.52 105.121 178.52C103.836 178.52 103.016 179.531 102.947 180.68ZM113.01 182.895C113.01 181.186 114.514 180.803 115.799 180.707C116.271 180.673 117.474 180.611 117.809 180.598V179.996C117.809 179.053 117.248 178.506 116.127 178.506C115.184 178.506 114.623 178.943 114.459 179.504H113.229C113.379 178.314 114.541 177.48 116.182 177.48C117.152 177.48 118.971 177.768 118.971 180.105V185H117.809V183.988H117.754C117.508 184.494 116.824 185.178 115.539 185.178C114.131 185.178 113.01 184.344 113.01 182.895ZM114.186 182.949C114.186 183.729 114.842 184.125 115.744 184.125C117.07 184.125 117.809 183.236 117.809 182.307V181.555L115.936 181.691C114.869 181.76 114.186 182.143 114.186 182.949ZM127.406 185.15C125.301 185.15 124.016 183.551 124.016 181.322C124.016 179.066 125.355 177.48 127.379 177.48C128.965 177.48 130.141 178.41 130.332 179.818H129.156C128.992 179.135 128.391 178.52 127.406 178.52C126.08 178.52 125.191 179.613 125.191 181.281C125.191 183.004 126.053 184.098 127.406 184.098C128.281 184.098 128.951 183.633 129.156 182.812H130.332C130.141 184.139 129.061 185.15 127.406 185.15ZM132.957 175.102V185H131.781V175.102H132.957ZM137.947 185.15C135.801 185.15 134.475 183.633 134.475 181.35C134.475 179.066 135.814 177.48 137.838 177.48C139.396 177.48 141.037 178.438 141.037 181.186V181.678H135.65C135.705 183.25 136.621 184.111 137.947 184.111C138.836 184.111 139.396 183.729 139.67 183.264H140.928C140.572 184.385 139.479 185.15 137.947 185.15ZM135.664 180.68H139.848C139.848 179.436 139.055 178.52 137.838 178.52C136.553 178.52 135.732 179.531 135.664 180.68ZM142.213 182.895C142.213 181.186 143.717 180.803 145.002 180.707C145.474 180.673 146.677 180.611 147.012 180.598V179.996C147.012 179.053 146.451 178.506 145.33 178.506C144.387 178.506 143.826 178.943 143.662 179.504H142.432C142.582 178.314 143.744 177.48 145.385 177.48C146.355 177.48 148.174 177.768 148.174 180.105V185H147.012V183.988H146.957C146.711 184.494 146.027 185.178 144.742 185.178C143.334 185.178 142.213 184.344 142.213 182.895ZM143.389 182.949C143.389 183.729 144.045 184.125 144.947 184.125C146.273 184.125 147.012 183.236 147.012 182.307V181.555L145.139 181.691C144.072 181.76 143.389 182.143 143.389 182.949ZM150.061 185V177.576H151.195V178.711H151.277C151.551 177.959 152.316 177.453 153.191 177.453C153.369 177.453 153.67 177.467 153.807 177.48V178.67C153.725 178.643 153.396 178.588 153.096 178.588C152.029 178.588 151.236 179.326 151.236 180.324V185H150.061ZM161.271 185.15C159.426 185.15 158.113 183.66 158.113 181.309C158.113 178.957 159.426 177.48 161.285 177.48C162.721 177.48 163.186 178.355 163.432 178.752H163.514V175.102H164.703V185H163.555V183.865H163.432C163.172 184.275 162.693 185.15 161.271 185.15ZM161.436 184.098C162.789 184.098 163.555 182.949 163.555 181.281C163.555 179.641 162.816 178.533 161.436 178.533C160.014 178.533 159.303 179.736 159.303 181.281C159.303 182.867 160.027 184.098 161.436 184.098ZM169.857 185.15C167.711 185.15 166.385 183.633 166.385 181.35C166.385 179.066 167.725 177.48 169.748 177.48C171.307 177.48 172.947 178.438 172.947 181.186V181.678H167.561C167.615 183.25 168.531 184.111 169.857 184.111C170.746 184.111 171.307 183.729 171.58 183.264H172.838C172.482 184.385 171.389 185.15 169.857 185.15ZM167.574 180.68H171.758C171.758 179.436 170.965 178.52 169.748 178.52C168.463 178.52 167.643 179.531 167.574 180.68ZM177.514 185.15C175.408 185.15 174.123 183.551 174.123 181.322C174.123 179.066 175.463 177.48 177.486 177.48C179.072 177.48 180.248 178.41 180.439 179.818H179.264C179.1 179.135 178.498 178.52 177.514 178.52C176.188 178.52 175.299 179.613 175.299 181.281C175.299 183.004 176.16 184.098 177.514 184.098C178.389 184.098 179.059 183.633 179.264 182.812H180.439C180.248 184.139 179.168 185.15 177.514 185.15ZM181.889 185V177.576H183.064V185H181.889ZM182.477 176.346C182.025 176.346 181.656 176.004 181.656 175.566C181.656 175.129 182.025 174.787 182.477 174.787C182.928 174.787 183.311 175.129 183.311 175.566C183.311 176.004 182.928 176.346 182.477 176.346ZM189.066 179.504C188.902 178.889 188.438 178.479 187.562 178.479C186.646 178.479 185.99 178.971 185.99 179.6C185.99 180.092 186.387 180.434 187.262 180.639L188.369 180.912C189.695 181.227 190.352 181.883 190.352 182.922C190.352 184.207 189.299 185.15 187.439 185.15C185.771 185.15 184.773 184.412 184.582 183.059H185.812C185.949 183.783 186.482 184.125 187.412 184.125C188.465 184.125 189.135 183.688 189.135 182.99C189.135 182.471 188.766 182.115 187.918 181.924L186.797 181.664C185.498 181.363 184.814 180.652 184.814 179.668C184.814 178.396 185.922 177.48 187.562 177.48C189.094 177.48 190.064 178.301 190.215 179.504H189.066ZM191.883 185V177.576H193.059V185H191.883ZM192.471 176.346C192.02 176.346 191.65 176.004 191.65 175.566C191.65 175.129 192.02 174.787 192.471 174.787C192.922 174.787 193.305 175.129 193.305 175.566C193.305 176.004 192.922 176.346 192.471 176.346ZM197.967 185.15C195.943 185.15 194.576 183.633 194.576 181.322C194.576 179.012 195.943 177.48 197.967 177.48C199.977 177.48 201.33 179.012 201.33 181.322C201.33 183.633 199.977 185.15 197.967 185.15ZM197.967 184.111C199.457 184.111 200.154 182.799 200.154 181.322C200.154 179.846 199.457 178.52 197.967 178.52C196.449 178.52 195.752 179.846 195.752 181.322C195.752 182.799 196.449 184.111 197.967 184.111ZM204.051 180.543V185H202.875V177.576H204.01V178.738H204.105C204.461 177.986 205.145 177.48 206.279 177.48C207.783 177.48 208.781 178.396 208.781 180.283V185H207.605V180.365C207.605 179.217 206.977 178.533 205.924 178.533C204.844 178.533 204.051 179.258 204.051 180.543ZM211.502 185.082C211.023 185.082 210.613 184.686 210.627 184.193C210.613 183.715 211.023 183.318 211.502 183.318C211.98 183.318 212.377 183.715 212.377 184.193C212.377 184.686 211.98 185.082 211.502 185.082Z" fill="var(--sol-element-primary)"/>
</g>
</g>
<defs>
<clipPath id="clip0_1670_176795">
<path d="M0 8C0 3.58172 3.58172 0 8 0H434C438.418 0 442 3.58172 442 8V252C442 256.418 438.418 260 434 260H8C3.58172 260 0 256.418 0 252V8Z" fill="var(--sol-surface)"/>
</clipPath>
<clipPath id="clip1_1670_176795">
<rect width="398" height="132" fill="var(--sol-surface)" transform="translate(22 64)"/>
</clipPath>
<clipPath id="clip2_1670_176795">
<path d="M25.334 75.334C25.334 74.2294 26.2294 73.334 27.334 73.334H36.6673C37.7719 73.334 38.6673 74.2294 38.6673 75.334V84.6673C38.6673 85.7719 37.7719 86.6673 36.6673 86.6673H27.334C26.2294 86.6673 25.334 85.7719 25.334 84.6673V75.334Z" fill="var(--sol-surface)"/>
</clipPath>
</defs>
</svg>
