<svg width="442" height="164" viewBox="0 0 442 164" fill="none" xmlns="http://www.w3.org/2000/svg">
<style>
:root {
  --sol-element-primary: #161616;
  --sol-element-tertiary: #636363;
  --sol-element-quaternary: #858585;
  --sol-fill-active: #4d469a;
  --sol-surface: #ffffff;
  --sol-error: #e76067;
  --sol-error-dim: #b84451;
  --sol-static-white: #ffffff;
  --sol-static-black: #000000;
}
@media (prefers-color-scheme: dark) {
  :root {
    --sol-element-primary: #ffffff;
    --sol-element-tertiary: rgba(255, 255, 255, 0.6);
    --sol-element-quaternary: rgba(255, 255, 255, 0.5);
    --sol-fill-active: #7b74c4;
    --sol-surface: #161616;
    --sol-error: #ee7a80;
    --sol-error-dim: #e76067;
  }
}
</style>
<g clip-path="url(#clip0_1670_175813)">
<path d="M0 8C0 3.58172 3.58172 0 8 0H434C438.418 0 442 3.58172 442 8V156C442 160.418 438.418 164 434 164H8C3.58172 164 0 160.418 0 156V8Z" fill="var(--sol-element-primary)" fill-opacity="0.04"/>
<g filter="url(#filter0_dd_1670_175813)">
<rect width="351" height="164" transform="translate(45.5)" fill="var(--sol-surface)"/>
<path d="M77.3477 32.1914C76.9238 30.9199 75.9531 30.1133 74.5449 30.1133C72.7949 30.1133 71.4004 31.4941 71.4004 34.0508C71.4004 36.6074 72.7949 37.9883 74.627 37.9883C76.3018 37.9883 77.4434 36.8672 77.4707 35.1172H74.8867V34.0371H78.6738V35.1035C78.6738 37.5645 76.9785 39.1367 74.627 39.1367C71.9883 39.1367 70.2109 37.1816 70.2109 34.0508C70.2109 30.9199 72.002 28.9648 74.5449 28.9648C76.6367 28.9648 78.25 30.2773 78.6191 32.1914H77.3477ZM80.3691 39V31.5762H81.5039V32.7109H81.5859C81.8594 31.959 82.625 31.4531 83.5 31.4531C83.6777 31.4531 83.9785 31.4668 84.1152 31.4805V32.6699C84.0332 32.6426 83.7051 32.5879 83.4043 32.5879C82.3379 32.5879 81.5449 33.3262 81.5449 34.3242V39H80.3691ZM88.0664 39.1504C86.043 39.1504 84.6758 37.6328 84.6758 35.3223C84.6758 33.0117 86.043 31.4805 88.0664 31.4805C90.0762 31.4805 91.4297 33.0117 91.4297 35.3223C91.4297 37.6328 90.0762 39.1504 88.0664 39.1504ZM88.0664 38.1113C89.5566 38.1113 90.2539 36.7988 90.2539 35.3223C90.2539 33.8457 89.5566 32.5195 88.0664 32.5195C86.5488 32.5195 85.8516 33.8457 85.8516 35.3223C85.8516 36.7988 86.5488 38.1113 88.0664 38.1113ZM97.6641 35.9512V31.5762H98.8262V39H97.6641V37.7422H97.582C97.2266 38.4941 96.502 39.0957 95.3809 39.0957C93.9727 39.0957 92.9746 38.1797 92.9746 36.293V31.5762H94.1504V36.2109C94.1504 37.2773 94.8203 37.9609 95.7637 37.9609C96.5977 37.9609 97.6641 37.332 97.6641 35.9512ZM100.713 41.7891V31.5762H101.848V32.752H101.984C102.23 32.3555 102.695 31.4805 104.131 31.4805C105.99 31.4805 107.289 32.957 107.289 35.3086C107.289 37.6602 105.99 39.1504 104.145 39.1504C102.723 39.1504 102.23 38.2754 101.984 37.8652H101.889V41.7891H100.713ZM101.861 35.2812C101.861 36.9492 102.613 38.0977 103.98 38.0977C105.389 38.0977 106.113 36.8672 106.113 35.2812C106.113 33.7363 105.402 32.5332 103.98 32.5332C102.586 32.5332 101.861 33.6406 101.861 35.2812ZM113.51 29.1016V39H112.334V29.1016H113.51ZM115.027 36.8945C115.027 35.1855 116.531 34.8027 117.816 34.707C118.288 34.6729 119.491 34.6113 119.826 34.5977V33.9961C119.826 33.0527 119.266 32.5059 118.145 32.5059C117.201 32.5059 116.641 32.9434 116.477 33.5039H115.246C115.396 32.3145 116.559 31.4805 118.199 31.4805C119.17 31.4805 120.988 31.7676 120.988 34.1055V39H119.826V37.9883H119.771C119.525 38.4941 118.842 39.1777 117.557 39.1777C116.148 39.1777 115.027 38.3438 115.027 36.8945ZM116.203 36.9492C116.203 37.7285 116.859 38.125 117.762 38.125C119.088 38.125 119.826 37.2363 119.826 36.3066V35.5547L117.953 35.6914C116.887 35.7598 116.203 36.1426 116.203 36.9492ZM123.025 39V29.1016H124.201V32.752H124.297C124.557 32.3555 124.994 31.4805 126.443 31.4805C128.303 31.4805 129.615 32.957 129.615 35.3086C129.615 37.6602 128.303 39.1504 126.457 39.1504C125.035 39.1504 124.557 38.2754 124.297 37.8652H124.16V39H123.025ZM124.174 35.2812C124.174 36.9492 124.926 38.0977 126.279 38.0977C127.688 38.0977 128.426 36.8672 128.426 35.2812C128.426 33.7363 127.715 32.5332 126.279 32.5332C124.912 32.5332 124.174 33.6406 124.174 35.2812ZM134.264 39.1504C132.117 39.1504 130.791 37.6328 130.791 35.3496C130.791 33.0664 132.131 31.4805 134.154 31.4805C135.713 31.4805 137.354 32.4375 137.354 35.1855V35.6777H131.967C132.021 37.25 132.938 38.1113 134.264 38.1113C135.152 38.1113 135.713 37.7285 135.986 37.2637H137.244C136.889 38.3848 135.795 39.1504 134.264 39.1504ZM131.98 34.6797H136.164C136.164 33.4355 135.371 32.5195 134.154 32.5195C132.869 32.5195 132.049 33.5312 131.98 34.6797ZM140.061 29.1016V39H138.885V29.1016H140.061Z" fill="var(--sol-element-tertiary)"/>
<g clip-path="url(#clip1_1670_175813)">
<path d="M72.834 63.333C72.834 62.2284 73.7294 61.333 74.834 61.333H84.1673C85.2719 61.333 86.1673 62.2284 86.1673 63.333V72.6663C86.1673 73.7709 85.2719 74.6663 84.1673 74.6663H74.834C73.7294 74.6663 72.834 73.7709 72.834 72.6663V63.333Z" fill="var(--sol-fill-active)"/>
<path d="M84.5464 65.2676L78.3805 71.4335C78.1365 71.6775 77.7408 71.6775 77.4967 71.4335L74.4531 68.3899L75.3369 67.5061L77.9384 70.1075L83.6627 64.3838L84.5464 65.2676Z" fill="var(--sol-surface)"/>
</g>
<path d="M97.0312 73H95.7461L99.3691 63.1016H100.668L104.291 73H102.992L102.008 70.2109H98.0293L97.0312 73ZM98.3984 69.1309H101.625L100.053 64.7012H99.9707L98.3984 69.1309ZM106.656 63.1016V73H105.48V63.1016H106.656ZM109.705 63.1016V73H108.529V63.1016H109.705Z" fill="var(--sol-element-primary)"/>
<path d="M98.501 93.833H108.501C109.145 93.8332 109.667 94.3558 109.667 95V105C109.667 105.644 109.145 106.166 108.501 106.166H98.501C97.8568 106.166 97.3342 105.644 97.334 105V95C97.334 94.3557 97.8566 93.833 98.501 93.833Z" stroke="var(--sol-element-primary)" stroke-opacity="0.16"/>
<path d="M128.961 100.051C128.961 103.182 127.115 105.137 124.586 105.137C122.043 105.137 120.211 103.182 120.211 100.051C120.211 96.9199 122.043 94.9648 124.586 94.9648C127.115 94.9648 128.961 96.9199 128.961 100.051ZM127.771 100.051C127.771 97.4941 126.377 96.1133 124.586 96.1133C122.795 96.1133 121.4 97.4941 121.4 100.051C121.4 102.607 122.795 103.988 124.586 103.988C126.377 103.988 127.771 102.607 127.771 100.051ZM130.615 107.789V97.5762H131.75V98.752H131.887C132.133 98.3555 132.598 97.4805 134.033 97.4805C135.893 97.4805 137.191 98.957 137.191 101.309C137.191 103.66 135.893 105.15 134.047 105.15C132.625 105.15 132.133 104.275 131.887 103.865H131.791V107.789H130.615ZM131.764 101.281C131.764 102.949 132.516 104.098 133.883 104.098C135.291 104.098 136.016 102.867 136.016 101.281C136.016 99.7363 135.305 98.5332 133.883 98.5332C132.488 98.5332 131.764 99.6406 131.764 101.281ZM141.963 97.5762V98.5605H140.404V102.867C140.404 103.824 140.869 103.975 141.375 103.975C141.594 103.975 141.895 103.961 142.072 103.947V105.041C141.895 105.068 141.594 105.096 141.252 105.096C140.268 105.096 139.215 104.48 139.215 103.168V98.5605H138.094V97.5762H139.215V95.7988H140.404V97.5762H141.963ZM143.48 105V97.5762H144.656V105H143.48ZM144.068 96.3457C143.617 96.3457 143.248 96.0039 143.248 95.5664C143.248 95.1289 143.617 94.7871 144.068 94.7871C144.52 94.7871 144.902 95.1289 144.902 95.5664C144.902 96.0039 144.52 96.3457 144.068 96.3457ZM149.564 105.15C147.541 105.15 146.174 103.633 146.174 101.322C146.174 99.0117 147.541 97.4805 149.564 97.4805C151.574 97.4805 152.928 99.0117 152.928 101.322C152.928 103.633 151.574 105.15 149.564 105.15ZM149.564 104.111C151.055 104.111 151.752 102.799 151.752 101.322C151.752 99.8457 151.055 98.5195 149.564 98.5195C148.047 98.5195 147.35 99.8457 147.35 101.322C147.35 102.799 148.047 104.111 149.564 104.111ZM155.648 100.543V105H154.473V97.5762H155.607V98.7383H155.703C156.059 97.9863 156.742 97.4805 157.877 97.4805C159.381 97.4805 160.379 98.3965 160.379 100.283V105H159.203V100.365C159.203 99.2168 158.574 98.5332 157.521 98.5332C156.441 98.5332 155.648 99.2578 155.648 100.543Z" fill="var(--sol-element-primary)"/>
<g clip-path="url(#clip2_1670_175813)">
<path d="M96.834 127.333C96.834 126.228 97.7294 125.333 98.834 125.333H108.167C109.272 125.333 110.167 126.228 110.167 127.333V136.666C110.167 137.771 109.272 138.666 108.167 138.666H98.834C97.7294 138.666 96.834 137.771 96.834 136.666V127.333Z" fill="var(--sol-fill-active)"/>
<path d="M108.546 129.268L102.381 135.433C102.136 135.677 101.741 135.678 101.497 135.433L98.4531 132.39L99.3369 131.506L101.938 134.108L107.663 128.384L108.546 129.268Z" fill="var(--sol-surface)"/>
</g>
<path d="M128.961 132.051C128.961 135.182 127.115 137.137 124.586 137.137C122.043 137.137 120.211 135.182 120.211 132.051C120.211 128.92 122.043 126.965 124.586 126.965C127.115 126.965 128.961 128.92 128.961 132.051ZM127.771 132.051C127.771 129.494 126.377 128.113 124.586 128.113C122.795 128.113 121.4 129.494 121.4 132.051C121.4 134.607 122.795 135.988 124.586 135.988C126.377 135.988 127.771 134.607 127.771 132.051ZM130.615 139.789V129.576H131.75V130.752H131.887C132.133 130.355 132.598 129.48 134.033 129.48C135.893 129.48 137.191 130.957 137.191 133.309C137.191 135.66 135.893 137.15 134.047 137.15C132.625 137.15 132.133 136.275 131.887 135.865H131.791V139.789H130.615ZM131.764 133.281C131.764 134.949 132.516 136.098 133.883 136.098C135.291 136.098 136.016 134.867 136.016 133.281C136.016 131.736 135.305 130.533 133.883 130.533C132.488 130.533 131.764 131.641 131.764 133.281ZM141.963 129.576V130.561H140.404V134.867C140.404 135.824 140.869 135.975 141.375 135.975C141.594 135.975 141.895 135.961 142.072 135.947V137.041C141.895 137.068 141.594 137.096 141.252 137.096C140.268 137.096 139.215 136.48 139.215 135.168V130.561H138.094V129.576H139.215V127.799H140.404V129.576H141.963ZM143.48 137V129.576H144.656V137H143.48ZM144.068 128.346C143.617 128.346 143.248 128.004 143.248 127.566C143.248 127.129 143.617 126.787 144.068 126.787C144.52 126.787 144.902 127.129 144.902 127.566C144.902 128.004 144.52 128.346 144.068 128.346ZM149.564 137.15C147.541 137.15 146.174 135.633 146.174 133.322C146.174 131.012 147.541 129.48 149.564 129.48C151.574 129.48 152.928 131.012 152.928 133.322C152.928 135.633 151.574 137.15 149.564 137.15ZM149.564 136.111C151.055 136.111 151.752 134.799 151.752 133.322C151.752 131.846 151.055 130.52 149.564 130.52C148.047 130.52 147.35 131.846 147.35 133.322C147.35 134.799 148.047 136.111 149.564 136.111ZM155.648 132.543V137H154.473V129.576H155.607V130.738H155.703C156.059 129.986 156.742 129.48 157.877 129.48C159.381 129.48 160.379 130.396 160.379 132.283V137H159.203V132.365C159.203 131.217 158.574 130.533 157.521 130.533C156.441 130.533 155.648 131.258 155.648 132.543Z" fill="var(--sol-element-primary)"/>
</g>
</g>
<defs>
<filter id="filter0_dd_1670_175813" x="37.5" y="-4" width="367" height="180" filterUnits="userSpaceOnUse" color-interpolation-filters="sRGB">
<feFlood flood-opacity="0" result="BackgroundImageFix"/>
<feColorMatrix in="SourceAlpha" type="matrix" values="0 0 0 0 0 0 0 0 0 0 0 0 0 0 0 0 0 0 127 0" result="hardAlpha"/>
<feOffset dy="4"/>
<feGaussianBlur stdDeviation="4"/>
<feComposite in2="hardAlpha" operator="out"/>
<feColorMatrix type="matrix" values="0 0 0 0 0 0 0 0 0 0 0 0 0 0 0 0 0 0 0.08 0"/>
<feBlend mode="normal" in2="BackgroundImageFix" result="effect1_dropShadow_1670_175813"/>
<feColorMatrix in="SourceAlpha" type="matrix" values="0 0 0 0 0 0 0 0 0 0 0 0 0 0 0 0 0 0 127 0" result="hardAlpha"/>
<feOffset/>
<feGaussianBlur stdDeviation="0.5"/>
<feComposite in2="hardAlpha" operator="out"/>
<feColorMatrix type="matrix" values="0 0 0 0 0 0 0 0 0 0 0 0 0 0 0 0 0 0 0.08 0"/>
<feBlend mode="normal" in2="effect1_dropShadow_1670_175813" result="effect2_dropShadow_1670_175813"/>
<feBlend mode="normal" in="SourceGraphic" in2="effect2_dropShadow_1670_175813" result="shape"/>
</filter>
<clipPath id="clip0_1670_175813">
<path d="M0 8C0 3.58172 3.58172 0 8 0H434C438.418 0 442 3.58172 442 8V156C442 160.418 438.418 164 434 164H8C3.58172 164 0 160.418 0 156V8Z" fill="var(--sol-surface)"/>
</clipPath>
<clipPath id="clip1_1670_175813">
<path d="M72.834 63.333C72.834 62.2284 73.7294 61.333 74.834 61.333H84.1673C85.2719 61.333 86.1673 62.2284 86.1673 63.333V72.6663C86.1673 73.7709 85.2719 74.6663 84.1673 74.6663H74.834C73.7294 74.6663 72.834 73.7709 72.834 72.6663V63.333Z" fill="var(--sol-surface)"/>
</clipPath>
<clipPath id="clip2_1670_175813">
<path d="M96.834 127.333C96.834 126.228 97.7294 125.333 98.834 125.333H108.167C109.272 125.333 110.167 126.228 110.167 127.333V136.666C110.167 137.771 109.272 138.666 108.167 138.666H98.834C97.7294 138.666 96.834 137.771 96.834 136.666V127.333Z" fill="var(--sol-surface)"/>
</clipPath>
</defs>
</svg>
