<svg width="442" height="244" viewBox="0 0 442 244" fill="none" xmlns="http://www.w3.org/2000/svg">
<style>
:root {
  --sol-element-primary: #161616;
  --sol-element-tertiary: #636363;
  --sol-fill-active: #4d469a;
  --sol-surface: #ffffff;
  --sol-error: #e76067;
}
@media (prefers-color-scheme: dark) {
  :root {
    --sol-element-primary: #ffffff;
    --sol-element-tertiary: rgba(255, 255, 255, 0.6);
    --sol-fill-active: #7b74c4;
    --sol-surface: #161616;
    --sol-error: #ee7a80;
  }
}
</style>
<g clip-path="url(#clip0_1671_179026)">
<rect width="442" height="244" fill="var(--sol-surface)"/>
<path d="M43.5742 41.1016H44.8047V47.6504C44.8047 49.6875 43.2871 51.1777 40.9492 51.1777C38.6113 51.1777 37.0938 49.6875 37.0938 47.6504V41.1016H38.3242V47.5547C38.3242 48.9902 39.3223 50.0293 40.9492 50.0293C42.5898 50.0293 43.5742 48.9902 43.5742 47.5547V41.1016ZM50.9707 45.5039C50.8066 44.8887 50.3418 44.4785 49.4668 44.4785C48.5508 44.4785 47.8945 44.9707 47.8945 45.5996C47.8945 46.0918 48.291 46.4336 49.166 46.6387L50.2734 46.9121C51.5996 47.2266 52.2559 47.8828 52.2559 48.9219C52.2559 50.207 51.2031 51.1504 49.3438 51.1504C47.6758 51.1504 46.6777 50.4121 46.4863 49.0586H47.7168C47.8535 49.7832 48.3867 50.125 49.3164 50.125C50.3691 50.125 51.0391 49.6875 51.0391 48.9902C51.0391 48.4707 50.6699 48.1152 49.8223 47.9238L48.7012 47.6641C47.4023 47.3633 46.7188 46.6523 46.7188 45.668C46.7188 44.3965 47.8262 43.4805 49.4668 43.4805C50.998 43.4805 51.9688 44.3008 52.1191 45.5039H50.9707ZM56.9043 51.1504C54.7578 51.1504 53.4316 49.6328 53.4316 47.3496C53.4316 45.0664 54.7715 43.4805 56.7949 43.4805C58.3535 43.4805 59.9941 44.4375 59.9941 47.1855V47.6777H54.6074C54.6621 49.25 55.5781 50.1113 56.9043 50.1113C57.793 50.1113 58.3535 49.7285 58.627 49.2637H59.8848C59.5293 50.3848 58.4355 51.1504 56.9043 51.1504ZM54.6211 46.6797H58.8047C58.8047 45.4355 58.0117 44.5195 56.7949 44.5195C55.5098 44.5195 54.6895 45.5312 54.6211 46.6797ZM61.5254 51V43.5762H62.6602V44.7109H62.7422C63.0156 43.959 63.7812 43.4531 64.6562 43.4531C64.834 43.4531 65.1348 43.4668 65.2715 43.4805V44.6699C65.1895 44.6426 64.8613 44.5879 64.5605 44.5879C63.4941 44.5879 62.7012 45.3262 62.7012 46.3242V51H61.5254ZM69.9336 51V43.5762H71.0684V44.7109H71.1504C71.4238 43.959 72.1895 43.4531 73.0645 43.4531C73.2422 43.4531 73.543 43.4668 73.6797 43.4805V44.6699C73.5977 44.6426 73.2695 44.5879 72.9688 44.5879C71.9023 44.5879 71.1094 45.3262 71.1094 46.3242V51H69.9336ZM77.6309 51.1504C75.6074 51.1504 74.2402 49.6328 74.2402 47.3223C74.2402 45.0117 75.6074 43.4805 77.6309 43.4805C79.6406 43.4805 80.9941 45.0117 80.9941 47.3223C80.9941 49.6328 79.6406 51.1504 77.6309 51.1504ZM77.6309 50.1113C79.1211 50.1113 79.8184 48.7988 79.8184 47.3223C79.8184 45.8457 79.1211 44.5195 77.6309 44.5195C76.1133 44.5195 75.416 45.8457 75.416 47.3223C75.416 48.7988 76.1133 50.1113 77.6309 50.1113ZM83.7148 41.1016V51H82.5391V41.1016H83.7148ZM88.7051 51.1504C86.5586 51.1504 85.2324 49.6328 85.2324 47.3496C85.2324 45.0664 86.5723 43.4805 88.5957 43.4805C90.1543 43.4805 91.7949 44.4375 91.7949 47.1855V47.6777H86.4082C86.4629 49.25 87.3789 50.1113 88.7051 50.1113C89.5938 50.1113 90.1543 49.7285 90.4277 49.2637H91.6855C91.3301 50.3848 90.2363 51.1504 88.7051 51.1504ZM86.4219 46.6797H90.6055C90.6055 45.4355 89.8125 44.5195 88.5957 44.5195C87.3105 44.5195 86.4902 45.5312 86.4219 46.6797Z" fill="var(--sol-element-tertiary)"/>
<path d="M100.76 46.666H99.8301L99.9121 44.5469L98.1074 45.6816L97.6426 44.875L99.5293 43.8906L97.6426 42.8926L98.1074 42.0859L99.9121 43.2207L99.8301 41.1016H100.76L100.678 43.2207L102.482 42.0859L102.947 42.8926L101.074 43.8906L102.947 44.875L102.482 45.6816L100.678 44.5469L100.76 46.666Z" fill="var(--sol-error)"/>
<g clip-path="url(#clip1_1671_179026)">
<path d="M39.332 80.0007C39.332 76.3188 42.3168 73.334 45.9987 73.334V73.334C49.6806 73.334 52.6654 76.3188 52.6654 80.0007V80.0007C52.6654 83.6825 49.6806 86.6673 45.9987 86.6673V86.6673C42.3168 86.6673 39.332 83.6825 39.332 80.0007V80.0007Z" fill="var(--sol-surface)"/>
<path d="M45.999 73.834C49.4046 73.8342 52.165 76.5953 52.165 80.001C52.1649 83.4065 49.4045 86.1668 45.999 86.167C42.5934 86.167 39.8322 83.4066 39.832 80.001C39.832 76.5952 42.5933 73.834 45.999 73.834Z" stroke="var(--sol-element-primary)" stroke-opacity="0.16"/>
<path d="M63.5312 85H62.2461L65.8691 75.1016H67.168L70.791 85H69.4922L68.5078 82.2109H64.5293L63.5312 85ZM64.8984 81.1309H68.125L66.5527 76.7012H66.4707L64.8984 81.1309ZM74.7695 85.1504C72.9238 85.1504 71.6113 83.6602 71.6113 81.3086C71.6113 78.957 72.9238 77.4805 74.7832 77.4805C76.2188 77.4805 76.6836 78.3555 76.9297 78.752H77.0117V75.1016H78.2012V85H77.0527V83.8652H76.9297C76.6699 84.2754 76.1914 85.1504 74.7695 85.1504ZM74.9336 84.0977C76.2871 84.0977 77.0527 82.9492 77.0527 81.2812C77.0527 79.6406 76.3145 78.5332 74.9336 78.5332C73.5117 78.5332 72.8008 79.7363 72.8008 81.2812C72.8008 82.8672 73.5254 84.0977 74.9336 84.0977ZM80.2383 85V77.5762H81.373V78.7383H81.4688C81.7832 77.9453 82.4941 77.4805 83.4648 77.4805C84.4355 77.4805 85.0918 77.9453 85.4473 78.7383H85.5293C85.9121 77.9727 86.6914 77.4805 87.7578 77.4805C89.084 77.4805 90.0273 78.2871 90.0273 80.0371V85H88.8516V80.0508C88.8516 78.957 88.1543 78.5332 87.3477 78.5332C86.3086 78.5332 85.7207 79.2305 85.7207 80.1738V85H84.5312V79.9277C84.5312 79.0938 83.9297 78.5332 83.082 78.5332C82.1934 78.5332 81.4141 79.2852 81.4141 80.3652V85H80.2383ZM91.9141 85V77.5762H93.0898V85H91.9141ZM92.502 76.3457C92.0508 76.3457 91.6816 76.0039 91.6816 75.5664C91.6816 75.1289 92.0508 74.7871 92.502 74.7871C92.9531 74.7871 93.3359 75.1289 93.3359 75.5664C93.3359 76.0039 92.9531 76.3457 92.502 76.3457ZM96.1387 80.543V85H94.9629V77.5762H96.0977V78.7383H96.1934C96.5488 77.9863 97.2324 77.4805 98.3672 77.4805C99.8711 77.4805 100.869 78.3965 100.869 80.2832V85H99.6934V80.3652C99.6934 79.2168 99.0645 78.5332 98.0117 78.5332C96.9316 78.5332 96.1387 79.2578 96.1387 80.543Z" fill="var(--sol-element-primary)"/>
<path d="M68.7266 97.1875C68.4805 96.0156 67.4727 95.3828 66.3594 95.3828C64.8242 95.3828 63.6289 96.5664 63.6289 98.7578C63.6289 100.949 64.8242 102.133 66.3594 102.133C67.4727 102.133 68.4688 101.5 68.7266 100.34H69.7812C69.4766 102.074 68.082 103.117 66.3594 103.117C64.1797 103.117 62.6094 101.441 62.6094 98.7578C62.6094 96.0742 64.1797 94.3984 66.3594 94.3984C68.0703 94.3984 69.4648 95.4297 69.7812 97.1875H68.7266ZM70.8242 101.195C70.8242 99.7305 72.1133 99.4023 73.2148 99.3203C73.6191 99.291 74.6504 99.2383 74.9375 99.2266V98.7109C74.9375 97.9023 74.457 97.4336 73.4961 97.4336C72.6875 97.4336 72.207 97.8086 72.0664 98.2891H71.0117C71.1406 97.2695 72.1367 96.5547 73.543 96.5547C74.375 96.5547 75.9336 96.8008 75.9336 98.8047V103H74.9375V102.133H74.8906C74.6797 102.566 74.0938 103.152 72.9922 103.152C71.7852 103.152 70.8242 102.438 70.8242 101.195ZM71.832 101.242C71.832 101.91 72.3945 102.25 73.168 102.25C74.3047 102.25 74.9375 101.488 74.9375 100.691V100.047L73.332 100.164C72.418 100.223 71.832 100.551 71.832 101.242ZM78.5586 99.1797V103H77.5508V96.6367H78.5234V97.6328H78.6055C78.9102 96.9883 79.4961 96.5547 80.4688 96.5547C81.7578 96.5547 82.6133 97.3398 82.6133 98.957V103H81.6055V99.0273C81.6055 98.043 81.0664 97.457 80.1641 97.457C79.2383 97.457 78.5586 98.0781 78.5586 99.1797ZM87.2422 103V96.6367H88.2148V97.6328H88.2969C88.5664 96.9531 89.1758 96.5547 90.0078 96.5547C90.8398 96.5547 91.4023 96.9531 91.707 97.6328H91.7773C92.1055 96.9766 92.7734 96.5547 93.6875 96.5547C94.8242 96.5547 95.6328 97.2461 95.6328 98.7461V103H94.625V98.7578C94.625 97.8203 94.0273 97.457 93.3359 97.457C92.4453 97.457 91.9414 98.0547 91.9414 98.8633V103H90.9219V98.6523C90.9219 97.9375 90.4062 97.457 89.6797 97.457C88.918 97.457 88.25 98.1016 88.25 99.0273V103H87.2422ZM96.9453 101.195C96.9453 99.7305 98.2344 99.4023 99.3359 99.3203C99.7402 99.291 100.771 99.2383 101.059 99.2266V98.7109C101.059 97.9023 100.578 97.4336 99.6172 97.4336C98.8086 97.4336 98.3281 97.8086 98.1875 98.2891H97.1328C97.2617 97.2695 98.2578 96.5547 99.6641 96.5547C100.496 96.5547 102.055 96.8008 102.055 98.8047V103H101.059V102.133H101.012C100.801 102.566 100.215 103.152 99.1133 103.152C97.9062 103.152 96.9453 102.438 96.9453 101.195ZM97.9531 101.242C97.9531 101.91 98.5156 102.25 99.2891 102.25C100.426 102.25 101.059 101.488 101.059 100.691V100.047L99.4531 100.164C98.5391 100.223 97.9531 100.551 97.9531 101.242ZM104.68 99.1797V103H103.672V96.6367H104.645V97.6328H104.727C105.031 96.9883 105.617 96.5547 106.59 96.5547C107.879 96.5547 108.734 97.3398 108.734 98.957V103H107.727V99.0273C107.727 98.043 107.188 97.457 106.285 97.457C105.359 97.457 104.68 98.0781 104.68 99.1797ZM110.047 101.195C110.047 99.7305 111.336 99.4023 112.438 99.3203C112.842 99.291 113.873 99.2383 114.16 99.2266V98.7109C114.16 97.9023 113.68 97.4336 112.719 97.4336C111.91 97.4336 111.43 97.8086 111.289 98.2891H110.234C110.363 97.2695 111.359 96.5547 112.766 96.5547C113.598 96.5547 115.156 96.8008 115.156 98.8047V103H114.16V102.133H114.113C113.902 102.566 113.316 103.152 112.215 103.152C111.008 103.152 110.047 102.438 110.047 101.195ZM111.055 101.242C111.055 101.91 111.617 102.25 112.391 102.25C113.527 102.25 114.16 101.488 114.16 100.691V100.047L112.555 100.164C111.641 100.223 111.055 100.551 111.055 101.242ZM119.352 105.52C117.816 105.52 116.773 104.852 116.656 103.668H117.711C117.852 104.312 118.449 104.641 119.352 104.641C120.441 104.641 121.109 104.172 121.109 103.117V101.828H121.027C120.816 102.18 120.406 102.906 119.176 102.906C117.629 102.906 116.469 101.734 116.469 99.7305C116.469 97.7734 117.594 96.5547 119.188 96.5547C120.418 96.5547 120.816 97.3047 121.051 97.6445H121.133V96.6367H122.117V103.176C122.117 104.816 120.898 105.52 119.352 105.52ZM119.316 102.004C120.477 102.004 121.133 101.172 121.133 99.7656C121.133 98.4062 120.5 97.457 119.316 97.457C118.098 97.457 117.488 98.4883 117.488 99.7656C117.488 101.09 118.109 102.004 119.316 102.004ZM126.395 103.129C124.555 103.129 123.418 101.828 123.418 99.8711C123.418 97.9141 124.566 96.5547 126.301 96.5547C127.637 96.5547 129.043 97.375 129.043 99.7305V100.152H124.426C124.473 101.5 125.258 102.238 126.395 102.238C127.156 102.238 127.637 101.91 127.871 101.512H128.949C128.645 102.473 127.707 103.129 126.395 103.129ZM124.438 99.2969H128.023C128.023 98.2305 127.344 97.4453 126.301 97.4453C125.199 97.4453 124.496 98.3125 124.438 99.2969ZM137.387 100.387V96.6367H138.383V103H137.387V101.922H137.316C137.012 102.566 136.391 103.082 135.43 103.082C134.223 103.082 133.367 102.297 133.367 100.68V96.6367H134.375V100.609C134.375 101.523 134.949 102.109 135.758 102.109C136.473 102.109 137.387 101.57 137.387 100.387ZM143.539 98.2891C143.398 97.7617 143 97.4102 142.25 97.4102C141.465 97.4102 140.902 97.832 140.902 98.3711C140.902 98.793 141.242 99.0859 141.992 99.2617L142.941 99.4961C144.078 99.7656 144.641 100.328 144.641 101.219C144.641 102.32 143.738 103.129 142.145 103.129C140.715 103.129 139.859 102.496 139.695 101.336H140.75C140.867 101.957 141.324 102.25 142.121 102.25C143.023 102.25 143.598 101.875 143.598 101.277C143.598 100.832 143.281 100.527 142.555 100.363L141.594 100.141C140.48 99.8828 139.895 99.2734 139.895 98.4297C139.895 97.3398 140.844 96.5547 142.25 96.5547C143.562 96.5547 144.395 97.2578 144.523 98.2891H143.539ZM148.625 103.129C146.785 103.129 145.648 101.828 145.648 99.8711C145.648 97.9141 146.797 96.5547 148.531 96.5547C149.867 96.5547 151.273 97.375 151.273 99.7305V100.152H146.656C146.703 101.5 147.488 102.238 148.625 102.238C149.387 102.238 149.867 101.91 150.102 101.512H151.18C150.875 102.473 149.938 103.129 148.625 103.129ZM146.668 99.2969H150.254C150.254 98.2305 149.574 97.4453 148.531 97.4453C147.43 97.4453 146.727 98.3125 146.668 99.2969ZM152.586 103V96.6367H153.559V97.6094H153.629C153.863 96.9648 154.52 96.5312 155.27 96.5312C155.422 96.5312 155.68 96.543 155.797 96.5547V97.5742C155.727 97.5508 155.445 97.5039 155.188 97.5039C154.273 97.5039 153.594 98.1367 153.594 98.9922V103H152.586ZM160.32 98.2891C160.18 97.7617 159.781 97.4102 159.031 97.4102C158.246 97.4102 157.684 97.832 157.684 98.3711C157.684 98.793 158.023 99.0859 158.773 99.2617L159.723 99.4961C160.859 99.7656 161.422 100.328 161.422 101.219C161.422 102.32 160.52 103.129 158.926 103.129C157.496 103.129 156.641 102.496 156.477 101.336H157.531C157.648 101.957 158.105 102.25 158.902 102.25C159.805 102.25 160.379 101.875 160.379 101.277C160.379 100.832 160.062 100.527 159.336 100.363L158.375 100.141C157.262 99.8828 156.676 99.2734 156.676 98.4297C156.676 97.3398 157.625 96.5547 159.031 96.5547C160.344 96.5547 161.176 97.2578 161.305 98.2891H160.32ZM164.059 102.215L163.145 105.402H162.277L162.922 102.215H164.059ZM168.828 105.391V96.6367H169.801V97.6445H169.918C170.129 97.3047 170.527 96.5547 171.758 96.5547C173.352 96.5547 174.465 97.8203 174.465 99.8359C174.465 101.852 173.352 103.129 171.77 103.129C170.551 103.129 170.129 102.379 169.918 102.027H169.836V105.391H168.828ZM169.812 99.8125C169.812 101.242 170.457 102.227 171.629 102.227C172.836 102.227 173.457 101.172 173.457 99.8125C173.457 98.4883 172.848 97.457 171.629 97.457C170.434 97.457 169.812 98.4062 169.812 99.8125ZM178.449 103.129C176.609 103.129 175.473 101.828 175.473 99.8711C175.473 97.9141 176.621 96.5547 178.355 96.5547C179.691 96.5547 181.098 97.375 181.098 99.7305V100.152H176.48C176.527 101.5 177.312 102.238 178.449 102.238C179.211 102.238 179.691 101.91 179.926 101.512H181.004C180.699 102.473 179.762 103.129 178.449 103.129ZM176.492 99.2969H180.078C180.078 98.2305 179.398 97.4453 178.355 97.4453C177.254 97.4453 176.551 98.3125 176.492 99.2969ZM182.41 103V96.6367H183.383V97.6094H183.453C183.688 96.9648 184.344 96.5312 185.094 96.5312C185.246 96.5312 185.504 96.543 185.621 96.5547V97.5742C185.551 97.5508 185.27 97.5039 185.012 97.5039C184.098 97.5039 183.418 98.1367 183.418 98.9922V103H182.41ZM186.605 103V96.6367H187.578V97.6328H187.66C187.93 96.9531 188.539 96.5547 189.371 96.5547C190.203 96.5547 190.766 96.9531 191.07 97.6328H191.141C191.469 96.9766 192.137 96.5547 193.051 96.5547C194.188 96.5547 194.996 97.2461 194.996 98.7461V103H193.988V98.7578C193.988 97.8203 193.391 97.457 192.699 97.457C191.809 97.457 191.305 98.0547 191.305 98.8633V103H190.285V98.6523C190.285 97.9375 189.77 97.457 189.043 97.457C188.281 97.457 187.613 98.1016 187.613 99.0273V103H186.605ZM196.613 103V96.6367H197.621V103H196.613ZM197.117 95.582C196.73 95.582 196.414 95.2891 196.414 94.9141C196.414 94.5391 196.73 94.2461 197.117 94.2461C197.504 94.2461 197.832 94.5391 197.832 94.9141C197.832 95.2891 197.504 95.582 197.117 95.582ZM202.766 98.2891C202.625 97.7617 202.227 97.4102 201.477 97.4102C200.691 97.4102 200.129 97.832 200.129 98.3711C200.129 98.793 200.469 99.0859 201.219 99.2617L202.168 99.4961C203.305 99.7656 203.867 100.328 203.867 101.219C203.867 102.32 202.965 103.129 201.371 103.129C199.941 103.129 199.086 102.496 198.922 101.336H199.977C200.094 101.957 200.551 102.25 201.348 102.25C202.25 102.25 202.824 101.875 202.824 101.277C202.824 100.832 202.508 100.527 201.781 100.363L200.82 100.141C199.707 99.8828 199.121 99.2734 199.121 98.4297C199.121 97.3398 200.07 96.5547 201.477 96.5547C202.789 96.5547 203.621 97.2578 203.75 98.2891H202.766ZM208.719 98.2891C208.578 97.7617 208.18 97.4102 207.43 97.4102C206.645 97.4102 206.082 97.832 206.082 98.3711C206.082 98.793 206.422 99.0859 207.172 99.2617L208.121 99.4961C209.258 99.7656 209.82 100.328 209.82 101.219C209.82 102.32 208.918 103.129 207.324 103.129C205.895 103.129 205.039 102.496 204.875 101.336H205.93C206.047 101.957 206.504 102.25 207.301 102.25C208.203 102.25 208.777 101.875 208.777 101.277C208.777 100.832 208.461 100.527 207.734 100.363L206.773 100.141C205.66 99.8828 205.074 99.2734 205.074 98.4297C205.074 97.3398 206.023 96.5547 207.43 96.5547C208.742 96.5547 209.574 97.2578 209.703 98.2891H208.719ZM211.133 103V96.6367H212.141V103H211.133ZM211.637 95.582C211.25 95.582 210.934 95.2891 210.934 94.9141C210.934 94.5391 211.25 94.2461 211.637 94.2461C212.023 94.2461 212.352 94.5391 212.352 94.9141C212.352 95.2891 212.023 95.582 211.637 95.582ZM216.348 103.129C214.613 103.129 213.441 101.828 213.441 99.8477C213.441 97.8672 214.613 96.5547 216.348 96.5547C218.07 96.5547 219.23 97.8672 219.23 99.8477C219.23 101.828 218.07 103.129 216.348 103.129ZM216.348 102.238C217.625 102.238 218.223 101.113 218.223 99.8477C218.223 98.582 217.625 97.4453 216.348 97.4453C215.047 97.4453 214.449 98.582 214.449 99.8477C214.449 101.113 215.047 102.238 216.348 102.238ZM221.562 99.1797V103H220.555V96.6367H221.527V97.6328H221.609C221.914 96.9883 222.5 96.5547 223.473 96.5547C224.762 96.5547 225.617 97.3398 225.617 98.957V103H224.609V99.0273C224.609 98.043 224.07 97.457 223.168 97.457C222.242 97.457 221.562 98.0781 221.562 99.1797ZM230.773 98.2891C230.633 97.7617 230.234 97.4102 229.484 97.4102C228.699 97.4102 228.137 97.832 228.137 98.3711C228.137 98.793 228.477 99.0859 229.227 99.2617L230.176 99.4961C231.312 99.7656 231.875 100.328 231.875 101.219C231.875 102.32 230.973 103.129 229.379 103.129C227.949 103.129 227.094 102.496 226.93 101.336H227.984C228.102 101.957 228.559 102.25 229.355 102.25C230.258 102.25 230.832 101.875 230.832 101.277C230.832 100.832 230.516 100.527 229.789 100.363L228.828 100.141C227.715 99.8828 227.129 99.2734 227.129 98.4297C227.129 97.3398 228.078 96.5547 229.484 96.5547C230.797 96.5547 231.629 97.2578 231.758 98.2891H230.773ZM234.512 102.215L233.598 105.402H232.73L233.375 102.215H234.512ZM238.977 101.195C238.977 99.7305 240.266 99.4023 241.367 99.3203C241.771 99.291 242.803 99.2383 243.09 99.2266V98.7109C243.09 97.9023 242.609 97.4336 241.648 97.4336C240.84 97.4336 240.359 97.8086 240.219 98.2891H239.164C239.293 97.2695 240.289 96.5547 241.695 96.5547C242.527 96.5547 244.086 96.8008 244.086 98.8047V103H243.09V102.133H243.043C242.832 102.566 242.246 103.152 241.145 103.152C239.938 103.152 238.977 102.438 238.977 101.195ZM239.984 101.242C239.984 101.91 240.547 102.25 241.32 102.25C242.457 102.25 243.09 101.488 243.09 100.691V100.047L241.484 100.164C240.57 100.223 239.984 100.551 239.984 101.242ZM246.711 99.1797V103H245.703V96.6367H246.676V97.6328H246.758C247.062 96.9883 247.648 96.5547 248.621 96.5547C249.91 96.5547 250.766 97.3398 250.766 98.957V103H249.758V99.0273C249.758 98.043 249.219 97.457 248.316 97.457C247.391 97.457 246.711 98.0781 246.711 99.1797ZM254.785 103.129C253.203 103.129 252.078 101.852 252.078 99.8359C252.078 97.8203 253.203 96.5547 254.797 96.5547C256.027 96.5547 256.426 97.3047 256.637 97.6445H256.707V94.5156H257.727V103H256.742V102.027H256.637C256.414 102.379 256.004 103.129 254.785 103.129ZM254.926 102.227C256.086 102.227 256.742 101.242 256.742 99.8125C256.742 98.4062 256.109 97.457 254.926 97.457C253.707 97.457 253.098 98.4883 253.098 99.8125C253.098 101.172 253.719 102.227 254.926 102.227ZM263.914 103L261.98 96.6367H263.047L264.406 101.488H264.465L265.812 96.6367H266.891L268.215 101.465H268.285L269.645 96.6367H270.699L268.766 103H267.77L266.387 98.1484H266.293L264.922 103H263.914ZM274.203 103.129C272.469 103.129 271.297 101.828 271.297 99.8477C271.297 97.8672 272.469 96.5547 274.203 96.5547C275.926 96.5547 277.086 97.8672 277.086 99.8477C277.086 101.828 275.926 103.129 274.203 103.129ZM274.203 102.238C275.48 102.238 276.078 101.113 276.078 99.8477C276.078 98.582 275.48 97.4453 274.203 97.4453C272.902 97.4453 272.305 98.582 272.305 99.8477C272.305 101.113 272.902 102.238 274.203 102.238ZM278.41 103V96.6367H279.383V97.6094H279.453C279.688 96.9648 280.344 96.5312 281.094 96.5312C281.246 96.5312 281.504 96.543 281.621 96.5547V97.5742C281.551 97.5508 281.27 97.5039 281.012 97.5039C280.098 97.5039 279.418 98.1367 279.418 98.9922V103H278.41ZM282.605 103V94.5156H283.613V99.4492H283.73L286.484 96.6367H287.727L285.043 99.3555L287.926 103H286.648L284.293 100L283.613 100.621V103H282.605ZM292.344 98.2891C292.203 97.7617 291.805 97.4102 291.055 97.4102C290.27 97.4102 289.707 97.832 289.707 98.3711C289.707 98.793 290.047 99.0859 290.797 99.2617L291.746 99.4961C292.883 99.7656 293.445 100.328 293.445 101.219C293.445 102.32 292.543 103.129 290.949 103.129C289.52 103.129 288.664 102.496 288.5 101.336H289.555C289.672 101.957 290.129 102.25 290.926 102.25C291.828 102.25 292.402 101.875 292.402 101.277C292.402 100.832 292.086 100.527 291.359 100.363L290.398 100.141C289.285 99.8828 288.699 99.2734 288.699 98.4297C288.699 97.3398 289.648 96.5547 291.055 96.5547C292.367 96.5547 293.199 97.2578 293.328 98.2891H292.344ZM294.758 105.391V96.6367H295.73V97.6445H295.848C296.059 97.3047 296.457 96.5547 297.688 96.5547C299.281 96.5547 300.395 97.8203 300.395 99.8359C300.395 101.852 299.281 103.129 297.699 103.129C296.48 103.129 296.059 102.379 295.848 102.027H295.766V105.391H294.758ZM295.742 99.8125C295.742 101.242 296.387 102.227 297.559 102.227C298.766 102.227 299.387 101.172 299.387 99.8125C299.387 98.4883 298.777 97.457 297.559 97.457C296.363 97.457 295.742 98.4062 295.742 99.8125ZM301.402 101.195C301.402 99.7305 302.691 99.4023 303.793 99.3203C304.197 99.291 305.229 99.2383 305.516 99.2266V98.7109C305.516 97.9023 305.035 97.4336 304.074 97.4336C303.266 97.4336 302.785 97.8086 302.645 98.2891H301.59C301.719 97.2695 302.715 96.5547 304.121 96.5547C304.953 96.5547 306.512 96.8008 306.512 98.8047V103H305.516V102.133H305.469C305.258 102.566 304.672 103.152 303.57 103.152C302.363 103.152 301.402 102.438 301.402 101.195ZM302.41 101.242C302.41 101.91 302.973 102.25 303.746 102.25C304.883 102.25 305.516 101.488 305.516 100.691V100.047L303.91 100.164C302.996 100.223 302.41 100.551 302.41 101.242ZM310.73 103.129C308.926 103.129 307.824 101.758 307.824 99.8477C307.824 97.9141 308.973 96.5547 310.707 96.5547C312.066 96.5547 313.074 97.3516 313.238 98.5586H312.23C312.09 97.9727 311.574 97.4453 310.73 97.4453C309.594 97.4453 308.832 98.3828 308.832 99.8125C308.832 101.289 309.57 102.227 310.73 102.227C311.48 102.227 312.055 101.828 312.23 101.125H313.238C313.074 102.262 312.148 103.129 310.73 103.129ZM317.152 103.129C315.312 103.129 314.176 101.828 314.176 99.8711C314.176 97.9141 315.324 96.5547 317.059 96.5547C318.395 96.5547 319.801 97.375 319.801 99.7305V100.152H315.184C315.23 101.5 316.016 102.238 317.152 102.238C317.914 102.238 318.395 101.91 318.629 101.512H319.707C319.402 102.473 318.465 103.129 317.152 103.129ZM315.195 99.2969H318.781C318.781 98.2305 318.102 97.4453 317.059 97.4453C315.957 97.4453 315.254 98.3125 315.195 99.2969ZM327.664 98.2891C327.523 97.7617 327.125 97.4102 326.375 97.4102C325.59 97.4102 325.027 97.832 325.027 98.3711C325.027 98.793 325.367 99.0859 326.117 99.2617L327.066 99.4961C328.203 99.7656 328.766 100.328 328.766 101.219C328.766 102.32 327.863 103.129 326.27 103.129C324.84 103.129 323.984 102.496 323.82 101.336H324.875C324.992 101.957 325.449 102.25 326.246 102.25C327.148 102.25 327.723 101.875 327.723 101.277C327.723 100.832 327.406 100.527 326.68 100.363L325.719 100.141C324.605 99.8828 324.02 99.2734 324.02 98.4297C324.02 97.3398 324.969 96.5547 326.375 96.5547C327.688 96.5547 328.52 97.2578 328.648 98.2891H327.664ZM332.75 103.129C330.91 103.129 329.773 101.828 329.773 99.8711C329.773 97.9141 330.922 96.5547 332.656 96.5547C333.992 96.5547 335.398 97.375 335.398 99.7305V100.152H330.781C330.828 101.5 331.613 102.238 332.75 102.238C333.512 102.238 333.992 101.91 334.227 101.512H335.305C335 102.473 334.062 103.129 332.75 103.129ZM330.793 99.2969H334.379C334.379 98.2305 333.699 97.4453 332.656 97.4453C331.555 97.4453 330.852 98.3125 330.793 99.2969ZM339.488 96.6367V97.4805H338.152V101.172C338.152 101.992 338.551 102.121 338.984 102.121C339.172 102.121 339.43 102.109 339.582 102.098V103.035C339.43 103.059 339.172 103.082 338.879 103.082C338.035 103.082 337.133 102.555 337.133 101.43V97.4805H336.172V96.6367H337.133V95.1133H338.152V96.6367H339.488ZM343.566 96.6367V97.4805H342.23V101.172C342.23 101.992 342.629 102.121 343.062 102.121C343.25 102.121 343.508 102.109 343.66 102.098V103.035C343.508 103.059 343.25 103.082 342.957 103.082C342.113 103.082 341.211 102.555 341.211 101.43V97.4805H340.25V96.6367H341.211V95.1133H342.23V96.6367H343.566ZM344.867 103V96.6367H345.875V103H344.867ZM345.371 95.582C344.984 95.582 344.668 95.2891 344.668 94.9141C344.668 94.5391 344.984 94.2461 345.371 94.2461C345.758 94.2461 346.086 94.5391 346.086 94.9141C346.086 95.2891 345.758 95.582 345.371 95.582ZM348.488 99.1797V103H347.48V96.6367H348.453V97.6328H348.535C348.84 96.9883 349.426 96.5547 350.398 96.5547C351.688 96.5547 352.543 97.3398 352.543 98.957V103H351.535V99.0273C351.535 98.043 350.996 97.457 350.094 97.457C349.168 97.457 348.488 98.0781 348.488 99.1797ZM356.738 105.52C355.203 105.52 354.16 104.852 354.043 103.668H355.098C355.238 104.312 355.836 104.641 356.738 104.641C357.828 104.641 358.496 104.172 358.496 103.117V101.828H358.414C358.203 102.18 357.793 102.906 356.562 102.906C355.016 102.906 353.855 101.734 353.855 99.7305C353.855 97.7734 354.98 96.5547 356.574 96.5547C357.805 96.5547 358.203 97.3047 358.438 97.6445H358.52V96.6367H359.504V103.176C359.504 104.816 358.285 105.52 356.738 105.52ZM356.703 102.004C357.863 102.004 358.52 101.172 358.52 99.7656C358.52 98.4062 357.887 97.457 356.703 97.457C355.484 97.457 354.875 98.4883 354.875 99.7656C354.875 101.09 355.496 102.004 356.703 102.004ZM364.648 98.2891C364.508 97.7617 364.109 97.4102 363.359 97.4102C362.574 97.4102 362.012 97.832 362.012 98.3711C362.012 98.793 362.352 99.0859 363.102 99.2617L364.051 99.4961C365.188 99.7656 365.75 100.328 365.75 101.219C365.75 102.32 364.848 103.129 363.254 103.129C361.824 103.129 360.969 102.496 360.805 101.336H361.859C361.977 101.957 362.434 102.25 363.23 102.25C364.133 102.25 364.707 101.875 364.707 101.277C364.707 100.832 364.391 100.527 363.664 100.363L362.703 100.141C361.59 99.8828 361.004 99.2734 361.004 98.4297C361.004 97.3398 361.953 96.5547 363.359 96.5547C364.672 96.5547 365.504 97.2578 365.633 98.2891H364.648ZM367.777 103.07C367.367 103.07 367.016 102.73 367.027 102.309C367.016 101.898 367.367 101.559 367.777 101.559C368.188 101.559 368.527 101.898 368.527 102.309C368.527 102.73 368.188 103.07 367.777 103.07Z" fill="var(--sol-element-tertiary)"/>
<path d="M39.332 128.001C39.332 124.319 42.3168 121.334 45.9987 121.334V121.334C49.6806 121.334 52.6654 124.319 52.6654 128.001V128.001C52.6654 131.683 49.6806 134.667 45.9987 134.667V134.667C42.3168 134.667 39.332 131.683 39.332 128.001V128.001Z" fill="var(--sol-surface)"/>
<path d="M45.999 121.834C49.4046 121.834 52.165 124.595 52.165 128.001C52.1649 131.406 49.4045 134.167 45.999 134.167C42.5934 134.167 39.8322 131.407 39.832 128.001C39.832 124.595 42.5933 121.834 45.999 121.834Z" stroke="var(--sol-element-primary)" stroke-opacity="0.16"/>
<path d="M63.0938 133V123.102H69.0957V124.195H64.3242V127.504H68.7812V128.584H64.3242V131.906H69.1641V133H63.0938ZM73.6895 133.15C71.8438 133.15 70.5312 131.66 70.5312 129.309C70.5312 126.957 71.8438 125.48 73.7031 125.48C75.1387 125.48 75.6035 126.355 75.8496 126.752H75.9316V123.102H77.1211V133H75.9727V131.865H75.8496C75.5898 132.275 75.1113 133.15 73.6895 133.15ZM73.8535 132.098C75.207 132.098 75.9727 130.949 75.9727 129.281C75.9727 127.641 75.2344 126.533 73.8535 126.533C72.4316 126.533 71.7207 127.736 71.7207 129.281C71.7207 130.867 72.4453 132.098 73.8535 132.098ZM79.1582 133V125.576H80.334V133H79.1582ZM79.7461 124.346C79.2949 124.346 78.9258 124.004 78.9258 123.566C78.9258 123.129 79.2949 122.787 79.7461 122.787C80.1973 122.787 80.5801 123.129 80.5801 123.566C80.5801 124.004 80.1973 124.346 79.7461 124.346ZM85.4473 125.576V126.561H83.8887V130.867C83.8887 131.824 84.3535 131.975 84.8594 131.975C85.0781 131.975 85.3789 131.961 85.5566 131.947V133.041C85.3789 133.068 85.0781 133.096 84.7363 133.096C83.752 133.096 82.6992 132.48 82.6992 131.168V126.561H81.5781V125.576H82.6992V123.799H83.8887V125.576H85.4473ZM89.9316 133.15C87.9082 133.15 86.541 131.633 86.541 129.322C86.541 127.012 87.9082 125.48 89.9316 125.48C91.9414 125.48 93.2949 127.012 93.2949 129.322C93.2949 131.633 91.9414 133.15 89.9316 133.15ZM89.9316 132.111C91.4219 132.111 92.1191 130.799 92.1191 129.322C92.1191 127.846 91.4219 126.52 89.9316 126.52C88.4141 126.52 87.7168 127.846 87.7168 129.322C87.7168 130.799 88.4141 132.111 89.9316 132.111ZM94.8398 133V125.576H95.9746V126.711H96.0566C96.3301 125.959 97.0957 125.453 97.9707 125.453C98.1484 125.453 98.4492 125.467 98.5859 125.48V126.67C98.5039 126.643 98.1758 126.588 97.875 126.588C96.8086 126.588 96.0156 127.326 96.0156 128.324V133H94.8398Z" fill="var(--sol-element-primary)"/>
<path d="M39.332 160.001C39.332 156.319 42.3168 153.334 45.9987 153.334V153.334C49.6806 153.334 52.6654 156.319 52.6654 160.001V160.001C52.6654 163.683 49.6806 166.667 45.9987 166.667V166.667C42.3168 166.667 39.332 163.683 39.332 160.001V160.001Z" fill="var(--sol-surface)"/>
<path d="M45.999 153.834C49.4046 153.834 52.165 156.595 52.165 160.001C52.1649 163.406 49.4045 166.167 45.999 166.167C42.5934 166.167 39.8322 163.407 39.832 160.001C39.832 156.595 42.5933 153.834 45.999 153.834Z" stroke="var(--sol-element-primary)" stroke-opacity="0.16"/>
<path d="M63.5449 155.102L66.457 163.4H66.5664L69.4922 155.102H70.791L67.168 165H65.8691L62.2461 155.102H63.5449ZM71.9805 165V157.576H73.1562V165H71.9805ZM72.5684 156.346C72.1172 156.346 71.748 156.004 71.748 155.566C71.748 155.129 72.1172 154.787 72.5684 154.787C73.0195 154.787 73.4023 155.129 73.4023 155.566C73.4023 156.004 73.0195 156.346 72.5684 156.346ZM78.1465 165.15C76 165.15 74.6738 163.633 74.6738 161.35C74.6738 159.066 76.0137 157.48 78.0371 157.48C79.5957 157.48 81.2363 158.438 81.2363 161.186V161.678H75.8496C75.9043 163.25 76.8203 164.111 78.1465 164.111C79.0352 164.111 79.5957 163.729 79.8691 163.264H81.127C80.7715 164.385 79.6777 165.15 78.1465 165.15ZM75.8633 160.68H80.0469C80.0469 159.436 79.2539 158.52 78.0371 158.52C76.752 158.52 75.9316 159.531 75.8633 160.68ZM84.4355 165L82.1797 157.576H83.4238L85.0098 163.236H85.0781L86.6504 157.576H87.9082L89.4531 163.209H89.5352L91.1211 157.576H92.3516L90.0957 165H88.9336L87.3203 159.34H87.2109L85.6113 165H84.4355ZM96.5215 165.15C94.375 165.15 93.0488 163.633 93.0488 161.35C93.0488 159.066 94.3887 157.48 96.4121 157.48C97.9707 157.48 99.6113 158.438 99.6113 161.186V161.678H94.2246C94.2793 163.25 95.1953 164.111 96.5215 164.111C97.4102 164.111 97.9707 163.729 98.2441 163.264H99.502C99.1465 164.385 98.0527 165.15 96.5215 165.15ZM94.2383 160.68H98.4219C98.4219 159.436 97.6289 158.52 96.4121 158.52C95.127 158.52 94.3066 159.531 94.2383 160.68ZM101.143 165V157.576H102.277V158.711H102.359C102.633 157.959 103.398 157.453 104.273 157.453C104.451 157.453 104.752 157.467 104.889 157.48V158.67C104.807 158.643 104.479 158.588 104.178 158.588C103.111 158.588 102.318 159.326 102.318 160.324V165H101.143Z" fill="var(--sol-element-primary)"/>
</g>
</g>
<defs>
<clipPath id="clip0_1671_179026">
<path d="M0 8.00001C0 3.58173 3.58172 0 8 0H434C438.418 0 442 3.58172 442 8V236C442 240.418 438.418 244 434 244H8C3.58172 244 0 240.418 0 236V8.00001Z" fill="var(--sol-surface)"/>
</clipPath>
<clipPath id="clip1_1671_179026">
<rect width="370" height="112" fill="var(--sol-surface)" transform="translate(36 64)"/>
</clipPath>
</defs>
</svg>
