<svg width="442" height="268" viewBox="0 0 442 268" fill="none" xmlns="http://www.w3.org/2000/svg">
<style>
:root {
  --sol-element-primary: #161616;
  --sol-element-tertiary: #636363;
  --sol-fill-active: #4d469a;
  --sol-surface: #ffffff;
  --sol-error: #e76067;
}
@media (prefers-color-scheme: dark) {
  :root {
    --sol-element-primary: #ffffff;
    --sol-element-tertiary: rgba(255, 255, 255, 0.6);
    --sol-fill-active: #7b74c4;
    --sol-surface: #161616;
    --sol-error: #ee7a80;
  }
}
</style>
<g clip-path="url(#clip0_1671_179019)">
<rect width="442" height="268" rx="4" fill="var(--sol-surface)"/>
<path d="M30.4941 31.5898C30.3848 30.6191 29.4961 30.0586 28.3066 30.0586C26.9941 30.0586 26.1328 30.7422 26.1328 31.6855C26.1328 32.7246 27.2949 33.1074 28.0469 33.2988L29.0312 33.5723C30.0977 33.8457 31.834 34.4609 31.834 36.3066C31.834 37.9199 30.5352 39.1777 28.2383 39.1777C26.1055 39.1777 24.7793 38.0703 24.6699 36.4297H25.9277C26.0371 37.5371 27.0625 38.0566 28.2383 38.0566C29.6055 38.0566 30.6309 37.3594 30.6309 36.2793C30.6309 35.3223 29.7148 34.9531 28.6758 34.6523L27.459 34.3242C25.9004 33.873 24.9434 33.0801 24.9434 31.7402C24.9434 30.0723 26.4336 28.9648 28.3477 28.9648C30.2617 28.9648 31.6426 30.0859 31.6973 31.5898H30.4941ZM36.5645 39.1504C34.418 39.1504 33.0918 37.6328 33.0918 35.3496C33.0918 33.0664 34.4316 31.4805 36.4551 31.4805C38.0137 31.4805 39.6543 32.4375 39.6543 35.1855V35.6777H34.2676C34.3223 37.25 35.2383 38.1113 36.5645 38.1113C37.4531 38.1113 38.0137 37.7285 38.2871 37.2637H39.5449C39.1895 38.3848 38.0957 39.1504 36.5645 39.1504ZM34.2812 34.6797H38.4648C38.4648 33.4355 37.6719 32.5195 36.4551 32.5195C35.1699 32.5195 34.3496 33.5312 34.2812 34.6797ZM42.3613 29.1016V39H41.1855V29.1016H42.3613ZM47.3516 39.1504C45.2051 39.1504 43.8789 37.6328 43.8789 35.3496C43.8789 33.0664 45.2188 31.4805 47.2422 31.4805C48.8008 31.4805 50.4414 32.4375 50.4414 35.1855V35.6777H45.0547C45.1094 37.25 46.0254 38.1113 47.3516 38.1113C48.2402 38.1113 48.8008 37.7285 49.0742 37.2637H50.332C49.9766 38.3848 48.8828 39.1504 47.3516 39.1504ZM45.0684 34.6797H49.252C49.252 33.4355 48.459 32.5195 47.2422 32.5195C45.957 32.5195 45.1367 33.5312 45.0684 34.6797ZM55.0078 39.1504C52.9023 39.1504 51.6172 37.5508 51.6172 35.3223C51.6172 33.0664 52.957 31.4805 54.9805 31.4805C56.5664 31.4805 57.7422 32.4102 57.9336 33.8184H56.7578C56.5938 33.1348 55.9922 32.5195 55.0078 32.5195C53.6816 32.5195 52.793 33.6133 52.793 35.2812C52.793 37.0039 53.6543 38.0977 55.0078 38.0977C55.8828 38.0977 56.5527 37.6328 56.7578 36.8125H57.9336C57.7422 38.1387 56.6621 39.1504 55.0078 39.1504ZM62.623 31.5762V32.5605H61.0645V36.8672C61.0645 37.8242 61.5293 37.9746 62.0352 37.9746C62.2539 37.9746 62.5547 37.9609 62.7324 37.9473V39.041C62.5547 39.0684 62.2539 39.0957 61.9121 39.0957C60.9277 39.0957 59.875 38.4805 59.875 37.168V32.5605H58.7539V31.5762H59.875V29.7988H61.0645V31.5762H62.623ZM70.6895 39.1504C68.666 39.1504 67.2988 37.6328 67.2988 35.3223C67.2988 33.0117 68.666 31.4805 70.6895 31.4805C72.6992 31.4805 74.0527 33.0117 74.0527 35.3223C74.0527 37.6328 72.6992 39.1504 70.6895 39.1504ZM70.6895 38.1113C72.1797 38.1113 72.877 36.7988 72.877 35.3223C72.877 33.8457 72.1797 32.5195 70.6895 32.5195C69.1719 32.5195 68.4746 33.8457 68.4746 35.3223C68.4746 36.7988 69.1719 38.1113 70.6895 38.1113ZM75.5977 41.7891V31.5762H76.7324V32.752H76.8691C77.1152 32.3555 77.5801 31.4805 79.0156 31.4805C80.875 31.4805 82.1738 32.957 82.1738 35.3086C82.1738 37.6602 80.875 39.1504 79.0293 39.1504C77.6074 39.1504 77.1152 38.2754 76.8691 37.8652H76.7734V41.7891H75.5977ZM76.7461 35.2812C76.7461 36.9492 77.498 38.0977 78.8652 38.0977C80.2734 38.0977 80.998 36.8672 80.998 35.2812C80.998 33.7363 80.2871 32.5332 78.8652 32.5332C77.4707 32.5332 76.7461 33.6406 76.7461 35.2812ZM86.9453 31.5762V32.5605H85.3867V36.8672C85.3867 37.8242 85.8516 37.9746 86.3574 37.9746C86.5762 37.9746 86.877 37.9609 87.0547 37.9473V39.041C86.877 39.0684 86.5762 39.0957 86.2344 39.0957C85.25 39.0957 84.1973 38.4805 84.1973 37.168V32.5605H83.0762V31.5762H84.1973V29.7988H85.3867V31.5762H86.9453ZM88.4629 39V31.5762H89.6387V39H88.4629ZM89.0508 30.3457C88.5996 30.3457 88.2305 30.0039 88.2305 29.5664C88.2305 29.1289 88.5996 28.7871 89.0508 28.7871C89.502 28.7871 89.8848 29.1289 89.8848 29.5664C89.8848 30.0039 89.502 30.3457 89.0508 30.3457ZM94.5469 39.1504C92.5234 39.1504 91.1562 37.6328 91.1562 35.3223C91.1562 33.0117 92.5234 31.4805 94.5469 31.4805C96.5566 31.4805 97.9102 33.0117 97.9102 35.3223C97.9102 37.6328 96.5566 39.1504 94.5469 39.1504ZM94.5469 38.1113C96.0371 38.1113 96.7344 36.7988 96.7344 35.3223C96.7344 33.8457 96.0371 32.5195 94.5469 32.5195C93.0293 32.5195 92.332 33.8457 92.332 35.3223C92.332 36.7988 93.0293 38.1113 94.5469 38.1113ZM100.631 34.543V39H99.4551V31.5762H100.59V32.7383H100.686C101.041 31.9863 101.725 31.4805 102.859 31.4805C104.363 31.4805 105.361 32.3965 105.361 34.2832V39H104.186V34.3652C104.186 33.2168 103.557 32.5332 102.504 32.5332C101.424 32.5332 100.631 33.2578 100.631 34.543Z" fill="var(--sol-element-tertiary)"/>
<g clip-path="url(#clip1_1671_179019)">
<g clip-path="url(#clip2_1671_179019)">
<path d="M27.332 63.334C27.332 62.2294 28.2275 61.334 29.332 61.334H38.6654C39.7699 61.334 40.6654 62.2294 40.6654 63.334V72.6673C40.6654 73.7719 39.7699 74.6673 38.6654 74.6673H29.332C28.2275 74.6673 27.332 73.7719 27.332 72.6673V63.334Z" fill="var(--sol-fill-active)"/>
<path d="M39.0464 65.2686L32.8805 71.4345C32.6365 71.6785 32.2408 71.6785 31.9967 71.4345L28.9531 68.3908L29.8369 67.5071L32.4384 70.1085L38.1627 64.3848L39.0464 65.2686Z" fill="var(--sol-surface)"/>
</g>
<path d="M59.4609 68.0508C59.4609 71.1816 57.6152 73.1367 55.0859 73.1367C52.543 73.1367 50.7109 71.1816 50.7109 68.0508C50.7109 64.9199 52.543 62.9648 55.0859 62.9648C57.6152 62.9648 59.4609 64.9199 59.4609 68.0508ZM58.2715 68.0508C58.2715 65.4941 56.877 64.1133 55.0859 64.1133C53.2949 64.1133 51.9004 65.4941 51.9004 68.0508C51.9004 70.6074 53.2949 71.9883 55.0859 71.9883C56.877 71.9883 58.2715 70.6074 58.2715 68.0508ZM61.1152 75.7891V65.5762H62.25V66.752H62.3867C62.6328 66.3555 63.0977 65.4805 64.5332 65.4805C66.3926 65.4805 67.6914 66.957 67.6914 69.3086C67.6914 71.6602 66.3926 73.1504 64.5469 73.1504C63.125 73.1504 62.6328 72.2754 62.3867 71.8652H62.291V75.7891H61.1152ZM62.2637 69.2812C62.2637 70.9492 63.0156 72.0977 64.3828 72.0977C65.791 72.0977 66.5156 70.8672 66.5156 69.2812C66.5156 67.7363 65.8047 66.5332 64.3828 66.5332C62.9883 66.5332 62.2637 67.6406 62.2637 69.2812ZM72.4629 65.5762V66.5605H70.9043V70.8672C70.9043 71.8242 71.3691 71.9746 71.875 71.9746C72.0938 71.9746 72.3945 71.9609 72.5723 71.9473V73.041C72.3945 73.0684 72.0938 73.0957 71.752 73.0957C70.7676 73.0957 69.7148 72.4805 69.7148 71.168V66.5605H68.5938V65.5762H69.7148V63.7988H70.9043V65.5762H72.4629ZM73.9805 73V65.5762H75.1562V73H73.9805ZM74.5684 64.3457C74.1172 64.3457 73.748 64.0039 73.748 63.5664C73.748 63.1289 74.1172 62.7871 74.5684 62.7871C75.0195 62.7871 75.4023 63.1289 75.4023 63.5664C75.4023 64.0039 75.0195 64.3457 74.5684 64.3457ZM80.0645 73.1504C78.041 73.1504 76.6738 71.6328 76.6738 69.3223C76.6738 67.0117 78.041 65.4805 80.0645 65.4805C82.0742 65.4805 83.4277 67.0117 83.4277 69.3223C83.4277 71.6328 82.0742 73.1504 80.0645 73.1504ZM80.0645 72.1113C81.5547 72.1113 82.252 70.7988 82.252 69.3223C82.252 67.8457 81.5547 66.5195 80.0645 66.5195C78.5469 66.5195 77.8496 67.8457 77.8496 69.3223C77.8496 70.7988 78.5469 72.1113 80.0645 72.1113ZM86.1484 68.543V73H84.9727V65.5762H86.1074V66.7383H86.2031C86.5586 65.9863 87.2422 65.4805 88.377 65.4805C89.8809 65.4805 90.8789 66.3965 90.8789 68.2832V73H89.7031V68.3652C89.7031 67.2168 89.0742 66.5332 88.0215 66.5332C86.9414 66.5332 86.1484 67.2578 86.1484 68.543Z" fill="var(--sol-element-primary)"/>
<g clip-path="url(#clip3_1671_179019)">
<path d="M27.332 95.334C27.332 94.2294 28.2275 93.334 29.332 93.334H38.6654C39.7699 93.334 40.6654 94.2294 40.6654 95.334V104.667C40.6654 105.772 39.7699 106.667 38.6654 106.667H29.332C28.2275 106.667 27.332 105.772 27.332 104.667V95.334Z" fill="var(--sol-fill-active)"/>
<path d="M39.0464 97.2686L32.8805 103.434C32.6365 103.678 32.2408 103.679 31.9967 103.434L28.9531 100.391L29.8369 99.5071L32.4384 102.109L38.1627 96.3848L39.0464 97.2686Z" fill="var(--sol-surface)"/>
</g>
<path d="M59.4609 100.051C59.4609 103.182 57.6152 105.137 55.0859 105.137C52.543 105.137 50.7109 103.182 50.7109 100.051C50.7109 96.9199 52.543 94.9648 55.0859 94.9648C57.6152 94.9648 59.4609 96.9199 59.4609 100.051ZM58.2715 100.051C58.2715 97.4941 56.877 96.1133 55.0859 96.1133C53.2949 96.1133 51.9004 97.4941 51.9004 100.051C51.9004 102.607 53.2949 103.988 55.0859 103.988C56.877 103.988 58.2715 102.607 58.2715 100.051ZM61.1152 107.789V97.5762H62.25V98.752H62.3867C62.6328 98.3555 63.0977 97.4805 64.5332 97.4805C66.3926 97.4805 67.6914 98.957 67.6914 101.309C67.6914 103.66 66.3926 105.15 64.5469 105.15C63.125 105.15 62.6328 104.275 62.3867 103.865H62.291V107.789H61.1152ZM62.2637 101.281C62.2637 102.949 63.0156 104.098 64.3828 104.098C65.791 104.098 66.5156 102.867 66.5156 101.281C66.5156 99.7363 65.8047 98.5332 64.3828 98.5332C62.9883 98.5332 62.2637 99.6406 62.2637 101.281ZM72.4629 97.5762V98.5605H70.9043V102.867C70.9043 103.824 71.3691 103.975 71.875 103.975C72.0938 103.975 72.3945 103.961 72.5723 103.947V105.041C72.3945 105.068 72.0938 105.096 71.752 105.096C70.7676 105.096 69.7148 104.48 69.7148 103.168V98.5605H68.5938V97.5762H69.7148V95.7988H70.9043V97.5762H72.4629ZM73.9805 105V97.5762H75.1562V105H73.9805ZM74.5684 96.3457C74.1172 96.3457 73.748 96.0039 73.748 95.5664C73.748 95.1289 74.1172 94.7871 74.5684 94.7871C75.0195 94.7871 75.4023 95.1289 75.4023 95.5664C75.4023 96.0039 75.0195 96.3457 74.5684 96.3457ZM80.0645 105.15C78.041 105.15 76.6738 103.633 76.6738 101.322C76.6738 99.0117 78.041 97.4805 80.0645 97.4805C82.0742 97.4805 83.4277 99.0117 83.4277 101.322C83.4277 103.633 82.0742 105.15 80.0645 105.15ZM80.0645 104.111C81.5547 104.111 82.252 102.799 82.252 101.322C82.252 99.8457 81.5547 98.5195 80.0645 98.5195C78.5469 98.5195 77.8496 99.8457 77.8496 101.322C77.8496 102.799 78.5469 104.111 80.0645 104.111ZM86.1484 100.543V105H84.9727V97.5762H86.1074V98.7383H86.2031C86.5586 97.9863 87.2422 97.4805 88.377 97.4805C89.8809 97.4805 90.8789 98.3965 90.8789 100.283V105H89.7031V100.365C89.7031 99.2168 89.0742 98.5332 88.0215 98.5332C86.9414 98.5332 86.1484 99.2578 86.1484 100.543Z" fill="var(--sol-element-primary)"/>
<g clip-path="url(#clip4_1671_179019)">
<path d="M27.332 127.334C27.332 126.229 28.2275 125.334 29.332 125.334H38.6654C39.7699 125.334 40.6654 126.229 40.6654 127.334V136.667C40.6654 137.772 39.7699 138.667 38.6654 138.667H29.332C28.2275 138.667 27.332 137.772 27.332 136.667V127.334Z" fill="var(--sol-fill-active)"/>
<path d="M39.0464 129.269L32.8805 135.434C32.6365 135.678 32.2408 135.679 31.9967 135.434L28.9531 132.391L29.8369 131.507L32.4384 134.109L38.1627 128.385L39.0464 129.269Z" fill="var(--sol-surface)"/>
</g>
<path d="M59.4609 132.051C59.4609 135.182 57.6152 137.137 55.0859 137.137C52.543 137.137 50.7109 135.182 50.7109 132.051C50.7109 128.92 52.543 126.965 55.0859 126.965C57.6152 126.965 59.4609 128.92 59.4609 132.051ZM58.2715 132.051C58.2715 129.494 56.877 128.113 55.0859 128.113C53.2949 128.113 51.9004 129.494 51.9004 132.051C51.9004 134.607 53.2949 135.988 55.0859 135.988C56.877 135.988 58.2715 134.607 58.2715 132.051ZM61.1152 139.789V129.576H62.25V130.752H62.3867C62.6328 130.355 63.0977 129.48 64.5332 129.48C66.3926 129.48 67.6914 130.957 67.6914 133.309C67.6914 135.66 66.3926 137.15 64.5469 137.15C63.125 137.15 62.6328 136.275 62.3867 135.865H62.291V139.789H61.1152ZM62.2637 133.281C62.2637 134.949 63.0156 136.098 64.3828 136.098C65.791 136.098 66.5156 134.867 66.5156 133.281C66.5156 131.736 65.8047 130.533 64.3828 130.533C62.9883 130.533 62.2637 131.641 62.2637 133.281ZM72.4629 129.576V130.561H70.9043V134.867C70.9043 135.824 71.3691 135.975 71.875 135.975C72.0938 135.975 72.3945 135.961 72.5723 135.947V137.041C72.3945 137.068 72.0938 137.096 71.752 137.096C70.7676 137.096 69.7148 136.48 69.7148 135.168V130.561H68.5938V129.576H69.7148V127.799H70.9043V129.576H72.4629ZM73.9805 137V129.576H75.1562V137H73.9805ZM74.5684 128.346C74.1172 128.346 73.748 128.004 73.748 127.566C73.748 127.129 74.1172 126.787 74.5684 126.787C75.0195 126.787 75.4023 127.129 75.4023 127.566C75.4023 128.004 75.0195 128.346 74.5684 128.346ZM80.0645 137.15C78.041 137.15 76.6738 135.633 76.6738 133.322C76.6738 131.012 78.041 129.48 80.0645 129.48C82.0742 129.48 83.4277 131.012 83.4277 133.322C83.4277 135.633 82.0742 137.15 80.0645 137.15ZM80.0645 136.111C81.5547 136.111 82.252 134.799 82.252 133.322C82.252 131.846 81.5547 130.52 80.0645 130.52C78.5469 130.52 77.8496 131.846 77.8496 133.322C77.8496 134.799 78.5469 136.111 80.0645 136.111ZM86.1484 132.543V137H84.9727V129.576H86.1074V130.738H86.2031C86.5586 129.986 87.2422 129.48 88.377 129.48C89.8809 129.48 90.8789 130.396 90.8789 132.283V137H89.7031V132.365C89.7031 131.217 89.0742 130.533 88.0215 130.533C86.9414 130.533 86.1484 131.258 86.1484 132.543Z" fill="var(--sol-element-primary)"/>
<g clip-path="url(#clip5_1671_179019)">
<path d="M27.332 159.334C27.332 158.229 28.2275 157.334 29.332 157.334H38.6654C39.7699 157.334 40.6654 158.229 40.6654 159.334V168.667C40.6654 169.772 39.7699 170.667 38.6654 170.667H29.332C28.2275 170.667 27.332 169.772 27.332 168.667V159.334Z" fill="var(--sol-fill-active)"/>
<path d="M39.0464 161.269L32.8805 167.434C32.6365 167.678 32.2408 167.679 31.9967 167.434L28.9531 164.391L29.8369 163.507L32.4384 166.109L38.1627 160.385L39.0464 161.269Z" fill="var(--sol-surface)"/>
</g>
<path d="M59.4609 164.051C59.4609 167.182 57.6152 169.137 55.0859 169.137C52.543 169.137 50.7109 167.182 50.7109 164.051C50.7109 160.92 52.543 158.965 55.0859 158.965C57.6152 158.965 59.4609 160.92 59.4609 164.051ZM58.2715 164.051C58.2715 161.494 56.877 160.113 55.0859 160.113C53.2949 160.113 51.9004 161.494 51.9004 164.051C51.9004 166.607 53.2949 167.988 55.0859 167.988C56.877 167.988 58.2715 166.607 58.2715 164.051ZM61.1152 171.789V161.576H62.25V162.752H62.3867C62.6328 162.355 63.0977 161.48 64.5332 161.48C66.3926 161.48 67.6914 162.957 67.6914 165.309C67.6914 167.66 66.3926 169.15 64.5469 169.15C63.125 169.15 62.6328 168.275 62.3867 167.865H62.291V171.789H61.1152ZM62.2637 165.281C62.2637 166.949 63.0156 168.098 64.3828 168.098C65.791 168.098 66.5156 166.867 66.5156 165.281C66.5156 163.736 65.8047 162.533 64.3828 162.533C62.9883 162.533 62.2637 163.641 62.2637 165.281ZM72.4629 161.576V162.561H70.9043V166.867C70.9043 167.824 71.3691 167.975 71.875 167.975C72.0938 167.975 72.3945 167.961 72.5723 167.947V169.041C72.3945 169.068 72.0938 169.096 71.752 169.096C70.7676 169.096 69.7148 168.48 69.7148 167.168V162.561H68.5938V161.576H69.7148V159.799H70.9043V161.576H72.4629ZM73.9805 169V161.576H75.1562V169H73.9805ZM74.5684 160.346C74.1172 160.346 73.748 160.004 73.748 159.566C73.748 159.129 74.1172 158.787 74.5684 158.787C75.0195 158.787 75.4023 159.129 75.4023 159.566C75.4023 160.004 75.0195 160.346 74.5684 160.346ZM80.0645 169.15C78.041 169.15 76.6738 167.633 76.6738 165.322C76.6738 163.012 78.041 161.48 80.0645 161.48C82.0742 161.48 83.4277 163.012 83.4277 165.322C83.4277 167.633 82.0742 169.15 80.0645 169.15ZM80.0645 168.111C81.5547 168.111 82.252 166.799 82.252 165.322C82.252 163.846 81.5547 162.52 80.0645 162.52C78.5469 162.52 77.8496 163.846 77.8496 165.322C77.8496 166.799 78.5469 168.111 80.0645 168.111ZM86.1484 164.543V169H84.9727V161.576H86.1074V162.738H86.2031C86.5586 161.986 87.2422 161.48 88.377 161.48C89.8809 161.48 90.8789 162.396 90.8789 164.283V169H89.7031V164.365C89.7031 163.217 89.0742 162.533 88.0215 162.533C86.9414 162.533 86.1484 163.258 86.1484 164.543Z" fill="var(--sol-element-primary)"/>
<g clip-path="url(#clip6_1671_179019)">
<path d="M27.332 191.334C27.332 190.229 28.2275 189.334 29.332 189.334H38.6654C39.7699 189.334 40.6654 190.229 40.6654 191.334V200.667C40.6654 201.772 39.7699 202.667 38.6654 202.667H29.332C28.2275 202.667 27.332 201.772 27.332 200.667V191.334Z" fill="var(--sol-fill-active)"/>
<path d="M39.0464 193.269L32.8805 199.434C32.6365 199.678 32.2408 199.679 31.9967 199.434L28.9531 196.391L29.8369 195.507L32.4384 198.109L38.1627 192.385L39.0464 193.269Z" fill="var(--sol-surface)"/>
</g>
<path d="M59.4609 196.051C59.4609 199.182 57.6152 201.137 55.0859 201.137C52.543 201.137 50.7109 199.182 50.7109 196.051C50.7109 192.92 52.543 190.965 55.0859 190.965C57.6152 190.965 59.4609 192.92 59.4609 196.051ZM58.2715 196.051C58.2715 193.494 56.877 192.113 55.0859 192.113C53.2949 192.113 51.9004 193.494 51.9004 196.051C51.9004 198.607 53.2949 199.988 55.0859 199.988C56.877 199.988 58.2715 198.607 58.2715 196.051ZM61.1152 203.789V193.576H62.25V194.752H62.3867C62.6328 194.355 63.0977 193.48 64.5332 193.48C66.3926 193.48 67.6914 194.957 67.6914 197.309C67.6914 199.66 66.3926 201.15 64.5469 201.15C63.125 201.15 62.6328 200.275 62.3867 199.865H62.291V203.789H61.1152ZM62.2637 197.281C62.2637 198.949 63.0156 200.098 64.3828 200.098C65.791 200.098 66.5156 198.867 66.5156 197.281C66.5156 195.736 65.8047 194.533 64.3828 194.533C62.9883 194.533 62.2637 195.641 62.2637 197.281ZM72.4629 193.576V194.561H70.9043V198.867C70.9043 199.824 71.3691 199.975 71.875 199.975C72.0938 199.975 72.3945 199.961 72.5723 199.947V201.041C72.3945 201.068 72.0938 201.096 71.752 201.096C70.7676 201.096 69.7148 200.48 69.7148 199.168V194.561H68.5938V193.576H69.7148V191.799H70.9043V193.576H72.4629ZM73.9805 201V193.576H75.1562V201H73.9805ZM74.5684 192.346C74.1172 192.346 73.748 192.004 73.748 191.566C73.748 191.129 74.1172 190.787 74.5684 190.787C75.0195 190.787 75.4023 191.129 75.4023 191.566C75.4023 192.004 75.0195 192.346 74.5684 192.346ZM80.0645 201.15C78.041 201.15 76.6738 199.633 76.6738 197.322C76.6738 195.012 78.041 193.48 80.0645 193.48C82.0742 193.48 83.4277 195.012 83.4277 197.322C83.4277 199.633 82.0742 201.15 80.0645 201.15ZM80.0645 200.111C81.5547 200.111 82.252 198.799 82.252 197.322C82.252 195.846 81.5547 194.52 80.0645 194.52C78.5469 194.52 77.8496 195.846 77.8496 197.322C77.8496 198.799 78.5469 200.111 80.0645 200.111ZM86.1484 196.543V201H84.9727V193.576H86.1074V194.738H86.2031C86.5586 193.986 87.2422 193.48 88.377 193.48C89.8809 193.48 90.8789 194.396 90.8789 196.283V201H89.7031V196.365C89.7031 195.217 89.0742 194.533 88.0215 194.533C86.9414 194.533 86.1484 195.258 86.1484 196.543Z" fill="var(--sol-element-primary)"/>
<g clip-path="url(#clip7_1671_179019)">
<path d="M27.332 223.334C27.332 222.229 28.2275 221.334 29.332 221.334H38.6654C39.7699 221.334 40.6654 222.229 40.6654 223.334V232.667C40.6654 233.772 39.7699 234.667 38.6654 234.667H29.332C28.2275 234.667 27.332 233.772 27.332 232.667V223.334Z" fill="var(--sol-fill-active)"/>
<path d="M39.0464 225.269L32.8805 231.434C32.6365 231.678 32.2408 231.679 31.9967 231.434L28.9531 228.391L29.8369 227.507L32.4384 230.109L38.1627 224.385L39.0464 225.269Z" fill="var(--sol-surface)"/>
</g>
<path d="M59.4609 228.051C59.4609 231.182 57.6152 233.137 55.0859 233.137C52.543 233.137 50.7109 231.182 50.7109 228.051C50.7109 224.92 52.543 222.965 55.0859 222.965C57.6152 222.965 59.4609 224.92 59.4609 228.051ZM58.2715 228.051C58.2715 225.494 56.877 224.113 55.0859 224.113C53.2949 224.113 51.9004 225.494 51.9004 228.051C51.9004 230.607 53.2949 231.988 55.0859 231.988C56.877 231.988 58.2715 230.607 58.2715 228.051ZM61.1152 235.789V225.576H62.25V226.752H62.3867C62.6328 226.355 63.0977 225.48 64.5332 225.48C66.3926 225.48 67.6914 226.957 67.6914 229.309C67.6914 231.66 66.3926 233.15 64.5469 233.15C63.125 233.15 62.6328 232.275 62.3867 231.865H62.291V235.789H61.1152ZM62.2637 229.281C62.2637 230.949 63.0156 232.098 64.3828 232.098C65.791 232.098 66.5156 230.867 66.5156 229.281C66.5156 227.736 65.8047 226.533 64.3828 226.533C62.9883 226.533 62.2637 227.641 62.2637 229.281ZM72.4629 225.576V226.561H70.9043V230.867C70.9043 231.824 71.3691 231.975 71.875 231.975C72.0938 231.975 72.3945 231.961 72.5723 231.947V233.041C72.3945 233.068 72.0938 233.096 71.752 233.096C70.7676 233.096 69.7148 232.48 69.7148 231.168V226.561H68.5938V225.576H69.7148V223.799H70.9043V225.576H72.4629ZM73.9805 233V225.576H75.1562V233H73.9805ZM74.5684 224.346C74.1172 224.346 73.748 224.004 73.748 223.566C73.748 223.129 74.1172 222.787 74.5684 222.787C75.0195 222.787 75.4023 223.129 75.4023 223.566C75.4023 224.004 75.0195 224.346 74.5684 224.346ZM80.0645 233.15C78.041 233.15 76.6738 231.633 76.6738 229.322C76.6738 227.012 78.041 225.48 80.0645 225.48C82.0742 225.48 83.4277 227.012 83.4277 229.322C83.4277 231.633 82.0742 233.15 80.0645 233.15ZM80.0645 232.111C81.5547 232.111 82.252 230.799 82.252 229.322C82.252 227.846 81.5547 226.52 80.0645 226.52C78.5469 226.52 77.8496 227.846 77.8496 229.322C77.8496 230.799 78.5469 232.111 80.0645 232.111ZM86.1484 228.543V233H84.9727V225.576H86.1074V226.738H86.2031C86.5586 225.986 87.2422 225.48 88.377 225.48C89.8809 225.48 90.8789 226.396 90.8789 228.283V233H89.7031V228.365C89.7031 227.217 89.0742 226.533 88.0215 226.533C86.9414 226.533 86.1484 227.258 86.1484 228.543Z" fill="var(--sol-element-primary)"/>
</g>
<g clip-path="url(#clip8_1671_179019)">
<g clip-path="url(#clip9_1671_179019)">
<path d="M129.832 63.334C129.832 62.2294 130.727 61.334 131.832 61.334H141.165C142.27 61.334 143.165 62.2294 143.165 63.334V72.6673C143.165 73.7719 142.27 74.6673 141.165 74.6673H131.832C130.727 74.6673 129.832 73.7719 129.832 72.6673V63.334Z" fill="var(--sol-fill-active)"/>
<path d="M141.546 65.2686L135.381 71.4345C135.136 71.6785 134.741 71.6785 134.497 71.4345L131.453 68.3908L132.337 67.5071L134.938 70.1085L140.663 64.3848L141.546 65.2686Z" fill="var(--sol-surface)"/>
</g>
<path d="M161.961 68.0508C161.961 71.1816 160.115 73.1367 157.586 73.1367C155.043 73.1367 153.211 71.1816 153.211 68.0508C153.211 64.9199 155.043 62.9648 157.586 62.9648C160.115 62.9648 161.961 64.9199 161.961 68.0508ZM160.771 68.0508C160.771 65.4941 159.377 64.1133 157.586 64.1133C155.795 64.1133 154.4 65.4941 154.4 68.0508C154.4 70.6074 155.795 71.9883 157.586 71.9883C159.377 71.9883 160.771 70.6074 160.771 68.0508ZM163.615 75.7891V65.5762H164.75V66.752H164.887C165.133 66.3555 165.598 65.4805 167.033 65.4805C168.893 65.4805 170.191 66.957 170.191 69.3086C170.191 71.6602 168.893 73.1504 167.047 73.1504C165.625 73.1504 165.133 72.2754 164.887 71.8652H164.791V75.7891H163.615ZM164.764 69.2812C164.764 70.9492 165.516 72.0977 166.883 72.0977C168.291 72.0977 169.016 70.8672 169.016 69.2812C169.016 67.7363 168.305 66.5332 166.883 66.5332C165.488 66.5332 164.764 67.6406 164.764 69.2812ZM174.963 65.5762V66.5605H173.404V70.8672C173.404 71.8242 173.869 71.9746 174.375 71.9746C174.594 71.9746 174.895 71.9609 175.072 71.9473V73.041C174.895 73.0684 174.594 73.0957 174.252 73.0957C173.268 73.0957 172.215 72.4805 172.215 71.168V66.5605H171.094V65.5762H172.215V63.7988H173.404V65.5762H174.963ZM176.48 73V65.5762H177.656V73H176.48ZM177.068 64.3457C176.617 64.3457 176.248 64.0039 176.248 63.5664C176.248 63.1289 176.617 62.7871 177.068 62.7871C177.52 62.7871 177.902 63.1289 177.902 63.5664C177.902 64.0039 177.52 64.3457 177.068 64.3457ZM182.564 73.1504C180.541 73.1504 179.174 71.6328 179.174 69.3223C179.174 67.0117 180.541 65.4805 182.564 65.4805C184.574 65.4805 185.928 67.0117 185.928 69.3223C185.928 71.6328 184.574 73.1504 182.564 73.1504ZM182.564 72.1113C184.055 72.1113 184.752 70.7988 184.752 69.3223C184.752 67.8457 184.055 66.5195 182.564 66.5195C181.047 66.5195 180.35 67.8457 180.35 69.3223C180.35 70.7988 181.047 72.1113 182.564 72.1113ZM188.648 68.543V73H187.473V65.5762H188.607V66.7383H188.703C189.059 65.9863 189.742 65.4805 190.877 65.4805C192.381 65.4805 193.379 66.3965 193.379 68.2832V73H192.203V68.3652C192.203 67.2168 191.574 66.5332 190.521 66.5332C189.441 66.5332 188.648 67.2578 188.648 68.543Z" fill="var(--sol-element-primary)"/>
<g clip-path="url(#clip10_1671_179019)">
<path d="M129.832 95.334C129.832 94.2294 130.727 93.334 131.832 93.334H141.165C142.27 93.334 143.165 94.2294 143.165 95.334V104.667C143.165 105.772 142.27 106.667 141.165 106.667H131.832C130.727 106.667 129.832 105.772 129.832 104.667V95.334Z" fill="var(--sol-fill-active)"/>
<path d="M141.546 97.2686L135.381 103.434C135.136 103.678 134.741 103.679 134.497 103.434L131.453 100.391L132.337 99.5071L134.938 102.109L140.663 96.3848L141.546 97.2686Z" fill="var(--sol-surface)"/>
</g>
<path d="M161.961 100.051C161.961 103.182 160.115 105.137 157.586 105.137C155.043 105.137 153.211 103.182 153.211 100.051C153.211 96.9199 155.043 94.9648 157.586 94.9648C160.115 94.9648 161.961 96.9199 161.961 100.051ZM160.771 100.051C160.771 97.4941 159.377 96.1133 157.586 96.1133C155.795 96.1133 154.4 97.4941 154.4 100.051C154.4 102.607 155.795 103.988 157.586 103.988C159.377 103.988 160.771 102.607 160.771 100.051ZM163.615 107.789V97.5762H164.75V98.752H164.887C165.133 98.3555 165.598 97.4805 167.033 97.4805C168.893 97.4805 170.191 98.957 170.191 101.309C170.191 103.66 168.893 105.15 167.047 105.15C165.625 105.15 165.133 104.275 164.887 103.865H164.791V107.789H163.615ZM164.764 101.281C164.764 102.949 165.516 104.098 166.883 104.098C168.291 104.098 169.016 102.867 169.016 101.281C169.016 99.7363 168.305 98.5332 166.883 98.5332C165.488 98.5332 164.764 99.6406 164.764 101.281ZM174.963 97.5762V98.5605H173.404V102.867C173.404 103.824 173.869 103.975 174.375 103.975C174.594 103.975 174.895 103.961 175.072 103.947V105.041C174.895 105.068 174.594 105.096 174.252 105.096C173.268 105.096 172.215 104.48 172.215 103.168V98.5605H171.094V97.5762H172.215V95.7988H173.404V97.5762H174.963ZM176.48 105V97.5762H177.656V105H176.48ZM177.068 96.3457C176.617 96.3457 176.248 96.0039 176.248 95.5664C176.248 95.1289 176.617 94.7871 177.068 94.7871C177.52 94.7871 177.902 95.1289 177.902 95.5664C177.902 96.0039 177.52 96.3457 177.068 96.3457ZM182.564 105.15C180.541 105.15 179.174 103.633 179.174 101.322C179.174 99.0117 180.541 97.4805 182.564 97.4805C184.574 97.4805 185.928 99.0117 185.928 101.322C185.928 103.633 184.574 105.15 182.564 105.15ZM182.564 104.111C184.055 104.111 184.752 102.799 184.752 101.322C184.752 99.8457 184.055 98.5195 182.564 98.5195C181.047 98.5195 180.35 99.8457 180.35 101.322C180.35 102.799 181.047 104.111 182.564 104.111ZM188.648 100.543V105H187.473V97.5762H188.607V98.7383H188.703C189.059 97.9863 189.742 97.4805 190.877 97.4805C192.381 97.4805 193.379 98.3965 193.379 100.283V105H192.203V100.365C192.203 99.2168 191.574 98.5332 190.521 98.5332C189.441 98.5332 188.648 99.2578 188.648 100.543Z" fill="var(--sol-element-primary)"/>
<g clip-path="url(#clip11_1671_179019)">
<path d="M129.832 127.334C129.832 126.229 130.727 125.334 131.832 125.334H141.165C142.27 125.334 143.165 126.229 143.165 127.334V136.667C143.165 137.772 142.27 138.667 141.165 138.667H131.832C130.727 138.667 129.832 137.772 129.832 136.667V127.334Z" fill="var(--sol-fill-active)"/>
<path d="M141.546 129.269L135.381 135.434C135.136 135.678 134.741 135.679 134.497 135.434L131.453 132.391L132.337 131.507L134.938 134.109L140.663 128.385L141.546 129.269Z" fill="var(--sol-surface)"/>
</g>
<path d="M161.961 132.051C161.961 135.182 160.115 137.137 157.586 137.137C155.043 137.137 153.211 135.182 153.211 132.051C153.211 128.92 155.043 126.965 157.586 126.965C160.115 126.965 161.961 128.92 161.961 132.051ZM160.771 132.051C160.771 129.494 159.377 128.113 157.586 128.113C155.795 128.113 154.4 129.494 154.4 132.051C154.4 134.607 155.795 135.988 157.586 135.988C159.377 135.988 160.771 134.607 160.771 132.051ZM163.615 139.789V129.576H164.75V130.752H164.887C165.133 130.355 165.598 129.48 167.033 129.48C168.893 129.48 170.191 130.957 170.191 133.309C170.191 135.66 168.893 137.15 167.047 137.15C165.625 137.15 165.133 136.275 164.887 135.865H164.791V139.789H163.615ZM164.764 133.281C164.764 134.949 165.516 136.098 166.883 136.098C168.291 136.098 169.016 134.867 169.016 133.281C169.016 131.736 168.305 130.533 166.883 130.533C165.488 130.533 164.764 131.641 164.764 133.281ZM174.963 129.576V130.561H173.404V134.867C173.404 135.824 173.869 135.975 174.375 135.975C174.594 135.975 174.895 135.961 175.072 135.947V137.041C174.895 137.068 174.594 137.096 174.252 137.096C173.268 137.096 172.215 136.48 172.215 135.168V130.561H171.094V129.576H172.215V127.799H173.404V129.576H174.963ZM176.48 137V129.576H177.656V137H176.48ZM177.068 128.346C176.617 128.346 176.248 128.004 176.248 127.566C176.248 127.129 176.617 126.787 177.068 126.787C177.52 126.787 177.902 127.129 177.902 127.566C177.902 128.004 177.52 128.346 177.068 128.346ZM182.564 137.15C180.541 137.15 179.174 135.633 179.174 133.322C179.174 131.012 180.541 129.48 182.564 129.48C184.574 129.48 185.928 131.012 185.928 133.322C185.928 135.633 184.574 137.15 182.564 137.15ZM182.564 136.111C184.055 136.111 184.752 134.799 184.752 133.322C184.752 131.846 184.055 130.52 182.564 130.52C181.047 130.52 180.35 131.846 180.35 133.322C180.35 134.799 181.047 136.111 182.564 136.111ZM188.648 132.543V137H187.473V129.576H188.607V130.738H188.703C189.059 129.986 189.742 129.48 190.877 129.48C192.381 129.48 193.379 130.396 193.379 132.283V137H192.203V132.365C192.203 131.217 191.574 130.533 190.521 130.533C189.441 130.533 188.648 131.258 188.648 132.543Z" fill="var(--sol-element-primary)"/>
<g clip-path="url(#clip12_1671_179019)">
<path d="M129.832 159.334C129.832 158.229 130.727 157.334 131.832 157.334H141.165C142.27 157.334 143.165 158.229 143.165 159.334V168.667C143.165 169.772 142.27 170.667 141.165 170.667H131.832C130.727 170.667 129.832 169.772 129.832 168.667V159.334Z" fill="var(--sol-fill-active)"/>
<path d="M141.546 161.269L135.381 167.434C135.136 167.678 134.741 167.679 134.497 167.434L131.453 164.391L132.337 163.507L134.938 166.109L140.663 160.385L141.546 161.269Z" fill="var(--sol-surface)"/>
</g>
<path d="M161.961 164.051C161.961 167.182 160.115 169.137 157.586 169.137C155.043 169.137 153.211 167.182 153.211 164.051C153.211 160.92 155.043 158.965 157.586 158.965C160.115 158.965 161.961 160.92 161.961 164.051ZM160.771 164.051C160.771 161.494 159.377 160.113 157.586 160.113C155.795 160.113 154.4 161.494 154.4 164.051C154.4 166.607 155.795 167.988 157.586 167.988C159.377 167.988 160.771 166.607 160.771 164.051ZM163.615 171.789V161.576H164.75V162.752H164.887C165.133 162.355 165.598 161.48 167.033 161.48C168.893 161.48 170.191 162.957 170.191 165.309C170.191 167.66 168.893 169.15 167.047 169.15C165.625 169.15 165.133 168.275 164.887 167.865H164.791V171.789H163.615ZM164.764 165.281C164.764 166.949 165.516 168.098 166.883 168.098C168.291 168.098 169.016 166.867 169.016 165.281C169.016 163.736 168.305 162.533 166.883 162.533C165.488 162.533 164.764 163.641 164.764 165.281ZM174.963 161.576V162.561H173.404V166.867C173.404 167.824 173.869 167.975 174.375 167.975C174.594 167.975 174.895 167.961 175.072 167.947V169.041C174.895 169.068 174.594 169.096 174.252 169.096C173.268 169.096 172.215 168.48 172.215 167.168V162.561H171.094V161.576H172.215V159.799H173.404V161.576H174.963ZM176.48 169V161.576H177.656V169H176.48ZM177.068 160.346C176.617 160.346 176.248 160.004 176.248 159.566C176.248 159.129 176.617 158.787 177.068 158.787C177.52 158.787 177.902 159.129 177.902 159.566C177.902 160.004 177.52 160.346 177.068 160.346ZM182.564 169.15C180.541 169.15 179.174 167.633 179.174 165.322C179.174 163.012 180.541 161.48 182.564 161.48C184.574 161.48 185.928 163.012 185.928 165.322C185.928 167.633 184.574 169.15 182.564 169.15ZM182.564 168.111C184.055 168.111 184.752 166.799 184.752 165.322C184.752 163.846 184.055 162.52 182.564 162.52C181.047 162.52 180.35 163.846 180.35 165.322C180.35 166.799 181.047 168.111 182.564 168.111ZM188.648 164.543V169H187.473V161.576H188.607V162.738H188.703C189.059 161.986 189.742 161.48 190.877 161.48C192.381 161.48 193.379 162.396 193.379 164.283V169H192.203V164.365C192.203 163.217 191.574 162.533 190.521 162.533C189.441 162.533 188.648 163.258 188.648 164.543Z" fill="var(--sol-element-primary)"/>
<g clip-path="url(#clip13_1671_179019)">
<path d="M129.832 191.334C129.832 190.229 130.727 189.334 131.832 189.334H141.165C142.27 189.334 143.165 190.229 143.165 191.334V200.667C143.165 201.772 142.27 202.667 141.165 202.667H131.832C130.727 202.667 129.832 201.772 129.832 200.667V191.334Z" fill="var(--sol-fill-active)"/>
<path d="M141.546 193.269L135.381 199.434C135.136 199.678 134.741 199.679 134.497 199.434L131.453 196.391L132.337 195.507L134.938 198.109L140.663 192.385L141.546 193.269Z" fill="var(--sol-surface)"/>
</g>
<path d="M161.961 196.051C161.961 199.182 160.115 201.137 157.586 201.137C155.043 201.137 153.211 199.182 153.211 196.051C153.211 192.92 155.043 190.965 157.586 190.965C160.115 190.965 161.961 192.92 161.961 196.051ZM160.771 196.051C160.771 193.494 159.377 192.113 157.586 192.113C155.795 192.113 154.4 193.494 154.4 196.051C154.4 198.607 155.795 199.988 157.586 199.988C159.377 199.988 160.771 198.607 160.771 196.051ZM163.615 203.789V193.576H164.75V194.752H164.887C165.133 194.355 165.598 193.48 167.033 193.48C168.893 193.48 170.191 194.957 170.191 197.309C170.191 199.66 168.893 201.15 167.047 201.15C165.625 201.15 165.133 200.275 164.887 199.865H164.791V203.789H163.615ZM164.764 197.281C164.764 198.949 165.516 200.098 166.883 200.098C168.291 200.098 169.016 198.867 169.016 197.281C169.016 195.736 168.305 194.533 166.883 194.533C165.488 194.533 164.764 195.641 164.764 197.281ZM174.963 193.576V194.561H173.404V198.867C173.404 199.824 173.869 199.975 174.375 199.975C174.594 199.975 174.895 199.961 175.072 199.947V201.041C174.895 201.068 174.594 201.096 174.252 201.096C173.268 201.096 172.215 200.48 172.215 199.168V194.561H171.094V193.576H172.215V191.799H173.404V193.576H174.963ZM176.48 201V193.576H177.656V201H176.48ZM177.068 192.346C176.617 192.346 176.248 192.004 176.248 191.566C176.248 191.129 176.617 190.787 177.068 190.787C177.52 190.787 177.902 191.129 177.902 191.566C177.902 192.004 177.52 192.346 177.068 192.346ZM182.564 201.15C180.541 201.15 179.174 199.633 179.174 197.322C179.174 195.012 180.541 193.48 182.564 193.48C184.574 193.48 185.928 195.012 185.928 197.322C185.928 199.633 184.574 201.15 182.564 201.15ZM182.564 200.111C184.055 200.111 184.752 198.799 184.752 197.322C184.752 195.846 184.055 194.52 182.564 194.52C181.047 194.52 180.35 195.846 180.35 197.322C180.35 198.799 181.047 200.111 182.564 200.111ZM188.648 196.543V201H187.473V193.576H188.607V194.738H188.703C189.059 193.986 189.742 193.48 190.877 193.48C192.381 193.48 193.379 194.396 193.379 196.283V201H192.203V196.365C192.203 195.217 191.574 194.533 190.521 194.533C189.441 194.533 188.648 195.258 188.648 196.543Z" fill="var(--sol-element-primary)"/>
<g clip-path="url(#clip14_1671_179019)">
<path d="M129.832 223.334C129.832 222.229 130.727 221.334 131.832 221.334H141.165C142.27 221.334 143.165 222.229 143.165 223.334V232.667C143.165 233.772 142.27 234.667 141.165 234.667H131.832C130.727 234.667 129.832 233.772 129.832 232.667V223.334Z" fill="var(--sol-fill-active)"/>
<path d="M141.546 225.269L135.381 231.434C135.136 231.678 134.741 231.679 134.497 231.434L131.453 228.391L132.337 227.507L134.938 230.109L140.663 224.385L141.546 225.269Z" fill="var(--sol-surface)"/>
</g>
<path d="M161.961 228.051C161.961 231.182 160.115 233.137 157.586 233.137C155.043 233.137 153.211 231.182 153.211 228.051C153.211 224.92 155.043 222.965 157.586 222.965C160.115 222.965 161.961 224.92 161.961 228.051ZM160.771 228.051C160.771 225.494 159.377 224.113 157.586 224.113C155.795 224.113 154.4 225.494 154.4 228.051C154.4 230.607 155.795 231.988 157.586 231.988C159.377 231.988 160.771 230.607 160.771 228.051ZM163.615 235.789V225.576H164.75V226.752H164.887C165.133 226.355 165.598 225.48 167.033 225.48C168.893 225.48 170.191 226.957 170.191 229.309C170.191 231.66 168.893 233.15 167.047 233.15C165.625 233.15 165.133 232.275 164.887 231.865H164.791V235.789H163.615ZM164.764 229.281C164.764 230.949 165.516 232.098 166.883 232.098C168.291 232.098 169.016 230.867 169.016 229.281C169.016 227.736 168.305 226.533 166.883 226.533C165.488 226.533 164.764 227.641 164.764 229.281ZM174.963 225.576V226.561H173.404V230.867C173.404 231.824 173.869 231.975 174.375 231.975C174.594 231.975 174.895 231.961 175.072 231.947V233.041C174.895 233.068 174.594 233.096 174.252 233.096C173.268 233.096 172.215 232.48 172.215 231.168V226.561H171.094V225.576H172.215V223.799H173.404V225.576H174.963ZM176.48 233V225.576H177.656V233H176.48ZM177.068 224.346C176.617 224.346 176.248 224.004 176.248 223.566C176.248 223.129 176.617 222.787 177.068 222.787C177.52 222.787 177.902 223.129 177.902 223.566C177.902 224.004 177.52 224.346 177.068 224.346ZM182.564 233.15C180.541 233.15 179.174 231.633 179.174 229.322C179.174 227.012 180.541 225.48 182.564 225.48C184.574 225.48 185.928 227.012 185.928 229.322C185.928 231.633 184.574 233.15 182.564 233.15ZM182.564 232.111C184.055 232.111 184.752 230.799 184.752 229.322C184.752 227.846 184.055 226.52 182.564 226.52C181.047 226.52 180.35 227.846 180.35 229.322C180.35 230.799 181.047 232.111 182.564 232.111ZM188.648 228.543V233H187.473V225.576H188.607V226.738H188.703C189.059 225.986 189.742 225.48 190.877 225.48C192.381 225.48 193.379 226.396 193.379 228.283V233H192.203V228.365C192.203 227.217 191.574 226.533 190.521 226.533C189.441 226.533 188.648 227.258 188.648 228.543Z" fill="var(--sol-element-primary)"/>
</g>
<g clip-path="url(#clip15_1671_179019)">
<g clip-path="url(#clip16_1671_179019)">
<path d="M232.332 63.334C232.332 62.2294 233.227 61.334 234.332 61.334H243.665C244.77 61.334 245.665 62.2294 245.665 63.334V72.6673C245.665 73.7719 244.77 74.6673 243.665 74.6673H234.332C233.227 74.6673 232.332 73.7719 232.332 72.6673V63.334Z" fill="var(--sol-fill-active)"/>
<path d="M244.046 65.2686L237.881 71.4345C237.636 71.6785 237.241 71.6785 236.997 71.4345L233.953 68.3908L234.837 67.5071L237.438 70.1085L243.163 64.3848L244.046 65.2686Z" fill="var(--sol-surface)"/>
</g>
<path d="M264.461 68.0508C264.461 71.1816 262.615 73.1367 260.086 73.1367C257.543 73.1367 255.711 71.1816 255.711 68.0508C255.711 64.9199 257.543 62.9648 260.086 62.9648C262.615 62.9648 264.461 64.9199 264.461 68.0508ZM263.271 68.0508C263.271 65.4941 261.877 64.1133 260.086 64.1133C258.295 64.1133 256.9 65.4941 256.9 68.0508C256.9 70.6074 258.295 71.9883 260.086 71.9883C261.877 71.9883 263.271 70.6074 263.271 68.0508ZM266.115 75.7891V65.5762H267.25V66.752H267.387C267.633 66.3555 268.098 65.4805 269.533 65.4805C271.393 65.4805 272.691 66.957 272.691 69.3086C272.691 71.6602 271.393 73.1504 269.547 73.1504C268.125 73.1504 267.633 72.2754 267.387 71.8652H267.291V75.7891H266.115ZM267.264 69.2812C267.264 70.9492 268.016 72.0977 269.383 72.0977C270.791 72.0977 271.516 70.8672 271.516 69.2812C271.516 67.7363 270.805 66.5332 269.383 66.5332C267.988 66.5332 267.264 67.6406 267.264 69.2812ZM277.463 65.5762V66.5605H275.904V70.8672C275.904 71.8242 276.369 71.9746 276.875 71.9746C277.094 71.9746 277.395 71.9609 277.572 71.9473V73.041C277.395 73.0684 277.094 73.0957 276.752 73.0957C275.768 73.0957 274.715 72.4805 274.715 71.168V66.5605H273.594V65.5762H274.715V63.7988H275.904V65.5762H277.463ZM278.98 73V65.5762H280.156V73H278.98ZM279.568 64.3457C279.117 64.3457 278.748 64.0039 278.748 63.5664C278.748 63.1289 279.117 62.7871 279.568 62.7871C280.02 62.7871 280.402 63.1289 280.402 63.5664C280.402 64.0039 280.02 64.3457 279.568 64.3457ZM285.064 73.1504C283.041 73.1504 281.674 71.6328 281.674 69.3223C281.674 67.0117 283.041 65.4805 285.064 65.4805C287.074 65.4805 288.428 67.0117 288.428 69.3223C288.428 71.6328 287.074 73.1504 285.064 73.1504ZM285.064 72.1113C286.555 72.1113 287.252 70.7988 287.252 69.3223C287.252 67.8457 286.555 66.5195 285.064 66.5195C283.547 66.5195 282.85 67.8457 282.85 69.3223C282.85 70.7988 283.547 72.1113 285.064 72.1113ZM291.148 68.543V73H289.973V65.5762H291.107V66.7383H291.203C291.559 65.9863 292.242 65.4805 293.377 65.4805C294.881 65.4805 295.879 66.3965 295.879 68.2832V73H294.703V68.3652C294.703 67.2168 294.074 66.5332 293.021 66.5332C291.941 66.5332 291.148 67.2578 291.148 68.543Z" fill="var(--sol-element-primary)"/>
<g clip-path="url(#clip17_1671_179019)">
<path d="M232.332 95.334C232.332 94.2294 233.227 93.334 234.332 93.334H243.665C244.77 93.334 245.665 94.2294 245.665 95.334V104.667C245.665 105.772 244.77 106.667 243.665 106.667H234.332C233.227 106.667 232.332 105.772 232.332 104.667V95.334Z" fill="var(--sol-fill-active)"/>
<path d="M244.046 97.2686L237.881 103.434C237.636 103.678 237.241 103.679 236.997 103.434L233.953 100.391L234.837 99.5071L237.438 102.109L243.163 96.3848L244.046 97.2686Z" fill="var(--sol-surface)"/>
</g>
<path d="M264.461 100.051C264.461 103.182 262.615 105.137 260.086 105.137C257.543 105.137 255.711 103.182 255.711 100.051C255.711 96.9199 257.543 94.9648 260.086 94.9648C262.615 94.9648 264.461 96.9199 264.461 100.051ZM263.271 100.051C263.271 97.4941 261.877 96.1133 260.086 96.1133C258.295 96.1133 256.9 97.4941 256.9 100.051C256.9 102.607 258.295 103.988 260.086 103.988C261.877 103.988 263.271 102.607 263.271 100.051ZM266.115 107.789V97.5762H267.25V98.752H267.387C267.633 98.3555 268.098 97.4805 269.533 97.4805C271.393 97.4805 272.691 98.957 272.691 101.309C272.691 103.66 271.393 105.15 269.547 105.15C268.125 105.15 267.633 104.275 267.387 103.865H267.291V107.789H266.115ZM267.264 101.281C267.264 102.949 268.016 104.098 269.383 104.098C270.791 104.098 271.516 102.867 271.516 101.281C271.516 99.7363 270.805 98.5332 269.383 98.5332C267.988 98.5332 267.264 99.6406 267.264 101.281ZM277.463 97.5762V98.5605H275.904V102.867C275.904 103.824 276.369 103.975 276.875 103.975C277.094 103.975 277.395 103.961 277.572 103.947V105.041C277.395 105.068 277.094 105.096 276.752 105.096C275.768 105.096 274.715 104.48 274.715 103.168V98.5605H273.594V97.5762H274.715V95.7988H275.904V97.5762H277.463ZM278.98 105V97.5762H280.156V105H278.98ZM279.568 96.3457C279.117 96.3457 278.748 96.0039 278.748 95.5664C278.748 95.1289 279.117 94.7871 279.568 94.7871C280.02 94.7871 280.402 95.1289 280.402 95.5664C280.402 96.0039 280.02 96.3457 279.568 96.3457ZM285.064 105.15C283.041 105.15 281.674 103.633 281.674 101.322C281.674 99.0117 283.041 97.4805 285.064 97.4805C287.074 97.4805 288.428 99.0117 288.428 101.322C288.428 103.633 287.074 105.15 285.064 105.15ZM285.064 104.111C286.555 104.111 287.252 102.799 287.252 101.322C287.252 99.8457 286.555 98.5195 285.064 98.5195C283.547 98.5195 282.85 99.8457 282.85 101.322C282.85 102.799 283.547 104.111 285.064 104.111ZM291.148 100.543V105H289.973V97.5762H291.107V98.7383H291.203C291.559 97.9863 292.242 97.4805 293.377 97.4805C294.881 97.4805 295.879 98.3965 295.879 100.283V105H294.703V100.365C294.703 99.2168 294.074 98.5332 293.021 98.5332C291.941 98.5332 291.148 99.2578 291.148 100.543Z" fill="var(--sol-element-primary)"/>
<g clip-path="url(#clip18_1671_179019)">
<path d="M232.332 127.334C232.332 126.229 233.227 125.334 234.332 125.334H243.665C244.77 125.334 245.665 126.229 245.665 127.334V136.667C245.665 137.772 244.77 138.667 243.665 138.667H234.332C233.227 138.667 232.332 137.772 232.332 136.667V127.334Z" fill="var(--sol-fill-active)"/>
<path d="M244.046 129.269L237.881 135.434C237.636 135.678 237.241 135.679 236.997 135.434L233.953 132.391L234.837 131.507L237.438 134.109L243.163 128.385L244.046 129.269Z" fill="var(--sol-surface)"/>
</g>
<path d="M264.461 132.051C264.461 135.182 262.615 137.137 260.086 137.137C257.543 137.137 255.711 135.182 255.711 132.051C255.711 128.92 257.543 126.965 260.086 126.965C262.615 126.965 264.461 128.92 264.461 132.051ZM263.271 132.051C263.271 129.494 261.877 128.113 260.086 128.113C258.295 128.113 256.9 129.494 256.9 132.051C256.9 134.607 258.295 135.988 260.086 135.988C261.877 135.988 263.271 134.607 263.271 132.051ZM266.115 139.789V129.576H267.25V130.752H267.387C267.633 130.355 268.098 129.48 269.533 129.48C271.393 129.48 272.691 130.957 272.691 133.309C272.691 135.66 271.393 137.15 269.547 137.15C268.125 137.15 267.633 136.275 267.387 135.865H267.291V139.789H266.115ZM267.264 133.281C267.264 134.949 268.016 136.098 269.383 136.098C270.791 136.098 271.516 134.867 271.516 133.281C271.516 131.736 270.805 130.533 269.383 130.533C267.988 130.533 267.264 131.641 267.264 133.281ZM277.463 129.576V130.561H275.904V134.867C275.904 135.824 276.369 135.975 276.875 135.975C277.094 135.975 277.395 135.961 277.572 135.947V137.041C277.395 137.068 277.094 137.096 276.752 137.096C275.768 137.096 274.715 136.48 274.715 135.168V130.561H273.594V129.576H274.715V127.799H275.904V129.576H277.463ZM278.98 137V129.576H280.156V137H278.98ZM279.568 128.346C279.117 128.346 278.748 128.004 278.748 127.566C278.748 127.129 279.117 126.787 279.568 126.787C280.02 126.787 280.402 127.129 280.402 127.566C280.402 128.004 280.02 128.346 279.568 128.346ZM285.064 137.15C283.041 137.15 281.674 135.633 281.674 133.322C281.674 131.012 283.041 129.48 285.064 129.48C287.074 129.48 288.428 131.012 288.428 133.322C288.428 135.633 287.074 137.15 285.064 137.15ZM285.064 136.111C286.555 136.111 287.252 134.799 287.252 133.322C287.252 131.846 286.555 130.52 285.064 130.52C283.547 130.52 282.85 131.846 282.85 133.322C282.85 134.799 283.547 136.111 285.064 136.111ZM291.148 132.543V137H289.973V129.576H291.107V130.738H291.203C291.559 129.986 292.242 129.48 293.377 129.48C294.881 129.48 295.879 130.396 295.879 132.283V137H294.703V132.365C294.703 131.217 294.074 130.533 293.021 130.533C291.941 130.533 291.148 131.258 291.148 132.543Z" fill="var(--sol-element-primary)"/>
<g clip-path="url(#clip19_1671_179019)">
<path d="M232.332 159.334C232.332 158.229 233.227 157.334 234.332 157.334H243.665C244.77 157.334 245.665 158.229 245.665 159.334V168.667C245.665 169.772 244.77 170.667 243.665 170.667H234.332C233.227 170.667 232.332 169.772 232.332 168.667V159.334Z" fill="var(--sol-fill-active)"/>
<path d="M244.046 161.269L237.881 167.434C237.636 167.678 237.241 167.679 236.997 167.434L233.953 164.391L234.837 163.507L237.438 166.109L243.163 160.385L244.046 161.269Z" fill="var(--sol-surface)"/>
</g>
<path d="M264.461 164.051C264.461 167.182 262.615 169.137 260.086 169.137C257.543 169.137 255.711 167.182 255.711 164.051C255.711 160.92 257.543 158.965 260.086 158.965C262.615 158.965 264.461 160.92 264.461 164.051ZM263.271 164.051C263.271 161.494 261.877 160.113 260.086 160.113C258.295 160.113 256.9 161.494 256.9 164.051C256.9 166.607 258.295 167.988 260.086 167.988C261.877 167.988 263.271 166.607 263.271 164.051ZM266.115 171.789V161.576H267.25V162.752H267.387C267.633 162.355 268.098 161.48 269.533 161.48C271.393 161.48 272.691 162.957 272.691 165.309C272.691 167.66 271.393 169.15 269.547 169.15C268.125 169.15 267.633 168.275 267.387 167.865H267.291V171.789H266.115ZM267.264 165.281C267.264 166.949 268.016 168.098 269.383 168.098C270.791 168.098 271.516 166.867 271.516 165.281C271.516 163.736 270.805 162.533 269.383 162.533C267.988 162.533 267.264 163.641 267.264 165.281ZM277.463 161.576V162.561H275.904V166.867C275.904 167.824 276.369 167.975 276.875 167.975C277.094 167.975 277.395 167.961 277.572 167.947V169.041C277.395 169.068 277.094 169.096 276.752 169.096C275.768 169.096 274.715 168.48 274.715 167.168V162.561H273.594V161.576H274.715V159.799H275.904V161.576H277.463ZM278.98 169V161.576H280.156V169H278.98ZM279.568 160.346C279.117 160.346 278.748 160.004 278.748 159.566C278.748 159.129 279.117 158.787 279.568 158.787C280.02 158.787 280.402 159.129 280.402 159.566C280.402 160.004 280.02 160.346 279.568 160.346ZM285.064 169.15C283.041 169.15 281.674 167.633 281.674 165.322C281.674 163.012 283.041 161.48 285.064 161.48C287.074 161.48 288.428 163.012 288.428 165.322C288.428 167.633 287.074 169.15 285.064 169.15ZM285.064 168.111C286.555 168.111 287.252 166.799 287.252 165.322C287.252 163.846 286.555 162.52 285.064 162.52C283.547 162.52 282.85 163.846 282.85 165.322C282.85 166.799 283.547 168.111 285.064 168.111ZM291.148 164.543V169H289.973V161.576H291.107V162.738H291.203C291.559 161.986 292.242 161.48 293.377 161.48C294.881 161.48 295.879 162.396 295.879 164.283V169H294.703V164.365C294.703 163.217 294.074 162.533 293.021 162.533C291.941 162.533 291.148 163.258 291.148 164.543Z" fill="var(--sol-element-primary)"/>
<g clip-path="url(#clip20_1671_179019)">
<path d="M232.332 191.334C232.332 190.229 233.227 189.334 234.332 189.334H243.665C244.77 189.334 245.665 190.229 245.665 191.334V200.667C245.665 201.772 244.77 202.667 243.665 202.667H234.332C233.227 202.667 232.332 201.772 232.332 200.667V191.334Z" fill="var(--sol-fill-active)"/>
<path d="M244.046 193.269L237.881 199.434C237.636 199.678 237.241 199.679 236.997 199.434L233.953 196.391L234.837 195.507L237.438 198.109L243.163 192.385L244.046 193.269Z" fill="var(--sol-surface)"/>
</g>
<path d="M264.461 196.051C264.461 199.182 262.615 201.137 260.086 201.137C257.543 201.137 255.711 199.182 255.711 196.051C255.711 192.92 257.543 190.965 260.086 190.965C262.615 190.965 264.461 192.92 264.461 196.051ZM263.271 196.051C263.271 193.494 261.877 192.113 260.086 192.113C258.295 192.113 256.9 193.494 256.9 196.051C256.9 198.607 258.295 199.988 260.086 199.988C261.877 199.988 263.271 198.607 263.271 196.051ZM266.115 203.789V193.576H267.25V194.752H267.387C267.633 194.355 268.098 193.48 269.533 193.48C271.393 193.48 272.691 194.957 272.691 197.309C272.691 199.66 271.393 201.15 269.547 201.15C268.125 201.15 267.633 200.275 267.387 199.865H267.291V203.789H266.115ZM267.264 197.281C267.264 198.949 268.016 200.098 269.383 200.098C270.791 200.098 271.516 198.867 271.516 197.281C271.516 195.736 270.805 194.533 269.383 194.533C267.988 194.533 267.264 195.641 267.264 197.281ZM277.463 193.576V194.561H275.904V198.867C275.904 199.824 276.369 199.975 276.875 199.975C277.094 199.975 277.395 199.961 277.572 199.947V201.041C277.395 201.068 277.094 201.096 276.752 201.096C275.768 201.096 274.715 200.48 274.715 199.168V194.561H273.594V193.576H274.715V191.799H275.904V193.576H277.463ZM278.98 201V193.576H280.156V201H278.98ZM279.568 192.346C279.117 192.346 278.748 192.004 278.748 191.566C278.748 191.129 279.117 190.787 279.568 190.787C280.02 190.787 280.402 191.129 280.402 191.566C280.402 192.004 280.02 192.346 279.568 192.346ZM285.064 201.15C283.041 201.15 281.674 199.633 281.674 197.322C281.674 195.012 283.041 193.48 285.064 193.48C287.074 193.48 288.428 195.012 288.428 197.322C288.428 199.633 287.074 201.15 285.064 201.15ZM285.064 200.111C286.555 200.111 287.252 198.799 287.252 197.322C287.252 195.846 286.555 194.52 285.064 194.52C283.547 194.52 282.85 195.846 282.85 197.322C282.85 198.799 283.547 200.111 285.064 200.111ZM291.148 196.543V201H289.973V193.576H291.107V194.738H291.203C291.559 193.986 292.242 193.48 293.377 193.48C294.881 193.48 295.879 194.396 295.879 196.283V201H294.703V196.365C294.703 195.217 294.074 194.533 293.021 194.533C291.941 194.533 291.148 195.258 291.148 196.543Z" fill="var(--sol-element-primary)"/>
<g clip-path="url(#clip21_1671_179019)">
<path d="M232.332 223.334C232.332 222.229 233.227 221.334 234.332 221.334H243.665C244.77 221.334 245.665 222.229 245.665 223.334V232.667C245.665 233.772 244.77 234.667 243.665 234.667H234.332C233.227 234.667 232.332 233.772 232.332 232.667V223.334Z" fill="var(--sol-fill-active)"/>
<path d="M244.046 225.269L237.881 231.434C237.636 231.678 237.241 231.679 236.997 231.434L233.953 228.391L234.837 227.507L237.438 230.109L243.163 224.385L244.046 225.269Z" fill="var(--sol-surface)"/>
</g>
<path d="M264.461 228.051C264.461 231.182 262.615 233.137 260.086 233.137C257.543 233.137 255.711 231.182 255.711 228.051C255.711 224.92 257.543 222.965 260.086 222.965C262.615 222.965 264.461 224.92 264.461 228.051ZM263.271 228.051C263.271 225.494 261.877 224.113 260.086 224.113C258.295 224.113 256.9 225.494 256.9 228.051C256.9 230.607 258.295 231.988 260.086 231.988C261.877 231.988 263.271 230.607 263.271 228.051ZM266.115 235.789V225.576H267.25V226.752H267.387C267.633 226.355 268.098 225.48 269.533 225.48C271.393 225.48 272.691 226.957 272.691 229.309C272.691 231.66 271.393 233.15 269.547 233.15C268.125 233.15 267.633 232.275 267.387 231.865H267.291V235.789H266.115ZM267.264 229.281C267.264 230.949 268.016 232.098 269.383 232.098C270.791 232.098 271.516 230.867 271.516 229.281C271.516 227.736 270.805 226.533 269.383 226.533C267.988 226.533 267.264 227.641 267.264 229.281ZM277.463 225.576V226.561H275.904V230.867C275.904 231.824 276.369 231.975 276.875 231.975C277.094 231.975 277.395 231.961 277.572 231.947V233.041C277.395 233.068 277.094 233.096 276.752 233.096C275.768 233.096 274.715 232.48 274.715 231.168V226.561H273.594V225.576H274.715V223.799H275.904V225.576H277.463ZM278.98 233V225.576H280.156V233H278.98ZM279.568 224.346C279.117 224.346 278.748 224.004 278.748 223.566C278.748 223.129 279.117 222.787 279.568 222.787C280.02 222.787 280.402 223.129 280.402 223.566C280.402 224.004 280.02 224.346 279.568 224.346ZM285.064 233.15C283.041 233.15 281.674 231.633 281.674 229.322C281.674 227.012 283.041 225.48 285.064 225.48C287.074 225.48 288.428 227.012 288.428 229.322C288.428 231.633 287.074 233.15 285.064 233.15ZM285.064 232.111C286.555 232.111 287.252 230.799 287.252 229.322C287.252 227.846 286.555 226.52 285.064 226.52C283.547 226.52 282.85 227.846 282.85 229.322C282.85 230.799 283.547 232.111 285.064 232.111ZM291.148 228.543V233H289.973V225.576H291.107V226.738H291.203C291.559 225.986 292.242 225.48 293.377 225.48C294.881 225.48 295.879 226.396 295.879 228.283V233H294.703V228.365C294.703 227.217 294.074 226.533 293.021 226.533C291.941 226.533 291.148 227.258 291.148 228.543Z" fill="var(--sol-element-primary)"/>
</g>
<g clip-path="url(#clip22_1671_179019)">
<g clip-path="url(#clip23_1671_179019)">
<path d="M334.832 63.334C334.832 62.2294 335.727 61.334 336.832 61.334H346.165C347.27 61.334 348.165 62.2294 348.165 63.334V72.6673C348.165 73.7719 347.27 74.6673 346.165 74.6673H336.832C335.727 74.6673 334.832 73.7719 334.832 72.6673V63.334Z" fill="var(--sol-fill-active)"/>
<path d="M346.546 65.2686L340.381 71.4345C340.136 71.6785 339.741 71.6785 339.497 71.4345L336.453 68.3908L337.337 67.5071L339.938 70.1085L345.663 64.3848L346.546 65.2686Z" fill="var(--sol-surface)"/>
</g>
<path d="M366.961 68.0508C366.961 71.1816 365.115 73.1367 362.586 73.1367C360.043 73.1367 358.211 71.1816 358.211 68.0508C358.211 64.9199 360.043 62.9648 362.586 62.9648C365.115 62.9648 366.961 64.9199 366.961 68.0508ZM365.771 68.0508C365.771 65.4941 364.377 64.1133 362.586 64.1133C360.795 64.1133 359.4 65.4941 359.4 68.0508C359.4 70.6074 360.795 71.9883 362.586 71.9883C364.377 71.9883 365.771 70.6074 365.771 68.0508ZM368.615 75.7891V65.5762H369.75V66.752H369.887C370.133 66.3555 370.598 65.4805 372.033 65.4805C373.893 65.4805 375.191 66.957 375.191 69.3086C375.191 71.6602 373.893 73.1504 372.047 73.1504C370.625 73.1504 370.133 72.2754 369.887 71.8652H369.791V75.7891H368.615ZM369.764 69.2812C369.764 70.9492 370.516 72.0977 371.883 72.0977C373.291 72.0977 374.016 70.8672 374.016 69.2812C374.016 67.7363 373.305 66.5332 371.883 66.5332C370.488 66.5332 369.764 67.6406 369.764 69.2812ZM379.963 65.5762V66.5605H378.404V70.8672C378.404 71.8242 378.869 71.9746 379.375 71.9746C379.594 71.9746 379.895 71.9609 380.072 71.9473V73.041C379.895 73.0684 379.594 73.0957 379.252 73.0957C378.268 73.0957 377.215 72.4805 377.215 71.168V66.5605H376.094V65.5762H377.215V63.7988H378.404V65.5762H379.963ZM381.48 73V65.5762H382.656V73H381.48ZM382.068 64.3457C381.617 64.3457 381.248 64.0039 381.248 63.5664C381.248 63.1289 381.617 62.7871 382.068 62.7871C382.52 62.7871 382.902 63.1289 382.902 63.5664C382.902 64.0039 382.52 64.3457 382.068 64.3457ZM387.564 73.1504C385.541 73.1504 384.174 71.6328 384.174 69.3223C384.174 67.0117 385.541 65.4805 387.564 65.4805C389.574 65.4805 390.928 67.0117 390.928 69.3223C390.928 71.6328 389.574 73.1504 387.564 73.1504ZM387.564 72.1113C389.055 72.1113 389.752 70.7988 389.752 69.3223C389.752 67.8457 389.055 66.5195 387.564 66.5195C386.047 66.5195 385.35 67.8457 385.35 69.3223C385.35 70.7988 386.047 72.1113 387.564 72.1113ZM393.648 68.543V73H392.473V65.5762H393.607V66.7383H393.703C394.059 65.9863 394.742 65.4805 395.877 65.4805C397.381 65.4805 398.379 66.3965 398.379 68.2832V73H397.203V68.3652C397.203 67.2168 396.574 66.5332 395.521 66.5332C394.441 66.5332 393.648 67.2578 393.648 68.543Z" fill="var(--sol-element-primary)"/>
<g clip-path="url(#clip24_1671_179019)">
<path d="M334.832 95.334C334.832 94.2294 335.727 93.334 336.832 93.334H346.165C347.27 93.334 348.165 94.2294 348.165 95.334V104.667C348.165 105.772 347.27 106.667 346.165 106.667H336.832C335.727 106.667 334.832 105.772 334.832 104.667V95.334Z" fill="var(--sol-fill-active)"/>
<path d="M346.546 97.2686L340.381 103.434C340.136 103.678 339.741 103.679 339.497 103.434L336.453 100.391L337.337 99.5071L339.938 102.109L345.663 96.3848L346.546 97.2686Z" fill="var(--sol-surface)"/>
</g>
<path d="M366.961 100.051C366.961 103.182 365.115 105.137 362.586 105.137C360.043 105.137 358.211 103.182 358.211 100.051C358.211 96.9199 360.043 94.9648 362.586 94.9648C365.115 94.9648 366.961 96.9199 366.961 100.051ZM365.771 100.051C365.771 97.4941 364.377 96.1133 362.586 96.1133C360.795 96.1133 359.4 97.4941 359.4 100.051C359.4 102.607 360.795 103.988 362.586 103.988C364.377 103.988 365.771 102.607 365.771 100.051ZM368.615 107.789V97.5762H369.75V98.752H369.887C370.133 98.3555 370.598 97.4805 372.033 97.4805C373.893 97.4805 375.191 98.957 375.191 101.309C375.191 103.66 373.893 105.15 372.047 105.15C370.625 105.15 370.133 104.275 369.887 103.865H369.791V107.789H368.615ZM369.764 101.281C369.764 102.949 370.516 104.098 371.883 104.098C373.291 104.098 374.016 102.867 374.016 101.281C374.016 99.7363 373.305 98.5332 371.883 98.5332C370.488 98.5332 369.764 99.6406 369.764 101.281ZM379.963 97.5762V98.5605H378.404V102.867C378.404 103.824 378.869 103.975 379.375 103.975C379.594 103.975 379.895 103.961 380.072 103.947V105.041C379.895 105.068 379.594 105.096 379.252 105.096C378.268 105.096 377.215 104.48 377.215 103.168V98.5605H376.094V97.5762H377.215V95.7988H378.404V97.5762H379.963ZM381.48 105V97.5762H382.656V105H381.48ZM382.068 96.3457C381.617 96.3457 381.248 96.0039 381.248 95.5664C381.248 95.1289 381.617 94.7871 382.068 94.7871C382.52 94.7871 382.902 95.1289 382.902 95.5664C382.902 96.0039 382.52 96.3457 382.068 96.3457ZM387.564 105.15C385.541 105.15 384.174 103.633 384.174 101.322C384.174 99.0117 385.541 97.4805 387.564 97.4805C389.574 97.4805 390.928 99.0117 390.928 101.322C390.928 103.633 389.574 105.15 387.564 105.15ZM387.564 104.111C389.055 104.111 389.752 102.799 389.752 101.322C389.752 99.8457 389.055 98.5195 387.564 98.5195C386.047 98.5195 385.35 99.8457 385.35 101.322C385.35 102.799 386.047 104.111 387.564 104.111ZM393.648 100.543V105H392.473V97.5762H393.607V98.7383H393.703C394.059 97.9863 394.742 97.4805 395.877 97.4805C397.381 97.4805 398.379 98.3965 398.379 100.283V105H397.203V100.365C397.203 99.2168 396.574 98.5332 395.521 98.5332C394.441 98.5332 393.648 99.2578 393.648 100.543Z" fill="var(--sol-element-primary)"/>
<g clip-path="url(#clip25_1671_179019)">
<path d="M334.832 127.334C334.832 126.229 335.727 125.334 336.832 125.334H346.165C347.27 125.334 348.165 126.229 348.165 127.334V136.667C348.165 137.772 347.27 138.667 346.165 138.667H336.832C335.727 138.667 334.832 137.772 334.832 136.667V127.334Z" fill="var(--sol-fill-active)"/>
<path d="M346.546 129.269L340.381 135.434C340.136 135.678 339.741 135.679 339.497 135.434L336.453 132.391L337.337 131.507L339.938 134.109L345.663 128.385L346.546 129.269Z" fill="var(--sol-surface)"/>
</g>
<path d="M366.961 132.051C366.961 135.182 365.115 137.137 362.586 137.137C360.043 137.137 358.211 135.182 358.211 132.051C358.211 128.92 360.043 126.965 362.586 126.965C365.115 126.965 366.961 128.92 366.961 132.051ZM365.771 132.051C365.771 129.494 364.377 128.113 362.586 128.113C360.795 128.113 359.4 129.494 359.4 132.051C359.4 134.607 360.795 135.988 362.586 135.988C364.377 135.988 365.771 134.607 365.771 132.051ZM368.615 139.789V129.576H369.75V130.752H369.887C370.133 130.355 370.598 129.48 372.033 129.48C373.893 129.48 375.191 130.957 375.191 133.309C375.191 135.66 373.893 137.15 372.047 137.15C370.625 137.15 370.133 136.275 369.887 135.865H369.791V139.789H368.615ZM369.764 133.281C369.764 134.949 370.516 136.098 371.883 136.098C373.291 136.098 374.016 134.867 374.016 133.281C374.016 131.736 373.305 130.533 371.883 130.533C370.488 130.533 369.764 131.641 369.764 133.281ZM379.963 129.576V130.561H378.404V134.867C378.404 135.824 378.869 135.975 379.375 135.975C379.594 135.975 379.895 135.961 380.072 135.947V137.041C379.895 137.068 379.594 137.096 379.252 137.096C378.268 137.096 377.215 136.48 377.215 135.168V130.561H376.094V129.576H377.215V127.799H378.404V129.576H379.963ZM381.48 137V129.576H382.656V137H381.48ZM382.068 128.346C381.617 128.346 381.248 128.004 381.248 127.566C381.248 127.129 381.617 126.787 382.068 126.787C382.52 126.787 382.902 127.129 382.902 127.566C382.902 128.004 382.52 128.346 382.068 128.346ZM387.564 137.15C385.541 137.15 384.174 135.633 384.174 133.322C384.174 131.012 385.541 129.48 387.564 129.48C389.574 129.48 390.928 131.012 390.928 133.322C390.928 135.633 389.574 137.15 387.564 137.15ZM387.564 136.111C389.055 136.111 389.752 134.799 389.752 133.322C389.752 131.846 389.055 130.52 387.564 130.52C386.047 130.52 385.35 131.846 385.35 133.322C385.35 134.799 386.047 136.111 387.564 136.111ZM393.648 132.543V137H392.473V129.576H393.607V130.738H393.703C394.059 129.986 394.742 129.48 395.877 129.48C397.381 129.48 398.379 130.396 398.379 132.283V137H397.203V132.365C397.203 131.217 396.574 130.533 395.521 130.533C394.441 130.533 393.648 131.258 393.648 132.543Z" fill="var(--sol-element-primary)"/>
</g>
</g>
<defs>
<clipPath id="clip0_1671_179019">
<path d="M0 7.99999C0 3.58172 3.58172 0 8 0H434C438.418 0 442 3.58172 442 8V260C442 264.418 438.418 268 434 268H8C3.58172 268 0 264.418 0 260V7.99999Z" fill="var(--sol-surface)"/>
</clipPath>
<clipPath id="clip1_1671_179019">
<rect width="86.5" height="192" fill="var(--sol-surface)" transform="translate(24 52)"/>
</clipPath>
<clipPath id="clip2_1671_179019">
<path d="M27.332 63.334C27.332 62.2294 28.2275 61.334 29.332 61.334H38.6654C39.7699 61.334 40.6654 62.2294 40.6654 63.334V72.6673C40.6654 73.7719 39.7699 74.6673 38.6654 74.6673H29.332C28.2275 74.6673 27.332 73.7719 27.332 72.6673V63.334Z" fill="var(--sol-surface)"/>
</clipPath>
<clipPath id="clip3_1671_179019">
<path d="M27.332 95.334C27.332 94.2294 28.2275 93.334 29.332 93.334H38.6654C39.7699 93.334 40.6654 94.2294 40.6654 95.334V104.667C40.6654 105.772 39.7699 106.667 38.6654 106.667H29.332C28.2275 106.667 27.332 105.772 27.332 104.667V95.334Z" fill="var(--sol-surface)"/>
</clipPath>
<clipPath id="clip4_1671_179019">
<path d="M27.332 127.334C27.332 126.229 28.2275 125.334 29.332 125.334H38.6654C39.7699 125.334 40.6654 126.229 40.6654 127.334V136.667C40.6654 137.772 39.7699 138.667 38.6654 138.667H29.332C28.2275 138.667 27.332 137.772 27.332 136.667V127.334Z" fill="var(--sol-surface)"/>
</clipPath>
<clipPath id="clip5_1671_179019">
<path d="M27.332 159.334C27.332 158.229 28.2275 157.334 29.332 157.334H38.6654C39.7699 157.334 40.6654 158.229 40.6654 159.334V168.667C40.6654 169.772 39.7699 170.667 38.6654 170.667H29.332C28.2275 170.667 27.332 169.772 27.332 168.667V159.334Z" fill="var(--sol-surface)"/>
</clipPath>
<clipPath id="clip6_1671_179019">
<path d="M27.332 191.334C27.332 190.229 28.2275 189.334 29.332 189.334H38.6654C39.7699 189.334 40.6654 190.229 40.6654 191.334V200.667C40.6654 201.772 39.7699 202.667 38.6654 202.667H29.332C28.2275 202.667 27.332 201.772 27.332 200.667V191.334Z" fill="var(--sol-surface)"/>
</clipPath>
<clipPath id="clip7_1671_179019">
<path d="M27.332 223.334C27.332 222.229 28.2275 221.334 29.332 221.334H38.6654C39.7699 221.334 40.6654 222.229 40.6654 223.334V232.667C40.6654 233.772 39.7699 234.667 38.6654 234.667H29.332C28.2275 234.667 27.332 233.772 27.332 232.667V223.334Z" fill="var(--sol-surface)"/>
</clipPath>
<clipPath id="clip8_1671_179019">
<rect width="86.5" height="192" fill="var(--sol-surface)" transform="translate(126.5 52)"/>
</clipPath>
<clipPath id="clip9_1671_179019">
<path d="M129.832 63.334C129.832 62.2294 130.727 61.334 131.832 61.334H141.165C142.27 61.334 143.165 62.2294 143.165 63.334V72.6673C143.165 73.7719 142.27 74.6673 141.165 74.6673H131.832C130.727 74.6673 129.832 73.7719 129.832 72.6673V63.334Z" fill="var(--sol-surface)"/>
</clipPath>
<clipPath id="clip10_1671_179019">
<path d="M129.832 95.334C129.832 94.2294 130.727 93.334 131.832 93.334H141.165C142.27 93.334 143.165 94.2294 143.165 95.334V104.667C143.165 105.772 142.27 106.667 141.165 106.667H131.832C130.727 106.667 129.832 105.772 129.832 104.667V95.334Z" fill="var(--sol-surface)"/>
</clipPath>
<clipPath id="clip11_1671_179019">
<path d="M129.832 127.334C129.832 126.229 130.727 125.334 131.832 125.334H141.165C142.27 125.334 143.165 126.229 143.165 127.334V136.667C143.165 137.772 142.27 138.667 141.165 138.667H131.832C130.727 138.667 129.832 137.772 129.832 136.667V127.334Z" fill="var(--sol-surface)"/>
</clipPath>
<clipPath id="clip12_1671_179019">
<path d="M129.832 159.334C129.832 158.229 130.727 157.334 131.832 157.334H141.165C142.27 157.334 143.165 158.229 143.165 159.334V168.667C143.165 169.772 142.27 170.667 141.165 170.667H131.832C130.727 170.667 129.832 169.772 129.832 168.667V159.334Z" fill="var(--sol-surface)"/>
</clipPath>
<clipPath id="clip13_1671_179019">
<path d="M129.832 191.334C129.832 190.229 130.727 189.334 131.832 189.334H141.165C142.27 189.334 143.165 190.229 143.165 191.334V200.667C143.165 201.772 142.27 202.667 141.165 202.667H131.832C130.727 202.667 129.832 201.772 129.832 200.667V191.334Z" fill="var(--sol-surface)"/>
</clipPath>
<clipPath id="clip14_1671_179019">
<path d="M129.832 223.334C129.832 222.229 130.727 221.334 131.832 221.334H141.165C142.27 221.334 143.165 222.229 143.165 223.334V232.667C143.165 233.772 142.27 234.667 141.165 234.667H131.832C130.727 234.667 129.832 233.772 129.832 232.667V223.334Z" fill="var(--sol-surface)"/>
</clipPath>
<clipPath id="clip15_1671_179019">
<rect width="86.5" height="192" fill="var(--sol-surface)" transform="translate(229 52)"/>
</clipPath>
<clipPath id="clip16_1671_179019">
<path d="M232.332 63.334C232.332 62.2294 233.227 61.334 234.332 61.334H243.665C244.77 61.334 245.665 62.2294 245.665 63.334V72.6673C245.665 73.7719 244.77 74.6673 243.665 74.6673H234.332C233.227 74.6673 232.332 73.7719 232.332 72.6673V63.334Z" fill="var(--sol-surface)"/>
</clipPath>
<clipPath id="clip17_1671_179019">
<path d="M232.332 95.334C232.332 94.2294 233.227 93.334 234.332 93.334H243.665C244.77 93.334 245.665 94.2294 245.665 95.334V104.667C245.665 105.772 244.77 106.667 243.665 106.667H234.332C233.227 106.667 232.332 105.772 232.332 104.667V95.334Z" fill="var(--sol-surface)"/>
</clipPath>
<clipPath id="clip18_1671_179019">
<path d="M232.332 127.334C232.332 126.229 233.227 125.334 234.332 125.334H243.665C244.77 125.334 245.665 126.229 245.665 127.334V136.667C245.665 137.772 244.77 138.667 243.665 138.667H234.332C233.227 138.667 232.332 137.772 232.332 136.667V127.334Z" fill="var(--sol-surface)"/>
</clipPath>
<clipPath id="clip19_1671_179019">
<path d="M232.332 159.334C232.332 158.229 233.227 157.334 234.332 157.334H243.665C244.77 157.334 245.665 158.229 245.665 159.334V168.667C245.665 169.772 244.77 170.667 243.665 170.667H234.332C233.227 170.667 232.332 169.772 232.332 168.667V159.334Z" fill="var(--sol-surface)"/>
</clipPath>
<clipPath id="clip20_1671_179019">
<path d="M232.332 191.334C232.332 190.229 233.227 189.334 234.332 189.334H243.665C244.77 189.334 245.665 190.229 245.665 191.334V200.667C245.665 201.772 244.77 202.667 243.665 202.667H234.332C233.227 202.667 232.332 201.772 232.332 200.667V191.334Z" fill="var(--sol-surface)"/>
</clipPath>
<clipPath id="clip21_1671_179019">
<path d="M232.332 223.334C232.332 222.229 233.227 221.334 234.332 221.334H243.665C244.77 221.334 245.665 222.229 245.665 223.334V232.667C245.665 233.772 244.77 234.667 243.665 234.667H234.332C233.227 234.667 232.332 233.772 232.332 232.667V223.334Z" fill="var(--sol-surface)"/>
</clipPath>
<clipPath id="clip22_1671_179019">
<rect width="86.5" height="96" fill="var(--sol-surface)" transform="translate(331.5 52)"/>
</clipPath>
<clipPath id="clip23_1671_179019">
<path d="M334.832 63.334C334.832 62.2294 335.727 61.334 336.832 61.334H346.165C347.27 61.334 348.165 62.2294 348.165 63.334V72.6673C348.165 73.7719 347.27 74.6673 346.165 74.6673H336.832C335.727 74.6673 334.832 73.7719 334.832 72.6673V63.334Z" fill="var(--sol-surface)"/>
</clipPath>
<clipPath id="clip24_1671_179019">
<path d="M334.832 95.334C334.832 94.2294 335.727 93.334 336.832 93.334H346.165C347.27 93.334 348.165 94.2294 348.165 95.334V104.667C348.165 105.772 347.27 106.667 346.165 106.667H336.832C335.727 106.667 334.832 105.772 334.832 104.667V95.334Z" fill="var(--sol-surface)"/>
</clipPath>
<clipPath id="clip25_1671_179019">
<path d="M334.832 127.334C334.832 126.229 335.727 125.334 336.832 125.334H346.165C347.27 125.334 348.165 126.229 348.165 127.334V136.667C348.165 137.772 347.27 138.667 346.165 138.667H336.832C335.727 138.667 334.832 137.772 334.832 136.667V127.334Z" fill="var(--sol-surface)"/>
</clipPath>
</defs>
</svg>
