<svg width="442" height="268" viewBox="0 0 442 268" fill="none" xmlns="http://www.w3.org/2000/svg">
<style>
:root {
  --sol-element-primary: #161616;
  --sol-element-tertiary: #636363;
  --sol-fill-active: #4d469a;
  --sol-surface: #ffffff;
  --sol-error: #e76067;
}
@media (prefers-color-scheme: dark) {
  :root {
    --sol-element-primary: #ffffff;
    --sol-element-tertiary: rgba(255, 255, 255, 0.6);
    --sol-fill-active: #7b74c4;
    --sol-surface: #161616;
    --sol-error: #ee7a80;
  }
}
</style>
<g clip-path="url(#clip0_1671_179013)">
<rect width="442" height="268" fill="var(--sol-surface)"/>
<path d="M37.0938 61.1016H38.5703L41.9062 69.25H42.0293L45.3652 61.1016H46.8418V71H45.6797V63.5215H45.584L42.5078 71H41.4141L38.3379 63.5215H38.2559V71H37.0938V61.1016ZM53.5684 67.9512V63.5762H54.7305V71H53.5684V69.7422H53.4863C53.1309 70.4941 52.4062 71.0957 51.2852 71.0957C49.877 71.0957 48.8789 70.1797 48.8789 68.293V63.5762H50.0547V68.2109C50.0547 69.2773 50.7246 69.9609 51.668 69.9609C52.502 69.9609 53.5684 69.332 53.5684 67.9512ZM57.793 61.1016V71H56.6172V61.1016H57.793ZM62.9062 63.5762V64.5605H61.3477V68.8672C61.3477 69.8242 61.8125 69.9746 62.3184 69.9746C62.5371 69.9746 62.8379 69.9609 63.0156 69.9473V71.041C62.8379 71.0684 62.5371 71.0957 62.1953 71.0957C61.2109 71.0957 60.1582 70.4805 60.1582 69.168V64.5605H59.0371V63.5762H60.1582V61.7988H61.3477V63.5762H62.9062ZM64.4238 71V63.5762H65.5996V71H64.4238ZM65.0117 62.3457C64.5605 62.3457 64.1914 62.0039 64.1914 61.5664C64.1914 61.1289 64.5605 60.7871 65.0117 60.7871C65.4629 60.7871 65.8457 61.1289 65.8457 61.5664C65.8457 62.0039 65.4629 62.3457 65.0117 62.3457ZM70.7949 63.5762V64.5605H69.1543V71H67.9648V64.5605H66.7754V63.5762H67.9648V62.5645C67.9648 61.3613 68.7715 60.6367 70.084 60.6367C70.3711 60.6367 70.7129 60.6777 70.959 60.7188V61.7715C70.7129 61.7305 70.4941 61.7168 70.3438 61.7168C69.5234 61.7168 69.1543 62.0586 69.1543 62.8242V63.5762H70.7949ZM76.8789 67.9512V63.5762H78.041V71H76.8789V69.7422H76.7969C76.4414 70.4941 75.7168 71.0957 74.5957 71.0957C73.1875 71.0957 72.1895 70.1797 72.1895 68.293V63.5762H73.3652V68.2109C73.3652 69.2773 74.0352 69.9609 74.9785 69.9609C75.8125 69.9609 76.8789 69.332 76.8789 67.9512ZM81.1035 66.543V71H79.9277V63.5762H81.0625V64.7383H81.1582C81.5137 63.9863 82.1973 63.4805 83.332 63.4805C84.8359 63.4805 85.834 64.3965 85.834 66.2832V71H84.6582V66.3652C84.6582 65.2168 84.0293 64.5332 82.9766 64.5332C81.8965 64.5332 81.1035 65.2578 81.1035 66.543ZM90.7559 71.1504C88.6504 71.1504 87.3652 69.5508 87.3652 67.3223C87.3652 65.0664 88.7051 63.4805 90.7285 63.4805C92.3145 63.4805 93.4902 64.4102 93.6816 65.8184H92.5059C92.3418 65.1348 91.7402 64.5195 90.7559 64.5195C89.4297 64.5195 88.541 65.6133 88.541 67.2812C88.541 69.0039 89.4023 70.0977 90.7559 70.0977C91.6309 70.0977 92.3008 69.6328 92.5059 68.8125H93.6816C93.4902 70.1387 92.4102 71.1504 90.7559 71.1504ZM98.3711 63.5762V64.5605H96.8125V68.8672C96.8125 69.8242 97.2773 69.9746 97.7832 69.9746C98.002 69.9746 98.3027 69.9609 98.4805 69.9473V71.041C98.3027 71.0684 98.002 71.0957 97.6602 71.0957C96.6758 71.0957 95.623 70.4805 95.623 69.168V64.5605H94.502V63.5762H95.623V61.7988H96.8125V63.5762H98.3711ZM99.8887 71V63.5762H101.064V71H99.8887ZM100.477 62.3457C100.025 62.3457 99.6562 62.0039 99.6562 61.5664C99.6562 61.1289 100.025 60.7871 100.477 60.7871C100.928 60.7871 101.311 61.1289 101.311 61.5664C101.311 62.0039 100.928 62.3457 100.477 62.3457ZM105.973 71.1504C103.949 71.1504 102.582 69.6328 102.582 67.3223C102.582 65.0117 103.949 63.4805 105.973 63.4805C107.982 63.4805 109.336 65.0117 109.336 67.3223C109.336 69.6328 107.982 71.1504 105.973 71.1504ZM105.973 70.1113C107.463 70.1113 108.16 68.7988 108.16 67.3223C108.16 65.8457 107.463 64.5195 105.973 64.5195C104.455 64.5195 103.758 65.8457 103.758 67.3223C103.758 68.7988 104.455 70.1113 105.973 70.1113ZM112.057 66.543V71H110.881V63.5762H112.016V64.7383H112.111C112.467 63.9863 113.15 63.4805 114.285 63.4805C115.789 63.4805 116.787 64.3965 116.787 66.2832V71H115.611V66.3652C115.611 65.2168 114.982 64.5332 113.93 64.5332C112.85 64.5332 112.057 65.2578 112.057 66.543Z" fill="var(--sol-element-tertiary)"/>
<g clip-path="url(#clip1_1671_179013)">
<g clip-path="url(#clip2_1671_179013)">
<path d="M39.332 95.334C39.332 94.2294 40.2275 93.334 41.332 93.334H50.6654C51.7699 93.334 52.6654 94.2294 52.6654 95.334V104.667C52.6654 105.772 51.7699 106.667 50.6654 106.667H41.332C40.2275 106.667 39.332 105.772 39.332 104.667V95.334Z" fill="var(--sol-fill-active)"/>
<path d="M51.0464 97.2686L44.8805 103.434C44.6365 103.678 44.2408 103.679 43.9967 103.434L40.9531 100.391L41.8369 99.5071L44.4384 102.109L50.1627 96.3848L51.0464 97.2686Z" fill="var(--sol-surface)"/>
</g>
<path d="M71.4609 100.051C71.4609 103.182 69.6152 105.137 67.0859 105.137C64.543 105.137 62.7109 103.182 62.7109 100.051C62.7109 96.9199 64.543 94.9648 67.0859 94.9648C69.6152 94.9648 71.4609 96.9199 71.4609 100.051ZM70.2715 100.051C70.2715 97.4941 68.877 96.1133 67.0859 96.1133C65.2949 96.1133 63.9004 97.4941 63.9004 100.051C63.9004 102.607 65.2949 103.988 67.0859 103.988C68.877 103.988 70.2715 102.607 70.2715 100.051ZM73.1152 107.789V97.5762H74.25V98.752H74.3867C74.6328 98.3555 75.0977 97.4805 76.5332 97.4805C78.3926 97.4805 79.6914 98.957 79.6914 101.309C79.6914 103.66 78.3926 105.15 76.5469 105.15C75.125 105.15 74.6328 104.275 74.3867 103.865H74.291V107.789H73.1152ZM74.2637 101.281C74.2637 102.949 75.0156 104.098 76.3828 104.098C77.791 104.098 78.5156 102.867 78.5156 101.281C78.5156 99.7363 77.8047 98.5332 76.3828 98.5332C74.9883 98.5332 74.2637 99.6406 74.2637 101.281ZM84.4629 97.5762V98.5605H82.9043V102.867C82.9043 103.824 83.3691 103.975 83.875 103.975C84.0938 103.975 84.3945 103.961 84.5723 103.947V105.041C84.3945 105.068 84.0938 105.096 83.752 105.096C82.7676 105.096 81.7148 104.48 81.7148 103.168V98.5605H80.5938V97.5762H81.7148V95.7988H82.9043V97.5762H84.4629ZM85.9805 105V97.5762H87.1562V105H85.9805ZM86.5684 96.3457C86.1172 96.3457 85.748 96.0039 85.748 95.5664C85.748 95.1289 86.1172 94.7871 86.5684 94.7871C87.0195 94.7871 87.4023 95.1289 87.4023 95.5664C87.4023 96.0039 87.0195 96.3457 86.5684 96.3457ZM92.0645 105.15C90.041 105.15 88.6738 103.633 88.6738 101.322C88.6738 99.0117 90.041 97.4805 92.0645 97.4805C94.0742 97.4805 95.4277 99.0117 95.4277 101.322C95.4277 103.633 94.0742 105.15 92.0645 105.15ZM92.0645 104.111C93.5547 104.111 94.252 102.799 94.252 101.322C94.252 99.8457 93.5547 98.5195 92.0645 98.5195C90.5469 98.5195 89.8496 99.8457 89.8496 101.322C89.8496 102.799 90.5469 104.111 92.0645 104.111ZM98.1484 100.543V105H96.9727V97.5762H98.1074V98.7383H98.2031C98.5586 97.9863 99.2422 97.4805 100.377 97.4805C101.881 97.4805 102.879 98.3965 102.879 100.283V105H101.703V100.365C101.703 99.2168 101.074 98.5332 100.021 98.5332C98.9414 98.5332 98.1484 99.2578 98.1484 100.543Z" fill="var(--sol-element-primary)"/>
<g clip-path="url(#clip3_1671_179013)">
<path d="M39.332 127.334C39.332 126.229 40.2275 125.334 41.332 125.334H50.6654C51.7699 125.334 52.6654 126.229 52.6654 127.334V136.667C52.6654 137.772 51.7699 138.667 50.6654 138.667H41.332C40.2275 138.667 39.332 137.772 39.332 136.667V127.334Z" fill="var(--sol-fill-active)"/>
<path d="M51.0464 129.269L44.8805 135.434C44.6365 135.678 44.2408 135.679 43.9967 135.434L40.9531 132.391L41.8369 131.507L44.4384 134.109L50.1627 128.385L51.0464 129.269Z" fill="var(--sol-surface)"/>
</g>
<path d="M71.4609 132.051C71.4609 135.182 69.6152 137.137 67.0859 137.137C64.543 137.137 62.7109 135.182 62.7109 132.051C62.7109 128.92 64.543 126.965 67.0859 126.965C69.6152 126.965 71.4609 128.92 71.4609 132.051ZM70.2715 132.051C70.2715 129.494 68.877 128.113 67.0859 128.113C65.2949 128.113 63.9004 129.494 63.9004 132.051C63.9004 134.607 65.2949 135.988 67.0859 135.988C68.877 135.988 70.2715 134.607 70.2715 132.051ZM73.1152 139.789V129.576H74.25V130.752H74.3867C74.6328 130.355 75.0977 129.48 76.5332 129.48C78.3926 129.48 79.6914 130.957 79.6914 133.309C79.6914 135.66 78.3926 137.15 76.5469 137.15C75.125 137.15 74.6328 136.275 74.3867 135.865H74.291V139.789H73.1152ZM74.2637 133.281C74.2637 134.949 75.0156 136.098 76.3828 136.098C77.791 136.098 78.5156 134.867 78.5156 133.281C78.5156 131.736 77.8047 130.533 76.3828 130.533C74.9883 130.533 74.2637 131.641 74.2637 133.281ZM84.4629 129.576V130.561H82.9043V134.867C82.9043 135.824 83.3691 135.975 83.875 135.975C84.0938 135.975 84.3945 135.961 84.5723 135.947V137.041C84.3945 137.068 84.0938 137.096 83.752 137.096C82.7676 137.096 81.7148 136.48 81.7148 135.168V130.561H80.5938V129.576H81.7148V127.799H82.9043V129.576H84.4629ZM85.9805 137V129.576H87.1562V137H85.9805ZM86.5684 128.346C86.1172 128.346 85.748 128.004 85.748 127.566C85.748 127.129 86.1172 126.787 86.5684 126.787C87.0195 126.787 87.4023 127.129 87.4023 127.566C87.4023 128.004 87.0195 128.346 86.5684 128.346ZM92.0645 137.15C90.041 137.15 88.6738 135.633 88.6738 133.322C88.6738 131.012 90.041 129.48 92.0645 129.48C94.0742 129.48 95.4277 131.012 95.4277 133.322C95.4277 135.633 94.0742 137.15 92.0645 137.15ZM92.0645 136.111C93.5547 136.111 94.252 134.799 94.252 133.322C94.252 131.846 93.5547 130.52 92.0645 130.52C90.5469 130.52 89.8496 131.846 89.8496 133.322C89.8496 134.799 90.5469 136.111 92.0645 136.111ZM98.1484 132.543V137H96.9727V129.576H98.1074V130.738H98.2031C98.5586 129.986 99.2422 129.48 100.377 129.48C101.881 129.48 102.879 130.396 102.879 132.283V137H101.703V132.365C101.703 131.217 101.074 130.533 100.021 130.533C98.9414 130.533 98.1484 131.258 98.1484 132.543Z" fill="var(--sol-element-primary)"/>
<g clip-path="url(#clip4_1671_179013)">
<path d="M39.332 159.334C39.332 158.229 40.2275 157.334 41.332 157.334H50.6654C51.7699 157.334 52.6654 158.229 52.6654 159.334V168.667C52.6654 169.772 51.7699 170.667 50.6654 170.667H41.332C40.2275 170.667 39.332 169.772 39.332 168.667V159.334Z" fill="var(--sol-fill-active)"/>
<path d="M51.0464 161.269L44.8805 167.434C44.6365 167.678 44.2408 167.679 43.9967 167.434L40.9531 164.391L41.8369 163.507L44.4384 166.109L50.1627 160.385L51.0464 161.269Z" fill="var(--sol-surface)"/>
</g>
<path d="M71.4609 164.051C71.4609 167.182 69.6152 169.137 67.0859 169.137C64.543 169.137 62.7109 167.182 62.7109 164.051C62.7109 160.92 64.543 158.965 67.0859 158.965C69.6152 158.965 71.4609 160.92 71.4609 164.051ZM70.2715 164.051C70.2715 161.494 68.877 160.113 67.0859 160.113C65.2949 160.113 63.9004 161.494 63.9004 164.051C63.9004 166.607 65.2949 167.988 67.0859 167.988C68.877 167.988 70.2715 166.607 70.2715 164.051ZM73.1152 171.789V161.576H74.25V162.752H74.3867C74.6328 162.355 75.0977 161.48 76.5332 161.48C78.3926 161.48 79.6914 162.957 79.6914 165.309C79.6914 167.66 78.3926 169.15 76.5469 169.15C75.125 169.15 74.6328 168.275 74.3867 167.865H74.291V171.789H73.1152ZM74.2637 165.281C74.2637 166.949 75.0156 168.098 76.3828 168.098C77.791 168.098 78.5156 166.867 78.5156 165.281C78.5156 163.736 77.8047 162.533 76.3828 162.533C74.9883 162.533 74.2637 163.641 74.2637 165.281ZM84.4629 161.576V162.561H82.9043V166.867C82.9043 167.824 83.3691 167.975 83.875 167.975C84.0938 167.975 84.3945 167.961 84.5723 167.947V169.041C84.3945 169.068 84.0938 169.096 83.752 169.096C82.7676 169.096 81.7148 168.48 81.7148 167.168V162.561H80.5938V161.576H81.7148V159.799H82.9043V161.576H84.4629ZM85.9805 169V161.576H87.1562V169H85.9805ZM86.5684 160.346C86.1172 160.346 85.748 160.004 85.748 159.566C85.748 159.129 86.1172 158.787 86.5684 158.787C87.0195 158.787 87.4023 159.129 87.4023 159.566C87.4023 160.004 87.0195 160.346 86.5684 160.346ZM92.0645 169.15C90.041 169.15 88.6738 167.633 88.6738 165.322C88.6738 163.012 90.041 161.48 92.0645 161.48C94.0742 161.48 95.4277 163.012 95.4277 165.322C95.4277 167.633 94.0742 169.15 92.0645 169.15ZM92.0645 168.111C93.5547 168.111 94.252 166.799 94.252 165.322C94.252 163.846 93.5547 162.52 92.0645 162.52C90.5469 162.52 89.8496 163.846 89.8496 165.322C89.8496 166.799 90.5469 168.111 92.0645 168.111ZM98.1484 164.543V169H96.9727V161.576H98.1074V162.738H98.2031C98.5586 161.986 99.2422 161.48 100.377 161.48C101.881 161.48 102.879 162.396 102.879 164.283V169H101.703V164.365C101.703 163.217 101.074 162.533 100.021 162.533C98.9414 162.533 98.1484 163.258 98.1484 164.543Z" fill="var(--sol-element-primary)"/>
<g clip-path="url(#clip5_1671_179013)">
<path d="M39.332 191.334C39.332 190.229 40.2275 189.334 41.332 189.334H50.6654C51.7699 189.334 52.6654 190.229 52.6654 191.334V200.667C52.6654 201.772 51.7699 202.667 50.6654 202.667H41.332C40.2275 202.667 39.332 201.772 39.332 200.667V191.334Z" fill="var(--sol-fill-active)"/>
<path d="M51.0464 193.269L44.8805 199.434C44.6365 199.678 44.2408 199.679 43.9967 199.434L40.9531 196.391L41.8369 195.507L44.4384 198.109L50.1627 192.385L51.0464 193.269Z" fill="var(--sol-surface)"/>
</g>
<path d="M71.4609 196.051C71.4609 199.182 69.6152 201.137 67.0859 201.137C64.543 201.137 62.7109 199.182 62.7109 196.051C62.7109 192.92 64.543 190.965 67.0859 190.965C69.6152 190.965 71.4609 192.92 71.4609 196.051ZM70.2715 196.051C70.2715 193.494 68.877 192.113 67.0859 192.113C65.2949 192.113 63.9004 193.494 63.9004 196.051C63.9004 198.607 65.2949 199.988 67.0859 199.988C68.877 199.988 70.2715 198.607 70.2715 196.051ZM73.1152 203.789V193.576H74.25V194.752H74.3867C74.6328 194.355 75.0977 193.48 76.5332 193.48C78.3926 193.48 79.6914 194.957 79.6914 197.309C79.6914 199.66 78.3926 201.15 76.5469 201.15C75.125 201.15 74.6328 200.275 74.3867 199.865H74.291V203.789H73.1152ZM74.2637 197.281C74.2637 198.949 75.0156 200.098 76.3828 200.098C77.791 200.098 78.5156 198.867 78.5156 197.281C78.5156 195.736 77.8047 194.533 76.3828 194.533C74.9883 194.533 74.2637 195.641 74.2637 197.281ZM84.4629 193.576V194.561H82.9043V198.867C82.9043 199.824 83.3691 199.975 83.875 199.975C84.0938 199.975 84.3945 199.961 84.5723 199.947V201.041C84.3945 201.068 84.0938 201.096 83.752 201.096C82.7676 201.096 81.7148 200.48 81.7148 199.168V194.561H80.5938V193.576H81.7148V191.799H82.9043V193.576H84.4629ZM85.9805 201V193.576H87.1562V201H85.9805ZM86.5684 192.346C86.1172 192.346 85.748 192.004 85.748 191.566C85.748 191.129 86.1172 190.787 86.5684 190.787C87.0195 190.787 87.4023 191.129 87.4023 191.566C87.4023 192.004 87.0195 192.346 86.5684 192.346ZM92.0645 201.15C90.041 201.15 88.6738 199.633 88.6738 197.322C88.6738 195.012 90.041 193.48 92.0645 193.48C94.0742 193.48 95.4277 195.012 95.4277 197.322C95.4277 199.633 94.0742 201.15 92.0645 201.15ZM92.0645 200.111C93.5547 200.111 94.252 198.799 94.252 197.322C94.252 195.846 93.5547 194.52 92.0645 194.52C90.5469 194.52 89.8496 195.846 89.8496 197.322C89.8496 198.799 90.5469 200.111 92.0645 200.111ZM98.1484 196.543V201H96.9727V193.576H98.1074V194.738H98.2031C98.5586 193.986 99.2422 193.48 100.377 193.48C101.881 193.48 102.879 194.396 102.879 196.283V201H101.703V196.365C101.703 195.217 101.074 194.533 100.021 194.533C98.9414 194.533 98.1484 195.258 98.1484 196.543Z" fill="var(--sol-element-primary)"/>
</g>
<g clip-path="url(#clip6_1671_179013)">
<g clip-path="url(#clip7_1671_179013)">
<path d="M168 95.334C168 94.2294 168.895 93.334 170 93.334H179.333C180.438 93.334 181.333 94.2294 181.333 95.334V104.667C181.333 105.772 180.438 106.667 179.333 106.667H170C168.895 106.667 168 105.772 168 104.667V95.334Z" fill="var(--sol-fill-active)"/>
<path d="M179.714 97.2686L173.549 103.434C173.304 103.678 172.909 103.679 172.665 103.434L169.621 100.391L170.505 99.5071L173.106 102.109L178.831 96.3848L179.714 97.2686Z" fill="var(--sol-surface)"/>
</g>
<path d="M200.129 100.051C200.129 103.182 198.283 105.137 195.754 105.137C193.211 105.137 191.379 103.182 191.379 100.051C191.379 96.9199 193.211 94.9648 195.754 94.9648C198.283 94.9648 200.129 96.9199 200.129 100.051ZM198.939 100.051C198.939 97.4941 197.545 96.1133 195.754 96.1133C193.963 96.1133 192.568 97.4941 192.568 100.051C192.568 102.607 193.963 103.988 195.754 103.988C197.545 103.988 198.939 102.607 198.939 100.051ZM201.783 107.789V97.5762H202.918V98.752H203.055C203.301 98.3555 203.766 97.4805 205.201 97.4805C207.061 97.4805 208.359 98.957 208.359 101.309C208.359 103.66 207.061 105.15 205.215 105.15C203.793 105.15 203.301 104.275 203.055 103.865H202.959V107.789H201.783ZM202.932 101.281C202.932 102.949 203.684 104.098 205.051 104.098C206.459 104.098 207.184 102.867 207.184 101.281C207.184 99.7363 206.473 98.5332 205.051 98.5332C203.656 98.5332 202.932 99.6406 202.932 101.281ZM213.131 97.5762V98.5605H211.572V102.867C211.572 103.824 212.037 103.975 212.543 103.975C212.762 103.975 213.062 103.961 213.24 103.947V105.041C213.062 105.068 212.762 105.096 212.42 105.096C211.436 105.096 210.383 104.48 210.383 103.168V98.5605H209.262V97.5762H210.383V95.7988H211.572V97.5762H213.131ZM214.648 105V97.5762H215.824V105H214.648ZM215.236 96.3457C214.785 96.3457 214.416 96.0039 214.416 95.5664C214.416 95.1289 214.785 94.7871 215.236 94.7871C215.688 94.7871 216.07 95.1289 216.07 95.5664C216.07 96.0039 215.688 96.3457 215.236 96.3457ZM220.732 105.15C218.709 105.15 217.342 103.633 217.342 101.322C217.342 99.0117 218.709 97.4805 220.732 97.4805C222.742 97.4805 224.096 99.0117 224.096 101.322C224.096 103.633 222.742 105.15 220.732 105.15ZM220.732 104.111C222.223 104.111 222.92 102.799 222.92 101.322C222.92 99.8457 222.223 98.5195 220.732 98.5195C219.215 98.5195 218.518 99.8457 218.518 101.322C218.518 102.799 219.215 104.111 220.732 104.111ZM226.816 100.543V105H225.641V97.5762H226.775V98.7383H226.871C227.227 97.9863 227.91 97.4805 229.045 97.4805C230.549 97.4805 231.547 98.3965 231.547 100.283V105H230.371V100.365C230.371 99.2168 229.742 98.5332 228.689 98.5332C227.609 98.5332 226.816 99.2578 226.816 100.543Z" fill="var(--sol-element-primary)"/>
<g clip-path="url(#clip8_1671_179013)">
<path d="M168 127.334C168 126.229 168.895 125.334 170 125.334H179.333C180.438 125.334 181.333 126.229 181.333 127.334V136.667C181.333 137.772 180.438 138.667 179.333 138.667H170C168.895 138.667 168 137.772 168 136.667V127.334Z" fill="var(--sol-fill-active)"/>
<path d="M179.714 129.269L173.549 135.434C173.304 135.678 172.909 135.679 172.665 135.434L169.621 132.391L170.505 131.507L173.106 134.109L178.831 128.385L179.714 129.269Z" fill="var(--sol-surface)"/>
</g>
<path d="M200.129 132.051C200.129 135.182 198.283 137.137 195.754 137.137C193.211 137.137 191.379 135.182 191.379 132.051C191.379 128.92 193.211 126.965 195.754 126.965C198.283 126.965 200.129 128.92 200.129 132.051ZM198.939 132.051C198.939 129.494 197.545 128.113 195.754 128.113C193.963 128.113 192.568 129.494 192.568 132.051C192.568 134.607 193.963 135.988 195.754 135.988C197.545 135.988 198.939 134.607 198.939 132.051ZM201.783 139.789V129.576H202.918V130.752H203.055C203.301 130.355 203.766 129.48 205.201 129.48C207.061 129.48 208.359 130.957 208.359 133.309C208.359 135.66 207.061 137.15 205.215 137.15C203.793 137.15 203.301 136.275 203.055 135.865H202.959V139.789H201.783ZM202.932 133.281C202.932 134.949 203.684 136.098 205.051 136.098C206.459 136.098 207.184 134.867 207.184 133.281C207.184 131.736 206.473 130.533 205.051 130.533C203.656 130.533 202.932 131.641 202.932 133.281ZM213.131 129.576V130.561H211.572V134.867C211.572 135.824 212.037 135.975 212.543 135.975C212.762 135.975 213.062 135.961 213.24 135.947V137.041C213.062 137.068 212.762 137.096 212.42 137.096C211.436 137.096 210.383 136.48 210.383 135.168V130.561H209.262V129.576H210.383V127.799H211.572V129.576H213.131ZM214.648 137V129.576H215.824V137H214.648ZM215.236 128.346C214.785 128.346 214.416 128.004 214.416 127.566C214.416 127.129 214.785 126.787 215.236 126.787C215.688 126.787 216.07 127.129 216.07 127.566C216.07 128.004 215.688 128.346 215.236 128.346ZM220.732 137.15C218.709 137.15 217.342 135.633 217.342 133.322C217.342 131.012 218.709 129.48 220.732 129.48C222.742 129.48 224.096 131.012 224.096 133.322C224.096 135.633 222.742 137.15 220.732 137.15ZM220.732 136.111C222.223 136.111 222.92 134.799 222.92 133.322C222.92 131.846 222.223 130.52 220.732 130.52C219.215 130.52 218.518 131.846 218.518 133.322C218.518 134.799 219.215 136.111 220.732 136.111ZM226.816 132.543V137H225.641V129.576H226.775V130.738H226.871C227.227 129.986 227.91 129.48 229.045 129.48C230.549 129.48 231.547 130.396 231.547 132.283V137H230.371V132.365C230.371 131.217 229.742 130.533 228.689 130.533C227.609 130.533 226.816 131.258 226.816 132.543Z" fill="var(--sol-element-primary)"/>
<g clip-path="url(#clip9_1671_179013)">
<path d="M168 159.334C168 158.229 168.895 157.334 170 157.334H179.333C180.438 157.334 181.333 158.229 181.333 159.334V168.667C181.333 169.772 180.438 170.667 179.333 170.667H170C168.895 170.667 168 169.772 168 168.667V159.334Z" fill="var(--sol-fill-active)"/>
<path d="M179.714 161.269L173.549 167.434C173.304 167.678 172.909 167.679 172.665 167.434L169.621 164.391L170.505 163.507L173.106 166.109L178.831 160.385L179.714 161.269Z" fill="var(--sol-surface)"/>
</g>
<path d="M200.129 164.051C200.129 167.182 198.283 169.137 195.754 169.137C193.211 169.137 191.379 167.182 191.379 164.051C191.379 160.92 193.211 158.965 195.754 158.965C198.283 158.965 200.129 160.92 200.129 164.051ZM198.939 164.051C198.939 161.494 197.545 160.113 195.754 160.113C193.963 160.113 192.568 161.494 192.568 164.051C192.568 166.607 193.963 167.988 195.754 167.988C197.545 167.988 198.939 166.607 198.939 164.051ZM201.783 171.789V161.576H202.918V162.752H203.055C203.301 162.355 203.766 161.48 205.201 161.48C207.061 161.48 208.359 162.957 208.359 165.309C208.359 167.66 207.061 169.15 205.215 169.15C203.793 169.15 203.301 168.275 203.055 167.865H202.959V171.789H201.783ZM202.932 165.281C202.932 166.949 203.684 168.098 205.051 168.098C206.459 168.098 207.184 166.867 207.184 165.281C207.184 163.736 206.473 162.533 205.051 162.533C203.656 162.533 202.932 163.641 202.932 165.281ZM213.131 161.576V162.561H211.572V166.867C211.572 167.824 212.037 167.975 212.543 167.975C212.762 167.975 213.062 167.961 213.24 167.947V169.041C213.062 169.068 212.762 169.096 212.42 169.096C211.436 169.096 210.383 168.48 210.383 167.168V162.561H209.262V161.576H210.383V159.799H211.572V161.576H213.131ZM214.648 169V161.576H215.824V169H214.648ZM215.236 160.346C214.785 160.346 214.416 160.004 214.416 159.566C214.416 159.129 214.785 158.787 215.236 158.787C215.688 158.787 216.07 159.129 216.07 159.566C216.07 160.004 215.688 160.346 215.236 160.346ZM220.732 169.15C218.709 169.15 217.342 167.633 217.342 165.322C217.342 163.012 218.709 161.48 220.732 161.48C222.742 161.48 224.096 163.012 224.096 165.322C224.096 167.633 222.742 169.15 220.732 169.15ZM220.732 168.111C222.223 168.111 222.92 166.799 222.92 165.322C222.92 163.846 222.223 162.52 220.732 162.52C219.215 162.52 218.518 163.846 218.518 165.322C218.518 166.799 219.215 168.111 220.732 168.111ZM226.816 164.543V169H225.641V161.576H226.775V162.738H226.871C227.227 161.986 227.91 161.48 229.045 161.48C230.549 161.48 231.547 162.396 231.547 164.283V169H230.371V164.365C230.371 163.217 229.742 162.533 228.689 162.533C227.609 162.533 226.816 163.258 226.816 164.543Z" fill="var(--sol-element-primary)"/>
<g clip-path="url(#clip10_1671_179013)">
<path d="M168 191.334C168 190.229 168.895 189.334 170 189.334H179.333C180.438 189.334 181.333 190.229 181.333 191.334V200.667C181.333 201.772 180.438 202.667 179.333 202.667H170C168.895 202.667 168 201.772 168 200.667V191.334Z" fill="var(--sol-fill-active)"/>
<path d="M179.714 193.269L173.549 199.434C173.304 199.678 172.909 199.679 172.665 199.434L169.621 196.391L170.505 195.507L173.106 198.109L178.831 192.385L179.714 193.269Z" fill="var(--sol-surface)"/>
</g>
<path d="M200.129 196.051C200.129 199.182 198.283 201.137 195.754 201.137C193.211 201.137 191.379 199.182 191.379 196.051C191.379 192.92 193.211 190.965 195.754 190.965C198.283 190.965 200.129 192.92 200.129 196.051ZM198.939 196.051C198.939 193.494 197.545 192.113 195.754 192.113C193.963 192.113 192.568 193.494 192.568 196.051C192.568 198.607 193.963 199.988 195.754 199.988C197.545 199.988 198.939 198.607 198.939 196.051ZM201.783 203.789V193.576H202.918V194.752H203.055C203.301 194.355 203.766 193.48 205.201 193.48C207.061 193.48 208.359 194.957 208.359 197.309C208.359 199.66 207.061 201.15 205.215 201.15C203.793 201.15 203.301 200.275 203.055 199.865H202.959V203.789H201.783ZM202.932 197.281C202.932 198.949 203.684 200.098 205.051 200.098C206.459 200.098 207.184 198.867 207.184 197.281C207.184 195.736 206.473 194.533 205.051 194.533C203.656 194.533 202.932 195.641 202.932 197.281ZM213.131 193.576V194.561H211.572V198.867C211.572 199.824 212.037 199.975 212.543 199.975C212.762 199.975 213.062 199.961 213.24 199.947V201.041C213.062 201.068 212.762 201.096 212.42 201.096C211.436 201.096 210.383 200.48 210.383 199.168V194.561H209.262V193.576H210.383V191.799H211.572V193.576H213.131ZM214.648 201V193.576H215.824V201H214.648ZM215.236 192.346C214.785 192.346 214.416 192.004 214.416 191.566C214.416 191.129 214.785 190.787 215.236 190.787C215.688 190.787 216.07 191.129 216.07 191.566C216.07 192.004 215.688 192.346 215.236 192.346ZM220.732 201.15C218.709 201.15 217.342 199.633 217.342 197.322C217.342 195.012 218.709 193.48 220.732 193.48C222.742 193.48 224.096 195.012 224.096 197.322C224.096 199.633 222.742 201.15 220.732 201.15ZM220.732 200.111C222.223 200.111 222.92 198.799 222.92 197.322C222.92 195.846 222.223 194.52 220.732 194.52C219.215 194.52 218.518 195.846 218.518 197.322C218.518 198.799 219.215 200.111 220.732 200.111ZM226.816 196.543V201H225.641V193.576H226.775V194.738H226.871C227.227 193.986 227.91 193.48 229.045 193.48C230.549 193.48 231.547 194.396 231.547 196.283V201H230.371V196.365C230.371 195.217 229.742 194.533 228.689 194.533C227.609 194.533 226.816 195.258 226.816 196.543Z" fill="var(--sol-element-primary)"/>
</g>
<g clip-path="url(#clip11_1671_179013)">
<g clip-path="url(#clip12_1671_179013)">
<path d="M296.664 95.334C296.664 94.2294 297.559 93.334 298.664 93.334H307.997C309.102 93.334 309.997 94.2294 309.997 95.334V104.667C309.997 105.772 309.102 106.667 307.997 106.667H298.664C297.559 106.667 296.664 105.772 296.664 104.667V95.334Z" fill="var(--sol-fill-active)"/>
<path d="M308.378 97.2686L302.213 103.434C301.968 103.678 301.573 103.679 301.329 103.434L298.285 100.391L299.169 99.5071L301.77 102.109L307.495 96.3848L308.378 97.2686Z" fill="var(--sol-surface)"/>
</g>
<path d="M328.793 100.051C328.793 103.182 326.947 105.137 324.418 105.137C321.875 105.137 320.043 103.182 320.043 100.051C320.043 96.9199 321.875 94.9648 324.418 94.9648C326.947 94.9648 328.793 96.9199 328.793 100.051ZM327.604 100.051C327.604 97.4941 326.209 96.1133 324.418 96.1133C322.627 96.1133 321.232 97.4941 321.232 100.051C321.232 102.607 322.627 103.988 324.418 103.988C326.209 103.988 327.604 102.607 327.604 100.051ZM330.447 107.789V97.5762H331.582V98.752H331.719C331.965 98.3555 332.43 97.4805 333.865 97.4805C335.725 97.4805 337.023 98.957 337.023 101.309C337.023 103.66 335.725 105.15 333.879 105.15C332.457 105.15 331.965 104.275 331.719 103.865H331.623V107.789H330.447ZM331.596 101.281C331.596 102.949 332.348 104.098 333.715 104.098C335.123 104.098 335.848 102.867 335.848 101.281C335.848 99.7363 335.137 98.5332 333.715 98.5332C332.32 98.5332 331.596 99.6406 331.596 101.281ZM341.795 97.5762V98.5605H340.236V102.867C340.236 103.824 340.701 103.975 341.207 103.975C341.426 103.975 341.727 103.961 341.904 103.947V105.041C341.727 105.068 341.426 105.096 341.084 105.096C340.1 105.096 339.047 104.48 339.047 103.168V98.5605H337.926V97.5762H339.047V95.7988H340.236V97.5762H341.795ZM343.312 105V97.5762H344.488V105H343.312ZM343.9 96.3457C343.449 96.3457 343.08 96.0039 343.08 95.5664C343.08 95.1289 343.449 94.7871 343.9 94.7871C344.352 94.7871 344.734 95.1289 344.734 95.5664C344.734 96.0039 344.352 96.3457 343.9 96.3457ZM349.396 105.15C347.373 105.15 346.006 103.633 346.006 101.322C346.006 99.0117 347.373 97.4805 349.396 97.4805C351.406 97.4805 352.76 99.0117 352.76 101.322C352.76 103.633 351.406 105.15 349.396 105.15ZM349.396 104.111C350.887 104.111 351.584 102.799 351.584 101.322C351.584 99.8457 350.887 98.5195 349.396 98.5195C347.879 98.5195 347.182 99.8457 347.182 101.322C347.182 102.799 347.879 104.111 349.396 104.111ZM355.48 100.543V105H354.305V97.5762H355.439V98.7383H355.535C355.891 97.9863 356.574 97.4805 357.709 97.4805C359.213 97.4805 360.211 98.3965 360.211 100.283V105H359.035V100.365C359.035 99.2168 358.406 98.5332 357.354 98.5332C356.273 98.5332 355.48 99.2578 355.48 100.543Z" fill="var(--sol-element-primary)"/>
<g clip-path="url(#clip13_1671_179013)">
<path d="M296.664 127.334C296.664 126.229 297.559 125.334 298.664 125.334H307.997C309.102 125.334 309.997 126.229 309.997 127.334V136.667C309.997 137.772 309.102 138.667 307.997 138.667H298.664C297.559 138.667 296.664 137.772 296.664 136.667V127.334Z" fill="var(--sol-fill-active)"/>
<path d="M308.378 129.269L302.213 135.434C301.968 135.678 301.573 135.679 301.329 135.434L298.285 132.391L299.169 131.507L301.77 134.109L307.495 128.385L308.378 129.269Z" fill="var(--sol-surface)"/>
</g>
<path d="M328.793 132.051C328.793 135.182 326.947 137.137 324.418 137.137C321.875 137.137 320.043 135.182 320.043 132.051C320.043 128.92 321.875 126.965 324.418 126.965C326.947 126.965 328.793 128.92 328.793 132.051ZM327.604 132.051C327.604 129.494 326.209 128.113 324.418 128.113C322.627 128.113 321.232 129.494 321.232 132.051C321.232 134.607 322.627 135.988 324.418 135.988C326.209 135.988 327.604 134.607 327.604 132.051ZM330.447 139.789V129.576H331.582V130.752H331.719C331.965 130.355 332.43 129.48 333.865 129.48C335.725 129.48 337.023 130.957 337.023 133.309C337.023 135.66 335.725 137.15 333.879 137.15C332.457 137.15 331.965 136.275 331.719 135.865H331.623V139.789H330.447ZM331.596 133.281C331.596 134.949 332.348 136.098 333.715 136.098C335.123 136.098 335.848 134.867 335.848 133.281C335.848 131.736 335.137 130.533 333.715 130.533C332.32 130.533 331.596 131.641 331.596 133.281ZM341.795 129.576V130.561H340.236V134.867C340.236 135.824 340.701 135.975 341.207 135.975C341.426 135.975 341.727 135.961 341.904 135.947V137.041C341.727 137.068 341.426 137.096 341.084 137.096C340.1 137.096 339.047 136.48 339.047 135.168V130.561H337.926V129.576H339.047V127.799H340.236V129.576H341.795ZM343.312 137V129.576H344.488V137H343.312ZM343.9 128.346C343.449 128.346 343.08 128.004 343.08 127.566C343.08 127.129 343.449 126.787 343.9 126.787C344.352 126.787 344.734 127.129 344.734 127.566C344.734 128.004 344.352 128.346 343.9 128.346ZM349.396 137.15C347.373 137.15 346.006 135.633 346.006 133.322C346.006 131.012 347.373 129.48 349.396 129.48C351.406 129.48 352.76 131.012 352.76 133.322C352.76 135.633 351.406 137.15 349.396 137.15ZM349.396 136.111C350.887 136.111 351.584 134.799 351.584 133.322C351.584 131.846 350.887 130.52 349.396 130.52C347.879 130.52 347.182 131.846 347.182 133.322C347.182 134.799 347.879 136.111 349.396 136.111ZM355.48 132.543V137H354.305V129.576H355.439V130.738H355.535C355.891 129.986 356.574 129.48 357.709 129.48C359.213 129.48 360.211 130.396 360.211 132.283V137H359.035V132.365C359.035 131.217 358.406 130.533 357.354 130.533C356.273 130.533 355.48 131.258 355.48 132.543Z" fill="var(--sol-element-primary)"/>
<g clip-path="url(#clip14_1671_179013)">
<path d="M296.664 159.334C296.664 158.229 297.559 157.334 298.664 157.334H307.997C309.102 157.334 309.997 158.229 309.997 159.334V168.667C309.997 169.772 309.102 170.667 307.997 170.667H298.664C297.559 170.667 296.664 169.772 296.664 168.667V159.334Z" fill="var(--sol-fill-active)"/>
<path d="M308.378 161.269L302.213 167.434C301.968 167.678 301.573 167.679 301.329 167.434L298.285 164.391L299.169 163.507L301.77 166.109L307.495 160.385L308.378 161.269Z" fill="var(--sol-surface)"/>
</g>
<path d="M328.793 164.051C328.793 167.182 326.947 169.137 324.418 169.137C321.875 169.137 320.043 167.182 320.043 164.051C320.043 160.92 321.875 158.965 324.418 158.965C326.947 158.965 328.793 160.92 328.793 164.051ZM327.604 164.051C327.604 161.494 326.209 160.113 324.418 160.113C322.627 160.113 321.232 161.494 321.232 164.051C321.232 166.607 322.627 167.988 324.418 167.988C326.209 167.988 327.604 166.607 327.604 164.051ZM330.447 171.789V161.576H331.582V162.752H331.719C331.965 162.355 332.43 161.48 333.865 161.48C335.725 161.48 337.023 162.957 337.023 165.309C337.023 167.66 335.725 169.15 333.879 169.15C332.457 169.15 331.965 168.275 331.719 167.865H331.623V171.789H330.447ZM331.596 165.281C331.596 166.949 332.348 168.098 333.715 168.098C335.123 168.098 335.848 166.867 335.848 165.281C335.848 163.736 335.137 162.533 333.715 162.533C332.32 162.533 331.596 163.641 331.596 165.281ZM341.795 161.576V162.561H340.236V166.867C340.236 167.824 340.701 167.975 341.207 167.975C341.426 167.975 341.727 167.961 341.904 167.947V169.041C341.727 169.068 341.426 169.096 341.084 169.096C340.1 169.096 339.047 168.48 339.047 167.168V162.561H337.926V161.576H339.047V159.799H340.236V161.576H341.795ZM343.312 169V161.576H344.488V169H343.312ZM343.9 160.346C343.449 160.346 343.08 160.004 343.08 159.566C343.08 159.129 343.449 158.787 343.9 158.787C344.352 158.787 344.734 159.129 344.734 159.566C344.734 160.004 344.352 160.346 343.9 160.346ZM349.396 169.15C347.373 169.15 346.006 167.633 346.006 165.322C346.006 163.012 347.373 161.48 349.396 161.48C351.406 161.48 352.76 163.012 352.76 165.322C352.76 167.633 351.406 169.15 349.396 169.15ZM349.396 168.111C350.887 168.111 351.584 166.799 351.584 165.322C351.584 163.846 350.887 162.52 349.396 162.52C347.879 162.52 347.182 163.846 347.182 165.322C347.182 166.799 347.879 168.111 349.396 168.111ZM355.48 164.543V169H354.305V161.576H355.439V162.738H355.535C355.891 161.986 356.574 161.48 357.709 161.48C359.213 161.48 360.211 162.396 360.211 164.283V169H359.035V164.365C359.035 163.217 358.406 162.533 357.354 162.533C356.273 162.533 355.48 163.258 355.48 164.543Z" fill="var(--sol-element-primary)"/>
</g>
</g>
<defs>
<clipPath id="clip0_1671_179013">
<path d="M0 7.99999C0 3.58172 3.58172 0 8 0H434C438.418 0 442 3.58172 442 8V260C442 264.418 438.418 268 434 268H8C3.58172 268 0 264.418 0 260V7.99999Z" fill="var(--sol-surface)"/>
</clipPath>
<clipPath id="clip1_1671_179013">
<rect width="112.667" height="128" fill="var(--sol-surface)" transform="translate(36 84)"/>
</clipPath>
<clipPath id="clip2_1671_179013">
<path d="M39.332 95.334C39.332 94.2294 40.2275 93.334 41.332 93.334H50.6654C51.7699 93.334 52.6654 94.2294 52.6654 95.334V104.667C52.6654 105.772 51.7699 106.667 50.6654 106.667H41.332C40.2275 106.667 39.332 105.772 39.332 104.667V95.334Z" fill="var(--sol-surface)"/>
</clipPath>
<clipPath id="clip3_1671_179013">
<path d="M39.332 127.334C39.332 126.229 40.2275 125.334 41.332 125.334H50.6654C51.7699 125.334 52.6654 126.229 52.6654 127.334V136.667C52.6654 137.772 51.7699 138.667 50.6654 138.667H41.332C40.2275 138.667 39.332 137.772 39.332 136.667V127.334Z" fill="var(--sol-surface)"/>
</clipPath>
<clipPath id="clip4_1671_179013">
<path d="M39.332 159.334C39.332 158.229 40.2275 157.334 41.332 157.334H50.6654C51.7699 157.334 52.6654 158.229 52.6654 159.334V168.667C52.6654 169.772 51.7699 170.667 50.6654 170.667H41.332C40.2275 170.667 39.332 169.772 39.332 168.667V159.334Z" fill="var(--sol-surface)"/>
</clipPath>
<clipPath id="clip5_1671_179013">
<path d="M39.332 191.334C39.332 190.229 40.2275 189.334 41.332 189.334H50.6654C51.7699 189.334 52.6654 190.229 52.6654 191.334V200.667C52.6654 201.772 51.7699 202.667 50.6654 202.667H41.332C40.2275 202.667 39.332 201.772 39.332 200.667V191.334Z" fill="var(--sol-surface)"/>
</clipPath>
<clipPath id="clip6_1671_179013">
<rect width="112.667" height="128" fill="var(--sol-surface)" transform="translate(164.668 84)"/>
</clipPath>
<clipPath id="clip7_1671_179013">
<path d="M168 95.334C168 94.2294 168.895 93.334 170 93.334H179.333C180.438 93.334 181.333 94.2294 181.333 95.334V104.667C181.333 105.772 180.438 106.667 179.333 106.667H170C168.895 106.667 168 105.772 168 104.667V95.334Z" fill="var(--sol-surface)"/>
</clipPath>
<clipPath id="clip8_1671_179013">
<path d="M168 127.334C168 126.229 168.895 125.334 170 125.334H179.333C180.438 125.334 181.333 126.229 181.333 127.334V136.667C181.333 137.772 180.438 138.667 179.333 138.667H170C168.895 138.667 168 137.772 168 136.667V127.334Z" fill="var(--sol-surface)"/>
</clipPath>
<clipPath id="clip9_1671_179013">
<path d="M168 159.334C168 158.229 168.895 157.334 170 157.334H179.333C180.438 157.334 181.333 158.229 181.333 159.334V168.667C181.333 169.772 180.438 170.667 179.333 170.667H170C168.895 170.667 168 169.772 168 168.667V159.334Z" fill="var(--sol-surface)"/>
</clipPath>
<clipPath id="clip10_1671_179013">
<path d="M168 191.334C168 190.229 168.895 189.334 170 189.334H179.333C180.438 189.334 181.333 190.229 181.333 191.334V200.667C181.333 201.772 180.438 202.667 179.333 202.667H170C168.895 202.667 168 201.772 168 200.667V191.334Z" fill="var(--sol-surface)"/>
</clipPath>
<clipPath id="clip11_1671_179013">
<rect width="112.667" height="96" fill="var(--sol-surface)" transform="translate(293.332 84)"/>
</clipPath>
<clipPath id="clip12_1671_179013">
<path d="M296.664 95.334C296.664 94.2294 297.559 93.334 298.664 93.334H307.997C309.102 93.334 309.997 94.2294 309.997 95.334V104.667C309.997 105.772 309.102 106.667 307.997 106.667H298.664C297.559 106.667 296.664 105.772 296.664 104.667V95.334Z" fill="var(--sol-surface)"/>
</clipPath>
<clipPath id="clip13_1671_179013">
<path d="M296.664 127.334C296.664 126.229 297.559 125.334 298.664 125.334H307.997C309.102 125.334 309.997 126.229 309.997 127.334V136.667C309.997 137.772 309.102 138.667 307.997 138.667H298.664C297.559 138.667 296.664 137.772 296.664 136.667V127.334Z" fill="var(--sol-surface)"/>
</clipPath>
<clipPath id="clip14_1671_179013">
<path d="M296.664 159.334C296.664 158.229 297.559 157.334 298.664 157.334H307.997C309.102 157.334 309.997 158.229 309.997 159.334V168.667C309.997 169.772 309.102 170.667 307.997 170.667H298.664C297.559 170.667 296.664 169.772 296.664 168.667V159.334Z" fill="var(--sol-surface)"/>
</clipPath>
</defs>
</svg>
