<svg width="442" height="372" viewBox="0 0 442 372" fill="none" xmlns="http://www.w3.org/2000/svg">
<style>
:root {
  --sol-element-primary: #161616;
  --sol-element-tertiary: #636363;
  --sol-fill-active: #4d469a;
  --sol-surface: #ffffff;
  --sol-error: #e76067;
}
@media (prefers-color-scheme: dark) {
  :root {
    --sol-element-primary: #ffffff;
    --sol-element-tertiary: rgba(255, 255, 255, 0.6);
    --sol-fill-active: #7b74c4;
    --sol-surface: #161616;
    --sol-error: #ee7a80;
  }
}
</style>
<rect width="390" height="372" transform="translate(26)" fill="var(--sol-surface)"/>
<path d="M62.916 51V41.1016H64.6934V49.4961H69.0684V51H62.916ZM70.0664 48.9082C70.0664 47.2402 71.4473 46.748 72.8281 46.666C73.3408 46.6318 74.4072 46.5703 74.7285 46.5566V45.9688C74.7285 45.2305 74.25 44.8066 73.3887 44.8066C72.6094 44.8066 72.1309 45.1621 71.9941 45.6953H70.3125C70.4355 44.4375 71.5703 43.4805 73.4297 43.4805C74.8379 43.4805 76.4648 44.0547 76.4648 46.0371V51H74.7969V49.9746H74.7422C74.4141 50.6035 73.7168 51.1504 72.5547 51.1504C71.1328 51.1504 70.0664 50.3711 70.0664 48.9082ZM71.748 48.8945C71.748 49.5371 72.2676 49.8652 73.0059 49.8652C74.0586 49.8652 74.7422 49.168 74.7422 48.334V47.7188L73.1016 47.8281C72.2676 47.8965 71.748 48.2383 71.748 48.8945ZM78.1875 51V41.1016H79.9375V44.793H80.0059C80.2793 44.2598 80.8125 43.4805 82.125 43.4805C83.8477 43.4805 85.2012 44.8203 85.2012 47.2949C85.2012 49.7422 83.875 51.1367 82.1387 51.1367C80.8535 51.1367 80.2793 50.3711 80.0059 49.8242H79.8965V51H78.1875ZM79.8965 47.2812C79.8965 48.7305 80.5254 49.7012 81.6465 49.7012C82.8086 49.7012 83.4238 48.6895 83.4238 47.2812C83.4238 45.9004 82.8223 44.9023 81.6465 44.9023C80.5254 44.9023 79.8965 45.8457 79.8965 47.2812ZM89.8633 51.1504C87.6211 51.1504 86.2539 49.6602 86.2539 47.3359C86.2539 45.0391 87.6484 43.4805 89.7676 43.4805C91.5859 43.4805 93.1582 44.6152 93.1582 47.2266V47.7734H87.9766C87.9971 49.0381 88.7422 49.7832 89.877 49.7832C90.6426 49.7832 91.1621 49.4551 91.3809 49.0176H93.0898C92.7754 50.3027 91.5859 51.1504 89.8633 51.1504ZM87.9902 46.584H91.4902C91.4766 45.5723 90.8066 44.834 89.7949 44.834C88.7422 44.834 88.0449 45.6338 87.9902 46.584ZM96.2617 41.1016V51H94.5117V41.1016H96.2617Z" fill="var(--sol-element-tertiary)"/>
<g clip-path="url(#clip0_1671_179005)">
<g clip-path="url(#clip1_1671_179005)">
<path d="M65.332 75.334C65.332 74.2294 66.2275 73.334 67.332 73.334H76.6654C77.7699 73.334 78.6654 74.2294 78.6654 75.334V84.6673C78.6654 85.7719 77.7699 86.6673 76.6654 86.6673H67.332C66.2275 86.6673 65.332 85.7719 65.332 84.6673V75.334Z" fill="var(--sol-fill-active)"/>
<path d="M77.0464 77.2686L70.8805 83.4345C70.6365 83.6785 70.2408 83.6785 69.9967 83.4345L66.9531 80.3908L67.8369 79.5071L70.4384 82.1085L76.1627 76.3848L77.0464 77.2686Z" fill="var(--sol-surface)"/>
</g>
<path d="M97.748 80.0508C97.748 83.25 95.8066 85.1367 93.209 85.1367C90.6113 85.1367 88.6699 83.2363 88.6699 80.0508C88.6699 76.8516 90.6113 74.9648 93.209 74.9648C95.8066 74.9648 97.748 76.8516 97.748 80.0508ZM95.957 80.0508C95.957 77.7949 94.8223 76.5645 93.209 76.5645C91.5957 76.5645 90.4609 77.7949 90.4609 80.0508C90.4609 82.3066 91.5957 83.5371 93.209 83.5371C94.8223 83.5371 95.957 82.3066 95.957 80.0508ZM99.252 87.7891V77.5762H100.961V78.793H101.07C101.344 78.2598 101.891 77.4805 103.203 77.4805C104.912 77.4805 106.266 78.8203 106.266 81.2949C106.266 83.7422 104.953 85.1367 103.203 85.1367C101.918 85.1367 101.344 84.3711 101.07 83.8242H101.002V87.7891H99.252ZM100.961 81.2812C100.961 82.7305 101.59 83.7012 102.725 83.7012C103.873 83.7012 104.488 82.6895 104.488 81.2812C104.488 79.9004 103.887 78.9023 102.725 78.9023C101.59 78.9023 100.961 79.8457 100.961 81.2812ZM111.338 77.5762V78.916H109.875V82.7715C109.875 83.4824 110.23 83.6328 110.668 83.6328C110.873 83.6328 111.215 83.6191 111.434 83.6055V85.0273C111.229 85.0684 110.887 85.0957 110.449 85.0957C109.137 85.0957 108.125 84.4531 108.139 83.0586V78.916H107.072V77.5762H108.139V75.7988H109.875V77.5762H111.338ZM112.678 85V77.5762H114.428V85H112.678ZM113.566 76.5234C113.02 76.5234 112.555 76.0996 112.555 75.5664C112.555 75.0469 113.02 74.623 113.566 74.623C114.127 74.623 114.578 75.0469 114.578 75.5664C114.578 76.0996 114.127 76.5234 113.566 76.5234ZM119.336 85.1504C117.176 85.1504 115.781 83.6191 115.781 81.3223C115.781 79.0117 117.176 77.4805 119.336 77.4805C121.51 77.4805 122.891 79.0117 122.891 81.3223C122.891 83.6191 121.51 85.1504 119.336 85.1504ZM119.35 83.7559C120.539 83.7559 121.127 82.6758 121.127 81.3086C121.127 79.9551 120.539 78.8613 119.35 78.8613C118.133 78.8613 117.545 79.9551 117.545 81.3086C117.545 82.6758 118.133 83.7559 119.35 83.7559ZM125.994 80.6523V85H124.244V77.5762H125.912V78.834H126.008C126.35 78 127.102 77.4805 128.209 77.4805C129.754 77.4805 130.766 78.4922 130.752 80.2695V85H129.016V80.543C129.016 79.5449 128.482 78.957 127.566 78.957C126.637 78.957 125.994 79.5723 125.994 80.6523Z" fill="var(--sol-element-primary)"/>
<g clip-path="url(#clip2_1671_179005)">
<path d="M65.332 107.334C65.332 106.229 66.2275 105.334 67.332 105.334H76.6654C77.7699 105.334 78.6654 106.229 78.6654 107.334V116.667C78.6654 117.772 77.7699 118.667 76.6654 118.667H67.332C66.2275 118.667 65.332 117.772 65.332 116.667V107.334Z" fill="var(--sol-fill-active)"/>
<path d="M77.0464 109.269L70.8805 115.434C70.6365 115.678 70.2408 115.679 69.9967 115.434L66.9531 112.391L67.8369 111.507L70.4384 114.109L76.1627 108.385L77.0464 109.269Z" fill="var(--sol-surface)"/>
</g>
<path d="M97.4609 112.051C97.4609 115.182 95.6152 117.137 93.0859 117.137C90.543 117.137 88.7109 115.182 88.7109 112.051C88.7109 108.92 90.543 106.965 93.0859 106.965C95.6152 106.965 97.4609 108.92 97.4609 112.051ZM96.2715 112.051C96.2715 109.494 94.877 108.113 93.0859 108.113C91.2949 108.113 89.9004 109.494 89.9004 112.051C89.9004 114.607 91.2949 115.988 93.0859 115.988C94.877 115.988 96.2715 114.607 96.2715 112.051ZM99.1152 119.789V109.576H100.25V110.752H100.387C100.633 110.355 101.098 109.48 102.533 109.48C104.393 109.48 105.691 110.957 105.691 113.309C105.691 115.66 104.393 117.15 102.547 117.15C101.125 117.15 100.633 116.275 100.387 115.865H100.291V119.789H99.1152ZM100.264 113.281C100.264 114.949 101.016 116.098 102.383 116.098C103.791 116.098 104.516 114.867 104.516 113.281C104.516 111.736 103.805 110.533 102.383 110.533C100.988 110.533 100.264 111.641 100.264 113.281ZM110.463 109.576V110.561H108.904V114.867C108.904 115.824 109.369 115.975 109.875 115.975C110.094 115.975 110.395 115.961 110.572 115.947V117.041C110.395 117.068 110.094 117.096 109.752 117.096C108.768 117.096 107.715 116.48 107.715 115.168V110.561H106.594V109.576H107.715V107.799H108.904V109.576H110.463ZM111.98 117V109.576H113.156V117H111.98ZM112.568 108.346C112.117 108.346 111.748 108.004 111.748 107.566C111.748 107.129 112.117 106.787 112.568 106.787C113.02 106.787 113.402 107.129 113.402 107.566C113.402 108.004 113.02 108.346 112.568 108.346ZM118.064 117.15C116.041 117.15 114.674 115.633 114.674 113.322C114.674 111.012 116.041 109.48 118.064 109.48C120.074 109.48 121.428 111.012 121.428 113.322C121.428 115.633 120.074 117.15 118.064 117.15ZM118.064 116.111C119.555 116.111 120.252 114.799 120.252 113.322C120.252 111.846 119.555 110.52 118.064 110.52C116.547 110.52 115.85 111.846 115.85 113.322C115.85 114.799 116.547 116.111 118.064 116.111ZM124.148 112.543V117H122.973V109.576H124.107V110.738H124.203C124.559 109.986 125.242 109.48 126.377 109.48C127.881 109.48 128.879 110.396 128.879 112.283V117H127.703V112.365C127.703 111.217 127.074 110.533 126.021 110.533C124.941 110.533 124.148 111.258 124.148 112.543Z" fill="var(--sol-element-primary)"/>
<g clip-path="url(#clip3_1671_179005)">
<path d="M65.332 139.334C65.332 138.229 66.2275 137.334 67.332 137.334H76.6654C77.7699 137.334 78.6654 138.229 78.6654 139.334V148.667C78.6654 149.772 77.7699 150.667 76.6654 150.667H67.332C66.2275 150.667 65.332 149.772 65.332 148.667V139.334Z" fill="var(--sol-fill-active)"/>
<path d="M77.0464 141.269L70.8805 147.434C70.6365 147.678 70.2408 147.679 69.9967 147.434L66.9531 144.391L67.8369 143.507L70.4384 146.109L76.1627 140.385L77.0464 141.269Z" fill="var(--sol-surface)"/>
</g>
<path d="M97.4609 144.051C97.4609 147.182 95.6152 149.137 93.0859 149.137C90.543 149.137 88.7109 147.182 88.7109 144.051C88.7109 140.92 90.543 138.965 93.0859 138.965C95.6152 138.965 97.4609 140.92 97.4609 144.051ZM96.2715 144.051C96.2715 141.494 94.877 140.113 93.0859 140.113C91.2949 140.113 89.9004 141.494 89.9004 144.051C89.9004 146.607 91.2949 147.988 93.0859 147.988C94.877 147.988 96.2715 146.607 96.2715 144.051ZM99.1152 151.789V141.576H100.25V142.752H100.387C100.633 142.355 101.098 141.48 102.533 141.48C104.393 141.48 105.691 142.957 105.691 145.309C105.691 147.66 104.393 149.15 102.547 149.15C101.125 149.15 100.633 148.275 100.387 147.865H100.291V151.789H99.1152ZM100.264 145.281C100.264 146.949 101.016 148.098 102.383 148.098C103.791 148.098 104.516 146.867 104.516 145.281C104.516 143.736 103.805 142.533 102.383 142.533C100.988 142.533 100.264 143.641 100.264 145.281ZM110.463 141.576V142.561H108.904V146.867C108.904 147.824 109.369 147.975 109.875 147.975C110.094 147.975 110.395 147.961 110.572 147.947V149.041C110.395 149.068 110.094 149.096 109.752 149.096C108.768 149.096 107.715 148.48 107.715 147.168V142.561H106.594V141.576H107.715V139.799H108.904V141.576H110.463ZM111.98 149V141.576H113.156V149H111.98ZM112.568 140.346C112.117 140.346 111.748 140.004 111.748 139.566C111.748 139.129 112.117 138.787 112.568 138.787C113.02 138.787 113.402 139.129 113.402 139.566C113.402 140.004 113.02 140.346 112.568 140.346ZM118.064 149.15C116.041 149.15 114.674 147.633 114.674 145.322C114.674 143.012 116.041 141.48 118.064 141.48C120.074 141.48 121.428 143.012 121.428 145.322C121.428 147.633 120.074 149.15 118.064 149.15ZM118.064 148.111C119.555 148.111 120.252 146.799 120.252 145.322C120.252 143.846 119.555 142.52 118.064 142.52C116.547 142.52 115.85 143.846 115.85 145.322C115.85 146.799 116.547 148.111 118.064 148.111ZM124.148 144.543V149H122.973V141.576H124.107V142.738H124.203C124.559 141.986 125.242 141.48 126.377 141.48C127.881 141.48 128.879 142.396 128.879 144.283V149H127.703V144.365C127.703 143.217 127.074 142.533 126.021 142.533C124.941 142.533 124.148 143.258 124.148 144.543Z" fill="var(--sol-element-primary)"/>
</g>
<g clip-path="url(#clip4_1671_179005)">
<g clip-path="url(#clip5_1671_179005)">
<path d="M176.664 75.334C176.664 74.2294 177.559 73.334 178.664 73.334H187.997C189.102 73.334 189.997 74.2294 189.997 75.334V84.6673C189.997 85.7719 189.102 86.6673 187.997 86.6673H178.664C177.559 86.6673 176.664 85.7719 176.664 84.6673V75.334Z" fill="var(--sol-fill-active)"/>
<path d="M188.378 77.2686L182.213 83.4345C181.968 83.6785 181.573 83.6785 181.329 83.4345L178.285 80.3908L179.169 79.5071L181.77 82.1085L187.495 76.3848L188.378 77.2686Z" fill="var(--sol-surface)"/>
</g>
<path d="M208.793 80.0508C208.793 83.1816 206.947 85.1367 204.418 85.1367C201.875 85.1367 200.043 83.1816 200.043 80.0508C200.043 76.9199 201.875 74.9648 204.418 74.9648C206.947 74.9648 208.793 76.9199 208.793 80.0508ZM207.604 80.0508C207.604 77.4941 206.209 76.1133 204.418 76.1133C202.627 76.1133 201.232 77.4941 201.232 80.0508C201.232 82.6074 202.627 83.9883 204.418 83.9883C206.209 83.9883 207.604 82.6074 207.604 80.0508ZM210.447 87.7891V77.5762H211.582V78.752H211.719C211.965 78.3555 212.43 77.4805 213.865 77.4805C215.725 77.4805 217.023 78.957 217.023 81.3086C217.023 83.6602 215.725 85.1504 213.879 85.1504C212.457 85.1504 211.965 84.2754 211.719 83.8652H211.623V87.7891H210.447ZM211.596 81.2812C211.596 82.9492 212.348 84.0977 213.715 84.0977C215.123 84.0977 215.848 82.8672 215.848 81.2812C215.848 79.7363 215.137 78.5332 213.715 78.5332C212.32 78.5332 211.596 79.6406 211.596 81.2812ZM221.795 77.5762V78.5605H220.236V82.8672C220.236 83.8242 220.701 83.9746 221.207 83.9746C221.426 83.9746 221.727 83.9609 221.904 83.9473V85.041C221.727 85.0684 221.426 85.0957 221.084 85.0957C220.1 85.0957 219.047 84.4805 219.047 83.168V78.5605H217.926V77.5762H219.047V75.7988H220.236V77.5762H221.795ZM223.312 85V77.5762H224.488V85H223.312ZM223.9 76.3457C223.449 76.3457 223.08 76.0039 223.08 75.5664C223.08 75.1289 223.449 74.7871 223.9 74.7871C224.352 74.7871 224.734 75.1289 224.734 75.5664C224.734 76.0039 224.352 76.3457 223.9 76.3457ZM229.396 85.1504C227.373 85.1504 226.006 83.6328 226.006 81.3223C226.006 79.0117 227.373 77.4805 229.396 77.4805C231.406 77.4805 232.76 79.0117 232.76 81.3223C232.76 83.6328 231.406 85.1504 229.396 85.1504ZM229.396 84.1113C230.887 84.1113 231.584 82.7988 231.584 81.3223C231.584 79.8457 230.887 78.5195 229.396 78.5195C227.879 78.5195 227.182 79.8457 227.182 81.3223C227.182 82.7988 227.879 84.1113 229.396 84.1113ZM235.48 80.543V85H234.305V77.5762H235.439V78.7383H235.535C235.891 77.9863 236.574 77.4805 237.709 77.4805C239.213 77.4805 240.211 78.3965 240.211 80.2832V85H239.035V80.3652C239.035 79.2168 238.406 78.5332 237.354 78.5332C236.273 78.5332 235.48 79.2578 235.48 80.543Z" fill="var(--sol-element-primary)"/>
<g clip-path="url(#clip6_1671_179005)">
<path d="M176.664 107.334C176.664 106.229 177.559 105.334 178.664 105.334H187.997C189.102 105.334 189.997 106.229 189.997 107.334V116.667C189.997 117.772 189.102 118.667 187.997 118.667H178.664C177.559 118.667 176.664 117.772 176.664 116.667V107.334Z" fill="var(--sol-fill-active)"/>
<path d="M188.378 109.269L182.213 115.434C181.968 115.678 181.573 115.679 181.329 115.434L178.285 112.391L179.169 111.507L181.77 114.109L187.495 108.385L188.378 109.269Z" fill="var(--sol-surface)"/>
</g>
<path d="M209.08 112.051C209.08 115.25 207.139 117.137 204.541 117.137C201.943 117.137 200.002 115.236 200.002 112.051C200.002 108.852 201.943 106.965 204.541 106.965C207.139 106.965 209.08 108.852 209.08 112.051ZM207.289 112.051C207.289 109.795 206.154 108.564 204.541 108.564C202.928 108.564 201.793 109.795 201.793 112.051C201.793 114.307 202.928 115.537 204.541 115.537C206.154 115.537 207.289 114.307 207.289 112.051ZM210.584 119.789V109.576H212.293V110.793H212.402C212.676 110.26 213.223 109.48 214.535 109.48C216.244 109.48 217.598 110.82 217.598 113.295C217.598 115.742 216.285 117.137 214.535 117.137C213.25 117.137 212.676 116.371 212.402 115.824H212.334V119.789H210.584ZM212.293 113.281C212.293 114.73 212.922 115.701 214.057 115.701C215.205 115.701 215.82 114.689 215.82 113.281C215.82 111.9 215.219 110.902 214.057 110.902C212.922 110.902 212.293 111.846 212.293 113.281ZM222.67 109.576V110.916H221.207V114.771C221.207 115.482 221.562 115.633 222 115.633C222.205 115.633 222.547 115.619 222.766 115.605V117.027C222.561 117.068 222.219 117.096 221.781 117.096C220.469 117.096 219.457 116.453 219.471 115.059V110.916H218.404V109.576H219.471V107.799H221.207V109.576H222.67ZM224.01 117V109.576H225.76V117H224.01ZM224.898 108.523C224.352 108.523 223.887 108.1 223.887 107.566C223.887 107.047 224.352 106.623 224.898 106.623C225.459 106.623 225.91 107.047 225.91 107.566C225.91 108.1 225.459 108.523 224.898 108.523ZM230.668 117.15C228.508 117.15 227.113 115.619 227.113 113.322C227.113 111.012 228.508 109.48 230.668 109.48C232.842 109.48 234.223 111.012 234.223 113.322C234.223 115.619 232.842 117.15 230.668 117.15ZM230.682 115.756C231.871 115.756 232.459 114.676 232.459 113.309C232.459 111.955 231.871 110.861 230.682 110.861C229.465 110.861 228.877 111.955 228.877 113.309C228.877 114.676 229.465 115.756 230.682 115.756ZM237.326 112.652V117H235.576V109.576H237.244V110.834H237.34C237.682 110 238.434 109.48 239.541 109.48C241.086 109.48 242.098 110.492 242.084 112.27V117H240.348V112.543C240.348 111.545 239.814 110.957 238.898 110.957C237.969 110.957 237.326 111.572 237.326 112.652Z" fill="var(--sol-element-primary)"/>
<g clip-path="url(#clip7_1671_179005)">
<path d="M176.664 139.334C176.664 138.229 177.559 137.334 178.664 137.334H187.997C189.102 137.334 189.997 138.229 189.997 139.334V148.667C189.997 149.772 189.102 150.667 187.997 150.667H178.664C177.559 150.667 176.664 149.772 176.664 148.667V139.334Z" fill="var(--sol-fill-active)"/>
<path d="M188.378 141.269L182.213 147.434C181.968 147.678 181.573 147.679 181.329 147.434L178.285 144.391L179.169 143.507L181.77 146.109L187.495 140.385L188.378 141.269Z" fill="var(--sol-surface)"/>
</g>
<path d="M208.793 144.051C208.793 147.182 206.947 149.137 204.418 149.137C201.875 149.137 200.043 147.182 200.043 144.051C200.043 140.92 201.875 138.965 204.418 138.965C206.947 138.965 208.793 140.92 208.793 144.051ZM207.604 144.051C207.604 141.494 206.209 140.113 204.418 140.113C202.627 140.113 201.232 141.494 201.232 144.051C201.232 146.607 202.627 147.988 204.418 147.988C206.209 147.988 207.604 146.607 207.604 144.051ZM210.447 151.789V141.576H211.582V142.752H211.719C211.965 142.355 212.43 141.48 213.865 141.48C215.725 141.48 217.023 142.957 217.023 145.309C217.023 147.66 215.725 149.15 213.879 149.15C212.457 149.15 211.965 148.275 211.719 147.865H211.623V151.789H210.447ZM211.596 145.281C211.596 146.949 212.348 148.098 213.715 148.098C215.123 148.098 215.848 146.867 215.848 145.281C215.848 143.736 215.137 142.533 213.715 142.533C212.32 142.533 211.596 143.641 211.596 145.281ZM221.795 141.576V142.561H220.236V146.867C220.236 147.824 220.701 147.975 221.207 147.975C221.426 147.975 221.727 147.961 221.904 147.947V149.041C221.727 149.068 221.426 149.096 221.084 149.096C220.1 149.096 219.047 148.48 219.047 147.168V142.561H217.926V141.576H219.047V139.799H220.236V141.576H221.795ZM223.312 149V141.576H224.488V149H223.312ZM223.9 140.346C223.449 140.346 223.08 140.004 223.08 139.566C223.08 139.129 223.449 138.787 223.9 138.787C224.352 138.787 224.734 139.129 224.734 139.566C224.734 140.004 224.352 140.346 223.9 140.346ZM229.396 149.15C227.373 149.15 226.006 147.633 226.006 145.322C226.006 143.012 227.373 141.48 229.396 141.48C231.406 141.48 232.76 143.012 232.76 145.322C232.76 147.633 231.406 149.15 229.396 149.15ZM229.396 148.111C230.887 148.111 231.584 146.799 231.584 145.322C231.584 143.846 230.887 142.52 229.396 142.52C227.879 142.52 227.182 143.846 227.182 145.322C227.182 146.799 227.879 148.111 229.396 148.111ZM235.48 144.543V149H234.305V141.576H235.439V142.738H235.535C235.891 141.986 236.574 141.48 237.709 141.48C239.213 141.48 240.211 142.396 240.211 144.283V149H239.035V144.365C239.035 143.217 238.406 142.533 237.354 142.533C236.273 142.533 235.48 143.258 235.48 144.543Z" fill="var(--sol-element-primary)"/>
</g>
<g clip-path="url(#clip8_1671_179005)">
<g clip-path="url(#clip9_1671_179005)">
<path d="M288 75.334C288 74.2294 288.895 73.334 290 73.334H299.333C300.438 73.334 301.333 74.2294 301.333 75.334V84.6673C301.333 85.7719 300.438 86.6673 299.333 86.6673H290C288.895 86.6673 288 85.7719 288 84.6673V75.334Z" fill="var(--sol-fill-active)"/>
<path d="M299.714 77.2686L293.549 83.4345C293.304 83.6785 292.909 83.6785 292.665 83.4345L289.621 80.3908L290.505 79.5071L293.106 82.1085L298.831 76.3848L299.714 77.2686Z" fill="var(--sol-surface)"/>
</g>
<path d="M320.416 80.0508C320.416 83.25 318.475 85.1367 315.877 85.1367C313.279 85.1367 311.338 83.2363 311.338 80.0508C311.338 76.8516 313.279 74.9648 315.877 74.9648C318.475 74.9648 320.416 76.8516 320.416 80.0508ZM318.625 80.0508C318.625 77.7949 317.49 76.5645 315.877 76.5645C314.264 76.5645 313.129 77.7949 313.129 80.0508C313.129 82.3066 314.264 83.5371 315.877 83.5371C317.49 83.5371 318.625 82.3066 318.625 80.0508ZM321.92 87.7891V77.5762H323.629V78.793H323.738C324.012 78.2598 324.559 77.4805 325.871 77.4805C327.58 77.4805 328.934 78.8203 328.934 81.2949C328.934 83.7422 327.621 85.1367 325.871 85.1367C324.586 85.1367 324.012 84.3711 323.738 83.8242H323.67V87.7891H321.92ZM323.629 81.2812C323.629 82.7305 324.258 83.7012 325.393 83.7012C326.541 83.7012 327.156 82.6895 327.156 81.2812C327.156 79.9004 326.555 78.9023 325.393 78.9023C324.258 78.9023 323.629 79.8457 323.629 81.2812ZM334.006 77.5762V78.916H332.543V82.7715C332.543 83.4824 332.898 83.6328 333.336 83.6328C333.541 83.6328 333.883 83.6191 334.102 83.6055V85.0273C333.896 85.0684 333.555 85.0957 333.117 85.0957C331.805 85.0957 330.793 84.4531 330.807 83.0586V78.916H329.74V77.5762H330.807V75.7988H332.543V77.5762H334.006ZM335.346 85V77.5762H337.096V85H335.346ZM336.234 76.5234C335.688 76.5234 335.223 76.0996 335.223 75.5664C335.223 75.0469 335.688 74.623 336.234 74.623C336.795 74.623 337.246 75.0469 337.246 75.5664C337.246 76.0996 336.795 76.5234 336.234 76.5234ZM342.004 85.1504C339.844 85.1504 338.449 83.6191 338.449 81.3223C338.449 79.0117 339.844 77.4805 342.004 77.4805C344.178 77.4805 345.559 79.0117 345.559 81.3223C345.559 83.6191 344.178 85.1504 342.004 85.1504ZM342.018 83.7559C343.207 83.7559 343.795 82.6758 343.795 81.3086C343.795 79.9551 343.207 78.8613 342.018 78.8613C340.801 78.8613 340.213 79.9551 340.213 81.3086C340.213 82.6758 340.801 83.7559 342.018 83.7559ZM348.662 80.6523V85H346.912V77.5762H348.58V78.834H348.676C349.018 78 349.77 77.4805 350.877 77.4805C352.422 77.4805 353.434 78.4922 353.42 80.2695V85H351.684V80.543C351.684 79.5449 351.15 78.957 350.234 78.957C349.305 78.957 348.662 79.5723 348.662 80.6523Z" fill="var(--sol-element-primary)"/>
</g>
<path d="M62.916 211V201.102H69.2598V202.592H64.6934V205.299H68.8223V206.789H64.6934V211H62.916ZM73.4434 211.15C71.2012 211.15 69.834 209.66 69.834 207.336C69.834 205.039 71.2285 203.48 73.3477 203.48C75.166 203.48 76.7383 204.615 76.7383 207.227V207.773H71.5566C71.5771 209.038 72.3223 209.783 73.457 209.783C74.2227 209.783 74.7422 209.455 74.9609 209.018H76.6699C76.3555 210.303 75.166 211.15 73.4434 211.15ZM71.5703 206.584H75.0703C75.0566 205.572 74.3867 204.834 73.375 204.834C72.3223 204.834 71.625 205.634 71.5703 206.584ZM77.75 208.908C77.75 207.24 79.1309 206.748 80.5117 206.666C81.0244 206.632 82.0908 206.57 82.4121 206.557V205.969C82.4121 205.23 81.9336 204.807 81.0723 204.807C80.293 204.807 79.8145 205.162 79.6777 205.695H77.9961C78.1191 204.438 79.2539 203.48 81.1133 203.48C82.5215 203.48 84.1484 204.055 84.1484 206.037V211H82.4805V209.975H82.4258C82.0977 210.604 81.4004 211.15 80.2383 211.15C78.8164 211.15 77.75 210.371 77.75 208.908ZM79.4316 208.895C79.4316 209.537 79.9512 209.865 80.6895 209.865C81.7422 209.865 82.4258 209.168 82.4258 208.334V207.719L80.7852 207.828C79.9512 207.896 79.4316 208.238 79.4316 208.895ZM89.4941 203.576V204.916H88.0312V208.771C88.0312 209.482 88.3867 209.633 88.8242 209.633C89.0293 209.633 89.3711 209.619 89.5898 209.605V211.027C89.3848 211.068 89.043 211.096 88.6055 211.096C87.293 211.096 86.2812 210.453 86.2949 209.059V204.916H85.2285V203.576H86.2949V201.799H88.0312V203.576H89.4941ZM95.5781 207.883V203.576H97.3145V211H95.6328V209.688H95.5508C95.209 210.508 94.4297 211.096 93.3223 211.096C91.8594 211.096 90.8477 210.084 90.834 208.307V203.576H92.584V208.033C92.584 208.977 93.1445 209.578 93.9922 209.578C94.7578 209.578 95.5781 209.018 95.5781 207.883ZM98.9824 211V203.576H100.678V204.807H100.76C101.02 203.959 101.744 203.467 102.592 203.467C102.783 203.467 103.057 203.48 103.221 203.508V205.121C103.07 205.066 102.701 205.012 102.414 205.012C101.443 205.012 100.732 205.682 100.732 206.625V211H98.9824ZM107.322 211.15C105.08 211.15 103.713 209.66 103.713 207.336C103.713 205.039 105.107 203.48 107.227 203.48C109.045 203.48 110.617 204.615 110.617 207.227V207.773H105.436C105.456 209.038 106.201 209.783 107.336 209.783C108.102 209.783 108.621 209.455 108.84 209.018H110.549C110.234 210.303 109.045 211.15 107.322 211.15ZM105.449 206.584H108.949C108.936 205.572 108.266 204.834 107.254 204.834C106.201 204.834 105.504 205.634 105.449 206.584ZM116.182 205.695C116.072 205.135 115.607 204.779 114.869 204.779C114.117 204.779 113.57 205.148 113.584 205.654C113.57 206.037 113.885 206.324 114.637 206.502L115.895 206.762C117.303 207.076 117.973 207.719 117.986 208.785C117.973 210.18 116.756 211.15 114.814 211.15C112.928 211.15 111.807 210.303 111.629 208.881H113.406C113.516 209.51 114.008 209.824 114.814 209.824C115.648 209.824 116.209 209.482 116.209 208.936C116.209 208.512 115.867 208.238 115.129 208.074L113.939 207.814C112.559 207.541 111.848 206.816 111.848 205.75C111.848 204.383 113.023 203.48 114.842 203.48C116.619 203.48 117.713 204.342 117.836 205.695H116.182Z" fill="var(--sol-element-tertiary)"/>
<g clip-path="url(#clip10_1671_179005)">
<path d="M71.748 240.051C71.748 243.25 69.8066 245.137 67.209 245.137C64.6113 245.137 62.6699 243.236 62.6699 240.051C62.6699 236.852 64.6113 234.965 67.209 234.965C69.8066 234.965 71.748 236.852 71.748 240.051ZM69.957 240.051C69.957 237.795 68.8223 236.564 67.209 236.564C65.5957 236.564 64.4609 237.795 64.4609 240.051C64.4609 242.307 65.5957 243.537 67.209 243.537C68.8223 243.537 69.957 242.307 69.957 240.051ZM73.252 247.789V237.576H74.9609V238.793H75.0703C75.3438 238.26 75.8906 237.48 77.2031 237.48C78.9121 237.48 80.2656 238.82 80.2656 241.295C80.2656 243.742 78.9531 245.137 77.2031 245.137C75.918 245.137 75.3438 244.371 75.0703 243.824H75.002V247.789H73.252ZM74.9609 241.281C74.9609 242.73 75.5898 243.701 76.7246 243.701C77.873 243.701 78.4883 242.689 78.4883 241.281C78.4883 239.9 77.8867 238.902 76.7246 238.902C75.5898 238.902 74.9609 239.846 74.9609 241.281ZM85.3379 237.576V238.916H83.875V242.771C83.875 243.482 84.2305 243.633 84.668 243.633C84.873 243.633 85.2148 243.619 85.4336 243.605V245.027C85.2285 245.068 84.8867 245.096 84.4492 245.096C83.1367 245.096 82.125 244.453 82.1387 243.059V238.916H81.0723V237.576H82.1387V235.799H83.875V237.576H85.3379ZM86.6777 245V237.576H88.4277V245H86.6777ZM87.5664 236.523C87.0195 236.523 86.5547 236.1 86.5547 235.566C86.5547 235.047 87.0195 234.623 87.5664 234.623C88.127 234.623 88.5781 235.047 88.5781 235.566C88.5781 236.1 88.127 236.523 87.5664 236.523ZM93.3359 245.15C91.1758 245.15 89.7812 243.619 89.7812 241.322C89.7812 239.012 91.1758 237.48 93.3359 237.48C95.5098 237.48 96.8906 239.012 96.8906 241.322C96.8906 243.619 95.5098 245.15 93.3359 245.15ZM93.3496 243.756C94.5391 243.756 95.127 242.676 95.127 241.309C95.127 239.955 94.5391 238.861 93.3496 238.861C92.1328 238.861 91.5449 239.955 91.5449 241.309C91.5449 242.676 92.1328 243.756 93.3496 243.756ZM99.9941 240.652V245H98.2441V237.576H99.9121V238.834H100.008C100.35 238 101.102 237.48 102.209 237.48C103.754 237.48 104.766 238.492 104.752 240.27V245H103.016V240.543C103.016 239.545 102.482 238.957 101.566 238.957C100.637 238.957 99.9941 239.572 99.9941 240.652Z" fill="var(--sol-element-primary)"/>
<g clip-path="url(#clip11_1671_179005)">
<rect x="350" y="230" width="30" height="20" rx="10" fill="var(--sol-fill-active)"/>
<circle cx="370" cy="240" r="7" fill="var(--sol-surface)"/>
</g>
<path d="M71.748 272.051C71.748 275.25 69.8066 277.137 67.209 277.137C64.6113 277.137 62.6699 275.236 62.6699 272.051C62.6699 268.852 64.6113 266.965 67.209 266.965C69.8066 266.965 71.748 268.852 71.748 272.051ZM69.957 272.051C69.957 269.795 68.8223 268.564 67.209 268.564C65.5957 268.564 64.4609 269.795 64.4609 272.051C64.4609 274.307 65.5957 275.537 67.209 275.537C68.8223 275.537 69.957 274.307 69.957 272.051ZM73.252 279.789V269.576H74.9609V270.793H75.0703C75.3438 270.26 75.8906 269.48 77.2031 269.48C78.9121 269.48 80.2656 270.82 80.2656 273.295C80.2656 275.742 78.9531 277.137 77.2031 277.137C75.918 277.137 75.3438 276.371 75.0703 275.824H75.002V279.789H73.252ZM74.9609 273.281C74.9609 274.73 75.5898 275.701 76.7246 275.701C77.873 275.701 78.4883 274.689 78.4883 273.281C78.4883 271.9 77.8867 270.902 76.7246 270.902C75.5898 270.902 74.9609 271.846 74.9609 273.281ZM85.3379 269.576V270.916H83.875V274.771C83.875 275.482 84.2305 275.633 84.668 275.633C84.873 275.633 85.2148 275.619 85.4336 275.605V277.027C85.2285 277.068 84.8867 277.096 84.4492 277.096C83.1367 277.096 82.125 276.453 82.1387 275.059V270.916H81.0723V269.576H82.1387V267.799H83.875V269.576H85.3379ZM86.6777 277V269.576H88.4277V277H86.6777ZM87.5664 268.523C87.0195 268.523 86.5547 268.1 86.5547 267.566C86.5547 267.047 87.0195 266.623 87.5664 266.623C88.127 266.623 88.5781 267.047 88.5781 267.566C88.5781 268.1 88.127 268.523 87.5664 268.523ZM93.3359 277.15C91.1758 277.15 89.7812 275.619 89.7812 273.322C89.7812 271.012 91.1758 269.48 93.3359 269.48C95.5098 269.48 96.8906 271.012 96.8906 273.322C96.8906 275.619 95.5098 277.15 93.3359 277.15ZM93.3496 275.756C94.5391 275.756 95.127 274.676 95.127 273.309C95.127 271.955 94.5391 270.861 93.3496 270.861C92.1328 270.861 91.5449 271.955 91.5449 273.309C91.5449 274.676 92.1328 275.756 93.3496 275.756ZM99.9941 272.652V277H98.2441V269.576H99.9121V270.834H100.008C100.35 270 101.102 269.48 102.209 269.48C103.754 269.48 104.766 270.492 104.752 272.27V277H103.016V272.543C103.016 271.545 102.482 270.957 101.566 270.957C100.637 270.957 99.9941 271.572 99.9941 272.652Z" fill="var(--sol-element-primary)"/>
<path d="M65.5742 295H62.9375V286.516H65.6797C68.1523 286.516 69.6172 288.109 69.6172 290.746C69.6172 293.395 68.1523 295 65.5742 295ZM63.9922 294.062H65.5039C67.5898 294.062 68.5859 292.809 68.5859 290.746C68.5859 288.695 67.5898 287.453 65.6094 287.453H63.9922V294.062ZM73.707 295.129C71.8672 295.129 70.7305 293.828 70.7305 291.871C70.7305 289.914 71.8789 288.555 73.6133 288.555C74.9492 288.555 76.3555 289.375 76.3555 291.73V292.152H71.7383C71.7852 293.5 72.5703 294.238 73.707 294.238C74.4688 294.238 74.9492 293.91 75.1836 293.512H76.2617C75.957 294.473 75.0195 295.129 73.707 295.129ZM71.75 291.297H75.3359C75.3359 290.23 74.6562 289.445 73.6133 289.445C72.5117 289.445 71.8086 290.312 71.75 291.297ZM81.207 290.289C81.0664 289.762 80.668 289.41 79.918 289.41C79.1328 289.41 78.5703 289.832 78.5703 290.371C78.5703 290.793 78.9102 291.086 79.6602 291.262L80.6094 291.496C81.7461 291.766 82.3086 292.328 82.3086 293.219C82.3086 294.32 81.4062 295.129 79.8125 295.129C78.3828 295.129 77.5273 294.496 77.3633 293.336H78.418C78.5352 293.957 78.9922 294.25 79.7891 294.25C80.6914 294.25 81.2656 293.875 81.2656 293.277C81.2656 292.832 80.9492 292.527 80.2227 292.363L79.2617 292.141C78.1484 291.883 77.5625 291.273 77.5625 290.43C77.5625 289.34 78.5117 288.555 79.918 288.555C81.2305 288.555 82.0625 289.258 82.1914 290.289H81.207ZM86.2227 295.129C84.418 295.129 83.3164 293.758 83.3164 291.848C83.3164 289.914 84.4648 288.555 86.1992 288.555C87.5586 288.555 88.5664 289.352 88.7305 290.559H87.7227C87.582 289.973 87.0664 289.445 86.2227 289.445C85.0859 289.445 84.3242 290.383 84.3242 291.812C84.3242 293.289 85.0625 294.227 86.2227 294.227C86.9727 294.227 87.5469 293.828 87.7227 293.125H88.7305C88.5664 294.262 87.6406 295.129 86.2227 295.129ZM89.9727 295V288.637H90.9453V289.609H91.0156C91.25 288.965 91.9062 288.531 92.6562 288.531C92.8086 288.531 93.0664 288.543 93.1836 288.555V289.574C93.1133 289.551 92.832 289.504 92.5742 289.504C91.6602 289.504 90.9805 290.137 90.9805 290.992V295H89.9727ZM94.168 295V288.637H95.1758V295H94.168ZM94.6719 287.582C94.2852 287.582 93.9688 287.289 93.9688 286.914C93.9688 286.539 94.2852 286.246 94.6719 286.246C95.0586 286.246 95.3867 286.539 95.3867 286.914C95.3867 287.289 95.0586 287.582 94.6719 287.582ZM96.7812 297.391V288.637H97.7539V289.645H97.8711C98.082 289.305 98.4805 288.555 99.7109 288.555C101.305 288.555 102.418 289.82 102.418 291.836C102.418 293.852 101.305 295.129 99.7227 295.129C98.5039 295.129 98.082 294.379 97.8711 294.027H97.7891V297.391H96.7812ZM97.7656 291.812C97.7656 293.242 98.4102 294.227 99.582 294.227C100.789 294.227 101.41 293.172 101.41 291.812C101.41 290.488 100.801 289.457 99.582 289.457C98.3867 289.457 97.7656 290.406 97.7656 291.812ZM106.508 288.637V289.48H105.172V293.172C105.172 293.992 105.57 294.121 106.004 294.121C106.191 294.121 106.449 294.109 106.602 294.098V295.035C106.449 295.059 106.191 295.082 105.898 295.082C105.055 295.082 104.152 294.555 104.152 293.43V289.48H103.191V288.637H104.152V287.113H105.172V288.637H106.508ZM107.809 295V288.637H108.816V295H107.809ZM108.312 287.582C107.926 287.582 107.609 287.289 107.609 286.914C107.609 286.539 107.926 286.246 108.312 286.246C108.699 286.246 109.027 286.539 109.027 286.914C109.027 287.289 108.699 287.582 108.312 287.582ZM113.023 295.129C111.289 295.129 110.117 293.828 110.117 291.848C110.117 289.867 111.289 288.555 113.023 288.555C114.746 288.555 115.906 289.867 115.906 291.848C115.906 293.828 114.746 295.129 113.023 295.129ZM113.023 294.238C114.301 294.238 114.898 293.113 114.898 291.848C114.898 290.582 114.301 289.445 113.023 289.445C111.723 289.445 111.125 290.582 111.125 291.848C111.125 293.113 111.723 294.238 113.023 294.238ZM118.238 291.18V295H117.23V288.637H118.203V289.633H118.285C118.59 288.988 119.176 288.555 120.148 288.555C121.438 288.555 122.293 289.34 122.293 290.957V295H121.285V291.027C121.285 290.043 120.746 289.457 119.844 289.457C118.918 289.457 118.238 290.078 118.238 291.18Z" fill="var(--sol-element-tertiary)"/>
<g clip-path="url(#clip12_1671_179005)">
<rect x="350" y="270" width="30" height="20" rx="10" fill="var(--sol-fill-active)"/>
<circle cx="370" cy="280" r="7" fill="var(--sol-surface)"/>
</g>
<path d="M71.748 320.051C71.748 323.25 69.8066 325.137 67.209 325.137C64.6113 325.137 62.6699 323.236 62.6699 320.051C62.6699 316.852 64.6113 314.965 67.209 314.965C69.8066 314.965 71.748 316.852 71.748 320.051ZM69.957 320.051C69.957 317.795 68.8223 316.564 67.209 316.564C65.5957 316.564 64.4609 317.795 64.4609 320.051C64.4609 322.307 65.5957 323.537 67.209 323.537C68.8223 323.537 69.957 322.307 69.957 320.051ZM73.252 327.789V317.576H74.9609V318.793H75.0703C75.3438 318.26 75.8906 317.48 77.2031 317.48C78.9121 317.48 80.2656 318.82 80.2656 321.295C80.2656 323.742 78.9531 325.137 77.2031 325.137C75.918 325.137 75.3438 324.371 75.0703 323.824H75.002V327.789H73.252ZM74.9609 321.281C74.9609 322.73 75.5898 323.701 76.7246 323.701C77.873 323.701 78.4883 322.689 78.4883 321.281C78.4883 319.9 77.8867 318.902 76.7246 318.902C75.5898 318.902 74.9609 319.846 74.9609 321.281ZM85.3379 317.576V318.916H83.875V322.771C83.875 323.482 84.2305 323.633 84.668 323.633C84.873 323.633 85.2148 323.619 85.4336 323.605V325.027C85.2285 325.068 84.8867 325.096 84.4492 325.096C83.1367 325.096 82.125 324.453 82.1387 323.059V318.916H81.0723V317.576H82.1387V315.799H83.875V317.576H85.3379ZM86.6777 325V317.576H88.4277V325H86.6777ZM87.5664 316.523C87.0195 316.523 86.5547 316.1 86.5547 315.566C86.5547 315.047 87.0195 314.623 87.5664 314.623C88.127 314.623 88.5781 315.047 88.5781 315.566C88.5781 316.1 88.127 316.523 87.5664 316.523ZM93.3359 325.15C91.1758 325.15 89.7812 323.619 89.7812 321.322C89.7812 319.012 91.1758 317.48 93.3359 317.48C95.5098 317.48 96.8906 319.012 96.8906 321.322C96.8906 323.619 95.5098 325.15 93.3359 325.15ZM93.3496 323.756C94.5391 323.756 95.127 322.676 95.127 321.309C95.127 319.955 94.5391 318.861 93.3496 318.861C92.1328 318.861 91.5449 319.955 91.5449 321.309C91.5449 322.676 92.1328 323.756 93.3496 323.756ZM99.9941 320.652V325H98.2441V317.576H99.9121V318.834H100.008C100.35 318 101.102 317.48 102.209 317.48C103.754 317.48 104.766 318.492 104.752 320.27V325H103.016V320.543C103.016 319.545 102.482 318.957 101.566 318.957C100.637 318.957 99.9941 319.572 99.9941 320.652Z" fill="var(--sol-element-primary)"/>
<g clip-path="url(#clip13_1671_179005)">
<rect x="350" y="310" width="30" height="20" rx="10" fill="var(--sol-fill-active)"/>
<circle cx="370" cy="320" r="7" fill="var(--sol-surface)"/>
</g>
</g>
<defs>
<clipPath id="clip0_1671_179005">
<rect width="95.3333" height="96" fill="var(--sol-surface)" transform="translate(62 64)"/>
</clipPath>
<clipPath id="clip1_1671_179005">
<path d="M65.332 75.334C65.332 74.2294 66.2275 73.334 67.332 73.334H76.6654C77.7699 73.334 78.6654 74.2294 78.6654 75.334V84.6673C78.6654 85.7719 77.7699 86.6673 76.6654 86.6673H67.332C66.2275 86.6673 65.332 85.7719 65.332 84.6673V75.334Z" fill="var(--sol-surface)"/>
</clipPath>
<clipPath id="clip2_1671_179005">
<path d="M65.332 107.334C65.332 106.229 66.2275 105.334 67.332 105.334H76.6654C77.7699 105.334 78.6654 106.229 78.6654 107.334V116.667C78.6654 117.772 77.7699 118.667 76.6654 118.667H67.332C66.2275 118.667 65.332 117.772 65.332 116.667V107.334Z" fill="var(--sol-surface)"/>
</clipPath>
<clipPath id="clip3_1671_179005">
<path d="M65.332 139.334C65.332 138.229 66.2275 137.334 67.332 137.334H76.6654C77.7699 137.334 78.6654 138.229 78.6654 139.334V148.667C78.6654 149.772 77.7699 150.667 76.6654 150.667H67.332C66.2275 150.667 65.332 149.772 65.332 148.667V139.334Z" fill="var(--sol-surface)"/>
</clipPath>
<clipPath id="clip4_1671_179005">
<rect width="95.3333" height="96" fill="var(--sol-surface)" transform="translate(173.332 64)"/>
</clipPath>
<clipPath id="clip5_1671_179005">
<path d="M176.664 75.334C176.664 74.2294 177.559 73.334 178.664 73.334H187.997C189.102 73.334 189.997 74.2294 189.997 75.334V84.6673C189.997 85.7719 189.102 86.6673 187.997 86.6673H178.664C177.559 86.6673 176.664 85.7719 176.664 84.6673V75.334Z" fill="var(--sol-surface)"/>
</clipPath>
<clipPath id="clip6_1671_179005">
<path d="M176.664 107.334C176.664 106.229 177.559 105.334 178.664 105.334H187.997C189.102 105.334 189.997 106.229 189.997 107.334V116.667C189.997 117.772 189.102 118.667 187.997 118.667H178.664C177.559 118.667 176.664 117.772 176.664 116.667V107.334Z" fill="var(--sol-surface)"/>
</clipPath>
<clipPath id="clip7_1671_179005">
<path d="M176.664 139.334C176.664 138.229 177.559 137.334 178.664 137.334H187.997C189.102 137.334 189.997 138.229 189.997 139.334V148.667C189.997 149.772 189.102 150.667 187.997 150.667H178.664C177.559 150.667 176.664 149.772 176.664 148.667V139.334Z" fill="var(--sol-surface)"/>
</clipPath>
<clipPath id="clip8_1671_179005">
<rect width="95.3333" height="32" fill="var(--sol-surface)" transform="translate(284.668 64)"/>
</clipPath>
<clipPath id="clip9_1671_179005">
<path d="M288 75.334C288 74.2294 288.895 73.334 290 73.334H299.333C300.438 73.334 301.333 74.2294 301.333 75.334V84.6673C301.333 85.7719 300.438 86.6673 299.333 86.6673H290C288.895 86.6673 288 85.7719 288 84.6673V75.334Z" fill="var(--sol-surface)"/>
</clipPath>
<clipPath id="clip10_1671_179005">
<rect width="318" height="112" fill="var(--sol-surface)" transform="translate(62 224)"/>
</clipPath>
<clipPath id="clip11_1671_179005">
<rect x="350" y="230" width="30" height="20" rx="10" fill="var(--sol-surface)"/>
</clipPath>
<clipPath id="clip12_1671_179005">
<rect x="350" y="270" width="30" height="20" rx="10" fill="var(--sol-surface)"/>
</clipPath>
<clipPath id="clip13_1671_179005">
<rect x="350" y="310" width="30" height="20" rx="10" fill="var(--sol-surface)"/>
</clipPath>
</defs>
</svg>
