<svg width="442" height="228" viewBox="0 0 442 228" fill="none" xmlns="http://www.w3.org/2000/svg">
<style>
:root {
  --sol-element-primary: #161616;
  --sol-element-tertiary: #636363;
  --sol-fill-active: #4d469a;
  --sol-surface: #ffffff;
  --sol-error: #e76067;
}
@media (prefers-color-scheme: dark) {
  :root {
    --sol-element-primary: #ffffff;
    --sol-element-tertiary: rgba(255, 255, 255, 0.6);
    --sol-fill-active: #7b74c4;
    --sol-surface: #161616;
    --sol-error: #ee7a80;
  }
}
</style>
<g clip-path="url(#clip0_1671_178915)">
<g filter="url(#filter0_dd_1671_178915)">
<rect width="370" height="228" transform="translate(36)" fill="var(--sol-surface)"/>
<g clip-path="url(#clip1_1671_178915)">
<path d="M79.8477 34.1914C79.4238 32.9199 78.4531 32.1133 77.0449 32.1133C75.2949 32.1133 73.9004 33.4941 73.9004 36.0508C73.9004 38.6074 75.2949 39.9883 77.127 39.9883C78.8018 39.9883 79.9434 38.8672 79.9707 37.1172H77.3867V36.0371H81.1738V37.1035C81.1738 39.5645 79.4785 41.1367 77.127 41.1367C74.4883 41.1367 72.7109 39.1816 72.7109 36.0508C72.7109 32.9199 74.502 30.9648 77.0449 30.9648C79.1367 30.9648 80.75 32.2773 81.1191 34.1914H79.8477ZM82.5137 38.8945C82.5137 37.1855 84.0176 36.8027 85.3027 36.707C85.7744 36.6729 86.9775 36.6113 87.3125 36.5977V35.9961C87.3125 35.0527 86.752 34.5059 85.6309 34.5059C84.6875 34.5059 84.127 34.9434 83.9629 35.5039H82.7324C82.8828 34.3145 84.0449 33.4805 85.6855 33.4805C86.6562 33.4805 88.4746 33.7676 88.4746 36.1055V41H87.3125V39.9883H87.2578C87.0117 40.4941 86.3281 41.1777 85.043 41.1777C83.6348 41.1777 82.5137 40.3438 82.5137 38.8945ZM83.6895 38.9492C83.6895 39.7285 84.3457 40.125 85.248 40.125C86.5742 40.125 87.3125 39.2363 87.3125 38.3066V37.5547L85.4395 37.6914C84.373 37.7598 83.6895 38.1426 83.6895 38.9492ZM93.6016 33.5762V34.5605H92.043V38.8672C92.043 39.8242 92.5078 39.9746 93.0137 39.9746C93.2324 39.9746 93.5332 39.9609 93.7109 39.9473V41.041C93.5332 41.0684 93.2324 41.0957 92.8906 41.0957C91.9062 41.0957 90.8535 40.4805 90.8535 39.168V34.5605H89.7324V33.5762H90.8535V31.7988H92.043V33.5762H93.6016ZM98.168 41.1504C96.0215 41.1504 94.6953 39.6328 94.6953 37.3496C94.6953 35.0664 96.0352 33.4805 98.0586 33.4805C99.6172 33.4805 101.258 34.4375 101.258 37.1855V37.6777H95.8711C95.9258 39.25 96.8418 40.1113 98.168 40.1113C99.0566 40.1113 99.6172 39.7285 99.8906 39.2637H101.148C100.793 40.3848 99.6992 41.1504 98.168 41.1504ZM95.8848 36.6797H100.068C100.068 35.4355 99.2754 34.5195 98.0586 34.5195C96.7734 34.5195 95.9531 35.5312 95.8848 36.6797ZM104.457 41L102.201 33.5762H103.445L105.031 39.2363H105.1L106.672 33.5762H107.93L109.475 39.209H109.557L111.143 33.5762H112.373L110.117 41H108.955L107.342 35.3398H107.232L105.633 41H104.457ZM113.316 38.8945C113.316 37.1855 114.82 36.8027 116.105 36.707C116.577 36.6729 117.78 36.6113 118.115 36.5977V35.9961C118.115 35.0527 117.555 34.5059 116.434 34.5059C115.49 34.5059 114.93 34.9434 114.766 35.5039H113.535C113.686 34.3145 114.848 33.4805 116.488 33.4805C117.459 33.4805 119.277 33.7676 119.277 36.1055V41H118.115V39.9883H118.061C117.814 40.4941 117.131 41.1777 115.846 41.1777C114.438 41.1777 113.316 40.3438 113.316 38.8945ZM114.492 38.9492C114.492 39.7285 115.148 40.125 116.051 40.125C117.377 40.125 118.115 39.2363 118.115 38.3066V37.5547L116.242 37.6914C115.176 37.7598 114.492 38.1426 114.492 38.9492ZM121.643 43.7891C121.383 43.7891 121.137 43.7754 120.986 43.7617V42.709C121.109 42.7227 121.383 42.7363 121.561 42.7363C122.039 42.7363 122.436 42.6953 122.832 41.6152L123.051 41.0547L120.303 33.5762H121.588L123.611 39.4688H123.693L125.717 33.5762H127.002L123.857 42.0664C123.42 43.2285 122.695 43.7891 121.643 43.7891Z" fill="var(--sol-element-primary)"/>
<g clip-path="url(#clip2_1671_178915)">
<rect x="340" y="26" width="30" height="20" rx="10" fill="var(--sol-fill-active)"/>
<circle cx="360" cy="36" r="7" fill="var(--sol-surface)"/>
</g>
<path d="M73.0938 81V71.1016H76.5664C78.6445 71.1016 79.6152 72.2637 79.6152 73.7266C79.6152 74.998 78.8633 75.5723 78.002 75.8047V75.9004C78.918 75.9551 80.0117 76.8027 80.0117 78.375C80.0117 79.8652 79.0273 81 76.6895 81H73.0938ZM76.6758 79.9062C78.2207 79.9062 78.8223 79.2227 78.8223 78.3613C78.8223 77.3496 78.0156 76.502 76.7441 76.502H74.3242V79.9062H76.6758ZM76.5254 75.4355C77.5918 75.4355 78.4395 74.7793 78.4395 73.7402C78.4395 72.8789 77.8652 72.1953 76.5664 72.1953H74.3242V75.4355H76.5254ZM81.7617 81V71.1016H82.9922V79.9062H87.5859V81H81.7617ZM89.2266 81V71.1016H95.2285V72.1953H90.457V75.5039H94.9141V76.584H90.457V79.9062H95.2969V81H89.2266Z" fill="var(--sol-element-primary)"/>
<g clip-path="url(#clip3_1671_178915)">
<rect x="340" y="66" width="30" height="20" rx="10" fill="var(--sol-fill-active)"/>
<circle cx="360" cy="76" r="7" fill="var(--sol-surface)"/>
</g>
</g>
<g clip-path="url(#clip4_1671_178915)">
<g clip-path="url(#clip5_1671_178915)">
<path d="M75.332 128.001C75.332 124.319 78.3168 121.334 81.9987 121.334V121.334C85.6806 121.334 88.6654 124.319 88.6654 128.001V128.001C88.6654 131.683 85.6806 134.667 81.9987 134.667V134.667C78.3168 134.667 75.332 131.683 75.332 128.001V128.001Z" fill="var(--sol-fill-active)"/>
<circle cx="81.9974" cy="128.001" r="3.33333" fill="var(--sol-surface)"/>
</g>
<path d="M107.461 128.051C107.461 131.182 105.615 133.137 103.086 133.137C100.543 133.137 98.7109 131.182 98.7109 128.051C98.7109 124.92 100.543 122.965 103.086 122.965C105.615 122.965 107.461 124.92 107.461 128.051ZM106.271 128.051C106.271 125.494 104.877 124.113 103.086 124.113C101.295 124.113 99.9004 125.494 99.9004 128.051C99.9004 130.607 101.295 131.988 103.086 131.988C104.877 131.988 106.271 130.607 106.271 128.051ZM109.115 135.789V125.576H110.25V126.752H110.387C110.633 126.355 111.098 125.48 112.533 125.48C114.393 125.48 115.691 126.957 115.691 129.309C115.691 131.66 114.393 133.15 112.547 133.15C111.125 133.15 110.633 132.275 110.387 131.865H110.291V135.789H109.115ZM110.264 129.281C110.264 130.949 111.016 132.098 112.383 132.098C113.791 132.098 114.516 130.867 114.516 129.281C114.516 127.736 113.805 126.533 112.383 126.533C110.988 126.533 110.264 127.641 110.264 129.281ZM120.463 125.576V126.561H118.904V130.867C118.904 131.824 119.369 131.975 119.875 131.975C120.094 131.975 120.395 131.961 120.572 131.947V133.041C120.395 133.068 120.094 133.096 119.752 133.096C118.768 133.096 117.715 132.48 117.715 131.168V126.561H116.594V125.576H117.715V123.799H118.904V125.576H120.463ZM121.98 133V125.576H123.156V133H121.98ZM122.568 124.346C122.117 124.346 121.748 124.004 121.748 123.566C121.748 123.129 122.117 122.787 122.568 122.787C123.02 122.787 123.402 123.129 123.402 123.566C123.402 124.004 123.02 124.346 122.568 124.346ZM128.064 133.15C126.041 133.15 124.674 131.633 124.674 129.322C124.674 127.012 126.041 125.48 128.064 125.48C130.074 125.48 131.428 127.012 131.428 129.322C131.428 131.633 130.074 133.15 128.064 133.15ZM128.064 132.111C129.555 132.111 130.252 130.799 130.252 129.322C130.252 127.846 129.555 126.52 128.064 126.52C126.547 126.52 125.85 127.846 125.85 129.322C125.85 130.799 126.547 132.111 128.064 132.111ZM134.148 128.543V133H132.973V125.576H134.107V126.738H134.203C134.559 125.986 135.242 125.48 136.377 125.48C137.881 125.48 138.879 126.396 138.879 128.283V133H137.703V128.365C137.703 127.217 137.074 126.533 136.021 126.533C134.941 126.533 134.148 127.258 134.148 128.543Z" fill="var(--sol-element-primary)"/>
<path d="M75.332 160.001C75.332 156.319 78.3168 153.334 81.9987 153.334V153.334C85.6806 153.334 88.6654 156.319 88.6654 160.001V160.001C88.6654 163.683 85.6806 166.667 81.9987 166.667V166.667C78.3168 166.667 75.332 163.683 75.332 160.001V160.001Z" fill="var(--sol-surface)"/>
<path d="M81.999 153.834C85.4046 153.834 88.165 156.595 88.165 160.001C88.1649 163.406 85.4045 166.167 81.999 166.167C78.5934 166.167 75.8322 163.407 75.832 160.001C75.832 156.595 78.5933 153.834 81.999 153.834Z" stroke="var(--sol-element-primary)" stroke-opacity="0.16"/>
<path d="M107.461 160.051C107.461 163.182 105.615 165.137 103.086 165.137C100.543 165.137 98.7109 163.182 98.7109 160.051C98.7109 156.92 100.543 154.965 103.086 154.965C105.615 154.965 107.461 156.92 107.461 160.051ZM106.271 160.051C106.271 157.494 104.877 156.113 103.086 156.113C101.295 156.113 99.9004 157.494 99.9004 160.051C99.9004 162.607 101.295 163.988 103.086 163.988C104.877 163.988 106.271 162.607 106.271 160.051ZM109.115 167.789V157.576H110.25V158.752H110.387C110.633 158.355 111.098 157.48 112.533 157.48C114.393 157.48 115.691 158.957 115.691 161.309C115.691 163.66 114.393 165.15 112.547 165.15C111.125 165.15 110.633 164.275 110.387 163.865H110.291V167.789H109.115ZM110.264 161.281C110.264 162.949 111.016 164.098 112.383 164.098C113.791 164.098 114.516 162.867 114.516 161.281C114.516 159.736 113.805 158.533 112.383 158.533C110.988 158.533 110.264 159.641 110.264 161.281ZM120.463 157.576V158.561H118.904V162.867C118.904 163.824 119.369 163.975 119.875 163.975C120.094 163.975 120.395 163.961 120.572 163.947V165.041C120.395 165.068 120.094 165.096 119.752 165.096C118.768 165.096 117.715 164.48 117.715 163.168V158.561H116.594V157.576H117.715V155.799H118.904V157.576H120.463ZM121.98 165V157.576H123.156V165H121.98ZM122.568 156.346C122.117 156.346 121.748 156.004 121.748 155.566C121.748 155.129 122.117 154.787 122.568 154.787C123.02 154.787 123.402 155.129 123.402 155.566C123.402 156.004 123.02 156.346 122.568 156.346ZM128.064 165.15C126.041 165.15 124.674 163.633 124.674 161.322C124.674 159.012 126.041 157.48 128.064 157.48C130.074 157.48 131.428 159.012 131.428 161.322C131.428 163.633 130.074 165.15 128.064 165.15ZM128.064 164.111C129.555 164.111 130.252 162.799 130.252 161.322C130.252 159.846 129.555 158.52 128.064 158.52C126.547 158.52 125.85 159.846 125.85 161.322C125.85 162.799 126.547 164.111 128.064 164.111ZM134.148 160.543V165H132.973V157.576H134.107V158.738H134.203C134.559 157.986 135.242 157.48 136.377 157.48C137.881 157.48 138.879 158.396 138.879 160.283V165H137.703V160.365C137.703 159.217 137.074 158.533 136.021 158.533C134.941 158.533 134.148 159.258 134.148 160.543Z" fill="var(--sol-element-primary)"/>
<path d="M75.332 192.001C75.332 188.319 78.3168 185.334 81.9987 185.334V185.334C85.6806 185.334 88.6654 188.319 88.6654 192.001V192.001C88.6654 195.683 85.6806 198.667 81.9987 198.667V198.667C78.3168 198.667 75.332 195.683 75.332 192.001V192.001Z" fill="var(--sol-surface)"/>
<path d="M81.999 185.834C85.4046 185.834 88.165 188.595 88.165 192.001C88.1649 195.406 85.4045 198.167 81.999 198.167C78.5934 198.167 75.8322 195.407 75.832 192.001C75.832 188.595 78.5933 185.834 81.999 185.834Z" stroke="var(--sol-element-primary)" stroke-opacity="0.16"/>
<path d="M107.461 192.051C107.461 195.182 105.615 197.137 103.086 197.137C100.543 197.137 98.7109 195.182 98.7109 192.051C98.7109 188.92 100.543 186.965 103.086 186.965C105.615 186.965 107.461 188.92 107.461 192.051ZM106.271 192.051C106.271 189.494 104.877 188.113 103.086 188.113C101.295 188.113 99.9004 189.494 99.9004 192.051C99.9004 194.607 101.295 195.988 103.086 195.988C104.877 195.988 106.271 194.607 106.271 192.051ZM109.115 199.789V189.576H110.25V190.752H110.387C110.633 190.355 111.098 189.48 112.533 189.48C114.393 189.48 115.691 190.957 115.691 193.309C115.691 195.66 114.393 197.15 112.547 197.15C111.125 197.15 110.633 196.275 110.387 195.865H110.291V199.789H109.115ZM110.264 193.281C110.264 194.949 111.016 196.098 112.383 196.098C113.791 196.098 114.516 194.867 114.516 193.281C114.516 191.736 113.805 190.533 112.383 190.533C110.988 190.533 110.264 191.641 110.264 193.281ZM120.463 189.576V190.561H118.904V194.867C118.904 195.824 119.369 195.975 119.875 195.975C120.094 195.975 120.395 195.961 120.572 195.947V197.041C120.395 197.068 120.094 197.096 119.752 197.096C118.768 197.096 117.715 196.48 117.715 195.168V190.561H116.594V189.576H117.715V187.799H118.904V189.576H120.463ZM121.98 197V189.576H123.156V197H121.98ZM122.568 188.346C122.117 188.346 121.748 188.004 121.748 187.566C121.748 187.129 122.117 186.787 122.568 186.787C123.02 186.787 123.402 187.129 123.402 187.566C123.402 188.004 123.02 188.346 122.568 188.346ZM128.064 197.15C126.041 197.15 124.674 195.633 124.674 193.322C124.674 191.012 126.041 189.48 128.064 189.48C130.074 189.48 131.428 191.012 131.428 193.322C131.428 195.633 130.074 197.15 128.064 197.15ZM128.064 196.111C129.555 196.111 130.252 194.799 130.252 193.322C130.252 191.846 129.555 190.52 128.064 190.52C126.547 190.52 125.85 191.846 125.85 193.322C125.85 194.799 126.547 196.111 128.064 196.111ZM134.148 192.543V197H132.973V189.576H134.107V190.738H134.203C134.559 189.986 135.242 189.48 136.377 189.48C137.881 189.48 138.879 190.396 138.879 192.283V197H137.703V192.365C137.703 191.217 137.074 190.533 136.021 190.533C134.941 190.533 134.148 191.258 134.148 192.543Z" fill="var(--sol-element-primary)"/>
</g>
<g clip-path="url(#clip6_1671_178915)">
<g clip-path="url(#clip7_1671_178915)">
<path d="M232.332 123.334C232.332 122.229 233.227 121.334 234.332 121.334H243.665C244.77 121.334 245.665 122.229 245.665 123.334V132.667C245.665 133.772 244.77 134.667 243.665 134.667H234.332C233.227 134.667 232.332 133.772 232.332 132.667V123.334Z" fill="var(--sol-fill-active)"/>
<path d="M244.046 125.269L237.881 131.434C237.636 131.678 237.241 131.679 236.997 131.434L233.953 128.391L234.837 127.507L237.438 130.109L243.163 124.385L244.046 125.269Z" fill="var(--sol-surface)"/>
</g>
<path d="M264.461 128.051C264.461 131.182 262.615 133.137 260.086 133.137C257.543 133.137 255.711 131.182 255.711 128.051C255.711 124.92 257.543 122.965 260.086 122.965C262.615 122.965 264.461 124.92 264.461 128.051ZM263.271 128.051C263.271 125.494 261.877 124.113 260.086 124.113C258.295 124.113 256.9 125.494 256.9 128.051C256.9 130.607 258.295 131.988 260.086 131.988C261.877 131.988 263.271 130.607 263.271 128.051ZM266.115 135.789V125.576H267.25V126.752H267.387C267.633 126.355 268.098 125.48 269.533 125.48C271.393 125.48 272.691 126.957 272.691 129.309C272.691 131.66 271.393 133.15 269.547 133.15C268.125 133.15 267.633 132.275 267.387 131.865H267.291V135.789H266.115ZM267.264 129.281C267.264 130.949 268.016 132.098 269.383 132.098C270.791 132.098 271.516 130.867 271.516 129.281C271.516 127.736 270.805 126.533 269.383 126.533C267.988 126.533 267.264 127.641 267.264 129.281ZM277.463 125.576V126.561H275.904V130.867C275.904 131.824 276.369 131.975 276.875 131.975C277.094 131.975 277.395 131.961 277.572 131.947V133.041C277.395 133.068 277.094 133.096 276.752 133.096C275.768 133.096 274.715 132.48 274.715 131.168V126.561H273.594V125.576H274.715V123.799H275.904V125.576H277.463ZM278.98 133V125.576H280.156V133H278.98ZM279.568 124.346C279.117 124.346 278.748 124.004 278.748 123.566C278.748 123.129 279.117 122.787 279.568 122.787C280.02 122.787 280.402 123.129 280.402 123.566C280.402 124.004 280.02 124.346 279.568 124.346ZM285.064 133.15C283.041 133.15 281.674 131.633 281.674 129.322C281.674 127.012 283.041 125.48 285.064 125.48C287.074 125.48 288.428 127.012 288.428 129.322C288.428 131.633 287.074 133.15 285.064 133.15ZM285.064 132.111C286.555 132.111 287.252 130.799 287.252 129.322C287.252 127.846 286.555 126.52 285.064 126.52C283.547 126.52 282.85 127.846 282.85 129.322C282.85 130.799 283.547 132.111 285.064 132.111ZM291.148 128.543V133H289.973V125.576H291.107V126.738H291.203C291.559 125.986 292.242 125.48 293.377 125.48C294.881 125.48 295.879 126.396 295.879 128.283V133H294.703V128.365C294.703 127.217 294.074 126.533 293.021 126.533C291.941 126.533 291.148 127.258 291.148 128.543Z" fill="var(--sol-element-primary)"/>
<g clip-path="url(#clip8_1671_178915)">
<path d="M232.332 155.334C232.332 154.229 233.227 153.334 234.332 153.334H243.665C244.77 153.334 245.665 154.229 245.665 155.334V164.667C245.665 165.772 244.77 166.667 243.665 166.667H234.332C233.227 166.667 232.332 165.772 232.332 164.667V155.334Z" fill="var(--sol-fill-active)"/>
<path d="M244.046 157.269L237.881 163.434C237.636 163.678 237.241 163.679 236.997 163.434L233.953 160.391L234.837 159.507L237.438 162.109L243.163 156.385L244.046 157.269Z" fill="var(--sol-surface)"/>
</g>
<path d="M264.461 160.051C264.461 163.182 262.615 165.137 260.086 165.137C257.543 165.137 255.711 163.182 255.711 160.051C255.711 156.92 257.543 154.965 260.086 154.965C262.615 154.965 264.461 156.92 264.461 160.051ZM263.271 160.051C263.271 157.494 261.877 156.113 260.086 156.113C258.295 156.113 256.9 157.494 256.9 160.051C256.9 162.607 258.295 163.988 260.086 163.988C261.877 163.988 263.271 162.607 263.271 160.051ZM266.115 167.789V157.576H267.25V158.752H267.387C267.633 158.355 268.098 157.48 269.533 157.48C271.393 157.48 272.691 158.957 272.691 161.309C272.691 163.66 271.393 165.15 269.547 165.15C268.125 165.15 267.633 164.275 267.387 163.865H267.291V167.789H266.115ZM267.264 161.281C267.264 162.949 268.016 164.098 269.383 164.098C270.791 164.098 271.516 162.867 271.516 161.281C271.516 159.736 270.805 158.533 269.383 158.533C267.988 158.533 267.264 159.641 267.264 161.281ZM277.463 157.576V158.561H275.904V162.867C275.904 163.824 276.369 163.975 276.875 163.975C277.094 163.975 277.395 163.961 277.572 163.947V165.041C277.395 165.068 277.094 165.096 276.752 165.096C275.768 165.096 274.715 164.48 274.715 163.168V158.561H273.594V157.576H274.715V155.799H275.904V157.576H277.463ZM278.98 165V157.576H280.156V165H278.98ZM279.568 156.346C279.117 156.346 278.748 156.004 278.748 155.566C278.748 155.129 279.117 154.787 279.568 154.787C280.02 154.787 280.402 155.129 280.402 155.566C280.402 156.004 280.02 156.346 279.568 156.346ZM285.064 165.15C283.041 165.15 281.674 163.633 281.674 161.322C281.674 159.012 283.041 157.48 285.064 157.48C287.074 157.48 288.428 159.012 288.428 161.322C288.428 163.633 287.074 165.15 285.064 165.15ZM285.064 164.111C286.555 164.111 287.252 162.799 287.252 161.322C287.252 159.846 286.555 158.52 285.064 158.52C283.547 158.52 282.85 159.846 282.85 161.322C282.85 162.799 283.547 164.111 285.064 164.111ZM291.148 160.543V165H289.973V157.576H291.107V158.738H291.203C291.559 157.986 292.242 157.48 293.377 157.48C294.881 157.48 295.879 158.396 295.879 160.283V165H294.703V160.365C294.703 159.217 294.074 158.533 293.021 158.533C291.941 158.533 291.148 159.258 291.148 160.543Z" fill="var(--sol-element-primary)"/>
<g clip-path="url(#clip9_1671_178915)">
<path d="M232.332 187.334C232.332 186.229 233.227 185.334 234.332 185.334H243.665C244.77 185.334 245.665 186.229 245.665 187.334V196.667C245.665 197.772 244.77 198.667 243.665 198.667H234.332C233.227 198.667 232.332 197.772 232.332 196.667V187.334Z" fill="var(--sol-fill-active)"/>
<path d="M244.046 189.269L237.881 195.434C237.636 195.678 237.241 195.679 236.997 195.434L233.953 192.391L234.837 191.507L237.438 194.109L243.163 188.385L244.046 189.269Z" fill="var(--sol-surface)"/>
</g>
<path d="M264.461 192.051C264.461 195.182 262.615 197.137 260.086 197.137C257.543 197.137 255.711 195.182 255.711 192.051C255.711 188.92 257.543 186.965 260.086 186.965C262.615 186.965 264.461 188.92 264.461 192.051ZM263.271 192.051C263.271 189.494 261.877 188.113 260.086 188.113C258.295 188.113 256.9 189.494 256.9 192.051C256.9 194.607 258.295 195.988 260.086 195.988C261.877 195.988 263.271 194.607 263.271 192.051ZM266.115 199.789V189.576H267.25V190.752H267.387C267.633 190.355 268.098 189.48 269.533 189.48C271.393 189.48 272.691 190.957 272.691 193.309C272.691 195.66 271.393 197.15 269.547 197.15C268.125 197.15 267.633 196.275 267.387 195.865H267.291V199.789H266.115ZM267.264 193.281C267.264 194.949 268.016 196.098 269.383 196.098C270.791 196.098 271.516 194.867 271.516 193.281C271.516 191.736 270.805 190.533 269.383 190.533C267.988 190.533 267.264 191.641 267.264 193.281ZM277.463 189.576V190.561H275.904V194.867C275.904 195.824 276.369 195.975 276.875 195.975C277.094 195.975 277.395 195.961 277.572 195.947V197.041C277.395 197.068 277.094 197.096 276.752 197.096C275.768 197.096 274.715 196.48 274.715 195.168V190.561H273.594V189.576H274.715V187.799H275.904V189.576H277.463ZM278.98 197V189.576H280.156V197H278.98ZM279.568 188.346C279.117 188.346 278.748 188.004 278.748 187.566C278.748 187.129 279.117 186.787 279.568 186.787C280.02 186.787 280.402 187.129 280.402 187.566C280.402 188.004 280.02 188.346 279.568 188.346ZM285.064 197.15C283.041 197.15 281.674 195.633 281.674 193.322C281.674 191.012 283.041 189.48 285.064 189.48C287.074 189.48 288.428 191.012 288.428 193.322C288.428 195.633 287.074 197.15 285.064 197.15ZM285.064 196.111C286.555 196.111 287.252 194.799 287.252 193.322C287.252 191.846 286.555 190.52 285.064 190.52C283.547 190.52 282.85 191.846 282.85 193.322C282.85 194.799 283.547 196.111 285.064 196.111ZM291.148 192.543V197H289.973V189.576H291.107V190.738H291.203C291.559 189.986 292.242 189.48 293.377 189.48C294.881 189.48 295.879 190.396 295.879 192.283V197H294.703V192.365C294.703 191.217 294.074 190.533 293.021 190.533C291.941 190.533 291.148 191.258 291.148 192.543Z" fill="var(--sol-element-primary)"/>
</g>
</g>
</g>
<defs>
<filter id="filter0_dd_1671_178915" x="28" y="-4" width="386" height="244" filterUnits="userSpaceOnUse" color-interpolation-filters="sRGB">
<feFlood flood-opacity="0" result="BackgroundImageFix"/>
<feColorMatrix in="SourceAlpha" type="matrix" values="0 0 0 0 0 0 0 0 0 0 0 0 0 0 0 0 0 0 127 0" result="hardAlpha"/>
<feOffset dy="4"/>
<feGaussianBlur stdDeviation="4"/>
<feComposite in2="hardAlpha" operator="out"/>
<feColorMatrix type="matrix" values="0 0 0 0 0 0 0 0 0 0 0 0 0 0 0 0 0 0 0.08 0"/>
<feBlend mode="normal" in2="BackgroundImageFix" result="effect1_dropShadow_1671_178915"/>
<feColorMatrix in="SourceAlpha" type="matrix" values="0 0 0 0 0 0 0 0 0 0 0 0 0 0 0 0 0 0 127 0" result="hardAlpha"/>
<feOffset/>
<feGaussianBlur stdDeviation="0.5"/>
<feComposite in2="hardAlpha" operator="out"/>
<feColorMatrix type="matrix" values="0 0 0 0 0 0 0 0 0 0 0 0 0 0 0 0 0 0 0.08 0"/>
<feBlend mode="normal" in2="effect1_dropShadow_1671_178915" result="effect2_dropShadow_1671_178915"/>
<feBlend mode="normal" in="SourceGraphic" in2="effect2_dropShadow_1671_178915" result="shape"/>
</filter>
<clipPath id="clip0_1671_178915">
<path d="M0 8C0 3.58172 3.58172 0 8 0H434C438.418 0 442 3.58172 442 8V220C442 224.418 438.418 228 434 228H8C3.58172 228 0 224.418 0 220V8Z" fill="var(--sol-surface)"/>
</clipPath>
<clipPath id="clip1_1671_178915">
<rect width="298" height="72" fill="var(--sol-surface)" transform="translate(72 20)"/>
</clipPath>
<clipPath id="clip2_1671_178915">
<rect x="340" y="26" width="30" height="20" rx="10" fill="var(--sol-surface)"/>
</clipPath>
<clipPath id="clip3_1671_178915">
<rect x="340" y="66" width="30" height="20" rx="10" fill="var(--sol-surface)"/>
</clipPath>
<clipPath id="clip4_1671_178915">
<rect width="141" height="96" fill="var(--sol-surface)" transform="translate(72 112)"/>
</clipPath>
<clipPath id="clip5_1671_178915">
<path d="M75.332 128.001C75.332 124.319 78.3168 121.334 81.9987 121.334V121.334C85.6806 121.334 88.6654 124.319 88.6654 128.001V128.001C88.6654 131.683 85.6806 134.667 81.9987 134.667V134.667C78.3168 134.667 75.332 131.683 75.332 128.001V128.001Z" fill="var(--sol-surface)"/>
</clipPath>
<clipPath id="clip6_1671_178915">
<rect width="141" height="96" fill="var(--sol-surface)" transform="translate(229 112)"/>
</clipPath>
<clipPath id="clip7_1671_178915">
<path d="M232.332 123.334C232.332 122.229 233.227 121.334 234.332 121.334H243.665C244.77 121.334 245.665 122.229 245.665 123.334V132.667C245.665 133.772 244.77 134.667 243.665 134.667H234.332C233.227 134.667 232.332 133.772 232.332 132.667V123.334Z" fill="var(--sol-surface)"/>
</clipPath>
<clipPath id="clip8_1671_178915">
<path d="M232.332 155.334C232.332 154.229 233.227 153.334 234.332 153.334H243.665C244.77 153.334 245.665 154.229 245.665 155.334V164.667C245.665 165.772 244.77 166.667 243.665 166.667H234.332C233.227 166.667 232.332 165.772 232.332 164.667V155.334Z" fill="var(--sol-surface)"/>
</clipPath>
<clipPath id="clip9_1671_178915">
<path d="M232.332 187.334C232.332 186.229 233.227 185.334 234.332 185.334H243.665C244.77 185.334 245.665 186.229 245.665 187.334V196.667C245.665 197.772 244.77 198.667 243.665 198.667H234.332C233.227 198.667 232.332 197.772 232.332 196.667V187.334Z" fill="var(--sol-surface)"/>
</clipPath>
</defs>
</svg>
