<svg width="900" height="220" viewBox="0 0 900 220" fill="none" xmlns="http://www.w3.org/2000/svg">
<style>
:root {
  --sol-element-primary: #161616;
  --sol-element-tertiary: #636363;
  --sol-fill-active: #4d469a;
  --sol-surface: #ffffff;
  --sol-error: #e76067;
}
@media (prefers-color-scheme: dark) {
  :root {
    --sol-element-primary: #ffffff;
    --sol-element-tertiary: rgba(255, 255, 255, 0.6);
    --sol-fill-active: #7b74c4;
    --sol-surface: #161616;
    --sol-error: #ee7a80;
  }
}
</style>
<path d="M343.348 56.1914C342.924 54.9199 341.953 54.1133 340.545 54.1133C338.795 54.1133 337.4 55.4941 337.4 58.0508C337.4 60.6074 338.795 61.9883 340.627 61.9883C342.302 61.9883 343.443 60.8672 343.471 59.1172H340.887V58.0371H344.674V59.1035C344.674 61.5645 342.979 63.1367 340.627 63.1367C337.988 63.1367 336.211 61.1816 336.211 58.0508C336.211 54.9199 338.002 52.9648 340.545 52.9648C342.637 52.9648 344.25 54.2773 344.619 56.1914H343.348ZM346.369 63V55.5762H347.504V56.7109H347.586C347.859 55.959 348.625 55.4531 349.5 55.4531C349.678 55.4531 349.979 55.4668 350.115 55.4805V56.6699C350.033 56.6426 349.705 56.5879 349.404 56.5879C348.338 56.5879 347.545 57.3262 347.545 58.3242V63H346.369ZM354.066 63.1504C352.043 63.1504 350.676 61.6328 350.676 59.3223C350.676 57.0117 352.043 55.4805 354.066 55.4805C356.076 55.4805 357.43 57.0117 357.43 59.3223C357.43 61.6328 356.076 63.1504 354.066 63.1504ZM354.066 62.1113C355.557 62.1113 356.254 60.7988 356.254 59.3223C356.254 57.8457 355.557 56.5195 354.066 56.5195C352.549 56.5195 351.852 57.8457 351.852 59.3223C351.852 60.7988 352.549 62.1113 354.066 62.1113ZM363.664 59.9512V55.5762H364.826V63H363.664V61.7422H363.582C363.227 62.4941 362.502 63.0957 361.381 63.0957C359.973 63.0957 358.975 62.1797 358.975 60.293V55.5762H360.15V60.2109C360.15 61.2773 360.82 61.9609 361.764 61.9609C362.598 61.9609 363.664 61.332 363.664 59.9512ZM366.713 65.7891V55.5762H367.848V56.752H367.984C368.23 56.3555 368.695 55.4805 370.131 55.4805C371.99 55.4805 373.289 56.957 373.289 59.3086C373.289 61.6602 371.99 63.1504 370.145 63.1504C368.723 63.1504 368.23 62.2754 367.984 61.8652H367.889V65.7891H366.713ZM367.861 59.2812C367.861 60.9492 368.613 62.0977 369.98 62.0977C371.389 62.0977 372.113 60.8672 372.113 59.2812C372.113 57.7363 371.402 56.5332 369.98 56.5332C368.586 56.5332 367.861 57.6406 367.861 59.2812ZM379.51 53.1016V63H378.334V53.1016H379.51ZM381.027 60.8945C381.027 59.1855 382.531 58.8027 383.816 58.707C384.288 58.6729 385.491 58.6113 385.826 58.5977V57.9961C385.826 57.0527 385.266 56.5059 384.145 56.5059C383.201 56.5059 382.641 56.9434 382.477 57.5039H381.246C381.396 56.3145 382.559 55.4805 384.199 55.4805C385.17 55.4805 386.988 55.7676 386.988 58.1055V63H385.826V61.9883H385.771C385.525 62.4941 384.842 63.1777 383.557 63.1777C382.148 63.1777 381.027 62.3438 381.027 60.8945ZM382.203 60.9492C382.203 61.7285 382.859 62.125 383.762 62.125C385.088 62.125 385.826 61.2363 385.826 60.3066V59.5547L383.953 59.6914C382.887 59.7598 382.203 60.1426 382.203 60.9492ZM389.025 63V53.1016H390.201V56.752H390.297C390.557 56.3555 390.994 55.4805 392.443 55.4805C394.303 55.4805 395.615 56.957 395.615 59.3086C395.615 61.6602 394.303 63.1504 392.457 63.1504C391.035 63.1504 390.557 62.2754 390.297 61.8652H390.16V63H389.025ZM390.174 59.2812C390.174 60.9492 390.926 62.0977 392.279 62.0977C393.688 62.0977 394.426 60.8672 394.426 59.2812C394.426 57.7363 393.715 56.5332 392.279 56.5332C390.912 56.5332 390.174 57.6406 390.174 59.2812ZM400.264 63.1504C398.117 63.1504 396.791 61.6328 396.791 59.3496C396.791 57.0664 398.131 55.4805 400.154 55.4805C401.713 55.4805 403.354 56.4375 403.354 59.1855V59.6777H397.967C398.021 61.25 398.938 62.1113 400.264 62.1113C401.152 62.1113 401.713 61.7285 401.986 61.2637H403.244C402.889 62.3848 401.795 63.1504 400.264 63.1504ZM397.98 58.6797H402.164C402.164 57.4355 401.371 56.5195 400.154 56.5195C398.869 56.5195 398.049 57.5312 397.98 58.6797ZM406.061 53.1016V63H404.885V53.1016H406.061Z" fill="var(--sol-element-tertiary)"/>
<g clip-path="url(#clip0_1671_177474)">
<g clip-path="url(#clip1_1671_177474)">
<path d="M338.832 92.0007C338.832 88.3188 341.817 85.334 345.499 85.334V85.334C349.181 85.334 352.165 88.3188 352.165 92.0007V92.0007C352.165 95.6825 349.181 98.6673 345.499 98.6673V98.6673C341.817 98.6673 338.832 95.6825 338.832 92.0007V92.0007Z" fill="var(--sol-fill-active)"/>
<circle cx="345.497" cy="92.0013" r="3.33333" fill="var(--sol-surface)"/>
</g>
<path d="M369.348 90.2188C369.061 88.8516 367.885 88.1133 366.586 88.1133C364.795 88.1133 363.4 89.4941 363.4 92.0508C363.4 94.6074 364.795 95.9883 366.586 95.9883C367.885 95.9883 369.047 95.25 369.348 93.8965H370.578C370.223 95.9199 368.596 97.1367 366.586 97.1367C364.043 97.1367 362.211 95.1816 362.211 92.0508C362.211 88.9199 364.043 86.9648 366.586 86.9648C368.582 86.9648 370.209 88.168 370.578 90.2188H369.348ZM375.186 97.1504C373.162 97.1504 371.795 95.6328 371.795 93.3223C371.795 91.0117 373.162 89.4805 375.186 89.4805C377.195 89.4805 378.549 91.0117 378.549 93.3223C378.549 95.6328 377.195 97.1504 375.186 97.1504ZM375.186 96.1113C376.676 96.1113 377.373 94.7988 377.373 93.3223C377.373 91.8457 376.676 90.5195 375.186 90.5195C373.668 90.5195 372.971 91.8457 372.971 93.3223C372.971 94.7988 373.668 96.1113 375.186 96.1113ZM381.27 92.543V97H380.094V89.5762H381.229V90.7383H381.324C381.68 89.9863 382.363 89.4805 383.498 89.4805C385.002 89.4805 386 90.3965 386 92.2832V97H384.824V92.3652C384.824 91.2168 384.195 90.5332 383.143 90.5332C382.062 90.5332 381.27 91.2578 381.27 92.543ZM391.127 89.5762V90.5605H389.568V94.8672C389.568 95.8242 390.033 95.9746 390.539 95.9746C390.758 95.9746 391.059 95.9609 391.236 95.9473V97.041C391.059 97.0684 390.758 97.0957 390.416 97.0957C389.432 97.0957 388.379 96.4805 388.379 95.168V90.5605H387.258V89.5762H388.379V87.7988H389.568V89.5762H391.127ZM392.645 97V89.5762H393.779V90.7109H393.861C394.135 89.959 394.9 89.4531 395.775 89.4531C395.953 89.4531 396.254 89.4668 396.391 89.4805V90.6699C396.309 90.6426 395.98 90.5879 395.68 90.5879C394.613 90.5879 393.82 91.3262 393.82 92.3242V97H392.645ZM400.342 97.1504C398.318 97.1504 396.951 95.6328 396.951 93.3223C396.951 91.0117 398.318 89.4805 400.342 89.4805C402.352 89.4805 403.705 91.0117 403.705 93.3223C403.705 95.6328 402.352 97.1504 400.342 97.1504ZM400.342 96.1113C401.832 96.1113 402.529 94.7988 402.529 93.3223C402.529 91.8457 401.832 90.5195 400.342 90.5195C398.824 90.5195 398.127 91.8457 398.127 93.3223C398.127 94.7988 398.824 96.1113 400.342 96.1113ZM406.426 87.1016V97H405.25V87.1016H406.426ZM411.812 97V89.5762H412.988V97H411.812ZM412.4 88.3457C411.949 88.3457 411.58 88.0039 411.58 87.5664C411.58 87.1289 411.949 86.7871 412.4 86.7871C412.852 86.7871 413.234 87.1289 413.234 87.5664C413.234 88.0039 412.852 88.3457 412.4 88.3457ZM418.102 89.5762V90.5605H416.543V94.8672C416.543 95.8242 417.008 95.9746 417.514 95.9746C417.732 95.9746 418.033 95.9609 418.211 95.9473V97.041C418.033 97.0684 417.732 97.0957 417.391 97.0957C416.406 97.0957 415.354 96.4805 415.354 95.168V90.5605H414.232V89.5762H415.354V87.7988H416.543V89.5762H418.102ZM422.668 97.1504C420.521 97.1504 419.195 95.6328 419.195 93.3496C419.195 91.0664 420.535 89.4805 422.559 89.4805C424.117 89.4805 425.758 90.4375 425.758 93.1855V93.6777H420.371C420.426 95.25 421.342 96.1113 422.668 96.1113C423.557 96.1113 424.117 95.7285 424.391 95.2637H425.648C425.293 96.3848 424.199 97.1504 422.668 97.1504ZM420.385 92.6797H424.568C424.568 91.4355 423.775 90.5195 422.559 90.5195C421.273 90.5195 420.453 91.5312 420.385 92.6797ZM427.289 97V89.5762H428.424V90.7383H428.52C428.834 89.9453 429.545 89.4805 430.516 89.4805C431.486 89.4805 432.143 89.9453 432.498 90.7383H432.58C432.963 89.9727 433.742 89.4805 434.809 89.4805C436.135 89.4805 437.078 90.2871 437.078 92.0371V97H435.902V92.0508C435.902 90.957 435.205 90.5332 434.398 90.5332C433.359 90.5332 432.771 91.2305 432.771 92.1738V97H431.582V91.9277C431.582 91.0938 430.98 90.5332 430.133 90.5332C429.244 90.5332 428.465 91.2852 428.465 92.3652V97H427.289Z" fill="var(--sol-element-primary)"/>
<path d="M338.832 124.001C338.832 120.319 341.817 117.334 345.499 117.334V117.334C349.181 117.334 352.165 120.319 352.165 124.001V124.001C352.165 127.683 349.181 130.667 345.499 130.667V130.667C341.817 130.667 338.832 127.683 338.832 124.001V124.001Z" fill="var(--sol-surface)"/>
<path d="M345.499 117.834C348.905 117.834 351.665 120.595 351.665 124.001C351.665 127.406 348.905 130.167 345.499 130.167C342.093 130.167 339.332 127.407 339.332 124.001C339.332 120.595 342.093 117.834 345.499 117.834Z" stroke="var(--sol-element-primary)" stroke-opacity="0.16"/>
<path d="M369.348 122.219C369.061 120.852 367.885 120.113 366.586 120.113C364.795 120.113 363.4 121.494 363.4 124.051C363.4 126.607 364.795 127.988 366.586 127.988C367.885 127.988 369.047 127.25 369.348 125.896H370.578C370.223 127.92 368.596 129.137 366.586 129.137C364.043 129.137 362.211 127.182 362.211 124.051C362.211 120.92 364.043 118.965 366.586 118.965C368.582 118.965 370.209 120.168 370.578 122.219H369.348ZM375.186 129.15C373.162 129.15 371.795 127.633 371.795 125.322C371.795 123.012 373.162 121.48 375.186 121.48C377.195 121.48 378.549 123.012 378.549 125.322C378.549 127.633 377.195 129.15 375.186 129.15ZM375.186 128.111C376.676 128.111 377.373 126.799 377.373 125.322C377.373 123.846 376.676 122.52 375.186 122.52C373.668 122.52 372.971 123.846 372.971 125.322C372.971 126.799 373.668 128.111 375.186 128.111ZM381.27 124.543V129H380.094V121.576H381.229V122.738H381.324C381.68 121.986 382.363 121.48 383.498 121.48C385.002 121.48 386 122.396 386 124.283V129H384.824V124.365C384.824 123.217 384.195 122.533 383.143 122.533C382.062 122.533 381.27 123.258 381.27 124.543ZM391.127 121.576V122.561H389.568V126.867C389.568 127.824 390.033 127.975 390.539 127.975C390.758 127.975 391.059 127.961 391.236 127.947V129.041C391.059 129.068 390.758 129.096 390.416 129.096C389.432 129.096 388.379 128.48 388.379 127.168V122.561H387.258V121.576H388.379V119.799H389.568V121.576H391.127ZM392.645 129V121.576H393.779V122.711H393.861C394.135 121.959 394.9 121.453 395.775 121.453C395.953 121.453 396.254 121.467 396.391 121.48V122.67C396.309 122.643 395.98 122.588 395.68 122.588C394.613 122.588 393.82 123.326 393.82 124.324V129H392.645ZM400.342 129.15C398.318 129.15 396.951 127.633 396.951 125.322C396.951 123.012 398.318 121.48 400.342 121.48C402.352 121.48 403.705 123.012 403.705 125.322C403.705 127.633 402.352 129.15 400.342 129.15ZM400.342 128.111C401.832 128.111 402.529 126.799 402.529 125.322C402.529 123.846 401.832 122.52 400.342 122.52C398.824 122.52 398.127 123.846 398.127 125.322C398.127 126.799 398.824 128.111 400.342 128.111ZM406.426 119.102V129H405.25V119.102H406.426ZM411.812 129V121.576H412.988V129H411.812ZM412.4 120.346C411.949 120.346 411.58 120.004 411.58 119.566C411.58 119.129 411.949 118.787 412.4 118.787C412.852 118.787 413.234 119.129 413.234 119.566C413.234 120.004 412.852 120.346 412.4 120.346ZM418.102 121.576V122.561H416.543V126.867C416.543 127.824 417.008 127.975 417.514 127.975C417.732 127.975 418.033 127.961 418.211 127.947V129.041C418.033 129.068 417.732 129.096 417.391 129.096C416.406 129.096 415.354 128.48 415.354 127.168V122.561H414.232V121.576H415.354V119.799H416.543V121.576H418.102ZM422.668 129.15C420.521 129.15 419.195 127.633 419.195 125.35C419.195 123.066 420.535 121.48 422.559 121.48C424.117 121.48 425.758 122.438 425.758 125.186V125.678H420.371C420.426 127.25 421.342 128.111 422.668 128.111C423.557 128.111 424.117 127.729 424.391 127.264H425.648C425.293 128.385 424.199 129.15 422.668 129.15ZM420.385 124.68H424.568C424.568 123.436 423.775 122.52 422.559 122.52C421.273 122.52 420.453 123.531 420.385 124.68ZM427.289 129V121.576H428.424V122.738H428.52C428.834 121.945 429.545 121.48 430.516 121.48C431.486 121.48 432.143 121.945 432.498 122.738H432.58C432.963 121.973 433.742 121.48 434.809 121.48C436.135 121.48 437.078 122.287 437.078 124.037V129H435.902V124.051C435.902 122.957 435.205 122.533 434.398 122.533C433.359 122.533 432.771 123.23 432.771 124.174V129H431.582V123.928C431.582 123.094 430.98 122.533 430.133 122.533C429.244 122.533 428.465 123.285 428.465 124.365V129H427.289Z" fill="var(--sol-element-primary)"/>
<path d="M338.832 156.001C338.832 152.319 341.817 149.334 345.499 149.334V149.334C349.181 149.334 352.165 152.319 352.165 156.001V156.001C352.165 159.683 349.181 162.667 345.499 162.667V162.667C341.817 162.667 338.832 159.683 338.832 156.001V156.001Z" fill="var(--sol-surface)"/>
<path d="M345.499 149.834C348.905 149.834 351.665 152.595 351.665 156.001C351.665 159.406 348.905 162.167 345.499 162.167C342.093 162.167 339.332 159.407 339.332 156.001C339.332 152.595 342.093 149.834 345.499 149.834Z" stroke="var(--sol-element-primary)" stroke-opacity="0.16"/>
<path d="M369.348 154.219C369.061 152.852 367.885 152.113 366.586 152.113C364.795 152.113 363.4 153.494 363.4 156.051C363.4 158.607 364.795 159.988 366.586 159.988C367.885 159.988 369.047 159.25 369.348 157.896H370.578C370.223 159.92 368.596 161.137 366.586 161.137C364.043 161.137 362.211 159.182 362.211 156.051C362.211 152.92 364.043 150.965 366.586 150.965C368.582 150.965 370.209 152.168 370.578 154.219H369.348ZM375.186 161.15C373.162 161.15 371.795 159.633 371.795 157.322C371.795 155.012 373.162 153.48 375.186 153.48C377.195 153.48 378.549 155.012 378.549 157.322C378.549 159.633 377.195 161.15 375.186 161.15ZM375.186 160.111C376.676 160.111 377.373 158.799 377.373 157.322C377.373 155.846 376.676 154.52 375.186 154.52C373.668 154.52 372.971 155.846 372.971 157.322C372.971 158.799 373.668 160.111 375.186 160.111ZM381.27 156.543V161H380.094V153.576H381.229V154.738H381.324C381.68 153.986 382.363 153.48 383.498 153.48C385.002 153.48 386 154.396 386 156.283V161H384.824V156.365C384.824 155.217 384.195 154.533 383.143 154.533C382.062 154.533 381.27 155.258 381.27 156.543ZM391.127 153.576V154.561H389.568V158.867C389.568 159.824 390.033 159.975 390.539 159.975C390.758 159.975 391.059 159.961 391.236 159.947V161.041C391.059 161.068 390.758 161.096 390.416 161.096C389.432 161.096 388.379 160.48 388.379 159.168V154.561H387.258V153.576H388.379V151.799H389.568V153.576H391.127ZM392.645 161V153.576H393.779V154.711H393.861C394.135 153.959 394.9 153.453 395.775 153.453C395.953 153.453 396.254 153.467 396.391 153.48V154.67C396.309 154.643 395.98 154.588 395.68 154.588C394.613 154.588 393.82 155.326 393.82 156.324V161H392.645ZM400.342 161.15C398.318 161.15 396.951 159.633 396.951 157.322C396.951 155.012 398.318 153.48 400.342 153.48C402.352 153.48 403.705 155.012 403.705 157.322C403.705 159.633 402.352 161.15 400.342 161.15ZM400.342 160.111C401.832 160.111 402.529 158.799 402.529 157.322C402.529 155.846 401.832 154.52 400.342 154.52C398.824 154.52 398.127 155.846 398.127 157.322C398.127 158.799 398.824 160.111 400.342 160.111ZM406.426 151.102V161H405.25V151.102H406.426ZM411.812 161V153.576H412.988V161H411.812ZM412.4 152.346C411.949 152.346 411.58 152.004 411.58 151.566C411.58 151.129 411.949 150.787 412.4 150.787C412.852 150.787 413.234 151.129 413.234 151.566C413.234 152.004 412.852 152.346 412.4 152.346ZM418.102 153.576V154.561H416.543V158.867C416.543 159.824 417.008 159.975 417.514 159.975C417.732 159.975 418.033 159.961 418.211 159.947V161.041C418.033 161.068 417.732 161.096 417.391 161.096C416.406 161.096 415.354 160.48 415.354 159.168V154.561H414.232V153.576H415.354V151.799H416.543V153.576H418.102ZM422.668 161.15C420.521 161.15 419.195 159.633 419.195 157.35C419.195 155.066 420.535 153.48 422.559 153.48C424.117 153.48 425.758 154.438 425.758 157.186V157.678H420.371C420.426 159.25 421.342 160.111 422.668 160.111C423.557 160.111 424.117 159.729 424.391 159.264H425.648C425.293 160.385 424.199 161.15 422.668 161.15ZM420.385 156.68H424.568C424.568 155.436 423.775 154.52 422.559 154.52C421.273 154.52 420.453 155.531 420.385 156.68ZM427.289 161V153.576H428.424V154.738H428.52C428.834 153.945 429.545 153.48 430.516 153.48C431.486 153.48 432.143 153.945 432.498 154.738H432.58C432.963 153.973 433.742 153.48 434.809 153.48C436.135 153.48 437.078 154.287 437.078 156.037V161H435.902V156.051C435.902 154.957 435.205 154.533 434.398 154.533C433.359 154.533 432.771 155.23 432.771 156.174V161H431.582V155.928C431.582 155.094 430.98 154.533 430.133 154.533C429.244 154.533 428.465 155.285 428.465 156.365V161H427.289Z" fill="var(--sol-element-primary)"/>
</g>
<path d="M450 92C450 91.7239 450.224 91.5 450.5 91.5H490V92.5H450.5C450.224 92.5 450 92.2761 450 92V92Z" fill="var(--sol-element-primary)"/>
<rect x="490" y="78" width="28" height="28" rx="14" fill="var(--sol-element-primary)"/>
<path d="M503.992 98.1562C501.57 98.1562 499.852 96.8438 499.805 94.9375H501.852C501.914 95.8438 502.82 96.4375 503.992 96.4375C505.242 96.4375 506.133 95.75 506.133 94.75C506.133 93.7344 505.258 93 503.789 93H502.773V91.4375H503.789C504.992 91.4375 505.836 90.7656 505.82 89.7812C505.836 88.8281 505.117 88.1875 504.008 88.1875C502.945 88.1875 502.023 88.7812 501.992 89.7344H500.039C500.086 87.8281 501.805 86.5312 504.023 86.5312C506.32 86.5312 507.805 87.9375 507.789 89.6719C507.805 90.9375 506.961 91.8594 505.727 92.1094V92.2031C507.32 92.4219 508.227 93.4375 508.211 94.8594C508.227 96.7656 506.445 98.1562 503.992 98.1562Z" fill="var(--sol-surface)"/>
<circle cx="452" cy="92" r="2" fill="var(--sol-element-primary)"/>
<rect x="260.5" y="44" width="28" height="28" rx="14" fill="var(--sol-element-primary)"/>
<path d="M276.359 52.6875V64H274.312V54.6719H274.25L271.609 56.3594V54.5L274.406 52.6875H276.359Z" fill="var(--sol-surface)"/>
<path d="M288.5 57.5H328C328.276 57.5 328.5 57.7239 328.5 58V58C328.5 58.2761 328.276 58.5 328 58.5H288.5V57.5Z" fill="var(--sol-element-primary)"/>
<circle cx="326.5" cy="58" r="2" fill="var(--sol-element-primary)"/>
<rect x="278.5" y="79" width="28" height="28" rx="14" fill="var(--sol-element-primary)"/>
<path d="M288.617 99V97.5312L292.617 93.6719C293.758 92.5312 294.352 91.8594 294.352 90.9062C294.352 89.8594 293.523 89.1875 292.414 89.1875C291.242 89.1875 290.492 89.9219 290.508 91.0625H288.57C288.555 88.9219 290.164 87.5312 292.43 87.5312C294.742 87.5312 296.305 88.9062 296.305 90.8125C296.305 92.0938 295.68 93.125 293.461 95.2188L291.445 97.2188V97.2969H296.477V99H288.617Z" fill="var(--sol-surface)"/>
<path d="M306.5 92.5H328C328.276 92.5 328.5 92.7239 328.5 93V93C328.5 93.2761 328.276 93.5 328 93.5H306.5V92.5Z" fill="var(--sol-element-primary)"/>
<circle cx="326.5" cy="93" r="2" fill="var(--sol-element-primary)"/>
<defs>
<clipPath id="clip0_1671_177474">
<rect width="229" height="96" fill="var(--sol-surface)" transform="translate(335.5 76)"/>
</clipPath>
<clipPath id="clip1_1671_177474">
<path d="M338.832 92.0007C338.832 88.3188 341.817 85.334 345.499 85.334V85.334C349.181 85.334 352.165 88.3188 352.165 92.0007V92.0007C352.165 95.6825 349.181 98.6673 345.499 98.6673V98.6673C341.817 98.6673 338.832 95.6825 338.832 92.0007V92.0007Z" fill="var(--sol-surface)"/>
</clipPath>
</defs>
</svg>
