<svg width="442" height="372" viewBox="0 0 442 372" fill="none" xmlns="http://www.w3.org/2000/svg">
<style>
:root {
  --sol-element-primary: #161616;
  --sol-element-tertiary: #636363;
  --sol-fill-active: #4d469a;
  --sol-surface: #ffffff;
  --sol-error: #e76067;
}
@media (prefers-color-scheme: dark) {
  :root {
    --sol-element-primary: #ffffff;
    --sol-element-tertiary: rgba(255, 255, 255, 0.6);
    --sol-fill-active: #7b74c4;
    --sol-surface: #161616;
    --sol-error: #ee7a80;
  }
}
</style>
<rect width="390" height="372" transform="translate(26)" fill="var(--sol-surface)"/>
<path d="M63.0938 51V41.1016H64.3242V49.9062H68.918V51H63.0938ZM70.0527 48.8945C70.0527 47.1855 71.5566 46.8027 72.8418 46.707C73.3135 46.6729 74.5166 46.6113 74.8516 46.5977V45.9961C74.8516 45.0527 74.291 44.5059 73.1699 44.5059C72.2266 44.5059 71.666 44.9434 71.502 45.5039H70.2715C70.4219 44.3145 71.584 43.4805 73.2246 43.4805C74.1953 43.4805 76.0137 43.7676 76.0137 46.1055V51H74.8516V49.9883H74.7969C74.5508 50.4941 73.8672 51.1777 72.582 51.1777C71.1738 51.1777 70.0527 50.3438 70.0527 48.8945ZM71.2285 48.9492C71.2285 49.7285 71.8848 50.125 72.7871 50.125C74.1133 50.125 74.8516 49.2363 74.8516 48.3066V47.5547L72.9785 47.6914C71.9121 47.7598 71.2285 48.1426 71.2285 48.9492ZM78.0508 51V41.1016H79.2266V44.752H79.3223C79.582 44.3555 80.0195 43.4805 81.4688 43.4805C83.3281 43.4805 84.6406 44.957 84.6406 47.3086C84.6406 49.6602 83.3281 51.1504 81.4824 51.1504C80.0605 51.1504 79.582 50.2754 79.3223 49.8652H79.1855V51H78.0508ZM79.1992 47.2812C79.1992 48.9492 79.9512 50.0977 81.3047 50.0977C82.7129 50.0977 83.4512 48.8672 83.4512 47.2812C83.4512 45.7363 82.7402 44.5332 81.3047 44.5332C79.9375 44.5332 79.1992 45.6406 79.1992 47.2812ZM89.2891 51.1504C87.1426 51.1504 85.8164 49.6328 85.8164 47.3496C85.8164 45.0664 87.1562 43.4805 89.1797 43.4805C90.7383 43.4805 92.3789 44.4375 92.3789 47.1855V47.6777H86.9922C87.0469 49.25 87.9629 50.1113 89.2891 50.1113C90.1777 50.1113 90.7383 49.7285 91.0117 49.2637H92.2695C91.9141 50.3848 90.8203 51.1504 89.2891 51.1504ZM87.0059 46.6797H91.1895C91.1895 45.4355 90.3965 44.5195 89.1797 44.5195C87.8945 44.5195 87.0742 45.5312 87.0059 46.6797ZM95.0859 41.1016V51H93.9102V41.1016H95.0859Z" fill="var(--sol-element-tertiary)"/>
<g clip-path="url(#clip0_1671_178998)">
<g clip-path="url(#clip1_1671_178998)">
<path d="M65.332 75.334C65.332 74.2294 66.2275 73.334 67.332 73.334H76.6654C77.7699 73.334 78.6654 74.2294 78.6654 75.334V84.6673C78.6654 85.7719 77.7699 86.6673 76.6654 86.6673H67.332C66.2275 86.6673 65.332 85.7719 65.332 84.6673V75.334Z" fill="var(--sol-fill-active)"/>
<path d="M77.0464 77.2686L70.8805 83.4345C70.6365 83.6785 70.2408 83.6785 69.9967 83.4345L66.9531 80.3908L67.8369 79.5071L70.4384 82.1085L76.1627 76.3848L77.0464 77.2686Z" fill="var(--sol-surface)"/>
</g>
<path d="M97.4609 80.0508C97.4609 83.1816 95.6152 85.1367 93.0859 85.1367C90.543 85.1367 88.7109 83.1816 88.7109 80.0508C88.7109 76.9199 90.543 74.9648 93.0859 74.9648C95.6152 74.9648 97.4609 76.9199 97.4609 80.0508ZM96.2715 80.0508C96.2715 77.4941 94.877 76.1133 93.0859 76.1133C91.2949 76.1133 89.9004 77.4941 89.9004 80.0508C89.9004 82.6074 91.2949 83.9883 93.0859 83.9883C94.877 83.9883 96.2715 82.6074 96.2715 80.0508ZM99.1152 87.7891V77.5762H100.25V78.752H100.387C100.633 78.3555 101.098 77.4805 102.533 77.4805C104.393 77.4805 105.691 78.957 105.691 81.3086C105.691 83.6602 104.393 85.1504 102.547 85.1504C101.125 85.1504 100.633 84.2754 100.387 83.8652H100.291V87.7891H99.1152ZM100.264 81.2812C100.264 82.9492 101.016 84.0977 102.383 84.0977C103.791 84.0977 104.516 82.8672 104.516 81.2812C104.516 79.7363 103.805 78.5332 102.383 78.5332C100.988 78.5332 100.264 79.6406 100.264 81.2812ZM110.463 77.5762V78.5605H108.904V82.8672C108.904 83.8242 109.369 83.9746 109.875 83.9746C110.094 83.9746 110.395 83.9609 110.572 83.9473V85.041C110.395 85.0684 110.094 85.0957 109.752 85.0957C108.768 85.0957 107.715 84.4805 107.715 83.168V78.5605H106.594V77.5762H107.715V75.7988H108.904V77.5762H110.463ZM111.98 85V77.5762H113.156V85H111.98ZM112.568 76.3457C112.117 76.3457 111.748 76.0039 111.748 75.5664C111.748 75.1289 112.117 74.7871 112.568 74.7871C113.02 74.7871 113.402 75.1289 113.402 75.5664C113.402 76.0039 113.02 76.3457 112.568 76.3457ZM118.064 85.1504C116.041 85.1504 114.674 83.6328 114.674 81.3223C114.674 79.0117 116.041 77.4805 118.064 77.4805C120.074 77.4805 121.428 79.0117 121.428 81.3223C121.428 83.6328 120.074 85.1504 118.064 85.1504ZM118.064 84.1113C119.555 84.1113 120.252 82.7988 120.252 81.3223C120.252 79.8457 119.555 78.5195 118.064 78.5195C116.547 78.5195 115.85 79.8457 115.85 81.3223C115.85 82.7988 116.547 84.1113 118.064 84.1113ZM124.148 80.543V85H122.973V77.5762H124.107V78.7383H124.203C124.559 77.9863 125.242 77.4805 126.377 77.4805C127.881 77.4805 128.879 78.3965 128.879 80.2832V85H127.703V80.3652C127.703 79.2168 127.074 78.5332 126.021 78.5332C124.941 78.5332 124.148 79.2578 124.148 80.543Z" fill="var(--sol-element-primary)"/>
<g clip-path="url(#clip2_1671_178998)">
<path d="M65.332 107.334C65.332 106.229 66.2275 105.334 67.332 105.334H76.6654C77.7699 105.334 78.6654 106.229 78.6654 107.334V116.667C78.6654 117.772 77.7699 118.667 76.6654 118.667H67.332C66.2275 118.667 65.332 117.772 65.332 116.667V107.334Z" fill="var(--sol-fill-active)"/>
<path d="M77.0464 109.269L70.8805 115.434C70.6365 115.678 70.2408 115.679 69.9967 115.434L66.9531 112.391L67.8369 111.507L70.4384 114.109L76.1627 108.385L77.0464 109.269Z" fill="var(--sol-surface)"/>
</g>
<path d="M97.4609 112.051C97.4609 115.182 95.6152 117.137 93.0859 117.137C90.543 117.137 88.7109 115.182 88.7109 112.051C88.7109 108.92 90.543 106.965 93.0859 106.965C95.6152 106.965 97.4609 108.92 97.4609 112.051ZM96.2715 112.051C96.2715 109.494 94.877 108.113 93.0859 108.113C91.2949 108.113 89.9004 109.494 89.9004 112.051C89.9004 114.607 91.2949 115.988 93.0859 115.988C94.877 115.988 96.2715 114.607 96.2715 112.051ZM99.1152 119.789V109.576H100.25V110.752H100.387C100.633 110.355 101.098 109.48 102.533 109.48C104.393 109.48 105.691 110.957 105.691 113.309C105.691 115.66 104.393 117.15 102.547 117.15C101.125 117.15 100.633 116.275 100.387 115.865H100.291V119.789H99.1152ZM100.264 113.281C100.264 114.949 101.016 116.098 102.383 116.098C103.791 116.098 104.516 114.867 104.516 113.281C104.516 111.736 103.805 110.533 102.383 110.533C100.988 110.533 100.264 111.641 100.264 113.281ZM110.463 109.576V110.561H108.904V114.867C108.904 115.824 109.369 115.975 109.875 115.975C110.094 115.975 110.395 115.961 110.572 115.947V117.041C110.395 117.068 110.094 117.096 109.752 117.096C108.768 117.096 107.715 116.48 107.715 115.168V110.561H106.594V109.576H107.715V107.799H108.904V109.576H110.463ZM111.98 117V109.576H113.156V117H111.98ZM112.568 108.346C112.117 108.346 111.748 108.004 111.748 107.566C111.748 107.129 112.117 106.787 112.568 106.787C113.02 106.787 113.402 107.129 113.402 107.566C113.402 108.004 113.02 108.346 112.568 108.346ZM118.064 117.15C116.041 117.15 114.674 115.633 114.674 113.322C114.674 111.012 116.041 109.48 118.064 109.48C120.074 109.48 121.428 111.012 121.428 113.322C121.428 115.633 120.074 117.15 118.064 117.15ZM118.064 116.111C119.555 116.111 120.252 114.799 120.252 113.322C120.252 111.846 119.555 110.52 118.064 110.52C116.547 110.52 115.85 111.846 115.85 113.322C115.85 114.799 116.547 116.111 118.064 116.111ZM124.148 112.543V117H122.973V109.576H124.107V110.738H124.203C124.559 109.986 125.242 109.48 126.377 109.48C127.881 109.48 128.879 110.396 128.879 112.283V117H127.703V112.365C127.703 111.217 127.074 110.533 126.021 110.533C124.941 110.533 124.148 111.258 124.148 112.543Z" fill="var(--sol-element-primary)"/>
<g clip-path="url(#clip3_1671_178998)">
<path d="M65.332 139.334C65.332 138.229 66.2275 137.334 67.332 137.334H76.6654C77.7699 137.334 78.6654 138.229 78.6654 139.334V148.667C78.6654 149.772 77.7699 150.667 76.6654 150.667H67.332C66.2275 150.667 65.332 149.772 65.332 148.667V139.334Z" fill="var(--sol-fill-active)"/>
<path d="M77.0464 141.269L70.8805 147.434C70.6365 147.678 70.2408 147.679 69.9967 147.434L66.9531 144.391L67.8369 143.507L70.4384 146.109L76.1627 140.385L77.0464 141.269Z" fill="var(--sol-surface)"/>
</g>
<path d="M97.4609 144.051C97.4609 147.182 95.6152 149.137 93.0859 149.137C90.543 149.137 88.7109 147.182 88.7109 144.051C88.7109 140.92 90.543 138.965 93.0859 138.965C95.6152 138.965 97.4609 140.92 97.4609 144.051ZM96.2715 144.051C96.2715 141.494 94.877 140.113 93.0859 140.113C91.2949 140.113 89.9004 141.494 89.9004 144.051C89.9004 146.607 91.2949 147.988 93.0859 147.988C94.877 147.988 96.2715 146.607 96.2715 144.051ZM99.1152 151.789V141.576H100.25V142.752H100.387C100.633 142.355 101.098 141.48 102.533 141.48C104.393 141.48 105.691 142.957 105.691 145.309C105.691 147.66 104.393 149.15 102.547 149.15C101.125 149.15 100.633 148.275 100.387 147.865H100.291V151.789H99.1152ZM100.264 145.281C100.264 146.949 101.016 148.098 102.383 148.098C103.791 148.098 104.516 146.867 104.516 145.281C104.516 143.736 103.805 142.533 102.383 142.533C100.988 142.533 100.264 143.641 100.264 145.281ZM110.463 141.576V142.561H108.904V146.867C108.904 147.824 109.369 147.975 109.875 147.975C110.094 147.975 110.395 147.961 110.572 147.947V149.041C110.395 149.068 110.094 149.096 109.752 149.096C108.768 149.096 107.715 148.48 107.715 147.168V142.561H106.594V141.576H107.715V139.799H108.904V141.576H110.463ZM111.98 149V141.576H113.156V149H111.98ZM112.568 140.346C112.117 140.346 111.748 140.004 111.748 139.566C111.748 139.129 112.117 138.787 112.568 138.787C113.02 138.787 113.402 139.129 113.402 139.566C113.402 140.004 113.02 140.346 112.568 140.346ZM118.064 149.15C116.041 149.15 114.674 147.633 114.674 145.322C114.674 143.012 116.041 141.48 118.064 141.48C120.074 141.48 121.428 143.012 121.428 145.322C121.428 147.633 120.074 149.15 118.064 149.15ZM118.064 148.111C119.555 148.111 120.252 146.799 120.252 145.322C120.252 143.846 119.555 142.52 118.064 142.52C116.547 142.52 115.85 143.846 115.85 145.322C115.85 146.799 116.547 148.111 118.064 148.111ZM124.148 144.543V149H122.973V141.576H124.107V142.738H124.203C124.559 141.986 125.242 141.48 126.377 141.48C127.881 141.48 128.879 142.396 128.879 144.283V149H127.703V144.365C127.703 143.217 127.074 142.533 126.021 142.533C124.941 142.533 124.148 143.258 124.148 144.543Z" fill="var(--sol-element-primary)"/>
</g>
<g clip-path="url(#clip4_1671_178998)">
<g clip-path="url(#clip5_1671_178998)">
<path d="M176.664 75.334C176.664 74.2294 177.559 73.334 178.664 73.334H187.997C189.102 73.334 189.997 74.2294 189.997 75.334V84.6673C189.997 85.7719 189.102 86.6673 187.997 86.6673H178.664C177.559 86.6673 176.664 85.7719 176.664 84.6673V75.334Z" fill="var(--sol-fill-active)"/>
<path d="M188.378 77.2686L182.213 83.4345C181.968 83.6785 181.573 83.6785 181.329 83.4345L178.285 80.3908L179.169 79.5071L181.77 82.1085L187.495 76.3848L188.378 77.2686Z" fill="var(--sol-surface)"/>
</g>
<path d="M208.793 80.0508C208.793 83.1816 206.947 85.1367 204.418 85.1367C201.875 85.1367 200.043 83.1816 200.043 80.0508C200.043 76.9199 201.875 74.9648 204.418 74.9648C206.947 74.9648 208.793 76.9199 208.793 80.0508ZM207.604 80.0508C207.604 77.4941 206.209 76.1133 204.418 76.1133C202.627 76.1133 201.232 77.4941 201.232 80.0508C201.232 82.6074 202.627 83.9883 204.418 83.9883C206.209 83.9883 207.604 82.6074 207.604 80.0508ZM210.447 87.7891V77.5762H211.582V78.752H211.719C211.965 78.3555 212.43 77.4805 213.865 77.4805C215.725 77.4805 217.023 78.957 217.023 81.3086C217.023 83.6602 215.725 85.1504 213.879 85.1504C212.457 85.1504 211.965 84.2754 211.719 83.8652H211.623V87.7891H210.447ZM211.596 81.2812C211.596 82.9492 212.348 84.0977 213.715 84.0977C215.123 84.0977 215.848 82.8672 215.848 81.2812C215.848 79.7363 215.137 78.5332 213.715 78.5332C212.32 78.5332 211.596 79.6406 211.596 81.2812ZM221.795 77.5762V78.5605H220.236V82.8672C220.236 83.8242 220.701 83.9746 221.207 83.9746C221.426 83.9746 221.727 83.9609 221.904 83.9473V85.041C221.727 85.0684 221.426 85.0957 221.084 85.0957C220.1 85.0957 219.047 84.4805 219.047 83.168V78.5605H217.926V77.5762H219.047V75.7988H220.236V77.5762H221.795ZM223.312 85V77.5762H224.488V85H223.312ZM223.9 76.3457C223.449 76.3457 223.08 76.0039 223.08 75.5664C223.08 75.1289 223.449 74.7871 223.9 74.7871C224.352 74.7871 224.734 75.1289 224.734 75.5664C224.734 76.0039 224.352 76.3457 223.9 76.3457ZM229.396 85.1504C227.373 85.1504 226.006 83.6328 226.006 81.3223C226.006 79.0117 227.373 77.4805 229.396 77.4805C231.406 77.4805 232.76 79.0117 232.76 81.3223C232.76 83.6328 231.406 85.1504 229.396 85.1504ZM229.396 84.1113C230.887 84.1113 231.584 82.7988 231.584 81.3223C231.584 79.8457 230.887 78.5195 229.396 78.5195C227.879 78.5195 227.182 79.8457 227.182 81.3223C227.182 82.7988 227.879 84.1113 229.396 84.1113ZM235.48 80.543V85H234.305V77.5762H235.439V78.7383H235.535C235.891 77.9863 236.574 77.4805 237.709 77.4805C239.213 77.4805 240.211 78.3965 240.211 80.2832V85H239.035V80.3652C239.035 79.2168 238.406 78.5332 237.354 78.5332C236.273 78.5332 235.48 79.2578 235.48 80.543Z" fill="var(--sol-element-primary)"/>
<g clip-path="url(#clip6_1671_178998)">
<path d="M176.664 107.334C176.664 106.229 177.559 105.334 178.664 105.334H187.997C189.102 105.334 189.997 106.229 189.997 107.334V116.667C189.997 117.772 189.102 118.667 187.997 118.667H178.664C177.559 118.667 176.664 117.772 176.664 116.667V107.334Z" fill="var(--sol-fill-active)"/>
<path d="M188.378 109.269L182.213 115.434C181.968 115.678 181.573 115.679 181.329 115.434L178.285 112.391L179.169 111.507L181.77 114.109L187.495 108.385L188.378 109.269Z" fill="var(--sol-surface)"/>
</g>
<path d="M208.793 112.051C208.793 115.182 206.947 117.137 204.418 117.137C201.875 117.137 200.043 115.182 200.043 112.051C200.043 108.92 201.875 106.965 204.418 106.965C206.947 106.965 208.793 108.92 208.793 112.051ZM207.604 112.051C207.604 109.494 206.209 108.113 204.418 108.113C202.627 108.113 201.232 109.494 201.232 112.051C201.232 114.607 202.627 115.988 204.418 115.988C206.209 115.988 207.604 114.607 207.604 112.051ZM210.447 119.789V109.576H211.582V110.752H211.719C211.965 110.355 212.43 109.48 213.865 109.48C215.725 109.48 217.023 110.957 217.023 113.309C217.023 115.66 215.725 117.15 213.879 117.15C212.457 117.15 211.965 116.275 211.719 115.865H211.623V119.789H210.447ZM211.596 113.281C211.596 114.949 212.348 116.098 213.715 116.098C215.123 116.098 215.848 114.867 215.848 113.281C215.848 111.736 215.137 110.533 213.715 110.533C212.32 110.533 211.596 111.641 211.596 113.281ZM221.795 109.576V110.561H220.236V114.867C220.236 115.824 220.701 115.975 221.207 115.975C221.426 115.975 221.727 115.961 221.904 115.947V117.041C221.727 117.068 221.426 117.096 221.084 117.096C220.1 117.096 219.047 116.48 219.047 115.168V110.561H217.926V109.576H219.047V107.799H220.236V109.576H221.795ZM223.312 117V109.576H224.488V117H223.312ZM223.9 108.346C223.449 108.346 223.08 108.004 223.08 107.566C223.08 107.129 223.449 106.787 223.9 106.787C224.352 106.787 224.734 107.129 224.734 107.566C224.734 108.004 224.352 108.346 223.9 108.346ZM229.396 117.15C227.373 117.15 226.006 115.633 226.006 113.322C226.006 111.012 227.373 109.48 229.396 109.48C231.406 109.48 232.76 111.012 232.76 113.322C232.76 115.633 231.406 117.15 229.396 117.15ZM229.396 116.111C230.887 116.111 231.584 114.799 231.584 113.322C231.584 111.846 230.887 110.52 229.396 110.52C227.879 110.52 227.182 111.846 227.182 113.322C227.182 114.799 227.879 116.111 229.396 116.111ZM235.48 112.543V117H234.305V109.576H235.439V110.738H235.535C235.891 109.986 236.574 109.48 237.709 109.48C239.213 109.48 240.211 110.396 240.211 112.283V117H239.035V112.365C239.035 111.217 238.406 110.533 237.354 110.533C236.273 110.533 235.48 111.258 235.48 112.543Z" fill="var(--sol-element-primary)"/>
<g clip-path="url(#clip7_1671_178998)">
<path d="M176.664 139.334C176.664 138.229 177.559 137.334 178.664 137.334H187.997C189.102 137.334 189.997 138.229 189.997 139.334V148.667C189.997 149.772 189.102 150.667 187.997 150.667H178.664C177.559 150.667 176.664 149.772 176.664 148.667V139.334Z" fill="var(--sol-fill-active)"/>
<path d="M188.378 141.269L182.213 147.434C181.968 147.678 181.573 147.679 181.329 147.434L178.285 144.391L179.169 143.507L181.77 146.109L187.495 140.385L188.378 141.269Z" fill="var(--sol-surface)"/>
</g>
<path d="M208.793 144.051C208.793 147.182 206.947 149.137 204.418 149.137C201.875 149.137 200.043 147.182 200.043 144.051C200.043 140.92 201.875 138.965 204.418 138.965C206.947 138.965 208.793 140.92 208.793 144.051ZM207.604 144.051C207.604 141.494 206.209 140.113 204.418 140.113C202.627 140.113 201.232 141.494 201.232 144.051C201.232 146.607 202.627 147.988 204.418 147.988C206.209 147.988 207.604 146.607 207.604 144.051ZM210.447 151.789V141.576H211.582V142.752H211.719C211.965 142.355 212.43 141.48 213.865 141.48C215.725 141.48 217.023 142.957 217.023 145.309C217.023 147.66 215.725 149.15 213.879 149.15C212.457 149.15 211.965 148.275 211.719 147.865H211.623V151.789H210.447ZM211.596 145.281C211.596 146.949 212.348 148.098 213.715 148.098C215.123 148.098 215.848 146.867 215.848 145.281C215.848 143.736 215.137 142.533 213.715 142.533C212.32 142.533 211.596 143.641 211.596 145.281ZM221.795 141.576V142.561H220.236V146.867C220.236 147.824 220.701 147.975 221.207 147.975C221.426 147.975 221.727 147.961 221.904 147.947V149.041C221.727 149.068 221.426 149.096 221.084 149.096C220.1 149.096 219.047 148.48 219.047 147.168V142.561H217.926V141.576H219.047V139.799H220.236V141.576H221.795ZM223.312 149V141.576H224.488V149H223.312ZM223.9 140.346C223.449 140.346 223.08 140.004 223.08 139.566C223.08 139.129 223.449 138.787 223.9 138.787C224.352 138.787 224.734 139.129 224.734 139.566C224.734 140.004 224.352 140.346 223.9 140.346ZM229.396 149.15C227.373 149.15 226.006 147.633 226.006 145.322C226.006 143.012 227.373 141.48 229.396 141.48C231.406 141.48 232.76 143.012 232.76 145.322C232.76 147.633 231.406 149.15 229.396 149.15ZM229.396 148.111C230.887 148.111 231.584 146.799 231.584 145.322C231.584 143.846 230.887 142.52 229.396 142.52C227.879 142.52 227.182 143.846 227.182 145.322C227.182 146.799 227.879 148.111 229.396 148.111ZM235.48 144.543V149H234.305V141.576H235.439V142.738H235.535C235.891 141.986 236.574 141.48 237.709 141.48C239.213 141.48 240.211 142.396 240.211 144.283V149H239.035V144.365C239.035 143.217 238.406 142.533 237.354 142.533C236.273 142.533 235.48 143.258 235.48 144.543Z" fill="var(--sol-element-primary)"/>
</g>
<g clip-path="url(#clip8_1671_178998)">
<g clip-path="url(#clip9_1671_178998)">
<path d="M288 75.334C288 74.2294 288.895 73.334 290 73.334H299.333C300.438 73.334 301.333 74.2294 301.333 75.334V84.6673C301.333 85.7719 300.438 86.6673 299.333 86.6673H290C288.895 86.6673 288 85.7719 288 84.6673V75.334Z" fill="var(--sol-fill-active)"/>
<path d="M299.714 77.2686L293.549 83.4345C293.304 83.6785 292.909 83.6785 292.665 83.4345L289.621 80.3908L290.505 79.5071L293.106 82.1085L298.831 76.3848L299.714 77.2686Z" fill="var(--sol-surface)"/>
</g>
<path d="M320.129 80.0508C320.129 83.1816 318.283 85.1367 315.754 85.1367C313.211 85.1367 311.379 83.1816 311.379 80.0508C311.379 76.9199 313.211 74.9648 315.754 74.9648C318.283 74.9648 320.129 76.9199 320.129 80.0508ZM318.939 80.0508C318.939 77.4941 317.545 76.1133 315.754 76.1133C313.963 76.1133 312.568 77.4941 312.568 80.0508C312.568 82.6074 313.963 83.9883 315.754 83.9883C317.545 83.9883 318.939 82.6074 318.939 80.0508ZM321.783 87.7891V77.5762H322.918V78.752H323.055C323.301 78.3555 323.766 77.4805 325.201 77.4805C327.061 77.4805 328.359 78.957 328.359 81.3086C328.359 83.6602 327.061 85.1504 325.215 85.1504C323.793 85.1504 323.301 84.2754 323.055 83.8652H322.959V87.7891H321.783ZM322.932 81.2812C322.932 82.9492 323.684 84.0977 325.051 84.0977C326.459 84.0977 327.184 82.8672 327.184 81.2812C327.184 79.7363 326.473 78.5332 325.051 78.5332C323.656 78.5332 322.932 79.6406 322.932 81.2812ZM333.131 77.5762V78.5605H331.572V82.8672C331.572 83.8242 332.037 83.9746 332.543 83.9746C332.762 83.9746 333.062 83.9609 333.24 83.9473V85.041C333.062 85.0684 332.762 85.0957 332.42 85.0957C331.436 85.0957 330.383 84.4805 330.383 83.168V78.5605H329.262V77.5762H330.383V75.7988H331.572V77.5762H333.131ZM334.648 85V77.5762H335.824V85H334.648ZM335.236 76.3457C334.785 76.3457 334.416 76.0039 334.416 75.5664C334.416 75.1289 334.785 74.7871 335.236 74.7871C335.688 74.7871 336.07 75.1289 336.07 75.5664C336.07 76.0039 335.688 76.3457 335.236 76.3457ZM340.732 85.1504C338.709 85.1504 337.342 83.6328 337.342 81.3223C337.342 79.0117 338.709 77.4805 340.732 77.4805C342.742 77.4805 344.096 79.0117 344.096 81.3223C344.096 83.6328 342.742 85.1504 340.732 85.1504ZM340.732 84.1113C342.223 84.1113 342.92 82.7988 342.92 81.3223C342.92 79.8457 342.223 78.5195 340.732 78.5195C339.215 78.5195 338.518 79.8457 338.518 81.3223C338.518 82.7988 339.215 84.1113 340.732 84.1113ZM346.816 80.543V85H345.641V77.5762H346.775V78.7383H346.871C347.227 77.9863 347.91 77.4805 349.045 77.4805C350.549 77.4805 351.547 78.3965 351.547 80.2832V85H350.371V80.3652C350.371 79.2168 349.742 78.5332 348.689 78.5332C347.609 78.5332 346.816 79.2578 346.816 80.543Z" fill="var(--sol-element-primary)"/>
</g>
<path d="M63.0938 211V201.102H69.0547V202.195H64.3242V205.504H68.6035V206.584H64.3242V211H63.0938ZM73.3203 211.15C71.1738 211.15 69.8477 209.633 69.8477 207.35C69.8477 205.066 71.1875 203.48 73.2109 203.48C74.7695 203.48 76.4102 204.438 76.4102 207.186V207.678H71.0234C71.0781 209.25 71.9941 210.111 73.3203 210.111C74.209 210.111 74.7695 209.729 75.043 209.264H76.3008C75.9453 210.385 74.8516 211.15 73.3203 211.15ZM71.0371 206.68H75.2207C75.2207 205.436 74.4277 204.52 73.2109 204.52C71.9258 204.52 71.1055 205.531 71.0371 206.68ZM77.5859 208.895C77.5859 207.186 79.0898 206.803 80.375 206.707C80.8467 206.673 82.0498 206.611 82.3848 206.598V205.996C82.3848 205.053 81.8242 204.506 80.7031 204.506C79.7598 204.506 79.1992 204.943 79.0352 205.504H77.8047C77.9551 204.314 79.1172 203.48 80.7578 203.48C81.7285 203.48 83.5469 203.768 83.5469 206.105V211H82.3848V209.988H82.3301C82.084 210.494 81.4004 211.178 80.1152 211.178C78.707 211.178 77.5859 210.344 77.5859 208.895ZM78.7617 208.949C78.7617 209.729 79.418 210.125 80.3203 210.125C81.6465 210.125 82.3848 209.236 82.3848 208.307V207.555L80.5117 207.691C79.4453 207.76 78.7617 208.143 78.7617 208.949ZM88.6738 203.576V204.561H87.1152V208.867C87.1152 209.824 87.5801 209.975 88.0859 209.975C88.3047 209.975 88.6055 209.961 88.7832 209.947V211.041C88.6055 211.068 88.3047 211.096 87.9629 211.096C86.9785 211.096 85.9258 210.48 85.9258 209.168V204.561H84.8047V203.576H85.9258V201.799H87.1152V203.576H88.6738ZM94.8809 207.951V203.576H96.043V211H94.8809V209.742H94.7988C94.4434 210.494 93.7188 211.096 92.5977 211.096C91.1895 211.096 90.1914 210.18 90.1914 208.293V203.576H91.3672V208.211C91.3672 209.277 92.0371 209.961 92.9805 209.961C93.8145 209.961 94.8809 209.332 94.8809 207.951ZM97.9297 211V203.576H99.0645V204.711H99.1465C99.4199 203.959 100.186 203.453 101.061 203.453C101.238 203.453 101.539 203.467 101.676 203.48V204.67C101.594 204.643 101.266 204.588 100.965 204.588C99.8984 204.588 99.1055 205.326 99.1055 206.324V211H97.9297ZM105.709 211.15C103.562 211.15 102.236 209.633 102.236 207.35C102.236 205.066 103.576 203.48 105.6 203.48C107.158 203.48 108.799 204.438 108.799 207.186V207.678H103.412C103.467 209.25 104.383 210.111 105.709 210.111C106.598 210.111 107.158 209.729 107.432 209.264H108.689C108.334 210.385 107.24 211.15 105.709 211.15ZM103.426 206.68H107.609C107.609 205.436 106.816 204.52 105.6 204.52C104.314 204.52 103.494 205.531 103.426 206.68ZM114.459 205.504C114.295 204.889 113.83 204.479 112.955 204.479C112.039 204.479 111.383 204.971 111.383 205.6C111.383 206.092 111.779 206.434 112.654 206.639L113.762 206.912C115.088 207.227 115.744 207.883 115.744 208.922C115.744 210.207 114.691 211.15 112.832 211.15C111.164 211.15 110.166 210.412 109.975 209.059H111.205C111.342 209.783 111.875 210.125 112.805 210.125C113.857 210.125 114.527 209.688 114.527 208.99C114.527 208.471 114.158 208.115 113.311 207.924L112.189 207.664C110.891 207.363 110.207 206.652 110.207 205.668C110.207 204.396 111.314 203.48 112.955 203.48C114.486 203.48 115.457 204.301 115.607 205.504H114.459Z" fill="var(--sol-element-tertiary)"/>
<g clip-path="url(#clip10_1671_178998)">
<path d="M71.4609 240.051C71.4609 243.182 69.6152 245.137 67.0859 245.137C64.543 245.137 62.7109 243.182 62.7109 240.051C62.7109 236.92 64.543 234.965 67.0859 234.965C69.6152 234.965 71.4609 236.92 71.4609 240.051ZM70.2715 240.051C70.2715 237.494 68.877 236.113 67.0859 236.113C65.2949 236.113 63.9004 237.494 63.9004 240.051C63.9004 242.607 65.2949 243.988 67.0859 243.988C68.877 243.988 70.2715 242.607 70.2715 240.051ZM73.1152 247.789V237.576H74.25V238.752H74.3867C74.6328 238.355 75.0977 237.48 76.5332 237.48C78.3926 237.48 79.6914 238.957 79.6914 241.309C79.6914 243.66 78.3926 245.15 76.5469 245.15C75.125 245.15 74.6328 244.275 74.3867 243.865H74.291V247.789H73.1152ZM74.2637 241.281C74.2637 242.949 75.0156 244.098 76.3828 244.098C77.791 244.098 78.5156 242.867 78.5156 241.281C78.5156 239.736 77.8047 238.533 76.3828 238.533C74.9883 238.533 74.2637 239.641 74.2637 241.281ZM84.4629 237.576V238.561H82.9043V242.867C82.9043 243.824 83.3691 243.975 83.875 243.975C84.0938 243.975 84.3945 243.961 84.5723 243.947V245.041C84.3945 245.068 84.0938 245.096 83.752 245.096C82.7676 245.096 81.7148 244.48 81.7148 243.168V238.561H80.5938V237.576H81.7148V235.799H82.9043V237.576H84.4629ZM85.9805 245V237.576H87.1562V245H85.9805ZM86.5684 236.346C86.1172 236.346 85.748 236.004 85.748 235.566C85.748 235.129 86.1172 234.787 86.5684 234.787C87.0195 234.787 87.4023 235.129 87.4023 235.566C87.4023 236.004 87.0195 236.346 86.5684 236.346ZM92.0645 245.15C90.041 245.15 88.6738 243.633 88.6738 241.322C88.6738 239.012 90.041 237.48 92.0645 237.48C94.0742 237.48 95.4277 239.012 95.4277 241.322C95.4277 243.633 94.0742 245.15 92.0645 245.15ZM92.0645 244.111C93.5547 244.111 94.252 242.799 94.252 241.322C94.252 239.846 93.5547 238.52 92.0645 238.52C90.5469 238.52 89.8496 239.846 89.8496 241.322C89.8496 242.799 90.5469 244.111 92.0645 244.111ZM98.1484 240.543V245H96.9727V237.576H98.1074V238.738H98.2031C98.5586 237.986 99.2422 237.48 100.377 237.48C101.881 237.48 102.879 238.396 102.879 240.283V245H101.703V240.365C101.703 239.217 101.074 238.533 100.021 238.533C98.9414 238.533 98.1484 239.258 98.1484 240.543Z" fill="var(--sol-element-primary)"/>
<g clip-path="url(#clip11_1671_178998)">
<rect x="350" y="230" width="30" height="20" rx="10" fill="var(--sol-fill-active)"/>
<circle cx="370" cy="240" r="7" fill="var(--sol-surface)"/>
</g>
<path d="M71.4609 272.051C71.4609 275.182 69.6152 277.137 67.0859 277.137C64.543 277.137 62.7109 275.182 62.7109 272.051C62.7109 268.92 64.543 266.965 67.0859 266.965C69.6152 266.965 71.4609 268.92 71.4609 272.051ZM70.2715 272.051C70.2715 269.494 68.877 268.113 67.0859 268.113C65.2949 268.113 63.9004 269.494 63.9004 272.051C63.9004 274.607 65.2949 275.988 67.0859 275.988C68.877 275.988 70.2715 274.607 70.2715 272.051ZM73.1152 279.789V269.576H74.25V270.752H74.3867C74.6328 270.355 75.0977 269.48 76.5332 269.48C78.3926 269.48 79.6914 270.957 79.6914 273.309C79.6914 275.66 78.3926 277.15 76.5469 277.15C75.125 277.15 74.6328 276.275 74.3867 275.865H74.291V279.789H73.1152ZM74.2637 273.281C74.2637 274.949 75.0156 276.098 76.3828 276.098C77.791 276.098 78.5156 274.867 78.5156 273.281C78.5156 271.736 77.8047 270.533 76.3828 270.533C74.9883 270.533 74.2637 271.641 74.2637 273.281ZM84.4629 269.576V270.561H82.9043V274.867C82.9043 275.824 83.3691 275.975 83.875 275.975C84.0938 275.975 84.3945 275.961 84.5723 275.947V277.041C84.3945 277.068 84.0938 277.096 83.752 277.096C82.7676 277.096 81.7148 276.48 81.7148 275.168V270.561H80.5938V269.576H81.7148V267.799H82.9043V269.576H84.4629ZM85.9805 277V269.576H87.1562V277H85.9805ZM86.5684 268.346C86.1172 268.346 85.748 268.004 85.748 267.566C85.748 267.129 86.1172 266.787 86.5684 266.787C87.0195 266.787 87.4023 267.129 87.4023 267.566C87.4023 268.004 87.0195 268.346 86.5684 268.346ZM92.0645 277.15C90.041 277.15 88.6738 275.633 88.6738 273.322C88.6738 271.012 90.041 269.48 92.0645 269.48C94.0742 269.48 95.4277 271.012 95.4277 273.322C95.4277 275.633 94.0742 277.15 92.0645 277.15ZM92.0645 276.111C93.5547 276.111 94.252 274.799 94.252 273.322C94.252 271.846 93.5547 270.52 92.0645 270.52C90.5469 270.52 89.8496 271.846 89.8496 273.322C89.8496 274.799 90.5469 276.111 92.0645 276.111ZM98.1484 272.543V277H96.9727V269.576H98.1074V270.738H98.2031C98.5586 269.986 99.2422 269.48 100.377 269.48C101.881 269.48 102.879 270.396 102.879 272.283V277H101.703V272.365C101.703 271.217 101.074 270.533 100.021 270.533C98.9414 270.533 98.1484 271.258 98.1484 272.543Z" fill="var(--sol-element-primary)"/>
<path d="M65.5742 295H62.9375V286.516H65.6797C68.1523 286.516 69.6172 288.109 69.6172 290.746C69.6172 293.395 68.1523 295 65.5742 295ZM63.9922 294.062H65.5039C67.5898 294.062 68.5859 292.809 68.5859 290.746C68.5859 288.695 67.5898 287.453 65.6094 287.453H63.9922V294.062ZM73.707 295.129C71.8672 295.129 70.7305 293.828 70.7305 291.871C70.7305 289.914 71.8789 288.555 73.6133 288.555C74.9492 288.555 76.3555 289.375 76.3555 291.73V292.152H71.7383C71.7852 293.5 72.5703 294.238 73.707 294.238C74.4688 294.238 74.9492 293.91 75.1836 293.512H76.2617C75.957 294.473 75.0195 295.129 73.707 295.129ZM71.75 291.297H75.3359C75.3359 290.23 74.6562 289.445 73.6133 289.445C72.5117 289.445 71.8086 290.312 71.75 291.297ZM81.207 290.289C81.0664 289.762 80.668 289.41 79.918 289.41C79.1328 289.41 78.5703 289.832 78.5703 290.371C78.5703 290.793 78.9102 291.086 79.6602 291.262L80.6094 291.496C81.7461 291.766 82.3086 292.328 82.3086 293.219C82.3086 294.32 81.4062 295.129 79.8125 295.129C78.3828 295.129 77.5273 294.496 77.3633 293.336H78.418C78.5352 293.957 78.9922 294.25 79.7891 294.25C80.6914 294.25 81.2656 293.875 81.2656 293.277C81.2656 292.832 80.9492 292.527 80.2227 292.363L79.2617 292.141C78.1484 291.883 77.5625 291.273 77.5625 290.43C77.5625 289.34 78.5117 288.555 79.918 288.555C81.2305 288.555 82.0625 289.258 82.1914 290.289H81.207ZM86.2227 295.129C84.418 295.129 83.3164 293.758 83.3164 291.848C83.3164 289.914 84.4648 288.555 86.1992 288.555C87.5586 288.555 88.5664 289.352 88.7305 290.559H87.7227C87.582 289.973 87.0664 289.445 86.2227 289.445C85.0859 289.445 84.3242 290.383 84.3242 291.812C84.3242 293.289 85.0625 294.227 86.2227 294.227C86.9727 294.227 87.5469 293.828 87.7227 293.125H88.7305C88.5664 294.262 87.6406 295.129 86.2227 295.129ZM89.9727 295V288.637H90.9453V289.609H91.0156C91.25 288.965 91.9062 288.531 92.6562 288.531C92.8086 288.531 93.0664 288.543 93.1836 288.555V289.574C93.1133 289.551 92.832 289.504 92.5742 289.504C91.6602 289.504 90.9805 290.137 90.9805 290.992V295H89.9727ZM94.168 295V288.637H95.1758V295H94.168ZM94.6719 287.582C94.2852 287.582 93.9688 287.289 93.9688 286.914C93.9688 286.539 94.2852 286.246 94.6719 286.246C95.0586 286.246 95.3867 286.539 95.3867 286.914C95.3867 287.289 95.0586 287.582 94.6719 287.582ZM96.7812 297.391V288.637H97.7539V289.645H97.8711C98.082 289.305 98.4805 288.555 99.7109 288.555C101.305 288.555 102.418 289.82 102.418 291.836C102.418 293.852 101.305 295.129 99.7227 295.129C98.5039 295.129 98.082 294.379 97.8711 294.027H97.7891V297.391H96.7812ZM97.7656 291.812C97.7656 293.242 98.4102 294.227 99.582 294.227C100.789 294.227 101.41 293.172 101.41 291.812C101.41 290.488 100.801 289.457 99.582 289.457C98.3867 289.457 97.7656 290.406 97.7656 291.812ZM106.508 288.637V289.48H105.172V293.172C105.172 293.992 105.57 294.121 106.004 294.121C106.191 294.121 106.449 294.109 106.602 294.098V295.035C106.449 295.059 106.191 295.082 105.898 295.082C105.055 295.082 104.152 294.555 104.152 293.43V289.48H103.191V288.637H104.152V287.113H105.172V288.637H106.508ZM107.809 295V288.637H108.816V295H107.809ZM108.312 287.582C107.926 287.582 107.609 287.289 107.609 286.914C107.609 286.539 107.926 286.246 108.312 286.246C108.699 286.246 109.027 286.539 109.027 286.914C109.027 287.289 108.699 287.582 108.312 287.582ZM113.023 295.129C111.289 295.129 110.117 293.828 110.117 291.848C110.117 289.867 111.289 288.555 113.023 288.555C114.746 288.555 115.906 289.867 115.906 291.848C115.906 293.828 114.746 295.129 113.023 295.129ZM113.023 294.238C114.301 294.238 114.898 293.113 114.898 291.848C114.898 290.582 114.301 289.445 113.023 289.445C111.723 289.445 111.125 290.582 111.125 291.848C111.125 293.113 111.723 294.238 113.023 294.238ZM118.238 291.18V295H117.23V288.637H118.203V289.633H118.285C118.59 288.988 119.176 288.555 120.148 288.555C121.438 288.555 122.293 289.34 122.293 290.957V295H121.285V291.027C121.285 290.043 120.746 289.457 119.844 289.457C118.918 289.457 118.238 290.078 118.238 291.18Z" fill="var(--sol-element-tertiary)"/>
<g clip-path="url(#clip12_1671_178998)">
<rect x="350" y="270" width="30" height="20" rx="10" fill="var(--sol-fill-active)"/>
<circle cx="370" cy="280" r="7" fill="var(--sol-surface)"/>
</g>
<path d="M71.4609 320.051C71.4609 323.182 69.6152 325.137 67.0859 325.137C64.543 325.137 62.7109 323.182 62.7109 320.051C62.7109 316.92 64.543 314.965 67.0859 314.965C69.6152 314.965 71.4609 316.92 71.4609 320.051ZM70.2715 320.051C70.2715 317.494 68.877 316.113 67.0859 316.113C65.2949 316.113 63.9004 317.494 63.9004 320.051C63.9004 322.607 65.2949 323.988 67.0859 323.988C68.877 323.988 70.2715 322.607 70.2715 320.051ZM73.1152 327.789V317.576H74.25V318.752H74.3867C74.6328 318.355 75.0977 317.48 76.5332 317.48C78.3926 317.48 79.6914 318.957 79.6914 321.309C79.6914 323.66 78.3926 325.15 76.5469 325.15C75.125 325.15 74.6328 324.275 74.3867 323.865H74.291V327.789H73.1152ZM74.2637 321.281C74.2637 322.949 75.0156 324.098 76.3828 324.098C77.791 324.098 78.5156 322.867 78.5156 321.281C78.5156 319.736 77.8047 318.533 76.3828 318.533C74.9883 318.533 74.2637 319.641 74.2637 321.281ZM84.4629 317.576V318.561H82.9043V322.867C82.9043 323.824 83.3691 323.975 83.875 323.975C84.0938 323.975 84.3945 323.961 84.5723 323.947V325.041C84.3945 325.068 84.0938 325.096 83.752 325.096C82.7676 325.096 81.7148 324.48 81.7148 323.168V318.561H80.5938V317.576H81.7148V315.799H82.9043V317.576H84.4629ZM85.9805 325V317.576H87.1562V325H85.9805ZM86.5684 316.346C86.1172 316.346 85.748 316.004 85.748 315.566C85.748 315.129 86.1172 314.787 86.5684 314.787C87.0195 314.787 87.4023 315.129 87.4023 315.566C87.4023 316.004 87.0195 316.346 86.5684 316.346ZM92.0645 325.15C90.041 325.15 88.6738 323.633 88.6738 321.322C88.6738 319.012 90.041 317.48 92.0645 317.48C94.0742 317.48 95.4277 319.012 95.4277 321.322C95.4277 323.633 94.0742 325.15 92.0645 325.15ZM92.0645 324.111C93.5547 324.111 94.252 322.799 94.252 321.322C94.252 319.846 93.5547 318.52 92.0645 318.52C90.5469 318.52 89.8496 319.846 89.8496 321.322C89.8496 322.799 90.5469 324.111 92.0645 324.111ZM98.1484 320.543V325H96.9727V317.576H98.1074V318.738H98.2031C98.5586 317.986 99.2422 317.48 100.377 317.48C101.881 317.48 102.879 318.396 102.879 320.283V325H101.703V320.365C101.703 319.217 101.074 318.533 100.021 318.533C98.9414 318.533 98.1484 319.258 98.1484 320.543Z" fill="var(--sol-element-primary)"/>
<g clip-path="url(#clip13_1671_178998)">
<rect x="350" y="310" width="30" height="20" rx="10" fill="var(--sol-fill-active)"/>
<circle cx="370" cy="320" r="7" fill="var(--sol-surface)"/>
</g>
</g>
<defs>
<clipPath id="clip0_1671_178998">
<rect width="95.3333" height="96" fill="var(--sol-surface)" transform="translate(62 64)"/>
</clipPath>
<clipPath id="clip1_1671_178998">
<path d="M65.332 75.334C65.332 74.2294 66.2275 73.334 67.332 73.334H76.6654C77.7699 73.334 78.6654 74.2294 78.6654 75.334V84.6673C78.6654 85.7719 77.7699 86.6673 76.6654 86.6673H67.332C66.2275 86.6673 65.332 85.7719 65.332 84.6673V75.334Z" fill="var(--sol-surface)"/>
</clipPath>
<clipPath id="clip2_1671_178998">
<path d="M65.332 107.334C65.332 106.229 66.2275 105.334 67.332 105.334H76.6654C77.7699 105.334 78.6654 106.229 78.6654 107.334V116.667C78.6654 117.772 77.7699 118.667 76.6654 118.667H67.332C66.2275 118.667 65.332 117.772 65.332 116.667V107.334Z" fill="var(--sol-surface)"/>
</clipPath>
<clipPath id="clip3_1671_178998">
<path d="M65.332 139.334C65.332 138.229 66.2275 137.334 67.332 137.334H76.6654C77.7699 137.334 78.6654 138.229 78.6654 139.334V148.667C78.6654 149.772 77.7699 150.667 76.6654 150.667H67.332C66.2275 150.667 65.332 149.772 65.332 148.667V139.334Z" fill="var(--sol-surface)"/>
</clipPath>
<clipPath id="clip4_1671_178998">
<rect width="95.3333" height="96" fill="var(--sol-surface)" transform="translate(173.332 64)"/>
</clipPath>
<clipPath id="clip5_1671_178998">
<path d="M176.664 75.334C176.664 74.2294 177.559 73.334 178.664 73.334H187.997C189.102 73.334 189.997 74.2294 189.997 75.334V84.6673C189.997 85.7719 189.102 86.6673 187.997 86.6673H178.664C177.559 86.6673 176.664 85.7719 176.664 84.6673V75.334Z" fill="var(--sol-surface)"/>
</clipPath>
<clipPath id="clip6_1671_178998">
<path d="M176.664 107.334C176.664 106.229 177.559 105.334 178.664 105.334H187.997C189.102 105.334 189.997 106.229 189.997 107.334V116.667C189.997 117.772 189.102 118.667 187.997 118.667H178.664C177.559 118.667 176.664 117.772 176.664 116.667V107.334Z" fill="var(--sol-surface)"/>
</clipPath>
<clipPath id="clip7_1671_178998">
<path d="M176.664 139.334C176.664 138.229 177.559 137.334 178.664 137.334H187.997C189.102 137.334 189.997 138.229 189.997 139.334V148.667C189.997 149.772 189.102 150.667 187.997 150.667H178.664C177.559 150.667 176.664 149.772 176.664 148.667V139.334Z" fill="var(--sol-surface)"/>
</clipPath>
<clipPath id="clip8_1671_178998">
<rect width="95.3333" height="32" fill="var(--sol-surface)" transform="translate(284.668 64)"/>
</clipPath>
<clipPath id="clip9_1671_178998">
<path d="M288 75.334C288 74.2294 288.895 73.334 290 73.334H299.333C300.438 73.334 301.333 74.2294 301.333 75.334V84.6673C301.333 85.7719 300.438 86.6673 299.333 86.6673H290C288.895 86.6673 288 85.7719 288 84.6673V75.334Z" fill="var(--sol-surface)"/>
</clipPath>
<clipPath id="clip10_1671_178998">
<rect width="318" height="112" fill="var(--sol-surface)" transform="translate(62 224)"/>
</clipPath>
<clipPath id="clip11_1671_178998">
<rect x="350" y="230" width="30" height="20" rx="10" fill="var(--sol-surface)"/>
</clipPath>
<clipPath id="clip12_1671_178998">
<rect x="350" y="270" width="30" height="20" rx="10" fill="var(--sol-surface)"/>
</clipPath>
<clipPath id="clip13_1671_178998">
<rect x="350" y="310" width="30" height="20" rx="10" fill="var(--sol-surface)"/>
</clipPath>
</defs>
</svg>
