<svg width="442" height="228" viewBox="0 0 442 228" fill="none" xmlns="http://www.w3.org/2000/svg">
<style>
:root {
  --sol-element-primary: #161616;
  --sol-element-tertiary: #636363;
  --sol-fill-active: #4d469a;
  --sol-surface: #ffffff;
  --sol-error: #e76067;
}
@media (prefers-color-scheme: dark) {
  :root {
    --sol-element-primary: #ffffff;
    --sol-element-tertiary: rgba(255, 255, 255, 0.6);
    --sol-fill-active: #7b74c4;
    --sol-surface: #161616;
    --sol-error: #ee7a80;
  }
}
</style>
<g clip-path="url(#clip0_1671_178922)">
<g filter="url(#filter0_dd_1671_178922)">
<rect width="370" height="228" transform="translate(36)" fill="var(--sol-surface)"/>
<g clip-path="url(#clip1_1671_178922)">
<g clip-path="url(#clip2_1671_178922)">
<rect x="72" y="26" width="30" height="20" rx="10" fill="var(--sol-fill-active)"/>
<circle cx="92" cy="36" r="7" fill="var(--sol-surface)"/>
</g>
<path d="M121.848 34.1914C121.424 32.9199 120.453 32.1133 119.045 32.1133C117.295 32.1133 115.9 33.4941 115.9 36.0508C115.9 38.6074 117.295 39.9883 119.127 39.9883C120.802 39.9883 121.943 38.8672 121.971 37.1172H119.387V36.0371H123.174V37.1035C123.174 39.5645 121.479 41.1367 119.127 41.1367C116.488 41.1367 114.711 39.1816 114.711 36.0508C114.711 32.9199 116.502 30.9648 119.045 30.9648C121.137 30.9648 122.75 32.2773 123.119 34.1914H121.848ZM124.514 38.8945C124.514 37.1855 126.018 36.8027 127.303 36.707C127.774 36.6729 128.978 36.6113 129.312 36.5977V35.9961C129.312 35.0527 128.752 34.5059 127.631 34.5059C126.688 34.5059 126.127 34.9434 125.963 35.5039H124.732C124.883 34.3145 126.045 33.4805 127.686 33.4805C128.656 33.4805 130.475 33.7676 130.475 36.1055V41H129.312V39.9883H129.258C129.012 40.4941 128.328 41.1777 127.043 41.1777C125.635 41.1777 124.514 40.3438 124.514 38.8945ZM125.689 38.9492C125.689 39.7285 126.346 40.125 127.248 40.125C128.574 40.125 129.312 39.2363 129.312 38.3066V37.5547L127.439 37.6914C126.373 37.7598 125.689 38.1426 125.689 38.9492ZM135.602 33.5762V34.5605H134.043V38.8672C134.043 39.8242 134.508 39.9746 135.014 39.9746C135.232 39.9746 135.533 39.9609 135.711 39.9473V41.041C135.533 41.0684 135.232 41.0957 134.891 41.0957C133.906 41.0957 132.854 40.4805 132.854 39.168V34.5605H131.732V33.5762H132.854V31.7988H134.043V33.5762H135.602ZM140.168 41.1504C138.021 41.1504 136.695 39.6328 136.695 37.3496C136.695 35.0664 138.035 33.4805 140.059 33.4805C141.617 33.4805 143.258 34.4375 143.258 37.1855V37.6777H137.871C137.926 39.25 138.842 40.1113 140.168 40.1113C141.057 40.1113 141.617 39.7285 141.891 39.2637H143.148C142.793 40.3848 141.699 41.1504 140.168 41.1504ZM137.885 36.6797H142.068C142.068 35.4355 141.275 34.5195 140.059 34.5195C138.773 34.5195 137.953 35.5312 137.885 36.6797ZM146.457 41L144.201 33.5762H145.445L147.031 39.2363H147.1L148.672 33.5762H149.93L151.475 39.209H151.557L153.143 33.5762H154.373L152.117 41H150.955L149.342 35.3398H149.232L147.633 41H146.457ZM155.316 38.8945C155.316 37.1855 156.82 36.8027 158.105 36.707C158.577 36.6729 159.78 36.6113 160.115 36.5977V35.9961C160.115 35.0527 159.555 34.5059 158.434 34.5059C157.49 34.5059 156.93 34.9434 156.766 35.5039H155.535C155.686 34.3145 156.848 33.4805 158.488 33.4805C159.459 33.4805 161.277 33.7676 161.277 36.1055V41H160.115V39.9883H160.061C159.814 40.4941 159.131 41.1777 157.846 41.1777C156.438 41.1777 155.316 40.3438 155.316 38.8945ZM156.492 38.9492C156.492 39.7285 157.148 40.125 158.051 40.125C159.377 40.125 160.115 39.2363 160.115 38.3066V37.5547L158.242 37.6914C157.176 37.7598 156.492 38.1426 156.492 38.9492ZM163.643 43.7891C163.383 43.7891 163.137 43.7754 162.986 43.7617V42.709C163.109 42.7227 163.383 42.7363 163.561 42.7363C164.039 42.7363 164.436 42.6953 164.832 41.6152L165.051 41.0547L162.303 33.5762H163.588L165.611 39.4688H165.693L167.717 33.5762H169.002L165.857 42.0664C165.42 43.2285 164.695 43.7891 163.643 43.7891Z" fill="var(--sol-element-primary)"/>
<g clip-path="url(#clip3_1671_178922)">
<rect x="72" y="66" width="30" height="20" rx="10" fill="var(--sol-fill-active)"/>
<circle cx="92" cy="76" r="7" fill="var(--sol-surface)"/>
</g>
<path d="M115.094 81V71.1016H118.566C120.645 71.1016 121.615 72.2637 121.615 73.7266C121.615 74.998 120.863 75.5723 120.002 75.8047V75.9004C120.918 75.9551 122.012 76.8027 122.012 78.375C122.012 79.8652 121.027 81 118.689 81H115.094ZM118.676 79.9062C120.221 79.9062 120.822 79.2227 120.822 78.3613C120.822 77.3496 120.016 76.502 118.744 76.502H116.324V79.9062H118.676ZM118.525 75.4355C119.592 75.4355 120.439 74.7793 120.439 73.7402C120.439 72.8789 119.865 72.1953 118.566 72.1953H116.324V75.4355H118.525ZM123.762 81V71.1016H124.992V79.9062H129.586V81H123.762ZM131.227 81V71.1016H137.229V72.1953H132.457V75.5039H136.914V76.584H132.457V79.9062H137.297V81H131.227Z" fill="var(--sol-element-primary)"/>
</g>
<g clip-path="url(#clip4_1671_178922)">
<path d="M81.4609 128.051C81.4609 131.182 79.6152 133.137 77.0859 133.137C74.543 133.137 72.7109 131.182 72.7109 128.051C72.7109 124.92 74.543 122.965 77.0859 122.965C79.6152 122.965 81.4609 124.92 81.4609 128.051ZM80.2715 128.051C80.2715 125.494 78.877 124.113 77.0859 124.113C75.2949 124.113 73.9004 125.494 73.9004 128.051C73.9004 130.607 75.2949 131.988 77.0859 131.988C78.877 131.988 80.2715 130.607 80.2715 128.051ZM83.1152 135.789V125.576H84.25V126.752H84.3867C84.6328 126.355 85.0977 125.48 86.5332 125.48C88.3926 125.48 89.6914 126.957 89.6914 129.309C89.6914 131.66 88.3926 133.15 86.5469 133.15C85.125 133.15 84.6328 132.275 84.3867 131.865H84.291V135.789H83.1152ZM84.2637 129.281C84.2637 130.949 85.0156 132.098 86.3828 132.098C87.791 132.098 88.5156 130.867 88.5156 129.281C88.5156 127.736 87.8047 126.533 86.3828 126.533C84.9883 126.533 84.2637 127.641 84.2637 129.281ZM94.4629 125.576V126.561H92.9043V130.867C92.9043 131.824 93.3691 131.975 93.875 131.975C94.0938 131.975 94.3945 131.961 94.5723 131.947V133.041C94.3945 133.068 94.0938 133.096 93.752 133.096C92.7676 133.096 91.7148 132.48 91.7148 131.168V126.561H90.5938V125.576H91.7148V123.799H92.9043V125.576H94.4629ZM95.9805 133V125.576H97.1562V133H95.9805ZM96.5684 124.346C96.1172 124.346 95.748 124.004 95.748 123.566C95.748 123.129 96.1172 122.787 96.5684 122.787C97.0195 122.787 97.4023 123.129 97.4023 123.566C97.4023 124.004 97.0195 124.346 96.5684 124.346ZM102.064 133.15C100.041 133.15 98.6738 131.633 98.6738 129.322C98.6738 127.012 100.041 125.48 102.064 125.48C104.074 125.48 105.428 127.012 105.428 129.322C105.428 131.633 104.074 133.15 102.064 133.15ZM102.064 132.111C103.555 132.111 104.252 130.799 104.252 129.322C104.252 127.846 103.555 126.52 102.064 126.52C100.547 126.52 99.8496 127.846 99.8496 129.322C99.8496 130.799 100.547 132.111 102.064 132.111ZM108.148 128.543V133H106.973V125.576H108.107V126.738H108.203C108.559 125.986 109.242 125.48 110.377 125.48C111.881 125.48 112.879 126.396 112.879 128.283V133H111.703V128.365C111.703 127.217 111.074 126.533 110.021 126.533C108.941 126.533 108.148 127.258 108.148 128.543Z" fill="var(--sol-element-primary)"/>
<g clip-path="url(#clip5_1671_178922)">
<path d="M167.332 128.001C167.332 124.319 170.317 121.334 173.999 121.334V121.334C177.681 121.334 180.665 124.319 180.665 128.001V128.001C180.665 131.683 177.681 134.667 173.999 134.667V134.667C170.317 134.667 167.332 131.683 167.332 128.001V128.001Z" fill="var(--sol-fill-active)"/>
<circle cx="173.997" cy="128.001" r="3.33333" fill="var(--sol-surface)"/>
</g>
<path d="M81.4609 160.051C81.4609 163.182 79.6152 165.137 77.0859 165.137C74.543 165.137 72.7109 163.182 72.7109 160.051C72.7109 156.92 74.543 154.965 77.0859 154.965C79.6152 154.965 81.4609 156.92 81.4609 160.051ZM80.2715 160.051C80.2715 157.494 78.877 156.113 77.0859 156.113C75.2949 156.113 73.9004 157.494 73.9004 160.051C73.9004 162.607 75.2949 163.988 77.0859 163.988C78.877 163.988 80.2715 162.607 80.2715 160.051ZM83.1152 167.789V157.576H84.25V158.752H84.3867C84.6328 158.355 85.0977 157.48 86.5332 157.48C88.3926 157.48 89.6914 158.957 89.6914 161.309C89.6914 163.66 88.3926 165.15 86.5469 165.15C85.125 165.15 84.6328 164.275 84.3867 163.865H84.291V167.789H83.1152ZM84.2637 161.281C84.2637 162.949 85.0156 164.098 86.3828 164.098C87.791 164.098 88.5156 162.867 88.5156 161.281C88.5156 159.736 87.8047 158.533 86.3828 158.533C84.9883 158.533 84.2637 159.641 84.2637 161.281ZM94.4629 157.576V158.561H92.9043V162.867C92.9043 163.824 93.3691 163.975 93.875 163.975C94.0938 163.975 94.3945 163.961 94.5723 163.947V165.041C94.3945 165.068 94.0938 165.096 93.752 165.096C92.7676 165.096 91.7148 164.48 91.7148 163.168V158.561H90.5938V157.576H91.7148V155.799H92.9043V157.576H94.4629ZM95.9805 165V157.576H97.1562V165H95.9805ZM96.5684 156.346C96.1172 156.346 95.748 156.004 95.748 155.566C95.748 155.129 96.1172 154.787 96.5684 154.787C97.0195 154.787 97.4023 155.129 97.4023 155.566C97.4023 156.004 97.0195 156.346 96.5684 156.346ZM102.064 165.15C100.041 165.15 98.6738 163.633 98.6738 161.322C98.6738 159.012 100.041 157.48 102.064 157.48C104.074 157.48 105.428 159.012 105.428 161.322C105.428 163.633 104.074 165.15 102.064 165.15ZM102.064 164.111C103.555 164.111 104.252 162.799 104.252 161.322C104.252 159.846 103.555 158.52 102.064 158.52C100.547 158.52 99.8496 159.846 99.8496 161.322C99.8496 162.799 100.547 164.111 102.064 164.111ZM108.148 160.543V165H106.973V157.576H108.107V158.738H108.203C108.559 157.986 109.242 157.48 110.377 157.48C111.881 157.48 112.879 158.396 112.879 160.283V165H111.703V160.365C111.703 159.217 111.074 158.533 110.021 158.533C108.941 158.533 108.148 159.258 108.148 160.543Z" fill="var(--sol-element-primary)"/>
<path d="M167.332 160.001C167.332 156.319 170.317 153.334 173.999 153.334V153.334C177.681 153.334 180.665 156.319 180.665 160.001V160.001C180.665 163.683 177.681 166.667 173.999 166.667V166.667C170.317 166.667 167.332 163.683 167.332 160.001V160.001Z" fill="var(--sol-surface)"/>
<path d="M173.999 153.834C177.405 153.834 180.165 156.595 180.165 160.001C180.165 163.406 177.405 166.167 173.999 166.167C170.593 166.167 167.832 163.407 167.832 160.001C167.832 156.595 170.593 153.834 173.999 153.834Z" stroke="var(--sol-element-primary)" stroke-opacity="0.16"/>
<path d="M81.4609 192.051C81.4609 195.182 79.6152 197.137 77.0859 197.137C74.543 197.137 72.7109 195.182 72.7109 192.051C72.7109 188.92 74.543 186.965 77.0859 186.965C79.6152 186.965 81.4609 188.92 81.4609 192.051ZM80.2715 192.051C80.2715 189.494 78.877 188.113 77.0859 188.113C75.2949 188.113 73.9004 189.494 73.9004 192.051C73.9004 194.607 75.2949 195.988 77.0859 195.988C78.877 195.988 80.2715 194.607 80.2715 192.051ZM83.1152 199.789V189.576H84.25V190.752H84.3867C84.6328 190.355 85.0977 189.48 86.5332 189.48C88.3926 189.48 89.6914 190.957 89.6914 193.309C89.6914 195.66 88.3926 197.15 86.5469 197.15C85.125 197.15 84.6328 196.275 84.3867 195.865H84.291V199.789H83.1152ZM84.2637 193.281C84.2637 194.949 85.0156 196.098 86.3828 196.098C87.791 196.098 88.5156 194.867 88.5156 193.281C88.5156 191.736 87.8047 190.533 86.3828 190.533C84.9883 190.533 84.2637 191.641 84.2637 193.281ZM94.4629 189.576V190.561H92.9043V194.867C92.9043 195.824 93.3691 195.975 93.875 195.975C94.0938 195.975 94.3945 195.961 94.5723 195.947V197.041C94.3945 197.068 94.0938 197.096 93.752 197.096C92.7676 197.096 91.7148 196.48 91.7148 195.168V190.561H90.5938V189.576H91.7148V187.799H92.9043V189.576H94.4629ZM95.9805 197V189.576H97.1562V197H95.9805ZM96.5684 188.346C96.1172 188.346 95.748 188.004 95.748 187.566C95.748 187.129 96.1172 186.787 96.5684 186.787C97.0195 186.787 97.4023 187.129 97.4023 187.566C97.4023 188.004 97.0195 188.346 96.5684 188.346ZM102.064 197.15C100.041 197.15 98.6738 195.633 98.6738 193.322C98.6738 191.012 100.041 189.48 102.064 189.48C104.074 189.48 105.428 191.012 105.428 193.322C105.428 195.633 104.074 197.15 102.064 197.15ZM102.064 196.111C103.555 196.111 104.252 194.799 104.252 193.322C104.252 191.846 103.555 190.52 102.064 190.52C100.547 190.52 99.8496 191.846 99.8496 193.322C99.8496 194.799 100.547 196.111 102.064 196.111ZM108.148 192.543V197H106.973V189.576H108.107V190.738H108.203C108.559 189.986 109.242 189.48 110.377 189.48C111.881 189.48 112.879 190.396 112.879 192.283V197H111.703V192.365C111.703 191.217 111.074 190.533 110.021 190.533C108.941 190.533 108.148 191.258 108.148 192.543Z" fill="var(--sol-element-primary)"/>
<path d="M167.332 192.001C167.332 188.319 170.317 185.334 173.999 185.334V185.334C177.681 185.334 180.665 188.319 180.665 192.001V192.001C180.665 195.683 177.681 198.667 173.999 198.667V198.667C170.317 198.667 167.332 195.683 167.332 192.001V192.001Z" fill="var(--sol-surface)"/>
<path d="M173.999 185.834C177.405 185.834 180.165 188.595 180.165 192.001C180.165 195.406 177.405 198.167 173.999 198.167C170.593 198.167 167.832 195.407 167.832 192.001C167.832 188.595 170.593 185.834 173.999 185.834Z" stroke="var(--sol-element-primary)" stroke-opacity="0.16"/>
</g>
<g clip-path="url(#clip6_1671_178922)">
<path d="M238.461 128.051C238.461 131.182 236.615 133.137 234.086 133.137C231.543 133.137 229.711 131.182 229.711 128.051C229.711 124.92 231.543 122.965 234.086 122.965C236.615 122.965 238.461 124.92 238.461 128.051ZM237.271 128.051C237.271 125.494 235.877 124.113 234.086 124.113C232.295 124.113 230.9 125.494 230.9 128.051C230.9 130.607 232.295 131.988 234.086 131.988C235.877 131.988 237.271 130.607 237.271 128.051ZM240.115 135.789V125.576H241.25V126.752H241.387C241.633 126.355 242.098 125.48 243.533 125.48C245.393 125.48 246.691 126.957 246.691 129.309C246.691 131.66 245.393 133.15 243.547 133.15C242.125 133.15 241.633 132.275 241.387 131.865H241.291V135.789H240.115ZM241.264 129.281C241.264 130.949 242.016 132.098 243.383 132.098C244.791 132.098 245.516 130.867 245.516 129.281C245.516 127.736 244.805 126.533 243.383 126.533C241.988 126.533 241.264 127.641 241.264 129.281ZM251.463 125.576V126.561H249.904V130.867C249.904 131.824 250.369 131.975 250.875 131.975C251.094 131.975 251.395 131.961 251.572 131.947V133.041C251.395 133.068 251.094 133.096 250.752 133.096C249.768 133.096 248.715 132.48 248.715 131.168V126.561H247.594V125.576H248.715V123.799H249.904V125.576H251.463ZM252.98 133V125.576H254.156V133H252.98ZM253.568 124.346C253.117 124.346 252.748 124.004 252.748 123.566C252.748 123.129 253.117 122.787 253.568 122.787C254.02 122.787 254.402 123.129 254.402 123.566C254.402 124.004 254.02 124.346 253.568 124.346ZM259.064 133.15C257.041 133.15 255.674 131.633 255.674 129.322C255.674 127.012 257.041 125.48 259.064 125.48C261.074 125.48 262.428 127.012 262.428 129.322C262.428 131.633 261.074 133.15 259.064 133.15ZM259.064 132.111C260.555 132.111 261.252 130.799 261.252 129.322C261.252 127.846 260.555 126.52 259.064 126.52C257.547 126.52 256.85 127.846 256.85 129.322C256.85 130.799 257.547 132.111 259.064 132.111ZM265.148 128.543V133H263.973V125.576H265.107V126.738H265.203C265.559 125.986 266.242 125.48 267.377 125.48C268.881 125.48 269.879 126.396 269.879 128.283V133H268.703V128.365C268.703 127.217 268.074 126.533 267.021 126.533C265.941 126.533 265.148 127.258 265.148 128.543Z" fill="var(--sol-element-primary)"/>
<g clip-path="url(#clip7_1671_178922)">
<path d="M324.332 123.334C324.332 122.229 325.227 121.334 326.332 121.334H335.665C336.77 121.334 337.665 122.229 337.665 123.334V132.667C337.665 133.772 336.77 134.667 335.665 134.667H326.332C325.227 134.667 324.332 133.772 324.332 132.667V123.334Z" fill="var(--sol-fill-active)"/>
<path d="M336.046 125.269L329.881 131.434C329.636 131.678 329.241 131.679 328.997 131.434L325.953 128.391L326.837 127.507L329.438 130.109L335.163 124.385L336.046 125.269Z" fill="var(--sol-surface)"/>
</g>
<path d="M238.461 160.051C238.461 163.182 236.615 165.137 234.086 165.137C231.543 165.137 229.711 163.182 229.711 160.051C229.711 156.92 231.543 154.965 234.086 154.965C236.615 154.965 238.461 156.92 238.461 160.051ZM237.271 160.051C237.271 157.494 235.877 156.113 234.086 156.113C232.295 156.113 230.9 157.494 230.9 160.051C230.9 162.607 232.295 163.988 234.086 163.988C235.877 163.988 237.271 162.607 237.271 160.051ZM240.115 167.789V157.576H241.25V158.752H241.387C241.633 158.355 242.098 157.48 243.533 157.48C245.393 157.48 246.691 158.957 246.691 161.309C246.691 163.66 245.393 165.15 243.547 165.15C242.125 165.15 241.633 164.275 241.387 163.865H241.291V167.789H240.115ZM241.264 161.281C241.264 162.949 242.016 164.098 243.383 164.098C244.791 164.098 245.516 162.867 245.516 161.281C245.516 159.736 244.805 158.533 243.383 158.533C241.988 158.533 241.264 159.641 241.264 161.281ZM251.463 157.576V158.561H249.904V162.867C249.904 163.824 250.369 163.975 250.875 163.975C251.094 163.975 251.395 163.961 251.572 163.947V165.041C251.395 165.068 251.094 165.096 250.752 165.096C249.768 165.096 248.715 164.48 248.715 163.168V158.561H247.594V157.576H248.715V155.799H249.904V157.576H251.463ZM252.98 165V157.576H254.156V165H252.98ZM253.568 156.346C253.117 156.346 252.748 156.004 252.748 155.566C252.748 155.129 253.117 154.787 253.568 154.787C254.02 154.787 254.402 155.129 254.402 155.566C254.402 156.004 254.02 156.346 253.568 156.346ZM259.064 165.15C257.041 165.15 255.674 163.633 255.674 161.322C255.674 159.012 257.041 157.48 259.064 157.48C261.074 157.48 262.428 159.012 262.428 161.322C262.428 163.633 261.074 165.15 259.064 165.15ZM259.064 164.111C260.555 164.111 261.252 162.799 261.252 161.322C261.252 159.846 260.555 158.52 259.064 158.52C257.547 158.52 256.85 159.846 256.85 161.322C256.85 162.799 257.547 164.111 259.064 164.111ZM265.148 160.543V165H263.973V157.576H265.107V158.738H265.203C265.559 157.986 266.242 157.48 267.377 157.48C268.881 157.48 269.879 158.396 269.879 160.283V165H268.703V160.365C268.703 159.217 268.074 158.533 267.021 158.533C265.941 158.533 265.148 159.258 265.148 160.543Z" fill="var(--sol-element-primary)"/>
<g clip-path="url(#clip8_1671_178922)">
<path d="M324.332 155.334C324.332 154.229 325.227 153.334 326.332 153.334H335.665C336.77 153.334 337.665 154.229 337.665 155.334V164.667C337.665 165.772 336.77 166.667 335.665 166.667H326.332C325.227 166.667 324.332 165.772 324.332 164.667V155.334Z" fill="var(--sol-fill-active)"/>
<path d="M336.046 157.269L329.881 163.434C329.636 163.678 329.241 163.679 328.997 163.434L325.953 160.391L326.837 159.507L329.438 162.109L335.163 156.385L336.046 157.269Z" fill="var(--sol-surface)"/>
</g>
<path d="M238.461 192.051C238.461 195.182 236.615 197.137 234.086 197.137C231.543 197.137 229.711 195.182 229.711 192.051C229.711 188.92 231.543 186.965 234.086 186.965C236.615 186.965 238.461 188.92 238.461 192.051ZM237.271 192.051C237.271 189.494 235.877 188.113 234.086 188.113C232.295 188.113 230.9 189.494 230.9 192.051C230.9 194.607 232.295 195.988 234.086 195.988C235.877 195.988 237.271 194.607 237.271 192.051ZM240.115 199.789V189.576H241.25V190.752H241.387C241.633 190.355 242.098 189.48 243.533 189.48C245.393 189.48 246.691 190.957 246.691 193.309C246.691 195.66 245.393 197.15 243.547 197.15C242.125 197.15 241.633 196.275 241.387 195.865H241.291V199.789H240.115ZM241.264 193.281C241.264 194.949 242.016 196.098 243.383 196.098C244.791 196.098 245.516 194.867 245.516 193.281C245.516 191.736 244.805 190.533 243.383 190.533C241.988 190.533 241.264 191.641 241.264 193.281ZM251.463 189.576V190.561H249.904V194.867C249.904 195.824 250.369 195.975 250.875 195.975C251.094 195.975 251.395 195.961 251.572 195.947V197.041C251.395 197.068 251.094 197.096 250.752 197.096C249.768 197.096 248.715 196.48 248.715 195.168V190.561H247.594V189.576H248.715V187.799H249.904V189.576H251.463ZM252.98 197V189.576H254.156V197H252.98ZM253.568 188.346C253.117 188.346 252.748 188.004 252.748 187.566C252.748 187.129 253.117 186.787 253.568 186.787C254.02 186.787 254.402 187.129 254.402 187.566C254.402 188.004 254.02 188.346 253.568 188.346ZM259.064 197.15C257.041 197.15 255.674 195.633 255.674 193.322C255.674 191.012 257.041 189.48 259.064 189.48C261.074 189.48 262.428 191.012 262.428 193.322C262.428 195.633 261.074 197.15 259.064 197.15ZM259.064 196.111C260.555 196.111 261.252 194.799 261.252 193.322C261.252 191.846 260.555 190.52 259.064 190.52C257.547 190.52 256.85 191.846 256.85 193.322C256.85 194.799 257.547 196.111 259.064 196.111ZM265.148 192.543V197H263.973V189.576H265.107V190.738H265.203C265.559 189.986 266.242 189.48 267.377 189.48C268.881 189.48 269.879 190.396 269.879 192.283V197H268.703V192.365C268.703 191.217 268.074 190.533 267.021 190.533C265.941 190.533 265.148 191.258 265.148 192.543Z" fill="var(--sol-element-primary)"/>
<g clip-path="url(#clip9_1671_178922)">
<path d="M324.332 187.334C324.332 186.229 325.227 185.334 326.332 185.334H335.665C336.77 185.334 337.665 186.229 337.665 187.334V196.667C337.665 197.772 336.77 198.667 335.665 198.667H326.332C325.227 198.667 324.332 197.772 324.332 196.667V187.334Z" fill="var(--sol-fill-active)"/>
<path d="M336.046 189.269L329.881 195.434C329.636 195.678 329.241 195.679 328.997 195.434L325.953 192.391L326.837 191.507L329.438 194.109L335.163 188.385L336.046 189.269Z" fill="var(--sol-surface)"/>
</g>
</g>
</g>
</g>
<defs>
<filter id="filter0_dd_1671_178922" x="28" y="-4" width="386" height="244" filterUnits="userSpaceOnUse" color-interpolation-filters="sRGB">
<feFlood flood-opacity="0" result="BackgroundImageFix"/>
<feColorMatrix in="SourceAlpha" type="matrix" values="0 0 0 0 0 0 0 0 0 0 0 0 0 0 0 0 0 0 127 0" result="hardAlpha"/>
<feOffset dy="4"/>
<feGaussianBlur stdDeviation="4"/>
<feComposite in2="hardAlpha" operator="out"/>
<feColorMatrix type="matrix" values="0 0 0 0 0 0 0 0 0 0 0 0 0 0 0 0 0 0 0.08 0"/>
<feBlend mode="normal" in2="BackgroundImageFix" result="effect1_dropShadow_1671_178922"/>
<feColorMatrix in="SourceAlpha" type="matrix" values="0 0 0 0 0 0 0 0 0 0 0 0 0 0 0 0 0 0 127 0" result="hardAlpha"/>
<feOffset/>
<feGaussianBlur stdDeviation="0.5"/>
<feComposite in2="hardAlpha" operator="out"/>
<feColorMatrix type="matrix" values="0 0 0 0 0 0 0 0 0 0 0 0 0 0 0 0 0 0 0.08 0"/>
<feBlend mode="normal" in2="effect1_dropShadow_1671_178922" result="effect2_dropShadow_1671_178922"/>
<feBlend mode="normal" in="SourceGraphic" in2="effect2_dropShadow_1671_178922" result="shape"/>
</filter>
<clipPath id="clip0_1671_178922">
<path d="M0 8C0 3.58172 3.58172 0 8 0H434C438.418 0 442 3.58172 442 8V220C442 224.418 438.418 228 434 228H8C3.58172 228 0 224.418 0 220V8Z" fill="var(--sol-surface)"/>
</clipPath>
<clipPath id="clip1_1671_178922">
<rect width="298" height="72" fill="var(--sol-surface)" transform="translate(72 20)"/>
</clipPath>
<clipPath id="clip2_1671_178922">
<rect x="72" y="26" width="30" height="20" rx="10" fill="var(--sol-surface)"/>
</clipPath>
<clipPath id="clip3_1671_178922">
<rect x="72" y="66" width="30" height="20" rx="10" fill="var(--sol-surface)"/>
</clipPath>
<clipPath id="clip4_1671_178922">
<rect width="141" height="96" fill="var(--sol-surface)" transform="translate(72 112)"/>
</clipPath>
<clipPath id="clip5_1671_178922">
<path d="M167.332 128.001C167.332 124.319 170.317 121.334 173.999 121.334V121.334C177.681 121.334 180.665 124.319 180.665 128.001V128.001C180.665 131.683 177.681 134.667 173.999 134.667V134.667C170.317 134.667 167.332 131.683 167.332 128.001V128.001Z" fill="var(--sol-surface)"/>
</clipPath>
<clipPath id="clip6_1671_178922">
<rect width="141" height="96" fill="var(--sol-surface)" transform="translate(229 112)"/>
</clipPath>
<clipPath id="clip7_1671_178922">
<path d="M324.332 123.334C324.332 122.229 325.227 121.334 326.332 121.334H335.665C336.77 121.334 337.665 122.229 337.665 123.334V132.667C337.665 133.772 336.77 134.667 335.665 134.667H326.332C325.227 134.667 324.332 133.772 324.332 132.667V123.334Z" fill="var(--sol-surface)"/>
</clipPath>
<clipPath id="clip8_1671_178922">
<path d="M324.332 155.334C324.332 154.229 325.227 153.334 326.332 153.334H335.665C336.77 153.334 337.665 154.229 337.665 155.334V164.667C337.665 165.772 336.77 166.667 335.665 166.667H326.332C325.227 166.667 324.332 165.772 324.332 164.667V155.334Z" fill="var(--sol-surface)"/>
</clipPath>
<clipPath id="clip9_1671_178922">
<path d="M324.332 187.334C324.332 186.229 325.227 185.334 326.332 185.334H335.665C336.77 185.334 337.665 186.229 337.665 187.334V196.667C337.665 197.772 336.77 198.667 335.665 198.667H326.332C325.227 198.667 324.332 197.772 324.332 196.667V187.334Z" fill="var(--sol-surface)"/>
</clipPath>
</defs>
</svg>
