<svg width="900" height="447" viewBox="0 0 900 447" fill="none" xmlns="http://www.w3.org/2000/svg">
<g clip-path="url(#clip0_1702_184778)">
<g clip-path="url(#clip1_1702_184778)">
<path d="M118 52C118 49.7909 119.791 48 122 48H778C780.209 48 782 49.7909 782 52V339C782 341.209 780.209 343 778 343H122C119.791 343 118 341.209 118 339V52Z" fill="white"/>
<path d="M132.531 80H130.359L134.344 68.6875H136.844L140.844 80H138.672L137.734 77.2031H133.469L132.531 80ZM134.016 75.5625H137.188L135.641 71H135.547L134.016 75.5625ZM144.094 68.6875V80H142.094V68.6875H144.094ZM148 68.6875V80H146V68.6875H148Z" fill="#636363"/>
<path d="M165.453 68.6875V80H163.641L158.281 72.2656H158.188V80H156.156V68.6875H158L163.328 76.4219H163.438V68.6875H165.453ZM176.844 68.6875V80H175.031L169.672 72.2656H169.578V80H167.547V68.6875H169.391L174.719 76.4219H174.828V68.6875H176.844Z" fill="#282363"/>
<path d="M190 68.5C190 68.2239 190.224 68 190.5 68V68C190.776 68 191 68.2239 191 68.5L191 79.5C191 79.7761 190.776 80 190.5 80V80C190.224 80 190 79.7761 190 79.5L190 68.5Z" fill="#E0E0E0"/>
<path d="M208.062 68.6875V80H206.641V70.1562H206.578L203.828 71.9844V70.5625L206.641 68.6875H208.062ZM214.781 80.1562C212.266 80.1562 210.828 78.0469 210.828 74.3438C210.828 70.6719 212.297 68.5312 214.781 68.5312C217.266 68.5312 218.734 70.6719 218.734 74.3438C218.734 78.0469 217.281 80.1562 214.781 80.1562ZM214.781 78.9062C216.406 78.9062 217.359 77.2656 217.359 74.3438C217.359 71.4219 216.406 69.75 214.781 69.75C213.156 69.75 212.188 71.4219 212.188 74.3438C212.188 77.2656 213.141 78.9062 214.781 78.9062ZM224.641 83.1875V71.5156H225.938V72.8594H226.094C226.375 72.4062 226.906 71.4062 228.547 71.4062C230.672 71.4062 232.156 73.0938 232.156 75.7812C232.156 78.4688 230.672 80.1719 228.562 80.1719C226.938 80.1719 226.375 79.1719 226.094 78.7031H225.984V83.1875H224.641ZM225.953 75.75C225.953 77.6562 226.812 78.9688 228.375 78.9688C229.984 78.9688 230.812 77.5625 230.812 75.75C230.812 73.9844 230 72.6094 228.375 72.6094C226.781 72.6094 225.953 73.875 225.953 75.75ZM237.469 80.1719C235.016 80.1719 233.5 78.4375 233.5 75.8281C233.5 73.2188 235.031 71.4062 237.344 71.4062C239.125 71.4062 241 72.5 241 75.6406V76.2031H234.844C234.906 78 235.953 78.9844 237.469 78.9844C238.484 78.9844 239.125 78.5469 239.438 78.0156H240.875C240.469 79.2969 239.219 80.1719 237.469 80.1719ZM234.859 75.0625H239.641C239.641 73.6406 238.734 72.5938 237.344 72.5938C235.875 72.5938 234.938 73.75 234.859 75.0625ZM242.75 80V71.5156H244.047V72.8125H244.141C244.453 71.9531 245.328 71.375 246.328 71.375C246.531 71.375 246.875 71.3906 247.031 71.4062V72.7656C246.938 72.7344 246.562 72.6719 246.219 72.6719C245 72.6719 244.094 73.5156 244.094 74.6562V80H242.75ZM252.359 83.1875V71.5156H253.656V72.8594H253.812C254.094 72.4062 254.625 71.4062 256.266 71.4062C258.391 71.4062 259.875 73.0938 259.875 75.7812C259.875 78.4688 258.391 80.1719 256.281 80.1719C254.656 80.1719 254.094 79.1719 253.812 78.7031H253.703V83.1875H252.359ZM253.672 75.75C253.672 77.6562 254.531 78.9688 256.094 78.9688C257.703 78.9688 258.531 77.5625 258.531 75.75C258.531 73.9844 257.719 72.6094 256.094 72.6094C254.5 72.6094 253.672 73.875 253.672 75.75ZM261.219 77.5938C261.219 75.6406 262.938 75.2031 264.406 75.0938C264.945 75.0547 266.32 74.9844 266.703 74.9688V74.2812C266.703 73.2031 266.062 72.5781 264.781 72.5781C263.703 72.5781 263.062 73.0781 262.875 73.7188H261.469C261.641 72.3594 262.969 71.4062 264.844 71.4062C265.953 71.4062 268.031 71.7344 268.031 74.4062V80H266.703V78.8438H266.641C266.359 79.4219 265.578 80.2031 264.109 80.2031C262.5 80.2031 261.219 79.25 261.219 77.5938ZM262.562 77.6562C262.562 78.5469 263.312 79 264.344 79C265.859 79 266.703 77.9844 266.703 76.9219V76.0625L264.562 76.2188C263.344 76.2969 262.562 76.7344 262.562 77.6562ZM273.625 83.3594C271.578 83.3594 270.188 82.4688 270.031 80.8906H271.438C271.625 81.75 272.422 82.1875 273.625 82.1875C275.078 82.1875 275.969 81.5625 275.969 80.1562V78.4375H275.859C275.578 78.9062 275.031 79.875 273.391 79.875C271.328 79.875 269.781 78.3125 269.781 75.6406C269.781 73.0312 271.281 71.4062 273.406 71.4062C275.047 71.4062 275.578 72.4062 275.891 72.8594H276V71.5156H277.312V80.2344C277.312 82.4219 275.688 83.3594 273.625 83.3594ZM273.578 78.6719C275.125 78.6719 276 77.5625 276 75.6875C276 73.875 275.156 72.6094 273.578 72.6094C271.953 72.6094 271.141 73.9844 271.141 75.6875C271.141 77.4531 271.969 78.6719 273.578 78.6719ZM283.016 80.1719C280.562 80.1719 279.047 78.4375 279.047 75.8281C279.047 73.2188 280.578 71.4062 282.891 71.4062C284.672 71.4062 286.547 72.5 286.547 75.6406V76.2031H280.391C280.453 78 281.5 78.9844 283.016 78.9844C284.031 78.9844 284.672 78.5469 284.984 78.0156H286.422C286.016 79.2969 284.766 80.1719 283.016 80.1719ZM280.406 75.0625H285.188C285.188 73.6406 284.281 72.5938 282.891 72.5938C281.422 72.5938 280.484 73.75 280.406 75.0625Z" fill="#161616"/>
<mask id="mask0_1702_184778" style="mask-type:alpha" maskUnits="userSpaceOnUse" x="292" y="66" width="16" height="16">
<path d="M304.354 72.3535L300.354 76.3535C300.158 76.5488 299.842 76.5488 299.646 76.3535L295.646 72.3535L296.354 71.6465L300 75.293L303.646 71.6465L304.354 72.3535Z" fill="#161616"/>
</mask>
<g mask="url(#mask0_1702_184778)">
<rect x="292" y="66" width="16" height="16" fill="#161616"/>
</g>
<path d="M320 68.5C320 68.2239 320.224 68 320.5 68V68C320.776 68 321 68.2239 321 68.5L321 79.5C321 79.7761 320.776 80 320.5 80V80C320.224 80 320 79.7761 320 79.5L320 68.5Z" fill="#E0E0E0"/>
<path d="M349.25 79.4168V80.6668H336.75V79.4168H349.25ZM349.25 68.5835H336.75V80.6668L336.622 80.6603C335.992 80.5963 335.5 80.064 335.5 79.4168V68.5835C335.5 67.8931 336.06 67.3335 336.75 67.3335H349.25C349.94 67.3335 350.5 67.8931 350.5 68.5835V79.4168C350.5 80.064 350.008 80.5963 349.378 80.6603L349.25 80.6668V68.5835Z" fill="#161616"/>
<path d="M341.333 79.7708H340.083L340.083 68.3931L341.333 68.3931L341.333 79.7708Z" fill="#161616"/>
<path d="M345.917 79.7708H344.667L344.667 68.3931L345.917 68.3931L345.917 79.7708Z" fill="#161616"/>
<path d="M365.969 72.25C365.641 70.6875 364.297 69.8438 362.812 69.8438C360.766 69.8438 359.172 71.4219 359.172 74.3438C359.172 77.2656 360.766 78.8438 362.812 78.8438C364.297 78.8438 365.625 78 365.969 76.4531H367.375C366.969 78.7656 365.109 80.1562 362.812 80.1562C359.906 80.1562 357.812 77.9219 357.812 74.3438C357.812 70.7656 359.906 68.5312 362.812 68.5312C365.094 68.5312 366.953 69.9062 367.375 72.25H365.969ZM372.641 80.1719C370.328 80.1719 368.766 78.4375 368.766 75.7969C368.766 73.1562 370.328 71.4062 372.641 71.4062C374.938 71.4062 376.484 73.1562 376.484 75.7969C376.484 78.4375 374.938 80.1719 372.641 80.1719ZM372.641 78.9844C374.344 78.9844 375.141 77.4844 375.141 75.7969C375.141 74.1094 374.344 72.5938 372.641 72.5938C370.906 72.5938 370.109 74.1094 370.109 75.7969C370.109 77.4844 370.906 78.9844 372.641 78.9844ZM379.594 68.6875V80H378.25V68.6875H379.594ZM387.094 76.5156V71.5156H388.422V80H387.094V78.5625H387C386.594 79.4219 385.766 80.1094 384.484 80.1094C382.875 80.1094 381.734 79.0625 381.734 76.9062V71.5156H383.078V76.8125C383.078 78.0312 383.844 78.8125 384.922 78.8125C385.875 78.8125 387.094 78.0938 387.094 76.5156ZM390.578 80V71.5156H391.875V72.8438H391.984C392.344 71.9375 393.156 71.4062 394.266 71.4062C395.375 71.4062 396.125 71.9375 396.531 72.8438H396.625C397.062 71.9688 397.953 71.4062 399.172 71.4062C400.688 71.4062 401.766 72.3281 401.766 74.3281V80H400.422V74.3438C400.422 73.0938 399.625 72.6094 398.703 72.6094C397.516 72.6094 396.844 73.4062 396.844 74.4844V80H395.484V74.2031C395.484 73.25 394.797 72.6094 393.828 72.6094C392.812 72.6094 391.922 73.4688 391.922 74.7031V80H390.578ZM405.266 74.9062V80H403.922V71.5156H405.219V72.8438H405.328C405.734 71.9844 406.516 71.4062 407.812 71.4062C409.531 71.4062 410.672 72.4531 410.672 74.6094V80H409.328V74.7031C409.328 73.3906 408.609 72.6094 407.406 72.6094C406.172 72.6094 405.266 73.4375 405.266 74.9062Z" fill="#161616"/>
<path d="M416 68C416 66.8954 416.895 66 418 66H430C431.105 66 432 66.8954 432 68V80C432 81.1046 431.105 82 430 82H418C416.895 82 416 81.1046 416 80V68Z" fill="#E8E6F8"/>
<path d="M424.012 78.1172C422.312 78.1172 421.07 77.1094 421.023 75.7031H422.512C422.559 76.3945 423.203 76.8867 424.012 76.8867C424.961 76.8867 425.641 76.1953 425.641 75.2578C425.641 74.2852 424.938 73.5938 423.965 73.5938C423.309 73.582 422.828 73.8164 422.559 74.3203H421.141L421.656 69.5156H426.672V70.793H422.91L422.652 73.043H422.734C423.062 72.668 423.684 72.3984 424.375 72.3984C425.957 72.3984 427.117 73.582 427.117 75.2109C427.117 76.9102 425.84 78.1172 424.012 78.1172Z" fill="#3A3480"/>
<mask id="mask1_1702_184778" style="mask-type:alpha" maskUnits="userSpaceOnUse" x="436" y="66" width="16" height="16">
<path d="M448.354 72.3535L444.354 76.3535C444.158 76.5488 443.842 76.5488 443.646 76.3535L439.646 72.3535L440.354 71.6465L444 75.293L447.646 71.6465L448.354 72.3535Z" fill="#161616"/>
</mask>
<g mask="url(#mask1_1702_184778)">
<rect x="436" y="66" width="16" height="16" fill="#161616"/>
</g>
<g clip-path="url(#clip2_1702_184778)">
<rect width="664" height="243" transform="translate(118 100)" fill="white"/>
<mask id="path-21-inside-1_1702_184778" fill="white">
<path d="M118 100H782V136H118V100Z"/>
</mask>
<path d="M118 100H782V136H118V100Z" fill="black" fill-opacity="0.04"/>
<path d="M118 100V101H782V100V99H118V100ZM782 136V135H118V136V137H782V136Z" fill="#EBEBEB" mask="url(#path-21-inside-1_1702_184778)"/>
<path d="M141.051 113.102V123H139.465L134.775 116.232H134.693V123H132.916V113.102H134.529L139.191 119.869H139.287V113.102H141.051ZM142.459 120.908C142.459 119.24 143.84 118.748 145.221 118.666C145.733 118.632 146.8 118.57 147.121 118.557V117.969C147.121 117.23 146.643 116.807 145.781 116.807C145.002 116.807 144.523 117.162 144.387 117.695H142.705C142.828 116.438 143.963 115.48 145.822 115.48C147.23 115.48 148.857 116.055 148.857 118.037V123H147.189V121.975H147.135C146.807 122.604 146.109 123.15 144.947 123.15C143.525 123.15 142.459 122.371 142.459 120.908ZM144.141 120.895C144.141 121.537 144.66 121.865 145.398 121.865C146.451 121.865 147.135 121.168 147.135 120.334V119.719L145.494 119.828C144.66 119.896 144.141 120.238 144.141 120.895ZM150.498 123V115.576H152.166V116.834H152.262C152.562 115.986 153.314 115.48 154.299 115.48C155.311 115.48 156.021 115.986 156.309 116.834H156.391C156.719 116.014 157.539 115.48 158.619 115.48C159.973 115.48 160.93 116.355 160.93 118.01V123H159.193V118.283C159.193 117.354 158.633 116.943 157.922 116.943C157.061 116.943 156.568 117.531 156.568 118.365V123H154.873V118.215C154.873 117.449 154.354 116.943 153.615 116.943C152.863 116.943 152.248 117.559 152.248 118.488V123H150.498ZM165.893 123.15C163.65 123.15 162.283 121.66 162.283 119.336C162.283 117.039 163.678 115.48 165.797 115.48C167.615 115.48 169.188 116.615 169.188 119.227V119.773H164.006C164.026 121.038 164.771 121.783 165.906 121.783C166.672 121.783 167.191 121.455 167.41 121.018H169.119C168.805 122.303 167.615 123.15 165.893 123.15ZM164.02 118.584H167.52C167.506 117.572 166.836 116.834 165.824 116.834C164.771 116.834 164.074 117.634 164.02 118.584Z" fill="#636363"/>
<path d="M362.384 113.102V123H360.798L356.108 116.232H356.026V123H354.249V113.102H355.862L360.524 119.869H360.62V113.102H362.384ZM368.878 119.883V115.576H370.614V123H368.933V121.688H368.851C368.509 122.508 367.729 123.096 366.622 123.096C365.159 123.096 364.147 122.084 364.134 120.307V115.576H365.884V120.033C365.884 120.977 366.444 121.578 367.292 121.578C368.058 121.578 368.878 121.018 368.878 119.883ZM372.282 123V115.576H373.95V116.834H374.046C374.347 115.986 375.099 115.48 376.083 115.48C377.095 115.48 377.806 115.986 378.093 116.834H378.175C378.503 116.014 379.323 115.48 380.403 115.48C381.757 115.48 382.714 116.355 382.714 118.01V123H380.978V118.283C380.978 117.354 380.417 116.943 379.706 116.943C378.845 116.943 378.353 117.531 378.353 118.365V123H376.657V118.215C376.657 117.449 376.138 116.943 375.399 116.943C374.647 116.943 374.032 117.559 374.032 118.488V123H372.282ZM384.464 123V113.102H386.214V116.793H386.282C386.556 116.26 387.089 115.48 388.401 115.48C390.124 115.48 391.478 116.82 391.478 119.295C391.478 121.742 390.151 123.137 388.415 123.137C387.13 123.137 386.556 122.371 386.282 121.824H386.173V123H384.464ZM386.173 119.281C386.173 120.73 386.802 121.701 387.923 121.701C389.085 121.701 389.7 120.689 389.7 119.281C389.7 117.9 389.099 116.902 387.923 116.902C386.802 116.902 386.173 117.846 386.173 119.281ZM396.14 123.15C393.897 123.15 392.53 121.66 392.53 119.336C392.53 117.039 393.925 115.48 396.044 115.48C397.862 115.48 399.435 116.615 399.435 119.227V119.773H394.253C394.273 121.038 395.019 121.783 396.153 121.783C396.919 121.783 397.438 121.455 397.657 121.018H399.366C399.052 122.303 397.862 123.15 396.14 123.15ZM394.267 118.584H397.767C397.753 117.572 397.083 116.834 396.071 116.834C395.019 116.834 394.321 117.634 394.267 118.584ZM400.788 123V115.576H402.483V116.807H402.565C402.825 115.959 403.55 115.467 404.397 115.467C404.589 115.467 404.862 115.48 405.026 115.508V117.121C404.876 117.066 404.507 117.012 404.22 117.012C403.249 117.012 402.538 117.682 402.538 118.625V123H400.788Z" fill="#636363"/>
<path d="M575.146 114.592V113.102H583.034V114.592H579.985V123H578.208V114.592H575.146ZM584.347 123V115.576H586.097V123H584.347ZM585.235 114.523C584.688 114.523 584.224 114.1 584.224 113.566C584.224 113.047 584.688 112.623 585.235 112.623C585.796 112.623 586.247 113.047 586.247 113.566C586.247 114.1 585.796 114.523 585.235 114.523ZM587.765 123V115.576H589.433V116.834H589.528C589.829 115.986 590.581 115.48 591.565 115.48C592.577 115.48 593.288 115.986 593.575 116.834H593.657C593.985 116.014 594.806 115.48 595.886 115.48C597.239 115.48 598.196 116.355 598.196 118.01V123H596.46V118.283C596.46 117.354 595.899 116.943 595.188 116.943C594.327 116.943 593.835 117.531 593.835 118.365V123H592.14V118.215C592.14 117.449 591.62 116.943 590.882 116.943C590.13 116.943 589.515 117.559 589.515 118.488V123H587.765ZM603.159 123.15C600.917 123.15 599.55 121.66 599.55 119.336C599.55 117.039 600.944 115.48 603.063 115.48C604.882 115.48 606.454 116.615 606.454 119.227V119.773H601.272C601.293 121.038 602.038 121.783 603.173 121.783C603.938 121.783 604.458 121.455 604.677 121.018H606.386C606.071 122.303 604.882 123.15 603.159 123.15ZM601.286 118.584H604.786C604.772 117.572 604.103 116.834 603.091 116.834C602.038 116.834 601.341 117.634 601.286 118.584ZM612.019 117.695C611.909 117.135 611.444 116.779 610.706 116.779C609.954 116.779 609.407 117.148 609.421 117.654C609.407 118.037 609.722 118.324 610.474 118.502L611.731 118.762C613.14 119.076 613.81 119.719 613.823 120.785C613.81 122.18 612.593 123.15 610.651 123.15C608.765 123.15 607.644 122.303 607.466 120.881H609.243C609.353 121.51 609.845 121.824 610.651 121.824C611.485 121.824 612.046 121.482 612.046 120.936C612.046 120.512 611.704 120.238 610.966 120.074L609.776 119.814C608.396 119.541 607.685 118.816 607.685 117.75C607.685 116.383 608.86 115.48 610.679 115.48C612.456 115.48 613.55 116.342 613.673 117.695H612.019ZM618.854 115.576V116.916H617.392V120.771C617.392 121.482 617.747 121.633 618.185 121.633C618.39 121.633 618.731 121.619 618.95 121.605V123.027C618.745 123.068 618.403 123.096 617.966 123.096C616.653 123.096 615.642 122.453 615.655 121.059V116.916H614.589V115.576H615.655V113.799H617.392V115.576H618.854ZM619.853 120.908C619.853 119.24 621.233 118.748 622.614 118.666C623.127 118.632 624.193 118.57 624.515 118.557V117.969C624.515 117.23 624.036 116.807 623.175 116.807C622.396 116.807 621.917 117.162 621.78 117.695H620.099C620.222 116.438 621.356 115.48 623.216 115.48C624.624 115.48 626.251 116.055 626.251 118.037V123H624.583V121.975H624.528C624.2 122.604 623.503 123.15 622.341 123.15C620.919 123.15 619.853 122.371 619.853 120.908ZM621.534 120.895C621.534 121.537 622.054 121.865 622.792 121.865C623.845 121.865 624.528 121.168 624.528 120.334V119.719L622.888 119.828C622.054 119.896 621.534 120.238 621.534 120.895ZM627.892 123V115.576H629.56V116.834H629.655C629.956 115.986 630.708 115.48 631.692 115.48C632.704 115.48 633.415 115.986 633.702 116.834H633.784C634.112 116.014 634.933 115.48 636.013 115.48C637.366 115.48 638.323 116.355 638.323 118.01V123H636.587V118.283C636.587 117.354 636.026 116.943 635.315 116.943C634.454 116.943 633.962 117.531 633.962 118.365V123H632.267V118.215C632.267 117.449 631.747 116.943 631.009 116.943C630.257 116.943 629.642 117.559 629.642 118.488V123H627.892ZM639.991 125.789V115.576H641.7V116.793H641.81C642.083 116.26 642.63 115.48 643.942 115.48C645.651 115.48 647.005 116.82 647.005 119.295C647.005 121.742 645.692 123.137 643.942 123.137C642.657 123.137 642.083 122.371 641.81 121.824H641.741V125.789H639.991ZM641.7 119.281C641.7 120.73 642.329 121.701 643.464 121.701C644.612 121.701 645.228 120.689 645.228 119.281C645.228 117.9 644.626 116.902 643.464 116.902C642.329 116.902 641.7 117.846 641.7 119.281Z" fill="#636363"/>
<mask id="mask2_1702_184778" style="mask-type:alpha" maskUnits="userSpaceOnUse" x="651" y="111" width="15" height="14">
<path d="M654.803 114.062H655.678V120.496L657.569 118.742L658.164 119.383L655.539 121.821C655.369 121.979 655.105 121.976 654.937 121.815L652.402 119.372L653.01 118.742L654.803 120.471V114.062ZM662.272 120.046V120.921H659.258V120.046H662.272ZM663.699 117.237V118.112H659.258V117.237H663.699ZM665.125 114.428V115.303H659.258V114.428H665.125Z" fill="#161616"/>
</mask>
<g mask="url(#mask2_1702_184778)">
<rect x="651.667" y="111" width="14" height="14" fill="#484848"/>
</g>
<g clip-path="url(#clip3_1702_184778)">
<path d="M139.578 153.688H141V161.766C141 163.938 139.719 165.156 137.75 165.156C135.875 165.156 134.516 164.078 134.516 162.328H135.906C135.906 163.281 136.688 163.906 137.75 163.906C138.922 163.906 139.578 163.172 139.578 161.766V153.688ZM146.797 165.172C144.484 165.172 142.922 163.438 142.922 160.797C142.922 158.156 144.484 156.406 146.797 156.406C149.094 156.406 150.641 158.156 150.641 160.797C150.641 163.438 149.094 165.172 146.797 165.172ZM146.797 163.984C148.5 163.984 149.297 162.484 149.297 160.797C149.297 159.109 148.5 157.594 146.797 157.594C145.062 157.594 144.266 159.109 144.266 160.797C144.266 162.484 145.062 163.984 146.797 163.984ZM157.125 158.719C156.938 158.016 156.406 157.547 155.406 157.547C154.359 157.547 153.609 158.109 153.609 158.828C153.609 159.391 154.062 159.781 155.062 160.016L156.328 160.328C157.844 160.688 158.594 161.438 158.594 162.625C158.594 164.094 157.391 165.172 155.266 165.172C153.359 165.172 152.219 164.328 152 162.781H153.406C153.562 163.609 154.172 164 155.234 164C156.438 164 157.203 163.5 157.203 162.703C157.203 162.109 156.781 161.703 155.812 161.484L154.531 161.188C153.047 160.844 152.266 160.031 152.266 158.906C152.266 157.453 153.531 156.406 155.406 156.406C157.156 156.406 158.266 157.344 158.438 158.719H157.125ZM163.906 165.172C161.453 165.172 159.938 163.438 159.938 160.828C159.938 158.219 161.469 156.406 163.781 156.406C165.562 156.406 167.438 157.5 167.438 160.641V161.203H161.281C161.344 163 162.391 163.984 163.906 163.984C164.922 163.984 165.562 163.547 165.875 163.016H167.312C166.906 164.297 165.656 165.172 163.906 165.172ZM161.297 160.062H166.078C166.078 158.641 165.172 157.594 163.781 157.594C162.312 157.594 161.375 158.75 161.297 160.062ZM169.188 168.188V156.516H170.484V157.859H170.641C170.922 157.406 171.453 156.406 173.094 156.406C175.219 156.406 176.703 158.094 176.703 160.781C176.703 163.469 175.219 165.172 173.109 165.172C171.484 165.172 170.922 164.172 170.641 163.703H170.531V168.188H169.188ZM170.5 160.75C170.5 162.656 171.359 163.969 172.922 163.969C174.531 163.969 175.359 162.562 175.359 160.75C175.359 158.984 174.547 157.609 172.922 157.609C171.328 157.609 170.5 158.875 170.5 160.75ZM179.797 159.906V165H178.453V153.688H179.797V157.844H179.906C180.297 156.969 181.062 156.406 182.406 156.406C184.141 156.406 185.297 157.438 185.297 159.609V165H183.953V159.703C183.953 158.375 183.219 157.609 182 157.609C180.734 157.609 179.797 158.438 179.797 159.906ZM191.641 153.688H193.328L197.141 163H197.281L201.094 153.688H202.781V165H201.453V156.453H201.344L197.828 165H196.578L193.062 156.453H192.969V165H191.641V153.688ZM204.703 162.594C204.703 160.641 206.422 160.203 207.891 160.094C208.43 160.055 209.805 159.984 210.188 159.969V159.281C210.188 158.203 209.547 157.578 208.266 157.578C207.188 157.578 206.547 158.078 206.359 158.719H204.953C205.125 157.359 206.453 156.406 208.328 156.406C209.438 156.406 211.516 156.734 211.516 159.406V165H210.188V163.844H210.125C209.844 164.422 209.062 165.203 207.594 165.203C205.984 165.203 204.703 164.25 204.703 162.594ZM206.047 162.656C206.047 163.547 206.797 164 207.828 164C209.344 164 210.188 162.984 210.188 161.922V161.062L208.047 161.219C206.828 161.297 206.047 161.734 206.047 162.656ZM213.672 165V156.516H214.969V157.812H215.062C215.375 156.953 216.25 156.375 217.25 156.375C217.453 156.375 217.797 156.391 217.953 156.406V157.766C217.859 157.734 217.484 157.672 217.141 157.672C215.922 157.672 215.016 158.516 215.016 159.656V165H213.672ZM223.5 156.516V157.641H221.719V162.562C221.719 163.656 222.25 163.828 222.828 163.828C223.078 163.828 223.422 163.812 223.625 163.797V165.047C223.422 165.078 223.078 165.109 222.688 165.109C221.562 165.109 220.359 164.406 220.359 162.906V157.641H219.078V156.516H220.359V154.484H221.719V156.516H223.5ZM225.234 165V156.516H226.578V165H225.234ZM225.906 155.109C225.391 155.109 224.969 154.719 224.969 154.219C224.969 153.719 225.391 153.328 225.906 153.328C226.422 153.328 226.859 153.719 226.859 154.219C226.859 154.719 226.422 155.109 225.906 155.109ZM230.062 159.906V165H228.719V156.516H230.016V157.844H230.125C230.531 156.984 231.312 156.406 232.609 156.406C234.328 156.406 235.469 157.453 235.469 159.609V165H234.125V159.703C234.125 158.391 233.406 157.609 232.203 157.609C230.969 157.609 230.062 158.438 230.062 159.906ZM241.188 165.172C238.734 165.172 237.219 163.438 237.219 160.828C237.219 158.219 238.75 156.406 241.062 156.406C242.844 156.406 244.719 157.5 244.719 160.641V161.203H238.562C238.625 163 239.672 163.984 241.188 163.984C242.203 163.984 242.844 163.547 243.156 163.016H244.594C244.188 164.297 242.938 165.172 241.188 165.172ZM238.578 160.062H243.359C243.359 158.641 242.453 157.594 241.062 157.594C239.594 157.594 238.656 158.75 238.578 160.062ZM246.219 165V163.984L251 157.844V157.75H246.375V156.516H252.734V157.578L248.094 163.672V163.766H252.891V165H246.219Z" fill="#484848"/>
<path d="M137.828 187.264V184.611H135.189V183.504H137.828V180.865H138.936V183.504H141.588V184.611H138.936V187.264H137.828ZM147.207 179.102V189H145.963V180.387H145.908L143.502 181.986V180.742L145.963 179.102H147.207ZM153.674 185.227C153.688 182.643 154.385 180.496 155.643 178.678H156.682C155.752 180.031 154.891 182.793 154.891 185.227C154.891 187.66 155.752 190.436 156.682 191.789H155.643C154.385 189.957 153.688 187.811 153.674 185.227ZM161.357 189.137C159.566 189.137 158.213 188.029 158.145 186.512H159.334C159.43 187.4 160.291 188.057 161.357 188.057C162.643 188.057 163.572 187.113 163.572 185.869C163.572 184.584 162.602 183.641 161.275 183.627C160.441 183.613 159.799 183.873 159.43 184.516H158.24L158.938 179.102H164.297V180.195H159.963L159.594 183.094H159.689C160.127 182.752 160.797 182.52 161.494 182.52C163.381 182.52 164.775 183.914 164.775 185.842C164.775 187.756 163.326 189.137 161.357 189.137ZM169.711 189.137C167.92 189.137 166.566 188.029 166.498 186.512H167.688C167.783 187.4 168.645 188.057 169.711 188.057C170.996 188.057 171.926 187.113 171.926 185.869C171.926 184.584 170.955 183.641 169.629 183.627C168.795 183.613 168.152 183.873 167.783 184.516H166.594L167.291 179.102H172.65V180.195H168.316L167.947 183.094H168.043C168.48 182.752 169.15 182.52 169.848 182.52C171.734 182.52 173.129 183.914 173.129 185.842C173.129 187.756 171.68 189.137 169.711 189.137ZM178.064 189.137C176.273 189.137 174.92 188.029 174.852 186.512H176.041C176.137 187.4 176.998 188.057 178.064 188.057C179.35 188.057 180.279 187.113 180.279 185.869C180.279 184.584 179.309 183.641 177.982 183.627C177.148 183.613 176.506 183.873 176.137 184.516H174.947L175.645 179.102H181.004V180.195H176.67L176.301 183.094H176.396C176.834 182.752 177.504 182.52 178.201 182.52C180.088 182.52 181.482 183.914 181.482 185.842C181.482 187.756 180.033 189.137 178.064 189.137ZM185.789 185.227C185.775 187.811 185.078 189.957 183.82 191.789H182.781C183.711 190.436 184.572 187.66 184.572 185.227C184.572 182.793 183.711 180.031 182.781 178.678H183.82C185.078 180.496 185.775 182.643 185.789 185.227ZM191.477 189L191.463 188.098L194.84 184.543C196.016 183.299 196.576 182.629 196.576 181.713C196.576 180.701 195.715 180.031 194.607 180.031C193.432 180.031 192.68 180.783 192.68 181.891H191.518C191.504 180.141 192.857 178.965 194.648 178.965C196.439 178.965 197.725 180.168 197.725 181.713C197.725 182.82 197.205 183.682 195.455 185.486L193.186 187.824V187.906H197.902V189H191.477ZM203.193 179.102V189H201.949V180.387H201.895L199.488 181.986V180.742L201.949 179.102H203.193ZM209.072 189.137C206.871 189.137 205.613 187.291 205.613 184.051C205.613 180.838 206.898 178.965 209.072 178.965C211.246 178.965 212.531 180.838 212.531 184.051C212.531 187.291 211.26 189.137 209.072 189.137ZM209.072 188.043C210.494 188.043 211.328 186.607 211.328 184.051C211.328 181.494 210.494 180.031 209.072 180.031C207.65 180.031 206.803 181.494 206.803 184.051C206.803 186.607 207.637 188.043 209.072 188.043ZM218.438 183.518V184.598H214.104V183.518H218.438ZM223.496 189.137C221.527 189.137 220.119 188.084 220.051 186.512H221.295C221.363 187.455 222.307 188.043 223.482 188.043C224.781 188.043 225.738 187.332 225.738 186.307C225.738 185.227 224.877 184.461 223.332 184.461H222.525V183.381H223.332C224.535 183.381 225.369 182.711 225.369 181.686C225.369 180.701 224.645 180.031 223.523 180.031C222.471 180.031 221.5 180.619 221.445 181.59H220.256C220.324 180.018 221.773 178.965 223.537 178.965C225.424 178.965 226.572 180.195 226.559 181.617C226.572 182.738 225.916 183.572 224.877 183.859V183.928C226.162 184.133 226.955 185.049 226.941 186.307C226.955 187.934 225.465 189.137 223.496 189.137ZM228.473 186.977V185.965L232.93 179.102H234.447V185.896H235.828V186.977H234.447V189H233.271V186.977H228.473ZM229.799 185.896H233.271V180.66H233.148L229.799 185.814V185.896ZM240.682 189.137C238.891 189.137 237.537 188.029 237.469 186.512H238.658C238.754 187.4 239.615 188.057 240.682 188.057C241.967 188.057 242.896 187.113 242.896 185.869C242.896 184.584 241.926 183.641 240.6 183.627C239.766 183.613 239.123 183.873 238.754 184.516H237.564L238.262 179.102H243.621V180.195H239.287L238.918 183.094H239.014C239.451 182.752 240.121 182.52 240.818 182.52C242.705 182.52 244.1 183.914 244.1 185.842C244.1 187.756 242.65 189.137 240.682 189.137ZM249.254 189.137C247.531 189.109 245.645 188.098 245.645 184.434C245.645 180.934 247.08 178.965 249.404 178.965C251.141 178.965 252.357 180.031 252.617 181.59H251.4C251.168 180.715 250.512 180.059 249.404 180.059C247.777 180.059 246.807 181.453 246.807 183.832H246.93C247.504 183.012 248.406 182.52 249.473 182.52C251.236 182.52 252.699 183.887 252.699 185.801C252.699 187.66 251.332 189.15 249.254 189.137ZM249.254 188.057C250.539 188.057 251.496 187.045 251.51 185.814C251.496 184.598 250.58 183.6 249.281 183.6C247.982 183.6 246.984 184.652 246.971 185.828C246.971 186.99 247.928 188.057 249.254 188.057Z" fill="#858585"/>
<path d="M360.177 165.156C357.802 165.156 356.146 163.844 356.161 162C356.146 160.531 357.161 159.328 358.458 159.125V159.062C357.333 158.797 356.599 157.766 356.599 156.531C356.599 154.797 358.114 153.531 360.177 153.531C362.239 153.531 363.755 154.797 363.771 156.531C363.755 157.766 363.005 158.797 361.896 159.062V159.125C363.177 159.328 364.192 160.531 364.208 162C364.192 163.844 362.536 165.156 360.177 165.156ZM360.177 163.922C361.802 163.922 362.802 163.109 362.802 161.922C362.802 160.672 361.692 159.75 360.177 159.75C358.661 159.75 357.536 160.672 357.567 161.922C357.536 163.109 358.552 163.922 360.177 163.922ZM360.177 158.562C361.458 158.562 362.396 157.781 362.396 156.641C362.396 155.516 361.505 154.75 360.177 154.75C358.833 154.75 357.958 155.516 357.958 156.641C357.958 157.781 358.88 158.562 360.177 158.562ZM369.864 153.531C371.817 153.547 373.974 154.719 373.974 158.891C373.974 162.906 372.333 165.156 369.677 165.156C367.692 165.156 366.286 163.938 366.005 162.141H367.396C367.646 163.156 368.411 163.906 369.677 163.906C371.521 163.906 372.646 162.312 372.661 159.562H372.505C371.849 160.5 370.817 161.062 369.614 161.062C367.583 161.062 365.911 159.516 365.911 157.328C365.911 155.219 367.458 153.516 369.864 153.531ZM369.864 154.766C368.38 154.766 367.271 155.922 367.286 157.312C367.286 158.719 368.333 159.828 369.817 159.828C371.286 159.828 372.442 158.609 372.442 157.281C372.442 155.984 371.364 154.766 369.864 154.766ZM382.271 156.531C382.146 155.422 381.13 154.781 379.771 154.781C378.271 154.781 377.286 155.562 377.286 156.641C377.286 157.828 378.614 158.266 379.474 158.484L380.599 158.797C381.817 159.109 383.802 159.812 383.802 161.922C383.802 163.766 382.317 165.203 379.692 165.203C377.255 165.203 375.739 163.938 375.614 162.062H377.052C377.177 163.328 378.349 163.922 379.692 163.922C381.255 163.922 382.427 163.125 382.427 161.891C382.427 160.797 381.38 160.375 380.192 160.031L378.802 159.656C377.021 159.141 375.927 158.234 375.927 156.703C375.927 154.797 377.63 153.531 379.817 153.531C382.005 153.531 383.583 154.812 383.646 156.531H382.271ZM385.192 154.938V153.688H393.724V154.938H390.177V165H388.755V154.938H385.192ZM403.005 153.688H404.411V161.172C404.411 163.5 402.677 165.203 400.005 165.203C397.333 165.203 395.599 163.5 395.599 161.172V153.688H397.005V161.062C397.005 162.703 398.146 163.891 400.005 163.891C401.88 163.891 403.005 162.703 403.005 161.062V153.688ZM407.427 153.688L410.755 163.172H410.88L414.224 153.688H415.708L411.567 165H410.083L405.942 153.688H407.427ZM420.989 165.156C419.021 165.125 416.864 163.969 416.864 159.781C416.864 155.781 418.505 153.531 421.161 153.531C423.146 153.531 424.536 154.75 424.833 156.531H423.442C423.177 155.531 422.427 154.781 421.161 154.781C419.302 154.781 418.192 156.375 418.192 159.094H418.333C418.989 158.156 420.021 157.594 421.239 157.594C423.255 157.594 424.927 159.156 424.927 161.344C424.927 163.469 423.364 165.172 420.989 165.156ZM420.989 163.922C422.458 163.922 423.552 162.766 423.567 161.359C423.552 159.969 422.505 158.828 421.021 158.828C419.536 158.828 418.396 160.031 418.38 161.375C418.38 162.703 419.474 163.922 420.989 163.922ZM427.224 165L432.411 155.016V154.938H426.427V153.688H433.864V155L428.692 165H427.224ZM439.255 165.156C436.88 165.156 435.224 163.844 435.239 162C435.224 160.531 436.239 159.328 437.536 159.125V159.062C436.411 158.797 435.677 157.766 435.677 156.531C435.677 154.797 437.192 153.531 439.255 153.531C441.317 153.531 442.833 154.797 442.849 156.531C442.833 157.766 442.083 158.797 440.974 159.062V159.125C442.255 159.328 443.271 160.531 443.286 162C443.271 163.844 441.614 165.156 439.255 165.156ZM439.255 163.922C440.88 163.922 441.88 163.109 441.88 161.922C441.88 160.672 440.771 159.75 439.255 159.75C437.739 159.75 436.614 160.672 436.646 161.922C436.614 163.109 437.63 163.922 439.255 163.922ZM439.255 158.562C440.536 158.562 441.474 157.781 441.474 156.641C441.474 155.516 440.583 154.75 439.255 154.75C437.911 154.75 437.036 155.516 437.036 156.641C437.036 157.781 437.958 158.562 439.255 158.562ZM448.942 153.531C450.896 153.547 453.052 154.719 453.052 158.891C453.052 162.906 451.411 165.156 448.755 165.156C446.771 165.156 445.364 163.938 445.083 162.141H446.474C446.724 163.156 447.489 163.906 448.755 163.906C450.599 163.906 451.724 162.312 451.739 159.562H451.583C450.927 160.5 449.896 161.062 448.692 161.062C446.661 161.062 444.989 159.516 444.989 157.328C444.989 155.219 446.536 153.516 448.942 153.531ZM448.942 154.766C447.458 154.766 446.349 155.922 446.364 157.312C446.364 158.719 447.411 159.828 448.896 159.828C450.364 159.828 451.521 158.609 451.521 157.281C451.521 155.984 450.442 154.766 448.942 154.766ZM457.271 165L454.177 153.688H455.599L457.958 162.844H458.067L460.458 153.688H462.036L464.442 162.844H464.536L466.896 153.688H468.317L465.224 165H463.771L461.302 156.047H461.208L458.724 165H457.271ZM473.63 153.688V165H472.208V155.156H472.146L469.396 156.984V155.562L472.208 153.688H473.63ZM477.552 153.688L480.427 158.359H480.521L483.411 153.688H485.067L481.521 159.344L485.067 165H483.411L480.521 160.422H480.427L477.536 165H475.88L479.521 159.344L475.88 153.688H477.552ZM486.442 165L486.427 163.969L490.286 159.906C491.63 158.484 492.271 157.719 492.271 156.672C492.271 155.516 491.286 154.75 490.021 154.75C488.677 154.75 487.817 155.609 487.817 156.875H486.489C486.474 154.875 488.021 153.531 490.067 153.531C492.114 153.531 493.583 154.906 493.583 156.672C493.583 157.938 492.989 158.922 490.989 160.984L488.396 163.656V163.75H493.786V165H486.442ZM495.052 153.688H496.661L499.771 158.938H499.911L503.021 153.688H504.646L500.552 160.359V165H499.13V160.359L495.052 153.688ZM509.88 165.156C507.63 165.156 506.021 163.953 505.942 162.156H507.364C507.442 163.234 508.521 163.906 509.864 163.906C511.349 163.906 512.442 163.094 512.442 161.922C512.442 160.688 511.458 159.812 509.692 159.812H508.771V158.578H509.692C511.067 158.578 512.021 157.812 512.021 156.641C512.021 155.516 511.192 154.75 509.911 154.75C508.708 154.75 507.599 155.422 507.536 156.531H506.177C506.255 154.734 507.911 153.531 509.927 153.531C512.083 153.531 513.396 154.938 513.38 156.562C513.396 157.844 512.646 158.797 511.458 159.125V159.203C512.927 159.438 513.833 160.484 513.817 161.922C513.833 163.781 512.13 165.156 509.88 165.156Z" fill="#484848"/>
<path d="M581.433 165.156C578.917 165.156 577.479 163.047 577.479 159.344C577.479 155.672 578.948 153.531 581.433 153.531C583.917 153.531 585.386 155.672 585.386 159.344C585.386 163.047 583.933 165.156 581.433 165.156ZM581.433 163.906C583.058 163.906 584.011 162.266 584.011 159.344C584.011 156.422 583.058 154.75 581.433 154.75C579.808 154.75 578.839 156.422 578.839 159.344C578.839 162.266 579.792 163.906 581.433 163.906ZM591.042 165.156C588.667 165.156 587.011 163.844 587.026 162C587.011 160.531 588.026 159.328 589.323 159.125V159.062C588.198 158.797 587.464 157.766 587.464 156.531C587.464 154.797 588.979 153.531 591.042 153.531C593.104 153.531 594.62 154.797 594.636 156.531C594.62 157.766 593.87 158.797 592.761 159.062V159.125C594.042 159.328 595.058 160.531 595.073 162C595.058 163.844 593.401 165.156 591.042 165.156ZM591.042 163.922C592.667 163.922 593.667 163.109 593.667 161.922C593.667 160.672 592.558 159.75 591.042 159.75C589.526 159.75 588.401 160.672 588.433 161.922C588.401 163.109 589.417 163.922 591.042 163.922ZM591.042 158.562C592.323 158.562 593.261 157.781 593.261 156.641C593.261 155.516 592.37 154.75 591.042 154.75C589.698 154.75 588.823 155.516 588.823 156.641C588.823 157.781 589.745 158.562 591.042 158.562ZM597.933 163.5C597.386 163.5 596.917 163.047 596.933 162.484C596.917 161.938 597.386 161.484 597.933 161.484C598.479 161.484 598.933 161.938 598.933 162.484C598.933 163.047 598.479 163.5 597.933 163.5ZM597.933 157.219C597.386 157.219 596.917 156.766 596.933 156.203C596.917 155.656 597.386 155.203 597.933 155.203C598.479 155.203 598.933 155.656 598.933 156.203C598.933 156.766 598.479 157.219 597.933 157.219ZM604.933 165.156C602.683 165.156 601.073 163.953 600.995 162.156H602.417C602.495 163.234 603.573 163.906 604.917 163.906C606.401 163.906 607.495 163.094 607.495 161.922C607.495 160.688 606.511 159.812 604.745 159.812H603.823V158.578H604.745C606.12 158.578 607.073 157.812 607.073 156.641C607.073 155.516 606.245 154.75 604.964 154.75C603.761 154.75 602.651 155.422 602.589 156.531H601.229C601.308 154.734 602.964 153.531 604.979 153.531C607.136 153.531 608.448 154.938 608.433 156.562C608.448 157.844 607.698 158.797 606.511 159.125V159.203C607.979 159.438 608.886 160.484 608.87 161.922C608.886 163.781 607.183 165.156 604.933 165.156ZM614.667 153.531C616.62 153.547 618.776 154.719 618.776 158.891C618.776 162.906 617.136 165.156 614.479 165.156C612.495 165.156 611.089 163.938 610.808 162.141H612.198C612.448 163.156 613.214 163.906 614.479 163.906C616.323 163.906 617.448 162.312 617.464 159.562H617.308C616.651 160.5 615.62 161.062 614.417 161.062C612.386 161.062 610.714 159.516 610.714 157.328C610.714 155.219 612.261 153.516 614.667 153.531ZM614.667 154.766C613.183 154.766 612.073 155.922 612.089 157.312C612.089 158.719 613.136 159.828 614.62 159.828C616.089 159.828 617.245 158.609 617.245 157.281C617.245 155.984 616.167 154.766 614.667 154.766ZM621.683 163.5C621.136 163.5 620.667 163.047 620.683 162.484C620.667 161.938 621.136 161.484 621.683 161.484C622.229 161.484 622.683 161.938 622.683 162.484C622.683 163.047 622.229 163.5 621.683 163.5ZM621.683 157.219C621.136 157.219 620.667 156.766 620.683 156.203C620.667 155.656 621.136 155.203 621.683 155.203C622.229 155.203 622.683 155.656 622.683 156.203C622.683 156.766 622.229 157.219 621.683 157.219ZM628.464 165.156C626.417 165.156 624.87 163.891 624.792 162.156H626.151C626.261 163.172 627.245 163.922 628.464 163.922C629.933 163.922 630.995 162.844 630.995 161.422C630.995 159.953 629.886 158.875 628.37 158.859C627.417 158.844 626.683 159.141 626.261 159.875H624.901L625.698 153.688H631.823V154.938H626.87L626.448 158.25H626.558C627.058 157.859 627.823 157.594 628.62 157.594C630.776 157.594 632.37 159.188 632.37 161.391C632.37 163.578 630.714 165.156 628.464 165.156ZM638.261 165.156C636.292 165.125 634.136 163.969 634.136 159.781C634.136 155.781 635.776 153.531 638.433 153.531C640.417 153.531 641.808 154.75 642.104 156.531H640.714C640.448 155.531 639.698 154.781 638.433 154.781C636.573 154.781 635.464 156.375 635.464 159.094H635.604C636.261 158.156 637.292 157.594 638.511 157.594C640.526 157.594 642.198 159.156 642.198 161.344C642.198 163.469 640.636 165.172 638.261 165.156ZM638.261 163.922C639.729 163.922 640.823 162.766 640.839 161.359C640.823 159.969 639.776 158.828 638.292 158.828C636.808 158.828 635.667 160.031 635.651 161.375C635.651 162.703 636.745 163.922 638.261 163.922Z" fill="#484848"/>
</g>
<path d="M118 204.5C118 204.224 118.224 204 118.5 204L781.5 204C781.776 204 782 204.224 782 204.5V204.5C782 204.776 781.776 205 781.5 205L118.5 205C118.224 205 118 204.776 118 204.5V204.5Z" fill="#EBEBEB"/>
<g clip-path="url(#clip4_1702_184778)">
<path d="M135.25 234V222.688H139.094C141.75 222.688 142.953 224.156 142.953 226.172C142.953 227.664 142.281 228.844 140.844 229.344L143.391 234H141.75L139.391 229.594L139.109 229.609H136.656V234H135.25ZM136.656 228.328H139.047C140.844 228.328 141.562 227.516 141.562 226.172C141.562 224.812 140.844 223.938 139.031 223.938H136.656V228.328ZM148.203 234.172C145.891 234.172 144.328 232.438 144.328 229.797C144.328 227.156 145.891 225.406 148.203 225.406C150.5 225.406 152.047 227.156 152.047 229.797C152.047 232.438 150.5 234.172 148.203 234.172ZM148.203 232.984C149.906 232.984 150.703 231.484 150.703 229.797C150.703 228.109 149.906 226.594 148.203 226.594C146.469 226.594 145.672 228.109 145.672 229.797C145.672 231.484 146.469 232.984 148.203 232.984ZM153.984 234V222.688H155.328V226.859H155.438C155.734 226.406 156.234 225.406 157.891 225.406C160.016 225.406 161.516 227.094 161.516 229.781C161.516 232.469 160.016 234.172 157.906 234.172C156.281 234.172 155.734 233.172 155.438 232.703H155.281V234H153.984ZM155.297 229.75C155.297 231.656 156.156 232.969 157.703 232.969C159.312 232.969 160.156 231.562 160.156 229.75C160.156 227.984 159.344 226.609 157.703 226.609C156.141 226.609 155.297 227.875 155.297 229.75ZM166.828 234.172C164.375 234.172 162.859 232.438 162.859 229.828C162.859 227.219 164.391 225.406 166.703 225.406C168.484 225.406 170.359 226.5 170.359 229.641V230.203H164.203C164.266 232 165.312 232.984 166.828 232.984C167.844 232.984 168.484 232.547 168.797 232.016H170.234C169.828 233.297 168.578 234.172 166.828 234.172ZM164.219 229.062H169C169 227.641 168.094 226.594 166.703 226.594C165.234 226.594 164.297 227.75 164.219 229.062ZM172.109 234V225.516H173.406V226.812H173.5C173.812 225.953 174.688 225.375 175.688 225.375C175.891 225.375 176.234 225.391 176.391 225.406V226.766C176.297 226.734 175.922 226.672 175.578 226.672C174.359 226.672 173.453 227.516 173.453 228.656V234H172.109ZM181.938 225.516V226.641H180.156V231.562C180.156 232.656 180.688 232.828 181.266 232.828C181.516 232.828 181.859 232.812 182.062 232.797V234.047C181.859 234.078 181.516 234.109 181.125 234.109C180 234.109 178.797 233.406 178.797 231.906V226.641H177.516V225.516H178.797V223.484H180.156V225.516H181.938ZM192.188 222.688H193.609V230.766C193.609 232.938 192.328 234.156 190.359 234.156C188.484 234.156 187.125 233.078 187.125 231.328H188.516C188.516 232.281 189.297 232.906 190.359 232.906C191.531 232.906 192.188 232.172 192.188 230.766V222.688ZM199.406 234.172C197.094 234.172 195.531 232.438 195.531 229.797C195.531 227.156 197.094 225.406 199.406 225.406C201.703 225.406 203.25 227.156 203.25 229.797C203.25 232.438 201.703 234.172 199.406 234.172ZM199.406 232.984C201.109 232.984 201.906 231.484 201.906 229.797C201.906 228.109 201.109 226.594 199.406 226.594C197.672 226.594 196.875 228.109 196.875 229.797C196.875 231.484 197.672 232.984 199.406 232.984ZM206.359 228.906V234H205.016V222.688H206.359V226.844H206.469C206.859 225.969 207.625 225.406 208.969 225.406C210.703 225.406 211.859 226.438 211.859 228.609V234H210.516V228.703C210.516 227.375 209.781 226.609 208.562 226.609C207.297 226.609 206.359 227.438 206.359 228.906ZM215.359 228.906V234H214.016V225.516H215.312V226.844H215.422C215.828 225.984 216.609 225.406 217.906 225.406C219.625 225.406 220.766 226.453 220.766 228.609V234H219.422V228.703C219.422 227.391 218.703 226.609 217.5 226.609C216.266 226.609 215.359 227.438 215.359 228.906ZM227.641 227.719C227.453 227.016 226.922 226.547 225.922 226.547C224.875 226.547 224.125 227.109 224.125 227.828C224.125 228.391 224.578 228.781 225.578 229.016L226.844 229.328C228.359 229.688 229.109 230.438 229.109 231.625C229.109 233.094 227.906 234.172 225.781 234.172C223.875 234.172 222.734 233.328 222.516 231.781H223.922C224.078 232.609 224.688 233 225.75 233C226.953 233 227.719 232.5 227.719 231.703C227.719 231.109 227.297 230.703 226.328 230.484L225.047 230.188C223.562 229.844 222.781 229.031 222.781 227.906C222.781 226.453 224.047 225.406 225.922 225.406C227.672 225.406 228.781 226.344 228.953 227.719H227.641ZM234.328 234.172C232.016 234.172 230.453 232.438 230.453 229.797C230.453 227.156 232.016 225.406 234.328 225.406C236.625 225.406 238.172 227.156 238.172 229.797C238.172 232.438 236.625 234.172 234.328 234.172ZM234.328 232.984C236.031 232.984 236.828 231.484 236.828 229.797C236.828 228.109 236.031 226.594 234.328 226.594C232.594 226.594 231.797 228.109 231.797 229.797C231.797 231.484 232.594 232.984 234.328 232.984ZM241.281 228.906V234H239.938V225.516H241.234V226.844H241.344C241.75 225.984 242.531 225.406 243.828 225.406C245.547 225.406 246.688 226.453 246.688 228.609V234H245.344V228.703C245.344 227.391 244.625 226.609 243.422 226.609C242.188 226.609 241.281 227.438 241.281 228.906Z" fill="#484848"/>
<path d="M137.828 256.264V253.611H135.189V252.504H137.828V249.865H138.936V252.504H141.588V253.611H138.936V256.264H137.828ZM147.207 248.102V258H145.963V249.387H145.908L143.502 250.986V249.742L145.963 248.102H147.207ZM153.674 254.227C153.688 251.643 154.385 249.496 155.643 247.678H156.682C155.752 249.031 154.891 251.793 154.891 254.227C154.891 256.66 155.752 259.436 156.682 260.789H155.643C154.385 258.957 153.688 256.811 153.674 254.227ZM161.357 258.137C159.566 258.137 158.213 257.029 158.145 255.512H159.334C159.43 256.4 160.291 257.057 161.357 257.057C162.643 257.057 163.572 256.113 163.572 254.869C163.572 253.584 162.602 252.641 161.275 252.627C160.441 252.613 159.799 252.873 159.43 253.516H158.24L158.938 248.102H164.297V249.195H159.963L159.594 252.094H159.689C160.127 251.752 160.797 251.52 161.494 251.52C163.381 251.52 164.775 252.914 164.775 254.842C164.775 256.756 163.326 258.137 161.357 258.137ZM169.711 258.137C167.92 258.137 166.566 257.029 166.498 255.512H167.688C167.783 256.4 168.645 257.057 169.711 257.057C170.996 257.057 171.926 256.113 171.926 254.869C171.926 253.584 170.955 252.641 169.629 252.627C168.795 252.613 168.152 252.873 167.783 253.516H166.594L167.291 248.102H172.65V249.195H168.316L167.947 252.094H168.043C168.48 251.752 169.15 251.52 169.848 251.52C171.734 251.52 173.129 252.914 173.129 254.842C173.129 256.756 171.68 258.137 169.711 258.137ZM178.064 258.137C176.273 258.137 174.92 257.029 174.852 255.512H176.041C176.137 256.4 176.998 257.057 178.064 257.057C179.35 257.057 180.279 256.113 180.279 254.869C180.279 253.584 179.309 252.641 177.982 252.627C177.148 252.613 176.506 252.873 176.137 253.516H174.947L175.645 248.102H181.004V249.195H176.67L176.301 252.094H176.396C176.834 251.752 177.504 251.52 178.201 251.52C180.088 251.52 181.482 252.914 181.482 254.842C181.482 256.756 180.033 258.137 178.064 258.137ZM185.789 254.227C185.775 256.811 185.078 258.957 183.82 260.789H182.781C183.711 259.436 184.572 256.66 184.572 254.227C184.572 251.793 183.711 249.031 182.781 247.678H183.82C185.078 249.496 185.775 251.643 185.789 254.227ZM194.895 258.137C192.926 258.137 191.518 257.084 191.449 255.512H192.693C192.762 256.455 193.705 257.043 194.881 257.043C196.18 257.043 197.137 256.332 197.137 255.307C197.137 254.227 196.275 253.461 194.73 253.461H193.924V252.381H194.73C195.934 252.381 196.768 251.711 196.768 250.686C196.768 249.701 196.043 249.031 194.922 249.031C193.869 249.031 192.898 249.619 192.844 250.59H191.654C191.723 249.018 193.172 247.965 194.936 247.965C196.822 247.965 197.971 249.195 197.957 250.617C197.971 251.738 197.314 252.572 196.275 252.859V252.928C197.561 253.133 198.354 254.049 198.34 255.307C198.354 256.934 196.863 258.137 194.895 258.137ZM200.117 258L200.104 257.098L203.48 253.543C204.656 252.299 205.217 251.629 205.217 250.713C205.217 249.701 204.355 249.031 203.248 249.031C202.072 249.031 201.32 249.783 201.32 250.891H200.158C200.145 249.141 201.498 247.965 203.289 247.965C205.08 247.965 206.365 249.168 206.365 250.713C206.365 251.82 205.846 252.682 204.096 254.486L201.826 256.824V256.906H206.543V258H200.117ZM211.834 248.102V258H210.59V249.387H210.535L208.129 250.986V249.742L210.59 248.102H211.834ZM218.738 252.518V253.598H214.404V252.518H218.738ZM223.77 258.137C221.568 258.137 220.311 256.291 220.311 253.051C220.311 249.838 221.596 247.965 223.77 247.965C225.943 247.965 227.229 249.838 227.229 253.051C227.229 256.291 225.957 258.137 223.77 258.137ZM223.77 257.043C225.191 257.043 226.025 255.607 226.025 253.051C226.025 250.494 225.191 249.031 223.77 249.031C222.348 249.031 221.5 250.494 221.5 253.051C221.5 255.607 222.334 257.043 223.77 257.043ZM232.164 247.965C233.873 247.979 235.76 249.004 235.76 252.654C235.76 256.168 234.324 258.137 232 258.137C230.264 258.137 229.033 257.07 228.787 255.498H230.004C230.223 256.387 230.893 257.043 232 257.043C233.613 257.043 234.598 255.648 234.611 253.242H234.475C233.9 254.062 232.998 254.555 231.945 254.555C230.168 254.555 228.705 253.201 228.705 251.287C228.705 249.441 230.059 247.951 232.164 247.965ZM232.164 249.045C230.865 249.045 229.895 250.057 229.908 251.273C229.908 252.504 230.824 253.475 232.123 253.475C233.408 253.475 234.42 252.408 234.42 251.246C234.42 250.111 233.477 249.045 232.164 249.045ZM240.764 258.137C238.686 258.137 237.236 256.988 237.25 255.375C237.236 254.09 238.125 253.037 239.26 252.859V252.805C238.275 252.572 237.633 251.67 237.633 250.59C237.633 249.072 238.959 247.965 240.764 247.965C242.568 247.965 243.895 249.072 243.908 250.59C243.895 251.67 243.238 252.572 242.268 252.805V252.859C243.389 253.037 244.277 254.09 244.291 255.375C244.277 256.988 242.828 258.137 240.764 258.137ZM240.764 257.057C242.186 257.057 243.061 256.346 243.061 255.307C243.061 254.213 242.09 253.406 240.764 253.406C239.438 253.406 238.453 254.213 238.48 255.307C238.453 256.346 239.342 257.057 240.764 257.057ZM240.764 252.367C241.885 252.367 242.705 251.684 242.705 250.686C242.705 249.701 241.926 249.031 240.764 249.031C239.588 249.031 238.822 249.701 238.822 250.686C238.822 251.684 239.629 252.367 240.764 252.367ZM246.26 258L250.799 249.264V249.195H245.562V248.102H252.07V249.25L247.545 258H246.26Z" fill="#858585"/>
<path d="M356.396 234L356.38 232.969L360.239 228.906C361.583 227.484 362.224 226.719 362.224 225.672C362.224 224.516 361.239 223.75 359.974 223.75C358.63 223.75 357.771 224.609 357.771 225.875H356.442C356.427 223.875 357.974 222.531 360.021 222.531C362.067 222.531 363.536 223.906 363.536 225.672C363.536 226.938 362.942 227.922 360.942 229.984L358.349 232.656V232.75H363.739V234H356.396ZM369.692 234.156C367.442 234.156 365.833 232.953 365.755 231.156H367.177C367.255 232.234 368.333 232.906 369.677 232.906C371.161 232.906 372.255 232.094 372.255 230.922C372.255 229.688 371.271 228.812 369.505 228.812H368.583V227.578H369.505C370.88 227.578 371.833 226.812 371.833 225.641C371.833 224.516 371.005 223.75 369.724 223.75C368.521 223.75 367.411 224.422 367.349 225.531H365.989C366.067 223.734 367.724 222.531 369.739 222.531C371.896 222.531 373.208 223.938 373.192 225.562C373.208 226.844 372.458 227.797 371.271 228.125V228.203C372.739 228.438 373.646 229.484 373.63 230.922C373.646 232.781 371.942 234.156 369.692 234.156ZM377.942 234L374.849 222.688H376.271L378.63 231.844H378.739L381.13 222.688H382.708L385.114 231.844H385.208L387.567 222.688H388.989L385.896 234H384.442L381.974 225.047H381.88L379.396 234H377.942ZM391.208 222.688L394.083 227.359H394.177L397.067 222.688H398.724L395.177 228.344L398.724 234H397.067L394.177 229.422H394.083L391.192 234H389.536L393.177 228.344L389.536 222.688H391.208ZM399.317 222.688H400.927L404.036 227.938H404.177L407.286 222.688H408.911L404.817 229.359V234H403.396V229.359L399.317 222.688ZM410.052 234V232.984L416.13 223.938H409.989V222.688H417.817V223.703L411.739 232.75H417.88V234H410.052ZM419.474 231.688V230.531L424.567 222.688H426.302V230.453H427.88V231.688H426.302V234H424.958V231.688H419.474ZM420.989 230.453H424.958V224.469H424.817L420.989 230.359V230.453ZM433.427 234.156C431.38 234.156 429.833 232.891 429.755 231.156H431.114C431.224 232.172 432.208 232.922 433.427 232.922C434.896 232.922 435.958 231.844 435.958 230.422C435.958 228.953 434.849 227.875 433.333 227.859C432.38 227.844 431.646 228.141 431.224 228.875H429.864L430.661 222.688H436.786V223.938H431.833L431.411 227.25H431.521C432.021 226.859 432.786 226.594 433.583 226.594C435.739 226.594 437.333 228.188 437.333 230.391C437.333 232.578 435.677 234.156 433.427 234.156ZM443.224 234.156C441.255 234.125 439.099 232.969 439.099 228.781C439.099 224.781 440.739 222.531 443.396 222.531C445.38 222.531 446.771 223.75 447.067 225.531H445.677C445.411 224.531 444.661 223.781 443.396 223.781C441.536 223.781 440.427 225.375 440.427 228.094H440.567C441.224 227.156 442.255 226.594 443.474 226.594C445.489 226.594 447.161 228.156 447.161 230.344C447.161 232.469 445.599 234.172 443.224 234.156ZM443.224 232.922C444.692 232.922 445.786 231.766 445.802 230.359C445.786 228.969 444.739 227.828 443.255 227.828C441.771 227.828 440.63 229.031 440.614 230.375C440.614 231.703 441.708 232.922 443.224 232.922ZM449.458 234L454.646 224.016V223.938H448.661V222.688H456.099V224L450.927 234H449.458ZM456.942 234H455.474L459.614 222.688H461.099L465.239 234H463.755L462.63 230.812H458.083L456.942 234ZM458.505 229.578H462.192L460.396 224.516H460.302L458.505 229.578ZM470.364 234.156C467.989 234.156 466.333 232.844 466.349 231C466.333 229.531 467.349 228.328 468.646 228.125V228.062C467.521 227.797 466.786 226.766 466.786 225.531C466.786 223.797 468.302 222.531 470.364 222.531C472.427 222.531 473.942 223.797 473.958 225.531C473.942 226.766 473.192 227.797 472.083 228.062V228.125C473.364 228.328 474.38 229.531 474.396 231C474.38 232.844 472.724 234.156 470.364 234.156ZM470.364 232.922C471.989 232.922 472.989 232.109 472.989 230.922C472.989 229.672 471.88 228.75 470.364 228.75C468.849 228.75 467.724 229.672 467.755 230.922C467.724 232.109 468.739 232.922 470.364 232.922ZM470.364 227.562C471.646 227.562 472.583 226.781 472.583 225.641C472.583 224.516 471.692 223.75 470.364 223.75C469.021 223.75 468.146 224.516 468.146 225.641C468.146 226.781 469.067 227.562 470.364 227.562ZM476.474 234V222.688H480.442C482.817 222.688 483.927 224.016 483.927 225.688C483.927 227.141 483.067 227.797 482.083 228.062V228.172C483.13 228.234 484.38 229.203 484.38 231C484.38 232.703 483.255 234 480.583 234H476.474ZM480.567 232.75C482.333 232.75 483.021 231.969 483.021 230.984C483.021 229.828 482.099 228.859 480.646 228.859H477.88V232.75H480.567ZM480.396 227.641C481.614 227.641 482.583 226.891 482.583 225.703C482.583 224.719 481.927 223.938 480.442 223.938H477.88V227.641H480.396ZM489.958 222.531C491.911 222.547 494.067 223.719 494.067 227.891C494.067 231.906 492.427 234.156 489.771 234.156C487.786 234.156 486.38 232.938 486.099 231.141H487.489C487.739 232.156 488.505 232.906 489.771 232.906C491.614 232.906 492.739 231.312 492.755 228.562H492.599C491.942 229.5 490.911 230.062 489.708 230.062C487.677 230.062 486.005 228.516 486.005 226.328C486.005 224.219 487.552 222.516 489.958 222.531ZM489.958 223.766C488.474 223.766 487.364 224.922 487.38 226.312C487.38 227.719 488.427 228.828 489.911 228.828C491.38 228.828 492.536 227.609 492.536 226.281C492.536 224.984 491.458 223.766 489.958 223.766ZM503.911 226.25C503.583 224.688 502.239 223.844 500.755 223.844C498.708 223.844 497.114 225.422 497.114 228.344C497.114 231.266 498.708 232.844 500.755 232.844C502.239 232.844 503.567 232 503.911 230.453H505.317C504.911 232.766 503.052 234.156 500.755 234.156C497.849 234.156 495.755 231.922 495.755 228.344C495.755 224.766 497.849 222.531 500.755 222.531C503.036 222.531 504.896 223.906 505.317 226.25H503.911ZM511.099 222.688V234H509.677V224.156H509.614L506.864 225.984V224.562L509.677 222.688H511.099Z" fill="#484848"/>
<path d="M581.433 234.156C578.917 234.156 577.479 232.047 577.479 228.344C577.479 224.672 578.948 222.531 581.433 222.531C583.917 222.531 585.386 224.672 585.386 228.344C585.386 232.047 583.933 234.156 581.433 234.156ZM581.433 232.906C583.058 232.906 584.011 231.266 584.011 228.344C584.011 225.422 583.058 223.75 581.433 223.75C579.808 223.75 578.839 225.422 578.839 228.344C578.839 231.266 579.792 232.906 581.433 232.906ZM590.948 234.156C588.901 234.156 587.354 232.891 587.276 231.156H588.636C588.745 232.172 589.729 232.922 590.948 232.922C592.417 232.922 593.479 231.844 593.479 230.422C593.479 228.953 592.37 227.875 590.854 227.859C589.901 227.844 589.167 228.141 588.745 228.875H587.386L588.183 222.688H594.308V223.938H589.354L588.933 227.25H589.042C589.542 226.859 590.308 226.594 591.104 226.594C593.261 226.594 594.854 228.188 594.854 230.391C594.854 232.578 593.198 234.156 590.948 234.156ZM597.776 232.5C597.229 232.5 596.761 232.047 596.776 231.484C596.761 230.938 597.229 230.484 597.776 230.484C598.323 230.484 598.776 230.938 598.776 231.484C598.776 232.047 598.323 232.5 597.776 232.5ZM597.776 226.219C597.229 226.219 596.761 225.766 596.776 225.203C596.761 224.656 597.229 224.203 597.776 224.203C598.323 224.203 598.776 224.656 598.776 225.203C598.776 225.766 598.323 226.219 597.776 226.219ZM604.87 222.688V234H603.448V224.156H603.386L600.636 225.984V224.562L603.448 222.688H604.87ZM611.667 234.156C609.292 234.156 607.636 232.844 607.651 231C607.636 229.531 608.651 228.328 609.948 228.125V228.062C608.823 227.797 608.089 226.766 608.089 225.531C608.089 223.797 609.604 222.531 611.667 222.531C613.729 222.531 615.245 223.797 615.261 225.531C615.245 226.766 614.495 227.797 613.386 228.062V228.125C614.667 228.328 615.683 229.531 615.698 231C615.683 232.844 614.026 234.156 611.667 234.156ZM611.667 232.922C613.292 232.922 614.292 232.109 614.292 230.922C614.292 229.672 613.183 228.75 611.667 228.75C610.151 228.75 609.026 229.672 609.058 230.922C609.026 232.109 610.042 232.922 611.667 232.922ZM611.667 227.562C612.948 227.562 613.886 226.781 613.886 225.641C613.886 224.516 612.995 223.75 611.667 223.75C610.323 223.75 609.448 224.516 609.448 225.641C609.448 226.781 610.37 227.562 611.667 227.562ZM618.558 232.5C618.011 232.5 617.542 232.047 617.558 231.484C617.542 230.938 618.011 230.484 618.558 230.484C619.104 230.484 619.558 230.938 619.558 231.484C619.558 232.047 619.104 232.5 618.558 232.5ZM618.558 226.219C618.011 226.219 617.542 225.766 617.558 225.203C617.542 224.656 618.011 224.203 618.558 224.203C619.104 224.203 619.558 224.656 619.558 225.203C619.558 225.766 619.104 226.219 618.558 226.219ZM625.558 234.156C623.308 234.156 621.698 232.953 621.62 231.156H623.042C623.12 232.234 624.198 232.906 625.542 232.906C627.026 232.906 628.12 232.094 628.12 230.922C628.12 229.688 627.136 228.812 625.37 228.812H624.448V227.578H625.37C626.745 227.578 627.698 226.812 627.698 225.641C627.698 224.516 626.87 223.75 625.589 223.75C624.386 223.75 623.276 224.422 623.214 225.531H621.854C621.933 223.734 623.589 222.531 625.604 222.531C627.761 222.531 629.073 223.938 629.058 225.562C629.073 226.844 628.323 227.797 627.136 228.125V228.203C628.604 228.438 629.511 229.484 629.495 230.922C629.511 232.781 627.808 234.156 625.558 234.156ZM635.214 234.156C633.167 234.156 631.62 232.891 631.542 231.156H632.901C633.011 232.172 633.995 232.922 635.214 232.922C636.683 232.922 637.745 231.844 637.745 230.422C637.745 228.953 636.636 227.875 635.12 227.859C634.167 227.844 633.433 228.141 633.011 228.875H631.651L632.448 222.688H638.573V223.938H633.62L633.198 227.25H633.308C633.808 226.859 634.573 226.594 635.37 226.594C637.526 226.594 639.12 228.188 639.12 230.391C639.12 232.578 637.464 234.156 635.214 234.156Z" fill="#484848"/>
</g>
<path d="M118 273.5C118 273.224 118.224 273 118.5 273L781.5 273C781.776 273 782 273.224 782 273.5V273.5C782 273.776 781.776 274 781.5 274L118.5 274C118.224 274 118 273.776 118 273.5V273.5Z" fill="#EBEBEB"/>
<g clip-path="url(#clip5_1702_184778)">
<path d="M135.25 303V291.688H142.109V292.938H136.656V296.719H141.75V297.953H136.656V301.75H142.188V303H135.25ZM145.5 291.688V303H144.156V291.688H145.5ZM148.984 291.688V303H147.641V291.688H148.984ZM150.719 300.594C150.719 298.641 152.438 298.203 153.906 298.094C154.445 298.055 155.82 297.984 156.203 297.969V297.281C156.203 296.203 155.562 295.578 154.281 295.578C153.203 295.578 152.562 296.078 152.375 296.719H150.969C151.141 295.359 152.469 294.406 154.344 294.406C155.453 294.406 157.531 294.734 157.531 297.406V303H156.203V301.844H156.141C155.859 302.422 155.078 303.203 153.609 303.203C152 303.203 150.719 302.25 150.719 300.594ZM152.062 300.656C152.062 301.547 152.812 302 153.844 302C155.359 302 156.203 300.984 156.203 299.922V299.062L154.062 299.219C152.844 299.297 152.062 299.734 152.062 300.656ZM163.875 303V291.688H165.281V301.75H170.531V303H163.875ZM175.797 303.172C173.344 303.172 171.828 301.438 171.828 298.828C171.828 296.219 173.359 294.406 175.672 294.406C177.453 294.406 179.328 295.5 179.328 298.641V299.203H173.172C173.234 301 174.281 301.984 175.797 301.984C176.812 301.984 177.453 301.547 177.766 301.016H179.203C178.797 302.297 177.547 303.172 175.797 303.172ZM173.188 298.062H177.969C177.969 296.641 177.062 295.594 175.672 295.594C174.203 295.594 173.266 296.75 173.188 298.062ZM182.984 303L180.406 294.516H181.828L183.641 300.984H183.719L185.516 294.516H186.953L188.719 300.953H188.812L190.625 294.516H192.031L189.453 303H188.125L186.281 296.531H186.156L184.328 303H182.984ZM193.516 303V294.516H194.859V303H193.516ZM194.188 293.109C193.672 293.109 193.25 292.719 193.25 292.219C193.25 291.719 193.672 291.328 194.188 291.328C194.703 291.328 195.141 291.719 195.141 292.219C195.141 292.719 194.703 293.109 194.188 293.109ZM201.719 296.719C201.531 296.016 201 295.547 200 295.547C198.953 295.547 198.203 296.109 198.203 296.828C198.203 297.391 198.656 297.781 199.656 298.016L200.922 298.328C202.438 298.688 203.188 299.438 203.188 300.625C203.188 302.094 201.984 303.172 199.859 303.172C197.953 303.172 196.812 302.328 196.594 300.781H198C198.156 301.609 198.766 302 199.828 302C201.031 302 201.797 301.5 201.797 300.703C201.797 300.109 201.375 299.703 200.406 299.484L199.125 299.188C197.641 298.844 196.859 298.031 196.859 296.906C196.859 295.453 198.125 294.406 200 294.406C201.75 294.406 202.859 295.344 203.031 296.719H201.719Z" fill="#484848"/>
<path d="M137.828 325.264V322.611H135.189V321.504H137.828V318.865H138.936V321.504H141.588V322.611H138.936V325.264H137.828ZM147.207 317.102V327H145.963V318.387H145.908L143.502 319.986V318.742L145.963 317.102H147.207ZM153.674 323.227C153.688 320.643 154.385 318.496 155.643 316.678H156.682C155.752 318.031 154.891 320.793 154.891 323.227C154.891 325.66 155.752 328.436 156.682 329.789H155.643C154.385 327.957 153.688 325.811 153.674 323.227ZM161.357 327.137C159.566 327.137 158.213 326.029 158.145 324.512H159.334C159.43 325.4 160.291 326.057 161.357 326.057C162.643 326.057 163.572 325.113 163.572 323.869C163.572 322.584 162.602 321.641 161.275 321.627C160.441 321.613 159.799 321.873 159.43 322.516H158.24L158.938 317.102H164.297V318.195H159.963L159.594 321.094H159.689C160.127 320.752 160.797 320.52 161.494 320.52C163.381 320.52 164.775 321.914 164.775 323.842C164.775 325.756 163.326 327.137 161.357 327.137ZM169.711 327.137C167.92 327.137 166.566 326.029 166.498 324.512H167.688C167.783 325.4 168.645 326.057 169.711 326.057C170.996 326.057 171.926 325.113 171.926 323.869C171.926 322.584 170.955 321.641 169.629 321.627C168.795 321.613 168.152 321.873 167.783 322.516H166.594L167.291 317.102H172.65V318.195H168.316L167.947 321.094H168.043C168.48 320.752 169.15 320.52 169.848 320.52C171.734 320.52 173.129 321.914 173.129 323.842C173.129 325.756 171.68 327.137 169.711 327.137ZM178.064 327.137C176.273 327.137 174.92 326.029 174.852 324.512H176.041C176.137 325.4 176.998 326.057 178.064 326.057C179.35 326.057 180.279 325.113 180.279 323.869C180.279 322.584 179.309 321.641 177.982 321.627C177.148 321.613 176.506 321.873 176.137 322.516H174.947L175.645 317.102H181.004V318.195H176.67L176.301 321.094H176.396C176.834 320.752 177.504 320.52 178.201 320.52C180.088 320.52 181.482 321.914 181.482 323.842C181.482 325.756 180.033 327.137 178.064 327.137ZM185.789 323.227C185.775 325.811 185.078 327.957 183.82 329.789H182.781C183.711 328.436 184.572 325.66 184.572 323.227C184.572 320.793 183.711 318.031 182.781 316.678H183.82C185.078 318.496 185.775 320.643 185.789 323.227ZM194.785 327.137C192.707 327.137 191.258 325.988 191.271 324.375C191.258 323.09 192.146 322.037 193.281 321.859V321.805C192.297 321.572 191.654 320.67 191.654 319.59C191.654 318.072 192.98 316.965 194.785 316.965C196.59 316.965 197.916 318.072 197.93 319.59C197.916 320.67 197.26 321.572 196.289 321.805V321.859C197.41 322.037 198.299 323.09 198.312 324.375C198.299 325.988 196.85 327.137 194.785 327.137ZM194.785 326.057C196.207 326.057 197.082 325.346 197.082 324.307C197.082 323.213 196.111 322.406 194.785 322.406C193.459 322.406 192.475 323.213 192.502 324.307C192.475 325.346 193.363 326.057 194.785 326.057ZM194.785 321.367C195.906 321.367 196.727 320.684 196.727 319.686C196.727 318.701 195.947 318.031 194.785 318.031C193.609 318.031 192.844 318.701 192.844 319.686C192.844 320.684 193.65 321.367 194.785 321.367ZM200.281 327L204.82 318.264V318.195H199.584V317.102H206.092V318.25L201.566 327H200.281ZM210.932 327.137C209.209 327.109 207.322 326.098 207.322 322.434C207.322 318.934 208.758 316.965 211.082 316.965C212.818 316.965 214.035 318.031 214.295 319.59H213.078C212.846 318.715 212.189 318.059 211.082 318.059C209.455 318.059 208.484 319.453 208.484 321.832H208.607C209.182 321.012 210.084 320.52 211.15 320.52C212.914 320.52 214.377 321.887 214.377 323.801C214.377 325.66 213.01 327.15 210.932 327.137ZM210.932 326.057C212.217 326.057 213.174 325.045 213.188 323.814C213.174 322.598 212.258 321.6 210.959 321.6C209.66 321.6 208.662 322.652 208.648 323.828C208.648 324.99 209.605 326.057 210.932 326.057ZM220.338 321.518V322.598H216.004V321.518H220.338ZM225.355 327.137C223.564 327.137 222.211 326.029 222.143 324.512H223.332C223.428 325.4 224.289 326.057 225.355 326.057C226.641 326.057 227.57 325.113 227.57 323.869C227.57 322.584 226.6 321.641 225.273 321.627C224.439 321.613 223.797 321.873 223.428 322.516H222.238L222.936 317.102H228.295V318.195H223.961L223.592 321.094H223.688C224.125 320.752 224.795 320.52 225.492 320.52C227.379 320.52 228.773 321.914 228.773 323.842C228.773 325.756 227.324 327.137 225.355 327.137ZM230.236 324.977V323.965L234.693 317.102H236.211V323.896H237.592V324.977H236.211V327H235.035V324.977H230.236ZM231.562 323.896H235.035V318.66H234.912L231.562 323.814V323.896ZM242.637 327.137C240.668 327.137 239.26 326.084 239.191 324.512H240.436C240.504 325.455 241.447 326.043 242.623 326.043C243.922 326.043 244.879 325.332 244.879 324.307C244.879 323.227 244.018 322.461 242.473 322.461H241.666V321.381H242.473C243.676 321.381 244.51 320.711 244.51 319.686C244.51 318.701 243.785 318.031 242.664 318.031C241.611 318.031 240.641 318.619 240.586 319.59H239.396C239.465 318.018 240.914 316.965 242.678 316.965C244.564 316.965 245.713 318.195 245.699 319.617C245.713 320.738 245.057 321.572 244.018 321.859V321.928C245.303 322.133 246.096 323.049 246.082 324.307C246.096 325.934 244.605 327.137 242.637 327.137ZM247.859 327L247.846 326.098L251.223 322.543C252.398 321.299 252.959 320.629 252.959 319.713C252.959 318.701 252.098 318.031 250.99 318.031C249.814 318.031 249.062 318.783 249.062 319.891H247.9C247.887 318.141 249.24 316.965 251.031 316.965C252.822 316.965 254.107 318.168 254.107 319.713C254.107 320.82 253.588 321.682 251.838 323.486L249.568 325.824V325.906H254.285V327H247.859Z" fill="#858585"/>
<path d="M360.333 303.156C358.364 303.125 356.208 301.969 356.208 297.781C356.208 293.781 357.849 291.531 360.505 291.531C362.489 291.531 363.88 292.75 364.177 294.531H362.786C362.521 293.531 361.771 292.781 360.505 292.781C358.646 292.781 357.536 294.375 357.536 297.094H357.677C358.333 296.156 359.364 295.594 360.583 295.594C362.599 295.594 364.271 297.156 364.271 299.344C364.271 301.469 362.708 303.172 360.333 303.156ZM360.333 301.922C361.802 301.922 362.896 300.766 362.911 299.359C362.896 297.969 361.849 296.828 360.364 296.828C358.88 296.828 357.739 298.031 357.724 299.375C357.724 300.703 358.817 301.922 360.333 301.922ZM366.567 303L371.755 293.016V292.938H365.771V291.688H373.208V293L368.036 303H366.567ZM377.317 303L374.224 291.688H375.646L378.005 300.844H378.114L380.505 291.688H382.083L384.489 300.844H384.583L386.942 291.688H388.364L385.271 303H383.817L381.349 294.047H381.255L378.771 303H377.317ZM390.583 291.688L393.458 296.359H393.552L396.442 291.688H398.099L394.552 297.344L398.099 303H396.442L393.552 298.422H393.458L390.567 303H388.911L392.552 297.344L388.911 291.688H390.583ZM398.692 291.688H400.302L403.411 296.938H403.552L406.661 291.688H408.286L404.192 298.359V303H402.771V298.359L398.692 291.688ZM409.427 303V301.984L415.505 292.938H409.364V291.688H417.192V292.703L411.114 301.75H417.255V303H409.427ZM419.13 303L419.114 301.969L422.974 297.906C424.317 296.484 424.958 295.719 424.958 294.672C424.958 293.516 423.974 292.75 422.708 292.75C421.364 292.75 420.505 293.609 420.505 294.875H419.177C419.161 292.875 420.708 291.531 422.755 291.531C424.802 291.531 426.271 292.906 426.271 294.672C426.271 295.938 425.677 296.922 423.677 298.984L421.083 301.656V301.75H426.474V303H419.13ZM432.427 303.156C430.177 303.156 428.567 301.953 428.489 300.156H429.911C429.989 301.234 431.067 301.906 432.411 301.906C433.896 301.906 434.989 301.094 434.989 299.922C434.989 298.688 434.005 297.812 432.239 297.812H431.317V296.578H432.239C433.614 296.578 434.567 295.812 434.567 294.641C434.567 293.516 433.739 292.75 432.458 292.75C431.255 292.75 430.146 293.422 430.083 294.531H428.724C428.802 292.734 430.458 291.531 432.474 291.531C434.63 291.531 435.942 292.938 435.927 294.562C435.942 295.844 435.192 296.797 434.005 297.125V297.203C435.474 297.438 436.38 298.484 436.364 299.922C436.38 301.781 434.677 303.156 432.427 303.156ZM438.114 300.688V299.531L443.208 291.688H444.942V299.453H446.521V300.688H444.942V303H443.599V300.688H438.114ZM439.63 299.453H443.599V293.469H443.458L439.63 299.359V299.453ZM452.067 303.156C450.021 303.156 448.474 301.891 448.396 300.156H449.755C449.864 301.172 450.849 301.922 452.067 301.922C453.536 301.922 454.599 300.844 454.599 299.422C454.599 297.953 453.489 296.875 451.974 296.859C451.021 296.844 450.286 297.141 449.864 297.875H448.505L449.302 291.688H455.427V292.938H450.474L450.052 296.25H450.161C450.661 295.859 451.427 295.594 452.224 295.594C454.38 295.594 455.974 297.188 455.974 299.391C455.974 301.578 454.317 303.156 452.067 303.156ZM458.614 303H457.146L461.286 291.688H462.771L466.911 303H465.427L464.302 299.812H459.755L458.614 303ZM460.177 298.578H463.864L462.067 293.516H461.974L460.177 298.578ZM472.192 303.156C470.224 303.125 468.067 301.969 468.067 297.781C468.067 293.781 469.708 291.531 472.364 291.531C474.349 291.531 475.739 292.75 476.036 294.531H474.646C474.38 293.531 473.63 292.781 472.364 292.781C470.505 292.781 469.396 294.375 469.396 297.094H469.536C470.192 296.156 471.224 295.594 472.442 295.594C474.458 295.594 476.13 297.156 476.13 299.344C476.13 301.469 474.567 303.172 472.192 303.156ZM472.192 301.922C473.661 301.922 474.755 300.766 474.771 299.359C474.755 297.969 473.708 296.828 472.224 296.828C470.739 296.828 469.599 298.031 469.583 299.375C469.583 300.703 470.677 301.922 472.192 301.922ZM478.255 303V291.688H482.224C484.599 291.688 485.708 293.016 485.708 294.688C485.708 296.141 484.849 296.797 483.864 297.062V297.172C484.911 297.234 486.161 298.203 486.161 300C486.161 301.703 485.036 303 482.364 303H478.255ZM482.349 301.75C484.114 301.75 484.802 300.969 484.802 299.984C484.802 298.828 483.88 297.859 482.427 297.859H479.661V301.75H482.349ZM482.177 296.641C483.396 296.641 484.364 295.891 484.364 294.703C484.364 293.719 483.708 292.938 482.224 292.938H479.661V296.641H482.177ZM488.333 303L493.521 293.016V292.938H487.536V291.688H494.974V293L489.802 303H488.333ZM504.708 295.25C504.38 293.688 503.036 292.844 501.552 292.844C499.505 292.844 497.911 294.422 497.911 297.344C497.911 300.266 499.505 301.844 501.552 301.844C503.036 301.844 504.364 301 504.708 299.453H506.114C505.708 301.766 503.849 303.156 501.552 303.156C498.646 303.156 496.552 300.922 496.552 297.344C496.552 293.766 498.646 291.531 501.552 291.531C503.833 291.531 505.692 292.906 506.114 295.25H504.708ZM511.677 303.156C509.302 303.156 507.646 301.844 507.661 300C507.646 298.531 508.661 297.328 509.958 297.125V297.062C508.833 296.797 508.099 295.766 508.099 294.531C508.099 292.797 509.614 291.531 511.677 291.531C513.739 291.531 515.255 292.797 515.271 294.531C515.255 295.766 514.505 296.797 513.396 297.062V297.125C514.677 297.328 515.692 298.531 515.708 300C515.692 301.844 514.036 303.156 511.677 303.156ZM511.677 301.922C513.302 301.922 514.302 301.109 514.302 299.922C514.302 298.672 513.192 297.75 511.677 297.75C510.161 297.75 509.036 298.672 509.067 299.922C509.036 301.109 510.052 301.922 511.677 301.922ZM511.677 296.562C512.958 296.562 513.896 295.781 513.896 294.641C513.896 293.516 513.005 292.75 511.677 292.75C510.333 292.75 509.458 293.516 509.458 294.641C509.458 295.781 510.38 296.562 511.677 296.562Z" fill="#484848"/>
<path d="M581.433 303.156C578.917 303.156 577.479 301.047 577.479 297.344C577.479 293.672 578.948 291.531 581.433 291.531C583.917 291.531 585.386 293.672 585.386 297.344C585.386 301.047 583.933 303.156 581.433 303.156ZM581.433 301.906C583.058 301.906 584.011 300.266 584.011 297.344C584.011 294.422 583.058 292.75 581.433 292.75C579.808 292.75 578.839 294.422 578.839 297.344C578.839 300.266 579.792 301.906 581.433 301.906ZM591.198 303.156C589.229 303.125 587.073 301.969 587.073 297.781C587.073 293.781 588.714 291.531 591.37 291.531C593.354 291.531 594.745 292.75 595.042 294.531H593.651C593.386 293.531 592.636 292.781 591.37 292.781C589.511 292.781 588.401 294.375 588.401 297.094H588.542C589.198 296.156 590.229 295.594 591.448 295.594C593.464 295.594 595.136 297.156 595.136 299.344C595.136 301.469 593.573 303.172 591.198 303.156ZM591.198 301.922C592.667 301.922 593.761 300.766 593.776 299.359C593.761 297.969 592.714 296.828 591.229 296.828C589.745 296.828 588.604 298.031 588.589 299.375C588.589 300.703 589.683 301.922 591.198 301.922ZM598.042 301.5C597.495 301.5 597.026 301.047 597.042 300.484C597.026 299.938 597.495 299.484 598.042 299.484C598.589 299.484 599.042 299.938 599.042 300.484C599.042 301.047 598.589 301.5 598.042 301.5ZM598.042 295.219C597.495 295.219 597.026 294.766 597.042 294.203C597.026 293.656 597.495 293.203 598.042 293.203C598.589 293.203 599.042 293.656 599.042 294.203C599.042 294.766 598.589 295.219 598.042 295.219ZM605.136 291.688V303H603.714V293.156H603.651L600.901 294.984V293.562L603.714 291.688H605.136ZM608.511 303L613.698 293.016V292.938H607.714V291.688H615.151V293L609.979 303H608.511ZM617.417 301.5C616.87 301.5 616.401 301.047 616.417 300.484C616.401 299.938 616.87 299.484 617.417 299.484C617.964 299.484 618.417 299.938 618.417 300.484C618.417 301.047 617.964 301.5 617.417 301.5ZM617.417 295.219C616.87 295.219 616.401 294.766 616.417 294.203C616.401 293.656 616.87 293.203 617.417 293.203C617.964 293.203 618.417 293.656 618.417 294.203C618.417 294.766 617.964 295.219 617.417 295.219ZM624.417 303.156C622.167 303.156 620.558 301.953 620.479 300.156H621.901C621.979 301.234 623.058 301.906 624.401 301.906C625.886 301.906 626.979 301.094 626.979 299.922C626.979 298.688 625.995 297.812 624.229 297.812H623.308V296.578H624.229C625.604 296.578 626.558 295.812 626.558 294.641C626.558 293.516 625.729 292.75 624.448 292.75C623.245 292.75 622.136 293.422 622.073 294.531H620.714C620.792 292.734 622.448 291.531 624.464 291.531C626.62 291.531 627.933 292.938 627.917 294.562C627.933 295.844 627.183 296.797 625.995 297.125V297.203C627.464 297.438 628.37 298.484 628.354 299.922C628.37 301.781 626.667 303.156 624.417 303.156ZM630.104 300.688V299.531L635.198 291.688H636.933V299.453H638.511V300.688H636.933V303H635.589V300.688H630.104ZM631.62 299.453H635.589V293.469H635.448L631.62 299.359V299.453Z" fill="#484848"/>
</g>
<path d="M118 342.5C118 342.224 118.224 342 118.5 342L781.5 342C781.776 342 782 342.224 782 342.5V342.5C782 342.776 781.776 343 781.5 343L118.5 343C118.224 343 118 342.776 118 342.5V342.5Z" fill="#EBEBEB"/>
<g clip-path="url(#clip6_1702_184778)">
<rect x="774" y="142" width="4" height="98.5" fill="#E0E0E0"/>
</g>
<g clip-path="url(#clip7_1702_184778)">
<rect x="388.75" y="335" width="4" height="266.75" transform="rotate(90 388.75 335)" fill="#E0E0E0"/>
</g>
</g>
</g>
<path d="M122 48.5H778C779.933 48.5 781.5 50.067 781.5 52V339C781.5 340.933 779.933 342.5 778 342.5H122C120.067 342.5 118.5 340.933 118.5 339V52C118.5 50.067 120.067 48.5 122 48.5Z" stroke="#EBEBEB"/>
<mask id="mask3_1702_184778" style="mask-type:alpha" maskUnits="userSpaceOnUse" x="233" y="371" width="20" height="20">
<path d="M242.609 377.275L238.884 381L242.609 384.725L241.725 385.609L237.558 381.442C237.314 381.198 237.314 380.802 237.558 380.558L241.725 376.392L242.609 377.275ZM248.442 377.275L244.717 381L248.442 384.725L247.558 385.609L243.391 381.442C243.147 381.198 243.147 380.802 243.391 380.558L247.558 376.392L248.442 377.275Z" fill="#161616"/>
</mask>
<g mask="url(#mask3_1702_184778)">
<rect x="233" y="371" width="20" height="20" fill="#161616"/>
</g>
<mask id="mask4_1702_184778" style="mask-type:alpha" maskUnits="userSpaceOnUse" x="269" y="371" width="20" height="20">
<path d="M281.942 376.442L277.384 381L281.942 385.558L281.058 386.442L276.058 381.442C275.814 381.198 275.814 380.802 276.058 380.558L281.058 375.558L281.942 376.442Z" fill="#161616"/>
</mask>
<g mask="url(#mask4_1702_184778)">
<rect x="269" y="371" width="20" height="20" fill="#161616"/>
</g>
<path d="M316.627 376.102V386H314.836V377.838H314.781L312.471 379.314V377.688L314.918 376.102H316.627Z" fill="#282363"/>
<path fill-rule="evenodd" clip-rule="evenodd" d="M321 399H309V396H321V399Z" fill="#3A3480"/>
<path d="M347.821 386L347.808 385.098L351.185 381.543C352.36 380.299 352.921 379.629 352.921 378.713C352.921 377.701 352.06 377.031 350.952 377.031C349.776 377.031 349.024 377.783 349.024 378.891H347.862C347.849 377.141 349.202 375.965 350.993 375.965C352.784 375.965 354.069 377.168 354.069 378.713C354.069 379.82 353.55 380.682 351.8 382.486L349.53 384.824V384.906H354.247V386H347.821Z" fill="#858585"/>
<path d="M387.027 386.137C385.059 386.137 383.65 385.084 383.582 383.512H384.826C384.895 384.455 385.838 385.043 387.014 385.043C388.312 385.043 389.27 384.332 389.27 383.307C389.27 382.227 388.408 381.461 386.863 381.461H386.057V380.381H386.863C388.066 380.381 388.9 379.711 388.9 378.686C388.9 377.701 388.176 377.031 387.055 377.031C386.002 377.031 385.031 377.619 384.977 378.59H383.787C383.855 377.018 385.305 375.965 387.068 375.965C388.955 375.965 390.104 377.195 390.09 378.617C390.104 379.738 389.447 380.572 388.408 380.859V380.928C389.693 381.133 390.486 382.049 390.473 383.307C390.486 384.934 388.996 386.137 387.027 386.137Z" fill="#858585"/>
<path d="M419.315 383.977V382.965L423.772 376.102H425.29V382.896H426.671V383.977H425.29V386H424.114V383.977H419.315ZM420.642 382.896H424.114V377.66H423.991L420.642 382.814V382.896Z" fill="#858585"/>
<path d="M458.979 386.137C457.188 386.137 455.835 385.029 455.767 383.512H456.956C457.052 384.4 457.913 385.057 458.979 385.057C460.265 385.057 461.194 384.113 461.194 382.869C461.194 381.584 460.224 380.641 458.897 380.627C458.063 380.613 457.421 380.873 457.052 381.516H455.862L456.56 376.102H461.919V377.195H457.585L457.216 380.094H457.312C457.749 379.752 458.419 379.52 459.116 379.52C461.003 379.52 462.397 380.914 462.397 382.842C462.397 384.756 460.948 386.137 458.979 386.137Z" fill="#858585"/>
<mask id="mask5_1702_184778" style="mask-type:alpha" maskUnits="userSpaceOnUse" x="485" y="371" width="20" height="20">
<path d="M497.942 380.558C498.186 380.802 498.186 381.198 497.942 381.442L492.942 386.442L492.059 385.558L496.617 381L492.059 376.442L492.942 375.558L497.942 380.558Z" fill="#161616"/>
</mask>
<g mask="url(#mask5_1702_184778)">
<rect x="485" y="371" width="20" height="20" fill="#161616"/>
</g>
<mask id="mask6_1702_184778" style="mask-type:alpha" maskUnits="userSpaceOnUse" x="521" y="371" width="20" height="20">
<path d="M530.609 380.558L530.652 380.605C530.839 380.835 530.839 381.166 530.652 381.395L530.609 381.442L526.442 385.609L525.559 384.725L529.283 381L525.559 377.275L526.442 376.392L530.609 380.558ZM536.442 380.558L536.486 380.605C536.672 380.835 536.672 381.166 536.486 381.395L536.442 381.442L532.276 385.609L531.392 384.725L535.117 381L531.392 377.275L532.276 376.392L536.442 380.558Z" fill="#161616"/>
</mask>
<g mask="url(#mask6_1702_184778)">
<rect x="521" y="371" width="20" height="20" fill="#161616"/>
</g>
<g clip-path="url(#clip8_1702_184778)">
<path d="M561 370C561 367.791 562.791 366 565 366H591C593.209 366 595 367.791 595 370V392C595 394.209 593.209 396 591 396H565C562.791 396 561 394.209 561 392V370Z" fill="white"/>
<path d="M579.166 376.516V385H578.1V377.617H578.053L575.99 378.988V377.922L578.1 376.516H579.166Z" fill="#858585"/>
</g>
<path d="M565 366.5H591C592.933 366.5 594.5 368.067 594.5 370V392C594.5 393.933 592.933 395.5 591 395.5H565C563.067 395.5 561.5 393.933 561.5 392V370L561.505 369.82C561.598 367.971 563.127 366.5 565 366.5Z" stroke="black" stroke-opacity="0.16"/>
<path d="M606.979 386.15C604.955 386.15 603.588 384.633 603.588 382.322C603.588 380.012 604.955 378.48 606.979 378.48C608.988 378.48 610.342 380.012 610.342 382.322C610.342 384.633 608.988 386.15 606.979 386.15ZM606.979 385.111C608.469 385.111 609.166 383.799 609.166 382.322C609.166 380.846 608.469 379.52 606.979 379.52C605.461 379.52 604.764 380.846 604.764 382.322C604.764 383.799 605.461 385.111 606.979 385.111ZM615.209 378.576V379.561H613.568V386H612.379V379.561H611.189V378.576H612.379V377.564C612.379 376.361 613.186 375.637 614.498 375.637C614.785 375.637 615.127 375.678 615.373 375.719V376.771C615.127 376.73 614.908 376.717 614.758 376.717C613.938 376.717 613.568 377.059 613.568 377.824V378.576H615.209ZM623.604 376.102V386H622.359V377.387H622.305L619.898 378.986V377.742L622.359 376.102H623.604ZM629.742 376.102V386H628.498V377.387H628.443L626.037 378.986V377.742L628.498 376.102H629.742ZM635.607 386.137C633.816 386.137 632.463 385.029 632.395 383.512H633.584C633.68 384.4 634.541 385.057 635.607 385.057C636.893 385.057 637.822 384.113 637.822 382.869C637.822 381.584 636.852 380.641 635.525 380.627C634.691 380.613 634.049 380.873 633.68 381.516H632.49L633.188 376.102H638.547V377.195H634.213L633.844 380.094H633.939C634.377 379.752 635.047 379.52 635.744 379.52C637.631 379.52 639.025 380.914 639.025 382.842C639.025 384.756 637.576 386.137 635.607 386.137ZM644.262 388.789V378.576H645.396V379.752H645.533C645.779 379.355 646.244 378.48 647.68 378.48C649.539 378.48 650.838 379.957 650.838 382.309C650.838 384.66 649.539 386.15 647.693 386.15C646.271 386.15 645.779 385.275 645.533 384.865H645.438V388.789H644.262ZM645.41 382.281C645.41 383.949 646.162 385.098 647.529 385.098C648.938 385.098 649.662 383.867 649.662 382.281C649.662 380.736 648.951 379.533 647.529 379.533C646.135 379.533 645.41 380.641 645.41 382.281ZM652.014 383.895C652.014 382.186 653.518 381.803 654.803 381.707C655.274 381.673 656.478 381.611 656.812 381.598V380.996C656.812 380.053 656.252 379.506 655.131 379.506C654.188 379.506 653.627 379.943 653.463 380.504H652.232C652.383 379.314 653.545 378.48 655.186 378.48C656.156 378.48 657.975 378.768 657.975 381.105V386H656.812V384.988H656.758C656.512 385.494 655.828 386.178 654.543 386.178C653.135 386.178 652.014 385.344 652.014 383.895ZM653.189 383.949C653.189 384.729 653.846 385.125 654.748 385.125C656.074 385.125 656.812 384.236 656.812 383.307V382.555L654.939 382.691C653.873 382.76 653.189 383.143 653.189 383.949ZM662.869 388.939C661.078 388.939 659.861 388.16 659.725 386.779H660.955C661.119 387.531 661.816 387.914 662.869 387.914C664.141 387.914 664.92 387.367 664.92 386.137V384.633H664.824C664.578 385.043 664.1 385.891 662.664 385.891C660.859 385.891 659.506 384.523 659.506 382.186C659.506 379.902 660.818 378.48 662.678 378.48C664.113 378.48 664.578 379.355 664.852 379.752H664.947V378.576H666.096V386.205C666.096 388.119 664.674 388.939 662.869 388.939ZM662.828 384.838C664.182 384.838 664.947 383.867 664.947 382.227C664.947 380.641 664.209 379.533 662.828 379.533C661.406 379.533 660.695 380.736 660.695 382.227C660.695 383.771 661.42 384.838 662.828 384.838ZM671.086 386.15C668.939 386.15 667.613 384.633 667.613 382.35C667.613 380.066 668.953 378.48 670.977 378.48C672.535 378.48 674.176 379.438 674.176 382.186V382.678H668.789C668.844 384.25 669.76 385.111 671.086 385.111C671.975 385.111 672.535 384.729 672.809 384.264H674.066C673.711 385.385 672.617 386.15 671.086 386.15ZM668.803 381.68H672.986C672.986 380.436 672.193 379.52 670.977 379.52C669.691 379.52 668.871 380.531 668.803 381.68Z" fill="#858585"/>
</g>
<rect x="141" y="13" width="28" height="28" rx="14" fill="#161616"/>
<path d="M156.859 21.6875V33H154.812V23.6719H154.75L152.109 25.3594V23.5L154.906 21.6875H156.859Z" fill="white"/>
<path d="M154.5 41H155.5V61.5C155.5 61.7761 155.276 62 155 62V62C154.724 62 154.5 61.7761 154.5 61.5V41Z" fill="#161616"/>
<circle cx="155" cy="60" r="2" fill="#161616"/>
<rect x="256" y="13" width="28" height="28" rx="14" fill="#161616"/>
<path d="M266.117 33V31.5312L270.117 27.6719C271.258 26.5312 271.852 25.8594 271.852 24.9062C271.852 23.8594 271.023 23.1875 269.914 23.1875C268.742 23.1875 267.992 23.9219 268.008 25.0625H266.07C266.055 22.9219 267.664 21.5312 269.93 21.5312C272.242 21.5312 273.805 22.9062 273.805 24.8125C273.805 26.0938 273.18 27.125 270.961 29.2188L268.945 31.2188V31.2969H273.977V33H266.117Z" fill="white"/>
<path d="M269.5 41H270.5V61.5C270.5 61.7761 270.276 62 270 62V62C269.724 62 269.5 61.7761 269.5 61.5V41Z" fill="#161616"/>
<circle cx="270" cy="60" r="2" fill="#161616"/>
<rect x="381" y="13" width="28" height="28" rx="14" fill="#161616"/>
<path d="M394.992 33.1562C392.57 33.1562 390.852 31.8438 390.805 29.9375H392.852C392.914 30.8438 393.82 31.4375 394.992 31.4375C396.242 31.4375 397.133 30.75 397.133 29.75C397.133 28.7344 396.258 28 394.789 28H393.773V26.4375H394.789C395.992 26.4375 396.836 25.7656 396.82 24.7812C396.836 23.8281 396.117 23.1875 395.008 23.1875C393.945 23.1875 393.023 23.7812 392.992 24.7344H391.039C391.086 22.8281 392.805 21.5312 395.023 21.5312C397.32 21.5312 398.805 22.9375 398.789 24.6719C398.805 25.9375 397.961 26.8594 396.727 27.1094V27.2031C398.32 27.4219 399.227 28.4375 399.211 29.8594C399.227 31.7656 397.445 33.1562 394.992 33.1562Z" fill="white"/>
<path d="M394.5 41H395.5V61.5C395.5 61.7761 395.276 62 395 62V62C394.724 62 394.5 61.7761 394.5 61.5V41Z" fill="#161616"/>
<circle cx="395" cy="60" r="2" fill="#161616"/>
<rect x="74" y="104" width="28" height="28" rx="14" fill="#161616"/>
<path d="M83.5703 121.891V120.266L88.4609 112.688H90.9922V120.219H92.4766V121.891H90.9922V124H89.0547V121.891H83.5703ZM85.6484 120.219H89.0859V115H88.9609L85.6484 120.141V120.219Z" fill="white"/>
<path d="M102 117.5H125.5C125.776 117.5 126 117.724 126 118V118C126 118.276 125.776 118.5 125.5 118.5H102V117.5Z" fill="#161616"/>
<circle cx="124" cy="118" r="2" fill="#161616"/>
<path d="M776 178C776 177.724 776.224 177.5 776.5 177.5H800V178.5H776.5C776.224 178.5 776 178.276 776 178V178Z" fill="#161616"/>
<rect x="800" y="164" width="28" height="28" rx="14" fill="#161616"/>
<path d="M814 184.156C811.484 184.156 809.703 182.812 809.703 180.969C809.703 179.531 810.766 178.359 812.125 178.141V178.078C810.938 177.828 810.125 176.797 810.125 175.562C810.125 173.812 811.766 172.531 814 172.531C816.219 172.531 817.859 173.812 817.859 175.562C817.859 176.797 817.031 177.828 815.859 178.078V178.141C817.219 178.359 818.297 179.531 818.297 180.969C818.297 182.812 816.5 184.156 814 184.156ZM814 182.547C815.328 182.547 816.203 181.828 816.203 180.781C816.203 179.719 815.266 178.938 814 178.938C812.719 178.938 811.781 179.719 811.797 180.781C811.781 181.828 812.656 182.547 814 182.547ZM814 177.422C815.094 177.422 815.875 176.734 815.875 175.75C815.875 174.797 815.109 174.125 814 174.125C812.875 174.125 812.109 174.781 812.109 175.75C812.109 176.734 812.891 177.422 814 177.422Z" fill="white"/>
<circle cx="778" cy="178" r="2" fill="#161616"/>
<rect x="74" y="141" width="28" height="28" rx="14" fill="#161616"/>
<path d="M88.0156 161.156C85.75 161.156 84.0938 159.812 84.0312 157.938H86.0156C86.0781 158.859 86.9375 159.516 88.0156 159.516C89.2812 159.516 90.1875 158.594 90.1875 157.344C90.1875 156.047 89.25 155.125 87.9531 155.125C87.0781 155.109 86.4375 155.422 86.0781 156.094H84.1875L84.875 149.688H91.5625V151.391H86.5469L86.2031 154.391H86.3125C86.75 153.891 87.5781 153.531 88.5 153.531C90.6094 153.531 92.1562 155.109 92.1562 157.281C92.1562 159.547 90.4531 161.156 88.0156 161.156Z" fill="white"/>
<path d="M102 154.5H133.5C133.776 154.5 134 154.724 134 155V155C134 155.276 133.776 155.5 133.5 155.5H102V154.5Z" fill="#161616"/>
<circle cx="132" cy="155" r="2" fill="#161616"/>
<rect x="74" y="173" width="28" height="28" rx="14" fill="#161616"/>
<path d="M88.1094 193.156C85.9062 193.141 83.6875 191.828 83.7031 187.656C83.7031 183.781 85.4688 181.531 88.2344 181.531C90.4219 181.531 91.9219 182.906 92.1719 184.734H90.1562C89.9531 183.875 89.2656 183.297 88.2344 183.297C86.5938 183.297 85.6719 184.75 85.6719 187.125H85.7812C86.3594 186.156 87.4531 185.578 88.6875 185.578C90.7188 185.578 92.2812 187.109 92.2812 189.25C92.2812 191.5 90.6094 193.172 88.1094 193.156ZM88.1094 191.516C89.375 191.516 90.3125 190.531 90.3125 189.297C90.3125 188.094 89.3906 187.125 88.1406 187.125C86.875 187.125 85.9062 188.125 85.8906 189.312C85.9062 190.5 86.8281 191.516 88.1094 191.516Z" fill="white"/>
<path d="M102 186.5H129.5C129.776 186.5 130 186.724 130 187V187C130 187.276 129.776 187.5 129.5 187.5H102V186.5Z" fill="#161616"/>
<circle cx="128" cy="187" r="2" fill="#161616"/>
<rect x="74" y="323" width="28" height="28" rx="14" fill="#161616"/>
<path d="M84.8203 343L89.7266 333.469V333.391H84.0391V331.688H91.8359V333.422L86.9297 343H84.8203Z" fill="white"/>
<path d="M102 336.5H129.5C129.776 336.5 130 336.724 130 337V337C130 337.276 129.776 337.5 129.5 337.5H102V336.5Z" fill="#161616"/>
<circle cx="128" cy="337" r="2" fill="#161616"/>
<rect x="157" y="367" width="28" height="28" rx="14" fill="#161616"/>
<path d="M170.891 375.531C173.109 375.547 175.297 376.859 175.312 381C175.312 384.906 173.547 387.156 170.766 387.156C168.578 387.156 167.078 385.797 166.828 383.922H168.844C169.047 384.812 169.734 385.391 170.766 385.391C172.406 385.391 173.328 383.938 173.344 381.516H173.219C172.641 382.5 171.562 383.078 170.312 383.078C168.297 383.078 166.734 381.547 166.719 379.406C166.719 377.188 168.375 375.516 170.891 375.531ZM170.906 377.172C169.641 377.172 168.688 378.156 168.703 379.359C168.703 380.578 169.609 381.531 170.875 381.531C172.125 381.531 173.109 380.516 173.094 379.344C173.094 378.188 172.172 377.172 170.906 377.172Z" fill="white"/>
<path d="M185 380.5H224.5C224.776 380.5 225 380.724 225 381V381C225 381.276 224.776 381.5 224.5 381.5H185V380.5Z" fill="#161616"/>
<circle cx="223" cy="381" r="2" fill="#161616"/>
<path d="M688 381C688 380.724 688.224 380.5 688.5 380.5H728V381.5H688.5C688.224 381.5 688 381.276 688 381V381Z" fill="#161616"/>
<rect x="728" y="367" width="28" height="28" rx="14" fill="#161616"/>
<path d="M738.75 375.688V387H736.703V377.672H736.641L734 379.359V377.5L736.797 375.688H738.75ZM745.672 387.156C742.953 387.156 741.328 385.047 741.328 381.344C741.328 377.656 742.953 375.531 745.672 375.531C748.375 375.531 750.016 377.656 750.016 381.344C750.016 385.047 748.391 387.156 745.672 387.156ZM745.672 385.453C747.094 385.453 747.969 384.062 747.969 381.344C747.969 378.641 747.078 377.219 745.672 377.219C744.266 377.219 743.375 378.641 743.375 381.344C743.375 384.062 744.25 385.453 745.672 385.453Z" fill="white"/>
<circle cx="690" cy="381" r="2" fill="#161616"/>
<defs>
<clipPath id="clip0_1702_184778">
<rect width="664" height="351" fill="white" transform="translate(118 48)"/>
</clipPath>
<clipPath id="clip1_1702_184778">
<path d="M118 52C118 49.7909 119.791 48 122 48H778C780.209 48 782 49.7909 782 52V339C782 341.209 780.209 343 778 343H122C119.791 343 118 341.209 118 339V52Z" fill="white"/>
</clipPath>
<clipPath id="clip2_1702_184778">
<rect width="664" height="243" fill="white" transform="translate(118 100)"/>
</clipPath>
<clipPath id="clip3_1702_184778">
<rect width="664" height="68" fill="white" transform="translate(118 136)"/>
</clipPath>
<clipPath id="clip4_1702_184778">
<rect width="664" height="68" fill="white" transform="translate(118 205)"/>
</clipPath>
<clipPath id="clip5_1702_184778">
<rect width="664" height="68" fill="white" transform="translate(118 274)"/>
</clipPath>
<clipPath id="clip6_1702_184778">
<path d="M774 144C774 142.895 774.895 142 776 142V142C777.105 142 778 142.895 778 144V238.5C778 239.605 777.105 240.5 776 240.5V240.5C774.895 240.5 774 239.605 774 238.5V144Z" fill="white"/>
</clipPath>
<clipPath id="clip7_1702_184778">
<path d="M386.75 335C387.855 335 388.75 335.895 388.75 337V337C388.75 338.105 387.855 339 386.75 339L124 339C122.895 339 122 338.105 122 337V337C122 335.895 122.895 335 124 335L386.75 335Z" fill="white"/>
</clipPath>
<clipPath id="clip8_1702_184778">
<path d="M561 370C561 367.791 562.791 366 565 366H591C593.209 366 595 367.791 595 370V392C595 394.209 593.209 396 591 396H565C562.791 396 561 394.209 561 392V370Z" fill="white"/>
</clipPath>
</defs>
</svg>
