<svg width="900" height="322" viewBox="0 0 900 322" fill="none" xmlns="http://www.w3.org/2000/svg">
<mask id="path-2-inside-1_1702_185350" fill="white">
<path d="M48 48H312V72H48V48Z"/>
</mask>
<path d="M48 48H312V72H48V48Z" fill="black" fill-opacity="0.04"/>
<path d="M312 72V71H48V72V73H312V72Z" fill="#EBEBEB" mask="url(#path-2-inside-1_1702_185350)"/>
<path d="M60.7852 64V55.5156H62.3086V59.1133H66.2578V55.5156H67.793V64H66.2578V60.3906H62.3086V64H60.7852ZM72.1172 64.1289C70.1953 64.1289 69.0234 62.8516 69.0234 60.8594C69.0234 58.8906 70.2188 57.5547 72.0352 57.5547C73.5938 57.5547 74.9414 58.5273 74.9414 60.7656V61.2344H70.5C70.5176 62.3184 71.1562 62.957 72.1289 62.957C72.7852 62.957 73.2305 62.6758 73.418 62.3008H74.8828C74.6133 63.4023 73.5938 64.1289 72.1172 64.1289ZM70.5117 60.2148H73.5117C73.5 59.3477 72.9258 58.7148 72.0586 58.7148C71.1562 58.7148 70.5586 59.4004 70.5117 60.2148ZM75.8086 62.207C75.8086 60.7773 76.9922 60.3555 78.1758 60.2852C78.6152 60.2559 79.5293 60.2031 79.8047 60.1914V59.6875C79.8047 59.0547 79.3945 58.6914 78.6562 58.6914C77.9883 58.6914 77.5781 58.9961 77.4609 59.4531H76.0195C76.125 58.375 77.0977 57.5547 78.6914 57.5547C79.8984 57.5547 81.293 58.0469 81.293 59.7461V64H79.8633V63.1211H79.8164C79.5352 63.6602 78.9375 64.1289 77.9414 64.1289C76.7227 64.1289 75.8086 63.4609 75.8086 62.207ZM77.25 62.1953C77.25 62.7461 77.6953 63.0273 78.3281 63.0273C79.2305 63.0273 79.8164 62.4297 79.8164 61.7148V61.1875L78.4102 61.2812C77.6953 61.3398 77.25 61.6328 77.25 62.1953ZM85.0664 64.1172C83.5664 64.1172 82.4414 62.9219 82.4414 60.8242C82.4414 58.7031 83.6016 57.5547 85.0781 57.5547C86.2031 57.5547 86.6719 58.2227 86.8945 58.6797H86.9531V55.5156H88.4414V64H86.9766V62.9922H86.8945C86.6602 63.4609 86.168 64.1172 85.0664 64.1172ZM85.4766 62.8867C86.4375 62.8867 86.9883 62.0547 86.9883 60.8125C86.9883 59.582 86.4492 58.7734 85.4766 58.7734C84.4805 58.7734 83.9648 59.6289 83.9648 60.8125C83.9648 62.0195 84.4922 62.8867 85.4766 62.8867ZM92.7773 64.1289C90.8555 64.1289 89.6836 62.8516 89.6836 60.8594C89.6836 58.8906 90.8789 57.5547 92.6953 57.5547C94.2539 57.5547 95.6016 58.5273 95.6016 60.7656V61.2344H91.1602C91.1777 62.3184 91.8164 62.957 92.7891 62.957C93.4453 62.957 93.8906 62.6758 94.0781 62.3008H95.543C95.2734 63.4023 94.2539 64.1289 92.7773 64.1289ZM91.1719 60.2148H94.1719C94.1602 59.3477 93.5859 58.7148 92.7188 58.7148C91.8164 58.7148 91.2188 59.4004 91.1719 60.2148ZM96.7617 64V57.6367H98.2148V58.6914H98.2852C98.5078 57.9648 99.1289 57.543 99.8555 57.543C100.02 57.543 100.254 57.5547 100.395 57.5781V58.9609C100.266 58.9141 99.9492 58.8672 99.7031 58.8672C98.8711 58.8672 98.2617 59.4414 98.2617 60.25V64H96.7617Z" fill="#636363"/>
<mask id="mask0_1702_185350" style="mask-type:alpha" maskUnits="userSpaceOnUse" x="103" y="54" width="12" height="12">
<path d="M105.689 56.625H106.439V62.1396L108.059 60.6357L108.569 61.1855L106.319 63.2749C106.173 63.4103 105.947 63.4081 105.804 63.27L103.631 61.1758L104.151 60.6357L105.689 62.1177V56.625ZM112.091 61.7534V62.5034H109.507V61.7534H112.091ZM113.313 59.3462V60.0962H109.507V59.3462H113.313ZM114.536 56.9385V57.6885H109.507V56.9385H114.536Z" fill="#161616"/>
</mask>
<g mask="url(#mask0_1702_185350)">
<rect x="103" y="54" width="12" height="12" fill="#484848"/>
</g>
<mask id="path-8-inside-2_1702_185350" fill="white">
<path d="M372 48H636V72H372V48Z"/>
</mask>
<path d="M372 48H636V72H372V48Z" fill="white"/>
<path d="M636 72V71H372V72V73H636V72Z" fill="#EBEBEB" mask="url(#path-8-inside-2_1702_185350)"/>
<path d="M390.727 58.1875C390.48 57.0156 389.473 56.3828 388.359 56.3828C386.824 56.3828 385.629 57.5664 385.629 59.7578C385.629 61.9492 386.824 63.1328 388.359 63.1328C389.473 63.1328 390.469 62.5 390.727 61.3398H391.781C391.477 63.0742 390.082 64.1172 388.359 64.1172C386.18 64.1172 384.609 62.4414 384.609 59.7578C384.609 57.0742 386.18 55.3984 388.359 55.3984C390.07 55.3984 391.465 56.4297 391.781 58.1875H390.727ZM395.73 64.1289C393.996 64.1289 392.824 62.8281 392.824 60.8477C392.824 58.8672 393.996 57.5547 395.73 57.5547C397.453 57.5547 398.613 58.8672 398.613 60.8477C398.613 62.8281 397.453 64.1289 395.73 64.1289ZM395.73 63.2383C397.008 63.2383 397.605 62.1133 397.605 60.8477C397.605 59.582 397.008 58.4453 395.73 58.4453C394.43 58.4453 393.832 59.582 393.832 60.8477C393.832 62.1133 394.43 63.2383 395.73 63.2383ZM400.945 60.1797V64H399.938V57.6367H400.91V58.6328H400.992C401.297 57.9883 401.883 57.5547 402.855 57.5547C404.145 57.5547 405 58.3398 405 59.957V64H403.992V60.0273C403.992 59.043 403.453 58.457 402.551 58.457C401.625 58.457 400.945 59.0781 400.945 60.1797ZM409.395 57.6367V58.4805H408.059V62.1719C408.059 62.9922 408.457 63.1211 408.891 63.1211C409.078 63.1211 409.336 63.1094 409.488 63.0977V64.0352C409.336 64.0586 409.078 64.082 408.785 64.082C407.941 64.082 407.039 63.5547 407.039 62.4297V58.4805H406.078V57.6367H407.039V56.1133H408.059V57.6367H409.395ZM413.309 64.1289C411.469 64.1289 410.332 62.8281 410.332 60.8711C410.332 58.9141 411.48 57.5547 413.215 57.5547C414.551 57.5547 415.957 58.375 415.957 60.7305V61.1523H411.34C411.387 62.5 412.172 63.2383 413.309 63.2383C414.07 63.2383 414.551 62.9102 414.785 62.5117H415.863C415.559 63.4727 414.621 64.1289 413.309 64.1289ZM411.352 60.2969H414.938C414.938 59.2305 414.258 58.4453 413.215 58.4453C412.113 58.4453 411.41 59.3125 411.352 60.2969ZM418.277 60.1797V64H417.27V57.6367H418.242V58.6328H418.324C418.629 57.9883 419.215 57.5547 420.188 57.5547C421.477 57.5547 422.332 58.3398 422.332 59.957V64H421.324V60.0273C421.324 59.043 420.785 58.457 419.883 58.457C418.957 58.457 418.277 59.0781 418.277 60.1797ZM426.727 57.6367V58.4805H425.391V62.1719C425.391 62.9922 425.789 63.1211 426.223 63.1211C426.41 63.1211 426.668 63.1094 426.82 63.0977V64.0352C426.668 64.0586 426.41 64.082 426.117 64.082C425.273 64.082 424.371 63.5547 424.371 62.4297V58.4805H423.41V57.6367H424.371V56.1133H425.391V57.6367H426.727Z" fill="#484848"/>
<mask id="path-11-inside-3_1702_185350" fill="white">
<path d="M48 132H316V168H48V132Z"/>
</mask>
<path d="M48 132H316V168H48V132Z" fill="black" fill-opacity="0.04"/>
<path d="M316 168V167H48V168V169H316V168Z" fill="#EBEBEB" mask="url(#path-11-inside-3_1702_185350)"/>
<path d="M62.916 155V145.102H64.6934V149.299H69.3008V145.102H71.0918V155H69.3008V150.789H64.6934V155H62.916ZM76.1367 155.15C73.8945 155.15 72.5273 153.66 72.5273 151.336C72.5273 149.039 73.9219 147.48 76.041 147.48C77.8594 147.48 79.4316 148.615 79.4316 151.227V151.773H74.25C74.2705 153.038 75.0156 153.783 76.1504 153.783C76.916 153.783 77.4355 153.455 77.6543 153.018H79.3633C79.0488 154.303 77.8594 155.15 76.1367 155.15ZM74.2637 150.584H77.7637C77.75 149.572 77.0801 148.834 76.0684 148.834C75.0156 148.834 74.3184 149.634 74.2637 150.584ZM80.4434 152.908C80.4434 151.24 81.8242 150.748 83.2051 150.666C83.7178 150.632 84.7842 150.57 85.1055 150.557V149.969C85.1055 149.23 84.627 148.807 83.7656 148.807C82.9863 148.807 82.5078 149.162 82.3711 149.695H80.6895C80.8125 148.438 81.9473 147.48 83.8066 147.48C85.2148 147.48 86.8418 148.055 86.8418 150.037V155H85.1738V153.975H85.1191C84.791 154.604 84.0938 155.15 82.9316 155.15C81.5098 155.15 80.4434 154.371 80.4434 152.908ZM82.125 152.895C82.125 153.537 82.6445 153.865 83.3828 153.865C84.4355 153.865 85.1191 153.168 85.1191 152.334V151.719L83.4785 151.828C82.6445 151.896 82.125 152.238 82.125 152.895ZM91.2441 155.137C89.4941 155.137 88.1816 153.742 88.1816 151.295C88.1816 148.82 89.5352 147.48 91.2578 147.48C92.5703 147.48 93.1172 148.26 93.377 148.793H93.4453V145.102H95.1816V155H93.4727V153.824H93.377C93.1035 154.371 92.5293 155.137 91.2441 155.137ZM91.7227 153.701C92.8438 153.701 93.4863 152.73 93.4863 151.281C93.4863 149.846 92.8574 148.902 91.7227 148.902C90.5605 148.902 89.959 149.9 89.959 151.281C89.959 152.689 90.5742 153.701 91.7227 153.701ZM100.24 155.15C97.998 155.15 96.6309 153.66 96.6309 151.336C96.6309 149.039 98.0254 147.48 100.145 147.48C101.963 147.48 103.535 148.615 103.535 151.227V151.773H98.3535C98.374 153.038 99.1191 153.783 100.254 153.783C101.02 153.783 101.539 153.455 101.758 153.018H103.467C103.152 154.303 101.963 155.15 100.24 155.15ZM98.3672 150.584H101.867C101.854 149.572 101.184 148.834 100.172 148.834C99.1191 148.834 98.4219 149.634 98.3672 150.584ZM104.889 155V147.576H106.584V148.807H106.666C106.926 147.959 107.65 147.467 108.498 147.467C108.689 147.467 108.963 147.48 109.127 147.508V149.121C108.977 149.066 108.607 149.012 108.32 149.012C107.35 149.012 106.639 149.682 106.639 150.625V155H104.889Z" fill="#636363"/>
<mask id="mask1_1702_185350" style="mask-type:alpha" maskUnits="userSpaceOnUse" x="114" y="143" width="14" height="14">
<path d="M117.136 146.062H118.011V152.496L119.902 150.742L120.497 151.383L117.872 153.821C117.702 153.979 117.438 153.976 117.27 153.815L114.735 151.372L115.343 150.742L117.136 152.471V146.062ZM124.605 152.046V152.921H121.591V152.046H124.605ZM126.032 149.237V150.112H121.591V149.237H126.032ZM127.458 146.428V147.303H121.591V146.428H127.458Z" fill="#161616"/>
</mask>
<g mask="url(#mask1_1702_185350)">
<rect x="114" y="143" width="14" height="14" fill="#484848"/>
</g>
<mask id="path-17-inside-4_1702_185350" fill="white">
<path d="M376 132H644V168H376V132Z"/>
</mask>
<path d="M376 132H644V168H376V132Z" fill="white"/>
<path d="M644 168V167H376V168V169H644V168Z" fill="#EBEBEB" mask="url(#path-17-inside-4_1702_185350)"/>
<path d="M397.848 148.219C397.561 146.852 396.385 146.113 395.086 146.113C393.295 146.113 391.9 147.494 391.9 150.051C391.9 152.607 393.295 153.988 395.086 153.988C396.385 153.988 397.547 153.25 397.848 151.896H399.078C398.723 153.92 397.096 155.137 395.086 155.137C392.543 155.137 390.711 153.182 390.711 150.051C390.711 146.92 392.543 144.965 395.086 144.965C397.082 144.965 398.709 146.168 399.078 148.219H397.848ZM403.686 155.15C401.662 155.15 400.295 153.633 400.295 151.322C400.295 149.012 401.662 147.48 403.686 147.48C405.695 147.48 407.049 149.012 407.049 151.322C407.049 153.633 405.695 155.15 403.686 155.15ZM403.686 154.111C405.176 154.111 405.873 152.799 405.873 151.322C405.873 149.846 405.176 148.52 403.686 148.52C402.168 148.52 401.471 149.846 401.471 151.322C401.471 152.799 402.168 154.111 403.686 154.111ZM409.77 150.543V155H408.594V147.576H409.729V148.738H409.824C410.18 147.986 410.863 147.48 411.998 147.48C413.502 147.48 414.5 148.396 414.5 150.283V155H413.324V150.365C413.324 149.217 412.695 148.533 411.643 148.533C410.562 148.533 409.77 149.258 409.77 150.543ZM419.627 147.576V148.561H418.068V152.867C418.068 153.824 418.533 153.975 419.039 153.975C419.258 153.975 419.559 153.961 419.736 153.947V155.041C419.559 155.068 419.258 155.096 418.916 155.096C417.932 155.096 416.879 154.48 416.879 153.168V148.561H415.758V147.576H416.879V145.799H418.068V147.576H419.627ZM424.193 155.15C422.047 155.15 420.721 153.633 420.721 151.35C420.721 149.066 422.061 147.48 424.084 147.48C425.643 147.48 427.283 148.438 427.283 151.186V151.678H421.896C421.951 153.25 422.867 154.111 424.193 154.111C425.082 154.111 425.643 153.729 425.916 153.264H427.174C426.818 154.385 425.725 155.15 424.193 155.15ZM421.91 150.68H426.094C426.094 149.436 425.301 148.52 424.084 148.52C422.799 148.52 421.979 149.531 421.91 150.68ZM429.99 150.543V155H428.814V147.576H429.949V148.738H430.045C430.4 147.986 431.084 147.48 432.219 147.48C433.723 147.48 434.721 148.396 434.721 150.283V155H433.545V150.365C433.545 149.217 432.916 148.533 431.863 148.533C430.783 148.533 429.99 149.258 429.99 150.543ZM439.848 147.576V148.561H438.289V152.867C438.289 153.824 438.754 153.975 439.26 153.975C439.479 153.975 439.779 153.961 439.957 153.947V155.041C439.779 155.068 439.479 155.096 439.137 155.096C438.152 155.096 437.1 154.48 437.1 153.168V148.561H435.979V147.576H437.1V145.799H438.289V147.576H439.848Z" fill="#484848"/>
<mask id="path-20-inside-5_1702_185350" fill="white">
<path d="M48 228H320V274H48V228Z"/>
</mask>
<path d="M48 228H320V274H48V228Z" fill="black" fill-opacity="0.04"/>
<path d="M320 274V273H48V274V275H320V274Z" fill="#EBEBEB" mask="url(#path-20-inside-5_1702_185350)"/>
<path d="M65.0469 257V245.688H67.0781V250.484H72.3438V245.688H74.3906V257H72.3438V252.188H67.0781V257H65.0469ZM80.1562 257.172C77.5938 257.172 76.0312 255.469 76.0312 252.812C76.0312 250.188 77.625 248.406 80.0469 248.406C82.125 248.406 83.9219 249.703 83.9219 252.688V253.312H78C78.0234 254.758 78.875 255.609 80.1719 255.609C81.0469 255.609 81.6406 255.234 81.8906 254.734H83.8438C83.4844 256.203 82.125 257.172 80.1562 257.172ZM78.0156 251.953H82.0156C82 250.797 81.2344 249.953 80.0781 249.953C78.875 249.953 78.0781 250.867 78.0156 251.953ZM85.0781 254.609C85.0781 252.703 86.6562 252.141 88.2344 252.047C88.8203 252.008 90.0391 251.938 90.4062 251.922V251.25C90.4062 250.406 89.8594 249.922 88.875 249.922C87.9844 249.922 87.4375 250.328 87.2812 250.938H85.3594C85.5 249.5 86.7969 248.406 88.9219 248.406C90.5312 248.406 92.3906 249.062 92.3906 251.328V257H90.4844V255.828H90.4219C90.0469 256.547 89.25 257.172 87.9219 257.172C86.2969 257.172 85.0781 256.281 85.0781 254.609ZM87 254.594C87 255.328 87.5938 255.703 88.4375 255.703C89.6406 255.703 90.4219 254.906 90.4219 253.953V253.25L88.5469 253.375C87.5938 253.453 87 253.844 87 254.594ZM97.4219 257.156C95.4219 257.156 93.9219 255.562 93.9219 252.766C93.9219 249.938 95.4688 248.406 97.4375 248.406C98.9375 248.406 99.5625 249.297 99.8594 249.906H99.9375V245.688H101.922V257H99.9688V255.656H99.8594C99.5469 256.281 98.8906 257.156 97.4219 257.156ZM97.9688 255.516C99.25 255.516 99.9844 254.406 99.9844 252.75C99.9844 251.109 99.2656 250.031 97.9688 250.031C96.6406 250.031 95.9531 251.172 95.9531 252.75C95.9531 254.359 96.6562 255.516 97.9688 255.516ZM107.703 257.172C105.141 257.172 103.578 255.469 103.578 252.812C103.578 250.188 105.172 248.406 107.594 248.406C109.672 248.406 111.469 249.703 111.469 252.688V253.312H105.547C105.57 254.758 106.422 255.609 107.719 255.609C108.594 255.609 109.188 255.234 109.438 254.734H111.391C111.031 256.203 109.672 257.172 107.703 257.172ZM105.562 251.953H109.562C109.547 250.797 108.781 249.953 107.625 249.953C106.422 249.953 105.625 250.867 105.562 251.953ZM113.016 257V248.516H114.953V249.922H115.047C115.344 248.953 116.172 248.391 117.141 248.391C117.359 248.391 117.672 248.406 117.859 248.438V250.281C117.688 250.219 117.266 250.156 116.938 250.156C115.828 250.156 115.016 250.922 115.016 252V257H113.016Z" fill="#636363"/>
<mask id="mask2_1702_185350" style="mask-type:alpha" maskUnits="userSpaceOnUse" x="125" y="243" width="16" height="16">
<path d="M128.585 246.5H129.585V253.853L131.745 251.848L132.425 252.581L129.425 255.367C129.231 255.547 128.929 255.544 128.738 255.36L125.841 252.568L126.535 251.848L128.585 253.824V246.5ZM137.121 253.338V254.338H133.675V253.338H137.121ZM138.751 250.128V251.128H133.675V250.128H138.751ZM140.381 246.918V247.918H133.675V246.918H140.381Z" fill="#161616"/>
</mask>
<g mask="url(#mask2_1702_185350)">
<rect x="125" y="243" width="16" height="16" fill="#484848"/>
</g>
<mask id="path-26-inside-6_1702_185350" fill="white">
<path d="M380 228H652V274H380V228Z"/>
</mask>
<path d="M380 228H652V274H380V228Z" fill="white"/>
<path d="M652 274V273H380V274V275H652V274Z" fill="#EBEBEB" mask="url(#path-26-inside-6_1702_185350)"/>
<path d="M404.969 249.25C404.641 247.688 403.297 246.844 401.812 246.844C399.766 246.844 398.172 248.422 398.172 251.344C398.172 254.266 399.766 255.844 401.812 255.844C403.297 255.844 404.625 255 404.969 253.453H406.375C405.969 255.766 404.109 257.156 401.812 257.156C398.906 257.156 396.812 254.922 396.812 251.344C396.812 247.766 398.906 245.531 401.812 245.531C404.094 245.531 405.953 246.906 406.375 249.25H404.969ZM411.641 257.172C409.328 257.172 407.766 255.438 407.766 252.797C407.766 250.156 409.328 248.406 411.641 248.406C413.938 248.406 415.484 250.156 415.484 252.797C415.484 255.438 413.938 257.172 411.641 257.172ZM411.641 255.984C413.344 255.984 414.141 254.484 414.141 252.797C414.141 251.109 413.344 249.594 411.641 249.594C409.906 249.594 409.109 251.109 409.109 252.797C409.109 254.484 409.906 255.984 411.641 255.984ZM418.594 251.906V257H417.25V248.516H418.547V249.844H418.656C419.062 248.984 419.844 248.406 421.141 248.406C422.859 248.406 424 249.453 424 251.609V257H422.656V251.703C422.656 250.391 421.938 249.609 420.734 249.609C419.5 249.609 418.594 250.438 418.594 251.906ZM429.859 248.516V249.641H428.078V254.562C428.078 255.656 428.609 255.828 429.188 255.828C429.438 255.828 429.781 255.812 429.984 255.797V257.047C429.781 257.078 429.438 257.109 429.047 257.109C427.922 257.109 426.719 256.406 426.719 254.906V249.641H425.438V248.516H426.719V246.484H428.078V248.516H429.859ZM435.078 257.172C432.625 257.172 431.109 255.438 431.109 252.828C431.109 250.219 432.641 248.406 434.953 248.406C436.734 248.406 438.609 249.5 438.609 252.641V253.203H432.453C432.516 255 433.562 255.984 435.078 255.984C436.094 255.984 436.734 255.547 437.047 255.016H438.484C438.078 256.297 436.828 257.172 435.078 257.172ZM432.469 252.062H437.25C437.25 250.641 436.344 249.594 434.953 249.594C433.484 249.594 432.547 250.75 432.469 252.062ZM441.703 251.906V257H440.359V248.516H441.656V249.844H441.766C442.172 248.984 442.953 248.406 444.25 248.406C445.969 248.406 447.109 249.453 447.109 251.609V257H445.766V251.703C445.766 250.391 445.047 249.609 443.844 249.609C442.609 249.609 441.703 250.438 441.703 251.906ZM452.969 248.516V249.641H451.188V254.562C451.188 255.656 451.719 255.828 452.297 255.828C452.547 255.828 452.891 255.812 453.094 255.797V257.047C452.891 257.078 452.547 257.109 452.156 257.109C451.031 257.109 449.828 256.406 449.828 254.906V249.641H448.547V248.516H449.828V246.484H451.188V248.516H452.969Z" fill="#484848"/>
<path d="M319 48V52" stroke="#B84451"/>
<path d="M316 48H322" stroke="#B84451"/>
<path d="M316 52H322" stroke="#B84451"/>
<rect x="326" y="40" width="14" height="20" rx="3.5" fill="#B84451"/>
<path d="M330.003 52.4375V51.4609L333.46 46H334.229V47.4375H333.741L331.269 51.3516V51.4141H336.007V52.4375H330.003ZM333.796 54V52.1406L333.804 51.6953V46H334.948V54H333.796Z" fill="white"/>
<g opacity="0.08">
<rect width="264" height="4" transform="translate(48 48)" fill="#E76067"/>
</g>
<path d="M319 68V72" stroke="#B84451"/>
<path d="M316 68H322" stroke="#B84451"/>
<path d="M316 72H322" stroke="#B84451"/>
<rect x="326" y="60" width="14" height="20" rx="3.5" fill="#B84451"/>
<path d="M330.003 72.4375V71.4609L333.46 66H334.229V67.4375H333.741L331.269 71.3516V71.4141H336.007V72.4375H330.003ZM333.796 74V72.1406L333.804 71.6953V66H334.948V74H333.796Z" fill="white"/>
<g opacity="0.08">
<rect width="264" height="4" transform="translate(48 68)" fill="#E76067"/>
</g>
<path d="M323 132V140" stroke="#B84451"/>
<path d="M320 132H326" stroke="#B84451"/>
<path d="M320 140H326" stroke="#B84451"/>
<rect x="330" y="126" width="13" height="20" rx="3.5" fill="#B84451"/>
<path d="M336.498 140.109C335.938 140.109 335.443 140.013 335.013 139.82C334.586 139.628 334.251 139.362 334.009 139.023C333.767 138.685 333.647 138.299 333.65 137.867C333.647 137.529 333.716 137.217 333.857 136.934C334 136.647 334.194 136.409 334.439 136.219C334.684 136.026 334.957 135.904 335.259 135.852V135.805C334.861 135.708 334.542 135.495 334.302 135.164C334.063 134.833 333.944 134.453 333.947 134.023C333.944 133.615 334.052 133.25 334.271 132.93C334.492 132.607 334.796 132.353 335.181 132.168C335.567 131.983 336.005 131.891 336.498 131.891C336.985 131.891 337.419 131.984 337.802 132.172C338.188 132.357 338.491 132.611 338.712 132.934C338.934 133.254 339.046 133.617 339.048 134.023C339.046 134.453 338.923 134.833 338.681 135.164C338.439 135.495 338.124 135.708 337.736 135.805V135.852C338.035 135.904 338.305 136.026 338.544 136.219C338.787 136.409 338.979 136.647 339.123 136.934C339.268 137.217 339.343 137.529 339.345 137.867C339.343 138.299 339.22 138.685 338.978 139.023C338.736 139.362 338.4 139.628 337.97 139.82C337.543 140.013 337.052 140.109 336.498 140.109ZM336.498 139.121C336.828 139.121 337.115 139.066 337.357 138.957C337.599 138.845 337.787 138.69 337.919 138.492C338.052 138.292 338.12 138.057 338.123 137.789C338.12 137.51 338.047 137.264 337.904 137.051C337.763 136.837 337.572 136.669 337.33 136.547C337.087 136.424 336.81 136.363 336.498 136.363C336.182 136.363 335.903 136.424 335.658 136.547C335.413 136.669 335.22 136.837 335.08 137.051C334.939 137.264 334.87 137.51 334.873 137.789C334.87 138.057 334.934 138.292 335.064 138.492C335.197 138.69 335.386 138.845 335.63 138.957C335.875 139.066 336.164 139.121 336.498 139.121ZM336.498 135.398C336.763 135.398 336.999 135.345 337.205 135.238C337.41 135.132 337.572 134.983 337.689 134.793C337.809 134.603 337.87 134.38 337.873 134.125C337.87 133.875 337.81 133.656 337.693 133.469C337.578 133.281 337.418 133.137 337.212 133.035C337.007 132.931 336.768 132.879 336.498 132.879C336.222 132.879 335.979 132.931 335.771 133.035C335.565 133.137 335.405 133.281 335.291 133.469C335.176 133.656 335.12 133.875 335.123 134.125C335.12 134.38 335.177 134.603 335.294 134.793C335.412 134.983 335.573 135.132 335.779 135.238C335.987 135.345 336.227 135.398 336.498 135.398Z" fill="white"/>
<g opacity="0.08">
<rect width="268" height="8" transform="translate(48 132)" fill="#E76067"/>
</g>
<path d="M48 41L60 41" stroke="#B84451"/>
<path d="M48 44L48 38" stroke="#B84451"/>
<path d="M60 44L60 38" stroke="#B84451"/>
<rect x="44.5" y="14" width="19" height="20" rx="3.5" fill="#B84451"/>
<path d="M51.5514 20V28H50.3405V21.2109H50.2936L48.3796 22.4609V21.3047L50.3757 20H51.5514ZM53.6575 26.4375V25.4609L57.1146 20H57.8841V21.4375H57.3958L54.9232 25.3516V25.4141H59.6614V26.4375H53.6575ZM57.4505 28V26.1406L57.4583 25.6953V20H58.6029V28H57.4505Z" fill="white"/>
<g opacity="0.08">
<rect width="12" height="24" transform="translate(48 48)" fill="#E76067"/>
</g>
<path d="M48 125L60 125" stroke="#B84451"/>
<path d="M48 128L48 122" stroke="#B84451"/>
<path d="M60 128L60 122" stroke="#B84451"/>
<rect x="44.5" y="98" width="19" height="20" rx="3.5" fill="#B84451"/>
<path d="M51.5514 104V112H50.3405V105.211H50.2936L48.3796 106.461V105.305L50.3757 104H51.5514ZM53.6575 110.438V109.461L57.1146 104H57.8841V105.437H57.3958L54.9232 109.352V109.414H59.6614V110.438H53.6575ZM57.4505 112V110.141L57.4583 109.695V104H58.6029V112H57.4505Z" fill="white"/>
<g opacity="0.08">
<rect width="12" height="36" transform="translate(48 132)" fill="#E76067"/>
</g>
<path d="M48 221L60 221" stroke="#B84451"/>
<path d="M48 224L48 218" stroke="#B84451"/>
<path d="M60 224L60 218" stroke="#B84451"/>
<rect x="44.5" y="194" width="19" height="20" rx="3.5" fill="#B84451"/>
<path d="M51.5514 200V208H50.3405V201.211H50.2936L48.3796 202.461V201.305L50.3757 200H51.5514ZM53.6575 206.438V205.461L57.1146 200H57.8841V201.437H57.3958L54.9232 205.352V205.414H59.6614V206.438H53.6575ZM57.4505 208V206.141L57.4583 205.695V200H58.6029V208H57.4505Z" fill="white"/>
<g opacity="0.08">
<rect width="12" height="46" transform="translate(48 228)" fill="#E76067"/>
</g>
<path d="M323 160V168" stroke="#B84451"/>
<path d="M320 160H326" stroke="#B84451"/>
<path d="M320 168H326" stroke="#B84451"/>
<rect x="330" y="154" width="13" height="20" rx="3.5" fill="#B84451"/>
<path d="M336.498 168.109C335.938 168.109 335.443 168.013 335.013 167.82C334.586 167.628 334.251 167.362 334.009 167.023C333.767 166.685 333.647 166.299 333.65 165.867C333.647 165.529 333.716 165.217 333.857 164.934C334 164.647 334.194 164.409 334.439 164.219C334.684 164.026 334.957 163.904 335.259 163.852V163.805C334.861 163.708 334.542 163.495 334.302 163.164C334.063 162.833 333.944 162.453 333.947 162.023C333.944 161.615 334.052 161.25 334.271 160.93C334.492 160.607 334.796 160.353 335.181 160.168C335.567 159.983 336.005 159.891 336.498 159.891C336.985 159.891 337.419 159.984 337.802 160.172C338.188 160.357 338.491 160.611 338.712 160.934C338.934 161.254 339.046 161.617 339.048 162.023C339.046 162.453 338.923 162.833 338.681 163.164C338.439 163.495 338.124 163.708 337.736 163.805V163.852C338.035 163.904 338.305 164.026 338.544 164.219C338.787 164.409 338.979 164.647 339.123 164.934C339.268 165.217 339.343 165.529 339.345 165.867C339.343 166.299 339.22 166.685 338.978 167.023C338.736 167.362 338.4 167.628 337.97 167.82C337.543 168.013 337.052 168.109 336.498 168.109ZM336.498 167.121C336.828 167.121 337.115 167.066 337.357 166.957C337.599 166.845 337.787 166.69 337.919 166.492C338.052 166.292 338.12 166.057 338.123 165.789C338.12 165.51 338.047 165.264 337.904 165.051C337.763 164.837 337.572 164.669 337.33 164.547C337.087 164.424 336.81 164.363 336.498 164.363C336.182 164.363 335.903 164.424 335.658 164.547C335.413 164.669 335.22 164.837 335.08 165.051C334.939 165.264 334.87 165.51 334.873 165.789C334.87 166.057 334.934 166.292 335.064 166.492C335.197 166.69 335.386 166.845 335.63 166.957C335.875 167.066 336.164 167.121 336.498 167.121ZM336.498 163.398C336.763 163.398 336.999 163.345 337.205 163.238C337.41 163.132 337.572 162.983 337.689 162.793C337.809 162.603 337.87 162.38 337.873 162.125C337.87 161.875 337.81 161.656 337.693 161.469C337.578 161.281 337.418 161.137 337.212 161.035C337.007 160.931 336.768 160.879 336.498 160.879C336.222 160.879 335.979 160.931 335.771 161.035C335.565 161.137 335.405 161.281 335.291 161.469C335.176 161.656 335.12 161.875 335.123 162.125C335.12 162.38 335.177 162.603 335.294 162.793C335.412 162.983 335.573 163.132 335.779 163.238C335.987 163.345 336.227 163.398 336.498 163.398Z" fill="white"/>
<g opacity="0.08">
<rect width="268" height="8" transform="translate(48 160)" fill="#E76067"/>
</g>
<path d="M327 228V240" stroke="#B84451"/>
<path d="M324 228H330" stroke="#B84451"/>
<path d="M324 240H330" stroke="#B84451"/>
<rect x="334" y="224" width="19" height="20" rx="3.5" fill="#B84451"/>
<path d="M341.277 230V238H340.066V231.211H340.019L338.105 232.461V231.305L340.101 230H341.277ZM343.551 238V237.125L346.258 234.32C346.547 234.016 346.785 233.749 346.973 233.52C347.163 233.288 347.305 233.068 347.399 232.859C347.493 232.651 347.539 232.43 347.539 232.195C347.539 231.93 347.477 231.701 347.352 231.508C347.227 231.313 347.056 231.163 346.84 231.059C346.624 230.952 346.381 230.898 346.11 230.898C345.823 230.898 345.573 230.957 345.36 231.074C345.146 231.191 344.982 231.357 344.868 231.57C344.753 231.784 344.696 232.034 344.696 232.32H343.543C343.543 231.833 343.655 231.408 343.879 231.043C344.103 230.678 344.41 230.396 344.801 230.195C345.192 229.992 345.636 229.891 346.133 229.891C346.636 229.891 347.078 229.991 347.461 230.191C347.847 230.389 348.147 230.66 348.364 231.004C348.58 231.345 348.688 231.73 348.688 232.16C348.688 232.457 348.632 232.747 348.52 233.031C348.41 233.315 348.219 233.632 347.946 233.98C347.672 234.327 347.292 234.747 346.805 235.242L345.215 236.906V236.965H348.817V238H343.551Z" fill="white"/>
<g opacity="0.08">
<rect width="272" height="12" transform="translate(48 228)" fill="#E76067"/>
</g>
<path d="M327 262V274" stroke="#B84451"/>
<path d="M324 262H330" stroke="#B84451"/>
<path d="M324 274H330" stroke="#B84451"/>
<rect x="334" y="258" width="19" height="20" rx="3.5" fill="#B84451"/>
<path d="M341.277 264V272H340.066V265.211H340.019L338.105 266.461V265.305L340.101 264H341.277ZM343.551 272V271.125L346.258 268.32C346.547 268.016 346.785 267.749 346.973 267.52C347.163 267.288 347.305 267.068 347.399 266.859C347.493 266.651 347.539 266.43 347.539 266.195C347.539 265.93 347.477 265.701 347.352 265.508C347.227 265.313 347.056 265.163 346.84 265.059C346.624 264.952 346.381 264.898 346.11 264.898C345.823 264.898 345.573 264.957 345.36 265.074C345.146 265.191 344.982 265.357 344.868 265.57C344.753 265.784 344.696 266.034 344.696 266.32H343.543C343.543 265.833 343.655 265.408 343.879 265.043C344.103 264.678 344.41 264.396 344.801 264.195C345.192 263.992 345.636 263.891 346.133 263.891C346.636 263.891 347.078 263.991 347.461 264.191C347.847 264.389 348.147 264.66 348.364 265.004C348.58 265.345 348.688 265.73 348.688 266.16C348.688 266.457 348.632 266.747 348.52 267.031C348.41 267.315 348.219 267.632 347.946 267.98C347.672 268.327 347.292 268.747 346.805 269.242L345.215 270.906V270.965H348.817V272H343.551Z" fill="white"/>
<g opacity="0.08">
<rect width="272" height="12" transform="translate(48 262)" fill="#E76067"/>
</g>
</svg>
