<svg width="442" height="284" viewBox="0 0 442 284" fill="none" xmlns="http://www.w3.org/2000/svg">
<style>
:root {
  --sol-element-primary: #161616;
  --sol-element-tertiary: #636363;
  --sol-element-quaternary: #858585;
  --sol-surface: #ffffff;
  --sol-border-solid-variant: #e0e0e0;
  --sol-static-white: #ffffff;
  --sol-static-black: #000000;
  --color-indigo-700: #142e96;
  --color-indigo-400: #6280e4;
  --color-orange-700: #833606;
  --color-orange-500: #e06418;
  --color-yellow-600: #a88900;
  --color-yellow-400: #ecc824;
  --color-yellow-300: #f5dc6a;
  --color-green-500: #35a142;
  --color-green-400: #5cc066;
  --color-blue-200: #c2e6f7;
  --color-red-700: #8a2e38;
  --color-red-600: #b84451;
  --color-red-500: #e76067;
}
@media (prefers-color-scheme: dark) {
  :root {
    --sol-element-primary: #ffffff;
    --sol-element-tertiary: rgba(255, 255, 255, 0.60);
    --sol-element-quaternary: rgba(255, 255, 255, 0.50);
    --sol-surface: #161616;
    --sol-border-solid-variant: #3d3d3d;
  }
}
</style>

<g clip-path="url(#clip0_1670_193131)">
<g filter="url(#filter0_dd_1670_193131)">
<g clip-path="url(#clip1_1670_193131)">
<path d="M91.5 4C91.5 1.79086 93.2909 0 95.5 0H347.5C349.709 0 351.5 1.79086 351.5 4V316C351.5 318.209 349.709 320 347.5 320H95.5C93.2909 320 91.5 318.209 91.5 316V4Z" fill="var(--sol-surface)"/>
<g clip-path="url(#clip2_1670_193131)">
<g clip-path="url(#clip3_1670_193131)">
<g clip-path="url(#clip4_1670_193131)">
<rect width="20" height="15" transform="translate(103.5 14.5)" fill="var(--sol-surface)"/>
<path fill-rule="evenodd" clip-rule="evenodd" d="M108.5 14.5H118.5V29.5H108.5V14.5Z" fill="var(--color-yellow-400)"/>
<path fill-rule="evenodd" clip-rule="evenodd" d="M103.5 14.5H108.5V29.5H103.5V14.5Z" fill="var(--color-indigo-700)"/>
<path fill-rule="evenodd" clip-rule="evenodd" d="M118.5 14.5H123.5V29.5H118.5V14.5Z" fill="var(--color-red-500)"/>
<path d="M114.178 17.3453C114.389 17.2082 114.654 17.2082 114.807 17.4498C114.959 17.6914 114.775 17.9411 114.728 18.026C114.682 18.1113 114.584 18.4227 114.807 18.525C115.029 18.6271 115.355 18.5704 115.524 18.4225C115.517 18.4189 115.319 18.3256 115.371 18.1774C115.425 18.0259 115.789 17.5987 116.457 17.9166C117.125 18.2345 117.239 18.5256 117.057 18.7613C116.874 18.9972 116.385 19.4016 116.503 19.6744C116.506 19.6683 116.59 19.5263 116.702 19.5992C116.817 19.6741 116.792 19.8063 116.792 19.8063C116.792 19.8063 117.607 19.7614 117.696 20.5514C117.784 21.3323 117.181 21.5468 117.168 21.5514C117.176 21.5606 117.359 21.767 117.234 21.9029C117.106 22.042 116.959 21.9576 116.959 21.9576C116.959 21.9576 116.69 22.2117 116.824 22.5006C116.956 22.7836 117.053 22.8711 117.057 22.8746C117.057 22.8746 117.076 22.7858 117.234 22.7858C117.393 22.786 117.688 23.2669 117.505 23.4166C117.326 23.5629 117.238 23.5398 117.234 23.5387C117.242 23.545 117.628 23.8716 117.505 24.3873C117.38 24.9082 117.046 25.1594 116.702 25.3053C116.359 25.4511 115.948 25.4508 115.422 25.4508C114.898 25.4509 114.587 25.7753 114.584 25.7789C114.597 25.7843 114.848 25.8877 114.762 26.1207C114.673 26.3603 114.469 26.3609 114.469 26.3609C114.461 26.3717 114.317 26.572 114.178 26.5026C114.04 26.4334 113.951 26.3658 113.944 26.3609C113.94 26.3698 113.822 26.5973 113.687 26.6363V26.6451C113.681 26.6451 113.675 26.6412 113.669 26.6402C113.663 26.6412 113.657 26.6451 113.65 26.6451V26.6363C113.516 26.5978 113.399 26.3719 113.394 26.3609C113.39 26.3638 113.3 26.4323 113.16 26.5026C113.019 26.5731 112.873 26.3676 112.868 26.3609C112.86 26.3608 112.663 26.3553 112.576 26.1207C112.489 25.8853 112.745 25.7824 112.754 25.7789C112.754 25.7789 112.442 25.4508 111.915 25.4508C111.389 25.4508 110.979 25.4509 110.636 25.3053C110.292 25.1594 109.958 24.9082 109.833 24.3873C109.708 23.8665 110.103 23.5387 110.103 23.5387C110.103 23.5387 110.016 23.5661 109.833 23.4166C109.65 23.267 109.945 22.7858 110.103 22.7858C110.258 22.7858 110.279 22.871 110.28 22.8746C110.28 22.8746 110.378 22.7896 110.513 22.5006C110.647 22.2117 110.379 21.9578 110.379 21.9576C110.379 21.9576 110.232 22.042 110.103 21.9029C109.977 21.7659 110.164 21.5574 110.17 21.5514C110.17 21.5514 109.553 21.341 109.642 20.5514C109.73 19.7699 110.528 19.8054 110.545 19.8063C110.545 19.8063 110.521 19.6741 110.636 19.5992C110.749 19.5258 110.833 19.6717 110.835 19.6744C110.953 19.4015 110.463 18.9971 110.28 18.7613C110.098 18.5256 110.213 18.2345 110.881 17.9166C111.549 17.5988 111.912 18.0259 111.966 18.1774C112.019 18.3286 111.812 18.4225 111.812 18.4225C111.981 18.5707 112.309 18.6273 112.531 18.525C112.754 18.4227 112.656 18.1115 112.609 18.026C112.563 17.9411 112.379 17.6914 112.531 17.4498C112.684 17.2082 112.949 17.2081 113.16 17.3453C113.341 17.4627 113.598 17.5231 113.669 17.5387C113.74 17.523 113.997 17.4625 114.178 17.3453Z" fill="var(--color-yellow-600)"/>
<path d="M111.069 24.4986L111.135 24.3398C111.89 24.6634 112.749 24.8254 113.712 24.8254C114.676 24.8254 115.511 24.6635 116.221 24.3406L116.29 24.4979C115.558 24.8313 114.698 24.9977 113.712 24.9977C112.727 24.9977 111.846 24.8315 111.069 24.4986Z" fill="var(--color-orange-700)"/>
</g>
<path d="M133.031 27H131.746L135.369 17.1016H136.668L140.291 27H138.992L138.008 24.2109H134.029L133.031 27ZM134.398 23.1309H137.625L136.053 18.7012H135.971L134.398 23.1309ZM142.656 22.543V27H141.48V19.5762H142.615V20.7383H142.711C143.066 19.9863 143.75 19.4805 144.885 19.4805C146.389 19.4805 147.387 20.3965 147.387 22.2832V27H146.211V22.3652C146.211 21.2168 145.582 20.5332 144.529 20.5332C143.449 20.5332 142.656 21.2578 142.656 22.543ZM152.076 27.1504C150.23 27.1504 148.918 25.6602 148.918 23.3086C148.918 20.957 150.23 19.4805 152.09 19.4805C153.525 19.4805 153.99 20.3555 154.236 20.752H154.318V17.1016H155.508V27H154.359V25.8652H154.236C153.977 26.2754 153.498 27.1504 152.076 27.1504ZM152.24 26.0977C153.594 26.0977 154.359 24.9492 154.359 23.2812C154.359 21.6406 153.621 20.5332 152.24 20.5332C150.818 20.5332 150.107 21.7363 150.107 23.2812C150.107 24.8672 150.832 26.0977 152.24 26.0977ZM160.58 27.1504C158.557 27.1504 157.189 25.6328 157.189 23.3223C157.189 21.0117 158.557 19.4805 160.58 19.4805C162.59 19.4805 163.943 21.0117 163.943 23.3223C163.943 25.6328 162.59 27.1504 160.58 27.1504ZM160.58 26.1113C162.07 26.1113 162.768 24.7988 162.768 23.3223C162.768 21.8457 162.07 20.5195 160.58 20.5195C159.062 20.5195 158.365 21.8457 158.365 23.3223C158.365 24.7988 159.062 26.1113 160.58 26.1113ZM165.488 27V19.5762H166.623V20.7109H166.705C166.979 19.959 167.744 19.4531 168.619 19.4531C168.797 19.4531 169.098 19.4668 169.234 19.4805V20.6699C169.152 20.6426 168.824 20.5879 168.523 20.5879C167.457 20.5879 166.664 21.3262 166.664 22.3242V27H165.488ZM170.383 27V19.5762H171.518V20.7109H171.6C171.873 19.959 172.639 19.4531 173.514 19.4531C173.691 19.4531 173.992 19.4668 174.129 19.4805V20.6699C174.047 20.6426 173.719 20.5879 173.418 20.5879C172.352 20.5879 171.559 21.3262 171.559 22.3242V27H170.383ZM174.922 24.8945C174.922 23.1855 176.426 22.8027 177.711 22.707C178.183 22.6729 179.386 22.6113 179.721 22.5977V21.9961C179.721 21.0527 179.16 20.5059 178.039 20.5059C177.096 20.5059 176.535 20.9434 176.371 21.5039H175.141C175.291 20.3145 176.453 19.4805 178.094 19.4805C179.064 19.4805 180.883 19.7676 180.883 22.1055V27H179.721V25.9883H179.666C179.42 26.4941 178.736 27.1777 177.451 27.1777C176.043 27.1777 174.922 26.3438 174.922 24.8945ZM176.098 24.9492C176.098 25.7285 176.754 26.125 177.656 26.125C178.982 26.125 179.721 25.2363 179.721 24.3066V23.5547L177.848 23.6914C176.781 23.7598 176.098 24.1426 176.098 24.9492Z" fill="var(--sol-element-primary)"/>
<path d="M185.744 23.2266C185.758 20.6426 186.455 18.4961 187.713 16.6777H188.752C187.822 18.0312 186.961 20.793 186.961 23.2266C186.961 25.6602 187.822 28.4355 188.752 29.7891H187.713C186.455 27.957 185.758 25.8105 185.744 23.2266ZM193.1 25.2637V22.6113H190.461V21.5039H193.1V18.8652H194.207V21.5039H196.859V22.6113H194.207V25.2637H193.1ZM202.287 27.1367C200.209 27.1367 198.76 25.9883 198.773 24.375C198.76 23.0898 199.648 22.0371 200.783 21.8594V21.8047C199.799 21.5723 199.156 20.6699 199.156 19.5898C199.156 18.0723 200.482 16.9648 202.287 16.9648C204.092 16.9648 205.418 18.0723 205.432 19.5898C205.418 20.6699 204.762 21.5723 203.791 21.8047V21.8594C204.912 22.0371 205.801 23.0898 205.814 24.375C205.801 25.9883 204.352 27.1367 202.287 27.1367ZM202.287 26.0566C203.709 26.0566 204.584 25.3457 204.584 24.3066C204.584 23.2129 203.613 22.4062 202.287 22.4062C200.961 22.4062 199.977 23.2129 200.004 24.3066C199.977 25.3457 200.865 26.0566 202.287 26.0566ZM202.287 21.3672C203.408 21.3672 204.229 20.6836 204.229 19.6855C204.229 18.7012 203.449 18.0312 202.287 18.0312C201.111 18.0312 200.346 18.7012 200.346 19.6855C200.346 20.6836 201.152 21.3672 202.287 21.3672ZM207.469 27L207.455 26.0977L210.832 22.543C212.008 21.2988 212.568 20.6289 212.568 19.7129C212.568 18.7012 211.707 18.0312 210.6 18.0312C209.424 18.0312 208.672 18.7832 208.672 19.8906H207.51C207.496 18.1406 208.85 16.9648 210.641 16.9648C212.432 16.9648 213.717 18.168 213.717 19.7129C213.717 20.8203 213.197 21.6816 211.447 23.4863L209.178 25.8242V25.9062H213.895V27H207.469ZM218.283 23.2266C218.27 25.8105 217.572 27.957 216.314 29.7891H215.275C216.205 28.4355 217.066 25.6602 217.066 23.2266C217.066 20.793 216.205 18.0312 215.275 16.6777H216.314C217.572 18.4961 218.27 20.6426 218.283 23.2266Z" fill="var(--sol-element-tertiary)"/>
</g>
<g clip-path="url(#clip5_1670_193131)">
<g clip-path="url(#clip6_1670_193131)">
<rect width="20" height="15" transform="translate(103.5 50.5)" fill="var(--sol-surface)"/>
<path fill-rule="evenodd" clip-rule="evenodd" d="M103.5 50.5H123.5V65.5H103.5V50.5Z" fill="var(--sol-surface)"/>
<path fill-rule="evenodd" clip-rule="evenodd" d="M103.5 50.5V55.5H123.5V50.5H103.5Z" fill="var(--color-green-500)"/>
<path fill-rule="evenodd" clip-rule="evenodd" d="M103.5 60.5V65.5H123.5V60.5H103.5Z" fill="var(--sol-element-primary)"/>
<rect x="103.5" y="50.5" width="6" height="15" fill="var(--color-red-500)"/>
</g>
<path d="M139.074 53.1016H140.305V59.6504C140.305 61.6875 138.787 63.1777 136.449 63.1777C134.111 63.1777 132.594 61.6875 132.594 59.6504V53.1016H133.824V59.5547C133.824 60.9902 134.822 62.0293 136.449 62.0293C138.09 62.0293 139.074 60.9902 139.074 59.5547V53.1016ZM143.518 58.543V63H142.342V55.5762H143.477V56.7383H143.572C143.928 55.9863 144.611 55.4805 145.746 55.4805C147.25 55.4805 148.248 56.3965 148.248 58.2832V63H147.072V58.3652C147.072 57.2168 146.443 56.5332 145.391 56.5332C144.311 56.5332 143.518 57.2578 143.518 58.543ZM150.135 63V55.5762H151.311V63H150.135ZM150.723 54.3457C150.271 54.3457 149.902 54.0039 149.902 53.5664C149.902 53.1289 150.271 52.7871 150.723 52.7871C151.174 52.7871 151.557 53.1289 151.557 53.5664C151.557 54.0039 151.174 54.3457 150.723 54.3457ZM156.424 55.5762V56.5605H154.865V60.8672C154.865 61.8242 155.33 61.9746 155.836 61.9746C156.055 61.9746 156.355 61.9609 156.533 61.9473V63.041C156.355 63.0684 156.055 63.0957 155.713 63.0957C154.729 63.0957 153.676 62.4805 153.676 61.168V56.5605H152.555V55.5762H153.676V53.7988H154.865V55.5762H156.424ZM160.99 63.1504C158.844 63.1504 157.518 61.6328 157.518 59.3496C157.518 57.0664 158.857 55.4805 160.881 55.4805C162.439 55.4805 164.08 56.4375 164.08 59.1855V59.6777H158.693C158.748 61.25 159.664 62.1113 160.99 62.1113C161.879 62.1113 162.439 61.7285 162.713 61.2637H163.971C163.615 62.3848 162.521 63.1504 160.99 63.1504ZM158.707 58.6797H162.891C162.891 57.4355 162.098 56.5195 160.881 56.5195C159.596 56.5195 158.775 57.5312 158.707 58.6797ZM168.414 63.1504C166.568 63.1504 165.256 61.6602 165.256 59.3086C165.256 56.957 166.568 55.4805 168.428 55.4805C169.863 55.4805 170.328 56.3555 170.574 56.752H170.656V53.1016H171.846V63H170.697V61.8652H170.574C170.314 62.2754 169.836 63.1504 168.414 63.1504ZM168.578 62.0977C169.932 62.0977 170.697 60.9492 170.697 59.2812C170.697 57.6406 169.959 56.5332 168.578 56.5332C167.156 56.5332 166.445 57.7363 166.445 59.2812C166.445 60.8672 167.17 62.0977 168.578 62.0977ZM177.984 63H176.699L180.322 53.1016H181.621L185.244 63H183.945L182.961 60.2109H178.982L177.984 63ZM179.352 59.1309H182.578L181.006 54.7012H180.924L179.352 59.1309ZM186.434 63V55.5762H187.568V56.7109H187.65C187.924 55.959 188.689 55.4531 189.564 55.4531C189.742 55.4531 190.043 55.4668 190.18 55.4805V56.6699C190.098 56.6426 189.77 56.5879 189.469 56.5879C188.402 56.5879 187.609 57.3262 187.609 58.3242V63H186.434ZM190.973 60.8945C190.973 59.1855 192.477 58.8027 193.762 58.707C194.233 58.6729 195.437 58.6113 195.771 58.5977V57.9961C195.771 57.0527 195.211 56.5059 194.09 56.5059C193.146 56.5059 192.586 56.9434 192.422 57.5039H191.191C191.342 56.3145 192.504 55.4805 194.145 55.4805C195.115 55.4805 196.934 55.7676 196.934 58.1055V63H195.771V61.9883H195.717C195.471 62.4941 194.787 63.1777 193.502 63.1777C192.094 63.1777 190.973 62.3438 190.973 60.8945ZM192.148 60.9492C192.148 61.7285 192.805 62.125 193.707 62.125C195.033 62.125 195.771 61.2363 195.771 60.3066V59.5547L193.898 59.6914C192.832 59.7598 192.148 60.1426 192.148 60.9492ZM198.971 63V53.1016H200.146V56.752H200.242C200.502 56.3555 200.939 55.4805 202.389 55.4805C204.248 55.4805 205.561 56.957 205.561 59.3086C205.561 61.6602 204.248 63.1504 202.402 63.1504C200.98 63.1504 200.502 62.2754 200.242 61.8652H200.105V63H198.971ZM200.119 59.2812C200.119 60.9492 200.871 62.0977 202.225 62.0977C203.633 62.0977 204.371 60.8672 204.371 59.2812C204.371 57.7363 203.66 56.5332 202.225 56.5332C200.857 56.5332 200.119 57.6406 200.119 59.2812ZM210.756 63V53.1016H216.758V54.1953H211.986V57.5039H216.443V58.584H211.986V61.9062H216.826V63H210.756ZM218.549 63V55.5762H219.684V56.7383H219.779C220.094 55.9453 220.805 55.4805 221.775 55.4805C222.746 55.4805 223.402 55.9453 223.758 56.7383H223.84C224.223 55.9727 225.002 55.4805 226.068 55.4805C227.395 55.4805 228.338 56.2871 228.338 58.0371V63H227.162V58.0508C227.162 56.957 226.465 56.5332 225.658 56.5332C224.619 56.5332 224.031 57.2305 224.031 58.1738V63H222.842V57.9277C222.842 57.0938 222.24 56.5332 221.393 56.5332C220.504 56.5332 219.725 57.2852 219.725 58.3652V63H218.549ZM230.225 63V55.5762H231.4V63H230.225ZM230.812 54.3457C230.361 54.3457 229.992 54.0039 229.992 53.5664C229.992 53.1289 230.361 52.7871 230.812 52.7871C231.264 52.7871 231.646 53.1289 231.646 53.5664C231.646 54.0039 231.264 54.3457 230.812 54.3457ZM233.273 63V55.5762H234.408V56.7109H234.49C234.764 55.959 235.529 55.4531 236.404 55.4531C236.582 55.4531 236.883 55.4668 237.02 55.4805V56.6699C236.938 56.6426 236.609 56.5879 236.309 56.5879C235.242 56.5879 234.449 57.3262 234.449 58.3242V63H233.273ZM237.812 60.8945C237.812 59.1855 239.316 58.8027 240.602 58.707C241.073 58.6729 242.276 58.6113 242.611 58.5977V57.9961C242.611 57.0527 242.051 56.5059 240.93 56.5059C239.986 56.5059 239.426 56.9434 239.262 57.5039H238.031C238.182 56.3145 239.344 55.4805 240.984 55.4805C241.955 55.4805 243.773 55.7676 243.773 58.1055V63H242.611V61.9883H242.557C242.311 62.4941 241.627 63.1777 240.342 63.1777C238.934 63.1777 237.812 62.3438 237.812 60.8945ZM238.988 60.9492C238.988 61.7285 239.645 62.125 240.547 62.125C241.873 62.125 242.611 61.2363 242.611 60.3066V59.5547L240.738 59.6914C239.672 59.7598 238.988 60.1426 238.988 60.9492ZM248.9 55.5762V56.5605H247.342V60.8672C247.342 61.8242 247.807 61.9746 248.312 61.9746C248.531 61.9746 248.832 61.9609 249.01 61.9473V63.041C248.832 63.0684 248.531 63.0957 248.189 63.0957C247.205 63.0957 246.152 62.4805 246.152 61.168V56.5605H245.031V55.5762H246.152V53.7988H247.342V55.5762H248.9ZM253.467 63.1504C251.32 63.1504 249.994 61.6328 249.994 59.3496C249.994 57.0664 251.334 55.4805 253.357 55.4805C254.916 55.4805 256.557 56.4375 256.557 59.1855V59.6777H251.17C251.225 61.25 252.141 62.1113 253.467 62.1113C254.355 62.1113 254.916 61.7285 255.189 61.2637H256.447C256.092 62.3848 254.998 63.1504 253.467 63.1504ZM251.184 58.6797H255.367C255.367 57.4355 254.574 56.5195 253.357 56.5195C252.072 56.5195 251.252 57.5312 251.184 58.6797ZM262.217 57.5039C262.053 56.8887 261.588 56.4785 260.713 56.4785C259.797 56.4785 259.141 56.9707 259.141 57.5996C259.141 58.0918 259.537 58.4336 260.412 58.6387L261.52 58.9121C262.846 59.2266 263.502 59.8828 263.502 60.9219C263.502 62.207 262.449 63.1504 260.59 63.1504C258.922 63.1504 257.924 62.4121 257.732 61.0586H258.963C259.1 61.7832 259.633 62.125 260.562 62.125C261.615 62.125 262.285 61.6875 262.285 60.9902C262.285 60.4707 261.916 60.1152 261.068 59.9238L259.947 59.6641C258.648 59.3633 257.965 58.6523 257.965 57.668C257.965 56.3965 259.072 55.4805 260.713 55.4805C262.244 55.4805 263.215 56.3008 263.365 57.5039H262.217Z" fill="var(--sol-element-primary)"/>
<path d="M267.744 59.2266C267.758 56.6426 268.455 54.4961 269.713 52.6777H270.752C269.822 54.0312 268.961 56.793 268.961 59.2266C268.961 61.6602 269.822 64.4355 270.752 65.7891H269.713C268.455 63.957 267.758 61.8105 267.744 59.2266ZM275.1 61.2637V58.6113H272.461V57.5039H275.1V54.8652H276.207V57.5039H278.859V58.6113H276.207V61.2637H275.1ZM284.287 63.1367C282.209 63.1367 280.76 61.9883 280.773 60.375C280.76 59.0898 281.648 58.0371 282.783 57.8594V57.8047C281.799 57.5723 281.156 56.6699 281.156 55.5898C281.156 54.0723 282.482 52.9648 284.287 52.9648C286.092 52.9648 287.418 54.0723 287.432 55.5898C287.418 56.6699 286.762 57.5723 285.791 57.8047V57.8594C286.912 58.0371 287.801 59.0898 287.814 60.375C287.801 61.9883 286.352 63.1367 284.287 63.1367ZM284.287 62.0566C285.709 62.0566 286.584 61.3457 286.584 60.3066C286.584 59.2129 285.613 58.4062 284.287 58.4062C282.961 58.4062 281.977 59.2129 282.004 60.3066C281.977 61.3457 282.865 62.0566 284.287 62.0566ZM284.287 57.3672C285.408 57.3672 286.229 56.6836 286.229 55.6855C286.229 54.7012 285.449 54.0312 284.287 54.0312C283.111 54.0312 282.346 54.7012 282.346 55.6855C282.346 56.6836 283.152 57.3672 284.287 57.3672ZM289.469 63L289.455 62.0977L292.832 58.543C294.008 57.2988 294.568 56.6289 294.568 55.7129C294.568 54.7012 293.707 54.0312 292.6 54.0312C291.424 54.0312 290.672 54.7832 290.672 55.8906H289.51C289.496 54.1406 290.85 52.9648 292.641 52.9648C294.432 52.9648 295.717 54.168 295.717 55.7129C295.717 56.8203 295.197 57.6816 293.447 59.4863L291.178 61.8242V61.9062H295.895V63H289.469ZM300.283 59.2266C300.27 61.8105 299.572 63.957 298.314 65.7891H297.275C298.205 64.4355 299.066 61.6602 299.066 59.2266C299.066 56.793 298.205 54.0312 297.275 52.6777H298.314C299.572 54.4961 300.27 56.6426 300.283 59.2266Z" fill="var(--sol-element-tertiary)"/>
</g>
<g clip-path="url(#clip7_1670_193131)">
<g clip-path="url(#clip8_1670_193131)">
<rect width="20" height="15" transform="translate(103.5 86.5)" fill="var(--sol-surface)"/>
<path fill-rule="evenodd" clip-rule="evenodd" d="M117.5 86.5H123.5V101.5H117.5V86.5Z" fill="var(--color-green-400)"/>
<path fill-rule="evenodd" clip-rule="evenodd" d="M109.5 86.5H117.5V101.5H109.5V86.5Z" fill="var(--color-red-600)"/>
<path fill-rule="evenodd" clip-rule="evenodd" d="M103.5 86.5H109.5V101.5H103.5V86.5Z" fill="var(--sol-element-primary)"/>
<path d="M111.421 91.6213C111.06 92.2283 110.818 92.7847 110.693 93.2902C110.746 93.3388 110.78 93.3812 110.813 93.4396C110.911 93.6088 110.993 93.7734 111.06 93.9328L110.772 94.0549C110.728 93.9475 110.673 93.8381 110.612 93.7248C110.583 93.9708 110.587 94.2031 110.62 94.4221C110.672 94.4275 110.716 94.4369 110.767 94.4553C110.95 94.5221 111.119 94.5956 111.272 94.675L111.131 94.9533C111 94.8857 110.856 94.8234 110.699 94.7648C110.7 94.7677 110.701 94.7707 110.702 94.7736C110.836 95.1779 111.042 95.5492 111.318 95.8889C111.361 95.8798 111.4 95.8752 111.446 95.8752C111.642 95.8752 111.826 95.8864 111.997 95.9084L111.96 96.218C111.844 96.2031 111.721 96.1956 111.592 96.1916C111.839 96.4388 112.13 96.6672 112.463 96.8762L112.331 97.0988C111.917 96.8393 111.564 96.5496 111.273 96.2307C111.236 96.2455 111.189 96.2635 111.13 96.2892C111.122 96.2926 111.114 96.2948 111.106 96.298C111.36 96.5645 111.661 96.8097 112.008 97.0334L111.873 97.2541C111.471 96.995 111.128 96.7063 110.843 96.3898C110.707 96.4244 110.594 96.4271 110.46 96.3879L110.544 96.0881C110.563 96.0937 110.583 96.095 110.602 96.0978C110.338 95.7468 110.139 95.3645 110.006 94.9504C109.982 94.877 109.963 94.8018 109.946 94.7258C109.843 94.7061 109.755 94.6676 109.664 94.6008L109.846 94.3469C109.861 94.3578 109.877 94.3647 109.893 94.3732C109.861 93.9911 109.905 93.5786 110.026 93.1359C109.951 93.0488 109.904 92.9593 109.875 92.842L110.142 92.7726C110.285 92.3676 110.486 91.9385 110.747 91.4865L110.966 91.6203C110.681 92.1127 110.47 92.5724 110.332 93.0002C110.371 93.0352 110.417 93.0735 110.475 93.1164C110.613 92.6129 110.857 92.0694 111.204 91.4855L111.421 91.6213ZM110.326 94.7365C110.285 94.7391 110.246 94.7385 110.21 94.7394C110.221 94.7829 110.233 94.826 110.247 94.8683C110.385 95.2977 110.599 95.6915 110.889 96.05C110.925 96.0362 110.966 96.0216 111.011 96.0021C111.029 95.994 111.047 95.9859 111.063 95.9787C110.798 95.6358 110.597 95.2627 110.463 94.8576C110.449 94.8165 110.437 94.7745 110.426 94.7326C110.397 94.734 110.364 94.7341 110.326 94.7365ZM110.24 93.3273C110.143 93.7252 110.115 94.0925 110.154 94.4299C110.201 94.4302 110.253 94.4288 110.313 94.425C110.331 94.4239 110.347 94.423 110.363 94.4221C110.322 94.119 110.334 93.7958 110.398 93.4523C110.37 93.4302 110.338 93.4021 110.296 93.3713C110.276 93.3567 110.258 93.3412 110.24 93.3273Z" fill="var(--sol-surface)"/>
<path d="M115.37 91.6213C115.731 92.2283 115.973 92.7847 116.098 93.2902C116.045 93.3388 116.011 93.3812 115.978 93.4396C115.88 93.6088 115.798 93.7734 115.731 93.9328L116.019 94.0549C116.063 93.9475 116.118 93.8381 116.179 93.7248C116.208 93.9708 116.204 94.2031 116.171 94.4221C116.119 94.4275 116.075 94.4369 116.024 94.4553C115.841 94.5221 115.672 94.5956 115.519 94.675L115.66 94.9533C115.791 94.8857 115.935 94.8234 116.092 94.7648C116.091 94.7677 116.09 94.7707 116.089 94.7736C115.955 95.1779 115.749 95.5492 115.473 95.8889C115.43 95.8798 115.391 95.8752 115.345 95.8752C115.149 95.8752 114.965 95.8864 114.794 95.9084L114.831 96.218C114.947 96.2031 115.07 96.1956 115.199 96.1916C114.952 96.4388 114.661 96.6672 114.328 96.8762L114.46 97.0988C114.874 96.8393 115.227 96.5496 115.518 96.2307C115.555 96.2455 115.602 96.2635 115.661 96.2892C115.669 96.2926 115.677 96.2948 115.685 96.298C115.431 96.5645 115.13 96.8097 114.783 97.0334L114.918 97.2541C115.32 96.995 115.663 96.7063 115.948 96.3898C116.084 96.4244 116.197 96.4271 116.331 96.3879L116.247 96.0881C116.228 96.0937 116.208 96.095 116.189 96.0978C116.453 95.7468 116.652 95.3645 116.785 94.9504C116.809 94.877 116.828 94.8018 116.845 94.7258C116.949 94.7061 117.036 94.6676 117.127 94.6008L116.945 94.3469C116.93 94.3578 116.914 94.3647 116.898 94.3732C116.93 93.9911 116.886 93.5786 116.765 93.1359C116.84 93.0488 116.888 92.9593 116.916 92.842L116.649 92.7726C116.506 92.3676 116.305 91.9385 116.044 91.4865L115.825 91.6203C116.11 92.1127 116.321 92.5724 116.459 93.0002C116.42 93.0352 116.374 93.0735 116.316 93.1164C116.178 92.6129 115.934 92.0694 115.587 91.4855L115.37 91.6213ZM116.465 94.7365C116.506 94.7391 116.545 94.7385 116.581 94.7394C116.57 94.7829 116.558 94.826 116.544 94.8683C116.406 95.2977 116.192 95.6915 115.902 96.05C115.866 96.0362 115.825 96.0216 115.78 96.0021C115.762 95.994 115.744 95.9859 115.728 95.9787C115.993 95.6358 116.194 95.2627 116.328 94.8576C116.342 94.8165 116.354 94.7745 116.365 94.7326C116.394 94.734 116.427 94.7341 116.465 94.7365ZM116.551 93.3273C116.648 93.7252 116.676 94.0925 116.637 94.4299C116.59 94.4302 116.538 94.4288 116.478 94.425C116.46 94.4239 116.444 94.423 116.428 94.4221C116.469 94.119 116.457 93.7958 116.393 93.4523C116.421 93.4302 116.453 93.4021 116.495 93.3713C116.515 93.3567 116.533 93.3412 116.551 93.3273Z" fill="var(--sol-surface)"/>
<path fill-rule="evenodd" clip-rule="evenodd" d="M112.308 96.6651L111.61 97.3554C111.61 97.3554 112.212 97.7239 113.346 97.7239C114.48 97.7239 115.14 97.3554 115.14 97.3554L114.61 96.6651C114.61 96.6651 113.887 96.9451 113.375 96.9451C112.863 96.9451 112.308 96.6651 112.308 96.6651Z" fill="var(--sol-surface)"/>
<path d="M112.322 97.1056C112.322 97.1056 112.913 97.245 113.366 97.245C113.819 97.245 114.409 97.1056 114.409 97.1056" stroke="var(--color-red-700)" stroke-width="0.5"/>
<path d="M112.603 93.0329H112.635L112.8 92.9059H113.962L114.158 93.0329H114.256V92.0426H114.561V93.0329H114.667V93.2018H114.561V94.9977C114.561 95.1032 114.673 95.2846 114.909 95.5202L115.178 95.7887H111.441L112.062 95.4909C112.179 95.4348 112.262 95.273 112.298 94.9879V93.2018H112.032V93.0329H112.298V92.0426H112.603V93.0329ZM112.603 95.0075C112.579 95.1991 112.538 95.353 112.477 95.4762H114.458C114.324 95.3002 114.256 95.1426 114.256 94.9977V93.2018H112.603V95.0075ZM114.109 95.3024H112.792V93.9997H113.451L114.109 95.3024ZM113.4 91.9167C113.708 91.9168 113.957 92.1386 113.957 92.4118C113.957 92.6848 113.708 92.9057 113.4 92.9059C113.093 92.9059 112.843 92.6849 112.843 92.4118C112.843 92.1385 113.093 91.9167 113.4 91.9167Z" fill="var(--sol-surface)"/>
<path d="M114.067 90.2939C114.081 90.297 114.091 90.3024 114.101 90.3085C114.13 90.3266 114.161 90.3629 114.186 90.4062C114.234 90.4669 114.263 90.5424 114.276 90.6318C114.281 90.6586 114.282 90.6814 114.284 90.7099C114.296 90.6763 114.307 90.6369 114.315 90.5937C114.319 90.5773 114.32 90.5651 114.323 90.5419C114.325 90.532 114.326 90.5279 114.327 90.5234C114.328 90.5186 114.328 90.5181 114.329 90.5117C114.332 90.4988 114.336 90.4902 114.345 90.4765C114.353 90.4647 114.352 90.4639 114.372 90.4472C114.404 90.4299 114.404 90.43 114.451 90.4326C114.513 90.4695 114.513 90.4702 114.521 90.4931C114.527 90.5049 114.529 90.5128 114.53 90.5234C114.531 90.5299 114.532 90.5368 114.532 90.5468C114.533 90.554 114.533 90.5632 114.533 90.5771C114.533 90.5828 114.535 90.6119 114.535 90.621C114.536 90.6385 114.536 90.6564 114.536 90.6748C114.536 90.715 114.533 90.7523 114.529 90.7998C114.581 90.7497 114.659 90.7626 114.746 90.8105C114.832 90.8577 114.885 90.9258 114.908 91.0087C114.915 91.0327 114.919 91.0547 114.921 91.0781C114.953 91.0419 114.985 90.9824 115.014 90.9052C115.04 90.8333 115.087 90.6508 115.09 90.6386C115.095 90.6244 115.099 90.6133 115.108 90.6005C115.125 90.5772 115.149 90.5601 115.188 90.5585C115.233 90.5568 115.264 90.5811 115.281 90.6123C115.294 90.6361 115.296 90.6498 115.298 90.6884C115.299 90.722 115.3 90.7718 115.3 90.9023C115.3 91.1602 115.337 91.3474 115.387 91.4248C115.391 91.4248 115.504 91.4247 115.507 91.4248C115.507 91.6291 115.332 91.7206 115.217 91.539C115.166 91.4599 115.129 91.3317 115.11 91.1669C115.076 91.2179 115.036 91.2589 114.989 91.2871C114.892 91.346 114.839 91.3643 114.776 91.3242C114.736 91.2984 114.721 91.2609 114.718 91.2177C114.716 91.2001 114.717 91.1908 114.719 91.1552C114.721 91.1112 114.72 91.0883 114.714 91.0664C114.711 91.0552 114.706 91.0446 114.699 91.0351C114.707 91.0926 114.707 91.134 114.695 91.1757C114.673 91.2536 114.61 91.3006 114.525 91.3007C114.408 91.3007 114.332 91.2316 114.312 91.1191C114.306 91.0831 114.304 91.0536 114.307 91.0068C114.234 91.0477 114.159 91.0429 114.114 90.9619C114.103 90.9409 114.097 90.9225 114.093 90.8964C114.064 90.9269 114.03 90.957 113.991 90.9863C113.909 91.0485 113.848 91.0892 113.803 91.1113C113.723 91.1497 113.651 91.1529 113.607 91.0712C113.582 91.0229 113.588 90.9807 113.609 90.915C113.615 90.8976 113.622 90.8785 113.632 90.8544C113.637 90.8413 113.655 90.7964 113.657 90.7919C113.664 90.7751 113.669 90.7611 113.674 90.748C113.696 90.69 113.707 90.6492 113.707 90.6259C113.707 90.5917 113.707 90.5679 113.706 90.5498C113.667 90.5797 113.616 90.6283 113.552 90.6972C113.33 90.9357 113.098 90.9359 112.909 90.7871C112.863 90.7509 112.83 90.7144 112.811 90.6874L112.807 90.6826C112.801 90.6729 112.788 90.6543 112.77 90.6367C112.722 90.59 112.697 90.5867 112.656 90.6376C112.647 90.6489 112.638 90.6626 112.629 90.6787C112.524 90.8594 112.441 90.9622 112.342 91.0058C112.207 91.065 112.081 91.0016 111.968 90.8378C111.911 90.7551 111.835 90.7353 111.795 90.7685C111.74 90.8145 111.737 90.9485 111.835 91.1503C111.943 91.3735 111.963 91.5267 111.843 91.6074C111.743 91.6739 111.59 91.6369 111.356 91.5185L111.446 91.331C111.54 91.3787 111.616 91.4099 111.672 91.4238C111.694 91.4291 111.71 91.4316 111.72 91.4326C111.72 91.4304 111.719 91.4273 111.719 91.4248C111.713 91.3841 111.692 91.3224 111.653 91.2431C111.518 90.9635 111.524 90.7259 111.668 90.6064C111.807 90.4906 112.013 90.5435 112.133 90.7167C112.197 90.8093 112.232 90.8273 112.262 90.8144C112.308 90.794 112.372 90.7161 112.455 90.5722C112.469 90.5476 112.484 90.5254 112.5 90.5058C112.628 90.3451 112.785 90.3653 112.908 90.4853C112.938 90.5143 112.96 90.5433 112.975 90.5654C112.977 90.5681 112.982 90.5727 112.987 90.579C113 90.5934 113.015 90.6086 113.032 90.622C113.144 90.71 113.26 90.7098 113.405 90.5537C113.594 90.3502 113.705 90.2744 113.811 90.3261C113.869 90.3548 113.893 90.4083 113.903 90.4794C113.909 90.517 113.909 90.5492 113.909 90.6259C113.909 90.6822 113.894 90.7425 113.863 90.8232C113.865 90.8225 113.868 90.8204 113.871 90.8183C114.023 90.7028 114.052 90.6086 114.018 90.5263C113.991 90.5001 113.972 90.4789 113.961 90.4609C113.956 90.4529 113.952 90.4442 113.948 90.4345C113.938 90.4069 113.936 90.3779 113.955 90.3437C113.982 90.2955 114.028 90.2848 114.067 90.2939Z" fill="var(--sol-surface)"/>
<path d="M112.479 94.5748L112.354 94.6637L111.798 93.8472C111.734 93.8754 111.658 93.9329 111.609 94.0465C111.514 94.2684 111.476 94.655 111.475 94.6695L111.117 94.44C111.121 94.4312 111.237 94.1554 111.237 93.8199C111.237 93.5853 111.413 93.4854 111.523 93.4459L111.396 93.2574L111.52 93.1676L112.479 94.5748Z" fill="var(--sol-surface)"/>
<path d="M114.36 94.5748L114.485 94.6637L115.041 93.8472C115.105 93.8754 115.181 93.9329 115.229 94.0465C115.325 94.2684 115.363 94.655 115.364 94.6695L115.722 94.44C115.718 94.4312 115.602 94.1554 115.602 93.8199C115.602 93.5853 115.425 93.4854 115.315 93.4459L115.443 93.2574L115.319 93.1676L114.36 94.5748Z" fill="var(--sol-surface)"/>
</g>
<path d="M133.031 99H131.746L135.369 89.1016H136.668L140.291 99H138.992L138.008 96.2109H134.029L133.031 99ZM134.398 95.1309H137.625L136.053 90.7012H135.971L134.398 95.1309ZM144.803 91.5762V92.5605H143.162V99H141.973V92.5605H140.783V91.5762H141.973V90.5645C141.973 89.3613 142.779 88.6367 144.092 88.6367C144.379 88.6367 144.721 88.6777 144.967 88.7188V89.7715C144.721 89.7305 144.502 89.7168 144.352 89.7168C143.531 89.7168 143.162 90.0586 143.162 90.8242V91.5762H144.803ZM148.904 101.939C147.113 101.939 145.896 101.16 145.76 99.7793H146.99C147.154 100.531 147.852 100.914 148.904 100.914C150.176 100.914 150.955 100.367 150.955 99.1367V97.6328H150.859C150.613 98.043 150.135 98.8906 148.699 98.8906C146.895 98.8906 145.541 97.5234 145.541 95.1855C145.541 92.9023 146.854 91.4805 148.713 91.4805C150.148 91.4805 150.613 92.3555 150.887 92.752H150.982V91.5762H152.131V99.2051C152.131 101.119 150.709 101.939 148.904 101.939ZM148.863 97.8379C150.217 97.8379 150.982 96.8672 150.982 95.2266C150.982 93.6406 150.244 92.5332 148.863 92.5332C147.441 92.5332 146.73 93.7363 146.73 95.2266C146.73 96.7715 147.455 97.8379 148.863 97.8379ZM155.18 94.543V99H154.004V89.1016H155.18V92.7383H155.275C155.617 91.9727 156.287 91.4805 157.463 91.4805C158.98 91.4805 159.992 92.3828 159.992 94.2832V99H158.816V94.3652C158.816 93.2031 158.174 92.5332 157.107 92.5332C156 92.5332 155.18 93.2578 155.18 94.543ZM161.523 96.8945C161.523 95.1855 163.027 94.8027 164.312 94.707C164.784 94.6729 165.987 94.6113 166.322 94.5977V93.9961C166.322 93.0527 165.762 92.5059 164.641 92.5059C163.697 92.5059 163.137 92.9434 162.973 93.5039H161.742C161.893 92.3145 163.055 91.4805 164.695 91.4805C165.666 91.4805 167.484 91.7676 167.484 94.1055V99H166.322V97.9883H166.268C166.021 98.4941 165.338 99.1777 164.053 99.1777C162.645 99.1777 161.523 98.3438 161.523 96.8945ZM162.699 96.9492C162.699 97.7285 163.355 98.125 164.258 98.125C165.584 98.125 166.322 97.2363 166.322 96.3066V95.5547L164.449 95.6914C163.383 95.7598 162.699 96.1426 162.699 96.9492ZM170.547 94.543V99H169.371V91.5762H170.506V92.7383H170.602C170.957 91.9863 171.641 91.4805 172.775 91.4805C174.279 91.4805 175.277 92.3965 175.277 94.2832V99H174.102V94.3652C174.102 93.2168 173.473 92.5332 172.42 92.5332C171.34 92.5332 170.547 93.2578 170.547 94.543ZM177.164 99V91.5762H178.34V99H177.164ZM177.752 90.3457C177.301 90.3457 176.932 90.0039 176.932 89.5664C176.932 89.1289 177.301 88.7871 177.752 88.7871C178.203 88.7871 178.586 89.1289 178.586 89.5664C178.586 90.0039 178.203 90.3457 177.752 90.3457ZM184.342 93.5039C184.178 92.8887 183.713 92.4785 182.838 92.4785C181.922 92.4785 181.266 92.9707 181.266 93.5996C181.266 94.0918 181.662 94.4336 182.537 94.6387L183.645 94.9121C184.971 95.2266 185.627 95.8828 185.627 96.9219C185.627 98.207 184.574 99.1504 182.715 99.1504C181.047 99.1504 180.049 98.4121 179.857 97.0586H181.088C181.225 97.7832 181.758 98.125 182.688 98.125C183.74 98.125 184.41 97.6875 184.41 96.9902C184.41 96.4707 184.041 96.1152 183.193 95.9238L182.072 95.6641C180.773 95.3633 180.09 94.6523 180.09 93.668C180.09 92.3965 181.197 91.4805 182.838 91.4805C184.369 91.4805 185.34 92.3008 185.49 93.5039H184.342ZM190.398 91.5762V92.5605H188.84V96.8672C188.84 97.8242 189.305 97.9746 189.811 97.9746C190.029 97.9746 190.33 97.9609 190.508 97.9473V99.041C190.33 99.0684 190.029 99.0957 189.688 99.0957C188.703 99.0957 187.65 98.4805 187.65 97.168V92.5605H186.529V91.5762H187.65V89.7988H188.84V91.5762H190.398ZM191.561 96.8945C191.561 95.1855 193.064 94.8027 194.35 94.707C194.821 94.6729 196.024 94.6113 196.359 94.5977V93.9961C196.359 93.0527 195.799 92.5059 194.678 92.5059C193.734 92.5059 193.174 92.9434 193.01 93.5039H191.779C191.93 92.3145 193.092 91.4805 194.732 91.4805C195.703 91.4805 197.521 91.7676 197.521 94.1055V99H196.359V97.9883H196.305C196.059 98.4941 195.375 99.1777 194.09 99.1777C192.682 99.1777 191.561 98.3438 191.561 96.8945ZM192.736 96.9492C192.736 97.7285 193.393 98.125 194.295 98.125C195.621 98.125 196.359 97.2363 196.359 96.3066V95.5547L194.486 95.6914C193.42 95.7598 192.736 96.1426 192.736 96.9492ZM200.584 94.543V99H199.408V91.5762H200.543V92.7383H200.639C200.994 91.9863 201.678 91.4805 202.812 91.4805C204.316 91.4805 205.314 92.3965 205.314 94.2832V99H204.139V94.3652C204.139 93.2168 203.51 92.5332 202.457 92.5332C201.377 92.5332 200.584 93.2578 200.584 94.543Z" fill="var(--sol-element-primary)"/>
<path d="M209.744 95.2266C209.758 92.6426 210.455 90.4961 211.713 88.6777H212.752C211.822 90.0312 210.961 92.793 210.961 95.2266C210.961 97.6602 211.822 100.436 212.752 101.789H211.713C210.455 99.957 209.758 97.8105 209.744 95.2266ZM217.1 97.2637V94.6113H214.461V93.5039H217.1V90.8652H218.207V93.5039H220.859V94.6113H218.207V97.2637H217.1ZM226.287 99.1367C224.209 99.1367 222.76 97.9883 222.773 96.375C222.76 95.0898 223.648 94.0371 224.783 93.8594V93.8047C223.799 93.5723 223.156 92.6699 223.156 91.5898C223.156 90.0723 224.482 88.9648 226.287 88.9648C228.092 88.9648 229.418 90.0723 229.432 91.5898C229.418 92.6699 228.762 93.5723 227.791 93.8047V93.8594C228.912 94.0371 229.801 95.0898 229.814 96.375C229.801 97.9883 228.352 99.1367 226.287 99.1367ZM226.287 98.0566C227.709 98.0566 228.584 97.3457 228.584 96.3066C228.584 95.2129 227.613 94.4062 226.287 94.4062C224.961 94.4062 223.977 95.2129 224.004 96.3066C223.977 97.3457 224.865 98.0566 226.287 98.0566ZM226.287 93.3672C227.408 93.3672 228.229 92.6836 228.229 91.6855C228.229 90.7012 227.449 90.0312 226.287 90.0312C225.111 90.0312 224.346 90.7012 224.346 91.6855C224.346 92.6836 225.152 93.3672 226.287 93.3672ZM231.469 99L231.455 98.0977L234.832 94.543C236.008 93.2988 236.568 92.6289 236.568 91.7129C236.568 90.7012 235.707 90.0312 234.6 90.0312C233.424 90.0312 232.672 90.7832 232.672 91.8906H231.51C231.496 90.1406 232.85 88.9648 234.641 88.9648C236.432 88.9648 237.717 90.168 237.717 91.7129C237.717 92.8203 237.197 93.6816 235.447 95.4863L233.178 97.8242V97.9062H237.895V99H231.469ZM242.283 95.2266C242.27 97.8105 241.572 99.957 240.314 101.789H239.275C240.205 100.436 241.066 97.6602 241.066 95.2266C241.066 92.793 240.205 90.0312 239.275 88.6777H240.314C241.572 90.4961 242.27 92.6426 242.283 95.2266Z" fill="var(--sol-element-tertiary)"/>
</g>
<g clip-path="url(#clip9_1670_193131)">
<g clip-path="url(#clip10_1670_193131)">
<rect width="20" height="15" transform="translate(103.5 122.5)" fill="var(--sol-surface)"/>
<path fill-rule="evenodd" clip-rule="evenodd" d="M103.5 122.5H123.5V137.5H103.5V122.5Z" fill="var(--sol-element-primary)"/>
<path fill-rule="evenodd" clip-rule="evenodd" d="M113.5 131.25L112.109 133.625L112.144 131.002L109.603 132.659L111.057 130.309L107.869 130.919L110.453 129.306L107.25 128.75L110.453 128.194L107.869 126.581L111.057 127.191L109.603 124.841L112.144 126.498L112.109 123.875L113.5 126.25L114.891 123.875L114.856 126.498L117.397 124.841L115.943 127.191L119.131 126.581L116.547 128.194L119.75 128.75L116.547 129.306L119.131 130.919L115.943 130.309L117.397 132.659L114.856 131.002L114.891 133.625L113.5 131.25Z" fill="var(--color-yellow-400)"/>
<rect x="107.25" y="131.25" width="12.5" height="6.25" fill="var(--sol-surface)"/>
<rect x="104.75" y="128.75" width="17.5" height="2.5" fill="var(--color-indigo-400)"/>
<path fill-rule="evenodd" clip-rule="evenodd" d="M103.5 126.25L113.5 137.5L123.5 126.25V137.5H103.5V126.25Z" fill="var(--color-red-500)"/>
</g>
<path d="M133.031 135H131.746L135.369 125.102H136.668L140.291 135H138.992L138.008 132.211H134.029L133.031 135ZM134.398 131.131H137.625L136.053 126.701H135.971L134.398 131.131ZM142.656 130.543V135H141.48V127.576H142.615V128.738H142.711C143.066 127.986 143.75 127.48 144.885 127.48C146.389 127.48 147.387 128.396 147.387 130.283V135H146.211V130.365C146.211 129.217 145.582 128.533 144.529 128.533C143.449 128.533 142.656 129.258 142.656 130.543ZM152.514 127.576V128.561H150.955V132.867C150.955 133.824 151.42 133.975 151.926 133.975C152.145 133.975 152.445 133.961 152.623 133.947V135.041C152.445 135.068 152.145 135.096 151.803 135.096C150.818 135.096 149.766 134.48 149.766 133.168V128.561H148.645V127.576H149.766V125.799H150.955V127.576H152.514ZM154.031 135V127.576H155.207V135H154.031ZM154.619 126.346C154.168 126.346 153.799 126.004 153.799 125.566C153.799 125.129 154.168 124.787 154.619 124.787C155.07 124.787 155.453 125.129 155.453 125.566C155.453 126.004 155.07 126.346 154.619 126.346ZM160.088 137.939C158.297 137.939 157.08 137.16 156.943 135.779H158.174C158.338 136.531 159.035 136.914 160.088 136.914C161.359 136.914 162.139 136.367 162.139 135.137V133.633H162.043C161.797 134.043 161.318 134.891 159.883 134.891C158.078 134.891 156.725 133.523 156.725 131.186C156.725 128.902 158.037 127.48 159.896 127.48C161.332 127.48 161.797 128.355 162.07 128.752H162.166V127.576H163.314V135.205C163.314 137.119 161.893 137.939 160.088 137.939ZM160.047 133.838C161.4 133.838 162.166 132.867 162.166 131.227C162.166 129.641 161.428 128.533 160.047 128.533C158.625 128.533 157.914 129.736 157.914 131.227C157.914 132.771 158.639 133.838 160.047 133.838ZM169.877 131.951V127.576H171.039V135H169.877V133.742H169.795C169.439 134.494 168.715 135.096 167.594 135.096C166.186 135.096 165.188 134.18 165.188 132.293V127.576H166.363V132.211C166.363 133.277 167.033 133.961 167.977 133.961C168.811 133.961 169.877 133.332 169.877 131.951ZM172.57 132.895C172.57 131.186 174.074 130.803 175.359 130.707C175.831 130.673 177.034 130.611 177.369 130.598V129.996C177.369 129.053 176.809 128.506 175.688 128.506C174.744 128.506 174.184 128.943 174.02 129.504H172.789C172.939 128.314 174.102 127.48 175.742 127.48C176.713 127.48 178.531 127.768 178.531 130.105V135H177.369V133.988H177.314C177.068 134.494 176.385 135.178 175.1 135.178C173.691 135.178 172.57 134.344 172.57 132.895ZM173.746 132.949C173.746 133.729 174.402 134.125 175.305 134.125C176.631 134.125 177.369 133.236 177.369 132.307V131.555L175.496 131.691C174.43 131.76 173.746 132.143 173.746 132.949ZM183.576 132.895C183.576 131.186 185.08 130.803 186.365 130.707C186.837 130.673 188.04 130.611 188.375 130.598V129.996C188.375 129.053 187.814 128.506 186.693 128.506C185.75 128.506 185.189 128.943 185.025 129.504H183.795C183.945 128.314 185.107 127.48 186.748 127.48C187.719 127.48 189.537 127.768 189.537 130.105V135H188.375V133.988H188.32C188.074 134.494 187.391 135.178 186.105 135.178C184.697 135.178 183.576 134.344 183.576 132.895ZM184.752 132.949C184.752 133.729 185.408 134.125 186.311 134.125C187.637 134.125 188.375 133.236 188.375 132.307V131.555L186.502 131.691C185.436 131.76 184.752 132.143 184.752 132.949ZM192.6 130.543V135H191.424V127.576H192.559V128.738H192.654C193.01 127.986 193.693 127.48 194.828 127.48C196.332 127.48 197.33 128.396 197.33 130.283V135H196.154V130.365C196.154 129.217 195.525 128.533 194.473 128.533C193.393 128.533 192.6 129.258 192.6 130.543ZM202.02 135.15C200.174 135.15 198.861 133.66 198.861 131.309C198.861 128.957 200.174 127.48 202.033 127.48C203.469 127.48 203.934 128.355 204.18 128.752H204.262V125.102H205.451V135H204.303V133.865H204.18C203.92 134.275 203.441 135.15 202.02 135.15ZM202.184 134.098C203.537 134.098 204.303 132.949 204.303 131.281C204.303 129.641 203.564 128.533 202.184 128.533C200.762 128.533 200.051 129.736 200.051 131.281C200.051 132.867 200.775 134.098 202.184 134.098ZM211.152 135V125.102H214.625C216.703 125.102 217.674 126.264 217.674 127.727C217.674 128.998 216.922 129.572 216.061 129.805V129.9C216.977 129.955 218.07 130.803 218.07 132.375C218.07 133.865 217.086 135 214.748 135H211.152ZM214.734 133.906C216.279 133.906 216.881 133.223 216.881 132.361C216.881 131.35 216.074 130.502 214.803 130.502H212.383V133.906H214.734ZM214.584 129.436C215.65 129.436 216.498 128.779 216.498 127.74C216.498 126.879 215.924 126.195 214.625 126.195H212.383V129.436H214.584ZM219.314 132.895C219.314 131.186 220.818 130.803 222.104 130.707C222.575 130.673 223.778 130.611 224.113 130.598V129.996C224.113 129.053 223.553 128.506 222.432 128.506C221.488 128.506 220.928 128.943 220.764 129.504H219.533C219.684 128.314 220.846 127.48 222.486 127.48C223.457 127.48 225.275 127.768 225.275 130.105V135H224.113V133.988H224.059C223.812 134.494 223.129 135.178 221.844 135.178C220.436 135.178 219.314 134.344 219.314 132.895ZM220.49 132.949C220.49 133.729 221.146 134.125 222.049 134.125C223.375 134.125 224.113 133.236 224.113 132.307V131.555L222.24 131.691C221.174 131.76 220.49 132.143 220.49 132.949ZM227.162 135V127.576H228.297V128.711H228.379C228.652 127.959 229.418 127.453 230.293 127.453C230.471 127.453 230.771 127.467 230.908 127.48V128.67C230.826 128.643 230.498 128.588 230.197 128.588C229.131 128.588 228.338 129.326 228.338 130.324V135H227.162ZM232.207 135V125.102H233.383V128.752H233.479C233.738 128.355 234.176 127.48 235.625 127.48C237.484 127.48 238.797 128.957 238.797 131.309C238.797 133.66 237.484 135.15 235.639 135.15C234.217 135.15 233.738 134.275 233.479 133.865H233.342V135H232.207ZM233.355 131.281C233.355 132.949 234.107 134.098 235.461 134.098C236.869 134.098 237.607 132.867 237.607 131.281C237.607 129.736 236.896 128.533 235.461 128.533C234.094 128.533 233.355 129.641 233.355 131.281ZM245.018 131.951V127.576H246.18V135H245.018V133.742H244.936C244.58 134.494 243.855 135.096 242.734 135.096C241.326 135.096 240.328 134.18 240.328 132.293V127.576H241.504V132.211C241.504 133.277 242.174 133.961 243.117 133.961C243.951 133.961 245.018 133.332 245.018 131.951ZM250.869 135.15C249.023 135.15 247.711 133.66 247.711 131.309C247.711 128.957 249.023 127.48 250.883 127.48C252.318 127.48 252.783 128.355 253.029 128.752H253.111V125.102H254.301V135H253.152V133.865H253.029C252.77 134.275 252.291 135.15 250.869 135.15ZM251.033 134.098C252.387 134.098 253.152 132.949 253.152 131.281C253.152 129.641 252.414 128.533 251.033 128.533C249.611 128.533 248.9 129.736 248.9 131.281C248.9 132.867 249.625 134.098 251.033 134.098ZM255.982 132.895C255.982 131.186 257.486 130.803 258.771 130.707C259.243 130.673 260.446 130.611 260.781 130.598V129.996C260.781 129.053 260.221 128.506 259.1 128.506C258.156 128.506 257.596 128.943 257.432 129.504H256.201C256.352 128.314 257.514 127.48 259.154 127.48C260.125 127.48 261.943 127.768 261.943 130.105V135H260.781V133.988H260.727C260.48 134.494 259.797 135.178 258.512 135.178C257.104 135.178 255.982 134.344 255.982 132.895ZM257.158 132.949C257.158 133.729 257.814 134.125 258.717 134.125C260.043 134.125 260.781 133.236 260.781 132.307V131.555L258.908 131.691C257.842 131.76 257.158 132.143 257.158 132.949Z" fill="var(--sol-element-primary)"/>
<path d="M266.744 131.227C266.758 128.643 267.455 126.496 268.713 124.678H269.752C268.822 126.031 267.961 128.793 267.961 131.227C267.961 133.66 268.822 136.436 269.752 137.789H268.713C267.455 135.957 266.758 133.811 266.744 131.227ZM274.1 133.264V130.611H271.461V129.504H274.1V126.865H275.207V129.504H277.859V130.611H275.207V133.264H274.1ZM283.287 135.137C281.209 135.137 279.76 133.988 279.773 132.375C279.76 131.09 280.648 130.037 281.783 129.859V129.805C280.799 129.572 280.156 128.67 280.156 127.59C280.156 126.072 281.482 124.965 283.287 124.965C285.092 124.965 286.418 126.072 286.432 127.59C286.418 128.67 285.762 129.572 284.791 129.805V129.859C285.912 130.037 286.801 131.09 286.814 132.375C286.801 133.988 285.352 135.137 283.287 135.137ZM283.287 134.057C284.709 134.057 285.584 133.346 285.584 132.307C285.584 131.213 284.613 130.406 283.287 130.406C281.961 130.406 280.977 131.213 281.004 132.307C280.977 133.346 281.865 134.057 283.287 134.057ZM283.287 129.367C284.408 129.367 285.229 128.684 285.229 127.686C285.229 126.701 284.449 126.031 283.287 126.031C282.111 126.031 281.346 126.701 281.346 127.686C281.346 128.684 282.152 129.367 283.287 129.367ZM288.469 135L288.455 134.098L291.832 130.543C293.008 129.299 293.568 128.629 293.568 127.713C293.568 126.701 292.707 126.031 291.6 126.031C290.424 126.031 289.672 126.783 289.672 127.891H288.51C288.496 126.141 289.85 124.965 291.641 124.965C293.432 124.965 294.717 126.168 294.717 127.713C294.717 128.82 294.197 129.682 292.447 131.486L290.178 133.824V133.906H294.895V135H288.469ZM299.283 131.227C299.27 133.811 298.572 135.957 297.314 137.789H296.275C297.205 136.436 298.066 133.66 298.066 131.227C298.066 128.793 297.205 126.031 296.275 124.678H297.314C298.572 126.496 299.27 128.643 299.283 131.227Z" fill="var(--sol-element-tertiary)"/>
</g>
<g clip-path="url(#clip11_1670_193131)">
<g clip-path="url(#clip12_1670_193131)">
<rect width="20" height="15" transform="translate(103.5 158.5)" fill="var(--sol-surface)"/>
<path fill-rule="evenodd" clip-rule="evenodd" d="M103.5 158.5V173.5H123.5V158.5H103.5Z" fill="var(--color-indigo-700)"/>
<path d="M121.976 166.27C122.055 167.745 122.076 169.161 121.792 170.224C121.643 170.778 121.417 171.214 121.092 171.51C120.772 171.801 120.334 171.977 119.719 171.977C119.091 171.977 118.666 171.83 118.369 171.583C118.07 171.334 117.868 170.959 117.736 170.442C117.605 169.924 117.55 169.286 117.529 168.536C117.511 167.854 117.521 167.098 117.522 166.27H121.976Z" fill="var(--sol-surface)" stroke="var(--color-yellow-300)" stroke-width="0.5"/>
<path fill-rule="evenodd" clip-rule="evenodd" d="M117.746 171.196C118.12 172.03 118.773 172.446 119.707 172.446C120.634 172.446 121.289 172.035 121.673 171.213L117.746 171.196Z" fill="var(--color-blue-200)"/>
<path d="M119.659 166.75C120.49 166.75 121.166 167.421 121.166 168.25C121.166 169.079 120.49 169.75 119.659 169.75C118.828 169.75 118.153 169.079 118.153 168.25C118.153 167.421 118.828 166.75 119.659 166.75ZM119.659 167.375C119.173 167.375 118.778 167.767 118.778 168.25C118.778 168.733 119.173 169.125 119.659 169.125C120.146 169.125 120.541 168.733 120.541 168.25C120.541 167.767 120.146 167.375 119.659 167.375Z" fill="var(--color-orange-500)"/>
<path fill-rule="evenodd" clip-rule="evenodd" d="M119.405 166.541C119.405 166.541 118.857 166.79 118.976 167.257C119.095 167.724 119.23 167.791 119.23 167.791C119.23 167.791 119.423 166.779 120.205 166.779L119.405 166.541Z" fill="var(--color-orange-500)"/>
<path fill-rule="evenodd" clip-rule="evenodd" d="M118.407 169.062C118.407 169.062 118.864 169.454 119.238 169.148C119.611 168.843 119.614 168.693 119.614 168.693C119.614 168.693 118.616 168.945 118.285 168.237L118.407 169.062Z" fill="var(--color-orange-500)"/>
<path fill-rule="evenodd" clip-rule="evenodd" d="M121.15 169.009C121.15 169.009 121.167 168.408 120.695 168.31C120.223 168.212 120.104 168.303 120.104 168.303C120.104 168.303 120.928 168.921 120.586 169.624L121.15 169.009Z" fill="var(--color-orange-500)"/>
<g clip-path="url(#clip13_1670_193131)">
<rect width="11" height="9" transform="translate(103.5 158.5)" fill="var(--color-indigo-700)"/>
<path d="M102.247 166.625L104.723 167.711L114.806 159.68L116.112 158.067L113.464 157.704L109.352 161.165L106.041 163.496L102.247 166.625Z" fill="var(--sol-surface)"/>
<path d="M102.586 167.386L103.847 168.016L115.643 157.917H113.872L102.586 167.386Z" fill="var(--color-red-500)"/>
<path d="M116.003 166.625L113.806 168.021L103.444 159.68L102.138 158.067L104.786 157.704L108.898 161.165L112.209 163.496L116.003 166.625Z" fill="var(--sol-surface)"/>
<path d="M115.918 167.171L114.657 167.801L109.634 163.477L108.145 162.994L102.012 158.073H103.783L109.912 162.877L111.54 163.457L115.918 167.171Z" fill="var(--color-red-500)"/>
<path fill-rule="evenodd" clip-rule="evenodd" d="M109.5 158.5H108.5V162.5H103.5V163.5H108.5V167.5H109.5V163.5H114.5V162.5H109.5V158.5Z" fill="var(--color-red-500)"/>
<path fill-rule="evenodd" clip-rule="evenodd" d="M107.562 158.5H110.438V161.562L114.5 161.5V164.375L110.438 164.438V167.5H107.562V164.438L103.5 164.375V161.5L107.562 161.562V158.5ZM108.5 162.5H103.5V163.5H108.5V167.5H109.5V163.5H114.5V162.5H109.5V158.5H108.5V162.5Z" fill="var(--sol-surface)"/>
</g>
</g>
<path d="M133.031 171H131.746L135.369 161.102H136.668L140.291 171H138.992L138.008 168.211H134.029L133.031 171ZM134.398 167.131H137.625L136.053 162.701H135.971L134.398 167.131ZM142.656 166.543V171H141.48V163.576H142.615V164.738H142.711C143.066 163.986 143.75 163.48 144.885 163.48C146.389 163.48 147.387 164.396 147.387 166.283V171H146.211V166.365C146.211 165.217 145.582 164.533 144.529 164.533C143.449 164.533 142.656 165.258 142.656 166.543ZM152.281 173.939C150.49 173.939 149.273 173.16 149.137 171.779H150.367C150.531 172.531 151.229 172.914 152.281 172.914C153.553 172.914 154.332 172.367 154.332 171.137V169.633H154.236C153.99 170.043 153.512 170.891 152.076 170.891C150.271 170.891 148.918 169.523 148.918 167.186C148.918 164.902 150.23 163.48 152.09 163.48C153.525 163.48 153.99 164.355 154.264 164.752H154.359V163.576H155.508V171.205C155.508 173.119 154.086 173.939 152.281 173.939ZM152.24 169.838C153.594 169.838 154.359 168.867 154.359 167.227C154.359 165.641 153.621 164.533 152.24 164.533C150.818 164.533 150.107 165.736 150.107 167.227C150.107 168.771 150.832 169.838 152.24 169.838ZM162.07 167.951V163.576H163.232V171H162.07V169.742H161.988C161.633 170.494 160.908 171.096 159.787 171.096C158.379 171.096 157.381 170.18 157.381 168.293V163.576H158.557V168.211C158.557 169.277 159.227 169.961 160.17 169.961C161.004 169.961 162.07 169.332 162.07 167.951ZM165.119 171V163.576H166.295V171H165.119ZM165.707 162.346C165.256 162.346 164.887 162.004 164.887 161.566C164.887 161.129 165.256 160.787 165.707 160.787C166.158 160.787 166.541 161.129 166.541 161.566C166.541 162.004 166.158 162.346 165.707 162.346ZM169.344 161.102V171H168.168V161.102H169.344ZM172.393 161.102V171H171.217V161.102H172.393ZM173.91 168.895C173.91 167.186 175.414 166.803 176.699 166.707C177.171 166.673 178.374 166.611 178.709 166.598V165.996C178.709 165.053 178.148 164.506 177.027 164.506C176.084 164.506 175.523 164.943 175.359 165.504H174.129C174.279 164.314 175.441 163.48 177.082 163.48C178.053 163.48 179.871 163.768 179.871 166.105V171H178.709V169.988H178.654C178.408 170.494 177.725 171.178 176.439 171.178C175.031 171.178 173.91 170.344 173.91 168.895ZM175.086 168.949C175.086 169.729 175.742 170.125 176.645 170.125C177.971 170.125 178.709 169.236 178.709 168.307V167.555L176.836 167.691C175.77 167.76 175.086 168.143 175.086 168.949Z" fill="var(--sol-element-primary)"/>
<path d="M184.744 167.227C184.758 164.643 185.455 162.496 186.713 160.678H187.752C186.822 162.031 185.961 164.793 185.961 167.227C185.961 169.66 186.822 172.436 187.752 173.789H186.713C185.455 171.957 184.758 169.811 184.744 167.227ZM192.1 169.264V166.611H189.461V165.504H192.1V162.865H193.207V165.504H195.859V166.611H193.207V169.264H192.1ZM201.287 171.137C199.209 171.137 197.76 169.988 197.773 168.375C197.76 167.09 198.648 166.037 199.783 165.859V165.805C198.799 165.572 198.156 164.67 198.156 163.59C198.156 162.072 199.482 160.965 201.287 160.965C203.092 160.965 204.418 162.072 204.432 163.59C204.418 164.67 203.762 165.572 202.791 165.805V165.859C203.912 166.037 204.801 167.09 204.814 168.375C204.801 169.988 203.352 171.137 201.287 171.137ZM201.287 170.057C202.709 170.057 203.584 169.346 203.584 168.307C203.584 167.213 202.613 166.406 201.287 166.406C199.961 166.406 198.977 167.213 199.004 168.307C198.977 169.346 199.865 170.057 201.287 170.057ZM201.287 165.367C202.408 165.367 203.229 164.684 203.229 163.686C203.229 162.701 202.449 162.031 201.287 162.031C200.111 162.031 199.346 162.701 199.346 163.686C199.346 164.684 200.152 165.367 201.287 165.367ZM206.469 171L206.455 170.098L209.832 166.543C211.008 165.299 211.568 164.629 211.568 163.713C211.568 162.701 210.707 162.031 209.6 162.031C208.424 162.031 207.672 162.783 207.672 163.891H206.51C206.496 162.141 207.85 160.965 209.641 160.965C211.432 160.965 212.717 162.168 212.717 163.713C212.717 164.82 212.197 165.682 210.447 167.486L208.178 169.824V169.906H212.895V171H206.469ZM217.283 167.227C217.27 169.811 216.572 171.957 215.314 173.789H214.275C215.205 172.436 216.066 169.66 216.066 167.227C216.066 164.793 215.205 162.031 214.275 160.678H215.314C216.572 162.496 217.27 164.643 217.283 167.227Z" fill="var(--sol-element-tertiary)"/>
</g>
<g clip-path="url(#clip14_1670_193131)">
<g clip-path="url(#clip15_1670_193131)">
<rect width="20" height="15" transform="translate(103.5 194.5)" fill="var(--sol-surface)"/>
<path fill-rule="evenodd" clip-rule="evenodd" d="M103.5 194.5H123.5V209.5H103.5V194.5Z" fill="var(--color-red-500)"/>
<path d="M114.629 196.976C115.203 196.976 115.457 196.623 115.76 196.8C116.062 196.977 116.427 196.976 116.302 196.976C116.176 196.976 115.726 197.233 116.074 197.233C116.423 197.233 116.819 196.72 116.819 196.976C116.819 196.976 116.918 197.266 116.679 197.288C116.672 197.289 115.6 197.394 115.81 197.441C115.81 197.441 116.002 197.52 116.134 197.525C116.134 197.525 116.19 197.726 115.841 197.781C115.841 197.781 114.852 197.964 114.806 198.282C114.76 198.6 114.448 199.317 114.806 199.317C115.163 199.317 115.395 199.072 115.396 198.797C115.396 198.521 115.445 198.056 115.76 198.033C115.78 198.026 116.535 197.772 116.63 197.79C116.725 197.808 116.554 197.945 116.819 197.945C117.085 197.945 117.855 197.306 117.977 197.053C118.095 196.806 118.27 197.04 118.279 197.053C118.279 197.053 118.397 197.762 117.787 198.022C117.188 198.277 116.832 198.282 116.819 198.282C116.819 198.282 116.439 198.562 116.679 198.562C116.919 198.562 117.432 198.661 117.787 198.472C118.141 198.283 118.279 198.177 118.279 198.282C118.279 198.388 118.282 198.982 117.873 198.982H116.819C116.679 198.982 116.347 199.182 116.898 199.317C117.45 199.452 117.628 199.396 117.873 199.317C118.119 199.239 118.279 199.194 118.279 199.317C118.278 199.441 117.942 199.902 117.653 199.902C117.364 199.902 117.043 199.645 116.898 199.645C116.754 199.645 116.604 199.902 116.679 199.902C116.754 199.902 117.003 200.273 117.328 200.273C117.653 200.273 117.849 200.153 118.064 200.153C118.279 200.153 118.279 200.109 118.279 200.273C118.279 200.439 117.85 200.622 117.653 200.622C117.457 200.622 116.632 200.149 116.63 200.273C116.63 200.399 117.148 201.076 117.468 201.076H118.064C118.275 201.076 118.198 201.339 118.194 201.349C118.194 201.349 117.986 201.535 117.727 201.535C117.467 201.535 117.213 201.273 117.056 201.175C116.898 201.076 116.679 201 116.679 201.175C116.679 201.35 117.174 202.048 117.575 202.049C117.976 202.049 118.279 201.888 118.279 202.049C118.279 202.21 118.093 202.569 117.873 202.49C117.653 202.411 116.96 202.162 116.819 201.897C116.679 201.633 116.423 201.746 116.526 201.897C116.63 202.049 117.174 202.832 117.575 202.905C117.976 202.978 118.365 202.959 118.279 203.133C118.194 203.306 117.839 203.548 117.653 203.472C117.467 203.395 116.832 202.812 116.679 202.568C116.526 202.325 116.134 201.858 116.134 202.049C116.134 202.24 115.974 202.762 116.302 202.834C116.629 202.905 116.802 203.22 116.63 203.221C116.457 203.221 115.841 203.073 115.841 202.682C115.841 202.291 115.562 202.072 115.562 202.181C115.561 202.291 115.533 202.622 115.687 202.834C115.84 203.046 115.623 203.219 115.562 203.133C115.5 203.046 115.238 202.647 115.237 202.568C115.237 202.491 115.145 202.308 115.036 202.307C114.927 202.307 114.905 202.498 115.109 202.905C115.313 203.313 115.816 203.638 115.975 203.638C116.131 203.639 115.98 203.992 115.975 204.004L117.056 204.284C117.062 204.281 117.468 204.071 117.468 204.004C117.468 203.936 117.683 203.771 117.873 203.771C118.064 203.771 118.079 204.003 117.977 204.004C117.874 204.004 117.683 204.182 117.575 204.182C117.467 204.183 117.137 204.414 117.137 204.414H117.873C117.87 204.411 117.759 204.284 118.064 204.284C118.373 204.284 118.5 204.414 118.5 204.414C118.494 204.417 118.152 204.618 118.064 204.618C118.009 204.618 117.916 204.644 117.771 204.646C117.754 204.635 117.744 204.637 117.736 204.646C117.661 204.645 117.572 204.64 117.468 204.618C117.137 204.547 117.727 204.766 117.727 204.766C117.727 204.766 117.682 204.477 117.873 204.766C118.064 205.056 118.093 205.145 117.873 205.145C117.653 205.145 117.468 205.079 117.468 204.923C117.468 204.768 117.063 204.621 117.056 204.618L116.526 204.923C116.532 204.932 116.62 205.093 116.463 205.145C116.302 205.199 116.075 205.121 116.074 205.067C116.074 205.014 116.127 204.766 116.265 204.766C116.402 204.766 116.819 204.539 116.819 204.539L115.81 204.238C115.801 204.247 115.525 204.539 115.434 204.539C115.34 204.537 115.072 203.805 114.907 203.638C114.742 203.472 114.638 203.127 114.446 203.264C114.255 203.402 114.179 203.826 114.446 204.182C114.713 204.539 115.175 204.82 115.305 204.821C115.434 204.821 115.687 204.834 115.687 204.923C115.686 205.012 115.574 205.376 115.305 205.222C115.035 205.067 114.748 204.882 114.707 204.923C114.667 204.965 114.835 205.422 115.07 205.531C115.305 205.64 115.502 205.483 115.502 205.676C115.502 205.868 115.336 206.082 115.036 205.879C114.736 205.675 114.555 205.326 114.501 205.461C114.447 205.596 114.469 206.123 114.707 206.123C114.945 206.123 115.109 206.089 115.109 206.181C115.109 206.274 115.054 206.671 114.806 206.513C114.557 206.354 114.375 206.158 114.331 206.018C114.287 205.879 114.022 206.018 114.105 206.214C114.189 206.41 114.392 206.805 114.446 206.805C114.5 206.805 113.816 208 113.816 208L113.812 206.513L113.809 208C113.809 208 113.125 206.805 113.179 206.805C113.233 206.805 113.436 206.41 113.52 206.214C113.603 206.018 113.338 205.879 113.294 206.018C113.25 206.158 113.068 206.354 112.819 206.513C112.571 206.671 112.516 206.274 112.516 206.181C112.516 206.089 112.68 206.123 112.918 206.123C113.156 206.123 113.178 205.596 113.124 205.461C113.07 205.326 112.889 205.675 112.589 205.879C112.289 206.082 112.123 205.868 112.123 205.676C112.123 205.483 112.32 205.64 112.555 205.531C112.79 205.422 112.958 204.965 112.918 204.923C112.877 204.882 112.59 205.067 112.32 205.222C112.051 205.376 111.939 205.012 111.938 204.923C111.938 204.834 112.191 204.821 112.32 204.821C112.45 204.82 112.912 204.539 113.179 204.182C113.446 203.826 113.37 203.402 113.179 203.264C112.987 203.127 112.883 203.472 112.718 203.638C112.553 203.805 112.285 204.537 112.191 204.539C112.1 204.539 111.824 204.247 111.815 204.238L110.806 204.539C110.806 204.539 111.223 204.766 111.36 204.766C111.498 204.766 111.551 205.014 111.551 205.067C111.55 205.121 111.323 205.199 111.162 205.145C111.005 205.093 111.093 204.932 111.099 204.923L110.569 204.618C110.562 204.621 110.157 204.768 110.157 204.923C110.157 205.079 109.972 205.145 109.752 205.145C109.532 205.145 109.561 205.056 109.752 204.766C109.943 204.477 109.898 204.766 109.898 204.766C109.898 204.766 110.488 204.547 110.157 204.618C110.053 204.64 109.964 204.646 109.888 204.646C109.88 204.637 109.87 204.635 109.853 204.646C109.709 204.643 109.616 204.618 109.561 204.618C109.473 204.618 109.131 204.417 109.125 204.414C109.125 204.414 109.252 204.284 109.561 204.284C109.866 204.284 109.755 204.411 109.752 204.414H110.488C110.488 204.414 110.158 204.183 110.05 204.182C109.942 204.182 109.751 204.004 109.648 204.004C109.546 204.003 109.561 203.771 109.752 203.771C109.942 203.771 110.157 203.936 110.157 204.004C110.157 204.071 110.563 204.281 110.569 204.284L111.65 204.004C111.645 203.992 111.494 203.639 111.65 203.638C111.809 203.638 112.312 203.313 112.516 202.905C112.72 202.498 112.698 202.307 112.589 202.307C112.48 202.308 112.388 202.491 112.388 202.568C112.387 202.647 112.125 203.046 112.063 203.133C112.002 203.219 111.785 203.046 111.938 202.834C112.092 202.622 112.064 202.291 112.063 202.181C112.063 202.072 111.784 202.291 111.784 202.682C111.784 203.073 111.168 203.221 110.995 203.221C110.823 203.22 110.996 202.905 111.323 202.834C111.651 202.762 111.491 202.24 111.491 202.049C111.491 201.858 111.099 202.325 110.946 202.568C110.793 202.812 110.158 203.395 109.972 203.472C109.786 203.548 109.431 203.306 109.346 203.133C109.26 202.959 109.649 202.978 110.05 202.905C110.451 202.832 110.995 202.049 111.099 201.897C111.202 201.746 110.946 201.633 110.806 201.897C110.665 202.162 109.972 202.411 109.752 202.49C109.532 202.569 109.346 202.21 109.346 202.049C109.346 201.888 109.649 202.049 110.05 202.049C110.451 202.048 110.946 201.35 110.946 201.175C110.946 201 110.727 201.076 110.569 201.175C110.412 201.273 110.158 201.535 109.898 201.535C109.639 201.535 109.431 201.349 109.431 201.349C109.427 201.339 109.35 201.076 109.561 201.076H110.157C110.477 201.076 110.995 200.399 110.995 200.273C110.993 200.149 110.168 200.622 109.972 200.622C109.775 200.622 109.346 200.439 109.346 200.273C109.346 200.109 109.346 200.153 109.561 200.153C109.776 200.153 109.972 200.273 110.297 200.273C110.622 200.273 110.871 199.902 110.946 199.902C111.021 199.902 110.871 199.645 110.727 199.645C110.582 199.645 110.261 199.902 109.972 199.902C109.683 199.902 109.347 199.441 109.346 199.317C109.346 199.194 109.506 199.239 109.752 199.317C109.997 199.396 110.175 199.452 110.727 199.317C111.278 199.182 110.946 198.982 110.806 198.982H109.752C109.343 198.982 109.346 198.388 109.346 198.282C109.346 198.177 109.484 198.283 109.838 198.472C110.193 198.661 110.706 198.562 110.946 198.562C111.186 198.562 110.806 198.282 110.806 198.282C110.793 198.282 110.437 198.277 109.838 198.022C109.228 197.762 109.346 197.053 109.346 197.053C109.355 197.04 109.53 196.806 109.648 197.053C109.77 197.306 110.54 197.945 110.806 197.945C111.071 197.945 110.9 197.808 110.995 197.79C111.09 197.772 111.845 198.026 111.865 198.033C112.18 198.056 112.229 198.521 112.229 198.797C112.23 199.072 112.462 199.317 112.819 199.317C113.177 199.317 112.865 198.6 112.819 198.282C112.773 197.964 111.784 197.781 111.784 197.781C111.435 197.726 111.491 197.525 111.491 197.525C111.623 197.52 111.815 197.441 111.815 197.441C112.025 197.394 110.953 197.289 110.946 197.288C110.707 197.266 110.806 196.976 110.806 196.976C110.806 196.72 111.202 197.233 111.551 197.233C111.899 197.233 111.449 196.976 111.323 196.976C111.198 196.976 111.563 196.977 111.865 196.8C112.168 196.623 112.422 196.976 112.996 196.976C113.569 196.977 113.114 197.6 113.436 198.022C113.663 198.321 113.77 198.379 113.812 198.388C113.855 198.379 113.962 198.321 114.189 198.022C114.511 197.6 114.056 196.977 114.629 196.976Z" fill="var(--sol-element-primary)"/>
</g>
<path d="M133.031 207H131.746L135.369 197.102H136.668L140.291 207H138.992L138.008 204.211H134.029L133.031 207ZM134.398 203.131H137.625L136.053 198.701H135.971L134.398 203.131ZM142.656 197.102V207H141.48V197.102H142.656ZM144.68 207V197.102H145.855V200.752H145.951C146.211 200.355 146.648 199.48 148.098 199.48C149.957 199.48 151.27 200.957 151.27 203.309C151.27 205.66 149.957 207.15 148.111 207.15C146.689 207.15 146.211 206.275 145.951 205.865H145.814V207H144.68ZM145.828 203.281C145.828 204.949 146.58 206.098 147.934 206.098C149.342 206.098 150.08 204.867 150.08 203.281C150.08 201.736 149.369 200.533 147.934 200.533C146.566 200.533 145.828 201.641 145.828 203.281ZM152.445 204.895C152.445 203.186 153.949 202.803 155.234 202.707C155.706 202.673 156.909 202.611 157.244 202.598V201.996C157.244 201.053 156.684 200.506 155.562 200.506C154.619 200.506 154.059 200.943 153.895 201.504H152.664C152.814 200.314 153.977 199.48 155.617 199.48C156.588 199.48 158.406 199.768 158.406 202.105V207H157.244V205.988H157.189C156.943 206.494 156.26 207.178 154.975 207.178C153.566 207.178 152.445 206.344 152.445 204.895ZM153.621 204.949C153.621 205.729 154.277 206.125 155.18 206.125C156.506 206.125 157.244 205.236 157.244 204.307V203.555L155.371 203.691C154.305 203.76 153.621 204.143 153.621 204.949ZM161.469 202.543V207H160.293V199.576H161.428V200.738H161.523C161.879 199.986 162.562 199.48 163.697 199.48C165.201 199.48 166.199 200.396 166.199 202.283V207H165.023V202.365C165.023 201.217 164.395 200.533 163.342 200.533C162.262 200.533 161.469 201.258 161.469 202.543ZM168.086 207V199.576H169.262V207H168.086ZM168.674 198.346C168.223 198.346 167.854 198.004 167.854 197.566C167.854 197.129 168.223 196.787 168.674 196.787C169.125 196.787 169.508 197.129 169.508 197.566C169.508 198.004 169.125 198.346 168.674 198.346ZM170.779 204.895C170.779 203.186 172.283 202.803 173.568 202.707C174.04 202.673 175.243 202.611 175.578 202.598V201.996C175.578 201.053 175.018 200.506 173.896 200.506C172.953 200.506 172.393 200.943 172.229 201.504H170.998C171.148 200.314 172.311 199.48 173.951 199.48C174.922 199.48 176.74 199.768 176.74 202.105V207H175.578V205.988H175.523C175.277 206.494 174.594 207.178 173.309 207.178C171.9 207.178 170.779 206.344 170.779 204.895ZM171.955 204.949C171.955 205.729 172.611 206.125 173.514 206.125C174.84 206.125 175.578 205.236 175.578 204.307V203.555L173.705 203.691C172.639 203.76 171.955 204.143 171.955 204.949Z" fill="var(--sol-element-primary)"/>
<path d="M181.744 203.227C181.758 200.643 182.455 198.496 183.713 196.678H184.752C183.822 198.031 182.961 200.793 182.961 203.227C182.961 205.66 183.822 208.436 184.752 209.789H183.713C182.455 207.957 181.758 205.811 181.744 203.227ZM189.1 205.264V202.611H186.461V201.504H189.1V198.865H190.207V201.504H192.859V202.611H190.207V205.264H189.1ZM198.287 207.137C196.209 207.137 194.76 205.988 194.773 204.375C194.76 203.09 195.648 202.037 196.783 201.859V201.805C195.799 201.572 195.156 200.67 195.156 199.59C195.156 198.072 196.482 196.965 198.287 196.965C200.092 196.965 201.418 198.072 201.432 199.59C201.418 200.67 200.762 201.572 199.791 201.805V201.859C200.912 202.037 201.801 203.09 201.814 204.375C201.801 205.988 200.352 207.137 198.287 207.137ZM198.287 206.057C199.709 206.057 200.584 205.346 200.584 204.307C200.584 203.213 199.613 202.406 198.287 202.406C196.961 202.406 195.977 203.213 196.004 204.307C195.977 205.346 196.865 206.057 198.287 206.057ZM198.287 201.367C199.408 201.367 200.229 200.684 200.229 199.686C200.229 198.701 199.449 198.031 198.287 198.031C197.111 198.031 196.346 198.701 196.346 199.686C196.346 200.684 197.152 201.367 198.287 201.367ZM203.469 207L203.455 206.098L206.832 202.543C208.008 201.299 208.568 200.629 208.568 199.713C208.568 198.701 207.707 198.031 206.6 198.031C205.424 198.031 204.672 198.783 204.672 199.891H203.51C203.496 198.141 204.85 196.965 206.641 196.965C208.432 196.965 209.717 198.168 209.717 199.713C209.717 200.82 209.197 201.682 207.447 203.486L205.178 205.824V205.906H209.895V207H203.469ZM214.283 203.227C214.27 205.811 213.572 207.957 212.314 209.789H211.275C212.205 208.436 213.066 205.66 213.066 203.227C213.066 200.793 212.205 198.031 211.275 196.678H212.314C213.572 198.496 214.27 200.643 214.283 203.227Z" fill="var(--sol-element-tertiary)"/>
</g>
<g clip-path="url(#clip16_1670_193131)">
<g clip-path="url(#clip17_1670_193131)">
<rect width="20" height="15" transform="translate(103.5 230.5)" fill="var(--sol-surface)"/>
<path fill-rule="evenodd" clip-rule="evenodd" d="M103.5 230.5V245.5H123.5V230.5H103.5Z" fill="var(--sol-element-primary)"/>
<mask id="mask0_1670_193131" style="mask-type:luminance" maskUnits="userSpaceOnUse" x="103" y="230" width="21" height="16">
<path fill-rule="evenodd" clip-rule="evenodd" d="M103.5 230.5V245.5H123.5V230.5H103.5Z" fill="var(--sol-static-white)"/>
</mask>
<g mask="url(#mask0_1670_193131)">
<path fill-rule="evenodd" clip-rule="evenodd" d="M103.5 230.5V238H123.5V230.5H103.5Z" fill="var(--color-red-500)"/>
<g filter="url(#filter1_d_1670_193131)">
<path d="M110.643 233.017C112.851 233.017 115.309 234.806 115.309 237.014C115.309 237.948 114.987 238.815 114.45 239.504C115.435 239.995 116.268 240.38 116.268 240.38C116.577 240.583 116.663 241.123 116.461 241.432C116.258 241.741 115.843 241.827 115.534 241.624C115.516 241.614 114.738 241.153 114.263 240.841C114.041 240.696 113.785 240.541 113.513 240.38C112.881 240.804 112.125 241.054 111.312 241.054C111.312 241.054 108.377 240.694 108.461 239.189C108.474 239.199 109.191 239.733 111.262 239.733C111.594 239.733 111.886 239.685 112.142 239.604C111.248 239.116 110.488 238.727 110.471 238.718C110.162 238.516 109.358 237.49 109.559 237.18C109.762 236.871 110.988 237.22 111.297 237.422C111.303 237.43 111.731 238.015 112.333 238.373C112.6 238.532 112.903 238.698 113.217 238.866C113.7 238.268 113.854 237.496 113.854 237.014C113.854 234.456 110.681 233.033 110.643 233.017ZM112.003 235.842H112.629L112.167 236.326L112.398 237.004L111.737 236.626L111.106 237.047L111.307 236.326L110.845 235.866L111.471 235.842L111.737 235.129L112.003 235.842Z" fill="var(--color-yellow-400)"/>
<path d="M110.643 233.017C112.851 233.017 115.309 234.806 115.309 237.014C115.309 237.948 114.987 238.815 114.45 239.504C115.435 239.995 116.268 240.38 116.268 240.38C116.577 240.583 116.663 241.123 116.461 241.432C116.258 241.741 115.843 241.827 115.534 241.624C115.516 241.614 114.738 241.153 114.263 240.841C114.041 240.696 113.785 240.541 113.513 240.38C112.881 240.804 112.125 241.054 111.312 241.054C111.312 241.054 108.377 240.694 108.461 239.189C108.474 239.199 109.191 239.733 111.262 239.733C111.594 239.733 111.886 239.685 112.142 239.604C111.248 239.116 110.488 238.727 110.471 238.718C110.162 238.516 109.358 237.49 109.559 237.18C109.762 236.871 110.988 237.22 111.297 237.422C111.303 237.43 111.731 238.015 112.333 238.373C112.6 238.532 112.903 238.698 113.217 238.866C113.7 238.268 113.854 237.496 113.854 237.014C113.854 234.456 110.681 233.033 110.643 233.017ZM112.003 235.842H112.629L112.167 236.326L112.398 237.004L111.737 236.626L111.106 237.047L111.307 236.326L110.845 235.866L111.471 235.842L111.737 235.129L112.003 235.842Z" fill="var(--color-yellow-300)"/>
</g>
</g>
</g>
<path d="M133.031 243H131.746L135.369 233.102H136.668L140.291 243H138.992L138.008 240.211H134.029L133.031 243ZM134.398 239.131H137.625L136.053 234.701H135.971L134.398 239.131ZM142.656 238.543V243H141.48V235.576H142.615V236.738H142.711C143.066 235.986 143.75 235.48 144.885 235.48C146.389 235.48 147.387 236.396 147.387 238.283V243H146.211V238.365C146.211 237.217 145.582 236.533 144.529 236.533C143.449 236.533 142.656 237.258 142.656 238.543ZM152.281 245.939C150.49 245.939 149.273 245.16 149.137 243.779H150.367C150.531 244.531 151.229 244.914 152.281 244.914C153.553 244.914 154.332 244.367 154.332 243.137V241.633H154.236C153.99 242.043 153.512 242.891 152.076 242.891C150.271 242.891 148.918 241.523 148.918 239.186C148.918 236.902 150.23 235.48 152.09 235.48C153.525 235.48 153.99 236.355 154.264 236.752H154.359V235.576H155.508V243.205C155.508 245.119 154.086 245.939 152.281 245.939ZM152.24 241.838C153.594 241.838 154.359 240.867 154.359 239.227C154.359 237.641 153.621 236.533 152.24 236.533C150.818 236.533 150.107 237.736 150.107 239.227C150.107 240.771 150.832 241.838 152.24 241.838ZM160.416 243.15C158.393 243.15 157.025 241.633 157.025 239.322C157.025 237.012 158.393 235.48 160.416 235.48C162.426 235.48 163.779 237.012 163.779 239.322C163.779 241.633 162.426 243.15 160.416 243.15ZM160.416 242.111C161.906 242.111 162.604 240.799 162.604 239.322C162.604 237.846 161.906 236.52 160.416 236.52C158.898 236.52 158.201 237.846 158.201 239.322C158.201 240.799 158.898 242.111 160.416 242.111ZM166.5 233.102V243H165.324V233.102H166.5ZM168.018 240.895C168.018 239.186 169.521 238.803 170.807 238.707C171.278 238.673 172.481 238.611 172.816 238.598V237.996C172.816 237.053 172.256 236.506 171.135 236.506C170.191 236.506 169.631 236.943 169.467 237.504H168.236C168.387 236.314 169.549 235.48 171.189 235.48C172.16 235.48 173.979 235.768 173.979 238.105V243H172.816V241.988H172.762C172.516 242.494 171.832 243.178 170.547 243.178C169.139 243.178 168.018 242.344 168.018 240.895ZM169.193 240.949C169.193 241.729 169.85 242.125 170.752 242.125C172.078 242.125 172.816 241.236 172.816 240.307V239.555L170.943 239.691C169.877 239.76 169.193 240.143 169.193 240.949Z" fill="var(--sol-element-primary)"/>
<path d="M178.744 239.227C178.758 236.643 179.455 234.496 180.713 232.678H181.752C180.822 234.031 179.961 236.793 179.961 239.227C179.961 241.66 180.822 244.436 181.752 245.789H180.713C179.455 243.957 178.758 241.811 178.744 239.227ZM186.1 241.264V238.611H183.461V237.504H186.1V234.865H187.207V237.504H189.859V238.611H187.207V241.264H186.1ZM195.287 243.137C193.209 243.137 191.76 241.988 191.773 240.375C191.76 239.09 192.648 238.037 193.783 237.859V237.805C192.799 237.572 192.156 236.67 192.156 235.59C192.156 234.072 193.482 232.965 195.287 232.965C197.092 232.965 198.418 234.072 198.432 235.59C198.418 236.67 197.762 237.572 196.791 237.805V237.859C197.912 238.037 198.801 239.09 198.814 240.375C198.801 241.988 197.352 243.137 195.287 243.137ZM195.287 242.057C196.709 242.057 197.584 241.346 197.584 240.307C197.584 239.213 196.613 238.406 195.287 238.406C193.961 238.406 192.977 239.213 193.004 240.307C192.977 241.346 193.865 242.057 195.287 242.057ZM195.287 237.367C196.408 237.367 197.229 236.684 197.229 235.686C197.229 234.701 196.449 234.031 195.287 234.031C194.111 234.031 193.346 234.701 193.346 235.686C193.346 236.684 194.152 237.367 195.287 237.367ZM200.469 243L200.455 242.098L203.832 238.543C205.008 237.299 205.568 236.629 205.568 235.713C205.568 234.701 204.707 234.031 203.6 234.031C202.424 234.031 201.672 234.783 201.672 235.891H200.51C200.496 234.141 201.85 232.965 203.641 232.965C205.432 232.965 206.717 234.168 206.717 235.713C206.717 236.82 206.197 237.682 204.447 239.486L202.178 241.824V241.906H206.895V243H200.469ZM211.283 239.227C211.27 241.811 210.572 243.957 209.314 245.789H208.275C209.205 244.436 210.066 241.66 210.066 239.227C210.066 236.793 209.205 234.031 208.275 232.678H209.314C210.572 234.496 211.27 236.643 211.283 239.227Z" fill="var(--sol-element-tertiary)"/>
</g>
<g clip-path="url(#clip18_1670_193131)">
<g clip-path="url(#clip19_1670_193131)">
<rect width="20" height="15" transform="translate(103.5 266.5)" fill="var(--sol-surface)"/>
<path fill-rule="evenodd" clip-rule="evenodd" d="M103.5 266.5V281.5H123.5V266.5H103.5Z" fill="var(--color-indigo-400)"/>
<mask id="mask1_1670_193131" style="mask-type:luminance" maskUnits="userSpaceOnUse" x="103" y="266" width="21" height="16">
<path fill-rule="evenodd" clip-rule="evenodd" d="M103.5 266.5V281.5H123.5V266.5H103.5Z" fill="var(--sol-static-white)"/>
</mask>
<g mask="url(#mask1_1670_193131)">
<g filter="url(#filter2_d_1670_193131)">
<path fill-rule="evenodd" clip-rule="evenodd" d="M108.948 271.434C108.948 271.434 110.238 272.141 110.418 272.337C110.597 272.533 110.885 273.252 111.333 272.845C111.781 272.439 112.23 272.755 112.23 272.107C112.23 271.46 112.899 269.958 113.87 270.334C114.842 270.71 115.64 270.475 115.864 270.625C116.089 270.776 116.627 271.524 117.045 271.524C117.464 271.524 117.673 271.96 117.703 272.593C117.732 273.226 117.568 273.286 117.957 273.361C118.345 273.437 118.495 273.723 118.301 274.099C118.106 274.476 118.121 274.31 118.151 274.702C118.181 275.093 117.763 277.402 116.477 277.629C115.192 277.854 113.973 277.734 114.302 277.297C114.631 276.86 115.086 276.358 114.414 276.252C113.741 276.147 113.317 276.057 112.645 276.238C111.972 276.419 111.27 276.705 110.851 276.163C110.433 275.62 110.523 275.229 110.179 274.973C109.835 274.717 109.416 274.762 109.76 274.265C110.104 273.768 110.388 273.954 110.104 273.562C109.82 273.17 108.748 273 108.748 272.608C108.748 272.217 108.067 271.358 108.948 271.434Z" fill="var(--sol-surface)"/>
<path fill-rule="evenodd" clip-rule="evenodd" d="M108.948 271.434C108.948 271.434 110.238 272.141 110.418 272.337C110.597 272.533 110.885 273.252 111.333 272.845C111.781 272.439 112.23 272.755 112.23 272.107C112.23 271.46 112.899 269.958 113.87 270.334C114.842 270.71 115.64 270.475 115.864 270.625C116.089 270.776 116.627 271.524 117.045 271.524C117.464 271.524 117.673 271.96 117.703 272.593C117.732 273.226 117.568 273.286 117.957 273.361C118.345 273.437 118.495 273.723 118.301 274.099C118.106 274.476 118.121 274.31 118.151 274.702C118.181 275.093 117.763 277.402 116.477 277.629C115.192 277.854 113.973 277.734 114.302 277.297C114.631 276.86 115.086 276.358 114.414 276.252C113.741 276.147 113.317 276.057 112.645 276.238C111.972 276.419 111.27 276.705 110.851 276.163C110.433 275.62 110.523 275.229 110.179 274.973C109.835 274.717 109.416 274.762 109.76 274.265C110.104 273.768 110.388 273.954 110.104 273.562C109.82 273.17 108.748 273 108.748 272.608C108.748 272.217 108.067 271.358 108.948 271.434Z" fill="var(--sol-surface)"/>
</g>
</g>
</g>
<path d="M133.031 279H131.746L135.369 269.102H136.668L140.291 279H138.992L138.008 276.211H134.029L133.031 279ZM134.398 275.131H137.625L136.053 270.701H135.971L134.398 275.131ZM142.656 274.543V279H141.48V271.576H142.615V272.738H142.711C143.066 271.986 143.75 271.48 144.885 271.48C146.389 271.48 147.387 272.396 147.387 274.283V279H146.211V274.365C146.211 273.217 145.582 272.533 144.529 272.533C143.449 272.533 142.656 273.258 142.656 274.543ZM152.514 271.576V272.561H150.955V276.867C150.955 277.824 151.42 277.975 151.926 277.975C152.145 277.975 152.445 277.961 152.623 277.947V279.041C152.445 279.068 152.145 279.096 151.803 279.096C150.818 279.096 149.766 278.48 149.766 277.168V272.561H148.645V271.576H149.766V269.799H150.955V271.576H152.514ZM153.676 276.895C153.676 275.186 155.18 274.803 156.465 274.707C156.937 274.673 158.14 274.611 158.475 274.598V273.996C158.475 273.053 157.914 272.506 156.793 272.506C155.85 272.506 155.289 272.943 155.125 273.504H153.895C154.045 272.314 155.207 271.48 156.848 271.48C157.818 271.48 159.637 271.768 159.637 274.105V279H158.475V277.988H158.42C158.174 278.494 157.49 279.178 156.205 279.178C154.797 279.178 153.676 278.344 153.676 276.895ZM154.852 276.949C154.852 277.729 155.508 278.125 156.41 278.125C157.736 278.125 158.475 277.236 158.475 276.307V275.555L156.602 275.691C155.535 275.76 154.852 276.143 154.852 276.949ZM161.523 279V271.576H162.658V272.711H162.74C163.014 271.959 163.779 271.453 164.654 271.453C164.832 271.453 165.133 271.467 165.27 271.48V272.67C165.188 272.643 164.859 272.588 164.559 272.588C163.492 272.588 162.699 273.326 162.699 274.324V279H161.523ZM169.221 279.15C167.115 279.15 165.83 277.551 165.83 275.322C165.83 273.066 167.17 271.48 169.193 271.48C170.779 271.48 171.955 272.41 172.146 273.818H170.971C170.807 273.135 170.205 272.52 169.221 272.52C167.895 272.52 167.006 273.613 167.006 275.281C167.006 277.004 167.867 278.098 169.221 278.098C170.096 278.098 170.766 277.633 170.971 276.812H172.146C171.955 278.139 170.875 279.15 169.221 279.15ZM176.836 271.576V272.561H175.277V276.867C175.277 277.824 175.742 277.975 176.248 277.975C176.467 277.975 176.768 277.961 176.945 277.947V279.041C176.768 279.068 176.467 279.096 176.125 279.096C175.141 279.096 174.088 278.48 174.088 277.168V272.561H172.967V271.576H174.088V269.799H175.277V271.576H176.836ZM178.354 279V271.576H179.529V279H178.354ZM178.941 270.346C178.49 270.346 178.121 270.004 178.121 269.566C178.121 269.129 178.49 268.787 178.941 268.787C179.393 268.787 179.775 269.129 179.775 269.566C179.775 270.004 179.393 270.346 178.941 270.346ZM184.438 279.15C182.332 279.15 181.047 277.551 181.047 275.322C181.047 273.066 182.387 271.48 184.41 271.48C185.996 271.48 187.172 272.41 187.363 273.818H186.188C186.023 273.135 185.422 272.52 184.438 272.52C183.111 272.52 182.223 273.613 182.223 275.281C182.223 277.004 183.084 278.098 184.438 278.098C185.312 278.098 185.982 277.633 186.188 276.812H187.363C187.172 278.139 186.092 279.15 184.438 279.15ZM188.457 276.895C188.457 275.186 189.961 274.803 191.246 274.707C191.718 274.673 192.921 274.611 193.256 274.598V273.996C193.256 273.053 192.695 272.506 191.574 272.506C190.631 272.506 190.07 272.943 189.906 273.504H188.676C188.826 272.314 189.988 271.48 191.629 271.48C192.6 271.48 194.418 271.768 194.418 274.105V279H193.256V277.988H193.201C192.955 278.494 192.271 279.178 190.986 279.178C189.578 279.178 188.457 278.344 188.457 276.895ZM189.633 276.949C189.633 277.729 190.289 278.125 191.191 278.125C192.518 278.125 193.256 277.236 193.256 276.307V275.555L191.383 275.691C190.316 275.76 189.633 276.143 189.633 276.949Z" fill="var(--sol-element-primary)"/>
<path d="M198.744 275.227C198.758 272.643 199.455 270.496 200.713 268.678H201.752C200.822 270.031 199.961 272.793 199.961 275.227C199.961 277.66 200.822 280.436 201.752 281.789H200.713C199.455 279.957 198.758 277.811 198.744 275.227ZM206.1 277.264V274.611H203.461V273.504H206.1V270.865H207.207V273.504H209.859V274.611H207.207V277.264H206.1ZM215.287 279.137C213.209 279.137 211.76 277.988 211.773 276.375C211.76 275.09 212.648 274.037 213.783 273.859V273.805C212.799 273.572 212.156 272.67 212.156 271.59C212.156 270.072 213.482 268.965 215.287 268.965C217.092 268.965 218.418 270.072 218.432 271.59C218.418 272.67 217.762 273.572 216.791 273.805V273.859C217.912 274.037 218.801 275.09 218.814 276.375C218.801 277.988 217.352 279.137 215.287 279.137ZM215.287 278.057C216.709 278.057 217.584 277.346 217.584 276.307C217.584 275.213 216.613 274.406 215.287 274.406C213.961 274.406 212.977 275.213 213.004 276.307C212.977 277.346 213.865 278.057 215.287 278.057ZM215.287 273.367C216.408 273.367 217.229 272.684 217.229 271.686C217.229 270.701 216.449 270.031 215.287 270.031C214.111 270.031 213.346 270.701 213.346 271.686C213.346 272.684 214.152 273.367 215.287 273.367ZM220.469 279L220.455 278.098L223.832 274.543C225.008 273.299 225.568 272.629 225.568 271.713C225.568 270.701 224.707 270.031 223.6 270.031C222.424 270.031 221.672 270.783 221.672 271.891H220.51C220.496 270.141 221.85 268.965 223.641 268.965C225.432 268.965 226.717 270.168 226.717 271.713C226.717 272.82 226.197 273.682 224.447 275.486L222.178 277.824V277.906H226.895V279H220.469ZM231.283 275.227C231.27 277.811 230.572 279.957 229.314 281.789H228.275C229.205 280.436 230.066 277.66 230.066 275.227C230.066 272.793 229.205 270.031 228.275 268.678H229.314C230.572 270.496 231.27 272.643 231.283 275.227Z" fill="var(--sol-element-tertiary)"/>
</g>
</g>
<g clip-path="url(#clip20_1670_193131)">
<rect x="343.5" y="4.08789" width="4" height="156" fill="var(--sol-border-solid-variant)"/>
</g>
</g>
</g>
</g>
<defs>
<filter id="filter0_dd_1670_193131" x="83.5" y="-4" width="276" height="336" filterUnits="userSpaceOnUse" color-interpolation-filters="sRGB">
<feFlood flood-opacity="0" result="BackgroundImageFix"/>
<feColorMatrix in="SourceAlpha" type="matrix" values="0 0 0 0 0 0 0 0 0 0 0 0 0 0 0 0 0 0 127 0" result="hardAlpha"/>
<feOffset dy="4"/>
<feGaussianBlur stdDeviation="4"/>
<feComposite in2="hardAlpha" operator="out"/>
<feColorMatrix type="matrix" values="0 0 0 0 0 0 0 0 0 0 0 0 0 0 0 0 0 0 0.08 0"/>
<feBlend mode="normal" in2="BackgroundImageFix" result="effect1_dropShadow_1670_193131"/>
<feColorMatrix in="SourceAlpha" type="matrix" values="0 0 0 0 0 0 0 0 0 0 0 0 0 0 0 0 0 0 127 0" result="hardAlpha"/>
<feOffset/>
<feGaussianBlur stdDeviation="0.5"/>
<feComposite in2="hardAlpha" operator="out"/>
<feColorMatrix type="matrix" values="0 0 0 0 0 0 0 0 0 0 0 0 0 0 0 0 0 0 0.08 0"/>
<feBlend mode="normal" in2="effect1_dropShadow_1670_193131" result="effect2_dropShadow_1670_193131"/>
<feBlend mode="normal" in="SourceGraphic" in2="effect2_dropShadow_1670_193131" result="shape"/>
</filter>
<filter id="filter1_d_1670_193131" x="108.459" y="233.017" width="8.11133" height="8.71692" filterUnits="userSpaceOnUse" color-interpolation-filters="sRGB">
<feFlood flood-opacity="0" result="BackgroundImageFix"/>
<feColorMatrix in="SourceAlpha" type="matrix" values="0 0 0 0 0 0 0 0 0 0 0 0 0 0 0 0 0 0 127 0" result="hardAlpha"/>
<feOffset/>
<feColorMatrix type="matrix" values="0 0 0 0 0 0 0 0 0 0 0 0 0 0 0 0 0 0 0.2 0"/>
<feBlend mode="normal" in2="BackgroundImageFix" result="effect1_dropShadow_1670_193131"/>
<feBlend mode="normal" in="SourceGraphic" in2="effect1_dropShadow_1670_193131" result="shape"/>
</filter>
<filter id="filter2_d_1670_193131" x="107.497" y="269.274" width="11.8887" height="9.46585" filterUnits="userSpaceOnUse" color-interpolation-filters="sRGB">
<feFlood flood-opacity="0" result="BackgroundImageFix"/>
<feColorMatrix in="SourceAlpha" type="matrix" values="0 0 0 0 0 0 0 0 0 0 0 0 0 0 0 0 0 0 127 0" result="hardAlpha"/>
<feOffset/>
<feGaussianBlur stdDeviation="0.5"/>
<feColorMatrix type="matrix" values="0 0 0 0 0.0941176 0 0 0 0 0.32549 0 0 0 0 0.639216 0 0 0 0.43 0"/>
<feBlend mode="normal" in2="BackgroundImageFix" result="effect1_dropShadow_1670_193131"/>
<feBlend mode="normal" in="SourceGraphic" in2="effect1_dropShadow_1670_193131" result="shape"/>
</filter>
<clipPath id="clip0_1670_193131">
<path d="M0 8.00001C0 3.58173 3.58172 0 8 0H434C438.418 0 442 3.58172 442 8V276C442 280.418 438.418 284 434 284H8C3.58172 284 0 280.418 0 276V8.00001Z" fill="var(--sol-surface)"/>
</clipPath>
<clipPath id="clip1_1670_193131">
<path d="M91.5 4C91.5 1.79086 93.2909 0 95.5 0H347.5C349.709 0 351.5 1.79086 351.5 4V316C351.5 318.209 349.709 320 347.5 320H95.5C93.2909 320 91.5 318.209 91.5 316V4Z" fill="var(--sol-surface)"/>
</clipPath>
<clipPath id="clip2_1670_193131">
<rect width="252" height="384" fill="var(--sol-surface)" transform="translate(95.5 4)"/>
</clipPath>
<clipPath id="clip3_1670_193131">
<path d="M95.5 6C95.5 4.89543 96.3954 4 97.5 4H345.5C346.605 4 347.5 4.89543 347.5 6V38C347.5 39.1046 346.605 40 345.5 40H97.5C96.3954 40 95.5 39.1046 95.5 38V6Z" fill="var(--sol-surface)"/>
</clipPath>
<clipPath id="clip4_1670_193131">
<rect width="20" height="15" fill="var(--sol-surface)" transform="translate(103.5 14.5)"/>
</clipPath>
<clipPath id="clip5_1670_193131">
<path d="M95.5 42C95.5 40.8954 96.3954 40 97.5 40H345.5C346.605 40 347.5 40.8954 347.5 42V74C347.5 75.1046 346.605 76 345.5 76H97.5C96.3954 76 95.5 75.1046 95.5 74V42Z" fill="var(--sol-surface)"/>
</clipPath>
<clipPath id="clip6_1670_193131">
<rect width="20" height="15" fill="var(--sol-surface)" transform="translate(103.5 50.5)"/>
</clipPath>
<clipPath id="clip7_1670_193131">
<path d="M95.5 78C95.5 76.8954 96.3954 76 97.5 76H345.5C346.605 76 347.5 76.8954 347.5 78V110C347.5 111.105 346.605 112 345.5 112H97.5C96.3954 112 95.5 111.105 95.5 110V78Z" fill="var(--sol-surface)"/>
</clipPath>
<clipPath id="clip8_1670_193131">
<rect width="20" height="15" fill="var(--sol-surface)" transform="translate(103.5 86.5)"/>
</clipPath>
<clipPath id="clip9_1670_193131">
<path d="M95.5 114C95.5 112.895 96.3954 112 97.5 112H345.5C346.605 112 347.5 112.895 347.5 114V146C347.5 147.105 346.605 148 345.5 148H97.5C96.3954 148 95.5 147.105 95.5 146V114Z" fill="var(--sol-surface)"/>
</clipPath>
<clipPath id="clip10_1670_193131">
<rect width="20" height="15" fill="var(--sol-surface)" transform="translate(103.5 122.5)"/>
</clipPath>
<clipPath id="clip11_1670_193131">
<path d="M95.5 150C95.5 148.895 96.3954 148 97.5 148H345.5C346.605 148 347.5 148.895 347.5 150V182C347.5 183.105 346.605 184 345.5 184H97.5C96.3954 184 95.5 183.105 95.5 182V150Z" fill="var(--sol-surface)"/>
</clipPath>
<clipPath id="clip12_1670_193131">
<rect width="20" height="15" fill="var(--sol-surface)" transform="translate(103.5 158.5)"/>
</clipPath>
<clipPath id="clip13_1670_193131">
<rect width="11" height="9" fill="var(--sol-surface)" transform="translate(103.5 158.5)"/>
</clipPath>
<clipPath id="clip14_1670_193131">
<path d="M95.5 186C95.5 184.895 96.3954 184 97.5 184H345.5C346.605 184 347.5 184.895 347.5 186V218C347.5 219.105 346.605 220 345.5 220H97.5C96.3954 220 95.5 219.105 95.5 218V186Z" fill="var(--sol-surface)"/>
</clipPath>
<clipPath id="clip15_1670_193131">
<rect width="20" height="15" fill="var(--sol-surface)" transform="translate(103.5 194.5)"/>
</clipPath>
<clipPath id="clip16_1670_193131">
<path d="M95.5 222C95.5 220.895 96.3954 220 97.5 220H345.5C346.605 220 347.5 220.895 347.5 222V254C347.5 255.105 346.605 256 345.5 256H97.5C96.3954 256 95.5 255.105 95.5 254V222Z" fill="var(--sol-surface)"/>
</clipPath>
<clipPath id="clip17_1670_193131">
<rect width="20" height="15" fill="var(--sol-surface)" transform="translate(103.5 230.5)"/>
</clipPath>
<clipPath id="clip18_1670_193131">
<path d="M95.5 258C95.5 256.895 96.3954 256 97.5 256H345.5C346.605 256 347.5 256.895 347.5 258V290C347.5 291.105 346.605 292 345.5 292H97.5C96.3954 292 95.5 291.105 95.5 290V258Z" fill="var(--sol-surface)"/>
</clipPath>
<clipPath id="clip19_1670_193131">
<rect width="20" height="15" fill="var(--sol-surface)" transform="translate(103.5 266.5)"/>
</clipPath>
<clipPath id="clip20_1670_193131">
<path d="M343.5 6.08789C343.5 4.98332 344.395 4.08789 345.5 4.08789V4.08789C346.605 4.08789 347.5 4.98332 347.5 6.08789V158.088C347.5 159.192 346.605 160.088 345.5 160.088V160.088C344.395 160.088 343.5 159.192 343.5 158.088V6.08789Z" fill="var(--sol-surface)"/>
</clipPath>
</defs>
</svg>
