<svg width="900" height="372" viewBox="0 0 900 372" fill="none" xmlns="http://www.w3.org/2000/svg">
<style>
:root {
  --sol-primary: #282363;
  --sol-element-primary: #161616;
  --sol-element-tertiary: #636363;
  --sol-element-quaternary: #858585;
  --sol-fill-active: #4d469a;
  --sol-secondary-container: #e8e6f8;
  --sol-surface: #ffffff;
  --sol-border-solid-variant: #e0e0e0;
  --sol-border-normal-variant: rgba(0, 0, 0, 0.08);
  --sol-error: #e76067;
  --sol-error-dim: #b84451;
  --sol-static-white: #ffffff;
  --sol-static-black: #000000;
  --color-indigo-700: #142e96;
  --color-orange-700: #833606;
  --color-yellow-600: #a88900;
  --color-yellow-500: #d4ae00;
  --color-yellow-400: #ecc824;
  --color-green-500: #35a142;
  --color-red-500: #e76067;
}
@media (prefers-color-scheme: dark) {
  :root {
    --sol-primary: #9791d4;
    --sol-element-primary: #ffffff;
    --sol-element-tertiary: rgba(255, 255, 255, 0.60);
    --sol-element-quaternary: rgba(255, 255, 255, 0.50);
    --sol-fill-active: #7b74c4;
    --sol-secondary-container: rgba(255, 255, 255, 0.16);
    --sol-surface: #161616;
    --sol-border-solid-variant: #3d3d3d;
    --sol-border-normal-variant: rgba(255, 255, 255, 0.08);
    --sol-error: #ee7a80;
    --sol-error-dim: #e76067;
  }
}
</style>

<rect x="356" y="48" width="188" height="32" fill="var(--sol-element-primary)" fill-opacity="0.04"/>
<rect x="356.5" y="48.5" width="187" height="31" stroke="var(--sol-element-primary)" stroke-opacity="0.16"/>
<g filter="url(#filter0_dd_1670_181516)">
<g clip-path="url(#clip0_1670_181516)">
<path d="M356 88C356 85.7909 357.791 84 360 84H540C542.209 84 544 85.7909 544 88V320C544 322.209 542.209 324 540 324H360C357.791 324 356 322.209 356 320V88Z" fill="var(--sol-surface)"/>
<g clip-path="url(#clip1_1670_181516)">
<g clip-path="url(#clip2_1670_181516)">
<path d="M372.17 108H369.094V98.1016H372.293C375.178 98.1016 376.887 99.9609 376.887 103.037C376.887 106.127 375.178 108 372.17 108ZM370.324 106.906H372.088C374.521 106.906 375.684 105.443 375.684 103.037C375.684 100.645 374.521 99.1953 372.211 99.1953H370.324V106.906ZM378.541 108V100.576H379.676V101.711H379.758C380.031 100.959 380.797 100.453 381.672 100.453C381.85 100.453 382.15 100.467 382.287 100.48V101.67C382.205 101.643 381.877 101.588 381.576 101.588C380.51 101.588 379.717 102.326 379.717 103.324V108H378.541ZM386.238 108.15C384.215 108.15 382.848 106.633 382.848 104.322C382.848 102.012 384.215 100.48 386.238 100.48C388.248 100.48 389.602 102.012 389.602 104.322C389.602 106.633 388.248 108.15 386.238 108.15ZM386.238 107.111C387.729 107.111 388.426 105.799 388.426 104.322C388.426 102.846 387.729 101.52 386.238 101.52C384.721 101.52 384.023 102.846 384.023 104.322C384.023 105.799 384.721 107.111 386.238 107.111ZM391.146 110.789V100.576H392.281V101.752H392.418C392.664 101.355 393.129 100.48 394.564 100.48C396.424 100.48 397.723 101.957 397.723 104.309C397.723 106.66 396.424 108.15 394.578 108.15C393.156 108.15 392.664 107.275 392.418 106.865H392.322V110.789H391.146ZM392.295 104.281C392.295 105.949 393.047 107.098 394.414 107.098C395.822 107.098 396.547 105.867 396.547 104.281C396.547 102.736 395.836 101.533 394.414 101.533C393.02 101.533 392.295 102.641 392.295 104.281ZM402.057 108.15C400.211 108.15 398.898 106.66 398.898 104.309C398.898 101.957 400.211 100.48 402.07 100.48C403.506 100.48 403.971 101.355 404.217 101.752H404.299V98.1016H405.488V108H404.34V106.865H404.217C403.957 107.275 403.479 108.15 402.057 108.15ZM402.221 107.098C403.574 107.098 404.34 105.949 404.34 104.281C404.34 102.641 403.602 101.533 402.221 101.533C400.799 101.533 400.088 102.736 400.088 104.281C400.088 105.867 400.812 107.098 402.221 107.098ZM410.561 108.15C408.537 108.15 407.17 106.633 407.17 104.322C407.17 102.012 408.537 100.48 410.561 100.48C412.57 100.48 413.924 102.012 413.924 104.322C413.924 106.633 412.57 108.15 410.561 108.15ZM410.561 107.111C412.051 107.111 412.748 105.799 412.748 104.322C412.748 102.846 412.051 101.52 410.561 101.52C409.043 101.52 408.346 102.846 408.346 104.322C408.346 105.799 409.043 107.111 410.561 107.111ZM416.891 108L414.635 100.576H415.879L417.465 106.236H417.533L419.105 100.576H420.363L421.908 106.209H421.99L423.576 100.576H424.807L422.551 108H421.389L419.775 102.34H419.666L418.066 108H416.891ZM427.281 103.543V108H426.105V100.576H427.24V101.738H427.336C427.691 100.986 428.375 100.48 429.51 100.48C431.014 100.48 432.012 101.396 432.012 103.283V108H430.836V103.365C430.836 102.217 430.207 101.533 429.154 101.533C428.074 101.533 427.281 102.258 427.281 103.543ZM438.793 98.1016V108H437.562V98.1016H438.793ZM444.07 100.576V101.561H442.512V105.867C442.512 106.824 442.977 106.975 443.482 106.975C443.701 106.975 444.002 106.961 444.18 106.947V108.041C444.002 108.068 443.701 108.096 443.359 108.096C442.375 108.096 441.322 107.48 441.322 106.168V101.561H440.201V100.576H441.322V98.7988H442.512V100.576H444.07ZM448.637 108.15C446.49 108.15 445.164 106.633 445.164 104.35C445.164 102.066 446.504 100.48 448.527 100.48C450.086 100.48 451.727 101.438 451.727 104.186V104.678H446.34C446.395 106.25 447.311 107.111 448.637 107.111C449.525 107.111 450.086 106.729 450.359 106.264H451.617C451.262 107.385 450.168 108.15 448.637 108.15ZM446.354 103.68H450.537C450.537 102.436 449.744 101.52 448.527 101.52C447.242 101.52 446.422 102.531 446.354 103.68ZM453.258 108V100.576H454.393V101.738H454.488C454.803 100.945 455.514 100.48 456.484 100.48C457.455 100.48 458.111 100.945 458.467 101.738H458.549C458.932 100.973 459.711 100.48 460.777 100.48C462.104 100.48 463.047 101.287 463.047 103.037V108H461.871V103.051C461.871 101.957 461.174 101.533 460.367 101.533C459.328 101.533 458.74 102.23 458.74 103.174V108H457.551V102.928C457.551 102.094 456.949 101.533 456.102 101.533C455.213 101.533 454.434 102.285 454.434 103.365V108H453.258Z" fill="var(--sol-element-primary)"/>
</g>
<g clip-path="url(#clip3_1670_181516)">
<path d="M372.17 138H369.094V128.102H372.293C375.178 128.102 376.887 129.961 376.887 133.037C376.887 136.127 375.178 138 372.17 138ZM370.324 136.906H372.088C374.521 136.906 375.684 135.443 375.684 133.037C375.684 130.645 374.521 129.195 372.211 129.195H370.324V136.906ZM378.541 138V130.576H379.676V131.711H379.758C380.031 130.959 380.797 130.453 381.672 130.453C381.85 130.453 382.15 130.467 382.287 130.48V131.67C382.205 131.643 381.877 131.588 381.576 131.588C380.51 131.588 379.717 132.326 379.717 133.324V138H378.541ZM386.238 138.15C384.215 138.15 382.848 136.633 382.848 134.322C382.848 132.012 384.215 130.48 386.238 130.48C388.248 130.48 389.602 132.012 389.602 134.322C389.602 136.633 388.248 138.15 386.238 138.15ZM386.238 137.111C387.729 137.111 388.426 135.799 388.426 134.322C388.426 132.846 387.729 131.52 386.238 131.52C384.721 131.52 384.023 132.846 384.023 134.322C384.023 135.799 384.721 137.111 386.238 137.111ZM391.146 140.789V130.576H392.281V131.752H392.418C392.664 131.355 393.129 130.48 394.564 130.48C396.424 130.48 397.723 131.957 397.723 134.309C397.723 136.66 396.424 138.15 394.578 138.15C393.156 138.15 392.664 137.275 392.418 136.865H392.322V140.789H391.146ZM392.295 134.281C392.295 135.949 393.047 137.098 394.414 137.098C395.822 137.098 396.547 135.867 396.547 134.281C396.547 132.736 395.836 131.533 394.414 131.533C393.02 131.533 392.295 132.641 392.295 134.281ZM402.057 138.15C400.211 138.15 398.898 136.66 398.898 134.309C398.898 131.957 400.211 130.48 402.07 130.48C403.506 130.48 403.971 131.355 404.217 131.752H404.299V128.102H405.488V138H404.34V136.865H404.217C403.957 137.275 403.479 138.15 402.057 138.15ZM402.221 137.098C403.574 137.098 404.34 135.949 404.34 134.281C404.34 132.641 403.602 131.533 402.221 131.533C400.799 131.533 400.088 132.736 400.088 134.281C400.088 135.867 400.812 137.098 402.221 137.098ZM410.561 138.15C408.537 138.15 407.17 136.633 407.17 134.322C407.17 132.012 408.537 130.48 410.561 130.48C412.57 130.48 413.924 132.012 413.924 134.322C413.924 136.633 412.57 138.15 410.561 138.15ZM410.561 137.111C412.051 137.111 412.748 135.799 412.748 134.322C412.748 132.846 412.051 131.52 410.561 131.52C409.043 131.52 408.346 132.846 408.346 134.322C408.346 135.799 409.043 137.111 410.561 137.111ZM416.891 138L414.635 130.576H415.879L417.465 136.236H417.533L419.105 130.576H420.363L421.908 136.209H421.99L423.576 130.576H424.807L422.551 138H421.389L419.775 132.34H419.666L418.066 138H416.891ZM427.281 133.543V138H426.105V130.576H427.24V131.738H427.336C427.691 130.986 428.375 130.48 429.51 130.48C431.014 130.48 432.012 131.396 432.012 133.283V138H430.836V133.365C430.836 132.217 430.207 131.533 429.154 131.533C428.074 131.533 427.281 132.258 427.281 133.543ZM438.793 128.102V138H437.562V128.102H438.793ZM444.07 130.576V131.561H442.512V135.867C442.512 136.824 442.977 136.975 443.482 136.975C443.701 136.975 444.002 136.961 444.18 136.947V138.041C444.002 138.068 443.701 138.096 443.359 138.096C442.375 138.096 441.322 137.48 441.322 136.168V131.561H440.201V130.576H441.322V128.799H442.512V130.576H444.07ZM448.637 138.15C446.49 138.15 445.164 136.633 445.164 134.35C445.164 132.066 446.504 130.48 448.527 130.48C450.086 130.48 451.727 131.438 451.727 134.186V134.678H446.34C446.395 136.25 447.311 137.111 448.637 137.111C449.525 137.111 450.086 136.729 450.359 136.264H451.617C451.262 137.385 450.168 138.15 448.637 138.15ZM446.354 133.68H450.537C450.537 132.436 449.744 131.52 448.527 131.52C447.242 131.52 446.422 132.531 446.354 133.68ZM453.258 138V130.576H454.393V131.738H454.488C454.803 130.945 455.514 130.48 456.484 130.48C457.455 130.48 458.111 130.945 458.467 131.738H458.549C458.932 130.973 459.711 130.48 460.777 130.48C462.104 130.48 463.047 131.287 463.047 133.037V138H461.871V133.051C461.871 131.957 461.174 131.533 460.367 131.533C459.328 131.533 458.74 132.23 458.74 133.174V138H457.551V132.928C457.551 132.094 456.949 131.533 456.102 131.533C455.213 131.533 454.434 132.285 454.434 133.365V138H453.258Z" fill="var(--sol-element-primary)"/>
</g>
<g clip-path="url(#clip4_1670_181516)">
<path d="M372.17 168H369.094V158.102H372.293C375.178 158.102 376.887 159.961 376.887 163.037C376.887 166.127 375.178 168 372.17 168ZM370.324 166.906H372.088C374.521 166.906 375.684 165.443 375.684 163.037C375.684 160.645 374.521 159.195 372.211 159.195H370.324V166.906ZM378.541 168V160.576H379.676V161.711H379.758C380.031 160.959 380.797 160.453 381.672 160.453C381.85 160.453 382.15 160.467 382.287 160.48V161.67C382.205 161.643 381.877 161.588 381.576 161.588C380.51 161.588 379.717 162.326 379.717 163.324V168H378.541ZM386.238 168.15C384.215 168.15 382.848 166.633 382.848 164.322C382.848 162.012 384.215 160.48 386.238 160.48C388.248 160.48 389.602 162.012 389.602 164.322C389.602 166.633 388.248 168.15 386.238 168.15ZM386.238 167.111C387.729 167.111 388.426 165.799 388.426 164.322C388.426 162.846 387.729 161.52 386.238 161.52C384.721 161.52 384.023 162.846 384.023 164.322C384.023 165.799 384.721 167.111 386.238 167.111ZM391.146 170.789V160.576H392.281V161.752H392.418C392.664 161.355 393.129 160.48 394.564 160.48C396.424 160.48 397.723 161.957 397.723 164.309C397.723 166.66 396.424 168.15 394.578 168.15C393.156 168.15 392.664 167.275 392.418 166.865H392.322V170.789H391.146ZM392.295 164.281C392.295 165.949 393.047 167.098 394.414 167.098C395.822 167.098 396.547 165.867 396.547 164.281C396.547 162.736 395.836 161.533 394.414 161.533C393.02 161.533 392.295 162.641 392.295 164.281ZM402.057 168.15C400.211 168.15 398.898 166.66 398.898 164.309C398.898 161.957 400.211 160.48 402.07 160.48C403.506 160.48 403.971 161.355 404.217 161.752H404.299V158.102H405.488V168H404.34V166.865H404.217C403.957 167.275 403.479 168.15 402.057 168.15ZM402.221 167.098C403.574 167.098 404.34 165.949 404.34 164.281C404.34 162.641 403.602 161.533 402.221 161.533C400.799 161.533 400.088 162.736 400.088 164.281C400.088 165.867 400.812 167.098 402.221 167.098ZM410.561 168.15C408.537 168.15 407.17 166.633 407.17 164.322C407.17 162.012 408.537 160.48 410.561 160.48C412.57 160.48 413.924 162.012 413.924 164.322C413.924 166.633 412.57 168.15 410.561 168.15ZM410.561 167.111C412.051 167.111 412.748 165.799 412.748 164.322C412.748 162.846 412.051 161.52 410.561 161.52C409.043 161.52 408.346 162.846 408.346 164.322C408.346 165.799 409.043 167.111 410.561 167.111ZM416.891 168L414.635 160.576H415.879L417.465 166.236H417.533L419.105 160.576H420.363L421.908 166.209H421.99L423.576 160.576H424.807L422.551 168H421.389L419.775 162.34H419.666L418.066 168H416.891ZM427.281 163.543V168H426.105V160.576H427.24V161.738H427.336C427.691 160.986 428.375 160.48 429.51 160.48C431.014 160.48 432.012 161.396 432.012 163.283V168H430.836V163.365C430.836 162.217 430.207 161.533 429.154 161.533C428.074 161.533 427.281 162.258 427.281 163.543ZM438.793 158.102V168H437.562V158.102H438.793ZM444.07 160.576V161.561H442.512V165.867C442.512 166.824 442.977 166.975 443.482 166.975C443.701 166.975 444.002 166.961 444.18 166.947V168.041C444.002 168.068 443.701 168.096 443.359 168.096C442.375 168.096 441.322 167.48 441.322 166.168V161.561H440.201V160.576H441.322V158.799H442.512V160.576H444.07ZM448.637 168.15C446.49 168.15 445.164 166.633 445.164 164.35C445.164 162.066 446.504 160.48 448.527 160.48C450.086 160.48 451.727 161.438 451.727 164.186V164.678H446.34C446.395 166.25 447.311 167.111 448.637 167.111C449.525 167.111 450.086 166.729 450.359 166.264H451.617C451.262 167.385 450.168 168.15 448.637 168.15ZM446.354 163.68H450.537C450.537 162.436 449.744 161.52 448.527 161.52C447.242 161.52 446.422 162.531 446.354 163.68ZM453.258 168V160.576H454.393V161.738H454.488C454.803 160.945 455.514 160.48 456.484 160.48C457.455 160.48 458.111 160.945 458.467 161.738H458.549C458.932 160.973 459.711 160.48 460.777 160.48C462.104 160.48 463.047 161.287 463.047 163.037V168H461.871V163.051C461.871 161.957 461.174 161.533 460.367 161.533C459.328 161.533 458.74 162.23 458.74 163.174V168H457.551V162.928C457.551 162.094 456.949 161.533 456.102 161.533C455.213 161.533 454.434 162.285 454.434 163.365V168H453.258Z" fill="var(--sol-element-primary)"/>
</g>
<g clip-path="url(#clip5_1670_181516)">
<path d="M372.17 198H369.094V188.102H372.293C375.178 188.102 376.887 189.961 376.887 193.037C376.887 196.127 375.178 198 372.17 198ZM370.324 196.906H372.088C374.521 196.906 375.684 195.443 375.684 193.037C375.684 190.645 374.521 189.195 372.211 189.195H370.324V196.906ZM378.541 198V190.576H379.676V191.711H379.758C380.031 190.959 380.797 190.453 381.672 190.453C381.85 190.453 382.15 190.467 382.287 190.48V191.67C382.205 191.643 381.877 191.588 381.576 191.588C380.51 191.588 379.717 192.326 379.717 193.324V198H378.541ZM386.238 198.15C384.215 198.15 382.848 196.633 382.848 194.322C382.848 192.012 384.215 190.48 386.238 190.48C388.248 190.48 389.602 192.012 389.602 194.322C389.602 196.633 388.248 198.15 386.238 198.15ZM386.238 197.111C387.729 197.111 388.426 195.799 388.426 194.322C388.426 192.846 387.729 191.52 386.238 191.52C384.721 191.52 384.023 192.846 384.023 194.322C384.023 195.799 384.721 197.111 386.238 197.111ZM391.146 200.789V190.576H392.281V191.752H392.418C392.664 191.355 393.129 190.48 394.564 190.48C396.424 190.48 397.723 191.957 397.723 194.309C397.723 196.66 396.424 198.15 394.578 198.15C393.156 198.15 392.664 197.275 392.418 196.865H392.322V200.789H391.146ZM392.295 194.281C392.295 195.949 393.047 197.098 394.414 197.098C395.822 197.098 396.547 195.867 396.547 194.281C396.547 192.736 395.836 191.533 394.414 191.533C393.02 191.533 392.295 192.641 392.295 194.281ZM402.057 198.15C400.211 198.15 398.898 196.66 398.898 194.309C398.898 191.957 400.211 190.48 402.07 190.48C403.506 190.48 403.971 191.355 404.217 191.752H404.299V188.102H405.488V198H404.34V196.865H404.217C403.957 197.275 403.479 198.15 402.057 198.15ZM402.221 197.098C403.574 197.098 404.34 195.949 404.34 194.281C404.34 192.641 403.602 191.533 402.221 191.533C400.799 191.533 400.088 192.736 400.088 194.281C400.088 195.867 400.812 197.098 402.221 197.098ZM410.561 198.15C408.537 198.15 407.17 196.633 407.17 194.322C407.17 192.012 408.537 190.48 410.561 190.48C412.57 190.48 413.924 192.012 413.924 194.322C413.924 196.633 412.57 198.15 410.561 198.15ZM410.561 197.111C412.051 197.111 412.748 195.799 412.748 194.322C412.748 192.846 412.051 191.52 410.561 191.52C409.043 191.52 408.346 192.846 408.346 194.322C408.346 195.799 409.043 197.111 410.561 197.111ZM416.891 198L414.635 190.576H415.879L417.465 196.236H417.533L419.105 190.576H420.363L421.908 196.209H421.99L423.576 190.576H424.807L422.551 198H421.389L419.775 192.34H419.666L418.066 198H416.891ZM427.281 193.543V198H426.105V190.576H427.24V191.738H427.336C427.691 190.986 428.375 190.48 429.51 190.48C431.014 190.48 432.012 191.396 432.012 193.283V198H430.836V193.365C430.836 192.217 430.207 191.533 429.154 191.533C428.074 191.533 427.281 192.258 427.281 193.543ZM438.793 188.102V198H437.562V188.102H438.793ZM444.07 190.576V191.561H442.512V195.867C442.512 196.824 442.977 196.975 443.482 196.975C443.701 196.975 444.002 196.961 444.18 196.947V198.041C444.002 198.068 443.701 198.096 443.359 198.096C442.375 198.096 441.322 197.48 441.322 196.168V191.561H440.201V190.576H441.322V188.799H442.512V190.576H444.07ZM448.637 198.15C446.49 198.15 445.164 196.633 445.164 194.35C445.164 192.066 446.504 190.48 448.527 190.48C450.086 190.48 451.727 191.438 451.727 194.186V194.678H446.34C446.395 196.25 447.311 197.111 448.637 197.111C449.525 197.111 450.086 196.729 450.359 196.264H451.617C451.262 197.385 450.168 198.15 448.637 198.15ZM446.354 193.68H450.537C450.537 192.436 449.744 191.52 448.527 191.52C447.242 191.52 446.422 192.531 446.354 193.68ZM453.258 198V190.576H454.393V191.738H454.488C454.803 190.945 455.514 190.48 456.484 190.48C457.455 190.48 458.111 190.945 458.467 191.738H458.549C458.932 190.973 459.711 190.48 460.777 190.48C462.104 190.48 463.047 191.287 463.047 193.037V198H461.871V193.051C461.871 191.957 461.174 191.533 460.367 191.533C459.328 191.533 458.74 192.23 458.74 193.174V198H457.551V192.928C457.551 192.094 456.949 191.533 456.102 191.533C455.213 191.533 454.434 192.285 454.434 193.365V198H453.258Z" fill="var(--sol-element-primary)"/>
</g>
<g clip-path="url(#clip6_1670_181516)">
<path d="M372.17 228H369.094V218.102H372.293C375.178 218.102 376.887 219.961 376.887 223.037C376.887 226.127 375.178 228 372.17 228ZM370.324 226.906H372.088C374.521 226.906 375.684 225.443 375.684 223.037C375.684 220.645 374.521 219.195 372.211 219.195H370.324V226.906ZM378.541 228V220.576H379.676V221.711H379.758C380.031 220.959 380.797 220.453 381.672 220.453C381.85 220.453 382.15 220.467 382.287 220.48V221.67C382.205 221.643 381.877 221.588 381.576 221.588C380.51 221.588 379.717 222.326 379.717 223.324V228H378.541ZM386.238 228.15C384.215 228.15 382.848 226.633 382.848 224.322C382.848 222.012 384.215 220.48 386.238 220.48C388.248 220.48 389.602 222.012 389.602 224.322C389.602 226.633 388.248 228.15 386.238 228.15ZM386.238 227.111C387.729 227.111 388.426 225.799 388.426 224.322C388.426 222.846 387.729 221.52 386.238 221.52C384.721 221.52 384.023 222.846 384.023 224.322C384.023 225.799 384.721 227.111 386.238 227.111ZM391.146 230.789V220.576H392.281V221.752H392.418C392.664 221.355 393.129 220.48 394.564 220.48C396.424 220.48 397.723 221.957 397.723 224.309C397.723 226.66 396.424 228.15 394.578 228.15C393.156 228.15 392.664 227.275 392.418 226.865H392.322V230.789H391.146ZM392.295 224.281C392.295 225.949 393.047 227.098 394.414 227.098C395.822 227.098 396.547 225.867 396.547 224.281C396.547 222.736 395.836 221.533 394.414 221.533C393.02 221.533 392.295 222.641 392.295 224.281ZM402.057 228.15C400.211 228.15 398.898 226.66 398.898 224.309C398.898 221.957 400.211 220.48 402.07 220.48C403.506 220.48 403.971 221.355 404.217 221.752H404.299V218.102H405.488V228H404.34V226.865H404.217C403.957 227.275 403.479 228.15 402.057 228.15ZM402.221 227.098C403.574 227.098 404.34 225.949 404.34 224.281C404.34 222.641 403.602 221.533 402.221 221.533C400.799 221.533 400.088 222.736 400.088 224.281C400.088 225.867 400.812 227.098 402.221 227.098ZM410.561 228.15C408.537 228.15 407.17 226.633 407.17 224.322C407.17 222.012 408.537 220.48 410.561 220.48C412.57 220.48 413.924 222.012 413.924 224.322C413.924 226.633 412.57 228.15 410.561 228.15ZM410.561 227.111C412.051 227.111 412.748 225.799 412.748 224.322C412.748 222.846 412.051 221.52 410.561 221.52C409.043 221.52 408.346 222.846 408.346 224.322C408.346 225.799 409.043 227.111 410.561 227.111ZM416.891 228L414.635 220.576H415.879L417.465 226.236H417.533L419.105 220.576H420.363L421.908 226.209H421.99L423.576 220.576H424.807L422.551 228H421.389L419.775 222.34H419.666L418.066 228H416.891ZM427.281 223.543V228H426.105V220.576H427.24V221.738H427.336C427.691 220.986 428.375 220.48 429.51 220.48C431.014 220.48 432.012 221.396 432.012 223.283V228H430.836V223.365C430.836 222.217 430.207 221.533 429.154 221.533C428.074 221.533 427.281 222.258 427.281 223.543ZM438.793 218.102V228H437.562V218.102H438.793ZM444.07 220.576V221.561H442.512V225.867C442.512 226.824 442.977 226.975 443.482 226.975C443.701 226.975 444.002 226.961 444.18 226.947V228.041C444.002 228.068 443.701 228.096 443.359 228.096C442.375 228.096 441.322 227.48 441.322 226.168V221.561H440.201V220.576H441.322V218.799H442.512V220.576H444.07ZM448.637 228.15C446.49 228.15 445.164 226.633 445.164 224.35C445.164 222.066 446.504 220.48 448.527 220.48C450.086 220.48 451.727 221.438 451.727 224.186V224.678H446.34C446.395 226.25 447.311 227.111 448.637 227.111C449.525 227.111 450.086 226.729 450.359 226.264H451.617C451.262 227.385 450.168 228.15 448.637 228.15ZM446.354 223.68H450.537C450.537 222.436 449.744 221.52 448.527 221.52C447.242 221.52 446.422 222.531 446.354 223.68ZM453.258 228V220.576H454.393V221.738H454.488C454.803 220.945 455.514 220.48 456.484 220.48C457.455 220.48 458.111 220.945 458.467 221.738H458.549C458.932 220.973 459.711 220.48 460.777 220.48C462.104 220.48 463.047 221.287 463.047 223.037V228H461.871V223.051C461.871 221.957 461.174 221.533 460.367 221.533C459.328 221.533 458.74 222.23 458.74 223.174V228H457.551V222.928C457.551 222.094 456.949 221.533 456.102 221.533C455.213 221.533 454.434 222.285 454.434 223.365V228H453.258Z" fill="var(--sol-element-primary)"/>
</g>
<g clip-path="url(#clip7_1670_181516)">
<path d="M372.17 258H369.094V248.102H372.293C375.178 248.102 376.887 249.961 376.887 253.037C376.887 256.127 375.178 258 372.17 258ZM370.324 256.906H372.088C374.521 256.906 375.684 255.443 375.684 253.037C375.684 250.645 374.521 249.195 372.211 249.195H370.324V256.906ZM378.541 258V250.576H379.676V251.711H379.758C380.031 250.959 380.797 250.453 381.672 250.453C381.85 250.453 382.15 250.467 382.287 250.48V251.67C382.205 251.643 381.877 251.588 381.576 251.588C380.51 251.588 379.717 252.326 379.717 253.324V258H378.541ZM386.238 258.15C384.215 258.15 382.848 256.633 382.848 254.322C382.848 252.012 384.215 250.48 386.238 250.48C388.248 250.48 389.602 252.012 389.602 254.322C389.602 256.633 388.248 258.15 386.238 258.15ZM386.238 257.111C387.729 257.111 388.426 255.799 388.426 254.322C388.426 252.846 387.729 251.52 386.238 251.52C384.721 251.52 384.023 252.846 384.023 254.322C384.023 255.799 384.721 257.111 386.238 257.111ZM391.146 260.789V250.576H392.281V251.752H392.418C392.664 251.355 393.129 250.48 394.564 250.48C396.424 250.48 397.723 251.957 397.723 254.309C397.723 256.66 396.424 258.15 394.578 258.15C393.156 258.15 392.664 257.275 392.418 256.865H392.322V260.789H391.146ZM392.295 254.281C392.295 255.949 393.047 257.098 394.414 257.098C395.822 257.098 396.547 255.867 396.547 254.281C396.547 252.736 395.836 251.533 394.414 251.533C393.02 251.533 392.295 252.641 392.295 254.281ZM402.057 258.15C400.211 258.15 398.898 256.66 398.898 254.309C398.898 251.957 400.211 250.48 402.07 250.48C403.506 250.48 403.971 251.355 404.217 251.752H404.299V248.102H405.488V258H404.34V256.865H404.217C403.957 257.275 403.479 258.15 402.057 258.15ZM402.221 257.098C403.574 257.098 404.34 255.949 404.34 254.281C404.34 252.641 403.602 251.533 402.221 251.533C400.799 251.533 400.088 252.736 400.088 254.281C400.088 255.867 400.812 257.098 402.221 257.098ZM410.561 258.15C408.537 258.15 407.17 256.633 407.17 254.322C407.17 252.012 408.537 250.48 410.561 250.48C412.57 250.48 413.924 252.012 413.924 254.322C413.924 256.633 412.57 258.15 410.561 258.15ZM410.561 257.111C412.051 257.111 412.748 255.799 412.748 254.322C412.748 252.846 412.051 251.52 410.561 251.52C409.043 251.52 408.346 252.846 408.346 254.322C408.346 255.799 409.043 257.111 410.561 257.111ZM416.891 258L414.635 250.576H415.879L417.465 256.236H417.533L419.105 250.576H420.363L421.908 256.209H421.99L423.576 250.576H424.807L422.551 258H421.389L419.775 252.34H419.666L418.066 258H416.891ZM427.281 253.543V258H426.105V250.576H427.24V251.738H427.336C427.691 250.986 428.375 250.48 429.51 250.48C431.014 250.48 432.012 251.396 432.012 253.283V258H430.836V253.365C430.836 252.217 430.207 251.533 429.154 251.533C428.074 251.533 427.281 252.258 427.281 253.543ZM438.793 248.102V258H437.562V248.102H438.793ZM444.07 250.576V251.561H442.512V255.867C442.512 256.824 442.977 256.975 443.482 256.975C443.701 256.975 444.002 256.961 444.18 256.947V258.041C444.002 258.068 443.701 258.096 443.359 258.096C442.375 258.096 441.322 257.48 441.322 256.168V251.561H440.201V250.576H441.322V248.799H442.512V250.576H444.07ZM448.637 258.15C446.49 258.15 445.164 256.633 445.164 254.35C445.164 252.066 446.504 250.48 448.527 250.48C450.086 250.48 451.727 251.438 451.727 254.186V254.678H446.34C446.395 256.25 447.311 257.111 448.637 257.111C449.525 257.111 450.086 256.729 450.359 256.264H451.617C451.262 257.385 450.168 258.15 448.637 258.15ZM446.354 253.68H450.537C450.537 252.436 449.744 251.52 448.527 251.52C447.242 251.52 446.422 252.531 446.354 253.68ZM453.258 258V250.576H454.393V251.738H454.488C454.803 250.945 455.514 250.48 456.484 250.48C457.455 250.48 458.111 250.945 458.467 251.738H458.549C458.932 250.973 459.711 250.48 460.777 250.48C462.104 250.48 463.047 251.287 463.047 253.037V258H461.871V253.051C461.871 251.957 461.174 251.533 460.367 251.533C459.328 251.533 458.74 252.23 458.74 253.174V258H457.551V252.928C457.551 252.094 456.949 251.533 456.102 251.533C455.213 251.533 454.434 252.285 454.434 253.365V258H453.258Z" fill="var(--sol-element-primary)"/>
</g>
<g clip-path="url(#clip8_1670_181516)">
<path d="M372.17 288H369.094V278.102H372.293C375.178 278.102 376.887 279.961 376.887 283.037C376.887 286.127 375.178 288 372.17 288ZM370.324 286.906H372.088C374.521 286.906 375.684 285.443 375.684 283.037C375.684 280.645 374.521 279.195 372.211 279.195H370.324V286.906ZM378.541 288V280.576H379.676V281.711H379.758C380.031 280.959 380.797 280.453 381.672 280.453C381.85 280.453 382.15 280.467 382.287 280.48V281.67C382.205 281.643 381.877 281.588 381.576 281.588C380.51 281.588 379.717 282.326 379.717 283.324V288H378.541ZM386.238 288.15C384.215 288.15 382.848 286.633 382.848 284.322C382.848 282.012 384.215 280.48 386.238 280.48C388.248 280.48 389.602 282.012 389.602 284.322C389.602 286.633 388.248 288.15 386.238 288.15ZM386.238 287.111C387.729 287.111 388.426 285.799 388.426 284.322C388.426 282.846 387.729 281.52 386.238 281.52C384.721 281.52 384.023 282.846 384.023 284.322C384.023 285.799 384.721 287.111 386.238 287.111ZM391.146 290.789V280.576H392.281V281.752H392.418C392.664 281.355 393.129 280.48 394.564 280.48C396.424 280.48 397.723 281.957 397.723 284.309C397.723 286.66 396.424 288.15 394.578 288.15C393.156 288.15 392.664 287.275 392.418 286.865H392.322V290.789H391.146ZM392.295 284.281C392.295 285.949 393.047 287.098 394.414 287.098C395.822 287.098 396.547 285.867 396.547 284.281C396.547 282.736 395.836 281.533 394.414 281.533C393.02 281.533 392.295 282.641 392.295 284.281ZM402.057 288.15C400.211 288.15 398.898 286.66 398.898 284.309C398.898 281.957 400.211 280.48 402.07 280.48C403.506 280.48 403.971 281.355 404.217 281.752H404.299V278.102H405.488V288H404.34V286.865H404.217C403.957 287.275 403.479 288.15 402.057 288.15ZM402.221 287.098C403.574 287.098 404.34 285.949 404.34 284.281C404.34 282.641 403.602 281.533 402.221 281.533C400.799 281.533 400.088 282.736 400.088 284.281C400.088 285.867 400.812 287.098 402.221 287.098ZM410.561 288.15C408.537 288.15 407.17 286.633 407.17 284.322C407.17 282.012 408.537 280.48 410.561 280.48C412.57 280.48 413.924 282.012 413.924 284.322C413.924 286.633 412.57 288.15 410.561 288.15ZM410.561 287.111C412.051 287.111 412.748 285.799 412.748 284.322C412.748 282.846 412.051 281.52 410.561 281.52C409.043 281.52 408.346 282.846 408.346 284.322C408.346 285.799 409.043 287.111 410.561 287.111ZM416.891 288L414.635 280.576H415.879L417.465 286.236H417.533L419.105 280.576H420.363L421.908 286.209H421.99L423.576 280.576H424.807L422.551 288H421.389L419.775 282.34H419.666L418.066 288H416.891ZM427.281 283.543V288H426.105V280.576H427.24V281.738H427.336C427.691 280.986 428.375 280.48 429.51 280.48C431.014 280.48 432.012 281.396 432.012 283.283V288H430.836V283.365C430.836 282.217 430.207 281.533 429.154 281.533C428.074 281.533 427.281 282.258 427.281 283.543ZM438.793 278.102V288H437.562V278.102H438.793ZM444.07 280.576V281.561H442.512V285.867C442.512 286.824 442.977 286.975 443.482 286.975C443.701 286.975 444.002 286.961 444.18 286.947V288.041C444.002 288.068 443.701 288.096 443.359 288.096C442.375 288.096 441.322 287.48 441.322 286.168V281.561H440.201V280.576H441.322V278.799H442.512V280.576H444.07ZM448.637 288.15C446.49 288.15 445.164 286.633 445.164 284.35C445.164 282.066 446.504 280.48 448.527 280.48C450.086 280.48 451.727 281.438 451.727 284.186V284.678H446.34C446.395 286.25 447.311 287.111 448.637 287.111C449.525 287.111 450.086 286.729 450.359 286.264H451.617C451.262 287.385 450.168 288.15 448.637 288.15ZM446.354 283.68H450.537C450.537 282.436 449.744 281.52 448.527 281.52C447.242 281.52 446.422 282.531 446.354 283.68ZM453.258 288V280.576H454.393V281.738H454.488C454.803 280.945 455.514 280.48 456.484 280.48C457.455 280.48 458.111 280.945 458.467 281.738H458.549C458.932 280.973 459.711 280.48 460.777 280.48C462.104 280.48 463.047 281.287 463.047 283.037V288H461.871V283.051C461.871 281.957 461.174 281.533 460.367 281.533C459.328 281.533 458.74 282.23 458.74 283.174V288H457.551V282.928C457.551 282.094 456.949 281.533 456.102 281.533C455.213 281.533 454.434 282.285 454.434 283.365V288H453.258Z" fill="var(--sol-element-primary)"/>
</g>
<g clip-path="url(#clip9_1670_181516)">
<path d="M372.17 318H369.094V308.102H372.293C375.178 308.102 376.887 309.961 376.887 313.037C376.887 316.127 375.178 318 372.17 318ZM370.324 316.906H372.088C374.521 316.906 375.684 315.443 375.684 313.037C375.684 310.645 374.521 309.195 372.211 309.195H370.324V316.906ZM378.541 318V310.576H379.676V311.711H379.758C380.031 310.959 380.797 310.453 381.672 310.453C381.85 310.453 382.15 310.467 382.287 310.48V311.67C382.205 311.643 381.877 311.588 381.576 311.588C380.51 311.588 379.717 312.326 379.717 313.324V318H378.541ZM386.238 318.15C384.215 318.15 382.848 316.633 382.848 314.322C382.848 312.012 384.215 310.48 386.238 310.48C388.248 310.48 389.602 312.012 389.602 314.322C389.602 316.633 388.248 318.15 386.238 318.15ZM386.238 317.111C387.729 317.111 388.426 315.799 388.426 314.322C388.426 312.846 387.729 311.52 386.238 311.52C384.721 311.52 384.023 312.846 384.023 314.322C384.023 315.799 384.721 317.111 386.238 317.111ZM391.146 320.789V310.576H392.281V311.752H392.418C392.664 311.355 393.129 310.48 394.564 310.48C396.424 310.48 397.723 311.957 397.723 314.309C397.723 316.66 396.424 318.15 394.578 318.15C393.156 318.15 392.664 317.275 392.418 316.865H392.322V320.789H391.146ZM392.295 314.281C392.295 315.949 393.047 317.098 394.414 317.098C395.822 317.098 396.547 315.867 396.547 314.281C396.547 312.736 395.836 311.533 394.414 311.533C393.02 311.533 392.295 312.641 392.295 314.281ZM402.057 318.15C400.211 318.15 398.898 316.66 398.898 314.309C398.898 311.957 400.211 310.48 402.07 310.48C403.506 310.48 403.971 311.355 404.217 311.752H404.299V308.102H405.488V318H404.34V316.865H404.217C403.957 317.275 403.479 318.15 402.057 318.15ZM402.221 317.098C403.574 317.098 404.34 315.949 404.34 314.281C404.34 312.641 403.602 311.533 402.221 311.533C400.799 311.533 400.088 312.736 400.088 314.281C400.088 315.867 400.812 317.098 402.221 317.098ZM410.561 318.15C408.537 318.15 407.17 316.633 407.17 314.322C407.17 312.012 408.537 310.48 410.561 310.48C412.57 310.48 413.924 312.012 413.924 314.322C413.924 316.633 412.57 318.15 410.561 318.15ZM410.561 317.111C412.051 317.111 412.748 315.799 412.748 314.322C412.748 312.846 412.051 311.52 410.561 311.52C409.043 311.52 408.346 312.846 408.346 314.322C408.346 315.799 409.043 317.111 410.561 317.111ZM416.891 318L414.635 310.576H415.879L417.465 316.236H417.533L419.105 310.576H420.363L421.908 316.209H421.99L423.576 310.576H424.807L422.551 318H421.389L419.775 312.34H419.666L418.066 318H416.891ZM427.281 313.543V318H426.105V310.576H427.24V311.738H427.336C427.691 310.986 428.375 310.48 429.51 310.48C431.014 310.48 432.012 311.396 432.012 313.283V318H430.836V313.365C430.836 312.217 430.207 311.533 429.154 311.533C428.074 311.533 427.281 312.258 427.281 313.543ZM438.793 308.102V318H437.562V308.102H438.793ZM444.07 310.576V311.561H442.512V315.867C442.512 316.824 442.977 316.975 443.482 316.975C443.701 316.975 444.002 316.961 444.18 316.947V318.041C444.002 318.068 443.701 318.096 443.359 318.096C442.375 318.096 441.322 317.48 441.322 316.168V311.561H440.201V310.576H441.322V308.799H442.512V310.576H444.07ZM448.637 318.15C446.49 318.15 445.164 316.633 445.164 314.35C445.164 312.066 446.504 310.48 448.527 310.48C450.086 310.48 451.727 311.438 451.727 314.186V314.678H446.34C446.395 316.25 447.311 317.111 448.637 317.111C449.525 317.111 450.086 316.729 450.359 316.264H451.617C451.262 317.385 450.168 318.15 448.637 318.15ZM446.354 313.68H450.537C450.537 312.436 449.744 311.52 448.527 311.52C447.242 311.52 446.422 312.531 446.354 313.68ZM453.258 318V310.576H454.393V311.738H454.488C454.803 310.945 455.514 310.48 456.484 310.48C457.455 310.48 458.111 310.945 458.467 311.738H458.549C458.932 310.973 459.711 310.48 460.777 310.48C462.104 310.48 463.047 311.287 463.047 313.037V318H461.871V313.051C461.871 311.957 461.174 311.533 460.367 311.533C459.328 311.533 458.74 312.23 458.74 313.174V318H457.551V312.928C457.551 312.094 456.949 311.533 456.102 311.533C455.213 311.533 454.434 312.285 454.434 313.365V318H453.258Z" fill="var(--sol-element-primary)"/>
</g>
</g>
<g clip-path="url(#clip10_1670_181516)">
<rect x="536" y="88" width="4" height="116" fill="var(--sol-border-solid-variant)"/>
</g>
</g>
</g>
<rect x="300" y="91" width="28" height="28" rx="14" fill="var(--sol-element-primary)"/>
<path d="M315.859 99.6875V111H313.812V101.672H313.75L311.109 103.359V101.5L313.906 99.6875H315.859Z" fill="var(--sol-surface)"/>
<path d="M328 104.5H364.5C364.776 104.5 365 104.724 365 105V105C365 105.276 364.776 105.5 364.5 105.5H328V104.5Z" fill="var(--sol-element-primary)"/>
<circle cx="363" cy="105" r="2" fill="var(--sol-element-primary)"/>
<rect x="291" y="197" width="28" height="28" rx="14" fill="var(--sol-element-primary)"/>
<path d="M301.117 217V215.531L305.117 211.672C306.258 210.531 306.852 209.859 306.852 208.906C306.852 207.859 306.023 207.188 304.914 207.188C303.742 207.188 302.992 207.922 303.008 209.062H301.07C301.055 206.922 302.664 205.531 304.93 205.531C307.242 205.531 308.805 206.906 308.805 208.812C308.805 210.094 308.18 211.125 305.961 213.219L303.945 215.219V215.297H308.977V217H301.117Z" fill="var(--sol-surface)"/>
<path d="M319 210.5H355.5C355.776 210.5 356 210.724 356 211V211C356 211.276 355.776 211.5 355.5 211.5H319V210.5Z" fill="var(--sol-element-primary)"/>
<circle cx="354" cy="211" r="2" fill="var(--sol-element-primary)"/>
<path d="M537 113C537 112.724 537.224 112.5 537.5 112.5H577V113.5H537.5C537.224 113.5 537 113.276 537 113V113Z" fill="var(--sol-element-primary)"/>
<rect x="577" y="99" width="28" height="28" rx="14" fill="var(--sol-element-primary)"/>
<path d="M590.992 119.156C588.57 119.156 586.852 117.844 586.805 115.938H588.852C588.914 116.844 589.82 117.438 590.992 117.438C592.242 117.438 593.133 116.75 593.133 115.75C593.133 114.734 592.258 114 590.789 114H589.773V112.438H590.789C591.992 112.438 592.836 111.766 592.82 110.781C592.836 109.828 592.117 109.188 591.008 109.188C589.945 109.188 589.023 109.781 588.992 110.734H587.039C587.086 108.828 588.805 107.531 591.023 107.531C593.32 107.531 594.805 108.938 594.789 110.672C594.805 111.938 593.961 112.859 592.727 113.109V113.203C594.32 113.422 595.227 114.438 595.211 115.859C595.227 117.766 593.445 119.156 590.992 119.156Z" fill="var(--sol-surface)"/>
<circle cx="539" cy="113" r="2" fill="var(--sol-element-primary)"/>
<defs>
<filter id="filter0_dd_1670_181516" x="348" y="80" width="204" height="256" filterUnits="userSpaceOnUse" color-interpolation-filters="sRGB">
<feFlood flood-opacity="0" result="BackgroundImageFix"/>
<feColorMatrix in="SourceAlpha" type="matrix" values="0 0 0 0 0 0 0 0 0 0 0 0 0 0 0 0 0 0 127 0" result="hardAlpha"/>
<feOffset dy="4"/>
<feGaussianBlur stdDeviation="4"/>
<feComposite in2="hardAlpha" operator="out"/>
<feColorMatrix type="matrix" values="0 0 0 0 0 0 0 0 0 0 0 0 0 0 0 0 0 0 0.08 0"/>
<feBlend mode="normal" in2="BackgroundImageFix" result="effect1_dropShadow_1670_181516"/>
<feColorMatrix in="SourceAlpha" type="matrix" values="0 0 0 0 0 0 0 0 0 0 0 0 0 0 0 0 0 0 127 0" result="hardAlpha"/>
<feOffset/>
<feGaussianBlur stdDeviation="0.5"/>
<feComposite in2="hardAlpha" operator="out"/>
<feColorMatrix type="matrix" values="0 0 0 0 0 0 0 0 0 0 0 0 0 0 0 0 0 0 0.08 0"/>
<feBlend mode="normal" in2="effect1_dropShadow_1670_181516" result="effect2_dropShadow_1670_181516"/>
<feBlend mode="normal" in="SourceGraphic" in2="effect2_dropShadow_1670_181516" result="shape"/>
</filter>
<clipPath id="clip0_1670_181516">
<path d="M356 88C356 85.7909 357.791 84 360 84H540C542.209 84 544 85.7909 544 88V320C544 322.209 542.209 324 540 324H360C357.791 324 356 322.209 356 320V88Z" fill="var(--sol-surface)"/>
</clipPath>
<clipPath id="clip1_1670_181516">
<rect width="180" height="240" fill="var(--sol-surface)" transform="translate(360 88)"/>
</clipPath>
<clipPath id="clip2_1670_181516">
<path d="M360 90C360 88.8954 360.895 88 362 88H538C539.105 88 540 88.8954 540 90V116C540 117.105 539.105 118 538 118H362C360.895 118 360 117.105 360 116V90Z" fill="var(--sol-surface)"/>
</clipPath>
<clipPath id="clip3_1670_181516">
<path d="M360 120C360 118.895 360.895 118 362 118H538C539.105 118 540 118.895 540 120V146C540 147.105 539.105 148 538 148H362C360.895 148 360 147.105 360 146V120Z" fill="var(--sol-surface)"/>
</clipPath>
<clipPath id="clip4_1670_181516">
<path d="M360 150C360 148.895 360.895 148 362 148H538C539.105 148 540 148.895 540 150V176C540 177.105 539.105 178 538 178H362C360.895 178 360 177.105 360 176V150Z" fill="var(--sol-surface)"/>
</clipPath>
<clipPath id="clip5_1670_181516">
<path d="M360 180C360 178.895 360.895 178 362 178H538C539.105 178 540 178.895 540 180V206C540 207.105 539.105 208 538 208H362C360.895 208 360 207.105 360 206V180Z" fill="var(--sol-surface)"/>
</clipPath>
<clipPath id="clip6_1670_181516">
<path d="M360 210C360 208.895 360.895 208 362 208H538C539.105 208 540 208.895 540 210V236C540 237.105 539.105 238 538 238H362C360.895 238 360 237.105 360 236V210Z" fill="var(--sol-surface)"/>
</clipPath>
<clipPath id="clip7_1670_181516">
<path d="M360 240C360 238.895 360.895 238 362 238H538C539.105 238 540 238.895 540 240V266C540 267.105 539.105 268 538 268H362C360.895 268 360 267.105 360 266V240Z" fill="var(--sol-surface)"/>
</clipPath>
<clipPath id="clip8_1670_181516">
<path d="M360 270C360 268.895 360.895 268 362 268H538C539.105 268 540 268.895 540 270V296C540 297.105 539.105 298 538 298H362C360.895 298 360 297.105 360 296V270Z" fill="var(--sol-surface)"/>
</clipPath>
<clipPath id="clip9_1670_181516">
<path d="M360 300C360 298.895 360.895 298 362 298H538C539.105 298 540 298.895 540 300V326C540 327.105 539.105 328 538 328H362C360.895 328 360 327.105 360 326V300Z" fill="var(--sol-surface)"/>
</clipPath>
<clipPath id="clip10_1670_181516">
<path d="M536 90C536 88.8954 536.895 88 538 88V88C539.105 88 540 88.8954 540 90V202C540 203.105 539.105 204 538 204V204C536.895 204 536 203.105 536 202V90Z" fill="var(--sol-surface)"/>
</clipPath>
</defs>
</svg>
