<svg width="442" height="130" viewBox="0 0 442 130" fill="none" xmlns="http://www.w3.org/2000/svg">
<style>
:root {
  --sol-element-primary: #161616;
  --sol-element-tertiary: #636363;
  --sol-element-quaternary: #858585;
  --sol-surface: #ffffff;
  --sol-border-solid-variant: #e0e0e0;
  --sol-static-white: #ffffff;
  --sol-static-black: #000000;
  --color-indigo-700: #142e96;
  --color-indigo-400: #6280e4;
  --color-orange-700: #833606;
  --color-orange-500: #e06418;
  --color-yellow-600: #a88900;
  --color-yellow-400: #ecc824;
  --color-yellow-300: #f5dc6a;
  --color-green-500: #35a142;
  --color-green-400: #5cc066;
  --color-blue-200: #c2e6f7;
  --color-red-700: #8a2e38;
  --color-red-600: #b84451;
  --color-red-500: #e76067;
}
@media (prefers-color-scheme: dark) {
  :root {
    --sol-element-primary: #ffffff;
    --sol-element-tertiary: rgba(255, 255, 255, 0.60);
    --sol-element-quaternary: rgba(255, 255, 255, 0.50);
    --sol-surface: #161616;
    --sol-border-solid-variant: #3d3d3d;
  }
}
</style>

<g clip-path="url(#clip0_1670_193064)">
<path d="M30 58.1666H38C38.4601 58.1666 38.8338 58.5395 38.834 58.9996V66.9996C38.834 67.4599 38.4602 67.8336 38 67.8336H30C29.5399 67.8334 29.167 67.4598 29.167 66.9996V58.9996C29.1672 58.5397 29.54 58.1668 30 58.1666Z" stroke="var(--sol-element-primary)" stroke-opacity="0.16"/>
<path d="M49.5312 60H48.2461L51.8691 50.1016H53.168L56.791 60H55.4922L54.5078 57.2109H50.5293L49.5312 60ZM50.8984 56.1309H54.125L52.5527 51.7012H52.4707L50.8984 56.1309ZM61.002 60.1504C58.8965 60.1504 57.6113 58.5508 57.6113 56.3223C57.6113 54.0664 58.9512 52.4805 60.9746 52.4805C62.5605 52.4805 63.7363 53.4102 63.9277 54.8184H62.752C62.5879 54.1348 61.9863 53.5195 61.002 53.5195C59.6758 53.5195 58.7871 54.6133 58.7871 56.2812C58.7871 58.0039 59.6484 59.0977 61.002 59.0977C61.877 59.0977 62.5469 58.6328 62.752 57.8125H63.9277C63.7363 59.1387 62.6562 60.1504 61.002 60.1504ZM68.6172 52.5762V53.5605H67.0586V57.8672C67.0586 58.8242 67.5234 58.9746 68.0293 58.9746C68.248 58.9746 68.5488 58.9609 68.7266 58.9473V60.041C68.5488 60.0684 68.248 60.0957 67.9062 60.0957C66.9219 60.0957 65.8691 59.4805 65.8691 58.168V53.5605H64.748V52.5762H65.8691V50.7988H67.0586V52.5762H68.6172ZM70.1348 60V52.5762H71.3105V60H70.1348ZM70.7227 51.3457C70.2715 51.3457 69.9023 51.0039 69.9023 50.5664C69.9023 50.1289 70.2715 49.7871 70.7227 49.7871C71.1738 49.7871 71.5566 50.1289 71.5566 50.5664C71.5566 51.0039 71.1738 51.3457 70.7227 51.3457ZM79.2949 52.5762L76.5469 60H75.3301L72.5957 52.5762H73.8809L75.9043 58.4688H75.9863L78.0098 52.5762H79.2949ZM83.4375 60.1504C81.291 60.1504 79.9648 58.6328 79.9648 56.3496C79.9648 54.0664 81.3047 52.4805 83.3281 52.4805C84.8867 52.4805 86.5273 53.4375 86.5273 56.1855V56.6777H81.1406C81.1953 58.25 82.1113 59.1113 83.4375 59.1113C84.3262 59.1113 84.8867 58.7285 85.1602 58.2637H86.418C86.0625 59.3848 84.9688 60.1504 83.4375 60.1504ZM81.1543 55.6797H85.3379C85.3379 54.4355 84.5449 53.5195 83.3281 53.5195C82.043 53.5195 81.2227 54.5312 81.1543 55.6797Z" fill="var(--sol-element-primary)"/>
<path d="M48.4688 70.4531V69.5156H54.8672V70.4531H52.207V78H51.1406V70.4531H48.4688ZM57.1523 74.1797V78H56.1445V69.5156H57.1523V72.6328H57.2344C57.5273 71.9766 58.1016 71.5547 59.1094 71.5547C60.4102 71.5547 61.2773 72.3281 61.2773 73.957V78H60.2695V74.0273C60.2695 73.0312 59.7188 72.457 58.8047 72.457C57.8555 72.457 57.1523 73.0781 57.1523 74.1797ZM62.8945 78V71.6367H63.9023V78H62.8945ZM63.3984 70.582C63.0117 70.582 62.6953 70.2891 62.6953 69.9141C62.6953 69.5391 63.0117 69.2461 63.3984 69.2461C63.7852 69.2461 64.1133 69.5391 64.1133 69.9141C64.1133 70.2891 63.7852 70.582 63.3984 70.582ZM69.0469 73.2891C68.9062 72.7617 68.5078 72.4102 67.7578 72.4102C66.9727 72.4102 66.4102 72.832 66.4102 73.3711C66.4102 73.793 66.75 74.0859 67.5 74.2617L68.4492 74.4961C69.5859 74.7656 70.1484 75.3281 70.1484 76.2188C70.1484 77.3203 69.2461 78.1289 67.6523 78.1289C66.2227 78.1289 65.3672 77.4961 65.2031 76.3359H66.2578C66.375 76.957 66.832 77.25 67.6289 77.25C68.5312 77.25 69.1055 76.875 69.1055 76.2773C69.1055 75.832 68.7891 75.5273 68.0625 75.3633L67.1016 75.1406C65.9883 74.8828 65.4023 74.2734 65.4023 73.4297C65.4023 72.3398 66.3516 71.5547 67.7578 71.5547C69.0703 71.5547 69.9023 72.2578 70.0312 73.2891H69.0469ZM74.4727 78V71.6367H75.4453V72.6328H75.5273C75.7969 71.9531 76.4062 71.5547 77.2383 71.5547C78.0703 71.5547 78.6328 71.9531 78.9375 72.6328H79.0078C79.3359 71.9766 80.0039 71.5547 80.918 71.5547C82.0547 71.5547 82.8633 72.2461 82.8633 73.7461V78H81.8555V73.7578C81.8555 72.8203 81.2578 72.457 80.5664 72.457C79.6758 72.457 79.1719 73.0547 79.1719 73.8633V78H78.1523V73.6523C78.1523 72.9375 77.6367 72.457 76.9102 72.457C76.1484 72.457 75.4805 73.1016 75.4805 74.0273V78H74.4727ZM87.1523 78.1289C85.3125 78.1289 84.1758 76.8281 84.1758 74.8711C84.1758 72.9141 85.3242 71.5547 87.0586 71.5547C88.3945 71.5547 89.8008 72.375 89.8008 74.7305V75.1523H85.1836C85.2305 76.5 86.0156 77.2383 87.1523 77.2383C87.9141 77.2383 88.3945 76.9102 88.6289 76.5117H89.707C89.4023 77.4727 88.4648 78.1289 87.1523 78.1289ZM85.1953 74.2969H88.7812C88.7812 73.2305 88.1016 72.4453 87.0586 72.4453C85.957 72.4453 85.2539 73.3125 85.1953 74.2969ZM90.8086 76.1953C90.8086 74.7305 92.0977 74.4023 93.1992 74.3203C93.6035 74.291 94.6348 74.2383 94.9219 74.2266V73.7109C94.9219 72.9023 94.4414 72.4336 93.4805 72.4336C92.6719 72.4336 92.1914 72.8086 92.0508 73.2891H90.9961C91.125 72.2695 92.1211 71.5547 93.5273 71.5547C94.3594 71.5547 95.918 71.8008 95.918 73.8047V78H94.9219V77.1328H94.875C94.6641 77.5664 94.0781 78.1523 92.9766 78.1523C91.7695 78.1523 90.8086 77.4375 90.8086 76.1953ZM91.8164 76.2422C91.8164 76.9102 92.3789 77.25 93.1523 77.25C94.2891 77.25 94.9219 76.4883 94.9219 75.6914V75.0469L93.3164 75.1641C92.4023 75.2227 91.8164 75.5508 91.8164 76.2422ZM98.543 74.1797V78H97.5352V71.6367H98.5078V72.6328H98.5898C98.8945 71.9883 99.4805 71.5547 100.453 71.5547C101.742 71.5547 102.598 72.3398 102.598 73.957V78H101.59V74.0273C101.59 73.043 101.051 72.457 100.148 72.457C99.2227 72.457 98.543 73.0781 98.543 74.1797ZM107.754 73.2891C107.613 72.7617 107.215 72.4102 106.465 72.4102C105.68 72.4102 105.117 72.832 105.117 73.3711C105.117 73.793 105.457 74.0859 106.207 74.2617L107.156 74.4961C108.293 74.7656 108.855 75.3281 108.855 76.2188C108.855 77.3203 107.953 78.1289 106.359 78.1289C104.93 78.1289 104.074 77.4961 103.91 76.3359H104.965C105.082 76.957 105.539 77.25 106.336 77.25C107.238 77.25 107.812 76.875 107.812 76.2773C107.812 75.832 107.496 75.5273 106.77 75.3633L105.809 75.1406C104.695 74.8828 104.109 74.2734 104.109 73.4297C104.109 72.3398 105.059 71.5547 106.465 71.5547C107.777 71.5547 108.609 72.2578 108.738 73.2891H107.754ZM115.957 71.6367V72.4805H114.621V76.1719C114.621 76.9922 115.02 77.1211 115.453 77.1211C115.641 77.1211 115.898 77.1094 116.051 77.0977V78.0352C115.898 78.0586 115.641 78.082 115.348 78.082C114.504 78.082 113.602 77.5547 113.602 76.4297V72.4805H112.641V71.6367H113.602V70.1133H114.621V71.6367H115.957ZM118.406 74.1797V78H117.398V69.5156H118.406V72.6328H118.488C118.781 71.9766 119.355 71.5547 120.363 71.5547C121.664 71.5547 122.531 72.3281 122.531 73.957V78H121.523V74.0273C121.523 73.0312 120.973 72.457 120.059 72.457C119.109 72.457 118.406 73.0781 118.406 74.1797ZM126.82 78.1289C124.98 78.1289 123.844 76.8281 123.844 74.8711C123.844 72.9141 124.992 71.5547 126.727 71.5547C128.062 71.5547 129.469 72.375 129.469 74.7305V75.1523H124.852C124.898 76.5 125.684 77.2383 126.82 77.2383C127.582 77.2383 128.062 76.9102 128.297 76.5117H129.375C129.07 77.4727 128.133 78.1289 126.82 78.1289ZM124.863 74.2969H128.449C128.449 73.2305 127.77 72.4453 126.727 72.4453C125.625 72.4453 124.922 73.3125 124.863 74.2969ZM133.793 78V71.6367H134.801V78H133.793ZM134.297 70.582C133.91 70.582 133.594 70.2891 133.594 69.9141C133.594 69.5391 133.91 69.2461 134.297 69.2461C134.684 69.2461 135.012 69.5391 135.012 69.9141C135.012 70.2891 134.684 70.582 134.297 70.582ZM139.184 71.6367V72.4805H137.848V76.1719C137.848 76.9922 138.246 77.1211 138.68 77.1211C138.867 77.1211 139.125 77.1094 139.277 77.0977V78.0352C139.125 78.0586 138.867 78.082 138.574 78.082C137.73 78.082 136.828 77.5547 136.828 76.4297V72.4805H135.867V71.6367H136.828V70.1133H137.848V71.6367H139.184ZM143.098 78.1289C141.258 78.1289 140.121 76.8281 140.121 74.8711C140.121 72.9141 141.27 71.5547 143.004 71.5547C144.34 71.5547 145.746 72.375 145.746 74.7305V75.1523H141.129C141.176 76.5 141.961 77.2383 143.098 77.2383C143.859 77.2383 144.34 76.9102 144.574 76.5117H145.652C145.348 77.4727 144.41 78.1289 143.098 78.1289ZM141.141 74.2969H144.727C144.727 73.2305 144.047 72.4453 143.004 72.4453C141.902 72.4453 141.199 73.3125 141.141 74.2969ZM147.059 78V71.6367H148.031V72.6328H148.113C148.383 71.9531 148.992 71.5547 149.824 71.5547C150.656 71.5547 151.219 71.9531 151.523 72.6328H151.594C151.922 71.9766 152.59 71.5547 153.504 71.5547C154.641 71.5547 155.449 72.2461 155.449 73.7461V78H154.441V73.7578C154.441 72.8203 153.844 72.457 153.152 72.457C152.262 72.457 151.758 73.0547 151.758 73.8633V78H150.738V73.6523C150.738 72.9375 150.223 72.457 149.496 72.457C148.734 72.457 148.066 73.1016 148.066 74.0273V78H147.059ZM160.078 78V71.6367H161.086V78H160.078ZM160.582 70.582C160.195 70.582 159.879 70.2891 159.879 69.9141C159.879 69.5391 160.195 69.2461 160.582 69.2461C160.969 69.2461 161.297 69.5391 161.297 69.9141C161.297 70.2891 160.969 70.582 160.582 70.582ZM166.23 73.2891C166.09 72.7617 165.691 72.4102 164.941 72.4102C164.156 72.4102 163.594 72.832 163.594 73.3711C163.594 73.793 163.934 74.0859 164.684 74.2617L165.633 74.4961C166.77 74.7656 167.332 75.3281 167.332 76.2188C167.332 77.3203 166.43 78.1289 164.836 78.1289C163.406 78.1289 162.551 77.4961 162.387 76.3359H163.441C163.559 76.957 164.016 77.25 164.812 77.25C165.715 77.25 166.289 76.875 166.289 76.2773C166.289 75.832 165.973 75.5273 165.246 75.3633L164.285 75.1406C163.172 74.8828 162.586 74.2734 162.586 73.4297C162.586 72.3398 163.535 71.5547 164.941 71.5547C166.254 71.5547 167.086 72.2578 167.215 73.2891H166.23ZM171.352 76.1953C171.352 74.7305 172.641 74.4023 173.742 74.3203C174.146 74.291 175.178 74.2383 175.465 74.2266V73.7109C175.465 72.9023 174.984 72.4336 174.023 72.4336C173.215 72.4336 172.734 72.8086 172.594 73.2891H171.539C171.668 72.2695 172.664 71.5547 174.07 71.5547C174.902 71.5547 176.461 71.8008 176.461 73.8047V78H175.465V77.1328H175.418C175.207 77.5664 174.621 78.1523 173.52 78.1523C172.312 78.1523 171.352 77.4375 171.352 76.1953ZM172.359 76.2422C172.359 76.9102 172.922 77.25 173.695 77.25C174.832 77.25 175.465 76.4883 175.465 75.6914V75.0469L173.859 75.1641C172.945 75.2227 172.359 75.5508 172.359 76.2422ZM180.68 78.1289C178.875 78.1289 177.773 76.7578 177.773 74.8477C177.773 72.9141 178.922 71.5547 180.656 71.5547C182.016 71.5547 183.023 72.3516 183.188 73.5586H182.18C182.039 72.9727 181.523 72.4453 180.68 72.4453C179.543 72.4453 178.781 73.3828 178.781 74.8125C178.781 76.2891 179.52 77.2266 180.68 77.2266C181.43 77.2266 182.004 76.8281 182.18 76.125H183.188C183.023 77.2617 182.098 78.1289 180.68 78.1289ZM187.207 71.6367V72.4805H185.871V76.1719C185.871 76.9922 186.27 77.1211 186.703 77.1211C186.891 77.1211 187.148 77.1094 187.301 77.0977V78.0352C187.148 78.0586 186.891 78.082 186.598 78.082C185.754 78.082 184.852 77.5547 184.852 76.4297V72.4805H183.891V71.6367H184.852V70.1133H185.871V71.6367H187.207ZM188.508 78V71.6367H189.516V78H188.508ZM189.012 70.582C188.625 70.582 188.309 70.2891 188.309 69.9141C188.309 69.5391 188.625 69.2461 189.012 69.2461C189.398 69.2461 189.727 69.5391 189.727 69.9141C189.727 70.2891 189.398 70.582 189.012 70.582ZM196.359 71.6367L194.004 78H192.961L190.617 71.6367H191.719L193.453 76.6875H193.523L195.258 71.6367H196.359ZM199.91 78.1289C198.07 78.1289 196.934 76.8281 196.934 74.8711C196.934 72.9141 198.082 71.5547 199.816 71.5547C201.152 71.5547 202.559 72.375 202.559 74.7305V75.1523H197.941C197.988 76.5 198.773 77.2383 199.91 77.2383C200.672 77.2383 201.152 76.9102 201.387 76.5117H202.465C202.16 77.4727 201.223 78.1289 199.91 78.1289ZM197.953 74.2969H201.539C201.539 73.2305 200.859 72.4453 199.816 72.4453C198.715 72.4453 198.012 73.3125 197.953 74.2969ZM204.586 78.0703C204.176 78.0703 203.824 77.7305 203.836 77.3086C203.824 76.8984 204.176 76.5586 204.586 76.5586C204.996 76.5586 205.336 76.8984 205.336 77.3086C205.336 77.7305 204.996 78.0703 204.586 78.0703Z" fill="var(--sol-element-tertiary)"/>
</g>
<defs>
<clipPath id="clip0_1670_193064">
<path d="M18 41C18 39.8954 18.8954 39 20 39H422C423.105 39 424 39.8954 424 41V85C424 86.1046 423.105 87 422 87H20C18.8954 87 18 86.1046 18 85V41Z" fill="var(--sol-surface)"/>
</clipPath>
</defs>
</svg>
