<svg width="900" height="578" viewBox="0 0 900 578" fill="none" xmlns="http://www.w3.org/2000/svg">
<style>
:root {
  --sol-primary: #282363;
  --sol-element-primary: #161616;
  --sol-element-tertiary: #636363;
  --sol-element-quaternary: #858585;
  --sol-fill-active: #4d469a;
  --sol-secondary-container: #e8e6f8;
  --sol-surface: #ffffff;
  --sol-border-solid-variant: #e0e0e0;
  --sol-border-normal-variant: rgba(0, 0, 0, 0.08);
  --sol-error: #e76067;
  --sol-error-dim: #b84451;
  --sol-static-white: #ffffff;
  --sol-static-black: #000000;
  --color-indigo-700: #142e96;
  --color-orange-700: #833606;
  --color-yellow-600: #a88900;
  --color-yellow-500: #d4ae00;
  --color-yellow-400: #ecc824;
  --color-green-500: #35a142;
  --color-red-500: #e76067;
}
@media (prefers-color-scheme: dark) {
  :root {
    --sol-primary: #9791d4;
    --sol-element-primary: #ffffff;
    --sol-element-tertiary: rgba(255, 255, 255, 0.60);
    --sol-element-quaternary: rgba(255, 255, 255, 0.50);
    --sol-fill-active: #7b74c4;
    --sol-secondary-container: rgba(255, 255, 255, 0.16);
    --sol-surface: #161616;
    --sol-border-solid-variant: #3d3d3d;
    --sol-border-normal-variant: rgba(255, 255, 255, 0.08);
    --sol-error: #ee7a80;
    --sol-error-dim: #e76067;
  }
}
</style>

<g clip-path="url(#clip0_1670_190156)">
<path d="M48 56C48 51.5817 51.5817 48 56 48H844C848.418 48 852 51.5817 852 56V522C852 526.418 848.418 530 844 530H56C51.5817 530 48 526.418 48 522V56Z" fill="var(--sol-surface)"/>
<rect width="804" height="23.2105" transform="translate(48 73.7894)" fill="var(--sol-surface)"/>
<g filter="url(#filter0_d_1670_190156)">
<rect x="48" y="73.7894" width="804" height="23" fill="var(--sol-surface)"/>
</g>
<path d="M837.815 88.0459C838.349 88.0459 838.783 88.4788 838.783 89.0127C838.783 89.5468 838.35 89.9805 837.815 89.9805C837.281 89.9803 836.849 89.5467 836.849 89.0127C836.849 88.4789 837.282 88.0461 837.815 88.0459ZM837.815 84.8223C838.349 84.8223 838.783 85.2551 838.783 85.7891C838.783 86.3232 838.35 86.7568 837.815 86.7568C837.281 86.7567 836.849 86.3231 836.849 85.7891C836.849 85.2552 837.282 84.8224 837.815 84.8223ZM837.815 81.5986C838.349 81.5986 838.783 82.0315 838.783 82.5654C838.783 83.0995 838.35 83.5332 837.815 83.5332C837.281 83.533 836.849 83.0994 836.849 82.5654C836.849 82.0316 837.282 81.5988 837.815 81.5986Z" fill="var(--sol-element-primary)"/>
<rect x="120.211" y="76.3684" width="680" height="18" rx="9" fill="var(--sol-border-solid-variant)"/>
<g clip-path="url(#clip1_1670_190156)">
<path d="M789.24 83.8815L789.312 84.1061L789.548 84.1051L792.301 84.0992L790.07 85.7125L789.88 85.8512L789.953 86.0748L790.809 88.691L788.585 87.068L788.396 86.9293L788.205 87.068L785.98 88.691L786.838 86.0748L786.911 85.8512L786.72 85.7125L784.488 84.0992L787.242 84.1051L787.478 84.1061L787.55 83.8815L788.395 81.2594L789.24 83.8815Z" stroke="var(--sol-element-primary)" stroke-width="0.644737"/>
</g>
<path d="M131.815 81.5C132.883 81.5 133.75 82.3656 133.75 83.4336V84.252C134.135 84.4749 134.395 84.8909 134.396 85.3682V87.3027C134.395 88.0148 133.818 88.5918 133.105 88.5918H130.526C129.814 88.5916 129.237 88.0147 129.237 87.3027V85.3682C129.237 84.8911 129.497 84.4749 129.882 84.252V83.4336C129.882 82.3659 130.748 81.5004 131.815 81.5ZM131.815 82.1445C131.104 82.145 130.527 82.722 130.526 83.4336V84.0791H133.105V83.4336C133.105 82.7217 132.527 82.1445 131.815 82.1445Z" fill="var(--sol-element-primary)"/>
<rect width="18.0526" height="18.0526" transform="translate(94.4209 76.3684)" fill="var(--sol-surface)"/>
<path d="M103.447 88.9408C105.185 88.9408 106.631 87.6901 106.934 86.0395H107.914C107.601 88.2266 105.72 89.9079 103.447 89.9079C100.954 89.9079 98.9336 87.8873 98.9336 85.3947C98.9336 82.9022 100.954 80.8816 103.447 80.8816C104.857 80.8816 106.117 81.5286 106.944 82.5421L107.96 81.5263V84.75H104.736L106.256 83.2304C105.607 82.39 104.59 81.8487 103.447 81.8487C101.488 81.8487 99.9007 83.4363 99.9007 85.3947C99.9007 87.3532 101.488 88.9408 103.447 88.9408Z" fill="var(--sol-element-primary)"/>
<rect width="18.0526" height="18.0526" transform="translate(73.7891 76.3684)" fill="var(--sol-surface)"/>
<path d="M78.9468 85.2335H86.6836M83.1375 88.6184L86.6836 85.2335L83.1375 81.5262" stroke="var(--sol-border-solid-variant)" stroke-width="0.967105" stroke-linecap="round" stroke-linejoin="round"/>
<rect width="18.0526" height="18.0526" transform="translate(53.1582 76.3684)" fill="var(--sol-surface)"/>
<path d="M66.0532 85.2335H58.3164M61.8625 88.6184L58.3164 85.2335L61.8625 81.5262" stroke="var(--sol-element-primary)" stroke-width="0.967105" stroke-linecap="round" stroke-linejoin="round"/>
<g clip-path="url(#clip2_1670_190156)">
<path d="M48 52.1263C48 50.682 48 49.9598 48.2811 49.4081C48.5283 48.9229 48.9229 48.5283 49.4081 48.2811C49.9598 48 50.682 48 52.1263 48H847.874C849.318 48 850.04 48 850.592 48.2811C851.077 48.5283 851.472 48.9229 851.719 49.4081C852 49.9598 852 50.682 852 52.1263V74H48V52.1263Z" fill="var(--sol-border-solid-variant)"/>
<path d="M265.25 63.4474H271.697M268.474 60.2238V66.6711" stroke="var(--sol-element-primary)" stroke-width="1.28947" stroke-linecap="round" stroke-linejoin="round"/>
<path d="M99.5791 58.3157C99.5791 55.4671 101.888 53.1578 104.737 53.1578H249.421C252.27 53.1578 254.579 55.4671 254.579 58.3157V74.1578H99.5791V58.3157Z" fill="var(--sol-surface)"/>
<path d="M248.549 60.7616L245.931 63.3788L248.549 65.9963L248.093 66.4522L245.475 63.8346L242.858 66.4522L242.402 65.9963L245.019 63.3788L242.402 60.7616L242.858 60.3058L245.475 62.9229L248.093 60.3058L248.549 60.7616Z" fill="var(--sol-element-primary)"/>
<path d="M259.737 74.1579H254.579V69C254.579 71.8486 256.888 74.1579 259.737 74.1579Z" fill="var(--sol-surface)"/>
<path d="M94.4209 74.1579H99.5788V69C99.5788 71.8486 97.2695 74.1579 94.4209 74.1579Z" fill="var(--sol-surface)"/>
<circle cx="86.6839" cy="63.3684" r="3.86842" fill="var(--color-green-500)"/>
<circle cx="86.6839" cy="63.3684" r="3.70724" stroke="var(--sol-element-primary)" stroke-opacity="0.16" stroke-width="0.322368"/>
<circle cx="73.7893" cy="63.3684" r="3.86842" fill="var(--color-yellow-500)"/>
<circle cx="73.7893" cy="63.3684" r="3.70724" stroke="var(--sol-element-primary)" stroke-opacity="0.16" stroke-width="0.322368"/>
<circle cx="60.8948" cy="63.3684" r="3.86842" fill="var(--sol-error)"/>
<circle cx="60.8948" cy="63.3684" r="3.70724" stroke="var(--sol-element-primary)" stroke-opacity="0.16" stroke-width="0.322368"/>
</g>
<rect x="72" y="117" width="150" height="383" fill="var(--sol-element-primary)" fill-opacity="0.04"/>
<rect x="242" y="117" width="179" height="22" fill="var(--sol-element-primary)" fill-opacity="0.04"/>
<rect x="242" y="147" width="117" height="14" fill="var(--sol-element-primary)" fill-opacity="0.04"/>
<g filter="url(#filter1_d_1670_190156)">
<rect x="242" y="221" width="283" height="79.6667" fill="var(--sol-element-primary)" fill-opacity="0.04" shape-rendering="crispEdges"/>
</g>
<g filter="url(#filter2_d_1670_190156)">
<rect x="545" y="221" width="283" height="79.6667" fill="var(--sol-element-primary)" fill-opacity="0.04" shape-rendering="crispEdges"/>
</g>
<g filter="url(#filter3_d_1670_190156)">
<rect x="242" y="320.667" width="283" height="79.6667" fill="var(--sol-element-primary)" fill-opacity="0.04" shape-rendering="crispEdges"/>
</g>
<g filter="url(#filter4_d_1670_190156)">
<rect x="545" y="320.667" width="283" height="79.6667" fill="var(--sol-element-primary)" fill-opacity="0.04" shape-rendering="crispEdges"/>
</g>
<g filter="url(#filter5_d_1670_190156)">
<rect x="242" y="420.333" width="283" height="79.6667" fill="var(--sol-element-primary)" fill-opacity="0.04" shape-rendering="crispEdges"/>
</g>
<g filter="url(#filter6_d_1670_190156)">
<rect x="545" y="420.333" width="283" height="79.6667" fill="var(--sol-element-primary)" fill-opacity="0.04" shape-rendering="crispEdges"/>
</g>
<g filter="url(#filter7_d_1670_190156)">
<path d="M240 183C240 180.791 241.791 179 244 179H343C345.209 179 347 180.791 347 183V199C347 201.209 345.209 203 343 203H244C241.791 203 240 201.209 240 199V183Z" fill="var(--sol-element-primary)" fill-opacity="0.01" shape-rendering="crispEdges"/>
</g>
<path d="M248.494 188.59C248.385 187.619 247.496 187.059 246.307 187.059C244.994 187.059 244.133 187.742 244.133 188.686C244.133 189.725 245.295 190.107 246.047 190.299L247.031 190.572C248.098 190.846 249.834 191.461 249.834 193.307C249.834 194.92 248.535 196.178 246.238 196.178C244.105 196.178 242.779 195.07 242.67 193.43H243.928C244.037 194.537 245.062 195.057 246.238 195.057C247.605 195.057 248.631 194.359 248.631 193.279C248.631 192.322 247.715 191.953 246.676 191.652L245.459 191.324C243.9 190.873 242.943 190.08 242.943 188.74C242.943 187.072 244.434 185.965 246.348 185.965C248.262 185.965 249.643 187.086 249.697 188.59H248.494ZM254.564 196.15C252.418 196.15 251.092 194.633 251.092 192.35C251.092 190.066 252.432 188.48 254.455 188.48C256.014 188.48 257.654 189.438 257.654 192.186V192.678H252.268C252.322 194.25 253.238 195.111 254.564 195.111C255.453 195.111 256.014 194.729 256.287 194.264H257.545C257.189 195.385 256.096 196.15 254.564 196.15ZM252.281 191.68H256.465C256.465 190.436 255.672 189.52 254.455 189.52C253.17 189.52 252.35 190.531 252.281 191.68ZM260.361 186.102V196H259.186V186.102H260.361ZM265.352 196.15C263.205 196.15 261.879 194.633 261.879 192.35C261.879 190.066 263.219 188.48 265.242 188.48C266.801 188.48 268.441 189.438 268.441 192.186V192.678H263.055C263.109 194.25 264.025 195.111 265.352 195.111C266.24 195.111 266.801 194.729 267.074 194.264H268.332C267.977 195.385 266.883 196.15 265.352 196.15ZM263.068 191.68H267.252C267.252 190.436 266.459 189.52 265.242 189.52C263.957 189.52 263.137 190.531 263.068 191.68ZM273.008 196.15C270.902 196.15 269.617 194.551 269.617 192.322C269.617 190.066 270.957 188.48 272.98 188.48C274.566 188.48 275.742 189.41 275.934 190.818H274.758C274.594 190.135 273.992 189.52 273.008 189.52C271.682 189.52 270.793 190.613 270.793 192.281C270.793 194.004 271.654 195.098 273.008 195.098C273.883 195.098 274.553 194.633 274.758 193.812H275.934C275.742 195.139 274.662 196.15 273.008 196.15ZM280.623 188.576V189.561H279.064V193.867C279.064 194.824 279.529 194.975 280.035 194.975C280.254 194.975 280.555 194.961 280.732 194.947V196.041C280.555 196.068 280.254 196.096 279.912 196.096C278.928 196.096 277.875 195.48 277.875 194.168V189.561H276.754V188.576H277.875V186.799H279.064V188.576H280.623ZM288.895 188.576V189.561H287.336V193.867C287.336 194.824 287.801 194.975 288.307 194.975C288.525 194.975 288.826 194.961 289.004 194.947V196.041C288.826 196.068 288.525 196.096 288.184 196.096C287.199 196.096 286.146 195.48 286.146 194.168V189.561H285.025V188.576H286.146V186.799H287.336V188.576H288.895ZM290.412 196V188.576H291.547V189.711H291.629C291.902 188.959 292.668 188.453 293.543 188.453C293.721 188.453 294.021 188.467 294.158 188.48V189.67C294.076 189.643 293.748 189.588 293.447 189.588C292.381 189.588 291.588 190.326 291.588 191.324V196H290.412ZM295.307 196V188.576H296.482V196H295.307ZM295.895 187.346C295.443 187.346 295.074 187.004 295.074 186.566C295.074 186.129 295.443 185.787 295.895 185.787C296.346 185.787 296.729 186.129 296.729 186.566C296.729 187.004 296.346 187.346 295.895 187.346ZM301.363 198.939C299.572 198.939 298.355 198.16 298.219 196.779H299.449C299.613 197.531 300.311 197.914 301.363 197.914C302.635 197.914 303.414 197.367 303.414 196.137V194.633H303.318C303.072 195.043 302.594 195.891 301.158 195.891C299.354 195.891 298 194.523 298 192.186C298 189.902 299.312 188.48 301.172 188.48C302.607 188.48 303.072 189.355 303.346 189.752H303.441V188.576H304.59V196.205C304.59 198.119 303.168 198.939 301.363 198.939ZM301.322 194.838C302.676 194.838 303.441 193.867 303.441 192.227C303.441 190.641 302.703 189.533 301.322 189.533C299.9 189.533 299.189 190.736 299.189 192.227C299.189 193.771 299.914 194.838 301.322 194.838ZM309.471 198.939C307.68 198.939 306.463 198.16 306.326 196.779H307.557C307.721 197.531 308.418 197.914 309.471 197.914C310.742 197.914 311.521 197.367 311.521 196.137V194.633H311.426C311.18 195.043 310.701 195.891 309.266 195.891C307.461 195.891 306.107 194.523 306.107 192.186C306.107 189.902 307.42 188.48 309.279 188.48C310.715 188.48 311.18 189.355 311.453 189.752H311.549V188.576H312.697V196.205C312.697 198.119 311.275 198.939 309.471 198.939ZM309.43 194.838C310.783 194.838 311.549 193.867 311.549 192.227C311.549 190.641 310.811 189.533 309.43 189.533C308.008 189.533 307.297 190.736 307.297 192.227C307.297 193.771 308.021 194.838 309.43 194.838ZM317.688 196.15C315.541 196.15 314.215 194.633 314.215 192.35C314.215 190.066 315.555 188.48 317.578 188.48C319.137 188.48 320.777 189.438 320.777 192.186V192.678H315.391C315.445 194.25 316.361 195.111 317.688 195.111C318.576 195.111 319.137 194.729 319.41 194.264H320.668C320.312 195.385 319.219 196.15 317.688 196.15ZM315.404 191.68H319.588C319.588 190.436 318.795 189.52 317.578 189.52C316.293 189.52 315.473 190.531 315.404 191.68ZM322.309 196V188.576H323.443V189.711H323.525C323.799 188.959 324.564 188.453 325.439 188.453C325.617 188.453 325.918 188.467 326.055 188.48V189.67C325.973 189.643 325.645 189.588 325.344 189.588C324.277 189.588 323.484 190.326 323.484 191.324V196H322.309Z" fill="var(--sol-element-primary)"/>
<mask id="mask0_1670_190156" style="mask-type:alpha" maskUnits="userSpaceOnUse" x="331" y="184" width="14" height="14">
<path d="M337.723 188.911C337.895 188.77 338.149 188.781 338.309 188.941L341.809 192.441L341.19 193.059L338 189.869L334.809 193.059L334.19 192.441L337.69 188.941L337.723 188.911Z" fill="var(--sol-static-black)"/>
</mask>
<g mask="url(#mask0_1670_190156)">
<rect x="331" y="184" width="14" height="14" fill="var(--sol-element-primary)"/>
</g>
<g filter="url(#filter8_dd_1670_190156)">
<g clip-path="url(#clip3_1670_190156)">
<path d="M242 209C242 206.791 243.791 205 246 205H398C400.209 205 402 206.791 402 209V366C402 368.209 400.209 370 398 370H246C243.791 370 242 368.209 242 366V209Z" fill="var(--sol-surface)"/>
<path d="M254.785 223V214.516H256.309V218.113H260.258V214.516H261.793V223H260.258V219.391H256.309V223H254.785ZM266.117 223.129C264.195 223.129 263.023 221.852 263.023 219.859C263.023 217.891 264.219 216.555 266.035 216.555C267.594 216.555 268.941 217.527 268.941 219.766V220.234H264.5C264.518 221.318 265.156 221.957 266.129 221.957C266.785 221.957 267.23 221.676 267.418 221.301H268.883C268.613 222.402 267.594 223.129 266.117 223.129ZM264.512 219.215H267.512C267.5 218.348 266.926 217.715 266.059 217.715C265.156 217.715 264.559 218.4 264.512 219.215ZM269.809 221.207C269.809 219.777 270.992 219.355 272.176 219.285C272.615 219.256 273.529 219.203 273.805 219.191V218.688C273.805 218.055 273.395 217.691 272.656 217.691C271.988 217.691 271.578 217.996 271.461 218.453H270.02C270.125 217.375 271.098 216.555 272.691 216.555C273.898 216.555 275.293 217.047 275.293 218.746V223H273.863V222.121H273.816C273.535 222.66 272.938 223.129 271.941 223.129C270.723 223.129 269.809 222.461 269.809 221.207ZM271.25 221.195C271.25 221.746 271.695 222.027 272.328 222.027C273.23 222.027 273.816 221.43 273.816 220.715V220.188L272.41 220.281C271.695 220.34 271.25 220.633 271.25 221.195ZM279.066 223.117C277.566 223.117 276.441 221.922 276.441 219.824C276.441 217.703 277.602 216.555 279.078 216.555C280.203 216.555 280.672 217.223 280.895 217.68H280.953V214.516H282.441V223H280.977V221.992H280.895C280.66 222.461 280.168 223.117 279.066 223.117ZM279.477 221.887C280.438 221.887 280.988 221.055 280.988 219.812C280.988 218.582 280.449 217.773 279.477 217.773C278.48 217.773 277.965 218.629 277.965 219.812C277.965 221.02 278.492 221.887 279.477 221.887ZM286.777 223.129C284.855 223.129 283.684 221.852 283.684 219.859C283.684 217.891 284.879 216.555 286.695 216.555C288.254 216.555 289.602 217.527 289.602 219.766V220.234H285.16C285.178 221.318 285.816 221.957 286.789 221.957C287.445 221.957 287.891 221.676 288.078 221.301H289.543C289.273 222.402 288.254 223.129 286.777 223.129ZM285.172 219.215H288.172C288.16 218.348 287.586 217.715 286.719 217.715C285.816 217.715 285.219 218.4 285.172 219.215ZM290.762 223V216.637H292.215V217.691H292.285C292.508 216.965 293.129 216.543 293.855 216.543C294.02 216.543 294.254 216.555 294.395 216.578V217.961C294.266 217.914 293.949 217.867 293.703 217.867C292.871 217.867 292.262 218.441 292.262 219.25V223H290.762Z" fill="var(--sol-element-primary)"/>
<mask id="mask1_1670_190156" style="mask-type:alpha" maskUnits="userSpaceOnUse" x="374" y="211" width="16" height="16">
<path d="M386.647 214.94L382.588 219L386.647 223.06L385.94 223.767L381.881 219.707L377.821 223.767L377.114 223.06L381.174 219L377.114 214.94L377.821 214.233L381.881 218.293L385.94 214.233L386.647 214.94Z" fill="var(--sol-static-black)"/>
</mask>
<g mask="url(#mask1_1670_190156)">
<rect x="374" y="211" width="16" height="16" fill="var(--sol-element-quaternary)"/>
</g>
<path d="M242 233.5C242 233.224 242.224 233 242.5 233L401.5 233C401.776 233 402 233.224 402 233.5V233.5C402 233.776 401.776 234 401.5 234L242.5 234C242.224 234 242 233.776 242 233.5V233.5Z" fill="var(--sol-border-normal-variant)"/>
<path d="M255.094 249.102H256.57L259.906 257.25H260.029L263.365 249.102H264.842V259H263.68V251.521H263.584L260.508 259H259.414L256.338 251.521H256.256V259H255.094V249.102ZM269.996 259.15C267.85 259.15 266.523 257.633 266.523 255.35C266.523 253.066 267.863 251.48 269.887 251.48C271.445 251.48 273.086 252.438 273.086 255.186V255.678H267.699C267.754 257.25 268.67 258.111 269.996 258.111C270.885 258.111 271.445 257.729 271.719 257.264H272.977C272.621 258.385 271.527 259.15 269.996 259.15ZM267.713 254.68H271.896C271.896 253.436 271.104 252.52 269.887 252.52C268.602 252.52 267.781 253.531 267.713 254.68ZM275.793 254.543V259H274.617V251.576H275.752V252.738H275.848C276.203 251.986 276.887 251.48 278.021 251.48C279.525 251.48 280.523 252.396 280.523 254.283V259H279.348V254.365C279.348 253.217 278.719 252.533 277.666 252.533C276.586 252.533 275.793 253.258 275.793 254.543ZM287.1 255.951V251.576H288.262V259H287.1V257.742H287.018C286.662 258.494 285.938 259.096 284.816 259.096C283.408 259.096 282.41 258.18 282.41 256.293V251.576H283.586V256.211C283.586 257.277 284.256 257.961 285.199 257.961C286.033 257.961 287.1 257.332 287.1 255.951ZM293.662 259V251.576H294.838V259H293.662ZM294.25 250.346C293.799 250.346 293.43 250.004 293.43 249.566C293.43 249.129 293.799 248.787 294.25 248.787C294.701 248.787 295.084 249.129 295.084 249.566C295.084 250.004 294.701 250.346 294.25 250.346ZM299.951 251.576V252.561H298.393V256.867C298.393 257.824 298.857 257.975 299.363 257.975C299.582 257.975 299.883 257.961 300.061 257.947V259.041C299.883 259.068 299.582 259.096 299.24 259.096C298.256 259.096 297.203 258.48 297.203 257.168V252.561H296.082V251.576H297.203V249.799H298.393V251.576H299.951ZM304.518 259.15C302.371 259.15 301.045 257.633 301.045 255.35C301.045 253.066 302.385 251.48 304.408 251.48C305.967 251.48 307.607 252.438 307.607 255.186V255.678H302.221C302.275 257.25 303.191 258.111 304.518 258.111C305.406 258.111 305.967 257.729 306.24 257.264H307.498C307.143 258.385 306.049 259.15 304.518 259.15ZM302.234 254.68H306.418C306.418 253.436 305.625 252.52 304.408 252.52C303.123 252.52 302.303 253.531 302.234 254.68ZM309.139 259V251.576H310.273V252.738H310.369C310.684 251.945 311.395 251.48 312.365 251.48C313.336 251.48 313.992 251.945 314.348 252.738H314.43C314.812 251.973 315.592 251.48 316.658 251.48C317.984 251.48 318.928 252.287 318.928 254.037V259H317.752V254.051C317.752 252.957 317.055 252.533 316.248 252.533C315.209 252.533 314.621 253.23 314.621 254.174V259H313.432V253.928C313.432 253.094 312.83 252.533 311.982 252.533C311.094 252.533 310.314 253.285 310.314 254.365V259H309.139Z" fill="var(--sol-element-primary)"/>
<path d="M255.094 281.102H256.57L259.906 289.25H260.029L263.365 281.102H264.842V291H263.68V283.521H263.584L260.508 291H259.414L256.338 283.521H256.256V291H255.094V281.102ZM269.996 291.15C267.85 291.15 266.523 289.633 266.523 287.35C266.523 285.066 267.863 283.48 269.887 283.48C271.445 283.48 273.086 284.438 273.086 287.186V287.678H267.699C267.754 289.25 268.67 290.111 269.996 290.111C270.885 290.111 271.445 289.729 271.719 289.264H272.977C272.621 290.385 271.527 291.15 269.996 291.15ZM267.713 286.68H271.896C271.896 285.436 271.104 284.52 269.887 284.52C268.602 284.52 267.781 285.531 267.713 286.68ZM275.793 286.543V291H274.617V283.576H275.752V284.738H275.848C276.203 283.986 276.887 283.48 278.021 283.48C279.525 283.48 280.523 284.396 280.523 286.283V291H279.348V286.365C279.348 285.217 278.719 284.533 277.666 284.533C276.586 284.533 275.793 285.258 275.793 286.543ZM287.1 287.951V283.576H288.262V291H287.1V289.742H287.018C286.662 290.494 285.938 291.096 284.816 291.096C283.408 291.096 282.41 290.18 282.41 288.293V283.576H283.586V288.211C283.586 289.277 284.256 289.961 285.199 289.961C286.033 289.961 287.1 289.332 287.1 287.951ZM293.662 291V283.576H294.838V291H293.662ZM294.25 282.346C293.799 282.346 293.43 282.004 293.43 281.566C293.43 281.129 293.799 280.787 294.25 280.787C294.701 280.787 295.084 281.129 295.084 281.566C295.084 282.004 294.701 282.346 294.25 282.346ZM299.951 283.576V284.561H298.393V288.867C298.393 289.824 298.857 289.975 299.363 289.975C299.582 289.975 299.883 289.961 300.061 289.947V291.041C299.883 291.068 299.582 291.096 299.24 291.096C298.256 291.096 297.203 290.48 297.203 289.168V284.561H296.082V283.576H297.203V281.799H298.393V283.576H299.951ZM304.518 291.15C302.371 291.15 301.045 289.633 301.045 287.35C301.045 285.066 302.385 283.48 304.408 283.48C305.967 283.48 307.607 284.438 307.607 287.186V287.678H302.221C302.275 289.25 303.191 290.111 304.518 290.111C305.406 290.111 305.967 289.729 306.24 289.264H307.498C307.143 290.385 306.049 291.15 304.518 291.15ZM302.234 286.68H306.418C306.418 285.436 305.625 284.52 304.408 284.52C303.123 284.52 302.303 285.531 302.234 286.68ZM309.139 291V283.576H310.273V284.738H310.369C310.684 283.945 311.395 283.48 312.365 283.48C313.336 283.48 313.992 283.945 314.348 284.738H314.43C314.812 283.973 315.592 283.48 316.658 283.48C317.984 283.48 318.928 284.287 318.928 286.037V291H317.752V286.051C317.752 284.957 317.055 284.533 316.248 284.533C315.209 284.533 314.621 285.23 314.621 286.174V291H313.432V285.928C313.432 285.094 312.83 284.533 311.982 284.533C311.094 284.533 310.314 285.285 310.314 286.365V291H309.139Z" fill="var(--sol-element-primary)"/>
<path d="M255.094 313.102H256.57L259.906 321.25H260.029L263.365 313.102H264.842V323H263.68V315.521H263.584L260.508 323H259.414L256.338 315.521H256.256V323H255.094V313.102ZM269.996 323.15C267.85 323.15 266.523 321.633 266.523 319.35C266.523 317.066 267.863 315.48 269.887 315.48C271.445 315.48 273.086 316.438 273.086 319.186V319.678H267.699C267.754 321.25 268.67 322.111 269.996 322.111C270.885 322.111 271.445 321.729 271.719 321.264H272.977C272.621 322.385 271.527 323.15 269.996 323.15ZM267.713 318.68H271.896C271.896 317.436 271.104 316.52 269.887 316.52C268.602 316.52 267.781 317.531 267.713 318.68ZM275.793 318.543V323H274.617V315.576H275.752V316.738H275.848C276.203 315.986 276.887 315.48 278.021 315.48C279.525 315.48 280.523 316.396 280.523 318.283V323H279.348V318.365C279.348 317.217 278.719 316.533 277.666 316.533C276.586 316.533 275.793 317.258 275.793 318.543ZM287.1 319.951V315.576H288.262V323H287.1V321.742H287.018C286.662 322.494 285.938 323.096 284.816 323.096C283.408 323.096 282.41 322.18 282.41 320.293V315.576H283.586V320.211C283.586 321.277 284.256 321.961 285.199 321.961C286.033 321.961 287.1 321.332 287.1 319.951ZM293.662 323V315.576H294.838V323H293.662ZM294.25 314.346C293.799 314.346 293.43 314.004 293.43 313.566C293.43 313.129 293.799 312.787 294.25 312.787C294.701 312.787 295.084 313.129 295.084 313.566C295.084 314.004 294.701 314.346 294.25 314.346ZM299.951 315.576V316.561H298.393V320.867C298.393 321.824 298.857 321.975 299.363 321.975C299.582 321.975 299.883 321.961 300.061 321.947V323.041C299.883 323.068 299.582 323.096 299.24 323.096C298.256 323.096 297.203 322.48 297.203 321.168V316.561H296.082V315.576H297.203V313.799H298.393V315.576H299.951ZM304.518 323.15C302.371 323.15 301.045 321.633 301.045 319.35C301.045 317.066 302.385 315.48 304.408 315.48C305.967 315.48 307.607 316.438 307.607 319.186V319.678H302.221C302.275 321.25 303.191 322.111 304.518 322.111C305.406 322.111 305.967 321.729 306.24 321.264H307.498C307.143 322.385 306.049 323.15 304.518 323.15ZM302.234 318.68H306.418C306.418 317.436 305.625 316.52 304.408 316.52C303.123 316.52 302.303 317.531 302.234 318.68ZM309.139 323V315.576H310.273V316.738H310.369C310.684 315.945 311.395 315.48 312.365 315.48C313.336 315.48 313.992 315.945 314.348 316.738H314.43C314.812 315.973 315.592 315.48 316.658 315.48C317.984 315.48 318.928 316.287 318.928 318.037V323H317.752V318.051C317.752 316.957 317.055 316.533 316.248 316.533C315.209 316.533 314.621 317.23 314.621 318.174V323H313.432V317.928C313.432 317.094 312.83 316.533 311.982 316.533C311.094 316.533 310.314 317.285 310.314 318.365V323H309.139Z" fill="var(--sol-element-primary)"/>
<path d="M255.094 345.102H256.57L259.906 353.25H260.029L263.365 345.102H264.842V355H263.68V347.521H263.584L260.508 355H259.414L256.338 347.521H256.256V355H255.094V345.102ZM269.996 355.15C267.85 355.15 266.523 353.633 266.523 351.35C266.523 349.066 267.863 347.48 269.887 347.48C271.445 347.48 273.086 348.438 273.086 351.186V351.678H267.699C267.754 353.25 268.67 354.111 269.996 354.111C270.885 354.111 271.445 353.729 271.719 353.264H272.977C272.621 354.385 271.527 355.15 269.996 355.15ZM267.713 350.68H271.896C271.896 349.436 271.104 348.52 269.887 348.52C268.602 348.52 267.781 349.531 267.713 350.68ZM275.793 350.543V355H274.617V347.576H275.752V348.738H275.848C276.203 347.986 276.887 347.48 278.021 347.48C279.525 347.48 280.523 348.396 280.523 350.283V355H279.348V350.365C279.348 349.217 278.719 348.533 277.666 348.533C276.586 348.533 275.793 349.258 275.793 350.543ZM287.1 351.951V347.576H288.262V355H287.1V353.742H287.018C286.662 354.494 285.938 355.096 284.816 355.096C283.408 355.096 282.41 354.18 282.41 352.293V347.576H283.586V352.211C283.586 353.277 284.256 353.961 285.199 353.961C286.033 353.961 287.1 353.332 287.1 351.951ZM293.662 355V347.576H294.838V355H293.662ZM294.25 346.346C293.799 346.346 293.43 346.004 293.43 345.566C293.43 345.129 293.799 344.787 294.25 344.787C294.701 344.787 295.084 345.129 295.084 345.566C295.084 346.004 294.701 346.346 294.25 346.346ZM299.951 347.576V348.561H298.393V352.867C298.393 353.824 298.857 353.975 299.363 353.975C299.582 353.975 299.883 353.961 300.061 353.947V355.041C299.883 355.068 299.582 355.096 299.24 355.096C298.256 355.096 297.203 354.48 297.203 353.168V348.561H296.082V347.576H297.203V345.799H298.393V347.576H299.951ZM304.518 355.15C302.371 355.15 301.045 353.633 301.045 351.35C301.045 349.066 302.385 347.48 304.408 347.48C305.967 347.48 307.607 348.438 307.607 351.186V351.678H302.221C302.275 353.25 303.191 354.111 304.518 354.111C305.406 354.111 305.967 353.729 306.24 353.264H307.498C307.143 354.385 306.049 355.15 304.518 355.15ZM302.234 350.68H306.418C306.418 349.436 305.625 348.52 304.408 348.52C303.123 348.52 302.303 349.531 302.234 350.68ZM309.139 355V347.576H310.273V348.738H310.369C310.684 347.945 311.395 347.48 312.365 347.48C313.336 347.48 313.992 347.945 314.348 348.738H314.43C314.812 347.973 315.592 347.48 316.658 347.48C317.984 347.48 318.928 348.287 318.928 350.037V355H317.752V350.051C317.752 348.957 317.055 348.533 316.248 348.533C315.209 348.533 314.621 349.23 314.621 350.174V355H313.432V349.928C313.432 349.094 312.83 348.533 311.982 348.533C311.094 348.533 310.314 349.285 310.314 350.365V355H309.139Z" fill="var(--sol-element-primary)"/>
<g clip-path="url(#clip4_1670_190156)">
<rect x="394" y="238" width="4" height="64" fill="var(--sol-border-solid-variant)"/>
</g>
</g>
</g>
</g>
<path d="M56 48.5H844C848.142 48.5 851.5 51.8579 851.5 56V522C851.5 526.142 848.142 529.5 844 529.5H56C51.8579 529.5 48.5 526.142 48.5 522V56L48.5098 55.6143C48.7105 51.6514 51.9872 48.5 56 48.5Z" stroke="var(--sol-border-solid-variant)"/>
<defs>
<filter id="filter0_d_1670_190156" x="48" y="73.7894" width="804" height="23.6447" filterUnits="userSpaceOnUse" color-interpolation-filters="sRGB">
<feFlood flood-opacity="0" result="BackgroundImageFix"/>
<feColorMatrix in="SourceAlpha" type="matrix" values="0 0 0 0 0 0 0 0 0 0 0 0 0 0 0 0 0 0 127 0" result="hardAlpha"/>
<feOffset dy="0.644737"/>
<feColorMatrix type="matrix" values="0 0 0 0 0.937725 0 0 0 0 0.944105 0 0 0 0 0.956863 0 0 0 1 0"/>
<feBlend mode="normal" in2="BackgroundImageFix" result="effect1_dropShadow_1670_190156"/>
<feBlend mode="normal" in="SourceGraphic" in2="effect1_dropShadow_1670_190156" result="shape"/>
</filter>
<filter id="filter1_d_1670_190156" x="240" y="221" width="287" height="83.6666" filterUnits="userSpaceOnUse" color-interpolation-filters="sRGB">
<feFlood flood-opacity="0" result="BackgroundImageFix"/>
<feColorMatrix in="SourceAlpha" type="matrix" values="0 0 0 0 0 0 0 0 0 0 0 0 0 0 0 0 0 0 127 0" result="hardAlpha"/>
<feOffset dy="2"/>
<feGaussianBlur stdDeviation="1"/>
<feComposite in2="hardAlpha" operator="out"/>
<feColorMatrix type="matrix" values="0 0 0 0 0 0 0 0 0 0 0 0 0 0 0 0 0 0 0.04 0"/>
<feBlend mode="normal" in2="BackgroundImageFix" result="effect1_dropShadow_1670_190156"/>
<feBlend mode="normal" in="SourceGraphic" in2="effect1_dropShadow_1670_190156" result="shape"/>
</filter>
<filter id="filter2_d_1670_190156" x="543" y="221" width="287" height="83.6666" filterUnits="userSpaceOnUse" color-interpolation-filters="sRGB">
<feFlood flood-opacity="0" result="BackgroundImageFix"/>
<feColorMatrix in="SourceAlpha" type="matrix" values="0 0 0 0 0 0 0 0 0 0 0 0 0 0 0 0 0 0 127 0" result="hardAlpha"/>
<feOffset dy="2"/>
<feGaussianBlur stdDeviation="1"/>
<feComposite in2="hardAlpha" operator="out"/>
<feColorMatrix type="matrix" values="0 0 0 0 0 0 0 0 0 0 0 0 0 0 0 0 0 0 0.04 0"/>
<feBlend mode="normal" in2="BackgroundImageFix" result="effect1_dropShadow_1670_190156"/>
<feBlend mode="normal" in="SourceGraphic" in2="effect1_dropShadow_1670_190156" result="shape"/>
</filter>
<filter id="filter3_d_1670_190156" x="240" y="320.667" width="287" height="83.6666" filterUnits="userSpaceOnUse" color-interpolation-filters="sRGB">
<feFlood flood-opacity="0" result="BackgroundImageFix"/>
<feColorMatrix in="SourceAlpha" type="matrix" values="0 0 0 0 0 0 0 0 0 0 0 0 0 0 0 0 0 0 127 0" result="hardAlpha"/>
<feOffset dy="2"/>
<feGaussianBlur stdDeviation="1"/>
<feComposite in2="hardAlpha" operator="out"/>
<feColorMatrix type="matrix" values="0 0 0 0 0 0 0 0 0 0 0 0 0 0 0 0 0 0 0.04 0"/>
<feBlend mode="normal" in2="BackgroundImageFix" result="effect1_dropShadow_1670_190156"/>
<feBlend mode="normal" in="SourceGraphic" in2="effect1_dropShadow_1670_190156" result="shape"/>
</filter>
<filter id="filter4_d_1670_190156" x="543" y="320.667" width="287" height="83.6666" filterUnits="userSpaceOnUse" color-interpolation-filters="sRGB">
<feFlood flood-opacity="0" result="BackgroundImageFix"/>
<feColorMatrix in="SourceAlpha" type="matrix" values="0 0 0 0 0 0 0 0 0 0 0 0 0 0 0 0 0 0 127 0" result="hardAlpha"/>
<feOffset dy="2"/>
<feGaussianBlur stdDeviation="1"/>
<feComposite in2="hardAlpha" operator="out"/>
<feColorMatrix type="matrix" values="0 0 0 0 0 0 0 0 0 0 0 0 0 0 0 0 0 0 0.04 0"/>
<feBlend mode="normal" in2="BackgroundImageFix" result="effect1_dropShadow_1670_190156"/>
<feBlend mode="normal" in="SourceGraphic" in2="effect1_dropShadow_1670_190156" result="shape"/>
</filter>
<filter id="filter5_d_1670_190156" x="240" y="420.333" width="287" height="83.6666" filterUnits="userSpaceOnUse" color-interpolation-filters="sRGB">
<feFlood flood-opacity="0" result="BackgroundImageFix"/>
<feColorMatrix in="SourceAlpha" type="matrix" values="0 0 0 0 0 0 0 0 0 0 0 0 0 0 0 0 0 0 127 0" result="hardAlpha"/>
<feOffset dy="2"/>
<feGaussianBlur stdDeviation="1"/>
<feComposite in2="hardAlpha" operator="out"/>
<feColorMatrix type="matrix" values="0 0 0 0 0 0 0 0 0 0 0 0 0 0 0 0 0 0 0.04 0"/>
<feBlend mode="normal" in2="BackgroundImageFix" result="effect1_dropShadow_1670_190156"/>
<feBlend mode="normal" in="SourceGraphic" in2="effect1_dropShadow_1670_190156" result="shape"/>
</filter>
<filter id="filter6_d_1670_190156" x="543" y="420.333" width="287" height="83.6666" filterUnits="userSpaceOnUse" color-interpolation-filters="sRGB">
<feFlood flood-opacity="0" result="BackgroundImageFix"/>
<feColorMatrix in="SourceAlpha" type="matrix" values="0 0 0 0 0 0 0 0 0 0 0 0 0 0 0 0 0 0 127 0" result="hardAlpha"/>
<feOffset dy="2"/>
<feGaussianBlur stdDeviation="1"/>
<feComposite in2="hardAlpha" operator="out"/>
<feColorMatrix type="matrix" values="0 0 0 0 0 0 0 0 0 0 0 0 0 0 0 0 0 0 0.04 0"/>
<feBlend mode="normal" in2="BackgroundImageFix" result="effect1_dropShadow_1670_190156"/>
<feBlend mode="normal" in="SourceGraphic" in2="effect1_dropShadow_1670_190156" result="shape"/>
</filter>
<filter id="filter7_d_1670_190156" x="238" y="177" width="111" height="28" filterUnits="userSpaceOnUse" color-interpolation-filters="sRGB">
<feFlood flood-opacity="0" result="BackgroundImageFix"/>
<feColorMatrix in="SourceAlpha" type="matrix" values="0 0 0 0 0 0 0 0 0 0 0 0 0 0 0 0 0 0 127 0" result="hardAlpha"/>
<feMorphology radius="2" operator="dilate" in="SourceAlpha" result="effect1_dropShadow_1670_190156"/>
<feOffset/>
<feComposite in2="hardAlpha" operator="out"/>
<feColorMatrix type="matrix" values="0 0 0 0 0.156863 0 0 0 0 0.137255 0 0 0 0 0.388235 0 0 0 1 0"/>
<feBlend mode="normal" in2="BackgroundImageFix" result="effect1_dropShadow_1670_190156"/>
<feBlend mode="normal" in="SourceGraphic" in2="effect1_dropShadow_1670_190156" result="shape"/>
</filter>
<filter id="filter8_dd_1670_190156" x="234" y="201" width="176" height="181" filterUnits="userSpaceOnUse" color-interpolation-filters="sRGB">
<feFlood flood-opacity="0" result="BackgroundImageFix"/>
<feColorMatrix in="SourceAlpha" type="matrix" values="0 0 0 0 0 0 0 0 0 0 0 0 0 0 0 0 0 0 127 0" result="hardAlpha"/>
<feOffset dy="4"/>
<feGaussianBlur stdDeviation="4"/>
<feComposite in2="hardAlpha" operator="out"/>
<feColorMatrix type="matrix" values="0 0 0 0 0 0 0 0 0 0 0 0 0 0 0 0 0 0 0.08 0"/>
<feBlend mode="normal" in2="BackgroundImageFix" result="effect1_dropShadow_1670_190156"/>
<feColorMatrix in="SourceAlpha" type="matrix" values="0 0 0 0 0 0 0 0 0 0 0 0 0 0 0 0 0 0 127 0" result="hardAlpha"/>
<feOffset/>
<feGaussianBlur stdDeviation="0.5"/>
<feComposite in2="hardAlpha" operator="out"/>
<feColorMatrix type="matrix" values="0 0 0 0 0 0 0 0 0 0 0 0 0 0 0 0 0 0 0.08 0"/>
<feBlend mode="normal" in2="effect1_dropShadow_1670_190156" result="effect2_dropShadow_1670_190156"/>
<feBlend mode="normal" in="SourceGraphic" in2="effect2_dropShadow_1670_190156" result="shape"/>
</filter>
<clipPath id="clip0_1670_190156">
<path d="M48 56C48 51.5817 51.5817 48 56 48H844C848.418 48 852 51.5817 852 56V522C852 526.418 848.418 530 844 530H56C51.5817 530 48 526.418 48 522V56Z" fill="var(--sol-surface)"/>
</clipPath>
<clipPath id="clip1_1670_190156">
<rect width="10.3158" height="10.3158" fill="var(--sol-surface)" transform="translate(783.237 80.2106)"/>
</clipPath>
<clipPath id="clip2_1670_190156">
<rect width="804" height="25.7895" fill="var(--sol-surface)" transform="translate(48 48)"/>
</clipPath>
<clipPath id="clip3_1670_190156">
<path d="M242 209C242 206.791 243.791 205 246 205H398C400.209 205 402 206.791 402 209V366C402 368.209 400.209 370 398 370H246C243.791 370 242 368.209 242 366V209Z" fill="var(--sol-surface)"/>
</clipPath>
<clipPath id="clip4_1670_190156">
<path d="M394 240C394 238.895 394.895 238 396 238V238C397.105 238 398 238.895 398 240V300C398 301.105 397.105 302 396 302V302C394.895 302 394 301.105 394 300V240Z" fill="var(--sol-surface)"/>
</clipPath>
</defs>
</svg>
