<svg width="442" height="240" viewBox="0 0 442 240" fill="none" xmlns="http://www.w3.org/2000/svg">
<style>
:root {
  --sol-element-primary: #161616;
  --sol-element-tertiary: #636363;
  --sol-element-quaternary: #858585;
  --sol-surface: #ffffff;
  --sol-border-solid-variant: #e0e0e0;
  --sol-static-white: #ffffff;
  --sol-static-black: #000000;
  --color-indigo-700: #142e96;
  --color-indigo-400: #6280e4;
  --color-orange-700: #833606;
  --color-orange-500: #e06418;
  --color-yellow-600: #a88900;
  --color-yellow-400: #ecc824;
  --color-yellow-300: #f5dc6a;
  --color-green-500: #35a142;
  --color-green-400: #5cc066;
  --color-blue-200: #c2e6f7;
  --color-red-700: #8a2e38;
  --color-red-600: #b84451;
  --color-red-500: #e76067;
}
@media (prefers-color-scheme: dark) {
  :root {
    --sol-element-primary: #ffffff;
    --sol-element-tertiary: rgba(255, 255, 255, 0.60);
    --sol-element-quaternary: rgba(255, 255, 255, 0.50);
    --sol-surface: #161616;
    --sol-border-solid-variant: #3d3d3d;
  }
}
</style>

<g clip-path="url(#clip0_1670_193078)">
<path d="M137.5 51C137.5 43.268 143.768 37 151.5 37V37C159.232 37 165.5 43.268 165.5 51V51C165.5 58.732 159.232 65 151.5 65V65C143.768 65 137.5 58.732 137.5 51V51Z" fill="var(--sol-element-primary)" fill-opacity="0.12"/>
<mask id="mask0_1670_193078" style="mask-type:alpha" maskUnits="userSpaceOnUse" x="141" y="41" width="21" height="20">
<path d="M146.215 49.7025C146.385 49.7025 146.554 49.736 146.711 49.8011C146.868 49.8662 147.011 49.9617 147.132 50.0821C147.252 50.2025 147.348 50.3455 147.413 50.5029C147.478 50.6602 147.512 50.8289 147.512 50.9992C147.512 51.1695 147.479 51.3382 147.413 51.4956C147.348 51.653 147.253 51.796 147.132 51.9165C147.012 52.037 146.869 52.1326 146.712 52.1978C146.554 52.263 146.386 52.2966 146.215 52.2967C145.871 52.2968 145.541 52.1603 145.298 51.9171C145.055 51.6739 144.918 51.344 144.918 51C144.918 50.656 145.054 50.3261 145.298 50.0827C145.541 49.8394 145.871 49.7026 146.215 49.7025Z" fill="var(--sol-static-black)"/>
<path d="M151.5 49.7025C150.783 49.7025 150.203 50.2831 150.203 50.9992C150.203 51.7153 150.783 52.2959 151.5 52.2959C152.216 52.2959 152.796 51.7153 152.796 50.9992C152.796 50.2831 152.216 49.7025 151.5 49.7025Z" fill="var(--sol-static-black)"/>
<path d="M156.785 49.7025C156.069 49.7025 155.489 50.2831 155.489 50.9992C155.489 51.7153 156.069 52.2959 156.785 52.2959C157.501 52.2959 158.082 51.7153 158.082 50.9992C158.082 50.2831 157.501 49.7025 156.785 49.7025Z" fill="var(--sol-static-black)"/>
</mask>
<g mask="url(#mask0_1670_193078)">
<rect x="141.5" y="41" width="20" height="20" fill="var(--sol-element-primary)"/>
</g>
<g filter="url(#filter0_dd_1670_193078)">
<g clip-path="url(#clip1_1670_193078)">
<path d="M141.5 77C141.5 74.7909 143.291 73 145.5 73H297.5C299.709 73 301.5 74.7909 301.5 77V309C301.5 311.209 299.709 313 297.5 313H145.5C143.291 313 141.5 311.209 141.5 309V77Z" fill="var(--sol-surface)"/>
<g clip-path="url(#clip2_1670_193078)">
<g clip-path="url(#clip3_1670_193078)">
<path d="M159.994 89.5898C159.885 88.6191 158.996 88.0586 157.807 88.0586C156.494 88.0586 155.633 88.7422 155.633 89.6855C155.633 90.7246 156.795 91.1074 157.547 91.2988L158.531 91.5723C159.598 91.8457 161.334 92.4609 161.334 94.3066C161.334 95.9199 160.035 97.1777 157.738 97.1777C155.605 97.1777 154.279 96.0703 154.17 94.4297H155.428C155.537 95.5371 156.562 96.0566 157.738 96.0566C159.105 96.0566 160.131 95.3594 160.131 94.2793C160.131 93.3223 159.215 92.9531 158.176 92.6523L156.959 92.3242C155.4 91.873 154.443 91.0801 154.443 89.7402C154.443 88.0723 155.934 86.9648 157.848 86.9648C159.762 86.9648 161.143 88.0859 161.197 89.5898H159.994ZM166.188 89.5762V90.5605H164.629V94.8672C164.629 95.8242 165.094 95.9746 165.6 95.9746C165.818 95.9746 166.119 95.9609 166.297 95.9473V97.041C166.119 97.0684 165.818 97.0957 165.477 97.0957C164.492 97.0957 163.439 96.4805 163.439 95.168V90.5605H162.318V89.5762H163.439V87.7988H164.629V89.5762H166.188ZM170.672 97.1504C168.648 97.1504 167.281 95.6328 167.281 93.3223C167.281 91.0117 168.648 89.4805 170.672 89.4805C172.682 89.4805 174.035 91.0117 174.035 93.3223C174.035 95.6328 172.682 97.1504 170.672 97.1504ZM170.672 96.1113C172.162 96.1113 172.859 94.7988 172.859 93.3223C172.859 91.8457 172.162 90.5195 170.672 90.5195C169.154 90.5195 168.457 91.8457 168.457 93.3223C168.457 94.7988 169.154 96.1113 170.672 96.1113ZM175.58 97V89.5762H176.715V90.7109H176.797C177.07 89.959 177.836 89.4531 178.711 89.4531C178.889 89.4531 179.189 89.4668 179.326 89.4805V90.6699C179.244 90.6426 178.916 90.5879 178.615 90.5879C177.549 90.5879 176.756 91.3262 176.756 92.3242V97H175.58ZM183.359 97.1504C181.213 97.1504 179.887 95.6328 179.887 93.3496C179.887 91.0664 181.227 89.4805 183.25 89.4805C184.809 89.4805 186.449 90.4375 186.449 93.1855V93.6777H181.062C181.117 95.25 182.033 96.1113 183.359 96.1113C184.248 96.1113 184.809 95.7285 185.082 95.2637H186.34C185.984 96.3848 184.891 97.1504 183.359 97.1504ZM181.076 92.6797H185.26C185.26 91.4355 184.467 90.5195 183.25 90.5195C181.965 90.5195 181.145 91.5312 181.076 92.6797ZM192.082 97H190.797L194.42 87.1016H195.719L199.342 97H198.043L197.059 94.2109H193.08L192.082 97ZM193.449 93.1309H196.676L195.104 88.7012H195.021L193.449 93.1309Z" fill="var(--sol-element-primary)"/>
</g>
<g clip-path="url(#clip4_1670_193078)">
<path d="M159.994 119.59C159.885 118.619 158.996 118.059 157.807 118.059C156.494 118.059 155.633 118.742 155.633 119.686C155.633 120.725 156.795 121.107 157.547 121.299L158.531 121.572C159.598 121.846 161.334 122.461 161.334 124.307C161.334 125.92 160.035 127.178 157.738 127.178C155.605 127.178 154.279 126.07 154.17 124.43H155.428C155.537 125.537 156.562 126.057 157.738 126.057C159.105 126.057 160.131 125.359 160.131 124.279C160.131 123.322 159.215 122.953 158.176 122.652L156.959 122.324C155.4 121.873 154.443 121.08 154.443 119.74C154.443 118.072 155.934 116.965 157.848 116.965C159.762 116.965 161.143 118.086 161.197 119.59H159.994ZM166.188 119.576V120.561H164.629V124.867C164.629 125.824 165.094 125.975 165.6 125.975C165.818 125.975 166.119 125.961 166.297 125.947V127.041C166.119 127.068 165.818 127.096 165.477 127.096C164.492 127.096 163.439 126.48 163.439 125.168V120.561H162.318V119.576H163.439V117.799H164.629V119.576H166.188ZM170.672 127.15C168.648 127.15 167.281 125.633 167.281 123.322C167.281 121.012 168.648 119.48 170.672 119.48C172.682 119.48 174.035 121.012 174.035 123.322C174.035 125.633 172.682 127.15 170.672 127.15ZM170.672 126.111C172.162 126.111 172.859 124.799 172.859 123.322C172.859 121.846 172.162 120.52 170.672 120.52C169.154 120.52 168.457 121.846 168.457 123.322C168.457 124.799 169.154 126.111 170.672 126.111ZM175.58 127V119.576H176.715V120.711H176.797C177.07 119.959 177.836 119.453 178.711 119.453C178.889 119.453 179.189 119.467 179.326 119.48V120.67C179.244 120.643 178.916 120.588 178.615 120.588C177.549 120.588 176.756 121.326 176.756 122.324V127H175.58ZM183.359 127.15C181.213 127.15 179.887 125.633 179.887 123.35C179.887 121.066 181.227 119.48 183.25 119.48C184.809 119.48 186.449 120.438 186.449 123.186V123.678H181.062C181.117 125.25 182.033 126.111 183.359 126.111C184.248 126.111 184.809 125.729 185.082 125.264H186.34C185.984 126.385 184.891 127.15 183.359 127.15ZM181.076 122.68H185.26C185.26 121.436 184.467 120.52 183.25 120.52C181.965 120.52 181.145 121.531 181.076 122.68ZM191.645 127V117.102H195.117C197.195 117.102 198.166 118.264 198.166 119.727C198.166 120.998 197.414 121.572 196.553 121.805V121.9C197.469 121.955 198.562 122.803 198.562 124.375C198.562 125.865 197.578 127 195.24 127H191.645ZM195.227 125.906C196.771 125.906 197.373 125.223 197.373 124.361C197.373 123.35 196.566 122.502 195.295 122.502H192.875V125.906H195.227ZM195.076 121.436C196.143 121.436 196.99 120.779 196.99 119.74C196.99 118.879 196.416 118.195 195.117 118.195H192.875V121.436H195.076Z" fill="var(--sol-element-primary)"/>
</g>
<g clip-path="url(#clip5_1670_193078)">
<path d="M159.994 149.59C159.885 148.619 158.996 148.059 157.807 148.059C156.494 148.059 155.633 148.742 155.633 149.686C155.633 150.725 156.795 151.107 157.547 151.299L158.531 151.572C159.598 151.846 161.334 152.461 161.334 154.307C161.334 155.92 160.035 157.178 157.738 157.178C155.605 157.178 154.279 156.07 154.17 154.43H155.428C155.537 155.537 156.562 156.057 157.738 156.057C159.105 156.057 160.131 155.359 160.131 154.279C160.131 153.322 159.215 152.953 158.176 152.652L156.959 152.324C155.4 151.873 154.443 151.08 154.443 149.74C154.443 148.072 155.934 146.965 157.848 146.965C159.762 146.965 161.143 148.086 161.197 149.59H159.994ZM166.188 149.576V150.561H164.629V154.867C164.629 155.824 165.094 155.975 165.6 155.975C165.818 155.975 166.119 155.961 166.297 155.947V157.041C166.119 157.068 165.818 157.096 165.477 157.096C164.492 157.096 163.439 156.48 163.439 155.168V150.561H162.318V149.576H163.439V147.799H164.629V149.576H166.188ZM170.672 157.15C168.648 157.15 167.281 155.633 167.281 153.322C167.281 151.012 168.648 149.48 170.672 149.48C172.682 149.48 174.035 151.012 174.035 153.322C174.035 155.633 172.682 157.15 170.672 157.15ZM170.672 156.111C172.162 156.111 172.859 154.799 172.859 153.322C172.859 151.846 172.162 150.52 170.672 150.52C169.154 150.52 168.457 151.846 168.457 153.322C168.457 154.799 169.154 156.111 170.672 156.111ZM175.58 157V149.576H176.715V150.711H176.797C177.07 149.959 177.836 149.453 178.711 149.453C178.889 149.453 179.189 149.467 179.326 149.48V150.67C179.244 150.643 178.916 150.588 178.615 150.588C177.549 150.588 176.756 151.326 176.756 152.324V157H175.58ZM183.359 157.15C181.213 157.15 179.887 155.633 179.887 153.35C179.887 151.066 181.227 149.48 183.25 149.48C184.809 149.48 186.449 150.438 186.449 153.186V153.678H181.062C181.117 155.25 182.033 156.111 183.359 156.111C184.248 156.111 184.809 155.729 185.082 155.264H186.34C185.984 156.385 184.891 157.15 183.359 157.15ZM181.076 152.68H185.26C185.26 151.436 184.467 150.52 183.25 150.52C181.965 150.52 181.145 151.531 181.076 152.68ZM198.398 150.219C198.111 148.852 196.936 148.113 195.637 148.113C193.846 148.113 192.451 149.494 192.451 152.051C192.451 154.607 193.846 155.988 195.637 155.988C196.936 155.988 198.098 155.25 198.398 153.896H199.629C199.273 155.92 197.646 157.137 195.637 157.137C193.094 157.137 191.262 155.182 191.262 152.051C191.262 148.92 193.094 146.965 195.637 146.965C197.633 146.965 199.26 148.168 199.629 150.219H198.398Z" fill="var(--sol-element-primary)"/>
</g>
<g clip-path="url(#clip6_1670_193078)">
<path d="M159.994 179.59C159.885 178.619 158.996 178.059 157.807 178.059C156.494 178.059 155.633 178.742 155.633 179.686C155.633 180.725 156.795 181.107 157.547 181.299L158.531 181.572C159.598 181.846 161.334 182.461 161.334 184.307C161.334 185.92 160.035 187.178 157.738 187.178C155.605 187.178 154.279 186.07 154.17 184.43H155.428C155.537 185.537 156.562 186.057 157.738 186.057C159.105 186.057 160.131 185.359 160.131 184.279C160.131 183.322 159.215 182.953 158.176 182.652L156.959 182.324C155.4 181.873 154.443 181.08 154.443 179.74C154.443 178.072 155.934 176.965 157.848 176.965C159.762 176.965 161.143 178.086 161.197 179.59H159.994ZM166.188 179.576V180.561H164.629V184.867C164.629 185.824 165.094 185.975 165.6 185.975C165.818 185.975 166.119 185.961 166.297 185.947V187.041C166.119 187.068 165.818 187.096 165.477 187.096C164.492 187.096 163.439 186.48 163.439 185.168V180.561H162.318V179.576H163.439V177.799H164.629V179.576H166.188ZM170.672 187.15C168.648 187.15 167.281 185.633 167.281 183.322C167.281 181.012 168.648 179.48 170.672 179.48C172.682 179.48 174.035 181.012 174.035 183.322C174.035 185.633 172.682 187.15 170.672 187.15ZM170.672 186.111C172.162 186.111 172.859 184.799 172.859 183.322C172.859 181.846 172.162 180.52 170.672 180.52C169.154 180.52 168.457 181.846 168.457 183.322C168.457 184.799 169.154 186.111 170.672 186.111ZM175.58 187V179.576H176.715V180.711H176.797C177.07 179.959 177.836 179.453 178.711 179.453C178.889 179.453 179.189 179.467 179.326 179.48V180.67C179.244 180.643 178.916 180.588 178.615 180.588C177.549 180.588 176.756 181.326 176.756 182.324V187H175.58ZM183.359 187.15C181.213 187.15 179.887 185.633 179.887 183.35C179.887 181.066 181.227 179.48 183.25 179.48C184.809 179.48 186.449 180.438 186.449 183.186V183.678H181.062C181.117 185.25 182.033 186.111 183.359 186.111C184.248 186.111 184.809 185.729 185.082 185.264H186.34C185.984 186.385 184.891 187.15 183.359 187.15ZM181.076 182.68H185.26C185.26 181.436 184.467 180.52 183.25 180.52C181.965 180.52 181.145 181.531 181.076 182.68ZM194.721 187H191.645V177.102H194.844C197.729 177.102 199.438 178.961 199.438 182.037C199.438 185.127 197.729 187 194.721 187ZM192.875 185.906H194.639C197.072 185.906 198.234 184.443 198.234 182.037C198.234 179.645 197.072 178.195 194.762 178.195H192.875V185.906Z" fill="var(--sol-element-primary)"/>
</g>
<g clip-path="url(#clip7_1670_193078)">
<path d="M159.994 209.59C159.885 208.619 158.996 208.059 157.807 208.059C156.494 208.059 155.633 208.742 155.633 209.686C155.633 210.725 156.795 211.107 157.547 211.299L158.531 211.572C159.598 211.846 161.334 212.461 161.334 214.307C161.334 215.92 160.035 217.178 157.738 217.178C155.605 217.178 154.279 216.07 154.17 214.43H155.428C155.537 215.537 156.562 216.057 157.738 216.057C159.105 216.057 160.131 215.359 160.131 214.279C160.131 213.322 159.215 212.953 158.176 212.652L156.959 212.324C155.4 211.873 154.443 211.08 154.443 209.74C154.443 208.072 155.934 206.965 157.848 206.965C159.762 206.965 161.143 208.086 161.197 209.59H159.994ZM166.188 209.576V210.561H164.629V214.867C164.629 215.824 165.094 215.975 165.6 215.975C165.818 215.975 166.119 215.961 166.297 215.947V217.041C166.119 217.068 165.818 217.096 165.477 217.096C164.492 217.096 163.439 216.48 163.439 215.168V210.561H162.318V209.576H163.439V207.799H164.629V209.576H166.188ZM170.672 217.15C168.648 217.15 167.281 215.633 167.281 213.322C167.281 211.012 168.648 209.48 170.672 209.48C172.682 209.48 174.035 211.012 174.035 213.322C174.035 215.633 172.682 217.15 170.672 217.15ZM170.672 216.111C172.162 216.111 172.859 214.799 172.859 213.322C172.859 211.846 172.162 210.52 170.672 210.52C169.154 210.52 168.457 211.846 168.457 213.322C168.457 214.799 169.154 216.111 170.672 216.111ZM175.58 217V209.576H176.715V210.711H176.797C177.07 209.959 177.836 209.453 178.711 209.453C178.889 209.453 179.189 209.467 179.326 209.48V210.67C179.244 210.643 178.916 210.588 178.615 210.588C177.549 210.588 176.756 211.326 176.756 212.324V217H175.58ZM183.359 217.15C181.213 217.15 179.887 215.633 179.887 213.35C179.887 211.066 181.227 209.48 183.25 209.48C184.809 209.48 186.449 210.438 186.449 213.186V213.678H181.062C181.117 215.25 182.033 216.111 183.359 216.111C184.248 216.111 184.809 215.729 185.082 215.264H186.34C185.984 216.385 184.891 217.15 183.359 217.15ZM181.076 212.68H185.26C185.26 211.436 184.467 210.52 183.25 210.52C181.965 210.52 181.145 211.531 181.076 212.68ZM191.645 217V207.102H197.646V208.195H192.875V211.504H197.332V212.584H192.875V215.906H197.715V217H191.645Z" fill="var(--sol-element-primary)"/>
</g>
<g clip-path="url(#clip8_1670_193078)">
<path d="M159.994 239.59C159.885 238.619 158.996 238.059 157.807 238.059C156.494 238.059 155.633 238.742 155.633 239.686C155.633 240.725 156.795 241.107 157.547 241.299L158.531 241.572C159.598 241.846 161.334 242.461 161.334 244.307C161.334 245.92 160.035 247.178 157.738 247.178C155.605 247.178 154.279 246.07 154.17 244.43H155.428C155.537 245.537 156.562 246.057 157.738 246.057C159.105 246.057 160.131 245.359 160.131 244.279C160.131 243.322 159.215 242.953 158.176 242.652L156.959 242.324C155.4 241.873 154.443 241.08 154.443 239.74C154.443 238.072 155.934 236.965 157.848 236.965C159.762 236.965 161.143 238.086 161.197 239.59H159.994ZM166.188 239.576V240.561H164.629V244.867C164.629 245.824 165.094 245.975 165.6 245.975C165.818 245.975 166.119 245.961 166.297 245.947V247.041C166.119 247.068 165.818 247.096 165.477 247.096C164.492 247.096 163.439 246.48 163.439 245.168V240.561H162.318V239.576H163.439V237.799H164.629V239.576H166.188ZM170.672 247.15C168.648 247.15 167.281 245.633 167.281 243.322C167.281 241.012 168.648 239.48 170.672 239.48C172.682 239.48 174.035 241.012 174.035 243.322C174.035 245.633 172.682 247.15 170.672 247.15ZM170.672 246.111C172.162 246.111 172.859 244.799 172.859 243.322C172.859 241.846 172.162 240.52 170.672 240.52C169.154 240.52 168.457 241.846 168.457 243.322C168.457 244.799 169.154 246.111 170.672 246.111ZM175.58 247V239.576H176.715V240.711H176.797C177.07 239.959 177.836 239.453 178.711 239.453C178.889 239.453 179.189 239.467 179.326 239.48V240.67C179.244 240.643 178.916 240.588 178.615 240.588C177.549 240.588 176.756 241.326 176.756 242.324V247H175.58ZM183.359 247.15C181.213 247.15 179.887 245.633 179.887 243.35C179.887 241.066 181.227 239.48 183.25 239.48C184.809 239.48 186.449 240.438 186.449 243.186V243.678H181.062C181.117 245.25 182.033 246.111 183.359 246.111C184.248 246.111 184.809 245.729 185.082 245.264H186.34C185.984 246.385 184.891 247.15 183.359 247.15ZM181.076 242.68H185.26C185.26 241.436 184.467 240.52 183.25 240.52C181.965 240.52 181.145 241.531 181.076 242.68ZM191.645 247V237.102H197.605V238.195H192.875V241.504H197.154V242.584H192.875V247H191.645Z" fill="var(--sol-element-primary)"/>
</g>
</g>
<g clip-path="url(#clip9_1670_193078)">
<rect x="293.5" y="77" width="4" height="116" fill="var(--sol-border-solid-variant)"/>
</g>
</g>
</g>
</g>
<defs>
<filter id="filter0_dd_1670_193078" x="133.5" y="69" width="176" height="256" filterUnits="userSpaceOnUse" color-interpolation-filters="sRGB">
<feFlood flood-opacity="0" result="BackgroundImageFix"/>
<feColorMatrix in="SourceAlpha" type="matrix" values="0 0 0 0 0 0 0 0 0 0 0 0 0 0 0 0 0 0 127 0" result="hardAlpha"/>
<feOffset dy="4"/>
<feGaussianBlur stdDeviation="4"/>
<feComposite in2="hardAlpha" operator="out"/>
<feColorMatrix type="matrix" values="0 0 0 0 0 0 0 0 0 0 0 0 0 0 0 0 0 0 0.08 0"/>
<feBlend mode="normal" in2="BackgroundImageFix" result="effect1_dropShadow_1670_193078"/>
<feColorMatrix in="SourceAlpha" type="matrix" values="0 0 0 0 0 0 0 0 0 0 0 0 0 0 0 0 0 0 127 0" result="hardAlpha"/>
<feOffset/>
<feGaussianBlur stdDeviation="0.5"/>
<feComposite in2="hardAlpha" operator="out"/>
<feColorMatrix type="matrix" values="0 0 0 0 0 0 0 0 0 0 0 0 0 0 0 0 0 0 0.08 0"/>
<feBlend mode="normal" in2="effect1_dropShadow_1670_193078" result="effect2_dropShadow_1670_193078"/>
<feBlend mode="normal" in="SourceGraphic" in2="effect2_dropShadow_1670_193078" result="shape"/>
</filter>
<clipPath id="clip0_1670_193078">
<path d="M0 8.00001C0 3.58173 3.58172 0 8 0H434C438.418 0 442 3.58172 442 8V232C442 236.418 438.418 240 434 240H8C3.58172 240 0 236.418 0 232V8.00001Z" fill="var(--sol-surface)"/>
</clipPath>
<clipPath id="clip1_1670_193078">
<path d="M141.5 77C141.5 74.7909 143.291 73 145.5 73H297.5C299.709 73 301.5 74.7909 301.5 77V309C301.5 311.209 299.709 313 297.5 313H145.5C143.291 313 141.5 311.209 141.5 309V77Z" fill="var(--sol-surface)"/>
</clipPath>
<clipPath id="clip2_1670_193078">
<rect width="152" height="240" fill="var(--sol-surface)" transform="translate(145.5 77)"/>
</clipPath>
<clipPath id="clip3_1670_193078">
<path d="M145.5 79C145.5 77.8954 146.395 77 147.5 77H295.5C296.605 77 297.5 77.8954 297.5 79V105C297.5 106.105 296.605 107 295.5 107H147.5C146.395 107 145.5 106.105 145.5 105V79Z" fill="var(--sol-surface)"/>
</clipPath>
<clipPath id="clip4_1670_193078">
<path d="M145.5 109C145.5 107.895 146.395 107 147.5 107H295.5C296.605 107 297.5 107.895 297.5 109V135C297.5 136.105 296.605 137 295.5 137H147.5C146.395 137 145.5 136.105 145.5 135V109Z" fill="var(--sol-surface)"/>
</clipPath>
<clipPath id="clip5_1670_193078">
<path d="M145.5 139C145.5 137.895 146.395 137 147.5 137H295.5C296.605 137 297.5 137.895 297.5 139V165C297.5 166.105 296.605 167 295.5 167H147.5C146.395 167 145.5 166.105 145.5 165V139Z" fill="var(--sol-surface)"/>
</clipPath>
<clipPath id="clip6_1670_193078">
<path d="M145.5 169C145.5 167.895 146.395 167 147.5 167H295.5C296.605 167 297.5 167.895 297.5 169V195C297.5 196.105 296.605 197 295.5 197H147.5C146.395 197 145.5 196.105 145.5 195V169Z" fill="var(--sol-surface)"/>
</clipPath>
<clipPath id="clip7_1670_193078">
<path d="M145.5 199C145.5 197.895 146.395 197 147.5 197H295.5C296.605 197 297.5 197.895 297.5 199V225C297.5 226.105 296.605 227 295.5 227H147.5C146.395 227 145.5 226.105 145.5 225V199Z" fill="var(--sol-surface)"/>
</clipPath>
<clipPath id="clip8_1670_193078">
<path d="M145.5 229C145.5 227.895 146.395 227 147.5 227H295.5C296.605 227 297.5 227.895 297.5 229V255C297.5 256.105 296.605 257 295.5 257H147.5C146.395 257 145.5 256.105 145.5 255V229Z" fill="var(--sol-surface)"/>
</clipPath>
<clipPath id="clip9_1670_193078">
<path d="M293.5 79C293.5 77.8954 294.395 77 295.5 77V77C296.605 77 297.5 77.8954 297.5 79V191C297.5 192.105 296.605 193 295.5 193V193C294.395 193 293.5 192.105 293.5 191V79Z" fill="var(--sol-surface)"/>
</clipPath>
</defs>
</svg>
