<svg width="442" height="306" viewBox="0 0 442 306" fill="none" xmlns="http://www.w3.org/2000/svg">
<style>
:root {
  --sol-element-primary: #161616;
  --sol-element-tertiary: #636363;
  --sol-element-quaternary: #858585;
  --sol-surface: #ffffff;
  --sol-border-solid-variant: #e0e0e0;
  --sol-static-white: #ffffff;
  --sol-static-black: #000000;
  --color-indigo-700: #142e96;
  --color-indigo-400: #6280e4;
  --color-orange-700: #833606;
  --color-orange-500: #e06418;
  --color-yellow-600: #a88900;
  --color-yellow-400: #ecc824;
  --color-yellow-300: #f5dc6a;
  --color-green-500: #35a142;
  --color-green-400: #5cc066;
  --color-blue-200: #c2e6f7;
  --color-red-700: #8a2e38;
  --color-red-600: #b84451;
  --color-red-500: #e76067;
}
@media (prefers-color-scheme: dark) {
  :root {
    --sol-element-primary: #ffffff;
    --sol-element-tertiary: rgba(255, 255, 255, 0.60);
    --sol-element-quaternary: rgba(255, 255, 255, 0.50);
    --sol-surface: #161616;
    --sol-border-solid-variant: #3d3d3d;
  }
}
</style>

<g clip-path="url(#clip0_1670_193087)">
<path d="M99.3477 39.2188C99.0605 37.8516 97.8848 37.1133 96.5859 37.1133C94.7949 37.1133 93.4004 38.4941 93.4004 41.0508C93.4004 43.6074 94.7949 44.9883 96.5859 44.9883C97.8848 44.9883 99.0469 44.25 99.3477 42.8965H100.578C100.223 44.9199 98.5957 46.1367 96.5859 46.1367C94.043 46.1367 92.2109 44.1816 92.2109 41.0508C92.2109 37.9199 94.043 35.9648 96.5859 35.9648C98.582 35.9648 100.209 37.168 100.578 39.2188H99.3477ZM105.186 46.1504C103.162 46.1504 101.795 44.6328 101.795 42.3223C101.795 40.0117 103.162 38.4805 105.186 38.4805C107.195 38.4805 108.549 40.0117 108.549 42.3223C108.549 44.6328 107.195 46.1504 105.186 46.1504ZM105.186 45.1113C106.676 45.1113 107.373 43.7988 107.373 42.3223C107.373 40.8457 106.676 39.5195 105.186 39.5195C103.668 39.5195 102.971 40.8457 102.971 42.3223C102.971 43.7988 103.668 45.1113 105.186 45.1113ZM114.783 42.9512V38.5762H115.945V46H114.783V44.7422H114.701C114.346 45.4941 113.621 46.0957 112.5 46.0957C111.092 46.0957 110.094 45.1797 110.094 43.293V38.5762H111.27V43.2109C111.27 44.2773 111.939 44.9609 112.883 44.9609C113.717 44.9609 114.783 44.332 114.783 42.9512ZM119.008 41.543V46H117.832V38.5762H118.967V39.7383H119.062C119.418 38.9863 120.102 38.4805 121.236 38.4805C122.74 38.4805 123.738 39.3965 123.738 41.2832V46H122.562V41.3652C122.562 40.2168 121.934 39.5332 120.881 39.5332C119.801 39.5332 119.008 40.2578 119.008 41.543ZM128.865 38.5762V39.5605H127.307V43.8672C127.307 44.8242 127.771 44.9746 128.277 44.9746C128.496 44.9746 128.797 44.9609 128.975 44.9473V46.041C128.797 46.0684 128.496 46.0957 128.154 46.0957C127.17 46.0957 126.117 45.4805 126.117 44.168V39.5605H124.996V38.5762H126.117V36.7988H127.307V38.5762H128.865ZM130.383 46V38.5762H131.518V39.7109H131.6C131.873 38.959 132.639 38.4531 133.514 38.4531C133.691 38.4531 133.992 38.4668 134.129 38.4805V39.6699C134.047 39.6426 133.719 39.5879 133.418 39.5879C132.352 39.5879 131.559 40.3262 131.559 41.3242V46H130.383ZM136.262 48.7891C136.002 48.7891 135.756 48.7754 135.605 48.7617V47.709C135.729 47.7227 136.002 47.7363 136.18 47.7363C136.658 47.7363 137.055 47.6953 137.451 46.6152L137.67 46.0547L134.922 38.5762H136.207L138.23 44.4688H138.312L140.336 38.5762H141.621L138.477 47.0664C138.039 48.2285 137.314 48.7891 136.262 48.7891Z" fill="var(--sol-element-tertiary)"/>
<g filter="url(#filter0_d_1670_193087)">
<g clip-path="url(#clip1_1670_193087)">
<path d="M91.5 63C91.5 60.7909 93.2909 59 95.5 59H347.5C349.709 59 351.5 60.7909 351.5 63V91C351.5 93.2091 349.709 95 347.5 95H95.5C93.2909 95 91.5 93.2091 91.5 91V63Z" fill="var(--sol-surface)"/>
<path d="M109.994 74.5898C109.885 73.6191 108.996 73.0586 107.807 73.0586C106.494 73.0586 105.633 73.7422 105.633 74.6855C105.633 75.7246 106.795 76.1074 107.547 76.2988L108.531 76.5723C109.598 76.8457 111.334 77.4609 111.334 79.3066C111.334 80.9199 110.035 82.1777 107.738 82.1777C105.605 82.1777 104.279 81.0703 104.17 79.4297H105.428C105.537 80.5371 106.562 81.0566 107.738 81.0566C109.105 81.0566 110.131 80.3594 110.131 79.2793C110.131 78.3223 109.215 77.9531 108.176 77.6523L106.959 77.3242C105.4 76.873 104.443 76.0801 104.443 74.7402C104.443 73.0723 105.934 71.9648 107.848 71.9648C109.762 71.9648 111.143 73.0859 111.197 74.5898H109.994ZM116.064 82.1504C113.918 82.1504 112.592 80.6328 112.592 78.3496C112.592 76.0664 113.932 74.4805 115.955 74.4805C117.514 74.4805 119.154 75.4375 119.154 78.1855V78.6777H113.768C113.822 80.25 114.738 81.1113 116.064 81.1113C116.953 81.1113 117.514 80.7285 117.787 80.2637H119.045C118.689 81.3848 117.596 82.1504 116.064 82.1504ZM113.781 77.6797H117.965C117.965 76.4355 117.172 75.5195 115.955 75.5195C114.67 75.5195 113.85 76.5312 113.781 77.6797ZM121.861 72.1016V82H120.686V72.1016H121.861ZM126.852 82.1504C124.705 82.1504 123.379 80.6328 123.379 78.3496C123.379 76.0664 124.719 74.4805 126.742 74.4805C128.301 74.4805 129.941 75.4375 129.941 78.1855V78.6777H124.555C124.609 80.25 125.525 81.1113 126.852 81.1113C127.74 81.1113 128.301 80.7285 128.574 80.2637H129.832C129.477 81.3848 128.383 82.1504 126.852 82.1504ZM124.568 77.6797H128.752C128.752 76.4355 127.959 75.5195 126.742 75.5195C125.457 75.5195 124.637 76.5312 124.568 77.6797ZM134.508 82.1504C132.402 82.1504 131.117 80.5508 131.117 78.3223C131.117 76.0664 132.457 74.4805 134.48 74.4805C136.066 74.4805 137.242 75.4102 137.434 76.8184H136.258C136.094 76.1348 135.492 75.5195 134.508 75.5195C133.182 75.5195 132.293 76.6133 132.293 78.2812C132.293 80.0039 133.154 81.0977 134.508 81.0977C135.383 81.0977 136.053 80.6328 136.258 79.8125H137.434C137.242 81.1387 136.162 82.1504 134.508 82.1504ZM142.123 74.5762V75.5605H140.564V79.8672C140.564 80.8242 141.029 80.9746 141.535 80.9746C141.754 80.9746 142.055 80.9609 142.232 80.9473V82.041C142.055 82.0684 141.754 82.0957 141.412 82.0957C140.428 82.0957 139.375 81.4805 139.375 80.168V75.5605H138.254V74.5762H139.375V72.7988H140.564V74.5762H142.123ZM146.799 79.8945C146.799 78.1855 148.303 77.8027 149.588 77.707C150.06 77.6729 151.263 77.6113 151.598 77.5977V76.9961C151.598 76.0527 151.037 75.5059 149.916 75.5059C148.973 75.5059 148.412 75.9434 148.248 76.5039H147.018C147.168 75.3145 148.33 74.4805 149.971 74.4805C150.941 74.4805 152.76 74.7676 152.76 77.1055V82H151.598V80.9883H151.543C151.297 81.4941 150.613 82.1777 149.328 82.1777C147.92 82.1777 146.799 81.3438 146.799 79.8945ZM147.975 79.9492C147.975 80.7285 148.631 81.125 149.533 81.125C150.859 81.125 151.598 80.2363 151.598 79.3066V78.5547L149.725 78.6914C148.658 78.7598 147.975 79.1426 147.975 79.9492ZM161.195 82.1504C159.09 82.1504 157.805 80.5508 157.805 78.3223C157.805 76.0664 159.145 74.4805 161.168 74.4805C162.754 74.4805 163.93 75.4102 164.121 76.8184H162.945C162.781 76.1348 162.18 75.5195 161.195 75.5195C159.869 75.5195 158.98 76.6133 158.98 78.2812C158.98 80.0039 159.842 81.0977 161.195 81.0977C162.07 81.0977 162.74 80.6328 162.945 79.8125H164.121C163.93 81.1387 162.85 82.1504 161.195 82.1504ZM168.605 82.1504C166.582 82.1504 165.215 80.6328 165.215 78.3223C165.215 76.0117 166.582 74.4805 168.605 74.4805C170.615 74.4805 171.969 76.0117 171.969 78.3223C171.969 80.6328 170.615 82.1504 168.605 82.1504ZM168.605 81.1113C170.096 81.1113 170.793 79.7988 170.793 78.3223C170.793 76.8457 170.096 75.5195 168.605 75.5195C167.088 75.5195 166.391 76.8457 166.391 78.3223C166.391 79.7988 167.088 81.1113 168.605 81.1113ZM178.203 78.9512V74.5762H179.365V82H178.203V80.7422H178.121C177.766 81.4941 177.041 82.0957 175.92 82.0957C174.512 82.0957 173.514 81.1797 173.514 79.293V74.5762H174.689V79.2109C174.689 80.2773 175.359 80.9609 176.303 80.9609C177.137 80.9609 178.203 80.332 178.203 78.9512ZM182.428 77.543V82H181.252V74.5762H182.387V75.7383H182.482C182.838 74.9863 183.521 74.4805 184.656 74.4805C186.16 74.4805 187.158 75.3965 187.158 77.2832V82H185.982V77.3652C185.982 76.2168 185.354 75.5332 184.301 75.5332C183.221 75.5332 182.428 76.2578 182.428 77.543ZM192.285 74.5762V75.5605H190.727V79.8672C190.727 80.8242 191.191 80.9746 191.697 80.9746C191.916 80.9746 192.217 80.9609 192.395 80.9473V82.041C192.217 82.0684 191.916 82.0957 191.574 82.0957C190.59 82.0957 189.537 81.4805 189.537 80.168V75.5605H188.416V74.5762H189.537V72.7988H190.727V74.5762H192.285ZM193.803 82V74.5762H194.938V75.7109H195.02C195.293 74.959 196.059 74.4531 196.934 74.4531C197.111 74.4531 197.412 74.4668 197.549 74.4805V75.6699C197.467 75.6426 197.139 75.5879 196.838 75.5879C195.771 75.5879 194.979 76.3262 194.979 77.3242V82H193.803ZM199.682 84.7891C199.422 84.7891 199.176 84.7754 199.025 84.7617V83.709C199.148 83.7227 199.422 83.7363 199.6 83.7363C200.078 83.7363 200.475 83.6953 200.871 82.6152L201.09 82.0547L198.342 74.5762H199.627L201.65 80.4688H201.732L203.756 74.5762H205.041L201.896 83.0664C201.459 84.2285 200.734 84.7891 199.682 84.7891Z" fill="var(--sol-element-primary)"/>
<mask id="mask0_1670_193087" style="mask-type:alpha" maskUnits="userSpaceOnUse" x="327" y="69" width="17" height="16">
<path d="M335.184 74.6121C335.381 74.4519 335.67 74.4635 335.854 74.6466L339.854 78.6466L339.146 79.3536L335.5 75.7071L331.854 79.3536L331.146 78.6466L335.146 74.6466L335.184 74.6121Z" fill="var(--sol-static-black)"/>
</mask>
<g mask="url(#mask0_1670_193087)">
<rect x="327.5" y="69" width="16" height="16" fill="var(--sol-element-quaternary)"/>
</g>
</g>
<path d="M95.5 59.5H347.5C349.433 59.5 351 61.067 351 63V91C351 92.933 349.433 94.5 347.5 94.5H95.5C93.567 94.5 92 92.933 92 91V63C92 61.067 93.567 59.5 95.5 59.5Z" stroke="var(--sol-element-primary)" stroke-opacity="0.16"/>
</g>
<g filter="url(#filter1_dd_1670_193087)">
<g clip-path="url(#clip2_1670_193087)">
<path d="M91.5 101C91.5 98.7909 93.2909 97 95.5 97H347.5C349.709 97 351.5 98.7909 351.5 101V413C351.5 415.209 349.709 417 347.5 417H95.5C93.2909 417 91.5 415.209 91.5 413V101Z" fill="var(--sol-surface)"/>
<g clip-path="url(#clip3_1670_193087)">
<g clip-path="url(#clip4_1670_193087)">
<path d="M103.5 113C103.5 110.791 105.291 109 107.5 109H335.5C337.709 109 339.5 110.791 339.5 113V135C339.5 137.209 337.709 139 335.5 139H107.5C105.291 139 103.5 137.209 103.5 135V113Z" fill="var(--sol-surface)"/>
<path d="M124.421 123.679C124.421 121.44 122.606 119.625 120.367 119.625C118.128 119.625 116.312 121.44 116.312 123.679C116.313 125.918 118.128 127.734 120.367 127.734C122.606 127.733 124.421 125.918 124.421 123.679ZM125.296 123.679C125.296 124.897 124.853 126.01 124.121 126.871L126.119 128.802L125.51 129.431L123.499 127.485C122.647 128.187 121.556 128.609 120.367 128.609C117.645 128.609 115.438 126.402 115.438 123.679C115.438 120.957 117.644 118.75 120.367 118.75C123.089 118.75 125.296 120.957 125.296 123.679Z" fill="var(--sol-element-quaternary)"/>
<path d="M134.438 128V119.516H137.32C139.312 119.516 140.215 120.699 140.215 122.211C140.215 123.711 139.312 124.918 137.332 124.918H135.492V128H134.438ZM135.492 123.98H137.285C138.633 123.98 139.172 123.219 139.172 122.211C139.172 121.191 138.633 120.453 137.273 120.453H135.492V123.98ZM142.57 119.516V128H141.562V119.516H142.57ZM143.871 126.195C143.871 124.73 145.16 124.402 146.262 124.32C146.666 124.291 147.697 124.238 147.984 124.227V123.711C147.984 122.902 147.504 122.434 146.543 122.434C145.734 122.434 145.254 122.809 145.113 123.289H144.059C144.188 122.27 145.184 121.555 146.59 121.555C147.422 121.555 148.98 121.801 148.98 123.805V128H147.984V127.133H147.938C147.727 127.566 147.141 128.152 146.039 128.152C144.832 128.152 143.871 127.438 143.871 126.195ZM144.879 126.242C144.879 126.91 145.441 127.25 146.215 127.25C147.352 127.25 147.984 126.488 147.984 125.691V125.047L146.379 125.164C145.465 125.223 144.879 125.551 144.879 126.242ZM153.199 128.129C151.395 128.129 150.293 126.758 150.293 124.848C150.293 122.914 151.441 121.555 153.176 121.555C154.535 121.555 155.543 122.352 155.707 123.559H154.699C154.559 122.973 154.043 122.445 153.199 122.445C152.062 122.445 151.301 123.383 151.301 124.812C151.301 126.289 152.039 127.227 153.199 127.227C153.949 127.227 154.523 126.828 154.699 126.125H155.707C155.543 127.262 154.617 128.129 153.199 128.129ZM159.621 128.129C157.781 128.129 156.645 126.828 156.645 124.871C156.645 122.914 157.793 121.555 159.527 121.555C160.863 121.555 162.27 122.375 162.27 124.73V125.152H157.652C157.699 126.5 158.484 127.238 159.621 127.238C160.383 127.238 160.863 126.91 161.098 126.512H162.176C161.871 127.473 160.934 128.129 159.621 128.129ZM157.664 124.297H161.25C161.25 123.23 160.57 122.445 159.527 122.445C158.426 122.445 157.723 123.312 157.664 124.297ZM164.59 124.18V128H163.582V119.516H164.59V122.633H164.672C164.965 121.977 165.539 121.555 166.547 121.555C167.848 121.555 168.715 122.328 168.715 123.957V128H167.707V124.027C167.707 123.031 167.156 122.457 166.242 122.457C165.293 122.457 164.59 123.078 164.59 124.18ZM172.934 128.129C171.199 128.129 170.027 126.828 170.027 124.848C170.027 122.867 171.199 121.555 172.934 121.555C174.656 121.555 175.816 122.867 175.816 124.848C175.816 126.828 174.656 128.129 172.934 128.129ZM172.934 127.238C174.211 127.238 174.809 126.113 174.809 124.848C174.809 123.582 174.211 122.445 172.934 122.445C171.633 122.445 171.035 123.582 171.035 124.848C171.035 126.113 171.633 127.238 172.934 127.238ZM178.148 119.516V128H177.141V119.516H178.148ZM182.156 128.129C180.574 128.129 179.449 126.852 179.449 124.836C179.449 122.82 180.574 121.555 182.168 121.555C183.398 121.555 183.797 122.305 184.008 122.645H184.078V119.516H185.098V128H184.113V127.027H184.008C183.785 127.379 183.375 128.129 182.156 128.129ZM182.297 127.227C183.457 127.227 184.113 126.242 184.113 124.812C184.113 123.406 183.48 122.457 182.297 122.457C181.078 122.457 180.469 123.488 180.469 124.812C180.469 126.172 181.09 127.227 182.297 127.227ZM189.516 128.129C187.676 128.129 186.539 126.828 186.539 124.871C186.539 122.914 187.688 121.555 189.422 121.555C190.758 121.555 192.164 122.375 192.164 124.73V125.152H187.547C187.594 126.5 188.379 127.238 189.516 127.238C190.277 127.238 190.758 126.91 190.992 126.512H192.07C191.766 127.473 190.828 128.129 189.516 128.129ZM187.559 124.297H191.145C191.145 123.23 190.465 122.445 189.422 122.445C188.32 122.445 187.617 123.312 187.559 124.297ZM193.477 128V121.637H194.449V122.609H194.52C194.754 121.965 195.41 121.531 196.16 121.531C196.312 121.531 196.57 121.543 196.688 121.555V122.574C196.617 122.551 196.336 122.504 196.078 122.504C195.164 122.504 194.484 123.137 194.484 123.992V128H193.477Z" fill="var(--sol-element-quaternary)"/>
</g>
<path d="M107.5 109.5H335.5C337.433 109.5 339 111.067 339 113V135C339 136.933 337.433 138.5 335.5 138.5H107.5C105.567 138.5 104 136.933 104 135V113L104.005 112.82C104.095 111.03 105.53 109.595 107.32 109.505L107.5 109.5Z" stroke="var(--sol-element-primary)" stroke-opacity="0.16"/>
<g clip-path="url(#clip5_1670_193087)">
<g clip-path="url(#clip6_1670_193087)">
<rect width="20" height="15" transform="translate(103.5 157.5)" fill="var(--sol-surface)"/>
<path fill-rule="evenodd" clip-rule="evenodd" d="M108.5 157.5H118.5V172.5H108.5V157.5Z" fill="var(--color-yellow-400)"/>
<path fill-rule="evenodd" clip-rule="evenodd" d="M103.5 157.5H108.5V172.5H103.5V157.5Z" fill="var(--color-indigo-700)"/>
<path fill-rule="evenodd" clip-rule="evenodd" d="M118.5 157.5H123.5V172.5H118.5V157.5Z" fill="var(--color-red-500)"/>
<path d="M114.178 160.345C114.389 160.208 114.654 160.208 114.807 160.45C114.959 160.691 114.775 160.941 114.728 161.026C114.682 161.111 114.584 161.423 114.807 161.525C115.029 161.627 115.355 161.57 115.524 161.422C115.517 161.419 115.319 161.326 115.371 161.177C115.425 161.026 115.789 160.599 116.457 160.917C117.125 161.235 117.239 161.526 117.057 161.761C116.874 161.997 116.385 162.402 116.503 162.674C116.506 162.668 116.59 162.526 116.702 162.599C116.817 162.674 116.792 162.806 116.792 162.806C116.792 162.806 117.607 162.761 117.696 163.551C117.784 164.332 117.181 164.547 117.168 164.551C117.176 164.561 117.359 164.767 117.234 164.903C117.106 165.042 116.959 164.958 116.959 164.958C116.959 164.958 116.69 165.212 116.824 165.501C116.956 165.784 117.053 165.871 117.057 165.875C117.057 165.875 117.076 165.786 117.234 165.786C117.393 165.786 117.688 166.267 117.505 166.417C117.326 166.563 117.238 166.54 117.234 166.539C117.242 166.545 117.628 166.872 117.505 167.387C117.38 167.908 117.046 168.159 116.702 168.305C116.359 168.451 115.948 168.451 115.422 168.451C114.898 168.451 114.587 168.775 114.584 168.779C114.597 168.784 114.848 168.888 114.762 169.121C114.673 169.36 114.469 169.361 114.469 169.361C114.461 169.372 114.317 169.572 114.178 169.503C114.04 169.433 113.951 169.366 113.944 169.361C113.94 169.37 113.822 169.597 113.687 169.636V169.645C113.681 169.645 113.675 169.641 113.669 169.64C113.663 169.641 113.657 169.645 113.65 169.645V169.636C113.516 169.598 113.399 169.372 113.394 169.361C113.39 169.364 113.3 169.432 113.16 169.503C113.019 169.573 112.873 169.368 112.868 169.361C112.86 169.361 112.663 169.355 112.576 169.121C112.489 168.885 112.745 168.782 112.754 168.779C112.754 168.779 112.442 168.451 111.915 168.451C111.389 168.451 110.979 168.451 110.636 168.305C110.292 168.159 109.958 167.908 109.833 167.387C109.708 166.867 110.103 166.539 110.103 166.539C110.103 166.539 110.016 166.566 109.833 166.417C109.65 166.267 109.945 165.786 110.103 165.786C110.258 165.786 110.279 165.871 110.28 165.875C110.28 165.875 110.378 165.79 110.513 165.501C110.647 165.212 110.379 164.958 110.379 164.958C110.379 164.958 110.232 165.042 110.103 164.903C109.977 164.766 110.164 164.557 110.17 164.551C110.17 164.551 109.553 164.341 109.642 163.551C109.73 162.77 110.528 162.805 110.545 162.806C110.545 162.806 110.521 162.674 110.636 162.599C110.749 162.526 110.833 162.672 110.835 162.674C110.953 162.401 110.463 161.997 110.28 161.761C110.098 161.526 110.213 161.235 110.881 160.917C111.549 160.599 111.912 161.026 111.966 161.177C112.019 161.329 111.812 161.422 111.812 161.422C111.981 161.571 112.309 161.627 112.531 161.525C112.754 161.423 112.656 161.112 112.609 161.026C112.563 160.941 112.379 160.691 112.531 160.45C112.684 160.208 112.949 160.208 113.16 160.345C113.341 160.463 113.598 160.523 113.669 160.539C113.74 160.523 113.997 160.462 114.178 160.345Z" fill="var(--color-yellow-600)"/>
<path d="M111.069 167.499L111.135 167.34C111.89 167.663 112.749 167.825 113.712 167.825C114.676 167.825 115.511 167.664 116.221 167.341L116.29 167.498C115.558 167.831 114.698 167.998 113.712 167.998C112.727 167.998 111.846 167.832 111.069 167.499Z" fill="var(--color-orange-700)"/>
</g>
<path d="M133.031 170H131.746L135.369 160.102H136.668L140.291 170H138.992L138.008 167.211H134.029L133.031 170ZM134.398 166.131H137.625L136.053 161.701H135.971L134.398 166.131ZM142.656 165.543V170H141.48V162.576H142.615V163.738H142.711C143.066 162.986 143.75 162.48 144.885 162.48C146.389 162.48 147.387 163.396 147.387 165.283V170H146.211V165.365C146.211 164.217 145.582 163.533 144.529 163.533C143.449 163.533 142.656 164.258 142.656 165.543ZM152.076 170.15C150.23 170.15 148.918 168.66 148.918 166.309C148.918 163.957 150.23 162.48 152.09 162.48C153.525 162.48 153.99 163.355 154.236 163.752H154.318V160.102H155.508V170H154.359V168.865H154.236C153.977 169.275 153.498 170.15 152.076 170.15ZM152.24 169.098C153.594 169.098 154.359 167.949 154.359 166.281C154.359 164.641 153.621 163.533 152.24 163.533C150.818 163.533 150.107 164.736 150.107 166.281C150.107 167.867 150.832 169.098 152.24 169.098ZM160.58 170.15C158.557 170.15 157.189 168.633 157.189 166.322C157.189 164.012 158.557 162.48 160.58 162.48C162.59 162.48 163.943 164.012 163.943 166.322C163.943 168.633 162.59 170.15 160.58 170.15ZM160.58 169.111C162.07 169.111 162.768 167.799 162.768 166.322C162.768 164.846 162.07 163.52 160.58 163.52C159.062 163.52 158.365 164.846 158.365 166.322C158.365 167.799 159.062 169.111 160.58 169.111ZM165.488 170V162.576H166.623V163.711H166.705C166.979 162.959 167.744 162.453 168.619 162.453C168.797 162.453 169.098 162.467 169.234 162.48V163.67C169.152 163.643 168.824 163.588 168.523 163.588C167.457 163.588 166.664 164.326 166.664 165.324V170H165.488ZM170.383 170V162.576H171.518V163.711H171.6C171.873 162.959 172.639 162.453 173.514 162.453C173.691 162.453 173.992 162.467 174.129 162.48V163.67C174.047 163.643 173.719 163.588 173.418 163.588C172.352 163.588 171.559 164.326 171.559 165.324V170H170.383ZM174.922 167.895C174.922 166.186 176.426 165.803 177.711 165.707C178.183 165.673 179.386 165.611 179.721 165.598V164.996C179.721 164.053 179.16 163.506 178.039 163.506C177.096 163.506 176.535 163.943 176.371 164.504H175.141C175.291 163.314 176.453 162.48 178.094 162.48C179.064 162.48 180.883 162.768 180.883 165.105V170H179.721V168.988H179.666C179.42 169.494 178.736 170.178 177.451 170.178C176.043 170.178 174.922 169.344 174.922 167.895ZM176.098 167.949C176.098 168.729 176.754 169.125 177.656 169.125C178.982 169.125 179.721 168.236 179.721 167.307V166.555L177.848 166.691C176.781 166.76 176.098 167.143 176.098 167.949Z" fill="var(--sol-element-primary)"/>
<path d="M185.744 166.227C185.758 163.643 186.455 161.496 187.713 159.678H188.752C187.822 161.031 186.961 163.793 186.961 166.227C186.961 168.66 187.822 171.436 188.752 172.789H187.713C186.455 170.957 185.758 168.811 185.744 166.227ZM193.1 168.264V165.611H190.461V164.504H193.1V161.865H194.207V164.504H196.859V165.611H194.207V168.264H193.1ZM202.287 170.137C200.209 170.137 198.76 168.988 198.773 167.375C198.76 166.09 199.648 165.037 200.783 164.859V164.805C199.799 164.572 199.156 163.67 199.156 162.59C199.156 161.072 200.482 159.965 202.287 159.965C204.092 159.965 205.418 161.072 205.432 162.59C205.418 163.67 204.762 164.572 203.791 164.805V164.859C204.912 165.037 205.801 166.09 205.814 167.375C205.801 168.988 204.352 170.137 202.287 170.137ZM202.287 169.057C203.709 169.057 204.584 168.346 204.584 167.307C204.584 166.213 203.613 165.406 202.287 165.406C200.961 165.406 199.977 166.213 200.004 167.307C199.977 168.346 200.865 169.057 202.287 169.057ZM202.287 164.367C203.408 164.367 204.229 163.684 204.229 162.686C204.229 161.701 203.449 161.031 202.287 161.031C201.111 161.031 200.346 161.701 200.346 162.686C200.346 163.684 201.152 164.367 202.287 164.367ZM207.469 170L207.455 169.098L210.832 165.543C212.008 164.299 212.568 163.629 212.568 162.713C212.568 161.701 211.707 161.031 210.6 161.031C209.424 161.031 208.672 161.783 208.672 162.891H207.51C207.496 161.141 208.85 159.965 210.641 159.965C212.432 159.965 213.717 161.168 213.717 162.713C213.717 163.82 213.197 164.682 211.447 166.486L209.178 168.824V168.906H213.895V170H207.469ZM218.283 166.227C218.27 168.811 217.572 170.957 216.314 172.789H215.275C216.205 171.436 217.066 168.66 217.066 166.227C217.066 163.793 216.205 161.031 215.275 159.678H216.314C217.572 161.496 218.27 163.643 218.283 166.227Z" fill="var(--sol-element-tertiary)"/>
</g>
<g clip-path="url(#clip7_1670_193087)">
<g clip-path="url(#clip8_1670_193087)">
<rect width="20" height="15" transform="translate(103.5 193.5)" fill="var(--sol-surface)"/>
<path fill-rule="evenodd" clip-rule="evenodd" d="M103.5 193.5H123.5V208.5H103.5V193.5Z" fill="var(--sol-surface)"/>
<path fill-rule="evenodd" clip-rule="evenodd" d="M103.5 193.5V198.5H123.5V193.5H103.5Z" fill="var(--color-green-500)"/>
<path fill-rule="evenodd" clip-rule="evenodd" d="M103.5 203.5V208.5H123.5V203.5H103.5Z" fill="var(--sol-element-primary)"/>
<rect x="103.5" y="193.5" width="6" height="15" fill="var(--color-red-500)"/>
</g>
<path d="M139.074 196.102H140.305V202.65C140.305 204.688 138.787 206.178 136.449 206.178C134.111 206.178 132.594 204.688 132.594 202.65V196.102H133.824V202.555C133.824 203.99 134.822 205.029 136.449 205.029C138.09 205.029 139.074 203.99 139.074 202.555V196.102ZM143.518 201.543V206H142.342V198.576H143.477V199.738H143.572C143.928 198.986 144.611 198.48 145.746 198.48C147.25 198.48 148.248 199.396 148.248 201.283V206H147.072V201.365C147.072 200.217 146.443 199.533 145.391 199.533C144.311 199.533 143.518 200.258 143.518 201.543ZM150.135 206V198.576H151.311V206H150.135ZM150.723 197.346C150.271 197.346 149.902 197.004 149.902 196.566C149.902 196.129 150.271 195.787 150.723 195.787C151.174 195.787 151.557 196.129 151.557 196.566C151.557 197.004 151.174 197.346 150.723 197.346ZM156.424 198.576V199.561H154.865V203.867C154.865 204.824 155.33 204.975 155.836 204.975C156.055 204.975 156.355 204.961 156.533 204.947V206.041C156.355 206.068 156.055 206.096 155.713 206.096C154.729 206.096 153.676 205.48 153.676 204.168V199.561H152.555V198.576H153.676V196.799H154.865V198.576H156.424ZM160.99 206.15C158.844 206.15 157.518 204.633 157.518 202.35C157.518 200.066 158.857 198.48 160.881 198.48C162.439 198.48 164.08 199.438 164.08 202.186V202.678H158.693C158.748 204.25 159.664 205.111 160.99 205.111C161.879 205.111 162.439 204.729 162.713 204.264H163.971C163.615 205.385 162.521 206.15 160.99 206.15ZM158.707 201.68H162.891C162.891 200.436 162.098 199.52 160.881 199.52C159.596 199.52 158.775 200.531 158.707 201.68ZM168.414 206.15C166.568 206.15 165.256 204.66 165.256 202.309C165.256 199.957 166.568 198.48 168.428 198.48C169.863 198.48 170.328 199.355 170.574 199.752H170.656V196.102H171.846V206H170.697V204.865H170.574C170.314 205.275 169.836 206.15 168.414 206.15ZM168.578 205.098C169.932 205.098 170.697 203.949 170.697 202.281C170.697 200.641 169.959 199.533 168.578 199.533C167.156 199.533 166.445 200.736 166.445 202.281C166.445 203.867 167.17 205.098 168.578 205.098ZM177.984 206H176.699L180.322 196.102H181.621L185.244 206H183.945L182.961 203.211H178.982L177.984 206ZM179.352 202.131H182.578L181.006 197.701H180.924L179.352 202.131ZM186.434 206V198.576H187.568V199.711H187.65C187.924 198.959 188.689 198.453 189.564 198.453C189.742 198.453 190.043 198.467 190.18 198.48V199.67C190.098 199.643 189.77 199.588 189.469 199.588C188.402 199.588 187.609 200.326 187.609 201.324V206H186.434ZM190.973 203.895C190.973 202.186 192.477 201.803 193.762 201.707C194.233 201.673 195.437 201.611 195.771 201.598V200.996C195.771 200.053 195.211 199.506 194.09 199.506C193.146 199.506 192.586 199.943 192.422 200.504H191.191C191.342 199.314 192.504 198.48 194.145 198.48C195.115 198.48 196.934 198.768 196.934 201.105V206H195.771V204.988H195.717C195.471 205.494 194.787 206.178 193.502 206.178C192.094 206.178 190.973 205.344 190.973 203.895ZM192.148 203.949C192.148 204.729 192.805 205.125 193.707 205.125C195.033 205.125 195.771 204.236 195.771 203.307V202.555L193.898 202.691C192.832 202.76 192.148 203.143 192.148 203.949ZM198.971 206V196.102H200.146V199.752H200.242C200.502 199.355 200.939 198.48 202.389 198.48C204.248 198.48 205.561 199.957 205.561 202.309C205.561 204.66 204.248 206.15 202.402 206.15C200.98 206.15 200.502 205.275 200.242 204.865H200.105V206H198.971ZM200.119 202.281C200.119 203.949 200.871 205.098 202.225 205.098C203.633 205.098 204.371 203.867 204.371 202.281C204.371 200.736 203.66 199.533 202.225 199.533C200.857 199.533 200.119 200.641 200.119 202.281ZM210.756 206V196.102H216.758V197.195H211.986V200.504H216.443V201.584H211.986V204.906H216.826V206H210.756ZM218.549 206V198.576H219.684V199.738H219.779C220.094 198.945 220.805 198.48 221.775 198.48C222.746 198.48 223.402 198.945 223.758 199.738H223.84C224.223 198.973 225.002 198.48 226.068 198.48C227.395 198.48 228.338 199.287 228.338 201.037V206H227.162V201.051C227.162 199.957 226.465 199.533 225.658 199.533C224.619 199.533 224.031 200.23 224.031 201.174V206H222.842V200.928C222.842 200.094 222.24 199.533 221.393 199.533C220.504 199.533 219.725 200.285 219.725 201.365V206H218.549ZM230.225 206V198.576H231.4V206H230.225ZM230.812 197.346C230.361 197.346 229.992 197.004 229.992 196.566C229.992 196.129 230.361 195.787 230.812 195.787C231.264 195.787 231.646 196.129 231.646 196.566C231.646 197.004 231.264 197.346 230.812 197.346ZM233.273 206V198.576H234.408V199.711H234.49C234.764 198.959 235.529 198.453 236.404 198.453C236.582 198.453 236.883 198.467 237.02 198.48V199.67C236.938 199.643 236.609 199.588 236.309 199.588C235.242 199.588 234.449 200.326 234.449 201.324V206H233.273ZM237.812 203.895C237.812 202.186 239.316 201.803 240.602 201.707C241.073 201.673 242.276 201.611 242.611 201.598V200.996C242.611 200.053 242.051 199.506 240.93 199.506C239.986 199.506 239.426 199.943 239.262 200.504H238.031C238.182 199.314 239.344 198.48 240.984 198.48C241.955 198.48 243.773 198.768 243.773 201.105V206H242.611V204.988H242.557C242.311 205.494 241.627 206.178 240.342 206.178C238.934 206.178 237.812 205.344 237.812 203.895ZM238.988 203.949C238.988 204.729 239.645 205.125 240.547 205.125C241.873 205.125 242.611 204.236 242.611 203.307V202.555L240.738 202.691C239.672 202.76 238.988 203.143 238.988 203.949ZM248.9 198.576V199.561H247.342V203.867C247.342 204.824 247.807 204.975 248.312 204.975C248.531 204.975 248.832 204.961 249.01 204.947V206.041C248.832 206.068 248.531 206.096 248.189 206.096C247.205 206.096 246.152 205.48 246.152 204.168V199.561H245.031V198.576H246.152V196.799H247.342V198.576H248.9ZM253.467 206.15C251.32 206.15 249.994 204.633 249.994 202.35C249.994 200.066 251.334 198.48 253.357 198.48C254.916 198.48 256.557 199.438 256.557 202.186V202.678H251.17C251.225 204.25 252.141 205.111 253.467 205.111C254.355 205.111 254.916 204.729 255.189 204.264H256.447C256.092 205.385 254.998 206.15 253.467 206.15ZM251.184 201.68H255.367C255.367 200.436 254.574 199.52 253.357 199.52C252.072 199.52 251.252 200.531 251.184 201.68ZM262.217 200.504C262.053 199.889 261.588 199.479 260.713 199.479C259.797 199.479 259.141 199.971 259.141 200.6C259.141 201.092 259.537 201.434 260.412 201.639L261.52 201.912C262.846 202.227 263.502 202.883 263.502 203.922C263.502 205.207 262.449 206.15 260.59 206.15C258.922 206.15 257.924 205.412 257.732 204.059H258.963C259.1 204.783 259.633 205.125 260.562 205.125C261.615 205.125 262.285 204.688 262.285 203.99C262.285 203.471 261.916 203.115 261.068 202.924L259.947 202.664C258.648 202.363 257.965 201.652 257.965 200.668C257.965 199.396 259.072 198.48 260.713 198.48C262.244 198.48 263.215 199.301 263.365 200.504H262.217Z" fill="var(--sol-element-primary)"/>
<path d="M267.744 202.227C267.758 199.643 268.455 197.496 269.713 195.678H270.752C269.822 197.031 268.961 199.793 268.961 202.227C268.961 204.66 269.822 207.436 270.752 208.789H269.713C268.455 206.957 267.758 204.811 267.744 202.227ZM275.1 204.264V201.611H272.461V200.504H275.1V197.865H276.207V200.504H278.859V201.611H276.207V204.264H275.1ZM284.287 206.137C282.209 206.137 280.76 204.988 280.773 203.375C280.76 202.09 281.648 201.037 282.783 200.859V200.805C281.799 200.572 281.156 199.67 281.156 198.59C281.156 197.072 282.482 195.965 284.287 195.965C286.092 195.965 287.418 197.072 287.432 198.59C287.418 199.67 286.762 200.572 285.791 200.805V200.859C286.912 201.037 287.801 202.09 287.814 203.375C287.801 204.988 286.352 206.137 284.287 206.137ZM284.287 205.057C285.709 205.057 286.584 204.346 286.584 203.307C286.584 202.213 285.613 201.406 284.287 201.406C282.961 201.406 281.977 202.213 282.004 203.307C281.977 204.346 282.865 205.057 284.287 205.057ZM284.287 200.367C285.408 200.367 286.229 199.684 286.229 198.686C286.229 197.701 285.449 197.031 284.287 197.031C283.111 197.031 282.346 197.701 282.346 198.686C282.346 199.684 283.152 200.367 284.287 200.367ZM289.469 206L289.455 205.098L292.832 201.543C294.008 200.299 294.568 199.629 294.568 198.713C294.568 197.701 293.707 197.031 292.6 197.031C291.424 197.031 290.672 197.783 290.672 198.891H289.51C289.496 197.141 290.85 195.965 292.641 195.965C294.432 195.965 295.717 197.168 295.717 198.713C295.717 199.82 295.197 200.682 293.447 202.486L291.178 204.824V204.906H295.895V206H289.469ZM300.283 202.227C300.27 204.811 299.572 206.957 298.314 208.789H297.275C298.205 207.436 299.066 204.66 299.066 202.227C299.066 199.793 298.205 197.031 297.275 195.678H298.314C299.572 197.496 300.27 199.643 300.283 202.227Z" fill="var(--sol-element-tertiary)"/>
</g>
<g clip-path="url(#clip9_1670_193087)">
<g clip-path="url(#clip10_1670_193087)">
<rect width="20" height="15" transform="translate(103.5 229.5)" fill="var(--sol-surface)"/>
<path fill-rule="evenodd" clip-rule="evenodd" d="M117.5 229.5H123.5V244.5H117.5V229.5Z" fill="var(--color-green-400)"/>
<path fill-rule="evenodd" clip-rule="evenodd" d="M109.5 229.5H117.5V244.5H109.5V229.5Z" fill="var(--color-red-600)"/>
<path fill-rule="evenodd" clip-rule="evenodd" d="M103.5 229.5H109.5V244.5H103.5V229.5Z" fill="var(--sol-element-primary)"/>
<path d="M111.421 234.621C111.06 235.228 110.818 235.785 110.693 236.29C110.746 236.339 110.78 236.381 110.813 236.44C110.911 236.609 110.993 236.773 111.06 236.933L110.772 237.055C110.728 236.948 110.673 236.838 110.612 236.725C110.583 236.971 110.587 237.203 110.62 237.422C110.672 237.428 110.716 237.437 110.767 237.455C110.95 237.522 111.119 237.596 111.272 237.675L111.131 237.953C111 237.886 110.856 237.823 110.699 237.765C110.7 237.768 110.701 237.771 110.702 237.774C110.836 238.178 111.042 238.549 111.318 238.889C111.361 238.88 111.4 238.875 111.446 238.875C111.642 238.875 111.826 238.886 111.997 238.908L111.96 239.218C111.844 239.203 111.721 239.196 111.592 239.192C111.839 239.439 112.13 239.667 112.463 239.876L112.331 240.099C111.917 239.839 111.564 239.55 111.273 239.231C111.236 239.245 111.189 239.264 111.13 239.289C111.122 239.293 111.114 239.295 111.106 239.298C111.36 239.564 111.661 239.81 112.008 240.033L111.873 240.254C111.471 239.995 111.128 239.706 110.843 239.39C110.707 239.424 110.594 239.427 110.46 239.388L110.544 239.088C110.563 239.094 110.583 239.095 110.602 239.098C110.338 238.747 110.139 238.365 110.006 237.95C109.982 237.877 109.963 237.802 109.946 237.726C109.843 237.706 109.755 237.668 109.664 237.601L109.846 237.347C109.861 237.358 109.877 237.365 109.893 237.373C109.861 236.991 109.905 236.579 110.026 236.136C109.951 236.049 109.904 235.959 109.875 235.842L110.142 235.773C110.285 235.368 110.486 234.939 110.747 234.487L110.966 234.62C110.681 235.113 110.47 235.572 110.332 236C110.371 236.035 110.417 236.074 110.475 236.116C110.613 235.613 110.857 235.069 111.204 234.486L111.421 234.621ZM110.326 237.737C110.285 237.739 110.246 237.738 110.21 237.739C110.221 237.783 110.233 237.826 110.247 237.868C110.385 238.298 110.599 238.692 110.889 239.05C110.925 239.036 110.966 239.022 111.011 239.002C111.029 238.994 111.047 238.986 111.063 238.979C110.798 238.636 110.597 238.263 110.463 237.858C110.449 237.817 110.437 237.775 110.426 237.733C110.397 237.734 110.364 237.734 110.326 237.737ZM110.24 236.327C110.143 236.725 110.115 237.092 110.154 237.43C110.201 237.43 110.253 237.429 110.313 237.425C110.331 237.424 110.347 237.423 110.363 237.422C110.322 237.119 110.334 236.796 110.398 236.452C110.37 236.43 110.338 236.402 110.296 236.371C110.276 236.357 110.258 236.341 110.24 236.327Z" fill="var(--sol-surface)"/>
<path d="M115.37 234.621C115.731 235.228 115.973 235.785 116.098 236.29C116.045 236.339 116.011 236.381 115.978 236.44C115.88 236.609 115.798 236.773 115.731 236.933L116.019 237.055C116.063 236.948 116.118 236.838 116.179 236.725C116.208 236.971 116.204 237.203 116.171 237.422C116.119 237.428 116.075 237.437 116.024 237.455C115.841 237.522 115.672 237.596 115.519 237.675L115.66 237.953C115.791 237.886 115.935 237.823 116.092 237.765C116.091 237.768 116.09 237.771 116.089 237.774C115.955 238.178 115.749 238.549 115.473 238.889C115.43 238.88 115.391 238.875 115.345 238.875C115.149 238.875 114.965 238.886 114.794 238.908L114.831 239.218C114.947 239.203 115.07 239.196 115.199 239.192C114.952 239.439 114.661 239.667 114.328 239.876L114.46 240.099C114.874 239.839 115.227 239.55 115.518 239.231C115.555 239.245 115.602 239.264 115.661 239.289C115.669 239.293 115.677 239.295 115.685 239.298C115.431 239.564 115.13 239.81 114.783 240.033L114.918 240.254C115.32 239.995 115.663 239.706 115.948 239.39C116.084 239.424 116.197 239.427 116.331 239.388L116.247 239.088C116.228 239.094 116.208 239.095 116.189 239.098C116.453 238.747 116.652 238.365 116.785 237.95C116.809 237.877 116.828 237.802 116.845 237.726C116.949 237.706 117.036 237.668 117.127 237.601L116.945 237.347C116.93 237.358 116.914 237.365 116.898 237.373C116.93 236.991 116.886 236.579 116.765 236.136C116.84 236.049 116.888 235.959 116.916 235.842L116.649 235.773C116.506 235.368 116.305 234.939 116.044 234.487L115.825 234.62C116.11 235.113 116.321 235.572 116.459 236C116.42 236.035 116.374 236.074 116.316 236.116C116.178 235.613 115.934 235.069 115.587 234.486L115.37 234.621ZM116.465 237.737C116.506 237.739 116.545 237.738 116.581 237.739C116.57 237.783 116.558 237.826 116.544 237.868C116.406 238.298 116.192 238.692 115.902 239.05C115.866 239.036 115.825 239.022 115.78 239.002C115.762 238.994 115.744 238.986 115.728 238.979C115.993 238.636 116.194 238.263 116.328 237.858C116.342 237.817 116.354 237.775 116.365 237.733C116.394 237.734 116.427 237.734 116.465 237.737ZM116.551 236.327C116.648 236.725 116.676 237.092 116.637 237.43C116.59 237.43 116.538 237.429 116.478 237.425C116.46 237.424 116.444 237.423 116.428 237.422C116.469 237.119 116.457 236.796 116.393 236.452C116.421 236.43 116.453 236.402 116.495 236.371C116.515 236.357 116.533 236.341 116.551 236.327Z" fill="var(--sol-surface)"/>
<path fill-rule="evenodd" clip-rule="evenodd" d="M112.308 239.665L111.61 240.355C111.61 240.355 112.212 240.724 113.346 240.724C114.48 240.724 115.14 240.355 115.14 240.355L114.61 239.665C114.61 239.665 113.887 239.945 113.375 239.945C112.863 239.945 112.308 239.665 112.308 239.665Z" fill="var(--sol-surface)"/>
<path d="M112.322 240.106C112.322 240.106 112.913 240.245 113.366 240.245C113.819 240.245 114.409 240.106 114.409 240.106" stroke="var(--color-red-700)" stroke-width="0.5"/>
<path d="M112.603 236.033H112.635L112.8 235.906H113.962L114.158 236.033H114.256V235.043H114.561V236.033H114.667V236.202H114.561V237.998C114.561 238.103 114.673 238.285 114.909 238.52L115.178 238.789H111.441L112.062 238.491C112.179 238.435 112.262 238.273 112.298 237.988V236.202H112.032V236.033H112.298V235.043H112.603V236.033ZM112.603 238.008C112.579 238.199 112.538 238.353 112.477 238.476H114.458C114.324 238.3 114.256 238.143 114.256 237.998V236.202H112.603V238.008ZM114.109 238.302H112.792V237H113.451L114.109 238.302ZM113.4 234.917C113.708 234.917 113.957 235.139 113.957 235.412C113.957 235.685 113.708 235.906 113.4 235.906C113.093 235.906 112.843 235.685 112.843 235.412C112.843 235.139 113.093 234.917 113.4 234.917Z" fill="var(--sol-surface)"/>
<path d="M114.067 233.294C114.081 233.297 114.091 233.302 114.101 233.309C114.13 233.327 114.161 233.363 114.186 233.406C114.234 233.467 114.263 233.542 114.276 233.632C114.281 233.659 114.282 233.681 114.284 233.71C114.296 233.676 114.307 233.637 114.315 233.594C114.319 233.577 114.32 233.565 114.323 233.542C114.325 233.532 114.326 233.528 114.327 233.523C114.328 233.519 114.328 233.518 114.329 233.512C114.332 233.499 114.336 233.49 114.345 233.477C114.353 233.465 114.352 233.464 114.372 233.447C114.404 233.43 114.404 233.43 114.451 233.433C114.513 233.469 114.513 233.47 114.521 233.493C114.527 233.505 114.529 233.513 114.53 233.523C114.531 233.53 114.532 233.537 114.532 233.547C114.533 233.554 114.533 233.563 114.533 233.577C114.533 233.583 114.535 233.612 114.535 233.621C114.536 233.639 114.536 233.656 114.536 233.675C114.536 233.715 114.533 233.752 114.529 233.8C114.581 233.75 114.659 233.763 114.746 233.81C114.832 233.858 114.885 233.926 114.908 234.009C114.915 234.033 114.919 234.055 114.921 234.078C114.953 234.042 114.985 233.982 115.014 233.905C115.04 233.833 115.087 233.651 115.09 233.639C115.095 233.624 115.099 233.613 115.108 233.601C115.125 233.577 115.149 233.56 115.188 233.559C115.233 233.557 115.264 233.581 115.281 233.612C115.294 233.636 115.296 233.65 115.298 233.688C115.299 233.722 115.3 233.772 115.3 233.902C115.3 234.16 115.337 234.347 115.387 234.425C115.391 234.425 115.504 234.425 115.507 234.425C115.507 234.629 115.332 234.721 115.217 234.539C115.166 234.46 115.129 234.332 115.11 234.167C115.076 234.218 115.036 234.259 114.989 234.287C114.892 234.346 114.839 234.364 114.776 234.324C114.736 234.298 114.721 234.261 114.718 234.218C114.716 234.2 114.717 234.191 114.719 234.155C114.721 234.111 114.72 234.088 114.714 234.066C114.711 234.055 114.706 234.045 114.699 234.035C114.707 234.093 114.707 234.134 114.695 234.176C114.673 234.254 114.61 234.301 114.525 234.301C114.408 234.301 114.332 234.232 114.312 234.119C114.306 234.083 114.304 234.054 114.307 234.007C114.234 234.048 114.159 234.043 114.114 233.962C114.103 233.941 114.097 233.923 114.093 233.896C114.064 233.927 114.03 233.957 113.991 233.986C113.909 234.048 113.848 234.089 113.803 234.111C113.723 234.15 113.651 234.153 113.607 234.071C113.582 234.023 113.588 233.981 113.609 233.915C113.615 233.898 113.622 233.879 113.632 233.854C113.637 233.841 113.655 233.796 113.657 233.792C113.664 233.775 113.669 233.761 113.674 233.748C113.696 233.69 113.707 233.649 113.707 233.626C113.707 233.592 113.707 233.568 113.706 233.55C113.667 233.58 113.616 233.628 113.552 233.697C113.33 233.936 113.098 233.936 112.909 233.787C112.863 233.751 112.83 233.714 112.811 233.687L112.807 233.683C112.801 233.673 112.788 233.654 112.77 233.637C112.722 233.59 112.697 233.587 112.656 233.638C112.647 233.649 112.638 233.663 112.629 233.679C112.524 233.859 112.441 233.962 112.342 234.006C112.207 234.065 112.081 234.002 111.968 233.838C111.911 233.755 111.835 233.735 111.795 233.769C111.74 233.815 111.737 233.948 111.835 234.15C111.943 234.374 111.963 234.527 111.843 234.607C111.743 234.674 111.59 234.637 111.356 234.519L111.446 234.331C111.54 234.379 111.616 234.41 111.672 234.424C111.694 234.429 111.71 234.432 111.72 234.433C111.72 234.43 111.719 234.427 111.719 234.425C111.713 234.384 111.692 234.322 111.653 234.243C111.518 233.963 111.524 233.726 111.668 233.606C111.807 233.491 112.013 233.543 112.133 233.717C112.197 233.809 112.232 233.827 112.262 233.814C112.308 233.794 112.372 233.716 112.455 233.572C112.469 233.548 112.484 233.525 112.5 233.506C112.628 233.345 112.785 233.365 112.908 233.485C112.938 233.514 112.96 233.543 112.975 233.565C112.977 233.568 112.982 233.573 112.987 233.579C113 233.593 113.015 233.609 113.032 233.622C113.144 233.71 113.26 233.71 113.405 233.554C113.594 233.35 113.705 233.274 113.811 233.326C113.869 233.355 113.893 233.408 113.903 233.479C113.909 233.517 113.909 233.549 113.909 233.626C113.909 233.682 113.894 233.742 113.863 233.823C113.865 233.822 113.868 233.82 113.871 233.818C114.023 233.703 114.052 233.609 114.018 233.526C113.991 233.5 113.972 233.479 113.961 233.461C113.956 233.453 113.952 233.444 113.948 233.435C113.938 233.407 113.936 233.378 113.955 233.344C113.982 233.296 114.028 233.285 114.067 233.294Z" fill="var(--sol-surface)"/>
<path d="M112.479 237.575L112.354 237.664L111.798 236.847C111.734 236.875 111.658 236.933 111.609 237.046C111.514 237.268 111.476 237.655 111.475 237.669L111.117 237.44C111.121 237.431 111.237 237.155 111.237 236.82C111.237 236.585 111.413 236.485 111.523 236.446L111.396 236.257L111.52 236.168L112.479 237.575Z" fill="var(--sol-surface)"/>
<path d="M114.36 237.575L114.485 237.664L115.041 236.847C115.105 236.875 115.181 236.933 115.229 237.046C115.325 237.268 115.363 237.655 115.364 237.669L115.722 237.44C115.718 237.431 115.602 237.155 115.602 236.82C115.602 236.585 115.425 236.485 115.315 236.446L115.443 236.257L115.319 236.168L114.36 237.575Z" fill="var(--sol-surface)"/>
</g>
<path d="M133.031 242H131.746L135.369 232.102H136.668L140.291 242H138.992L138.008 239.211H134.029L133.031 242ZM134.398 238.131H137.625L136.053 233.701H135.971L134.398 238.131ZM144.803 234.576V235.561H143.162V242H141.973V235.561H140.783V234.576H141.973V233.564C141.973 232.361 142.779 231.637 144.092 231.637C144.379 231.637 144.721 231.678 144.967 231.719V232.771C144.721 232.73 144.502 232.717 144.352 232.717C143.531 232.717 143.162 233.059 143.162 233.824V234.576H144.803ZM148.904 244.939C147.113 244.939 145.896 244.16 145.76 242.779H146.99C147.154 243.531 147.852 243.914 148.904 243.914C150.176 243.914 150.955 243.367 150.955 242.137V240.633H150.859C150.613 241.043 150.135 241.891 148.699 241.891C146.895 241.891 145.541 240.523 145.541 238.186C145.541 235.902 146.854 234.48 148.713 234.48C150.148 234.48 150.613 235.355 150.887 235.752H150.982V234.576H152.131V242.205C152.131 244.119 150.709 244.939 148.904 244.939ZM148.863 240.838C150.217 240.838 150.982 239.867 150.982 238.227C150.982 236.641 150.244 235.533 148.863 235.533C147.441 235.533 146.73 236.736 146.73 238.227C146.73 239.771 147.455 240.838 148.863 240.838ZM155.18 237.543V242H154.004V232.102H155.18V235.738H155.275C155.617 234.973 156.287 234.48 157.463 234.48C158.98 234.48 159.992 235.383 159.992 237.283V242H158.816V237.365C158.816 236.203 158.174 235.533 157.107 235.533C156 235.533 155.18 236.258 155.18 237.543ZM161.523 239.895C161.523 238.186 163.027 237.803 164.312 237.707C164.784 237.673 165.987 237.611 166.322 237.598V236.996C166.322 236.053 165.762 235.506 164.641 235.506C163.697 235.506 163.137 235.943 162.973 236.504H161.742C161.893 235.314 163.055 234.48 164.695 234.48C165.666 234.48 167.484 234.768 167.484 237.105V242H166.322V240.988H166.268C166.021 241.494 165.338 242.178 164.053 242.178C162.645 242.178 161.523 241.344 161.523 239.895ZM162.699 239.949C162.699 240.729 163.355 241.125 164.258 241.125C165.584 241.125 166.322 240.236 166.322 239.307V238.555L164.449 238.691C163.383 238.76 162.699 239.143 162.699 239.949ZM170.547 237.543V242H169.371V234.576H170.506V235.738H170.602C170.957 234.986 171.641 234.48 172.775 234.48C174.279 234.48 175.277 235.396 175.277 237.283V242H174.102V237.365C174.102 236.217 173.473 235.533 172.42 235.533C171.34 235.533 170.547 236.258 170.547 237.543ZM177.164 242V234.576H178.34V242H177.164ZM177.752 233.346C177.301 233.346 176.932 233.004 176.932 232.566C176.932 232.129 177.301 231.787 177.752 231.787C178.203 231.787 178.586 232.129 178.586 232.566C178.586 233.004 178.203 233.346 177.752 233.346ZM184.342 236.504C184.178 235.889 183.713 235.479 182.838 235.479C181.922 235.479 181.266 235.971 181.266 236.6C181.266 237.092 181.662 237.434 182.537 237.639L183.645 237.912C184.971 238.227 185.627 238.883 185.627 239.922C185.627 241.207 184.574 242.15 182.715 242.15C181.047 242.15 180.049 241.412 179.857 240.059H181.088C181.225 240.783 181.758 241.125 182.688 241.125C183.74 241.125 184.41 240.688 184.41 239.99C184.41 239.471 184.041 239.115 183.193 238.924L182.072 238.664C180.773 238.363 180.09 237.652 180.09 236.668C180.09 235.396 181.197 234.48 182.838 234.48C184.369 234.48 185.34 235.301 185.49 236.504H184.342ZM190.398 234.576V235.561H188.84V239.867C188.84 240.824 189.305 240.975 189.811 240.975C190.029 240.975 190.33 240.961 190.508 240.947V242.041C190.33 242.068 190.029 242.096 189.688 242.096C188.703 242.096 187.65 241.48 187.65 240.168V235.561H186.529V234.576H187.65V232.799H188.84V234.576H190.398ZM191.561 239.895C191.561 238.186 193.064 237.803 194.35 237.707C194.821 237.673 196.024 237.611 196.359 237.598V236.996C196.359 236.053 195.799 235.506 194.678 235.506C193.734 235.506 193.174 235.943 193.01 236.504H191.779C191.93 235.314 193.092 234.48 194.732 234.48C195.703 234.48 197.521 234.768 197.521 237.105V242H196.359V240.988H196.305C196.059 241.494 195.375 242.178 194.09 242.178C192.682 242.178 191.561 241.344 191.561 239.895ZM192.736 239.949C192.736 240.729 193.393 241.125 194.295 241.125C195.621 241.125 196.359 240.236 196.359 239.307V238.555L194.486 238.691C193.42 238.76 192.736 239.143 192.736 239.949ZM200.584 237.543V242H199.408V234.576H200.543V235.738H200.639C200.994 234.986 201.678 234.48 202.812 234.48C204.316 234.48 205.314 235.396 205.314 237.283V242H204.139V237.365C204.139 236.217 203.51 235.533 202.457 235.533C201.377 235.533 200.584 236.258 200.584 237.543Z" fill="var(--sol-element-primary)"/>
<path d="M209.744 238.227C209.758 235.643 210.455 233.496 211.713 231.678H212.752C211.822 233.031 210.961 235.793 210.961 238.227C210.961 240.66 211.822 243.436 212.752 244.789H211.713C210.455 242.957 209.758 240.811 209.744 238.227ZM217.1 240.264V237.611H214.461V236.504H217.1V233.865H218.207V236.504H220.859V237.611H218.207V240.264H217.1ZM226.287 242.137C224.209 242.137 222.76 240.988 222.773 239.375C222.76 238.09 223.648 237.037 224.783 236.859V236.805C223.799 236.572 223.156 235.67 223.156 234.59C223.156 233.072 224.482 231.965 226.287 231.965C228.092 231.965 229.418 233.072 229.432 234.59C229.418 235.67 228.762 236.572 227.791 236.805V236.859C228.912 237.037 229.801 238.09 229.814 239.375C229.801 240.988 228.352 242.137 226.287 242.137ZM226.287 241.057C227.709 241.057 228.584 240.346 228.584 239.307C228.584 238.213 227.613 237.406 226.287 237.406C224.961 237.406 223.977 238.213 224.004 239.307C223.977 240.346 224.865 241.057 226.287 241.057ZM226.287 236.367C227.408 236.367 228.229 235.684 228.229 234.686C228.229 233.701 227.449 233.031 226.287 233.031C225.111 233.031 224.346 233.701 224.346 234.686C224.346 235.684 225.152 236.367 226.287 236.367ZM231.469 242L231.455 241.098L234.832 237.543C236.008 236.299 236.568 235.629 236.568 234.713C236.568 233.701 235.707 233.031 234.6 233.031C233.424 233.031 232.672 233.783 232.672 234.891H231.51C231.496 233.141 232.85 231.965 234.641 231.965C236.432 231.965 237.717 233.168 237.717 234.713C237.717 235.82 237.197 236.682 235.447 238.486L233.178 240.824V240.906H237.895V242H231.469ZM242.283 238.227C242.27 240.811 241.572 242.957 240.314 244.789H239.275C240.205 243.436 241.066 240.66 241.066 238.227C241.066 235.793 240.205 233.031 239.275 231.678H240.314C241.572 233.496 242.27 235.643 242.283 238.227Z" fill="var(--sol-element-tertiary)"/>
</g>
<g clip-path="url(#clip11_1670_193087)">
<g clip-path="url(#clip12_1670_193087)">
<rect width="20" height="15" transform="translate(103.5 265.5)" fill="var(--sol-surface)"/>
<path fill-rule="evenodd" clip-rule="evenodd" d="M103.5 265.5H123.5V280.5H103.5V265.5Z" fill="var(--sol-element-primary)"/>
<path fill-rule="evenodd" clip-rule="evenodd" d="M113.5 274.25L112.109 276.625L112.144 274.002L109.603 275.659L111.057 273.309L107.869 273.919L110.453 272.306L107.25 271.75L110.453 271.194L107.869 269.581L111.057 270.191L109.603 267.841L112.144 269.498L112.109 266.875L113.5 269.25L114.891 266.875L114.856 269.498L117.397 267.841L115.943 270.191L119.131 269.581L116.547 271.194L119.75 271.75L116.547 272.306L119.131 273.919L115.943 273.309L117.397 275.659L114.856 274.002L114.891 276.625L113.5 274.25Z" fill="var(--color-yellow-400)"/>
<rect x="107.25" y="274.25" width="12.5" height="6.25" fill="var(--sol-surface)"/>
<rect x="104.75" y="271.75" width="17.5" height="2.5" fill="var(--color-indigo-400)"/>
<path fill-rule="evenodd" clip-rule="evenodd" d="M103.5 269.25L113.5 280.5L123.5 269.25V280.5H103.5V269.25Z" fill="var(--color-red-500)"/>
</g>
<path d="M133.031 278H131.746L135.369 268.102H136.668L140.291 278H138.992L138.008 275.211H134.029L133.031 278ZM134.398 274.131H137.625L136.053 269.701H135.971L134.398 274.131ZM142.656 273.543V278H141.48V270.576H142.615V271.738H142.711C143.066 270.986 143.75 270.48 144.885 270.48C146.389 270.48 147.387 271.396 147.387 273.283V278H146.211V273.365C146.211 272.217 145.582 271.533 144.529 271.533C143.449 271.533 142.656 272.258 142.656 273.543ZM152.514 270.576V271.561H150.955V275.867C150.955 276.824 151.42 276.975 151.926 276.975C152.145 276.975 152.445 276.961 152.623 276.947V278.041C152.445 278.068 152.145 278.096 151.803 278.096C150.818 278.096 149.766 277.48 149.766 276.168V271.561H148.645V270.576H149.766V268.799H150.955V270.576H152.514ZM154.031 278V270.576H155.207V278H154.031ZM154.619 269.346C154.168 269.346 153.799 269.004 153.799 268.566C153.799 268.129 154.168 267.787 154.619 267.787C155.07 267.787 155.453 268.129 155.453 268.566C155.453 269.004 155.07 269.346 154.619 269.346ZM160.088 280.939C158.297 280.939 157.08 280.16 156.943 278.779H158.174C158.338 279.531 159.035 279.914 160.088 279.914C161.359 279.914 162.139 279.367 162.139 278.137V276.633H162.043C161.797 277.043 161.318 277.891 159.883 277.891C158.078 277.891 156.725 276.523 156.725 274.186C156.725 271.902 158.037 270.48 159.896 270.48C161.332 270.48 161.797 271.355 162.07 271.752H162.166V270.576H163.314V278.205C163.314 280.119 161.893 280.939 160.088 280.939ZM160.047 276.838C161.4 276.838 162.166 275.867 162.166 274.227C162.166 272.641 161.428 271.533 160.047 271.533C158.625 271.533 157.914 272.736 157.914 274.227C157.914 275.771 158.639 276.838 160.047 276.838ZM169.877 274.951V270.576H171.039V278H169.877V276.742H169.795C169.439 277.494 168.715 278.096 167.594 278.096C166.186 278.096 165.188 277.18 165.188 275.293V270.576H166.363V275.211C166.363 276.277 167.033 276.961 167.977 276.961C168.811 276.961 169.877 276.332 169.877 274.951ZM172.57 275.895C172.57 274.186 174.074 273.803 175.359 273.707C175.831 273.673 177.034 273.611 177.369 273.598V272.996C177.369 272.053 176.809 271.506 175.688 271.506C174.744 271.506 174.184 271.943 174.02 272.504H172.789C172.939 271.314 174.102 270.48 175.742 270.48C176.713 270.48 178.531 270.768 178.531 273.105V278H177.369V276.988H177.314C177.068 277.494 176.385 278.178 175.1 278.178C173.691 278.178 172.57 277.344 172.57 275.895ZM173.746 275.949C173.746 276.729 174.402 277.125 175.305 277.125C176.631 277.125 177.369 276.236 177.369 275.307V274.555L175.496 274.691C174.43 274.76 173.746 275.143 173.746 275.949ZM183.576 275.895C183.576 274.186 185.08 273.803 186.365 273.707C186.837 273.673 188.04 273.611 188.375 273.598V272.996C188.375 272.053 187.814 271.506 186.693 271.506C185.75 271.506 185.189 271.943 185.025 272.504H183.795C183.945 271.314 185.107 270.48 186.748 270.48C187.719 270.48 189.537 270.768 189.537 273.105V278H188.375V276.988H188.32C188.074 277.494 187.391 278.178 186.105 278.178C184.697 278.178 183.576 277.344 183.576 275.895ZM184.752 275.949C184.752 276.729 185.408 277.125 186.311 277.125C187.637 277.125 188.375 276.236 188.375 275.307V274.555L186.502 274.691C185.436 274.76 184.752 275.143 184.752 275.949ZM192.6 273.543V278H191.424V270.576H192.559V271.738H192.654C193.01 270.986 193.693 270.48 194.828 270.48C196.332 270.48 197.33 271.396 197.33 273.283V278H196.154V273.365C196.154 272.217 195.525 271.533 194.473 271.533C193.393 271.533 192.6 272.258 192.6 273.543ZM202.02 278.15C200.174 278.15 198.861 276.66 198.861 274.309C198.861 271.957 200.174 270.48 202.033 270.48C203.469 270.48 203.934 271.355 204.18 271.752H204.262V268.102H205.451V278H204.303V276.865H204.18C203.92 277.275 203.441 278.15 202.02 278.15ZM202.184 277.098C203.537 277.098 204.303 275.949 204.303 274.281C204.303 272.641 203.564 271.533 202.184 271.533C200.762 271.533 200.051 272.736 200.051 274.281C200.051 275.867 200.775 277.098 202.184 277.098ZM211.152 278V268.102H214.625C216.703 268.102 217.674 269.264 217.674 270.727C217.674 271.998 216.922 272.572 216.061 272.805V272.9C216.977 272.955 218.07 273.803 218.07 275.375C218.07 276.865 217.086 278 214.748 278H211.152ZM214.734 276.906C216.279 276.906 216.881 276.223 216.881 275.361C216.881 274.35 216.074 273.502 214.803 273.502H212.383V276.906H214.734ZM214.584 272.436C215.65 272.436 216.498 271.779 216.498 270.74C216.498 269.879 215.924 269.195 214.625 269.195H212.383V272.436H214.584ZM219.314 275.895C219.314 274.186 220.818 273.803 222.104 273.707C222.575 273.673 223.778 273.611 224.113 273.598V272.996C224.113 272.053 223.553 271.506 222.432 271.506C221.488 271.506 220.928 271.943 220.764 272.504H219.533C219.684 271.314 220.846 270.48 222.486 270.48C223.457 270.48 225.275 270.768 225.275 273.105V278H224.113V276.988H224.059C223.812 277.494 223.129 278.178 221.844 278.178C220.436 278.178 219.314 277.344 219.314 275.895ZM220.49 275.949C220.49 276.729 221.146 277.125 222.049 277.125C223.375 277.125 224.113 276.236 224.113 275.307V274.555L222.24 274.691C221.174 274.76 220.49 275.143 220.49 275.949ZM227.162 278V270.576H228.297V271.711H228.379C228.652 270.959 229.418 270.453 230.293 270.453C230.471 270.453 230.771 270.467 230.908 270.48V271.67C230.826 271.643 230.498 271.588 230.197 271.588C229.131 271.588 228.338 272.326 228.338 273.324V278H227.162ZM232.207 278V268.102H233.383V271.752H233.479C233.738 271.355 234.176 270.48 235.625 270.48C237.484 270.48 238.797 271.957 238.797 274.309C238.797 276.66 237.484 278.15 235.639 278.15C234.217 278.15 233.738 277.275 233.479 276.865H233.342V278H232.207ZM233.355 274.281C233.355 275.949 234.107 277.098 235.461 277.098C236.869 277.098 237.607 275.867 237.607 274.281C237.607 272.736 236.896 271.533 235.461 271.533C234.094 271.533 233.355 272.641 233.355 274.281ZM245.018 274.951V270.576H246.18V278H245.018V276.742H244.936C244.58 277.494 243.855 278.096 242.734 278.096C241.326 278.096 240.328 277.18 240.328 275.293V270.576H241.504V275.211C241.504 276.277 242.174 276.961 243.117 276.961C243.951 276.961 245.018 276.332 245.018 274.951ZM250.869 278.15C249.023 278.15 247.711 276.66 247.711 274.309C247.711 271.957 249.023 270.48 250.883 270.48C252.318 270.48 252.783 271.355 253.029 271.752H253.111V268.102H254.301V278H253.152V276.865H253.029C252.77 277.275 252.291 278.15 250.869 278.15ZM251.033 277.098C252.387 277.098 253.152 275.949 253.152 274.281C253.152 272.641 252.414 271.533 251.033 271.533C249.611 271.533 248.9 272.736 248.9 274.281C248.9 275.867 249.625 277.098 251.033 277.098ZM255.982 275.895C255.982 274.186 257.486 273.803 258.771 273.707C259.243 273.673 260.446 273.611 260.781 273.598V272.996C260.781 272.053 260.221 271.506 259.1 271.506C258.156 271.506 257.596 271.943 257.432 272.504H256.201C256.352 271.314 257.514 270.48 259.154 270.48C260.125 270.48 261.943 270.768 261.943 273.105V278H260.781V276.988H260.727C260.48 277.494 259.797 278.178 258.512 278.178C257.104 278.178 255.982 277.344 255.982 275.895ZM257.158 275.949C257.158 276.729 257.814 277.125 258.717 277.125C260.043 277.125 260.781 276.236 260.781 275.307V274.555L258.908 274.691C257.842 274.76 257.158 275.143 257.158 275.949Z" fill="var(--sol-element-primary)"/>
<path d="M266.744 274.227C266.758 271.643 267.455 269.496 268.713 267.678H269.752C268.822 269.031 267.961 271.793 267.961 274.227C267.961 276.66 268.822 279.436 269.752 280.789H268.713C267.455 278.957 266.758 276.811 266.744 274.227ZM274.1 276.264V273.611H271.461V272.504H274.1V269.865H275.207V272.504H277.859V273.611H275.207V276.264H274.1ZM283.287 278.137C281.209 278.137 279.76 276.988 279.773 275.375C279.76 274.09 280.648 273.037 281.783 272.859V272.805C280.799 272.572 280.156 271.67 280.156 270.59C280.156 269.072 281.482 267.965 283.287 267.965C285.092 267.965 286.418 269.072 286.432 270.59C286.418 271.67 285.762 272.572 284.791 272.805V272.859C285.912 273.037 286.801 274.09 286.814 275.375C286.801 276.988 285.352 278.137 283.287 278.137ZM283.287 277.057C284.709 277.057 285.584 276.346 285.584 275.307C285.584 274.213 284.613 273.406 283.287 273.406C281.961 273.406 280.977 274.213 281.004 275.307C280.977 276.346 281.865 277.057 283.287 277.057ZM283.287 272.367C284.408 272.367 285.229 271.684 285.229 270.686C285.229 269.701 284.449 269.031 283.287 269.031C282.111 269.031 281.346 269.701 281.346 270.686C281.346 271.684 282.152 272.367 283.287 272.367ZM288.469 278L288.455 277.098L291.832 273.543C293.008 272.299 293.568 271.629 293.568 270.713C293.568 269.701 292.707 269.031 291.6 269.031C290.424 269.031 289.672 269.783 289.672 270.891H288.51C288.496 269.141 289.85 267.965 291.641 267.965C293.432 267.965 294.717 269.168 294.717 270.713C294.717 271.82 294.197 272.682 292.447 274.486L290.178 276.824V276.906H294.895V278H288.469ZM299.283 274.227C299.27 276.811 298.572 278.957 297.314 280.789H296.275C297.205 279.436 298.066 276.66 298.066 274.227C298.066 271.793 297.205 269.031 296.275 267.678H297.314C298.572 269.496 299.27 271.643 299.283 274.227Z" fill="var(--sol-element-tertiary)"/>
</g>
<g clip-path="url(#clip13_1670_193087)">
<g clip-path="url(#clip14_1670_193087)">
<rect width="20" height="15" transform="translate(103.5 301.5)" fill="var(--sol-surface)"/>
<path fill-rule="evenodd" clip-rule="evenodd" d="M103.5 301.5V316.5H123.5V301.5H103.5Z" fill="var(--color-indigo-700)"/>
<g clip-path="url(#clip15_1670_193087)">
<rect width="11" height="9" transform="translate(103.5 301.5)" fill="var(--color-indigo-700)"/>
<path d="M102.247 309.625L104.723 310.711L114.806 302.68L116.112 301.067L113.464 300.704L109.352 304.165L106.041 306.496L102.247 309.625Z" fill="var(--sol-surface)"/>
<path d="M102.586 310.386L103.847 311.016L115.643 300.917H113.872L102.586 310.386Z" fill="var(--color-red-500)"/>
<path d="M116.003 309.625L113.806 311.021L103.444 302.68L102.138 301.067L104.786 300.704L108.898 304.165L112.209 306.496L116.003 309.625Z" fill="var(--sol-surface)"/>
<path d="M115.918 310.171L114.657 310.801L109.634 306.477L108.145 305.994L102.012 301.073H103.783L109.912 305.877L111.54 306.457L115.918 310.171Z" fill="var(--color-red-500)"/>
<path fill-rule="evenodd" clip-rule="evenodd" d="M109.5 301.5H108.5V305.5H103.5V306.5H108.5V310.5H109.5V306.5H114.5V305.5H109.5V301.5Z" fill="var(--color-red-500)"/>
<path fill-rule="evenodd" clip-rule="evenodd" d="M107.562 301.5H110.438V304.562L114.5 304.5V307.375L110.438 307.438V310.5H107.562V307.438L103.5 307.375V304.5L107.562 304.562V301.5ZM108.5 305.5H103.5V306.5H108.5V310.5H109.5V306.5H114.5V305.5H109.5V301.5H108.5V305.5Z" fill="var(--sol-surface)"/>
</g>
</g>
<path d="M133.031 314H131.746L135.369 304.102H136.668L140.291 314H138.992L138.008 311.211H134.029L133.031 314ZM134.398 310.131H137.625L136.053 305.701H135.971L134.398 310.131ZM142.656 309.543V314H141.48V306.576H142.615V307.738H142.711C143.066 306.986 143.75 306.48 144.885 306.48C146.389 306.48 147.387 307.396 147.387 309.283V314H146.211V309.365C146.211 308.217 145.582 307.533 144.529 307.533C143.449 307.533 142.656 308.258 142.656 309.543ZM152.281 316.939C150.49 316.939 149.273 316.16 149.137 314.779H150.367C150.531 315.531 151.229 315.914 152.281 315.914C153.553 315.914 154.332 315.367 154.332 314.137V312.633H154.236C153.99 313.043 153.512 313.891 152.076 313.891C150.271 313.891 148.918 312.523 148.918 310.186C148.918 307.902 150.23 306.48 152.09 306.48C153.525 306.48 153.99 307.355 154.264 307.752H154.359V306.576H155.508V314.205C155.508 316.119 154.086 316.939 152.281 316.939ZM152.24 312.838C153.594 312.838 154.359 311.867 154.359 310.227C154.359 308.641 153.621 307.533 152.24 307.533C150.818 307.533 150.107 308.736 150.107 310.227C150.107 311.771 150.832 312.838 152.24 312.838ZM162.07 310.951V306.576H163.232V314H162.07V312.742H161.988C161.633 313.494 160.908 314.096 159.787 314.096C158.379 314.096 157.381 313.18 157.381 311.293V306.576H158.557V311.211C158.557 312.277 159.227 312.961 160.17 312.961C161.004 312.961 162.07 312.332 162.07 310.951ZM165.119 314V306.576H166.295V314H165.119ZM165.707 305.346C165.256 305.346 164.887 305.004 164.887 304.566C164.887 304.129 165.256 303.787 165.707 303.787C166.158 303.787 166.541 304.129 166.541 304.566C166.541 305.004 166.158 305.346 165.707 305.346ZM169.344 304.102V314H168.168V304.102H169.344ZM172.393 304.102V314H171.217V304.102H172.393ZM173.91 311.895C173.91 310.186 175.414 309.803 176.699 309.707C177.171 309.673 178.374 309.611 178.709 309.598V308.996C178.709 308.053 178.148 307.506 177.027 307.506C176.084 307.506 175.523 307.943 175.359 308.504H174.129C174.279 307.314 175.441 306.48 177.082 306.48C178.053 306.48 179.871 306.768 179.871 309.105V314H178.709V312.988H178.654C178.408 313.494 177.725 314.178 176.439 314.178C175.031 314.178 173.91 313.344 173.91 311.895ZM175.086 311.949C175.086 312.729 175.742 313.125 176.645 313.125C177.971 313.125 178.709 312.236 178.709 311.307V310.555L176.836 310.691C175.77 310.76 175.086 311.143 175.086 311.949Z" fill="var(--sol-element-primary)"/>
<path d="M184.744 310.227C184.758 307.643 185.455 305.496 186.713 303.678H187.752C186.822 305.031 185.961 307.793 185.961 310.227C185.961 312.66 186.822 315.436 187.752 316.789H186.713C185.455 314.957 184.758 312.811 184.744 310.227ZM192.1 312.264V309.611H189.461V308.504H192.1V305.865H193.207V308.504H195.859V309.611H193.207V312.264H192.1ZM201.287 314.137C199.209 314.137 197.76 312.988 197.773 311.375C197.76 310.09 198.648 309.037 199.783 308.859V308.805C198.799 308.572 198.156 307.67 198.156 306.59C198.156 305.072 199.482 303.965 201.287 303.965C203.092 303.965 204.418 305.072 204.432 306.59C204.418 307.67 203.762 308.572 202.791 308.805V308.859C203.912 309.037 204.801 310.09 204.814 311.375C204.801 312.988 203.352 314.137 201.287 314.137ZM201.287 313.057C202.709 313.057 203.584 312.346 203.584 311.307C203.584 310.213 202.613 309.406 201.287 309.406C199.961 309.406 198.977 310.213 199.004 311.307C198.977 312.346 199.865 313.057 201.287 313.057ZM201.287 308.367C202.408 308.367 203.229 307.684 203.229 306.686C203.229 305.701 202.449 305.031 201.287 305.031C200.111 305.031 199.346 305.701 199.346 306.686C199.346 307.684 200.152 308.367 201.287 308.367ZM206.469 314L206.455 313.098L209.832 309.543C211.008 308.299 211.568 307.629 211.568 306.713C211.568 305.701 210.707 305.031 209.6 305.031C208.424 305.031 207.672 305.783 207.672 306.891H206.51C206.496 305.141 207.85 303.965 209.641 303.965C211.432 303.965 212.717 305.168 212.717 306.713C212.717 307.82 212.197 308.682 210.447 310.486L208.178 312.824V312.906H212.895V314H206.469ZM217.283 310.227C217.27 312.811 216.572 314.957 215.314 316.789H214.275C215.205 315.436 216.066 312.66 216.066 310.227C216.066 307.793 215.205 305.031 214.275 303.678H215.314C216.572 305.496 217.27 307.643 217.283 310.227Z" fill="var(--sol-element-tertiary)"/>
</g>
</g>
<g clip-path="url(#clip16_1670_193087)">
<rect x="343.5" y="101.088" width="4" height="156" fill="var(--sol-border-solid-variant)"/>
</g>
</g>
</g>
</g>
<defs>
<filter id="filter0_d_1670_193087" x="89.5" y="57" width="264" height="40" filterUnits="userSpaceOnUse" color-interpolation-filters="sRGB">
<feFlood flood-opacity="0" result="BackgroundImageFix"/>
<feColorMatrix in="SourceAlpha" type="matrix" values="0 0 0 0 0 0 0 0 0 0 0 0 0 0 0 0 0 0 127 0" result="hardAlpha"/>
<feMorphology radius="2" operator="dilate" in="SourceAlpha" result="effect1_dropShadow_1670_193087"/>
<feOffset/>
<feComposite in2="hardAlpha" operator="out"/>
<feColorMatrix type="matrix" values="0 0 0 0 0.156863 0 0 0 0 0.137255 0 0 0 0 0.388235 0 0 0 1 0"/>
<feBlend mode="normal" in2="BackgroundImageFix" result="effect1_dropShadow_1670_193087"/>
<feBlend mode="normal" in="SourceGraphic" in2="effect1_dropShadow_1670_193087" result="shape"/>
</filter>
<filter id="filter1_dd_1670_193087" x="83.5" y="93" width="276" height="336" filterUnits="userSpaceOnUse" color-interpolation-filters="sRGB">
<feFlood flood-opacity="0" result="BackgroundImageFix"/>
<feColorMatrix in="SourceAlpha" type="matrix" values="0 0 0 0 0 0 0 0 0 0 0 0 0 0 0 0 0 0 127 0" result="hardAlpha"/>
<feOffset dy="4"/>
<feGaussianBlur stdDeviation="4"/>
<feComposite in2="hardAlpha" operator="out"/>
<feColorMatrix type="matrix" values="0 0 0 0 0 0 0 0 0 0 0 0 0 0 0 0 0 0 0.08 0"/>
<feBlend mode="normal" in2="BackgroundImageFix" result="effect1_dropShadow_1670_193087"/>
<feColorMatrix in="SourceAlpha" type="matrix" values="0 0 0 0 0 0 0 0 0 0 0 0 0 0 0 0 0 0 127 0" result="hardAlpha"/>
<feOffset/>
<feGaussianBlur stdDeviation="0.5"/>
<feComposite in2="hardAlpha" operator="out"/>
<feColorMatrix type="matrix" values="0 0 0 0 0 0 0 0 0 0 0 0 0 0 0 0 0 0 0.08 0"/>
<feBlend mode="normal" in2="effect1_dropShadow_1670_193087" result="effect2_dropShadow_1670_193087"/>
<feBlend mode="normal" in="SourceGraphic" in2="effect2_dropShadow_1670_193087" result="shape"/>
</filter>
<clipPath id="clip0_1670_193087">
<path d="M0 8C0 3.58172 3.58172 0 8 0H434C438.418 0 442 3.58172 442 8V298C442 302.418 438.418 306 434 306H8C3.58172 306 0 302.418 0 298V8Z" fill="var(--sol-surface)"/>
</clipPath>
<clipPath id="clip1_1670_193087">
<path d="M91.5 63C91.5 60.7909 93.2909 59 95.5 59H347.5C349.709 59 351.5 60.7909 351.5 63V91C351.5 93.2091 349.709 95 347.5 95H95.5C93.2909 95 91.5 93.2091 91.5 91V63Z" fill="var(--sol-surface)"/>
</clipPath>
<clipPath id="clip2_1670_193087">
<path d="M91.5 101C91.5 98.7909 93.2909 97 95.5 97H347.5C349.709 97 351.5 98.7909 351.5 101V413C351.5 415.209 349.709 417 347.5 417H95.5C93.2909 417 91.5 415.209 91.5 413V101Z" fill="var(--sol-surface)"/>
</clipPath>
<clipPath id="clip3_1670_193087">
<rect width="252" height="430" fill="var(--sol-surface)" transform="translate(95.5 101)"/>
</clipPath>
<clipPath id="clip4_1670_193087">
<path d="M103.5 113C103.5 110.791 105.291 109 107.5 109H335.5C337.709 109 339.5 110.791 339.5 113V135C339.5 137.209 337.709 139 335.5 139H107.5C105.291 139 103.5 137.209 103.5 135V113Z" fill="var(--sol-surface)"/>
</clipPath>
<clipPath id="clip5_1670_193087">
<path d="M95.5 149C95.5 147.895 96.3954 147 97.5 147H345.5C346.605 147 347.5 147.895 347.5 149V181C347.5 182.105 346.605 183 345.5 183H97.5C96.3954 183 95.5 182.105 95.5 181V149Z" fill="var(--sol-surface)"/>
</clipPath>
<clipPath id="clip6_1670_193087">
<rect width="20" height="15" fill="var(--sol-surface)" transform="translate(103.5 157.5)"/>
</clipPath>
<clipPath id="clip7_1670_193087">
<path d="M95.5 185C95.5 183.895 96.3954 183 97.5 183H345.5C346.605 183 347.5 183.895 347.5 185V217C347.5 218.105 346.605 219 345.5 219H97.5C96.3954 219 95.5 218.105 95.5 217V185Z" fill="var(--sol-surface)"/>
</clipPath>
<clipPath id="clip8_1670_193087">
<rect width="20" height="15" fill="var(--sol-surface)" transform="translate(103.5 193.5)"/>
</clipPath>
<clipPath id="clip9_1670_193087">
<path d="M95.5 221C95.5 219.895 96.3954 219 97.5 219H345.5C346.605 219 347.5 219.895 347.5 221V253C347.5 254.105 346.605 255 345.5 255H97.5C96.3954 255 95.5 254.105 95.5 253V221Z" fill="var(--sol-surface)"/>
</clipPath>
<clipPath id="clip10_1670_193087">
<rect width="20" height="15" fill="var(--sol-surface)" transform="translate(103.5 229.5)"/>
</clipPath>
<clipPath id="clip11_1670_193087">
<path d="M95.5 257C95.5 255.895 96.3954 255 97.5 255H345.5C346.605 255 347.5 255.895 347.5 257V289C347.5 290.105 346.605 291 345.5 291H97.5C96.3954 291 95.5 290.105 95.5 289V257Z" fill="var(--sol-surface)"/>
</clipPath>
<clipPath id="clip12_1670_193087">
<rect width="20" height="15" fill="var(--sol-surface)" transform="translate(103.5 265.5)"/>
</clipPath>
<clipPath id="clip13_1670_193087">
<path d="M95.5 293C95.5 291.895 96.3954 291 97.5 291H345.5C346.605 291 347.5 291.895 347.5 293V325C347.5 326.105 346.605 327 345.5 327H97.5C96.3954 327 95.5 326.105 95.5 325V293Z" fill="var(--sol-surface)"/>
</clipPath>
<clipPath id="clip14_1670_193087">
<rect width="20" height="15" fill="var(--sol-surface)" transform="translate(103.5 301.5)"/>
</clipPath>
<clipPath id="clip15_1670_193087">
<rect width="11" height="9" fill="var(--sol-surface)" transform="translate(103.5 301.5)"/>
</clipPath>
<clipPath id="clip16_1670_193087">
<path d="M343.5 103.088C343.5 101.983 344.395 101.088 345.5 101.088V101.088C346.605 101.088 347.5 101.983 347.5 103.088V255.088C347.5 256.192 346.605 257.088 345.5 257.088V257.088C344.395 257.088 343.5 256.192 343.5 255.088V103.088Z" fill="var(--sol-surface)"/>
</clipPath>
</defs>
</svg>
