<svg width="442" height="284" viewBox="0 0 442 284" fill="none" xmlns="http://www.w3.org/2000/svg">
<style>
:root {
  --sol-element-primary: #161616;
  --sol-element-tertiary: #636363;
  --sol-element-quaternary: #858585;
  --sol-surface: #ffffff;
  --sol-border-solid-variant: #e0e0e0;
  --sol-static-white: #ffffff;
  --sol-static-black: #000000;
  --color-indigo-700: #142e96;
  --color-indigo-400: #6280e4;
  --color-orange-700: #833606;
  --color-orange-500: #e06418;
  --color-yellow-600: #a88900;
  --color-yellow-400: #ecc824;
  --color-yellow-300: #f5dc6a;
  --color-green-500: #35a142;
  --color-green-400: #5cc066;
  --color-blue-200: #c2e6f7;
  --color-red-700: #8a2e38;
  --color-red-600: #b84451;
  --color-red-500: #e76067;
}
@media (prefers-color-scheme: dark) {
  :root {
    --sol-element-primary: #ffffff;
    --sol-element-tertiary: rgba(255, 255, 255, 0.60);
    --sol-element-quaternary: rgba(255, 255, 255, 0.50);
    --sol-surface: #161616;
    --sol-border-solid-variant: #3d3d3d;
  }
}
</style>

<g clip-path="url(#clip0_1670_193137)">
<g filter="url(#filter0_dd_1670_193137)">
<g clip-path="url(#clip1_1670_193137)">
<path d="M189.5 4C189.5 1.79086 191.291 0 193.5 0H248.5C250.709 0 252.5 1.79086 252.5 4V316C252.5 318.209 250.709 320 248.5 320H193.5C191.291 320 189.5 318.209 189.5 316V4Z" fill="var(--sol-surface)"/>
<g clip-path="url(#clip2_1670_193137)">
<g clip-path="url(#clip3_1670_193137)">
<g clip-path="url(#clip4_1670_193137)">
<rect width="20" height="15" transform="translate(201.5 14.5)" fill="var(--sol-surface)"/>
<path fill-rule="evenodd" clip-rule="evenodd" d="M206.5 14.5H216.5V29.5H206.5V14.5Z" fill="var(--color-yellow-400)"/>
<path fill-rule="evenodd" clip-rule="evenodd" d="M201.5 14.5H206.5V29.5H201.5V14.5Z" fill="var(--color-indigo-700)"/>
<path fill-rule="evenodd" clip-rule="evenodd" d="M216.5 14.5H221.5V29.5H216.5V14.5Z" fill="var(--color-red-500)"/>
<path d="M212.178 17.3453C212.389 17.2082 212.654 17.2082 212.807 17.4498C212.959 17.6914 212.775 17.9411 212.728 18.026C212.682 18.1113 212.584 18.4227 212.807 18.525C213.029 18.6271 213.355 18.5704 213.524 18.4225C213.517 18.4189 213.319 18.3256 213.371 18.1774C213.425 18.0259 213.789 17.5987 214.457 17.9166C215.125 18.2345 215.239 18.5256 215.057 18.7613C214.874 18.9972 214.385 19.4016 214.503 19.6744C214.506 19.6683 214.59 19.5263 214.702 19.5992C214.817 19.6741 214.792 19.8063 214.792 19.8063C214.792 19.8063 215.607 19.7614 215.696 20.5514C215.784 21.3323 215.181 21.5468 215.168 21.5514C215.176 21.5606 215.359 21.767 215.234 21.9029C215.106 22.042 214.959 21.9576 214.959 21.9576C214.959 21.9576 214.69 22.2117 214.824 22.5006C214.956 22.7836 215.053 22.8711 215.057 22.8746C215.057 22.8746 215.076 22.7858 215.234 22.7858C215.393 22.786 215.688 23.2669 215.505 23.4166C215.326 23.5629 215.238 23.5398 215.234 23.5387C215.242 23.545 215.628 23.8716 215.505 24.3873C215.38 24.9082 215.046 25.1594 214.702 25.3053C214.359 25.4511 213.948 25.4508 213.422 25.4508C212.898 25.4509 212.587 25.7753 212.584 25.7789C212.597 25.7843 212.848 25.8877 212.762 26.1207C212.673 26.3603 212.469 26.3609 212.469 26.3609C212.461 26.3717 212.317 26.572 212.178 26.5026C212.04 26.4334 211.951 26.3658 211.944 26.3609C211.94 26.3698 211.822 26.5973 211.687 26.6363V26.6451C211.681 26.6451 211.675 26.6412 211.669 26.6402C211.663 26.6412 211.657 26.6451 211.65 26.6451V26.6363C211.516 26.5978 211.399 26.3719 211.394 26.3609C211.39 26.3638 211.3 26.4323 211.16 26.5026C211.019 26.5731 210.873 26.3676 210.868 26.3609C210.86 26.3608 210.663 26.3553 210.576 26.1207C210.489 25.8853 210.745 25.7824 210.754 25.7789C210.754 25.7789 210.442 25.4508 209.915 25.4508C209.389 25.4508 208.979 25.4509 208.636 25.3053C208.292 25.1594 207.958 24.9082 207.833 24.3873C207.708 23.8665 208.103 23.5387 208.103 23.5387C208.103 23.5387 208.016 23.5661 207.833 23.4166C207.65 23.267 207.945 22.7858 208.103 22.7858C208.258 22.7858 208.279 22.871 208.28 22.8746C208.28 22.8746 208.378 22.7896 208.513 22.5006C208.647 22.2117 208.379 21.9578 208.379 21.9576C208.379 21.9576 208.232 22.042 208.103 21.9029C207.977 21.7659 208.164 21.5574 208.17 21.5514C208.17 21.5514 207.553 21.341 207.642 20.5514C207.73 19.7699 208.528 19.8054 208.545 19.8063C208.545 19.8063 208.521 19.6741 208.636 19.5992C208.749 19.5258 208.833 19.6717 208.835 19.6744C208.953 19.4015 208.463 18.9971 208.28 18.7613C208.098 18.5256 208.213 18.2345 208.881 17.9166C209.549 17.5988 209.912 18.0259 209.966 18.1774C210.019 18.3286 209.812 18.4225 209.812 18.4225C209.981 18.5707 210.309 18.6273 210.531 18.525C210.754 18.4227 210.656 18.1115 210.609 18.026C210.563 17.9411 210.379 17.6914 210.531 17.4498C210.684 17.2082 210.949 17.2081 211.16 17.3453C211.341 17.4627 211.598 17.5231 211.669 17.5387C211.74 17.523 211.997 17.4625 212.178 17.3453Z" fill="var(--color-yellow-600)"/>
<path d="M209.069 24.4986L209.135 24.3398C209.89 24.6634 210.749 24.8254 211.712 24.8254C212.676 24.8254 213.511 24.6635 214.221 24.3406L214.29 24.4979C213.558 24.8313 212.698 24.9977 211.712 24.9977C210.727 24.9977 209.846 24.8315 209.069 24.4986Z" fill="var(--color-orange-700)"/>
</g>
</g>
<g clip-path="url(#clip5_1670_193137)">
<g clip-path="url(#clip6_1670_193137)">
<rect width="20" height="15" transform="translate(201.5 50.5)" fill="var(--sol-surface)"/>
<path fill-rule="evenodd" clip-rule="evenodd" d="M201.5 50.5H221.5V65.5H201.5V50.5Z" fill="var(--sol-surface)"/>
<path fill-rule="evenodd" clip-rule="evenodd" d="M201.5 50.5V55.5H221.5V50.5H201.5Z" fill="var(--color-green-500)"/>
<path fill-rule="evenodd" clip-rule="evenodd" d="M201.5 60.5V65.5H221.5V60.5H201.5Z" fill="var(--sol-element-primary)"/>
<rect x="201.5" y="50.5" width="6" height="15" fill="var(--color-red-500)"/>
</g>
</g>
<g clip-path="url(#clip7_1670_193137)">
<g clip-path="url(#clip8_1670_193137)">
<rect width="20" height="15" transform="translate(201.5 86.5)" fill="var(--sol-surface)"/>
<path fill-rule="evenodd" clip-rule="evenodd" d="M215.5 86.5H221.5V101.5H215.5V86.5Z" fill="var(--color-green-400)"/>
<path fill-rule="evenodd" clip-rule="evenodd" d="M207.5 86.5H215.5V101.5H207.5V86.5Z" fill="var(--color-red-600)"/>
<path fill-rule="evenodd" clip-rule="evenodd" d="M201.5 86.5H207.5V101.5H201.5V86.5Z" fill="var(--sol-element-primary)"/>
<path d="M209.421 91.6213C209.06 92.2283 208.818 92.7847 208.693 93.2902C208.746 93.3388 208.78 93.3812 208.813 93.4396C208.911 93.6088 208.993 93.7734 209.06 93.9328L208.772 94.0549C208.728 93.9475 208.673 93.8381 208.612 93.7248C208.583 93.9708 208.587 94.2031 208.62 94.4221C208.672 94.4275 208.716 94.4369 208.767 94.4553C208.95 94.5221 209.119 94.5956 209.272 94.675L209.131 94.9533C209 94.8857 208.856 94.8234 208.699 94.7648C208.7 94.7677 208.701 94.7707 208.702 94.7736C208.836 95.1779 209.042 95.5492 209.318 95.8889C209.361 95.8798 209.4 95.8752 209.446 95.8752C209.642 95.8752 209.826 95.8864 209.997 95.9084L209.96 96.218C209.844 96.2031 209.721 96.1956 209.592 96.1916C209.839 96.4388 210.13 96.6672 210.463 96.8762L210.331 97.0988C209.917 96.8393 209.564 96.5496 209.273 96.2307C209.236 96.2455 209.189 96.2635 209.13 96.2892C209.122 96.2926 209.114 96.2948 209.106 96.298C209.36 96.5645 209.661 96.8097 210.008 97.0334L209.873 97.2541C209.471 96.995 209.128 96.7063 208.843 96.3898C208.707 96.4244 208.594 96.4271 208.46 96.3879L208.544 96.0881C208.563 96.0937 208.583 96.095 208.602 96.0978C208.338 95.7468 208.139 95.3645 208.006 94.9504C207.982 94.877 207.963 94.8018 207.946 94.7258C207.843 94.7061 207.755 94.6676 207.664 94.6008L207.846 94.3469C207.861 94.3578 207.877 94.3647 207.893 94.3732C207.861 93.9911 207.905 93.5786 208.026 93.1359C207.951 93.0488 207.904 92.9593 207.875 92.842L208.142 92.7726C208.285 92.3676 208.486 91.9385 208.747 91.4865L208.966 91.6203C208.681 92.1127 208.47 92.5724 208.332 93.0002C208.371 93.0352 208.417 93.0735 208.475 93.1164C208.613 92.6129 208.857 92.0694 209.204 91.4855L209.421 91.6213ZM208.326 94.7365C208.285 94.7391 208.246 94.7385 208.21 94.7394C208.221 94.7829 208.233 94.826 208.247 94.8683C208.385 95.2977 208.599 95.6915 208.889 96.05C208.925 96.0362 208.966 96.0216 209.011 96.0021C209.029 95.994 209.047 95.9859 209.063 95.9787C208.798 95.6358 208.597 95.2627 208.463 94.8576C208.449 94.8165 208.437 94.7745 208.426 94.7326C208.397 94.734 208.364 94.7341 208.326 94.7365ZM208.24 93.3273C208.143 93.7252 208.115 94.0925 208.154 94.4299C208.201 94.4302 208.253 94.4288 208.313 94.425C208.331 94.4239 208.347 94.423 208.363 94.4221C208.322 94.119 208.334 93.7958 208.398 93.4523C208.37 93.4302 208.338 93.4021 208.296 93.3713C208.276 93.3567 208.258 93.3412 208.24 93.3273Z" fill="var(--sol-surface)"/>
<path d="M213.37 91.6213C213.731 92.2283 213.973 92.7847 214.098 93.2902C214.045 93.3388 214.011 93.3812 213.978 93.4396C213.88 93.6088 213.798 93.7734 213.731 93.9328L214.019 94.0549C214.063 93.9475 214.118 93.8381 214.179 93.7248C214.208 93.9708 214.204 94.2031 214.171 94.4221C214.119 94.4275 214.075 94.4369 214.024 94.4553C213.841 94.5221 213.672 94.5956 213.519 94.675L213.66 94.9533C213.791 94.8857 213.935 94.8234 214.092 94.7648C214.091 94.7677 214.09 94.7707 214.089 94.7736C213.955 95.1779 213.749 95.5492 213.473 95.8889C213.43 95.8798 213.391 95.8752 213.345 95.8752C213.149 95.8752 212.965 95.8864 212.794 95.9084L212.831 96.218C212.947 96.2031 213.07 96.1956 213.199 96.1916C212.952 96.4388 212.661 96.6672 212.328 96.8762L212.46 97.0988C212.874 96.8393 213.227 96.5496 213.518 96.2307C213.555 96.2455 213.602 96.2635 213.661 96.2892C213.669 96.2926 213.677 96.2948 213.685 96.298C213.431 96.5645 213.13 96.8097 212.783 97.0334L212.918 97.2541C213.32 96.995 213.663 96.7063 213.948 96.3898C214.084 96.4244 214.197 96.4271 214.331 96.3879L214.247 96.0881C214.228 96.0937 214.208 96.095 214.189 96.0978C214.453 95.7468 214.652 95.3645 214.785 94.9504C214.809 94.877 214.828 94.8018 214.845 94.7258C214.949 94.7061 215.036 94.6676 215.127 94.6008L214.945 94.3469C214.93 94.3578 214.914 94.3647 214.898 94.3732C214.93 93.9911 214.886 93.5786 214.765 93.1359C214.84 93.0488 214.888 92.9593 214.916 92.842L214.649 92.7726C214.506 92.3676 214.305 91.9385 214.044 91.4865L213.825 91.6203C214.11 92.1127 214.321 92.5724 214.459 93.0002C214.42 93.0352 214.374 93.0735 214.316 93.1164C214.178 92.6129 213.934 92.0694 213.587 91.4855L213.37 91.6213ZM214.465 94.7365C214.506 94.7391 214.545 94.7385 214.581 94.7394C214.57 94.7829 214.558 94.826 214.544 94.8683C214.406 95.2977 214.192 95.6915 213.902 96.05C213.866 96.0362 213.825 96.0216 213.78 96.0021C213.762 95.994 213.744 95.9859 213.728 95.9787C213.993 95.6358 214.194 95.2627 214.328 94.8576C214.342 94.8165 214.354 94.7745 214.365 94.7326C214.394 94.734 214.427 94.7341 214.465 94.7365ZM214.551 93.3273C214.648 93.7252 214.676 94.0925 214.637 94.4299C214.59 94.4302 214.538 94.4288 214.478 94.425C214.46 94.4239 214.444 94.423 214.428 94.4221C214.469 94.119 214.457 93.7958 214.393 93.4523C214.421 93.4302 214.453 93.4021 214.495 93.3713C214.515 93.3567 214.533 93.3412 214.551 93.3273Z" fill="var(--sol-surface)"/>
<path fill-rule="evenodd" clip-rule="evenodd" d="M210.308 96.6651L209.61 97.3554C209.61 97.3554 210.212 97.7239 211.346 97.7239C212.48 97.7239 213.14 97.3554 213.14 97.3554L212.61 96.6651C212.61 96.6651 211.887 96.9451 211.375 96.9451C210.863 96.9451 210.308 96.6651 210.308 96.6651Z" fill="var(--sol-surface)"/>
<path d="M210.322 97.1056C210.322 97.1056 210.913 97.245 211.366 97.245C211.819 97.245 212.409 97.1056 212.409 97.1056" stroke="var(--color-red-700)" stroke-width="0.5"/>
<path d="M210.603 93.0329H210.635L210.8 92.9059H211.962L212.158 93.0329H212.256V92.0426H212.561V93.0329H212.667V93.2018H212.561V94.9977C212.561 95.1032 212.673 95.2846 212.909 95.5202L213.178 95.7887H209.441L210.062 95.4909C210.179 95.4348 210.262 95.273 210.298 94.9879V93.2018H210.032V93.0329H210.298V92.0426H210.603V93.0329ZM210.603 95.0075C210.579 95.1991 210.538 95.353 210.477 95.4762H212.458C212.324 95.3002 212.256 95.1426 212.256 94.9977V93.2018H210.603V95.0075ZM212.109 95.3024H210.792V93.9997H211.451L212.109 95.3024ZM211.4 91.9167C211.708 91.9168 211.957 92.1386 211.957 92.4118C211.957 92.6848 211.708 92.9057 211.4 92.9059C211.093 92.9059 210.843 92.6849 210.843 92.4118C210.843 92.1385 211.093 91.9167 211.4 91.9167Z" fill="var(--sol-surface)"/>
<path d="M212.067 90.2939C212.081 90.297 212.091 90.3024 212.101 90.3085C212.13 90.3266 212.161 90.3629 212.186 90.4062C212.234 90.4669 212.263 90.5424 212.276 90.6318C212.281 90.6586 212.282 90.6814 212.284 90.7099C212.296 90.6763 212.307 90.6369 212.315 90.5937C212.319 90.5773 212.32 90.5651 212.323 90.5419C212.325 90.532 212.326 90.5279 212.327 90.5234C212.328 90.5186 212.328 90.5181 212.329 90.5117C212.332 90.4988 212.336 90.4902 212.345 90.4765C212.353 90.4647 212.352 90.4639 212.372 90.4472C212.404 90.4299 212.404 90.43 212.451 90.4326C212.513 90.4695 212.513 90.4702 212.521 90.4931C212.527 90.5049 212.529 90.5128 212.53 90.5234C212.531 90.5299 212.532 90.5368 212.532 90.5468C212.533 90.554 212.533 90.5632 212.533 90.5771C212.533 90.5828 212.535 90.6119 212.535 90.621C212.536 90.6385 212.536 90.6564 212.536 90.6748C212.536 90.715 212.533 90.7523 212.529 90.7998C212.581 90.7497 212.659 90.7626 212.746 90.8105C212.832 90.8577 212.885 90.9258 212.908 91.0087C212.915 91.0327 212.919 91.0547 212.921 91.0781C212.953 91.0419 212.985 90.9824 213.014 90.9052C213.04 90.8333 213.087 90.6508 213.09 90.6386C213.095 90.6244 213.099 90.6133 213.108 90.6005C213.125 90.5772 213.149 90.5601 213.188 90.5585C213.233 90.5568 213.264 90.5811 213.281 90.6123C213.294 90.6361 213.296 90.6498 213.298 90.6884C213.299 90.722 213.3 90.7718 213.3 90.9023C213.3 91.1602 213.337 91.3474 213.387 91.4248C213.391 91.4248 213.504 91.4247 213.507 91.4248C213.507 91.6291 213.332 91.7206 213.217 91.539C213.166 91.4599 213.129 91.3317 213.11 91.1669C213.076 91.2179 213.036 91.2589 212.989 91.2871C212.892 91.346 212.839 91.3643 212.776 91.3242C212.736 91.2984 212.721 91.2609 212.718 91.2177C212.716 91.2001 212.717 91.1908 212.719 91.1552C212.721 91.1112 212.72 91.0883 212.714 91.0664C212.711 91.0552 212.706 91.0446 212.699 91.0351C212.707 91.0926 212.707 91.134 212.695 91.1757C212.673 91.2536 212.61 91.3006 212.525 91.3007C212.408 91.3007 212.332 91.2316 212.312 91.1191C212.306 91.0831 212.304 91.0536 212.307 91.0068C212.234 91.0477 212.159 91.0429 212.114 90.9619C212.103 90.9409 212.097 90.9225 212.093 90.8964C212.064 90.9269 212.03 90.957 211.991 90.9863C211.909 91.0485 211.848 91.0892 211.803 91.1113C211.723 91.1497 211.651 91.1529 211.607 91.0712C211.582 91.0229 211.588 90.9807 211.609 90.915C211.615 90.8976 211.622 90.8785 211.632 90.8544C211.637 90.8413 211.655 90.7964 211.657 90.7919C211.664 90.7751 211.669 90.7611 211.674 90.748C211.696 90.69 211.707 90.6492 211.707 90.6259C211.707 90.5917 211.707 90.5679 211.706 90.5498C211.667 90.5797 211.616 90.6283 211.552 90.6972C211.33 90.9357 211.098 90.9359 210.909 90.7871C210.863 90.7509 210.83 90.7144 210.811 90.6874L210.807 90.6826C210.801 90.6729 210.788 90.6543 210.77 90.6367C210.722 90.59 210.697 90.5867 210.656 90.6376C210.647 90.6489 210.638 90.6626 210.629 90.6787C210.524 90.8594 210.441 90.9622 210.342 91.0058C210.207 91.065 210.081 91.0016 209.968 90.8378C209.911 90.7551 209.835 90.7353 209.795 90.7685C209.74 90.8145 209.737 90.9485 209.835 91.1503C209.943 91.3735 209.963 91.5267 209.843 91.6074C209.743 91.6739 209.59 91.6369 209.356 91.5185L209.446 91.331C209.54 91.3787 209.616 91.4099 209.672 91.4238C209.694 91.4291 209.71 91.4316 209.72 91.4326C209.72 91.4304 209.719 91.4273 209.719 91.4248C209.713 91.3841 209.692 91.3224 209.653 91.2431C209.518 90.9635 209.524 90.7259 209.668 90.6064C209.807 90.4906 210.013 90.5435 210.133 90.7167C210.197 90.8093 210.232 90.8273 210.262 90.8144C210.308 90.794 210.372 90.7161 210.455 90.5722C210.469 90.5476 210.484 90.5254 210.5 90.5058C210.628 90.3451 210.785 90.3653 210.908 90.4853C210.938 90.5143 210.96 90.5433 210.975 90.5654C210.977 90.5681 210.982 90.5727 210.987 90.579C211 90.5934 211.015 90.6086 211.032 90.622C211.144 90.71 211.26 90.7098 211.405 90.5537C211.594 90.3502 211.705 90.2744 211.811 90.3261C211.869 90.3548 211.893 90.4083 211.903 90.4794C211.909 90.517 211.909 90.5492 211.909 90.6259C211.909 90.6822 211.894 90.7425 211.863 90.8232C211.865 90.8225 211.868 90.8204 211.871 90.8183C212.023 90.7028 212.052 90.6086 212.018 90.5263C211.991 90.5001 211.972 90.4789 211.961 90.4609C211.956 90.4529 211.952 90.4442 211.948 90.4345C211.938 90.4069 211.936 90.3779 211.955 90.3437C211.982 90.2955 212.028 90.2848 212.067 90.2939Z" fill="var(--sol-surface)"/>
<path d="M210.479 94.5748L210.354 94.6637L209.798 93.8472C209.734 93.8754 209.658 93.9329 209.609 94.0465C209.514 94.2684 209.476 94.655 209.475 94.6695L209.117 94.44C209.121 94.4312 209.237 94.1554 209.237 93.8199C209.237 93.5853 209.413 93.4854 209.523 93.4459L209.396 93.2574L209.52 93.1676L210.479 94.5748Z" fill="var(--sol-surface)"/>
<path d="M212.36 94.5748L212.485 94.6637L213.041 93.8472C213.105 93.8754 213.181 93.9329 213.229 94.0465C213.325 94.2684 213.363 94.655 213.364 94.6695L213.722 94.44C213.718 94.4312 213.602 94.1554 213.602 93.8199C213.602 93.5853 213.425 93.4854 213.315 93.4459L213.443 93.2574L213.319 93.1676L212.36 94.5748Z" fill="var(--sol-surface)"/>
</g>
</g>
<g clip-path="url(#clip9_1670_193137)">
<g clip-path="url(#clip10_1670_193137)">
<rect width="20" height="15" transform="translate(201.5 122.5)" fill="var(--sol-surface)"/>
<path fill-rule="evenodd" clip-rule="evenodd" d="M201.5 122.5H221.5V137.5H201.5V122.5Z" fill="var(--sol-element-primary)"/>
<path fill-rule="evenodd" clip-rule="evenodd" d="M211.5 131.25L210.109 133.625L210.144 131.002L207.603 132.659L209.057 130.309L205.869 130.919L208.453 129.306L205.25 128.75L208.453 128.194L205.869 126.581L209.057 127.191L207.603 124.841L210.144 126.498L210.109 123.875L211.5 126.25L212.891 123.875L212.856 126.498L215.397 124.841L213.943 127.191L217.131 126.581L214.547 128.194L217.75 128.75L214.547 129.306L217.131 130.919L213.943 130.309L215.397 132.659L212.856 131.002L212.891 133.625L211.5 131.25Z" fill="var(--color-yellow-400)"/>
<rect x="205.25" y="131.25" width="12.5" height="6.25" fill="var(--sol-surface)"/>
<rect x="202.75" y="128.75" width="17.5" height="2.5" fill="var(--color-indigo-400)"/>
<path fill-rule="evenodd" clip-rule="evenodd" d="M201.5 126.25L211.5 137.5L221.5 126.25V137.5H201.5V126.25Z" fill="var(--color-red-500)"/>
</g>
</g>
<g clip-path="url(#clip11_1670_193137)">
<g clip-path="url(#clip12_1670_193137)">
<rect width="20" height="15" transform="translate(201.5 158.5)" fill="var(--sol-surface)"/>
<path fill-rule="evenodd" clip-rule="evenodd" d="M201.5 158.5V173.5H221.5V158.5H201.5Z" fill="var(--color-indigo-700)"/>
<path d="M219.976 166.27C220.055 167.745 220.076 169.161 219.792 170.224C219.643 170.778 219.417 171.214 219.092 171.51C218.772 171.801 218.334 171.977 217.719 171.977C217.091 171.977 216.666 171.83 216.369 171.583C216.07 171.334 215.868 170.959 215.736 170.442C215.605 169.924 215.55 169.286 215.529 168.536C215.511 167.854 215.521 167.098 215.522 166.27H219.976Z" fill="var(--sol-surface)" stroke="var(--color-yellow-300)" stroke-width="0.5"/>
<path fill-rule="evenodd" clip-rule="evenodd" d="M215.746 171.196C216.12 172.03 216.773 172.446 217.707 172.446C218.634 172.446 219.289 172.035 219.673 171.213L215.746 171.196Z" fill="var(--color-blue-200)"/>
<path d="M217.659 166.75C218.49 166.75 219.166 167.421 219.166 168.25C219.166 169.079 218.49 169.75 217.659 169.75C216.828 169.75 216.153 169.079 216.153 168.25C216.153 167.421 216.828 166.75 217.659 166.75ZM217.659 167.375C217.173 167.375 216.778 167.767 216.778 168.25C216.778 168.733 217.173 169.125 217.659 169.125C218.146 169.125 218.541 168.733 218.541 168.25C218.541 167.767 218.146 167.375 217.659 167.375Z" fill="var(--color-orange-500)"/>
<path fill-rule="evenodd" clip-rule="evenodd" d="M217.405 166.541C217.405 166.541 216.857 166.79 216.976 167.257C217.095 167.724 217.23 167.791 217.23 167.791C217.23 167.791 217.423 166.779 218.205 166.779L217.405 166.541Z" fill="var(--color-orange-500)"/>
<path fill-rule="evenodd" clip-rule="evenodd" d="M216.407 169.062C216.407 169.062 216.864 169.454 217.238 169.148C217.611 168.843 217.614 168.693 217.614 168.693C217.614 168.693 216.616 168.945 216.285 168.237L216.407 169.062Z" fill="var(--color-orange-500)"/>
<path fill-rule="evenodd" clip-rule="evenodd" d="M219.15 169.009C219.15 169.009 219.167 168.408 218.695 168.31C218.223 168.212 218.104 168.303 218.104 168.303C218.104 168.303 218.928 168.921 218.586 169.624L219.15 169.009Z" fill="var(--color-orange-500)"/>
<g clip-path="url(#clip13_1670_193137)">
<rect width="11" height="9" transform="translate(201.5 158.5)" fill="var(--color-indigo-700)"/>
<path d="M200.247 166.625L202.723 167.711L212.806 159.68L214.112 158.067L211.464 157.704L207.352 161.165L204.041 163.496L200.247 166.625Z" fill="var(--sol-surface)"/>
<path d="M200.586 167.386L201.847 168.016L213.643 157.917H211.872L200.586 167.386Z" fill="var(--color-red-500)"/>
<path d="M214.003 166.625L211.806 168.021L201.444 159.68L200.138 158.067L202.786 157.704L206.898 161.165L210.209 163.496L214.003 166.625Z" fill="var(--sol-surface)"/>
<path d="M213.918 167.171L212.657 167.801L207.634 163.477L206.145 162.994L200.012 158.073H201.783L207.912 162.877L209.54 163.457L213.918 167.171Z" fill="var(--color-red-500)"/>
<path fill-rule="evenodd" clip-rule="evenodd" d="M207.5 158.5H206.5V162.5H201.5V163.5H206.5V167.5H207.5V163.5H212.5V162.5H207.5V158.5Z" fill="var(--color-red-500)"/>
<path fill-rule="evenodd" clip-rule="evenodd" d="M205.562 158.5H208.438V161.562L212.5 161.5V164.375L208.438 164.438V167.5H205.562V164.438L201.5 164.375V161.5L205.562 161.562V158.5ZM206.5 162.5H201.5V163.5H206.5V167.5H207.5V163.5H212.5V162.5H207.5V158.5H206.5V162.5Z" fill="var(--sol-surface)"/>
</g>
</g>
</g>
<g clip-path="url(#clip14_1670_193137)">
<g clip-path="url(#clip15_1670_193137)">
<rect width="20" height="15" transform="translate(201.5 194.5)" fill="var(--sol-surface)"/>
<path fill-rule="evenodd" clip-rule="evenodd" d="M201.5 194.5H221.5V209.5H201.5V194.5Z" fill="var(--color-red-500)"/>
<path d="M212.629 196.976C213.203 196.976 213.457 196.623 213.76 196.8C214.062 196.977 214.427 196.976 214.302 196.976C214.176 196.976 213.726 197.233 214.074 197.233C214.423 197.233 214.819 196.72 214.819 196.976C214.819 196.976 214.918 197.266 214.679 197.288C214.672 197.289 213.6 197.394 213.81 197.441C213.81 197.441 214.002 197.52 214.134 197.525C214.134 197.525 214.19 197.726 213.841 197.781C213.841 197.781 212.852 197.964 212.806 198.282C212.76 198.6 212.448 199.317 212.806 199.317C213.163 199.317 213.395 199.072 213.396 198.797C213.396 198.521 213.445 198.056 213.76 198.033C213.78 198.026 214.535 197.772 214.63 197.79C214.725 197.808 214.554 197.945 214.819 197.945C215.085 197.945 215.855 197.306 215.977 197.053C216.095 196.806 216.27 197.04 216.279 197.053C216.279 197.053 216.397 197.762 215.787 198.022C215.188 198.277 214.832 198.282 214.819 198.282C214.819 198.282 214.439 198.562 214.679 198.562C214.919 198.562 215.432 198.661 215.787 198.472C216.141 198.283 216.279 198.177 216.279 198.282C216.279 198.388 216.282 198.982 215.873 198.982H214.819C214.679 198.982 214.347 199.182 214.898 199.317C215.45 199.452 215.628 199.396 215.873 199.317C216.119 199.239 216.279 199.194 216.279 199.317C216.278 199.441 215.942 199.902 215.653 199.902C215.364 199.902 215.043 199.645 214.898 199.645C214.754 199.645 214.604 199.902 214.679 199.902C214.754 199.902 215.003 200.273 215.328 200.273C215.653 200.273 215.849 200.153 216.064 200.153C216.279 200.153 216.279 200.109 216.279 200.273C216.279 200.439 215.85 200.622 215.653 200.622C215.457 200.622 214.632 200.149 214.63 200.273C214.63 200.399 215.148 201.076 215.468 201.076H216.064C216.275 201.076 216.198 201.339 216.194 201.349C216.194 201.349 215.986 201.535 215.727 201.535C215.467 201.535 215.213 201.273 215.056 201.175C214.898 201.076 214.679 201 214.679 201.175C214.679 201.35 215.174 202.048 215.575 202.049C215.976 202.049 216.279 201.888 216.279 202.049C216.279 202.21 216.093 202.569 215.873 202.49C215.653 202.411 214.96 202.162 214.819 201.897C214.679 201.633 214.423 201.746 214.526 201.897C214.63 202.049 215.174 202.832 215.575 202.905C215.976 202.978 216.365 202.959 216.279 203.133C216.194 203.306 215.839 203.548 215.653 203.472C215.467 203.395 214.832 202.812 214.679 202.568C214.526 202.325 214.134 201.858 214.134 202.049C214.134 202.24 213.974 202.762 214.302 202.834C214.629 202.905 214.802 203.22 214.63 203.221C214.457 203.221 213.841 203.073 213.841 202.682C213.841 202.291 213.562 202.072 213.562 202.181C213.561 202.291 213.533 202.622 213.687 202.834C213.84 203.046 213.623 203.219 213.562 203.133C213.5 203.046 213.238 202.647 213.237 202.568C213.237 202.491 213.145 202.308 213.036 202.307C212.927 202.307 212.905 202.498 213.109 202.905C213.313 203.313 213.816 203.638 213.975 203.638C214.131 203.639 213.98 203.992 213.975 204.004L215.056 204.284C215.062 204.281 215.468 204.071 215.468 204.004C215.468 203.936 215.683 203.771 215.873 203.771C216.064 203.771 216.079 204.003 215.977 204.004C215.874 204.004 215.683 204.182 215.575 204.182C215.467 204.183 215.137 204.414 215.137 204.414H215.873C215.87 204.411 215.759 204.284 216.064 204.284C216.373 204.284 216.5 204.414 216.5 204.414C216.494 204.417 216.152 204.618 216.064 204.618C216.009 204.618 215.916 204.644 215.771 204.646C215.754 204.635 215.744 204.637 215.736 204.646C215.661 204.645 215.572 204.64 215.468 204.618C215.137 204.547 215.727 204.766 215.727 204.766C215.727 204.766 215.682 204.477 215.873 204.766C216.064 205.056 216.093 205.145 215.873 205.145C215.653 205.145 215.468 205.079 215.468 204.923C215.468 204.768 215.063 204.621 215.056 204.618L214.526 204.923C214.532 204.932 214.62 205.093 214.463 205.145C214.302 205.199 214.075 205.121 214.074 205.067C214.074 205.014 214.127 204.766 214.265 204.766C214.402 204.766 214.819 204.539 214.819 204.539L213.81 204.238C213.801 204.247 213.525 204.539 213.434 204.539C213.34 204.537 213.072 203.805 212.907 203.638C212.742 203.472 212.638 203.127 212.446 203.264C212.255 203.402 212.179 203.826 212.446 204.182C212.713 204.539 213.175 204.82 213.305 204.821C213.434 204.821 213.687 204.834 213.687 204.923C213.686 205.012 213.574 205.376 213.305 205.222C213.035 205.067 212.748 204.882 212.707 204.923C212.667 204.965 212.835 205.422 213.07 205.531C213.305 205.64 213.502 205.483 213.502 205.676C213.502 205.868 213.336 206.082 213.036 205.879C212.736 205.675 212.555 205.326 212.501 205.461C212.447 205.596 212.469 206.123 212.707 206.123C212.945 206.123 213.109 206.089 213.109 206.181C213.109 206.274 213.054 206.671 212.806 206.513C212.557 206.354 212.375 206.158 212.331 206.018C212.287 205.879 212.022 206.018 212.105 206.214C212.189 206.41 212.392 206.805 212.446 206.805C212.5 206.805 211.816 208 211.816 208L211.812 206.513L211.809 208C211.809 208 211.125 206.805 211.179 206.805C211.233 206.805 211.436 206.41 211.52 206.214C211.603 206.018 211.338 205.879 211.294 206.018C211.25 206.158 211.068 206.354 210.819 206.513C210.571 206.671 210.516 206.274 210.516 206.181C210.516 206.089 210.68 206.123 210.918 206.123C211.156 206.123 211.178 205.596 211.124 205.461C211.07 205.326 210.889 205.675 210.589 205.879C210.289 206.082 210.123 205.868 210.123 205.676C210.123 205.483 210.32 205.64 210.555 205.531C210.79 205.422 210.958 204.965 210.918 204.923C210.877 204.882 210.59 205.067 210.32 205.222C210.051 205.376 209.939 205.012 209.938 204.923C209.938 204.834 210.191 204.821 210.32 204.821C210.45 204.82 210.912 204.539 211.179 204.182C211.446 203.826 211.37 203.402 211.179 203.264C210.987 203.127 210.883 203.472 210.718 203.638C210.553 203.805 210.285 204.537 210.191 204.539C210.1 204.539 209.824 204.247 209.815 204.238L208.806 204.539C208.806 204.539 209.223 204.766 209.36 204.766C209.498 204.766 209.551 205.014 209.551 205.067C209.55 205.121 209.323 205.199 209.162 205.145C209.005 205.093 209.093 204.932 209.099 204.923L208.569 204.618C208.562 204.621 208.157 204.768 208.157 204.923C208.157 205.079 207.972 205.145 207.752 205.145C207.532 205.145 207.561 205.056 207.752 204.766C207.943 204.477 207.898 204.766 207.898 204.766C207.898 204.766 208.488 204.547 208.157 204.618C208.053 204.64 207.964 204.646 207.888 204.646C207.88 204.637 207.87 204.635 207.853 204.646C207.709 204.643 207.616 204.618 207.561 204.618C207.473 204.618 207.131 204.417 207.125 204.414C207.125 204.414 207.252 204.284 207.561 204.284C207.866 204.284 207.755 204.411 207.752 204.414H208.488C208.488 204.414 208.158 204.183 208.05 204.182C207.942 204.182 207.751 204.004 207.648 204.004C207.546 204.003 207.561 203.771 207.752 203.771C207.942 203.771 208.157 203.936 208.157 204.004C208.157 204.071 208.563 204.281 208.569 204.284L209.65 204.004C209.645 203.992 209.494 203.639 209.65 203.638C209.809 203.638 210.312 203.313 210.516 202.905C210.72 202.498 210.698 202.307 210.589 202.307C210.48 202.308 210.388 202.491 210.388 202.568C210.387 202.647 210.125 203.046 210.063 203.133C210.002 203.219 209.785 203.046 209.938 202.834C210.092 202.622 210.064 202.291 210.063 202.181C210.063 202.072 209.784 202.291 209.784 202.682C209.784 203.073 209.168 203.221 208.995 203.221C208.823 203.22 208.996 202.905 209.323 202.834C209.651 202.762 209.491 202.24 209.491 202.049C209.491 201.858 209.099 202.325 208.946 202.568C208.793 202.812 208.158 203.395 207.972 203.472C207.786 203.548 207.431 203.306 207.346 203.133C207.26 202.959 207.649 202.978 208.05 202.905C208.451 202.832 208.995 202.049 209.099 201.897C209.202 201.746 208.946 201.633 208.806 201.897C208.665 202.162 207.972 202.411 207.752 202.49C207.532 202.569 207.346 202.21 207.346 202.049C207.346 201.888 207.649 202.049 208.05 202.049C208.451 202.048 208.946 201.35 208.946 201.175C208.946 201 208.727 201.076 208.569 201.175C208.412 201.273 208.158 201.535 207.898 201.535C207.639 201.535 207.431 201.349 207.431 201.349C207.427 201.339 207.35 201.076 207.561 201.076H208.157C208.477 201.076 208.995 200.399 208.995 200.273C208.993 200.149 208.168 200.622 207.972 200.622C207.775 200.622 207.346 200.439 207.346 200.273C207.346 200.109 207.346 200.153 207.561 200.153C207.776 200.153 207.972 200.273 208.297 200.273C208.622 200.273 208.871 199.902 208.946 199.902C209.021 199.902 208.871 199.645 208.727 199.645C208.582 199.645 208.261 199.902 207.972 199.902C207.683 199.902 207.347 199.441 207.346 199.317C207.346 199.194 207.506 199.239 207.752 199.317C207.997 199.396 208.175 199.452 208.727 199.317C209.278 199.182 208.946 198.982 208.806 198.982H207.752C207.343 198.982 207.346 198.388 207.346 198.282C207.346 198.177 207.484 198.283 207.838 198.472C208.193 198.661 208.706 198.562 208.946 198.562C209.186 198.562 208.806 198.282 208.806 198.282C208.793 198.282 208.437 198.277 207.838 198.022C207.228 197.762 207.346 197.053 207.346 197.053C207.355 197.04 207.53 196.806 207.648 197.053C207.77 197.306 208.54 197.945 208.806 197.945C209.071 197.945 208.9 197.808 208.995 197.79C209.09 197.772 209.845 198.026 209.865 198.033C210.18 198.056 210.229 198.521 210.229 198.797C210.23 199.072 210.462 199.317 210.819 199.317C211.177 199.317 210.865 198.6 210.819 198.282C210.773 197.964 209.784 197.781 209.784 197.781C209.435 197.726 209.491 197.525 209.491 197.525C209.623 197.52 209.815 197.441 209.815 197.441C210.025 197.394 208.953 197.289 208.946 197.288C208.707 197.266 208.806 196.976 208.806 196.976C208.806 196.72 209.202 197.233 209.551 197.233C209.899 197.233 209.449 196.976 209.323 196.976C209.198 196.976 209.563 196.977 209.865 196.8C210.168 196.623 210.422 196.976 210.996 196.976C211.569 196.977 211.114 197.6 211.436 198.022C211.663 198.321 211.77 198.379 211.812 198.388C211.855 198.379 211.962 198.321 212.189 198.022C212.511 197.6 212.056 196.977 212.629 196.976Z" fill="var(--sol-element-primary)"/>
</g>
</g>
<g clip-path="url(#clip16_1670_193137)">
<g clip-path="url(#clip17_1670_193137)">
<rect width="20" height="15" transform="translate(201.5 230.5)" fill="var(--sol-surface)"/>
<path fill-rule="evenodd" clip-rule="evenodd" d="M201.5 230.5V245.5H221.5V230.5H201.5Z" fill="var(--sol-element-primary)"/>
<mask id="mask0_1670_193137" style="mask-type:luminance" maskUnits="userSpaceOnUse" x="201" y="230" width="21" height="16">
<path fill-rule="evenodd" clip-rule="evenodd" d="M201.5 230.5V245.5H221.5V230.5H201.5Z" fill="var(--sol-static-white)"/>
</mask>
<g mask="url(#mask0_1670_193137)">
<path fill-rule="evenodd" clip-rule="evenodd" d="M201.5 230.5V238H221.5V230.5H201.5Z" fill="var(--color-red-500)"/>
<g filter="url(#filter1_d_1670_193137)">
<path d="M208.643 233.017C210.851 233.017 213.309 234.806 213.309 237.014C213.309 237.948 212.987 238.815 212.45 239.504C213.435 239.995 214.268 240.38 214.268 240.38C214.577 240.583 214.663 241.123 214.461 241.432C214.258 241.741 213.843 241.827 213.534 241.624C213.516 241.614 212.738 241.153 212.263 240.841C212.041 240.696 211.785 240.541 211.513 240.38C210.881 240.804 210.125 241.054 209.312 241.054C209.312 241.054 206.377 240.694 206.461 239.189C206.474 239.199 207.191 239.733 209.262 239.733C209.594 239.733 209.886 239.685 210.142 239.604C209.248 239.116 208.488 238.727 208.471 238.718C208.162 238.516 207.358 237.49 207.559 237.18C207.762 236.871 208.988 237.22 209.297 237.422C209.303 237.43 209.731 238.015 210.333 238.373C210.6 238.532 210.903 238.698 211.217 238.866C211.7 238.268 211.854 237.496 211.854 237.014C211.854 234.456 208.681 233.033 208.643 233.017ZM210.003 235.842H210.629L210.167 236.326L210.398 237.004L209.737 236.626L209.106 237.047L209.307 236.326L208.845 235.866L209.471 235.842L209.737 235.129L210.003 235.842Z" fill="var(--color-yellow-400)"/>
<path d="M208.643 233.017C210.851 233.017 213.309 234.806 213.309 237.014C213.309 237.948 212.987 238.815 212.45 239.504C213.435 239.995 214.268 240.38 214.268 240.38C214.577 240.583 214.663 241.123 214.461 241.432C214.258 241.741 213.843 241.827 213.534 241.624C213.516 241.614 212.738 241.153 212.263 240.841C212.041 240.696 211.785 240.541 211.513 240.38C210.881 240.804 210.125 241.054 209.312 241.054C209.312 241.054 206.377 240.694 206.461 239.189C206.474 239.199 207.191 239.733 209.262 239.733C209.594 239.733 209.886 239.685 210.142 239.604C209.248 239.116 208.488 238.727 208.471 238.718C208.162 238.516 207.358 237.49 207.559 237.18C207.762 236.871 208.988 237.22 209.297 237.422C209.303 237.43 209.731 238.015 210.333 238.373C210.6 238.532 210.903 238.698 211.217 238.866C211.7 238.268 211.854 237.496 211.854 237.014C211.854 234.456 208.681 233.033 208.643 233.017ZM210.003 235.842H210.629L210.167 236.326L210.398 237.004L209.737 236.626L209.106 237.047L209.307 236.326L208.845 235.866L209.471 235.842L209.737 235.129L210.003 235.842Z" fill="var(--color-yellow-300)"/>
</g>
</g>
</g>
</g>
<g clip-path="url(#clip18_1670_193137)">
<g clip-path="url(#clip19_1670_193137)">
<rect width="20" height="15" transform="translate(201.5 266.5)" fill="var(--sol-surface)"/>
<path fill-rule="evenodd" clip-rule="evenodd" d="M201.5 266.5V281.5H221.5V266.5H201.5Z" fill="var(--color-indigo-400)"/>
<mask id="mask1_1670_193137" style="mask-type:luminance" maskUnits="userSpaceOnUse" x="201" y="266" width="21" height="16">
<path fill-rule="evenodd" clip-rule="evenodd" d="M201.5 266.5V281.5H221.5V266.5H201.5Z" fill="var(--sol-static-white)"/>
</mask>
<g mask="url(#mask1_1670_193137)">
<g filter="url(#filter2_d_1670_193137)">
<path fill-rule="evenodd" clip-rule="evenodd" d="M206.948 271.434C206.948 271.434 208.238 272.141 208.418 272.337C208.597 272.533 208.885 273.252 209.333 272.845C209.781 272.439 210.23 272.755 210.23 272.107C210.23 271.46 210.899 269.958 211.87 270.334C212.842 270.71 213.64 270.475 213.864 270.625C214.089 270.776 214.627 271.524 215.045 271.524C215.464 271.524 215.673 271.96 215.703 272.593C215.732 273.226 215.568 273.286 215.957 273.361C216.345 273.437 216.495 273.723 216.301 274.099C216.106 274.476 216.121 274.31 216.151 274.702C216.181 275.093 215.763 277.402 214.477 277.629C213.192 277.854 211.973 277.734 212.302 277.297C212.631 276.86 213.086 276.358 212.414 276.252C211.741 276.147 211.317 276.057 210.645 276.238C209.972 276.419 209.27 276.705 208.851 276.163C208.433 275.62 208.523 275.229 208.179 274.973C207.835 274.717 207.416 274.762 207.76 274.265C208.104 273.768 208.388 273.954 208.104 273.562C207.82 273.17 206.748 273 206.748 272.608C206.748 272.217 206.067 271.358 206.948 271.434Z" fill="var(--sol-surface)"/>
<path fill-rule="evenodd" clip-rule="evenodd" d="M206.948 271.434C206.948 271.434 208.238 272.141 208.418 272.337C208.597 272.533 208.885 273.252 209.333 272.845C209.781 272.439 210.23 272.755 210.23 272.107C210.23 271.46 210.899 269.958 211.87 270.334C212.842 270.71 213.64 270.475 213.864 270.625C214.089 270.776 214.627 271.524 215.045 271.524C215.464 271.524 215.673 271.96 215.703 272.593C215.732 273.226 215.568 273.286 215.957 273.361C216.345 273.437 216.495 273.723 216.301 274.099C216.106 274.476 216.121 274.31 216.151 274.702C216.181 275.093 215.763 277.402 214.477 277.629C213.192 277.854 211.973 277.734 212.302 277.297C212.631 276.86 213.086 276.358 212.414 276.252C211.741 276.147 211.317 276.057 210.645 276.238C209.972 276.419 209.27 276.705 208.851 276.163C208.433 275.62 208.523 275.229 208.179 274.973C207.835 274.717 207.416 274.762 207.76 274.265C208.104 273.768 208.388 273.954 208.104 273.562C207.82 273.17 206.748 273 206.748 272.608C206.748 272.217 206.067 271.358 206.948 271.434Z" fill="var(--sol-surface)"/>
</g>
</g>
</g>
</g>
</g>
<g clip-path="url(#clip20_1670_193137)">
<rect x="244.5" y="4.08789" width="4" height="156" fill="var(--sol-border-solid-variant)"/>
</g>
</g>
</g>
</g>
<defs>
<filter id="filter0_dd_1670_193137" x="181.5" y="-4" width="79" height="336" filterUnits="userSpaceOnUse" color-interpolation-filters="sRGB">
<feFlood flood-opacity="0" result="BackgroundImageFix"/>
<feColorMatrix in="SourceAlpha" type="matrix" values="0 0 0 0 0 0 0 0 0 0 0 0 0 0 0 0 0 0 127 0" result="hardAlpha"/>
<feOffset dy="4"/>
<feGaussianBlur stdDeviation="4"/>
<feComposite in2="hardAlpha" operator="out"/>
<feColorMatrix type="matrix" values="0 0 0 0 0 0 0 0 0 0 0 0 0 0 0 0 0 0 0.08 0"/>
<feBlend mode="normal" in2="BackgroundImageFix" result="effect1_dropShadow_1670_193137"/>
<feColorMatrix in="SourceAlpha" type="matrix" values="0 0 0 0 0 0 0 0 0 0 0 0 0 0 0 0 0 0 127 0" result="hardAlpha"/>
<feOffset/>
<feGaussianBlur stdDeviation="0.5"/>
<feComposite in2="hardAlpha" operator="out"/>
<feColorMatrix type="matrix" values="0 0 0 0 0 0 0 0 0 0 0 0 0 0 0 0 0 0 0.08 0"/>
<feBlend mode="normal" in2="effect1_dropShadow_1670_193137" result="effect2_dropShadow_1670_193137"/>
<feBlend mode="normal" in="SourceGraphic" in2="effect2_dropShadow_1670_193137" result="shape"/>
</filter>
<filter id="filter1_d_1670_193137" x="206.459" y="233.017" width="8.11133" height="8.71692" filterUnits="userSpaceOnUse" color-interpolation-filters="sRGB">
<feFlood flood-opacity="0" result="BackgroundImageFix"/>
<feColorMatrix in="SourceAlpha" type="matrix" values="0 0 0 0 0 0 0 0 0 0 0 0 0 0 0 0 0 0 127 0" result="hardAlpha"/>
<feOffset/>
<feColorMatrix type="matrix" values="0 0 0 0 0 0 0 0 0 0 0 0 0 0 0 0 0 0 0.2 0"/>
<feBlend mode="normal" in2="BackgroundImageFix" result="effect1_dropShadow_1670_193137"/>
<feBlend mode="normal" in="SourceGraphic" in2="effect1_dropShadow_1670_193137" result="shape"/>
</filter>
<filter id="filter2_d_1670_193137" x="205.497" y="269.274" width="11.8887" height="9.46585" filterUnits="userSpaceOnUse" color-interpolation-filters="sRGB">
<feFlood flood-opacity="0" result="BackgroundImageFix"/>
<feColorMatrix in="SourceAlpha" type="matrix" values="0 0 0 0 0 0 0 0 0 0 0 0 0 0 0 0 0 0 127 0" result="hardAlpha"/>
<feOffset/>
<feGaussianBlur stdDeviation="0.5"/>
<feColorMatrix type="matrix" values="0 0 0 0 0.0941176 0 0 0 0 0.32549 0 0 0 0 0.639216 0 0 0 0.43 0"/>
<feBlend mode="normal" in2="BackgroundImageFix" result="effect1_dropShadow_1670_193137"/>
<feBlend mode="normal" in="SourceGraphic" in2="effect1_dropShadow_1670_193137" result="shape"/>
</filter>
<clipPath id="clip0_1670_193137">
<path d="M0 8.00001C0 3.58173 3.58172 0 8 0H434C438.418 0 442 3.58172 442 8V276C442 280.418 438.418 284 434 284H8C3.58172 284 0 280.418 0 276V8.00001Z" fill="var(--sol-surface)"/>
</clipPath>
<clipPath id="clip1_1670_193137">
<path d="M189.5 4C189.5 1.79086 191.291 0 193.5 0H248.5C250.709 0 252.5 1.79086 252.5 4V316C252.5 318.209 250.709 320 248.5 320H193.5C191.291 320 189.5 318.209 189.5 316V4Z" fill="var(--sol-surface)"/>
</clipPath>
<clipPath id="clip2_1670_193137">
<rect width="55" height="384" fill="var(--sol-surface)" transform="translate(193.5 4)"/>
</clipPath>
<clipPath id="clip3_1670_193137">
<path d="M193.5 6C193.5 4.89543 194.395 4 195.5 4H246.5C247.605 4 248.5 4.89543 248.5 6V38C248.5 39.1046 247.605 40 246.5 40H195.5C194.395 40 193.5 39.1046 193.5 38V6Z" fill="var(--sol-surface)"/>
</clipPath>
<clipPath id="clip4_1670_193137">
<rect width="20" height="15" fill="var(--sol-surface)" transform="translate(201.5 14.5)"/>
</clipPath>
<clipPath id="clip5_1670_193137">
<path d="M193.5 42C193.5 40.8954 194.395 40 195.5 40H246.5C247.605 40 248.5 40.8954 248.5 42V74C248.5 75.1046 247.605 76 246.5 76H195.5C194.395 76 193.5 75.1046 193.5 74V42Z" fill="var(--sol-surface)"/>
</clipPath>
<clipPath id="clip6_1670_193137">
<rect width="20" height="15" fill="var(--sol-surface)" transform="translate(201.5 50.5)"/>
</clipPath>
<clipPath id="clip7_1670_193137">
<path d="M193.5 78C193.5 76.8954 194.395 76 195.5 76H246.5C247.605 76 248.5 76.8954 248.5 78V110C248.5 111.105 247.605 112 246.5 112H195.5C194.395 112 193.5 111.105 193.5 110V78Z" fill="var(--sol-surface)"/>
</clipPath>
<clipPath id="clip8_1670_193137">
<rect width="20" height="15" fill="var(--sol-surface)" transform="translate(201.5 86.5)"/>
</clipPath>
<clipPath id="clip9_1670_193137">
<path d="M193.5 114C193.5 112.895 194.395 112 195.5 112H246.5C247.605 112 248.5 112.895 248.5 114V146C248.5 147.105 247.605 148 246.5 148H195.5C194.395 148 193.5 147.105 193.5 146V114Z" fill="var(--sol-surface)"/>
</clipPath>
<clipPath id="clip10_1670_193137">
<rect width="20" height="15" fill="var(--sol-surface)" transform="translate(201.5 122.5)"/>
</clipPath>
<clipPath id="clip11_1670_193137">
<path d="M193.5 150C193.5 148.895 194.395 148 195.5 148H246.5C247.605 148 248.5 148.895 248.5 150V182C248.5 183.105 247.605 184 246.5 184H195.5C194.395 184 193.5 183.105 193.5 182V150Z" fill="var(--sol-surface)"/>
</clipPath>
<clipPath id="clip12_1670_193137">
<rect width="20" height="15" fill="var(--sol-surface)" transform="translate(201.5 158.5)"/>
</clipPath>
<clipPath id="clip13_1670_193137">
<rect width="11" height="9" fill="var(--sol-surface)" transform="translate(201.5 158.5)"/>
</clipPath>
<clipPath id="clip14_1670_193137">
<path d="M193.5 186C193.5 184.895 194.395 184 195.5 184H246.5C247.605 184 248.5 184.895 248.5 186V218C248.5 219.105 247.605 220 246.5 220H195.5C194.395 220 193.5 219.105 193.5 218V186Z" fill="var(--sol-surface)"/>
</clipPath>
<clipPath id="clip15_1670_193137">
<rect width="20" height="15" fill="var(--sol-surface)" transform="translate(201.5 194.5)"/>
</clipPath>
<clipPath id="clip16_1670_193137">
<path d="M193.5 222C193.5 220.895 194.395 220 195.5 220H246.5C247.605 220 248.5 220.895 248.5 222V254C248.5 255.105 247.605 256 246.5 256H195.5C194.395 256 193.5 255.105 193.5 254V222Z" fill="var(--sol-surface)"/>
</clipPath>
<clipPath id="clip17_1670_193137">
<rect width="20" height="15" fill="var(--sol-surface)" transform="translate(201.5 230.5)"/>
</clipPath>
<clipPath id="clip18_1670_193137">
<path d="M193.5 258C193.5 256.895 194.395 256 195.5 256H246.5C247.605 256 248.5 256.895 248.5 258V290C248.5 291.105 247.605 292 246.5 292H195.5C194.395 292 193.5 291.105 193.5 290V258Z" fill="var(--sol-surface)"/>
</clipPath>
<clipPath id="clip19_1670_193137">
<rect width="20" height="15" fill="var(--sol-surface)" transform="translate(201.5 266.5)"/>
</clipPath>
<clipPath id="clip20_1670_193137">
<path d="M244.5 6.08789C244.5 4.98332 245.395 4.08789 246.5 4.08789V4.08789C247.605 4.08789 248.5 4.98332 248.5 6.08789V158.088C248.5 159.192 247.605 160.088 246.5 160.088V160.088C245.395 160.088 244.5 159.192 244.5 158.088V6.08789Z" fill="var(--sol-surface)"/>
</clipPath>
</defs>
</svg>
