<svg width="442" height="240" viewBox="0 0 442 240" fill="none" xmlns="http://www.w3.org/2000/svg">
<style>
:root {
  --sol-element-primary: #161616;
  --sol-element-tertiary: #636363;
  --sol-element-quaternary: #858585;
  --sol-surface: #ffffff;
  --sol-border-solid-variant: #e0e0e0;
  --sol-static-white: #ffffff;
  --sol-static-black: #000000;
  --color-indigo-700: #142e96;
  --color-indigo-400: #6280e4;
  --color-orange-700: #833606;
  --color-orange-500: #e06418;
  --color-yellow-600: #a88900;
  --color-yellow-400: #ecc824;
  --color-yellow-300: #f5dc6a;
  --color-green-500: #35a142;
  --color-green-400: #5cc066;
  --color-blue-200: #c2e6f7;
  --color-red-700: #8a2e38;
  --color-red-600: #b84451;
  --color-red-500: #e76067;
}
@media (prefers-color-scheme: dark) {
  :root {
    --sol-element-primary: #ffffff;
    --sol-element-tertiary: rgba(255, 255, 255, 0.60);
    --sol-element-quaternary: rgba(255, 255, 255, 0.50);
    --sol-surface: #161616;
    --sol-border-solid-variant: #3d3d3d;
  }
}
</style>

<path d="M137.5 46C137.5 38.268 143.768 32 151.5 32V32C159.232 32 165.5 38.268 165.5 46V46C165.5 53.732 159.232 60 151.5 60V60C143.768 60 137.5 53.732 137.5 46V46Z" fill="var(--sol-element-primary)" fill-opacity="0.12"/>
<mask id="mask0_1670_193070" style="mask-type:alpha" maskUnits="userSpaceOnUse" x="141" y="36" width="21" height="20">
<path d="M146.215 44.7025C146.385 44.7025 146.554 44.736 146.711 44.8011C146.868 44.8662 147.011 44.9617 147.132 45.0821C147.252 45.2025 147.348 45.3455 147.413 45.5029C147.478 45.6602 147.512 45.8289 147.512 45.9992C147.512 46.1695 147.479 46.3382 147.413 46.4956C147.348 46.653 147.253 46.796 147.132 46.9165C147.012 47.037 146.869 47.1326 146.712 47.1978C146.554 47.263 146.386 47.2966 146.215 47.2967C145.871 47.2968 145.541 47.1603 145.298 46.9171C145.055 46.6739 144.918 46.344 144.918 46C144.918 45.656 145.054 45.3261 145.298 45.0827C145.541 44.8394 145.871 44.7026 146.215 44.7025Z" fill="var(--sol-static-black)"/>
<path d="M151.5 44.7025C150.783 44.7025 150.203 45.2831 150.203 45.9992C150.203 46.7153 150.783 47.2959 151.5 47.2959C152.216 47.2959 152.796 46.7153 152.796 45.9992C152.796 45.2831 152.216 44.7025 151.5 44.7025Z" fill="var(--sol-static-black)"/>
<path d="M156.785 44.7025C156.069 44.7025 155.489 45.2831 155.489 45.9992C155.489 46.7153 156.069 47.2959 156.785 47.2959C157.501 47.2959 158.082 46.7153 158.082 45.9992C158.082 45.2831 157.501 44.7025 156.785 44.7025Z" fill="var(--sol-static-black)"/>
</mask>
<g mask="url(#mask0_1670_193070)">
<rect x="141.5" y="36" width="20" height="20" fill="var(--sol-element-primary)"/>
</g>
<g filter="url(#filter0_dd_1670_193070)">
<g clip-path="url(#clip0_1670_193070)">
<path d="M141.5 72C141.5 69.7909 143.291 68 145.5 68H297.5C299.709 68 301.5 69.7909 301.5 72V200C301.5 202.209 299.709 204 297.5 204H145.5C143.291 204 141.5 202.209 141.5 200V72Z" fill="var(--sol-surface)"/>
<path d="M154.594 93V83.1016H160.596V84.1953H155.824V87.5039H160.281V88.584H155.824V91.9062H160.664V93H154.594ZM165.189 93.1504C163.344 93.1504 162.031 91.6602 162.031 89.3086C162.031 86.957 163.344 85.4805 165.203 85.4805C166.639 85.4805 167.104 86.3555 167.35 86.752H167.432V83.1016H168.621V93H167.473V91.8652H167.35C167.09 92.2754 166.611 93.1504 165.189 93.1504ZM165.354 92.0977C166.707 92.0977 167.473 90.9492 167.473 89.2812C167.473 87.6406 166.734 86.5332 165.354 86.5332C163.932 86.5332 163.221 87.7363 163.221 89.2812C163.221 90.8672 163.945 92.0977 165.354 92.0977ZM170.658 93V85.5762H171.834V93H170.658ZM171.246 84.3457C170.795 84.3457 170.426 84.0039 170.426 83.5664C170.426 83.1289 170.795 82.7871 171.246 82.7871C171.697 82.7871 172.08 83.1289 172.08 83.5664C172.08 84.0039 171.697 84.3457 171.246 84.3457ZM176.947 85.5762V86.5605H175.389V90.8672C175.389 91.8242 175.854 91.9746 176.359 91.9746C176.578 91.9746 176.879 91.9609 177.057 91.9473V93.041C176.879 93.0684 176.578 93.0957 176.236 93.0957C175.252 93.0957 174.199 92.4805 174.199 91.168V86.5605H173.078V85.5762H174.199V83.7988H175.389V85.5762H176.947ZM184.781 93.1504C182.936 93.1504 181.623 91.6602 181.623 89.3086C181.623 86.957 182.936 85.4805 184.795 85.4805C186.23 85.4805 186.695 86.3555 186.941 86.752H187.023V83.1016H188.213V93H187.064V91.8652H186.941C186.682 92.2754 186.203 93.1504 184.781 93.1504ZM184.945 92.0977C186.299 92.0977 187.064 90.9492 187.064 89.2812C187.064 87.6406 186.326 86.5332 184.945 86.5332C183.523 86.5332 182.812 87.7363 182.812 89.2812C182.812 90.8672 183.537 92.0977 184.945 92.0977ZM193.367 93.1504C191.221 93.1504 189.895 91.6328 189.895 89.3496C189.895 87.0664 191.234 85.4805 193.258 85.4805C194.816 85.4805 196.457 86.4375 196.457 89.1855V89.6777H191.07C191.125 91.25 192.041 92.1113 193.367 92.1113C194.256 92.1113 194.816 91.7285 195.09 91.2637H196.348C195.992 92.3848 194.898 93.1504 193.367 93.1504ZM191.084 88.6797H195.268C195.268 87.4355 194.475 86.5195 193.258 86.5195C191.973 86.5195 191.152 87.5312 191.084 88.6797ZM203.867 85.5762L201.119 93H199.902L197.168 85.5762H198.453L200.477 91.4688H200.559L202.582 85.5762H203.867ZM205.166 93V85.5762H206.342V93H205.166ZM205.754 84.3457C205.303 84.3457 204.934 84.0039 204.934 83.5664C204.934 83.1289 205.303 82.7871 205.754 82.7871C206.205 82.7871 206.588 83.1289 206.588 83.5664C206.588 84.0039 206.205 84.3457 205.754 84.3457ZM211.25 93.1504C209.145 93.1504 207.859 91.5508 207.859 89.3223C207.859 87.0664 209.199 85.4805 211.223 85.4805C212.809 85.4805 213.984 86.4102 214.176 87.8184H213C212.836 87.1348 212.234 86.5195 211.25 86.5195C209.924 86.5195 209.035 87.6133 209.035 89.2812C209.035 91.0039 209.896 92.0977 211.25 92.0977C212.125 92.0977 212.795 91.6328 213 90.8125H214.176C213.984 92.1387 212.904 93.1504 211.25 93.1504ZM218.742 93.1504C216.596 93.1504 215.27 91.6328 215.27 89.3496C215.27 87.0664 216.609 85.4805 218.633 85.4805C220.191 85.4805 221.832 86.4375 221.832 89.1855V89.6777H216.445C216.5 91.25 217.416 92.1113 218.742 92.1113C219.631 92.1113 220.191 91.7285 220.465 91.2637H221.723C221.367 92.3848 220.273 93.1504 218.742 93.1504ZM216.459 88.6797H220.643C220.643 87.4355 219.85 86.5195 218.633 86.5195C217.348 86.5195 216.527 87.5312 216.459 88.6797Z" fill="var(--sol-element-primary)"/>
<path d="M157.67 125H154.594V115.102H157.793C160.678 115.102 162.387 116.961 162.387 120.037C162.387 123.127 160.678 125 157.67 125ZM155.824 123.906H157.588C160.021 123.906 161.184 122.443 161.184 120.037C161.184 117.645 160.021 116.195 157.711 116.195H155.824V123.906ZM168.73 121.951V117.576H169.893V125H168.73V123.742H168.648C168.293 124.494 167.568 125.096 166.447 125.096C165.039 125.096 164.041 124.18 164.041 122.293V117.576H165.217V122.211C165.217 123.277 165.887 123.961 166.83 123.961C167.664 123.961 168.73 123.332 168.73 121.951ZM171.779 127.789V117.576H172.914V118.752H173.051C173.297 118.355 173.762 117.48 175.197 117.48C177.057 117.48 178.355 118.957 178.355 121.309C178.355 123.66 177.057 125.15 175.211 125.15C173.789 125.15 173.297 124.275 173.051 123.865H172.955V127.789H171.779ZM172.928 121.281C172.928 122.949 173.68 124.098 175.047 124.098C176.455 124.098 177.18 122.867 177.18 121.281C177.18 119.736 176.469 118.533 175.047 118.533C173.652 118.533 172.928 119.641 172.928 121.281ZM181.062 115.102V125H179.887V115.102H181.062ZM182.936 125V117.576H184.111V125H182.936ZM183.523 116.346C183.072 116.346 182.703 116.004 182.703 115.566C182.703 115.129 183.072 114.787 183.523 114.787C183.975 114.787 184.357 115.129 184.357 115.566C184.357 116.004 183.975 116.346 183.523 116.346ZM189.02 125.15C186.914 125.15 185.629 123.551 185.629 121.322C185.629 119.066 186.969 117.48 188.992 117.48C190.578 117.48 191.754 118.41 191.945 119.818H190.77C190.605 119.135 190.004 118.52 189.02 118.52C187.693 118.52 186.805 119.613 186.805 121.281C186.805 123.004 187.666 124.098 189.02 124.098C189.895 124.098 190.564 123.633 190.77 122.812H191.945C191.754 124.139 190.674 125.15 189.02 125.15ZM193.039 122.895C193.039 121.186 194.543 120.803 195.828 120.707C196.3 120.673 197.503 120.611 197.838 120.598V119.996C197.838 119.053 197.277 118.506 196.156 118.506C195.213 118.506 194.652 118.943 194.488 119.504H193.258C193.408 118.314 194.57 117.48 196.211 117.48C197.182 117.48 199 117.768 199 120.105V125H197.838V123.988H197.783C197.537 124.494 196.854 125.178 195.568 125.178C194.16 125.178 193.039 124.344 193.039 122.895ZM194.215 122.949C194.215 123.729 194.871 124.125 195.773 124.125C197.1 124.125 197.838 123.236 197.838 122.307V121.555L195.965 121.691C194.898 121.76 194.215 122.143 194.215 122.949ZM204.127 117.576V118.561H202.568V122.867C202.568 123.824 203.033 123.975 203.539 123.975C203.758 123.975 204.059 123.961 204.236 123.947V125.041C204.059 125.068 203.758 125.096 203.416 125.096C202.432 125.096 201.379 124.48 201.379 123.168V118.561H200.258V117.576H201.379V115.799H202.568V117.576H204.127ZM208.693 125.15C206.547 125.15 205.221 123.633 205.221 121.35C205.221 119.066 206.561 117.48 208.584 117.48C210.143 117.48 211.783 118.438 211.783 121.186V121.678H206.396C206.451 123.25 207.367 124.111 208.693 124.111C209.582 124.111 210.143 123.729 210.416 123.264H211.674C211.318 124.385 210.225 125.15 208.693 125.15ZM206.41 120.68H210.594C210.594 119.436 209.801 118.52 208.584 118.52C207.299 118.52 206.479 119.531 206.41 120.68ZM219.631 125.15C217.785 125.15 216.473 123.66 216.473 121.309C216.473 118.957 217.785 117.48 219.645 117.48C221.08 117.48 221.545 118.355 221.791 118.752H221.873V115.102H223.062V125H221.914V123.865H221.791C221.531 124.275 221.053 125.15 219.631 125.15ZM219.795 124.098C221.148 124.098 221.914 122.949 221.914 121.281C221.914 119.641 221.176 118.533 219.795 118.533C218.373 118.533 217.662 119.736 217.662 121.281C217.662 122.867 218.387 124.098 219.795 124.098ZM228.217 125.15C226.07 125.15 224.744 123.633 224.744 121.35C224.744 119.066 226.084 117.48 228.107 117.48C229.666 117.48 231.307 118.438 231.307 121.186V121.678H225.92C225.975 123.25 226.891 124.111 228.217 124.111C229.105 124.111 229.666 123.729 229.939 123.264H231.197C230.842 124.385 229.748 125.15 228.217 125.15ZM225.934 120.68H230.117C230.117 119.436 229.324 118.52 228.107 118.52C226.822 118.52 226.002 119.531 225.934 120.68ZM238.717 117.576L235.969 125H234.752L232.018 117.576H233.303L235.326 123.469H235.408L237.432 117.576H238.717ZM240.016 125V117.576H241.191V125H240.016ZM240.604 116.346C240.152 116.346 239.783 116.004 239.783 115.566C239.783 115.129 240.152 114.787 240.604 114.787C241.055 114.787 241.438 115.129 241.438 115.566C241.438 116.004 241.055 116.346 240.604 116.346ZM246.1 125.15C243.994 125.15 242.709 123.551 242.709 121.322C242.709 119.066 244.049 117.48 246.072 117.48C247.658 117.48 248.834 118.41 249.025 119.818H247.85C247.686 119.135 247.084 118.52 246.1 118.52C244.773 118.52 243.885 119.613 243.885 121.281C243.885 123.004 244.746 124.098 246.1 124.098C246.975 124.098 247.645 123.633 247.85 122.812H249.025C248.834 124.139 247.754 125.15 246.1 125.15ZM253.592 125.15C251.445 125.15 250.119 123.633 250.119 121.35C250.119 119.066 251.459 117.48 253.482 117.48C255.041 117.48 256.682 118.438 256.682 121.186V121.678H251.295C251.35 123.25 252.266 124.111 253.592 124.111C254.48 124.111 255.041 123.729 255.314 123.264H256.572C256.217 124.385 255.123 125.15 253.592 125.15ZM251.309 120.68H255.492C255.492 119.436 254.699 118.52 253.482 118.52C252.197 118.52 251.377 119.531 251.309 120.68Z" fill="var(--sol-element-primary)"/>
<path d="M154.594 157V147.102H160.596V148.195H155.824V151.504H160.281V152.584H155.824V155.906H160.664V157H154.594ZM163.275 149.576L165.025 152.598L166.789 149.576H168.143L165.75 153.281L168.143 157H166.803L165.025 154.129L163.275 157H161.922L164.26 153.281L161.922 149.576H163.275ZM169.564 159.789V149.576H170.699V150.752H170.836C171.082 150.355 171.547 149.48 172.982 149.48C174.842 149.48 176.141 150.957 176.141 153.309C176.141 155.66 174.842 157.15 172.996 157.15C171.574 157.15 171.082 156.275 170.836 155.865H170.74V159.789H169.564ZM170.713 153.281C170.713 154.949 171.465 156.098 172.832 156.098C174.24 156.098 174.965 154.867 174.965 153.281C174.965 151.736 174.254 150.533 172.832 150.533C171.438 150.533 170.713 151.641 170.713 153.281ZM180.707 157.15C178.684 157.15 177.316 155.633 177.316 153.322C177.316 151.012 178.684 149.48 180.707 149.48C182.717 149.48 184.07 151.012 184.07 153.322C184.07 155.633 182.717 157.15 180.707 157.15ZM180.707 156.111C182.197 156.111 182.895 154.799 182.895 153.322C182.895 151.846 182.197 150.52 180.707 150.52C179.189 150.52 178.492 151.846 178.492 153.322C178.492 154.799 179.189 156.111 180.707 156.111ZM185.615 157V149.576H186.75V150.711H186.832C187.105 149.959 187.871 149.453 188.746 149.453C188.924 149.453 189.225 149.467 189.361 149.48V150.67C189.279 150.643 188.951 150.588 188.65 150.588C187.584 150.588 186.791 151.326 186.791 152.324V157H185.615ZM194.215 149.576V150.561H192.656V154.867C192.656 155.824 193.121 155.975 193.627 155.975C193.846 155.975 194.146 155.961 194.324 155.947V157.041C194.146 157.068 193.846 157.096 193.504 157.096C192.52 157.096 191.467 156.48 191.467 155.168V150.561H190.346V149.576H191.467V147.799H192.656V149.576H194.215ZM202.049 157.15C200.203 157.15 198.891 155.66 198.891 153.309C198.891 150.957 200.203 149.48 202.062 149.48C203.498 149.48 203.963 150.355 204.209 150.752H204.291V147.102H205.48V157H204.332V155.865H204.209C203.949 156.275 203.471 157.15 202.049 157.15ZM202.213 156.098C203.566 156.098 204.332 154.949 204.332 153.281C204.332 151.641 203.594 150.533 202.213 150.533C200.791 150.533 200.08 151.736 200.08 153.281C200.08 154.867 200.805 156.098 202.213 156.098ZM207.162 154.895C207.162 153.186 208.666 152.803 209.951 152.707C210.423 152.673 211.626 152.611 211.961 152.598V151.996C211.961 151.053 211.4 150.506 210.279 150.506C209.336 150.506 208.775 150.943 208.611 151.504H207.381C207.531 150.314 208.693 149.48 210.334 149.48C211.305 149.48 213.123 149.768 213.123 152.105V157H211.961V155.988H211.906C211.66 156.494 210.977 157.178 209.691 157.178C208.283 157.178 207.162 156.344 207.162 154.895ZM208.338 154.949C208.338 155.729 208.994 156.125 209.896 156.125C211.223 156.125 211.961 155.236 211.961 154.307V153.555L210.088 153.691C209.021 153.76 208.338 154.143 208.338 154.949ZM218.25 149.576V150.561H216.691V154.867C216.691 155.824 217.156 155.975 217.662 155.975C217.881 155.975 218.182 155.961 218.359 155.947V157.041C218.182 157.068 217.881 157.096 217.539 157.096C216.555 157.096 215.502 156.48 215.502 155.168V150.561H214.381V149.576H215.502V147.799H216.691V149.576H218.25ZM219.412 154.895C219.412 153.186 220.916 152.803 222.201 152.707C222.673 152.673 223.876 152.611 224.211 152.598V151.996C224.211 151.053 223.65 150.506 222.529 150.506C221.586 150.506 221.025 150.943 220.861 151.504H219.631C219.781 150.314 220.943 149.48 222.584 149.48C223.555 149.48 225.373 149.768 225.373 152.105V157H224.211V155.988H224.156C223.91 156.494 223.227 157.178 221.941 157.178C220.533 157.178 219.412 156.344 219.412 154.895ZM220.588 154.949C220.588 155.729 221.244 156.125 222.146 156.125C223.473 156.125 224.211 155.236 224.211 154.307V153.555L222.338 153.691C221.271 153.76 220.588 154.143 220.588 154.949Z" fill="var(--sol-element-primary)"/>
<path d="M157.67 189H154.594V179.102H157.793C160.678 179.102 162.387 180.961 162.387 184.037C162.387 187.127 160.678 189 157.67 189ZM155.824 187.906H157.588C160.021 187.906 161.184 186.443 161.184 184.037C161.184 181.645 160.021 180.195 157.711 180.195H155.824V187.906ZM167.158 189.15C165.012 189.15 163.686 187.633 163.686 185.35C163.686 183.066 165.025 181.48 167.049 181.48C168.607 181.48 170.248 182.438 170.248 185.186V185.678H164.861C164.916 187.25 165.832 188.111 167.158 188.111C168.047 188.111 168.607 187.729 168.881 187.264H170.139C169.783 188.385 168.689 189.15 167.158 189.15ZM164.875 184.68H169.059C169.059 183.436 168.266 182.52 167.049 182.52C165.764 182.52 164.943 183.531 164.875 184.68ZM172.955 179.102V189H171.779V179.102H172.955ZM177.945 189.15C175.799 189.15 174.473 187.633 174.473 185.35C174.473 183.066 175.812 181.48 177.836 181.48C179.395 181.48 181.035 182.438 181.035 185.186V185.678H175.648C175.703 187.25 176.619 188.111 177.945 188.111C178.834 188.111 179.395 187.729 179.668 187.264H180.926C180.57 188.385 179.477 189.15 177.945 189.15ZM175.662 184.68H179.846C179.846 183.436 179.053 182.52 177.836 182.52C176.551 182.52 175.73 183.531 175.662 184.68ZM185.807 181.576V182.561H184.248V186.867C184.248 187.824 184.713 187.975 185.219 187.975C185.438 187.975 185.738 187.961 185.916 187.947V189.041C185.738 189.068 185.438 189.096 185.096 189.096C184.111 189.096 183.059 188.48 183.059 187.168V182.561H181.938V181.576H183.059V179.799H184.248V181.576H185.807ZM190.373 189.15C188.227 189.15 186.9 187.633 186.9 185.35C186.9 183.066 188.24 181.48 190.264 181.48C191.822 181.48 193.463 182.438 193.463 185.186V185.678H188.076C188.131 187.25 189.047 188.111 190.373 188.111C191.262 188.111 191.822 187.729 192.096 187.264H193.354C192.998 188.385 191.904 189.15 190.373 189.15ZM188.09 184.68H192.273C192.273 183.436 191.48 182.52 190.264 182.52C188.979 182.52 188.158 183.531 188.09 184.68ZM201.311 189.15C199.465 189.15 198.152 187.66 198.152 185.309C198.152 182.957 199.465 181.48 201.324 181.48C202.76 181.48 203.225 182.355 203.471 182.752H203.553V179.102H204.742V189H203.594V187.865H203.471C203.211 188.275 202.732 189.15 201.311 189.15ZM201.475 188.098C202.828 188.098 203.594 186.949 203.594 185.281C203.594 183.641 202.855 182.533 201.475 182.533C200.053 182.533 199.342 183.736 199.342 185.281C199.342 186.867 200.066 188.098 201.475 188.098ZM209.896 189.15C207.75 189.15 206.424 187.633 206.424 185.35C206.424 183.066 207.764 181.48 209.787 181.48C211.346 181.48 212.986 182.438 212.986 185.186V185.678H207.6C207.654 187.25 208.57 188.111 209.896 188.111C210.785 188.111 211.346 187.729 211.619 187.264H212.877C212.521 188.385 211.428 189.15 209.896 189.15ZM207.613 184.68H211.797C211.797 183.436 211.004 182.52 209.787 182.52C208.502 182.52 207.682 183.531 207.613 184.68ZM220.396 181.576L217.648 189H216.432L213.697 181.576H214.982L217.006 187.469H217.088L219.111 181.576H220.396ZM221.695 189V181.576H222.871V189H221.695ZM222.283 180.346C221.832 180.346 221.463 180.004 221.463 179.566C221.463 179.129 221.832 178.787 222.283 178.787C222.734 178.787 223.117 179.129 223.117 179.566C223.117 180.004 222.734 180.346 222.283 180.346ZM227.779 189.15C225.674 189.15 224.389 187.551 224.389 185.322C224.389 183.066 225.729 181.48 227.752 181.48C229.338 181.48 230.514 182.41 230.705 183.818H229.529C229.365 183.135 228.764 182.52 227.779 182.52C226.453 182.52 225.564 183.613 225.564 185.281C225.564 187.004 226.426 188.098 227.779 188.098C228.654 188.098 229.324 187.633 229.529 186.812H230.705C230.514 188.139 229.434 189.15 227.779 189.15ZM235.271 189.15C233.125 189.15 231.799 187.633 231.799 185.35C231.799 183.066 233.139 181.48 235.162 181.48C236.721 181.48 238.361 182.438 238.361 185.186V185.678H232.975C233.029 187.25 233.945 188.111 235.271 188.111C236.16 188.111 236.721 187.729 236.994 187.264H238.252C237.896 188.385 236.803 189.15 235.271 189.15ZM232.988 184.68H237.172C237.172 183.436 236.379 182.52 235.162 182.52C233.877 182.52 233.057 183.531 232.988 184.68Z" fill="var(--sol-element-primary)"/>
<g clip-path="url(#clip1_1670_193070)">
<rect x="293.5" y="72" width="4" height="64" fill="var(--sol-border-solid-variant)"/>
</g>
</g>
</g>
<defs>
<filter id="filter0_dd_1670_193070" x="133.5" y="64" width="176" height="152" filterUnits="userSpaceOnUse" color-interpolation-filters="sRGB">
<feFlood flood-opacity="0" result="BackgroundImageFix"/>
<feColorMatrix in="SourceAlpha" type="matrix" values="0 0 0 0 0 0 0 0 0 0 0 0 0 0 0 0 0 0 127 0" result="hardAlpha"/>
<feOffset dy="4"/>
<feGaussianBlur stdDeviation="4"/>
<feComposite in2="hardAlpha" operator="out"/>
<feColorMatrix type="matrix" values="0 0 0 0 0 0 0 0 0 0 0 0 0 0 0 0 0 0 0.08 0"/>
<feBlend mode="normal" in2="BackgroundImageFix" result="effect1_dropShadow_1670_193070"/>
<feColorMatrix in="SourceAlpha" type="matrix" values="0 0 0 0 0 0 0 0 0 0 0 0 0 0 0 0 0 0 127 0" result="hardAlpha"/>
<feOffset/>
<feGaussianBlur stdDeviation="0.5"/>
<feComposite in2="hardAlpha" operator="out"/>
<feColorMatrix type="matrix" values="0 0 0 0 0 0 0 0 0 0 0 0 0 0 0 0 0 0 0.08 0"/>
<feBlend mode="normal" in2="effect1_dropShadow_1670_193070" result="effect2_dropShadow_1670_193070"/>
<feBlend mode="normal" in="SourceGraphic" in2="effect2_dropShadow_1670_193070" result="shape"/>
</filter>
<clipPath id="clip0_1670_193070">
<path d="M141.5 72C141.5 69.7909 143.291 68 145.5 68H297.5C299.709 68 301.5 69.7909 301.5 72V200C301.5 202.209 299.709 204 297.5 204H145.5C143.291 204 141.5 202.209 141.5 200V72Z" fill="var(--sol-surface)"/>
</clipPath>
<clipPath id="clip1_1670_193070">
<path d="M293.5 74C293.5 72.8954 294.395 72 295.5 72V72C296.605 72 297.5 72.8954 297.5 74V134C297.5 135.105 296.605 136 295.5 136V136C294.395 136 293.5 135.105 293.5 134V74Z" fill="var(--sol-surface)"/>
</clipPath>
</defs>
</svg>
