<svg width="900" height="448" viewBox="0 0 900 448" fill="none" xmlns="http://www.w3.org/2000/svg">
<style>
:root {
  --sol-primary: #282363;
  --sol-fill-active: #4d469a;
  --sol-surface: #ffffff;
  --sol-element-primary: #161616;
  --sol-element-quaternary: #858585;
  --sol-error-dim: #b84451;
  --sol-static-white: #ffffff;
  --sol-static-black: #000000;
  --color-yellow-500: #d4ae00;
}
@media (prefers-color-scheme: dark) {
  :root {
    --sol-primary: #9791d4;
    --sol-fill-active: #7b74c4;
    --sol-surface: #161616;
    --sol-element-primary: #ffffff;
    --sol-element-quaternary: rgba(255, 255, 255, 0.5);
    --sol-error-dim: #e76067;
  }
}
</style>
<path d="M48.916 69V59.1016H55.3555V60.5918H50.6934V63.2988H55.0137V64.7891H50.6934V67.4961H55.3828V69H48.916ZM58.7324 64.6523V69H56.9824V61.5762H58.6504V62.834H58.7461C59.0879 62 59.8398 61.4805 60.9473 61.4805C62.4922 61.4805 63.5039 62.4922 63.4902 64.2695V69H61.7539V64.543C61.7539 63.5449 61.2207 62.957 60.3047 62.957C59.375 62.957 58.7324 63.5723 58.7324 64.6523ZM64.8164 66.9082C64.8164 65.2402 66.1973 64.748 67.5781 64.666C68.0908 64.6318 69.1572 64.5703 69.4785 64.5566V63.9688C69.4785 63.2305 69 62.8066 68.1387 62.8066C67.3594 62.8066 66.8809 63.1621 66.7441 63.6953H65.0625C65.1855 62.4375 66.3203 61.4805 68.1797 61.4805C69.5879 61.4805 71.2148 62.0547 71.2148 64.0371V69H69.5469V67.9746H69.4922C69.1641 68.6035 68.4668 69.1504 67.3047 69.1504C65.8828 69.1504 64.8164 68.3711 64.8164 66.9082ZM66.498 66.8945C66.498 67.5371 67.0176 67.8652 67.7559 67.8652C68.8086 67.8652 69.4922 67.168 69.4922 66.334V65.7188L67.8516 65.8281C67.0176 65.8965 66.498 66.2383 66.498 66.8945ZM72.9375 69V59.1016H74.6875V62.793H74.7559C75.0293 62.2598 75.5625 61.4805 76.875 61.4805C78.5977 61.4805 79.9512 62.8203 79.9512 65.2949C79.9512 67.7422 78.625 69.1367 76.8887 69.1367C75.6035 69.1367 75.0293 68.3711 74.7559 67.8242H74.6465V69H72.9375ZM74.6465 65.2812C74.6465 66.7305 75.2754 67.7012 76.3965 67.7012C77.5586 67.7012 78.1738 66.6895 78.1738 65.2812C78.1738 63.9004 77.5723 62.9023 76.3965 62.9023C75.2754 62.9023 74.6465 63.8457 74.6465 65.2812ZM83.0684 59.1016V69H81.3184V59.1016H83.0684ZM88.0312 69.1504C85.7891 69.1504 84.4219 67.6602 84.4219 65.3359C84.4219 63.0391 85.8164 61.4805 87.9355 61.4805C89.7539 61.4805 91.3262 62.6152 91.3262 65.2266V65.7734H86.1445C86.165 67.0381 86.9102 67.7832 88.0449 67.7832C88.8105 67.7832 89.3301 67.4551 89.5488 67.0176H91.2578C90.9434 68.3027 89.7539 69.1504 88.0312 69.1504ZM86.1582 64.584H89.6582C89.6445 63.5723 88.9746 62.834 87.9629 62.834C86.9102 62.834 86.2129 63.6338 86.1582 64.584ZM95.4414 69.1367C93.6914 69.1367 92.3789 67.7422 92.3789 65.2949C92.3789 62.8203 93.7324 61.4805 95.4551 61.4805C96.7676 61.4805 97.3145 62.2598 97.5742 62.793H97.6426V59.1016H99.3789V69H97.6699V67.8242H97.5742C97.3008 68.3711 96.7266 69.1367 95.4414 69.1367ZM95.9199 67.7012C97.041 67.7012 97.6836 66.7305 97.6836 65.2812C97.6836 63.8457 97.0547 62.9023 95.9199 62.9023C94.7578 62.9023 94.1562 63.9004 94.1562 65.2812C94.1562 66.6895 94.7715 67.7012 95.9199 67.7012Z" fill="var(--sol-element-quaternary)"/>
<g clip-path="url(#clip0_1666_175941)">
<path d="M228 52C228 49.7909 229.791 48 232 48H256C258.209 48 260 49.7909 260 52V76C260 78.2091 258.209 80 256 80H232C229.791 80 228 78.2091 228 76V52Z" fill="var(--sol-primary)"/>
<path d="M243.381 64.5H238.381V63.5H243.381V58.5H244.381V63.5H249.381V64.5H244.381V69.5H243.381V64.5Z" fill="var(--sol-surface)"/>
</g>
<g clip-path="url(#clip1_1666_175941)">
<path d="M320 52C320 49.7909 321.791 48 324 48H348C350.209 48 352 49.7909 352 52V76C352 78.2091 350.209 80 348 80H324C321.791 80 320 78.2091 320 76V52Z" fill="var(--sol-surface)"/>
<path d="M335.381 64.5H330.381V63.5H335.381V58.5H336.381V63.5H341.381V64.5H336.381V69.5H335.381V64.5Z" fill="var(--sol-primary)"/>
</g>
<path d="M324 48.5H348C349.933 48.5 351.5 50.067 351.5 52V76C351.5 77.933 349.933 79.5 348 79.5H324C322.067 79.5 320.5 77.933 320.5 76V52C320.5 50.067 322.067 48.5 324 48.5Z" stroke="var(--sol-element-primary)" stroke-opacity="0.16"/>
<g clip-path="url(#clip2_1666_175941)">
<path d="M412 52C412 49.7909 413.791 48 416 48H440C442.209 48 444 49.7909 444 52V76C444 78.2091 442.209 80 440 80H416C413.791 80 412 78.2091 412 76V52Z" fill="var(--sol-fill-active)"/>
<path d="M427.381 64.5H422.381V63.5H427.381V58.5H428.381V63.5H433.381V64.5H428.381V69.5H427.381V64.5Z" fill="var(--sol-surface)"/>
</g>
<path d="M48.916 149V139.102H50.6934V143.299H55.3008V139.102H57.0918V149H55.3008V144.789H50.6934V149H48.916ZM62.082 149.15C59.9219 149.15 58.5273 147.619 58.5273 145.322C58.5273 143.012 59.9219 141.48 62.082 141.48C64.2559 141.48 65.6367 143.012 65.6367 145.322C65.6367 147.619 64.2559 149.15 62.082 149.15ZM62.0957 147.756C63.2852 147.756 63.873 146.676 63.873 145.309C63.873 143.955 63.2852 142.861 62.0957 142.861C60.8789 142.861 60.291 143.955 60.291 145.309C60.291 146.676 60.8789 147.756 62.0957 147.756ZM73.375 141.576L70.7227 149H68.8086L66.1562 141.576H68.0156L69.7246 147.1H69.8066L71.5293 141.576H73.375ZM77.5176 149.15C75.2754 149.15 73.9082 147.66 73.9082 145.336C73.9082 143.039 75.3027 141.48 77.4219 141.48C79.2402 141.48 80.8125 142.615 80.8125 145.227V145.773H75.6309C75.6514 147.038 76.3965 147.783 77.5312 147.783C78.2969 147.783 78.8164 147.455 79.0352 147.018H80.7441C80.4297 148.303 79.2402 149.15 77.5176 149.15ZM75.6445 144.584H79.1445C79.1309 143.572 78.4609 142.834 77.4492 142.834C76.3965 142.834 75.6992 143.634 75.6445 144.584ZM82.166 149V141.576H83.8613V142.807H83.9434C84.2031 141.959 84.9277 141.467 85.7754 141.467C85.9668 141.467 86.2402 141.48 86.4043 141.508V143.121C86.2539 143.066 85.8848 143.012 85.5977 143.012C84.627 143.012 83.916 143.682 83.916 144.625V149H82.166Z" fill="var(--sol-element-quaternary)"/>
<path d="M228 132C228 129.791 229.791 128 232 128H256C258.209 128 260 129.791 260 132V156C260 158.209 258.209 160 256 160H232C229.791 160 228 158.209 228 156V132Z" fill="var(--sol-primary)"/>
<path d="M238.167 148V146.667H239.167V148C239.167 148.461 239.54 148.834 240 148.834H241.333V149.834H240C238.988 149.834 238.167 149.013 238.167 148ZM245.333 148.834V149.834H242.667V148.834H245.333ZM248.833 148V146.667H249.833V148C249.833 149.013 249.013 149.834 248 149.834H246.667V148.834H248C248.46 148.834 248.833 148.461 248.833 148ZM239.167 142.667V145.334H238.167V142.667H239.167ZM249.833 142.667V145.334H248.833V142.667H249.833ZM238.167 140C238.167 138.988 238.988 138.167 240 138.167H241.333V139.167H240C239.54 139.167 239.167 139.54 239.167 140V141.334H238.167V140ZM248.833 140C248.833 139.54 248.46 139.167 248 139.167H246.667V138.167H248C249.013 138.167 249.833 138.988 249.833 140V141.334H248.833V140ZM245.333 138.167V139.167H242.667V138.167H245.333Z" fill="var(--sol-surface)"/>
<g clip-path="url(#clip3_1666_175941)">
<path d="M228 138C228 135.791 229.791 134 232 134H256C258.209 134 260 135.791 260 138V150C260 152.209 258.209 154 256 154H232C229.791 154 228 152.209 228 150V138Z" fill="var(--sol-primary)"/>
<path d="M243.381 144.5H238.381V143.5H243.381V138.5H244.381V143.5H249.381V144.5H244.381V149.5H243.381V144.5Z" fill="var(--sol-surface)"/>
<path d="M228 138C228 135.791 229.791 134 232 134H256C258.209 134 260 135.791 260 138V150C260 152.209 258.209 154 256 154H232C229.791 154 228 152.209 228 150V138Z" fill="var(--sol-surface)" fill-opacity="0.08"/>
</g>
<g clip-path="url(#clip4_1666_175941)">
<path d="M320 132C320 129.791 321.791 128 324 128H348C350.209 128 352 129.791 352 132V156C352 158.209 350.209 160 348 160H324C321.791 160 320 158.209 320 156V132Z" fill="var(--sol-surface)"/>
<path d="M335.381 144.5H330.381V143.5H335.381V138.5H336.381V143.5H341.381V144.5H336.381V149.5H335.381V144.5Z" fill="var(--sol-primary)"/>
</g>
<path d="M324 128.5H348C349.933 128.5 351.5 130.067 351.5 132V156C351.5 157.933 349.933 159.5 348 159.5H324C322.067 159.5 320.5 157.933 320.5 156V132C320.5 130.067 322.067 128.5 324 128.5Z" stroke="var(--sol-element-primary)" stroke-opacity="0.16"/>
<g clip-path="url(#clip5_1666_175941)">
<path d="M412 132C412 129.791 413.791 128 416 128H440C442.209 128 444 129.791 444 132V156C444 158.209 442.209 160 440 160H416C413.791 160 412 158.209 412 156V132Z" fill="var(--sol-fill-active)"/>
<path d="M427.381 144.5H422.381V143.5H427.381V138.5H428.381V143.5H433.381V144.5H428.381V149.5H427.381V144.5Z" fill="var(--sol-surface)"/>
<path d="M412 132C412 129.791 413.791 128 416 128H440C442.209 128 444 129.791 444 132V156C444 158.209 442.209 160 440 160H416C413.791 160 412 158.209 412 156V132Z" fill="var(--sol-surface)" fill-opacity="0.08"/>
</g>
<path d="M48.916 229V219.102H55.2598V220.592H50.6934V223.299H54.8223V224.789H50.6934V229H48.916ZM59.3887 229.15C57.2285 229.15 55.834 227.619 55.834 225.322C55.834 223.012 57.2285 221.48 59.3887 221.48C61.5625 221.48 62.9434 223.012 62.9434 225.322C62.9434 227.619 61.5625 229.15 59.3887 229.15ZM59.4023 227.756C60.5918 227.756 61.1797 226.676 61.1797 225.309C61.1797 223.955 60.5918 222.861 59.4023 222.861C58.1855 222.861 57.5977 223.955 57.5977 225.309C57.5977 226.676 58.1855 227.756 59.4023 227.756ZM67.5371 229.15C65.3223 229.15 63.9824 227.564 63.9824 225.322C63.9824 223.053 65.3633 221.48 67.5371 221.48C69.3418 221.48 70.5996 222.533 70.7227 224.133H69.0547C68.918 223.422 68.3984 222.875 67.5508 222.875C66.4707 222.875 65.7461 223.791 65.7461 225.281C65.7461 226.812 66.457 227.729 67.5508 227.729C68.3301 227.729 68.9043 227.277 69.0547 226.471H70.7227C70.5859 228.043 69.3965 229.15 67.5371 229.15ZM76.7793 225.883V221.576H78.5156V229H76.834V227.688H76.752C76.4102 228.508 75.6309 229.096 74.5234 229.096C73.0605 229.096 72.0488 228.084 72.0352 226.307V221.576H73.7852V226.033C73.7852 226.977 74.3457 227.578 75.1934 227.578C75.959 227.578 76.7793 227.018 76.7793 225.883ZM84.3945 223.695C84.2852 223.135 83.8203 222.779 83.082 222.779C82.3301 222.779 81.7832 223.148 81.7969 223.654C81.7832 224.037 82.0977 224.324 82.8496 224.502L84.1074 224.762C85.5156 225.076 86.1855 225.719 86.1992 226.785C86.1855 228.18 84.9688 229.15 83.0273 229.15C81.1406 229.15 80.0195 228.303 79.8418 226.881H81.6191C81.7285 227.51 82.2207 227.824 83.0273 227.824C83.8613 227.824 84.4219 227.482 84.4219 226.936C84.4219 226.512 84.0801 226.238 83.3418 226.074L82.1523 225.814C80.7715 225.541 80.0605 224.816 80.0605 223.75C80.0605 222.383 81.2363 221.48 83.0547 221.48C84.832 221.48 85.9258 222.342 86.0488 223.695H84.3945ZM90.8203 229.15C88.5781 229.15 87.2109 227.66 87.2109 225.336C87.2109 223.039 88.6055 221.48 90.7246 221.48C92.543 221.48 94.1152 222.615 94.1152 225.227V225.773H88.9336C88.9541 227.038 89.6992 227.783 90.834 227.783C91.5996 227.783 92.1191 227.455 92.3379 227.018H94.0469C93.7324 228.303 92.543 229.15 90.8203 229.15ZM88.9473 224.584H92.4473C92.4336 223.572 91.7637 222.834 90.752 222.834C89.6992 222.834 89.002 223.634 88.9473 224.584ZM98.2305 229.137C96.4805 229.137 95.168 227.742 95.168 225.295C95.168 222.82 96.5215 221.48 98.2441 221.48C99.5566 221.48 100.104 222.26 100.363 222.793H100.432V219.102H102.168V229H100.459V227.824H100.363C100.09 228.371 99.5156 229.137 98.2305 229.137ZM98.709 227.701C99.8301 227.701 100.473 226.73 100.473 225.281C100.473 223.846 99.8438 222.902 98.709 222.902C97.5469 222.902 96.9453 223.9 96.9453 225.281C96.9453 226.689 97.5605 227.701 98.709 227.701Z" fill="var(--sol-element-quaternary)"/>
<g filter="url(#filter0_dd_1666_175941)">
<g clip-path="url(#clip6_1666_175941)">
<path d="M228 212C228 209.791 229.791 208 232 208H256C258.209 208 260 209.791 260 212V236C260 238.209 258.209 240 256 240H232C229.791 240 228 238.209 228 236V212Z" fill="var(--sol-primary)"/>
<path d="M243.381 224.5H238.381V223.5H243.381V218.5H244.381V223.5H249.381V224.5H244.381V229.5H243.381V224.5Z" fill="var(--sol-surface)"/>
</g>
</g>
<g clip-path="url(#clip7_1666_175941)">
<path d="M320 212C320 209.791 321.791 208 324 208H348C350.209 208 352 209.791 352 212V236C352 238.209 350.209 240 348 240H324C321.791 240 320 238.209 320 236V212Z" fill="var(--sol-surface)"/>
<path d="M335.381 224.5H330.381V223.5H335.381V218.5H336.381V223.5H341.381V224.5H336.381V229.5H335.381V224.5Z" fill="var(--sol-primary)"/>
</g>
<path d="M324 208.5H348C349.933 208.5 351.5 210.067 351.5 212V236C351.5 237.933 349.933 239.5 348 239.5H324C322.067 239.5 320.5 237.933 320.5 236V212C320.5 210.067 322.067 208.5 324 208.5Z" stroke="var(--sol-element-primary)" stroke-opacity="0.16"/>
<g filter="url(#filter1_dd_1666_175941)">
<g clip-path="url(#clip8_1666_175941)">
<path d="M412 212C412 209.791 413.791 208 416 208H440C442.209 208 444 209.791 444 212V236C444 238.209 442.209 240 440 240H416C413.791 240 412 238.209 412 236V212Z" fill="var(--sol-fill-active)"/>
<path d="M427.381 224.5H422.381V223.5H427.381V218.5H428.381V223.5H433.381V224.5H428.381V229.5H427.381V224.5Z" fill="var(--sol-surface)"/>
</g>
</g>
<path d="M48.916 309V299.102H52.6348C54.9043 299.102 56.1211 300.482 56.1211 302.383C56.1211 304.283 54.8906 305.65 52.6074 305.65H50.6934V309H48.916ZM50.6934 304.188H52.3613C53.7012 304.188 54.3027 303.436 54.3027 302.383C54.3027 301.316 53.7012 300.592 52.3613 300.592H50.6934V304.188ZM57.4746 309V301.576H59.1699V302.807H59.252C59.5117 301.959 60.2363 301.467 61.084 301.467C61.2754 301.467 61.5488 301.48 61.7129 301.508V303.121C61.5625 303.066 61.1934 303.012 60.9062 303.012C59.9355 303.012 59.2246 303.682 59.2246 304.625V309H57.4746ZM65.8145 309.15C63.5723 309.15 62.2051 307.66 62.2051 305.336C62.2051 303.039 63.5996 301.48 65.7188 301.48C67.5371 301.48 69.1094 302.615 69.1094 305.227V305.773H63.9277C63.9482 307.038 64.6934 307.783 65.8281 307.783C66.5938 307.783 67.1133 307.455 67.332 307.018H69.041C68.7266 308.303 67.5371 309.15 65.8145 309.15ZM63.9414 304.584H67.4414C67.4277 303.572 66.7578 302.834 65.7461 302.834C64.6934 302.834 63.9961 303.634 63.9414 304.584ZM74.6738 303.695C74.5645 303.135 74.0996 302.779 73.3613 302.779C72.6094 302.779 72.0625 303.148 72.0762 303.654C72.0625 304.037 72.377 304.324 73.1289 304.502L74.3867 304.762C75.7949 305.076 76.4648 305.719 76.4785 306.785C76.4648 308.18 75.248 309.15 73.3066 309.15C71.4199 309.15 70.2988 308.303 70.1211 306.881H71.8984C72.0078 307.51 72.5 307.824 73.3066 307.824C74.1406 307.824 74.7012 307.482 74.7012 306.936C74.7012 306.512 74.3594 306.238 73.6211 306.074L72.4316 305.814C71.0508 305.541 70.3398 304.816 70.3398 303.75C70.3398 302.383 71.5156 301.48 73.334 301.48C75.1113 301.48 76.2051 302.342 76.3281 303.695H74.6738ZM82.0156 303.695C81.9062 303.135 81.4414 302.779 80.7031 302.779C79.9512 302.779 79.4043 303.148 79.418 303.654C79.4043 304.037 79.7188 304.324 80.4707 304.502L81.7285 304.762C83.1367 305.076 83.8066 305.719 83.8203 306.785C83.8066 308.18 82.5898 309.15 80.6484 309.15C78.7617 309.15 77.6406 308.303 77.4629 306.881H79.2402C79.3496 307.51 79.8418 307.824 80.6484 307.824C81.4824 307.824 82.043 307.482 82.043 306.936C82.043 306.512 81.7012 306.238 80.9629 306.074L79.7734 305.814C78.3926 305.541 77.6816 304.816 77.6816 303.75C77.6816 302.383 78.8574 301.48 80.6758 301.48C82.4531 301.48 83.5469 302.342 83.6699 303.695H82.0156ZM88.4414 309.15C86.1992 309.15 84.832 307.66 84.832 305.336C84.832 303.039 86.2266 301.48 88.3457 301.48C90.1641 301.48 91.7363 302.615 91.7363 305.227V305.773H86.5547C86.5752 307.038 87.3203 307.783 88.4551 307.783C89.2207 307.783 89.7402 307.455 89.959 307.018H91.668C91.3535 308.303 90.1641 309.15 88.4414 309.15ZM86.5684 304.584H90.0684C90.0547 303.572 89.3848 302.834 88.373 302.834C87.3203 302.834 86.623 303.634 86.5684 304.584ZM95.8516 309.137C94.1016 309.137 92.7891 307.742 92.7891 305.295C92.7891 302.82 94.1426 301.48 95.8652 301.48C97.1777 301.48 97.7246 302.26 97.9844 302.793H98.0527V299.102H99.7891V309H98.0801V307.824H97.9844C97.7109 308.371 97.1367 309.137 95.8516 309.137ZM96.3301 307.701C97.4512 307.701 98.0938 306.73 98.0938 305.281C98.0938 303.846 97.4648 302.902 96.3301 302.902C95.168 302.902 94.5664 303.9 94.5664 305.281C94.5664 306.689 95.1816 307.701 96.3301 307.701Z" fill="var(--sol-element-quaternary)"/>
<path d="M228 292C228 289.791 229.791 288 232 288H256C258.209 288 260 289.791 260 292V316C260 318.209 258.209 320 256 320H232C229.791 320 228 318.209 228 316V292Z" fill="var(--sol-primary)"/>
<path d="M238.167 308V306.667H239.167V308C239.167 308.461 239.54 308.834 240 308.834H241.333V309.834H240C238.988 309.834 238.167 309.013 238.167 308ZM245.333 308.834V309.834H242.667V308.834H245.333ZM248.833 308V306.667H249.833V308C249.833 309.013 249.013 309.834 248 309.834H246.667V308.834H248C248.46 308.834 248.833 308.461 248.833 308ZM239.167 302.667V305.334H238.167V302.667H239.167ZM249.833 302.667V305.334H248.833V302.667H249.833ZM238.167 300C238.167 298.988 238.988 298.167 240 298.167H241.333V299.167H240C239.54 299.167 239.167 299.54 239.167 300V301.334H238.167V300ZM248.833 300C248.833 299.54 248.46 299.167 248 299.167H246.667V298.167H248C249.013 298.167 249.833 298.988 249.833 300V301.334H248.833V300ZM245.333 298.167V299.167H242.667V298.167H245.333Z" fill="var(--sol-surface)"/>
<g clip-path="url(#clip9_1666_175941)">
<path d="M228 298C228 295.791 229.791 294 232 294H256C258.209 294 260 295.791 260 298V310C260 312.209 258.209 314 256 314H232C229.791 314 228 312.209 228 310V298Z" fill="var(--sol-primary)"/>
<path d="M243.381 304.5H238.381V303.5H243.381V298.5H244.381V303.5H249.381V304.5H244.381V309.5H243.381V304.5Z" fill="var(--sol-surface)"/>
<path d="M228 298C228 295.791 229.791 294 232 294H256C258.209 294 260 295.791 260 298V310C260 312.209 258.209 314 256 314H232C229.791 314 228 312.209 228 310V298Z" fill="var(--sol-surface)" fill-opacity="0.12"/>
</g>
<g clip-path="url(#clip10_1666_175941)">
<path d="M320 292C320 289.791 321.791 288 324 288H348C350.209 288 352 289.791 352 292V316C352 318.209 350.209 320 348 320H324C321.791 320 320 318.209 320 316V292Z" fill="var(--sol-surface)"/>
<path d="M335.381 304.5H330.381V303.5H335.381V298.5H336.381V303.5H341.381V304.5H336.381V309.5H335.381V304.5Z" fill="var(--sol-primary)"/>
</g>
<path d="M324 288.5H348C349.933 288.5 351.5 290.067 351.5 292V316C351.5 317.933 349.933 319.5 348 319.5H324C322.067 319.5 320.5 317.933 320.5 316V292C320.5 290.067 322.067 288.5 324 288.5Z" stroke="var(--sol-element-primary)" stroke-opacity="0.16"/>
<g clip-path="url(#clip11_1666_175941)">
<path d="M412 292C412 289.791 413.791 288 416 288H440C442.209 288 444 289.791 444 292V316C444 318.209 442.209 320 440 320H416C413.791 320 412 318.209 412 316V292Z" fill="var(--sol-fill-active)"/>
<path d="M427.381 304.5H422.381V303.5H427.381V298.5H428.381V303.5H433.381V304.5H428.381V309.5H427.381V304.5Z" fill="var(--sol-surface)"/>
<path d="M412 292C412 289.791 413.791 288 416 288H440C442.209 288 444 289.791 444 292V316C444 318.209 442.209 320 440 320H416C413.791 320 412 318.209 412 316V292Z" fill="var(--sol-surface)" fill-opacity="0.12"/>
</g>
<path d="M52.2793 389H48.916V379.102H52.334C55.2871 379.102 57.0781 380.961 57.0781 384.037C57.0781 387.127 55.2871 389 52.2793 389ZM50.6934 387.455H52.1836C54.248 387.455 55.3008 386.32 55.3008 384.037C55.3008 381.768 54.248 380.646 52.2383 380.646H50.6934V387.455ZM58.5684 389V381.576H60.3184V389H58.5684ZM59.457 380.523C58.9102 380.523 58.4453 380.1 58.4453 379.566C58.4453 379.047 58.9102 378.623 59.457 378.623C60.0176 378.623 60.4688 379.047 60.4688 379.566C60.4688 380.1 60.0176 380.523 59.457 380.523ZM66.1973 383.695C66.0879 383.135 65.623 382.779 64.8848 382.779C64.1328 382.779 63.5859 383.148 63.5996 383.654C63.5859 384.037 63.9004 384.324 64.6523 384.502L65.9102 384.762C67.3184 385.076 67.9883 385.719 68.002 386.785C67.9883 388.18 66.7715 389.15 64.8301 389.15C62.9434 389.15 61.8223 388.303 61.6445 386.881H63.4219C63.5312 387.51 64.0234 387.824 64.8301 387.824C65.6641 387.824 66.2246 387.482 66.2246 386.936C66.2246 386.512 65.8828 386.238 65.1445 386.074L63.9551 385.814C62.5742 385.541 61.8633 384.816 61.8633 383.75C61.8633 382.383 63.0391 381.48 64.8574 381.48C66.6348 381.48 67.7285 382.342 67.8516 383.695H66.1973ZM68.9863 386.908C68.9863 385.24 70.3672 384.748 71.748 384.666C72.2607 384.632 73.3271 384.57 73.6484 384.557V383.969C73.6484 383.23 73.1699 382.807 72.3086 382.807C71.5293 382.807 71.0508 383.162 70.9141 383.695H69.2324C69.3555 382.438 70.4902 381.48 72.3496 381.48C73.7578 381.48 75.3848 382.055 75.3848 384.037V389H73.7168V387.975H73.6621C73.334 388.604 72.6367 389.15 71.4746 389.15C70.0527 389.15 68.9863 388.371 68.9863 386.908ZM70.668 386.895C70.668 387.537 71.1875 387.865 71.9258 387.865C72.9785 387.865 73.6621 387.168 73.6621 386.334V385.719L72.0215 385.828C71.1875 385.896 70.668 386.238 70.668 386.895ZM77.1074 389V379.102H78.8574V382.793H78.9258C79.1992 382.26 79.7324 381.48 81.0449 381.48C82.7676 381.48 84.1211 382.82 84.1211 385.295C84.1211 387.742 82.7949 389.137 81.0586 389.137C79.7734 389.137 79.1992 388.371 78.9258 387.824H78.8164V389H77.1074ZM78.8164 385.281C78.8164 386.73 79.4453 387.701 80.5664 387.701C81.7285 387.701 82.3438 386.689 82.3438 385.281C82.3438 383.9 81.7422 382.902 80.5664 382.902C79.4453 382.902 78.8164 383.846 78.8164 385.281ZM87.2383 379.102V389H85.4883V379.102H87.2383ZM92.2012 389.15C89.959 389.15 88.5918 387.66 88.5918 385.336C88.5918 383.039 89.9863 381.48 92.1055 381.48C93.9238 381.48 95.4961 382.615 95.4961 385.227V385.773H90.3145C90.335 387.038 91.0801 387.783 92.2148 387.783C92.9805 387.783 93.5 387.455 93.7188 387.018H95.4277C95.1133 388.303 93.9238 389.15 92.2012 389.15ZM90.3281 384.584H93.8281C93.8145 383.572 93.1445 382.834 92.1328 382.834C91.0801 382.834 90.3828 383.634 90.3281 384.584ZM99.6113 389.137C97.8613 389.137 96.5488 387.742 96.5488 385.295C96.5488 382.82 97.9023 381.48 99.625 381.48C100.938 381.48 101.484 382.26 101.744 382.793H101.812V379.102H103.549V389H101.84V387.824H101.744C101.471 388.371 100.896 389.137 99.6113 389.137ZM100.09 387.701C101.211 387.701 101.854 386.73 101.854 385.281C101.854 383.846 101.225 382.902 100.09 382.902C98.9277 382.902 98.3262 383.9 98.3262 385.281C98.3262 386.689 98.9414 387.701 100.09 387.701Z" fill="var(--sol-element-quaternary)"/>
<g clip-path="url(#clip12_1666_175941)">
<path d="M228 372C228 369.791 229.791 368 232 368H256C258.209 368 260 369.791 260 372V396C260 398.209 258.209 400 256 400H232C229.791 400 228 398.209 228 396V372Z" fill="var(--sol-element-primary)" fill-opacity="0.08"/>
<path d="M243.381 384.5H238.381V383.5H243.381V378.5H244.381V383.5H249.381V384.5H244.381V389.5H243.381V384.5Z" fill="var(--sol-surface)"/>
</g>
<g clip-path="url(#clip13_1666_175941)">
<path d="M320 372C320 369.791 321.791 368 324 368H348C350.209 368 352 369.791 352 372V396C352 398.209 350.209 400 348 400H324C321.791 400 320 398.209 320 396V372Z" fill="var(--sol-surface)"/>
<path d="M335.381 384.5H330.381V383.5H335.381V378.5H336.381V383.5H341.381V384.5H336.381V389.5H335.381V384.5Z" fill="var(--sol-primary)"/>
</g>
<path d="M324 368.5H348C349.933 368.5 351.5 370.067 351.5 372V396C351.5 397.933 349.933 399.5 348 399.5H324C322.067 399.5 320.5 397.933 320.5 396V372C320.5 370.067 322.067 368.5 324 368.5Z" stroke="var(--sol-element-primary)" stroke-opacity="0.16"/>
<g clip-path="url(#clip14_1666_175941)">
<path d="M412 372C412 369.791 413.791 368 416 368H440C442.209 368 444 369.791 444 372V396C444 398.209 442.209 400 440 400H416C413.791 400 412 398.209 412 396V372Z" fill="var(--sol-element-primary)" fill-opacity="0.08"/>
<path d="M427.381 384.5H422.381V383.5H427.381V378.5H428.381V383.5H433.381V384.5H428.381V389.5H427.381V384.5Z" fill="var(--sol-surface)"/>
</g>
<defs>
<filter id="filter0_dd_1666_175941" x="224" y="204" width="40" height="40" filterUnits="userSpaceOnUse" color-interpolation-filters="sRGB">
<feFlood flood-opacity="0" result="BackgroundImageFix"/>
<feColorMatrix in="SourceAlpha" type="matrix" values="0 0 0 0 0 0 0 0 0 0 0 0 0 0 0 0 0 0 127 0" result="hardAlpha"/>
<feMorphology radius="4" operator="dilate" in="SourceAlpha" result="effect1_dropShadow_1666_175941"/>
<feOffset/>
<feComposite in2="hardAlpha" operator="out"/>
<feColorMatrix type="matrix" values="0 0 0 0 0.156863 0 0 0 0 0.137255 0 0 0 0 0.388235 0 0 0 1 0"/>
<feBlend mode="normal" in2="BackgroundImageFix" result="effect1_dropShadow_1666_175941"/>
<feColorMatrix in="SourceAlpha" type="matrix" values="0 0 0 0 0 0 0 0 0 0 0 0 0 0 0 0 0 0 127 0" result="hardAlpha"/>
<feMorphology radius="2" operator="dilate" in="SourceAlpha" result="effect2_dropShadow_1666_175941"/>
<feOffset/>
<feComposite in2="hardAlpha" operator="out"/>
<feColorMatrix type="matrix" values="0 0 0 0 1 0 0 0 0 1 0 0 0 0 1 0 0 0 1 0"/>
<feBlend mode="normal" in2="effect1_dropShadow_1666_175941" result="effect2_dropShadow_1666_175941"/>
<feBlend mode="normal" in="SourceGraphic" in2="effect2_dropShadow_1666_175941" result="shape"/>
</filter>
<filter id="filter1_dd_1666_175941" x="408" y="204" width="40" height="40" filterUnits="userSpaceOnUse" color-interpolation-filters="sRGB">
<feFlood flood-opacity="0" result="BackgroundImageFix"/>
<feColorMatrix in="SourceAlpha" type="matrix" values="0 0 0 0 0 0 0 0 0 0 0 0 0 0 0 0 0 0 127 0" result="hardAlpha"/>
<feMorphology radius="4" operator="dilate" in="SourceAlpha" result="effect1_dropShadow_1666_175941"/>
<feOffset/>
<feComposite in2="hardAlpha" operator="out"/>
<feColorMatrix type="matrix" values="0 0 0 0 0.156863 0 0 0 0 0.137255 0 0 0 0 0.388235 0 0 0 1 0"/>
<feBlend mode="normal" in2="BackgroundImageFix" result="effect1_dropShadow_1666_175941"/>
<feColorMatrix in="SourceAlpha" type="matrix" values="0 0 0 0 0 0 0 0 0 0 0 0 0 0 0 0 0 0 127 0" result="hardAlpha"/>
<feMorphology radius="2" operator="dilate" in="SourceAlpha" result="effect2_dropShadow_1666_175941"/>
<feOffset/>
<feComposite in2="hardAlpha" operator="out"/>
<feColorMatrix type="matrix" values="0 0 0 0 1 0 0 0 0 1 0 0 0 0 1 0 0 0 1 0"/>
<feBlend mode="normal" in2="effect1_dropShadow_1666_175941" result="effect2_dropShadow_1666_175941"/>
<feBlend mode="normal" in="SourceGraphic" in2="effect2_dropShadow_1666_175941" result="shape"/>
</filter>
<clipPath id="clip0_1666_175941">
<path d="M228 52C228 49.7909 229.791 48 232 48H256C258.209 48 260 49.7909 260 52V76C260 78.2091 258.209 80 256 80H232C229.791 80 228 78.2091 228 76V52Z" fill="var(--sol-surface)"/>
</clipPath>
<clipPath id="clip1_1666_175941">
<path d="M320 52C320 49.7909 321.791 48 324 48H348C350.209 48 352 49.7909 352 52V76C352 78.2091 350.209 80 348 80H324C321.791 80 320 78.2091 320 76V52Z" fill="var(--sol-surface)"/>
</clipPath>
<clipPath id="clip2_1666_175941">
<path d="M412 52C412 49.7909 413.791 48 416 48H440C442.209 48 444 49.7909 444 52V76C444 78.2091 442.209 80 440 80H416C413.791 80 412 78.2091 412 76V52Z" fill="var(--sol-surface)"/>
</clipPath>
<clipPath id="clip3_1666_175941">
<path d="M228 138C228 135.791 229.791 134 232 134H256C258.209 134 260 135.791 260 138V150C260 152.209 258.209 154 256 154H232C229.791 154 228 152.209 228 150V138Z" fill="var(--sol-surface)"/>
</clipPath>
<clipPath id="clip4_1666_175941">
<path d="M320 132C320 129.791 321.791 128 324 128H348C350.209 128 352 129.791 352 132V156C352 158.209 350.209 160 348 160H324C321.791 160 320 158.209 320 156V132Z" fill="var(--sol-surface)"/>
</clipPath>
<clipPath id="clip5_1666_175941">
<path d="M412 132C412 129.791 413.791 128 416 128H440C442.209 128 444 129.791 444 132V156C444 158.209 442.209 160 440 160H416C413.791 160 412 158.209 412 156V132Z" fill="var(--sol-surface)"/>
</clipPath>
<clipPath id="clip6_1666_175941">
<path d="M228 212C228 209.791 229.791 208 232 208H256C258.209 208 260 209.791 260 212V236C260 238.209 258.209 240 256 240H232C229.791 240 228 238.209 228 236V212Z" fill="var(--sol-surface)"/>
</clipPath>
<clipPath id="clip7_1666_175941">
<path d="M320 212C320 209.791 321.791 208 324 208H348C350.209 208 352 209.791 352 212V236C352 238.209 350.209 240 348 240H324C321.791 240 320 238.209 320 236V212Z" fill="var(--sol-surface)"/>
</clipPath>
<clipPath id="clip8_1666_175941">
<path d="M412 212C412 209.791 413.791 208 416 208H440C442.209 208 444 209.791 444 212V236C444 238.209 442.209 240 440 240H416C413.791 240 412 238.209 412 236V212Z" fill="var(--sol-surface)"/>
</clipPath>
<clipPath id="clip9_1666_175941">
<path d="M228 298C228 295.791 229.791 294 232 294H256C258.209 294 260 295.791 260 298V310C260 312.209 258.209 314 256 314H232C229.791 314 228 312.209 228 310V298Z" fill="var(--sol-surface)"/>
</clipPath>
<clipPath id="clip10_1666_175941">
<path d="M320 292C320 289.791 321.791 288 324 288H348C350.209 288 352 289.791 352 292V316C352 318.209 350.209 320 348 320H324C321.791 320 320 318.209 320 316V292Z" fill="var(--sol-surface)"/>
</clipPath>
<clipPath id="clip11_1666_175941">
<path d="M412 292C412 289.791 413.791 288 416 288H440C442.209 288 444 289.791 444 292V316C444 318.209 442.209 320 440 320H416C413.791 320 412 318.209 412 316V292Z" fill="var(--sol-surface)"/>
</clipPath>
<clipPath id="clip12_1666_175941">
<path d="M228 372C228 369.791 229.791 368 232 368H256C258.209 368 260 369.791 260 372V396C260 398.209 258.209 400 256 400H232C229.791 400 228 398.209 228 396V372Z" fill="var(--sol-surface)"/>
</clipPath>
<clipPath id="clip13_1666_175941">
<path d="M320 372C320 369.791 321.791 368 324 368H348C350.209 368 352 369.791 352 372V396C352 398.209 350.209 400 348 400H324C321.791 400 320 398.209 320 396V372Z" fill="var(--sol-surface)"/>
</clipPath>
<clipPath id="clip14_1666_175941">
<path d="M412 372C412 369.791 413.791 368 416 368H440C442.209 368 444 369.791 444 372V396C444 398.209 442.209 400 440 400H416C413.791 400 412 398.209 412 396V372Z" fill="var(--sol-surface)"/>
</clipPath>
</defs>
</svg>
