<svg width="900" height="140" viewBox="0 0 900 140" fill="none" xmlns="http://www.w3.org/2000/svg">
<style>
:root {
  --sol-primary: #282363;
  --sol-fill-active: #4d469a;
  --sol-surface: #ffffff;
  --sol-element-primary: #161616;
  --sol-element-quaternary: #858585;
  --sol-error-dim: #b84451;
  --sol-static-white: #ffffff;
  --sol-static-black: #000000;
  --color-yellow-500: #d4ae00;
}
@media (prefers-color-scheme: dark) {
  :root {
    --sol-primary: #9791d4;
    --sol-fill-active: #7b74c4;
    --sol-surface: #161616;
    --sol-element-primary: #ffffff;
    --sol-element-quaternary: rgba(255, 255, 255, 0.5);
    --sol-error-dim: #e76067;
  }
}
</style>
<g clip-path="url(#clip0_1666_175902)">
<path d="M335 58C335 55.7909 336.791 54 339 54H363C365.209 54 367 55.7909 367 58V82C367 84.2091 365.209 86 363 86H339C336.791 86 335 84.2091 335 82V58Z" fill="var(--sol-primary)"/>
<path d="M350.381 70.5H345.381V69.5H350.381V64.5H351.381V69.5H356.381V70.5H351.381V75.5H350.381V70.5Z" fill="var(--sol-surface)"/>
</g>
<g clip-path="url(#clip1_1666_175902)">
<path d="M427 56C427 53.7909 428.791 52 431 52H459C461.209 52 463 53.7909 463 56V84C463 86.2091 461.209 88 459 88H431C428.791 88 427 86.2091 427 84V56Z" fill="var(--sol-primary)"/>
<path d="M444.226 70.625H437.976V69.375H444.226V63.125H445.476V69.375H451.726V70.625H445.476V76.875H444.226V70.625Z" fill="var(--sol-surface)"/>
</g>
<g clip-path="url(#clip2_1666_175902)">
<path d="M523 53C523 50.7909 524.791 49 527 49H561C563.209 49 565 50.7909 565 53V87C565 89.2091 563.209 91 561 91H527C524.791 91 523 89.2091 523 87V53Z" fill="var(--sol-primary)"/>
<path d="M543.071 70.75H535.571V69.25H543.071V61.75H544.571V69.25H552.071V70.75H544.571V78.25H543.071V70.75Z" fill="var(--sol-surface)"/>
</g>
<path d="M374.5 55V87" stroke="var(--sol-error-dim)"/>
<path d="M371.5 55H377.5" stroke="var(--sol-error-dim)"/>
<path d="M371.5 87H377.5" stroke="var(--sol-error-dim)"/>
<rect x="381.5" y="61" width="20" height="20" rx="3.5" fill="var(--sol-error-dim)"/>
<path d="M388.082 75.1094C387.545 75.1094 387.066 75.0169 386.644 74.832C386.225 74.6471 385.893 74.3906 385.648 74.0625C385.406 73.7318 385.276 73.349 385.258 72.9141H386.484C386.5 73.151 386.579 73.3568 386.722 73.5312C386.868 73.7031 387.058 73.8359 387.293 73.9297C387.527 74.0234 387.787 74.0703 388.074 74.0703C388.389 74.0703 388.668 74.0156 388.91 73.9062C389.155 73.7969 389.346 73.6445 389.484 73.4492C389.622 73.2513 389.691 73.0234 389.691 72.7656C389.691 72.4974 389.622 72.2617 389.484 72.0586C389.349 71.8529 389.149 71.6914 388.886 71.5742C388.626 71.457 388.311 71.3984 387.941 71.3984H387.265V70.4141H387.941C388.238 70.4141 388.498 70.3607 388.722 70.2539C388.949 70.1471 389.126 69.9987 389.254 69.8086C389.381 69.6159 389.445 69.3906 389.445 69.1328C389.445 68.8854 389.389 68.6706 389.277 68.4883C389.168 68.3034 389.011 68.1589 388.808 68.0547C388.608 67.9505 388.371 67.8984 388.097 67.8984C387.837 67.8984 387.593 67.9466 387.367 68.043C387.143 68.1367 386.961 68.2721 386.82 68.4492C386.679 68.6237 386.604 68.8333 386.593 69.0781H385.425C385.438 68.6458 385.566 68.2656 385.808 67.9375C386.053 67.6094 386.376 67.3529 386.777 67.168C387.178 66.9831 387.623 66.8906 388.113 66.8906C388.626 66.8906 389.069 66.9909 389.441 67.1914C389.816 67.3893 390.105 67.6536 390.308 67.9844C390.514 68.3151 390.616 68.6771 390.613 69.0703C390.616 69.5182 390.491 69.8984 390.238 70.2109C389.988 70.5234 389.655 70.7331 389.238 70.8398V70.9023C389.769 70.9831 390.181 71.194 390.472 71.5352C390.767 71.8763 390.912 72.2995 390.91 72.8047C390.912 73.2448 390.79 73.6393 390.543 73.9883C390.298 74.3372 389.963 74.612 389.539 74.8125C389.114 75.0104 388.629 75.1094 388.082 75.1094ZM392.496 75V74.125L395.203 71.3203C395.493 71.0156 395.731 70.7487 395.918 70.5195C396.108 70.2878 396.25 70.0677 396.344 69.8594C396.438 69.651 396.485 69.4297 396.485 69.1953C396.485 68.9297 396.422 68.7005 396.297 68.5078C396.172 68.3125 396.002 68.1628 395.785 68.0586C395.569 67.9518 395.326 67.8984 395.055 67.8984C394.769 67.8984 394.519 67.957 394.305 68.0742C394.091 68.1914 393.927 68.3568 393.813 68.5703C393.698 68.7839 393.641 69.0339 393.641 69.3203H392.489C392.489 68.8333 392.601 68.4076 392.825 68.043C393.048 67.6784 393.356 67.3958 393.746 67.1953C394.137 66.9922 394.581 66.8906 395.078 66.8906C395.581 66.8906 396.024 66.9909 396.407 67.1914C396.792 67.3893 397.093 67.6602 397.309 68.0039C397.525 68.3451 397.633 68.7305 397.633 69.1602C397.633 69.457 397.577 69.7474 397.465 70.0312C397.356 70.3151 397.164 70.6315 396.891 70.9805C396.618 71.3268 396.237 71.7474 395.75 72.2422L394.16 73.9062V73.9648H397.762V75H392.496Z" fill="var(--sol-surface)"/>
<path d="M470.5 52V88" stroke="var(--sol-error-dim)"/>
<path d="M467.5 52H473.5" stroke="var(--sol-error-dim)"/>
<path d="M467.5 88H473.5" stroke="var(--sol-error-dim)"/>
<rect x="477.5" y="60" width="21" height="20" rx="3.5" fill="var(--sol-error-dim)"/>
<path d="M484.458 74.1094C483.922 74.1094 483.443 74.0169 483.021 73.832C482.601 73.6471 482.269 73.3906 482.025 73.0625C481.782 72.7318 481.652 72.349 481.634 71.9141H482.861C482.876 72.151 482.956 72.3568 483.099 72.5312C483.245 72.7031 483.435 72.8359 483.669 72.9297C483.903 73.0234 484.164 73.0703 484.45 73.0703C484.765 73.0703 485.044 73.0156 485.286 72.9062C485.531 72.7969 485.723 72.6445 485.861 72.4492C485.999 72.2513 486.068 72.0234 486.068 71.7656C486.068 71.4974 485.999 71.2617 485.861 71.0586C485.725 70.8529 485.526 70.6914 485.263 70.5742C485.002 70.457 484.687 70.3984 484.318 70.3984H483.642V69.4141H484.318C484.614 69.4141 484.875 69.3607 485.099 69.2539C485.325 69.1471 485.502 68.9987 485.63 68.8086C485.758 68.6159 485.821 68.3906 485.821 68.1328C485.821 67.8854 485.765 67.6706 485.653 67.4883C485.544 67.3034 485.388 67.1589 485.185 67.0547C484.984 66.9505 484.747 66.8984 484.474 66.8984C484.213 66.8984 483.97 66.9466 483.743 67.043C483.519 67.1367 483.337 67.2721 483.196 67.4492C483.056 67.6237 482.98 67.8333 482.97 68.0781H481.802C481.815 67.6458 481.943 67.2656 482.185 66.9375C482.43 66.6094 482.752 66.3529 483.153 66.168C483.555 65.9831 484 65.8906 484.489 65.8906C485.002 65.8906 485.445 65.9909 485.818 66.1914C486.193 66.3893 486.482 66.6536 486.685 66.9844C486.89 67.3151 486.992 67.6771 486.989 68.0703C486.992 68.5182 486.867 68.8984 486.614 69.2109C486.364 69.5234 486.031 69.7331 485.614 69.8398V69.9023C486.146 69.9831 486.557 70.194 486.849 70.5352C487.143 70.8763 487.289 71.2995 487.286 71.8047C487.289 72.2448 487.167 72.6393 486.919 72.9883C486.674 73.3372 486.34 73.612 485.915 73.8125C485.491 74.0104 485.005 74.1094 484.458 74.1094ZM491.666 74.1094C491.309 74.1042 490.958 74.0391 490.611 73.9141C490.267 73.7891 489.955 73.5807 489.674 73.2891C489.392 72.9974 489.167 72.6055 488.998 72.1133C488.831 71.6211 488.748 71.0065 488.748 70.2695C488.748 69.5716 488.817 68.9518 488.955 68.4102C489.096 67.8685 489.297 67.4115 489.56 67.0391C489.823 66.6641 490.141 66.3789 490.513 66.1836C490.886 65.9883 491.304 65.8906 491.767 65.8906C492.244 65.8906 492.667 65.9844 493.037 66.1719C493.407 66.3594 493.706 66.6185 493.935 66.9492C494.167 67.2799 494.314 67.6562 494.377 68.0781H493.185C493.105 67.7448 492.944 67.4727 492.705 67.2617C492.465 67.0508 492.153 66.9453 491.767 66.9453C491.181 66.9453 490.724 67.2005 490.396 67.7109C490.071 68.2214 489.907 68.931 489.904 69.8398H489.963C490.101 69.6133 490.27 69.4206 490.471 69.2617C490.674 69.1003 490.9 68.9766 491.15 68.8906C491.403 68.8021 491.668 68.7578 491.947 68.7578C492.411 68.7578 492.83 68.8711 493.205 69.0977C493.583 69.3216 493.883 69.6315 494.107 70.0273C494.331 70.4232 494.443 70.8763 494.443 71.3867C494.443 71.8971 494.327 72.3594 494.096 72.7734C493.866 73.1875 493.543 73.5156 493.127 73.7578C492.71 73.9974 492.223 74.1146 491.666 74.1094ZM491.662 73.0937C491.969 73.0937 492.244 73.0182 492.486 72.8672C492.728 72.7161 492.92 72.513 493.06 72.2578C493.201 72.0026 493.271 71.7174 493.271 71.4023C493.271 71.0951 493.202 70.8151 493.064 70.5625C492.929 70.3099 492.741 70.1094 492.502 69.9609C492.265 69.8125 491.994 69.7383 491.689 69.7383C491.458 69.7383 491.243 69.7826 491.045 69.8711C490.849 69.9596 490.678 70.082 490.529 70.2383C490.381 70.3945 490.263 70.5742 490.178 70.7773C490.094 70.9779 490.053 71.1901 490.053 71.4141C490.053 71.7135 490.122 71.9909 490.26 72.2461C490.4 72.5013 490.592 72.707 490.834 72.8633C491.079 73.0169 491.355 73.0937 491.662 73.0937Z" fill="var(--sol-surface)"/>
<path d="M572.5 49V91" stroke="var(--sol-error-dim)"/>
<path d="M569.5 49H575.5" stroke="var(--sol-error-dim)"/>
<path d="M569.5 91H575.5" stroke="var(--sol-error-dim)"/>
<rect x="579.5" y="60" width="21" height="20" rx="3.5" fill="var(--sol-error-dim)"/>
<path d="M583.451 72.4375V71.4609L586.908 66H587.678V67.4375H587.19L584.717 71.3516V71.4141H589.455V72.4375H583.451ZM587.244 74V72.1406L587.252 71.6953V66H588.397V74H587.244ZM593.72 74.1094C593.363 74.1042 593.011 74.0391 592.665 73.9141C592.321 73.7891 592.009 73.5807 591.727 73.2891C591.446 72.9974 591.221 72.6055 591.052 72.1133C590.885 71.6211 590.802 71.0065 590.802 70.2695C590.802 69.5716 590.871 68.9518 591.009 68.4102C591.149 67.8685 591.351 67.4115 591.614 67.0391C591.877 66.6641 592.195 66.3789 592.567 66.1836C592.94 65.9883 593.358 65.8906 593.821 65.8906C594.298 65.8906 594.721 65.9844 595.091 66.1719C595.46 66.3594 595.76 66.6185 595.989 66.9492C596.221 67.2799 596.368 67.6562 596.43 68.0781H595.239C595.158 67.7448 594.998 67.4727 594.759 67.2617C594.519 67.0508 594.207 66.9453 593.821 66.9453C593.235 66.9453 592.778 67.2005 592.45 67.7109C592.124 68.2214 591.96 68.931 591.958 69.8398H592.016C592.154 69.6133 592.324 69.4206 592.524 69.2617C592.727 69.1003 592.954 68.9766 593.204 68.8906C593.457 68.8021 593.722 68.7578 594.001 68.7578C594.464 68.7578 594.884 68.8711 595.259 69.0977C595.636 69.3216 595.937 69.6315 596.161 70.0273C596.385 70.4232 596.497 70.8763 596.497 71.3867C596.497 71.8971 596.381 72.3594 596.149 72.7734C595.92 73.1875 595.597 73.5156 595.18 73.7578C594.764 73.9974 594.277 74.1146 593.72 74.1094ZM593.716 73.0937C594.023 73.0937 594.298 73.0182 594.54 72.8672C594.782 72.7161 594.973 72.513 595.114 72.2578C595.255 72.0026 595.325 71.7174 595.325 71.4023C595.325 71.0951 595.256 70.8151 595.118 70.5625C594.983 70.3099 594.795 70.1094 594.555 69.9609C594.319 69.8125 594.048 69.7383 593.743 69.7383C593.511 69.7383 593.296 69.7826 593.098 69.8711C592.903 69.9596 592.731 70.082 592.583 70.2383C592.434 70.3945 592.317 70.5742 592.231 70.7773C592.148 70.9779 592.106 71.1901 592.106 71.4141C592.106 71.7135 592.175 71.9909 592.313 72.2461C592.454 72.5013 592.645 72.707 592.888 72.8633C593.132 73.0169 593.408 73.0937 593.716 73.0937Z" fill="var(--sol-surface)"/>
<defs>
<clipPath id="clip0_1666_175902">
<path d="M335 58C335 55.7909 336.791 54 339 54H363C365.209 54 367 55.7909 367 58V82C367 84.2091 365.209 86 363 86H339C336.791 86 335 84.2091 335 82V58Z" fill="var(--sol-surface)"/>
</clipPath>
<clipPath id="clip1_1666_175902">
<path d="M427 56C427 53.7909 428.791 52 431 52H459C461.209 52 463 53.7909 463 56V84C463 86.2091 461.209 88 459 88H431C428.791 88 427 86.2091 427 84V56Z" fill="var(--sol-surface)"/>
</clipPath>
<clipPath id="clip2_1666_175902">
<path d="M523 53C523 50.7909 524.791 49 527 49H561C563.209 49 565 50.7909 565 53V87C565 89.2091 563.209 91 561 91H527C524.791 91 523 89.2091 523 87V53Z" fill="var(--sol-surface)"/>
</clipPath>
</defs>
</svg>
