<svg width="442" height="130" viewBox="0 0 442 130" fill="none" xmlns="http://www.w3.org/2000/svg">
<style>
:root {
  --sol-primary: #282363;
  --sol-fill-active: #4d469a;
  --sol-surface: #ffffff;
  --sol-element-primary: #161616;
  --sol-element-quaternary: #858585;
  --sol-error-dim: #b84451;
  --sol-static-white: #ffffff;
  --sol-static-black: #000000;
  --color-yellow-500: #d4ae00;
}
@media (prefers-color-scheme: dark) {
  :root {
    --sol-primary: #9791d4;
    --sol-fill-active: #7b74c4;
    --sol-surface: #161616;
    --sol-element-primary: #ffffff;
    --sol-element-quaternary: rgba(255, 255, 255, 0.5);
    --sol-error-dim: #e76067;
  }
}
</style>
<g clip-path="url(#clip0_1666_176419)">
<path d="M203 51C203 48.7909 204.791 47 207 47H235C237.209 47 239 48.7909 239 51V79C239 81.2091 237.209 83 235 83H207C204.791 83 203 81.2091 203 79V51Z" fill="var(--sol-surface)"/>
<path d="M213.768 70.6527V68.1942H215.018V70.6527C215.018 70.8768 215.018 71.0075 215.026 71.1035C215.029 71.1453 215.033 71.1682 215.036 71.1784C215.048 71.2007 215.066 71.2187 215.089 71.2313C215.098 71.2335 215.121 71.2383 215.164 71.2419C215.26 71.2497 215.391 71.25 215.615 71.25H226.92C227.145 71.25 227.275 71.2497 227.371 71.2419C227.413 71.2384 227.436 71.2335 227.446 71.2313C227.469 71.2188 227.487 71.2007 227.499 71.1784C227.501 71.1683 227.506 71.1456 227.51 71.1035C227.518 71.0075 227.518 70.8768 227.518 70.6527V68.1942H228.768V70.6527C228.768 70.8562 228.769 71.0465 228.756 71.2052C228.745 71.3297 228.725 71.4654 228.676 71.6032L228.616 71.7415C228.5 71.9701 228.323 72.1615 228.105 72.2949L228.009 72.3486C227.825 72.4426 227.639 72.4742 227.473 72.4878C227.314 72.5007 227.124 72.5 226.92 72.5H215.615C215.412 72.5 215.221 72.5007 215.063 72.4878C214.938 72.4776 214.802 72.4571 214.665 72.408L214.526 72.3486C214.265 72.2155 214.052 72.0029 213.919 71.7415C213.825 71.5571 213.794 71.3712 213.78 71.2052C213.767 71.0465 213.768 70.8562 213.768 70.6527ZM220.643 57.5H221.893V67.3104L225.851 63.3521L226.735 64.2358L221.71 69.2611C221.466 69.5051 221.07 69.5051 220.826 69.2611L215.801 64.2358L216.684 63.3521L220.643 67.3104V57.5Z" fill="var(--sol-element-primary)"/>
</g>
<path d="M207 47.5H235C236.933 47.5 238.5 49.067 238.5 51V79C238.5 80.933 236.933 82.5 235 82.5H207C205.067 82.5 203.5 80.933 203.5 79V51C203.5 49.067 205.067 47.5 207 47.5Z" stroke="var(--sol-element-primary)" stroke-opacity="0.16"/>
<defs>
<clipPath id="clip0_1666_176419">
<path d="M203 51C203 48.7909 204.791 47 207 47H235C237.209 47 239 48.7909 239 51V79C239 81.2091 237.209 83 235 83H207C204.791 83 203 81.2091 203 79V51Z" fill="var(--sol-surface)"/>
</clipPath>
</defs>
</svg>
