<svg width="442" height="130" viewBox="0 0 442 130" fill="none" xmlns="http://www.w3.org/2000/svg">
<style>
:root {
  --sol-primary: #282363;
  --sol-fill-active: #4d469a;
  --sol-surface: #ffffff;
  --sol-element-primary: #161616;
  --sol-element-quaternary: #858585;
  --sol-error-dim: #b84451;
  --sol-static-white: #ffffff;
  --sol-static-black: #000000;
  --color-yellow-500: #d4ae00;
}
@media (prefers-color-scheme: dark) {
  :root {
    --sol-primary: #9791d4;
    --sol-fill-active: #7b74c4;
    --sol-surface: #161616;
    --sol-element-primary: #ffffff;
    --sol-element-quaternary: rgba(255, 255, 255, 0.5);
    --sol-error-dim: #e76067;
  }
}
</style>
<g clip-path="url(#clip0_1666_176411)">
<path d="M111 51C111 48.7909 112.791 47 115 47H218C220.209 47 222 48.7909 222 51V79C222 81.2091 220.209 83 218 83H115C112.791 83 111 81.2091 111 79V51Z" fill="var(--sol-surface)"/>
<path d="M125.214 69.5221V67.5553H126.214V69.5221C126.214 69.7014 126.214 69.806 126.221 69.8828C126.223 69.9163 126.227 69.9346 126.228 69.9427C126.238 69.9606 126.253 69.975 126.271 69.985C126.278 69.9868 126.297 69.9907 126.331 69.9935C126.408 69.9998 126.513 70 126.692 70H135.736C135.916 70 136.02 69.9998 136.097 69.9935C136.131 69.9907 136.149 69.9868 136.157 69.985C136.175 69.975 136.189 69.9606 136.199 69.9427C136.201 69.9346 136.205 69.9165 136.208 69.8828C136.214 69.806 136.214 69.7014 136.214 69.5221V67.5553H137.214V69.5221C137.214 69.685 137.215 69.8372 137.204 69.9642C137.196 70.0638 137.18 70.1723 137.141 70.2826L137.093 70.3932C137 70.5761 136.858 70.7292 136.684 70.8359L136.607 70.8789C136.46 70.9541 136.311 70.9794 136.178 70.9902C136.051 71.0006 135.899 71 135.736 71H126.692C126.529 71 126.377 71.0006 126.25 70.9902C126.15 70.9821 126.042 70.9657 125.932 70.9264L125.821 70.8789C125.612 70.7724 125.442 70.6023 125.335 70.3932C125.26 70.2457 125.235 70.097 125.224 69.9642C125.214 69.8372 125.214 69.685 125.214 69.5221ZM130.714 59H131.714V66.8483L134.881 63.6816L135.588 64.3887L131.568 68.4089C131.372 68.6041 131.056 68.6041 130.861 68.4089L126.84 64.3887L127.547 63.6816L130.714 66.8483V59Z" fill="var(--sol-primary)"/>
<path d="M149.35 70H145.986V60.1016H149.404C152.357 60.1016 154.148 61.9609 154.148 65.0371C154.148 68.127 152.357 70 149.35 70ZM147.764 68.4551H149.254C151.318 68.4551 152.371 67.3203 152.371 65.0371C152.371 62.7676 151.318 61.6465 149.309 61.6465H147.764V68.4551ZM158.879 70.1504C156.719 70.1504 155.324 68.6191 155.324 66.3223C155.324 64.0117 156.719 62.4805 158.879 62.4805C161.053 62.4805 162.434 64.0117 162.434 66.3223C162.434 68.6191 161.053 70.1504 158.879 70.1504ZM158.893 68.7559C160.082 68.7559 160.67 67.6758 160.67 66.3086C160.67 64.9551 160.082 63.8613 158.893 63.8613C157.676 63.8613 157.088 64.9551 157.088 66.3086C157.088 67.6758 157.676 68.7559 158.893 68.7559ZM165.127 70L163.021 62.5762H164.799L166.111 67.7988H166.18L167.506 62.5762H169.27L170.609 67.7715H170.678L171.977 62.5762H173.754L171.648 70H169.83L168.436 64.9688H168.34L166.945 70H165.127ZM176.611 65.6523V70H174.861V62.5762H176.529V63.834H176.625C176.967 63 177.719 62.4805 178.826 62.4805C180.371 62.4805 181.383 63.4922 181.369 65.2695V70H179.633V65.543C179.633 64.5449 179.1 63.957 178.184 63.957C177.254 63.957 176.611 64.5723 176.611 65.6523ZM184.787 60.1016V70H183.037V60.1016H184.787ZM189.695 70.1504C187.535 70.1504 186.141 68.6191 186.141 66.3223C186.141 64.0117 187.535 62.4805 189.695 62.4805C191.869 62.4805 193.25 64.0117 193.25 66.3223C193.25 68.6191 191.869 70.1504 189.695 70.1504ZM189.709 68.7559C190.898 68.7559 191.486 67.6758 191.486 66.3086C191.486 64.9551 190.898 63.8613 189.709 63.8613C188.492 63.8613 187.904 64.9551 187.904 66.3086C187.904 67.6758 188.492 68.7559 189.709 68.7559ZM194.262 67.9082C194.262 66.2402 195.643 65.748 197.023 65.666C197.536 65.6318 198.603 65.5703 198.924 65.5566V64.9688C198.924 64.2305 198.445 63.8066 197.584 63.8066C196.805 63.8066 196.326 64.1621 196.189 64.6953H194.508C194.631 63.4375 195.766 62.4805 197.625 62.4805C199.033 62.4805 200.66 63.0547 200.66 65.0371V70H198.992V68.9746H198.938C198.609 69.6035 197.912 70.1504 196.75 70.1504C195.328 70.1504 194.262 69.3711 194.262 67.9082ZM195.943 67.8945C195.943 68.5371 196.463 68.8652 197.201 68.8652C198.254 68.8652 198.938 68.168 198.938 67.334V66.7188L197.297 66.8281C196.463 66.8965 195.943 67.2383 195.943 67.8945ZM205.062 70.1367C203.312 70.1367 202 68.7422 202 66.2949C202 63.8203 203.354 62.4805 205.076 62.4805C206.389 62.4805 206.936 63.2598 207.195 63.793H207.264V60.1016H209V70H207.291V68.8242H207.195C206.922 69.3711 206.348 70.1367 205.062 70.1367ZM205.541 68.7012C206.662 68.7012 207.305 67.7305 207.305 66.2812C207.305 64.8457 206.676 63.9023 205.541 63.9023C204.379 63.9023 203.777 64.9004 203.777 66.2812C203.777 67.6895 204.393 68.7012 205.541 68.7012Z" fill="var(--sol-primary)"/>
</g>
<path d="M115 47.5H218C219.933 47.5 221.5 49.067 221.5 51V79C221.5 80.933 219.933 82.5 218 82.5H115C113.067 82.5 111.5 80.933 111.5 79V51C111.5 49.067 113.067 47.5 115 47.5Z" stroke="var(--sol-element-primary)" stroke-opacity="0.16"/>
<g clip-path="url(#clip1_1666_176411)">
<path d="M234 51C234 48.7909 235.791 47 238 47H327C329.209 47 331 48.7909 331 51V79C331 81.2091 329.209 83 327 83H238C235.791 83 234 81.2091 234 79V51Z" fill="var(--sol-surface)"/>
<path d="M253.962 59.5C255.765 59.5001 257.35 60.4505 258.295 61.888V59.7637H259.295V63.125C259.295 63.401 259.071 63.6248 258.795 63.625H255.434V62.625H257.589C256.832 61.3447 255.488 60.5001 253.962 60.5C251.616 60.5 249.688 62.5001 249.688 65C249.688 67.4999 251.616 69.5 253.962 69.5C255.786 69.4999 257.355 68.2929 257.965 66.5781L258.02 66.4108L258.088 66.2376H259.106L258.957 66.7142L258.889 66.918C258.147 69.0017 256.228 70.4999 253.962 70.5C251.045 70.5 248.705 68.023 248.705 65C248.705 61.977 251.045 59.5 253.962 59.5Z" fill="var(--sol-primary)"/>
<path d="M269.355 70V60.1016H273.074C275.344 60.1016 276.561 61.373 276.561 63.2598C276.561 64.6064 275.945 65.6045 274.783 66.0762L276.916 70H274.934L272.992 66.377H271.133V70H269.355ZM271.133 64.8867H272.801C274.141 64.8867 274.742 64.3125 274.742 63.2598C274.742 62.207 274.141 61.5918 272.801 61.5918H271.133V64.8867ZM281.195 70.1504C278.953 70.1504 277.586 68.6602 277.586 66.3359C277.586 64.0391 278.98 62.4805 281.1 62.4805C282.918 62.4805 284.49 63.6152 284.49 66.2266V66.7734H279.309C279.329 68.0381 280.074 68.7832 281.209 68.7832C281.975 68.7832 282.494 68.4551 282.713 68.0176H284.422C284.107 69.3027 282.918 70.1504 281.195 70.1504ZM279.322 65.584H282.822C282.809 64.5723 282.139 63.834 281.127 63.834C280.074 63.834 279.377 64.6338 279.322 65.584ZM289.604 62.5762V63.916H288.072V70H286.322V63.916H285.215V62.5762H286.322V61.8652C286.322 60.416 287.225 59.6367 288.646 59.6367C289.057 59.6367 289.426 59.6777 289.754 59.7461V61.127C289.467 61.0859 289.248 61.0723 289.125 61.0723C288.414 61.0723 288.072 61.3594 288.072 62.0293V62.5762H289.604ZM290.848 70V62.5762H292.543V63.8066H292.625C292.885 62.959 293.609 62.4668 294.457 62.4668C294.648 62.4668 294.922 62.4805 295.086 62.5078V64.1211C294.936 64.0664 294.566 64.0117 294.279 64.0117C293.309 64.0117 292.598 64.6816 292.598 65.625V70H290.848ZM299.188 70.1504C296.945 70.1504 295.578 68.6602 295.578 66.3359C295.578 64.0391 296.973 62.4805 299.092 62.4805C300.91 62.4805 302.482 63.6152 302.482 66.2266V66.7734H297.301C297.321 68.0381 298.066 68.7832 299.201 68.7832C299.967 68.7832 300.486 68.4551 300.705 68.0176H302.414C302.1 69.3027 300.91 70.1504 299.188 70.1504ZM297.314 65.584H300.814C300.801 64.5723 300.131 63.834 299.119 63.834C298.066 63.834 297.369 64.6338 297.314 65.584ZM308.047 64.6953C307.938 64.1348 307.473 63.7793 306.734 63.7793C305.982 63.7793 305.436 64.1484 305.449 64.6543C305.436 65.0371 305.75 65.3242 306.502 65.502L307.76 65.7617C309.168 66.0762 309.838 66.7188 309.852 67.7852C309.838 69.1797 308.621 70.1504 306.68 70.1504C304.793 70.1504 303.672 69.3027 303.494 67.8809H305.271C305.381 68.5098 305.873 68.8242 306.68 68.8242C307.514 68.8242 308.074 68.4824 308.074 67.9355C308.074 67.5117 307.732 67.2383 306.994 67.0742L305.805 66.8145C304.424 66.541 303.713 65.8164 303.713 64.75C303.713 63.3828 304.889 62.4805 306.707 62.4805C308.484 62.4805 309.578 63.3418 309.701 64.6953H308.047ZM312.928 65.6523V70H311.178V60.1016H312.887V63.834H312.982C313.324 63 314.035 62.4805 315.184 62.4805C316.729 62.4805 317.74 63.4785 317.74 65.2695V70H316.004V65.543C316.004 64.5312 315.457 63.957 314.541 63.957C313.598 63.957 312.928 64.5723 312.928 65.6523Z" fill="var(--sol-primary)"/>
</g>
<path d="M238 47.5H327C328.933 47.5 330.5 49.067 330.5 51V79C330.5 80.933 328.933 82.5 327 82.5H238C236.067 82.5 234.5 80.933 234.5 79V51C234.5 49.067 236.067 47.5 238 47.5Z" stroke="var(--sol-element-primary)" stroke-opacity="0.16"/>
<defs>
<clipPath id="clip0_1666_176411">
<path d="M111 51C111 48.7909 112.791 47 115 47H218C220.209 47 222 48.7909 222 51V79C222 81.2091 220.209 83 218 83H115C112.791 83 111 81.2091 111 79V51Z" fill="var(--sol-surface)"/>
</clipPath>
<clipPath id="clip1_1666_176411">
<path d="M234 51C234 48.7909 235.791 47 238 47H327C329.209 47 331 48.7909 331 51V79C331 81.2091 329.209 83 327 83H238C235.791 83 234 81.2091 234 79V51Z" fill="var(--sol-surface)"/>
</clipPath>
</defs>
</svg>
