<svg width="442" height="130" viewBox="0 0 442 130" fill="none" xmlns="http://www.w3.org/2000/svg">
<style>
:root {
  --sol-primary: #282363;
  --sol-fill-active: #4d469a;
  --sol-surface: #ffffff;
  --sol-element-primary: #161616;
  --sol-element-quaternary: #858585;
  --sol-error-dim: #b84451;
  --sol-static-white: #ffffff;
  --sol-static-black: #000000;
  --color-yellow-500: #d4ae00;
}
@media (prefers-color-scheme: dark) {
  :root {
    --sol-primary: #9791d4;
    --sol-fill-active: #7b74c4;
    --sol-surface: #161616;
    --sol-element-primary: #ffffff;
    --sol-element-quaternary: rgba(255, 255, 255, 0.5);
    --sol-error-dim: #e76067;
  }
}
</style>
<mask id="mask0_1666_176385" style="mask-type:alpha" maskUnits="userSpaceOnUse" x="145" y="53" width="24" height="24">
<path d="M155.974 56.3894C156.465 55.6814 157.535 55.6814 158.026 56.3894L158.123 56.5515L160.455 61.2312L165.675 61.9831C166.695 62.1299 167.124 63.3869 166.368 64.1159L162.595 67.7556L163.486 72.8962C163.666 73.9318 162.575 74.6857 161.67 74.2146L157 71.7829L152.33 74.2146C151.425 74.6857 150.334 73.9318 150.514 72.8962L151.404 67.7556L147.632 64.1159C146.877 63.3869 147.305 62.1299 148.325 61.9831L153.544 61.2312L155.877 56.5515L155.974 56.3894ZM154.829 62.0183C154.645 62.3877 154.29 62.6406 153.885 62.6989L149.045 63.3943L152.542 66.7702C152.839 67.0564 152.976 67.4715 152.905 67.8796L152.078 72.655L156.419 70.3952L156.559 70.3327C156.843 70.2262 157.157 70.2262 157.441 70.3327L157.581 70.3952L161.921 72.655L161.095 67.8796C161.024 67.4715 161.162 67.0564 161.458 66.7702L164.954 63.3943L160.115 62.6989C159.71 62.6406 159.355 62.3877 159.171 62.0183L157 57.6609L154.829 62.0183Z" fill="var(--sol-element-primary)"/>
</mask>
<g mask="url(#mask0_1666_176385)">
<rect x="139" y="47" width="36" height="36" fill="var(--sol-element-primary)"/>
</g>
<path d="M205 65C205 56.1634 212.163 49 221 49C229.837 49 237 56.1634 237 65C237 73.8366 229.837 81 221 81C212.163 81 205 73.8366 205 65Z" fill="var(--sol-element-primary)" fill-opacity="0.12"/>
<mask id="mask1_1666_176385" style="mask-type:alpha" maskUnits="userSpaceOnUse" x="209" y="53" width="24" height="24">
<path d="M219.974 56.3894C220.465 55.6814 221.535 55.6814 222.026 56.3894L222.123 56.5515L224.455 61.2312L229.675 61.9831C230.695 62.1299 231.124 63.3869 230.368 64.1159L226.595 67.7556L227.486 72.8962C227.666 73.9318 226.575 74.6857 225.67 74.2146L221 71.7829L216.33 74.2146C215.425 74.6857 214.334 73.9318 214.514 72.8962L215.404 67.7556L211.632 64.1159C210.877 63.3869 211.305 62.1299 212.325 61.9831L217.544 61.2312L219.877 56.5515L219.974 56.3894ZM218.829 62.0183C218.645 62.3877 218.29 62.6406 217.885 62.6989L213.045 63.3943L216.542 66.7702C216.839 67.0564 216.976 67.4715 216.905 67.8796L216.078 72.655L220.419 70.3952L220.559 70.3327C220.843 70.2262 221.157 70.2262 221.441 70.3327L221.581 70.3952L225.921 72.655L225.095 67.8796C225.024 67.4715 225.162 67.0564 225.458 66.7702L228.954 63.3943L224.115 62.6989C223.71 62.6406 223.355 62.3877 223.171 62.0183L221 57.6609L218.829 62.0183Z" fill="var(--sol-element-primary)"/>
</mask>
<g mask="url(#mask1_1666_176385)">
<rect x="203" y="47" width="36" height="36" fill="var(--sol-element-primary)"/>
</g>
<mask id="mask2_1666_176385" style="mask-type:alpha" maskUnits="userSpaceOnUse" x="273" y="53" width="24" height="24">
<path d="M284.549 56.8861C284.733 56.5155 285.267 56.5155 285.452 56.8861L287.843 61.6834C287.916 61.8305 288.058 61.9325 288.222 61.9561L293.568 62.7254C293.981 62.7848 294.146 63.2874 293.847 63.5759L289.979 67.31C289.86 67.4246 289.806 67.5896 289.834 67.7514L290.747 73.0241C290.818 73.4314 290.386 73.742 290.017 73.5497L285.234 71.0603C285.088 70.9839 284.912 70.9839 284.766 71.0603L279.984 73.5497C279.614 73.742 279.182 73.4314 279.253 73.0241L280.166 67.7514C280.194 67.5896 280.14 67.4246 280.022 67.31L276.153 63.5759C275.854 63.2874 276.019 62.7848 276.432 62.7254L281.778 61.9561C281.942 61.9325 282.084 61.8305 282.157 61.6834L284.549 56.8861Z" fill="var(--color-yellow-500)"/>
<path d="M283.974 56.3894C284.465 55.6814 285.535 55.6814 286.026 56.3894L286.123 56.5515L288.455 61.2312L293.675 61.9831C294.695 62.1299 295.124 63.3869 294.368 64.1159L290.595 67.7556L291.486 72.8962C291.666 73.9318 290.575 74.6857 289.67 74.2146L285 71.7829L280.33 74.2146C279.425 74.6857 278.334 73.9318 278.514 72.8962L279.404 67.7556L275.632 64.1159C274.877 63.3869 275.305 62.1299 276.325 61.9831L281.544 61.2312L283.877 56.5515L283.974 56.3894ZM282.829 62.0183C282.645 62.3877 282.29 62.6406 281.885 62.6989L277.045 63.3943L280.542 66.7702C280.839 67.0564 280.976 67.4715 280.905 67.8796L280.078 72.655L284.419 70.3952L284.559 70.3327C284.843 70.2262 285.157 70.2262 285.441 70.3327L285.581 70.3952L289.921 72.655L289.095 67.8796C289.024 67.4715 289.162 67.0564 289.458 66.7702L292.954 63.3943L288.115 62.6989C287.71 62.6406 287.355 62.3877 287.171 62.0183L285 57.6609L282.829 62.0183Z" fill="var(--color-yellow-500)"/>
</mask>
<g mask="url(#mask2_1666_176385)">
<rect x="267" y="47" width="36" height="36" fill="var(--sol-element-primary)"/>
</g>
<g filter="url(#filter0_dd_1666_176385)">
<path d="M229.795 78.2097C229.214 77.6291 228.273 77.6291 227.692 78.2097C227.112 78.7904 227.112 79.7316 227.692 80.3123L231.197 83.8165C234.099 86.7193 238.806 86.7193 241.709 83.8165C244.612 80.9136 244.612 76.2067 241.709 73.3039L239.256 70.8509C238.676 70.2703 237.734 70.2703 237.154 70.8509C236.573 71.4316 236.573 72.3728 237.154 72.9535L236.453 72.2526C235.872 71.672 234.931 71.672 234.35 72.2526C233.77 72.8333 233.77 73.7745 234.35 74.3551L233.65 73.6543C233.069 73.0737 232.128 73.0737 231.547 73.6543C230.966 74.2349 230.966 75.1762 231.547 75.7568L226.291 70.5005C225.71 69.9199 224.769 69.9199 224.188 70.5005C223.608 71.0812 223.608 72.0224 224.188 72.603L232.949 81.3635L229.795 78.2097Z" fill="var(--sol-surface)"/>
<path d="M231.096 76.3056L226.023 71.2332C225.759 70.9694 225.332 70.9694 225.068 71.2332C224.804 71.497 224.804 71.9245 225.068 72.1882L233.522 80.6426L233.574 80.6999C233.818 80.9982 233.801 81.4384 233.522 81.7165C233.226 82.013 232.745 82.013 232.449 81.7165L229.405 78.673L229.299 78.5863C229.037 78.4133 228.681 78.4422 228.45 78.673C228.186 78.9368 228.186 79.3643 228.45 79.6281L231.832 83.0099C234.337 85.5145 238.398 85.5146 240.903 83.0099C243.408 80.5052 243.407 76.4438 240.903 73.939L238.535 71.5716C238.272 71.3078 237.844 71.3078 237.58 71.5716C237.35 71.8024 237.321 72.1583 237.494 72.4204L237.58 72.5266L237.632 72.584C237.876 72.8822 237.858 73.3225 237.58 73.6006C237.284 73.8969 236.803 73.897 236.506 73.6006L235.83 72.9245C235.567 72.6607 235.138 72.66 234.875 72.9238C234.644 73.1546 234.615 73.5111 234.789 73.7733L234.875 73.8795L234.927 73.9369C235.17 74.2351 235.153 74.6754 234.875 74.9534C234.579 75.2498 234.098 75.2496 233.801 74.9534L233.125 74.2767C232.861 74.013 232.433 74.0129 232.17 74.2767C231.906 74.5404 231.906 74.9679 232.17 75.2317C232.466 75.5283 232.466 76.0091 232.17 76.3056C231.873 76.6021 231.392 76.6022 231.096 76.3056ZM230.694 73.7558C230.795 73.5567 230.929 73.3694 231.096 73.2027C231.69 72.6088 232.539 72.4281 233.29 72.6574C233.396 72.363 233.565 72.0858 233.801 71.8498C234.395 71.256 235.244 71.0753 235.995 71.3045C236.101 71.0101 236.271 70.7336 236.506 70.4977C237.363 69.6408 238.752 69.6408 239.609 70.4977L241.977 72.865C245.074 75.963 245.075 80.986 241.977 84.0838C238.879 87.1816 233.856 87.1815 230.758 84.0838L227.376 80.702C226.519 79.8451 226.519 78.456 227.376 77.5991C227.543 77.4324 227.73 77.2989 227.929 77.1971L223.994 73.2622C223.137 72.4053 223.137 71.0162 223.994 70.1593C224.851 69.3024 226.24 69.3024 227.097 70.1593L230.694 73.7558Z" fill="var(--sol-element-primary)"/>
</g>
<defs>
<filter id="filter0_dd_1666_176385" x="211" y="58.3574" width="46" height="46" filterUnits="userSpaceOnUse" color-interpolation-filters="sRGB">
<feFlood flood-opacity="0" result="BackgroundImageFix"/>
<feColorMatrix in="SourceAlpha" type="matrix" values="0 0 0 0 0 0 0 0 0 0 0 0 0 0 0 0 0 0 127 0" result="hardAlpha"/>
<feOffset dy="4"/>
<feGaussianBlur stdDeviation="4"/>
<feComposite in2="hardAlpha" operator="out"/>
<feColorMatrix type="matrix" values="0 0 0 0 0 0 0 0 0 0 0 0 0 0 0 0 0 0 0.08 0"/>
<feBlend mode="normal" in2="BackgroundImageFix" result="effect1_dropShadow_1666_176385"/>
<feColorMatrix in="SourceAlpha" type="matrix" values="0 0 0 0 0 0 0 0 0 0 0 0 0 0 0 0 0 0 127 0" result="hardAlpha"/>
<feOffset/>
<feGaussianBlur stdDeviation="0.5"/>
<feComposite in2="hardAlpha" operator="out"/>
<feColorMatrix type="matrix" values="0 0 0 0 0 0 0 0 0 0 0 0 0 0 0 0 0 0 0.08 0"/>
<feBlend mode="normal" in2="effect1_dropShadow_1666_176385" result="effect2_dropShadow_1666_176385"/>
<feBlend mode="normal" in="SourceGraphic" in2="effect2_dropShadow_1666_176385" result="shape"/>
</filter>
</defs>
</svg>
