<svg width="442" height="130" viewBox="0 0 442 130" fill="none" xmlns="http://www.w3.org/2000/svg">
<style>
:root {
  --sol-primary: #282363;
  --sol-fill-active: #4d469a;
  --sol-surface: #ffffff;
  --sol-element-primary: #161616;
  --sol-element-quaternary: #858585;
  --sol-error-dim: #b84451;
  --sol-static-white: #ffffff;
  --sol-static-black: #000000;
  --color-yellow-500: #d4ae00;
}
@media (prefers-color-scheme: dark) {
  :root {
    --sol-primary: #9791d4;
    --sol-fill-active: #7b74c4;
    --sol-surface: #161616;
    --sol-element-primary: #ffffff;
    --sol-element-quaternary: rgba(255, 255, 255, 0.5);
    --sol-error-dim: #e76067;
  }
}
</style>
<g clip-path="url(#clip0_1666_176424)">
<path d="M185 51C185 48.7909 186.791 47 189 47H217C219.209 47 221 48.7909 221 51V79C221 81.2091 219.209 83 217 83H189C186.791 83 185 81.2091 185 79V51Z" fill="var(--sol-surface)"/>
<path d="M195.768 70.6527V68.1942H197.018V70.6527C197.018 70.8768 197.018 71.0075 197.026 71.1035C197.029 71.1453 197.033 71.1682 197.036 71.1784C197.048 71.2007 197.066 71.2187 197.089 71.2313C197.098 71.2335 197.121 71.2383 197.164 71.2419C197.26 71.2497 197.391 71.25 197.615 71.25H208.92C209.145 71.25 209.275 71.2497 209.371 71.2419C209.413 71.2384 209.436 71.2335 209.446 71.2313C209.469 71.2188 209.487 71.2007 209.499 71.1784C209.501 71.1683 209.506 71.1456 209.51 71.1035C209.518 71.0075 209.518 70.8768 209.518 70.6527V68.1942H210.768V70.6527C210.768 70.8562 210.769 71.0465 210.756 71.2052C210.745 71.3297 210.725 71.4654 210.676 71.6032L210.616 71.7415C210.5 71.9701 210.323 72.1615 210.105 72.2949L210.009 72.3486C209.825 72.4426 209.639 72.4742 209.473 72.4878C209.314 72.5007 209.124 72.5 208.92 72.5H197.615C197.412 72.5 197.221 72.5007 197.063 72.4878C196.938 72.4776 196.802 72.4571 196.665 72.408L196.526 72.3486C196.265 72.2155 196.052 72.0029 195.919 71.7415C195.825 71.5571 195.794 71.3712 195.78 71.2052C195.767 71.0465 195.768 70.8562 195.768 70.6527ZM202.643 57.5H203.893V67.3104L207.851 63.3521L208.735 64.2358L203.71 69.2611C203.466 69.5051 203.07 69.5051 202.826 69.2611L197.801 64.2358L198.684 63.3521L202.643 67.3104V57.5Z" fill="var(--sol-element-primary)"/>
</g>
<path d="M189 47.5H217C218.933 47.5 220.5 49.067 220.5 51V79C220.5 80.933 218.933 82.5 217 82.5H189C187.067 82.5 185.5 80.933 185.5 79V51C185.5 49.067 187.067 47.5 189 47.5Z" stroke="var(--sol-element-primary)" stroke-opacity="0.16"/>
<path d="M221 65C221 55.0589 229.059 47 239 47C248.941 47 257 55.0589 257 65C257 74.9411 248.941 83 239 83C229.059 83 221 74.9411 221 65Z" fill="var(--sol-surface)"/>
<path d="M239 47.5C248.665 47.5 256.5 55.335 256.5 65C256.5 74.665 248.665 82.5 239 82.5C229.335 82.5 221.5 74.665 221.5 65C221.5 55.335 229.335 47.5 239 47.5Z" stroke="var(--sol-element-primary)" stroke-opacity="0.16"/>
<path d="M238.226 65.625H231.976V64.375H238.226V58.125H239.476V64.375H245.726V65.625H239.476V71.875H238.226V65.625Z" fill="var(--sol-primary)"/>
<defs>
<clipPath id="clip0_1666_176424">
<path d="M185 51C185 48.7909 186.791 47 189 47H217C219.209 47 221 48.7909 221 51V79C221 81.2091 219.209 83 217 83H189C186.791 83 185 81.2091 185 79V51Z" fill="var(--sol-surface)"/>
</clipPath>
</defs>
</svg>
