<svg width="442" height="130" viewBox="0 0 442 130" fill="none" xmlns="http://www.w3.org/2000/svg">
<style>
:root {
  --sol-primary: #282363;
  --sol-fill-active: #4d469a;
  --sol-surface: #ffffff;
  --sol-element-primary: #161616;
  --sol-element-quaternary: #858585;
  --sol-error-dim: #b84451;
  --sol-static-white: #ffffff;
  --sol-static-black: #000000;
  --color-yellow-500: #d4ae00;
}
@media (prefers-color-scheme: dark) {
  :root {
    --sol-primary: #9791d4;
    --sol-fill-active: #7b74c4;
    --sol-surface: #161616;
    --sol-element-primary: #ffffff;
    --sol-element-quaternary: rgba(255, 255, 255, 0.5);
    --sol-error-dim: #e76067;
  }
}
</style>
<g clip-path="url(#clip0_1666_176404)">
<path d="M181 51C181 48.7909 182.791 47 185 47H213C215.209 47 217 48.7909 217 51V79C217 81.2091 215.209 83 213 83H185C182.791 83 181 81.2091 181 79V51Z" fill="var(--sol-surface)"/>
<path d="M191.768 70.6527V68.1942H193.018V70.6527C193.018 70.8768 193.018 71.0075 193.026 71.1035C193.029 71.1453 193.033 71.1682 193.036 71.1784C193.048 71.2007 193.066 71.2187 193.089 71.2313C193.098 71.2335 193.121 71.2383 193.164 71.2419C193.26 71.2497 193.391 71.25 193.615 71.25H204.92C205.145 71.25 205.275 71.2497 205.371 71.2419C205.413 71.2384 205.436 71.2335 205.446 71.2313C205.469 71.2188 205.487 71.2007 205.499 71.1784C205.501 71.1683 205.506 71.1456 205.51 71.1035C205.518 71.0075 205.518 70.8768 205.518 70.6527V68.1942H206.768V70.6527C206.768 70.8562 206.769 71.0465 206.756 71.2052C206.745 71.3297 206.725 71.4654 206.676 71.6032L206.616 71.7415C206.5 71.9701 206.323 72.1615 206.105 72.2949L206.009 72.3486C205.825 72.4426 205.639 72.4742 205.473 72.4878C205.314 72.5007 205.124 72.5 204.92 72.5H193.615C193.412 72.5 193.221 72.5007 193.063 72.4878C192.938 72.4776 192.802 72.4571 192.665 72.408L192.526 72.3486C192.265 72.2155 192.052 72.0029 191.919 71.7415C191.825 71.5571 191.794 71.3712 191.78 71.2052C191.767 71.0465 191.768 70.8562 191.768 70.6527ZM198.643 57.5H199.893V67.3104L203.851 63.3521L204.735 64.2358L199.71 69.2611C199.466 69.5051 199.07 69.5051 198.826 69.2611L193.801 64.2358L194.684 63.3521L198.643 67.3104V57.5Z" fill="var(--sol-element-primary)"/>
</g>
<path d="M185 47.5H213C214.933 47.5 216.5 49.067 216.5 51V79C216.5 80.933 214.933 82.5 213 82.5H185C183.067 82.5 181.5 80.933 181.5 79V51C181.5 49.067 183.067 47.5 185 47.5Z" stroke="var(--sol-element-primary)" stroke-opacity="0.16"/>
<g clip-path="url(#clip1_1666_176404)">
<path d="M225 51C225 48.7909 226.791 47 229 47H257C259.209 47 261 48.7909 261 51V79C261 81.2091 259.209 83 257 83H229C226.791 83 225 81.2091 225 79V51Z" fill="var(--sol-surface)"/>
<path d="M250.178 65.1446L250.114 65.7663L250.058 66.1838C249.732 68.1926 248.587 70.0498 246.767 71.1976L246.577 71.3132C243.374 73.1974 239.336 72.2721 237.213 69.2868L237.048 69.9183L236.889 70.5222L235.704 70.1983L236.332 67.8106L236.306 67.7642L236.352 67.7373L236.426 67.4525L236.446 67.3915C236.556 67.0954 236.87 66.9269 237.177 67.0106L239.872 67.7463L239.554 68.954L238.237 68.5934C240.005 71.0329 243.326 71.783 245.963 70.2308L246.275 70.0347C247.794 69.01 248.712 67.3742 248.894 65.6337L248.959 65.0127L250.178 65.1446ZM239.747 58.5064C242.893 56.8659 246.733 57.8274 248.786 60.7126L248.953 60.0811L249.112 59.4772L250.296 59.8011L250.138 60.405L249.667 62.1896L249.694 62.2352L249.649 62.2613L249.574 62.5469C249.532 62.707 249.429 62.8441 249.288 62.9269C249.147 63.0096 248.98 63.0316 248.823 62.9888L246.129 62.2531L246.446 61.0454L247.761 61.4043C246.053 59.048 242.895 58.2686 240.305 59.6197L240.037 59.7686C238.331 60.7723 237.3 62.5093 237.106 64.3657L237.04 64.9867L235.821 64.8548L235.886 64.2331L235.942 63.8156C236.279 61.7377 237.493 59.8224 239.424 58.6862L239.747 58.5064Z" fill="var(--sol-element-primary)"/>
</g>
<path d="M229 47.5H257C258.933 47.5 260.5 49.067 260.5 51V79C260.5 80.933 258.933 82.5 257 82.5H229C227.067 82.5 225.5 80.933 225.5 79V51C225.5 49.067 227.067 47.5 229 47.5Z" stroke="var(--sol-element-primary)" stroke-opacity="0.16"/>
<defs>
<clipPath id="clip0_1666_176404">
<path d="M181 51C181 48.7909 182.791 47 185 47H213C215.209 47 217 48.7909 217 51V79C217 81.2091 215.209 83 213 83H185C182.791 83 181 81.2091 181 79V51Z" fill="var(--sol-surface)"/>
</clipPath>
<clipPath id="clip1_1666_176404">
<path d="M225 51C225 48.7909 226.791 47 229 47H257C259.209 47 261 48.7909 261 51V79C261 81.2091 259.209 83 257 83H229C226.791 83 225 81.2091 225 79V51Z" fill="var(--sol-surface)"/>
</clipPath>
</defs>
</svg>
