<svg width="442" height="130" viewBox="0 0 442 130" fill="none" xmlns="http://www.w3.org/2000/svg">
<style>
:root {
  --sol-primary: #282363;
  --sol-fill-active: #4d469a;
  --sol-surface: #ffffff;
  --sol-element-primary: #161616;
  --sol-element-quaternary: #858585;
  --sol-error-dim: #b84451;
  --sol-static-white: #ffffff;
  --sol-static-black: #000000;
  --color-yellow-500: #d4ae00;
}
@media (prefers-color-scheme: dark) {
  :root {
    --sol-primary: #9791d4;
    --sol-fill-active: #7b74c4;
    --sol-surface: #161616;
    --sol-element-primary: #ffffff;
    --sol-element-quaternary: rgba(255, 255, 255, 0.5);
    --sol-error-dim: #e76067;
  }
}
</style>
<mask id="mask0_1666_176395" style="mask-type:alpha" maskUnits="userSpaceOnUse" x="177" y="53" width="24" height="24">
<path d="M187.974 56.3894C188.465 55.6814 189.535 55.6814 190.026 56.3894L190.123 56.5515L192.455 61.2312L197.675 61.9831C198.695 62.1299 199.124 63.3869 198.368 64.1159L194.595 67.7556L195.486 72.8962C195.666 73.9318 194.575 74.6857 193.67 74.2146L189 71.7829L184.33 74.2146C183.425 74.6857 182.334 73.9318 182.514 72.8962L183.404 67.7556L179.632 64.1159C178.877 63.3869 179.305 62.1299 180.325 61.9831L185.544 61.2312L187.877 56.5515L187.974 56.3894ZM186.829 62.0183C186.645 62.3877 186.29 62.6406 185.885 62.6989L181.045 63.3943L184.542 66.7702C184.839 67.0564 184.976 67.4715 184.905 67.8796L184.078 72.655L188.419 70.3952L188.559 70.3327C188.843 70.2262 189.157 70.2262 189.441 70.3327L189.581 70.3952L193.921 72.655L193.095 67.8796C193.024 67.4715 193.162 67.0564 193.458 66.7702L196.954 63.3943L192.115 62.6989C191.71 62.6406 191.355 62.3877 191.171 62.0183L189 57.6609L186.829 62.0183Z" fill="var(--sol-element-primary)"/>
</mask>
<g mask="url(#mask0_1666_176395)">
<rect x="171" y="47" width="36" height="36" fill="var(--sol-element-primary)"/>
</g>
<mask id="mask1_1666_176395" style="mask-type:alpha" maskUnits="userSpaceOnUse" x="241" y="53" width="24" height="24">
<path d="M252.549 56.8861C252.733 56.5155 253.267 56.5155 253.452 56.8861L255.843 61.6834C255.916 61.8305 256.058 61.9325 256.222 61.9561L261.568 62.7254C261.981 62.7848 262.146 63.2874 261.847 63.5759L257.979 67.31C257.86 67.4246 257.806 67.5896 257.834 67.7514L258.747 73.0241C258.818 73.4314 258.386 73.742 258.017 73.5497L253.234 71.0603C253.088 70.9839 252.912 70.9839 252.766 71.0603L247.984 73.5497C247.614 73.742 247.182 73.4314 247.253 73.0241L248.166 67.7514C248.194 67.5896 248.14 67.4246 248.022 67.31L244.153 63.5759C243.854 63.2874 244.019 62.7848 244.432 62.7254L249.778 61.9561C249.942 61.9325 250.084 61.8305 250.157 61.6834L252.549 56.8861Z" fill="var(--color-yellow-500)"/>
<path d="M251.974 56.3894C252.465 55.6814 253.535 55.6814 254.026 56.3894L254.123 56.5515L256.455 61.2312L261.675 61.9831C262.695 62.1299 263.124 63.3869 262.368 64.1159L258.595 67.7556L259.486 72.8962C259.666 73.9318 258.575 74.6857 257.67 74.2146L253 71.7829L248.33 74.2146C247.425 74.6857 246.334 73.9318 246.514 72.8962L247.404 67.7556L243.632 64.1159C242.877 63.3869 243.305 62.1299 244.325 61.9831L249.544 61.2312L251.877 56.5515L251.974 56.3894ZM250.829 62.0183C250.645 62.3877 250.29 62.6406 249.885 62.6989L245.045 63.3943L248.542 66.7702C248.839 67.0564 248.976 67.4715 248.905 67.8796L248.078 72.655L252.419 70.3952L252.559 70.3327C252.843 70.2262 253.157 70.2262 253.441 70.3327L253.581 70.3952L257.921 72.655L257.095 67.8796C257.024 67.4715 257.162 67.0564 257.458 66.7702L260.954 63.3943L256.115 62.6989C255.71 62.6406 255.355 62.3877 255.171 62.0183L253 57.6609L250.829 62.0183Z" fill="var(--color-yellow-500)"/>
</mask>
<g mask="url(#mask1_1666_176395)">
<rect x="235" y="47" width="36" height="36" fill="var(--sol-element-primary)"/>
</g>
</svg>
