<svg width="900" height="144" viewBox="0 0 900 144" fill="none" xmlns="http://www.w3.org/2000/svg">
<style>
:root {
  --sol-element-primary: #161616;
  --sol-element-secondary: #484848;
  --sol-element-tertiary: #636363;
  --sol-element-quaternary: #858585;
  --sol-fill-active: #4d469a;
  --sol-surface: #ffffff;
  --sol-border-normal-variant: rgba(0, 0, 0, 0.08);
  --sol-border-solid-variant: #e0e0e0;
  --sol-error: #e76067;
  --sol-static-white: #ffffff;
  --sol-static-black: #000000;
}
@media (prefers-color-scheme: dark) {
  :root {
    --sol-element-primary: #ffffff;
    --sol-element-secondary: rgba(255, 255, 255, 0.80);
    --sol-element-tertiary: rgba(255, 255, 255, 0.60);
    --sol-element-quaternary: rgba(255, 255, 255, 0.50);
    --sol-fill-active: #7b74c4;
    --sol-surface: #161616;
    --sol-border-normal-variant: rgba(255, 255, 255, 0.08);
    --sol-border-solid-variant: #3d3d3d;
    --sol-error: #ee7a80;
  }
}
</style>

<rect x="396" y="9" width="28" height="28" rx="14" fill="var(--sol-element-primary)"/>
<path d="M406.117 29V27.5312L410.117 23.6719C411.258 22.5312 411.852 21.8594 411.852 20.9062C411.852 19.8594 411.023 19.1875 409.914 19.1875C408.742 19.1875 407.992 19.9219 408.008 21.0625H406.07C406.055 18.9219 407.664 17.5312 409.93 17.5312C412.242 17.5312 413.805 18.9062 413.805 20.8125C413.805 22.0938 413.18 23.125 410.961 25.2188L408.945 27.2188V27.2969H413.977V29H406.117Z" fill="var(--sol-surface)"/>
<path d="M409.5 37H410.5V53.5C410.5 53.7761 410.276 54 410 54V54C409.724 54 409.5 53.7761 409.5 53.5V37Z" fill="var(--sol-element-primary)"/>
<circle cx="410" cy="52" r="2" fill="var(--sol-element-primary)"/>
<rect x="295.5" y="50" width="28" height="28" rx="14" fill="var(--sol-element-primary)"/>
<path d="M311.359 58.6875V70H309.312V60.6719H309.25L306.609 62.3594V60.5L309.406 58.6875H311.359Z" fill="var(--sol-surface)"/>
<path d="M323.5 63.5H363C363.276 63.5 363.5 63.7239 363.5 64V64C363.5 64.2761 363.276 64.5 363 64.5H323.5V63.5Z" fill="var(--sol-element-primary)"/>
<circle cx="361.5" cy="64" r="2" fill="var(--sol-element-primary)"/>
<path d="M463 83C463 82.7239 463.224 82.5 463.5 82.5H503V83.5H463.5C463.224 83.5 463 83.2761 463 83V83Z" fill="var(--sol-element-primary)"/>
<rect x="503" y="69" width="28" height="28" rx="14" fill="var(--sol-element-primary)"/>
<path d="M516.992 89.1562C514.57 89.1562 512.852 87.8438 512.805 85.9375H514.852C514.914 86.8438 515.82 87.4375 516.992 87.4375C518.242 87.4375 519.133 86.75 519.133 85.75C519.133 84.7344 518.258 84 516.789 84H515.773V82.4375H516.789C517.992 82.4375 518.836 81.7656 518.82 80.7812C518.836 79.8281 518.117 79.1875 517.008 79.1875C515.945 79.1875 515.023 79.7812 514.992 80.7344H513.039C513.086 78.8281 514.805 77.5312 517.023 77.5312C519.32 77.5312 520.805 78.9375 520.789 80.6719C520.805 81.9375 519.961 82.8594 518.727 83.1094V83.2031C520.32 83.4219 521.227 84.4375 521.211 85.8594C521.227 87.7656 519.445 89.1562 516.992 89.1562Z" fill="var(--sol-surface)"/>
<circle cx="465" cy="83" r="2" fill="var(--sol-element-primary)"/>
<g clip-path="url(#clip0_1670_180843)">
<path d="M373.334 64.0007C373.334 60.3188 376.319 57.334 380.001 57.334V57.334C383.683 57.334 386.667 60.3188 386.667 64.0007V64.0007C386.667 67.6825 383.683 70.6673 380.001 70.6673V70.6673C376.319 70.6673 373.334 67.6825 373.334 64.0007V64.0007Z" fill="var(--sol-fill-active)"/>
<circle cx="380.001" cy="64.0013" r="3.33333" fill="var(--sol-surface)"/>
</g>
<path d="M405.461 64.0508C405.461 67.1816 403.615 69.1367 401.086 69.1367C398.543 69.1367 396.711 67.1816 396.711 64.0508C396.711 60.9199 398.543 58.9648 401.086 58.9648C403.615 58.9648 405.461 60.9199 405.461 64.0508ZM404.271 64.0508C404.271 61.4941 402.877 60.1133 401.086 60.1133C399.295 60.1133 397.9 61.4941 397.9 64.0508C397.9 66.6074 399.295 67.9883 401.086 67.9883C402.877 67.9883 404.271 66.6074 404.271 64.0508ZM407.115 71.7891V61.5762H408.25V62.752H408.387C408.633 62.3555 409.098 61.4805 410.533 61.4805C412.393 61.4805 413.691 62.957 413.691 65.3086C413.691 67.6602 412.393 69.1504 410.547 69.1504C409.125 69.1504 408.633 68.2754 408.387 67.8652H408.291V71.7891H407.115ZM408.264 65.2812C408.264 66.9492 409.016 68.0977 410.383 68.0977C411.791 68.0977 412.516 66.8672 412.516 65.2812C412.516 63.7363 411.805 62.5332 410.383 62.5332C408.988 62.5332 408.264 63.6406 408.264 65.2812ZM418.463 61.5762V62.5605H416.904V66.8672C416.904 67.8242 417.369 67.9746 417.875 67.9746C418.094 67.9746 418.395 67.9609 418.572 67.9473V69.041C418.395 69.0684 418.094 69.0957 417.752 69.0957C416.768 69.0957 415.715 68.4805 415.715 67.168V62.5605H414.594V61.5762H415.715V59.7988H416.904V61.5762H418.463ZM419.98 69V61.5762H421.156V69H419.98ZM420.568 60.3457C420.117 60.3457 419.748 60.0039 419.748 59.5664C419.748 59.1289 420.117 58.7871 420.568 58.7871C421.02 58.7871 421.402 59.1289 421.402 59.5664C421.402 60.0039 421.02 60.3457 420.568 60.3457ZM426.064 69.1504C424.041 69.1504 422.674 67.6328 422.674 65.3223C422.674 63.0117 424.041 61.4805 426.064 61.4805C428.074 61.4805 429.428 63.0117 429.428 65.3223C429.428 67.6328 428.074 69.1504 426.064 69.1504ZM426.064 68.1113C427.555 68.1113 428.252 66.7988 428.252 65.3223C428.252 63.8457 427.555 62.5195 426.064 62.5195C424.547 62.5195 423.85 63.8457 423.85 65.3223C423.85 66.7988 424.547 68.1113 426.064 68.1113ZM432.148 64.543V69H430.973V61.5762H432.107V62.7383H432.203C432.559 61.9863 433.242 61.4805 434.377 61.4805C435.881 61.4805 436.879 62.3965 436.879 64.2832V69H435.703V64.3652C435.703 63.2168 435.074 62.5332 434.021 62.5332C432.941 62.5332 432.148 63.2578 432.148 64.543Z" fill="var(--sol-element-primary)"/>
<path d="M399.574 87H396.938V78.5156H399.68C402.152 78.5156 403.617 80.1094 403.617 82.7461C403.617 85.3945 402.152 87 399.574 87ZM397.992 86.0625H399.504C401.59 86.0625 402.586 84.8086 402.586 82.7461C402.586 80.6953 401.59 79.4531 399.609 79.4531H397.992V86.0625ZM407.707 87.1289C405.867 87.1289 404.73 85.8281 404.73 83.8711C404.73 81.9141 405.879 80.5547 407.613 80.5547C408.949 80.5547 410.355 81.375 410.355 83.7305V84.1523H405.738C405.785 85.5 406.57 86.2383 407.707 86.2383C408.469 86.2383 408.949 85.9102 409.184 85.5117H410.262C409.957 86.4727 409.02 87.1289 407.707 87.1289ZM405.75 83.2969H409.336C409.336 82.2305 408.656 81.4453 407.613 81.4453C406.512 81.4453 405.809 82.3125 405.75 83.2969ZM415.207 82.2891C415.066 81.7617 414.668 81.4102 413.918 81.4102C413.133 81.4102 412.57 81.832 412.57 82.3711C412.57 82.793 412.91 83.0859 413.66 83.2617L414.609 83.4961C415.746 83.7656 416.309 84.3281 416.309 85.2188C416.309 86.3203 415.406 87.1289 413.812 87.1289C412.383 87.1289 411.527 86.4961 411.363 85.3359H412.418C412.535 85.957 412.992 86.25 413.789 86.25C414.691 86.25 415.266 85.875 415.266 85.2773C415.266 84.832 414.949 84.5273 414.223 84.3633L413.262 84.1406C412.148 83.8828 411.562 83.2734 411.562 82.4297C411.562 81.3398 412.512 80.5547 413.918 80.5547C415.23 80.5547 416.062 81.2578 416.191 82.2891H415.207ZM420.223 87.1289C418.418 87.1289 417.316 85.7578 417.316 83.8477C417.316 81.9141 418.465 80.5547 420.199 80.5547C421.559 80.5547 422.566 81.3516 422.73 82.5586H421.723C421.582 81.9727 421.066 81.4453 420.223 81.4453C419.086 81.4453 418.324 82.3828 418.324 83.8125C418.324 85.2891 419.062 86.2266 420.223 86.2266C420.973 86.2266 421.547 85.8281 421.723 85.125H422.73C422.566 86.2617 421.641 87.1289 420.223 87.1289ZM423.973 87V80.6367H424.945V81.6094H425.016C425.25 80.9648 425.906 80.5312 426.656 80.5312C426.809 80.5312 427.066 80.543 427.184 80.5547V81.5742C427.113 81.5508 426.832 81.5039 426.574 81.5039C425.66 81.5039 424.98 82.1367 424.98 82.9922V87H423.973ZM428.168 87V80.6367H429.176V87H428.168ZM428.672 79.582C428.285 79.582 427.969 79.2891 427.969 78.9141C427.969 78.5391 428.285 78.2461 428.672 78.2461C429.059 78.2461 429.387 78.5391 429.387 78.9141C429.387 79.2891 429.059 79.582 428.672 79.582ZM430.781 89.3906V80.6367H431.754V81.6445H431.871C432.082 81.3047 432.48 80.5547 433.711 80.5547C435.305 80.5547 436.418 81.8203 436.418 83.8359C436.418 85.8516 435.305 87.1289 433.723 87.1289C432.504 87.1289 432.082 86.3789 431.871 86.0273H431.789V89.3906H430.781ZM431.766 83.8125C431.766 85.2422 432.41 86.2266 433.582 86.2266C434.789 86.2266 435.41 85.1719 435.41 83.8125C435.41 82.4883 434.801 81.457 433.582 81.457C432.387 81.457 431.766 82.4062 431.766 83.8125ZM440.508 80.6367V81.4805H439.172V85.1719C439.172 85.9922 439.57 86.1211 440.004 86.1211C440.191 86.1211 440.449 86.1094 440.602 86.0977V87.0352C440.449 87.0586 440.191 87.082 439.898 87.082C439.055 87.082 438.152 86.5547 438.152 85.4297V81.4805H437.191V80.6367H438.152V79.1133H439.172V80.6367H440.508ZM441.809 87V80.6367H442.816V87H441.809ZM442.312 79.582C441.926 79.582 441.609 79.2891 441.609 78.9141C441.609 78.5391 441.926 78.2461 442.312 78.2461C442.699 78.2461 443.027 78.5391 443.027 78.9141C443.027 79.2891 442.699 79.582 442.312 79.582ZM447.023 87.1289C445.289 87.1289 444.117 85.8281 444.117 83.8477C444.117 81.8672 445.289 80.5547 447.023 80.5547C448.746 80.5547 449.906 81.8672 449.906 83.8477C449.906 85.8281 448.746 87.1289 447.023 87.1289ZM447.023 86.2383C448.301 86.2383 448.898 85.1133 448.898 83.8477C448.898 82.582 448.301 81.4453 447.023 81.4453C445.723 81.4453 445.125 82.582 445.125 83.8477C445.125 85.1133 445.723 86.2383 447.023 86.2383ZM452.238 83.1797V87H451.23V80.6367H452.203V81.6328H452.285C452.59 80.9883 453.176 80.5547 454.148 80.5547C455.438 80.5547 456.293 81.3398 456.293 82.957V87H455.285V83.0273C455.285 82.043 454.746 81.457 453.844 81.457C452.918 81.457 452.238 82.0781 452.238 83.1797Z" fill="var(--sol-element-tertiary)"/>
<defs>
<clipPath id="clip0_1670_180843">
<path d="M373.334 64.0007C373.334 60.3188 376.319 57.334 380.001 57.334V57.334C383.683 57.334 386.667 60.3188 386.667 64.0007V64.0007C386.667 67.6825 383.683 70.6673 380.001 70.6673V70.6673C376.319 70.6673 373.334 67.6825 373.334 64.0007V64.0007Z" fill="var(--sol-surface)"/>
</clipPath>
</defs>
</svg>
