<svg width="900" height="528" viewBox="0 0 900 528" fill="none" xmlns="http://www.w3.org/2000/svg">
<style>
:root {
  --sol-element-primary: #161616;
  --sol-element-tertiary: #636363;
  --sol-element-quaternary: #858585;
  --sol-fill-active: #4d469a;
  --sol-surface: #ffffff;
  --sol-error: #e76067;
  --sol-error-dim: #b84451;
  --sol-static-white: #ffffff;
  --sol-static-black: #000000;
}
@media (prefers-color-scheme: dark) {
  :root {
    --sol-element-primary: #ffffff;
    --sol-element-tertiary: rgba(255, 255, 255, 0.6);
    --sol-element-quaternary: rgba(255, 255, 255, 0.5);
    --sol-fill-active: #7b74c4;
    --sol-surface: #161616;
    --sol-error: #ee7a80;
    --sol-error-dim: #e76067;
  }
}
</style>
<path d="M48.916 75V65.1016H55.3555V66.5918H50.6934V69.2988H55.0137V70.7891H50.6934V73.4961H55.3828V75H48.916ZM58.7324 70.6523V75H56.9824V67.5762H58.6504V68.834H58.7461C59.0879 68 59.8398 67.4805 60.9473 67.4805C62.4922 67.4805 63.5039 68.4922 63.4902 70.2695V75H61.7539V70.543C61.7539 69.5449 61.2207 68.957 60.3047 68.957C59.375 68.957 58.7324 69.5723 58.7324 70.6523ZM64.8164 72.9082C64.8164 71.2402 66.1973 70.748 67.5781 70.666C68.0908 70.6318 69.1572 70.5703 69.4785 70.5566V69.9688C69.4785 69.2305 69 68.8066 68.1387 68.8066C67.3594 68.8066 66.8809 69.1621 66.7441 69.6953H65.0625C65.1855 68.4375 66.3203 67.4805 68.1797 67.4805C69.5879 67.4805 71.2148 68.0547 71.2148 70.0371V75H69.5469V73.9746H69.4922C69.1641 74.6035 68.4668 75.1504 67.3047 75.1504C65.8828 75.1504 64.8164 74.3711 64.8164 72.9082ZM66.498 72.8945C66.498 73.5371 67.0176 73.8652 67.7559 73.8652C68.8086 73.8652 69.4922 73.168 69.4922 72.334V71.7188L67.8516 71.8281C67.0176 71.8965 66.498 72.2383 66.498 72.8945ZM72.9375 75V65.1016H74.6875V68.793H74.7559C75.0293 68.2598 75.5625 67.4805 76.875 67.4805C78.5977 67.4805 79.9512 68.8203 79.9512 71.2949C79.9512 73.7422 78.625 75.1367 76.8887 75.1367C75.6035 75.1367 75.0293 74.3711 74.7559 73.8242H74.6465V75H72.9375ZM74.6465 71.2812C74.6465 72.7305 75.2754 73.7012 76.3965 73.7012C77.5586 73.7012 78.1738 72.6895 78.1738 71.2812C78.1738 69.9004 77.5723 68.9023 76.3965 68.9023C75.2754 68.9023 74.6465 69.8457 74.6465 71.2812ZM83.0684 65.1016V75H81.3184V65.1016H83.0684ZM88.0312 75.1504C85.7891 75.1504 84.4219 73.6602 84.4219 71.3359C84.4219 69.0391 85.8164 67.4805 87.9355 67.4805C89.7539 67.4805 91.3262 68.6152 91.3262 71.2266V71.7734H86.1445C86.165 73.0381 86.9102 73.7832 88.0449 73.7832C88.8105 73.7832 89.3301 73.4551 89.5488 73.0176H91.2578C90.9434 74.3027 89.7539 75.1504 88.0312 75.1504ZM86.1582 70.584H89.6582C89.6445 69.5723 88.9746 68.834 87.9629 68.834C86.9102 68.834 86.2129 69.6338 86.1582 70.584ZM95.4414 75.1367C93.6914 75.1367 92.3789 73.7422 92.3789 71.2949C92.3789 68.8203 93.7324 67.4805 95.4551 67.4805C96.7676 67.4805 97.3145 68.2598 97.5742 68.793H97.6426V65.1016H99.3789V75H97.6699V73.8242H97.5742C97.3008 74.3711 96.7266 75.1367 95.4414 75.1367ZM95.9199 73.7012C97.041 73.7012 97.6836 72.7305 97.6836 71.2812C97.6836 69.8457 97.0547 68.9023 95.9199 68.9023C94.7578 68.9023 94.1562 69.9004 94.1562 71.2812C94.1562 72.6895 94.7715 73.7012 95.9199 73.7012Z" fill="var(--sol-element-quaternary)"/>
<path d="M231.334 64.0007C231.334 60.3188 234.319 57.334 238.001 57.334V57.334C241.683 57.334 244.667 60.3188 244.667 64.0007V64.0007C244.667 67.6825 241.683 70.6673 238.001 70.6673V70.6673C234.319 70.6673 231.334 67.6825 231.334 64.0007V64.0007Z" fill="var(--sol-surface)"/>
<path d="M238.001 57.834C241.407 57.8342 244.167 60.5953 244.167 64.001C244.167 67.4065 241.406 70.1668 238.001 70.167C234.595 70.167 231.834 67.4066 231.834 64.001C231.834 60.5952 234.595 57.834 238.001 57.834Z" stroke="var(--sol-element-primary)" stroke-opacity="0.16"/>
<path d="M255.094 69V59.1016H256.324V67.9062H260.918V69H255.094ZM262.053 66.8945C262.053 65.1855 263.557 64.8027 264.842 64.707C265.313 64.6729 266.517 64.6113 266.852 64.5977V63.9961C266.852 63.0527 266.291 62.5059 265.17 62.5059C264.227 62.5059 263.666 62.9434 263.502 63.5039H262.271C262.422 62.3145 263.584 61.4805 265.225 61.4805C266.195 61.4805 268.014 61.7676 268.014 64.1055V69H266.852V67.9883H266.797C266.551 68.4941 265.867 69.1777 264.582 69.1777C263.174 69.1777 262.053 68.3438 262.053 66.8945ZM263.229 66.9492C263.229 67.7285 263.885 68.125 264.787 68.125C266.113 68.125 266.852 67.2363 266.852 66.3066V65.5547L264.979 65.6914C263.912 65.7598 263.229 66.1426 263.229 66.9492ZM270.051 69V59.1016H271.227V62.752H271.322C271.582 62.3555 272.02 61.4805 273.469 61.4805C275.328 61.4805 276.641 62.957 276.641 65.3086C276.641 67.6602 275.328 69.1504 273.482 69.1504C272.061 69.1504 271.582 68.2754 271.322 67.8652H271.186V69H270.051ZM271.199 65.2812C271.199 66.9492 271.951 68.0977 273.305 68.0977C274.713 68.0977 275.451 66.8672 275.451 65.2812C275.451 63.7363 274.74 62.5332 273.305 62.5332C271.938 62.5332 271.199 63.6406 271.199 65.2812ZM281.289 69.1504C279.143 69.1504 277.816 67.6328 277.816 65.3496C277.816 63.0664 279.156 61.4805 281.18 61.4805C282.738 61.4805 284.379 62.4375 284.379 65.1855V65.6777H278.992C279.047 67.25 279.963 68.1113 281.289 68.1113C282.178 68.1113 282.738 67.7285 283.012 67.2637H284.27C283.914 68.3848 282.82 69.1504 281.289 69.1504ZM279.006 64.6797H283.189C283.189 63.4355 282.396 62.5195 281.18 62.5195C279.895 62.5195 279.074 63.5312 279.006 64.6797ZM287.086 59.1016V69H285.91V59.1016H287.086Z" fill="var(--sol-element-primary)"/>
<g clip-path="url(#clip0_1670_177800)">
<path d="M451.334 64.0007C451.334 60.3188 454.319 57.334 458.001 57.334V57.334C461.683 57.334 464.667 60.3188 464.667 64.0007V64.0007C464.667 67.6825 461.683 70.6673 458.001 70.6673V70.6673C454.319 70.6673 451.334 67.6825 451.334 64.0007V64.0007Z" fill="var(--sol-fill-active)"/>
<circle cx="458.001" cy="64.0013" r="3.33333" fill="var(--sol-surface)"/>
</g>
<path d="M475.094 69V59.1016H476.324V67.9062H480.918V69H475.094ZM482.053 66.8945C482.053 65.1855 483.557 64.8027 484.842 64.707C485.313 64.6729 486.517 64.6113 486.852 64.5977V63.9961C486.852 63.0527 486.291 62.5059 485.17 62.5059C484.227 62.5059 483.666 62.9434 483.502 63.5039H482.271C482.422 62.3145 483.584 61.4805 485.225 61.4805C486.195 61.4805 488.014 61.7676 488.014 64.1055V69H486.852V67.9883H486.797C486.551 68.4941 485.867 69.1777 484.582 69.1777C483.174 69.1777 482.053 68.3438 482.053 66.8945ZM483.229 66.9492C483.229 67.7285 483.885 68.125 484.787 68.125C486.113 68.125 486.852 67.2363 486.852 66.3066V65.5547L484.979 65.6914C483.912 65.7598 483.229 66.1426 483.229 66.9492ZM490.051 69V59.1016H491.227V62.752H491.322C491.582 62.3555 492.02 61.4805 493.469 61.4805C495.328 61.4805 496.641 62.957 496.641 65.3086C496.641 67.6602 495.328 69.1504 493.482 69.1504C492.061 69.1504 491.582 68.2754 491.322 67.8652H491.186V69H490.051ZM491.199 65.2812C491.199 66.9492 491.951 68.0977 493.305 68.0977C494.713 68.0977 495.451 66.8672 495.451 65.2812C495.451 63.7363 494.74 62.5332 493.305 62.5332C491.938 62.5332 491.199 63.6406 491.199 65.2812ZM501.289 69.1504C499.143 69.1504 497.816 67.6328 497.816 65.3496C497.816 63.0664 499.156 61.4805 501.18 61.4805C502.738 61.4805 504.379 62.4375 504.379 65.1855V65.6777H498.992C499.047 67.25 499.963 68.1113 501.289 68.1113C502.178 68.1113 502.738 67.7285 503.012 67.2637H504.27C503.914 68.3848 502.82 69.1504 501.289 69.1504ZM499.006 64.6797H503.189C503.189 63.4355 502.396 62.5195 501.18 62.5195C499.895 62.5195 499.074 63.5312 499.006 64.6797ZM507.086 59.1016V69H505.91V59.1016H507.086Z" fill="var(--sol-element-primary)"/>
<path d="M48.916 155V145.102H50.6934V149.299H55.3008V145.102H57.0918V155H55.3008V150.789H50.6934V155H48.916ZM62.082 155.15C59.9219 155.15 58.5273 153.619 58.5273 151.322C58.5273 149.012 59.9219 147.48 62.082 147.48C64.2559 147.48 65.6367 149.012 65.6367 151.322C65.6367 153.619 64.2559 155.15 62.082 155.15ZM62.0957 153.756C63.2852 153.756 63.873 152.676 63.873 151.309C63.873 149.955 63.2852 148.861 62.0957 148.861C60.8789 148.861 60.291 149.955 60.291 151.309C60.291 152.676 60.8789 153.756 62.0957 153.756ZM73.375 147.576L70.7227 155H68.8086L66.1562 147.576H68.0156L69.7246 153.1H69.8066L71.5293 147.576H73.375ZM77.5176 155.15C75.2754 155.15 73.9082 153.66 73.9082 151.336C73.9082 149.039 75.3027 147.48 77.4219 147.48C79.2402 147.48 80.8125 148.615 80.8125 151.227V151.773H75.6309C75.6514 153.038 76.3965 153.783 77.5312 153.783C78.2969 153.783 78.8164 153.455 79.0352 153.018H80.7441C80.4297 154.303 79.2402 155.15 77.5176 155.15ZM75.6445 150.584H79.1445C79.1309 149.572 78.4609 148.834 77.4492 148.834C76.3965 148.834 75.6992 149.634 75.6445 150.584ZM82.166 155V147.576H83.8613V148.807H83.9434C84.2031 147.959 84.9277 147.467 85.7754 147.467C85.9668 147.467 86.2402 147.48 86.4043 147.508V149.121C86.2539 149.066 85.8848 149.012 85.5977 149.012C84.627 149.012 83.916 149.682 83.916 150.625V155H82.166Z" fill="var(--sol-element-quaternary)"/>
<path d="M231.334 144.001C231.334 140.319 234.319 137.334 238.001 137.334V137.334C241.683 137.334 244.667 140.319 244.667 144.001V144.001C244.667 147.683 241.683 150.667 238.001 150.667V150.667C234.319 150.667 231.334 147.683 231.334 144.001V144.001Z" fill="var(--sol-surface)"/>
<path d="M238.001 137.834C241.407 137.834 244.167 140.595 244.167 144.001C244.167 147.406 241.406 150.167 238.001 150.167C234.595 150.167 231.834 147.407 231.834 144.001C231.834 140.595 234.595 137.834 238.001 137.834Z" stroke="var(--sol-element-primary)" stroke-opacity="0.16"/>
<path d="M231.334 144.001C231.334 140.319 234.319 137.334 238.001 137.334V137.334C241.683 137.334 244.667 140.319 244.667 144.001V144.001C244.667 147.683 241.683 150.667 238.001 150.667V150.667C234.319 150.667 231.334 147.683 231.334 144.001V144.001Z" fill="var(--sol-element-primary)" fill-opacity="0.08"/>
<path d="M255.094 149V139.102H256.324V147.906H260.918V149H255.094ZM262.053 146.895C262.053 145.186 263.557 144.803 264.842 144.707C265.313 144.673 266.517 144.611 266.852 144.598V143.996C266.852 143.053 266.291 142.506 265.17 142.506C264.227 142.506 263.666 142.943 263.502 143.504H262.271C262.422 142.314 263.584 141.48 265.225 141.48C266.195 141.48 268.014 141.768 268.014 144.105V149H266.852V147.988H266.797C266.551 148.494 265.867 149.178 264.582 149.178C263.174 149.178 262.053 148.344 262.053 146.895ZM263.229 146.949C263.229 147.729 263.885 148.125 264.787 148.125C266.113 148.125 266.852 147.236 266.852 146.307V145.555L264.979 145.691C263.912 145.76 263.229 146.143 263.229 146.949ZM270.051 149V139.102H271.227V142.752H271.322C271.582 142.355 272.02 141.48 273.469 141.48C275.328 141.48 276.641 142.957 276.641 145.309C276.641 147.66 275.328 149.15 273.482 149.15C272.061 149.15 271.582 148.275 271.322 147.865H271.186V149H270.051ZM271.199 145.281C271.199 146.949 271.951 148.098 273.305 148.098C274.713 148.098 275.451 146.867 275.451 145.281C275.451 143.736 274.74 142.533 273.305 142.533C271.938 142.533 271.199 143.641 271.199 145.281ZM281.289 149.15C279.143 149.15 277.816 147.633 277.816 145.35C277.816 143.066 279.156 141.48 281.18 141.48C282.738 141.48 284.379 142.438 284.379 145.186V145.678H278.992C279.047 147.25 279.963 148.111 281.289 148.111C282.178 148.111 282.738 147.729 283.012 147.264H284.27C283.914 148.385 282.82 149.15 281.289 149.15ZM279.006 144.68H283.189C283.189 143.436 282.396 142.52 281.18 142.52C279.895 142.52 279.074 143.531 279.006 144.68ZM287.086 139.102V149H285.91V139.102H287.086Z" fill="var(--sol-element-primary)"/>
<g clip-path="url(#clip1_1670_177800)">
<path d="M451.334 144.001C451.334 140.319 454.319 137.334 458.001 137.334V137.334C461.683 137.334 464.667 140.319 464.667 144.001V144.001C464.667 147.683 461.683 150.667 458.001 150.667V150.667C454.319 150.667 451.334 147.683 451.334 144.001V144.001Z" fill="var(--sol-fill-active)"/>
<circle cx="458.001" cy="144.001" r="3.33333" fill="var(--sol-surface)"/>
<path d="M450.334 144.334C450.334 139.916 453.916 136.334 458.334 136.334V136.334C462.752 136.334 466.334 139.916 466.334 144.334V144.334C466.334 148.752 462.752 152.334 458.334 152.334V152.334C453.916 152.334 450.334 148.752 450.334 144.334V144.334Z" fill="var(--sol-surface)" fill-opacity="0.08"/>
</g>
<path d="M475.094 149V139.102H476.324V147.906H480.918V149H475.094ZM482.053 146.895C482.053 145.186 483.557 144.803 484.842 144.707C485.313 144.673 486.517 144.611 486.852 144.598V143.996C486.852 143.053 486.291 142.506 485.17 142.506C484.227 142.506 483.666 142.943 483.502 143.504H482.271C482.422 142.314 483.584 141.48 485.225 141.48C486.195 141.48 488.014 141.768 488.014 144.105V149H486.852V147.988H486.797C486.551 148.494 485.867 149.178 484.582 149.178C483.174 149.178 482.053 148.344 482.053 146.895ZM483.229 146.949C483.229 147.729 483.885 148.125 484.787 148.125C486.113 148.125 486.852 147.236 486.852 146.307V145.555L484.979 145.691C483.912 145.76 483.229 146.143 483.229 146.949ZM490.051 149V139.102H491.227V142.752H491.322C491.582 142.355 492.02 141.48 493.469 141.48C495.328 141.48 496.641 142.957 496.641 145.309C496.641 147.66 495.328 149.15 493.482 149.15C492.061 149.15 491.582 148.275 491.322 147.865H491.186V149H490.051ZM491.199 145.281C491.199 146.949 491.951 148.098 493.305 148.098C494.713 148.098 495.451 146.867 495.451 145.281C495.451 143.736 494.74 142.533 493.305 142.533C491.938 142.533 491.199 143.641 491.199 145.281ZM501.289 149.15C499.143 149.15 497.816 147.633 497.816 145.35C497.816 143.066 499.156 141.48 501.18 141.48C502.738 141.48 504.379 142.438 504.379 145.186V145.678H498.992C499.047 147.25 499.963 148.111 501.289 148.111C502.178 148.111 502.738 147.729 503.012 147.264H504.27C503.914 148.385 502.82 149.15 501.289 149.15ZM499.006 144.68H503.189C503.189 143.436 502.396 142.52 501.18 142.52C499.895 142.52 499.074 143.531 499.006 144.68ZM507.086 139.102V149H505.91V139.102H507.086Z" fill="var(--sol-element-primary)"/>
<path d="M48.916 235V225.102H52.6348C54.9043 225.102 56.1211 226.482 56.1211 228.383C56.1211 230.283 54.8906 231.65 52.6074 231.65H50.6934V235H48.916ZM50.6934 230.188H52.3613C53.7012 230.188 54.3027 229.436 54.3027 228.383C54.3027 227.316 53.7012 226.592 52.3613 226.592H50.6934V230.188ZM57.4746 235V227.576H59.1699V228.807H59.252C59.5117 227.959 60.2363 227.467 61.084 227.467C61.2754 227.467 61.5488 227.48 61.7129 227.508V229.121C61.5625 229.066 61.1934 229.012 60.9062 229.012C59.9355 229.012 59.2246 229.682 59.2246 230.625V235H57.4746ZM65.8145 235.15C63.5723 235.15 62.2051 233.66 62.2051 231.336C62.2051 229.039 63.5996 227.48 65.7188 227.48C67.5371 227.48 69.1094 228.615 69.1094 231.227V231.773H63.9277C63.9482 233.038 64.6934 233.783 65.8281 233.783C66.5938 233.783 67.1133 233.455 67.332 233.018H69.041C68.7266 234.303 67.5371 235.15 65.8145 235.15ZM63.9414 230.584H67.4414C67.4277 229.572 66.7578 228.834 65.7461 228.834C64.6934 228.834 63.9961 229.634 63.9414 230.584ZM74.6738 229.695C74.5645 229.135 74.0996 228.779 73.3613 228.779C72.6094 228.779 72.0625 229.148 72.0762 229.654C72.0625 230.037 72.377 230.324 73.1289 230.502L74.3867 230.762C75.7949 231.076 76.4648 231.719 76.4785 232.785C76.4648 234.18 75.248 235.15 73.3066 235.15C71.4199 235.15 70.2988 234.303 70.1211 232.881H71.8984C72.0078 233.51 72.5 233.824 73.3066 233.824C74.1406 233.824 74.7012 233.482 74.7012 232.936C74.7012 232.512 74.3594 232.238 73.6211 232.074L72.4316 231.814C71.0508 231.541 70.3398 230.816 70.3398 229.75C70.3398 228.383 71.5156 227.48 73.334 227.48C75.1113 227.48 76.2051 228.342 76.3281 229.695H74.6738ZM82.0156 229.695C81.9062 229.135 81.4414 228.779 80.7031 228.779C79.9512 228.779 79.4043 229.148 79.418 229.654C79.4043 230.037 79.7188 230.324 80.4707 230.502L81.7285 230.762C83.1367 231.076 83.8066 231.719 83.8203 232.785C83.8066 234.18 82.5898 235.15 80.6484 235.15C78.7617 235.15 77.6406 234.303 77.4629 232.881H79.2402C79.3496 233.51 79.8418 233.824 80.6484 233.824C81.4824 233.824 82.043 233.482 82.043 232.936C82.043 232.512 81.7012 232.238 80.9629 232.074L79.7734 231.814C78.3926 231.541 77.6816 230.816 77.6816 229.75C77.6816 228.383 78.8574 227.48 80.6758 227.48C82.4531 227.48 83.5469 228.342 83.6699 229.695H82.0156ZM88.4414 235.15C86.1992 235.15 84.832 233.66 84.832 231.336C84.832 229.039 86.2266 227.48 88.3457 227.48C90.1641 227.48 91.7363 228.615 91.7363 231.227V231.773H86.5547C86.5752 233.038 87.3203 233.783 88.4551 233.783C89.2207 233.783 89.7402 233.455 89.959 233.018H91.668C91.3535 234.303 90.1641 235.15 88.4414 235.15ZM86.5684 230.584H90.0684C90.0547 229.572 89.3848 228.834 88.373 228.834C87.3203 228.834 86.623 229.634 86.5684 230.584ZM95.8516 235.137C94.1016 235.137 92.7891 233.742 92.7891 231.295C92.7891 228.82 94.1426 227.48 95.8652 227.48C97.1777 227.48 97.7246 228.26 97.9844 228.793H98.0527V225.102H99.7891V235H98.0801V233.824H97.9844C97.7109 234.371 97.1367 235.137 95.8516 235.137ZM96.3301 233.701C97.4512 233.701 98.0938 232.73 98.0938 231.281C98.0938 229.846 97.4648 228.902 96.3301 228.902C95.168 228.902 94.5664 229.9 94.5664 231.281C94.5664 232.689 95.1816 233.701 96.3301 233.701Z" fill="var(--sol-element-quaternary)"/>
<path d="M231.334 224.001C231.334 220.319 234.319 217.334 238.001 217.334V217.334C241.683 217.334 244.667 220.319 244.667 224.001V224.001C244.667 227.683 241.683 230.667 238.001 230.667V230.667C234.319 230.667 231.334 227.683 231.334 224.001V224.001Z" fill="var(--sol-surface)"/>
<path d="M238.001 217.834C241.407 217.834 244.167 220.595 244.167 224.001C244.167 227.406 241.406 230.167 238.001 230.167C234.595 230.167 231.834 227.407 231.834 224.001C231.834 220.595 234.595 217.834 238.001 217.834Z" stroke="var(--sol-element-primary)" stroke-opacity="0.16"/>
<path d="M231.334 224.001C231.334 220.319 234.319 217.334 238.001 217.334V217.334C241.683 217.334 244.667 220.319 244.667 224.001V224.001C244.667 227.683 241.683 230.667 238.001 230.667V230.667C234.319 230.667 231.334 227.683 231.334 224.001V224.001Z" fill="var(--sol-element-primary)" fill-opacity="0.12"/>
<path d="M255.094 229V219.102H256.324V227.906H260.918V229H255.094ZM262.053 226.895C262.053 225.186 263.557 224.803 264.842 224.707C265.313 224.673 266.517 224.611 266.852 224.598V223.996C266.852 223.053 266.291 222.506 265.17 222.506C264.227 222.506 263.666 222.943 263.502 223.504H262.271C262.422 222.314 263.584 221.48 265.225 221.48C266.195 221.48 268.014 221.768 268.014 224.105V229H266.852V227.988H266.797C266.551 228.494 265.867 229.178 264.582 229.178C263.174 229.178 262.053 228.344 262.053 226.895ZM263.229 226.949C263.229 227.729 263.885 228.125 264.787 228.125C266.113 228.125 266.852 227.236 266.852 226.307V225.555L264.979 225.691C263.912 225.76 263.229 226.143 263.229 226.949ZM270.051 229V219.102H271.227V222.752H271.322C271.582 222.355 272.02 221.48 273.469 221.48C275.328 221.48 276.641 222.957 276.641 225.309C276.641 227.66 275.328 229.15 273.482 229.15C272.061 229.15 271.582 228.275 271.322 227.865H271.186V229H270.051ZM271.199 225.281C271.199 226.949 271.951 228.098 273.305 228.098C274.713 228.098 275.451 226.867 275.451 225.281C275.451 223.736 274.74 222.533 273.305 222.533C271.938 222.533 271.199 223.641 271.199 225.281ZM281.289 229.15C279.143 229.15 277.816 227.633 277.816 225.35C277.816 223.066 279.156 221.48 281.18 221.48C282.738 221.48 284.379 222.438 284.379 225.186V225.678H278.992C279.047 227.25 279.963 228.111 281.289 228.111C282.178 228.111 282.738 227.729 283.012 227.264H284.27C283.914 228.385 282.82 229.15 281.289 229.15ZM279.006 224.68H283.189C283.189 223.436 282.396 222.52 281.18 222.52C279.895 222.52 279.074 223.531 279.006 224.68ZM287.086 219.102V229H285.91V219.102H287.086Z" fill="var(--sol-element-primary)"/>
<g clip-path="url(#clip2_1670_177800)">
<path d="M451.334 224.001C451.334 220.319 454.319 217.334 458.001 217.334V217.334C461.683 217.334 464.667 220.319 464.667 224.001V224.001C464.667 227.683 461.683 230.667 458.001 230.667V230.667C454.319 230.667 451.334 227.683 451.334 224.001V224.001Z" fill="var(--sol-fill-active)"/>
<circle cx="458.001" cy="224.001" r="3.33333" fill="var(--sol-surface)"/>
<path d="M450.334 224.334C450.334 219.916 453.916 216.334 458.334 216.334V216.334C462.752 216.334 466.334 219.916 466.334 224.334V224.334C466.334 228.752 462.752 232.334 458.334 232.334V232.334C453.916 232.334 450.334 228.752 450.334 224.334V224.334Z" fill="var(--sol-surface)" fill-opacity="0.12"/>
</g>
<path d="M475.094 229V219.102H476.324V227.906H480.918V229H475.094ZM482.053 226.895C482.053 225.186 483.557 224.803 484.842 224.707C485.313 224.673 486.517 224.611 486.852 224.598V223.996C486.852 223.053 486.291 222.506 485.17 222.506C484.227 222.506 483.666 222.943 483.502 223.504H482.271C482.422 222.314 483.584 221.48 485.225 221.48C486.195 221.48 488.014 221.768 488.014 224.105V229H486.852V227.988H486.797C486.551 228.494 485.867 229.178 484.582 229.178C483.174 229.178 482.053 228.344 482.053 226.895ZM483.229 226.949C483.229 227.729 483.885 228.125 484.787 228.125C486.113 228.125 486.852 227.236 486.852 226.307V225.555L484.979 225.691C483.912 225.76 483.229 226.143 483.229 226.949ZM490.051 229V219.102H491.227V222.752H491.322C491.582 222.355 492.02 221.48 493.469 221.48C495.328 221.48 496.641 222.957 496.641 225.309C496.641 227.66 495.328 229.15 493.482 229.15C492.061 229.15 491.582 228.275 491.322 227.865H491.186V229H490.051ZM491.199 225.281C491.199 226.949 491.951 228.098 493.305 228.098C494.713 228.098 495.451 226.867 495.451 225.281C495.451 223.736 494.74 222.533 493.305 222.533C491.938 222.533 491.199 223.641 491.199 225.281ZM501.289 229.15C499.143 229.15 497.816 227.633 497.816 225.35C497.816 223.066 499.156 221.48 501.18 221.48C502.738 221.48 504.379 222.438 504.379 225.186V225.678H498.992C499.047 227.25 499.963 228.111 501.289 228.111C502.178 228.111 502.738 227.729 503.012 227.264H504.27C503.914 228.385 502.82 229.15 501.289 229.15ZM499.006 224.68H503.189C503.189 223.436 502.396 222.52 501.18 222.52C499.895 222.52 499.074 223.531 499.006 224.68ZM507.086 219.102V229H505.91V219.102H507.086Z" fill="var(--sol-element-primary)"/>
<path d="M48.916 315V305.102H55.2598V306.592H50.6934V309.299H54.8223V310.789H50.6934V315H48.916ZM59.3887 315.15C57.2285 315.15 55.834 313.619 55.834 311.322C55.834 309.012 57.2285 307.48 59.3887 307.48C61.5625 307.48 62.9434 309.012 62.9434 311.322C62.9434 313.619 61.5625 315.15 59.3887 315.15ZM59.4023 313.756C60.5918 313.756 61.1797 312.676 61.1797 311.309C61.1797 309.955 60.5918 308.861 59.4023 308.861C58.1855 308.861 57.5977 309.955 57.5977 311.309C57.5977 312.676 58.1855 313.756 59.4023 313.756ZM67.5371 315.15C65.3223 315.15 63.9824 313.564 63.9824 311.322C63.9824 309.053 65.3633 307.48 67.5371 307.48C69.3418 307.48 70.5996 308.533 70.7227 310.133H69.0547C68.918 309.422 68.3984 308.875 67.5508 308.875C66.4707 308.875 65.7461 309.791 65.7461 311.281C65.7461 312.812 66.457 313.729 67.5508 313.729C68.3301 313.729 68.9043 313.277 69.0547 312.471H70.7227C70.5859 314.043 69.3965 315.15 67.5371 315.15ZM76.7793 311.883V307.576H78.5156V315H76.834V313.688H76.752C76.4102 314.508 75.6309 315.096 74.5234 315.096C73.0605 315.096 72.0488 314.084 72.0352 312.307V307.576H73.7852V312.033C73.7852 312.977 74.3457 313.578 75.1934 313.578C75.959 313.578 76.7793 313.018 76.7793 311.883ZM84.3945 309.695C84.2852 309.135 83.8203 308.779 83.082 308.779C82.3301 308.779 81.7832 309.148 81.7969 309.654C81.7832 310.037 82.0977 310.324 82.8496 310.502L84.1074 310.762C85.5156 311.076 86.1855 311.719 86.1992 312.785C86.1855 314.18 84.9688 315.15 83.0273 315.15C81.1406 315.15 80.0195 314.303 79.8418 312.881H81.6191C81.7285 313.51 82.2207 313.824 83.0273 313.824C83.8613 313.824 84.4219 313.482 84.4219 312.936C84.4219 312.512 84.0801 312.238 83.3418 312.074L82.1523 311.814C80.7715 311.541 80.0605 310.816 80.0605 309.75C80.0605 308.383 81.2363 307.48 83.0547 307.48C84.832 307.48 85.9258 308.342 86.0488 309.695H84.3945ZM90.8203 315.15C88.5781 315.15 87.2109 313.66 87.2109 311.336C87.2109 309.039 88.6055 307.48 90.7246 307.48C92.543 307.48 94.1152 308.615 94.1152 311.227V311.773H88.9336C88.9541 313.038 89.6992 313.783 90.834 313.783C91.5996 313.783 92.1191 313.455 92.3379 313.018H94.0469C93.7324 314.303 92.543 315.15 90.8203 315.15ZM88.9473 310.584H92.4473C92.4336 309.572 91.7637 308.834 90.752 308.834C89.6992 308.834 89.002 309.634 88.9473 310.584ZM98.2305 315.137C96.4805 315.137 95.168 313.742 95.168 311.295C95.168 308.82 96.5215 307.48 98.2441 307.48C99.5566 307.48 100.104 308.26 100.363 308.793H100.432V305.102H102.168V315H100.459V313.824H100.363C100.09 314.371 99.5156 315.137 98.2305 315.137ZM98.709 313.701C99.8301 313.701 100.473 312.73 100.473 311.281C100.473 309.846 99.8438 308.902 98.709 308.902C97.5469 308.902 96.9453 309.9 96.9453 311.281C96.9453 312.689 97.5605 313.701 98.709 313.701Z" fill="var(--sol-element-quaternary)"/>
<g filter="url(#filter0_dd_1670_177800)">
<path d="M231.334 304.001C231.334 300.319 234.319 297.334 238.001 297.334V297.334C241.683 297.334 244.667 300.319 244.667 304.001V304.001C244.667 307.683 241.683 310.667 238.001 310.667V310.667C234.319 310.667 231.334 307.683 231.334 304.001V304.001Z" fill="var(--sol-surface)"/>
<path d="M238.001 297.834C241.407 297.834 244.167 300.595 244.167 304.001C244.167 307.406 241.406 310.167 238.001 310.167C234.595 310.167 231.834 307.407 231.834 304.001C231.834 300.595 234.595 297.834 238.001 297.834Z" stroke="var(--sol-element-primary)" stroke-opacity="0.16"/>
</g>
<path d="M255.094 309V299.102H256.324V307.906H260.918V309H255.094ZM262.053 306.895C262.053 305.186 263.557 304.803 264.842 304.707C265.313 304.673 266.517 304.611 266.852 304.598V303.996C266.852 303.053 266.291 302.506 265.17 302.506C264.227 302.506 263.666 302.943 263.502 303.504H262.271C262.422 302.314 263.584 301.48 265.225 301.48C266.195 301.48 268.014 301.768 268.014 304.105V309H266.852V307.988H266.797C266.551 308.494 265.867 309.178 264.582 309.178C263.174 309.178 262.053 308.344 262.053 306.895ZM263.229 306.949C263.229 307.729 263.885 308.125 264.787 308.125C266.113 308.125 266.852 307.236 266.852 306.307V305.555L264.979 305.691C263.912 305.76 263.229 306.143 263.229 306.949ZM270.051 309V299.102H271.227V302.752H271.322C271.582 302.355 272.02 301.48 273.469 301.48C275.328 301.48 276.641 302.957 276.641 305.309C276.641 307.66 275.328 309.15 273.482 309.15C272.061 309.15 271.582 308.275 271.322 307.865H271.186V309H270.051ZM271.199 305.281C271.199 306.949 271.951 308.098 273.305 308.098C274.713 308.098 275.451 306.867 275.451 305.281C275.451 303.736 274.74 302.533 273.305 302.533C271.938 302.533 271.199 303.641 271.199 305.281ZM281.289 309.15C279.143 309.15 277.816 307.633 277.816 305.35C277.816 303.066 279.156 301.48 281.18 301.48C282.738 301.48 284.379 302.438 284.379 305.186V305.678H278.992C279.047 307.25 279.963 308.111 281.289 308.111C282.178 308.111 282.738 307.729 283.012 307.264H284.27C283.914 308.385 282.82 309.15 281.289 309.15ZM279.006 304.68H283.189C283.189 303.436 282.396 302.52 281.18 302.52C279.895 302.52 279.074 303.531 279.006 304.68ZM287.086 299.102V309H285.91V299.102H287.086Z" fill="var(--sol-element-primary)"/>
<g filter="url(#filter1_dd_1670_177800)">
<path d="M451.334 304.001C451.334 300.319 454.319 297.334 458.001 297.334V297.334C461.683 297.334 464.667 300.319 464.667 304.001V304.001C464.667 307.683 461.683 310.667 458.001 310.667V310.667C454.319 310.667 451.334 307.683 451.334 304.001V304.001Z" fill="var(--sol-fill-active)"/>
<circle cx="458.001" cy="304.001" r="3.33333" fill="var(--sol-surface)"/>
</g>
<path d="M475.094 309V299.102H476.324V307.906H480.918V309H475.094ZM482.053 306.895C482.053 305.186 483.557 304.803 484.842 304.707C485.313 304.673 486.517 304.611 486.852 304.598V303.996C486.852 303.053 486.291 302.506 485.17 302.506C484.227 302.506 483.666 302.943 483.502 303.504H482.271C482.422 302.314 483.584 301.48 485.225 301.48C486.195 301.48 488.014 301.768 488.014 304.105V309H486.852V307.988H486.797C486.551 308.494 485.867 309.178 484.582 309.178C483.174 309.178 482.053 308.344 482.053 306.895ZM483.229 306.949C483.229 307.729 483.885 308.125 484.787 308.125C486.113 308.125 486.852 307.236 486.852 306.307V305.555L484.979 305.691C483.912 305.76 483.229 306.143 483.229 306.949ZM490.051 309V299.102H491.227V302.752H491.322C491.582 302.355 492.02 301.48 493.469 301.48C495.328 301.48 496.641 302.957 496.641 305.309C496.641 307.66 495.328 309.15 493.482 309.15C492.061 309.15 491.582 308.275 491.322 307.865H491.186V309H490.051ZM491.199 305.281C491.199 306.949 491.951 308.098 493.305 308.098C494.713 308.098 495.451 306.867 495.451 305.281C495.451 303.736 494.74 302.533 493.305 302.533C491.938 302.533 491.199 303.641 491.199 305.281ZM501.289 309.15C499.143 309.15 497.816 307.633 497.816 305.35C497.816 303.066 499.156 301.48 501.18 301.48C502.738 301.48 504.379 302.438 504.379 305.186V305.678H498.992C499.047 307.25 499.963 308.111 501.289 308.111C502.178 308.111 502.738 307.729 503.012 307.264H504.27C503.914 308.385 502.82 309.15 501.289 309.15ZM499.006 304.68H503.189C503.189 303.436 502.396 302.52 501.18 302.52C499.895 302.52 499.074 303.531 499.006 304.68ZM507.086 299.102V309H505.91V299.102H507.086Z" fill="var(--sol-element-primary)"/>
<path d="M48.916 395V385.102H55.3555V386.592H50.6934V389.299H55.0137V390.789H50.6934V393.496H55.3828V395H48.916ZM56.9824 395V387.576H58.6777V388.807H58.7598C59.0195 387.959 59.7441 387.467 60.5918 387.467C60.7832 387.467 61.0566 387.48 61.2207 387.508V389.121C61.0703 389.066 60.7012 389.012 60.4141 389.012C59.4434 389.012 58.7324 389.682 58.7324 390.625V395H56.9824ZM62.2598 395V387.576H63.9551V388.807H64.0371C64.2969 387.959 65.0215 387.467 65.8691 387.467C66.0605 387.467 66.334 387.48 66.498 387.508V389.121C66.3477 389.066 65.9785 389.012 65.6914 389.012C64.7207 389.012 64.0098 389.682 64.0098 390.625V395H62.2598ZM70.5449 395.15C68.3848 395.15 66.9902 393.619 66.9902 391.322C66.9902 389.012 68.3848 387.48 70.5449 387.48C72.7188 387.48 74.0996 389.012 74.0996 391.322C74.0996 393.619 72.7188 395.15 70.5449 395.15ZM70.5586 393.756C71.748 393.756 72.3359 392.676 72.3359 391.309C72.3359 389.955 71.748 388.861 70.5586 388.861C69.3418 388.861 68.7539 389.955 68.7539 391.309C68.7539 392.676 69.3418 393.756 70.5586 393.756ZM75.4531 395V387.576H77.1484V388.807H77.2305C77.4902 387.959 78.2148 387.467 79.0625 387.467C79.2539 387.467 79.5273 387.48 79.6914 387.508V389.121C79.541 389.066 79.1719 389.012 78.8848 389.012C77.9141 389.012 77.2031 389.682 77.2031 390.625V395H75.4531Z" fill="var(--sol-element-quaternary)"/>
<g clip-path="url(#clip3_1670_177800)">
</g>
<path d="M238.001 377.834C241.407 377.834 244.167 380.595 244.167 384.001C244.167 387.406 241.406 390.167 238.001 390.167C234.595 390.167 231.834 387.407 231.834 384.001C231.834 380.595 234.595 377.834 238.001 377.834Z" stroke="var(--sol-error-dim)"/>
<path d="M255.094 389V379.102H256.324V387.906H260.918V389H255.094ZM262.053 386.895C262.053 385.186 263.557 384.803 264.842 384.707C265.313 384.673 266.517 384.611 266.852 384.598V383.996C266.852 383.053 266.291 382.506 265.17 382.506C264.227 382.506 263.666 382.943 263.502 383.504H262.271C262.422 382.314 263.584 381.48 265.225 381.48C266.195 381.48 268.014 381.768 268.014 384.105V389H266.852V387.988H266.797C266.551 388.494 265.867 389.178 264.582 389.178C263.174 389.178 262.053 388.344 262.053 386.895ZM263.229 386.949C263.229 387.729 263.885 388.125 264.787 388.125C266.113 388.125 266.852 387.236 266.852 386.307V385.555L264.979 385.691C263.912 385.76 263.229 386.143 263.229 386.949ZM270.051 389V379.102H271.227V382.752H271.322C271.582 382.355 272.02 381.48 273.469 381.48C275.328 381.48 276.641 382.957 276.641 385.309C276.641 387.66 275.328 389.15 273.482 389.15C272.061 389.15 271.582 388.275 271.322 387.865H271.186V389H270.051ZM271.199 385.281C271.199 386.949 271.951 388.098 273.305 388.098C274.713 388.098 275.451 386.867 275.451 385.281C275.451 383.736 274.74 382.533 273.305 382.533C271.938 382.533 271.199 383.641 271.199 385.281ZM281.289 389.15C279.143 389.15 277.816 387.633 277.816 385.35C277.816 383.066 279.156 381.48 281.18 381.48C282.738 381.48 284.379 382.438 284.379 385.186V385.678H278.992C279.047 387.25 279.963 388.111 281.289 388.111C282.178 388.111 282.738 387.729 283.012 387.264H284.27C283.914 388.385 282.82 389.15 281.289 389.15ZM279.006 384.68H283.189C283.189 383.436 282.396 382.52 281.18 382.52C279.895 382.52 279.074 383.531 279.006 384.68ZM287.086 379.102V389H285.91V379.102H287.086Z" fill="var(--sol-element-primary)"/>
<g clip-path="url(#clip4_1670_177800)">
<path d="M451.334 384.001C451.334 380.319 454.319 377.334 458.001 377.334V377.334C461.683 377.334 464.667 380.319 464.667 384.001V384.001C464.667 387.683 461.683 390.667 458.001 390.667V390.667C454.319 390.667 451.334 387.683 451.334 384.001V384.001Z" fill="var(--sol-error-dim)"/>
<circle cx="458.001" cy="384.001" r="3.33333" fill="var(--sol-surface)"/>
</g>
<path d="M475.094 389V379.102H476.324V387.906H480.918V389H475.094ZM482.053 386.895C482.053 385.186 483.557 384.803 484.842 384.707C485.313 384.673 486.517 384.611 486.852 384.598V383.996C486.852 383.053 486.291 382.506 485.17 382.506C484.227 382.506 483.666 382.943 483.502 383.504H482.271C482.422 382.314 483.584 381.48 485.225 381.48C486.195 381.48 488.014 381.768 488.014 384.105V389H486.852V387.988H486.797C486.551 388.494 485.867 389.178 484.582 389.178C483.174 389.178 482.053 388.344 482.053 386.895ZM483.229 386.949C483.229 387.729 483.885 388.125 484.787 388.125C486.113 388.125 486.852 387.236 486.852 386.307V385.555L484.979 385.691C483.912 385.76 483.229 386.143 483.229 386.949ZM490.051 389V379.102H491.227V382.752H491.322C491.582 382.355 492.02 381.48 493.469 381.48C495.328 381.48 496.641 382.957 496.641 385.309C496.641 387.66 495.328 389.15 493.482 389.15C492.061 389.15 491.582 388.275 491.322 387.865H491.186V389H490.051ZM491.199 385.281C491.199 386.949 491.951 388.098 493.305 388.098C494.713 388.098 495.451 386.867 495.451 385.281C495.451 383.736 494.74 382.533 493.305 382.533C491.938 382.533 491.199 383.641 491.199 385.281ZM501.289 389.15C499.143 389.15 497.816 387.633 497.816 385.35C497.816 383.066 499.156 381.48 501.18 381.48C502.738 381.48 504.379 382.438 504.379 385.186V385.678H498.992C499.047 387.25 499.963 388.111 501.289 388.111C502.178 388.111 502.738 387.729 503.012 387.264H504.27C503.914 388.385 502.82 389.15 501.289 389.15ZM499.006 384.68H503.189C503.189 383.436 502.396 382.52 501.18 382.52C499.895 382.52 499.074 383.531 499.006 384.68ZM507.086 379.102V389H505.91V379.102H507.086Z" fill="var(--sol-element-primary)"/>
<path d="M52.2793 475H48.916V465.102H52.334C55.2871 465.102 57.0781 466.961 57.0781 470.037C57.0781 473.127 55.2871 475 52.2793 475ZM50.6934 473.455H52.1836C54.248 473.455 55.3008 472.32 55.3008 470.037C55.3008 467.768 54.248 466.646 52.2383 466.646H50.6934V473.455ZM58.5684 475V467.576H60.3184V475H58.5684ZM59.457 466.523C58.9102 466.523 58.4453 466.1 58.4453 465.566C58.4453 465.047 58.9102 464.623 59.457 464.623C60.0176 464.623 60.4688 465.047 60.4688 465.566C60.4688 466.1 60.0176 466.523 59.457 466.523ZM66.1973 469.695C66.0879 469.135 65.623 468.779 64.8848 468.779C64.1328 468.779 63.5859 469.148 63.5996 469.654C63.5859 470.037 63.9004 470.324 64.6523 470.502L65.9102 470.762C67.3184 471.076 67.9883 471.719 68.002 472.785C67.9883 474.18 66.7715 475.15 64.8301 475.15C62.9434 475.15 61.8223 474.303 61.6445 472.881H63.4219C63.5312 473.51 64.0234 473.824 64.8301 473.824C65.6641 473.824 66.2246 473.482 66.2246 472.936C66.2246 472.512 65.8828 472.238 65.1445 472.074L63.9551 471.814C62.5742 471.541 61.8633 470.816 61.8633 469.75C61.8633 468.383 63.0391 467.48 64.8574 467.48C66.6348 467.48 67.7285 468.342 67.8516 469.695H66.1973ZM68.9863 472.908C68.9863 471.24 70.3672 470.748 71.748 470.666C72.2607 470.632 73.3271 470.57 73.6484 470.557V469.969C73.6484 469.23 73.1699 468.807 72.3086 468.807C71.5293 468.807 71.0508 469.162 70.9141 469.695H69.2324C69.3555 468.438 70.4902 467.48 72.3496 467.48C73.7578 467.48 75.3848 468.055 75.3848 470.037V475H73.7168V473.975H73.6621C73.334 474.604 72.6367 475.15 71.4746 475.15C70.0527 475.15 68.9863 474.371 68.9863 472.908ZM70.668 472.895C70.668 473.537 71.1875 473.865 71.9258 473.865C72.9785 473.865 73.6621 473.168 73.6621 472.334V471.719L72.0215 471.828C71.1875 471.896 70.668 472.238 70.668 472.895ZM77.1074 475V465.102H78.8574V468.793H78.9258C79.1992 468.26 79.7324 467.48 81.0449 467.48C82.7676 467.48 84.1211 468.82 84.1211 471.295C84.1211 473.742 82.7949 475.137 81.0586 475.137C79.7734 475.137 79.1992 474.371 78.9258 473.824H78.8164V475H77.1074ZM78.8164 471.281C78.8164 472.73 79.4453 473.701 80.5664 473.701C81.7285 473.701 82.3438 472.689 82.3438 471.281C82.3438 469.9 81.7422 468.902 80.5664 468.902C79.4453 468.902 78.8164 469.846 78.8164 471.281ZM87.2383 465.102V475H85.4883V465.102H87.2383ZM92.2012 475.15C89.959 475.15 88.5918 473.66 88.5918 471.336C88.5918 469.039 89.9863 467.48 92.1055 467.48C93.9238 467.48 95.4961 468.615 95.4961 471.227V471.773H90.3145C90.335 473.038 91.0801 473.783 92.2148 473.783C92.9805 473.783 93.5 473.455 93.7188 473.018H95.4277C95.1133 474.303 93.9238 475.15 92.2012 475.15ZM90.3281 470.584H93.8281C93.8145 469.572 93.1445 468.834 92.1328 468.834C91.0801 468.834 90.3828 469.634 90.3281 470.584ZM99.6113 475.137C97.8613 475.137 96.5488 473.742 96.5488 471.295C96.5488 468.82 97.9023 467.48 99.625 467.48C100.938 467.48 101.484 468.26 101.744 468.793H101.812V465.102H103.549V475H101.84V473.824H101.744C101.471 474.371 100.896 475.137 99.6113 475.137ZM100.09 473.701C101.211 473.701 101.854 472.73 101.854 471.281C101.854 469.846 101.225 468.902 100.09 468.902C98.9277 468.902 98.3262 469.9 98.3262 471.281C98.3262 472.689 98.9414 473.701 100.09 473.701Z" fill="var(--sol-element-quaternary)"/>
<path d="M231.334 464.001C231.334 460.319 234.319 457.334 238.001 457.334V457.334C241.683 457.334 244.667 460.319 244.667 464.001V464.001C244.667 467.683 241.683 470.667 238.001 470.667V470.667C234.319 470.667 231.334 467.683 231.334 464.001V464.001Z" fill="var(--sol-surface)"/>
<path d="M238.001 457.834C241.407 457.834 244.167 460.595 244.167 464.001C244.167 467.406 241.406 470.167 238.001 470.167C234.595 470.167 231.834 467.407 231.834 464.001C231.834 460.595 234.595 457.834 238.001 457.834Z" stroke="var(--sol-element-primary)" stroke-opacity="0.16"/>
<path d="M255.094 469V459.102H256.324V467.906H260.918V469H255.094ZM262.053 466.895C262.053 465.186 263.557 464.803 264.842 464.707C265.313 464.673 266.517 464.611 266.852 464.598V463.996C266.852 463.053 266.291 462.506 265.17 462.506C264.227 462.506 263.666 462.943 263.502 463.504H262.271C262.422 462.314 263.584 461.48 265.225 461.48C266.195 461.48 268.014 461.768 268.014 464.105V469H266.852V467.988H266.797C266.551 468.494 265.867 469.178 264.582 469.178C263.174 469.178 262.053 468.344 262.053 466.895ZM263.229 466.949C263.229 467.729 263.885 468.125 264.787 468.125C266.113 468.125 266.852 467.236 266.852 466.307V465.555L264.979 465.691C263.912 465.76 263.229 466.143 263.229 466.949ZM270.051 469V459.102H271.227V462.752H271.322C271.582 462.355 272.02 461.48 273.469 461.48C275.328 461.48 276.641 462.957 276.641 465.309C276.641 467.66 275.328 469.15 273.482 469.15C272.061 469.15 271.582 468.275 271.322 467.865H271.186V469H270.051ZM271.199 465.281C271.199 466.949 271.951 468.098 273.305 468.098C274.713 468.098 275.451 466.867 275.451 465.281C275.451 463.736 274.74 462.533 273.305 462.533C271.938 462.533 271.199 463.641 271.199 465.281ZM281.289 469.15C279.143 469.15 277.816 467.633 277.816 465.35C277.816 463.066 279.156 461.48 281.18 461.48C282.738 461.48 284.379 462.438 284.379 465.186V465.678H278.992C279.047 467.25 279.963 468.111 281.289 468.111C282.178 468.111 282.738 467.729 283.012 467.264H284.27C283.914 468.385 282.82 469.15 281.289 469.15ZM279.006 464.68H283.189C283.189 463.436 282.396 462.52 281.18 462.52C279.895 462.52 279.074 463.531 279.006 464.68ZM287.086 459.102V469H285.91V459.102H287.086Z" fill="var(--sol-element-primary)"/>
<path d="M451.334 464.001C451.334 460.319 454.319 457.334 458.001 457.334V457.334C461.683 457.334 464.667 460.319 464.667 464.001V464.001C464.667 467.683 461.683 470.667 458.001 470.667V470.667C454.319 470.667 451.334 467.683 451.334 464.001V464.001Z" fill="var(--sol-element-primary)" fill-opacity="0.08"/>
<path d="M458.001 457.834C461.407 457.834 464.167 460.595 464.167 464.001C464.167 467.406 461.406 470.167 458.001 470.167C454.595 470.167 451.834 467.407 451.834 464.001C451.834 460.595 454.595 457.834 458.001 457.834Z" stroke="var(--sol-element-primary)" stroke-opacity="0.04"/>
<circle cx="458.001" cy="464.001" r="3.33333" fill="var(--sol-surface)"/>
<path d="M475.094 469V459.102H476.324V467.906H480.918V469H475.094ZM482.053 466.895C482.053 465.186 483.557 464.803 484.842 464.707C485.313 464.673 486.517 464.611 486.852 464.598V463.996C486.852 463.053 486.291 462.506 485.17 462.506C484.227 462.506 483.666 462.943 483.502 463.504H482.271C482.422 462.314 483.584 461.48 485.225 461.48C486.195 461.48 488.014 461.768 488.014 464.105V469H486.852V467.988H486.797C486.551 468.494 485.867 469.178 484.582 469.178C483.174 469.178 482.053 468.344 482.053 466.895ZM483.229 466.949C483.229 467.729 483.885 468.125 484.787 468.125C486.113 468.125 486.852 467.236 486.852 466.307V465.555L484.979 465.691C483.912 465.76 483.229 466.143 483.229 466.949ZM490.051 469V459.102H491.227V462.752H491.322C491.582 462.355 492.02 461.48 493.469 461.48C495.328 461.48 496.641 462.957 496.641 465.309C496.641 467.66 495.328 469.15 493.482 469.15C492.061 469.15 491.582 468.275 491.322 467.865H491.186V469H490.051ZM491.199 465.281C491.199 466.949 491.951 468.098 493.305 468.098C494.713 468.098 495.451 466.867 495.451 465.281C495.451 463.736 494.74 462.533 493.305 462.533C491.938 462.533 491.199 463.641 491.199 465.281ZM501.289 469.15C499.143 469.15 497.816 467.633 497.816 465.35C497.816 463.066 499.156 461.48 501.18 461.48C502.738 461.48 504.379 462.438 504.379 465.186V465.678H498.992C499.047 467.25 499.963 468.111 501.289 468.111C502.178 468.111 502.738 467.729 503.012 467.264H504.27C503.914 468.385 502.82 469.15 501.289 469.15ZM499.006 464.68H503.189C503.189 463.436 502.396 462.52 501.18 462.52C499.895 462.52 499.074 463.531 499.006 464.68ZM507.086 459.102V469H505.91V459.102H507.086Z" fill="var(--sol-element-primary)"/>
<defs>
<filter id="filter0_dd_1670_177800" x="227.334" y="293.334" width="21.334" height="21.334" filterUnits="userSpaceOnUse" color-interpolation-filters="sRGB">
<feFlood flood-opacity="0" result="BackgroundImageFix"/>
<feColorMatrix in="SourceAlpha" type="matrix" values="0 0 0 0 0 0 0 0 0 0 0 0 0 0 0 0 0 0 127 0" result="hardAlpha"/>
<feMorphology radius="4" operator="dilate" in="SourceAlpha" result="effect1_dropShadow_1670_177800"/>
<feOffset/>
<feComposite in2="hardAlpha" operator="out"/>
<feColorMatrix type="matrix" values="0 0 0 0 0.156863 0 0 0 0 0.137255 0 0 0 0 0.388235 0 0 0 1 0"/>
<feBlend mode="normal" in2="BackgroundImageFix" result="effect1_dropShadow_1670_177800"/>
<feColorMatrix in="SourceAlpha" type="matrix" values="0 0 0 0 0 0 0 0 0 0 0 0 0 0 0 0 0 0 127 0" result="hardAlpha"/>
<feMorphology radius="2" operator="dilate" in="SourceAlpha" result="effect2_dropShadow_1670_177800"/>
<feOffset/>
<feComposite in2="hardAlpha" operator="out"/>
<feColorMatrix type="matrix" values="0 0 0 0 1 0 0 0 0 1 0 0 0 0 1 0 0 0 1 0"/>
<feBlend mode="normal" in2="effect1_dropShadow_1670_177800" result="effect2_dropShadow_1670_177800"/>
<feBlend mode="normal" in="SourceGraphic" in2="effect2_dropShadow_1670_177800" result="shape"/>
</filter>
<filter id="filter1_dd_1670_177800" x="447.334" y="293.334" width="21.334" height="21.334" filterUnits="userSpaceOnUse" color-interpolation-filters="sRGB">
<feFlood flood-opacity="0" result="BackgroundImageFix"/>
<feColorMatrix in="SourceAlpha" type="matrix" values="0 0 0 0 0 0 0 0 0 0 0 0 0 0 0 0 0 0 127 0" result="hardAlpha"/>
<feMorphology radius="4" operator="dilate" in="SourceAlpha" result="effect1_dropShadow_1670_177800"/>
<feOffset/>
<feComposite in2="hardAlpha" operator="out"/>
<feColorMatrix type="matrix" values="0 0 0 0 0.156863 0 0 0 0 0.137255 0 0 0 0 0.388235 0 0 0 1 0"/>
<feBlend mode="normal" in2="BackgroundImageFix" result="effect1_dropShadow_1670_177800"/>
<feColorMatrix in="SourceAlpha" type="matrix" values="0 0 0 0 0 0 0 0 0 0 0 0 0 0 0 0 0 0 127 0" result="hardAlpha"/>
<feMorphology radius="2" operator="dilate" in="SourceAlpha" result="effect2_dropShadow_1670_177800"/>
<feOffset/>
<feComposite in2="hardAlpha" operator="out"/>
<feColorMatrix type="matrix" values="0 0 0 0 1 0 0 0 0 1 0 0 0 0 1 0 0 0 1 0"/>
<feBlend mode="normal" in2="effect1_dropShadow_1670_177800" result="effect2_dropShadow_1670_177800"/>
<feBlend mode="normal" in="SourceGraphic" in2="effect2_dropShadow_1670_177800" result="shape"/>
</filter>
<clipPath id="clip0_1670_177800">
<path d="M451.334 64.0007C451.334 60.3188 454.319 57.334 458.001 57.334V57.334C461.683 57.334 464.667 60.3188 464.667 64.0007V64.0007C464.667 67.6825 461.683 70.6673 458.001 70.6673V70.6673C454.319 70.6673 451.334 67.6825 451.334 64.0007V64.0007Z" fill="var(--sol-surface)"/>
</clipPath>
<clipPath id="clip1_1670_177800">
<path d="M451.334 144.001C451.334 140.319 454.319 137.334 458.001 137.334V137.334C461.683 137.334 464.667 140.319 464.667 144.001V144.001C464.667 147.683 461.683 150.667 458.001 150.667V150.667C454.319 150.667 451.334 147.683 451.334 144.001V144.001Z" fill="var(--sol-surface)"/>
</clipPath>
<clipPath id="clip2_1670_177800">
<path d="M451.334 224.001C451.334 220.319 454.319 217.334 458.001 217.334V217.334C461.683 217.334 464.667 220.319 464.667 224.001V224.001C464.667 227.683 461.683 230.667 458.001 230.667V230.667C454.319 230.667 451.334 227.683 451.334 224.001V224.001Z" fill="var(--sol-surface)"/>
</clipPath>
<clipPath id="clip3_1670_177800">
<path d="M231.334 384.001C231.334 380.319 234.319 377.334 238.001 377.334V377.334C241.683 377.334 244.667 380.319 244.667 384.001V384.001C244.667 387.683 241.683 390.667 238.001 390.667V390.667C234.319 390.667 231.334 387.683 231.334 384.001V384.001Z" fill="var(--sol-surface)"/>
</clipPath>
<clipPath id="clip4_1670_177800">
<path d="M451.334 384.001C451.334 380.319 454.319 377.334 458.001 377.334V377.334C461.683 377.334 464.667 380.319 464.667 384.001V384.001C464.667 387.683 461.683 390.667 458.001 390.667V390.667C454.319 390.667 451.334 387.683 451.334 384.001V384.001Z" fill="var(--sol-surface)"/>
</clipPath>
</defs>
</svg>
