<svg width="442" height="130" viewBox="0 0 442 130" fill="none" xmlns="http://www.w3.org/2000/svg">
<style>
:root {
  --sol-element-primary: #161616;
  --sol-element-tertiary: #636363;
  --sol-element-quaternary: #858585;
  --sol-fill-active: #4d469a;
  --sol-surface: #ffffff;
  --sol-error: #e76067;
  --sol-error-dim: #b84451;
  --sol-static-white: #ffffff;
  --sol-static-black: #000000;
}
@media (prefers-color-scheme: dark) {
  :root {
    --sol-element-primary: #ffffff;
    --sol-element-tertiary: rgba(255, 255, 255, 0.6);
    --sol-element-quaternary: rgba(255, 255, 255, 0.5);
    --sol-fill-active: #7b74c4;
    --sol-surface: #161616;
    --sol-error: #ee7a80;
    --sol-error-dim: #e76067;
  }
}
</style>
<g clip-path="url(#clip0_1670_178418)">
<g clip-path="url(#clip1_1670_178418)">
<path d="M40 65C40 60.5817 43.5817 57 48 57V57C52.4183 57 56 60.5817 56 65V65C56 69.4183 52.4183 73 48 73V73C43.5817 73 40 69.4183 40 65V65Z" fill="var(--sol-fill-active)"/>
<circle cx="48" cy="65" r="4" fill="var(--sol-surface)"/>
</g>
<path d="M77.4609 65.0508C77.4609 68.1816 75.6152 70.1367 73.0859 70.1367C70.543 70.1367 68.7109 68.1816 68.7109 65.0508C68.7109 61.9199 70.543 59.9648 73.0859 59.9648C75.6152 59.9648 77.4609 61.9199 77.4609 65.0508ZM76.2715 65.0508C76.2715 62.4941 74.877 61.1133 73.0859 61.1133C71.2949 61.1133 69.9004 62.4941 69.9004 65.0508C69.9004 67.6074 71.2949 68.9883 73.0859 68.9883C74.877 68.9883 76.2715 67.6074 76.2715 65.0508ZM79.1152 72.7891V62.5762H80.25V63.752H80.3867C80.6328 63.3555 81.0977 62.4805 82.5332 62.4805C84.3926 62.4805 85.6914 63.957 85.6914 66.3086C85.6914 68.6602 84.3926 70.1504 82.5469 70.1504C81.125 70.1504 80.6328 69.2754 80.3867 68.8652H80.291V72.7891H79.1152ZM80.2637 66.2812C80.2637 67.9492 81.0156 69.0977 82.3828 69.0977C83.791 69.0977 84.5156 67.8672 84.5156 66.2812C84.5156 64.7363 83.8047 63.5332 82.3828 63.5332C80.9883 63.5332 80.2637 64.6406 80.2637 66.2812ZM90.4629 62.5762V63.5605H88.9043V67.8672C88.9043 68.8242 89.3691 68.9746 89.875 68.9746C90.0938 68.9746 90.3945 68.9609 90.5723 68.9473V70.041C90.3945 70.0684 90.0938 70.0957 89.752 70.0957C88.7676 70.0957 87.7148 69.4805 87.7148 68.168V63.5605H86.5938V62.5762H87.7148V60.7988H88.9043V62.5762H90.4629ZM91.9805 70V62.5762H93.1562V70H91.9805ZM92.5684 61.3457C92.1172 61.3457 91.748 61.0039 91.748 60.5664C91.748 60.1289 92.1172 59.7871 92.5684 59.7871C93.0195 59.7871 93.4023 60.1289 93.4023 60.5664C93.4023 61.0039 93.0195 61.3457 92.5684 61.3457ZM98.0645 70.1504C96.041 70.1504 94.6738 68.6328 94.6738 66.3223C94.6738 64.0117 96.041 62.4805 98.0645 62.4805C100.074 62.4805 101.428 64.0117 101.428 66.3223C101.428 68.6328 100.074 70.1504 98.0645 70.1504ZM98.0645 69.1113C99.5547 69.1113 100.252 67.7988 100.252 66.3223C100.252 64.8457 99.5547 63.5195 98.0645 63.5195C96.5469 63.5195 95.8496 64.8457 95.8496 66.3223C95.8496 67.7988 96.5469 69.1113 98.0645 69.1113ZM104.148 65.543V70H102.973V62.5762H104.107V63.7383H104.203C104.559 62.9863 105.242 62.4805 106.377 62.4805C107.881 62.4805 108.879 63.3965 108.879 65.2832V70H107.703V65.3652C107.703 64.2168 107.074 63.5332 106.021 63.5332C104.941 63.5332 104.148 64.2578 104.148 65.543ZM117.766 60.1016V70H116.521V61.3867H116.467L114.061 62.9863V61.7422L116.521 60.1016H117.766Z" fill="var(--sol-element-primary)"/>
<path d="M144 65C144 60.5817 147.582 57 152 57V57C156.418 57 160 60.5817 160 65V65C160 69.4183 156.418 73 152 73V73C147.582 73 144 69.4183 144 65V65Z" fill="var(--sol-surface)"/>
<path d="M152 57.5C156.142 57.5 159.5 60.8579 159.5 65C159.5 69.1421 156.142 72.5 152 72.5C147.858 72.5 144.5 69.1421 144.5 65C144.5 60.8579 147.858 57.5 152 57.5Z" stroke="var(--sol-element-primary)" stroke-opacity="0.16"/>
<path d="M181.461 65.0508C181.461 68.1816 179.615 70.1367 177.086 70.1367C174.543 70.1367 172.711 68.1816 172.711 65.0508C172.711 61.9199 174.543 59.9648 177.086 59.9648C179.615 59.9648 181.461 61.9199 181.461 65.0508ZM180.271 65.0508C180.271 62.4941 178.877 61.1133 177.086 61.1133C175.295 61.1133 173.9 62.4941 173.9 65.0508C173.9 67.6074 175.295 68.9883 177.086 68.9883C178.877 68.9883 180.271 67.6074 180.271 65.0508ZM183.115 72.7891V62.5762H184.25V63.752H184.387C184.633 63.3555 185.098 62.4805 186.533 62.4805C188.393 62.4805 189.691 63.957 189.691 66.3086C189.691 68.6602 188.393 70.1504 186.547 70.1504C185.125 70.1504 184.633 69.2754 184.387 68.8652H184.291V72.7891H183.115ZM184.264 66.2812C184.264 67.9492 185.016 69.0977 186.383 69.0977C187.791 69.0977 188.516 67.8672 188.516 66.2812C188.516 64.7363 187.805 63.5332 186.383 63.5332C184.988 63.5332 184.264 64.6406 184.264 66.2812ZM194.463 62.5762V63.5605H192.904V67.8672C192.904 68.8242 193.369 68.9746 193.875 68.9746C194.094 68.9746 194.395 68.9609 194.572 68.9473V70.041C194.395 70.0684 194.094 70.0957 193.752 70.0957C192.768 70.0957 191.715 69.4805 191.715 68.168V63.5605H190.594V62.5762H191.715V60.7988H192.904V62.5762H194.463ZM195.98 70V62.5762H197.156V70H195.98ZM196.568 61.3457C196.117 61.3457 195.748 61.0039 195.748 60.5664C195.748 60.1289 196.117 59.7871 196.568 59.7871C197.02 59.7871 197.402 60.1289 197.402 60.5664C197.402 61.0039 197.02 61.3457 196.568 61.3457ZM202.064 70.1504C200.041 70.1504 198.674 68.6328 198.674 66.3223C198.674 64.0117 200.041 62.4805 202.064 62.4805C204.074 62.4805 205.428 64.0117 205.428 66.3223C205.428 68.6328 204.074 70.1504 202.064 70.1504ZM202.064 69.1113C203.555 69.1113 204.252 67.7988 204.252 66.3223C204.252 64.8457 203.555 63.5195 202.064 63.5195C200.547 63.5195 199.85 64.8457 199.85 66.3223C199.85 67.7988 200.547 69.1113 202.064 69.1113ZM208.148 65.543V70H206.973V62.5762H208.107V63.7383H208.203C208.559 62.9863 209.242 62.4805 210.377 62.4805C211.881 62.4805 212.879 63.3965 212.879 65.2832V70H211.703V65.3652C211.703 64.2168 211.074 63.5332 210.021 63.5332C208.941 63.5332 208.148 64.2578 208.148 65.543ZM218.266 70L218.252 69.0977L221.629 65.543C222.805 64.2988 223.365 63.6289 223.365 62.7129C223.365 61.7012 222.504 61.0312 221.396 61.0312C220.221 61.0312 219.469 61.7832 219.469 62.8906H218.307C218.293 61.1406 219.646 59.9648 221.438 59.9648C223.229 59.9648 224.514 61.168 224.514 62.7129C224.514 63.8203 223.994 64.6816 222.244 66.4863L219.975 68.8242V68.9062H224.691V70H218.266Z" fill="var(--sol-element-primary)"/>
</g>
<defs>
<clipPath id="clip0_1670_178418">
<path d="M0 8C0 3.58172 3.58172 0 8 0H434C438.418 0 442 3.58172 442 8V122C442 126.418 438.418 130 434 130H8C3.58172 130 0 126.418 0 122V8Z" fill="var(--sol-surface)"/>
</clipPath>
<clipPath id="clip1_1670_178418">
<path d="M40 65C40 60.5817 43.5817 57 48 57V57C52.4183 57 56 60.5817 56 65V65C56 69.4183 52.4183 73 48 73V73C43.5817 73 40 69.4183 40 65V65Z" fill="var(--sol-surface)"/>
</clipPath>
</defs>
</svg>
