<svg width="442" height="200" viewBox="0 0 442 200" fill="none" xmlns="http://www.w3.org/2000/svg">
<style>
:root {
  --sol-element-primary: #161616;
  --sol-element-tertiary: #636363;
  --sol-element-quaternary: #858585;
  --sol-fill-active: #4d469a;
  --sol-surface: #ffffff;
  --sol-error: #e76067;
  --sol-error-dim: #b84451;
  --sol-static-white: #ffffff;
  --sol-static-black: #000000;
}
@media (prefers-color-scheme: dark) {
  :root {
    --sol-element-primary: #ffffff;
    --sol-element-tertiary: rgba(255, 255, 255, 0.6);
    --sol-element-quaternary: rgba(255, 255, 255, 0.5);
    --sol-fill-active: #7b74c4;
    --sol-surface: #161616;
    --sol-error: #ee7a80;
    --sol-error-dim: #e76067;
  }
}
</style>
<path d="M43.8477 35.1914C43.4238 33.9199 42.4531 33.1133 41.0449 33.1133C39.2949 33.1133 37.9004 34.4941 37.9004 37.0508C37.9004 39.6074 39.2949 40.9883 41.127 40.9883C42.8018 40.9883 43.9434 39.8672 43.9707 38.1172H41.3867V37.0371H45.1738V38.1035C45.1738 40.5645 43.4785 42.1367 41.127 42.1367C38.4883 42.1367 36.7109 40.1816 36.7109 37.0508C36.7109 33.9199 38.502 31.9648 41.0449 31.9648C43.1367 31.9648 44.75 33.2773 45.1191 35.1914H43.8477ZM46.8691 42V34.5762H48.0039V35.7109H48.0859C48.3594 34.959 49.125 34.4531 50 34.4531C50.1777 34.4531 50.4785 34.4668 50.6152 34.4805V35.6699C50.5332 35.6426 50.2051 35.5879 49.9043 35.5879C48.8379 35.5879 48.0449 36.3262 48.0449 37.3242V42H46.8691ZM54.5664 42.1504C52.543 42.1504 51.1758 40.6328 51.1758 38.3223C51.1758 36.0117 52.543 34.4805 54.5664 34.4805C56.5762 34.4805 57.9297 36.0117 57.9297 38.3223C57.9297 40.6328 56.5762 42.1504 54.5664 42.1504ZM54.5664 41.1113C56.0566 41.1113 56.7539 39.7988 56.7539 38.3223C56.7539 36.8457 56.0566 35.5195 54.5664 35.5195C53.0488 35.5195 52.3516 36.8457 52.3516 38.3223C52.3516 39.7988 53.0488 41.1113 54.5664 41.1113ZM64.1641 38.9512V34.5762H65.3262V42H64.1641V40.7422H64.082C63.7266 41.4941 63.002 42.0957 61.8809 42.0957C60.4727 42.0957 59.4746 41.1797 59.4746 39.293V34.5762H60.6504V39.2109C60.6504 40.2773 61.3203 40.9609 62.2637 40.9609C63.0977 40.9609 64.1641 40.332 64.1641 38.9512ZM67.2129 44.7891V34.5762H68.3477V35.752H68.4844C68.7305 35.3555 69.1953 34.4805 70.6309 34.4805C72.4902 34.4805 73.7891 35.957 73.7891 38.3086C73.7891 40.6602 72.4902 42.1504 70.6445 42.1504C69.2227 42.1504 68.7305 41.2754 68.4844 40.8652H68.3887V44.7891H67.2129ZM68.3613 38.2812C68.3613 39.9492 69.1133 41.0977 70.4805 41.0977C71.8887 41.0977 72.6133 39.8672 72.6133 38.2812C72.6133 36.7363 71.9023 35.5332 70.4805 35.5332C69.0859 35.5332 68.3613 36.6406 68.3613 38.2812ZM80.0098 32.1016V42H78.834V32.1016H80.0098ZM81.5273 39.8945C81.5273 38.1855 83.0312 37.8027 84.3164 37.707C84.7881 37.6729 85.9912 37.6113 86.3262 37.5977V36.9961C86.3262 36.0527 85.7656 35.5059 84.6445 35.5059C83.7012 35.5059 83.1406 35.9434 82.9766 36.5039H81.7461C81.8965 35.3145 83.0586 34.4805 84.6992 34.4805C85.6699 34.4805 87.4883 34.7676 87.4883 37.1055V42H86.3262V40.9883H86.2715C86.0254 41.4941 85.3418 42.1777 84.0566 42.1777C82.6484 42.1777 81.5273 41.3438 81.5273 39.8945ZM82.7031 39.9492C82.7031 40.7285 83.3594 41.125 84.2617 41.125C85.5879 41.125 86.3262 40.2363 86.3262 39.3066V38.5547L84.4531 38.6914C83.3867 38.7598 82.7031 39.1426 82.7031 39.9492ZM89.5254 42V32.1016H90.7012V35.752H90.7969C91.0566 35.3555 91.4941 34.4805 92.9434 34.4805C94.8027 34.4805 96.1152 35.957 96.1152 38.3086C96.1152 40.6602 94.8027 42.1504 92.957 42.1504C91.5352 42.1504 91.0566 41.2754 90.7969 40.8652H90.6602V42H89.5254ZM90.6738 38.2812C90.6738 39.9492 91.4258 41.0977 92.7793 41.0977C94.1875 41.0977 94.9258 39.8672 94.9258 38.2812C94.9258 36.7363 94.2148 35.5332 92.7793 35.5332C91.4121 35.5332 90.6738 36.6406 90.6738 38.2812ZM100.764 42.1504C98.6172 42.1504 97.291 40.6328 97.291 38.3496C97.291 36.0664 98.6309 34.4805 100.654 34.4805C102.213 34.4805 103.854 35.4375 103.854 38.1855V38.6777H98.4668C98.5215 40.25 99.4375 41.1113 100.764 41.1113C101.652 41.1113 102.213 40.7285 102.486 40.2637H103.744C103.389 41.3848 102.295 42.1504 100.764 42.1504ZM98.4805 37.6797H102.664C102.664 36.4355 101.871 35.5195 100.654 35.5195C99.3691 35.5195 98.5488 36.5312 98.4805 37.6797ZM106.561 32.1016V42H105.385V32.1016H106.561Z" fill="var(--sol-element-tertiary)"/>
<path d="M115.76 37.666H114.83L114.912 35.5469L113.107 36.6816L112.643 35.875L114.529 34.8906L112.643 33.8926L113.107 33.0859L114.912 34.2207L114.83 32.1016H115.76L115.678 34.2207L117.482 33.0859L117.947 33.8926L116.074 34.8906L117.947 35.875L117.482 36.6816L115.678 35.5469L115.76 37.666Z" fill="var(--sol-error)"/>
<g clip-path="url(#clip0_1670_178392)">
<g clip-path="url(#clip1_1670_178392)">
<path d="M39.334 70.9997C39.334 67.3178 42.3188 64.333 46.0007 64.333V64.333C49.6825 64.333 52.6673 67.3178 52.6673 70.9997V70.9997C52.6673 74.6816 49.6825 77.6663 46.0007 77.6663V77.6663C42.3188 77.6663 39.334 74.6816 39.334 70.9997V70.9997Z" fill="var(--sol-error-dim)"/>
<circle cx="46.0013" cy="70.9994" r="3.33333" fill="var(--sol-surface)"/>
</g>
<path d="M71.4609 71.0508C71.4609 74.1816 69.6152 76.1367 67.0859 76.1367C64.543 76.1367 62.7109 74.1816 62.7109 71.0508C62.7109 67.9199 64.543 65.9648 67.0859 65.9648C69.6152 65.9648 71.4609 67.9199 71.4609 71.0508ZM70.2715 71.0508C70.2715 68.4941 68.877 67.1133 67.0859 67.1133C65.2949 67.1133 63.9004 68.4941 63.9004 71.0508C63.9004 73.6074 65.2949 74.9883 67.0859 74.9883C68.877 74.9883 70.2715 73.6074 70.2715 71.0508ZM73.1152 78.7891V68.5762H74.25V69.752H74.3867C74.6328 69.3555 75.0977 68.4805 76.5332 68.4805C78.3926 68.4805 79.6914 69.957 79.6914 72.3086C79.6914 74.6602 78.3926 76.1504 76.5469 76.1504C75.125 76.1504 74.6328 75.2754 74.3867 74.8652H74.291V78.7891H73.1152ZM74.2637 72.2812C74.2637 73.9492 75.0156 75.0977 76.3828 75.0977C77.791 75.0977 78.5156 73.8672 78.5156 72.2812C78.5156 70.7363 77.8047 69.5332 76.3828 69.5332C74.9883 69.5332 74.2637 70.6406 74.2637 72.2812ZM84.4629 68.5762V69.5605H82.9043V73.8672C82.9043 74.8242 83.3691 74.9746 83.875 74.9746C84.0938 74.9746 84.3945 74.9609 84.5723 74.9473V76.041C84.3945 76.0684 84.0938 76.0957 83.752 76.0957C82.7676 76.0957 81.7148 75.4805 81.7148 74.168V69.5605H80.5938V68.5762H81.7148V66.7988H82.9043V68.5762H84.4629ZM85.9805 76V68.5762H87.1562V76H85.9805ZM86.5684 67.3457C86.1172 67.3457 85.748 67.0039 85.748 66.5664C85.748 66.1289 86.1172 65.7871 86.5684 65.7871C87.0195 65.7871 87.4023 66.1289 87.4023 66.5664C87.4023 67.0039 87.0195 67.3457 86.5684 67.3457ZM92.0645 76.1504C90.041 76.1504 88.6738 74.6328 88.6738 72.3223C88.6738 70.0117 90.041 68.4805 92.0645 68.4805C94.0742 68.4805 95.4277 70.0117 95.4277 72.3223C95.4277 74.6328 94.0742 76.1504 92.0645 76.1504ZM92.0645 75.1113C93.5547 75.1113 94.252 73.7988 94.252 72.3223C94.252 70.8457 93.5547 69.5195 92.0645 69.5195C90.5469 69.5195 89.8496 70.8457 89.8496 72.3223C89.8496 73.7988 90.5469 75.1113 92.0645 75.1113ZM98.1484 71.543V76H96.9727V68.5762H98.1074V69.7383H98.2031C98.5586 68.9863 99.2422 68.4805 100.377 68.4805C101.881 68.4805 102.879 69.3965 102.879 71.2832V76H101.703V71.3652C101.703 70.2168 101.074 69.5332 100.021 69.5332C98.9414 69.5332 98.1484 70.2578 98.1484 71.543Z" fill="var(--sol-element-primary)"/>
<path d="M39.334 103C39.334 99.3178 42.3188 96.333 46.0007 96.333V96.333C49.6825 96.333 52.6673 99.3178 52.6673 103V103C52.6673 106.682 49.6825 109.666 46.0007 109.666V109.666C42.3188 109.666 39.334 106.682 39.334 103V103Z" fill="var(--sol-surface)"/>
<path d="M46.001 96.833C49.4066 96.8332 52.167 99.5944 52.167 103C52.1668 106.405 49.4065 109.166 46.001 109.166C42.5953 109.166 39.8342 106.406 39.834 103C39.834 99.5942 42.5952 96.833 46.001 96.833Z" stroke="var(--sol-element-primary)" stroke-opacity="0.16"/>
<path d="M71.4609 103.051C71.4609 106.182 69.6152 108.137 67.0859 108.137C64.543 108.137 62.7109 106.182 62.7109 103.051C62.7109 99.9199 64.543 97.9648 67.0859 97.9648C69.6152 97.9648 71.4609 99.9199 71.4609 103.051ZM70.2715 103.051C70.2715 100.494 68.877 99.1133 67.0859 99.1133C65.2949 99.1133 63.9004 100.494 63.9004 103.051C63.9004 105.607 65.2949 106.988 67.0859 106.988C68.877 106.988 70.2715 105.607 70.2715 103.051ZM73.1152 110.789V100.576H74.25V101.752H74.3867C74.6328 101.355 75.0977 100.48 76.5332 100.48C78.3926 100.48 79.6914 101.957 79.6914 104.309C79.6914 106.66 78.3926 108.15 76.5469 108.15C75.125 108.15 74.6328 107.275 74.3867 106.865H74.291V110.789H73.1152ZM74.2637 104.281C74.2637 105.949 75.0156 107.098 76.3828 107.098C77.791 107.098 78.5156 105.867 78.5156 104.281C78.5156 102.736 77.8047 101.533 76.3828 101.533C74.9883 101.533 74.2637 102.641 74.2637 104.281ZM84.4629 100.576V101.561H82.9043V105.867C82.9043 106.824 83.3691 106.975 83.875 106.975C84.0938 106.975 84.3945 106.961 84.5723 106.947V108.041C84.3945 108.068 84.0938 108.096 83.752 108.096C82.7676 108.096 81.7148 107.48 81.7148 106.168V101.561H80.5938V100.576H81.7148V98.7988H82.9043V100.576H84.4629ZM85.9805 108V100.576H87.1562V108H85.9805ZM86.5684 99.3457C86.1172 99.3457 85.748 99.0039 85.748 98.5664C85.748 98.1289 86.1172 97.7871 86.5684 97.7871C87.0195 97.7871 87.4023 98.1289 87.4023 98.5664C87.4023 99.0039 87.0195 99.3457 86.5684 99.3457ZM92.0645 108.15C90.041 108.15 88.6738 106.633 88.6738 104.322C88.6738 102.012 90.041 100.48 92.0645 100.48C94.0742 100.48 95.4277 102.012 95.4277 104.322C95.4277 106.633 94.0742 108.15 92.0645 108.15ZM92.0645 107.111C93.5547 107.111 94.252 105.799 94.252 104.322C94.252 102.846 93.5547 101.52 92.0645 101.52C90.5469 101.52 89.8496 102.846 89.8496 104.322C89.8496 105.799 90.5469 107.111 92.0645 107.111ZM98.1484 103.543V108H96.9727V100.576H98.1074V101.738H98.2031C98.5586 100.986 99.2422 100.48 100.377 100.48C101.881 100.48 102.879 101.396 102.879 103.283V108H101.703V103.365C101.703 102.217 101.074 101.533 100.021 101.533C98.9414 101.533 98.1484 102.258 98.1484 103.543Z" fill="var(--sol-element-primary)"/>
<path d="M39.334 135C39.334 131.318 42.3188 128.333 46.0007 128.333V128.333C49.6825 128.333 52.6673 131.318 52.6673 135V135C52.6673 138.682 49.6825 141.666 46.0007 141.666V141.666C42.3188 141.666 39.334 138.682 39.334 135V135Z" fill="var(--sol-surface)"/>
<path d="M46.001 128.833C49.4066 128.833 52.167 131.594 52.167 135C52.1668 138.405 49.4065 141.166 46.001 141.166C42.5953 141.166 39.8342 138.406 39.834 135C39.834 131.594 42.5952 128.833 46.001 128.833Z" stroke="var(--sol-element-primary)" stroke-opacity="0.16"/>
<path d="M71.4609 135.051C71.4609 138.182 69.6152 140.137 67.0859 140.137C64.543 140.137 62.7109 138.182 62.7109 135.051C62.7109 131.92 64.543 129.965 67.0859 129.965C69.6152 129.965 71.4609 131.92 71.4609 135.051ZM70.2715 135.051C70.2715 132.494 68.877 131.113 67.0859 131.113C65.2949 131.113 63.9004 132.494 63.9004 135.051C63.9004 137.607 65.2949 138.988 67.0859 138.988C68.877 138.988 70.2715 137.607 70.2715 135.051ZM73.1152 142.789V132.576H74.25V133.752H74.3867C74.6328 133.355 75.0977 132.48 76.5332 132.48C78.3926 132.48 79.6914 133.957 79.6914 136.309C79.6914 138.66 78.3926 140.15 76.5469 140.15C75.125 140.15 74.6328 139.275 74.3867 138.865H74.291V142.789H73.1152ZM74.2637 136.281C74.2637 137.949 75.0156 139.098 76.3828 139.098C77.791 139.098 78.5156 137.867 78.5156 136.281C78.5156 134.736 77.8047 133.533 76.3828 133.533C74.9883 133.533 74.2637 134.641 74.2637 136.281ZM84.4629 132.576V133.561H82.9043V137.867C82.9043 138.824 83.3691 138.975 83.875 138.975C84.0938 138.975 84.3945 138.961 84.5723 138.947V140.041C84.3945 140.068 84.0938 140.096 83.752 140.096C82.7676 140.096 81.7148 139.48 81.7148 138.168V133.561H80.5938V132.576H81.7148V130.799H82.9043V132.576H84.4629ZM85.9805 140V132.576H87.1562V140H85.9805ZM86.5684 131.346C86.1172 131.346 85.748 131.004 85.748 130.566C85.748 130.129 86.1172 129.787 86.5684 129.787C87.0195 129.787 87.4023 130.129 87.4023 130.566C87.4023 131.004 87.0195 131.346 86.5684 131.346ZM92.0645 140.15C90.041 140.15 88.6738 138.633 88.6738 136.322C88.6738 134.012 90.041 132.48 92.0645 132.48C94.0742 132.48 95.4277 134.012 95.4277 136.322C95.4277 138.633 94.0742 140.15 92.0645 140.15ZM92.0645 139.111C93.5547 139.111 94.252 137.799 94.252 136.322C94.252 134.846 93.5547 133.52 92.0645 133.52C90.5469 133.52 89.8496 134.846 89.8496 136.322C89.8496 137.799 90.5469 139.111 92.0645 139.111ZM98.1484 135.543V140H96.9727V132.576H98.1074V133.738H98.2031C98.5586 132.986 99.2422 132.48 100.377 132.48C101.881 132.48 102.879 133.396 102.879 135.283V140H101.703V135.365C101.703 134.217 101.074 133.533 100.021 133.533C98.9414 133.533 98.1484 134.258 98.1484 135.543Z" fill="var(--sol-element-primary)"/>
</g>
<path d="M36.9375 170V161.516H39.8203C41.8125 161.516 42.7148 162.699 42.7148 164.211C42.7148 165.711 41.8125 166.918 39.832 166.918H37.9922V170H36.9375ZM37.9922 165.98H39.7852C41.1328 165.98 41.6719 165.219 41.6719 164.211C41.6719 163.191 41.1328 162.453 39.7734 162.453H37.9922V165.98ZM45.0703 161.516V170H44.0625V161.516H45.0703ZM49.3477 170.129C47.5078 170.129 46.3711 168.828 46.3711 166.871C46.3711 164.914 47.5195 163.555 49.2539 163.555C50.5898 163.555 51.9961 164.375 51.9961 166.73V167.152H47.3789C47.4258 168.5 48.2109 169.238 49.3477 169.238C50.1094 169.238 50.5898 168.91 50.8242 168.512H51.9023C51.5977 169.473 50.6602 170.129 49.3477 170.129ZM47.3906 166.297H50.9766C50.9766 165.23 50.2969 164.445 49.2539 164.445C48.1523 164.445 47.4492 165.312 47.3906 166.297ZM53.0039 168.195C53.0039 166.73 54.293 166.402 55.3945 166.32C55.7988 166.291 56.8301 166.238 57.1172 166.227V165.711C57.1172 164.902 56.6367 164.434 55.6758 164.434C54.8672 164.434 54.3867 164.809 54.2461 165.289H53.1914C53.3203 164.27 54.3164 163.555 55.7227 163.555C56.5547 163.555 58.1133 163.801 58.1133 165.805V170H57.1172V169.133H57.0703C56.8594 169.566 56.2734 170.152 55.1719 170.152C53.9648 170.152 53.0039 169.438 53.0039 168.195ZM54.0117 168.242C54.0117 168.91 54.5742 169.25 55.3477 169.25C56.4844 169.25 57.1172 168.488 57.1172 167.691V167.047L55.5117 167.164C54.5977 167.223 54.0117 167.551 54.0117 168.242ZM63.2695 165.289C63.1289 164.762 62.7305 164.41 61.9805 164.41C61.1953 164.41 60.6328 164.832 60.6328 165.371C60.6328 165.793 60.9727 166.086 61.7227 166.262L62.6719 166.496C63.8086 166.766 64.3711 167.328 64.3711 168.219C64.3711 169.32 63.4688 170.129 61.875 170.129C60.4453 170.129 59.5898 169.496 59.4258 168.336H60.4805C60.5977 168.957 61.0547 169.25 61.8516 169.25C62.7539 169.25 63.3281 168.875 63.3281 168.277C63.3281 167.832 63.0117 167.527 62.2852 167.363L61.3242 167.141C60.2109 166.883 59.625 166.273 59.625 165.43C59.625 164.34 60.5742 163.555 61.9805 163.555C63.293 163.555 64.125 164.258 64.2539 165.289H63.2695ZM68.3555 170.129C66.5156 170.129 65.3789 168.828 65.3789 166.871C65.3789 164.914 66.5273 163.555 68.2617 163.555C69.5977 163.555 71.0039 164.375 71.0039 166.73V167.152H66.3867C66.4336 168.5 67.2188 169.238 68.3555 169.238C69.1172 169.238 69.5977 168.91 69.832 168.512H70.9102C70.6055 169.473 69.668 170.129 68.3555 170.129ZM66.3984 166.297H69.9844C69.9844 165.23 69.3047 164.445 68.2617 164.445C67.1602 164.445 66.457 165.312 66.3984 166.297ZM78.8672 165.289C78.7266 164.762 78.3281 164.41 77.5781 164.41C76.793 164.41 76.2305 164.832 76.2305 165.371C76.2305 165.793 76.5703 166.086 77.3203 166.262L78.2695 166.496C79.4062 166.766 79.9688 167.328 79.9688 168.219C79.9688 169.32 79.0664 170.129 77.4727 170.129C76.043 170.129 75.1875 169.496 75.0234 168.336H76.0781C76.1953 168.957 76.6523 169.25 77.4492 169.25C78.3516 169.25 78.9258 168.875 78.9258 168.277C78.9258 167.832 78.6094 167.527 77.8828 167.363L76.9219 167.141C75.8086 166.883 75.2227 166.273 75.2227 165.43C75.2227 164.34 76.1719 163.555 77.5781 163.555C78.8906 163.555 79.7227 164.258 79.8516 165.289H78.8672ZM83.9531 170.129C82.1133 170.129 80.9766 168.828 80.9766 166.871C80.9766 164.914 82.125 163.555 83.8594 163.555C85.1953 163.555 86.6016 164.375 86.6016 166.73V167.152H81.9844C82.0312 168.5 82.8164 169.238 83.9531 169.238C84.7148 169.238 85.1953 168.91 85.4297 168.512H86.5078C86.2031 169.473 85.2656 170.129 83.9531 170.129ZM81.9961 166.297H85.582C85.582 165.23 84.9023 164.445 83.8594 164.445C82.7578 164.445 82.0547 165.312 81.9961 166.297ZM88.9219 161.516V170H87.9141V161.516H88.9219ZM93.1992 170.129C91.3594 170.129 90.2227 168.828 90.2227 166.871C90.2227 164.914 91.3711 163.555 93.1055 163.555C94.4414 163.555 95.8477 164.375 95.8477 166.73V167.152H91.2305C91.2773 168.5 92.0625 169.238 93.1992 169.238C93.9609 169.238 94.4414 168.91 94.6758 168.512H95.7539C95.4492 169.473 94.5117 170.129 93.1992 170.129ZM91.2422 166.297H94.8281C94.8281 165.23 94.1484 164.445 93.1055 164.445C92.0039 164.445 91.3008 165.312 91.2422 166.297ZM99.7617 170.129C97.957 170.129 96.8555 168.758 96.8555 166.848C96.8555 164.914 98.0039 163.555 99.7383 163.555C101.098 163.555 102.105 164.352 102.27 165.559H101.262C101.121 164.973 100.605 164.445 99.7617 164.445C98.625 164.445 97.8633 165.383 97.8633 166.812C97.8633 168.289 98.6016 169.227 99.7617 169.227C100.512 169.227 101.086 168.828 101.262 168.125H102.27C102.105 169.262 101.18 170.129 99.7617 170.129ZM106.289 163.637V164.48H104.953V168.172C104.953 168.992 105.352 169.121 105.785 169.121C105.973 169.121 106.23 169.109 106.383 169.098V170.035C106.23 170.059 105.973 170.082 105.68 170.082C104.836 170.082 103.934 169.555 103.934 168.43V164.48H102.973V163.637H103.934V162.113H104.953V163.637H106.289ZM110.297 168.195C110.297 166.73 111.586 166.402 112.688 166.32C113.092 166.291 114.123 166.238 114.41 166.227V165.711C114.41 164.902 113.93 164.434 112.969 164.434C112.16 164.434 111.68 164.809 111.539 165.289H110.484C110.613 164.27 111.609 163.555 113.016 163.555C113.848 163.555 115.406 163.801 115.406 165.805V170H114.41V169.133H114.363C114.152 169.566 113.566 170.152 112.465 170.152C111.258 170.152 110.297 169.438 110.297 168.195ZM111.305 168.242C111.305 168.91 111.867 169.25 112.641 169.25C113.777 169.25 114.41 168.488 114.41 167.691V167.047L112.805 167.164C111.891 167.223 111.305 167.551 111.305 168.242ZM118.031 166.18V170H117.023V163.637H117.996V164.633H118.078C118.383 163.988 118.969 163.555 119.941 163.555C121.23 163.555 122.086 164.34 122.086 165.957V170H121.078V166.027C121.078 165.043 120.539 164.457 119.637 164.457C118.711 164.457 118.031 165.078 118.031 166.18ZM129.316 170.129C127.582 170.129 126.41 168.828 126.41 166.848C126.41 164.867 127.582 163.555 129.316 163.555C131.039 163.555 132.199 164.867 132.199 166.848C132.199 168.828 131.039 170.129 129.316 170.129ZM129.316 169.238C130.594 169.238 131.191 168.113 131.191 166.848C131.191 165.582 130.594 164.445 129.316 164.445C128.016 164.445 127.418 165.582 127.418 166.848C127.418 168.113 128.016 169.238 129.316 169.238ZM133.523 172.391V163.637H134.496V164.645H134.613C134.824 164.305 135.223 163.555 136.453 163.555C138.047 163.555 139.16 164.82 139.16 166.836C139.16 168.852 138.047 170.129 136.465 170.129C135.246 170.129 134.824 169.379 134.613 169.027H134.531V172.391H133.523ZM134.508 166.812C134.508 168.242 135.152 169.227 136.324 169.227C137.531 169.227 138.152 168.172 138.152 166.812C138.152 165.488 137.543 164.457 136.324 164.457C135.129 164.457 134.508 165.406 134.508 166.812ZM143.25 163.637V164.48H141.914V168.172C141.914 168.992 142.312 169.121 142.746 169.121C142.934 169.121 143.191 169.109 143.344 169.098V170.035C143.191 170.059 142.934 170.082 142.641 170.082C141.797 170.082 140.895 169.555 140.895 168.43V164.48H139.934V163.637H140.895V162.113H141.914V163.637H143.25ZM144.551 170V163.637H145.559V170H144.551ZM145.055 162.582C144.668 162.582 144.352 162.289 144.352 161.914C144.352 161.539 144.668 161.246 145.055 161.246C145.441 161.246 145.77 161.539 145.77 161.914C145.77 162.289 145.441 162.582 145.055 162.582ZM149.766 170.129C148.031 170.129 146.859 168.828 146.859 166.848C146.859 164.867 148.031 163.555 149.766 163.555C151.488 163.555 152.648 164.867 152.648 166.848C152.648 168.828 151.488 170.129 149.766 170.129ZM149.766 169.238C151.043 169.238 151.641 168.113 151.641 166.848C151.641 165.582 151.043 164.445 149.766 164.445C148.465 164.445 147.867 165.582 147.867 166.848C147.867 168.113 148.465 169.238 149.766 169.238ZM154.98 166.18V170H153.973V163.637H154.945V164.633H155.027C155.332 163.988 155.918 163.555 156.891 163.555C158.18 163.555 159.035 164.34 159.035 165.957V170H158.027V166.027C158.027 165.043 157.488 164.457 156.586 164.457C155.66 164.457 154.98 165.078 154.98 166.18ZM161.367 170.07C160.957 170.07 160.605 169.73 160.617 169.309C160.605 168.898 160.957 168.559 161.367 168.559C161.777 168.559 162.117 168.898 162.117 169.309C162.117 169.73 161.777 170.07 161.367 170.07Z" fill="var(--sol-error-dim)"/>
<defs>
<clipPath id="clip0_1670_178392">
<rect width="229" height="96" fill="var(--sol-surface)" transform="translate(36 55)"/>
</clipPath>
<clipPath id="clip1_1670_178392">
<path d="M39.334 70.9997C39.334 67.3178 42.3188 64.333 46.0007 64.333V64.333C49.6825 64.333 52.6673 67.3178 52.6673 70.9997V70.9997C52.6673 74.6816 49.6825 77.6663 46.0007 77.6663V77.6663C42.3188 77.6663 39.334 74.6816 39.334 70.9997V70.9997Z" fill="var(--sol-surface)"/>
</clipPath>
</defs>
</svg>
