<svg width="442" height="130" viewBox="0 0 442 130" fill="none" xmlns="http://www.w3.org/2000/svg">
<style>
:root {
  --sol-element-primary: #161616;
  --sol-element-tertiary: #636363;
  --sol-element-quaternary: #858585;
  --sol-fill-active: #4d469a;
  --sol-surface: #ffffff;
  --sol-error: #e76067;
  --sol-error-dim: #b84451;
  --sol-static-white: #ffffff;
  --sol-static-black: #000000;
}
@media (prefers-color-scheme: dark) {
  :root {
    --sol-element-primary: #ffffff;
    --sol-element-tertiary: rgba(255, 255, 255, 0.6);
    --sol-element-quaternary: rgba(255, 255, 255, 0.5);
    --sol-fill-active: #7b74c4;
    --sol-surface: #161616;
    --sol-error: #ee7a80;
    --sol-error-dim: #e76067;
  }
}
</style>
<g clip-path="url(#clip0_1670_178404)">
<g clip-path="url(#clip1_1670_178404)">
<path d="M40 33C40 28.5817 43.5817 25 48 25V25C52.4183 25 56 28.5817 56 33V33C56 37.4183 52.4183 41 48 41V41C43.5817 41 40 37.4183 40 33V33Z" fill="var(--sol-fill-active)"/>
<circle cx="48" cy="33" r="4" fill="var(--sol-surface)"/>
</g>
<path d="M77.4609 33.0508C77.4609 36.1816 75.6152 38.1367 73.0859 38.1367C70.543 38.1367 68.7109 36.1816 68.7109 33.0508C68.7109 29.9199 70.543 27.9648 73.0859 27.9648C75.6152 27.9648 77.4609 29.9199 77.4609 33.0508ZM76.2715 33.0508C76.2715 30.4941 74.877 29.1133 73.0859 29.1133C71.2949 29.1133 69.9004 30.4941 69.9004 33.0508C69.9004 35.6074 71.2949 36.9883 73.0859 36.9883C74.877 36.9883 76.2715 35.6074 76.2715 33.0508ZM79.1152 40.7891V30.5762H80.25V31.752H80.3867C80.6328 31.3555 81.0977 30.4805 82.5332 30.4805C84.3926 30.4805 85.6914 31.957 85.6914 34.3086C85.6914 36.6602 84.3926 38.1504 82.5469 38.1504C81.125 38.1504 80.6328 37.2754 80.3867 36.8652H80.291V40.7891H79.1152ZM80.2637 34.2812C80.2637 35.9492 81.0156 37.0977 82.3828 37.0977C83.791 37.0977 84.5156 35.8672 84.5156 34.2812C84.5156 32.7363 83.8047 31.5332 82.3828 31.5332C80.9883 31.5332 80.2637 32.6406 80.2637 34.2812ZM90.4629 30.5762V31.5605H88.9043V35.8672C88.9043 36.8242 89.3691 36.9746 89.875 36.9746C90.0938 36.9746 90.3945 36.9609 90.5723 36.9473V38.041C90.3945 38.0684 90.0938 38.0957 89.752 38.0957C88.7676 38.0957 87.7148 37.4805 87.7148 36.168V31.5605H86.5938V30.5762H87.7148V28.7988H88.9043V30.5762H90.4629ZM91.9805 38V30.5762H93.1562V38H91.9805ZM92.5684 29.3457C92.1172 29.3457 91.748 29.0039 91.748 28.5664C91.748 28.1289 92.1172 27.7871 92.5684 27.7871C93.0195 27.7871 93.4023 28.1289 93.4023 28.5664C93.4023 29.0039 93.0195 29.3457 92.5684 29.3457ZM98.0645 38.1504C96.041 38.1504 94.6738 36.6328 94.6738 34.3223C94.6738 32.0117 96.041 30.4805 98.0645 30.4805C100.074 30.4805 101.428 32.0117 101.428 34.3223C101.428 36.6328 100.074 38.1504 98.0645 38.1504ZM98.0645 37.1113C99.5547 37.1113 100.252 35.7988 100.252 34.3223C100.252 32.8457 99.5547 31.5195 98.0645 31.5195C96.5469 31.5195 95.8496 32.8457 95.8496 34.3223C95.8496 35.7988 96.5469 37.1113 98.0645 37.1113ZM104.148 33.543V38H102.973V30.5762H104.107V31.7383H104.203C104.559 30.9863 105.242 30.4805 106.377 30.4805C107.881 30.4805 108.879 31.3965 108.879 33.2832V38H107.703V33.3652C107.703 32.2168 107.074 31.5332 106.021 31.5332C104.941 31.5332 104.148 32.2578 104.148 33.543ZM117.766 28.1016V38H116.521V29.3867H116.467L114.061 30.9863V29.7422L116.521 28.1016H117.766Z" fill="var(--sol-element-primary)"/>
<path d="M40 65C40 60.5817 43.5817 57 48 57V57C52.4183 57 56 60.5817 56 65V65C56 69.4183 52.4183 73 48 73V73C43.5817 73 40 69.4183 40 65V65Z" fill="var(--sol-surface)"/>
<path d="M48 57.5C52.1421 57.5 55.5 60.8579 55.5 65C55.5 69.1421 52.1421 72.5 48 72.5C43.8579 72.5 40.5 69.1421 40.5 65C40.5 60.8579 43.8579 57.5 48 57.5Z" stroke="var(--sol-element-primary)" stroke-opacity="0.16"/>
<path d="M77.4609 65.0508C77.4609 68.1816 75.6152 70.1367 73.0859 70.1367C70.543 70.1367 68.7109 68.1816 68.7109 65.0508C68.7109 61.9199 70.543 59.9648 73.0859 59.9648C75.6152 59.9648 77.4609 61.9199 77.4609 65.0508ZM76.2715 65.0508C76.2715 62.4941 74.877 61.1133 73.0859 61.1133C71.2949 61.1133 69.9004 62.4941 69.9004 65.0508C69.9004 67.6074 71.2949 68.9883 73.0859 68.9883C74.877 68.9883 76.2715 67.6074 76.2715 65.0508ZM79.1152 72.7891V62.5762H80.25V63.752H80.3867C80.6328 63.3555 81.0977 62.4805 82.5332 62.4805C84.3926 62.4805 85.6914 63.957 85.6914 66.3086C85.6914 68.6602 84.3926 70.1504 82.5469 70.1504C81.125 70.1504 80.6328 69.2754 80.3867 68.8652H80.291V72.7891H79.1152ZM80.2637 66.2812C80.2637 67.9492 81.0156 69.0977 82.3828 69.0977C83.791 69.0977 84.5156 67.8672 84.5156 66.2812C84.5156 64.7363 83.8047 63.5332 82.3828 63.5332C80.9883 63.5332 80.2637 64.6406 80.2637 66.2812ZM90.4629 62.5762V63.5605H88.9043V67.8672C88.9043 68.8242 89.3691 68.9746 89.875 68.9746C90.0938 68.9746 90.3945 68.9609 90.5723 68.9473V70.041C90.3945 70.0684 90.0938 70.0957 89.752 70.0957C88.7676 70.0957 87.7148 69.4805 87.7148 68.168V63.5605H86.5938V62.5762H87.7148V60.7988H88.9043V62.5762H90.4629ZM91.9805 70V62.5762H93.1562V70H91.9805ZM92.5684 61.3457C92.1172 61.3457 91.748 61.0039 91.748 60.5664C91.748 60.1289 92.1172 59.7871 92.5684 59.7871C93.0195 59.7871 93.4023 60.1289 93.4023 60.5664C93.4023 61.0039 93.0195 61.3457 92.5684 61.3457ZM98.0645 70.1504C96.041 70.1504 94.6738 68.6328 94.6738 66.3223C94.6738 64.0117 96.041 62.4805 98.0645 62.4805C100.074 62.4805 101.428 64.0117 101.428 66.3223C101.428 68.6328 100.074 70.1504 98.0645 70.1504ZM98.0645 69.1113C99.5547 69.1113 100.252 67.7988 100.252 66.3223C100.252 64.8457 99.5547 63.5195 98.0645 63.5195C96.5469 63.5195 95.8496 64.8457 95.8496 66.3223C95.8496 67.7988 96.5469 69.1113 98.0645 69.1113ZM104.148 65.543V70H102.973V62.5762H104.107V63.7383H104.203C104.559 62.9863 105.242 62.4805 106.377 62.4805C107.881 62.4805 108.879 63.3965 108.879 65.2832V70H107.703V65.3652C107.703 64.2168 107.074 63.5332 106.021 63.5332C104.941 63.5332 104.148 64.2578 104.148 65.543ZM114.266 70L114.252 69.0977L117.629 65.543C118.805 64.2988 119.365 63.6289 119.365 62.7129C119.365 61.7012 118.504 61.0312 117.396 61.0312C116.221 61.0312 115.469 61.7832 115.469 62.8906H114.307C114.293 61.1406 115.646 59.9648 117.438 59.9648C119.229 59.9648 120.514 61.168 120.514 62.7129C120.514 63.8203 119.994 64.6816 118.244 66.4863L115.975 68.8242V68.9062H120.691V70H114.266Z" fill="var(--sol-element-primary)"/>
<path d="M40 97C40 92.5817 43.5817 89 48 89V89C52.4183 89 56 92.5817 56 97V97C56 101.418 52.4183 105 48 105V105C43.5817 105 40 101.418 40 97V97Z" fill="var(--sol-surface)"/>
<path d="M48 89.5C52.1421 89.5 55.5 92.8579 55.5 97C55.5 101.142 52.1421 104.5 48 104.5C43.8579 104.5 40.5 101.142 40.5 97C40.5 92.8579 43.8579 89.5 48 89.5Z" stroke="var(--sol-element-primary)" stroke-opacity="0.16"/>
<path d="M77.4609 97.0508C77.4609 100.182 75.6152 102.137 73.0859 102.137C70.543 102.137 68.7109 100.182 68.7109 97.0508C68.7109 93.9199 70.543 91.9648 73.0859 91.9648C75.6152 91.9648 77.4609 93.9199 77.4609 97.0508ZM76.2715 97.0508C76.2715 94.4941 74.877 93.1133 73.0859 93.1133C71.2949 93.1133 69.9004 94.4941 69.9004 97.0508C69.9004 99.6074 71.2949 100.988 73.0859 100.988C74.877 100.988 76.2715 99.6074 76.2715 97.0508ZM79.1152 104.789V94.5762H80.25V95.752H80.3867C80.6328 95.3555 81.0977 94.4805 82.5332 94.4805C84.3926 94.4805 85.6914 95.957 85.6914 98.3086C85.6914 100.66 84.3926 102.15 82.5469 102.15C81.125 102.15 80.6328 101.275 80.3867 100.865H80.291V104.789H79.1152ZM80.2637 98.2812C80.2637 99.9492 81.0156 101.098 82.3828 101.098C83.791 101.098 84.5156 99.8672 84.5156 98.2812C84.5156 96.7363 83.8047 95.5332 82.3828 95.5332C80.9883 95.5332 80.2637 96.6406 80.2637 98.2812ZM90.4629 94.5762V95.5605H88.9043V99.8672C88.9043 100.824 89.3691 100.975 89.875 100.975C90.0938 100.975 90.3945 100.961 90.5723 100.947V102.041C90.3945 102.068 90.0938 102.096 89.752 102.096C88.7676 102.096 87.7148 101.48 87.7148 100.168V95.5605H86.5938V94.5762H87.7148V92.7988H88.9043V94.5762H90.4629ZM91.9805 102V94.5762H93.1562V102H91.9805ZM92.5684 93.3457C92.1172 93.3457 91.748 93.0039 91.748 92.5664C91.748 92.1289 92.1172 91.7871 92.5684 91.7871C93.0195 91.7871 93.4023 92.1289 93.4023 92.5664C93.4023 93.0039 93.0195 93.3457 92.5684 93.3457ZM98.0645 102.15C96.041 102.15 94.6738 100.633 94.6738 98.3223C94.6738 96.0117 96.041 94.4805 98.0645 94.4805C100.074 94.4805 101.428 96.0117 101.428 98.3223C101.428 100.633 100.074 102.15 98.0645 102.15ZM98.0645 101.111C99.5547 101.111 100.252 99.7988 100.252 98.3223C100.252 96.8457 99.5547 95.5195 98.0645 95.5195C96.5469 95.5195 95.8496 96.8457 95.8496 98.3223C95.8496 99.7988 96.5469 101.111 98.0645 101.111ZM104.148 97.543V102H102.973V94.5762H104.107V95.7383H104.203C104.559 94.9863 105.242 94.4805 106.377 94.4805C107.881 94.4805 108.879 95.3965 108.879 97.2832V102H107.703V97.3652C107.703 96.2168 107.074 95.5332 106.021 95.5332C104.941 95.5332 104.148 96.2578 104.148 97.543ZM117.684 102.137C115.715 102.137 114.307 101.084 114.238 99.5117H115.482C115.551 100.455 116.494 101.043 117.67 101.043C118.969 101.043 119.926 100.332 119.926 99.3066C119.926 98.2266 119.064 97.4609 117.52 97.4609H116.713V96.3809H117.52C118.723 96.3809 119.557 95.7109 119.557 94.6855C119.557 93.7012 118.832 93.0312 117.711 93.0312C116.658 93.0312 115.688 93.6191 115.633 94.5898H114.443C114.512 93.0176 115.961 91.9648 117.725 91.9648C119.611 91.9648 120.76 93.1953 120.746 94.6172C120.76 95.7383 120.104 96.5723 119.064 96.8594V96.9277C120.35 97.1328 121.143 98.0488 121.129 99.3066C121.143 100.934 119.652 102.137 117.684 102.137Z" fill="var(--sol-element-primary)"/>
</g>
<defs>
<clipPath id="clip0_1670_178404">
<path d="M0 8C0 3.58172 3.58172 0 8 0H434C438.418 0 442 3.58172 442 8V122C442 126.418 438.418 130 434 130H8C3.58172 130 0 126.418 0 122V8Z" fill="var(--sol-surface)"/>
</clipPath>
<clipPath id="clip1_1670_178404">
<path d="M40 33C40 28.5817 43.5817 25 48 25V25C52.4183 25 56 28.5817 56 33V33C56 37.4183 52.4183 41 48 41V41C43.5817 41 40 37.4183 40 33V33Z" fill="var(--sol-surface)"/>
</clipPath>
</defs>
</svg>
