<svg width="900" height="160" viewBox="0 0 900 160" fill="none" xmlns="http://www.w3.org/2000/svg">
<style>
:root {
  --sol-element-primary: #161616;
  --sol-element-tertiary: #636363;
  --sol-element-quaternary: #858585;
  --sol-fill-active: #4d469a;
  --sol-surface: #ffffff;
  --sol-error: #e76067;
  --sol-error-dim: #b84451;
  --sol-static-white: #ffffff;
  --sol-static-black: #000000;
}
@media (prefers-color-scheme: dark) {
  :root {
    --sol-element-primary: #ffffff;
    --sol-element-tertiary: rgba(255, 255, 255, 0.6);
    --sol-element-quaternary: rgba(255, 255, 255, 0.5);
    --sol-fill-active: #7b74c4;
    --sol-surface: #161616;
    --sol-error: #ee7a80;
    --sol-error-dim: #e76067;
  }
}
</style>
<g clip-path="url(#clip0_1670_177717)">
<path d="M358.666 79.9993C358.666 77.0538 361.054 74.666 363.999 74.666V74.666C366.945 74.666 369.333 77.0538 369.333 79.9993V79.9993C369.333 82.9449 366.945 85.3327 363.999 85.3327V85.3327C361.054 85.3327 358.666 82.9449 358.666 79.9993V79.9993Z" fill="var(--sol-fill-active)"/>
<circle cx="363.999" cy="79.9987" r="2.66667" fill="var(--sol-surface)"/>
</g>
<path d="M383.566 77.6484C383.473 76.8164 382.711 76.3359 381.691 76.3359C380.566 76.3359 379.828 76.9219 379.828 77.7305C379.828 78.6211 380.824 78.9492 381.469 79.1133L382.312 79.3477C383.227 79.582 384.715 80.1094 384.715 81.6914C384.715 83.0742 383.602 84.1523 381.633 84.1523C379.805 84.1523 378.668 83.2031 378.574 81.7969H379.652C379.746 82.7461 380.625 83.1914 381.633 83.1914C382.805 83.1914 383.684 82.5938 383.684 81.668C383.684 80.8477 382.898 80.5312 382.008 80.2734L380.965 79.9922C379.629 79.6055 378.809 78.9258 378.809 77.7773C378.809 76.3477 380.086 75.3984 381.727 75.3984C383.367 75.3984 384.551 76.3594 384.598 77.6484H383.566ZM386.098 84V77.6367H387.07V78.6328H387.152C387.422 77.9531 388.031 77.5547 388.863 77.5547C389.695 77.5547 390.258 77.9531 390.562 78.6328H390.633C390.961 77.9766 391.629 77.5547 392.543 77.5547C393.68 77.5547 394.488 78.2461 394.488 79.7461V84H393.48V79.7578C393.48 78.8203 392.883 78.457 392.191 78.457C391.301 78.457 390.797 79.0547 390.797 79.8633V84H389.777V79.6523C389.777 78.9375 389.262 78.457 388.535 78.457C387.773 78.457 387.105 79.1016 387.105 80.0273V84H386.098ZM395.801 82.1953C395.801 80.7305 397.09 80.4023 398.191 80.3203C398.596 80.291 399.627 80.2383 399.914 80.2266V79.7109C399.914 78.9023 399.434 78.4336 398.473 78.4336C397.664 78.4336 397.184 78.8086 397.043 79.2891H395.988C396.117 78.2695 397.113 77.5547 398.52 77.5547C399.352 77.5547 400.91 77.8008 400.91 79.8047V84H399.914V83.1328H399.867C399.656 83.5664 399.07 84.1523 397.969 84.1523C396.762 84.1523 395.801 83.4375 395.801 82.1953ZM396.809 82.2422C396.809 82.9102 397.371 83.25 398.145 83.25C399.281 83.25 399.914 82.4883 399.914 81.6914V81.0469L398.309 81.1641C397.395 81.2227 396.809 81.5508 396.809 82.2422ZM403.535 75.5156V84H402.527V75.5156H403.535ZM406.148 75.5156V84H405.141V75.5156H406.148Z" fill="var(--sol-element-primary)"/>
<g clip-path="url(#clip1_1670_177717)">
<path d="M470.334 80.0007C470.334 76.3188 473.319 73.334 477.001 73.334V73.334C480.683 73.334 483.667 76.3188 483.667 80.0007V80.0007C483.667 83.6825 480.683 86.6673 477.001 86.6673V86.6673C473.319 86.6673 470.334 83.6825 470.334 80.0007V80.0007Z" fill="var(--sol-fill-active)"/>
<circle cx="477.001" cy="80.0013" r="3.33333" fill="var(--sol-surface)"/>
</g>
<path d="M494.094 75.1016H495.57L498.906 83.25H499.029L502.365 75.1016H503.842V85H502.68V77.5215H502.584L499.508 85H498.414L495.338 77.5215H495.256V85H494.094V75.1016ZM508.996 85.1504C506.85 85.1504 505.523 83.6328 505.523 81.3496C505.523 79.0664 506.863 77.4805 508.887 77.4805C510.445 77.4805 512.086 78.4375 512.086 81.1855V81.6777H506.699C506.754 83.25 507.67 84.1113 508.996 84.1113C509.885 84.1113 510.445 83.7285 510.719 83.2637H511.977C511.621 84.3848 510.527 85.1504 508.996 85.1504ZM506.713 80.6797H510.896C510.896 79.4355 510.104 78.5195 508.887 78.5195C507.602 78.5195 506.781 79.5312 506.713 80.6797ZM516.42 85.1504C514.574 85.1504 513.262 83.6602 513.262 81.3086C513.262 78.957 514.574 77.4805 516.434 77.4805C517.869 77.4805 518.334 78.3555 518.58 78.752H518.662V75.1016H519.852V85H518.703V83.8652H518.58C518.32 84.2754 517.842 85.1504 516.42 85.1504ZM516.584 84.0977C517.938 84.0977 518.703 82.9492 518.703 81.2812C518.703 79.6406 517.965 78.5332 516.584 78.5332C515.162 78.5332 514.451 79.7363 514.451 81.2812C514.451 82.8672 515.176 84.0977 516.584 84.0977ZM521.889 85V77.5762H523.064V85H521.889ZM522.477 76.3457C522.025 76.3457 521.656 76.0039 521.656 75.5664C521.656 75.1289 522.025 74.7871 522.477 74.7871C522.928 74.7871 523.311 75.1289 523.311 75.5664C523.311 76.0039 522.928 76.3457 522.477 76.3457ZM529.627 81.9512V77.5762H530.789V85H529.627V83.7422H529.545C529.189 84.4941 528.465 85.0957 527.344 85.0957C525.936 85.0957 524.938 84.1797 524.938 82.293V77.5762H526.113V82.2109C526.113 83.2773 526.783 83.9609 527.727 83.9609C528.561 83.9609 529.627 83.332 529.627 81.9512ZM532.676 85V77.5762H533.811V78.7383H533.906C534.221 77.9453 534.932 77.4805 535.902 77.4805C536.873 77.4805 537.529 77.9453 537.885 78.7383H537.967C538.35 77.9727 539.129 77.4805 540.195 77.4805C541.521 77.4805 542.465 78.2871 542.465 80.0371V85H541.289V80.0508C541.289 78.957 540.592 78.5332 539.785 78.5332C538.746 78.5332 538.158 79.2305 538.158 80.1738V85H536.969V79.9277C536.969 79.0938 536.367 78.5332 535.52 78.5332C534.631 78.5332 533.852 79.2852 533.852 80.3652V85H532.676Z" fill="var(--sol-element-primary)"/>
<path d="M349 72V88" stroke="var(--sol-error-dim)"/>
<path d="M346 72H352" stroke="var(--sol-error-dim)"/>
<path d="M346 88H352" stroke="var(--sol-error-dim)"/>
<rect x="322" y="70" width="19" height="20" rx="3.5" fill="var(--sol-error-dim)"/>
<path d="M329.153 76V84H327.943V77.2109H327.896L325.982 78.4609V77.3047L327.978 76H329.153ZM334.221 84.1094C333.864 84.1042 333.512 84.0391 333.166 83.9141C332.822 83.7891 332.51 83.5807 332.228 83.2891C331.947 82.9974 331.722 82.6055 331.553 82.1133C331.386 81.6211 331.303 81.0065 331.303 80.2695C331.303 79.5716 331.372 78.9518 331.51 78.4102C331.65 77.8685 331.852 77.4115 332.115 77.0391C332.378 76.6641 332.696 76.3789 333.068 76.1836C333.441 75.9883 333.859 75.8906 334.322 75.8906C334.799 75.8906 335.222 75.9844 335.592 76.1719C335.961 76.3594 336.261 76.6185 336.49 76.9492C336.722 77.2799 336.869 77.6562 336.931 78.0781H335.74C335.659 77.7448 335.499 77.4727 335.26 77.2617C335.02 77.0508 334.708 76.9453 334.322 76.9453C333.736 76.9453 333.279 77.2005 332.951 77.7109C332.625 78.2214 332.461 78.931 332.459 79.8398H332.517C332.655 79.6133 332.825 79.4206 333.025 79.2617C333.228 79.1003 333.455 78.9766 333.705 78.8906C333.958 78.8021 334.223 78.7578 334.502 78.7578C334.965 78.7578 335.385 78.8711 335.76 79.0977C336.137 79.3216 336.438 79.6315 336.662 80.0273C336.886 80.4232 336.998 80.8763 336.998 81.3867C336.998 81.8971 336.882 82.3594 336.65 82.7734C336.421 83.1875 336.098 83.5156 335.681 83.7578C335.265 83.9974 334.778 84.1146 334.221 84.1094ZM334.217 83.0937C334.524 83.0937 334.799 83.0182 335.041 82.8672C335.283 82.7161 335.474 82.513 335.615 82.2578C335.756 82.0026 335.826 81.7174 335.826 81.4023C335.826 81.0951 335.757 80.8151 335.619 80.5625C335.484 80.3099 335.296 80.1094 335.056 79.9609C334.819 79.8125 334.549 79.7383 334.244 79.7383C334.012 79.7383 333.797 79.7826 333.599 79.8711C333.404 79.9596 333.232 80.082 333.084 80.2383C332.935 80.3945 332.818 80.5742 332.732 80.7773C332.649 80.9779 332.607 81.1901 332.607 81.4141C332.607 81.7135 332.676 81.9909 332.814 82.2461C332.955 82.5013 333.146 82.707 333.388 82.8633C333.633 83.0169 333.909 83.0937 334.217 83.0937Z" fill="var(--sol-surface)"/>
<path d="M460 70V90" stroke="var(--sol-error-dim)"/>
<path d="M457 70H463" stroke="var(--sol-error-dim)"/>
<path d="M457 90H463" stroke="var(--sol-error-dim)"/>
<rect x="433" y="70" width="20" height="20" rx="3.5" fill="var(--sol-error-dim)"/>
<path d="M436.791 84V83.125L439.498 80.3203C439.787 80.0156 440.026 79.7487 440.213 79.5195C440.403 79.2878 440.545 79.0677 440.639 78.8594C440.733 78.651 440.779 78.4297 440.779 78.1953C440.779 77.9297 440.717 77.7005 440.592 77.5078C440.467 77.3125 440.296 77.1628 440.08 77.0586C439.864 76.9518 439.621 76.8984 439.35 76.8984C439.063 76.8984 438.813 76.957 438.6 77.0742C438.386 77.1914 438.222 77.3568 438.108 77.5703C437.993 77.7839 437.936 78.0339 437.936 78.3203H436.783C436.783 77.8333 436.895 77.4076 437.119 77.043C437.343 76.6784 437.651 76.3958 438.041 76.1953C438.432 75.9922 438.876 75.8906 439.373 75.8906C439.876 75.8906 440.319 75.9909 440.701 76.1914C441.087 76.3893 441.388 76.6602 441.604 77.0039C441.82 77.3451 441.928 77.7305 441.928 78.1602C441.928 78.457 441.872 78.7474 441.76 79.0312C441.651 79.3151 441.459 79.6315 441.186 79.9805C440.912 80.3268 440.532 80.7474 440.045 81.2422L438.455 82.9062V82.9648H442.057V84H436.791ZM446.432 84.1328C445.815 84.1302 445.288 83.9674 444.85 83.6445C444.413 83.3216 444.078 82.8516 443.847 82.2344C443.615 81.6172 443.499 80.8737 443.499 80.0039C443.499 79.1367 443.615 78.3958 443.847 77.7812C444.081 77.1667 444.417 76.6979 444.854 76.375C445.294 76.0521 445.82 75.8906 446.432 75.8906C447.044 75.8906 447.569 76.0534 448.007 76.3789C448.444 76.7018 448.779 77.1706 449.011 77.7852C449.245 78.3971 449.362 79.1367 449.362 80.0039C449.362 80.8763 449.246 81.6211 449.014 82.2383C448.783 82.8529 448.448 83.3229 448.011 83.6484C447.573 83.9714 447.047 84.1328 446.432 84.1328ZM446.432 83.0898C446.974 83.0898 447.397 82.8255 447.702 82.2969C448.009 81.7682 448.163 81.0039 448.163 80.0039C448.163 79.3398 448.093 78.7786 447.952 78.3203C447.814 77.8594 447.615 77.5104 447.354 77.2734C447.097 77.0339 446.789 76.9141 446.432 76.9141C445.893 76.9141 445.47 77.1797 445.163 77.7109C444.856 78.2422 444.701 79.0065 444.698 80.0039C444.698 80.6706 444.767 81.2344 444.905 81.6953C445.046 82.1536 445.245 82.5013 445.503 82.7383C445.761 82.9727 446.07 83.0898 446.432 83.0898Z" fill="var(--sol-surface)"/>
<defs>
<clipPath id="clip0_1670_177717">
<path d="M358.666 79.9993C358.666 77.0538 361.054 74.666 363.999 74.666V74.666C366.945 74.666 369.333 77.0538 369.333 79.9993V79.9993C369.333 82.9449 366.945 85.3327 363.999 85.3327V85.3327C361.054 85.3327 358.666 82.9449 358.666 79.9993V79.9993Z" fill="var(--sol-surface)"/>
</clipPath>
<clipPath id="clip1_1670_177717">
<path d="M470.334 80.0007C470.334 76.3188 473.319 73.334 477.001 73.334V73.334C480.683 73.334 483.667 76.3188 483.667 80.0007V80.0007C483.667 83.6825 480.683 86.6673 477.001 86.6673V86.6673C473.319 86.6673 470.334 83.6825 470.334 80.0007V80.0007Z" fill="var(--sol-surface)"/>
</clipPath>
</defs>
</svg>
