<svg width="442" height="200" viewBox="0 0 442 200" fill="none" xmlns="http://www.w3.org/2000/svg">
<style>
:root {
  --sol-element-primary: #161616;
  --sol-element-tertiary: #636363;
  --sol-element-quaternary: #858585;
  --sol-fill-active: #4d469a;
  --sol-surface: #ffffff;
  --sol-error: #e76067;
  --sol-error-dim: #b84451;
  --sol-static-white: #ffffff;
  --sol-static-black: #000000;
}
@media (prefers-color-scheme: dark) {
  :root {
    --sol-element-primary: #ffffff;
    --sol-element-tertiary: rgba(255, 255, 255, 0.6);
    --sol-element-quaternary: rgba(255, 255, 255, 0.5);
    --sol-fill-active: #7b74c4;
    --sol-surface: #161616;
    --sol-error: #ee7a80;
    --sol-error-dim: #e76067;
  }
}
</style>
<g clip-path="url(#clip0_1670_178397)">
<path d="M43.8477 28.1914C43.4238 26.9199 42.4531 26.1133 41.0449 26.1133C39.2949 26.1133 37.9004 27.4941 37.9004 30.0508C37.9004 32.6074 39.2949 33.9883 41.127 33.9883C42.8018 33.9883 43.9434 32.8672 43.9707 31.1172H41.3867V30.0371H45.1738V31.1035C45.1738 33.5645 43.4785 35.1367 41.127 35.1367C38.4883 35.1367 36.7109 33.1816 36.7109 30.0508C36.7109 26.9199 38.502 24.9648 41.0449 24.9648C43.1367 24.9648 44.75 26.2773 45.1191 28.1914H43.8477ZM46.8691 35V27.5762H48.0039V28.7109H48.0859C48.3594 27.959 49.125 27.4531 50 27.4531C50.1777 27.4531 50.4785 27.4668 50.6152 27.4805V28.6699C50.5332 28.6426 50.2051 28.5879 49.9043 28.5879C48.8379 28.5879 48.0449 29.3262 48.0449 30.3242V35H46.8691ZM54.5664 35.1504C52.543 35.1504 51.1758 33.6328 51.1758 31.3223C51.1758 29.0117 52.543 27.4805 54.5664 27.4805C56.5762 27.4805 57.9297 29.0117 57.9297 31.3223C57.9297 33.6328 56.5762 35.1504 54.5664 35.1504ZM54.5664 34.1113C56.0566 34.1113 56.7539 32.7988 56.7539 31.3223C56.7539 29.8457 56.0566 28.5195 54.5664 28.5195C53.0488 28.5195 52.3516 29.8457 52.3516 31.3223C52.3516 32.7988 53.0488 34.1113 54.5664 34.1113ZM64.1641 31.9512V27.5762H65.3262V35H64.1641V33.7422H64.082C63.7266 34.4941 63.002 35.0957 61.8809 35.0957C60.4727 35.0957 59.4746 34.1797 59.4746 32.293V27.5762H60.6504V32.2109C60.6504 33.2773 61.3203 33.9609 62.2637 33.9609C63.0977 33.9609 64.1641 33.332 64.1641 31.9512ZM67.2129 37.7891V27.5762H68.3477V28.752H68.4844C68.7305 28.3555 69.1953 27.4805 70.6309 27.4805C72.4902 27.4805 73.7891 28.957 73.7891 31.3086C73.7891 33.6602 72.4902 35.1504 70.6445 35.1504C69.2227 35.1504 68.7305 34.2754 68.4844 33.8652H68.3887V37.7891H67.2129ZM68.3613 31.2812C68.3613 32.9492 69.1133 34.0977 70.4805 34.0977C71.8887 34.0977 72.6133 32.8672 72.6133 31.2812C72.6133 29.7363 71.9023 28.5332 70.4805 28.5332C69.0859 28.5332 68.3613 29.6406 68.3613 31.2812ZM80.0098 25.1016V35H78.834V25.1016H80.0098ZM81.5273 32.8945C81.5273 31.1855 83.0312 30.8027 84.3164 30.707C84.7881 30.6729 85.9912 30.6113 86.3262 30.5977V29.9961C86.3262 29.0527 85.7656 28.5059 84.6445 28.5059C83.7012 28.5059 83.1406 28.9434 82.9766 29.5039H81.7461C81.8965 28.3145 83.0586 27.4805 84.6992 27.4805C85.6699 27.4805 87.4883 27.7676 87.4883 30.1055V35H86.3262V33.9883H86.2715C86.0254 34.4941 85.3418 35.1777 84.0566 35.1777C82.6484 35.1777 81.5273 34.3438 81.5273 32.8945ZM82.7031 32.9492C82.7031 33.7285 83.3594 34.125 84.2617 34.125C85.5879 34.125 86.3262 33.2363 86.3262 32.3066V31.5547L84.4531 31.6914C83.3867 31.7598 82.7031 32.1426 82.7031 32.9492ZM89.5254 35V25.1016H90.7012V28.752H90.7969C91.0566 28.3555 91.4941 27.4805 92.9434 27.4805C94.8027 27.4805 96.1152 28.957 96.1152 31.3086C96.1152 33.6602 94.8027 35.1504 92.957 35.1504C91.5352 35.1504 91.0566 34.2754 90.7969 33.8652H90.6602V35H89.5254ZM90.6738 31.2812C90.6738 32.9492 91.4258 34.0977 92.7793 34.0977C94.1875 34.0977 94.9258 32.8672 94.9258 31.2812C94.9258 29.7363 94.2148 28.5332 92.7793 28.5332C91.4121 28.5332 90.6738 29.6406 90.6738 31.2812ZM100.764 35.1504C98.6172 35.1504 97.291 33.6328 97.291 31.3496C97.291 29.0664 98.6309 27.4805 100.654 27.4805C102.213 27.4805 103.854 28.4375 103.854 31.1855V31.6777H98.4668C98.5215 33.25 99.4375 34.1113 100.764 34.1113C101.652 34.1113 102.213 33.7285 102.486 33.2637H103.744C103.389 34.3848 102.295 35.1504 100.764 35.1504ZM98.4805 30.6797H102.664C102.664 29.4355 101.871 28.5195 100.654 28.5195C99.3691 28.5195 98.5488 29.5312 98.4805 30.6797ZM106.561 25.1016V35H105.385V25.1016H106.561Z" fill="var(--sol-element-tertiary)"/>
<path d="M115.76 30.666H114.83L114.912 28.5469L113.107 29.6816L112.643 28.875L114.529 27.8906L112.643 26.8926L113.107 26.0859L114.912 27.2207L114.83 25.1016H115.76L115.678 27.2207L117.482 26.0859L117.947 26.8926L116.074 27.8906L117.947 28.875L117.482 29.6816L115.678 28.5469L115.76 30.666Z" fill="var(--sol-error)"/>
<g clip-path="url(#clip1_1670_178397)">
<g clip-path="url(#clip2_1670_178397)">
<path d="M39.334 63.9997C39.334 60.3178 42.3188 57.333 46.0007 57.333V57.333C49.6825 57.333 52.6673 60.3178 52.6673 63.9997V63.9997C52.6673 67.6816 49.6825 70.6663 46.0007 70.6663V70.6663C42.3188 70.6663 39.334 67.6816 39.334 63.9997V63.9997Z" fill="var(--sol-error-dim)"/>
<circle cx="46.0013" cy="63.9993" r="3.33333" fill="var(--sol-surface)"/>
</g>
<path d="M71.4609 64.0508C71.4609 67.1816 69.6152 69.1367 67.0859 69.1367C64.543 69.1367 62.7109 67.1816 62.7109 64.0508C62.7109 60.9199 64.543 58.9648 67.0859 58.9648C69.6152 58.9648 71.4609 60.9199 71.4609 64.0508ZM70.2715 64.0508C70.2715 61.4941 68.877 60.1133 67.0859 60.1133C65.2949 60.1133 63.9004 61.4941 63.9004 64.0508C63.9004 66.6074 65.2949 67.9883 67.0859 67.9883C68.877 67.9883 70.2715 66.6074 70.2715 64.0508ZM73.1152 71.7891V61.5762H74.25V62.752H74.3867C74.6328 62.3555 75.0977 61.4805 76.5332 61.4805C78.3926 61.4805 79.6914 62.957 79.6914 65.3086C79.6914 67.6602 78.3926 69.1504 76.5469 69.1504C75.125 69.1504 74.6328 68.2754 74.3867 67.8652H74.291V71.7891H73.1152ZM74.2637 65.2812C74.2637 66.9492 75.0156 68.0977 76.3828 68.0977C77.791 68.0977 78.5156 66.8672 78.5156 65.2812C78.5156 63.7363 77.8047 62.5332 76.3828 62.5332C74.9883 62.5332 74.2637 63.6406 74.2637 65.2812ZM84.4629 61.5762V62.5605H82.9043V66.8672C82.9043 67.8242 83.3691 67.9746 83.875 67.9746C84.0938 67.9746 84.3945 67.9609 84.5723 67.9473V69.041C84.3945 69.0684 84.0938 69.0957 83.752 69.0957C82.7676 69.0957 81.7148 68.4805 81.7148 67.168V62.5605H80.5938V61.5762H81.7148V59.7988H82.9043V61.5762H84.4629ZM85.9805 69V61.5762H87.1562V69H85.9805ZM86.5684 60.3457C86.1172 60.3457 85.748 60.0039 85.748 59.5664C85.748 59.1289 86.1172 58.7871 86.5684 58.7871C87.0195 58.7871 87.4023 59.1289 87.4023 59.5664C87.4023 60.0039 87.0195 60.3457 86.5684 60.3457ZM92.0645 69.1504C90.041 69.1504 88.6738 67.6328 88.6738 65.3223C88.6738 63.0117 90.041 61.4805 92.0645 61.4805C94.0742 61.4805 95.4277 63.0117 95.4277 65.3223C95.4277 67.6328 94.0742 69.1504 92.0645 69.1504ZM92.0645 68.1113C93.5547 68.1113 94.252 66.7988 94.252 65.3223C94.252 63.8457 93.5547 62.5195 92.0645 62.5195C90.5469 62.5195 89.8496 63.8457 89.8496 65.3223C89.8496 66.7988 90.5469 68.1113 92.0645 68.1113ZM98.1484 64.543V69H96.9727V61.5762H98.1074V62.7383H98.2031C98.5586 61.9863 99.2422 61.4805 100.377 61.4805C101.881 61.4805 102.879 62.3965 102.879 64.2832V69H101.703V64.3652C101.703 63.2168 101.074 62.5332 100.021 62.5332C98.9414 62.5332 98.1484 63.2578 98.1484 64.543Z" fill="var(--sol-element-primary)"/>
<g clip-path="url(#clip3_1670_178397)">
</g>
<path d="M46.001 89.833C49.4066 89.8332 52.167 92.5944 52.167 96C52.1668 99.4055 49.4065 102.166 46.001 102.166C42.5953 102.166 39.8342 99.4056 39.834 96C39.834 92.5942 42.5952 89.833 46.001 89.833Z" stroke="var(--sol-error-dim)"/>
<path d="M71.4609 96.0508C71.4609 99.1816 69.6152 101.137 67.0859 101.137C64.543 101.137 62.7109 99.1816 62.7109 96.0508C62.7109 92.9199 64.543 90.9648 67.0859 90.9648C69.6152 90.9648 71.4609 92.9199 71.4609 96.0508ZM70.2715 96.0508C70.2715 93.4941 68.877 92.1133 67.0859 92.1133C65.2949 92.1133 63.9004 93.4941 63.9004 96.0508C63.9004 98.6074 65.2949 99.9883 67.0859 99.9883C68.877 99.9883 70.2715 98.6074 70.2715 96.0508ZM73.1152 103.789V93.5762H74.25V94.752H74.3867C74.6328 94.3555 75.0977 93.4805 76.5332 93.4805C78.3926 93.4805 79.6914 94.957 79.6914 97.3086C79.6914 99.6602 78.3926 101.15 76.5469 101.15C75.125 101.15 74.6328 100.275 74.3867 99.8652H74.291V103.789H73.1152ZM74.2637 97.2812C74.2637 98.9492 75.0156 100.098 76.3828 100.098C77.791 100.098 78.5156 98.8672 78.5156 97.2812C78.5156 95.7363 77.8047 94.5332 76.3828 94.5332C74.9883 94.5332 74.2637 95.6406 74.2637 97.2812ZM84.4629 93.5762V94.5605H82.9043V98.8672C82.9043 99.8242 83.3691 99.9746 83.875 99.9746C84.0938 99.9746 84.3945 99.9609 84.5723 99.9473V101.041C84.3945 101.068 84.0938 101.096 83.752 101.096C82.7676 101.096 81.7148 100.48 81.7148 99.168V94.5605H80.5938V93.5762H81.7148V91.7988H82.9043V93.5762H84.4629ZM85.9805 101V93.5762H87.1562V101H85.9805ZM86.5684 92.3457C86.1172 92.3457 85.748 92.0039 85.748 91.5664C85.748 91.1289 86.1172 90.7871 86.5684 90.7871C87.0195 90.7871 87.4023 91.1289 87.4023 91.5664C87.4023 92.0039 87.0195 92.3457 86.5684 92.3457ZM92.0645 101.15C90.041 101.15 88.6738 99.6328 88.6738 97.3223C88.6738 95.0117 90.041 93.4805 92.0645 93.4805C94.0742 93.4805 95.4277 95.0117 95.4277 97.3223C95.4277 99.6328 94.0742 101.15 92.0645 101.15ZM92.0645 100.111C93.5547 100.111 94.252 98.7988 94.252 97.3223C94.252 95.8457 93.5547 94.5195 92.0645 94.5195C90.5469 94.5195 89.8496 95.8457 89.8496 97.3223C89.8496 98.7988 90.5469 100.111 92.0645 100.111ZM98.1484 96.543V101H96.9727V93.5762H98.1074V94.7383H98.2031C98.5586 93.9863 99.2422 93.4805 100.377 93.4805C101.881 93.4805 102.879 94.3965 102.879 96.2832V101H101.703V96.3652C101.703 95.2168 101.074 94.5332 100.021 94.5332C98.9414 94.5332 98.1484 95.2578 98.1484 96.543Z" fill="var(--sol-element-primary)"/>
<g clip-path="url(#clip4_1670_178397)">
</g>
<path d="M46.001 121.833C49.4066 121.833 52.167 124.594 52.167 128C52.1668 131.405 49.4065 134.166 46.001 134.166C42.5953 134.166 39.8342 131.406 39.834 128C39.834 124.594 42.5952 121.833 46.001 121.833Z" stroke="var(--sol-error-dim)"/>
<path d="M71.4609 128.051C71.4609 131.182 69.6152 133.137 67.0859 133.137C64.543 133.137 62.7109 131.182 62.7109 128.051C62.7109 124.92 64.543 122.965 67.0859 122.965C69.6152 122.965 71.4609 124.92 71.4609 128.051ZM70.2715 128.051C70.2715 125.494 68.877 124.113 67.0859 124.113C65.2949 124.113 63.9004 125.494 63.9004 128.051C63.9004 130.607 65.2949 131.988 67.0859 131.988C68.877 131.988 70.2715 130.607 70.2715 128.051ZM73.1152 135.789V125.576H74.25V126.752H74.3867C74.6328 126.355 75.0977 125.48 76.5332 125.48C78.3926 125.48 79.6914 126.957 79.6914 129.309C79.6914 131.66 78.3926 133.15 76.5469 133.15C75.125 133.15 74.6328 132.275 74.3867 131.865H74.291V135.789H73.1152ZM74.2637 129.281C74.2637 130.949 75.0156 132.098 76.3828 132.098C77.791 132.098 78.5156 130.867 78.5156 129.281C78.5156 127.736 77.8047 126.533 76.3828 126.533C74.9883 126.533 74.2637 127.641 74.2637 129.281ZM84.4629 125.576V126.561H82.9043V130.867C82.9043 131.824 83.3691 131.975 83.875 131.975C84.0938 131.975 84.3945 131.961 84.5723 131.947V133.041C84.3945 133.068 84.0938 133.096 83.752 133.096C82.7676 133.096 81.7148 132.48 81.7148 131.168V126.561H80.5938V125.576H81.7148V123.799H82.9043V125.576H84.4629ZM85.9805 133V125.576H87.1562V133H85.9805ZM86.5684 124.346C86.1172 124.346 85.748 124.004 85.748 123.566C85.748 123.129 86.1172 122.787 86.5684 122.787C87.0195 122.787 87.4023 123.129 87.4023 123.566C87.4023 124.004 87.0195 124.346 86.5684 124.346ZM92.0645 133.15C90.041 133.15 88.6738 131.633 88.6738 129.322C88.6738 127.012 90.041 125.48 92.0645 125.48C94.0742 125.48 95.4277 127.012 95.4277 129.322C95.4277 131.633 94.0742 133.15 92.0645 133.15ZM92.0645 132.111C93.5547 132.111 94.252 130.799 94.252 129.322C94.252 127.846 93.5547 126.52 92.0645 126.52C90.5469 126.52 89.8496 127.846 89.8496 129.322C89.8496 130.799 90.5469 132.111 92.0645 132.111ZM98.1484 128.543V133H96.9727V125.576H98.1074V126.738H98.2031C98.5586 125.986 99.2422 125.48 100.377 125.48C101.881 125.48 102.879 126.396 102.879 128.283V133H101.703V128.365C101.703 127.217 101.074 126.533 100.021 126.533C98.9414 126.533 98.1484 127.258 98.1484 128.543Z" fill="var(--sol-element-primary)"/>
</g>
<path d="M36.4688 155.453V154.516H42.8672V155.453H40.207V163H39.1406V155.453H36.4688ZM45.1523 159.18V163H44.1445V154.516H45.1523V157.633H45.2344C45.5273 156.977 46.1016 156.555 47.1094 156.555C48.4102 156.555 49.2773 157.328 49.2773 158.957V163H48.2695V159.027C48.2695 158.031 47.7188 157.457 46.8047 157.457C45.8555 157.457 45.1523 158.078 45.1523 159.18ZM50.8945 163V156.637H51.9023V163H50.8945ZM51.3984 155.582C51.0117 155.582 50.6953 155.289 50.6953 154.914C50.6953 154.539 51.0117 154.246 51.3984 154.246C51.7852 154.246 52.1133 154.539 52.1133 154.914C52.1133 155.289 51.7852 155.582 51.3984 155.582ZM57.0469 158.289C56.9062 157.762 56.5078 157.41 55.7578 157.41C54.9727 157.41 54.4102 157.832 54.4102 158.371C54.4102 158.793 54.75 159.086 55.5 159.262L56.4492 159.496C57.5859 159.766 58.1484 160.328 58.1484 161.219C58.1484 162.32 57.2461 163.129 55.6523 163.129C54.2227 163.129 53.3672 162.496 53.2031 161.336H54.2578C54.375 161.957 54.832 162.25 55.6289 162.25C56.5312 162.25 57.1055 161.875 57.1055 161.277C57.1055 160.832 56.7891 160.527 56.0625 160.363L55.1016 160.141C53.9883 159.883 53.4023 159.273 53.4023 158.43C53.4023 157.34 54.3516 156.555 55.7578 156.555C57.0703 156.555 57.9023 157.258 58.0312 158.289H57.0469ZM65.0742 163.129C63.3398 163.129 62.168 161.828 62.168 159.848C62.168 157.867 63.3398 156.555 65.0742 156.555C66.7969 156.555 67.957 157.867 67.957 159.848C67.957 161.828 66.7969 163.129 65.0742 163.129ZM65.0742 162.238C66.3516 162.238 66.9492 161.113 66.9492 159.848C66.9492 158.582 66.3516 157.445 65.0742 157.445C63.7734 157.445 63.1758 158.582 63.1758 159.848C63.1758 161.113 63.7734 162.238 65.0742 162.238ZM69.2812 165.391V156.637H70.2539V157.645H70.3711C70.582 157.305 70.9805 156.555 72.2109 156.555C73.8047 156.555 74.918 157.82 74.918 159.836C74.918 161.852 73.8047 163.129 72.2227 163.129C71.0039 163.129 70.582 162.379 70.3711 162.027H70.2891V165.391H69.2812ZM70.2656 159.812C70.2656 161.242 70.9102 162.227 72.082 162.227C73.2891 162.227 73.9102 161.172 73.9102 159.812C73.9102 158.488 73.3008 157.457 72.082 157.457C70.8867 157.457 70.2656 158.406 70.2656 159.812ZM79.0078 156.637V157.48H77.6719V161.172C77.6719 161.992 78.0703 162.121 78.5039 162.121C78.6914 162.121 78.9492 162.109 79.1016 162.098V163.035C78.9492 163.059 78.6914 163.082 78.3984 163.082C77.5547 163.082 76.6523 162.555 76.6523 161.43V157.48H75.6914V156.637H76.6523V155.113H77.6719V156.637H79.0078ZM80.3086 163V156.637H81.3164V163H80.3086ZM80.8125 155.582C80.4258 155.582 80.1094 155.289 80.1094 154.914C80.1094 154.539 80.4258 154.246 80.8125 154.246C81.1992 154.246 81.5273 154.539 81.5273 154.914C81.5273 155.289 81.1992 155.582 80.8125 155.582ZM85.5234 163.129C83.7891 163.129 82.6172 161.828 82.6172 159.848C82.6172 157.867 83.7891 156.555 85.5234 156.555C87.2461 156.555 88.4062 157.867 88.4062 159.848C88.4062 161.828 87.2461 163.129 85.5234 163.129ZM85.5234 162.238C86.8008 162.238 87.3984 161.113 87.3984 159.848C87.3984 158.582 86.8008 157.445 85.5234 157.445C84.2227 157.445 83.625 158.582 83.625 159.848C83.625 161.113 84.2227 162.238 85.5234 162.238ZM90.7383 159.18V163H89.7305V156.637H90.7031V157.633H90.7852C91.0898 156.988 91.6758 156.555 92.6484 156.555C93.9375 156.555 94.793 157.34 94.793 158.957V163H93.7852V159.027C93.7852 158.043 93.2461 157.457 92.3438 157.457C91.418 157.457 90.7383 158.078 90.7383 159.18ZM99.4219 163V156.637H100.43V163H99.4219ZM99.9258 155.582C99.5391 155.582 99.2227 155.289 99.2227 154.914C99.2227 154.539 99.5391 154.246 99.9258 154.246C100.312 154.246 100.641 154.539 100.641 154.914C100.641 155.289 100.312 155.582 99.9258 155.582ZM105.574 158.289C105.434 157.762 105.035 157.41 104.285 157.41C103.5 157.41 102.938 157.832 102.938 158.371C102.938 158.793 103.277 159.086 104.027 159.262L104.977 159.496C106.113 159.766 106.676 160.328 106.676 161.219C106.676 162.32 105.773 163.129 104.18 163.129C102.75 163.129 101.895 162.496 101.73 161.336H102.785C102.902 161.957 103.359 162.25 104.156 162.25C105.059 162.25 105.633 161.875 105.633 161.277C105.633 160.832 105.316 160.527 104.59 160.363L103.629 160.141C102.516 159.883 101.93 159.273 101.93 158.43C101.93 157.34 102.879 156.555 104.285 156.555C105.598 156.555 106.43 157.258 106.559 158.289H105.574ZM112.008 159.18V163H111V156.637H111.973V157.633H112.055C112.359 156.988 112.945 156.555 113.918 156.555C115.207 156.555 116.062 157.34 116.062 158.957V163H115.055V159.027C115.055 158.043 114.516 157.457 113.613 157.457C112.688 157.457 112.008 158.078 112.008 159.18ZM120.281 163.129C118.547 163.129 117.375 161.828 117.375 159.848C117.375 157.867 118.547 156.555 120.281 156.555C122.004 156.555 123.164 157.867 123.164 159.848C123.164 161.828 122.004 163.129 120.281 163.129ZM120.281 162.238C121.559 162.238 122.156 161.113 122.156 159.848C122.156 158.582 121.559 157.445 120.281 157.445C118.98 157.445 118.383 158.582 118.383 159.848C118.383 161.113 118.98 162.238 120.281 162.238ZM127.266 156.637V157.48H125.93V161.172C125.93 161.992 126.328 162.121 126.762 162.121C126.949 162.121 127.207 162.109 127.359 162.098V163.035C127.207 163.059 126.949 163.082 126.656 163.082C125.812 163.082 124.91 162.555 124.91 161.43V157.48H123.949V156.637H124.91V155.113H125.93V156.637H127.266ZM131.273 161.195C131.273 159.73 132.562 159.402 133.664 159.32C134.068 159.291 135.1 159.238 135.387 159.227V158.711C135.387 157.902 134.906 157.434 133.945 157.434C133.137 157.434 132.656 157.809 132.516 158.289H131.461C131.59 157.27 132.586 156.555 133.992 156.555C134.824 156.555 136.383 156.801 136.383 158.805V163H135.387V162.133H135.34C135.129 162.566 134.543 163.152 133.441 163.152C132.234 163.152 131.273 162.438 131.273 161.195ZM132.281 161.242C132.281 161.91 132.844 162.25 133.617 162.25C134.754 162.25 135.387 161.488 135.387 160.691V160.047L133.781 160.164C132.867 160.223 132.281 160.551 132.281 161.242ZM143.004 156.637L140.648 163H139.605L137.262 156.637H138.363L140.098 161.688H140.168L141.902 156.637H143.004ZM143.613 161.195C143.613 159.73 144.902 159.402 146.004 159.32C146.408 159.291 147.439 159.238 147.727 159.227V158.711C147.727 157.902 147.246 157.434 146.285 157.434C145.477 157.434 144.996 157.809 144.855 158.289H143.801C143.93 157.27 144.926 156.555 146.332 156.555C147.164 156.555 148.723 156.801 148.723 158.805V163H147.727V162.133H147.68C147.469 162.566 146.883 163.152 145.781 163.152C144.574 163.152 143.613 162.438 143.613 161.195ZM144.621 161.242C144.621 161.91 145.184 162.25 145.957 162.25C147.094 162.25 147.727 161.488 147.727 160.691V160.047L146.121 160.164C145.207 160.223 144.621 160.551 144.621 161.242ZM150.34 163V156.637H151.348V163H150.34ZM150.844 155.582C150.457 155.582 150.141 155.289 150.141 154.914C150.141 154.539 150.457 154.246 150.844 154.246C151.23 154.246 151.559 154.539 151.559 154.914C151.559 155.289 151.23 155.582 150.844 155.582ZM153.961 154.516V163H152.953V154.516H153.961ZM155.262 161.195C155.262 159.73 156.551 159.402 157.652 159.32C158.057 159.291 159.088 159.238 159.375 159.227V158.711C159.375 157.902 158.895 157.434 157.934 157.434C157.125 157.434 156.645 157.809 156.504 158.289H155.449C155.578 157.27 156.574 156.555 157.98 156.555C158.812 156.555 160.371 156.801 160.371 158.805V163H159.375V162.133H159.328C159.117 162.566 158.531 163.152 157.43 163.152C156.223 163.152 155.262 162.438 155.262 161.195ZM156.27 161.242C156.27 161.91 156.832 162.25 157.605 162.25C158.742 162.25 159.375 161.488 159.375 160.691V160.047L157.77 160.164C156.855 160.223 156.27 160.551 156.27 161.242ZM162.117 163V154.516H163.125V157.645H163.207C163.43 157.305 163.805 156.555 165.047 156.555C166.641 156.555 167.766 157.82 167.766 159.836C167.766 161.852 166.641 163.129 165.059 163.129C163.84 163.129 163.43 162.379 163.207 162.027H163.09V163H162.117ZM163.102 159.812C163.102 161.242 163.746 162.227 164.906 162.227C166.113 162.227 166.746 161.172 166.746 159.812C166.746 158.488 166.137 157.457 164.906 157.457C163.734 157.457 163.102 158.406 163.102 159.812ZM170.086 154.516V163H169.078V154.516H170.086ZM174.363 163.129C172.523 163.129 171.387 161.828 171.387 159.871C171.387 157.914 172.535 156.555 174.27 156.555C175.605 156.555 177.012 157.375 177.012 159.73V160.152H172.395C172.441 161.5 173.227 162.238 174.363 162.238C175.125 162.238 175.605 161.91 175.84 161.512H176.918C176.613 162.473 175.676 163.129 174.363 163.129ZM172.406 159.297H175.992C175.992 158.23 175.312 157.445 174.27 157.445C173.168 157.445 172.465 158.312 172.406 159.297ZM184.184 156.637V157.48H182.777V163H181.758V157.48H180.738V156.637H181.758V155.77C181.758 154.738 182.449 154.117 183.574 154.117C183.82 154.117 184.113 154.152 184.324 154.188V155.09C184.113 155.055 183.926 155.043 183.797 155.043C183.094 155.043 182.777 155.336 182.777 155.992V156.637H184.184ZM187.723 163.129C185.988 163.129 184.816 161.828 184.816 159.848C184.816 157.867 185.988 156.555 187.723 156.555C189.445 156.555 190.605 157.867 190.605 159.848C190.605 161.828 189.445 163.129 187.723 163.129ZM187.723 162.238C189 162.238 189.598 161.113 189.598 159.848C189.598 158.582 189 157.445 187.723 157.445C186.422 157.445 185.824 158.582 185.824 159.848C185.824 161.113 186.422 162.238 187.723 162.238ZM191.93 163V156.637H192.902V157.609H192.973C193.207 156.965 193.863 156.531 194.613 156.531C194.766 156.531 195.023 156.543 195.141 156.555V157.574C195.07 157.551 194.789 157.504 194.531 157.504C193.617 157.504 192.938 158.137 192.938 158.992V163H191.93ZM199.781 165.391C199.559 165.391 199.348 165.379 199.219 165.367V164.465C199.324 164.477 199.559 164.488 199.711 164.488C200.121 164.488 200.461 164.453 200.801 163.527L200.988 163.047L198.633 156.637H199.734L201.469 161.688H201.539L203.273 156.637H204.375L201.68 163.914C201.305 164.91 200.684 165.391 199.781 165.391ZM207.855 163.129C206.121 163.129 204.949 161.828 204.949 159.848C204.949 157.867 206.121 156.555 207.855 156.555C209.578 156.555 210.738 157.867 210.738 159.848C210.738 161.828 209.578 163.129 207.855 163.129ZM207.855 162.238C209.133 162.238 209.73 161.113 209.73 159.848C209.73 158.582 209.133 157.445 207.855 157.445C206.555 157.445 205.957 158.582 205.957 159.848C205.957 161.113 206.555 162.238 207.855 162.238ZM216.082 160.387V156.637H217.078V163H216.082V161.922H216.012C215.707 162.566 215.086 163.082 214.125 163.082C212.918 163.082 212.062 162.297 212.062 160.68V156.637H213.07V160.609C213.07 161.523 213.645 162.109 214.453 162.109C215.168 162.109 216.082 161.57 216.082 160.387ZM218.695 163V156.637H219.668V157.609H219.738C219.973 156.965 220.629 156.531 221.379 156.531C221.531 156.531 221.789 156.543 221.906 156.555V157.574C221.836 157.551 221.555 157.504 221.297 157.504C220.383 157.504 219.703 158.137 219.703 158.992V163H218.695ZM228.504 163.129C226.699 163.129 225.598 161.758 225.598 159.848C225.598 157.914 226.746 156.555 228.48 156.555C229.84 156.555 230.848 157.352 231.012 158.559H230.004C229.863 157.973 229.348 157.445 228.504 157.445C227.367 157.445 226.605 158.383 226.605 159.812C226.605 161.289 227.344 162.227 228.504 162.227C229.254 162.227 229.828 161.828 230.004 161.125H231.012C230.848 162.262 229.922 163.129 228.504 163.129ZM236.273 160.387V156.637H237.27V163H236.273V161.922H236.203C235.898 162.566 235.277 163.082 234.316 163.082C233.109 163.082 232.254 162.297 232.254 160.68V156.637H233.262V160.609C233.262 161.523 233.836 162.109 234.645 162.109C235.359 162.109 236.273 161.57 236.273 160.387ZM238.887 163V156.637H239.859V157.609H239.93C240.164 156.965 240.82 156.531 241.57 156.531C241.723 156.531 241.98 156.543 242.098 156.555V157.574C242.027 157.551 241.746 157.504 241.488 157.504C240.574 157.504 239.895 158.137 239.895 158.992V163H238.887ZM243.082 163V156.637H244.055V157.609H244.125C244.359 156.965 245.016 156.531 245.766 156.531C245.918 156.531 246.176 156.543 246.293 156.555V157.574C246.223 157.551 245.941 157.504 245.684 157.504C244.77 157.504 244.09 158.137 244.09 158.992V163H243.082ZM249.75 163.129C247.91 163.129 246.773 161.828 246.773 159.871C246.773 157.914 247.922 156.555 249.656 156.555C250.992 156.555 252.398 157.375 252.398 159.73V160.152H247.781C247.828 161.5 248.613 162.238 249.75 162.238C250.512 162.238 250.992 161.91 251.227 161.512H252.305C252 162.473 251.062 163.129 249.75 163.129ZM247.793 159.297H251.379C251.379 158.23 250.699 157.445 249.656 157.445C248.555 157.445 247.852 158.312 247.793 159.297ZM254.719 159.18V163H253.711V156.637H254.684V157.633H254.766C255.07 156.988 255.656 156.555 256.629 156.555C257.918 156.555 258.773 157.34 258.773 158.957V163H257.766V159.027C257.766 158.043 257.227 157.457 256.324 157.457C255.398 157.457 254.719 158.078 254.719 159.18ZM263.168 156.637V157.48H261.832V161.172C261.832 161.992 262.23 162.121 262.664 162.121C262.852 162.121 263.109 162.109 263.262 162.098V163.035C263.109 163.059 262.852 163.082 262.559 163.082C261.715 163.082 260.812 162.555 260.812 161.43V157.48H259.852V156.637H260.812V155.113H261.832V156.637H263.168ZM36.8086 179.391V170.637H37.7812V171.645H37.8984C38.1094 171.305 38.5078 170.555 39.7383 170.555C41.332 170.555 42.4453 171.82 42.4453 173.836C42.4453 175.852 41.332 177.129 39.75 177.129C38.5312 177.129 38.1094 176.379 37.8984 176.027H37.8164V179.391H36.8086ZM37.793 173.812C37.793 175.242 38.4375 176.227 39.6094 176.227C40.8164 176.227 41.4375 175.172 41.4375 173.812C41.4375 172.488 40.8281 171.457 39.6094 171.457C38.4141 171.457 37.793 172.406 37.793 173.812ZM44.7656 168.516V177H43.7578V168.516H44.7656ZM46.0664 175.195C46.0664 173.73 47.3555 173.402 48.457 173.32C48.8613 173.291 49.8926 173.238 50.1797 173.227V172.711C50.1797 171.902 49.6992 171.434 48.7383 171.434C47.9297 171.434 47.4492 171.809 47.3086 172.289H46.2539C46.3828 171.27 47.3789 170.555 48.7852 170.555C49.6172 170.555 51.1758 170.801 51.1758 172.805V177H50.1797V176.133H50.1328C49.9219 176.566 49.3359 177.152 48.2344 177.152C47.0273 177.152 46.0664 176.438 46.0664 175.195ZM47.0742 175.242C47.0742 175.91 47.6367 176.25 48.4102 176.25C49.5469 176.25 50.1797 175.488 50.1797 174.691V174.047L48.5742 174.164C47.6602 174.223 47.0742 174.551 47.0742 175.242ZM53.8008 173.18V177H52.793V170.637H53.7656V171.633H53.8477C54.1523 170.988 54.7383 170.555 55.7109 170.555C57 170.555 57.8555 171.34 57.8555 172.957V177H56.8477V173.027C56.8477 172.043 56.3086 171.457 55.4062 171.457C54.4805 171.457 53.8008 172.078 53.8008 173.18ZM60.1875 177.07C59.7773 177.07 59.4258 176.73 59.4375 176.309C59.4258 175.898 59.7773 175.559 60.1875 175.559C60.5977 175.559 60.9375 175.898 60.9375 176.309C60.9375 176.73 60.5977 177.07 60.1875 177.07Z" fill="var(--sol-error-dim)"/>
</g>
<defs>
<clipPath id="clip0_1670_178397">
<path d="M0 8C0 3.58173 3.58172 0 8 0H434C438.418 0 442 3.58172 442 8V192C442 196.418 438.418 200 434 200H8C3.58172 200 0 196.418 0 192V8Z" fill="var(--sol-surface)"/>
</clipPath>
<clipPath id="clip1_1670_178397">
<rect width="229" height="96" fill="var(--sol-surface)" transform="translate(36 48)"/>
</clipPath>
<clipPath id="clip2_1670_178397">
<path d="M39.334 63.9997C39.334 60.3178 42.3188 57.333 46.0007 57.333V57.333C49.6825 57.333 52.6673 60.3178 52.6673 63.9997V63.9997C52.6673 67.6816 49.6825 70.6663 46.0007 70.6663V70.6663C42.3188 70.6663 39.334 67.6816 39.334 63.9997V63.9997Z" fill="var(--sol-surface)"/>
</clipPath>
<clipPath id="clip3_1670_178397">
<path d="M39.334 95.9997C39.334 92.3178 42.3188 89.333 46.0007 89.333V89.333C49.6825 89.333 52.6673 92.3178 52.6673 95.9997V95.9997C52.6673 99.6816 49.6825 102.666 46.0007 102.666V102.666C42.3188 102.666 39.334 99.6816 39.334 95.9997V95.9997Z" fill="var(--sol-surface)"/>
</clipPath>
<clipPath id="clip4_1670_178397">
<path d="M39.334 128C39.334 124.318 42.3188 121.333 46.0007 121.333V121.333C49.6825 121.333 52.6673 124.318 52.6673 128V128C52.6673 131.682 49.6825 134.666 46.0007 134.666V134.666C42.3188 134.666 39.334 131.682 39.334 128V128Z" fill="var(--sol-surface)"/>
</clipPath>
</defs>
</svg>
