<svg width="442" height="130" viewBox="0 0 442 130" fill="none" xmlns="http://www.w3.org/2000/svg">
<style>
:root {
  --sol-element-primary: #161616;
  --sol-element-tertiary: #636363;
  --sol-element-quaternary: #858585;
  --sol-fill-active: #4d469a;
  --sol-surface: #ffffff;
  --sol-error: #e76067;
  --sol-error-dim: #b84451;
  --sol-static-white: #ffffff;
  --sol-static-black: #000000;
}
@media (prefers-color-scheme: dark) {
  :root {
    --sol-element-primary: #ffffff;
    --sol-element-tertiary: rgba(255, 255, 255, 0.6);
    --sol-element-quaternary: rgba(255, 255, 255, 0.5);
    --sol-fill-active: #7b74c4;
    --sol-surface: #161616;
    --sol-error: #ee7a80;
    --sol-error-dim: #e76067;
  }
}
</style>
<g clip-path="url(#clip0_1670_178448)">
<g clip-path="url(#clip1_1670_178448)">
<path d="M40 33C40 28.5817 43.5817 25 48 25V25C52.4183 25 56 28.5817 56 33V33C56 37.4183 52.4183 41 48 41V41C43.5817 41 40 37.4183 40 33V33Z" fill="var(--sol-fill-active)"/>
<circle cx="48" cy="33" r="4" fill="var(--sol-surface)"/>
</g>
<path d="M75.8477 31.1914C75.4238 29.9199 74.4531 29.1133 73.0449 29.1133C71.2949 29.1133 69.9004 30.4941 69.9004 33.0508C69.9004 35.6074 71.2949 36.9883 73.127 36.9883C74.8018 36.9883 75.9434 35.8672 75.9707 34.1172H73.3867V33.0371H77.1738V34.1035C77.1738 36.5645 75.4785 38.1367 73.127 38.1367C70.4883 38.1367 68.7109 36.1816 68.7109 33.0508C68.7109 29.9199 70.502 27.9648 73.0449 27.9648C75.1367 27.9648 76.75 29.2773 77.1191 31.1914H75.8477ZM78.5137 35.8945C78.5137 34.1855 80.0176 33.8027 81.3027 33.707C81.7744 33.6729 82.9775 33.6113 83.3125 33.5977V32.9961C83.3125 32.0527 82.752 31.5059 81.6309 31.5059C80.6875 31.5059 80.127 31.9434 79.9629 32.5039H78.7324C78.8828 31.3145 80.0449 30.4805 81.6855 30.4805C82.6562 30.4805 84.4746 30.7676 84.4746 33.1055V38H83.3125V36.9883H83.2578C83.0117 37.4941 82.3281 38.1777 81.043 38.1777C79.6348 38.1777 78.5137 37.3438 78.5137 35.8945ZM79.6895 35.9492C79.6895 36.7285 80.3457 37.125 81.248 37.125C82.5742 37.125 83.3125 36.2363 83.3125 35.3066V34.5547L81.4395 34.6914C80.373 34.7598 79.6895 35.1426 79.6895 35.9492ZM89.6016 30.5762V31.5605H88.043V35.8672C88.043 36.8242 88.5078 36.9746 89.0137 36.9746C89.2324 36.9746 89.5332 36.9609 89.7109 36.9473V38.041C89.5332 38.0684 89.2324 38.0957 88.8906 38.0957C87.9062 38.0957 86.8535 37.4805 86.8535 36.168V31.5605H85.7324V30.5762H86.8535V28.7988H88.043V30.5762H89.6016ZM94.168 38.1504C92.0215 38.1504 90.6953 36.6328 90.6953 34.3496C90.6953 32.0664 92.0352 30.4805 94.0586 30.4805C95.6172 30.4805 97.2578 31.4375 97.2578 34.1855V34.6777H91.8711C91.9258 36.25 92.8418 37.1113 94.168 37.1113C95.0566 37.1113 95.6172 36.7285 95.8906 36.2637H97.1484C96.793 37.3848 95.6992 38.1504 94.168 38.1504ZM91.8848 33.6797H96.0684C96.0684 32.4355 95.2754 31.5195 94.0586 31.5195C92.7734 31.5195 91.9531 32.5312 91.8848 33.6797ZM100.457 38L98.2012 30.5762H99.4453L101.031 36.2363H101.1L102.672 30.5762H103.93L105.475 36.209H105.557L107.143 30.5762H108.373L106.117 38H104.955L103.342 32.3398H103.232L101.633 38H100.457ZM109.316 35.8945C109.316 34.1855 110.82 33.8027 112.105 33.707C112.577 33.6729 113.78 33.6113 114.115 33.5977V32.9961C114.115 32.0527 113.555 31.5059 112.434 31.5059C111.49 31.5059 110.93 31.9434 110.766 32.5039H109.535C109.686 31.3145 110.848 30.4805 112.488 30.4805C113.459 30.4805 115.277 30.7676 115.277 33.1055V38H114.115V36.9883H114.061C113.814 37.4941 113.131 38.1777 111.846 38.1777C110.438 38.1777 109.316 37.3438 109.316 35.8945ZM110.492 35.9492C110.492 36.7285 111.148 37.125 112.051 37.125C113.377 37.125 114.115 36.2363 114.115 35.3066V34.5547L112.242 34.6914C111.176 34.7598 110.492 35.1426 110.492 35.9492ZM117.643 40.7891C117.383 40.7891 117.137 40.7754 116.986 40.7617V39.709C117.109 39.7227 117.383 39.7363 117.561 39.7363C118.039 39.7363 118.436 39.6953 118.832 38.6152L119.051 38.0547L116.303 30.5762H117.588L119.611 36.4688H119.693L121.717 30.5762H123.002L119.857 39.0664C119.42 40.2285 118.695 40.7891 117.643 40.7891Z" fill="var(--sol-element-primary)"/>
<path d="M40 65C40 60.5817 43.5817 57 48 57V57C52.4183 57 56 60.5817 56 65V65C56 69.4183 52.4183 73 48 73V73C43.5817 73 40 69.4183 40 65V65Z" fill="var(--sol-surface)"/>
<path d="M48 57.5C52.1421 57.5 55.5 60.8579 55.5 65C55.5 69.1421 52.1421 72.5 48 72.5C43.8579 72.5 40.5 69.1421 40.5 65C40.5 60.8579 43.8579 57.5 48 57.5Z" stroke="var(--sol-element-primary)" stroke-opacity="0.16"/>
<path d="M69.0938 70V60.1016H75.0957V61.1953H70.3242V64.5039H74.7812V65.584H70.3242V68.9062H75.1641V70H69.0938ZM82.4375 62.5898C82.3281 61.6191 81.4395 61.0586 80.25 61.0586C78.9375 61.0586 78.0762 61.7422 78.0762 62.6855C78.0762 63.7246 79.2383 64.1074 79.9902 64.2988L80.9746 64.5723C82.041 64.8457 83.7773 65.4609 83.7773 67.3066C83.7773 68.9199 82.4785 70.1777 80.1816 70.1777C78.0488 70.1777 76.7227 69.0703 76.6133 67.4297H77.8711C77.9805 68.5371 79.0059 69.0566 80.1816 69.0566C81.5488 69.0566 82.5742 68.3594 82.5742 67.2793C82.5742 66.3223 81.6582 65.9531 80.6191 65.6523L79.4023 65.3242C77.8438 64.873 76.8867 64.0801 76.8867 62.7402C76.8867 61.0723 78.377 59.9648 80.291 59.9648C82.2051 59.9648 83.5859 61.0859 83.6406 62.5898H82.4375ZM85.541 70V60.1016H86.7715V68.9062H91.3652V70H85.541Z" fill="var(--sol-element-primary)"/>
<path d="M40 97C40 92.5817 43.5817 89 48 89V89C52.4183 89 56 92.5817 56 97V97C56 101.418 52.4183 105 48 105V105C43.5817 105 40 101.418 40 97V97Z" fill="var(--sol-surface)"/>
<path d="M48 89.5C52.1421 89.5 55.5 92.8579 55.5 97C55.5 101.142 52.1421 104.5 48 104.5C43.8579 104.5 40.5 101.142 40.5 97C40.5 92.8579 43.8579 89.5 48 89.5Z" stroke="var(--sol-element-primary)" stroke-opacity="0.16"/>
<path d="M76.9551 92.1016V102H75.7793L70.4199 94.2891H70.3242V102H69.0938V92.1016H70.2832L75.6426 99.8262H75.7383V92.1016H76.9551ZM82.1094 102.15C79.9629 102.15 78.6367 100.633 78.6367 98.3496C78.6367 96.0664 79.9766 94.4805 82 94.4805C83.5586 94.4805 85.1992 95.4375 85.1992 98.1855V98.6777H79.8125C79.8672 100.25 80.7832 101.111 82.1094 101.111C82.998 101.111 83.5586 100.729 83.832 100.264H85.0898C84.7344 101.385 83.6406 102.15 82.1094 102.15ZM79.8262 97.6797H84.0098C84.0098 96.4355 83.2168 95.5195 82 95.5195C80.7148 95.5195 79.8945 96.5312 79.8262 97.6797ZM88.3984 102L86.1426 94.5762H87.3867L88.9727 100.236H89.041L90.6133 94.5762H91.8711L93.416 100.209H93.498L95.084 94.5762H96.3145L94.0586 102H92.8965L91.2832 96.3398H91.1738L89.5742 102H88.3984ZM100.854 94.5762V95.5605H99.2949V99.8672C99.2949 100.824 99.7598 100.975 100.266 100.975C100.484 100.975 100.785 100.961 100.963 100.947V102.041C100.785 102.068 100.484 102.096 100.143 102.096C99.1582 102.096 98.1055 101.48 98.1055 100.168V95.5605H96.9844V94.5762H98.1055V92.7988H99.2949V94.5762H100.854ZM105.338 102.15C103.314 102.15 101.947 100.633 101.947 98.3223C101.947 96.0117 103.314 94.4805 105.338 94.4805C107.348 94.4805 108.701 96.0117 108.701 98.3223C108.701 100.633 107.348 102.15 105.338 102.15ZM105.338 101.111C106.828 101.111 107.525 99.7988 107.525 98.3223C107.525 96.8457 106.828 95.5195 105.338 95.5195C103.82 95.5195 103.123 96.8457 103.123 98.3223C103.123 99.7988 103.82 101.111 105.338 101.111ZM111.422 97.543V102H110.246V94.5762H111.381V95.7383H111.477C111.832 94.9863 112.516 94.4805 113.65 94.4805C115.154 94.4805 116.152 95.3965 116.152 97.2832V102H114.977V97.3652C114.977 96.2168 114.348 95.5332 113.295 95.5332C112.215 95.5332 111.422 96.2578 111.422 97.543ZM121.703 102V92.1016H127.705V93.1953H122.934V96.5039H127.391V97.584H122.934V100.906H127.773V102H121.703ZM130.248 104.789C129.988 104.789 129.742 104.775 129.592 104.762V103.709C129.715 103.723 129.988 103.736 130.166 103.736C130.645 103.736 131.041 103.695 131.438 102.615L131.656 102.055L128.908 94.5762H130.193L132.217 100.469H132.299L134.322 94.5762H135.607L132.463 103.066C132.025 104.229 131.301 104.789 130.248 104.789ZM139.75 102.15C137.604 102.15 136.277 100.633 136.277 98.3496C136.277 96.0664 137.617 94.4805 139.641 94.4805C141.199 94.4805 142.84 95.4375 142.84 98.1855V98.6777H137.453C137.508 100.25 138.424 101.111 139.75 101.111C140.639 101.111 141.199 100.729 141.473 100.264H142.73C142.375 101.385 141.281 102.15 139.75 102.15ZM137.467 97.6797H141.65C141.65 96.4355 140.857 95.5195 139.641 95.5195C138.355 95.5195 137.535 96.5312 137.467 97.6797Z" fill="var(--sol-element-primary)"/>
</g>
<defs>
<clipPath id="clip0_1670_178448">
<path d="M0 8C0 3.58172 3.58172 0 8 0H434C438.418 0 442 3.58172 442 8V122C442 126.418 438.418 130 434 130H8C3.58172 130 0 126.418 0 122V8Z" fill="var(--sol-surface)"/>
</clipPath>
<clipPath id="clip1_1670_178448">
<path d="M40 33C40 28.5817 43.5817 25 48 25V25C52.4183 25 56 28.5817 56 33V33C56 37.4183 52.4183 41 48 41V41C43.5817 41 40 37.4183 40 33V33Z" fill="var(--sol-surface)"/>
</clipPath>
</defs>
</svg>
