<svg width="900" height="368" viewBox="0 0 900 368" fill="none" xmlns="http://www.w3.org/2000/svg">
<style>
:root {
  --sol-element-primary: #161616;
  --sol-element-quaternary: #858585;
  --sol-element-brand-variant: #3a3480;
  --sol-fill-active: #4d469a;
  --sol-selected-container-variant: #f5f4fd;
  --sol-surface: #ffffff;
  --sol-border-solid-variant: #e0e0e0;
  --sol-error-dim: #b84451;
  --sol-static-white: #ffffff;
  --sol-static-black: #000000;
}
@media (prefers-color-scheme: dark) {
  :root {
    --sol-element-primary: #ffffff;
    --sol-element-quaternary: rgba(255, 255, 255, 0.5);
    --sol-element-brand-variant: #ffffff;
    --sol-fill-active: #7b74c4;
    --sol-selected-container-variant: rgba(0, 0, 0, 0.08);
    --sol-surface: #161616;
    --sol-border-solid-variant: #3d3d3d;
    --sol-error-dim: #e76067;
  }
}
</style>
<path d="M48.916 69V59.1016H55.3555V60.5918H50.6934V63.2988H55.0137V64.7891H50.6934V67.4961H55.3828V69H48.916ZM58.7324 64.6523V69H56.9824V61.5762H58.6504V62.834H58.7461C59.0879 62 59.8398 61.4805 60.9473 61.4805C62.4922 61.4805 63.5039 62.4922 63.4902 64.2695V69H61.7539V64.543C61.7539 63.5449 61.2207 62.957 60.3047 62.957C59.375 62.957 58.7324 63.5723 58.7324 64.6523ZM64.8164 66.9082C64.8164 65.2402 66.1973 64.748 67.5781 64.666C68.0908 64.6318 69.1572 64.5703 69.4785 64.5566V63.9688C69.4785 63.2305 69 62.8066 68.1387 62.8066C67.3594 62.8066 66.8809 63.1621 66.7441 63.6953H65.0625C65.1855 62.4375 66.3203 61.4805 68.1797 61.4805C69.5879 61.4805 71.2148 62.0547 71.2148 64.0371V69H69.5469V67.9746H69.4922C69.1641 68.6035 68.4668 69.1504 67.3047 69.1504C65.8828 69.1504 64.8164 68.3711 64.8164 66.9082ZM66.498 66.8945C66.498 67.5371 67.0176 67.8652 67.7559 67.8652C68.8086 67.8652 69.4922 67.168 69.4922 66.334V65.7188L67.8516 65.8281C67.0176 65.8965 66.498 66.2383 66.498 66.8945ZM72.9375 69V59.1016H74.6875V62.793H74.7559C75.0293 62.2598 75.5625 61.4805 76.875 61.4805C78.5977 61.4805 79.9512 62.8203 79.9512 65.2949C79.9512 67.7422 78.625 69.1367 76.8887 69.1367C75.6035 69.1367 75.0293 68.3711 74.7559 67.8242H74.6465V69H72.9375ZM74.6465 65.2812C74.6465 66.7305 75.2754 67.7012 76.3965 67.7012C77.5586 67.7012 78.1738 66.6895 78.1738 65.2812C78.1738 63.9004 77.5723 62.9023 76.3965 62.9023C75.2754 62.9023 74.6465 63.8457 74.6465 65.2812ZM83.0684 59.1016V69H81.3184V59.1016H83.0684ZM88.0312 69.1504C85.7891 69.1504 84.4219 67.6602 84.4219 65.3359C84.4219 63.0391 85.8164 61.4805 87.9355 61.4805C89.7539 61.4805 91.3262 62.6152 91.3262 65.2266V65.7734H86.1445C86.165 67.0381 86.9102 67.7832 88.0449 67.7832C88.8105 67.7832 89.3301 67.4551 89.5488 67.0176H91.2578C90.9434 68.3027 89.7539 69.1504 88.0312 69.1504ZM86.1582 64.584H89.6582C89.6445 63.5723 88.9746 62.834 87.9629 62.834C86.9102 62.834 86.2129 63.6338 86.1582 64.584ZM95.4414 69.1367C93.6914 69.1367 92.3789 67.7422 92.3789 65.2949C92.3789 62.8203 93.7324 61.4805 95.4551 61.4805C96.7676 61.4805 97.3145 62.2598 97.5742 62.793H97.6426V59.1016H99.3789V69H97.6699V67.8242H97.5742C97.3008 68.3711 96.7266 69.1367 95.4414 69.1367ZM95.9199 67.7012C97.041 67.7012 97.6836 66.7305 97.6836 65.2812C97.6836 63.8457 97.0547 62.9023 95.9199 62.9023C94.7578 62.9023 94.1562 63.9004 94.1562 65.2812C94.1562 66.6895 94.7715 67.7012 95.9199 67.7012Z" fill="var(--sol-element-quaternary)"/>
<g clip-path="url(#clip0_1669_181597)">
<path d="M228 52C228 49.7909 229.791 48 232 48H464C466.209 48 468 49.7909 468 52V76C468 78.2091 466.209 80 464 80H232C229.791 80 228 78.2091 228 76V52Z" fill="var(--sol-element-primary)" fill-opacity="0.04"/>
<g filter="url(#filter0_d_1669_181597)">
<g clip-path="url(#clip1_1669_181597)">
<path d="M231 53C231 51.8954 231.895 51 233 51H307C308.105 51 309 51.8954 309 53V75C309 76.1046 308.105 77 307 77H233C231.895 77 231 76.1046 231 75V53Z" fill="var(--sol-surface)"/>
<path d="M258.715 59.5156V68H257.215V59.5156H258.715ZM259.852 66.207C259.852 64.7773 261.035 64.3555 262.219 64.2852C262.658 64.2559 263.572 64.2031 263.848 64.1914V63.6875C263.848 63.0547 263.438 62.6914 262.699 62.6914C262.031 62.6914 261.621 62.9961 261.504 63.4531H260.062C260.168 62.375 261.141 61.5547 262.734 61.5547C263.941 61.5547 265.336 62.0469 265.336 63.7461V68H263.906V67.1211H263.859C263.578 67.6602 262.98 68.1289 261.984 68.1289C260.766 68.1289 259.852 67.4609 259.852 66.207ZM261.293 66.1953C261.293 66.7461 261.738 67.0273 262.371 67.0273C263.273 67.0273 263.859 66.4297 263.859 65.7148V65.1875L262.453 65.2812C261.738 65.3398 261.293 65.6328 261.293 66.1953ZM266.812 68V59.5156H268.312V62.6797H268.371C268.605 62.2227 269.062 61.5547 270.188 61.5547C271.664 61.5547 272.824 62.7031 272.824 64.8242C272.824 66.9219 271.688 68.1172 270.199 68.1172C269.098 68.1172 268.605 67.4609 268.371 66.9922H268.277V68H266.812ZM268.277 64.8125C268.277 66.0547 268.816 66.8867 269.777 66.8867C270.773 66.8867 271.301 66.0195 271.301 64.8125C271.301 63.6289 270.785 62.7734 269.777 62.7734C268.816 62.7734 268.277 63.582 268.277 64.8125ZM276.82 68.1289C274.898 68.1289 273.727 66.8516 273.727 64.8594C273.727 62.8906 274.922 61.5547 276.738 61.5547C278.297 61.5547 279.645 62.5273 279.645 64.7656V65.2344H275.203C275.221 66.3184 275.859 66.957 276.832 66.957C277.488 66.957 277.934 66.6758 278.121 66.3008H279.586C279.316 67.4023 278.297 68.1289 276.82 68.1289ZM275.215 64.2148H278.215C278.203 63.3477 277.629 62.7148 276.762 62.7148C275.859 62.7148 275.262 63.4004 275.215 64.2148ZM282.305 59.5156V68H280.805V59.5156H282.305Z" fill="var(--sol-element-primary)"/>
</g>
</g>
<g clip-path="url(#clip2_1669_181597)">
<path d="M336.715 59.5156V68H335.215V59.5156H336.715ZM337.852 66.207C337.852 64.7773 339.035 64.3555 340.219 64.2852C340.658 64.2559 341.572 64.2031 341.848 64.1914V63.6875C341.848 63.0547 341.438 62.6914 340.699 62.6914C340.031 62.6914 339.621 62.9961 339.504 63.4531H338.062C338.168 62.375 339.141 61.5547 340.734 61.5547C341.941 61.5547 343.336 62.0469 343.336 63.7461V68H341.906V67.1211H341.859C341.578 67.6602 340.98 68.1289 339.984 68.1289C338.766 68.1289 337.852 67.4609 337.852 66.207ZM339.293 66.1953C339.293 66.7461 339.738 67.0273 340.371 67.0273C341.273 67.0273 341.859 66.4297 341.859 65.7148V65.1875L340.453 65.2812C339.738 65.3398 339.293 65.6328 339.293 66.1953ZM344.812 68V59.5156H346.312V62.6797H346.371C346.605 62.2227 347.062 61.5547 348.188 61.5547C349.664 61.5547 350.824 62.7031 350.824 64.8242C350.824 66.9219 349.688 68.1172 348.199 68.1172C347.098 68.1172 346.605 67.4609 346.371 66.9922H346.277V68H344.812ZM346.277 64.8125C346.277 66.0547 346.816 66.8867 347.777 66.8867C348.773 66.8867 349.301 66.0195 349.301 64.8125C349.301 63.6289 348.785 62.7734 347.777 62.7734C346.816 62.7734 346.277 63.582 346.277 64.8125ZM354.82 68.1289C352.898 68.1289 351.727 66.8516 351.727 64.8594C351.727 62.8906 352.922 61.5547 354.738 61.5547C356.297 61.5547 357.645 62.5273 357.645 64.7656V65.2344H353.203C353.221 66.3184 353.859 66.957 354.832 66.957C355.488 66.957 355.934 66.6758 356.121 66.3008H357.586C357.316 67.4023 356.297 68.1289 354.82 68.1289ZM353.215 64.2148H356.215C356.203 63.3477 355.629 62.7148 354.762 62.7148C353.859 62.7148 353.262 63.4004 353.215 64.2148ZM360.305 59.5156V68H358.805V59.5156H360.305Z" fill="var(--sol-element-quaternary)"/>
</g>
<g clip-path="url(#clip3_1669_181597)">
<path d="M414.715 59.5156V68H413.215V59.5156H414.715ZM415.852 66.207C415.852 64.7773 417.035 64.3555 418.219 64.2852C418.658 64.2559 419.572 64.2031 419.848 64.1914V63.6875C419.848 63.0547 419.438 62.6914 418.699 62.6914C418.031 62.6914 417.621 62.9961 417.504 63.4531H416.062C416.168 62.375 417.141 61.5547 418.734 61.5547C419.941 61.5547 421.336 62.0469 421.336 63.7461V68H419.906V67.1211H419.859C419.578 67.6602 418.98 68.1289 417.984 68.1289C416.766 68.1289 415.852 67.4609 415.852 66.207ZM417.293 66.1953C417.293 66.7461 417.738 67.0273 418.371 67.0273C419.273 67.0273 419.859 66.4297 419.859 65.7148V65.1875L418.453 65.2812C417.738 65.3398 417.293 65.6328 417.293 66.1953ZM422.812 68V59.5156H424.312V62.6797H424.371C424.605 62.2227 425.062 61.5547 426.188 61.5547C427.664 61.5547 428.824 62.7031 428.824 64.8242C428.824 66.9219 427.688 68.1172 426.199 68.1172C425.098 68.1172 424.605 67.4609 424.371 66.9922H424.277V68H422.812ZM424.277 64.8125C424.277 66.0547 424.816 66.8867 425.777 66.8867C426.773 66.8867 427.301 66.0195 427.301 64.8125C427.301 63.6289 426.785 62.7734 425.777 62.7734C424.816 62.7734 424.277 63.582 424.277 64.8125ZM432.82 68.1289C430.898 68.1289 429.727 66.8516 429.727 64.8594C429.727 62.8906 430.922 61.5547 432.738 61.5547C434.297 61.5547 435.645 62.5273 435.645 64.7656V65.2344H431.203C431.221 66.3184 431.859 66.957 432.832 66.957C433.488 66.957 433.934 66.6758 434.121 66.3008H435.586C435.316 67.4023 434.297 68.1289 432.82 68.1289ZM431.215 64.2148H434.215C434.203 63.3477 433.629 62.7148 432.762 62.7148C431.859 62.7148 431.262 63.4004 431.215 64.2148ZM438.305 59.5156V68H436.805V59.5156H438.305Z" fill="var(--sol-element-quaternary)"/>
</g>
</g>
<g clip-path="url(#clip4_1669_181597)">
<path d="M532 48.5H764C765.933 48.5 767.5 50.067 767.5 52V76C767.5 77.933 765.933 79.5 764 79.5H532C530.067 79.5 528.5 77.933 528.5 76V52C528.5 50.067 530.067 48.5 532 48.5Z" stroke="var(--sol-border-solid-variant)"/>
<g clip-path="url(#clip5_1669_181597)">
<path d="M528 52C528 49.7909 529.791 48 532 48H608V80H532C529.791 80 528 78.2091 528 76V52Z" fill="var(--sol-selected-container-variant)"/>
<path d="M532 48.5H607.5V79.5H532C530.067 79.5 528.5 77.933 528.5 76V52C528.5 50.067 530.067 48.5 532 48.5Z" stroke="var(--sol-fill-active)"/>
<path d="M556.955 59.5156V68H555.455V59.5156H556.955ZM558.092 66.207C558.092 64.7773 559.275 64.3555 560.459 64.2852C560.898 64.2559 561.812 64.2031 562.088 64.1914V63.6875C562.088 63.0547 561.678 62.6914 560.939 62.6914C560.271 62.6914 559.861 62.9961 559.744 63.4531H558.303C558.408 62.375 559.381 61.5547 560.975 61.5547C562.182 61.5547 563.576 62.0469 563.576 63.7461V68H562.146V67.1211H562.1C561.818 67.6602 561.221 68.1289 560.225 68.1289C559.006 68.1289 558.092 67.4609 558.092 66.207ZM559.533 66.1953C559.533 66.7461 559.979 67.0273 560.611 67.0273C561.514 67.0273 562.1 66.4297 562.1 65.7148V65.1875L560.693 65.2812C559.979 65.3398 559.533 65.6328 559.533 66.1953ZM565.053 68V59.5156H566.553V62.6797H566.611C566.846 62.2227 567.303 61.5547 568.428 61.5547C569.904 61.5547 571.064 62.7031 571.064 64.8242C571.064 66.9219 569.928 68.1172 568.439 68.1172C567.338 68.1172 566.846 67.4609 566.611 66.9922H566.518V68H565.053ZM566.518 64.8125C566.518 66.0547 567.057 66.8867 568.018 66.8867C569.014 66.8867 569.541 66.0195 569.541 64.8125C569.541 63.6289 569.025 62.7734 568.018 62.7734C567.057 62.7734 566.518 63.582 566.518 64.8125ZM575.061 68.1289C573.139 68.1289 571.967 66.8516 571.967 64.8594C571.967 62.8906 573.162 61.5547 574.979 61.5547C576.537 61.5547 577.885 62.5273 577.885 64.7656V65.2344H573.443C573.461 66.3184 574.1 66.957 575.072 66.957C575.729 66.957 576.174 66.6758 576.361 66.3008H577.826C577.557 67.4023 576.537 68.1289 575.061 68.1289ZM573.455 64.2148H576.455C576.443 63.3477 575.869 62.7148 575.002 62.7148C574.1 62.7148 573.502 63.4004 573.455 64.2148ZM580.545 59.5156V68H579.045V59.5156H580.545Z" fill="var(--sol-element-brand-variant)"/>
</g>
<g clip-path="url(#clip6_1669_181597)">
<mask id="path-15-outside-1_1669_181597" maskUnits="userSpaceOnUse" x="608" y="48" width="81" height="32" fill="var(--sol-static-black)">
<rect fill="var(--sol-surface)" x="608" y="48" width="81" height="32"/>
<path d="M608 48H688V80H608V48Z"/>
</mask>
<path d="M688 48H687V80H688H689V48H688Z" fill="var(--sol-border-solid-variant)" mask="url(#path-15-outside-1_1669_181597)"/>
<path d="M636.955 59.5156V68H635.455V59.5156H636.955ZM638.092 66.207C638.092 64.7773 639.275 64.3555 640.459 64.2852C640.898 64.2559 641.812 64.2031 642.088 64.1914V63.6875C642.088 63.0547 641.678 62.6914 640.939 62.6914C640.271 62.6914 639.861 62.9961 639.744 63.4531H638.303C638.408 62.375 639.381 61.5547 640.975 61.5547C642.182 61.5547 643.576 62.0469 643.576 63.7461V68H642.146V67.1211H642.1C641.818 67.6602 641.221 68.1289 640.225 68.1289C639.006 68.1289 638.092 67.4609 638.092 66.207ZM639.533 66.1953C639.533 66.7461 639.979 67.0273 640.611 67.0273C641.514 67.0273 642.1 66.4297 642.1 65.7148V65.1875L640.693 65.2812C639.979 65.3398 639.533 65.6328 639.533 66.1953ZM645.053 68V59.5156H646.553V62.6797H646.611C646.846 62.2227 647.303 61.5547 648.428 61.5547C649.904 61.5547 651.064 62.7031 651.064 64.8242C651.064 66.9219 649.928 68.1172 648.439 68.1172C647.338 68.1172 646.846 67.4609 646.611 66.9922H646.518V68H645.053ZM646.518 64.8125C646.518 66.0547 647.057 66.8867 648.018 66.8867C649.014 66.8867 649.541 66.0195 649.541 64.8125C649.541 63.6289 649.025 62.7734 648.018 62.7734C647.057 62.7734 646.518 63.582 646.518 64.8125ZM655.061 68.1289C653.139 68.1289 651.967 66.8516 651.967 64.8594C651.967 62.8906 653.162 61.5547 654.979 61.5547C656.537 61.5547 657.885 62.5273 657.885 64.7656V65.2344H653.443C653.461 66.3184 654.1 66.957 655.072 66.957C655.729 66.957 656.174 66.6758 656.361 66.3008H657.826C657.557 67.4023 656.537 68.1289 655.061 68.1289ZM653.455 64.2148H656.455C656.443 63.3477 655.869 62.7148 655.002 62.7148C654.1 62.7148 653.502 63.4004 653.455 64.2148ZM660.545 59.5156V68H659.045V59.5156H660.545Z" fill="var(--sol-element-quaternary)"/>
</g>
<g clip-path="url(#clip7_1669_181597)">
<mask id="path-19-outside-2_1669_181597" maskUnits="userSpaceOnUse" x="688" y="48" width="81" height="32" fill="var(--sol-static-black)">
<rect fill="var(--sol-surface)" x="688" y="48" width="81" height="32"/>
<path d="M688 48H768V80H688V48Z"/>
</mask>
<path d="M768 48H767V80H768H769V48H768Z" fill="var(--sol-border-solid-variant)" mask="url(#path-19-outside-2_1669_181597)"/>
<path d="M716.955 59.5156V68H715.455V59.5156H716.955ZM718.092 66.207C718.092 64.7773 719.275 64.3555 720.459 64.2852C720.898 64.2559 721.812 64.2031 722.088 64.1914V63.6875C722.088 63.0547 721.678 62.6914 720.939 62.6914C720.271 62.6914 719.861 62.9961 719.744 63.4531H718.303C718.408 62.375 719.381 61.5547 720.975 61.5547C722.182 61.5547 723.576 62.0469 723.576 63.7461V68H722.146V67.1211H722.1C721.818 67.6602 721.221 68.1289 720.225 68.1289C719.006 68.1289 718.092 67.4609 718.092 66.207ZM719.533 66.1953C719.533 66.7461 719.979 67.0273 720.611 67.0273C721.514 67.0273 722.1 66.4297 722.1 65.7148V65.1875L720.693 65.2812C719.979 65.3398 719.533 65.6328 719.533 66.1953ZM725.053 68V59.5156H726.553V62.6797H726.611C726.846 62.2227 727.303 61.5547 728.428 61.5547C729.904 61.5547 731.064 62.7031 731.064 64.8242C731.064 66.9219 729.928 68.1172 728.439 68.1172C727.338 68.1172 726.846 67.4609 726.611 66.9922H726.518V68H725.053ZM726.518 64.8125C726.518 66.0547 727.057 66.8867 728.018 66.8867C729.014 66.8867 729.541 66.0195 729.541 64.8125C729.541 63.6289 729.025 62.7734 728.018 62.7734C727.057 62.7734 726.518 63.582 726.518 64.8125ZM735.061 68.1289C733.139 68.1289 731.967 66.8516 731.967 64.8594C731.967 62.8906 733.162 61.5547 734.979 61.5547C736.537 61.5547 737.885 62.5273 737.885 64.7656V65.2344H733.443C733.461 66.3184 734.1 66.957 735.072 66.957C735.729 66.957 736.174 66.6758 736.361 66.3008H737.826C737.557 67.4023 736.537 68.1289 735.061 68.1289ZM733.455 64.2148H736.455C736.443 63.3477 735.869 62.7148 735.002 62.7148C734.1 62.7148 733.502 63.4004 733.455 64.2148ZM740.545 59.5156V68H739.045V59.5156H740.545Z" fill="var(--sol-element-quaternary)"/>
</g>
</g>
<path d="M48.916 149V139.102H50.6934V143.299H55.3008V139.102H57.0918V149H55.3008V144.789H50.6934V149H48.916ZM62.082 149.15C59.9219 149.15 58.5273 147.619 58.5273 145.322C58.5273 143.012 59.9219 141.48 62.082 141.48C64.2559 141.48 65.6367 143.012 65.6367 145.322C65.6367 147.619 64.2559 149.15 62.082 149.15ZM62.0957 147.756C63.2852 147.756 63.873 146.676 63.873 145.309C63.873 143.955 63.2852 142.861 62.0957 142.861C60.8789 142.861 60.291 143.955 60.291 145.309C60.291 146.676 60.8789 147.756 62.0957 147.756ZM73.375 141.576L70.7227 149H68.8086L66.1562 141.576H68.0156L69.7246 147.1H69.8066L71.5293 141.576H73.375ZM77.5176 149.15C75.2754 149.15 73.9082 147.66 73.9082 145.336C73.9082 143.039 75.3027 141.48 77.4219 141.48C79.2402 141.48 80.8125 142.615 80.8125 145.227V145.773H75.6309C75.6514 147.038 76.3965 147.783 77.5312 147.783C78.2969 147.783 78.8164 147.455 79.0352 147.018H80.7441C80.4297 148.303 79.2402 149.15 77.5176 149.15ZM75.6445 144.584H79.1445C79.1309 143.572 78.4609 142.834 77.4492 142.834C76.3965 142.834 75.6992 143.634 75.6445 144.584ZM82.166 149V141.576H83.8613V142.807H83.9434C84.2031 141.959 84.9277 141.467 85.7754 141.467C85.9668 141.467 86.2402 141.48 86.4043 141.508V143.121C86.2539 143.066 85.8848 143.012 85.5977 143.012C84.627 143.012 83.916 143.682 83.916 144.625V149H82.166Z" fill="var(--sol-element-quaternary)"/>
<g clip-path="url(#clip8_1669_181597)">
<path d="M228 132C228 129.791 229.791 128 232 128H464C466.209 128 468 129.791 468 132V156C468 158.209 466.209 160 464 160H232C229.791 160 228 158.209 228 156V132Z" fill="var(--sol-element-primary)" fill-opacity="0.04"/>
<g filter="url(#filter1_d_1669_181597)">
<g clip-path="url(#clip9_1669_181597)">
<path d="M231 133C231 131.895 231.895 131 233 131H307C308.105 131 309 131.895 309 133V155C309 156.105 308.105 157 307 157H233C231.895 157 231 156.105 231 155V133Z" fill="var(--sol-surface)"/>
<rect width="78" height="26" transform="translate(231 131)" fill="var(--sol-element-primary)" fill-opacity="0.08"/>
<path d="M258.715 139.516V148H257.215V139.516H258.715ZM259.852 146.207C259.852 144.777 261.035 144.355 262.219 144.285C262.658 144.256 263.572 144.203 263.848 144.191V143.688C263.848 143.055 263.438 142.691 262.699 142.691C262.031 142.691 261.621 142.996 261.504 143.453H260.062C260.168 142.375 261.141 141.555 262.734 141.555C263.941 141.555 265.336 142.047 265.336 143.746V148H263.906V147.121H263.859C263.578 147.66 262.98 148.129 261.984 148.129C260.766 148.129 259.852 147.461 259.852 146.207ZM261.293 146.195C261.293 146.746 261.738 147.027 262.371 147.027C263.273 147.027 263.859 146.43 263.859 145.715V145.188L262.453 145.281C261.738 145.34 261.293 145.633 261.293 146.195ZM266.812 148V139.516H268.312V142.68H268.371C268.605 142.223 269.062 141.555 270.188 141.555C271.664 141.555 272.824 142.703 272.824 144.824C272.824 146.922 271.688 148.117 270.199 148.117C269.098 148.117 268.605 147.461 268.371 146.992H268.277V148H266.812ZM268.277 144.812C268.277 146.055 268.816 146.887 269.777 146.887C270.773 146.887 271.301 146.02 271.301 144.812C271.301 143.629 270.785 142.773 269.777 142.773C268.816 142.773 268.277 143.582 268.277 144.812ZM276.82 148.129C274.898 148.129 273.727 146.852 273.727 144.859C273.727 142.891 274.922 141.555 276.738 141.555C278.297 141.555 279.645 142.527 279.645 144.766V145.234H275.203C275.221 146.318 275.859 146.957 276.832 146.957C277.488 146.957 277.934 146.676 278.121 146.301H279.586C279.316 147.402 278.297 148.129 276.82 148.129ZM275.215 144.215H278.215C278.203 143.348 277.629 142.715 276.762 142.715C275.859 142.715 275.262 143.4 275.215 144.215ZM282.305 139.516V148H280.805V139.516H282.305Z" fill="var(--sol-element-primary)"/>
</g>
</g>
<g clip-path="url(#clip10_1669_181597)">
<path d="M336.715 139.516V148H335.215V139.516H336.715ZM337.852 146.207C337.852 144.777 339.035 144.355 340.219 144.285C340.658 144.256 341.572 144.203 341.848 144.191V143.688C341.848 143.055 341.438 142.691 340.699 142.691C340.031 142.691 339.621 142.996 339.504 143.453H338.062C338.168 142.375 339.141 141.555 340.734 141.555C341.941 141.555 343.336 142.047 343.336 143.746V148H341.906V147.121H341.859C341.578 147.66 340.98 148.129 339.984 148.129C338.766 148.129 337.852 147.461 337.852 146.207ZM339.293 146.195C339.293 146.746 339.738 147.027 340.371 147.027C341.273 147.027 341.859 146.43 341.859 145.715V145.188L340.453 145.281C339.738 145.34 339.293 145.633 339.293 146.195ZM344.812 148V139.516H346.312V142.68H346.371C346.605 142.223 347.062 141.555 348.188 141.555C349.664 141.555 350.824 142.703 350.824 144.824C350.824 146.922 349.688 148.117 348.199 148.117C347.098 148.117 346.605 147.461 346.371 146.992H346.277V148H344.812ZM346.277 144.812C346.277 146.055 346.816 146.887 347.777 146.887C348.773 146.887 349.301 146.02 349.301 144.812C349.301 143.629 348.785 142.773 347.777 142.773C346.816 142.773 346.277 143.582 346.277 144.812ZM354.82 148.129C352.898 148.129 351.727 146.852 351.727 144.859C351.727 142.891 352.922 141.555 354.738 141.555C356.297 141.555 357.645 142.527 357.645 144.766V145.234H353.203C353.221 146.318 353.859 146.957 354.832 146.957C355.488 146.957 355.934 146.676 356.121 146.301H357.586C357.316 147.402 356.297 148.129 354.82 148.129ZM353.215 144.215H356.215C356.203 143.348 355.629 142.715 354.762 142.715C353.859 142.715 353.262 143.4 353.215 144.215ZM360.305 139.516V148H358.805V139.516H360.305Z" fill="var(--sol-element-quaternary)"/>
</g>
<g clip-path="url(#clip11_1669_181597)">
<path d="M414.715 139.516V148H413.215V139.516H414.715ZM415.852 146.207C415.852 144.777 417.035 144.355 418.219 144.285C418.658 144.256 419.572 144.203 419.848 144.191V143.688C419.848 143.055 419.438 142.691 418.699 142.691C418.031 142.691 417.621 142.996 417.504 143.453H416.062C416.168 142.375 417.141 141.555 418.734 141.555C419.941 141.555 421.336 142.047 421.336 143.746V148H419.906V147.121H419.859C419.578 147.66 418.98 148.129 417.984 148.129C416.766 148.129 415.852 147.461 415.852 146.207ZM417.293 146.195C417.293 146.746 417.738 147.027 418.371 147.027C419.273 147.027 419.859 146.43 419.859 145.715V145.188L418.453 145.281C417.738 145.34 417.293 145.633 417.293 146.195ZM422.812 148V139.516H424.312V142.68H424.371C424.605 142.223 425.062 141.555 426.188 141.555C427.664 141.555 428.824 142.703 428.824 144.824C428.824 146.922 427.688 148.117 426.199 148.117C425.098 148.117 424.605 147.461 424.371 146.992H424.277V148H422.812ZM424.277 144.812C424.277 146.055 424.816 146.887 425.777 146.887C426.773 146.887 427.301 146.02 427.301 144.812C427.301 143.629 426.785 142.773 425.777 142.773C424.816 142.773 424.277 143.582 424.277 144.812ZM432.82 148.129C430.898 148.129 429.727 146.852 429.727 144.859C429.727 142.891 430.922 141.555 432.738 141.555C434.297 141.555 435.645 142.527 435.645 144.766V145.234H431.203C431.221 146.318 431.859 146.957 432.832 146.957C433.488 146.957 433.934 146.676 434.121 146.301H435.586C435.316 147.402 434.297 148.129 432.82 148.129ZM431.215 144.215H434.215C434.203 143.348 433.629 142.715 432.762 142.715C431.859 142.715 431.262 143.4 431.215 144.215ZM438.305 139.516V148H436.805V139.516H438.305Z" fill="var(--sol-element-quaternary)"/>
</g>
</g>
<g clip-path="url(#clip12_1669_181597)">
<path d="M532 128.5H764C765.933 128.5 767.5 130.067 767.5 132V156C767.5 157.933 765.933 159.5 764 159.5H532C530.067 159.5 528.5 157.933 528.5 156V132C528.5 130.067 530.067 128.5 532 128.5Z" stroke="var(--sol-border-solid-variant)"/>
<g clip-path="url(#clip13_1669_181597)">
<path d="M528 132C528 129.791 529.791 128 532 128H608V160H532C529.791 160 528 158.209 528 156V132Z" fill="var(--sol-selected-container-variant)"/>
<path d="M532 128.5H607.5V159.5H532C530.067 159.5 528.5 157.933 528.5 156V132C528.5 130.067 530.067 128.5 532 128.5Z" stroke="var(--sol-fill-active)"/>
<path d="M556.955 139.516V148H555.455V139.516H556.955ZM558.092 146.207C558.092 144.777 559.275 144.355 560.459 144.285C560.898 144.256 561.812 144.203 562.088 144.191V143.688C562.088 143.055 561.678 142.691 560.939 142.691C560.271 142.691 559.861 142.996 559.744 143.453H558.303C558.408 142.375 559.381 141.555 560.975 141.555C562.182 141.555 563.576 142.047 563.576 143.746V148H562.146V147.121H562.1C561.818 147.66 561.221 148.129 560.225 148.129C559.006 148.129 558.092 147.461 558.092 146.207ZM559.533 146.195C559.533 146.746 559.979 147.027 560.611 147.027C561.514 147.027 562.1 146.43 562.1 145.715V145.188L560.693 145.281C559.979 145.34 559.533 145.633 559.533 146.195ZM565.053 148V139.516H566.553V142.68H566.611C566.846 142.223 567.303 141.555 568.428 141.555C569.904 141.555 571.064 142.703 571.064 144.824C571.064 146.922 569.928 148.117 568.439 148.117C567.338 148.117 566.846 147.461 566.611 146.992H566.518V148H565.053ZM566.518 144.812C566.518 146.055 567.057 146.887 568.018 146.887C569.014 146.887 569.541 146.02 569.541 144.812C569.541 143.629 569.025 142.773 568.018 142.773C567.057 142.773 566.518 143.582 566.518 144.812ZM575.061 148.129C573.139 148.129 571.967 146.852 571.967 144.859C571.967 142.891 573.162 141.555 574.979 141.555C576.537 141.555 577.885 142.527 577.885 144.766V145.234H573.443C573.461 146.318 574.1 146.957 575.072 146.957C575.729 146.957 576.174 146.676 576.361 146.301H577.826C577.557 147.402 576.537 148.129 575.061 148.129ZM573.455 144.215H576.455C576.443 143.348 575.869 142.715 575.002 142.715C574.1 142.715 573.502 143.4 573.455 144.215ZM580.545 139.516V148H579.045V139.516H580.545Z" fill="var(--sol-element-brand-variant)"/>
<rect width="80" height="32" transform="translate(528 128)" fill="var(--sol-element-primary)" fill-opacity="0.08"/>
</g>
<g clip-path="url(#clip14_1669_181597)">
<mask id="path-36-outside-3_1669_181597" maskUnits="userSpaceOnUse" x="608" y="128" width="81" height="32" fill="var(--sol-static-black)">
<rect fill="var(--sol-surface)" x="608" y="128" width="81" height="32"/>
<path d="M608 128H688V160H608V128Z"/>
</mask>
<path d="M688 128H687V160H688H689V128H688Z" fill="var(--sol-border-solid-variant)" mask="url(#path-36-outside-3_1669_181597)"/>
<path d="M636.955 139.516V148H635.455V139.516H636.955ZM638.092 146.207C638.092 144.777 639.275 144.355 640.459 144.285C640.898 144.256 641.812 144.203 642.088 144.191V143.688C642.088 143.055 641.678 142.691 640.939 142.691C640.271 142.691 639.861 142.996 639.744 143.453H638.303C638.408 142.375 639.381 141.555 640.975 141.555C642.182 141.555 643.576 142.047 643.576 143.746V148H642.146V147.121H642.1C641.818 147.66 641.221 148.129 640.225 148.129C639.006 148.129 638.092 147.461 638.092 146.207ZM639.533 146.195C639.533 146.746 639.979 147.027 640.611 147.027C641.514 147.027 642.1 146.43 642.1 145.715V145.188L640.693 145.281C639.979 145.34 639.533 145.633 639.533 146.195ZM645.053 148V139.516H646.553V142.68H646.611C646.846 142.223 647.303 141.555 648.428 141.555C649.904 141.555 651.064 142.703 651.064 144.824C651.064 146.922 649.928 148.117 648.439 148.117C647.338 148.117 646.846 147.461 646.611 146.992H646.518V148H645.053ZM646.518 144.812C646.518 146.055 647.057 146.887 648.018 146.887C649.014 146.887 649.541 146.02 649.541 144.812C649.541 143.629 649.025 142.773 648.018 142.773C647.057 142.773 646.518 143.582 646.518 144.812ZM655.061 148.129C653.139 148.129 651.967 146.852 651.967 144.859C651.967 142.891 653.162 141.555 654.979 141.555C656.537 141.555 657.885 142.527 657.885 144.766V145.234H653.443C653.461 146.318 654.1 146.957 655.072 146.957C655.729 146.957 656.174 146.676 656.361 146.301H657.826C657.557 147.402 656.537 148.129 655.061 148.129ZM653.455 144.215H656.455C656.443 143.348 655.869 142.715 655.002 142.715C654.1 142.715 653.502 143.4 653.455 144.215ZM660.545 139.516V148H659.045V139.516H660.545Z" fill="var(--sol-element-quaternary)"/>
</g>
<g clip-path="url(#clip15_1669_181597)">
<mask id="path-40-outside-4_1669_181597" maskUnits="userSpaceOnUse" x="688" y="128" width="81" height="32" fill="var(--sol-static-black)">
<rect fill="var(--sol-surface)" x="688" y="128" width="81" height="32"/>
<path d="M688 128H768V160H688V128Z"/>
</mask>
<path d="M768 128H767V160H768H769V128H768Z" fill="var(--sol-border-solid-variant)" mask="url(#path-40-outside-4_1669_181597)"/>
<path d="M716.955 139.516V148H715.455V139.516H716.955ZM718.092 146.207C718.092 144.777 719.275 144.355 720.459 144.285C720.898 144.256 721.812 144.203 722.088 144.191V143.688C722.088 143.055 721.678 142.691 720.939 142.691C720.271 142.691 719.861 142.996 719.744 143.453H718.303C718.408 142.375 719.381 141.555 720.975 141.555C722.182 141.555 723.576 142.047 723.576 143.746V148H722.146V147.121H722.1C721.818 147.66 721.221 148.129 720.225 148.129C719.006 148.129 718.092 147.461 718.092 146.207ZM719.533 146.195C719.533 146.746 719.979 147.027 720.611 147.027C721.514 147.027 722.1 146.43 722.1 145.715V145.188L720.693 145.281C719.979 145.34 719.533 145.633 719.533 146.195ZM725.053 148V139.516H726.553V142.68H726.611C726.846 142.223 727.303 141.555 728.428 141.555C729.904 141.555 731.064 142.703 731.064 144.824C731.064 146.922 729.928 148.117 728.439 148.117C727.338 148.117 726.846 147.461 726.611 146.992H726.518V148H725.053ZM726.518 144.812C726.518 146.055 727.057 146.887 728.018 146.887C729.014 146.887 729.541 146.02 729.541 144.812C729.541 143.629 729.025 142.773 728.018 142.773C727.057 142.773 726.518 143.582 726.518 144.812ZM735.061 148.129C733.139 148.129 731.967 146.852 731.967 144.859C731.967 142.891 733.162 141.555 734.979 141.555C736.537 141.555 737.885 142.527 737.885 144.766V145.234H733.443C733.461 146.318 734.1 146.957 735.072 146.957C735.729 146.957 736.174 146.676 736.361 146.301H737.826C737.557 147.402 736.537 148.129 735.061 148.129ZM733.455 144.215H736.455C736.443 143.348 735.869 142.715 735.002 142.715C734.1 142.715 733.502 143.4 733.455 144.215ZM740.545 139.516V148H739.045V139.516H740.545Z" fill="var(--sol-element-quaternary)"/>
</g>
</g>
<path d="M48.916 229V219.102H52.6348C54.9043 219.102 56.1211 220.482 56.1211 222.383C56.1211 224.283 54.8906 225.65 52.6074 225.65H50.6934V229H48.916ZM50.6934 224.188H52.3613C53.7012 224.188 54.3027 223.436 54.3027 222.383C54.3027 221.316 53.7012 220.592 52.3613 220.592H50.6934V224.188ZM57.4746 229V221.576H59.1699V222.807H59.252C59.5117 221.959 60.2363 221.467 61.084 221.467C61.2754 221.467 61.5488 221.48 61.7129 221.508V223.121C61.5625 223.066 61.1934 223.012 60.9062 223.012C59.9355 223.012 59.2246 223.682 59.2246 224.625V229H57.4746ZM65.8145 229.15C63.5723 229.15 62.2051 227.66 62.2051 225.336C62.2051 223.039 63.5996 221.48 65.7188 221.48C67.5371 221.48 69.1094 222.615 69.1094 225.227V225.773H63.9277C63.9482 227.038 64.6934 227.783 65.8281 227.783C66.5938 227.783 67.1133 227.455 67.332 227.018H69.041C68.7266 228.303 67.5371 229.15 65.8145 229.15ZM63.9414 224.584H67.4414C67.4277 223.572 66.7578 222.834 65.7461 222.834C64.6934 222.834 63.9961 223.634 63.9414 224.584ZM74.6738 223.695C74.5645 223.135 74.0996 222.779 73.3613 222.779C72.6094 222.779 72.0625 223.148 72.0762 223.654C72.0625 224.037 72.377 224.324 73.1289 224.502L74.3867 224.762C75.7949 225.076 76.4648 225.719 76.4785 226.785C76.4648 228.18 75.248 229.15 73.3066 229.15C71.4199 229.15 70.2988 228.303 70.1211 226.881H71.8984C72.0078 227.51 72.5 227.824 73.3066 227.824C74.1406 227.824 74.7012 227.482 74.7012 226.936C74.7012 226.512 74.3594 226.238 73.6211 226.074L72.4316 225.814C71.0508 225.541 70.3398 224.816 70.3398 223.75C70.3398 222.383 71.5156 221.48 73.334 221.48C75.1113 221.48 76.2051 222.342 76.3281 223.695H74.6738ZM82.0156 223.695C81.9062 223.135 81.4414 222.779 80.7031 222.779C79.9512 222.779 79.4043 223.148 79.418 223.654C79.4043 224.037 79.7188 224.324 80.4707 224.502L81.7285 224.762C83.1367 225.076 83.8066 225.719 83.8203 226.785C83.8066 228.18 82.5898 229.15 80.6484 229.15C78.7617 229.15 77.6406 228.303 77.4629 226.881H79.2402C79.3496 227.51 79.8418 227.824 80.6484 227.824C81.4824 227.824 82.043 227.482 82.043 226.936C82.043 226.512 81.7012 226.238 80.9629 226.074L79.7734 225.814C78.3926 225.541 77.6816 224.816 77.6816 223.75C77.6816 222.383 78.8574 221.48 80.6758 221.48C82.4531 221.48 83.5469 222.342 83.6699 223.695H82.0156ZM88.4414 229.15C86.1992 229.15 84.832 227.66 84.832 225.336C84.832 223.039 86.2266 221.48 88.3457 221.48C90.1641 221.48 91.7363 222.615 91.7363 225.227V225.773H86.5547C86.5752 227.038 87.3203 227.783 88.4551 227.783C89.2207 227.783 89.7402 227.455 89.959 227.018H91.668C91.3535 228.303 90.1641 229.15 88.4414 229.15ZM86.5684 224.584H90.0684C90.0547 223.572 89.3848 222.834 88.373 222.834C87.3203 222.834 86.623 223.634 86.5684 224.584ZM95.8516 229.137C94.1016 229.137 92.7891 227.742 92.7891 225.295C92.7891 222.82 94.1426 221.48 95.8652 221.48C97.1777 221.48 97.7246 222.26 97.9844 222.793H98.0527V219.102H99.7891V229H98.0801V227.824H97.9844C97.7109 228.371 97.1367 229.137 95.8516 229.137ZM96.3301 227.701C97.4512 227.701 98.0938 226.73 98.0938 225.281C98.0938 223.846 97.4648 222.902 96.3301 222.902C95.168 222.902 94.5664 223.9 94.5664 225.281C94.5664 226.689 95.1816 227.701 96.3301 227.701Z" fill="var(--sol-element-quaternary)"/>
<g clip-path="url(#clip16_1669_181597)">
<path d="M228 212C228 209.791 229.791 208 232 208H464C466.209 208 468 209.791 468 212V236C468 238.209 466.209 240 464 240H232C229.791 240 228 238.209 228 236V212Z" fill="var(--sol-element-primary)" fill-opacity="0.04"/>
<g filter="url(#filter2_d_1669_181597)">
<g clip-path="url(#clip17_1669_181597)">
<path d="M231 213C231 211.895 231.895 211 233 211H307C308.105 211 309 211.895 309 213V235C309 236.105 308.105 237 307 237H233C231.895 237 231 236.105 231 235V213Z" fill="var(--sol-surface)"/>
<rect width="78" height="26" transform="translate(231 211)" fill="var(--sol-element-primary)" fill-opacity="0.12"/>
<path d="M258.715 219.516V228H257.215V219.516H258.715ZM259.852 226.207C259.852 224.777 261.035 224.355 262.219 224.285C262.658 224.256 263.572 224.203 263.848 224.191V223.688C263.848 223.055 263.438 222.691 262.699 222.691C262.031 222.691 261.621 222.996 261.504 223.453H260.062C260.168 222.375 261.141 221.555 262.734 221.555C263.941 221.555 265.336 222.047 265.336 223.746V228H263.906V227.121H263.859C263.578 227.66 262.98 228.129 261.984 228.129C260.766 228.129 259.852 227.461 259.852 226.207ZM261.293 226.195C261.293 226.746 261.738 227.027 262.371 227.027C263.273 227.027 263.859 226.43 263.859 225.715V225.188L262.453 225.281C261.738 225.34 261.293 225.633 261.293 226.195ZM266.812 228V219.516H268.312V222.68H268.371C268.605 222.223 269.062 221.555 270.188 221.555C271.664 221.555 272.824 222.703 272.824 224.824C272.824 226.922 271.688 228.117 270.199 228.117C269.098 228.117 268.605 227.461 268.371 226.992H268.277V228H266.812ZM268.277 224.812C268.277 226.055 268.816 226.887 269.777 226.887C270.773 226.887 271.301 226.02 271.301 224.812C271.301 223.629 270.785 222.773 269.777 222.773C268.816 222.773 268.277 223.582 268.277 224.812ZM276.82 228.129C274.898 228.129 273.727 226.852 273.727 224.859C273.727 222.891 274.922 221.555 276.738 221.555C278.297 221.555 279.645 222.527 279.645 224.766V225.234H275.203C275.221 226.318 275.859 226.957 276.832 226.957C277.488 226.957 277.934 226.676 278.121 226.301H279.586C279.316 227.402 278.297 228.129 276.82 228.129ZM275.215 224.215H278.215C278.203 223.348 277.629 222.715 276.762 222.715C275.859 222.715 275.262 223.4 275.215 224.215ZM282.305 219.516V228H280.805V219.516H282.305Z" fill="var(--sol-element-primary)"/>
</g>
</g>
<g clip-path="url(#clip18_1669_181597)">
<path d="M336.715 219.516V228H335.215V219.516H336.715ZM337.852 226.207C337.852 224.777 339.035 224.355 340.219 224.285C340.658 224.256 341.572 224.203 341.848 224.191V223.688C341.848 223.055 341.438 222.691 340.699 222.691C340.031 222.691 339.621 222.996 339.504 223.453H338.062C338.168 222.375 339.141 221.555 340.734 221.555C341.941 221.555 343.336 222.047 343.336 223.746V228H341.906V227.121H341.859C341.578 227.66 340.98 228.129 339.984 228.129C338.766 228.129 337.852 227.461 337.852 226.207ZM339.293 226.195C339.293 226.746 339.738 227.027 340.371 227.027C341.273 227.027 341.859 226.43 341.859 225.715V225.188L340.453 225.281C339.738 225.34 339.293 225.633 339.293 226.195ZM344.812 228V219.516H346.312V222.68H346.371C346.605 222.223 347.062 221.555 348.188 221.555C349.664 221.555 350.824 222.703 350.824 224.824C350.824 226.922 349.688 228.117 348.199 228.117C347.098 228.117 346.605 227.461 346.371 226.992H346.277V228H344.812ZM346.277 224.812C346.277 226.055 346.816 226.887 347.777 226.887C348.773 226.887 349.301 226.02 349.301 224.812C349.301 223.629 348.785 222.773 347.777 222.773C346.816 222.773 346.277 223.582 346.277 224.812ZM354.82 228.129C352.898 228.129 351.727 226.852 351.727 224.859C351.727 222.891 352.922 221.555 354.738 221.555C356.297 221.555 357.645 222.527 357.645 224.766V225.234H353.203C353.221 226.318 353.859 226.957 354.832 226.957C355.488 226.957 355.934 226.676 356.121 226.301H357.586C357.316 227.402 356.297 228.129 354.82 228.129ZM353.215 224.215H356.215C356.203 223.348 355.629 222.715 354.762 222.715C353.859 222.715 353.262 223.4 353.215 224.215ZM360.305 219.516V228H358.805V219.516H360.305Z" fill="var(--sol-element-quaternary)"/>
</g>
<g clip-path="url(#clip19_1669_181597)">
<path d="M414.715 219.516V228H413.215V219.516H414.715ZM415.852 226.207C415.852 224.777 417.035 224.355 418.219 224.285C418.658 224.256 419.572 224.203 419.848 224.191V223.688C419.848 223.055 419.438 222.691 418.699 222.691C418.031 222.691 417.621 222.996 417.504 223.453H416.062C416.168 222.375 417.141 221.555 418.734 221.555C419.941 221.555 421.336 222.047 421.336 223.746V228H419.906V227.121H419.859C419.578 227.66 418.98 228.129 417.984 228.129C416.766 228.129 415.852 227.461 415.852 226.207ZM417.293 226.195C417.293 226.746 417.738 227.027 418.371 227.027C419.273 227.027 419.859 226.43 419.859 225.715V225.188L418.453 225.281C417.738 225.34 417.293 225.633 417.293 226.195ZM422.812 228V219.516H424.312V222.68H424.371C424.605 222.223 425.062 221.555 426.188 221.555C427.664 221.555 428.824 222.703 428.824 224.824C428.824 226.922 427.688 228.117 426.199 228.117C425.098 228.117 424.605 227.461 424.371 226.992H424.277V228H422.812ZM424.277 224.812C424.277 226.055 424.816 226.887 425.777 226.887C426.773 226.887 427.301 226.02 427.301 224.812C427.301 223.629 426.785 222.773 425.777 222.773C424.816 222.773 424.277 223.582 424.277 224.812ZM432.82 228.129C430.898 228.129 429.727 226.852 429.727 224.859C429.727 222.891 430.922 221.555 432.738 221.555C434.297 221.555 435.645 222.527 435.645 224.766V225.234H431.203C431.221 226.318 431.859 226.957 432.832 226.957C433.488 226.957 433.934 226.676 434.121 226.301H435.586C435.316 227.402 434.297 228.129 432.82 228.129ZM431.215 224.215H434.215C434.203 223.348 433.629 222.715 432.762 222.715C431.859 222.715 431.262 223.4 431.215 224.215ZM438.305 219.516V228H436.805V219.516H438.305Z" fill="var(--sol-element-quaternary)"/>
</g>
</g>
<g clip-path="url(#clip20_1669_181597)">
<path d="M532 208.5H764C765.933 208.5 767.5 210.067 767.5 212V236C767.5 237.933 765.933 239.5 764 239.5H532C530.067 239.5 528.5 237.933 528.5 236V212C528.5 210.067 530.067 208.5 532 208.5Z" stroke="var(--sol-border-solid-variant)"/>
<g clip-path="url(#clip21_1669_181597)">
<path d="M528 212C528 209.791 529.791 208 532 208H608V240H532C529.791 240 528 238.209 528 236V212Z" fill="var(--sol-selected-container-variant)"/>
<path d="M532 208.5H607.5V239.5H532C530.067 239.5 528.5 237.933 528.5 236V212C528.5 210.067 530.067 208.5 532 208.5Z" stroke="var(--sol-fill-active)"/>
<path d="M556.955 219.516V228H555.455V219.516H556.955ZM558.092 226.207C558.092 224.777 559.275 224.355 560.459 224.285C560.898 224.256 561.812 224.203 562.088 224.191V223.688C562.088 223.055 561.678 222.691 560.939 222.691C560.271 222.691 559.861 222.996 559.744 223.453H558.303C558.408 222.375 559.381 221.555 560.975 221.555C562.182 221.555 563.576 222.047 563.576 223.746V228H562.146V227.121H562.1C561.818 227.66 561.221 228.129 560.225 228.129C559.006 228.129 558.092 227.461 558.092 226.207ZM559.533 226.195C559.533 226.746 559.979 227.027 560.611 227.027C561.514 227.027 562.1 226.43 562.1 225.715V225.188L560.693 225.281C559.979 225.34 559.533 225.633 559.533 226.195ZM565.053 228V219.516H566.553V222.68H566.611C566.846 222.223 567.303 221.555 568.428 221.555C569.904 221.555 571.064 222.703 571.064 224.824C571.064 226.922 569.928 228.117 568.439 228.117C567.338 228.117 566.846 227.461 566.611 226.992H566.518V228H565.053ZM566.518 224.812C566.518 226.055 567.057 226.887 568.018 226.887C569.014 226.887 569.541 226.02 569.541 224.812C569.541 223.629 569.025 222.773 568.018 222.773C567.057 222.773 566.518 223.582 566.518 224.812ZM575.061 228.129C573.139 228.129 571.967 226.852 571.967 224.859C571.967 222.891 573.162 221.555 574.979 221.555C576.537 221.555 577.885 222.527 577.885 224.766V225.234H573.443C573.461 226.318 574.1 226.957 575.072 226.957C575.729 226.957 576.174 226.676 576.361 226.301H577.826C577.557 227.402 576.537 228.129 575.061 228.129ZM573.455 224.215H576.455C576.443 223.348 575.869 222.715 575.002 222.715C574.1 222.715 573.502 223.4 573.455 224.215ZM580.545 219.516V228H579.045V219.516H580.545Z" fill="var(--sol-element-brand-variant)"/>
<rect width="80" height="32" transform="translate(528 208)" fill="var(--sol-element-primary)" fill-opacity="0.12"/>
</g>
<g clip-path="url(#clip22_1669_181597)">
<mask id="path-57-outside-5_1669_181597" maskUnits="userSpaceOnUse" x="608" y="208" width="81" height="32" fill="var(--sol-static-black)">
<rect fill="var(--sol-surface)" x="608" y="208" width="81" height="32"/>
<path d="M608 208H688V240H608V208Z"/>
</mask>
<path d="M688 208H687V240H688H689V208H688Z" fill="var(--sol-border-solid-variant)" mask="url(#path-57-outside-5_1669_181597)"/>
<path d="M636.955 219.516V228H635.455V219.516H636.955ZM638.092 226.207C638.092 224.777 639.275 224.355 640.459 224.285C640.898 224.256 641.812 224.203 642.088 224.191V223.688C642.088 223.055 641.678 222.691 640.939 222.691C640.271 222.691 639.861 222.996 639.744 223.453H638.303C638.408 222.375 639.381 221.555 640.975 221.555C642.182 221.555 643.576 222.047 643.576 223.746V228H642.146V227.121H642.1C641.818 227.66 641.221 228.129 640.225 228.129C639.006 228.129 638.092 227.461 638.092 226.207ZM639.533 226.195C639.533 226.746 639.979 227.027 640.611 227.027C641.514 227.027 642.1 226.43 642.1 225.715V225.188L640.693 225.281C639.979 225.34 639.533 225.633 639.533 226.195ZM645.053 228V219.516H646.553V222.68H646.611C646.846 222.223 647.303 221.555 648.428 221.555C649.904 221.555 651.064 222.703 651.064 224.824C651.064 226.922 649.928 228.117 648.439 228.117C647.338 228.117 646.846 227.461 646.611 226.992H646.518V228H645.053ZM646.518 224.812C646.518 226.055 647.057 226.887 648.018 226.887C649.014 226.887 649.541 226.02 649.541 224.812C649.541 223.629 649.025 222.773 648.018 222.773C647.057 222.773 646.518 223.582 646.518 224.812ZM655.061 228.129C653.139 228.129 651.967 226.852 651.967 224.859C651.967 222.891 653.162 221.555 654.979 221.555C656.537 221.555 657.885 222.527 657.885 224.766V225.234H653.443C653.461 226.318 654.1 226.957 655.072 226.957C655.729 226.957 656.174 226.676 656.361 226.301H657.826C657.557 227.402 656.537 228.129 655.061 228.129ZM653.455 224.215H656.455C656.443 223.348 655.869 222.715 655.002 222.715C654.1 222.715 653.502 223.4 653.455 224.215ZM660.545 219.516V228H659.045V219.516H660.545Z" fill="var(--sol-element-quaternary)"/>
</g>
<g clip-path="url(#clip23_1669_181597)">
<mask id="path-61-outside-6_1669_181597" maskUnits="userSpaceOnUse" x="688" y="208" width="81" height="32" fill="var(--sol-static-black)">
<rect fill="var(--sol-surface)" x="688" y="208" width="81" height="32"/>
<path d="M688 208H768V240H688V208Z"/>
</mask>
<path d="M768 208H767V240H768H769V208H768Z" fill="var(--sol-border-solid-variant)" mask="url(#path-61-outside-6_1669_181597)"/>
<path d="M716.955 219.516V228H715.455V219.516H716.955ZM718.092 226.207C718.092 224.777 719.275 224.355 720.459 224.285C720.898 224.256 721.812 224.203 722.088 224.191V223.688C722.088 223.055 721.678 222.691 720.939 222.691C720.271 222.691 719.861 222.996 719.744 223.453H718.303C718.408 222.375 719.381 221.555 720.975 221.555C722.182 221.555 723.576 222.047 723.576 223.746V228H722.146V227.121H722.1C721.818 227.66 721.221 228.129 720.225 228.129C719.006 228.129 718.092 227.461 718.092 226.207ZM719.533 226.195C719.533 226.746 719.979 227.027 720.611 227.027C721.514 227.027 722.1 226.43 722.1 225.715V225.188L720.693 225.281C719.979 225.34 719.533 225.633 719.533 226.195ZM725.053 228V219.516H726.553V222.68H726.611C726.846 222.223 727.303 221.555 728.428 221.555C729.904 221.555 731.064 222.703 731.064 224.824C731.064 226.922 729.928 228.117 728.439 228.117C727.338 228.117 726.846 227.461 726.611 226.992H726.518V228H725.053ZM726.518 224.812C726.518 226.055 727.057 226.887 728.018 226.887C729.014 226.887 729.541 226.02 729.541 224.812C729.541 223.629 729.025 222.773 728.018 222.773C727.057 222.773 726.518 223.582 726.518 224.812ZM735.061 228.129C733.139 228.129 731.967 226.852 731.967 224.859C731.967 222.891 733.162 221.555 734.979 221.555C736.537 221.555 737.885 222.527 737.885 224.766V225.234H733.443C733.461 226.318 734.1 226.957 735.072 226.957C735.729 226.957 736.174 226.676 736.361 226.301H737.826C737.557 227.402 736.537 228.129 735.061 228.129ZM733.455 224.215H736.455C736.443 223.348 735.869 222.715 735.002 222.715C734.1 222.715 733.502 223.4 733.455 224.215ZM740.545 219.516V228H739.045V219.516H740.545Z" fill="var(--sol-element-quaternary)"/>
</g>
</g>
<path d="M52.2793 309H48.916V299.102H52.334C55.2871 299.102 57.0781 300.961 57.0781 304.037C57.0781 307.127 55.2871 309 52.2793 309ZM50.6934 307.455H52.1836C54.248 307.455 55.3008 306.32 55.3008 304.037C55.3008 301.768 54.248 300.646 52.2383 300.646H50.6934V307.455ZM58.5684 309V301.576H60.3184V309H58.5684ZM59.457 300.523C58.9102 300.523 58.4453 300.1 58.4453 299.566C58.4453 299.047 58.9102 298.623 59.457 298.623C60.0176 298.623 60.4688 299.047 60.4688 299.566C60.4688 300.1 60.0176 300.523 59.457 300.523ZM66.1973 303.695C66.0879 303.135 65.623 302.779 64.8848 302.779C64.1328 302.779 63.5859 303.148 63.5996 303.654C63.5859 304.037 63.9004 304.324 64.6523 304.502L65.9102 304.762C67.3184 305.076 67.9883 305.719 68.002 306.785C67.9883 308.18 66.7715 309.15 64.8301 309.15C62.9434 309.15 61.8223 308.303 61.6445 306.881H63.4219C63.5312 307.51 64.0234 307.824 64.8301 307.824C65.6641 307.824 66.2246 307.482 66.2246 306.936C66.2246 306.512 65.8828 306.238 65.1445 306.074L63.9551 305.814C62.5742 305.541 61.8633 304.816 61.8633 303.75C61.8633 302.383 63.0391 301.48 64.8574 301.48C66.6348 301.48 67.7285 302.342 67.8516 303.695H66.1973ZM68.9863 306.908C68.9863 305.24 70.3672 304.748 71.748 304.666C72.2607 304.632 73.3271 304.57 73.6484 304.557V303.969C73.6484 303.23 73.1699 302.807 72.3086 302.807C71.5293 302.807 71.0508 303.162 70.9141 303.695H69.2324C69.3555 302.438 70.4902 301.48 72.3496 301.48C73.7578 301.48 75.3848 302.055 75.3848 304.037V309H73.7168V307.975H73.6621C73.334 308.604 72.6367 309.15 71.4746 309.15C70.0527 309.15 68.9863 308.371 68.9863 306.908ZM70.668 306.895C70.668 307.537 71.1875 307.865 71.9258 307.865C72.9785 307.865 73.6621 307.168 73.6621 306.334V305.719L72.0215 305.828C71.1875 305.896 70.668 306.238 70.668 306.895ZM77.1074 309V299.102H78.8574V302.793H78.9258C79.1992 302.26 79.7324 301.48 81.0449 301.48C82.7676 301.48 84.1211 302.82 84.1211 305.295C84.1211 307.742 82.7949 309.137 81.0586 309.137C79.7734 309.137 79.1992 308.371 78.9258 307.824H78.8164V309H77.1074ZM78.8164 305.281C78.8164 306.73 79.4453 307.701 80.5664 307.701C81.7285 307.701 82.3438 306.689 82.3438 305.281C82.3438 303.9 81.7422 302.902 80.5664 302.902C79.4453 302.902 78.8164 303.846 78.8164 305.281ZM87.2383 299.102V309H85.4883V299.102H87.2383ZM92.2012 309.15C89.959 309.15 88.5918 307.66 88.5918 305.336C88.5918 303.039 89.9863 301.48 92.1055 301.48C93.9238 301.48 95.4961 302.615 95.4961 305.227V305.773H90.3145C90.335 307.038 91.0801 307.783 92.2148 307.783C92.9805 307.783 93.5 307.455 93.7188 307.018H95.4277C95.1133 308.303 93.9238 309.15 92.2012 309.15ZM90.3281 304.584H93.8281C93.8145 303.572 93.1445 302.834 92.1328 302.834C91.0801 302.834 90.3828 303.634 90.3281 304.584ZM99.6113 309.137C97.8613 309.137 96.5488 307.742 96.5488 305.295C96.5488 302.82 97.9023 301.48 99.625 301.48C100.938 301.48 101.484 302.26 101.744 302.793H101.812V299.102H103.549V309H101.84V307.824H101.744C101.471 308.371 100.896 309.137 99.6113 309.137ZM100.09 307.701C101.211 307.701 101.854 306.73 101.854 305.281C101.854 303.846 101.225 302.902 100.09 302.902C98.9277 302.902 98.3262 303.9 98.3262 305.281C98.3262 306.689 98.9414 307.701 100.09 307.701Z" fill="var(--sol-element-quaternary)"/>
<g clip-path="url(#clip24_1669_181597)">
<path d="M228 292C228 289.791 229.791 288 232 288H464C466.209 288 468 289.791 468 292V316C468 318.209 466.209 320 464 320H232C229.791 320 228 318.209 228 316V292Z" fill="var(--sol-element-primary)" fill-opacity="0.04"/>
<g filter="url(#filter3_d_1669_181597)">
<path d="M231 293C231 291.895 231.895 291 233 291H307C308.105 291 309 291.895 309 293V315C309 316.105 308.105 317 307 317H233C231.895 317 231 316.105 231 315V293Z" fill="var(--sol-surface)" shape-rendering="crispEdges"/>
<path d="M258.715 299.516V308H257.215V299.516H258.715ZM259.852 306.207C259.852 304.777 261.035 304.355 262.219 304.285C262.658 304.256 263.572 304.203 263.848 304.191V303.688C263.848 303.055 263.438 302.691 262.699 302.691C262.031 302.691 261.621 302.996 261.504 303.453H260.062C260.168 302.375 261.141 301.555 262.734 301.555C263.941 301.555 265.336 302.047 265.336 303.746V308H263.906V307.121H263.859C263.578 307.66 262.98 308.129 261.984 308.129C260.766 308.129 259.852 307.461 259.852 306.207ZM261.293 306.195C261.293 306.746 261.738 307.027 262.371 307.027C263.273 307.027 263.859 306.43 263.859 305.715V305.188L262.453 305.281C261.738 305.34 261.293 305.633 261.293 306.195ZM266.812 308V299.516H268.312V302.68H268.371C268.605 302.223 269.062 301.555 270.188 301.555C271.664 301.555 272.824 302.703 272.824 304.824C272.824 306.922 271.688 308.117 270.199 308.117C269.098 308.117 268.605 307.461 268.371 306.992H268.277V308H266.812ZM268.277 304.812C268.277 306.055 268.816 306.887 269.777 306.887C270.773 306.887 271.301 306.02 271.301 304.812C271.301 303.629 270.785 302.773 269.777 302.773C268.816 302.773 268.277 303.582 268.277 304.812ZM276.82 308.129C274.898 308.129 273.727 306.852 273.727 304.859C273.727 302.891 274.922 301.555 276.738 301.555C278.297 301.555 279.645 302.527 279.645 304.766V305.234H275.203C275.221 306.318 275.859 306.957 276.832 306.957C277.488 306.957 277.934 306.676 278.121 306.301H279.586C279.316 307.402 278.297 308.129 276.82 308.129ZM275.215 304.215H278.215C278.203 303.348 277.629 302.715 276.762 302.715C275.859 302.715 275.262 303.4 275.215 304.215ZM282.305 299.516V308H280.805V299.516H282.305Z" fill="var(--sol-element-primary)" fill-opacity="0.3"/>
</g>
<g clip-path="url(#clip25_1669_181597)">
<path d="M336.715 299.516V308H335.215V299.516H336.715ZM337.852 306.207C337.852 304.777 339.035 304.355 340.219 304.285C340.658 304.256 341.572 304.203 341.848 304.191V303.688C341.848 303.055 341.438 302.691 340.699 302.691C340.031 302.691 339.621 302.996 339.504 303.453H338.062C338.168 302.375 339.141 301.555 340.734 301.555C341.941 301.555 343.336 302.047 343.336 303.746V308H341.906V307.121H341.859C341.578 307.66 340.98 308.129 339.984 308.129C338.766 308.129 337.852 307.461 337.852 306.207ZM339.293 306.195C339.293 306.746 339.738 307.027 340.371 307.027C341.273 307.027 341.859 306.43 341.859 305.715V305.188L340.453 305.281C339.738 305.34 339.293 305.633 339.293 306.195ZM344.812 308V299.516H346.312V302.68H346.371C346.605 302.223 347.062 301.555 348.188 301.555C349.664 301.555 350.824 302.703 350.824 304.824C350.824 306.922 349.688 308.117 348.199 308.117C347.098 308.117 346.605 307.461 346.371 306.992H346.277V308H344.812ZM346.277 304.812C346.277 306.055 346.816 306.887 347.777 306.887C348.773 306.887 349.301 306.02 349.301 304.812C349.301 303.629 348.785 302.773 347.777 302.773C346.816 302.773 346.277 303.582 346.277 304.812ZM354.82 308.129C352.898 308.129 351.727 306.852 351.727 304.859C351.727 302.891 352.922 301.555 354.738 301.555C356.297 301.555 357.645 302.527 357.645 304.766V305.234H353.203C353.221 306.318 353.859 306.957 354.832 306.957C355.488 306.957 355.934 306.676 356.121 306.301H357.586C357.316 307.402 356.297 308.129 354.82 308.129ZM353.215 304.215H356.215C356.203 303.348 355.629 302.715 354.762 302.715C353.859 302.715 353.262 303.4 353.215 304.215ZM360.305 299.516V308H358.805V299.516H360.305Z" fill="var(--sol-element-quaternary)"/>
</g>
<g clip-path="url(#clip26_1669_181597)">
<path d="M414.715 299.516V308H413.215V299.516H414.715ZM415.852 306.207C415.852 304.777 417.035 304.355 418.219 304.285C418.658 304.256 419.572 304.203 419.848 304.191V303.688C419.848 303.055 419.438 302.691 418.699 302.691C418.031 302.691 417.621 302.996 417.504 303.453H416.062C416.168 302.375 417.141 301.555 418.734 301.555C419.941 301.555 421.336 302.047 421.336 303.746V308H419.906V307.121H419.859C419.578 307.66 418.98 308.129 417.984 308.129C416.766 308.129 415.852 307.461 415.852 306.207ZM417.293 306.195C417.293 306.746 417.738 307.027 418.371 307.027C419.273 307.027 419.859 306.43 419.859 305.715V305.188L418.453 305.281C417.738 305.34 417.293 305.633 417.293 306.195ZM422.812 308V299.516H424.312V302.68H424.371C424.605 302.223 425.062 301.555 426.188 301.555C427.664 301.555 428.824 302.703 428.824 304.824C428.824 306.922 427.688 308.117 426.199 308.117C425.098 308.117 424.605 307.461 424.371 306.992H424.277V308H422.812ZM424.277 304.812C424.277 306.055 424.816 306.887 425.777 306.887C426.773 306.887 427.301 306.02 427.301 304.812C427.301 303.629 426.785 302.773 425.777 302.773C424.816 302.773 424.277 303.582 424.277 304.812ZM432.82 308.129C430.898 308.129 429.727 306.852 429.727 304.859C429.727 302.891 430.922 301.555 432.738 301.555C434.297 301.555 435.645 302.527 435.645 304.766V305.234H431.203C431.221 306.318 431.859 306.957 432.832 306.957C433.488 306.957 433.934 306.676 434.121 306.301H435.586C435.316 307.402 434.297 308.129 432.82 308.129ZM431.215 304.215H434.215C434.203 303.348 433.629 302.715 432.762 302.715C431.859 302.715 431.262 303.4 431.215 304.215ZM438.305 299.516V308H436.805V299.516H438.305Z" fill="var(--sol-element-quaternary)"/>
</g>
</g>
<g clip-path="url(#clip27_1669_181597)">
<path d="M532 288.5H764C765.933 288.5 767.5 290.067 767.5 292V316C767.5 317.933 765.933 319.5 764 319.5H532C530.067 319.5 528.5 317.933 528.5 316V292C528.5 290.067 530.067 288.5 532 288.5Z" stroke="var(--sol-border-solid-variant)"/>
<path d="M528 292C528 289.791 529.791 288 532 288H608V320H532C529.791 320 528 318.209 528 316V292Z" fill="var(--sol-element-primary)" fill-opacity="0.08"/>
<path d="M532 288.5H607.5V319.5H532C530.067 319.5 528.5 317.933 528.5 316V292C528.5 290.067 530.067 288.5 532 288.5Z" stroke="var(--sol-element-primary)" stroke-opacity="0.08"/>
<path d="M556.955 299.516V308H555.455V299.516H556.955ZM558.092 306.207C558.092 304.777 559.275 304.355 560.459 304.285C560.898 304.256 561.812 304.203 562.088 304.191V303.688C562.088 303.055 561.678 302.691 560.939 302.691C560.271 302.691 559.861 302.996 559.744 303.453H558.303C558.408 302.375 559.381 301.555 560.975 301.555C562.182 301.555 563.576 302.047 563.576 303.746V308H562.146V307.121H562.1C561.818 307.66 561.221 308.129 560.225 308.129C559.006 308.129 558.092 307.461 558.092 306.207ZM559.533 306.195C559.533 306.746 559.979 307.027 560.611 307.027C561.514 307.027 562.1 306.43 562.1 305.715V305.188L560.693 305.281C559.979 305.34 559.533 305.633 559.533 306.195ZM565.053 308V299.516H566.553V302.68H566.611C566.846 302.223 567.303 301.555 568.428 301.555C569.904 301.555 571.064 302.703 571.064 304.824C571.064 306.922 569.928 308.117 568.439 308.117C567.338 308.117 566.846 307.461 566.611 306.992H566.518V308H565.053ZM566.518 304.812C566.518 306.055 567.057 306.887 568.018 306.887C569.014 306.887 569.541 306.02 569.541 304.812C569.541 303.629 569.025 302.773 568.018 302.773C567.057 302.773 566.518 303.582 566.518 304.812ZM575.061 308.129C573.139 308.129 571.967 306.852 571.967 304.859C571.967 302.891 573.162 301.555 574.979 301.555C576.537 301.555 577.885 302.527 577.885 304.766V305.234H573.443C573.461 306.318 574.1 306.957 575.072 306.957C575.729 306.957 576.174 306.676 576.361 306.301H577.826C577.557 307.402 576.537 308.129 575.061 308.129ZM573.455 304.215H576.455C576.443 303.348 575.869 302.715 575.002 302.715C574.1 302.715 573.502 303.4 573.455 304.215ZM580.545 299.516V308H579.045V299.516H580.545Z" fill="var(--sol-element-primary)" fill-opacity="0.3"/>
<g clip-path="url(#clip28_1669_181597)">
<mask id="path-78-outside-7_1669_181597" maskUnits="userSpaceOnUse" x="608" y="288" width="81" height="32" fill="var(--sol-static-black)">
<rect fill="var(--sol-surface)" x="608" y="288" width="81" height="32"/>
<path d="M608 288H688V320H608V288Z"/>
</mask>
<path d="M688 288H687V320H688H689V288H688Z" fill="var(--sol-border-solid-variant)" mask="url(#path-78-outside-7_1669_181597)"/>
<path d="M636.955 299.516V308H635.455V299.516H636.955ZM638.092 306.207C638.092 304.777 639.275 304.355 640.459 304.285C640.898 304.256 641.812 304.203 642.088 304.191V303.688C642.088 303.055 641.678 302.691 640.939 302.691C640.271 302.691 639.861 302.996 639.744 303.453H638.303C638.408 302.375 639.381 301.555 640.975 301.555C642.182 301.555 643.576 302.047 643.576 303.746V308H642.146V307.121H642.1C641.818 307.66 641.221 308.129 640.225 308.129C639.006 308.129 638.092 307.461 638.092 306.207ZM639.533 306.195C639.533 306.746 639.979 307.027 640.611 307.027C641.514 307.027 642.1 306.43 642.1 305.715V305.188L640.693 305.281C639.979 305.34 639.533 305.633 639.533 306.195ZM645.053 308V299.516H646.553V302.68H646.611C646.846 302.223 647.303 301.555 648.428 301.555C649.904 301.555 651.064 302.703 651.064 304.824C651.064 306.922 649.928 308.117 648.439 308.117C647.338 308.117 646.846 307.461 646.611 306.992H646.518V308H645.053ZM646.518 304.812C646.518 306.055 647.057 306.887 648.018 306.887C649.014 306.887 649.541 306.02 649.541 304.812C649.541 303.629 649.025 302.773 648.018 302.773C647.057 302.773 646.518 303.582 646.518 304.812ZM655.061 308.129C653.139 308.129 651.967 306.852 651.967 304.859C651.967 302.891 653.162 301.555 654.979 301.555C656.537 301.555 657.885 302.527 657.885 304.766V305.234H653.443C653.461 306.318 654.1 306.957 655.072 306.957C655.729 306.957 656.174 306.676 656.361 306.301H657.826C657.557 307.402 656.537 308.129 655.061 308.129ZM653.455 304.215H656.455C656.443 303.348 655.869 302.715 655.002 302.715C654.1 302.715 653.502 303.4 653.455 304.215ZM660.545 299.516V308H659.045V299.516H660.545Z" fill="var(--sol-element-quaternary)"/>
</g>
<g clip-path="url(#clip29_1669_181597)">
<mask id="path-82-outside-8_1669_181597" maskUnits="userSpaceOnUse" x="688" y="288" width="81" height="32" fill="var(--sol-static-black)">
<rect fill="var(--sol-surface)" x="688" y="288" width="81" height="32"/>
<path d="M688 288H768V320H688V288Z"/>
</mask>
<path d="M768 288H767V320H768H769V288H768Z" fill="var(--sol-border-solid-variant)" mask="url(#path-82-outside-8_1669_181597)"/>
<path d="M716.955 299.516V308H715.455V299.516H716.955ZM718.092 306.207C718.092 304.777 719.275 304.355 720.459 304.285C720.898 304.256 721.812 304.203 722.088 304.191V303.688C722.088 303.055 721.678 302.691 720.939 302.691C720.271 302.691 719.861 302.996 719.744 303.453H718.303C718.408 302.375 719.381 301.555 720.975 301.555C722.182 301.555 723.576 302.047 723.576 303.746V308H722.146V307.121H722.1C721.818 307.66 721.221 308.129 720.225 308.129C719.006 308.129 718.092 307.461 718.092 306.207ZM719.533 306.195C719.533 306.746 719.979 307.027 720.611 307.027C721.514 307.027 722.1 306.43 722.1 305.715V305.188L720.693 305.281C719.979 305.34 719.533 305.633 719.533 306.195ZM725.053 308V299.516H726.553V302.68H726.611C726.846 302.223 727.303 301.555 728.428 301.555C729.904 301.555 731.064 302.703 731.064 304.824C731.064 306.922 729.928 308.117 728.439 308.117C727.338 308.117 726.846 307.461 726.611 306.992H726.518V308H725.053ZM726.518 304.812C726.518 306.055 727.057 306.887 728.018 306.887C729.014 306.887 729.541 306.02 729.541 304.812C729.541 303.629 729.025 302.773 728.018 302.773C727.057 302.773 726.518 303.582 726.518 304.812ZM735.061 308.129C733.139 308.129 731.967 306.852 731.967 304.859C731.967 302.891 733.162 301.555 734.979 301.555C736.537 301.555 737.885 302.527 737.885 304.766V305.234H733.443C733.461 306.318 734.1 306.957 735.072 306.957C735.729 306.957 736.174 306.676 736.361 306.301H737.826C737.557 307.402 736.537 308.129 735.061 308.129ZM733.455 304.215H736.455C736.443 303.348 735.869 302.715 735.002 302.715C734.1 302.715 733.502 303.4 733.455 304.215ZM740.545 299.516V308H739.045V299.516H740.545Z" fill="var(--sol-element-quaternary)"/>
</g>
</g>
<defs>
<filter id="filter0_d_1669_181597" x="229" y="51" width="82" height="30" filterUnits="userSpaceOnUse" color-interpolation-filters="sRGB">
<feFlood flood-opacity="0" result="BackgroundImageFix"/>
<feColorMatrix in="SourceAlpha" type="matrix" values="0 0 0 0 0 0 0 0 0 0 0 0 0 0 0 0 0 0 127 0" result="hardAlpha"/>
<feOffset dy="2"/>
<feGaussianBlur stdDeviation="1"/>
<feComposite in2="hardAlpha" operator="out"/>
<feColorMatrix type="matrix" values="0 0 0 0 0 0 0 0 0 0 0 0 0 0 0 0 0 0 0.04 0"/>
<feBlend mode="normal" in2="BackgroundImageFix" result="effect1_dropShadow_1669_181597"/>
<feBlend mode="normal" in="SourceGraphic" in2="effect1_dropShadow_1669_181597" result="shape"/>
</filter>
<filter id="filter1_d_1669_181597" x="229" y="131" width="82" height="30" filterUnits="userSpaceOnUse" color-interpolation-filters="sRGB">
<feFlood flood-opacity="0" result="BackgroundImageFix"/>
<feColorMatrix in="SourceAlpha" type="matrix" values="0 0 0 0 0 0 0 0 0 0 0 0 0 0 0 0 0 0 127 0" result="hardAlpha"/>
<feOffset dy="2"/>
<feGaussianBlur stdDeviation="1"/>
<feComposite in2="hardAlpha" operator="out"/>
<feColorMatrix type="matrix" values="0 0 0 0 0 0 0 0 0 0 0 0 0 0 0 0 0 0 0.04 0"/>
<feBlend mode="normal" in2="BackgroundImageFix" result="effect1_dropShadow_1669_181597"/>
<feBlend mode="normal" in="SourceGraphic" in2="effect1_dropShadow_1669_181597" result="shape"/>
</filter>
<filter id="filter2_d_1669_181597" x="229" y="211" width="82" height="30" filterUnits="userSpaceOnUse" color-interpolation-filters="sRGB">
<feFlood flood-opacity="0" result="BackgroundImageFix"/>
<feColorMatrix in="SourceAlpha" type="matrix" values="0 0 0 0 0 0 0 0 0 0 0 0 0 0 0 0 0 0 127 0" result="hardAlpha"/>
<feOffset dy="2"/>
<feGaussianBlur stdDeviation="1"/>
<feComposite in2="hardAlpha" operator="out"/>
<feColorMatrix type="matrix" values="0 0 0 0 0 0 0 0 0 0 0 0 0 0 0 0 0 0 0.04 0"/>
<feBlend mode="normal" in2="BackgroundImageFix" result="effect1_dropShadow_1669_181597"/>
<feBlend mode="normal" in="SourceGraphic" in2="effect1_dropShadow_1669_181597" result="shape"/>
</filter>
<filter id="filter3_d_1669_181597" x="229" y="291" width="82" height="30" filterUnits="userSpaceOnUse" color-interpolation-filters="sRGB">
<feFlood flood-opacity="0" result="BackgroundImageFix"/>
<feColorMatrix in="SourceAlpha" type="matrix" values="0 0 0 0 0 0 0 0 0 0 0 0 0 0 0 0 0 0 127 0" result="hardAlpha"/>
<feOffset dy="2"/>
<feGaussianBlur stdDeviation="1"/>
<feComposite in2="hardAlpha" operator="out"/>
<feColorMatrix type="matrix" values="0 0 0 0 0 0 0 0 0 0 0 0 0 0 0 0 0 0 0.04 0"/>
<feBlend mode="normal" in2="BackgroundImageFix" result="effect1_dropShadow_1669_181597"/>
<feBlend mode="normal" in="SourceGraphic" in2="effect1_dropShadow_1669_181597" result="shape"/>
</filter>
<clipPath id="clip0_1669_181597">
<path d="M228 52C228 49.7909 229.791 48 232 48H464C466.209 48 468 49.7909 468 52V76C468 78.2091 466.209 80 464 80H232C229.791 80 228 78.2091 228 76V52Z" fill="var(--sol-surface)"/>
</clipPath>
<clipPath id="clip1_1669_181597">
<path d="M231 53C231 51.8954 231.895 51 233 51H307C308.105 51 309 51.8954 309 53V75C309 76.1046 308.105 77 307 77H233C231.895 77 231 76.1046 231 75V53Z" fill="var(--sol-surface)"/>
</clipPath>
<clipPath id="clip2_1669_181597">
<rect width="78" height="26" fill="var(--sol-surface)" transform="translate(309 51)"/>
</clipPath>
<clipPath id="clip3_1669_181597">
<rect width="78" height="26" fill="var(--sol-surface)" transform="translate(387 51)"/>
</clipPath>
<clipPath id="clip4_1669_181597">
<path d="M528 52C528 49.7909 529.791 48 532 48H764C766.209 48 768 49.7909 768 52V76C768 78.2091 766.209 80 764 80H532C529.791 80 528 78.2091 528 76V52Z" fill="var(--sol-surface)"/>
</clipPath>
<clipPath id="clip5_1669_181597">
<path d="M528 52C528 49.7909 529.791 48 532 48H608V80H532C529.791 80 528 78.2091 528 76V52Z" fill="var(--sol-surface)"/>
</clipPath>
<clipPath id="clip6_1669_181597">
<path d="M608 52C608 49.7909 609.791 48 612 48H684C686.209 48 688 49.7909 688 52V76C688 78.2091 686.209 80 684 80H612C609.791 80 608 78.2091 608 76V52Z" fill="var(--sol-surface)"/>
</clipPath>
<clipPath id="clip7_1669_181597">
<path d="M688 48H764C766.209 48 768 49.7909 768 52V76C768 78.2091 766.209 80 764 80H688V48Z" fill="var(--sol-surface)"/>
</clipPath>
<clipPath id="clip8_1669_181597">
<path d="M228 132C228 129.791 229.791 128 232 128H464C466.209 128 468 129.791 468 132V156C468 158.209 466.209 160 464 160H232C229.791 160 228 158.209 228 156V132Z" fill="var(--sol-surface)"/>
</clipPath>
<clipPath id="clip9_1669_181597">
<path d="M231 133C231 131.895 231.895 131 233 131H307C308.105 131 309 131.895 309 133V155C309 156.105 308.105 157 307 157H233C231.895 157 231 156.105 231 155V133Z" fill="var(--sol-surface)"/>
</clipPath>
<clipPath id="clip10_1669_181597">
<rect width="78" height="26" fill="var(--sol-surface)" transform="translate(309 131)"/>
</clipPath>
<clipPath id="clip11_1669_181597">
<rect width="78" height="26" fill="var(--sol-surface)" transform="translate(387 131)"/>
</clipPath>
<clipPath id="clip12_1669_181597">
<path d="M528 132C528 129.791 529.791 128 532 128H764C766.209 128 768 129.791 768 132V156C768 158.209 766.209 160 764 160H532C529.791 160 528 158.209 528 156V132Z" fill="var(--sol-surface)"/>
</clipPath>
<clipPath id="clip13_1669_181597">
<path d="M528 132C528 129.791 529.791 128 532 128H608V160H532C529.791 160 528 158.209 528 156V132Z" fill="var(--sol-surface)"/>
</clipPath>
<clipPath id="clip14_1669_181597">
<path d="M608 132C608 129.791 609.791 128 612 128H684C686.209 128 688 129.791 688 132V156C688 158.209 686.209 160 684 160H612C609.791 160 608 158.209 608 156V132Z" fill="var(--sol-surface)"/>
</clipPath>
<clipPath id="clip15_1669_181597">
<path d="M688 128H764C766.209 128 768 129.791 768 132V156C768 158.209 766.209 160 764 160H688V128Z" fill="var(--sol-surface)"/>
</clipPath>
<clipPath id="clip16_1669_181597">
<path d="M228 212C228 209.791 229.791 208 232 208H464C466.209 208 468 209.791 468 212V236C468 238.209 466.209 240 464 240H232C229.791 240 228 238.209 228 236V212Z" fill="var(--sol-surface)"/>
</clipPath>
<clipPath id="clip17_1669_181597">
<path d="M231 213C231 211.895 231.895 211 233 211H307C308.105 211 309 211.895 309 213V235C309 236.105 308.105 237 307 237H233C231.895 237 231 236.105 231 235V213Z" fill="var(--sol-surface)"/>
</clipPath>
<clipPath id="clip18_1669_181597">
<rect width="78" height="26" fill="var(--sol-surface)" transform="translate(309 211)"/>
</clipPath>
<clipPath id="clip19_1669_181597">
<rect width="78" height="26" fill="var(--sol-surface)" transform="translate(387 211)"/>
</clipPath>
<clipPath id="clip20_1669_181597">
<path d="M528 212C528 209.791 529.791 208 532 208H764C766.209 208 768 209.791 768 212V236C768 238.209 766.209 240 764 240H532C529.791 240 528 238.209 528 236V212Z" fill="var(--sol-surface)"/>
</clipPath>
<clipPath id="clip21_1669_181597">
<path d="M528 212C528 209.791 529.791 208 532 208H608V240H532C529.791 240 528 238.209 528 236V212Z" fill="var(--sol-surface)"/>
</clipPath>
<clipPath id="clip22_1669_181597">
<path d="M608 212C608 209.791 609.791 208 612 208H684C686.209 208 688 209.791 688 212V236C688 238.209 686.209 240 684 240H612C609.791 240 608 238.209 608 236V212Z" fill="var(--sol-surface)"/>
</clipPath>
<clipPath id="clip23_1669_181597">
<path d="M688 208H764C766.209 208 768 209.791 768 212V236C768 238.209 766.209 240 764 240H688V208Z" fill="var(--sol-surface)"/>
</clipPath>
<clipPath id="clip24_1669_181597">
<path d="M228 292C228 289.791 229.791 288 232 288H464C466.209 288 468 289.791 468 292V316C468 318.209 466.209 320 464 320H232C229.791 320 228 318.209 228 316V292Z" fill="var(--sol-surface)"/>
</clipPath>
<clipPath id="clip25_1669_181597">
<rect width="78" height="26" fill="var(--sol-surface)" transform="translate(309 291)"/>
</clipPath>
<clipPath id="clip26_1669_181597">
<rect width="78" height="26" fill="var(--sol-surface)" transform="translate(387 291)"/>
</clipPath>
<clipPath id="clip27_1669_181597">
<path d="M528 292C528 289.791 529.791 288 532 288H764C766.209 288 768 289.791 768 292V316C768 318.209 766.209 320 764 320H532C529.791 320 528 318.209 528 316V292Z" fill="var(--sol-surface)"/>
</clipPath>
<clipPath id="clip28_1669_181597">
<path d="M608 292C608 289.791 609.791 288 612 288H684C686.209 288 688 289.791 688 292V316C688 318.209 686.209 320 684 320H612C609.791 320 608 318.209 608 316V292Z" fill="var(--sol-surface)"/>
</clipPath>
<clipPath id="clip29_1669_181597">
<path d="M688 288H764C766.209 288 768 289.791 768 292V316C768 318.209 766.209 320 764 320H688V288Z" fill="var(--sol-surface)"/>
</clipPath>
</defs>
</svg>
