<svg width="442" height="170" viewBox="0 0 442 170" fill="none" xmlns="http://www.w3.org/2000/svg">
<style>
:root {
  --sol-element-primary: #161616;
  --sol-element-quaternary: #858585;
  --sol-element-brand-variant: #3a3480;
  --sol-fill-active: #4d469a;
  --sol-selected-container-variant: #f5f4fd;
  --sol-surface: #ffffff;
  --sol-border-solid-variant: #e0e0e0;
  --sol-error-dim: #b84451;
  --sol-static-white: #ffffff;
  --sol-static-black: #000000;
}
@media (prefers-color-scheme: dark) {
  :root {
    --sol-element-primary: #ffffff;
    --sol-element-quaternary: rgba(255, 255, 255, 0.5);
    --sol-element-brand-variant: #ffffff;
    --sol-fill-active: #7b74c4;
    --sol-selected-container-variant: rgba(0, 0, 0, 0.08);
    --sol-surface: #161616;
    --sol-border-solid-variant: #3d3d3d;
    --sol-error-dim: #e76067;
  }
}
</style>
<g clip-path="url(#clip0_1669_182084)">
<g filter="url(#filter0_d_1669_182084)">
<g clip-path="url(#clip1_1669_182084)">
<rect y="30" width="442" height="140" fill="var(--sol-surface)"/>
<g clip-path="url(#clip2_1669_182084)">
<path d="M33 58C33 55.7909 34.7909 54 37 54H405C407.209 54 409 55.7909 409 58V86C409 88.2091 407.209 90 405 90H37C34.7909 90 33 88.2091 33 86V58Z" fill="var(--sol-element-primary)" fill-opacity="0.04"/>
<g filter="url(#filter1_d_1669_182084)">
<path d="M36 59C36 57.8954 36.8954 57 38 57H157.333C158.438 57 159.333 57.8954 159.333 59V85C159.333 86.1046 158.438 87 157.333 87H38C36.8954 87 36 86.1046 36 85V59Z" fill="var(--sol-surface)"/>
<path d="M87.334 76H84.4512V67.5156H87.3809C89.9121 67.5156 91.4473 69.1094 91.4473 71.7461C91.4473 74.3945 89.9121 76 87.334 76ZM85.9746 74.6758H87.252C89.0215 74.6758 89.9238 73.7031 89.9238 71.7461C89.9238 69.8008 89.0215 68.8398 87.2988 68.8398H85.9746V74.6758ZM92.4316 74.207C92.4316 72.7773 93.6152 72.3555 94.7988 72.2852C95.2383 72.2559 96.1523 72.2031 96.4277 72.1914V71.6875C96.4277 71.0547 96.0176 70.6914 95.2793 70.6914C94.6113 70.6914 94.2012 70.9961 94.084 71.4531H92.6426C92.748 70.375 93.7207 69.5547 95.3145 69.5547C96.5215 69.5547 97.916 70.0469 97.916 71.7461V76H96.4863V75.1211H96.4395C96.1582 75.6602 95.5605 76.1289 94.5645 76.1289C93.3457 76.1289 92.4316 75.4609 92.4316 74.207ZM93.873 74.1953C93.873 74.7461 94.3184 75.0273 94.9512 75.0273C95.8535 75.0273 96.4395 74.4297 96.4395 73.7148V73.1875L95.0332 73.2812C94.3184 73.3398 93.873 73.6328 93.873 74.1953ZM99.3223 76V69.6367H100.822V76H99.3223ZM100.084 68.7344C99.6152 68.7344 99.2168 68.3711 99.2168 67.9141C99.2168 67.4688 99.6152 67.1055 100.084 67.1055C100.564 67.1055 100.951 67.4688 100.951 67.9141C100.951 68.3711 100.564 68.7344 100.084 68.7344ZM103.752 67.5156V76H102.252V67.5156H103.752ZM106.084 78.3906C105.791 78.3906 105.498 78.3789 105.311 78.3555V77.1602C105.498 77.1719 105.744 77.1836 105.943 77.1836C106.307 77.1836 106.611 77.1484 106.869 76.4688L106.998 76.1289L104.678 69.6367H106.26L107.736 74.4414H107.807L109.283 69.6367H110.865L108.311 76.7734C107.947 77.793 107.279 78.3906 106.084 78.3906Z" fill="var(--sol-element-primary)"/>
</g>
<g clip-path="url(#clip3_1669_182084)">
<path d="M203.078 76L200.688 67.5156H202.328L203.863 73.7617H203.945L205.574 67.5156H207.074L208.715 73.7734H208.785L210.32 67.5156H211.961L209.57 76H208.059L206.359 70.0352H206.301L204.59 76H203.078ZM215.031 76.1289C213.109 76.1289 211.938 74.8516 211.938 72.8594C211.938 70.8906 213.133 69.5547 214.949 69.5547C216.508 69.5547 217.855 70.5273 217.855 72.7656V73.2344H213.414C213.432 74.3184 214.07 74.957 215.043 74.957C215.699 74.957 216.145 74.6758 216.332 74.3008H217.797C217.527 75.4023 216.508 76.1289 215.031 76.1289ZM213.426 72.2148H216.426C216.414 71.3477 215.84 70.7148 214.973 70.7148C214.07 70.7148 213.473 71.4004 213.426 72.2148ZM221.84 76.1289C219.918 76.1289 218.746 74.8516 218.746 72.8594C218.746 70.8906 219.941 69.5547 221.758 69.5547C223.316 69.5547 224.664 70.5273 224.664 72.7656V73.2344H220.223C220.24 74.3184 220.879 74.957 221.852 74.957C222.508 74.957 222.953 74.6758 223.141 74.3008H224.605C224.336 75.4023 223.316 76.1289 221.84 76.1289ZM220.234 72.2148H223.234C223.223 71.3477 222.648 70.7148 221.781 70.7148C220.879 70.7148 220.281 71.4004 220.234 72.2148ZM225.824 76V67.5156H227.324V72.1914H227.43L229.715 69.6367H231.461L229 72.3789L231.613 76H229.832L227.875 73.2695L227.324 73.8555V76H225.824ZM233.852 67.5156V76H232.352V67.5156H233.852ZM236.184 78.3906C235.891 78.3906 235.598 78.3789 235.41 78.3555V77.1602C235.598 77.1719 235.844 77.1836 236.043 77.1836C236.406 77.1836 236.711 77.1484 236.969 76.4688L237.098 76.1289L234.777 69.6367H236.359L237.836 74.4414H237.906L239.383 69.6367H240.965L238.41 76.7734C238.047 77.793 237.379 78.3906 236.184 78.3906Z" fill="var(--sol-element-quaternary)"/>
</g>
<g clip-path="url(#clip4_1669_182084)">
<path d="M322.117 67.5156H323.992L326.512 73.6797H326.617L329.137 67.5156H331.012V76H329.547V70.1641H329.465L327.109 75.9766H326.02L323.664 70.1406H323.594V76H322.117V67.5156ZM335.289 76.1289C333.438 76.1289 332.242 74.8164 332.242 72.8477C332.242 70.8672 333.438 69.5547 335.289 69.5547C337.152 69.5547 338.336 70.8672 338.336 72.8477C338.336 74.8164 337.152 76.1289 335.289 76.1289ZM335.301 74.9336C336.32 74.9336 336.824 74.0078 336.824 72.8359C336.824 71.6758 336.32 70.7383 335.301 70.7383C334.258 70.7383 333.754 71.6758 333.754 72.8359C333.754 74.0078 334.258 74.9336 335.301 74.9336ZM340.996 72.2734V76H339.496V69.6367H340.926V70.7148H341.008C341.301 70 341.945 69.5547 342.895 69.5547C344.219 69.5547 345.086 70.4219 345.074 71.9453V76H343.586V72.1797C343.586 71.3242 343.129 70.8203 342.344 70.8203C341.547 70.8203 340.996 71.3477 340.996 72.2734ZM349.68 69.6367V70.7852H348.426V74.0898C348.426 74.6992 348.73 74.8281 349.105 74.8281C349.281 74.8281 349.574 74.8164 349.762 74.8047V76.0234C349.586 76.0586 349.293 76.082 348.918 76.082C347.793 76.082 346.926 75.5312 346.938 74.3359V70.7852H346.023V69.6367H346.938V68.1133H348.426V69.6367H349.68ZM352.469 72.2734V76H350.969V67.5156H352.434V70.7148H352.516C352.809 70 353.418 69.5547 354.402 69.5547C355.727 69.5547 356.594 70.4102 356.594 71.9453V76H355.105V72.1797C355.105 71.3125 354.637 70.8203 353.852 70.8203C353.043 70.8203 352.469 71.3477 352.469 72.2734ZM359.512 67.5156V76H358.012V67.5156H359.512ZM361.844 78.3906C361.551 78.3906 361.258 78.3789 361.07 78.3555V77.1602C361.258 77.1719 361.504 77.1836 361.703 77.1836C362.066 77.1836 362.371 77.1484 362.629 76.4688L362.758 76.1289L360.438 69.6367H362.02L363.496 74.4414H363.566L365.043 69.6367H366.625L364.07 76.7734C363.707 77.793 363.039 78.3906 361.844 78.3906Z" fill="var(--sol-element-quaternary)"/>
</g>
</g>
<path d="M34.4961 127.266V126.398L38.3164 120.516H39.6172V126.34H40.8008V127.266H39.6172V129H38.6094V127.266H34.4961ZM35.6328 126.34H38.6094V121.852H38.5039L35.6328 126.27V126.34ZM44.9727 129.117C43.0859 129.117 42.0078 127.535 42.0078 124.758C42.0078 122.004 43.1094 120.398 44.9727 120.398C46.8359 120.398 47.9375 122.004 47.9375 124.758C47.9375 127.535 46.8477 129.117 44.9727 129.117ZM44.9727 128.18C46.1914 128.18 46.9062 126.949 46.9062 124.758C46.9062 122.566 46.1914 121.312 44.9727 121.312C43.7539 121.312 43.0273 122.566 43.0273 124.758C43.0273 126.949 43.7422 128.18 44.9727 128.18ZM49.4844 129V120.516H50.5391V124.711H50.6445L54.418 120.516H55.8008L52.25 124.348L55.8008 129H54.5117L51.5938 125.074L50.5391 126.27V129H49.4844Z" fill="var(--sol-border-solid-variant)"/>
<rect x="72" y="124.5" width="298" height="0.999991" rx="0.499996" fill="var(--sol-border-solid-variant)"/>
<path d="M389.75 129.117C388.273 129.094 386.656 128.227 386.656 125.086C386.656 122.086 387.887 120.398 389.879 120.398C391.367 120.398 392.41 121.312 392.633 122.648H391.59C391.391 121.898 390.828 121.336 389.879 121.336C388.484 121.336 387.652 122.531 387.652 124.57H387.758C388.25 123.867 389.023 123.445 389.938 123.445C391.449 123.445 392.703 124.617 392.703 126.258C392.703 127.852 391.531 129.129 389.75 129.117ZM389.75 128.191C390.852 128.191 391.672 127.324 391.684 126.27C391.672 125.227 390.887 124.371 389.773 124.371C388.66 124.371 387.805 125.273 387.793 126.281C387.793 127.277 388.613 128.191 389.75 128.191ZM396.934 129.117C395.047 129.117 393.969 127.535 393.969 124.758C393.969 122.004 395.07 120.398 396.934 120.398C398.797 120.398 399.898 122.004 399.898 124.758C399.898 127.535 398.809 129.117 396.934 129.117ZM396.934 128.18C398.152 128.18 398.867 126.949 398.867 124.758C398.867 122.566 398.152 121.312 396.934 121.312C395.715 121.312 394.988 122.566 394.988 124.758C394.988 126.949 395.703 128.18 396.934 128.18ZM404.082 129.117C402.195 129.117 401.117 127.535 401.117 124.758C401.117 122.004 402.219 120.398 404.082 120.398C405.945 120.398 407.047 122.004 407.047 124.758C407.047 127.535 405.957 129.117 404.082 129.117ZM404.082 128.18C405.301 128.18 406.016 126.949 406.016 124.758C406.016 122.566 405.301 121.312 404.082 121.312C402.863 121.312 402.137 122.566 402.137 124.758C402.137 126.949 402.852 128.18 404.082 128.18Z" fill="var(--sol-border-solid-variant)"/>
<path d="M37.7188 161.518C36.0312 161.518 34.8242 160.615 34.7656 159.268H35.832C35.8906 160.076 36.6992 160.58 37.707 160.58C38.8203 160.58 39.6406 159.971 39.6406 159.092C39.6406 158.166 38.9023 157.51 37.5781 157.51H36.8867V156.584H37.5781C38.6094 156.584 39.3242 156.01 39.3242 155.131C39.3242 154.287 38.7031 153.713 37.7422 153.713C36.8398 153.713 36.0078 154.217 35.9609 155.049H34.9414C35 153.701 36.2422 152.799 37.7539 152.799C39.3711 152.799 40.3555 153.854 40.3438 155.072C40.3555 156.033 39.793 156.748 38.9023 156.994V157.053C40.0039 157.229 40.6836 158.014 40.6719 159.092C40.6836 160.486 39.4062 161.518 37.7188 161.518ZM44.9727 161.518C43.0859 161.518 42.0078 159.936 42.0078 157.158C42.0078 154.404 43.1094 152.799 44.9727 152.799C46.8359 152.799 47.9375 154.404 47.9375 157.158C47.9375 159.936 46.8477 161.518 44.9727 161.518ZM44.9727 160.58C46.1914 160.58 46.9062 159.35 46.9062 157.158C46.9062 154.967 46.1914 153.713 44.9727 153.713C43.7539 153.713 43.0273 154.967 43.0273 157.158C43.0273 159.35 43.7422 160.58 44.9727 160.58ZM49.4844 161.4V152.916H50.5391V157.111H50.6445L54.418 152.916H55.8008L52.25 156.748L55.8008 161.4H54.5117L51.5938 157.475L50.5391 158.67V161.4H49.4844Z" fill="var(--sol-border-solid-variant)"/>
<rect x="72" y="156.9" width="298" height="0.999991" rx="0.499996" fill="var(--sol-border-solid-variant)"/>
<path d="M389.562 161.518C388.027 161.518 386.867 160.568 386.809 159.268H387.828C387.91 160.029 388.648 160.592 389.562 160.592C390.664 160.592 391.461 159.783 391.461 158.717C391.461 157.615 390.629 156.807 389.492 156.795C388.777 156.783 388.227 157.006 387.91 157.557H386.891L387.488 152.916H392.082V153.854H388.367L388.051 156.338H388.133C388.508 156.045 389.082 155.846 389.68 155.846C391.297 155.846 392.492 157.041 392.492 158.693C392.492 160.334 391.25 161.518 389.562 161.518ZM396.723 161.518C395.188 161.518 394.027 160.568 393.969 159.268H394.988C395.07 160.029 395.809 160.592 396.723 160.592C397.824 160.592 398.621 159.783 398.621 158.717C398.621 157.615 397.789 156.807 396.652 156.795C395.938 156.783 395.387 157.006 395.07 157.557H394.051L394.648 152.916H399.242V153.854H395.527L395.211 156.338H395.293C395.668 156.045 396.242 155.846 396.84 155.846C398.457 155.846 399.652 157.041 399.652 158.693C399.652 160.334 398.41 161.518 396.723 161.518ZM403.895 161.518C402.008 161.518 400.93 159.936 400.93 157.158C400.93 154.404 402.031 152.799 403.895 152.799C405.758 152.799 406.859 154.404 406.859 157.158C406.859 159.936 405.77 161.518 403.895 161.518ZM403.895 160.58C405.113 160.58 405.828 159.35 405.828 157.158C405.828 154.967 405.113 153.713 403.895 153.713C402.676 153.713 401.949 154.967 401.949 157.158C401.949 159.35 402.664 160.58 403.895 160.58Z" fill="var(--sol-border-solid-variant)"/>
<path d="M72 144.865L121.366 126L171.628 145.858L221.341 146L270.39 139.546L320.569 157.723L370 152.759" stroke="var(--sol-fill-active)" stroke-width="2" stroke-linecap="round"/>
</g>
<rect x="0.5" y="30.5" width="441" height="139" stroke="var(--sol-border-solid-variant)"/>
</g>
</g>
<defs>
<filter id="filter0_d_1669_182084" x="-2" y="30" width="446" height="144" filterUnits="userSpaceOnUse" color-interpolation-filters="sRGB">
<feFlood flood-opacity="0" result="BackgroundImageFix"/>
<feColorMatrix in="SourceAlpha" type="matrix" values="0 0 0 0 0 0 0 0 0 0 0 0 0 0 0 0 0 0 127 0" result="hardAlpha"/>
<feOffset dy="2"/>
<feGaussianBlur stdDeviation="1"/>
<feComposite in2="hardAlpha" operator="out"/>
<feColorMatrix type="matrix" values="0 0 0 0 0 0 0 0 0 0 0 0 0 0 0 0 0 0 0.04 0"/>
<feBlend mode="normal" in2="BackgroundImageFix" result="effect1_dropShadow_1669_182084"/>
<feBlend mode="normal" in="SourceGraphic" in2="effect1_dropShadow_1669_182084" result="shape"/>
</filter>
<filter id="filter1_d_1669_182084" x="34" y="57" width="127.334" height="34" filterUnits="userSpaceOnUse" color-interpolation-filters="sRGB">
<feFlood flood-opacity="0" result="BackgroundImageFix"/>
<feColorMatrix in="SourceAlpha" type="matrix" values="0 0 0 0 0 0 0 0 0 0 0 0 0 0 0 0 0 0 127 0" result="hardAlpha"/>
<feOffset dy="2"/>
<feGaussianBlur stdDeviation="1"/>
<feComposite in2="hardAlpha" operator="out"/>
<feColorMatrix type="matrix" values="0 0 0 0 0 0 0 0 0 0 0 0 0 0 0 0 0 0 0.04 0"/>
<feBlend mode="normal" in2="BackgroundImageFix" result="effect1_dropShadow_1669_182084"/>
<feBlend mode="normal" in="SourceGraphic" in2="effect1_dropShadow_1669_182084" result="shape"/>
</filter>
<clipPath id="clip0_1669_182084">
<rect width="442" height="170" fill="var(--sol-surface)"/>
</clipPath>
<clipPath id="clip1_1669_182084">
<rect y="30" width="442" height="140" fill="var(--sol-surface)"/>
</clipPath>
<clipPath id="clip2_1669_182084">
<path d="M33 58C33 55.7909 34.7909 54 37 54H405C407.209 54 409 55.7909 409 58V86C409 88.2091 407.209 90 405 90H37C34.7909 90 33 88.2091 33 86V58Z" fill="var(--sol-surface)"/>
</clipPath>
<clipPath id="clip3_1669_182084">
<rect width="123.333" height="30" fill="var(--sol-surface)" transform="translate(159.334 57)"/>
</clipPath>
<clipPath id="clip4_1669_182084">
<rect width="123.333" height="30" fill="var(--sol-surface)" transform="translate(282.666 57)"/>
</clipPath>
</defs>
</svg>
