<svg width="442" height="130" viewBox="0 0 442 130" fill="none" xmlns="http://www.w3.org/2000/svg">
<style>
:root {
  --sol-element-primary: #161616;
  --sol-element-quaternary: #858585;
  --sol-element-brand-variant: #3a3480;
  --sol-fill-active: #4d469a;
  --sol-selected-container-variant: #f5f4fd;
  --sol-surface: #ffffff;
  --sol-border-solid-variant: #e0e0e0;
  --sol-error-dim: #b84451;
  --sol-static-white: #ffffff;
  --sol-static-black: #000000;
}
@media (prefers-color-scheme: dark) {
  :root {
    --sol-element-primary: #ffffff;
    --sol-element-quaternary: rgba(255, 255, 255, 0.5);
    --sol-element-brand-variant: #ffffff;
    --sol-fill-active: #7b74c4;
    --sol-selected-container-variant: rgba(0, 0, 0, 0.08);
    --sol-surface: #161616;
    --sol-border-solid-variant: #3d3d3d;
    --sol-error-dim: #e76067;
  }
}
</style>
<g clip-path="url(#clip0_1669_182142)">
<path d="M51 53C51 50.7909 52.7909 49 55 49H387C389.209 49 391 50.7909 391 53V77C391 79.2091 389.209 81 387 81H55C52.7909 81 51 79.2091 51 77V53Z" fill="var(--sol-element-primary)" fill-opacity="0.04"/>
<g filter="url(#filter0_d_1669_182142)">
<g clip-path="url(#clip1_1669_182142)">
<path d="M54 54C54 52.8954 54.8954 52 56 52H118.8C119.905 52 120.8 52.8954 120.8 54V76C120.8 77.1046 119.905 78 118.8 78H56C54.8954 78 54 77.1046 54 76V54Z" fill="var(--sol-surface)"/>
<path d="M76.1152 60.5156V69H74.6152V60.5156H76.1152ZM77.252 67.207C77.252 65.7773 78.4355 65.3555 79.6191 65.2852C80.0586 65.2559 80.9727 65.2031 81.248 65.1914V64.6875C81.248 64.0547 80.8379 63.6914 80.0996 63.6914C79.4316 63.6914 79.0215 63.9961 78.9043 64.4531H77.4629C77.5684 63.375 78.541 62.5547 80.1348 62.5547C81.3418 62.5547 82.7363 63.0469 82.7363 64.7461V69H81.3066V68.1211H81.2598C80.9785 68.6602 80.3809 69.1289 79.3848 69.1289C78.166 69.1289 77.252 68.4609 77.252 67.207ZM78.6934 67.1953C78.6934 67.7461 79.1387 68.0273 79.7715 68.0273C80.6738 68.0273 81.2598 67.4297 81.2598 66.7148V66.1875L79.8535 66.2812C79.1387 66.3398 78.6934 66.6328 78.6934 67.1953ZM84.2129 69V60.5156H85.7129V63.6797H85.7715C86.0059 63.2227 86.4629 62.5547 87.5879 62.5547C89.0645 62.5547 90.2246 63.7031 90.2246 65.8242C90.2246 67.9219 89.0879 69.1172 87.5996 69.1172C86.498 69.1172 86.0059 68.4609 85.7715 67.9922H85.6777V69H84.2129ZM85.6777 65.8125C85.6777 67.0547 86.2168 67.8867 87.1777 67.8867C88.1738 67.8867 88.7012 67.0195 88.7012 65.8125C88.7012 64.6289 88.1855 63.7734 87.1777 63.7734C86.2168 63.7734 85.6777 64.582 85.6777 65.8125ZM94.2207 69.1289C92.2988 69.1289 91.127 67.8516 91.127 65.8594C91.127 63.8906 92.3223 62.5547 94.1387 62.5547C95.6973 62.5547 97.0449 63.5273 97.0449 65.7656V66.2344H92.6035C92.6211 67.3184 93.2598 67.957 94.2324 67.957C94.8887 67.957 95.334 67.6758 95.5215 67.3008H96.9863C96.7168 68.4023 95.6973 69.1289 94.2207 69.1289ZM92.6152 65.2148H95.6152C95.6035 64.3477 95.0293 63.7148 94.1621 63.7148C93.2598 63.7148 92.6621 64.4004 92.6152 65.2148ZM99.7051 60.5156V69H98.2051V60.5156H99.7051Z" fill="var(--sol-element-primary)"/>
</g>
</g>
<g clip-path="url(#clip2_1669_182142)">
<path d="M142.916 60.5156V69H141.416V60.5156H142.916ZM144.053 67.207C144.053 65.7773 145.236 65.3555 146.42 65.2852C146.859 65.2559 147.773 65.2031 148.049 65.1914V64.6875C148.049 64.0547 147.639 63.6914 146.9 63.6914C146.232 63.6914 145.822 63.9961 145.705 64.4531H144.264C144.369 63.375 145.342 62.5547 146.936 62.5547C148.143 62.5547 149.537 63.0469 149.537 64.7461V69H148.107V68.1211H148.061C147.779 68.6602 147.182 69.1289 146.186 69.1289C144.967 69.1289 144.053 68.4609 144.053 67.207ZM145.494 67.1953C145.494 67.7461 145.939 68.0273 146.572 68.0273C147.475 68.0273 148.061 67.4297 148.061 66.7148V66.1875L146.654 66.2812C145.939 66.3398 145.494 66.6328 145.494 67.1953ZM151.014 69V60.5156H152.514V63.6797H152.572C152.807 63.2227 153.264 62.5547 154.389 62.5547C155.865 62.5547 157.025 63.7031 157.025 65.8242C157.025 67.9219 155.889 69.1172 154.4 69.1172C153.299 69.1172 152.807 68.4609 152.572 67.9922H152.479V69H151.014ZM152.479 65.8125C152.479 67.0547 153.018 67.8867 153.979 67.8867C154.975 67.8867 155.502 67.0195 155.502 65.8125C155.502 64.6289 154.986 63.7734 153.979 63.7734C153.018 63.7734 152.479 64.582 152.479 65.8125ZM161.021 69.1289C159.1 69.1289 157.928 67.8516 157.928 65.8594C157.928 63.8906 159.123 62.5547 160.939 62.5547C162.498 62.5547 163.846 63.5273 163.846 65.7656V66.2344H159.404C159.422 67.3184 160.061 67.957 161.033 67.957C161.689 67.957 162.135 67.6758 162.322 67.3008H163.787C163.518 68.4023 162.498 69.1289 161.021 69.1289ZM159.416 65.2148H162.416C162.404 64.3477 161.83 63.7148 160.963 63.7148C160.061 63.7148 159.463 64.4004 159.416 65.2148ZM166.506 60.5156V69H165.006V60.5156H166.506Z" fill="var(--sol-element-quaternary)"/>
</g>
<g filter="url(#filter1_d_1669_182142)">
<g clip-path="url(#clip3_1669_182142)">
<path d="M187.6 54C187.6 52.8954 188.495 52 189.6 52H252.4C253.504 52 254.4 52.8954 254.4 54V76C254.4 77.1046 253.504 78 252.4 78H189.6C188.495 78 187.6 77.1046 187.6 76V54Z" fill="var(--sol-surface)"/>
<path d="M209.715 60.5156V69H208.215V60.5156H209.715ZM210.852 67.207C210.852 65.7773 212.035 65.3555 213.219 65.2852C213.658 65.2559 214.572 65.2031 214.848 65.1914V64.6875C214.848 64.0547 214.438 63.6914 213.699 63.6914C213.031 63.6914 212.621 63.9961 212.504 64.4531H211.062C211.168 63.375 212.141 62.5547 213.734 62.5547C214.941 62.5547 216.336 63.0469 216.336 64.7461V69H214.906V68.1211H214.859C214.578 68.6602 213.98 69.1289 212.984 69.1289C211.766 69.1289 210.852 68.4609 210.852 67.207ZM212.293 67.1953C212.293 67.7461 212.738 68.0273 213.371 68.0273C214.273 68.0273 214.859 67.4297 214.859 66.7148V66.1875L213.453 66.2812C212.738 66.3398 212.293 66.6328 212.293 67.1953ZM217.812 69V60.5156H219.312V63.6797H219.371C219.605 63.2227 220.062 62.5547 221.188 62.5547C222.664 62.5547 223.824 63.7031 223.824 65.8242C223.824 67.9219 222.688 69.1172 221.199 69.1172C220.098 69.1172 219.605 68.4609 219.371 67.9922H219.277V69H217.812ZM219.277 65.8125C219.277 67.0547 219.816 67.8867 220.777 67.8867C221.773 67.8867 222.301 67.0195 222.301 65.8125C222.301 64.6289 221.785 63.7734 220.777 63.7734C219.816 63.7734 219.277 64.582 219.277 65.8125ZM227.82 69.1289C225.898 69.1289 224.727 67.8516 224.727 65.8594C224.727 63.8906 225.922 62.5547 227.738 62.5547C229.297 62.5547 230.645 63.5273 230.645 65.7656V66.2344H226.203C226.221 67.3184 226.859 67.957 227.832 67.957C228.488 67.957 228.934 67.6758 229.121 67.3008H230.586C230.316 68.4023 229.297 69.1289 227.82 69.1289ZM226.215 65.2148H229.215C229.203 64.3477 228.629 63.7148 227.762 63.7148C226.859 63.7148 226.262 64.4004 226.215 65.2148ZM233.305 60.5156V69H231.805V60.5156H233.305Z" fill="var(--sol-element-primary)"/>
</g>
</g>
<g clip-path="url(#clip4_1669_182142)">
<path d="M276.516 60.5156V69H275.016V60.5156H276.516ZM277.652 67.207C277.652 65.7773 278.836 65.3555 280.02 65.2852C280.459 65.2559 281.373 65.2031 281.648 65.1914V64.6875C281.648 64.0547 281.238 63.6914 280.5 63.6914C279.832 63.6914 279.422 63.9961 279.305 64.4531H277.863C277.969 63.375 278.941 62.5547 280.535 62.5547C281.742 62.5547 283.137 63.0469 283.137 64.7461V69H281.707V68.1211H281.66C281.379 68.6602 280.781 69.1289 279.785 69.1289C278.566 69.1289 277.652 68.4609 277.652 67.207ZM279.094 67.1953C279.094 67.7461 279.539 68.0273 280.172 68.0273C281.074 68.0273 281.66 67.4297 281.66 66.7148V66.1875L280.254 66.2812C279.539 66.3398 279.094 66.6328 279.094 67.1953ZM284.613 69V60.5156H286.113V63.6797H286.172C286.406 63.2227 286.863 62.5547 287.988 62.5547C289.465 62.5547 290.625 63.7031 290.625 65.8242C290.625 67.9219 289.488 69.1172 288 69.1172C286.898 69.1172 286.406 68.4609 286.172 67.9922H286.078V69H284.613ZM286.078 65.8125C286.078 67.0547 286.617 67.8867 287.578 67.8867C288.574 67.8867 289.102 67.0195 289.102 65.8125C289.102 64.6289 288.586 63.7734 287.578 63.7734C286.617 63.7734 286.078 64.582 286.078 65.8125ZM294.621 69.1289C292.699 69.1289 291.527 67.8516 291.527 65.8594C291.527 63.8906 292.723 62.5547 294.539 62.5547C296.098 62.5547 297.445 63.5273 297.445 65.7656V66.2344H293.004C293.021 67.3184 293.66 67.957 294.633 67.957C295.289 67.957 295.734 67.6758 295.922 67.3008H297.387C297.117 68.4023 296.098 69.1289 294.621 69.1289ZM293.016 65.2148H296.016C296.004 64.3477 295.43 63.7148 294.562 63.7148C293.66 63.7148 293.062 64.4004 293.016 65.2148ZM300.105 60.5156V69H298.605V60.5156H300.105Z" fill="var(--sol-element-quaternary)"/>
</g>
<g clip-path="url(#clip5_1669_182142)">
<path d="M343.314 60.5156V69H341.814V60.5156H343.314ZM344.451 67.207C344.451 65.7773 345.635 65.3555 346.818 65.2852C347.258 65.2559 348.172 65.2031 348.447 65.1914V64.6875C348.447 64.0547 348.037 63.6914 347.299 63.6914C346.631 63.6914 346.221 63.9961 346.104 64.4531H344.662C344.768 63.375 345.74 62.5547 347.334 62.5547C348.541 62.5547 349.936 63.0469 349.936 64.7461V69H348.506V68.1211H348.459C348.178 68.6602 347.58 69.1289 346.584 69.1289C345.365 69.1289 344.451 68.4609 344.451 67.207ZM345.893 67.1953C345.893 67.7461 346.338 68.0273 346.971 68.0273C347.873 68.0273 348.459 67.4297 348.459 66.7148V66.1875L347.053 66.2812C346.338 66.3398 345.893 66.6328 345.893 67.1953ZM351.412 69V60.5156H352.912V63.6797H352.971C353.205 63.2227 353.662 62.5547 354.787 62.5547C356.264 62.5547 357.424 63.7031 357.424 65.8242C357.424 67.9219 356.287 69.1172 354.799 69.1172C353.697 69.1172 353.205 68.4609 352.971 67.9922H352.877V69H351.412ZM352.877 65.8125C352.877 67.0547 353.416 67.8867 354.377 67.8867C355.373 67.8867 355.9 67.0195 355.9 65.8125C355.9 64.6289 355.385 63.7734 354.377 63.7734C353.416 63.7734 352.877 64.582 352.877 65.8125ZM361.42 69.1289C359.498 69.1289 358.326 67.8516 358.326 65.8594C358.326 63.8906 359.521 62.5547 361.338 62.5547C362.896 62.5547 364.244 63.5273 364.244 65.7656V66.2344H359.803C359.82 67.3184 360.459 67.957 361.432 67.957C362.088 67.957 362.533 67.6758 362.721 67.3008H364.186C363.916 68.4023 362.896 69.1289 361.42 69.1289ZM359.814 65.2148H362.814C362.803 64.3477 362.229 63.7148 361.361 63.7148C360.459 63.7148 359.861 64.4004 359.814 65.2148ZM366.904 60.5156V69H365.404V60.5156H366.904Z" fill="var(--sol-element-quaternary)"/>
</g>
</g>
<defs>
<filter id="filter0_d_1669_182142" x="52" y="52" width="70.8008" height="30" filterUnits="userSpaceOnUse" color-interpolation-filters="sRGB">
<feFlood flood-opacity="0" result="BackgroundImageFix"/>
<feColorMatrix in="SourceAlpha" type="matrix" values="0 0 0 0 0 0 0 0 0 0 0 0 0 0 0 0 0 0 127 0" result="hardAlpha"/>
<feOffset dy="2"/>
<feGaussianBlur stdDeviation="1"/>
<feComposite in2="hardAlpha" operator="out"/>
<feColorMatrix type="matrix" values="0 0 0 0 0 0 0 0 0 0 0 0 0 0 0 0 0 0 0.04 0"/>
<feBlend mode="normal" in2="BackgroundImageFix" result="effect1_dropShadow_1669_182142"/>
<feBlend mode="normal" in="SourceGraphic" in2="effect1_dropShadow_1669_182142" result="shape"/>
</filter>
<filter id="filter1_d_1669_182142" x="185.6" y="52" width="70.8008" height="30" filterUnits="userSpaceOnUse" color-interpolation-filters="sRGB">
<feFlood flood-opacity="0" result="BackgroundImageFix"/>
<feColorMatrix in="SourceAlpha" type="matrix" values="0 0 0 0 0 0 0 0 0 0 0 0 0 0 0 0 0 0 127 0" result="hardAlpha"/>
<feOffset dy="2"/>
<feGaussianBlur stdDeviation="1"/>
<feComposite in2="hardAlpha" operator="out"/>
<feColorMatrix type="matrix" values="0 0 0 0 0 0 0 0 0 0 0 0 0 0 0 0 0 0 0.04 0"/>
<feBlend mode="normal" in2="BackgroundImageFix" result="effect1_dropShadow_1669_182142"/>
<feBlend mode="normal" in="SourceGraphic" in2="effect1_dropShadow_1669_182142" result="shape"/>
</filter>
<clipPath id="clip0_1669_182142">
<path d="M51 53C51 50.7909 52.7909 49 55 49H387C389.209 49 391 50.7909 391 53V77C391 79.2091 389.209 81 387 81H55C52.7909 81 51 79.2091 51 77V53Z" fill="var(--sol-surface)"/>
</clipPath>
<clipPath id="clip1_1669_182142">
<path d="M54 54C54 52.8954 54.8954 52 56 52H118.8C119.905 52 120.8 52.8954 120.8 54V76C120.8 77.1046 119.905 78 118.8 78H56C54.8954 78 54 77.1046 54 76V54Z" fill="var(--sol-surface)"/>
</clipPath>
<clipPath id="clip2_1669_182142">
<rect width="66.8" height="26" fill="var(--sol-surface)" transform="translate(120.801 52)"/>
</clipPath>
<clipPath id="clip3_1669_182142">
<path d="M187.6 54C187.6 52.8954 188.495 52 189.6 52H252.4C253.504 52 254.4 52.8954 254.4 54V76C254.4 77.1046 253.504 78 252.4 78H189.6C188.495 78 187.6 77.1046 187.6 76V54Z" fill="var(--sol-surface)"/>
</clipPath>
<clipPath id="clip4_1669_182142">
<rect width="66.8" height="26" fill="var(--sol-surface)" transform="translate(254.4 52)"/>
</clipPath>
<clipPath id="clip5_1669_182142">
<rect width="66.8" height="26" fill="var(--sol-surface)" transform="translate(321.199 52)"/>
</clipPath>
</defs>
</svg>
