<svg width="900" height="256" viewBox="0 0 900 256" fill="none" xmlns="http://www.w3.org/2000/svg">
<style>
:root {
  --sol-element-primary: #161616;
  --sol-element-quaternary: #858585;
  --sol-element-brand-variant: #3a3480;
  --sol-fill-active: #4d469a;
  --sol-selected-container-variant: #f5f4fd;
  --sol-surface: #ffffff;
  --sol-border-solid-variant: #e0e0e0;
  --sol-error-dim: #b84451;
  --sol-static-white: #ffffff;
  --sol-static-black: #000000;
}
@media (prefers-color-scheme: dark) {
  :root {
    --sol-element-primary: #ffffff;
    --sol-element-quaternary: rgba(255, 255, 255, 0.5);
    --sol-element-brand-variant: #ffffff;
    --sol-fill-active: #7b74c4;
    --sol-selected-container-variant: rgba(0, 0, 0, 0.08);
    --sol-surface: #161616;
    --sol-border-solid-variant: #3d3d3d;
    --sol-error-dim: #e76067;
  }
}
</style>
<g clip-path="url(#clip0_1669_181518)">
<path d="M280 116C280 113.791 281.791 112 284 112H616C618.209 112 620 113.791 620 116V140C620 142.209 618.209 144 616 144H284C281.791 144 280 142.209 280 140V116Z" fill="var(--sol-element-primary)" fill-opacity="0.04"/>
<g filter="url(#filter0_d_1669_181518)">
<path d="M283 117C283 115.895 283.895 115 285 115H392.333C393.438 115 394.333 115.895 394.333 117V139C394.333 140.105 393.438 141 392.333 141H285C283.895 141 283 140.105 283 139V117Z" fill="var(--sol-surface)"/>
<path d="M327.381 123.516V132H325.881V123.516H327.381ZM328.518 130.207C328.518 128.777 329.701 128.355 330.885 128.285C331.324 128.256 332.238 128.203 332.514 128.191V127.688C332.514 127.055 332.104 126.691 331.365 126.691C330.697 126.691 330.287 126.996 330.17 127.453H328.729C328.834 126.375 329.807 125.555 331.4 125.555C332.607 125.555 334.002 126.047 334.002 127.746V132H332.572V131.121H332.525C332.244 131.66 331.646 132.129 330.65 132.129C329.432 132.129 328.518 131.461 328.518 130.207ZM329.959 130.195C329.959 130.746 330.404 131.027 331.037 131.027C331.939 131.027 332.525 130.43 332.525 129.715V129.188L331.119 129.281C330.404 129.34 329.959 129.633 329.959 130.195ZM335.479 132V123.516H336.979V126.68H337.037C337.271 126.223 337.729 125.555 338.854 125.555C340.33 125.555 341.49 126.703 341.49 128.824C341.49 130.922 340.354 132.117 338.865 132.117C337.764 132.117 337.271 131.461 337.037 130.992H336.943V132H335.479ZM336.943 128.812C336.943 130.055 337.482 130.887 338.443 130.887C339.439 130.887 339.967 130.02 339.967 128.812C339.967 127.629 339.451 126.773 338.443 126.773C337.482 126.773 336.943 127.582 336.943 128.812ZM345.486 132.129C343.564 132.129 342.393 130.852 342.393 128.859C342.393 126.891 343.588 125.555 345.404 125.555C346.963 125.555 348.311 126.527 348.311 128.766V129.234H343.869C343.887 130.318 344.525 130.957 345.498 130.957C346.154 130.957 346.6 130.676 346.787 130.301H348.252C347.982 131.402 346.963 132.129 345.486 132.129ZM343.881 128.215H346.881C346.869 127.348 346.295 126.715 345.428 126.715C344.525 126.715 343.928 127.4 343.881 128.215ZM350.971 123.516V132H349.471V123.516H350.971Z" fill="var(--sol-element-primary)"/>
</g>
<g clip-path="url(#clip1_1669_181518)">
<path d="M438.715 123.516V132H437.215V123.516H438.715ZM439.852 130.207C439.852 128.777 441.035 128.355 442.219 128.285C442.658 128.256 443.572 128.203 443.848 128.191V127.688C443.848 127.055 443.438 126.691 442.699 126.691C442.031 126.691 441.621 126.996 441.504 127.453H440.062C440.168 126.375 441.141 125.555 442.734 125.555C443.941 125.555 445.336 126.047 445.336 127.746V132H443.906V131.121H443.859C443.578 131.66 442.98 132.129 441.984 132.129C440.766 132.129 439.852 131.461 439.852 130.207ZM441.293 130.195C441.293 130.746 441.738 131.027 442.371 131.027C443.273 131.027 443.859 130.43 443.859 129.715V129.188L442.453 129.281C441.738 129.34 441.293 129.633 441.293 130.195ZM446.812 132V123.516H448.312V126.68H448.371C448.605 126.223 449.062 125.555 450.188 125.555C451.664 125.555 452.824 126.703 452.824 128.824C452.824 130.922 451.688 132.117 450.199 132.117C449.098 132.117 448.605 131.461 448.371 130.992H448.277V132H446.812ZM448.277 128.812C448.277 130.055 448.816 130.887 449.777 130.887C450.773 130.887 451.301 130.02 451.301 128.812C451.301 127.629 450.785 126.773 449.777 126.773C448.816 126.773 448.277 127.582 448.277 128.812ZM456.82 132.129C454.898 132.129 453.727 130.852 453.727 128.859C453.727 126.891 454.922 125.555 456.738 125.555C458.297 125.555 459.645 126.527 459.645 128.766V129.234H455.203C455.221 130.318 455.859 130.957 456.832 130.957C457.488 130.957 457.934 130.676 458.121 130.301H459.586C459.316 131.402 458.297 132.129 456.82 132.129ZM455.215 128.215H458.215C458.203 127.348 457.629 126.715 456.762 126.715C455.859 126.715 455.262 127.4 455.215 128.215ZM462.305 123.516V132H460.805V123.516H462.305Z" fill="var(--sol-element-quaternary)"/>
</g>
<g clip-path="url(#clip2_1669_181518)">
<path d="M550.047 123.516V132H548.547V123.516H550.047ZM551.184 130.207C551.184 128.777 552.367 128.355 553.551 128.285C553.99 128.256 554.904 128.203 555.18 128.191V127.688C555.18 127.055 554.77 126.691 554.031 126.691C553.363 126.691 552.953 126.996 552.836 127.453H551.395C551.5 126.375 552.473 125.555 554.066 125.555C555.273 125.555 556.668 126.047 556.668 127.746V132H555.238V131.121H555.191C554.91 131.66 554.312 132.129 553.316 132.129C552.098 132.129 551.184 131.461 551.184 130.207ZM552.625 130.195C552.625 130.746 553.07 131.027 553.703 131.027C554.605 131.027 555.191 130.43 555.191 129.715V129.188L553.785 129.281C553.07 129.34 552.625 129.633 552.625 130.195ZM558.145 132V123.516H559.645V126.68H559.703C559.938 126.223 560.395 125.555 561.52 125.555C562.996 125.555 564.156 126.703 564.156 128.824C564.156 130.922 563.02 132.117 561.531 132.117C560.43 132.117 559.938 131.461 559.703 130.992H559.609V132H558.145ZM559.609 128.812C559.609 130.055 560.148 130.887 561.109 130.887C562.105 130.887 562.633 130.02 562.633 128.812C562.633 127.629 562.117 126.773 561.109 126.773C560.148 126.773 559.609 127.582 559.609 128.812ZM568.152 132.129C566.23 132.129 565.059 130.852 565.059 128.859C565.059 126.891 566.254 125.555 568.07 125.555C569.629 125.555 570.977 126.527 570.977 128.766V129.234H566.535C566.553 130.318 567.191 130.957 568.164 130.957C568.82 130.957 569.266 130.676 569.453 130.301H570.918C570.648 131.402 569.629 132.129 568.152 132.129ZM566.547 128.215H569.547C569.535 127.348 568.961 126.715 568.094 126.715C567.191 126.715 566.594 127.4 566.547 128.215ZM573.637 123.516V132H572.137V123.516H573.637Z" fill="var(--sol-element-quaternary)"/>
</g>
</g>
<rect x="323.5" y="74" width="28" height="28" rx="14" fill="var(--sol-element-primary)"/>
<path d="M339.359 82.6875V94H337.312V84.6719H337.25L334.609 86.3594V84.5L337.406 82.6875H339.359Z" fill="var(--sol-surface)"/>
<path d="M337 102H338V118.5C338 118.776 337.776 119 337.5 119C337.224 119 337 118.776 337 118.5V102Z" fill="var(--sol-element-primary)"/>
<circle cx="337.5" cy="117" r="2" fill="var(--sol-element-primary)"/>
<rect x="589.5" y="74" width="28" height="28" rx="14" fill="var(--sol-element-primary)"/>
<path d="M603.492 94.1562C601.07 94.1562 599.352 92.8438 599.305 90.9375H601.352C601.414 91.8438 602.32 92.4375 603.492 92.4375C604.742 92.4375 605.633 91.75 605.633 90.75C605.633 89.7344 604.758 89 603.289 89H602.273V87.4375H603.289C604.492 87.4375 605.336 86.7656 605.32 85.7812C605.336 84.8281 604.617 84.1875 603.508 84.1875C602.445 84.1875 601.523 84.7812 601.492 85.7344H599.539C599.586 83.8281 601.305 82.5312 603.523 82.5312C605.82 82.5312 607.305 83.9375 607.289 85.6719C607.305 86.9375 606.461 87.8594 605.227 88.1094V88.2031C606.82 88.4219 607.727 89.4375 607.711 90.8594C607.727 92.7656 605.945 94.1562 603.492 94.1562Z" fill="var(--sol-surface)"/>
<path d="M603 102H604V118.5C604 118.776 603.776 119 603.5 119C603.224 119 603 118.776 603 118.5V102Z" fill="var(--sol-element-primary)"/>
<circle cx="603.5" cy="117" r="2" fill="var(--sol-element-primary)"/>
<rect x="221.5" y="114" width="28" height="28" rx="14" fill="var(--sol-element-primary)"/>
<path d="M231.617 134V132.531L235.617 128.672C236.758 127.531 237.352 126.859 237.352 125.906C237.352 124.859 236.523 124.188 235.414 124.188C234.242 124.188 233.492 124.922 233.508 126.062H231.57C231.555 123.922 233.164 122.531 235.43 122.531C237.742 122.531 239.305 123.906 239.305 125.812C239.305 127.094 238.68 128.125 236.461 130.219L234.445 132.219V132.297H239.477V134H231.617Z" fill="var(--sol-surface)"/>
<path d="M249.5 127.5H289C289.276 127.5 289.5 127.724 289.5 128C289.5 128.276 289.276 128.5 289 128.5H249.5V127.5Z" fill="var(--sol-element-primary)"/>
<circle cx="287.5" cy="128" r="2" fill="var(--sol-element-primary)"/>
<defs>
<filter id="filter0_d_1669_181518" x="281" y="115" width="115.334" height="30" filterUnits="userSpaceOnUse" color-interpolation-filters="sRGB">
<feFlood flood-opacity="0" result="BackgroundImageFix"/>
<feColorMatrix in="SourceAlpha" type="matrix" values="0 0 0 0 0 0 0 0 0 0 0 0 0 0 0 0 0 0 127 0" result="hardAlpha"/>
<feOffset dy="2"/>
<feGaussianBlur stdDeviation="1"/>
<feComposite in2="hardAlpha" operator="out"/>
<feColorMatrix type="matrix" values="0 0 0 0 0 0 0 0 0 0 0 0 0 0 0 0 0 0 0.04 0"/>
<feBlend mode="normal" in2="BackgroundImageFix" result="effect1_dropShadow_1669_181518"/>
<feBlend mode="normal" in="SourceGraphic" in2="effect1_dropShadow_1669_181518" result="shape"/>
</filter>
<clipPath id="clip0_1669_181518">
<path d="M280 116C280 113.791 281.791 112 284 112H616C618.209 112 620 113.791 620 116V140C620 142.209 618.209 144 616 144H284C281.791 144 280 142.209 280 140V116Z" fill="var(--sol-surface)"/>
</clipPath>
<clipPath id="clip1_1669_181518">
<rect width="111.333" height="26" fill="var(--sol-surface)" transform="translate(394.334 115)"/>
</clipPath>
<clipPath id="clip2_1669_181518">
<rect width="111.333" height="26" fill="var(--sol-surface)" transform="translate(505.666 115)"/>
</clipPath>
</defs>
</svg>
