<svg width="442" height="130" viewBox="0 0 442 130" fill="none" xmlns="http://www.w3.org/2000/svg">
<style>
:root {
  --sol-element-primary: #161616;
  --sol-element-quaternary: #858585;
  --sol-element-brand-variant: #3a3480;
  --sol-fill-active: #4d469a;
  --sol-selected-container-variant: #f5f4fd;
  --sol-surface: #ffffff;
  --sol-border-solid-variant: #e0e0e0;
  --sol-error-dim: #b84451;
  --sol-static-white: #ffffff;
  --sol-static-black: #000000;
}
@media (prefers-color-scheme: dark) {
  :root {
    --sol-element-primary: #ffffff;
    --sol-element-quaternary: rgba(255, 255, 255, 0.5);
    --sol-element-brand-variant: #ffffff;
    --sol-fill-active: #7b74c4;
    --sol-selected-container-variant: rgba(0, 0, 0, 0.08);
    --sol-surface: #161616;
    --sol-border-solid-variant: #3d3d3d;
    --sol-error-dim: #e76067;
  }
}
</style>
<g clip-path="url(#clip0_1669_182137)">
<path d="M134.5 53C134.5 50.7909 136.291 49 138.5 49H303.5C305.709 49 307.5 50.7909 307.5 53V77C307.5 79.2091 305.709 81 303.5 81H138.5C136.291 81 134.5 79.2091 134.5 77V53Z" fill="var(--sol-element-primary)" fill-opacity="0.04"/>
<g filter="url(#filter0_d_1669_182137)">
<g clip-path="url(#clip1_1669_182137)">
<path d="M137.5 54C137.5 52.8954 138.395 52 139.5 52H219C220.105 52 221 52.8954 221 54V76C221 77.1046 220.105 78 219 78H139.5C138.395 78 137.5 77.1046 137.5 76V54Z" fill="var(--sol-surface)"/>
<path d="M167.965 60.5156V69H166.465V60.5156H167.965ZM169.102 67.207C169.102 65.7773 170.285 65.3555 171.469 65.2852C171.908 65.2559 172.822 65.2031 173.098 65.1914V64.6875C173.098 64.0547 172.688 63.6914 171.949 63.6914C171.281 63.6914 170.871 63.9961 170.754 64.4531H169.312C169.418 63.375 170.391 62.5547 171.984 62.5547C173.191 62.5547 174.586 63.0469 174.586 64.7461V69H173.156V68.1211H173.109C172.828 68.6602 172.23 69.1289 171.234 69.1289C170.016 69.1289 169.102 68.4609 169.102 67.207ZM170.543 67.1953C170.543 67.7461 170.988 68.0273 171.621 68.0273C172.523 68.0273 173.109 67.4297 173.109 66.7148V66.1875L171.703 66.2812C170.988 66.3398 170.543 66.6328 170.543 67.1953ZM176.062 69V60.5156H177.562V63.6797H177.621C177.855 63.2227 178.312 62.5547 179.438 62.5547C180.914 62.5547 182.074 63.7031 182.074 65.8242C182.074 67.9219 180.938 69.1172 179.449 69.1172C178.348 69.1172 177.855 68.4609 177.621 67.9922H177.527V69H176.062ZM177.527 65.8125C177.527 67.0547 178.066 67.8867 179.027 67.8867C180.023 67.8867 180.551 67.0195 180.551 65.8125C180.551 64.6289 180.035 63.7734 179.027 63.7734C178.066 63.7734 177.527 64.582 177.527 65.8125ZM186.07 69.1289C184.148 69.1289 182.977 67.8516 182.977 65.8594C182.977 63.8906 184.172 62.5547 185.988 62.5547C187.547 62.5547 188.895 63.5273 188.895 65.7656V66.2344H184.453C184.471 67.3184 185.109 67.957 186.082 67.957C186.738 67.957 187.184 67.6758 187.371 67.3008H188.836C188.566 68.4023 187.547 69.1289 186.07 69.1289ZM184.465 65.2148H187.465C187.453 64.3477 186.879 63.7148 186.012 63.7148C185.109 63.7148 184.512 64.4004 184.465 65.2148ZM191.555 60.5156V69H190.055V60.5156H191.555Z" fill="var(--sol-element-primary)"/>
</g>
</g>
<g clip-path="url(#clip2_1669_182137)">
<path d="M251.465 60.5156V69H249.965V60.5156H251.465ZM252.602 67.207C252.602 65.7773 253.785 65.3555 254.969 65.2852C255.408 65.2559 256.322 65.2031 256.598 65.1914V64.6875C256.598 64.0547 256.188 63.6914 255.449 63.6914C254.781 63.6914 254.371 63.9961 254.254 64.4531H252.812C252.918 63.375 253.891 62.5547 255.484 62.5547C256.691 62.5547 258.086 63.0469 258.086 64.7461V69H256.656V68.1211H256.609C256.328 68.6602 255.73 69.1289 254.734 69.1289C253.516 69.1289 252.602 68.4609 252.602 67.207ZM254.043 67.1953C254.043 67.7461 254.488 68.0273 255.121 68.0273C256.023 68.0273 256.609 67.4297 256.609 66.7148V66.1875L255.203 66.2812C254.488 66.3398 254.043 66.6328 254.043 67.1953ZM259.562 69V60.5156H261.062V63.6797H261.121C261.355 63.2227 261.812 62.5547 262.938 62.5547C264.414 62.5547 265.574 63.7031 265.574 65.8242C265.574 67.9219 264.438 69.1172 262.949 69.1172C261.848 69.1172 261.355 68.4609 261.121 67.9922H261.027V69H259.562ZM261.027 65.8125C261.027 67.0547 261.566 67.8867 262.527 67.8867C263.523 67.8867 264.051 67.0195 264.051 65.8125C264.051 64.6289 263.535 63.7734 262.527 63.7734C261.566 63.7734 261.027 64.582 261.027 65.8125ZM269.57 69.1289C267.648 69.1289 266.477 67.8516 266.477 65.8594C266.477 63.8906 267.672 62.5547 269.488 62.5547C271.047 62.5547 272.395 63.5273 272.395 65.7656V66.2344H267.953C267.971 67.3184 268.609 67.957 269.582 67.957C270.238 67.957 270.684 67.6758 270.871 67.3008H272.336C272.066 68.4023 271.047 69.1289 269.57 69.1289ZM267.965 65.2148H270.965C270.953 64.3477 270.379 63.7148 269.512 63.7148C268.609 63.7148 268.012 64.4004 267.965 65.2148ZM275.055 60.5156V69H273.555V60.5156H275.055Z" fill="var(--sol-element-quaternary)"/>
</g>
</g>
<defs>
<filter id="filter0_d_1669_182137" x="135.5" y="52" width="87.5" height="30" filterUnits="userSpaceOnUse" color-interpolation-filters="sRGB">
<feFlood flood-opacity="0" result="BackgroundImageFix"/>
<feColorMatrix in="SourceAlpha" type="matrix" values="0 0 0 0 0 0 0 0 0 0 0 0 0 0 0 0 0 0 127 0" result="hardAlpha"/>
<feOffset dy="2"/>
<feGaussianBlur stdDeviation="1"/>
<feComposite in2="hardAlpha" operator="out"/>
<feColorMatrix type="matrix" values="0 0 0 0 0 0 0 0 0 0 0 0 0 0 0 0 0 0 0.04 0"/>
<feBlend mode="normal" in2="BackgroundImageFix" result="effect1_dropShadow_1669_182137"/>
<feBlend mode="normal" in="SourceGraphic" in2="effect1_dropShadow_1669_182137" result="shape"/>
</filter>
<clipPath id="clip0_1669_182137">
<path d="M134.5 53C134.5 50.7909 136.291 49 138.5 49H303.5C305.709 49 307.5 50.7909 307.5 53V77C307.5 79.2091 305.709 81 303.5 81H138.5C136.291 81 134.5 79.2091 134.5 77V53Z" fill="var(--sol-surface)"/>
</clipPath>
<clipPath id="clip1_1669_182137">
<path d="M137.5 54C137.5 52.8954 138.395 52 139.5 52H219C220.105 52 221 52.8954 221 54V76C221 77.1046 220.105 78 219 78H139.5C138.395 78 137.5 77.1046 137.5 76V54Z" fill="var(--sol-surface)"/>
</clipPath>
<clipPath id="clip2_1669_182137">
<rect width="83.5" height="26" fill="var(--sol-surface)" transform="translate(221 52)"/>
</clipPath>
</defs>
</svg>
