<svg width="442" height="170" viewBox="0 0 442 170" fill="none" xmlns="http://www.w3.org/2000/svg">
<style>
:root {
  --sol-element-primary: #161616;
  --sol-element-quaternary: #858585;
  --sol-element-brand-variant: #3a3480;
  --sol-fill-active: #4d469a;
  --sol-selected-container-variant: #f5f4fd;
  --sol-surface: #ffffff;
  --sol-border-solid-variant: #e0e0e0;
  --sol-error-dim: #b84451;
  --sol-static-white: #ffffff;
  --sol-static-black: #000000;
}
@media (prefers-color-scheme: dark) {
  :root {
    --sol-element-primary: #ffffff;
    --sol-element-quaternary: rgba(255, 255, 255, 0.5);
    --sol-element-brand-variant: #ffffff;
    --sol-fill-active: #7b74c4;
    --sol-selected-container-variant: rgba(0, 0, 0, 0.08);
    --sol-surface: #161616;
    --sol-border-solid-variant: #3d3d3d;
    --sol-error-dim: #e76067;
  }
}
</style>
<g clip-path="url(#clip0_1669_182110)">
<g filter="url(#filter0_d_1669_182110)">
<rect y="30" width="442" height="140" fill="var(--sol-surface)"/>
<rect x="0.5" y="30.5" width="441" height="139" stroke="var(--sol-border-solid-variant)"/>
<g clip-path="url(#clip1_1669_182110)">
<path d="M33 58C33 55.7909 34.7909 54 37 54H405C407.209 54 409 55.7909 409 58V86C409 88.2091 407.209 90 405 90H37C34.7909 90 33 88.2091 33 86V58Z" fill="var(--sol-element-primary)" fill-opacity="0.04"/>
<g filter="url(#filter1_d_1669_182110)">
<g clip-path="url(#clip2_1669_182110)">
<path d="M36 59C36 57.8954 36.8954 57 38 57H219C220.105 57 221 57.8954 221 59V85C221 86.1046 220.105 87 219 87H38C36.8954 87 36 86.1046 36 85V59Z" fill="var(--sol-surface)"/>
<path d="M104.785 76V67.5156H107.973C109.918 67.5156 110.961 68.6055 110.961 70.2227C110.961 71.377 110.434 72.2324 109.438 72.6367L111.266 76H109.566L107.902 72.8945H106.309V76H104.785ZM106.309 71.6172H107.738C108.887 71.6172 109.402 71.125 109.402 70.2227C109.402 69.3203 108.887 68.793 107.738 68.793H106.309V71.6172ZM114.934 76.1289C113.012 76.1289 111.84 74.8516 111.84 72.8594C111.84 70.8906 113.035 69.5547 114.852 69.5547C116.41 69.5547 117.758 70.5273 117.758 72.7656V73.2344H113.316C113.334 74.3184 113.973 74.957 114.945 74.957C115.602 74.957 116.047 74.6758 116.234 74.3008H117.699C117.43 75.4023 116.41 76.1289 114.934 76.1289ZM113.328 72.2148H116.328C116.316 71.3477 115.742 70.7148 114.875 70.7148C113.973 70.7148 113.375 71.4004 113.328 72.2148ZM124.414 69.6367L122.141 76H120.5L118.227 69.6367H119.82L121.285 74.3711H121.355L122.832 69.6367H124.414ZM127.965 76.1289C126.043 76.1289 124.871 74.8516 124.871 72.8594C124.871 70.8906 126.066 69.5547 127.883 69.5547C129.441 69.5547 130.789 70.5273 130.789 72.7656V73.2344H126.348C126.365 74.3184 127.004 74.957 127.977 74.957C128.633 74.957 129.078 74.6758 129.266 74.3008H130.73C130.461 75.4023 129.441 76.1289 127.965 76.1289ZM126.359 72.2148H129.359C129.348 71.3477 128.773 70.7148 127.906 70.7148C127.004 70.7148 126.406 71.4004 126.359 72.2148ZM133.449 72.2734V76H131.949V69.6367H133.379V70.7148H133.461C133.754 70 134.398 69.5547 135.348 69.5547C136.672 69.5547 137.539 70.4219 137.527 71.9453V76H136.039V72.1797C136.039 71.3242 135.582 70.8203 134.797 70.8203C134 70.8203 133.449 71.3477 133.449 72.2734ZM143.023 73.3281V69.6367H144.512V76H143.07V74.875H143C142.707 75.5781 142.039 76.082 141.09 76.082C139.836 76.082 138.969 75.2148 138.957 73.6914V69.6367H140.457V73.457C140.457 74.2656 140.938 74.7812 141.664 74.7812C142.32 74.7812 143.023 74.3008 143.023 73.3281ZM148.766 76.1289C146.844 76.1289 145.672 74.8516 145.672 72.8594C145.672 70.8906 146.867 69.5547 148.684 69.5547C150.242 69.5547 151.59 70.5273 151.59 72.7656V73.2344H147.148C147.166 74.3184 147.805 74.957 148.777 74.957C149.434 74.957 149.879 74.6758 150.066 74.3008H151.531C151.262 75.4023 150.242 76.1289 148.766 76.1289ZM147.16 72.2148H150.16C150.148 71.3477 149.574 70.7148 148.707 70.7148C147.805 70.7148 147.207 71.4004 147.16 72.2148Z" fill="var(--sol-element-primary)"/>
</g>
</g>
<g clip-path="url(#clip3_1669_182110)">
<path d="M296.91 67.5156L299.113 74.207H299.207L301.422 67.5156H303.098L300.098 76H298.223L295.234 67.5156H296.91ZM304.035 76V69.6367H305.535V76H304.035ZM304.797 68.7344C304.328 68.7344 303.93 68.3711 303.93 67.9141C303.93 67.4688 304.328 67.1055 304.797 67.1055C305.277 67.1055 305.664 67.4688 305.664 67.9141C305.664 68.3711 305.277 68.7344 304.797 68.7344ZM310.574 71.4531C310.48 70.9727 310.082 70.668 309.449 70.668C308.805 70.668 308.336 70.9844 308.348 71.418C308.336 71.7461 308.605 71.9922 309.25 72.1445L310.328 72.3672C311.535 72.6367 312.109 73.1875 312.121 74.1016C312.109 75.2969 311.066 76.1289 309.402 76.1289C307.785 76.1289 306.824 75.4023 306.672 74.1836H308.195C308.289 74.7227 308.711 74.9922 309.402 74.9922C310.117 74.9922 310.598 74.6992 310.598 74.2305C310.598 73.8672 310.305 73.6328 309.672 73.4922L308.652 73.2695C307.469 73.0352 306.859 72.4141 306.859 71.5C306.859 70.3281 307.867 69.5547 309.426 69.5547C310.949 69.5547 311.887 70.293 311.992 71.4531H310.574ZM313.258 76V69.6367H314.758V76H313.258ZM314.02 68.7344C313.551 68.7344 313.152 68.3711 313.152 67.9141C313.152 67.4688 313.551 67.1055 314.02 67.1055C314.5 67.1055 314.887 67.4688 314.887 67.9141C314.887 68.3711 314.5 68.7344 314.02 68.7344ZM319.363 69.6367V70.7852H318.109V74.0898C318.109 74.6992 318.414 74.8281 318.789 74.8281C318.965 74.8281 319.258 74.8164 319.445 74.8047V76.0234C319.27 76.0586 318.977 76.082 318.602 76.082C317.477 76.082 316.609 75.5312 316.621 74.3359V70.7852H315.707V69.6367H316.621V68.1133H318.109V69.6367H319.363ZM323.23 76.1289C321.379 76.1289 320.184 74.8164 320.184 72.8477C320.184 70.8672 321.379 69.5547 323.23 69.5547C325.094 69.5547 326.277 70.8672 326.277 72.8477C326.277 74.8164 325.094 76.1289 323.23 76.1289ZM323.242 74.9336C324.262 74.9336 324.766 74.0078 324.766 72.8359C324.766 71.6758 324.262 70.7383 323.242 70.7383C322.199 70.7383 321.695 71.6758 321.695 72.8359C321.695 74.0078 322.199 74.9336 323.242 74.9336ZM327.438 76V69.6367H328.891V70.6914H328.961C329.184 69.9648 329.805 69.543 330.531 69.543C330.695 69.543 330.93 69.5547 331.07 69.5781V70.9609C330.941 70.9141 330.625 70.8672 330.379 70.8672C329.547 70.8672 328.938 71.4414 328.938 72.25V76H327.438Z" fill="var(--sol-element-quaternary)"/>
</g>
</g>
<g clip-path="url(#clip4_1669_182110)">
<path d="M105 106.5H337C338.933 106.5 340.5 108.067 340.5 110V130C340.5 131.933 338.933 133.5 337 133.5H105C103.067 133.5 101.5 131.933 101.5 130V110C101.5 108.067 103.067 106.5 105 106.5Z" stroke="var(--sol-element-primary)" stroke-opacity="0.16"/>
<g clip-path="url(#clip5_1669_182110)">
<path d="M101 110C101 107.791 102.791 106 105 106H181V134H105C102.791 134 101 132.209 101 130V110Z" fill="var(--sol-selected-container-variant)"/>
<path d="M105 106.5H180.5V133.5H105C103.067 133.5 101.5 131.933 101.5 130V110C101.5 108.067 103.067 106.5 105 106.5Z" stroke="var(--sol-fill-active)"/>
<path d="M130.957 124H128.074V115.516H131.004C133.535 115.516 135.07 117.109 135.07 119.746C135.07 122.395 133.535 124 130.957 124ZM129.598 122.676H130.875C132.645 122.676 133.547 121.703 133.547 119.746C133.547 117.801 132.645 116.84 130.922 116.84H129.598V122.676ZM136.055 122.207C136.055 120.777 137.238 120.355 138.422 120.285C138.861 120.256 139.775 120.203 140.051 120.191V119.688C140.051 119.055 139.641 118.691 138.902 118.691C138.234 118.691 137.824 118.996 137.707 119.453H136.266C136.371 118.375 137.344 117.555 138.938 117.555C140.145 117.555 141.539 118.047 141.539 119.746V124H140.109V123.121H140.062C139.781 123.66 139.184 124.129 138.188 124.129C136.969 124.129 136.055 123.461 136.055 122.207ZM137.496 122.195C137.496 122.746 137.941 123.027 138.574 123.027C139.477 123.027 140.062 122.43 140.062 121.715V121.188L138.656 121.281C137.941 121.34 137.496 121.633 137.496 122.195ZM142.945 124V117.637H144.445V124H142.945ZM143.707 116.734C143.238 116.734 142.84 116.371 142.84 115.914C142.84 115.469 143.238 115.105 143.707 115.105C144.188 115.105 144.574 115.469 144.574 115.914C144.574 116.371 144.188 116.734 143.707 116.734ZM147.375 115.516V124H145.875V115.516H147.375ZM149.707 126.391C149.414 126.391 149.121 126.379 148.934 126.355V125.16C149.121 125.172 149.367 125.184 149.566 125.184C149.93 125.184 150.234 125.148 150.492 124.469L150.621 124.129L148.301 117.637H149.883L151.359 122.441H151.43L152.906 117.637H154.488L151.934 124.773C151.57 125.793 150.902 126.391 149.707 126.391Z" fill="var(--sol-element-brand-variant)"/>
</g>
<g clip-path="url(#clip6_1669_182110)">
<mask id="path-15-outside-1_1669_182110" maskUnits="userSpaceOnUse" x="181" y="106" width="81" height="28" fill="var(--sol-static-black)">
<rect fill="var(--sol-surface)" x="181" y="106" width="81" height="28"/>
<path d="M181 106H261V134H181V106Z"/>
</mask>
<path d="M261 106H260V134H261H262V106H261Z" fill="var(--sol-border-solid-variant)" mask="url(#path-15-outside-1_1669_182110)"/>
<path d="M203.234 124L200.844 115.516H202.484L204.02 121.762H204.102L205.73 115.516H207.23L208.871 121.773H208.941L210.477 115.516H212.117L209.727 124H208.215L206.516 118.035H206.457L204.746 124H203.234ZM215.188 124.129C213.266 124.129 212.094 122.852 212.094 120.859C212.094 118.891 213.289 117.555 215.105 117.555C216.664 117.555 218.012 118.527 218.012 120.766V121.234H213.57C213.588 122.318 214.227 122.957 215.199 122.957C215.855 122.957 216.301 122.676 216.488 122.301H217.953C217.684 123.402 216.664 124.129 215.188 124.129ZM213.582 120.215H216.582C216.57 119.348 215.996 118.715 215.129 118.715C214.227 118.715 213.629 119.4 213.582 120.215ZM221.996 124.129C220.074 124.129 218.902 122.852 218.902 120.859C218.902 118.891 220.098 117.555 221.914 117.555C223.473 117.555 224.82 118.527 224.82 120.766V121.234H220.379C220.396 122.318 221.035 122.957 222.008 122.957C222.664 122.957 223.109 122.676 223.297 122.301H224.762C224.492 123.402 223.473 124.129 221.996 124.129ZM220.391 120.215H223.391C223.379 119.348 222.805 118.715 221.938 118.715C221.035 118.715 220.438 119.4 220.391 120.215ZM225.98 124V115.516H227.48V120.191H227.586L229.871 117.637H231.617L229.156 120.379L231.77 124H229.988L228.031 121.27L227.48 121.855V124H225.98ZM234.008 115.516V124H232.508V115.516H234.008ZM236.34 126.391C236.047 126.391 235.754 126.379 235.566 126.355V125.16C235.754 125.172 236 125.184 236.199 125.184C236.562 125.184 236.867 125.148 237.125 124.469L237.254 124.129L234.934 117.637H236.516L237.992 122.441H238.062L239.539 117.637H241.121L238.566 124.773C238.203 125.793 237.535 126.391 236.34 126.391Z" fill="var(--sol-element-quaternary)"/>
</g>
<g clip-path="url(#clip7_1669_182110)">
<mask id="path-19-outside-2_1669_182110" maskUnits="userSpaceOnUse" x="261" y="106" width="81" height="28" fill="var(--sol-static-black)">
<rect fill="var(--sol-surface)" x="261" y="106" width="81" height="28"/>
<path d="M261 106H341V134H261V106Z"/>
</mask>
<path d="M341 106H340V134H341H342V106H341Z" fill="var(--sol-border-solid-variant)" mask="url(#path-19-outside-2_1669_182110)"/>
<path d="M279.027 115.516H280.902L283.422 121.68H283.527L286.047 115.516H287.922V124H286.457V118.164H286.375L284.02 123.977H282.93L280.574 118.141H280.504V124H279.027V115.516ZM292.199 124.129C290.348 124.129 289.152 122.816 289.152 120.848C289.152 118.867 290.348 117.555 292.199 117.555C294.062 117.555 295.246 118.867 295.246 120.848C295.246 122.816 294.062 124.129 292.199 124.129ZM292.211 122.934C293.23 122.934 293.734 122.008 293.734 120.836C293.734 119.676 293.23 118.738 292.211 118.738C291.168 118.738 290.664 119.676 290.664 120.836C290.664 122.008 291.168 122.934 292.211 122.934ZM297.906 120.273V124H296.406V117.637H297.836V118.715H297.918C298.211 118 298.855 117.555 299.805 117.555C301.129 117.555 301.996 118.422 301.984 119.945V124H300.496V120.18C300.496 119.324 300.039 118.82 299.254 118.82C298.457 118.82 297.906 119.348 297.906 120.273ZM306.59 117.637V118.785H305.336V122.09C305.336 122.699 305.641 122.828 306.016 122.828C306.191 122.828 306.484 122.816 306.672 122.805V124.023C306.496 124.059 306.203 124.082 305.828 124.082C304.703 124.082 303.836 123.531 303.848 122.336V118.785H302.934V117.637H303.848V116.113H305.336V117.637H306.59ZM309.379 120.273V124H307.879V115.516H309.344V118.715H309.426C309.719 118 310.328 117.555 311.312 117.555C312.637 117.555 313.504 118.41 313.504 119.945V124H312.016V120.18C312.016 119.312 311.547 118.82 310.762 118.82C309.953 118.82 309.379 119.348 309.379 120.273ZM316.422 115.516V124H314.922V115.516H316.422ZM318.754 126.391C318.461 126.391 318.168 126.379 317.98 126.355V125.16C318.168 125.172 318.414 125.184 318.613 125.184C318.977 125.184 319.281 125.148 319.539 124.469L319.668 124.129L317.348 117.637H318.93L320.406 122.441H320.477L321.953 117.637H323.535L320.98 124.773C320.617 125.793 319.949 126.391 318.754 126.391Z" fill="var(--sol-element-quaternary)"/>
</g>
</g>
</g>
</g>
<defs>
<filter id="filter0_d_1669_182110" x="-2" y="30" width="446" height="144" filterUnits="userSpaceOnUse" color-interpolation-filters="sRGB">
<feFlood flood-opacity="0" result="BackgroundImageFix"/>
<feColorMatrix in="SourceAlpha" type="matrix" values="0 0 0 0 0 0 0 0 0 0 0 0 0 0 0 0 0 0 127 0" result="hardAlpha"/>
<feOffset dy="2"/>
<feGaussianBlur stdDeviation="1"/>
<feComposite in2="hardAlpha" operator="out"/>
<feColorMatrix type="matrix" values="0 0 0 0 0 0 0 0 0 0 0 0 0 0 0 0 0 0 0.04 0"/>
<feBlend mode="normal" in2="BackgroundImageFix" result="effect1_dropShadow_1669_182110"/>
<feBlend mode="normal" in="SourceGraphic" in2="effect1_dropShadow_1669_182110" result="shape"/>
</filter>
<filter id="filter1_d_1669_182110" x="34" y="57" width="189" height="34" filterUnits="userSpaceOnUse" color-interpolation-filters="sRGB">
<feFlood flood-opacity="0" result="BackgroundImageFix"/>
<feColorMatrix in="SourceAlpha" type="matrix" values="0 0 0 0 0 0 0 0 0 0 0 0 0 0 0 0 0 0 127 0" result="hardAlpha"/>
<feOffset dy="2"/>
<feGaussianBlur stdDeviation="1"/>
<feComposite in2="hardAlpha" operator="out"/>
<feColorMatrix type="matrix" values="0 0 0 0 0 0 0 0 0 0 0 0 0 0 0 0 0 0 0.04 0"/>
<feBlend mode="normal" in2="BackgroundImageFix" result="effect1_dropShadow_1669_182110"/>
<feBlend mode="normal" in="SourceGraphic" in2="effect1_dropShadow_1669_182110" result="shape"/>
</filter>
<clipPath id="clip0_1669_182110">
<rect width="442" height="170" fill="var(--sol-surface)"/>
</clipPath>
<clipPath id="clip1_1669_182110">
<path d="M33 58C33 55.7909 34.7909 54 37 54H405C407.209 54 409 55.7909 409 58V86C409 88.2091 407.209 90 405 90H37C34.7909 90 33 88.2091 33 86V58Z" fill="var(--sol-surface)"/>
</clipPath>
<clipPath id="clip2_1669_182110">
<path d="M36 59C36 57.8954 36.8954 57 38 57H219C220.105 57 221 57.8954 221 59V85C221 86.1046 220.105 87 219 87H38C36.8954 87 36 86.1046 36 85V59Z" fill="var(--sol-surface)"/>
</clipPath>
<clipPath id="clip3_1669_182110">
<rect width="185" height="30" fill="var(--sol-surface)" transform="translate(221 57)"/>
</clipPath>
<clipPath id="clip4_1669_182110">
<path d="M101 110C101 107.791 102.791 106 105 106H337C339.209 106 341 107.791 341 110V130C341 132.209 339.209 134 337 134H105C102.791 134 101 132.209 101 130V110Z" fill="var(--sol-surface)"/>
</clipPath>
<clipPath id="clip5_1669_182110">
<path d="M101 110C101 107.791 102.791 106 105 106H181V134H105C102.791 134 101 132.209 101 130V110Z" fill="var(--sol-surface)"/>
</clipPath>
<clipPath id="clip6_1669_182110">
<path d="M181 110C181 107.791 182.791 106 185 106H257C259.209 106 261 107.791 261 110V130C261 132.209 259.209 134 257 134H185C182.791 134 181 132.209 181 130V110Z" fill="var(--sol-surface)"/>
</clipPath>
<clipPath id="clip7_1669_182110">
<path d="M261 106H337C339.209 106 341 107.791 341 110V130C341 132.209 339.209 134 337 134H261V106Z" fill="var(--sol-surface)"/>
</clipPath>
</defs>
</svg>
