<svg width="900" height="160" viewBox="0 0 900 160" fill="none" xmlns="http://www.w3.org/2000/svg">
<style>
:root {
  --sol-primary: #282363;
  --sol-element-brand-variant: #3a3480;
  --sol-fill-active: #4d469a;
  --sol-selected-container-variant: #f5f4fd;
  --sol-surface: #ffffff;
  --sol-secondary-container: #e8e6f8;
  --sol-element-primary: #161616;
  --sol-element-secondary: #484848;
  --sol-element-tertiary: #636363;
  --sol-element-quaternary: #858585;
  --sol-border-brand: #7b74c4;
  --sol-border-normal-variant: rgba(0, 0, 0, 0.08);
  --sol-border-solid-variant: #e0e0e0;
  --sol-border-solid: #d0d0d0;
  --sol-error-dim: #b84451;
  --sol-static-white: #ffffff;
  --sol-static-black: #000000;
}
@media (prefers-color-scheme: dark) {
  :root {
    --sol-primary: #9791d4;
    --sol-element-brand-variant: #ffffff;
    --sol-fill-active: #7b74c4;
    --sol-selected-container-variant: rgba(0, 0, 0, 0.08);
    --sol-surface: #161616;
    --sol-secondary-container: rgba(255, 255, 255, 0.16);
    --sol-element-primary: #ffffff;
    --sol-element-secondary: rgba(255, 255, 255, 0.8);
    --sol-element-tertiary: rgba(255, 255, 255, 0.6);
    --sol-element-quaternary: rgba(255, 255, 255, 0.5);
    --sol-border-brand: #7b74c4;
    --sol-border-normal-variant: rgba(255, 255, 255, 0.08);
    --sol-border-solid-variant: #3d3d3d;
    --sol-border-solid: #333333;
    --sol-error-dim: #e76067;
    --sol-static-white: #ffffff;
    --sol-static-black: #000000;
  }
}
</style>
<g clip-path="url(#clip0_1281_125415)">
<path d="M208.5 70C208.5 67.7909 210.291 66 212.5 66H377.5C379.709 66 381.5 67.7909 381.5 70V90C381.5 92.2091 379.709 94 377.5 94H212.5C210.291 94 208.5 92.2091 208.5 90V70Z" fill="var(--sol-element-primary)" fill-opacity="0.04"/>
<g filter="url(#filter0_d_1281_125415)">
<g clip-path="url(#clip1_1281_125415)">
<path d="M211.5 71C211.5 69.8954 212.395 69 213.5 69H265.167C266.271 69 267.167 69.8954 267.167 71V89C267.167 90.1046 266.271 91 265.167 91H213.5C212.395 91 211.5 90.1046 211.5 89V71Z" fill="var(--sol-surface)"/>
<path d="M229.235 77.8477C229.165 77.1211 228.544 76.6992 227.63 76.6992C226.669 76.6992 226.083 77.168 226.083 77.8008C226.083 78.5156 226.833 78.8086 227.536 78.9727L228.333 79.1836C229.599 79.4766 230.817 80.1445 230.817 81.6211C230.817 83.1094 229.646 84.1289 227.606 84.1289C225.626 84.1289 224.384 83.1797 224.313 81.5039H225.813C225.884 82.3945 226.634 82.8281 227.595 82.8281C228.603 82.8281 229.294 82.3359 229.294 81.6094C229.294 80.9414 228.673 80.6602 227.759 80.4258L226.798 80.1797C225.403 79.8164 224.536 79.1133 224.536 77.8945C224.536 76.3945 225.872 75.3984 227.653 75.3984C229.458 75.3984 230.677 76.418 230.7 77.8477H229.235ZM232.013 84V77.6367H233.442V78.7148H233.524C233.782 77.9883 234.427 77.5547 235.271 77.5547C236.138 77.5547 236.747 77.9883 236.993 78.7148H237.063C237.345 78.0117 238.048 77.5547 238.974 77.5547C240.134 77.5547 240.954 78.3047 240.954 79.7227V84H239.466V79.957C239.466 79.1602 238.985 78.8086 238.376 78.8086C237.638 78.8086 237.216 79.3125 237.216 80.0273V84H235.763V79.8984C235.763 79.2422 235.317 78.8086 234.685 78.8086C234.04 78.8086 233.513 79.3359 233.513 80.1328V84H232.013ZM242.091 82.207C242.091 80.7773 243.274 80.3555 244.458 80.2852C244.897 80.2559 245.812 80.2031 246.087 80.1914V79.6875C246.087 79.0547 245.677 78.6914 244.938 78.6914C244.271 78.6914 243.86 78.9961 243.743 79.4531H242.302C242.407 78.375 243.38 77.5547 244.974 77.5547C246.181 77.5547 247.575 78.0469 247.575 79.7461V84H246.146V83.1211H246.099C245.817 83.6602 245.22 84.1289 244.224 84.1289C243.005 84.1289 242.091 83.4609 242.091 82.207ZM243.532 82.1953C243.532 82.7461 243.978 83.0273 244.61 83.0273C245.513 83.0273 246.099 82.4297 246.099 81.7148V81.1875L244.692 81.2812C243.978 81.3398 243.532 81.6328 243.532 82.1953ZM250.481 75.5156V84H248.981V75.5156H250.481ZM253.411 75.5156V84H251.911V75.5156H253.411Z" fill="var(--sol-element-primary)"/>
</g>
</g>
<g clip-path="url(#clip2_1281_125415)">
<path d="M284.902 77.8477C284.832 77.1211 284.211 76.6992 283.297 76.6992C282.336 76.6992 281.75 77.168 281.75 77.8008C281.75 78.5156 282.5 78.8086 283.203 78.9727L284 79.1836C285.266 79.4766 286.484 80.1445 286.484 81.6211C286.484 83.1094 285.312 84.1289 283.273 84.1289C281.293 84.1289 280.051 83.1797 279.98 81.5039H281.48C281.551 82.3945 282.301 82.8281 283.262 82.8281C284.27 82.8281 284.961 82.3359 284.961 81.6094C284.961 80.9414 284.34 80.6602 283.426 80.4258L282.465 80.1797C281.07 79.8164 280.203 79.1133 280.203 77.8945C280.203 76.3945 281.539 75.3984 283.32 75.3984C285.125 75.3984 286.344 76.418 286.367 77.8477H284.902ZM287.68 84V77.6367H289.109V78.7148H289.191C289.449 77.9883 290.094 77.5547 290.938 77.5547C291.805 77.5547 292.414 77.9883 292.66 78.7148H292.73C293.012 78.0117 293.715 77.5547 294.641 77.5547C295.801 77.5547 296.621 78.3047 296.621 79.7227V84H295.133V79.957C295.133 79.1602 294.652 78.8086 294.043 78.8086C293.305 78.8086 292.883 79.3125 292.883 80.0273V84H291.43V79.8984C291.43 79.2422 290.984 78.8086 290.352 78.8086C289.707 78.8086 289.18 79.3359 289.18 80.1328V84H287.68ZM297.758 82.207C297.758 80.7773 298.941 80.3555 300.125 80.2852C300.564 80.2559 301.479 80.2031 301.754 80.1914V79.6875C301.754 79.0547 301.344 78.6914 300.605 78.6914C299.938 78.6914 299.527 78.9961 299.41 79.4531H297.969C298.074 78.375 299.047 77.5547 300.641 77.5547C301.848 77.5547 303.242 78.0469 303.242 79.7461V84H301.812V83.1211H301.766C301.484 83.6602 300.887 84.1289 299.891 84.1289C298.672 84.1289 297.758 83.4609 297.758 82.207ZM299.199 82.1953C299.199 82.7461 299.645 83.0273 300.277 83.0273C301.18 83.0273 301.766 82.4297 301.766 81.7148V81.1875L300.359 81.2812C299.645 81.3398 299.199 81.6328 299.199 82.1953ZM306.148 75.5156V84H304.648V75.5156H306.148ZM309.078 75.5156V84H307.578V75.5156H309.078Z" fill="var(--sol-element-quaternary)"/>
</g>
<g clip-path="url(#clip3_1281_125415)">
<path d="M340.568 77.8477C340.498 77.1211 339.877 76.6992 338.963 76.6992C338.002 76.6992 337.416 77.168 337.416 77.8008C337.416 78.5156 338.166 78.8086 338.869 78.9727L339.666 79.1836C340.932 79.4766 342.15 80.1445 342.15 81.6211C342.15 83.1094 340.979 84.1289 338.939 84.1289C336.959 84.1289 335.717 83.1797 335.646 81.5039H337.146C337.217 82.3945 337.967 82.8281 338.928 82.8281C339.936 82.8281 340.627 82.3359 340.627 81.6094C340.627 80.9414 340.006 80.6602 339.092 80.4258L338.131 80.1797C336.736 79.8164 335.869 79.1133 335.869 77.8945C335.869 76.3945 337.205 75.3984 338.986 75.3984C340.791 75.3984 342.01 76.418 342.033 77.8477H340.568ZM343.346 84V77.6367H344.775V78.7148H344.857C345.115 77.9883 345.76 77.5547 346.604 77.5547C347.471 77.5547 348.08 77.9883 348.326 78.7148H348.396C348.678 78.0117 349.381 77.5547 350.307 77.5547C351.467 77.5547 352.287 78.3047 352.287 79.7227V84H350.799V79.957C350.799 79.1602 350.318 78.8086 349.709 78.8086C348.971 78.8086 348.549 79.3125 348.549 80.0273V84H347.096V79.8984C347.096 79.2422 346.65 78.8086 346.018 78.8086C345.373 78.8086 344.846 79.3359 344.846 80.1328V84H343.346ZM353.424 82.207C353.424 80.7773 354.607 80.3555 355.791 80.2852C356.23 80.2559 357.145 80.2031 357.42 80.1914V79.6875C357.42 79.0547 357.01 78.6914 356.271 78.6914C355.604 78.6914 355.193 78.9961 355.076 79.4531H353.635C353.74 78.375 354.713 77.5547 356.307 77.5547C357.514 77.5547 358.908 78.0469 358.908 79.7461V84H357.479V83.1211H357.432C357.15 83.6602 356.553 84.1289 355.557 84.1289C354.338 84.1289 353.424 83.4609 353.424 82.207ZM354.865 82.1953C354.865 82.7461 355.311 83.0273 355.943 83.0273C356.846 83.0273 357.432 82.4297 357.432 81.7148V81.1875L356.025 81.2812C355.311 81.3398 354.865 81.6328 354.865 82.1953ZM361.814 75.5156V84H360.314V75.5156H361.814ZM364.744 75.5156V84H363.244V75.5156H364.744Z" fill="var(--sol-element-quaternary)"/>
</g>
</g>
<g clip-path="url(#clip4_1281_125415)">
<path d="M441.5 68C441.5 65.7909 443.291 64 445.5 64H687.5C689.709 64 691.5 65.7909 691.5 68V92C691.5 94.2091 689.709 96 687.5 96H445.5C443.291 96 441.5 94.2091 441.5 92V68Z" fill="var(--sol-element-primary)" fill-opacity="0.04"/>
<g filter="url(#filter1_d_1281_125415)">
<path d="M444.5 69C444.5 67.8954 445.395 67 446.5 67H523.833C524.938 67 525.833 67.8954 525.833 69V91C525.833 92.1046 524.938 93 523.833 93H446.5C445.395 93 444.5 92.1046 444.5 91V69Z" fill="var(--sol-surface)"/>
<path d="M463.452 75.5156H465.327L467.847 81.6797H467.952L470.472 75.5156H472.347V84H470.882V78.1641H470.8L468.444 83.9766H467.354L464.999 78.1406H464.929V84H463.452V75.5156ZM476.671 84.1289C474.749 84.1289 473.577 82.8516 473.577 80.8594C473.577 78.8906 474.772 77.5547 476.589 77.5547C478.147 77.5547 479.495 78.5273 479.495 80.7656V81.2344H475.054C475.071 82.3184 475.71 82.957 476.683 82.957C477.339 82.957 477.784 82.6758 477.972 82.3008H479.437C479.167 83.4023 478.147 84.1289 476.671 84.1289ZM475.065 80.2148H478.065C478.054 79.3477 477.479 78.7148 476.612 78.7148C475.71 78.7148 475.112 79.4004 475.065 80.2148ZM483.022 84.1172C481.522 84.1172 480.397 82.9219 480.397 80.8242C480.397 78.7031 481.558 77.5547 483.034 77.5547C484.159 77.5547 484.628 78.2227 484.851 78.6797H484.909V75.5156H486.397V84H484.933V82.9922H484.851C484.616 83.4609 484.124 84.1172 483.022 84.1172ZM483.433 82.8867C484.394 82.8867 484.944 82.0547 484.944 80.8125C484.944 79.582 484.405 78.7734 483.433 78.7734C482.437 78.7734 481.921 79.6289 481.921 80.8125C481.921 82.0195 482.448 82.8867 483.433 82.8867ZM487.909 84V77.6367H489.409V84H487.909ZM488.671 76.7344C488.202 76.7344 487.804 76.3711 487.804 75.9141C487.804 75.4688 488.202 75.1055 488.671 75.1055C489.151 75.1055 489.538 75.4688 489.538 75.9141C489.538 76.3711 489.151 76.7344 488.671 76.7344ZM494.905 81.3281V77.6367H496.394V84H494.952V82.875H494.882C494.589 83.5781 493.921 84.082 492.972 84.082C491.718 84.082 490.851 83.2148 490.839 81.6914V77.6367H492.339V81.457C492.339 82.2656 492.819 82.7812 493.546 82.7812C494.202 82.7812 494.905 82.3008 494.905 81.3281ZM497.823 84V77.6367H499.253V78.7148H499.335C499.593 77.9883 500.237 77.5547 501.081 77.5547C501.948 77.5547 502.558 77.9883 502.804 78.7148H502.874C503.155 78.0117 503.858 77.5547 504.784 77.5547C505.944 77.5547 506.765 78.3047 506.765 79.7227V84H505.276V79.957C505.276 79.1602 504.796 78.8086 504.187 78.8086C503.448 78.8086 503.026 79.3125 503.026 80.0273V84H501.573V79.8984C501.573 79.2422 501.128 78.8086 500.495 78.8086C499.851 78.8086 499.323 79.3359 499.323 80.1328V84H497.823Z" fill="var(--sol-element-primary)"/>
</g>
<g clip-path="url(#clip5_1281_125415)">
<path d="M544.785 75.5156H546.66L549.18 81.6797H549.285L551.805 75.5156H553.68V84H552.215V78.1641H552.133L549.777 83.9766H548.688L546.332 78.1406H546.262V84H544.785V75.5156ZM558.004 84.1289C556.082 84.1289 554.91 82.8516 554.91 80.8594C554.91 78.8906 556.105 77.5547 557.922 77.5547C559.48 77.5547 560.828 78.5273 560.828 80.7656V81.2344H556.387C556.404 82.3184 557.043 82.957 558.016 82.957C558.672 82.957 559.117 82.6758 559.305 82.3008H560.77C560.5 83.4023 559.48 84.1289 558.004 84.1289ZM556.398 80.2148H559.398C559.387 79.3477 558.812 78.7148 557.945 78.7148C557.043 78.7148 556.445 79.4004 556.398 80.2148ZM564.355 84.1172C562.855 84.1172 561.73 82.9219 561.73 80.8242C561.73 78.7031 562.891 77.5547 564.367 77.5547C565.492 77.5547 565.961 78.2227 566.184 78.6797H566.242V75.5156H567.73V84H566.266V82.9922H566.184C565.949 83.4609 565.457 84.1172 564.355 84.1172ZM564.766 82.8867C565.727 82.8867 566.277 82.0547 566.277 80.8125C566.277 79.582 565.738 78.7734 564.766 78.7734C563.77 78.7734 563.254 79.6289 563.254 80.8125C563.254 82.0195 563.781 82.8867 564.766 82.8867ZM569.242 84V77.6367H570.742V84H569.242ZM570.004 76.7344C569.535 76.7344 569.137 76.3711 569.137 75.9141C569.137 75.4688 569.535 75.1055 570.004 75.1055C570.484 75.1055 570.871 75.4688 570.871 75.9141C570.871 76.3711 570.484 76.7344 570.004 76.7344ZM576.238 81.3281V77.6367H577.727V84H576.285V82.875H576.215C575.922 83.5781 575.254 84.082 574.305 84.082C573.051 84.082 572.184 83.2148 572.172 81.6914V77.6367H573.672V81.457C573.672 82.2656 574.152 82.7812 574.879 82.7812C575.535 82.7812 576.238 82.3008 576.238 81.3281ZM579.156 84V77.6367H580.586V78.7148H580.668C580.926 77.9883 581.57 77.5547 582.414 77.5547C583.281 77.5547 583.891 77.9883 584.137 78.7148H584.207C584.488 78.0117 585.191 77.5547 586.117 77.5547C587.277 77.5547 588.098 78.3047 588.098 79.7227V84H586.609V79.957C586.609 79.1602 586.129 78.8086 585.52 78.8086C584.781 78.8086 584.359 79.3125 584.359 80.0273V84H582.906V79.8984C582.906 79.2422 582.461 78.8086 581.828 78.8086C581.184 78.8086 580.656 79.3359 580.656 80.1328V84H579.156Z" fill="var(--sol-element-quaternary)"/>
</g>
<g clip-path="url(#clip6_1281_125415)">
<path d="M626.119 75.5156H627.994L630.514 81.6797H630.619L633.139 75.5156H635.014V84H633.549V78.1641H633.467L631.111 83.9766H630.021L627.666 78.1406H627.596V84H626.119V75.5156ZM639.338 84.1289C637.416 84.1289 636.244 82.8516 636.244 80.8594C636.244 78.8906 637.439 77.5547 639.256 77.5547C640.814 77.5547 642.162 78.5273 642.162 80.7656V81.2344H637.721C637.738 82.3184 638.377 82.957 639.35 82.957C640.006 82.957 640.451 82.6758 640.639 82.3008H642.104C641.834 83.4023 640.814 84.1289 639.338 84.1289ZM637.732 80.2148H640.732C640.721 79.3477 640.146 78.7148 639.279 78.7148C638.377 78.7148 637.779 79.4004 637.732 80.2148ZM645.689 84.1172C644.189 84.1172 643.064 82.9219 643.064 80.8242C643.064 78.7031 644.225 77.5547 645.701 77.5547C646.826 77.5547 647.295 78.2227 647.518 78.6797H647.576V75.5156H649.064V84H647.6V82.9922H647.518C647.283 83.4609 646.791 84.1172 645.689 84.1172ZM646.1 82.8867C647.061 82.8867 647.611 82.0547 647.611 80.8125C647.611 79.582 647.072 78.7734 646.1 78.7734C645.104 78.7734 644.588 79.6289 644.588 80.8125C644.588 82.0195 645.115 82.8867 646.1 82.8867ZM650.576 84V77.6367H652.076V84H650.576ZM651.338 76.7344C650.869 76.7344 650.471 76.3711 650.471 75.9141C650.471 75.4688 650.869 75.1055 651.338 75.1055C651.818 75.1055 652.205 75.4688 652.205 75.9141C652.205 76.3711 651.818 76.7344 651.338 76.7344ZM657.572 81.3281V77.6367H659.061V84H657.619V82.875H657.549C657.256 83.5781 656.588 84.082 655.639 84.082C654.385 84.082 653.518 83.2148 653.506 81.6914V77.6367H655.006V81.457C655.006 82.2656 655.486 82.7812 656.213 82.7812C656.869 82.7812 657.572 82.3008 657.572 81.3281ZM660.49 84V77.6367H661.92V78.7148H662.002C662.26 77.9883 662.904 77.5547 663.748 77.5547C664.615 77.5547 665.225 77.9883 665.471 78.7148H665.541C665.822 78.0117 666.525 77.5547 667.451 77.5547C668.611 77.5547 669.432 78.3047 669.432 79.7227V84H667.943V79.957C667.943 79.1602 667.463 78.8086 666.854 78.8086C666.115 78.8086 665.693 79.3125 665.693 80.0273V84H664.24V79.8984C664.24 79.2422 663.795 78.8086 663.162 78.8086C662.518 78.8086 661.99 79.3359 661.99 80.1328V84H660.49Z" fill="var(--sol-element-quaternary)"/>
</g>
</g>
<path d="M388.5 66V94" stroke="var(--sol-error-dim)"/>
<path d="M385.5 66H391.5" stroke="var(--sol-error-dim)"/>
<path d="M385.5 94H391.5" stroke="var(--sol-error-dim)"/>
<rect x="395.5" y="70" width="20" height="20" rx="3.5" fill="var(--sol-error-dim)"/>
<path d="M399.366 84V83.125L402.073 80.3203C402.362 80.0156 402.601 79.7487 402.788 79.5195C402.978 79.2878 403.12 79.0677 403.214 78.8594C403.308 78.651 403.355 78.4297 403.355 78.1953C403.355 77.9297 403.292 77.7005 403.167 77.5078C403.042 77.3125 402.872 77.1628 402.655 77.0586C402.439 76.9518 402.196 76.8984 401.925 76.8984C401.639 76.8984 401.389 76.957 401.175 77.0742C400.961 77.1914 400.797 77.3568 400.683 77.5703C400.568 77.7839 400.511 78.0339 400.511 78.3203H399.359C399.359 77.8333 399.471 77.4076 399.695 77.043C399.918 76.6784 400.226 76.3958 400.616 76.1953C401.007 75.9922 401.451 75.8906 401.948 75.8906C402.451 75.8906 402.894 75.9909 403.277 76.1914C403.662 76.3893 403.963 76.6602 404.179 77.0039C404.395 77.3451 404.503 77.7305 404.503 78.1602C404.503 78.457 404.447 78.7474 404.335 79.0312C404.226 79.3151 404.034 79.6315 403.761 79.9805C403.487 80.3268 403.107 80.7474 402.62 81.2422L401.03 82.9062V82.9648H404.632V84H399.366ZM408.926 84.1094C408.366 84.1094 407.871 84.013 407.441 83.8203C407.014 83.6276 406.68 83.362 406.437 83.0234C406.195 82.6849 406.075 82.2995 406.078 81.8672C406.075 81.5286 406.144 81.2174 406.285 80.9336C406.428 80.6471 406.622 80.4089 406.867 80.2188C407.112 80.026 407.385 79.9036 407.687 79.8516V79.8047C407.289 79.7083 406.97 79.4948 406.73 79.1641C406.491 78.8333 406.372 78.4531 406.375 78.0234C406.372 77.6146 406.48 77.25 406.699 76.9297C406.92 76.6068 407.224 76.3529 407.609 76.168C407.995 75.9831 408.433 75.8906 408.926 75.8906C409.413 75.8906 409.847 75.9844 410.23 76.1719C410.616 76.3568 410.919 76.6107 411.14 76.9336C411.362 77.2539 411.474 77.6172 411.476 78.0234C411.474 78.4531 411.351 78.8333 411.109 79.1641C410.867 79.4948 410.552 79.7083 410.164 79.8047V79.8516C410.463 79.9036 410.733 80.026 410.972 80.2188C411.215 80.4089 411.407 80.6471 411.551 80.9336C411.696 81.2174 411.771 81.5286 411.773 81.8672C411.771 82.2995 411.648 82.6849 411.406 83.0234C411.164 83.362 410.828 83.6276 410.398 83.8203C409.971 84.013 409.48 84.1094 408.926 84.1094ZM408.926 83.1211C409.256 83.1211 409.543 83.0664 409.785 82.957C410.027 82.8451 410.215 82.6901 410.347 82.4922C410.48 82.2917 410.548 82.0573 410.551 81.7891C410.548 81.5104 410.475 81.2643 410.332 81.0508C410.191 80.8372 410 80.6693 409.758 80.5469C409.515 80.4245 409.238 80.3633 408.926 80.3633C408.611 80.3633 408.331 80.4245 408.086 80.5469C407.841 80.6693 407.648 80.8372 407.508 81.0508C407.367 81.2643 407.298 81.5104 407.301 81.7891C407.298 82.0573 407.362 82.2917 407.492 82.4922C407.625 82.6901 407.814 82.8451 408.058 82.957C408.303 83.0664 408.592 83.1211 408.926 83.1211ZM408.926 79.3984C409.191 79.3984 409.427 79.3451 409.633 79.2383C409.838 79.1315 410 78.9831 410.117 78.793C410.237 78.6029 410.298 78.3802 410.301 78.125C410.298 77.875 410.238 77.6563 410.121 77.4688C410.006 77.2812 409.846 77.1367 409.64 77.0352C409.435 76.931 409.196 76.8789 408.926 76.8789C408.65 76.8789 408.407 76.931 408.199 77.0352C407.993 77.1367 407.833 77.2812 407.719 77.4688C407.604 77.6563 407.548 77.875 407.551 78.125C407.548 78.3802 407.605 78.6029 407.722 78.793C407.84 78.9831 408.001 79.1315 408.207 79.2383C408.415 79.3451 408.655 79.3984 408.926 79.3984Z" fill="var(--sol-surface)"/>
<path d="M698.5 64V96" stroke="var(--sol-error-dim)"/>
<path d="M695.5 64H701.5" stroke="var(--sol-error-dim)"/>
<path d="M695.5 96H701.5" stroke="var(--sol-error-dim)"/>
<rect x="705.5" y="70" width="20" height="20" rx="3.5" fill="var(--sol-error-dim)"/>
<path d="M712.082 84.1094C711.545 84.1094 711.066 84.0169 710.644 83.832C710.225 83.6471 709.893 83.3906 709.648 83.0625C709.406 82.7318 709.276 82.349 709.258 81.9141H710.484C710.5 82.151 710.579 82.3568 710.722 82.5312C710.868 82.7031 711.058 82.8359 711.293 82.9297C711.527 83.0234 711.787 83.0703 712.074 83.0703C712.389 83.0703 712.668 83.0156 712.91 82.9062C713.155 82.7969 713.346 82.6445 713.484 82.4492C713.622 82.2513 713.691 82.0234 713.691 81.7656C713.691 81.4974 713.622 81.2617 713.484 81.0586C713.349 80.8529 713.149 80.6914 712.886 80.5742C712.626 80.457 712.311 80.3984 711.941 80.3984H711.265V79.4141H711.941C712.238 79.4141 712.498 79.3607 712.722 79.2539C712.949 79.1471 713.126 78.9987 713.254 78.8086C713.381 78.6159 713.445 78.3906 713.445 78.1328C713.445 77.8854 713.389 77.6706 713.277 77.4883C713.168 77.3034 713.011 77.1589 712.808 77.0547C712.608 76.9505 712.371 76.8984 712.097 76.8984C711.837 76.8984 711.593 76.9466 711.367 77.043C711.143 77.1367 710.961 77.2721 710.82 77.4492C710.679 77.6237 710.604 77.8333 710.593 78.0781H709.425C709.438 77.6458 709.566 77.2656 709.808 76.9375C710.053 76.6094 710.376 76.3529 710.777 76.168C711.178 75.9831 711.623 75.8906 712.113 75.8906C712.626 75.8906 713.069 75.9909 713.441 76.1914C713.816 76.3893 714.105 76.6536 714.308 76.9844C714.514 77.3151 714.616 77.6771 714.613 78.0703C714.616 78.5182 714.491 78.8984 714.238 79.2109C713.988 79.5234 713.655 79.7331 713.238 79.8398V79.9023C713.769 79.9831 714.181 80.194 714.472 80.5352C714.767 80.8763 714.912 81.2995 714.91 81.8047C714.912 82.2448 714.79 82.6393 714.543 82.9883C714.298 83.3372 713.963 83.612 713.539 83.8125C713.114 84.0104 712.629 84.1094 712.082 84.1094ZM716.496 84V83.125L719.203 80.3203C719.493 80.0156 719.731 79.7487 719.918 79.5195C720.108 79.2878 720.25 79.0677 720.344 78.8594C720.438 78.651 720.485 78.4297 720.485 78.1953C720.485 77.9297 720.422 77.7005 720.297 77.5078C720.172 77.3125 720.002 77.1628 719.785 77.0586C719.569 76.9518 719.326 76.8984 719.055 76.8984C718.769 76.8984 718.519 76.957 718.305 77.0742C718.091 77.1914 717.927 77.3568 717.813 77.5703C717.698 77.7839 717.641 78.0339 717.641 78.3203H716.489C716.489 77.8333 716.601 77.4076 716.825 77.043C717.048 76.6784 717.356 76.3958 717.746 76.1953C718.137 75.9922 718.581 75.8906 719.078 75.8906C719.581 75.8906 720.024 75.9909 720.407 76.1914C720.792 76.3893 721.093 76.6602 721.309 77.0039C721.525 77.3451 721.633 77.7305 721.633 78.1602C721.633 78.457 721.577 78.7474 721.465 79.0312C721.356 79.3151 721.164 79.6315 720.891 79.9805C720.618 80.3268 720.237 80.7474 719.75 81.2422L718.16 82.9062V82.9648H721.762V84H716.496Z" fill="var(--sol-surface)"/>
<defs>
<filter id="filter0_d_1281_125415" x="209.5" y="69" width="59.667" height="26" filterUnits="userSpaceOnUse" color-interpolation-filters="sRGB">
<feFlood flood-opacity="0" result="BackgroundImageFix"/>
<feColorMatrix in="SourceAlpha" type="matrix" values="0 0 0 0 0 0 0 0 0 0 0 0 0 0 0 0 0 0 127 0" result="hardAlpha"/>
<feOffset dy="2"/>
<feGaussianBlur stdDeviation="1"/>
<feComposite in2="hardAlpha" operator="out"/>
<feColorMatrix type="matrix" values="0 0 0 0 0 0 0 0 0 0 0 0 0 0 0 0 0 0 0.04 0"/>
<feBlend mode="normal" in2="BackgroundImageFix" result="effect1_dropShadow_1281_125415"/>
<feBlend mode="normal" in="SourceGraphic" in2="effect1_dropShadow_1281_125415" result="shape"/>
</filter>
<filter id="filter1_d_1281_125415" x="442.5" y="67" width="85.333" height="30" filterUnits="userSpaceOnUse" color-interpolation-filters="sRGB">
<feFlood flood-opacity="0" result="BackgroundImageFix"/>
<feColorMatrix in="SourceAlpha" type="matrix" values="0 0 0 0 0 0 0 0 0 0 0 0 0 0 0 0 0 0 127 0" result="hardAlpha"/>
<feOffset dy="2"/>
<feGaussianBlur stdDeviation="1"/>
<feComposite in2="hardAlpha" operator="out"/>
<feColorMatrix type="matrix" values="0 0 0 0 0 0 0 0 0 0 0 0 0 0 0 0 0 0 0.04 0"/>
<feBlend mode="normal" in2="BackgroundImageFix" result="effect1_dropShadow_1281_125415"/>
<feBlend mode="normal" in="SourceGraphic" in2="effect1_dropShadow_1281_125415" result="shape"/>
</filter>
<clipPath id="clip0_1281_125415">
<path d="M208.5 70C208.5 67.7909 210.291 66 212.5 66H377.5C379.709 66 381.5 67.7909 381.5 70V90C381.5 92.2091 379.709 94 377.5 94H212.5C210.291 94 208.5 92.2091 208.5 90V70Z" fill="var(--sol-surface)"/>
</clipPath>
<clipPath id="clip1_1281_125415">
<path d="M211.5 71C211.5 69.8954 212.395 69 213.5 69H265.167C266.271 69 267.167 69.8954 267.167 71V89C267.167 90.1046 266.271 91 265.167 91H213.5C212.395 91 211.5 90.1046 211.5 89V71Z" fill="var(--sol-surface)"/>
</clipPath>
<clipPath id="clip2_1281_125415">
<rect width="55.6667" height="22" fill="var(--sol-surface)" transform="translate(267.167 69)"/>
</clipPath>
<clipPath id="clip3_1281_125415">
<rect width="55.6667" height="22" fill="var(--sol-surface)" transform="translate(322.833 69)"/>
</clipPath>
<clipPath id="clip4_1281_125415">
<path d="M441.5 68C441.5 65.7909 443.291 64 445.5 64H687.5C689.709 64 691.5 65.7909 691.5 68V92C691.5 94.2091 689.709 96 687.5 96H445.5C443.291 96 441.5 94.2091 441.5 92V68Z" fill="var(--sol-surface)"/>
</clipPath>
<clipPath id="clip5_1281_125415">
<rect width="81.3333" height="26" fill="var(--sol-surface)" transform="translate(525.833 67)"/>
</clipPath>
<clipPath id="clip6_1281_125415">
<rect width="81.3333" height="26" fill="var(--sol-surface)" transform="translate(607.167 67)"/>
</clipPath>
</defs>
</svg>
