<svg width="900" height="500" viewBox="0 0 900 500" fill="none" xmlns="http://www.w3.org/2000/svg">
<style>
:root {
  --sol-primary: #282363;
  --sol-surface: #ffffff;
  --sol-element-primary: #161616;
  --sol-element-quaternary: #858585;
  --sol-border-normal-variant: #ebebeb;
  --sol-border-solid-variant: #e0e0e0;
  --sol-static-white: #ffffff;
  --sol-static-black: #000000;
}
@media (prefers-color-scheme: dark) {
  :root {
    --sol-primary: #9791d4;
    --sol-surface: #161616;
    --sol-element-primary: #ffffff;
    --sol-element-quaternary: rgba(255, 255, 255, 0.5);
    --sol-border-normal-variant: rgba(255, 255, 255, 0.08);
    --sol-border-solid-variant: #3d3d3d;
  }
}
</style>
<path d="M61.0469 53.6875H63.5469L66.9062 61.9062H67.0469L70.4062 53.6875H72.9062V65H70.9531V57.2188H70.8438L67.7031 64.9688H66.25L63.1094 57.1875H63.0156V65H61.0469V53.6875ZM74.5156 62.6094C74.5156 60.7031 76.0938 60.1406 77.6719 60.0469C78.2578 60.0078 79.4766 59.9375 79.8438 59.9219V59.25C79.8438 58.4062 79.2969 57.9219 78.3125 57.9219C77.4219 57.9219 76.875 58.3281 76.7188 58.9375H74.7969C74.9375 57.5 76.2344 56.4062 78.3594 56.4062C79.9688 56.4062 81.8281 57.0625 81.8281 59.3281V65H79.9219V63.8281H79.8594C79.4844 64.5469 78.6875 65.1719 77.3594 65.1719C75.7344 65.1719 74.5156 64.2812 74.5156 62.6094ZM76.4375 62.5938C76.4375 63.3281 77.0312 63.7031 77.875 63.7031C79.0781 63.7031 79.8594 62.9062 79.8594 61.9531V61.25L77.9844 61.375C77.0312 61.4531 76.4375 61.8438 76.4375 62.5938ZM83.7031 65V56.5156H85.7031V65H83.7031ZM84.7188 55.3125C84.0938 55.3125 83.5625 54.8281 83.5625 54.2188C83.5625 53.625 84.0938 53.1406 84.7188 53.1406C85.3594 53.1406 85.875 53.625 85.875 54.2188C85.875 54.8281 85.3594 55.3125 84.7188 55.3125ZM89.6094 60.0312V65H87.6094V56.5156H89.5156V57.9531H89.625C90.0156 57 90.875 56.4062 92.1406 56.4062C93.9062 56.4062 95.0625 57.5625 95.0469 59.5938V65H93.0625V59.9062C93.0625 58.7656 92.4531 58.0938 91.4062 58.0938C90.3438 58.0938 89.6094 58.7969 89.6094 60.0312ZM100.359 62.6094C100.359 60.7031 101.938 60.1406 103.516 60.0469C104.102 60.0078 105.32 59.9375 105.688 59.9219V59.25C105.688 58.4062 105.141 57.9219 104.156 57.9219C103.266 57.9219 102.719 58.3281 102.562 58.9375H100.641C100.781 57.5 102.078 56.4062 104.203 56.4062C105.812 56.4062 107.672 57.0625 107.672 59.3281V65H105.766V63.8281H105.703C105.328 64.5469 104.531 65.1719 103.203 65.1719C101.578 65.1719 100.359 64.2812 100.359 62.6094ZM102.281 62.5938C102.281 63.3281 102.875 63.7031 103.719 63.7031C104.922 63.7031 105.703 62.9062 105.703 61.9531V61.25L103.828 61.375C102.875 61.4531 102.281 61.8438 102.281 62.5938ZM113.25 65.1719C110.719 65.1719 109.188 63.3594 109.188 60.7969C109.188 58.2031 110.766 56.4062 113.25 56.4062C115.312 56.4062 116.75 57.6094 116.891 59.4375H114.984C114.828 58.625 114.234 58 113.266 58C112.031 58 111.203 59.0469 111.203 60.75C111.203 62.5 112.016 63.5469 113.266 63.5469C114.156 63.5469 114.812 63.0312 114.984 62.1094H116.891C116.734 63.9062 115.375 65.1719 113.25 65.1719ZM122.625 56.5156V58.0469H120.953V62.4531C120.953 63.2656 121.359 63.4375 121.859 63.4375C122.094 63.4375 122.484 63.4219 122.734 63.4062V65.0312C122.5 65.0781 122.109 65.1094 121.609 65.1094C120.109 65.1094 118.953 64.375 118.969 62.7812V58.0469H117.75V56.5156H118.969V54.4844H120.953V56.5156H122.625ZM124.156 65V56.5156H126.156V65H124.156ZM125.172 55.3125C124.547 55.3125 124.016 54.8281 124.016 54.2188C124.016 53.625 124.547 53.1406 125.172 53.1406C125.812 53.1406 126.328 53.625 126.328 54.2188C126.328 54.8281 125.812 55.3125 125.172 55.3125ZM131.766 65.1719C129.297 65.1719 127.703 63.4219 127.703 60.7969C127.703 58.1562 129.297 56.4062 131.766 56.4062C134.25 56.4062 135.828 58.1562 135.828 60.7969C135.828 63.4219 134.25 65.1719 131.766 65.1719ZM131.781 63.5781C133.141 63.5781 133.812 62.3438 133.812 60.7812C133.812 59.2344 133.141 57.9844 131.781 57.9844C130.391 57.9844 129.719 59.2344 129.719 60.7812C129.719 62.3438 130.391 63.5781 131.781 63.5781ZM139.375 60.0312V65H137.375V56.5156H139.281V57.9531H139.391C139.781 57 140.641 56.4062 141.906 56.4062C143.672 56.4062 144.828 57.5625 144.812 59.5938V65H142.828V59.9062C142.828 58.7656 142.219 58.0938 141.172 58.0938C140.109 58.0938 139.375 58.7969 139.375 60.0312ZM150.609 65V53.6875H152.609V57.9062H152.688C153 57.2969 153.609 56.4062 155.109 56.4062C157.078 56.4062 158.625 57.9375 158.625 60.7656C158.625 63.5625 157.109 65.1562 155.125 65.1562C153.656 65.1562 153 64.2812 152.688 63.6562H152.562V65H150.609ZM152.562 60.75C152.562 62.4062 153.281 63.5156 154.562 63.5156C155.891 63.5156 156.594 62.3594 156.594 60.75C156.594 59.1719 155.906 58.0312 154.562 58.0312C153.281 58.0312 152.562 59.1094 152.562 60.75ZM165.609 61.4375V56.5156H167.594V65H165.672V63.5H165.578C165.188 64.4375 164.297 65.1094 163.031 65.1094C161.359 65.1094 160.203 63.9531 160.188 61.9219V56.5156H162.188V61.6094C162.188 62.6875 162.828 63.375 163.797 63.375C164.672 63.375 165.609 62.7344 165.609 61.4375ZM173.734 56.5156V58.0469H172.062V62.4531C172.062 63.2656 172.469 63.4375 172.969 63.4375C173.203 63.4375 173.594 63.4219 173.844 63.4062V65.0312C173.609 65.0781 173.219 65.1094 172.719 65.1094C171.219 65.1094 170.062 64.375 170.078 62.7812V58.0469H168.859V56.5156H170.078V54.4844H172.062V56.5156H173.734ZM179.5 56.5156V58.0469H177.828V62.4531C177.828 63.2656 178.234 63.4375 178.734 63.4375C178.969 63.4375 179.359 63.4219 179.609 63.4062V65.0312C179.375 65.0781 178.984 65.1094 178.484 65.1094C176.984 65.1094 175.828 64.375 175.844 62.7812V58.0469H174.625V56.5156H175.844V54.4844H177.828V56.5156H179.5ZM184.656 65.1719C182.188 65.1719 180.594 63.4219 180.594 60.7969C180.594 58.1562 182.188 56.4062 184.656 56.4062C187.141 56.4062 188.719 58.1562 188.719 60.7969C188.719 63.4219 187.141 65.1719 184.656 65.1719ZM184.672 63.5781C186.031 63.5781 186.703 62.3438 186.703 60.7812C186.703 59.2344 186.031 57.9844 184.672 57.9844C183.281 57.9844 182.609 59.2344 182.609 60.7812C182.609 62.3438 183.281 63.5781 184.672 63.5781ZM192.266 60.0312V65H190.266V56.5156H192.172V57.9531H192.281C192.672 57 193.531 56.4062 194.797 56.4062C196.562 56.4062 197.719 57.5625 197.703 59.5938V65H195.719V59.9062C195.719 58.7656 195.109 58.0938 194.062 58.0938C193 58.0938 192.266 58.7969 192.266 60.0312Z" fill="var(--sol-element-primary)"/>
<path d="M60.916 133V123.102H67.3555V124.592H62.6934V127.299H67.0137V128.789H62.6934V131.496H67.3828V133H60.916ZM70.7324 128.652V133H68.9824V125.576H70.6504V126.834H70.7461C71.0879 126 71.8398 125.48 72.9473 125.48C74.4922 125.48 75.5039 126.492 75.4902 128.27V133H73.7539V128.543C73.7539 127.545 73.2207 126.957 72.3047 126.957C71.375 126.957 70.7324 127.572 70.7324 128.652ZM76.8164 130.908C76.8164 129.24 78.1973 128.748 79.5781 128.666C80.0908 128.632 81.1572 128.57 81.4785 128.557V127.969C81.4785 127.23 81 126.807 80.1387 126.807C79.3594 126.807 78.8809 127.162 78.7441 127.695H77.0625C77.1855 126.438 78.3203 125.48 80.1797 125.48C81.5879 125.48 83.2148 126.055 83.2148 128.037V133H81.5469V131.975H81.4922C81.1641 132.604 80.4668 133.15 79.3047 133.15C77.8828 133.15 76.8164 132.371 76.8164 130.908ZM78.498 130.895C78.498 131.537 79.0176 131.865 79.7559 131.865C80.8086 131.865 81.4922 131.168 81.4922 130.334V129.719L79.8516 129.828C79.0176 129.896 78.498 130.238 78.498 130.895ZM84.9375 133V123.102H86.6875V126.793H86.7559C87.0293 126.26 87.5625 125.48 88.875 125.48C90.5977 125.48 91.9512 126.82 91.9512 129.295C91.9512 131.742 90.625 133.137 88.8887 133.137C87.6035 133.137 87.0293 132.371 86.7559 131.824H86.6465V133H84.9375ZM86.6465 129.281C86.6465 130.73 87.2754 131.701 88.3965 131.701C89.5586 131.701 90.1738 130.689 90.1738 129.281C90.1738 127.9 89.5723 126.902 88.3965 126.902C87.2754 126.902 86.6465 127.846 86.6465 129.281ZM95.0684 123.102V133H93.3184V123.102H95.0684ZM100.031 133.15C97.7891 133.15 96.4219 131.66 96.4219 129.336C96.4219 127.039 97.8164 125.48 99.9355 125.48C101.754 125.48 103.326 126.615 103.326 129.227V129.773H98.1445C98.165 131.038 98.9102 131.783 100.045 131.783C100.811 131.783 101.33 131.455 101.549 131.018H103.258C102.943 132.303 101.754 133.15 100.031 133.15ZM98.1582 128.584H101.658C101.645 127.572 100.975 126.834 99.9629 126.834C98.9102 126.834 98.2129 127.634 98.1582 128.584ZM107.441 133.137C105.691 133.137 104.379 131.742 104.379 129.295C104.379 126.82 105.732 125.48 107.455 125.48C108.768 125.48 109.314 126.26 109.574 126.793H109.643V123.102H111.379V133H109.67V131.824H109.574C109.301 132.371 108.727 133.137 107.441 133.137ZM107.92 131.701C109.041 131.701 109.684 130.73 109.684 129.281C109.684 127.846 109.055 126.902 107.92 126.902C106.758 126.902 106.156 127.9 106.156 129.281C106.156 130.689 106.771 131.701 107.92 131.701Z" fill="var(--sol-element-quaternary)"/>
<path d="M292 120C292 116.229 292 114.343 293.172 113.172C294.343 112 296.229 112 300 112H357V144H300C296.229 144 294.343 144 293.172 142.828C292 141.657 292 139.771 292 136V120Z" fill="var(--sol-primary)"/>
<path d="M326.043 132H324.414L327.402 123.516H329.277L332.277 132H330.648L329.945 129.902H326.746L326.043 132ZM327.156 128.672H329.535L328.375 125.25H328.305L327.156 128.672ZM335.395 132.117C333.895 132.117 332.77 130.922 332.77 128.824C332.77 126.703 333.93 125.555 335.406 125.555C336.531 125.555 337 126.223 337.223 126.68H337.281V123.516H338.77V132H337.305V130.992H337.223C336.988 131.461 336.496 132.117 335.395 132.117ZM335.805 130.887C336.766 130.887 337.316 130.055 337.316 128.812C337.316 127.582 336.777 126.773 335.805 126.773C334.809 126.773 334.293 127.629 334.293 128.812C334.293 130.02 334.82 130.887 335.805 130.887ZM342.648 132.117C341.148 132.117 340.023 130.922 340.023 128.824C340.023 126.703 341.184 125.555 342.66 125.555C343.785 125.555 344.254 126.223 344.477 126.68H344.535V123.516H346.023V132H344.559V130.992H344.477C344.242 131.461 343.75 132.117 342.648 132.117ZM343.059 130.887C344.02 130.887 344.57 130.055 344.57 128.812C344.57 127.582 344.031 126.773 343.059 126.773C342.062 126.773 341.547 127.629 341.547 128.812C341.547 130.02 342.074 130.887 343.059 130.887Z" fill="var(--sol-surface)"/>
<path d="M310.458 128.437H306.083V127.562H310.458V123.188H311.333V127.562H315.708V128.437H311.333V132.812H310.458V128.437Z" fill="var(--sol-surface)"/>
<rect width="1" height="32" transform="translate(357 112)" fill="var(--sol-border-normal-variant)"/>
<path d="M358 112H382C385.771 112 387.657 112 388.828 113.172C390 114.343 390 116.229 390 120V136C390 139.771 390 141.657 388.828 142.828C387.657 144 385.771 144 382 144H358V112Z" fill="var(--sol-primary)"/>
<path d="M376.809 126.56L373.309 130.06C373.138 130.231 372.861 130.231 372.69 130.06L369.19 126.56L369.809 125.941L373 129.132L376.19 125.941L376.809 126.56Z" fill="var(--sol-surface)"/>
<path d="M60.916 207V197.102H62.6934V201.299H67.3008V197.102H69.0918V207H67.3008V202.789H62.6934V207H60.916ZM74.082 207.15C71.9219 207.15 70.5273 205.619 70.5273 203.322C70.5273 201.012 71.9219 199.48 74.082 199.48C76.2559 199.48 77.6367 201.012 77.6367 203.322C77.6367 205.619 76.2559 207.15 74.082 207.15ZM74.0957 205.756C75.2852 205.756 75.873 204.676 75.873 203.309C75.873 201.955 75.2852 200.861 74.0957 200.861C72.8789 200.861 72.291 201.955 72.291 203.309C72.291 204.676 72.8789 205.756 74.0957 205.756ZM85.375 199.576L82.7227 207H80.8086L78.1562 199.576H80.0156L81.7246 205.1H81.8066L83.5293 199.576H85.375ZM89.5176 207.15C87.2754 207.15 85.9082 205.66 85.9082 203.336C85.9082 201.039 87.3027 199.48 89.4219 199.48C91.2402 199.48 92.8125 200.615 92.8125 203.227V203.773H87.6309C87.6514 205.038 88.3965 205.783 89.5312 205.783C90.2969 205.783 90.8164 205.455 91.0352 205.018H92.7441C92.4297 206.303 91.2402 207.15 89.5176 207.15ZM87.6445 202.584H91.1445C91.1309 201.572 90.4609 200.834 89.4492 200.834C88.3965 200.834 87.6992 201.634 87.6445 202.584ZM94.166 207V199.576H95.8613V200.807H95.9434C96.2031 199.959 96.9277 199.467 97.7754 199.467C97.9668 199.467 98.2402 199.48 98.4043 199.508V201.121C98.2539 201.066 97.8848 201.012 97.5977 201.012C96.627 201.012 95.916 201.682 95.916 202.625V207H94.166Z" fill="var(--sol-element-quaternary)"/>
<path d="M292 194C292 190.229 292 188.343 293.172 187.172C294.343 186 296.229 186 300 186H357V218H300C296.229 218 294.343 218 293.172 216.828C292 215.657 292 213.771 292 210V194Z" fill="var(--sol-primary)"/>
<path d="M292 190C292 187.791 293.791 186 296 186H357V218H296C293.791 218 292 216.209 292 214V190Z" fill="var(--sol-surface)" fill-opacity="0.08"/>
<path d="M326.043 206H324.414L327.402 197.516H329.277L332.277 206H330.648L329.945 203.902H326.746L326.043 206ZM327.156 202.672H329.535L328.375 199.25H328.305L327.156 202.672ZM335.395 206.117C333.895 206.117 332.77 204.922 332.77 202.824C332.77 200.703 333.93 199.555 335.406 199.555C336.531 199.555 337 200.223 337.223 200.68H337.281V197.516H338.77V206H337.305V204.992H337.223C336.988 205.461 336.496 206.117 335.395 206.117ZM335.805 204.887C336.766 204.887 337.316 204.055 337.316 202.812C337.316 201.582 336.777 200.773 335.805 200.773C334.809 200.773 334.293 201.629 334.293 202.812C334.293 204.02 334.82 204.887 335.805 204.887ZM342.648 206.117C341.148 206.117 340.023 204.922 340.023 202.824C340.023 200.703 341.184 199.555 342.66 199.555C343.785 199.555 344.254 200.223 344.477 200.68H344.535V197.516H346.023V206H344.559V204.992H344.477C344.242 205.461 343.75 206.117 342.648 206.117ZM343.059 204.887C344.02 204.887 344.57 204.055 344.57 202.812C344.57 201.582 344.031 200.773 343.059 200.773C342.062 200.773 341.547 201.629 341.547 202.812C341.547 204.02 342.074 204.887 343.059 204.887Z" fill="var(--sol-surface)"/>
<path d="M310.458 202.437H306.083V201.562H310.458V197.188H311.333V201.562H315.708V202.437H311.333V206.812H310.458V202.437Z" fill="var(--sol-surface)"/>
<rect width="1" height="32" transform="translate(357 186)" fill="var(--sol-border-normal-variant)"/>
<path d="M358 186H382C385.771 186 387.657 186 388.828 187.172C390 188.343 390 190.229 390 194V210C390 213.771 390 215.657 388.828 216.828C387.657 218 385.771 218 382 218H358V186Z" fill="var(--sol-primary)"/>
<path d="M376.809 200.56L373.309 204.06C373.138 204.231 372.861 204.231 372.69 204.06L369.19 200.56L369.809 199.941L373 203.132L376.19 199.941L376.809 200.56Z" fill="var(--sol-surface)"/>
<path d="M60.916 281V271.102H67.2598V272.592H62.6934V275.299H66.8223V276.789H62.6934V281H60.916ZM71.3887 281.15C69.2285 281.15 67.834 279.619 67.834 277.322C67.834 275.012 69.2285 273.48 71.3887 273.48C73.5625 273.48 74.9434 275.012 74.9434 277.322C74.9434 279.619 73.5625 281.15 71.3887 281.15ZM71.4023 279.756C72.5918 279.756 73.1797 278.676 73.1797 277.309C73.1797 275.955 72.5918 274.861 71.4023 274.861C70.1855 274.861 69.5977 275.955 69.5977 277.309C69.5977 278.676 70.1855 279.756 71.4023 279.756ZM79.5371 281.15C77.3223 281.15 75.9824 279.564 75.9824 277.322C75.9824 275.053 77.3633 273.48 79.5371 273.48C81.3418 273.48 82.5996 274.533 82.7227 276.133H81.0547C80.918 275.422 80.3984 274.875 79.5508 274.875C78.4707 274.875 77.7461 275.791 77.7461 277.281C77.7461 278.812 78.457 279.729 79.5508 279.729C80.3301 279.729 80.9043 279.277 81.0547 278.471H82.7227C82.5859 280.043 81.3965 281.15 79.5371 281.15ZM88.7793 277.883V273.576H90.5156V281H88.834V279.688H88.752C88.4102 280.508 87.6309 281.096 86.5234 281.096C85.0605 281.096 84.0488 280.084 84.0352 278.307V273.576H85.7852V278.033C85.7852 278.977 86.3457 279.578 87.1934 279.578C87.959 279.578 88.7793 279.018 88.7793 277.883ZM96.3945 275.695C96.2852 275.135 95.8203 274.779 95.082 274.779C94.3301 274.779 93.7832 275.148 93.7969 275.654C93.7832 276.037 94.0977 276.324 94.8496 276.502L96.1074 276.762C97.5156 277.076 98.1855 277.719 98.1992 278.785C98.1855 280.18 96.9688 281.15 95.0273 281.15C93.1406 281.15 92.0195 280.303 91.8418 278.881H93.6191C93.7285 279.51 94.2207 279.824 95.0273 279.824C95.8613 279.824 96.4219 279.482 96.4219 278.936C96.4219 278.512 96.0801 278.238 95.3418 278.074L94.1523 277.814C92.7715 277.541 92.0605 276.816 92.0605 275.75C92.0605 274.383 93.2363 273.48 95.0547 273.48C96.832 273.48 97.9258 274.342 98.0488 275.695H96.3945ZM102.82 281.15C100.578 281.15 99.2109 279.66 99.2109 277.336C99.2109 275.039 100.605 273.48 102.725 273.48C104.543 273.48 106.115 274.615 106.115 277.227V277.773H100.934C100.954 279.038 101.699 279.783 102.834 279.783C103.6 279.783 104.119 279.455 104.338 279.018H106.047C105.732 280.303 104.543 281.15 102.82 281.15ZM100.947 276.584H104.447C104.434 275.572 103.764 274.834 102.752 274.834C101.699 274.834 101.002 275.634 100.947 276.584ZM110.23 281.137C108.48 281.137 107.168 279.742 107.168 277.295C107.168 274.82 108.521 273.48 110.244 273.48C111.557 273.48 112.104 274.26 112.363 274.793H112.432V271.102H114.168V281H112.459V279.824H112.363C112.09 280.371 111.516 281.137 110.23 281.137ZM110.709 279.701C111.83 279.701 112.473 278.73 112.473 277.281C112.473 275.846 111.844 274.902 110.709 274.902C109.547 274.902 108.945 275.9 108.945 277.281C108.945 278.689 109.561 279.701 110.709 279.701Z" fill="var(--sol-element-quaternary)"/>
<path d="M292 268C292 264.229 292 262.343 293.172 261.172C294.343 260 296.229 260 300 260H357V292H300C296.229 292 294.343 292 293.172 290.828C292 289.657 292 287.771 292 284V268Z" fill="var(--sol-primary)"/>
<mask id="path-20-outside-1_1670_180449" maskUnits="userSpaceOnUse" x="288" y="256" width="73" height="40" fill="var(--sol-static-black)">
<rect fill="var(--sol-surface)" x="288" y="256" width="73" height="40"/>
<path d="M290 264C290 260.686 292.686 258 296 258H359V294H296C292.686 294 290 291.314 290 288V264Z"/>
</mask>
<path d="M359 258H361V256H359V258ZM359 294V296H361V294H359ZM296 258V260H359V258V256H296V258ZM359 258H357V294H359H361V258H359ZM359 294V292H296V294V296H359V294ZM290 288H292V264H290H288V288H290ZM296 294V292C293.791 292 292 290.209 292 288H290H288C288 292.418 291.582 296 296 296V294ZM296 258V256C291.582 256 288 259.582 288 264H290H292C292 261.791 293.791 260 296 260V258Z" fill="var(--sol-primary)" mask="url(#path-20-outside-1_1670_180449)"/>
<path d="M326.043 280H324.414L327.402 271.516H329.277L332.277 280H330.648L329.945 277.902H326.746L326.043 280ZM327.156 276.672H329.535L328.375 273.25H328.305L327.156 276.672ZM335.395 280.117C333.895 280.117 332.77 278.922 332.77 276.824C332.77 274.703 333.93 273.555 335.406 273.555C336.531 273.555 337 274.223 337.223 274.68H337.281V271.516H338.77V280H337.305V278.992H337.223C336.988 279.461 336.496 280.117 335.395 280.117ZM335.805 278.887C336.766 278.887 337.316 278.055 337.316 276.812C337.316 275.582 336.777 274.773 335.805 274.773C334.809 274.773 334.293 275.629 334.293 276.812C334.293 278.02 334.82 278.887 335.805 278.887ZM342.648 280.117C341.148 280.117 340.023 278.922 340.023 276.824C340.023 274.703 341.184 273.555 342.66 273.555C343.785 273.555 344.254 274.223 344.477 274.68H344.535V271.516H346.023V280H344.559V278.992H344.477C344.242 279.461 343.75 280.117 342.648 280.117ZM343.059 278.887C344.02 278.887 344.57 278.055 344.57 276.812C344.57 275.582 344.031 274.773 343.059 274.773C342.062 274.773 341.547 275.629 341.547 276.812C341.547 278.02 342.074 278.887 343.059 278.887Z" fill="var(--sol-surface)"/>
<path d="M310.458 276.437H306.083V275.562H310.458V271.188H311.333V275.562H315.708V276.437H311.333V280.812H310.458V276.437Z" fill="var(--sol-surface)"/>
<rect width="1" height="32" transform="translate(357 260)" fill="var(--sol-border-normal-variant)"/>
<path d="M358 260H382C385.771 260 387.657 260 388.828 261.172C390 262.343 390 264.229 390 268V284C390 287.771 390 289.657 388.828 290.828C387.657 292 385.771 292 382 292H358V260Z" fill="var(--sol-primary)"/>
<path d="M376.809 274.56L373.309 278.06C373.138 278.231 372.861 278.231 372.69 278.06L369.19 274.56L369.809 273.941L373 277.132L376.19 273.941L376.809 274.56Z" fill="var(--sol-surface)"/>
<path d="M60.916 355V345.102H64.6348C66.9043 345.102 68.1211 346.482 68.1211 348.383C68.1211 350.283 66.8906 351.65 64.6074 351.65H62.6934V355H60.916ZM62.6934 350.188H64.3613C65.7012 350.188 66.3027 349.436 66.3027 348.383C66.3027 347.316 65.7012 346.592 64.3613 346.592H62.6934V350.188ZM69.4746 355V347.576H71.1699V348.807H71.252C71.5117 347.959 72.2363 347.467 73.084 347.467C73.2754 347.467 73.5488 347.48 73.7129 347.508V349.121C73.5625 349.066 73.1934 349.012 72.9062 349.012C71.9355 349.012 71.2246 349.682 71.2246 350.625V355H69.4746ZM77.8145 355.15C75.5723 355.15 74.2051 353.66 74.2051 351.336C74.2051 349.039 75.5996 347.48 77.7188 347.48C79.5371 347.48 81.1094 348.615 81.1094 351.227V351.773H75.9277C75.9482 353.038 76.6934 353.783 77.8281 353.783C78.5938 353.783 79.1133 353.455 79.332 353.018H81.041C80.7266 354.303 79.5371 355.15 77.8145 355.15ZM75.9414 350.584H79.4414C79.4277 349.572 78.7578 348.834 77.7461 348.834C76.6934 348.834 75.9961 349.634 75.9414 350.584ZM86.6738 349.695C86.5645 349.135 86.0996 348.779 85.3613 348.779C84.6094 348.779 84.0625 349.148 84.0762 349.654C84.0625 350.037 84.377 350.324 85.1289 350.502L86.3867 350.762C87.7949 351.076 88.4648 351.719 88.4785 352.785C88.4648 354.18 87.248 355.15 85.3066 355.15C83.4199 355.15 82.2988 354.303 82.1211 352.881H83.8984C84.0078 353.51 84.5 353.824 85.3066 353.824C86.1406 353.824 86.7012 353.482 86.7012 352.936C86.7012 352.512 86.3594 352.238 85.6211 352.074L84.4316 351.814C83.0508 351.541 82.3398 350.816 82.3398 349.75C82.3398 348.383 83.5156 347.48 85.334 347.48C87.1113 347.48 88.2051 348.342 88.3281 349.695H86.6738ZM94.0156 349.695C93.9062 349.135 93.4414 348.779 92.7031 348.779C91.9512 348.779 91.4043 349.148 91.418 349.654C91.4043 350.037 91.7188 350.324 92.4707 350.502L93.7285 350.762C95.1367 351.076 95.8066 351.719 95.8203 352.785C95.8066 354.18 94.5898 355.15 92.6484 355.15C90.7617 355.15 89.6406 354.303 89.4629 352.881H91.2402C91.3496 353.51 91.8418 353.824 92.6484 353.824C93.4824 353.824 94.043 353.482 94.043 352.936C94.043 352.512 93.7012 352.238 92.9629 352.074L91.7734 351.814C90.3926 351.541 89.6816 350.816 89.6816 349.75C89.6816 348.383 90.8574 347.48 92.6758 347.48C94.4531 347.48 95.5469 348.342 95.6699 349.695H94.0156ZM100.441 355.15C98.1992 355.15 96.832 353.66 96.832 351.336C96.832 349.039 98.2266 347.48 100.346 347.48C102.164 347.48 103.736 348.615 103.736 351.227V351.773H98.5547C98.5752 353.038 99.3203 353.783 100.455 353.783C101.221 353.783 101.74 353.455 101.959 353.018H103.668C103.354 354.303 102.164 355.15 100.441 355.15ZM98.5684 350.584H102.068C102.055 349.572 101.385 348.834 100.373 348.834C99.3203 348.834 98.623 349.634 98.5684 350.584ZM107.852 355.137C106.102 355.137 104.789 353.742 104.789 351.295C104.789 348.82 106.143 347.48 107.865 347.48C109.178 347.48 109.725 348.26 109.984 348.793H110.053V345.102H111.789V355H110.08V353.824H109.984C109.711 354.371 109.137 355.137 107.852 355.137ZM108.33 353.701C109.451 353.701 110.094 352.73 110.094 351.281C110.094 349.846 109.465 348.902 108.33 348.902C107.168 348.902 106.566 349.9 106.566 351.281C106.566 352.689 107.182 353.701 108.33 353.701Z" fill="var(--sol-element-quaternary)"/>
<path d="M292 342C292 338.229 292 336.343 293.172 335.172C294.343 334 296.229 334 300 334H357V366H300C296.229 366 294.343 366 293.172 364.828C292 363.657 292 361.771 292 358V342Z" fill="var(--sol-primary)"/>
<path d="M292 338C292 335.791 293.791 334 296 334H357V366H296C293.791 366 292 364.209 292 362V338Z" fill="var(--sol-surface)" fill-opacity="0.12"/>
<path d="M326.043 354H324.414L327.402 345.516H329.277L332.277 354H330.648L329.945 351.902H326.746L326.043 354ZM327.156 350.672H329.535L328.375 347.25H328.305L327.156 350.672ZM335.395 354.117C333.895 354.117 332.77 352.922 332.77 350.824C332.77 348.703 333.93 347.555 335.406 347.555C336.531 347.555 337 348.223 337.223 348.68H337.281V345.516H338.77V354H337.305V352.992H337.223C336.988 353.461 336.496 354.117 335.395 354.117ZM335.805 352.887C336.766 352.887 337.316 352.055 337.316 350.812C337.316 349.582 336.777 348.773 335.805 348.773C334.809 348.773 334.293 349.629 334.293 350.812C334.293 352.02 334.82 352.887 335.805 352.887ZM342.648 354.117C341.148 354.117 340.023 352.922 340.023 350.824C340.023 348.703 341.184 347.555 342.66 347.555C343.785 347.555 344.254 348.223 344.477 348.68H344.535V345.516H346.023V354H344.559V352.992H344.477C344.242 353.461 343.75 354.117 342.648 354.117ZM343.059 352.887C344.02 352.887 344.57 352.055 344.57 350.812C344.57 349.582 344.031 348.773 343.059 348.773C342.062 348.773 341.547 349.629 341.547 350.812C341.547 352.02 342.074 352.887 343.059 352.887Z" fill="var(--sol-surface)"/>
<path d="M310.458 350.437H306.083V349.562H310.458V345.188H311.333V349.562H315.708V350.437H311.333V354.812H310.458V350.437Z" fill="var(--sol-surface)"/>
<rect width="1" height="32" transform="translate(357 334)" fill="var(--sol-border-normal-variant)"/>
<path d="M358 334H382C385.771 334 387.657 334 388.828 335.172C390 336.343 390 338.229 390 342V358C390 361.771 390 363.657 388.828 364.828C387.657 366 385.771 366 382 366H358V334Z" fill="var(--sol-primary)"/>
<path d="M376.809 348.56L373.309 352.06C373.138 352.231 372.861 352.231 372.69 352.06L369.19 348.56L369.809 347.941L373 351.132L376.19 347.941L376.809 348.56Z" fill="var(--sol-surface)"/>
<path d="M64.2793 429H60.916V419.102H64.334C67.2871 419.102 69.0781 420.961 69.0781 424.037C69.0781 427.127 67.2871 429 64.2793 429ZM62.6934 427.455H64.1836C66.248 427.455 67.3008 426.32 67.3008 424.037C67.3008 421.768 66.248 420.646 64.2383 420.646H62.6934V427.455ZM70.5684 429V421.576H72.3184V429H70.5684ZM71.457 420.523C70.9102 420.523 70.4453 420.1 70.4453 419.566C70.4453 419.047 70.9102 418.623 71.457 418.623C72.0176 418.623 72.4688 419.047 72.4688 419.566C72.4688 420.1 72.0176 420.523 71.457 420.523ZM78.1973 423.695C78.0879 423.135 77.623 422.779 76.8848 422.779C76.1328 422.779 75.5859 423.148 75.5996 423.654C75.5859 424.037 75.9004 424.324 76.6523 424.502L77.9102 424.762C79.3184 425.076 79.9883 425.719 80.002 426.785C79.9883 428.18 78.7715 429.15 76.8301 429.15C74.9434 429.15 73.8223 428.303 73.6445 426.881H75.4219C75.5312 427.51 76.0234 427.824 76.8301 427.824C77.6641 427.824 78.2246 427.482 78.2246 426.936C78.2246 426.512 77.8828 426.238 77.1445 426.074L75.9551 425.814C74.5742 425.541 73.8633 424.816 73.8633 423.75C73.8633 422.383 75.0391 421.48 76.8574 421.48C78.6348 421.48 79.7285 422.342 79.8516 423.695H78.1973ZM80.9863 426.908C80.9863 425.24 82.3672 424.748 83.748 424.666C84.2607 424.632 85.3271 424.57 85.6484 424.557V423.969C85.6484 423.23 85.1699 422.807 84.3086 422.807C83.5293 422.807 83.0508 423.162 82.9141 423.695H81.2324C81.3555 422.438 82.4902 421.48 84.3496 421.48C85.7578 421.48 87.3848 422.055 87.3848 424.037V429H85.7168V427.975H85.6621C85.334 428.604 84.6367 429.15 83.4746 429.15C82.0527 429.15 80.9863 428.371 80.9863 426.908ZM82.668 426.895C82.668 427.537 83.1875 427.865 83.9258 427.865C84.9785 427.865 85.6621 427.168 85.6621 426.334V425.719L84.0215 425.828C83.1875 425.896 82.668 426.238 82.668 426.895ZM89.1074 429V419.102H90.8574V422.793H90.9258C91.1992 422.26 91.7324 421.48 93.0449 421.48C94.7676 421.48 96.1211 422.82 96.1211 425.295C96.1211 427.742 94.7949 429.137 93.0586 429.137C91.7734 429.137 91.1992 428.371 90.9258 427.824H90.8164V429H89.1074ZM90.8164 425.281C90.8164 426.73 91.4453 427.701 92.5664 427.701C93.7285 427.701 94.3438 426.689 94.3438 425.281C94.3438 423.9 93.7422 422.902 92.5664 422.902C91.4453 422.902 90.8164 423.846 90.8164 425.281ZM99.2383 419.102V429H97.4883V419.102H99.2383ZM104.201 429.15C101.959 429.15 100.592 427.66 100.592 425.336C100.592 423.039 101.986 421.48 104.105 421.48C105.924 421.48 107.496 422.615 107.496 425.227V425.773H102.314C102.335 427.038 103.08 427.783 104.215 427.783C104.98 427.783 105.5 427.455 105.719 427.018H107.428C107.113 428.303 105.924 429.15 104.201 429.15ZM102.328 424.584H105.828C105.814 423.572 105.145 422.834 104.133 422.834C103.08 422.834 102.383 423.634 102.328 424.584ZM111.611 429.137C109.861 429.137 108.549 427.742 108.549 425.295C108.549 422.82 109.902 421.48 111.625 421.48C112.938 421.48 113.484 422.26 113.744 422.793H113.812V419.102H115.549V429H113.84V427.824H113.744C113.471 428.371 112.896 429.137 111.611 429.137ZM112.09 427.701C113.211 427.701 113.854 426.73 113.854 425.281C113.854 423.846 113.225 422.902 112.09 422.902C110.928 422.902 110.326 423.9 110.326 425.281C110.326 426.689 110.941 427.701 112.09 427.701Z" fill="var(--sol-element-quaternary)"/>
<path d="M292 416C292 412.229 292 410.343 293.172 409.172C294.343 408 296.229 408 300 408H357V440H300C296.229 440 294.343 440 293.172 438.828C292 437.657 292 435.771 292 432V416Z" fill="var(--sol-element-primary)" fill-opacity="0.08"/>
<path d="M326.043 428H324.414L327.402 419.516H329.277L332.277 428H330.648L329.945 425.902H326.746L326.043 428ZM327.156 424.672H329.535L328.375 421.25H328.305L327.156 424.672ZM335.395 428.117C333.895 428.117 332.77 426.922 332.77 424.824C332.77 422.703 333.93 421.555 335.406 421.555C336.531 421.555 337 422.223 337.223 422.68H337.281V419.516H338.77V428H337.305V426.992H337.223C336.988 427.461 336.496 428.117 335.395 428.117ZM335.805 426.887C336.766 426.887 337.316 426.055 337.316 424.812C337.316 423.582 336.777 422.773 335.805 422.773C334.809 422.773 334.293 423.629 334.293 424.812C334.293 426.02 334.82 426.887 335.805 426.887ZM342.648 428.117C341.148 428.117 340.023 426.922 340.023 424.824C340.023 422.703 341.184 421.555 342.66 421.555C343.785 421.555 344.254 422.223 344.477 422.68H344.535V419.516H346.023V428H344.559V426.992H344.477C344.242 427.461 343.75 428.117 342.648 428.117ZM343.059 426.887C344.02 426.887 344.57 426.055 344.57 424.812C344.57 423.582 344.031 422.773 343.059 422.773C342.062 422.773 341.547 423.629 341.547 424.812C341.547 426.02 342.074 426.887 343.059 426.887Z" fill="var(--sol-element-primary)" fill-opacity="0.3"/>
<path d="M310.458 424.437H306.083V423.562H310.458V419.188H311.333V423.562H315.708V424.437H311.333V428.812H310.458V424.437Z" fill="var(--sol-element-primary)" fill-opacity="0.3"/>
<rect width="1" height="32" transform="translate(357 408)" fill="var(--sol-border-normal-variant)"/>
<path d="M358 408H382C385.771 408 387.657 408 388.828 409.172C390 410.343 390 412.229 390 416V432C390 435.771 390 437.657 388.828 438.828C387.657 440 385.771 440 382 440H358V408Z" fill="var(--sol-element-primary)" fill-opacity="0.08"/>
<path d="M376.809 422.56L373.309 426.06C373.138 426.231 372.861 426.231 372.69 426.06L369.19 422.56L369.809 421.941L373 425.132L376.19 421.941L376.809 422.56Z" fill="var(--sol-element-primary)" fill-opacity="0.3"/>
<mask id="path-41-inside-2_1670_180449" fill="var(--sol-static-white)">
<path d="M450 0H900V500H450V0Z"/>
</mask>
<path d="M450 500H451V0H450H449V500H450Z" fill="var(--sol-border-solid-variant)" mask="url(#path-41-inside-2_1670_180449)"/>
<path d="M514.891 65H511.047V53.6875H514.953C518.328 53.6875 520.375 55.8125 520.375 59.3281C520.375 62.8594 518.328 65 514.891 65ZM513.078 63.2344H514.781C517.141 63.2344 518.344 61.9375 518.344 59.3281C518.344 56.7344 517.141 55.4531 514.844 55.4531H513.078V63.2344ZM522.078 65V56.5156H524.016V57.9219H524.109C524.406 56.9531 525.234 56.3906 526.203 56.3906C526.422 56.3906 526.734 56.4062 526.922 56.4375V58.2812C526.75 58.2188 526.328 58.1562 526 58.1562C524.891 58.1562 524.078 58.9219 524.078 60V65H522.078ZM531.547 65.1719C529.078 65.1719 527.484 63.4219 527.484 60.7969C527.484 58.1562 529.078 56.4062 531.547 56.4062C534.031 56.4062 535.609 58.1562 535.609 60.7969C535.609 63.4219 534.031 65.1719 531.547 65.1719ZM531.562 63.5781C532.922 63.5781 533.594 62.3438 533.594 60.7812C533.594 59.2344 532.922 57.9844 531.562 57.9844C530.172 57.9844 529.5 59.2344 529.5 60.7812C529.5 62.3438 530.172 63.5781 531.562 63.5781ZM537.156 68.1875V56.5156H539.109V57.9062H539.234C539.547 57.2969 540.172 56.4062 541.672 56.4062C543.625 56.4062 545.172 57.9375 545.172 60.7656C545.172 63.5625 543.672 65.1562 541.672 65.1562C540.203 65.1562 539.547 64.2812 539.234 63.6562H539.156V68.1875H537.156ZM539.109 60.75C539.109 62.4062 539.828 63.5156 541.125 63.5156C542.438 63.5156 543.141 62.3594 543.141 60.75C543.141 59.1719 542.453 58.0312 541.125 58.0312C539.828 58.0312 539.109 59.1094 539.109 60.75ZM549.891 65.1562C547.891 65.1562 546.391 63.5625 546.391 60.7656C546.391 57.9375 547.938 56.4062 549.906 56.4062C551.406 56.4062 552.031 57.2969 552.328 57.9062H552.406V53.6875H554.391V65H552.438V63.6562H552.328C552.016 64.2812 551.359 65.1562 549.891 65.1562ZM550.438 63.5156C551.719 63.5156 552.453 62.4062 552.453 60.75C552.453 59.1094 551.734 58.0312 550.438 58.0312C549.109 58.0312 548.422 59.1719 548.422 60.75C548.422 62.3594 549.125 63.5156 550.438 63.5156ZM560.109 65.1719C557.641 65.1719 556.047 63.4219 556.047 60.7969C556.047 58.1562 557.641 56.4062 560.109 56.4062C562.594 56.4062 564.172 58.1562 564.172 60.7969C564.172 63.4219 562.594 65.1719 560.109 65.1719ZM560.125 63.5781C561.484 63.5781 562.156 62.3438 562.156 60.7812C562.156 59.2344 561.484 57.9844 560.125 57.9844C558.734 57.9844 558.062 59.2344 558.062 60.7812C558.062 62.3438 558.734 63.5781 560.125 63.5781ZM567.25 65L564.844 56.5156H566.875L568.375 62.4844H568.453L569.969 56.5156H571.984L573.516 62.4531H573.594L575.078 56.5156H577.109L574.703 65H572.625L571.031 59.25H570.922L569.328 65H567.25ZM580.375 60.0312V65H578.375V56.5156H580.281V57.9531H580.391C580.781 57 581.641 56.4062 582.906 56.4062C584.672 56.4062 585.828 57.5625 585.812 59.5938V65H583.828V59.9062C583.828 58.7656 583.219 58.0938 582.172 58.0938C581.109 58.0938 580.375 58.7969 580.375 60.0312ZM591.516 65V56.5156H593.422V57.9531H593.531C593.875 56.9844 594.734 56.4062 595.859 56.4062C597.016 56.4062 597.828 56.9844 598.156 57.9531H598.25C598.625 57.0156 599.562 56.4062 600.797 56.4062C602.344 56.4062 603.438 57.4062 603.438 59.2969V65H601.453V59.6094C601.453 58.5469 600.812 58.0781 600 58.0781C599.016 58.0781 598.453 58.75 598.453 59.7031V65H596.516V59.5312C596.516 58.6562 595.922 58.0781 595.078 58.0781C594.219 58.0781 593.516 58.7812 593.516 59.8438V65H591.516ZM609.109 65.1719C606.547 65.1719 604.984 63.4688 604.984 60.8125C604.984 58.1875 606.578 56.4062 609 56.4062C611.078 56.4062 612.875 57.7031 612.875 60.6875V61.3125H606.953C606.977 62.7578 607.828 63.6094 609.125 63.6094C610 63.6094 610.594 63.2344 610.844 62.7344H612.797C612.438 64.2031 611.078 65.1719 609.109 65.1719ZM606.969 59.9531H610.969C610.953 58.7969 610.188 57.9531 609.031 57.9531C607.828 57.9531 607.031 58.8672 606.969 59.9531ZM616.422 60.0312V65H614.422V56.5156H616.328V57.9531H616.438C616.828 57 617.688 56.4062 618.953 56.4062C620.719 56.4062 621.875 57.5625 621.859 59.5938V65H619.875V59.9062C619.875 58.7656 619.266 58.0938 618.219 58.0938C617.156 58.0938 616.422 58.7969 616.422 60.0312ZM629.188 61.4375V56.5156H631.172V65H629.25V63.5H629.156C628.766 64.4375 627.875 65.1094 626.609 65.1094C624.938 65.1094 623.781 63.9531 623.766 61.9219V56.5156H625.766V61.6094C625.766 62.6875 626.406 63.375 627.375 63.375C628.25 63.375 629.188 62.7344 629.188 61.4375ZM636.875 65V56.5156H638.875V65H636.875ZM637.891 55.3125C637.266 55.3125 636.734 54.8281 636.734 54.2188C636.734 53.625 637.266 53.1406 637.891 53.1406C638.531 53.1406 639.047 53.625 639.047 54.2188C639.047 54.8281 638.531 55.3125 637.891 55.3125ZM644.484 65.1719C641.953 65.1719 640.422 63.3594 640.422 60.7969C640.422 58.2031 642 56.4062 644.484 56.4062C646.547 56.4062 647.984 57.6094 648.125 59.4375H646.219C646.062 58.625 645.469 58 644.5 58C643.266 58 642.438 59.0469 642.438 60.75C642.438 62.5 643.25 63.5469 644.5 63.5469C645.391 63.5469 646.047 63.0312 646.219 62.1094H648.125C647.969 63.9062 646.609 65.1719 644.484 65.1719ZM653.328 65.1719C650.859 65.1719 649.266 63.4219 649.266 60.7969C649.266 58.1562 650.859 56.4062 653.328 56.4062C655.812 56.4062 657.391 58.1562 657.391 60.7969C657.391 63.4219 655.812 65.1719 653.328 65.1719ZM653.344 63.5781C654.703 63.5781 655.375 62.3438 655.375 60.7812C655.375 59.2344 654.703 57.9844 653.344 57.9844C651.953 57.9844 651.281 59.2344 651.281 60.7812C651.281 62.3438 651.953 63.5781 653.344 63.5781ZM660.938 60.0312V65H658.938V56.5156H660.844V57.9531H660.953C661.344 57 662.203 56.4062 663.469 56.4062C665.234 56.4062 666.391 57.5625 666.375 59.5938V65H664.391V59.9062C664.391 58.7656 663.781 58.0938 662.734 58.0938C661.672 58.0938 660.938 58.7969 660.938 60.0312ZM672.172 65V53.6875H674.172V57.9062H674.25C674.562 57.2969 675.172 56.4062 676.672 56.4062C678.641 56.4062 680.188 57.9375 680.188 60.7656C680.188 63.5625 678.672 65.1562 676.688 65.1562C675.219 65.1562 674.562 64.2812 674.25 63.6562H674.125V65H672.172ZM674.125 60.75C674.125 62.4062 674.844 63.5156 676.125 63.5156C677.453 63.5156 678.156 62.3594 678.156 60.75C678.156 59.1719 677.469 58.0312 676.125 58.0312C674.844 58.0312 674.125 59.1094 674.125 60.75ZM687.172 61.4375V56.5156H689.156V65H687.234V63.5H687.141C686.75 64.4375 685.859 65.1094 684.594 65.1094C682.922 65.1094 681.766 63.9531 681.75 61.9219V56.5156H683.75V61.6094C683.75 62.6875 684.391 63.375 685.359 63.375C686.234 63.375 687.172 62.7344 687.172 61.4375ZM695.297 56.5156V58.0469H693.625V62.4531C693.625 63.2656 694.031 63.4375 694.531 63.4375C694.766 63.4375 695.156 63.4219 695.406 63.4062V65.0312C695.172 65.0781 694.781 65.1094 694.281 65.1094C692.781 65.1094 691.625 64.375 691.641 62.7812V58.0469H690.422V56.5156H691.641V54.4844H693.625V56.5156H695.297ZM701.062 56.5156V58.0469H699.391V62.4531C699.391 63.2656 699.797 63.4375 700.297 63.4375C700.531 63.4375 700.922 63.4219 701.172 63.4062V65.0312C700.938 65.0781 700.547 65.1094 700.047 65.1094C698.547 65.1094 697.391 64.375 697.406 62.7812V58.0469H696.188V56.5156H697.406V54.4844H699.391V56.5156H701.062ZM706.219 65.1719C703.75 65.1719 702.156 63.4219 702.156 60.7969C702.156 58.1562 703.75 56.4062 706.219 56.4062C708.703 56.4062 710.281 58.1562 710.281 60.7969C710.281 63.4219 708.703 65.1719 706.219 65.1719ZM706.234 63.5781C707.594 63.5781 708.266 62.3438 708.266 60.7812C708.266 59.2344 707.594 57.9844 706.234 57.9844C704.844 57.9844 704.172 59.2344 704.172 60.7812C704.172 62.3438 704.844 63.5781 706.234 63.5781ZM713.828 60.0312V65H711.828V56.5156H713.734V57.9531H713.844C714.234 57 715.094 56.4062 716.359 56.4062C718.125 56.4062 719.281 57.5625 719.266 59.5938V65H717.281V59.9062C717.281 58.7656 716.672 58.0938 715.625 58.0938C714.562 58.0938 713.828 58.7969 713.828 60.0312Z" fill="var(--sol-element-primary)"/>
<path d="M510.916 133V123.102H517.355V124.592H512.693V127.299H517.014V128.789H512.693V131.496H517.383V133H510.916ZM520.732 128.652V133H518.982V125.576H520.65V126.834H520.746C521.088 126 521.84 125.48 522.947 125.48C524.492 125.48 525.504 126.492 525.49 128.27V133H523.754V128.543C523.754 127.545 523.221 126.957 522.305 126.957C521.375 126.957 520.732 127.572 520.732 128.652ZM526.816 130.908C526.816 129.24 528.197 128.748 529.578 128.666C530.091 128.632 531.157 128.57 531.479 128.557V127.969C531.479 127.23 531 126.807 530.139 126.807C529.359 126.807 528.881 127.162 528.744 127.695H527.062C527.186 126.438 528.32 125.48 530.18 125.48C531.588 125.48 533.215 126.055 533.215 128.037V133H531.547V131.975H531.492C531.164 132.604 530.467 133.15 529.305 133.15C527.883 133.15 526.816 132.371 526.816 130.908ZM528.498 130.895C528.498 131.537 529.018 131.865 529.756 131.865C530.809 131.865 531.492 131.168 531.492 130.334V129.719L529.852 129.828C529.018 129.896 528.498 130.238 528.498 130.895ZM534.938 133V123.102H536.688V126.793H536.756C537.029 126.26 537.562 125.48 538.875 125.48C540.598 125.48 541.951 126.82 541.951 129.295C541.951 131.742 540.625 133.137 538.889 133.137C537.604 133.137 537.029 132.371 536.756 131.824H536.646V133H534.938ZM536.646 129.281C536.646 130.73 537.275 131.701 538.396 131.701C539.559 131.701 540.174 130.689 540.174 129.281C540.174 127.9 539.572 126.902 538.396 126.902C537.275 126.902 536.646 127.846 536.646 129.281ZM545.068 123.102V133H543.318V123.102H545.068ZM550.031 133.15C547.789 133.15 546.422 131.66 546.422 129.336C546.422 127.039 547.816 125.48 549.936 125.48C551.754 125.48 553.326 126.615 553.326 129.227V129.773H548.145C548.165 131.038 548.91 131.783 550.045 131.783C550.811 131.783 551.33 131.455 551.549 131.018H553.258C552.943 132.303 551.754 133.15 550.031 133.15ZM548.158 128.584H551.658C551.645 127.572 550.975 126.834 549.963 126.834C548.91 126.834 548.213 127.634 548.158 128.584ZM557.441 133.137C555.691 133.137 554.379 131.742 554.379 129.295C554.379 126.82 555.732 125.48 557.455 125.48C558.768 125.48 559.314 126.26 559.574 126.793H559.643V123.102H561.379V133H559.67V131.824H559.574C559.301 132.371 558.727 133.137 557.441 133.137ZM557.92 131.701C559.041 131.701 559.684 130.73 559.684 129.281C559.684 127.846 559.055 126.902 557.92 126.902C556.758 126.902 556.156 127.9 556.156 129.281C556.156 130.689 556.771 131.701 557.92 131.701Z" fill="var(--sol-element-quaternary)"/>
<path d="M742 120C742 116.229 742 114.343 743.172 113.172C744.343 112 746.229 112 750 112H807V144H750C746.229 144 744.343 144 743.172 142.828C742 141.657 742 139.771 742 136V120Z" fill="var(--sol-primary)"/>
<path d="M776.043 132H774.414L777.402 123.516H779.277L782.277 132H780.648L779.945 129.902H776.746L776.043 132ZM777.156 128.672H779.535L778.375 125.25H778.305L777.156 128.672ZM785.395 132.117C783.895 132.117 782.77 130.922 782.77 128.824C782.77 126.703 783.93 125.555 785.406 125.555C786.531 125.555 787 126.223 787.223 126.68H787.281V123.516H788.77V132H787.305V130.992H787.223C786.988 131.461 786.496 132.117 785.395 132.117ZM785.805 130.887C786.766 130.887 787.316 130.055 787.316 128.812C787.316 127.582 786.777 126.773 785.805 126.773C784.809 126.773 784.293 127.629 784.293 128.812C784.293 130.02 784.82 130.887 785.805 130.887ZM792.648 132.117C791.148 132.117 790.023 130.922 790.023 128.824C790.023 126.703 791.184 125.555 792.66 125.555C793.785 125.555 794.254 126.223 794.477 126.68H794.535V123.516H796.023V132H794.559V130.992H794.477C794.242 131.461 793.75 132.117 792.648 132.117ZM793.059 130.887C794.02 130.887 794.57 130.055 794.57 128.812C794.57 127.582 794.031 126.773 793.059 126.773C792.062 126.773 791.547 127.629 791.547 128.812C791.547 130.02 792.074 130.887 793.059 130.887Z" fill="var(--sol-surface)"/>
<path d="M760.458 128.437H756.083V127.562H760.458V123.188H761.333V127.562H765.708V128.437H761.333V132.812H760.458V128.437Z" fill="var(--sol-surface)"/>
<rect width="1" height="32" transform="translate(807 112)" fill="var(--sol-border-normal-variant)"/>
<path d="M808 112H832C835.771 112 837.657 112 838.828 113.172C840 114.343 840 116.229 840 120V136C840 139.771 840 141.657 838.828 142.828C837.657 144 835.771 144 832 144H808V112Z" fill="var(--sol-primary)"/>
<path d="M826.809 126.56L823.309 130.06C823.138 130.231 822.861 130.231 822.69 130.06L819.19 126.56L819.809 125.941L823 129.132L826.19 125.941L826.809 126.56Z" fill="var(--sol-surface)"/>
<path d="M510.916 207V197.102H512.693V201.299H517.301V197.102H519.092V207H517.301V202.789H512.693V207H510.916ZM524.082 207.15C521.922 207.15 520.527 205.619 520.527 203.322C520.527 201.012 521.922 199.48 524.082 199.48C526.256 199.48 527.637 201.012 527.637 203.322C527.637 205.619 526.256 207.15 524.082 207.15ZM524.096 205.756C525.285 205.756 525.873 204.676 525.873 203.309C525.873 201.955 525.285 200.861 524.096 200.861C522.879 200.861 522.291 201.955 522.291 203.309C522.291 204.676 522.879 205.756 524.096 205.756ZM535.375 199.576L532.723 207H530.809L528.156 199.576H530.016L531.725 205.1H531.807L533.529 199.576H535.375ZM539.518 207.15C537.275 207.15 535.908 205.66 535.908 203.336C535.908 201.039 537.303 199.48 539.422 199.48C541.24 199.48 542.812 200.615 542.812 203.227V203.773H537.631C537.651 205.038 538.396 205.783 539.531 205.783C540.297 205.783 540.816 205.455 541.035 205.018H542.744C542.43 206.303 541.24 207.15 539.518 207.15ZM537.645 202.584H541.145C541.131 201.572 540.461 200.834 539.449 200.834C538.396 200.834 537.699 201.634 537.645 202.584ZM544.166 207V199.576H545.861V200.807H545.943C546.203 199.959 546.928 199.467 547.775 199.467C547.967 199.467 548.24 199.48 548.404 199.508V201.121C548.254 201.066 547.885 201.012 547.598 201.012C546.627 201.012 545.916 201.682 545.916 202.625V207H544.166Z" fill="var(--sol-element-quaternary)"/>
<path d="M742 194C742 190.229 742 188.343 743.172 187.172C744.343 186 746.229 186 750 186H807V218H750C746.229 218 744.343 218 743.172 216.828C742 215.657 742 213.771 742 210V194Z" fill="var(--sol-primary)"/>
<path d="M776.043 206H774.414L777.402 197.516H779.277L782.277 206H780.648L779.945 203.902H776.746L776.043 206ZM777.156 202.672H779.535L778.375 199.25H778.305L777.156 202.672ZM785.395 206.117C783.895 206.117 782.77 204.922 782.77 202.824C782.77 200.703 783.93 199.555 785.406 199.555C786.531 199.555 787 200.223 787.223 200.68H787.281V197.516H788.77V206H787.305V204.992H787.223C786.988 205.461 786.496 206.117 785.395 206.117ZM785.805 204.887C786.766 204.887 787.316 204.055 787.316 202.812C787.316 201.582 786.777 200.773 785.805 200.773C784.809 200.773 784.293 201.629 784.293 202.812C784.293 204.02 784.82 204.887 785.805 204.887ZM792.648 206.117C791.148 206.117 790.023 204.922 790.023 202.824C790.023 200.703 791.184 199.555 792.66 199.555C793.785 199.555 794.254 200.223 794.477 200.68H794.535V197.516H796.023V206H794.559V204.992H794.477C794.242 205.461 793.75 206.117 792.648 206.117ZM793.059 204.887C794.02 204.887 794.57 204.055 794.57 202.812C794.57 201.582 794.031 200.773 793.059 200.773C792.062 200.773 791.547 201.629 791.547 202.812C791.547 204.02 792.074 204.887 793.059 204.887Z" fill="var(--sol-surface)"/>
<path d="M760.458 202.437H756.083V201.562H760.458V197.188H761.333V201.562H765.708V202.437H761.333V206.812H760.458V202.437Z" fill="var(--sol-surface)"/>
<rect width="1" height="32" transform="translate(807 186)" fill="var(--sol-border-normal-variant)"/>
<path d="M808 186H832C835.771 186 837.657 186 838.828 187.172C840 188.343 840 190.229 840 194V210C840 213.771 840 215.657 838.828 216.828C837.657 218 835.771 218 832 218H808V186Z" fill="var(--sol-primary)"/>
<path d="M808 186H836C838.209 186 840 187.791 840 190V214C840 216.209 838.209 218 836 218H808V186Z" fill="var(--sol-surface)" fill-opacity="0.08"/>
<path d="M826.809 200.56L823.309 204.06C823.138 204.231 822.861 204.231 822.69 204.06L819.19 200.56L819.809 199.941L823 203.132L826.19 199.941L826.809 200.56Z" fill="var(--sol-surface)"/>
<path d="M510.916 281V271.102H517.26V272.592H512.693V275.299H516.822V276.789H512.693V281H510.916ZM521.389 281.15C519.229 281.15 517.834 279.619 517.834 277.322C517.834 275.012 519.229 273.48 521.389 273.48C523.562 273.48 524.943 275.012 524.943 277.322C524.943 279.619 523.562 281.15 521.389 281.15ZM521.402 279.756C522.592 279.756 523.18 278.676 523.18 277.309C523.18 275.955 522.592 274.861 521.402 274.861C520.186 274.861 519.598 275.955 519.598 277.309C519.598 278.676 520.186 279.756 521.402 279.756ZM529.537 281.15C527.322 281.15 525.982 279.564 525.982 277.322C525.982 275.053 527.363 273.48 529.537 273.48C531.342 273.48 532.6 274.533 532.723 276.133H531.055C530.918 275.422 530.398 274.875 529.551 274.875C528.471 274.875 527.746 275.791 527.746 277.281C527.746 278.812 528.457 279.729 529.551 279.729C530.33 279.729 530.904 279.277 531.055 278.471H532.723C532.586 280.043 531.396 281.15 529.537 281.15ZM538.779 277.883V273.576H540.516V281H538.834V279.688H538.752C538.41 280.508 537.631 281.096 536.523 281.096C535.061 281.096 534.049 280.084 534.035 278.307V273.576H535.785V278.033C535.785 278.977 536.346 279.578 537.193 279.578C537.959 279.578 538.779 279.018 538.779 277.883ZM546.395 275.695C546.285 275.135 545.82 274.779 545.082 274.779C544.33 274.779 543.783 275.148 543.797 275.654C543.783 276.037 544.098 276.324 544.85 276.502L546.107 276.762C547.516 277.076 548.186 277.719 548.199 278.785C548.186 280.18 546.969 281.15 545.027 281.15C543.141 281.15 542.02 280.303 541.842 278.881H543.619C543.729 279.51 544.221 279.824 545.027 279.824C545.861 279.824 546.422 279.482 546.422 278.936C546.422 278.512 546.08 278.238 545.342 278.074L544.152 277.814C542.771 277.541 542.061 276.816 542.061 275.75C542.061 274.383 543.236 273.48 545.055 273.48C546.832 273.48 547.926 274.342 548.049 275.695H546.395ZM552.82 281.15C550.578 281.15 549.211 279.66 549.211 277.336C549.211 275.039 550.605 273.48 552.725 273.48C554.543 273.48 556.115 274.615 556.115 277.227V277.773H550.934C550.954 279.038 551.699 279.783 552.834 279.783C553.6 279.783 554.119 279.455 554.338 279.018H556.047C555.732 280.303 554.543 281.15 552.82 281.15ZM550.947 276.584H554.447C554.434 275.572 553.764 274.834 552.752 274.834C551.699 274.834 551.002 275.634 550.947 276.584ZM560.23 281.137C558.48 281.137 557.168 279.742 557.168 277.295C557.168 274.82 558.521 273.48 560.244 273.48C561.557 273.48 562.104 274.26 562.363 274.793H562.432V271.102H564.168V281H562.459V279.824H562.363C562.09 280.371 561.516 281.137 560.23 281.137ZM560.709 279.701C561.83 279.701 562.473 278.73 562.473 277.281C562.473 275.846 561.844 274.902 560.709 274.902C559.547 274.902 558.945 275.9 558.945 277.281C558.945 278.689 559.561 279.701 560.709 279.701Z" fill="var(--sol-element-quaternary)"/>
<path d="M742 268C742 264.229 742 262.343 743.172 261.172C744.343 260 746.229 260 750 260H807V292H750C746.229 292 744.343 292 743.172 290.828C742 289.657 742 287.771 742 284V268Z" fill="var(--sol-primary)"/>
<path d="M776.043 280H774.414L777.402 271.516H779.277L782.277 280H780.648L779.945 277.902H776.746L776.043 280ZM777.156 276.672H779.535L778.375 273.25H778.305L777.156 276.672ZM785.395 280.117C783.895 280.117 782.77 278.922 782.77 276.824C782.77 274.703 783.93 273.555 785.406 273.555C786.531 273.555 787 274.223 787.223 274.68H787.281V271.516H788.77V280H787.305V278.992H787.223C786.988 279.461 786.496 280.117 785.395 280.117ZM785.805 278.887C786.766 278.887 787.316 278.055 787.316 276.812C787.316 275.582 786.777 274.773 785.805 274.773C784.809 274.773 784.293 275.629 784.293 276.812C784.293 278.02 784.82 278.887 785.805 278.887ZM792.648 280.117C791.148 280.117 790.023 278.922 790.023 276.824C790.023 274.703 791.184 273.555 792.66 273.555C793.785 273.555 794.254 274.223 794.477 274.68H794.535V271.516H796.023V280H794.559V278.992H794.477C794.242 279.461 793.75 280.117 792.648 280.117ZM793.059 278.887C794.02 278.887 794.57 278.055 794.57 276.812C794.57 275.582 794.031 274.773 793.059 274.773C792.062 274.773 791.547 275.629 791.547 276.812C791.547 278.02 792.074 278.887 793.059 278.887Z" fill="var(--sol-surface)"/>
<path d="M760.458 276.437H756.083V275.562H760.458V271.188H761.333V275.562H765.708V276.437H761.333V280.812H760.458V276.437Z" fill="var(--sol-surface)"/>
<rect width="1" height="32" transform="translate(807 260)" fill="var(--sol-border-normal-variant)"/>
<path d="M808 260H832C835.771 260 837.657 260 838.828 261.172C840 262.343 840 264.229 840 268V284C840 287.771 840 289.657 838.828 290.828C837.657 292 835.771 292 832 292H808V260Z" fill="var(--sol-primary)"/>
<mask id="path-65-outside-3_1670_180449" maskUnits="userSpaceOnUse" x="804" y="256" width="40" height="40" fill="var(--sol-static-black)">
<rect fill="var(--sol-surface)" x="804" y="256" width="40" height="40"/>
<path d="M806 258H836C839.314 258 842 260.686 842 264V288C842 291.314 839.314 294 836 294H806V258Z"/>
</mask>
<path d="M806 258V256H804V258H806ZM806 294H804V296H806V294ZM806 258V260H836V258V256H806V258ZM842 264H840V288H842H844V264H842ZM836 294V292H806V294V296H836V294ZM806 294H808V258H806H804V294H806ZM842 288H840C840 290.209 838.209 292 836 292V294V296C840.418 296 844 292.418 844 288H842ZM836 258V260C838.209 260 840 261.791 840 264H842H844C844 259.582 840.418 256 836 256V258Z" fill="var(--sol-primary)" mask="url(#path-65-outside-3_1670_180449)"/>
<path d="M826.809 274.56L823.309 278.06C823.138 278.231 822.861 278.231 822.69 278.06L819.19 274.56L819.809 273.941L823 277.132L826.19 273.941L826.809 274.56Z" fill="var(--sol-surface)"/>
<path d="M510.916 355V345.102H514.635C516.904 345.102 518.121 346.482 518.121 348.383C518.121 350.283 516.891 351.65 514.607 351.65H512.693V355H510.916ZM512.693 350.188H514.361C515.701 350.188 516.303 349.436 516.303 348.383C516.303 347.316 515.701 346.592 514.361 346.592H512.693V350.188ZM519.475 355V347.576H521.17V348.807H521.252C521.512 347.959 522.236 347.467 523.084 347.467C523.275 347.467 523.549 347.48 523.713 347.508V349.121C523.562 349.066 523.193 349.012 522.906 349.012C521.936 349.012 521.225 349.682 521.225 350.625V355H519.475ZM527.814 355.15C525.572 355.15 524.205 353.66 524.205 351.336C524.205 349.039 525.6 347.48 527.719 347.48C529.537 347.48 531.109 348.615 531.109 351.227V351.773H525.928C525.948 353.038 526.693 353.783 527.828 353.783C528.594 353.783 529.113 353.455 529.332 353.018H531.041C530.727 354.303 529.537 355.15 527.814 355.15ZM525.941 350.584H529.441C529.428 349.572 528.758 348.834 527.746 348.834C526.693 348.834 525.996 349.634 525.941 350.584ZM536.674 349.695C536.564 349.135 536.1 348.779 535.361 348.779C534.609 348.779 534.062 349.148 534.076 349.654C534.062 350.037 534.377 350.324 535.129 350.502L536.387 350.762C537.795 351.076 538.465 351.719 538.479 352.785C538.465 354.18 537.248 355.15 535.307 355.15C533.42 355.15 532.299 354.303 532.121 352.881H533.898C534.008 353.51 534.5 353.824 535.307 353.824C536.141 353.824 536.701 353.482 536.701 352.936C536.701 352.512 536.359 352.238 535.621 352.074L534.432 351.814C533.051 351.541 532.34 350.816 532.34 349.75C532.34 348.383 533.516 347.48 535.334 347.48C537.111 347.48 538.205 348.342 538.328 349.695H536.674ZM544.016 349.695C543.906 349.135 543.441 348.779 542.703 348.779C541.951 348.779 541.404 349.148 541.418 349.654C541.404 350.037 541.719 350.324 542.471 350.502L543.729 350.762C545.137 351.076 545.807 351.719 545.82 352.785C545.807 354.18 544.59 355.15 542.648 355.15C540.762 355.15 539.641 354.303 539.463 352.881H541.24C541.35 353.51 541.842 353.824 542.648 353.824C543.482 353.824 544.043 353.482 544.043 352.936C544.043 352.512 543.701 352.238 542.963 352.074L541.773 351.814C540.393 351.541 539.682 350.816 539.682 349.75C539.682 348.383 540.857 347.48 542.676 347.48C544.453 347.48 545.547 348.342 545.67 349.695H544.016ZM550.441 355.15C548.199 355.15 546.832 353.66 546.832 351.336C546.832 349.039 548.227 347.48 550.346 347.48C552.164 347.48 553.736 348.615 553.736 351.227V351.773H548.555C548.575 353.038 549.32 353.783 550.455 353.783C551.221 353.783 551.74 353.455 551.959 353.018H553.668C553.354 354.303 552.164 355.15 550.441 355.15ZM548.568 350.584H552.068C552.055 349.572 551.385 348.834 550.373 348.834C549.32 348.834 548.623 349.634 548.568 350.584ZM557.852 355.137C556.102 355.137 554.789 353.742 554.789 351.295C554.789 348.82 556.143 347.48 557.865 347.48C559.178 347.48 559.725 348.26 559.984 348.793H560.053V345.102H561.789V355H560.08V353.824H559.984C559.711 354.371 559.137 355.137 557.852 355.137ZM558.33 353.701C559.451 353.701 560.094 352.73 560.094 351.281C560.094 349.846 559.465 348.902 558.33 348.902C557.168 348.902 556.566 349.9 556.566 351.281C556.566 352.689 557.182 353.701 558.33 353.701Z" fill="var(--sol-element-quaternary)"/>
<path d="M742 342C742 338.229 742 336.343 743.172 335.172C744.343 334 746.229 334 750 334H807V366H750C746.229 366 744.343 366 743.172 364.828C742 363.657 742 361.771 742 358V342Z" fill="var(--sol-primary)"/>
<path d="M776.043 354H774.414L777.402 345.516H779.277L782.277 354H780.648L779.945 351.902H776.746L776.043 354ZM777.156 350.672H779.535L778.375 347.25H778.305L777.156 350.672ZM785.395 354.117C783.895 354.117 782.77 352.922 782.77 350.824C782.77 348.703 783.93 347.555 785.406 347.555C786.531 347.555 787 348.223 787.223 348.68H787.281V345.516H788.77V354H787.305V352.992H787.223C786.988 353.461 786.496 354.117 785.395 354.117ZM785.805 352.887C786.766 352.887 787.316 352.055 787.316 350.812C787.316 349.582 786.777 348.773 785.805 348.773C784.809 348.773 784.293 349.629 784.293 350.812C784.293 352.02 784.82 352.887 785.805 352.887ZM792.648 354.117C791.148 354.117 790.023 352.922 790.023 350.824C790.023 348.703 791.184 347.555 792.66 347.555C793.785 347.555 794.254 348.223 794.477 348.68H794.535V345.516H796.023V354H794.559V352.992H794.477C794.242 353.461 793.75 354.117 792.648 354.117ZM793.059 352.887C794.02 352.887 794.57 352.055 794.57 350.812C794.57 349.582 794.031 348.773 793.059 348.773C792.062 348.773 791.547 349.629 791.547 350.812C791.547 352.02 792.074 352.887 793.059 352.887Z" fill="var(--sol-surface)"/>
<path d="M760.458 350.437H756.083V349.562H760.458V345.188H761.333V349.562H765.708V350.437H761.333V354.812H760.458V350.437Z" fill="var(--sol-surface)"/>
<rect width="1" height="32" transform="translate(807 334)" fill="var(--sol-border-normal-variant)"/>
<path d="M808 334H832C835.771 334 837.657 334 838.828 335.172C840 336.343 840 338.229 840 342V358C840 361.771 840 363.657 838.828 364.828C837.657 366 835.771 366 832 366H808V334Z" fill="var(--sol-primary)"/>
<path d="M808 334H836C838.209 334 840 335.791 840 338V362C840 364.209 838.209 366 836 366H808V334Z" fill="var(--sol-surface)" fill-opacity="0.12"/>
<path d="M826.809 348.56L823.309 352.06C823.138 352.231 822.861 352.231 822.69 352.06L819.19 348.56L819.809 347.941L823 351.132L826.19 347.941L826.809 348.56Z" fill="var(--sol-surface)"/>
<path d="M514.279 429H510.916V419.102H514.334C517.287 419.102 519.078 420.961 519.078 424.037C519.078 427.127 517.287 429 514.279 429ZM512.693 427.455H514.184C516.248 427.455 517.301 426.32 517.301 424.037C517.301 421.768 516.248 420.646 514.238 420.646H512.693V427.455ZM520.568 429V421.576H522.318V429H520.568ZM521.457 420.523C520.91 420.523 520.445 420.1 520.445 419.566C520.445 419.047 520.91 418.623 521.457 418.623C522.018 418.623 522.469 419.047 522.469 419.566C522.469 420.1 522.018 420.523 521.457 420.523ZM528.197 423.695C528.088 423.135 527.623 422.779 526.885 422.779C526.133 422.779 525.586 423.148 525.6 423.654C525.586 424.037 525.9 424.324 526.652 424.502L527.91 424.762C529.318 425.076 529.988 425.719 530.002 426.785C529.988 428.18 528.771 429.15 526.83 429.15C524.943 429.15 523.822 428.303 523.645 426.881H525.422C525.531 427.51 526.023 427.824 526.83 427.824C527.664 427.824 528.225 427.482 528.225 426.936C528.225 426.512 527.883 426.238 527.145 426.074L525.955 425.814C524.574 425.541 523.863 424.816 523.863 423.75C523.863 422.383 525.039 421.48 526.857 421.48C528.635 421.48 529.729 422.342 529.852 423.695H528.197ZM530.986 426.908C530.986 425.24 532.367 424.748 533.748 424.666C534.261 424.632 535.327 424.57 535.648 424.557V423.969C535.648 423.23 535.17 422.807 534.309 422.807C533.529 422.807 533.051 423.162 532.914 423.695H531.232C531.355 422.438 532.49 421.48 534.35 421.48C535.758 421.48 537.385 422.055 537.385 424.037V429H535.717V427.975H535.662C535.334 428.604 534.637 429.15 533.475 429.15C532.053 429.15 530.986 428.371 530.986 426.908ZM532.668 426.895C532.668 427.537 533.188 427.865 533.926 427.865C534.979 427.865 535.662 427.168 535.662 426.334V425.719L534.021 425.828C533.188 425.896 532.668 426.238 532.668 426.895ZM539.107 429V419.102H540.857V422.793H540.926C541.199 422.26 541.732 421.48 543.045 421.48C544.768 421.48 546.121 422.82 546.121 425.295C546.121 427.742 544.795 429.137 543.059 429.137C541.773 429.137 541.199 428.371 540.926 427.824H540.816V429H539.107ZM540.816 425.281C540.816 426.73 541.445 427.701 542.566 427.701C543.729 427.701 544.344 426.689 544.344 425.281C544.344 423.9 543.742 422.902 542.566 422.902C541.445 422.902 540.816 423.846 540.816 425.281ZM549.238 419.102V429H547.488V419.102H549.238ZM554.201 429.15C551.959 429.15 550.592 427.66 550.592 425.336C550.592 423.039 551.986 421.48 554.105 421.48C555.924 421.48 557.496 422.615 557.496 425.227V425.773H552.314C552.335 427.038 553.08 427.783 554.215 427.783C554.98 427.783 555.5 427.455 555.719 427.018H557.428C557.113 428.303 555.924 429.15 554.201 429.15ZM552.328 424.584H555.828C555.814 423.572 555.145 422.834 554.133 422.834C553.08 422.834 552.383 423.634 552.328 424.584ZM561.611 429.137C559.861 429.137 558.549 427.742 558.549 425.295C558.549 422.82 559.902 421.48 561.625 421.48C562.938 421.48 563.484 422.26 563.744 422.793H563.812V419.102H565.549V429H563.84V427.824H563.744C563.471 428.371 562.896 429.137 561.611 429.137ZM562.09 427.701C563.211 427.701 563.854 426.73 563.854 425.281C563.854 423.846 563.225 422.902 562.09 422.902C560.928 422.902 560.326 423.9 560.326 425.281C560.326 426.689 560.941 427.701 562.09 427.701Z" fill="var(--sol-element-quaternary)"/>
<path d="M742 416C742 412.229 742 410.343 743.172 409.172C744.343 408 746.229 408 750 408H807V440H750C746.229 440 744.343 440 743.172 438.828C742 437.657 742 435.771 742 432V416Z" fill="var(--sol-element-primary)" fill-opacity="0.08"/>
<path d="M776.043 428H774.414L777.402 419.516H779.277L782.277 428H780.648L779.945 425.902H776.746L776.043 428ZM777.156 424.672H779.535L778.375 421.25H778.305L777.156 424.672ZM785.395 428.117C783.895 428.117 782.77 426.922 782.77 424.824C782.77 422.703 783.93 421.555 785.406 421.555C786.531 421.555 787 422.223 787.223 422.68H787.281V419.516H788.77V428H787.305V426.992H787.223C786.988 427.461 786.496 428.117 785.395 428.117ZM785.805 426.887C786.766 426.887 787.316 426.055 787.316 424.812C787.316 423.582 786.777 422.773 785.805 422.773C784.809 422.773 784.293 423.629 784.293 424.812C784.293 426.02 784.82 426.887 785.805 426.887ZM792.648 428.117C791.148 428.117 790.023 426.922 790.023 424.824C790.023 422.703 791.184 421.555 792.66 421.555C793.785 421.555 794.254 422.223 794.477 422.68H794.535V419.516H796.023V428H794.559V426.992H794.477C794.242 427.461 793.75 428.117 792.648 428.117ZM793.059 426.887C794.02 426.887 794.57 426.055 794.57 424.812C794.57 423.582 794.031 422.773 793.059 422.773C792.062 422.773 791.547 423.629 791.547 424.812C791.547 426.02 792.074 426.887 793.059 426.887Z" fill="var(--sol-element-primary)" fill-opacity="0.3"/>
<path d="M760.458 424.437H756.083V423.562H760.458V419.188H761.333V423.562H765.708V424.437H761.333V428.812H760.458V424.437Z" fill="var(--sol-element-primary)" fill-opacity="0.3"/>
<rect width="1" height="32" transform="translate(807 408)" fill="var(--sol-border-normal-variant)"/>
<path d="M808 408H832C835.771 408 837.657 408 838.828 409.172C840 410.343 840 412.229 840 416V432C840 435.771 840 437.657 838.828 438.828C837.657 440 835.771 440 832 440H808V408Z" fill="var(--sol-element-primary)" fill-opacity="0.08"/>
<path d="M826.809 422.56L823.309 426.06C823.138 426.231 822.861 426.231 822.69 426.06L819.19 422.56L819.809 421.941L823 425.132L826.19 421.941L826.809 422.56Z" fill="var(--sol-element-primary)" fill-opacity="0.3"/>
</svg>
