<svg width="900" height="140" viewBox="0 0 900 140" fill="none" xmlns="http://www.w3.org/2000/svg">
<style>
:root {
  --sol-primary: #282363;
  --sol-element-brand-variant: #3a3480;
  --sol-fill-active: #4d469a;
  --sol-selected-container-variant: #f5f4fd;
  --sol-surface: #ffffff;
  --sol-secondary-container: #e8e6f8;
  --sol-element-primary: #161616;
  --sol-element-secondary: #484848;
  --sol-element-tertiary: #636363;
  --sol-element-quaternary: #858585;
  --sol-border-brand: #7b74c4;
  --sol-border-normal-variant: rgba(0, 0, 0, 0.08);
  --sol-border-solid-variant: #e0e0e0;
  --sol-border-solid: #d0d0d0;
  --sol-error-dim: #b84451;
  --sol-static-white: #ffffff;
  --sol-static-black: #000000;
}
@media (prefers-color-scheme: dark) {
  :root {
    --sol-primary: #9791d4;
    --sol-element-brand-variant: #ffffff;
    --sol-fill-active: #7b74c4;
    --sol-selected-container-variant: rgba(0, 0, 0, 0.08);
    --sol-surface: #161616;
    --sol-secondary-container: rgba(255, 255, 255, 0.16);
    --sol-element-primary: #ffffff;
    --sol-element-secondary: rgba(255, 255, 255, 0.8);
    --sol-element-tertiary: rgba(255, 255, 255, 0.6);
    --sol-element-quaternary: rgba(255, 255, 255, 0.5);
    --sol-border-brand: #7b74c4;
    --sol-border-normal-variant: rgba(255, 255, 255, 0.08);
    --sol-border-solid-variant: #3d3d3d;
    --sol-border-solid: #333333;
    --sol-error-dim: #e76067;
    --sol-static-white: #ffffff;
    --sol-static-black: #000000;
  }
}
</style>
<path d="M205 62C205 58.2288 205 56.3431 206.172 55.1716C207.343 54 209.229 54 213 54H270V86H213C209.229 86 207.343 86 206.172 84.8284C205 83.6569 205 81.7712 205 78V62Z" fill="var(--sol-primary)"/>
<path d="M239.043 74H237.414L240.402 65.5156H242.277L245.277 74H243.648L242.945 71.9023H239.746L239.043 74ZM240.156 70.6719H242.535L241.375 67.25H241.305L240.156 70.6719ZM248.395 74.1172C246.895 74.1172 245.77 72.9219 245.77 70.8242C245.77 68.7031 246.93 67.5547 248.406 67.5547C249.531 67.5547 250 68.2227 250.223 68.6797H250.281V65.5156H251.77V74H250.305V72.9922H250.223C249.988 73.4609 249.496 74.1172 248.395 74.1172ZM248.805 72.8867C249.766 72.8867 250.316 72.0547 250.316 70.8125C250.316 69.582 249.777 68.7734 248.805 68.7734C247.809 68.7734 247.293 69.6289 247.293 70.8125C247.293 72.0195 247.82 72.8867 248.805 72.8867ZM255.648 74.1172C254.148 74.1172 253.023 72.9219 253.023 70.8242C253.023 68.7031 254.184 67.5547 255.66 67.5547C256.785 67.5547 257.254 68.2227 257.477 68.6797H257.535V65.5156H259.023V74H257.559V72.9922H257.477C257.242 73.4609 256.75 74.1172 255.648 74.1172ZM256.059 72.8867C257.02 72.8867 257.57 72.0547 257.57 70.8125C257.57 69.582 257.031 68.7734 256.059 68.7734C255.062 68.7734 254.547 69.6289 254.547 70.8125C254.547 72.0195 255.074 72.8867 256.059 72.8867Z" fill="var(--sol-surface)"/>
<path d="M223.458 70.4375H219.083V69.5625H223.458V65.1875H224.333V69.5625H228.708V70.4375H224.333V74.8125H223.458V70.4375Z" fill="var(--sol-surface)"/>
<rect width="1" height="32" transform="translate(270 54)" fill="var(--sol-border-normal-variant)"/>
<path d="M271 54H295C298.771 54 300.657 54 301.828 55.1716C303 56.3431 303 58.2288 303 62V78C303 81.7712 303 83.6569 301.828 84.8284C300.657 86 298.771 86 295 86H271V54Z" fill="var(--sol-primary)"/>
<path d="M289.81 68.5601L286.31 72.0601C286.139 72.2309 285.862 72.2309 285.691 72.0601L282.191 68.5601L282.81 67.9414L286 71.1321L289.191 67.9414L289.81 68.5601Z" fill="var(--sol-surface)"/>
<path d="M310 54V86" stroke="var(--sol-error-dim)"/>
<path d="M307 54H313" stroke="var(--sol-error-dim)"/>
<path d="M307 86H313" stroke="var(--sol-error-dim)"/>
<rect x="317" y="60" width="20" height="20" rx="3.5" fill="var(--sol-error-dim)"/>
<path d="M323.582 74.1094C323.045 74.1094 322.566 74.0169 322.144 73.832C321.725 73.6471 321.393 73.3906 321.148 73.0625C320.906 72.7318 320.776 72.349 320.758 71.9141H321.984C322 72.151 322.079 72.3568 322.222 72.5312C322.368 72.7031 322.558 72.8359 322.793 72.9297C323.027 73.0234 323.287 73.0703 323.574 73.0703C323.889 73.0703 324.168 73.0156 324.41 72.9062C324.655 72.7969 324.846 72.6445 324.984 72.4492C325.122 72.2513 325.191 72.0234 325.191 71.7656C325.191 71.4974 325.122 71.2617 324.984 71.0586C324.849 70.8529 324.649 70.6914 324.386 70.5742C324.126 70.457 323.811 70.3984 323.441 70.3984H322.765V69.4141H323.441C323.738 69.4141 323.998 69.3607 324.222 69.2539C324.449 69.1471 324.626 68.9987 324.754 68.8086C324.881 68.6159 324.945 68.3906 324.945 68.1328C324.945 67.8854 324.889 67.6706 324.777 67.4883C324.668 67.3034 324.511 67.1589 324.308 67.0547C324.108 66.9505 323.871 66.8984 323.597 66.8984C323.337 66.8984 323.093 66.9466 322.867 67.043C322.643 67.1367 322.461 67.2721 322.32 67.4492C322.179 67.6237 322.104 67.8333 322.093 68.0781H320.925C320.938 67.6458 321.066 67.2656 321.308 66.9375C321.553 66.6094 321.876 66.3529 322.277 66.168C322.678 65.9831 323.123 65.8906 323.613 65.8906C324.126 65.8906 324.569 65.9909 324.941 66.1914C325.316 66.3893 325.605 66.6536 325.808 66.9844C326.014 67.3151 326.116 67.6771 326.113 68.0703C326.116 68.5182 325.991 68.8984 325.738 69.2109C325.488 69.5234 325.155 69.7331 324.738 69.8398V69.9023C325.269 69.9831 325.681 70.194 325.972 70.5352C326.267 70.8763 326.412 71.2995 326.41 71.8047C326.412 72.2448 326.29 72.6393 326.043 72.9883C325.798 73.3372 325.463 73.612 325.039 73.8125C324.614 74.0104 324.129 74.1094 323.582 74.1094ZM327.996 74V73.125L330.703 70.3203C330.993 70.0156 331.231 69.7487 331.418 69.5195C331.608 69.2878 331.75 69.0677 331.844 68.8594C331.938 68.651 331.985 68.4297 331.985 68.1953C331.985 67.9297 331.922 67.7005 331.797 67.5078C331.672 67.3125 331.502 67.1628 331.285 67.0586C331.069 66.9518 330.826 66.8984 330.555 66.8984C330.269 66.8984 330.019 66.957 329.805 67.0742C329.591 67.1914 329.427 67.3568 329.313 67.5703C329.198 67.7839 329.141 68.0339 329.141 68.3203H327.989C327.989 67.8333 328.101 67.4076 328.325 67.043C328.548 66.6784 328.856 66.3958 329.246 66.1953C329.637 65.9922 330.081 65.8906 330.578 65.8906C331.081 65.8906 331.524 65.9909 331.907 66.1914C332.292 66.3893 332.593 66.6602 332.809 67.0039C333.025 67.3451 333.133 67.7305 333.133 68.1602C333.133 68.457 333.077 68.7474 332.965 69.0312C332.856 69.3151 332.664 69.6315 332.391 69.9805C332.118 70.3268 331.737 70.7474 331.25 71.2422L329.66 72.9062V72.9648H333.262V74H327.996Z" fill="var(--sol-surface)"/>
<path d="M373 60C373 56.2288 373 54.3431 374.172 53.1716C375.343 52 377.229 52 381 52H448V88H381C377.229 88 375.343 88 374.172 86.8284C373 85.6569 373 83.7712 373 80V60Z" fill="var(--sol-primary)"/>
<path d="M411.467 75H409.566L413.053 65.1016H415.24L418.74 75H416.84L416.02 72.5527H412.287L411.467 75ZM412.766 71.1172H415.541L414.188 67.125H414.105L412.766 71.1172ZM422.377 75.1367C420.627 75.1367 419.314 73.7422 419.314 71.2949C419.314 68.8203 420.668 67.4805 422.391 67.4805C423.703 67.4805 424.25 68.2598 424.51 68.793H424.578V65.1016H426.314V75H424.605V73.8242H424.51C424.236 74.3711 423.662 75.1367 422.377 75.1367ZM422.855 73.7012C423.977 73.7012 424.619 72.7305 424.619 71.2812C424.619 69.8457 423.99 68.9023 422.855 68.9023C421.693 68.9023 421.092 69.9004 421.092 71.2812C421.092 72.6895 421.707 73.7012 422.855 73.7012ZM430.84 75.1367C429.09 75.1367 427.777 73.7422 427.777 71.2949C427.777 68.8203 429.131 67.4805 430.854 67.4805C432.166 67.4805 432.713 68.2598 432.973 68.793H433.041V65.1016H434.777V75H433.068V73.8242H432.973C432.699 74.3711 432.125 75.1367 430.84 75.1367ZM431.318 73.7012C432.439 73.7012 433.082 72.7305 433.082 71.2812C433.082 69.8457 432.453 68.9023 431.318 68.9023C430.156 68.9023 429.555 69.9004 429.555 71.2812C429.555 72.6895 430.17 73.7012 431.318 73.7012Z" fill="var(--sol-surface)"/>
<path d="M394.381 70.5H389.381V69.5H394.381V64.5H395.381V69.5H400.381V70.5H395.381V75.5H394.381V70.5Z" fill="var(--sol-surface)"/>
<rect width="1" height="36" transform="translate(448 52)" fill="var(--sol-border-normal-variant)"/>
<path d="M449 52H477C480.771 52 482.657 52 483.828 53.1716C485 54.3431 485 56.2288 485 60V80C485 83.7712 485 85.6569 483.828 86.8284C482.657 88 480.771 88 477 88H449V52Z" fill="var(--sol-primary)"/>
<path d="M469.81 68.5601L466.31 72.0601C466.139 72.2309 465.862 72.2309 465.691 72.0601L462.191 68.5601L462.81 67.9414L466 71.1321L469.191 67.9414L469.81 68.5601Z" fill="var(--sol-surface)"/>
<path d="M492 52V88" stroke="var(--sol-error-dim)"/>
<path d="M489 52H495" stroke="var(--sol-error-dim)"/>
<path d="M489 88H495" stroke="var(--sol-error-dim)"/>
<rect x="499" y="60" width="21" height="20" rx="3.5" fill="var(--sol-error-dim)"/>
<path d="M505.958 74.1094C505.422 74.1094 504.943 74.0169 504.521 73.832C504.101 73.6471 503.769 73.3906 503.525 73.0625C503.282 72.7318 503.152 72.349 503.134 71.9141H504.361C504.376 72.151 504.456 72.3568 504.599 72.5312C504.745 72.7031 504.935 72.8359 505.169 72.9297C505.403 73.0234 505.664 73.0703 505.95 73.0703C506.265 73.0703 506.544 73.0156 506.786 72.9062C507.031 72.7969 507.223 72.6445 507.361 72.4492C507.499 72.2513 507.568 72.0234 507.568 71.7656C507.568 71.4974 507.499 71.2617 507.361 71.0586C507.225 70.8529 507.026 70.6914 506.763 70.5742C506.502 70.457 506.187 70.3984 505.818 70.3984H505.142V69.4141H505.818C506.114 69.4141 506.375 69.3607 506.599 69.2539C506.825 69.1471 507.002 68.9987 507.13 68.8086C507.258 68.6159 507.321 68.3906 507.321 68.1328C507.321 67.8854 507.265 67.6706 507.153 67.4883C507.044 67.3034 506.888 67.1589 506.685 67.0547C506.484 66.9505 506.247 66.8984 505.974 66.8984C505.713 66.8984 505.47 66.9466 505.243 67.043C505.019 67.1367 504.837 67.2721 504.696 67.4492C504.556 67.6237 504.48 67.8333 504.47 68.0781H503.302C503.315 67.6458 503.443 67.2656 503.685 66.9375C503.93 66.6094 504.252 66.3529 504.653 66.168C505.055 65.9831 505.5 65.8906 505.989 65.8906C506.502 65.8906 506.945 65.9909 507.318 66.1914C507.693 66.3893 507.982 66.6536 508.185 66.9844C508.39 67.3151 508.492 67.6771 508.489 68.0703C508.492 68.5182 508.367 68.8984 508.114 69.2109C507.864 69.5234 507.531 69.7331 507.114 69.8398V69.9023C507.646 69.9831 508.057 70.194 508.349 70.5352C508.643 70.8763 508.789 71.2995 508.786 71.8047C508.789 72.2448 508.667 72.6393 508.419 72.9883C508.174 73.3372 507.84 73.612 507.415 73.8125C506.991 74.0104 506.505 74.1094 505.958 74.1094ZM513.166 74.1094C512.809 74.1042 512.458 74.0391 512.111 73.9141C511.767 73.7891 511.455 73.5807 511.174 73.2891C510.892 72.9974 510.667 72.6055 510.498 72.1133C510.331 71.6211 510.248 71.0065 510.248 70.2695C510.248 69.5716 510.317 68.9518 510.455 68.4102C510.596 67.8685 510.797 67.4115 511.06 67.0391C511.323 66.6641 511.641 66.3789 512.013 66.1836C512.386 65.9883 512.804 65.8906 513.267 65.8906C513.744 65.8906 514.167 65.9844 514.537 66.1719C514.907 66.3594 515.206 66.6185 515.435 66.9492C515.667 67.2799 515.814 67.6562 515.877 68.0781H514.685C514.605 67.7448 514.444 67.4727 514.205 67.2617C513.965 67.0508 513.653 66.9453 513.267 66.9453C512.681 66.9453 512.224 67.2005 511.896 67.7109C511.571 68.2214 511.407 68.931 511.404 69.8398H511.463C511.601 69.6133 511.77 69.4206 511.971 69.2617C512.174 69.1003 512.4 68.9766 512.65 68.8906C512.903 68.8021 513.168 68.7578 513.447 68.7578C513.911 68.7578 514.33 68.8711 514.705 69.0977C515.083 69.3216 515.383 69.6315 515.607 70.0273C515.831 70.4232 515.943 70.8763 515.943 71.3867C515.943 71.8971 515.827 72.3594 515.596 72.7734C515.366 73.1875 515.043 73.5156 514.627 73.7578C514.21 73.9974 513.723 74.1146 513.166 74.1094ZM513.162 73.0937C513.469 73.0937 513.744 73.0182 513.986 72.8672C514.228 72.7161 514.42 72.513 514.56 72.2578C514.701 72.0026 514.771 71.7174 514.771 71.4023C514.771 71.0951 514.702 70.8151 514.564 70.5625C514.429 70.3099 514.241 70.1094 514.002 69.9609C513.765 69.8125 513.494 69.7383 513.189 69.7383C512.958 69.7383 512.743 69.7826 512.545 69.8711C512.349 69.9596 512.178 70.082 512.029 70.2383C511.881 70.3945 511.763 70.5742 511.678 70.7773C511.594 70.9779 511.553 71.1901 511.553 71.4141C511.553 71.7135 511.622 71.9909 511.76 72.2461C511.9 72.5013 512.092 72.707 512.334 72.8633C512.579 73.0169 512.855 73.0937 513.162 73.0937Z" fill="var(--sol-surface)"/>
<path d="M555 57C555 53.2288 555 51.3431 556.172 50.1716C557.343 49 559.229 49 563 49H642V91H563C559.229 91 557.343 91 556.172 89.8284C555 88.6569 555 86.7712 555 83V57Z" fill="var(--sol-primary)"/>
<path d="M599.891 76H597.719L601.703 64.6875H604.203L608.203 76H606.031L605.094 73.2031H600.828L599.891 76ZM601.375 71.5625H604.547L603 67H602.906L601.375 71.5625ZM612.359 76.1562C610.359 76.1562 608.859 74.5625 608.859 71.7656C608.859 68.9375 610.406 67.4062 612.375 67.4062C613.875 67.4062 614.5 68.2969 614.797 68.9062H614.875V64.6875H616.859V76H614.906V74.6562H614.797C614.484 75.2812 613.828 76.1562 612.359 76.1562ZM612.906 74.5156C614.188 74.5156 614.922 73.4062 614.922 71.75C614.922 70.1094 614.203 69.0312 612.906 69.0312C611.578 69.0312 610.891 70.1719 610.891 71.75C610.891 73.3594 611.594 74.5156 612.906 74.5156ZM622.031 76.1562C620.031 76.1562 618.531 74.5625 618.531 71.7656C618.531 68.9375 620.078 67.4062 622.047 67.4062C623.547 67.4062 624.172 68.2969 624.469 68.9062H624.547V64.6875H626.531V76H624.578V74.6562H624.469C624.156 75.2812 623.5 76.1562 622.031 76.1562ZM622.578 74.5156C623.859 74.5156 624.594 73.4062 624.594 71.75C624.594 70.1094 623.875 69.0312 622.578 69.0312C621.25 69.0312 620.562 70.1719 620.562 71.75C620.562 73.3594 621.266 74.5156 622.578 74.5156Z" fill="var(--sol-surface)"/>
<path d="M580.226 70.625H573.976V69.375H580.226V63.125H581.476V69.375H587.726V70.625H581.476V76.875H580.226V70.625Z" fill="var(--sol-surface)"/>
<rect width="1" height="42" transform="translate(642 49)" fill="var(--sol-border-normal-variant)"/>
<path d="M643 49H677C680.771 49 682.657 49 683.828 50.1716C685 51.3431 685 53.2288 685 57V83C685 86.7712 685 88.6569 683.828 89.8284C682.657 91 680.771 91 677 91H643V49Z" fill="var(--sol-primary)"/>
<path d="M668.442 67.9424L663.442 72.9424C663.198 73.1865 662.802 73.1865 662.558 72.9424L657.558 67.9424L658.442 67.0586L663 71.6167L667.558 67.0586L668.442 67.9424Z" fill="var(--sol-surface)"/>
<path d="M692 49V91" stroke="var(--sol-error-dim)"/>
<path d="M689 49H695" stroke="var(--sol-error-dim)"/>
<path d="M689 91H695" stroke="var(--sol-error-dim)"/>
<rect x="699" y="60" width="21" height="20" rx="3.5" fill="var(--sol-error-dim)"/>
<path d="M703.075 72.4375V71.4609L706.532 66H707.301V67.4375H706.813L704.341 71.3516V71.4141H709.079V72.4375H703.075ZM706.868 74V72.1406L706.876 71.6953V66H708.02V74H706.868ZM710.55 74V73.125L713.257 70.3203C713.546 70.0156 713.784 69.7487 713.972 69.5195C714.162 69.2878 714.304 69.0677 714.398 68.8594C714.492 68.651 714.538 68.4297 714.538 68.1953C714.538 67.9297 714.476 67.7005 714.351 67.5078C714.226 67.3125 714.055 67.1628 713.839 67.0586C713.623 66.9518 713.38 66.8984 713.109 66.8984C712.822 66.8984 712.572 66.957 712.359 67.0742C712.145 67.1914 711.981 67.3568 711.867 67.5703C711.752 67.7839 711.695 68.0339 711.695 68.3203H710.542C710.542 67.8333 710.654 67.4076 710.878 67.043C711.102 66.6784 711.409 66.3958 711.8 66.1953C712.191 65.9922 712.635 65.8906 713.132 65.8906C713.635 65.8906 714.077 65.9909 714.46 66.1914C714.846 66.3893 715.146 66.6602 715.363 67.0039C715.579 67.3451 715.687 67.7305 715.687 68.1602C715.687 68.457 715.631 68.7474 715.519 69.0312C715.409 69.3151 715.218 69.6315 714.945 69.9805C714.671 70.3268 714.291 70.7474 713.804 71.2422L712.214 72.9062V72.9648H715.816V74H710.55Z" fill="var(--sol-surface)"/>
</svg>
