<svg width="900" height="280" viewBox="0 0 900 280" fill="none" xmlns="http://www.w3.org/2000/svg">
<style>
:root {
  --sol-primary: #282363;
  --sol-surface: #ffffff;
  --sol-element-primary: #161616;
  --sol-element-quaternary: #858585;
  --sol-border-normal-variant: #ebebeb;
  --sol-border-solid-variant: #e0e0e0;
  --sol-static-white: #ffffff;
  --sol-static-black: #000000;
}
@media (prefers-color-scheme: dark) {
  :root {
    --sol-primary: #9791d4;
    --sol-surface: #161616;
    --sol-element-primary: #ffffff;
    --sol-element-quaternary: rgba(255, 255, 255, 0.5);
    --sol-border-normal-variant: rgba(255, 255, 255, 0.08);
    --sol-border-solid-variant: #3d3d3d;
  }
}
</style>
<path d="M401 96C401 92.2288 401 90.3431 402.172 89.1716C403.343 88 405.229 88 409 88H476V124H409C405.229 124 403.343 124 402.172 122.828C401 121.657 401 119.771 401 116V96Z" fill="var(--sol-primary)"/>
<path d="M439.467 111H437.566L441.053 101.102H443.24L446.74 111H444.84L444.02 108.553H440.287L439.467 111ZM440.766 107.117H443.541L442.188 103.125H442.105L440.766 107.117ZM450.377 111.137C448.627 111.137 447.314 109.742 447.314 107.295C447.314 104.82 448.668 103.48 450.391 103.48C451.703 103.48 452.25 104.26 452.51 104.793H452.578V101.102H454.314V111H452.605V109.824H452.51C452.236 110.371 451.662 111.137 450.377 111.137ZM450.855 109.701C451.977 109.701 452.619 108.73 452.619 107.281C452.619 105.846 451.99 104.902 450.855 104.902C449.693 104.902 449.092 105.9 449.092 107.281C449.092 108.689 449.707 109.701 450.855 109.701ZM458.84 111.137C457.09 111.137 455.777 109.742 455.777 107.295C455.777 104.82 457.131 103.48 458.854 103.48C460.166 103.48 460.713 104.26 460.973 104.793H461.041V101.102H462.777V111H461.068V109.824H460.973C460.699 110.371 460.125 111.137 458.84 111.137ZM459.318 109.701C460.439 109.701 461.082 108.73 461.082 107.281C461.082 105.846 460.453 104.902 459.318 104.902C458.156 104.902 457.555 105.9 457.555 107.281C457.555 108.689 458.17 109.701 459.318 109.701Z" fill="var(--sol-surface)"/>
<path d="M422.381 106.5H417.381V105.5H422.381V100.5H423.381V105.5H428.381V106.5H423.381V111.5H422.381V106.5Z" fill="var(--sol-surface)"/>
<rect width="1" height="36" transform="translate(476 88)" fill="var(--sol-border-normal-variant)"/>
<path d="M477 88H505C508.771 88 510.657 88 511.828 89.1716C513 90.3431 513 92.2288 513 96V116C513 119.771 513 121.657 511.828 122.828C510.657 124 508.771 124 505 124H477V88Z" fill="var(--sol-primary)"/>
<path d="M497.809 104.56L494.309 108.06C494.138 108.231 493.861 108.231 493.69 108.06L490.19 104.56L490.809 103.941L494 107.132L497.19 103.941L497.809 104.56Z" fill="var(--sol-surface)"/>
<rect x="336.5" y="92" width="28" height="28" rx="14" fill="var(--sol-element-primary)"/>
<path d="M352.359 100.688V112H350.312V102.672H350.25L347.609 104.359V102.5L350.406 100.688H352.359Z" fill="var(--sol-surface)"/>
<path d="M364.5 105.5H404C404.276 105.5 404.5 105.724 404.5 106C404.5 106.276 404.276 106.5 404 106.5H364.5V105.5Z" fill="var(--sol-element-primary)"/>
<circle cx="402.5" cy="106" r="2" fill="var(--sol-element-primary)"/>
<path d="M504 106C504 105.724 504.224 105.5 504.5 105.5H536V106.5H504.5C504.224 106.5 504 106.276 504 106Z" fill="var(--sol-element-primary)"/>
<rect x="536" y="92" width="28" height="28" rx="14" fill="var(--sol-element-primary)"/>
<path d="M545.57 109.891V108.266L550.461 100.688H552.992V108.219H554.477V109.891H552.992V112H551.055V109.891H545.57ZM547.648 108.219H551.086V103H550.961L547.648 108.141V108.219Z" fill="var(--sol-surface)"/>
<circle cx="506" cy="106" r="2" fill="var(--sol-element-primary)"/>
<g filter="url(#filter0_dd_1667_175370)">
<g clip-path="url(#clip0_1667_175370)">
<path d="M362.5 132C362.5 129.791 364.291 128 366.5 128H518.5C520.709 128 522.5 129.791 522.5 132V228C522.5 230.209 520.709 232 518.5 232H366.5C364.291 232 362.5 230.209 362.5 228V132Z" fill="var(--sol-surface)"/>
<g clip-path="url(#clip1_1667_175370)">
<path d="M384.994 145.59C384.885 144.619 383.996 144.059 382.807 144.059C381.494 144.059 380.633 144.742 380.633 145.686C380.633 146.725 381.795 147.107 382.547 147.299L383.531 147.572C384.598 147.846 386.334 148.461 386.334 150.307C386.334 151.92 385.035 153.178 382.738 153.178C380.605 153.178 379.279 152.07 379.17 150.43H380.428C380.537 151.537 381.562 152.057 382.738 152.057C384.105 152.057 385.131 151.359 385.131 150.279C385.131 149.322 384.215 148.953 383.176 148.652L381.959 148.324C380.4 147.873 379.443 147.08 379.443 145.74C379.443 144.072 380.934 142.965 382.848 142.965C384.762 142.965 386.143 144.086 386.197 145.59H384.994ZM391.064 153.15C388.918 153.15 387.592 151.633 387.592 149.35C387.592 147.066 388.932 145.48 390.955 145.48C392.514 145.48 394.154 146.438 394.154 149.186V149.678H388.768C388.822 151.25 389.738 152.111 391.064 152.111C391.953 152.111 392.514 151.729 392.787 151.264H394.045C393.689 152.385 392.596 153.15 391.064 153.15ZM388.781 148.68H392.965C392.965 147.436 392.172 146.52 390.955 146.52C389.67 146.52 388.85 147.531 388.781 148.68ZM396.861 143.102V153H395.686V143.102H396.861ZM401.852 153.15C399.705 153.15 398.379 151.633 398.379 149.35C398.379 147.066 399.719 145.48 401.742 145.48C403.301 145.48 404.941 146.438 404.941 149.186V149.678H399.555C399.609 151.25 400.525 152.111 401.852 152.111C402.74 152.111 403.301 151.729 403.574 151.264H404.832C404.477 152.385 403.383 153.15 401.852 153.15ZM399.568 148.68H403.752C403.752 147.436 402.959 146.52 401.742 146.52C400.457 146.52 399.637 147.531 399.568 148.68ZM409.508 153.15C407.402 153.15 406.117 151.551 406.117 149.322C406.117 147.066 407.457 145.48 409.48 145.48C411.066 145.48 412.242 146.41 412.434 147.818H411.258C411.094 147.135 410.492 146.52 409.508 146.52C408.182 146.52 407.293 147.613 407.293 149.281C407.293 151.004 408.154 152.098 409.508 152.098C410.383 152.098 411.053 151.633 411.258 150.812H412.434C412.242 152.139 411.162 153.15 409.508 153.15ZM417.123 145.576V146.561H415.564V150.867C415.564 151.824 416.029 151.975 416.535 151.975C416.754 151.975 417.055 151.961 417.232 151.947V153.041C417.055 153.068 416.754 153.096 416.412 153.096C415.428 153.096 414.375 152.48 414.375 151.168V146.561H413.254V145.576H414.375V143.799H415.564V145.576H417.123ZM423.535 143.102V153H422.305V143.102H423.535ZM428.812 145.576V146.561H427.254V150.867C427.254 151.824 427.719 151.975 428.225 151.975C428.443 151.975 428.744 151.961 428.922 151.947V153.041C428.744 153.068 428.443 153.096 428.102 153.096C427.117 153.096 426.064 152.48 426.064 151.168V146.561H424.943V145.576H426.064V143.799H427.254V145.576H428.812ZM433.379 153.15C431.232 153.15 429.906 151.633 429.906 149.35C429.906 147.066 431.246 145.48 433.27 145.48C434.828 145.48 436.469 146.438 436.469 149.186V149.678H431.082C431.137 151.25 432.053 152.111 433.379 152.111C434.268 152.111 434.828 151.729 435.102 151.264H436.359C436.004 152.385 434.91 153.15 433.379 153.15ZM431.096 148.68H435.279C435.279 147.436 434.486 146.52 433.27 146.52C431.984 146.52 431.164 147.531 431.096 148.68ZM438 153V145.576H439.135V146.738H439.23C439.545 145.945 440.256 145.48 441.227 145.48C442.197 145.48 442.854 145.945 443.209 146.738H443.291C443.674 145.973 444.453 145.48 445.52 145.48C446.846 145.48 447.789 146.287 447.789 148.037V153H446.613V148.051C446.613 146.957 445.916 146.533 445.109 146.533C444.07 146.533 443.482 147.23 443.482 148.174V153H442.293V147.928C442.293 147.094 441.691 146.533 440.844 146.533C439.955 146.533 439.176 147.285 439.176 148.365V153H438Z" fill="var(--sol-element-primary)"/>
<path d="M384.994 177.59C384.885 176.619 383.996 176.059 382.807 176.059C381.494 176.059 380.633 176.742 380.633 177.686C380.633 178.725 381.795 179.107 382.547 179.299L383.531 179.572C384.598 179.846 386.334 180.461 386.334 182.307C386.334 183.92 385.035 185.178 382.738 185.178C380.605 185.178 379.279 184.07 379.17 182.43H380.428C380.537 183.537 381.562 184.057 382.738 184.057C384.105 184.057 385.131 183.359 385.131 182.279C385.131 181.322 384.215 180.953 383.176 180.652L381.959 180.324C380.4 179.873 379.443 179.08 379.443 177.74C379.443 176.072 380.934 174.965 382.848 174.965C384.762 174.965 386.143 176.086 386.197 177.59H384.994ZM391.064 185.15C388.918 185.15 387.592 183.633 387.592 181.35C387.592 179.066 388.932 177.48 390.955 177.48C392.514 177.48 394.154 178.438 394.154 181.186V181.678H388.768C388.822 183.25 389.738 184.111 391.064 184.111C391.953 184.111 392.514 183.729 392.787 183.264H394.045C393.689 184.385 392.596 185.15 391.064 185.15ZM388.781 180.68H392.965C392.965 179.436 392.172 178.52 390.955 178.52C389.67 178.52 388.85 179.531 388.781 180.68ZM396.861 175.102V185H395.686V175.102H396.861ZM401.852 185.15C399.705 185.15 398.379 183.633 398.379 181.35C398.379 179.066 399.719 177.48 401.742 177.48C403.301 177.48 404.941 178.438 404.941 181.186V181.678H399.555C399.609 183.25 400.525 184.111 401.852 184.111C402.74 184.111 403.301 183.729 403.574 183.264H404.832C404.477 184.385 403.383 185.15 401.852 185.15ZM399.568 180.68H403.752C403.752 179.436 402.959 178.52 401.742 178.52C400.457 178.52 399.637 179.531 399.568 180.68ZM409.508 185.15C407.402 185.15 406.117 183.551 406.117 181.322C406.117 179.066 407.457 177.48 409.48 177.48C411.066 177.48 412.242 178.41 412.434 179.818H411.258C411.094 179.135 410.492 178.52 409.508 178.52C408.182 178.52 407.293 179.613 407.293 181.281C407.293 183.004 408.154 184.098 409.508 184.098C410.383 184.098 411.053 183.633 411.258 182.812H412.434C412.242 184.139 411.162 185.15 409.508 185.15ZM417.123 177.576V178.561H415.564V182.867C415.564 183.824 416.029 183.975 416.535 183.975C416.754 183.975 417.055 183.961 417.232 183.947V185.041C417.055 185.068 416.754 185.096 416.412 185.096C415.428 185.096 414.375 184.48 414.375 183.168V178.561H413.254V177.576H414.375V175.799H415.564V177.576H417.123ZM423.535 175.102V185H422.305V175.102H423.535ZM428.812 177.576V178.561H427.254V182.867C427.254 183.824 427.719 183.975 428.225 183.975C428.443 183.975 428.744 183.961 428.922 183.947V185.041C428.744 185.068 428.443 185.096 428.102 185.096C427.117 185.096 426.064 184.48 426.064 183.168V178.561H424.943V177.576H426.064V175.799H427.254V177.576H428.812ZM433.379 185.15C431.232 185.15 429.906 183.633 429.906 181.35C429.906 179.066 431.246 177.48 433.27 177.48C434.828 177.48 436.469 178.438 436.469 181.186V181.678H431.082C431.137 183.25 432.053 184.111 433.379 184.111C434.268 184.111 434.828 183.729 435.102 183.264H436.359C436.004 184.385 434.91 185.15 433.379 185.15ZM431.096 180.68H435.279C435.279 179.436 434.486 178.52 433.27 178.52C431.984 178.52 431.164 179.531 431.096 180.68ZM438 185V177.576H439.135V178.738H439.23C439.545 177.945 440.256 177.48 441.227 177.48C442.197 177.48 442.854 177.945 443.209 178.738H443.291C443.674 177.973 444.453 177.48 445.52 177.48C446.846 177.48 447.789 178.287 447.789 180.037V185H446.613V180.051C446.613 178.957 445.916 178.533 445.109 178.533C444.07 178.533 443.482 179.23 443.482 180.174V185H442.293V179.928C442.293 179.094 441.691 178.533 440.844 178.533C439.955 178.533 439.176 179.285 439.176 180.365V185H438Z" fill="var(--sol-element-primary)"/>
<path d="M384.994 209.59C384.885 208.619 383.996 208.059 382.807 208.059C381.494 208.059 380.633 208.742 380.633 209.686C380.633 210.725 381.795 211.107 382.547 211.299L383.531 211.572C384.598 211.846 386.334 212.461 386.334 214.307C386.334 215.92 385.035 217.178 382.738 217.178C380.605 217.178 379.279 216.07 379.17 214.43H380.428C380.537 215.537 381.562 216.057 382.738 216.057C384.105 216.057 385.131 215.359 385.131 214.279C385.131 213.322 384.215 212.953 383.176 212.652L381.959 212.324C380.4 211.873 379.443 211.08 379.443 209.74C379.443 208.072 380.934 206.965 382.848 206.965C384.762 206.965 386.143 208.086 386.197 209.59H384.994ZM391.064 217.15C388.918 217.15 387.592 215.633 387.592 213.35C387.592 211.066 388.932 209.48 390.955 209.48C392.514 209.48 394.154 210.438 394.154 213.186V213.678H388.768C388.822 215.25 389.738 216.111 391.064 216.111C391.953 216.111 392.514 215.729 392.787 215.264H394.045C393.689 216.385 392.596 217.15 391.064 217.15ZM388.781 212.68H392.965C392.965 211.436 392.172 210.52 390.955 210.52C389.67 210.52 388.85 211.531 388.781 212.68ZM396.861 207.102V217H395.686V207.102H396.861ZM401.852 217.15C399.705 217.15 398.379 215.633 398.379 213.35C398.379 211.066 399.719 209.48 401.742 209.48C403.301 209.48 404.941 210.438 404.941 213.186V213.678H399.555C399.609 215.25 400.525 216.111 401.852 216.111C402.74 216.111 403.301 215.729 403.574 215.264H404.832C404.477 216.385 403.383 217.15 401.852 217.15ZM399.568 212.68H403.752C403.752 211.436 402.959 210.52 401.742 210.52C400.457 210.52 399.637 211.531 399.568 212.68ZM409.508 217.15C407.402 217.15 406.117 215.551 406.117 213.322C406.117 211.066 407.457 209.48 409.48 209.48C411.066 209.48 412.242 210.41 412.434 211.818H411.258C411.094 211.135 410.492 210.52 409.508 210.52C408.182 210.52 407.293 211.613 407.293 213.281C407.293 215.004 408.154 216.098 409.508 216.098C410.383 216.098 411.053 215.633 411.258 214.812H412.434C412.242 216.139 411.162 217.15 409.508 217.15ZM417.123 209.576V210.561H415.564V214.867C415.564 215.824 416.029 215.975 416.535 215.975C416.754 215.975 417.055 215.961 417.232 215.947V217.041C417.055 217.068 416.754 217.096 416.412 217.096C415.428 217.096 414.375 216.48 414.375 215.168V210.561H413.254V209.576H414.375V207.799H415.564V209.576H417.123ZM423.535 207.102V217H422.305V207.102H423.535ZM428.812 209.576V210.561H427.254V214.867C427.254 215.824 427.719 215.975 428.225 215.975C428.443 215.975 428.744 215.961 428.922 215.947V217.041C428.744 217.068 428.443 217.096 428.102 217.096C427.117 217.096 426.064 216.48 426.064 215.168V210.561H424.943V209.576H426.064V207.799H427.254V209.576H428.812ZM433.379 217.15C431.232 217.15 429.906 215.633 429.906 213.35C429.906 211.066 431.246 209.48 433.27 209.48C434.828 209.48 436.469 210.438 436.469 213.186V213.678H431.082C431.137 215.25 432.053 216.111 433.379 216.111C434.268 216.111 434.828 215.729 435.102 215.264H436.359C436.004 216.385 434.91 217.15 433.379 217.15ZM431.096 212.68H435.279C435.279 211.436 434.486 210.52 433.27 210.52C431.984 210.52 431.164 211.531 431.096 212.68ZM438 217V209.576H439.135V210.738H439.23C439.545 209.945 440.256 209.48 441.227 209.48C442.197 209.48 442.854 209.945 443.209 210.738H443.291C443.674 209.973 444.453 209.48 445.52 209.48C446.846 209.48 447.789 210.287 447.789 212.037V217H446.613V212.051C446.613 210.957 445.916 210.533 445.109 210.533C444.07 210.533 443.482 211.23 443.482 212.174V217H442.293V211.928C442.293 211.094 441.691 210.533 440.844 210.533C439.955 210.533 439.176 211.285 439.176 212.365V217H438Z" fill="var(--sol-element-primary)"/>
</g>
<g clip-path="url(#clip2_1667_175370)">
<rect x="514.5" y="132.088" width="4" height="48" fill="var(--sol-border-solid-variant)"/>
</g>
</g>
</g>
<rect x="437" y="48" width="28" height="28" rx="14" fill="var(--sol-element-primary)"/>
<path d="M450.992 68.1562C448.57 68.1562 446.852 66.8438 446.805 64.9375H448.852C448.914 65.8438 449.82 66.4375 450.992 66.4375C452.242 66.4375 453.133 65.75 453.133 64.75C453.133 63.7344 452.258 63 450.789 63H449.773V61.4375H450.789C451.992 61.4375 452.836 60.7656 452.82 59.7812C452.836 58.8281 452.117 58.1875 451.008 58.1875C449.945 58.1875 449.023 58.7812 448.992 59.7344H447.039C447.086 57.8281 448.805 56.5312 451.023 56.5312C453.32 56.5312 454.805 57.9375 454.789 59.6719C454.805 60.9375 453.961 61.8594 452.727 62.1094V62.2031C454.32 62.4219 455.227 63.4375 455.211 64.8594C455.227 66.7656 453.445 68.1562 450.992 68.1562Z" fill="var(--sol-surface)"/>
<path d="M450.5 76H451.5V97.5C451.5 97.7761 451.276 98 451 98C450.724 98 450.5 97.7761 450.5 97.5V76Z" fill="var(--sol-element-primary)"/>
<circle cx="451" cy="96" r="2" fill="var(--sol-element-primary)"/>
<rect x="404.5" y="48" width="28" height="28" rx="14" fill="var(--sol-element-primary)"/>
<path d="M414.617 68V66.5312L418.617 62.6719C419.758 61.5312 420.352 60.8594 420.352 59.9062C420.352 58.8594 419.523 58.1875 418.414 58.1875C417.242 58.1875 416.492 58.9219 416.508 60.0625H414.57C414.555 57.9219 416.164 56.5312 418.43 56.5312C420.742 56.5312 422.305 57.9062 422.305 59.8125C422.305 61.0938 421.68 62.125 419.461 64.2188L417.445 66.2188V66.2969H422.477V68H414.617Z" fill="var(--sol-surface)"/>
<path d="M418 76H419V97.5C419 97.7761 418.776 98 418.5 98C418.224 98 418 97.7761 418 97.5V76Z" fill="var(--sol-element-primary)"/>
<circle cx="418.5" cy="96" r="2" fill="var(--sol-element-primary)"/>
<path d="M496 180C496 179.724 496.224 179.5 496.5 179.5H536V180.5H496.5C496.224 180.5 496 180.276 496 180Z" fill="var(--sol-element-primary)"/>
<rect x="536" y="166" width="28" height="28" rx="14" fill="var(--sol-element-primary)"/>
<path d="M550.016 186.156C547.75 186.156 546.094 184.812 546.031 182.938H548.016C548.078 183.859 548.938 184.516 550.016 184.516C551.281 184.516 552.188 183.594 552.188 182.344C552.188 181.047 551.25 180.125 549.953 180.125C549.078 180.109 548.438 180.422 548.078 181.094H546.188L546.875 174.688H553.562V176.391H548.547L548.203 179.391H548.312C548.75 178.891 549.578 178.531 550.5 178.531C552.609 178.531 554.156 180.109 554.156 182.281C554.156 184.547 552.453 186.156 550.016 186.156Z" fill="var(--sol-surface)"/>
<circle cx="498" cy="180" r="2" fill="var(--sol-element-primary)"/>
<defs>
<filter id="filter0_dd_1667_175370" x="354.5" y="124" width="176" height="120" filterUnits="userSpaceOnUse" color-interpolation-filters="sRGB">
<feFlood flood-opacity="0" result="BackgroundImageFix"/>
<feColorMatrix in="SourceAlpha" type="matrix" values="0 0 0 0 0 0 0 0 0 0 0 0 0 0 0 0 0 0 127 0" result="hardAlpha"/>
<feOffset dy="4"/>
<feGaussianBlur stdDeviation="4"/>
<feComposite in2="hardAlpha" operator="out"/>
<feColorMatrix type="matrix" values="0 0 0 0 0 0 0 0 0 0 0 0 0 0 0 0 0 0 0.08 0"/>
<feBlend mode="normal" in2="BackgroundImageFix" result="effect1_dropShadow_1667_175370"/>
<feColorMatrix in="SourceAlpha" type="matrix" values="0 0 0 0 0 0 0 0 0 0 0 0 0 0 0 0 0 0 127 0" result="hardAlpha"/>
<feOffset/>
<feGaussianBlur stdDeviation="0.5"/>
<feComposite in2="hardAlpha" operator="out"/>
<feColorMatrix type="matrix" values="0 0 0 0 0 0 0 0 0 0 0 0 0 0 0 0 0 0 0.08 0"/>
<feBlend mode="normal" in2="effect1_dropShadow_1667_175370" result="effect2_dropShadow_1667_175370"/>
<feBlend mode="normal" in="SourceGraphic" in2="effect2_dropShadow_1667_175370" result="shape"/>
</filter>
<clipPath id="clip0_1667_175370">
<path d="M362.5 132C362.5 129.791 364.291 128 366.5 128H518.5C520.709 128 522.5 129.791 522.5 132V228C522.5 230.209 520.709 232 518.5 232H366.5C364.291 232 362.5 230.209 362.5 228V132Z" fill="var(--sol-surface)"/>
</clipPath>
<clipPath id="clip1_1667_175370">
<rect width="152" height="96" fill="var(--sol-surface)" transform="translate(366.5 132)"/>
</clipPath>
<clipPath id="clip2_1667_175370">
<path d="M514.5 134.088C514.5 132.983 515.395 132.088 516.5 132.088C517.605 132.088 518.5 132.983 518.5 134.088V178.088C518.5 179.192 517.605 180.088 516.5 180.088C515.395 180.088 514.5 179.192 514.5 178.088V134.088Z" fill="var(--sol-surface)"/>
</clipPath>
</defs>
</svg>
