<svg width="442" height="220" viewBox="0 0 442 220" fill="none" xmlns="http://www.w3.org/2000/svg">
<style>
:root {
  --sol-primary: #282363;
  --sol-surface: #ffffff;
  --sol-element-primary: #161616;
  --sol-element-quaternary: #858585;
  --sol-border-normal-variant: #ebebeb;
  --sol-border-solid-variant: #e0e0e0;
  --sol-static-white: #ffffff;
  --sol-static-black: #000000;
}
@media (prefers-color-scheme: dark) {
  :root {
    --sol-primary: #9791d4;
    --sol-surface: #161616;
    --sol-element-primary: #ffffff;
    --sol-element-quaternary: rgba(255, 255, 255, 0.5);
    --sol-border-normal-variant: rgba(255, 255, 255, 0.08);
    --sol-border-solid-variant: #3d3d3d;
  }
}
</style>
<g clip-path="url(#clip0_1668_177094)">
<g filter="url(#filter0_d_1668_177094)">
<path d="M-415 36C-415 32.6863 -412.314 30 -409 30H409C412.314 30 415 32.6863 415 36V228C415 231.314 412.314 234 409 234H-409C-412.314 234 -415 231.314 -415 228V36Z" fill="var(--sol-surface)"/>
<path d="M409 29.5C412.59 29.5 415.5 32.4101 415.5 36V228C415.5 231.59 412.59 234.5 409 234.5H-409C-412.59 234.5 -415.5 231.59 -415.5 228V36L-415.491 35.665C-415.317 32.2309 -412.478 29.5 -409 29.5H409Z" stroke="var(--sol-border-solid-variant)"/>
<path d="M261 58C261 54.2288 261 52.3431 262.172 51.1716C263.343 50 265.229 50 269 50H352V86H269C265.229 86 263.343 86 262.172 84.8284C261 83.6569 261 81.7712 261 78V58Z" fill="var(--sol-primary)"/>
<path d="M297.944 73V63.1016H304.384V64.5918H299.722V67.2988H304.042V68.7891H299.722V71.4961H304.411V73H297.944ZM307.433 65.5762L308.937 68.3242L310.468 65.5762H312.313L310.071 69.2812L312.354 73H310.522L308.937 70.3203L307.392 73H305.532L307.802 69.2812L305.587 65.5762H307.433ZM313.544 75.7891V65.5762H315.253V66.793H315.362C315.636 66.2598 316.183 65.4805 317.495 65.4805C319.204 65.4805 320.558 66.8203 320.558 69.2949C320.558 71.7422 319.245 73.1367 317.495 73.1367C316.21 73.1367 315.636 72.3711 315.362 71.8242H315.294V75.7891H313.544ZM315.253 69.2812C315.253 70.7305 315.882 71.7012 317.017 71.7012C318.165 71.7012 318.78 70.6895 318.78 69.2812C318.78 67.9004 318.179 66.9023 317.017 66.9023C315.882 66.9023 315.253 67.8457 315.253 69.2812ZM325.165 73.1504C323.005 73.1504 321.61 71.6191 321.61 69.3223C321.61 67.0117 323.005 65.4805 325.165 65.4805C327.339 65.4805 328.72 67.0117 328.72 69.3223C328.72 71.6191 327.339 73.1504 325.165 73.1504ZM325.179 71.7559C326.368 71.7559 326.956 70.6758 326.956 69.3086C326.956 67.9551 326.368 66.8613 325.179 66.8613C323.962 66.8613 323.374 67.9551 323.374 69.3086C323.374 70.6758 323.962 71.7559 325.179 71.7559ZM330.073 73V65.5762H331.769V66.8066H331.851C332.11 65.959 332.835 65.4668 333.683 65.4668C333.874 65.4668 334.147 65.4805 334.312 65.5078V67.1211C334.161 67.0664 333.792 67.0117 333.505 67.0117C332.534 67.0117 331.823 67.6816 331.823 68.625V73H330.073ZM339.466 65.5762V66.916H338.003V70.7715C338.003 71.4824 338.358 71.6328 338.796 71.6328C339.001 71.6328 339.343 71.6191 339.562 71.6055V73.0273C339.356 73.0684 339.015 73.0957 338.577 73.0957C337.265 73.0957 336.253 72.4531 336.267 71.0586V66.916H335.2V65.5762H336.267V63.7988H338.003V65.5762H339.466Z" fill="var(--sol-surface)"/>
<path d="M277.214 72.1667V63.8333C277.214 62.8208 278.035 62 279.047 62H283.214V63H279.047C278.587 63 278.214 63.3731 278.214 63.8333V72.1667C278.214 72.6269 278.587 73 279.047 73H287.381C287.841 73 288.214 72.6269 288.214 72.1667V68H289.214V72.1667C289.214 73.1792 288.393 74 287.381 74H279.047C278.035 74 277.214 73.1792 277.214 72.1667Z" fill="var(--sol-surface)"/>
<path d="M289.214 66.763H288.214V63.707L283.07 68.8516L282.362 68.1445L287.507 63H284.451V62H288.714C288.99 62.0001 289.214 62.2239 289.214 62.5V66.763Z" fill="var(--sol-surface)"/>
<path d="M354 50H382C385.771 50 387.657 50 388.828 51.1716C390 52.3431 390 54.2288 390 58V78C390 81.7712 390 83.6569 388.828 84.8284C387.657 86 385.771 86 382 86H354V50Z" fill="var(--sol-primary)"/>
<path d="M354 50H386C388.209 50 390 51.7909 390 54V82C390 84.2091 388.209 86 386 86H354V50Z" fill="var(--sol-surface)" fill-opacity="0.12"/>
<path d="M375.354 66.3535L371.354 70.3535C371.158 70.5488 370.842 70.5488 370.646 70.3535L366.646 66.3535L367.354 65.6465L371 69.293L374.646 65.6465L375.354 66.3535Z" fill="var(--sol-surface)"/>
<g filter="url(#filter1_dd_1668_177094)">
<g clip-path="url(#clip1_1668_177094)">
<path d="M202 94C202 91.7909 203.791 90 206 90H386C388.209 90 390 91.7909 390 94V214C390 216.209 388.209 218 386 218H206C203.791 218 202 216.209 202 214V94Z" fill="var(--sol-surface)"/>
<g clip-path="url(#clip2_1668_177094)">
<g clip-path="url(#clip3_1668_177094)">
<path d="M215.094 114V104.102H221.096V105.195H216.324V108.504H220.781V109.584H216.324V112.906H221.164V114H215.094ZM223.775 106.576L225.525 109.598L227.289 106.576H228.643L226.25 110.281L228.643 114H227.303L225.525 111.129L223.775 114H222.422L224.76 110.281L222.422 106.576H223.775ZM230.064 116.789V106.576H231.199V107.752H231.336C231.582 107.355 232.047 106.48 233.482 106.48C235.342 106.48 236.641 107.957 236.641 110.309C236.641 112.66 235.342 114.15 233.496 114.15C232.074 114.15 231.582 113.275 231.336 112.865H231.24V116.789H230.064ZM231.213 110.281C231.213 111.949 231.965 113.098 233.332 113.098C234.74 113.098 235.465 111.867 235.465 110.281C235.465 108.736 234.754 107.533 233.332 107.533C231.938 107.533 231.213 108.641 231.213 110.281ZM241.207 114.15C239.184 114.15 237.816 112.633 237.816 110.322C237.816 108.012 239.184 106.48 241.207 106.48C243.217 106.48 244.57 108.012 244.57 110.322C244.57 112.633 243.217 114.15 241.207 114.15ZM241.207 113.111C242.697 113.111 243.395 111.799 243.395 110.322C243.395 108.846 242.697 107.52 241.207 107.52C239.689 107.52 238.992 108.846 238.992 110.322C238.992 111.799 239.689 113.111 241.207 113.111ZM246.115 114V106.576H247.25V107.711H247.332C247.605 106.959 248.371 106.453 249.246 106.453C249.424 106.453 249.725 106.467 249.861 106.48V107.67C249.779 107.643 249.451 107.588 249.15 107.588C248.084 107.588 247.291 108.326 247.291 109.324V114H246.115ZM254.715 106.576V107.561H253.156V111.867C253.156 112.824 253.621 112.975 254.127 112.975C254.346 112.975 254.646 112.961 254.824 112.947V114.041C254.646 114.068 254.346 114.096 254.004 114.096C253.02 114.096 251.967 113.48 251.967 112.168V107.561H250.846V106.576H251.967V104.799H253.156V106.576H254.715ZM259.391 111.895C259.391 110.186 260.895 109.803 262.18 109.707C262.651 109.673 263.854 109.611 264.189 109.598V108.996C264.189 108.053 263.629 107.506 262.508 107.506C261.564 107.506 261.004 107.943 260.84 108.504H259.609C259.76 107.314 260.922 106.48 262.562 106.48C263.533 106.48 265.352 106.768 265.352 109.105V114H264.189V112.988H264.135C263.889 113.494 263.205 114.178 261.92 114.178C260.512 114.178 259.391 113.344 259.391 111.895ZM260.566 111.949C260.566 112.729 261.223 113.125 262.125 113.125C263.451 113.125 264.189 112.236 264.189 111.307V110.555L262.316 110.691C261.25 110.76 260.566 111.143 260.566 111.949ZM271.367 108.504C271.203 107.889 270.738 107.479 269.863 107.479C268.947 107.479 268.291 107.971 268.291 108.6C268.291 109.092 268.688 109.434 269.562 109.639L270.67 109.912C271.996 110.227 272.652 110.883 272.652 111.922C272.652 113.207 271.6 114.15 269.74 114.15C268.072 114.15 267.074 113.412 266.883 112.059H268.113C268.25 112.783 268.783 113.125 269.713 113.125C270.766 113.125 271.436 112.688 271.436 111.99C271.436 111.471 271.066 111.115 270.219 110.924L269.098 110.664C267.799 110.363 267.115 109.652 267.115 108.668C267.115 107.396 268.223 106.48 269.863 106.48C271.395 106.48 272.365 107.301 272.516 108.504H271.367ZM278.477 104.102L280.992 108.189H281.074L283.604 104.102H285.053L281.949 109.051L285.053 114H283.604L281.074 109.994H280.992L278.463 114H277.014L280.199 109.051L277.014 104.102H278.477ZM286.42 114V104.102H287.65V112.906H292.244V114H286.42ZM299.285 106.59C299.176 105.619 298.287 105.059 297.098 105.059C295.785 105.059 294.924 105.742 294.924 106.686C294.924 107.725 296.086 108.107 296.838 108.299L297.822 108.572C298.889 108.846 300.625 109.461 300.625 111.307C300.625 112.92 299.326 114.178 297.029 114.178C294.896 114.178 293.57 113.07 293.461 111.43H294.719C294.828 112.537 295.854 113.057 297.029 113.057C298.396 113.057 299.422 112.359 299.422 111.279C299.422 110.322 298.506 109.953 297.467 109.652L296.25 109.324C294.691 108.873 293.734 108.08 293.734 106.74C293.734 105.072 295.225 103.965 297.139 103.965C299.053 103.965 300.434 105.086 300.488 106.59H299.285ZM303.018 104.102L305.533 108.189H305.615L308.145 104.102H309.594L306.49 109.051L309.594 114H308.145L305.615 109.994H305.533L303.004 114H301.555L304.74 109.051L301.555 104.102H303.018Z" fill="var(--sol-element-primary)"/>
</g>
<g clip-path="url(#clip4_1668_177094)">
<path d="M215.094 144V134.102H221.096V135.195H216.324V138.504H220.781V139.584H216.324V142.906H221.164V144H215.094ZM223.775 136.576L225.525 139.598L227.289 136.576H228.643L226.25 140.281L228.643 144H227.303L225.525 141.129L223.775 144H222.422L224.76 140.281L222.422 136.576H223.775ZM230.064 146.789V136.576H231.199V137.752H231.336C231.582 137.355 232.047 136.48 233.482 136.48C235.342 136.48 236.641 137.957 236.641 140.309C236.641 142.66 235.342 144.15 233.496 144.15C232.074 144.15 231.582 143.275 231.336 142.865H231.24V146.789H230.064ZM231.213 140.281C231.213 141.949 231.965 143.098 233.332 143.098C234.74 143.098 235.465 141.867 235.465 140.281C235.465 138.736 234.754 137.533 233.332 137.533C231.938 137.533 231.213 138.641 231.213 140.281ZM241.207 144.15C239.184 144.15 237.816 142.633 237.816 140.322C237.816 138.012 239.184 136.48 241.207 136.48C243.217 136.48 244.57 138.012 244.57 140.322C244.57 142.633 243.217 144.15 241.207 144.15ZM241.207 143.111C242.697 143.111 243.395 141.799 243.395 140.322C243.395 138.846 242.697 137.52 241.207 137.52C239.689 137.52 238.992 138.846 238.992 140.322C238.992 141.799 239.689 143.111 241.207 143.111ZM246.115 144V136.576H247.25V137.711H247.332C247.605 136.959 248.371 136.453 249.246 136.453C249.424 136.453 249.725 136.467 249.861 136.48V137.67C249.779 137.643 249.451 137.588 249.15 137.588C248.084 137.588 247.291 138.326 247.291 139.324V144H246.115ZM254.715 136.576V137.561H253.156V141.867C253.156 142.824 253.621 142.975 254.127 142.975C254.346 142.975 254.646 142.961 254.824 142.947V144.041C254.646 144.068 254.346 144.096 254.004 144.096C253.02 144.096 251.967 143.48 251.967 142.168V137.561H250.846V136.576H251.967V134.799H253.156V136.576H254.715ZM259.391 141.895C259.391 140.186 260.895 139.803 262.18 139.707C262.651 139.673 263.854 139.611 264.189 139.598V138.996C264.189 138.053 263.629 137.506 262.508 137.506C261.564 137.506 261.004 137.943 260.84 138.504H259.609C259.76 137.314 260.922 136.48 262.562 136.48C263.533 136.48 265.352 136.768 265.352 139.105V144H264.189V142.988H264.135C263.889 143.494 263.205 144.178 261.92 144.178C260.512 144.178 259.391 143.344 259.391 141.895ZM260.566 141.949C260.566 142.729 261.223 143.125 262.125 143.125C263.451 143.125 264.189 142.236 264.189 141.307V140.555L262.316 140.691C261.25 140.76 260.566 141.143 260.566 141.949ZM271.367 138.504C271.203 137.889 270.738 137.479 269.863 137.479C268.947 137.479 268.291 137.971 268.291 138.6C268.291 139.092 268.688 139.434 269.562 139.639L270.67 139.912C271.996 140.227 272.652 140.883 272.652 141.922C272.652 143.207 271.6 144.15 269.74 144.15C268.072 144.15 267.074 143.412 266.883 142.059H268.113C268.25 142.783 268.783 143.125 269.713 143.125C270.766 143.125 271.436 142.688 271.436 141.99C271.436 141.471 271.066 141.115 270.219 140.924L269.098 140.664C267.799 140.363 267.115 139.652 267.115 138.668C267.115 137.396 268.223 136.48 269.863 136.48C271.395 136.48 272.365 137.301 272.516 138.504H271.367ZM277.848 144V134.102H281.211C283.535 134.102 284.588 135.482 284.588 137.246C284.588 138.996 283.535 140.404 281.225 140.404H279.078V144H277.848ZM279.078 139.311H281.17C282.742 139.311 283.371 138.422 283.371 137.246C283.371 136.057 282.742 135.195 281.156 135.195H279.078V139.311ZM289.387 144H286.311V134.102H289.51C292.395 134.102 294.104 135.961 294.104 139.037C294.104 142.127 292.395 144 289.387 144ZM287.541 142.906H289.305C291.738 142.906 292.9 141.443 292.9 139.037C292.9 136.645 291.738 135.195 289.428 135.195H287.541V142.906ZM295.908 144V134.102H301.869V135.195H297.139V138.504H301.418V139.584H297.139V144H295.908Z" fill="var(--sol-element-primary)"/>
</g>
<g clip-path="url(#clip5_1668_177094)">
<path d="M220.494 166.59C220.385 165.619 219.496 165.059 218.307 165.059C216.994 165.059 216.133 165.742 216.133 166.686C216.133 167.725 217.295 168.107 218.047 168.299L219.031 168.572C220.098 168.846 221.834 169.461 221.834 171.307C221.834 172.92 220.535 174.178 218.238 174.178C216.105 174.178 214.779 173.07 214.67 171.43H215.928C216.037 172.537 217.062 173.057 218.238 173.057C219.605 173.057 220.631 172.359 220.631 171.279C220.631 170.322 219.715 169.953 218.676 169.652L217.459 169.324C215.9 168.873 214.943 168.08 214.943 166.74C214.943 165.072 216.434 163.965 218.348 163.965C220.262 163.965 221.643 165.086 221.697 166.59H220.494ZM226.482 174.15C224.377 174.15 223.092 172.551 223.092 170.322C223.092 168.066 224.432 166.48 226.455 166.48C228.041 166.48 229.217 167.41 229.408 168.818H228.232C228.068 168.135 227.467 167.52 226.482 167.52C225.156 167.52 224.268 168.613 224.268 170.281C224.268 172.004 225.129 173.098 226.482 173.098C227.357 173.098 228.027 172.633 228.232 171.812H229.408C229.217 173.139 228.137 174.15 226.482 174.15ZM232.033 169.543V174H230.857V164.102H232.033V167.738H232.129C232.471 166.973 233.141 166.48 234.316 166.48C235.834 166.48 236.846 167.383 236.846 169.283V174H235.67V169.365C235.67 168.203 235.027 167.533 233.961 167.533C232.854 167.533 232.033 168.258 232.033 169.543ZM241.85 174.15C239.703 174.15 238.377 172.633 238.377 170.35C238.377 168.066 239.717 166.48 241.74 166.48C243.299 166.48 244.939 167.438 244.939 170.186V170.678H239.553C239.607 172.25 240.523 173.111 241.85 173.111C242.738 173.111 243.299 172.729 243.572 172.264H244.83C244.475 173.385 243.381 174.15 241.85 174.15ZM239.566 169.68H243.75C243.75 168.436 242.957 167.52 241.74 167.52C240.455 167.52 239.635 168.531 239.566 169.68ZM249.273 174.15C247.428 174.15 246.115 172.66 246.115 170.309C246.115 167.957 247.428 166.48 249.287 166.48C250.723 166.48 251.188 167.355 251.434 167.752H251.516V164.102H252.705V174H251.557V172.865H251.434C251.174 173.275 250.695 174.15 249.273 174.15ZM249.438 173.098C250.791 173.098 251.557 171.949 251.557 170.281C251.557 168.641 250.818 167.533 249.438 167.533C248.016 167.533 247.305 168.736 247.305 170.281C247.305 171.867 248.029 173.098 249.438 173.098ZM259.432 170.951V166.576H260.594V174H259.432V172.742H259.35C258.994 173.494 258.27 174.096 257.148 174.096C255.74 174.096 254.742 173.18 254.742 171.293V166.576H255.918V171.211C255.918 172.277 256.588 172.961 257.531 172.961C258.365 172.961 259.432 172.332 259.432 170.951ZM263.656 164.102V174H262.48V164.102H263.656ZM268.646 174.15C266.5 174.15 265.174 172.633 265.174 170.35C265.174 168.066 266.514 166.48 268.537 166.48C270.096 166.48 271.736 167.438 271.736 170.186V170.678H266.35C266.404 172.25 267.32 173.111 268.646 173.111C269.535 173.111 270.096 172.729 270.369 172.264H271.627C271.271 173.385 270.178 174.15 268.646 174.15ZM266.363 169.68H270.547C270.547 168.436 269.754 167.52 268.537 167.52C267.252 167.52 266.432 168.531 266.363 169.68ZM279.898 174.15C277.752 174.15 276.426 172.633 276.426 170.35C276.426 168.066 277.766 166.48 279.789 166.48C281.348 166.48 282.988 167.438 282.988 170.186V170.678H277.602C277.656 172.25 278.572 173.111 279.898 173.111C280.787 173.111 281.348 172.729 281.621 172.264H282.879C282.523 173.385 281.43 174.15 279.898 174.15ZM277.615 169.68H281.799C281.799 168.436 281.006 167.52 279.789 167.52C278.504 167.52 277.684 168.531 277.615 169.68ZM285.217 166.576L286.967 169.598L288.73 166.576H290.084L287.691 170.281L290.084 174H288.744L286.967 171.129L285.217 174H283.863L286.201 170.281L283.863 166.576H285.217ZM291.506 176.789V166.576H292.641V167.752H292.777C293.023 167.355 293.488 166.48 294.924 166.48C296.783 166.48 298.082 167.957 298.082 170.309C298.082 172.66 296.783 174.15 294.938 174.15C293.516 174.15 293.023 173.275 292.777 172.865H292.682V176.789H291.506ZM292.654 170.281C292.654 171.949 293.406 173.098 294.773 173.098C296.182 173.098 296.906 171.867 296.906 170.281C296.906 168.736 296.195 167.533 294.773 167.533C293.379 167.533 292.654 168.641 292.654 170.281ZM302.648 174.15C300.625 174.15 299.258 172.633 299.258 170.322C299.258 168.012 300.625 166.48 302.648 166.48C304.658 166.48 306.012 168.012 306.012 170.322C306.012 172.633 304.658 174.15 302.648 174.15ZM302.648 173.111C304.139 173.111 304.836 171.799 304.836 170.322C304.836 168.846 304.139 167.52 302.648 167.52C301.131 167.52 300.434 168.846 300.434 170.322C300.434 171.799 301.131 173.111 302.648 173.111ZM307.557 174V166.576H308.691V167.711H308.773C309.047 166.959 309.812 166.453 310.688 166.453C310.865 166.453 311.166 166.467 311.303 166.48V167.67C311.221 167.643 310.893 167.588 310.592 167.588C309.525 167.588 308.732 168.326 308.732 169.324V174H307.557ZM316.156 166.576V167.561H314.598V171.867C314.598 172.824 315.062 172.975 315.568 172.975C315.787 172.975 316.088 172.961 316.266 172.947V174.041C316.088 174.068 315.787 174.096 315.445 174.096C314.461 174.096 313.408 173.48 313.408 172.168V167.561H312.287V166.576H313.408V164.799H314.598V166.576H316.156Z" fill="var(--sol-element-primary)"/>
</g>
<g clip-path="url(#clip6_1668_177094)">
<path d="M215.094 204V194.102H221.096V195.195H216.324V198.504H220.781V199.584H216.324V202.906H221.164V204H215.094ZM223.775 196.576L225.525 199.598L227.289 196.576H228.643L226.25 200.281L228.643 204H227.303L225.525 201.129L223.775 204H222.422L224.76 200.281L222.422 196.576H223.775ZM230.064 206.789V196.576H231.199V197.752H231.336C231.582 197.355 232.047 196.48 233.482 196.48C235.342 196.48 236.641 197.957 236.641 200.309C236.641 202.66 235.342 204.15 233.496 204.15C232.074 204.15 231.582 203.275 231.336 202.865H231.24V206.789H230.064ZM231.213 200.281C231.213 201.949 231.965 203.098 233.332 203.098C234.74 203.098 235.465 201.867 235.465 200.281C235.465 198.736 234.754 197.533 233.332 197.533C231.938 197.533 231.213 198.641 231.213 200.281ZM241.207 204.15C239.184 204.15 237.816 202.633 237.816 200.322C237.816 198.012 239.184 196.48 241.207 196.48C243.217 196.48 244.57 198.012 244.57 200.322C244.57 202.633 243.217 204.15 241.207 204.15ZM241.207 203.111C242.697 203.111 243.395 201.799 243.395 200.322C243.395 198.846 242.697 197.52 241.207 197.52C239.689 197.52 238.992 198.846 238.992 200.322C238.992 201.799 239.689 203.111 241.207 203.111ZM246.115 204V196.576H247.25V197.711H247.332C247.605 196.959 248.371 196.453 249.246 196.453C249.424 196.453 249.725 196.467 249.861 196.48V197.67C249.779 197.643 249.451 197.588 249.15 197.588C248.084 197.588 247.291 198.326 247.291 199.324V204H246.115ZM254.715 196.576V197.561H253.156V201.867C253.156 202.824 253.621 202.975 254.127 202.975C254.346 202.975 254.646 202.961 254.824 202.947V204.041C254.646 204.068 254.346 204.096 254.004 204.096C253.02 204.096 251.967 203.48 251.967 202.168V197.561H250.846V196.576H251.967V194.799H253.156V196.576H254.715ZM259.391 201.895C259.391 200.186 260.895 199.803 262.18 199.707C262.651 199.673 263.854 199.611 264.189 199.598V198.996C264.189 198.053 263.629 197.506 262.508 197.506C261.564 197.506 261.004 197.943 260.84 198.504H259.609C259.76 197.314 260.922 196.48 262.562 196.48C263.533 196.48 265.352 196.768 265.352 199.105V204H264.189V202.988H264.135C263.889 203.494 263.205 204.178 261.92 204.178C260.512 204.178 259.391 203.344 259.391 201.895ZM260.566 201.949C260.566 202.729 261.223 203.125 262.125 203.125C263.451 203.125 264.189 202.236 264.189 201.307V200.555L262.316 200.691C261.25 200.76 260.566 201.143 260.566 201.949ZM271.367 198.504C271.203 197.889 270.738 197.479 269.863 197.479C268.947 197.479 268.291 197.971 268.291 198.6C268.291 199.092 268.688 199.434 269.562 199.639L270.67 199.912C271.996 200.227 272.652 200.883 272.652 201.922C272.652 203.207 271.6 204.15 269.74 204.15C268.072 204.15 267.074 203.412 266.883 202.059H268.113C268.25 202.783 268.783 203.125 269.713 203.125C270.766 203.125 271.436 202.688 271.436 201.99C271.436 201.471 271.066 201.115 270.219 200.924L269.098 200.664C267.799 200.363 267.115 199.652 267.115 198.668C267.115 197.396 268.223 196.48 269.863 196.48C271.395 196.48 272.365 197.301 272.516 198.504H271.367ZM284.602 197.219C284.314 195.852 283.139 195.113 281.84 195.113C280.049 195.113 278.654 196.494 278.654 199.051C278.654 201.607 280.049 202.988 281.84 202.988C283.139 202.988 284.301 202.25 284.602 200.896H285.832C285.477 202.92 283.85 204.137 281.84 204.137C279.297 204.137 277.465 202.182 277.465 199.051C277.465 195.92 279.297 193.965 281.84 193.965C283.836 193.965 285.463 195.168 285.832 197.219H284.602ZM292.955 196.59C292.846 195.619 291.957 195.059 290.768 195.059C289.455 195.059 288.594 195.742 288.594 196.686C288.594 197.725 289.756 198.107 290.508 198.299L291.492 198.572C292.559 198.846 294.295 199.461 294.295 201.307C294.295 202.92 292.996 204.178 290.699 204.178C288.566 204.178 287.24 203.07 287.131 201.43H288.389C288.498 202.537 289.523 203.057 290.699 203.057C292.066 203.057 293.092 202.359 293.092 201.279C293.092 200.322 292.176 199.953 291.137 199.652L289.92 199.324C288.361 198.873 287.404 198.08 287.404 196.74C287.404 195.072 288.895 193.965 290.809 193.965C292.723 193.965 294.104 195.086 294.158 196.59H292.955ZM296.51 194.102L299.422 202.4H299.531L302.457 194.102H303.756L300.133 204H298.834L295.211 194.102H296.51Z" fill="var(--sol-element-primary)"/>
</g>
</g>
<g clip-path="url(#clip7_1668_177094)">
<rect x="382" y="94.0879" width="4" height="60" fill="var(--sol-border-solid-variant)"/>
</g>
</g>
</g>
</g>
</g>
<defs>
<filter id="filter0_d_1668_177094" x="-418" y="29" width="836" height="210" filterUnits="userSpaceOnUse" color-interpolation-filters="sRGB">
<feFlood flood-opacity="0" result="BackgroundImageFix"/>
<feColorMatrix in="SourceAlpha" type="matrix" values="0 0 0 0 0 0 0 0 0 0 0 0 0 0 0 0 0 0 127 0" result="hardAlpha"/>
<feOffset dy="2"/>
<feGaussianBlur stdDeviation="1"/>
<feComposite in2="hardAlpha" operator="out"/>
<feColorMatrix type="matrix" values="0 0 0 0 0 0 0 0 0 0 0 0 0 0 0 0 0 0 0.04 0"/>
<feBlend mode="normal" in2="BackgroundImageFix" result="effect1_dropShadow_1668_177094"/>
<feBlend mode="normal" in="SourceGraphic" in2="effect1_dropShadow_1668_177094" result="shape"/>
</filter>
<filter id="filter1_dd_1668_177094" x="194" y="86" width="204" height="144" filterUnits="userSpaceOnUse" color-interpolation-filters="sRGB">
<feFlood flood-opacity="0" result="BackgroundImageFix"/>
<feColorMatrix in="SourceAlpha" type="matrix" values="0 0 0 0 0 0 0 0 0 0 0 0 0 0 0 0 0 0 127 0" result="hardAlpha"/>
<feOffset dy="4"/>
<feGaussianBlur stdDeviation="4"/>
<feComposite in2="hardAlpha" operator="out"/>
<feColorMatrix type="matrix" values="0 0 0 0 0 0 0 0 0 0 0 0 0 0 0 0 0 0 0.08 0"/>
<feBlend mode="normal" in2="BackgroundImageFix" result="effect1_dropShadow_1668_177094"/>
<feColorMatrix in="SourceAlpha" type="matrix" values="0 0 0 0 0 0 0 0 0 0 0 0 0 0 0 0 0 0 127 0" result="hardAlpha"/>
<feOffset/>
<feGaussianBlur stdDeviation="0.5"/>
<feComposite in2="hardAlpha" operator="out"/>
<feColorMatrix type="matrix" values="0 0 0 0 0 0 0 0 0 0 0 0 0 0 0 0 0 0 0.08 0"/>
<feBlend mode="normal" in2="effect1_dropShadow_1668_177094" result="effect2_dropShadow_1668_177094"/>
<feBlend mode="normal" in="SourceGraphic" in2="effect2_dropShadow_1668_177094" result="shape"/>
</filter>
<clipPath id="clip0_1668_177094">
<rect width="442" height="220" rx="8" fill="var(--sol-surface)"/>
</clipPath>
<clipPath id="clip1_1668_177094">
<path d="M202 94C202 91.7909 203.791 90 206 90H386C388.209 90 390 91.7909 390 94V214C390 216.209 388.209 218 386 218H206C203.791 218 202 216.209 202 214V94Z" fill="var(--sol-surface)"/>
</clipPath>
<clipPath id="clip2_1668_177094">
<rect width="180" height="120" fill="var(--sol-surface)" transform="translate(206 94)"/>
</clipPath>
<clipPath id="clip3_1668_177094">
<path d="M206 96C206 94.8954 206.895 94 208 94H384C385.105 94 386 94.8954 386 96V122C386 123.105 385.105 124 384 124H208C206.895 124 206 123.105 206 122V96Z" fill="var(--sol-surface)"/>
</clipPath>
<clipPath id="clip4_1668_177094">
<path d="M206 126C206 124.895 206.895 124 208 124H384C385.105 124 386 124.895 386 126V152C386 153.105 385.105 154 384 154H208C206.895 154 206 153.105 206 152V126Z" fill="var(--sol-surface)"/>
</clipPath>
<clipPath id="clip5_1668_177094">
<path d="M206 156C206 154.895 206.895 154 208 154H384C385.105 154 386 154.895 386 156V182C386 183.105 385.105 184 384 184H208C206.895 184 206 183.105 206 182V156Z" fill="var(--sol-surface)"/>
</clipPath>
<clipPath id="clip6_1668_177094">
<path d="M206 186C206 184.895 206.895 184 208 184H384C385.105 184 386 184.895 386 186V212C386 213.105 385.105 214 384 214H208C206.895 214 206 213.105 206 212V186Z" fill="var(--sol-surface)"/>
</clipPath>
<clipPath id="clip7_1668_177094">
<path d="M382 96.0879C382 94.9833 382.895 94.0879 384 94.0879V94.0879C385.105 94.0879 386 94.9833 386 96.0879V152.088C386 153.192 385.105 154.088 384 154.088V154.088C382.895 154.088 382 153.192 382 152.088V96.0879Z" fill="var(--sol-surface)"/>
</clipPath>
</defs>
</svg>
