<svg width="442" height="220" viewBox="0 0 442 220" fill="none" xmlns="http://www.w3.org/2000/svg">
<style>
:root {
  --sol-primary: #282363;
  --sol-surface: #ffffff;
  --sol-element-primary: #161616;
  --sol-element-quaternary: #858585;
  --sol-border-normal-variant: #ebebeb;
  --sol-border-solid-variant: #e0e0e0;
  --sol-static-white: #ffffff;
  --sol-static-black: #000000;
}
@media (prefers-color-scheme: dark) {
  :root {
    --sol-primary: #9791d4;
    --sol-surface: #161616;
    --sol-element-primary: #ffffff;
    --sol-element-quaternary: rgba(255, 255, 255, 0.5);
    --sol-border-normal-variant: rgba(255, 255, 255, 0.08);
    --sol-border-solid-variant: #3d3d3d;
  }
}
</style>
<g clip-path="url(#clip0_1668_177115)">
<g clip-path="url(#clip1_1668_177115)">
<g filter="url(#filter0_d_1668_177115)">
<g clip-path="url(#clip2_1668_177115)">
<path d="M-418 36C-418 32.6863 -415.314 30 -412 30H406C409.314 30 412 32.6863 412 36V228C412 231.314 409.314 234 406 234H-412C-415.314 234 -418 231.314 -418 228V36Z" fill="var(--sol-surface)"/>
<path d="M223 58C223 54.2288 223 52.3431 224.172 51.1716C225.343 50 227.229 50 231 50H355V86H231C227.229 86 225.343 86 224.172 84.8284C223 83.6569 223 81.7712 223 78V58Z" fill="var(--sol-primary)"/>
<path d="M261.338 73H259.438L262.924 63.1016H265.111L268.611 73H266.711L265.891 70.5527H262.158L261.338 73ZM262.637 69.1172H265.412L264.059 65.125H263.977L262.637 69.1172ZM272.248 73.1367C270.498 73.1367 269.186 71.7422 269.186 69.2949C269.186 66.8203 270.539 65.4805 272.262 65.4805C273.574 65.4805 274.121 66.2598 274.381 66.793H274.449V63.1016H276.186V73H274.477V71.8242H274.381C274.107 72.3711 273.533 73.1367 272.248 73.1367ZM272.727 71.7012C273.848 71.7012 274.49 70.7305 274.49 69.2812C274.49 67.8457 273.861 66.9023 272.727 66.9023C271.564 66.9023 270.963 67.9004 270.963 69.2812C270.963 70.6895 271.578 71.7012 272.727 71.7012ZM280.711 73.1367C278.961 73.1367 277.648 71.7422 277.648 69.2949C277.648 66.8203 279.002 65.4805 280.725 65.4805C282.037 65.4805 282.584 66.2598 282.844 66.793H282.912V63.1016H284.648V73H282.939V71.8242H282.844C282.57 72.3711 281.996 73.1367 280.711 73.1367ZM281.189 71.7012C282.311 71.7012 282.953 70.7305 282.953 69.2812C282.953 67.8457 282.324 66.9023 281.189 66.9023C280.027 66.9023 279.426 67.9004 279.426 69.2812C279.426 70.6895 280.041 71.7012 281.189 71.7012ZM289.816 63.1016H292.004L294.943 70.293H295.066L298.006 63.1016H300.193V73H298.484V66.1914H298.389L295.641 72.9727H294.369L291.621 66.1641H291.539V73H289.816V63.1016ZM305.238 73.1504C302.996 73.1504 301.629 71.6602 301.629 69.3359C301.629 67.0391 303.023 65.4805 305.143 65.4805C306.961 65.4805 308.533 66.6152 308.533 69.2266V69.7734H303.352C303.372 71.0381 304.117 71.7832 305.252 71.7832C306.018 71.7832 306.537 71.4551 306.756 71.0176H308.465C308.15 72.3027 306.961 73.1504 305.238 73.1504ZM303.365 68.584H306.865C306.852 67.5723 306.182 66.834 305.17 66.834C304.117 66.834 303.42 67.6338 303.365 68.584ZM309.887 73V65.5762H311.555V66.834H311.65C311.951 65.9863 312.703 65.4805 313.688 65.4805C314.699 65.4805 315.41 65.9863 315.697 66.834H315.779C316.107 66.0137 316.928 65.4805 318.008 65.4805C319.361 65.4805 320.318 66.3555 320.318 68.0098V73H318.582V68.2832C318.582 67.3535 318.021 66.9434 317.311 66.9434C316.449 66.9434 315.957 67.5312 315.957 68.3652V73H314.262V68.2148C314.262 67.4492 313.742 66.9434 313.004 66.9434C312.252 66.9434 311.637 67.5586 311.637 68.4883V73H309.887ZM322.068 73V63.1016H323.818V66.793H323.887C324.16 66.2598 324.693 65.4805 326.006 65.4805C327.729 65.4805 329.082 66.8203 329.082 69.2949C329.082 71.7422 327.756 73.1367 326.02 73.1367C324.734 73.1367 324.16 72.3711 323.887 71.8242H323.777V73H322.068ZM323.777 69.2812C323.777 70.7305 324.406 71.7012 325.527 71.7012C326.689 71.7012 327.305 70.6895 327.305 69.2812C327.305 67.9004 326.703 66.9023 325.527 66.9023C324.406 66.9023 323.777 67.8457 323.777 69.2812ZM333.744 73.1504C331.502 73.1504 330.135 71.6602 330.135 69.3359C330.135 67.0391 331.529 65.4805 333.648 65.4805C335.467 65.4805 337.039 66.6152 337.039 69.2266V69.7734H331.857C331.878 71.0381 332.623 71.7832 333.758 71.7832C334.523 71.7832 335.043 71.4551 335.262 71.0176H336.971C336.656 72.3027 335.467 73.1504 333.744 73.1504ZM331.871 68.584H335.371C335.357 67.5723 334.688 66.834 333.676 66.834C332.623 66.834 331.926 67.6338 331.871 68.584ZM338.393 73V65.5762H340.088V66.8066H340.17C340.43 65.959 341.154 65.4668 342.002 65.4668C342.193 65.4668 342.467 65.4805 342.631 65.5078V67.1211C342.48 67.0664 342.111 67.0117 341.824 67.0117C340.854 67.0117 340.143 67.6816 340.143 68.625V73H338.393Z" fill="var(--sol-surface)"/>
<path d="M244.381 68.5H239.381V67.5H244.381V62.5H245.381V67.5H250.381V68.5H245.381V73.5H244.381V68.5Z" fill="var(--sol-surface)"/>
<path d="M356 50H384C387.771 50 389.657 50 390.828 51.1716C392 52.3431 392 54.2288 392 58V78C392 81.7712 392 83.6569 390.828 84.8284C389.657 86 387.771 86 384 86H356V50Z" fill="var(--sol-primary)"/>
<path d="M356 50H388C390.209 50 392 51.7909 392 54V82C392 84.2091 390.209 86 388 86H356V50Z" fill="var(--sol-surface)" fill-opacity="0.12"/>
<path d="M377.354 66.3535L373.354 70.3535C373.158 70.5488 372.842 70.5488 372.646 70.3535L368.646 66.3535L369.354 65.6465L373 69.293L376.646 65.6465L377.354 66.3535Z" fill="var(--sol-surface)"/>
<g filter="url(#filter1_dd_1668_177115)">
<g clip-path="url(#clip3_1668_177115)">
<path d="M223 94C223 91.7909 224.791 90 227 90H407C409.209 90 411 91.7909 411 94V406C411 408.209 409.209 410 407 410H227C224.791 410 223 408.209 223 406V94Z" fill="var(--sol-surface)"/>
<g clip-path="url(#clip4_1668_177115)">
<g clip-path="url(#clip5_1668_177115)">
<path d="M236.531 114H235.246L238.869 104.102H240.168L243.791 114H242.492L241.508 111.211H237.529L236.531 114ZM237.898 110.131H241.125L239.553 105.701H239.471L237.898 110.131ZM247.77 114.15C245.924 114.15 244.611 112.66 244.611 110.309C244.611 107.957 245.924 106.48 247.783 106.48C249.219 106.48 249.684 107.355 249.93 107.752H250.012V104.102H251.201V114H250.053V112.865H249.93C249.67 113.275 249.191 114.15 247.77 114.15ZM247.934 113.098C249.287 113.098 250.053 111.949 250.053 110.281C250.053 108.641 249.314 107.533 247.934 107.533C246.512 107.533 245.801 108.736 245.801 110.281C245.801 111.867 246.525 113.098 247.934 113.098ZM256.041 114.15C254.195 114.15 252.883 112.66 252.883 110.309C252.883 107.957 254.195 106.48 256.055 106.48C257.49 106.48 257.955 107.355 258.201 107.752H258.283V104.102H259.473V114H258.324V112.865H258.201C257.941 113.275 257.463 114.15 256.041 114.15ZM256.205 113.098C257.559 113.098 258.324 111.949 258.324 110.281C258.324 108.641 257.586 107.533 256.205 107.533C254.783 107.533 254.072 108.736 254.072 110.281C254.072 111.867 254.797 113.098 256.205 113.098ZM268.346 106.576V107.561H266.705V114H265.516V107.561H264.326V106.576H265.516V105.564C265.516 104.361 266.322 103.637 267.635 103.637C267.922 103.637 268.264 103.678 268.51 103.719V104.771C268.264 104.73 268.045 104.717 267.895 104.717C267.074 104.717 266.705 105.059 266.705 105.824V106.576H268.346ZM269.74 114V106.576H270.875V107.711H270.957C271.23 106.959 271.996 106.453 272.871 106.453C273.049 106.453 273.35 106.467 273.486 106.48V107.67C273.404 107.643 273.076 107.588 272.775 107.588C271.709 107.588 270.916 108.326 270.916 109.324V114H269.74ZM277.438 114.15C275.414 114.15 274.047 112.633 274.047 110.322C274.047 108.012 275.414 106.48 277.438 106.48C279.447 106.48 280.801 108.012 280.801 110.322C280.801 112.633 279.447 114.15 277.438 114.15ZM277.438 113.111C278.928 113.111 279.625 111.799 279.625 110.322C279.625 108.846 278.928 107.52 277.438 107.52C275.92 107.52 275.223 108.846 275.223 110.322C275.223 111.799 275.92 113.111 277.438 113.111ZM282.346 114V106.576H283.48V107.738H283.576C283.891 106.945 284.602 106.48 285.572 106.48C286.543 106.48 287.199 106.945 287.555 107.738H287.637C288.02 106.973 288.799 106.48 289.865 106.48C291.191 106.48 292.135 107.287 292.135 109.037V114H290.959V109.051C290.959 107.957 290.262 107.533 289.455 107.533C288.416 107.533 287.828 108.23 287.828 109.174V114H286.639V108.928C286.639 108.094 286.037 107.533 285.189 107.533C284.301 107.533 283.521 108.285 283.521 109.365V114H282.346ZM300.57 114.15C298.465 114.15 297.18 112.551 297.18 110.322C297.18 108.066 298.52 106.48 300.543 106.48C302.129 106.48 303.305 107.41 303.496 108.818H302.32C302.156 108.135 301.555 107.52 300.57 107.52C299.244 107.52 298.355 108.613 298.355 110.281C298.355 112.004 299.217 113.098 300.57 113.098C301.445 113.098 302.115 112.633 302.32 111.812H303.496C303.305 113.139 302.225 114.15 300.57 114.15ZM307.98 114.15C305.957 114.15 304.59 112.633 304.59 110.322C304.59 108.012 305.957 106.48 307.98 106.48C309.99 106.48 311.344 108.012 311.344 110.322C311.344 112.633 309.99 114.15 307.98 114.15ZM307.98 113.111C309.471 113.111 310.168 111.799 310.168 110.322C310.168 108.846 309.471 107.52 307.98 107.52C306.463 107.52 305.766 108.846 305.766 110.322C305.766 111.799 306.463 113.111 307.98 113.111ZM314.064 109.543V114H312.889V106.576H314.023V107.738H314.119C314.475 106.986 315.158 106.48 316.293 106.48C317.797 106.48 318.795 107.396 318.795 109.283V114H317.619V109.365C317.619 108.217 316.99 107.533 315.938 107.533C314.857 107.533 314.064 108.258 314.064 109.543ZM323.922 106.576V107.561H322.363V111.867C322.363 112.824 322.828 112.975 323.334 112.975C323.553 112.975 323.854 112.961 324.031 112.947V114.041C323.854 114.068 323.553 114.096 323.211 114.096C322.227 114.096 321.174 113.48 321.174 112.168V107.561H320.053V106.576H321.174V104.799H322.363V106.576H323.922ZM325.084 111.895C325.084 110.186 326.588 109.803 327.873 109.707C328.345 109.673 329.548 109.611 329.883 109.598V108.996C329.883 108.053 329.322 107.506 328.201 107.506C327.258 107.506 326.697 107.943 326.533 108.504H325.303C325.453 107.314 326.615 106.48 328.256 106.48C329.227 106.48 331.045 106.768 331.045 109.105V114H329.883V112.988H329.828C329.582 113.494 328.898 114.178 327.613 114.178C326.205 114.178 325.084 113.344 325.084 111.895ZM326.26 111.949C326.26 112.729 326.916 113.125 327.818 113.125C329.145 113.125 329.883 112.236 329.883 111.307V110.555L328.01 110.691C326.943 110.76 326.26 111.143 326.26 111.949ZM335.967 114.15C333.861 114.15 332.576 112.551 332.576 110.322C332.576 108.066 333.916 106.48 335.939 106.48C337.525 106.48 338.701 107.41 338.893 108.818H337.717C337.553 108.135 336.951 107.52 335.967 107.52C334.641 107.52 333.752 108.613 333.752 110.281C333.752 112.004 334.613 113.098 335.967 113.098C336.842 113.098 337.512 112.633 337.717 111.812H338.893C338.701 113.139 337.621 114.15 335.967 114.15ZM343.582 106.576V107.561H342.023V111.867C342.023 112.824 342.488 112.975 342.994 112.975C343.213 112.975 343.514 112.961 343.691 112.947V114.041C343.514 114.068 343.213 114.096 342.871 114.096C341.887 114.096 340.834 113.48 340.834 112.168V107.561H339.713V106.576H340.834V104.799H342.023V106.576H343.582ZM349.092 108.504C348.928 107.889 348.463 107.479 347.588 107.479C346.672 107.479 346.016 107.971 346.016 108.6C346.016 109.092 346.412 109.434 347.287 109.639L348.395 109.912C349.721 110.227 350.377 110.883 350.377 111.922C350.377 113.207 349.324 114.15 347.465 114.15C345.797 114.15 344.799 113.412 344.607 112.059H345.838C345.975 112.783 346.508 113.125 347.438 113.125C348.49 113.125 349.16 112.688 349.16 111.99C349.16 111.471 348.791 111.115 347.943 110.924L346.822 110.664C345.523 110.363 344.84 109.652 344.84 108.668C344.84 107.396 345.947 106.48 347.588 106.48C349.119 106.48 350.09 107.301 350.24 108.504H349.092Z" fill="var(--sol-element-primary)"/>
</g>
<g clip-path="url(#clip6_1668_177115)">
<path d="M237.324 134.102V144H236.094V134.102H237.324ZM239.361 144V136.576H240.496V137.738H240.592C240.906 136.945 241.617 136.48 242.588 136.48C243.559 136.48 244.215 136.945 244.57 137.738H244.652C245.035 136.973 245.814 136.48 246.881 136.48C248.207 136.48 249.15 137.287 249.15 139.037V144H247.975V139.051C247.975 137.957 247.277 137.533 246.471 137.533C245.432 137.533 244.844 138.23 244.844 139.174V144H243.654V138.928C243.654 138.094 243.053 137.533 242.205 137.533C241.316 137.533 240.537 138.285 240.537 139.365V144H239.361ZM251.037 146.789V136.576H252.172V137.752H252.309C252.555 137.355 253.02 136.48 254.455 136.48C256.314 136.48 257.613 137.957 257.613 140.309C257.613 142.66 256.314 144.15 254.469 144.15C253.047 144.15 252.555 143.275 252.309 142.865H252.213V146.789H251.037ZM252.186 140.281C252.186 141.949 252.938 143.098 254.305 143.098C255.713 143.098 256.438 141.867 256.438 140.281C256.438 138.736 255.727 137.533 254.305 137.533C252.91 137.533 252.186 138.641 252.186 140.281ZM262.18 144.15C260.156 144.15 258.789 142.633 258.789 140.322C258.789 138.012 260.156 136.48 262.18 136.48C264.189 136.48 265.543 138.012 265.543 140.322C265.543 142.633 264.189 144.15 262.18 144.15ZM262.18 143.111C263.67 143.111 264.367 141.799 264.367 140.322C264.367 138.846 263.67 137.52 262.18 137.52C260.662 137.52 259.965 138.846 259.965 140.322C259.965 141.799 260.662 143.111 262.18 143.111ZM267.088 144V136.576H268.223V137.711H268.305C268.578 136.959 269.344 136.453 270.219 136.453C270.396 136.453 270.697 136.467 270.834 136.48V137.67C270.752 137.643 270.424 137.588 270.123 137.588C269.057 137.588 268.264 138.326 268.264 139.324V144H267.088ZM275.688 136.576V137.561H274.129V141.867C274.129 142.824 274.594 142.975 275.1 142.975C275.318 142.975 275.619 142.961 275.797 142.947V144.041C275.619 144.068 275.318 144.096 274.977 144.096C273.992 144.096 272.939 143.48 272.939 142.168V137.561H271.818V136.576H272.939V134.799H274.129V136.576H275.688ZM287.623 137.219C287.336 135.852 286.16 135.113 284.861 135.113C283.07 135.113 281.676 136.494 281.676 139.051C281.676 141.607 283.07 142.988 284.861 142.988C286.16 142.988 287.322 142.25 287.623 140.896H288.854C288.498 142.92 286.871 144.137 284.861 144.137C282.318 144.137 280.486 142.182 280.486 139.051C280.486 135.92 282.318 133.965 284.861 133.965C286.857 133.965 288.484 135.168 288.854 137.219H287.623ZM295.977 136.59C295.867 135.619 294.979 135.059 293.789 135.059C292.477 135.059 291.615 135.742 291.615 136.686C291.615 137.725 292.777 138.107 293.529 138.299L294.514 138.572C295.58 138.846 297.316 139.461 297.316 141.307C297.316 142.92 296.018 144.178 293.721 144.178C291.588 144.178 290.262 143.07 290.152 141.43H291.41C291.52 142.537 292.545 143.057 293.721 143.057C295.088 143.057 296.113 142.359 296.113 141.279C296.113 140.322 295.197 139.953 294.158 139.652L292.941 139.324C291.383 138.873 290.426 138.08 290.426 136.74C290.426 135.072 291.916 133.965 293.83 133.965C295.744 133.965 297.125 135.086 297.18 136.59H295.977ZM299.531 134.102L302.443 142.4H302.553L305.479 134.102H306.777L303.154 144H301.855L298.232 134.102H299.531Z" fill="var(--sol-element-primary)"/>
</g>
<g clip-path="url(#clip7_1668_177115)">
<path d="M237.324 164.102V174H236.094V164.102H237.324ZM240.537 169.543V174H239.361V166.576H240.496V167.738H240.592C240.947 166.986 241.631 166.48 242.766 166.48C244.27 166.48 245.268 167.396 245.268 169.283V174H244.092V169.365C244.092 168.217 243.463 167.533 242.41 167.533C241.33 167.533 240.537 168.258 240.537 169.543ZM252.992 166.576L250.244 174H249.027L246.293 166.576H247.578L249.602 172.469H249.684L251.707 166.576H252.992ZM254.291 174V166.576H255.467V174H254.291ZM254.879 165.346C254.428 165.346 254.059 165.004 254.059 164.566C254.059 164.129 254.428 163.787 254.879 163.787C255.33 163.787 255.713 164.129 255.713 164.566C255.713 165.004 255.33 165.346 254.879 165.346ZM260.58 166.576V167.561H259.021V171.867C259.021 172.824 259.486 172.975 259.992 172.975C260.211 172.975 260.512 172.961 260.689 172.947V174.041C260.512 174.068 260.211 174.096 259.869 174.096C258.885 174.096 257.832 173.48 257.832 172.168V167.561H256.711V166.576H257.832V164.799H259.021V166.576H260.58ZM265.146 174.15C263 174.15 261.674 172.633 261.674 170.35C261.674 168.066 263.014 166.48 265.037 166.48C266.596 166.48 268.236 167.438 268.236 170.186V170.678H262.85C262.904 172.25 263.82 173.111 265.146 173.111C266.035 173.111 266.596 172.729 266.869 172.264H268.127C267.771 173.385 266.678 174.15 265.146 174.15ZM262.863 169.68H267.047C267.047 168.436 266.254 167.52 265.037 167.52C263.752 167.52 262.932 168.531 262.863 169.68ZM273.432 174V164.102H274.607V167.752H274.703C274.963 167.355 275.4 166.48 276.85 166.48C278.709 166.48 280.021 167.957 280.021 170.309C280.021 172.66 278.709 174.15 276.863 174.15C275.441 174.15 274.963 173.275 274.703 172.865H274.566V174H273.432ZM274.58 170.281C274.58 171.949 275.332 173.098 276.686 173.098C278.094 173.098 278.832 171.867 278.832 170.281C278.832 168.736 278.121 167.533 276.686 167.533C275.318 167.533 274.58 168.641 274.58 170.281ZM282.031 176.789C281.771 176.789 281.525 176.775 281.375 176.762V175.709C281.498 175.723 281.771 175.736 281.949 175.736C282.428 175.736 282.824 175.695 283.221 174.615L283.439 174.055L280.691 166.576H281.977L284 172.469H284.082L286.105 166.576H287.391L284.246 175.066C283.809 176.229 283.084 176.789 282.031 176.789ZM295.32 174.15C293.174 174.15 291.848 172.633 291.848 170.35C291.848 168.066 293.188 166.48 295.211 166.48C296.77 166.48 298.41 167.438 298.41 170.186V170.678H293.023C293.078 172.25 293.994 173.111 295.32 173.111C296.209 173.111 296.77 172.729 297.043 172.264H298.301C297.945 173.385 296.852 174.15 295.32 174.15ZM293.037 169.68H297.221C297.221 168.436 296.428 167.52 295.211 167.52C293.926 167.52 293.105 168.531 293.037 169.68ZM299.941 174V166.576H301.076V167.738H301.172C301.486 166.945 302.197 166.48 303.168 166.48C304.139 166.48 304.795 166.945 305.15 167.738H305.232C305.615 166.973 306.395 166.48 307.461 166.48C308.787 166.48 309.73 167.287 309.73 169.037V174H308.555V169.051C308.555 167.957 307.857 167.533 307.051 167.533C306.012 167.533 305.424 168.23 305.424 169.174V174H304.234V168.928C304.234 168.094 303.633 167.533 302.785 167.533C301.896 167.533 301.117 168.285 301.117 169.365V174H299.941ZM311.262 171.895C311.262 170.186 312.766 169.803 314.051 169.707C314.522 169.673 315.726 169.611 316.061 169.598V168.996C316.061 168.053 315.5 167.506 314.379 167.506C313.436 167.506 312.875 167.943 312.711 168.504H311.48C311.631 167.314 312.793 166.48 314.434 166.48C315.404 166.48 317.223 166.768 317.223 169.105V174H316.061V172.988H316.006C315.76 173.494 315.076 174.178 313.791 174.178C312.383 174.178 311.262 173.344 311.262 171.895ZM312.438 171.949C312.438 172.729 313.094 173.125 313.996 173.125C315.322 173.125 316.061 172.236 316.061 171.307V170.555L314.188 170.691C313.121 170.76 312.438 171.143 312.438 171.949ZM319.109 174V166.576H320.285V174H319.109ZM319.697 165.346C319.246 165.346 318.877 165.004 318.877 164.566C318.877 164.129 319.246 163.787 319.697 163.787C320.148 163.787 320.531 164.129 320.531 164.566C320.531 165.004 320.148 165.346 319.697 165.346ZM323.334 164.102V174H322.158V164.102H323.334Z" fill="var(--sol-element-primary)"/>
</g>
<g clip-path="url(#clip8_1668_177115)">
<path d="M242.848 197.219C242.561 195.852 241.385 195.113 240.086 195.113C238.295 195.113 236.9 196.494 236.9 199.051C236.9 201.607 238.295 202.988 240.086 202.988C241.385 202.988 242.547 202.25 242.848 200.896H244.078C243.723 202.92 242.096 204.137 240.086 204.137C237.543 204.137 235.711 202.182 235.711 199.051C235.711 195.92 237.543 193.965 240.086 193.965C242.082 193.965 243.709 195.168 244.078 197.219H242.848ZM245.65 204V196.576H246.785V197.711H246.867C247.141 196.959 247.906 196.453 248.781 196.453C248.959 196.453 249.26 196.467 249.396 196.48V197.67C249.314 197.643 248.986 197.588 248.686 197.588C247.619 197.588 246.826 198.326 246.826 199.324V204H245.65ZM253.43 204.15C251.283 204.15 249.957 202.633 249.957 200.35C249.957 198.066 251.297 196.48 253.32 196.48C254.879 196.48 256.52 197.438 256.52 200.186V200.678H251.133C251.188 202.25 252.104 203.111 253.43 203.111C254.318 203.111 254.879 202.729 255.152 202.264H256.41C256.055 203.385 254.961 204.15 253.43 204.15ZM251.146 199.68H255.33C255.33 198.436 254.537 197.52 253.32 197.52C252.035 197.52 251.215 198.531 251.146 199.68ZM257.695 201.895C257.695 200.186 259.199 199.803 260.484 199.707C260.956 199.673 262.159 199.611 262.494 199.598V198.996C262.494 198.053 261.934 197.506 260.812 197.506C259.869 197.506 259.309 197.943 259.145 198.504H257.914C258.064 197.314 259.227 196.48 260.867 196.48C261.838 196.48 263.656 196.768 263.656 199.105V204H262.494V202.988H262.439C262.193 203.494 261.51 204.178 260.225 204.178C258.816 204.178 257.695 203.344 257.695 201.895ZM258.871 201.949C258.871 202.729 259.527 203.125 260.43 203.125C261.756 203.125 262.494 202.236 262.494 201.307V200.555L260.621 200.691C259.555 200.76 258.871 201.143 258.871 201.949ZM268.783 196.576V197.561H267.225V201.867C267.225 202.824 267.689 202.975 268.195 202.975C268.414 202.975 268.715 202.961 268.893 202.947V204.041C268.715 204.068 268.414 204.096 268.072 204.096C267.088 204.096 266.035 203.48 266.035 202.168V197.561H264.914V196.576H266.035V194.799H267.225V196.576H268.783ZM273.35 204.15C271.203 204.15 269.877 202.633 269.877 200.35C269.877 198.066 271.217 196.48 273.24 196.48C274.799 196.48 276.439 197.438 276.439 200.186V200.678H271.053C271.107 202.25 272.023 203.111 273.35 203.111C274.238 203.111 274.799 202.729 275.072 202.264H276.33C275.975 203.385 274.881 204.15 273.35 204.15ZM271.066 199.68H275.25C275.25 198.436 274.457 197.52 273.24 197.52C271.955 197.52 271.135 198.531 271.066 199.68ZM286.174 200.951V196.576H287.336V204H286.174V202.742H286.092C285.736 203.494 285.012 204.096 283.891 204.096C282.482 204.096 281.484 203.18 281.484 201.293V196.576H282.66V201.211C282.66 202.277 283.33 202.961 284.273 202.961C285.107 202.961 286.174 202.332 286.174 200.951ZM293.352 198.504C293.188 197.889 292.723 197.479 291.848 197.479C290.932 197.479 290.275 197.971 290.275 198.6C290.275 199.092 290.672 199.434 291.547 199.639L292.654 199.912C293.98 200.227 294.637 200.883 294.637 201.922C294.637 203.207 293.584 204.15 291.725 204.15C290.057 204.15 289.059 203.412 288.867 202.059H290.098C290.234 202.783 290.768 203.125 291.697 203.125C292.75 203.125 293.42 202.688 293.42 201.99C293.42 201.471 293.051 201.115 292.203 200.924L291.082 200.664C289.783 200.363 289.1 199.652 289.1 198.668C289.1 197.396 290.207 196.48 291.848 196.48C293.379 196.48 294.35 197.301 294.5 198.504H293.352ZM299.285 204.15C297.139 204.15 295.812 202.633 295.812 200.35C295.812 198.066 297.152 196.48 299.176 196.48C300.734 196.48 302.375 197.438 302.375 200.186V200.678H296.988C297.043 202.25 297.959 203.111 299.285 203.111C300.174 203.111 300.734 202.729 301.008 202.264H302.266C301.91 203.385 300.816 204.15 299.285 204.15ZM297.002 199.68H301.186C301.186 198.436 300.393 197.52 299.176 197.52C297.891 197.52 297.07 198.531 297.002 199.68ZM303.906 204V196.576H305.041V197.711H305.123C305.396 196.959 306.162 196.453 307.037 196.453C307.215 196.453 307.516 196.467 307.652 196.48V197.67C307.57 197.643 307.242 197.588 306.941 197.588C305.875 197.588 305.082 198.326 305.082 199.324V204H303.906ZM315.322 206.939C313.531 206.939 312.314 206.16 312.178 204.779H313.408C313.572 205.531 314.27 205.914 315.322 205.914C316.594 205.914 317.373 205.367 317.373 204.137V202.633H317.277C317.031 203.043 316.553 203.891 315.117 203.891C313.312 203.891 311.959 202.523 311.959 200.186C311.959 197.902 313.271 196.48 315.131 196.48C316.566 196.48 317.031 197.355 317.305 197.752H317.4V196.576H318.549V204.205C318.549 206.119 317.127 206.939 315.322 206.939ZM315.281 202.838C316.635 202.838 317.4 201.867 317.4 200.227C317.4 198.641 316.662 197.533 315.281 197.533C313.859 197.533 313.148 198.736 313.148 200.227C313.148 201.771 313.873 202.838 315.281 202.838ZM320.422 204V196.576H321.557V197.711H321.639C321.912 196.959 322.678 196.453 323.553 196.453C323.73 196.453 324.031 196.467 324.168 196.48V197.67C324.086 197.643 323.758 197.588 323.457 197.588C322.391 197.588 321.598 198.326 321.598 199.324V204H320.422ZM328.119 204.15C326.096 204.15 324.729 202.633 324.729 200.322C324.729 198.012 326.096 196.48 328.119 196.48C330.129 196.48 331.482 198.012 331.482 200.322C331.482 202.633 330.129 204.15 328.119 204.15ZM328.119 203.111C329.609 203.111 330.307 201.799 330.307 200.322C330.307 198.846 329.609 197.52 328.119 197.52C326.602 197.52 325.904 198.846 325.904 200.322C325.904 201.799 326.602 203.111 328.119 203.111ZM337.717 200.951V196.576H338.879V204H337.717V202.742H337.635C337.279 203.494 336.555 204.096 335.434 204.096C334.025 204.096 333.027 203.18 333.027 201.293V196.576H334.203V201.211C334.203 202.277 334.873 202.961 335.816 202.961C336.65 202.961 337.717 202.332 337.717 200.951ZM340.766 206.789V196.576H341.9V197.752H342.037C342.283 197.355 342.748 196.48 344.184 196.48C346.043 196.48 347.342 197.957 347.342 200.309C347.342 202.66 346.043 204.15 344.197 204.15C342.775 204.15 342.283 203.275 342.037 202.865H341.941V206.789H340.766ZM341.914 200.281C341.914 201.949 342.666 203.098 344.033 203.098C345.441 203.098 346.166 201.867 346.166 200.281C346.166 198.736 345.455 197.533 344.033 197.533C342.639 197.533 341.914 198.641 341.914 200.281Z" fill="var(--sol-element-primary)"/>
</g>
</g>
<g clip-path="url(#clip9_1668_177115)">
<rect x="403" y="94.0879" width="4" height="156" fill="var(--sol-border-solid-variant)"/>
</g>
</g>
</g>
</g>
<path d="M406 29.5C409.59 29.5 412.5 32.4101 412.5 36V228C412.5 231.59 409.59 234.5 406 234.5H-412C-415.59 234.5 -418.5 231.59 -418.5 228V36L-418.491 35.665C-418.317 32.2309 -415.478 29.5 -412 29.5H406Z" stroke="var(--sol-border-solid-variant)"/>
</g>
</g>
</g>
<defs>
<filter id="filter0_d_1668_177115" x="-421" y="29" width="836" height="210" filterUnits="userSpaceOnUse" color-interpolation-filters="sRGB">
<feFlood flood-opacity="0" result="BackgroundImageFix"/>
<feColorMatrix in="SourceAlpha" type="matrix" values="0 0 0 0 0 0 0 0 0 0 0 0 0 0 0 0 0 0 127 0" result="hardAlpha"/>
<feOffset dy="2"/>
<feGaussianBlur stdDeviation="1"/>
<feComposite in2="hardAlpha" operator="out"/>
<feColorMatrix type="matrix" values="0 0 0 0 0 0 0 0 0 0 0 0 0 0 0 0 0 0 0.04 0"/>
<feBlend mode="normal" in2="BackgroundImageFix" result="effect1_dropShadow_1668_177115"/>
<feBlend mode="normal" in="SourceGraphic" in2="effect1_dropShadow_1668_177115" result="shape"/>
</filter>
<filter id="filter1_dd_1668_177115" x="215" y="86" width="204" height="336" filterUnits="userSpaceOnUse" color-interpolation-filters="sRGB">
<feFlood flood-opacity="0" result="BackgroundImageFix"/>
<feColorMatrix in="SourceAlpha" type="matrix" values="0 0 0 0 0 0 0 0 0 0 0 0 0 0 0 0 0 0 127 0" result="hardAlpha"/>
<feOffset dy="4"/>
<feGaussianBlur stdDeviation="4"/>
<feComposite in2="hardAlpha" operator="out"/>
<feColorMatrix type="matrix" values="0 0 0 0 0 0 0 0 0 0 0 0 0 0 0 0 0 0 0.08 0"/>
<feBlend mode="normal" in2="BackgroundImageFix" result="effect1_dropShadow_1668_177115"/>
<feColorMatrix in="SourceAlpha" type="matrix" values="0 0 0 0 0 0 0 0 0 0 0 0 0 0 0 0 0 0 127 0" result="hardAlpha"/>
<feOffset/>
<feGaussianBlur stdDeviation="0.5"/>
<feComposite in2="hardAlpha" operator="out"/>
<feColorMatrix type="matrix" values="0 0 0 0 0 0 0 0 0 0 0 0 0 0 0 0 0 0 0.08 0"/>
<feBlend mode="normal" in2="effect1_dropShadow_1668_177115" result="effect2_dropShadow_1668_177115"/>
<feBlend mode="normal" in="SourceGraphic" in2="effect2_dropShadow_1668_177115" result="shape"/>
</filter>
<clipPath id="clip0_1668_177115">
<path d="M0 8.00001C0 3.58173 3.58172 0 8 0H434C438.418 0 442 3.58172 442 8V212C442 216.418 438.418 220 434 220H8C3.58172 220 0 216.418 0 212V8.00001Z" fill="var(--sol-surface)"/>
</clipPath>
<clipPath id="clip1_1668_177115">
<rect width="442" height="220" rx="8" fill="var(--sol-surface)"/>
</clipPath>
<clipPath id="clip2_1668_177115">
<path d="M-418 36C-418 32.6863 -415.314 30 -412 30H406C409.314 30 412 32.6863 412 36V228C412 231.314 409.314 234 406 234H-412C-415.314 234 -418 231.314 -418 228V36Z" fill="var(--sol-surface)"/>
</clipPath>
<clipPath id="clip3_1668_177115">
<path d="M223 94C223 91.7909 224.791 90 227 90H407C409.209 90 411 91.7909 411 94V406C411 408.209 409.209 410 407 410H227C224.791 410 223 408.209 223 406V94Z" fill="var(--sol-surface)"/>
</clipPath>
<clipPath id="clip4_1668_177115">
<rect width="180" height="330" fill="var(--sol-surface)" transform="translate(227 94)"/>
</clipPath>
<clipPath id="clip5_1668_177115">
<path d="M227 96C227 94.8954 227.895 94 229 94H405C406.105 94 407 94.8954 407 96V122C407 123.105 406.105 124 405 124H229C227.895 124 227 123.105 227 122V96Z" fill="var(--sol-surface)"/>
</clipPath>
<clipPath id="clip6_1668_177115">
<path d="M227 126C227 124.895 227.895 124 229 124H405C406.105 124 407 124.895 407 126V152C407 153.105 406.105 154 405 154H229C227.895 154 227 153.105 227 152V126Z" fill="var(--sol-surface)"/>
</clipPath>
<clipPath id="clip7_1668_177115">
<path d="M227 156C227 154.895 227.895 154 229 154H405C406.105 154 407 154.895 407 156V182C407 183.105 406.105 184 405 184H229C227.895 184 227 183.105 227 182V156Z" fill="var(--sol-surface)"/>
</clipPath>
<clipPath id="clip8_1668_177115">
<path d="M227 186C227 184.895 227.895 184 229 184H405C406.105 184 407 184.895 407 186V212C407 213.105 406.105 214 405 214H229C227.895 214 227 213.105 227 212V186Z" fill="var(--sol-surface)"/>
</clipPath>
<clipPath id="clip9_1668_177115">
<path d="M403 96.0879C403 94.9833 403.895 94.0879 405 94.0879C406.105 94.0879 407 94.9833 407 96.0879V248.088C407 249.192 406.105 250.088 405 250.088C403.895 250.088 403 249.192 403 248.088V96.0879Z" fill="var(--sol-surface)"/>
</clipPath>
</defs>
</svg>
