<svg width="442" height="270" viewBox="0 0 442 270" fill="none" xmlns="http://www.w3.org/2000/svg">
<style>
:root {
  --sol-primary: #282363;
  --sol-surface: #ffffff;
  --sol-element-primary: #161616;
  --sol-element-quaternary: #858585;
  --sol-border-normal-variant: #ebebeb;
  --sol-border-solid-variant: #e0e0e0;
  --sol-static-white: #ffffff;
  --sol-static-black: #000000;
}
@media (prefers-color-scheme: dark) {
  :root {
    --sol-primary: #9791d4;
    --sol-surface: #161616;
    --sol-element-primary: #ffffff;
    --sol-element-quaternary: rgba(255, 255, 255, 0.5);
    --sol-border-normal-variant: rgba(255, 255, 255, 0.08);
    --sol-border-solid-variant: #3d3d3d;
  }
}
</style>
<g clip-path="url(#clip0_1668_177080)">
<g clip-path="url(#clip1_1668_177080)">
<g filter="url(#filter0_d_1668_177080)">
<path d="M-418 36C-418 32.6863 -415.314 30 -412 30H406C409.314 30 412 32.6863 412 36V331C412 334.314 409.314 337 406 337H-412C-415.314 337 -418 334.314 -418 331V36Z" fill="var(--sol-surface)"/>
<path d="M406 29.5C409.59 29.5 412.5 32.4101 412.5 36V331C412.5 334.59 409.59 337.5 406 337.5H-412C-415.59 337.5 -418.5 334.59 -418.5 331V36C-418.5 32.4101 -415.59 29.5 -412 29.5H406Z" stroke="var(--sol-border-solid-variant)"/>
</g>
<path d="M283 49.089C283 46.2186 283 44.7834 283.892 43.8917C284.783 43 286.219 43 289.089 43H363.789V70.4005H289.089C286.219 70.4005 284.783 70.4005 283.892 69.5088C283 68.6171 283 67.1819 283 64.3115V49.089Z" fill="var(--sol-primary)"/>
<path d="M294.514 59.7002V52.1662H297.345C299.072 52.1662 299.998 53.134 299.998 54.57C299.998 55.595 299.53 56.3547 298.645 56.7137L300.269 59.7002H298.76L297.282 56.9426H295.867V59.7002H294.514ZM295.867 55.8083H297.137C298.156 55.8083 298.614 55.3713 298.614 54.57C298.614 53.7688 298.156 53.3005 297.137 53.3005H295.867V55.8083ZM304.712 57.3276V54.0497H306.034V59.7002H304.754V58.7012H304.691C304.431 59.3256 303.838 59.773 302.995 59.773C301.882 59.773 301.112 59.003 301.101 57.6502V54.0497H302.433V57.4421C302.433 58.1601 302.86 58.618 303.505 58.618C304.088 58.618 304.712 58.1913 304.712 57.3276ZM308.635 56.3911V59.7002H307.303V54.0497H308.573V55.0071H308.646C308.906 54.3723 309.478 53.9769 310.321 53.9769C311.497 53.9769 312.267 54.7469 312.256 56.0997V59.7002H310.935V56.3078C310.935 55.5482 310.529 55.1007 309.832 55.1007C309.124 55.1007 308.635 55.569 308.635 56.3911ZM316.117 59.7002V52.1662H318.948C320.675 52.1662 321.601 53.2173 321.601 54.6637C321.601 56.1101 320.665 57.1507 318.927 57.1507H317.47V59.7002H316.117ZM317.47 56.0373H318.739C319.759 56.0373 320.217 55.4649 320.217 54.6637C320.217 53.852 319.759 53.3005 318.739 53.3005H317.47V56.0373ZM322.631 59.7002V54.0497H323.963V59.7002H322.631ZM323.308 53.2485C322.891 53.2485 322.538 52.9259 322.538 52.52C322.538 52.1246 322.891 51.802 323.308 51.802C323.734 51.802 324.078 52.1246 324.078 52.52C324.078 52.9259 323.734 53.2485 323.308 53.2485ZM325.233 61.823V54.0497H326.534V54.9759H326.617C326.825 54.57 327.241 53.9769 328.24 53.9769C329.541 53.9769 330.571 54.9967 330.571 56.8802C330.571 58.7428 329.572 59.8043 328.24 59.8043C327.262 59.8043 326.825 59.2215 326.617 58.8053H326.565V61.823H325.233ZM326.534 56.8698C326.534 57.9728 327.012 58.7116 327.876 58.7116C328.75 58.7116 329.218 57.9416 329.218 56.8698C329.218 55.8188 328.76 55.0591 327.876 55.0591C327.012 55.0591 326.534 55.7771 326.534 56.8698ZM334.12 59.8147C332.413 59.8147 331.372 58.6804 331.372 56.9114C331.372 55.1632 332.434 53.9769 334.047 53.9769C335.431 53.9769 336.627 54.8406 336.627 56.8281V57.2444H332.683C332.699 58.2069 333.266 58.7741 334.13 58.7741C334.713 58.7741 335.108 58.5243 335.275 58.1913H336.575C336.336 59.1695 335.431 59.8147 334.12 59.8147ZM332.694 56.3391H335.358C335.347 55.569 334.838 55.0071 334.067 55.0071C333.266 55.0071 332.736 55.6158 332.694 56.3391ZM338.99 52.1662V59.7002H337.658V52.1662H338.99ZM340.259 59.7002V54.0497H341.591V59.7002H340.259ZM340.935 53.2485C340.519 53.2485 340.165 52.9259 340.165 52.52C340.165 52.1246 340.519 51.802 340.935 51.802C341.362 51.802 341.705 52.1246 341.705 52.52C341.705 52.9259 341.362 53.2485 340.935 53.2485ZM344.193 56.3911V59.7002H342.861V54.0497H344.13V55.0071H344.203C344.463 54.3723 345.035 53.9769 345.878 53.9769C347.054 53.9769 347.824 54.7469 347.814 56.0997V59.7002H346.492V56.3078C346.492 55.5482 346.086 55.1007 345.389 55.1007C344.682 55.1007 344.193 55.569 344.193 56.3911ZM351.591 59.8147C349.885 59.8147 348.844 58.6804 348.844 56.9114C348.844 55.1632 349.905 53.9769 351.518 53.9769C352.902 53.9769 354.099 54.8406 354.099 56.8281V57.2444H350.155C350.171 58.2069 350.738 58.7741 351.602 58.7741C352.184 58.7741 352.58 58.5243 352.746 58.1913H354.047C353.808 59.1695 352.902 59.8147 351.591 59.8147ZM350.166 56.3391H352.83C352.819 55.569 352.309 55.0071 351.539 55.0071C350.738 55.0071 350.207 55.6158 350.166 56.3391Z" fill="var(--sol-surface)"/>
<rect width="0.761127" height="27.4005" transform="translate(363.789 43)" fill="var(--sol-border-normal-variant)"/>
<path d="M364.55 43H385.862C388.732 43 390.167 43 391.059 43.8917C391.951 44.7834 391.951 46.2186 391.951 49.089V64.3115C391.951 67.1819 391.951 68.6171 391.059 69.5088C390.167 70.4005 388.732 70.4005 385.862 70.4005H364.55V43Z" fill="var(--sol-primary)"/>
<path d="M364.55 43H388.906C390.588 43 391.951 44.3631 391.951 46.0445V67.356C391.951 69.0374 390.588 70.4005 388.906 70.4005H364.55V43Z" fill="var(--sol-surface)" fill-opacity="0.12"/>
<path d="M380.803 55.4473L377.758 58.4918C377.61 58.6404 377.369 58.6404 377.22 58.4918L374.176 55.4473L374.714 54.9092L377.489 57.6846L380.265 54.9092L380.803 55.4473Z" fill="var(--sol-surface)"/>
<g filter="url(#filter1_dd_1668_177080)">
<path d="M248.859 78.0113C248.859 76.3299 250.222 74.9668 251.904 74.9668H388.906C390.588 74.9668 391.951 76.3299 391.951 78.0113V283.515C391.951 285.197 390.588 286.56 388.906 286.56H251.904C250.222 286.56 248.859 285.197 248.859 283.515V78.0113Z" fill="var(--sol-surface)"/>
<g clip-path="url(#clip2_1668_177080)">
<g clip-path="url(#clip3_1668_177080)">
<path d="M258.825 92.4287V84.8948H261.385C263.154 84.8948 263.955 85.8729 263.955 87.2153C263.955 88.2091 263.508 88.9947 262.551 89.3277L264.247 92.4287H263.154L261.583 89.4942L261.395 89.5046H259.762V92.4287H258.825ZM259.762 88.6513H261.354C262.551 88.6513 263.029 88.1102 263.029 87.2153C263.029 86.31 262.551 85.7272 261.343 85.7272H259.762V88.6513ZM268.763 90.1082V86.7782H269.647V92.4287H268.763V91.4714H268.7C268.43 92.0437 267.878 92.5016 267.025 92.5016C265.953 92.5016 265.194 91.8044 265.194 90.3683V86.7782H266.089V90.3059C266.089 91.1176 266.598 91.6379 267.316 91.6379C267.951 91.6379 268.763 91.1592 268.763 90.1082ZM271.978 89.0364V92.4287H271.083V86.7782H271.947V87.6628H272.02C272.291 87.0904 272.811 86.7054 273.675 86.7054C274.819 86.7054 275.579 87.4026 275.579 88.8386V92.4287H274.684V88.9011C274.684 88.027 274.205 87.5067 273.404 87.5067C272.582 87.5067 271.978 88.0582 271.978 89.0364ZM280.584 89.0364V92.4287H279.689V86.7782H280.553V87.6628H280.626C280.896 87.0904 281.417 86.7054 282.28 86.7054C283.425 86.7054 284.185 87.4026 284.185 88.8386V92.4287H283.29V88.9011C283.29 88.027 282.811 87.5067 282.01 87.5067C281.188 87.5067 280.584 88.0582 280.584 89.0364ZM287.931 92.5432C286.391 92.5432 285.35 91.3881 285.35 89.6295C285.35 87.8709 286.391 86.7054 287.931 86.7054C289.46 86.7054 290.491 87.8709 290.491 89.6295C290.491 91.3881 289.46 92.5432 287.931 92.5432ZM287.931 91.7523C289.065 91.7523 289.596 90.7533 289.596 89.6295C289.596 88.5056 289.065 87.4963 287.931 87.4963C286.776 87.4963 286.245 88.5056 286.245 89.6295C286.245 90.7533 286.776 91.7523 287.931 91.7523ZM292.749 92.4287L291.032 86.7782H291.979L293.186 91.0863H293.238L294.435 86.7782H295.392L296.568 91.0655H296.63L297.837 86.7782H298.774L297.057 92.4287H296.172L294.944 88.1206H294.861L293.644 92.4287H292.749Z" fill="var(--sol-element-primary)"/>
</g>
<g clip-path="url(#clip4_1668_177080)">
<path d="M258.825 115.263V107.729H261.385C263.154 107.729 263.955 108.707 263.955 110.049C263.955 111.043 263.508 111.829 262.551 112.162L264.247 115.263H263.154L261.583 112.328L261.395 112.339H259.762V115.263H258.825ZM259.762 111.485H261.354C262.551 111.485 263.029 110.944 263.029 110.049C263.029 109.144 262.551 108.561 261.343 108.561H259.762V111.485ZM268.763 112.942V109.612H269.647V115.263H268.763V114.305H268.7C268.43 114.878 267.878 115.336 267.025 115.336C265.953 115.336 265.194 114.638 265.194 113.202V109.612H266.089V113.14C266.089 113.952 266.598 114.472 267.316 114.472C267.951 114.472 268.763 113.993 268.763 112.942ZM271.978 111.87V115.263H271.083V109.612H271.947V110.497H272.02C272.291 109.924 272.811 109.539 273.675 109.539C274.819 109.539 275.579 110.237 275.579 111.673V115.263H274.684V111.735C274.684 110.861 274.205 110.341 273.404 110.341C272.582 110.341 271.978 110.892 271.978 111.87ZM282.155 109.612V110.361H280.969V113.639C280.969 114.368 281.323 114.482 281.708 114.482C281.874 114.482 282.103 114.472 282.239 114.461V115.294C282.103 115.315 281.874 115.336 281.614 115.336C280.865 115.336 280.064 114.867 280.064 113.868V110.361H279.211V109.612H280.064V108.259H280.969V109.612H282.155ZM285.631 115.377C283.997 115.377 282.988 114.222 282.988 112.484C282.988 110.746 284.008 109.539 285.548 109.539C286.734 109.539 287.983 110.268 287.983 112.359V112.734H283.883C283.924 113.931 284.622 114.586 285.631 114.586C286.307 114.586 286.734 114.295 286.942 113.941H287.9C287.629 114.794 286.797 115.377 285.631 115.377ZM283.893 111.974H287.077C287.077 111.027 286.474 110.33 285.548 110.33C284.57 110.33 283.945 111.1 283.893 111.974ZM292.291 111.079C292.166 110.611 291.812 110.299 291.146 110.299C290.449 110.299 289.95 110.674 289.95 111.152C289.95 111.527 290.251 111.787 290.917 111.943L291.76 112.151C292.77 112.391 293.269 112.89 293.269 113.681C293.269 114.659 292.468 115.377 291.053 115.377C289.783 115.377 289.023 114.815 288.878 113.785H289.814C289.918 114.337 290.324 114.597 291.032 114.597C291.833 114.597 292.343 114.264 292.343 113.733C292.343 113.338 292.062 113.067 291.417 112.921L290.563 112.724C289.575 112.495 289.055 111.954 289.055 111.204C289.055 110.237 289.898 109.539 291.146 109.539C292.312 109.539 293.051 110.164 293.165 111.079H292.291ZM296.901 109.612V110.361H295.714V113.639C295.714 114.368 296.068 114.482 296.453 114.482C296.62 114.482 296.849 114.472 296.984 114.461V115.294C296.849 115.315 296.62 115.336 296.36 115.336C295.61 115.336 294.809 114.867 294.809 113.868V110.361H293.956V109.612H294.809V108.259H295.714V109.612H296.901Z" fill="var(--sol-element-primary)"/>
</g>
<g clip-path="url(#clip5_1668_177080)">
<path d="M258.825 138.097V130.563H261.385C263.154 130.563 263.955 131.541 263.955 132.883C263.955 133.877 263.508 134.663 262.551 134.996L264.247 138.097H263.154L261.583 135.162L261.395 135.173H259.762V138.097H258.825ZM259.762 134.319H261.354C262.551 134.319 263.029 133.778 263.029 132.883C263.029 131.978 262.551 131.395 261.343 131.395H259.762V134.319ZM268.763 135.776V132.446H269.647V138.097H268.763V137.139H268.7C268.43 137.712 267.878 138.17 267.025 138.17C265.953 138.17 265.194 137.472 265.194 136.036V132.446H266.089V135.974C266.089 136.786 266.598 137.306 267.316 137.306C267.951 137.306 268.763 136.827 268.763 135.776ZM271.978 134.704V138.097H271.083V132.446H271.947V133.331H272.02C272.291 132.758 272.811 132.373 273.675 132.373C274.819 132.373 275.579 133.071 275.579 134.507V138.097H274.684V134.569C274.684 133.695 274.205 133.175 273.404 133.175C272.582 133.175 271.978 133.726 271.978 134.704ZM282.218 132.446V133.195H280.969V138.097H280.064V133.195H279.158V132.446H280.064V131.676C280.064 130.76 280.678 130.209 281.677 130.209C281.895 130.209 282.155 130.24 282.343 130.271V131.073C282.155 131.041 281.989 131.031 281.874 131.031C281.25 131.031 280.969 131.291 280.969 131.874V132.446H282.218ZM282.853 136.494C282.853 135.193 283.997 134.902 284.975 134.829C285.334 134.803 286.25 134.756 286.505 134.746V134.288C286.505 133.57 286.078 133.154 285.225 133.154C284.507 133.154 284.081 133.487 283.956 133.913H283.019C283.134 133.008 284.018 132.373 285.267 132.373C286.006 132.373 287.39 132.592 287.39 134.371V138.097H286.505V137.327H286.464C286.276 137.712 285.756 138.232 284.778 138.232C283.706 138.232 282.853 137.597 282.853 136.494ZM283.748 136.536C283.748 137.129 284.247 137.431 284.934 137.431C285.943 137.431 286.505 136.754 286.505 136.047V135.474L285.08 135.578C284.268 135.63 283.748 135.922 283.748 136.536ZM288.826 138.097V132.446H289.721V138.097H288.826ZM289.273 131.51C288.93 131.51 288.649 131.25 288.649 130.917C288.649 130.584 288.93 130.323 289.273 130.323C289.617 130.323 289.908 130.584 289.908 130.917C289.908 131.25 289.617 131.51 289.273 131.51ZM292.041 130.563V138.097H291.146V130.563H292.041ZM295.839 138.211C294.206 138.211 293.196 137.056 293.196 135.318C293.196 133.58 294.216 132.373 295.756 132.373C296.942 132.373 298.191 133.102 298.191 135.193V135.568H294.091C294.133 136.765 294.83 137.42 295.839 137.42C296.516 137.42 296.942 137.129 297.15 136.775H298.108C297.837 137.628 297.005 138.211 295.839 138.211ZM294.102 134.808H297.286C297.286 133.861 296.682 133.164 295.756 133.164C294.778 133.164 294.154 133.934 294.102 134.808ZM301.49 138.211C300.085 138.211 299.086 137.077 299.086 135.287C299.086 133.497 300.085 132.373 301.5 132.373C302.593 132.373 302.947 133.039 303.134 133.341H303.196V130.563H304.102V138.097H303.228V137.233H303.134C302.936 137.545 302.572 138.211 301.49 138.211ZM301.615 137.41C302.645 137.41 303.228 136.536 303.228 135.266C303.228 134.018 302.666 133.175 301.615 133.175C300.532 133.175 299.991 134.09 299.991 135.266C299.991 136.473 300.543 137.41 301.615 137.41ZM308.327 132.446H309.221V138.503C309.221 139.564 308.68 140.22 307.577 140.22H307.39V139.387H307.567C308.087 139.387 308.327 139.064 308.327 138.503V132.446ZM308.764 131.51C308.42 131.51 308.139 131.25 308.139 130.917C308.139 130.584 308.42 130.323 308.764 130.323C309.107 130.323 309.398 130.584 309.398 130.917C309.398 131.25 309.107 131.51 308.764 131.51ZM312.957 138.211C311.417 138.211 310.377 137.056 310.377 135.297C310.377 133.539 311.417 132.373 312.957 132.373C314.487 132.373 315.517 133.539 315.517 135.297C315.517 137.056 314.487 138.211 312.957 138.211ZM312.957 137.42C314.091 137.42 314.622 136.421 314.622 135.297C314.622 134.174 314.091 133.164 312.957 133.164C311.802 133.164 311.271 134.174 311.271 135.297C311.271 136.421 311.802 137.42 312.957 137.42ZM316.807 138.097V130.563H317.702V133.341H317.775C317.973 133.039 318.306 132.373 319.409 132.373C320.824 132.373 321.823 133.497 321.823 135.287C321.823 137.077 320.824 138.211 319.419 138.211C318.337 138.211 317.973 137.545 317.775 137.233H317.671V138.097H316.807ZM317.682 135.266C317.682 136.536 318.254 137.41 319.284 137.41C320.356 137.41 320.918 136.473 320.918 135.266C320.918 134.09 320.377 133.175 319.284 133.175C318.243 133.175 317.682 134.018 317.682 135.266ZM326.131 133.913C326.006 133.445 325.653 133.133 324.987 133.133C324.289 133.133 323.79 133.508 323.79 133.986C323.79 134.361 324.092 134.621 324.758 134.777L325.601 134.985C326.61 135.225 327.109 135.724 327.109 136.515C327.109 137.493 326.308 138.211 324.893 138.211C323.623 138.211 322.864 137.649 322.718 136.619H323.655C323.759 137.171 324.164 137.431 324.872 137.431C325.673 137.431 326.183 137.098 326.183 136.567C326.183 136.172 325.902 135.901 325.257 135.755L324.404 135.558C323.415 135.329 322.895 134.788 322.895 134.038C322.895 133.071 323.738 132.373 324.987 132.373C326.152 132.373 326.891 132.998 327.005 133.913H326.131Z" fill="var(--sol-element-primary)"/>
</g>
<g clip-path="url(#clip6_1668_177080)">
<path d="M258.825 160.93V153.396H261.385C263.154 153.396 263.955 154.374 263.955 155.716C263.955 156.71 263.508 157.496 262.551 157.829L264.247 160.93H263.154L261.583 157.995L261.395 158.006H259.762V160.93H258.825ZM259.762 157.152H261.354C262.551 157.152 263.029 156.611 263.029 155.716C263.029 154.811 262.551 154.228 261.343 154.228H259.762V157.152ZM268.763 158.609V155.279H269.647V160.93H268.763V159.972H268.7C268.43 160.545 267.878 161.003 267.025 161.003C265.953 161.003 265.194 160.305 265.194 158.869V155.279H266.089V158.807C266.089 159.619 266.598 160.139 267.316 160.139C267.951 160.139 268.763 159.66 268.763 158.609ZM271.978 157.537V160.93H271.083V155.279H271.947V156.164H272.02C272.291 155.591 272.811 155.206 273.675 155.206C274.819 155.206 275.579 155.904 275.579 157.34V160.93H274.684V157.402C274.684 156.528 274.205 156.008 273.404 156.008C272.582 156.008 271.978 156.559 271.978 157.537ZM282.832 156.746C282.707 156.278 282.353 155.966 281.687 155.966C280.99 155.966 280.49 156.341 280.49 156.819C280.49 157.194 280.792 157.454 281.458 157.61L282.301 157.818C283.31 158.058 283.81 158.557 283.81 159.348C283.81 160.326 283.009 161.044 281.594 161.044C280.324 161.044 279.564 160.482 279.419 159.452H280.355C280.459 160.004 280.865 160.264 281.573 160.264C282.374 160.264 282.884 159.931 282.884 159.4C282.884 159.005 282.603 158.734 281.958 158.588L281.104 158.391C280.116 158.162 279.596 157.621 279.596 156.871C279.596 155.904 280.438 155.206 281.687 155.206C282.853 155.206 283.591 155.831 283.706 156.746H282.832ZM287.348 161.044C285.714 161.044 284.705 159.889 284.705 158.151C284.705 156.413 285.725 155.206 287.265 155.206C288.451 155.206 289.7 155.935 289.7 158.026V158.401H285.6C285.641 159.598 286.339 160.253 287.348 160.253C288.024 160.253 288.451 159.962 288.659 159.608H289.617C289.346 160.461 288.514 161.044 287.348 161.044ZM285.61 157.641H288.794C288.794 156.694 288.191 155.997 287.265 155.997C286.287 155.997 285.662 156.767 285.61 157.641ZM291.76 153.396V160.93H290.865V153.396H291.76ZM295.558 161.044C293.925 161.044 292.915 159.889 292.915 158.151C292.915 156.413 293.935 155.206 295.475 155.206C296.661 155.206 297.91 155.935 297.91 158.026V158.401H293.81C293.852 159.598 294.549 160.253 295.558 160.253C296.235 160.253 296.661 159.962 296.87 159.608H297.827C297.556 160.461 296.724 161.044 295.558 161.044ZM293.821 157.641H297.005C297.005 156.694 296.401 155.997 295.475 155.997C294.497 155.997 293.873 156.767 293.821 157.641ZM301.386 161.044C299.783 161.044 298.805 159.827 298.805 158.13C298.805 156.413 299.825 155.206 301.365 155.206C302.572 155.206 303.467 155.914 303.613 156.986H302.718C302.593 156.466 302.135 155.997 301.386 155.997C300.376 155.997 299.7 156.83 299.7 158.099C299.7 159.41 300.356 160.243 301.386 160.243C302.052 160.243 302.562 159.889 302.718 159.265H303.613C303.467 160.274 302.645 161.044 301.386 161.044ZM307.182 155.279V156.028H305.996V159.306C305.996 160.035 306.349 160.149 306.734 160.149C306.901 160.149 307.13 160.139 307.265 160.128V160.961C307.13 160.982 306.901 161.003 306.641 161.003C305.892 161.003 305.09 160.534 305.09 159.535V156.028H304.237V155.279H305.09V153.926H305.996V155.279H307.182ZM310.657 161.044C309.024 161.044 308.014 159.889 308.014 158.151C308.014 156.413 309.034 155.206 310.574 155.206C311.761 155.206 313.009 155.935 313.009 158.026V158.401H308.909C308.951 159.598 309.648 160.253 310.657 160.253C311.334 160.253 311.761 159.962 311.969 159.608H312.926C312.655 160.461 311.823 161.044 310.657 161.044ZM308.92 157.641H312.104C312.104 156.694 311.5 155.997 310.574 155.997C309.596 155.997 308.972 156.767 308.92 157.641ZM316.308 161.044C314.903 161.044 313.904 159.91 313.904 158.12C313.904 156.33 314.903 155.206 316.318 155.206C317.411 155.206 317.765 155.872 317.952 156.174H318.015V153.396H318.92V160.93H318.046V160.066H317.952C317.754 160.378 317.39 161.044 316.308 161.044ZM316.433 160.243C317.463 160.243 318.046 159.369 318.046 158.099C318.046 156.851 317.484 156.008 316.433 156.008C315.351 156.008 314.809 156.923 314.809 158.099C314.809 159.306 315.361 160.243 316.433 160.243ZM323.145 160.93V155.279H324.008V156.143H324.071C324.279 155.571 324.862 155.186 325.528 155.186C325.663 155.186 325.892 155.196 325.996 155.206V156.112C325.934 156.091 325.684 156.049 325.455 156.049C324.643 156.049 324.04 156.611 324.04 157.371V160.93H323.145ZM329.003 161.044C327.463 161.044 326.423 159.889 326.423 158.13C326.423 156.372 327.463 155.206 329.003 155.206C330.533 155.206 331.563 156.372 331.563 158.13C331.563 159.889 330.533 161.044 329.003 161.044ZM329.003 160.253C330.138 160.253 330.668 159.254 330.668 158.13C330.668 157.007 330.138 155.997 329.003 155.997C327.848 155.997 327.318 157.007 327.318 158.13C327.318 159.254 327.848 160.253 329.003 160.253ZM333.821 160.93L332.104 155.279H333.051L334.258 159.587H334.31L335.507 155.279H336.464L337.64 159.567H337.703L338.91 155.279H339.846L338.129 160.93H337.245L336.017 156.622H335.934L334.716 160.93H333.821ZM343.978 156.746C343.853 156.278 343.499 155.966 342.833 155.966C342.136 155.966 341.636 156.341 341.636 156.819C341.636 157.194 341.938 157.454 342.604 157.61L343.447 157.818C344.456 158.058 344.956 158.557 344.956 159.348C344.956 160.326 344.154 161.044 342.739 161.044C341.47 161.044 340.71 160.482 340.564 159.452H341.501C341.605 160.004 342.011 160.264 342.718 160.264C343.52 160.264 344.03 159.931 344.03 159.4C344.03 159.005 343.749 158.734 343.103 158.588L342.25 158.391C341.262 158.162 340.741 157.621 340.741 156.871C340.741 155.904 341.584 155.206 342.833 155.206C343.998 155.206 344.737 155.831 344.852 156.746H343.978Z" fill="var(--sol-element-primary)"/>
</g>
<g clip-path="url(#clip7_1668_177080)">
<path d="M258.825 183.764V176.23H261.385C263.154 176.23 263.955 177.208 263.955 178.55C263.955 179.544 263.508 180.33 262.551 180.663L264.247 183.764H263.154L261.583 180.829L261.395 180.84H259.762V183.764H258.825ZM259.762 179.986H261.354C262.551 179.986 263.029 179.445 263.029 178.55C263.029 177.645 262.551 177.062 261.343 177.062H259.762V179.986ZM268.763 181.443V178.113H269.647V183.764H268.763V182.806H268.7C268.43 183.379 267.878 183.837 267.025 183.837C265.953 183.837 265.194 183.139 265.194 181.703V178.113H266.089V181.641C266.089 182.453 266.598 182.973 267.316 182.973C267.951 182.973 268.763 182.494 268.763 181.443ZM271.978 180.371V183.764H271.083V178.113H271.947V178.998H272.02C272.291 178.425 272.811 178.04 273.675 178.04C274.819 178.04 275.579 178.738 275.579 180.174V183.764H274.684V180.236C274.684 179.362 274.205 178.842 273.404 178.842C272.582 178.842 271.978 179.393 271.978 180.371ZM279.419 182.161C279.419 180.86 280.563 180.569 281.541 180.496C281.9 180.47 282.816 180.423 283.071 180.413V179.955C283.071 179.237 282.645 178.821 281.791 178.821C281.073 178.821 280.647 179.154 280.522 179.58H279.585C279.7 178.675 280.584 178.04 281.833 178.04C282.572 178.04 283.956 178.259 283.956 180.038V183.764H283.071V182.994H283.03C282.842 183.379 282.322 183.899 281.344 183.899C280.272 183.899 279.419 183.264 279.419 182.161ZM280.314 182.203C280.314 182.796 280.813 183.098 281.5 183.098C282.509 183.098 283.071 182.421 283.071 181.714V181.141L281.646 181.245C280.834 181.297 280.314 181.589 280.314 182.203ZM286.287 176.23V183.764H285.392V176.23H286.287ZM288.607 176.23V183.764H287.712V176.23H288.607ZM295.85 179.58C295.725 179.112 295.371 178.8 294.705 178.8C294.008 178.8 293.508 179.175 293.508 179.653C293.508 180.028 293.81 180.288 294.476 180.444L295.319 180.652C296.328 180.892 296.828 181.391 296.828 182.182C296.828 183.16 296.027 183.878 294.611 183.878C293.342 183.878 292.582 183.316 292.437 182.286H293.373C293.477 182.838 293.883 183.098 294.591 183.098C295.392 183.098 295.902 182.765 295.902 182.234C295.902 181.839 295.621 181.568 294.976 181.422L294.122 181.225C293.134 180.996 292.613 180.455 292.613 179.705C292.613 178.738 293.456 178.04 294.705 178.04C295.871 178.04 296.609 178.665 296.724 179.58H295.85ZM300.46 178.113V178.862H299.273V182.14C299.273 182.869 299.627 182.983 300.012 182.983C300.179 182.983 300.408 182.973 300.543 182.962V183.795C300.408 183.816 300.179 183.837 299.918 183.837C299.169 183.837 298.368 183.368 298.368 182.369V178.862H297.515V178.113H298.368V176.76H299.273V178.113H300.46ZM303.873 183.878C302.333 183.878 301.292 182.723 301.292 180.964C301.292 179.206 302.333 178.04 303.873 178.04C305.402 178.04 306.433 179.206 306.433 180.964C306.433 182.723 305.402 183.878 303.873 183.878ZM303.873 183.087C305.007 183.087 305.538 182.088 305.538 180.964C305.538 179.841 305.007 178.831 303.873 178.831C302.718 178.831 302.187 179.841 302.187 180.964C302.187 182.088 302.718 183.087 303.873 183.087ZM307.609 183.764V178.113H308.472V178.977H308.535C308.743 178.405 309.326 178.02 309.992 178.02C310.127 178.02 310.356 178.03 310.46 178.04V178.946C310.397 178.925 310.148 178.883 309.919 178.883C309.107 178.883 308.503 179.445 308.503 180.205V183.764H307.609ZM313.53 183.878C311.896 183.878 310.886 182.723 310.886 180.985C310.886 179.247 311.906 178.04 313.446 178.04C314.633 178.04 315.881 178.769 315.881 180.86V181.235H311.781C311.823 182.432 312.52 183.087 313.53 183.087C314.206 183.087 314.633 182.796 314.841 182.442H315.798C315.528 183.295 314.695 183.878 313.53 183.878ZM311.792 180.475H314.976C314.976 179.528 314.372 178.831 313.446 178.831C312.468 178.831 311.844 179.601 311.792 180.475ZM320.189 179.58C320.065 179.112 319.711 178.8 319.045 178.8C318.348 178.8 317.848 179.175 317.848 179.653C317.848 180.028 318.15 180.288 318.816 180.444L319.659 180.652C320.668 180.892 321.168 181.391 321.168 182.182C321.168 183.16 320.366 183.878 318.951 183.878C317.682 183.878 316.922 183.316 316.776 182.286H317.713C317.817 182.838 318.223 183.098 318.93 183.098C319.732 183.098 320.241 182.765 320.241 182.234C320.241 181.839 319.96 181.568 319.315 181.422L318.462 181.225C317.473 180.996 316.953 180.455 316.953 179.705C316.953 178.738 317.796 178.04 319.045 178.04C320.21 178.04 320.949 178.665 321.064 179.58H320.189Z" fill="var(--sol-element-primary)"/>
</g>
<g clip-path="url(#clip8_1668_177080)">
<path d="M258.825 206.598V199.064H261.385C263.154 199.064 263.955 200.042 263.955 201.384C263.955 202.378 263.508 203.164 262.551 203.497L264.247 206.598H263.154L261.583 203.663L261.395 203.674H259.762V206.598H258.825ZM259.762 202.82H261.354C262.551 202.82 263.029 202.279 263.029 201.384C263.029 200.479 262.551 199.896 261.343 199.896H259.762V202.82ZM268.763 204.277V200.947H269.647V206.598H268.763V205.64H268.7C268.43 206.213 267.878 206.67 267.025 206.67C265.953 206.67 265.194 205.973 265.194 204.537V200.947H266.089V204.475C266.089 205.286 266.598 205.807 267.316 205.807C267.951 205.807 268.763 205.328 268.763 204.277ZM271.978 203.205V206.598H271.083V200.947H271.947V201.832H272.02C272.291 201.259 272.811 200.874 273.675 200.874C274.819 200.874 275.579 201.572 275.579 203.008V206.598H274.684V203.07C274.684 202.196 274.205 201.676 273.404 201.676C272.582 201.676 271.978 202.227 271.978 203.205ZM280.959 206.598L279.242 200.947H280.189L281.396 205.255H281.448L282.645 200.947H283.602L284.778 205.234H284.84L286.047 200.947H286.984L285.267 206.598H284.382L283.154 202.29H283.071L281.854 206.598H280.959ZM287.972 206.598V200.947H288.867V206.598H287.972ZM288.42 200.011C288.076 200.011 287.795 199.751 287.795 199.418C287.795 199.085 288.076 198.824 288.42 198.824C288.763 198.824 289.055 199.085 289.055 199.418C289.055 199.751 288.763 200.011 288.42 200.011ZM292.759 200.947V201.696H291.573V204.974C291.573 205.703 291.927 205.817 292.312 205.817C292.478 205.817 292.707 205.807 292.842 205.796V206.629C292.707 206.65 292.478 206.67 292.218 206.67C291.469 206.67 290.668 206.202 290.668 205.203V201.696H289.814V200.947H290.668V199.594H291.573V200.947H292.759ZM294.934 203.205V206.598H294.039V199.064H294.934V201.832H295.007C295.267 201.249 295.777 200.874 296.672 200.874C297.827 200.874 298.597 201.561 298.597 203.008V206.598H297.702V203.07C297.702 202.186 297.213 201.676 296.401 201.676C295.558 201.676 294.934 202.227 294.934 203.205ZM302.822 206.598V199.064H303.717V201.842H303.79C303.987 201.54 304.32 200.874 305.423 200.874C306.838 200.874 307.837 201.998 307.837 203.788C307.837 205.578 306.838 206.712 305.434 206.712C304.351 206.712 303.987 206.046 303.79 205.734H303.685V206.598H302.822ZM303.696 203.767C303.696 205.037 304.268 205.911 305.298 205.911C306.37 205.911 306.932 204.974 306.932 203.767C306.932 202.591 306.391 201.676 305.298 201.676C304.258 201.676 303.696 202.519 303.696 203.767ZM308.732 204.995C308.732 203.694 309.877 203.403 310.855 203.33C311.214 203.304 312.13 203.257 312.385 203.247V202.789C312.385 202.071 311.958 201.655 311.105 201.655C310.387 201.655 309.96 201.988 309.835 202.414H308.899C309.013 201.509 309.898 200.874 311.147 200.874C311.885 200.874 313.269 201.093 313.269 202.872V206.598H312.385V205.828H312.343C312.156 206.213 311.636 206.733 310.657 206.733C309.586 206.733 308.732 206.098 308.732 204.995ZM309.627 205.037C309.627 205.63 310.127 205.932 310.814 205.932C311.823 205.932 312.385 205.255 312.385 204.548V203.975L310.959 204.079C310.148 204.131 309.627 204.423 309.627 205.037ZM317.016 206.712C315.413 206.712 314.435 205.495 314.435 203.798C314.435 202.081 315.455 200.874 316.995 200.874C318.202 200.874 319.097 201.582 319.242 202.654H318.348C318.223 202.133 317.765 201.665 317.016 201.665C316.006 201.665 315.33 202.498 315.33 203.767C315.33 205.078 315.985 205.911 317.016 205.911C317.682 205.911 318.191 205.557 318.348 204.933H319.242C319.097 205.942 318.275 206.712 317.016 206.712ZM320.345 206.598V199.064H321.24V203.445H321.344L323.79 200.947H324.893L322.51 203.361L325.07 206.598H323.936L321.844 203.934L321.24 204.485V206.598H320.345ZM329.42 204.277V200.947H330.304V206.598H329.42V205.64H329.357C329.087 206.213 328.535 206.67 327.682 206.67C326.61 206.67 325.85 205.973 325.85 204.537V200.947H326.745V204.475C326.745 205.286 327.255 205.807 327.973 205.807C328.608 205.807 329.42 205.328 329.42 204.277ZM331.74 208.72V200.947H332.604V201.842H332.708C332.895 201.54 333.249 200.874 334.342 200.874C335.757 200.874 336.745 201.998 336.745 203.788C336.745 205.578 335.757 206.712 334.352 206.712C333.27 206.712 332.895 206.046 332.708 205.734H332.635V208.72H331.74ZM332.614 203.767C332.614 205.037 333.187 205.911 334.227 205.911C335.299 205.911 335.85 204.974 335.85 203.767C335.85 202.591 335.309 201.676 334.227 201.676C333.166 201.676 332.614 202.519 332.614 203.767Z" fill="var(--sol-element-primary)"/>
</g>
<g clip-path="url(#clip9_1668_177080)">
<path d="M258.825 229.432V221.898H261.385C263.154 221.898 263.955 222.876 263.955 224.218C263.955 225.212 263.508 225.998 262.551 226.331L264.247 229.432H263.154L261.583 226.497L261.395 226.508H259.762V229.432H258.825ZM259.762 225.654H261.354C262.551 225.654 263.029 225.113 263.029 224.218C263.029 223.313 262.551 222.73 261.343 222.73H259.762V225.654ZM268.763 227.111V223.781H269.647V229.432H268.763V228.474H268.7C268.43 229.047 267.878 229.504 267.025 229.504C265.953 229.504 265.194 228.807 265.194 227.371V223.781H266.089V227.309C266.089 228.12 266.598 228.641 267.316 228.641C267.951 228.641 268.763 228.162 268.763 227.111ZM271.978 226.039V229.432H271.083V223.781H271.947V224.666H272.02C272.291 224.093 272.811 223.708 273.675 223.708C274.819 223.708 275.579 224.406 275.579 225.842V229.432H274.684V225.904C274.684 225.03 274.205 224.51 273.404 224.51C272.582 224.51 271.978 225.061 271.978 226.039ZM279.419 227.829C279.419 226.528 280.563 226.237 281.541 226.164C281.9 226.138 282.816 226.091 283.071 226.081V225.623C283.071 224.905 282.645 224.489 281.791 224.489C281.073 224.489 280.647 224.822 280.522 225.248H279.585C279.7 224.343 280.584 223.708 281.833 223.708C282.572 223.708 283.956 223.927 283.956 225.706V229.432H283.071V228.662H283.03C282.842 229.047 282.322 229.567 281.344 229.567C280.272 229.567 279.419 228.932 279.419 227.829ZM280.314 227.871C280.314 228.464 280.813 228.766 281.5 228.766C282.509 228.766 283.071 228.089 283.071 227.382V226.809L281.646 226.913C280.834 226.965 280.314 227.257 280.314 227.871ZM286.287 226.039V229.432H285.392V223.781H286.255V224.666H286.328C286.599 224.093 287.119 223.708 287.983 223.708C289.127 223.708 289.887 224.406 289.887 225.842V229.432H288.992V225.904C288.992 225.03 288.514 224.51 287.712 224.51C286.89 224.51 286.287 225.061 286.287 226.039ZM293.456 229.546C292.052 229.546 291.053 228.412 291.053 226.622C291.053 224.832 292.052 223.708 293.467 223.708C294.559 223.708 294.913 224.374 295.101 224.676H295.163V221.898H296.068V229.432H295.194V228.568H295.101C294.903 228.88 294.539 229.546 293.456 229.546ZM293.581 228.745C294.611 228.745 295.194 227.871 295.194 226.601C295.194 225.352 294.632 224.51 293.581 224.51C292.499 224.51 291.958 225.425 291.958 226.601C291.958 227.808 292.509 228.745 293.581 228.745ZM301.188 226.039V229.432H300.293V223.781H301.157V224.666H301.23C301.5 224.093 302.021 223.708 302.884 223.708C304.029 223.708 304.789 224.406 304.789 225.842V229.432H303.894V225.904C303.894 225.03 303.415 224.51 302.614 224.51C301.792 224.51 301.188 225.061 301.188 226.039ZM308.535 229.546C306.995 229.546 305.954 228.391 305.954 226.632C305.954 224.874 306.995 223.708 308.535 223.708C310.064 223.708 311.095 224.874 311.095 226.632C311.095 228.391 310.064 229.546 308.535 229.546ZM308.535 228.755C309.669 228.755 310.2 227.756 310.2 226.632C310.2 225.509 309.669 224.499 308.535 224.499C307.38 224.499 306.849 225.509 306.849 226.632C306.849 227.756 307.38 228.755 308.535 228.755ZM314.737 223.781V224.53H313.55V227.808C313.55 228.537 313.904 228.651 314.289 228.651C314.456 228.651 314.685 228.641 314.82 228.63V229.463C314.685 229.484 314.456 229.504 314.196 229.504C313.446 229.504 312.645 229.036 312.645 228.037V224.53H311.792V223.781H312.645V222.428H313.55V223.781H314.737ZM315.892 229.432V223.781H316.787V229.432H315.892ZM316.339 222.845C315.996 222.845 315.715 222.584 315.715 222.251C315.715 221.919 315.996 221.658 316.339 221.658C316.683 221.658 316.974 221.919 316.974 222.251C316.974 222.584 316.683 222.845 316.339 222.845ZM320.741 223.781V224.53H319.492V229.432H318.587V224.53H317.682V223.781H318.587V223.011C318.587 222.095 319.201 221.544 320.2 221.544C320.418 221.544 320.678 221.575 320.866 221.606V222.408C320.678 222.376 320.512 222.366 320.398 222.366C319.773 222.366 319.492 222.626 319.492 223.209V223.781H320.741ZM322.375 231.554C322.177 231.554 321.99 231.544 321.875 231.534V230.732C321.969 230.743 322.177 230.753 322.312 230.753C322.676 230.753 322.978 230.722 323.28 229.9L323.446 229.473L321.355 223.781H322.333L323.873 228.266H323.936L325.476 223.781H326.454L324.06 230.243C323.727 231.128 323.176 231.554 322.375 231.554Z" fill="var(--sol-element-primary)"/>
</g>
<g clip-path="url(#clip10_1668_177080)">
<path d="M258.825 252.265V244.731H261.385C263.154 244.731 263.955 245.709 263.955 247.051C263.955 248.045 263.508 248.831 262.551 249.164L264.247 252.265H263.154L261.583 249.33L261.395 249.341H259.762V252.265H258.825ZM259.762 248.487H261.354C262.551 248.487 263.029 247.946 263.029 247.051C263.029 246.146 262.551 245.563 261.343 245.563H259.762V248.487ZM268.763 249.944V246.614H269.647V252.265H268.763V251.307H268.7C268.43 251.88 267.878 252.337 267.025 252.337C265.953 252.337 265.194 251.64 265.194 250.204V246.614H266.089V250.142C266.089 250.953 266.598 251.474 267.316 251.474C267.951 251.474 268.763 250.995 268.763 249.944ZM271.978 248.872V252.265H271.083V246.614H271.947V247.499H272.02C272.291 246.926 272.811 246.541 273.675 246.541C274.819 246.541 275.579 247.239 275.579 248.675V252.265H274.684V248.737C274.684 247.863 274.205 247.343 273.404 247.343C272.582 247.343 271.978 247.894 271.978 248.872ZM279.419 250.662C279.419 249.361 280.563 249.07 281.541 248.997C281.9 248.971 282.816 248.924 283.071 248.914V248.456C283.071 247.738 282.645 247.322 281.791 247.322C281.073 247.322 280.647 247.655 280.522 248.081H279.585C279.7 247.176 280.584 246.541 281.833 246.541C282.572 246.541 283.956 246.76 283.956 248.539V252.265H283.071V251.495H283.03C282.842 251.88 282.322 252.4 281.344 252.4C280.272 252.4 279.419 251.765 279.419 250.662ZM280.314 250.704C280.314 251.297 280.813 251.599 281.5 251.599C282.509 251.599 283.071 250.922 283.071 250.215V249.642L281.646 249.746C280.834 249.798 280.314 250.09 280.314 250.704ZM286.287 248.872V252.265H285.392V246.614H286.255V247.499H286.328C286.599 246.926 287.119 246.541 287.983 246.541C289.127 246.541 289.887 247.239 289.887 248.675V252.265H288.992V248.737C288.992 247.863 288.514 247.343 287.712 247.343C286.89 247.343 286.287 247.894 286.287 248.872ZM293.456 252.379C292.052 252.379 291.053 251.245 291.053 249.455C291.053 247.665 292.052 246.541 293.467 246.541C294.559 246.541 294.913 247.207 295.101 247.509H295.163V244.731H296.068V252.265H295.194V251.401H295.101C294.903 251.713 294.539 252.379 293.456 252.379ZM293.581 251.578C294.611 251.578 295.194 250.704 295.194 249.434C295.194 248.185 294.632 247.343 293.581 247.343C292.499 247.343 291.958 248.258 291.958 249.434C291.958 250.641 292.509 251.578 293.581 251.578ZM300.023 250.662C300.023 249.361 301.167 249.07 302.145 248.997C302.504 248.971 303.42 248.924 303.675 248.914V248.456C303.675 247.738 303.248 247.322 302.395 247.322C301.677 247.322 301.25 247.655 301.126 248.081H300.189C300.304 247.176 301.188 246.541 302.437 246.541C303.176 246.541 304.56 246.76 304.56 248.539V252.265H303.675V251.495H303.633C303.446 251.88 302.926 252.4 301.948 252.4C300.876 252.4 300.023 251.765 300.023 250.662ZM300.917 250.704C300.917 251.297 301.417 251.599 302.104 251.599C303.113 251.599 303.675 250.922 303.675 250.215V249.642L302.249 249.746C301.438 249.798 300.917 250.09 300.917 250.704ZM305.996 252.265V246.614H306.859V247.478H306.922C307.13 246.906 307.713 246.521 308.379 246.521C308.514 246.521 308.743 246.531 308.847 246.541V247.447C308.784 247.426 308.535 247.384 308.306 247.384C307.494 247.384 306.891 247.946 306.891 248.706V252.265H305.996ZM311.854 252.379C310.252 252.379 309.273 251.162 309.273 249.465C309.273 247.748 310.293 246.541 311.833 246.541C313.04 246.541 313.935 247.249 314.081 248.321H313.186C313.061 247.8 312.603 247.332 311.854 247.332C310.845 247.332 310.168 248.165 310.168 249.434C310.168 250.745 310.824 251.578 311.854 251.578C312.52 251.578 313.03 251.224 313.186 250.6H314.081C313.935 251.609 313.113 252.379 311.854 252.379ZM316.079 248.872V252.265H315.184V244.731H316.079V247.499H316.152C316.412 246.916 316.922 246.541 317.817 246.541C318.972 246.541 319.742 247.228 319.742 248.675V252.265H318.847V248.737C318.847 247.853 318.358 247.343 317.546 247.343C316.703 247.343 316.079 247.894 316.079 248.872ZM321.178 252.265V246.614H322.073V252.265H321.178ZM321.625 245.678C321.282 245.678 321.001 245.417 321.001 245.085C321.001 244.752 321.282 244.491 321.625 244.491C321.969 244.491 322.26 244.752 322.26 245.085C322.26 245.417 321.969 245.678 321.625 245.678ZM328.15 246.614L326.058 252.265H325.132L323.051 246.614H324.029L325.569 251.099H325.632L327.172 246.614H328.15ZM331.303 252.379C329.669 252.379 328.66 251.224 328.66 249.486C328.66 247.748 329.68 246.541 331.22 246.541C332.406 246.541 333.655 247.27 333.655 249.361V249.736H329.555C329.596 250.933 330.294 251.588 331.303 251.588C331.979 251.588 332.406 251.297 332.614 250.943H333.572C333.301 251.796 332.468 252.379 331.303 252.379ZM329.565 248.976H332.749C332.749 248.029 332.146 247.332 331.22 247.332C330.242 247.332 329.617 248.102 329.565 248.976Z" fill="var(--sol-element-primary)"/>
</g>
<g clip-path="url(#clip11_1668_177080)">
<path d="M258.825 275.099V267.565H261.385C263.154 267.565 263.955 268.543 263.955 269.885C263.955 270.879 263.508 271.665 262.551 271.998L264.247 275.099H263.154L261.583 272.164L261.395 272.175H259.762V275.099H258.825ZM259.762 271.321H261.354C262.551 271.321 263.029 270.78 263.029 269.885C263.029 268.98 262.551 268.397 261.343 268.397H259.762V271.321ZM268.763 272.778V269.448H269.647V275.099H268.763V274.141H268.7C268.43 274.714 267.878 275.171 267.025 275.171C265.953 275.171 265.194 274.474 265.194 273.038V269.448H266.089V272.976C266.089 273.787 266.598 274.308 267.316 274.308C267.951 274.308 268.763 273.829 268.763 272.778ZM271.978 271.706V275.099H271.083V269.448H271.947V270.333H272.02C272.291 269.76 272.811 269.375 273.675 269.375C274.819 269.375 275.579 270.073 275.579 271.509V275.099H274.684V271.571C274.684 270.697 274.205 270.177 273.404 270.177C272.582 270.177 271.978 270.728 271.978 271.706ZM280.959 275.099L279.242 269.448H280.189L281.396 273.756H281.448L282.645 269.448H283.602L284.778 273.735H284.84L286.047 269.448H286.984L285.267 275.099H284.382L283.154 270.791H283.071L281.854 275.099H280.959ZM287.972 275.099V269.448H288.867V275.099H287.972ZM288.42 268.512C288.076 268.512 287.795 268.251 287.795 267.918C287.795 267.585 288.076 267.325 288.42 267.325C288.763 267.325 289.055 267.585 289.055 267.918C289.055 268.251 288.763 268.512 288.42 268.512ZM292.759 269.448V270.197H291.573V273.475C291.573 274.204 291.927 274.318 292.312 274.318C292.478 274.318 292.707 274.308 292.842 274.297V275.13C292.707 275.151 292.478 275.171 292.218 275.171C291.469 275.171 290.668 274.703 290.668 273.704V270.197H289.814V269.448H290.668V268.095H291.573V269.448H292.759ZM294.934 271.706V275.099H294.039V267.565H294.934V270.333H295.007C295.267 269.75 295.777 269.375 296.672 269.375C297.827 269.375 298.597 270.062 298.597 271.509V275.099H297.702V271.571C297.702 270.686 297.213 270.177 296.401 270.177C295.558 270.177 294.934 270.728 294.934 271.706ZM304.841 275.213C303.436 275.213 302.437 274.079 302.437 272.289C302.437 270.499 303.436 269.375 304.851 269.375C305.944 269.375 306.297 270.041 306.485 270.343H306.547V267.565H307.452V275.099H306.578V274.235H306.485C306.287 274.547 305.923 275.213 304.841 275.213ZM304.965 274.412C305.996 274.412 306.578 273.538 306.578 272.268C306.578 271.019 306.016 270.177 304.965 270.177C303.883 270.177 303.342 271.092 303.342 272.268C303.342 273.475 303.894 274.412 304.965 274.412ZM311.376 275.213C309.742 275.213 308.732 274.058 308.732 272.32C308.732 270.582 309.752 269.375 311.292 269.375C312.479 269.375 313.727 270.104 313.727 272.195V272.57H309.627C309.669 273.767 310.366 274.422 311.376 274.422C312.052 274.422 312.479 274.131 312.687 273.777H313.644C313.373 274.63 312.541 275.213 311.376 275.213ZM309.638 271.81H312.822C312.822 270.863 312.218 270.166 311.292 270.166C310.314 270.166 309.69 270.936 309.638 271.81ZM315.007 275.099V267.565H315.902V270.343H315.975C316.173 270.041 316.506 269.375 317.609 269.375C319.024 269.375 320.023 270.499 320.023 272.289C320.023 274.079 319.024 275.213 317.619 275.213C316.537 275.213 316.173 274.547 315.975 274.235H315.871V275.099H315.007ZM315.881 272.268C315.881 273.538 316.454 274.412 317.484 274.412C318.556 274.412 319.118 273.475 319.118 272.268C319.118 271.092 318.576 270.177 317.484 270.177C316.443 270.177 315.881 271.019 315.881 272.268ZM324.758 272.778V269.448H325.642V275.099H324.758V274.141H324.695C324.425 274.714 323.873 275.171 323.02 275.171C321.948 275.171 321.188 274.474 321.188 273.038V269.448H322.083V272.976C322.083 273.787 322.593 274.308 323.311 274.308C323.946 274.308 324.758 273.829 324.758 272.778ZM329.367 277.336C328.004 277.336 327.078 276.743 326.974 275.692H327.911C328.036 276.264 328.566 276.555 329.367 276.555C330.335 276.555 330.928 276.139 330.928 275.203V274.058H330.856C330.668 274.37 330.304 275.015 329.211 275.015C327.838 275.015 326.808 273.975 326.808 272.195C326.808 270.458 327.807 269.375 329.222 269.375C330.314 269.375 330.668 270.041 330.876 270.343H330.949V269.448H331.823V275.255C331.823 276.712 330.741 277.336 329.367 277.336ZM329.336 274.214C330.366 274.214 330.949 273.475 330.949 272.227C330.949 271.019 330.387 270.177 329.336 270.177C328.254 270.177 327.713 271.092 327.713 272.227C327.713 273.402 328.264 274.214 329.336 274.214ZM335.923 275.099V269.448H336.787V270.333H336.86C337.099 269.729 337.64 269.375 338.379 269.375C339.118 269.375 339.617 269.729 339.888 270.333H339.95C340.242 269.75 340.835 269.375 341.647 269.375C342.656 269.375 343.374 269.989 343.374 271.321V275.099H342.479V271.332C342.479 270.499 341.948 270.177 341.334 270.177C340.544 270.177 340.096 270.707 340.096 271.425V275.099H339.191V271.238C339.191 270.603 338.733 270.177 338.088 270.177C337.411 270.177 336.818 270.749 336.818 271.571V275.099H335.923ZM347.12 275.213C345.58 275.213 344.539 274.058 344.539 272.299C344.539 270.541 345.58 269.375 347.12 269.375C348.65 269.375 349.68 270.541 349.68 272.299C349.68 274.058 348.65 275.213 347.12 275.213ZM347.12 274.422C348.254 274.422 348.785 273.423 348.785 272.299C348.785 271.176 348.254 270.166 347.12 270.166C345.965 270.166 345.434 271.176 345.434 272.299C345.434 273.423 345.965 274.422 347.12 274.422ZM352.989 275.213C351.584 275.213 350.585 274.079 350.585 272.289C350.585 270.499 351.584 269.375 353 269.375C354.092 269.375 354.446 270.041 354.633 270.343H354.696V267.565H355.601V275.099H354.727V274.235H354.633C354.436 274.547 354.071 275.213 352.989 275.213ZM353.114 274.412C354.144 274.412 354.727 273.538 354.727 272.268C354.727 271.019 354.165 270.177 353.114 270.177C352.032 270.177 351.491 271.092 351.491 272.268C351.491 273.475 352.042 274.412 353.114 274.412ZM359.524 275.213C357.89 275.213 356.881 274.058 356.881 272.32C356.881 270.582 357.901 269.375 359.441 269.375C360.627 269.375 361.876 270.104 361.876 272.195V272.57H357.776C357.818 273.767 358.515 274.422 359.524 274.422C360.201 274.422 360.627 274.131 360.835 273.777H361.793C361.522 274.63 360.69 275.213 359.524 275.213ZM357.786 271.81H360.971C360.971 270.863 360.367 270.166 359.441 270.166C358.463 270.166 357.838 270.936 357.786 271.81Z" fill="var(--sol-element-primary)"/>
</g>
</g>
</g>
</g>
</g>
<defs>
<filter id="filter0_d_1668_177080" x="-421" y="29" width="836" height="313" filterUnits="userSpaceOnUse" color-interpolation-filters="sRGB">
<feFlood flood-opacity="0" result="BackgroundImageFix"/>
<feColorMatrix in="SourceAlpha" type="matrix" values="0 0 0 0 0 0 0 0 0 0 0 0 0 0 0 0 0 0 127 0" result="hardAlpha"/>
<feOffset dy="2"/>
<feGaussianBlur stdDeviation="1"/>
<feComposite in2="hardAlpha" operator="out"/>
<feColorMatrix type="matrix" values="0 0 0 0 0 0 0 0 0 0 0 0 0 0 0 0 0 0 0.04 0"/>
<feBlend mode="normal" in2="BackgroundImageFix" result="effect1_dropShadow_1668_177080"/>
<feBlend mode="normal" in="SourceGraphic" in2="effect1_dropShadow_1668_177080" result="shape"/>
</filter>
<filter id="filter1_dd_1668_177080" x="242.77" y="71.9223" width="155.27" height="223.771" filterUnits="userSpaceOnUse" color-interpolation-filters="sRGB">
<feFlood flood-opacity="0" result="BackgroundImageFix"/>
<feColorMatrix in="SourceAlpha" type="matrix" values="0 0 0 0 0 0 0 0 0 0 0 0 0 0 0 0 0 0 127 0" result="hardAlpha"/>
<feOffset dy="3.0445"/>
<feGaussianBlur stdDeviation="3.0445"/>
<feComposite in2="hardAlpha" operator="out"/>
<feColorMatrix type="matrix" values="0 0 0 0 0 0 0 0 0 0 0 0 0 0 0 0 0 0 0.08 0"/>
<feBlend mode="normal" in2="BackgroundImageFix" result="effect1_dropShadow_1668_177080"/>
<feColorMatrix in="SourceAlpha" type="matrix" values="0 0 0 0 0 0 0 0 0 0 0 0 0 0 0 0 0 0 127 0" result="hardAlpha"/>
<feOffset/>
<feGaussianBlur stdDeviation="0.380563"/>
<feComposite in2="hardAlpha" operator="out"/>
<feColorMatrix type="matrix" values="0 0 0 0 0 0 0 0 0 0 0 0 0 0 0 0 0 0 0.08 0"/>
<feBlend mode="normal" in2="effect1_dropShadow_1668_177080" result="effect2_dropShadow_1668_177080"/>
<feBlend mode="normal" in="SourceGraphic" in2="effect2_dropShadow_1668_177080" result="shape"/>
</filter>
<clipPath id="clip0_1668_177080">
<path d="M0 8C0 3.58173 3.58172 0 8 0H434C438.418 0 442 3.58172 442 8V262C442 266.418 438.418 270 434 270H8C3.58172 270 0 266.418 0 262V8Z" fill="var(--sol-surface)"/>
</clipPath>
<clipPath id="clip1_1668_177080">
<rect width="442" height="270" rx="8" fill="var(--sol-surface)"/>
</clipPath>
<clipPath id="clip2_1668_177080">
<rect width="137.003" height="205.504" fill="var(--sol-surface)" transform="translate(251.904 78.0117)"/>
</clipPath>
<clipPath id="clip3_1668_177080">
<path d="M251.904 79.534C251.904 78.6933 252.585 78.0117 253.426 78.0117H387.384C388.225 78.0117 388.906 78.6933 388.906 79.534V99.3232C388.906 100.164 388.225 100.845 387.384 100.845H253.426C252.585 100.845 251.904 100.164 251.904 99.3232V79.534Z" fill="var(--sol-surface)"/>
</clipPath>
<clipPath id="clip4_1668_177080">
<path d="M251.904 102.368C251.904 101.527 252.585 100.846 253.426 100.846H387.384C388.225 100.846 388.906 101.527 388.906 102.368V122.157C388.906 122.998 388.225 123.679 387.384 123.679H253.426C252.585 123.679 251.904 122.998 251.904 122.157V102.368Z" fill="var(--sol-surface)"/>
</clipPath>
<clipPath id="clip5_1668_177080">
<path d="M251.904 125.202C251.904 124.361 252.585 123.68 253.426 123.68H387.384C388.225 123.68 388.906 124.361 388.906 125.202V144.991C388.906 145.832 388.225 146.513 387.384 146.513H253.426C252.585 146.513 251.904 145.832 251.904 144.991V125.202Z" fill="var(--sol-surface)"/>
</clipPath>
<clipPath id="clip6_1668_177080">
<path d="M251.904 148.035C251.904 147.194 252.585 146.513 253.426 146.513H387.384C388.225 146.513 388.906 147.194 388.906 148.035V167.824C388.906 168.665 388.225 169.346 387.384 169.346H253.426C252.585 169.346 251.904 168.665 251.904 167.824V148.035Z" fill="var(--sol-surface)"/>
</clipPath>
<clipPath id="clip7_1668_177080">
<path d="M251.904 170.869C251.904 170.028 252.585 169.347 253.426 169.347H387.384C388.225 169.347 388.906 170.028 388.906 170.869V190.658C388.906 191.499 388.225 192.18 387.384 192.18H253.426C252.585 192.18 251.904 191.499 251.904 190.658V170.869Z" fill="var(--sol-surface)"/>
</clipPath>
<clipPath id="clip8_1668_177080">
<path d="M251.904 193.703C251.904 192.862 252.585 192.181 253.426 192.181H387.384C388.225 192.181 388.906 192.862 388.906 193.703V213.492C388.906 214.333 388.225 215.014 387.384 215.014H253.426C252.585 215.014 251.904 214.333 251.904 213.492V193.703Z" fill="var(--sol-surface)"/>
</clipPath>
<clipPath id="clip9_1668_177080">
<path d="M251.904 216.537C251.904 215.696 252.585 215.015 253.426 215.015H387.384C388.225 215.015 388.906 215.696 388.906 216.537V236.326C388.906 237.167 388.225 237.848 387.384 237.848H253.426C252.585 237.848 251.904 237.167 251.904 236.326V216.537Z" fill="var(--sol-surface)"/>
</clipPath>
<clipPath id="clip10_1668_177080">
<path d="M251.904 239.37C251.904 238.529 252.585 237.848 253.426 237.848H387.384C388.225 237.848 388.906 238.529 388.906 239.37V259.159C388.906 260 388.225 260.681 387.384 260.681H253.426C252.585 260.681 251.904 260 251.904 259.159V239.37Z" fill="var(--sol-surface)"/>
</clipPath>
<clipPath id="clip11_1668_177080">
<path d="M251.904 262.204C251.904 261.363 252.585 260.682 253.426 260.682H387.384C388.225 260.682 388.906 261.363 388.906 262.204V281.993C388.906 282.834 388.225 283.515 387.384 283.515H253.426C252.585 283.515 251.904 282.834 251.904 281.993V262.204Z" fill="var(--sol-surface)"/>
</clipPath>
</defs>
</svg>
