<svg width="900" height="368" viewBox="0 0 900 368" fill="none" xmlns="http://www.w3.org/2000/svg">
<style>
:root {
  --sol-primary: #282363;
  --sol-element-brand-variant: #3a3480;
  --sol-fill-active: #4d469a;
  --sol-selected-container-variant: #f5f4fd;
  --sol-surface: #ffffff;
  --sol-secondary-container: #e8e6f8;
  --sol-element-primary: #161616;
  --sol-element-secondary: #484848;
  --sol-element-tertiary: #636363;
  --sol-element-quaternary: #858585;
  --sol-border-brand: #7b74c4;
  --sol-border-normal-variant: rgba(0, 0, 0, 0.08);
  --sol-border-solid-variant: #e0e0e0;
  --sol-border-solid: #d0d0d0;
  --sol-error-dim: #b84451;
  --sol-static-white: #ffffff;
  --sol-static-black: #000000;
}
@media (prefers-color-scheme: dark) {
  :root {
    --sol-primary: #9791d4;
    --sol-element-brand-variant: #ffffff;
    --sol-fill-active: #7b74c4;
    --sol-selected-container-variant: rgba(0, 0, 0, 0.08);
    --sol-surface: #161616;
    --sol-secondary-container: rgba(255, 255, 255, 0.16);
    --sol-element-primary: #ffffff;
    --sol-element-secondary: rgba(255, 255, 255, 0.8);
    --sol-element-tertiary: rgba(255, 255, 255, 0.6);
    --sol-element-quaternary: rgba(255, 255, 255, 0.5);
    --sol-border-brand: #7b74c4;
    --sol-border-normal-variant: rgba(255, 255, 255, 0.08);
    --sol-border-solid-variant: #3d3d3d;
    --sol-border-solid: #333333;
    --sol-error-dim: #e76067;
    --sol-static-white: #ffffff;
    --sol-static-black: #000000;
  }
}
</style>
<path d="M0 8C0 3.58172 3.58172 0 8 0H892C896.418 0 900 3.58172 900 8V360C900 364.418 896.418 368 892 368H8.00001C3.58173 368 0 364.418 0 360V8Z" fill="var(--sol-surface)"/>
<path d="M48.916 69V59.1016H55.3555V60.5918H50.6934V63.2988H55.0137V64.7891H50.6934V67.4961H55.3828V69H48.916ZM58.7324 64.6523V69H56.9824V61.5762H58.6504V62.834H58.7461C59.0879 62 59.8398 61.4805 60.9473 61.4805C62.4922 61.4805 63.5039 62.4922 63.4902 64.2695V69H61.7539V64.543C61.7539 63.5449 61.2207 62.957 60.3047 62.957C59.375 62.957 58.7324 63.5723 58.7324 64.6523ZM64.8164 66.9082C64.8164 65.2402 66.1973 64.748 67.5781 64.666C68.0908 64.6318 69.1572 64.5703 69.4785 64.5566V63.9688C69.4785 63.2305 69 62.8066 68.1387 62.8066C67.3594 62.8066 66.8809 63.1621 66.7441 63.6953H65.0625C65.1855 62.4375 66.3203 61.4805 68.1797 61.4805C69.5879 61.4805 71.2148 62.0547 71.2148 64.0371V69H69.5469V67.9746H69.4922C69.1641 68.6035 68.4668 69.1504 67.3047 69.1504C65.8828 69.1504 64.8164 68.3711 64.8164 66.9082ZM66.498 66.8945C66.498 67.5371 67.0176 67.8652 67.7559 67.8652C68.8086 67.8652 69.4922 67.168 69.4922 66.334V65.7188L67.8516 65.8281C67.0176 65.8965 66.498 66.2383 66.498 66.8945ZM72.9375 69V59.1016H74.6875V62.793H74.7559C75.0293 62.2598 75.5625 61.4805 76.875 61.4805C78.5977 61.4805 79.9512 62.8203 79.9512 65.2949C79.9512 67.7422 78.625 69.1367 76.8887 69.1367C75.6035 69.1367 75.0293 68.3711 74.7559 67.8242H74.6465V69H72.9375ZM74.6465 65.2812C74.6465 66.7305 75.2754 67.7012 76.3965 67.7012C77.5586 67.7012 78.1738 66.6895 78.1738 65.2812C78.1738 63.9004 77.5723 62.9023 76.3965 62.9023C75.2754 62.9023 74.6465 63.8457 74.6465 65.2812ZM83.0684 59.1016V69H81.3184V59.1016H83.0684ZM88.0312 69.1504C85.7891 69.1504 84.4219 67.6602 84.4219 65.3359C84.4219 63.0391 85.8164 61.4805 87.9355 61.4805C89.7539 61.4805 91.3262 62.6152 91.3262 65.2266V65.7734H86.1445C86.165 67.0381 86.9102 67.7832 88.0449 67.7832C88.8105 67.7832 89.3301 67.4551 89.5488 67.0176H91.2578C90.9434 68.3027 89.7539 69.1504 88.0312 69.1504ZM86.1582 64.584H89.6582C89.6445 63.5723 88.9746 62.834 87.9629 62.834C86.9102 62.834 86.2129 63.6338 86.1582 64.584ZM95.4414 69.1367C93.6914 69.1367 92.3789 67.7422 92.3789 65.2949C92.3789 62.8203 93.7324 61.4805 95.4551 61.4805C96.7676 61.4805 97.3145 62.2598 97.5742 62.793H97.6426V59.1016H99.3789V69H97.6699V67.8242H97.5742C97.3008 68.3711 96.7266 69.1367 95.4414 69.1367ZM95.9199 67.7012C97.041 67.7012 97.6836 66.7305 97.6836 65.2812C97.6836 63.8457 97.0547 62.9023 95.9199 62.9023C94.7578 62.9023 94.1562 63.9004 94.1562 65.2812C94.1562 66.6895 94.7715 67.7012 95.9199 67.7012Z" fill="var(--sol-element-quaternary)"/>
<g clip-path="url(#clip0_1281_125686)">
<path d="M228 52C228 49.7909 229.791 48 232 48H464C466.209 48 468 49.7909 468 52V76C468 78.2091 466.209 80 464 80H232C229.791 80 228 78.2091 228 76V52Z" fill="var(--sol-element-primary)" fill-opacity="0.04"/>
<g filter="url(#filter0_d_1281_125686)">
<g clip-path="url(#clip1_1281_125686)">
<path d="M231 53C231 51.8954 231.895 51 233 51H307C308.105 51 309 51.8954 309 53V75C309 76.1046 308.105 77 307 77H233C231.895 77 231 76.1046 231 75V53Z" fill="var(--sol-surface)"/>
<path d="M255.285 68V59.5156H256.809V66.7109H260.559V68H255.285ZM261.414 66.207C261.414 64.7773 262.598 64.3555 263.781 64.2852C264.221 64.2559 265.135 64.2031 265.41 64.1914V63.6875C265.41 63.0547 265 62.6914 264.262 62.6914C263.594 62.6914 263.184 62.9961 263.066 63.4531H261.625C261.73 62.375 262.703 61.5547 264.297 61.5547C265.504 61.5547 266.898 62.0469 266.898 63.7461V68H265.469V67.1211H265.422C265.141 67.6602 264.543 68.1289 263.547 68.1289C262.328 68.1289 261.414 67.4609 261.414 66.207ZM262.855 66.1953C262.855 66.7461 263.301 67.0273 263.934 67.0273C264.836 67.0273 265.422 66.4297 265.422 65.7148V65.1875L264.016 65.2812C263.301 65.3398 262.855 65.6328 262.855 66.1953ZM268.375 68V59.5156H269.875V62.6797H269.934C270.168 62.2227 270.625 61.5547 271.75 61.5547C273.227 61.5547 274.387 62.7031 274.387 64.8242C274.387 66.9219 273.25 68.1172 271.762 68.1172C270.66 68.1172 270.168 67.4609 269.934 66.9922H269.84V68H268.375ZM269.84 64.8125C269.84 66.0547 270.379 66.8867 271.34 66.8867C272.336 66.8867 272.863 66.0195 272.863 64.8125C272.863 63.6289 272.348 62.7734 271.34 62.7734C270.379 62.7734 269.84 63.582 269.84 64.8125ZM278.383 68.1289C276.461 68.1289 275.289 66.8516 275.289 64.8594C275.289 62.8906 276.484 61.5547 278.301 61.5547C279.859 61.5547 281.207 62.5273 281.207 64.7656V65.2344H276.766C276.783 66.3184 277.422 66.957 278.395 66.957C279.051 66.957 279.496 66.6758 279.684 66.3008H281.148C280.879 67.4023 279.859 68.1289 278.383 68.1289ZM276.777 64.2148H279.777C279.766 63.3477 279.191 62.7148 278.324 62.7148C277.422 62.7148 276.824 63.4004 276.777 64.2148ZM283.867 59.5156V68H282.367V59.5156H283.867Z" fill="var(--sol-element-primary)"/>
</g>
</g>
<g clip-path="url(#clip2_1281_125686)">
<path d="M333.285 68V59.5156H334.809V66.7109H338.559V68H333.285ZM339.414 66.207C339.414 64.7773 340.598 64.3555 341.781 64.2852C342.221 64.2559 343.135 64.2031 343.41 64.1914V63.6875C343.41 63.0547 343 62.6914 342.262 62.6914C341.594 62.6914 341.184 62.9961 341.066 63.4531H339.625C339.73 62.375 340.703 61.5547 342.297 61.5547C343.504 61.5547 344.898 62.0469 344.898 63.7461V68H343.469V67.1211H343.422C343.141 67.6602 342.543 68.1289 341.547 68.1289C340.328 68.1289 339.414 67.4609 339.414 66.207ZM340.855 66.1953C340.855 66.7461 341.301 67.0273 341.934 67.0273C342.836 67.0273 343.422 66.4297 343.422 65.7148V65.1875L342.016 65.2812C341.301 65.3398 340.855 65.6328 340.855 66.1953ZM346.375 68V59.5156H347.875V62.6797H347.934C348.168 62.2227 348.625 61.5547 349.75 61.5547C351.227 61.5547 352.387 62.7031 352.387 64.8242C352.387 66.9219 351.25 68.1172 349.762 68.1172C348.66 68.1172 348.168 67.4609 347.934 66.9922H347.84V68H346.375ZM347.84 64.8125C347.84 66.0547 348.379 66.8867 349.34 66.8867C350.336 66.8867 350.863 66.0195 350.863 64.8125C350.863 63.6289 350.348 62.7734 349.34 62.7734C348.379 62.7734 347.84 63.582 347.84 64.8125ZM356.383 68.1289C354.461 68.1289 353.289 66.8516 353.289 64.8594C353.289 62.8906 354.484 61.5547 356.301 61.5547C357.859 61.5547 359.207 62.5273 359.207 64.7656V65.2344H354.766C354.783 66.3184 355.422 66.957 356.395 66.957C357.051 66.957 357.496 66.6758 357.684 66.3008H359.148C358.879 67.4023 357.859 68.1289 356.383 68.1289ZM354.777 64.2148H357.777C357.766 63.3477 357.191 62.7148 356.324 62.7148C355.422 62.7148 354.824 63.4004 354.777 64.2148ZM361.867 59.5156V68H360.367V59.5156H361.867Z" fill="var(--sol-element-quaternary)"/>
</g>
<g clip-path="url(#clip3_1281_125686)">
<path d="M411.285 68V59.5156H412.809V66.7109H416.559V68H411.285ZM417.414 66.207C417.414 64.7773 418.598 64.3555 419.781 64.2852C420.221 64.2559 421.135 64.2031 421.41 64.1914V63.6875C421.41 63.0547 421 62.6914 420.262 62.6914C419.594 62.6914 419.184 62.9961 419.066 63.4531H417.625C417.73 62.375 418.703 61.5547 420.297 61.5547C421.504 61.5547 422.898 62.0469 422.898 63.7461V68H421.469V67.1211H421.422C421.141 67.6602 420.543 68.1289 419.547 68.1289C418.328 68.1289 417.414 67.4609 417.414 66.207ZM418.855 66.1953C418.855 66.7461 419.301 67.0273 419.934 67.0273C420.836 67.0273 421.422 66.4297 421.422 65.7148V65.1875L420.016 65.2812C419.301 65.3398 418.855 65.6328 418.855 66.1953ZM424.375 68V59.5156H425.875V62.6797H425.934C426.168 62.2227 426.625 61.5547 427.75 61.5547C429.227 61.5547 430.387 62.7031 430.387 64.8242C430.387 66.9219 429.25 68.1172 427.762 68.1172C426.66 68.1172 426.168 67.4609 425.934 66.9922H425.84V68H424.375ZM425.84 64.8125C425.84 66.0547 426.379 66.8867 427.34 66.8867C428.336 66.8867 428.863 66.0195 428.863 64.8125C428.863 63.6289 428.348 62.7734 427.34 62.7734C426.379 62.7734 425.84 63.582 425.84 64.8125ZM434.383 68.1289C432.461 68.1289 431.289 66.8516 431.289 64.8594C431.289 62.8906 432.484 61.5547 434.301 61.5547C435.859 61.5547 437.207 62.5273 437.207 64.7656V65.2344H432.766C432.783 66.3184 433.422 66.957 434.395 66.957C435.051 66.957 435.496 66.6758 435.684 66.3008H437.148C436.879 67.4023 435.859 68.1289 434.383 68.1289ZM432.777 64.2148H435.777C435.766 63.3477 435.191 62.7148 434.324 62.7148C433.422 62.7148 432.824 63.4004 432.777 64.2148ZM439.867 59.5156V68H438.367V59.5156H439.867Z" fill="var(--sol-element-quaternary)"/>
</g>
</g>
<g clip-path="url(#clip4_1281_125686)">
<path d="M532 48.5H764C765.933 48.5 767.5 50.067 767.5 52V76C767.5 77.933 765.933 79.5 764 79.5H532C530.067 79.5 528.5 77.933 528.5 76V52C528.5 50.067 530.067 48.5 532 48.5Z" stroke="var(--sol-border-solid)"/>
<g clip-path="url(#clip5_1281_125686)">
<path d="M528 52C528 49.7909 529.791 48 532 48H608V80H532C529.791 80 528 78.2091 528 76V52Z" fill="var(--sol-selected-container-variant)"/>
<path d="M532 48.5H607.5V79.5H532C530.067 79.5 528.5 77.933 528.5 76V52C528.5 50.067 530.067 48.5 532 48.5Z" stroke="var(--sol-fill-active)"/>
<path d="M553.744 68V59.5156H555.268V66.7109H559.018V68H553.744ZM559.873 66.207C559.873 64.7773 561.057 64.3555 562.24 64.2852C562.68 64.2559 563.594 64.2031 563.869 64.1914V63.6875C563.869 63.0547 563.459 62.6914 562.721 62.6914C562.053 62.6914 561.643 62.9961 561.525 63.4531H560.084C560.189 62.375 561.162 61.5547 562.756 61.5547C563.963 61.5547 565.357 62.0469 565.357 63.7461V68H563.928V67.1211H563.881C563.6 67.6602 563.002 68.1289 562.006 68.1289C560.787 68.1289 559.873 67.4609 559.873 66.207ZM561.314 66.1953C561.314 66.7461 561.76 67.0273 562.393 67.0273C563.295 67.0273 563.881 66.4297 563.881 65.7148V65.1875L562.475 65.2812C561.76 65.3398 561.314 65.6328 561.314 66.1953ZM566.834 68V59.5156H568.334V62.6797H568.393C568.627 62.2227 569.084 61.5547 570.209 61.5547C571.686 61.5547 572.846 62.7031 572.846 64.8242C572.846 66.9219 571.709 68.1172 570.221 68.1172C569.119 68.1172 568.627 67.4609 568.393 66.9922H568.299V68H566.834ZM568.299 64.8125C568.299 66.0547 568.838 66.8867 569.799 66.8867C570.795 66.8867 571.322 66.0195 571.322 64.8125C571.322 63.6289 570.807 62.7734 569.799 62.7734C568.838 62.7734 568.299 63.582 568.299 64.8125ZM576.842 68.1289C574.92 68.1289 573.748 66.8516 573.748 64.8594C573.748 62.8906 574.943 61.5547 576.76 61.5547C578.318 61.5547 579.666 62.5273 579.666 64.7656V65.2344H575.225C575.242 66.3184 575.881 66.957 576.854 66.957C577.51 66.957 577.955 66.6758 578.143 66.3008H579.607C579.338 67.4023 578.318 68.1289 576.842 68.1289ZM575.236 64.2148H578.236C578.225 63.3477 577.65 62.7148 576.783 62.7148C575.881 62.7148 575.283 63.4004 575.236 64.2148ZM582.326 59.5156V68H580.826V59.5156H582.326Z" fill="var(--sol-element-brand-variant)"/>
</g>
<g clip-path="url(#clip6_1281_125686)">
<mask id="path-16-outside-1_1281_125686" maskUnits="userSpaceOnUse" x="608" y="48" width="81" height="32" fill="var(--sol-static-black)">
<rect fill="var(--sol-static-white)" x="608" y="48" width="81" height="32"/>
<path d="M608 48H688V80H608V48Z"/>
</mask>
<path d="M688 48H687V80H688H689V48H688Z" fill="var(--sol-border-solid)" mask="url(#path-16-outside-1_1281_125686)"/>
<path d="M633.744 68V59.5156H635.268V66.7109H639.018V68H633.744ZM639.873 66.207C639.873 64.7773 641.057 64.3555 642.24 64.2852C642.68 64.2559 643.594 64.2031 643.869 64.1914V63.6875C643.869 63.0547 643.459 62.6914 642.721 62.6914C642.053 62.6914 641.643 62.9961 641.525 63.4531H640.084C640.189 62.375 641.162 61.5547 642.756 61.5547C643.963 61.5547 645.357 62.0469 645.357 63.7461V68H643.928V67.1211H643.881C643.6 67.6602 643.002 68.1289 642.006 68.1289C640.787 68.1289 639.873 67.4609 639.873 66.207ZM641.314 66.1953C641.314 66.7461 641.76 67.0273 642.393 67.0273C643.295 67.0273 643.881 66.4297 643.881 65.7148V65.1875L642.475 65.2812C641.76 65.3398 641.314 65.6328 641.314 66.1953ZM646.834 68V59.5156H648.334V62.6797H648.393C648.627 62.2227 649.084 61.5547 650.209 61.5547C651.686 61.5547 652.846 62.7031 652.846 64.8242C652.846 66.9219 651.709 68.1172 650.221 68.1172C649.119 68.1172 648.627 67.4609 648.393 66.9922H648.299V68H646.834ZM648.299 64.8125C648.299 66.0547 648.838 66.8867 649.799 66.8867C650.795 66.8867 651.322 66.0195 651.322 64.8125C651.322 63.6289 650.807 62.7734 649.799 62.7734C648.838 62.7734 648.299 63.582 648.299 64.8125ZM656.842 68.1289C654.92 68.1289 653.748 66.8516 653.748 64.8594C653.748 62.8906 654.943 61.5547 656.76 61.5547C658.318 61.5547 659.666 62.5273 659.666 64.7656V65.2344H655.225C655.242 66.3184 655.881 66.957 656.854 66.957C657.51 66.957 657.955 66.6758 658.143 66.3008H659.607C659.338 67.4023 658.318 68.1289 656.842 68.1289ZM655.236 64.2148H658.236C658.225 63.3477 657.65 62.7148 656.783 62.7148C655.881 62.7148 655.283 63.4004 655.236 64.2148ZM662.326 59.5156V68H660.826V59.5156H662.326Z" fill="var(--sol-element-quaternary)"/>
</g>
<g clip-path="url(#clip7_1281_125686)">
<mask id="path-20-outside-2_1281_125686" maskUnits="userSpaceOnUse" x="688" y="48" width="81" height="32" fill="var(--sol-static-black)">
<rect fill="var(--sol-static-white)" x="688" y="48" width="81" height="32"/>
<path d="M688 48H768V80H688V48Z"/>
</mask>
<path d="M768 48H767V80H768H769V48H768Z" fill="var(--sol-border-solid)" mask="url(#path-20-outside-2_1281_125686)"/>
<path d="M713.744 68V59.5156H715.268V66.7109H719.018V68H713.744ZM719.873 66.207C719.873 64.7773 721.057 64.3555 722.24 64.2852C722.68 64.2559 723.594 64.2031 723.869 64.1914V63.6875C723.869 63.0547 723.459 62.6914 722.721 62.6914C722.053 62.6914 721.643 62.9961 721.525 63.4531H720.084C720.189 62.375 721.162 61.5547 722.756 61.5547C723.963 61.5547 725.357 62.0469 725.357 63.7461V68H723.928V67.1211H723.881C723.6 67.6602 723.002 68.1289 722.006 68.1289C720.787 68.1289 719.873 67.4609 719.873 66.207ZM721.314 66.1953C721.314 66.7461 721.76 67.0273 722.393 67.0273C723.295 67.0273 723.881 66.4297 723.881 65.7148V65.1875L722.475 65.2812C721.76 65.3398 721.314 65.6328 721.314 66.1953ZM726.834 68V59.5156H728.334V62.6797H728.393C728.627 62.2227 729.084 61.5547 730.209 61.5547C731.686 61.5547 732.846 62.7031 732.846 64.8242C732.846 66.9219 731.709 68.1172 730.221 68.1172C729.119 68.1172 728.627 67.4609 728.393 66.9922H728.299V68H726.834ZM728.299 64.8125C728.299 66.0547 728.838 66.8867 729.799 66.8867C730.795 66.8867 731.322 66.0195 731.322 64.8125C731.322 63.6289 730.807 62.7734 729.799 62.7734C728.838 62.7734 728.299 63.582 728.299 64.8125ZM736.842 68.1289C734.92 68.1289 733.748 66.8516 733.748 64.8594C733.748 62.8906 734.943 61.5547 736.76 61.5547C738.318 61.5547 739.666 62.5273 739.666 64.7656V65.2344H735.225C735.242 66.3184 735.881 66.957 736.854 66.957C737.51 66.957 737.955 66.6758 738.143 66.3008H739.607C739.338 67.4023 738.318 68.1289 736.842 68.1289ZM735.236 64.2148H738.236C738.225 63.3477 737.65 62.7148 736.783 62.7148C735.881 62.7148 735.283 63.4004 735.236 64.2148ZM742.326 59.5156V68H740.826V59.5156H742.326Z" fill="var(--sol-element-quaternary)"/>
</g>
</g>
<path d="M48.916 149V139.102H50.6934V143.299H55.3008V139.102H57.0918V149H55.3008V144.789H50.6934V149H48.916ZM62.082 149.15C59.9219 149.15 58.5273 147.619 58.5273 145.322C58.5273 143.012 59.9219 141.48 62.082 141.48C64.2559 141.48 65.6367 143.012 65.6367 145.322C65.6367 147.619 64.2559 149.15 62.082 149.15ZM62.0957 147.756C63.2852 147.756 63.873 146.676 63.873 145.309C63.873 143.955 63.2852 142.861 62.0957 142.861C60.8789 142.861 60.291 143.955 60.291 145.309C60.291 146.676 60.8789 147.756 62.0957 147.756ZM73.375 141.576L70.7227 149H68.8086L66.1562 141.576H68.0156L69.7246 147.1H69.8066L71.5293 141.576H73.375ZM77.5176 149.15C75.2754 149.15 73.9082 147.66 73.9082 145.336C73.9082 143.039 75.3027 141.48 77.4219 141.48C79.2402 141.48 80.8125 142.615 80.8125 145.227V145.773H75.6309C75.6514 147.038 76.3965 147.783 77.5312 147.783C78.2969 147.783 78.8164 147.455 79.0352 147.018H80.7441C80.4297 148.303 79.2402 149.15 77.5176 149.15ZM75.6445 144.584H79.1445C79.1309 143.572 78.4609 142.834 77.4492 142.834C76.3965 142.834 75.6992 143.634 75.6445 144.584ZM82.166 149V141.576H83.8613V142.807H83.9434C84.2031 141.959 84.9277 141.467 85.7754 141.467C85.9668 141.467 86.2402 141.48 86.4043 141.508V143.121C86.2539 143.066 85.8848 143.012 85.5977 143.012C84.627 143.012 83.916 143.682 83.916 144.625V149H82.166Z" fill="var(--sol-element-quaternary)"/>
<g clip-path="url(#clip8_1281_125686)">
<path d="M228 132C228 129.791 229.791 128 232 128H464C466.209 128 468 129.791 468 132V156C468 158.209 466.209 160 464 160H232C229.791 160 228 158.209 228 156V132Z" fill="var(--sol-element-primary)" fill-opacity="0.04"/>
<g filter="url(#filter1_d_1281_125686)">
<g clip-path="url(#clip9_1281_125686)">
<path d="M231 133C231 131.895 231.895 131 233 131H307C308.105 131 309 131.895 309 133V155C309 156.105 308.105 157 307 157H233C231.895 157 231 156.105 231 155V133Z" fill="var(--sol-surface)"/>
<rect width="78" height="26" transform="translate(231 131)" fill="var(--sol-element-primary)" fill-opacity="0.08"/>
<path d="M255.285 148V139.516H256.809V146.711H260.559V148H255.285ZM261.414 146.207C261.414 144.777 262.598 144.355 263.781 144.285C264.221 144.256 265.135 144.203 265.41 144.191V143.688C265.41 143.055 265 142.691 264.262 142.691C263.594 142.691 263.184 142.996 263.066 143.453H261.625C261.73 142.375 262.703 141.555 264.297 141.555C265.504 141.555 266.898 142.047 266.898 143.746V148H265.469V147.121H265.422C265.141 147.66 264.543 148.129 263.547 148.129C262.328 148.129 261.414 147.461 261.414 146.207ZM262.855 146.195C262.855 146.746 263.301 147.027 263.934 147.027C264.836 147.027 265.422 146.43 265.422 145.715V145.188L264.016 145.281C263.301 145.34 262.855 145.633 262.855 146.195ZM268.375 148V139.516H269.875V142.68H269.934C270.168 142.223 270.625 141.555 271.75 141.555C273.227 141.555 274.387 142.703 274.387 144.824C274.387 146.922 273.25 148.117 271.762 148.117C270.66 148.117 270.168 147.461 269.934 146.992H269.84V148H268.375ZM269.84 144.812C269.84 146.055 270.379 146.887 271.34 146.887C272.336 146.887 272.863 146.02 272.863 144.812C272.863 143.629 272.348 142.773 271.34 142.773C270.379 142.773 269.84 143.582 269.84 144.812ZM278.383 148.129C276.461 148.129 275.289 146.852 275.289 144.859C275.289 142.891 276.484 141.555 278.301 141.555C279.859 141.555 281.207 142.527 281.207 144.766V145.234H276.766C276.783 146.318 277.422 146.957 278.395 146.957C279.051 146.957 279.496 146.676 279.684 146.301H281.148C280.879 147.402 279.859 148.129 278.383 148.129ZM276.777 144.215H279.777C279.766 143.348 279.191 142.715 278.324 142.715C277.422 142.715 276.824 143.4 276.777 144.215ZM283.867 139.516V148H282.367V139.516H283.867Z" fill="var(--sol-element-primary)"/>
</g>
</g>
<g clip-path="url(#clip10_1281_125686)">
<path d="M333.285 148V139.516H334.809V146.711H338.559V148H333.285ZM339.414 146.207C339.414 144.777 340.598 144.355 341.781 144.285C342.221 144.256 343.135 144.203 343.41 144.191V143.688C343.41 143.055 343 142.691 342.262 142.691C341.594 142.691 341.184 142.996 341.066 143.453H339.625C339.73 142.375 340.703 141.555 342.297 141.555C343.504 141.555 344.898 142.047 344.898 143.746V148H343.469V147.121H343.422C343.141 147.66 342.543 148.129 341.547 148.129C340.328 148.129 339.414 147.461 339.414 146.207ZM340.855 146.195C340.855 146.746 341.301 147.027 341.934 147.027C342.836 147.027 343.422 146.43 343.422 145.715V145.188L342.016 145.281C341.301 145.34 340.855 145.633 340.855 146.195ZM346.375 148V139.516H347.875V142.68H347.934C348.168 142.223 348.625 141.555 349.75 141.555C351.227 141.555 352.387 142.703 352.387 144.824C352.387 146.922 351.25 148.117 349.762 148.117C348.66 148.117 348.168 147.461 347.934 146.992H347.84V148H346.375ZM347.84 144.812C347.84 146.055 348.379 146.887 349.34 146.887C350.336 146.887 350.863 146.02 350.863 144.812C350.863 143.629 350.348 142.773 349.34 142.773C348.379 142.773 347.84 143.582 347.84 144.812ZM356.383 148.129C354.461 148.129 353.289 146.852 353.289 144.859C353.289 142.891 354.484 141.555 356.301 141.555C357.859 141.555 359.207 142.527 359.207 144.766V145.234H354.766C354.783 146.318 355.422 146.957 356.395 146.957C357.051 146.957 357.496 146.676 357.684 146.301H359.148C358.879 147.402 357.859 148.129 356.383 148.129ZM354.777 144.215H357.777C357.766 143.348 357.191 142.715 356.324 142.715C355.422 142.715 354.824 143.4 354.777 144.215ZM361.867 139.516V148H360.367V139.516H361.867Z" fill="var(--sol-element-quaternary)"/>
</g>
<g clip-path="url(#clip11_1281_125686)">
<path d="M411.285 148V139.516H412.809V146.711H416.559V148H411.285ZM417.414 146.207C417.414 144.777 418.598 144.355 419.781 144.285C420.221 144.256 421.135 144.203 421.41 144.191V143.688C421.41 143.055 421 142.691 420.262 142.691C419.594 142.691 419.184 142.996 419.066 143.453H417.625C417.73 142.375 418.703 141.555 420.297 141.555C421.504 141.555 422.898 142.047 422.898 143.746V148H421.469V147.121H421.422C421.141 147.66 420.543 148.129 419.547 148.129C418.328 148.129 417.414 147.461 417.414 146.207ZM418.855 146.195C418.855 146.746 419.301 147.027 419.934 147.027C420.836 147.027 421.422 146.43 421.422 145.715V145.188L420.016 145.281C419.301 145.34 418.855 145.633 418.855 146.195ZM424.375 148V139.516H425.875V142.68H425.934C426.168 142.223 426.625 141.555 427.75 141.555C429.227 141.555 430.387 142.703 430.387 144.824C430.387 146.922 429.25 148.117 427.762 148.117C426.66 148.117 426.168 147.461 425.934 146.992H425.84V148H424.375ZM425.84 144.812C425.84 146.055 426.379 146.887 427.34 146.887C428.336 146.887 428.863 146.02 428.863 144.812C428.863 143.629 428.348 142.773 427.34 142.773C426.379 142.773 425.84 143.582 425.84 144.812ZM434.383 148.129C432.461 148.129 431.289 146.852 431.289 144.859C431.289 142.891 432.484 141.555 434.301 141.555C435.859 141.555 437.207 142.527 437.207 144.766V145.234H432.766C432.783 146.318 433.422 146.957 434.395 146.957C435.051 146.957 435.496 146.676 435.684 146.301H437.148C436.879 147.402 435.859 148.129 434.383 148.129ZM432.777 144.215H435.777C435.766 143.348 435.191 142.715 434.324 142.715C433.422 142.715 432.824 143.4 432.777 144.215ZM439.867 139.516V148H438.367V139.516H439.867Z" fill="var(--sol-element-quaternary)"/>
</g>
</g>
<g clip-path="url(#clip12_1281_125686)">
<path d="M532 128.5H764C765.933 128.5 767.5 130.067 767.5 132V156C767.5 157.933 765.933 159.5 764 159.5H532C530.067 159.5 528.5 157.933 528.5 156V132C528.5 130.067 530.067 128.5 532 128.5Z" stroke="var(--sol-border-solid)"/>
<g clip-path="url(#clip13_1281_125686)">
<path d="M528 132C528 129.791 529.791 128 532 128H608V160H532C529.791 160 528 158.209 528 156V132Z" fill="var(--sol-selected-container-variant)"/>
<path d="M532 128.5H607.5V159.5H532C530.067 159.5 528.5 157.933 528.5 156V132C528.5 130.067 530.067 128.5 532 128.5Z" stroke="var(--sol-fill-active)"/>
<path d="M553.744 148V139.516H555.268V146.711H559.018V148H553.744ZM559.873 146.207C559.873 144.777 561.057 144.355 562.24 144.285C562.68 144.256 563.594 144.203 563.869 144.191V143.688C563.869 143.055 563.459 142.691 562.721 142.691C562.053 142.691 561.643 142.996 561.525 143.453H560.084C560.189 142.375 561.162 141.555 562.756 141.555C563.963 141.555 565.357 142.047 565.357 143.746V148H563.928V147.121H563.881C563.6 147.66 563.002 148.129 562.006 148.129C560.787 148.129 559.873 147.461 559.873 146.207ZM561.314 146.195C561.314 146.746 561.76 147.027 562.393 147.027C563.295 147.027 563.881 146.43 563.881 145.715V145.188L562.475 145.281C561.76 145.34 561.314 145.633 561.314 146.195ZM566.834 148V139.516H568.334V142.68H568.393C568.627 142.223 569.084 141.555 570.209 141.555C571.686 141.555 572.846 142.703 572.846 144.824C572.846 146.922 571.709 148.117 570.221 148.117C569.119 148.117 568.627 147.461 568.393 146.992H568.299V148H566.834ZM568.299 144.812C568.299 146.055 568.838 146.887 569.799 146.887C570.795 146.887 571.322 146.02 571.322 144.812C571.322 143.629 570.807 142.773 569.799 142.773C568.838 142.773 568.299 143.582 568.299 144.812ZM576.842 148.129C574.92 148.129 573.748 146.852 573.748 144.859C573.748 142.891 574.943 141.555 576.76 141.555C578.318 141.555 579.666 142.527 579.666 144.766V145.234H575.225C575.242 146.318 575.881 146.957 576.854 146.957C577.51 146.957 577.955 146.676 578.143 146.301H579.607C579.338 147.402 578.318 148.129 576.842 148.129ZM575.236 144.215H578.236C578.225 143.348 577.65 142.715 576.783 142.715C575.881 142.715 575.283 143.4 575.236 144.215ZM582.326 139.516V148H580.826V139.516H582.326Z" fill="var(--sol-element-brand-variant)"/>
<rect width="80" height="32" transform="translate(528 128)" fill="var(--sol-element-primary)" fill-opacity="0.08"/>
</g>
<g clip-path="url(#clip14_1281_125686)">
<mask id="path-37-outside-3_1281_125686" maskUnits="userSpaceOnUse" x="608" y="128" width="81" height="32" fill="var(--sol-static-black)">
<rect fill="var(--sol-static-white)" x="608" y="128" width="81" height="32"/>
<path d="M608 128H688V160H608V128Z"/>
</mask>
<path d="M688 128H687V160H688H689V128H688Z" fill="var(--sol-border-solid)" mask="url(#path-37-outside-3_1281_125686)"/>
<path d="M633.744 148V139.516H635.268V146.711H639.018V148H633.744ZM639.873 146.207C639.873 144.777 641.057 144.355 642.24 144.285C642.68 144.256 643.594 144.203 643.869 144.191V143.688C643.869 143.055 643.459 142.691 642.721 142.691C642.053 142.691 641.643 142.996 641.525 143.453H640.084C640.189 142.375 641.162 141.555 642.756 141.555C643.963 141.555 645.357 142.047 645.357 143.746V148H643.928V147.121H643.881C643.6 147.66 643.002 148.129 642.006 148.129C640.787 148.129 639.873 147.461 639.873 146.207ZM641.314 146.195C641.314 146.746 641.76 147.027 642.393 147.027C643.295 147.027 643.881 146.43 643.881 145.715V145.188L642.475 145.281C641.76 145.34 641.314 145.633 641.314 146.195ZM646.834 148V139.516H648.334V142.68H648.393C648.627 142.223 649.084 141.555 650.209 141.555C651.686 141.555 652.846 142.703 652.846 144.824C652.846 146.922 651.709 148.117 650.221 148.117C649.119 148.117 648.627 147.461 648.393 146.992H648.299V148H646.834ZM648.299 144.812C648.299 146.055 648.838 146.887 649.799 146.887C650.795 146.887 651.322 146.02 651.322 144.812C651.322 143.629 650.807 142.773 649.799 142.773C648.838 142.773 648.299 143.582 648.299 144.812ZM656.842 148.129C654.92 148.129 653.748 146.852 653.748 144.859C653.748 142.891 654.943 141.555 656.76 141.555C658.318 141.555 659.666 142.527 659.666 144.766V145.234H655.225C655.242 146.318 655.881 146.957 656.854 146.957C657.51 146.957 657.955 146.676 658.143 146.301H659.607C659.338 147.402 658.318 148.129 656.842 148.129ZM655.236 144.215H658.236C658.225 143.348 657.65 142.715 656.783 142.715C655.881 142.715 655.283 143.4 655.236 144.215ZM662.326 139.516V148H660.826V139.516H662.326Z" fill="var(--sol-element-quaternary)"/>
</g>
<g clip-path="url(#clip15_1281_125686)">
<mask id="path-41-outside-4_1281_125686" maskUnits="userSpaceOnUse" x="688" y="128" width="81" height="32" fill="var(--sol-static-black)">
<rect fill="var(--sol-static-white)" x="688" y="128" width="81" height="32"/>
<path d="M688 128H768V160H688V128Z"/>
</mask>
<path d="M768 128H767V160H768H769V128H768Z" fill="var(--sol-border-solid)" mask="url(#path-41-outside-4_1281_125686)"/>
<path d="M713.744 148V139.516H715.268V146.711H719.018V148H713.744ZM719.873 146.207C719.873 144.777 721.057 144.355 722.24 144.285C722.68 144.256 723.594 144.203 723.869 144.191V143.688C723.869 143.055 723.459 142.691 722.721 142.691C722.053 142.691 721.643 142.996 721.525 143.453H720.084C720.189 142.375 721.162 141.555 722.756 141.555C723.963 141.555 725.357 142.047 725.357 143.746V148H723.928V147.121H723.881C723.6 147.66 723.002 148.129 722.006 148.129C720.787 148.129 719.873 147.461 719.873 146.207ZM721.314 146.195C721.314 146.746 721.76 147.027 722.393 147.027C723.295 147.027 723.881 146.43 723.881 145.715V145.188L722.475 145.281C721.76 145.34 721.314 145.633 721.314 146.195ZM726.834 148V139.516H728.334V142.68H728.393C728.627 142.223 729.084 141.555 730.209 141.555C731.686 141.555 732.846 142.703 732.846 144.824C732.846 146.922 731.709 148.117 730.221 148.117C729.119 148.117 728.627 147.461 728.393 146.992H728.299V148H726.834ZM728.299 144.812C728.299 146.055 728.838 146.887 729.799 146.887C730.795 146.887 731.322 146.02 731.322 144.812C731.322 143.629 730.807 142.773 729.799 142.773C728.838 142.773 728.299 143.582 728.299 144.812ZM736.842 148.129C734.92 148.129 733.748 146.852 733.748 144.859C733.748 142.891 734.943 141.555 736.76 141.555C738.318 141.555 739.666 142.527 739.666 144.766V145.234H735.225C735.242 146.318 735.881 146.957 736.854 146.957C737.51 146.957 737.955 146.676 738.143 146.301H739.607C739.338 147.402 738.318 148.129 736.842 148.129ZM735.236 144.215H738.236C738.225 143.348 737.65 142.715 736.783 142.715C735.881 142.715 735.283 143.4 735.236 144.215ZM742.326 139.516V148H740.826V139.516H742.326Z" fill="var(--sol-element-quaternary)"/>
</g>
</g>
<path d="M48.916 229V219.102H52.6348C54.9043 219.102 56.1211 220.482 56.1211 222.383C56.1211 224.283 54.8906 225.65 52.6074 225.65H50.6934V229H48.916ZM50.6934 224.188H52.3613C53.7012 224.188 54.3027 223.436 54.3027 222.383C54.3027 221.316 53.7012 220.592 52.3613 220.592H50.6934V224.188ZM57.4746 229V221.576H59.1699V222.807H59.252C59.5117 221.959 60.2363 221.467 61.084 221.467C61.2754 221.467 61.5488 221.48 61.7129 221.508V223.121C61.5625 223.066 61.1934 223.012 60.9062 223.012C59.9355 223.012 59.2246 223.682 59.2246 224.625V229H57.4746ZM65.8145 229.15C63.5723 229.15 62.2051 227.66 62.2051 225.336C62.2051 223.039 63.5996 221.48 65.7188 221.48C67.5371 221.48 69.1094 222.615 69.1094 225.227V225.773H63.9277C63.9482 227.038 64.6934 227.783 65.8281 227.783C66.5938 227.783 67.1133 227.455 67.332 227.018H69.041C68.7266 228.303 67.5371 229.15 65.8145 229.15ZM63.9414 224.584H67.4414C67.4277 223.572 66.7578 222.834 65.7461 222.834C64.6934 222.834 63.9961 223.634 63.9414 224.584ZM74.6738 223.695C74.5645 223.135 74.0996 222.779 73.3613 222.779C72.6094 222.779 72.0625 223.148 72.0762 223.654C72.0625 224.037 72.377 224.324 73.1289 224.502L74.3867 224.762C75.7949 225.076 76.4648 225.719 76.4785 226.785C76.4648 228.18 75.248 229.15 73.3066 229.15C71.4199 229.15 70.2988 228.303 70.1211 226.881H71.8984C72.0078 227.51 72.5 227.824 73.3066 227.824C74.1406 227.824 74.7012 227.482 74.7012 226.936C74.7012 226.512 74.3594 226.238 73.6211 226.074L72.4316 225.814C71.0508 225.541 70.3398 224.816 70.3398 223.75C70.3398 222.383 71.5156 221.48 73.334 221.48C75.1113 221.48 76.2051 222.342 76.3281 223.695H74.6738ZM82.0156 223.695C81.9062 223.135 81.4414 222.779 80.7031 222.779C79.9512 222.779 79.4043 223.148 79.418 223.654C79.4043 224.037 79.7188 224.324 80.4707 224.502L81.7285 224.762C83.1367 225.076 83.8066 225.719 83.8203 226.785C83.8066 228.18 82.5898 229.15 80.6484 229.15C78.7617 229.15 77.6406 228.303 77.4629 226.881H79.2402C79.3496 227.51 79.8418 227.824 80.6484 227.824C81.4824 227.824 82.043 227.482 82.043 226.936C82.043 226.512 81.7012 226.238 80.9629 226.074L79.7734 225.814C78.3926 225.541 77.6816 224.816 77.6816 223.75C77.6816 222.383 78.8574 221.48 80.6758 221.48C82.4531 221.48 83.5469 222.342 83.6699 223.695H82.0156ZM88.4414 229.15C86.1992 229.15 84.832 227.66 84.832 225.336C84.832 223.039 86.2266 221.48 88.3457 221.48C90.1641 221.48 91.7363 222.615 91.7363 225.227V225.773H86.5547C86.5752 227.038 87.3203 227.783 88.4551 227.783C89.2207 227.783 89.7402 227.455 89.959 227.018H91.668C91.3535 228.303 90.1641 229.15 88.4414 229.15ZM86.5684 224.584H90.0684C90.0547 223.572 89.3848 222.834 88.373 222.834C87.3203 222.834 86.623 223.634 86.5684 224.584ZM95.8516 229.137C94.1016 229.137 92.7891 227.742 92.7891 225.295C92.7891 222.82 94.1426 221.48 95.8652 221.48C97.1777 221.48 97.7246 222.26 97.9844 222.793H98.0527V219.102H99.7891V229H98.0801V227.824H97.9844C97.7109 228.371 97.1367 229.137 95.8516 229.137ZM96.3301 227.701C97.4512 227.701 98.0938 226.73 98.0938 225.281C98.0938 223.846 97.4648 222.902 96.3301 222.902C95.168 222.902 94.5664 223.9 94.5664 225.281C94.5664 226.689 95.1816 227.701 96.3301 227.701Z" fill="var(--sol-element-quaternary)"/>
<g clip-path="url(#clip16_1281_125686)">
<path d="M228 212C228 209.791 229.791 208 232 208H464C466.209 208 468 209.791 468 212V236C468 238.209 466.209 240 464 240H232C229.791 240 228 238.209 228 236V212Z" fill="var(--sol-element-primary)" fill-opacity="0.04"/>
<g filter="url(#filter2_d_1281_125686)">
<g clip-path="url(#clip17_1281_125686)">
<path d="M231 213C231 211.895 231.895 211 233 211H307C308.105 211 309 211.895 309 213V235C309 236.105 308.105 237 307 237H233C231.895 237 231 236.105 231 235V213Z" fill="var(--sol-surface)"/>
<rect width="78" height="26" transform="translate(231 211)" fill="var(--sol-element-primary)" fill-opacity="0.12"/>
<path d="M255.285 228V219.516H256.809V226.711H260.559V228H255.285ZM261.414 226.207C261.414 224.777 262.598 224.355 263.781 224.285C264.221 224.256 265.135 224.203 265.41 224.191V223.688C265.41 223.055 265 222.691 264.262 222.691C263.594 222.691 263.184 222.996 263.066 223.453H261.625C261.73 222.375 262.703 221.555 264.297 221.555C265.504 221.555 266.898 222.047 266.898 223.746V228H265.469V227.121H265.422C265.141 227.66 264.543 228.129 263.547 228.129C262.328 228.129 261.414 227.461 261.414 226.207ZM262.855 226.195C262.855 226.746 263.301 227.027 263.934 227.027C264.836 227.027 265.422 226.43 265.422 225.715V225.188L264.016 225.281C263.301 225.34 262.855 225.633 262.855 226.195ZM268.375 228V219.516H269.875V222.68H269.934C270.168 222.223 270.625 221.555 271.75 221.555C273.227 221.555 274.387 222.703 274.387 224.824C274.387 226.922 273.25 228.117 271.762 228.117C270.66 228.117 270.168 227.461 269.934 226.992H269.84V228H268.375ZM269.84 224.812C269.84 226.055 270.379 226.887 271.34 226.887C272.336 226.887 272.863 226.02 272.863 224.812C272.863 223.629 272.348 222.773 271.34 222.773C270.379 222.773 269.84 223.582 269.84 224.812ZM278.383 228.129C276.461 228.129 275.289 226.852 275.289 224.859C275.289 222.891 276.484 221.555 278.301 221.555C279.859 221.555 281.207 222.527 281.207 224.766V225.234H276.766C276.783 226.318 277.422 226.957 278.395 226.957C279.051 226.957 279.496 226.676 279.684 226.301H281.148C280.879 227.402 279.859 228.129 278.383 228.129ZM276.777 224.215H279.777C279.766 223.348 279.191 222.715 278.324 222.715C277.422 222.715 276.824 223.4 276.777 224.215ZM283.867 219.516V228H282.367V219.516H283.867Z" fill="var(--sol-element-primary)"/>
</g>
</g>
<g clip-path="url(#clip18_1281_125686)">
<path d="M333.285 228V219.516H334.809V226.711H338.559V228H333.285ZM339.414 226.207C339.414 224.777 340.598 224.355 341.781 224.285C342.221 224.256 343.135 224.203 343.41 224.191V223.688C343.41 223.055 343 222.691 342.262 222.691C341.594 222.691 341.184 222.996 341.066 223.453H339.625C339.73 222.375 340.703 221.555 342.297 221.555C343.504 221.555 344.898 222.047 344.898 223.746V228H343.469V227.121H343.422C343.141 227.66 342.543 228.129 341.547 228.129C340.328 228.129 339.414 227.461 339.414 226.207ZM340.855 226.195C340.855 226.746 341.301 227.027 341.934 227.027C342.836 227.027 343.422 226.43 343.422 225.715V225.188L342.016 225.281C341.301 225.34 340.855 225.633 340.855 226.195ZM346.375 228V219.516H347.875V222.68H347.934C348.168 222.223 348.625 221.555 349.75 221.555C351.227 221.555 352.387 222.703 352.387 224.824C352.387 226.922 351.25 228.117 349.762 228.117C348.66 228.117 348.168 227.461 347.934 226.992H347.84V228H346.375ZM347.84 224.812C347.84 226.055 348.379 226.887 349.34 226.887C350.336 226.887 350.863 226.02 350.863 224.812C350.863 223.629 350.348 222.773 349.34 222.773C348.379 222.773 347.84 223.582 347.84 224.812ZM356.383 228.129C354.461 228.129 353.289 226.852 353.289 224.859C353.289 222.891 354.484 221.555 356.301 221.555C357.859 221.555 359.207 222.527 359.207 224.766V225.234H354.766C354.783 226.318 355.422 226.957 356.395 226.957C357.051 226.957 357.496 226.676 357.684 226.301H359.148C358.879 227.402 357.859 228.129 356.383 228.129ZM354.777 224.215H357.777C357.766 223.348 357.191 222.715 356.324 222.715C355.422 222.715 354.824 223.4 354.777 224.215ZM361.867 219.516V228H360.367V219.516H361.867Z" fill="var(--sol-element-quaternary)"/>
</g>
<g clip-path="url(#clip19_1281_125686)">
<path d="M411.285 228V219.516H412.809V226.711H416.559V228H411.285ZM417.414 226.207C417.414 224.777 418.598 224.355 419.781 224.285C420.221 224.256 421.135 224.203 421.41 224.191V223.688C421.41 223.055 421 222.691 420.262 222.691C419.594 222.691 419.184 222.996 419.066 223.453H417.625C417.73 222.375 418.703 221.555 420.297 221.555C421.504 221.555 422.898 222.047 422.898 223.746V228H421.469V227.121H421.422C421.141 227.66 420.543 228.129 419.547 228.129C418.328 228.129 417.414 227.461 417.414 226.207ZM418.855 226.195C418.855 226.746 419.301 227.027 419.934 227.027C420.836 227.027 421.422 226.43 421.422 225.715V225.188L420.016 225.281C419.301 225.34 418.855 225.633 418.855 226.195ZM424.375 228V219.516H425.875V222.68H425.934C426.168 222.223 426.625 221.555 427.75 221.555C429.227 221.555 430.387 222.703 430.387 224.824C430.387 226.922 429.25 228.117 427.762 228.117C426.66 228.117 426.168 227.461 425.934 226.992H425.84V228H424.375ZM425.84 224.812C425.84 226.055 426.379 226.887 427.34 226.887C428.336 226.887 428.863 226.02 428.863 224.812C428.863 223.629 428.348 222.773 427.34 222.773C426.379 222.773 425.84 223.582 425.84 224.812ZM434.383 228.129C432.461 228.129 431.289 226.852 431.289 224.859C431.289 222.891 432.484 221.555 434.301 221.555C435.859 221.555 437.207 222.527 437.207 224.766V225.234H432.766C432.783 226.318 433.422 226.957 434.395 226.957C435.051 226.957 435.496 226.676 435.684 226.301H437.148C436.879 227.402 435.859 228.129 434.383 228.129ZM432.777 224.215H435.777C435.766 223.348 435.191 222.715 434.324 222.715C433.422 222.715 432.824 223.4 432.777 224.215ZM439.867 219.516V228H438.367V219.516H439.867Z" fill="var(--sol-element-quaternary)"/>
</g>
</g>
<g clip-path="url(#clip20_1281_125686)">
<path d="M532 208.5H764C765.933 208.5 767.5 210.067 767.5 212V236C767.5 237.933 765.933 239.5 764 239.5H532C530.067 239.5 528.5 237.933 528.5 236V212C528.5 210.067 530.067 208.5 532 208.5Z" stroke="var(--sol-border-solid)"/>
<g clip-path="url(#clip21_1281_125686)">
<path d="M528 212C528 209.791 529.791 208 532 208H608V240H532C529.791 240 528 238.209 528 236V212Z" fill="var(--sol-selected-container-variant)"/>
<path d="M532 208.5H607.5V239.5H532C530.067 239.5 528.5 237.933 528.5 236V212C528.5 210.067 530.067 208.5 532 208.5Z" stroke="var(--sol-fill-active)"/>
<path d="M553.744 228V219.516H555.268V226.711H559.018V228H553.744ZM559.873 226.207C559.873 224.777 561.057 224.355 562.24 224.285C562.68 224.256 563.594 224.203 563.869 224.191V223.688C563.869 223.055 563.459 222.691 562.721 222.691C562.053 222.691 561.643 222.996 561.525 223.453H560.084C560.189 222.375 561.162 221.555 562.756 221.555C563.963 221.555 565.357 222.047 565.357 223.746V228H563.928V227.121H563.881C563.6 227.66 563.002 228.129 562.006 228.129C560.787 228.129 559.873 227.461 559.873 226.207ZM561.314 226.195C561.314 226.746 561.76 227.027 562.393 227.027C563.295 227.027 563.881 226.43 563.881 225.715V225.188L562.475 225.281C561.76 225.34 561.314 225.633 561.314 226.195ZM566.834 228V219.516H568.334V222.68H568.393C568.627 222.223 569.084 221.555 570.209 221.555C571.686 221.555 572.846 222.703 572.846 224.824C572.846 226.922 571.709 228.117 570.221 228.117C569.119 228.117 568.627 227.461 568.393 226.992H568.299V228H566.834ZM568.299 224.812C568.299 226.055 568.838 226.887 569.799 226.887C570.795 226.887 571.322 226.02 571.322 224.812C571.322 223.629 570.807 222.773 569.799 222.773C568.838 222.773 568.299 223.582 568.299 224.812ZM576.842 228.129C574.92 228.129 573.748 226.852 573.748 224.859C573.748 222.891 574.943 221.555 576.76 221.555C578.318 221.555 579.666 222.527 579.666 224.766V225.234H575.225C575.242 226.318 575.881 226.957 576.854 226.957C577.51 226.957 577.955 226.676 578.143 226.301H579.607C579.338 227.402 578.318 228.129 576.842 228.129ZM575.236 224.215H578.236C578.225 223.348 577.65 222.715 576.783 222.715C575.881 222.715 575.283 223.4 575.236 224.215ZM582.326 219.516V228H580.826V219.516H582.326Z" fill="var(--sol-element-brand-variant)"/>
<rect width="80" height="32" transform="translate(528 208)" fill="var(--sol-element-primary)" fill-opacity="0.12"/>
</g>
<g clip-path="url(#clip22_1281_125686)">
<mask id="path-58-outside-5_1281_125686" maskUnits="userSpaceOnUse" x="608" y="208" width="81" height="32" fill="var(--sol-static-black)">
<rect fill="var(--sol-static-white)" x="608" y="208" width="81" height="32"/>
<path d="M608 208H688V240H608V208Z"/>
</mask>
<path d="M688 208H687V240H688H689V208H688Z" fill="var(--sol-border-solid)" mask="url(#path-58-outside-5_1281_125686)"/>
<path d="M633.744 228V219.516H635.268V226.711H639.018V228H633.744ZM639.873 226.207C639.873 224.777 641.057 224.355 642.24 224.285C642.68 224.256 643.594 224.203 643.869 224.191V223.688C643.869 223.055 643.459 222.691 642.721 222.691C642.053 222.691 641.643 222.996 641.525 223.453H640.084C640.189 222.375 641.162 221.555 642.756 221.555C643.963 221.555 645.357 222.047 645.357 223.746V228H643.928V227.121H643.881C643.6 227.66 643.002 228.129 642.006 228.129C640.787 228.129 639.873 227.461 639.873 226.207ZM641.314 226.195C641.314 226.746 641.76 227.027 642.393 227.027C643.295 227.027 643.881 226.43 643.881 225.715V225.188L642.475 225.281C641.76 225.34 641.314 225.633 641.314 226.195ZM646.834 228V219.516H648.334V222.68H648.393C648.627 222.223 649.084 221.555 650.209 221.555C651.686 221.555 652.846 222.703 652.846 224.824C652.846 226.922 651.709 228.117 650.221 228.117C649.119 228.117 648.627 227.461 648.393 226.992H648.299V228H646.834ZM648.299 224.812C648.299 226.055 648.838 226.887 649.799 226.887C650.795 226.887 651.322 226.02 651.322 224.812C651.322 223.629 650.807 222.773 649.799 222.773C648.838 222.773 648.299 223.582 648.299 224.812ZM656.842 228.129C654.92 228.129 653.748 226.852 653.748 224.859C653.748 222.891 654.943 221.555 656.76 221.555C658.318 221.555 659.666 222.527 659.666 224.766V225.234H655.225C655.242 226.318 655.881 226.957 656.854 226.957C657.51 226.957 657.955 226.676 658.143 226.301H659.607C659.338 227.402 658.318 228.129 656.842 228.129ZM655.236 224.215H658.236C658.225 223.348 657.65 222.715 656.783 222.715C655.881 222.715 655.283 223.4 655.236 224.215ZM662.326 219.516V228H660.826V219.516H662.326Z" fill="var(--sol-element-quaternary)"/>
</g>
<g clip-path="url(#clip23_1281_125686)">
<mask id="path-62-outside-6_1281_125686" maskUnits="userSpaceOnUse" x="688" y="208" width="81" height="32" fill="var(--sol-static-black)">
<rect fill="var(--sol-static-white)" x="688" y="208" width="81" height="32"/>
<path d="M688 208H768V240H688V208Z"/>
</mask>
<path d="M768 208H767V240H768H769V208H768Z" fill="var(--sol-border-solid)" mask="url(#path-62-outside-6_1281_125686)"/>
<path d="M713.744 228V219.516H715.268V226.711H719.018V228H713.744ZM719.873 226.207C719.873 224.777 721.057 224.355 722.24 224.285C722.68 224.256 723.594 224.203 723.869 224.191V223.688C723.869 223.055 723.459 222.691 722.721 222.691C722.053 222.691 721.643 222.996 721.525 223.453H720.084C720.189 222.375 721.162 221.555 722.756 221.555C723.963 221.555 725.357 222.047 725.357 223.746V228H723.928V227.121H723.881C723.6 227.66 723.002 228.129 722.006 228.129C720.787 228.129 719.873 227.461 719.873 226.207ZM721.314 226.195C721.314 226.746 721.76 227.027 722.393 227.027C723.295 227.027 723.881 226.43 723.881 225.715V225.188L722.475 225.281C721.76 225.34 721.314 225.633 721.314 226.195ZM726.834 228V219.516H728.334V222.68H728.393C728.627 222.223 729.084 221.555 730.209 221.555C731.686 221.555 732.846 222.703 732.846 224.824C732.846 226.922 731.709 228.117 730.221 228.117C729.119 228.117 728.627 227.461 728.393 226.992H728.299V228H726.834ZM728.299 224.812C728.299 226.055 728.838 226.887 729.799 226.887C730.795 226.887 731.322 226.02 731.322 224.812C731.322 223.629 730.807 222.773 729.799 222.773C728.838 222.773 728.299 223.582 728.299 224.812ZM736.842 228.129C734.92 228.129 733.748 226.852 733.748 224.859C733.748 222.891 734.943 221.555 736.76 221.555C738.318 221.555 739.666 222.527 739.666 224.766V225.234H735.225C735.242 226.318 735.881 226.957 736.854 226.957C737.51 226.957 737.955 226.676 738.143 226.301H739.607C739.338 227.402 738.318 228.129 736.842 228.129ZM735.236 224.215H738.236C738.225 223.348 737.65 222.715 736.783 222.715C735.881 222.715 735.283 223.4 735.236 224.215ZM742.326 219.516V228H740.826V219.516H742.326Z" fill="var(--sol-element-quaternary)"/>
</g>
</g>
<path d="M52.2793 309H48.916V299.102H52.334C55.2871 299.102 57.0781 300.961 57.0781 304.037C57.0781 307.127 55.2871 309 52.2793 309ZM50.6934 307.455H52.1836C54.248 307.455 55.3008 306.32 55.3008 304.037C55.3008 301.768 54.248 300.646 52.2383 300.646H50.6934V307.455ZM58.5684 309V301.576H60.3184V309H58.5684ZM59.457 300.523C58.9102 300.523 58.4453 300.1 58.4453 299.566C58.4453 299.047 58.9102 298.623 59.457 298.623C60.0176 298.623 60.4688 299.047 60.4688 299.566C60.4688 300.1 60.0176 300.523 59.457 300.523ZM66.1973 303.695C66.0879 303.135 65.623 302.779 64.8848 302.779C64.1328 302.779 63.5859 303.148 63.5996 303.654C63.5859 304.037 63.9004 304.324 64.6523 304.502L65.9102 304.762C67.3184 305.076 67.9883 305.719 68.002 306.785C67.9883 308.18 66.7715 309.15 64.8301 309.15C62.9434 309.15 61.8223 308.303 61.6445 306.881H63.4219C63.5312 307.51 64.0234 307.824 64.8301 307.824C65.6641 307.824 66.2246 307.482 66.2246 306.936C66.2246 306.512 65.8828 306.238 65.1445 306.074L63.9551 305.814C62.5742 305.541 61.8633 304.816 61.8633 303.75C61.8633 302.383 63.0391 301.48 64.8574 301.48C66.6348 301.48 67.7285 302.342 67.8516 303.695H66.1973ZM68.9863 306.908C68.9863 305.24 70.3672 304.748 71.748 304.666C72.2607 304.632 73.3271 304.57 73.6484 304.557V303.969C73.6484 303.23 73.1699 302.807 72.3086 302.807C71.5293 302.807 71.0508 303.162 70.9141 303.695H69.2324C69.3555 302.438 70.4902 301.48 72.3496 301.48C73.7578 301.48 75.3848 302.055 75.3848 304.037V309H73.7168V307.975H73.6621C73.334 308.604 72.6367 309.15 71.4746 309.15C70.0527 309.15 68.9863 308.371 68.9863 306.908ZM70.668 306.895C70.668 307.537 71.1875 307.865 71.9258 307.865C72.9785 307.865 73.6621 307.168 73.6621 306.334V305.719L72.0215 305.828C71.1875 305.896 70.668 306.238 70.668 306.895ZM77.1074 309V299.102H78.8574V302.793H78.9258C79.1992 302.26 79.7324 301.48 81.0449 301.48C82.7676 301.48 84.1211 302.82 84.1211 305.295C84.1211 307.742 82.7949 309.137 81.0586 309.137C79.7734 309.137 79.1992 308.371 78.9258 307.824H78.8164V309H77.1074ZM78.8164 305.281C78.8164 306.73 79.4453 307.701 80.5664 307.701C81.7285 307.701 82.3438 306.689 82.3438 305.281C82.3438 303.9 81.7422 302.902 80.5664 302.902C79.4453 302.902 78.8164 303.846 78.8164 305.281ZM87.2383 299.102V309H85.4883V299.102H87.2383ZM92.2012 309.15C89.959 309.15 88.5918 307.66 88.5918 305.336C88.5918 303.039 89.9863 301.48 92.1055 301.48C93.9238 301.48 95.4961 302.615 95.4961 305.227V305.773H90.3145C90.335 307.038 91.0801 307.783 92.2148 307.783C92.9805 307.783 93.5 307.455 93.7188 307.018H95.4277C95.1133 308.303 93.9238 309.15 92.2012 309.15ZM90.3281 304.584H93.8281C93.8145 303.572 93.1445 302.834 92.1328 302.834C91.0801 302.834 90.3828 303.634 90.3281 304.584ZM99.6113 309.137C97.8613 309.137 96.5488 307.742 96.5488 305.295C96.5488 302.82 97.9023 301.48 99.625 301.48C100.938 301.48 101.484 302.26 101.744 302.793H101.812V299.102H103.549V309H101.84V307.824H101.744C101.471 308.371 100.896 309.137 99.6113 309.137ZM100.09 307.701C101.211 307.701 101.854 306.73 101.854 305.281C101.854 303.846 101.225 302.902 100.09 302.902C98.9277 302.902 98.3262 303.9 98.3262 305.281C98.3262 306.689 98.9414 307.701 100.09 307.701Z" fill="var(--sol-element-quaternary)"/>
<g clip-path="url(#clip24_1281_125686)">
<path d="M228 292C228 289.791 229.791 288 232 288H464C466.209 288 468 289.791 468 292V316C468 318.209 466.209 320 464 320H232C229.791 320 228 318.209 228 316V292Z" fill="var(--sol-element-primary)" fill-opacity="0.04"/>
<g filter="url(#filter3_d_1281_125686)">
<path d="M231 293C231 291.895 231.895 291 233 291H307C308.105 291 309 291.895 309 293V315C309 316.105 308.105 317 307 317H233C231.895 317 231 316.105 231 315V293Z" fill="var(--sol-surface)" shape-rendering="crispEdges"/>
<path d="M255.285 308V299.516H256.809V306.711H260.559V308H255.285ZM261.414 306.207C261.414 304.777 262.598 304.355 263.781 304.285C264.221 304.256 265.135 304.203 265.41 304.191V303.688C265.41 303.055 265 302.691 264.262 302.691C263.594 302.691 263.184 302.996 263.066 303.453H261.625C261.73 302.375 262.703 301.555 264.297 301.555C265.504 301.555 266.898 302.047 266.898 303.746V308H265.469V307.121H265.422C265.141 307.66 264.543 308.129 263.547 308.129C262.328 308.129 261.414 307.461 261.414 306.207ZM262.855 306.195C262.855 306.746 263.301 307.027 263.934 307.027C264.836 307.027 265.422 306.43 265.422 305.715V305.188L264.016 305.281C263.301 305.34 262.855 305.633 262.855 306.195ZM268.375 308V299.516H269.875V302.68H269.934C270.168 302.223 270.625 301.555 271.75 301.555C273.227 301.555 274.387 302.703 274.387 304.824C274.387 306.922 273.25 308.117 271.762 308.117C270.66 308.117 270.168 307.461 269.934 306.992H269.84V308H268.375ZM269.84 304.812C269.84 306.055 270.379 306.887 271.34 306.887C272.336 306.887 272.863 306.02 272.863 304.812C272.863 303.629 272.348 302.773 271.34 302.773C270.379 302.773 269.84 303.582 269.84 304.812ZM278.383 308.129C276.461 308.129 275.289 306.852 275.289 304.859C275.289 302.891 276.484 301.555 278.301 301.555C279.859 301.555 281.207 302.527 281.207 304.766V305.234H276.766C276.783 306.318 277.422 306.957 278.395 306.957C279.051 306.957 279.496 306.676 279.684 306.301H281.148C280.879 307.402 279.859 308.129 278.383 308.129ZM276.777 304.215H279.777C279.766 303.348 279.191 302.715 278.324 302.715C277.422 302.715 276.824 303.4 276.777 304.215ZM283.867 299.516V308H282.367V299.516H283.867Z" fill="var(--sol-element-primary)" fill-opacity="0.3"/>
</g>
<g clip-path="url(#clip25_1281_125686)">
<path d="M333.285 308V299.516H334.809V306.711H338.559V308H333.285ZM339.414 306.207C339.414 304.777 340.598 304.355 341.781 304.285C342.221 304.256 343.135 304.203 343.41 304.191V303.688C343.41 303.055 343 302.691 342.262 302.691C341.594 302.691 341.184 302.996 341.066 303.453H339.625C339.73 302.375 340.703 301.555 342.297 301.555C343.504 301.555 344.898 302.047 344.898 303.746V308H343.469V307.121H343.422C343.141 307.66 342.543 308.129 341.547 308.129C340.328 308.129 339.414 307.461 339.414 306.207ZM340.855 306.195C340.855 306.746 341.301 307.027 341.934 307.027C342.836 307.027 343.422 306.43 343.422 305.715V305.188L342.016 305.281C341.301 305.34 340.855 305.633 340.855 306.195ZM346.375 308V299.516H347.875V302.68H347.934C348.168 302.223 348.625 301.555 349.75 301.555C351.227 301.555 352.387 302.703 352.387 304.824C352.387 306.922 351.25 308.117 349.762 308.117C348.66 308.117 348.168 307.461 347.934 306.992H347.84V308H346.375ZM347.84 304.812C347.84 306.055 348.379 306.887 349.34 306.887C350.336 306.887 350.863 306.02 350.863 304.812C350.863 303.629 350.348 302.773 349.34 302.773C348.379 302.773 347.84 303.582 347.84 304.812ZM356.383 308.129C354.461 308.129 353.289 306.852 353.289 304.859C353.289 302.891 354.484 301.555 356.301 301.555C357.859 301.555 359.207 302.527 359.207 304.766V305.234H354.766C354.783 306.318 355.422 306.957 356.395 306.957C357.051 306.957 357.496 306.676 357.684 306.301H359.148C358.879 307.402 357.859 308.129 356.383 308.129ZM354.777 304.215H357.777C357.766 303.348 357.191 302.715 356.324 302.715C355.422 302.715 354.824 303.4 354.777 304.215ZM361.867 299.516V308H360.367V299.516H361.867Z" fill="var(--sol-element-quaternary)"/>
</g>
<g clip-path="url(#clip26_1281_125686)">
<path d="M411.285 308V299.516H412.809V306.711H416.559V308H411.285ZM417.414 306.207C417.414 304.777 418.598 304.355 419.781 304.285C420.221 304.256 421.135 304.203 421.41 304.191V303.688C421.41 303.055 421 302.691 420.262 302.691C419.594 302.691 419.184 302.996 419.066 303.453H417.625C417.73 302.375 418.703 301.555 420.297 301.555C421.504 301.555 422.898 302.047 422.898 303.746V308H421.469V307.121H421.422C421.141 307.66 420.543 308.129 419.547 308.129C418.328 308.129 417.414 307.461 417.414 306.207ZM418.855 306.195C418.855 306.746 419.301 307.027 419.934 307.027C420.836 307.027 421.422 306.43 421.422 305.715V305.188L420.016 305.281C419.301 305.34 418.855 305.633 418.855 306.195ZM424.375 308V299.516H425.875V302.68H425.934C426.168 302.223 426.625 301.555 427.75 301.555C429.227 301.555 430.387 302.703 430.387 304.824C430.387 306.922 429.25 308.117 427.762 308.117C426.66 308.117 426.168 307.461 425.934 306.992H425.84V308H424.375ZM425.84 304.812C425.84 306.055 426.379 306.887 427.34 306.887C428.336 306.887 428.863 306.02 428.863 304.812C428.863 303.629 428.348 302.773 427.34 302.773C426.379 302.773 425.84 303.582 425.84 304.812ZM434.383 308.129C432.461 308.129 431.289 306.852 431.289 304.859C431.289 302.891 432.484 301.555 434.301 301.555C435.859 301.555 437.207 302.527 437.207 304.766V305.234H432.766C432.783 306.318 433.422 306.957 434.395 306.957C435.051 306.957 435.496 306.676 435.684 306.301H437.148C436.879 307.402 435.859 308.129 434.383 308.129ZM432.777 304.215H435.777C435.766 303.348 435.191 302.715 434.324 302.715C433.422 302.715 432.824 303.4 432.777 304.215ZM439.867 299.516V308H438.367V299.516H439.867Z" fill="var(--sol-element-quaternary)"/>
</g>
</g>
<g clip-path="url(#clip27_1281_125686)">
<path d="M532 288.5H764C765.933 288.5 767.5 290.067 767.5 292V316C767.5 317.933 765.933 319.5 764 319.5H532C530.067 319.5 528.5 317.933 528.5 316V292C528.5 290.067 530.067 288.5 532 288.5Z" stroke="var(--sol-border-solid)"/>
<path d="M528 292C528 289.791 529.791 288 532 288H608V320H532C529.791 320 528 318.209 528 316V292Z" fill="var(--sol-element-primary)" fill-opacity="0.08"/>
<path d="M532 288.5H607.5V319.5H532C530.067 319.5 528.5 317.933 528.5 316V292C528.5 290.067 530.067 288.5 532 288.5Z" stroke="var(--sol-element-primary)" stroke-opacity="0.08"/>
<path d="M553.744 308V299.516H555.268V306.711H559.018V308H553.744ZM559.873 306.207C559.873 304.777 561.057 304.355 562.24 304.285C562.68 304.256 563.594 304.203 563.869 304.191V303.688C563.869 303.055 563.459 302.691 562.721 302.691C562.053 302.691 561.643 302.996 561.525 303.453H560.084C560.189 302.375 561.162 301.555 562.756 301.555C563.963 301.555 565.357 302.047 565.357 303.746V308H563.928V307.121H563.881C563.6 307.66 563.002 308.129 562.006 308.129C560.787 308.129 559.873 307.461 559.873 306.207ZM561.314 306.195C561.314 306.746 561.76 307.027 562.393 307.027C563.295 307.027 563.881 306.43 563.881 305.715V305.188L562.475 305.281C561.76 305.34 561.314 305.633 561.314 306.195ZM566.834 308V299.516H568.334V302.68H568.393C568.627 302.223 569.084 301.555 570.209 301.555C571.686 301.555 572.846 302.703 572.846 304.824C572.846 306.922 571.709 308.117 570.221 308.117C569.119 308.117 568.627 307.461 568.393 306.992H568.299V308H566.834ZM568.299 304.812C568.299 306.055 568.838 306.887 569.799 306.887C570.795 306.887 571.322 306.02 571.322 304.812C571.322 303.629 570.807 302.773 569.799 302.773C568.838 302.773 568.299 303.582 568.299 304.812ZM576.842 308.129C574.92 308.129 573.748 306.852 573.748 304.859C573.748 302.891 574.943 301.555 576.76 301.555C578.318 301.555 579.666 302.527 579.666 304.766V305.234H575.225C575.242 306.318 575.881 306.957 576.854 306.957C577.51 306.957 577.955 306.676 578.143 306.301H579.607C579.338 307.402 578.318 308.129 576.842 308.129ZM575.236 304.215H578.236C578.225 303.348 577.65 302.715 576.783 302.715C575.881 302.715 575.283 303.4 575.236 304.215ZM582.326 299.516V308H580.826V299.516H582.326Z" fill="var(--sol-element-primary)" fill-opacity="0.3"/>
<g clip-path="url(#clip28_1281_125686)">
<mask id="path-79-outside-7_1281_125686" maskUnits="userSpaceOnUse" x="608" y="288" width="81" height="32" fill="var(--sol-static-black)">
<rect fill="var(--sol-static-white)" x="608" y="288" width="81" height="32"/>
<path d="M608 288H688V320H608V288Z"/>
</mask>
<path d="M688 288H687V320H688H689V288H688Z" fill="var(--sol-border-solid)" mask="url(#path-79-outside-7_1281_125686)"/>
<path d="M633.744 308V299.516H635.268V306.711H639.018V308H633.744ZM639.873 306.207C639.873 304.777 641.057 304.355 642.24 304.285C642.68 304.256 643.594 304.203 643.869 304.191V303.688C643.869 303.055 643.459 302.691 642.721 302.691C642.053 302.691 641.643 302.996 641.525 303.453H640.084C640.189 302.375 641.162 301.555 642.756 301.555C643.963 301.555 645.357 302.047 645.357 303.746V308H643.928V307.121H643.881C643.6 307.66 643.002 308.129 642.006 308.129C640.787 308.129 639.873 307.461 639.873 306.207ZM641.314 306.195C641.314 306.746 641.76 307.027 642.393 307.027C643.295 307.027 643.881 306.43 643.881 305.715V305.188L642.475 305.281C641.76 305.34 641.314 305.633 641.314 306.195ZM646.834 308V299.516H648.334V302.68H648.393C648.627 302.223 649.084 301.555 650.209 301.555C651.686 301.555 652.846 302.703 652.846 304.824C652.846 306.922 651.709 308.117 650.221 308.117C649.119 308.117 648.627 307.461 648.393 306.992H648.299V308H646.834ZM648.299 304.812C648.299 306.055 648.838 306.887 649.799 306.887C650.795 306.887 651.322 306.02 651.322 304.812C651.322 303.629 650.807 302.773 649.799 302.773C648.838 302.773 648.299 303.582 648.299 304.812ZM656.842 308.129C654.92 308.129 653.748 306.852 653.748 304.859C653.748 302.891 654.943 301.555 656.76 301.555C658.318 301.555 659.666 302.527 659.666 304.766V305.234H655.225C655.242 306.318 655.881 306.957 656.854 306.957C657.51 306.957 657.955 306.676 658.143 306.301H659.607C659.338 307.402 658.318 308.129 656.842 308.129ZM655.236 304.215H658.236C658.225 303.348 657.65 302.715 656.783 302.715C655.881 302.715 655.283 303.4 655.236 304.215ZM662.326 299.516V308H660.826V299.516H662.326Z" fill="var(--sol-element-quaternary)"/>
</g>
<g clip-path="url(#clip29_1281_125686)">
<mask id="path-83-outside-8_1281_125686" maskUnits="userSpaceOnUse" x="688" y="288" width="81" height="32" fill="var(--sol-static-black)">
<rect fill="var(--sol-static-white)" x="688" y="288" width="81" height="32"/>
<path d="M688 288H768V320H688V288Z"/>
</mask>
<path d="M768 288H767V320H768H769V288H768Z" fill="var(--sol-border-solid)" mask="url(#path-83-outside-8_1281_125686)"/>
<path d="M713.744 308V299.516H715.268V306.711H719.018V308H713.744ZM719.873 306.207C719.873 304.777 721.057 304.355 722.24 304.285C722.68 304.256 723.594 304.203 723.869 304.191V303.688C723.869 303.055 723.459 302.691 722.721 302.691C722.053 302.691 721.643 302.996 721.525 303.453H720.084C720.189 302.375 721.162 301.555 722.756 301.555C723.963 301.555 725.357 302.047 725.357 303.746V308H723.928V307.121H723.881C723.6 307.66 723.002 308.129 722.006 308.129C720.787 308.129 719.873 307.461 719.873 306.207ZM721.314 306.195C721.314 306.746 721.76 307.027 722.393 307.027C723.295 307.027 723.881 306.43 723.881 305.715V305.188L722.475 305.281C721.76 305.34 721.314 305.633 721.314 306.195ZM726.834 308V299.516H728.334V302.68H728.393C728.627 302.223 729.084 301.555 730.209 301.555C731.686 301.555 732.846 302.703 732.846 304.824C732.846 306.922 731.709 308.117 730.221 308.117C729.119 308.117 728.627 307.461 728.393 306.992H728.299V308H726.834ZM728.299 304.812C728.299 306.055 728.838 306.887 729.799 306.887C730.795 306.887 731.322 306.02 731.322 304.812C731.322 303.629 730.807 302.773 729.799 302.773C728.838 302.773 728.299 303.582 728.299 304.812ZM736.842 308.129C734.92 308.129 733.748 306.852 733.748 304.859C733.748 302.891 734.943 301.555 736.76 301.555C738.318 301.555 739.666 302.527 739.666 304.766V305.234H735.225C735.242 306.318 735.881 306.957 736.854 306.957C737.51 306.957 737.955 306.676 738.143 306.301H739.607C739.338 307.402 738.318 308.129 736.842 308.129ZM735.236 304.215H738.236C738.225 303.348 737.65 302.715 736.783 302.715C735.881 302.715 735.283 303.4 735.236 304.215ZM742.326 299.516V308H740.826V299.516H742.326Z" fill="var(--sol-element-quaternary)"/>
</g>
</g>
<defs>
<filter id="filter0_d_1281_125686" x="229" y="51" width="82" height="30" filterUnits="userSpaceOnUse" color-interpolation-filters="sRGB">
<feFlood flood-opacity="0" result="BackgroundImageFix"/>
<feColorMatrix in="SourceAlpha" type="matrix" values="0 0 0 0 0 0 0 0 0 0 0 0 0 0 0 0 0 0 127 0" result="hardAlpha"/>
<feOffset dy="2"/>
<feGaussianBlur stdDeviation="1"/>
<feComposite in2="hardAlpha" operator="out"/>
<feColorMatrix type="matrix" values="0 0 0 0 0 0 0 0 0 0 0 0 0 0 0 0 0 0 0.04 0"/>
<feBlend mode="normal" in2="BackgroundImageFix" result="effect1_dropShadow_1281_125686"/>
<feBlend mode="normal" in="SourceGraphic" in2="effect1_dropShadow_1281_125686" result="shape"/>
</filter>
<filter id="filter1_d_1281_125686" x="229" y="131" width="82" height="30" filterUnits="userSpaceOnUse" color-interpolation-filters="sRGB">
<feFlood flood-opacity="0" result="BackgroundImageFix"/>
<feColorMatrix in="SourceAlpha" type="matrix" values="0 0 0 0 0 0 0 0 0 0 0 0 0 0 0 0 0 0 127 0" result="hardAlpha"/>
<feOffset dy="2"/>
<feGaussianBlur stdDeviation="1"/>
<feComposite in2="hardAlpha" operator="out"/>
<feColorMatrix type="matrix" values="0 0 0 0 0 0 0 0 0 0 0 0 0 0 0 0 0 0 0.04 0"/>
<feBlend mode="normal" in2="BackgroundImageFix" result="effect1_dropShadow_1281_125686"/>
<feBlend mode="normal" in="SourceGraphic" in2="effect1_dropShadow_1281_125686" result="shape"/>
</filter>
<filter id="filter2_d_1281_125686" x="229" y="211" width="82" height="30" filterUnits="userSpaceOnUse" color-interpolation-filters="sRGB">
<feFlood flood-opacity="0" result="BackgroundImageFix"/>
<feColorMatrix in="SourceAlpha" type="matrix" values="0 0 0 0 0 0 0 0 0 0 0 0 0 0 0 0 0 0 127 0" result="hardAlpha"/>
<feOffset dy="2"/>
<feGaussianBlur stdDeviation="1"/>
<feComposite in2="hardAlpha" operator="out"/>
<feColorMatrix type="matrix" values="0 0 0 0 0 0 0 0 0 0 0 0 0 0 0 0 0 0 0.04 0"/>
<feBlend mode="normal" in2="BackgroundImageFix" result="effect1_dropShadow_1281_125686"/>
<feBlend mode="normal" in="SourceGraphic" in2="effect1_dropShadow_1281_125686" result="shape"/>
</filter>
<filter id="filter3_d_1281_125686" x="229" y="291" width="82" height="30" filterUnits="userSpaceOnUse" color-interpolation-filters="sRGB">
<feFlood flood-opacity="0" result="BackgroundImageFix"/>
<feColorMatrix in="SourceAlpha" type="matrix" values="0 0 0 0 0 0 0 0 0 0 0 0 0 0 0 0 0 0 127 0" result="hardAlpha"/>
<feOffset dy="2"/>
<feGaussianBlur stdDeviation="1"/>
<feComposite in2="hardAlpha" operator="out"/>
<feColorMatrix type="matrix" values="0 0 0 0 0 0 0 0 0 0 0 0 0 0 0 0 0 0 0.04 0"/>
<feBlend mode="normal" in2="BackgroundImageFix" result="effect1_dropShadow_1281_125686"/>
<feBlend mode="normal" in="SourceGraphic" in2="effect1_dropShadow_1281_125686" result="shape"/>
</filter>
<clipPath id="clip0_1281_125686">
<path d="M228 52C228 49.7909 229.791 48 232 48H464C466.209 48 468 49.7909 468 52V76C468 78.2091 466.209 80 464 80H232C229.791 80 228 78.2091 228 76V52Z" fill="var(--sol-surface)"/>
</clipPath>
<clipPath id="clip1_1281_125686">
<path d="M231 53C231 51.8954 231.895 51 233 51H307C308.105 51 309 51.8954 309 53V75C309 76.1046 308.105 77 307 77H233C231.895 77 231 76.1046 231 75V53Z" fill="var(--sol-surface)"/>
</clipPath>
<clipPath id="clip2_1281_125686">
<rect width="78" height="26" fill="var(--sol-surface)" transform="translate(309 51)"/>
</clipPath>
<clipPath id="clip3_1281_125686">
<rect width="78" height="26" fill="var(--sol-surface)" transform="translate(387 51)"/>
</clipPath>
<clipPath id="clip4_1281_125686">
<path d="M528 52C528 49.7909 529.791 48 532 48H764C766.209 48 768 49.7909 768 52V76C768 78.2091 766.209 80 764 80H532C529.791 80 528 78.2091 528 76V52Z" fill="var(--sol-surface)"/>
</clipPath>
<clipPath id="clip5_1281_125686">
<path d="M528 52C528 49.7909 529.791 48 532 48H608V80H532C529.791 80 528 78.2091 528 76V52Z" fill="var(--sol-surface)"/>
</clipPath>
<clipPath id="clip6_1281_125686">
<path d="M608 52C608 49.7909 609.791 48 612 48H684C686.209 48 688 49.7909 688 52V76C688 78.2091 686.209 80 684 80H612C609.791 80 608 78.2091 608 76V52Z" fill="var(--sol-surface)"/>
</clipPath>
<clipPath id="clip7_1281_125686">
<path d="M688 48H764C766.209 48 768 49.7909 768 52V76C768 78.2091 766.209 80 764 80H688V48Z" fill="var(--sol-surface)"/>
</clipPath>
<clipPath id="clip8_1281_125686">
<path d="M228 132C228 129.791 229.791 128 232 128H464C466.209 128 468 129.791 468 132V156C468 158.209 466.209 160 464 160H232C229.791 160 228 158.209 228 156V132Z" fill="var(--sol-surface)"/>
</clipPath>
<clipPath id="clip9_1281_125686">
<path d="M231 133C231 131.895 231.895 131 233 131H307C308.105 131 309 131.895 309 133V155C309 156.105 308.105 157 307 157H233C231.895 157 231 156.105 231 155V133Z" fill="var(--sol-surface)"/>
</clipPath>
<clipPath id="clip10_1281_125686">
<rect width="78" height="26" fill="var(--sol-surface)" transform="translate(309 131)"/>
</clipPath>
<clipPath id="clip11_1281_125686">
<rect width="78" height="26" fill="var(--sol-surface)" transform="translate(387 131)"/>
</clipPath>
<clipPath id="clip12_1281_125686">
<path d="M528 132C528 129.791 529.791 128 532 128H764C766.209 128 768 129.791 768 132V156C768 158.209 766.209 160 764 160H532C529.791 160 528 158.209 528 156V132Z" fill="var(--sol-surface)"/>
</clipPath>
<clipPath id="clip13_1281_125686">
<path d="M528 132C528 129.791 529.791 128 532 128H608V160H532C529.791 160 528 158.209 528 156V132Z" fill="var(--sol-surface)"/>
</clipPath>
<clipPath id="clip14_1281_125686">
<path d="M608 132C608 129.791 609.791 128 612 128H684C686.209 128 688 129.791 688 132V156C688 158.209 686.209 160 684 160H612C609.791 160 608 158.209 608 156V132Z" fill="var(--sol-surface)"/>
</clipPath>
<clipPath id="clip15_1281_125686">
<path d="M688 128H764C766.209 128 768 129.791 768 132V156C768 158.209 766.209 160 764 160H688V128Z" fill="var(--sol-surface)"/>
</clipPath>
<clipPath id="clip16_1281_125686">
<path d="M228 212C228 209.791 229.791 208 232 208H464C466.209 208 468 209.791 468 212V236C468 238.209 466.209 240 464 240H232C229.791 240 228 238.209 228 236V212Z" fill="var(--sol-surface)"/>
</clipPath>
<clipPath id="clip17_1281_125686">
<path d="M231 213C231 211.895 231.895 211 233 211H307C308.105 211 309 211.895 309 213V235C309 236.105 308.105 237 307 237H233C231.895 237 231 236.105 231 235V213Z" fill="var(--sol-surface)"/>
</clipPath>
<clipPath id="clip18_1281_125686">
<rect width="78" height="26" fill="var(--sol-surface)" transform="translate(309 211)"/>
</clipPath>
<clipPath id="clip19_1281_125686">
<rect width="78" height="26" fill="var(--sol-surface)" transform="translate(387 211)"/>
</clipPath>
<clipPath id="clip20_1281_125686">
<path d="M528 212C528 209.791 529.791 208 532 208H764C766.209 208 768 209.791 768 212V236C768 238.209 766.209 240 764 240H532C529.791 240 528 238.209 528 236V212Z" fill="var(--sol-surface)"/>
</clipPath>
<clipPath id="clip21_1281_125686">
<path d="M528 212C528 209.791 529.791 208 532 208H608V240H532C529.791 240 528 238.209 528 236V212Z" fill="var(--sol-surface)"/>
</clipPath>
<clipPath id="clip22_1281_125686">
<path d="M608 212C608 209.791 609.791 208 612 208H684C686.209 208 688 209.791 688 212V236C688 238.209 686.209 240 684 240H612C609.791 240 608 238.209 608 236V212Z" fill="var(--sol-surface)"/>
</clipPath>
<clipPath id="clip23_1281_125686">
<path d="M688 208H764C766.209 208 768 209.791 768 212V236C768 238.209 766.209 240 764 240H688V208Z" fill="var(--sol-surface)"/>
</clipPath>
<clipPath id="clip24_1281_125686">
<path d="M228 292C228 289.791 229.791 288 232 288H464C466.209 288 468 289.791 468 292V316C468 318.209 466.209 320 464 320H232C229.791 320 228 318.209 228 316V292Z" fill="var(--sol-surface)"/>
</clipPath>
<clipPath id="clip25_1281_125686">
<rect width="78" height="26" fill="var(--sol-surface)" transform="translate(309 291)"/>
</clipPath>
<clipPath id="clip26_1281_125686">
<rect width="78" height="26" fill="var(--sol-surface)" transform="translate(387 291)"/>
</clipPath>
<clipPath id="clip27_1281_125686">
<path d="M528 292C528 289.791 529.791 288 532 288H764C766.209 288 768 289.791 768 292V316C768 318.209 766.209 320 764 320H532C529.791 320 528 318.209 528 316V292Z" fill="var(--sol-surface)"/>
</clipPath>
<clipPath id="clip28_1281_125686">
<path d="M608 292C608 289.791 609.791 288 612 288H684C686.209 288 688 289.791 688 292V316C688 318.209 686.209 320 684 320H612C609.791 320 608 318.209 608 316V292Z" fill="var(--sol-surface)"/>
</clipPath>
<clipPath id="clip29_1281_125686">
<path d="M688 288H764C766.209 288 768 289.791 768 292V316C768 318.209 766.209 320 764 320H688V288Z" fill="var(--sol-surface)"/>
</clipPath>
</defs>
</svg>
