<svg width="442" height="228" viewBox="0 0 442 228" fill="none" xmlns="http://www.w3.org/2000/svg">
<style>
:root {
  --sol-element-primary: #161616;
  --sol-element-tertiary: #636363;
  --sol-element-quaternary: #858585;
  --sol-element-brand-variant: #3a3480;
  --sol-fill-active: #4d469a;
  --sol-surface: #ffffff;
  --sol-error-dim: #b84451;
  --sol-static-white: #ffffff;
  --sol-static-black: #000000;
}
@media (prefers-color-scheme: dark) {
  :root {
    --sol-element-primary: #ffffff;
    --sol-element-tertiary: rgba(255, 255, 255, 0.60);
    --sol-element-quaternary: rgba(255, 255, 255, 0.50);
    --sol-element-brand-variant: #ffffff;
    --sol-fill-active: #7b74c4;
    --sol-surface: #161616;
    --sol-error-dim: #e76067;
  }
}
</style>

<g clip-path="url(#clip0_1670_180069)">
<g filter="url(#filter0_dd_1670_180069)">
<rect width="370" height="228" transform="translate(36)" fill="var(--sol-surface)"/>
<g clip-path="url(#clip1_1670_180069)">
<path d="M79.5742 31.1016H80.8047V37.6504C80.8047 39.6875 79.2871 41.1777 76.9492 41.1777C74.6113 41.1777 73.0938 39.6875 73.0938 37.6504V31.1016H74.3242V37.5547C74.3242 38.9902 75.3223 40.0293 76.9492 40.0293C78.5898 40.0293 79.5742 38.9902 79.5742 37.5547V31.1016ZM86.9707 35.5039C86.8066 34.8887 86.3418 34.4785 85.4668 34.4785C84.5508 34.4785 83.8945 34.9707 83.8945 35.5996C83.8945 36.0918 84.291 36.4336 85.166 36.6387L86.2734 36.9121C87.5996 37.2266 88.2559 37.8828 88.2559 38.9219C88.2559 40.207 87.2031 41.1504 85.3438 41.1504C83.6758 41.1504 82.6777 40.4121 82.4863 39.0586H83.7168C83.8535 39.7832 84.3867 40.125 85.3164 40.125C86.3691 40.125 87.0391 39.6875 87.0391 38.9902C87.0391 38.4707 86.6699 38.1152 85.8223 37.9238L84.7012 37.6641C83.4023 37.3633 82.7188 36.6523 82.7188 35.668C82.7188 34.3965 83.8262 33.4805 85.4668 33.4805C86.998 33.4805 87.9688 34.3008 88.1191 35.5039H86.9707ZM92.9043 41.1504C90.7578 41.1504 89.4316 39.6328 89.4316 37.3496C89.4316 35.0664 90.7715 33.4805 92.7949 33.4805C94.3535 33.4805 95.9941 34.4375 95.9941 37.1855V37.6777H90.6074C90.6621 39.25 91.5781 40.1113 92.9043 40.1113C93.793 40.1113 94.3535 39.7285 94.627 39.2637H95.8848C95.5293 40.3848 94.4355 41.1504 92.9043 41.1504ZM90.6211 36.6797H94.8047C94.8047 35.4355 94.0117 34.5195 92.7949 34.5195C91.5098 34.5195 90.6895 35.5312 90.6211 36.6797ZM97.5254 41V33.5762H98.6602V34.7109H98.7422C99.0156 33.959 99.7812 33.4531 100.656 33.4531C100.834 33.4531 101.135 33.4668 101.271 33.4805V34.6699C101.189 34.6426 100.861 34.5879 100.561 34.5879C99.4941 34.5879 98.7012 35.3262 98.7012 36.3242V41H97.5254ZM105.934 41V33.5762H107.068V34.7383H107.164C107.479 33.9453 108.189 33.4805 109.16 33.4805C110.131 33.4805 110.787 33.9453 111.143 34.7383H111.225C111.607 33.9727 112.387 33.4805 113.453 33.4805C114.779 33.4805 115.723 34.2871 115.723 36.0371V41H114.547V36.0508C114.547 34.957 113.85 34.5332 113.043 34.5332C112.004 34.5332 111.416 35.2305 111.416 36.1738V41H110.227V35.9277C110.227 35.0938 109.625 34.5332 108.777 34.5332C107.889 34.5332 107.109 35.2852 107.109 36.3652V41H105.934ZM117.254 38.8945C117.254 37.1855 118.758 36.8027 120.043 36.707C120.515 36.6729 121.718 36.6113 122.053 36.5977V35.9961C122.053 35.0527 121.492 34.5059 120.371 34.5059C119.428 34.5059 118.867 34.9434 118.703 35.5039H117.473C117.623 34.3145 118.785 33.4805 120.426 33.4805C121.396 33.4805 123.215 33.7676 123.215 36.1055V41H122.053V39.9883H121.998C121.752 40.4941 121.068 41.1777 119.783 41.1777C118.375 41.1777 117.254 40.3438 117.254 38.8945ZM118.43 38.9492C118.43 39.7285 119.086 40.125 119.988 40.125C121.314 40.125 122.053 39.2363 122.053 38.3066V37.5547L120.18 37.6914C119.113 37.7598 118.43 38.1426 118.43 38.9492ZM126.277 36.543V41H125.102V33.5762H126.236V34.7383H126.332C126.688 33.9863 127.371 33.4805 128.506 33.4805C130.01 33.4805 131.008 34.3965 131.008 36.2832V41H129.832V36.3652C129.832 35.2168 129.203 34.5332 128.15 34.5332C127.07 34.5332 126.277 35.2578 126.277 36.543ZM132.539 38.8945C132.539 37.1855 134.043 36.8027 135.328 36.707C135.8 36.6729 137.003 36.6113 137.338 36.5977V35.9961C137.338 35.0527 136.777 34.5059 135.656 34.5059C134.713 34.5059 134.152 34.9434 133.988 35.5039H132.758C132.908 34.3145 134.07 33.4805 135.711 33.4805C136.682 33.4805 138.5 33.7676 138.5 36.1055V41H137.338V39.9883H137.283C137.037 40.4941 136.354 41.1777 135.068 41.1777C133.66 41.1777 132.539 40.3438 132.539 38.8945ZM133.715 38.9492C133.715 39.7285 134.371 40.125 135.273 40.125C136.6 40.125 137.338 39.2363 137.338 38.3066V37.5547L135.465 37.6914C134.398 37.7598 133.715 38.1426 133.715 38.9492ZM143.395 43.9395C141.604 43.9395 140.387 43.1602 140.25 41.7793H141.48C141.645 42.5312 142.342 42.9141 143.395 42.9141C144.666 42.9141 145.445 42.3672 145.445 41.1367V39.6328H145.35C145.104 40.043 144.625 40.8906 143.189 40.8906C141.385 40.8906 140.031 39.5234 140.031 37.1855C140.031 34.9023 141.344 33.4805 143.203 33.4805C144.639 33.4805 145.104 34.3555 145.377 34.752H145.473V33.5762H146.621V41.2051C146.621 43.1191 145.199 43.9395 143.395 43.9395ZM143.354 39.8379C144.707 39.8379 145.473 38.8672 145.473 37.2266C145.473 35.6406 144.734 34.5332 143.354 34.5332C141.932 34.5332 141.221 35.7363 141.221 37.2266C141.221 38.7715 141.945 39.8379 143.354 39.8379ZM151.611 41.1504C149.465 41.1504 148.139 39.6328 148.139 37.3496C148.139 35.0664 149.479 33.4805 151.502 33.4805C153.061 33.4805 154.701 34.4375 154.701 37.1855V37.6777H149.314C149.369 39.25 150.285 40.1113 151.611 40.1113C152.5 40.1113 153.061 39.7285 153.334 39.2637H154.592C154.236 40.3848 153.143 41.1504 151.611 41.1504ZM149.328 36.6797H153.512C153.512 35.4355 152.719 34.5195 151.502 34.5195C150.217 34.5195 149.396 35.5312 149.328 36.6797ZM156.232 41V33.5762H157.367V34.7383H157.463C157.777 33.9453 158.488 33.4805 159.459 33.4805C160.43 33.4805 161.086 33.9453 161.441 34.7383H161.523C161.906 33.9727 162.686 33.4805 163.752 33.4805C165.078 33.4805 166.021 34.2871 166.021 36.0371V41H164.846V36.0508C164.846 34.957 164.148 34.5332 163.342 34.5332C162.303 34.5332 161.715 35.2305 161.715 36.1738V41H160.525V35.9277C160.525 35.0938 159.924 34.5332 159.076 34.5332C158.188 34.5332 157.408 35.2852 157.408 36.3652V41H156.232ZM171.025 41.1504C168.879 41.1504 167.553 39.6328 167.553 37.3496C167.553 35.0664 168.893 33.4805 170.916 33.4805C172.475 33.4805 174.115 34.4375 174.115 37.1855V37.6777H168.729C168.783 39.25 169.699 40.1113 171.025 40.1113C171.914 40.1113 172.475 39.7285 172.748 39.2637H174.006C173.65 40.3848 172.557 41.1504 171.025 41.1504ZM168.742 36.6797H172.926C172.926 35.4355 172.133 34.5195 170.916 34.5195C169.631 34.5195 168.811 35.5312 168.742 36.6797ZM176.822 36.543V41H175.646V33.5762H176.781V34.7383H176.877C177.232 33.9863 177.916 33.4805 179.051 33.4805C180.555 33.4805 181.553 34.3965 181.553 36.2832V41H180.377V36.3652C180.377 35.2168 179.748 34.5332 178.695 34.5332C177.615 34.5332 176.822 35.2578 176.822 36.543ZM186.68 33.5762V34.5605H185.121V38.8672C185.121 39.8242 185.586 39.9746 186.092 39.9746C186.311 39.9746 186.611 39.9609 186.789 39.9473V41.041C186.611 41.0684 186.311 41.0957 185.969 41.0957C184.984 41.0957 183.932 40.4805 183.932 39.168V34.5605H182.811V33.5762H183.932V31.7988H185.121V33.5762H186.68Z" fill="var(--sol-element-primary)"/>
<g clip-path="url(#clip2_1670_180069)">
<rect x="340" y="26" width="30" height="20" rx="10" fill="var(--sol-fill-active)"/>
<circle cx="360" cy="36" r="7" fill="var(--sol-surface)"/>
</g>
<path d="M73.5312 81H72.2461L75.8691 71.1016H77.168L80.791 81H79.4922L78.5078 78.2109H74.5293L73.5312 81ZM74.8984 77.1309H78.125L76.5527 72.7012H76.4707L74.8984 77.1309ZM86.6699 77.9512V73.5762H87.832V81H86.6699V79.7422H86.5879C86.2324 80.4941 85.5078 81.0957 84.3867 81.0957C82.9785 81.0957 81.9805 80.1797 81.9805 78.293V73.5762H83.1562V78.2109C83.1562 79.2773 83.8262 79.9609 84.7695 79.9609C85.6035 79.9609 86.6699 79.332 86.6699 77.9512ZM92.959 73.5762V74.5605H91.4004V78.8672C91.4004 79.8242 91.8652 79.9746 92.3711 79.9746C92.5898 79.9746 92.8906 79.9609 93.0684 79.9473V81.041C92.8906 81.0684 92.5898 81.0957 92.248 81.0957C91.2637 81.0957 90.2109 80.4805 90.2109 79.168V74.5605H89.0898V73.5762H90.2109V71.7988H91.4004V73.5762H92.959ZM97.4434 81.1504C95.4199 81.1504 94.0527 79.6328 94.0527 77.3223C94.0527 75.0117 95.4199 73.4805 97.4434 73.4805C99.4531 73.4805 100.807 75.0117 100.807 77.3223C100.807 79.6328 99.4531 81.1504 97.4434 81.1504ZM97.4434 80.1113C98.9336 80.1113 99.6309 78.7988 99.6309 77.3223C99.6309 75.8457 98.9336 74.5195 97.4434 74.5195C95.9258 74.5195 95.2285 75.8457 95.2285 77.3223C95.2285 78.7988 95.9258 80.1113 97.4434 80.1113ZM106.016 81V71.1016H107.191V74.752H107.287C107.547 74.3555 107.984 73.4805 109.434 73.4805C111.293 73.4805 112.605 74.957 112.605 77.3086C112.605 79.6602 111.293 81.1504 109.447 81.1504C108.025 81.1504 107.547 80.2754 107.287 79.8652H107.15V81H106.016ZM107.164 77.2812C107.164 78.9492 107.916 80.0977 109.27 80.0977C110.678 80.0977 111.416 78.8672 111.416 77.2812C111.416 75.7363 110.705 74.5332 109.27 74.5332C107.902 74.5332 107.164 75.6406 107.164 77.2812ZM113.781 78.8945C113.781 77.1855 115.285 76.8027 116.57 76.707C117.042 76.6729 118.245 76.6113 118.58 76.5977V75.9961C118.58 75.0527 118.02 74.5059 116.898 74.5059C115.955 74.5059 115.395 74.9434 115.23 75.5039H114C114.15 74.3145 115.312 73.4805 116.953 73.4805C117.924 73.4805 119.742 73.7676 119.742 76.1055V81H118.58V79.9883H118.525C118.279 80.4941 117.596 81.1777 116.311 81.1777C114.902 81.1777 113.781 80.3438 113.781 78.8945ZM114.957 78.9492C114.957 79.7285 115.613 80.125 116.516 80.125C117.842 80.125 118.58 79.2363 118.58 78.3066V77.5547L116.707 77.6914C115.641 77.7598 114.957 78.1426 114.957 78.9492ZM124.664 81.1504C122.559 81.1504 121.273 79.5508 121.273 77.3223C121.273 75.0664 122.613 73.4805 124.637 73.4805C126.223 73.4805 127.398 74.4102 127.59 75.8184H126.414C126.25 75.1348 125.648 74.5195 124.664 74.5195C123.338 74.5195 122.449 75.6133 122.449 77.2812C122.449 79.0039 123.311 80.0977 124.664 80.0977C125.539 80.0977 126.209 79.6328 126.414 78.8125H127.59C127.398 80.1387 126.318 81.1504 124.664 81.1504ZM129.039 81V71.1016H130.215V76.8574H130.352L133.564 73.5762H135.014L131.883 76.748L135.246 81H133.756L131.008 77.5L130.215 78.2246V81H129.039ZM140.961 77.9512V73.5762H142.123V81H140.961V79.7422H140.879C140.523 80.4941 139.799 81.0957 138.678 81.0957C137.27 81.0957 136.271 80.1797 136.271 78.293V73.5762H137.447V78.2109C137.447 79.2773 138.117 79.9609 139.061 79.9609C139.895 79.9609 140.961 79.332 140.961 77.9512ZM144.01 83.7891V73.5762H145.145V74.752H145.281C145.527 74.3555 145.992 73.4805 147.428 73.4805C149.287 73.4805 150.586 74.957 150.586 77.3086C150.586 79.6602 149.287 81.1504 147.441 81.1504C146.02 81.1504 145.527 80.2754 145.281 79.8652H145.186V83.7891H144.01ZM145.158 77.2812C145.158 78.9492 145.91 80.0977 147.277 80.0977C148.686 80.0977 149.41 78.8672 149.41 77.2812C149.41 75.7363 148.699 74.5332 147.277 74.5332C145.883 74.5332 145.158 75.6406 145.158 77.2812Z" fill="var(--sol-element-primary)"/>
<g clip-path="url(#clip3_1670_180069)">
<rect x="340" y="66" width="30" height="20" rx="10" fill="var(--sol-fill-active)"/>
<circle cx="360" cy="76" r="7" fill="var(--sol-surface)"/>
</g>
<path d="M73.0938 121V111.102H76.457C78.7812 111.102 79.834 112.482 79.834 114.246C79.834 115.996 78.7812 117.404 76.4707 117.404H74.3242V121H73.0938ZM74.3242 116.311H76.416C77.9883 116.311 78.6172 115.422 78.6172 114.246C78.6172 113.057 77.9883 112.195 76.4023 112.195H74.3242V116.311ZM81.4062 121V113.576H82.541V114.711H82.623C82.8965 113.959 83.6621 113.453 84.5371 113.453C84.7148 113.453 85.0156 113.467 85.1523 113.48V114.67C85.0703 114.643 84.7422 114.588 84.4414 114.588C83.375 114.588 82.582 115.326 82.582 116.324V121H81.4062ZM86.3008 121V113.576H87.4766V121H86.3008ZM86.8887 112.346C86.4375 112.346 86.0684 112.004 86.0684 111.566C86.0684 111.129 86.4375 110.787 86.8887 110.787C87.3398 110.787 87.7227 111.129 87.7227 111.566C87.7227 112.004 87.3398 112.346 86.8887 112.346ZM95.4609 113.576L92.7129 121H91.4961L88.7617 113.576H90.0469L92.0703 119.469H92.1523L94.1758 113.576H95.4609ZM96.1719 118.895C96.1719 117.186 97.6758 116.803 98.9609 116.707C99.4326 116.673 100.636 116.611 100.971 116.598V115.996C100.971 115.053 100.41 114.506 99.2891 114.506C98.3457 114.506 97.7852 114.943 97.6211 115.504H96.3906C96.541 114.314 97.7031 113.48 99.3438 113.48C100.314 113.48 102.133 113.768 102.133 116.105V121H100.971V119.988H100.916C100.67 120.494 99.9863 121.178 98.7012 121.178C97.293 121.178 96.1719 120.344 96.1719 118.895ZM97.3477 118.949C97.3477 119.729 98.0039 120.125 98.9062 120.125C100.232 120.125 100.971 119.236 100.971 118.307V117.555L99.0977 117.691C98.0312 117.76 97.3477 118.143 97.3477 118.949ZM107.26 113.576V114.561H105.701V118.867C105.701 119.824 106.166 119.975 106.672 119.975C106.891 119.975 107.191 119.961 107.369 119.947V121.041C107.191 121.068 106.891 121.096 106.549 121.096C105.564 121.096 104.512 120.48 104.512 119.168V114.561H103.391V113.576H104.512V111.799H105.701V113.576H107.26ZM111.826 121.15C109.68 121.15 108.354 119.633 108.354 117.35C108.354 115.066 109.693 113.48 111.717 113.48C113.275 113.48 114.916 114.438 114.916 117.186V117.678H109.529C109.584 119.25 110.5 120.111 111.826 120.111C112.715 120.111 113.275 119.729 113.549 119.264H114.807C114.451 120.385 113.357 121.15 111.826 121.15ZM109.543 116.68H113.727C113.727 115.436 112.934 114.52 111.717 114.52C110.432 114.52 109.611 115.531 109.543 116.68ZM119.961 121V113.576H121.096V114.738H121.191C121.506 113.945 122.217 113.48 123.188 113.48C124.158 113.48 124.814 113.945 125.17 114.738H125.252C125.635 113.973 126.414 113.48 127.48 113.48C128.807 113.48 129.75 114.287 129.75 116.037V121H128.574V116.051C128.574 114.957 127.877 114.533 127.07 114.533C126.031 114.533 125.443 115.23 125.443 116.174V121H124.254V115.928C124.254 115.094 123.652 114.533 122.805 114.533C121.916 114.533 121.137 115.285 121.137 116.365V121H119.961ZM134.672 121.15C132.648 121.15 131.281 119.633 131.281 117.322C131.281 115.012 132.648 113.48 134.672 113.48C136.682 113.48 138.035 115.012 138.035 117.322C138.035 119.633 136.682 121.15 134.672 121.15ZM134.672 120.111C136.162 120.111 136.859 118.799 136.859 117.322C136.859 115.846 136.162 114.52 134.672 114.52C133.154 114.52 132.457 115.846 132.457 117.322C132.457 118.799 133.154 120.111 134.672 120.111ZM142.383 121.15C140.537 121.15 139.225 119.66 139.225 117.309C139.225 114.957 140.537 113.48 142.396 113.48C143.832 113.48 144.297 114.355 144.543 114.752H144.625V111.102H145.814V121H144.666V119.865H144.543C144.283 120.275 143.805 121.15 142.383 121.15ZM142.547 120.098C143.9 120.098 144.666 118.949 144.666 117.281C144.666 115.641 143.928 114.533 142.547 114.533C141.125 114.533 140.414 115.736 140.414 117.281C140.414 118.867 141.139 120.098 142.547 120.098ZM150.969 121.15C148.822 121.15 147.496 119.633 147.496 117.35C147.496 115.066 148.836 113.48 150.859 113.48C152.418 113.48 154.059 114.438 154.059 117.186V117.678H148.672C148.727 119.25 149.643 120.111 150.969 120.111C151.857 120.111 152.418 119.729 152.691 119.264H153.949C153.594 120.385 152.5 121.15 150.969 121.15ZM148.686 116.68H152.869C152.869 115.436 152.076 114.52 150.859 114.52C149.574 114.52 148.754 115.531 148.686 116.68Z" fill="var(--sol-element-primary)"/>
<g clip-path="url(#clip4_1670_180069)">
<rect x="340" y="106" width="30" height="20" rx="10" fill="var(--sol-fill-active)"/>
<circle cx="360" cy="116" r="7" fill="var(--sol-surface)"/>
</g>
</g>
</g>
</g>
<defs>
<filter id="filter0_dd_1670_180069" x="28" y="-4" width="386" height="244" filterUnits="userSpaceOnUse" color-interpolation-filters="sRGB">
<feFlood flood-opacity="0" result="BackgroundImageFix"/>
<feColorMatrix in="SourceAlpha" type="matrix" values="0 0 0 0 0 0 0 0 0 0 0 0 0 0 0 0 0 0 127 0" result="hardAlpha"/>
<feOffset dy="4"/>
<feGaussianBlur stdDeviation="4"/>
<feComposite in2="hardAlpha" operator="out"/>
<feColorMatrix type="matrix" values="0 0 0 0 0 0 0 0 0 0 0 0 0 0 0 0 0 0 0.08 0"/>
<feBlend mode="normal" in2="BackgroundImageFix" result="effect1_dropShadow_1670_180069"/>
<feColorMatrix in="SourceAlpha" type="matrix" values="0 0 0 0 0 0 0 0 0 0 0 0 0 0 0 0 0 0 127 0" result="hardAlpha"/>
<feOffset/>
<feGaussianBlur stdDeviation="0.5"/>
<feComposite in2="hardAlpha" operator="out"/>
<feColorMatrix type="matrix" values="0 0 0 0 0 0 0 0 0 0 0 0 0 0 0 0 0 0 0.08 0"/>
<feBlend mode="normal" in2="effect1_dropShadow_1670_180069" result="effect2_dropShadow_1670_180069"/>
<feBlend mode="normal" in="SourceGraphic" in2="effect2_dropShadow_1670_180069" result="shape"/>
</filter>
<clipPath id="clip0_1670_180069">
<path d="M0 8C0 3.58172 3.58172 0 8 0H434C438.418 0 442 3.58172 442 8V220C442 224.418 438.418 228 434 228H8C3.58172 228 0 224.418 0 220V8Z" fill="var(--sol-surface)"/>
</clipPath>
<clipPath id="clip1_1670_180069">
<rect width="298" height="112" fill="var(--sol-surface)" transform="translate(72 20)"/>
</clipPath>
<clipPath id="clip2_1670_180069">
<rect x="340" y="26" width="30" height="20" rx="10" fill="var(--sol-surface)"/>
</clipPath>
<clipPath id="clip3_1670_180069">
<rect x="340" y="66" width="30" height="20" rx="10" fill="var(--sol-surface)"/>
</clipPath>
<clipPath id="clip4_1670_180069">
<rect x="340" y="106" width="30" height="20" rx="10" fill="var(--sol-surface)"/>
</clipPath>
</defs>
</svg>
