<svg width="442" height="130" viewBox="0 0 442 130" fill="none" xmlns="http://www.w3.org/2000/svg">
<style>
:root {
  --sol-element-primary: #161616;
  --sol-element-tertiary: #636363;
  --sol-element-quaternary: #858585;
  --sol-element-brand-variant: #3a3480;
  --sol-fill-active: #4d469a;
  --sol-surface: #ffffff;
  --sol-error-dim: #b84451;
  --sol-static-white: #ffffff;
  --sol-static-black: #000000;
}
@media (prefers-color-scheme: dark) {
  :root {
    --sol-element-primary: #ffffff;
    --sol-element-tertiary: rgba(255, 255, 255, 0.60);
    --sol-element-quaternary: rgba(255, 255, 255, 0.50);
    --sol-element-brand-variant: #ffffff;
    --sol-fill-active: #7b74c4;
    --sol-surface: #161616;
    --sol-error-dim: #e76067;
  }
}
</style>

<g clip-path="url(#clip0_1670_180168)">
<g clip-path="url(#clip1_1670_180168)">
<rect x="159" y="49" width="52" height="32" rx="16" fill="var(--sol-fill-active)"/>
<rect x="182" y="52" width="26" height="26" rx="13" fill="var(--sol-surface)"/>
<path d="M200.744 65.1162L200.692 65.6136L200.647 65.9476C200.387 67.5547 199.471 69.0404 198.014 69.9587L197.862 70.0511C195.301 71.5585 192.07 70.8183 190.371 68.43L190.239 68.9352L190.112 69.4183L189.164 69.1592L189.667 67.249L189.646 67.2119L189.683 67.1905L189.742 66.9626L189.757 66.9138C189.846 66.6769 190.097 66.5421 190.343 66.6091L192.498 67.1976L192.244 68.1638L191.191 67.8753C192.605 69.8269 195.261 70.427 197.372 69.1852L197.621 69.0283C198.837 68.2086 199.571 66.9 199.716 65.5075L199.768 65.0108L200.744 65.1162ZM192.399 59.8057C194.916 58.4933 197.988 59.2625 199.63 61.5707L199.763 61.0655L199.89 60.5824L200.838 60.8415L200.711 61.3246L200.335 62.7523L200.356 62.7888L200.32 62.8096L200.26 63.0381C200.226 63.1662 200.144 63.2758 200.031 63.3421C199.919 63.4083 199.785 63.4258 199.66 63.3916L197.504 62.8031L197.758 61.8369L198.81 62.124C197.443 60.239 194.917 59.6155 192.845 60.6963L192.631 60.8155C191.266 61.6184 190.441 63.008 190.286 64.4932L190.233 64.9899L189.258 64.8845L189.31 64.3871L189.354 64.0531C189.624 62.3907 190.595 60.8585 192.14 59.9496L192.399 59.8057Z" fill="var(--sol-element-brand-variant)"/>
</g>
<g clip-path="url(#clip2_1670_180168)">
<rect x="231" y="49" width="52" height="32" rx="16" fill="var(--sol-element-primary)" fill-opacity="0.24"/>
<rect x="234" y="52" width="26" height="26" rx="13" fill="var(--sol-surface)"/>
<path d="M252.227 70.1663V71.1663H241.398V70.1663H252.227ZM250.098 59.0804C250.531 58.7268 251.171 58.7523 251.576 59.1566L252.706 60.2874C253.138 60.7188 253.138 61.418 252.706 61.8493L246.748 67.8076C246.539 68.0164 246.281 68.1671 245.997 68.2458L245.875 68.2751L243.752 68.6995C243.588 68.7323 243.418 68.681 243.3 68.5628C243.182 68.4446 243.131 68.2749 243.163 68.111L243.588 65.988L243.617 65.8656C243.696 65.5824 243.847 65.3237 244.055 65.1149L250.014 59.1566L250.098 59.0804ZM244.762 65.8219C244.688 65.8962 244.632 65.9856 244.596 66.0837L244.568 66.1839L244.29 67.5713L245.679 67.2939L245.779 67.2666C245.877 67.2314 245.967 67.1748 246.041 67.1006L250.584 62.5576L249.305 61.279L244.762 65.8219ZM250.868 59.8636C250.828 59.8228 250.762 59.8228 250.721 59.8636L250.012 60.5719L251.291 61.8506L251.999 61.1423C252.04 61.1015 252.04 61.0353 251.999 60.9945L250.868 59.8636Z" fill="var(--sol-element-primary)" fill-opacity="0.24"/>
</g>
</g>
<defs>
<clipPath id="clip0_1670_180168">
<path d="M0 8C0 3.58172 3.58172 0 8 0H434C438.418 0 442 3.58172 442 8V122C442 126.418 438.418 130 434 130H8C3.58172 130 0 126.418 0 122V8Z" fill="var(--sol-surface)"/>
</clipPath>
<clipPath id="clip1_1670_180168">
<rect x="159" y="49" width="52" height="32" rx="16" fill="var(--sol-surface)"/>
</clipPath>
<clipPath id="clip2_1670_180168">
<rect x="231" y="49" width="52" height="32" rx="16" fill="var(--sol-surface)"/>
</clipPath>
</defs>
</svg>
