<svg width="442" height="130" viewBox="0 0 442 130" fill="none" xmlns="http://www.w3.org/2000/svg">
<style>
:root {
  --sol-element-primary: #161616;
  --sol-element-tertiary: #636363;
  --sol-element-quaternary: #858585;
  --sol-element-brand-variant: #3a3480;
  --sol-fill-active: #4d469a;
  --sol-surface: #ffffff;
  --sol-error-dim: #b84451;
  --sol-static-white: #ffffff;
  --sol-static-black: #000000;
}
@media (prefers-color-scheme: dark) {
  :root {
    --sol-element-primary: #ffffff;
    --sol-element-tertiary: rgba(255, 255, 255, 0.60);
    --sol-element-quaternary: rgba(255, 255, 255, 0.50);
    --sol-element-brand-variant: #ffffff;
    --sol-fill-active: #7b74c4;
    --sol-surface: #161616;
    --sol-error-dim: #e76067;
  }
}
</style>

<g clip-path="url(#clip0_1670_180147)">
<path d="M153.848 63.1914C153.424 61.9199 152.453 61.1133 151.045 61.1133C149.295 61.1133 147.9 62.4941 147.9 65.0508C147.9 67.6074 149.295 68.9883 151.127 68.9883C152.802 68.9883 153.943 67.8672 153.971 66.1172H151.387V65.0371H155.174V66.1035C155.174 68.5645 153.479 70.1367 151.127 70.1367C148.488 70.1367 146.711 68.1816 146.711 65.0508C146.711 61.9199 148.502 59.9648 151.045 59.9648C153.137 59.9648 154.75 61.2773 155.119 63.1914H153.848ZM156.514 67.8945C156.514 66.1855 158.018 65.8027 159.303 65.707C159.774 65.6729 160.978 65.6113 161.312 65.5977V64.9961C161.312 64.0527 160.752 63.5059 159.631 63.5059C158.688 63.5059 158.127 63.9434 157.963 64.5039H156.732C156.883 63.3145 158.045 62.4805 159.686 62.4805C160.656 62.4805 162.475 62.7676 162.475 65.1055V70H161.312V68.9883H161.258C161.012 69.4941 160.328 70.1777 159.043 70.1777C157.635 70.1777 156.514 69.3438 156.514 67.8945ZM157.689 67.9492C157.689 68.7285 158.346 69.125 159.248 69.125C160.574 69.125 161.312 68.2363 161.312 67.3066V66.5547L159.439 66.6914C158.373 66.7598 157.689 67.1426 157.689 67.9492ZM167.602 62.5762V63.5605H166.043V67.8672C166.043 68.8242 166.508 68.9746 167.014 68.9746C167.232 68.9746 167.533 68.9609 167.711 68.9473V70.041C167.533 70.0684 167.232 70.0957 166.891 70.0957C165.906 70.0957 164.854 69.4805 164.854 68.168V63.5605H163.732V62.5762H164.854V60.7988H166.043V62.5762H167.602ZM172.168 70.1504C170.021 70.1504 168.695 68.6328 168.695 66.3496C168.695 64.0664 170.035 62.4805 172.059 62.4805C173.617 62.4805 175.258 63.4375 175.258 66.1855V66.6777H169.871C169.926 68.25 170.842 69.1113 172.168 69.1113C173.057 69.1113 173.617 68.7285 173.891 68.2637H175.148C174.793 69.3848 173.699 70.1504 172.168 70.1504ZM169.885 65.6797H174.068C174.068 64.4355 173.275 63.5195 172.059 63.5195C170.773 63.5195 169.953 64.5312 169.885 65.6797ZM178.457 70L176.201 62.5762H177.445L179.031 68.2363H179.1L180.672 62.5762H181.93L183.475 68.209H183.557L185.143 62.5762H186.373L184.117 70H182.955L181.342 64.3398H181.232L179.633 70H178.457ZM187.316 67.8945C187.316 66.1855 188.82 65.8027 190.105 65.707C190.577 65.6729 191.78 65.6113 192.115 65.5977V64.9961C192.115 64.0527 191.555 63.5059 190.434 63.5059C189.49 63.5059 188.93 63.9434 188.766 64.5039H187.535C187.686 63.3145 188.848 62.4805 190.488 62.4805C191.459 62.4805 193.277 62.7676 193.277 65.1055V70H192.115V68.9883H192.061C191.814 69.4941 191.131 70.1777 189.846 70.1777C188.438 70.1777 187.316 69.3438 187.316 67.8945ZM188.492 67.9492C188.492 68.7285 189.148 69.125 190.051 69.125C191.377 69.125 192.115 68.2363 192.115 67.3066V66.5547L190.242 66.6914C189.176 66.7598 188.492 67.1426 188.492 67.9492ZM195.643 72.7891C195.383 72.7891 195.137 72.7754 194.986 72.7617V71.709C195.109 71.7227 195.383 71.7363 195.561 71.7363C196.039 71.7363 196.436 71.6953 196.832 70.6152L197.051 70.0547L194.303 62.5762H195.588L197.611 68.4688H197.693L199.717 62.5762H201.002L197.857 71.0664C197.42 72.2285 196.695 72.7891 195.643 72.7891Z" fill="var(--sol-element-primary)"/>
<g clip-path="url(#clip1_1670_180147)">
<rect x="266" y="55" width="30" height="20" rx="10" fill="var(--sol-fill-active)"/>
<circle cx="286" cy="65" r="7" fill="var(--sol-surface)"/>
</g>
<path d="M274.138 64.4068V67.0205H273.086V62.5575H274.089V63.3137H274.146C274.352 62.8123 274.804 62.5 275.469 62.5C276.398 62.5 277.006 63.1082 276.998 64.1767V67.0205H275.954V64.3411C275.954 63.7411 275.634 63.3877 275.083 63.3877C274.524 63.3877 274.138 63.7575 274.138 64.4068Z" fill="var(--sol-surface)"/>
<path d="M270.137 67.1109C268.838 67.1109 268 66.1904 268 64.8096C268 63.4205 268.838 62.5 270.137 62.5C271.444 62.5 272.274 63.4205 272.274 64.8096C272.274 66.1904 271.444 67.1109 270.137 67.1109ZM270.145 66.2726C270.86 66.2726 271.214 65.6233 271.214 64.8013C271.214 63.9877 270.86 63.3301 270.145 63.3301C269.414 63.3301 269.06 63.9877 269.06 64.8013C269.06 65.6233 269.414 66.2726 270.145 66.2726Z" fill="var(--sol-surface)"/>
</g>
<defs>
<clipPath id="clip0_1670_180147">
<path d="M0 8C0 3.58172 3.58172 0 8 0H434C438.418 0 442 3.58172 442 8V122C442 126.418 438.418 130 434 130H8C3.58172 130 0 126.418 0 122V8Z" fill="var(--sol-surface)"/>
</clipPath>
<clipPath id="clip1_1670_180147">
<rect x="266" y="55" width="30" height="20" rx="10" fill="var(--sol-surface)"/>
</clipPath>
</defs>
</svg>
