<svg width="442" height="130" viewBox="0 0 442 130" fill="none" xmlns="http://www.w3.org/2000/svg">
<style>
:root {
  --sol-element-primary: #161616;
  --sol-element-tertiary: #636363;
  --sol-element-quaternary: #858585;
  --sol-element-brand-variant: #3a3480;
  --sol-fill-active: #4d469a;
  --sol-surface: #ffffff;
  --sol-error-dim: #b84451;
  --sol-static-white: #ffffff;
  --sol-static-black: #000000;
}
@media (prefers-color-scheme: dark) {
  :root {
    --sol-element-primary: #ffffff;
    --sol-element-tertiary: rgba(255, 255, 255, 0.60);
    --sol-element-quaternary: rgba(255, 255, 255, 0.50);
    --sol-element-brand-variant: #ffffff;
    --sol-fill-active: #7b74c4;
    --sol-surface: #161616;
    --sol-error-dim: #e76067;
  }
}
</style>

<g clip-path="url(#clip0_1670_180112)">
<path d="M79.8477 43.1914C79.4238 41.9199 78.4531 41.1133 77.0449 41.1133C75.2949 41.1133 73.9004 42.4941 73.9004 45.0508C73.9004 47.6074 75.2949 48.9883 77.127 48.9883C78.8018 48.9883 79.9434 47.8672 79.9707 46.1172H77.3867V45.0371H81.1738V46.1035C81.1738 48.5645 79.4785 50.1367 77.127 50.1367C74.4883 50.1367 72.7109 48.1816 72.7109 45.0508C72.7109 41.9199 74.502 39.9648 77.0449 39.9648C79.1367 39.9648 80.75 41.2773 81.1191 43.1914H79.8477ZM82.5137 47.8945C82.5137 46.1855 84.0176 45.8027 85.3027 45.707C85.7744 45.6729 86.9775 45.6113 87.3125 45.5977V44.9961C87.3125 44.0527 86.752 43.5059 85.6309 43.5059C84.6875 43.5059 84.127 43.9434 83.9629 44.5039H82.7324C82.8828 43.3145 84.0449 42.4805 85.6855 42.4805C86.6562 42.4805 88.4746 42.7676 88.4746 45.1055V50H87.3125V48.9883H87.2578C87.0117 49.4941 86.3281 50.1777 85.043 50.1777C83.6348 50.1777 82.5137 49.3438 82.5137 47.8945ZM83.6895 47.9492C83.6895 48.7285 84.3457 49.125 85.248 49.125C86.5742 49.125 87.3125 48.2363 87.3125 47.3066V46.5547L85.4395 46.6914C84.373 46.7598 83.6895 47.1426 83.6895 47.9492ZM93.6016 42.5762V43.5605H92.043V47.8672C92.043 48.8242 92.5078 48.9746 93.0137 48.9746C93.2324 48.9746 93.5332 48.9609 93.7109 48.9473V50.041C93.5332 50.0684 93.2324 50.0957 92.8906 50.0957C91.9062 50.0957 90.8535 49.4805 90.8535 48.168V43.5605H89.7324V42.5762H90.8535V40.7988H92.043V42.5762H93.6016ZM98.168 50.1504C96.0215 50.1504 94.6953 48.6328 94.6953 46.3496C94.6953 44.0664 96.0352 42.4805 98.0586 42.4805C99.6172 42.4805 101.258 43.4375 101.258 46.1855V46.6777H95.8711C95.9258 48.25 96.8418 49.1113 98.168 49.1113C99.0566 49.1113 99.6172 48.7285 99.8906 48.2637H101.148C100.793 49.3848 99.6992 50.1504 98.168 50.1504ZM95.8848 45.6797H100.068C100.068 44.4355 99.2754 43.5195 98.0586 43.5195C96.7734 43.5195 95.9531 44.5312 95.8848 45.6797ZM104.457 50L102.201 42.5762H103.445L105.031 48.2363H105.1L106.672 42.5762H107.93L109.475 48.209H109.557L111.143 42.5762H112.373L110.117 50H108.955L107.342 44.3398H107.232L105.633 50H104.457ZM113.316 47.8945C113.316 46.1855 114.82 45.8027 116.105 45.707C116.577 45.6729 117.78 45.6113 118.115 45.5977V44.9961C118.115 44.0527 117.555 43.5059 116.434 43.5059C115.49 43.5059 114.93 43.9434 114.766 44.5039H113.535C113.686 43.3145 114.848 42.4805 116.488 42.4805C117.459 42.4805 119.277 42.7676 119.277 45.1055V50H118.115V48.9883H118.061C117.814 49.4941 117.131 50.1777 115.846 50.1777C114.438 50.1777 113.316 49.3438 113.316 47.8945ZM114.492 47.9492C114.492 48.7285 115.148 49.125 116.051 49.125C117.377 49.125 118.115 48.2363 118.115 47.3066V46.5547L116.242 46.6914C115.176 46.7598 114.492 47.1426 114.492 47.9492ZM121.643 52.7891C121.383 52.7891 121.137 52.7754 120.986 52.7617V51.709C121.109 51.7227 121.383 51.7363 121.561 51.7363C122.039 51.7363 122.436 51.6953 122.832 50.6152L123.051 50.0547L120.303 42.5762H121.588L123.611 48.4688H123.693L125.717 42.5762H127.002L123.857 51.0664C123.42 52.2285 122.695 52.7891 121.643 52.7891Z" fill="var(--sol-element-primary)"/>
<g clip-path="url(#clip1_1670_180112)">
<rect x="340" y="35" width="30" height="20" rx="10" fill="var(--sol-fill-active)"/>
<circle cx="360" cy="45" r="7" fill="var(--sol-surface)"/>
</g>
<path d="M73.0938 90V80.1016H76.5664C78.6445 80.1016 79.6152 81.2637 79.6152 82.7266C79.6152 83.998 78.8633 84.5723 78.002 84.8047V84.9004C78.918 84.9551 80.0117 85.8027 80.0117 87.375C80.0117 88.8652 79.0273 90 76.6895 90H73.0938ZM76.6758 88.9062C78.2207 88.9062 78.8223 88.2227 78.8223 87.3613C78.8223 86.3496 78.0156 85.502 76.7441 85.502H74.3242V88.9062H76.6758ZM76.5254 84.4355C77.5918 84.4355 78.4395 83.7793 78.4395 82.7402C78.4395 81.8789 77.8652 81.1953 76.5664 81.1953H74.3242V84.4355H76.5254ZM81.7617 90V80.1016H82.9922V88.9062H87.5859V90H81.7617ZM89.2266 90V80.1016H95.2285V81.1953H90.457V84.5039H94.9141V85.584H90.457V88.9062H95.2969V90H89.2266Z" fill="var(--sol-element-primary)"/>
<g clip-path="url(#clip2_1670_180112)">
<rect x="340" y="75" width="30" height="20" rx="10" fill="var(--sol-fill-active)"/>
<circle cx="360" cy="85" r="7" fill="var(--sol-surface)"/>
</g>
</g>
<defs>
<clipPath id="clip0_1670_180112">
<rect width="298" height="72" fill="var(--sol-surface)" transform="translate(72 29)"/>
</clipPath>
<clipPath id="clip1_1670_180112">
<rect x="340" y="35" width="30" height="20" rx="10" fill="var(--sol-surface)"/>
</clipPath>
<clipPath id="clip2_1670_180112">
<rect x="340" y="75" width="30" height="20" rx="10" fill="var(--sol-surface)"/>
</clipPath>
</defs>
</svg>
