<svg width="442" height="212" viewBox="0 0 442 212" fill="none" xmlns="http://www.w3.org/2000/svg">
<style>
:root {
  --sol-element-primary: #161616;
  --sol-element-tertiary: #636363;
  --sol-element-quaternary: #858585;
  --sol-element-brand-variant: #3a3480;
  --sol-fill-active: #4d469a;
  --sol-surface: #ffffff;
  --sol-error-dim: #b84451;
  --sol-static-white: #ffffff;
  --sol-static-black: #000000;
}
@media (prefers-color-scheme: dark) {
  :root {
    --sol-element-primary: #ffffff;
    --sol-element-tertiary: rgba(255, 255, 255, 0.60);
    --sol-element-quaternary: rgba(255, 255, 255, 0.50);
    --sol-element-brand-variant: #ffffff;
    --sol-fill-active: #7b74c4;
    --sol-surface: #161616;
    --sol-error-dim: #e76067;
  }
}
</style>

<rect width="370" height="212" transform="translate(36)" fill="var(--sol-surface)"/>
<path d="M73.0938 51V41.1016H76.457C78.7812 41.1016 79.834 42.4824 79.834 44.2461C79.834 45.9961 78.7812 47.4043 76.4707 47.4043H74.3242V51H73.0938ZM74.3242 46.3105H76.416C77.9883 46.3105 78.6172 45.4219 78.6172 44.2461C78.6172 43.0566 77.9883 42.1953 76.4023 42.1953H74.3242V46.3105ZM82.582 41.1016V51H81.4062V41.1016H82.582ZM84.0996 48.8945C84.0996 47.1855 85.6035 46.8027 86.8887 46.707C87.3604 46.6729 88.5635 46.6113 88.8984 46.5977V45.9961C88.8984 45.0527 88.3379 44.5059 87.2168 44.5059C86.2734 44.5059 85.7129 44.9434 85.5488 45.5039H84.3184C84.4688 44.3145 85.6309 43.4805 87.2715 43.4805C88.2422 43.4805 90.0605 43.7676 90.0605 46.1055V51H88.8984V49.9883H88.8438C88.5977 50.4941 87.9141 51.1777 86.6289 51.1777C85.2207 51.1777 84.0996 50.3438 84.0996 48.8945ZM85.2754 48.9492C85.2754 49.7285 85.9316 50.125 86.834 50.125C88.1602 50.125 88.8984 49.2363 88.8984 48.3066V47.5547L87.0254 47.6914C85.959 47.7598 85.2754 48.1426 85.2754 48.9492ZM93.123 46.543V51H91.9473V43.5762H93.082V44.7383H93.1777C93.5332 43.9863 94.2168 43.4805 95.3516 43.4805C96.8555 43.4805 97.8535 44.3965 97.8535 46.2832V51H96.6777V46.3652C96.6777 45.2168 96.0488 44.5332 94.9961 44.5332C93.916 44.5332 93.123 45.2578 93.123 46.543ZM106.494 43.5762V44.5605H104.936V48.8672C104.936 49.8242 105.4 49.9746 105.906 49.9746C106.125 49.9746 106.426 49.9609 106.604 49.9473V51.041C106.426 51.0684 106.125 51.0957 105.783 51.0957C104.799 51.0957 103.746 50.4805 103.746 49.168V44.5605H102.625V43.5762H103.746V41.7988H104.936V43.5762H106.494ZM108.764 53.7891C108.504 53.7891 108.258 53.7754 108.107 53.7617V52.709C108.23 52.7227 108.504 52.7363 108.682 52.7363C109.16 52.7363 109.557 52.6953 109.953 51.6152L110.172 51.0547L107.424 43.5762H108.709L110.732 49.4688H110.814L112.838 43.5762H114.123L110.979 52.0664C110.541 53.2285 109.816 53.7891 108.764 53.7891ZM115.422 53.7891V43.5762H116.557V44.752H116.693C116.939 44.3555 117.404 43.4805 118.84 43.4805C120.699 43.4805 121.998 44.957 121.998 47.3086C121.998 49.6602 120.699 51.1504 118.854 51.1504C117.432 51.1504 116.939 50.2754 116.693 49.8652H116.598V53.7891H115.422ZM116.57 47.2812C116.57 48.9492 117.322 50.0977 118.689 50.0977C120.098 50.0977 120.822 48.8672 120.822 47.2812C120.822 45.7363 120.111 44.5332 118.689 44.5332C117.295 44.5332 116.57 45.6406 116.57 47.2812ZM126.646 51.1504C124.5 51.1504 123.174 49.6328 123.174 47.3496C123.174 45.0664 124.514 43.4805 126.537 43.4805C128.096 43.4805 129.736 44.4375 129.736 47.1855V47.6777H124.35C124.404 49.25 125.32 50.1113 126.646 50.1113C127.535 50.1113 128.096 49.7285 128.369 49.2637H129.627C129.271 50.3848 128.178 51.1504 126.646 51.1504ZM124.363 46.6797H128.547C128.547 45.4355 127.754 44.5195 126.537 44.5195C125.252 44.5195 124.432 45.5312 124.363 46.6797Z" fill="var(--sol-element-tertiary)"/>
<g clip-path="url(#clip0_1670_180082)">
<path d="M73.0938 85V75.1016H76.5664C78.6445 75.1016 79.6152 76.2637 79.6152 77.7266C79.6152 78.998 78.8633 79.5723 78.002 79.8047V79.9004C78.918 79.9551 80.0117 80.8027 80.0117 82.375C80.0117 83.8652 79.0273 85 76.6895 85H73.0938ZM76.6758 83.9062C78.2207 83.9062 78.8223 83.2227 78.8223 82.3613C78.8223 81.3496 78.0156 80.502 76.7441 80.502H74.3242V83.9062H76.6758ZM76.5254 79.4355C77.5918 79.4355 78.4395 78.7793 78.4395 77.7402C78.4395 76.8789 77.8652 76.1953 76.5664 76.1953H74.3242V79.4355H76.5254ZM81.2559 82.8945C81.2559 81.1855 82.7598 80.8027 84.0449 80.707C84.5166 80.6729 85.7197 80.6113 86.0547 80.5977V79.9961C86.0547 79.0527 85.4941 78.5059 84.373 78.5059C83.4297 78.5059 82.8691 78.9434 82.7051 79.5039H81.4746C81.625 78.3145 82.7871 77.4805 84.4277 77.4805C85.3984 77.4805 87.2168 77.7676 87.2168 80.1055V85H86.0547V83.9883H86C85.7539 84.4941 85.0703 85.1777 83.7852 85.1777C82.377 85.1777 81.2559 84.3438 81.2559 82.8945ZM82.4316 82.9492C82.4316 83.7285 83.0879 84.125 83.9902 84.125C85.3164 84.125 86.0547 83.2363 86.0547 82.3066V81.5547L84.1816 81.6914C83.1152 81.7598 82.4316 82.1426 82.4316 82.9492ZM93.2324 79.5039C93.0684 78.8887 92.6035 78.4785 91.7285 78.4785C90.8125 78.4785 90.1562 78.9707 90.1562 79.5996C90.1562 80.0918 90.5527 80.4336 91.4277 80.6387L92.5352 80.9121C93.8613 81.2266 94.5176 81.8828 94.5176 82.9219C94.5176 84.207 93.4648 85.1504 91.6055 85.1504C89.9375 85.1504 88.9395 84.4121 88.748 83.0586H89.9785C90.1152 83.7832 90.6484 84.125 91.5781 84.125C92.6309 84.125 93.3008 83.6875 93.3008 82.9902C93.3008 82.4707 92.9316 82.1152 92.084 81.9238L90.9629 81.6641C89.6641 81.3633 88.9805 80.6523 88.9805 79.668C88.9805 78.3965 90.0879 77.4805 91.7285 77.4805C93.2598 77.4805 94.2305 78.3008 94.3809 79.5039H93.2324ZM96.0488 85V77.5762H97.2246V85H96.0488ZM96.6367 76.3457C96.1855 76.3457 95.8164 76.0039 95.8164 75.5664C95.8164 75.1289 96.1855 74.7871 96.6367 74.7871C97.0879 74.7871 97.4707 75.1289 97.4707 75.5664C97.4707 76.0039 97.0879 76.3457 96.6367 76.3457ZM102.133 85.1504C100.027 85.1504 98.7422 83.5508 98.7422 81.3223C98.7422 79.0664 100.082 77.4805 102.105 77.4805C103.691 77.4805 104.867 78.4102 105.059 79.8184H103.883C103.719 79.1348 103.117 78.5195 102.133 78.5195C100.807 78.5195 99.918 79.6133 99.918 81.2812C99.918 83.0039 100.779 84.0977 102.133 84.0977C103.008 84.0977 103.678 83.6328 103.883 82.8125H105.059C104.867 84.1387 103.787 85.1504 102.133 85.1504Z" fill="var(--sol-element-primary)"/>
<g clip-path="url(#clip1_1670_180082)">
<rect x="340" y="70" width="30" height="20" rx="10" fill="var(--sol-fill-active)"/>
<circle cx="360" cy="80" r="7" fill="var(--sol-surface)"/>
</g>
<path d="M73.0938 125V115.102H76.457C78.7812 115.102 79.834 116.482 79.834 118.246C79.834 119.996 78.7812 121.404 76.4707 121.404H74.3242V125H73.0938ZM74.3242 120.311H76.416C77.9883 120.311 78.6172 119.422 78.6172 118.246C78.6172 117.057 77.9883 116.195 76.4023 116.195H74.3242V120.311ZM81.4062 125V117.576H82.541V118.711H82.623C82.8965 117.959 83.6621 117.453 84.5371 117.453C84.7148 117.453 85.0156 117.467 85.1523 117.48V118.67C85.0703 118.643 84.7422 118.588 84.4414 118.588C83.375 118.588 82.582 119.326 82.582 120.324V125H81.4062ZM89.1035 125.15C87.0801 125.15 85.7129 123.633 85.7129 121.322C85.7129 119.012 87.0801 117.48 89.1035 117.48C91.1133 117.48 92.4668 119.012 92.4668 121.322C92.4668 123.633 91.1133 125.15 89.1035 125.15ZM89.1035 124.111C90.5938 124.111 91.291 122.799 91.291 121.322C91.291 119.846 90.5938 118.52 89.1035 118.52C87.5859 118.52 86.8887 119.846 86.8887 121.322C86.8887 122.799 87.5859 124.111 89.1035 124.111Z" fill="var(--sol-element-primary)"/>
<g clip-path="url(#clip2_1670_180082)">
<rect x="340" y="110" width="30" height="20" rx="10" fill="var(--sol-fill-active)"/>
<circle cx="360" cy="120" r="7" fill="var(--sol-surface)"/>
</g>
<path d="M73.0938 165V155.102H79.0957V156.195H74.3242V159.504H78.7812V160.584H74.3242V163.906H79.1641V165H73.0938ZM82.0625 160.543V165H80.8867V157.576H82.0215V158.738H82.1172C82.4727 157.986 83.1562 157.48 84.291 157.48C85.7949 157.48 86.793 158.396 86.793 160.283V165H85.6172V160.365C85.6172 159.217 84.9883 158.533 83.9355 158.533C82.8555 158.533 82.0625 159.258 82.0625 160.543ZM91.9199 157.576V158.561H90.3613V162.867C90.3613 163.824 90.8262 163.975 91.332 163.975C91.5508 163.975 91.8516 163.961 92.0293 163.947V165.041C91.8516 165.068 91.5508 165.096 91.209 165.096C90.2246 165.096 89.1719 164.48 89.1719 163.168V158.561H88.0508V157.576H89.1719V155.799H90.3613V157.576H91.9199ZM96.4863 165.15C94.3398 165.15 93.0137 163.633 93.0137 161.35C93.0137 159.066 94.3535 157.48 96.377 157.48C97.9355 157.48 99.5762 158.438 99.5762 161.186V161.678H94.1895C94.2441 163.25 95.1602 164.111 96.4863 164.111C97.375 164.111 97.9355 163.729 98.209 163.264H99.4668C99.1113 164.385 98.0176 165.15 96.4863 165.15ZM94.2031 160.68H98.3867C98.3867 159.436 97.5938 158.52 96.377 158.52C95.0918 158.52 94.2715 159.531 94.2031 160.68ZM101.107 165V157.576H102.242V158.711H102.324C102.598 157.959 103.363 157.453 104.238 157.453C104.416 157.453 104.717 157.467 104.854 157.48V158.67C104.771 158.643 104.443 158.588 104.143 158.588C103.076 158.588 102.283 159.326 102.283 160.324V165H101.107ZM106.002 167.789V157.576H107.137V158.752H107.273C107.52 158.355 107.984 157.48 109.42 157.48C111.279 157.48 112.578 158.957 112.578 161.309C112.578 163.66 111.279 165.15 109.434 165.15C108.012 165.15 107.52 164.275 107.273 163.865H107.178V167.789H106.002ZM107.15 161.281C107.15 162.949 107.902 164.098 109.27 164.098C110.678 164.098 111.402 162.867 111.402 161.281C111.402 159.736 110.691 158.533 109.27 158.533C107.875 158.533 107.15 159.641 107.15 161.281ZM114.109 165V157.576H115.244V158.711H115.326C115.6 157.959 116.365 157.453 117.24 157.453C117.418 157.453 117.719 157.467 117.855 157.48V158.67C117.773 158.643 117.445 158.588 117.145 158.588C116.078 158.588 115.285 159.326 115.285 160.324V165H114.109ZM119.004 165V157.576H120.18V165H119.004ZM119.592 156.346C119.141 156.346 118.771 156.004 118.771 155.566C118.771 155.129 119.141 154.787 119.592 154.787C120.043 154.787 120.426 155.129 120.426 155.566C120.426 156.004 120.043 156.346 119.592 156.346ZM126.182 159.504C126.018 158.889 125.553 158.479 124.678 158.479C123.762 158.479 123.105 158.971 123.105 159.6C123.105 160.092 123.502 160.434 124.377 160.639L125.484 160.912C126.811 161.227 127.467 161.883 127.467 162.922C127.467 164.207 126.414 165.15 124.555 165.15C122.887 165.15 121.889 164.412 121.697 163.059H122.928C123.064 163.783 123.598 164.125 124.527 164.125C125.58 164.125 126.25 163.688 126.25 162.99C126.25 162.471 125.881 162.115 125.033 161.924L123.912 161.664C122.613 161.363 121.93 160.652 121.93 159.668C121.93 158.396 123.037 157.48 124.678 157.48C126.209 157.48 127.18 158.301 127.33 159.504H126.182ZM132.115 165.15C129.969 165.15 128.643 163.633 128.643 161.35C128.643 159.066 129.982 157.48 132.006 157.48C133.564 157.48 135.205 158.438 135.205 161.186V161.678H129.818C129.873 163.25 130.789 164.111 132.115 164.111C133.004 164.111 133.564 163.729 133.838 163.264H135.096C134.74 164.385 133.646 165.15 132.115 165.15ZM129.832 160.68H134.016C134.016 159.436 133.223 158.52 132.006 158.52C130.721 158.52 129.9 159.531 129.832 160.68Z" fill="var(--sol-element-primary)"/>
<g clip-path="url(#clip3_1670_180082)">
<rect x="340" y="150" width="30" height="20" rx="10" fill="var(--sol-fill-active)"/>
<circle cx="360" cy="160" r="7" fill="var(--sol-surface)"/>
</g>
</g>
<defs>
<clipPath id="clip0_1670_180082">
<rect width="298" height="112" fill="var(--sol-surface)" transform="translate(72 64)"/>
</clipPath>
<clipPath id="clip1_1670_180082">
<rect x="340" y="70" width="30" height="20" rx="10" fill="var(--sol-surface)"/>
</clipPath>
<clipPath id="clip2_1670_180082">
<rect x="340" y="110" width="30" height="20" rx="10" fill="var(--sol-surface)"/>
</clipPath>
<clipPath id="clip3_1670_180082">
<rect x="340" y="150" width="30" height="20" rx="10" fill="var(--sol-surface)"/>
</clipPath>
</defs>
</svg>
