<svg width="900" height="144" viewBox="0 0 900 144" fill="none" xmlns="http://www.w3.org/2000/svg">
<style>
:root {
  --sol-element-primary: #161616;
  --sol-element-tertiary: #636363;
  --sol-element-quaternary: #858585;
  --sol-element-brand-variant: #3a3480;
  --sol-fill-active: #4d469a;
  --sol-surface: #ffffff;
  --sol-error-dim: #b84451;
  --sol-static-white: #ffffff;
  --sol-static-black: #000000;
}
@media (prefers-color-scheme: dark) {
  :root {
    --sol-element-primary: #ffffff;
    --sol-element-tertiary: rgba(255, 255, 255, 0.60);
    --sol-element-quaternary: rgba(255, 255, 255, 0.50);
    --sol-element-brand-variant: #ffffff;
    --sol-fill-active: #7b74c4;
    --sol-surface: #161616;
    --sol-error-dim: #e76067;
  }
}
</style>

<path d="M407.461 64.0508C407.461 67.1816 405.615 69.1367 403.086 69.1367C400.543 69.1367 398.711 67.1816 398.711 64.0508C398.711 60.9199 400.543 58.9648 403.086 58.9648C405.615 58.9648 407.461 60.9199 407.461 64.0508ZM406.271 64.0508C406.271 61.4941 404.877 60.1133 403.086 60.1133C401.295 60.1133 399.9 61.4941 399.9 64.0508C399.9 66.6074 401.295 67.9883 403.086 67.9883C404.877 67.9883 406.271 66.6074 406.271 64.0508ZM409.115 71.7891V61.5762H410.25V62.752H410.387C410.633 62.3555 411.098 61.4805 412.533 61.4805C414.393 61.4805 415.691 62.957 415.691 65.3086C415.691 67.6602 414.393 69.1504 412.547 69.1504C411.125 69.1504 410.633 68.2754 410.387 67.8652H410.291V71.7891H409.115ZM410.264 65.2812C410.264 66.9492 411.016 68.0977 412.383 68.0977C413.791 68.0977 414.516 66.8672 414.516 65.2812C414.516 63.7363 413.805 62.5332 412.383 62.5332C410.988 62.5332 410.264 63.6406 410.264 65.2812ZM420.463 61.5762V62.5605H418.904V66.8672C418.904 67.8242 419.369 67.9746 419.875 67.9746C420.094 67.9746 420.395 67.9609 420.572 67.9473V69.041C420.395 69.0684 420.094 69.0957 419.752 69.0957C418.768 69.0957 417.715 68.4805 417.715 67.168V62.5605H416.594V61.5762H417.715V59.7988H418.904V61.5762H420.463ZM421.98 69V61.5762H423.156V69H421.98ZM422.568 60.3457C422.117 60.3457 421.748 60.0039 421.748 59.5664C421.748 59.1289 422.117 58.7871 422.568 58.7871C423.02 58.7871 423.402 59.1289 423.402 59.5664C423.402 60.0039 423.02 60.3457 422.568 60.3457ZM428.064 69.1504C426.041 69.1504 424.674 67.6328 424.674 65.3223C424.674 63.0117 426.041 61.4805 428.064 61.4805C430.074 61.4805 431.428 63.0117 431.428 65.3223C431.428 67.6328 430.074 69.1504 428.064 69.1504ZM428.064 68.1113C429.555 68.1113 430.252 66.7988 430.252 65.3223C430.252 63.8457 429.555 62.5195 428.064 62.5195C426.547 62.5195 425.85 63.8457 425.85 65.3223C425.85 66.7988 426.547 68.1113 428.064 68.1113ZM434.148 64.543V69H432.973V61.5762H434.107V62.7383H434.203C434.559 61.9863 435.242 61.4805 436.377 61.4805C437.881 61.4805 438.879 62.3965 438.879 64.2832V69H437.703V64.3652C437.703 63.2168 437.074 62.5332 436.021 62.5332C434.941 62.5332 434.148 63.2578 434.148 64.543Z" fill="var(--sol-element-primary)"/>
<path d="M401.574 87H398.938V78.5156H401.68C404.152 78.5156 405.617 80.1094 405.617 82.7461C405.617 85.3945 404.152 87 401.574 87ZM399.992 86.0625H401.504C403.59 86.0625 404.586 84.8086 404.586 82.7461C404.586 80.6953 403.59 79.4531 401.609 79.4531H399.992V86.0625ZM409.707 87.1289C407.867 87.1289 406.73 85.8281 406.73 83.8711C406.73 81.9141 407.879 80.5547 409.613 80.5547C410.949 80.5547 412.355 81.375 412.355 83.7305V84.1523H407.738C407.785 85.5 408.57 86.2383 409.707 86.2383C410.469 86.2383 410.949 85.9102 411.184 85.5117H412.262C411.957 86.4727 411.02 87.1289 409.707 87.1289ZM407.75 83.2969H411.336C411.336 82.2305 410.656 81.4453 409.613 81.4453C408.512 81.4453 407.809 82.3125 407.75 83.2969ZM417.207 82.2891C417.066 81.7617 416.668 81.4102 415.918 81.4102C415.133 81.4102 414.57 81.832 414.57 82.3711C414.57 82.793 414.91 83.0859 415.66 83.2617L416.609 83.4961C417.746 83.7656 418.309 84.3281 418.309 85.2188C418.309 86.3203 417.406 87.1289 415.812 87.1289C414.383 87.1289 413.527 86.4961 413.363 85.3359H414.418C414.535 85.957 414.992 86.25 415.789 86.25C416.691 86.25 417.266 85.875 417.266 85.2773C417.266 84.832 416.949 84.5273 416.223 84.3633L415.262 84.1406C414.148 83.8828 413.562 83.2734 413.562 82.4297C413.562 81.3398 414.512 80.5547 415.918 80.5547C417.23 80.5547 418.062 81.2578 418.191 82.2891H417.207ZM422.223 87.1289C420.418 87.1289 419.316 85.7578 419.316 83.8477C419.316 81.9141 420.465 80.5547 422.199 80.5547C423.559 80.5547 424.566 81.3516 424.73 82.5586H423.723C423.582 81.9727 423.066 81.4453 422.223 81.4453C421.086 81.4453 420.324 82.3828 420.324 83.8125C420.324 85.2891 421.062 86.2266 422.223 86.2266C422.973 86.2266 423.547 85.8281 423.723 85.125H424.73C424.566 86.2617 423.641 87.1289 422.223 87.1289ZM425.973 87V80.6367H426.945V81.6094H427.016C427.25 80.9648 427.906 80.5312 428.656 80.5312C428.809 80.5312 429.066 80.543 429.184 80.5547V81.5742C429.113 81.5508 428.832 81.5039 428.574 81.5039C427.66 81.5039 426.98 82.1367 426.98 82.9922V87H425.973ZM430.168 87V80.6367H431.176V87H430.168ZM430.672 79.582C430.285 79.582 429.969 79.2891 429.969 78.9141C429.969 78.5391 430.285 78.2461 430.672 78.2461C431.059 78.2461 431.387 78.5391 431.387 78.9141C431.387 79.2891 431.059 79.582 430.672 79.582ZM432.781 89.3906V80.6367H433.754V81.6445H433.871C434.082 81.3047 434.48 80.5547 435.711 80.5547C437.305 80.5547 438.418 81.8203 438.418 83.8359C438.418 85.8516 437.305 87.1289 435.723 87.1289C434.504 87.1289 434.082 86.3789 433.871 86.0273H433.789V89.3906H432.781ZM433.766 83.8125C433.766 85.2422 434.41 86.2266 435.582 86.2266C436.789 86.2266 437.41 85.1719 437.41 83.8125C437.41 82.4883 436.801 81.457 435.582 81.457C434.387 81.457 433.766 82.4062 433.766 83.8125ZM442.508 80.6367V81.4805H441.172V85.1719C441.172 85.9922 441.57 86.1211 442.004 86.1211C442.191 86.1211 442.449 86.1094 442.602 86.0977V87.0352C442.449 87.0586 442.191 87.082 441.898 87.082C441.055 87.082 440.152 86.5547 440.152 85.4297V81.4805H439.191V80.6367H440.152V79.1133H441.172V80.6367H442.508ZM443.809 87V80.6367H444.816V87H443.809ZM444.312 79.582C443.926 79.582 443.609 79.2891 443.609 78.9141C443.609 78.5391 443.926 78.2461 444.312 78.2461C444.699 78.2461 445.027 78.5391 445.027 78.9141C445.027 79.2891 444.699 79.582 444.312 79.582ZM449.023 87.1289C447.289 87.1289 446.117 85.8281 446.117 83.8477C446.117 81.8672 447.289 80.5547 449.023 80.5547C450.746 80.5547 451.906 81.8672 451.906 83.8477C451.906 85.8281 450.746 87.1289 449.023 87.1289ZM449.023 86.2383C450.301 86.2383 450.898 85.1133 450.898 83.8477C450.898 82.582 450.301 81.4453 449.023 81.4453C447.723 81.4453 447.125 82.582 447.125 83.8477C447.125 85.1133 447.723 86.2383 449.023 86.2383ZM454.238 83.1797V87H453.23V80.6367H454.203V81.6328H454.285C454.59 80.9883 455.176 80.5547 456.148 80.5547C457.438 80.5547 458.293 81.3398 458.293 82.957V87H457.285V83.0273C457.285 82.043 456.746 81.457 455.844 81.457C454.918 81.457 454.238 82.0781 454.238 83.1797Z" fill="var(--sol-element-tertiary)"/>
<g clip-path="url(#clip0_1670_179530)">
<rect x="472" y="62" width="30" height="20" rx="10" fill="var(--sol-fill-active)"/>
<circle cx="492" cy="72" r="7" fill="var(--sol-surface)"/>
</g>
<path d="M491 72C491 71.7239 491.224 71.5 491.5 71.5H531V72.5H491.5C491.224 72.5 491 72.2761 491 72V72Z" fill="var(--sol-element-primary)"/>
<rect x="531" y="58" width="28" height="28" rx="14" fill="var(--sol-element-primary)"/>
<path d="M540.57 75.8906V74.2656L545.461 66.6875H547.992V74.2188H549.477V75.8906H547.992V78H546.055V75.8906H540.57ZM542.648 74.2188H546.086V69H545.961L542.648 74.1406V74.2188Z" fill="var(--sol-surface)"/>
<circle cx="493" cy="72" r="2" fill="var(--sol-element-primary)"/>
<rect x="465" y="26" width="28" height="28" rx="14" fill="var(--sol-element-primary)"/>
<path d="M478.992 46.1562C476.57 46.1562 474.852 44.8438 474.805 42.9375H476.852C476.914 43.8438 477.82 44.4375 478.992 44.4375C480.242 44.4375 481.133 43.75 481.133 42.75C481.133 41.7344 480.258 41 478.789 41H477.773V39.4375H478.789C479.992 39.4375 480.836 38.7656 480.82 37.7812C480.836 36.8281 480.117 36.1875 479.008 36.1875C477.945 36.1875 477.023 36.7812 476.992 37.7344H475.039C475.086 35.8281 476.805 34.5312 479.023 34.5312C481.32 34.5312 482.805 35.9375 482.789 37.6719C482.805 38.9375 481.961 39.8594 480.727 40.1094V40.2031C482.32 40.4219 483.227 41.4375 483.211 42.8594C483.227 44.7656 481.445 46.1562 478.992 46.1562Z" fill="var(--sol-surface)"/>
<path d="M478.5 54H479.5V72.5C479.5 72.7761 479.276 73 479 73V73C478.724 73 478.5 72.7761 478.5 72.5V54Z" fill="var(--sol-element-primary)"/>
<circle cx="479" cy="71" r="2" fill="var(--sol-element-primary)"/>
<rect x="302" y="48" width="28" height="28" rx="14" fill="var(--sol-element-primary)"/>
<path d="M317.859 56.6875V68H315.812V58.6719H315.75L313.109 60.3594V58.5L315.906 56.6875H317.859Z" fill="var(--sol-surface)"/>
<path d="M330 61.5H389.5C389.776 61.5 390 61.7239 390 62V62C390 62.2761 389.776 62.5 389.5 62.5H330V61.5Z" fill="var(--sol-element-primary)"/>
<circle cx="388" cy="62" r="2" fill="var(--sol-element-primary)"/>
<rect x="343" y="69" width="28" height="28" rx="14" fill="var(--sol-element-primary)"/>
<path d="M353.117 89V87.5312L357.117 83.6719C358.258 82.5312 358.852 81.8594 358.852 80.9062C358.852 79.8594 358.023 79.1875 356.914 79.1875C355.742 79.1875 354.992 79.9219 355.008 81.0625H353.07C353.055 78.9219 354.664 77.5312 356.93 77.5312C359.242 77.5312 360.805 78.9062 360.805 80.8125C360.805 82.0938 360.18 83.125 357.961 85.2188L355.945 87.2188V87.2969H360.977V89H353.117Z" fill="var(--sol-surface)"/>
<path d="M371 82.5H389.5C389.776 82.5 390 82.7239 390 83V83C390 83.2761 389.776 83.5 389.5 83.5H371V82.5Z" fill="var(--sol-element-primary)"/>
<circle cx="388" cy="83" r="2" fill="var(--sol-element-primary)"/>
<defs>
<clipPath id="clip0_1670_179530">
<rect x="472" y="62" width="30" height="20" rx="10" fill="var(--sol-surface)"/>
</clipPath>
</defs>
</svg>
