<svg width="900" height="368" viewBox="0 0 900 368" fill="none" xmlns="http://www.w3.org/2000/svg">
<style>
:root {
  --sol-element-primary: #161616;
  --sol-element-tertiary: #636363;
  --sol-element-quaternary: #858585;
  --sol-element-brand-variant: #3a3480;
  --sol-fill-active: #4d469a;
  --sol-surface: #ffffff;
  --sol-error-dim: #b84451;
  --sol-static-white: #ffffff;
  --sol-static-black: #000000;
}
@media (prefers-color-scheme: dark) {
  :root {
    --sol-element-primary: #ffffff;
    --sol-element-tertiary: rgba(255, 255, 255, 0.60);
    --sol-element-quaternary: rgba(255, 255, 255, 0.50);
    --sol-element-brand-variant: #ffffff;
    --sol-fill-active: #7b74c4;
    --sol-surface: #161616;
    --sol-error-dim: #e76067;
  }
}
</style>

<path d="M48.916 69V59.1016H55.3555V60.5918H50.6934V63.2988H55.0137V64.7891H50.6934V67.4961H55.3828V69H48.916ZM58.7324 64.6523V69H56.9824V61.5762H58.6504V62.834H58.7461C59.0879 62 59.8398 61.4805 60.9473 61.4805C62.4922 61.4805 63.5039 62.4922 63.4902 64.2695V69H61.7539V64.543C61.7539 63.5449 61.2207 62.957 60.3047 62.957C59.375 62.957 58.7324 63.5723 58.7324 64.6523ZM64.8164 66.9082C64.8164 65.2402 66.1973 64.748 67.5781 64.666C68.0908 64.6318 69.1572 64.5703 69.4785 64.5566V63.9688C69.4785 63.2305 69 62.8066 68.1387 62.8066C67.3594 62.8066 66.8809 63.1621 66.7441 63.6953H65.0625C65.1855 62.4375 66.3203 61.4805 68.1797 61.4805C69.5879 61.4805 71.2148 62.0547 71.2148 64.0371V69H69.5469V67.9746H69.4922C69.1641 68.6035 68.4668 69.1504 67.3047 69.1504C65.8828 69.1504 64.8164 68.3711 64.8164 66.9082ZM66.498 66.8945C66.498 67.5371 67.0176 67.8652 67.7559 67.8652C68.8086 67.8652 69.4922 67.168 69.4922 66.334V65.7188L67.8516 65.8281C67.0176 65.8965 66.498 66.2383 66.498 66.8945ZM72.9375 69V59.1016H74.6875V62.793H74.7559C75.0293 62.2598 75.5625 61.4805 76.875 61.4805C78.5977 61.4805 79.9512 62.8203 79.9512 65.2949C79.9512 67.7422 78.625 69.1367 76.8887 69.1367C75.6035 69.1367 75.0293 68.3711 74.7559 67.8242H74.6465V69H72.9375ZM74.6465 65.2812C74.6465 66.7305 75.2754 67.7012 76.3965 67.7012C77.5586 67.7012 78.1738 66.6895 78.1738 65.2812C78.1738 63.9004 77.5723 62.9023 76.3965 62.9023C75.2754 62.9023 74.6465 63.8457 74.6465 65.2812ZM83.0684 59.1016V69H81.3184V59.1016H83.0684ZM88.0312 69.1504C85.7891 69.1504 84.4219 67.6602 84.4219 65.3359C84.4219 63.0391 85.8164 61.4805 87.9355 61.4805C89.7539 61.4805 91.3262 62.6152 91.3262 65.2266V65.7734H86.1445C86.165 67.0381 86.9102 67.7832 88.0449 67.7832C88.8105 67.7832 89.3301 67.4551 89.5488 67.0176H91.2578C90.9434 68.3027 89.7539 69.1504 88.0312 69.1504ZM86.1582 64.584H89.6582C89.6445 63.5723 88.9746 62.834 87.9629 62.834C86.9102 62.834 86.2129 63.6338 86.1582 64.584ZM95.4414 69.1367C93.6914 69.1367 92.3789 67.7422 92.3789 65.2949C92.3789 62.8203 93.7324 61.4805 95.4551 61.4805C96.7676 61.4805 97.3145 62.2598 97.5742 62.793H97.6426V59.1016H99.3789V69H97.6699V67.8242H97.5742C97.3008 68.3711 96.7266 69.1367 95.4414 69.1367ZM95.9199 67.7012C97.041 67.7012 97.6836 66.7305 97.6836 65.2812C97.6836 63.8457 97.0547 62.9023 95.9199 62.9023C94.7578 62.9023 94.1562 63.9004 94.1562 65.2812C94.1562 66.6895 94.7715 67.7012 95.9199 67.7012Z" fill="var(--sol-element-quaternary)"/>
<g clip-path="url(#clip0_1670_179581)">
<rect x="228" y="48" width="52" height="32" rx="16" fill="var(--sol-element-primary)" fill-opacity="0.24"/>
<rect x="231" y="51" width="26" height="26" rx="13" fill="var(--sol-surface)"/>
</g>
<g clip-path="url(#clip1_1670_179581)">
<rect x="340" y="48" width="52" height="32" rx="16" fill="var(--sol-fill-active)"/>
<rect x="363" y="51" width="26" height="26" rx="13" fill="var(--sol-surface)"/>
<path d="M382.057 60.7207L374.658 68.1198C374.365 68.4126 373.891 68.4127 373.598 68.1198L369.945 64.4674L371.006 63.4069L374.128 66.5286L380.997 59.6602L382.057 60.7207Z" fill="var(--sol-element-brand-variant)"/>
</g>
<path d="M48.916 149V139.102H55.2598V140.592H50.6934V143.299H54.8223V144.789H50.6934V149H48.916ZM59.3887 149.15C57.2285 149.15 55.834 147.619 55.834 145.322C55.834 143.012 57.2285 141.48 59.3887 141.48C61.5625 141.48 62.9434 143.012 62.9434 145.322C62.9434 147.619 61.5625 149.15 59.3887 149.15ZM59.4023 147.756C60.5918 147.756 61.1797 146.676 61.1797 145.309C61.1797 143.955 60.5918 142.861 59.4023 142.861C58.1855 142.861 57.5977 143.955 57.5977 145.309C57.5977 146.676 58.1855 147.756 59.4023 147.756ZM67.5371 149.15C65.3223 149.15 63.9824 147.564 63.9824 145.322C63.9824 143.053 65.3633 141.48 67.5371 141.48C69.3418 141.48 70.5996 142.533 70.7227 144.133H69.0547C68.918 143.422 68.3984 142.875 67.5508 142.875C66.4707 142.875 65.7461 143.791 65.7461 145.281C65.7461 146.812 66.457 147.729 67.5508 147.729C68.3301 147.729 68.9043 147.277 69.0547 146.471H70.7227C70.5859 148.043 69.3965 149.15 67.5371 149.15ZM76.7793 145.883V141.576H78.5156V149H76.834V147.688H76.752C76.4102 148.508 75.6309 149.096 74.5234 149.096C73.0605 149.096 72.0488 148.084 72.0352 146.307V141.576H73.7852V146.033C73.7852 146.977 74.3457 147.578 75.1934 147.578C75.959 147.578 76.7793 147.018 76.7793 145.883ZM84.3945 143.695C84.2852 143.135 83.8203 142.779 83.082 142.779C82.3301 142.779 81.7832 143.148 81.7969 143.654C81.7832 144.037 82.0977 144.324 82.8496 144.502L84.1074 144.762C85.5156 145.076 86.1855 145.719 86.1992 146.785C86.1855 148.18 84.9688 149.15 83.0273 149.15C81.1406 149.15 80.0195 148.303 79.8418 146.881H81.6191C81.7285 147.51 82.2207 147.824 83.0273 147.824C83.8613 147.824 84.4219 147.482 84.4219 146.936C84.4219 146.512 84.0801 146.238 83.3418 146.074L82.1523 145.814C80.7715 145.541 80.0605 144.816 80.0605 143.75C80.0605 142.383 81.2363 141.48 83.0547 141.48C84.832 141.48 85.9258 142.342 86.0488 143.695H84.3945ZM90.8203 149.15C88.5781 149.15 87.2109 147.66 87.2109 145.336C87.2109 143.039 88.6055 141.48 90.7246 141.48C92.543 141.48 94.1152 142.615 94.1152 145.227V145.773H88.9336C88.9541 147.038 89.6992 147.783 90.834 147.783C91.5996 147.783 92.1191 147.455 92.3379 147.018H94.0469C93.7324 148.303 92.543 149.15 90.8203 149.15ZM88.9473 144.584H92.4473C92.4336 143.572 91.7637 142.834 90.752 142.834C89.6992 142.834 89.002 143.634 88.9473 144.584ZM98.2305 149.137C96.4805 149.137 95.168 147.742 95.168 145.295C95.168 142.82 96.5215 141.48 98.2441 141.48C99.5566 141.48 100.104 142.26 100.363 142.793H100.432V139.102H102.168V149H100.459V147.824H100.363C100.09 148.371 99.5156 149.137 98.2305 149.137ZM98.709 147.701C99.8301 147.701 100.473 146.73 100.473 145.281C100.473 143.846 99.8438 142.902 98.709 142.902C97.5469 142.902 96.9453 143.9 96.9453 145.281C96.9453 146.689 97.5605 147.701 98.709 147.701Z" fill="var(--sol-element-quaternary)"/>
<g filter="url(#filter0_dd_1670_179581)">
<g clip-path="url(#clip2_1670_179581)">
<rect x="228" y="128" width="52" height="32" rx="16" fill="var(--sol-element-primary)" fill-opacity="0.24" shape-rendering="crispEdges"/>
<rect x="231" y="131" width="26" height="26" rx="13" fill="var(--sol-surface)"/>
</g>
</g>
<g filter="url(#filter1_dd_1670_179581)">
<g clip-path="url(#clip3_1670_179581)">
<rect x="340" y="128" width="52" height="32" rx="16" fill="var(--sol-fill-active)"/>
<rect x="363" y="131" width="26" height="26" rx="13" fill="var(--sol-surface)"/>
<path d="M382.057 140.721L374.658 148.12C374.365 148.413 373.891 148.413 373.598 148.12L369.945 144.467L371.006 143.407L374.128 146.529L380.997 139.66L382.057 140.721Z" fill="var(--sol-element-brand-variant)"/>
</g>
</g>
<path d="M52.2793 229H48.916V219.102H52.334C55.2871 219.102 57.0781 220.961 57.0781 224.037C57.0781 227.127 55.2871 229 52.2793 229ZM50.6934 227.455H52.1836C54.248 227.455 55.3008 226.32 55.3008 224.037C55.3008 221.768 54.248 220.646 52.2383 220.646H50.6934V227.455ZM58.5684 229V221.576H60.3184V229H58.5684ZM59.457 220.523C58.9102 220.523 58.4453 220.1 58.4453 219.566C58.4453 219.047 58.9102 218.623 59.457 218.623C60.0176 218.623 60.4688 219.047 60.4688 219.566C60.4688 220.1 60.0176 220.523 59.457 220.523ZM66.1973 223.695C66.0879 223.135 65.623 222.779 64.8848 222.779C64.1328 222.779 63.5859 223.148 63.5996 223.654C63.5859 224.037 63.9004 224.324 64.6523 224.502L65.9102 224.762C67.3184 225.076 67.9883 225.719 68.002 226.785C67.9883 228.18 66.7715 229.15 64.8301 229.15C62.9434 229.15 61.8223 228.303 61.6445 226.881H63.4219C63.5312 227.51 64.0234 227.824 64.8301 227.824C65.6641 227.824 66.2246 227.482 66.2246 226.936C66.2246 226.512 65.8828 226.238 65.1445 226.074L63.9551 225.814C62.5742 225.541 61.8633 224.816 61.8633 223.75C61.8633 222.383 63.0391 221.48 64.8574 221.48C66.6348 221.48 67.7285 222.342 67.8516 223.695H66.1973ZM68.9863 226.908C68.9863 225.24 70.3672 224.748 71.748 224.666C72.2607 224.632 73.3271 224.57 73.6484 224.557V223.969C73.6484 223.23 73.1699 222.807 72.3086 222.807C71.5293 222.807 71.0508 223.162 70.9141 223.695H69.2324C69.3555 222.438 70.4902 221.48 72.3496 221.48C73.7578 221.48 75.3848 222.055 75.3848 224.037V229H73.7168V227.975H73.6621C73.334 228.604 72.6367 229.15 71.4746 229.15C70.0527 229.15 68.9863 228.371 68.9863 226.908ZM70.668 226.895C70.668 227.537 71.1875 227.865 71.9258 227.865C72.9785 227.865 73.6621 227.168 73.6621 226.334V225.719L72.0215 225.828C71.1875 225.896 70.668 226.238 70.668 226.895ZM77.1074 229V219.102H78.8574V222.793H78.9258C79.1992 222.26 79.7324 221.48 81.0449 221.48C82.7676 221.48 84.1211 222.82 84.1211 225.295C84.1211 227.742 82.7949 229.137 81.0586 229.137C79.7734 229.137 79.1992 228.371 78.9258 227.824H78.8164V229H77.1074ZM78.8164 225.281C78.8164 226.73 79.4453 227.701 80.5664 227.701C81.7285 227.701 82.3438 226.689 82.3438 225.281C82.3438 223.9 81.7422 222.902 80.5664 222.902C79.4453 222.902 78.8164 223.846 78.8164 225.281ZM87.2383 219.102V229H85.4883V219.102H87.2383ZM92.2012 229.15C89.959 229.15 88.5918 227.66 88.5918 225.336C88.5918 223.039 89.9863 221.48 92.1055 221.48C93.9238 221.48 95.4961 222.615 95.4961 225.227V225.773H90.3145C90.335 227.038 91.0801 227.783 92.2148 227.783C92.9805 227.783 93.5 227.455 93.7188 227.018H95.4277C95.1133 228.303 93.9238 229.15 92.2012 229.15ZM90.3281 224.584H93.8281C93.8145 223.572 93.1445 222.834 92.1328 222.834C91.0801 222.834 90.3828 223.634 90.3281 224.584ZM99.6113 229.137C97.8613 229.137 96.5488 227.742 96.5488 225.295C96.5488 222.82 97.9023 221.48 99.625 221.48C100.938 221.48 101.484 222.26 101.744 222.793H101.812V219.102H103.549V229H101.84V227.824H101.744C101.471 228.371 100.896 229.137 99.6113 229.137ZM100.09 227.701C101.211 227.701 101.854 226.73 101.854 225.281C101.854 223.846 101.225 222.902 100.09 222.902C98.9277 222.902 98.3262 223.9 98.3262 225.281C98.3262 226.689 98.9414 227.701 100.09 227.701Z" fill="var(--sol-element-quaternary)"/>
<g clip-path="url(#clip4_1670_179581)">
<rect x="228" y="208" width="52" height="32" rx="16" fill="var(--sol-element-primary)" fill-opacity="0.08"/>
<rect x="231" y="211" width="26" height="26" rx="13" fill="var(--sol-element-primary)" fill-opacity="0.24"/>
</g>
<g clip-path="url(#clip5_1670_179581)">
<rect x="340" y="208" width="52" height="32" rx="16" fill="var(--sol-element-primary)" fill-opacity="0.08"/>
<rect x="363" y="211" width="26" height="26" rx="13" fill="var(--sol-element-primary)" fill-opacity="0.24"/>
<path d="M382.057 220.721L374.658 228.12C374.365 228.413 373.891 228.413 373.598 228.12L369.945 224.467L371.006 223.407L374.128 226.529L380.997 219.66L382.057 220.721Z" fill="var(--sol-element-primary)" fill-opacity="0.3"/>
</g>
<path d="M48.916 309V299.102H52.6348C54.9043 299.102 56.1211 300.373 56.1211 302.26C56.1211 303.606 55.5059 304.604 54.3438 305.076L56.4766 309H54.4941L52.5527 305.377H50.6934V309H48.916ZM50.6934 303.887H52.3613C53.7012 303.887 54.3027 303.312 54.3027 302.26C54.3027 301.207 53.7012 300.592 52.3613 300.592H50.6934V303.887ZM60.7559 309.15C58.5137 309.15 57.1465 307.66 57.1465 305.336C57.1465 303.039 58.541 301.48 60.6602 301.48C62.4785 301.48 64.0508 302.615 64.0508 305.227V305.773H58.8691C58.8896 307.038 59.6348 307.783 60.7695 307.783C61.5352 307.783 62.0547 307.455 62.2734 307.018H63.9824C63.668 308.303 62.4785 309.15 60.7559 309.15ZM58.8828 304.584H62.3828C62.3691 303.572 61.6992 302.834 60.6875 302.834C59.6348 302.834 58.9375 303.634 58.8828 304.584ZM65.0625 306.908C65.0625 305.24 66.4434 304.748 67.8242 304.666C68.3369 304.632 69.4033 304.57 69.7246 304.557V303.969C69.7246 303.23 69.2461 302.807 68.3848 302.807C67.6055 302.807 67.127 303.162 66.9902 303.695H65.3086C65.4316 302.438 66.5664 301.48 68.4258 301.48C69.834 301.48 71.4609 302.055 71.4609 304.037V309H69.793V307.975H69.7383C69.4102 308.604 68.7129 309.15 67.5508 309.15C66.1289 309.15 65.0625 308.371 65.0625 306.908ZM66.7441 306.895C66.7441 307.537 67.2637 307.865 68.002 307.865C69.0547 307.865 69.7383 307.168 69.7383 306.334V305.719L68.0977 305.828C67.2637 305.896 66.7441 306.238 66.7441 306.895ZM75.8633 309.137C74.1133 309.137 72.8008 307.742 72.8008 305.295C72.8008 302.82 74.1543 301.48 75.877 301.48C77.1895 301.48 77.7363 302.26 77.9961 302.793H78.0645V299.102H79.8008V309H78.0918V307.824H77.9961C77.7227 308.371 77.1484 309.137 75.8633 309.137ZM76.3418 307.701C77.4629 307.701 78.1055 306.73 78.1055 305.281C78.1055 303.846 77.4766 302.902 76.3418 302.902C75.1797 302.902 74.5781 303.9 74.5781 305.281C74.5781 306.689 75.1934 307.701 76.3418 307.701ZM88.127 309.15C85.9668 309.15 84.5723 307.619 84.5723 305.322C84.5723 303.012 85.9668 301.48 88.127 301.48C90.3008 301.48 91.6816 303.012 91.6816 305.322C91.6816 307.619 90.3008 309.15 88.127 309.15ZM88.1406 307.756C89.3301 307.756 89.918 306.676 89.918 305.309C89.918 303.955 89.3301 302.861 88.1406 302.861C86.9238 302.861 86.3359 303.955 86.3359 305.309C86.3359 306.676 86.9238 307.756 88.1406 307.756ZM94.7852 304.652V309H93.0352V301.576H94.7031V302.834H94.7988C95.1406 302 95.8926 301.48 97 301.48C98.5449 301.48 99.5566 302.492 99.543 304.27V309H97.8066V304.543C97.8066 303.545 97.2734 302.957 96.3574 302.957C95.4277 302.957 94.7852 303.572 94.7852 304.652ZM102.961 299.102V309H101.211V299.102H102.961ZM105.682 311.789C105.34 311.789 104.998 311.775 104.779 311.748V310.354C104.998 310.367 105.285 310.381 105.518 310.381C105.941 310.381 106.297 310.34 106.598 309.547L106.748 309.15L104.041 301.576H105.887L107.609 307.182H107.691L109.414 301.576H111.26L108.279 309.902C107.855 311.092 107.076 311.789 105.682 311.789Z" fill="var(--sol-element-quaternary)"/>
<g clip-path="url(#clip6_1670_179581)">
<rect x="231" y="291" width="26" height="26" rx="13" fill="var(--sol-element-tertiary)"/>
</g>
<rect x="228.5" y="288.5" width="51" height="31" rx="15.5" stroke="var(--sol-element-primary)" stroke-opacity="0.08"/>
<g clip-path="url(#clip7_1670_179581)">
<rect x="363" y="291" width="26" height="26" rx="13" fill="var(--sol-element-tertiary)"/>
<path d="M382.057 300.721L374.658 308.12C374.365 308.413 373.891 308.413 373.598 308.12L369.945 304.467L371.006 303.407L374.128 306.529L380.997 299.66L382.057 300.721Z" fill="var(--sol-surface)" fill-opacity="0.8"/>
</g>
<rect x="340.5" y="288.5" width="51" height="31" rx="15.5" stroke="var(--sol-element-primary)" stroke-opacity="0.08"/>
<defs>
<filter id="filter0_dd_1670_179581" x="224" y="124" width="60" height="40" filterUnits="userSpaceOnUse" color-interpolation-filters="sRGB">
<feFlood flood-opacity="0" result="BackgroundImageFix"/>
<feColorMatrix in="SourceAlpha" type="matrix" values="0 0 0 0 0 0 0 0 0 0 0 0 0 0 0 0 0 0 127 0" result="hardAlpha"/>
<feMorphology radius="4" operator="dilate" in="SourceAlpha" result="effect1_dropShadow_1670_179581"/>
<feOffset/>
<feComposite in2="hardAlpha" operator="out"/>
<feColorMatrix type="matrix" values="0 0 0 0 0.156863 0 0 0 0 0.137255 0 0 0 0 0.388235 0 0 0 1 0"/>
<feBlend mode="normal" in2="BackgroundImageFix" result="effect1_dropShadow_1670_179581"/>
<feColorMatrix in="SourceAlpha" type="matrix" values="0 0 0 0 0 0 0 0 0 0 0 0 0 0 0 0 0 0 127 0" result="hardAlpha"/>
<feMorphology radius="2" operator="dilate" in="SourceAlpha" result="effect2_dropShadow_1670_179581"/>
<feOffset/>
<feComposite in2="hardAlpha" operator="out"/>
<feColorMatrix type="matrix" values="0 0 0 0 1 0 0 0 0 1 0 0 0 0 1 0 0 0 1 0"/>
<feBlend mode="normal" in2="effect1_dropShadow_1670_179581" result="effect2_dropShadow_1670_179581"/>
<feBlend mode="normal" in="SourceGraphic" in2="effect2_dropShadow_1670_179581" result="shape"/>
</filter>
<filter id="filter1_dd_1670_179581" x="336" y="124" width="60" height="40" filterUnits="userSpaceOnUse" color-interpolation-filters="sRGB">
<feFlood flood-opacity="0" result="BackgroundImageFix"/>
<feColorMatrix in="SourceAlpha" type="matrix" values="0 0 0 0 0 0 0 0 0 0 0 0 0 0 0 0 0 0 127 0" result="hardAlpha"/>
<feMorphology radius="4" operator="dilate" in="SourceAlpha" result="effect1_dropShadow_1670_179581"/>
<feOffset/>
<feComposite in2="hardAlpha" operator="out"/>
<feColorMatrix type="matrix" values="0 0 0 0 0.156863 0 0 0 0 0.137255 0 0 0 0 0.388235 0 0 0 1 0"/>
<feBlend mode="normal" in2="BackgroundImageFix" result="effect1_dropShadow_1670_179581"/>
<feColorMatrix in="SourceAlpha" type="matrix" values="0 0 0 0 0 0 0 0 0 0 0 0 0 0 0 0 0 0 127 0" result="hardAlpha"/>
<feMorphology radius="2" operator="dilate" in="SourceAlpha" result="effect2_dropShadow_1670_179581"/>
<feOffset/>
<feComposite in2="hardAlpha" operator="out"/>
<feColorMatrix type="matrix" values="0 0 0 0 1 0 0 0 0 1 0 0 0 0 1 0 0 0 1 0"/>
<feBlend mode="normal" in2="effect1_dropShadow_1670_179581" result="effect2_dropShadow_1670_179581"/>
<feBlend mode="normal" in="SourceGraphic" in2="effect2_dropShadow_1670_179581" result="shape"/>
</filter>
<clipPath id="clip0_1670_179581">
<rect x="228" y="48" width="52" height="32" rx="16" fill="var(--sol-surface)"/>
</clipPath>
<clipPath id="clip1_1670_179581">
<rect x="340" y="48" width="52" height="32" rx="16" fill="var(--sol-surface)"/>
</clipPath>
<clipPath id="clip2_1670_179581">
<rect x="228" y="128" width="52" height="32" rx="16" fill="var(--sol-surface)"/>
</clipPath>
<clipPath id="clip3_1670_179581">
<rect x="340" y="128" width="52" height="32" rx="16" fill="var(--sol-surface)"/>
</clipPath>
<clipPath id="clip4_1670_179581">
<rect x="228" y="208" width="52" height="32" rx="16" fill="var(--sol-surface)"/>
</clipPath>
<clipPath id="clip5_1670_179581">
<rect x="340" y="208" width="52" height="32" rx="16" fill="var(--sol-surface)"/>
</clipPath>
<clipPath id="clip6_1670_179581">
<rect x="228" y="288" width="52" height="32" rx="16" fill="var(--sol-surface)"/>
</clipPath>
<clipPath id="clip7_1670_179581">
<rect x="340" y="288" width="52" height="32" rx="16" fill="var(--sol-surface)"/>
</clipPath>
</defs>
</svg>
