<svg width="442" height="212" viewBox="0 0 442 212" fill="none" xmlns="http://www.w3.org/2000/svg">
<style>
:root {
  --sol-element-primary: #161616;
  --sol-element-tertiary: #636363;
  --sol-element-quaternary: #858585;
  --sol-element-brand-variant: #3a3480;
  --sol-fill-active: #4d469a;
  --sol-surface: #ffffff;
  --sol-error-dim: #b84451;
  --sol-static-white: #ffffff;
  --sol-static-black: #000000;
}
@media (prefers-color-scheme: dark) {
  :root {
    --sol-element-primary: #ffffff;
    --sol-element-tertiary: rgba(255, 255, 255, 0.60);
    --sol-element-quaternary: rgba(255, 255, 255, 0.50);
    --sol-element-brand-variant: #ffffff;
    --sol-fill-active: #7b74c4;
    --sol-surface: #161616;
    --sol-error-dim: #e76067;
  }
}
</style>

<rect width="370" height="212" transform="translate(36)" fill="var(--sol-surface)"/>
<path d="M80.9551 41.1016V51H79.7793L74.4199 43.2891H74.3242V51H73.0938V41.1016H74.2832L79.6426 48.8262H79.7383V41.1016H80.9551ZM86.0273 51.1504C84.0039 51.1504 82.6367 49.6328 82.6367 47.3223C82.6367 45.0117 84.0039 43.4805 86.0273 43.4805C88.0371 43.4805 89.3906 45.0117 89.3906 47.3223C89.3906 49.6328 88.0371 51.1504 86.0273 51.1504ZM86.0273 50.1113C87.5176 50.1113 88.2148 48.7988 88.2148 47.3223C88.2148 45.8457 87.5176 44.5195 86.0273 44.5195C84.5098 44.5195 83.8125 45.8457 83.8125 47.3223C83.8125 48.7988 84.5098 50.1113 86.0273 50.1113ZM94.1758 43.5762V44.5605H92.6172V48.8672C92.6172 49.8242 93.082 49.9746 93.5879 49.9746C93.8066 49.9746 94.1074 49.9609 94.2852 49.9473V51.041C94.1074 51.0684 93.8066 51.0957 93.4648 51.0957C92.4805 51.0957 91.4277 50.4805 91.4277 49.168V44.5605H90.3066V43.5762H91.4277V41.7988H92.6172V43.5762H94.1758ZM95.6934 51V43.5762H96.8691V51H95.6934ZM96.2812 42.3457C95.8301 42.3457 95.4609 42.0039 95.4609 41.5664C95.4609 41.1289 95.8301 40.7871 96.2812 40.7871C96.7324 40.7871 97.1152 41.1289 97.1152 41.5664C97.1152 42.0039 96.7324 42.3457 96.2812 42.3457ZM102.064 43.5762V44.5605H100.424V51H99.2344V44.5605H98.0449V43.5762H99.2344V42.5645C99.2344 41.3613 100.041 40.6367 101.354 40.6367C101.641 40.6367 101.982 40.6777 102.229 40.7188V41.7715C101.982 41.7305 101.764 41.7168 101.613 41.7168C100.793 41.7168 100.424 42.0586 100.424 42.8242V43.5762H102.064ZM103.459 51V43.5762H104.635V51H103.459ZM104.047 42.3457C103.596 42.3457 103.227 42.0039 103.227 41.5664C103.227 41.1289 103.596 40.7871 104.047 40.7871C104.498 40.7871 104.881 41.1289 104.881 41.5664C104.881 42.0039 104.498 42.3457 104.047 42.3457ZM109.543 51.1504C107.438 51.1504 106.152 49.5508 106.152 47.3223C106.152 45.0664 107.492 43.4805 109.516 43.4805C111.102 43.4805 112.277 44.4102 112.469 45.8184H111.293C111.129 45.1348 110.527 44.5195 109.543 44.5195C108.217 44.5195 107.328 45.6133 107.328 47.2812C107.328 49.0039 108.189 50.0977 109.543 50.0977C110.418 50.0977 111.088 49.6328 111.293 48.8125H112.469C112.277 50.1387 111.197 51.1504 109.543 51.1504ZM113.562 48.8945C113.562 47.1855 115.066 46.8027 116.352 46.707C116.823 46.6729 118.026 46.6113 118.361 46.5977V45.9961C118.361 45.0527 117.801 44.5059 116.68 44.5059C115.736 44.5059 115.176 44.9434 115.012 45.5039H113.781C113.932 44.3145 115.094 43.4805 116.734 43.4805C117.705 43.4805 119.523 43.7676 119.523 46.1055V51H118.361V49.9883H118.307C118.061 50.4941 117.377 51.1777 116.092 51.1777C114.684 51.1777 113.562 50.3438 113.562 48.8945ZM114.738 48.9492C114.738 49.7285 115.395 50.125 116.297 50.125C117.623 50.125 118.361 49.2363 118.361 48.3066V47.5547L116.488 47.6914C115.422 47.7598 114.738 48.1426 114.738 48.9492ZM124.65 43.5762V44.5605H123.092V48.8672C123.092 49.8242 123.557 49.9746 124.062 49.9746C124.281 49.9746 124.582 49.9609 124.76 49.9473V51.041C124.582 51.0684 124.281 51.0957 123.939 51.0957C122.955 51.0957 121.902 50.4805 121.902 49.168V44.5605H120.781V43.5762H121.902V41.7988H123.092V43.5762H124.65ZM126.168 51V43.5762H127.344V51H126.168ZM126.756 42.3457C126.305 42.3457 125.936 42.0039 125.936 41.5664C125.936 41.1289 126.305 40.7871 126.756 40.7871C127.207 40.7871 127.59 41.1289 127.59 41.5664C127.59 42.0039 127.207 42.3457 126.756 42.3457ZM132.252 51.1504C130.229 51.1504 128.861 49.6328 128.861 47.3223C128.861 45.0117 130.229 43.4805 132.252 43.4805C134.262 43.4805 135.615 45.0117 135.615 47.3223C135.615 49.6328 134.262 51.1504 132.252 51.1504ZM132.252 50.1113C133.742 50.1113 134.439 48.7988 134.439 47.3223C134.439 45.8457 133.742 44.5195 132.252 44.5195C130.734 44.5195 130.037 45.8457 130.037 47.3223C130.037 48.7988 130.734 50.1113 132.252 50.1113ZM138.336 46.543V51H137.16V43.5762H138.295V44.7383H138.391C138.746 43.9863 139.43 43.4805 140.564 43.4805C142.068 43.4805 143.066 44.3965 143.066 46.2832V51H141.891V46.3652C141.891 45.2168 141.262 44.5332 140.209 44.5332C139.129 44.5332 138.336 45.2578 138.336 46.543Z" fill="var(--sol-element-tertiary)"/>
<g clip-path="url(#clip0_1670_180076)">
<path d="M73.0938 85V75.1016H79.0957V76.1953H74.3242V79.5039H78.7812V80.584H74.3242V83.9062H79.1641V85H73.0938ZM80.8867 85V77.5762H82.0215V78.7383H82.1172C82.4316 77.9453 83.1426 77.4805 84.1133 77.4805C85.084 77.4805 85.7402 77.9453 86.0957 78.7383H86.1777C86.5605 77.9727 87.3398 77.4805 88.4062 77.4805C89.7324 77.4805 90.6758 78.2871 90.6758 80.0371V85H89.5V80.0508C89.5 78.957 88.8027 78.5332 87.9961 78.5332C86.957 78.5332 86.3691 79.2305 86.3691 80.1738V85H85.1797V79.9277C85.1797 79.0938 84.5781 78.5332 83.7305 78.5332C82.8418 78.5332 82.0625 79.2852 82.0625 80.3652V85H80.8867ZM92.207 82.8945C92.207 81.1855 93.7109 80.8027 94.9961 80.707C95.4678 80.6729 96.6709 80.6113 97.0059 80.5977V79.9961C97.0059 79.0527 96.4453 78.5059 95.3242 78.5059C94.3809 78.5059 93.8203 78.9434 93.6562 79.5039H92.4258C92.5762 78.3145 93.7383 77.4805 95.3789 77.4805C96.3496 77.4805 98.168 77.7676 98.168 80.1055V85H97.0059V83.9883H96.9512C96.7051 84.4941 96.0215 85.1777 94.7363 85.1777C93.3281 85.1777 92.207 84.3438 92.207 82.8945ZM93.3828 82.9492C93.3828 83.7285 94.0391 84.125 94.9414 84.125C96.2676 84.125 97.0059 83.2363 97.0059 82.3066V81.5547L95.1328 81.6914C94.0664 81.7598 93.3828 82.1426 93.3828 82.9492ZM100.055 85V77.5762H101.23V85H100.055ZM100.643 76.3457C100.191 76.3457 99.8223 76.0039 99.8223 75.5664C99.8223 75.1289 100.191 74.7871 100.643 74.7871C101.094 74.7871 101.477 75.1289 101.477 75.5664C101.477 76.0039 101.094 76.3457 100.643 76.3457ZM104.279 75.1016V85H103.104V75.1016H104.279Z" fill="var(--sol-element-primary)"/>
<g clip-path="url(#clip1_1670_180076)">
<rect x="340" y="70" width="30" height="20" rx="10" fill="var(--sol-fill-active)"/>
<circle cx="360" cy="80" r="7" fill="var(--sol-surface)"/>
</g>
<path d="M78.4941 117.59C78.3848 116.619 77.4961 116.059 76.3066 116.059C74.9941 116.059 74.1328 116.742 74.1328 117.686C74.1328 118.725 75.2949 119.107 76.0469 119.299L77.0312 119.572C78.0977 119.846 79.834 120.461 79.834 122.307C79.834 123.92 78.5352 125.178 76.2383 125.178C74.1055 125.178 72.7793 124.07 72.6699 122.43H73.9277C74.0371 123.537 75.0625 124.057 76.2383 124.057C77.6055 124.057 78.6309 123.359 78.6309 122.279C78.6309 121.322 77.7148 120.953 76.6758 120.652L75.459 120.324C73.9004 119.873 72.9434 119.08 72.9434 117.74C72.9434 116.072 74.4336 114.965 76.3477 114.965C78.2617 114.965 79.6426 116.086 79.6973 117.59H78.4941ZM81.5977 115.102H83.0742L86.4102 123.25H86.5332L89.8691 115.102H91.3457V125H90.1836V117.521H90.0879L87.0117 125H85.918L82.8418 117.521H82.7598V125H81.5977V115.102ZM98.9336 117.59C98.8242 116.619 97.9355 116.059 96.7461 116.059C95.4336 116.059 94.5723 116.742 94.5723 117.686C94.5723 118.725 95.7344 119.107 96.4863 119.299L97.4707 119.572C98.5371 119.846 100.273 120.461 100.273 122.307C100.273 123.92 98.9746 125.178 96.6777 125.178C94.5449 125.178 93.2188 124.07 93.1094 122.43H94.3672C94.4766 123.537 95.502 124.057 96.6777 124.057C98.0449 124.057 99.0703 123.359 99.0703 122.279C99.0703 121.322 98.1543 120.953 97.1152 120.652L95.8984 120.324C94.3398 119.873 93.3828 119.08 93.3828 117.74C93.3828 116.072 94.873 114.965 96.7871 114.965C98.7012 114.965 100.082 116.086 100.137 117.59H98.9336Z" fill="var(--sol-element-primary)"/>
<g clip-path="url(#clip2_1670_180076)">
<rect x="340" y="110" width="30" height="20" rx="10" fill="var(--sol-fill-active)"/>
<circle cx="360" cy="120" r="7" fill="var(--sol-surface)"/>
</g>
<path d="M73.0938 155.102H74.5703L77.9062 163.25H78.0293L81.3652 155.102H82.8418V165H81.6797V157.521H81.584L78.5078 165H77.4141L74.3379 157.521H74.2559V165H73.0938V155.102ZM87.9961 165.15C85.8496 165.15 84.5234 163.633 84.5234 161.35C84.5234 159.066 85.8633 157.48 87.8867 157.48C89.4453 157.48 91.0859 158.438 91.0859 161.186V161.678H85.6992C85.7539 163.25 86.6699 164.111 87.9961 164.111C88.8848 164.111 89.4453 163.729 89.7188 163.264H90.9766C90.6211 164.385 89.5273 165.15 87.9961 165.15ZM85.7129 160.68H89.8965C89.8965 159.436 89.1035 158.52 87.8867 158.52C86.6016 158.52 85.7812 159.531 85.7129 160.68ZM96.7461 159.504C96.582 158.889 96.1172 158.479 95.2422 158.479C94.3262 158.479 93.6699 158.971 93.6699 159.6C93.6699 160.092 94.0664 160.434 94.9414 160.639L96.0488 160.912C97.375 161.227 98.0312 161.883 98.0312 162.922C98.0312 164.207 96.9785 165.15 95.1191 165.15C93.4512 165.15 92.4531 164.412 92.2617 163.059H93.4922C93.6289 163.783 94.1621 164.125 95.0918 164.125C96.1445 164.125 96.8145 163.688 96.8145 162.99C96.8145 162.471 96.4453 162.115 95.5977 161.924L94.4766 161.664C93.1777 161.363 92.4941 160.652 92.4941 159.668C92.4941 158.396 93.6016 157.48 95.2422 157.48C96.7734 157.48 97.7441 158.301 97.8945 159.504H96.7461ZM103.691 159.504C103.527 158.889 103.062 158.479 102.188 158.479C101.271 158.479 100.615 158.971 100.615 159.6C100.615 160.092 101.012 160.434 101.887 160.639L102.994 160.912C104.32 161.227 104.977 161.883 104.977 162.922C104.977 164.207 103.924 165.15 102.064 165.15C100.396 165.15 99.3984 164.412 99.207 163.059H100.438C100.574 163.783 101.107 164.125 102.037 164.125C103.09 164.125 103.76 163.688 103.76 162.99C103.76 162.471 103.391 162.115 102.543 161.924L101.422 161.664C100.123 161.363 99.4395 160.652 99.4395 159.668C99.4395 158.396 100.547 157.48 102.188 157.48C103.719 157.48 104.689 158.301 104.84 159.504H103.691ZM110.637 159.504C110.473 158.889 110.008 158.479 109.133 158.479C108.217 158.479 107.561 158.971 107.561 159.6C107.561 160.092 107.957 160.434 108.832 160.639L109.939 160.912C111.266 161.227 111.922 161.883 111.922 162.922C111.922 164.207 110.869 165.15 109.01 165.15C107.342 165.15 106.344 164.412 106.152 163.059H107.383C107.52 163.783 108.053 164.125 108.982 164.125C110.035 164.125 110.705 163.688 110.705 162.99C110.705 162.471 110.336 162.115 109.488 161.924L108.367 161.664C107.068 161.363 106.385 160.652 106.385 159.668C106.385 158.396 107.492 157.48 109.133 157.48C110.664 157.48 111.635 158.301 111.785 159.504H110.637ZM113.098 162.895C113.098 161.186 114.602 160.803 115.887 160.707C116.358 160.673 117.562 160.611 117.896 160.598V159.996C117.896 159.053 117.336 158.506 116.215 158.506C115.271 158.506 114.711 158.943 114.547 159.504H113.316C113.467 158.314 114.629 157.48 116.27 157.48C117.24 157.48 119.059 157.768 119.059 160.105V165H117.896V163.988H117.842C117.596 164.494 116.912 165.178 115.627 165.178C114.219 165.178 113.098 164.344 113.098 162.895ZM114.273 162.949C114.273 163.729 114.93 164.125 115.832 164.125C117.158 164.125 117.896 163.236 117.896 162.307V161.555L116.023 161.691C114.957 161.76 114.273 162.143 114.273 162.949ZM123.953 167.939C122.162 167.939 120.945 167.16 120.809 165.779H122.039C122.203 166.531 122.9 166.914 123.953 166.914C125.225 166.914 126.004 166.367 126.004 165.137V163.633H125.908C125.662 164.043 125.184 164.891 123.748 164.891C121.943 164.891 120.59 163.523 120.59 161.186C120.59 158.902 121.902 157.48 123.762 157.48C125.197 157.48 125.662 158.355 125.936 158.752H126.031V157.576H127.18V165.205C127.18 167.119 125.758 167.939 123.953 167.939ZM123.912 163.838C125.266 163.838 126.031 162.867 126.031 161.227C126.031 159.641 125.293 158.533 123.912 158.533C122.49 158.533 121.779 159.736 121.779 161.227C121.779 162.771 122.504 163.838 123.912 163.838ZM132.17 165.15C130.023 165.15 128.697 163.633 128.697 161.35C128.697 159.066 130.037 157.48 132.061 157.48C133.619 157.48 135.26 158.438 135.26 161.186V161.678H129.873C129.928 163.25 130.844 164.111 132.17 164.111C133.059 164.111 133.619 163.729 133.893 163.264H135.15C134.795 164.385 133.701 165.15 132.17 165.15ZM129.887 160.68H134.07C134.07 159.436 133.277 158.52 132.061 158.52C130.775 158.52 129.955 159.531 129.887 160.68Z" fill="var(--sol-element-primary)"/>
<g clip-path="url(#clip3_1670_180076)">
<rect x="340" y="150" width="30" height="20" rx="10" fill="var(--sol-fill-active)"/>
<circle cx="360" cy="160" r="7" fill="var(--sol-surface)"/>
</g>
</g>
<defs>
<clipPath id="clip0_1670_180076">
<rect width="298" height="112" fill="var(--sol-surface)" transform="translate(72 64)"/>
</clipPath>
<clipPath id="clip1_1670_180076">
<rect x="340" y="70" width="30" height="20" rx="10" fill="var(--sol-surface)"/>
</clipPath>
<clipPath id="clip2_1670_180076">
<rect x="340" y="110" width="30" height="20" rx="10" fill="var(--sol-surface)"/>
</clipPath>
<clipPath id="clip3_1670_180076">
<rect x="340" y="150" width="30" height="20" rx="10" fill="var(--sol-surface)"/>
</clipPath>
</defs>
</svg>
