<svg width="442" height="228" viewBox="0 0 442 228" fill="none" xmlns="http://www.w3.org/2000/svg">
<style>
:root {
  --sol-element-primary: #161616;
  --sol-element-tertiary: #636363;
  --sol-element-quaternary: #858585;
  --sol-element-brand-variant: #3a3480;
  --sol-fill-active: #4d469a;
  --sol-surface: #ffffff;
  --sol-error-dim: #b84451;
  --sol-static-white: #ffffff;
  --sol-static-black: #000000;
}
@media (prefers-color-scheme: dark) {
  :root {
    --sol-element-primary: #ffffff;
    --sol-element-tertiary: rgba(255, 255, 255, 0.60);
    --sol-element-quaternary: rgba(255, 255, 255, 0.50);
    --sol-element-brand-variant: #ffffff;
    --sol-fill-active: #7b74c4;
    --sol-surface: #161616;
    --sol-error-dim: #e76067;
  }
}
</style>

<g clip-path="url(#clip0_1670_180063)">
<g filter="url(#filter0_dd_1670_180063)">
<rect width="370" height="228" transform="translate(36)" fill="var(--sol-surface)"/>
<g clip-path="url(#clip1_1670_180063)">
<path d="M79.5742 31.1016H80.8047V37.6504C80.8047 39.6875 79.2871 41.1777 76.9492 41.1777C74.6113 41.1777 73.0938 39.6875 73.0938 37.6504V31.1016H74.3242V37.5547C74.3242 38.9902 75.3223 40.0293 76.9492 40.0293C78.5898 40.0293 79.5742 38.9902 79.5742 37.5547V31.1016ZM86.9707 35.5039C86.8066 34.8887 86.3418 34.4785 85.4668 34.4785C84.5508 34.4785 83.8945 34.9707 83.8945 35.5996C83.8945 36.0918 84.291 36.4336 85.166 36.6387L86.2734 36.9121C87.5996 37.2266 88.2559 37.8828 88.2559 38.9219C88.2559 40.207 87.2031 41.1504 85.3438 41.1504C83.6758 41.1504 82.6777 40.4121 82.4863 39.0586H83.7168C83.8535 39.7832 84.3867 40.125 85.3164 40.125C86.3691 40.125 87.0391 39.6875 87.0391 38.9902C87.0391 38.4707 86.6699 38.1152 85.8223 37.9238L84.7012 37.6641C83.4023 37.3633 82.7188 36.6523 82.7188 35.668C82.7188 34.3965 83.8262 33.4805 85.4668 33.4805C86.998 33.4805 87.9688 34.3008 88.1191 35.5039H86.9707ZM92.9043 41.1504C90.7578 41.1504 89.4316 39.6328 89.4316 37.3496C89.4316 35.0664 90.7715 33.4805 92.7949 33.4805C94.3535 33.4805 95.9941 34.4375 95.9941 37.1855V37.6777H90.6074C90.6621 39.25 91.5781 40.1113 92.9043 40.1113C93.793 40.1113 94.3535 39.7285 94.627 39.2637H95.8848C95.5293 40.3848 94.4355 41.1504 92.9043 41.1504ZM90.6211 36.6797H94.8047C94.8047 35.4355 94.0117 34.5195 92.7949 34.5195C91.5098 34.5195 90.6895 35.5312 90.6211 36.6797ZM97.5254 41V33.5762H98.6602V34.7109H98.7422C99.0156 33.959 99.7812 33.4531 100.656 33.4531C100.834 33.4531 101.135 33.4668 101.271 33.4805V34.6699C101.189 34.6426 100.861 34.5879 100.561 34.5879C99.4941 34.5879 98.7012 35.3262 98.7012 36.3242V41H97.5254ZM105.934 41V33.5762H107.068V34.7383H107.164C107.479 33.9453 108.189 33.4805 109.16 33.4805C110.131 33.4805 110.787 33.9453 111.143 34.7383H111.225C111.607 33.9727 112.387 33.4805 113.453 33.4805C114.779 33.4805 115.723 34.2871 115.723 36.0371V41H114.547V36.0508C114.547 34.957 113.85 34.5332 113.043 34.5332C112.004 34.5332 111.416 35.2305 111.416 36.1738V41H110.227V35.9277C110.227 35.0938 109.625 34.5332 108.777 34.5332C107.889 34.5332 107.109 35.2852 107.109 36.3652V41H105.934ZM117.254 38.8945C117.254 37.1855 118.758 36.8027 120.043 36.707C120.515 36.6729 121.718 36.6113 122.053 36.5977V35.9961C122.053 35.0527 121.492 34.5059 120.371 34.5059C119.428 34.5059 118.867 34.9434 118.703 35.5039H117.473C117.623 34.3145 118.785 33.4805 120.426 33.4805C121.396 33.4805 123.215 33.7676 123.215 36.1055V41H122.053V39.9883H121.998C121.752 40.4941 121.068 41.1777 119.783 41.1777C118.375 41.1777 117.254 40.3438 117.254 38.8945ZM118.43 38.9492C118.43 39.7285 119.086 40.125 119.988 40.125C121.314 40.125 122.053 39.2363 122.053 38.3066V37.5547L120.18 37.6914C119.113 37.7598 118.43 38.1426 118.43 38.9492ZM126.277 36.543V41H125.102V33.5762H126.236V34.7383H126.332C126.688 33.9863 127.371 33.4805 128.506 33.4805C130.01 33.4805 131.008 34.3965 131.008 36.2832V41H129.832V36.3652C129.832 35.2168 129.203 34.5332 128.15 34.5332C127.07 34.5332 126.277 35.2578 126.277 36.543ZM132.539 38.8945C132.539 37.1855 134.043 36.8027 135.328 36.707C135.8 36.6729 137.003 36.6113 137.338 36.5977V35.9961C137.338 35.0527 136.777 34.5059 135.656 34.5059C134.713 34.5059 134.152 34.9434 133.988 35.5039H132.758C132.908 34.3145 134.07 33.4805 135.711 33.4805C136.682 33.4805 138.5 33.7676 138.5 36.1055V41H137.338V39.9883H137.283C137.037 40.4941 136.354 41.1777 135.068 41.1777C133.66 41.1777 132.539 40.3438 132.539 38.8945ZM133.715 38.9492C133.715 39.7285 134.371 40.125 135.273 40.125C136.6 40.125 137.338 39.2363 137.338 38.3066V37.5547L135.465 37.6914C134.398 37.7598 133.715 38.1426 133.715 38.9492ZM143.395 43.9395C141.604 43.9395 140.387 43.1602 140.25 41.7793H141.48C141.645 42.5312 142.342 42.9141 143.395 42.9141C144.666 42.9141 145.445 42.3672 145.445 41.1367V39.6328H145.35C145.104 40.043 144.625 40.8906 143.189 40.8906C141.385 40.8906 140.031 39.5234 140.031 37.1855C140.031 34.9023 141.344 33.4805 143.203 33.4805C144.639 33.4805 145.104 34.3555 145.377 34.752H145.473V33.5762H146.621V41.2051C146.621 43.1191 145.199 43.9395 143.395 43.9395ZM143.354 39.8379C144.707 39.8379 145.473 38.8672 145.473 37.2266C145.473 35.6406 144.734 34.5332 143.354 34.5332C141.932 34.5332 141.221 35.7363 141.221 37.2266C141.221 38.7715 141.945 39.8379 143.354 39.8379ZM151.611 41.1504C149.465 41.1504 148.139 39.6328 148.139 37.3496C148.139 35.0664 149.479 33.4805 151.502 33.4805C153.061 33.4805 154.701 34.4375 154.701 37.1855V37.6777H149.314C149.369 39.25 150.285 40.1113 151.611 40.1113C152.5 40.1113 153.061 39.7285 153.334 39.2637H154.592C154.236 40.3848 153.143 41.1504 151.611 41.1504ZM149.328 36.6797H153.512C153.512 35.4355 152.719 34.5195 151.502 34.5195C150.217 34.5195 149.396 35.5312 149.328 36.6797ZM156.232 41V33.5762H157.367V34.7383H157.463C157.777 33.9453 158.488 33.4805 159.459 33.4805C160.43 33.4805 161.086 33.9453 161.441 34.7383H161.523C161.906 33.9727 162.686 33.4805 163.752 33.4805C165.078 33.4805 166.021 34.2871 166.021 36.0371V41H164.846V36.0508C164.846 34.957 164.148 34.5332 163.342 34.5332C162.303 34.5332 161.715 35.2305 161.715 36.1738V41H160.525V35.9277C160.525 35.0938 159.924 34.5332 159.076 34.5332C158.188 34.5332 157.408 35.2852 157.408 36.3652V41H156.232ZM171.025 41.1504C168.879 41.1504 167.553 39.6328 167.553 37.3496C167.553 35.0664 168.893 33.4805 170.916 33.4805C172.475 33.4805 174.115 34.4375 174.115 37.1855V37.6777H168.729C168.783 39.25 169.699 40.1113 171.025 40.1113C171.914 40.1113 172.475 39.7285 172.748 39.2637H174.006C173.65 40.3848 172.557 41.1504 171.025 41.1504ZM168.742 36.6797H172.926C172.926 35.4355 172.133 34.5195 170.916 34.5195C169.631 34.5195 168.811 35.5312 168.742 36.6797ZM176.822 36.543V41H175.646V33.5762H176.781V34.7383H176.877C177.232 33.9863 177.916 33.4805 179.051 33.4805C180.555 33.4805 181.553 34.3965 181.553 36.2832V41H180.377V36.3652C180.377 35.2168 179.748 34.5332 178.695 34.5332C177.615 34.5332 176.822 35.2578 176.822 36.543ZM186.68 33.5762V34.5605H185.121V38.8672C185.121 39.8242 185.586 39.9746 186.092 39.9746C186.311 39.9746 186.611 39.9609 186.789 39.9473V41.041C186.611 41.0684 186.311 41.0957 185.969 41.0957C184.984 41.0957 183.932 40.4805 183.932 39.168V34.5605H182.811V33.5762H183.932V31.7988H185.121V33.5762H186.68Z" fill="var(--sol-element-primary)"/>
<path d="M73.3125 59H72.2109L75.3164 50.5156H76.4297L79.5352 59H78.4219L77.5781 56.6094H74.168L73.3125 59ZM74.4844 55.6836H77.25L75.9023 51.8867H75.832L74.4844 55.6836ZM81.5625 50.5156V59H80.5547V50.5156H81.5625ZM84.1758 50.5156V59H83.168V50.5156H84.1758ZM88.3828 59.1289C86.6484 59.1289 85.4766 57.8281 85.4766 55.8477C85.4766 53.8672 86.6484 52.5547 88.3828 52.5547C90.1055 52.5547 91.2656 53.8672 91.2656 55.8477C91.2656 57.8281 90.1055 59.1289 88.3828 59.1289ZM88.3828 58.2383C89.6602 58.2383 90.2578 57.1133 90.2578 55.8477C90.2578 54.582 89.6602 53.4453 88.3828 53.4453C87.082 53.4453 86.4844 54.582 86.4844 55.8477C86.4844 57.1133 87.082 58.2383 88.3828 58.2383ZM93.8086 59L91.875 52.6367H92.9414L94.3008 57.4883H94.3594L95.707 52.6367H96.7852L98.1094 57.4648H98.1797L99.5391 52.6367H100.594L98.6602 59H97.6641L96.2812 54.1484H96.1875L94.8164 59H93.8086ZM104.414 57.1953C104.414 55.7305 105.703 55.4023 106.805 55.3203C107.209 55.291 108.24 55.2383 108.527 55.2266V54.7109C108.527 53.9023 108.047 53.4336 107.086 53.4336C106.277 53.4336 105.797 53.8086 105.656 54.2891H104.602C104.73 53.2695 105.727 52.5547 107.133 52.5547C107.965 52.5547 109.523 52.8008 109.523 54.8047V59H108.527V58.1328H108.48C108.27 58.5664 107.684 59.1523 106.582 59.1523C105.375 59.1523 104.414 58.4375 104.414 57.1953ZM105.422 57.2422C105.422 57.9102 105.984 58.25 106.758 58.25C107.895 58.25 108.527 57.4883 108.527 56.6914V56.0469L106.922 56.1641C106.008 56.2227 105.422 56.5508 105.422 57.2422ZM113.543 59.1289C111.961 59.1289 110.836 57.8516 110.836 55.8359C110.836 53.8203 111.961 52.5547 113.555 52.5547C114.785 52.5547 115.184 53.3047 115.395 53.6445H115.465V50.5156H116.484V59H115.5V58.0273H115.395C115.172 58.3789 114.762 59.1289 113.543 59.1289ZM113.684 58.2266C114.844 58.2266 115.5 57.2422 115.5 55.8125C115.5 54.4062 114.867 53.457 113.684 53.457C112.465 53.457 111.855 54.4883 111.855 55.8125C111.855 57.1719 112.477 58.2266 113.684 58.2266ZM118.23 59V52.6367H119.203V53.6328H119.285C119.555 52.9531 120.164 52.5547 120.996 52.5547C121.828 52.5547 122.391 52.9531 122.695 53.6328H122.766C123.094 52.9766 123.762 52.5547 124.676 52.5547C125.812 52.5547 126.621 53.2461 126.621 54.7461V59H125.613V54.7578C125.613 53.8203 125.016 53.457 124.324 53.457C123.434 53.457 122.93 54.0547 122.93 54.8633V59H121.91V54.6523C121.91 53.9375 121.395 53.457 120.668 53.457C119.906 53.457 119.238 54.1016 119.238 55.0273V59H118.23ZM128.238 59V52.6367H129.246V59H128.238ZM128.742 51.582C128.355 51.582 128.039 51.2891 128.039 50.9141C128.039 50.5391 128.355 50.2461 128.742 50.2461C129.129 50.2461 129.457 50.5391 129.457 50.9141C129.457 51.2891 129.129 51.582 128.742 51.582ZM131.859 55.1797V59H130.852V52.6367H131.824V53.6328H131.906C132.211 52.9883 132.797 52.5547 133.77 52.5547C135.059 52.5547 135.914 53.3398 135.914 54.957V59H134.906V55.0273C134.906 54.043 134.367 53.457 133.465 53.457C132.539 53.457 131.859 54.0781 131.859 55.1797ZM141.07 54.2891C140.93 53.7617 140.531 53.4102 139.781 53.4102C138.996 53.4102 138.434 53.832 138.434 54.3711C138.434 54.793 138.773 55.0859 139.523 55.2617L140.473 55.4961C141.609 55.7656 142.172 56.3281 142.172 57.2188C142.172 58.3203 141.27 59.1289 139.676 59.1289C138.246 59.1289 137.391 58.4961 137.227 57.3359H138.281C138.398 57.957 138.855 58.25 139.652 58.25C140.555 58.25 141.129 57.875 141.129 57.2773C141.129 56.832 140.812 56.5273 140.086 56.3633L139.125 56.1406C138.012 55.8828 137.426 55.2734 137.426 54.4297C137.426 53.3398 138.375 52.5547 139.781 52.5547C141.094 52.5547 141.926 53.2578 142.055 54.2891H141.07ZM149.273 52.6367V53.4805H147.938V57.1719C147.938 57.9922 148.336 58.1211 148.77 58.1211C148.957 58.1211 149.215 58.1094 149.367 58.0977V59.0352C149.215 59.0586 148.957 59.082 148.664 59.082C147.82 59.082 146.918 58.5547 146.918 57.4297V53.4805H145.957V52.6367H146.918V51.1133H147.938V52.6367H149.273ZM153.117 59.1289C151.383 59.1289 150.211 57.8281 150.211 55.8477C150.211 53.8672 151.383 52.5547 153.117 52.5547C154.84 52.5547 156 53.8672 156 55.8477C156 57.8281 154.84 59.1289 153.117 59.1289ZM153.117 58.2383C154.395 58.2383 154.992 57.1133 154.992 55.8477C154.992 54.582 154.395 53.4453 153.117 53.4453C151.816 53.4453 151.219 54.582 151.219 55.8477C151.219 57.1133 151.816 58.2383 153.117 58.2383ZM160.336 59V52.6367H161.344V59H160.336ZM160.84 51.582C160.453 51.582 160.137 51.2891 160.137 50.9141C160.137 50.5391 160.453 50.2461 160.84 50.2461C161.227 50.2461 161.555 50.5391 161.555 50.9141C161.555 51.2891 161.227 51.582 160.84 51.582ZM163.957 55.1797V59H162.949V52.6367H163.922V53.6328H164.004C164.309 52.9883 164.895 52.5547 165.867 52.5547C167.156 52.5547 168.012 53.3398 168.012 54.957V59H167.004V55.0273C167.004 54.043 166.465 53.457 165.562 53.457C164.637 53.457 163.957 54.0781 163.957 55.1797ZM174.633 52.6367L172.277 59H171.234L168.891 52.6367H169.992L171.727 57.6875H171.797L173.531 52.6367H174.633ZM175.746 59V52.6367H176.754V59H175.746ZM176.25 51.582C175.863 51.582 175.547 51.2891 175.547 50.9141C175.547 50.5391 175.863 50.2461 176.25 50.2461C176.637 50.2461 176.965 50.5391 176.965 50.9141C176.965 51.2891 176.637 51.582 176.25 51.582ZM181.137 52.6367V53.4805H179.801V57.1719C179.801 57.9922 180.199 58.1211 180.633 58.1211C180.82 58.1211 181.078 58.1094 181.23 58.0977V59.0352C181.078 59.0586 180.82 59.082 180.527 59.082C179.684 59.082 178.781 58.5547 178.781 57.4297V53.4805H177.82V52.6367H178.781V51.1133H179.801V52.6367H181.137ZM185.051 59.1289C183.211 59.1289 182.074 57.8281 182.074 55.8711C182.074 53.9141 183.223 52.5547 184.957 52.5547C186.293 52.5547 187.699 53.375 187.699 55.7305V56.1523H183.082C183.129 57.5 183.914 58.2383 185.051 58.2383C185.812 58.2383 186.293 57.9102 186.527 57.5117H187.605C187.301 58.4727 186.363 59.1289 185.051 59.1289ZM183.094 55.2969H186.68C186.68 54.2305 186 53.4453 184.957 53.4453C183.855 53.4453 183.152 54.3125 183.094 55.2969ZM190.336 58.2148L189.422 61.4023H188.555L189.199 58.2148H190.336ZM197.777 59.1289C195.938 59.1289 194.801 57.8281 194.801 55.8711C194.801 53.9141 195.949 52.5547 197.684 52.5547C199.02 52.5547 200.426 53.375 200.426 55.7305V56.1523H195.809C195.855 57.5 196.641 58.2383 197.777 58.2383C198.539 58.2383 199.02 57.9102 199.254 57.5117H200.332C200.027 58.4727 199.09 59.1289 197.777 59.1289ZM195.82 55.2969H199.406C199.406 54.2305 198.727 53.4453 197.684 53.4453C196.582 53.4453 195.879 54.3125 195.82 55.2969ZM204.141 59.1289C202.559 59.1289 201.434 57.8516 201.434 55.8359C201.434 53.8203 202.559 52.5547 204.152 52.5547C205.383 52.5547 205.781 53.3047 205.992 53.6445H206.062V50.5156H207.082V59H206.098V58.0273H205.992C205.77 58.3789 205.359 59.1289 204.141 59.1289ZM204.281 58.2266C205.441 58.2266 206.098 57.2422 206.098 55.8125C206.098 54.4062 205.465 53.457 204.281 53.457C203.062 53.457 202.453 54.4883 202.453 55.8125C202.453 57.1719 203.074 58.2266 204.281 58.2266ZM208.828 59V52.6367H209.836V59H208.828ZM209.332 51.582C208.945 51.582 208.629 51.2891 208.629 50.9141C208.629 50.5391 208.945 50.2461 209.332 50.2461C209.719 50.2461 210.047 50.5391 210.047 50.9141C210.047 51.2891 209.719 51.582 209.332 51.582ZM214.219 52.6367V53.4805H212.883V57.1719C212.883 57.9922 213.281 58.1211 213.715 58.1211C213.902 58.1211 214.16 58.1094 214.312 58.0977V59.0352C214.16 59.0586 213.902 59.082 213.609 59.082C212.766 59.082 211.863 58.5547 211.863 57.4297V53.4805H210.902V52.6367H211.863V51.1133H212.883V52.6367H214.219ZM216.844 58.2148L215.93 61.4023H215.062L215.707 58.2148H216.844ZM221.309 57.1953C221.309 55.7305 222.598 55.4023 223.699 55.3203C224.104 55.291 225.135 55.2383 225.422 55.2266V54.7109C225.422 53.9023 224.941 53.4336 223.98 53.4336C223.172 53.4336 222.691 53.8086 222.551 54.2891H221.496C221.625 53.2695 222.621 52.5547 224.027 52.5547C224.859 52.5547 226.418 52.8008 226.418 54.8047V59H225.422V58.1328H225.375C225.164 58.5664 224.578 59.1523 223.477 59.1523C222.27 59.1523 221.309 58.4375 221.309 57.1953ZM222.316 57.2422C222.316 57.9102 222.879 58.25 223.652 58.25C224.789 58.25 225.422 57.4883 225.422 56.6914V56.0469L223.816 56.1641C222.902 56.2227 222.316 56.5508 222.316 57.2422ZM229.043 55.1797V59H228.035V52.6367H229.008V53.6328H229.09C229.395 52.9883 229.98 52.5547 230.953 52.5547C232.242 52.5547 233.098 53.3398 233.098 54.957V59H232.09V55.0273C232.09 54.043 231.551 53.457 230.648 53.457C229.723 53.457 229.043 54.0781 229.043 55.1797ZM237.117 59.1289C235.535 59.1289 234.41 57.8516 234.41 55.8359C234.41 53.8203 235.535 52.5547 237.129 52.5547C238.359 52.5547 238.758 53.3047 238.969 53.6445H239.039V50.5156H240.059V59H239.074V58.0273H238.969C238.746 58.3789 238.336 59.1289 237.117 59.1289ZM237.258 58.2266C238.418 58.2266 239.074 57.2422 239.074 55.8125C239.074 54.4062 238.441 53.457 237.258 53.457C236.039 53.457 235.43 54.4883 235.43 55.8125C235.43 57.1719 236.051 58.2266 237.258 58.2266ZM244.816 59V52.6367H245.789V53.6094H245.859C246.094 52.9648 246.75 52.5312 247.5 52.5312C247.652 52.5312 247.91 52.543 248.027 52.5547V53.5742C247.957 53.5508 247.676 53.5039 247.418 53.5039C246.504 53.5039 245.824 54.1367 245.824 54.9922V59H244.816ZM251.484 59.1289C249.645 59.1289 248.508 57.8281 248.508 55.8711C248.508 53.9141 249.656 52.5547 251.391 52.5547C252.727 52.5547 254.133 53.375 254.133 55.7305V56.1523H249.516C249.562 57.5 250.348 58.2383 251.484 58.2383C252.246 58.2383 252.727 57.9102 252.961 57.5117H254.039C253.734 58.4727 252.797 59.1289 251.484 59.1289ZM249.527 55.2969H253.113C253.113 54.2305 252.434 53.4453 251.391 53.4453C250.289 53.4453 249.586 54.3125 249.527 55.2969ZM255.445 59V52.6367H256.418V53.6328H256.5C256.77 52.9531 257.379 52.5547 258.211 52.5547C259.043 52.5547 259.605 52.9531 259.91 53.6328H259.98C260.309 52.9766 260.977 52.5547 261.891 52.5547C263.027 52.5547 263.836 53.2461 263.836 54.7461V59H262.828V54.7578C262.828 53.8203 262.23 53.457 261.539 53.457C260.648 53.457 260.145 54.0547 260.145 54.8633V59H259.125V54.6523C259.125 53.9375 258.609 53.457 257.883 53.457C257.121 53.457 256.453 54.1016 256.453 55.0273V59H255.445ZM268.055 59.1289C266.32 59.1289 265.148 57.8281 265.148 55.8477C265.148 53.8672 266.32 52.5547 268.055 52.5547C269.777 52.5547 270.938 53.8672 270.938 55.8477C270.938 57.8281 269.777 59.1289 268.055 59.1289ZM268.055 58.2383C269.332 58.2383 269.93 57.1133 269.93 55.8477C269.93 54.582 269.332 53.4453 268.055 53.4453C266.754 53.4453 266.156 54.582 266.156 55.8477C266.156 57.1133 266.754 58.2383 268.055 58.2383ZM277.266 52.6367L274.91 59H273.867L271.523 52.6367H272.625L274.359 57.6875H274.43L276.164 52.6367H277.266ZM280.816 59.1289C278.977 59.1289 277.84 57.8281 277.84 55.8711C277.84 53.9141 278.988 52.5547 280.723 52.5547C282.059 52.5547 283.465 53.375 283.465 55.7305V56.1523H278.848C278.895 57.5 279.68 58.2383 280.816 58.2383C281.578 58.2383 282.059 57.9102 282.293 57.5117H283.371C283.066 58.4727 282.129 59.1289 280.816 59.1289ZM278.859 55.2969H282.445C282.445 54.2305 281.766 53.4453 280.723 53.4453C279.621 53.4453 278.918 54.3125 278.859 55.2969ZM291.809 56.3867V52.6367H292.805V59H291.809V57.9219H291.738C291.434 58.5664 290.812 59.082 289.852 59.082C288.645 59.082 287.789 58.2969 287.789 56.6797V52.6367H288.797V56.6094C288.797 57.5234 289.371 58.1094 290.18 58.1094C290.895 58.1094 291.809 57.5703 291.809 56.3867ZM297.961 54.2891C297.82 53.7617 297.422 53.4102 296.672 53.4102C295.887 53.4102 295.324 53.832 295.324 54.3711C295.324 54.793 295.664 55.0859 296.414 55.2617L297.363 55.4961C298.5 55.7656 299.062 56.3281 299.062 57.2188C299.062 58.3203 298.16 59.1289 296.566 59.1289C295.137 59.1289 294.281 58.4961 294.117 57.3359H295.172C295.289 57.957 295.746 58.25 296.543 58.25C297.445 58.25 298.02 57.875 298.02 57.2773C298.02 56.832 297.703 56.5273 296.977 56.3633L296.016 56.1406C294.902 55.8828 294.316 55.2734 294.316 54.4297C294.316 53.3398 295.266 52.5547 296.672 52.5547C297.984 52.5547 298.816 53.2578 298.945 54.2891H297.961ZM303.047 59.1289C301.207 59.1289 300.07 57.8281 300.07 55.8711C300.07 53.9141 301.219 52.5547 302.953 52.5547C304.289 52.5547 305.695 53.375 305.695 55.7305V56.1523H301.078C301.125 57.5 301.91 58.2383 303.047 58.2383C303.809 58.2383 304.289 57.9102 304.523 57.5117H305.602C305.297 58.4727 304.359 59.1289 303.047 59.1289ZM301.09 55.2969H304.676C304.676 54.2305 303.996 53.4453 302.953 53.4453C301.852 53.4453 301.148 54.3125 301.09 55.2969ZM307.008 59V52.6367H307.98V53.6094H308.051C308.285 52.9648 308.941 52.5312 309.691 52.5312C309.844 52.5312 310.102 52.543 310.219 52.5547V53.5742C310.148 53.5508 309.867 53.5039 309.609 53.5039C308.695 53.5039 308.016 54.1367 308.016 54.9922V59H307.008ZM314.742 54.2891C314.602 53.7617 314.203 53.4102 313.453 53.4102C312.668 53.4102 312.105 53.832 312.105 54.3711C312.105 54.793 312.445 55.0859 313.195 55.2617L314.145 55.4961C315.281 55.7656 315.844 56.3281 315.844 57.2188C315.844 58.3203 314.941 59.1289 313.348 59.1289C311.918 59.1289 311.062 58.4961 310.898 57.3359H311.953C312.07 57.957 312.527 58.25 313.324 58.25C314.227 58.25 314.801 57.875 314.801 57.2773C314.801 56.832 314.484 56.5273 313.758 56.3633L312.797 56.1406C311.684 55.8828 311.098 55.2734 311.098 54.4297C311.098 53.3398 312.047 52.5547 313.453 52.5547C314.766 52.5547 315.598 53.2578 315.727 54.2891H314.742ZM317.871 59.0703C317.461 59.0703 317.109 58.7305 317.121 58.3086C317.109 57.8984 317.461 57.5586 317.871 57.5586C318.281 57.5586 318.621 57.8984 318.621 58.3086C318.621 58.7305 318.281 59.0703 317.871 59.0703Z" fill="var(--sol-element-tertiary)"/>
<g clip-path="url(#clip2_1670_180063)">
<rect x="340" y="34" width="30" height="20" rx="10" fill="var(--sol-fill-active)"/>
<circle cx="360" cy="44" r="7" fill="var(--sol-surface)"/>
</g>
<path d="M73.5312 97H72.2461L75.8691 87.1016H77.168L80.791 97H79.4922L78.5078 94.2109H74.5293L73.5312 97ZM74.8984 93.1309H78.125L76.5527 88.7012H76.4707L74.8984 93.1309ZM86.6699 93.9512V89.5762H87.832V97H86.6699V95.7422H86.5879C86.2324 96.4941 85.5078 97.0957 84.3867 97.0957C82.9785 97.0957 81.9805 96.1797 81.9805 94.293V89.5762H83.1562V94.2109C83.1562 95.2773 83.8262 95.9609 84.7695 95.9609C85.6035 95.9609 86.6699 95.332 86.6699 93.9512ZM92.959 89.5762V90.5605H91.4004V94.8672C91.4004 95.8242 91.8652 95.9746 92.3711 95.9746C92.5898 95.9746 92.8906 95.9609 93.0684 95.9473V97.041C92.8906 97.0684 92.5898 97.0957 92.248 97.0957C91.2637 97.0957 90.2109 96.4805 90.2109 95.168V90.5605H89.0898V89.5762H90.2109V87.7988H91.4004V89.5762H92.959ZM97.4434 97.1504C95.4199 97.1504 94.0527 95.6328 94.0527 93.3223C94.0527 91.0117 95.4199 89.4805 97.4434 89.4805C99.4531 89.4805 100.807 91.0117 100.807 93.3223C100.807 95.6328 99.4531 97.1504 97.4434 97.1504ZM97.4434 96.1113C98.9336 96.1113 99.6309 94.7988 99.6309 93.3223C99.6309 91.8457 98.9336 90.5195 97.4434 90.5195C95.9258 90.5195 95.2285 91.8457 95.2285 93.3223C95.2285 94.7988 95.9258 96.1113 97.4434 96.1113ZM106.016 97V87.1016H107.191V90.752H107.287C107.547 90.3555 107.984 89.4805 109.434 89.4805C111.293 89.4805 112.605 90.957 112.605 93.3086C112.605 95.6602 111.293 97.1504 109.447 97.1504C108.025 97.1504 107.547 96.2754 107.287 95.8652H107.15V97H106.016ZM107.164 93.2812C107.164 94.9492 107.916 96.0977 109.27 96.0977C110.678 96.0977 111.416 94.8672 111.416 93.2812C111.416 91.7363 110.705 90.5332 109.27 90.5332C107.902 90.5332 107.164 91.6406 107.164 93.2812ZM113.781 94.8945C113.781 93.1855 115.285 92.8027 116.57 92.707C117.042 92.6729 118.245 92.6113 118.58 92.5977V91.9961C118.58 91.0527 118.02 90.5059 116.898 90.5059C115.955 90.5059 115.395 90.9434 115.23 91.5039H114C114.15 90.3145 115.312 89.4805 116.953 89.4805C117.924 89.4805 119.742 89.7676 119.742 92.1055V97H118.58V95.9883H118.525C118.279 96.4941 117.596 97.1777 116.311 97.1777C114.902 97.1777 113.781 96.3438 113.781 94.8945ZM114.957 94.9492C114.957 95.7285 115.613 96.125 116.516 96.125C117.842 96.125 118.58 95.2363 118.58 94.3066V93.5547L116.707 93.6914C115.641 93.7598 114.957 94.1426 114.957 94.9492ZM124.664 97.1504C122.559 97.1504 121.273 95.5508 121.273 93.3223C121.273 91.0664 122.613 89.4805 124.637 89.4805C126.223 89.4805 127.398 90.4102 127.59 91.8184H126.414C126.25 91.1348 125.648 90.5195 124.664 90.5195C123.338 90.5195 122.449 91.6133 122.449 93.2812C122.449 95.0039 123.311 96.0977 124.664 96.0977C125.539 96.0977 126.209 95.6328 126.414 94.8125H127.59C127.398 96.1387 126.318 97.1504 124.664 97.1504ZM129.039 97V87.1016H130.215V92.8574H130.352L133.564 89.5762H135.014L131.883 92.748L135.246 97H133.756L131.008 93.5L130.215 94.2246V97H129.039ZM140.961 93.9512V89.5762H142.123V97H140.961V95.7422H140.879C140.523 96.4941 139.799 97.0957 138.678 97.0957C137.27 97.0957 136.271 96.1797 136.271 94.293V89.5762H137.447V94.2109C137.447 95.2773 138.117 95.9609 139.061 95.9609C139.895 95.9609 140.961 95.332 140.961 93.9512ZM144.01 99.7891V89.5762H145.145V90.752H145.281C145.527 90.3555 145.992 89.4805 147.428 89.4805C149.287 89.4805 150.586 90.957 150.586 93.3086C150.586 95.6602 149.287 97.1504 147.441 97.1504C146.02 97.1504 145.527 96.2754 145.281 95.8652H145.186V99.7891H144.01ZM145.158 93.2812C145.158 94.9492 145.91 96.0977 147.277 96.0977C148.686 96.0977 149.41 94.8672 149.41 93.2812C149.41 91.7363 148.699 90.5332 147.277 90.5332C145.883 90.5332 145.158 91.6406 145.158 93.2812Z" fill="var(--sol-element-primary)"/>
<path d="M73.3125 115H72.2109L75.3164 106.516H76.4297L79.5352 115H78.4219L77.5781 112.609H74.168L73.3125 115ZM74.4844 111.684H77.25L75.9023 107.887H75.832L74.4844 111.684ZM84.5742 112.387V108.637H85.5703V115H84.5742V113.922H84.5039C84.1992 114.566 83.5781 115.082 82.6172 115.082C81.4102 115.082 80.5547 114.297 80.5547 112.68V108.637H81.5625V112.609C81.5625 113.523 82.1367 114.109 82.9453 114.109C83.6602 114.109 84.5742 113.57 84.5742 112.387ZM89.9648 108.637V109.48H88.6289V113.172C88.6289 113.992 89.0273 114.121 89.4609 114.121C89.6484 114.121 89.9062 114.109 90.0586 114.098V115.035C89.9062 115.059 89.6484 115.082 89.3555 115.082C88.5117 115.082 87.6094 114.555 87.6094 113.43V109.48H86.6484V108.637H87.6094V107.113H88.6289V108.637H89.9648ZM93.8086 115.129C92.0742 115.129 90.9023 113.828 90.9023 111.848C90.9023 109.867 92.0742 108.555 93.8086 108.555C95.5312 108.555 96.6914 109.867 96.6914 111.848C96.6914 113.828 95.5312 115.129 93.8086 115.129ZM93.8086 114.238C95.0859 114.238 95.6836 113.113 95.6836 111.848C95.6836 110.582 95.0859 109.445 93.8086 109.445C92.5078 109.445 91.9102 110.582 91.9102 111.848C91.9102 113.113 92.5078 114.238 93.8086 114.238ZM98.0156 115V108.637H98.9883V109.633H99.0703C99.3398 108.953 99.9492 108.555 100.781 108.555C101.613 108.555 102.176 108.953 102.48 109.633H102.551C102.879 108.977 103.547 108.555 104.461 108.555C105.598 108.555 106.406 109.246 106.406 110.746V115H105.398V110.758C105.398 109.82 104.801 109.457 104.109 109.457C103.219 109.457 102.715 110.055 102.715 110.863V115H101.695V110.652C101.695 109.938 101.18 109.457 100.453 109.457C99.6914 109.457 99.0234 110.102 99.0234 111.027V115H98.0156ZM107.719 113.195C107.719 111.73 109.008 111.402 110.109 111.32C110.514 111.291 111.545 111.238 111.832 111.227V110.711C111.832 109.902 111.352 109.434 110.391 109.434C109.582 109.434 109.102 109.809 108.961 110.289H107.906C108.035 109.27 109.031 108.555 110.438 108.555C111.27 108.555 112.828 108.801 112.828 110.805V115H111.832V114.133H111.785C111.574 114.566 110.988 115.152 109.887 115.152C108.68 115.152 107.719 114.438 107.719 113.195ZM108.727 113.242C108.727 113.91 109.289 114.25 110.062 114.25C111.199 114.25 111.832 113.488 111.832 112.691V112.047L110.227 112.164C109.312 112.223 108.727 112.551 108.727 113.242ZM117.223 108.637V109.48H115.887V113.172C115.887 113.992 116.285 114.121 116.719 114.121C116.906 114.121 117.164 114.109 117.316 114.098V115.035C117.164 115.059 116.906 115.082 116.613 115.082C115.77 115.082 114.867 114.555 114.867 113.43V109.48H113.906V108.637H114.867V107.113H115.887V108.637H117.223ZM118.523 115V108.637H119.531V115H118.523ZM119.027 107.582C118.641 107.582 118.324 107.289 118.324 106.914C118.324 106.539 118.641 106.246 119.027 106.246C119.414 106.246 119.742 106.539 119.742 106.914C119.742 107.289 119.414 107.582 119.027 107.582ZM123.738 115.129C121.934 115.129 120.832 113.758 120.832 111.848C120.832 109.914 121.98 108.555 123.715 108.555C125.074 108.555 126.082 109.352 126.246 110.559H125.238C125.098 109.973 124.582 109.445 123.738 109.445C122.602 109.445 121.84 110.383 121.84 111.812C121.84 113.289 122.578 114.227 123.738 114.227C124.488 114.227 125.062 113.828 125.238 113.125H126.246C126.082 114.262 125.156 115.129 123.738 115.129ZM127.184 113.195C127.184 111.73 128.473 111.402 129.574 111.32C129.979 111.291 131.01 111.238 131.297 111.227V110.711C131.297 109.902 130.816 109.434 129.855 109.434C129.047 109.434 128.566 109.809 128.426 110.289H127.371C127.5 109.27 128.496 108.555 129.902 108.555C130.734 108.555 132.293 108.801 132.293 110.805V115H131.297V114.133H131.25C131.039 114.566 130.453 115.152 129.352 115.152C128.145 115.152 127.184 114.438 127.184 113.195ZM128.191 113.242C128.191 113.91 128.754 114.25 129.527 114.25C130.664 114.25 131.297 113.488 131.297 112.691V112.047L129.691 112.164C128.777 112.223 128.191 112.551 128.191 113.242ZM134.918 106.516V115H133.91V106.516H134.918ZM137.531 106.516V115H136.523V106.516H137.531ZM139.781 117.391C139.559 117.391 139.348 117.379 139.219 117.367V116.465C139.324 116.477 139.559 116.488 139.711 116.488C140.121 116.488 140.461 116.453 140.801 115.527L140.988 115.047L138.633 108.637H139.734L141.469 113.688H141.539L143.273 108.637H144.375L141.68 115.914C141.305 116.91 140.684 117.391 139.781 117.391ZM148.629 115V106.516H149.637V109.645H149.719C149.941 109.305 150.316 108.555 151.559 108.555C153.152 108.555 154.277 109.82 154.277 111.836C154.277 113.852 153.152 115.129 151.57 115.129C150.352 115.129 149.941 114.379 149.719 114.027H149.602V115H148.629ZM149.613 111.812C149.613 113.242 150.258 114.227 151.418 114.227C152.625 114.227 153.258 113.172 153.258 111.812C153.258 110.488 152.648 109.457 151.418 109.457C150.246 109.457 149.613 110.406 149.613 111.812ZM155.285 113.195C155.285 111.73 156.574 111.402 157.676 111.32C158.08 111.291 159.111 111.238 159.398 111.227V110.711C159.398 109.902 158.918 109.434 157.957 109.434C157.148 109.434 156.668 109.809 156.527 110.289H155.473C155.602 109.27 156.598 108.555 158.004 108.555C158.836 108.555 160.395 108.801 160.395 110.805V115H159.398V114.133H159.352C159.141 114.566 158.555 115.152 157.453 115.152C156.246 115.152 155.285 114.438 155.285 113.195ZM156.293 113.242C156.293 113.91 156.855 114.25 157.629 114.25C158.766 114.25 159.398 113.488 159.398 112.691V112.047L157.793 112.164C156.879 112.223 156.293 112.551 156.293 113.242ZM164.613 115.129C162.809 115.129 161.707 113.758 161.707 111.848C161.707 109.914 162.855 108.555 164.59 108.555C165.949 108.555 166.957 109.352 167.121 110.559H166.113C165.973 109.973 165.457 109.445 164.613 109.445C163.477 109.445 162.715 110.383 162.715 111.812C162.715 113.289 163.453 114.227 164.613 114.227C165.363 114.227 165.938 113.828 166.113 113.125H167.121C166.957 114.262 166.031 115.129 164.613 115.129ZM168.363 115V106.516H169.371V111.449H169.488L172.242 108.637H173.484L170.801 111.355L173.684 115H172.406L170.051 112L169.371 112.621V115H168.363ZM181.594 112.387V108.637H182.59V115H181.594V113.922H181.523C181.219 114.566 180.598 115.082 179.637 115.082C178.43 115.082 177.574 114.297 177.574 112.68V108.637H178.582V112.609C178.582 113.523 179.156 114.109 179.965 114.109C180.68 114.109 181.594 113.57 181.594 112.387ZM184.207 117.391V108.637H185.18V109.645H185.297C185.508 109.305 185.906 108.555 187.137 108.555C188.73 108.555 189.844 109.82 189.844 111.836C189.844 113.852 188.73 115.129 187.148 115.129C185.93 115.129 185.508 114.379 185.297 114.027H185.215V117.391H184.207ZM185.191 111.812C185.191 113.242 185.836 114.227 187.008 114.227C188.215 114.227 188.836 113.172 188.836 111.812C188.836 110.488 188.227 109.457 187.008 109.457C185.812 109.457 185.191 110.406 185.191 111.812ZM196.57 115.129C194.988 115.129 193.863 113.852 193.863 111.836C193.863 109.82 194.988 108.555 196.582 108.555C197.812 108.555 198.211 109.305 198.422 109.645H198.492V106.516H199.512V115H198.527V114.027H198.422C198.199 114.379 197.789 115.129 196.57 115.129ZM196.711 114.227C197.871 114.227 198.527 113.242 198.527 111.812C198.527 110.406 197.895 109.457 196.711 109.457C195.492 109.457 194.883 110.488 194.883 111.812C194.883 113.172 195.504 114.227 196.711 114.227ZM200.953 113.195C200.953 111.73 202.242 111.402 203.344 111.32C203.748 111.291 204.779 111.238 205.066 111.227V110.711C205.066 109.902 204.586 109.434 203.625 109.434C202.816 109.434 202.336 109.809 202.195 110.289H201.141C201.27 109.27 202.266 108.555 203.672 108.555C204.504 108.555 206.062 108.801 206.062 110.805V115H205.066V114.133H205.02C204.809 114.566 204.223 115.152 203.121 115.152C201.914 115.152 200.953 114.438 200.953 113.195ZM201.961 113.242C201.961 113.91 202.523 114.25 203.297 114.25C204.434 114.25 205.066 113.488 205.066 112.691V112.047L203.461 112.164C202.547 112.223 201.961 112.551 201.961 113.242ZM210.457 108.637V109.48H209.121V113.172C209.121 113.992 209.52 114.121 209.953 114.121C210.141 114.121 210.398 114.109 210.551 114.098V115.035C210.398 115.059 210.141 115.082 209.848 115.082C209.004 115.082 208.102 114.555 208.102 113.43V109.48H207.141V108.637H208.102V107.113H209.121V108.637H210.457ZM211.453 113.195C211.453 111.73 212.742 111.402 213.844 111.32C214.248 111.291 215.279 111.238 215.566 111.227V110.711C215.566 109.902 215.086 109.434 214.125 109.434C213.316 109.434 212.836 109.809 212.695 110.289H211.641C211.77 109.27 212.766 108.555 214.172 108.555C215.004 108.555 216.562 108.801 216.562 110.805V115H215.566V114.133H215.52C215.309 114.566 214.723 115.152 213.621 115.152C212.414 115.152 211.453 114.438 211.453 113.195ZM212.461 113.242C212.461 113.91 213.023 114.25 213.797 114.25C214.934 114.25 215.566 113.488 215.566 112.691V112.047L213.961 112.164C213.047 112.223 212.461 112.551 212.461 113.242ZM223.863 115.129C222.023 115.129 220.887 113.828 220.887 111.871C220.887 109.914 222.035 108.555 223.77 108.555C225.105 108.555 226.512 109.375 226.512 111.73V112.152H221.895C221.941 113.5 222.727 114.238 223.863 114.238C224.625 114.238 225.105 113.91 225.34 113.512H226.418C226.113 114.473 225.176 115.129 223.863 115.129ZM221.906 111.297H225.492C225.492 110.23 224.812 109.445 223.77 109.445C222.668 109.445 221.965 110.312 221.906 111.297ZM232.863 108.637L230.508 115H229.465L227.121 108.637H228.223L229.957 113.688H230.027L231.762 108.637H232.863ZM236.414 115.129C234.574 115.129 233.438 113.828 233.438 111.871C233.438 109.914 234.586 108.555 236.32 108.555C237.656 108.555 239.062 109.375 239.062 111.73V112.152H234.445C234.492 113.5 235.277 114.238 236.414 114.238C237.176 114.238 237.656 113.91 237.891 113.512H238.969C238.664 114.473 237.727 115.129 236.414 115.129ZM234.457 111.297H238.043C238.043 110.23 237.363 109.445 236.32 109.445C235.219 109.445 234.516 110.312 234.457 111.297ZM240.375 115V108.637H241.348V109.609H241.418C241.652 108.965 242.309 108.531 243.059 108.531C243.211 108.531 243.469 108.543 243.586 108.555V109.574C243.516 109.551 243.234 109.504 242.977 109.504C242.062 109.504 241.383 110.137 241.383 110.992V115H240.375ZM245.414 117.391C245.191 117.391 244.98 117.379 244.852 117.367V116.465C244.957 116.477 245.191 116.488 245.344 116.488C245.754 116.488 246.094 116.453 246.434 115.527L246.621 115.047L244.266 108.637H245.367L247.102 113.688H247.172L248.906 108.637H250.008L247.312 115.914C246.938 116.91 246.316 117.391 245.414 117.391ZM256.535 115.129C254.953 115.129 253.828 113.852 253.828 111.836C253.828 109.82 254.953 108.555 256.547 108.555C257.777 108.555 258.176 109.305 258.387 109.645H258.457V106.516H259.477V115H258.492V114.027H258.387C258.164 114.379 257.754 115.129 256.535 115.129ZM256.676 114.227C257.836 114.227 258.492 113.242 258.492 111.812C258.492 110.406 257.859 109.457 256.676 109.457C255.457 109.457 254.848 110.488 254.848 111.812C254.848 113.172 255.469 114.227 256.676 114.227ZM260.918 113.195C260.918 111.73 262.207 111.402 263.309 111.32C263.713 111.291 264.744 111.238 265.031 111.227V110.711C265.031 109.902 264.551 109.434 263.59 109.434C262.781 109.434 262.301 109.809 262.16 110.289H261.105C261.234 109.27 262.23 108.555 263.637 108.555C264.469 108.555 266.027 108.801 266.027 110.805V115H265.031V114.133H264.984C264.773 114.566 264.188 115.152 263.086 115.152C261.879 115.152 260.918 114.438 260.918 113.195ZM261.926 113.242C261.926 113.91 262.488 114.25 263.262 114.25C264.398 114.25 265.031 113.488 265.031 112.691V112.047L263.426 112.164C262.512 112.223 261.926 112.551 261.926 113.242ZM268.055 117.391C267.832 117.391 267.621 117.379 267.492 117.367V116.465C267.598 116.477 267.832 116.488 267.984 116.488C268.395 116.488 268.734 116.453 269.074 115.527L269.262 115.047L266.906 108.637H268.008L269.742 113.688H269.812L271.547 108.637H272.648L269.953 115.914C269.578 116.91 268.957 117.391 268.055 117.391ZM274.078 115.07C273.668 115.07 273.316 114.73 273.328 114.309C273.316 113.898 273.668 113.559 274.078 113.559C274.488 113.559 274.828 113.898 274.828 114.309C274.828 114.73 274.488 115.07 274.078 115.07ZM73.3125 129H72.2109L75.3164 120.516H76.4297L79.5352 129H78.4219L77.5781 126.609H74.168L73.3125 129ZM74.4844 125.684H77.25L75.9023 121.887H75.832L74.4844 125.684ZM82.9453 129.129C81.3633 129.129 80.2383 127.852 80.2383 125.836C80.2383 123.82 81.3633 122.555 82.957 122.555C84.1875 122.555 84.5859 123.305 84.7969 123.645H84.8672V120.516H85.8867V129H84.9023V128.027H84.7969C84.5742 128.379 84.1641 129.129 82.9453 129.129ZM83.0859 128.227C84.2461 128.227 84.9023 127.242 84.9023 125.812C84.9023 124.406 84.2695 123.457 83.0859 123.457C81.8672 123.457 81.2578 124.488 81.2578 125.812C81.2578 127.172 81.8789 128.227 83.0859 128.227ZM90.0352 129.129C88.4531 129.129 87.3281 127.852 87.3281 125.836C87.3281 123.82 88.4531 122.555 90.0469 122.555C91.2773 122.555 91.6758 123.305 91.8867 123.645H91.957V120.516H92.9766V129H91.9922V128.027H91.8867C91.6641 128.379 91.2539 129.129 90.0352 129.129ZM90.1758 128.227C91.3359 128.227 91.9922 127.242 91.9922 125.812C91.9922 124.406 91.3594 123.457 90.1758 123.457C88.957 123.457 88.3477 124.488 88.3477 125.812C88.3477 127.172 88.9688 128.227 90.1758 128.227ZM94.7227 129V122.637H95.7305V129H94.7227ZM95.2266 121.582C94.8398 121.582 94.5234 121.289 94.5234 120.914C94.5234 120.539 94.8398 120.246 95.2266 120.246C95.6133 120.246 95.9414 120.539 95.9414 120.914C95.9414 121.289 95.6133 121.582 95.2266 121.582ZM100.113 122.637V123.48H98.7773V127.172C98.7773 127.992 99.1758 128.121 99.6094 128.121C99.7969 128.121 100.055 128.109 100.207 128.098V129.035C100.055 129.059 99.7969 129.082 99.5039 129.082C98.6602 129.082 97.7578 128.555 97.7578 127.43V123.48H96.7969V122.637H97.7578V121.113H98.7773V122.637H100.113ZM101.414 129V122.637H102.422V129H101.414ZM101.918 121.582C101.531 121.582 101.215 121.289 101.215 120.914C101.215 120.539 101.531 120.246 101.918 120.246C102.305 120.246 102.633 120.539 102.633 120.914C102.633 121.289 102.305 121.582 101.918 121.582ZM106.629 129.129C104.895 129.129 103.723 127.828 103.723 125.848C103.723 123.867 104.895 122.555 106.629 122.555C108.352 122.555 109.512 123.867 109.512 125.848C109.512 127.828 108.352 129.129 106.629 129.129ZM106.629 128.238C107.906 128.238 108.504 127.113 108.504 125.848C108.504 124.582 107.906 123.445 106.629 123.445C105.328 123.445 104.73 124.582 104.73 125.848C104.73 127.113 105.328 128.238 106.629 128.238ZM111.844 125.18V129H110.836V122.637H111.809V123.633H111.891C112.195 122.988 112.781 122.555 113.754 122.555C115.043 122.555 115.898 123.34 115.898 124.957V129H114.891V125.027C114.891 124.043 114.352 123.457 113.449 123.457C112.523 123.457 111.844 124.078 111.844 125.18ZM117.211 127.195C117.211 125.73 118.5 125.402 119.602 125.32C120.006 125.291 121.037 125.238 121.324 125.227V124.711C121.324 123.902 120.844 123.434 119.883 123.434C119.074 123.434 118.594 123.809 118.453 124.289H117.398C117.527 123.27 118.523 122.555 119.93 122.555C120.762 122.555 122.32 122.801 122.32 124.805V129H121.324V128.133H121.277C121.066 128.566 120.48 129.152 119.379 129.152C118.172 129.152 117.211 128.438 117.211 127.195ZM118.219 127.242C118.219 127.91 118.781 128.25 119.555 128.25C120.691 128.25 121.324 127.488 121.324 126.691V126.047L119.719 126.164C118.805 126.223 118.219 126.551 118.219 127.242ZM124.945 120.516V129H123.938V120.516H124.945ZM133.102 124.289C132.961 123.762 132.562 123.41 131.812 123.41C131.027 123.41 130.465 123.832 130.465 124.371C130.465 124.793 130.805 125.086 131.555 125.262L132.504 125.496C133.641 125.766 134.203 126.328 134.203 127.219C134.203 128.32 133.301 129.129 131.707 129.129C130.277 129.129 129.422 128.496 129.258 127.336H130.312C130.43 127.957 130.887 128.25 131.684 128.25C132.586 128.25 133.16 127.875 133.16 127.277C133.16 126.832 132.844 126.527 132.117 126.363L131.156 126.141C130.043 125.883 129.457 125.273 129.457 124.43C129.457 123.34 130.406 122.555 131.812 122.555C133.125 122.555 133.957 123.258 134.086 124.289H133.102ZM138.293 122.637V123.48H136.957V127.172C136.957 127.992 137.355 128.121 137.789 128.121C137.977 128.121 138.234 128.109 138.387 128.098V129.035C138.234 129.059 137.977 129.082 137.684 129.082C136.84 129.082 135.938 128.555 135.938 127.43V123.48H134.977V122.637H135.938V121.113H136.957V122.637H138.293ZM142.137 129.129C140.402 129.129 139.23 127.828 139.23 125.848C139.23 123.867 140.402 122.555 142.137 122.555C143.859 122.555 145.02 123.867 145.02 125.848C145.02 127.828 143.859 129.129 142.137 129.129ZM142.137 128.238C143.414 128.238 144.012 127.113 144.012 125.848C144.012 124.582 143.414 123.445 142.137 123.445C140.836 123.445 140.238 124.582 140.238 125.848C140.238 127.113 140.836 128.238 142.137 128.238ZM146.344 129V122.637H147.316V123.609H147.387C147.621 122.965 148.277 122.531 149.027 122.531C149.18 122.531 149.438 122.543 149.555 122.555V123.574C149.484 123.551 149.203 123.504 148.945 123.504C148.031 123.504 147.352 124.137 147.352 124.992V129H146.344ZM150.234 127.195C150.234 125.73 151.523 125.402 152.625 125.32C153.029 125.291 154.061 125.238 154.348 125.227V124.711C154.348 123.902 153.867 123.434 152.906 123.434C152.098 123.434 151.617 123.809 151.477 124.289H150.422C150.551 123.27 151.547 122.555 152.953 122.555C153.785 122.555 155.344 122.801 155.344 124.805V129H154.348V128.133H154.301C154.09 128.566 153.504 129.152 152.402 129.152C151.195 129.152 150.234 128.438 150.234 127.195ZM151.242 127.242C151.242 127.91 151.805 128.25 152.578 128.25C153.715 128.25 154.348 127.488 154.348 126.691V126.047L152.742 126.164C151.828 126.223 151.242 126.551 151.242 127.242ZM159.539 131.52C158.004 131.52 156.961 130.852 156.844 129.668H157.898C158.039 130.312 158.637 130.641 159.539 130.641C160.629 130.641 161.297 130.172 161.297 129.117V127.828H161.215C161.004 128.18 160.594 128.906 159.363 128.906C157.816 128.906 156.656 127.734 156.656 125.73C156.656 123.773 157.781 122.555 159.375 122.555C160.605 122.555 161.004 123.305 161.238 123.645H161.32V122.637H162.305V129.176C162.305 130.816 161.086 131.52 159.539 131.52ZM159.504 128.004C160.664 128.004 161.32 127.172 161.32 125.766C161.32 124.406 160.688 123.457 159.504 123.457C158.285 123.457 157.676 124.488 157.676 125.766C157.676 127.09 158.297 128.004 159.504 128.004ZM166.582 129.129C164.742 129.129 163.605 127.828 163.605 125.871C163.605 123.914 164.754 122.555 166.488 122.555C167.824 122.555 169.23 123.375 169.23 125.73V126.152H164.613C164.66 127.5 165.445 128.238 166.582 128.238C167.344 128.238 167.824 127.91 168.059 127.512H169.137C168.832 128.473 167.895 129.129 166.582 129.129ZM164.625 125.297H168.211C168.211 124.23 167.531 123.445 166.488 123.445C165.387 123.445 164.684 124.312 164.625 125.297ZM176.156 129.129C174.352 129.129 173.25 127.758 173.25 125.848C173.25 123.914 174.398 122.555 176.133 122.555C177.492 122.555 178.5 123.352 178.664 124.559H177.656C177.516 123.973 177 123.445 176.156 123.445C175.02 123.445 174.258 124.383 174.258 125.812C174.258 127.289 174.996 128.227 176.156 128.227C176.906 128.227 177.48 127.828 177.656 127.125H178.664C178.5 128.262 177.574 129.129 176.156 129.129ZM182.508 129.129C180.773 129.129 179.602 127.828 179.602 125.848C179.602 123.867 180.773 122.555 182.508 122.555C184.23 122.555 185.391 123.867 185.391 125.848C185.391 127.828 184.23 129.129 182.508 129.129ZM182.508 128.238C183.785 128.238 184.383 127.113 184.383 125.848C184.383 124.582 183.785 123.445 182.508 123.445C181.207 123.445 180.609 124.582 180.609 125.848C180.609 127.113 181.207 128.238 182.508 128.238ZM190.254 124.289C190.113 123.762 189.715 123.41 188.965 123.41C188.18 123.41 187.617 123.832 187.617 124.371C187.617 124.793 187.957 125.086 188.707 125.262L189.656 125.496C190.793 125.766 191.355 126.328 191.355 127.219C191.355 128.32 190.453 129.129 188.859 129.129C187.43 129.129 186.574 128.496 186.41 127.336H187.465C187.582 127.957 188.039 128.25 188.836 128.25C189.738 128.25 190.312 127.875 190.312 127.277C190.312 126.832 189.996 126.527 189.27 126.363L188.309 126.141C187.195 125.883 186.609 125.273 186.609 124.43C186.609 123.34 187.559 122.555 188.965 122.555C190.277 122.555 191.109 123.258 191.238 124.289H190.254ZM195.445 122.637V123.48H194.109V127.172C194.109 127.992 194.508 128.121 194.941 128.121C195.129 128.121 195.387 128.109 195.539 128.098V129.035C195.387 129.059 195.129 129.082 194.836 129.082C193.992 129.082 193.09 128.555 193.09 127.43V123.48H192.129V122.637H193.09V121.113H194.109V122.637H195.445ZM200.168 124.289C200.027 123.762 199.629 123.41 198.879 123.41C198.094 123.41 197.531 123.832 197.531 124.371C197.531 124.793 197.871 125.086 198.621 125.262L199.57 125.496C200.707 125.766 201.27 126.328 201.27 127.219C201.27 128.32 200.367 129.129 198.773 129.129C197.344 129.129 196.488 128.496 196.324 127.336H197.379C197.496 127.957 197.953 128.25 198.75 128.25C199.652 128.25 200.227 127.875 200.227 127.277C200.227 126.832 199.91 126.527 199.184 126.363L198.223 126.141C197.109 125.883 196.523 125.273 196.523 124.43C196.523 123.34 197.473 122.555 198.879 122.555C200.191 122.555 201.023 123.258 201.152 124.289H200.168ZM205.594 129V122.637H206.566V123.633H206.648C206.918 122.953 207.527 122.555 208.359 122.555C209.191 122.555 209.754 122.953 210.059 123.633H210.129C210.457 122.977 211.125 122.555 212.039 122.555C213.176 122.555 213.984 123.246 213.984 124.746V129H212.977V124.758C212.977 123.82 212.379 123.457 211.688 123.457C210.797 123.457 210.293 124.055 210.293 124.863V129H209.273V124.652C209.273 123.938 208.758 123.457 208.031 123.457C207.27 123.457 206.602 124.102 206.602 125.027V129H205.594ZM215.297 127.195C215.297 125.73 216.586 125.402 217.688 125.32C218.092 125.291 219.123 125.238 219.41 125.227V124.711C219.41 123.902 218.93 123.434 217.969 123.434C217.16 123.434 216.68 123.809 216.539 124.289H215.484C215.613 123.27 216.609 122.555 218.016 122.555C218.848 122.555 220.406 122.801 220.406 124.805V129H219.41V128.133H219.363C219.152 128.566 218.566 129.152 217.465 129.152C216.258 129.152 215.297 128.438 215.297 127.195ZM216.305 127.242C216.305 127.91 216.867 128.25 217.641 128.25C218.777 128.25 219.41 127.488 219.41 126.691V126.047L217.805 126.164C216.891 126.223 216.305 126.551 216.305 127.242ZM222.434 131.391C222.211 131.391 222 131.379 221.871 131.367V130.465C221.977 130.477 222.211 130.488 222.363 130.488C222.773 130.488 223.113 130.453 223.453 129.527L223.641 129.047L221.285 122.637H222.387L224.121 127.688H224.191L225.926 122.637H227.027L224.332 129.914C223.957 130.91 223.336 131.391 222.434 131.391ZM230.848 127.195C230.848 125.73 232.137 125.402 233.238 125.32C233.643 125.291 234.674 125.238 234.961 125.227V124.711C234.961 123.902 234.48 123.434 233.52 123.434C232.711 123.434 232.23 123.809 232.09 124.289H231.035C231.164 123.27 232.16 122.555 233.566 122.555C234.398 122.555 235.957 122.801 235.957 124.805V129H234.961V128.133H234.914C234.703 128.566 234.117 129.152 233.016 129.152C231.809 129.152 230.848 128.438 230.848 127.195ZM231.855 127.242C231.855 127.91 232.418 128.25 233.191 128.25C234.328 128.25 234.961 127.488 234.961 126.691V126.047L233.355 126.164C232.441 126.223 231.855 126.551 231.855 127.242ZM237.574 131.391V122.637H238.547V123.645H238.664C238.875 123.305 239.273 122.555 240.504 122.555C242.098 122.555 243.211 123.82 243.211 125.836C243.211 127.852 242.098 129.129 240.516 129.129C239.297 129.129 238.875 128.379 238.664 128.027H238.582V131.391H237.574ZM238.559 125.812C238.559 127.242 239.203 128.227 240.375 128.227C241.582 128.227 242.203 127.172 242.203 125.812C242.203 124.488 241.594 123.457 240.375 123.457C239.18 123.457 238.559 124.406 238.559 125.812ZM244.523 131.391V122.637H245.496V123.645H245.613C245.824 123.305 246.223 122.555 247.453 122.555C249.047 122.555 250.16 123.82 250.16 125.836C250.16 127.852 249.047 129.129 247.465 129.129C246.246 129.129 245.824 128.379 245.613 128.027H245.531V131.391H244.523ZM245.508 125.812C245.508 127.242 246.152 128.227 247.324 128.227C248.531 128.227 249.152 127.172 249.152 125.812C249.152 124.488 248.543 123.457 247.324 123.457C246.129 123.457 245.508 124.406 245.508 125.812ZM252.48 120.516V129H251.473V120.516H252.48ZM254.73 131.391C254.508 131.391 254.297 131.379 254.168 131.367V130.465C254.273 130.477 254.508 130.488 254.66 130.488C255.07 130.488 255.41 130.453 255.75 129.527L255.938 129.047L253.582 122.637H254.684L256.418 127.688H256.488L258.223 122.637H259.324L256.629 129.914C256.254 130.91 255.633 131.391 254.73 131.391ZM260.754 129.07C260.344 129.07 259.992 128.73 260.004 128.309C259.992 127.898 260.344 127.559 260.754 127.559C261.164 127.559 261.504 127.898 261.504 128.309C261.504 128.73 261.164 129.07 260.754 129.07Z" fill="var(--sol-element-tertiary)"/>
<g clip-path="url(#clip3_1670_180063)">
<rect x="340" y="97" width="30" height="20" rx="10" fill="var(--sol-fill-active)"/>
<circle cx="360" cy="107" r="7" fill="var(--sol-surface)"/>
</g>
<path d="M73.0938 167V157.102H76.457C78.7812 157.102 79.834 158.482 79.834 160.246C79.834 161.996 78.7812 163.404 76.4707 163.404H74.3242V167H73.0938ZM74.3242 162.311H76.416C77.9883 162.311 78.6172 161.422 78.6172 160.246C78.6172 159.057 77.9883 158.195 76.4023 158.195H74.3242V162.311ZM81.4062 167V159.576H82.541V160.711H82.623C82.8965 159.959 83.6621 159.453 84.5371 159.453C84.7148 159.453 85.0156 159.467 85.1523 159.48V160.67C85.0703 160.643 84.7422 160.588 84.4414 160.588C83.375 160.588 82.582 161.326 82.582 162.324V167H81.4062ZM86.3008 167V159.576H87.4766V167H86.3008ZM86.8887 158.346C86.4375 158.346 86.0684 158.004 86.0684 157.566C86.0684 157.129 86.4375 156.787 86.8887 156.787C87.3398 156.787 87.7227 157.129 87.7227 157.566C87.7227 158.004 87.3398 158.346 86.8887 158.346ZM95.4609 159.576L92.7129 167H91.4961L88.7617 159.576H90.0469L92.0703 165.469H92.1523L94.1758 159.576H95.4609ZM96.1719 164.895C96.1719 163.186 97.6758 162.803 98.9609 162.707C99.4326 162.673 100.636 162.611 100.971 162.598V161.996C100.971 161.053 100.41 160.506 99.2891 160.506C98.3457 160.506 97.7852 160.943 97.6211 161.504H96.3906C96.541 160.314 97.7031 159.48 99.3438 159.48C100.314 159.48 102.133 159.768 102.133 162.105V167H100.971V165.988H100.916C100.67 166.494 99.9863 167.178 98.7012 167.178C97.293 167.178 96.1719 166.344 96.1719 164.895ZM97.3477 164.949C97.3477 165.729 98.0039 166.125 98.9062 166.125C100.232 166.125 100.971 165.236 100.971 164.307V163.555L99.0977 163.691C98.0312 163.76 97.3477 164.143 97.3477 164.949ZM107.26 159.576V160.561H105.701V164.867C105.701 165.824 106.166 165.975 106.672 165.975C106.891 165.975 107.191 165.961 107.369 165.947V167.041C107.191 167.068 106.891 167.096 106.549 167.096C105.564 167.096 104.512 166.48 104.512 165.168V160.561H103.391V159.576H104.512V157.799H105.701V159.576H107.26ZM111.826 167.15C109.68 167.15 108.354 165.633 108.354 163.35C108.354 161.066 109.693 159.48 111.717 159.48C113.275 159.48 114.916 160.438 114.916 163.186V163.678H109.529C109.584 165.25 110.5 166.111 111.826 166.111C112.715 166.111 113.275 165.729 113.549 165.264H114.807C114.451 166.385 113.357 167.15 111.826 167.15ZM109.543 162.68H113.727C113.727 161.436 112.934 160.52 111.717 160.52C110.432 160.52 109.611 161.531 109.543 162.68ZM119.961 167V159.576H121.096V160.738H121.191C121.506 159.945 122.217 159.48 123.188 159.48C124.158 159.48 124.814 159.945 125.17 160.738H125.252C125.635 159.973 126.414 159.48 127.48 159.48C128.807 159.48 129.75 160.287 129.75 162.037V167H128.574V162.051C128.574 160.957 127.877 160.533 127.07 160.533C126.031 160.533 125.443 161.23 125.443 162.174V167H124.254V161.928C124.254 161.094 123.652 160.533 122.805 160.533C121.916 160.533 121.137 161.285 121.137 162.365V167H119.961ZM134.672 167.15C132.648 167.15 131.281 165.633 131.281 163.322C131.281 161.012 132.648 159.48 134.672 159.48C136.682 159.48 138.035 161.012 138.035 163.322C138.035 165.633 136.682 167.15 134.672 167.15ZM134.672 166.111C136.162 166.111 136.859 164.799 136.859 163.322C136.859 161.846 136.162 160.52 134.672 160.52C133.154 160.52 132.457 161.846 132.457 163.322C132.457 164.799 133.154 166.111 134.672 166.111ZM142.383 167.15C140.537 167.15 139.225 165.66 139.225 163.309C139.225 160.957 140.537 159.48 142.396 159.48C143.832 159.48 144.297 160.355 144.543 160.752H144.625V157.102H145.814V167H144.666V165.865H144.543C144.283 166.275 143.805 167.15 142.383 167.15ZM142.547 166.098C143.9 166.098 144.666 164.949 144.666 163.281C144.666 161.641 143.928 160.533 142.547 160.533C141.125 160.533 140.414 161.736 140.414 163.281C140.414 164.867 141.139 166.098 142.547 166.098ZM150.969 167.15C148.822 167.15 147.496 165.633 147.496 163.35C147.496 161.066 148.836 159.48 150.859 159.48C152.418 159.48 154.059 160.438 154.059 163.186V163.678H148.672C148.727 165.25 149.643 166.111 150.969 166.111C151.857 166.111 152.418 165.729 152.691 165.264H153.949C153.594 166.385 152.5 167.15 150.969 167.15ZM148.686 162.68H152.869C152.869 161.436 152.076 160.52 150.859 160.52C149.574 160.52 148.754 161.531 148.686 162.68Z" fill="var(--sol-element-primary)"/>
<path d="M72.9375 185V176.516H73.9922V180.289H78.4805V176.516H79.5469V185H78.4805V181.215H73.9922V185H72.9375ZM81.2812 185V178.637H82.2891V185H81.2812ZM81.7852 177.582C81.3984 177.582 81.082 177.289 81.082 176.914C81.082 176.539 81.3984 176.246 81.7852 176.246C82.1719 176.246 82.5 176.539 82.5 176.914C82.5 177.289 82.1719 177.582 81.7852 177.582ZM86.2969 185.129C84.7148 185.129 83.5898 183.852 83.5898 181.836C83.5898 179.82 84.7148 178.555 86.3086 178.555C87.5391 178.555 87.9375 179.305 88.1484 179.645H88.2188V176.516H89.2383V185H88.2539V184.027H88.1484C87.9258 184.379 87.5156 185.129 86.2969 185.129ZM86.4375 184.227C87.5977 184.227 88.2539 183.242 88.2539 181.812C88.2539 180.406 87.6211 179.457 86.4375 179.457C85.2188 179.457 84.6094 180.488 84.6094 181.812C84.6094 183.172 85.2305 184.227 86.4375 184.227ZM93.6562 185.129C91.8164 185.129 90.6797 183.828 90.6797 181.871C90.6797 179.914 91.8281 178.555 93.5625 178.555C94.8984 178.555 96.3047 179.375 96.3047 181.73V182.152H91.6875C91.7344 183.5 92.5195 184.238 93.6562 184.238C94.418 184.238 94.8984 183.91 95.1328 183.512H96.2109C95.9062 184.473 94.9688 185.129 93.6562 185.129ZM91.6992 181.297H95.2852C95.2852 180.23 94.6055 179.445 93.5625 179.445C92.4609 179.445 91.7578 180.312 91.6992 181.297ZM103.406 178.637V179.48H102.07V183.172C102.07 183.992 102.469 184.121 102.902 184.121C103.09 184.121 103.348 184.109 103.5 184.098V185.035C103.348 185.059 103.09 185.082 102.797 185.082C101.953 185.082 101.051 184.555 101.051 183.43V179.48H100.09V178.637H101.051V177.113H102.07V178.637H103.406ZM105.855 181.18V185H104.848V176.516H105.855V179.633H105.938C106.23 178.977 106.805 178.555 107.812 178.555C109.113 178.555 109.98 179.328 109.98 180.957V185H108.973V181.027C108.973 180.031 108.422 179.457 107.508 179.457C106.559 179.457 105.855 180.078 105.855 181.18ZM111.598 185V178.637H112.605V185H111.598ZM112.102 177.582C111.715 177.582 111.398 177.289 111.398 176.914C111.398 176.539 111.715 176.246 112.102 176.246C112.488 176.246 112.816 176.539 112.816 176.914C112.816 177.289 112.488 177.582 112.102 177.582ZM117.75 180.289C117.609 179.762 117.211 179.41 116.461 179.41C115.676 179.41 115.113 179.832 115.113 180.371C115.113 180.793 115.453 181.086 116.203 181.262L117.152 181.496C118.289 181.766 118.852 182.328 118.852 183.219C118.852 184.32 117.949 185.129 116.355 185.129C114.926 185.129 114.07 184.496 113.906 183.336H114.961C115.078 183.957 115.535 184.25 116.332 184.25C117.234 184.25 117.809 183.875 117.809 183.277C117.809 182.832 117.492 182.527 116.766 182.363L115.805 182.141C114.691 181.883 114.105 181.273 114.105 180.43C114.105 179.34 115.055 178.555 116.461 178.555C117.773 178.555 118.605 179.258 118.734 180.289H117.75ZM124.605 185L122.672 178.637H123.738L125.098 183.488H125.156L126.504 178.637H127.582L128.906 183.465H128.977L130.336 178.637H131.391L129.457 185H128.461L127.078 180.148H126.984L125.613 185H124.605ZM134.895 185.129C133.16 185.129 131.988 183.828 131.988 181.848C131.988 179.867 133.16 178.555 134.895 178.555C136.617 178.555 137.777 179.867 137.777 181.848C137.777 183.828 136.617 185.129 134.895 185.129ZM134.895 184.238C136.172 184.238 136.77 183.113 136.77 181.848C136.77 180.582 136.172 179.445 134.895 179.445C133.594 179.445 132.996 180.582 132.996 181.848C132.996 183.113 133.594 184.238 134.895 184.238ZM139.102 185V178.637H140.074V179.609H140.145C140.379 178.965 141.035 178.531 141.785 178.531C141.938 178.531 142.195 178.543 142.312 178.555V179.574C142.242 179.551 141.961 179.504 141.703 179.504C140.789 179.504 140.109 180.137 140.109 180.992V185H139.102ZM143.297 185V176.516H144.305V181.449H144.422L147.176 178.637H148.418L145.734 181.355L148.617 185H147.34L144.984 182L144.305 182.621V185H143.297ZM153.035 180.289C152.895 179.762 152.496 179.41 151.746 179.41C150.961 179.41 150.398 179.832 150.398 180.371C150.398 180.793 150.738 181.086 151.488 181.262L152.438 181.496C153.574 181.766 154.137 182.328 154.137 183.219C154.137 184.32 153.234 185.129 151.641 185.129C150.211 185.129 149.355 184.496 149.191 183.336H150.246C150.363 183.957 150.82 184.25 151.617 184.25C152.52 184.25 153.094 183.875 153.094 183.277C153.094 182.832 152.777 182.527 152.051 182.363L151.09 182.141C149.977 181.883 149.391 181.273 149.391 180.43C149.391 179.34 150.34 178.555 151.746 178.555C153.059 178.555 153.891 179.258 154.02 180.289H153.035ZM155.449 187.391V178.637H156.422V179.645H156.539C156.75 179.305 157.148 178.555 158.379 178.555C159.973 178.555 161.086 179.82 161.086 181.836C161.086 183.852 159.973 185.129 158.391 185.129C157.172 185.129 156.75 184.379 156.539 184.027H156.457V187.391H155.449ZM156.434 181.812C156.434 183.242 157.078 184.227 158.25 184.227C159.457 184.227 160.078 183.172 160.078 181.812C160.078 180.488 159.469 179.457 158.25 179.457C157.055 179.457 156.434 180.406 156.434 181.812ZM162.094 183.195C162.094 181.73 163.383 181.402 164.484 181.32C164.889 181.291 165.92 181.238 166.207 181.227V180.711C166.207 179.902 165.727 179.434 164.766 179.434C163.957 179.434 163.477 179.809 163.336 180.289H162.281C162.41 179.27 163.406 178.555 164.812 178.555C165.645 178.555 167.203 178.801 167.203 180.805V185H166.207V184.133H166.16C165.949 184.566 165.363 185.152 164.262 185.152C163.055 185.152 162.094 184.438 162.094 183.195ZM163.102 183.242C163.102 183.91 163.664 184.25 164.438 184.25C165.574 184.25 166.207 183.488 166.207 182.691V182.047L164.602 182.164C163.688 182.223 163.102 182.551 163.102 183.242ZM171.422 185.129C169.617 185.129 168.516 183.758 168.516 181.848C168.516 179.914 169.664 178.555 171.398 178.555C172.758 178.555 173.766 179.352 173.93 180.559H172.922C172.781 179.973 172.266 179.445 171.422 179.445C170.285 179.445 169.523 180.383 169.523 181.812C169.523 183.289 170.262 184.227 171.422 184.227C172.172 184.227 172.746 183.828 172.922 183.125H173.93C173.766 184.262 172.84 185.129 171.422 185.129ZM177.844 185.129C176.004 185.129 174.867 183.828 174.867 181.871C174.867 179.914 176.016 178.555 177.75 178.555C179.086 178.555 180.492 179.375 180.492 181.73V182.152H175.875C175.922 183.5 176.707 184.238 177.844 184.238C178.605 184.238 179.086 183.91 179.32 183.512H180.398C180.094 184.473 179.156 185.129 177.844 185.129ZM175.887 181.297H179.473C179.473 180.23 178.793 179.445 177.75 179.445C176.648 179.445 175.945 180.312 175.887 181.297ZM187.664 178.637V179.48H186.258V185H185.238V179.48H184.219V178.637H185.238V177.77C185.238 176.738 185.93 176.117 187.055 176.117C187.301 176.117 187.594 176.152 187.805 176.188V177.09C187.594 177.055 187.406 177.043 187.277 177.043C186.574 177.043 186.258 177.336 186.258 177.992V178.637H187.664ZM188.859 185V178.637H189.832V179.609H189.902C190.137 178.965 190.793 178.531 191.543 178.531C191.695 178.531 191.953 178.543 192.07 178.555V179.574C192 179.551 191.719 179.504 191.461 179.504C190.547 179.504 189.867 180.137 189.867 180.992V185H188.859ZM195.457 185.129C193.723 185.129 192.551 183.828 192.551 181.848C192.551 179.867 193.723 178.555 195.457 178.555C197.18 178.555 198.34 179.867 198.34 181.848C198.34 183.828 197.18 185.129 195.457 185.129ZM195.457 184.238C196.734 184.238 197.332 183.113 197.332 181.848C197.332 180.582 196.734 179.445 195.457 179.445C194.156 179.445 193.559 180.582 193.559 181.848C193.559 183.113 194.156 184.238 195.457 184.238ZM199.664 185V178.637H200.637V179.633H200.719C200.988 178.953 201.598 178.555 202.43 178.555C203.262 178.555 203.824 178.953 204.129 179.633H204.199C204.527 178.977 205.195 178.555 206.109 178.555C207.246 178.555 208.055 179.246 208.055 180.746V185H207.047V180.758C207.047 179.82 206.449 179.457 205.758 179.457C204.867 179.457 204.363 180.055 204.363 180.863V185H203.344V180.652C203.344 179.938 202.828 179.457 202.102 179.457C201.34 179.457 200.672 180.102 200.672 181.027V185H199.664ZM216.703 182.387V178.637H217.699V185H216.703V183.922H216.633C216.328 184.566 215.707 185.082 214.746 185.082C213.539 185.082 212.684 184.297 212.684 182.68V178.637H213.691V182.609C213.691 183.523 214.266 184.109 215.074 184.109C215.789 184.109 216.703 183.57 216.703 182.387ZM222.855 180.289C222.715 179.762 222.316 179.41 221.566 179.41C220.781 179.41 220.219 179.832 220.219 180.371C220.219 180.793 220.559 181.086 221.309 181.262L222.258 181.496C223.395 181.766 223.957 182.328 223.957 183.219C223.957 184.32 223.055 185.129 221.461 185.129C220.031 185.129 219.176 184.496 219.012 183.336H220.066C220.184 183.957 220.641 184.25 221.438 184.25C222.34 184.25 222.914 183.875 222.914 183.277C222.914 182.832 222.598 182.527 221.871 182.363L220.91 182.141C219.797 181.883 219.211 181.273 219.211 180.43C219.211 179.34 220.16 178.555 221.566 178.555C222.879 178.555 223.711 179.258 223.84 180.289H222.855ZM227.941 185.129C226.102 185.129 224.965 183.828 224.965 181.871C224.965 179.914 226.113 178.555 227.848 178.555C229.184 178.555 230.59 179.375 230.59 181.73V182.152H225.973C226.02 183.5 226.805 184.238 227.941 184.238C228.703 184.238 229.184 183.91 229.418 183.512H230.496C230.191 184.473 229.254 185.129 227.941 185.129ZM225.984 181.297H229.57C229.57 180.23 228.891 179.445 227.848 179.445C226.746 179.445 226.043 180.312 225.984 181.297ZM231.902 185V178.637H232.875V179.609H232.945C233.18 178.965 233.836 178.531 234.586 178.531C234.738 178.531 234.996 178.543 235.113 178.555V179.574C235.043 179.551 234.762 179.504 234.504 179.504C233.59 179.504 232.91 180.137 232.91 180.992V185H231.902ZM239.637 180.289C239.496 179.762 239.098 179.41 238.348 179.41C237.562 179.41 237 179.832 237 180.371C237 180.793 237.34 181.086 238.09 181.262L239.039 181.496C240.176 181.766 240.738 182.328 240.738 183.219C240.738 184.32 239.836 185.129 238.242 185.129C236.812 185.129 235.957 184.496 235.793 183.336H236.848C236.965 183.957 237.422 184.25 238.219 184.25C239.121 184.25 239.695 183.875 239.695 183.277C239.695 182.832 239.379 182.527 238.652 182.363L237.691 182.141C236.578 181.883 235.992 181.273 235.992 180.43C235.992 179.34 236.941 178.555 238.348 178.555C239.66 178.555 240.492 179.258 240.621 180.289H239.637ZM246.492 185L244.559 178.637H245.625L246.984 183.488H247.043L248.391 178.637H249.469L250.793 183.465H250.863L252.223 178.637H253.277L251.344 185H250.348L248.965 180.148H248.871L247.5 185H246.492ZM254.391 185V178.637H255.398V185H254.391ZM254.895 177.582C254.508 177.582 254.191 177.289 254.191 176.914C254.191 176.539 254.508 176.246 254.895 176.246C255.281 176.246 255.609 176.539 255.609 176.914C255.609 177.289 255.281 177.582 254.895 177.582ZM259.781 178.637V179.48H258.445V183.172C258.445 183.992 258.844 184.121 259.277 184.121C259.465 184.121 259.723 184.109 259.875 184.098V185.035C259.723 185.059 259.465 185.082 259.172 185.082C258.328 185.082 257.426 184.555 257.426 183.43V179.48H256.465V178.637H257.426V177.113H258.445V178.637H259.781ZM262.23 181.18V185H261.223V176.516H262.23V179.633H262.312C262.605 178.977 263.18 178.555 264.188 178.555C265.488 178.555 266.355 179.328 266.355 180.957V185H265.348V181.027C265.348 180.031 264.797 179.457 263.883 179.457C262.934 179.457 262.23 180.078 262.23 181.18ZM270.574 185.129C268.84 185.129 267.668 183.828 267.668 181.848C267.668 179.867 268.84 178.555 270.574 178.555C272.297 178.555 273.457 179.867 273.457 181.848C273.457 183.828 272.297 185.129 270.574 185.129ZM270.574 184.238C271.852 184.238 272.449 183.113 272.449 181.848C272.449 180.582 271.852 179.445 270.574 179.445C269.273 179.445 268.676 180.582 268.676 181.848C268.676 183.113 269.273 184.238 270.574 184.238ZM278.801 182.387V178.637H279.797V185H278.801V183.922H278.73C278.426 184.566 277.805 185.082 276.844 185.082C275.637 185.082 274.781 184.297 274.781 182.68V178.637H275.789V182.609C275.789 183.523 276.363 184.109 277.172 184.109C277.887 184.109 278.801 183.57 278.801 182.387ZM284.191 178.637V179.48H282.855V183.172C282.855 183.992 283.254 184.121 283.688 184.121C283.875 184.121 284.133 184.109 284.285 184.098V185.035C284.133 185.059 283.875 185.082 283.582 185.082C282.738 185.082 281.836 184.555 281.836 183.43V179.48H280.875V178.637H281.836V177.113H282.855V178.637H284.191ZM72.8086 201.391V192.637H73.7812V193.645H73.8984C74.1094 193.305 74.5078 192.555 75.7383 192.555C77.332 192.555 78.4453 193.82 78.4453 195.836C78.4453 197.852 77.332 199.129 75.75 199.129C74.5312 199.129 74.1094 198.379 73.8984 198.027H73.8164V201.391H72.8086ZM73.793 195.812C73.793 197.242 74.4375 198.227 75.6094 198.227C76.8164 198.227 77.4375 197.172 77.4375 195.812C77.4375 194.488 76.8281 193.457 75.6094 193.457C74.4141 193.457 73.793 194.406 73.793 195.812ZM82.4297 199.129C80.5898 199.129 79.4531 197.828 79.4531 195.871C79.4531 193.914 80.6016 192.555 82.3359 192.555C83.6719 192.555 85.0781 193.375 85.0781 195.73V196.152H80.4609C80.5078 197.5 81.293 198.238 82.4297 198.238C83.1914 198.238 83.6719 197.91 83.9062 197.512H84.9844C84.6797 198.473 83.7422 199.129 82.4297 199.129ZM80.4727 195.297H84.0586C84.0586 194.23 83.3789 193.445 82.3359 193.445C81.2344 193.445 80.5312 194.312 80.4727 195.297ZM86.3906 199V192.637H87.3633V193.609H87.4336C87.668 192.965 88.3242 192.531 89.0742 192.531C89.2266 192.531 89.4844 192.543 89.6016 192.555V193.574C89.5312 193.551 89.25 193.504 88.9922 193.504C88.0781 193.504 87.3984 194.137 87.3984 194.992V199H86.3906ZM90.5859 199V192.637H91.5586V193.633H91.6406C91.9102 192.953 92.5195 192.555 93.3516 192.555C94.1836 192.555 94.7461 192.953 95.0508 193.633H95.1211C95.4492 192.977 96.1172 192.555 97.0312 192.555C98.168 192.555 98.9766 193.246 98.9766 194.746V199H97.9688V194.758C97.9688 193.82 97.3711 193.457 96.6797 193.457C95.7891 193.457 95.2852 194.055 95.2852 194.863V199H94.2656V194.652C94.2656 193.938 93.75 193.457 93.0234 193.457C92.2617 193.457 91.5938 194.102 91.5938 195.027V199H90.5859ZM100.594 199V192.637H101.602V199H100.594ZM101.098 191.582C100.711 191.582 100.395 191.289 100.395 190.914C100.395 190.539 100.711 190.246 101.098 190.246C101.484 190.246 101.812 190.539 101.812 190.914C101.812 191.289 101.484 191.582 101.098 191.582ZM106.746 194.289C106.605 193.762 106.207 193.41 105.457 193.41C104.672 193.41 104.109 193.832 104.109 194.371C104.109 194.793 104.449 195.086 105.199 195.262L106.148 195.496C107.285 195.766 107.848 196.328 107.848 197.219C107.848 198.32 106.945 199.129 105.352 199.129C103.922 199.129 103.066 198.496 102.902 197.336H103.957C104.074 197.957 104.531 198.25 105.328 198.25C106.23 198.25 106.805 197.875 106.805 197.277C106.805 196.832 106.488 196.527 105.762 196.363L104.801 196.141C103.688 195.883 103.102 195.273 103.102 194.43C103.102 193.34 104.051 192.555 105.457 192.555C106.77 192.555 107.602 193.258 107.73 194.289H106.746ZM112.699 194.289C112.559 193.762 112.16 193.41 111.41 193.41C110.625 193.41 110.062 193.832 110.062 194.371C110.062 194.793 110.402 195.086 111.152 195.262L112.102 195.496C113.238 195.766 113.801 196.328 113.801 197.219C113.801 198.32 112.898 199.129 111.305 199.129C109.875 199.129 109.02 198.496 108.855 197.336H109.91C110.027 197.957 110.484 198.25 111.281 198.25C112.184 198.25 112.758 197.875 112.758 197.277C112.758 196.832 112.441 196.527 111.715 196.363L110.754 196.141C109.641 195.883 109.055 195.273 109.055 194.43C109.055 193.34 110.004 192.555 111.41 192.555C112.723 192.555 113.555 193.258 113.684 194.289H112.699ZM115.113 199V192.637H116.121V199H115.113ZM115.617 191.582C115.23 191.582 114.914 191.289 114.914 190.914C114.914 190.539 115.23 190.246 115.617 190.246C116.004 190.246 116.332 190.539 116.332 190.914C116.332 191.289 116.004 191.582 115.617 191.582ZM120.328 199.129C118.594 199.129 117.422 197.828 117.422 195.848C117.422 193.867 118.594 192.555 120.328 192.555C122.051 192.555 123.211 193.867 123.211 195.848C123.211 197.828 122.051 199.129 120.328 199.129ZM120.328 198.238C121.605 198.238 122.203 197.113 122.203 195.848C122.203 194.582 121.605 193.445 120.328 193.445C119.027 193.445 118.43 194.582 118.43 195.848C118.43 197.113 119.027 198.238 120.328 198.238ZM125.543 195.18V199H124.535V192.637H125.508V193.633H125.59C125.895 192.988 126.48 192.555 127.453 192.555C128.742 192.555 129.598 193.34 129.598 194.957V199H128.59V195.027C128.59 194.043 128.051 193.457 127.148 193.457C126.223 193.457 125.543 194.078 125.543 195.18ZM131.93 199.07C131.52 199.07 131.168 198.73 131.18 198.309C131.168 197.898 131.52 197.559 131.93 197.559C132.34 197.559 132.68 197.898 132.68 198.309C132.68 198.73 132.34 199.07 131.93 199.07Z" fill="var(--sol-element-tertiary)"/>
<g clip-path="url(#clip4_1670_180063)">
<rect x="340" y="167" width="30" height="20" rx="10" fill="var(--sol-fill-active)"/>
<circle cx="360" cy="177" r="7" fill="var(--sol-surface)"/>
</g>
</g>
</g>
</g>
<defs>
<filter id="filter0_dd_1670_180063" x="28" y="-4" width="386" height="244" filterUnits="userSpaceOnUse" color-interpolation-filters="sRGB">
<feFlood flood-opacity="0" result="BackgroundImageFix"/>
<feColorMatrix in="SourceAlpha" type="matrix" values="0 0 0 0 0 0 0 0 0 0 0 0 0 0 0 0 0 0 127 0" result="hardAlpha"/>
<feOffset dy="4"/>
<feGaussianBlur stdDeviation="4"/>
<feComposite in2="hardAlpha" operator="out"/>
<feColorMatrix type="matrix" values="0 0 0 0 0 0 0 0 0 0 0 0 0 0 0 0 0 0 0.08 0"/>
<feBlend mode="normal" in2="BackgroundImageFix" result="effect1_dropShadow_1670_180063"/>
<feColorMatrix in="SourceAlpha" type="matrix" values="0 0 0 0 0 0 0 0 0 0 0 0 0 0 0 0 0 0 127 0" result="hardAlpha"/>
<feOffset/>
<feGaussianBlur stdDeviation="0.5"/>
<feComposite in2="hardAlpha" operator="out"/>
<feColorMatrix type="matrix" values="0 0 0 0 0 0 0 0 0 0 0 0 0 0 0 0 0 0 0.08 0"/>
<feBlend mode="normal" in2="effect1_dropShadow_1670_180063" result="effect2_dropShadow_1670_180063"/>
<feBlend mode="normal" in="SourceGraphic" in2="effect2_dropShadow_1670_180063" result="shape"/>
</filter>
<clipPath id="clip0_1670_180063">
<path d="M0 8C0 3.58172 3.58172 0 8 0H434C438.418 0 442 3.58172 442 8V220C442 224.418 438.418 228 434 228H8C3.58172 228 0 224.418 0 220V8Z" fill="var(--sol-surface)"/>
</clipPath>
<clipPath id="clip1_1670_180063">
<rect width="298" height="188" fill="var(--sol-surface)" transform="translate(72 20)"/>
</clipPath>
<clipPath id="clip2_1670_180063">
<rect x="340" y="34" width="30" height="20" rx="10" fill="var(--sol-surface)"/>
</clipPath>
<clipPath id="clip3_1670_180063">
<rect x="340" y="97" width="30" height="20" rx="10" fill="var(--sol-surface)"/>
</clipPath>
<clipPath id="clip4_1670_180063">
<rect x="340" y="167" width="30" height="20" rx="10" fill="var(--sol-surface)"/>
</clipPath>
</defs>
</svg>
