<svg width="900" height="160" viewBox="0 0 900 160" fill="none" xmlns="http://www.w3.org/2000/svg">
<style>
:root {
  --sol-element-primary: #161616;
  --sol-element-tertiary: #636363;
  --sol-element-quaternary: #858585;
  --sol-element-brand-variant: #3a3480;
  --sol-fill-active: #4d469a;
  --sol-surface: #ffffff;
  --sol-error-dim: #b84451;
  --sol-static-white: #ffffff;
  --sol-static-black: #000000;
}
@media (prefers-color-scheme: dark) {
  :root {
    --sol-element-primary: #ffffff;
    --sol-element-tertiary: rgba(255, 255, 255, 0.60);
    --sol-element-quaternary: rgba(255, 255, 255, 0.50);
    --sol-element-brand-variant: #ffffff;
    --sol-fill-active: #7b74c4;
    --sol-surface: #161616;
    --sol-error-dim: #e76067;
  }
}
</style>

<g clip-path="url(#clip0_1670_179518)">
<rect x="379" y="70" width="30" height="20" rx="10" fill="var(--sol-fill-active)"/>
<circle cx="399" cy="80" r="7" fill="var(--sol-surface)"/>
</g>
<g clip-path="url(#clip1_1670_179518)">
<rect x="469" y="64" width="52" height="32" rx="16" fill="var(--sol-fill-active)"/>
<rect x="492" y="67" width="26" height="26" rx="13" fill="var(--sol-surface)"/>
<path d="M511.057 76.7207L503.658 84.1198C503.365 84.4126 502.891 84.4127 502.598 84.1198L498.945 80.4674L500.006 79.4069L503.128 82.5286L509.997 75.6602L511.057 76.7207Z" fill="var(--sol-element-brand-variant)"/>
</g>
<path d="M416 70V90" stroke="var(--sol-error-dim)"/>
<path d="M413 70H419" stroke="var(--sol-error-dim)"/>
<path d="M413 90H419" stroke="var(--sol-error-dim)"/>
<rect x="423" y="70" width="20" height="20" rx="3.5" fill="var(--sol-error-dim)"/>
<path d="M426.791 84V83.125L429.498 80.3203C429.787 80.0156 430.026 79.7487 430.213 79.5195C430.403 79.2878 430.545 79.0677 430.639 78.8594C430.733 78.651 430.779 78.4297 430.779 78.1953C430.779 77.9297 430.717 77.7005 430.592 77.5078C430.467 77.3125 430.296 77.1628 430.08 77.0586C429.864 76.9518 429.621 76.8984 429.35 76.8984C429.063 76.8984 428.813 76.957 428.6 77.0742C428.386 77.1914 428.222 77.3568 428.108 77.5703C427.993 77.7839 427.936 78.0339 427.936 78.3203H426.783C426.783 77.8333 426.895 77.4076 427.119 77.043C427.343 76.6784 427.651 76.3958 428.041 76.1953C428.432 75.9922 428.876 75.8906 429.373 75.8906C429.876 75.8906 430.319 75.9909 430.701 76.1914C431.087 76.3893 431.388 76.6602 431.604 77.0039C431.82 77.3451 431.928 77.7305 431.928 78.1602C431.928 78.457 431.872 78.7474 431.76 79.0312C431.651 79.3151 431.459 79.6315 431.186 79.9805C430.912 80.3268 430.532 80.7474 430.045 81.2422L428.455 82.9062V82.9648H432.057V84H426.791ZM436.432 84.1328C435.815 84.1302 435.288 83.9674 434.85 83.6445C434.413 83.3216 434.078 82.8516 433.847 82.2344C433.615 81.6172 433.499 80.8737 433.499 80.0039C433.499 79.1367 433.615 78.3958 433.847 77.7812C434.081 77.1667 434.417 76.6979 434.854 76.375C435.294 76.0521 435.82 75.8906 436.432 75.8906C437.044 75.8906 437.569 76.0534 438.007 76.3789C438.444 76.7018 438.779 77.1706 439.011 77.7852C439.245 78.3971 439.362 79.1367 439.362 80.0039C439.362 80.8763 439.246 81.6211 439.014 82.2383C438.783 82.8529 438.448 83.3229 438.011 83.6484C437.573 83.9714 437.047 84.1328 436.432 84.1328ZM436.432 83.0898C436.974 83.0898 437.397 82.8255 437.702 82.2969C438.009 81.7682 438.163 81.0039 438.163 80.0039C438.163 79.3398 438.093 78.7786 437.952 78.3203C437.814 77.8594 437.615 77.5104 437.354 77.2734C437.097 77.0339 436.789 76.9141 436.432 76.9141C435.893 76.9141 435.47 77.1797 435.163 77.7109C434.856 78.2422 434.701 79.0065 434.698 80.0039C434.698 80.6706 434.767 81.2344 434.905 81.6953C435.046 82.1536 435.245 82.5013 435.503 82.7383C435.761 82.9727 436.07 83.0898 436.432 83.0898Z" fill="var(--sol-surface)"/>
<path d="M528 64V96" stroke="var(--sol-error-dim)"/>
<path d="M525 64H531" stroke="var(--sol-error-dim)"/>
<path d="M525 96H531" stroke="var(--sol-error-dim)"/>
<rect x="535" y="70" width="20" height="20" rx="3.5" fill="var(--sol-error-dim)"/>
<path d="M541.582 84.1094C541.045 84.1094 540.566 84.0169 540.144 83.832C539.725 83.6471 539.393 83.3906 539.148 83.0625C538.906 82.7318 538.776 82.349 538.758 81.9141H539.984C540 82.151 540.079 82.3568 540.222 82.5312C540.368 82.7031 540.558 82.8359 540.793 82.9297C541.027 83.0234 541.287 83.0703 541.574 83.0703C541.889 83.0703 542.168 83.0156 542.41 82.9062C542.655 82.7969 542.846 82.6445 542.984 82.4492C543.122 82.2513 543.191 82.0234 543.191 81.7656C543.191 81.4974 543.122 81.2617 542.984 81.0586C542.849 80.8529 542.649 80.6914 542.386 80.5742C542.126 80.457 541.811 80.3984 541.441 80.3984H540.765V79.4141H541.441C541.738 79.4141 541.998 79.3607 542.222 79.2539C542.449 79.1471 542.626 78.9987 542.754 78.8086C542.881 78.6159 542.945 78.3906 542.945 78.1328C542.945 77.8854 542.889 77.6706 542.777 77.4883C542.668 77.3034 542.511 77.1589 542.308 77.0547C542.108 76.9505 541.871 76.8984 541.597 76.8984C541.337 76.8984 541.093 76.9466 540.867 77.043C540.643 77.1367 540.461 77.2721 540.32 77.4492C540.179 77.6237 540.104 77.8333 540.093 78.0781H538.925C538.938 77.6458 539.066 77.2656 539.308 76.9375C539.553 76.6094 539.876 76.3529 540.277 76.168C540.678 75.9831 541.123 75.8906 541.613 75.8906C542.126 75.8906 542.569 75.9909 542.941 76.1914C543.316 76.3893 543.605 76.6536 543.808 76.9844C544.014 77.3151 544.116 77.6771 544.113 78.0703C544.116 78.5182 543.991 78.8984 543.738 79.2109C543.488 79.5234 543.155 79.7331 542.738 79.8398V79.9023C543.269 79.9831 543.681 80.194 543.972 80.5352C544.267 80.8763 544.412 81.2995 544.41 81.8047C544.412 82.2448 544.29 82.6393 544.043 82.9883C543.798 83.3372 543.463 83.612 543.039 83.8125C542.614 84.0104 542.129 84.1094 541.582 84.1094ZM545.996 84V83.125L548.703 80.3203C548.993 80.0156 549.231 79.7487 549.418 79.5195C549.608 79.2878 549.75 79.0677 549.844 78.8594C549.938 78.651 549.985 78.4297 549.985 78.1953C549.985 77.9297 549.922 77.7005 549.797 77.5078C549.672 77.3125 549.502 77.1628 549.285 77.0586C549.069 76.9518 548.826 76.8984 548.555 76.8984C548.269 76.8984 548.019 76.957 547.805 77.0742C547.591 77.1914 547.427 77.3568 547.313 77.5703C547.198 77.7839 547.141 78.0339 547.141 78.3203H545.989C545.989 77.8333 546.101 77.4076 546.325 77.043C546.548 76.6784 546.856 76.3958 547.246 76.1953C547.637 75.9922 548.081 75.8906 548.578 75.8906C549.081 75.8906 549.524 75.9909 549.907 76.1914C550.292 76.3893 550.593 76.6602 550.809 77.0039C551.025 77.3451 551.133 77.7305 551.133 78.1602C551.133 78.457 551.077 78.7474 550.965 79.0312C550.856 79.3151 550.664 79.6315 550.391 79.9805C550.118 80.3268 549.737 80.7474 549.25 81.2422L547.66 82.9062V82.9648H551.262V84H545.996Z" fill="var(--sol-surface)"/>
<defs>
<clipPath id="clip0_1670_179518">
<rect x="379" y="70" width="30" height="20" rx="10" fill="var(--sol-surface)"/>
</clipPath>
<clipPath id="clip1_1670_179518">
<rect x="469" y="64" width="52" height="32" rx="16" fill="var(--sol-surface)"/>
</clipPath>
</defs>
</svg>
