<svg width="442" height="130" viewBox="0 0 442 130" fill="none" xmlns="http://www.w3.org/2000/svg">
<style>
:root {
  --sol-element-primary: #161616;
  --sol-element-tertiary: #636363;
  --sol-element-quaternary: #858585;
  --sol-element-brand-variant: #3a3480;
  --sol-fill-active: #4d469a;
  --sol-surface: #ffffff;
  --sol-error-dim: #b84451;
  --sol-static-white: #ffffff;
  --sol-static-black: #000000;
}
@media (prefers-color-scheme: dark) {
  :root {
    --sol-element-primary: #ffffff;
    --sol-element-tertiary: rgba(255, 255, 255, 0.60);
    --sol-element-quaternary: rgba(255, 255, 255, 0.50);
    --sol-element-brand-variant: #ffffff;
    --sol-fill-active: #7b74c4;
    --sol-surface: #161616;
    --sol-error-dim: #e76067;
  }
}
</style>

<g clip-path="url(#clip0_1670_180117)">
<g clip-path="url(#clip1_1670_180117)">
<rect x="72" y="35" width="30" height="20" rx="10" fill="var(--sol-fill-active)"/>
<circle cx="92" cy="45" r="7" fill="var(--sol-surface)"/>
</g>
<path d="M121.848 43.1914C121.424 41.9199 120.453 41.1133 119.045 41.1133C117.295 41.1133 115.9 42.4941 115.9 45.0508C115.9 47.6074 117.295 48.9883 119.127 48.9883C120.802 48.9883 121.943 47.8672 121.971 46.1172H119.387V45.0371H123.174V46.1035C123.174 48.5645 121.479 50.1367 119.127 50.1367C116.488 50.1367 114.711 48.1816 114.711 45.0508C114.711 41.9199 116.502 39.9648 119.045 39.9648C121.137 39.9648 122.75 41.2773 123.119 43.1914H121.848ZM124.514 47.8945C124.514 46.1855 126.018 45.8027 127.303 45.707C127.774 45.6729 128.978 45.6113 129.312 45.5977V44.9961C129.312 44.0527 128.752 43.5059 127.631 43.5059C126.688 43.5059 126.127 43.9434 125.963 44.5039H124.732C124.883 43.3145 126.045 42.4805 127.686 42.4805C128.656 42.4805 130.475 42.7676 130.475 45.1055V50H129.312V48.9883H129.258C129.012 49.4941 128.328 50.1777 127.043 50.1777C125.635 50.1777 124.514 49.3438 124.514 47.8945ZM125.689 47.9492C125.689 48.7285 126.346 49.125 127.248 49.125C128.574 49.125 129.312 48.2363 129.312 47.3066V46.5547L127.439 46.6914C126.373 46.7598 125.689 47.1426 125.689 47.9492ZM135.602 42.5762V43.5605H134.043V47.8672C134.043 48.8242 134.508 48.9746 135.014 48.9746C135.232 48.9746 135.533 48.9609 135.711 48.9473V50.041C135.533 50.0684 135.232 50.0957 134.891 50.0957C133.906 50.0957 132.854 49.4805 132.854 48.168V43.5605H131.732V42.5762H132.854V40.7988H134.043V42.5762H135.602ZM140.168 50.1504C138.021 50.1504 136.695 48.6328 136.695 46.3496C136.695 44.0664 138.035 42.4805 140.059 42.4805C141.617 42.4805 143.258 43.4375 143.258 46.1855V46.6777H137.871C137.926 48.25 138.842 49.1113 140.168 49.1113C141.057 49.1113 141.617 48.7285 141.891 48.2637H143.148C142.793 49.3848 141.699 50.1504 140.168 50.1504ZM137.885 45.6797H142.068C142.068 44.4355 141.275 43.5195 140.059 43.5195C138.773 43.5195 137.953 44.5312 137.885 45.6797ZM146.457 50L144.201 42.5762H145.445L147.031 48.2363H147.1L148.672 42.5762H149.93L151.475 48.209H151.557L153.143 42.5762H154.373L152.117 50H150.955L149.342 44.3398H149.232L147.633 50H146.457ZM155.316 47.8945C155.316 46.1855 156.82 45.8027 158.105 45.707C158.577 45.6729 159.78 45.6113 160.115 45.5977V44.9961C160.115 44.0527 159.555 43.5059 158.434 43.5059C157.49 43.5059 156.93 43.9434 156.766 44.5039H155.535C155.686 43.3145 156.848 42.4805 158.488 42.4805C159.459 42.4805 161.277 42.7676 161.277 45.1055V50H160.115V48.9883H160.061C159.814 49.4941 159.131 50.1777 157.846 50.1777C156.438 50.1777 155.316 49.3438 155.316 47.8945ZM156.492 47.9492C156.492 48.7285 157.148 49.125 158.051 49.125C159.377 49.125 160.115 48.2363 160.115 47.3066V46.5547L158.242 46.6914C157.176 46.7598 156.492 47.1426 156.492 47.9492ZM163.643 52.7891C163.383 52.7891 163.137 52.7754 162.986 52.7617V51.709C163.109 51.7227 163.383 51.7363 163.561 51.7363C164.039 51.7363 164.436 51.6953 164.832 50.6152L165.051 50.0547L162.303 42.5762H163.588L165.611 48.4688H165.693L167.717 42.5762H169.002L165.857 51.0664C165.42 52.2285 164.695 52.7891 163.643 52.7891Z" fill="var(--sol-element-primary)"/>
<g clip-path="url(#clip2_1670_180117)">
<rect x="72" y="75" width="30" height="20" rx="10" fill="var(--sol-fill-active)"/>
<circle cx="92" cy="85" r="7" fill="var(--sol-surface)"/>
</g>
<path d="M115.094 90V80.1016H118.566C120.645 80.1016 121.615 81.2637 121.615 82.7266C121.615 83.998 120.863 84.5723 120.002 84.8047V84.9004C120.918 84.9551 122.012 85.8027 122.012 87.375C122.012 88.8652 121.027 90 118.689 90H115.094ZM118.676 88.9062C120.221 88.9062 120.822 88.2227 120.822 87.3613C120.822 86.3496 120.016 85.502 118.744 85.502H116.324V88.9062H118.676ZM118.525 84.4355C119.592 84.4355 120.439 83.7793 120.439 82.7402C120.439 81.8789 119.865 81.1953 118.566 81.1953H116.324V84.4355H118.525ZM123.762 90V80.1016H124.992V88.9062H129.586V90H123.762ZM131.227 90V80.1016H137.229V81.1953H132.457V84.5039H136.914V85.584H132.457V88.9062H137.297V90H131.227Z" fill="var(--sol-element-primary)"/>
</g>
<defs>
<clipPath id="clip0_1670_180117">
<rect width="298" height="72" fill="var(--sol-surface)" transform="translate(72 29)"/>
</clipPath>
<clipPath id="clip1_1670_180117">
<rect x="72" y="35" width="30" height="20" rx="10" fill="var(--sol-surface)"/>
</clipPath>
<clipPath id="clip2_1670_180117">
<rect x="72" y="75" width="30" height="20" rx="10" fill="var(--sol-surface)"/>
</clipPath>
</defs>
</svg>
