<svg width="900" height="178" viewBox="0 0 900 178" fill="none" xmlns="http://www.w3.org/2000/svg">
<g filter="url(#filter0_dd_1715_177150)">
<mask id="path-2-inside-1_1715_177150" fill="white">
<path d="M359 52C359 49.7909 360.791 48 363 48H537C539.209 48 541 49.7909 541 52V126C541 128.209 539.209 130 537 130H363C360.791 130 359 128.209 359 126V52Z"/>
</mask>
<path d="M359 52C359 49.7909 360.791 48 363 48H537C539.209 48 541 49.7909 541 52V126C541 128.209 539.209 130 537 130H363C360.791 130 359 128.209 359 126V52Z" fill="white"/>
<path d="M363 48V49H537V48V47H363V48ZM541 52H540V126H541H542V52H541ZM537 130V129H363V130V131H537V130ZM359 126H360V52H359H358V126H359ZM363 130V129C361.343 129 360 127.657 360 126H359H358C358 128.761 360.239 131 363 131V130ZM541 126H540C540 127.657 538.657 129 537 129V130V131C539.761 131 542 128.761 542 126H541ZM537 48V49C538.657 49 540 50.3431 540 52H541H542C542 49.2386 539.761 47 537 47V48ZM363 48V47C360.239 47 358 49.2386 358 52H359H360C360 50.3431 361.343 49 363 49V48Z" fill="#E0E0E0" mask="url(#path-2-inside-1_1715_177150)"/>
<path d="M386.45 71.4505C383.44 74.4607 378.559 74.4607 375.549 71.4505C372.538 68.4402 372.538 63.5595 375.549 60.5492C378.559 57.5389 383.44 57.5389 386.45 60.5492C389.46 63.5595 389.46 68.4402 386.45 71.4505Z" fill="#35A142"/>
<path d="M384.614 64.3271L380.378 68.563C380.134 68.807 379.738 68.8071 379.494 68.563L377.373 66.4422L378.257 65.5584L379.936 67.2373L383.73 63.4434L384.614 64.3271Z" fill="white"/>
<path d="M404.588 64.4375C404.383 63.248 403.426 62.5645 402.223 62.5645C400.596 62.5645 399.461 63.8086 399.461 66.0508C399.461 68.3203 400.609 69.5371 402.223 69.5371C403.398 69.5371 404.355 68.8809 404.588 67.7188H406.379C406.105 69.6191 404.547 71.1367 402.195 71.1367C399.584 71.1367 397.67 69.2363 397.67 66.0508C397.67 62.8516 399.611 60.9648 402.195 60.9648C404.383 60.9648 406.078 62.2363 406.379 64.4375H404.588ZM409.578 66.6523V71H407.828V61.1016H409.537V64.834H409.633C409.975 64 410.686 63.4805 411.834 63.4805C413.379 63.4805 414.391 64.4785 414.391 66.2695V71H412.654V66.543C412.654 65.5312 412.107 64.957 411.191 64.957C410.248 64.957 409.578 65.5723 409.578 66.6523ZM415.703 68.9082C415.703 67.2402 417.084 66.748 418.465 66.666C418.978 66.6318 420.044 66.5703 420.365 66.5566V65.9688C420.365 65.2305 419.887 64.8066 419.025 64.8066C418.246 64.8066 417.768 65.1621 417.631 65.6953H415.949C416.072 64.4375 417.207 63.4805 419.066 63.4805C420.475 63.4805 422.102 64.0547 422.102 66.0371V71H420.434V69.9746H420.379C420.051 70.6035 419.354 71.1504 418.191 71.1504C416.77 71.1504 415.703 70.3711 415.703 68.9082ZM417.385 68.8945C417.385 69.5371 417.904 69.8652 418.643 69.8652C419.695 69.8652 420.379 69.168 420.379 68.334V67.7188L418.738 67.8281C417.904 67.8965 417.385 68.2383 417.385 68.8945ZM425.492 66.6523V71H423.742V63.5762H425.41V64.834H425.506C425.848 64 426.6 63.4805 427.707 63.4805C429.252 63.4805 430.264 64.4922 430.25 66.2695V71H428.514V66.543C428.514 65.5449 427.98 64.957 427.064 64.957C426.135 64.957 425.492 65.5723 425.492 66.6523ZM435.158 73.9395C433.189 73.9395 431.945 73.0645 431.822 71.6699H433.559C433.682 72.3125 434.297 72.627 435.186 72.627C436.225 72.627 436.908 72.1758 436.908 71.082V69.6602H436.826C436.553 70.207 435.965 70.8906 434.68 70.8906C432.971 70.8906 431.617 69.6465 431.617 67.2266C431.617 64.7793 432.971 63.4805 434.693 63.4805C436.006 63.4805 436.553 64.2598 436.826 64.793H436.908V63.5762H438.631V71.123C438.631 73.0234 437.168 73.9395 435.158 73.9395ZM435.158 69.5234C436.279 69.5234 436.922 68.6758 436.922 67.2539C436.922 65.8457 436.293 64.9023 435.158 64.9023C433.996 64.9023 433.395 65.9004 433.395 67.2539C433.395 68.6211 434.01 69.5234 435.158 69.5234ZM443.594 71.1504C441.352 71.1504 439.984 69.6602 439.984 67.3359C439.984 65.0391 441.379 63.4805 443.498 63.4805C445.316 63.4805 446.889 64.6152 446.889 67.2266V67.7734H441.707C441.728 69.0381 442.473 69.7832 443.607 69.7832C444.373 69.7832 444.893 69.4551 445.111 69.0176H446.82C446.506 70.3027 445.316 71.1504 443.594 71.1504ZM441.721 66.584H445.221C445.207 65.5723 444.537 64.834 443.525 64.834C442.473 64.834 441.775 65.6338 441.721 66.584ZM452.453 65.6953C452.344 65.1348 451.879 64.7793 451.141 64.7793C450.389 64.7793 449.842 65.1484 449.855 65.6543C449.842 66.0371 450.156 66.3242 450.908 66.502L452.166 66.7617C453.574 67.0762 454.244 67.7188 454.258 68.7852C454.244 70.1797 453.027 71.1504 451.086 71.1504C449.199 71.1504 448.078 70.3027 447.9 68.8809H449.678C449.787 69.5098 450.279 69.8242 451.086 69.8242C451.92 69.8242 452.48 69.4824 452.48 68.9355C452.48 68.5117 452.139 68.2383 451.4 68.0742L450.211 67.8145C448.83 67.541 448.119 66.8164 448.119 65.75C448.119 64.3828 449.295 63.4805 451.113 63.4805C452.891 63.4805 453.984 64.3418 454.107 65.6953H452.453ZM463.117 65.6953C463.008 65.1348 462.543 64.7793 461.805 64.7793C461.053 64.7793 460.506 65.1484 460.52 65.6543C460.506 66.0371 460.82 66.3242 461.572 66.502L462.83 66.7617C464.238 67.0762 464.908 67.7188 464.922 68.7852C464.908 70.1797 463.691 71.1504 461.75 71.1504C459.863 71.1504 458.742 70.3027 458.564 68.8809H460.342C460.451 69.5098 460.943 69.8242 461.75 69.8242C462.584 69.8242 463.145 69.4824 463.145 68.9355C463.145 68.5117 462.803 68.2383 462.064 68.0742L460.875 67.8145C459.494 67.541 458.783 66.8164 458.783 65.75C458.783 64.3828 459.959 63.4805 461.777 63.4805C463.555 63.4805 464.648 64.3418 464.771 65.6953H463.117ZM465.906 68.9082C465.906 67.2402 467.287 66.748 468.668 66.666C469.181 66.6318 470.247 66.5703 470.568 66.5566V65.9688C470.568 65.2305 470.09 64.8066 469.229 64.8066C468.449 64.8066 467.971 65.1621 467.834 65.6953H466.152C466.275 64.4375 467.41 63.4805 469.27 63.4805C470.678 63.4805 472.305 64.0547 472.305 66.0371V71H470.637V69.9746H470.582C470.254 70.6035 469.557 71.1504 468.395 71.1504C466.973 71.1504 465.906 70.3711 465.906 68.9082ZM467.588 68.8945C467.588 69.5371 468.107 69.8652 468.846 69.8652C469.898 69.8652 470.582 69.168 470.582 68.334V67.7188L468.941 67.8281C468.107 67.8965 467.588 68.2383 467.588 68.8945ZM480.303 63.5762L477.65 71H475.736L473.084 63.5762H474.943L476.652 69.0996H476.734L478.457 63.5762H480.303ZM484.445 71.1504C482.203 71.1504 480.836 69.6602 480.836 67.3359C480.836 65.0391 482.23 63.4805 484.35 63.4805C486.168 63.4805 487.74 64.6152 487.74 67.2266V67.7734H482.559C482.579 69.0381 483.324 69.7832 484.459 69.7832C485.225 69.7832 485.744 69.4551 485.963 69.0176H487.672C487.357 70.3027 486.168 71.1504 484.445 71.1504ZM482.572 66.584H486.072C486.059 65.5723 485.389 64.834 484.377 64.834C483.324 64.834 482.627 65.6338 482.572 66.584ZM491.855 71.1367C490.105 71.1367 488.793 69.7422 488.793 67.2949C488.793 64.8203 490.146 63.4805 491.869 63.4805C493.182 63.4805 493.729 64.2598 493.988 64.793H494.057V61.1016H495.793V71H494.084V69.8242H493.988C493.715 70.3711 493.141 71.1367 491.855 71.1367ZM492.334 69.7012C493.455 69.7012 494.098 68.7305 494.098 67.2812C494.098 65.8457 493.469 64.9023 492.334 64.9023C491.172 64.9023 490.57 65.9004 490.57 67.2812C490.57 68.6895 491.186 69.7012 492.334 69.7012ZM498.637 71.1094C498.049 71.1094 497.57 70.6309 497.57 70.043C497.57 69.4688 498.049 68.9902 498.637 68.9902C499.197 68.9902 499.689 69.4688 499.689 70.043C499.689 70.6309 499.197 71.1094 498.637 71.1094Z" fill="#161616"/>
<path d="M401.17 91H398.094V81.1016H401.293C404.178 81.1016 405.887 82.9609 405.887 86.0371C405.887 89.127 404.178 91 401.17 91ZM399.324 89.9062H401.088C403.521 89.9062 404.684 88.4434 404.684 86.0371C404.684 83.6445 403.521 82.1953 401.211 82.1953H399.324V89.9062ZM410.658 91.1504C408.512 91.1504 407.186 89.6328 407.186 87.3496C407.186 85.0664 408.525 83.4805 410.549 83.4805C412.107 83.4805 413.748 84.4375 413.748 87.1855V87.6777H408.361C408.416 89.25 409.332 90.1113 410.658 90.1113C411.547 90.1113 412.107 89.7285 412.381 89.2637H413.639C413.283 90.3848 412.189 91.1504 410.658 91.1504ZM408.375 86.6797H412.559C412.559 85.4355 411.766 84.5195 410.549 84.5195C409.264 84.5195 408.443 85.5312 408.375 86.6797ZM419.408 85.5039C419.244 84.8887 418.779 84.4785 417.904 84.4785C416.988 84.4785 416.332 84.9707 416.332 85.5996C416.332 86.0918 416.729 86.4336 417.604 86.6387L418.711 86.9121C420.037 87.2266 420.693 87.8828 420.693 88.9219C420.693 90.207 419.641 91.1504 417.781 91.1504C416.113 91.1504 415.115 90.4121 414.924 89.0586H416.154C416.291 89.7832 416.824 90.125 417.754 90.125C418.807 90.125 419.477 89.6875 419.477 88.9902C419.477 88.4707 419.107 88.1152 418.26 87.9238L417.139 87.6641C415.84 87.3633 415.156 86.6523 415.156 85.668C415.156 84.3965 416.264 83.4805 417.904 83.4805C419.436 83.4805 420.406 84.3008 420.557 85.5039H419.408ZM425.26 91.1504C423.154 91.1504 421.869 89.5508 421.869 87.3223C421.869 85.0664 423.209 83.4805 425.232 83.4805C426.818 83.4805 427.994 84.4102 428.186 85.8184H427.01C426.846 85.1348 426.244 84.5195 425.26 84.5195C423.934 84.5195 423.045 85.6133 423.045 87.2812C423.045 89.0039 423.906 90.0977 425.26 90.0977C426.135 90.0977 426.805 89.6328 427.01 88.8125H428.186C427.994 90.1387 426.914 91.1504 425.26 91.1504ZM429.635 91V83.5762H430.77V84.7109H430.852C431.125 83.959 431.891 83.4531 432.766 83.4531C432.943 83.4531 433.244 83.4668 433.381 83.4805V84.6699C433.299 84.6426 432.971 84.5879 432.67 84.5879C431.604 84.5879 430.811 85.3262 430.811 86.3242V91H429.635ZM434.529 91V83.5762H435.705V91H434.529ZM435.117 82.3457C434.666 82.3457 434.297 82.0039 434.297 81.5664C434.297 81.1289 434.666 80.7871 435.117 80.7871C435.568 80.7871 435.951 81.1289 435.951 81.5664C435.951 82.0039 435.568 82.3457 435.117 82.3457ZM437.578 93.7891V83.5762H438.713V84.752H438.85C439.096 84.3555 439.561 83.4805 440.996 83.4805C442.855 83.4805 444.154 84.957 444.154 87.3086C444.154 89.6602 442.855 91.1504 441.01 91.1504C439.588 91.1504 439.096 90.2754 438.85 89.8652H438.754V93.7891H437.578ZM438.727 87.2812C438.727 88.9492 439.479 90.0977 440.846 90.0977C442.254 90.0977 442.979 88.8672 442.979 87.2812C442.979 85.7363 442.268 84.5332 440.846 84.5332C439.451 84.5332 438.727 85.6406 438.727 87.2812ZM448.926 83.5762V84.5605H447.367V88.8672C447.367 89.8242 447.832 89.9746 448.338 89.9746C448.557 89.9746 448.857 89.9609 449.035 89.9473V91.041C448.857 91.0684 448.557 91.0957 448.215 91.0957C447.23 91.0957 446.178 90.4805 446.178 89.168V84.5605H445.057V83.5762H446.178V81.7988H447.367V83.5762H448.926ZM450.443 91V83.5762H451.619V91H450.443ZM451.031 82.3457C450.58 82.3457 450.211 82.0039 450.211 81.5664C450.211 81.1289 450.58 80.7871 451.031 80.7871C451.482 80.7871 451.865 81.1289 451.865 81.5664C451.865 82.0039 451.482 82.3457 451.031 82.3457ZM456.527 91.1504C454.504 91.1504 453.137 89.6328 453.137 87.3223C453.137 85.0117 454.504 83.4805 456.527 83.4805C458.537 83.4805 459.891 85.0117 459.891 87.3223C459.891 89.6328 458.537 91.1504 456.527 91.1504ZM456.527 90.1113C458.018 90.1113 458.715 88.7988 458.715 87.3223C458.715 85.8457 458.018 84.5195 456.527 84.5195C455.01 84.5195 454.312 85.8457 454.312 87.3223C454.312 88.7988 455.01 90.1113 456.527 90.1113ZM462.611 86.543V91H461.436V83.5762H462.57V84.7383H462.666C463.021 83.9863 463.705 83.4805 464.84 83.4805C466.344 83.4805 467.342 84.3965 467.342 86.2832V91H466.166V86.3652C466.166 85.2168 465.537 84.5332 464.484 84.5332C463.404 84.5332 462.611 85.2578 462.611 86.543ZM475.982 83.5762V84.5605H474.424V88.8672C474.424 89.8242 474.889 89.9746 475.395 89.9746C475.613 89.9746 475.914 89.9609 476.092 89.9473V91.041C475.914 91.0684 475.613 91.0957 475.271 91.0957C474.287 91.0957 473.234 90.4805 473.234 89.168V84.5605H472.113V83.5762H473.234V81.7988H474.424V83.5762H475.982ZM480.549 91.1504C478.402 91.1504 477.076 89.6328 477.076 87.3496C477.076 85.0664 478.416 83.4805 480.439 83.4805C481.998 83.4805 483.639 84.4375 483.639 87.1855V87.6777H478.252C478.307 89.25 479.223 90.1113 480.549 90.1113C481.438 90.1113 481.998 89.7285 482.271 89.2637H483.529C483.174 90.3848 482.08 91.1504 480.549 91.1504ZM478.266 86.6797H482.449C482.449 85.4355 481.656 84.5195 480.439 84.5195C479.154 84.5195 478.334 85.5312 478.266 86.6797ZM485.867 83.5762L487.617 86.5977L489.381 83.5762H490.734L488.342 87.2812L490.734 91H489.395L487.617 88.1289L485.867 91H484.514L486.852 87.2812L484.514 83.5762H485.867ZM495.396 83.5762V84.5605H493.838V88.8672C493.838 89.8242 494.303 89.9746 494.809 89.9746C495.027 89.9746 495.328 89.9609 495.506 89.9473V91.041C495.328 91.0684 495.027 91.0957 494.686 91.0957C493.701 91.0957 492.648 90.4805 492.648 89.168V84.5605H491.527V83.5762H492.648V81.7988H493.838V83.5762H495.396Z" fill="#636363"/>
<path d="M399.357 115H397.729L400.717 106.516H402.592L405.592 115H403.963L403.26 112.902H400.061L399.357 115ZM400.471 111.672H402.85L401.689 108.25H401.619L400.471 111.672ZM409.119 115.129C407.221 115.129 406.072 113.77 406.072 111.848C406.072 109.902 407.256 108.555 409.119 108.555C410.666 108.555 411.744 109.457 411.85 110.828H410.42C410.303 110.219 409.857 109.75 409.131 109.75C408.205 109.75 407.584 110.535 407.584 111.812C407.584 113.125 408.193 113.91 409.131 113.91C409.799 113.91 410.291 113.523 410.42 112.832H411.85C411.732 114.18 410.713 115.129 409.119 115.129ZM416.15 108.637V109.785H414.896V113.09C414.896 113.699 415.201 113.828 415.576 113.828C415.752 113.828 416.045 113.816 416.232 113.805V115.023C416.057 115.059 415.764 115.082 415.389 115.082C414.264 115.082 413.396 114.531 413.408 113.336V109.785H412.494V108.637H413.408V107.113H414.896V108.637H416.15ZM417.299 115V108.637H418.799V115H417.299ZM418.061 107.734C417.592 107.734 417.193 107.371 417.193 106.914C417.193 106.469 417.592 106.105 418.061 106.105C418.541 106.105 418.928 106.469 418.928 106.914C418.928 107.371 418.541 107.734 418.061 107.734ZM423.006 115.129C421.154 115.129 419.959 113.816 419.959 111.848C419.959 109.867 421.154 108.555 423.006 108.555C424.869 108.555 426.053 109.867 426.053 111.848C426.053 113.816 424.869 115.129 423.006 115.129ZM423.018 113.934C424.037 113.934 424.541 113.008 424.541 111.836C424.541 110.676 424.037 109.738 423.018 109.738C421.975 109.738 421.471 110.676 421.471 111.836C421.471 113.008 421.975 113.934 423.018 113.934ZM428.713 111.273V115H427.213V108.637H428.643V109.715H428.725C429.018 109 429.662 108.555 430.611 108.555C431.936 108.555 432.803 109.422 432.791 110.945V115H431.303V111.18C431.303 110.324 430.846 109.82 430.061 109.82C429.264 109.82 428.713 110.348 428.713 111.273Z" fill="#3A3480"/>
<mask id="mask0_1715_177150" style="mask-type:alpha" maskUnits="userSpaceOnUse" x="513" y="58" width="16" height="16">
<path d="M525.646 61.9404L521.587 65.9997L525.646 70.0596L524.939 70.7666L520.88 66.7067L516.82 70.7666L516.113 70.0596L520.173 65.9997L516.113 61.9404L516.82 61.2334L520.88 65.2926L524.939 61.2334L525.646 61.9404Z" fill="#161616"/>
</mask>
<g mask="url(#mask0_1715_177150)">
<rect x="513" y="58" width="16" height="16" fill="#858585"/>
</g>
</g>
<rect x="286.5" y="52" width="28" height="28" rx="14" fill="#161616"/>
<path d="M302.359 60.6875V72H300.312V62.6719H300.25L297.609 64.3594V62.5L300.406 60.6875H302.359Z" fill="white"/>
<path d="M314.5 65.5H370C370.276 65.5 370.5 65.7239 370.5 66V66C370.5 66.2761 370.276 66.5 370 66.5H314.5V65.5Z" fill="#161616"/>
<circle cx="368.5" cy="66" r="2" fill="#161616"/>
<rect x="400.5" y="11" width="28" height="28" rx="14" fill="#161616"/>
<path d="M410.617 31V29.5312L414.617 25.6719C415.758 24.5312 416.352 23.8594 416.352 22.9062C416.352 21.8594 415.523 21.1875 414.414 21.1875C413.242 21.1875 412.492 21.9219 412.508 23.0625H410.57C410.555 20.9219 412.164 19.5312 414.43 19.5312C416.742 19.5312 418.305 20.9062 418.305 22.8125C418.305 24.0938 417.68 25.125 415.461 27.2188L413.445 29.2188V29.2969H418.477V31H410.617Z" fill="white"/>
<path d="M414 39H415V58.5C415 58.7761 414.776 59 414.5 59V59C414.224 59 414 58.7761 414 58.5V39Z" fill="#161616"/>
<circle cx="414.5" cy="57" r="2" fill="#161616"/>
<rect x="509.5" y="11" width="28" height="28" rx="14" fill="#161616"/>
<path d="M523.492 31.1562C521.07 31.1562 519.352 29.8438 519.305 27.9375H521.352C521.414 28.8438 522.32 29.4375 523.492 29.4375C524.742 29.4375 525.633 28.75 525.633 27.75C525.633 26.7344 524.758 26 523.289 26H522.273V24.4375H523.289C524.492 24.4375 525.336 23.7656 525.32 22.7812C525.336 21.8281 524.617 21.1875 523.508 21.1875C522.445 21.1875 521.523 21.7812 521.492 22.7344H519.539C519.586 20.8281 521.305 19.5312 523.523 19.5312C525.82 19.5312 527.305 20.9375 527.289 22.6719C527.305 23.9375 526.461 24.8594 525.227 25.1094V25.2031C526.82 25.4219 527.727 26.4375 527.711 27.8594C527.727 29.7656 525.945 31.1562 523.492 31.1562Z" fill="white"/>
<path d="M523 39H524V58.5C524 58.7761 523.776 59 523.5 59V59C523.224 59 523 58.7761 523 58.5V39Z" fill="#161616"/>
<circle cx="523.5" cy="57" r="2" fill="#161616"/>
<rect x="314.5" y="74" width="28" height="28" rx="14" fill="#161616"/>
<path d="M324.07 91.8906V90.2656L328.961 82.6875H331.492V90.2188H332.977V91.8906H331.492V94H329.555V91.8906H324.07ZM326.148 90.2188H329.586V85H329.461L326.148 90.1406V90.2188Z" fill="white"/>
<path d="M342.5 87.5H394C394.276 87.5 394.5 87.7239 394.5 88V88C394.5 88.2761 394.276 88.5 394 88.5H342.5V87.5Z" fill="#161616"/>
<circle cx="392.5" cy="88" r="2" fill="#161616"/>
<rect x="286.5" y="97" width="28" height="28" rx="14" fill="#161616"/>
<path d="M300.516 117.156C298.25 117.156 296.594 115.812 296.531 113.938H298.516C298.578 114.859 299.438 115.516 300.516 115.516C301.781 115.516 302.688 114.594 302.688 113.344C302.688 112.047 301.75 111.125 300.453 111.125C299.578 111.109 298.938 111.422 298.578 112.094H296.688L297.375 105.688H304.062V107.391H299.047L298.703 110.391H298.812C299.25 109.891 300.078 109.531 301 109.531C303.109 109.531 304.656 111.109 304.656 113.281C304.656 115.547 302.953 117.156 300.516 117.156Z" fill="white"/>
<path d="M314.5 110.5H394C394.276 110.5 394.5 110.724 394.5 111V111C394.5 111.276 394.276 111.5 394 111.5H314.5V110.5Z" fill="#161616"/>
<circle cx="392.5" cy="111" r="2" fill="#161616"/>
<defs>
<filter id="filter0_dd_1715_177150" x="347" y="42" width="206" height="106" filterUnits="userSpaceOnUse" color-interpolation-filters="sRGB">
<feFlood flood-opacity="0" result="BackgroundImageFix"/>
<feColorMatrix in="SourceAlpha" type="matrix" values="0 0 0 0 0 0 0 0 0 0 0 0 0 0 0 0 0 0 127 0" result="hardAlpha"/>
<feOffset dy="6"/>
<feGaussianBlur stdDeviation="6"/>
<feComposite in2="hardAlpha" operator="out"/>
<feColorMatrix type="matrix" values="0 0 0 0 0 0 0 0 0 0 0 0 0 0 0 0 0 0 0.08 0"/>
<feBlend mode="normal" in2="BackgroundImageFix" result="effect1_dropShadow_1715_177150"/>
<feColorMatrix in="SourceAlpha" type="matrix" values="0 0 0 0 0 0 0 0 0 0 0 0 0 0 0 0 0 0 127 0" result="hardAlpha"/>
<feOffset dy="2"/>
<feGaussianBlur stdDeviation="4"/>
<feComposite in2="hardAlpha" operator="out"/>
<feColorMatrix type="matrix" values="0 0 0 0 0 0 0 0 0 0 0 0 0 0 0 0 0 0 0.08 0"/>
<feBlend mode="normal" in2="effect1_dropShadow_1715_177150" result="effect2_dropShadow_1715_177150"/>
<feBlend mode="normal" in="SourceGraphic" in2="effect2_dropShadow_1715_177150" result="shape"/>
</filter>
</defs>
</svg>
