<svg width="442" height="130" viewBox="0 0 442 130" fill="none" xmlns="http://www.w3.org/2000/svg">
<g clip-path="url(#clip0_1715_177912)">
<g filter="url(#filter0_dd_1715_177912)">
<mask id="path-2-inside-1_1715_177912" fill="white">
<path d="M72.5 21C72.5 18.7909 74.2909 17 76.5 17H365.5C367.709 17 369.5 18.7909 369.5 21V109C369.5 111.209 367.709 113 365.5 113H76.5C74.2909 113 72.5 111.209 72.5 109V21Z"/>
</mask>
<path d="M72.5 21C72.5 18.7909 74.2909 17 76.5 17H365.5C367.709 17 369.5 18.7909 369.5 21V109C369.5 111.209 367.709 113 365.5 113H76.5C74.2909 113 72.5 111.209 72.5 109V21Z" fill="white"/>
<path d="M76.5 17V18H365.5V17V16H76.5V17ZM369.5 21H368.5V109H369.5H370.5V21H369.5ZM365.5 113V112H76.5V113V114H365.5V113ZM72.5 109H73.5V21H72.5H71.5V109H72.5ZM76.5 113V112C74.8431 112 73.5 110.657 73.5 109H72.5H71.5C71.5 111.761 73.7386 114 76.5 114V113ZM369.5 109H368.5C368.5 110.657 367.157 112 365.5 112V113V114C368.261 114 370.5 111.761 370.5 109H369.5ZM365.5 17V18C367.157 18 368.5 19.3431 368.5 21H369.5H370.5C370.5 18.2386 368.261 16 365.5 16V17ZM76.5 17V16C73.7386 16 71.5 18.2386 71.5 21H72.5H73.5C73.5 19.3431 74.8431 18 76.5 18V17Z" fill="#E0E0E0" mask="url(#path-2-inside-1_1715_177912)"/>
<circle cx="94.4994" cy="34.9998" r="7.70833" fill="#E76067"/>
<path d="M93.875 37H95.125V38.2809H93.875V37ZM93.875 30.833H95.125V35.6247H93.875V30.833Z" fill="white"/>
<path d="M110.979 31.5918V30.1016H118.867V31.5918H115.818V40H114.041V31.5918H110.979ZM121.93 35.6523V40H120.18V30.1016H121.889V33.834H121.984C122.326 33 123.037 32.4805 124.186 32.4805C125.73 32.4805 126.742 33.4785 126.742 35.2695V40H125.006V35.543C125.006 34.5312 124.459 33.957 123.543 33.957C122.6 33.957 121.93 34.5723 121.93 35.6523ZM131.691 40.1504C129.449 40.1504 128.082 38.6602 128.082 36.3359C128.082 34.0391 129.477 32.4805 131.596 32.4805C133.414 32.4805 134.986 33.6152 134.986 36.2266V36.7734H129.805C129.825 38.0381 130.57 38.7832 131.705 38.7832C132.471 38.7832 132.99 38.4551 133.209 38.0176H134.918C134.604 39.3027 133.414 40.1504 131.691 40.1504ZM129.818 35.584H133.318C133.305 34.5723 132.635 33.834 131.623 33.834C130.57 33.834 129.873 34.6338 129.818 35.584ZM144.406 36.8828V32.5762H146.143V40H144.461V38.6875H144.379C144.037 39.5078 143.258 40.0957 142.15 40.0957C140.688 40.0957 139.676 39.084 139.662 37.3066V32.5762H141.412V37.0332C141.412 37.9766 141.973 38.5781 142.82 38.5781C143.586 38.5781 144.406 38.0176 144.406 36.8828ZM147.811 42.7891V32.5762H149.52V33.793H149.629C149.902 33.2598 150.449 32.4805 151.762 32.4805C153.471 32.4805 154.824 33.8203 154.824 36.2949C154.824 38.7422 153.512 40.1367 151.762 40.1367C150.477 40.1367 149.902 39.3711 149.629 38.8242H149.561V42.7891H147.811ZM149.52 36.2812C149.52 37.7305 150.148 38.7012 151.283 38.7012C152.432 38.7012 153.047 37.6895 153.047 36.2812C153.047 34.9004 152.445 33.9023 151.283 33.9023C150.148 33.9023 149.52 34.8457 149.52 36.2812ZM157.941 30.1016V40H156.191V30.1016H157.941ZM162.85 40.1504C160.689 40.1504 159.295 38.6191 159.295 36.3223C159.295 34.0117 160.689 32.4805 162.85 32.4805C165.023 32.4805 166.404 34.0117 166.404 36.3223C166.404 38.6191 165.023 40.1504 162.85 40.1504ZM162.863 38.7559C164.053 38.7559 164.641 37.6758 164.641 36.3086C164.641 34.9551 164.053 33.8613 162.863 33.8613C161.646 33.8613 161.059 34.9551 161.059 36.3086C161.059 37.6758 161.646 38.7559 162.863 38.7559ZM167.416 37.9082C167.416 36.2402 168.797 35.748 170.178 35.666C170.69 35.6318 171.757 35.5703 172.078 35.5566V34.9688C172.078 34.2305 171.6 33.8066 170.738 33.8066C169.959 33.8066 169.48 34.1621 169.344 34.6953H167.662C167.785 33.4375 168.92 32.4805 170.779 32.4805C172.188 32.4805 173.814 33.0547 173.814 35.0371V40H172.146V38.9746H172.092C171.764 39.6035 171.066 40.1504 169.904 40.1504C168.482 40.1504 167.416 39.3711 167.416 37.9082ZM169.098 37.8945C169.098 38.5371 169.617 38.8652 170.355 38.8652C171.408 38.8652 172.092 38.168 172.092 37.334V36.7188L170.451 36.8281C169.617 36.8965 169.098 37.2383 169.098 37.8945ZM178.217 40.1367C176.467 40.1367 175.154 38.7422 175.154 36.2949C175.154 33.8203 176.508 32.4805 178.23 32.4805C179.543 32.4805 180.09 33.2598 180.35 33.793H180.418V30.1016H182.154V40H180.445V38.8242H180.35C180.076 39.3711 179.502 40.1367 178.217 40.1367ZM178.695 38.7012C179.816 38.7012 180.459 37.7305 180.459 36.2812C180.459 34.8457 179.83 33.9023 178.695 33.9023C177.533 33.9023 176.932 34.9004 176.932 36.2812C176.932 37.6895 177.547 38.7012 178.695 38.7012ZM191 32.5762V33.916H189.469V40H187.719V33.916H186.611V32.5762H187.719V31.8652C187.719 30.416 188.621 29.6367 190.043 29.6367C190.453 29.6367 190.822 29.6777 191.15 29.7461V31.127C190.863 31.0859 190.645 31.0723 190.521 31.0723C189.811 31.0723 189.469 31.3594 189.469 32.0293V32.5762H191ZM191.656 37.9082C191.656 36.2402 193.037 35.748 194.418 35.666C194.931 35.6318 195.997 35.5703 196.318 35.5566V34.9688C196.318 34.2305 195.84 33.8066 194.979 33.8066C194.199 33.8066 193.721 34.1621 193.584 34.6953H191.902C192.025 33.4375 193.16 32.4805 195.02 32.4805C196.428 32.4805 198.055 33.0547 198.055 35.0371V40H196.387V38.9746H196.332C196.004 39.6035 195.307 40.1504 194.145 40.1504C192.723 40.1504 191.656 39.3711 191.656 37.9082ZM193.338 37.8945C193.338 38.5371 193.857 38.8652 194.596 38.8652C195.648 38.8652 196.332 38.168 196.332 37.334V36.7188L194.691 36.8281C193.857 36.8965 193.338 37.2383 193.338 37.8945ZM199.695 40V32.5762H201.445V40H199.695ZM200.584 31.5234C200.037 31.5234 199.572 31.0996 199.572 30.5664C199.572 30.0469 200.037 29.623 200.584 29.623C201.145 29.623 201.596 30.0469 201.596 30.5664C201.596 31.0996 201.145 31.5234 200.584 31.5234ZM204.863 30.1016V40H203.113V30.1016H204.863ZM209.826 40.1504C207.584 40.1504 206.217 38.6602 206.217 36.3359C206.217 34.0391 207.611 32.4805 209.73 32.4805C211.549 32.4805 213.121 33.6152 213.121 36.2266V36.7734H207.939C207.96 38.0381 208.705 38.7832 209.84 38.7832C210.605 38.7832 211.125 38.4551 211.344 38.0176H213.053C212.738 39.3027 211.549 40.1504 209.826 40.1504ZM207.953 35.584H211.453C211.439 34.5723 210.77 33.834 209.758 33.834C208.705 33.834 208.008 34.6338 207.953 35.584ZM217.236 40.1367C215.486 40.1367 214.174 38.7422 214.174 36.2949C214.174 33.8203 215.527 32.4805 217.25 32.4805C218.562 32.4805 219.109 33.2598 219.369 33.793H219.438V30.1016H221.174V40H219.465V38.8242H219.369C219.096 39.3711 218.521 40.1367 217.236 40.1367ZM217.715 38.7012C218.836 38.7012 219.479 37.7305 219.479 36.2812C219.479 34.8457 218.85 33.9023 217.715 33.9023C216.553 33.9023 215.951 34.9004 215.951 36.2812C215.951 37.6895 216.566 38.7012 217.715 38.7012ZM226.342 40V30.1016H228.092V33.793H228.16C228.434 33.2598 228.967 32.4805 230.279 32.4805C232.002 32.4805 233.355 33.8203 233.355 36.2949C233.355 38.7422 232.029 40.1367 230.293 40.1367C229.008 40.1367 228.434 39.3711 228.16 38.8242H228.051V40H226.342ZM228.051 36.2812C228.051 37.7305 228.68 38.7012 229.801 38.7012C230.963 38.7012 231.578 37.6895 231.578 36.2812C231.578 34.9004 230.977 33.9023 229.801 33.9023C228.68 33.9023 228.051 34.8457 228.051 36.2812ZM238.018 40.1504C235.775 40.1504 234.408 38.6602 234.408 36.3359C234.408 34.0391 235.803 32.4805 237.922 32.4805C239.74 32.4805 241.312 33.6152 241.312 36.2266V36.7734H236.131C236.151 38.0381 236.896 38.7832 238.031 38.7832C238.797 38.7832 239.316 38.4551 239.535 38.0176H241.244C240.93 39.3027 239.74 40.1504 238.018 40.1504ZM236.145 35.584H239.645C239.631 34.5723 238.961 33.834 237.949 33.834C236.896 33.834 236.199 34.6338 236.145 35.584ZM245.906 40.1504C243.691 40.1504 242.352 38.5645 242.352 36.3223C242.352 34.0527 243.732 32.4805 245.906 32.4805C247.711 32.4805 248.969 33.5332 249.092 35.1328H247.424C247.287 34.4219 246.768 33.875 245.92 33.875C244.84 33.875 244.115 34.791 244.115 36.2812C244.115 37.8125 244.826 38.7285 245.92 38.7285C246.699 38.7285 247.273 38.2773 247.424 37.4707H249.092C248.955 39.043 247.766 40.1504 245.906 40.1504ZM250.062 37.9082C250.062 36.2402 251.443 35.748 252.824 35.666C253.337 35.6318 254.403 35.5703 254.725 35.5566V34.9688C254.725 34.2305 254.246 33.8066 253.385 33.8066C252.605 33.8066 252.127 34.1621 251.99 34.6953H250.309C250.432 33.4375 251.566 32.4805 253.426 32.4805C254.834 32.4805 256.461 33.0547 256.461 35.0371V40H254.793V38.9746H254.738C254.41 39.6035 253.713 40.1504 252.551 40.1504C251.129 40.1504 250.062 39.3711 250.062 37.9082ZM251.744 37.8945C251.744 38.5371 252.264 38.8652 253.002 38.8652C254.055 38.8652 254.738 38.168 254.738 37.334V36.7188L253.098 36.8281C252.264 36.8965 251.744 37.2383 251.744 37.8945ZM262.846 36.8828V32.5762H264.582V40H262.9V38.6875H262.818C262.477 39.5078 261.697 40.0957 260.59 40.0957C259.127 40.0957 258.115 39.084 258.102 37.3066V32.5762H259.852V37.0332C259.852 37.9766 260.412 38.5781 261.26 38.5781C262.025 38.5781 262.846 38.0176 262.846 36.8828ZM270.461 34.6953C270.352 34.1348 269.887 33.7793 269.148 33.7793C268.396 33.7793 267.85 34.1484 267.863 34.6543C267.85 35.0371 268.164 35.3242 268.916 35.502L270.174 35.7617C271.582 36.0762 272.252 36.7188 272.266 37.7852C272.252 39.1797 271.035 40.1504 269.094 40.1504C267.207 40.1504 266.086 39.3027 265.908 37.8809H267.686C267.795 38.5098 268.287 38.8242 269.094 38.8242C269.928 38.8242 270.488 38.4824 270.488 37.9355C270.488 37.5117 270.146 37.2383 269.408 37.0742L268.219 36.8145C266.838 36.541 266.127 35.8164 266.127 34.75C266.127 33.3828 267.303 32.4805 269.121 32.4805C270.898 32.4805 271.992 33.3418 272.115 34.6953H270.461ZM276.887 40.1504C274.645 40.1504 273.277 38.6602 273.277 36.3359C273.277 34.0391 274.672 32.4805 276.791 32.4805C278.609 32.4805 280.182 33.6152 280.182 36.2266V36.7734H275C275.021 38.0381 275.766 38.7832 276.9 38.7832C277.666 38.7832 278.186 38.4551 278.404 38.0176H280.113C279.799 39.3027 278.609 40.1504 276.887 40.1504ZM275.014 35.584H278.514C278.5 34.5723 277.83 33.834 276.818 33.834C275.766 33.834 275.068 34.6338 275.014 35.584ZM288.562 32.5762V33.916H287.1V37.7715C287.1 38.4824 287.455 38.6328 287.893 38.6328C288.098 38.6328 288.439 38.6191 288.658 38.6055V40.0273C288.453 40.0684 288.111 40.0957 287.674 40.0957C286.361 40.0957 285.35 39.4531 285.363 38.0586V33.916H284.297V32.5762H285.363V30.7988H287.1V32.5762H288.562ZM291.816 35.6523V40H290.066V30.1016H291.775V33.834H291.871C292.213 33 292.924 32.4805 294.072 32.4805C295.617 32.4805 296.629 33.4785 296.629 35.2695V40H294.893V35.543C294.893 34.5312 294.346 33.957 293.43 33.957C292.486 33.957 291.816 34.5723 291.816 35.6523ZM301.578 40.1504C299.336 40.1504 297.969 38.6602 297.969 36.3359C297.969 34.0391 299.363 32.4805 301.482 32.4805C303.301 32.4805 304.873 33.6152 304.873 36.2266V36.7734H299.691C299.712 38.0381 300.457 38.7832 301.592 38.7832C302.357 38.7832 302.877 38.4551 303.096 38.0176H304.805C304.49 39.3027 303.301 40.1504 301.578 40.1504ZM299.705 35.584H303.205C303.191 34.5723 302.521 33.834 301.51 33.834C300.457 33.834 299.76 34.6338 299.705 35.584ZM313.309 32.5762V33.916H311.777V40H310.027V33.916H308.92V32.5762H310.027V31.8652C310.027 30.416 310.93 29.6367 312.352 29.6367C312.762 29.6367 313.131 29.6777 313.459 29.7461V31.127C313.172 31.0859 312.953 31.0723 312.83 31.0723C312.119 31.0723 311.777 31.3594 311.777 32.0293V32.5762H313.309ZM314.553 40V32.5762H316.303V40H314.553ZM315.441 31.5234C314.895 31.5234 314.43 31.0996 314.43 30.5664C314.43 30.0469 314.895 29.623 315.441 29.623C316.002 29.623 316.453 30.0469 316.453 30.5664C316.453 31.0996 316.002 31.5234 315.441 31.5234ZM319.721 30.1016V40H317.971V30.1016H319.721ZM324.684 40.1504C322.441 40.1504 321.074 38.6602 321.074 36.3359C321.074 34.0391 322.469 32.4805 324.588 32.4805C326.406 32.4805 327.979 33.6152 327.979 36.2266V36.7734H322.797C322.817 38.0381 323.562 38.7832 324.697 38.7832C325.463 38.7832 325.982 38.4551 326.201 38.0176H327.91C327.596 39.3027 326.406 40.1504 324.684 40.1504ZM322.811 35.584H326.311C326.297 34.5723 325.627 33.834 324.615 33.834C323.562 33.834 322.865 34.6338 322.811 35.584ZM115.094 52.5762V53.916H113.562V60H111.812V53.916H110.705V52.5762H111.812V51.8652C111.812 50.416 112.715 49.6367 114.137 49.6367C114.547 49.6367 114.916 49.6777 115.244 49.7461V51.127C114.957 51.0859 114.738 51.0723 114.615 51.0723C113.904 51.0723 113.562 51.3594 113.562 52.0293V52.5762H115.094ZM119.305 60.1504C117.145 60.1504 115.75 58.6191 115.75 56.3223C115.75 54.0117 117.145 52.4805 119.305 52.4805C121.479 52.4805 122.859 54.0117 122.859 56.3223C122.859 58.6191 121.479 60.1504 119.305 60.1504ZM119.318 58.7559C120.508 58.7559 121.096 57.6758 121.096 56.3086C121.096 54.9551 120.508 53.8613 119.318 53.8613C118.102 53.8613 117.514 54.9551 117.514 56.3086C117.514 57.6758 118.102 58.7559 119.318 58.7559ZM124.213 60V52.5762H125.908V53.8066H125.99C126.25 52.959 126.975 52.4668 127.822 52.4668C128.014 52.4668 128.287 52.4805 128.451 52.5078V54.1211C128.301 54.0664 127.932 54.0117 127.645 54.0117C126.674 54.0117 125.963 54.6816 125.963 55.625V60H124.213ZM129.49 60V52.5762H131.158V53.834H131.254C131.555 52.9863 132.307 52.4805 133.291 52.4805C134.303 52.4805 135.014 52.9863 135.301 53.834H135.383C135.711 53.0137 136.531 52.4805 137.611 52.4805C138.965 52.4805 139.922 53.3555 139.922 55.0098V60H138.186V55.2832C138.186 54.3535 137.625 53.9434 136.914 53.9434C136.053 53.9434 135.561 54.5312 135.561 55.3652V60H133.865V55.2148C133.865 54.4492 133.346 53.9434 132.607 53.9434C131.855 53.9434 131.24 54.5586 131.24 55.4883V60H129.49ZM141.248 57.9082C141.248 56.2402 142.629 55.748 144.01 55.666C144.522 55.6318 145.589 55.5703 145.91 55.5566V54.9688C145.91 54.2305 145.432 53.8066 144.57 53.8066C143.791 53.8066 143.312 54.1621 143.176 54.6953H141.494C141.617 53.4375 142.752 52.4805 144.611 52.4805C146.02 52.4805 147.646 53.0547 147.646 55.0371V60H145.979V58.9746H145.924C145.596 59.6035 144.898 60.1504 143.736 60.1504C142.314 60.1504 141.248 59.3711 141.248 57.9082ZM142.93 57.8945C142.93 58.5371 143.449 58.8652 144.188 58.8652C145.24 58.8652 145.924 58.168 145.924 57.334V56.7188L144.283 56.8281C143.449 56.8965 142.93 57.2383 142.93 57.8945ZM152.992 52.5762V53.916H151.529V57.7715C151.529 58.4824 151.885 58.6328 152.322 58.6328C152.527 58.6328 152.869 58.6191 153.088 58.6055V60.0273C152.883 60.0684 152.541 60.0957 152.104 60.0957C150.791 60.0957 149.779 59.4531 149.793 58.0586V53.916H148.727V52.5762H149.793V50.7988H151.529V52.5762H152.992ZM157.654 60V52.5762H159.404V60H157.654ZM158.543 51.5234C157.996 51.5234 157.531 51.0996 157.531 50.5664C157.531 50.0469 157.996 49.623 158.543 49.623C159.104 49.623 159.555 50.0469 159.555 50.5664C159.555 51.0996 159.104 51.5234 158.543 51.5234ZM165.283 54.6953C165.174 54.1348 164.709 53.7793 163.971 53.7793C163.219 53.7793 162.672 54.1484 162.686 54.6543C162.672 55.0371 162.986 55.3242 163.738 55.502L164.996 55.7617C166.404 56.0762 167.074 56.7188 167.088 57.7852C167.074 59.1797 165.857 60.1504 163.916 60.1504C162.029 60.1504 160.908 59.3027 160.73 57.8809H162.508C162.617 58.5098 163.109 58.8242 163.916 58.8242C164.75 58.8242 165.311 58.4824 165.311 57.9355C165.311 57.5117 164.969 57.2383 164.23 57.0742L163.041 56.8145C161.66 56.541 160.949 55.8164 160.949 54.75C160.949 53.3828 162.125 52.4805 163.943 52.4805C165.721 52.4805 166.814 53.3418 166.938 54.6953H165.283ZM173.486 55.6523V60H171.736V52.5762H173.404V53.834H173.5C173.842 53 174.594 52.4805 175.701 52.4805C177.246 52.4805 178.258 53.4922 178.244 55.2695V60H176.508V55.543C176.508 54.5449 175.975 53.957 175.059 53.957C174.129 53.957 173.486 54.5723 173.486 55.6523ZM183.152 60.1504C180.992 60.1504 179.598 58.6191 179.598 56.3223C179.598 54.0117 180.992 52.4805 183.152 52.4805C185.326 52.4805 186.707 54.0117 186.707 56.3223C186.707 58.6191 185.326 60.1504 183.152 60.1504ZM183.166 58.7559C184.355 58.7559 184.943 57.6758 184.943 56.3086C184.943 54.9551 184.355 53.8613 183.166 53.8613C181.949 53.8613 181.361 54.9551 181.361 56.3086C181.361 57.6758 181.949 58.7559 183.166 58.7559ZM191.766 52.5762V53.916H190.303V57.7715C190.303 58.4824 190.658 58.6328 191.096 58.6328C191.301 58.6328 191.643 58.6191 191.861 58.6055V60.0273C191.656 60.0684 191.314 60.0957 190.877 60.0957C189.564 60.0957 188.553 59.4531 188.566 58.0586V53.916H187.5V52.5762H188.566V50.7988H190.303V52.5762H191.766ZM200.639 54.6953C200.529 54.1348 200.064 53.7793 199.326 53.7793C198.574 53.7793 198.027 54.1484 198.041 54.6543C198.027 55.0371 198.342 55.3242 199.094 55.502L200.352 55.7617C201.76 56.0762 202.43 56.7188 202.443 57.7852C202.43 59.1797 201.213 60.1504 199.271 60.1504C197.385 60.1504 196.264 59.3027 196.086 57.8809H197.863C197.973 58.5098 198.465 58.8242 199.271 58.8242C200.105 58.8242 200.666 58.4824 200.666 57.9355C200.666 57.5117 200.324 57.2383 199.586 57.0742L198.396 56.8145C197.016 56.541 196.305 55.8164 196.305 54.75C196.305 53.3828 197.48 52.4805 199.299 52.4805C201.076 52.4805 202.17 53.3418 202.293 54.6953H200.639ZM208.514 56.8828V52.5762H210.25V60H208.568V58.6875H208.486C208.145 59.5078 207.365 60.0957 206.258 60.0957C204.795 60.0957 203.783 59.084 203.77 57.3066V52.5762H205.52V57.0332C205.52 57.9766 206.08 58.5781 206.928 58.5781C207.693 58.5781 208.514 58.0176 208.514 56.8828ZM211.918 62.7891V52.5762H213.627V53.793H213.736C214.01 53.2598 214.557 52.4805 215.869 52.4805C217.578 52.4805 218.932 53.8203 218.932 56.2949C218.932 58.7422 217.619 60.1367 215.869 60.1367C214.584 60.1367 214.01 59.3711 213.736 58.8242H213.668V62.7891H211.918ZM213.627 56.2812C213.627 57.7305 214.256 58.7012 215.391 58.7012C216.539 58.7012 217.154 57.6895 217.154 56.2812C217.154 54.9004 216.553 53.9023 215.391 53.9023C214.256 53.9023 213.627 54.8457 213.627 56.2812ZM220.299 62.7891V52.5762H222.008V53.793H222.117C222.391 53.2598 222.938 52.4805 224.25 52.4805C225.959 52.4805 227.312 53.8203 227.312 56.2949C227.312 58.7422 226 60.1367 224.25 60.1367C222.965 60.1367 222.391 59.3711 222.117 58.8242H222.049V62.7891H220.299ZM222.008 56.2812C222.008 57.7305 222.637 58.7012 223.771 58.7012C224.92 58.7012 225.535 57.6895 225.535 56.2812C225.535 54.9004 224.934 53.9023 223.771 53.9023C222.637 53.9023 222.008 54.8457 222.008 56.2812ZM231.92 60.1504C229.76 60.1504 228.365 58.6191 228.365 56.3223C228.365 54.0117 229.76 52.4805 231.92 52.4805C234.094 52.4805 235.475 54.0117 235.475 56.3223C235.475 58.6191 234.094 60.1504 231.92 60.1504ZM231.934 58.7559C233.123 58.7559 233.711 57.6758 233.711 56.3086C233.711 54.9551 233.123 53.8613 231.934 53.8613C230.717 53.8613 230.129 54.9551 230.129 56.3086C230.129 57.6758 230.717 58.7559 231.934 58.7559ZM236.828 60V52.5762H238.523V53.8066H238.605C238.865 52.959 239.59 52.4668 240.438 52.4668C240.629 52.4668 240.902 52.4805 241.066 52.5078V54.1211C240.916 54.0664 240.547 54.0117 240.26 54.0117C239.289 54.0117 238.578 54.6816 238.578 55.625V60H236.828ZM246.221 52.5762V53.916H244.758V57.7715C244.758 58.4824 245.113 58.6328 245.551 58.6328C245.756 58.6328 246.098 58.6191 246.316 58.6055V60.0273C246.111 60.0684 245.77 60.0957 245.332 60.0957C244.02 60.0957 243.008 59.4531 243.021 58.0586V53.916H241.955V52.5762H243.021V50.7988H244.758V52.5762H246.221ZM250.787 60.1504C248.545 60.1504 247.178 58.6602 247.178 56.3359C247.178 54.0391 248.572 52.4805 250.691 52.4805C252.51 52.4805 254.082 53.6152 254.082 56.2266V56.7734H248.9C248.921 58.0381 249.666 58.7832 250.801 58.7832C251.566 58.7832 252.086 58.4551 252.305 58.0176H254.014C253.699 59.3027 252.51 60.1504 250.787 60.1504ZM248.914 55.584H252.414C252.4 54.5723 251.73 53.834 250.719 53.834C249.666 53.834 248.969 54.6338 248.914 55.584ZM258.197 60.1367C256.447 60.1367 255.135 58.7422 255.135 56.2949C255.135 53.8203 256.488 52.4805 258.211 52.4805C259.523 52.4805 260.07 53.2598 260.33 53.793H260.398V50.1016H262.135V60H260.426V58.8242H260.33C260.057 59.3711 259.482 60.1367 258.197 60.1367ZM258.676 58.7012C259.797 58.7012 260.439 57.7305 260.439 56.2812C260.439 54.8457 259.811 53.9023 258.676 53.9023C257.514 53.9023 256.912 54.9004 256.912 56.2812C256.912 57.6895 257.527 58.7012 258.676 58.7012ZM266.879 57.9082C266.879 56.2402 268.26 55.748 269.641 55.666C270.153 55.6318 271.22 55.5703 271.541 55.5566V54.9688C271.541 54.2305 271.062 53.8066 270.201 53.8066C269.422 53.8066 268.943 54.1621 268.807 54.6953H267.125C267.248 53.4375 268.383 52.4805 270.242 52.4805C271.65 52.4805 273.277 53.0547 273.277 55.0371V60H271.609V58.9746H271.555C271.227 59.6035 270.529 60.1504 269.367 60.1504C267.945 60.1504 266.879 59.3711 266.879 57.9082ZM268.561 57.8945C268.561 58.5371 269.08 58.8652 269.818 58.8652C270.871 58.8652 271.555 58.168 271.555 57.334V56.7188L269.914 56.8281C269.08 56.8965 268.561 57.2383 268.561 57.8945ZM276.668 55.6523V60H274.918V52.5762H276.586V53.834H276.682C277.023 53 277.775 52.4805 278.883 52.4805C280.428 52.4805 281.439 53.4922 281.426 55.2695V60H279.689V55.543C279.689 54.5449 279.156 53.957 278.24 53.957C277.311 53.957 276.668 54.5723 276.668 55.6523ZM285.855 60.1367C284.105 60.1367 282.793 58.7422 282.793 56.2949C282.793 53.8203 284.146 52.4805 285.869 52.4805C287.182 52.4805 287.729 53.2598 287.988 53.793H288.057V50.1016H289.793V60H288.084V58.8242H287.988C287.715 59.3711 287.141 60.1367 285.855 60.1367ZM286.334 58.7012C287.455 58.7012 288.098 57.7305 288.098 56.2812C288.098 54.8457 287.469 53.9023 286.334 53.9023C285.172 53.9023 284.57 54.9004 284.57 56.2812C284.57 57.6895 285.186 58.7012 286.334 58.7012ZM298.584 52.5762V53.916H297.121V57.7715C297.121 58.4824 297.477 58.6328 297.914 58.6328C298.119 58.6328 298.461 58.6191 298.68 58.6055V60.0273C298.475 60.0684 298.133 60.0957 297.695 60.0957C296.383 60.0957 295.371 59.4531 295.385 58.0586V53.916H294.318V52.5762H295.385V50.7988H297.121V52.5762H298.584ZM301.838 55.6523V60H300.088V50.1016H301.797V53.834H301.893C302.234 53 302.945 52.4805 304.094 52.4805C305.639 52.4805 306.65 53.4785 306.65 55.2695V60H304.914V55.543C304.914 54.5312 304.367 53.957 303.451 53.957C302.508 53.957 301.838 54.5723 301.838 55.6523ZM311.6 60.1504C309.357 60.1504 307.99 58.6602 307.99 56.3359C307.99 54.0391 309.385 52.4805 311.504 52.4805C313.322 52.4805 314.895 53.6152 314.895 56.2266V56.7734H309.713C309.733 58.0381 310.479 58.7832 311.613 58.7832C312.379 58.7832 312.898 58.4551 313.117 58.0176H314.826C314.512 59.3027 313.322 60.1504 311.6 60.1504ZM309.727 55.584H313.227C313.213 54.5723 312.543 53.834 311.531 53.834C310.479 53.834 309.781 54.6338 309.727 55.584ZM115.094 72.5762V73.916H113.562V80H111.812V73.916H110.705V72.5762H111.812V71.8652C111.812 70.416 112.715 69.6367 114.137 69.6367C114.547 69.6367 114.916 69.6777 115.244 69.7461V71.127C114.957 71.0859 114.738 71.0723 114.615 71.0723C113.904 71.0723 113.562 71.3594 113.562 72.0293V72.5762H115.094ZM116.338 80V72.5762H118.088V80H116.338ZM117.227 71.5234C116.68 71.5234 116.215 71.0996 116.215 70.5664C116.215 70.0469 116.68 69.623 117.227 69.623C117.787 69.623 118.238 70.0469 118.238 70.5664C118.238 71.0996 117.787 71.5234 117.227 71.5234ZM121.506 70.1016V80H119.756V70.1016H121.506ZM126.469 80.1504C124.227 80.1504 122.859 78.6602 122.859 76.3359C122.859 74.0391 124.254 72.4805 126.373 72.4805C128.191 72.4805 129.764 73.6152 129.764 76.2266V76.7734H124.582C124.603 78.0381 125.348 78.7832 126.482 78.7832C127.248 78.7832 127.768 78.4551 127.986 78.0176H129.695C129.381 79.3027 128.191 80.1504 126.469 80.1504ZM124.596 75.584H128.096C128.082 74.5723 127.412 73.834 126.4 73.834C125.348 73.834 124.65 74.6338 124.596 75.584ZM138.65 74.6953C138.541 74.1348 138.076 73.7793 137.338 73.7793C136.586 73.7793 136.039 74.1484 136.053 74.6543C136.039 75.0371 136.354 75.3242 137.105 75.502L138.363 75.7617C139.771 76.0762 140.441 76.7188 140.455 77.7852C140.441 79.1797 139.225 80.1504 137.283 80.1504C135.396 80.1504 134.275 79.3027 134.098 77.8809H135.875C135.984 78.5098 136.477 78.8242 137.283 78.8242C138.117 78.8242 138.678 78.4824 138.678 77.9355C138.678 77.5117 138.336 77.2383 137.598 77.0742L136.408 76.8145C135.027 76.541 134.316 75.8164 134.316 74.75C134.316 73.3828 135.492 72.4805 137.311 72.4805C139.088 72.4805 140.182 73.3418 140.305 74.6953H138.65ZM141.781 80V72.5762H143.531V80H141.781ZM142.67 71.5234C142.123 71.5234 141.658 71.0996 141.658 70.5664C141.658 70.0469 142.123 69.623 142.67 69.623C143.23 69.623 143.682 70.0469 143.682 70.5664C143.682 71.0996 143.23 71.5234 142.67 71.5234ZM145.104 80V78.8926L148.932 74.0801V74.0117H145.227V72.5762H151.064V73.7656L147.414 78.4961V78.5645H151.201V80H145.104ZM155.795 80.1504C153.553 80.1504 152.186 78.6602 152.186 76.3359C152.186 74.0391 153.58 72.4805 155.699 72.4805C157.518 72.4805 159.09 73.6152 159.09 76.2266V76.7734H153.908C153.929 78.0381 154.674 78.7832 155.809 78.7832C156.574 78.7832 157.094 78.4551 157.312 78.0176H159.021C158.707 79.3027 157.518 80.1504 155.795 80.1504ZM153.922 75.584H157.422C157.408 74.5723 156.738 73.834 155.727 73.834C154.674 73.834 153.977 74.6338 153.922 75.584ZM167.061 80.1504C164.818 80.1504 163.451 78.6602 163.451 76.3359C163.451 74.0391 164.846 72.4805 166.965 72.4805C168.783 72.4805 170.355 73.6152 170.355 76.2266V76.7734H165.174C165.194 78.0381 165.939 78.7832 167.074 78.7832C167.84 78.7832 168.359 78.4551 168.578 78.0176H170.287C169.973 79.3027 168.783 80.1504 167.061 80.1504ZM165.188 75.584H168.688C168.674 74.5723 168.004 73.834 166.992 73.834C165.939 73.834 165.242 74.6338 165.188 75.584ZM172.994 72.5762L174.498 75.3242L176.029 72.5762H177.875L175.633 76.2812L177.916 80H176.084L174.498 77.3203L172.953 80H171.094L173.363 76.2812L171.148 72.5762H172.994ZM182.059 80.1504C179.844 80.1504 178.504 78.5645 178.504 76.3223C178.504 74.0527 179.885 72.4805 182.059 72.4805C183.863 72.4805 185.121 73.5332 185.244 75.1328H183.576C183.439 74.4219 182.92 73.875 182.072 73.875C180.992 73.875 180.268 74.791 180.268 76.2812C180.268 77.8125 180.979 78.7285 182.072 78.7285C182.852 78.7285 183.426 78.2773 183.576 77.4707H185.244C185.107 79.043 183.918 80.1504 182.059 80.1504ZM189.852 80.1504C187.609 80.1504 186.242 78.6602 186.242 76.3359C186.242 74.0391 187.637 72.4805 189.756 72.4805C191.574 72.4805 193.146 73.6152 193.146 76.2266V76.7734H187.965C187.985 78.0381 188.73 78.7832 189.865 78.7832C190.631 78.7832 191.15 78.4551 191.369 78.0176H193.078C192.764 79.3027 191.574 80.1504 189.852 80.1504ZM187.979 75.584H191.479C191.465 74.5723 190.795 73.834 189.783 73.834C188.73 73.834 188.033 74.6338 187.979 75.584ZM197.795 80.1504C195.553 80.1504 194.186 78.6602 194.186 76.3359C194.186 74.0391 195.58 72.4805 197.699 72.4805C199.518 72.4805 201.09 73.6152 201.09 76.2266V76.7734H195.908C195.929 78.0381 196.674 78.7832 197.809 78.7832C198.574 78.7832 199.094 78.4551 199.312 78.0176H201.021C200.707 79.3027 199.518 80.1504 197.795 80.1504ZM195.922 75.584H199.422C199.408 74.5723 198.738 73.834 197.727 73.834C196.674 73.834 195.977 74.6338 195.922 75.584ZM205.205 80.1367C203.455 80.1367 202.143 78.7422 202.143 76.2949C202.143 73.8203 203.496 72.4805 205.219 72.4805C206.531 72.4805 207.078 73.2598 207.338 73.793H207.406V70.1016H209.143V80H207.434V78.8242H207.338C207.064 79.3711 206.49 80.1367 205.205 80.1367ZM205.684 78.7012C206.805 78.7012 207.447 77.7305 207.447 76.2812C207.447 74.8457 206.818 73.9023 205.684 73.9023C204.521 73.9023 203.92 74.9004 203.92 76.2812C203.92 77.6895 204.535 78.7012 205.684 78.7012ZM215.117 74.6953C215.008 74.1348 214.543 73.7793 213.805 73.7793C213.053 73.7793 212.506 74.1484 212.52 74.6543C212.506 75.0371 212.82 75.3242 213.572 75.502L214.83 75.7617C216.238 76.0762 216.908 76.7188 216.922 77.7852C216.908 79.1797 215.691 80.1504 213.75 80.1504C211.863 80.1504 210.742 79.3027 210.564 77.8809H212.342C212.451 78.5098 212.943 78.8242 213.75 78.8242C214.584 78.8242 215.145 78.4824 215.145 77.9355C215.145 77.5117 214.803 77.2383 214.064 77.0742L212.875 76.8145C211.494 76.541 210.783 75.8164 210.783 74.75C210.783 73.3828 211.959 72.4805 213.777 72.4805C215.555 72.4805 216.648 73.3418 216.771 74.6953H215.117ZM225.275 72.5762V73.916H223.812V77.7715C223.812 78.4824 224.168 78.6328 224.605 78.6328C224.811 78.6328 225.152 78.6191 225.371 78.6055V80.0273C225.166 80.0684 224.824 80.0957 224.387 80.0957C223.074 80.0957 222.062 79.4531 222.076 78.0586V73.916H221.01V72.5762H222.076V70.7988H223.812V72.5762H225.275ZM228.529 75.6523V80H226.779V70.1016H228.488V73.834H228.584C228.926 73 229.637 72.4805 230.785 72.4805C232.33 72.4805 233.342 73.4785 233.342 75.2695V80H231.605V75.543C231.605 74.5312 231.059 73.957 230.143 73.957C229.199 73.957 228.529 74.5723 228.529 75.6523ZM238.291 80.1504C236.049 80.1504 234.682 78.6602 234.682 76.3359C234.682 74.0391 236.076 72.4805 238.195 72.4805C240.014 72.4805 241.586 73.6152 241.586 76.2266V76.7734H236.404C236.425 78.0381 237.17 78.7832 238.305 78.7832C239.07 78.7832 239.59 78.4551 239.809 78.0176H241.518C241.203 79.3027 240.014 80.1504 238.291 80.1504ZM236.418 75.584H239.918C239.904 74.5723 239.234 73.834 238.223 73.834C237.17 73.834 236.473 74.6338 236.418 75.584ZM246.262 80V72.5762H247.93V73.834H248.025C248.326 72.9863 249.078 72.4805 250.062 72.4805C251.074 72.4805 251.785 72.9863 252.072 73.834H252.154C252.482 73.0137 253.303 72.4805 254.383 72.4805C255.736 72.4805 256.693 73.3555 256.693 75.0098V80H254.957V75.2832C254.957 74.3535 254.396 73.9434 253.686 73.9434C252.824 73.9434 252.332 74.5312 252.332 75.3652V80H250.637V75.2148C250.637 74.4492 250.117 73.9434 249.379 73.9434C248.627 73.9434 248.012 74.5586 248.012 75.4883V80H246.262ZM258.02 77.9082C258.02 76.2402 259.4 75.748 260.781 75.666C261.294 75.6318 262.36 75.5703 262.682 75.5566V74.9688C262.682 74.2305 262.203 73.8066 261.342 73.8066C260.562 73.8066 260.084 74.1621 259.947 74.6953H258.266C258.389 73.4375 259.523 72.4805 261.383 72.4805C262.791 72.4805 264.418 73.0547 264.418 75.0371V80H262.75V78.9746H262.695C262.367 79.6035 261.67 80.1504 260.508 80.1504C259.086 80.1504 258.02 79.3711 258.02 77.9082ZM259.701 77.8945C259.701 78.5371 260.221 78.8652 260.959 78.8652C262.012 78.8652 262.695 78.168 262.695 77.334V76.7188L261.055 76.8281C260.221 76.8965 259.701 77.2383 259.701 77.8945ZM267.48 72.5762L268.984 75.3242L270.516 72.5762H272.361L270.119 76.2812L272.402 80H270.57L268.984 77.3203L267.439 80H265.58L267.85 76.2812L265.635 72.5762H267.48ZM273.592 80V72.5762H275.342V80H273.592ZM274.48 71.5234C273.934 71.5234 273.469 71.0996 273.469 70.5664C273.469 70.0469 273.934 69.623 274.48 69.623C275.041 69.623 275.492 70.0469 275.492 70.5664C275.492 71.0996 275.041 71.5234 274.48 71.5234ZM277.01 80V72.5762H278.678V73.834H278.773C279.074 72.9863 279.826 72.4805 280.811 72.4805C281.822 72.4805 282.533 72.9863 282.82 73.834H282.902C283.23 73.0137 284.051 72.4805 285.131 72.4805C286.484 72.4805 287.441 73.3555 287.441 75.0098V80H285.705V75.2832C285.705 74.3535 285.145 73.9434 284.434 73.9434C283.572 73.9434 283.08 74.5312 283.08 75.3652V80H281.385V75.2148C281.385 74.4492 280.865 73.9434 280.127 73.9434C279.375 73.9434 278.76 74.5586 278.76 75.4883V80H277.01ZM293.854 76.8828V72.5762H295.59V80H293.908V78.6875H293.826C293.484 79.5078 292.705 80.0957 291.598 80.0957C290.135 80.0957 289.123 79.084 289.109 77.3066V72.5762H290.859V77.0332C290.859 77.9766 291.42 78.5781 292.268 78.5781C293.033 78.5781 293.854 78.0176 293.854 76.8828ZM297.258 80V72.5762H298.926V73.834H299.021C299.322 72.9863 300.074 72.4805 301.059 72.4805C302.07 72.4805 302.781 72.9863 303.068 73.834H303.15C303.479 73.0137 304.299 72.4805 305.379 72.4805C306.732 72.4805 307.689 73.3555 307.689 75.0098V80H305.953V75.2832C305.953 74.3535 305.393 73.9434 304.682 73.9434C303.82 73.9434 303.328 74.5312 303.328 75.3652V80H301.633V75.2148C301.633 74.4492 301.113 73.9434 300.375 73.9434C299.623 73.9434 299.008 74.5586 299.008 75.4883V80H297.258ZM113.084 90.1016V100H111.334V90.1016H113.084ZM114.752 100V92.5762H116.502V100H114.752ZM115.641 91.5234C115.094 91.5234 114.629 91.0996 114.629 90.5664C114.629 90.0469 115.094 89.623 115.641 89.623C116.201 89.623 116.652 90.0469 116.652 90.5664C116.652 91.0996 116.201 91.5234 115.641 91.5234ZM118.17 100V92.5762H119.838V93.834H119.934C120.234 92.9863 120.986 92.4805 121.971 92.4805C122.982 92.4805 123.693 92.9863 123.98 93.834H124.062C124.391 93.0137 125.211 92.4805 126.291 92.4805C127.645 92.4805 128.602 93.3555 128.602 95.0098V100H126.865V95.2832C126.865 94.3535 126.305 93.9434 125.594 93.9434C124.732 93.9434 124.24 94.5312 124.24 95.3652V100H122.545V95.2148C122.545 94.4492 122.025 93.9434 121.287 93.9434C120.535 93.9434 119.92 94.5586 119.92 95.4883V100H118.17ZM130.27 100V92.5762H132.02V100H130.27ZM131.158 91.5234C130.611 91.5234 130.146 91.0996 130.146 90.5664C130.146 90.0469 130.611 89.623 131.158 89.623C131.719 89.623 132.17 90.0469 132.17 90.5664C132.17 91.0996 131.719 91.5234 131.158 91.5234ZM137.393 92.5762V93.916H135.93V97.7715C135.93 98.4824 136.285 98.6328 136.723 98.6328C136.928 98.6328 137.27 98.6191 137.488 98.6055V100.027C137.283 100.068 136.941 100.096 136.504 100.096C135.191 100.096 134.18 99.4531 134.193 98.0586V93.916H133.127V92.5762H134.193V90.7988H135.93V92.5762H137.393ZM139.812 100.109C139.225 100.109 138.746 99.6309 138.746 99.043C138.746 98.4688 139.225 97.9902 139.812 97.9902C140.373 97.9902 140.865 98.4688 140.865 99.043C140.865 99.6309 140.373 100.109 139.812 100.109Z" fill="#161616"/>
<mask id="mask0_1715_177912" style="mask-type:alpha" maskUnits="userSpaceOnUse" x="341" y="27" width="17" height="16">
<path d="M354.146 30.9404L350.087 34.9997L354.146 39.0596L353.439 39.7666L349.38 35.7067L345.32 39.7666L344.613 39.0596L348.673 34.9997L344.613 30.9404L345.32 30.2334L349.38 34.2926L353.439 30.2334L354.146 30.9404Z" fill="#161616"/>
</mask>
<g mask="url(#mask0_1715_177912)">
<rect x="341.5" y="27" width="16" height="16" fill="#858585"/>
</g>
</g>
</g>
<defs>
<filter id="filter0_dd_1715_177912" x="60.5" y="11" width="321" height="120" filterUnits="userSpaceOnUse" color-interpolation-filters="sRGB">
<feFlood flood-opacity="0" result="BackgroundImageFix"/>
<feColorMatrix in="SourceAlpha" type="matrix" values="0 0 0 0 0 0 0 0 0 0 0 0 0 0 0 0 0 0 127 0" result="hardAlpha"/>
<feOffset dy="6"/>
<feGaussianBlur stdDeviation="6"/>
<feComposite in2="hardAlpha" operator="out"/>
<feColorMatrix type="matrix" values="0 0 0 0 0 0 0 0 0 0 0 0 0 0 0 0 0 0 0.08 0"/>
<feBlend mode="normal" in2="BackgroundImageFix" result="effect1_dropShadow_1715_177912"/>
<feColorMatrix in="SourceAlpha" type="matrix" values="0 0 0 0 0 0 0 0 0 0 0 0 0 0 0 0 0 0 127 0" result="hardAlpha"/>
<feOffset dy="2"/>
<feGaussianBlur stdDeviation="4"/>
<feComposite in2="hardAlpha" operator="out"/>
<feColorMatrix type="matrix" values="0 0 0 0 0 0 0 0 0 0 0 0 0 0 0 0 0 0 0.08 0"/>
<feBlend mode="normal" in2="effect1_dropShadow_1715_177912" result="effect2_dropShadow_1715_177912"/>
<feBlend mode="normal" in="SourceGraphic" in2="effect2_dropShadow_1715_177912" result="shape"/>
</filter>
<clipPath id="clip0_1715_177912">
<path d="M0 8C0 3.58172 3.58172 0 8 0H434C438.418 0 442 3.58172 442 8V122C442 126.418 438.418 130 434 130H8C3.58172 130 0 126.418 0 122V8Z" fill="white"/>
</clipPath>
</defs>
</svg>
