<svg width="900" height="160" viewBox="0 0 900 160" fill="none" xmlns="http://www.w3.org/2000/svg">
<g filter="url(#filter0_dd_1715_177225)">
<mask id="path-2-inside-1_1715_177225" fill="white">
<path d="M48 52C48 49.7909 49.7909 48 52 48H260C262.209 48 264 49.7909 264 52V102C264 104.209 262.209 106 260 106H52C49.7909 106 48 104.209 48 102V52Z"/>
</mask>
<path d="M48 52C48 49.7909 49.7909 48 52 48H260C262.209 48 264 49.7909 264 52V102C264 104.209 262.209 106 260 106H52C49.7909 106 48 104.209 48 102V52Z" fill="white"/>
<path d="M52 48V49H260V48V47H52V48ZM264 52H263V102H264H265V52H264ZM260 106V105H52V106V107H260V106ZM48 102H49V52H48H47V102H48ZM52 106V105C50.3431 105 49 103.657 49 102H48H47C47 104.761 49.2386 107 52 107V106ZM264 102H263C263 103.657 261.657 105 260 105V106V107C262.761 107 265 104.761 265 102H264ZM260 48V49C261.657 49 263 50.3431 263 52H264H265C265 49.2386 262.761 47 260 47V48ZM52 48V47C49.2386 47 47 49.2386 47 52H48H49C49 50.3431 50.3431 49 52 49V48Z" fill="#E0E0E0" mask="url(#path-2-inside-1_1715_177225)"/>
<path d="M77.7077 65.9998C77.7077 70.257 74.2565 73.7082 69.9993 73.7082C65.7422 73.7082 62.291 70.257 62.291 65.9998C62.291 61.7426 65.7422 58.2915 69.9993 58.2915C74.2565 58.2915 77.7077 61.7426 77.7077 65.9998Z" fill="#3E9BCA"/>
<path d="M69.375 65.3752H70.625V69.458H69.375V65.3752ZM70.6323 62.5415V63.7915H69.375V62.5415H70.6323Z" fill="white"/>
<path d="M95.0508 61.1016V71H93.4648L88.7754 64.2324H88.6934V71H86.916V61.1016H88.5293L93.1914 67.8691H93.2871V61.1016H95.0508ZM100.041 71.1504C97.8809 71.1504 96.4863 69.6191 96.4863 67.3223C96.4863 65.0117 97.8809 63.4805 100.041 63.4805C102.215 63.4805 103.596 65.0117 103.596 67.3223C103.596 69.6191 102.215 71.1504 100.041 71.1504ZM100.055 69.7559C101.244 69.7559 101.832 68.6758 101.832 67.3086C101.832 65.9551 101.244 64.8613 100.055 64.8613C98.8379 64.8613 98.25 65.9551 98.25 67.3086C98.25 68.6758 98.8379 69.7559 100.055 69.7559ZM108.654 63.5762V64.916H107.191V68.7715C107.191 69.4824 107.547 69.6328 107.984 69.6328C108.189 69.6328 108.531 69.6191 108.75 69.6055V71.0273C108.545 71.0684 108.203 71.0957 107.766 71.0957C106.453 71.0957 105.441 70.4531 105.455 69.0586V64.916H104.389V63.5762H105.455V61.7988H107.191V63.5762H108.654ZM109.994 71V63.5762H111.744V71H109.994ZM110.883 62.5234C110.336 62.5234 109.871 62.0996 109.871 61.5664C109.871 61.0469 110.336 60.623 110.883 60.623C111.443 60.623 111.895 61.0469 111.895 61.5664C111.895 62.0996 111.443 62.5234 110.883 62.5234ZM117.172 63.5762V64.916H115.641V71H113.891V64.916H112.783V63.5762H113.891V62.8652C113.891 61.416 114.793 60.6367 116.215 60.6367C116.625 60.6367 116.994 60.6777 117.322 60.7461V62.127C117.035 62.0859 116.816 62.0723 116.693 62.0723C115.982 62.0723 115.641 62.3594 115.641 63.0293V63.5762H117.172ZM118.416 71V63.5762H120.166V71H118.416ZM119.305 62.5234C118.758 62.5234 118.293 62.0996 118.293 61.5664C118.293 61.0469 118.758 60.623 119.305 60.623C119.865 60.623 120.316 61.0469 120.316 61.5664C120.316 62.0996 119.865 62.5234 119.305 62.5234ZM125.074 71.1504C122.859 71.1504 121.52 69.5645 121.52 67.3223C121.52 65.0527 122.9 63.4805 125.074 63.4805C126.879 63.4805 128.137 64.5332 128.26 66.1328H126.592C126.455 65.4219 125.936 64.875 125.088 64.875C124.008 64.875 123.283 65.791 123.283 67.2812C123.283 68.8125 123.994 69.7285 125.088 69.7285C125.867 69.7285 126.441 69.2773 126.592 68.4707H128.26C128.123 70.043 126.934 71.1504 125.074 71.1504ZM129.23 68.9082C129.23 67.2402 130.611 66.748 131.992 66.666C132.505 66.6318 133.571 66.5703 133.893 66.5566V65.9688C133.893 65.2305 133.414 64.8066 132.553 64.8066C131.773 64.8066 131.295 65.1621 131.158 65.6953H129.477C129.6 64.4375 130.734 63.4805 132.594 63.4805C134.002 63.4805 135.629 64.0547 135.629 66.0371V71H133.961V69.9746H133.906C133.578 70.6035 132.881 71.1504 131.719 71.1504C130.297 71.1504 129.23 70.3711 129.23 68.9082ZM130.912 68.8945C130.912 69.5371 131.432 69.8652 132.17 69.8652C133.223 69.8652 133.906 69.168 133.906 68.334V67.7188L132.266 67.8281C131.432 67.8965 130.912 68.2383 130.912 68.8945ZM140.975 63.5762V64.916H139.512V68.7715C139.512 69.4824 139.867 69.6328 140.305 69.6328C140.51 69.6328 140.852 69.6191 141.07 69.6055V71.0273C140.865 71.0684 140.523 71.0957 140.086 71.0957C138.773 71.0957 137.762 70.4531 137.775 69.0586V64.916H136.709V63.5762H137.775V61.7988H139.512V63.5762H140.975ZM142.314 71V63.5762H144.064V71H142.314ZM143.203 62.5234C142.656 62.5234 142.191 62.0996 142.191 61.5664C142.191 61.0469 142.656 60.623 143.203 60.623C143.764 60.623 144.215 61.0469 144.215 61.5664C144.215 62.0996 143.764 62.5234 143.203 62.5234ZM148.973 71.1504C146.812 71.1504 145.418 69.6191 145.418 67.3223C145.418 65.0117 146.812 63.4805 148.973 63.4805C151.146 63.4805 152.527 65.0117 152.527 67.3223C152.527 69.6191 151.146 71.1504 148.973 71.1504ZM148.986 69.7559C150.176 69.7559 150.764 68.6758 150.764 67.3086C150.764 65.9551 150.176 64.8613 148.986 64.8613C147.77 64.8613 147.182 65.9551 147.182 67.3086C147.182 68.6758 147.77 69.7559 148.986 69.7559ZM155.631 66.6523V71H153.881V63.5762H155.549V64.834H155.645C155.986 64 156.738 63.4805 157.846 63.4805C159.391 63.4805 160.402 64.4922 160.389 66.2695V71H158.652V66.543C158.652 65.5449 158.119 64.957 157.203 64.957C156.273 64.957 155.631 65.5723 155.631 66.6523ZM165.461 61.1016H167.648L170.588 68.293H170.711L173.65 61.1016H175.838V71H174.129V64.1914H174.033L171.285 70.9727H170.014L167.266 64.1641H167.184V71H165.461V61.1016ZM180.883 71.1504C178.641 71.1504 177.273 69.6602 177.273 67.3359C177.273 65.0391 178.668 63.4805 180.787 63.4805C182.605 63.4805 184.178 64.6152 184.178 67.2266V67.7734H178.996C179.017 69.0381 179.762 69.7832 180.896 69.7832C181.662 69.7832 182.182 69.4551 182.4 69.0176H184.109C183.795 70.3027 182.605 71.1504 180.883 71.1504ZM179.01 66.584H182.51C182.496 65.5723 181.826 64.834 180.814 64.834C179.762 64.834 179.064 65.6338 179.01 66.584ZM189.742 65.6953C189.633 65.1348 189.168 64.7793 188.43 64.7793C187.678 64.7793 187.131 65.1484 187.145 65.6543C187.131 66.0371 187.445 66.3242 188.197 66.502L189.455 66.7617C190.863 67.0762 191.533 67.7188 191.547 68.7852C191.533 70.1797 190.316 71.1504 188.375 71.1504C186.488 71.1504 185.367 70.3027 185.189 68.8809H186.967C187.076 69.5098 187.568 69.8242 188.375 69.8242C189.209 69.8242 189.77 69.4824 189.77 68.9355C189.77 68.5117 189.428 68.2383 188.689 68.0742L187.5 67.8145C186.119 67.541 185.408 66.8164 185.408 65.75C185.408 64.3828 186.584 63.4805 188.402 63.4805C190.18 63.4805 191.273 64.3418 191.396 65.6953H189.742ZM197.084 65.6953C196.975 65.1348 196.51 64.7793 195.771 64.7793C195.02 64.7793 194.473 65.1484 194.486 65.6543C194.473 66.0371 194.787 66.3242 195.539 66.502L196.797 66.7617C198.205 67.0762 198.875 67.7188 198.889 68.7852C198.875 70.1797 197.658 71.1504 195.717 71.1504C193.83 71.1504 192.709 70.3027 192.531 68.8809H194.309C194.418 69.5098 194.91 69.8242 195.717 69.8242C196.551 69.8242 197.111 69.4824 197.111 68.9355C197.111 68.5117 196.77 68.2383 196.031 68.0742L194.842 67.8145C193.461 67.541 192.75 66.8164 192.75 65.75C192.75 64.3828 193.926 63.4805 195.744 63.4805C197.521 63.4805 198.615 64.3418 198.738 65.6953H197.084ZM199.873 68.9082C199.873 67.2402 201.254 66.748 202.635 66.666C203.147 66.6318 204.214 66.5703 204.535 66.5566V65.9688C204.535 65.2305 204.057 64.8066 203.195 64.8066C202.416 64.8066 201.938 65.1621 201.801 65.6953H200.119C200.242 64.4375 201.377 63.4805 203.236 63.4805C204.645 63.4805 206.271 64.0547 206.271 66.0371V71H204.604V69.9746H204.549C204.221 70.6035 203.523 71.1504 202.361 71.1504C200.939 71.1504 199.873 70.3711 199.873 68.9082ZM201.555 68.8945C201.555 69.5371 202.074 69.8652 202.812 69.8652C203.865 69.8652 204.549 69.168 204.549 68.334V67.7188L202.908 67.8281C202.074 67.8965 201.555 68.2383 201.555 68.8945ZM211.152 73.9395C209.184 73.9395 207.939 73.0645 207.816 71.6699H209.553C209.676 72.3125 210.291 72.627 211.18 72.627C212.219 72.627 212.902 72.1758 212.902 71.082V69.6602H212.82C212.547 70.207 211.959 70.8906 210.674 70.8906C208.965 70.8906 207.611 69.6465 207.611 67.2266C207.611 64.7793 208.965 63.4805 210.688 63.4805C212 63.4805 212.547 64.2598 212.82 64.793H212.902V63.5762H214.625V71.123C214.625 73.0234 213.162 73.9395 211.152 73.9395ZM211.152 69.5234C212.273 69.5234 212.916 68.6758 212.916 67.2539C212.916 65.8457 212.287 64.9023 211.152 64.9023C209.99 64.9023 209.389 65.9004 209.389 67.2539C209.389 68.6211 210.004 69.5234 211.152 69.5234ZM219.588 71.1504C217.346 71.1504 215.979 69.6602 215.979 67.3359C215.979 65.0391 217.373 63.4805 219.492 63.4805C221.311 63.4805 222.883 64.6152 222.883 67.2266V67.7734H217.701C217.722 69.0381 218.467 69.7832 219.602 69.7832C220.367 69.7832 220.887 69.4551 221.105 69.0176H222.814C222.5 70.3027 221.311 71.1504 219.588 71.1504ZM217.715 66.584H221.215C221.201 65.5723 220.531 64.834 219.52 64.834C218.467 64.834 217.77 65.6338 217.715 66.584Z" fill="#161616"/>
<path d="M90.1699 91H87.0938V81.1016H90.293C93.1777 81.1016 94.8867 82.9609 94.8867 86.0371C94.8867 89.127 93.1777 91 90.1699 91ZM88.3242 89.9062H90.0879C92.5215 89.9062 93.6836 88.4434 93.6836 86.0371C93.6836 83.6445 92.5215 82.1953 90.2109 82.1953H88.3242V89.9062ZM99.6582 91.1504C97.5117 91.1504 96.1855 89.6328 96.1855 87.3496C96.1855 85.0664 97.5254 83.4805 99.5488 83.4805C101.107 83.4805 102.748 84.4375 102.748 87.1855V87.6777H97.3613C97.416 89.25 98.332 90.1113 99.6582 90.1113C100.547 90.1113 101.107 89.7285 101.381 89.2637H102.639C102.283 90.3848 101.189 91.1504 99.6582 91.1504ZM97.375 86.6797H101.559C101.559 85.4355 100.766 84.5195 99.5488 84.5195C98.2637 84.5195 97.4434 85.5312 97.375 86.6797ZM108.408 85.5039C108.244 84.8887 107.779 84.4785 106.904 84.4785C105.988 84.4785 105.332 84.9707 105.332 85.5996C105.332 86.0918 105.729 86.4336 106.604 86.6387L107.711 86.9121C109.037 87.2266 109.693 87.8828 109.693 88.9219C109.693 90.207 108.641 91.1504 106.781 91.1504C105.113 91.1504 104.115 90.4121 103.924 89.0586H105.154C105.291 89.7832 105.824 90.125 106.754 90.125C107.807 90.125 108.477 89.6875 108.477 88.9902C108.477 88.4707 108.107 88.1152 107.26 87.9238L106.139 87.6641C104.84 87.3633 104.156 86.6523 104.156 85.668C104.156 84.3965 105.264 83.4805 106.904 83.4805C108.436 83.4805 109.406 84.3008 109.557 85.5039H108.408ZM114.26 91.1504C112.154 91.1504 110.869 89.5508 110.869 87.3223C110.869 85.0664 112.209 83.4805 114.232 83.4805C115.818 83.4805 116.994 84.4102 117.186 85.8184H116.01C115.846 85.1348 115.244 84.5195 114.26 84.5195C112.934 84.5195 112.045 85.6133 112.045 87.2812C112.045 89.0039 112.906 90.0977 114.26 90.0977C115.135 90.0977 115.805 89.6328 116.01 88.8125H117.186C116.994 90.1387 115.914 91.1504 114.26 91.1504ZM118.635 91V83.5762H119.77V84.7109H119.852C120.125 83.959 120.891 83.4531 121.766 83.4531C121.943 83.4531 122.244 83.4668 122.381 83.4805V84.6699C122.299 84.6426 121.971 84.5879 121.67 84.5879C120.604 84.5879 119.811 85.3262 119.811 86.3242V91H118.635ZM123.529 91V83.5762H124.705V91H123.529ZM124.117 82.3457C123.666 82.3457 123.297 82.0039 123.297 81.5664C123.297 81.1289 123.666 80.7871 124.117 80.7871C124.568 80.7871 124.951 81.1289 124.951 81.5664C124.951 82.0039 124.568 82.3457 124.117 82.3457ZM126.578 93.7891V83.5762H127.713V84.752H127.85C128.096 84.3555 128.561 83.4805 129.996 83.4805C131.855 83.4805 133.154 84.957 133.154 87.3086C133.154 89.6602 131.855 91.1504 130.01 91.1504C128.588 91.1504 128.096 90.2754 127.85 89.8652H127.754V93.7891H126.578ZM127.727 87.2812C127.727 88.9492 128.479 90.0977 129.846 90.0977C131.254 90.0977 131.979 88.8672 131.979 87.2812C131.979 85.7363 131.268 84.5332 129.846 84.5332C128.451 84.5332 127.727 85.6406 127.727 87.2812ZM137.926 83.5762V84.5605H136.367V88.8672C136.367 89.8242 136.832 89.9746 137.338 89.9746C137.557 89.9746 137.857 89.9609 138.035 89.9473V91.041C137.857 91.0684 137.557 91.0957 137.215 91.0957C136.23 91.0957 135.178 90.4805 135.178 89.168V84.5605H134.057V83.5762H135.178V81.7988H136.367V83.5762H137.926ZM139.443 91V83.5762H140.619V91H139.443ZM140.031 82.3457C139.58 82.3457 139.211 82.0039 139.211 81.5664C139.211 81.1289 139.58 80.7871 140.031 80.7871C140.482 80.7871 140.865 81.1289 140.865 81.5664C140.865 82.0039 140.482 82.3457 140.031 82.3457ZM145.527 91.1504C143.504 91.1504 142.137 89.6328 142.137 87.3223C142.137 85.0117 143.504 83.4805 145.527 83.4805C147.537 83.4805 148.891 85.0117 148.891 87.3223C148.891 89.6328 147.537 91.1504 145.527 91.1504ZM145.527 90.1113C147.018 90.1113 147.715 88.7988 147.715 87.3223C147.715 85.8457 147.018 84.5195 145.527 84.5195C144.01 84.5195 143.312 85.8457 143.312 87.3223C143.312 88.7988 144.01 90.1113 145.527 90.1113ZM151.611 86.543V91H150.436V83.5762H151.57V84.7383H151.666C152.021 83.9863 152.705 83.4805 153.84 83.4805C155.344 83.4805 156.342 84.3965 156.342 86.2832V91H155.166V86.3652C155.166 85.2168 154.537 84.5332 153.484 84.5332C152.404 84.5332 151.611 85.2578 151.611 86.543ZM164.982 83.5762V84.5605H163.424V88.8672C163.424 89.8242 163.889 89.9746 164.395 89.9746C164.613 89.9746 164.914 89.9609 165.092 89.9473V91.041C164.914 91.0684 164.613 91.0957 164.271 91.0957C163.287 91.0957 162.234 90.4805 162.234 89.168V84.5605H161.113V83.5762H162.234V81.7988H163.424V83.5762H164.982ZM169.549 91.1504C167.402 91.1504 166.076 89.6328 166.076 87.3496C166.076 85.0664 167.416 83.4805 169.439 83.4805C170.998 83.4805 172.639 84.4375 172.639 87.1855V87.6777H167.252C167.307 89.25 168.223 90.1113 169.549 90.1113C170.438 90.1113 170.998 89.7285 171.271 89.2637H172.529C172.174 90.3848 171.08 91.1504 169.549 91.1504ZM167.266 86.6797H171.449C171.449 85.4355 170.656 84.5195 169.439 84.5195C168.154 84.5195 167.334 85.5312 167.266 86.6797ZM174.867 83.5762L176.617 86.5977L178.381 83.5762H179.734L177.342 87.2812L179.734 91H178.395L176.617 88.1289L174.867 91H173.514L175.852 87.2812L173.514 83.5762H174.867ZM184.396 83.5762V84.5605H182.838V88.8672C182.838 89.8242 183.303 89.9746 183.809 89.9746C184.027 89.9746 184.328 89.9609 184.506 89.9473V91.041C184.328 91.0684 184.027 91.0957 183.686 91.0957C182.701 91.0957 181.648 90.4805 181.648 89.168V84.5605H180.527V83.5762H181.648V81.7988H182.838V83.5762H184.396Z" fill="#636363"/>
<mask id="mask0_1715_177225" style="mask-type:alpha" maskUnits="userSpaceOnUse" x="236" y="58" width="16" height="16">
<path d="M248.646 61.9404L244.587 65.9997L248.646 70.0596L247.939 70.7666L243.88 66.7067L239.82 70.7666L239.113 70.0596L243.173 65.9997L239.113 61.9404L239.82 61.2334L243.88 65.2926L247.939 61.2334L248.646 61.9404Z" fill="#161616"/>
</mask>
<g mask="url(#mask0_1715_177225)">
<rect x="236" y="58" width="16" height="16" fill="#858585"/>
</g>
</g>
<defs>
<filter id="filter0_dd_1715_177225" x="36" y="42" width="240" height="82" filterUnits="userSpaceOnUse" color-interpolation-filters="sRGB">
<feFlood flood-opacity="0" result="BackgroundImageFix"/>
<feColorMatrix in="SourceAlpha" type="matrix" values="0 0 0 0 0 0 0 0 0 0 0 0 0 0 0 0 0 0 127 0" result="hardAlpha"/>
<feOffset dy="6"/>
<feGaussianBlur stdDeviation="6"/>
<feComposite in2="hardAlpha" operator="out"/>
<feColorMatrix type="matrix" values="0 0 0 0 0 0 0 0 0 0 0 0 0 0 0 0 0 0 0.08 0"/>
<feBlend mode="normal" in2="BackgroundImageFix" result="effect1_dropShadow_1715_177225"/>
<feColorMatrix in="SourceAlpha" type="matrix" values="0 0 0 0 0 0 0 0 0 0 0 0 0 0 0 0 0 0 127 0" result="hardAlpha"/>
<feOffset dy="2"/>
<feGaussianBlur stdDeviation="4"/>
<feComposite in2="hardAlpha" operator="out"/>
<feColorMatrix type="matrix" values="0 0 0 0 0 0 0 0 0 0 0 0 0 0 0 0 0 0 0.08 0"/>
<feBlend mode="normal" in2="effect1_dropShadow_1715_177225" result="effect2_dropShadow_1715_177225"/>
<feBlend mode="normal" in="SourceGraphic" in2="effect2_dropShadow_1715_177225" result="shape"/>
</filter>
</defs>
</svg>
