<svg width="442" height="168" viewBox="0 0 442 168" fill="none" xmlns="http://www.w3.org/2000/svg">
<g filter="url(#filter0_dd_1715_177249)">
<mask id="path-2-inside-1_1715_177249" fill="white">
<path d="M101.5 51C101.5 48.7909 103.291 47 105.5 47H336.5C338.709 47 340.5 48.7909 340.5 51V117C340.5 119.209 338.709 121 336.5 121H105.5C103.291 121 101.5 119.209 101.5 117V51Z"/>
</mask>
<path d="M101.5 51C101.5 48.7909 103.291 47 105.5 47H336.5C338.709 47 340.5 48.7909 340.5 51V117C340.5 119.209 338.709 121 336.5 121H105.5C103.291 121 101.5 119.209 101.5 117V51Z" fill="white"/>
<path d="M105.5 47V48H336.5V47V46H105.5V47ZM340.5 51H339.5V117H340.5H341.5V51H340.5ZM336.5 121V120H105.5V121V122H336.5V121ZM101.5 117H102.5V51H101.5H100.5V117H101.5ZM105.5 121V120C103.843 120 102.5 118.657 102.5 117H101.5H100.5C100.5 119.761 102.739 122 105.5 122V121ZM340.5 117H339.5C339.5 118.657 338.157 120 336.5 120V121V122C339.261 122 341.5 119.761 341.5 117H340.5ZM336.5 47V48C338.157 48 339.5 49.3431 339.5 51H340.5H341.5C341.5 48.2386 339.261 46 336.5 46V47ZM105.5 47V46C102.739 46 100.5 48.2386 100.5 51H101.5H102.5C102.5 49.3431 103.843 48 105.5 48V47Z" fill="#E0E0E0" mask="url(#path-2-inside-1_1715_177249)"/>
<path d="M128.95 70.4505C125.94 73.4607 121.059 73.4607 118.049 70.4505C115.038 67.4402 115.038 62.5595 118.049 59.5492C121.059 56.5389 125.94 56.5389 128.95 59.5492C131.96 62.5595 131.96 67.4402 128.95 70.4505Z" fill="#35A142"/>
<path d="M127.114 63.3271L122.878 67.563C122.634 67.807 122.238 67.8071 121.994 67.563L119.873 65.4422L120.757 64.5584L122.436 66.2373L126.23 62.4434L127.114 63.3271Z" fill="white"/>
<path d="M147.088 63.4375C146.883 62.248 145.926 61.5645 144.723 61.5645C143.096 61.5645 141.961 62.8086 141.961 65.0508C141.961 67.3203 143.109 68.5371 144.723 68.5371C145.898 68.5371 146.855 67.8809 147.088 66.7188H148.879C148.605 68.6191 147.047 70.1367 144.695 70.1367C142.084 70.1367 140.17 68.2363 140.17 65.0508C140.17 61.8516 142.111 59.9648 144.695 59.9648C146.883 59.9648 148.578 61.2363 148.879 63.4375H147.088ZM152.078 65.6523V70H150.328V60.1016H152.037V63.834H152.133C152.475 63 153.186 62.4805 154.334 62.4805C155.879 62.4805 156.891 63.4785 156.891 65.2695V70H155.154V65.543C155.154 64.5312 154.607 63.957 153.691 63.957C152.748 63.957 152.078 64.5723 152.078 65.6523ZM158.203 67.9082C158.203 66.2402 159.584 65.748 160.965 65.666C161.478 65.6318 162.544 65.5703 162.865 65.5566V64.9688C162.865 64.2305 162.387 63.8066 161.525 63.8066C160.746 63.8066 160.268 64.1621 160.131 64.6953H158.449C158.572 63.4375 159.707 62.4805 161.566 62.4805C162.975 62.4805 164.602 63.0547 164.602 65.0371V70H162.934V68.9746H162.879C162.551 69.6035 161.854 70.1504 160.691 70.1504C159.27 70.1504 158.203 69.3711 158.203 67.9082ZM159.885 67.8945C159.885 68.5371 160.404 68.8652 161.143 68.8652C162.195 68.8652 162.879 68.168 162.879 67.334V66.7188L161.238 66.8281C160.404 66.8965 159.885 67.2383 159.885 67.8945ZM167.992 65.6523V70H166.242V62.5762H167.91V63.834H168.006C168.348 63 169.1 62.4805 170.207 62.4805C171.752 62.4805 172.764 63.4922 172.75 65.2695V70H171.014V65.543C171.014 64.5449 170.48 63.957 169.564 63.957C168.635 63.957 167.992 64.5723 167.992 65.6523ZM177.658 72.9395C175.689 72.9395 174.445 72.0645 174.322 70.6699H176.059C176.182 71.3125 176.797 71.627 177.686 71.627C178.725 71.627 179.408 71.1758 179.408 70.082V68.6602H179.326C179.053 69.207 178.465 69.8906 177.18 69.8906C175.471 69.8906 174.117 68.6465 174.117 66.2266C174.117 63.7793 175.471 62.4805 177.193 62.4805C178.506 62.4805 179.053 63.2598 179.326 63.793H179.408V62.5762H181.131V70.123C181.131 72.0234 179.668 72.9395 177.658 72.9395ZM177.658 68.5234C178.779 68.5234 179.422 67.6758 179.422 66.2539C179.422 64.8457 178.793 63.9023 177.658 63.9023C176.496 63.9023 175.895 64.9004 175.895 66.2539C175.895 67.6211 176.51 68.5234 177.658 68.5234ZM186.094 70.1504C183.852 70.1504 182.484 68.6602 182.484 66.3359C182.484 64.0391 183.879 62.4805 185.998 62.4805C187.816 62.4805 189.389 63.6152 189.389 66.2266V66.7734H184.207C184.228 68.0381 184.973 68.7832 186.107 68.7832C186.873 68.7832 187.393 68.4551 187.611 68.0176H189.32C189.006 69.3027 187.816 70.1504 186.094 70.1504ZM184.221 65.584H187.721C187.707 64.5723 187.037 63.834 186.025 63.834C184.973 63.834 184.275 64.6338 184.221 65.584ZM194.953 64.6953C194.844 64.1348 194.379 63.7793 193.641 63.7793C192.889 63.7793 192.342 64.1484 192.355 64.6543C192.342 65.0371 192.656 65.3242 193.408 65.502L194.666 65.7617C196.074 66.0762 196.744 66.7188 196.758 67.7852C196.744 69.1797 195.527 70.1504 193.586 70.1504C191.699 70.1504 190.578 69.3027 190.4 67.8809H192.178C192.287 68.5098 192.779 68.8242 193.586 68.8242C194.42 68.8242 194.98 68.4824 194.98 67.9355C194.98 67.5117 194.639 67.2383 193.9 67.0742L192.711 66.8145C191.33 66.541 190.619 65.8164 190.619 64.75C190.619 63.3828 191.795 62.4805 193.613 62.4805C195.391 62.4805 196.484 63.3418 196.607 64.6953H194.953ZM205.617 64.6953C205.508 64.1348 205.043 63.7793 204.305 63.7793C203.553 63.7793 203.006 64.1484 203.02 64.6543C203.006 65.0371 203.32 65.3242 204.072 65.502L205.33 65.7617C206.738 66.0762 207.408 66.7188 207.422 67.7852C207.408 69.1797 206.191 70.1504 204.25 70.1504C202.363 70.1504 201.242 69.3027 201.064 67.8809H202.842C202.951 68.5098 203.443 68.8242 204.25 68.8242C205.084 68.8242 205.645 68.4824 205.645 67.9355C205.645 67.5117 205.303 67.2383 204.564 67.0742L203.375 66.8145C201.994 66.541 201.283 65.8164 201.283 64.75C201.283 63.3828 202.459 62.4805 204.277 62.4805C206.055 62.4805 207.148 63.3418 207.271 64.6953H205.617ZM208.406 67.9082C208.406 66.2402 209.787 65.748 211.168 65.666C211.681 65.6318 212.747 65.5703 213.068 65.5566V64.9688C213.068 64.2305 212.59 63.8066 211.729 63.8066C210.949 63.8066 210.471 64.1621 210.334 64.6953H208.652C208.775 63.4375 209.91 62.4805 211.77 62.4805C213.178 62.4805 214.805 63.0547 214.805 65.0371V70H213.137V68.9746H213.082C212.754 69.6035 212.057 70.1504 210.895 70.1504C209.473 70.1504 208.406 69.3711 208.406 67.9082ZM210.088 67.8945C210.088 68.5371 210.607 68.8652 211.346 68.8652C212.398 68.8652 213.082 68.168 213.082 67.334V66.7188L211.441 66.8281C210.607 66.8965 210.088 67.2383 210.088 67.8945ZM222.803 62.5762L220.15 70H218.236L215.584 62.5762H217.443L219.152 68.0996H219.234L220.957 62.5762H222.803ZM226.945 70.1504C224.703 70.1504 223.336 68.6602 223.336 66.3359C223.336 64.0391 224.73 62.4805 226.85 62.4805C228.668 62.4805 230.24 63.6152 230.24 66.2266V66.7734H225.059C225.079 68.0381 225.824 68.7832 226.959 68.7832C227.725 68.7832 228.244 68.4551 228.463 68.0176H230.172C229.857 69.3027 228.668 70.1504 226.945 70.1504ZM225.072 65.584H228.572C228.559 64.5723 227.889 63.834 226.877 63.834C225.824 63.834 225.127 64.6338 225.072 65.584ZM234.355 70.1367C232.605 70.1367 231.293 68.7422 231.293 66.2949C231.293 63.8203 232.646 62.4805 234.369 62.4805C235.682 62.4805 236.229 63.2598 236.488 63.793H236.557V60.1016H238.293V70H236.584V68.8242H236.488C236.215 69.3711 235.641 70.1367 234.355 70.1367ZM234.834 68.7012C235.955 68.7012 236.598 67.7305 236.598 66.2812C236.598 64.8457 235.969 63.9023 234.834 63.9023C233.672 63.9023 233.07 64.9004 233.07 66.2812C233.07 67.6895 233.686 68.7012 234.834 68.7012ZM241.137 70.1094C240.549 70.1094 240.07 69.6309 240.07 69.043C240.07 68.4688 240.549 67.9902 241.137 67.9902C241.697 67.9902 242.189 68.4688 242.189 69.043C242.189 69.6309 241.697 70.1094 241.137 70.1094Z" fill="#161616"/>
<path d="M139.746 80.1016H141.154L143.875 84.6953H143.998L146.719 80.1016H148.141L144.559 85.9395V90H143.314V85.9395L139.746 80.1016ZM151.285 90.1504C149.262 90.1504 147.895 88.6328 147.895 86.3223C147.895 84.0117 149.262 82.4805 151.285 82.4805C153.295 82.4805 154.648 84.0117 154.648 86.3223C154.648 88.6328 153.295 90.1504 151.285 90.1504ZM151.285 89.1113C152.775 89.1113 153.473 87.7988 153.473 86.3223C153.473 84.8457 152.775 83.5195 151.285 83.5195C149.768 83.5195 149.07 84.8457 149.07 86.3223C149.07 87.7988 149.768 89.1113 151.285 89.1113ZM160.883 86.9512V82.5762H162.045V90H160.883V88.7422H160.801C160.445 89.4941 159.721 90.0957 158.6 90.0957C157.191 90.0957 156.193 89.1797 156.193 87.293V82.5762H157.369V87.2109C157.369 88.2773 158.039 88.9609 158.982 88.9609C159.816 88.9609 160.883 88.332 160.883 86.9512ZM163.932 90V82.5762H165.066V83.7109H165.148C165.422 82.959 166.188 82.4531 167.062 82.4531C167.24 82.4531 167.541 82.4668 167.678 82.4805V83.6699C167.596 83.6426 167.268 83.5879 166.967 83.5879C165.9 83.5879 165.107 84.3262 165.107 85.3242V90H163.932ZM175.375 90.1504C173.27 90.1504 171.984 88.5508 171.984 86.3223C171.984 84.0664 173.324 82.4805 175.348 82.4805C176.934 82.4805 178.109 83.4102 178.301 84.8184H177.125C176.961 84.1348 176.359 83.5195 175.375 83.5195C174.049 83.5195 173.16 84.6133 173.16 86.2812C173.16 88.0039 174.021 89.0977 175.375 89.0977C176.25 89.0977 176.92 88.6328 177.125 87.8125H178.301C178.109 89.1387 177.029 90.1504 175.375 90.1504ZM180.926 85.543V90H179.75V80.1016H180.926V83.7383H181.021C181.363 82.9727 182.033 82.4805 183.209 82.4805C184.727 82.4805 185.738 83.3828 185.738 85.2832V90H184.562V85.3652C184.562 84.2031 183.92 83.5332 182.854 83.5332C181.746 83.5332 180.926 84.2578 180.926 85.543ZM187.27 87.8945C187.27 86.1855 188.773 85.8027 190.059 85.707C190.53 85.6729 191.733 85.6113 192.068 85.5977V84.9961C192.068 84.0527 191.508 83.5059 190.387 83.5059C189.443 83.5059 188.883 83.9434 188.719 84.5039H187.488C187.639 83.3145 188.801 82.4805 190.441 82.4805C191.412 82.4805 193.23 82.7676 193.23 85.1055V90H192.068V88.9883H192.014C191.768 89.4941 191.084 90.1777 189.799 90.1777C188.391 90.1777 187.27 89.3438 187.27 87.8945ZM188.445 87.9492C188.445 88.7285 189.102 89.125 190.004 89.125C191.33 89.125 192.068 88.2363 192.068 87.3066V86.5547L190.195 86.6914C189.129 86.7598 188.445 87.1426 188.445 87.9492ZM196.293 85.543V90H195.117V82.5762H196.252V83.7383H196.348C196.703 82.9863 197.387 82.4805 198.521 82.4805C200.025 82.4805 201.023 83.3965 201.023 85.2832V90H199.848V85.3652C199.848 84.2168 199.219 83.5332 198.166 83.5332C197.086 83.5332 196.293 84.2578 196.293 85.543ZM205.918 92.9395C204.127 92.9395 202.91 92.1602 202.773 90.7793H204.004C204.168 91.5312 204.865 91.9141 205.918 91.9141C207.189 91.9141 207.969 91.3672 207.969 90.1367V88.6328H207.873C207.627 89.043 207.148 89.8906 205.713 89.8906C203.908 89.8906 202.555 88.5234 202.555 86.1855C202.555 83.9023 203.867 82.4805 205.727 82.4805C207.162 82.4805 207.627 83.3555 207.9 83.752H207.996V82.5762H209.145V90.2051C209.145 92.1191 207.723 92.9395 205.918 92.9395ZM205.877 88.8379C207.23 88.8379 207.996 87.8672 207.996 86.2266C207.996 84.6406 207.258 83.5332 205.877 83.5332C204.455 83.5332 203.744 84.7363 203.744 86.2266C203.744 87.7715 204.469 88.8379 205.877 88.8379ZM214.135 90.1504C211.988 90.1504 210.662 88.6328 210.662 86.3496C210.662 84.0664 212.002 82.4805 214.025 82.4805C215.584 82.4805 217.225 83.4375 217.225 86.1855V86.6777H211.838C211.893 88.25 212.809 89.1113 214.135 89.1113C215.023 89.1113 215.584 88.7285 215.857 88.2637H217.115C216.76 89.3848 215.666 90.1504 214.135 90.1504ZM211.852 85.6797H216.035C216.035 84.4355 215.242 83.5195 214.025 83.5195C212.74 83.5195 211.92 84.5312 211.852 85.6797ZM222.885 84.5039C222.721 83.8887 222.256 83.4785 221.381 83.4785C220.465 83.4785 219.809 83.9707 219.809 84.5996C219.809 85.0918 220.205 85.4336 221.08 85.6387L222.188 85.9121C223.514 86.2266 224.17 86.8828 224.17 87.9219C224.17 89.207 223.117 90.1504 221.258 90.1504C219.59 90.1504 218.592 89.4121 218.4 88.0586H219.631C219.768 88.7832 220.301 89.125 221.23 89.125C222.283 89.125 222.953 88.6875 222.953 87.9902C222.953 87.4707 222.584 87.1152 221.736 86.9238L220.615 86.6641C219.316 86.3633 218.633 85.6523 218.633 84.668C218.633 83.3965 219.74 82.4805 221.381 82.4805C222.912 82.4805 223.883 83.3008 224.033 84.5039H222.885ZM230.391 85.543V90H229.215V80.1016H230.391V83.7383H230.486C230.828 82.9727 231.498 82.4805 232.674 82.4805C234.191 82.4805 235.203 83.3828 235.203 85.2832V90H234.027V85.3652C234.027 84.2031 233.385 83.5332 232.318 83.5332C231.211 83.5332 230.391 84.2578 230.391 85.543ZM236.734 87.8945C236.734 86.1855 238.238 85.8027 239.523 85.707C239.995 85.6729 241.198 85.6113 241.533 85.5977V84.9961C241.533 84.0527 240.973 83.5059 239.852 83.5059C238.908 83.5059 238.348 83.9434 238.184 84.5039H236.953C237.104 83.3145 238.266 82.4805 239.906 82.4805C240.877 82.4805 242.695 82.7676 242.695 85.1055V90H241.533V88.9883H241.479C241.232 89.4941 240.549 90.1777 239.264 90.1777C237.855 90.1777 236.734 89.3438 236.734 87.8945ZM237.91 87.9492C237.91 88.7285 238.566 89.125 239.469 89.125C240.795 89.125 241.533 88.2363 241.533 87.3066V86.5547L239.66 86.6914C238.594 86.7598 237.91 87.1426 237.91 87.9492ZM250.42 82.5762L247.672 90H246.455L243.721 82.5762H245.006L247.029 88.4688H247.111L249.135 82.5762H250.42ZM254.562 90.1504C252.416 90.1504 251.09 88.6328 251.09 86.3496C251.09 84.0664 252.43 82.4805 254.453 82.4805C256.012 82.4805 257.652 83.4375 257.652 86.1855V86.6777H252.266C252.32 88.25 253.236 89.1113 254.562 89.1113C255.451 89.1113 256.012 88.7285 256.285 88.2637H257.543C257.188 89.3848 256.094 90.1504 254.562 90.1504ZM252.279 85.6797H256.463C256.463 84.4355 255.67 83.5195 254.453 83.5195C253.168 83.5195 252.348 84.5312 252.279 85.6797ZM262.848 90V80.1016H264.023V83.752H264.119C264.379 83.3555 264.816 82.4805 266.266 82.4805C268.125 82.4805 269.438 83.957 269.438 86.3086C269.438 88.6602 268.125 90.1504 266.279 90.1504C264.857 90.1504 264.379 89.2754 264.119 88.8652H263.982V90H262.848ZM263.996 86.2812C263.996 87.9492 264.748 89.0977 266.102 89.0977C267.51 89.0977 268.248 87.8672 268.248 86.2812C268.248 84.7363 267.537 83.5332 266.102 83.5332C264.734 83.5332 263.996 84.6406 263.996 86.2812ZM274.086 90.1504C271.939 90.1504 270.613 88.6328 270.613 86.3496C270.613 84.0664 271.953 82.4805 273.977 82.4805C275.535 82.4805 277.176 83.4375 277.176 86.1855V86.6777H271.789C271.844 88.25 272.76 89.1113 274.086 89.1113C274.975 89.1113 275.535 88.7285 275.809 88.2637H277.066C276.711 89.3848 275.617 90.1504 274.086 90.1504ZM271.803 85.6797H275.986C275.986 84.4355 275.193 83.5195 273.977 83.5195C272.691 83.5195 271.871 84.5312 271.803 85.6797ZM281.824 90.1504C279.678 90.1504 278.352 88.6328 278.352 86.3496C278.352 84.0664 279.691 82.4805 281.715 82.4805C283.273 82.4805 284.914 83.4375 284.914 86.1855V86.6777H279.527C279.582 88.25 280.498 89.1113 281.824 89.1113C282.713 89.1113 283.273 88.7285 283.547 88.2637H284.805C284.449 89.3848 283.355 90.1504 281.824 90.1504ZM279.541 85.6797H283.725C283.725 84.4355 282.932 83.5195 281.715 83.5195C280.43 83.5195 279.609 84.5312 279.541 85.6797ZM287.621 85.543V90H286.445V82.5762H287.58V83.7383H287.676C288.031 82.9863 288.715 82.4805 289.85 82.4805C291.354 82.4805 292.352 83.3965 292.352 85.2832V90H291.176V85.3652C291.176 84.2168 290.547 83.5332 289.494 83.5332C288.414 83.5332 287.621 84.2578 287.621 85.543ZM144.572 100.504C144.408 99.8887 143.943 99.4785 143.068 99.4785C142.152 99.4785 141.496 99.9707 141.496 100.6C141.496 101.092 141.893 101.434 142.768 101.639L143.875 101.912C145.201 102.227 145.857 102.883 145.857 103.922C145.857 105.207 144.805 106.15 142.945 106.15C141.277 106.15 140.279 105.412 140.088 104.059H141.318C141.455 104.783 141.988 105.125 142.918 105.125C143.971 105.125 144.641 104.688 144.641 103.99C144.641 103.471 144.271 103.115 143.424 102.924L142.303 102.664C141.004 102.363 140.32 101.652 140.32 100.668C140.32 99.3965 141.428 98.4805 143.068 98.4805C144.6 98.4805 145.57 99.3008 145.721 100.504H144.572ZM147.033 103.895C147.033 102.186 148.537 101.803 149.822 101.707C150.294 101.673 151.497 101.611 151.832 101.598V100.996C151.832 100.053 151.271 99.5059 150.15 99.5059C149.207 99.5059 148.646 99.9434 148.482 100.504H147.252C147.402 99.3145 148.564 98.4805 150.205 98.4805C151.176 98.4805 152.994 98.7676 152.994 101.105V106H151.832V104.988H151.777C151.531 105.494 150.848 106.178 149.562 106.178C148.154 106.178 147.033 105.344 147.033 103.895ZM148.209 103.949C148.209 104.729 148.865 105.125 149.768 105.125C151.094 105.125 151.832 104.236 151.832 103.307V102.555L149.959 102.691C148.893 102.76 148.209 103.143 148.209 103.949ZM160.719 98.5762L157.971 106H156.754L154.02 98.5762H155.305L157.328 104.469H157.41L159.434 98.5762H160.719ZM164.861 106.15C162.715 106.15 161.389 104.633 161.389 102.35C161.389 100.066 162.729 98.4805 164.752 98.4805C166.311 98.4805 167.951 99.4375 167.951 102.186V102.678H162.564C162.619 104.25 163.535 105.111 164.861 105.111C165.75 105.111 166.311 104.729 166.584 104.264H167.842C167.486 105.385 166.393 106.15 164.861 106.15ZM162.578 101.68H166.762C166.762 100.436 165.969 99.5195 164.752 99.5195C163.467 99.5195 162.646 100.531 162.578 101.68ZM172.285 106.15C170.439 106.15 169.127 104.66 169.127 102.309C169.127 99.957 170.439 98.4805 172.299 98.4805C173.734 98.4805 174.199 99.3555 174.445 99.752H174.527V96.1016H175.717V106H174.568V104.865H174.445C174.186 105.275 173.707 106.15 172.285 106.15ZM172.449 105.098C173.803 105.098 174.568 103.949 174.568 102.281C174.568 100.641 173.83 99.5332 172.449 99.5332C171.027 99.5332 170.316 100.736 170.316 102.281C170.316 103.867 171.041 105.098 172.449 105.098ZM178.588 106.082C178.109 106.082 177.699 105.686 177.713 105.193C177.699 104.715 178.109 104.318 178.588 104.318C179.066 104.318 179.463 104.715 179.463 105.193C179.463 105.686 179.066 106.082 178.588 106.082Z" fill="#636363"/>
<mask id="mask0_1715_177249" style="mask-type:alpha" maskUnits="userSpaceOnUse" x="312" y="57" width="17" height="16">
<path d="M325.146 60.9404L321.087 64.9997L325.146 69.0596L324.439 69.7666L320.38 65.7067L316.32 69.7666L315.613 69.0596L319.673 64.9997L315.613 60.9404L316.32 60.2334L320.38 64.2926L324.439 60.2334L325.146 60.9404Z" fill="#161616"/>
</mask>
<g mask="url(#mask0_1715_177249)">
<rect x="312.5" y="57" width="16" height="16" fill="#858585"/>
</g>
</g>
<defs>
<filter id="filter0_dd_1715_177249" x="89.5" y="41" width="263" height="98" filterUnits="userSpaceOnUse" color-interpolation-filters="sRGB">
<feFlood flood-opacity="0" result="BackgroundImageFix"/>
<feColorMatrix in="SourceAlpha" type="matrix" values="0 0 0 0 0 0 0 0 0 0 0 0 0 0 0 0 0 0 127 0" result="hardAlpha"/>
<feOffset dy="6"/>
<feGaussianBlur stdDeviation="6"/>
<feComposite in2="hardAlpha" operator="out"/>
<feColorMatrix type="matrix" values="0 0 0 0 0 0 0 0 0 0 0 0 0 0 0 0 0 0 0.08 0"/>
<feBlend mode="normal" in2="BackgroundImageFix" result="effect1_dropShadow_1715_177249"/>
<feColorMatrix in="SourceAlpha" type="matrix" values="0 0 0 0 0 0 0 0 0 0 0 0 0 0 0 0 0 0 127 0" result="hardAlpha"/>
<feOffset dy="2"/>
<feGaussianBlur stdDeviation="4"/>
<feComposite in2="hardAlpha" operator="out"/>
<feColorMatrix type="matrix" values="0 0 0 0 0 0 0 0 0 0 0 0 0 0 0 0 0 0 0.08 0"/>
<feBlend mode="normal" in2="effect1_dropShadow_1715_177249" result="effect2_dropShadow_1715_177249"/>
<feBlend mode="normal" in="SourceGraphic" in2="effect2_dropShadow_1715_177249" result="shape"/>
</filter>
</defs>
</svg>
