<svg width="442" height="130" viewBox="0 0 442 130" fill="none" xmlns="http://www.w3.org/2000/svg">
<g clip-path="url(#clip0_1715_177946)">
<g filter="url(#filter0_dd_1715_177946)">
<mask id="path-3-inside-1_1715_177946" fill="white">
<path d="M88.5 51C88.5 48.7909 90.2909 47 92.5 47H349.5C351.709 47 353.5 48.7909 353.5 51V79C353.5 81.2091 351.709 83 349.5 83H92.5C90.2909 83 88.5 81.2091 88.5 79V51Z"/>
</mask>
<path d="M88.5 51C88.5 48.7909 90.2909 47 92.5 47H349.5C351.709 47 353.5 48.7909 353.5 51V79C353.5 81.2091 351.709 83 349.5 83H92.5C90.2909 83 88.5 81.2091 88.5 79V51Z" fill="white"/>
<path d="M92.5 47V48H349.5V47V46H92.5V47ZM353.5 51H352.5V79H353.5H354.5V51H353.5ZM349.5 83V82H92.5V83V84H349.5V83ZM88.5 79H89.5V51H88.5H87.5V79H88.5ZM92.5 83V82C90.8431 82 89.5 80.6569 89.5 79H88.5H87.5C87.5 81.7614 89.7386 84 92.5 84V83ZM353.5 79H352.5C352.5 80.6569 351.157 82 349.5 82V83V84C352.261 84 354.5 81.7614 354.5 79H353.5ZM349.5 47V48C351.157 48 352.5 49.3431 352.5 51H353.5H354.5C354.5 48.2386 352.261 46 349.5 46V47ZM92.5 47V46C89.7386 46 87.5 48.2386 87.5 51H88.5H89.5C89.5 49.3431 90.8431 48 92.5 48V47Z" fill="#E0E0E0" mask="url(#path-3-inside-1_1715_177946)"/>
<path d="M115.95 70.4507C112.94 73.461 108.059 73.461 105.049 70.4507C102.038 67.4404 102.038 62.5598 105.049 59.5495C108.059 56.5392 112.94 56.5392 115.95 59.5495C118.96 62.5598 118.96 67.4404 115.95 70.4507Z" fill="#35A142"/>
<path d="M114.114 63.3276L109.878 67.5635C109.634 67.8075 109.238 67.8075 108.994 67.5635L106.873 65.4427L107.757 64.5589L109.436 66.2378L113.23 62.4438L114.114 63.3276Z" fill="white"/>
<path d="M127.416 70V60.1016H131.135C133.404 60.1016 134.621 61.4824 134.621 63.3828C134.621 65.2832 133.391 66.6504 131.107 66.6504H129.193V70H127.416ZM129.193 65.1875H130.861C132.201 65.1875 132.803 64.4355 132.803 63.3828C132.803 62.3164 132.201 61.5918 130.861 61.5918H129.193V65.1875ZM135.975 70V62.5762H137.67V63.8066H137.752C138.012 62.959 138.736 62.4668 139.584 62.4668C139.775 62.4668 140.049 62.4805 140.213 62.5078V64.1211C140.062 64.0664 139.693 64.0117 139.406 64.0117C138.436 64.0117 137.725 64.6816 137.725 65.625V70H135.975ZM144.26 70.1504C142.1 70.1504 140.705 68.6191 140.705 66.3223C140.705 64.0117 142.1 62.4805 144.26 62.4805C146.434 62.4805 147.814 64.0117 147.814 66.3223C147.814 68.6191 146.434 70.1504 144.26 70.1504ZM144.273 68.7559C145.463 68.7559 146.051 67.6758 146.051 66.3086C146.051 64.9551 145.463 63.8613 144.273 63.8613C143.057 63.8613 142.469 64.9551 142.469 66.3086C142.469 67.6758 143.057 68.7559 144.273 68.7559ZM152.928 62.5762V63.916H151.396V70H149.646V63.916H148.539V62.5762H149.646V61.8652C149.646 60.416 150.549 59.6367 151.971 59.6367C152.381 59.6367 152.75 59.6777 153.078 59.7461V61.127C152.791 61.0859 152.572 61.0723 152.449 61.0723C151.738 61.0723 151.396 61.3594 151.396 62.0293V62.5762H152.928ZM154.172 70V62.5762H155.922V70H154.172ZM155.061 61.5234C154.514 61.5234 154.049 61.0996 154.049 60.5664C154.049 60.0469 154.514 59.623 155.061 59.623C155.621 59.623 156.072 60.0469 156.072 60.5664C156.072 61.0996 155.621 61.5234 155.061 61.5234ZM159.34 60.1016V70H157.59V60.1016H159.34ZM164.303 70.1504C162.061 70.1504 160.693 68.6602 160.693 66.3359C160.693 64.0391 162.088 62.4805 164.207 62.4805C166.025 62.4805 167.598 63.6152 167.598 66.2266V66.7734H162.416C162.437 68.0381 163.182 68.7832 164.316 68.7832C165.082 68.7832 165.602 68.4551 165.82 68.0176H167.529C167.215 69.3027 166.025 70.1504 164.303 70.1504ZM162.43 65.584H165.93C165.916 64.5723 165.246 63.834 164.234 63.834C163.182 63.834 162.484 64.6338 162.43 65.584ZM177.018 66.8828V62.5762H178.754V70H177.072V68.6875H176.99C176.648 69.5078 175.869 70.0957 174.762 70.0957C173.299 70.0957 172.287 69.084 172.273 67.3066V62.5762H174.023V67.0332C174.023 67.9766 174.584 68.5781 175.432 68.5781C176.197 68.5781 177.018 68.0176 177.018 66.8828ZM180.422 72.7891V62.5762H182.131V63.793H182.24C182.514 63.2598 183.061 62.4805 184.373 62.4805C186.082 62.4805 187.436 63.8203 187.436 66.2949C187.436 68.7422 186.123 70.1367 184.373 70.1367C183.088 70.1367 182.514 69.3711 182.24 68.8242H182.172V72.7891H180.422ZM182.131 66.2812C182.131 67.7305 182.76 68.7012 183.895 68.7012C185.043 68.7012 185.658 67.6895 185.658 66.2812C185.658 64.9004 185.057 63.9023 183.895 63.9023C182.76 63.9023 182.131 64.8457 182.131 66.2812ZM191.564 70.1367C189.814 70.1367 188.502 68.7422 188.502 66.2949C188.502 63.8203 189.855 62.4805 191.578 62.4805C192.891 62.4805 193.438 63.2598 193.697 63.793H193.766V60.1016H195.502V70H193.793V68.8242H193.697C193.424 69.3711 192.85 70.1367 191.564 70.1367ZM192.043 68.7012C193.164 68.7012 193.807 67.7305 193.807 66.2812C193.807 64.8457 193.178 63.9023 192.043 63.9023C190.881 63.9023 190.279 64.9004 190.279 66.2812C190.279 67.6895 190.895 68.7012 192.043 68.7012ZM196.924 67.9082C196.924 66.2402 198.305 65.748 199.686 65.666C200.198 65.6318 201.265 65.5703 201.586 65.5566V64.9688C201.586 64.2305 201.107 63.8066 200.246 63.8066C199.467 63.8066 198.988 64.1621 198.852 64.6953H197.17C197.293 63.4375 198.428 62.4805 200.287 62.4805C201.695 62.4805 203.322 63.0547 203.322 65.0371V70H201.654V68.9746H201.6C201.271 69.6035 200.574 70.1504 199.412 70.1504C197.99 70.1504 196.924 69.3711 196.924 67.9082ZM198.605 67.8945C198.605 68.5371 199.125 68.8652 199.863 68.8652C200.916 68.8652 201.6 68.168 201.6 67.334V66.7188L199.959 66.8281C199.125 66.8965 198.605 67.2383 198.605 67.8945ZM208.668 62.5762V63.916H207.205V67.7715C207.205 68.4824 207.561 68.6328 207.998 68.6328C208.203 68.6328 208.545 68.6191 208.764 68.6055V70.0273C208.559 70.0684 208.217 70.0957 207.779 70.0957C206.467 70.0957 205.455 69.4531 205.469 68.0586V63.916H204.402V62.5762H205.469V60.7988H207.205V62.5762H208.668ZM213.234 70.1504C210.992 70.1504 209.625 68.6602 209.625 66.3359C209.625 64.0391 211.02 62.4805 213.139 62.4805C214.957 62.4805 216.529 63.6152 216.529 66.2266V66.7734H211.348C211.368 68.0381 212.113 68.7832 213.248 68.7832C214.014 68.7832 214.533 68.4551 214.752 68.0176H216.461C216.146 69.3027 214.957 70.1504 213.234 70.1504ZM211.361 65.584H214.861C214.848 64.5723 214.178 63.834 213.166 63.834C212.113 63.834 211.416 64.6338 211.361 65.584ZM220.645 70.1367C218.895 70.1367 217.582 68.7422 217.582 66.2949C217.582 63.8203 218.936 62.4805 220.658 62.4805C221.971 62.4805 222.518 63.2598 222.777 63.793H222.846V60.1016H224.582V70H222.873V68.8242H222.777C222.504 69.3711 221.93 70.1367 220.645 70.1367ZM221.123 68.7012C222.244 68.7012 222.887 67.7305 222.887 66.2812C222.887 64.8457 222.258 63.9023 221.123 63.9023C219.961 63.9023 219.359 64.9004 219.359 66.2812C219.359 67.6895 219.975 68.7012 221.123 68.7012ZM233.879 64.6953C233.77 64.1348 233.305 63.7793 232.566 63.7793C231.814 63.7793 231.268 64.1484 231.281 64.6543C231.268 65.0371 231.582 65.3242 232.334 65.502L233.592 65.7617C235 66.0762 235.67 66.7188 235.684 67.7852C235.67 69.1797 234.453 70.1504 232.512 70.1504C230.625 70.1504 229.504 69.3027 229.326 67.8809H231.104C231.213 68.5098 231.705 68.8242 232.512 68.8242C233.346 68.8242 233.906 68.4824 233.906 67.9355C233.906 67.5117 233.564 67.2383 232.826 67.0742L231.637 66.8145C230.256 66.541 229.545 65.8164 229.545 64.75C229.545 63.3828 230.721 62.4805 232.539 62.4805C234.316 62.4805 235.41 63.3418 235.533 64.6953H233.879ZM241.754 66.8828V62.5762H243.49V70H241.809V68.6875H241.727C241.385 69.5078 240.605 70.0957 239.498 70.0957C238.035 70.0957 237.023 69.084 237.01 67.3066V62.5762H238.76V67.0332C238.76 67.9766 239.32 68.5781 240.168 68.5781C240.934 68.5781 241.754 68.0176 241.754 66.8828ZM248.398 70.1504C246.184 70.1504 244.844 68.5645 244.844 66.3223C244.844 64.0527 246.225 62.4805 248.398 62.4805C250.203 62.4805 251.461 63.5332 251.584 65.1328H249.916C249.779 64.4219 249.26 63.875 248.412 63.875C247.332 63.875 246.607 64.791 246.607 66.2812C246.607 67.8125 247.318 68.7285 248.412 68.7285C249.191 68.7285 249.766 68.2773 249.916 67.4707H251.584C251.447 69.043 250.258 70.1504 248.398 70.1504ZM256.137 70.1504C253.922 70.1504 252.582 68.5645 252.582 66.3223C252.582 64.0527 253.963 62.4805 256.137 62.4805C257.941 62.4805 259.199 63.5332 259.322 65.1328H257.654C257.518 64.4219 256.998 63.875 256.15 63.875C255.07 63.875 254.346 64.791 254.346 66.2812C254.346 67.8125 255.057 68.7285 256.15 68.7285C256.93 68.7285 257.504 68.2773 257.654 67.4707H259.322C259.186 69.043 257.996 70.1504 256.137 70.1504ZM263.93 70.1504C261.688 70.1504 260.32 68.6602 260.32 66.3359C260.32 64.0391 261.715 62.4805 263.834 62.4805C265.652 62.4805 267.225 63.6152 267.225 66.2266V66.7734H262.043C262.063 68.0381 262.809 68.7832 263.943 68.7832C264.709 68.7832 265.229 68.4551 265.447 68.0176H267.156C266.842 69.3027 265.652 70.1504 263.93 70.1504ZM262.057 65.584H265.557C265.543 64.5723 264.873 63.834 263.861 63.834C262.809 63.834 262.111 64.6338 262.057 65.584ZM272.789 64.6953C272.68 64.1348 272.215 63.7793 271.477 63.7793C270.725 63.7793 270.178 64.1484 270.191 64.6543C270.178 65.0371 270.492 65.3242 271.244 65.502L272.502 65.7617C273.91 66.0762 274.58 66.7188 274.594 67.7852C274.58 69.1797 273.363 70.1504 271.422 70.1504C269.535 70.1504 268.414 69.3027 268.236 67.8809H270.014C270.123 68.5098 270.615 68.8242 271.422 68.8242C272.256 68.8242 272.816 68.4824 272.816 67.9355C272.816 67.5117 272.475 67.2383 271.736 67.0742L270.547 66.8145C269.166 66.541 268.455 65.8164 268.455 64.75C268.455 63.3828 269.631 62.4805 271.449 62.4805C273.227 62.4805 274.32 63.3418 274.443 64.6953H272.789ZM280.131 64.6953C280.021 64.1348 279.557 63.7793 278.818 63.7793C278.066 63.7793 277.52 64.1484 277.533 64.6543C277.52 65.0371 277.834 65.3242 278.586 65.502L279.844 65.7617C281.252 66.0762 281.922 66.7188 281.936 67.7852C281.922 69.1797 280.705 70.1504 278.764 70.1504C276.877 70.1504 275.756 69.3027 275.578 67.8809H277.355C277.465 68.5098 277.957 68.8242 278.764 68.8242C279.598 68.8242 280.158 68.4824 280.158 67.9355C280.158 67.5117 279.816 67.2383 279.078 67.0742L277.889 66.8145C276.508 66.541 275.797 65.8164 275.797 64.75C275.797 63.3828 276.973 62.4805 278.791 62.4805C280.568 62.4805 281.662 63.3418 281.785 64.6953H280.131ZM287.021 62.5762V63.916H285.49V70H283.74V63.916H282.633V62.5762H283.74V61.8652C283.74 60.416 284.643 59.6367 286.064 59.6367C286.475 59.6367 286.844 59.6777 287.172 59.7461V61.127C286.885 61.0859 286.666 61.0723 286.543 61.0723C285.832 61.0723 285.49 61.3594 285.49 62.0293V62.5762H287.021ZM293.01 66.8828V62.5762H294.746V70H293.064V68.6875H292.982C292.641 69.5078 291.861 70.0957 290.754 70.0957C289.291 70.0957 288.279 69.084 288.266 67.3066V62.5762H290.016V67.0332C290.016 67.9766 290.576 68.5781 291.424 68.5781C292.189 68.5781 293.01 68.0176 293.01 66.8828ZM298.164 60.1016V70H296.414V60.1016H298.164ZM301.582 60.1016V70H299.832V60.1016H301.582ZM304.303 72.7891C303.961 72.7891 303.619 72.7754 303.4 72.748V71.3535C303.619 71.3672 303.906 71.3809 304.139 71.3809C304.562 71.3809 304.918 71.3398 305.219 70.5469L305.369 70.1504L302.662 62.5762H304.508L306.23 68.1816H306.312L308.035 62.5762H309.881L306.9 70.9023C306.477 72.0918 305.697 72.7891 304.303 72.7891ZM311.59 70.1094C311.002 70.1094 310.523 69.6309 310.523 69.043C310.523 68.4688 311.002 67.9902 311.59 67.9902C312.15 67.9902 312.643 68.4688 312.643 69.043C312.643 69.6309 312.15 70.1094 311.59 70.1094Z" fill="#161616"/>
<mask id="mask0_1715_177946" style="mask-type:alpha" maskUnits="userSpaceOnUse" x="325" y="57" width="17" height="16">
<path d="M338.146 60.9404L334.087 64.9997L338.146 69.0596L337.439 69.7666L333.38 65.7067L329.32 69.7666L328.613 69.0596L332.673 64.9997L328.613 60.9404L329.32 60.2334L333.38 64.2926L337.439 60.2334L338.146 60.9404Z" fill="#161616"/>
</mask>
<g mask="url(#mask0_1715_177946)">
<rect x="325.5" y="57" width="16" height="16" fill="#858585"/>
</g>
</g>
</g>
<defs>
<filter id="filter0_dd_1715_177946" x="76.5" y="41" width="289" height="60" filterUnits="userSpaceOnUse" color-interpolation-filters="sRGB">
<feFlood flood-opacity="0" result="BackgroundImageFix"/>
<feColorMatrix in="SourceAlpha" type="matrix" values="0 0 0 0 0 0 0 0 0 0 0 0 0 0 0 0 0 0 127 0" result="hardAlpha"/>
<feOffset dy="6"/>
<feGaussianBlur stdDeviation="6"/>
<feComposite in2="hardAlpha" operator="out"/>
<feColorMatrix type="matrix" values="0 0 0 0 0 0 0 0 0 0 0 0 0 0 0 0 0 0 0.08 0"/>
<feBlend mode="normal" in2="BackgroundImageFix" result="effect1_dropShadow_1715_177946"/>
<feColorMatrix in="SourceAlpha" type="matrix" values="0 0 0 0 0 0 0 0 0 0 0 0 0 0 0 0 0 0 127 0" result="hardAlpha"/>
<feOffset dy="2"/>
<feGaussianBlur stdDeviation="4"/>
<feComposite in2="hardAlpha" operator="out"/>
<feColorMatrix type="matrix" values="0 0 0 0 0 0 0 0 0 0 0 0 0 0 0 0 0 0 0.08 0"/>
<feBlend mode="normal" in2="effect1_dropShadow_1715_177946" result="effect2_dropShadow_1715_177946"/>
<feBlend mode="normal" in="SourceGraphic" in2="effect2_dropShadow_1715_177946" result="shape"/>
</filter>
<clipPath id="clip0_1715_177946">
<path d="M0 8C0 3.58172 3.58172 0 8 0H434C438.418 0 442 3.58172 442 8V122C442 126.418 438.418 130 434 130H8C3.58172 130 0 126.418 0 122V8Z" fill="white"/>
</clipPath>
</defs>
</svg>
