<svg width="442" height="168" viewBox="0 0 442 168" fill="none" xmlns="http://www.w3.org/2000/svg">
<g filter="url(#filter0_dd_1715_177246)">
<mask id="path-2-inside-1_1715_177246" fill="white">
<path d="M130 70C130 67.7909 131.791 66 134 66H308C310.209 66 312 67.7909 312 70V98C312 100.209 310.209 102 308 102H134C131.791 102 130 100.209 130 98V70Z"/>
</mask>
<path d="M130 70C130 67.7909 131.791 66 134 66H308C310.209 66 312 67.7909 312 70V98C312 100.209 310.209 102 308 102H134C131.791 102 130 100.209 130 98V70Z" fill="white"/>
<path d="M134 66V67H308V66V65H134V66ZM312 70H311V98H312H313V70H312ZM308 102V101H134V102V103H308V102ZM130 98H131V70H130H129V98H130ZM134 102V101C132.343 101 131 99.6569 131 98H130H129C129 100.761 131.239 103 134 103V102ZM312 98H311C311 99.6569 309.657 101 308 101V102V103C310.761 103 313 100.761 313 98H312ZM308 66V67C309.657 67 311 68.3431 311 70H312H313C313 67.2386 310.761 65 308 65V66ZM134 66V65C131.239 65 129 67.2386 129 70H130H131C131 68.3431 132.343 67 134 67V66Z" fill="#E0E0E0" mask="url(#path-2-inside-1_1715_177246)"/>
<path d="M157.45 89.4505C154.44 92.4607 149.559 92.4607 146.549 89.4505C143.538 86.4402 143.538 81.5595 146.549 78.5492C149.559 75.5389 154.44 75.5389 157.45 78.5492C160.46 81.5595 160.46 86.4402 157.45 89.4505Z" fill="#35A142"/>
<path d="M155.614 82.3271L151.378 86.563C151.134 86.807 150.738 86.8071 150.494 86.563L148.373 84.4422L149.257 83.5584L150.936 85.2373L154.73 81.4434L155.614 82.3271Z" fill="white"/>
<path d="M175.588 82.4375C175.383 81.248 174.426 80.5645 173.223 80.5645C171.596 80.5645 170.461 81.8086 170.461 84.0508C170.461 86.3203 171.609 87.5371 173.223 87.5371C174.398 87.5371 175.355 86.8809 175.588 85.7188H177.379C177.105 87.6191 175.547 89.1367 173.195 89.1367C170.584 89.1367 168.67 87.2363 168.67 84.0508C168.67 80.8516 170.611 78.9648 173.195 78.9648C175.383 78.9648 177.078 80.2363 177.379 82.4375H175.588ZM180.578 84.6523V89H178.828V79.1016H180.537V82.834H180.633C180.975 82 181.686 81.4805 182.834 81.4805C184.379 81.4805 185.391 82.4785 185.391 84.2695V89H183.654V84.543C183.654 83.5312 183.107 82.957 182.191 82.957C181.248 82.957 180.578 83.5723 180.578 84.6523ZM186.703 86.9082C186.703 85.2402 188.084 84.748 189.465 84.666C189.978 84.6318 191.044 84.5703 191.365 84.5566V83.9688C191.365 83.2305 190.887 82.8066 190.025 82.8066C189.246 82.8066 188.768 83.1621 188.631 83.6953H186.949C187.072 82.4375 188.207 81.4805 190.066 81.4805C191.475 81.4805 193.102 82.0547 193.102 84.0371V89H191.434V87.9746H191.379C191.051 88.6035 190.354 89.1504 189.191 89.1504C187.77 89.1504 186.703 88.3711 186.703 86.9082ZM188.385 86.8945C188.385 87.5371 188.904 87.8652 189.643 87.8652C190.695 87.8652 191.379 87.168 191.379 86.334V85.7188L189.738 85.8281C188.904 85.8965 188.385 86.2383 188.385 86.8945ZM196.492 84.6523V89H194.742V81.5762H196.41V82.834H196.506C196.848 82 197.6 81.4805 198.707 81.4805C200.252 81.4805 201.264 82.4922 201.25 84.2695V89H199.514V84.543C199.514 83.5449 198.98 82.957 198.064 82.957C197.135 82.957 196.492 83.5723 196.492 84.6523ZM206.158 91.9395C204.189 91.9395 202.945 91.0645 202.822 89.6699H204.559C204.682 90.3125 205.297 90.627 206.186 90.627C207.225 90.627 207.908 90.1758 207.908 89.082V87.6602H207.826C207.553 88.207 206.965 88.8906 205.68 88.8906C203.971 88.8906 202.617 87.6465 202.617 85.2266C202.617 82.7793 203.971 81.4805 205.693 81.4805C207.006 81.4805 207.553 82.2598 207.826 82.793H207.908V81.5762H209.631V89.123C209.631 91.0234 208.168 91.9395 206.158 91.9395ZM206.158 87.5234C207.279 87.5234 207.922 86.6758 207.922 85.2539C207.922 83.8457 207.293 82.9023 206.158 82.9023C204.996 82.9023 204.395 83.9004 204.395 85.2539C204.395 86.6211 205.01 87.5234 206.158 87.5234ZM214.594 89.1504C212.352 89.1504 210.984 87.6602 210.984 85.3359C210.984 83.0391 212.379 81.4805 214.498 81.4805C216.316 81.4805 217.889 82.6152 217.889 85.2266V85.7734H212.707C212.728 87.0381 213.473 87.7832 214.607 87.7832C215.373 87.7832 215.893 87.4551 216.111 87.0176H217.82C217.506 88.3027 216.316 89.1504 214.594 89.1504ZM212.721 84.584H216.221C216.207 83.5723 215.537 82.834 214.525 82.834C213.473 82.834 212.775 83.6338 212.721 84.584ZM223.453 83.6953C223.344 83.1348 222.879 82.7793 222.141 82.7793C221.389 82.7793 220.842 83.1484 220.855 83.6543C220.842 84.0371 221.156 84.3242 221.908 84.502L223.166 84.7617C224.574 85.0762 225.244 85.7188 225.258 86.7852C225.244 88.1797 224.027 89.1504 222.086 89.1504C220.199 89.1504 219.078 88.3027 218.9 86.8809H220.678C220.787 87.5098 221.279 87.8242 222.086 87.8242C222.92 87.8242 223.48 87.4824 223.48 86.9355C223.48 86.5117 223.139 86.2383 222.4 86.0742L221.211 85.8145C219.83 85.541 219.119 84.8164 219.119 83.75C219.119 82.3828 220.295 81.4805 222.113 81.4805C223.891 81.4805 224.984 82.3418 225.107 83.6953H223.453ZM234.117 83.6953C234.008 83.1348 233.543 82.7793 232.805 82.7793C232.053 82.7793 231.506 83.1484 231.52 83.6543C231.506 84.0371 231.82 84.3242 232.572 84.502L233.83 84.7617C235.238 85.0762 235.908 85.7188 235.922 86.7852C235.908 88.1797 234.691 89.1504 232.75 89.1504C230.863 89.1504 229.742 88.3027 229.564 86.8809H231.342C231.451 87.5098 231.943 87.8242 232.75 87.8242C233.584 87.8242 234.145 87.4824 234.145 86.9355C234.145 86.5117 233.803 86.2383 233.064 86.0742L231.875 85.8145C230.494 85.541 229.783 84.8164 229.783 83.75C229.783 82.3828 230.959 81.4805 232.777 81.4805C234.555 81.4805 235.648 82.3418 235.771 83.6953H234.117ZM236.906 86.9082C236.906 85.2402 238.287 84.748 239.668 84.666C240.181 84.6318 241.247 84.5703 241.568 84.5566V83.9688C241.568 83.2305 241.09 82.8066 240.229 82.8066C239.449 82.8066 238.971 83.1621 238.834 83.6953H237.152C237.275 82.4375 238.41 81.4805 240.27 81.4805C241.678 81.4805 243.305 82.0547 243.305 84.0371V89H241.637V87.9746H241.582C241.254 88.6035 240.557 89.1504 239.395 89.1504C237.973 89.1504 236.906 88.3711 236.906 86.9082ZM238.588 86.8945C238.588 87.5371 239.107 87.8652 239.846 87.8652C240.898 87.8652 241.582 87.168 241.582 86.334V85.7188L239.941 85.8281C239.107 85.8965 238.588 86.2383 238.588 86.8945ZM251.303 81.5762L248.65 89H246.736L244.084 81.5762H245.943L247.652 87.0996H247.734L249.457 81.5762H251.303ZM255.445 89.1504C253.203 89.1504 251.836 87.6602 251.836 85.3359C251.836 83.0391 253.23 81.4805 255.35 81.4805C257.168 81.4805 258.74 82.6152 258.74 85.2266V85.7734H253.559C253.579 87.0381 254.324 87.7832 255.459 87.7832C256.225 87.7832 256.744 87.4551 256.963 87.0176H258.672C258.357 88.3027 257.168 89.1504 255.445 89.1504ZM253.572 84.584H257.072C257.059 83.5723 256.389 82.834 255.377 82.834C254.324 82.834 253.627 83.6338 253.572 84.584ZM262.855 89.1367C261.105 89.1367 259.793 87.7422 259.793 85.2949C259.793 82.8203 261.146 81.4805 262.869 81.4805C264.182 81.4805 264.729 82.2598 264.988 82.793H265.057V79.1016H266.793V89H265.084V87.8242H264.988C264.715 88.3711 264.141 89.1367 262.855 89.1367ZM263.334 87.7012C264.455 87.7012 265.098 86.7305 265.098 85.2812C265.098 83.8457 264.469 82.9023 263.334 82.9023C262.172 82.9023 261.57 83.9004 261.57 85.2812C261.57 86.6895 262.186 87.7012 263.334 87.7012ZM269.637 89.1094C269.049 89.1094 268.57 88.6309 268.57 88.043C268.57 87.4688 269.049 86.9902 269.637 86.9902C270.197 86.9902 270.689 87.4688 270.689 88.043C270.689 88.6309 270.197 89.1094 269.637 89.1094Z" fill="#161616"/>
<mask id="mask0_1715_177246" style="mask-type:alpha" maskUnits="userSpaceOnUse" x="284" y="76" width="16" height="16">
<path d="M296.646 79.9404L292.587 83.9997L296.646 88.0596L295.939 88.7666L291.88 84.7067L287.82 88.7666L287.113 88.0596L291.173 83.9997L287.113 79.9404L287.82 79.2334L291.88 83.2926L295.939 79.2334L296.646 79.9404Z" fill="#161616"/>
</mask>
<g mask="url(#mask0_1715_177246)">
<rect x="284" y="76" width="16" height="16" fill="#858585"/>
</g>
</g>
<defs>
<filter id="filter0_dd_1715_177246" x="118" y="60" width="206" height="60" filterUnits="userSpaceOnUse" color-interpolation-filters="sRGB">
<feFlood flood-opacity="0" result="BackgroundImageFix"/>
<feColorMatrix in="SourceAlpha" type="matrix" values="0 0 0 0 0 0 0 0 0 0 0 0 0 0 0 0 0 0 127 0" result="hardAlpha"/>
<feOffset dy="6"/>
<feGaussianBlur stdDeviation="6"/>
<feComposite in2="hardAlpha" operator="out"/>
<feColorMatrix type="matrix" values="0 0 0 0 0 0 0 0 0 0 0 0 0 0 0 0 0 0 0.08 0"/>
<feBlend mode="normal" in2="BackgroundImageFix" result="effect1_dropShadow_1715_177246"/>
<feColorMatrix in="SourceAlpha" type="matrix" values="0 0 0 0 0 0 0 0 0 0 0 0 0 0 0 0 0 0 127 0" result="hardAlpha"/>
<feOffset dy="2"/>
<feGaussianBlur stdDeviation="4"/>
<feComposite in2="hardAlpha" operator="out"/>
<feColorMatrix type="matrix" values="0 0 0 0 0 0 0 0 0 0 0 0 0 0 0 0 0 0 0.08 0"/>
<feBlend mode="normal" in2="effect1_dropShadow_1715_177246" result="effect2_dropShadow_1715_177246"/>
<feBlend mode="normal" in="SourceGraphic" in2="effect2_dropShadow_1715_177246" result="shape"/>
</filter>
</defs>
</svg>
