<svg width="442" height="130" viewBox="0 0 442 130" fill="none" xmlns="http://www.w3.org/2000/svg">
<g clip-path="url(#clip0_1715_177906)">
<g filter="url(#filter0_dd_1715_177906)">
<mask id="path-2-inside-1_1715_177906" fill="white">
<path d="M85 40C85 37.7909 86.7909 36 89 36H353C355.209 36 357 37.7909 357 40V90C357 92.2091 355.209 94 353 94H89C86.7909 94 85 92.2091 85 90V40Z"/>
</mask>
<path d="M85 40C85 37.7909 86.7909 36 89 36H353C355.209 36 357 37.7909 357 40V90C357 92.2091 355.209 94 353 94H89C86.7909 94 85 92.2091 85 90V40Z" fill="white"/>
<path d="M89 36V37H353V36V35H89V36ZM357 40H356V90H357H358V40H357ZM353 94V93H89V94V95H353V94ZM85 90H86V40H85H84V90H85ZM89 94V93C87.3431 93 86 91.6569 86 90H85H84C84 92.7614 86.2386 95 89 95V94ZM357 90H356C356 91.6569 354.657 93 353 93V94V95C355.761 95 358 92.7614 358 90H357ZM353 36V37C354.657 37 356 38.3431 356 40H357H358C358 37.2386 355.761 35 353 35V36ZM89 36V35C86.2386 35 84 37.2386 84 40H85H86C86 38.3431 87.3431 37 89 37V36Z" fill="#E0E0E0" mask="url(#path-2-inside-1_1715_177906)"/>
<circle cx="106.999" cy="53.9998" r="7.70833" fill="#E76067"/>
<path d="M106.375 56H107.625V57.2809H106.375V56ZM106.375 49.833H107.625V54.6247H106.375V49.833Z" fill="white"/>
<path d="M130.164 49.1016H131.955V55.5684C131.955 57.6875 130.342 59.1504 127.936 59.1504C125.516 59.1504 123.916 57.6875 123.916 55.5684V49.1016H125.693V55.418C125.693 56.6621 126.568 57.5645 127.936 57.5645C129.303 57.5645 130.164 56.6621 130.164 55.418V49.1016ZM133.705 61.7891V51.5762H135.414V52.793H135.523C135.797 52.2598 136.344 51.4805 137.656 51.4805C139.365 51.4805 140.719 52.8203 140.719 55.2949C140.719 57.7422 139.406 59.1367 137.656 59.1367C136.371 59.1367 135.797 58.3711 135.523 57.8242H135.455V61.7891H133.705ZM135.414 55.2812C135.414 56.7305 136.043 57.7012 137.178 57.7012C138.326 57.7012 138.941 56.6895 138.941 55.2812C138.941 53.9004 138.34 52.9023 137.178 52.9023C136.043 52.9023 135.414 53.8457 135.414 55.2812ZM143.836 49.1016V59H142.086V49.1016H143.836ZM148.744 59.1504C146.584 59.1504 145.189 57.6191 145.189 55.3223C145.189 53.0117 146.584 51.4805 148.744 51.4805C150.918 51.4805 152.299 53.0117 152.299 55.3223C152.299 57.6191 150.918 59.1504 148.744 59.1504ZM148.758 57.7559C149.947 57.7559 150.535 56.6758 150.535 55.3086C150.535 53.9551 149.947 52.8613 148.758 52.8613C147.541 52.8613 146.953 53.9551 146.953 55.3086C146.953 56.6758 147.541 57.7559 148.758 57.7559ZM153.311 56.9082C153.311 55.2402 154.691 54.748 156.072 54.666C156.585 54.6318 157.651 54.5703 157.973 54.5566V53.9688C157.973 53.2305 157.494 52.8066 156.633 52.8066C155.854 52.8066 155.375 53.1621 155.238 53.6953H153.557C153.68 52.4375 154.814 51.4805 156.674 51.4805C158.082 51.4805 159.709 52.0547 159.709 54.0371V59H158.041V57.9746H157.986C157.658 58.6035 156.961 59.1504 155.799 59.1504C154.377 59.1504 153.311 58.3711 153.311 56.9082ZM154.992 56.8945C154.992 57.5371 155.512 57.8652 156.25 57.8652C157.303 57.8652 157.986 57.168 157.986 56.334V55.7188L156.346 55.8281C155.512 55.8965 154.992 56.2383 154.992 56.8945ZM164.111 59.1367C162.361 59.1367 161.049 57.7422 161.049 55.2949C161.049 52.8203 162.402 51.4805 164.125 51.4805C165.438 51.4805 165.984 52.2598 166.244 52.793H166.312V49.1016H168.049V59H166.34V57.8242H166.244C165.971 58.3711 165.396 59.1367 164.111 59.1367ZM164.59 57.7012C165.711 57.7012 166.354 56.7305 166.354 55.2812C166.354 53.8457 165.725 52.9023 164.59 52.9023C163.428 52.9023 162.826 53.9004 162.826 55.2812C162.826 56.6895 163.441 57.7012 164.59 57.7012ZM176.895 51.5762V52.916H175.363V59H173.613V52.916H172.506V51.5762H173.613V50.8652C173.613 49.416 174.516 48.6367 175.938 48.6367C176.348 48.6367 176.717 48.6777 177.045 48.7461V50.127C176.758 50.0859 176.539 50.0723 176.416 50.0723C175.705 50.0723 175.363 50.3594 175.363 51.0293V51.5762H176.895ZM177.551 56.9082C177.551 55.2402 178.932 54.748 180.312 54.666C180.825 54.6318 181.892 54.5703 182.213 54.5566V53.9688C182.213 53.2305 181.734 52.8066 180.873 52.8066C180.094 52.8066 179.615 53.1621 179.479 53.6953H177.797C177.92 52.4375 179.055 51.4805 180.914 51.4805C182.322 51.4805 183.949 52.0547 183.949 54.0371V59H182.281V57.9746H182.227C181.898 58.6035 181.201 59.1504 180.039 59.1504C178.617 59.1504 177.551 58.3711 177.551 56.9082ZM179.232 56.8945C179.232 57.5371 179.752 57.8652 180.49 57.8652C181.543 57.8652 182.227 57.168 182.227 56.334V55.7188L180.586 55.8281C179.752 55.8965 179.232 56.2383 179.232 56.8945ZM185.59 59V51.5762H187.34V59H185.59ZM186.479 50.5234C185.932 50.5234 185.467 50.0996 185.467 49.5664C185.467 49.0469 185.932 48.623 186.479 48.623C187.039 48.623 187.49 49.0469 187.49 49.5664C187.49 50.0996 187.039 50.5234 186.479 50.5234ZM190.758 49.1016V59H189.008V49.1016H190.758ZM195.721 59.1504C193.479 59.1504 192.111 57.6602 192.111 55.3359C192.111 53.0391 193.506 51.4805 195.625 51.4805C197.443 51.4805 199.016 52.6152 199.016 55.2266V55.7734H193.834C193.854 57.0381 194.6 57.7832 195.734 57.7832C196.5 57.7832 197.02 57.4551 197.238 57.0176H198.947C198.633 58.3027 197.443 59.1504 195.721 59.1504ZM193.848 54.584H197.348C197.334 53.5723 196.664 52.834 195.652 52.834C194.6 52.834 193.902 53.6338 193.848 54.584ZM203.131 59.1367C201.381 59.1367 200.068 57.7422 200.068 55.2949C200.068 52.8203 201.422 51.4805 203.145 51.4805C204.457 51.4805 205.004 52.2598 205.264 52.793H205.332V49.1016H207.068V59H205.359V57.8242H205.264C204.99 58.3711 204.416 59.1367 203.131 59.1367ZM203.609 57.7012C204.73 57.7012 205.373 56.7305 205.373 55.2812C205.373 53.8457 204.744 52.9023 203.609 52.9023C202.447 52.9023 201.846 53.9004 201.846 55.2812C201.846 56.6895 202.461 57.7012 203.609 57.7012ZM209.912 59.1094C209.324 59.1094 208.846 58.6309 208.846 58.043C208.846 57.4688 209.324 56.9902 209.912 56.9902C210.473 56.9902 210.965 57.4688 210.965 58.043C210.965 58.6309 210.473 59.1094 209.912 59.1094Z" fill="#161616"/>
<path d="M123.547 70.1953V69.1016H131.012V70.1953H127.908V79H126.664V70.1953H123.547ZM131.736 79V71.5762H132.871V72.7109H132.953C133.227 71.959 133.992 71.4531 134.867 71.4531C135.045 71.4531 135.346 71.4668 135.482 71.4805V72.6699C135.4 72.6426 135.072 72.5879 134.771 72.5879C133.705 72.5879 132.912 73.3262 132.912 74.3242V79H131.736ZM137.615 81.7891C137.355 81.7891 137.109 81.7754 136.959 81.7617V80.709C137.082 80.7227 137.355 80.7363 137.533 80.7363C138.012 80.7363 138.408 80.6953 138.805 79.6152L139.023 79.0547L136.275 71.5762H137.561L139.584 77.4688H139.666L141.689 71.5762H142.975L139.83 80.0664C139.393 81.2285 138.668 81.7891 137.615 81.7891ZM147.432 76.8945C147.432 75.1855 148.936 74.8027 150.221 74.707C150.692 74.6729 151.896 74.6113 152.23 74.5977V73.9961C152.23 73.0527 151.67 72.5059 150.549 72.5059C149.605 72.5059 149.045 72.9434 148.881 73.5039H147.65C147.801 72.3145 148.963 71.4805 150.604 71.4805C151.574 71.4805 153.393 71.7676 153.393 74.1055V79H152.23V77.9883H152.176C151.93 78.4941 151.246 79.1777 149.961 79.1777C148.553 79.1777 147.432 78.3438 147.432 76.8945ZM148.607 76.9492C148.607 77.7285 149.264 78.125 150.166 78.125C151.492 78.125 152.23 77.2363 152.23 76.3066V75.5547L150.357 75.6914C149.291 75.7598 148.607 76.1426 148.607 76.9492ZM158.287 81.9395C156.496 81.9395 155.279 81.1602 155.143 79.7793H156.373C156.537 80.5312 157.234 80.9141 158.287 80.9141C159.559 80.9141 160.338 80.3672 160.338 79.1367V77.6328H160.242C159.996 78.043 159.518 78.8906 158.082 78.8906C156.277 78.8906 154.924 77.5234 154.924 75.1855C154.924 72.9023 156.236 71.4805 158.096 71.4805C159.531 71.4805 159.996 72.3555 160.27 72.752H160.365V71.5762H161.514V79.2051C161.514 81.1191 160.092 81.9395 158.287 81.9395ZM158.246 77.8379C159.6 77.8379 160.365 76.8672 160.365 75.2266C160.365 73.6406 159.627 72.5332 158.246 72.5332C156.824 72.5332 156.113 73.7363 156.113 75.2266C156.113 76.7715 156.838 77.8379 158.246 77.8379ZM163.031 76.8945C163.031 75.1855 164.535 74.8027 165.82 74.707C166.292 74.6729 167.495 74.6113 167.83 74.5977V73.9961C167.83 73.0527 167.27 72.5059 166.148 72.5059C165.205 72.5059 164.645 72.9434 164.48 73.5039H163.25C163.4 72.3145 164.562 71.4805 166.203 71.4805C167.174 71.4805 168.992 71.7676 168.992 74.1055V79H167.83V77.9883H167.775C167.529 78.4941 166.846 79.1777 165.561 79.1777C164.152 79.1777 163.031 78.3438 163.031 76.8945ZM164.207 76.9492C164.207 77.7285 164.863 78.125 165.766 78.125C167.092 78.125 167.83 77.2363 167.83 76.3066V75.5547L165.957 75.6914C164.891 75.7598 164.207 76.1426 164.207 76.9492ZM170.879 79V71.5762H172.055V79H170.879ZM171.467 70.3457C171.016 70.3457 170.646 70.0039 170.646 69.5664C170.646 69.1289 171.016 68.7871 171.467 68.7871C171.918 68.7871 172.301 69.1289 172.301 69.5664C172.301 70.0039 171.918 70.3457 171.467 70.3457ZM175.104 74.543V79H173.928V71.5762H175.062V72.7383H175.158C175.514 71.9863 176.197 71.4805 177.332 71.4805C178.836 71.4805 179.834 72.3965 179.834 74.2832V79H178.658V74.3652C178.658 73.2168 178.029 72.5332 176.977 72.5332C175.896 72.5332 175.104 73.2578 175.104 74.543ZM186.902 79L184.646 71.5762H185.891L187.477 77.2363H187.545L189.117 71.5762H190.375L191.92 77.209H192.002L193.588 71.5762H194.818L192.562 79H191.4L189.787 73.3398H189.678L188.078 79H186.902ZM196.117 79V71.5762H197.293V79H196.117ZM196.705 70.3457C196.254 70.3457 195.885 70.0039 195.885 69.5664C195.885 69.1289 196.254 68.7871 196.705 68.7871C197.156 68.7871 197.539 69.1289 197.539 69.5664C197.539 70.0039 197.156 70.3457 196.705 70.3457ZM202.406 71.5762V72.5605H200.848V76.8672C200.848 77.8242 201.312 77.9746 201.818 77.9746C202.037 77.9746 202.338 77.9609 202.516 77.9473V79.041C202.338 79.0684 202.037 79.0957 201.695 79.0957C200.711 79.0957 199.658 78.4805 199.658 77.168V72.5605H198.537V71.5762H199.658V69.7988H200.848V71.5762H202.406ZM205.264 74.543V79H204.088V69.1016H205.264V72.7383H205.359C205.701 71.9727 206.371 71.4805 207.547 71.4805C209.064 71.4805 210.076 72.3828 210.076 74.2832V79H208.9V74.3652C208.9 73.2031 208.258 72.5332 207.191 72.5332C206.084 72.5332 205.264 73.2578 205.264 74.543ZM215.121 76.8945C215.121 75.1855 216.625 74.8027 217.91 74.707C218.382 74.6729 219.585 74.6113 219.92 74.5977V73.9961C219.92 73.0527 219.359 72.5059 218.238 72.5059C217.295 72.5059 216.734 72.9434 216.57 73.5039H215.34C215.49 72.3145 216.652 71.4805 218.293 71.4805C219.264 71.4805 221.082 71.7676 221.082 74.1055V79H219.92V77.9883H219.865C219.619 78.4941 218.936 79.1777 217.65 79.1777C216.242 79.1777 215.121 78.3438 215.121 76.8945ZM216.297 76.9492C216.297 77.7285 216.953 78.125 217.855 78.125C219.182 78.125 219.92 77.2363 219.92 76.3066V75.5547L218.047 75.6914C216.98 75.7598 216.297 76.1426 216.297 76.9492ZM230.611 73.5039C230.447 72.8887 229.982 72.4785 229.107 72.4785C228.191 72.4785 227.535 72.9707 227.535 73.5996C227.535 74.0918 227.932 74.4336 228.807 74.6387L229.914 74.9121C231.24 75.2266 231.896 75.8828 231.896 76.9219C231.896 78.207 230.844 79.1504 228.984 79.1504C227.316 79.1504 226.318 78.4121 226.127 77.0586H227.357C227.494 77.7832 228.027 78.125 228.957 78.125C230.01 78.125 230.68 77.6875 230.68 76.9902C230.68 76.4707 230.311 76.1152 229.463 75.9238L228.342 75.6641C227.043 75.3633 226.359 74.6523 226.359 73.668C226.359 72.3965 227.467 71.4805 229.107 71.4805C230.639 71.4805 231.609 72.3008 231.76 73.5039H230.611ZM238.117 75.9512V71.5762H239.279V79H238.117V77.7422H238.035C237.68 78.4941 236.955 79.0957 235.834 79.0957C234.426 79.0957 233.428 78.1797 233.428 76.293V71.5762H234.604V76.2109C234.604 77.2773 235.273 77.9609 236.217 77.9609C237.051 77.9609 238.117 77.332 238.117 75.9512ZM241.166 81.7891V71.5762H242.301V72.752H242.438C242.684 72.3555 243.148 71.4805 244.584 71.4805C246.443 71.4805 247.742 72.957 247.742 75.3086C247.742 77.6602 246.443 79.1504 244.598 79.1504C243.176 79.1504 242.684 78.2754 242.438 77.8652H242.342V81.7891H241.166ZM242.314 75.2812C242.314 76.9492 243.066 78.0977 244.434 78.0977C245.842 78.0977 246.566 76.8672 246.566 75.2812C246.566 73.7363 245.855 72.5332 244.434 72.5332C243.039 72.5332 242.314 73.6406 242.314 75.2812ZM249.273 81.7891V71.5762H250.408V72.752H250.545C250.791 72.3555 251.256 71.4805 252.691 71.4805C254.551 71.4805 255.85 72.957 255.85 75.3086C255.85 77.6602 254.551 79.1504 252.705 79.1504C251.283 79.1504 250.791 78.2754 250.545 77.8652H250.449V81.7891H249.273ZM250.422 75.2812C250.422 76.9492 251.174 78.0977 252.541 78.0977C253.949 78.0977 254.674 76.8672 254.674 75.2812C254.674 73.7363 253.963 72.5332 252.541 72.5332C251.146 72.5332 250.422 73.6406 250.422 75.2812ZM260.416 79.1504C258.393 79.1504 257.025 77.6328 257.025 75.3223C257.025 73.0117 258.393 71.4805 260.416 71.4805C262.426 71.4805 263.779 73.0117 263.779 75.3223C263.779 77.6328 262.426 79.1504 260.416 79.1504ZM260.416 78.1113C261.906 78.1113 262.604 76.7988 262.604 75.3223C262.604 73.8457 261.906 72.5195 260.416 72.5195C258.898 72.5195 258.201 73.8457 258.201 75.3223C258.201 76.7988 258.898 78.1113 260.416 78.1113ZM265.324 79V71.5762H266.459V72.7109H266.541C266.814 71.959 267.58 71.4531 268.455 71.4531C268.633 71.4531 268.934 71.4668 269.07 71.4805V72.6699C268.988 72.6426 268.66 72.5879 268.359 72.5879C267.293 72.5879 266.5 73.3262 266.5 74.3242V79H265.324ZM273.924 71.5762V72.5605H272.365V76.8672C272.365 77.8242 272.83 77.9746 273.336 77.9746C273.555 77.9746 273.855 77.9609 274.033 77.9473V79.041C273.855 79.0684 273.555 79.0957 273.213 79.0957C272.229 79.0957 271.176 78.4805 271.176 77.168V72.5605H270.055V71.5762H271.176V69.7988H272.365V71.5762H273.924ZM278.49 79.1504C276.344 79.1504 275.018 77.6328 275.018 75.3496C275.018 73.0664 276.357 71.4805 278.381 71.4805C279.939 71.4805 281.58 72.4375 281.58 75.1855V75.6777H276.193C276.248 77.25 277.164 78.1113 278.49 78.1113C279.379 78.1113 279.939 77.7285 280.213 77.2637H281.471C281.115 78.3848 280.021 79.1504 278.49 79.1504ZM276.207 74.6797H280.391C280.391 73.4355 279.598 72.5195 278.381 72.5195C277.096 72.5195 276.275 73.5312 276.207 74.6797ZM285.914 79.1504C284.068 79.1504 282.756 77.6602 282.756 75.3086C282.756 72.957 284.068 71.4805 285.928 71.4805C287.363 71.4805 287.828 72.3555 288.074 72.752H288.156V69.1016H289.346V79H288.197V77.8652H288.074C287.814 78.2754 287.336 79.1504 285.914 79.1504ZM286.078 78.0977C287.432 78.0977 288.197 76.9492 288.197 75.2812C288.197 73.6406 287.459 72.5332 286.078 72.5332C284.656 72.5332 283.945 73.7363 283.945 75.2812C283.945 76.8672 284.67 78.0977 286.078 78.0977ZM298.219 71.5762V72.5605H296.578V79H295.389V72.5605H294.199V71.5762H295.389V70.5645C295.389 69.3613 296.195 68.6367 297.508 68.6367C297.795 68.6367 298.137 68.6777 298.383 68.7188V69.7715C298.137 69.7305 297.918 69.7168 297.768 69.7168C296.947 69.7168 296.578 70.0586 296.578 70.8242V71.5762H298.219ZM299.613 79V71.5762H300.789V79H299.613ZM300.201 70.3457C299.75 70.3457 299.381 70.0039 299.381 69.5664C299.381 69.1289 299.75 68.7871 300.201 68.7871C300.652 68.7871 301.035 69.1289 301.035 69.5664C301.035 70.0039 300.652 70.3457 300.201 70.3457ZM303.838 69.1016V79H302.662V69.1016H303.838ZM308.828 79.1504C306.682 79.1504 305.355 77.6328 305.355 75.3496C305.355 73.0664 306.695 71.4805 308.719 71.4805C310.277 71.4805 311.918 72.4375 311.918 75.1855V75.6777H306.531C306.586 77.25 307.502 78.1113 308.828 78.1113C309.717 78.1113 310.277 77.7285 310.551 77.2637H311.809C311.453 78.3848 310.359 79.1504 308.828 79.1504ZM306.545 74.6797H310.729C310.729 73.4355 309.936 72.5195 308.719 72.5195C307.434 72.5195 306.613 73.5312 306.545 74.6797ZM314.283 79.082C313.805 79.082 313.395 78.6855 313.408 78.1934C313.395 77.7148 313.805 77.3184 314.283 77.3184C314.762 77.3184 315.158 77.7148 315.158 78.1934C315.158 78.6855 314.762 79.082 314.283 79.082Z" fill="#636363"/>
<mask id="mask0_1715_177906" style="mask-type:alpha" maskUnits="userSpaceOnUse" x="329" y="46" width="16" height="16">
<path d="M341.646 49.9404L337.587 53.9997L341.646 58.0596L340.939 58.7666L336.88 54.7067L332.82 58.7666L332.113 58.0596L336.173 53.9997L332.113 49.9404L332.82 49.2334L336.88 53.2926L340.939 49.2334L341.646 49.9404Z" fill="#161616"/>
</mask>
<g mask="url(#mask0_1715_177906)">
<rect x="329" y="46" width="16" height="16" fill="#858585"/>
</g>
</g>
</g>
<defs>
<filter id="filter0_dd_1715_177906" x="73" y="30" width="296" height="82" filterUnits="userSpaceOnUse" color-interpolation-filters="sRGB">
<feFlood flood-opacity="0" result="BackgroundImageFix"/>
<feColorMatrix in="SourceAlpha" type="matrix" values="0 0 0 0 0 0 0 0 0 0 0 0 0 0 0 0 0 0 127 0" result="hardAlpha"/>
<feOffset dy="6"/>
<feGaussianBlur stdDeviation="6"/>
<feComposite in2="hardAlpha" operator="out"/>
<feColorMatrix type="matrix" values="0 0 0 0 0 0 0 0 0 0 0 0 0 0 0 0 0 0 0.08 0"/>
<feBlend mode="normal" in2="BackgroundImageFix" result="effect1_dropShadow_1715_177906"/>
<feColorMatrix in="SourceAlpha" type="matrix" values="0 0 0 0 0 0 0 0 0 0 0 0 0 0 0 0 0 0 127 0" result="hardAlpha"/>
<feOffset dy="2"/>
<feGaussianBlur stdDeviation="4"/>
<feComposite in2="hardAlpha" operator="out"/>
<feColorMatrix type="matrix" values="0 0 0 0 0 0 0 0 0 0 0 0 0 0 0 0 0 0 0.08 0"/>
<feBlend mode="normal" in2="effect1_dropShadow_1715_177906" result="effect2_dropShadow_1715_177906"/>
<feBlend mode="normal" in="SourceGraphic" in2="effect2_dropShadow_1715_177906" result="shape"/>
</filter>
<clipPath id="clip0_1715_177906">
<path d="M0 8C0 3.58172 3.58172 0 8 0H434C438.418 0 442 3.58172 442 8V122C442 126.418 438.418 130 434 130H8C3.58172 130 0 126.418 0 122V8Z" fill="white"/>
</clipPath>
</defs>
</svg>
