<svg width="442" height="130" viewBox="0 0 442 130" fill="none" xmlns="http://www.w3.org/2000/svg">
<style>
:root {
  --sol-element-primary: #161616;
  --sol-element-tertiary: #636363;
  --sol-element-quaternary: #858585;
  --sol-element-brand-variant: #3a3480;
  --sol-fill-active: #4d469a;
  --sol-secondary-container: #e8e6f8;
  --sol-surface: #ffffff;
  --sol-border-solid-variant: #e0e0e0;
  --sol-error-dim: #b84451;
  --sol-static-white: #ffffff;
  --sol-static-black: #000000;
}
@media (prefers-color-scheme: dark) {
  :root {
    --sol-element-primary: #ffffff;
    --sol-element-tertiary: rgba(255, 255, 255, 0.60);
    --sol-element-quaternary: rgba(255, 255, 255, 0.5);
    --sol-element-brand-variant: #ffffff;
    --sol-fill-active: #7b74c4;
    --sol-secondary-container: rgba(255, 255, 255, 0.16);
    --sol-surface: #161616;
    --sol-border-solid-variant: #3d3d3d;
    --sol-error-dim: #e76067;
  }
}
</style>

<g clip-path="url(#clip0_1669_178836)">
<path d="M93.5 65C93.5 58.3726 98.8726 53 105.5 53H128.5C135.127 53 140.5 58.3726 140.5 65C140.5 71.6274 135.127 77 128.5 77H105.5C98.8726 77 93.5 71.6274 93.5 65Z" fill="var(--sol-fill-active)"/>
<path d="M105.955 60.5156V69H104.455V60.5156H105.955ZM107.092 67.207C107.092 65.7773 108.275 65.3555 109.459 65.2852C109.898 65.2559 110.812 65.2031 111.088 65.1914V64.6875C111.088 64.0547 110.678 63.6914 109.939 63.6914C109.271 63.6914 108.861 63.9961 108.744 64.4531H107.303C107.408 63.375 108.381 62.5547 109.975 62.5547C111.182 62.5547 112.576 63.0469 112.576 64.7461V69H111.146V68.1211H111.1C110.818 68.6602 110.221 69.1289 109.225 69.1289C108.006 69.1289 107.092 68.4609 107.092 67.207ZM108.533 67.1953C108.533 67.7461 108.979 68.0273 109.611 68.0273C110.514 68.0273 111.1 67.4297 111.1 66.7148V66.1875L109.693 66.2812C108.979 66.3398 108.533 66.6328 108.533 67.1953ZM114.053 69V60.5156H115.553V63.6797H115.611C115.846 63.2227 116.303 62.5547 117.428 62.5547C118.904 62.5547 120.064 63.7031 120.064 65.8242C120.064 67.9219 118.928 69.1172 117.439 69.1172C116.338 69.1172 115.846 68.4609 115.611 67.9922H115.518V69H114.053ZM115.518 65.8125C115.518 67.0547 116.057 67.8867 117.018 67.8867C118.014 67.8867 118.541 67.0195 118.541 65.8125C118.541 64.6289 118.025 63.7734 117.018 63.7734C116.057 63.7734 115.518 64.582 115.518 65.8125ZM124.061 69.1289C122.139 69.1289 120.967 67.8516 120.967 65.8594C120.967 63.8906 122.162 62.5547 123.979 62.5547C125.537 62.5547 126.885 63.5273 126.885 65.7656V66.2344H122.443C122.461 67.3184 123.1 67.957 124.072 67.957C124.729 67.957 125.174 67.6758 125.361 67.3008H126.826C126.557 68.4023 125.537 69.1289 124.061 69.1289ZM122.455 65.2148H125.455C125.443 64.3477 124.869 63.7148 124.002 63.7148C123.1 63.7148 122.502 64.4004 122.455 65.2148ZM129.545 60.5156V69H128.045V60.5156H129.545Z" fill="var(--sol-surface)"/>
</g>
<g clip-path="url(#clip1_1669_178836)">
<path d="M146.5 65C146.5 58.3726 151.873 53 158.5 53H180.5C187.127 53 192.5 58.3726 192.5 65C192.5 71.6274 187.127 77 180.5 77H158.5C151.873 77 146.5 71.6274 146.5 65Z" fill="var(--sol-surface)"/>
<path d="M158.5 53.5H180.5C186.851 53.5 192 58.6487 192 65C192 71.3513 186.851 76.5 180.5 76.5H158.5C152.149 76.5 147 71.3513 147 65C147 58.6487 152.149 53.5 158.5 53.5Z" stroke="var(--sol-element-primary)" stroke-opacity="0.16"/>
<path d="M158.631 60.5156V69H157.623V60.5156H158.631ZM159.932 67.1953C159.932 65.7305 161.221 65.4023 162.322 65.3203C162.727 65.291 163.758 65.2383 164.045 65.2266V64.7109C164.045 63.9023 163.564 63.4336 162.604 63.4336C161.795 63.4336 161.314 63.8086 161.174 64.2891H160.119C160.248 63.2695 161.244 62.5547 162.65 62.5547C163.482 62.5547 165.041 62.8008 165.041 64.8047V69H164.045V68.1328H163.998C163.787 68.5664 163.201 69.1523 162.1 69.1523C160.893 69.1523 159.932 68.4375 159.932 67.1953ZM160.939 67.2422C160.939 67.9102 161.502 68.25 162.275 68.25C163.412 68.25 164.045 67.4883 164.045 66.6914V66.0469L162.439 66.1641C161.525 66.2227 160.939 66.5508 160.939 67.2422ZM166.787 69V60.5156H167.795V63.6445H167.877C168.1 63.3047 168.475 62.5547 169.717 62.5547C171.311 62.5547 172.436 63.8203 172.436 65.8359C172.436 67.8516 171.311 69.1289 169.729 69.1289C168.51 69.1289 168.1 68.3789 167.877 68.0273H167.76V69H166.787ZM167.771 65.8125C167.771 67.2422 168.416 68.2266 169.576 68.2266C170.783 68.2266 171.416 67.1719 171.416 65.8125C171.416 64.4883 170.807 63.457 169.576 63.457C168.404 63.457 167.771 64.4062 167.771 65.8125ZM176.42 69.1289C174.58 69.1289 173.443 67.8281 173.443 65.8711C173.443 63.9141 174.592 62.5547 176.326 62.5547C177.662 62.5547 179.068 63.375 179.068 65.7305V66.1523H174.451C174.498 67.5 175.283 68.2383 176.42 68.2383C177.182 68.2383 177.662 67.9102 177.896 67.5117H178.975C178.67 68.4727 177.732 69.1289 176.42 69.1289ZM174.463 65.2969H178.049C178.049 64.2305 177.369 63.4453 176.326 63.4453C175.225 63.4453 174.521 64.3125 174.463 65.2969ZM181.389 60.5156V69H180.381V60.5156H181.389Z" fill="var(--sol-element-quaternary)"/>
</g>
<g clip-path="url(#clip2_1669_178836)">
<path d="M198.5 65C198.5 58.3726 203.873 53 210.5 53H232.5C239.127 53 244.5 58.3726 244.5 65C244.5 71.6274 239.127 77 232.5 77H210.5C203.873 77 198.5 71.6274 198.5 65Z" fill="var(--sol-surface)"/>
<path d="M210.5 53.5H232.5C238.851 53.5 244 58.6487 244 65C244 71.3513 238.851 76.5 232.5 76.5H210.5C204.149 76.5 199 71.3513 199 65C199 58.6487 204.149 53.5 210.5 53.5Z" stroke="var(--sol-element-primary)" stroke-opacity="0.16"/>
<path d="M210.631 60.5156V69H209.623V60.5156H210.631ZM211.932 67.1953C211.932 65.7305 213.221 65.4023 214.322 65.3203C214.727 65.291 215.758 65.2383 216.045 65.2266V64.7109C216.045 63.9023 215.564 63.4336 214.604 63.4336C213.795 63.4336 213.314 63.8086 213.174 64.2891H212.119C212.248 63.2695 213.244 62.5547 214.65 62.5547C215.482 62.5547 217.041 62.8008 217.041 64.8047V69H216.045V68.1328H215.998C215.787 68.5664 215.201 69.1523 214.1 69.1523C212.893 69.1523 211.932 68.4375 211.932 67.1953ZM212.939 67.2422C212.939 67.9102 213.502 68.25 214.275 68.25C215.412 68.25 216.045 67.4883 216.045 66.6914V66.0469L214.439 66.1641C213.525 66.2227 212.939 66.5508 212.939 67.2422ZM218.787 69V60.5156H219.795V63.6445H219.877C220.1 63.3047 220.475 62.5547 221.717 62.5547C223.311 62.5547 224.436 63.8203 224.436 65.8359C224.436 67.8516 223.311 69.1289 221.729 69.1289C220.51 69.1289 220.1 68.3789 219.877 68.0273H219.76V69H218.787ZM219.771 65.8125C219.771 67.2422 220.416 68.2266 221.576 68.2266C222.783 68.2266 223.416 67.1719 223.416 65.8125C223.416 64.4883 222.807 63.457 221.576 63.457C220.404 63.457 219.771 64.4062 219.771 65.8125ZM228.42 69.1289C226.58 69.1289 225.443 67.8281 225.443 65.8711C225.443 63.9141 226.592 62.5547 228.326 62.5547C229.662 62.5547 231.068 63.375 231.068 65.7305V66.1523H226.451C226.498 67.5 227.283 68.2383 228.42 68.2383C229.182 68.2383 229.662 67.9102 229.896 67.5117H230.975C230.67 68.4727 229.732 69.1289 228.42 69.1289ZM226.463 65.2969H230.049C230.049 64.2305 229.369 63.4453 228.326 63.4453C227.225 63.4453 226.521 64.3125 226.463 65.2969ZM233.389 60.5156V69H232.381V60.5156H233.389Z" fill="var(--sol-element-quaternary)"/>
</g>
<g clip-path="url(#clip3_1669_178836)">
<path d="M250.5 65C250.5 58.3726 255.873 53 262.5 53H284.5C291.127 53 296.5 58.3726 296.5 65C296.5 71.6274 291.127 77 284.5 77H262.5C255.873 77 250.5 71.6274 250.5 65Z" fill="var(--sol-surface)"/>
<path d="M262.5 53.5H284.5C290.851 53.5 296 58.6487 296 65C296 71.3513 290.851 76.5 284.5 76.5H262.5C256.149 76.5 251 71.3513 251 65C251 58.6487 256.149 53.5 262.5 53.5Z" stroke="var(--sol-element-primary)" stroke-opacity="0.16"/>
<path d="M262.631 60.5156V69H261.623V60.5156H262.631ZM263.932 67.1953C263.932 65.7305 265.221 65.4023 266.322 65.3203C266.727 65.291 267.758 65.2383 268.045 65.2266V64.7109C268.045 63.9023 267.564 63.4336 266.604 63.4336C265.795 63.4336 265.314 63.8086 265.174 64.2891H264.119C264.248 63.2695 265.244 62.5547 266.65 62.5547C267.482 62.5547 269.041 62.8008 269.041 64.8047V69H268.045V68.1328H267.998C267.787 68.5664 267.201 69.1523 266.1 69.1523C264.893 69.1523 263.932 68.4375 263.932 67.1953ZM264.939 67.2422C264.939 67.9102 265.502 68.25 266.275 68.25C267.412 68.25 268.045 67.4883 268.045 66.6914V66.0469L266.439 66.1641C265.525 66.2227 264.939 66.5508 264.939 67.2422ZM270.787 69V60.5156H271.795V63.6445H271.877C272.1 63.3047 272.475 62.5547 273.717 62.5547C275.311 62.5547 276.436 63.8203 276.436 65.8359C276.436 67.8516 275.311 69.1289 273.729 69.1289C272.51 69.1289 272.1 68.3789 271.877 68.0273H271.76V69H270.787ZM271.771 65.8125C271.771 67.2422 272.416 68.2266 273.576 68.2266C274.783 68.2266 275.416 67.1719 275.416 65.8125C275.416 64.4883 274.807 63.457 273.576 63.457C272.404 63.457 271.771 64.4062 271.771 65.8125ZM280.42 69.1289C278.58 69.1289 277.443 67.8281 277.443 65.8711C277.443 63.9141 278.592 62.5547 280.326 62.5547C281.662 62.5547 283.068 63.375 283.068 65.7305V66.1523H278.451C278.498 67.5 279.283 68.2383 280.42 68.2383C281.182 68.2383 281.662 67.9102 281.896 67.5117H282.975C282.67 68.4727 281.732 69.1289 280.42 69.1289ZM278.463 65.2969H282.049C282.049 64.2305 281.369 63.4453 280.326 63.4453C279.225 63.4453 278.521 64.3125 278.463 65.2969ZM285.389 60.5156V69H284.381V60.5156H285.389Z" fill="var(--sol-element-quaternary)"/>
</g>
<g clip-path="url(#clip4_1669_178836)">
<path d="M302.5 65C302.5 58.3726 307.873 53 314.5 53H336.5C343.127 53 348.5 58.3726 348.5 65C348.5 71.6274 343.127 77 336.5 77H314.5C307.873 77 302.5 71.6274 302.5 65Z" fill="var(--sol-surface)"/>
<path d="M314.5 53.5H336.5C342.851 53.5 348 58.6487 348 65C348 71.3513 342.851 76.5 336.5 76.5H314.5C308.149 76.5 303 71.3513 303 65C303 58.6487 308.149 53.5 314.5 53.5Z" stroke="var(--sol-element-primary)" stroke-opacity="0.16"/>
<path d="M314.631 60.5156V69H313.623V60.5156H314.631ZM315.932 67.1953C315.932 65.7305 317.221 65.4023 318.322 65.3203C318.727 65.291 319.758 65.2383 320.045 65.2266V64.7109C320.045 63.9023 319.564 63.4336 318.604 63.4336C317.795 63.4336 317.314 63.8086 317.174 64.2891H316.119C316.248 63.2695 317.244 62.5547 318.65 62.5547C319.482 62.5547 321.041 62.8008 321.041 64.8047V69H320.045V68.1328H319.998C319.787 68.5664 319.201 69.1523 318.1 69.1523C316.893 69.1523 315.932 68.4375 315.932 67.1953ZM316.939 67.2422C316.939 67.9102 317.502 68.25 318.275 68.25C319.412 68.25 320.045 67.4883 320.045 66.6914V66.0469L318.439 66.1641C317.525 66.2227 316.939 66.5508 316.939 67.2422ZM322.787 69V60.5156H323.795V63.6445H323.877C324.1 63.3047 324.475 62.5547 325.717 62.5547C327.311 62.5547 328.436 63.8203 328.436 65.8359C328.436 67.8516 327.311 69.1289 325.729 69.1289C324.51 69.1289 324.1 68.3789 323.877 68.0273H323.76V69H322.787ZM323.771 65.8125C323.771 67.2422 324.416 68.2266 325.576 68.2266C326.783 68.2266 327.416 67.1719 327.416 65.8125C327.416 64.4883 326.807 63.457 325.576 63.457C324.404 63.457 323.771 64.4062 323.771 65.8125ZM332.42 69.1289C330.58 69.1289 329.443 67.8281 329.443 65.8711C329.443 63.9141 330.592 62.5547 332.326 62.5547C333.662 62.5547 335.068 63.375 335.068 65.7305V66.1523H330.451C330.498 67.5 331.283 68.2383 332.42 68.2383C333.182 68.2383 333.662 67.9102 333.896 67.5117H334.975C334.67 68.4727 333.732 69.1289 332.42 69.1289ZM330.463 65.2969H334.049C334.049 64.2305 333.369 63.4453 332.326 63.4453C331.225 63.4453 330.521 64.3125 330.463 65.2969ZM337.389 60.5156V69H336.381V60.5156H337.389Z" fill="var(--sol-element-quaternary)"/>
</g>
<defs>
<clipPath id="clip0_1669_178836">
<path d="M93.5 65C93.5 58.3726 98.8726 53 105.5 53H128.5C135.127 53 140.5 58.3726 140.5 65C140.5 71.6274 135.127 77 128.5 77H105.5C98.8726 77 93.5 71.6274 93.5 65Z" fill="var(--sol-surface)"/>
</clipPath>
<clipPath id="clip1_1669_178836">
<path d="M146.5 65C146.5 58.3726 151.873 53 158.5 53H180.5C187.127 53 192.5 58.3726 192.5 65C192.5 71.6274 187.127 77 180.5 77H158.5C151.873 77 146.5 71.6274 146.5 65Z" fill="var(--sol-surface)"/>
</clipPath>
<clipPath id="clip2_1669_178836">
<path d="M198.5 65C198.5 58.3726 203.873 53 210.5 53H232.5C239.127 53 244.5 58.3726 244.5 65C244.5 71.6274 239.127 77 232.5 77H210.5C203.873 77 198.5 71.6274 198.5 65Z" fill="var(--sol-surface)"/>
</clipPath>
<clipPath id="clip3_1669_178836">
<path d="M250.5 65C250.5 58.3726 255.873 53 262.5 53H284.5C291.127 53 296.5 58.3726 296.5 65C296.5 71.6274 291.127 77 284.5 77H262.5C255.873 77 250.5 71.6274 250.5 65Z" fill="var(--sol-surface)"/>
</clipPath>
<clipPath id="clip4_1669_178836">
<path d="M302.5 65C302.5 58.3726 307.873 53 314.5 53H336.5C343.127 53 348.5 58.3726 348.5 65C348.5 71.6274 343.127 77 336.5 77H314.5C307.873 77 302.5 71.6274 302.5 65Z" fill="var(--sol-surface)"/>
</clipPath>
</defs>
</svg>
