<svg width="442" height="130" viewBox="0 0 442 130" fill="none" xmlns="http://www.w3.org/2000/svg">
<style>
:root {
  --sol-element-primary: #161616;
  --sol-element-tertiary: #636363;
  --sol-element-quaternary: #858585;
  --sol-element-brand-variant: #3a3480;
  --sol-fill-active: #4d469a;
  --sol-secondary-container: #e8e6f8;
  --sol-surface: #ffffff;
  --sol-border-solid-variant: #e0e0e0;
  --sol-error-dim: #b84451;
  --sol-static-white: #ffffff;
  --sol-static-black: #000000;
}
@media (prefers-color-scheme: dark) {
  :root {
    --sol-element-primary: #ffffff;
    --sol-element-tertiary: rgba(255, 255, 255, 0.60);
    --sol-element-quaternary: rgba(255, 255, 255, 0.5);
    --sol-element-brand-variant: #ffffff;
    --sol-fill-active: #7b74c4;
    --sol-secondary-container: rgba(255, 255, 255, 0.16);
    --sol-surface: #161616;
    --sol-border-solid-variant: #3d3d3d;
    --sol-error-dim: #e76067;
  }
}
</style>

<g clip-path="url(#clip0_1669_178824)">
<g filter="url(#filter0_d_1669_178824)">
<g clip-path="url(#clip1_1669_178824)">
<path d="M-12 34C-12 31.7909 -10.2091 30 -8 30H408C410.209 30 412 31.7909 412 34V192C412 194.209 410.209 196 408 196H-7.99999C-10.2091 196 -12 194.209 -12 192V34Z" fill="var(--sol-surface)"/>
<path opacity="0.3" d="M18.1133 65H13.3086V50.8594H18.1914C22.4102 50.8594 24.9688 53.5156 24.9688 57.9102C24.9688 62.3242 22.4102 65 18.1133 65ZM15.8477 62.793H17.9766C20.9258 62.793 22.4297 61.1719 22.4297 57.9102C22.4297 54.668 20.9258 53.0664 18.0547 53.0664H15.8477V62.793ZM31.8047 65.2148C28.6016 65.2148 26.6484 63.0859 26.6484 59.7656C26.6484 56.4844 28.6406 54.2578 31.668 54.2578C34.2656 54.2578 36.5117 55.8789 36.5117 59.6094V60.3906H29.1094C29.1387 62.1973 30.2031 63.2617 31.8242 63.2617C32.918 63.2617 33.6602 62.793 33.9727 62.168H36.4141C35.9648 64.0039 34.2656 65.2148 31.8047 65.2148ZM29.1289 58.6914H34.1289C34.1094 57.2461 33.1523 56.1914 31.707 56.1914C30.2031 56.1914 29.207 57.334 29.1289 58.6914ZM47.6055 54.3945L43.8164 65H41.082L37.293 54.3945H39.9492L42.3906 62.2852H42.5078L44.9688 54.3945H47.6055ZM49.168 65V54.3945H51.668V65H49.168ZM50.4375 52.8906C49.6562 52.8906 48.9922 52.2852 48.9922 51.5234C48.9922 50.7812 49.6562 50.1758 50.4375 50.1758C51.2383 50.1758 51.8828 50.7812 51.8828 51.5234C51.8828 52.2852 51.2383 52.8906 50.4375 52.8906ZM58.6797 65.2148C55.5156 65.2148 53.6016 62.9492 53.6016 59.7461C53.6016 56.5039 55.5742 54.2578 58.6797 54.2578C61.2578 54.2578 63.0547 55.7617 63.2305 58.0469H60.8477C60.6523 57.0312 59.9102 56.25 58.6992 56.25C57.1562 56.25 56.1211 57.5586 56.1211 59.6875C56.1211 61.875 57.1367 63.1836 58.6992 63.1836C59.8125 63.1836 60.6328 62.5391 60.8477 61.3867H63.2305C63.0352 63.6328 61.3359 65.2148 58.6797 65.2148ZM69.8125 65.2148C66.6094 65.2148 64.6562 63.0859 64.6562 59.7656C64.6562 56.4844 66.6484 54.2578 69.6758 54.2578C72.2734 54.2578 74.5195 55.8789 74.5195 59.6094V60.3906H67.1172C67.1465 62.1973 68.2109 63.2617 69.832 63.2617C70.9258 63.2617 71.668 62.793 71.9805 62.168H74.4219C73.9727 64.0039 72.2734 65.2148 69.8125 65.2148ZM67.1367 58.6914H72.1367C72.1172 57.2461 71.1602 56.1914 69.7148 56.1914C68.2109 56.1914 67.2148 57.334 67.1367 58.6914ZM82.4688 57.4219C82.3125 56.6211 81.6484 56.1133 80.5938 56.1133C79.5195 56.1133 78.7383 56.6406 78.7578 57.3633C78.7383 57.9102 79.1875 58.3203 80.2617 58.5742L82.0586 58.9453C84.0703 59.3945 85.0273 60.3125 85.0469 61.8359C85.0273 63.8281 83.2891 65.2148 80.5156 65.2148C77.8203 65.2148 76.2188 64.0039 75.9648 61.9727H78.5039C78.6602 62.8711 79.3633 63.3203 80.5156 63.3203C81.707 63.3203 82.5078 62.832 82.5078 62.0508C82.5078 61.4453 82.0195 61.0547 80.9648 60.8203L79.2656 60.4492C77.293 60.0586 76.2773 59.0234 76.2773 57.5C76.2773 55.5469 77.957 54.2578 80.5547 54.2578C83.0938 54.2578 84.6562 55.4883 84.832 57.4219H82.4688Z" fill="var(--sol-element-primary)"/>
<g clip-path="url(#clip2_1669_178824)">
<path d="M65 58C65 51.3726 70.3726 46 77 46H88C94.6274 46 100 51.3726 100 58C100 64.6274 94.6274 70 88 70H77C70.3726 70 65 64.6274 65 58Z" fill="var(--sol-fill-active)"/>
<path d="M77.2734 62H75.6445L78.6328 53.5156H80.5078L83.5078 62H81.8789L81.1758 59.9023H77.9766L77.2734 62ZM78.3867 58.6719H80.7656L79.6055 55.25H79.5352L78.3867 58.6719ZM85.9453 53.5156V62H84.4453V53.5156H85.9453ZM88.875 53.5156V62H87.375V53.5156H88.875Z" fill="var(--sol-surface)"/>
</g>
<g clip-path="url(#clip3_1669_178824)">
<path d="M106 58C106 51.3726 111.373 46 118 46H135C141.627 46 147 51.3726 147 58C147 64.6274 141.627 70 135 70H118C111.373 70 106 64.6274 106 58Z" fill="var(--sol-surface)"/>
<path d="M118 46.5H135C141.351 46.5 146.5 51.6487 146.5 58C146.5 64.3513 141.351 69.5 135 69.5H118C111.649 69.5 106.5 64.3513 106.5 58C106.5 51.6487 111.649 46.5 118 46.5Z" stroke="var(--sol-element-primary)" stroke-opacity="0.16"/>
<path d="M117.189 62V53.5156H122.334V54.4531H118.244V57.2891H122.064V58.2148H118.244V61.0625H122.393V62H117.189ZM128.627 55.6484C128.533 54.8164 127.771 54.3359 126.752 54.3359C125.627 54.3359 124.889 54.9219 124.889 55.7305C124.889 56.6211 125.885 56.9492 126.529 57.1133L127.373 57.3477C128.287 57.582 129.775 58.1094 129.775 59.6914C129.775 61.0742 128.662 62.1523 126.693 62.1523C124.865 62.1523 123.729 61.2031 123.635 59.7969H124.713C124.807 60.7461 125.686 61.1914 126.693 61.1914C127.865 61.1914 128.744 60.5938 128.744 59.668C128.744 58.8477 127.959 58.5312 127.068 58.2734L126.025 57.9922C124.689 57.6055 123.869 56.9258 123.869 55.7773C123.869 54.3477 125.146 53.3984 126.787 53.3984C128.428 53.3984 129.611 54.3594 129.658 55.6484H128.627ZM131.287 62V53.5156H132.342V61.0625H136.279V62H131.287Z" fill="var(--sol-element-quaternary)"/>
</g>
<g clip-path="url(#clip4_1669_178824)">
<path d="M153 58C153 51.3726 158.373 46 165 46H209C215.627 46 221 51.3726 221 58C221 64.6274 215.627 70 209 70H165C158.373 70 153 64.6274 153 58Z" fill="var(--sol-surface)"/>
<path d="M165 46.5H209C215.351 46.5 220.5 51.6487 220.5 58C220.5 64.3513 215.351 69.5 209 69.5H165C158.649 69.5 153.5 64.3513 153.5 58C153.5 51.6487 158.649 46.5 165 46.5Z" stroke="var(--sol-element-primary)" stroke-opacity="0.16"/>
<path d="M170.002 56.1641C169.639 55.0742 168.807 54.3828 167.6 54.3828C166.1 54.3828 164.904 55.5664 164.904 57.7578C164.904 59.9492 166.1 61.1328 167.67 61.1328C169.105 61.1328 170.084 60.1719 170.107 58.6719H167.893V57.7461H171.139V58.6602C171.139 60.7695 169.686 62.1172 167.67 62.1172C165.408 62.1172 163.885 60.4414 163.885 57.7578C163.885 55.0742 165.42 53.3984 167.6 53.3984C169.393 53.3984 170.775 54.5234 171.092 56.1641H170.002ZM172.287 60.1953C172.287 58.7305 173.576 58.4023 174.678 58.3203C175.082 58.291 176.113 58.2383 176.4 58.2266V57.7109C176.4 56.9023 175.92 56.4336 174.959 56.4336C174.15 56.4336 173.67 56.8086 173.529 57.2891H172.475C172.604 56.2695 173.6 55.5547 175.006 55.5547C175.838 55.5547 177.396 55.8008 177.396 57.8047V62H176.4V61.1328H176.354C176.143 61.5664 175.557 62.1523 174.455 62.1523C173.248 62.1523 172.287 61.4375 172.287 60.1953ZM173.295 60.2422C173.295 60.9102 173.857 61.25 174.631 61.25C175.768 61.25 176.4 60.4883 176.4 59.6914V59.0469L174.795 59.1641C173.881 59.2227 173.295 59.5508 173.295 60.2422ZM181.791 55.6367V56.4805H180.455V60.1719C180.455 60.9922 180.854 61.1211 181.287 61.1211C181.475 61.1211 181.732 61.1094 181.885 61.0977V62.0352C181.732 62.0586 181.475 62.082 181.182 62.082C180.338 62.082 179.436 61.5547 179.436 60.4297V56.4805H178.475V55.6367H179.436V54.1133H180.455V55.6367H181.791ZM185.705 62.1289C183.865 62.1289 182.729 60.8281 182.729 58.8711C182.729 56.9141 183.877 55.5547 185.611 55.5547C186.947 55.5547 188.354 56.375 188.354 58.7305V59.1523H183.736C183.783 60.5 184.568 61.2383 185.705 61.2383C186.467 61.2383 186.947 60.9102 187.182 60.5117H188.26C187.955 61.4727 187.018 62.1289 185.705 62.1289ZM183.748 58.2969H187.334C187.334 57.2305 186.654 56.4453 185.611 56.4453C184.51 56.4453 183.807 57.3125 183.748 58.2969ZM191.096 62L189.162 55.6367H190.229L191.588 60.4883H191.646L192.994 55.6367H194.072L195.396 60.4648H195.467L196.826 55.6367H197.881L195.947 62H194.951L193.568 57.1484H193.475L192.104 62H191.096ZM198.689 60.1953C198.689 58.7305 199.979 58.4023 201.08 58.3203C201.484 58.291 202.516 58.2383 202.803 58.2266V57.7109C202.803 56.9023 202.322 56.4336 201.361 56.4336C200.553 56.4336 200.072 56.8086 199.932 57.2891H198.877C199.006 56.2695 200.002 55.5547 201.408 55.5547C202.24 55.5547 203.799 55.8008 203.799 57.8047V62H202.803V61.1328H202.756C202.545 61.5664 201.959 62.1523 200.857 62.1523C199.65 62.1523 198.689 61.4375 198.689 60.1953ZM199.697 60.2422C199.697 60.9102 200.26 61.25 201.033 61.25C202.17 61.25 202.803 60.4883 202.803 59.6914V59.0469L201.197 59.1641C200.283 59.2227 199.697 59.5508 199.697 60.2422ZM205.826 64.3906C205.604 64.3906 205.393 64.3789 205.264 64.3672V63.4648C205.369 63.4766 205.604 63.4883 205.756 63.4883C206.166 63.4883 206.506 63.4531 206.846 62.5273L207.033 62.0469L204.678 55.6367H205.779L207.514 60.6875H207.584L209.318 55.6367H210.42L207.725 62.9141C207.35 63.9102 206.729 64.3906 205.826 64.3906Z" fill="var(--sol-element-quaternary)"/>
</g>
<g clip-path="url(#clip5_1669_178824)">
<path d="M227 58C227 51.3726 232.373 46 239 46H291C297.627 46 303 51.3726 303 58C303 64.6274 297.627 70 291 70H239C232.373 70 227 64.6274 227 58Z" fill="var(--sol-surface)"/>
<path d="M239 46.5H291C297.351 46.5 302.5 51.6487 302.5 58C302.5 64.3513 297.351 69.5 291 69.5H239C232.649 69.5 227.5 64.3513 227.5 58C227.5 51.6487 232.649 46.5 239 46.5Z" stroke="var(--sol-element-primary)" stroke-opacity="0.16"/>
<path d="M238.088 62V53.5156H240.971C242.963 53.5156 243.865 54.6992 243.865 56.2109C243.865 57.7109 242.963 58.918 240.982 58.918H239.143V62H238.088ZM239.143 57.9805H240.936C242.283 57.9805 242.822 57.2188 242.822 56.2109C242.822 55.1914 242.283 54.4531 240.924 54.4531H239.143V57.9805ZM247.756 62.1289C246.021 62.1289 244.85 60.8281 244.85 58.8477C244.85 56.8672 246.021 55.5547 247.756 55.5547C249.479 55.5547 250.639 56.8672 250.639 58.8477C250.639 60.8281 249.479 62.1289 247.756 62.1289ZM247.756 61.2383C249.033 61.2383 249.631 60.1133 249.631 58.8477C249.631 57.582 249.033 56.4453 247.756 56.4453C246.455 56.4453 245.857 57.582 245.857 58.8477C245.857 60.1133 246.455 61.2383 247.756 61.2383ZM253.182 62L251.248 55.6367H252.314L253.674 60.4883H253.732L255.08 55.6367H256.158L257.482 60.4648H257.553L258.912 55.6367H259.967L258.033 62H257.037L255.654 57.1484H255.561L254.189 62H253.182ZM263.541 62.1289C261.701 62.1289 260.564 60.8281 260.564 58.8711C260.564 56.9141 261.713 55.5547 263.447 55.5547C264.783 55.5547 266.189 56.375 266.189 58.7305V59.1523H261.572C261.619 60.5 262.404 61.2383 263.541 61.2383C264.303 61.2383 264.783 60.9102 265.018 60.5117H266.096C265.791 61.4727 264.854 62.1289 263.541 62.1289ZM261.584 58.2969H265.17C265.17 57.2305 264.49 56.4453 263.447 56.4453C262.346 56.4453 261.643 57.3125 261.584 58.2969ZM267.502 62V55.6367H268.475V56.6094H268.545C268.779 55.9648 269.436 55.5312 270.186 55.5312C270.338 55.5312 270.596 55.543 270.713 55.5547V56.5742C270.643 56.5508 270.361 56.5039 270.104 56.5039C269.189 56.5039 268.51 57.1367 268.51 57.9922V62H267.502ZM274.838 62V53.5156H277.721C279.713 53.5156 280.615 54.6172 280.615 56.1289C280.615 57.248 280.111 58.1328 279.033 58.5078L280.943 62H279.713L277.943 58.6953L277.732 58.707H275.893V62H274.838ZM275.893 57.7461H277.686C279.033 57.7461 279.572 57.1367 279.572 56.1289C279.572 55.1094 279.033 54.4531 277.674 54.4531H275.893V57.7461ZM281.705 60.1953C281.705 58.7305 282.994 58.4023 284.096 58.3203C284.5 58.291 285.531 58.2383 285.818 58.2266V57.7109C285.818 56.9023 285.338 56.4336 284.377 56.4336C283.568 56.4336 283.088 56.8086 282.947 57.2891H281.893C282.021 56.2695 283.018 55.5547 284.424 55.5547C285.256 55.5547 286.814 55.8008 286.814 57.8047V62H285.818V61.1328H285.771C285.561 61.5664 284.975 62.1523 283.873 62.1523C282.666 62.1523 281.705 61.4375 281.705 60.1953ZM282.713 60.2422C282.713 60.9102 283.275 61.25 284.049 61.25C285.186 61.25 285.818 60.4883 285.818 59.6914V59.0469L284.213 59.1641C283.299 59.2227 282.713 59.5508 282.713 60.2422ZM288.432 62V55.6367H289.439V62H288.432ZM288.936 54.582C288.549 54.582 288.232 54.2891 288.232 53.9141C288.232 53.5391 288.549 53.2461 288.936 53.2461C289.322 53.2461 289.65 53.5391 289.65 53.9141C289.65 54.2891 289.322 54.582 288.936 54.582ZM292.053 53.5156V62H291.045V53.5156H292.053Z" fill="var(--sol-element-quaternary)"/>
</g>
<g clip-path="url(#clip6_1669_178824)">
<path d="M311 58C311 51.3726 316.373 46 323 46H384C390.627 46 396 51.3726 396 58C396 64.6274 390.627 70 384 70H323C316.373 70 311 64.6274 311 58Z" fill="var(--sol-surface)"/>
<path d="M323 46.5H384C390.351 46.5 395.5 51.6487 395.5 58C395.5 64.3513 390.351 69.5 384 69.5H323C316.649 69.5 311.5 64.3513 311.5 58C311.5 51.8472 316.332 46.8227 322.408 46.5146L323 46.5Z" stroke="var(--sol-element-primary)" stroke-opacity="0.16"/>
<path d="M328.85 53.5156V62H327.842L323.248 55.3906H323.166V62H322.111V53.5156H323.131L327.725 60.1367H327.807V53.5156H328.85ZM333.268 62.1289C331.428 62.1289 330.291 60.8281 330.291 58.8711C330.291 56.9141 331.439 55.5547 333.174 55.5547C334.51 55.5547 335.916 56.375 335.916 58.7305V59.1523H331.299C331.346 60.5 332.131 61.2383 333.268 61.2383C334.029 61.2383 334.51 60.9102 334.744 60.5117H335.822C335.518 61.4727 334.58 62.1289 333.268 62.1289ZM331.311 58.2969H334.896C334.896 57.2305 334.217 56.4453 333.174 56.4453C332.072 56.4453 331.369 57.3125 331.311 58.2969ZM338.658 62L336.725 55.6367H337.791L339.15 60.4883H339.209L340.557 55.6367H341.635L342.959 60.4648H343.029L344.389 55.6367H345.443L343.51 62H342.514L341.131 57.1484H341.037L339.666 62H338.658ZM349.334 55.6367V56.4805H347.998V60.1719C347.998 60.9922 348.396 61.1211 348.83 61.1211C349.018 61.1211 349.275 61.1094 349.428 61.0977V62.0352C349.275 62.0586 349.018 62.082 348.725 62.082C347.881 62.082 346.979 61.5547 346.979 60.4297V56.4805H346.018V55.6367H346.979V54.1133H347.998V55.6367H349.334ZM353.178 62.1289C351.443 62.1289 350.271 60.8281 350.271 58.8477C350.271 56.8672 351.443 55.5547 353.178 55.5547C354.9 55.5547 356.061 56.8672 356.061 58.8477C356.061 60.8281 354.9 62.1289 353.178 62.1289ZM353.178 61.2383C354.455 61.2383 355.053 60.1133 355.053 58.8477C355.053 57.582 354.455 56.4453 353.178 56.4453C351.877 56.4453 351.279 57.582 351.279 58.8477C351.279 60.1133 351.877 61.2383 353.178 61.2383ZM358.393 58.1797V62H357.385V55.6367H358.357V56.6328H358.439C358.744 55.9883 359.33 55.5547 360.303 55.5547C361.592 55.5547 362.447 56.3398 362.447 57.957V62H361.439V58.0273C361.439 57.043 360.9 56.457 359.998 56.457C359.072 56.457 358.393 57.0781 358.393 58.1797ZM367.205 62V53.5156H372.35V54.4531H368.26V57.2891H372.08V58.2148H368.26V61.0625H372.408V62H367.205ZM374.529 64.3906C374.307 64.3906 374.096 64.3789 373.967 64.3672V63.4648C374.072 63.4766 374.307 63.4883 374.459 63.4883C374.869 63.4883 375.209 63.4531 375.549 62.5273L375.736 62.0469L373.381 55.6367H374.482L376.217 60.6875H376.287L378.021 55.6367H379.123L376.428 62.9141C376.053 63.9102 375.432 64.3906 374.529 64.3906ZM382.674 62.1289C380.834 62.1289 379.697 60.8281 379.697 58.8711C379.697 56.9141 380.846 55.5547 382.58 55.5547C383.916 55.5547 385.322 56.375 385.322 58.7305V59.1523H380.705C380.752 60.5 381.537 61.2383 382.674 61.2383C383.436 61.2383 383.916 60.9102 384.15 60.5117H385.229C384.924 61.4727 383.986 62.1289 382.674 62.1289ZM380.717 58.2969H384.303C384.303 57.2305 383.623 56.4453 382.58 56.4453C381.479 56.4453 380.775 57.3125 380.717 58.2969Z" fill="var(--sol-element-quaternary)"/>
</g>
</g>
<path d="M-8 30.5H408C409.933 30.5 411.5 32.067 411.5 34V192C411.5 193.933 409.933 195.5 408 195.5H-8C-9.93299 195.5 -11.5 193.933 -11.5 192V34C-11.5 32.067 -9.933 30.5 -8 30.5Z" stroke="var(--sol-border-solid-variant)"/>
</g>
</g>
<defs>
<filter id="filter0_d_1669_178824" x="-14" y="30" width="428" height="170" filterUnits="userSpaceOnUse" color-interpolation-filters="sRGB">
<feFlood flood-opacity="0" result="BackgroundImageFix"/>
<feColorMatrix in="SourceAlpha" type="matrix" values="0 0 0 0 0 0 0 0 0 0 0 0 0 0 0 0 0 0 127 0" result="hardAlpha"/>
<feOffset dy="2"/>
<feGaussianBlur stdDeviation="1"/>
<feComposite in2="hardAlpha" operator="out"/>
<feColorMatrix type="matrix" values="0 0 0 0 0 0 0 0 0 0 0 0 0 0 0 0 0 0 0.04 0"/>
<feBlend mode="normal" in2="BackgroundImageFix" result="effect1_dropShadow_1669_178824"/>
<feBlend mode="normal" in="SourceGraphic" in2="effect1_dropShadow_1669_178824" result="shape"/>
</filter>
<clipPath id="clip0_1669_178824">
<path d="M0 8C0 3.58172 3.58172 0 8 0H434C438.418 0 442 3.58172 442 8V122C442 126.418 438.418 130 434 130H8C3.58172 130 0 126.418 0 122V8Z" fill="var(--sol-surface)"/>
</clipPath>
<clipPath id="clip1_1669_178824">
<path d="M-12 34C-12 31.7909 -10.2091 30 -8 30H408C410.209 30 412 31.7909 412 34V192C412 194.209 410.209 196 408 196H-7.99999C-10.2091 196 -12 194.209 -12 192V34Z" fill="var(--sol-surface)"/>
</clipPath>
<clipPath id="clip2_1669_178824">
<path d="M65 58C65 51.3726 70.3726 46 77 46H88C94.6274 46 100 51.3726 100 58C100 64.6274 94.6274 70 88 70H77C70.3726 70 65 64.6274 65 58Z" fill="var(--sol-surface)"/>
</clipPath>
<clipPath id="clip3_1669_178824">
<path d="M106 58C106 51.3726 111.373 46 118 46H135C141.627 46 147 51.3726 147 58C147 64.6274 141.627 70 135 70H118C111.373 70 106 64.6274 106 58Z" fill="var(--sol-surface)"/>
</clipPath>
<clipPath id="clip4_1669_178824">
<path d="M153 58C153 51.3726 158.373 46 165 46H209C215.627 46 221 51.3726 221 58C221 64.6274 215.627 70 209 70H165C158.373 70 153 64.6274 153 58Z" fill="var(--sol-surface)"/>
</clipPath>
<clipPath id="clip5_1669_178824">
<path d="M227 58C227 51.3726 232.373 46 239 46H291C297.627 46 303 51.3726 303 58C303 64.6274 297.627 70 291 70H239C232.373 70 227 64.6274 227 58Z" fill="var(--sol-surface)"/>
</clipPath>
<clipPath id="clip6_1669_178824">
<path d="M311 58C311 51.3726 316.373 46 323 46H384C390.627 46 396 51.3726 396 58C396 64.6274 390.627 70 384 70H323C316.373 70 311 64.6274 311 58Z" fill="var(--sol-surface)"/>
</clipPath>
</defs>
</svg>
