<svg width="900" height="254" viewBox="0 0 900 254" fill="none" xmlns="http://www.w3.org/2000/svg">
<style>
:root {
  --sol-element-primary: #161616;
  --sol-element-tertiary: #636363;
  --sol-element-quaternary: #858585;
  --sol-element-brand-variant: #3a3480;
  --sol-fill-active: #4d469a;
  --sol-secondary-container: #e8e6f8;
  --sol-surface: #ffffff;
  --sol-border-solid-variant: #e0e0e0;
  --sol-error-dim: #b84451;
  --sol-static-white: #ffffff;
  --sol-static-black: #000000;
}
@media (prefers-color-scheme: dark) {
  :root {
    --sol-element-primary: #ffffff;
    --sol-element-tertiary: rgba(255, 255, 255, 0.60);
    --sol-element-quaternary: rgba(255, 255, 255, 0.5);
    --sol-element-brand-variant: #ffffff;
    --sol-fill-active: #7b74c4;
    --sol-secondary-container: rgba(255, 255, 255, 0.16);
    --sol-surface: #161616;
    --sol-border-solid-variant: #3d3d3d;
    --sol-error-dim: #e76067;
  }
}
</style>

<g clip-path="url(#clip0_1669_178109)">
<path d="M398 134C398 125.163 405.163 118 414 118H486C494.837 118 502 125.163 502 134C502 142.837 494.837 150 486 150H414C405.163 150 398 142.837 398 134Z" fill="var(--sol-fill-active)"/>
<path d="M413.273 128.688V140H411.273V128.688H413.273ZM414.789 137.609C414.789 135.703 416.367 135.141 417.945 135.047C418.531 135.008 419.75 134.938 420.117 134.922V134.25C420.117 133.406 419.57 132.922 418.586 132.922C417.695 132.922 417.148 133.328 416.992 133.938H415.07C415.211 132.5 416.508 131.406 418.633 131.406C420.242 131.406 422.102 132.062 422.102 134.328V140H420.195V138.828H420.133C419.758 139.547 418.961 140.172 417.633 140.172C416.008 140.172 414.789 139.281 414.789 137.609ZM416.711 137.594C416.711 138.328 417.305 138.703 418.148 138.703C419.352 138.703 420.133 137.906 420.133 136.953V136.25L418.258 136.375C417.305 136.453 416.711 136.844 416.711 137.594ZM424.07 140V128.688H426.07V132.906H426.148C426.461 132.297 427.07 131.406 428.57 131.406C430.539 131.406 432.086 132.938 432.086 135.766C432.086 138.562 430.57 140.156 428.586 140.156C427.117 140.156 426.461 139.281 426.148 138.656H426.023V140H424.07ZM426.023 135.75C426.023 137.406 426.742 138.516 428.023 138.516C429.352 138.516 430.055 137.359 430.055 135.75C430.055 134.172 429.367 133.031 428.023 133.031C426.742 133.031 426.023 134.109 426.023 135.75ZM437.414 140.172C434.852 140.172 433.289 138.469 433.289 135.812C433.289 133.188 434.883 131.406 437.305 131.406C439.383 131.406 441.18 132.703 441.18 135.688V136.312H435.258C435.281 137.758 436.133 138.609 437.43 138.609C438.305 138.609 438.898 138.234 439.148 137.734H441.102C440.742 139.203 439.383 140.172 437.414 140.172ZM435.273 134.953H439.273C439.258 133.797 438.492 132.953 437.336 132.953C436.133 132.953 435.336 133.867 435.273 134.953ZM444.727 128.688V140H442.727V128.688H444.727Z" fill="var(--sol-surface)"/>
<path d="M450 128C450 126.895 450.895 126 452 126H464C465.105 126 466 126.895 466 128V140C466 141.105 465.105 142 464 142H452C450.895 142 450 141.105 450 140V128Z" fill="var(--sol-secondary-container)"/>
<path d="M459.395 129.516V138H457.859V131.004H457.812L455.832 132.27V130.875L457.93 129.516H459.395Z" fill="var(--sol-element-brand-variant)"/>
<path d="M485.442 131.942L480.442 136.942C480.198 137.186 479.803 137.186 479.559 136.942L474.559 131.942L475.442 131.059L480 135.617L484.559 131.059L485.442 131.942Z" fill="var(--sol-surface)"/>
</g>
<rect x="406" y="70" width="28" height="28" rx="14" fill="var(--sol-element-primary)"/>
<path d="M421.859 78.6875V90H419.812V80.6719H419.75L417.109 82.3594V80.5L419.906 78.6875H421.859Z" fill="var(--sol-surface)"/>
<path d="M419.5 98H420.5V120.5C420.5 120.776 420.276 121 420 121C419.724 121 419.5 120.776 419.5 120.5V98Z" fill="var(--sol-element-primary)"/>
<circle cx="420" cy="119" r="2" fill="var(--sol-element-primary)"/>
<rect x="449" y="70" width="28" height="28" rx="14" fill="var(--sol-element-primary)"/>
<path d="M462.992 90.1562C460.57 90.1562 458.852 88.8438 458.805 86.9375H460.852C460.914 87.8438 461.82 88.4375 462.992 88.4375C464.242 88.4375 465.133 87.75 465.133 86.75C465.133 85.7344 464.258 85 462.789 85H461.773V83.4375H462.789C463.992 83.4375 464.836 82.7656 464.82 81.7812C464.836 80.8281 464.117 80.1875 463.008 80.1875C461.945 80.1875 461.023 80.7812 460.992 81.7344H459.039C459.086 79.8281 460.805 78.5312 463.023 78.5312C465.32 78.5312 466.805 79.9375 466.789 81.6719C466.805 82.9375 465.961 83.8594 464.727 84.1094V84.2031C466.32 84.4219 467.227 85.4375 467.211 86.8594C467.227 88.7656 465.445 90.1562 462.992 90.1562Z" fill="var(--sol-surface)"/>
<path d="M462.5 98H463.5V122.5C463.5 122.776 463.276 123 463 123C462.724 123 462.5 122.776 462.5 122.5V98Z" fill="var(--sol-element-primary)"/>
<circle cx="463" cy="121" r="2" fill="var(--sol-element-primary)"/>
<path d="M493 133C493 132.724 493.224 132.5 493.5 132.5H529V133.5H493.5C493.224 133.5 493 133.276 493 133Z" fill="var(--sol-element-primary)"/>
<rect x="529" y="119" width="28" height="28" rx="14" fill="var(--sol-element-primary)"/>
<path d="M538.57 136.891V135.266L543.461 127.688H545.992V135.219H547.477V136.891H545.992V139H544.055V136.891H538.57ZM540.648 135.219H544.086V130H543.961L540.648 135.141V135.219Z" fill="var(--sol-surface)"/>
<circle cx="495" cy="133" r="2" fill="var(--sol-element-primary)"/>
<rect x="343" y="120" width="28" height="28" rx="14" fill="var(--sol-element-primary)"/>
<path d="M353.117 140V138.531L357.117 134.672C358.258 133.531 358.852 132.859 358.852 131.906C358.852 130.859 358.023 130.188 356.914 130.188C355.742 130.188 354.992 130.922 355.008 132.062H353.07C353.055 129.922 354.664 128.531 356.93 128.531C359.242 128.531 360.805 129.906 360.805 131.812C360.805 133.094 360.18 134.125 357.961 136.219L355.945 138.219V138.297H360.977V140H353.117Z" fill="var(--sol-surface)"/>
<path d="M371 133.5H405.5C405.776 133.5 406 133.724 406 134C406 134.276 405.776 134.5 405.5 134.5H371V133.5Z" fill="var(--sol-element-primary)"/>
<circle cx="404" cy="134" r="2" fill="var(--sol-element-primary)"/>
<defs>
<clipPath id="clip0_1669_178109">
<path d="M398 134C398 125.163 405.163 118 414 118H486C494.837 118 502 125.163 502 134C502 142.837 494.837 150 486 150H414C405.163 150 398 142.837 398 134Z" fill="var(--sol-surface)"/>
</clipPath>
</defs>
</svg>
