<svg width="442" height="130" viewBox="0 0 442 130" fill="none" xmlns="http://www.w3.org/2000/svg">
<style>
:root {
  --sol-element-primary: #161616;
  --sol-element-tertiary: #636363;
  --sol-element-quaternary: #858585;
  --sol-element-brand-variant: #3a3480;
  --sol-fill-active: #4d469a;
  --sol-secondary-container: #e8e6f8;
  --sol-surface: #ffffff;
  --sol-border-solid-variant: #e0e0e0;
  --sol-error-dim: #b84451;
  --sol-static-white: #ffffff;
  --sol-static-black: #000000;
}
@media (prefers-color-scheme: dark) {
  :root {
    --sol-element-primary: #ffffff;
    --sol-element-tertiary: rgba(255, 255, 255, 0.60);
    --sol-element-quaternary: rgba(255, 255, 255, 0.5);
    --sol-element-brand-variant: #ffffff;
    --sol-fill-active: #7b74c4;
    --sol-secondary-container: rgba(255, 255, 255, 0.16);
    --sol-surface: #161616;
    --sol-border-solid-variant: #3d3d3d;
    --sol-error-dim: #e76067;
  }
}
</style>

<g clip-path="url(#clip0_1669_178852)">
<path d="M133.5 65C133.5 58.3726 138.873 53 145.5 53H166.5C173.127 53 178.5 58.3726 178.5 65C178.5 71.6274 173.127 77 166.5 77H145.5C138.873 77 133.5 71.6274 133.5 65Z" fill="var(--sol-surface)"/>
<path d="M145.5 53.5H166.5C172.851 53.5 178 58.6487 178 65C178 71.3513 172.851 76.5 166.5 76.5H145.5C139.149 76.5 134 71.3513 134 65C134 58.6487 139.149 53.5 145.5 53.5Z" stroke="var(--sol-element-primary)" stroke-opacity="0.16"/>
<path d="M146.689 69V60.5156H151.834V61.4531H147.744V64.2891H151.564V65.2148H147.744V68.0625H151.893V69H146.689ZM158.127 62.6484C158.033 61.8164 157.271 61.3359 156.252 61.3359C155.127 61.3359 154.389 61.9219 154.389 62.7305C154.389 63.6211 155.385 63.9492 156.029 64.1133L156.873 64.3477C157.787 64.582 159.275 65.1094 159.275 66.6914C159.275 68.0742 158.162 69.1523 156.193 69.1523C154.365 69.1523 153.229 68.2031 153.135 66.7969H154.213C154.307 67.7461 155.186 68.1914 156.193 68.1914C157.365 68.1914 158.244 67.5938 158.244 66.668C158.244 65.8477 157.459 65.5312 156.568 65.2734L155.525 64.9922C154.189 64.6055 153.369 63.9258 153.369 62.7773C153.369 61.3477 154.646 60.3984 156.287 60.3984C157.928 60.3984 159.111 61.3594 159.158 62.6484H158.127ZM160.787 69V60.5156H161.842V68.0625H165.779V69H160.787Z" fill="var(--sol-element-quaternary)"/>
</g>
<g clip-path="url(#clip1_1669_178852)">
<path d="M184.5 65C184.5 58.3726 189.873 53 196.5 53H228.5C235.127 53 240.5 58.3726 240.5 65C240.5 71.6274 235.127 77 228.5 77H196.5C189.873 77 184.5 71.6274 184.5 65Z" fill="var(--sol-fill-active)"/>
<path d="M196.744 69H195.115L198.104 60.5156H199.979L202.979 69H201.35L200.646 66.9023H197.447L196.744 69ZM197.857 65.6719H200.236L199.076 62.25H199.006L197.857 65.6719ZM206.506 69.1289C204.607 69.1289 203.459 67.7695 203.459 65.8477C203.459 63.9023 204.643 62.5547 206.506 62.5547C208.053 62.5547 209.131 63.457 209.236 64.8281H207.807C207.689 64.2188 207.244 63.75 206.518 63.75C205.592 63.75 204.971 64.5352 204.971 65.8125C204.971 67.125 205.58 67.9102 206.518 67.9102C207.186 67.9102 207.678 67.5234 207.807 66.832H209.236C209.119 68.1797 208.1 69.1289 206.506 69.1289ZM213.537 62.6367V63.7852H212.283V67.0898C212.283 67.6992 212.588 67.8281 212.963 67.8281C213.139 67.8281 213.432 67.8164 213.619 67.8047V69.0234C213.443 69.0586 213.15 69.082 212.775 69.082C211.65 69.082 210.783 68.5312 210.795 67.3359V63.7852H209.881V62.6367H210.795V61.1133H212.283V62.6367H213.537ZM214.686 69V62.6367H216.186V69H214.686ZM215.447 61.7344C214.979 61.7344 214.58 61.3711 214.58 60.9141C214.58 60.4688 214.979 60.1055 215.447 60.1055C215.928 60.1055 216.314 60.4688 216.314 60.9141C216.314 61.3711 215.928 61.7344 215.447 61.7344ZM223.299 62.6367L221.025 69H219.385L217.111 62.6367H218.705L220.17 67.3711H220.24L221.717 62.6367H223.299ZM226.85 69.1289C224.928 69.1289 223.756 67.8516 223.756 65.8594C223.756 63.8906 224.951 62.5547 226.768 62.5547C228.326 62.5547 229.674 63.5273 229.674 65.7656V66.2344H225.232C225.25 67.3184 225.889 67.957 226.861 67.957C227.518 67.957 227.963 67.6758 228.15 67.3008H229.615C229.346 68.4023 228.326 69.1289 226.85 69.1289ZM225.244 65.2148H228.244C228.232 64.3477 227.658 63.7148 226.791 63.7148C225.889 63.7148 225.291 64.4004 225.244 65.2148Z" fill="var(--sol-surface)"/>
</g>
<g clip-path="url(#clip2_1669_178852)">
<path d="M246.5 65C246.5 58.3726 251.873 53 258.5 53H296.5C303.127 53 308.5 58.3726 308.5 65C308.5 71.6274 303.127 77 296.5 77H258.5C251.873 77 246.5 71.6274 246.5 65Z" fill="var(--sol-surface)"/>
<path d="M258.5 53.5H296.5C302.851 53.5 308 58.6487 308 65C308 71.3513 302.851 76.5 296.5 76.5H258.5C252.149 76.5 247 71.3513 247 65C247 58.6487 252.149 53.5 258.5 53.5Z" stroke="var(--sol-element-primary)" stroke-opacity="0.16"/>
<path d="M258.58 60.5156V69H257.525V60.5156H258.58ZM261.334 65.1797V69H260.326V62.6367H261.299V63.6328H261.381C261.686 62.9883 262.271 62.5547 263.244 62.5547C264.533 62.5547 265.389 63.3398 265.389 64.957V69H264.381V65.0273C264.381 64.043 263.842 63.457 262.939 63.457C262.014 63.457 261.334 64.0781 261.334 65.1797ZM266.701 67.1953C266.701 65.7305 267.99 65.4023 269.092 65.3203C269.496 65.291 270.527 65.2383 270.814 65.2266V64.7109C270.814 63.9023 270.334 63.4336 269.373 63.4336C268.564 63.4336 268.084 63.8086 267.943 64.2891H266.889C267.018 63.2695 268.014 62.5547 269.42 62.5547C270.252 62.5547 271.811 62.8008 271.811 64.8047V69H270.814V68.1328H270.768C270.557 68.5664 269.971 69.1523 268.869 69.1523C267.662 69.1523 266.701 68.4375 266.701 67.1953ZM267.709 67.2422C267.709 67.9102 268.271 68.25 269.045 68.25C270.182 68.25 270.814 67.4883 270.814 66.6914V66.0469L269.209 66.1641C268.295 66.2227 267.709 66.5508 267.709 67.2422ZM276.029 69.1289C274.225 69.1289 273.123 67.7578 273.123 65.8477C273.123 63.9141 274.271 62.5547 276.006 62.5547C277.365 62.5547 278.373 63.3516 278.537 64.5586H277.529C277.389 63.9727 276.873 63.4453 276.029 63.4453C274.893 63.4453 274.131 64.3828 274.131 65.8125C274.131 67.2891 274.869 68.2266 276.029 68.2266C276.779 68.2266 277.354 67.8281 277.529 67.125H278.537C278.373 68.2617 277.447 69.1289 276.029 69.1289ZM282.557 62.6367V63.4805H281.221V67.1719C281.221 67.9922 281.619 68.1211 282.053 68.1211C282.24 68.1211 282.498 68.1094 282.65 68.0977V69.0352C282.498 69.0586 282.24 69.082 281.947 69.082C281.104 69.082 280.201 68.5547 280.201 67.4297V63.4805H279.24V62.6367H280.201V61.1133H281.221V62.6367H282.557ZM283.857 69V62.6367H284.865V69H283.857ZM284.361 61.582C283.975 61.582 283.658 61.2891 283.658 60.9141C283.658 60.5391 283.975 60.2461 284.361 60.2461C284.748 60.2461 285.076 60.5391 285.076 60.9141C285.076 61.2891 284.748 61.582 284.361 61.582ZM291.709 62.6367L289.354 69H288.311L285.967 62.6367H287.068L288.803 67.6875H288.873L290.607 62.6367H291.709ZM295.26 69.1289C293.42 69.1289 292.283 67.8281 292.283 65.8711C292.283 63.9141 293.432 62.5547 295.166 62.5547C296.502 62.5547 297.908 63.375 297.908 65.7305V66.1523H293.291C293.338 67.5 294.123 68.2383 295.26 68.2383C296.021 68.2383 296.502 67.9102 296.736 67.5117H297.814C297.51 68.4727 296.572 69.1289 295.26 69.1289ZM293.303 65.2969H296.889C296.889 64.2305 296.209 63.4453 295.166 63.4453C294.064 63.4453 293.361 64.3125 293.303 65.2969Z" fill="var(--sol-element-quaternary)"/>
</g>
<defs>
<clipPath id="clip0_1669_178852">
<path d="M133.5 65C133.5 58.3726 138.873 53 145.5 53H166.5C173.127 53 178.5 58.3726 178.5 65C178.5 71.6274 173.127 77 166.5 77H145.5C138.873 77 133.5 71.6274 133.5 65Z" fill="var(--sol-surface)"/>
</clipPath>
<clipPath id="clip1_1669_178852">
<path d="M184.5 65C184.5 58.3726 189.873 53 196.5 53H228.5C235.127 53 240.5 58.3726 240.5 65C240.5 71.6274 235.127 77 228.5 77H196.5C189.873 77 184.5 71.6274 184.5 65Z" fill="var(--sol-surface)"/>
</clipPath>
<clipPath id="clip2_1669_178852">
<path d="M246.5 65C246.5 58.3726 251.873 53 258.5 53H296.5C303.127 53 308.5 58.3726 308.5 65C308.5 71.6274 303.127 77 296.5 77H258.5C251.873 77 246.5 71.6274 246.5 65Z" fill="var(--sol-surface)"/>
</clipPath>
</defs>
</svg>
