<svg width="442" height="130" viewBox="0 0 442 130" fill="none" xmlns="http://www.w3.org/2000/svg">
<style>
:root {
  --sol-element-primary: #161616;
  --sol-element-tertiary: #636363;
  --sol-element-quaternary: #858585;
  --sol-element-brand-variant: #3a3480;
  --sol-fill-active: #4d469a;
  --sol-secondary-container: #e8e6f8;
  --sol-surface: #ffffff;
  --sol-border-solid-variant: #e0e0e0;
  --sol-error-dim: #b84451;
  --sol-static-white: #ffffff;
  --sol-static-black: #000000;
}
@media (prefers-color-scheme: dark) {
  :root {
    --sol-element-primary: #ffffff;
    --sol-element-tertiary: rgba(255, 255, 255, 0.60);
    --sol-element-quaternary: rgba(255, 255, 255, 0.5);
    --sol-element-brand-variant: #ffffff;
    --sol-fill-active: #7b74c4;
    --sol-secondary-container: rgba(255, 255, 255, 0.16);
    --sol-surface: #161616;
    --sol-border-solid-variant: #3d3d3d;
    --sol-error-dim: #e76067;
  }
}
</style>

<g clip-path="url(#clip0_1669_178812)">
<g filter="url(#filter0_d_1669_178812)">
<g clip-path="url(#clip1_1669_178812)">
<path d="M-12 34C-12 31.7909 -10.2091 30 -8 30H408C410.209 30 412 31.7909 412 34V192C412 194.209 410.209 196 408 196H-7.99999C-10.2091 196 -12 194.209 -12 192V34Z" fill="var(--sol-surface)"/>
<g clip-path="url(#clip2_1669_178812)">
<path opacity="0.3" d="M18.1133 65H13.3086V50.8594H18.1914C22.4102 50.8594 24.9688 53.5156 24.9688 57.9102C24.9688 62.3242 22.4102 65 18.1133 65ZM15.8477 62.793H17.9766C20.9258 62.793 22.4297 61.1719 22.4297 57.9102C22.4297 54.668 20.9258 53.0664 18.0547 53.0664H15.8477V62.793ZM31.8047 65.2148C28.6016 65.2148 26.6484 63.0859 26.6484 59.7656C26.6484 56.4844 28.6406 54.2578 31.668 54.2578C34.2656 54.2578 36.5117 55.8789 36.5117 59.6094V60.3906H29.1094C29.1387 62.1973 30.2031 63.2617 31.8242 63.2617C32.918 63.2617 33.6602 62.793 33.9727 62.168H36.4141C35.9648 64.0039 34.2656 65.2148 31.8047 65.2148ZM29.1289 58.6914H34.1289C34.1094 57.2461 33.1523 56.1914 31.707 56.1914C30.2031 56.1914 29.207 57.334 29.1289 58.6914ZM47.6055 54.3945L43.8164 65H41.082L37.293 54.3945H39.9492L42.3906 62.2852H42.5078L44.9688 54.3945H47.6055ZM49.168 65V54.3945H51.668V65H49.168ZM50.4375 52.8906C49.6562 52.8906 48.9922 52.2852 48.9922 51.5234C48.9922 50.7812 49.6562 50.1758 50.4375 50.1758C51.2383 50.1758 51.8828 50.7812 51.8828 51.5234C51.8828 52.2852 51.2383 52.8906 50.4375 52.8906ZM58.6797 65.2148C55.5156 65.2148 53.6016 62.9492 53.6016 59.7461C53.6016 56.5039 55.5742 54.2578 58.6797 54.2578C61.2578 54.2578 63.0547 55.7617 63.2305 58.0469H60.8477C60.6523 57.0312 59.9102 56.25 58.6992 56.25C57.1562 56.25 56.1211 57.5586 56.1211 59.6875C56.1211 61.875 57.1367 63.1836 58.6992 63.1836C59.8125 63.1836 60.6328 62.5391 60.8477 61.3867H63.2305C63.0352 63.6328 61.3359 65.2148 58.6797 65.2148ZM69.8125 65.2148C66.6094 65.2148 64.6562 63.0859 64.6562 59.7656C64.6562 56.4844 66.6484 54.2578 69.6758 54.2578C72.2734 54.2578 74.5195 55.8789 74.5195 59.6094V60.3906H67.1172C67.1465 62.1973 68.2109 63.2617 69.832 63.2617C70.9258 63.2617 71.668 62.793 71.9805 62.168H74.4219C73.9727 64.0039 72.2734 65.2148 69.8125 65.2148ZM67.1367 58.6914H72.1367C72.1172 57.2461 71.1602 56.1914 69.7148 56.1914C68.2109 56.1914 67.2148 57.334 67.1367 58.6914ZM82.4688 57.4219C82.3125 56.6211 81.6484 56.1133 80.5938 56.1133C79.5195 56.1133 78.7383 56.6406 78.7578 57.3633C78.7383 57.9102 79.1875 58.3203 80.2617 58.5742L82.0586 58.9453C84.0703 59.3945 85.0273 60.3125 85.0469 61.8359C85.0273 63.8281 83.2891 65.2148 80.5156 65.2148C77.8203 65.2148 76.2188 64.0039 75.9648 61.9727H78.5039C78.6602 62.8711 79.3633 63.3203 80.5156 63.3203C81.707 63.3203 82.5078 62.832 82.5078 62.0508C82.5078 61.4453 82.0195 61.0547 80.9648 60.8203L79.2656 60.4492C77.293 60.0586 76.2773 59.0234 76.2773 57.5C76.2773 55.5469 77.957 54.2578 80.5547 54.2578C83.0938 54.2578 84.6562 55.4883 84.832 57.4219H82.4688Z" fill="var(--sol-element-primary)"/>
<g clip-path="url(#clip3_1669_178812)">
<path d="M158 58C158 51.3726 163.373 46 170 46H181C187.627 46 193 51.3726 193 58C193 64.6274 187.627 70 181 70H170C163.373 70 158 64.6274 158 58Z" fill="var(--sol-fill-active)"/>
<path d="M170.273 62H168.645L171.633 53.5156H173.508L176.508 62H174.879L174.176 59.9023H170.977L170.273 62ZM171.387 58.6719H173.766L172.605 55.25H172.535L171.387 58.6719ZM178.945 53.5156V62H177.445V53.5156H178.945ZM181.875 53.5156V62H180.375V53.5156H181.875Z" fill="var(--sol-surface)"/>
</g>
<g clip-path="url(#clip4_1669_178812)">
<path d="M199 58C199 51.3726 204.373 46 211 46H228C234.627 46 240 51.3726 240 58C240 64.6274 234.627 70 228 70H211C204.373 70 199 64.6274 199 58Z" fill="var(--sol-surface)"/>
<path d="M211 46.5H228C234.351 46.5 239.5 51.6487 239.5 58C239.5 64.3513 234.351 69.5 228 69.5H211C204.649 69.5 199.5 64.3513 199.5 58C199.5 51.6487 204.649 46.5 211 46.5Z" stroke="var(--sol-element-primary)" stroke-opacity="0.16"/>
<path d="M210.189 62V53.5156H215.334V54.4531H211.244V57.2891H215.064V58.2148H211.244V61.0625H215.393V62H210.189ZM221.627 55.6484C221.533 54.8164 220.771 54.3359 219.752 54.3359C218.627 54.3359 217.889 54.9219 217.889 55.7305C217.889 56.6211 218.885 56.9492 219.529 57.1133L220.373 57.3477C221.287 57.582 222.775 58.1094 222.775 59.6914C222.775 61.0742 221.662 62.1523 219.693 62.1523C217.865 62.1523 216.729 61.2031 216.635 59.7969H217.713C217.807 60.7461 218.686 61.1914 219.693 61.1914C220.865 61.1914 221.744 60.5938 221.744 59.668C221.744 58.8477 220.959 58.5312 220.068 58.2734L219.025 57.9922C217.689 57.6055 216.869 56.9258 216.869 55.7773C216.869 54.3477 218.146 53.3984 219.787 53.3984C221.428 53.3984 222.611 54.3594 222.658 55.6484H221.627ZM224.287 62V53.5156H225.342V61.0625H229.279V62H224.287Z" fill="var(--sol-element-quaternary)"/>
</g>
<g clip-path="url(#clip5_1669_178812)">
<path d="M246 58C246 51.3726 251.373 46 258 46H302C308.627 46 314 51.3726 314 58C314 64.6274 308.627 70 302 70H258C251.373 70 246 64.6274 246 58Z" fill="var(--sol-surface)"/>
<path d="M258 46.5H302C308.351 46.5 313.5 51.6487 313.5 58C313.5 64.3513 308.351 69.5 302 69.5H258C251.649 69.5 246.5 64.3513 246.5 58C246.5 51.6487 251.649 46.5 258 46.5Z" stroke="var(--sol-element-primary)" stroke-opacity="0.16"/>
<path d="M263.002 56.1641C262.639 55.0742 261.807 54.3828 260.6 54.3828C259.1 54.3828 257.904 55.5664 257.904 57.7578C257.904 59.9492 259.1 61.1328 260.67 61.1328C262.105 61.1328 263.084 60.1719 263.107 58.6719H260.893V57.7461H264.139V58.6602C264.139 60.7695 262.686 62.1172 260.67 62.1172C258.408 62.1172 256.885 60.4414 256.885 57.7578C256.885 55.0742 258.42 53.3984 260.6 53.3984C262.393 53.3984 263.775 54.5234 264.092 56.1641H263.002ZM265.287 60.1953C265.287 58.7305 266.576 58.4023 267.678 58.3203C268.082 58.291 269.113 58.2383 269.4 58.2266V57.7109C269.4 56.9023 268.92 56.4336 267.959 56.4336C267.15 56.4336 266.67 56.8086 266.529 57.2891H265.475C265.604 56.2695 266.6 55.5547 268.006 55.5547C268.838 55.5547 270.396 55.8008 270.396 57.8047V62H269.4V61.1328H269.354C269.143 61.5664 268.557 62.1523 267.455 62.1523C266.248 62.1523 265.287 61.4375 265.287 60.1953ZM266.295 60.2422C266.295 60.9102 266.857 61.25 267.631 61.25C268.768 61.25 269.4 60.4883 269.4 59.6914V59.0469L267.795 59.1641C266.881 59.2227 266.295 59.5508 266.295 60.2422ZM274.791 55.6367V56.4805H273.455V60.1719C273.455 60.9922 273.854 61.1211 274.287 61.1211C274.475 61.1211 274.732 61.1094 274.885 61.0977V62.0352C274.732 62.0586 274.475 62.082 274.182 62.082C273.338 62.082 272.436 61.5547 272.436 60.4297V56.4805H271.475V55.6367H272.436V54.1133H273.455V55.6367H274.791ZM278.705 62.1289C276.865 62.1289 275.729 60.8281 275.729 58.8711C275.729 56.9141 276.877 55.5547 278.611 55.5547C279.947 55.5547 281.354 56.375 281.354 58.7305V59.1523H276.736C276.783 60.5 277.568 61.2383 278.705 61.2383C279.467 61.2383 279.947 60.9102 280.182 60.5117H281.26C280.955 61.4727 280.018 62.1289 278.705 62.1289ZM276.748 58.2969H280.334C280.334 57.2305 279.654 56.4453 278.611 56.4453C277.51 56.4453 276.807 57.3125 276.748 58.2969ZM284.096 62L282.162 55.6367H283.229L284.588 60.4883H284.646L285.994 55.6367H287.072L288.396 60.4648H288.467L289.826 55.6367H290.881L288.947 62H287.951L286.568 57.1484H286.475L285.104 62H284.096ZM291.689 60.1953C291.689 58.7305 292.979 58.4023 294.08 58.3203C294.484 58.291 295.516 58.2383 295.803 58.2266V57.7109C295.803 56.9023 295.322 56.4336 294.361 56.4336C293.553 56.4336 293.072 56.8086 292.932 57.2891H291.877C292.006 56.2695 293.002 55.5547 294.408 55.5547C295.24 55.5547 296.799 55.8008 296.799 57.8047V62H295.803V61.1328H295.756C295.545 61.5664 294.959 62.1523 293.857 62.1523C292.65 62.1523 291.689 61.4375 291.689 60.1953ZM292.697 60.2422C292.697 60.9102 293.26 61.25 294.033 61.25C295.17 61.25 295.803 60.4883 295.803 59.6914V59.0469L294.197 59.1641C293.283 59.2227 292.697 59.5508 292.697 60.2422ZM298.826 64.3906C298.604 64.3906 298.393 64.3789 298.264 64.3672V63.4648C298.369 63.4766 298.604 63.4883 298.756 63.4883C299.166 63.4883 299.506 63.4531 299.846 62.5273L300.033 62.0469L297.678 55.6367H298.779L300.514 60.6875H300.584L302.318 55.6367H303.42L300.725 62.9141C300.35 63.9102 299.729 64.3906 298.826 64.3906Z" fill="var(--sol-element-quaternary)"/>
</g>
<g clip-path="url(#clip6_1669_178812)">
<path d="M320 58C320 51.3726 325.373 46 332 46H384C390.627 46 396 51.3726 396 58C396 64.6274 390.627 70 384 70H332C325.373 70 320 64.6274 320 58Z" fill="var(--sol-surface)"/>
<path d="M332 46.5H384C390.351 46.5 395.5 51.6487 395.5 58C395.5 64.3513 390.351 69.5 384 69.5H332C325.649 69.5 320.5 64.3513 320.5 58C320.5 51.6487 325.649 46.5 332 46.5Z" stroke="var(--sol-element-primary)" stroke-opacity="0.16"/>
<path d="M331.088 62V53.5156H333.971C335.963 53.5156 336.865 54.6992 336.865 56.2109C336.865 57.7109 335.963 58.918 333.982 58.918H332.143V62H331.088ZM332.143 57.9805H333.936C335.283 57.9805 335.822 57.2188 335.822 56.2109C335.822 55.1914 335.283 54.4531 333.924 54.4531H332.143V57.9805ZM340.756 62.1289C339.021 62.1289 337.85 60.8281 337.85 58.8477C337.85 56.8672 339.021 55.5547 340.756 55.5547C342.479 55.5547 343.639 56.8672 343.639 58.8477C343.639 60.8281 342.479 62.1289 340.756 62.1289ZM340.756 61.2383C342.033 61.2383 342.631 60.1133 342.631 58.8477C342.631 57.582 342.033 56.4453 340.756 56.4453C339.455 56.4453 338.857 57.582 338.857 58.8477C338.857 60.1133 339.455 61.2383 340.756 61.2383ZM346.182 62L344.248 55.6367H345.314L346.674 60.4883H346.732L348.08 55.6367H349.158L350.482 60.4648H350.553L351.912 55.6367H352.967L351.033 62H350.037L348.654 57.1484H348.561L347.189 62H346.182ZM356.541 62.1289C354.701 62.1289 353.564 60.8281 353.564 58.8711C353.564 56.9141 354.713 55.5547 356.447 55.5547C357.783 55.5547 359.189 56.375 359.189 58.7305V59.1523H354.572C354.619 60.5 355.404 61.2383 356.541 61.2383C357.303 61.2383 357.783 60.9102 358.018 60.5117H359.096C358.791 61.4727 357.854 62.1289 356.541 62.1289ZM354.584 58.2969H358.17C358.17 57.2305 357.49 56.4453 356.447 56.4453C355.346 56.4453 354.643 57.3125 354.584 58.2969ZM360.502 62V55.6367H361.475V56.6094H361.545C361.779 55.9648 362.436 55.5312 363.186 55.5312C363.338 55.5312 363.596 55.543 363.713 55.5547V56.5742C363.643 56.5508 363.361 56.5039 363.104 56.5039C362.189 56.5039 361.51 57.1367 361.51 57.9922V62H360.502ZM367.838 62V53.5156H370.721C372.713 53.5156 373.615 54.6172 373.615 56.1289C373.615 57.248 373.111 58.1328 372.033 58.5078L373.943 62H372.713L370.943 58.6953L370.732 58.707H368.893V62H367.838ZM368.893 57.7461H370.686C372.033 57.7461 372.572 57.1367 372.572 56.1289C372.572 55.1094 372.033 54.4531 370.674 54.4531H368.893V57.7461ZM374.705 60.1953C374.705 58.7305 375.994 58.4023 377.096 58.3203C377.5 58.291 378.531 58.2383 378.818 58.2266V57.7109C378.818 56.9023 378.338 56.4336 377.377 56.4336C376.568 56.4336 376.088 56.8086 375.947 57.2891H374.893C375.021 56.2695 376.018 55.5547 377.424 55.5547C378.256 55.5547 379.814 55.8008 379.814 57.8047V62H378.818V61.1328H378.771C378.561 61.5664 377.975 62.1523 376.873 62.1523C375.666 62.1523 374.705 61.4375 374.705 60.1953ZM375.713 60.2422C375.713 60.9102 376.275 61.25 377.049 61.25C378.186 61.25 378.818 60.4883 378.818 59.6914V59.0469L377.213 59.1641C376.299 59.2227 375.713 59.5508 375.713 60.2422ZM381.432 62V55.6367H382.439V62H381.432ZM381.936 54.582C381.549 54.582 381.232 54.2891 381.232 53.9141C381.232 53.5391 381.549 53.2461 381.936 53.2461C382.322 53.2461 382.65 53.5391 382.65 53.9141C382.65 54.2891 382.322 54.582 381.936 54.582ZM385.053 53.5156V62H384.045V53.5156H385.053Z" fill="var(--sol-element-quaternary)"/>
</g>
<rect width="56" height="88" transform="matrix(0 -1 1 0 324 86)" fill="url(#paint0_linear_1669_178812)"/>
<path d="M387.53 57.4688C387.823 57.7616 387.823 58.2364 387.53 58.5293L381.53 64.5293L380.47 63.4688L385.939 57.999L380.47 52.5293L381.53 51.4688L387.53 57.4688Z" fill="var(--sol-element-primary)"/>
</g>
</g>
<path d="M-8 30.5H408C409.933 30.5 411.5 32.067 411.5 34V192C411.5 193.933 409.933 195.5 408 195.5H-8C-9.93299 195.5 -11.5 193.933 -11.5 192V34C-11.5 32.067 -9.933 30.5 -8 30.5Z" stroke="var(--sol-border-solid-variant)"/>
</g>
</g>
<defs>
<filter id="filter0_d_1669_178812" x="-14" y="30" width="428" height="170" filterUnits="userSpaceOnUse" color-interpolation-filters="sRGB">
<feFlood flood-opacity="0" result="BackgroundImageFix"/>
<feColorMatrix in="SourceAlpha" type="matrix" values="0 0 0 0 0 0 0 0 0 0 0 0 0 0 0 0 0 0 127 0" result="hardAlpha"/>
<feOffset dy="2"/>
<feGaussianBlur stdDeviation="1"/>
<feComposite in2="hardAlpha" operator="out"/>
<feColorMatrix type="matrix" values="0 0 0 0 0 0 0 0 0 0 0 0 0 0 0 0 0 0 0.04 0"/>
<feBlend mode="normal" in2="BackgroundImageFix" result="effect1_dropShadow_1669_178812"/>
<feBlend mode="normal" in="SourceGraphic" in2="effect1_dropShadow_1669_178812" result="shape"/>
</filter>
<linearGradient id="paint0_linear_1669_178812" x1="28.896" y1="0" x2="28.896" y2="44" gradientUnits="userSpaceOnUse">
<stop stop-color="var(--sol-surface)" stop-opacity="0"/>
<stop offset="1" stop-color="var(--sol-surface)"/>
</linearGradient>
<clipPath id="clip0_1669_178812">
<path d="M0 8C0 3.58172 3.58172 0 8 0H434C438.418 0 442 3.58172 442 8V122C442 126.418 438.418 130 434 130H8C3.58172 130 0 126.418 0 122V8Z" fill="var(--sol-surface)"/>
</clipPath>
<clipPath id="clip1_1669_178812">
<path d="M-12 34C-12 31.7909 -10.2091 30 -8 30H408C410.209 30 412 31.7909 412 34V192C412 194.209 410.209 196 408 196H-7.99999C-10.2091 196 -12 194.209 -12 192V34Z" fill="var(--sol-surface)"/>
</clipPath>
<clipPath id="clip2_1669_178812">
<rect width="424" height="56" fill="var(--sol-surface)" transform="translate(-12 30)"/>
</clipPath>
<clipPath id="clip3_1669_178812">
<path d="M158 58C158 51.3726 163.373 46 170 46H181C187.627 46 193 51.3726 193 58C193 64.6274 187.627 70 181 70H170C163.373 70 158 64.6274 158 58Z" fill="var(--sol-surface)"/>
</clipPath>
<clipPath id="clip4_1669_178812">
<path d="M199 58C199 51.3726 204.373 46 211 46H228C234.627 46 240 51.3726 240 58C240 64.6274 234.627 70 228 70H211C204.373 70 199 64.6274 199 58Z" fill="var(--sol-surface)"/>
</clipPath>
<clipPath id="clip5_1669_178812">
<path d="M246 58C246 51.3726 251.373 46 258 46H302C308.627 46 314 51.3726 314 58C314 64.6274 308.627 70 302 70H258C251.373 70 246 64.6274 246 58Z" fill="var(--sol-surface)"/>
</clipPath>
<clipPath id="clip6_1669_178812">
<path d="M320 58C320 51.3726 325.373 46 332 46H384C390.627 46 396 51.3726 396 58C396 64.6274 390.627 70 384 70H332C325.373 70 320 64.6274 320 58Z" fill="var(--sol-surface)"/>
</clipPath>
</defs>
</svg>
