<svg width="442" height="130" viewBox="0 0 442 130" fill="none" xmlns="http://www.w3.org/2000/svg">
<style>
:root {
  --sol-element-primary: #161616;
  --sol-element-tertiary: #636363;
  --sol-element-quaternary: #858585;
  --sol-element-brand-variant: #3a3480;
  --sol-fill-active: #4d469a;
  --sol-secondary-container: #e8e6f8;
  --sol-surface: #ffffff;
  --sol-border-solid-variant: #e0e0e0;
  --sol-error-dim: #b84451;
  --sol-static-white: #ffffff;
  --sol-static-black: #000000;
}
@media (prefers-color-scheme: dark) {
  :root {
    --sol-element-primary: #ffffff;
    --sol-element-tertiary: rgba(255, 255, 255, 0.60);
    --sol-element-quaternary: rgba(255, 255, 255, 0.5);
    --sol-element-brand-variant: #ffffff;
    --sol-fill-active: #7b74c4;
    --sol-secondary-container: rgba(255, 255, 255, 0.16);
    --sol-surface: #161616;
    --sol-border-solid-variant: #3d3d3d;
    --sol-error-dim: #e76067;
  }
}
</style>

<g clip-path="url(#clip0_1669_178841)">
<path d="M197.5 65C197.5 58.3726 202.873 53 209.5 53H232.5C239.127 53 244.5 58.3726 244.5 65C244.5 71.6274 239.127 77 232.5 77H209.5C202.873 77 197.5 71.6274 197.5 65Z" fill="var(--sol-fill-active)"/>
<path d="M209.955 60.5156V69H208.455V60.5156H209.955ZM211.092 67.207C211.092 65.7773 212.275 65.3555 213.459 65.2852C213.898 65.2559 214.812 65.2031 215.088 65.1914V64.6875C215.088 64.0547 214.678 63.6914 213.939 63.6914C213.271 63.6914 212.861 63.9961 212.744 64.4531H211.303C211.408 63.375 212.381 62.5547 213.975 62.5547C215.182 62.5547 216.576 63.0469 216.576 64.7461V69H215.146V68.1211H215.1C214.818 68.6602 214.221 69.1289 213.225 69.1289C212.006 69.1289 211.092 68.4609 211.092 67.207ZM212.533 67.1953C212.533 67.7461 212.979 68.0273 213.611 68.0273C214.514 68.0273 215.1 67.4297 215.1 66.7148V66.1875L213.693 66.2812C212.979 66.3398 212.533 66.6328 212.533 67.1953ZM218.053 69V60.5156H219.553V63.6797H219.611C219.846 63.2227 220.303 62.5547 221.428 62.5547C222.904 62.5547 224.064 63.7031 224.064 65.8242C224.064 67.9219 222.928 69.1172 221.439 69.1172C220.338 69.1172 219.846 68.4609 219.611 67.9922H219.518V69H218.053ZM219.518 65.8125C219.518 67.0547 220.057 67.8867 221.018 67.8867C222.014 67.8867 222.541 67.0195 222.541 65.8125C222.541 64.6289 222.025 63.7734 221.018 63.7734C220.057 63.7734 219.518 64.582 219.518 65.8125ZM228.061 69.1289C226.139 69.1289 224.967 67.8516 224.967 65.8594C224.967 63.8906 226.162 62.5547 227.979 62.5547C229.537 62.5547 230.885 63.5273 230.885 65.7656V66.2344H226.443C226.461 67.3184 227.1 67.957 228.072 67.957C228.729 67.957 229.174 67.6758 229.361 67.3008H230.826C230.557 68.4023 229.537 69.1289 228.061 69.1289ZM226.455 65.2148H229.455C229.443 64.3477 228.869 63.7148 228.002 63.7148C227.1 63.7148 226.502 64.4004 226.455 65.2148ZM233.545 60.5156V69H232.045V60.5156H233.545Z" fill="var(--sol-surface)"/>
</g>
<defs>
<clipPath id="clip0_1669_178841">
<path d="M197.5 65C197.5 58.3726 202.873 53 209.5 53H232.5C239.127 53 244.5 58.3726 244.5 65C244.5 71.6274 239.127 77 232.5 77H209.5C202.873 77 197.5 71.6274 197.5 65Z" fill="var(--sol-surface)"/>
</clipPath>
</defs>
</svg>
