<svg width="900" height="140" viewBox="0 0 900 140" fill="none" xmlns="http://www.w3.org/2000/svg">
<style>
:root {
  --sol-element-primary: #161616;
  --sol-element-tertiary: #636363;
  --sol-element-quaternary: #858585;
  --sol-element-brand-variant: #3a3480;
  --sol-fill-active: #4d469a;
  --sol-secondary-container: #e8e6f8;
  --sol-surface: #ffffff;
  --sol-border-solid-variant: #e0e0e0;
  --sol-error-dim: #b84451;
  --sol-static-white: #ffffff;
  --sol-static-black: #000000;
}
@media (prefers-color-scheme: dark) {
  :root {
    --sol-element-primary: #ffffff;
    --sol-element-tertiary: rgba(255, 255, 255, 0.60);
    --sol-element-quaternary: rgba(255, 255, 255, 0.5);
    --sol-element-brand-variant: #ffffff;
    --sol-fill-active: #7b74c4;
    --sol-secondary-container: rgba(255, 255, 255, 0.16);
    --sol-surface: #161616;
    --sol-border-solid-variant: #3d3d3d;
    --sol-error-dim: #e76067;
  }
}
</style>

<g clip-path="url(#clip0_1669_178116)">
<path d="M352.5 70C352.5 63.3726 357.873 58 364.5 58H391.5C398.127 58 403.5 63.3726 403.5 70C403.5 76.6274 398.127 82 391.5 82H364.5C357.873 82 352.5 76.6274 352.5 70Z" fill="var(--sol-fill-active)"/>
<path d="M368.256 67.8477C368.186 67.1211 367.564 66.6992 366.65 66.6992C365.689 66.6992 365.104 67.168 365.104 67.8008C365.104 68.5156 365.854 68.8086 366.557 68.9727L367.354 69.1836C368.619 69.4766 369.838 70.1445 369.838 71.6211C369.838 73.1094 368.666 74.1289 366.627 74.1289C364.646 74.1289 363.404 73.1797 363.334 71.5039H364.834C364.904 72.3945 365.654 72.8281 366.615 72.8281C367.623 72.8281 368.314 72.3359 368.314 71.6094C368.314 70.9414 367.693 70.6602 366.779 70.4258L365.818 70.1797C364.424 69.8164 363.557 69.1133 363.557 67.8945C363.557 66.3945 364.893 65.3984 366.674 65.3984C368.479 65.3984 369.697 66.418 369.721 67.8477H368.256ZM371.033 74V67.6367H372.463V68.7148H372.545C372.803 67.9883 373.447 67.5547 374.291 67.5547C375.158 67.5547 375.768 67.9883 376.014 68.7148H376.084C376.365 68.0117 377.068 67.5547 377.994 67.5547C379.154 67.5547 379.975 68.3047 379.975 69.7227V74H378.486V69.957C378.486 69.1602 378.006 68.8086 377.396 68.8086C376.658 68.8086 376.236 69.3125 376.236 70.0273V74H374.783V69.8984C374.783 69.2422 374.338 68.8086 373.705 68.8086C373.061 68.8086 372.533 69.3359 372.533 70.1328V74H371.033ZM381.111 72.207C381.111 70.7773 382.295 70.3555 383.479 70.2852C383.918 70.2559 384.832 70.2031 385.107 70.1914V69.6875C385.107 69.0547 384.697 68.6914 383.959 68.6914C383.291 68.6914 382.881 68.9961 382.764 69.4531H381.322C381.428 68.375 382.4 67.5547 383.994 67.5547C385.201 67.5547 386.596 68.0469 386.596 69.7461V74H385.166V73.1211H385.119C384.838 73.6602 384.24 74.1289 383.244 74.1289C382.025 74.1289 381.111 73.4609 381.111 72.207ZM382.553 72.1953C382.553 72.7461 382.998 73.0273 383.631 73.0273C384.533 73.0273 385.119 72.4297 385.119 71.7148V71.1875L383.713 71.2812C382.998 71.3398 382.553 71.6328 382.553 72.1953ZM389.502 65.5156V74H388.002V65.5156H389.502ZM392.432 65.5156V74H390.932V65.5156H392.432Z" fill="var(--sol-surface)"/>
</g>
<g clip-path="url(#clip1_1669_178116)">
<path d="M463.5 70C463.5 61.1634 470.663 54 479.5 54H531.5C540.337 54 547.5 61.1634 547.5 70V70C547.5 78.8366 540.337 86 531.5 86H479.5C470.663 86 463.5 78.8366 463.5 70V70Z" fill="var(--sol-fill-active)"/>
<path d="M476.672 64.6875H479.172L482.531 72.9062H482.672L486.031 64.6875H488.531V76H486.578V68.2188H486.469L483.328 75.9688H481.875L478.734 68.1875H478.641V76H476.672V64.6875ZM494.297 76.1719C491.734 76.1719 490.172 74.4688 490.172 71.8125C490.172 69.1875 491.766 67.4062 494.188 67.4062C496.266 67.4062 498.062 68.7031 498.062 71.6875V72.3125H492.141C492.164 73.7578 493.016 74.6094 494.312 74.6094C495.188 74.6094 495.781 74.2344 496.031 73.7344H497.984C497.625 75.2031 496.266 76.1719 494.297 76.1719ZM492.156 70.9531H496.156C496.141 69.7969 495.375 68.9531 494.219 68.9531C493.016 68.9531 492.219 69.8672 492.156 70.9531ZM502.766 76.1562C500.766 76.1562 499.266 74.5625 499.266 71.7656C499.266 68.9375 500.812 67.4062 502.781 67.4062C504.281 67.4062 504.906 68.2969 505.203 68.9062H505.281V64.6875H507.266V76H505.312V74.6562H505.203C504.891 75.2812 504.234 76.1562 502.766 76.1562ZM503.312 74.5156C504.594 74.5156 505.328 73.4062 505.328 71.75C505.328 70.1094 504.609 69.0312 503.312 69.0312C501.984 69.0312 501.297 70.1719 501.297 71.75C501.297 73.3594 502 74.5156 503.312 74.5156ZM509.281 76V67.5156H511.281V76H509.281ZM510.297 66.3125C509.672 66.3125 509.141 65.8281 509.141 65.2188C509.141 64.625 509.672 64.1406 510.297 64.1406C510.938 64.1406 511.453 64.625 511.453 65.2188C511.453 65.8281 510.938 66.3125 510.297 66.3125ZM518.609 72.4375V67.5156H520.594V76H518.672V74.5H518.578C518.188 75.4375 517.297 76.1094 516.031 76.1094C514.359 76.1094 513.203 74.9531 513.188 72.9219V67.5156H515.188V72.6094C515.188 73.6875 515.828 74.375 516.797 74.375C517.672 74.375 518.609 73.7344 518.609 72.4375ZM522.5 76V67.5156H524.406V68.9531H524.516C524.859 67.9844 525.719 67.4062 526.844 67.4062C528 67.4062 528.812 67.9844 529.141 68.9531H529.234C529.609 68.0156 530.547 67.4062 531.781 67.4062C533.328 67.4062 534.422 68.4062 534.422 70.2969V76H532.438V70.6094C532.438 69.5469 531.797 69.0781 530.984 69.0781C530 69.0781 529.438 69.75 529.438 70.7031V76H527.5V70.5312C527.5 69.6562 526.906 69.0781 526.062 69.0781C525.203 69.0781 524.5 69.7812 524.5 70.8438V76H522.5Z" fill="var(--sol-surface)"/>
</g>
<path d="M554.5 54V86" stroke="var(--sol-error-dim)"/>
<path d="M551.5 54H557.5" stroke="var(--sol-error-dim)"/>
<path d="M551.5 86H557.5" stroke="var(--sol-error-dim)"/>
<rect x="561.5" y="60" width="20" height="20" rx="3.5" fill="var(--sol-error-dim)"/>
<path d="M568.082 74.1094C567.545 74.1094 567.066 74.0169 566.644 73.832C566.225 73.6471 565.893 73.3906 565.648 73.0625C565.406 72.7318 565.276 72.349 565.258 71.9141H566.484C566.5 72.151 566.579 72.3568 566.722 72.5312C566.868 72.7031 567.058 72.8359 567.293 72.9297C567.527 73.0234 567.787 73.0703 568.074 73.0703C568.389 73.0703 568.668 73.0156 568.91 72.9062C569.155 72.7969 569.346 72.6445 569.484 72.4492C569.622 72.2513 569.691 72.0234 569.691 71.7656C569.691 71.4974 569.622 71.2617 569.484 71.0586C569.349 70.8529 569.149 70.6914 568.886 70.5742C568.626 70.457 568.311 70.3984 567.941 70.3984H567.265V69.4141H567.941C568.238 69.4141 568.498 69.3607 568.722 69.2539C568.949 69.1471 569.126 68.9987 569.254 68.8086C569.381 68.6159 569.445 68.3906 569.445 68.1328C569.445 67.8854 569.389 67.6706 569.277 67.4883C569.168 67.3034 569.011 67.1589 568.808 67.0547C568.608 66.9505 568.371 66.8984 568.097 66.8984C567.837 66.8984 567.593 66.9466 567.367 67.043C567.143 67.1367 566.961 67.2721 566.82 67.4492C566.679 67.6237 566.604 67.8333 566.593 68.0781H565.425C565.438 67.6458 565.566 67.2656 565.808 66.9375C566.053 66.6094 566.376 66.3529 566.777 66.168C567.178 65.9831 567.623 65.8906 568.113 65.8906C568.626 65.8906 569.069 65.9909 569.441 66.1914C569.816 66.3893 570.105 66.6536 570.308 66.9844C570.514 67.3151 570.616 67.6771 570.613 68.0703C570.616 68.5182 570.491 68.8984 570.238 69.2109C569.988 69.5234 569.655 69.7331 569.238 69.8398V69.9023C569.769 69.9831 570.181 70.194 570.472 70.5352C570.767 70.8763 570.912 71.2995 570.91 71.8047C570.912 72.2448 570.79 72.6393 570.543 72.9883C570.298 73.3372 569.963 73.612 569.539 73.8125C569.114 74.0104 568.629 74.1094 568.082 74.1094ZM572.496 74V73.125L575.203 70.3203C575.493 70.0156 575.731 69.7487 575.918 69.5195C576.108 69.2878 576.25 69.0677 576.344 68.8594C576.438 68.651 576.485 68.4297 576.485 68.1953C576.485 67.9297 576.422 67.7005 576.297 67.5078C576.172 67.3125 576.002 67.1628 575.785 67.0586C575.569 66.9518 575.326 66.8984 575.055 66.8984C574.769 66.8984 574.519 66.957 574.305 67.0742C574.091 67.1914 573.927 67.3568 573.813 67.5703C573.698 67.7839 573.641 68.0339 573.641 68.3203H572.489C572.489 67.8333 572.601 67.4076 572.825 67.043C573.048 66.6784 573.356 66.3958 573.746 66.1953C574.137 65.9922 574.581 65.8906 575.078 65.8906C575.581 65.8906 576.024 65.9909 576.407 66.1914C576.792 66.3893 577.093 66.6602 577.309 67.0039C577.525 67.3451 577.633 67.7305 577.633 68.1602C577.633 68.457 577.577 68.7474 577.465 69.0312C577.356 69.3151 577.164 69.6315 576.891 69.9805C576.618 70.3268 576.237 70.7474 575.75 71.2422L574.16 72.9062V72.9648H577.762V74H572.496Z" fill="var(--sol-surface)"/>
<path d="M410.75 58V82" stroke="var(--sol-error-dim)"/>
<path d="M407.75 58H413.75" stroke="var(--sol-error-dim)"/>
<path d="M407.75 82H413.75" stroke="var(--sol-error-dim)"/>
<rect x="417.75" y="60" width="20" height="20" rx="3.5" fill="var(--sol-error-dim)"/>
<path d="M421.579 74V73.125L424.286 70.3203C424.575 70.0156 424.813 69.7487 425.001 69.5195C425.191 69.2878 425.333 69.0677 425.426 68.8594C425.52 68.651 425.567 68.4297 425.567 68.1953C425.567 67.9297 425.505 67.7005 425.38 67.5078C425.255 67.3125 425.084 67.1628 424.868 67.0586C424.652 66.9518 424.408 66.8984 424.137 66.8984C423.851 66.8984 423.601 66.957 423.387 67.0742C423.174 67.1914 423.01 67.3568 422.895 67.5703C422.781 67.7839 422.723 68.0339 422.723 68.3203H421.571C421.571 67.8333 421.683 67.4076 421.907 67.043C422.131 66.6784 422.438 66.3958 422.829 66.1953C423.219 65.9922 423.663 65.8906 424.161 65.8906C424.663 65.8906 425.106 65.9909 425.489 66.1914C425.874 66.3893 426.175 66.6602 426.391 67.0039C426.607 67.3451 426.716 67.7305 426.716 68.1602C426.716 68.457 426.66 68.7474 426.548 69.0312C426.438 69.3151 426.247 69.6315 425.973 69.9805C425.7 70.3268 425.32 70.7474 424.833 71.2422L423.243 72.9062V72.9648H426.844V74H421.579ZM428.095 72.4375V71.4609L431.552 66H432.322V67.4375H431.833L429.361 71.3516V71.4141H434.099V72.4375H428.095ZM431.888 74V72.1406L431.896 71.6953V66H433.04V74H431.888Z" fill="var(--sol-surface)"/>
<defs>
<clipPath id="clip0_1669_178116">
<path d="M352.5 70C352.5 63.3726 357.873 58 364.5 58H391.5C398.127 58 403.5 63.3726 403.5 70C403.5 76.6274 398.127 82 391.5 82H364.5C357.873 82 352.5 76.6274 352.5 70Z" fill="var(--sol-surface)"/>
</clipPath>
<clipPath id="clip1_1669_178116">
<path d="M463.5 70C463.5 61.1634 470.663 54 479.5 54H531.5C540.337 54 547.5 61.1634 547.5 70V70C547.5 78.8366 540.337 86 531.5 86H479.5C470.663 86 463.5 78.8366 463.5 70V70Z" fill="var(--sol-surface)"/>
</clipPath>
</defs>
</svg>
