<svg width="442" height="130" viewBox="0 0 442 130" fill="none" xmlns="http://www.w3.org/2000/svg">
<style>
:root {
  --sol-element-primary: #161616;
  --sol-element-tertiary: #636363;
  --sol-element-quaternary: #858585;
  --sol-element-brand-variant: #3a3480;
  --sol-fill-active: #4d469a;
  --sol-secondary-container: #e8e6f8;
  --sol-surface: #ffffff;
  --sol-border-solid-variant: #e0e0e0;
  --sol-error-dim: #b84451;
  --sol-static-white: #ffffff;
  --sol-static-black: #000000;
}
@media (prefers-color-scheme: dark) {
  :root {
    --sol-element-primary: #ffffff;
    --sol-element-tertiary: rgba(255, 255, 255, 0.60);
    --sol-element-quaternary: rgba(255, 255, 255, 0.5);
    --sol-element-brand-variant: #ffffff;
    --sol-fill-active: #7b74c4;
    --sol-secondary-container: rgba(255, 255, 255, 0.16);
    --sol-surface: #161616;
    --sol-border-solid-variant: #3d3d3d;
    --sol-error-dim: #e76067;
  }
}
</style>

<g clip-path="url(#clip0_1669_178847)">
<path d="M77 65C77 58.3726 82.3726 53 89 53H106C112.627 53 118 58.3726 118 65C118 71.6274 112.627 77 106 77H89C82.3726 77 77 71.6274 77 65Z" fill="var(--sol-fill-active)"/>
<path d="M87.8145 69V60.5156H93.334V61.793H89.3379V64.1133H93.041V65.3906H89.3379V67.7109H93.3574V69H87.8145ZM99.416 62.8477C99.3457 62.1211 98.7246 61.6992 97.8105 61.6992C96.8496 61.6992 96.2637 62.168 96.2637 62.8008C96.2637 63.5156 97.0137 63.8086 97.7168 63.9727L98.5137 64.1836C99.7793 64.4766 100.998 65.1445 100.998 66.6211C100.998 68.1094 99.8262 69.1289 97.7871 69.1289C95.8066 69.1289 94.5645 68.1797 94.4941 66.5039H95.9941C96.0645 67.3945 96.8145 67.8281 97.7754 67.8281C98.7832 67.8281 99.4746 67.3359 99.4746 66.6094C99.4746 65.9414 98.8535 65.6602 97.9395 65.4258L96.9785 65.1797C95.584 64.8164 94.7168 64.1133 94.7168 62.8945C94.7168 61.3945 96.0527 60.3984 97.834 60.3984C99.6387 60.3984 100.857 61.418 100.881 62.8477H99.416ZM102.264 69V60.5156H103.787V67.7109H107.537V69H102.264Z" fill="var(--sol-surface)"/>
</g>
<g clip-path="url(#clip1_1669_178847)">
<path d="M124 65C124 58.3726 129.373 53 136 53H180C186.627 53 192 58.3726 192 65C192 71.6274 186.627 77 180 77H136C129.373 77 124 71.6274 124 65Z" fill="var(--sol-surface)"/>
<path d="M136 53.5H180C186.351 53.5 191.5 58.6487 191.5 65C191.5 71.3513 186.351 76.5 180 76.5H136C129.649 76.5 124.5 71.3513 124.5 65C124.5 58.6487 129.649 53.5 136 53.5Z" stroke="var(--sol-element-primary)" stroke-opacity="0.16"/>
<path d="M141.002 63.1641C140.639 62.0742 139.807 61.3828 138.6 61.3828C137.1 61.3828 135.904 62.5664 135.904 64.7578C135.904 66.9492 137.1 68.1328 138.67 68.1328C140.105 68.1328 141.084 67.1719 141.107 65.6719H138.893V64.7461H142.139V65.6602C142.139 67.7695 140.686 69.1172 138.67 69.1172C136.408 69.1172 134.885 67.4414 134.885 64.7578C134.885 62.0742 136.42 60.3984 138.6 60.3984C140.393 60.3984 141.775 61.5234 142.092 63.1641H141.002ZM143.287 67.1953C143.287 65.7305 144.576 65.4023 145.678 65.3203C146.082 65.291 147.113 65.2383 147.4 65.2266V64.7109C147.4 63.9023 146.92 63.4336 145.959 63.4336C145.15 63.4336 144.67 63.8086 144.529 64.2891H143.475C143.604 63.2695 144.6 62.5547 146.006 62.5547C146.838 62.5547 148.396 62.8008 148.396 64.8047V69H147.4V68.1328H147.354C147.143 68.5664 146.557 69.1523 145.455 69.1523C144.248 69.1523 143.287 68.4375 143.287 67.1953ZM144.295 67.2422C144.295 67.9102 144.857 68.25 145.631 68.25C146.768 68.25 147.4 67.4883 147.4 66.6914V66.0469L145.795 66.1641C144.881 66.2227 144.295 66.5508 144.295 67.2422ZM152.791 62.6367V63.4805H151.455V67.1719C151.455 67.9922 151.854 68.1211 152.287 68.1211C152.475 68.1211 152.732 68.1094 152.885 68.0977V69.0352C152.732 69.0586 152.475 69.082 152.182 69.082C151.338 69.082 150.436 68.5547 150.436 67.4297V63.4805H149.475V62.6367H150.436V61.1133H151.455V62.6367H152.791ZM156.705 69.1289C154.865 69.1289 153.729 67.8281 153.729 65.8711C153.729 63.9141 154.877 62.5547 156.611 62.5547C157.947 62.5547 159.354 63.375 159.354 65.7305V66.1523H154.736C154.783 67.5 155.568 68.2383 156.705 68.2383C157.467 68.2383 157.947 67.9102 158.182 67.5117H159.26C158.955 68.4727 158.018 69.1289 156.705 69.1289ZM154.748 65.2969H158.334C158.334 64.2305 157.654 63.4453 156.611 63.4453C155.51 63.4453 154.807 64.3125 154.748 65.2969ZM162.096 69L160.162 62.6367H161.229L162.588 67.4883H162.646L163.994 62.6367H165.072L166.396 67.4648H166.467L167.826 62.6367H168.881L166.947 69H165.951L164.568 64.1484H164.475L163.104 69H162.096ZM169.689 67.1953C169.689 65.7305 170.979 65.4023 172.08 65.3203C172.484 65.291 173.516 65.2383 173.803 65.2266V64.7109C173.803 63.9023 173.322 63.4336 172.361 63.4336C171.553 63.4336 171.072 63.8086 170.932 64.2891H169.877C170.006 63.2695 171.002 62.5547 172.408 62.5547C173.24 62.5547 174.799 62.8008 174.799 64.8047V69H173.803V68.1328H173.756C173.545 68.5664 172.959 69.1523 171.857 69.1523C170.65 69.1523 169.689 68.4375 169.689 67.1953ZM170.697 67.2422C170.697 67.9102 171.26 68.25 172.033 68.25C173.17 68.25 173.803 67.4883 173.803 66.6914V66.0469L172.197 66.1641C171.283 66.2227 170.697 66.5508 170.697 67.2422ZM176.826 71.3906C176.604 71.3906 176.393 71.3789 176.264 71.3672V70.4648C176.369 70.4766 176.604 70.4883 176.756 70.4883C177.166 70.4883 177.506 70.4531 177.846 69.5273L178.033 69.0469L175.678 62.6367H176.779L178.514 67.6875H178.584L180.318 62.6367H181.42L178.725 69.9141C178.35 70.9102 177.729 71.3906 176.826 71.3906Z" fill="var(--sol-element-quaternary)"/>
</g>
<g clip-path="url(#clip2_1669_178847)">
<path d="M198 65C198 58.3726 203.373 53 210 53H262C268.627 53 274 58.3726 274 65C274 71.6274 268.627 77 262 77H210C203.373 77 198 71.6274 198 65Z" fill="var(--sol-surface)"/>
<path d="M210 53.5H262C268.351 53.5 273.5 58.6487 273.5 65C273.5 71.3513 268.351 76.5 262 76.5H210C203.649 76.5 198.5 71.3513 198.5 65C198.5 58.6487 203.649 53.5 210 53.5Z" stroke="var(--sol-element-primary)" stroke-opacity="0.16"/>
<path d="M209.088 69V60.5156H211.971C213.963 60.5156 214.865 61.6992 214.865 63.2109C214.865 64.7109 213.963 65.918 211.982 65.918H210.143V69H209.088ZM210.143 64.9805H211.936C213.283 64.9805 213.822 64.2188 213.822 63.2109C213.822 62.1914 213.283 61.4531 211.924 61.4531H210.143V64.9805ZM218.756 69.1289C217.021 69.1289 215.85 67.8281 215.85 65.8477C215.85 63.8672 217.021 62.5547 218.756 62.5547C220.479 62.5547 221.639 63.8672 221.639 65.8477C221.639 67.8281 220.479 69.1289 218.756 69.1289ZM218.756 68.2383C220.033 68.2383 220.631 67.1133 220.631 65.8477C220.631 64.582 220.033 63.4453 218.756 63.4453C217.455 63.4453 216.857 64.582 216.857 65.8477C216.857 67.1133 217.455 68.2383 218.756 68.2383ZM224.182 69L222.248 62.6367H223.314L224.674 67.4883H224.732L226.08 62.6367H227.158L228.482 67.4648H228.553L229.912 62.6367H230.967L229.033 69H228.037L226.654 64.1484H226.561L225.189 69H224.182ZM234.541 69.1289C232.701 69.1289 231.564 67.8281 231.564 65.8711C231.564 63.9141 232.713 62.5547 234.447 62.5547C235.783 62.5547 237.189 63.375 237.189 65.7305V66.1523H232.572C232.619 67.5 233.404 68.2383 234.541 68.2383C235.303 68.2383 235.783 67.9102 236.018 67.5117H237.096C236.791 68.4727 235.854 69.1289 234.541 69.1289ZM232.584 65.2969H236.17C236.17 64.2305 235.49 63.4453 234.447 63.4453C233.346 63.4453 232.643 64.3125 232.584 65.2969ZM238.502 69V62.6367H239.475V63.6094H239.545C239.779 62.9648 240.436 62.5312 241.186 62.5312C241.338 62.5312 241.596 62.543 241.713 62.5547V63.5742C241.643 63.5508 241.361 63.5039 241.104 63.5039C240.189 63.5039 239.51 64.1367 239.51 64.9922V69H238.502ZM245.838 69V60.5156H248.721C250.713 60.5156 251.615 61.6172 251.615 63.1289C251.615 64.248 251.111 65.1328 250.033 65.5078L251.943 69H250.713L248.943 65.6953L248.732 65.707H246.893V69H245.838ZM246.893 64.7461H248.686C250.033 64.7461 250.572 64.1367 250.572 63.1289C250.572 62.1094 250.033 61.4531 248.674 61.4531H246.893V64.7461ZM252.705 67.1953C252.705 65.7305 253.994 65.4023 255.096 65.3203C255.5 65.291 256.531 65.2383 256.818 65.2266V64.7109C256.818 63.9023 256.338 63.4336 255.377 63.4336C254.568 63.4336 254.088 63.8086 253.947 64.2891H252.893C253.021 63.2695 254.018 62.5547 255.424 62.5547C256.256 62.5547 257.814 62.8008 257.814 64.8047V69H256.818V68.1328H256.771C256.561 68.5664 255.975 69.1523 254.873 69.1523C253.666 69.1523 252.705 68.4375 252.705 67.1953ZM253.713 67.2422C253.713 67.9102 254.275 68.25 255.049 68.25C256.186 68.25 256.818 67.4883 256.818 66.6914V66.0469L255.213 66.1641C254.299 66.2227 253.713 66.5508 253.713 67.2422ZM259.432 69V62.6367H260.439V69H259.432ZM259.936 61.582C259.549 61.582 259.232 61.2891 259.232 60.9141C259.232 60.5391 259.549 60.2461 259.936 60.2461C260.322 60.2461 260.65 60.5391 260.65 60.9141C260.65 61.2891 260.322 61.582 259.936 61.582ZM263.053 60.5156V69H262.045V60.5156H263.053Z" fill="var(--sol-element-quaternary)"/>
</g>
<g clip-path="url(#clip3_1669_178847)">
<path d="M280 65C280 58.3726 285.373 53 292 53H353C359.627 53 365 58.3726 365 65C365 71.6274 359.627 77 353 77H292C285.373 77 280 71.6274 280 65Z" fill="var(--sol-surface)"/>
<path d="M292 53.5H353C359.351 53.5 364.5 58.6487 364.5 65C364.5 71.3513 359.351 76.5 353 76.5H292C285.649 76.5 280.5 71.3513 280.5 65C280.5 58.8472 285.332 53.8227 291.408 53.5146L292 53.5Z" stroke="var(--sol-element-primary)" stroke-opacity="0.16"/>
<path d="M297.85 60.5156V69H296.842L292.248 62.3906H292.166V69H291.111V60.5156H292.131L296.725 67.1367H296.807V60.5156H297.85ZM302.268 69.1289C300.428 69.1289 299.291 67.8281 299.291 65.8711C299.291 63.9141 300.439 62.5547 302.174 62.5547C303.51 62.5547 304.916 63.375 304.916 65.7305V66.1523H300.299C300.346 67.5 301.131 68.2383 302.268 68.2383C303.029 68.2383 303.51 67.9102 303.744 67.5117H304.822C304.518 68.4727 303.58 69.1289 302.268 69.1289ZM300.311 65.2969H303.896C303.896 64.2305 303.217 63.4453 302.174 63.4453C301.072 63.4453 300.369 64.3125 300.311 65.2969ZM307.658 69L305.725 62.6367H306.791L308.15 67.4883H308.209L309.557 62.6367H310.635L311.959 67.4648H312.029L313.389 62.6367H314.443L312.51 69H311.514L310.131 64.1484H310.037L308.666 69H307.658ZM318.334 62.6367V63.4805H316.998V67.1719C316.998 67.9922 317.396 68.1211 317.83 68.1211C318.018 68.1211 318.275 68.1094 318.428 68.0977V69.0352C318.275 69.0586 318.018 69.082 317.725 69.082C316.881 69.082 315.979 68.5547 315.979 67.4297V63.4805H315.018V62.6367H315.979V61.1133H316.998V62.6367H318.334ZM322.178 69.1289C320.443 69.1289 319.271 67.8281 319.271 65.8477C319.271 63.8672 320.443 62.5547 322.178 62.5547C323.9 62.5547 325.061 63.8672 325.061 65.8477C325.061 67.8281 323.9 69.1289 322.178 69.1289ZM322.178 68.2383C323.455 68.2383 324.053 67.1133 324.053 65.8477C324.053 64.582 323.455 63.4453 322.178 63.4453C320.877 63.4453 320.279 64.582 320.279 65.8477C320.279 67.1133 320.877 68.2383 322.178 68.2383ZM327.393 65.1797V69H326.385V62.6367H327.357V63.6328H327.439C327.744 62.9883 328.33 62.5547 329.303 62.5547C330.592 62.5547 331.447 63.3398 331.447 64.957V69H330.439V65.0273C330.439 64.043 329.9 63.457 328.998 63.457C328.072 63.457 327.393 64.0781 327.393 65.1797ZM336.205 69V60.5156H341.35V61.4531H337.26V64.2891H341.08V65.2148H337.26V68.0625H341.408V69H336.205ZM343.529 71.3906C343.307 71.3906 343.096 71.3789 342.967 71.3672V70.4648C343.072 70.4766 343.307 70.4883 343.459 70.4883C343.869 70.4883 344.209 70.4531 344.549 69.5273L344.736 69.0469L342.381 62.6367H343.482L345.217 67.6875H345.287L347.021 62.6367H348.123L345.428 69.9141C345.053 70.9102 344.432 71.3906 343.529 71.3906ZM351.674 69.1289C349.834 69.1289 348.697 67.8281 348.697 65.8711C348.697 63.9141 349.846 62.5547 351.58 62.5547C352.916 62.5547 354.322 63.375 354.322 65.7305V66.1523H349.705C349.752 67.5 350.537 68.2383 351.674 68.2383C352.436 68.2383 352.916 67.9102 353.15 67.5117H354.229C353.924 68.4727 352.986 69.1289 351.674 69.1289ZM349.717 65.2969H353.303C353.303 64.2305 352.623 63.4453 351.58 63.4453C350.479 63.4453 349.775 64.3125 349.717 65.2969Z" fill="var(--sol-element-quaternary)"/>
</g>
<defs>
<clipPath id="clip0_1669_178847">
<path d="M77 65C77 58.3726 82.3726 53 89 53H106C112.627 53 118 58.3726 118 65C118 71.6274 112.627 77 106 77H89C82.3726 77 77 71.6274 77 65Z" fill="var(--sol-surface)"/>
</clipPath>
<clipPath id="clip1_1669_178847">
<path d="M124 65C124 58.3726 129.373 53 136 53H180C186.627 53 192 58.3726 192 65C192 71.6274 186.627 77 180 77H136C129.373 77 124 71.6274 124 65Z" fill="var(--sol-surface)"/>
</clipPath>
<clipPath id="clip2_1669_178847">
<path d="M198 65C198 58.3726 203.373 53 210 53H262C268.627 53 274 58.3726 274 65C274 71.6274 268.627 77 262 77H210C203.373 77 198 71.6274 198 65Z" fill="var(--sol-surface)"/>
</clipPath>
<clipPath id="clip3_1669_178847">
<path d="M280 65C280 58.3726 285.373 53 292 53H353C359.627 53 365 58.3726 365 65C365 71.6274 359.627 77 353 77H292C285.373 77 280 71.6274 280 65Z" fill="var(--sol-surface)"/>
</clipPath>
</defs>
</svg>
