<svg width="288" height="192" viewBox="0 0 288 192" fill="none" xmlns="http://www.w3.org/2000/svg">
<style>
:root {
  --sol-primary: #282363;
  --sol-element-brand-variant: #3a3480;
  --sol-fill-active: #4d469a;
  --sol-selected-container-variant: #f5f4fd;
  --sol-surface: #ffffff;
  --sol-surface-base-variant: #f5f5f5;
  --sol-secondary-container: #e8e6f8;
  --sol-element-primary: #161616;
  --sol-element-secondary: #484848;
  --sol-element-tertiary: #636363;
  --sol-element-quaternary: #858585;
  --sol-border-brand: #7b74c4;
  --sol-border-normal-variant: rgba(0, 0, 0, 0.08);
  --sol-border-solid-variant: #e0e0e0;
  --sol-border-solid: #d0d0d0;
  --sol-error: #e76067;
  --sol-error-container: #fdeaeb;
  --sol-static-white: #ffffff;
  --sol-static-black: #000000;
  --color-brand-400: #6058b4;
  --color-teal-500: #05a09a;
  --color-green-500: #35a142;
  --color-yellow-500: #d4ae00;
  --color-orange-500: #e06418;
  --color-blue-500: #3e9bca;
  --color-indigo-500: #3d5ed6;
  --color-pink-500: #d03e94;
}
@media (prefers-color-scheme: dark) {
  :root {
    --sol-primary: #9791d4;
    --sol-element-brand-variant: #ffffff;
    --sol-fill-active: #7b74c4;
    --sol-selected-container-variant: rgba(0, 0, 0, 0.08);
    --sol-surface: #161616;
    --sol-surface-base-variant: #1c1c1c;
    --sol-secondary-container: rgba(255, 255, 255, 0.16);
    --sol-element-primary: #ffffff;
    --sol-element-secondary: rgba(255, 255, 255, 0.8);
    --sol-element-tertiary: rgba(255, 255, 255, 0.6);
    --sol-element-quaternary: rgba(255, 255, 255, 0.5);
    --sol-border-brand: #7b74c4;
    --sol-border-normal-variant: rgba(255, 255, 255, 0.08);
    --sol-border-solid-variant: #3d3d3d;
    --sol-border-solid: #333333;
    --sol-error: #ee7a80;
    --sol-error-container: rgba(231, 96, 103, 0.24);
    --sol-static-white: #ffffff;
    --sol-static-black: #000000;
  }
}
</style>
<g clip-path="url(#clip0_1318_130416)">
<g clip-path="url(#clip1_1318_130416)">
<rect width="213.808" height="300" fill="var(--sol-surface)"/>
<rect x="10.6904" y="18.0352" width="118" height="16" rx="2" fill="var(--sol-element-primary)" fill-opacity="0.08"/>
<mask id="mask0_1318_130416" style="mask-type:alpha" maskUnits="userSpaceOnUse" x="189" y="19" width="21" height="21">
<path d="M198.29 24.6594L196.915 26.0346L198.29 27.4097L197.7 28.0002L196.03 26.3298C195.866 26.1667 195.866 25.9024 196.03 25.7393L197.7 24.0689L198.29 24.6594Z" fill="var(--sol-element-primary)"/>
<path fill-rule="evenodd" clip-rule="evenodd" d="M199.666 21.0234C200.281 21.0234 200.779 21.522 200.779 22.137V29.9321C200.779 30.5088 200.341 30.9828 199.779 31.0397L199.666 31.0457H191.87L191.757 31.0397C191.233 30.9866 190.816 30.57 190.763 30.0458L190.757 29.9321V22.137C190.757 21.522 191.255 21.0234 191.87 21.0234H199.666ZM191.87 21.8586C191.717 21.8586 191.592 21.9833 191.592 22.137V29.9321C191.592 30.0859 191.717 30.2105 191.87 30.2105H193.539V21.8586H191.87ZM194.374 30.2105H199.666C199.819 30.2105 199.944 30.0859 199.944 29.9321V22.137C199.944 21.9833 199.819 21.8586 199.666 21.8586H194.374V30.2105Z" fill="var(--sol-element-primary)"/>
</mask>
<g mask="url(#mask0_1318_130416)">
<rect x="189.087" y="19.3535" width="13.363" height="13.363" fill="var(--sol-element-quaternary)"/>
</g>
<path d="M11.5077 74.2539V66.7072H14.0719C15.844 66.7072 16.6466 67.76 16.6466 69.1046C16.6466 70.4388 15.844 71.5125 14.0824 71.5125H12.4458V74.2539H11.5077ZM12.4458 70.6786H14.0407C15.2394 70.6786 15.7189 70.0011 15.7189 69.1046C15.7189 68.1978 15.2394 67.5411 14.0302 67.5411H12.4458V70.6786ZM17.5743 72.6487C17.5743 71.3457 18.7209 71.0538 19.7007 70.9809C20.0603 70.9548 20.9776 70.9079 21.233 70.8975V70.4388C21.233 69.7196 20.8056 69.3027 19.9509 69.3027C19.2316 69.3027 18.8043 69.6362 18.6792 70.0636H17.7411C17.8557 69.1567 18.7417 68.5209 19.9926 68.5209C20.7327 68.5209 22.119 68.7398 22.119 70.5222V74.2539H21.233V73.4826H21.1913C21.0037 73.8682 20.4825 74.3894 19.5027 74.3894C18.429 74.3894 17.5743 73.7536 17.5743 72.6487ZM18.4707 72.6904C18.4707 73.2845 18.9711 73.5868 19.659 73.5868C20.6701 73.5868 21.233 72.9093 21.233 72.2004V71.6271L19.8049 71.7314C18.9919 71.7835 18.4707 72.0754 18.4707 72.6904ZM23.5575 74.2539V68.5939H24.4226V69.459H24.4852C24.6936 68.8857 25.2774 68.5 25.9445 68.5C26.08 68.5 26.3093 68.5105 26.4135 68.5209V69.4278C26.351 69.4069 26.1008 69.3652 25.8715 69.3652C25.0585 69.3652 24.4539 69.9281 24.4539 70.689V74.2539H23.5575ZM29.4885 74.3686C27.852 74.3686 26.8409 73.2115 26.8409 71.4708C26.8409 69.73 27.8624 68.5209 29.4051 68.5209C30.5934 68.5209 31.8443 69.2506 31.8443 71.3457V71.721H27.7374C27.779 72.9197 28.4774 73.5764 29.4885 73.5764C30.1661 73.5764 30.5934 73.2845 30.8019 72.9301H31.7609C31.4899 73.7848 30.656 74.3686 29.4885 74.3686ZM27.7478 70.96H30.9374C30.9374 70.0115 30.3328 69.3131 29.4051 69.3131C28.4253 69.3131 27.7999 70.0844 27.7478 70.96ZM33.9082 70.8558V74.2539H33.0117V68.5939H33.8769V69.4799H33.9498C34.2209 68.9066 34.742 68.5209 35.6072 68.5209C36.7538 68.5209 37.5147 69.2193 37.5147 70.6577V74.2539H36.6183V70.7203C36.6183 69.8447 36.1388 69.3235 35.3362 69.3235C34.5127 69.3235 33.9082 69.876 33.9082 70.8558ZM41.4236 68.5939V69.3444H40.2353V72.6278C40.2353 73.3575 40.5897 73.4721 40.9754 73.4721C41.1422 73.4721 41.3715 73.4617 41.507 73.4513V74.2852C41.3715 74.306 41.1422 74.3269 40.8816 74.3269C40.1311 74.3269 39.3285 73.8578 39.3285 72.8571V69.3444H38.4737V68.5939H39.3285V67.2388H40.2353V68.5939H41.4236ZM45.2595 74.2539V68.5939H46.1559V74.2539H45.2595ZM45.7077 67.6557C45.3638 67.6557 45.0823 67.3951 45.0823 67.0616C45.0823 66.728 45.3638 66.4674 45.7077 66.4674C46.0517 66.4674 46.3436 66.728 46.3436 67.0616C46.3436 67.3951 46.0517 67.6557 45.7077 67.6557ZM50.0544 68.5939V69.3444H48.8661V72.6278C48.8661 73.3575 49.2205 73.4721 49.6062 73.4721C49.773 73.4721 50.0023 73.4617 50.1378 73.4513V74.2852C50.0023 74.306 49.773 74.3269 49.5124 74.3269C48.7619 74.3269 47.9592 73.8578 47.9592 72.8571V69.3444H47.1045V68.5939H47.9592V67.2388H48.8661V68.5939H50.0544ZM53.5359 74.3686C51.8994 74.3686 50.8883 73.2115 50.8883 71.4708C50.8883 69.73 51.9098 68.5209 53.4525 68.5209C54.6408 68.5209 55.8916 69.2506 55.8916 71.3457V71.721H51.7847C51.8264 72.9197 52.5248 73.5764 53.5359 73.5764C54.2134 73.5764 54.6408 73.2845 54.8493 72.9301H55.8083C55.5372 73.7848 54.7033 74.3686 53.5359 74.3686ZM51.7951 70.96H54.9848C54.9848 70.0115 54.3802 69.3131 53.4525 69.3131C52.4727 69.3131 51.8473 70.0844 51.7951 70.96ZM57.0591 74.2539V68.5939H57.9243V69.4799H57.9972C58.237 68.8753 58.779 68.5209 59.5191 68.5209C60.2592 68.5209 60.7595 68.8753 61.0305 69.4799H61.093C61.3849 68.8961 61.9791 68.5209 62.7921 68.5209C63.8032 68.5209 64.5224 69.1359 64.5224 70.4701V74.2539H63.626V70.4805C63.626 69.6467 63.0944 69.3235 62.4794 69.3235C61.6872 69.3235 61.239 69.8551 61.239 70.5744V74.2539H60.3321V70.3867C60.3321 69.7509 59.8735 69.3235 59.2272 69.3235C58.5497 69.3235 57.9555 69.8968 57.9555 70.7203V74.2539H57.0591ZM71.0998 74.3581C69.4215 74.3581 68.4626 72.9509 68.4626 70.4805C68.4626 68.031 69.4424 66.6029 71.0998 66.6029C72.7571 66.6029 73.7369 68.031 73.7369 70.4805C73.7369 72.9509 72.7675 74.3581 71.0998 74.3581ZM71.0998 73.5243C72.1838 73.5243 72.8197 72.4298 72.8197 70.4805C72.8197 68.5313 72.1838 67.416 71.0998 67.416C70.0157 67.416 69.3694 68.5313 69.3694 70.4805C69.3694 72.4298 70.0053 73.5243 71.0998 73.5243ZM77.6562 66.7072V74.2539H76.7077V67.687H76.666L74.8314 68.9066V67.958L76.7077 66.7072H77.6562Z" fill="var(--sol-element-primary)"/>
<path d="M83.6768 66.7522C83.6768 66.0153 84.2741 65.418 85.011 65.418H93.0164C93.7532 65.418 94.3506 66.0153 94.3506 66.7522V74.7576C94.3506 75.4944 93.7532 76.0918 93.0164 76.0918H85.011C84.2741 76.0918 83.6768 75.4944 83.6768 74.7576V66.7522Z" fill="var(--sol-secondary-container)"/>
<path d="M87.071 73.7539V73.019L89.0723 71.0881C89.643 70.5174 89.9401 70.1812 89.9401 69.7043C89.9401 69.1805 89.5257 68.8444 88.9707 68.8444C88.3843 68.8444 88.0091 69.2118 88.0169 69.7825H87.0475C87.0397 68.7115 87.8449 68.0157 88.9785 68.0157C90.1355 68.0157 90.9173 68.7036 90.9173 69.6574C90.9173 70.2985 90.6046 70.8144 89.4945 71.862L88.486 72.8627V72.9018H91.0033V73.7539H87.071Z" fill="var(--sol-element-brand-variant)"/>
<mask id="mask1_1318_130416" style="mask-type:alpha" maskUnits="userSpaceOnUse" x="189" y="64" width="14" height="14">
<path d="M199.426 69.3826L196.09 72.7181C195.927 72.881 195.663 72.881 195.501 72.7181L192.165 69.3826L192.755 68.793L195.795 71.8337L198.836 68.793L199.426 69.3826Z" fill="var(--sol-element-primary)"/>
</mask>
<g mask="url(#mask1_1318_130416)">
<rect x="189.124" y="64.084" width="13.3423" height="13.3423" fill="var(--sol-element-quaternary)"/>
</g>
<rect width="213.14" height="32.0215" transform="translate(0 86.7656)" fill="var(--sol-element-primary)" fill-opacity="0.04"/>
<path d="M45.5199 98.7287V106.275H44.6234L40.5374 100.396H40.4644V106.275H39.5263V98.7287H40.4331L44.5192 104.618H44.5922V98.7287H45.5199ZM49.4496 106.39C47.8131 106.39 46.802 105.233 46.802 103.492C46.802 101.752 47.8235 100.542 49.3662 100.542C50.5545 100.542 51.8053 101.272 51.8053 103.367V103.742H47.6984C47.7401 104.941 48.4385 105.598 49.4496 105.598C50.1271 105.598 50.5545 105.306 50.763 104.952H51.722C51.4509 105.806 50.617 106.39 49.4496 106.39ZM47.7088 102.982H50.8985C50.8985 102.033 50.2939 101.335 49.3662 101.335C48.3864 101.335 47.761 102.106 47.7088 102.982ZM56.1207 102.085C55.9956 101.616 55.6412 101.303 54.9741 101.303C54.2757 101.303 53.7754 101.679 53.7754 102.158C53.7754 102.533 54.0777 102.794 54.7448 102.95L55.5891 103.159C56.6002 103.398 57.1006 103.899 57.1006 104.691C57.1006 105.671 56.2979 106.39 54.8803 106.39C53.6086 106.39 52.8477 105.827 52.7018 104.795H53.6399C53.7441 105.348 54.1507 105.608 54.8595 105.608C55.6621 105.608 56.1729 105.275 56.1729 104.743C56.1729 104.347 55.8914 104.076 55.2451 103.93L54.3904 103.732C53.4002 103.503 52.879 102.961 52.879 102.21C52.879 101.241 53.7233 100.542 54.9741 100.542C56.1416 100.542 56.8817 101.168 56.9963 102.085H56.1207ZM60.7384 100.615V101.366H59.5501V104.649C59.5501 105.379 59.9045 105.494 60.2902 105.494C60.457 105.494 60.6863 105.483 60.8218 105.473V106.307C60.6863 106.328 60.457 106.348 60.1964 106.348C59.4459 106.348 58.6433 105.879 58.6433 104.879V101.366H57.7885V100.615H58.6433V99.2603H59.5501V100.615H60.7384ZM64.2199 106.39C62.5834 106.39 61.5723 105.233 61.5723 103.492C61.5723 101.752 62.5938 100.542 64.1365 100.542C65.3248 100.542 66.5757 101.272 66.5757 103.367V103.742H62.4687C62.5104 104.941 63.2088 105.598 64.2199 105.598C64.8975 105.598 65.3248 105.306 65.5333 104.952H66.4923C66.2213 105.806 65.3874 106.39 64.2199 106.39ZM62.4792 102.982H65.6688C65.6688 102.033 65.0642 101.335 64.1365 101.335C63.1567 101.335 62.5313 102.106 62.4792 102.982ZM69.88 106.39C68.4728 106.39 67.4721 105.254 67.4721 103.461C67.4721 101.668 68.4728 100.542 69.8904 100.542C70.9849 100.542 71.3393 101.209 71.5269 101.512H71.5894V98.7287H72.4963V106.275H71.6207V105.41H71.5269C71.3288 105.723 70.964 106.39 69.88 106.39ZM70.005 105.587C71.037 105.587 71.6207 104.712 71.6207 103.44C71.6207 102.189 71.0578 101.345 70.005 101.345C68.921 101.345 68.379 102.262 68.379 103.44C68.379 104.649 68.9314 105.587 70.005 105.587ZM81.9922 101.105C81.7733 100.063 80.8769 99.5 79.8867 99.5C78.5212 99.5 77.458 100.553 77.458 102.502C77.458 104.451 78.5212 105.504 79.8867 105.504C80.8769 105.504 81.7629 104.941 81.9922 103.909H82.9304C82.6594 105.452 81.4189 106.38 79.8867 106.38C77.9479 106.38 76.5511 104.889 76.5511 102.502C76.5511 100.115 77.9479 98.6244 79.8867 98.6244C81.4085 98.6244 82.6489 99.5417 82.9304 101.105H81.9922ZM85.0255 102.877V106.275H84.1291V98.7287H85.0255V101.501H85.0985C85.3591 100.918 85.8698 100.542 86.7663 100.542C87.9233 100.542 88.6947 101.23 88.6947 102.679V106.275H87.7982V102.742C87.7982 101.856 87.3083 101.345 86.4953 101.345C85.6509 101.345 85.0255 101.897 85.0255 102.877ZM90.1331 106.275V100.615H91.0296V106.275H90.1331ZM90.5813 99.6772C90.2374 99.6772 89.9559 99.4166 89.9559 99.0831C89.9559 98.7495 90.2374 98.4889 90.5813 98.4889C90.9253 98.4889 91.2172 98.7495 91.2172 99.0831C91.2172 99.4166 90.9253 99.6772 90.5813 99.6772ZM93.354 98.7287V106.275H92.4576V98.7287H93.354ZM96.9189 106.39C95.5117 106.39 94.5111 105.254 94.5111 103.461C94.5111 101.668 95.5117 100.542 96.9293 100.542C98.0238 100.542 98.3782 101.209 98.5659 101.512H98.6284V98.7287H99.5353V106.275H98.6597V105.41H98.5659C98.3678 105.723 98.003 106.39 96.9189 106.39ZM97.044 105.587C98.0759 105.587 98.6597 104.712 98.6597 103.44C98.6597 102.189 98.0968 101.345 97.044 101.345C95.9599 101.345 95.4179 102.262 95.4179 103.44C95.4179 104.649 95.9704 105.587 97.044 105.587ZM103.767 106.275V100.615H104.664V106.275H103.767ZM104.215 99.6772C103.871 99.6772 103.59 99.4166 103.59 99.0831C103.59 98.7495 103.871 98.4889 104.215 98.4889C104.559 98.4889 104.851 98.7495 104.851 99.0831C104.851 99.4166 104.559 99.6772 104.215 99.6772ZM108.562 100.615V101.366H107.374V104.649C107.374 105.379 107.728 105.494 108.114 105.494C108.281 105.494 108.51 105.483 108.646 105.473V106.307C108.51 106.328 108.281 106.348 108.02 106.348C107.27 106.348 106.467 105.879 106.467 104.879V101.366H105.612V100.615H106.467V99.2603H107.374V100.615H108.562ZM112.044 106.39C110.407 106.39 109.396 105.233 109.396 103.492C109.396 101.752 110.418 100.542 111.96 100.542C113.149 100.542 114.399 101.272 114.399 103.367V103.742H110.292C110.334 104.941 111.033 105.598 112.044 105.598C112.721 105.598 113.149 105.306 113.357 104.952H114.316C114.045 105.806 113.211 106.39 112.044 106.39ZM110.303 102.982H113.493C113.493 102.033 112.888 101.335 111.96 101.335C110.98 101.335 110.355 102.106 110.303 102.982ZM115.567 106.275V100.615H116.432V101.501H116.505C116.745 100.897 117.287 100.542 118.027 100.542C118.767 100.542 119.267 100.897 119.538 101.501H119.601C119.893 100.918 120.487 100.542 121.3 100.542C122.311 100.542 123.03 101.157 123.03 102.492V106.275H122.134V102.502C122.134 101.668 121.602 101.345 120.987 101.345C120.195 101.345 119.747 101.877 119.747 102.596V106.275H118.84V102.408C118.84 101.772 118.381 101.345 117.735 101.345C117.057 101.345 116.463 101.918 116.463 102.742V106.275H115.567ZM129.607 106.38C127.929 106.38 126.97 104.972 126.97 102.502C126.97 100.052 127.95 98.6244 129.607 98.6244C131.265 98.6244 132.245 100.052 132.245 102.502C132.245 104.972 131.275 106.38 129.607 106.38ZM129.607 105.546C130.692 105.546 131.327 104.451 131.327 102.502C131.327 100.553 130.692 99.4375 129.607 99.4375C128.523 99.4375 127.877 100.553 127.877 102.502C127.877 104.451 128.513 105.546 129.607 105.546ZM136.164 98.7287V106.275H135.215V99.7085H135.174L133.339 100.928V99.9795L135.215 98.7287H136.164Z" fill="var(--sol-element-primary)"/>
<rect width="213" height="0.667096" transform="translate(0 86.7656)" fill="var(--sol-border-normal-variant)"/>
<rect width="213.14" height="32.0215" transform="translate(0 118.787)" fill="var(--sol-element-primary)" fill-opacity="0.04"/>
<path d="M45.5199 130.75V138.297H44.6234L40.5374 132.418H40.4644V138.297H39.5263V130.75H40.4331L44.5192 136.64H44.5922V130.75H45.5199ZM49.4496 138.412C47.8131 138.412 46.802 137.255 46.802 135.514C46.802 133.773 47.8235 132.564 49.3662 132.564C50.5545 132.564 51.8053 133.294 51.8053 135.389V135.764H47.6984C47.7401 136.963 48.4385 137.619 49.4496 137.619C50.1271 137.619 50.5545 137.327 50.763 136.973H51.722C51.4509 137.828 50.617 138.412 49.4496 138.412ZM47.7088 135.003H50.8985C50.8985 134.054 50.2939 133.356 49.3662 133.356C48.3864 133.356 47.761 134.127 47.7088 135.003ZM56.1207 134.107C55.9956 133.638 55.6412 133.325 54.9741 133.325C54.2757 133.325 53.7754 133.7 53.7754 134.18C53.7754 134.555 54.0777 134.815 54.7448 134.972L55.5891 135.18C56.6002 135.42 57.1006 135.92 57.1006 136.712C57.1006 137.692 56.2979 138.412 54.8803 138.412C53.6086 138.412 52.8477 137.849 52.7018 136.817H53.6399C53.7441 137.369 54.1507 137.63 54.8595 137.63C55.6621 137.63 56.1729 137.296 56.1729 136.765C56.1729 136.368 55.8914 136.097 55.2451 135.952L54.3904 135.754C53.4002 135.524 52.879 134.982 52.879 134.232C52.879 133.262 53.7233 132.564 54.9741 132.564C56.1416 132.564 56.8817 133.189 56.9963 134.107H56.1207ZM60.7384 132.637V133.387H59.5501V136.671C59.5501 137.4 59.9045 137.515 60.2902 137.515C60.457 137.515 60.6863 137.505 60.8218 137.494V138.328C60.6863 138.349 60.457 138.37 60.1964 138.37C59.4459 138.37 58.6433 137.901 58.6433 136.9V133.387H57.7885V132.637H58.6433V131.282H59.5501V132.637H60.7384ZM64.2199 138.412C62.5834 138.412 61.5723 137.255 61.5723 135.514C61.5723 133.773 62.5938 132.564 64.1365 132.564C65.3248 132.564 66.5757 133.294 66.5757 135.389V135.764H62.4687C62.5104 136.963 63.2088 137.619 64.2199 137.619C64.8975 137.619 65.3248 137.327 65.5333 136.973H66.4923C66.2213 137.828 65.3874 138.412 64.2199 138.412ZM62.4792 135.003H65.6688C65.6688 134.054 65.0642 133.356 64.1365 133.356C63.1567 133.356 62.5313 134.127 62.4792 135.003ZM69.88 138.412C68.4728 138.412 67.4721 137.275 67.4721 135.482C67.4721 133.69 68.4728 132.564 69.8904 132.564C70.9849 132.564 71.3393 133.231 71.5269 133.533H71.5894V130.75H72.4963V138.297H71.6207V137.432H71.5269C71.3288 137.744 70.964 138.412 69.88 138.412ZM70.005 137.609C71.037 137.609 71.6207 136.733 71.6207 135.462C71.6207 134.211 71.0578 133.366 70.005 133.366C68.921 133.366 68.379 134.284 68.379 135.462C68.379 136.671 68.9314 137.609 70.005 137.609ZM81.9922 133.127C81.7733 132.084 80.8769 131.521 79.8867 131.521C78.5212 131.521 77.458 132.574 77.458 134.524C77.458 136.473 78.5212 137.526 79.8867 137.526C80.8769 137.526 81.7629 136.963 81.9922 135.931H82.9304C82.6594 137.473 81.4189 138.401 79.8867 138.401C77.9479 138.401 76.5511 136.911 76.5511 134.524C76.5511 132.136 77.9479 130.646 79.8867 130.646C81.4085 130.646 82.6489 131.563 82.9304 133.127H81.9922ZM85.0255 134.899V138.297H84.1291V130.75H85.0255V133.523H85.0985C85.3591 132.939 85.8698 132.564 86.7663 132.564C87.9233 132.564 88.6947 133.252 88.6947 134.701V138.297H87.7982V134.763C87.7982 133.877 87.3083 133.366 86.4953 133.366C85.6509 133.366 85.0255 133.919 85.0255 134.899ZM90.1331 138.297V132.637H91.0296V138.297H90.1331ZM90.5813 131.699C90.2374 131.699 89.9559 131.438 89.9559 131.105C89.9559 130.771 90.2374 130.51 90.5813 130.51C90.9253 130.51 91.2172 130.771 91.2172 131.105C91.2172 131.438 90.9253 131.699 90.5813 131.699ZM93.354 130.75V138.297H92.4576V130.75H93.354ZM96.9189 138.412C95.5117 138.412 94.5111 137.275 94.5111 135.482C94.5111 133.69 95.5117 132.564 96.9293 132.564C98.0238 132.564 98.3782 133.231 98.5659 133.533H98.6284V130.75H99.5353V138.297H98.6597V137.432H98.5659C98.3678 137.744 98.003 138.412 96.9189 138.412ZM97.044 137.609C98.0759 137.609 98.6597 136.733 98.6597 135.462C98.6597 134.211 98.0968 133.366 97.044 133.366C95.9599 133.366 95.4179 134.284 95.4179 135.462C95.4179 136.671 95.9704 137.609 97.044 137.609ZM103.767 138.297V132.637H104.664V138.297H103.767ZM104.215 131.699C103.871 131.699 103.59 131.438 103.59 131.105C103.59 130.771 103.871 130.51 104.215 130.51C104.559 130.51 104.851 130.771 104.851 131.105C104.851 131.438 104.559 131.699 104.215 131.699ZM108.562 132.637V133.387H107.374V136.671C107.374 137.4 107.728 137.515 108.114 137.515C108.281 137.515 108.51 137.505 108.646 137.494V138.328C108.51 138.349 108.281 138.37 108.02 138.37C107.27 138.37 106.467 137.901 106.467 136.9V133.387H105.612V132.637H106.467V131.282H107.374V132.637H108.562ZM112.044 138.412C110.407 138.412 109.396 137.255 109.396 135.514C109.396 133.773 110.418 132.564 111.96 132.564C113.149 132.564 114.399 133.294 114.399 135.389V135.764H110.292C110.334 136.963 111.033 137.619 112.044 137.619C112.721 137.619 113.149 137.327 113.357 136.973H114.316C114.045 137.828 113.211 138.412 112.044 138.412ZM110.303 135.003H113.493C113.493 134.054 112.888 133.356 111.96 133.356C110.98 133.356 110.355 134.127 110.303 135.003ZM115.567 138.297V132.637H116.432V133.523H116.505C116.745 132.918 117.287 132.564 118.027 132.564C118.767 132.564 119.267 132.918 119.538 133.523H119.601C119.893 132.939 120.487 132.564 121.3 132.564C122.311 132.564 123.03 133.179 123.03 134.513V138.297H122.134V134.524C122.134 133.69 121.602 133.366 120.987 133.366C120.195 133.366 119.747 133.898 119.747 134.617V138.297H118.84V134.43C118.84 133.794 118.381 133.366 117.735 133.366C117.057 133.366 116.463 133.94 116.463 134.763V138.297H115.567ZM129.607 138.401C127.929 138.401 126.97 136.994 126.97 134.524C126.97 132.074 127.95 130.646 129.607 130.646C131.265 130.646 132.245 132.074 132.245 134.524C132.245 136.994 131.275 138.401 129.607 138.401ZM129.607 137.567C130.692 137.567 131.327 136.473 131.327 134.524C131.327 132.574 130.692 131.459 129.607 131.459C128.523 131.459 127.877 132.574 127.877 134.524C127.877 136.473 128.513 137.567 129.607 137.567ZM133.496 138.297L133.485 137.609L136.06 134.899C136.956 133.95 137.384 133.439 137.384 132.741C137.384 131.97 136.727 131.459 135.883 131.459C134.986 131.459 134.413 132.032 134.413 132.877H133.527C133.516 131.542 134.548 130.646 135.914 130.646C137.279 130.646 138.259 131.563 138.259 132.741C138.259 133.585 137.863 134.242 136.529 135.618L134.798 137.4V137.463H138.395V138.297H133.496Z" fill="var(--sol-element-primary)"/>
<rect x="10.6738" y="160.818" width="170.45" height="12" rx="2" fill="var(--sol-element-primary)" fill-opacity="0.08"/>
<mask id="mask2_1318_130416" style="mask-type:alpha" maskUnits="userSpaceOnUse" x="189" y="160" width="21" height="21">
<path d="M197.758 166.525C197.921 166.688 197.921 166.952 197.758 167.115L194.423 170.45L193.833 169.861L196.874 166.82L193.833 163.779L194.423 163.189L197.758 166.525Z" fill="var(--sol-element-primary)"/>
</mask>
<g mask="url(#mask2_1318_130416)">
<rect x="189.124" y="160.148" width="13.3423" height="13.3423" fill="var(--sol-element-quaternary)"/>
</g>
<path d="M213.141 0.334078C213.141 0.149572 213.29 1.3076e-08 213.475 2.92061e-08C213.659 4.53362e-08 213.809 0.149572 213.809 0.334079L213.809 299.666C213.809 299.85 213.659 300 213.475 300C213.29 300 213.141 299.85 213.141 299.666L213.141 0.334078Z" fill="var(--sol-border-solid-variant)"/>
</g>
</g>
<defs>
<clipPath id="clip0_1318_130416">
<rect width="288" height="192" fill="var(--sol-surface)"/>
</clipPath>
<clipPath id="clip1_1318_130416">
<rect width="213.808" height="300" fill="var(--sol-surface)"/>
</clipPath>
</defs>
</svg>
