<svg width="288" height="192" viewBox="0 0 288 192" fill="none" xmlns="http://www.w3.org/2000/svg">
<style>
:root {
  --sol-primary: #282363;
  --sol-element-brand-variant: #3a3480;
  --sol-fill-active: #4d469a;
  --sol-selected-container-variant: #f5f4fd;
  --sol-surface: #ffffff;
  --sol-surface-base-variant: #f5f5f5;
  --sol-secondary-container: #e8e6f8;
  --sol-element-primary: #161616;
  --sol-element-secondary: #484848;
  --sol-element-tertiary: #636363;
  --sol-element-quaternary: #858585;
  --sol-border-brand: #7b74c4;
  --sol-border-normal-variant: rgba(0, 0, 0, 0.08);
  --sol-border-solid-variant: #e0e0e0;
  --sol-border-solid: #d0d0d0;
  --sol-error: #e76067;
  --sol-error-container: #fdeaeb;
  --sol-static-white: #ffffff;
  --sol-static-black: #000000;
  --color-brand-400: #6058b4;
  --color-teal-500: #05a09a;
  --color-green-500: #35a142;
  --color-yellow-500: #d4ae00;
  --color-orange-500: #e06418;
  --color-blue-500: #3e9bca;
  --color-indigo-500: #3d5ed6;
  --color-pink-500: #d03e94;
}
@media (prefers-color-scheme: dark) {
  :root {
    --sol-primary: #9791d4;
    --sol-element-brand-variant: #ffffff;
    --sol-fill-active: #7b74c4;
    --sol-selected-container-variant: rgba(0, 0, 0, 0.08);
    --sol-surface: #161616;
    --sol-surface-base-variant: #1c1c1c;
    --sol-secondary-container: rgba(255, 255, 255, 0.16);
    --sol-element-primary: #ffffff;
    --sol-element-secondary: rgba(255, 255, 255, 0.8);
    --sol-element-tertiary: rgba(255, 255, 255, 0.6);
    --sol-element-quaternary: rgba(255, 255, 255, 0.5);
    --sol-border-brand: #7b74c4;
    --sol-border-normal-variant: rgba(255, 255, 255, 0.08);
    --sol-border-solid-variant: #3d3d3d;
    --sol-border-solid: #333333;
    --sol-error: #ee7a80;
    --sol-error-container: rgba(231, 96, 103, 0.24);
    --sol-static-white: #ffffff;
    --sol-static-black: #000000;
  }
}
</style>
<g clip-path="url(#clip0_1248_157134)">
<rect width="288" height="166" transform="translate(0 45)" fill="var(--sol-surface)"/>
<g clip-path="url(#clip1_1248_157134)">
<rect width="288" height="36" transform="translate(0 45)" fill="var(--sol-error)"/>
<path d="M42.4587 62.9993C42.4587 59.4325 39.5672 56.541 36.0003 56.541C32.4335 56.541 29.542 59.4325 29.542 62.9993C29.542 66.5662 32.4335 69.4577 36.0003 69.4577C39.5672 69.4577 42.4587 66.5662 42.4587 62.9993ZM35.3753 64.9997H36.6253V66.2806H35.3753V64.9997ZM35.3753 58.8327H36.6253V63.6243H35.3753V58.8327ZM43.7087 62.9993C43.7087 67.2565 40.2575 70.7077 36.0003 70.7077C31.7431 70.7077 28.292 67.2565 28.292 62.9993C28.292 58.7422 31.7431 55.291 36.0003 55.291C40.2575 55.291 43.7087 58.7422 43.7087 62.9993Z" fill="var(--sol-surface)"/>
<path d="M55.0043 69V58.8182H56.8487V67.4538H61.3331V69H55.0043ZM66.1854 69.1491C65.4396 69.1491 64.7933 68.9851 64.2464 68.657C63.6996 68.3288 63.2753 67.8698 62.9737 67.2798C62.6754 66.6899 62.5263 66.0005 62.5263 65.2116C62.5263 64.4228 62.6754 63.7318 62.9737 63.1385C63.2753 62.5452 63.6996 62.0845 64.2464 61.7564C64.7933 61.4283 65.4396 61.2642 66.1854 61.2642C66.9311 61.2642 67.5774 61.4283 68.1243 61.7564C68.6712 62.0845 69.0938 62.5452 69.392 63.1385C69.6937 63.7318 69.8445 64.4228 69.8445 65.2116C69.8445 66.0005 69.6937 66.6899 69.392 67.2798C69.0938 67.8698 68.6712 68.3288 68.1243 68.657C67.5774 68.9851 66.9311 69.1491 66.1854 69.1491ZM66.1953 67.7074C66.5997 67.7074 66.9377 67.5964 67.2095 67.3743C67.4813 67.1489 67.6835 66.8473 67.8161 66.4695C67.9519 66.0916 68.0199 65.6707 68.0199 65.2067C68.0199 64.7393 67.9519 64.3168 67.8161 63.9389C67.6835 63.5578 67.4813 63.2545 67.2095 63.0291C66.9377 62.8037 66.5997 62.6911 66.1953 62.6911C65.781 62.6911 65.4363 62.8037 65.1612 63.0291C64.8894 63.2545 64.6856 63.5578 64.5497 63.9389C64.4171 64.3168 64.3509 64.7393 64.3509 65.2067C64.3509 65.6707 64.4171 66.0916 64.5497 66.4695C64.6856 66.8473 64.8894 67.1489 65.1612 67.3743C65.4363 67.5964 65.781 67.7074 66.1953 67.7074ZM71.372 69V61.3636H73.117V62.6364H73.1966C73.3358 62.1955 73.5744 61.8558 73.9125 61.6172C74.2538 61.3752 74.6433 61.2543 75.0808 61.2543C75.1802 61.2543 75.2913 61.2592 75.4139 61.2692C75.5398 61.2758 75.6442 61.2874 75.7271 61.304V62.9595C75.6509 62.933 75.5299 62.9098 75.3642 62.8899C75.2018 62.8667 75.0443 62.8551 74.8919 62.8551C74.5637 62.8551 74.2688 62.9264 74.0069 63.0689C73.7484 63.2081 73.5446 63.402 73.3954 63.6506C73.2463 63.8991 73.1717 64.1858 73.1717 64.5107V69H71.372ZM79.989 69.1491C79.2234 69.1491 78.5621 68.9901 78.0053 68.6719C77.4518 68.3504 77.0259 67.8963 76.7276 67.3097C76.4293 66.7197 76.2802 66.0253 76.2802 65.2266C76.2802 64.4411 76.4293 63.7517 76.7276 63.1584C77.0292 62.5618 77.4502 62.0978 77.9904 61.7663C78.5307 61.4316 79.1654 61.2642 79.8945 61.2642C80.3652 61.2642 80.8093 61.3404 81.2269 61.4929C81.6478 61.642 82.0191 61.8741 82.3406 62.1889C82.6654 62.5038 82.9206 62.9048 83.1062 63.392C83.2918 63.8759 83.3846 64.4527 83.3846 65.1222V65.674H77.1254V64.4609H81.6594C81.6561 64.1162 81.5816 63.8097 81.4357 63.5412C81.2899 63.2694 81.0861 63.0556 80.8242 62.8999C80.5657 62.7441 80.2641 62.6662 79.9194 62.6662C79.5515 62.6662 79.2283 62.7557 78.9499 62.9347C78.6715 63.1103 78.4544 63.3423 78.2987 63.6307C78.1462 63.9157 78.0683 64.2289 78.065 64.5703V65.6293C78.065 66.0734 78.1462 66.4545 78.3086 66.7727C78.471 67.0876 78.698 67.3295 78.9897 67.4986C79.2814 67.6643 79.6228 67.7472 80.0138 67.7472C80.2757 67.7472 80.5127 67.7107 80.7248 67.6378C80.9369 67.5616 81.1209 67.4505 81.2766 67.3047C81.4324 67.1589 81.5501 66.9782 81.6296 66.7628L83.31 66.9517C83.204 67.3958 83.0018 67.7836 82.7035 68.1151C82.4085 68.4432 82.0307 68.6984 81.57 68.8807C81.1093 69.0597 80.5823 69.1491 79.989 69.1491ZM84.9071 69V61.3636H86.6273V62.6612H86.7168C86.8759 62.2237 87.1394 61.8823 87.5073 61.6371C87.8752 61.3885 88.3143 61.2642 88.8248 61.2642C89.3418 61.2642 89.7776 61.3902 90.1323 61.642C90.4902 61.8906 90.7421 62.2304 90.888 62.6612H90.9675C91.1365 62.237 91.4216 61.8989 91.8226 61.647C92.227 61.3918 92.7059 61.2642 93.2594 61.2642C93.9621 61.2642 94.5355 61.4863 94.9796 61.9304C95.4237 62.3745 95.6458 63.0225 95.6458 63.8743V69H93.8411V64.1527C93.8411 63.6787 93.7151 63.3324 93.4632 63.1136C93.2114 62.8916 92.9031 62.7805 92.5385 62.7805C92.1043 62.7805 91.7646 62.9164 91.5194 63.1882C91.2774 63.4567 91.1564 63.8063 91.1564 64.2372V69H89.3915V64.0781C89.3915 63.6837 89.2722 63.3688 89.0336 63.1335C88.7982 62.8982 88.49 62.7805 88.1088 62.7805C87.8503 62.7805 87.615 62.8468 87.4029 62.9794C87.1908 63.1087 87.0217 63.2926 86.8958 63.5312C86.7698 63.7666 86.7069 64.0417 86.7069 64.3565V69H84.9071ZM100.944 69V61.3636H102.744V69H100.944ZM101.849 60.2798C101.564 60.2798 101.319 60.1854 101.113 59.9964C100.908 59.8042 100.805 59.5739 100.805 59.3054C100.805 59.0336 100.908 58.8033 101.113 58.6143C101.319 58.4221 101.564 58.326 101.849 58.326C102.137 58.326 102.383 58.4221 102.585 58.6143C102.79 58.8033 102.893 59.0336 102.893 59.3054C102.893 59.5739 102.79 59.8042 102.585 59.9964C102.383 60.1854 102.137 60.2798 101.849 60.2798ZM104.595 71.8636V61.3636H106.365V62.6264H106.469C106.562 62.4408 106.693 62.2436 106.862 62.0348C107.031 61.8227 107.259 61.642 107.548 61.4929C107.836 61.3404 108.204 61.2642 108.651 61.2642C109.241 61.2642 109.773 61.415 110.247 61.7166C110.725 62.0149 111.102 62.4574 111.381 63.044C111.663 63.6274 111.803 64.3433 111.803 65.1918C111.803 66.0303 111.666 66.7429 111.391 67.3295C111.116 67.9162 110.741 68.3636 110.267 68.6719C109.793 68.9801 109.256 69.1342 108.656 69.1342C108.219 69.1342 107.856 69.0613 107.568 68.9155C107.279 68.7696 107.047 68.594 106.872 68.3885C106.699 68.1797 106.565 67.9825 106.469 67.7969H106.394V71.8636H104.595ZM106.36 65.1818C106.36 65.6757 106.429 66.1082 106.568 66.4794C106.711 66.8506 106.915 67.1406 107.18 67.3494C107.448 67.5549 107.773 67.6577 108.154 67.6577C108.552 67.6577 108.885 67.5516 109.154 67.3395C109.422 67.1241 109.624 66.8307 109.76 66.4595C109.899 66.085 109.969 65.6591 109.969 65.1818C109.969 64.7079 109.901 64.2869 109.765 63.919C109.629 63.5511 109.427 63.2628 109.159 63.054C108.89 62.8452 108.555 62.7408 108.154 62.7408C107.77 62.7408 107.443 62.8419 107.175 63.044C106.906 63.2462 106.703 63.5296 106.563 63.8942C106.427 64.2588 106.36 64.688 106.36 65.1818ZM119.38 63.3821L117.74 63.5611C117.693 63.3954 117.612 63.2396 117.496 63.0938C117.383 62.9479 117.231 62.8303 117.039 62.7408C116.846 62.6513 116.611 62.6065 116.333 62.6065C115.958 62.6065 115.643 62.6877 115.388 62.8501C115.136 63.0125 115.012 63.223 115.015 63.4815C115.012 63.7036 115.093 63.8842 115.259 64.0234C115.428 64.1626 115.706 64.277 116.094 64.3665L117.396 64.6449C118.119 64.8007 118.656 65.0476 119.007 65.3857C119.362 65.7237 119.541 66.1662 119.544 66.7131C119.541 67.1937 119.4 67.6179 119.122 67.9858C118.847 68.3504 118.464 68.6354 117.973 68.8409C117.483 69.0464 116.919 69.1491 116.283 69.1491C115.348 69.1491 114.596 68.9536 114.026 68.5625C113.456 68.1681 113.116 67.6196 113.007 66.9169L114.762 66.7479C114.841 67.0926 115.01 67.3527 115.269 67.5284C115.527 67.7041 115.864 67.7919 116.278 67.7919C116.705 67.7919 117.048 67.7041 117.307 67.5284C117.569 67.3527 117.7 67.1357 117.7 66.8771C117.7 66.6584 117.615 66.4777 117.446 66.3352C117.28 66.1927 117.022 66.0833 116.671 66.0071L115.368 65.7337C114.636 65.5812 114.094 65.3243 113.742 64.9631C113.391 64.5985 113.217 64.1378 113.22 63.581C113.217 63.1103 113.345 62.7027 113.603 62.358C113.865 62.0099 114.228 61.7415 114.692 61.5526C115.159 61.3603 115.698 61.2642 116.308 61.2642C117.203 61.2642 117.907 61.4548 118.421 61.8359C118.938 62.2171 119.258 62.7325 119.38 63.3821ZM125.895 65.7884V61.3636H127.695V69H125.95V67.6428H125.871C125.698 68.0703 125.415 68.42 125.02 68.6918C124.629 68.9635 124.147 69.0994 123.574 69.0994C123.073 69.0994 122.631 68.9884 122.246 68.7663C121.865 68.541 121.567 68.2145 121.351 67.7869C121.136 67.3561 121.028 66.8357 121.028 66.2259V61.3636H122.828V65.9474C122.828 66.4313 122.961 66.8158 123.226 67.1009C123.491 67.3859 123.839 67.5284 124.27 67.5284C124.535 67.5284 124.792 67.4638 125.04 67.3345C125.289 67.2053 125.493 67.013 125.652 66.7578C125.814 66.4993 125.895 66.1761 125.895 65.7884ZM129.546 69V61.3636H131.266V62.6612H131.355C131.515 62.2237 131.778 61.8823 132.146 61.6371C132.514 61.3885 132.953 61.2642 133.463 61.2642C133.98 61.2642 134.416 61.3902 134.771 61.642C135.129 61.8906 135.381 62.2304 135.527 62.6612H135.606C135.775 62.237 136.06 61.8989 136.461 61.647C136.866 61.3918 137.345 61.2642 137.898 61.2642C138.601 61.2642 139.174 61.4863 139.618 61.9304C140.062 62.3745 140.284 63.0225 140.284 63.8743V69H138.48V64.1527C138.48 63.6787 138.354 63.3324 138.102 63.1136C137.85 62.8916 137.542 62.7805 137.177 62.7805C136.743 62.7805 136.403 62.9164 136.158 63.1882C135.916 63.4567 135.795 63.8063 135.795 64.2372V69H134.03V64.0781C134.03 63.6837 133.911 63.3688 133.672 63.1335C133.437 62.8982 133.129 62.7805 132.748 62.7805C132.489 62.7805 132.254 62.8468 132.042 62.9794C131.829 63.1087 131.66 63.2926 131.534 63.5312C131.408 63.7666 131.346 64.0417 131.346 64.3565V69H129.546ZM148.417 69.1342C147.817 69.1342 147.28 68.9801 146.806 68.6719C146.332 68.3636 145.957 67.9162 145.682 67.3295C145.407 66.7429 145.27 66.0303 145.27 65.1918C145.27 64.3433 145.409 63.6274 145.687 63.044C145.969 62.4574 146.349 62.0149 146.826 61.7166C147.303 61.415 147.835 61.2642 148.422 61.2642C148.869 61.2642 149.237 61.3404 149.525 61.4929C149.814 61.642 150.042 61.8227 150.211 62.0348C150.381 62.2436 150.511 62.4408 150.604 62.6264H150.679V58.8182H152.483V69H150.714V67.7969H150.604C150.511 67.9825 150.377 68.1797 150.202 68.3885C150.026 68.594 149.794 68.7696 149.506 68.9155C149.217 69.0613 148.854 69.1342 148.417 69.1342ZM148.919 67.6577C149.3 67.6577 149.625 67.5549 149.893 67.3494C150.162 67.1406 150.366 66.8506 150.505 66.4794C150.644 66.1082 150.714 65.6757 150.714 65.1818C150.714 64.688 150.644 64.2588 150.505 63.8942C150.369 63.5296 150.167 63.2462 149.898 63.044C149.633 62.8419 149.307 62.7408 148.919 62.7408C148.518 62.7408 148.183 62.8452 147.915 63.054C147.646 63.2628 147.444 63.5511 147.308 63.919C147.172 64.2869 147.104 64.7079 147.104 65.1818C147.104 65.6591 147.172 66.085 147.308 66.4595C147.447 66.8307 147.651 67.1241 147.92 67.3395C148.191 67.5516 148.524 67.6577 148.919 67.6577ZM157.732 69.1491C156.987 69.1491 156.34 68.9851 155.793 68.657C155.246 68.3288 154.822 67.8698 154.521 67.2798C154.222 66.6899 154.073 66.0005 154.073 65.2116C154.073 64.4228 154.222 63.7318 154.521 63.1385C154.822 62.5452 155.246 62.0845 155.793 61.7564C156.34 61.4283 156.987 61.2642 157.732 61.2642C158.478 61.2642 159.124 61.4283 159.671 61.7564C160.218 62.0845 160.641 62.5452 160.939 63.1385C161.241 63.7318 161.391 64.4228 161.391 65.2116C161.391 66.0005 161.241 66.6899 160.939 67.2798C160.641 67.8698 160.218 68.3288 159.671 68.657C159.124 68.9851 158.478 69.1491 157.732 69.1491ZM157.742 67.7074C158.147 67.7074 158.485 67.5964 158.756 67.3743C159.028 67.1489 159.23 66.8473 159.363 66.4695C159.499 66.0916 159.567 65.6707 159.567 65.2067C159.567 64.7393 159.499 64.3168 159.363 63.9389C159.23 63.5578 159.028 63.2545 158.756 63.0291C158.485 62.8037 158.147 62.6911 157.742 62.6911C157.328 62.6911 156.983 62.8037 156.708 63.0291C156.436 63.2545 156.232 63.5578 156.097 63.9389C155.964 64.3168 155.898 64.7393 155.898 65.2067C155.898 65.6707 155.964 66.0916 156.097 66.4695C156.232 66.8473 156.436 67.1489 156.708 67.3743C156.983 67.5964 157.328 67.7074 157.742 67.7074ZM164.719 58.8182V69H162.919V58.8182H164.719ZM169.9 69.1491C169.154 69.1491 168.508 68.9851 167.961 68.657C167.414 68.3288 166.99 67.8698 166.689 67.2798C166.39 66.6899 166.241 66.0005 166.241 65.2116C166.241 64.4228 166.39 63.7318 166.689 63.1385C166.99 62.5452 167.414 62.0845 167.961 61.7564C168.508 61.4283 169.154 61.2642 169.9 61.2642C170.646 61.2642 171.292 61.4283 171.839 61.7564C172.386 62.0845 172.809 62.5452 173.107 63.1385C173.408 63.7318 173.559 64.4228 173.559 65.2116C173.559 66.0005 173.408 66.6899 173.107 67.2798C172.809 67.8698 172.386 68.3288 171.839 68.657C171.292 68.9851 170.646 69.1491 169.9 69.1491ZM169.91 67.7074C170.315 67.7074 170.653 67.5964 170.924 67.3743C171.196 67.1489 171.398 66.8473 171.531 66.4695C171.667 66.0916 171.735 65.6707 171.735 65.2067C171.735 64.7393 171.667 64.3168 171.531 63.9389C171.398 63.5578 171.196 63.2545 170.924 63.0291C170.653 62.8037 170.315 62.6911 169.91 62.6911C169.496 62.6911 169.151 62.8037 168.876 63.0291C168.604 63.2545 168.4 63.5578 168.265 63.9389C168.132 64.3168 168.066 64.7393 168.066 65.2067C168.066 65.6707 168.132 66.0916 168.265 66.4695C168.4 66.8473 168.604 67.1489 168.876 67.3743C169.151 67.5964 169.496 67.7074 169.91 67.7074ZM175.087 69V61.3636H176.832V62.6364H176.911C177.051 62.1955 177.289 61.8558 177.627 61.6172C177.969 61.3752 178.358 61.2543 178.796 61.2543C178.895 61.2543 179.006 61.2592 179.129 61.2692C179.255 61.2758 179.359 61.2874 179.442 61.304V62.9595C179.366 62.933 179.245 62.9098 179.079 62.8899C178.917 62.8667 178.759 62.8551 178.607 62.8551C178.279 62.8551 177.984 62.9264 177.722 63.0689C177.463 63.2081 177.259 63.402 177.11 63.6506C176.961 63.8991 176.887 64.1858 176.887 64.5107V69H175.087ZM190.146 63.3821L188.505 63.5611C188.459 63.3954 188.378 63.2396 188.262 63.0938C188.149 62.9479 187.996 62.8303 187.804 62.7408C187.612 62.6513 187.377 62.6065 187.098 62.6065C186.724 62.6065 186.409 62.6877 186.154 62.8501C185.902 63.0125 185.777 63.223 185.781 63.4815C185.777 63.7036 185.859 63.8842 186.024 64.0234C186.193 64.1626 186.472 64.277 186.86 64.3665L188.162 64.6449C188.885 64.8007 189.422 65.0476 189.773 65.3857C190.128 65.7237 190.307 66.1662 190.31 66.7131C190.307 67.1937 190.166 67.6179 189.887 67.9858C189.612 68.3504 189.229 68.6354 188.739 68.8409C188.248 69.0464 187.685 69.1491 187.048 69.1491C186.114 69.1491 185.361 68.9536 184.791 68.5625C184.221 68.1681 183.882 67.6196 183.772 66.9169L185.527 66.7479C185.607 67.0926 185.776 67.3527 186.034 67.5284C186.293 67.7041 186.629 67.7919 187.044 67.7919C187.471 67.7919 187.814 67.7041 188.073 67.5284C188.334 67.3527 188.465 67.1357 188.465 66.8771C188.465 66.6584 188.381 66.4777 188.212 66.3352C188.046 66.1927 187.788 66.0833 187.436 66.0071L186.134 65.7337C185.401 65.5812 184.859 65.3243 184.508 64.9631C184.157 64.5985 183.983 64.1378 183.986 63.581C183.983 63.1103 184.11 62.7027 184.369 62.358C184.631 62.0099 184.994 61.7415 185.458 61.5526C185.925 61.3603 186.463 61.2642 187.073 61.2642C187.968 61.2642 188.673 61.4548 189.186 61.8359C189.703 62.2171 190.023 62.7325 190.146 63.3821ZM191.794 69V61.3636H193.594V69H191.794ZM192.699 60.2798C192.414 60.2798 192.168 60.1854 191.963 59.9964C191.757 59.8042 191.655 59.5739 191.655 59.3054C191.655 59.0336 191.757 58.8033 191.963 58.6143C192.168 58.4221 192.414 58.326 192.699 58.326C192.987 58.326 193.232 58.4221 193.434 58.6143C193.64 58.8033 193.743 59.0336 193.743 59.3054C193.743 59.5739 193.64 59.8042 193.434 59.9964C193.232 60.1854 192.987 60.2798 192.699 60.2798ZM199.257 61.3636V62.7557H194.868V61.3636H199.257ZM195.951 59.5341H197.751V66.7031C197.751 66.9451 197.788 67.1307 197.86 67.2599C197.937 67.3859 198.036 67.4721 198.159 67.5185C198.281 67.5649 198.417 67.5881 198.566 67.5881C198.679 67.5881 198.782 67.5798 198.875 67.5632C198.971 67.5466 199.044 67.5317 199.093 67.5185L199.397 68.9254C199.301 68.9586 199.163 68.995 198.984 69.0348C198.808 69.0746 198.593 69.0978 198.338 69.1044C197.887 69.1177 197.481 69.0497 197.12 68.9006C196.758 68.7481 196.472 68.5128 196.26 68.1946C196.051 67.8764 195.948 67.4787 195.951 67.0014V59.5341ZM206.433 69.1541C205.949 69.1541 205.513 69.0679 205.125 68.8956C204.741 68.7199 204.436 68.4614 204.21 68.12C203.988 67.7786 203.877 67.3577 203.877 66.8572C203.877 66.4264 203.957 66.0701 204.116 65.7884C204.275 65.5066 204.492 65.2812 204.767 65.1122C205.042 64.9432 205.352 64.8156 205.697 64.7294C206.045 64.6399 206.405 64.5753 206.776 64.5355C207.223 64.4891 207.586 64.4477 207.865 64.4112C208.143 64.3714 208.345 64.3118 208.471 64.2322C208.6 64.1494 208.665 64.0218 208.665 63.8494V63.8196C208.665 63.4451 208.554 63.1551 208.332 62.9496C208.11 62.7441 207.79 62.6413 207.372 62.6413C206.932 62.6413 206.582 62.7375 206.323 62.9297C206.068 63.1219 205.896 63.349 205.806 63.6108L204.126 63.3722C204.258 62.9081 204.477 62.5204 204.782 62.2088C205.087 61.8939 205.46 61.6586 205.901 61.5028C206.342 61.3438 206.829 61.2642 207.362 61.2642C207.73 61.2642 208.097 61.3073 208.461 61.3935C208.826 61.4796 209.159 61.6222 209.46 61.821C209.762 62.0166 210.004 62.2834 210.186 62.6214C210.372 62.9595 210.465 63.3821 210.465 63.8892V69H208.735V67.951H208.675C208.566 68.1631 208.411 68.362 208.213 68.5476C208.017 68.7299 207.77 68.8774 207.472 68.9901C207.177 69.0994 206.83 69.1541 206.433 69.1541ZM206.9 67.8317C207.261 67.8317 207.575 67.7604 207.84 67.6179C208.105 67.4721 208.309 67.2798 208.451 67.0412C208.597 66.8026 208.67 66.5424 208.67 66.2607V65.3608C208.614 65.4072 208.517 65.4503 208.382 65.4901C208.249 65.5298 208.1 65.5646 207.934 65.5945C207.768 65.6243 207.604 65.6508 207.442 65.674C207.28 65.6972 207.139 65.7171 207.019 65.7337C206.751 65.7701 206.511 65.8298 206.298 65.9126C206.086 65.9955 205.919 66.1115 205.796 66.2607C205.674 66.4065 205.612 66.5954 205.612 66.8274C205.612 67.1589 205.733 67.4091 205.975 67.5781C206.217 67.7472 206.526 67.8317 206.9 67.8317ZM212.274 69V61.3636H213.994V62.6612H214.084C214.243 62.2237 214.507 61.8823 214.874 61.6371C215.242 61.3885 215.682 61.2642 216.192 61.2642C216.709 61.2642 217.145 61.3902 217.499 61.642C217.857 61.8906 218.109 62.2304 218.255 62.6612H218.335C218.504 62.237 218.789 61.8989 219.19 61.647C219.594 61.3918 220.073 61.2642 220.627 61.2642C221.329 61.2642 221.903 61.4863 222.347 61.9304C222.791 62.3745 223.013 63.0225 223.013 63.8743V69H221.208V64.1527C221.208 63.6787 221.082 63.3324 220.83 63.1136C220.579 62.8916 220.27 62.7805 219.906 62.7805C219.472 62.7805 219.132 62.9164 218.887 63.1882C218.645 63.4567 218.524 63.8063 218.524 64.2372V69H216.759V64.0781C216.759 63.6837 216.639 63.3688 216.401 63.1335C216.165 62.8982 215.857 62.7805 215.476 62.7805C215.218 62.7805 214.982 62.8468 214.77 62.9794C214.558 63.1087 214.389 63.2926 214.263 63.5312C214.137 63.7666 214.074 64.0417 214.074 64.3565V69H212.274ZM228.219 69.1491C227.454 69.1491 226.793 68.9901 226.236 68.6719C225.682 68.3504 225.256 67.8963 224.958 67.3097C224.66 66.7197 224.511 66.0253 224.511 65.2266C224.511 64.4411 224.66 63.7517 224.958 63.1584C225.26 62.5618 225.681 62.0978 226.221 61.7663C226.761 61.4316 227.396 61.2642 228.125 61.2642C228.596 61.2642 229.04 61.3404 229.457 61.4929C229.878 61.642 230.25 61.8741 230.571 62.1889C230.896 62.5038 231.151 62.9048 231.337 63.392C231.522 63.8759 231.615 64.4527 231.615 65.1222V65.674H225.356V64.4609H229.89C229.887 64.1162 229.812 63.8097 229.666 63.5412C229.52 63.2694 229.317 63.0556 229.055 62.8999C228.796 62.7441 228.495 62.6662 228.15 62.6662C227.782 62.6662 227.459 62.7557 227.18 62.9347C226.902 63.1103 226.685 63.3423 226.529 63.6307C226.377 63.9157 226.299 64.2289 226.295 64.5703V65.6293C226.295 66.0734 226.377 66.4545 226.539 66.7727C226.701 67.0876 226.929 67.3295 227.22 67.4986C227.512 67.6643 227.853 67.7472 228.244 67.7472C228.506 67.7472 228.743 67.7107 228.955 67.6378C229.167 67.5616 229.351 67.4505 229.507 67.3047C229.663 67.1589 229.781 66.9782 229.86 66.7628L231.54 66.9517C231.434 67.3958 231.232 67.7836 230.934 68.1151C230.639 68.4432 230.261 68.6984 229.8 68.8807C229.34 69.0597 228.813 69.1491 228.219 69.1491ZM236.951 61.3636V62.7557H232.561V61.3636H236.951ZM233.645 59.5341H235.444V66.7031C235.444 66.9451 235.481 67.1307 235.554 67.2599C235.63 67.3859 235.729 67.4721 235.852 67.5185C235.975 67.5649 236.111 67.5881 236.26 67.5881C236.372 67.5881 236.475 67.5798 236.568 67.5632C236.664 67.5466 236.737 67.5317 236.787 67.5185L237.09 68.9254C236.994 68.9586 236.856 68.995 236.677 69.0348C236.502 69.0746 236.286 69.0978 236.031 69.1044C235.58 69.1177 235.174 69.0497 234.813 68.9006C234.452 68.7481 234.165 68.5128 233.953 68.1946C233.744 67.8764 233.641 67.4787 233.645 67.0014V59.5341ZM240.569 67.608L240.504 68.1548C240.458 68.5724 240.375 68.9967 240.256 69.4276C240.14 69.8617 240.017 70.2611 239.888 70.6257C239.759 70.9903 239.654 71.277 239.575 71.4858H238.362C238.408 71.2836 238.471 71.0085 238.55 70.6605C238.633 70.3125 238.713 69.9214 238.789 69.4872C238.865 69.053 238.917 68.6122 238.943 68.1648L238.978 67.608H240.569ZM243.409 69.1094C243.107 69.1094 242.849 69.0033 242.633 68.7912C242.418 68.5791 242.312 68.3205 242.315 68.0156C242.312 67.7173 242.418 67.4621 242.633 67.25C242.849 67.0379 243.107 66.9318 243.409 66.9318C243.701 66.9318 243.954 67.0379 244.17 67.25C244.388 67.4621 244.499 67.7173 244.503 68.0156C244.499 68.2178 244.446 68.4018 244.344 68.5675C244.244 68.7332 244.112 68.8658 243.946 68.9652C243.783 69.0613 243.604 69.1094 243.409 69.1094ZM247.023 69.1094C246.722 69.1094 246.463 69.0033 246.248 68.7912C246.032 68.5791 245.926 68.3205 245.93 68.0156C245.926 67.7173 246.032 67.4621 246.248 67.25C246.463 67.0379 246.722 66.9318 247.023 66.9318C247.315 66.9318 247.568 67.0379 247.784 67.25C248.003 67.4621 248.114 67.7173 248.117 68.0156C248.114 68.2178 248.061 68.4018 247.958 68.5675C247.858 68.7332 247.726 68.8658 247.56 68.9652C247.398 69.0613 247.219 69.1094 247.023 69.1094ZM250.633 69.1094C250.331 69.1094 250.073 69.0033 249.857 68.7912C249.642 68.5791 249.536 68.3205 249.539 68.0156C249.536 67.7173 249.642 67.4621 249.857 67.25C250.073 67.0379 250.331 66.9318 250.633 66.9318C250.924 66.9318 251.178 67.0379 251.393 67.25C251.612 67.4621 251.723 67.7173 251.726 68.0156C251.723 68.2178 251.67 68.4018 251.567 68.5675C251.468 68.7332 251.335 68.8658 251.17 68.9652C251.007 69.0613 250.828 69.1094 250.633 69.1094Z" fill="var(--sol-surface)"/>
<mask id="mask0_1248_157134" style="mask-type:alpha" maskUnits="userSpaceOnUse" x="262" y="55" width="16" height="16">
<path d="M275.12 58.9395L271.061 62.9987L275.12 67.0586L274.06 68.1191L270 64.0599L265.94 68.1191L264.88 67.0586L268.938 62.9987L264.88 58.9395L265.94 57.8789L270 61.9375L274.06 57.8789L275.12 58.9395Z" fill="var(--sol-element-primary)"/>
</mask>
<g mask="url(#mask0_1248_157134)">
<rect x="262" y="55" width="16" height="16" fill="var(--sol-surface)" fill-opacity="0.8"/>
</g>
</g>
<path d="M24 110C24 108.343 25.3431 107 27 107H89C90.6569 107 92 108.343 92 110V122C92 123.657 90.6569 125 89 125H27C25.3431 125 24 123.657 24 122V110Z" fill="var(--sol-element-primary)" fill-opacity="0.08"/>
<path d="M24 142C24 140.343 25.3431 139 27 139H261C262.657 139 264 140.343 264 142V154C264 155.657 262.657 157 261 157H27C25.3431 157 24 155.657 24 154V142Z" fill="var(--sol-element-primary)" fill-opacity="0.08"/>
<rect y="140" width="302" height="52" fill="url(#paint0_linear_1248_157134)"/>
</g>
<defs>
<linearGradient id="paint0_linear_1248_157134" x1="259.531" y1="192" x2="259.531" y2="140" gradientUnits="userSpaceOnUse">
<stop stop-opacity="0.04"/>
<stop offset="1" stop-color="var(--sol-surface)" stop-opacity="0"/>
</linearGradient>
<clipPath id="clip0_1248_157134">
<rect width="288" height="192" fill="var(--sol-surface)"/>
</clipPath>
<clipPath id="clip1_1248_157134">
<rect width="288" height="36" fill="var(--sol-surface)" transform="translate(0 45)"/>
</clipPath>
</defs>
</svg>
