<svg width="288" height="192" viewBox="0 0 288 192" fill="none" xmlns="http://www.w3.org/2000/svg">
<style>
:root {
  --sol-primary: #282363;
  --sol-element-brand-variant: #3a3480;
  --sol-fill-active: #4d469a;
  --sol-selected-container-variant: #f5f4fd;
  --sol-surface: #ffffff;
  --sol-surface-base-variant: #f5f5f5;
  --sol-secondary-container: #e8e6f8;
  --sol-element-primary: #161616;
  --sol-element-secondary: #484848;
  --sol-element-tertiary: #636363;
  --sol-element-quaternary: #858585;
  --sol-border-brand: #7b74c4;
  --sol-border-normal-variant: rgba(0, 0, 0, 0.08);
  --sol-border-solid-variant: #e0e0e0;
  --sol-border-solid: #d0d0d0;
  --sol-error: #e76067;
  --sol-error-container: #fdeaeb;
  --sol-static-white: #ffffff;
  --sol-static-black: #000000;
  --color-brand-400: #6058b4;
  --color-teal-500: #05a09a;
  --color-green-500: #35a142;
  --color-yellow-500: #d4ae00;
  --color-orange-500: #e06418;
  --color-blue-500: #3e9bca;
  --color-indigo-500: #3d5ed6;
  --color-pink-500: #d03e94;
}
@media (prefers-color-scheme: dark) {
  :root {
    --sol-primary: #9791d4;
    --sol-element-brand-variant: #ffffff;
    --sol-fill-active: #7b74c4;
    --sol-selected-container-variant: rgba(0, 0, 0, 0.08);
    --sol-surface: #161616;
    --sol-surface-base-variant: #1c1c1c;
    --sol-secondary-container: rgba(255, 255, 255, 0.16);
    --sol-element-primary: #ffffff;
    --sol-element-secondary: rgba(255, 255, 255, 0.8);
    --sol-element-tertiary: rgba(255, 255, 255, 0.6);
    --sol-element-quaternary: rgba(255, 255, 255, 0.5);
    --sol-border-brand: #7b74c4;
    --sol-border-normal-variant: rgba(255, 255, 255, 0.08);
    --sol-border-solid-variant: #3d3d3d;
    --sol-border-solid: #333333;
    --sol-error: #ee7a80;
    --sol-error-container: rgba(231, 96, 103, 0.24);
    --sol-static-white: #ffffff;
    --sol-static-black: #000000;
  }
}
</style>
<rect width="288" height="192" fill="var(--sol-surface-base-variant)"/>
<path d="M26.6739 81.9025V87.3711H25.6844V82.8618H25.6542L24.3777 83.6775V82.7787L25.7297 81.9025H26.6739ZM30.0502 87.4466C28.9852 87.4391 27.9126 86.8046 27.9202 84.7879C27.9202 82.9147 28.7737 81.827 30.1106 81.827C31.1681 81.827 31.8932 82.4917 32.014 83.3754H31.0397C30.9415 82.96 30.6091 82.6805 30.1106 82.6805C29.3175 82.6805 28.8719 83.383 28.8719 84.5311H28.9247C29.2042 84.0628 29.7329 83.7833 30.3297 83.7833C31.3116 83.7833 32.0669 84.5235 32.0669 85.5583C32.0669 86.646 31.2587 87.4542 30.0502 87.4466ZM30.0502 86.6535C30.662 86.6535 31.1152 86.1777 31.1152 85.581C31.1152 84.9994 30.6696 84.5311 30.0653 84.5311C29.4535 84.5311 28.9852 85.0145 28.9776 85.5885C28.9852 86.1626 29.4308 86.6535 30.0502 86.6535ZM34.9145 87.4466C33.6002 87.4466 32.8147 86.4269 32.8147 84.6368C32.8147 82.8542 33.6002 81.827 34.9145 81.827C36.2212 81.827 37.0143 82.8542 37.0143 84.6368C37.0143 86.4269 36.2288 87.4466 34.9145 87.4466ZM34.9145 86.6233C35.6019 86.6233 36.0248 85.9511 36.0248 84.6368C36.0248 83.3301 35.5943 82.6427 34.9145 82.6427C34.2347 82.6427 33.8042 83.3301 33.8042 84.6368C33.8042 85.9511 34.2272 86.6233 34.9145 86.6233ZM43.3893 83.6473C43.2156 83.0657 42.7624 82.7107 42.0977 82.7107C41.2139 82.7107 40.5795 83.3981 40.5795 84.6292C40.5795 85.8755 41.2064 86.5629 42.1203 86.5629C42.9436 86.5629 43.4724 86.0644 43.4875 85.2864H42.2185V84.5084H44.4392V85.1655C44.4392 86.5704 43.4724 87.4466 42.1203 87.4466C40.6097 87.4466 39.59 86.3741 39.59 84.6368C39.59 82.8844 40.655 81.827 42.0901 81.827C43.2987 81.827 44.2277 82.5748 44.3939 83.6473H43.3893ZM45.3305 87.3711V81.9025H47.4227C48.6086 81.9025 49.1978 82.5068 49.1978 83.3225C49.1978 83.9872 48.7748 84.3573 48.2385 84.4857V84.5386C48.8201 84.5688 49.4093 85.0522 49.4093 85.8831C49.4093 86.7366 48.7974 87.3711 47.5436 87.3711H45.3305ZM47.3925 86.5478C48.1101 86.5478 48.4122 86.2381 48.4122 85.8076C48.4122 85.3166 48.027 84.9389 47.4152 84.9389H46.3124V86.5478H47.3925ZM47.3019 84.2289C47.8231 84.2289 48.2158 83.9268 48.2158 83.4434C48.2158 83.0204 47.9137 82.7183 47.3246 82.7183H46.3124V84.2289H47.3019ZM55.4972 81.9025H56.4867V85.4752C56.4867 86.646 55.5954 87.4542 54.266 87.4542C52.9291 87.4542 52.0454 86.646 52.0454 85.4752V81.9025H53.0273V85.3921C53.0273 86.0795 53.5107 86.578 54.266 86.578C55.0214 86.578 55.4972 86.0795 55.4972 85.3921V81.9025ZM59.7799 84.4404C59.7195 84.1307 59.4627 83.9343 59.0548 83.9343C58.6394 83.9343 58.3373 84.1383 58.3448 84.4178C58.3373 84.6292 58.511 84.7879 58.9264 84.8861L59.6213 85.0296C60.3993 85.2033 60.7694 85.5583 60.777 86.1475C60.7694 86.9179 60.0972 87.4542 59.0246 87.4542C57.9822 87.4542 57.3629 86.9859 57.2647 86.2003H58.2466C58.307 86.5478 58.579 86.7215 59.0246 86.7215C59.4854 86.7215 59.795 86.5327 59.795 86.2305C59.795 85.9964 59.6062 85.8453 59.1983 85.7547L58.5412 85.6112C57.7783 85.4601 57.3855 85.0598 57.3855 84.4706C57.3855 83.7153 58.0351 83.2168 59.0397 83.2168C60.0216 83.2168 60.6259 83.6926 60.6939 84.4404H59.7799ZM63.33 87.4542C62.0912 87.4542 61.3359 86.6309 61.3359 85.3468C61.3359 84.0779 62.1063 83.2168 63.2771 83.2168C64.2817 83.2168 65.1503 83.8437 65.1503 85.2864V85.5885H62.2876C62.299 86.2872 62.7106 86.6989 63.3375 86.6989C63.7605 86.6989 64.0475 86.5176 64.1684 86.2759H65.1126C64.9388 86.9859 64.2817 87.4542 63.33 87.4542ZM62.2952 84.9314H64.2288C64.2213 84.3724 63.8512 83.9646 63.2922 83.9646C62.7106 83.9646 62.3254 84.4064 62.2952 84.9314ZM67.4239 87.4466C66.457 87.4466 65.7319 86.6762 65.7319 85.3242C65.7319 83.957 66.4797 83.2168 67.4314 83.2168C68.1565 83.2168 68.4587 83.6473 68.6022 83.9419H68.6399V81.9025H69.5992V87.3711H68.655V86.7215H68.6022C68.4511 87.0236 68.1339 87.4466 67.4239 87.4466ZM67.6882 86.6535C68.3076 86.6535 68.6626 86.1172 68.6626 85.3166C68.6626 84.5235 68.3151 84.0023 67.6882 84.0023C67.0462 84.0023 66.7138 84.5537 66.7138 85.3166C66.7138 86.0946 67.0537 86.6535 67.6882 86.6535Z" fill="var(--sol-element-primary)"/>
<path d="M219.692 87.3711L219.685 86.8726L221.551 84.9087C222.2 84.2214 222.51 83.8513 222.51 83.3452C222.51 82.7862 222.034 82.4161 221.422 82.4161C220.773 82.4161 220.357 82.8316 220.357 83.4434H219.715C219.708 82.4766 220.455 81.827 221.445 81.827C222.434 81.827 223.144 82.4917 223.144 83.3452C223.144 83.957 222.857 84.4329 221.89 85.4299L220.637 86.7215V86.7668H223.242V87.3711H219.692ZM226.015 87.4466C225.025 87.4466 224.277 86.8348 224.239 85.9964H224.897C224.949 86.4874 225.425 86.8499 226.015 86.8499C226.725 86.8499 227.238 86.3287 227.238 85.6414C227.238 84.9314 226.702 84.4102 225.969 84.4027C225.508 84.3951 225.153 84.5386 224.949 84.8936H224.292L224.678 81.9025H227.638V82.5068H225.244L225.04 84.1081H225.093C225.335 83.9192 225.705 83.7908 226.09 83.7908C227.132 83.7908 227.903 84.5613 227.903 85.6263C227.903 86.6837 227.102 87.4466 226.015 87.4466ZM228.847 87.3711L228.839 86.8726L230.705 84.9087C231.355 84.2214 231.664 83.8513 231.664 83.3452C231.664 82.7862 231.189 82.4161 230.577 82.4161C229.927 82.4161 229.512 82.8316 229.512 83.4434H228.87C228.862 82.4766 229.61 81.827 230.599 81.827C231.589 81.827 232.299 82.4917 232.299 83.3452C232.299 83.957 232.012 84.4329 231.045 85.4299L229.791 86.7215V86.7668H232.397V87.3711H228.847ZM239.15 83.6096C238.916 82.9071 238.379 82.4615 237.601 82.4615C236.634 82.4615 235.864 83.2243 235.864 84.6368C235.864 86.0493 236.634 86.8122 237.647 86.8122C238.572 86.8122 239.203 86.1928 239.218 85.226H237.79V84.6292H239.882V85.2184C239.882 86.578 238.946 87.4466 237.647 87.4466C236.189 87.4466 235.207 86.3665 235.207 84.6368C235.207 82.9071 236.196 81.827 237.601 81.827C238.757 81.827 239.648 82.5521 239.852 83.6096H239.15ZM240.902 87.3711V81.9025H242.821C243.969 81.9025 244.505 82.5445 244.505 83.3527C244.505 84.0552 244.09 84.3724 243.614 84.5008V84.5537C244.12 84.5839 244.724 85.0522 244.724 85.9209C244.724 86.7442 244.18 87.3711 242.889 87.3711H240.902ZM242.881 86.7668C243.735 86.7668 244.067 86.3892 244.067 85.9133C244.067 85.3544 243.621 84.8861 242.919 84.8861H241.582V86.7668H242.881ZM242.798 84.2969C243.387 84.2969 243.855 83.9343 243.855 83.3603C243.855 82.8844 243.538 82.5068 242.821 82.5068H241.582V84.2969H242.798ZM247.33 82.5068V81.9025H251.454V82.5068H249.739V87.3711H249.052V82.5068H247.33ZM253.357 87.4542C252.24 87.4542 251.484 86.6158 251.484 85.3393C251.484 84.0628 252.24 83.2168 253.357 83.2168C254.468 83.2168 255.216 84.0628 255.216 85.3393C255.216 86.6158 254.468 87.4542 253.357 87.4542ZM253.357 86.8801C254.181 86.8801 254.566 86.155 254.566 85.3393C254.566 84.5235 254.181 83.7908 253.357 83.7908C252.519 83.7908 252.134 84.5235 252.134 85.3393C252.134 86.155 252.519 86.8801 253.357 86.8801ZM257.859 83.2697V83.8135H256.998V86.1928C256.998 86.7215 257.255 86.8046 257.534 86.8046C257.655 86.8046 257.821 86.797 257.92 86.7895V87.3938C257.821 87.4089 257.655 87.424 257.466 87.424C256.923 87.424 256.341 87.0841 256.341 86.359V83.8135H255.722V83.2697H256.341V82.2877H256.998V83.2697H257.859ZM258.501 86.2079C258.501 85.2637 259.332 85.0522 260.042 84.9994C260.303 84.9805 260.967 84.9465 261.152 84.9389V84.6066C261.152 84.0854 260.843 83.7833 260.223 83.7833C259.702 83.7833 259.392 84.025 259.302 84.3347H258.622C258.705 83.6775 259.347 83.2168 260.254 83.2168C260.79 83.2168 261.794 83.3754 261.794 84.667V87.3711H261.152V86.8122H261.122C260.986 87.0916 260.609 87.4693 259.899 87.4693C259.121 87.4693 258.501 87.0085 258.501 86.2079ZM259.151 86.2381C259.151 86.6686 259.513 86.8877 260.012 86.8877C260.745 86.8877 261.152 86.3967 261.152 85.8831V85.4677L260.118 85.5432C259.528 85.581 259.151 85.7925 259.151 86.2381ZM263.486 81.9025V87.3711H262.837V81.9025H263.486Z" fill="var(--sol-element-secondary)"/>
<g clip-path="url(#clip0_1254_162616)">
<rect width="240" height="8" transform="translate(24 100.211)" fill="var(--sol-element-primary)" fill-opacity="0.12"/>
<rect width="138" height="8.83949" transform="translate(24 99.791)" fill="var(--color-brand-400)"/>
</g>
<defs>
<clipPath id="clip0_1254_162616">
<rect width="240" height="8" fill="var(--sol-surface)" transform="translate(24 100.211)"/>
</clipPath>
</defs>
</svg>
