<svg width="288" height="192" viewBox="0 0 288 192" fill="none" xmlns="http://www.w3.org/2000/svg">
<style>
:root {
  --sol-primary: #282363;
  --sol-element-brand-variant: #3a3480;
  --sol-fill-active: #4d469a;
  --sol-selected-container-variant: #f5f4fd;
  --sol-surface: #ffffff;
  --sol-surface-base-variant: #f5f5f5;
  --sol-secondary-container: #e8e6f8;
  --sol-element-primary: #161616;
  --sol-element-secondary: #484848;
  --sol-element-tertiary: #636363;
  --sol-element-quaternary: #858585;
  --sol-border-brand: #7b74c4;
  --sol-border-normal-variant: rgba(0, 0, 0, 0.08);
  --sol-border-solid-variant: #e0e0e0;
  --sol-border-solid: #d0d0d0;
  --sol-error: #e76067;
  --sol-error-container: #fdeaeb;
  --sol-static-white: #ffffff;
  --sol-static-black: #000000;
  --color-brand-400: #6058b4;
  --color-teal-500: #05a09a;
  --color-green-500: #35a142;
  --color-yellow-500: #d4ae00;
  --color-orange-500: #e06418;
  --color-blue-500: #3e9bca;
  --color-indigo-500: #3d5ed6;
  --color-pink-500: #d03e94;
}
@media (prefers-color-scheme: dark) {
  :root {
    --sol-primary: #9791d4;
    --sol-element-brand-variant: #ffffff;
    --sol-fill-active: #7b74c4;
    --sol-selected-container-variant: rgba(0, 0, 0, 0.08);
    --sol-surface: #161616;
    --sol-surface-base-variant: #1c1c1c;
    --sol-secondary-container: rgba(255, 255, 255, 0.16);
    --sol-element-primary: #ffffff;
    --sol-element-secondary: rgba(255, 255, 255, 0.8);
    --sol-element-tertiary: rgba(255, 255, 255, 0.6);
    --sol-element-quaternary: rgba(255, 255, 255, 0.5);
    --sol-border-brand: #7b74c4;
    --sol-border-normal-variant: rgba(255, 255, 255, 0.08);
    --sol-border-solid-variant: #3d3d3d;
    --sol-border-solid: #333333;
    --sol-error: #ee7a80;
    --sol-error-container: rgba(231, 96, 103, 0.24);
    --sol-static-white: #ffffff;
    --sol-static-black: #000000;
  }
}
</style>
<g clip-path="url(#clip0_1248_158571)">
<g filter="url(#filter0_dd_1248_158571)">
<mask id="path-1-inside-1_1248_158571" fill="var(--sol-static-white)">
<path d="M-5 29H359V216H-5V29Z"/>
</mask>
<path d="M-5 29H359V216H-5V29Z" fill="var(--sol-surface)" shape-rendering="crispEdges"/>
<path d="M-5 29V30H359V29V28H-5V29Z" fill="var(--sol-border-solid-variant)" mask="url(#path-1-inside-1_1248_158571)"/>
<path d="M21.3242 58.1016V68H20.0938V58.1016H21.3242ZM26.6016 60.5762V61.5605H25.043V65.8672C25.043 66.8242 25.5078 66.9746 26.0137 66.9746C26.2324 66.9746 26.5332 66.9609 26.7109 66.9473V68.041C26.5332 68.0684 26.2324 68.0957 25.8906 68.0957C24.9062 68.0957 23.8535 67.4805 23.8535 66.168V61.5605H22.7324V60.5762H23.8535V58.7988H25.043V60.5762H26.6016ZM31.168 68.1504C29.0215 68.1504 27.6953 66.6328 27.6953 64.3496C27.6953 62.0664 29.0352 60.4805 31.0586 60.4805C32.6172 60.4805 34.2578 61.4375 34.2578 64.1855V64.6777H28.8711C28.9258 66.25 29.8418 67.1113 31.168 67.1113C32.0566 67.1113 32.6172 66.7285 32.8906 66.2637H34.1484C33.793 67.3848 32.6992 68.1504 31.168 68.1504ZM28.8848 63.6797H33.0684C33.0684 62.4355 32.2754 61.5195 31.0586 61.5195C29.7734 61.5195 28.9531 62.5312 28.8848 63.6797ZM35.7891 68V60.5762H36.9238V61.7383H37.0195C37.334 60.9453 38.0449 60.4805 39.0156 60.4805C39.9863 60.4805 40.6426 60.9453 40.998 61.7383H41.0801C41.4629 60.9727 42.2422 60.4805 43.3086 60.4805C44.6348 60.4805 45.5781 61.2871 45.5781 63.0371V68H44.4023V63.0508C44.4023 61.957 43.7051 61.5332 42.8984 61.5332C41.8594 61.5332 41.2715 62.2305 41.2715 63.1738V68H40.082V62.9277C40.082 62.0938 39.4805 61.5332 38.6328 61.5332C37.7441 61.5332 36.9648 62.2852 36.9648 63.3652V68H35.7891ZM54.2051 68.1367C52.0039 68.1367 50.7461 66.291 50.7461 63.0508C50.7461 59.8379 52.0312 57.9648 54.2051 57.9648C56.3789 57.9648 57.6641 59.8379 57.6641 63.0508C57.6641 66.291 56.3926 68.1367 54.2051 68.1367ZM54.2051 67.043C55.627 67.043 56.4609 65.6074 56.4609 63.0508C56.4609 60.4941 55.627 59.0312 54.2051 59.0312C52.7832 59.0312 51.9355 60.4941 51.9355 63.0508C51.9355 65.6074 52.7695 67.043 54.2051 67.043ZM62.8047 58.1016V68H61.5605V59.3867H61.5059L59.0996 60.9863V59.7422L61.5605 58.1016H62.8047Z" fill="var(--sol-element-quaternary)"/>
<path d="M75.3535 62.6465C75.5488 62.8417 75.5488 63.1583 75.3535 63.3535L71.3535 67.3535L70.6465 66.6465L74.293 63L70.6465 59.3535L71.3535 58.6465L75.3535 62.6465Z" fill="var(--sol-element-quaternary)"/>
<path d="M87.3242 58.1016V68H86.0938V58.1016H87.3242ZM92.6016 60.5762V61.5605H91.043V65.8672C91.043 66.8242 91.5078 66.9746 92.0137 66.9746C92.2324 66.9746 92.5332 66.9609 92.7109 66.9473V68.041C92.5332 68.0684 92.2324 68.0957 91.8906 68.0957C90.9062 68.0957 89.8535 67.4805 89.8535 66.168V61.5605H88.7324V60.5762H89.8535V58.7988H91.043V60.5762H92.6016ZM97.168 68.1504C95.0215 68.1504 93.6953 66.6328 93.6953 64.3496C93.6953 62.0664 95.0352 60.4805 97.0586 60.4805C98.6172 60.4805 100.258 61.4375 100.258 64.1855V64.6777H94.8711C94.9258 66.25 95.8418 67.1113 97.168 67.1113C98.0566 67.1113 98.6172 66.7285 98.8906 66.2637H100.148C99.793 67.3848 98.6992 68.1504 97.168 68.1504ZM94.8848 63.6797H99.0684C99.0684 62.4355 98.2754 61.5195 97.0586 61.5195C95.7734 61.5195 94.9531 62.5312 94.8848 63.6797ZM101.789 68V60.5762H102.924V61.7383H103.02C103.334 60.9453 104.045 60.4805 105.016 60.4805C105.986 60.4805 106.643 60.9453 106.998 61.7383H107.08C107.463 60.9727 108.242 60.4805 109.309 60.4805C110.635 60.4805 111.578 61.2871 111.578 63.0371V68H110.402V63.0508C110.402 61.957 109.705 61.5332 108.898 61.5332C107.859 61.5332 107.271 62.2305 107.271 63.1738V68H106.082V62.9277C106.082 62.0938 105.48 61.5332 104.633 61.5332C103.744 61.5332 102.965 62.2852 102.965 63.3652V68H101.789ZM120.205 68.1367C118.004 68.1367 116.746 66.291 116.746 63.0508C116.746 59.8379 118.031 57.9648 120.205 57.9648C122.379 57.9648 123.664 59.8379 123.664 63.0508C123.664 66.291 122.393 68.1367 120.205 68.1367ZM120.205 67.043C121.627 67.043 122.461 65.6074 122.461 63.0508C122.461 60.4941 121.627 59.0312 120.205 59.0312C118.783 59.0312 117.936 60.4941 117.936 63.0508C117.936 65.6074 118.77 67.043 120.205 67.043ZM125.305 68L125.291 67.0977L128.668 63.543C129.844 62.2988 130.404 61.6289 130.404 60.7129C130.404 59.7012 129.543 59.0312 128.436 59.0312C127.26 59.0312 126.508 59.7832 126.508 60.8906H125.346C125.332 59.1406 126.686 57.9648 128.477 57.9648C130.268 57.9648 131.553 59.168 131.553 60.7129C131.553 61.8203 131.033 62.6816 129.283 64.4863L127.014 66.8242V66.9062H131.73V68H125.305Z" fill="var(--sol-element-quaternary)"/>
<path d="M143.354 62.6465C143.549 62.8417 143.549 63.1583 143.354 63.3535L139.354 67.3535L138.646 66.6465L142.293 63L138.646 59.3535L139.354 58.6465L143.354 62.6465Z" fill="var(--sol-element-quaternary)"/>
<path d="M155.324 58.1016V68H154.094V58.1016H155.324ZM160.602 60.5762V61.5605H159.043V65.8672C159.043 66.8242 159.508 66.9746 160.014 66.9746C160.232 66.9746 160.533 66.9609 160.711 66.9473V68.041C160.533 68.0684 160.232 68.0957 159.891 68.0957C158.906 68.0957 157.854 67.4805 157.854 66.168V61.5605H156.732V60.5762H157.854V58.7988H159.043V60.5762H160.602ZM165.168 68.1504C163.021 68.1504 161.695 66.6328 161.695 64.3496C161.695 62.0664 163.035 60.4805 165.059 60.4805C166.617 60.4805 168.258 61.4375 168.258 64.1855V64.6777H162.871C162.926 66.25 163.842 67.1113 165.168 67.1113C166.057 67.1113 166.617 66.7285 166.891 66.2637H168.148C167.793 67.3848 166.699 68.1504 165.168 68.1504ZM162.885 63.6797H167.068C167.068 62.4355 166.275 61.5195 165.059 61.5195C163.773 61.5195 162.953 62.5312 162.885 63.6797ZM169.789 68V60.5762H170.924V61.7383H171.02C171.334 60.9453 172.045 60.4805 173.016 60.4805C173.986 60.4805 174.643 60.9453 174.998 61.7383H175.08C175.463 60.9727 176.242 60.4805 177.309 60.4805C178.635 60.4805 179.578 61.2871 179.578 63.0371V68H178.402V63.0508C178.402 61.957 177.705 61.5332 176.898 61.5332C175.859 61.5332 175.271 62.2305 175.271 63.1738V68H174.082V62.9277C174.082 62.0938 173.48 61.5332 172.633 61.5332C171.744 61.5332 170.965 62.2852 170.965 63.3652V68H169.789ZM188.205 68.1367C186.004 68.1367 184.746 66.291 184.746 63.0508C184.746 59.8379 186.031 57.9648 188.205 57.9648C190.379 57.9648 191.664 59.8379 191.664 63.0508C191.664 66.291 190.393 68.1367 188.205 68.1367ZM188.205 67.043C189.627 67.043 190.461 65.6074 190.461 63.0508C190.461 60.4941 189.627 59.0312 188.205 59.0312C186.783 59.0312 185.936 60.4941 185.936 63.0508C185.936 65.6074 186.77 67.043 188.205 67.043ZM196.723 68.1367C194.754 68.1367 193.346 67.084 193.277 65.5117H194.521C194.59 66.4551 195.533 67.043 196.709 67.043C198.008 67.043 198.965 66.332 198.965 65.3066C198.965 64.2266 198.104 63.4609 196.559 63.4609H195.752V62.3809H196.559C197.762 62.3809 198.596 61.7109 198.596 60.6855C198.596 59.7012 197.871 59.0312 196.75 59.0312C195.697 59.0312 194.727 59.6191 194.672 60.5898H193.482C193.551 59.0176 195 57.9648 196.764 57.9648C198.65 57.9648 199.799 59.1953 199.785 60.6172C199.799 61.7383 199.143 62.5723 198.104 62.8594V62.9277C199.389 63.1328 200.182 64.0488 200.168 65.3066C200.182 66.9336 198.691 68.1367 196.723 68.1367Z" fill="var(--sol-element-brand-variant)"/>
<path d="M19 102C19 100.343 20.3431 99 22 99H163C164.657 99 166 100.343 166 102V123C166 124.657 164.657 126 163 126H22C20.3431 126 19 124.657 19 123V102Z" fill="var(--sol-element-primary)" fill-opacity="0.08"/>
<path d="M19 145C19 143.343 20.3431 142 22 142H320C321.657 142 323 143.343 323 145V166C323 167.657 321.657 169 320 169H22C20.3432 169 19 167.657 19 166V145Z" fill="var(--sol-element-primary)" fill-opacity="0.08"/>
<path d="M19 188C19 186.343 20.3431 185 22 185H320C321.657 185 323 186.343 323 188V209C323 210.657 321.657 212 320 212H22C20.3432 212 19 210.657 19 209V188Z" fill="var(--sol-element-primary)" fill-opacity="0.08"/>
</g>
<rect x="-11" y="140" width="302" height="52" fill="url(#paint0_linear_1248_158571)"/>
</g>
<defs>
<filter id="filter0_dd_1248_158571" x="-13" y="25" width="380" height="203" filterUnits="userSpaceOnUse" color-interpolation-filters="sRGB">
<feFlood flood-opacity="0" result="BackgroundImageFix"/>
<feColorMatrix in="SourceAlpha" type="matrix" values="0 0 0 0 0 0 0 0 0 0 0 0 0 0 0 0 0 0 127 0" result="hardAlpha"/>
<feOffset dy="4"/>
<feGaussianBlur stdDeviation="4"/>
<feComposite in2="hardAlpha" operator="out"/>
<feColorMatrix type="matrix" values="0 0 0 0 0 0 0 0 0 0 0 0 0 0 0 0 0 0 0.08 0"/>
<feBlend mode="normal" in2="BackgroundImageFix" result="effect1_dropShadow_1248_158571"/>
<feColorMatrix in="SourceAlpha" type="matrix" values="0 0 0 0 0 0 0 0 0 0 0 0 0 0 0 0 0 0 127 0" result="hardAlpha"/>
<feOffset/>
<feGaussianBlur stdDeviation="0.5"/>
<feComposite in2="hardAlpha" operator="out"/>
<feColorMatrix type="matrix" values="0 0 0 0 0 0 0 0 0 0 0 0 0 0 0 0 0 0 0.08 0"/>
<feBlend mode="normal" in2="effect1_dropShadow_1248_158571" result="effect2_dropShadow_1248_158571"/>
<feBlend mode="normal" in="SourceGraphic" in2="effect2_dropShadow_1248_158571" result="shape"/>
</filter>
<linearGradient id="paint0_linear_1248_158571" x1="248.531" y1="192" x2="248.531" y2="140" gradientUnits="userSpaceOnUse">
<stop stop-opacity="0.04"/>
<stop offset="1" stop-color="var(--sol-surface)" stop-opacity="0"/>
</linearGradient>
<clipPath id="clip0_1248_158571">
<rect width="288" height="192" fill="var(--sol-surface)"/>
</clipPath>
</defs>
</svg>
