<svg width="288" height="192" viewBox="0 0 288 192" fill="none" xmlns="http://www.w3.org/2000/svg">
<style>
:root {
  --sol-primary: #282363;
  --sol-element-brand-variant: #3a3480;
  --sol-fill-active: #4d469a;
  --sol-selected-container-variant: #f5f4fd;
  --sol-surface: #ffffff;
  --sol-surface-base-variant: #f5f5f5;
  --sol-secondary-container: #e8e6f8;
  --sol-element-primary: #161616;
  --sol-element-secondary: #484848;
  --sol-element-tertiary: #636363;
  --sol-element-quaternary: #858585;
  --sol-border-brand: #7b74c4;
  --sol-border-normal-variant: rgba(0, 0, 0, 0.08);
  --sol-border-solid-variant: #e0e0e0;
  --sol-border-solid: #d0d0d0;
  --sol-error: #e76067;
  --sol-error-container: #fdeaeb;
  --sol-static-white: #ffffff;
  --sol-static-black: #000000;
  --color-brand-400: #6058b4;
  --color-teal-500: #05a09a;
  --color-green-500: #35a142;
  --color-yellow-500: #d4ae00;
  --color-orange-500: #e06418;
  --color-blue-500: #3e9bca;
  --color-indigo-500: #3d5ed6;
  --color-pink-500: #d03e94;
}
@media (prefers-color-scheme: dark) {
  :root {
    --sol-primary: #9791d4;
    --sol-element-brand-variant: #ffffff;
    --sol-fill-active: #7b74c4;
    --sol-selected-container-variant: rgba(0, 0, 0, 0.08);
    --sol-surface: #161616;
    --sol-surface-base-variant: #1c1c1c;
    --sol-secondary-container: rgba(255, 255, 255, 0.16);
    --sol-element-primary: #ffffff;
    --sol-element-secondary: rgba(255, 255, 255, 0.8);
    --sol-element-tertiary: rgba(255, 255, 255, 0.6);
    --sol-element-quaternary: rgba(255, 255, 255, 0.5);
    --sol-border-brand: #7b74c4;
    --sol-border-normal-variant: rgba(255, 255, 255, 0.08);
    --sol-border-solid-variant: #3d3d3d;
    --sol-border-solid: #333333;
    --sol-error: #ee7a80;
    --sol-error-container: rgba(231, 96, 103, 0.24);
    --sol-static-white: #ffffff;
    --sol-static-black: #000000;
  }
}
</style>
<g clip-path="url(#clip0_1254_160412)">
<path d="M107 79C107 76.7909 108.791 75 111 75H177C179.209 75 181 76.7909 181 79V113C181 115.209 179.209 117 177 117H111C108.791 117 107 115.209 107 113V79Z" fill="var(--sol-primary)"/>
<path d="M120.289 102V90.6875H124.617C127.07 90.6875 128.289 91.9375 128.289 93.625C128.289 95 127.414 95.7656 126.305 96.0312V96.1406C127.508 96.2031 128.727 97.2031 128.727 98.9219C128.727 100.688 127.461 102 124.867 102H120.289ZM124.555 100.297C126.039 100.297 126.664 99.6562 126.664 98.7656C126.664 97.75 125.867 96.9688 124.602 96.9688H122.32V100.297H124.555ZM124.367 95.5C125.445 95.5 126.258 94.875 126.258 93.875C126.258 93 125.633 92.375 124.414 92.375H122.32V95.5H124.367ZM135.711 98.4375V93.5156H137.695V102H135.773V100.5H135.68C135.289 101.438 134.398 102.109 133.133 102.109C131.461 102.109 130.305 100.953 130.289 98.9219V93.5156H132.289V98.6094C132.289 99.6875 132.93 100.375 133.898 100.375C134.773 100.375 135.711 99.7344 135.711 98.4375ZM143.836 93.5156V95.0469H142.164V99.4531C142.164 100.266 142.57 100.438 143.07 100.438C143.305 100.438 143.695 100.422 143.945 100.406V102.031C143.711 102.078 143.32 102.109 142.82 102.109C141.32 102.109 140.164 101.375 140.18 99.7812V95.0469H138.961V93.5156H140.18V91.4844H142.164V93.5156H143.836ZM149.602 93.5156V95.0469H147.93V99.4531C147.93 100.266 148.336 100.438 148.836 100.438C149.07 100.438 149.461 100.422 149.711 100.406V102.031C149.477 102.078 149.086 102.109 148.586 102.109C147.086 102.109 145.93 101.375 145.945 99.7812V95.0469H144.727V93.5156H145.945V91.4844H147.93V93.5156H149.602ZM154.758 102.172C152.289 102.172 150.695 100.422 150.695 97.7969C150.695 95.1562 152.289 93.4062 154.758 93.4062C157.242 93.4062 158.82 95.1562 158.82 97.7969C158.82 100.422 157.242 102.172 154.758 102.172ZM154.773 100.578C156.133 100.578 156.805 99.3438 156.805 97.7812C156.805 96.2344 156.133 94.9844 154.773 94.9844C153.383 94.9844 152.711 96.2344 152.711 97.7812C152.711 99.3438 153.383 100.578 154.773 100.578ZM162.367 97.0312V102H160.367V93.5156H162.273V94.9531H162.383C162.773 94 163.633 93.4062 164.898 93.4062C166.664 93.4062 167.82 94.5625 167.805 96.5938V102H165.82V96.9062C165.82 95.7656 165.211 95.0938 164.164 95.0938C163.102 95.0938 162.367 95.7969 162.367 97.0312Z" fill="var(--sol-surface)"/>
</g>
<defs>
<clipPath id="clip0_1254_160412">
<path d="M107 79C107 76.7909 108.791 75 111 75H177C179.209 75 181 76.7909 181 79V113C181 115.209 179.209 117 177 117H111C108.791 117 107 115.209 107 113V79Z" fill="var(--sol-surface)"/>
</clipPath>
</defs>
</svg>
