<svg width="288" height="192" viewBox="0 0 288 192" fill="none" xmlns="http://www.w3.org/2000/svg">
<style>
:root {
  --sol-primary: #282363;
  --sol-element-brand-variant: #3a3480;
  --sol-fill-active: #4d469a;
  --sol-selected-container-variant: #f5f4fd;
  --sol-surface: #ffffff;
  --sol-surface-base-variant: #f5f5f5;
  --sol-secondary-container: #e8e6f8;
  --sol-element-primary: #161616;
  --sol-element-secondary: #484848;
  --sol-element-tertiary: #636363;
  --sol-element-quaternary: #858585;
  --sol-border-brand: #7b74c4;
  --sol-border-normal-variant: rgba(0, 0, 0, 0.08);
  --sol-border-solid-variant: #e0e0e0;
  --sol-border-solid: #d0d0d0;
  --sol-error: #e76067;
  --sol-error-container: #fdeaeb;
  --sol-static-white: #ffffff;
  --sol-static-black: #000000;
  --color-brand-400: #6058b4;
  --color-teal-500: #05a09a;
  --color-green-500: #35a142;
  --color-yellow-500: #d4ae00;
  --color-orange-500: #e06418;
  --color-blue-500: #3e9bca;
  --color-indigo-500: #3d5ed6;
  --color-pink-500: #d03e94;
}
@media (prefers-color-scheme: dark) {
  :root {
    --sol-primary: #9791d4;
    --sol-element-brand-variant: #ffffff;
    --sol-fill-active: #7b74c4;
    --sol-selected-container-variant: rgba(0, 0, 0, 0.08);
    --sol-surface: #161616;
    --sol-surface-base-variant: #1c1c1c;
    --sol-secondary-container: rgba(255, 255, 255, 0.16);
    --sol-element-primary: #ffffff;
    --sol-element-secondary: rgba(255, 255, 255, 0.8);
    --sol-element-tertiary: rgba(255, 255, 255, 0.6);
    --sol-element-quaternary: rgba(255, 255, 255, 0.5);
    --sol-border-brand: #7b74c4;
    --sol-border-normal-variant: rgba(255, 255, 255, 0.08);
    --sol-border-solid-variant: #3d3d3d;
    --sol-border-solid: #333333;
    --sol-error: #ee7a80;
    --sol-error-container: rgba(231, 96, 103, 0.24);
    --sol-static-white: #ffffff;
    --sol-static-black: #000000;
  }
}
</style>
<path d="M83 84.5H101C102.381 84.5 103.5 85.6193 103.5 87V105C103.5 106.381 102.381 107.5 101 107.5H83C81.6193 107.5 80.5 106.381 80.5 105V87C80.5 85.6193 81.6193 84.5 83 84.5Z" stroke="var(--sol-element-primary)" stroke-opacity="0.16"/>
<g clip-path="url(#clip0_1240_140424)">
<path d="M132 86C132 84.8954 132.895 84 134 84H154C155.105 84 156 84.8954 156 86V106C156 107.105 155.105 108 154 108H134C132.895 108 132 107.105 132 106V86Z" fill="var(--sol-fill-active)"/>
<path d="M152.625 94.875V97.125H135.375V94.875H152.625Z" fill="var(--sol-surface)"/>
</g>
<g clip-path="url(#clip1_1240_140424)">
<path d="M184 86C184 84.8954 184.895 84 186 84H206C207.105 84 208 84.8954 208 86V106C208 107.105 207.105 108 206 108H186C184.895 108 184 107.105 184 106V86Z" fill="var(--sol-fill-active)"/>
<path d="M205.084 91.0811L193.985 102.18C193.546 102.619 192.834 102.619 192.395 102.18L186.916 96.7012L188.507 95.1104L193.189 99.793L203.493 89.4902L205.084 91.0811Z" fill="var(--sol-surface)"/>
</g>
<defs>
<clipPath id="clip0_1240_140424">
<path d="M132 86C132 84.8954 132.895 84 134 84H154C155.105 84 156 84.8954 156 86V106C156 107.105 155.105 108 154 108H134C132.895 108 132 107.105 132 106V86Z" fill="var(--sol-surface)"/>
</clipPath>
<clipPath id="clip1_1240_140424">
<path d="M184 86C184 84.8954 184.895 84 186 84H206C207.105 84 208 84.8954 208 86V106C208 107.105 207.105 108 206 108H186C184.895 108 184 107.105 184 106V86Z" fill="var(--sol-surface)"/>
</clipPath>
</defs>
</svg>
