<svg width="288" height="192" viewBox="0 0 288 192" fill="none" xmlns="http://www.w3.org/2000/svg">
<style>
:root {
  --sol-primary: #282363;
  --sol-element-brand-variant: #3a3480;
  --sol-fill-active: #4d469a;
  --sol-selected-container-variant: #f5f4fd;
  --sol-surface: #ffffff;
  --sol-surface-base-variant: #f5f5f5;
  --sol-secondary-container: #e8e6f8;
  --sol-element-primary: #161616;
  --sol-element-secondary: #484848;
  --sol-element-tertiary: #636363;
  --sol-element-quaternary: #858585;
  --sol-border-brand: #7b74c4;
  --sol-border-normal-variant: rgba(0, 0, 0, 0.08);
  --sol-border-solid-variant: #e0e0e0;
  --sol-border-solid: #d0d0d0;
  --sol-error: #e76067;
  --sol-error-container: #fdeaeb;
  --sol-static-white: #ffffff;
  --sol-static-black: #000000;
  --color-brand-400: #6058b4;
  --color-teal-500: #05a09a;
  --color-green-500: #35a142;
  --color-yellow-500: #d4ae00;
  --color-orange-500: #e06418;
  --color-blue-500: #3e9bca;
  --color-indigo-500: #3d5ed6;
  --color-pink-500: #d03e94;
}
@media (prefers-color-scheme: dark) {
  :root {
    --sol-primary: #9791d4;
    --sol-element-brand-variant: #ffffff;
    --sol-fill-active: #7b74c4;
    --sol-selected-container-variant: rgba(0, 0, 0, 0.08);
    --sol-surface: #161616;
    --sol-surface-base-variant: #1c1c1c;
    --sol-secondary-container: rgba(255, 255, 255, 0.16);
    --sol-element-primary: #ffffff;
    --sol-element-secondary: rgba(255, 255, 255, 0.8);
    --sol-element-tertiary: rgba(255, 255, 255, 0.6);
    --sol-element-quaternary: rgba(255, 255, 255, 0.5);
    --sol-border-brand: #7b74c4;
    --sol-border-normal-variant: rgba(255, 255, 255, 0.08);
    --sol-border-solid-variant: #3d3d3d;
    --sol-border-solid: #333333;
    --sol-error: #ee7a80;
    --sol-error-container: rgba(231, 96, 103, 0.24);
    --sol-static-white: #ffffff;
    --sol-static-black: #000000;
  }
}
</style>
<g clip-path="url(#clip0_1254_318938)">
<g filter="url(#filter0_dd_1254_318938)">
<rect x="40" y="40" width="266" height="169" rx="4" fill="var(--sol-surface)"/>
<rect x="40.4114" y="40.4114" width="265.177" height="168.177" rx="3.58857" stroke="var(--sol-border-solid-variant)" stroke-width="0.822857"/>
</g>
<path d="M62.3379 66.698C62.3379 65.8039 63.0627 65.0791 63.9568 65.0791H191.719C192.613 65.0791 193.338 65.8039 193.338 66.698V81.3017C193.338 82.1958 192.613 82.9206 191.719 82.9206H63.9568C63.0627 82.9206 62.3379 82.1958 62.3379 81.3017V66.698Z" fill="var(--sol-element-primary)" fill-opacity="0.08"/>
<g clip-path="url(#clip1_1254_318938)">
<path d="M62 105.937C62 103.21 64.2104 101 66.9371 101H88.52C91.2467 101 93.4571 103.21 93.4571 105.937V124.04C93.4571 126.767 91.2467 128.977 88.52 128.977H66.9371C64.2104 128.977 62 126.767 62 124.04V105.937Z" fill="var(--sol-surface)"/>
<path d="M66.9375 101.411H88.0625C90.562 101.411 92.5889 103.438 92.5889 105.938V124.062C92.5889 126.562 90.562 128.589 88.0625 128.589H66.9375C64.438 128.589 62.4111 126.562 62.4111 124.062V105.938C62.4111 103.438 64.438 101.411 66.9375 101.411Z" stroke="var(--sol-element-primary)" stroke-opacity="0.16" stroke-width="0.822857"/>
<path d="M71.6685 119.488H70.4599L73.8671 110.18H75.0885L78.4957 119.488H77.2742L76.3485 116.865H72.6071L71.6685 119.488ZM72.9542 115.85H75.9885L74.5099 111.684H74.4328L72.9542 115.85ZM80.7199 110.18V119.488H79.6142V110.18H80.7199ZM83.5871 110.18V119.488H82.4814V110.18H83.5871Z" fill="var(--sol-element-tertiary)"/>
</g>
<g clip-path="url(#clip2_1254_318938)">
<path d="M100.04 105.937C100.04 103.21 102.25 101 104.977 101H159.309C162.035 101 164.246 103.21 164.246 105.937V124.04C164.246 126.767 162.035 128.977 159.309 128.977H104.977C102.25 128.977 100.04 126.767 100.04 124.04V105.937Z" fill="var(--sol-secondary-container)"/>
<path d="M121.48 112.29L115.392 118.378C115.151 118.619 114.76 118.619 114.519 118.378L111.514 115.373L112.386 114.5L114.955 117.069L120.607 111.417L121.48 112.29Z" fill="var(--sol-element-brand-variant)"/>
<path d="M135.398 113.111C135.128 111.825 134.022 111.131 132.8 111.131C131.116 111.131 129.805 112.43 129.805 114.834C129.805 117.238 131.116 118.537 132.8 118.537C134.022 118.537 135.115 117.843 135.398 116.57H136.555C136.22 118.473 134.69 119.617 132.8 119.617C130.409 119.617 128.686 117.778 128.686 114.834C128.686 111.89 130.409 110.051 132.8 110.051C134.678 110.051 136.208 111.183 136.555 113.111H135.398ZM139.139 115.297V119.488H138.033V110.18H139.139V113.6H139.229C139.55 112.88 140.18 112.417 141.286 112.417C142.713 112.417 143.665 113.265 143.665 115.053V119.488H142.559V115.13C142.559 114.037 141.955 113.407 140.952 113.407C139.91 113.407 139.139 114.088 139.139 115.297ZM145.439 119.488V112.507H146.545V119.488H145.439ZM145.992 111.35C145.568 111.35 145.22 111.028 145.22 110.617C145.22 110.205 145.568 109.884 145.992 109.884C146.416 109.884 146.776 110.205 146.776 110.617C146.776 111.028 146.416 111.35 145.992 111.35ZM148.306 122.111V112.507H149.373V113.613H149.502C149.733 113.24 150.17 112.417 151.52 112.417C153.269 112.417 154.49 113.805 154.49 116.017C154.49 118.228 153.269 119.63 151.533 119.63C150.196 119.63 149.733 118.807 149.502 118.421H149.412V122.111H148.306ZM149.386 115.991C149.386 117.56 150.093 118.64 151.379 118.64C152.703 118.64 153.385 117.483 153.385 115.991C153.385 114.538 152.716 113.407 151.379 113.407C150.068 113.407 149.386 114.448 149.386 115.991Z" fill="var(--sol-element-brand-variant)"/>
</g>
<g clip-path="url(#clip3_1254_318938)">
<path d="M170.828 105.937C170.828 103.21 173.039 101 175.765 101H210.348C213.075 101 215.285 103.21 215.285 105.937V124.04C215.285 126.767 213.075 128.977 210.348 128.977H175.765C173.039 128.977 170.828 126.767 170.828 124.04V105.937Z" fill="var(--sol-surface)"/>
<path d="M175.766 101.411H209.891C212.39 101.411 214.417 103.438 214.417 105.938V124.062C214.417 126.562 212.39 128.589 209.891 128.589H175.766C173.266 128.589 171.239 126.562 171.239 124.062V105.938C171.239 103.438 173.266 101.411 175.766 101.411Z" stroke="var(--sol-element-primary)" stroke-opacity="0.16" stroke-width="0.822857"/>
<path d="M186.437 113.111C186.167 111.825 185.061 111.131 183.839 111.131C182.155 111.131 180.844 112.43 180.844 114.834C180.844 117.238 182.155 118.537 183.839 118.537C185.061 118.537 186.154 117.843 186.437 116.57H187.594C187.259 118.473 185.729 119.617 183.839 119.617C181.448 119.617 179.725 117.778 179.725 114.834C179.725 111.89 181.448 110.051 183.839 110.051C185.717 110.051 187.247 111.183 187.594 113.111H186.437ZM190.178 115.297V119.488H189.072V110.18H190.178V113.6H190.268C190.589 112.88 191.219 112.417 192.325 112.417C193.752 112.417 194.704 113.265 194.704 115.053V119.488H193.598V115.13C193.598 114.037 192.994 113.407 191.991 113.407C190.949 113.407 190.178 114.088 190.178 115.297ZM196.478 119.488V112.507H197.584V119.488H196.478ZM197.031 111.35C196.607 111.35 196.259 111.028 196.259 110.617C196.259 110.205 196.607 109.884 197.031 109.884C197.455 109.884 197.815 110.205 197.815 110.617C197.815 111.028 197.455 111.35 197.031 111.35ZM199.345 122.111V112.507H200.412V113.613H200.541C200.772 113.24 201.209 112.417 202.559 112.417C204.308 112.417 205.529 113.805 205.529 116.017C205.529 118.228 204.308 119.63 202.572 119.63C201.235 119.63 200.772 118.807 200.541 118.421H200.451V122.111H199.345ZM200.425 115.991C200.425 117.56 201.132 118.64 202.418 118.64C203.742 118.64 204.424 117.483 204.424 115.991C204.424 114.538 203.755 113.407 202.418 113.407C201.107 113.407 200.425 114.448 200.425 115.991Z" fill="var(--sol-element-tertiary)"/>
</g>
<g opacity="0.6">
<g clip-path="url(#clip4_1254_318938)">
<path d="M221.868 105.937C221.868 103.21 224.079 101 226.805 101H261.388C264.115 101 266.325 103.21 266.325 105.937V124.04C266.325 126.767 264.115 128.977 261.388 128.977H226.805C224.079 128.977 221.868 126.767 221.868 124.04V105.937Z" fill="var(--sol-surface)"/>
<path d="M226.806 101.411H260.931C263.43 101.411 265.457 103.438 265.457 105.938V124.062C265.457 126.562 263.43 128.589 260.931 128.589H226.806C224.306 128.589 222.279 126.562 222.279 124.062V105.938C222.279 103.438 224.306 101.411 226.806 101.411Z" stroke="var(--sol-element-primary)" stroke-opacity="0.16" stroke-width="0.822857"/>
<path d="M237.477 113.111C237.207 111.825 236.101 111.131 234.88 111.131C233.195 111.131 231.884 112.43 231.884 114.834C231.884 117.238 233.195 118.537 234.88 118.537C236.101 118.537 237.194 117.843 237.477 116.57H238.634C238.3 118.473 236.77 119.617 234.88 119.617C232.488 119.617 230.765 117.778 230.765 114.834C230.765 111.89 232.488 110.051 234.88 110.051C236.757 110.051 238.287 111.183 238.634 113.111H237.477ZM241.218 115.297V119.488H240.112V110.18H241.218V113.6H241.308C241.63 112.88 242.26 112.417 243.365 112.417C244.792 112.417 245.744 113.265 245.744 115.053V119.488H244.638V115.13C244.638 114.037 244.034 113.407 243.031 113.407C241.99 113.407 241.218 114.088 241.218 115.297ZM247.518 119.488V112.507H248.624V119.488H247.518ZM248.071 111.35C247.647 111.35 247.3 111.028 247.3 110.617C247.3 110.205 247.647 109.884 248.071 109.884C248.495 109.884 248.855 110.205 248.855 110.617C248.855 111.028 248.495 111.35 248.071 111.35ZM250.385 122.111V112.507H251.452V113.613H251.581C251.812 113.24 252.25 112.417 253.6 112.417C255.348 112.417 256.57 113.805 256.57 116.017C256.57 118.228 255.348 119.63 253.612 119.63C252.275 119.63 251.812 118.807 251.581 118.421H251.491V122.111H250.385ZM251.465 115.991C251.465 117.56 252.172 118.64 253.458 118.64C254.782 118.64 255.464 117.483 255.464 115.991C255.464 114.538 254.795 113.407 253.458 113.407C252.147 113.407 251.465 114.448 251.465 115.991Z" fill="var(--sol-element-tertiary)"/>
</g>
</g>
<g opacity="0.4">
<g clip-path="url(#clip5_1254_318938)">
<path d="M272.908 105.937C272.908 103.21 275.119 101 277.845 101H312.428C315.155 101 317.365 103.21 317.365 105.937V124.04C317.365 126.767 315.155 128.977 312.428 128.977H277.845C275.119 128.977 272.908 126.767 272.908 124.04V105.937Z" fill="var(--sol-surface)"/>
<path d="M277.846 101.411H311.971C314.47 101.411 316.497 103.438 316.497 105.938V124.062C316.497 126.562 314.47 128.589 311.971 128.589H277.846C275.346 128.589 273.319 126.562 273.319 124.062V105.938C273.319 103.438 275.346 101.411 277.846 101.411Z" stroke="var(--sol-element-primary)" stroke-opacity="0.16" stroke-width="0.822857"/>
<path d="M288.517 113.111C288.247 111.825 287.141 111.131 285.92 111.131C284.235 111.131 282.924 112.43 282.924 114.834C282.924 117.238 284.235 118.537 285.92 118.537C287.141 118.537 288.234 117.843 288.517 116.57H289.674C289.34 118.473 287.81 119.617 285.92 119.617C283.528 119.617 281.805 117.778 281.805 114.834C281.805 111.89 283.528 110.051 285.92 110.051C287.797 110.051 289.327 111.183 289.674 113.111H288.517ZM292.258 115.297V119.488H291.152V110.18H292.258V113.6H292.348C292.67 112.88 293.3 112.417 294.405 112.417C295.832 112.417 296.784 113.265 296.784 115.053V119.488H295.678V115.13C295.678 114.037 295.074 113.407 294.071 113.407C293.03 113.407 292.258 114.088 292.258 115.297ZM298.558 119.488V112.507H299.664V119.488H298.558ZM299.111 111.35C298.687 111.35 298.34 111.028 298.34 110.617C298.34 110.205 298.687 109.884 299.111 109.884C299.535 109.884 299.895 110.205 299.895 110.617C299.895 111.028 299.535 111.35 299.111 111.35ZM301.425 122.111V112.507H302.492V113.613H302.621C302.852 113.24 303.29 112.417 304.64 112.417C306.388 112.417 307.61 113.805 307.61 116.017C307.61 118.228 306.388 119.63 304.652 119.63C303.315 119.63 302.852 118.807 302.621 118.421H302.531V122.111H301.425ZM302.505 115.991C302.505 117.56 303.212 118.64 304.498 118.64C305.822 118.64 306.504 117.483 306.504 115.991C306.504 114.538 305.835 113.407 304.498 113.407C303.187 113.407 302.505 114.448 302.505 115.991Z" fill="var(--sol-element-tertiary)"/>
</g>
</g>
<rect x="-7" y="140" width="302" height="52" fill="url(#paint0_linear_1254_318938)"/>
</g>
<defs>
<filter id="filter0_dd_1254_318938" x="33.4171" y="36.7086" width="279.166" height="182.166" filterUnits="userSpaceOnUse" color-interpolation-filters="sRGB">
<feFlood flood-opacity="0" result="BackgroundImageFix"/>
<feColorMatrix in="SourceAlpha" type="matrix" values="0 0 0 0 0 0 0 0 0 0 0 0 0 0 0 0 0 0 127 0" result="hardAlpha"/>
<feOffset dy="3.29143"/>
<feGaussianBlur stdDeviation="3.29143"/>
<feComposite in2="hardAlpha" operator="out"/>
<feColorMatrix type="matrix" values="0 0 0 0 0 0 0 0 0 0 0 0 0 0 0 0 0 0 0.08 0"/>
<feBlend mode="normal" in2="BackgroundImageFix" result="effect1_dropShadow_1254_318938"/>
<feColorMatrix in="SourceAlpha" type="matrix" values="0 0 0 0 0 0 0 0 0 0 0 0 0 0 0 0 0 0 127 0" result="hardAlpha"/>
<feOffset/>
<feGaussianBlur stdDeviation="0.411429"/>
<feComposite in2="hardAlpha" operator="out"/>
<feColorMatrix type="matrix" values="0 0 0 0 0 0 0 0 0 0 0 0 0 0 0 0 0 0 0.08 0"/>
<feBlend mode="normal" in2="effect1_dropShadow_1254_318938" result="effect2_dropShadow_1254_318938"/>
<feBlend mode="normal" in="SourceGraphic" in2="effect2_dropShadow_1254_318938" result="shape"/>
</filter>
<linearGradient id="paint0_linear_1254_318938" x1="252.531" y1="192" x2="252.531" y2="140" gradientUnits="userSpaceOnUse">
<stop stop-opacity="0.04"/>
<stop offset="1" stop-color="var(--sol-surface)" stop-opacity="0"/>
</linearGradient>
<clipPath id="clip0_1254_318938">
<rect width="288" height="192" fill="var(--sol-surface)"/>
</clipPath>
<clipPath id="clip1_1254_318938">
<path d="M62 105.937C62 103.21 64.2104 101 66.9371 101H88.52C91.2467 101 93.4571 103.21 93.4571 105.937V124.04C93.4571 126.767 91.2467 128.977 88.52 128.977H66.9371C64.2104 128.977 62 126.767 62 124.04V105.937Z" fill="var(--sol-surface)"/>
</clipPath>
<clipPath id="clip2_1254_318938">
<path d="M100.04 105.937C100.04 103.21 102.25 101 104.977 101H159.309C162.035 101 164.246 103.21 164.246 105.937V124.04C164.246 126.767 162.035 128.977 159.309 128.977H104.977C102.25 128.977 100.04 126.767 100.04 124.04V105.937Z" fill="var(--sol-surface)"/>
</clipPath>
<clipPath id="clip3_1254_318938">
<path d="M170.828 105.937C170.828 103.21 173.039 101 175.765 101H210.348C213.075 101 215.285 103.21 215.285 105.937V124.04C215.285 126.767 213.075 128.977 210.348 128.977H175.765C173.039 128.977 170.828 126.767 170.828 124.04V105.937Z" fill="var(--sol-surface)"/>
</clipPath>
<clipPath id="clip4_1254_318938">
<path d="M221.868 105.937C221.868 103.21 224.079 101 226.805 101H261.388C264.115 101 266.325 103.21 266.325 105.937V124.04C266.325 126.767 264.115 128.977 261.388 128.977H226.805C224.079 128.977 221.868 126.767 221.868 124.04V105.937Z" fill="var(--sol-surface)"/>
</clipPath>
<clipPath id="clip5_1254_318938">
<path d="M272.908 105.937C272.908 103.21 275.119 101 277.845 101H312.428C315.155 101 317.365 103.21 317.365 105.937V124.04C317.365 126.767 315.155 128.977 312.428 128.977H277.845C275.119 128.977 272.908 126.767 272.908 124.04V105.937Z" fill="var(--sol-surface)"/>
</clipPath>
</defs>
</svg>
