<svg width="288" height="192" viewBox="0 0 288 192" fill="none" xmlns="http://www.w3.org/2000/svg">
<style>
:root {
  --sol-primary: #282363;
  --sol-element-brand-variant: #3a3480;
  --sol-fill-active: #4d469a;
  --sol-selected-container-variant: #f5f4fd;
  --sol-surface: #ffffff;
  --sol-surface-base-variant: #f5f5f5;
  --sol-secondary-container: #e8e6f8;
  --sol-element-primary: #161616;
  --sol-element-secondary: #484848;
  --sol-element-tertiary: #636363;
  --sol-element-quaternary: #858585;
  --sol-border-brand: #7b74c4;
  --sol-border-normal-variant: rgba(0, 0, 0, 0.08);
  --sol-border-solid-variant: #e0e0e0;
  --sol-border-solid: #d0d0d0;
  --sol-error: #e76067;
  --sol-error-container: #fdeaeb;
  --sol-static-white: #ffffff;
  --sol-static-black: #000000;
  --color-brand-400: #6058b4;
  --color-teal-500: #05a09a;
  --color-green-500: #35a142;
  --color-yellow-500: #d4ae00;
  --color-orange-500: #e06418;
  --color-blue-500: #3e9bca;
  --color-indigo-500: #3d5ed6;
  --color-pink-500: #d03e94;
}
@media (prefers-color-scheme: dark) {
  :root {
    --sol-primary: #9791d4;
    --sol-element-brand-variant: #ffffff;
    --sol-fill-active: #7b74c4;
    --sol-selected-container-variant: rgba(0, 0, 0, 0.08);
    --sol-surface: #161616;
    --sol-surface-base-variant: #1c1c1c;
    --sol-secondary-container: rgba(255, 255, 255, 0.16);
    --sol-element-primary: #ffffff;
    --sol-element-secondary: rgba(255, 255, 255, 0.8);
    --sol-element-tertiary: rgba(255, 255, 255, 0.6);
    --sol-element-quaternary: rgba(255, 255, 255, 0.5);
    --sol-border-brand: #7b74c4;
    --sol-border-normal-variant: rgba(255, 255, 255, 0.08);
    --sol-border-solid-variant: #3d3d3d;
    --sol-border-solid: #333333;
    --sol-error: #ee7a80;
    --sol-error-container: rgba(231, 96, 103, 0.24);
    --sol-static-white: #ffffff;
    --sol-static-black: #000000;
  }
}
</style>
<g filter="url(#filter0_dd_1254_318319)">
<path d="M24 46.8547C24 44.9162 25.5715 43.3447 27.51 43.3447H260.044C261.983 43.3447 263.554 44.9162 263.554 46.8547V144.404C263.554 146.343 261.983 147.914 260.044 147.914H27.51C25.5715 147.914 24 146.343 24 144.404V46.8547Z" fill="var(--sol-surface)" shape-rendering="crispEdges"/>
<path d="M27.5098 43.7832H260.044C261.74 43.7832 263.115 45.1584 263.115 46.8545V144.404C263.115 146.1 261.74 147.476 260.044 147.476H27.5098C25.8137 147.475 24.4385 146.1 24.4385 144.404V46.8545C24.4386 45.1585 25.8137 43.7833 27.5098 43.7832Z" stroke="var(--sol-border-solid-variant)" stroke-width="0.877488" shape-rendering="crispEdges"/>
<path d="M35.9107 60.3643H33.5971V52.9193H36.0033C38.173 52.9193 39.4584 54.3178 39.4584 56.6315C39.4584 58.9555 38.173 60.3643 35.9107 60.3643ZM34.5225 59.5416H35.849C37.6794 59.5416 38.5535 58.4413 38.5535 56.6315C38.5535 54.832 37.6794 53.742 35.9416 53.742H34.5225V59.5416ZM43.0472 60.4774C41.4328 60.4774 40.4353 59.336 40.4353 57.6187C40.4353 55.9014 41.443 54.7086 42.9649 54.7086C44.1372 54.7086 45.3712 55.4284 45.3712 57.4953V57.8655H41.3196C41.3608 59.048 42.0497 59.6959 43.0472 59.6959C43.7156 59.6959 44.1372 59.4079 44.3429 59.0583H45.2889C45.0215 59.9015 44.1989 60.4774 43.0472 60.4774ZM41.3299 57.1148H44.4765C44.4765 56.1791 43.8801 55.4901 42.9649 55.4901C41.9983 55.4901 41.3813 56.251 41.3299 57.1148ZM49.6284 56.2305C49.505 55.7677 49.1553 55.4592 48.4972 55.4592C47.8082 55.4592 47.3147 55.8294 47.3147 56.3024C47.3147 56.6726 47.6129 56.9297 48.271 57.084L49.1039 57.2896C50.1014 57.5261 50.595 58.0197 50.595 58.8012C50.595 59.7678 49.8032 60.4774 48.4047 60.4774C47.1501 60.4774 46.3995 59.9221 46.2555 58.9041H47.181C47.2838 59.4491 47.6849 59.7061 48.3841 59.7061C49.1759 59.7061 49.6798 59.3771 49.6798 58.8526C49.6798 58.4619 49.4021 58.1945 48.7646 58.0506L47.9214 57.8552C46.9445 57.629 46.4303 57.0942 46.4303 56.3539C46.4303 55.3975 47.2632 54.7086 48.4972 54.7086C49.6489 54.7086 50.379 55.3256 50.4921 56.2305H49.6284ZM54.0295 60.4774C52.4459 60.4774 51.4793 59.2743 51.4793 57.5981C51.4793 55.9014 52.487 54.7086 54.0089 54.7086C55.2018 54.7086 56.0861 55.4078 56.2301 56.467H55.3457C55.2223 55.9528 54.7699 55.4901 54.0295 55.4901C53.032 55.4901 52.3636 56.3127 52.3636 57.5673C52.3636 58.8629 53.0115 59.6856 54.0295 59.6856C54.6876 59.6856 55.1915 59.336 55.3457 58.719H56.2301C56.0861 59.7164 55.2738 60.4774 54.0295 60.4774ZM57.3201 60.3643V54.7806H58.1736V55.634H58.2353C58.4409 55.0685 59.0168 54.688 59.6749 54.688C59.8086 54.688 60.0348 54.6983 60.1376 54.7086V55.6032C60.0759 55.5826 59.8291 55.5415 59.6029 55.5415C58.8008 55.5415 58.2044 56.0968 58.2044 56.8475V60.3643H57.3201ZM61.0014 60.3643V54.7806H61.8858V60.3643H61.0014ZM61.4436 53.8551C61.1042 53.8551 60.8266 53.598 60.8266 53.2689C60.8266 52.9399 61.1042 52.6828 61.4436 52.6828C61.7829 52.6828 62.0709 52.9399 62.0709 53.2689C62.0709 53.598 61.7829 53.8551 61.4436 53.8551ZM63.2945 62.462V54.7806H64.148V55.6649H64.2509C64.436 55.3667 64.7856 54.7086 65.8653 54.7086C67.2638 54.7086 68.2407 55.8191 68.2407 57.5878C68.2407 59.3565 67.2638 60.4774 65.8756 60.4774C64.8061 60.4774 64.436 59.8193 64.2509 59.5108H64.1789V62.462H63.2945ZM64.1583 57.5673C64.1583 58.8218 64.7239 59.6856 65.7522 59.6856C66.8113 59.6856 67.3563 58.7601 67.3563 57.5673C67.3563 56.4053 66.8216 55.5004 65.7522 55.5004C64.7033 55.5004 64.1583 56.3333 64.1583 57.5673ZM71.8295 54.7806V55.5209H70.6572V58.7601C70.6572 59.4799 71.0068 59.593 71.3873 59.593C71.5518 59.593 71.7781 59.5827 71.9117 59.5725V60.3951C71.7781 60.4157 71.5518 60.4362 71.2948 60.4362C70.5544 60.4362 69.7626 59.9735 69.7626 58.9863V55.5209H68.9194V54.7806H69.7626V53.4438H70.6572V54.7806H71.8295ZM72.9709 60.3643V54.7806H73.8552V60.3643H72.9709ZM73.4131 53.8551C73.0737 53.8551 72.7961 53.598 72.7961 53.2689C72.7961 52.9399 73.0737 52.6828 73.4131 52.6828C73.7524 52.6828 74.0403 52.9399 74.0403 53.2689C74.0403 53.598 73.7524 53.8551 73.4131 53.8551ZM77.5469 60.4774C76.025 60.4774 74.9967 59.336 74.9967 57.5981C74.9967 55.8603 76.025 54.7086 77.5469 54.7086C79.0585 54.7086 80.0765 55.8603 80.0765 57.5981C80.0765 59.336 79.0585 60.4774 77.5469 60.4774ZM77.5469 59.6959C78.6677 59.6959 79.1922 58.7087 79.1922 57.5981C79.1922 56.4875 78.6677 55.4901 77.5469 55.4901C76.4054 55.4901 75.881 56.4875 75.881 57.5981C75.881 58.7087 76.4054 59.6959 77.5469 59.6959ZM82.1228 57.012V60.3643H81.2385V54.7806H82.092V55.6546H82.164C82.4313 55.089 82.9455 54.7086 83.799 54.7086C84.9301 54.7086 85.6808 55.3975 85.6808 56.8166V60.3643H84.7964V56.8783C84.7964 56.0145 84.3234 55.5004 83.5316 55.5004C82.7192 55.5004 82.1228 56.0454 82.1228 57.012Z" fill="var(--sol-element-tertiary)"/>
<g clip-path="url(#clip0_1254_318319)">
<g clip-path="url(#clip1_1254_318319)">
<path d="M38.7744 82.874C38.7744 77.3512 43.2516 72.874 48.7744 72.874V72.874C54.2973 72.874 58.7744 77.3512 58.7744 82.874V82.874C58.7744 88.3969 54.2973 92.874 48.7744 92.874V92.874C43.2516 92.874 38.7744 88.3969 38.7744 82.874V82.874Z" fill="var(--sol-error)"/>
<path d="M48.7744 73.374C54.0211 73.374 58.2744 77.6273 58.2744 82.874C58.2744 88.1207 54.0211 92.374 48.7744 92.374C43.5277 92.374 39.2744 88.1207 39.2744 82.874C39.2744 77.6273 43.5277 73.374 48.7744 73.374Z" stroke="var(--sol-element-primary)" stroke-opacity="0.16"/>
</g>
<g clip-path="url(#clip2_1254_318319)">
<path d="M77.7939 82.874C77.7939 77.3512 82.2711 72.874 87.7939 72.874V72.874C93.3168 72.874 97.7939 77.3512 97.7939 82.874V82.874C97.7939 88.3969 93.3168 92.874 87.7939 92.874V92.874C82.2711 92.874 77.7939 88.3969 77.7939 82.874V82.874Z" fill="var(--color-orange-500)"/>
<path d="M87.7939 73.374C93.0407 73.374 97.2939 77.6273 97.2939 82.874C97.2939 88.1207 93.0407 92.374 87.7939 92.374C82.5472 92.374 78.2939 88.1207 78.2939 82.874C78.2939 77.6273 82.5472 73.374 87.7939 73.374Z" stroke="var(--sol-element-primary)" stroke-opacity="0.16"/>
</g>
<g clip-path="url(#clip3_1254_318319)">
<path d="M116.814 82.874C116.814 77.3512 121.292 72.874 126.814 72.874V72.874C132.337 72.874 136.814 77.3512 136.814 82.874V82.874C136.814 88.3969 132.337 92.874 126.814 92.874V92.874C121.292 92.874 116.814 88.3969 116.814 82.874V82.874Z" fill="var(--color-yellow-500)"/>
<path d="M126.814 73.374C132.061 73.374 136.314 77.6273 136.314 82.874C136.314 88.1207 132.061 92.374 126.814 92.374C121.568 92.374 117.314 88.1207 117.314 82.874C117.314 77.6273 121.568 73.374 126.814 73.374Z" stroke="var(--sol-element-primary)" stroke-opacity="0.16"/>
</g>
<g clip-path="url(#clip4_1254_318319)">
<path d="M155.834 82.874C155.834 77.3512 160.311 72.874 165.834 72.874V72.874C171.357 72.874 175.834 77.3512 175.834 82.874V82.874C175.834 88.3969 171.357 92.874 165.834 92.874V92.874C160.311 92.874 155.834 88.3969 155.834 82.874V82.874Z" fill="var(--color-green-500)"/>
<path d="M165.834 73.374C171.081 73.374 175.334 77.6273 175.334 82.874C175.334 88.1207 171.081 92.374 165.834 92.374C160.587 92.374 156.334 88.1207 156.334 82.874C156.334 77.6273 160.587 73.374 165.834 73.374Z" stroke="var(--sol-element-primary)" stroke-opacity="0.16"/>
</g>
<g clip-path="url(#clip5_1254_318319)">
<path d="M194.854 82.874C194.854 77.3512 199.332 72.874 204.854 72.874V72.874C210.377 72.874 214.854 77.3512 214.854 82.874V82.874C214.854 88.3969 210.377 92.874 204.854 92.874V92.874C199.332 92.874 194.854 88.3969 194.854 82.874V82.874Z" fill="var(--color-teal-500)"/>
<path d="M204.854 73.374C210.101 73.374 214.354 77.6273 214.354 82.874C214.354 88.1207 210.101 92.374 204.854 92.374C199.608 92.374 195.354 88.1207 195.354 82.874C195.354 77.6273 199.608 73.374 204.854 73.374Z" stroke="var(--sol-element-primary)" stroke-opacity="0.16"/>
</g>
<g clip-path="url(#clip6_1254_318319)">
<path d="M38.7744 123.394C38.7744 117.871 43.2516 113.394 48.7744 113.394V113.394C54.2973 113.394 58.7744 117.871 58.7744 123.394V123.394C58.7744 128.916 54.2973 133.394 48.7744 133.394V133.394C43.2516 133.394 38.7744 128.916 38.7744 123.394V123.394Z" fill="var(--sol-element-primary)"/>
<path d="M48.7744 113.894C54.0211 113.894 58.2744 118.147 58.2744 123.394C58.2744 128.64 54.0211 132.894 48.7744 132.894C43.5277 132.894 39.2744 128.64 39.2744 123.394C39.2744 118.147 43.5277 113.894 48.7744 113.894Z" stroke="var(--sol-element-primary)" stroke-opacity="0.16"/>
</g>
<g filter="url(#filter1_d_1254_318319)">
<g clip-path="url(#clip7_1254_318319)">
<path d="M72.7744 112.394C72.7744 110.184 74.5653 108.394 76.7744 108.394H153.774C155.984 108.394 157.774 110.184 157.774 112.394V134.394C157.774 136.603 155.984 138.394 153.774 138.394H76.7744C74.5653 138.394 72.7744 136.603 72.7744 134.394V112.394Z" fill="var(--sol-surface)"/>
<path d="M88.7354 127.394L89.1221 125.05H86.9893L86.6025 127.394H85.7471L86.1338 125.05H84.8799L85.0205 124.206H86.2744L86.626 122.097H85.3838L85.5127 121.253H86.7549L87.1416 118.909H87.9971L87.6104 121.253H89.7432L90.1299 118.909H90.9854L90.5986 121.253H91.8643L91.7236 122.097H90.4697L90.1182 124.206H91.3604L91.2197 125.05H89.9775L89.5908 127.394H88.7354ZM87.1299 124.206H89.2627L89.6143 122.097H87.4814L87.1299 124.206ZM95.5439 127.511C93.6572 127.511 92.5791 125.929 92.5791 123.151C92.5791 120.397 93.6807 118.792 95.5439 118.792C97.4072 118.792 98.5088 120.397 98.5088 123.151C98.5088 125.929 97.4189 127.511 95.5439 127.511ZM95.5439 126.573C96.7627 126.573 97.4775 125.343 97.4775 123.151C97.4775 120.96 96.7627 119.706 95.5439 119.706C94.3252 119.706 93.5986 120.96 93.5986 123.151C93.5986 125.343 94.3135 126.573 95.5439 126.573ZM102.692 127.511C100.806 127.511 99.7275 125.929 99.7275 123.151C99.7275 120.397 100.829 118.792 102.692 118.792C104.556 118.792 105.657 120.397 105.657 123.151C105.657 125.929 104.567 127.511 102.692 127.511ZM102.692 126.573C103.911 126.573 104.626 125.343 104.626 123.151C104.626 120.96 103.911 119.706 102.692 119.706C101.474 119.706 100.747 120.96 100.747 123.151C100.747 125.343 101.462 126.573 102.692 126.573ZM109.841 127.511C107.954 127.511 106.876 125.929 106.876 123.151C106.876 120.397 107.978 118.792 109.841 118.792C111.704 118.792 112.806 120.397 112.806 123.151C112.806 125.929 111.716 127.511 109.841 127.511ZM109.841 126.573C111.06 126.573 111.774 125.343 111.774 123.151C111.774 120.96 111.06 119.706 109.841 119.706C108.622 119.706 107.896 120.96 107.896 123.151C107.896 125.343 108.61 126.573 109.841 126.573ZM116.989 127.511C115.103 127.511 114.024 125.929 114.024 123.151C114.024 120.397 115.126 118.792 116.989 118.792C118.853 118.792 119.954 120.397 119.954 123.151C119.954 125.929 118.864 127.511 116.989 127.511ZM116.989 126.573C118.208 126.573 118.923 125.343 118.923 123.151C118.923 120.96 118.208 119.706 116.989 119.706C115.771 119.706 115.044 120.96 115.044 123.151C115.044 125.343 115.759 126.573 116.989 126.573ZM124.138 127.511C122.251 127.511 121.173 125.929 121.173 123.151C121.173 120.397 122.274 118.792 124.138 118.792C126.001 118.792 127.103 120.397 127.103 123.151C127.103 125.929 126.013 127.511 124.138 127.511ZM124.138 126.573C125.356 126.573 126.071 125.343 126.071 123.151C126.071 120.96 125.356 119.706 124.138 119.706C122.919 119.706 122.192 120.96 122.192 123.151C122.192 125.343 122.907 126.573 124.138 126.573ZM131.286 127.511C129.399 127.511 128.321 125.929 128.321 123.151C128.321 120.397 129.423 118.792 131.286 118.792C133.149 118.792 134.251 120.397 134.251 123.151C134.251 125.929 133.161 127.511 131.286 127.511ZM131.286 126.573C132.505 126.573 133.22 125.343 133.22 123.151C133.22 120.96 132.505 119.706 131.286 119.706C130.067 119.706 129.341 120.96 129.341 123.151C129.341 125.343 130.056 126.573 131.286 126.573Z" fill="var(--sol-element-primary)"/>
</g>
<path d="M76.7744 108.894H153.774C155.707 108.894 157.274 110.461 157.274 112.394V134.394C157.274 136.327 155.707 137.894 153.774 137.894H76.7744C74.8414 137.894 73.2744 136.327 73.2744 134.394V112.394L73.2793 112.214C73.3728 110.364 74.9017 108.894 76.7744 108.894Z" stroke="var(--sol-element-primary)" stroke-opacity="0.16"/>
</g>
</g>
</g>
<defs>
<filter id="filter0_dd_1254_318319" x="16.9801" y="39.8348" width="253.594" height="118.609" filterUnits="userSpaceOnUse" color-interpolation-filters="sRGB">
<feFlood flood-opacity="0" result="BackgroundImageFix"/>
<feColorMatrix in="SourceAlpha" type="matrix" values="0 0 0 0 0 0 0 0 0 0 0 0 0 0 0 0 0 0 127 0" result="hardAlpha"/>
<feOffset dy="3.50995"/>
<feGaussianBlur stdDeviation="3.50995"/>
<feComposite in2="hardAlpha" operator="out"/>
<feColorMatrix type="matrix" values="0 0 0 0 0 0 0 0 0 0 0 0 0 0 0 0 0 0 0.08 0"/>
<feBlend mode="normal" in2="BackgroundImageFix" result="effect1_dropShadow_1254_318319"/>
<feColorMatrix in="SourceAlpha" type="matrix" values="0 0 0 0 0 0 0 0 0 0 0 0 0 0 0 0 0 0 127 0" result="hardAlpha"/>
<feOffset/>
<feGaussianBlur stdDeviation="0.438744"/>
<feComposite in2="hardAlpha" operator="out"/>
<feColorMatrix type="matrix" values="0 0 0 0 0 0 0 0 0 0 0 0 0 0 0 0 0 0 0.08 0"/>
<feBlend mode="normal" in2="effect1_dropShadow_1254_318319" result="effect2_dropShadow_1254_318319"/>
<feBlend mode="normal" in="SourceGraphic" in2="effect2_dropShadow_1254_318319" result="shape"/>
</filter>
<filter id="filter1_d_1254_318319" x="70.7744" y="106.394" width="89" height="34" filterUnits="userSpaceOnUse" color-interpolation-filters="sRGB">
<feFlood flood-opacity="0" result="BackgroundImageFix"/>
<feColorMatrix in="SourceAlpha" type="matrix" values="0 0 0 0 0 0 0 0 0 0 0 0 0 0 0 0 0 0 127 0" result="hardAlpha"/>
<feMorphology radius="2" operator="dilate" in="SourceAlpha" result="effect1_dropShadow_1254_318319"/>
<feOffset/>
<feComposite in2="hardAlpha" operator="out"/>
<feColorMatrix type="matrix" values="0 0 0 0 0.156863 0 0 0 0 0.137255 0 0 0 0 0.388235 0 0 0 1 0"/>
<feBlend mode="normal" in2="BackgroundImageFix" result="effect1_dropShadow_1254_318319"/>
<feBlend mode="normal" in="SourceGraphic" in2="effect1_dropShadow_1254_318319" result="shape"/>
</filter>
<clipPath id="clip0_1254_318319">
<rect width="222.004" height="74.0199" fill="var(--sol-surface)" transform="translate(32.7744 66.874)"/>
</clipPath>
<clipPath id="clip1_1254_318319">
<path d="M32.7744 70.874C32.7744 68.6649 34.5653 66.874 36.7744 66.874H60.7744C62.9836 66.874 64.7744 68.6649 64.7744 70.874V94.874C64.7744 97.0832 62.9836 98.874 60.7744 98.874H36.7744C34.5653 98.874 32.7744 97.0832 32.7744 94.874V70.874Z" fill="var(--sol-surface)"/>
</clipPath>
<clipPath id="clip2_1254_318319">
<path d="M71.7939 70.874C71.7939 68.6649 73.5848 66.874 75.7939 66.874H99.7939C102.003 66.874 103.794 68.6649 103.794 70.874V94.874C103.794 97.0832 102.003 98.874 99.7939 98.874H75.7939C73.5848 98.874 71.7939 97.0832 71.7939 94.874V70.874Z" fill="var(--sol-surface)"/>
</clipPath>
<clipPath id="clip3_1254_318319">
<path d="M110.814 70.874C110.814 68.6649 112.605 66.874 114.814 66.874H138.814C141.024 66.874 142.814 68.6649 142.814 70.874V94.874C142.814 97.0832 141.024 98.874 138.814 98.874H114.814C112.605 98.874 110.814 97.0832 110.814 94.874V70.874Z" fill="var(--sol-surface)"/>
</clipPath>
<clipPath id="clip4_1254_318319">
<path d="M149.834 70.874C149.834 68.6649 151.625 66.874 153.834 66.874H177.834C180.043 66.874 181.834 68.6649 181.834 70.874V94.874C181.834 97.0832 180.043 98.874 177.834 98.874H153.834C151.625 98.874 149.834 97.0832 149.834 94.874V70.874Z" fill="var(--sol-surface)"/>
</clipPath>
<clipPath id="clip5_1254_318319">
<path d="M188.854 70.874C188.854 68.6649 190.645 66.874 192.854 66.874H216.854C219.064 66.874 220.854 68.6649 220.854 70.874V94.874C220.854 97.0832 219.064 98.874 216.854 98.874H192.854C190.645 98.874 188.854 97.0832 188.854 94.874V70.874Z" fill="var(--sol-surface)"/>
</clipPath>
<clipPath id="clip6_1254_318319">
<path d="M32.7744 111.394C32.7744 109.184 34.5653 107.394 36.7744 107.394H60.7744C62.9836 107.394 64.7744 109.184 64.7744 111.394V135.394C64.7744 137.603 62.9836 139.394 60.7744 139.394H36.7744C34.5653 139.394 32.7744 137.603 32.7744 135.394V111.394Z" fill="var(--sol-surface)"/>
</clipPath>
<clipPath id="clip7_1254_318319">
<path d="M72.7744 112.394C72.7744 110.184 74.5653 108.394 76.7744 108.394H153.774C155.984 108.394 157.774 110.184 157.774 112.394V134.394C157.774 136.603 155.984 138.394 153.774 138.394H76.7744C74.5653 138.394 72.7744 136.603 72.7744 134.394V112.394Z" fill="var(--sol-surface)"/>
</clipPath>
</defs>
</svg>
