<svg width="288" height="192" viewBox="0 0 288 192" fill="none" xmlns="http://www.w3.org/2000/svg">
<style>
:root {
  --sol-primary: #282363;
  --sol-element-brand-variant: #3a3480;
  --sol-fill-active: #4d469a;
  --sol-selected-container-variant: #f5f4fd;
  --sol-surface: #ffffff;
  --sol-surface-base-variant: #f5f5f5;
  --sol-secondary-container: #e8e6f8;
  --sol-element-primary: #161616;
  --sol-element-secondary: #484848;
  --sol-element-tertiary: #636363;
  --sol-element-quaternary: #858585;
  --sol-border-brand: #7b74c4;
  --sol-border-normal-variant: rgba(0, 0, 0, 0.08);
  --sol-border-solid-variant: #e0e0e0;
  --sol-border-solid: #d0d0d0;
  --sol-error: #e76067;
  --sol-error-container: #fdeaeb;
  --sol-static-white: #ffffff;
  --sol-static-black: #000000;
  --color-brand-400: #6058b4;
  --color-teal-500: #05a09a;
  --color-green-500: #35a142;
  --color-yellow-500: #d4ae00;
  --color-orange-500: #e06418;
  --color-blue-500: #3e9bca;
  --color-indigo-500: #3d5ed6;
  --color-pink-500: #d03e94;
}
@media (prefers-color-scheme: dark) {
  :root {
    --sol-primary: #9791d4;
    --sol-element-brand-variant: #ffffff;
    --sol-fill-active: #7b74c4;
    --sol-selected-container-variant: rgba(0, 0, 0, 0.08);
    --sol-surface: #161616;
    --sol-surface-base-variant: #1c1c1c;
    --sol-secondary-container: rgba(255, 255, 255, 0.16);
    --sol-element-primary: #ffffff;
    --sol-element-secondary: rgba(255, 255, 255, 0.8);
    --sol-element-tertiary: rgba(255, 255, 255, 0.6);
    --sol-element-quaternary: rgba(255, 255, 255, 0.5);
    --sol-border-brand: #7b74c4;
    --sol-border-normal-variant: rgba(255, 255, 255, 0.08);
    --sol-border-solid-variant: #3d3d3d;
    --sol-border-solid: #333333;
    --sol-error: #ee7a80;
    --sol-error-container: rgba(231, 96, 103, 0.24);
    --sol-static-white: #ffffff;
    --sol-static-black: #000000;
  }
}
</style>
<path d="M36 38C36 36.3431 37.3431 35 39 35H72C73.6569 35 75 36.3431 75 38V44C75 45.6569 73.6569 47 72 47H39C37.3431 47 36 45.6569 36 44V38Z" fill="var(--sol-element-primary)" fill-opacity="0.08"/>
<g clip-path="url(#clip0_1240_140451)">
<g clip-path="url(#clip1_1240_140451)">
<path d="M39.333 68.334C39.333 67.2294 40.2284 66.334 41.333 66.334H50.6663C51.7709 66.334 52.6663 67.2294 52.6663 68.334V77.6673C52.6663 78.7719 51.7709 79.6673 50.6663 79.6673H41.333C40.2284 79.6673 39.333 78.7719 39.333 77.6673V68.334Z" fill="var(--sol-fill-active)"/>
<path d="M51.0464 70.2686L44.8805 76.4345C44.6365 76.6785 44.2408 76.6785 43.9967 76.4345L40.9531 73.3908L41.8369 72.5071L44.4384 75.1085L50.1627 69.3848L51.0464 70.2686Z" fill="var(--sol-surface)"/>
</g>
<path d="M62 68C62 66.3431 63.3431 65 65 65H133C134.657 65 136 66.3431 136 68V80C136 81.6569 134.657 83 133 83H65C63.3431 83 62 81.6569 62 80V68Z" fill="var(--sol-element-primary)" fill-opacity="0.08"/>
<g clip-path="url(#clip2_1240_140451)">
<path d="M39.333 102.334C39.333 101.229 40.2284 100.334 41.333 100.334H50.6663C51.7709 100.334 52.6663 101.229 52.6663 102.334V111.667C52.6663 112.772 51.7709 113.667 50.6663 113.667H41.333C40.2284 113.667 39.333 112.772 39.333 111.667V102.334Z" fill="var(--sol-fill-active)"/>
<path d="M51.0464 104.269L44.8805 110.434C44.6365 110.678 44.2408 110.679 43.9967 110.434L40.9531 107.391L41.8369 106.507L44.4384 109.109L50.1627 103.385L51.0464 104.269Z" fill="var(--sol-surface)"/>
</g>
<path d="M62 102C62 100.343 63.3431 99 65 99H133C134.657 99 136 100.343 136 102V114C136 115.657 134.657 117 133 117H65C63.3431 117 62 115.657 62 114V102Z" fill="var(--sol-element-primary)" fill-opacity="0.08"/>
<g clip-path="url(#clip3_1240_140451)">
<path d="M39.333 136.334C39.333 135.229 40.2284 134.334 41.333 134.334H50.6663C51.7709 134.334 52.6663 135.229 52.6663 136.334V145.667C52.6663 146.772 51.7709 147.667 50.6663 147.667H41.333C40.2284 147.667 39.333 146.772 39.333 145.667V136.334Z" fill="var(--sol-fill-active)"/>
<path d="M51.0464 138.269L44.8805 144.434C44.6365 144.678 44.2408 144.679 43.9967 144.434L40.9531 141.391L41.8369 140.507L44.4384 143.109L50.1627 137.385L51.0464 138.269Z" fill="var(--sol-surface)"/>
</g>
<path d="M62 136C62 134.343 63.3431 133 65 133H133C134.657 133 136 134.343 136 136V148C136 149.657 134.657 151 133 151H65C63.3431 151 62 149.657 62 148V136Z" fill="var(--sol-element-primary)" fill-opacity="0.08"/>
</g>
<g clip-path="url(#clip4_1240_140451)">
<g clip-path="url(#clip5_1240_140451)">
<path d="M155.333 68.334C155.333 67.2294 156.228 66.334 157.333 66.334H166.666C167.771 66.334 168.666 67.2294 168.666 68.334V77.6673C168.666 78.7719 167.771 79.6673 166.666 79.6673H157.333C156.228 79.6673 155.333 78.7719 155.333 77.6673V68.334Z" fill="var(--sol-fill-active)"/>
<path d="M167.046 70.2686L160.881 76.4345C160.636 76.6785 160.241 76.6785 159.997 76.4345L156.953 73.3908L157.837 72.5071L160.438 75.1085L166.163 69.3848L167.046 70.2686Z" fill="var(--sol-surface)"/>
</g>
<path d="M178 68C178 66.3431 179.343 65 181 65H249C250.657 65 252 66.3431 252 68V80C252 81.6569 250.657 83 249 83H181C179.343 83 178 81.6569 178 80V68Z" fill="var(--sol-element-primary)" fill-opacity="0.08"/>
<g clip-path="url(#clip6_1240_140451)">
<path d="M155.333 102.334C155.333 101.229 156.228 100.334 157.333 100.334H166.666C167.771 100.334 168.666 101.229 168.666 102.334V111.667C168.666 112.772 167.771 113.667 166.666 113.667H157.333C156.228 113.667 155.333 112.772 155.333 111.667V102.334Z" fill="var(--sol-fill-active)"/>
<path d="M167.046 104.269L160.881 110.434C160.636 110.678 160.241 110.679 159.997 110.434L156.953 107.391L157.837 106.507L160.438 109.109L166.163 103.385L167.046 104.269Z" fill="var(--sol-surface)"/>
</g>
<path d="M178 102C178 100.343 179.343 99 181 99H249C250.657 99 252 100.343 252 102V114C252 115.657 250.657 117 249 117H181C179.343 117 178 115.657 178 114V102Z" fill="var(--sol-element-primary)" fill-opacity="0.08"/>
</g>
<defs>
<clipPath id="clip0_1240_140451">
<rect width="100" height="102" fill="var(--sol-surface)" transform="translate(36 57)"/>
</clipPath>
<clipPath id="clip1_1240_140451">
<path d="M39.333 68.334C39.333 67.2294 40.2284 66.334 41.333 66.334H50.6663C51.7709 66.334 52.6663 67.2294 52.6663 68.334V77.6673C52.6663 78.7719 51.7709 79.6673 50.6663 79.6673H41.333C40.2284 79.6673 39.333 78.7719 39.333 77.6673V68.334Z" fill="var(--sol-surface)"/>
</clipPath>
<clipPath id="clip2_1240_140451">
<path d="M39.333 102.334C39.333 101.229 40.2284 100.334 41.333 100.334H50.6663C51.7709 100.334 52.6663 101.229 52.6663 102.334V111.667C52.6663 112.772 51.7709 113.667 50.6663 113.667H41.333C40.2284 113.667 39.333 112.772 39.333 111.667V102.334Z" fill="var(--sol-surface)"/>
</clipPath>
<clipPath id="clip3_1240_140451">
<path d="M39.333 136.334C39.333 135.229 40.2284 134.334 41.333 134.334H50.6663C51.7709 134.334 52.6663 135.229 52.6663 136.334V145.667C52.6663 146.772 51.7709 147.667 50.6663 147.667H41.333C40.2284 147.667 39.333 146.772 39.333 145.667V136.334Z" fill="var(--sol-surface)"/>
</clipPath>
<clipPath id="clip4_1240_140451">
<rect width="100" height="68" fill="var(--sol-surface)" transform="translate(152 57)"/>
</clipPath>
<clipPath id="clip5_1240_140451">
<path d="M155.333 68.334C155.333 67.2294 156.228 66.334 157.333 66.334H166.666C167.771 66.334 168.666 67.2294 168.666 68.334V77.6673C168.666 78.7719 167.771 79.6673 166.666 79.6673H157.333C156.228 79.6673 155.333 78.7719 155.333 77.6673V68.334Z" fill="var(--sol-surface)"/>
</clipPath>
<clipPath id="clip6_1240_140451">
<path d="M155.333 102.334C155.333 101.229 156.228 100.334 157.333 100.334H166.666C167.771 100.334 168.666 101.229 168.666 102.334V111.667C168.666 112.772 167.771 113.667 166.666 113.667H157.333C156.228 113.667 155.333 112.772 155.333 111.667V102.334Z" fill="var(--sol-surface)"/>
</clipPath>
</defs>
</svg>
