<svg width="288" height="192" viewBox="0 0 288 192" fill="none" xmlns="http://www.w3.org/2000/svg">
<style>
:root {
  --sol-primary: #282363;
  --sol-element-brand-variant: #3a3480;
  --sol-fill-active: #4d469a;
  --sol-selected-container-variant: #f5f4fd;
  --sol-surface: #ffffff;
  --sol-surface-base-variant: #f5f5f5;
  --sol-secondary-container: #e8e6f8;
  --sol-element-primary: #161616;
  --sol-element-secondary: #484848;
  --sol-element-tertiary: #636363;
  --sol-element-quaternary: #858585;
  --sol-border-brand: #7b74c4;
  --sol-border-normal-variant: rgba(0, 0, 0, 0.08);
  --sol-border-solid-variant: #e0e0e0;
  --sol-border-solid: #d0d0d0;
  --sol-error: #e76067;
  --sol-error-container: #fdeaeb;
  --sol-static-white: #ffffff;
  --sol-static-black: #000000;
  --color-brand-400: #6058b4;
  --color-teal-500: #05a09a;
  --color-green-500: #35a142;
  --color-yellow-500: #d4ae00;
  --color-orange-500: #e06418;
  --color-blue-500: #3e9bca;
  --color-indigo-500: #3d5ed6;
  --color-pink-500: #d03e94;
}
@media (prefers-color-scheme: dark) {
  :root {
    --sol-primary: #9791d4;
    --sol-element-brand-variant: #ffffff;
    --sol-fill-active: #7b74c4;
    --sol-selected-container-variant: rgba(0, 0, 0, 0.08);
    --sol-surface: #161616;
    --sol-surface-base-variant: #1c1c1c;
    --sol-secondary-container: rgba(255, 255, 255, 0.16);
    --sol-element-primary: #ffffff;
    --sol-element-secondary: rgba(255, 255, 255, 0.8);
    --sol-element-tertiary: rgba(255, 255, 255, 0.6);
    --sol-element-quaternary: rgba(255, 255, 255, 0.5);
    --sol-border-brand: #7b74c4;
    --sol-border-normal-variant: rgba(255, 255, 255, 0.08);
    --sol-border-solid-variant: #3d3d3d;
    --sol-border-solid: #333333;
    --sol-error: #ee7a80;
    --sol-error-container: rgba(231, 96, 103, 0.24);
    --sol-static-white: #ffffff;
    --sol-static-black: #000000;
  }
}
</style>
<g clip-path="url(#clip0_1240_140465)">
<g filter="url(#filter0_dd_1240_140465)">
<g clip-path="url(#clip1_1240_140465)">
<g clip-path="url(#clip2_1240_140465)">
<rect x="40" y="40" width="346" height="283.44" rx="4" fill="var(--sol-surface)"/>
<g clip-path="url(#clip3_1240_140465)">
<rect width="346" height="283.44" transform="translate(40 40)" fill="var(--sol-surface)"/>
<mask id="path-4-inside-1_1240_140465" fill="var(--sol-static-white)">
<path d="M40 40H386V71.44H40V40Z"/>
</mask>
<path d="M40 40H386V71.44H40V40Z" fill="var(--sol-element-primary)" fill-opacity="0.04"/>
<path d="M40 40V40.84H386V40V39.16H40V40ZM386 71.44V70.6H40V71.44V72.28H386V71.44Z" fill="var(--sol-border-normal-variant)" mask="url(#path-4-inside-1_1240_140465)"/>
<path d="M59.2197 50.2207H68.2197C68.772 50.2207 69.2197 50.6684 69.2197 51.2207V60.2207C69.2197 60.773 68.772 61.2207 68.2197 61.2207H59.2197C58.6674 61.2207 58.2197 60.773 58.2197 60.2207V51.2207C58.2197 50.6684 58.6674 50.2207 59.2197 50.2207Z" stroke="var(--sol-element-primary)" stroke-opacity="0.16"/>
<path d="M81.5049 59.7207V51.2363H83.0283V54.834H86.9775V51.2363H88.5127V59.7207H86.9775V56.1113H83.0283V59.7207H81.5049ZM92.8369 59.8496C90.915 59.8496 89.7432 58.5723 89.7432 56.5801C89.7432 54.6113 90.9385 53.2754 92.7549 53.2754C94.3135 53.2754 95.6611 54.248 95.6611 56.4863V56.9551H91.2197C91.2373 58.0391 91.876 58.6777 92.8486 58.6777C93.5049 58.6777 93.9502 58.3965 94.1377 58.0215H95.6025C95.333 59.123 94.3135 59.8496 92.8369 59.8496ZM91.2314 55.9355H94.2314C94.2197 55.0684 93.6455 54.4355 92.7783 54.4355C91.876 54.4355 91.2783 55.1211 91.2314 55.9355ZM96.5283 57.9277C96.5283 56.498 97.7119 56.0762 98.8955 56.0059C99.335 55.9766 100.249 55.9238 100.524 55.9121V55.4082C100.524 54.7754 100.114 54.4121 99.376 54.4121C98.708 54.4121 98.2979 54.7168 98.1807 55.1738H96.7393C96.8447 54.0957 97.8174 53.2754 99.4111 53.2754C100.618 53.2754 102.013 53.7676 102.013 55.4668V59.7207H100.583V58.8418H100.536C100.255 59.3809 99.6572 59.8496 98.6611 59.8496C97.4424 59.8496 96.5283 59.1816 96.5283 57.9277ZM97.9697 57.916C97.9697 58.4668 98.415 58.748 99.0479 58.748C99.9502 58.748 100.536 58.1504 100.536 57.4355V56.9082L99.1299 57.002C98.415 57.0605 97.9697 57.3535 97.9697 57.916ZM105.786 59.8379C104.286 59.8379 103.161 58.6426 103.161 56.5449C103.161 54.4238 104.321 53.2754 105.798 53.2754C106.923 53.2754 107.392 53.9434 107.614 54.4004H107.673V51.2363H109.161V59.7207H107.696V58.7129H107.614C107.38 59.1816 106.888 59.8379 105.786 59.8379ZM106.196 58.6074C107.157 58.6074 107.708 57.7754 107.708 56.5332C107.708 55.3027 107.169 54.4941 106.196 54.4941C105.2 54.4941 104.685 55.3496 104.685 56.5332C104.685 57.7402 105.212 58.6074 106.196 58.6074ZM113.497 59.8496C111.575 59.8496 110.403 58.5723 110.403 56.5801C110.403 54.6113 111.599 53.2754 113.415 53.2754C114.974 53.2754 116.321 54.248 116.321 56.4863V56.9551H111.88C111.897 58.0391 112.536 58.6777 113.509 58.6777C114.165 58.6777 114.61 58.3965 114.798 58.0215H116.263C115.993 59.123 114.974 59.8496 113.497 59.8496ZM111.892 55.9355H114.892C114.88 55.0684 114.306 54.4355 113.438 54.4355C112.536 54.4355 111.938 55.1211 111.892 55.9355ZM117.481 59.7207V53.3574H118.935V54.4121H119.005C119.228 53.6855 119.849 53.2637 120.575 53.2637C120.739 53.2637 120.974 53.2754 121.114 53.2988V54.6816C120.985 54.6348 120.669 54.5879 120.423 54.5879C119.591 54.5879 118.981 55.1621 118.981 55.9707V59.7207H117.481Z" fill="var(--sol-element-tertiary)"/>
<path d="M152.545 59.1191V50.6348H154.068V54.2324H158.018V50.6348H159.553V59.1191H158.018V55.5098H154.068V59.1191H152.545ZM163.877 59.248C161.955 59.248 160.783 57.9707 160.783 55.9785C160.783 54.0098 161.979 52.6738 163.795 52.6738C165.354 52.6738 166.701 53.6465 166.701 55.8848V56.3535H162.26C162.277 57.4375 162.916 58.0762 163.889 58.0762C164.545 58.0762 164.99 57.7949 165.178 57.4199H166.643C166.373 58.5215 165.354 59.248 163.877 59.248ZM162.271 55.334H165.271C165.26 54.4668 164.686 53.834 163.818 53.834C162.916 53.834 162.318 54.5195 162.271 55.334ZM167.568 57.3262C167.568 55.8965 168.752 55.4746 169.936 55.4043C170.375 55.375 171.289 55.3223 171.564 55.3105V54.8066C171.564 54.1738 171.154 53.8105 170.416 53.8105C169.748 53.8105 169.338 54.1152 169.221 54.5723H167.779C167.885 53.4941 168.857 52.6738 170.451 52.6738C171.658 52.6738 173.053 53.166 173.053 54.8652V59.1191H171.623V58.2402H171.576C171.295 58.7793 170.697 59.248 169.701 59.248C168.482 59.248 167.568 58.5801 167.568 57.3262ZM169.01 57.3145C169.01 57.8652 169.455 58.1465 170.088 58.1465C170.99 58.1465 171.576 57.5488 171.576 56.834V56.3066L170.17 56.4004C169.455 56.459 169.01 56.752 169.01 57.3145ZM176.826 59.2363C175.326 59.2363 174.201 58.041 174.201 55.9434C174.201 53.8223 175.361 52.6738 176.838 52.6738C177.963 52.6738 178.432 53.3418 178.654 53.7988H178.713V50.6348H180.201V59.1191H178.736V58.1113H178.654C178.42 58.5801 177.928 59.2363 176.826 59.2363ZM177.236 58.0059C178.197 58.0059 178.748 57.1738 178.748 55.9316C178.748 54.7012 178.209 53.8926 177.236 53.8926C176.24 53.8926 175.725 54.748 175.725 55.9316C175.725 57.1387 176.252 58.0059 177.236 58.0059ZM184.537 59.248C182.615 59.248 181.443 57.9707 181.443 55.9785C181.443 54.0098 182.639 52.6738 184.455 52.6738C186.014 52.6738 187.361 53.6465 187.361 55.8848V56.3535H182.92C182.938 57.4375 183.576 58.0762 184.549 58.0762C185.205 58.0762 185.65 57.7949 185.838 57.4199H187.303C187.033 58.5215 186.014 59.248 184.537 59.248ZM182.932 55.334H185.932C185.92 54.4668 185.346 53.834 184.479 53.834C183.576 53.834 182.979 54.5195 182.932 55.334ZM188.521 59.1191V52.7559H189.975V53.8105H190.045C190.268 53.084 190.889 52.6621 191.615 52.6621C191.779 52.6621 192.014 52.6738 192.154 52.6973V54.0801C192.025 54.0332 191.709 53.9863 191.463 53.9863C190.631 53.9863 190.021 54.5605 190.021 55.3691V59.1191H188.521Z" fill="var(--sol-element-tertiary)"/>
<g clip-path="url(#clip4_1240_140465)">
<path d="M59.2197 86.0195H68.2197C68.772 86.0195 69.2197 86.4672 69.2197 87.0195V96.0195C69.2197 96.5718 68.772 97.0195 68.2197 97.0195H59.2197C58.6674 97.0195 58.2197 96.5718 58.2197 96.0195V87.0195C58.2197 86.4672 58.6674 86.0195 59.2197 86.0195Z" stroke="var(--sol-element-primary)" stroke-opacity="0.16"/>
<path d="M88.5674 89.7383C88.2803 88.3711 87.1045 87.6328 85.8057 87.6328C84.0146 87.6328 82.6201 89.0137 82.6201 91.5703C82.6201 94.127 84.0146 95.5078 85.8057 95.5078C87.1045 95.5078 88.2666 94.7695 88.5674 93.416H89.7979C89.4424 95.4395 87.8154 96.6562 85.8057 96.6562C83.2627 96.6562 81.4307 94.7012 81.4307 91.5703C81.4307 88.4395 83.2627 86.4844 85.8057 86.4844C87.8018 86.4844 89.4287 87.6875 89.7979 89.7383H88.5674ZM94.4873 96.6699C92.3408 96.6699 91.0146 95.1523 91.0146 92.8691C91.0146 90.5859 92.3545 89 94.3779 89C95.9365 89 97.5771 89.957 97.5771 92.7051V93.1973H92.1904C92.2451 94.7695 93.1611 95.6309 94.4873 95.6309C95.376 95.6309 95.9365 95.248 96.21 94.7832H97.4678C97.1123 95.9043 96.0186 96.6699 94.4873 96.6699ZM92.2041 92.1992H96.3877C96.3877 90.9551 95.5947 90.0391 94.3779 90.0391C93.0928 90.0391 92.2725 91.0508 92.2041 92.1992ZM100.284 86.6211V96.5195H99.1084V86.6211H100.284ZM103.333 86.6211V96.5195H102.157V86.6211H103.333Z" fill="var(--sol-element-tertiary)"/>
<path d="M161.288 89.7383C161.001 88.3711 159.825 87.6328 158.526 87.6328C156.735 87.6328 155.341 89.0137 155.341 91.5703C155.341 94.127 156.735 95.5078 158.526 95.5078C159.825 95.5078 160.987 94.7695 161.288 93.416H162.519C162.163 95.4395 160.536 96.6562 158.526 96.6562C155.983 96.6562 154.151 94.7012 154.151 91.5703C154.151 88.4395 155.983 86.4844 158.526 86.4844C160.522 86.4844 162.149 87.6875 162.519 89.7383H161.288ZM167.208 96.6699C165.062 96.6699 163.735 95.1523 163.735 92.8691C163.735 90.5859 165.075 89 167.099 89C168.657 89 170.298 89.957 170.298 92.7051V93.1973H164.911C164.966 94.7695 165.882 95.6309 167.208 95.6309C168.097 95.6309 168.657 95.248 168.931 94.7832H170.188C169.833 95.9043 168.739 96.6699 167.208 96.6699ZM164.925 92.1992H169.108C169.108 90.9551 168.315 90.0391 167.099 90.0391C165.813 90.0391 164.993 91.0508 164.925 92.1992ZM173.005 86.6211V96.5195H171.829V86.6211H173.005ZM176.054 86.6211V96.5195H174.878V86.6211H176.054Z" fill="var(--sol-element-tertiary)"/>
</g>
<path d="M40 112.02C40 111.788 40.188 111.6 40.42 111.6L385.58 111.6C385.812 111.6 386 111.788 386 112.02C386 112.252 385.812 112.44 385.58 112.44L40.42 112.44C40.188 112.44 40 112.252 40 112.02Z" fill="var(--sol-border-normal-variant)"/>
<g clip-path="url(#clip5_1240_140465)">
<path d="M59.2197 127.02H68.2197C68.772 127.02 69.2197 127.467 69.2197 128.02V137.02C69.2197 137.572 68.772 138.02 68.2197 138.02H59.2197C58.6674 138.02 58.2197 137.572 58.2197 137.02V128.02C58.2197 127.467 58.6674 127.02 59.2197 127.02Z" stroke="var(--sol-element-primary)" stroke-opacity="0.16"/>
<path d="M88.5674 130.738C88.2803 129.371 87.1045 128.633 85.8057 128.633C84.0146 128.633 82.6201 130.014 82.6201 132.57C82.6201 135.127 84.0146 136.508 85.8057 136.508C87.1045 136.508 88.2666 135.77 88.5674 134.416H89.7979C89.4424 136.439 87.8154 137.656 85.8057 137.656C83.2627 137.656 81.4307 135.701 81.4307 132.57C81.4307 129.439 83.2627 127.484 85.8057 127.484C87.8018 127.484 89.4287 128.688 89.7979 130.738H88.5674ZM94.4873 137.67C92.3408 137.67 91.0146 136.152 91.0146 133.869C91.0146 131.586 92.3545 130 94.3779 130C95.9365 130 97.5771 130.957 97.5771 133.705V134.197H92.1904C92.2451 135.77 93.1611 136.631 94.4873 136.631C95.376 136.631 95.9365 136.248 96.21 135.783H97.4678C97.1123 136.904 96.0186 137.67 94.4873 137.67ZM92.2041 133.199H96.3877C96.3877 131.955 95.5947 131.039 94.3779 131.039C93.0928 131.039 92.2725 132.051 92.2041 133.199ZM100.284 127.621V137.52H99.1084V127.621H100.284ZM103.333 127.621V137.52H102.157V127.621H103.333Z" fill="var(--sol-element-tertiary)"/>
<path d="M161.288 130.738C161.001 129.371 159.825 128.633 158.526 128.633C156.735 128.633 155.341 130.014 155.341 132.57C155.341 135.127 156.735 136.508 158.526 136.508C159.825 136.508 160.987 135.77 161.288 134.416H162.519C162.163 136.439 160.536 137.656 158.526 137.656C155.983 137.656 154.151 135.701 154.151 132.57C154.151 129.439 155.983 127.484 158.526 127.484C160.522 127.484 162.149 128.688 162.519 130.738H161.288ZM167.208 137.67C165.062 137.67 163.735 136.152 163.735 133.869C163.735 131.586 165.075 130 167.099 130C168.657 130 170.298 130.957 170.298 133.705V134.197H164.911C164.966 135.77 165.882 136.631 167.208 136.631C168.097 136.631 168.657 136.248 168.931 135.783H170.188C169.833 136.904 168.739 137.67 167.208 137.67ZM164.925 133.199H169.108C169.108 131.955 168.315 131.039 167.099 131.039C165.813 131.039 164.993 132.051 164.925 133.199ZM173.005 127.621V137.52H171.829V127.621H173.005ZM176.054 127.621V137.52H174.878V127.621H176.054Z" fill="var(--sol-element-tertiary)"/>
</g>
<path d="M40 153.02C40 152.788 40.188 152.6 40.42 152.6L385.58 152.6C385.812 152.6 386 152.788 386 153.02C386 153.252 385.812 153.44 385.58 153.44L40.42 153.44C40.188 153.44 40 153.252 40 153.02Z" fill="var(--sol-border-normal-variant)"/>
<g clip-path="url(#clip6_1240_140465)">
<path d="M59.2197 168.02H68.2197C68.772 168.02 69.2197 168.467 69.2197 169.02V178.02C69.2197 178.572 68.772 179.02 68.2197 179.02H59.2197C58.6674 179.02 58.2197 178.572 58.2197 178.02V169.02C58.2197 168.467 58.6674 168.02 59.2197 168.02Z" stroke="var(--sol-element-primary)" stroke-opacity="0.16"/>
<path d="M88.5674 171.738C88.2803 170.371 87.1045 169.633 85.8057 169.633C84.0146 169.633 82.6201 171.014 82.6201 173.57C82.6201 176.127 84.0146 177.508 85.8057 177.508C87.1045 177.508 88.2666 176.77 88.5674 175.416H89.7979C89.4424 177.439 87.8154 178.656 85.8057 178.656C83.2627 178.656 81.4307 176.701 81.4307 173.57C81.4307 170.439 83.2627 168.484 85.8057 168.484C87.8018 168.484 89.4287 169.688 89.7979 171.738H88.5674ZM94.4873 178.67C92.3408 178.67 91.0146 177.152 91.0146 174.869C91.0146 172.586 92.3545 171 94.3779 171C95.9365 171 97.5771 171.957 97.5771 174.705V175.197H92.1904C92.2451 176.77 93.1611 177.631 94.4873 177.631C95.376 177.631 95.9365 177.248 96.21 176.783H97.4678C97.1123 177.904 96.0186 178.67 94.4873 178.67ZM92.2041 174.199H96.3877C96.3877 172.955 95.5947 172.039 94.3779 172.039C93.0928 172.039 92.2725 173.051 92.2041 174.199ZM100.284 168.621V178.52H99.1084V168.621H100.284ZM103.333 168.621V178.52H102.157V168.621H103.333Z" fill="var(--sol-element-tertiary)"/>
<path d="M161.288 171.738C161.001 170.371 159.825 169.633 158.526 169.633C156.735 169.633 155.341 171.014 155.341 173.57C155.341 176.127 156.735 177.508 158.526 177.508C159.825 177.508 160.987 176.77 161.288 175.416H162.519C162.163 177.439 160.536 178.656 158.526 178.656C155.983 178.656 154.151 176.701 154.151 173.57C154.151 170.439 155.983 168.484 158.526 168.484C160.522 168.484 162.149 169.688 162.519 171.738H161.288ZM167.208 178.67C165.062 178.67 163.735 177.152 163.735 174.869C163.735 172.586 165.075 171 167.099 171C168.657 171 170.298 171.957 170.298 174.705V175.197H164.911C164.966 176.77 165.882 177.631 167.208 177.631C168.097 177.631 168.657 177.248 168.931 176.783H170.188C169.833 177.904 168.739 178.67 167.208 178.67ZM164.925 174.199H169.108C169.108 172.955 168.315 172.039 167.099 172.039C165.813 172.039 164.993 173.051 164.925 174.199ZM173.005 168.621V178.52H171.829V168.621H173.005ZM176.054 168.621V178.52H174.878V168.621H176.054Z" fill="var(--sol-element-tertiary)"/>
</g>
</g>
</g>
<rect x="40.5" y="40.5" width="345" height="282.44" rx="3.5" stroke="var(--sol-border-solid-variant)"/>
</g>
</g>
<rect y="140" width="302" height="52" fill="url(#paint0_linear_1240_140465)"/>
</g>
<defs>
<filter id="filter0_dd_1240_140465" x="32" y="36" width="362" height="176" filterUnits="userSpaceOnUse" color-interpolation-filters="sRGB">
<feFlood flood-opacity="0" result="BackgroundImageFix"/>
<feColorMatrix in="SourceAlpha" type="matrix" values="0 0 0 0 0 0 0 0 0 0 0 0 0 0 0 0 0 0 127 0" result="hardAlpha"/>
<feOffset dy="4"/>
<feGaussianBlur stdDeviation="4"/>
<feComposite in2="hardAlpha" operator="out"/>
<feColorMatrix type="matrix" values="0 0 0 0 0 0 0 0 0 0 0 0 0 0 0 0 0 0 0.08 0"/>
<feBlend mode="normal" in2="BackgroundImageFix" result="effect1_dropShadow_1240_140465"/>
<feColorMatrix in="SourceAlpha" type="matrix" values="0 0 0 0 0 0 0 0 0 0 0 0 0 0 0 0 0 0 127 0" result="hardAlpha"/>
<feOffset/>
<feGaussianBlur stdDeviation="0.5"/>
<feComposite in2="hardAlpha" operator="out"/>
<feColorMatrix type="matrix" values="0 0 0 0 0 0 0 0 0 0 0 0 0 0 0 0 0 0 0.08 0"/>
<feBlend mode="normal" in2="effect1_dropShadow_1240_140465" result="effect2_dropShadow_1240_140465"/>
<feBlend mode="normal" in="SourceGraphic" in2="effect2_dropShadow_1240_140465" result="shape"/>
</filter>
<linearGradient id="paint0_linear_1240_140465" x1="259.531" y1="192" x2="259.531" y2="140" gradientUnits="userSpaceOnUse">
<stop stop-opacity="0.04"/>
<stop offset="1" stop-color="var(--sol-surface)" stop-opacity="0"/>
</linearGradient>
<clipPath id="clip0_1240_140465">
<rect width="288" height="192" fill="var(--sol-surface)"/>
</clipPath>
<clipPath id="clip1_1240_140465">
<rect x="40" y="40" width="346" height="160" rx="4" fill="var(--sol-surface)"/>
</clipPath>
<clipPath id="clip2_1240_140465">
<rect x="40" y="40" width="346" height="283.44" rx="4" fill="var(--sol-surface)"/>
</clipPath>
<clipPath id="clip3_1240_140465">
<rect width="346" height="283.44" fill="var(--sol-surface)" transform="translate(40 40)"/>
</clipPath>
<clipPath id="clip4_1240_140465">
<rect width="346" height="40.16" fill="var(--sol-surface)" transform="translate(40 71.4395)"/>
</clipPath>
<clipPath id="clip5_1240_140465">
<rect width="346" height="40.16" fill="var(--sol-surface)" transform="translate(40 112.439)"/>
</clipPath>
<clipPath id="clip6_1240_140465">
<rect width="346" height="40.16" fill="var(--sol-surface)" transform="translate(40 153.439)"/>
</clipPath>
</defs>
</svg>
