<svg width="288" height="192" viewBox="0 0 288 192" fill="none" xmlns="http://www.w3.org/2000/svg">
<style>
:root {
  --sol-primary: #282363;
  --sol-element-brand-variant: #3a3480;
  --sol-fill-active: #4d469a;
  --sol-selected-container-variant: #f5f4fd;
  --sol-surface: #ffffff;
  --sol-surface-base-variant: #f5f5f5;
  --sol-secondary-container: #e8e6f8;
  --sol-element-primary: #161616;
  --sol-element-secondary: #484848;
  --sol-element-tertiary: #636363;
  --sol-element-quaternary: #858585;
  --sol-border-brand: #7b74c4;
  --sol-border-normal-variant: rgba(0, 0, 0, 0.08);
  --sol-border-solid-variant: #e0e0e0;
  --sol-border-solid: #d0d0d0;
  --sol-error: #e76067;
  --sol-error-container: #fdeaeb;
  --sol-static-white: #ffffff;
  --sol-static-black: #000000;
  --color-brand-400: #6058b4;
  --color-teal-500: #05a09a;
  --color-green-500: #35a142;
  --color-yellow-500: #d4ae00;
  --color-orange-500: #e06418;
  --color-blue-500: #3e9bca;
  --color-indigo-500: #3d5ed6;
  --color-pink-500: #d03e94;
}
@media (prefers-color-scheme: dark) {
  :root {
    --sol-primary: #9791d4;
    --sol-element-brand-variant: #ffffff;
    --sol-fill-active: #7b74c4;
    --sol-selected-container-variant: rgba(0, 0, 0, 0.08);
    --sol-surface: #161616;
    --sol-surface-base-variant: #1c1c1c;
    --sol-secondary-container: rgba(255, 255, 255, 0.16);
    --sol-element-primary: #ffffff;
    --sol-element-secondary: rgba(255, 255, 255, 0.8);
    --sol-element-tertiary: rgba(255, 255, 255, 0.6);
    --sol-element-quaternary: rgba(255, 255, 255, 0.5);
    --sol-border-brand: #7b74c4;
    --sol-border-normal-variant: rgba(255, 255, 255, 0.08);
    --sol-border-solid-variant: #3d3d3d;
    --sol-border-solid: #333333;
    --sol-error: #ee7a80;
    --sol-error-container: rgba(231, 96, 103, 0.24);
    --sol-static-white: #ffffff;
    --sol-static-black: #000000;
  }
}
</style>
<g clip-path="url(#clip0_1254_318732)">
<g filter="url(#filter0_dd_1254_318732)">
<g clip-path="url(#clip1_1254_318732)">
<path d="M25 45.7212C25 44.7706 25.7706 44 26.7212 44H260.806C261.757 44 262.527 44.7706 262.527 45.7212V190.885C262.527 191.835 261.757 192.606 260.806 192.606H26.7212C25.7706 192.606 25 191.835 25 190.885V45.7212Z" fill="var(--sol-surface)"/>
<g clip-path="url(#clip2_1254_318732)">
<path d="M100.459 83.977V88.2363H99.9234V84.53H99.8999L98.8644 85.2183V84.683L99.9234 83.977H100.459Z" fill="var(--sol-element-primary)"/>
</g>
<path d="M113.996 88.2363L113.99 87.848L115.443 86.3185C115.949 85.7831 116.19 85.4948 116.19 85.1007C116.19 84.6653 115.82 84.377 115.343 84.377C114.837 84.377 114.514 84.7006 114.514 85.1771H114.013C114.008 84.4241 114.59 83.9182 115.361 83.9182C116.131 83.9182 116.684 84.4359 116.684 85.1007C116.684 85.5772 116.461 85.9478 115.708 86.7244L114.731 87.7304V87.7657H116.761V88.2363H113.996Z" fill="var(--sol-element-primary)"/>
<g clip-path="url(#clip3_1254_318732)">
<path d="M130.867 88.2952C130.019 88.2952 129.413 87.8422 129.384 87.1656H129.919C129.949 87.5715 130.355 87.8245 130.861 87.8245C131.42 87.8245 131.831 87.5186 131.831 87.0774C131.831 86.6126 131.461 86.2832 130.796 86.2832H130.449V85.8184H130.796C131.314 85.8184 131.673 85.5301 131.673 85.0889C131.673 84.6653 131.361 84.377 130.878 84.377C130.425 84.377 130.008 84.63 129.984 85.0477H129.472C129.502 84.3712 130.125 83.9182 130.884 83.9182C131.696 83.9182 132.19 84.4476 132.184 85.0595C132.19 85.5419 131.908 85.9008 131.461 86.0243V86.0537C132.014 86.142 132.355 86.5361 132.349 87.0774C132.355 87.7775 131.714 88.2952 130.867 88.2952Z" fill="var(--sol-element-primary)"/>
</g>
<g clip-path="url(#clip4_1254_318732)">
<path d="M36.324 104.112V103.676L38.2419 100.723H38.8949V103.647H39.4891V104.112H38.8949V104.982H38.389V104.112H36.324ZM36.8947 103.647H38.389V101.394H38.336L36.8947 103.612V103.647Z" fill="var(--sol-error)"/>
</g>
<path d="M53.3919 105.041C52.6212 105.041 52.0388 104.565 52.0094 103.912H52.5212C52.5624 104.294 52.933 104.576 53.3919 104.576C53.9449 104.576 54.345 104.171 54.345 103.635C54.345 103.082 53.9273 102.676 53.3566 102.67C52.9977 102.665 52.7212 102.776 52.5624 103.053H52.0506L52.3506 100.723H54.6568V101.194H52.7918L52.633 102.441H52.6742C52.8624 102.294 53.1507 102.194 53.4507 102.194C54.2626 102.194 54.8627 102.794 54.8627 103.623C54.8627 104.447 54.2391 105.041 53.3919 105.041Z" fill="var(--sol-element-primary)"/>
<path d="M68.9263 105.041C68.185 105.029 67.3731 104.594 67.3731 103.017C67.3731 101.511 67.9909 100.664 68.991 100.664C69.7381 100.664 70.2617 101.123 70.3735 101.794H69.8499C69.7499 101.417 69.4675 101.135 68.991 101.135C68.2909 101.135 67.8732 101.735 67.8732 102.759H67.9261C68.1732 102.406 68.5615 102.194 69.0204 102.194C69.7793 102.194 70.4088 102.782 70.4088 103.606C70.4088 104.406 69.8205 105.047 68.9263 105.041ZM68.9263 104.576C69.4793 104.576 69.8911 104.141 69.897 103.612C69.8911 103.088 69.4969 102.659 68.938 102.659C68.3791 102.659 67.9497 103.112 67.9438 103.618C67.9438 104.118 68.3556 104.576 68.9263 104.576Z" fill="var(--sol-element-primary)"/>
<path d="M83.2556 104.982L85.2087 101.223V101.194H82.9555V100.723H85.7559V101.217L83.8086 104.982H83.2556Z" fill="var(--sol-element-primary)"/>
<g clip-path="url(#clip5_1254_318732)">
<path d="M99.8704 105.041C98.9762 105.041 98.3526 104.547 98.3585 103.853C98.3526 103.3 98.735 102.847 99.2233 102.77V102.747C98.7997 102.647 98.5232 102.259 98.5232 101.794C98.5232 101.141 99.0939 100.664 99.8704 100.664C100.647 100.664 101.218 101.141 101.224 101.794C101.218 102.259 100.935 102.647 100.518 102.747V102.77C101 102.847 101.382 103.3 101.388 103.853C101.382 104.547 100.759 105.041 99.8704 105.041ZM99.8704 104.576C100.482 104.576 100.859 104.271 100.859 103.823C100.859 103.353 100.441 103.006 99.8704 103.006C99.2998 103.006 98.8762 103.353 98.888 103.823C98.8762 104.271 99.2586 104.576 99.8704 104.576ZM99.8704 102.559C100.353 102.559 100.706 102.264 100.706 101.835C100.706 101.411 100.371 101.123 99.8704 101.123C99.3645 101.123 99.0351 101.411 99.0351 101.835C99.0351 102.264 99.3822 102.559 99.8704 102.559Z" fill="var(--sol-element-primary)"/>
</g>
<path d="M115.334 100.664C116.07 100.67 116.881 101.111 116.881 102.682C116.881 104.194 116.264 105.041 115.264 105.041C114.516 105.041 113.987 104.582 113.881 103.906H114.405C114.499 104.288 114.787 104.571 115.264 104.571C115.958 104.571 116.381 103.971 116.387 102.935H116.328C116.081 103.288 115.693 103.5 115.24 103.5C114.475 103.5 113.846 102.917 113.846 102.094C113.846 101.3 114.428 100.658 115.334 100.664ZM115.334 101.129C114.775 101.129 114.358 101.564 114.364 102.088C114.364 102.617 114.758 103.035 115.317 103.035C115.87 103.035 116.305 102.576 116.305 102.076C116.305 101.588 115.899 101.129 115.334 101.129Z" fill="var(--sol-element-primary)"/>
<g clip-path="url(#clip6_1254_318732)">
<path d="M123.97 98.1216C123.97 97.171 124.74 96.4004 125.691 96.4004H138.6V110.564H125.691C124.74 110.564 123.97 109.793 123.97 108.843V98.1216Z" fill="var(--sol-selected-container-variant)"/>
<g clip-path="url(#clip7_1254_318732)">
<rect x="123.97" y="96.4004" width="13.7697" height="14.1636" fill="var(--sol-fill-active)"/>
</g>
<path d="M129.631 100.723V104.982H128.86V101.47H128.837L127.843 102.106V101.406L128.896 100.723H129.631ZM132.237 105.041C131.214 105.041 130.602 104.247 130.602 102.853C130.602 101.464 131.214 100.664 132.237 100.664C133.255 100.664 133.873 101.464 133.873 102.853C133.873 104.247 133.261 105.041 132.237 105.041ZM132.237 104.4C132.773 104.4 133.102 103.876 133.102 102.853C133.102 101.835 132.767 101.3 132.237 101.3C131.708 101.3 131.373 101.835 131.373 102.853C131.373 103.876 131.702 104.4 132.237 104.4Z" fill="var(--sol-surface)"/>
</g>
<g clip-path="url(#clip8_1254_318732)">
<path d="M30.1641 113.146H45.655V127.309H30.1641V113.146Z" fill="var(--sol-selected-container-variant)"/>
<path d="M37.1741 117.468V121.728H36.6388V118.021H36.6152L35.5798 118.71V118.174L36.6388 117.468H37.1741ZM39.8156 117.468V121.728H39.2803V118.021H39.2567L38.2213 118.71V118.174L39.2803 117.468H39.8156Z" fill="var(--sol-error)"/>
</g>
<g clip-path="url(#clip9_1254_318732)">
<path d="M45.6553 113.146H61.1462V127.309H45.6553V113.146Z" fill="var(--sol-selected-container-variant)"/>
<path d="M52.2182 117.468V121.728H51.6829V118.021H51.6593L50.6239 118.71V118.174L51.6829 117.468H52.2182ZM53.3537 121.728L53.3478 121.339L54.8009 119.81C55.3068 119.274 55.548 118.986 55.548 118.592C55.548 118.157 55.1774 117.868 54.7009 117.868C54.1949 117.868 53.8714 118.192 53.8714 118.668H53.3713C53.3654 117.915 53.9479 117.409 54.7185 117.409C55.4892 117.409 56.0422 117.927 56.0422 118.592C56.0422 119.068 55.8187 119.439 55.0656 120.216L54.089 121.222V121.257H56.1187V121.728H53.3537Z" fill="var(--sol-element-primary)"/>
</g>
<g clip-path="url(#clip10_1254_318732)">
<path d="M61.1455 113.146H76.6365V127.309H61.1455V113.146Z" fill="var(--sol-selected-container-variant)"/>
<path d="M67.6173 117.468V121.728H67.0819V118.021H67.0584L66.023 118.71V118.174L67.0819 117.468H67.6173ZM70.2235 121.786C69.3763 121.786 68.7704 121.333 68.7409 120.657H69.2763C69.3057 121.063 69.7116 121.316 70.2176 121.316C70.7765 121.316 71.1883 121.01 71.1883 120.569C71.1883 120.104 70.8177 119.774 70.1529 119.774H69.8058V119.31H70.1529C70.6706 119.31 71.0295 119.021 71.0295 118.58C71.0295 118.157 70.7176 117.868 70.2352 117.868C69.7822 117.868 69.3645 118.121 69.341 118.539H68.8292C68.8586 117.862 69.4822 117.409 70.2411 117.409C71.053 117.409 71.5472 117.939 71.5413 118.551C71.5472 119.033 71.2648 119.392 70.8177 119.516V119.545C71.3707 119.633 71.7119 120.027 71.706 120.569C71.7119 121.269 71.0706 121.786 70.2235 121.786Z" fill="var(--sol-element-primary)"/>
</g>
<g clip-path="url(#clip11_1254_318732)">
<path d="M76.6367 113.146H92.1277V127.309H76.6367V113.146Z" fill="var(--sol-selected-container-variant)"/>
<path d="M83.0879 117.468V121.728H82.5525V118.021H82.529L81.4936 118.71V118.174L82.5525 117.468H83.0879ZM84.1174 120.857V120.422L86.0353 117.468H86.6883V120.392H87.2825V120.857H86.6883V121.728H86.1824V120.857H84.1174ZM84.6881 120.392H86.1824V118.139H86.1294L84.6881 120.357V120.392Z" fill="var(--sol-element-primary)"/>
</g>
<g clip-path="url(#clip12_1254_318732)">
<path d="M92.1279 113.146H107.619V127.309H92.1279V113.146Z" fill="var(--sol-selected-container-variant)"/>
<path d="M98.6615 117.468V121.728H98.1261V118.021H98.1026L97.0672 118.71V118.174L98.1261 117.468H98.6615ZM101.185 121.786C100.415 121.786 99.8322 121.31 99.8028 120.657H100.315C100.356 121.039 100.726 121.322 101.185 121.322C101.738 121.322 102.138 120.916 102.138 120.38C102.138 119.827 101.721 119.421 101.15 119.416C100.791 119.41 100.515 119.521 100.356 119.798H99.844L100.144 117.468H102.45V117.939H100.585L100.426 119.186H100.468C100.656 119.039 100.944 118.939 101.244 118.939C102.056 118.939 102.656 119.539 102.656 120.369C102.656 121.192 102.032 121.786 101.185 121.786Z" fill="var(--sol-element-primary)"/>
</g>
<g clip-path="url(#clip13_1254_318732)">
<path d="M107.618 113.146H123.109V127.309H107.618V113.146Z" fill="var(--sol-selected-container-variant)"/>
<path d="M114.102 117.468V121.728H113.566V118.021H113.543L112.507 118.71V118.174L113.566 117.468H114.102ZM116.72 121.786C115.978 121.775 115.167 121.339 115.167 119.763C115.167 118.257 115.784 117.409 116.784 117.409C117.532 117.409 118.055 117.868 118.167 118.539H117.643C117.543 118.162 117.261 117.88 116.784 117.88C116.084 117.88 115.667 118.48 115.667 119.504H115.72C115.967 119.151 116.355 118.939 116.814 118.939C117.573 118.939 118.202 119.527 118.202 120.351C118.202 121.151 117.614 121.792 116.72 121.786ZM116.72 121.322C117.273 121.322 117.684 120.886 117.69 120.357C117.684 119.833 117.29 119.404 116.731 119.404C116.173 119.404 115.743 119.857 115.737 120.363C115.737 120.863 116.149 121.322 116.72 121.322Z" fill="var(--sol-element-primary)"/>
</g>
<g clip-path="url(#clip14_1254_318732)">
<path d="M123.109 113.146H138.6V127.309H123.109V113.146Z" fill="var(--sol-selected-container-variant)"/>
<path d="M129.778 117.468V121.728H129.243V118.021H129.219L128.184 118.71V118.174L129.243 117.468H129.778ZM131.049 121.728L133.002 117.968V117.939H130.749V117.468H133.549V117.962L131.602 121.728H131.049Z" fill="var(--sol-element-primary)"/>
</g>
<g clip-path="url(#clip15_1254_318732)">
<path d="M30.1641 129.891H45.655V144.054H30.1641V129.891Z" fill="var(--sol-selected-container-variant)"/>
<path d="M36.6682 134.213V138.473H36.1328V134.766H36.1093L35.0739 135.455V134.919L36.1328 134.213H36.6682ZM39.2273 138.531C38.3331 138.531 37.7095 138.037 37.7154 137.343C37.7095 136.79 38.0919 136.337 38.5802 136.261V136.237C38.1566 136.137 37.8801 135.749 37.8801 135.284C37.8801 134.631 38.4508 134.154 39.2273 134.154C40.0039 134.154 40.5745 134.631 40.5804 135.284C40.5745 135.749 40.2922 136.137 39.8745 136.237V136.261C40.3569 136.337 40.7393 136.79 40.7451 137.343C40.7393 138.037 40.1157 138.531 39.2273 138.531ZM39.2273 138.067C39.8392 138.067 40.2157 137.761 40.2157 137.314C40.2157 136.843 39.798 136.496 39.2273 136.496C38.6567 136.496 38.2331 136.843 38.2449 137.314C38.2331 137.761 38.6155 138.067 39.2273 138.067ZM39.2273 136.049C39.7097 136.049 40.0627 135.755 40.0627 135.325C40.0627 134.902 39.7274 134.613 39.2273 134.613C38.7214 134.613 38.3919 134.902 38.3919 135.325C38.3919 135.755 38.739 136.049 39.2273 136.049Z" fill="var(--sol-error)"/>
</g>
<g clip-path="url(#clip16_1254_318732)">
<path d="M45.6553 129.891H61.1462V144.054H45.6553V129.891Z" fill="var(--sol-selected-container-variant)"/>
<path d="M52.1388 134.213V138.473H51.6035V134.766H51.5799L50.5445 135.455V134.919L51.6035 134.213H52.1388ZM54.6921 134.154C55.4274 134.16 56.2393 134.602 56.2393 136.172C56.2393 137.684 55.6216 138.531 54.6215 138.531C53.8743 138.531 53.3448 138.073 53.2389 137.396H53.7625C53.8567 137.778 54.1449 138.061 54.6215 138.061C55.3157 138.061 55.7392 137.461 55.7451 136.425H55.6863C55.4392 136.778 55.0509 136.99 54.5979 136.99C53.8331 136.99 53.2036 136.408 53.2036 135.584C53.2036 134.79 53.7861 134.149 54.6921 134.154ZM54.6921 134.619C54.1332 134.619 53.7155 135.055 53.7214 135.578C53.7214 136.108 54.1155 136.525 54.6744 136.525C55.2274 136.525 55.6628 136.066 55.6628 135.566C55.6628 135.078 55.2568 134.619 54.6921 134.619Z" fill="var(--sol-element-primary)"/>
</g>
<g clip-path="url(#clip17_1254_318732)">
<path d="M61.1455 129.891H76.6365V144.054H61.1455V129.891Z" fill="var(--sol-selected-container-variant)"/>
<path d="M65.7288 138.473L65.7229 138.084L67.1761 136.555C67.682 136.019 67.9232 135.731 67.9232 135.337C67.9232 134.902 67.5526 134.613 67.076 134.613C66.5701 134.613 66.2465 134.937 66.2465 135.413H65.7465C65.7406 134.66 66.323 134.154 67.0937 134.154C67.8644 134.154 68.4174 134.672 68.4174 135.337C68.4174 135.814 68.1938 136.184 67.4408 136.961L66.4642 137.967V138.002H68.4939V138.473H65.7288ZM70.6588 138.531C69.7116 138.531 69.1704 137.737 69.1704 136.343C69.1704 134.96 69.7234 134.154 70.6588 134.154C71.5942 134.154 72.1472 134.96 72.1472 136.343C72.1472 137.737 71.6001 138.531 70.6588 138.531ZM70.6588 138.061C71.2707 138.061 71.6295 137.443 71.6295 136.343C71.6295 135.243 71.2707 134.613 70.6588 134.613C70.047 134.613 69.6822 135.243 69.6822 136.343C69.6822 137.443 70.0411 138.061 70.6588 138.061Z" fill="var(--sol-element-primary)"/>
</g>
<g clip-path="url(#clip18_1254_318732)">
<path d="M76.6367 129.891H92.1277V144.054H76.6367V129.891Z" fill="var(--sol-selected-container-variant)"/>
<path d="M81.6936 138.473L81.6877 138.084L83.1409 136.555C83.6468 136.019 83.888 135.731 83.888 135.337C83.888 134.902 83.5174 134.613 83.0408 134.613C82.5349 134.613 82.2113 134.937 82.2113 135.413H81.7113C81.7054 134.66 82.2878 134.154 83.0585 134.154C83.8292 134.154 84.3822 134.672 84.3822 135.337C84.3822 135.814 84.1586 136.184 83.4056 136.961L82.429 137.967V138.002H84.4587V138.473H81.6936ZM86.7354 134.213V138.473H86.2V134.766H86.1765L85.1411 135.455V134.919L86.2 134.213H86.7354Z" fill="var(--sol-element-primary)"/>
</g>
<g clip-path="url(#clip19_1254_318732)">
<path d="M92.1279 129.891H107.619V144.054H92.1279V129.891Z" fill="var(--sol-selected-container-variant)"/>
<path d="M96.7377 138.473L96.7318 138.084L98.1849 136.555C98.6909 136.019 98.9321 135.731 98.9321 135.337C98.9321 134.902 98.5615 134.613 98.0849 134.613C97.579 134.613 97.2554 134.937 97.2554 135.413H96.7554C96.7495 134.66 97.3319 134.154 98.1026 134.154C98.8733 134.154 99.4263 134.672 99.4263 135.337C99.4263 135.814 99.2027 136.184 98.4497 136.961L97.4731 137.967V138.002H99.5028V138.473H96.7377ZM100.273 138.473L100.268 138.084L101.721 136.555C102.227 136.019 102.468 135.731 102.468 135.337C102.468 134.902 102.097 134.613 101.621 134.613C101.115 134.613 100.791 134.937 100.791 135.413H100.291C100.285 134.66 100.868 134.154 101.638 134.154C102.409 134.154 102.962 134.672 102.962 135.337C102.962 135.814 102.738 136.184 101.985 136.961L101.009 137.967V138.002H103.038V138.473H100.273Z" fill="var(--sol-element-primary)"/>
</g>
<g clip-path="url(#clip20_1254_318732)">
<path d="M107.618 129.891H123.109V144.054H107.618V129.891Z" fill="var(--sol-selected-container-variant)"/>
<path d="M112.137 138.473L112.131 138.084L113.584 136.555C114.09 136.019 114.331 135.731 114.331 135.337C114.331 134.902 113.961 134.613 113.484 134.613C112.978 134.613 112.654 134.937 112.654 135.413H112.154C112.149 134.66 112.731 134.154 113.502 134.154C114.272 134.154 114.825 134.672 114.825 135.337C114.825 135.814 114.602 136.184 113.849 136.961L112.872 137.967V138.002H114.902V138.473H112.137ZM117.143 138.531C116.296 138.531 115.69 138.078 115.661 137.402H116.196C116.225 137.808 116.631 138.061 117.137 138.061C117.696 138.061 118.108 137.755 118.108 137.314C118.108 136.849 117.737 136.519 117.073 136.519H116.726V136.055H117.073C117.59 136.055 117.949 135.766 117.949 135.325C117.949 134.902 117.637 134.613 117.155 134.613C116.702 134.613 116.284 134.866 116.261 135.284H115.749C115.778 134.607 116.402 134.154 117.161 134.154C117.973 134.154 118.467 134.684 118.461 135.296C118.467 135.778 118.185 136.137 117.737 136.261V136.29C118.29 136.378 118.632 136.772 118.626 137.314C118.632 138.014 117.99 138.531 117.143 138.531Z" fill="var(--sol-element-primary)"/>
</g>
<g clip-path="url(#clip21_1254_318732)">
<path d="M123.109 129.891H138.6V144.054H123.109V129.891Z" fill="var(--sol-selected-container-variant)"/>
<path d="M127.652 138.473L127.646 138.084L129.099 136.555C129.605 136.019 129.846 135.731 129.846 135.337C129.846 134.902 129.475 134.613 128.999 134.613C128.493 134.613 128.169 134.937 128.169 135.413H127.669C127.663 134.66 128.246 134.154 129.016 134.154C129.787 134.154 130.34 134.672 130.34 135.337C130.34 135.814 130.117 136.184 129.363 136.961L128.387 137.967V138.002H130.417V138.473H127.652ZM130.993 137.602V137.167L132.911 134.213H133.564V137.137H134.158V137.602H133.564V138.473H133.058V137.602H130.993ZM131.564 137.137H133.058V134.884H133.005L131.564 137.102V137.137Z" fill="var(--sol-element-primary)"/>
</g>
<g clip-path="url(#clip22_1254_318732)">
<path d="M30.1641 146.637H45.655V160.8H30.1641V146.637Z" fill="var(--sol-selected-container-variant)"/>
<path d="M34.7444 155.219L34.7386 154.83L36.1917 153.301C36.6976 152.766 36.9388 152.477 36.9388 152.083C36.9388 151.648 36.5682 151.359 36.0917 151.359C35.5857 151.359 35.2621 151.683 35.2621 152.16H34.7621C34.7562 151.407 35.3386 150.901 36.1093 150.901C36.88 150.901 37.433 151.418 37.433 152.083C37.433 152.56 37.2094 152.93 36.4564 153.707L35.4798 154.713V154.748H37.5095V155.219H34.7444ZM39.6685 155.278C38.8979 155.278 38.3154 154.801 38.286 154.148H38.7979C38.839 154.53 39.2097 154.813 39.6685 154.813C40.2216 154.813 40.6216 154.407 40.6216 153.872C40.6216 153.319 40.2039 152.913 39.6333 152.907C39.2744 152.901 38.9979 153.013 38.839 153.289H38.3272L38.6272 150.959H40.9334V151.43H39.0685L38.9096 152.677H38.9508C39.1391 152.53 39.4273 152.43 39.7274 152.43C40.5392 152.43 41.1393 153.03 41.1393 153.86C41.1393 154.683 40.5157 155.278 39.6685 155.278Z" fill="var(--sol-error)"/>
</g>
<g clip-path="url(#clip23_1254_318732)">
<path d="M45.6553 146.637H61.1462V160.8H45.6553V146.637Z" fill="var(--sol-selected-container-variant)"/>
<path d="M50.1856 155.219L50.1798 154.83L51.6329 153.301C52.1388 152.766 52.38 152.477 52.38 152.083C52.38 151.648 52.0094 151.359 51.5329 151.359C51.0269 151.359 50.7034 151.683 50.7034 152.16H50.2033C50.1974 151.407 50.7798 150.901 51.5505 150.901C52.3212 150.901 52.8742 151.418 52.8742 152.083C52.8742 152.56 52.6506 152.93 51.8976 153.707L50.921 154.713V154.748H52.9507V155.219H50.1856ZM55.2039 155.278C54.4626 155.266 53.6508 154.83 53.6508 153.254C53.6508 151.748 54.2685 150.901 55.2686 150.901C56.0157 150.901 56.5393 151.359 56.6511 152.03H56.1275C56.0275 151.654 55.7451 151.371 55.2686 151.371C54.5685 151.371 54.1508 151.971 54.1508 152.995H54.2038C54.4509 152.642 54.8391 152.43 55.298 152.43C56.0569 152.43 56.6864 153.018 56.6864 153.842C56.6864 154.642 56.0981 155.283 55.2039 155.278ZM55.2039 154.813C55.7569 154.813 56.1687 154.377 56.1746 153.848C56.1687 153.324 55.7745 152.895 55.2156 152.895C54.6568 152.895 54.2273 153.348 54.2214 153.854C54.2214 154.354 54.6332 154.813 55.2039 154.813Z" fill="var(--sol-element-primary)"/>
</g>
<g clip-path="url(#clip24_1254_318732)">
<path d="M61.1455 146.637H76.6365V160.8H61.1455V146.637Z" fill="var(--sol-selected-container-variant)"/>
<path d="M65.8612 155.219L65.8553 154.83L67.3084 153.301C67.8144 152.766 68.0556 152.477 68.0556 152.083C68.0556 151.648 67.6849 151.359 67.2084 151.359C66.7025 151.359 66.3789 151.683 66.3789 152.16H65.8788C65.873 151.407 66.4554 150.901 67.2261 150.901C67.9967 150.901 68.5497 151.418 68.5497 152.083C68.5497 152.56 68.3262 152.93 67.5732 153.707L66.5966 154.713V154.748H68.6262V155.219H65.8612ZM69.5322 155.219L71.4854 151.459V151.43H69.2322V150.959H72.0325V151.454L70.0852 155.219H69.5322Z" fill="var(--sol-element-primary)"/>
</g>
<g clip-path="url(#clip25_1254_318732)">
<path d="M76.6367 146.637H92.1277V160.8H76.6367V146.637Z" fill="var(--sol-selected-container-variant)"/>
<path d="M81.1877 155.219L81.1818 154.83L82.6349 153.301C83.1409 152.766 83.3821 152.477 83.3821 152.083C83.3821 151.648 83.0114 151.359 82.5349 151.359C82.029 151.359 81.7054 151.683 81.7054 152.16H81.2053C81.1994 151.407 81.7819 150.901 82.5525 150.901C83.3232 150.901 83.8762 151.418 83.8762 152.083C83.8762 152.56 83.6527 152.93 82.8996 153.707L81.9231 154.713V154.748H83.9527V155.219H81.1877ZM86.1471 155.278C85.2529 155.278 84.6293 154.783 84.6351 154.089C84.6293 153.536 85.0117 153.083 85.5 153.007V152.983C85.0764 152.883 84.7999 152.495 84.7999 152.03C84.7999 151.377 85.3705 150.901 86.1471 150.901C86.9237 150.901 87.4943 151.377 87.5002 152.03C87.4943 152.495 87.2119 152.883 86.7942 152.983V153.007C87.2766 153.083 87.659 153.536 87.6649 154.089C87.659 154.783 87.0354 155.278 86.1471 155.278ZM86.1471 154.813C86.7589 154.813 87.1354 154.507 87.1354 154.06C87.1354 153.589 86.7177 153.242 86.1471 153.242C85.5764 153.242 85.1529 153.589 85.1646 154.06C85.1529 154.507 85.5353 154.813 86.1471 154.813ZM86.1471 152.795C86.6295 152.795 86.9825 152.501 86.9825 152.071C86.9825 151.648 86.6471 151.359 86.1471 151.359C85.6411 151.359 85.3117 151.648 85.3117 152.071C85.3117 152.501 85.6588 152.795 86.1471 152.795Z" fill="var(--sol-element-primary)"/>
</g>
<g clip-path="url(#clip26_1254_318732)">
<path d="M92.1279 146.637H107.619V160.8H92.1279V146.637Z" fill="var(--sol-selected-container-variant)"/>
<path d="M96.6583 155.219L96.6524 154.83L98.1055 153.301C98.6115 152.766 98.8527 152.477 98.8527 152.083C98.8527 151.648 98.482 151.359 98.0055 151.359C97.4996 151.359 97.176 151.683 97.176 152.16H96.6759C96.6701 151.407 97.2525 150.901 98.0232 150.901C98.7938 150.901 99.3469 151.418 99.3469 152.083C99.3469 152.56 99.1233 152.93 98.3703 153.707L97.3937 154.713V154.748H99.4233V155.219H96.6583ZM101.612 150.901C102.347 150.906 103.159 151.348 103.159 152.918C103.159 154.43 102.541 155.278 101.541 155.278C100.794 155.278 100.265 154.819 100.159 154.142H100.682C100.776 154.525 101.065 154.807 101.541 154.807C102.235 154.807 102.659 154.207 102.665 153.171H102.606C102.359 153.524 101.971 153.736 101.518 153.736C100.753 153.736 100.123 153.154 100.123 152.33C100.123 151.536 100.706 150.895 101.612 150.901ZM101.612 151.365C101.053 151.365 100.635 151.801 100.641 152.324C100.641 152.854 101.035 153.271 101.594 153.271C102.147 153.271 102.583 152.813 102.583 152.313C102.583 151.824 102.177 151.365 101.612 151.365Z" fill="var(--sol-element-primary)"/>
</g>
<g clip-path="url(#clip27_1254_318732)">
<path d="M107.618 146.637H123.109V160.8H107.618V146.637Z" fill="var(--sol-selected-container-variant)"/>
<path d="M113.581 155.278C112.734 155.278 112.128 154.825 112.099 154.148H112.634C112.663 154.554 113.069 154.807 113.575 154.807C114.134 154.807 114.546 154.501 114.546 154.06C114.546 153.595 114.175 153.266 113.51 153.266H113.163V152.801H113.51C114.028 152.801 114.387 152.513 114.387 152.071C114.387 151.648 114.075 151.359 113.593 151.359C113.14 151.359 112.722 151.612 112.699 152.03H112.187C112.216 151.354 112.84 150.901 113.599 150.901C114.411 150.901 114.905 151.43 114.899 152.042C114.905 152.524 114.622 152.883 114.175 153.007V153.036C114.728 153.124 115.069 153.519 115.064 154.06C115.069 154.76 114.428 155.278 113.581 155.278ZM117.223 155.278C116.275 155.278 115.734 154.483 115.734 153.089C115.734 151.707 116.287 150.901 117.223 150.901C118.158 150.901 118.711 151.707 118.711 153.089C118.711 154.483 118.164 155.278 117.223 155.278ZM117.223 154.807C117.835 154.807 118.193 154.189 118.193 153.089C118.193 151.989 117.835 151.359 117.223 151.359C116.611 151.359 116.246 151.989 116.246 153.089C116.246 154.189 116.605 154.807 117.223 154.807Z" fill="var(--sol-element-primary)"/>
</g>
<g clip-path="url(#clip28_1254_318732)">
<path d="M123.109 146.637H138.6V160.8H123.109V146.637Z" fill="var(--sol-selected-container-variant)"/>
<path d="M129.546 155.278C128.699 155.278 128.093 154.825 128.063 154.148H128.599C128.628 154.554 129.034 154.807 129.54 154.807C130.099 154.807 130.511 154.501 130.511 154.06C130.511 153.595 130.14 153.266 129.475 153.266H129.128V152.801H129.475C129.993 152.801 130.352 152.513 130.352 152.071C130.352 151.648 130.04 151.359 129.558 151.359C129.105 151.359 128.687 151.612 128.663 152.03H128.152C128.181 151.354 128.805 150.901 129.564 150.901C130.375 150.901 130.87 151.43 130.864 152.042C130.87 152.524 130.587 152.883 130.14 153.007V153.036C130.693 153.124 131.034 153.519 131.028 154.06C131.034 154.76 130.393 155.278 129.546 155.278ZM133.299 150.959V155.219H132.764V151.512H132.74L131.705 152.201V151.665L132.764 150.959H133.299Z" fill="var(--sol-element-primary)"/>
</g>
<path d="M36.0421 68.2652C36.0051 67.937 35.7046 67.7475 35.3025 67.7475C34.8587 67.7475 34.5675 67.9786 34.5675 68.2975C34.5675 68.6488 34.9604 68.7783 35.2147 68.843L35.5475 68.9354C35.908 69.0279 36.4951 69.2359 36.4951 69.8599C36.4951 70.4053 36.0559 70.8306 35.2794 70.8306C34.5583 70.8306 34.1099 70.4562 34.0729 69.9015H34.4982C34.5352 70.2759 34.8818 70.4516 35.2794 70.4516C35.7416 70.4516 36.0883 70.2158 36.0883 69.8507C36.0883 69.5271 35.7786 69.4023 35.4273 69.3006L35.0159 69.1896C34.4889 69.0371 34.1654 68.769 34.1654 68.316C34.1654 67.7521 34.6692 67.3777 35.3164 67.3777C35.9635 67.3777 36.4304 67.7567 36.4488 68.2652H36.0421ZM38.626 69.7397V68.2605H39.0189V70.7705H38.626V70.3452H38.5983C38.4781 70.5995 38.2331 70.8029 37.854 70.8029C37.3779 70.8029 37.0405 70.4932 37.0405 69.8553V68.2605H37.438V69.8275C37.438 70.1881 37.6645 70.4192 37.9835 70.4192C38.2654 70.4192 38.626 70.2066 38.626 69.7397ZM40.0543 69.2636V70.7705H39.6568V68.2605H40.0404V68.6535H40.0728C40.193 68.3992 40.4241 68.2282 40.8078 68.2282C41.3162 68.2282 41.6537 68.5379 41.6537 69.1758V70.7705H41.2561V69.2035C41.2561 68.8152 41.0435 68.5841 40.6876 68.5841C40.3224 68.5841 40.0543 68.8291 40.0543 69.2636Z" fill="var(--sol-error)"/>
<path d="M49.0917 67.4239H49.5909L50.7188 70.1788H50.7604L51.8882 67.4239H52.3874V70.7705H51.9945V68.2421H51.9622L50.9221 70.7705H50.5524L49.5123 68.2421H49.4846V70.7705H49.0917V67.4239ZM54.1024 70.8214C53.4182 70.8214 52.956 70.3083 52.956 69.5271C52.956 68.7459 53.4182 68.2282 54.1024 68.2282C54.7818 68.2282 55.2395 68.7459 55.2395 69.5271C55.2395 70.3083 54.7818 70.8214 54.1024 70.8214ZM54.1024 70.4701C54.6062 70.4701 54.8419 70.0263 54.8419 69.5271C54.8419 69.0279 54.6062 68.5795 54.1024 68.5795C53.5893 68.5795 53.3535 69.0279 53.3535 69.5271C53.3535 70.0263 53.5893 70.4701 54.1024 70.4701ZM56.1593 69.2636V70.7705H55.7618V68.2605H56.1455V68.6535H56.1778C56.298 68.3992 56.5291 68.2282 56.9128 68.2282C57.4212 68.2282 57.7587 68.5379 57.7587 69.1758V70.7705H57.3611V69.2035C57.3611 68.8152 57.1485 68.5841 56.7926 68.5841C56.4274 68.5841 56.1593 68.8291 56.1593 69.2636Z" fill="var(--sol-element-tertiary)"/>
<path d="M65.1815 67.7937V67.4239H67.7053V67.7937H66.656V70.7705H66.2354V67.7937H65.1815ZM69.4572 69.7397V68.2605H69.8501V70.7705H69.4572V70.3452H69.4295C69.3093 70.5995 69.0643 70.8029 68.6853 70.8029C68.2092 70.8029 67.8717 70.4932 67.8717 69.8553V68.2605H68.2693V69.8275C68.2693 70.1881 68.4957 70.4192 68.8147 70.4192C69.0967 70.4192 69.4572 70.2066 69.4572 69.7397ZM71.5419 70.8214C70.8162 70.8214 70.3678 70.3083 70.3678 69.5363C70.3678 68.7644 70.8208 68.2282 71.5049 68.2282C72.0319 68.2282 72.5866 68.5518 72.5866 69.4809V69.6473H70.7653C70.7838 70.1788 71.0935 70.4701 71.5419 70.4701C71.8424 70.4701 72.0319 70.3406 72.1243 70.1835H72.5496C72.4294 70.5625 72.0596 70.8214 71.5419 70.8214ZM70.77 69.3098H72.1844C72.1844 68.8892 71.9163 68.5795 71.5049 68.5795C71.0704 68.5795 70.7931 68.9215 70.77 69.3098Z" fill="var(--sol-element-tertiary)"/>
<path d="M80.6172 70.7705L79.702 67.4239H80.1226L80.8206 70.1326H80.853L81.5602 67.4239H82.0271L82.7389 70.1326H82.7666L83.4646 67.4239H83.8853L82.97 70.7705H82.5401L81.8098 68.1219H81.7821L81.0471 70.7705H80.6172ZM85.0963 70.8214C84.3706 70.8214 83.9222 70.3083 83.9222 69.5363C83.9222 68.7644 84.3752 68.2282 85.0594 68.2282C85.5863 68.2282 86.141 68.5518 86.141 69.4809V69.6473H84.3198C84.3383 70.1788 84.648 70.4701 85.0963 70.4701C85.3968 70.4701 85.5863 70.3406 85.6788 70.1835H86.104C85.9838 70.5625 85.614 70.8214 85.0963 70.8214ZM84.3244 69.3098H85.7388C85.7388 68.8892 85.4707 68.5795 85.0594 68.5795C84.6248 68.5795 84.3475 68.9215 84.3244 69.3098ZM87.6063 70.8214C86.9823 70.8214 86.5385 70.3175 86.5385 69.5225C86.5385 68.7274 86.9823 68.2282 87.6109 68.2282C88.0963 68.2282 88.2534 68.524 88.3366 68.6581H88.3644V67.4239H88.7665V70.7705H88.3782V70.3868H88.3366C88.2488 70.5255 88.087 70.8214 87.6063 70.8214ZM87.6618 70.4654C88.1194 70.4654 88.3782 70.0771 88.3782 69.5132C88.3782 68.9585 88.1286 68.5841 87.6618 68.5841C87.181 68.5841 86.9407 68.9909 86.9407 69.5132C86.9407 70.0494 87.1857 70.4654 87.6618 70.4654Z" fill="var(--sol-element-tertiary)"/>
<path d="M95.9711 67.7937V67.4239H98.4949V67.7937H97.4457V70.7705H97.025V67.7937H95.9711ZM99.3963 69.2636V70.7705H98.9988V67.4239H99.3963V68.6535H99.4287C99.5442 68.3946 99.7707 68.2282 100.168 68.2282C100.681 68.2282 101.023 68.5333 101.023 69.1758V70.7705H100.626V69.2035C100.626 68.8106 100.409 68.5841 100.048 68.5841C99.6736 68.5841 99.3963 68.8291 99.3963 69.2636ZM103.247 69.7397V68.2605H103.64V70.7705H103.247V70.3452H103.219C103.099 70.5995 102.854 70.8029 102.475 70.8029C101.999 70.8029 101.661 70.4932 101.661 69.8553V68.2605H102.059V69.8275C102.059 70.1881 102.285 70.4192 102.604 70.4192C102.886 70.4192 103.247 70.2066 103.247 69.7397Z" fill="var(--sol-element-tertiary)"/>
<path d="M113.085 70.7705V67.4239H115.1V67.7937H113.501V68.9123H114.948V69.2775H113.501V70.7705H113.085ZM115.646 70.7705V68.2605H116.029V68.6442H116.057C116.149 68.39 116.408 68.2189 116.704 68.2189C116.764 68.2189 116.866 68.2236 116.912 68.2282V68.6303C116.884 68.6211 116.773 68.6026 116.672 68.6026C116.311 68.6026 116.043 68.8522 116.043 69.1896V70.7705H115.646ZM117.3 70.7705V68.2605H117.698V70.7705H117.3ZM117.499 67.8445C117.347 67.8445 117.222 67.729 117.222 67.5811C117.222 67.4331 117.347 67.3176 117.499 67.3176C117.652 67.3176 117.781 67.4331 117.781 67.5811C117.781 67.729 117.652 67.8445 117.499 67.8445Z" fill="var(--sol-element-tertiary)"/>
<path d="M129.542 68.2652C129.505 67.937 129.205 67.7475 128.802 67.7475C128.359 67.7475 128.068 67.9786 128.068 68.2975C128.068 68.6488 128.46 68.7783 128.715 68.843L129.047 68.9354C129.408 69.0279 129.995 69.2359 129.995 69.8599C129.995 70.4053 129.556 70.8306 128.779 70.8306C128.058 70.8306 127.61 70.4562 127.573 69.9015H127.998C128.035 70.2759 128.382 70.4516 128.779 70.4516C129.242 70.4516 129.588 70.2158 129.588 69.8507C129.588 69.5271 129.279 69.4023 128.927 69.3006L128.516 69.1896C127.989 69.0371 127.665 68.769 127.665 68.316C127.665 67.7521 128.169 67.3777 128.816 67.3777C129.463 67.3777 129.93 67.7567 129.949 68.2652H129.542ZM130.42 70.0587C130.42 69.4809 130.929 69.3514 131.363 69.3191C131.523 69.3075 131.93 69.2867 132.043 69.2821V69.0787C132.043 68.7598 131.853 68.5749 131.474 68.5749C131.155 68.5749 130.966 68.7228 130.91 68.9123H130.494C130.545 68.5102 130.938 68.2282 131.493 68.2282C131.821 68.2282 132.436 68.3253 132.436 69.1157V70.7705H132.043V70.4285H132.024C131.941 70.5995 131.71 70.8306 131.275 70.8306C130.799 70.8306 130.42 70.5486 130.42 70.0587ZM130.818 70.0771C130.818 70.3406 131.04 70.4747 131.345 70.4747C131.793 70.4747 132.043 70.1742 132.043 69.8599V69.6057L131.41 69.6519C131.049 69.675 130.818 69.8044 130.818 70.0771ZM134.169 68.2605V68.5934H133.642V70.0494C133.642 70.373 133.799 70.4238 133.97 70.4238C134.044 70.4238 134.146 70.4192 134.206 70.4146V70.7844C134.146 70.7936 134.044 70.8029 133.929 70.8029C133.596 70.8029 133.24 70.5949 133.24 70.1511V68.5934H132.861V68.2605H133.24V67.6596H133.642V68.2605H134.169Z" fill="var(--sol-element-tertiary)"/>
<mask id="mask0_1254_318732" style="mask-type:alpha" maskUnits="userSpaceOnUse" x="31" y="51" width="10" height="10">
<path d="M37.4534 54.2836L35.492 56.245L37.4534 58.2064L37.0731 58.5866L34.9215 56.4351C34.8165 56.3301 34.8165 56.1599 34.9215 56.0548L37.0731 53.9033L37.4534 54.2836Z" fill="var(--sol-element-primary)"/>
</mask>
<g mask="url(#mask0_1254_318732)">
<rect x="31.8848" y="51.9424" width="8.60606" height="8.60606" fill="var(--sol-element-quaternary)"/>
</g>
<path d="M68.3031 57.7451H66.9794V53.4858H68.3561C69.5974 53.4858 70.3328 54.2859 70.3328 55.6096C70.3328 56.9391 69.5974 57.7451 68.3031 57.7451ZM67.5089 57.2745H68.2678C69.315 57.2745 69.8151 56.645 69.8151 55.6096C69.8151 54.58 69.315 53.9564 68.3208 53.9564H67.5089V57.2745ZM72.386 57.8098C71.4623 57.8098 70.8917 57.1568 70.8917 56.1743C70.8917 55.1919 71.4682 54.5094 72.3389 54.5094C73.0096 54.5094 73.7155 54.9213 73.7155 56.1037V56.3155H71.3976C71.4211 56.9921 71.8153 57.3627 72.386 57.3627C72.7684 57.3627 73.0096 57.198 73.1272 56.998H73.6685C73.5155 57.4804 73.0449 57.8098 72.386 57.8098ZM71.4035 55.8861H73.2037C73.2037 55.3507 72.8625 54.9566 72.3389 54.9566C71.7859 54.9566 71.4329 55.3919 71.4035 55.8861ZM75.6805 57.8098C74.7745 57.8098 74.2215 57.1215 74.2215 56.1626C74.2215 55.1919 74.798 54.5094 75.6687 54.5094C76.3511 54.5094 76.8571 54.9095 76.9394 55.5154H76.4335C76.3629 55.2213 76.104 54.9566 75.6805 54.9566C75.1098 54.9566 74.7274 55.4272 74.7274 56.1449C74.7274 56.8862 75.098 57.3568 75.6805 57.3568C76.057 57.3568 76.3452 57.1568 76.4335 56.8038H76.9394C76.8571 57.3745 76.3923 57.8098 75.6805 57.8098ZM78.2278 57.351L77.7689 58.9511H77.3336L77.6572 57.351H78.2278ZM80.6163 57.7451L80.6105 57.3568L82.0636 55.8272C82.5695 55.2919 82.8107 55.0036 82.8107 54.6095C82.8107 54.1741 82.4401 53.8858 81.9636 53.8858C81.4576 53.8858 81.1341 54.2094 81.1341 54.6859H80.634C80.6281 53.9329 81.2105 53.427 81.9812 53.427C82.7519 53.427 83.3049 53.9447 83.3049 54.6095C83.3049 55.086 83.0813 55.4566 82.3283 56.2332L81.3517 57.2392V57.2745H83.3814V57.7451H80.6163ZM85.5463 57.8039C84.5992 57.8039 84.0579 57.0097 84.0579 55.6155C84.0579 54.2329 84.6109 53.427 85.5463 53.427C86.4817 53.427 87.0348 54.2329 87.0348 55.6155C87.0348 57.0097 86.4876 57.8039 85.5463 57.8039ZM85.5463 57.3333C86.1582 57.3333 86.517 56.7156 86.517 55.6155C86.517 54.5153 86.1582 53.8858 85.5463 53.8858C84.9345 53.8858 84.5698 54.5153 84.5698 55.6155C84.5698 56.7156 84.9286 57.3333 85.5463 57.3333ZM87.7407 57.7451L87.7348 57.3568L89.1879 55.8272C89.6939 55.2919 89.9351 55.0036 89.9351 54.6095C89.9351 54.1741 89.5645 53.8858 89.0879 53.8858C88.582 53.8858 88.2584 54.2094 88.2584 54.6859H87.7584C87.7525 53.9329 88.3349 53.427 89.1056 53.427C89.8763 53.427 90.4293 53.9447 90.4293 54.6095C90.4293 55.086 90.2057 55.4566 89.4527 56.2332L88.4761 57.2392V57.2745H90.5057V57.7451H87.7407ZM92.6648 57.8039C91.8941 57.8039 91.3117 57.3274 91.2823 56.6744H91.7941C91.8353 57.0568 92.206 57.3392 92.6648 57.3392C93.2178 57.3392 93.6179 56.9333 93.6179 56.3979C93.6179 55.8449 93.2002 55.439 92.6295 55.4331C92.2707 55.4272 91.9942 55.539 91.8353 55.8155H91.3235L91.6235 53.4858H93.9297V53.9564H92.0648L91.9059 55.2036H91.9471C92.1354 55.0566 92.4236 54.9566 92.7237 54.9566C93.5355 54.9566 94.1356 55.5566 94.1356 56.3861C94.1356 57.2098 93.512 57.8039 92.6648 57.8039Z" fill="var(--sol-element-primary)"/>
<mask id="mask1_1254_318732" style="mask-type:alpha" maskUnits="userSpaceOnUse" x="96" y="53" width="7" height="7">
<path d="M100.882 55.6256L99.3758 57.1316C99.3023 57.2052 99.1831 57.2052 99.1096 57.1316L97.6035 55.6256L97.8697 55.3594L99.2427 56.7323L100.616 55.3594L100.882 55.6256Z" fill="var(--sol-element-primary)"/>
</mask>
<g mask="url(#mask1_1254_318732)">
<rect x="96.2305" y="53.2334" width="6.02424" height="6.02424" fill="var(--sol-element-primary)"/>
</g>
<path d="M143.764 51.1348C143.764 50.9967 143.876 50.8848 144.014 50.8848C144.152 50.8848 144.264 50.9967 144.264 51.1348L144.264 162.271C144.264 162.409 144.152 162.521 144.014 162.521C143.876 162.521 143.764 162.409 143.764 162.271L143.764 51.1348Z" fill="var(--sol-border-normal-variant)"/>
<g clip-path="url(#clip29_1254_318732)">
<path d="M187.873 53.4858H188.408V56.5273C188.408 57.3451 187.926 57.8039 187.184 57.8039C186.478 57.8039 185.967 57.398 185.967 56.7391H186.49C186.49 57.098 186.784 57.3333 187.184 57.3333C187.626 57.3333 187.873 57.0568 187.873 56.5273V53.4858ZM189.132 56.8391C189.132 56.1037 189.779 55.939 190.332 55.8978C190.535 55.8831 191.052 55.8567 191.197 55.8508V55.5919C191.197 55.186 190.955 54.9507 190.473 54.9507C190.067 54.9507 189.826 55.1389 189.755 55.3801H189.226C189.291 54.8683 189.791 54.5094 190.497 54.5094C190.914 54.5094 191.697 54.633 191.697 55.639V57.7451H191.197V57.3098H191.173C191.067 57.5274 190.773 57.8216 190.22 57.8216C189.614 57.8216 189.132 57.4627 189.132 56.8391ZM189.638 56.8627C189.638 57.198 189.92 57.3686 190.308 57.3686C190.879 57.3686 191.197 56.9862 191.197 56.5862V56.2626L190.391 56.3214C189.932 56.3508 189.638 56.5156 189.638 56.8627ZM193.014 55.8272V57.7451H192.509V54.5506H192.997V55.0507H193.038C193.191 54.7271 193.485 54.5094 193.973 54.5094C194.621 54.5094 195.05 54.9036 195.05 55.7155V57.7451H194.544V55.7508C194.544 55.2566 194.273 54.9624 193.82 54.9624C193.356 54.9624 193.014 55.2742 193.014 55.8272ZM196.527 57.351L196.068 58.9511H195.632L195.956 57.351H196.527ZM198.915 57.7451L198.909 57.3568L200.362 55.8272C200.868 55.2919 201.11 55.0036 201.11 54.6095C201.11 54.1741 200.739 53.8858 200.262 53.8858C199.756 53.8858 199.433 54.2094 199.433 54.6859H198.933C198.927 53.9329 199.509 53.427 200.28 53.427C201.051 53.427 201.604 53.9447 201.604 54.6095C201.604 55.086 201.38 55.4566 200.627 56.2332L199.651 57.2392V57.2745H201.68V57.7451H198.915ZM203.845 57.8039C202.898 57.8039 202.357 57.0097 202.357 55.6155C202.357 54.2329 202.91 53.427 203.845 53.427C204.781 53.427 205.334 54.2329 205.334 55.6155C205.334 57.0097 204.786 57.8039 203.845 57.8039ZM203.845 57.3333C204.457 57.3333 204.816 56.7156 204.816 55.6155C204.816 54.5153 204.457 53.8858 203.845 53.8858C203.233 53.8858 202.869 54.5153 202.869 55.6155C202.869 56.7156 203.227 57.3333 203.845 57.3333ZM206.04 57.7451L206.034 57.3568L207.487 55.8272C207.993 55.2919 208.234 55.0036 208.234 54.6095C208.234 54.1741 207.863 53.8858 207.387 53.8858C206.881 53.8858 206.557 54.2094 206.557 54.6859H206.057C206.051 53.9329 206.634 53.427 207.404 53.427C208.175 53.427 208.728 53.9447 208.728 54.6095C208.728 55.086 208.505 55.4566 207.752 56.2332L206.775 57.2392V57.2745H208.805V57.7451H206.04ZM211.058 57.8039C210.317 57.7922 209.505 57.3568 209.505 55.7802C209.505 54.2741 210.122 53.427 211.123 53.427C211.87 53.427 212.393 53.8858 212.505 54.5565H211.981C211.881 54.18 211.599 53.8976 211.123 53.8976C210.422 53.8976 210.005 54.4977 210.005 55.5213H210.058C210.305 55.1683 210.693 54.9566 211.152 54.9566C211.911 54.9566 212.54 55.5449 212.54 56.3685C212.54 57.1686 211.952 57.8098 211.058 57.8039ZM211.058 57.3392C211.611 57.3392 212.023 56.9038 212.029 56.3744C212.023 55.8508 211.628 55.4213 211.07 55.4213C210.511 55.4213 210.081 55.8743 210.075 56.3802C210.075 56.8803 210.487 57.3392 211.058 57.3392Z" fill="var(--sol-element-primary)"/>
<mask id="mask2_1254_318732" style="mask-type:alpha" maskUnits="userSpaceOnUse" x="215" y="53" width="7" height="7">
<path d="M220.146 55.6256L218.639 57.1316C218.566 57.2052 218.447 57.2052 218.373 57.1316L216.867 55.6256L217.133 55.3594L218.506 56.7323L219.879 55.3594L220.146 55.6256Z" fill="var(--sol-element-primary)"/>
</mask>
<g mask="url(#mask2_1254_318732)">
<rect x="215.494" y="53.2334" width="6.02424" height="6.02424" fill="var(--sol-element-primary)"/>
</g>
<mask id="mask3_1254_318732" style="mask-type:alpha" maskUnits="userSpaceOnUse" x="247" y="51" width="10" height="10">
<path d="M253.105 56.0548C253.21 56.1599 253.21 56.3301 253.105 56.4351L250.954 58.5866L250.573 58.2064L252.535 56.245L250.573 54.2836L250.954 53.9033L253.105 56.0548Z" fill="var(--sol-element-primary)"/>
</mask>
<g mask="url(#mask3_1254_318732)">
<rect x="247.536" y="51.9424" width="8.60606" height="8.60606" fill="var(--sol-element-quaternary)"/>
</g>
<path d="M155.306 68.2652C155.269 67.937 154.968 67.7475 154.566 67.7475C154.122 67.7475 153.831 67.9786 153.831 68.2975C153.831 68.6488 154.224 68.7783 154.478 68.843L154.811 68.9354C155.172 69.0279 155.759 69.2359 155.759 69.8599C155.759 70.4053 155.32 70.8306 154.543 70.8306C153.822 70.8306 153.374 70.4562 153.337 69.9015H153.762C153.799 70.2759 154.146 70.4516 154.543 70.4516C155.005 70.4516 155.352 70.2158 155.352 69.8507C155.352 69.5271 155.042 69.4023 154.691 69.3006L154.28 69.1896C153.753 69.0371 153.429 68.769 153.429 68.316C153.429 67.7521 153.933 67.3777 154.58 67.3777C155.227 67.3777 155.694 67.7567 155.713 68.2652H155.306ZM157.89 69.7397V68.2605H158.283V70.7705H157.89V70.3452H157.862C157.742 70.5995 157.497 70.8029 157.118 70.8029C156.642 70.8029 156.304 70.4932 156.304 69.8553V68.2605H156.702V69.8275C156.702 70.1881 156.928 70.4192 157.247 70.4192C157.529 70.4192 157.89 70.2066 157.89 69.7397ZM159.318 69.2636V70.7705H158.92V68.2605H159.304V68.6535H159.336C159.457 68.3992 159.688 68.2282 160.071 68.2282C160.58 68.2282 160.917 68.5379 160.917 69.1758V70.7705H160.52V69.2035C160.52 68.8152 160.307 68.5841 159.951 68.5841C159.586 68.5841 159.318 68.8291 159.318 69.2636Z" fill="var(--sol-error)"/>
<path d="M168.355 67.4239H168.855L169.982 70.1788H170.024L171.152 67.4239H171.651V70.7705H171.258V68.2421H171.226L170.186 70.7705H169.816L168.776 68.2421H168.748V70.7705H168.355V67.4239ZM173.366 70.8214C172.682 70.8214 172.22 70.3083 172.22 69.5271C172.22 68.7459 172.682 68.2282 173.366 68.2282C174.046 68.2282 174.503 68.7459 174.503 69.5271C174.503 70.3083 174.046 70.8214 173.366 70.8214ZM173.366 70.4701C173.87 70.4701 174.106 70.0263 174.106 69.5271C174.106 69.0279 173.87 68.5795 173.366 68.5795C172.853 68.5795 172.617 69.0279 172.617 69.5271C172.617 70.0263 172.853 70.4701 173.366 70.4701ZM175.423 69.2636V70.7705H175.025V68.2605H175.409V68.6535H175.441C175.562 68.3992 175.793 68.2282 176.176 68.2282C176.685 68.2282 177.022 68.5379 177.022 69.1758V70.7705H176.625V69.2035C176.625 68.8152 176.412 68.5841 176.056 68.5841C175.691 68.5841 175.423 68.8291 175.423 69.2636Z" fill="var(--sol-element-tertiary)"/>
<path d="M184.445 67.7937V67.4239H186.969V67.7937H185.92V70.7705H185.499V67.7937H184.445ZM188.721 69.7397V68.2605H189.114V70.7705H188.721V70.3452H188.693C188.573 70.5995 188.328 70.8029 187.949 70.8029C187.473 70.8029 187.135 70.4932 187.135 69.8553V68.2605H187.533V69.8275C187.533 70.1881 187.759 70.4192 188.078 70.4192C188.36 70.4192 188.721 70.2066 188.721 69.7397ZM190.806 70.8214C190.08 70.8214 189.631 70.3083 189.631 69.5363C189.631 68.7644 190.084 68.2282 190.769 68.2282C191.296 68.2282 191.85 68.5518 191.85 69.4809V69.6473H190.029C190.048 70.1788 190.357 70.4701 190.806 70.4701C191.106 70.4701 191.296 70.3406 191.388 70.1835H191.813C191.693 70.5625 191.323 70.8214 190.806 70.8214ZM190.034 69.3098H191.448C191.448 68.8892 191.18 68.5795 190.769 68.5795C190.334 68.5795 190.057 68.9215 190.034 69.3098Z" fill="var(--sol-element-tertiary)"/>
<path d="M199.881 70.7705L198.966 67.4239H199.386L200.084 70.1326H200.117L200.824 67.4239H201.291L202.003 70.1326H202.03L202.728 67.4239H203.149L202.234 70.7705H201.804L201.073 68.1219H201.046L200.311 70.7705H199.881ZM204.36 70.8214C203.634 70.8214 203.186 70.3083 203.186 69.5363C203.186 68.7644 203.639 68.2282 204.323 68.2282C204.85 68.2282 205.405 68.5518 205.405 69.4809V69.6473H203.583C203.602 70.1788 203.912 70.4701 204.36 70.4701C204.66 70.4701 204.85 70.3406 204.942 70.1835H205.368C205.248 70.5625 204.878 70.8214 204.36 70.8214ZM203.588 69.3098H205.003C205.003 68.8892 204.734 68.5795 204.323 68.5795C203.889 68.5795 203.611 68.9215 203.588 69.3098ZM206.87 70.8214C206.246 70.8214 205.802 70.3175 205.802 69.5225C205.802 68.7274 206.246 68.2282 206.875 68.2282C207.36 68.2282 207.517 68.524 207.6 68.6581H207.628V67.4239H208.03V70.7705H207.642V70.3868H207.6C207.512 70.5255 207.351 70.8214 206.87 70.8214ZM206.925 70.4654C207.383 70.4654 207.642 70.0771 207.642 69.5132C207.642 68.9585 207.392 68.5841 206.925 68.5841C206.445 68.5841 206.204 68.9909 206.204 69.5132C206.204 70.0494 206.449 70.4654 206.925 70.4654Z" fill="var(--sol-element-tertiary)"/>
<path d="M215.235 67.7937V67.4239H217.759V67.7937H216.709V70.7705H216.289V67.7937H215.235ZM218.66 69.2636V70.7705H218.262V67.4239H218.66V68.6535H218.692C218.808 68.3946 219.034 68.2282 219.432 68.2282C219.945 68.2282 220.287 68.5333 220.287 69.1758V70.7705H219.89V69.2035C219.89 68.8106 219.672 68.5841 219.312 68.5841C218.937 68.5841 218.66 68.8291 218.66 69.2636ZM222.51 69.7397V68.2605H222.903V70.7705H222.51V70.3452H222.483C222.363 70.5995 222.118 70.8029 221.738 70.8029C221.262 70.8029 220.925 70.4932 220.925 69.8553V68.2605H221.322V69.8275C221.322 70.1881 221.549 70.4192 221.868 70.4192C222.15 70.4192 222.51 70.2066 222.51 69.7397Z" fill="var(--sol-element-tertiary)"/>
<path d="M232.348 70.7705V67.4239H234.364V67.7937H232.764V68.9123H234.211V69.2775H232.764V70.7705H232.348ZM234.909 70.7705V68.2605H235.293V68.6442H235.321C235.413 68.39 235.672 68.2189 235.968 68.2189C236.028 68.2189 236.13 68.2236 236.176 68.2282V68.6303C236.148 68.6211 236.037 68.6026 235.935 68.6026C235.575 68.6026 235.307 68.8522 235.307 69.1896V70.7705H234.909ZM236.564 70.7705V68.2605H236.962V70.7705H236.564ZM236.763 67.8445C236.61 67.8445 236.485 67.729 236.485 67.5811C236.485 67.4331 236.61 67.3176 236.763 67.3176C236.915 67.3176 237.045 67.4331 237.045 67.5811C237.045 67.729 236.915 67.8445 236.763 67.8445Z" fill="var(--sol-element-tertiary)"/>
<path d="M248.806 68.2652C248.769 67.937 248.468 67.7475 248.066 67.7475C247.622 67.7475 247.331 67.9786 247.331 68.2975C247.331 68.6488 247.724 68.7783 247.978 68.843L248.311 68.9354C248.672 69.0279 249.259 69.2359 249.259 69.8599C249.259 70.4053 248.82 70.8306 248.043 70.8306C247.322 70.8306 246.874 70.4562 246.837 69.9015H247.262C247.299 70.2759 247.646 70.4516 248.043 70.4516C248.505 70.4516 248.852 70.2158 248.852 69.8507C248.852 69.5271 248.542 69.4023 248.191 69.3006L247.78 69.1896C247.253 69.0371 246.929 68.769 246.929 68.316C246.929 67.7521 247.433 67.3777 248.08 67.3777C248.727 67.3777 249.194 67.7567 249.213 68.2652H248.806ZM249.684 70.0587C249.684 69.4809 250.192 69.3514 250.627 69.3191C250.786 69.3075 251.193 69.2867 251.306 69.2821V69.0787C251.306 68.7598 251.117 68.5749 250.738 68.5749C250.419 68.5749 250.229 68.7228 250.174 68.9123H249.758C249.809 68.5102 250.202 68.2282 250.756 68.2282C251.085 68.2282 251.699 68.3253 251.699 69.1157V70.7705H251.306V70.4285H251.288C251.205 70.5995 250.974 70.8306 250.539 70.8306C250.063 70.8306 249.684 70.5486 249.684 70.0587ZM250.082 70.0771C250.082 70.3406 250.303 70.4747 250.608 70.4747C251.057 70.4747 251.306 70.1742 251.306 69.8599V69.6057L250.673 69.6519C250.313 69.675 250.082 69.8044 250.082 70.0771ZM253.433 68.2605V68.5934H252.906V70.0494C252.906 70.373 253.063 70.4238 253.234 70.4238C253.308 70.4238 253.41 70.4192 253.47 70.4146V70.7844C253.41 70.7936 253.308 70.8029 253.192 70.8029C252.86 70.8029 252.504 70.5949 252.504 70.1511V68.5934H252.125V68.2605H252.504V67.6596H252.906V68.2605H253.433Z" fill="var(--sol-element-tertiary)"/>
<g clip-path="url(#clip30_1254_318732)">
<path d="M164.919 79.6543H177.828C178.779 79.6543 179.549 80.4249 179.549 81.3755V92.0967C179.549 93.0473 178.779 93.8179 177.828 93.8179H164.919V79.6543Z" fill="var(--sol-selected-container-variant)"/>
<g clip-path="url(#clip31_1254_318732)">
<rect x="165.779" y="79.6543" width="13.7697" height="14.1636" fill="var(--sol-fill-active)"/>
</g>
<path d="M173.364 83.977V88.2363H172.594V84.7241H172.57L171.576 85.3595V84.6594L172.629 83.977H173.364Z" fill="var(--sol-surface)"/>
</g>
<g clip-path="url(#clip32_1254_318732)">
<g clip-path="url(#clip33_1254_318732)">
<path d="M182.991 79.8691H193.318C194.15 79.8693 194.824 80.5443 194.824 81.376V92.0967C194.824 92.9284 194.15 93.6024 193.318 93.6025H182.991C182.159 93.6025 181.484 92.9285 181.484 92.0967V81.376C181.484 80.5442 182.159 79.8691 182.991 79.8691Z" stroke="var(--sol-fill-active)" stroke-width="0.430303"/>
</g>
<path d="M188.155 88.2952C187.207 88.2952 186.666 87.5009 186.666 86.1067C186.666 84.7241 187.219 83.9182 188.155 83.9182C189.09 83.9182 189.643 84.7241 189.643 86.1067C189.643 87.5009 189.096 88.2952 188.155 88.2952ZM188.155 87.8245C188.766 87.8245 189.125 87.2068 189.125 86.1067C189.125 85.0065 188.766 84.377 188.155 84.377C187.543 84.377 187.178 85.0065 187.178 86.1067C187.178 87.2068 187.537 87.8245 188.155 87.8245Z" fill="var(--sol-element-primary)"/>
</g>
<path d="M203.658 88.2952C202.81 88.2952 202.204 87.8422 202.175 87.1656H202.71C202.74 87.5715 203.146 87.8245 203.652 87.8245C204.211 87.8245 204.622 87.5186 204.622 87.0774C204.622 86.6126 204.252 86.2832 203.587 86.2832H203.24V85.8184H203.587C204.105 85.8184 204.464 85.5301 204.464 85.0889C204.464 84.6653 204.152 84.377 203.669 84.377C203.216 84.377 202.799 84.63 202.775 85.0477H202.263C202.293 84.3712 202.916 83.9182 203.675 83.9182C204.487 83.9182 204.981 84.4476 204.975 85.0595C204.981 85.5419 204.699 85.9008 204.252 86.0243V86.0537C204.805 86.142 205.146 86.5361 205.14 87.0774C205.146 87.7775 204.505 88.2952 203.658 88.2952Z" fill="var(--sol-element-quaternary)"/>
<path d="M217.552 87.3656V86.9303L219.469 83.977H220.122V86.9009H220.717V87.3656H220.122V88.2363H219.617V87.3656H217.552ZM218.122 86.9009H219.617V84.6477H219.564L218.122 86.8656V86.9009Z" fill="var(--sol-element-quaternary)"/>
<path d="M234.618 88.2952C233.848 88.2952 233.265 87.8186 233.236 87.1656H233.748C233.789 87.548 234.16 87.8304 234.618 87.8304C235.171 87.8304 235.572 87.4245 235.572 86.8891C235.572 86.3361 235.154 85.9302 234.583 85.9243C234.224 85.9184 233.948 86.0302 233.789 86.3067H233.277L233.577 83.977H235.883V84.4476H234.018L233.86 85.6949H233.901C234.089 85.5478 234.377 85.4478 234.677 85.4478C235.489 85.4478 236.089 86.0478 236.089 86.8773C236.089 87.701 235.466 88.2952 234.618 88.2952Z" fill="var(--sol-element-quaternary)"/>
<path d="M250.154 88.2952C249.413 88.2834 248.601 87.848 248.601 86.2714C248.601 84.7653 249.218 83.9182 250.219 83.9182C250.966 83.9182 251.489 84.377 251.601 85.0477H251.077C250.977 84.6712 250.695 84.3888 250.219 84.3888C249.518 84.3888 249.101 84.9889 249.101 86.0125H249.154C249.401 85.6596 249.789 85.4478 250.248 85.4478C251.007 85.4478 251.636 86.0361 251.636 86.8597C251.636 87.6598 251.048 88.301 250.154 88.2952ZM250.154 87.8304C250.707 87.8304 251.119 87.3951 251.125 86.8656C251.119 86.342 250.724 85.9125 250.166 85.9125C249.607 85.9125 249.177 86.3655 249.171 86.8715C249.171 87.3715 249.583 87.8304 250.154 87.8304Z" fill="var(--sol-element-quaternary)"/>
<path d="M156.047 104.982L158 101.223V101.194H155.747V100.723H158.547V101.217L156.6 104.982H156.047Z" fill="var(--sol-element-quaternary)"/>
<path d="M172.661 105.041C171.767 105.041 171.144 104.547 171.15 103.853C171.144 103.3 171.526 102.847 172.014 102.77V102.747C171.591 102.647 171.314 102.259 171.314 101.794C171.314 101.141 171.885 100.664 172.661 100.664C173.438 100.664 174.009 101.141 174.015 101.794C174.009 102.259 173.726 102.647 173.309 102.747V102.77C173.791 102.847 174.173 103.3 174.179 103.853C174.173 104.547 173.55 105.041 172.661 105.041ZM172.661 104.576C173.273 104.576 173.65 104.271 173.65 103.823C173.65 103.353 173.232 103.006 172.661 103.006C172.091 103.006 171.667 103.353 171.679 103.823C171.667 104.271 172.05 104.576 172.661 104.576ZM172.661 102.559C173.144 102.559 173.497 102.264 173.497 101.835C173.497 101.411 173.162 101.123 172.661 101.123C172.156 101.123 171.826 101.411 171.826 101.835C171.826 102.264 172.173 102.559 172.661 102.559Z" fill="var(--sol-element-quaternary)"/>
<path d="M188.125 100.664C188.861 100.67 189.672 101.111 189.672 102.682C189.672 104.194 189.055 105.041 188.055 105.041C187.307 105.041 186.778 104.582 186.672 103.906H187.196C187.29 104.288 187.578 104.571 188.055 104.571C188.749 104.571 189.172 103.971 189.178 102.935H189.119C188.872 103.288 188.484 103.5 188.031 103.5C187.266 103.5 186.637 102.917 186.637 102.094C186.637 101.3 187.219 100.658 188.125 100.664ZM188.125 101.129C187.566 101.129 187.149 101.564 187.155 102.088C187.155 102.617 187.549 103.035 188.108 103.035C188.661 103.035 189.096 102.576 189.096 102.076C189.096 101.588 188.69 101.129 188.125 101.129Z" fill="var(--sol-element-quaternary)"/>
<path d="M202.437 100.723V104.982H201.902V101.276H201.878L200.843 101.964V101.429L201.902 100.723H202.437ZM204.967 105.041C204.019 105.041 203.478 104.247 203.478 102.853C203.478 101.47 204.031 100.664 204.967 100.664C205.902 100.664 206.455 101.47 206.455 102.853C206.455 104.247 205.908 105.041 204.967 105.041ZM204.967 104.571C205.578 104.571 205.937 103.953 205.937 102.853C205.937 101.753 205.578 101.123 204.967 101.123C204.355 101.123 203.99 101.753 203.99 102.853C203.99 103.953 204.349 104.571 204.967 104.571Z" fill="var(--sol-element-quaternary)"/>
<path d="M218.402 100.723V104.982H217.866V101.276H217.843L216.807 101.964V101.429L217.866 100.723H218.402ZM221.043 100.723V104.982H220.508V101.276H220.484L219.449 101.964V101.429L220.508 100.723H221.043Z" fill="var(--sol-element-quaternary)"/>
<path d="M233.445 100.723V104.982H232.909V101.276H232.886L231.85 101.964V101.429L232.909 100.723H233.445ZM234.58 104.982L234.574 104.594L236.027 103.065C236.533 102.529 236.775 102.241 236.775 101.847C236.775 101.411 236.404 101.123 235.927 101.123C235.422 101.123 235.098 101.447 235.098 101.923H234.598C234.592 101.17 235.174 100.664 235.945 100.664C236.716 100.664 237.269 101.182 237.269 101.847C237.269 102.323 237.045 102.694 236.292 103.47L235.316 104.476V104.512H237.345V104.982H234.58Z" fill="var(--sol-element-quaternary)"/>
<path d="M248.845 100.723V104.982H248.309V101.276H248.286L247.251 101.964V101.429L248.309 100.723H248.845ZM251.451 105.041C250.604 105.041 249.998 104.588 249.968 103.912H250.504C250.533 104.318 250.939 104.571 251.445 104.571C252.004 104.571 252.416 104.265 252.416 103.823C252.416 103.359 252.045 103.029 251.38 103.029H251.033V102.564H251.38C251.898 102.564 252.257 102.276 252.257 101.835C252.257 101.411 251.945 101.123 251.463 101.123C251.01 101.123 250.592 101.376 250.569 101.794H250.057C250.086 101.117 250.71 100.664 251.469 100.664C252.281 100.664 252.775 101.194 252.769 101.806C252.775 102.288 252.492 102.647 252.045 102.77V102.8C252.598 102.888 252.939 103.282 252.934 103.823C252.939 104.524 252.298 105.041 251.451 105.041Z" fill="var(--sol-element-quaternary)"/>
<path d="M155.879 117.468V121.728H155.344V118.021H155.32L154.285 118.71V118.174L155.344 117.468H155.879ZM156.908 120.857V120.422L158.826 117.468H159.479V120.392H160.074V120.857H159.479V121.728H158.973V120.857H156.908ZM157.479 120.392H158.973V118.139H158.92L157.479 120.357V120.392Z" fill="var(--sol-element-quaternary)"/>
<path d="M171.452 117.468V121.728H170.917V118.021H170.894L169.858 118.71V118.174L170.917 117.468H171.452ZM173.976 121.786C173.206 121.786 172.623 121.31 172.594 120.657H173.106C173.147 121.039 173.517 121.322 173.976 121.322C174.529 121.322 174.929 120.916 174.929 120.38C174.929 119.827 174.512 119.421 173.941 119.416C173.582 119.41 173.306 119.521 173.147 119.798H172.635L172.935 117.468H175.241V117.939H173.376L173.217 119.186H173.259C173.447 119.039 173.735 118.939 174.035 118.939C174.847 118.939 175.447 119.539 175.447 120.369C175.447 121.192 174.823 121.786 173.976 121.786Z" fill="var(--sol-element-quaternary)"/>
<path d="M186.893 117.468V121.728H186.357V118.021H186.334L185.298 118.71V118.174L186.357 117.468H186.893ZM189.511 121.786C188.769 121.775 187.958 121.339 187.958 119.763C187.958 118.257 188.575 117.409 189.575 117.409C190.323 117.409 190.846 117.868 190.958 118.539H190.434C190.334 118.162 190.052 117.88 189.575 117.88C188.875 117.88 188.458 118.48 188.458 119.504H188.511C188.758 119.151 189.146 118.939 189.605 118.939C190.364 118.939 190.993 119.527 190.993 120.351C190.993 121.151 190.405 121.792 189.511 121.786ZM189.511 121.322C190.064 121.322 190.475 120.886 190.481 120.357C190.475 119.833 190.081 119.404 189.522 119.404C188.964 119.404 188.534 119.857 188.528 120.363C188.528 120.863 188.94 121.322 189.511 121.322Z" fill="var(--sol-element-quaternary)"/>
<path d="M202.569 117.468V121.728H202.034V118.021H202.01L200.975 118.71V118.174L202.034 117.468H202.569ZM203.84 121.728L205.793 117.968V117.939H203.54V117.468H206.34V117.962L204.393 121.728H203.84Z" fill="var(--sol-element-quaternary)"/>
<path d="M217.896 117.468V121.728H217.36V118.021H217.337L216.301 118.71V118.174L217.36 117.468H217.896ZM220.455 121.786C219.561 121.786 218.937 121.292 218.943 120.598C218.937 120.045 219.319 119.592 219.808 119.516V119.492C219.384 119.392 219.108 119.004 219.108 118.539C219.108 117.886 219.678 117.409 220.455 117.409C221.231 117.409 221.802 117.886 221.808 118.539C221.802 119.004 221.52 119.392 221.102 119.492V119.516C221.584 119.592 221.967 120.045 221.973 120.598C221.967 121.292 221.343 121.786 220.455 121.786ZM220.455 121.322C221.067 121.322 221.443 121.016 221.443 120.569C221.443 120.098 221.026 119.751 220.455 119.751C219.884 119.751 219.461 120.098 219.472 120.569C219.461 121.016 219.843 121.322 220.455 121.322ZM220.455 119.304C220.937 119.304 221.29 119.01 221.29 118.58C221.29 118.157 220.955 117.868 220.455 117.868C219.949 117.868 219.619 118.157 219.619 118.58C219.619 119.01 219.967 119.304 220.455 119.304Z" fill="var(--sol-element-quaternary)"/>
<path d="M233.365 117.468V121.728H232.83V118.021H232.806L231.771 118.71V118.174L232.83 117.468H233.365ZM235.919 117.409C236.654 117.415 237.466 117.856 237.466 119.427C237.466 120.939 236.848 121.786 235.848 121.786C235.101 121.786 234.571 121.327 234.466 120.651H234.989C235.083 121.033 235.371 121.316 235.848 121.316C236.542 121.316 236.966 120.716 236.972 119.68H236.913C236.666 120.033 236.277 120.245 235.824 120.245C235.06 120.245 234.43 119.663 234.43 118.839C234.43 118.045 235.013 117.403 235.919 117.409ZM235.919 117.874C235.36 117.874 234.942 118.309 234.948 118.833C234.948 119.363 235.342 119.78 235.901 119.78C236.454 119.78 236.889 119.321 236.889 118.821C236.889 118.333 236.483 117.874 235.919 117.874Z" fill="var(--sol-element-quaternary)"/>
<path d="M246.956 121.728L246.95 121.339L248.404 119.81C248.91 119.274 249.151 118.986 249.151 118.592C249.151 118.157 248.78 117.868 248.304 117.868C247.798 117.868 247.474 118.192 247.474 118.668H246.974C246.968 117.915 247.551 117.409 248.321 117.409C249.092 117.409 249.645 117.927 249.645 118.592C249.645 119.068 249.421 119.439 248.668 120.216L247.692 121.222V121.257H249.721V121.728H246.956ZM251.886 121.786C250.939 121.786 250.398 120.992 250.398 119.598C250.398 118.215 250.951 117.409 251.886 117.409C252.822 117.409 253.375 118.215 253.375 119.598C253.375 120.992 252.828 121.786 251.886 121.786ZM251.886 121.316C252.498 121.316 252.857 120.698 252.857 119.598C252.857 118.498 252.498 117.868 251.886 117.868C251.275 117.868 250.91 118.498 250.91 119.598C250.91 120.698 251.269 121.316 251.886 121.316Z" fill="var(--sol-element-quaternary)"/>
<path d="M154.485 138.473L154.479 138.084L155.932 136.555C156.438 136.019 156.679 135.731 156.679 135.337C156.679 134.902 156.308 134.613 155.832 134.613C155.326 134.613 155.002 134.937 155.002 135.413H154.502C154.496 134.66 155.079 134.154 155.85 134.154C156.62 134.154 157.173 134.672 157.173 135.337C157.173 135.814 156.95 136.184 156.197 136.961L155.22 137.967V138.002H157.25V138.473H154.485ZM159.526 134.213V138.473H158.991V134.766H158.968L157.932 135.455V134.919L158.991 134.213H159.526Z" fill="var(--sol-element-quaternary)"/>
<path d="M169.529 138.473L169.523 138.084L170.976 136.555C171.482 136.019 171.723 135.731 171.723 135.337C171.723 134.902 171.352 134.613 170.876 134.613C170.37 134.613 170.046 134.937 170.046 135.413H169.546C169.541 134.66 170.123 134.154 170.894 134.154C171.664 134.154 172.217 134.672 172.217 135.337C172.217 135.814 171.994 136.184 171.241 136.961L170.264 137.967V138.002H172.294V138.473H169.529ZM173.064 138.473L173.059 138.084L174.512 136.555C175.018 136.019 175.259 135.731 175.259 135.337C175.259 134.902 174.888 134.613 174.412 134.613C173.906 134.613 173.582 134.937 173.582 135.413H173.082C173.076 134.66 173.659 134.154 174.429 134.154C175.2 134.154 175.753 134.672 175.753 135.337C175.753 135.814 175.529 136.184 174.776 136.961L173.8 137.967V138.002H175.829V138.473H173.064Z" fill="var(--sol-element-quaternary)"/>
<path d="M184.928 138.473L184.922 138.084L186.375 136.555C186.881 136.019 187.122 135.731 187.122 135.337C187.122 134.902 186.752 134.613 186.275 134.613C185.769 134.613 185.445 134.937 185.445 135.413H184.945C184.94 134.66 185.522 134.154 186.293 134.154C187.063 134.154 187.616 134.672 187.616 135.337C187.616 135.814 187.393 136.184 186.64 136.961L185.663 137.967V138.002H187.693V138.473H184.928ZM189.934 138.531C189.087 138.531 188.481 138.078 188.452 137.402H188.987C189.017 137.808 189.422 138.061 189.928 138.061C190.487 138.061 190.899 137.755 190.899 137.314C190.899 136.849 190.528 136.519 189.864 136.519H189.517V136.055H189.864C190.381 136.055 190.74 135.766 190.74 135.325C190.74 134.902 190.428 134.613 189.946 134.613C189.493 134.613 189.075 134.866 189.052 135.284H188.54C188.569 134.607 189.193 134.154 189.952 134.154C190.764 134.154 191.258 134.684 191.252 135.296C191.258 135.778 190.976 136.137 190.528 136.261V136.29C191.081 136.378 191.423 136.772 191.417 137.314C191.423 138.014 190.781 138.531 189.934 138.531Z" fill="var(--sol-element-quaternary)"/>
<path d="M200.443 138.473L200.437 138.084L201.89 136.555C202.396 136.019 202.637 135.731 202.637 135.337C202.637 134.902 202.266 134.613 201.79 134.613C201.284 134.613 200.96 134.937 200.96 135.413H200.46C200.454 134.66 201.037 134.154 201.807 134.154C202.578 134.154 203.131 134.672 203.131 135.337C203.131 135.814 202.908 136.184 202.154 136.961L201.178 137.967V138.002H203.208V138.473H200.443ZM203.784 137.602V137.167L205.702 134.213H206.355V137.137H206.949V137.602H206.355V138.473H205.849V137.602H203.784ZM204.355 137.137H205.849V134.884H205.796L204.355 137.102V137.137Z" fill="var(--sol-element-quaternary)"/>
<path d="M215.972 138.473L215.966 138.084L217.419 136.555C217.925 136.019 218.166 135.731 218.166 135.337C218.166 134.902 217.796 134.613 217.319 134.613C216.813 134.613 216.49 134.937 216.49 135.413H215.99C215.984 134.66 216.566 134.154 217.337 134.154C218.108 134.154 218.661 134.672 218.661 135.337C218.661 135.814 218.437 136.184 217.684 136.961L216.707 137.967V138.002H218.737V138.473H215.972ZM220.896 138.531C220.125 138.531 219.543 138.055 219.514 137.402H220.025C220.067 137.784 220.437 138.067 220.896 138.067C221.449 138.067 221.849 137.661 221.849 137.125C221.849 136.572 221.431 136.167 220.861 136.161C220.502 136.155 220.225 136.267 220.067 136.543H219.555L219.855 134.213H222.161V134.684H220.296L220.137 135.931H220.178C220.367 135.784 220.655 135.684 220.955 135.684C221.767 135.684 222.367 136.284 222.367 137.114C222.367 137.937 221.743 138.531 220.896 138.531Z" fill="var(--sol-element-quaternary)"/>
<path d="M231.412 138.473L231.406 138.084L232.859 136.555C233.365 136.019 233.607 135.731 233.607 135.337C233.607 134.902 233.236 134.613 232.759 134.613C232.253 134.613 231.93 134.937 231.93 135.413H231.43C231.424 134.66 232.006 134.154 232.777 134.154C233.548 134.154 234.101 134.672 234.101 135.337C234.101 135.814 233.877 136.184 233.124 136.961L232.148 137.967V138.002H234.177V138.473H231.412ZM236.43 138.531C235.689 138.52 234.877 138.084 234.877 136.508C234.877 135.002 235.495 134.154 236.495 134.154C237.242 134.154 237.766 134.613 237.878 135.284H237.354C237.254 134.908 236.972 134.625 236.495 134.625C235.795 134.625 235.377 135.225 235.377 136.249H235.43C235.677 135.896 236.066 135.684 236.525 135.684C237.283 135.684 237.913 136.272 237.913 137.096C237.913 137.896 237.325 138.537 236.43 138.531ZM236.43 138.067C236.983 138.067 237.395 137.631 237.401 137.102C237.395 136.578 237.001 136.149 236.442 136.149C235.883 136.149 235.454 136.602 235.448 137.108C235.448 137.608 235.86 138.067 236.43 138.067Z" fill="var(--sol-element-quaternary)"/>
<path d="M247.089 138.473L247.083 138.084L248.536 136.555C249.042 136.019 249.283 135.731 249.283 135.337C249.283 134.902 248.912 134.613 248.436 134.613C247.93 134.613 247.606 134.937 247.606 135.413H247.106C247.1 134.66 247.683 134.154 248.454 134.154C249.224 134.154 249.777 134.672 249.777 135.337C249.777 135.814 249.554 136.184 248.801 136.961L247.824 137.967V138.002H249.854V138.473H247.089ZM250.76 138.473L252.713 134.713V134.684H250.46V134.213H253.26V134.708L251.313 138.473H250.76Z" fill="var(--sol-element-quaternary)"/>
<path d="M153.979 155.219L153.973 154.83L155.426 153.301C155.932 152.766 156.173 152.477 156.173 152.083C156.173 151.648 155.802 151.359 155.326 151.359C154.82 151.359 154.496 151.683 154.496 152.16H153.996C153.99 151.407 154.573 150.901 155.344 150.901C156.114 150.901 156.667 151.418 156.667 152.083C156.667 152.56 156.444 152.93 155.691 153.707L154.714 154.713V154.748H156.744V155.219H153.979ZM158.938 155.278C158.044 155.278 157.42 154.783 157.426 154.089C157.42 153.536 157.803 153.083 158.291 153.007V152.983C157.867 152.883 157.591 152.495 157.591 152.03C157.591 151.377 158.162 150.901 158.938 150.901C159.715 150.901 160.285 151.377 160.291 152.03C160.285 152.495 160.003 152.883 159.585 152.983V153.007C160.068 153.083 160.45 153.536 160.456 154.089C160.45 154.783 159.826 155.278 158.938 155.278ZM158.938 154.813C159.55 154.813 159.926 154.507 159.926 154.06C159.926 153.589 159.509 153.242 158.938 153.242C158.367 153.242 157.944 153.589 157.956 154.06C157.944 154.507 158.326 154.813 158.938 154.813ZM158.938 152.795C159.421 152.795 159.773 152.501 159.773 152.071C159.773 151.648 159.438 151.359 158.938 151.359C158.432 151.359 158.103 151.648 158.103 152.071C158.103 152.501 158.45 152.795 158.938 152.795Z" fill="var(--sol-element-quaternary)"/>
<path d="M169.449 155.219L169.443 154.83L170.897 153.301C171.402 152.766 171.644 152.477 171.644 152.083C171.644 151.648 171.273 151.359 170.797 151.359C170.291 151.359 169.967 151.683 169.967 152.16H169.467C169.461 151.407 170.044 150.901 170.814 150.901C171.585 150.901 172.138 151.418 172.138 152.083C172.138 152.56 171.914 152.93 171.161 153.707L170.185 154.713V154.748H172.214V155.219H169.449ZM174.403 150.901C175.138 150.906 175.95 151.348 175.95 152.918C175.95 154.43 175.332 155.278 174.332 155.278C173.585 155.278 173.056 154.819 172.95 154.142H173.473C173.567 154.525 173.856 154.807 174.332 154.807C175.026 154.807 175.45 154.207 175.456 153.171H175.397C175.15 153.524 174.762 153.736 174.309 153.736C173.544 153.736 172.914 153.154 172.914 152.33C172.914 151.536 173.497 150.895 174.403 150.901ZM174.403 151.365C173.844 151.365 173.426 151.801 173.432 152.324C173.432 152.854 173.826 153.271 174.385 153.271C174.938 153.271 175.374 152.813 175.374 152.313C175.374 151.824 174.968 151.365 174.403 151.365Z" fill="var(--sol-element-quaternary)"/>
<path d="M186.372 155.278C185.525 155.278 184.919 154.825 184.89 154.148H185.425C185.454 154.554 185.86 154.807 186.366 154.807C186.925 154.807 187.337 154.501 187.337 154.06C187.337 153.595 186.966 153.266 186.301 153.266H185.954V152.801H186.301C186.819 152.801 187.178 152.513 187.178 152.071C187.178 151.648 186.866 151.359 186.384 151.359C185.931 151.359 185.513 151.612 185.49 152.03H184.978C185.007 151.354 185.631 150.901 186.39 150.901C187.202 150.901 187.696 151.43 187.69 152.042C187.696 152.524 187.413 152.883 186.966 153.007V153.036C187.519 153.124 187.86 153.519 187.855 154.06C187.86 154.76 187.219 155.278 186.372 155.278ZM190.014 155.278C189.067 155.278 188.525 154.483 188.525 153.089C188.525 151.707 189.078 150.901 190.014 150.901C190.949 150.901 191.502 151.707 191.502 153.089C191.502 154.483 190.955 155.278 190.014 155.278ZM190.014 154.807C190.626 154.807 190.984 154.189 190.984 153.089C190.984 151.989 190.626 151.359 190.014 151.359C189.402 151.359 189.037 151.989 189.037 153.089C189.037 154.189 189.396 154.807 190.014 154.807Z" fill="var(--sol-element-quaternary)"/>
<path d="M202.337 155.278C201.49 155.278 200.884 154.825 200.854 154.148H201.39C201.419 154.554 201.825 154.807 202.331 154.807C202.89 154.807 203.302 154.501 203.302 154.06C203.302 153.595 202.931 153.266 202.266 153.266H201.919V152.801H202.266C202.784 152.801 203.143 152.513 203.143 152.071C203.143 151.648 202.831 151.359 202.349 151.359C201.896 151.359 201.478 151.612 201.454 152.03H200.943C200.972 151.354 201.596 150.901 202.355 150.901C203.166 150.901 203.661 151.43 203.655 152.042C203.661 152.524 203.378 152.883 202.931 153.007V153.036C203.484 153.124 203.825 153.519 203.819 154.06C203.825 154.76 203.184 155.278 202.337 155.278ZM206.09 150.959V155.219H205.555V151.512H205.531L204.496 152.201V151.665L205.555 150.959H206.09Z" fill="var(--sol-element-quaternary)"/>
</g>
<g clip-path="url(#clip34_1254_318732)">
<path d="M25 169.621C25 169.503 25.0963 169.406 25.2151 169.406L262.312 169.406C262.431 169.406 262.527 169.503 262.527 169.621C262.527 169.74 262.431 169.837 262.312 169.837L25.2152 169.837C25.0963 169.837 25 169.74 25 169.621Z" fill="var(--sol-border-normal-variant)"/>
<path d="M34.5391 182.943V182.369H34.9694V182.943C34.9694 183.141 35.1299 183.302 35.328 183.302H35.9017V183.732H35.328C34.8923 183.732 34.5391 183.379 34.5391 182.943ZM37.6229 183.302V183.732H36.4754V183.302H37.6229ZM39.129 182.943V182.369H39.5593V182.943C39.5593 183.379 39.2061 183.732 38.7704 183.732H38.1966V183.302H38.7704C38.9684 183.302 39.129 183.141 39.129 182.943ZM34.9694 180.648V181.796H34.5391V180.648H34.9694ZM39.5593 180.648V181.796H39.129V180.648H39.5593ZM34.5391 179.501C34.5391 179.065 34.8923 178.712 35.328 178.712H35.9017V179.142H35.328C35.1299 179.142 34.9694 179.303 34.9694 179.501V180.075H34.5391V179.501ZM39.129 179.501C39.129 179.303 38.9684 179.142 38.7704 179.142H38.1966V178.712H38.7704C39.2061 178.712 39.5593 179.065 39.5593 179.501V180.075H39.129V179.501ZM37.6229 178.712V179.142H36.4754V178.712H37.6229Z" fill="var(--sol-element-quaternary)"/>
<path d="M46.6105 179.898C46.5223 179.386 46.1105 179.092 45.5928 179.092C44.8927 179.092 44.4044 179.627 44.4044 180.592C44.4044 181.569 44.8986 182.092 45.5928 182.092C46.0987 182.092 46.5105 181.81 46.6105 181.31H47.3812C47.2636 182.127 46.5929 182.781 45.581 182.781C44.4573 182.781 43.6337 181.963 43.6337 180.592C43.6337 179.215 44.4691 178.404 45.581 178.404C46.5223 178.404 47.2518 178.951 47.3812 179.898H46.6105ZM48.7578 178.462V182.722H48.0048V178.462H48.7578ZM50.8934 182.786C49.9286 182.786 49.3403 182.145 49.3403 181.145C49.3403 180.157 49.9403 179.486 50.8522 179.486C51.6347 179.486 52.3112 179.974 52.3112 181.098V181.333H50.0815C50.0904 181.877 50.411 182.198 50.8993 182.198C51.2287 182.198 51.4523 182.057 51.5464 181.869H52.2818C52.1465 182.422 51.6347 182.786 50.8934 182.786ZM50.0874 180.821H51.5935C51.5876 180.386 51.2993 180.068 50.864 180.068C50.411 180.068 50.1109 180.413 50.0874 180.821ZM52.7466 181.822C52.7466 181.104 53.3407 180.892 53.9349 180.857C54.1555 180.842 54.6144 180.816 54.7527 180.81V180.557C54.7527 180.239 54.5468 180.057 54.1761 180.057C53.8408 180.057 53.6349 180.21 53.5761 180.439H52.8524C52.9054 179.898 53.3937 179.486 54.1938 179.486C54.7997 179.486 55.4998 179.733 55.4998 180.586V182.722H54.7821V182.28H54.7586C54.6174 182.551 54.3173 182.786 53.8173 182.786C53.2054 182.786 52.7466 182.451 52.7466 181.822ZM53.4702 181.816C53.4702 182.092 53.6937 182.233 54.0114 182.233C54.4644 182.233 54.7586 181.933 54.7586 181.574V181.31L54.0526 181.357C53.6937 181.386 53.4702 181.533 53.4702 181.816ZM56.2058 182.722V179.527H56.9353V180.057H56.9706C57.0824 179.692 57.3942 179.48 57.7589 179.48C57.8413 179.48 57.9589 179.486 58.0295 179.498V180.192C57.9648 180.168 57.806 180.145 57.6824 180.145C57.2647 180.145 56.9588 180.433 56.9588 180.839V182.722H56.2058ZM59.7592 181.822C59.7592 181.104 60.3533 180.892 60.9475 180.857C61.1681 180.842 61.627 180.816 61.7653 180.81V180.557C61.7653 180.239 61.5594 180.057 61.1887 180.057C60.8534 180.057 60.6475 180.21 60.5887 180.439H59.865C59.918 179.898 60.4063 179.486 61.2064 179.486C61.8123 179.486 62.5124 179.733 62.5124 180.586V182.722H61.7947V182.28H61.7712C61.63 182.551 61.3299 182.786 60.8299 182.786C60.218 182.786 59.7592 182.451 59.7592 181.822ZM60.4828 181.816C60.4828 182.092 60.7063 182.233 61.024 182.233C61.477 182.233 61.7712 181.933 61.7712 181.574V181.31L61.0652 181.357C60.7063 181.386 60.4828 181.533 60.4828 181.816ZM63.9714 178.462V182.722H63.2184V178.462H63.9714ZM65.4422 178.462V182.722H64.6891V178.462H65.4422Z" fill="var(--sol-element-quaternary)"/>
<path d="M210.906 179.898C210.818 179.386 210.406 179.092 209.888 179.092C209.188 179.092 208.7 179.627 208.7 180.592C208.7 181.569 209.194 182.092 209.888 182.092C210.394 182.092 210.806 181.81 210.906 181.31H211.677C211.559 182.127 210.888 182.781 209.876 182.781C208.753 182.781 207.929 181.963 207.929 180.592C207.929 179.215 208.764 178.404 209.876 178.404C210.818 178.404 211.547 178.951 211.677 179.898H210.906ZM212.153 181.822C212.153 181.104 212.747 180.892 213.341 180.857C213.562 180.842 214.021 180.816 214.159 180.81V180.557C214.159 180.239 213.953 180.057 213.583 180.057C213.247 180.057 213.041 180.21 212.983 180.439H212.259C212.312 179.898 212.8 179.486 213.6 179.486C214.206 179.486 214.906 179.733 214.906 180.586V182.722H214.189V182.28H214.165C214.024 182.551 213.724 182.786 213.224 182.786C212.612 182.786 212.153 182.451 212.153 181.822ZM212.877 181.816C212.877 182.092 213.1 182.233 213.418 182.233C213.871 182.233 214.165 181.933 214.165 181.574V181.31L213.459 181.357C213.1 181.386 212.877 181.533 212.877 181.816ZM216.365 180.851V182.722H215.612V179.527H216.33V180.068H216.371C216.518 179.71 216.842 179.486 217.318 179.486C217.983 179.486 218.419 179.921 218.413 180.686V182.722H217.665V180.804C217.665 180.374 217.436 180.121 217.042 180.121C216.642 180.121 216.365 180.386 216.365 180.851ZM220.525 182.786C219.572 182.786 218.995 182.104 218.995 181.139C218.995 180.163 219.589 179.486 220.525 179.486C221.301 179.486 221.842 179.939 221.895 180.627H221.178C221.119 180.321 220.895 180.086 220.531 180.086C220.066 180.086 219.754 180.48 219.754 181.121C219.754 181.78 220.06 182.175 220.531 182.175C220.866 182.175 221.113 181.98 221.178 181.633H221.895C221.837 182.31 221.325 182.786 220.525 182.786ZM223.878 182.786C222.913 182.786 222.325 182.145 222.325 181.145C222.325 180.157 222.925 179.486 223.837 179.486C224.619 179.486 225.296 179.974 225.296 181.098V181.333H223.066C223.075 181.877 223.396 182.198 223.884 182.198C224.213 182.198 224.437 182.057 224.531 181.869H225.266C225.131 182.422 224.619 182.786 223.878 182.786ZM223.072 180.821H224.578C224.572 180.386 224.284 180.068 223.849 180.068C223.396 180.068 223.096 180.413 223.072 180.821ZM226.631 178.462V182.722H225.878V178.462H226.631Z" fill="var(--sol-element-quaternary)"/>
<path d="M238.855 179.633C238.82 179.268 238.508 179.057 238.049 179.057C237.567 179.057 237.273 179.292 237.273 179.61C237.273 179.968 237.649 180.115 238.002 180.198L238.402 180.304C239.038 180.451 239.65 180.786 239.65 181.527C239.65 182.275 239.061 182.786 238.038 182.786C237.043 182.786 236.42 182.31 236.385 181.469H237.138C237.173 181.916 237.549 182.133 238.032 182.133C238.538 182.133 238.885 181.886 238.885 181.522C238.885 181.186 238.573 181.045 238.114 180.927L237.632 180.804C236.932 180.621 236.496 180.268 236.496 179.657C236.496 178.904 237.167 178.404 238.061 178.404C238.967 178.404 239.579 178.915 239.591 179.633H238.855ZM241.668 182.786C240.703 182.786 240.114 182.145 240.114 181.145C240.114 180.157 240.715 179.486 241.626 179.486C242.409 179.486 243.085 179.974 243.085 181.098V181.333H240.856C240.865 181.877 241.185 182.198 241.673 182.198C242.003 182.198 242.226 182.057 242.321 181.869H243.056C242.921 182.422 242.409 182.786 241.668 182.786ZM240.862 180.821H242.368C242.362 180.386 242.074 180.068 241.638 180.068C241.185 180.068 240.885 180.413 240.862 180.821ZM244.421 178.462V182.722H243.668V178.462H244.421ZM246.556 182.786C245.592 182.786 245.003 182.145 245.003 181.145C245.003 180.157 245.603 179.486 246.515 179.486C247.298 179.486 247.974 179.974 247.974 181.098V181.333H245.745C245.753 181.877 246.074 182.198 246.562 182.198C246.892 182.198 247.115 182.057 247.209 181.869H247.945C247.809 182.422 247.298 182.786 246.556 182.786ZM245.75 180.821H247.256C247.251 180.386 246.962 180.068 246.527 180.068C246.074 180.068 245.774 180.413 245.75 180.821ZM249.951 182.786C248.998 182.786 248.421 182.104 248.421 181.139C248.421 180.163 249.016 179.486 249.951 179.486C250.727 179.486 251.269 179.939 251.322 180.627H250.604C250.545 180.321 250.322 180.086 249.957 180.086C249.492 180.086 249.18 180.48 249.18 181.121C249.18 181.78 249.486 182.175 249.957 182.175C250.292 182.175 250.539 181.98 250.604 181.633H251.322C251.263 182.31 250.751 182.786 249.951 182.786ZM253.481 179.527V180.104H252.851V181.763C252.851 182.069 253.004 182.133 253.192 182.133C253.281 182.133 253.428 182.127 253.522 182.122V182.733C253.434 182.751 253.287 182.763 253.098 182.763C252.534 182.763 252.098 182.486 252.104 181.886V180.104H251.645V179.527H252.104V178.762H252.851V179.527H253.481Z" fill="var(--sol-fill-active)"/>
</g>
</g>
<path d="M26.7217 44.2148H260.806C261.637 44.2148 262.312 44.8899 262.312 45.7217V190.885C262.312 191.717 261.637 192.391 260.806 192.391H26.7217C25.8899 192.391 25.2148 191.717 25.2148 190.885V45.7217C25.2148 44.8899 25.8899 44.2148 26.7217 44.2148Z" stroke="var(--sol-border-solid-variant)" stroke-width="0.430303"/>
</g>
<rect y="142" width="302" height="52" fill="url(#paint0_linear_1254_318732)"/>
</g>
<defs>
<filter id="filter0_dd_1254_318732" x="22.4182" y="42.2788" width="242.691" height="153.77" filterUnits="userSpaceOnUse" color-interpolation-filters="sRGB">
<feFlood flood-opacity="0" result="BackgroundImageFix"/>
<feColorMatrix in="SourceAlpha" type="matrix" values="0 0 0 0 0 0 0 0 0 0 0 0 0 0 0 0 0 0 127 0" result="hardAlpha"/>
<feOffset dy="0.860606"/>
<feGaussianBlur stdDeviation="1.29091"/>
<feComposite in2="hardAlpha" operator="out"/>
<feColorMatrix type="matrix" values="0 0 0 0 0 0 0 0 0 0 0 0 0 0 0 0 0 0 0.08 0"/>
<feBlend mode="normal" in2="BackgroundImageFix" result="effect1_dropShadow_1254_318732"/>
<feColorMatrix in="SourceAlpha" type="matrix" values="0 0 0 0 0 0 0 0 0 0 0 0 0 0 0 0 0 0 127 0" result="hardAlpha"/>
<feOffset/>
<feGaussianBlur stdDeviation="0.215152"/>
<feComposite in2="hardAlpha" operator="out"/>
<feColorMatrix type="matrix" values="0 0 0 0 0 0 0 0 0 0 0 0 0 0 0 0 0 0 0.04 0"/>
<feBlend mode="normal" in2="effect1_dropShadow_1254_318732" result="effect2_dropShadow_1254_318732"/>
<feBlend mode="normal" in="SourceGraphic" in2="effect2_dropShadow_1254_318732" result="shape"/>
</filter>
<linearGradient id="paint0_linear_1254_318732" x1="259.531" y1="194" x2="259.531" y2="142" gradientUnits="userSpaceOnUse">
<stop stop-opacity="0.04"/>
<stop offset="1" stop-color="var(--sol-surface)" stop-opacity="0"/>
</linearGradient>
<clipPath id="clip0_1254_318732">
<rect width="288" height="192" fill="var(--sol-surface)"/>
</clipPath>
<clipPath id="clip1_1254_318732">
<path d="M25 45.7212C25 44.7706 25.7706 44 26.7212 44H260.806C261.757 44 262.527 44.7706 262.527 45.7212V190.885C262.527 191.835 261.757 192.606 260.806 192.606H26.7212C25.7706 192.606 25 191.835 25 190.885V45.7212Z" fill="var(--sol-surface)"/>
</clipPath>
<clipPath id="clip2_1254_318732">
<rect width="15.4909" height="15.8848" fill="var(--sol-surface)" transform="translate(92.1279 78.7939)"/>
</clipPath>
<clipPath id="clip3_1254_318732">
<rect width="15.4909" height="15.8848" fill="var(--sol-surface)" transform="translate(123.109 78.7939)"/>
</clipPath>
<clipPath id="clip4_1254_318732">
<rect width="15.4909" height="15.8848" fill="var(--sol-surface)" transform="translate(30.1641 95.54)"/>
</clipPath>
<clipPath id="clip5_1254_318732">
<rect width="15.4909" height="15.8848" fill="var(--sol-surface)" transform="translate(92.1279 95.54)"/>
</clipPath>
<clipPath id="clip6_1254_318732">
<rect width="15.4909" height="15.8848" fill="var(--sol-surface)" transform="translate(123.109 95.54)"/>
</clipPath>
<clipPath id="clip7_1254_318732">
<path d="M123.97 98.1216C123.97 97.171 124.74 96.4004 125.691 96.4004H137.739V110.564H125.691C124.74 110.564 123.97 109.793 123.97 108.843V98.1216Z" fill="var(--sol-surface)"/>
</clipPath>
<clipPath id="clip8_1254_318732">
<rect width="15.4909" height="15.8848" fill="var(--sol-surface)" transform="translate(30.1641 112.285)"/>
</clipPath>
<clipPath id="clip9_1254_318732">
<rect width="15.4909" height="15.8848" fill="var(--sol-surface)" transform="translate(45.6553 112.285)"/>
</clipPath>
<clipPath id="clip10_1254_318732">
<rect width="15.4909" height="15.8848" fill="var(--sol-surface)" transform="translate(61.1455 112.285)"/>
</clipPath>
<clipPath id="clip11_1254_318732">
<rect width="15.4909" height="15.8848" fill="var(--sol-surface)" transform="translate(76.6367 112.285)"/>
</clipPath>
<clipPath id="clip12_1254_318732">
<rect width="15.4909" height="15.8848" fill="var(--sol-surface)" transform="translate(92.1279 112.285)"/>
</clipPath>
<clipPath id="clip13_1254_318732">
<rect width="15.4909" height="15.8848" fill="var(--sol-surface)" transform="translate(107.618 112.285)"/>
</clipPath>
<clipPath id="clip14_1254_318732">
<rect width="15.4909" height="15.8848" fill="var(--sol-surface)" transform="translate(123.109 112.285)"/>
</clipPath>
<clipPath id="clip15_1254_318732">
<rect width="15.4909" height="15.8848" fill="var(--sol-surface)" transform="translate(30.1641 129.03)"/>
</clipPath>
<clipPath id="clip16_1254_318732">
<rect width="15.4909" height="15.8848" fill="var(--sol-surface)" transform="translate(45.6553 129.03)"/>
</clipPath>
<clipPath id="clip17_1254_318732">
<rect width="15.4909" height="15.8848" fill="var(--sol-surface)" transform="translate(61.1455 129.03)"/>
</clipPath>
<clipPath id="clip18_1254_318732">
<rect width="15.4909" height="15.8848" fill="var(--sol-surface)" transform="translate(76.6367 129.03)"/>
</clipPath>
<clipPath id="clip19_1254_318732">
<rect width="15.4909" height="15.8848" fill="var(--sol-surface)" transform="translate(92.1279 129.03)"/>
</clipPath>
<clipPath id="clip20_1254_318732">
<rect width="15.4909" height="15.8848" fill="var(--sol-surface)" transform="translate(107.618 129.03)"/>
</clipPath>
<clipPath id="clip21_1254_318732">
<rect width="15.4909" height="15.8848" fill="var(--sol-surface)" transform="translate(123.109 129.03)"/>
</clipPath>
<clipPath id="clip22_1254_318732">
<rect width="15.4909" height="15.8848" fill="var(--sol-surface)" transform="translate(30.1641 145.776)"/>
</clipPath>
<clipPath id="clip23_1254_318732">
<rect width="15.4909" height="15.8848" fill="var(--sol-surface)" transform="translate(45.6553 145.776)"/>
</clipPath>
<clipPath id="clip24_1254_318732">
<rect width="15.4909" height="15.8848" fill="var(--sol-surface)" transform="translate(61.1455 145.776)"/>
</clipPath>
<clipPath id="clip25_1254_318732">
<rect width="15.4909" height="15.8848" fill="var(--sol-surface)" transform="translate(76.6367 145.776)"/>
</clipPath>
<clipPath id="clip26_1254_318732">
<rect width="15.4909" height="15.8848" fill="var(--sol-surface)" transform="translate(92.1279 145.776)"/>
</clipPath>
<clipPath id="clip27_1254_318732">
<rect width="15.4909" height="15.8848" fill="var(--sol-surface)" transform="translate(107.618 145.776)"/>
</clipPath>
<clipPath id="clip28_1254_318732">
<rect width="15.4909" height="15.8848" fill="var(--sol-surface)" transform="translate(123.109 145.776)"/>
</clipPath>
<clipPath id="clip29_1254_318732">
<rect width="118.764" height="111.636" fill="var(--sol-surface)" transform="translate(144.264 50.8848)"/>
</clipPath>
<clipPath id="clip30_1254_318732">
<rect width="15.4909" height="15.8848" fill="var(--sol-surface)" transform="translate(164.919 78.7939)"/>
</clipPath>
<clipPath id="clip31_1254_318732">
<path d="M165.779 79.6543H177.828C178.778 79.6543 179.549 80.4249 179.549 81.3755V92.0967C179.549 93.0473 178.778 93.8179 177.828 93.8179H165.779V79.6543Z" fill="var(--sol-surface)"/>
</clipPath>
<clipPath id="clip32_1254_318732">
<rect width="15.4909" height="15.8848" fill="var(--sol-surface)" transform="translate(180.409 78.7939)"/>
</clipPath>
<clipPath id="clip33_1254_318732">
<path d="M181.27 81.3755C181.27 80.4249 182.04 79.6543 182.991 79.6543H193.318C194.269 79.6543 195.039 80.4249 195.039 81.3755V92.0967C195.039 93.0473 194.269 93.8179 193.318 93.8179H182.991C182.04 93.8179 181.27 93.0473 181.27 92.0967V81.3755Z" fill="var(--sol-surface)"/>
</clipPath>
<clipPath id="clip34_1254_318732">
<rect width="237.527" height="23.2" fill="var(--sol-surface)" transform="translate(25 169.406)"/>
</clipPath>
</defs>
</svg>
