<svg width="288" height="192" viewBox="0 0 288 192" fill="none" xmlns="http://www.w3.org/2000/svg">
<style>
:root {
  --sol-primary: #282363;
  --sol-element-brand-variant: #3a3480;
  --sol-fill-active: #4d469a;
  --sol-selected-container-variant: #f5f4fd;
  --sol-surface: #ffffff;
  --sol-surface-base-variant: #f5f5f5;
  --sol-secondary-container: #e8e6f8;
  --sol-element-primary: #161616;
  --sol-element-secondary: #484848;
  --sol-element-tertiary: #636363;
  --sol-element-quaternary: #858585;
  --sol-border-brand: #7b74c4;
  --sol-border-normal-variant: rgba(0, 0, 0, 0.08);
  --sol-border-solid-variant: #e0e0e0;
  --sol-border-solid: #d0d0d0;
  --sol-error: #e76067;
  --sol-error-container: #fdeaeb;
  --sol-static-white: #ffffff;
  --sol-static-black: #000000;
  --color-brand-400: #6058b4;
  --color-teal-500: #05a09a;
  --color-green-500: #35a142;
  --color-yellow-500: #d4ae00;
  --color-orange-500: #e06418;
  --color-blue-500: #3e9bca;
  --color-indigo-500: #3d5ed6;
  --color-pink-500: #d03e94;
}
@media (prefers-color-scheme: dark) {
  :root {
    --sol-primary: #9791d4;
    --sol-element-brand-variant: #ffffff;
    --sol-fill-active: #7b74c4;
    --sol-selected-container-variant: rgba(0, 0, 0, 0.08);
    --sol-surface: #161616;
    --sol-surface-base-variant: #1c1c1c;
    --sol-secondary-container: rgba(255, 255, 255, 0.16);
    --sol-element-primary: #ffffff;
    --sol-element-secondary: rgba(255, 255, 255, 0.8);
    --sol-element-tertiary: rgba(255, 255, 255, 0.6);
    --sol-element-quaternary: rgba(255, 255, 255, 0.5);
    --sol-border-brand: #7b74c4;
    --sol-border-normal-variant: rgba(255, 255, 255, 0.08);
    --sol-border-solid-variant: #3d3d3d;
    --sol-border-solid: #333333;
    --sol-error: #ee7a80;
    --sol-error-container: rgba(231, 96, 103, 0.24);
    --sol-static-white: #ffffff;
    --sol-static-black: #000000;
  }
}
</style>
<g clip-path="url(#clip0_1254_318526)">
<g filter="url(#filter0_dd_1254_318526)">
<g clip-path="url(#clip1_1254_318526)">
<path d="M41 46.9845C41 45.3362 42.3362 44 43.9845 44H243.943C245.591 44 246.927 45.3362 246.927 46.9845V305.238C246.927 306.887 245.591 308.223 243.943 308.223H43.9845C42.3362 308.223 41 306.887 41 305.238V46.9845Z" fill="var(--sol-surface)"/>
<g clip-path="url(#clip2_1254_318526)">
<mask id="path-3-inside-1_1254_318526" fill="var(--sol-static-white)">
<path d="M41 44H246.927V75.4145H41V44Z"/>
</mask>
<path d="M246.927 75.4145V74.6684H41V75.4145V76.1606H246.927V75.4145Z" fill="var(--sol-border-normal-variant)" mask="url(#path-3-inside-1_1254_318526)"/>
<mask id="mask0_1254_318526" style="mask-type:alpha" maskUnits="userSpaceOnUse" x="52" y="52" width="16" height="16">
<path d="M62.5939 57.052L59.1931 60.4529L62.5939 63.8537L61.9345 64.5131L58.204 60.7826C58.0219 60.6004 58.0219 60.3053 58.204 60.1231L61.9345 56.3926L62.5939 57.052Z" fill="var(--sol-element-primary)"/>
</mask>
<g mask="url(#mask0_1254_318526)">
<rect x="52.9375" y="52.9922" width="14.9223" height="14.9223" fill="var(--sol-element-quaternary)"/>
</g>
<path d="M117.391 56.5678H118.319V61.8416C118.319 63.2595 117.483 64.0551 116.197 64.0551C114.973 64.0551 114.086 63.3513 114.086 62.2088H114.994C114.994 62.831 115.504 63.2391 116.197 63.2391C116.962 63.2391 117.391 62.7596 117.391 61.8416V56.5678ZM119.574 62.3822C119.574 61.1071 120.696 60.8215 121.655 60.7501C122.007 60.7246 122.904 60.6787 123.154 60.6685V60.2196C123.154 59.5158 122.736 59.1078 121.899 59.1078C121.196 59.1078 120.777 59.4342 120.655 59.8524H119.737C119.849 58.9649 120.716 58.3427 121.94 58.3427C122.665 58.3427 124.021 58.5569 124.021 60.3012V63.9531H123.154V63.1983H123.113C122.93 63.5757 122.42 64.0857 121.461 64.0857C120.41 64.0857 119.574 63.4635 119.574 62.3822ZM120.451 62.423C120.451 63.0045 120.941 63.3003 121.614 63.3003C122.603 63.3003 123.154 62.6372 123.154 61.9436V61.3825L121.757 61.4845C120.961 61.5355 120.451 61.8212 120.451 62.423ZM126.306 60.6277V63.9531H125.429V58.4141H126.276V59.2812H126.347C126.612 58.7201 127.122 58.3427 127.969 58.3427C129.091 58.3427 129.836 59.0261 129.836 60.4339V63.9531H128.958V60.4951C128.958 59.6382 128.489 59.1282 127.704 59.1282C126.898 59.1282 126.306 59.6688 126.306 60.6277ZM132.396 63.2697L131.6 66.0443H130.846L131.407 63.2697H132.396ZM136.538 63.9531L136.527 63.2799L139.047 60.6277C139.924 59.6994 140.342 59.1996 140.342 58.5161C140.342 57.7613 139.7 57.2614 138.874 57.2614C137.996 57.2614 137.435 57.8225 137.435 58.6487H136.568C136.558 57.343 137.568 56.4658 138.904 56.4658C140.24 56.4658 141.199 57.3634 141.199 58.5161C141.199 59.3424 140.812 59.985 139.506 61.3315L137.813 63.0759V63.1371H141.332V63.9531H136.538ZM145.086 64.0551C143.443 64.0551 142.505 62.678 142.505 60.2604C142.505 57.8633 143.464 56.4658 145.086 56.4658C146.708 56.4658 147.667 57.8633 147.667 60.2604C147.667 62.678 146.718 64.0551 145.086 64.0551ZM145.086 63.2391C146.147 63.2391 146.769 62.168 146.769 60.2604C146.769 58.3529 146.147 57.2614 145.086 57.2614C144.025 57.2614 143.392 58.3529 143.392 60.2604C143.392 62.168 144.015 63.2391 145.086 63.2391ZM148.891 63.9531L148.881 63.2799L151.4 60.6277C152.277 59.6994 152.696 59.1996 152.696 58.5161C152.696 57.7613 152.053 57.2614 151.227 57.2614C150.349 57.2614 149.788 57.8225 149.788 58.6487H148.921C148.911 57.343 149.921 56.4658 151.257 56.4658C152.594 56.4658 153.552 57.3634 153.552 58.5161C153.552 59.3424 153.165 59.985 151.859 61.3315L150.166 63.0759V63.1371H153.685V63.9531H148.891ZM157.592 64.0551C156.307 64.0347 154.899 63.2799 154.899 60.5461C154.899 57.9347 155.97 56.4658 157.704 56.4658C159 56.4658 159.908 57.2614 160.101 58.4243H159.193C159.02 57.7715 158.53 57.2818 157.704 57.2818C156.49 57.2818 155.766 58.3223 155.766 60.0972H155.858C156.286 59.4852 156.96 59.118 157.755 59.118C159.071 59.118 160.163 60.138 160.163 61.5661C160.163 62.9534 159.142 64.0653 157.592 64.0551ZM157.592 63.2493C158.551 63.2493 159.265 62.4944 159.275 61.5763C159.265 60.6685 158.581 59.9238 157.612 59.9238C156.643 59.9238 155.899 60.7093 155.888 61.5865C155.888 62.4536 156.602 63.2493 157.592 63.2493Z" fill="var(--sol-element-primary)"/>
<mask id="mask1_1254_318526" style="mask-type:alpha" maskUnits="userSpaceOnUse" x="163" y="55" width="12" height="11">
<path d="M171.799 59.3786L169.187 61.99C169.06 62.1175 168.853 62.1175 168.726 61.99L166.114 59.3786L166.576 58.917L168.956 61.2976L171.337 58.917L171.799 59.3786Z" fill="var(--sol-element-primary)"/>
</mask>
<g mask="url(#mask1_1254_318526)">
<rect x="163.733" y="55.2305" width="10.4456" height="10.4456" fill="var(--sol-element-primary)"/>
</g>
<mask id="mask2_1254_318526" style="mask-type:alpha" maskUnits="userSpaceOnUse" x="220" y="52" width="15" height="16">
<path d="M229.724 60.1231C229.906 60.3053 229.906 60.6004 229.724 60.7826L225.993 64.5131L225.334 63.8537L228.735 60.4529L225.334 57.052L225.993 56.3926L229.724 60.1231Z" fill="var(--sol-element-primary)"/>
</mask>
<g mask="url(#mask2_1254_318526)">
<rect x="220.067" y="52.9922" width="14.9223" height="14.9223" fill="var(--sol-element-quaternary)"/>
</g>
<path d="M60.1452 88.0231C60.081 87.4541 59.5601 87.1254 58.8628 87.1254C58.0933 87.1254 57.5884 87.5262 57.5884 88.0792C57.5884 88.6883 58.2697 88.9128 58.7105 89.025L59.2876 89.1853C59.9127 89.3456 60.9306 89.7062 60.9306 90.7883C60.9306 91.734 60.1692 92.4714 58.8227 92.4714C57.5724 92.4714 56.7949 91.8222 56.7308 90.8604H57.4682C57.5323 91.5096 58.1334 91.8142 58.8227 91.8142C59.6242 91.8142 60.2253 91.4054 60.2253 90.7722C60.2253 90.2112 59.6883 89.9948 59.0792 89.8185L58.3659 89.6261C57.4522 89.3616 56.8911 88.8967 56.8911 88.1113C56.8911 87.1335 57.7647 86.4843 58.8868 86.4843C60.0089 86.4843 60.8184 87.1415 60.8505 88.0231H60.1452ZM64.6255 90.5799V88.0151H65.3068V92.3672H64.6255V91.6298H64.5774C64.369 92.0706 63.9442 92.4233 63.287 92.4233C62.4615 92.4233 61.8764 91.8863 61.8764 90.7802V88.0151H62.5657V90.7321C62.5657 91.3573 62.9584 91.7581 63.5114 91.7581C64.0003 91.7581 64.6255 91.3894 64.6255 90.5799ZM67.1021 89.7543V92.3672H66.4128V88.0151H67.078V88.6964H67.1341C67.3425 88.2555 67.7433 87.959 68.4085 87.959C69.2902 87.959 69.8752 88.496 69.8752 89.602V92.3672H69.186V89.6501C69.186 88.9769 68.8173 88.5761 68.2001 88.5761C67.567 88.5761 67.1021 89.0009 67.1021 89.7543Z" fill="var(--sol-error)"/>
<path d="M82.7736 86.5644H83.6393L85.5949 91.3413H85.667L87.6227 86.5644H88.4883V92.3672H87.807V87.983H87.7509L85.9475 92.3672H85.3064L83.503 87.983H83.4549V92.3672H82.7736V86.5644ZM91.4618 92.4554C90.2756 92.4554 89.4741 91.5657 89.4741 90.2112C89.4741 88.8567 90.2756 87.959 91.4618 87.959C92.64 87.959 93.4335 88.8567 93.4335 90.2112C93.4335 91.5657 92.64 92.4554 91.4618 92.4554ZM91.4618 91.8462C92.3354 91.8462 92.7442 91.0768 92.7442 90.2112C92.7442 89.3456 92.3354 88.5681 91.4618 88.5681C90.5721 88.5681 90.1634 89.3456 90.1634 90.2112C90.1634 91.0768 90.5721 91.8462 91.4618 91.8462ZM95.0284 89.7543V92.3672H94.3391V88.0151H95.0044V88.6964H95.0605C95.2689 88.2555 95.6696 87.959 96.3348 87.959C97.2165 87.959 97.8016 88.496 97.8016 89.602V92.3672H97.1123V89.6501C97.1123 88.9769 96.7436 88.5761 96.1265 88.5761C95.4933 88.5761 95.0284 89.0009 95.0284 89.7543Z" fill="var(--sol-element-tertiary)"/>
<path d="M110.672 87.2056V86.5644H115.048V87.2056H113.229V92.3672H112.499V87.2056H110.672ZM118.086 90.5799V88.0151H118.767V92.3672H118.086V91.6298H118.038C117.829 92.0706 117.404 92.4233 116.747 92.4233C115.922 92.4233 115.337 91.8863 115.337 90.7802V88.0151H116.026V90.7321C116.026 91.3573 116.419 91.7581 116.972 91.7581C117.461 91.7581 118.086 91.3894 118.086 90.5799ZM121.7 92.4554C120.442 92.4554 119.665 91.5657 119.665 90.2272C119.665 88.8887 120.45 87.959 121.636 87.959C122.55 87.959 123.512 88.52 123.512 90.131V90.4196H120.354C120.386 91.3413 120.923 91.8462 121.7 91.8462C122.221 91.8462 122.55 91.6218 122.71 91.3493H123.448C123.239 92.0065 122.598 92.4554 121.7 92.4554ZM120.362 89.8345H122.814C122.814 89.1051 122.35 88.5681 121.636 88.5681C120.883 88.5681 120.402 89.1612 120.362 89.8345Z" fill="var(--sol-element-tertiary)"/>
<path d="M137.435 92.3672L135.848 86.5644H136.578L137.788 91.2611H137.844L139.07 86.5644H139.88L141.114 91.2611H141.162L142.372 86.5644H143.102L141.515 92.3672H140.769L139.503 87.7747H139.455L138.181 92.3672H137.435ZM145.202 92.4554C143.943 92.4554 143.166 91.5657 143.166 90.2272C143.166 88.8887 143.951 87.959 145.137 87.959C146.051 87.959 147.013 88.52 147.013 90.131V90.4196H143.855C143.887 91.3413 144.424 91.8462 145.202 91.8462C145.723 91.8462 146.051 91.6218 146.211 91.3493H146.949C146.74 92.0065 146.099 92.4554 145.202 92.4554ZM143.863 89.8345H146.316C146.316 89.1051 145.851 88.5681 145.137 88.5681C144.384 88.5681 143.903 89.1612 143.863 89.8345ZM149.554 92.4554C148.472 92.4554 147.702 91.5817 147.702 90.2032C147.702 88.8246 148.472 87.959 149.562 87.959C150.403 87.959 150.676 88.4719 150.82 88.7044H150.868V86.5644H151.565V92.3672H150.892V91.702H150.82C150.668 91.9424 150.387 92.4554 149.554 92.4554ZM149.65 91.8382C150.443 91.8382 150.892 91.165 150.892 90.1871C150.892 89.2253 150.459 88.5761 149.65 88.5761C148.816 88.5761 148.399 89.2815 148.399 90.1871C148.399 91.1169 148.824 91.8382 149.65 91.8382Z" fill="var(--sol-element-tertiary)"/>
<path d="M164.059 87.2056V86.5644H168.435V87.2056H166.616V92.3672H165.886V87.2056H164.059ZM169.998 89.7543V92.3672H169.309V86.5644H169.998V88.6964H170.054C170.255 88.2475 170.647 87.959 171.337 87.959C172.226 87.959 172.819 88.488 172.819 89.602V92.3672H172.13V89.6501C172.13 88.9689 171.753 88.5761 171.128 88.5761C170.479 88.5761 169.998 89.0009 169.998 89.7543ZM176.674 90.5799V88.0151H177.356V92.3672H176.674V91.6298H176.626C176.418 92.0706 175.993 92.4233 175.336 92.4233C174.51 92.4233 173.925 91.8863 173.925 90.7802V88.0151H174.615V90.7321C174.615 91.3573 175.007 91.7581 175.56 91.7581C176.049 91.7581 176.674 91.3894 176.674 90.5799Z" fill="var(--sol-element-tertiary)"/>
<path d="M193.733 92.3672V86.5644H197.227V87.2056H194.454V89.1452H196.963V89.7784H194.454V92.3672H193.733ZM198.173 92.3672V88.0151H198.838V88.6803H198.886C199.046 88.2395 199.495 87.943 200.008 87.943C200.112 87.943 200.289 87.951 200.369 87.959V88.6563C200.321 88.6403 200.129 88.6082 199.952 88.6082C199.327 88.6082 198.862 89.041 198.862 89.6261V92.3672H198.173ZM201.042 92.3672V88.0151H201.731V92.3672H201.042ZM201.387 87.2938C201.122 87.2938 200.906 87.0934 200.906 86.8369C200.906 86.5804 201.122 86.3801 201.387 86.3801C201.651 86.3801 201.876 86.5804 201.876 86.8369C201.876 87.0934 201.651 87.2938 201.387 87.2938Z" fill="var(--sol-element-tertiary)"/>
<path d="M222.268 88.0231C222.204 87.4541 221.683 87.1254 220.986 87.1254C220.216 87.1254 219.711 87.5262 219.711 88.0792C219.711 88.6883 220.393 88.9128 220.833 89.025L221.41 89.1853C222.036 89.3456 223.054 89.7062 223.054 90.7883C223.054 91.734 222.292 92.4714 220.946 92.4714C219.695 92.4714 218.918 91.8222 218.854 90.8604H219.591C219.655 91.5096 220.256 91.8142 220.946 91.8142C221.747 91.8142 222.348 91.4054 222.348 90.7722C222.348 90.2112 221.811 89.9948 221.202 89.8185L220.489 89.6261C219.575 89.3616 219.014 88.8967 219.014 88.1113C219.014 87.1335 219.888 86.4843 221.01 86.4843C222.132 86.4843 222.941 87.1415 222.973 88.0231H222.268ZM223.791 91.1329C223.791 90.131 224.673 89.9066 225.426 89.8505C225.702 89.8305 226.408 89.7944 226.604 89.7864V89.4337C226.604 88.8807 226.276 88.5601 225.618 88.5601C225.065 88.5601 224.737 88.8166 224.64 89.1452H223.919C224.007 88.4479 224.689 87.959 225.65 87.959C226.219 87.959 227.285 88.1273 227.285 89.4979V92.3672H226.604V91.7741H226.572C226.428 92.0706 226.027 92.4714 225.274 92.4714C224.448 92.4714 223.791 91.9825 223.791 91.1329ZM224.48 91.165C224.48 91.6218 224.865 91.8542 225.394 91.8542C226.171 91.8542 226.604 91.3333 226.604 90.7883V90.3474L225.506 90.4276C224.881 90.4677 224.48 90.6921 224.48 91.165ZM230.291 88.0151V88.5922H229.377V91.1169C229.377 91.6779 229.65 91.7661 229.946 91.7661C230.075 91.7661 230.251 91.7581 230.355 91.75V92.3912C230.251 92.4073 230.075 92.4233 229.874 92.4233C229.297 92.4233 228.68 92.0626 228.68 91.2932V88.5922H228.023V88.0151H228.68V86.9732H229.377V88.0151H230.291Z" fill="var(--sol-element-tertiary)"/>
<path d="M91.2585 114.397V121.782H90.3302V115.356H90.2894L88.4941 116.549V115.621L90.3302 114.397H91.2585Z" fill="var(--sol-element-primary)"/>
<g clip-path="url(#clip3_1254_318526)">
<path d="M105.165 109.329C105.165 107.681 106.501 106.345 108.149 106.345H126.056C127.705 106.345 129.041 107.681 129.041 109.329V127.236C129.041 128.884 127.705 130.22 126.056 130.22H108.149C106.501 130.22 105.165 128.884 105.165 127.236V109.329Z" fill="var(--sol-fill-active)"/>
<path d="M114.568 121.782V120.823L117.179 118.304C117.924 117.559 118.312 117.12 118.312 116.498C118.312 115.815 117.771 115.376 117.047 115.376C116.282 115.376 115.792 115.856 115.802 116.6H114.537C114.527 115.203 115.578 114.295 117.057 114.295C118.567 114.295 119.587 115.193 119.587 116.437C119.587 117.273 119.179 117.947 117.73 119.314L116.414 120.619V120.67H119.699V121.782H114.568Z" fill="var(--sol-surface)"/>
</g>
<path d="M141.592 121.782L141.581 121.109L144.101 118.457C144.978 117.529 145.396 117.029 145.396 116.345C145.396 115.59 144.754 115.091 143.928 115.091C143.05 115.091 142.489 115.652 142.489 116.478H141.622C141.612 115.172 142.622 114.295 143.958 114.295C145.294 114.295 146.253 115.193 146.253 116.345C146.253 117.171 145.866 117.814 144.56 119.161L142.867 120.905V120.966H146.386V121.782H141.592Z" fill="var(--sol-element-primary)"/>
<path d="M168.074 120.273V119.518L171.4 114.397H172.532V119.467H173.563V120.273H172.532V121.782H171.655V120.273H168.074ZM169.064 119.467H171.655V115.56H171.563L169.064 119.405V119.467Z" fill="var(--sol-element-primary)"/>
<path d="M197.669 121.884C196.332 121.884 195.322 121.058 195.271 119.926H196.159C196.23 120.589 196.873 121.078 197.669 121.078C198.628 121.078 199.321 120.375 199.321 119.446C199.321 118.487 198.597 117.784 197.607 117.773C196.985 117.763 196.506 117.957 196.23 118.436H195.343L195.863 114.397H199.862V115.213H196.628L196.353 117.375H196.424C196.751 117.12 197.25 116.947 197.771 116.947C199.178 116.947 200.219 117.988 200.219 119.426C200.219 120.854 199.138 121.884 197.669 121.884Z" fill="var(--sol-element-primary)"/>
<path d="M224.605 121.884C223.319 121.864 221.912 121.109 221.912 118.375C221.912 115.764 222.983 114.295 224.717 114.295C226.012 114.295 226.92 115.091 227.114 116.253H226.206C226.033 115.601 225.543 115.111 224.717 115.111C223.503 115.111 222.779 116.151 222.779 117.926H222.87C223.299 117.314 223.972 116.947 224.768 116.947C226.084 116.947 227.175 117.967 227.175 119.395C227.175 120.783 226.155 121.894 224.605 121.884ZM224.605 121.078C225.563 121.078 226.277 120.324 226.288 119.405C226.277 118.498 225.594 117.753 224.625 117.753C223.656 117.753 222.911 118.538 222.901 119.416C222.901 120.283 223.615 121.078 224.605 121.078Z" fill="var(--sol-element-primary)"/>
<path d="M61.4297 150.212L64.8164 143.694V143.643H60.9095V142.827H65.7651V143.683L62.3886 150.212H61.4297Z" fill="var(--sol-error)"/>
<path d="M90.2384 150.314C88.6879 150.314 87.6066 149.457 87.6168 148.253C87.6066 147.294 88.2697 146.509 89.1163 146.376V146.336C88.3819 146.162 87.9025 145.489 87.9025 144.683C87.9025 143.551 88.8919 142.725 90.2384 142.725C91.5849 142.725 92.5744 143.551 92.5846 144.683C92.5744 145.489 92.0848 146.162 91.3605 146.336V146.376C92.197 146.509 92.86 147.294 92.8702 148.253C92.86 149.457 91.7787 150.314 90.2384 150.314ZM90.2384 149.508C91.2993 149.508 91.9522 148.978 91.9522 148.202C91.9522 147.386 91.2279 146.784 90.2384 146.784C89.249 146.784 88.5145 147.386 88.5349 148.202C88.5145 148.978 89.1775 149.508 90.2384 149.508ZM90.2384 146.009C91.0749 146.009 91.6869 145.499 91.6869 144.754C91.6869 144.02 91.1055 143.52 90.2384 143.52C89.3612 143.52 88.7899 144.02 88.7899 144.754C88.7899 145.499 89.3918 146.009 90.2384 146.009Z" fill="var(--sol-element-primary)"/>
<path d="M117.052 142.725C118.327 142.735 119.735 143.5 119.735 146.223C119.735 148.845 118.664 150.314 116.929 150.314C115.634 150.314 114.716 149.518 114.532 148.345H115.44C115.603 149.008 116.103 149.498 116.929 149.498C118.133 149.498 118.868 148.457 118.878 146.662H118.776C118.347 147.274 117.674 147.641 116.889 147.641C115.563 147.641 114.471 146.631 114.471 145.203C114.471 143.826 115.481 142.714 117.052 142.725ZM117.052 143.53C116.083 143.53 115.359 144.285 115.369 145.193C115.369 146.111 116.052 146.835 117.021 146.835C117.98 146.835 118.735 146.04 118.735 145.173C118.735 144.326 118.031 143.53 117.052 143.53Z" fill="var(--sol-element-primary)"/>
<path d="M141.867 142.827V150.212H140.939V143.785H140.898L139.103 144.979V144.051L140.939 142.827H141.867ZM146.253 150.314C144.611 150.314 143.673 148.937 143.673 146.519C143.673 144.122 144.631 142.725 146.253 142.725C147.875 142.725 148.834 144.122 148.834 146.519C148.834 148.937 147.885 150.314 146.253 150.314ZM146.253 149.498C147.314 149.498 147.936 148.427 147.936 146.519C147.936 144.612 147.314 143.52 146.253 143.52C145.192 143.52 144.56 144.612 144.56 146.519C144.56 148.427 145.182 149.498 146.253 149.498Z" fill="var(--sol-element-primary)"/>
<path d="M169.549 142.827V150.212H168.62V143.785H168.579L166.784 144.979V144.051L168.62 142.827H169.549ZM174.129 142.827V150.212H173.2V143.785H173.16L171.364 144.979V144.051L173.2 142.827H174.129Z" fill="var(--sol-element-primary)"/>
<path d="M195.634 142.827V150.212H194.705V143.785H194.665L192.869 144.979V144.051L194.705 142.827H195.634ZM197.602 150.212L197.592 149.539L200.112 146.886C200.989 145.958 201.407 145.458 201.407 144.775C201.407 144.02 200.765 143.52 199.938 143.52C199.061 143.52 198.5 144.081 198.5 144.908H197.633C197.623 143.602 198.633 142.725 199.969 142.725C201.305 142.725 202.264 143.622 202.264 144.775C202.264 145.601 201.876 146.244 200.571 147.59L198.877 149.335V149.396H202.397V150.212H197.602Z" fill="var(--sol-element-primary)"/>
<path d="M222.335 142.827V150.212H221.407V143.785H221.366L219.57 144.979V144.051L221.407 142.827H222.335ZM226.854 150.314C225.385 150.314 224.334 149.528 224.283 148.355H225.211C225.262 149.059 225.966 149.498 226.844 149.498C227.813 149.498 228.527 148.967 228.527 148.202C228.527 147.396 227.884 146.825 226.731 146.825H226.13V146.019H226.731C227.629 146.019 228.251 145.52 228.251 144.754C228.251 144.02 227.711 143.52 226.874 143.52C226.089 143.52 225.364 143.959 225.324 144.683H224.436C224.487 143.51 225.569 142.725 226.884 142.725C228.292 142.725 229.149 143.643 229.139 144.703C229.149 145.54 228.659 146.162 227.884 146.376V146.427C228.843 146.58 229.435 147.264 229.424 148.202C229.435 149.416 228.323 150.314 226.854 150.314Z" fill="var(--sol-element-primary)"/>
<path d="M61.139 171.257V178.643H60.2107V172.216H60.1699L58.3746 173.41V172.481L60.2107 171.257H61.139ZM62.9241 177.133V176.378L66.2496 171.257H67.3819V176.327H68.4122V177.133H67.3819V178.643H66.5046V177.133H62.9241ZM63.9136 176.327H66.5046V172.42H66.4128L63.9136 176.266V176.327Z" fill="var(--sol-error)"/>
<path d="M88.1422 171.257V178.643H87.2139V172.216H87.1731L85.3778 173.41V172.481L87.2139 171.257H88.1422ZM92.5183 178.745C91.182 178.745 90.1721 177.918 90.1211 176.786H91.0086C91.08 177.449 91.7226 177.939 92.5183 177.939C93.4772 177.939 94.1708 177.235 94.1708 176.307C94.1708 175.348 93.4466 174.644 92.4571 174.634C91.8348 174.623 91.3554 174.817 91.08 175.297H90.1925L90.7128 171.257H94.7115V172.073H91.4778L91.2024 174.236H91.2738C91.6002 173.981 92.1001 173.807 92.6203 173.807C94.028 173.807 95.0685 174.848 95.0685 176.286C95.0685 177.714 93.9872 178.745 92.5183 178.745Z" fill="var(--sol-element-primary)"/>
<path d="M114.915 171.257V178.643H113.987V172.216H113.946L112.15 173.41V172.481L113.987 171.257H114.915ZM119.454 178.745C118.169 178.724 116.761 177.969 116.761 175.236C116.761 172.624 117.832 171.155 119.566 171.155C120.862 171.155 121.77 171.951 121.964 173.114H121.056C120.882 172.461 120.393 171.971 119.566 171.971C118.352 171.971 117.628 173.012 117.628 174.787H117.72C118.148 174.175 118.822 173.807 119.617 173.807C120.933 173.807 122.025 174.827 122.025 176.256C122.025 177.643 121.005 178.755 119.454 178.745ZM119.454 177.939C120.413 177.939 121.127 177.184 121.137 176.266C121.127 175.358 120.444 174.613 119.475 174.613C118.506 174.613 117.761 175.399 117.751 176.276C117.751 177.143 118.465 177.939 119.454 177.939Z" fill="var(--sol-element-primary)"/>
<path d="M142.097 171.257V178.643H141.168V172.216H141.127L139.332 173.41V172.481L141.168 171.257H142.097ZM144.3 178.643L147.687 172.124V172.073H143.78V171.257H148.635V172.114L145.259 178.643H144.3Z" fill="var(--sol-element-primary)"/>
<path d="M168.671 171.257V178.643H167.743V172.216H167.702L165.907 173.41V172.481L167.743 171.257H168.671ZM173.109 178.745C171.558 178.745 170.477 177.888 170.487 176.684C170.477 175.725 171.14 174.94 171.986 174.807V174.766C171.252 174.593 170.773 173.92 170.773 173.114C170.773 171.981 171.762 171.155 173.109 171.155C174.455 171.155 175.445 171.981 175.455 173.114C175.445 173.92 174.955 174.593 174.231 174.766V174.807C175.067 174.94 175.73 175.725 175.74 176.684C175.73 177.888 174.649 178.745 173.109 178.745ZM173.109 177.939C174.169 177.939 174.822 177.408 174.822 176.633C174.822 175.817 174.098 175.215 173.109 175.215C172.119 175.215 171.385 175.817 171.405 176.633C171.385 177.408 172.048 177.939 173.109 177.939ZM173.109 174.44C173.945 174.44 174.557 173.93 174.557 173.185C174.557 172.451 173.976 171.951 173.109 171.951C172.231 171.951 171.66 172.451 171.66 173.185C171.66 173.93 172.262 174.44 173.109 174.44Z" fill="var(--sol-element-primary)"/>
<path d="M195.496 171.257V178.643H194.568V172.216H194.527L192.731 173.41V172.481L194.568 171.257H195.496ZM199.923 171.155C201.198 171.165 202.606 171.93 202.606 174.654C202.606 177.276 201.535 178.745 199.801 178.745C198.505 178.745 197.587 177.949 197.403 176.776H198.311C198.475 177.439 198.974 177.929 199.801 177.929C201.004 177.929 201.739 176.888 201.749 175.093H201.647C201.219 175.705 200.545 176.072 199.76 176.072C198.434 176.072 197.342 175.062 197.342 173.634C197.342 172.257 198.352 171.145 199.923 171.155ZM199.923 171.961C198.954 171.961 198.23 172.716 198.24 173.624C198.24 174.542 198.923 175.266 199.892 175.266C200.851 175.266 201.606 174.47 201.606 173.603C201.606 172.757 200.902 171.961 199.923 171.961Z" fill="var(--sol-element-primary)"/>
<path d="M219.06 178.643L219.05 177.969L221.57 175.317C222.447 174.389 222.865 173.889 222.865 173.206C222.865 172.451 222.223 171.951 221.396 171.951C220.519 171.951 219.958 172.512 219.958 173.338H219.091C219.081 172.032 220.091 171.155 221.427 171.155C222.763 171.155 223.722 172.053 223.722 173.206C223.722 174.032 223.335 174.674 222.029 176.021L220.336 177.765V177.827H223.855V178.643H219.06ZM227.609 178.745C225.966 178.745 225.028 177.367 225.028 174.95C225.028 172.553 225.987 171.155 227.609 171.155C229.231 171.155 230.189 172.553 230.189 174.95C230.189 177.367 229.241 178.745 227.609 178.745ZM227.609 177.929C228.67 177.929 229.292 176.857 229.292 174.95C229.292 173.042 228.67 171.951 227.609 171.951C226.548 171.951 225.915 173.042 225.915 174.95C225.915 176.857 226.538 177.929 227.609 177.929Z" fill="var(--sol-element-primary)"/>
</g>
</g>
<path d="M43.9844 44.373H243.943C245.385 44.3732 246.555 45.5423 246.555 46.9844V305.238C246.555 306.68 245.385 307.849 243.943 307.85H43.9844C42.5422 307.85 41.373 306.681 41.373 305.238V46.9844C41.3731 45.5422 42.5422 44.3731 43.9844 44.373Z" stroke="var(--sol-border-solid-variant)" stroke-width="0.746114"/>
</g>
<rect y="142" width="302" height="52" fill="url(#paint0_linear_1254_318526)"/>
</g>
<defs>
<filter id="filter0_dd_1254_318526" x="36.5233" y="41.0155" width="214.881" height="273.176" filterUnits="userSpaceOnUse" color-interpolation-filters="sRGB">
<feFlood flood-opacity="0" result="BackgroundImageFix"/>
<feColorMatrix in="SourceAlpha" type="matrix" values="0 0 0 0 0 0 0 0 0 0 0 0 0 0 0 0 0 0 127 0" result="hardAlpha"/>
<feOffset dy="1.49223"/>
<feGaussianBlur stdDeviation="2.23834"/>
<feComposite in2="hardAlpha" operator="out"/>
<feColorMatrix type="matrix" values="0 0 0 0 0 0 0 0 0 0 0 0 0 0 0 0 0 0 0.08 0"/>
<feBlend mode="normal" in2="BackgroundImageFix" result="effect1_dropShadow_1254_318526"/>
<feColorMatrix in="SourceAlpha" type="matrix" values="0 0 0 0 0 0 0 0 0 0 0 0 0 0 0 0 0 0 127 0" result="hardAlpha"/>
<feOffset/>
<feGaussianBlur stdDeviation="0.373057"/>
<feComposite in2="hardAlpha" operator="out"/>
<feColorMatrix type="matrix" values="0 0 0 0 0 0 0 0 0 0 0 0 0 0 0 0 0 0 0.04 0"/>
<feBlend mode="normal" in2="effect1_dropShadow_1254_318526" result="effect2_dropShadow_1254_318526"/>
<feBlend mode="normal" in="SourceGraphic" in2="effect2_dropShadow_1254_318526" result="shape"/>
</filter>
<linearGradient id="paint0_linear_1254_318526" x1="259.531" y1="194" x2="259.531" y2="142" gradientUnits="userSpaceOnUse">
<stop stop-opacity="0.04"/>
<stop offset="1" stop-color="var(--sol-surface)" stop-opacity="0"/>
</linearGradient>
<clipPath id="clip0_1254_318526">
<rect width="288" height="192" fill="var(--sol-surface)"/>
</clipPath>
<clipPath id="clip1_1254_318526">
<path d="M41 46.9845C41 45.3362 42.3362 44 43.9845 44H243.943C245.591 44 246.927 45.3362 246.927 46.9845V305.238C246.927 306.887 245.591 308.223 243.943 308.223H43.9845C42.3362 308.223 41 306.887 41 305.238V46.9845Z" fill="var(--sol-surface)"/>
</clipPath>
<clipPath id="clip2_1254_318526">
<rect width="205.927" height="212.663" fill="var(--sol-surface)" transform="translate(41 44)"/>
</clipPath>
<clipPath id="clip3_1254_318526">
<path d="M105.165 109.329C105.165 107.681 106.501 106.345 108.149 106.345H126.056C127.705 106.345 129.041 107.681 129.041 109.329V127.236C129.041 128.884 127.705 130.22 126.056 130.22H108.149C106.501 130.22 105.165 128.884 105.165 127.236V109.329Z" fill="var(--sol-surface)"/>
</clipPath>
</defs>
</svg>
