<svg width="288" height="192" viewBox="0 0 288 192" fill="none" xmlns="http://www.w3.org/2000/svg">
<style>
:root {
  --sol-primary: #282363;
  --sol-element-brand-variant: #3a3480;
  --sol-fill-active: #4d469a;
  --sol-selected-container-variant: #f5f4fd;
  --sol-surface: #ffffff;
  --sol-surface-base-variant: #f5f5f5;
  --sol-secondary-container: #e8e6f8;
  --sol-element-primary: #161616;
  --sol-element-secondary: #484848;
  --sol-element-tertiary: #636363;
  --sol-element-quaternary: #858585;
  --sol-border-brand: #7b74c4;
  --sol-border-normal-variant: rgba(0, 0, 0, 0.08);
  --sol-border-solid-variant: #e0e0e0;
  --sol-border-solid: #d0d0d0;
  --sol-error: #e76067;
  --sol-error-container: #fdeaeb;
  --sol-static-white: #ffffff;
  --sol-static-black: #000000;
  --color-brand-400: #6058b4;
  --color-teal-500: #05a09a;
  --color-green-500: #35a142;
  --color-yellow-500: #d4ae00;
  --color-orange-500: #e06418;
  --color-blue-500: #3e9bca;
  --color-indigo-500: #3d5ed6;
  --color-pink-500: #d03e94;
}
@media (prefers-color-scheme: dark) {
  :root {
    --sol-primary: #9791d4;
    --sol-element-brand-variant: #ffffff;
    --sol-fill-active: #7b74c4;
    --sol-selected-container-variant: rgba(0, 0, 0, 0.08);
    --sol-surface: #161616;
    --sol-surface-base-variant: #1c1c1c;
    --sol-secondary-container: rgba(255, 255, 255, 0.16);
    --sol-element-primary: #ffffff;
    --sol-element-secondary: rgba(255, 255, 255, 0.8);
    --sol-element-tertiary: rgba(255, 255, 255, 0.6);
    --sol-element-quaternary: rgba(255, 255, 255, 0.5);
    --sol-border-brand: #7b74c4;
    --sol-border-normal-variant: rgba(255, 255, 255, 0.08);
    --sol-border-solid-variant: #3d3d3d;
    --sol-border-solid: #333333;
    --sol-error: #ee7a80;
    --sol-error-container: rgba(231, 96, 103, 0.24);
    --sol-static-white: #ffffff;
    --sol-static-black: #000000;
  }
}
</style>
<g clip-path="url(#clip0_1240_154675)">
<g filter="url(#filter0_dd_1240_154675)">
<g clip-path="url(#clip1_1240_154675)">
<rect x="40" y="36" width="346" height="116" rx="4" fill="var(--sol-surface)"/>
<path d="M54.7197 51.0801C54.7197 49.4232 56.0629 48.0801 57.7197 48.0801H122.28C123.937 48.0801 125.28 49.4232 125.28 51.0801V63.0801C125.28 64.7369 123.937 66.0801 122.28 66.0801H57.7197C56.0629 66.0801 54.7197 64.7369 54.7197 63.0801V51.0801Z" fill="var(--sol-element-primary)" fill-opacity="0.08"/>
<path d="M53.4395 83.1602C53.4395 81.5033 54.7826 80.1602 56.4395 80.1602H171.439C173.096 80.1602 174.439 81.5033 174.439 83.1602V95.1602C174.439 96.817 173.096 98.1602 171.439 98.1602H56.4395C54.7826 98.1602 53.4395 96.817 53.4395 95.1602V83.1602Z" fill="var(--sol-element-primary)" fill-opacity="0.08"/>
<path d="M53.4395 112.16C53.4395 110.503 54.7826 109.16 56.4395 109.16H137.439C139.096 109.16 140.439 110.503 140.439 112.16V136.92C140.439 138.577 139.096 139.92 137.439 139.92H56.4395C54.7826 139.92 53.4395 138.577 53.4395 136.92V112.16Z" fill="var(--sol-element-primary)" fill-opacity="0.08"/>
<path d="M186.439 78.6602C186.439 78.384 186.663 78.1602 186.939 78.1602C187.216 78.1602 187.439 78.384 187.439 78.6602L187.439 141.42C187.439 141.696 187.216 141.92 186.939 141.92C186.663 141.92 186.439 141.696 186.439 141.42L186.439 78.6602Z" fill="var(--sol-border-solid-variant)"/>
<path d="M199.439 83.1602C199.439 81.5033 200.783 80.1602 202.439 80.1602H317.439C319.096 80.1602 320.439 81.5033 320.439 83.1602V95.1602C320.439 96.817 319.096 98.1602 317.439 98.1602H202.439C200.783 98.1602 199.439 96.817 199.439 95.1602V83.1602Z" fill="var(--sol-element-primary)" fill-opacity="0.08"/>
<path d="M199.439 112.16C199.439 110.503 200.783 109.16 202.439 109.16H283.439C285.096 109.16 286.439 110.503 286.439 112.16V136.92C286.439 138.577 285.096 139.92 283.439 139.92H202.439C200.783 139.92 199.439 138.577 199.439 136.92V112.16Z" fill="var(--sol-element-primary)" fill-opacity="0.08"/>
</g>
<rect x="40.5" y="36.5" width="345" height="115" rx="3.5" stroke="var(--sol-border-solid-variant)"/>
</g>
</g>
<defs>
<filter id="filter0_dd_1240_154675" x="32" y="32" width="362" height="132" filterUnits="userSpaceOnUse" color-interpolation-filters="sRGB">
<feFlood flood-opacity="0" result="BackgroundImageFix"/>
<feColorMatrix in="SourceAlpha" type="matrix" values="0 0 0 0 0 0 0 0 0 0 0 0 0 0 0 0 0 0 127 0" result="hardAlpha"/>
<feOffset dy="4"/>
<feGaussianBlur stdDeviation="4"/>
<feComposite in2="hardAlpha" operator="out"/>
<feColorMatrix type="matrix" values="0 0 0 0 0 0 0 0 0 0 0 0 0 0 0 0 0 0 0.08 0"/>
<feBlend mode="normal" in2="BackgroundImageFix" result="effect1_dropShadow_1240_154675"/>
<feColorMatrix in="SourceAlpha" type="matrix" values="0 0 0 0 0 0 0 0 0 0 0 0 0 0 0 0 0 0 127 0" result="hardAlpha"/>
<feOffset/>
<feGaussianBlur stdDeviation="0.5"/>
<feComposite in2="hardAlpha" operator="out"/>
<feColorMatrix type="matrix" values="0 0 0 0 0 0 0 0 0 0 0 0 0 0 0 0 0 0 0.08 0"/>
<feBlend mode="normal" in2="effect1_dropShadow_1240_154675" result="effect2_dropShadow_1240_154675"/>
<feBlend mode="normal" in="SourceGraphic" in2="effect2_dropShadow_1240_154675" result="shape"/>
</filter>
<clipPath id="clip0_1240_154675">
<rect width="288" height="192" fill="var(--sol-surface)"/>
</clipPath>
<clipPath id="clip1_1240_154675">
<rect x="40" y="36" width="346" height="116" rx="4" fill="var(--sol-surface)"/>
</clipPath>
</defs>
</svg>
