<svg width="288" height="192" viewBox="0 0 288 192" fill="none" xmlns="http://www.w3.org/2000/svg">
<style>
:root {
  --sol-primary: #282363;
  --sol-element-brand-variant: #3a3480;
  --sol-fill-active: #4d469a;
  --sol-selected-container-variant: #f5f4fd;
  --sol-surface: #ffffff;
  --sol-surface-base-variant: #f5f5f5;
  --sol-secondary-container: #e8e6f8;
  --sol-element-primary: #161616;
  --sol-element-secondary: #484848;
  --sol-element-tertiary: #636363;
  --sol-element-quaternary: #858585;
  --sol-border-brand: #7b74c4;
  --sol-border-normal-variant: rgba(0, 0, 0, 0.08);
  --sol-border-solid-variant: #e0e0e0;
  --sol-border-solid: #d0d0d0;
  --sol-error: #e76067;
  --sol-error-container: #fdeaeb;
  --sol-static-white: #ffffff;
  --sol-static-black: #000000;
  --color-brand-400: #6058b4;
  --color-teal-500: #05a09a;
  --color-green-500: #35a142;
  --color-yellow-500: #d4ae00;
  --color-orange-500: #e06418;
  --color-blue-500: #3e9bca;
  --color-indigo-500: #3d5ed6;
  --color-pink-500: #d03e94;
}
@media (prefers-color-scheme: dark) {
  :root {
    --sol-primary: #9791d4;
    --sol-element-brand-variant: #ffffff;
    --sol-fill-active: #7b74c4;
    --sol-selected-container-variant: rgba(0, 0, 0, 0.08);
    --sol-surface: #161616;
    --sol-surface-base-variant: #1c1c1c;
    --sol-secondary-container: rgba(255, 255, 255, 0.16);
    --sol-element-primary: #ffffff;
    --sol-element-secondary: rgba(255, 255, 255, 0.8);
    --sol-element-tertiary: rgba(255, 255, 255, 0.6);
    --sol-element-quaternary: rgba(255, 255, 255, 0.5);
    --sol-border-brand: #7b74c4;
    --sol-border-normal-variant: rgba(255, 255, 255, 0.08);
    --sol-border-solid-variant: #3d3d3d;
    --sol-border-solid: #333333;
    --sol-error: #ee7a80;
    --sol-error-container: rgba(231, 96, 103, 0.24);
    --sol-static-white: #ffffff;
    --sol-static-black: #000000;
  }
}
</style>
<rect width="288" height="192" fill="var(--sol-surface-base-variant)"/>
<path d="M197.5 96.2502C197.5 125.659 173.659 149.5 144.25 149.5C114.841 149.5 91 125.659 91 96.2502C91 66.8409 114.841 43 144.25 43C173.659 43 197.5 66.8409 197.5 96.2502ZM115.495 96.2502C115.495 112.131 128.369 125.005 144.25 125.005C160.131 125.005 173.005 112.131 173.005 96.2502C173.005 80.3692 160.131 67.4951 144.25 67.4951C128.369 67.4951 115.495 80.3692 115.495 96.2502Z" fill="var(--sol-element-primary)" fill-opacity="0.12" stroke="var(--sol-surface)" stroke-width="0.44375" stroke-linejoin="bevel"/>
<path d="M144.25 43C156.641 43 168.645 47.3216 178.193 55.2202C187.741 63.1189 194.235 74.1 196.557 86.2721C198.879 98.4441 196.883 111.045 190.913 121.904C184.944 132.762 175.374 141.199 163.853 145.761C152.331 150.323 139.58 150.723 127.795 146.894C116.01 143.065 105.929 135.246 99.2895 124.783C92.6498 114.32 89.8668 101.87 91.4199 89.5761C92.973 77.2823 98.7649 65.915 107.798 57.4324L124.566 75.2886C119.688 79.8692 116.56 86.0075 115.722 92.6462C114.883 99.2848 116.386 106.008 119.971 111.658C123.557 117.308 129 121.53 135.364 123.598C141.728 125.666 148.614 125.449 154.835 122.986C161.057 120.523 166.225 115.967 169.448 110.103C172.672 104.239 173.75 97.4349 172.496 90.862C171.242 84.2891 167.735 78.3593 162.579 74.094C157.423 69.8287 150.941 67.4951 144.25 67.4951L144.25 43Z" fill="var(--color-indigo-500)" stroke="var(--sol-surface)" stroke-width="0.44375" stroke-linejoin="bevel"/>
<path d="M144.25 43C154.985 43 165.47 46.2448 174.329 52.3086C183.187 58.3725 190.006 66.9723 193.891 76.98C197.776 86.9878 198.545 97.936 196.098 108.389C193.651 118.841 188.102 128.31 180.178 135.553C172.255 142.797 162.327 147.476 151.697 148.977C141.067 150.478 130.232 148.732 120.612 143.966C110.993 139.201 103.038 131.639 97.7917 122.273C92.5455 112.907 90.2526 102.174 91.2139 91.4818L115.611 93.6753C115.091 99.449 116.33 105.245 119.163 110.303C121.996 115.36 126.291 119.444 131.486 122.017C136.68 124.59 142.531 125.533 148.271 124.723C154.011 123.912 159.372 121.385 163.651 117.474C167.93 113.563 170.927 108.449 172.248 102.805C173.569 97.1605 173.154 91.2485 171.056 85.8443C168.958 80.4401 165.276 75.7962 160.492 72.5217C155.709 69.2472 150.047 67.4951 144.25 67.4951L144.25 43Z" fill="var(--color-blue-500)" stroke="var(--sol-surface)" stroke-width="0.44375" stroke-linejoin="bevel"/>
<path d="M144.25 43C153.484 43 162.559 45.4013 170.585 49.9681C178.611 54.5349 185.311 61.1102 190.028 69.0486C194.745 76.987 197.317 86.0156 197.491 95.2481C197.664 104.481 195.434 113.6 191.019 121.71C186.604 129.82 180.156 136.643 172.308 141.509C164.46 146.374 155.481 149.115 146.254 149.463C137.026 149.81 127.867 147.752 119.675 143.49C111.483 139.229 104.54 132.91 99.5278 125.155L120.1 111.859C122.807 116.047 126.556 119.459 130.979 121.76C135.403 124.061 140.349 125.173 145.332 124.985C150.315 124.797 155.163 123.317 159.401 120.69C163.639 118.062 167.121 114.378 169.505 109.998C171.89 105.619 173.094 100.695 173 95.7091C172.906 90.7235 171.517 85.8481 168.97 81.5613C166.423 77.2746 162.805 73.7239 158.471 71.2578C154.137 68.7918 149.236 67.4951 144.25 67.4951L144.25 43Z" fill="var(--color-teal-500)" stroke="var(--sol-surface)" stroke-width="0.44375" stroke-linejoin="bevel"/>
<path d="M144.25 43C157.753 43 170.752 48.1298 180.615 57.3512C190.479 66.5726 196.471 79.197 197.379 92.6694C198.287 106.142 194.043 119.456 185.506 129.918C176.969 140.379 164.776 147.207 151.395 149.019L148.108 124.745C155.334 123.767 161.918 120.08 166.528 114.431C171.138 108.781 173.43 101.592 172.94 94.3165C172.45 87.0414 169.214 80.2243 163.887 75.2447C158.561 70.2652 151.542 67.4951 144.25 67.4951L144.25 43Z" fill="var(--color-pink-500)" stroke="var(--sol-surface)" stroke-width="0.44375" stroke-linejoin="bevel"/>
<path d="M144.25 43C154.782 43 165.077 46.1231 173.834 51.9743C182.591 57.8255 189.416 66.142 193.447 75.8722C197.477 85.6024 198.531 96.3092 196.477 106.639C194.422 116.968 189.351 126.457 181.903 133.904L164.583 116.583C168.604 112.562 171.343 107.438 172.452 101.86C173.562 96.2821 172.993 90.5004 170.816 85.2461C168.64 79.9918 164.954 75.5008 160.225 72.3412C155.497 69.1815 149.937 67.4951 144.25 67.4951L144.25 43Z" fill="var(--color-brand-400)" stroke="var(--sol-surface)" stroke-width="0.44375" stroke-linejoin="bevel"/>
</svg>
