<svg width="288" height="192" viewBox="0 0 288 192" fill="none" xmlns="http://www.w3.org/2000/svg">
<style>
:root {
  --sol-primary: #282363;
  --sol-element-brand-variant: #3a3480;
  --sol-fill-active: #4d469a;
  --sol-selected-container-variant: #f5f4fd;
  --sol-surface: #ffffff;
  --sol-surface-base-variant: #f5f5f5;
  --sol-secondary-container: #e8e6f8;
  --sol-element-primary: #161616;
  --sol-element-secondary: #484848;
  --sol-element-tertiary: #636363;
  --sol-element-quaternary: #858585;
  --sol-border-brand: #7b74c4;
  --sol-border-normal-variant: rgba(0, 0, 0, 0.08);
  --sol-border-solid-variant: #e0e0e0;
  --sol-border-solid: #d0d0d0;
  --sol-error: #e76067;
  --sol-error-container: #fdeaeb;
  --sol-static-white: #ffffff;
  --sol-static-black: #000000;
  --color-brand-400: #6058b4;
  --color-teal-500: #05a09a;
  --color-green-500: #35a142;
  --color-yellow-500: #d4ae00;
  --color-orange-500: #e06418;
  --color-blue-500: #3e9bca;
  --color-indigo-500: #3d5ed6;
  --color-pink-500: #d03e94;
}
@media (prefers-color-scheme: dark) {
  :root {
    --sol-primary: #9791d4;
    --sol-element-brand-variant: #ffffff;
    --sol-fill-active: #7b74c4;
    --sol-selected-container-variant: rgba(0, 0, 0, 0.08);
    --sol-surface: #161616;
    --sol-surface-base-variant: #1c1c1c;
    --sol-secondary-container: rgba(255, 255, 255, 0.16);
    --sol-element-primary: #ffffff;
    --sol-element-secondary: rgba(255, 255, 255, 0.8);
    --sol-element-tertiary: rgba(255, 255, 255, 0.6);
    --sol-element-quaternary: rgba(255, 255, 255, 0.5);
    --sol-border-brand: #7b74c4;
    --sol-border-normal-variant: rgba(255, 255, 255, 0.08);
    --sol-border-solid-variant: #3d3d3d;
    --sol-border-solid: #333333;
    --sol-error: #ee7a80;
    --sol-error-container: rgba(231, 96, 103, 0.24);
    --sol-static-white: #ffffff;
    --sol-static-black: #000000;
  }
}
</style>
<g clip-path="url(#clip0_1240_155010)">
<rect x="63" y="13" width="162" height="40" rx="5" stroke="var(--sol-primary)" stroke-width="2"/>
<rect x="64.5" y="14.5" width="159" height="37" rx="3.5" fill="var(--sol-surface)" stroke="var(--sol-border-solid-variant)"/>
<path d="M76 27C76 25.3431 77.3431 24 79 24H194C195.657 24 197 25.3431 197 27V39C197 40.6569 195.657 42 194 42H79C77.3431 42 76 40.6569 76 39V27Z" fill="var(--sol-element-primary)" fill-opacity="0.08"/>
<mask id="mask0_1240_155010" style="mask-type:alpha" maskUnits="userSpaceOnUse" x="201" y="25" width="16" height="16">
<path d="M204.646 34.6465L208.646 30.6465C208.842 30.4512 209.158 30.4512 209.354 30.6465L213.354 34.6465L212.646 35.3535L209 31.707L205.354 35.3535L204.646 34.6465Z" fill="var(--sol-element-primary)"/>
</mask>
<g mask="url(#mask0_1240_155010)">
<rect x="217" y="41" width="16" height="16" transform="rotate(-180 217 41)" fill="var(--sol-element-quaternary)"/>
</g>
<g filter="url(#filter0_dd_1240_155010)">
<g clip-path="url(#clip1_1240_155010)">
<path d="M64 62C64 59.7909 65.7909 58 68 58H220C222.209 58 224 59.7909 224 62V202C224 204.209 222.209 206 220 206H68C65.7909 206 64 204.209 64 202V62Z" fill="var(--sol-surface)"/>
<path d="M78.3242 73.1016V83H77.0938V73.1016H78.3242ZM83.6016 75.5762V76.5605H82.043V80.8672C82.043 81.8242 82.5078 81.9746 83.0137 81.9746C83.2324 81.9746 83.5332 81.9609 83.7109 81.9473V83.041C83.5332 83.0684 83.2324 83.0957 82.8906 83.0957C81.9062 83.0957 80.8535 82.4805 80.8535 81.168V76.5605H79.7324V75.5762H80.8535V73.7988H82.043V75.5762H83.6016ZM88.168 83.1504C86.0215 83.1504 84.6953 81.6328 84.6953 79.3496C84.6953 77.0664 86.0352 75.4805 88.0586 75.4805C89.6172 75.4805 91.2578 76.4375 91.2578 79.1855V79.6777H85.8711C85.9258 81.25 86.8418 82.1113 88.168 82.1113C89.0566 82.1113 89.6172 81.7285 89.8906 81.2637H91.1484C90.793 82.3848 89.6992 83.1504 88.168 83.1504ZM85.8848 78.6797H90.0684C90.0684 77.4355 89.2754 76.5195 88.0586 76.5195C86.7734 76.5195 85.9531 77.5312 85.8848 78.6797ZM92.7891 83V75.5762H93.9238V76.7383H94.0195C94.334 75.9453 95.0449 75.4805 96.0156 75.4805C96.9863 75.4805 97.6426 75.9453 97.998 76.7383H98.0801C98.4629 75.9727 99.2422 75.4805 100.309 75.4805C101.635 75.4805 102.578 76.2871 102.578 78.0371V83H101.402V78.0508C101.402 76.957 100.705 76.5332 99.8984 76.5332C98.8594 76.5332 98.2715 77.2305 98.2715 78.1738V83H97.082V77.9277C97.082 77.0938 96.4805 76.5332 95.6328 76.5332C94.7441 76.5332 93.9648 77.2852 93.9648 78.3652V83H92.7891ZM111.205 83.1367C109.004 83.1367 107.746 81.291 107.746 78.0508C107.746 74.8379 109.031 72.9648 111.205 72.9648C113.379 72.9648 114.664 74.8379 114.664 78.0508C114.664 81.291 113.393 83.1367 111.205 83.1367ZM111.205 82.043C112.627 82.043 113.461 80.6074 113.461 78.0508C113.461 75.4941 112.627 74.0312 111.205 74.0312C109.783 74.0312 108.936 75.4941 108.936 78.0508C108.936 80.6074 109.77 82.043 111.205 82.043ZM119.805 73.1016V83H118.561V74.3867H118.506L116.1 75.9863V74.7422L118.561 73.1016H119.805Z" fill="var(--sol-element-primary)"/>
<path d="M78.3242 105.102V115H77.0938V105.102H78.3242ZM83.6016 107.576V108.561H82.043V112.867C82.043 113.824 82.5078 113.975 83.0137 113.975C83.2324 113.975 83.5332 113.961 83.7109 113.947V115.041C83.5332 115.068 83.2324 115.096 82.8906 115.096C81.9062 115.096 80.8535 114.48 80.8535 113.168V108.561H79.7324V107.576H80.8535V105.799H82.043V107.576H83.6016ZM88.168 115.15C86.0215 115.15 84.6953 113.633 84.6953 111.35C84.6953 109.066 86.0352 107.48 88.0586 107.48C89.6172 107.48 91.2578 108.438 91.2578 111.186V111.678H85.8711C85.9258 113.25 86.8418 114.111 88.168 114.111C89.0566 114.111 89.6172 113.729 89.8906 113.264H91.1484C90.793 114.385 89.6992 115.15 88.168 115.15ZM85.8848 110.68H90.0684C90.0684 109.436 89.2754 108.52 88.0586 108.52C86.7734 108.52 85.9531 109.531 85.8848 110.68ZM92.7891 115V107.576H93.9238V108.738H94.0195C94.334 107.945 95.0449 107.48 96.0156 107.48C96.9863 107.48 97.6426 107.945 97.998 108.738H98.0801C98.4629 107.973 99.2422 107.48 100.309 107.48C101.635 107.48 102.578 108.287 102.578 110.037V115H101.402V110.051C101.402 108.957 100.705 108.533 99.8984 108.533C98.8594 108.533 98.2715 109.23 98.2715 110.174V115H97.082V109.928C97.082 109.094 96.4805 108.533 95.6328 108.533C94.7441 108.533 93.9648 109.285 93.9648 110.365V115H92.7891ZM111.205 115.137C109.004 115.137 107.746 113.291 107.746 110.051C107.746 106.838 109.031 104.965 111.205 104.965C113.379 104.965 114.664 106.838 114.664 110.051C114.664 113.291 113.393 115.137 111.205 115.137ZM111.205 114.043C112.627 114.043 113.461 112.607 113.461 110.051C113.461 107.494 112.627 106.031 111.205 106.031C109.783 106.031 108.936 107.494 108.936 110.051C108.936 112.607 109.77 114.043 111.205 114.043ZM116.305 115L116.291 114.098L119.668 110.543C120.844 109.299 121.404 108.629 121.404 107.713C121.404 106.701 120.543 106.031 119.436 106.031C118.26 106.031 117.508 106.783 117.508 107.891H116.346C116.332 106.141 117.686 104.965 119.477 104.965C121.268 104.965 122.553 106.168 122.553 107.713C122.553 108.82 122.033 109.682 120.283 111.486L118.014 113.824V113.906H122.73V115H116.305Z" fill="var(--sol-element-primary)"/>
<path d="M78.3242 137.102V147H77.0938V137.102H78.3242ZM83.6016 139.576V140.561H82.043V144.867C82.043 145.824 82.5078 145.975 83.0137 145.975C83.2324 145.975 83.5332 145.961 83.7109 145.947V147.041C83.5332 147.068 83.2324 147.096 82.8906 147.096C81.9062 147.096 80.8535 146.48 80.8535 145.168V140.561H79.7324V139.576H80.8535V137.799H82.043V139.576H83.6016ZM88.168 147.15C86.0215 147.15 84.6953 145.633 84.6953 143.35C84.6953 141.066 86.0352 139.48 88.0586 139.48C89.6172 139.48 91.2578 140.438 91.2578 143.186V143.678H85.8711C85.9258 145.25 86.8418 146.111 88.168 146.111C89.0566 146.111 89.6172 145.729 89.8906 145.264H91.1484C90.793 146.385 89.6992 147.15 88.168 147.15ZM85.8848 142.68H90.0684C90.0684 141.436 89.2754 140.52 88.0586 140.52C86.7734 140.52 85.9531 141.531 85.8848 142.68ZM92.7891 147V139.576H93.9238V140.738H94.0195C94.334 139.945 95.0449 139.48 96.0156 139.48C96.9863 139.48 97.6426 139.945 97.998 140.738H98.0801C98.4629 139.973 99.2422 139.48 100.309 139.48C101.635 139.48 102.578 140.287 102.578 142.037V147H101.402V142.051C101.402 140.957 100.705 140.533 99.8984 140.533C98.8594 140.533 98.2715 141.23 98.2715 142.174V147H97.082V141.928C97.082 141.094 96.4805 140.533 95.6328 140.533C94.7441 140.533 93.9648 141.285 93.9648 142.365V147H92.7891ZM111.205 147.137C109.004 147.137 107.746 145.291 107.746 142.051C107.746 138.838 109.031 136.965 111.205 136.965C113.379 136.965 114.664 138.838 114.664 142.051C114.664 145.291 113.393 147.137 111.205 147.137ZM111.205 146.043C112.627 146.043 113.461 144.607 113.461 142.051C113.461 139.494 112.627 138.031 111.205 138.031C109.783 138.031 108.936 139.494 108.936 142.051C108.936 144.607 109.77 146.043 111.205 146.043ZM119.723 147.137C117.754 147.137 116.346 146.084 116.277 144.512H117.521C117.59 145.455 118.533 146.043 119.709 146.043C121.008 146.043 121.965 145.332 121.965 144.307C121.965 143.227 121.104 142.461 119.559 142.461H118.752V141.381H119.559C120.762 141.381 121.596 140.711 121.596 139.686C121.596 138.701 120.871 138.031 119.75 138.031C118.697 138.031 117.727 138.619 117.672 139.59H116.482C116.551 138.018 118 136.965 119.764 136.965C121.65 136.965 122.799 138.195 122.785 139.617C122.799 140.738 122.143 141.572 121.104 141.859V141.928C122.389 142.133 123.182 143.049 123.168 144.307C123.182 145.934 121.691 147.137 119.723 147.137Z" fill="var(--sol-element-primary)"/>
<path d="M78.3242 169.102V179H77.0938V169.102H78.3242ZM83.6016 171.576V172.561H82.043V176.867C82.043 177.824 82.5078 177.975 83.0137 177.975C83.2324 177.975 83.5332 177.961 83.7109 177.947V179.041C83.5332 179.068 83.2324 179.096 82.8906 179.096C81.9062 179.096 80.8535 178.48 80.8535 177.168V172.561H79.7324V171.576H80.8535V169.799H82.043V171.576H83.6016ZM88.168 179.15C86.0215 179.15 84.6953 177.633 84.6953 175.35C84.6953 173.066 86.0352 171.48 88.0586 171.48C89.6172 171.48 91.2578 172.438 91.2578 175.186V175.678H85.8711C85.9258 177.25 86.8418 178.111 88.168 178.111C89.0566 178.111 89.6172 177.729 89.8906 177.264H91.1484C90.793 178.385 89.6992 179.15 88.168 179.15ZM85.8848 174.68H90.0684C90.0684 173.436 89.2754 172.52 88.0586 172.52C86.7734 172.52 85.9531 173.531 85.8848 174.68ZM92.7891 179V171.576H93.9238V172.738H94.0195C94.334 171.945 95.0449 171.48 96.0156 171.48C96.9863 171.48 97.6426 171.945 97.998 172.738H98.0801C98.4629 171.973 99.2422 171.48 100.309 171.48C101.635 171.48 102.578 172.287 102.578 174.037V179H101.402V174.051C101.402 172.957 100.705 172.533 99.8984 172.533C98.8594 172.533 98.2715 173.23 98.2715 174.174V179H97.082V173.928C97.082 173.094 96.4805 172.533 95.6328 172.533C94.7441 172.533 93.9648 173.285 93.9648 174.365V179H92.7891ZM111.205 179.137C109.004 179.137 107.746 177.291 107.746 174.051C107.746 170.838 109.031 168.965 111.205 168.965C113.379 168.965 114.664 170.838 114.664 174.051C114.664 177.291 113.393 179.137 111.205 179.137ZM111.205 178.043C112.627 178.043 113.461 176.607 113.461 174.051C113.461 171.494 112.627 170.031 111.205 170.031C109.783 170.031 108.936 171.494 108.936 174.051C108.936 176.607 109.77 178.043 111.205 178.043ZM116.059 176.977V175.965L120.516 169.102H122.033V175.896H123.414V176.977H122.033V179H120.857V176.977H116.059ZM117.385 175.896H120.857V170.66H120.734L117.385 175.814V175.896Z" fill="var(--sol-element-primary)"/>
<g clip-path="url(#clip2_1240_155010)">
<rect x="216" y="62" width="4" height="112" fill="var(--sol-border-solid-variant)"/>
</g>
</g>
</g>
<rect y="140" width="302" height="52" fill="url(#paint0_linear_1240_155010)"/>
</g>
<defs>
<filter id="filter0_dd_1240_155010" x="56" y="54" width="176" height="164" filterUnits="userSpaceOnUse" color-interpolation-filters="sRGB">
<feFlood flood-opacity="0" result="BackgroundImageFix"/>
<feColorMatrix in="SourceAlpha" type="matrix" values="0 0 0 0 0 0 0 0 0 0 0 0 0 0 0 0 0 0 127 0" result="hardAlpha"/>
<feOffset dy="4"/>
<feGaussianBlur stdDeviation="4"/>
<feComposite in2="hardAlpha" operator="out"/>
<feColorMatrix type="matrix" values="0 0 0 0 0 0 0 0 0 0 0 0 0 0 0 0 0 0 0.08 0"/>
<feBlend mode="normal" in2="BackgroundImageFix" result="effect1_dropShadow_1240_155010"/>
<feColorMatrix in="SourceAlpha" type="matrix" values="0 0 0 0 0 0 0 0 0 0 0 0 0 0 0 0 0 0 127 0" result="hardAlpha"/>
<feOffset/>
<feGaussianBlur stdDeviation="0.5"/>
<feComposite in2="hardAlpha" operator="out"/>
<feColorMatrix type="matrix" values="0 0 0 0 0 0 0 0 0 0 0 0 0 0 0 0 0 0 0.08 0"/>
<feBlend mode="normal" in2="effect1_dropShadow_1240_155010" result="effect2_dropShadow_1240_155010"/>
<feBlend mode="normal" in="SourceGraphic" in2="effect2_dropShadow_1240_155010" result="shape"/>
</filter>
<linearGradient id="paint0_linear_1240_155010" x1="259.531" y1="192" x2="259.531" y2="140" gradientUnits="userSpaceOnUse">
<stop stop-opacity="0.04"/>
<stop offset="1" stop-color="var(--sol-surface)" stop-opacity="0"/>
</linearGradient>
<clipPath id="clip0_1240_155010">
<rect width="288" height="192" fill="var(--sol-surface)"/>
</clipPath>
<clipPath id="clip1_1240_155010">
<path d="M64 62C64 59.7909 65.7909 58 68 58H220C222.209 58 224 59.7909 224 62V202C224 204.209 222.209 206 220 206H68C65.7909 206 64 204.209 64 202V62Z" fill="var(--sol-surface)"/>
</clipPath>
<clipPath id="clip2_1240_155010">
<path d="M216 64C216 62.8954 216.895 62 218 62C219.105 62 220 62.8954 220 64V172C220 173.105 219.105 174 218 174C216.895 174 216 173.105 216 172V64Z" fill="var(--sol-surface)"/>
</clipPath>
</defs>
</svg>
