<svg width="288" height="192" viewBox="0 0 288 192" fill="none" xmlns="http://www.w3.org/2000/svg">
<style>
:root {
  --sol-primary: #282363;
  --sol-element-brand-variant: #3a3480;
  --sol-fill-active: #4d469a;
  --sol-selected-container-variant: #f5f4fd;
  --sol-surface: #ffffff;
  --sol-surface-base-variant: #f5f5f5;
  --sol-secondary-container: #e8e6f8;
  --sol-element-primary: #161616;
  --sol-element-secondary: #484848;
  --sol-element-tertiary: #636363;
  --sol-element-quaternary: #858585;
  --sol-border-brand: #7b74c4;
  --sol-border-normal-variant: rgba(0, 0, 0, 0.08);
  --sol-border-solid-variant: #e0e0e0;
  --sol-border-solid: #d0d0d0;
  --sol-error: #e76067;
  --sol-error-container: #fdeaeb;
  --sol-static-white: #ffffff;
  --sol-static-black: #000000;
  --color-brand-400: #6058b4;
  --color-teal-500: #05a09a;
  --color-green-500: #35a142;
  --color-yellow-500: #d4ae00;
  --color-orange-500: #e06418;
  --color-blue-500: #3e9bca;
  --color-indigo-500: #3d5ed6;
  --color-pink-500: #d03e94;
}
@media (prefers-color-scheme: dark) {
  :root {
    --sol-primary: #9791d4;
    --sol-element-brand-variant: #ffffff;
    --sol-fill-active: #7b74c4;
    --sol-selected-container-variant: rgba(0, 0, 0, 0.08);
    --sol-surface: #161616;
    --sol-surface-base-variant: #1c1c1c;
    --sol-secondary-container: rgba(255, 255, 255, 0.16);
    --sol-element-primary: #ffffff;
    --sol-element-secondary: rgba(255, 255, 255, 0.8);
    --sol-element-tertiary: rgba(255, 255, 255, 0.6);
    --sol-element-quaternary: rgba(255, 255, 255, 0.5);
    --sol-border-brand: #7b74c4;
    --sol-border-normal-variant: rgba(255, 255, 255, 0.08);
    --sol-border-solid-variant: #3d3d3d;
    --sol-border-solid: #333333;
    --sol-error: #ee7a80;
    --sol-error-container: rgba(231, 96, 103, 0.24);
    --sol-static-white: #ffffff;
    --sol-static-black: #000000;
  }
}
</style>
<g clip-path="url(#clip0_1254_164206)">
<rect y="140" width="302" height="52" fill="url(#paint0_linear_1254_164206)"/>
<g filter="url(#filter0_dd_1254_164206)">
<rect x="19" y="28" width="250" height="137" rx="4" fill="var(--sol-surface)" shape-rendering="crispEdges"/>
<rect x="19.5" y="28.5" width="249" height="136" rx="3.5" stroke="var(--sol-border-solid-variant)" shape-rendering="crispEdges"/>
<rect x="128.662" y="73.1289" width="30.6748" height="30.6748" rx="15.3374" fill="var(--sol-border-solid)"/>
<path d="M144 91.1711C142.512 91.1711 141.295 89.954 141.295 88.4664C141.295 86.9788 142.512 85.7616 144 85.7616V79.9014C139.266 79.9014 135.435 83.7331 135.435 88.4664C135.435 93.1997 139.266 97.0314 144 97.0314C145.983 97.0314 147.831 96.3552 149.319 95.1831L145.713 90.5851C145.217 90.9457 144.631 91.1711 144 91.1711Z" fill="var(--sol-surface)"/>
<path d="M146.705 88.4664H152.565C152.565 83.7331 148.733 79.9014 144 79.9014V85.7616C145.488 85.7616 146.705 86.9788 146.705 88.4664Z" fill="var(--sol-border-normal-variant)"/>
<path d="M152.565 88.4668H146.705C146.705 89.3233 146.299 90.0896 145.668 90.5855L149.274 95.1836C151.303 93.6058 152.565 91.1715 152.565 88.4668Z" fill="var(--sol-border-solid-variant)"/>
<path d="M37.8438 114.256C37.7599 113.511 37.0784 113.082 36.1662 113.082C35.1597 113.082 34.4992 113.606 34.4992 114.329C34.4992 115.126 35.3904 115.42 35.967 115.566L36.7219 115.776C37.5397 115.986 38.8713 116.458 38.8713 117.873C38.8713 119.11 37.8752 120.075 36.1138 120.075C34.4782 120.075 33.4612 119.226 33.3773 117.967H34.3419C34.4258 118.817 35.2121 119.215 36.1138 119.215C37.1623 119.215 37.9486 118.68 37.9486 117.852C37.9486 117.118 37.2461 116.835 36.4493 116.604L35.5162 116.353C34.3209 116.007 33.587 115.399 33.587 114.371C33.587 113.092 34.7298 112.243 36.1977 112.243C37.6655 112.243 38.7245 113.103 38.7664 114.256H37.8438ZM42.436 120.054C40.8843 120.054 39.8358 118.89 39.8358 117.118C39.8358 115.346 40.8843 114.172 42.436 114.172C43.9772 114.172 45.0152 115.346 45.0152 117.118C45.0152 118.89 43.9772 120.054 42.436 120.054ZM42.436 119.257C43.5788 119.257 44.1135 118.25 44.1135 117.118C44.1135 115.986 43.5788 114.969 42.436 114.969C41.2722 114.969 40.7375 115.986 40.7375 117.118C40.7375 118.25 41.2722 119.257 42.436 119.257ZM46.2 119.938V114.245H47.0702V115.116H47.1331C47.3428 114.539 47.9299 114.151 48.6009 114.151C48.7372 114.151 48.9679 114.161 49.0727 114.172V115.084C49.0098 115.063 48.7582 115.021 48.5275 115.021C47.7097 115.021 47.1016 115.587 47.1016 116.353V119.938H46.2ZM49.9534 119.938V114.245H50.8237V115.116H50.8866C51.0963 114.539 51.6834 114.151 52.3544 114.151C52.4907 114.151 52.7214 114.161 52.8262 114.172V115.084C52.7633 115.063 52.5117 115.021 52.281 115.021C51.4632 115.021 50.8551 115.587 50.8551 116.353V119.938H49.9534ZM54.4618 122.077C54.2626 122.077 54.0739 122.067 53.9585 122.056V121.249C54.0529 121.26 54.2626 121.27 54.3989 121.27C54.7659 121.27 55.0699 121.239 55.374 120.41L55.5417 119.98L53.4343 114.245H54.4199L55.9716 118.764H56.0345L57.5862 114.245H58.5718L56.1603 120.756C55.8248 121.647 55.2691 122.077 54.4618 122.077ZM60.3961 119.236L59.5783 122.088H58.8024L59.3791 119.236H60.3961ZM64.3592 113.186V112.348H70.0838V113.186H67.7038V119.938H66.7497V113.186H64.3592ZM72.1283 116.521V119.938H71.2266V112.348H72.1283V115.137H72.2017C72.4638 114.549 72.9775 114.172 73.8792 114.172C75.043 114.172 75.8189 114.864 75.8189 116.321V119.938H74.9172V116.384C74.9172 115.493 74.4244 114.979 73.6066 114.979C72.7574 114.979 72.1283 115.535 72.1283 116.521ZM79.6562 120.054C78.0101 120.054 76.9931 118.89 76.9931 117.139C76.9931 115.388 78.0206 114.172 79.5723 114.172C80.7676 114.172 82.0257 114.906 82.0257 117.013V117.391H77.8948C77.9367 118.596 78.6392 119.257 79.6562 119.257C80.3377 119.257 80.7676 118.963 80.9773 118.607H81.9418C81.6693 119.467 80.8305 120.054 79.6562 120.054ZM77.9053 116.625H81.1136C81.1136 115.671 80.5055 114.969 79.5723 114.969C78.5868 114.969 77.9577 115.745 77.9053 116.625ZM83.2 119.938V114.245H84.0702V115.116H84.1331C84.3428 114.539 84.93 114.151 85.601 114.151C85.7373 114.151 85.9679 114.161 86.0728 114.172V115.084C86.0099 115.063 85.7582 115.021 85.5276 115.021C84.7098 115.021 84.1017 115.587 84.1017 116.353V119.938H83.2ZM89.1657 120.054C87.5196 120.054 86.5026 118.89 86.5026 117.139C86.5026 115.388 87.5301 114.172 89.0818 114.172C90.2771 114.172 91.5352 114.906 91.5352 117.013V117.391H87.4043C87.4462 118.596 88.1487 119.257 89.1657 119.257C89.8472 119.257 90.2771 118.963 90.4868 118.607H91.4514C91.1788 119.467 90.34 120.054 89.1657 120.054ZM87.4148 116.625H90.6231C90.6231 115.671 90.015 114.969 89.0818 114.969C88.0963 114.969 87.4672 115.745 87.4148 116.625ZM96.463 112.348V119.938H95.5194V112.348H96.463ZM101.192 115.724C101.066 115.252 100.709 114.937 100.038 114.937C99.3357 114.937 98.8325 115.315 98.8325 115.797C98.8325 116.175 99.1365 116.437 99.8076 116.594L100.657 116.804C101.674 117.045 102.177 117.548 102.177 118.345C102.177 119.33 101.37 120.054 99.9439 120.054C98.6647 120.054 97.8994 119.488 97.7526 118.45H98.6962C98.801 119.005 99.2099 119.267 99.9229 119.267C100.73 119.267 101.244 118.932 101.244 118.397C101.244 117.999 100.961 117.726 100.311 117.579L99.4511 117.38C98.455 117.15 97.9308 116.604 97.9308 115.849C97.9308 114.874 98.7801 114.172 100.038 114.172C101.212 114.172 101.957 114.801 102.072 115.724H101.192ZM112.19 112.348V119.938H111.288L107.178 114.025H107.105V119.938H106.161V112.348H107.073L111.183 118.271H111.257V112.348H112.19ZM116.08 120.054C114.528 120.054 113.479 118.89 113.479 117.118C113.479 115.346 114.528 114.172 116.08 114.172C117.621 114.172 118.659 115.346 118.659 117.118C118.659 118.89 117.621 120.054 116.08 120.054ZM116.08 119.257C117.222 119.257 117.757 118.25 117.757 117.118C117.757 115.986 117.222 114.969 116.08 114.969C114.916 114.969 114.381 115.986 114.381 117.118C114.381 118.25 114.916 119.257 116.08 119.257ZM122.328 114.245V115H121.133V118.303C121.133 119.037 121.49 119.152 121.878 119.152C122.045 119.152 122.276 119.142 122.412 119.131V119.97C122.276 119.991 122.045 120.012 121.783 120.012C121.028 120.012 120.221 119.54 120.221 118.534V115H119.361V114.245H120.221V112.882H121.133V114.245H122.328ZM126.302 119.938V112.348H130.905V113.186H127.246V115.724H130.664V116.552H127.246V119.1H130.957V119.938H126.302ZM133.18 116.521V119.938H132.278V114.245H133.148V115.137H133.222C133.494 114.56 134.019 114.172 134.889 114.172C136.042 114.172 136.808 114.874 136.808 116.321V119.938H135.906V116.384C135.906 115.504 135.424 114.979 134.616 114.979C133.788 114.979 133.18 115.535 133.18 116.521ZM140.582 120.054C139.03 120.054 137.982 118.89 137.982 117.118C137.982 115.346 139.03 114.172 140.582 114.172C142.123 114.172 143.161 115.346 143.161 117.118C143.161 118.89 142.123 120.054 140.582 120.054ZM140.582 119.257C141.725 119.257 142.26 118.25 142.26 117.118C142.26 115.986 141.725 114.969 140.582 114.969C139.418 114.969 138.884 115.986 138.884 117.118C138.884 118.25 139.418 119.257 140.582 119.257ZM147.942 117.6V114.245H148.833V119.938H147.942V118.974H147.879C147.607 119.551 147.051 120.012 146.191 120.012C145.111 120.012 144.346 119.309 144.346 117.863V114.245H145.248V117.8C145.248 118.617 145.761 119.142 146.485 119.142C147.124 119.142 147.942 118.659 147.942 117.6ZM152.587 122.193C151.213 122.193 150.28 121.595 150.175 120.536H151.119C151.245 121.113 151.78 121.406 152.587 121.406C153.562 121.406 154.16 120.987 154.16 120.043V118.89H154.086C153.897 119.205 153.53 119.855 152.43 119.855C151.046 119.855 150.008 118.806 150.008 117.013C150.008 115.262 151.014 114.172 152.44 114.172C153.541 114.172 153.897 114.843 154.107 115.147H154.181V114.245H155.061V120.096C155.061 121.564 153.971 122.193 152.587 122.193ZM152.555 119.047C153.593 119.047 154.181 118.303 154.181 117.045C154.181 115.829 153.614 114.979 152.555 114.979C151.465 114.979 150.92 115.902 150.92 117.045C150.92 118.229 151.475 119.047 152.555 119.047ZM157.399 116.521V119.938H156.498V112.348H157.399V115.137H157.473C157.735 114.549 158.249 114.172 159.15 114.172C160.314 114.172 161.09 114.864 161.09 116.321V119.938H160.188V116.384C160.188 115.493 159.695 114.979 158.878 114.979C158.028 114.979 157.399 115.535 157.399 116.521ZM167.706 119.938H165.347V112.348H167.8C170.012 112.348 171.323 113.774 171.323 116.133C171.323 118.502 170.012 119.938 167.706 119.938ZM166.29 119.1H167.643C169.509 119.1 170.4 117.978 170.4 116.133C170.4 114.298 169.509 113.186 167.737 113.186H166.29V119.1ZM172.319 118.324C172.319 117.013 173.472 116.72 174.458 116.646C174.819 116.62 175.742 116.573 175.999 116.562V116.101C175.999 115.378 175.569 114.958 174.709 114.958C173.986 114.958 173.556 115.294 173.43 115.724H172.487C172.602 114.812 173.493 114.172 174.751 114.172C175.496 114.172 176.89 114.392 176.89 116.185V119.938H175.999V119.163H175.957C175.768 119.551 175.244 120.075 174.258 120.075C173.179 120.075 172.319 119.435 172.319 118.324ZM173.22 118.366C173.22 118.963 173.724 119.267 174.416 119.267C175.433 119.267 175.999 118.586 175.999 117.873V117.296L174.563 117.401C173.745 117.454 173.22 117.747 173.22 118.366ZM180.822 114.245V115H179.627V118.303C179.627 119.037 179.983 119.152 180.371 119.152C180.539 119.152 180.769 119.142 180.906 119.131V119.97C180.769 119.991 180.539 120.012 180.277 120.012C179.522 120.012 178.714 119.54 178.714 118.534V115H177.855V114.245H178.714V112.882H179.627V114.245H180.822ZM181.713 118.324C181.713 117.013 182.866 116.72 183.852 116.646C184.214 116.62 185.136 116.573 185.393 116.562V116.101C185.393 115.378 184.963 114.958 184.103 114.958C183.38 114.958 182.95 115.294 182.824 115.724H181.881C181.996 114.812 182.887 114.172 184.145 114.172C184.89 114.172 186.284 114.392 186.284 116.185V119.938H185.393V119.163H185.351C185.162 119.551 184.638 120.075 183.653 120.075C182.573 120.075 181.713 119.435 181.713 118.324ZM182.615 118.366C182.615 118.963 183.118 119.267 183.81 119.267C184.827 119.267 185.393 118.586 185.393 117.873V117.296L183.957 117.401C183.139 117.454 182.615 117.747 182.615 118.366ZM190.541 119.938V112.348H195.112V113.186H191.485V115.724H194.766V116.552H191.485V119.938H190.541ZM198.321 120.054C196.769 120.054 195.72 118.89 195.72 117.118C195.72 115.346 196.769 114.172 198.321 114.172C199.862 114.172 200.9 115.346 200.9 117.118C200.9 118.89 199.862 120.054 198.321 120.054ZM198.321 119.257C199.463 119.257 199.998 118.25 199.998 117.118C199.998 115.986 199.463 114.969 198.321 114.969C197.157 114.969 196.622 115.986 196.622 117.118C196.622 118.25 197.157 119.257 198.321 119.257ZM202.084 119.938V114.245H202.955V115.116H203.018C203.227 114.539 203.814 114.151 204.485 114.151C204.622 114.151 204.852 114.161 204.957 114.172V115.084C204.894 115.063 204.643 115.021 204.412 115.021C203.594 115.021 202.986 115.587 202.986 116.353V119.938H202.084ZM208.228 113.186V112.348H213.953V113.186H211.573V119.938H210.619V113.186H208.228ZM215.998 116.521V119.938H215.096V112.348H215.998V115.137H216.071C216.333 114.549 216.847 114.172 217.748 114.172C218.912 114.172 219.688 114.864 219.688 116.321V119.938H218.786V116.384C218.786 115.493 218.294 114.979 217.476 114.979C216.627 114.979 215.998 115.535 215.998 116.521ZM220.862 118.324C220.862 117.013 222.016 116.72 223.001 116.646C223.363 116.62 224.286 116.573 224.542 116.562V116.101C224.542 115.378 224.113 114.958 223.253 114.958C222.529 114.958 222.1 115.294 221.974 115.724H221.03C221.145 114.812 222.037 114.172 223.295 114.172C224.039 114.172 225.434 114.392 225.434 116.185V119.938H224.542V119.163H224.501C224.312 119.551 223.788 120.075 222.802 120.075C221.722 120.075 220.862 119.435 220.862 118.324ZM221.764 118.366C221.764 118.963 222.267 119.267 222.959 119.267C223.976 119.267 224.542 118.586 224.542 117.873V117.296L223.106 117.401C222.288 117.454 221.764 117.747 221.764 118.366ZM229.365 114.245V115H228.17V118.303C228.17 119.037 228.527 119.152 228.915 119.152C229.082 119.152 229.313 119.142 229.449 119.131V119.97C229.313 119.991 229.082 120.012 228.82 120.012C228.065 120.012 227.258 119.54 227.258 118.534V115H226.398V114.245H227.258V112.882H228.17V114.245H229.365ZM235.698 119.938H233.339V112.348H235.792C238.005 112.348 239.315 113.774 239.315 116.133C239.315 118.502 238.005 119.938 235.698 119.938ZM234.283 119.1H235.635C237.501 119.1 238.393 117.978 238.393 116.133C238.393 114.298 237.501 113.186 235.729 113.186H234.283V119.1ZM240.311 118.324C240.311 117.013 241.465 116.72 242.45 116.646C242.812 116.62 243.734 116.573 243.991 116.562V116.101C243.991 115.378 243.561 114.958 242.702 114.958C241.978 114.958 241.548 115.294 241.423 115.724H240.479C240.594 114.812 241.485 114.172 242.744 114.172C243.488 114.172 244.882 114.392 244.882 116.185V119.938H243.991V119.163H243.949C243.761 119.551 243.236 120.075 242.251 120.075C241.171 120.075 240.311 119.435 240.311 118.324ZM241.213 118.366C241.213 118.963 241.716 119.267 242.408 119.267C243.425 119.267 243.991 118.586 243.991 117.873V117.296L242.555 117.401C241.737 117.454 241.213 117.747 241.213 118.366ZM248.814 114.245V115H247.619V118.303C247.619 119.037 247.975 119.152 248.363 119.152C248.531 119.152 248.762 119.142 248.898 119.131V119.97C248.762 119.991 248.531 120.012 248.269 120.012C247.514 120.012 246.707 119.54 246.707 118.534V115H245.847V114.245H246.707V112.882H247.619V114.245H248.814ZM252.316 120.054C250.67 120.054 249.653 118.89 249.653 117.139C249.653 115.388 250.68 114.172 252.232 114.172C253.427 114.172 254.686 114.906 254.686 117.013V117.391H250.555C250.597 118.596 251.299 119.257 252.316 119.257C252.998 119.257 253.427 118.963 253.637 118.607H254.602C254.329 119.467 253.49 120.054 252.316 120.054ZM250.565 116.625H253.773C253.773 115.671 253.165 114.969 252.232 114.969C251.247 114.969 250.618 115.745 250.565 116.625Z" fill="var(--sol-element-primary)" fill-opacity="0.3"/>
</g>
</g>
<defs>
<filter id="filter0_dd_1254_164206" x="12.865" y="24.9325" width="262.27" height="149.27" filterUnits="userSpaceOnUse" color-interpolation-filters="sRGB">
<feFlood flood-opacity="0" result="BackgroundImageFix"/>
<feColorMatrix in="SourceAlpha" type="matrix" values="0 0 0 0 0 0 0 0 0 0 0 0 0 0 0 0 0 0 127 0" result="hardAlpha"/>
<feOffset dy="3.06748"/>
<feGaussianBlur stdDeviation="3.06748"/>
<feComposite in2="hardAlpha" operator="out"/>
<feColorMatrix type="matrix" values="0 0 0 0 0 0 0 0 0 0 0 0 0 0 0 0 0 0 0.08 0"/>
<feBlend mode="normal" in2="BackgroundImageFix" result="effect1_dropShadow_1254_164206"/>
<feColorMatrix in="SourceAlpha" type="matrix" values="0 0 0 0 0 0 0 0 0 0 0 0 0 0 0 0 0 0 127 0" result="hardAlpha"/>
<feOffset/>
<feGaussianBlur stdDeviation="0.383436"/>
<feComposite in2="hardAlpha" operator="out"/>
<feColorMatrix type="matrix" values="0 0 0 0 0 0 0 0 0 0 0 0 0 0 0 0 0 0 0.08 0"/>
<feBlend mode="normal" in2="effect1_dropShadow_1254_164206" result="effect2_dropShadow_1254_164206"/>
<feBlend mode="normal" in="SourceGraphic" in2="effect2_dropShadow_1254_164206" result="shape"/>
</filter>
<linearGradient id="paint0_linear_1254_164206" x1="259.531" y1="192" x2="259.531" y2="140" gradientUnits="userSpaceOnUse">
<stop stop-opacity="0.04"/>
<stop offset="1" stop-color="var(--sol-surface)" stop-opacity="0"/>
</linearGradient>
<clipPath id="clip0_1254_164206">
<rect width="288" height="192" fill="var(--sol-surface)"/>
</clipPath>
</defs>
</svg>
