<svg width="288" height="192" viewBox="0 0 288 192" fill="none" xmlns="http://www.w3.org/2000/svg">
<style>
:root {
  --sol-primary: #282363;
  --sol-element-brand-variant: #3a3480;
  --sol-fill-active: #4d469a;
  --sol-selected-container-variant: #f5f4fd;
  --sol-surface: #ffffff;
  --sol-surface-base-variant: #f5f5f5;
  --sol-secondary-container: #e8e6f8;
  --sol-element-primary: #161616;
  --sol-element-secondary: #484848;
  --sol-element-tertiary: #636363;
  --sol-element-quaternary: #858585;
  --sol-border-brand: #7b74c4;
  --sol-border-normal-variant: rgba(0, 0, 0, 0.08);
  --sol-border-solid-variant: #e0e0e0;
  --sol-border-solid: #d0d0d0;
  --sol-error: #e76067;
  --sol-error-container: #fdeaeb;
  --sol-static-white: #ffffff;
  --sol-static-black: #000000;
  --color-brand-400: #6058b4;
  --color-teal-500: #05a09a;
  --color-green-500: #35a142;
  --color-yellow-500: #d4ae00;
  --color-orange-500: #e06418;
  --color-blue-500: #3e9bca;
  --color-indigo-500: #3d5ed6;
  --color-pink-500: #d03e94;
}
@media (prefers-color-scheme: dark) {
  :root {
    --sol-primary: #9791d4;
    --sol-element-brand-variant: #ffffff;
    --sol-fill-active: #7b74c4;
    --sol-selected-container-variant: rgba(0, 0, 0, 0.08);
    --sol-surface: #161616;
    --sol-surface-base-variant: #1c1c1c;
    --sol-secondary-container: rgba(255, 255, 255, 0.16);
    --sol-element-primary: #ffffff;
    --sol-element-secondary: rgba(255, 255, 255, 0.8);
    --sol-element-tertiary: rgba(255, 255, 255, 0.6);
    --sol-element-quaternary: rgba(255, 255, 255, 0.5);
    --sol-border-brand: #7b74c4;
    --sol-border-normal-variant: rgba(255, 255, 255, 0.08);
    --sol-border-solid-variant: #3d3d3d;
    --sol-border-solid: #333333;
    --sol-error: #ee7a80;
    --sol-error-container: rgba(231, 96, 103, 0.24);
    --sol-static-white: #ffffff;
    --sol-static-black: #000000;
  }
}
</style>
<g clip-path="url(#clip0_1266_122845)">
<rect width="288" height="192" fill="var(--sol-surface-base-variant)"/>
<g filter="url(#filter0_dd_1266_122845)">
<rect x="40" y="-117" width="454" height="269" rx="4" fill="var(--sol-surface)" shape-rendering="crispEdges"/>
<rect x="40.5" y="-116.5" width="453" height="268" rx="3.5" stroke="var(--sol-border-solid-variant)" shape-rendering="crispEdges"/>
<path d="M62.9542 21.837C61.6165 21.837 60.6596 21.1217 60.6131 20.0533H61.4585C61.505 20.6944 62.146 21.0938 62.9449 21.0938C63.8275 21.0938 64.4778 20.6108 64.4778 19.914C64.4778 19.1801 63.8925 18.6598 62.8428 18.6598H62.2946V17.9259H62.8428C63.6603 17.9259 64.227 17.4707 64.227 16.774C64.227 16.1051 63.7346 15.6499 62.9728 15.6499C62.2575 15.6499 61.5979 16.0493 61.5607 16.7089H60.7525C60.7989 15.6406 61.7837 14.9252 62.9821 14.9252C64.2641 14.9252 65.0445 15.7613 65.0352 16.7275C65.0445 17.4893 64.5986 18.056 63.8925 18.2511V18.2975C64.7658 18.4369 65.3046 19.0593 65.2953 19.914C65.3046 21.0195 64.292 21.837 62.9542 21.837ZM68.7048 21.837C67.2091 21.837 66.3544 20.5829 66.3544 18.3811C66.3544 16.198 67.2277 14.9252 68.7048 14.9252C70.1819 14.9252 71.0552 16.198 71.0552 18.3811C71.0552 20.5829 70.1912 21.837 68.7048 21.837ZM68.7048 21.0938C69.671 21.0938 70.2376 20.1184 70.2376 18.3811C70.2376 16.6439 69.671 15.6499 68.7048 15.6499C67.7386 15.6499 67.1626 16.6439 67.1626 18.3811C67.1626 20.1184 67.7293 21.0938 68.7048 21.0938Z" fill="var(--sol-element-quaternary)"/>
<rect x="96.4668" y="18.3477" width="606.367" height="0.792752" fill="var(--sol-border-solid-variant)"/>
<path d="M60.6317 47.9336L60.6224 47.3204L62.9171 44.905C63.716 44.0596 64.0969 43.6044 64.0969 42.982C64.0969 42.2945 63.5116 41.8393 62.7591 41.8393C61.9602 41.8393 61.4492 42.3503 61.4492 43.1028H60.6596C60.6503 41.9136 61.57 41.1147 62.787 41.1147C64.004 41.1147 64.8773 41.9322 64.8773 42.982C64.8773 43.7345 64.5243 44.3198 63.3351 45.546L61.793 47.1346V47.1904H64.9981V47.9336H60.6317ZM68.4168 48.0265C66.9211 48.0265 66.0664 46.7723 66.0664 44.5706C66.0664 42.3874 66.9397 41.1147 68.4168 41.1147C69.8939 41.1147 70.7672 42.3874 70.7672 44.5706C70.7672 46.7723 69.9032 48.0265 68.4168 48.0265ZM68.4168 47.2833C69.383 47.2833 69.9497 46.3078 69.9497 44.5706C69.9497 42.8334 69.383 41.8393 68.4168 41.8393C67.4506 41.8393 66.8746 42.8334 66.8746 44.5706C66.8746 46.3078 67.4413 47.2833 68.4168 47.2833Z" fill="var(--sol-element-quaternary)"/>
<rect x="96.4668" y="44.5371" width="606.367" height="0.792752" fill="var(--sol-border-solid-variant)"/>
<path d="M63.01 67.399V74.125H62.1646V68.2723H62.1274L60.4924 69.3592V68.5138L62.1646 67.399H63.01ZM67.0047 74.2179C65.509 74.2179 64.6543 72.9637 64.6543 70.762C64.6543 68.5788 65.5276 67.3061 67.0047 67.3061C68.4818 67.3061 69.3551 68.5788 69.3551 70.762C69.3551 72.9637 68.4911 74.2179 67.0047 74.2179ZM67.0047 73.4747C67.9709 73.4747 68.5376 72.4992 68.5376 70.762C68.5376 69.0248 67.9709 68.0307 67.0047 68.0307C66.0385 68.0307 65.4626 69.0248 65.4626 70.762C65.4626 72.4992 66.0292 73.4747 67.0047 73.4747Z" fill="var(--sol-element-quaternary)"/>
<rect x="96.4668" y="70.7285" width="606.367" height="0.792752" fill="var(--sol-border-solid-variant)"/>
<path d="M62.8335 100.409C61.3378 100.409 60.4831 99.1551 60.4831 96.9534C60.4831 94.7702 61.3563 93.4975 62.8335 93.4975C64.3106 93.4975 65.1839 94.7702 65.1839 96.9534C65.1839 99.1551 64.3199 100.409 62.8335 100.409ZM62.8335 99.6661C63.7996 99.6661 64.3663 98.6906 64.3663 96.9534C64.3663 95.2162 63.7996 94.2221 62.8335 94.2221C61.8673 94.2221 61.2913 95.2162 61.2913 96.9534C61.2913 98.6906 61.858 99.6661 62.8335 99.6661Z" fill="var(--sol-element-quaternary)"/>
<rect x="96.4668" y="102.523" width="606.367" height="0.792752" fill="var(--sol-border-solid-variant)"/>
<path d="M113.643 120.682C114.804 120.691 116.085 121.388 116.085 123.868C116.085 126.255 115.11 127.593 113.531 127.593C112.351 127.593 111.515 126.868 111.348 125.8H112.175C112.324 126.404 112.779 126.85 113.531 126.85C114.627 126.85 115.296 125.902 115.305 124.268H115.212C114.822 124.825 114.209 125.159 113.494 125.159C112.286 125.159 111.292 124.24 111.292 122.939C111.292 121.685 112.212 120.673 113.643 120.682ZM113.643 121.416C112.76 121.416 112.101 122.103 112.11 122.93C112.11 123.766 112.732 124.425 113.615 124.425C114.488 124.425 115.175 123.701 115.175 122.911C115.175 122.14 114.534 121.416 113.643 121.416ZM117.813 126.608C117.488 126.608 117.209 126.339 117.219 126.005C117.209 125.679 117.488 125.41 117.813 125.41C118.138 125.41 118.408 125.679 118.408 126.005C118.408 126.339 118.138 126.608 117.813 126.608ZM117.813 122.874C117.488 122.874 117.209 122.605 117.219 122.271C117.209 121.945 117.488 121.676 117.813 121.676C118.138 121.676 118.408 121.945 118.408 122.271C118.408 122.605 118.138 122.874 117.813 122.874ZM121.854 127.593C120.358 127.593 119.504 126.339 119.504 124.138C119.504 121.955 120.377 120.682 121.854 120.682C123.331 120.682 124.204 121.955 124.204 124.138C124.204 126.339 123.34 127.593 121.854 127.593ZM121.854 126.85C122.82 126.85 123.386 125.874 123.386 124.138C123.386 122.401 122.82 121.407 121.854 121.407C120.888 121.407 120.312 122.401 120.312 124.138C120.312 125.874 120.878 126.85 121.854 126.85ZM127.52 127.593C126.024 127.593 125.17 126.339 125.17 124.138C125.17 121.955 126.043 120.682 127.52 120.682C128.997 120.682 129.87 121.955 129.87 124.138C129.87 126.339 129.006 127.593 127.52 127.593ZM127.52 126.85C128.486 126.85 129.052 125.874 129.052 124.138C129.052 122.401 128.486 121.407 127.52 121.407C126.554 121.407 125.978 122.401 125.978 124.138C125.978 125.874 126.544 126.85 127.52 126.85Z" fill="var(--sol-element-quaternary)"/>
<path d="M158.905 120.775V127.5H158.06V121.648H158.023L156.388 122.735V121.89L158.06 120.775H158.905ZM162.899 127.593C161.404 127.593 160.549 126.339 160.549 124.138C160.549 121.955 161.422 120.682 162.899 120.682C164.376 120.682 165.249 121.955 165.249 124.138C165.249 126.339 164.385 127.593 162.899 127.593ZM162.899 126.85C163.865 126.85 164.432 125.874 164.432 124.138C164.432 122.401 163.865 121.407 162.899 121.407C161.933 121.407 161.357 122.401 161.357 124.138C161.357 125.874 161.924 126.85 162.899 126.85ZM166.94 126.608C166.615 126.608 166.336 126.339 166.345 126.005C166.336 125.679 166.615 125.41 166.94 125.41C167.265 125.41 167.534 125.679 167.534 126.005C167.534 126.339 167.265 126.608 166.94 126.608ZM166.94 122.874C166.615 122.874 166.336 122.605 166.345 122.271C166.336 121.945 166.615 121.676 166.94 121.676C167.265 121.676 167.534 121.945 167.534 122.271C167.534 122.605 167.265 122.874 166.94 122.874ZM170.98 127.593C169.485 127.593 168.63 126.339 168.63 124.138C168.63 121.955 169.503 120.682 170.98 120.682C172.457 120.682 173.33 121.955 173.33 124.138C173.33 126.339 172.466 127.593 170.98 127.593ZM170.98 126.85C171.946 126.85 172.513 125.874 172.513 124.138C172.513 122.401 171.946 121.407 170.98 121.407C170.014 121.407 169.438 122.401 169.438 124.138C169.438 125.874 170.005 126.85 170.98 126.85ZM176.646 127.593C175.151 127.593 174.296 126.339 174.296 124.138C174.296 121.955 175.169 120.682 176.646 120.682C178.123 120.682 178.996 121.955 178.996 124.138C178.996 126.339 178.133 127.593 176.646 127.593ZM176.646 126.85C177.612 126.85 178.179 125.874 178.179 124.138C178.179 122.401 177.612 121.407 176.646 121.407C175.68 121.407 175.104 122.401 175.104 124.138C175.104 125.874 175.671 126.85 176.646 126.85Z" fill="var(--sol-element-quaternary)"/>
<path d="M206.778 120.775V127.5H205.933V121.648H205.895L204.261 122.735V121.89L205.933 120.775H206.778ZM210.948 120.775V127.5H210.103V121.648H210.066L208.431 122.735V121.89L210.103 120.775H210.948ZM213.317 126.608C212.992 126.608 212.713 126.339 212.723 126.005C212.713 125.679 212.992 125.41 213.317 125.41C213.642 125.41 213.912 125.679 213.912 126.005C213.912 126.339 213.642 126.608 213.317 126.608ZM213.317 122.874C212.992 122.874 212.713 122.605 212.723 122.271C212.713 121.945 212.992 121.676 213.317 121.676C213.642 121.676 213.912 121.945 213.912 122.271C213.912 122.605 213.642 122.874 213.317 122.874ZM217.358 127.593C215.862 127.593 215.008 126.339 215.008 124.138C215.008 121.955 215.881 120.682 217.358 120.682C218.834 120.682 219.708 121.955 219.708 124.138C219.708 126.339 218.844 127.593 217.358 127.593ZM217.358 126.85C218.324 126.85 218.89 125.874 218.89 124.138C218.89 122.401 218.324 121.407 217.358 121.407C216.392 121.407 215.816 122.401 215.816 124.138C215.816 125.874 216.382 126.85 217.358 126.85ZM223.024 127.593C221.528 127.593 220.674 126.339 220.674 124.138C220.674 121.955 221.547 120.682 223.024 120.682C224.5 120.682 225.374 121.955 225.374 124.138C225.374 126.339 224.51 127.593 223.024 127.593ZM223.024 126.85C223.99 126.85 224.556 125.874 224.556 124.138C224.556 122.401 223.99 121.407 223.024 121.407C222.058 121.407 221.482 122.401 221.482 124.138C221.482 125.874 222.048 126.85 223.024 126.85Z" fill="var(--sol-element-quaternary)"/>
<path d="M253.197 120.775V127.5H252.352V121.648H252.315L250.68 122.735V121.89L252.352 120.775H253.197ZM254.99 127.5L254.98 126.887L257.275 124.472C258.073 123.627 258.454 123.172 258.454 122.549C258.454 121.862 257.869 121.407 257.117 121.407C256.318 121.407 255.807 121.918 255.807 122.67H255.018C255.008 121.481 255.928 120.682 257.145 120.682C258.361 120.682 259.235 121.5 259.235 122.549C259.235 123.302 258.882 123.887 257.693 125.113L256.151 126.701V126.757H259.355V127.5H254.99ZM261.148 126.608C260.823 126.608 260.544 126.339 260.553 126.005C260.544 125.679 260.823 125.41 261.148 125.41C261.473 125.41 261.742 125.679 261.742 126.005C261.742 126.339 261.473 126.608 261.148 126.608ZM261.148 122.874C260.823 122.874 260.544 122.605 260.553 122.271C260.544 121.945 260.823 121.676 261.148 121.676C261.473 121.676 261.742 121.945 261.742 122.271C261.742 122.605 261.473 122.874 261.148 122.874ZM265.189 127.593C263.693 127.593 262.838 126.339 262.838 124.138C262.838 121.955 263.712 120.682 265.189 120.682C266.665 120.682 267.539 121.955 267.539 124.138C267.539 126.339 266.675 127.593 265.189 127.593ZM265.189 126.85C266.155 126.85 266.721 125.874 266.721 124.138C266.721 122.401 266.155 121.407 265.189 121.407C264.222 121.407 263.647 122.401 263.647 124.138C263.647 125.874 264.213 126.85 265.189 126.85ZM270.855 127.593C269.359 127.593 268.505 126.339 268.505 124.138C268.505 121.955 269.378 120.682 270.855 120.682C272.331 120.682 273.205 121.955 273.205 124.138C273.205 126.339 272.341 127.593 270.855 127.593ZM270.855 126.85C271.821 126.85 272.387 125.874 272.387 124.138C272.387 122.401 271.821 121.407 270.855 121.407C269.889 121.407 269.313 122.401 269.313 124.138C269.313 125.874 269.879 126.85 270.855 126.85Z" fill="var(--sol-element-quaternary)"/>
<rect width="14" height="51" transform="translate(114 52)" fill="var(--sol-element-primary)" fill-opacity="0.04"/>
<rect width="14" height="72" transform="translate(160.667 31)" fill="var(--sol-element-primary)" fill-opacity="0.04"/>
<rect width="14" height="88" transform="translate(207.333 15)" fill="var(--sol-element-primary)" fill-opacity="0.04"/>
<rect width="14" height="72" transform="translate(254 31)" fill="var(--sol-element-primary)" fill-opacity="0.04"/>
</g>
</g>
<defs>
<filter id="filter0_dd_1266_122845" x="32" y="-121" width="678.834" height="285" filterUnits="userSpaceOnUse" color-interpolation-filters="sRGB">
<feFlood flood-opacity="0" result="BackgroundImageFix"/>
<feColorMatrix in="SourceAlpha" type="matrix" values="0 0 0 0 0 0 0 0 0 0 0 0 0 0 0 0 0 0 127 0" result="hardAlpha"/>
<feOffset dy="4"/>
<feGaussianBlur stdDeviation="4"/>
<feComposite in2="hardAlpha" operator="out"/>
<feColorMatrix type="matrix" values="0 0 0 0 0 0 0 0 0 0 0 0 0 0 0 0 0 0 0.08 0"/>
<feBlend mode="normal" in2="BackgroundImageFix" result="effect1_dropShadow_1266_122845"/>
<feColorMatrix in="SourceAlpha" type="matrix" values="0 0 0 0 0 0 0 0 0 0 0 0 0 0 0 0 0 0 127 0" result="hardAlpha"/>
<feOffset/>
<feGaussianBlur stdDeviation="0.5"/>
<feComposite in2="hardAlpha" operator="out"/>
<feColorMatrix type="matrix" values="0 0 0 0 0 0 0 0 0 0 0 0 0 0 0 0 0 0 0.08 0"/>
<feBlend mode="normal" in2="effect1_dropShadow_1266_122845" result="effect2_dropShadow_1266_122845"/>
<feBlend mode="normal" in="SourceGraphic" in2="effect2_dropShadow_1266_122845" result="shape"/>
</filter>
<clipPath id="clip0_1266_122845">
<rect width="288" height="192" fill="var(--sol-surface)"/>
</clipPath>
</defs>
</svg>
