<svg width="288" height="192" viewBox="0 0 288 192" fill="none" xmlns="http://www.w3.org/2000/svg">
<style>
:root {
  --sol-primary: #282363;
  --sol-element-brand-variant: #3a3480;
  --sol-fill-active: #4d469a;
  --sol-selected-container-variant: #f5f4fd;
  --sol-surface: #ffffff;
  --sol-surface-base-variant: #f5f5f5;
  --sol-secondary-container: #e8e6f8;
  --sol-element-primary: #161616;
  --sol-element-secondary: #484848;
  --sol-element-tertiary: #636363;
  --sol-element-quaternary: #858585;
  --sol-border-brand: #7b74c4;
  --sol-border-normal-variant: rgba(0, 0, 0, 0.08);
  --sol-border-solid-variant: #e0e0e0;
  --sol-border-solid: #d0d0d0;
  --sol-error: #e76067;
  --sol-error-container: #fdeaeb;
  --sol-static-white: #ffffff;
  --sol-static-black: #000000;
  --color-brand-400: #6058b4;
  --color-teal-500: #05a09a;
  --color-green-500: #35a142;
  --color-yellow-500: #d4ae00;
  --color-orange-500: #e06418;
  --color-blue-500: #3e9bca;
  --color-indigo-500: #3d5ed6;
  --color-pink-500: #d03e94;
}
@media (prefers-color-scheme: dark) {
  :root {
    --sol-primary: #9791d4;
    --sol-element-brand-variant: #ffffff;
    --sol-fill-active: #7b74c4;
    --sol-selected-container-variant: rgba(0, 0, 0, 0.08);
    --sol-surface: #161616;
    --sol-surface-base-variant: #1c1c1c;
    --sol-secondary-container: rgba(255, 255, 255, 0.16);
    --sol-element-primary: #ffffff;
    --sol-element-secondary: rgba(255, 255, 255, 0.8);
    --sol-element-tertiary: rgba(255, 255, 255, 0.6);
    --sol-element-quaternary: rgba(255, 255, 255, 0.5);
    --sol-border-brand: #7b74c4;
    --sol-border-normal-variant: rgba(255, 255, 255, 0.08);
    --sol-border-solid-variant: #3d3d3d;
    --sol-border-solid: #333333;
    --sol-error: #ee7a80;
    --sol-error-container: rgba(231, 96, 103, 0.24);
    --sol-static-white: #ffffff;
    --sol-static-black: #000000;
  }
}
</style>
<g clip-path="url(#clip0_1254_160433)">
<path d="M92 96C92 83.8497 101.85 74 114 74C126.15 74 136 83.8497 136 96C136 108.15 126.15 118 114 118C101.85 118 92 108.15 92 96Z" fill="var(--sol-primary)"/>
<path d="M105.321 102.783V99.833H106.821V102.783C106.821 103.052 106.822 103.209 106.831 103.324C106.835 103.374 106.84 103.402 106.843 103.414C106.858 103.441 106.88 103.462 106.906 103.478C106.918 103.48 106.945 103.486 106.997 103.49C107.112 103.5 107.269 103.5 107.538 103.5H121.105C121.373 103.5 121.53 103.5 121.646 103.49C121.696 103.486 121.723 103.48 121.735 103.478C121.762 103.463 121.784 103.441 121.799 103.414C121.802 103.402 121.807 103.375 121.812 103.324C121.821 103.209 121.821 103.052 121.821 102.783V99.833H123.321V102.783C123.321 103.027 123.322 103.256 123.307 103.446C123.294 103.596 123.27 103.758 123.211 103.924L123.14 104.09C123 104.364 122.787 104.594 122.526 104.754L122.411 104.818C122.19 104.931 121.967 104.969 121.768 104.985C121.577 105.001 121.349 105 121.105 105H107.538C107.294 105 107.065 105.001 106.875 104.985C106.726 104.973 106.563 104.949 106.397 104.89L106.231 104.818C105.918 104.659 105.663 104.403 105.503 104.09C105.39 103.868 105.352 103.645 105.336 103.446C105.32 103.256 105.321 103.027 105.321 102.783ZM113.571 87H115.071V98.7725L119.821 94.0225L120.882 95.083L114.852 101.113C114.559 101.406 114.084 101.406 113.791 101.113L107.761 95.083L108.821 94.0225L113.571 98.7725V87Z" fill="var(--sol-surface)"/>
</g>
<g clip-path="url(#clip1_1254_160433)">
<path d="M152 96C152 83.8497 161.85 74 174 74C186.15 74 196 83.8497 196 96C196 108.15 186.15 118 174 118C161.85 118 152 108.15 152 96Z" fill="var(--sol-surface)"/>
<path d="M165.321 102.783V99.833H166.821V102.783C166.821 103.052 166.822 103.209 166.831 103.324C166.835 103.374 166.84 103.402 166.843 103.414C166.858 103.441 166.88 103.462 166.906 103.478C166.918 103.48 166.945 103.486 166.997 103.49C167.112 103.5 167.269 103.5 167.538 103.5H181.105C181.373 103.5 181.53 103.5 181.646 103.49C181.696 103.486 181.723 103.48 181.735 103.478C181.762 103.463 181.784 103.441 181.799 103.414C181.802 103.402 181.807 103.375 181.812 103.324C181.821 103.209 181.821 103.052 181.821 102.783V99.833H183.321V102.783C183.321 103.027 183.322 103.256 183.307 103.446C183.294 103.596 183.27 103.758 183.211 103.924L183.14 104.09C183 104.364 182.787 104.594 182.526 104.754L182.411 104.818C182.19 104.931 181.967 104.969 181.768 104.985C181.577 105.001 181.349 105 181.105 105H167.538C167.294 105 167.065 105.001 166.875 104.985C166.726 104.973 166.563 104.949 166.397 104.89L166.231 104.818C165.918 104.659 165.663 104.403 165.503 104.09C165.39 103.868 165.352 103.645 165.336 103.446C165.32 103.256 165.321 103.027 165.321 102.783ZM173.571 87H175.071V98.7725L179.821 94.0225L180.882 95.083L174.852 101.113C174.559 101.406 174.084 101.406 173.791 101.113L167.761 95.083L168.821 94.0225L173.571 98.7725V87Z" fill="var(--sol-primary)"/>
</g>
<path d="M174 74.5C185.874 74.5 195.5 84.1259 195.5 96C195.5 107.874 185.874 117.5 174 117.5C162.126 117.5 152.5 107.874 152.5 96C152.5 84.1259 162.126 74.5 174 74.5Z" stroke="var(--sol-element-primary)" stroke-opacity="0.16"/>
<defs>
<clipPath id="clip0_1254_160433">
<path d="M92 96C92 83.8497 101.85 74 114 74C126.15 74 136 83.8497 136 96C136 108.15 126.15 118 114 118C101.85 118 92 108.15 92 96Z" fill="var(--sol-surface)"/>
</clipPath>
<clipPath id="clip1_1254_160433">
<path d="M152 96C152 83.8497 161.85 74 174 74C186.15 74 196 83.8497 196 96C196 108.15 186.15 118 174 118C161.85 118 152 108.15 152 96Z" fill="var(--sol-surface)"/>
</clipPath>
</defs>
</svg>
