<svg width="288" height="192" viewBox="0 0 288 192" fill="none" xmlns="http://www.w3.org/2000/svg">
<style>
:root {
  --sol-primary: #282363;
  --sol-element-brand-variant: #3a3480;
  --sol-fill-active: #4d469a;
  --sol-selected-container-variant: #f5f4fd;
  --sol-surface: #ffffff;
  --sol-surface-base-variant: #f5f5f5;
  --sol-secondary-container: #e8e6f8;
  --sol-element-primary: #161616;
  --sol-element-secondary: #484848;
  --sol-element-tertiary: #636363;
  --sol-element-quaternary: #858585;
  --sol-border-brand: #7b74c4;
  --sol-border-normal-variant: rgba(0, 0, 0, 0.08);
  --sol-border-solid-variant: #e0e0e0;
  --sol-border-solid: #d0d0d0;
  --sol-error: #e76067;
  --sol-error-container: #fdeaeb;
  --sol-static-white: #ffffff;
  --sol-static-black: #000000;
  --color-brand-400: #6058b4;
  --color-teal-500: #05a09a;
  --color-green-500: #35a142;
  --color-yellow-500: #d4ae00;
  --color-orange-500: #e06418;
  --color-blue-500: #3e9bca;
  --color-indigo-500: #3d5ed6;
  --color-pink-500: #d03e94;
}
@media (prefers-color-scheme: dark) {
  :root {
    --sol-primary: #9791d4;
    --sol-element-brand-variant: #ffffff;
    --sol-fill-active: #7b74c4;
    --sol-selected-container-variant: rgba(0, 0, 0, 0.08);
    --sol-surface: #161616;
    --sol-surface-base-variant: #1c1c1c;
    --sol-secondary-container: rgba(255, 255, 255, 0.16);
    --sol-element-primary: #ffffff;
    --sol-element-secondary: rgba(255, 255, 255, 0.8);
    --sol-element-tertiary: rgba(255, 255, 255, 0.6);
    --sol-element-quaternary: rgba(255, 255, 255, 0.5);
    --sol-border-brand: #7b74c4;
    --sol-border-normal-variant: rgba(255, 255, 255, 0.08);
    --sol-border-solid-variant: #3d3d3d;
    --sol-border-solid: #333333;
    --sol-error: #ee7a80;
    --sol-error-container: rgba(231, 96, 103, 0.24);
    --sol-static-white: #ffffff;
    --sol-static-black: #000000;
  }
}
</style>
<path d="M55.8161 50.5156V43.1303H56.7341V49.6996H60.1616V50.5156H55.8161ZM61.0083 48.9447C61.0083 47.6696 62.1303 47.384 63.0892 47.3126C63.4411 47.2871 64.3388 47.2412 64.5887 47.231V46.7821C64.5887 46.0783 64.1705 45.6703 63.334 45.6703C62.6302 45.6703 62.212 45.9967 62.0895 46.4149H61.1715C61.2837 45.5274 62.1507 44.9052 63.3748 44.9052C64.0991 44.9052 65.4558 45.1194 65.4558 46.8637V50.5156H64.5887V49.7608H64.5479C64.3643 50.1382 63.8543 50.6482 62.8954 50.6482C61.8447 50.6482 61.0083 50.026 61.0083 48.9447ZM61.8855 48.9855C61.8855 49.567 62.3752 49.8628 63.0484 49.8628C64.0379 49.8628 64.5887 49.1997 64.5887 48.5061V47.945L63.1912 48.047C62.3956 48.098 61.8855 48.3837 61.8855 48.9855ZM66.9757 50.5156V43.1303H67.853V45.8539H67.9244C68.1182 45.558 68.4446 44.9052 69.5259 44.9052C70.9132 44.9052 71.8925 46.0069 71.8925 47.7614C71.8925 49.5159 70.9132 50.6278 69.5361 50.6278C68.4752 50.6278 68.1182 49.975 67.9244 49.669H67.8224V50.5156H66.9757ZM67.8326 47.741C67.8326 48.9855 68.3936 49.8424 69.4035 49.8424C70.4542 49.8424 71.005 48.9243 71.005 47.741C71.005 46.5883 70.4746 45.6907 69.4035 45.6907C68.3834 45.6907 67.8326 46.5169 67.8326 47.741ZM75.3608 50.6278C73.7592 50.6278 72.7698 49.4955 72.7698 47.792C72.7698 46.0885 73.7694 44.9052 75.2791 44.9052C76.442 44.9052 77.6661 45.6193 77.6661 47.6696V48.0368H73.647C73.6878 49.2099 74.3713 49.8526 75.3608 49.8526C76.0238 49.8526 76.442 49.567 76.6461 49.2201H77.5845C77.3193 50.0566 76.5032 50.6278 75.3608 50.6278ZM73.6572 47.2922H76.7787C76.7787 46.3639 76.187 45.6805 75.2791 45.6805C74.3203 45.6805 73.7082 46.4353 73.6572 47.2922ZM79.6859 43.1303V50.5156H78.8086V43.1303H79.6859Z" fill="var(--sol-element-tertiary)"/>
<g clip-path="url(#clip0_1254_319028)">
<rect x="55" y="60.4844" width="178" height="30" rx="4" fill="var(--sol-surface)"/>
<path d="M67.4375 71V79.4844H66.3828V71H67.4375ZM70.1914 75.6641V79.4844H69.1836V73.1211H70.1562V74.1172H70.2383C70.543 73.4727 71.1289 73.0391 72.1016 73.0391C73.3906 73.0391 74.2461 73.8242 74.2461 75.4414V79.4844H73.2383V75.5117C73.2383 74.5273 72.6992 73.9414 71.7969 73.9414C70.8711 73.9414 70.1914 74.5625 70.1914 75.6641ZM75.8633 81.875V73.1211H76.8359V74.1289H76.9531C77.1641 73.7891 77.5625 73.0391 78.793 73.0391C80.3867 73.0391 81.5 74.3047 81.5 76.3203C81.5 78.3359 80.3867 79.6133 78.8047 79.6133C77.5859 79.6133 77.1641 78.8633 76.9531 78.5117H76.8711V81.875H75.8633ZM76.8477 76.2969C76.8477 77.7266 77.4922 78.7109 78.6641 78.7109C79.8711 78.7109 80.4922 77.6562 80.4922 76.2969C80.4922 74.9727 79.8828 73.9414 78.6641 73.9414C77.4688 73.9414 76.8477 74.8906 76.8477 76.2969ZM86.832 76.8711V73.1211H87.8281V79.4844H86.832V78.4062H86.7617C86.457 79.0508 85.8359 79.5664 84.875 79.5664C83.668 79.5664 82.8125 78.7812 82.8125 77.1641V73.1211H83.8203V77.0938C83.8203 78.0078 84.3945 78.5938 85.2031 78.5938C85.918 78.5938 86.832 78.0547 86.832 76.8711ZM92.2227 73.1211V73.9648H90.8867V77.6562C90.8867 78.4766 91.2852 78.6055 91.7188 78.6055C91.9062 78.6055 92.1641 78.5938 92.3164 78.582V79.5195C92.1641 79.543 91.9062 79.5664 91.6133 79.5664C90.7695 79.5664 89.8672 79.0391 89.8672 77.9141V73.9648H88.9062V73.1211H89.8672V71.5977H90.8867V73.1211H92.2227Z" fill="var(--sol-element-primary)"/>
</g>
<rect x="55.3731" y="60.8574" width="177.254" height="29.2539" rx="3.62694" stroke="var(--sol-element-primary)" stroke-opacity="0.16" stroke-width="0.746114"/>
<path d="M55.6995 104.453V98.1228H56.4864V100.938H59.8352V98.1228H60.6308V104.453H59.8352V101.629H56.4864V104.453H55.6995ZM63.9184 104.549C62.5457 104.549 61.6975 103.579 61.6975 102.119C61.6975 100.658 62.5544 99.6442 63.8484 99.6442C64.8452 99.6442 65.8944 100.256 65.8944 102.014V102.328H62.4495C62.4845 103.334 63.0703 103.885 63.9184 103.885C64.4867 103.885 64.8452 103.64 65.0201 103.343H65.8245C65.5972 104.06 64.8977 104.549 63.9184 104.549ZM62.4582 101.69H65.1337C65.1337 100.895 64.6266 100.309 63.8484 100.309C63.0266 100.309 62.5019 100.956 62.4582 101.69ZM67.6256 98.1228V104.453H66.8737V98.1228H67.6256ZM68.8235 106.237V99.7054H69.5492V100.457H69.6367C69.794 100.204 70.0913 99.6442 71.0094 99.6442C72.1985 99.6442 73.0291 100.588 73.0291 102.092C73.0291 103.596 72.1985 104.549 71.0181 104.549C70.1088 104.549 69.794 103.99 69.6367 103.727H69.5755V106.237H68.8235ZM69.558 102.075C69.558 103.142 70.0389 103.876 70.9132 103.876C71.8138 103.876 72.2772 103.089 72.2772 102.075C72.2772 101.087 71.8225 100.317 70.9132 100.317C70.0214 100.317 69.558 101.026 69.558 102.075ZM76.0019 104.549C74.6292 104.549 73.7811 103.579 73.7811 102.119C73.7811 100.658 74.638 99.6442 75.932 99.6442C76.9288 99.6442 77.978 100.256 77.978 102.014V102.328H74.533C74.568 103.334 75.1538 103.885 76.0019 103.885C76.5703 103.885 76.9288 103.64 77.1036 103.343H77.908C77.6807 104.06 76.9812 104.549 76.0019 104.549ZM74.5418 101.69H77.2173C77.2173 100.895 76.7102 100.309 75.932 100.309C75.1101 100.309 74.5855 100.956 74.5418 101.69ZM78.9573 104.453V99.7054H79.683V100.431H79.7354C79.9103 99.9502 80.3999 99.6267 80.9595 99.6267C81.0732 99.6267 81.2655 99.6354 81.353 99.6442V100.405C81.3005 100.387 81.0907 100.352 80.8983 100.352C80.2163 100.352 79.7092 100.825 79.7092 101.463V104.453H78.9573ZM86.4067 99.7054V100.335H85.41V103.089C85.41 103.701 85.7073 103.797 86.0308 103.797C86.1707 103.797 86.363 103.789 86.4767 103.78V104.479C86.363 104.497 86.1707 104.514 85.9521 104.514C85.3225 104.514 84.6493 104.121 84.6493 103.281V100.335H83.9323V99.7054H84.6493V98.5687H85.41V99.7054H86.4067ZM89.3271 104.549C87.9543 104.549 87.1062 103.579 87.1062 102.119C87.1062 100.658 87.9631 99.6442 89.2571 99.6442C90.2539 99.6442 91.3031 100.256 91.3031 102.014V102.328H87.8582C87.8931 103.334 88.479 103.885 89.3271 103.885C89.8954 103.885 90.2539 103.64 90.4288 103.343H91.2332C91.0058 104.06 90.3063 104.549 89.3271 104.549ZM87.8669 101.69H90.5424C90.5424 100.895 90.0353 100.309 89.2571 100.309C88.4352 100.309 87.9106 100.956 87.8669 101.69ZM92.7283 99.7054L93.8475 101.638L94.9754 99.7054H95.841L94.3109 102.075L95.841 104.453H94.9841L93.8475 102.617L92.7283 104.453H91.8627L93.3578 102.075L91.8627 99.7054H92.7283ZM98.8225 99.7054V100.335H97.8258V103.089C97.8258 103.701 98.1231 103.797 98.4466 103.797C98.5865 103.797 98.7788 103.789 98.8925 103.78V104.479C98.7788 104.497 98.5865 104.514 98.3679 104.514C97.7383 104.514 97.0651 104.121 97.0651 103.281V100.335H96.3481V99.7054H97.0651V98.5687H97.8258V99.7054H98.8225Z" fill="var(--sol-element-tertiary)"/>
<g clip-path="url(#clip1_1254_319028)">
<path d="M55 129.984C55 128.336 56.3362 127 57.9845 127H230.016C231.664 127 233 128.336 233 129.984V154.016C233 155.664 231.664 157 230.016 157H57.9845C56.3362 157 55 155.664 55 154.016V129.984Z" fill="var(--sol-surface)"/>
<mask id="mask0_1254_319028" style="mask-type:alpha" maskUnits="userSpaceOnUse" x="65" y="135" width="15" height="14">
<path d="M76.3664 141.679C76.3664 139.44 74.5511 137.625 72.3121 137.625C70.073 137.625 68.2578 139.44 68.2578 141.679C68.2579 143.918 70.0731 145.734 72.3121 145.734C74.5511 145.733 76.3663 143.918 76.3664 141.679ZM77.2414 141.679C77.2413 142.897 76.7984 144.01 76.0667 144.871L78.064 146.802L77.4556 147.431L75.4441 145.485C74.5925 146.187 73.5016 146.609 72.3121 146.609C69.5898 146.609 67.3829 144.402 67.3828 141.679C67.3828 138.957 69.5898 136.75 72.3121 136.75C75.0343 136.75 77.2414 138.957 77.2414 141.679Z" fill="var(--sol-element-primary)"/>
</mask>
<g mask="url(#mask0_1254_319028)">
<rect x="65.4453" y="135" width="14" height="14" fill="var(--sol-element-quaternary)"/>
</g>
<path d="M88.8984 137.516V146H87.8438V137.516H88.8984ZM91.6523 142.18V146H90.6445V139.637H91.6172V140.633H91.6992C92.0039 139.988 92.5898 139.555 93.5625 139.555C94.8516 139.555 95.707 140.34 95.707 141.957V146H94.6992V142.027C94.6992 141.043 94.1602 140.457 93.2578 140.457C92.332 140.457 91.6523 141.078 91.6523 142.18ZM97.3242 148.391V139.637H98.2969V140.645H98.4141C98.625 140.305 99.0234 139.555 100.254 139.555C101.848 139.555 102.961 140.82 102.961 142.836C102.961 144.852 101.848 146.129 100.266 146.129C99.0469 146.129 98.625 145.379 98.4141 145.027H98.332V148.391H97.3242ZM98.3086 142.812C98.3086 144.242 98.9531 145.227 100.125 145.227C101.332 145.227 101.953 144.172 101.953 142.812C101.953 141.488 101.344 140.457 100.125 140.457C98.9297 140.457 98.3086 141.406 98.3086 142.812ZM108.293 143.387V139.637H109.289V146H108.293V144.922H108.223C107.918 145.566 107.297 146.082 106.336 146.082C105.129 146.082 104.273 145.297 104.273 143.68V139.637H105.281V143.609C105.281 144.523 105.855 145.109 106.664 145.109C107.379 145.109 108.293 144.57 108.293 143.387ZM113.684 139.637V140.48H112.348V144.172C112.348 144.992 112.746 145.121 113.18 145.121C113.367 145.121 113.625 145.109 113.777 145.098V146.035C113.625 146.059 113.367 146.082 113.074 146.082C112.23 146.082 111.328 145.555 111.328 144.43V140.48H110.367V139.637H111.328V138.113H112.348V139.637H113.684Z" fill="var(--sol-element-primary)"/>
</g>
<path d="M57.9844 127.373H230.016C231.458 127.373 232.627 128.542 232.627 129.984V154.016C232.627 155.458 231.458 156.627 230.016 156.627H57.9844C56.5422 156.627 55.3731 155.458 55.373 154.016V129.984C55.3731 128.542 56.5422 127.373 57.9844 127.373Z" stroke="var(--sol-element-primary)" stroke-opacity="0.16" stroke-width="0.746114"/>
<defs>
<clipPath id="clip0_1254_319028">
<rect x="55" y="60.4844" width="178" height="30" rx="4" fill="var(--sol-surface)"/>
</clipPath>
<clipPath id="clip1_1254_319028">
<path d="M55 129.984C55 128.336 56.3362 127 57.9845 127H230.016C231.664 127 233 128.336 233 129.984V154.016C233 155.664 231.664 157 230.016 157H57.9845C56.3362 157 55 155.664 55 154.016V129.984Z" fill="var(--sol-surface)"/>
</clipPath>
</defs>
</svg>
