<svg width="288" height="192" viewBox="0 0 288 192" fill="none" xmlns="http://www.w3.org/2000/svg">
<style>
:root {
  --sol-primary: #282363;
  --sol-element-brand-variant: #3a3480;
  --sol-fill-active: #4d469a;
  --sol-selected-container-variant: #f5f4fd;
  --sol-surface: #ffffff;
  --sol-surface-base-variant: #f5f5f5;
  --sol-secondary-container: #e8e6f8;
  --sol-element-primary: #161616;
  --sol-element-secondary: #484848;
  --sol-element-tertiary: #636363;
  --sol-element-quaternary: #858585;
  --sol-border-brand: #7b74c4;
  --sol-border-normal-variant: rgba(0, 0, 0, 0.08);
  --sol-border-solid-variant: #e0e0e0;
  --sol-border-solid: #d0d0d0;
  --sol-error: #e76067;
  --sol-error-container: #fdeaeb;
  --sol-static-white: #ffffff;
  --sol-static-black: #000000;
  --color-brand-400: #6058b4;
  --color-teal-500: #05a09a;
  --color-green-500: #35a142;
  --color-yellow-500: #d4ae00;
  --color-orange-500: #e06418;
  --color-blue-500: #3e9bca;
  --color-indigo-500: #3d5ed6;
  --color-pink-500: #d03e94;
}
@media (prefers-color-scheme: dark) {
  :root {
    --sol-primary: #9791d4;
    --sol-element-brand-variant: #ffffff;
    --sol-fill-active: #7b74c4;
    --sol-selected-container-variant: rgba(0, 0, 0, 0.08);
    --sol-surface: #161616;
    --sol-surface-base-variant: #1c1c1c;
    --sol-secondary-container: rgba(255, 255, 255, 0.16);
    --sol-element-primary: #ffffff;
    --sol-element-secondary: rgba(255, 255, 255, 0.8);
    --sol-element-tertiary: rgba(255, 255, 255, 0.6);
    --sol-element-quaternary: rgba(255, 255, 255, 0.5);
    --sol-border-brand: #7b74c4;
    --sol-border-normal-variant: rgba(255, 255, 255, 0.08);
    --sol-border-solid-variant: #3d3d3d;
    --sol-border-solid: #333333;
    --sol-error: #ee7a80;
    --sol-error-container: rgba(231, 96, 103, 0.24);
    --sol-static-white: #ffffff;
    --sol-static-black: #000000;
  }
}
</style>
<g clip-path="url(#clip0_1254_163096)">
<rect width="288" height="192" fill="var(--sol-surface-base-variant)"/>
<g filter="url(#filter0_dd_1254_163096)">
<rect x="-119" y="40" width="367" height="277" rx="4" fill="var(--sol-surface)" shape-rendering="crispEdges"/>
<rect x="-118.5" y="40.5" width="366" height="276" rx="3.5" stroke="var(--sol-border-solid-variant)" shape-rendering="crispEdges"/>
<g clip-path="url(#clip1_1254_163096)">
<path d="M19.6665 68.666C19.6665 67.5614 20.5619 66.666 21.6665 66.666H28.3332C29.4377 66.666 30.3332 67.5614 30.3332 68.666V75.3327C30.3332 76.4373 29.4377 77.3327 28.3332 77.3327H21.6665C20.5619 77.3327 19.6665 76.4373 19.6665 75.3327V68.666Z" fill="var(--color-brand-400)"/>
<path d="M29.0371 69.8125L24.1043 74.7452C23.9091 74.9404 23.5925 74.9405 23.3973 74.7452L20.9624 72.3103L21.6694 71.6033L23.7506 73.6845L28.33 69.1055L29.0371 69.8125Z" fill="var(--sol-surface)"/>
</g>
<path d="M37.9375 76V67.5156H38.9922V75.0625H42.9297V76H37.9375ZM46.8789 76.1289C45.0391 76.1289 43.9023 74.8281 43.9023 72.8711C43.9023 70.9141 45.0508 69.5547 46.7852 69.5547C48.1211 69.5547 49.5273 70.375 49.5273 72.7305V73.1523H44.9102C44.957 74.5 45.7422 75.2383 46.8789 75.2383C47.6406 75.2383 48.1211 74.9102 48.3555 74.5117H49.4336C49.1289 75.4727 48.1914 76.1289 46.8789 76.1289ZM44.9219 72.2969H48.5078C48.5078 71.2305 47.8281 70.4453 46.7852 70.4453C45.6836 70.4453 44.9805 71.3125 44.9219 72.2969ZM53.418 78.5195C51.8828 78.5195 50.8398 77.8516 50.7227 76.668H51.7773C51.918 77.3125 52.5156 77.6406 53.418 77.6406C54.5078 77.6406 55.1758 77.1719 55.1758 76.1172V74.8281H55.0938C54.8828 75.1797 54.4727 75.9062 53.2422 75.9062C51.6953 75.9062 50.5352 74.7344 50.5352 72.7305C50.5352 70.7734 51.6602 69.5547 53.2539 69.5547C54.4844 69.5547 54.8828 70.3047 55.1172 70.6445H55.1992V69.6367H56.1836V76.1758C56.1836 77.8164 54.9648 78.5195 53.418 78.5195ZM53.3828 75.0039C54.543 75.0039 55.1992 74.1719 55.1992 72.7656C55.1992 71.4062 54.5664 70.457 53.3828 70.457C52.1641 70.457 51.5547 71.4883 51.5547 72.7656C51.5547 74.0898 52.1758 75.0039 53.3828 75.0039ZM60.4609 76.1289C58.6211 76.1289 57.4844 74.8281 57.4844 72.8711C57.4844 70.9141 58.6328 69.5547 60.3672 69.5547C61.7031 69.5547 63.1094 70.375 63.1094 72.7305V73.1523H58.4922C58.5391 74.5 59.3242 75.2383 60.4609 75.2383C61.2227 75.2383 61.7031 74.9102 61.9375 74.5117H63.0156C62.7109 75.4727 61.7734 76.1289 60.4609 76.1289ZM58.5039 72.2969H62.0898C62.0898 71.2305 61.4102 70.4453 60.3672 70.4453C59.2656 70.4453 58.5625 71.3125 58.5039 72.2969ZM65.4297 72.1797V76H64.4219V69.6367H65.3945V70.6328H65.4766C65.7812 69.9883 66.3672 69.5547 67.3398 69.5547C68.6289 69.5547 69.4844 70.3398 69.4844 71.957V76H68.4766V72.0273C68.4766 71.043 67.9375 70.457 67.0352 70.457C66.1094 70.457 65.4297 71.0781 65.4297 72.1797ZM73.5039 76.1289C71.9219 76.1289 70.7969 74.8516 70.7969 72.8359C70.7969 70.8203 71.9219 69.5547 73.5156 69.5547C74.7461 69.5547 75.1445 70.3047 75.3555 70.6445H75.4258V67.5156H76.4453V76H75.4609V75.0273H75.3555C75.1328 75.3789 74.7227 76.1289 73.5039 76.1289ZM73.6445 75.2266C74.8047 75.2266 75.4609 74.2422 75.4609 72.8125C75.4609 71.4062 74.8281 70.457 73.6445 70.457C72.4258 70.457 71.8164 71.4883 71.8164 72.8125C71.8164 74.1719 72.4375 75.2266 73.6445 75.2266Z" fill="var(--sol-element-tertiary)"/>
<g clip-path="url(#clip2_1254_163096)">
<path d="M92.6665 68.666C92.6665 67.5614 93.5619 66.666 94.6665 66.666H101.333C102.438 66.666 103.333 67.5614 103.333 68.666V75.3327C103.333 76.4373 102.438 77.3327 101.333 77.3327H94.6665C93.5619 77.3327 92.6665 76.4373 92.6665 75.3327V68.666Z" fill="var(--color-blue-500)"/>
<path d="M102.037 69.8125L97.1043 74.7452C96.9091 74.9404 96.5925 74.9405 96.3973 74.7452L93.9624 72.3103L94.6694 71.6033L96.7506 73.6845L101.33 69.1055L102.037 69.8125Z" fill="var(--sol-surface)"/>
</g>
<path d="M110.938 76V67.5156H111.992V75.0625H115.93V76H110.938ZM119.879 76.1289C118.039 76.1289 116.902 74.8281 116.902 72.8711C116.902 70.9141 118.051 69.5547 119.785 69.5547C121.121 69.5547 122.527 70.375 122.527 72.7305V73.1523H117.91C117.957 74.5 118.742 75.2383 119.879 75.2383C120.641 75.2383 121.121 74.9102 121.355 74.5117H122.434C122.129 75.4727 121.191 76.1289 119.879 76.1289ZM117.922 72.2969H121.508C121.508 71.2305 120.828 70.4453 119.785 70.4453C118.684 70.4453 117.98 71.3125 117.922 72.2969ZM126.418 78.5195C124.883 78.5195 123.84 77.8516 123.723 76.668H124.777C124.918 77.3125 125.516 77.6406 126.418 77.6406C127.508 77.6406 128.176 77.1719 128.176 76.1172V74.8281H128.094C127.883 75.1797 127.473 75.9062 126.242 75.9062C124.695 75.9062 123.535 74.7344 123.535 72.7305C123.535 70.7734 124.66 69.5547 126.254 69.5547C127.484 69.5547 127.883 70.3047 128.117 70.6445H128.199V69.6367H129.184V76.1758C129.184 77.8164 127.965 78.5195 126.418 78.5195ZM126.383 75.0039C127.543 75.0039 128.199 74.1719 128.199 72.7656C128.199 71.4062 127.566 70.457 126.383 70.457C125.164 70.457 124.555 71.4883 124.555 72.7656C124.555 74.0898 125.176 75.0039 126.383 75.0039ZM133.461 76.1289C131.621 76.1289 130.484 74.8281 130.484 72.8711C130.484 70.9141 131.633 69.5547 133.367 69.5547C134.703 69.5547 136.109 70.375 136.109 72.7305V73.1523H131.492C131.539 74.5 132.324 75.2383 133.461 75.2383C134.223 75.2383 134.703 74.9102 134.938 74.5117H136.016C135.711 75.4727 134.773 76.1289 133.461 76.1289ZM131.504 72.2969H135.09C135.09 71.2305 134.41 70.4453 133.367 70.4453C132.266 70.4453 131.562 71.3125 131.504 72.2969ZM138.43 72.1797V76H137.422V69.6367H138.395V70.6328H138.477C138.781 69.9883 139.367 69.5547 140.34 69.5547C141.629 69.5547 142.484 70.3398 142.484 71.957V76H141.477V72.0273C141.477 71.043 140.938 70.457 140.035 70.457C139.109 70.457 138.43 71.0781 138.43 72.1797ZM146.504 76.1289C144.922 76.1289 143.797 74.8516 143.797 72.8359C143.797 70.8203 144.922 69.5547 146.516 69.5547C147.746 69.5547 148.145 70.3047 148.355 70.6445H148.426V67.5156H149.445V76H148.461V75.0273H148.355C148.133 75.3789 147.723 76.1289 146.504 76.1289ZM146.645 75.2266C147.805 75.2266 148.461 74.2422 148.461 72.8125C148.461 71.4062 147.828 70.457 146.645 70.457C145.426 70.457 144.816 71.4883 144.816 72.8125C144.816 74.1719 145.438 75.2266 146.645 75.2266Z" fill="var(--sol-element-tertiary)"/>
<g clip-path="url(#clip3_1254_163096)">
<path d="M165.667 68.666C165.667 67.5614 166.562 66.666 167.667 66.666H174.333C175.438 66.666 176.333 67.5614 176.333 68.666V75.3327C176.333 76.4373 175.438 77.3327 174.333 77.3327H167.667C166.562 77.3327 165.667 76.4373 165.667 75.3327V68.666Z" fill="var(--color-teal-500)"/>
<path d="M175.037 69.8125L170.104 74.7452C169.909 74.9404 169.593 74.9405 169.397 74.7452L166.962 72.3103L167.669 71.6033L169.751 73.6845L174.33 69.1055L175.037 69.8125Z" fill="var(--sol-surface)"/>
</g>
<path d="M183.938 76V67.5156H184.992V75.0625H188.93V76H183.938ZM192.879 76.1289C191.039 76.1289 189.902 74.8281 189.902 72.8711C189.902 70.9141 191.051 69.5547 192.785 69.5547C194.121 69.5547 195.527 70.375 195.527 72.7305V73.1523H190.91C190.957 74.5 191.742 75.2383 192.879 75.2383C193.641 75.2383 194.121 74.9102 194.355 74.5117H195.434C195.129 75.4727 194.191 76.1289 192.879 76.1289ZM190.922 72.2969H194.508C194.508 71.2305 193.828 70.4453 192.785 70.4453C191.684 70.4453 190.98 71.3125 190.922 72.2969ZM199.418 78.5195C197.883 78.5195 196.84 77.8516 196.723 76.668H197.777C197.918 77.3125 198.516 77.6406 199.418 77.6406C200.508 77.6406 201.176 77.1719 201.176 76.1172V74.8281H201.094C200.883 75.1797 200.473 75.9062 199.242 75.9062C197.695 75.9062 196.535 74.7344 196.535 72.7305C196.535 70.7734 197.66 69.5547 199.254 69.5547C200.484 69.5547 200.883 70.3047 201.117 70.6445H201.199V69.6367H202.184V76.1758C202.184 77.8164 200.965 78.5195 199.418 78.5195ZM199.383 75.0039C200.543 75.0039 201.199 74.1719 201.199 72.7656C201.199 71.4062 200.566 70.457 199.383 70.457C198.164 70.457 197.555 71.4883 197.555 72.7656C197.555 74.0898 198.176 75.0039 199.383 75.0039ZM206.461 76.1289C204.621 76.1289 203.484 74.8281 203.484 72.8711C203.484 70.9141 204.633 69.5547 206.367 69.5547C207.703 69.5547 209.109 70.375 209.109 72.7305V73.1523H204.492C204.539 74.5 205.324 75.2383 206.461 75.2383C207.223 75.2383 207.703 74.9102 207.938 74.5117H209.016C208.711 75.4727 207.773 76.1289 206.461 76.1289ZM204.504 72.2969H208.09C208.09 71.2305 207.41 70.4453 206.367 70.4453C205.266 70.4453 204.562 71.3125 204.504 72.2969ZM211.43 72.1797V76H210.422V69.6367H211.395V70.6328H211.477C211.781 69.9883 212.367 69.5547 213.34 69.5547C214.629 69.5547 215.484 70.3398 215.484 71.957V76H214.477V72.0273C214.477 71.043 213.938 70.457 213.035 70.457C212.109 70.457 211.43 71.0781 211.43 72.1797ZM219.504 76.1289C217.922 76.1289 216.797 74.8516 216.797 72.8359C216.797 70.8203 217.922 69.5547 219.516 69.5547C220.746 69.5547 221.145 70.3047 221.355 70.6445H221.426V67.5156H222.445V76H221.461V75.0273H221.355C221.133 75.3789 220.723 76.1289 219.504 76.1289ZM219.645 75.2266C220.805 75.2266 221.461 74.2422 221.461 72.8125C221.461 71.4062 220.828 70.457 219.645 70.457C218.426 70.457 217.816 71.4883 217.816 72.8125C217.816 74.1719 218.438 75.2266 219.645 75.2266Z" fill="var(--sol-element-tertiary)"/>
<rect x="-382.316" y="100.775" width="606.149" height="0.792752" fill="var(--sol-border-solid-variant)"/>
<rect x="-382.316" y="140.031" width="606.149" height="0.792752" fill="var(--sol-border-solid-variant)"/>
<rect x="-382.316" y="179.287" width="606.149" height="0.792752" fill="var(--sol-border-solid-variant)"/>
</g>
</g>
<defs>
<filter id="filter0_dd_1254_163096" x="-427" y="36" width="683" height="293" filterUnits="userSpaceOnUse" color-interpolation-filters="sRGB">
<feFlood flood-opacity="0" result="BackgroundImageFix"/>
<feColorMatrix in="SourceAlpha" type="matrix" values="0 0 0 0 0 0 0 0 0 0 0 0 0 0 0 0 0 0 127 0" result="hardAlpha"/>
<feOffset dy="4"/>
<feGaussianBlur stdDeviation="4"/>
<feComposite in2="hardAlpha" operator="out"/>
<feColorMatrix type="matrix" values="0 0 0 0 0 0 0 0 0 0 0 0 0 0 0 0 0 0 0.08 0"/>
<feBlend mode="normal" in2="BackgroundImageFix" result="effect1_dropShadow_1254_163096"/>
<feColorMatrix in="SourceAlpha" type="matrix" values="0 0 0 0 0 0 0 0 0 0 0 0 0 0 0 0 0 0 127 0" result="hardAlpha"/>
<feOffset/>
<feGaussianBlur stdDeviation="0.5"/>
<feComposite in2="hardAlpha" operator="out"/>
<feColorMatrix type="matrix" values="0 0 0 0 0 0 0 0 0 0 0 0 0 0 0 0 0 0 0.08 0"/>
<feBlend mode="normal" in2="effect1_dropShadow_1254_163096" result="effect2_dropShadow_1254_163096"/>
<feBlend mode="normal" in="SourceGraphic" in2="effect2_dropShadow_1254_163096" result="shape"/>
</filter>
<clipPath id="clip0_1254_163096">
<rect width="288" height="192" fill="var(--sol-surface)"/>
</clipPath>
<clipPath id="clip1_1254_163096">
<path d="M19.6665 68.666C19.6665 67.5614 20.5619 66.666 21.6665 66.666H28.3332C29.4377 66.666 30.3332 67.5614 30.3332 68.666V75.3327C30.3332 76.4373 29.4377 77.3327 28.3332 77.3327H21.6665C20.5619 77.3327 19.6665 76.4373 19.6665 75.3327V68.666Z" fill="var(--sol-surface)"/>
</clipPath>
<clipPath id="clip2_1254_163096">
<path d="M92.6665 68.666C92.6665 67.5614 93.5619 66.666 94.6665 66.666H101.333C102.438 66.666 103.333 67.5614 103.333 68.666V75.3327C103.333 76.4373 102.438 77.3327 101.333 77.3327H94.6665C93.5619 77.3327 92.6665 76.4373 92.6665 75.3327V68.666Z" fill="var(--sol-surface)"/>
</clipPath>
<clipPath id="clip3_1254_163096">
<path d="M165.667 68.666C165.667 67.5614 166.562 66.666 167.667 66.666H174.333C175.438 66.666 176.333 67.5614 176.333 68.666V75.3327C176.333 76.4373 175.438 77.3327 174.333 77.3327H167.667C166.562 77.3327 165.667 76.4373 165.667 75.3327V68.666Z" fill="var(--sol-surface)"/>
</clipPath>
</defs>
</svg>
