<svg width="288" height="192" viewBox="0 0 288 192" fill="none" xmlns="http://www.w3.org/2000/svg">
<style>
:root {
  --sol-primary: #282363;
  --sol-element-brand-variant: #3a3480;
  --sol-fill-active: #4d469a;
  --sol-selected-container-variant: #f5f4fd;
  --sol-surface: #ffffff;
  --sol-surface-base-variant: #f5f5f5;
  --sol-secondary-container: #e8e6f8;
  --sol-element-primary: #161616;
  --sol-element-secondary: #484848;
  --sol-element-tertiary: #636363;
  --sol-element-quaternary: #858585;
  --sol-border-brand: #7b74c4;
  --sol-border-normal-variant: rgba(0, 0, 0, 0.08);
  --sol-border-solid-variant: #e0e0e0;
  --sol-border-solid: #d0d0d0;
  --sol-error: #e76067;
  --sol-error-container: #fdeaeb;
  --sol-static-white: #ffffff;
  --sol-static-black: #000000;
  --color-brand-400: #6058b4;
  --color-teal-500: #05a09a;
  --color-green-500: #35a142;
  --color-yellow-500: #d4ae00;
  --color-orange-500: #e06418;
  --color-blue-500: #3e9bca;
  --color-indigo-500: #3d5ed6;
  --color-pink-500: #d03e94;
}
@media (prefers-color-scheme: dark) {
  :root {
    --sol-primary: #9791d4;
    --sol-element-brand-variant: #ffffff;
    --sol-fill-active: #7b74c4;
    --sol-selected-container-variant: rgba(0, 0, 0, 0.08);
    --sol-surface: #161616;
    --sol-surface-base-variant: #1c1c1c;
    --sol-secondary-container: rgba(255, 255, 255, 0.16);
    --sol-element-primary: #ffffff;
    --sol-element-secondary: rgba(255, 255, 255, 0.8);
    --sol-element-tertiary: rgba(255, 255, 255, 0.6);
    --sol-element-quaternary: rgba(255, 255, 255, 0.5);
    --sol-border-brand: #7b74c4;
    --sol-border-normal-variant: rgba(255, 255, 255, 0.08);
    --sol-border-solid-variant: #3d3d3d;
    --sol-border-solid: #333333;
    --sol-error: #ee7a80;
    --sol-error-container: rgba(231, 96, 103, 0.24);
    --sol-static-white: #ffffff;
    --sol-static-black: #000000;
  }
}
</style>
<g clip-path="url(#clip0_1254_163099)">
<rect y="152" width="302" height="40" fill="url(#paint0_linear_1254_163099)"/>
<g clip-path="url(#clip1_1254_163099)">
<rect width="288" height="174" transform="translate(0 27)" fill="var(--sol-surface)"/>
<path d="M-5 82H288" stroke="var(--sol-border-solid-variant)"/>
<path d="M100.84 58.9998C100.84 52.8363 105.836 47.8398 112 47.8398C118.163 47.8398 123.16 52.8363 123.16 58.9998C123.16 65.1633 118.163 70.1598 112 70.1598C105.836 70.1598 100.84 65.1633 100.84 58.9998Z" fill="var(--sol-element-primary)" fill-opacity="0.12"/>
<mask id="mask0_1254_163099" style="mask-type:alpha" maskUnits="userSpaceOnUse" x="104" y="51" width="16" height="16">
<path d="M107.724 57.8744C107.859 57.8744 107.992 57.9009 108.116 57.9523C108.241 58.0038 108.354 58.0792 108.449 58.1743C108.544 58.2695 108.62 58.3824 108.671 58.5067C108.723 58.631 108.749 58.7642 108.749 58.8988C108.749 59.0334 108.723 59.1666 108.671 59.291C108.62 59.4153 108.545 59.5283 108.449 59.6235C108.354 59.7187 108.241 59.7942 108.117 59.8457C107.993 59.8972 107.86 59.9238 107.725 59.9238C107.453 59.9239 107.193 59.816 107 59.6239C106.808 59.4318 106.7 59.1712 106.7 58.8995C106.7 58.6277 106.808 58.367 107 58.1748C107.192 57.9826 107.453 57.8745 107.724 57.8744Z" fill="var(--sol-element-primary)"/>
<path d="M111.899 57.8744C111.334 57.8744 110.875 58.3331 110.875 58.8988C110.875 59.4645 111.334 59.9232 111.899 59.9232C112.465 59.9232 112.924 59.4645 112.924 58.8988C112.924 58.3331 112.465 57.8744 111.899 57.8744Z" fill="var(--sol-element-primary)"/>
<path d="M116.075 57.8744C115.51 57.8744 115.051 58.3331 115.051 58.8988C115.051 59.4645 115.51 59.9232 116.075 59.9232C116.641 59.9232 117.1 59.4645 117.1 58.8988C117.1 58.3331 116.641 57.8744 116.075 57.8744Z" fill="var(--sol-element-primary)"/>
</mask>
<g mask="url(#mask0_1254_163099)">
<rect x="104" y="51" width="15.8" height="15.8" fill="var(--sol-element-primary)"/>
</g>
<g filter="url(#filter0_dd_1254_163099)">
<rect x="104" y="76.2793" width="158" height="104" rx="4" fill="var(--sol-surface)" shape-rendering="crispEdges"/>
<path d="M118.703 91.4452C119.074 89.9193 121.245 89.9193 121.617 91.4452L121.62 91.4589C121.644 91.5494 121.688 91.6337 121.749 91.705C121.812 91.7796 121.893 91.8383 121.984 91.8759C122.075 91.9134 122.173 91.9291 122.271 91.9215C122.369 91.9138 122.464 91.8832 122.548 91.832L122.674 91.762C123.984 91.11 125.4 92.5918 124.608 93.8919L124.608 93.8925C124.557 93.9763 124.526 94.0709 124.518 94.1688C124.511 94.2667 124.526 94.3651 124.564 94.4559C124.601 94.5466 124.66 94.6273 124.735 94.6911C124.809 94.755 124.898 94.8002 124.993 94.8233C126.521 95.1933 126.52 97.3658 124.994 97.7366C124.899 97.7598 124.81 97.8054 124.735 97.8693C124.661 97.9332 124.602 98.0138 124.564 98.1046C124.527 98.1953 124.511 98.2938 124.519 98.3917C124.526 98.4895 124.557 98.5841 124.608 98.668C125.426 100.01 123.89 101.546 122.548 100.728C122.464 100.677 122.369 100.647 122.272 100.639C122.174 100.631 122.075 100.647 121.984 100.685C121.894 100.722 121.813 100.781 121.749 100.855C121.685 100.93 121.64 101.019 121.616 101.114C121.246 102.641 119.074 102.64 118.703 101.114V101.114C118.68 101.018 118.635 100.929 118.571 100.855C118.507 100.78 118.426 100.722 118.336 100.684C118.245 100.646 118.147 100.631 118.049 100.638C117.951 100.646 117.856 100.677 117.772 100.728V100.728C116.43 101.546 114.894 100.01 115.711 98.668H115.712C115.763 98.5841 115.794 98.489 115.801 98.3911C115.809 98.2932 115.793 98.1947 115.756 98.104C115.718 98.0133 115.659 97.9331 115.585 97.8693C115.51 97.8054 115.422 97.7597 115.326 97.7366C113.798 97.3666 113.799 95.1941 115.326 94.8233C115.736 94.7235 115.931 94.2525 115.711 93.8919C114.894 92.5498 116.43 91.0143 117.772 91.832C117.856 91.883 117.95 91.9133 118.048 91.9209C118.146 91.9284 118.244 91.9129 118.335 91.8753C118.426 91.8377 118.507 91.779 118.57 91.7044C118.634 91.6298 118.68 91.5411 118.703 91.4458V91.4452ZM120.761 91.6304C120.591 91.0175 119.706 91.0242 119.553 91.6509L119.553 91.6514C119.498 91.8808 119.389 92.0942 119.235 92.2735C119.082 92.4528 118.888 92.5933 118.67 92.6837C118.452 92.774 118.216 92.8118 117.981 92.7936C117.746 92.7755 117.518 92.7016 117.317 92.5788C116.758 92.2384 116.118 92.8781 116.459 93.4368C116.97 94.2765 116.547 95.3637 115.624 95.6488L115.532 95.6738C114.896 95.8283 114.897 96.7322 115.532 96.8861H115.532C115.762 96.9416 115.975 97.0511 116.154 97.2045C116.333 97.358 116.474 97.5516 116.564 97.7696C116.654 97.9876 116.692 98.2242 116.674 98.4595C116.655 98.6947 116.582 98.9223 116.459 99.1237L116.458 99.1231C116.118 99.6817 116.757 100.321 117.316 99.981C117.518 99.8581 117.746 99.7846 117.981 99.7663C118.216 99.748 118.452 99.7854 118.67 99.8756C118.888 99.9659 119.082 100.107 119.235 100.286C119.389 100.465 119.498 100.678 119.554 100.907L119.57 100.965C119.764 101.543 120.617 101.522 120.766 100.908V100.907C120.822 100.678 120.931 100.465 121.084 100.286C121.238 100.107 121.432 99.9664 121.649 99.8762C121.867 99.786 122.104 99.7486 122.339 99.7668C122.574 99.785 122.802 99.8583 123.003 99.981C123.562 100.321 124.201 99.6818 123.861 99.1231C123.738 98.9217 123.665 98.6941 123.647 98.4589C123.629 98.2237 123.666 97.9875 123.756 97.7696C123.846 97.5517 123.987 97.358 124.166 97.2045C124.345 97.051 124.558 96.9424 124.787 96.8866V96.8861C125.423 96.7316 125.422 95.8277 124.788 95.6738C124.558 95.6182 124.345 95.5094 124.166 95.3559C123.986 95.2025 123.846 95.0083 123.756 94.7903C123.665 94.5723 123.628 94.3362 123.646 94.101C123.664 93.8657 123.738 93.6377 123.861 93.4362C124.201 92.8777 123.562 92.2389 123.004 92.5788C122.802 92.7018 122.574 92.7753 122.339 92.7936C122.104 92.8119 121.867 92.7745 121.649 92.6842C121.431 92.5939 121.238 92.4533 121.084 92.2741C120.931 92.0948 120.822 91.8819 120.766 91.6526L120.761 91.6304ZM121.57 96.2799C121.57 95.5014 120.938 94.87 120.16 94.87C119.381 94.87 118.75 95.5014 118.75 96.2799C118.75 97.0585 119.381 97.6898 120.16 97.6898C120.938 97.6898 121.57 97.0585 121.57 96.2799ZM122.445 96.2799C122.445 97.5418 121.422 98.5648 120.16 98.5648C118.898 98.5648 117.875 97.5418 117.875 96.2799C117.875 95.0181 118.898 93.995 120.16 93.995C121.422 93.995 122.445 95.0181 122.445 96.2799Z" fill="var(--sol-element-primary)"/>
<path d="M134.254 91.3809H135.73L139.066 99.5293H139.189L142.525 91.3809H144.002V101.279H142.84V93.8008H142.744L139.668 101.279H138.574L135.498 93.8008H135.416V101.279H134.254V91.3809ZM149.156 101.43C147.01 101.43 145.684 99.9121 145.684 97.6289C145.684 95.3457 147.023 93.7598 149.047 93.7598C150.605 93.7598 152.246 94.7168 152.246 97.4648V97.957H146.859C146.914 99.5293 147.83 100.391 149.156 100.391C150.045 100.391 150.605 100.008 150.879 99.543H152.137C151.781 100.664 150.688 101.43 149.156 101.43ZM146.873 96.959H151.057C151.057 95.7148 150.264 94.7988 149.047 94.7988C147.762 94.7988 146.941 95.8105 146.873 96.959ZM154.953 96.8223V101.279H153.777V93.8555H154.912V95.0176H155.008C155.363 94.2656 156.047 93.7598 157.182 93.7598C158.686 93.7598 159.684 94.6758 159.684 96.5625V101.279H158.508V96.6445C158.508 95.4961 157.879 94.8125 156.826 94.8125C155.746 94.8125 154.953 95.5371 154.953 96.8223ZM166.26 98.2305V93.8555H167.422V101.279H166.26V100.021H166.178C165.822 100.773 165.098 101.375 163.977 101.375C162.568 101.375 161.57 100.459 161.57 98.5723V93.8555H162.746V98.4902C162.746 99.5566 163.416 100.24 164.359 100.24C165.193 100.24 166.26 99.6113 166.26 98.2305ZM174.203 91.3809V101.279H172.973V91.3809H174.203ZM179.48 93.8555V94.8398H177.922V99.1465C177.922 100.104 178.387 100.254 178.893 100.254C179.111 100.254 179.412 100.24 179.59 100.227V101.32C179.412 101.348 179.111 101.375 178.77 101.375C177.785 101.375 176.732 100.76 176.732 99.4473V94.8398H175.611V93.8555H176.732V92.0781H177.922V93.8555H179.48ZM184.047 101.43C181.9 101.43 180.574 99.9121 180.574 97.6289C180.574 95.3457 181.914 93.7598 183.938 93.7598C185.496 93.7598 187.137 94.7168 187.137 97.4648V97.957H181.75C181.805 99.5293 182.721 100.391 184.047 100.391C184.936 100.391 185.496 100.008 185.77 99.543H187.027C186.672 100.664 185.578 101.43 184.047 101.43ZM181.764 96.959H185.947C185.947 95.7148 185.154 94.7988 183.938 94.7988C182.652 94.7988 181.832 95.8105 181.764 96.959ZM188.668 101.279V93.8555H189.803V95.0176H189.898C190.213 94.2246 190.924 93.7598 191.895 93.7598C192.865 93.7598 193.521 94.2246 193.877 95.0176H193.959C194.342 94.252 195.121 93.7598 196.188 93.7598C197.514 93.7598 198.457 94.5664 198.457 96.3164V101.279H197.281V96.3301C197.281 95.2363 196.584 94.8125 195.777 94.8125C194.738 94.8125 194.15 95.5098 194.15 96.4531V101.279H192.961V96.207C192.961 95.373 192.359 94.8125 191.512 94.8125C190.623 94.8125 189.844 95.5645 189.844 96.6445V101.279H188.668Z" fill="var(--sol-element-primary)"/>
<path d="M118.703 123.445C119.074 121.919 121.245 121.919 121.617 123.445L121.62 123.459C121.644 123.549 121.688 123.634 121.749 123.705C121.812 123.78 121.893 123.838 121.984 123.876C122.075 123.913 122.173 123.929 122.271 123.921C122.369 123.914 122.464 123.883 122.548 123.832L122.674 123.762C123.984 123.11 125.4 124.592 124.608 125.892L124.608 125.892C124.557 125.976 124.526 126.071 124.518 126.169C124.511 126.267 124.526 126.365 124.564 126.456C124.601 126.547 124.66 126.627 124.735 126.691C124.809 126.755 124.898 126.8 124.993 126.823C126.521 127.193 126.52 129.366 124.994 129.737C124.899 129.76 124.81 129.805 124.735 129.869C124.661 129.933 124.602 130.014 124.564 130.105C124.527 130.195 124.511 130.294 124.519 130.392C124.526 130.49 124.557 130.584 124.608 130.668C125.426 132.01 123.89 133.546 122.548 132.728C122.464 132.677 122.369 132.647 122.272 132.639C122.174 132.631 122.075 132.647 121.984 132.685C121.894 132.722 121.813 132.781 121.749 132.855C121.685 132.93 121.64 133.019 121.616 133.114C121.246 134.641 119.074 134.64 118.703 133.114V133.114C118.68 133.018 118.635 132.929 118.571 132.855C118.507 132.78 118.426 132.722 118.336 132.684C118.245 132.646 118.147 132.631 118.049 132.638C117.951 132.646 117.856 132.677 117.772 132.728V132.728C116.43 133.546 114.894 132.01 115.711 130.668H115.712C115.763 130.584 115.794 130.489 115.801 130.391C115.809 130.293 115.793 130.195 115.756 130.104C115.718 130.013 115.659 129.933 115.585 129.869C115.51 129.805 115.422 129.76 115.326 129.737C113.798 129.367 113.799 127.194 115.326 126.823C115.736 126.724 115.931 126.253 115.711 125.892C114.894 124.55 116.43 123.014 117.772 123.832C117.856 123.883 117.95 123.913 118.048 123.921C118.146 123.928 118.244 123.913 118.335 123.875C118.426 123.838 118.507 123.779 118.57 123.704C118.634 123.63 118.68 123.541 118.703 123.446V123.445ZM120.761 123.63C120.591 123.018 119.706 123.024 119.553 123.651L119.553 123.651C119.498 123.881 119.389 124.094 119.235 124.274C119.082 124.453 118.888 124.593 118.67 124.684C118.452 124.774 118.216 124.812 117.981 124.794C117.746 124.775 117.518 124.702 117.317 124.579C116.758 124.238 116.118 124.878 116.459 125.437C116.97 126.276 116.547 127.364 115.624 127.649L115.532 127.674C114.896 127.828 114.897 128.732 115.532 128.886H115.532C115.762 128.942 115.975 129.051 116.154 129.204C116.333 129.358 116.474 129.552 116.564 129.77C116.654 129.988 116.692 130.224 116.674 130.459C116.655 130.695 116.582 130.922 116.459 131.124L116.458 131.123C116.118 131.682 116.757 132.321 117.316 131.981C117.518 131.858 117.746 131.785 117.981 131.766C118.216 131.748 118.452 131.785 118.67 131.876C118.888 131.966 119.082 132.107 119.235 132.286C119.389 132.465 119.498 132.678 119.554 132.907L119.57 132.965C119.764 133.543 120.617 133.522 120.766 132.908V132.907C120.822 132.678 120.931 132.465 121.084 132.286C121.238 132.107 121.432 131.966 121.649 131.876C121.867 131.786 122.104 131.749 122.339 131.767C122.574 131.785 122.802 131.858 123.003 131.981C123.562 132.321 124.201 131.682 123.861 131.123C123.738 130.922 123.665 130.694 123.647 130.459C123.629 130.224 123.666 129.988 123.756 129.77C123.846 129.552 123.987 129.358 124.166 129.204C124.345 129.051 124.558 128.942 124.787 128.887V128.886C125.423 128.732 125.422 127.828 124.788 127.674C124.558 127.618 124.345 127.509 124.166 127.356C123.986 127.202 123.846 127.008 123.756 126.79C123.665 126.572 123.628 126.336 123.646 126.101C123.664 125.866 123.738 125.638 123.861 125.436C124.201 124.878 123.562 124.239 123.004 124.579C122.802 124.702 122.574 124.775 122.339 124.794C122.104 124.812 121.867 124.774 121.649 124.684C121.431 124.594 121.238 124.453 121.084 124.274C120.931 124.095 120.822 123.882 120.766 123.653L120.761 123.63ZM121.57 128.28C121.57 127.501 120.938 126.87 120.16 126.87C119.381 126.87 118.75 127.501 118.75 128.28C118.75 129.059 119.381 129.69 120.16 129.69C120.938 129.69 121.57 129.059 121.57 128.28ZM122.445 128.28C122.445 129.542 121.422 130.565 120.16 130.565C118.898 130.565 117.875 129.542 117.875 128.28C117.875 127.018 118.898 125.995 120.16 125.995C121.422 125.995 122.445 127.018 122.445 128.28Z" fill="var(--sol-element-primary)"/>
<path d="M134.254 123.381H135.73L139.066 131.529H139.189L142.525 123.381H144.002V133.279H142.84V125.801H142.744L139.668 133.279H138.574L135.498 125.801H135.416V133.279H134.254V123.381ZM149.156 133.43C147.01 133.43 145.684 131.912 145.684 129.629C145.684 127.346 147.023 125.76 149.047 125.76C150.605 125.76 152.246 126.717 152.246 129.465V129.957H146.859C146.914 131.529 147.83 132.391 149.156 132.391C150.045 132.391 150.605 132.008 150.879 131.543H152.137C151.781 132.664 150.688 133.43 149.156 133.43ZM146.873 128.959H151.057C151.057 127.715 150.264 126.799 149.047 126.799C147.762 126.799 146.941 127.811 146.873 128.959ZM154.953 128.822V133.279H153.777V125.855H154.912V127.018H155.008C155.363 126.266 156.047 125.76 157.182 125.76C158.686 125.76 159.684 126.676 159.684 128.562V133.279H158.508V128.645C158.508 127.496 157.879 126.812 156.826 126.812C155.746 126.812 154.953 127.537 154.953 128.822ZM166.26 130.23V125.855H167.422V133.279H166.26V132.021H166.178C165.822 132.773 165.098 133.375 163.977 133.375C162.568 133.375 161.57 132.459 161.57 130.572V125.855H162.746V130.49C162.746 131.557 163.416 132.24 164.359 132.24C165.193 132.24 166.26 131.611 166.26 130.23ZM174.203 123.381V133.279H172.973V123.381H174.203ZM179.48 125.855V126.84H177.922V131.146C177.922 132.104 178.387 132.254 178.893 132.254C179.111 132.254 179.412 132.24 179.59 132.227V133.32C179.412 133.348 179.111 133.375 178.77 133.375C177.785 133.375 176.732 132.76 176.732 131.447V126.84H175.611V125.855H176.732V124.078H177.922V125.855H179.48ZM184.047 133.43C181.9 133.43 180.574 131.912 180.574 129.629C180.574 127.346 181.914 125.76 183.938 125.76C185.496 125.76 187.137 126.717 187.137 129.465V129.957H181.75C181.805 131.529 182.721 132.391 184.047 132.391C184.936 132.391 185.496 132.008 185.77 131.543H187.027C186.672 132.664 185.578 133.43 184.047 133.43ZM181.764 128.959H185.947C185.947 127.715 185.154 126.799 183.938 126.799C182.652 126.799 181.832 127.811 181.764 128.959ZM188.668 133.279V125.855H189.803V127.018H189.898C190.213 126.225 190.924 125.76 191.895 125.76C192.865 125.76 193.521 126.225 193.877 127.018H193.959C194.342 126.252 195.121 125.76 196.188 125.76C197.514 125.76 198.457 126.566 198.457 128.316V133.279H197.281V128.33C197.281 127.236 196.584 126.812 195.777 126.812C194.738 126.812 194.15 127.51 194.15 128.453V133.279H192.961V128.207C192.961 127.373 192.359 126.812 191.512 126.812C190.623 126.812 189.844 127.564 189.844 128.645V133.279H188.668Z" fill="var(--sol-element-primary)"/>
<path d="M118.703 155.445C119.074 153.919 121.245 153.919 121.617 155.445L121.62 155.459C121.644 155.549 121.688 155.634 121.749 155.705C121.812 155.78 121.893 155.838 121.984 155.876C122.075 155.913 122.173 155.929 122.271 155.921C122.369 155.914 122.464 155.883 122.548 155.832L122.674 155.762C123.984 155.11 125.4 156.592 124.608 157.892L124.608 157.892C124.557 157.976 124.526 158.071 124.518 158.169C124.511 158.267 124.526 158.365 124.564 158.456C124.601 158.547 124.66 158.627 124.735 158.691C124.809 158.755 124.898 158.8 124.993 158.823C126.521 159.193 126.52 161.366 124.994 161.737C124.899 161.76 124.81 161.805 124.735 161.869C124.661 161.933 124.602 162.014 124.564 162.105C124.527 162.195 124.511 162.294 124.519 162.392C124.526 162.49 124.557 162.584 124.608 162.668C125.426 164.01 123.89 165.546 122.548 164.728C122.464 164.677 122.369 164.647 122.272 164.639C122.174 164.631 122.075 164.647 121.984 164.685C121.894 164.722 121.813 164.781 121.749 164.855C121.685 164.93 121.64 165.019 121.616 165.114C121.246 166.641 119.074 166.64 118.703 165.114V165.114C118.68 165.018 118.635 164.929 118.571 164.855C118.507 164.78 118.426 164.722 118.336 164.684C118.245 164.646 118.147 164.631 118.049 164.638C117.951 164.646 117.856 164.677 117.772 164.728V164.728C116.43 165.546 114.894 164.01 115.711 162.668H115.712C115.763 162.584 115.794 162.489 115.801 162.391C115.809 162.293 115.793 162.195 115.756 162.104C115.718 162.013 115.659 161.933 115.585 161.869C115.51 161.805 115.422 161.76 115.326 161.737C113.798 161.367 113.799 159.194 115.326 158.823C115.736 158.724 115.931 158.253 115.711 157.892C114.894 156.55 116.43 155.014 117.772 155.832C117.856 155.883 117.95 155.913 118.048 155.921C118.146 155.928 118.244 155.913 118.335 155.875C118.426 155.838 118.507 155.779 118.57 155.704C118.634 155.63 118.68 155.541 118.703 155.446V155.445ZM120.761 155.63C120.591 155.018 119.706 155.024 119.553 155.651L119.553 155.651C119.498 155.881 119.389 156.094 119.235 156.274C119.082 156.453 118.888 156.593 118.67 156.684C118.452 156.774 118.216 156.812 117.981 156.794C117.746 156.775 117.518 156.702 117.317 156.579C116.758 156.238 116.118 156.878 116.459 157.437C116.97 158.276 116.547 159.364 115.624 159.649L115.532 159.674C114.896 159.828 114.897 160.732 115.532 160.886H115.532C115.762 160.942 115.975 161.051 116.154 161.204C116.333 161.358 116.474 161.552 116.564 161.77C116.654 161.988 116.692 162.224 116.674 162.459C116.655 162.695 116.582 162.922 116.459 163.124L116.458 163.123C116.118 163.682 116.757 164.321 117.316 163.981C117.518 163.858 117.746 163.785 117.981 163.766C118.216 163.748 118.452 163.785 118.67 163.876C118.888 163.966 119.082 164.107 119.235 164.286C119.389 164.465 119.498 164.678 119.554 164.907L119.57 164.965C119.764 165.543 120.617 165.522 120.766 164.908V164.907C120.822 164.678 120.931 164.465 121.084 164.286C121.238 164.107 121.432 163.966 121.649 163.876C121.867 163.786 122.104 163.749 122.339 163.767C122.574 163.785 122.802 163.858 123.003 163.981C123.562 164.321 124.201 163.682 123.861 163.123C123.738 162.922 123.665 162.694 123.647 162.459C123.629 162.224 123.666 161.988 123.756 161.77C123.846 161.552 123.987 161.358 124.166 161.204C124.345 161.051 124.558 160.942 124.787 160.887V160.886C125.423 160.732 125.422 159.828 124.788 159.674C124.558 159.618 124.345 159.509 124.166 159.356C123.986 159.202 123.846 159.008 123.756 158.79C123.665 158.572 123.628 158.336 123.646 158.101C123.664 157.866 123.738 157.638 123.861 157.436C124.201 156.878 123.562 156.239 123.004 156.579C122.802 156.702 122.574 156.775 122.339 156.794C122.104 156.812 121.867 156.774 121.649 156.684C121.431 156.594 121.238 156.453 121.084 156.274C120.931 156.095 120.822 155.882 120.766 155.653L120.761 155.63ZM121.57 160.28C121.57 159.501 120.938 158.87 120.16 158.87C119.381 158.87 118.75 159.501 118.75 160.28C118.75 161.059 119.381 161.69 120.16 161.69C120.938 161.69 121.57 161.059 121.57 160.28ZM122.445 160.28C122.445 161.542 121.422 162.565 120.16 162.565C118.898 162.565 117.875 161.542 117.875 160.28C117.875 159.018 118.898 157.995 120.16 157.995C121.422 157.995 122.445 159.018 122.445 160.28Z" fill="var(--sol-element-primary)"/>
<path d="M134.254 155.381H135.73L139.066 163.529H139.189L142.525 155.381H144.002V165.279H142.84V157.801H142.744L139.668 165.279H138.574L135.498 157.801H135.416V165.279H134.254V155.381ZM149.156 165.43C147.01 165.43 145.684 163.912 145.684 161.629C145.684 159.346 147.023 157.76 149.047 157.76C150.605 157.76 152.246 158.717 152.246 161.465V161.957H146.859C146.914 163.529 147.83 164.391 149.156 164.391C150.045 164.391 150.605 164.008 150.879 163.543H152.137C151.781 164.664 150.688 165.43 149.156 165.43ZM146.873 160.959H151.057C151.057 159.715 150.264 158.799 149.047 158.799C147.762 158.799 146.941 159.811 146.873 160.959ZM154.953 160.822V165.279H153.777V157.855H154.912V159.018H155.008C155.363 158.266 156.047 157.76 157.182 157.76C158.686 157.76 159.684 158.676 159.684 160.562V165.279H158.508V160.645C158.508 159.496 157.879 158.812 156.826 158.812C155.746 158.812 154.953 159.537 154.953 160.822ZM166.26 162.23V157.855H167.422V165.279H166.26V164.021H166.178C165.822 164.773 165.098 165.375 163.977 165.375C162.568 165.375 161.57 164.459 161.57 162.572V157.855H162.746V162.49C162.746 163.557 163.416 164.24 164.359 164.24C165.193 164.24 166.26 163.611 166.26 162.23ZM174.203 155.381V165.279H172.973V155.381H174.203ZM179.48 157.855V158.84H177.922V163.146C177.922 164.104 178.387 164.254 178.893 164.254C179.111 164.254 179.412 164.24 179.59 164.227V165.32C179.412 165.348 179.111 165.375 178.77 165.375C177.785 165.375 176.732 164.76 176.732 163.447V158.84H175.611V157.855H176.732V156.078H177.922V157.855H179.48ZM184.047 165.43C181.9 165.43 180.574 163.912 180.574 161.629C180.574 159.346 181.914 157.76 183.938 157.76C185.496 157.76 187.137 158.717 187.137 161.465V161.957H181.75C181.805 163.529 182.721 164.391 184.047 164.391C184.936 164.391 185.496 164.008 185.77 163.543H187.027C186.672 164.664 185.578 165.43 184.047 165.43ZM181.764 160.959H185.947C185.947 159.715 185.154 158.799 183.938 158.799C182.652 158.799 181.832 159.811 181.764 160.959ZM188.668 165.279V157.855H189.803V159.018H189.898C190.213 158.225 190.924 157.76 191.895 157.76C192.865 157.76 193.521 158.225 193.877 159.018H193.959C194.342 158.252 195.121 157.76 196.188 157.76C197.514 157.76 198.457 158.566 198.457 160.316V165.279H197.281V160.33C197.281 159.236 196.584 158.812 195.777 158.812C194.738 158.812 194.15 159.51 194.15 160.453V165.279H192.961V160.207C192.961 159.373 192.359 158.812 191.512 158.812C190.623 158.812 189.844 159.564 189.844 160.645V165.279H188.668Z" fill="var(--sol-element-primary)"/>
</g>
<path d="M18 54C18 52.3431 19.3431 51 21 51H88C89.6569 51 91 52.3431 91 54V64C91 65.6569 89.6569 67 88 67H21C19.3431 67 18 65.6569 18 64V54Z" fill="var(--sol-element-primary)" fill-opacity="0.08"/>
</g>
</g>
<defs>
<filter id="filter0_dd_1254_163099" x="94.52" y="71.5393" width="176.96" height="122.96" filterUnits="userSpaceOnUse" color-interpolation-filters="sRGB">
<feFlood flood-opacity="0" result="BackgroundImageFix"/>
<feColorMatrix in="SourceAlpha" type="matrix" values="0 0 0 0 0 0 0 0 0 0 0 0 0 0 0 0 0 0 127 0" result="hardAlpha"/>
<feOffset dy="4.74"/>
<feGaussianBlur stdDeviation="4.74"/>
<feComposite in2="hardAlpha" operator="out"/>
<feColorMatrix type="matrix" values="0 0 0 0 0 0 0 0 0 0 0 0 0 0 0 0 0 0 0.08 0"/>
<feBlend mode="normal" in2="BackgroundImageFix" result="effect1_dropShadow_1254_163099"/>
<feColorMatrix in="SourceAlpha" type="matrix" values="0 0 0 0 0 0 0 0 0 0 0 0 0 0 0 0 0 0 127 0" result="hardAlpha"/>
<feOffset dy="1.58"/>
<feGaussianBlur stdDeviation="3.16"/>
<feComposite in2="hardAlpha" operator="out"/>
<feColorMatrix type="matrix" values="0 0 0 0 0 0 0 0 0 0 0 0 0 0 0 0 0 0 0.08 0"/>
<feBlend mode="normal" in2="effect1_dropShadow_1254_163099" result="effect2_dropShadow_1254_163099"/>
<feBlend mode="normal" in="SourceGraphic" in2="effect2_dropShadow_1254_163099" result="shape"/>
</filter>
<linearGradient id="paint0_linear_1254_163099" x1="259.531" y1="192" x2="259.531" y2="152" gradientUnits="userSpaceOnUse">
<stop stop-color="var(--sol-surface-base-variant)"/>
<stop offset="1" stop-color="var(--sol-surface-base-variant)" stop-opacity="0"/>
</linearGradient>
<clipPath id="clip0_1254_163099">
<rect width="288" height="192" fill="var(--sol-surface)"/>
</clipPath>
<clipPath id="clip1_1254_163099">
<rect width="288" height="174" fill="var(--sol-surface)" transform="translate(0 27)"/>
</clipPath>
</defs>
</svg>
