<svg width="288" height="192" viewBox="0 0 288 192" fill="none" xmlns="http://www.w3.org/2000/svg">
<style>
:root {
  --sol-primary: #282363;
  --sol-element-brand-variant: #3a3480;
  --sol-fill-active: #4d469a;
  --sol-selected-container-variant: #f5f4fd;
  --sol-surface: #ffffff;
  --sol-surface-base-variant: #f5f5f5;
  --sol-secondary-container: #e8e6f8;
  --sol-element-primary: #161616;
  --sol-element-secondary: #484848;
  --sol-element-tertiary: #636363;
  --sol-element-quaternary: #858585;
  --sol-border-brand: #7b74c4;
  --sol-border-normal-variant: rgba(0, 0, 0, 0.08);
  --sol-border-solid-variant: #e0e0e0;
  --sol-border-solid: #d0d0d0;
  --sol-error: #e76067;
  --sol-error-container: #fdeaeb;
  --sol-static-white: #ffffff;
  --sol-static-black: #000000;
  --color-brand-400: #6058b4;
  --color-teal-500: #05a09a;
  --color-green-500: #35a142;
  --color-yellow-500: #d4ae00;
  --color-orange-500: #e06418;
  --color-blue-500: #3e9bca;
  --color-indigo-500: #3d5ed6;
  --color-pink-500: #d03e94;
}
@media (prefers-color-scheme: dark) {
  :root {
    --sol-primary: #9791d4;
    --sol-element-brand-variant: #ffffff;
    --sol-fill-active: #7b74c4;
    --sol-selected-container-variant: rgba(0, 0, 0, 0.08);
    --sol-surface: #161616;
    --sol-surface-base-variant: #1c1c1c;
    --sol-secondary-container: rgba(255, 255, 255, 0.16);
    --sol-element-primary: #ffffff;
    --sol-element-secondary: rgba(255, 255, 255, 0.8);
    --sol-element-tertiary: rgba(255, 255, 255, 0.6);
    --sol-element-quaternary: rgba(255, 255, 255, 0.5);
    --sol-border-brand: #7b74c4;
    --sol-border-normal-variant: rgba(255, 255, 255, 0.08);
    --sol-border-solid-variant: #3d3d3d;
    --sol-border-solid: #333333;
    --sol-error: #ee7a80;
    --sol-error-container: rgba(231, 96, 103, 0.24);
    --sol-static-white: #ffffff;
    --sol-static-black: #000000;
  }
}
</style>
<g clip-path="url(#clip0_1248_159563)">
<rect width="288" height="192" fill="var(--sol-element-primary)" fill-opacity="0.5"/>
<g filter="url(#filter0_d_1248_159563)">
<path d="M32 37C32 34.7909 33.7909 33 36 33H252C254.209 33 256 34.7909 256 37V154C256 156.209 254.209 158 252 158H36C33.7909 158 32 156.209 32 154V37Z" fill="var(--sol-surface)" shape-rendering="crispEdges"/>
<path d="M36 33.5H252C253.933 33.5 255.5 35.067 255.5 37V154C255.5 155.933 253.933 157.5 252 157.5H36C34.067 157.5 32.5 155.933 32.5 154V37C32.5 35.067 34.067 33.5 36 33.5Z" stroke="var(--sol-border-solid-variant)" shape-rendering="crispEdges"/>
<path d="M49.4102 53.793V52.5156H56.1719V53.793H53.5586V61H52.0352V53.793H49.4102ZM57.2969 61V54.6367H58.7969V61H57.2969ZM58.0586 53.7344C57.5898 53.7344 57.1914 53.3711 57.1914 52.9141C57.1914 52.4688 57.5898 52.1055 58.0586 52.1055C58.5391 52.1055 58.9258 52.4688 58.9258 52.9141C58.9258 53.3711 58.5391 53.7344 58.0586 53.7344ZM63.4023 54.6367V55.7852H62.1484V59.0898C62.1484 59.6992 62.4531 59.8281 62.8281 59.8281C63.0039 59.8281 63.2969 59.8164 63.4844 59.8047V61.0234C63.3086 61.0586 63.0156 61.082 62.6406 61.082C61.5156 61.082 60.6484 60.5312 60.6602 59.3359V55.7852H59.7461V54.6367H60.6602V53.1133H62.1484V54.6367H63.4023ZM66.1914 52.5156V61H64.6914V52.5156H66.1914ZM70.4453 61.1289C68.5234 61.1289 67.3516 59.8516 67.3516 57.8594C67.3516 55.8906 68.5469 54.5547 70.3633 54.5547C71.9219 54.5547 73.2695 55.5273 73.2695 57.7656V58.2344H68.8281C68.8457 59.3184 69.4844 59.957 70.457 59.957C71.1133 59.957 71.5586 59.6758 71.7461 59.3008H73.2109C72.9414 60.4023 71.9219 61.1289 70.4453 61.1289ZM68.8398 57.2148H71.8398C71.8281 56.3477 71.2539 55.7148 70.3867 55.7148C69.4844 55.7148 68.8867 56.4004 68.8398 57.2148Z" fill="var(--sol-element-primary)"/>
<path d="M49.8161 83V75.6146H50.7341V82.1839H54.1616V83H49.8161ZM57.5381 83.1122C56.0283 83.1122 55.0083 81.9799 55.0083 80.256C55.0083 78.5321 56.0283 77.3896 57.5381 77.3896C59.0376 77.3896 60.0474 78.5321 60.0474 80.256C60.0474 81.9799 59.0376 83.1122 57.5381 83.1122ZM57.5381 82.3369C58.6499 82.3369 59.1702 81.3577 59.1702 80.256C59.1702 79.1543 58.6499 78.1648 57.5381 78.1648C56.4058 78.1648 55.8855 79.1543 55.8855 80.256C55.8855 81.3577 56.4058 82.3369 57.5381 82.3369ZM61.2001 83V77.461H62.0468V78.3076H62.108C62.312 77.7466 62.8833 77.3692 63.5361 77.3692C63.6687 77.3692 63.8931 77.3794 63.9951 77.3896V78.277C63.9339 78.2566 63.6891 78.2158 63.4647 78.2158C62.669 78.2158 62.0774 78.7667 62.0774 79.5113V83H61.2001ZM67.0044 83.1122C65.4029 83.1122 64.4134 81.9799 64.4134 80.2764C64.4134 78.5729 65.4131 77.3896 66.9228 77.3896C68.0857 77.3896 69.3097 78.1036 69.3097 80.154V80.5212H65.2906C65.3314 81.6943 66.0149 82.3369 67.0044 82.3369C67.6674 82.3369 68.0857 82.0513 68.2897 81.7045H69.2281C68.9629 82.541 68.1469 83.1122 67.0044 83.1122ZM65.3008 79.7766H68.4223C68.4223 78.8483 67.8306 78.1648 66.9228 78.1648C65.9639 78.1648 65.3518 78.9197 65.3008 79.7766ZM70.4522 83V77.461H71.2989V78.328H71.3703C71.6049 77.7364 72.1354 77.3896 72.8596 77.3896C73.5839 77.3896 74.0735 77.7364 74.3387 78.328H74.3999C74.6856 77.7568 75.267 77.3896 76.0627 77.3896C77.0521 77.3896 77.756 77.9914 77.756 79.2971V83H76.8787V79.3073C76.8787 78.4913 76.3585 78.175 75.7566 78.175C74.9814 78.175 74.5427 78.6953 74.5427 79.3991V83H73.6553V79.2155C73.6553 78.5933 73.2064 78.175 72.574 78.175C71.9109 78.175 71.3295 78.7361 71.3295 79.5419V83H70.4522ZM82.8156 75.6146V83H81.8975V75.6146H82.8156ZM84.3355 85.081V77.461H85.1822V78.3382H85.2842C85.4678 78.0424 85.8146 77.3896 86.8857 77.3896C88.273 77.3896 89.2421 78.4913 89.2421 80.2458C89.2421 82.0003 88.273 83.1122 86.8959 83.1122C85.835 83.1122 85.4678 82.4594 85.2842 82.1533H85.2128V85.081H84.3355ZM85.1924 80.2254C85.1924 81.4699 85.7534 82.3267 86.7735 82.3267C87.8242 82.3267 88.3648 81.4087 88.3648 80.2254C88.3648 79.0727 87.8344 78.175 86.7735 78.175C85.733 78.175 85.1924 79.0013 85.1924 80.2254ZM93.4652 78.8993C93.3428 78.4403 92.996 78.1342 92.3431 78.1342C91.6597 78.1342 91.17 78.5015 91.17 78.9707C91.17 79.3379 91.4658 79.5929 92.1187 79.746L92.945 79.95C93.9344 80.1846 94.4241 80.6742 94.4241 81.4495C94.4241 82.4084 93.6386 83.1122 92.2513 83.1122C91.0068 83.1122 90.2621 82.5614 90.1193 81.5515H91.0374C91.1394 82.0921 91.5372 82.3472 92.2309 82.3472C93.0164 82.3472 93.5162 82.0207 93.5162 81.5005C93.5162 81.1129 93.2408 80.8476 92.6083 80.7048L91.7719 80.511C90.8028 80.2866 90.2927 79.7562 90.2927 79.0217C90.2927 78.073 91.119 77.3896 92.3431 77.3896C93.4856 77.3896 94.2098 78.0016 94.3221 78.8993H93.4652ZM99.0654 80.7252V77.461H99.9325V83H99.0654V82.0615H99.0042C98.739 82.6226 98.1984 83.0714 97.3619 83.0714C96.3112 83.0714 95.5666 82.388 95.5666 80.9802V77.461H96.4438V80.919C96.4438 81.7147 96.9437 82.2247 97.6475 82.2247C98.2698 82.2247 99.0654 81.7555 99.0654 80.7252ZM101.34 83V77.461H102.187V78.328H102.258C102.493 77.7364 103.023 77.3896 103.748 77.3896C104.472 77.3896 104.961 77.7364 105.227 78.328H105.288C105.574 77.7568 106.155 77.3896 106.951 77.3896C107.94 77.3896 108.644 77.9914 108.644 79.2971V83H107.767V79.3073C107.767 78.4913 107.246 78.175 106.645 78.175C105.869 78.175 105.431 78.6953 105.431 79.3991V83H104.543V79.2155C104.543 78.5933 104.094 78.175 103.462 78.175C102.799 78.175 102.217 78.7361 102.217 79.5419V83H101.34ZM115.081 83H112.785V75.6146H115.172C117.325 75.6146 118.6 77.0019 118.6 79.2971C118.6 81.6025 117.325 83 115.081 83ZM113.704 82.1839H115.019C116.835 82.1839 117.702 81.0925 117.702 79.2971C117.702 77.512 116.835 76.4307 115.111 76.4307H113.704V82.1839ZM122.099 83.1122C120.589 83.1122 119.569 81.9799 119.569 80.256C119.569 78.5321 120.589 77.3896 122.099 77.3896C123.598 77.3896 124.608 78.5321 124.608 80.256C124.608 81.9799 123.598 83.1122 122.099 83.1122ZM122.099 82.3369C123.211 82.3369 123.731 81.3577 123.731 80.256C123.731 79.1543 123.211 78.1648 122.099 78.1648C120.966 78.1648 120.446 79.1543 120.446 80.256C120.446 81.3577 120.966 82.3369 122.099 82.3369ZM126.638 75.6146V83H125.761V75.6146H126.638ZM130.3 83.1122C128.79 83.1122 127.77 81.9799 127.77 80.256C127.77 78.5321 128.79 77.3896 130.3 77.3896C131.8 77.3896 132.81 78.5321 132.81 80.256C132.81 81.9799 131.8 83.1122 130.3 83.1122ZM130.3 82.3369C131.412 82.3369 131.932 81.3577 131.932 80.256C131.932 79.1543 131.412 78.1648 130.3 78.1648C129.168 78.1648 128.648 79.1543 128.648 80.256C128.648 81.3577 129.168 82.3369 130.3 82.3369ZM133.962 83V77.461H134.809V78.3076H134.87C135.074 77.7466 135.645 77.3692 136.298 77.3692C136.431 77.3692 136.655 77.3794 136.757 77.3896V78.277C136.696 78.2566 136.451 78.2158 136.227 78.2158C135.431 78.2158 134.84 78.7667 134.84 79.5113V83H133.962ZM144.377 77.4712C144.296 76.7469 143.633 76.3287 142.745 76.3287C141.766 76.3287 141.123 76.8387 141.123 77.5426C141.123 78.3178 141.99 78.6035 142.551 78.7463L143.286 78.9503C144.081 79.1543 145.377 79.6133 145.377 80.9904C145.377 82.1941 144.408 83.1326 142.694 83.1326C141.103 83.1326 140.113 82.3063 140.032 81.0823H140.97C141.052 81.9085 141.817 82.2961 142.694 82.2961C143.714 82.2961 144.479 81.7759 144.479 80.97C144.479 80.256 143.796 79.9806 143.021 79.7562L142.113 79.5113C140.95 79.1747 140.236 78.5831 140.236 77.5834C140.236 76.3389 141.348 75.5126 142.776 75.5126C144.204 75.5126 145.234 76.3491 145.275 77.4712H144.377ZM146.581 83V77.461H147.458V83H146.581ZM147.019 76.5429C146.683 76.5429 146.407 76.2879 146.407 75.9615C146.407 75.635 146.683 75.38 147.019 75.38C147.356 75.38 147.642 75.635 147.642 75.9615C147.642 76.2879 147.356 76.5429 147.019 76.5429ZM151.273 77.461V78.1954H150.11V81.4087C150.11 82.1227 150.457 82.2349 150.834 82.2349C150.998 82.2349 151.222 82.2247 151.355 82.2145V83.0306C151.222 83.051 150.998 83.0714 150.743 83.0714C150.008 83.0714 149.223 82.6124 149.223 81.6331V78.1954H148.386V77.461H149.223V76.1349H150.11V77.461H151.273ZM155.466 83H154.507L157.21 75.6146H158.179L160.882 83H159.913L159.179 80.919H156.21L155.466 83ZM156.486 80.1132H158.893L157.72 76.8081H157.659L156.486 80.1132ZM161.77 83V77.461H162.616V78.328H162.688C162.922 77.7364 163.453 77.3896 164.177 77.3896C164.901 77.3896 165.391 77.7364 165.656 78.328H165.717C166.003 77.7568 166.584 77.3896 167.38 77.3896C168.37 77.3896 169.073 77.9914 169.073 79.2971V83H168.196V79.3073C168.196 78.4913 167.676 78.175 167.074 78.175C166.299 78.175 165.86 78.6953 165.86 79.3991V83H164.973V79.2155C164.973 78.5933 164.524 78.175 163.891 78.175C163.228 78.175 162.647 78.7361 162.647 79.5419V83H161.77ZM172.807 83.1122C171.205 83.1122 170.216 81.9799 170.216 80.2764C170.216 78.5729 171.216 77.3896 172.725 77.3896C173.888 77.3896 175.112 78.1036 175.112 80.154V80.5212H171.093C171.134 81.6943 171.817 82.3369 172.807 82.3369C173.47 82.3369 173.888 82.0513 174.092 81.7045H175.031C174.765 82.541 173.949 83.1122 172.807 83.1122ZM171.103 79.7766H174.225C174.225 78.8483 173.633 78.1648 172.725 78.1648C171.766 78.1648 171.154 78.9197 171.103 79.7766ZM178.672 77.461V78.1954H177.509V81.4087C177.509 82.1227 177.856 82.2349 178.234 82.2349C178.397 82.2349 178.621 82.2247 178.754 82.2145V83.0306C178.621 83.051 178.397 83.0714 178.142 83.0714C177.407 83.0714 176.622 82.6124 176.622 81.6331V78.1954H175.785V77.461H176.622V76.1349H177.509V77.461H178.672ZM180.957 82.3165L180.162 85.0912H179.407L179.968 82.3165H180.957ZM54.8552 92.9404C54.641 91.9203 53.7638 91.3695 52.7947 91.3695C51.4584 91.3695 50.4179 92.3998 50.4179 94.3073C50.4179 96.2149 51.4584 97.2451 52.7947 97.2451C53.7638 97.2451 54.6308 96.6943 54.8552 95.6844H55.7733C55.5081 97.1941 54.2942 98.102 52.7947 98.102C50.8973 98.102 49.5304 96.6433 49.5304 94.3073C49.5304 91.9713 50.8973 90.5126 52.7947 90.5126C54.284 90.5126 55.4979 91.4103 55.7733 92.9404H54.8552ZM59.211 98.1122C57.7013 98.1122 56.6812 96.9799 56.6812 95.256C56.6812 93.5321 57.7013 92.3896 59.211 92.3896C60.7105 92.3896 61.7204 93.5321 61.7204 95.256C61.7204 96.9799 60.7105 98.1122 59.211 98.1122ZM59.211 97.3369C60.3229 97.3369 60.8431 96.3577 60.8431 95.256C60.8431 94.1543 60.3229 93.1648 59.211 93.1648C58.0787 93.1648 57.5585 94.1543 57.5585 95.256C57.5585 96.3577 58.0787 97.3369 59.211 97.3369ZM63.7503 94.6745V98H62.8731V92.461H63.7197V93.328H63.7911C64.0563 92.767 64.5664 92.3896 65.4131 92.3896C66.5351 92.3896 67.2798 93.073 67.2798 94.4807V98H66.4025V94.5419C66.4025 93.6851 65.9333 93.175 65.1478 93.175C64.342 93.175 63.7503 93.7157 63.7503 94.6745ZM71.7681 93.8993C71.6457 93.4403 71.2989 93.1342 70.6461 93.1342C69.9626 93.1342 69.473 93.5015 69.473 93.9707C69.473 94.3379 69.7688 94.5929 70.4216 94.746L71.2479 94.95C72.2374 95.1846 72.727 95.6742 72.727 96.4495C72.727 97.4084 71.9416 98.1122 70.5542 98.1122C69.3097 98.1122 68.5651 97.5614 68.4223 96.5515H69.3404C69.4424 97.0921 69.8402 97.3472 70.5338 97.3472C71.3193 97.3472 71.8191 97.0207 71.8191 96.5005C71.8191 96.1129 71.5437 95.8476 70.9113 95.7048L70.0748 95.511C69.1057 95.2866 68.5957 94.7562 68.5957 94.0217C68.5957 93.073 69.422 92.3896 70.6461 92.3896C71.7885 92.3896 72.5128 93.0016 72.625 93.8993H71.7681ZM76.1953 98.1122C74.5938 98.1122 73.6043 96.9799 73.6043 95.2764C73.6043 93.5729 74.604 92.3896 76.1137 92.3896C77.2766 92.3896 78.5007 93.1036 78.5007 95.154V95.5212H74.4815C74.5223 96.6943 75.2058 97.3369 76.1953 97.3369C76.8583 97.3369 77.2766 97.0513 77.4806 96.7045H78.419C78.1538 97.541 77.3378 98.1122 76.1953 98.1122ZM74.4917 94.7766H77.6132C77.6132 93.8483 77.0215 93.1648 76.1137 93.1648C75.1548 93.1648 74.5427 93.9197 74.4917 94.7766ZM81.9077 98.1122C80.3368 98.1122 79.3779 96.9187 79.3779 95.256C79.3779 93.5729 80.3776 92.3896 81.8873 92.3896C83.0706 92.3896 83.9479 93.0832 84.0907 94.1339H83.2134C83.091 93.6239 82.6422 93.1648 81.9077 93.1648C80.9182 93.1648 80.2552 93.9809 80.2552 95.2254C80.2552 96.5107 80.8978 97.3267 81.9077 97.3267C82.5606 97.3267 83.0604 96.9799 83.2134 96.3679H84.0907C83.9479 97.3574 83.142 98.1122 81.9077 98.1122ZM87.5895 92.461V93.1954H86.4267V96.4087C86.4267 97.1227 86.7735 97.2349 87.1509 97.2349C87.3141 97.2349 87.5385 97.2247 87.6711 97.2145V98.0306C87.5385 98.051 87.3141 98.0714 87.0591 98.0714C86.3246 98.0714 85.5392 97.6124 85.5392 96.6331V93.1954H84.7027V92.461H85.5392V91.1349H86.4267V92.461H87.5895ZM90.9966 98.1122C89.3951 98.1122 88.4056 96.9799 88.4056 95.2764C88.4056 93.5729 89.4053 92.3896 90.915 92.3896C92.0779 92.3896 93.302 93.1036 93.302 95.154V95.5212H89.2829C89.3237 96.6943 90.0071 97.3369 90.9966 97.3369C91.6597 97.3369 92.0779 97.0513 92.2819 96.7045H93.2204C92.9552 97.541 92.1391 98.1122 90.9966 98.1122ZM89.2931 94.7766H92.4145C92.4145 93.8483 91.8229 93.1648 90.915 93.1648C89.9561 93.1648 89.3441 93.9197 89.2931 94.7766ZM96.8621 92.461V93.1954H95.6992V96.4087C95.6992 97.1227 96.046 97.2349 96.4234 97.2349C96.5866 97.2349 96.811 97.2247 96.9437 97.2145V98.0306C96.811 98.051 96.5866 98.0714 96.3316 98.0714C95.5972 98.0714 94.8117 97.6124 94.8117 96.6331V93.1954H93.9752V92.461H94.8117V91.1349H95.6992V92.461H96.8621ZM101.493 95.7252V92.461H102.36V98H101.493V97.0615H101.432C101.167 97.6226 100.626 98.0714 99.7897 98.0714C98.739 98.0714 97.9943 97.388 97.9943 95.9802V92.461H98.8716V95.919C98.8716 96.7147 99.3714 97.2247 100.075 97.2247C100.698 97.2247 101.493 96.7555 101.493 95.7252ZM103.768 98V92.461H104.615V93.3076H104.676C104.88 92.7466 105.451 92.3692 106.104 92.3692C106.237 92.3692 106.461 92.3794 106.563 92.3896V93.277C106.502 93.2566 106.257 93.2158 106.033 93.2158C105.237 93.2158 104.645 93.7667 104.645 94.5113V98H103.768ZM110.48 98H109.521L112.224 90.6146H113.193L115.897 98H114.928L114.193 95.919H111.225L110.48 98ZM111.5 95.1132H113.908L112.734 91.8081H112.673L111.5 95.1132ZM118.865 98.1122C117.488 98.1122 116.509 97.0003 116.509 95.2458C116.509 93.4913 117.488 92.3896 118.875 92.3896C119.946 92.3896 120.293 93.0424 120.477 93.3382H120.538V90.6146H121.426V98H120.569V97.1533H120.477C120.283 97.4594 119.926 98.1122 118.865 98.1122ZM118.988 97.3267C119.997 97.3267 120.569 96.4699 120.569 95.2254C120.569 94.0013 120.018 93.175 118.988 93.175C117.927 93.175 117.396 94.0727 117.396 95.2254C117.396 96.4087 117.937 97.3267 118.988 97.3267ZM122.945 98V92.461H123.823V98H122.945ZM123.384 91.5429C123.047 91.5429 122.772 91.2879 122.772 90.9615C122.772 90.635 123.047 90.38 123.384 90.38C123.721 90.38 124.006 90.635 124.006 90.9615C124.006 91.2879 123.721 91.5429 123.384 91.5429ZM125.22 100.081V92.461H126.067V93.3382H126.169C126.352 93.0424 126.699 92.3896 127.77 92.3896C129.158 92.3896 130.127 93.4913 130.127 95.2458C130.127 97.0003 129.158 98.1122 127.781 98.1122C126.72 98.1122 126.352 97.4594 126.169 97.1533H126.097V100.081H125.22ZM126.077 95.2254C126.077 96.4699 126.638 97.3267 127.658 97.3267C128.709 97.3267 129.25 96.4087 129.25 95.2254C129.25 94.0727 128.719 93.175 127.658 93.175C126.618 93.175 126.077 94.0013 126.077 95.2254ZM131.269 98V92.461H132.147V98H131.269ZM131.708 91.5429C131.371 91.5429 131.096 91.2879 131.096 90.9615C131.096 90.635 131.371 90.38 131.708 90.38C132.045 90.38 132.33 90.635 132.33 90.9615C132.33 91.2879 132.045 91.5429 131.708 91.5429ZM136.625 93.8993C136.502 93.4403 136.155 93.1342 135.503 93.1342C134.819 93.1342 134.33 93.5015 134.33 93.9707C134.33 94.3379 134.625 94.5929 135.278 94.746L136.104 94.95C137.094 95.1846 137.584 95.6742 137.584 96.4495C137.584 97.4084 136.798 98.1122 135.411 98.1122C134.166 98.1122 133.422 97.5614 133.279 96.5515H134.197C134.299 97.0921 134.697 97.3472 135.39 97.3472C136.176 97.3472 136.676 97.0207 136.676 96.5005C136.676 96.1129 136.4 95.8476 135.768 95.7048L134.931 95.511C133.962 95.2866 133.452 94.7562 133.452 94.0217C133.452 93.073 134.279 92.3896 135.503 92.3896C136.645 92.3896 137.369 93.0016 137.482 93.8993H136.625ZM140.991 98.1122C139.42 98.1122 138.461 96.9187 138.461 95.256C138.461 93.5729 139.46 92.3896 140.97 92.3896C142.154 92.3896 143.031 93.0832 143.174 94.1339H142.296C142.174 93.6239 141.725 93.1648 140.991 93.1648C140.001 93.1648 139.338 93.9809 139.338 95.2254C139.338 96.5107 139.981 97.3267 140.991 97.3267C141.643 97.3267 142.143 96.9799 142.296 96.3679H143.174C143.031 97.3574 142.225 98.1122 140.991 98.1122ZM144.255 98V92.461H145.132V98H144.255ZM144.693 91.5429C144.357 91.5429 144.081 91.2879 144.081 90.9615C144.081 90.635 144.357 90.38 144.693 90.38C145.03 90.38 145.316 90.635 145.316 90.9615C145.316 91.2879 145.03 91.5429 144.693 91.5429ZM147.407 94.6745V98H146.53V92.461H147.376V93.328H147.448C147.713 92.767 148.223 92.3896 149.07 92.3896C150.192 92.3896 150.936 93.073 150.936 94.4807V98H150.059V94.5419C150.059 93.6851 149.59 93.175 148.804 93.175C147.999 93.175 147.407 93.7157 147.407 94.6745ZM154.588 100.193C153.252 100.193 152.344 99.6117 152.242 98.5814H153.16C153.283 99.1425 153.803 99.4281 154.588 99.4281C155.537 99.4281 156.118 99.0201 156.118 98.102V96.9799H156.047C155.863 97.2859 155.506 97.9184 154.435 97.9184C153.089 97.9184 152.079 96.8983 152.079 95.154C152.079 93.4505 153.058 92.3896 154.445 92.3896C155.517 92.3896 155.863 93.0424 156.067 93.3382H156.139V92.461H156.996V98.153C156.996 99.5811 155.935 100.193 154.588 100.193ZM154.558 97.1329C155.568 97.1329 156.139 96.4087 156.139 95.1846C156.139 94.0013 155.588 93.175 154.558 93.175C153.497 93.175 152.966 94.0727 152.966 95.1846C152.966 96.3373 153.507 97.1329 154.558 97.1329ZM161.127 98V90.6146H165.605V91.4307H162.045V93.8993H165.37V94.7051H162.045V97.1839H165.656V98H161.127ZM167.819 90.6146V98H166.941V90.6146H167.819ZM169.216 98V92.461H170.093V98H169.216ZM169.655 91.5429C169.318 91.5429 169.043 91.2879 169.043 90.9615C169.043 90.635 169.318 90.38 169.655 90.38C169.991 90.38 170.277 90.635 170.277 90.9615C170.277 91.2879 169.991 91.5429 169.655 91.5429ZM173.909 92.461V93.1954H172.746V96.4087C172.746 97.1227 173.092 97.2349 173.47 97.2349C173.633 97.2349 173.858 97.2247 173.99 97.2145V98.0306C173.858 98.051 173.633 98.0714 173.378 98.0714C172.644 98.0714 171.858 97.6124 171.858 96.6331V93.1954H171.022V92.461H171.858V91.1349H172.746V92.461H173.909ZM176.194 97.3165L175.398 100.091H174.643L175.204 97.3165H176.194ZM184.487 92.4712C184.405 91.7469 183.742 91.3287 182.855 91.3287C181.875 91.3287 181.233 91.8387 181.233 92.5426C181.233 93.3178 182.1 93.6035 182.661 93.7463L183.395 93.9503C184.191 94.1543 185.486 94.6133 185.486 95.9904C185.486 97.1941 184.517 98.1326 182.804 98.1326C181.212 98.1326 180.223 97.3063 180.141 96.0823H181.08C181.161 96.9085 181.926 97.2961 182.804 97.2961C183.824 97.2961 184.589 96.7759 184.589 95.97C184.589 95.256 183.905 94.9806 183.13 94.7562L182.222 94.5113C181.059 94.1747 180.345 93.5831 180.345 92.5834C180.345 91.3389 181.457 90.5126 182.885 90.5126C184.313 90.5126 185.344 91.3491 185.384 92.4712H184.487ZM189.016 98.1122C187.414 98.1122 186.425 96.9799 186.425 95.2764C186.425 93.5729 187.425 92.3896 188.934 92.3896C190.097 92.3896 191.321 93.1036 191.321 95.154V95.5212H187.302C187.343 96.6943 188.026 97.3369 189.016 97.3369C189.679 97.3369 190.097 97.0513 190.301 96.7045H191.24C190.974 97.541 190.158 98.1122 189.016 98.1122ZM187.312 94.7766H190.434C190.434 93.8483 189.842 93.1648 188.934 93.1648C187.975 93.1648 187.363 93.9197 187.312 94.7766ZM194.555 98.1122C193.178 98.1122 192.199 97.0003 192.199 95.2458C192.199 93.4913 193.178 92.3896 194.565 92.3896C195.636 92.3896 195.983 93.0424 196.167 93.3382H196.228V90.6146H197.115V98H196.258V97.1533H196.167C195.973 97.4594 195.616 98.1122 194.555 98.1122ZM194.677 97.3267C195.687 97.3267 196.258 96.4699 196.258 95.2254C196.258 94.0013 195.708 93.175 194.677 93.175C193.616 93.175 193.086 94.0727 193.086 95.2254C193.086 96.4087 193.627 97.3267 194.677 97.3267ZM203.664 98H201.369V90.6146H203.756C205.908 90.6146 207.183 92.0019 207.183 94.2971C207.183 96.6025 205.908 98 203.664 98ZM202.287 97.1839H203.603C205.419 97.1839 206.286 96.0925 206.286 94.2971C206.286 92.512 205.419 91.4307 203.695 91.4307H202.287V97.1839ZM210.682 98.1122C209.173 98.1122 208.153 96.9799 208.153 95.256C208.153 93.5321 209.173 92.3896 210.682 92.3896C212.182 92.3896 213.192 93.5321 213.192 95.256C213.192 96.9799 212.182 98.1122 210.682 98.1122ZM210.682 97.3369C211.794 97.3369 212.314 96.3577 212.314 95.256C212.314 94.1543 211.794 93.1648 210.682 93.1648C209.55 93.1648 209.03 94.1543 209.03 95.256C209.03 96.3577 209.55 97.3369 210.682 97.3369ZM217.078 98V90.6146H221.556V91.4307H217.996V93.8993H221.322V94.7051H217.996V97.1839H221.607V98H217.078ZM222.893 98V92.461H223.77V98H222.893ZM223.331 91.5429C222.995 91.5429 222.719 91.2879 222.719 90.9615C222.719 90.635 222.995 90.38 223.331 90.38C223.668 90.38 223.954 90.635 223.954 90.9615C223.954 91.2879 223.668 91.5429 223.331 91.5429ZM228.666 95.7252V92.461H229.533V98H228.666V97.0615H228.605C228.34 97.6226 227.799 98.0714 226.963 98.0714C225.912 98.0714 225.167 97.388 225.167 95.9802V92.461H226.045V95.919C226.045 96.7147 226.545 97.2247 227.248 97.2247C227.871 97.2247 228.666 96.7555 228.666 95.7252ZM231.563 98.0612C231.206 98.0612 230.9 97.7654 230.91 97.3982C230.9 97.0411 231.206 96.7453 231.563 96.7453C231.92 96.7453 232.216 97.0411 232.216 97.3982C232.216 97.7654 231.92 98.0612 231.563 98.0612ZM234.216 98.0612C233.859 98.0612 233.552 97.7654 233.563 97.3982C233.552 97.0411 233.859 96.7453 234.216 96.7453C234.573 96.7453 234.868 97.0411 234.868 97.3982C234.868 97.7654 234.573 98.0612 234.216 98.0612ZM236.868 98.0612C236.511 98.0612 236.205 97.7654 236.215 97.3982C236.205 97.0411 236.511 96.7453 236.868 96.7453C237.225 96.7453 237.521 97.0411 237.521 97.3982C237.521 97.7654 237.225 98.0612 236.868 98.0612Z" fill="var(--sol-element-tertiary)"/>
<g clip-path="url(#clip1_1248_159563)">
<path d="M137.523 120.704C137.523 119.103 138.822 117.805 140.423 117.805H181.013C182.615 117.805 183.913 119.103 183.913 120.704V138.1C183.913 139.701 182.615 140.999 181.013 140.999H140.423C138.822 140.999 137.523 139.701 137.523 138.1V120.704Z" fill="var(--sol-surface)"/>
<path d="M151.463 127.825C151.336 127.086 150.741 126.661 149.994 126.661C148.983 126.661 148.278 127.434 148.278 128.827C148.278 130.237 148.992 130.993 149.994 130.993C150.724 130.993 151.319 130.586 151.463 129.864H152.576C152.406 131.044 151.438 131.987 149.977 131.987C148.355 131.987 147.165 130.807 147.165 128.827C147.165 126.84 148.372 125.668 149.977 125.668C151.336 125.668 152.389 126.458 152.576 127.825H151.463ZM153.264 130.603C153.264 129.566 154.122 129.261 154.98 129.21C155.299 129.188 155.961 129.15 156.161 129.142V128.777C156.161 128.318 155.863 128.055 155.328 128.055C154.844 128.055 154.547 128.275 154.462 128.607H153.417C153.494 127.825 154.199 127.231 155.354 127.231C156.229 127.231 157.239 127.587 157.239 128.819V131.902H156.203V131.265H156.169C155.965 131.656 155.532 131.996 154.81 131.996C153.927 131.996 153.264 131.512 153.264 130.603ZM154.309 130.594C154.309 130.993 154.632 131.197 155.09 131.197C155.744 131.197 156.169 130.764 156.169 130.246V129.864L155.15 129.932C154.632 129.974 154.309 130.187 154.309 130.594ZM159.346 129.201V131.902H158.259V127.29H159.295V128.071H159.354C159.567 127.553 160.034 127.231 160.722 127.231C161.682 127.231 162.31 127.859 162.302 128.963V131.902H161.223V129.133C161.223 128.513 160.892 128.148 160.323 128.148C159.745 128.148 159.346 128.53 159.346 129.201ZM165.351 131.996C163.975 131.996 163.143 131.01 163.143 129.617C163.143 128.207 164.001 127.231 165.351 127.231C166.473 127.231 167.254 127.885 167.33 128.878H166.294C166.209 128.437 165.886 128.097 165.36 128.097C164.689 128.097 164.239 128.666 164.239 129.592C164.239 130.543 164.68 131.112 165.36 131.112C165.844 131.112 166.201 130.832 166.294 130.331H167.33C167.246 131.308 166.507 131.996 165.351 131.996ZM170.193 131.996C168.8 131.996 167.951 131.07 167.951 129.626C167.951 128.199 168.817 127.231 170.134 127.231C171.263 127.231 172.24 127.936 172.24 129.558V129.898H169.021C169.034 130.683 169.496 131.146 170.201 131.146C170.677 131.146 171 130.943 171.136 130.671H172.198C172.002 131.469 171.263 131.996 170.193 131.996ZM169.029 129.159H171.204C171.195 128.53 170.779 128.071 170.151 128.071C169.496 128.071 169.063 128.568 169.029 129.159ZM174.168 125.753V131.902H173.081V125.753H174.168Z" fill="var(--sol-primary)"/>
</g>
<path d="M140.423 118.167H181.014C182.415 118.167 183.55 119.303 183.55 120.704V138.1C183.55 139.501 182.415 140.637 181.014 140.637H140.423C139.022 140.637 137.886 139.501 137.886 138.1V120.704C137.886 119.303 139.022 118.167 140.423 118.167Z" stroke="var(--sol-element-primary)" stroke-opacity="0.16" stroke-width="0.724832"/>
<g clip-path="url(#clip2_1248_159563)">
<path d="M192.61 120.704C192.61 119.103 193.908 117.805 195.51 117.805H236.1C237.702 117.805 239 119.103 239 120.704V138.1C239 139.701 237.702 140.999 236.1 140.999H195.51C193.908 140.999 192.61 139.701 192.61 138.1V120.704Z" fill="var(--sol-primary)"/>
<path d="M204.104 131.902H202.923L205.089 125.753H206.448L208.623 131.902H207.442L206.933 130.382H204.614L204.104 131.902ZM204.911 129.49H206.635L205.794 127.01H205.743L204.911 129.49ZM211.18 131.996C209.804 131.996 208.971 131.01 208.971 129.617C208.971 128.207 209.829 127.231 211.18 127.231C212.301 127.231 213.082 127.885 213.159 128.878H212.122C212.038 128.437 211.715 128.097 211.188 128.097C210.517 128.097 210.067 128.666 210.067 129.592C210.067 130.543 210.509 131.112 211.188 131.112C211.672 131.112 212.029 130.832 212.122 130.331H213.159C213.074 131.308 212.335 131.996 211.18 131.996ZM216.276 127.29V128.122H215.367V130.518C215.367 130.959 215.588 131.053 215.86 131.053C215.987 131.053 216.2 131.044 216.336 131.036V131.919C216.208 131.945 215.996 131.962 215.724 131.962C214.909 131.962 214.28 131.563 214.288 130.696V128.122H213.626V127.29H214.288V126.186H215.367V127.29H216.276ZM217.109 131.902V127.29H218.196V131.902H217.109ZM217.661 126.636C217.321 126.636 217.032 126.373 217.032 126.041C217.032 125.719 217.321 125.455 217.661 125.455C218.009 125.455 218.289 125.719 218.289 126.041C218.289 126.373 218.009 126.636 217.661 126.636ZM221.245 131.996C219.903 131.996 219.037 131.044 219.037 129.617C219.037 128.182 219.903 127.231 221.245 127.231C222.596 127.231 223.454 128.182 223.454 129.617C223.454 131.044 222.596 131.996 221.245 131.996ZM221.254 131.129C221.993 131.129 222.358 130.458 222.358 129.609C222.358 128.768 221.993 128.088 221.254 128.088C220.498 128.088 220.132 128.768 220.132 129.609C220.132 130.458 220.498 131.129 221.254 131.129ZM225.382 129.201V131.902H224.295V127.29H225.331V128.071H225.39C225.603 127.553 226.07 127.231 226.758 127.231C227.718 127.231 228.346 127.859 228.338 128.963V131.902H227.259V129.133C227.259 128.513 226.928 128.148 226.359 128.148C225.781 128.148 225.382 128.53 225.382 129.201Z" fill="var(--sol-surface)"/>
</g>
</g>
</g>
<defs>
<filter id="filter0_d_1248_159563" x="30" y="33" width="228" height="129" filterUnits="userSpaceOnUse" color-interpolation-filters="sRGB">
<feFlood flood-opacity="0" result="BackgroundImageFix"/>
<feColorMatrix in="SourceAlpha" type="matrix" values="0 0 0 0 0 0 0 0 0 0 0 0 0 0 0 0 0 0 127 0" result="hardAlpha"/>
<feOffset dy="2"/>
<feGaussianBlur stdDeviation="1"/>
<feComposite in2="hardAlpha" operator="out"/>
<feColorMatrix type="matrix" values="0 0 0 0 0 0 0 0 0 0 0 0 0 0 0 0 0 0 0.04 0"/>
<feBlend mode="normal" in2="BackgroundImageFix" result="effect1_dropShadow_1248_159563"/>
<feBlend mode="normal" in="SourceGraphic" in2="effect1_dropShadow_1248_159563" result="shape"/>
</filter>
<clipPath id="clip0_1248_159563">
<rect width="288" height="192" fill="var(--sol-surface)"/>
</clipPath>
<clipPath id="clip1_1248_159563">
<path d="M137.523 120.704C137.523 119.103 138.822 117.805 140.423 117.805H181.013C182.615 117.805 183.913 119.103 183.913 120.704V138.1C183.913 139.701 182.615 140.999 181.013 140.999H140.423C138.822 140.999 137.523 139.701 137.523 138.1V120.704Z" fill="var(--sol-surface)"/>
</clipPath>
<clipPath id="clip2_1248_159563">
<path d="M192.61 120.704C192.61 119.103 193.908 117.805 195.51 117.805H236.1C237.702 117.805 239 119.103 239 120.704V138.1C239 139.701 237.702 140.999 236.1 140.999H195.51C193.908 140.999 192.61 139.701 192.61 138.1V120.704Z" fill="var(--sol-surface)"/>
</clipPath>
</defs>
</svg>
