<svg width="288" height="192" viewBox="0 0 288 192" fill="none" xmlns="http://www.w3.org/2000/svg">
<style>
:root {
  --sol-primary: #282363;
  --sol-element-brand-variant: #3a3480;
  --sol-fill-active: #4d469a;
  --sol-selected-container-variant: #f5f4fd;
  --sol-surface: #ffffff;
  --sol-surface-base-variant: #f5f5f5;
  --sol-secondary-container: #e8e6f8;
  --sol-element-primary: #161616;
  --sol-element-secondary: #484848;
  --sol-element-tertiary: #636363;
  --sol-element-quaternary: #858585;
  --sol-border-brand: #7b74c4;
  --sol-border-normal-variant: rgba(0, 0, 0, 0.08);
  --sol-border-solid-variant: #e0e0e0;
  --sol-border-solid: #d0d0d0;
  --sol-error: #e76067;
  --sol-error-container: #fdeaeb;
  --sol-static-white: #ffffff;
  --sol-static-black: #000000;
  --color-brand-400: #6058b4;
  --color-teal-500: #05a09a;
  --color-green-500: #35a142;
  --color-yellow-500: #d4ae00;
  --color-orange-500: #e06418;
  --color-blue-500: #3e9bca;
  --color-indigo-500: #3d5ed6;
  --color-pink-500: #d03e94;
}
@media (prefers-color-scheme: dark) {
  :root {
    --sol-primary: #9791d4;
    --sol-element-brand-variant: #ffffff;
    --sol-fill-active: #7b74c4;
    --sol-selected-container-variant: rgba(0, 0, 0, 0.08);
    --sol-surface: #161616;
    --sol-surface-base-variant: #1c1c1c;
    --sol-secondary-container: rgba(255, 255, 255, 0.16);
    --sol-element-primary: #ffffff;
    --sol-element-secondary: rgba(255, 255, 255, 0.8);
    --sol-element-tertiary: rgba(255, 255, 255, 0.6);
    --sol-element-quaternary: rgba(255, 255, 255, 0.5);
    --sol-border-brand: #7b74c4;
    --sol-border-normal-variant: rgba(255, 255, 255, 0.08);
    --sol-border-solid-variant: #3d3d3d;
    --sol-border-solid: #333333;
    --sol-error: #ee7a80;
    --sol-error-container: rgba(231, 96, 103, 0.24);
    --sol-static-white: #ffffff;
    --sol-static-black: #000000;
  }
}
</style>
<g clip-path="url(#clip0_1248_158580)">
<rect y="140" width="302" height="52" fill="url(#paint0_linear_1248_158580)"/>
<mask id="mask0_1248_158580" style="mask-type:alpha" maskUnits="userSpaceOnUse" x="104" y="90" width="12" height="12">
<path d="M111.765 93.2646L109.03 95.9995L111.765 98.7344L111.235 99.2646L108.235 96.2646C108.088 96.1182 108.088 95.8808 108.235 95.7344L111.235 92.7344L111.765 93.2646Z" fill="var(--sol-element-primary)"/>
</mask>
<g mask="url(#mask0_1248_158580)">
<rect x="104" y="90" width="12" height="12" fill="var(--sol-element-primary)" fill-opacity="0.3"/>
</g>
<path d="M124 96C124 93.7909 125.791 92 128 92C130.209 92 132 93.7909 132 96C132 98.2091 130.209 100 128 100C125.791 100 124 98.2091 124 96Z" fill="var(--sol-fill-active)"/>
<path d="M140 96C140 93.7909 141.791 92 144 92C146.209 92 148 93.7909 148 96C148 98.2091 146.209 100 144 100C141.791 100 140 98.2091 140 96Z" fill="var(--sol-element-primary)" fill-opacity="0.24"/>
<path d="M156 96C156 93.7909 157.791 92 160 92C162.209 92 164 93.7909 164 96C164 98.2091 162.209 100 160 100C157.791 100 156 98.2091 156 96Z" fill="var(--sol-element-primary)" fill-opacity="0.24"/>
<mask id="mask1_1248_158580" style="mask-type:alpha" maskUnits="userSpaceOnUse" x="172" y="90" width="12" height="12">
<path d="M179.765 95.7344C179.911 95.8808 179.911 96.1182 179.765 96.2646L176.765 99.2646L176.234 98.7344L178.969 95.9995L176.234 93.2646L176.765 92.7344L179.765 95.7344Z" fill="var(--sol-element-primary)"/>
</mask>
<g mask="url(#mask1_1248_158580)">
<rect x="172" y="90" width="12" height="12" fill="var(--sol-element-primary)"/>
</g>
</g>
<defs>
<linearGradient id="paint0_linear_1248_158580" x1="259.531" y1="192" x2="259.531" y2="140" gradientUnits="userSpaceOnUse">
<stop stop-opacity="0.04"/>
<stop offset="1" stop-color="var(--sol-surface)" stop-opacity="0"/>
</linearGradient>
<clipPath id="clip0_1248_158580">
<rect width="288" height="192" fill="var(--sol-surface)"/>
</clipPath>
</defs>
</svg>
