<svg width="288" height="192" viewBox="0 0 288 192" fill="none" xmlns="http://www.w3.org/2000/svg">
<style>
:root {
  --sol-primary: #282363;
  --sol-element-brand-variant: #3a3480;
  --sol-fill-active: #4d469a;
  --sol-selected-container-variant: #f5f4fd;
  --sol-surface: #ffffff;
  --sol-surface-base-variant: #f5f5f5;
  --sol-secondary-container: #e8e6f8;
  --sol-element-primary: #161616;
  --sol-element-secondary: #484848;
  --sol-element-tertiary: #636363;
  --sol-element-quaternary: #858585;
  --sol-border-brand: #7b74c4;
  --sol-border-normal-variant: rgba(0, 0, 0, 0.08);
  --sol-border-solid-variant: #e0e0e0;
  --sol-border-solid: #d0d0d0;
  --sol-error: #e76067;
  --sol-error-container: #fdeaeb;
  --sol-static-white: #ffffff;
  --sol-static-black: #000000;
  --color-brand-400: #6058b4;
  --color-teal-500: #05a09a;
  --color-green-500: #35a142;
  --color-yellow-500: #d4ae00;
  --color-orange-500: #e06418;
  --color-blue-500: #3e9bca;
  --color-indigo-500: #3d5ed6;
  --color-pink-500: #d03e94;
}
@media (prefers-color-scheme: dark) {
  :root {
    --sol-primary: #9791d4;
    --sol-element-brand-variant: #ffffff;
    --sol-fill-active: #7b74c4;
    --sol-selected-container-variant: rgba(0, 0, 0, 0.08);
    --sol-surface: #161616;
    --sol-surface-base-variant: #1c1c1c;
    --sol-secondary-container: rgba(255, 255, 255, 0.16);
    --sol-element-primary: #ffffff;
    --sol-element-secondary: rgba(255, 255, 255, 0.8);
    --sol-element-tertiary: rgba(255, 255, 255, 0.6);
    --sol-element-quaternary: rgba(255, 255, 255, 0.5);
    --sol-border-brand: #7b74c4;
    --sol-border-normal-variant: rgba(255, 255, 255, 0.08);
    --sol-border-solid-variant: #3d3d3d;
    --sol-border-solid: #333333;
    --sol-error: #ee7a80;
    --sol-error-container: rgba(231, 96, 103, 0.24);
    --sol-static-white: #ffffff;
    --sol-static-black: #000000;
  }
}
</style>
<g clip-path="url(#clip0_1248_158574)">
<rect y="140" width="302" height="52" fill="url(#paint0_linear_1248_158574)"/>
<mask id="mask0_1248_158574" style="mask-type:alpha" maskUnits="userSpaceOnUse" x="40" y="88" width="16" height="16">
<path d="M47.4193 92.8806L44.5805 95.7194L47.4193 98.5582L46.7458 99.2318L43.5702 96.0562C43.3842 95.8702 43.3842 95.5686 43.5702 95.3826L46.7458 92.207L47.4193 92.8806ZM51.8652 92.8806L49.0264 95.7194L51.8652 98.5582L51.1916 99.2318L48.016 96.0562C47.83 95.8702 47.83 95.5686 48.016 95.3826L51.1916 92.207L51.8652 92.8806Z" fill="var(--sol-element-primary)"/>
</mask>
<g mask="url(#mask0_1248_158574)">
<rect x="40.0967" y="88.0977" width="15.2428" height="15.2428" fill="var(--sol-element-primary)"/>
</g>
<mask id="mask1_1248_158574" style="mask-type:alpha" maskUnits="userSpaceOnUse" x="67" y="88" width="16" height="16">
<path d="M77.3972 92.2458L73.9233 95.7198L77.3972 99.1937L76.7237 99.8672L72.913 96.0565C72.7269 95.8705 72.7269 95.569 72.913 95.383L76.7237 91.5723L77.3972 92.2458Z" fill="var(--sol-element-primary)"/>
</mask>
<g mask="url(#mask1_1248_158574)">
<rect x="67.5342" y="88.0977" width="15.2428" height="15.2428" fill="var(--sol-element-primary)"/>
</g>
<path d="M103.833 92.456V100H102.468V93.7793H102.426L100.665 94.9047V93.6647L102.53 92.456H103.833Z" fill="var(--sol-primary)"/>
<path fill-rule="evenodd" clip-rule="evenodd" d="M106.728 109.001H98.0195V106.715H106.728V109.001Z" fill="var(--sol-element-brand-variant)"/>
<path d="M127.607 100L127.597 99.3123L130.171 96.6031C131.067 95.6549 131.494 95.1443 131.494 94.4462C131.494 93.6751 130.838 93.1646 129.994 93.1646C129.097 93.1646 128.524 93.7376 128.524 94.5817H127.639C127.628 93.2479 128.66 92.3518 130.025 92.3518C131.39 92.3518 132.369 93.2688 132.369 94.4462C132.369 95.2902 131.973 95.9467 130.64 97.3221L128.91 99.1039V99.1664H132.505V100H127.607Z" fill="var(--sol-element-quaternary)"/>
<path d="M157.487 100.104C155.987 100.104 154.914 99.3019 154.862 98.1036H155.81C155.862 98.8226 156.581 99.2706 157.477 99.2706C158.467 99.2706 159.196 98.7288 159.196 97.9473C159.196 97.1241 158.54 96.5406 157.362 96.5406H156.748V95.7174H157.362C158.279 95.7174 158.915 95.2069 158.915 94.4254C158.915 93.6751 158.363 93.1646 157.508 93.1646C156.706 93.1646 155.966 93.6126 155.924 94.3524H155.018C155.07 93.1541 156.175 92.3518 157.519 92.3518C158.957 92.3518 159.832 93.2896 159.821 94.3733C159.832 95.2277 159.332 95.8633 158.54 96.0821V96.1342C159.519 96.2905 160.124 96.9887 160.113 97.9473C160.124 99.1872 158.988 100.104 157.487 100.104Z" fill="var(--sol-element-quaternary)"/>
<path d="M182.096 98.4579V97.6868L185.493 92.456H186.649V97.6347H187.702V98.4579H186.649V100H185.753V98.4579H182.096ZM183.107 97.6347H185.753V93.6439H185.66L183.107 97.5722V97.6347Z" fill="var(--sol-element-quaternary)"/>
<mask id="mask2_1248_158574" style="mask-type:alpha" maskUnits="userSpaceOnUse" x="204" y="88" width="16" height="16">
<path d="M214.582 95.383C214.768 95.569 214.768 95.8705 214.582 96.0565L210.771 99.8672L210.098 99.1937L213.572 95.7198L210.098 92.2458L210.771 91.5723L214.582 95.383Z" fill="var(--sol-element-primary)"/>
</mask>
<g mask="url(#mask2_1248_158574)">
<rect x="204.719" y="88.0977" width="15.2428" height="15.2428" fill="var(--sol-element-primary)"/>
</g>
<mask id="mask3_1248_158574" style="mask-type:alpha" maskUnits="userSpaceOnUse" x="232" y="88" width="16" height="16">
<path d="M239.479 95.3826L239.512 95.4186C239.654 95.5932 239.654 95.8456 239.512 96.0202L239.479 96.0562L236.303 99.2318L235.63 98.5582L238.469 95.7194L235.63 92.8806L236.303 92.207L239.479 95.3826ZM243.925 95.3826L243.958 95.4186C244.1 95.5932 244.1 95.8456 243.958 96.0202L243.925 96.0562L240.749 99.2318L240.076 98.5582L242.915 95.7194L240.076 92.8806L240.749 92.207L243.925 95.3826Z" fill="var(--sol-element-primary)"/>
</mask>
<g mask="url(#mask3_1248_158574)">
<rect x="232.156" y="88.0977" width="15.2428" height="15.2428" fill="var(--sol-element-primary)"/>
</g>
</g>
<defs>
<linearGradient id="paint0_linear_1248_158574" x1="259.531" y1="192" x2="259.531" y2="140" gradientUnits="userSpaceOnUse">
<stop stop-opacity="0.04"/>
<stop offset="1" stop-color="var(--sol-surface)" stop-opacity="0"/>
</linearGradient>
<clipPath id="clip0_1248_158574">
<rect width="288" height="192" fill="var(--sol-surface)"/>
</clipPath>
</defs>
</svg>
