<svg width="288" height="192" viewBox="0 0 288 192" fill="none" xmlns="http://www.w3.org/2000/svg">
<style>
:root {
  --sol-primary: #282363;
  --sol-element-brand-variant: #3a3480;
  --sol-fill-active: #4d469a;
  --sol-selected-container-variant: #f5f4fd;
  --sol-surface: #ffffff;
  --sol-surface-base-variant: #f5f5f5;
  --sol-secondary-container: #e8e6f8;
  --sol-element-primary: #161616;
  --sol-element-secondary: #484848;
  --sol-element-tertiary: #636363;
  --sol-element-quaternary: #858585;
  --sol-border-brand: #7b74c4;
  --sol-border-normal-variant: rgba(0, 0, 0, 0.08);
  --sol-border-solid-variant: #e0e0e0;
  --sol-border-solid: #d0d0d0;
  --sol-error: #e76067;
  --sol-error-container: #fdeaeb;
  --sol-static-white: #ffffff;
  --sol-static-black: #000000;
  --color-brand-400: #6058b4;
  --color-teal-500: #05a09a;
  --color-green-500: #35a142;
  --color-yellow-500: #d4ae00;
  --color-orange-500: #e06418;
  --color-blue-500: #3e9bca;
  --color-indigo-500: #3d5ed6;
  --color-pink-500: #d03e94;
}
@media (prefers-color-scheme: dark) {
  :root {
    --sol-primary: #9791d4;
    --sol-element-brand-variant: #ffffff;
    --sol-fill-active: #7b74c4;
    --sol-selected-container-variant: rgba(0, 0, 0, 0.08);
    --sol-surface: #161616;
    --sol-surface-base-variant: #1c1c1c;
    --sol-secondary-container: rgba(255, 255, 255, 0.16);
    --sol-element-primary: #ffffff;
    --sol-element-secondary: rgba(255, 255, 255, 0.8);
    --sol-element-tertiary: rgba(255, 255, 255, 0.6);
    --sol-element-quaternary: rgba(255, 255, 255, 0.5);
    --sol-border-brand: #7b74c4;
    --sol-border-normal-variant: rgba(255, 255, 255, 0.08);
    --sol-border-solid-variant: #3d3d3d;
    --sol-border-solid: #333333;
    --sol-error: #ee7a80;
    --sol-error-container: rgba(231, 96, 103, 0.24);
    --sol-static-white: #ffffff;
    --sol-static-black: #000000;
  }
}
</style>
<g clip-path="url(#clip0_1419_456248)">
<rect width="540" height="192" transform="translate(-0.5)" fill="var(--sol-surface)"/>
<mask id="path-1-inside-1_1419_456248" fill="var(--sol-static-white)">
<path d="M28 83.925C28 82.2578 29.3515 80.9062 31.0187 80.9062H141.203V111.094H31.0188C29.3515 111.094 28 109.742 28 108.075V83.925Z"/>
</mask>
<path d="M28 83.925C28 82.2578 29.3515 80.9062 31.0187 80.9062H141.203V111.094H31.0188C29.3515 111.094 28 109.742 28 108.075V83.925Z" fill="var(--sol-selected-container-variant)"/>
<path d="M27.2453 83.925C27.2453 81.841 28.9347 80.1516 31.0187 80.1516H141.203V81.6609H31.0187C29.7683 81.6609 28.7547 82.6746 28.7547 83.925H27.2453ZM141.203 111.848H31.0187C28.9347 111.848 27.2453 110.159 27.2453 108.075H28.7547C28.7547 109.325 29.7683 110.339 31.0187 110.339H141.203V111.848ZM31.0187 111.848C28.9347 111.848 27.2453 110.159 27.2453 108.075V83.925C27.2453 81.841 28.9347 80.1516 31.0187 80.1516V81.6609C29.7683 81.6609 28.7547 82.6746 28.7547 83.925V108.075C28.7547 109.325 29.7683 110.339 31.0187 110.339V111.848ZM31.0187 110.339M141.203 80.9062V111.094V80.9062" fill="var(--sol-fill-active)" mask="url(#path-1-inside-1_1419_456248)"/>
<g opacity="0.6">
<path d="M37.0566 96C37.0566 92.874 39.5908 90.3398 42.7168 90.3398C45.8428 90.3398 48.377 92.874 48.377 96C48.377 99.126 45.8428 101.66 42.7168 101.66C39.5908 101.66 37.0566 99.126 37.0566 96Z" fill="var(--sol-element-brand-variant)"/>
<path d="M46.7159 93.8351L41.8299 98.7211C41.6365 98.9145 41.323 98.9145 41.1296 98.7211L38.7178 96.3093L39.4181 95.6089L41.4796 97.6704L46.0156 93.1348L46.7159 93.8351Z" fill="var(--sol-surface)"/>
</g>
<path opacity="0.6" d="M57.6609 93.5831C57.599 92.9433 57.0521 92.5719 56.2473 92.5719C55.4013 92.5719 54.8854 92.9846 54.8854 93.5418C54.8854 94.1712 55.5457 94.4291 56.1648 94.5736L56.8664 94.7593C57.9807 95.0173 59.0538 95.6054 59.0538 96.9054C59.0538 98.2158 58.022 99.1135 56.2267 99.1135C54.4829 99.1135 53.3892 98.2777 53.3273 96.8023H54.648C54.7099 97.5864 55.3703 97.9682 56.2164 97.9682C57.1037 97.9682 57.7125 97.5348 57.7125 96.8951C57.7125 96.307 57.1656 96.0594 56.3608 95.853L55.5147 95.6363C54.2869 95.3165 53.5234 94.6974 53.5234 93.6243C53.5234 92.3036 54.6996 91.4266 56.268 91.4266C57.8569 91.4266 58.93 92.3243 58.9506 93.5831H57.6609ZM62.9024 93.3973V94.4085H61.7984V97.3182C61.7984 97.8547 62.0667 97.9682 62.3969 97.9682C62.5516 97.9682 62.8096 97.9579 62.9747 97.9476V99.0206C62.8199 99.0516 62.5619 99.0722 62.2318 99.0722C61.2412 99.0722 60.4777 98.5873 60.488 97.5348V94.4085H59.6832V93.3973H60.488V92.056H61.7984V93.3973H62.9024ZM66.3486 99.1135C64.6565 99.1135 63.6247 97.9888 63.6247 96.2348C63.6247 94.5014 64.6771 93.3251 66.2764 93.3251C67.6487 93.3251 68.8353 94.1815 68.8353 96.1522V96.565H64.9248C64.9402 97.5194 65.5026 98.0817 66.359 98.0817C66.9368 98.0817 67.3289 97.8341 67.4939 97.5039H68.7837C68.5464 98.4738 67.6487 99.1135 66.3486 99.1135ZM64.9351 95.6673H67.5765C67.5662 94.9038 67.0606 94.3466 66.2971 94.3466C65.5026 94.3466 64.9763 94.9502 64.9351 95.6673ZM69.8568 101.105V93.3973H71.1465V94.3156H71.2291C71.4354 93.9132 71.8481 93.3251 72.8387 93.3251C74.1284 93.3251 75.1499 94.3363 75.1499 96.2038C75.1499 98.0507 74.1594 99.1032 72.8387 99.1032C71.8688 99.1032 71.4354 98.5254 71.2291 98.1127H71.1775V101.105H69.8568ZM71.1465 96.1935C71.1465 97.2872 71.6211 98.0198 72.4775 98.0198C73.3442 98.0198 73.8086 97.2563 73.8086 96.1935C73.8086 95.1514 73.3546 94.3982 72.4775 94.3982C71.6211 94.3982 71.1465 95.1101 71.1465 96.1935ZM84.8901 91.5298V99H83.6932L80.1541 93.8926H80.0922V99H78.7509V91.5298H79.9684L83.4868 96.6372H83.5591V91.5298H84.8901ZM85.9528 97.4213C85.9528 96.1626 86.9949 95.7911 88.0371 95.7292C88.424 95.7034 89.2288 95.657 89.4713 95.6467V95.203C89.4713 94.6458 89.1101 94.3259 88.4601 94.3259C87.872 94.3259 87.5108 94.5942 87.4077 94.9966H86.1386C86.2314 94.0474 87.0878 93.3251 88.4911 93.3251C89.5538 93.3251 90.7817 93.7585 90.7817 95.2546V99H89.5229V98.2262H89.4816C89.234 98.7008 88.7077 99.1135 87.8307 99.1135C86.7576 99.1135 85.9528 98.5254 85.9528 97.4213ZM87.2219 97.411C87.2219 97.896 87.614 98.1436 88.1712 98.1436C88.9657 98.1436 89.4816 97.6174 89.4816 96.988V96.5237L88.2434 96.6062C87.614 96.6578 87.2219 96.9158 87.2219 97.411ZM92.0198 99V93.3973H93.2786V94.3466H93.3508C93.5778 93.7069 94.1453 93.3251 94.8882 93.3251C95.6517 93.3251 96.1883 93.7069 96.405 94.3466H96.4669C96.7145 93.7275 97.3336 93.3251 98.1487 93.3251C99.1702 93.3251 99.8924 93.9855 99.8924 95.2339V99H98.5821V95.4403C98.5821 94.7387 98.159 94.4291 97.6225 94.4291C96.9724 94.4291 96.601 94.8728 96.601 95.5022V99H95.3216V95.3887C95.3216 94.8109 94.9295 94.4291 94.3723 94.4291C93.8048 94.4291 93.3405 94.8934 93.3405 95.5951V99H92.0198ZM103.638 99.1135C101.946 99.1135 100.914 97.9888 100.914 96.2348C100.914 94.5014 101.966 93.3251 103.566 93.3251C104.938 93.3251 106.125 94.1815 106.125 96.1522V96.565H102.214C102.229 97.5194 102.792 98.0817 103.648 98.0817C104.226 98.0817 104.618 97.8341 104.783 97.5039H106.073C105.836 98.4738 104.938 99.1135 103.638 99.1135ZM102.224 95.6673H104.866C104.855 94.9038 104.35 94.3466 103.586 94.3466C102.792 94.3466 102.266 94.9502 102.224 95.6673Z" fill="var(--sol-element-brand-variant)"/>
<mask id="mask0_1419_456248" style="mask-type:alpha" maskUnits="userSpaceOnUse" x="141" y="80" width="13" height="32">
<rect x="141.203" y="80.9062" width="12.075" height="30.1875" fill="var(--sol-border-solid)"/>
</mask>
<g mask="url(#mask0_1419_456248)">
<mask id="path-7-inside-2_1419_456248" fill="var(--sol-static-white)">
<path d="M141.159 80.9062C141.616 80.9062 142.048 81.1132 142.335 81.4691L152.434 94.0127C153.323 95.1178 153.323 96.6937 152.434 97.7988L142.335 110.343C142.048 110.699 141.616 110.906 141.159 110.906H138.938C138.104 110.906 137.429 110.23 137.429 109.397V82.4156C137.429 81.582 138.104 80.9062 138.938 80.9062H141.159Z"/>
</mask>
<path d="M141.159 80.9062C141.616 80.9062 142.048 81.1132 142.335 81.4691L152.434 94.0127C153.323 95.1178 153.323 96.6937 152.434 97.7988L142.335 110.343C142.048 110.699 141.616 110.906 141.159 110.906H138.938C138.104 110.906 137.429 110.23 137.429 109.397V82.4156C137.429 81.582 138.104 80.9062 138.938 80.9062H141.159Z" fill="var(--sol-selected-container-variant)"/>
<path d="M152.434 94.0127L153.021 93.5395L153.021 93.5394L152.434 94.0127ZM152.434 97.7988L153.021 98.2721L153.022 98.272L152.434 97.7988ZM142.335 110.343L142.923 110.817L142.335 110.343ZM142.335 81.4691L141.747 81.9424L142.335 81.4691ZM142.335 81.4691L141.747 81.9424L151.846 94.486L152.434 94.0127L153.021 93.5394L142.923 80.9958L142.335 81.4691ZM152.434 94.0127L151.846 94.4859C152.513 95.3146 152.513 96.4967 151.846 97.3257L152.434 97.7988L153.022 98.272C154.133 96.8906 154.134 94.9209 153.021 93.5395L152.434 94.0127ZM152.434 97.7988L151.846 97.3256L141.747 109.87L142.335 110.343L142.923 110.817L153.021 98.2721L152.434 97.7988ZM141.159 110.906V110.152H138.938V110.906V111.661H141.159V110.906ZM137.429 109.397H138.183V82.4156H137.429H136.674V109.397H137.429ZM138.938 80.9062V81.6609H141.159V80.9062V80.1516H138.938V80.9062ZM138.938 110.906V110.152C138.521 110.152 138.183 109.814 138.183 109.397H137.429H136.674C136.674 110.647 137.688 111.661 138.938 111.661V110.906ZM142.335 110.343L141.747 109.87C141.604 110.048 141.388 110.152 141.159 110.152V110.906V111.661C141.845 111.661 142.493 111.35 142.923 110.817L142.335 110.343ZM137.429 82.4156H138.183C138.183 81.9988 138.521 81.6609 138.938 81.6609V80.9062V80.1516C137.688 80.1516 136.674 81.1652 136.674 82.4156H137.429ZM142.335 81.4691L142.923 80.9958C142.493 80.462 141.845 80.1516 141.159 80.1516V80.9062V81.6609C141.388 81.6609 141.604 81.7644 141.747 81.9424L142.335 81.4691Z" fill="var(--sol-fill-active)" mask="url(#path-7-inside-2_1419_456248)"/>
</g>
<mask id="mask1_1419_456248" style="mask-type:alpha" maskUnits="userSpaceOnUse" x="147" y="80" width="11" height="32">
<rect x="147.24" y="80.9062" width="10.5656" height="30.1875" fill="var(--sol-border-solid)"/>
</mask>
<g mask="url(#mask1_1419_456248)">
<mask id="path-10-inside-3_1419_456248" fill="var(--sol-static-white)">
<path d="M160.386 109.397C160.386 110.23 159.71 110.906 158.877 110.906H148.765C147.497 110.906 146.794 109.438 147.589 108.45L156.163 97.7988C157.053 96.6938 157.053 95.1188 156.163 94.0137L147.589 83.3621C146.794 82.3745 147.497 80.9062 148.765 80.9062H158.877C159.71 80.9062 160.386 81.582 160.386 82.4156V109.397Z"/>
</mask>
<path d="M160.386 109.397C160.386 110.23 159.71 110.906 158.877 110.906H148.765C147.497 110.906 146.794 109.438 147.589 108.45L156.163 97.7988C157.053 96.6938 157.053 95.1188 156.163 94.0137L147.589 83.3621C146.794 82.3745 147.497 80.9062 148.765 80.9062H158.877C159.71 80.9062 160.386 81.582 160.386 82.4156V109.397Z" fill="var(--sol-secondary-container)"/>
<path d="M156.163 97.7988L155.575 97.3256L155.575 97.3256L156.163 97.7988ZM156.163 94.0137L156.751 93.5405L156.751 93.5405L156.163 94.0137ZM147.589 108.45L147.001 107.977L147.589 108.45ZM158.877 110.906V110.152H148.765V110.906V111.661H158.877V110.906ZM147.589 108.45L148.177 108.924L156.751 98.272L156.163 97.7988L155.575 97.3256L147.001 107.977L147.589 108.45ZM156.163 97.7988L156.751 98.2721C157.863 96.8906 157.863 94.9219 156.751 93.5405L156.163 94.0137L155.575 94.4868C156.242 95.3158 156.243 96.4969 155.575 97.3256L156.163 97.7988ZM156.163 94.0137L156.751 93.5405L148.177 82.8888L147.589 83.3621L147.001 83.8353L155.575 94.4869L156.163 94.0137ZM148.765 80.9062V81.6609H158.877V80.9062V80.1516H148.765V80.9062ZM160.386 82.4156H159.631V109.397H160.386H161.141V82.4156H160.386ZM147.589 83.3621L148.177 82.8888C147.78 82.3951 148.131 81.6609 148.765 81.6609V80.9062V80.1516C146.864 80.1516 145.809 82.354 147.001 83.8353L147.589 83.3621ZM148.765 110.906V110.152C148.131 110.152 147.78 109.417 148.177 108.924L147.589 108.45L147.001 107.977C145.809 109.459 146.864 111.661 148.765 111.661V110.906ZM158.877 80.9062V81.6609C159.293 81.6609 159.631 81.9988 159.631 82.4156H160.386H161.141C161.141 81.1652 160.127 80.1516 158.877 80.1516V80.9062ZM158.877 110.906V111.661C160.127 111.661 161.141 110.647 161.141 109.397H160.386H159.631C159.631 109.814 159.293 110.152 158.877 110.152V110.906Z" fill="var(--sol-fill-active)" mask="url(#path-10-inside-3_1419_456248)"/>
</g>
<mask id="path-12-inside-4_1419_456248" fill="var(--sol-static-white)">
<path d="M157.806 80.9062H260.443V111.094H157.806V80.9062Z"/>
</mask>
<path d="M157.806 80.9062H260.443V111.094H157.806V80.9062Z" fill="var(--sol-secondary-container)"/>
<path d="M157.806 80.9062V81.6609H260.443V80.9062V80.1516H157.806V80.9062ZM260.443 111.094V110.339H157.806V111.094V111.848H260.443V111.094Z" fill="var(--sol-fill-active)" mask="url(#path-12-inside-4_1419_456248)"/>
<path d="M166.862 96C166.862 92.874 169.396 90.3398 172.522 90.3398C175.648 90.3398 178.183 92.874 178.183 96C178.183 99.126 175.648 101.66 172.522 101.66C169.396 101.66 166.862 99.126 166.862 96Z" fill="var(--sol-element-brand-variant)"/>
<path d="M174.934 93.1305V99H173.994L171.213 94.987H171.165V99H170.111V93.1305H171.067L173.832 97.1435H173.888V93.1305H174.934Z" fill="var(--sol-surface)"/>
<path d="M187.467 93.5831C187.405 92.9433 186.858 92.5719 186.053 92.5719C185.207 92.5719 184.691 92.9846 184.691 93.5418C184.691 94.1712 185.351 94.4291 185.97 94.5736L186.672 94.7593C187.786 95.0173 188.859 95.6054 188.859 96.9054C188.859 98.2158 187.828 99.1135 186.032 99.1135C184.289 99.1135 183.195 98.2777 183.133 96.8023H184.454C184.516 97.5864 185.176 97.9682 186.022 97.9682C186.909 97.9682 187.518 97.5348 187.518 96.8951C187.518 96.307 186.971 96.0594 186.166 95.853L185.32 95.6363C184.093 95.3165 183.329 94.6974 183.329 93.6243C183.329 92.3036 184.505 91.4266 186.074 91.4266C187.663 91.4266 188.736 92.3243 188.756 93.5831H187.467ZM192.708 93.3973V94.4085H191.604V97.3182C191.604 97.8547 191.872 97.9682 192.203 97.9682C192.357 97.9682 192.615 97.9579 192.78 97.9476V99.0206C192.626 99.0516 192.368 99.0722 192.037 99.0722C191.047 99.0722 190.283 98.5873 190.294 97.5348V94.4085H189.489V93.3973H190.294V92.056H191.604V93.3973H192.708ZM196.154 99.1135C194.462 99.1135 193.43 97.9888 193.43 96.2348C193.43 94.5014 194.483 93.3251 196.082 93.3251C197.454 93.3251 198.641 94.1815 198.641 96.1522V96.565H194.73C194.746 97.5194 195.308 98.0817 196.165 98.0817C196.742 98.0817 197.135 97.8341 197.3 97.5039H198.589C198.352 98.4738 197.454 99.1135 196.154 99.1135ZM194.741 95.6673H197.382C197.372 94.9038 196.866 94.3466 196.103 94.3466C195.308 94.3466 194.782 94.9502 194.741 95.6673ZM199.662 101.105V93.3973H200.952V94.3156H201.035C201.241 93.9132 201.654 93.3251 202.644 93.3251C203.934 93.3251 204.956 94.3363 204.956 96.2038C204.956 98.0507 203.965 99.1032 202.644 99.1032C201.674 99.1032 201.241 98.5254 201.035 98.1127H200.983V101.105H199.662ZM200.952 96.1935C200.952 97.2872 201.427 98.0198 202.283 98.0198C203.15 98.0198 203.614 97.2563 203.614 96.1935C203.614 95.1514 203.16 94.3982 202.283 94.3982C201.427 94.3982 200.952 95.1101 200.952 96.1935ZM214.696 91.5298V99H213.499L209.96 93.8926H209.898V99H208.557V91.5298H209.774L213.292 96.6372H213.365V91.5298H214.696ZM215.758 97.4213C215.758 96.1626 216.801 95.7911 217.843 95.7292C218.23 95.7034 219.034 95.657 219.277 95.6467V95.203C219.277 94.6458 218.916 94.3259 218.266 94.3259C217.678 94.3259 217.317 94.5942 217.213 94.9966H215.944C216.037 94.0474 216.893 93.3251 218.297 93.3251C219.359 93.3251 220.587 93.7585 220.587 95.2546V99H219.329V98.2262H219.287C219.04 98.7008 218.513 99.1135 217.636 99.1135C216.563 99.1135 215.758 98.5254 215.758 97.4213ZM217.028 97.411C217.028 97.896 217.42 98.1436 217.977 98.1436C218.771 98.1436 219.287 97.6174 219.287 96.988V96.5237L218.049 96.6062C217.42 96.6578 217.028 96.9158 217.028 97.411ZM221.825 99V93.3973H223.084V94.3466H223.156C223.383 93.7069 223.951 93.3251 224.694 93.3251C225.457 93.3251 225.994 93.7069 226.211 94.3466H226.273C226.52 93.7275 227.139 93.3251 227.954 93.3251C228.976 93.3251 229.698 93.9855 229.698 95.2339V99H228.388V95.4403C228.388 94.7387 227.965 94.4291 227.428 94.4291C226.778 94.4291 226.407 94.8728 226.407 95.5022V99H225.127V95.3887C225.127 94.8109 224.735 94.4291 224.178 94.4291C223.61 94.4291 223.146 94.8934 223.146 95.5951V99H221.825ZM233.444 99.1135C231.751 99.1135 230.72 97.9888 230.72 96.2348C230.72 94.5014 231.772 93.3251 233.371 93.3251C234.744 93.3251 235.93 94.1815 235.93 96.1522V96.565H232.02C232.035 97.5194 232.597 98.0817 233.454 98.0817C234.032 98.0817 234.424 97.8341 234.589 97.5039H235.879C235.641 98.4738 234.744 99.1135 233.444 99.1135ZM232.03 95.6673H234.671C234.661 94.9038 234.155 94.3466 233.392 94.3466C232.597 94.3466 232.071 94.9502 232.03 95.6673Z" fill="var(--sol-element-primary)"/>
<mask id="mask2_1419_456248" style="mask-type:alpha" maskUnits="userSpaceOnUse" x="260" y="80" width="13" height="32">
<rect x="260.443" y="80.9062" width="12.075" height="30.1875" fill="var(--sol-border-solid)"/>
</mask>
<g mask="url(#mask2_1419_456248)">
<mask id="path-18-inside-5_1419_456248" fill="var(--sol-static-white)">
<path d="M260.399 80.9062C260.856 80.9062 261.289 81.1132 261.575 81.4691L271.674 94.0127C272.563 95.1178 272.563 96.6937 271.674 97.7988L261.575 110.343C261.289 110.699 260.856 110.906 260.399 110.906H258.178C257.345 110.906 256.669 110.23 256.669 109.397V82.4156C256.669 81.582 257.345 80.9062 258.178 80.9062H260.399Z"/>
</mask>
<path d="M260.399 80.9062C260.856 80.9062 261.289 81.1132 261.575 81.4691L271.674 94.0127C272.563 95.1178 272.563 96.6937 271.674 97.7988L261.575 110.343C261.289 110.699 260.856 110.906 260.399 110.906H258.178C257.345 110.906 256.669 110.23 256.669 109.397V82.4156C256.669 81.582 257.345 80.9062 258.178 80.9062H260.399Z" fill="var(--sol-secondary-container)"/>
<path d="M271.674 94.0127L272.262 93.5395L272.262 93.5394L271.674 94.0127ZM271.674 97.7988L272.262 98.2721L272.262 98.272L271.674 97.7988ZM261.575 110.343L262.163 110.817L261.575 110.343ZM261.575 81.4691L260.987 81.9424L261.575 81.4691ZM261.575 81.4691L260.987 81.9424L271.086 94.486L271.674 94.0127L272.262 93.5394L262.163 80.9958L261.575 81.4691ZM271.674 94.0127L271.086 94.4859C271.753 95.3147 271.753 96.4967 271.086 97.3256L271.674 97.7988L272.262 98.272C273.374 96.8906 273.374 94.9209 272.262 93.5395L271.674 94.0127ZM271.674 97.7988L271.086 97.3256L260.987 109.87L261.575 110.343L262.163 110.817L272.262 98.2721L271.674 97.7988ZM260.399 110.906V110.152H258.178V110.906V111.661H260.399V110.906ZM256.669 109.397H257.424V82.4156H256.669H255.914V109.397H256.669ZM258.178 80.9062V81.6609H260.399V80.9062V80.1516H258.178V80.9062ZM258.178 110.906V110.152C257.762 110.152 257.424 109.814 257.424 109.397H256.669H255.914C255.914 110.647 256.928 111.661 258.178 111.661V110.906ZM261.575 110.343L260.987 109.87C260.844 110.048 260.628 110.152 260.399 110.152V110.906V111.661C261.085 111.661 261.733 111.35 262.163 110.817L261.575 110.343ZM256.669 82.4156H257.424C257.424 81.9988 257.762 81.6609 258.178 81.6609V80.9062V80.1516C256.928 80.1516 255.914 81.1652 255.914 82.4156H256.669ZM261.575 81.4691L262.163 80.9958C261.733 80.462 261.085 80.1516 260.399 80.1516V80.9062V81.6609C260.628 81.6609 260.844 81.7644 260.987 81.9424L261.575 81.4691Z" fill="var(--sol-fill-active)" mask="url(#path-18-inside-5_1419_456248)"/>
</g>
<mask id="mask3_1419_456248" style="mask-type:alpha" maskUnits="userSpaceOnUse" x="266" y="80" width="12" height="32">
<rect x="266.481" y="80.9062" width="10.5656" height="30.1875" fill="var(--sol-border-solid)"/>
</mask>
<g mask="url(#mask3_1419_456248)">
<mask id="path-21-inside-6_1419_456248" fill="var(--sol-static-white)">
<path d="M279.627 109.397C279.627 110.23 278.951 110.906 278.118 110.906H268.006C266.739 110.906 266.036 109.438 266.831 108.45L275.405 97.7988C276.294 96.6938 276.294 95.1188 275.405 94.0137L266.831 83.3621C266.036 82.3745 266.739 80.9062 268.006 80.9062H278.118C278.951 80.9062 279.627 81.582 279.627 82.4156V109.397Z"/>
</mask>
<path d="M275.405 97.7988L274.817 97.3256L274.817 97.3256L275.405 97.7988ZM275.405 94.0137L275.993 93.5405L275.992 93.5405L275.405 94.0137ZM266.831 108.45L266.243 107.977L266.831 108.45ZM278.118 110.906V110.152H268.006V110.906V111.661H278.118V110.906ZM266.831 108.45L267.418 108.924L275.992 98.272L275.405 97.7988L274.817 97.3256L266.243 107.977L266.831 108.45ZM275.405 97.7988L275.992 98.2721C277.104 96.8906 277.104 94.9219 275.993 93.5405L275.405 94.0137L274.817 94.4868C275.484 95.3158 275.484 96.4969 274.817 97.3256L275.405 97.7988ZM275.405 94.0137L275.992 93.5405L267.418 82.8888L266.831 83.3621L266.243 83.8353L274.817 94.4869L275.405 94.0137ZM268.006 80.9062V81.6609H278.118V80.9062V80.1516H268.006V80.9062ZM279.627 82.4156H278.873V109.397H279.627H280.382V82.4156H279.627ZM266.831 83.3621L267.418 82.8888C267.021 82.3951 267.372 81.6609 268.006 81.6609V80.9062V80.1516C266.105 80.1516 265.05 82.354 266.243 83.8353L266.831 83.3621ZM268.006 110.906V110.152C267.372 110.152 267.021 109.417 267.418 108.924L266.831 108.45L266.243 107.977C265.05 109.459 266.105 111.661 268.006 111.661V110.906ZM278.118 80.9062V81.6609C278.535 81.6609 278.873 81.9988 278.873 82.4156H279.627H280.382C280.382 81.1652 279.368 80.1516 278.118 80.1516V80.9062ZM278.118 110.906V111.661C279.368 111.661 280.382 110.647 280.382 109.397H279.627H278.873C278.873 109.814 278.535 110.152 278.118 110.152V110.906Z" fill="var(--sol-element-primary)" fill-opacity="0.16" mask="url(#path-21-inside-6_1419_456248)"/>
</g>
<mask id="path-23-inside-7_1419_456248" fill="var(--sol-static-white)">
<path d="M277.047 80.9062H379.684V111.094H277.047V80.9062Z"/>
</mask>
<path d="M277.047 80.9062V81.6609H379.684V80.9062V80.1516H277.047V80.9062ZM379.684 111.094V110.339H277.047V111.094V111.848H379.684V111.094Z" fill="var(--sol-element-primary)" fill-opacity="0.16" mask="url(#path-23-inside-7_1419_456248)"/>
<path d="M286.104 96C286.104 92.874 288.638 90.3398 291.764 90.3398C294.89 90.3398 297.424 92.874 297.424 96C297.424 99.126 294.89 101.66 291.764 101.66C288.638 101.66 286.104 99.126 286.104 96Z" fill="var(--sol-element-quaternary)"/>
<rect y="140" width="302" height="52" fill="url(#paint0_linear_1419_456248)"/>
</g>
<defs>
<linearGradient id="paint0_linear_1419_456248" x1="259.531" y1="192" x2="259.531" y2="140" gradientUnits="userSpaceOnUse">
<stop stop-opacity="0.04"/>
<stop offset="1" stop-color="var(--sol-surface)" stop-opacity="0"/>
</linearGradient>
<clipPath id="clip0_1419_456248">
<rect width="288" height="192" fill="var(--sol-surface)"/>
</clipPath>
</defs>
</svg>
