<svg width="288" height="192" viewBox="0 0 288 192" fill="none" xmlns="http://www.w3.org/2000/svg">
<style>
:root {
  --sol-primary: #282363;
  --sol-element-brand-variant: #3a3480;
  --sol-fill-active: #4d469a;
  --sol-selected-container-variant: #f5f4fd;
  --sol-surface: #ffffff;
  --sol-surface-base-variant: #f5f5f5;
  --sol-secondary-container: #e8e6f8;
  --sol-element-primary: #161616;
  --sol-element-secondary: #484848;
  --sol-element-tertiary: #636363;
  --sol-element-quaternary: #858585;
  --sol-border-brand: #7b74c4;
  --sol-border-normal-variant: rgba(0, 0, 0, 0.08);
  --sol-border-solid-variant: #e0e0e0;
  --sol-border-solid: #d0d0d0;
  --sol-error: #e76067;
  --sol-error-container: #fdeaeb;
  --sol-static-white: #ffffff;
  --sol-static-black: #000000;
  --color-brand-400: #6058b4;
  --color-teal-500: #05a09a;
  --color-green-500: #35a142;
  --color-yellow-500: #d4ae00;
  --color-orange-500: #e06418;
  --color-blue-500: #3e9bca;
  --color-indigo-500: #3d5ed6;
  --color-pink-500: #d03e94;
}
@media (prefers-color-scheme: dark) {
  :root {
    --sol-primary: #9791d4;
    --sol-element-brand-variant: #ffffff;
    --sol-fill-active: #7b74c4;
    --sol-selected-container-variant: rgba(0, 0, 0, 0.08);
    --sol-surface: #161616;
    --sol-surface-base-variant: #1c1c1c;
    --sol-secondary-container: rgba(255, 255, 255, 0.16);
    --sol-element-primary: #ffffff;
    --sol-element-secondary: rgba(255, 255, 255, 0.8);
    --sol-element-tertiary: rgba(255, 255, 255, 0.6);
    --sol-element-quaternary: rgba(255, 255, 255, 0.5);
    --sol-border-brand: #7b74c4;
    --sol-border-normal-variant: rgba(255, 255, 255, 0.08);
    --sol-border-solid-variant: #3d3d3d;
    --sol-border-solid: #333333;
    --sol-error: #ee7a80;
    --sol-error-container: rgba(231, 96, 103, 0.24);
    --sol-static-white: #ffffff;
    --sol-static-black: #000000;
  }
}
</style>
<path d="M102 96C102 89.3726 107.373 84 114 84C120.627 84 126 89.3726 126 96C126 102.627 120.627 108 114 108C107.373 108 102 102.627 102 96Z" fill="var(--sol-surface)"/>
<path d="M114 84.5C120.351 84.5 125.5 89.6487 125.5 96C125.5 102.351 120.351 107.5 114 107.5C107.649 107.5 102.5 102.351 102.5 96C102.5 89.6487 107.649 84.5 114 84.5Z" stroke="var(--sol-element-primary)" stroke-opacity="0.16"/>
<path d="M162 96C162 89.3726 167.373 84 174 84C180.627 84 186 89.3726 186 96C186 102.627 180.627 108 174 108C167.373 108 162 102.627 162 96Z" fill="var(--sol-fill-active)"/>
<circle cx="174" cy="96" r="6" fill="var(--sol-surface)"/>
</svg>
