<svg width="288" height="192" viewBox="0 0 288 192" fill="none" xmlns="http://www.w3.org/2000/svg">
<style>
:root {
  --sol-primary: #282363;
  --sol-element-brand-variant: #3a3480;
  --sol-fill-active: #4d469a;
  --sol-selected-container-variant: #f5f4fd;
  --sol-surface: #ffffff;
  --sol-surface-base-variant: #f5f5f5;
  --sol-secondary-container: #e8e6f8;
  --sol-element-primary: #161616;
  --sol-element-secondary: #484848;
  --sol-element-tertiary: #636363;
  --sol-element-quaternary: #858585;
  --sol-border-brand: #7b74c4;
  --sol-border-normal-variant: rgba(0, 0, 0, 0.08);
  --sol-border-solid-variant: #e0e0e0;
  --sol-border-solid: #d0d0d0;
  --sol-error: #e76067;
  --sol-error-container: #fdeaeb;
  --sol-static-white: #ffffff;
  --sol-static-black: #000000;
  --color-brand-400: #6058b4;
  --color-teal-500: #05a09a;
  --color-green-500: #35a142;
  --color-yellow-500: #d4ae00;
  --color-orange-500: #e06418;
  --color-blue-500: #3e9bca;
  --color-indigo-500: #3d5ed6;
  --color-pink-500: #d03e94;
}
@media (prefers-color-scheme: dark) {
  :root {
    --sol-primary: #9791d4;
    --sol-element-brand-variant: #ffffff;
    --sol-fill-active: #7b74c4;
    --sol-selected-container-variant: rgba(0, 0, 0, 0.08);
    --sol-surface: #161616;
    --sol-surface-base-variant: #1c1c1c;
    --sol-secondary-container: rgba(255, 255, 255, 0.16);
    --sol-element-primary: #ffffff;
    --sol-element-secondary: rgba(255, 255, 255, 0.8);
    --sol-element-tertiary: rgba(255, 255, 255, 0.6);
    --sol-element-quaternary: rgba(255, 255, 255, 0.5);
    --sol-border-brand: #7b74c4;
    --sol-border-normal-variant: rgba(255, 255, 255, 0.08);
    --sol-border-solid-variant: #3d3d3d;
    --sol-border-solid: #333333;
    --sol-error: #ee7a80;
    --sol-error-container: rgba(231, 96, 103, 0.24);
    --sol-static-white: #ffffff;
    --sol-static-black: #000000;
  }
}
</style>
<g clip-path="url(#clip0_1248_157586)">
<path d="M-54.2939 -4.70605H292.294C294.73 -4.70582 296.706 -2.73046 296.706 -0.293945V270.294C296.706 272.73 294.73 274.706 292.294 274.706H-54.2939C-56.7305 274.706 -58.7058 272.73 -58.7061 270.294V-0.293945C-58.7058 -2.73047 -56.7305 -4.70583 -54.2939 -4.70605Z" fill="var(--sol-surface)"/>
<path d="M-54.2939 -4.70605H292.294C294.73 -4.70582 296.706 -2.73046 296.706 -0.293945V270.294C296.706 272.73 294.73 274.706 292.294 274.706H-54.2939C-56.7305 274.706 -58.7058 272.73 -58.7061 270.294V-0.293945C-58.7058 -2.73047 -56.7305 -4.70583 -54.2939 -4.70605Z" stroke="var(--sol-border-solid-variant)" stroke-width="0.588308"/>
<rect x="-117.153" y="9.70703" width="471.305" height="265.327" fill="var(--sol-surface)"/>
<rect x="-44.8809" y="31.7656" width="88.2463" height="225.585" fill="var(--sol-element-primary)" fill-opacity="0.04"/>
<rect x="55.1318" y="31.7656" width="105.307" height="12.9428" fill="var(--sol-element-primary)" fill-opacity="0.04"/>
<g filter="url(#filter0_d_1248_157586)">
<g clip-path="url(#clip1_1248_157586)">
<path d="M55.1318 58.8278C55.1318 57.5282 56.1854 56.4746 57.4851 56.4746H280.527C281.827 56.4746 282.881 57.5282 282.881 58.8278V76.5343C282.881 77.834 281.827 78.8875 280.527 78.8875H57.4851C56.1854 78.8875 55.1318 77.834 55.1318 76.5343V58.8278Z" fill="var(--sol-error-container)"/>
<circle cx="66.8982" cy="67.0642" r="4.53488" fill="var(--sol-error)"/>
<path d="M66.5303 68.2414H67.2657V68.995H66.5303V68.2414ZM66.5303 64.6133H67.2657V67.4323H66.5303V64.6133Z" fill="var(--sol-surface)"/>
<path d="M77.7949 65.7764V64.8184H82.8662V65.7764H80.9062V71.1816H79.7637V65.7764H77.7949ZM83.71 71.1816V66.4092H84.835V71.1816H83.71ZM84.2812 65.7324C83.9297 65.7324 83.6309 65.46 83.6309 65.1172C83.6309 64.7832 83.9297 64.5107 84.2812 64.5107C84.6416 64.5107 84.9316 64.7832 84.9316 65.1172C84.9316 65.46 84.6416 65.7324 84.2812 65.7324ZM88.2891 66.4092V67.2705H87.3486V69.749C87.3486 70.2061 87.5771 70.3027 87.8584 70.3027C87.9902 70.3027 88.21 70.2939 88.3506 70.2852V71.1992C88.2188 71.2256 87.999 71.2432 87.7178 71.2432C86.874 71.2432 86.2236 70.8301 86.2324 69.9336V67.2705H85.5469V66.4092H86.2324V65.2666H87.3486V66.4092H88.2891ZM90.3809 64.8184V71.1816H89.2559V64.8184H90.3809ZM93.5713 71.2783C92.1299 71.2783 91.251 70.3203 91.251 68.8262C91.251 67.3496 92.1475 66.3477 93.5098 66.3477C94.6787 66.3477 95.6895 67.0771 95.6895 68.7559V69.1074H92.3584C92.3716 69.9204 92.8506 70.3994 93.5801 70.3994C94.0723 70.3994 94.4062 70.1885 94.5469 69.9072H95.6455C95.4434 70.7334 94.6787 71.2783 93.5713 71.2783ZM92.3672 68.3428H94.6172C94.6084 67.6924 94.1777 67.2178 93.5273 67.2178C92.8506 67.2178 92.4023 67.7319 92.3672 68.3428Z" fill="var(--sol-element-primary)"/>
<mask id="mask0_1248_157586" style="mask-type:alpha" maskUnits="userSpaceOnUse" x="267" y="62" width="17" height="17">
<path d="M275.303 65.2919L272.915 67.68L275.303 70.0685L274.679 70.6924L272.29 68.3043L269.902 70.6924L269.278 70.0685L271.666 67.68L269.278 65.2919L269.902 64.668L272.29 67.0557L274.679 64.668L275.303 65.2919Z" fill="var(--sol-element-primary)"/>
</mask>
<g mask="url(#mask0_1248_157586)">
<rect x="267.584" y="62.9746" width="9.41294" height="9.41294" fill="var(--sol-element-quaternary)"/>
</g>
</g>
</g>
<g filter="url(#filter1_d_1248_157586)">
<rect x="55.1318" y="90.6543" width="107.991" height="77.4652" fill="var(--sol-element-primary)" fill-opacity="0.04" shape-rendering="crispEdges"/>
</g>
<g filter="url(#filter2_d_1248_157586)">
<rect x="174.89" y="90.6543" width="107.991" height="77.4652" fill="var(--sol-element-primary)" fill-opacity="0.04" shape-rendering="crispEdges"/>
</g>
<g filter="url(#filter3_d_1248_157586)">
<rect x="55.1318" y="179.885" width="107.991" height="77.4652" fill="var(--sol-element-primary)" fill-opacity="0.04" shape-rendering="crispEdges"/>
</g>
<g filter="url(#filter4_d_1248_157586)">
<rect x="174.89" y="179.885" width="107.991" height="77.4652" fill="var(--sol-element-primary)" fill-opacity="0.04" shape-rendering="crispEdges"/>
</g>
<rect x="-28.4082" y="-0.882812" width="66.4789" height="8.82463" fill="var(--sol-surface)"/>
<rect x="-9.58203" y="12.0605" width="53.5361" height="5.29478" fill="var(--sol-surface-base-variant)"/>
<rect y="140" width="302" height="52" fill="url(#paint0_linear_1248_157586)"/>
</g>
<defs>
<filter id="filter0_d_1248_157586" x="53.9552" y="56.4746" width="230.102" height="24.7653" filterUnits="userSpaceOnUse" color-interpolation-filters="sRGB">
<feFlood flood-opacity="0" result="BackgroundImageFix"/>
<feColorMatrix in="SourceAlpha" type="matrix" values="0 0 0 0 0 0 0 0 0 0 0 0 0 0 0 0 0 0 127 0" result="hardAlpha"/>
<feOffset dy="1.17662"/>
<feGaussianBlur stdDeviation="0.588308"/>
<feComposite in2="hardAlpha" operator="out"/>
<feColorMatrix type="matrix" values="0 0 0 0 0 0 0 0 0 0 0 0 0 0 0 0 0 0 0.04 0"/>
<feBlend mode="normal" in2="BackgroundImageFix" result="effect1_dropShadow_1248_157586"/>
<feBlend mode="normal" in="SourceGraphic" in2="effect1_dropShadow_1248_157586" result="shape"/>
</filter>
<filter id="filter1_d_1248_157586" x="53.9552" y="90.6543" width="110.344" height="79.8181" filterUnits="userSpaceOnUse" color-interpolation-filters="sRGB">
<feFlood flood-opacity="0" result="BackgroundImageFix"/>
<feColorMatrix in="SourceAlpha" type="matrix" values="0 0 0 0 0 0 0 0 0 0 0 0 0 0 0 0 0 0 127 0" result="hardAlpha"/>
<feOffset dy="1.17662"/>
<feGaussianBlur stdDeviation="0.588308"/>
<feComposite in2="hardAlpha" operator="out"/>
<feColorMatrix type="matrix" values="0 0 0 0 0 0 0 0 0 0 0 0 0 0 0 0 0 0 0.04 0"/>
<feBlend mode="normal" in2="BackgroundImageFix" result="effect1_dropShadow_1248_157586"/>
<feBlend mode="normal" in="SourceGraphic" in2="effect1_dropShadow_1248_157586" result="shape"/>
</filter>
<filter id="filter2_d_1248_157586" x="173.713" y="90.6543" width="110.344" height="79.8181" filterUnits="userSpaceOnUse" color-interpolation-filters="sRGB">
<feFlood flood-opacity="0" result="BackgroundImageFix"/>
<feColorMatrix in="SourceAlpha" type="matrix" values="0 0 0 0 0 0 0 0 0 0 0 0 0 0 0 0 0 0 127 0" result="hardAlpha"/>
<feOffset dy="1.17662"/>
<feGaussianBlur stdDeviation="0.588308"/>
<feComposite in2="hardAlpha" operator="out"/>
<feColorMatrix type="matrix" values="0 0 0 0 0 0 0 0 0 0 0 0 0 0 0 0 0 0 0.04 0"/>
<feBlend mode="normal" in2="BackgroundImageFix" result="effect1_dropShadow_1248_157586"/>
<feBlend mode="normal" in="SourceGraphic" in2="effect1_dropShadow_1248_157586" result="shape"/>
</filter>
<filter id="filter3_d_1248_157586" x="53.9552" y="179.885" width="110.344" height="79.8181" filterUnits="userSpaceOnUse" color-interpolation-filters="sRGB">
<feFlood flood-opacity="0" result="BackgroundImageFix"/>
<feColorMatrix in="SourceAlpha" type="matrix" values="0 0 0 0 0 0 0 0 0 0 0 0 0 0 0 0 0 0 127 0" result="hardAlpha"/>
<feOffset dy="1.17662"/>
<feGaussianBlur stdDeviation="0.588308"/>
<feComposite in2="hardAlpha" operator="out"/>
<feColorMatrix type="matrix" values="0 0 0 0 0 0 0 0 0 0 0 0 0 0 0 0 0 0 0.04 0"/>
<feBlend mode="normal" in2="BackgroundImageFix" result="effect1_dropShadow_1248_157586"/>
<feBlend mode="normal" in="SourceGraphic" in2="effect1_dropShadow_1248_157586" result="shape"/>
</filter>
<filter id="filter4_d_1248_157586" x="173.713" y="179.885" width="110.344" height="79.8181" filterUnits="userSpaceOnUse" color-interpolation-filters="sRGB">
<feFlood flood-opacity="0" result="BackgroundImageFix"/>
<feColorMatrix in="SourceAlpha" type="matrix" values="0 0 0 0 0 0 0 0 0 0 0 0 0 0 0 0 0 0 127 0" result="hardAlpha"/>
<feOffset dy="1.17662"/>
<feGaussianBlur stdDeviation="0.588308"/>
<feComposite in2="hardAlpha" operator="out"/>
<feColorMatrix type="matrix" values="0 0 0 0 0 0 0 0 0 0 0 0 0 0 0 0 0 0 0.04 0"/>
<feBlend mode="normal" in2="BackgroundImageFix" result="effect1_dropShadow_1248_157586"/>
<feBlend mode="normal" in="SourceGraphic" in2="effect1_dropShadow_1248_157586" result="shape"/>
</filter>
<linearGradient id="paint0_linear_1248_157586" x1="259.531" y1="192" x2="259.531" y2="140" gradientUnits="userSpaceOnUse">
<stop stop-opacity="0.04"/>
<stop offset="1" stop-color="var(--sol-surface)" stop-opacity="0"/>
</linearGradient>
<clipPath id="clip0_1248_157586">
<rect width="288" height="192" fill="var(--sol-surface)"/>
</clipPath>
<clipPath id="clip1_1248_157586">
<path d="M55.1318 58.8278C55.1318 57.5282 56.1854 56.4746 57.4851 56.4746H280.527C281.827 56.4746 282.881 57.5282 282.881 58.8278V76.5343C282.881 77.834 281.827 78.8875 280.527 78.8875H57.4851C56.1854 78.8875 55.1318 77.834 55.1318 76.5343V58.8278Z" fill="var(--sol-surface)"/>
</clipPath>
</defs>
</svg>
