<svg width="288" height="192" viewBox="0 0 288 192" fill="none" xmlns="http://www.w3.org/2000/svg">
<style>
:root {
  --sol-primary: #282363;
  --sol-element-brand-variant: #3a3480;
  --sol-fill-active: #4d469a;
  --sol-selected-container-variant: #f5f4fd;
  --sol-surface: #ffffff;
  --sol-surface-base-variant: #f5f5f5;
  --sol-secondary-container: #e8e6f8;
  --sol-element-primary: #161616;
  --sol-element-secondary: #484848;
  --sol-element-tertiary: #636363;
  --sol-element-quaternary: #858585;
  --sol-border-brand: #7b74c4;
  --sol-border-normal-variant: rgba(0, 0, 0, 0.08);
  --sol-border-solid-variant: #e0e0e0;
  --sol-border-solid: #d0d0d0;
  --sol-error: #e76067;
  --sol-error-container: #fdeaeb;
  --sol-static-white: #ffffff;
  --sol-static-black: #000000;
  --color-brand-400: #6058b4;
  --color-teal-500: #05a09a;
  --color-green-500: #35a142;
  --color-yellow-500: #d4ae00;
  --color-orange-500: #e06418;
  --color-blue-500: #3e9bca;
  --color-indigo-500: #3d5ed6;
  --color-pink-500: #d03e94;
}
@media (prefers-color-scheme: dark) {
  :root {
    --sol-primary: #9791d4;
    --sol-element-brand-variant: #ffffff;
    --sol-fill-active: #7b74c4;
    --sol-selected-container-variant: rgba(0, 0, 0, 0.08);
    --sol-surface: #161616;
    --sol-surface-base-variant: #1c1c1c;
    --sol-secondary-container: rgba(255, 255, 255, 0.16);
    --sol-element-primary: #ffffff;
    --sol-element-secondary: rgba(255, 255, 255, 0.8);
    --sol-element-tertiary: rgba(255, 255, 255, 0.6);
    --sol-element-quaternary: rgba(255, 255, 255, 0.5);
    --sol-border-brand: #7b74c4;
    --sol-border-normal-variant: rgba(255, 255, 255, 0.08);
    --sol-border-solid-variant: #3d3d3d;
    --sol-border-solid: #333333;
    --sol-error: #ee7a80;
    --sol-error-container: rgba(231, 96, 103, 0.24);
    --sol-static-white: #ffffff;
    --sol-static-black: #000000;
  }
}
</style>
<g clip-path="url(#clip0_1254_161912)">
<path d="M29 63C29 60.7909 30.7909 59 33 59H255C257.209 59 259 60.7909 259 63V87C259 89.2091 257.209 91 255 91H33C30.7909 91 29 89.2091 29 87V63Z" fill="var(--sol-surface)"/>
<path d="M33 59.5H255C256.933 59.5 258.5 61.067 258.5 63V87C258.5 88.933 256.933 90.5 255 90.5H33C31.067 90.5 29.5 88.933 29.5 87V63C29.5 61.067 31.067 59.5 33 59.5Z" stroke="var(--sol-border-solid)"/>
<g clip-path="url(#clip1_1254_161912)">
<path d="M29 63C29 60.7909 30.7909 59 33 59H105.667V91H33C30.7909 91 29 89.2091 29 87V63Z" fill="var(--sol-secondary-container)"/>
<path d="M33 59.5H105.167V90.5H33C31.067 90.5 29.5 88.933 29.5 87V63C29.5 61.1273 30.9708 59.5984 32.8203 59.5049L33 59.5Z" stroke="var(--sol-fill-active)"/>
<path d="M49.7565 79.5V69.0393H51.6348V77.9107H56.2583V79.5H49.7565ZM57.313 77.2894C57.313 75.5267 58.7723 75.0065 60.2316 74.9199C60.7734 74.8837 61.9004 74.8187 62.2399 74.8043V74.183C62.2399 73.4028 61.7342 72.9549 60.824 72.9549C60.0004 72.9549 59.4947 73.3305 59.3503 73.894H57.5731C57.7031 72.5648 58.9024 71.5534 60.8673 71.5534C62.3555 71.5534 64.0749 72.1602 64.0749 74.2552V79.5H62.3122V78.4164H62.2544C61.9076 79.081 61.1708 79.6589 59.9426 79.6589C58.44 79.6589 57.313 78.8354 57.313 77.2894ZM59.0902 77.2749C59.0902 77.954 59.6392 78.3008 60.4194 78.3008C61.532 78.3008 62.2544 77.5639 62.2544 76.6826V76.0324L60.5206 76.148C59.6392 76.2202 59.0902 76.5814 59.0902 77.2749ZM65.8954 79.5V69.0393H67.7448V72.9404H67.817C68.106 72.3769 68.6695 71.5534 70.0565 71.5534C71.877 71.5534 73.3074 72.9693 73.3074 75.5845C73.3074 78.1707 71.9059 79.6445 70.071 79.6445C68.7128 79.6445 68.106 78.8354 67.817 78.2574H67.7014V79.5H65.8954ZM67.7014 75.57C67.7014 77.1016 68.3661 78.1274 69.5508 78.1274C70.779 78.1274 71.4291 77.0582 71.4291 75.57C71.4291 74.1107 70.7934 73.056 69.5508 73.056C68.3661 73.056 67.7014 74.0529 67.7014 75.57ZM78.2343 79.6589C75.8648 79.6589 74.42 78.0841 74.42 75.6278C74.42 73.2005 75.8937 71.5534 78.1332 71.5534C80.0548 71.5534 81.7164 72.7526 81.7164 75.5122V76.0902H76.2405C76.2621 77.4267 77.0496 78.2141 78.2488 78.2141C79.0579 78.2141 79.6069 77.8673 79.8381 77.405H81.6442C81.3119 78.7631 80.0548 79.6589 78.2343 79.6589ZM76.2549 74.8332H79.9537C79.9393 73.764 79.2313 72.9838 78.1621 72.9838C77.0496 72.9838 76.3127 73.829 76.2549 74.8332ZM84.9962 69.0393V79.5H83.1468V69.0393H84.9962Z" fill="var(--sol-primary)"/>
</g>
<g clip-path="url(#clip2_1254_161912)">
<mask id="path-9-outside-1_1254_161912" maskUnits="userSpaceOnUse" x="105.667" y="59" width="78" height="32" fill="var(--sol-static-black)">
<rect fill="var(--sol-static-white)" x="105.667" y="59" width="78" height="32"/>
<path d="M105.667 59H182.334V91H105.667V59Z"/>
</mask>
<path d="M182.334 59H181.334V91H182.334H183.334V59H182.334Z" fill="var(--sol-border-solid)" mask="url(#path-9-outside-1_1254_161912)"/>
<path d="M127.182 79.5V69.0393H128.482V78.3441H133.337V79.5H127.182ZM134.536 77.2749C134.536 75.4689 136.126 75.0643 137.484 74.9632C137.982 74.9271 139.254 74.8621 139.608 74.8476V74.2119C139.608 73.2149 139.015 72.637 137.831 72.637C136.834 72.637 136.241 73.0994 136.068 73.6917H134.767C134.926 72.4347 136.155 71.5534 137.888 71.5534C138.914 71.5534 140.836 71.8568 140.836 74.3275V79.5H139.608V78.4308H139.55C139.29 78.9654 138.567 79.6878 137.209 79.6878C135.721 79.6878 134.536 78.8065 134.536 77.2749ZM135.779 77.3327C135.779 78.1563 136.472 78.5753 137.426 78.5753C138.827 78.5753 139.608 77.6362 139.608 76.6537V75.859L137.628 76.0035C136.501 76.0757 135.779 76.4803 135.779 77.3327ZM142.989 79.5V69.0393H144.231V72.8971H144.332C144.607 72.4781 145.069 71.5534 146.601 71.5534C148.566 71.5534 149.953 73.1138 149.953 75.5989C149.953 78.0841 148.566 79.6589 146.615 79.6589C145.113 79.6589 144.607 78.7342 144.332 78.3008H144.188V79.5H142.989ZM144.202 75.57C144.202 77.3327 144.997 78.5464 146.427 78.5464C147.916 78.5464 148.696 77.246 148.696 75.57C148.696 73.9374 147.944 72.6659 146.427 72.6659C144.982 72.6659 144.202 73.8362 144.202 75.57ZM154.865 79.6589C152.597 79.6589 151.195 78.0552 151.195 75.6423C151.195 73.2294 152.611 71.5534 154.75 71.5534C156.397 71.5534 158.131 72.5648 158.131 75.4689V75.989H152.438C152.496 77.6506 153.464 78.5609 154.865 78.5609C155.804 78.5609 156.397 78.1563 156.686 77.6651H158.015C157.639 78.8498 156.483 79.6589 154.865 79.6589ZM152.452 74.9343H156.874C156.874 73.6195 156.036 72.6514 154.75 72.6514C153.391 72.6514 152.525 73.7206 152.452 74.9343ZM160.991 69.0393V79.5H159.749V69.0393H160.991Z" fill="var(--sol-element-quaternary)"/>
</g>
<g clip-path="url(#clip3_1254_161912)">
<mask id="path-13-outside-2_1254_161912" maskUnits="userSpaceOnUse" x="182.333" y="59" width="78" height="32" fill="var(--sol-static-black)">
<rect fill="var(--sol-static-white)" x="182.333" y="59" width="78" height="32"/>
<path d="M182.333 59H259V91H182.333V59Z"/>
</mask>
<path d="M259 59H258V91H259H260V59H259Z" fill="var(--sol-border-solid)" mask="url(#path-13-outside-2_1254_161912)"/>
<path d="M203.848 79.5V69.0393H205.148V78.3441H210.003V79.5H203.848ZM211.202 77.2749C211.202 75.4689 212.792 75.0643 214.15 74.9632C214.648 74.9271 215.92 74.8621 216.274 74.8476V74.2119C216.274 73.2149 215.681 72.637 214.497 72.637C213.5 72.637 212.907 73.0994 212.734 73.6917H211.433C211.592 72.4347 212.821 71.5534 214.554 71.5534C215.58 71.5534 217.502 71.8568 217.502 74.3275V79.5H216.274V78.4308H216.216C215.956 78.9654 215.233 79.6878 213.875 79.6878C212.387 79.6878 211.202 78.8065 211.202 77.2749ZM212.445 77.3327C212.445 78.1563 213.138 78.5753 214.092 78.5753C215.493 78.5753 216.274 77.6362 216.274 76.6537V75.859L214.294 76.0035C213.167 76.0757 212.445 76.4803 212.445 77.3327ZM219.655 79.5V69.0393H220.897V72.8971H220.998C221.273 72.4781 221.735 71.5534 223.267 71.5534C225.232 71.5534 226.619 73.1138 226.619 75.5989C226.619 78.0841 225.232 79.6589 223.281 79.6589C221.779 79.6589 221.273 78.7342 220.998 78.3008H220.854V79.5H219.655ZM220.868 75.57C220.868 77.3327 221.663 78.5464 223.093 78.5464C224.582 78.5464 225.362 77.246 225.362 75.57C225.362 73.9374 224.61 72.6659 223.093 72.6659C221.649 72.6659 220.868 73.8362 220.868 75.57ZM231.531 79.6589C229.263 79.6589 227.861 78.0552 227.861 75.6423C227.861 73.2294 229.277 71.5534 231.416 71.5534C233.063 71.5534 234.797 72.5648 234.797 75.4689V75.989H229.104C229.162 77.6506 230.13 78.5609 231.531 78.5609C232.47 78.5609 233.063 78.1563 233.352 77.6651H234.681C234.305 78.8498 233.149 79.6589 231.531 79.6589ZM229.118 74.9343H233.54C233.54 73.6195 232.702 72.6514 231.416 72.6514C230.057 72.6514 229.191 73.7206 229.118 74.9343ZM237.657 69.0393V79.5H236.415V69.0393H237.657Z" fill="var(--sol-element-quaternary)"/>
</g>
</g>
<g clip-path="url(#clip4_1254_161912)">
<path d="M57.5 105C57.5 102.791 59.2909 101 61.5 101H226.5C228.709 101 230.5 102.791 230.5 105V129C230.5 131.209 228.709 133 226.5 133H61.5C59.2909 133 57.5 131.209 57.5 129V105Z" fill="var(--sol-element-primary)" fill-opacity="0.04"/>
<g filter="url(#filter0_d_1254_161912)">
<g clip-path="url(#clip5_1254_161912)">
<path d="M60.5 106C60.5 104.895 61.3954 104 62.5 104H114.167C115.271 104 116.167 104.895 116.167 106V128C116.167 129.105 115.271 130 114.167 130H62.5C61.3954 130 60.5 129.105 60.5 128V106Z" fill="var(--sol-surface)"/>
<path d="M71.515 121.5V111.039H72.8154V120.344H77.6701V121.5H71.515ZM78.8693 119.275C78.8693 117.469 80.4586 117.064 81.8168 116.963C82.3152 116.927 83.5867 116.862 83.9407 116.848V116.212C83.9407 115.215 83.3483 114.637 82.1635 114.637C81.1666 114.637 80.5742 115.099 80.4008 115.692H79.1005C79.2594 114.435 80.4875 113.553 82.2213 113.553C83.2472 113.553 85.1688 113.857 85.1688 116.327V121.5H83.9407V120.431H83.8829C83.6228 120.965 82.9004 121.688 81.5423 121.688C80.0541 121.688 78.8693 120.806 78.8693 119.275ZM80.1119 119.333C80.1119 120.156 80.8054 120.575 81.759 120.575C83.1605 120.575 83.9407 119.636 83.9407 118.654V117.859L81.9613 118.003C80.8343 118.076 80.1119 118.48 80.1119 119.333ZM87.3216 121.5V111.039H88.5642V114.897H88.6653C88.9398 114.478 89.4022 113.553 90.9337 113.553C92.8987 113.553 94.2858 115.114 94.2858 117.599C94.2858 120.084 92.8987 121.659 90.9482 121.659C89.4455 121.659 88.9398 120.734 88.6653 120.301H88.5208V121.5H87.3216ZM88.5353 117.57C88.5353 119.333 89.3299 120.546 90.7603 120.546C92.2485 120.546 93.0287 119.246 93.0287 117.57C93.0287 115.937 92.2774 114.666 90.7603 114.666C89.3155 114.666 88.5353 115.836 88.5353 117.57ZM99.1982 121.659C96.9298 121.659 95.5283 120.055 95.5283 117.642C95.5283 115.229 96.9443 113.553 99.0826 113.553C100.73 113.553 102.464 114.565 102.464 117.469V117.989H96.7709C96.8287 119.651 97.7967 120.561 99.1982 120.561C100.137 120.561 100.73 120.156 101.019 119.665H102.348C101.972 120.85 100.816 121.659 99.1982 121.659ZM96.7853 116.934H101.207C101.207 115.619 100.369 114.651 99.0826 114.651C97.7245 114.651 96.8576 115.721 96.7853 116.934ZM105.324 111.039V121.5H104.082V111.039H105.324Z" fill="var(--sol-element-quaternary)"/>
</g>
</g>
<g clip-path="url(#clip6_1254_161912)">
<path d="M127.182 121.5V111.039H128.482V120.344H133.337V121.5H127.182ZM134.536 119.275C134.536 117.469 136.126 117.064 137.484 116.963C137.982 116.927 139.254 116.862 139.608 116.848V116.212C139.608 115.215 139.015 114.637 137.831 114.637C136.834 114.637 136.241 115.099 136.068 115.692H134.767C134.926 114.435 136.155 113.553 137.888 113.553C138.914 113.553 140.836 113.857 140.836 116.327V121.5H139.608V120.431H139.55C139.29 120.965 138.567 121.688 137.209 121.688C135.721 121.688 134.536 120.806 134.536 119.275ZM135.779 119.333C135.779 120.156 136.472 120.575 137.426 120.575C138.827 120.575 139.608 119.636 139.608 118.654V117.859L137.628 118.003C136.501 118.076 135.779 118.48 135.779 119.333ZM142.989 121.5V111.039H144.231V114.897H144.332C144.607 114.478 145.069 113.553 146.601 113.553C148.566 113.553 149.953 115.114 149.953 117.599C149.953 120.084 148.566 121.659 146.615 121.659C145.113 121.659 144.607 120.734 144.332 120.301H144.188V121.5H142.989ZM144.202 117.57C144.202 119.333 144.997 120.546 146.427 120.546C147.916 120.546 148.696 119.246 148.696 117.57C148.696 115.937 147.944 114.666 146.427 114.666C144.982 114.666 144.202 115.836 144.202 117.57ZM154.865 121.659C152.597 121.659 151.195 120.055 151.195 117.642C151.195 115.229 152.611 113.553 154.75 113.553C156.397 113.553 158.131 114.565 158.131 117.469V117.989H152.438C152.496 119.651 153.464 120.561 154.865 120.561C155.804 120.561 156.397 120.156 156.686 119.665H158.015C157.639 120.85 156.483 121.659 154.865 121.659ZM152.452 116.934H156.874C156.874 115.619 156.036 114.651 154.75 114.651C153.391 114.651 152.525 115.721 152.452 116.934ZM160.991 111.039V121.5H159.749V111.039H160.991Z" fill="var(--sol-element-quaternary)"/>
</g>
<g clip-path="url(#clip7_1254_161912)">
<path d="M182.848 121.5V111.039H184.148V120.344H189.003V121.5H182.848ZM190.202 119.275C190.202 117.469 191.792 117.064 193.15 116.963C193.648 116.927 194.92 116.862 195.274 116.848V116.212C195.274 115.215 194.681 114.637 193.497 114.637C192.5 114.637 191.907 115.099 191.734 115.692H190.433C190.592 114.435 191.821 113.553 193.554 113.553C194.58 113.553 196.502 113.857 196.502 116.327V121.5H195.274V120.431H195.216C194.956 120.965 194.233 121.688 192.875 121.688C191.387 121.688 190.202 120.806 190.202 119.275ZM191.445 119.333C191.445 120.156 192.138 120.575 193.092 120.575C194.493 120.575 195.274 119.636 195.274 118.654V117.859L193.294 118.003C192.167 118.076 191.445 118.48 191.445 119.333ZM198.655 121.5V111.039H199.897V114.897H199.998C200.273 114.478 200.735 113.553 202.267 113.553C204.232 113.553 205.619 115.114 205.619 117.599C205.619 120.084 204.232 121.659 202.281 121.659C200.779 121.659 200.273 120.734 199.998 120.301H199.854V121.5H198.655ZM199.868 117.57C199.868 119.333 200.663 120.546 202.093 120.546C203.582 120.546 204.362 119.246 204.362 117.57C204.362 115.937 203.61 114.666 202.093 114.666C200.649 114.666 199.868 115.836 199.868 117.57ZM210.531 121.659C208.263 121.659 206.861 120.055 206.861 117.642C206.861 115.229 208.277 113.553 210.416 113.553C212.063 113.553 213.797 114.565 213.797 117.469V117.989H208.104C208.162 119.651 209.13 120.561 210.531 120.561C211.47 120.561 212.063 120.156 212.352 119.665H213.681C213.305 120.85 212.149 121.659 210.531 121.659ZM208.118 116.934H212.54C212.54 115.619 211.702 114.651 210.416 114.651C209.057 114.651 208.191 115.721 208.118 116.934ZM216.657 111.039V121.5H215.415V111.039H216.657Z" fill="var(--sol-element-quaternary)"/>
</g>
</g>
<defs>
<filter id="filter0_d_1254_161912" x="58.5" y="104" width="59.667" height="30" filterUnits="userSpaceOnUse" color-interpolation-filters="sRGB">
<feFlood flood-opacity="0" result="BackgroundImageFix"/>
<feColorMatrix in="SourceAlpha" type="matrix" values="0 0 0 0 0 0 0 0 0 0 0 0 0 0 0 0 0 0 127 0" result="hardAlpha"/>
<feOffset dy="2"/>
<feGaussianBlur stdDeviation="1"/>
<feComposite in2="hardAlpha" operator="out"/>
<feColorMatrix type="matrix" values="0 0 0 0 0 0 0 0 0 0 0 0 0 0 0 0 0 0 0.04 0"/>
<feBlend mode="normal" in2="BackgroundImageFix" result="effect1_dropShadow_1254_161912"/>
<feBlend mode="normal" in="SourceGraphic" in2="effect1_dropShadow_1254_161912" result="shape"/>
</filter>
<clipPath id="clip0_1254_161912">
<path d="M29 63C29 60.7909 30.7909 59 33 59H255C257.209 59 259 60.7909 259 63V87C259 89.2091 257.209 91 255 91H33C30.7909 91 29 89.2091 29 87V63Z" fill="var(--sol-surface)"/>
</clipPath>
<clipPath id="clip1_1254_161912">
<path d="M29 63C29 60.7909 30.7909 59 33 59H105.667V91H33C30.7909 91 29 89.2091 29 87V63Z" fill="var(--sol-surface)"/>
</clipPath>
<clipPath id="clip2_1254_161912">
<path d="M105.667 63C105.667 60.7909 107.458 59 109.667 59H178.334C180.543 59 182.334 60.7909 182.334 63V87C182.334 89.2091 180.543 91 178.334 91H109.667C107.458 91 105.667 89.2091 105.667 87V63Z" fill="var(--sol-surface)"/>
</clipPath>
<clipPath id="clip3_1254_161912">
<path d="M182.333 63C182.333 60.7909 184.124 59 186.333 59H255C257.209 59 259 60.7909 259 63V87C259 89.2091 257.209 91 255 91H186.333C184.124 91 182.333 89.2091 182.333 87V63Z" fill="var(--sol-surface)"/>
</clipPath>
<clipPath id="clip4_1254_161912">
<path d="M57.5 105C57.5 102.791 59.2909 101 61.5 101H226.5C228.709 101 230.5 102.791 230.5 105V129C230.5 131.209 228.709 133 226.5 133H61.5C59.2909 133 57.5 131.209 57.5 129V105Z" fill="var(--sol-surface)"/>
</clipPath>
<clipPath id="clip5_1254_161912">
<path d="M60.5 106C60.5 104.895 61.3954 104 62.5 104H114.167C115.271 104 116.167 104.895 116.167 106V128C116.167 129.105 115.271 130 114.167 130H62.5C61.3954 130 60.5 129.105 60.5 128V106Z" fill="var(--sol-surface)"/>
</clipPath>
<clipPath id="clip6_1254_161912">
<rect width="55.6667" height="26" fill="var(--sol-surface)" transform="translate(116.167 104)"/>
</clipPath>
<clipPath id="clip7_1254_161912">
<rect width="55.6667" height="26" fill="var(--sol-surface)" transform="translate(171.833 104)"/>
</clipPath>
</defs>
</svg>
