<svg width="288" height="192" viewBox="0 0 288 192" fill="none" xmlns="http://www.w3.org/2000/svg">
<style>
:root {
  --sol-primary: #282363;
  --sol-element-brand-variant: #3a3480;
  --sol-fill-active: #4d469a;
  --sol-selected-container-variant: #f5f4fd;
  --sol-surface: #ffffff;
  --sol-surface-base-variant: #f5f5f5;
  --sol-secondary-container: #e8e6f8;
  --sol-element-primary: #161616;
  --sol-element-secondary: #484848;
  --sol-element-tertiary: #636363;
  --sol-element-quaternary: #858585;
  --sol-border-brand: #7b74c4;
  --sol-border-normal-variant: rgba(0, 0, 0, 0.08);
  --sol-border-solid-variant: #e0e0e0;
  --sol-border-solid: #d0d0d0;
  --sol-error: #e76067;
  --sol-error-container: #fdeaeb;
  --sol-static-white: #ffffff;
  --sol-static-black: #000000;
  --color-brand-400: #6058b4;
  --color-teal-500: #05a09a;
  --color-green-500: #35a142;
  --color-yellow-500: #d4ae00;
  --color-orange-500: #e06418;
  --color-blue-500: #3e9bca;
  --color-indigo-500: #3d5ed6;
  --color-pink-500: #d03e94;
}
@media (prefers-color-scheme: dark) {
  :root {
    --sol-primary: #9791d4;
    --sol-element-brand-variant: #ffffff;
    --sol-fill-active: #7b74c4;
    --sol-selected-container-variant: rgba(0, 0, 0, 0.08);
    --sol-surface: #161616;
    --sol-surface-base-variant: #1c1c1c;
    --sol-secondary-container: rgba(255, 255, 255, 0.16);
    --sol-element-primary: #ffffff;
    --sol-element-secondary: rgba(255, 255, 255, 0.8);
    --sol-element-tertiary: rgba(255, 255, 255, 0.6);
    --sol-element-quaternary: rgba(255, 255, 255, 0.5);
    --sol-border-brand: #7b74c4;
    --sol-border-normal-variant: rgba(255, 255, 255, 0.08);
    --sol-border-solid-variant: #3d3d3d;
    --sol-border-solid: #333333;
    --sol-error: #ee7a80;
    --sol-error-container: rgba(231, 96, 103, 0.24);
    --sol-static-white: #ffffff;
    --sol-static-black: #000000;
  }
}
</style>
<g clip-path="url(#clip0_1248_156871)">
<g clip-path="url(#clip1_1248_156871)">
<path d="M64 84C64 81.7909 65.7909 80 68 80H220C222.209 80 224 81.7909 224 84V108C224 110.209 222.209 112 220 112H68C65.7909 112 64 110.209 64 108V84Z" fill="var(--sol-surface)"/>
<path d="M77.7341 92.6146V100H76.8161V92.6146H77.7341ZM80.1313 96.6745V100H79.254V94.461H80.1007V95.328H80.1721C80.4373 94.767 80.9474 94.3896 81.794 94.3896C82.9161 94.3896 83.6608 95.073 83.6608 96.4807V100H82.7835V96.5419C82.7835 95.6851 82.3143 95.175 81.5288 95.175C80.723 95.175 80.1313 95.7157 80.1313 96.6745ZM85.0685 102.081V94.461H85.9152V95.3382H86.0172C86.2008 95.0424 86.5476 94.3896 87.6187 94.3896C89.006 94.3896 89.9751 95.4913 89.9751 97.2458C89.9751 99.0003 89.006 100.112 87.6289 100.112C86.568 100.112 86.2008 99.4594 86.0172 99.1533H85.9458V102.081H85.0685ZM85.9254 97.2254C85.9254 98.4699 86.4864 99.3267 87.5065 99.3267C88.5572 99.3267 89.0978 98.4087 89.0978 97.2254C89.0978 96.0727 88.5674 95.175 87.5065 95.175C86.466 95.175 85.9254 96.0013 85.9254 97.2254ZM94.6164 97.7252V94.461H95.4835V100H94.6164V99.0615H94.5552C94.29 99.6226 93.7494 100.071 92.9129 100.071C91.8622 100.071 91.1176 99.388 91.1176 97.9802V94.461H91.9948V97.919C91.9948 98.7147 92.4947 99.2247 93.1985 99.2247C93.8208 99.2247 94.6164 98.7555 94.6164 97.7252ZM99.3088 94.461V95.1954H98.1459V98.4087C98.1459 99.1227 98.4927 99.2349 98.8701 99.2349C99.0334 99.2349 99.2578 99.2247 99.3904 99.2145V100.031C99.2578 100.051 99.0334 100.071 98.7783 100.071C98.0439 100.071 97.2584 99.6124 97.2584 98.6331V95.1954H96.422V94.461H97.2584V93.1349H98.1459V94.461H99.3088Z" fill="var(--sol-element-primary)"/>
<mask id="mask0_1248_156871" style="mask-type:alpha" maskUnits="userSpaceOnUse" x="200" y="88" width="16" height="16">
<path d="M212.354 94.3535L208.354 98.3535C208.158 98.5488 207.842 98.5488 207.646 98.3535L203.646 94.3535L204.354 93.6465L208 97.293L211.646 93.6465L212.354 94.3535Z" fill="var(--sol-element-primary)"/>
</mask>
<g mask="url(#mask0_1248_156871)">
<rect x="200" y="88" width="16" height="16" fill="var(--sol-element-quaternary)"/>
</g>
</g>
<path d="M68 80.5H220C221.933 80.5 223.5 82.067 223.5 84V108C223.5 109.933 221.933 111.5 220 111.5H68C66.067 111.5 64.5 109.933 64.5 108V84C64.5 82.067 66.067 80.5 68 80.5Z" stroke="var(--sol-element-primary)" stroke-opacity="0.16"/>
<rect y="140" width="302" height="52" fill="url(#paint0_linear_1248_156871)"/>
</g>
<defs>
<linearGradient id="paint0_linear_1248_156871" x1="259.531" y1="192" x2="259.531" y2="140" gradientUnits="userSpaceOnUse">
<stop stop-opacity="0.04"/>
<stop offset="1" stop-color="var(--sol-surface)" stop-opacity="0"/>
</linearGradient>
<clipPath id="clip0_1248_156871">
<rect width="288" height="192" fill="var(--sol-surface)"/>
</clipPath>
<clipPath id="clip1_1248_156871">
<path d="M64 84C64 81.7909 65.7909 80 68 80H220C222.209 80 224 81.7909 224 84V108C224 110.209 222.209 112 220 112H68C65.7909 112 64 110.209 64 108V84Z" fill="var(--sol-surface)"/>
</clipPath>
</defs>
</svg>
