<svg width="288" height="192" viewBox="0 0 288 192" fill="none" xmlns="http://www.w3.org/2000/svg">
<style>
:root {
  --sol-primary: #282363;
  --sol-element-brand-variant: #3a3480;
  --sol-fill-active: #4d469a;
  --sol-selected-container-variant: #f5f4fd;
  --sol-surface: #ffffff;
  --sol-surface-base-variant: #f5f5f5;
  --sol-secondary-container: #e8e6f8;
  --sol-element-primary: #161616;
  --sol-element-secondary: #484848;
  --sol-element-tertiary: #636363;
  --sol-element-quaternary: #858585;
  --sol-border-brand: #7b74c4;
  --sol-border-normal-variant: rgba(0, 0, 0, 0.08);
  --sol-border-solid-variant: #e0e0e0;
  --sol-border-solid: #d0d0d0;
  --sol-error: #e76067;
  --sol-error-container: #fdeaeb;
  --sol-static-white: #ffffff;
  --sol-static-black: #000000;
  --color-brand-400: #6058b4;
  --color-teal-500: #05a09a;
  --color-green-500: #35a142;
  --color-yellow-500: #d4ae00;
  --color-orange-500: #e06418;
  --color-blue-500: #3e9bca;
  --color-indigo-500: #3d5ed6;
  --color-pink-500: #d03e94;
}
@media (prefers-color-scheme: dark) {
  :root {
    --sol-primary: #9791d4;
    --sol-element-brand-variant: #ffffff;
    --sol-fill-active: #7b74c4;
    --sol-selected-container-variant: rgba(0, 0, 0, 0.08);
    --sol-surface: #161616;
    --sol-surface-base-variant: #1c1c1c;
    --sol-secondary-container: rgba(255, 255, 255, 0.16);
    --sol-element-primary: #ffffff;
    --sol-element-secondary: rgba(255, 255, 255, 0.8);
    --sol-element-tertiary: rgba(255, 255, 255, 0.6);
    --sol-element-quaternary: rgba(255, 255, 255, 0.5);
    --sol-border-brand: #7b74c4;
    --sol-border-normal-variant: rgba(255, 255, 255, 0.08);
    --sol-border-solid-variant: #3d3d3d;
    --sol-border-solid: #333333;
    --sol-error: #ee7a80;
    --sol-error-container: rgba(231, 96, 103, 0.24);
    --sol-static-white: #ffffff;
    --sol-static-black: #000000;
  }
}
</style>
<g clip-path="url(#clip0_1248_159566)">
<rect width="154" height="192" fill="var(--sol-element-primary)" fill-opacity="0.5"/>
<g filter="url(#filter0_dd_1248_159566)">
<g clip-path="url(#clip1_1248_159566)">
<rect x="76" width="212.093" height="477.209" fill="var(--sol-surface)"/>
<path d="M86.8763 13.8287V12.9821H91.3579V13.8287H89.6259V18.6055H88.6162V13.8287H86.8763ZM92.1036 18.6055V14.3879H93.0978V18.6055H92.1036ZM92.6084 13.7899C92.2978 13.7899 92.0337 13.5491 92.0337 13.2462C92.0337 12.951 92.2978 12.7103 92.6084 12.7103C92.9269 12.7103 93.1832 12.951 93.1832 13.2462C93.1832 13.5491 92.9269 13.7899 92.6084 13.7899ZM96.1502 14.3879V15.1491H95.3192V17.3394C95.3192 17.7433 95.5211 17.8288 95.7696 17.8288C95.8862 17.8288 96.0803 17.821 96.2046 17.8132V18.621C96.0881 18.6443 95.8939 18.6598 95.6454 18.6598C94.8997 18.6598 94.325 18.2948 94.3327 17.5025V15.1491H93.7269V14.3879H94.3327V13.3782H95.3192V14.3879H96.1502ZM97.9988 12.9821V18.6055H97.0046V12.9821H97.9988ZM100.818 18.6909C99.5444 18.6909 98.7677 17.8443 98.7677 16.5239C98.7677 15.219 99.56 14.3336 100.764 14.3336C101.797 14.3336 102.69 14.9782 102.69 16.4618V16.7724H99.7464C99.758 17.4909 100.181 17.9142 100.826 17.9142C101.261 17.9142 101.556 17.7278 101.68 17.4792H102.651C102.473 18.2093 101.797 18.6909 100.818 18.6909ZM99.7542 16.0967H101.743C101.735 15.5219 101.354 15.1025 100.779 15.1025C100.181 15.1025 99.7852 15.5569 99.7542 16.0967Z" fill="var(--sol-element-primary)"/>
<path d="M275.637 13.8632L273.394 16.1052L275.637 18.3476L275.246 18.7381L273.004 16.4957L270.762 18.7381L270.371 18.3476L272.613 16.1052L270.371 13.8632L270.762 13.4727L273.004 15.7147L275.246 13.4727L275.637 13.8632Z" fill="var(--sol-element-quaternary)"/>
<path d="M86.6045 39.6052C86.6045 38.7111 87.3293 37.9863 88.2234 37.9863H186.986C187.88 37.9863 188.604 38.7111 188.604 39.6052V48.2089C188.604 49.103 187.88 49.8278 186.986 49.8278H88.2234C87.3293 49.8278 86.6045 49.103 86.6045 48.2089V39.6052Z" fill="var(--sol-element-primary)" fill-opacity="0.08"/>
<path d="M86.6045 69.6052C86.6045 68.7111 87.3293 67.9863 88.2234 67.9863H148.986C149.88 67.9863 150.604 68.7111 150.604 69.6052V76.2089C150.604 77.103 149.88 77.8278 148.986 77.8278H88.2234C87.3293 77.8278 86.6045 77.103 86.6045 76.2089V69.6052Z" fill="var(--sol-element-primary)" fill-opacity="0.08"/>
<path d="M86.6045 89.6052C86.6045 88.7111 87.3293 87.9863 88.2234 87.9863H148.986C149.88 87.9863 150.604 88.7111 150.604 89.6052V96.2089C150.604 97.103 149.88 97.8278 148.986 97.8278H88.2234C87.3293 97.8278 86.6045 97.103 86.6045 96.2089V89.6052Z" fill="var(--sol-element-primary)" fill-opacity="0.08"/>
<path d="M86.6045 109.605C86.6045 108.711 87.3293 107.986 88.2234 107.986H148.986C149.88 107.986 150.604 108.711 150.604 109.605V116.209C150.604 117.103 149.88 117.828 148.986 117.828H88.2234C87.3293 117.828 86.6045 117.103 86.6045 116.209V109.605Z" fill="var(--sol-element-primary)" fill-opacity="0.08"/>
<path d="M86.6045 129.604C86.6045 128.71 87.3293 127.985 88.2234 127.985H148.986C149.88 127.985 150.604 128.71 150.604 129.604V136.208C150.604 137.102 149.88 137.827 148.986 137.827H88.2234C87.3293 137.827 86.6045 137.102 86.6045 136.208V129.604Z" fill="var(--sol-element-primary)" fill-opacity="0.08"/>
<path d="M166.604 69.6052C166.604 68.7111 167.329 67.9863 168.223 67.9863H275.869C276.763 67.9863 277.488 68.7111 277.488 69.6052V76.2089C277.488 77.103 276.763 77.8278 275.869 77.8278H168.223C167.329 77.8278 166.604 77.103 166.604 76.2089V69.6052Z" fill="var(--sol-element-primary)" fill-opacity="0.08"/>
<path d="M166.604 89.6052C166.604 88.7111 167.329 87.9863 168.223 87.9863H275.869C276.763 87.9863 277.488 88.7111 277.488 89.6052V96.2089C277.488 97.103 276.763 97.8278 275.869 97.8278H168.223C167.329 97.8278 166.604 97.103 166.604 96.2089V89.6052Z" fill="var(--sol-element-primary)" fill-opacity="0.08"/>
<path d="M166.604 109.605C166.604 108.711 167.329 107.986 168.223 107.986H275.869C276.763 107.986 277.488 108.711 277.488 109.605V116.209C277.488 117.103 276.763 117.828 275.869 117.828H168.223C167.329 117.828 166.604 117.103 166.604 116.209V109.605Z" fill="var(--sol-element-primary)" fill-opacity="0.08"/>
<path d="M166.604 129.604C166.604 128.71 167.329 127.985 168.223 127.985H275.869C276.763 127.985 277.488 128.71 277.488 129.604V136.208C277.488 137.102 276.763 137.827 275.869 137.827H168.223C167.329 137.827 166.604 137.102 166.604 136.208V129.604Z" fill="var(--sol-element-primary)" fill-opacity="0.08"/>
<path d="M86.6045 157.604C86.6045 156.71 87.3293 155.985 88.2234 155.985H148.986C149.88 155.985 150.604 156.71 150.604 157.604V164.208C150.604 165.102 149.88 165.827 148.986 165.827H88.2234C87.3293 165.827 86.6045 165.102 86.6045 164.208V157.604Z" fill="var(--sol-element-primary)" fill-opacity="0.08"/>
<path d="M86.6045 177.604C86.6045 176.71 87.3293 175.985 88.2234 175.985H148.986C149.88 175.985 150.604 176.71 150.604 177.604V184.208C150.604 185.102 149.88 185.827 148.986 185.827H88.2234C87.3293 185.827 86.6045 185.102 86.6045 184.208V177.604Z" fill="var(--sol-element-primary)" fill-opacity="0.08"/>
<path d="M166.604 157.604C166.604 156.71 167.329 155.985 168.223 155.985H275.869C276.763 155.985 277.488 156.71 277.488 157.604V164.208C277.488 165.102 276.763 165.827 275.869 165.827H168.223C167.329 165.827 166.604 165.102 166.604 164.208V157.604Z" fill="var(--sol-element-primary)" fill-opacity="0.08"/>
<path d="M166.604 177.604C166.604 176.71 167.329 175.985 168.223 175.985H275.869C276.763 175.985 277.488 176.71 277.488 177.604V184.208C277.488 185.102 276.763 185.827 275.869 185.827H168.223C167.329 185.827 166.604 185.102 166.604 184.208V177.604Z" fill="var(--sol-element-primary)" fill-opacity="0.08"/>
</g>
<rect x="76.2209" y="0.22093" width="211.651" height="476.767" stroke="var(--sol-border-solid)" stroke-width="0.44186"/>
</g>
<rect x="76" y="140" width="302" height="52" fill="url(#paint0_linear_1248_159566)"/>
</g>
<defs>
<filter id="filter0_dd_1248_159566" x="73.3488" y="-1.76744" width="217.395" height="482.511" filterUnits="userSpaceOnUse" color-interpolation-filters="sRGB">
<feFlood flood-opacity="0" result="BackgroundImageFix"/>
<feColorMatrix in="SourceAlpha" type="matrix" values="0 0 0 0 0 0 0 0 0 0 0 0 0 0 0 0 0 0 127 0" result="hardAlpha"/>
<feOffset dy="0.883721"/>
<feGaussianBlur stdDeviation="1.32558"/>
<feComposite in2="hardAlpha" operator="out"/>
<feColorMatrix type="matrix" values="0 0 0 0 0 0 0 0 0 0 0 0 0 0 0 0 0 0 0.08 0"/>
<feBlend mode="normal" in2="BackgroundImageFix" result="effect1_dropShadow_1248_159566"/>
<feColorMatrix in="SourceAlpha" type="matrix" values="0 0 0 0 0 0 0 0 0 0 0 0 0 0 0 0 0 0 127 0" result="hardAlpha"/>
<feOffset/>
<feGaussianBlur stdDeviation="0.22093"/>
<feComposite in2="hardAlpha" operator="out"/>
<feColorMatrix type="matrix" values="0 0 0 0 0 0 0 0 0 0 0 0 0 0 0 0 0 0 0.04 0"/>
<feBlend mode="normal" in2="effect1_dropShadow_1248_159566" result="effect2_dropShadow_1248_159566"/>
<feBlend mode="normal" in="SourceGraphic" in2="effect2_dropShadow_1248_159566" result="shape"/>
</filter>
<linearGradient id="paint0_linear_1248_159566" x1="335.531" y1="192" x2="335.531" y2="140" gradientUnits="userSpaceOnUse">
<stop stop-opacity="0.04"/>
<stop offset="1" stop-color="var(--sol-surface)" stop-opacity="0"/>
</linearGradient>
<clipPath id="clip0_1248_159566">
<rect width="288" height="192" fill="var(--sol-surface)"/>
</clipPath>
<clipPath id="clip1_1248_159566">
<rect x="76" width="212.093" height="477.209" fill="var(--sol-surface)"/>
</clipPath>
</defs>
</svg>
