<svg width="288" height="192" viewBox="0 0 288 192" fill="none" xmlns="http://www.w3.org/2000/svg">
<style>
:root {
  --sol-primary: #282363;
  --sol-element-brand-variant: #3a3480;
  --sol-fill-active: #4d469a;
  --sol-selected-container-variant: #f5f4fd;
  --sol-surface: #ffffff;
  --sol-surface-base-variant: #f5f5f5;
  --sol-secondary-container: #e8e6f8;
  --sol-element-primary: #161616;
  --sol-element-secondary: #484848;
  --sol-element-tertiary: #636363;
  --sol-element-quaternary: #858585;
  --sol-border-brand: #7b74c4;
  --sol-border-normal-variant: rgba(0, 0, 0, 0.08);
  --sol-border-solid-variant: #e0e0e0;
  --sol-border-solid: #d0d0d0;
  --sol-error: #e76067;
  --sol-error-container: #fdeaeb;
  --sol-static-white: #ffffff;
  --sol-static-black: #000000;
  --color-brand-400: #6058b4;
  --color-teal-500: #05a09a;
  --color-green-500: #35a142;
  --color-yellow-500: #d4ae00;
  --color-orange-500: #e06418;
  --color-blue-500: #3e9bca;
  --color-indigo-500: #3d5ed6;
  --color-pink-500: #d03e94;
}
@media (prefers-color-scheme: dark) {
  :root {
    --sol-primary: #9791d4;
    --sol-element-brand-variant: #ffffff;
    --sol-fill-active: #7b74c4;
    --sol-selected-container-variant: rgba(0, 0, 0, 0.08);
    --sol-surface: #161616;
    --sol-surface-base-variant: #1c1c1c;
    --sol-secondary-container: rgba(255, 255, 255, 0.16);
    --sol-element-primary: #ffffff;
    --sol-element-secondary: rgba(255, 255, 255, 0.8);
    --sol-element-tertiary: rgba(255, 255, 255, 0.6);
    --sol-element-quaternary: rgba(255, 255, 255, 0.5);
    --sol-border-brand: #7b74c4;
    --sol-border-normal-variant: rgba(255, 255, 255, 0.08);
    --sol-border-solid-variant: #3d3d3d;
    --sol-border-solid: #333333;
    --sol-error: #ee7a80;
    --sol-error-container: rgba(231, 96, 103, 0.24);
    --sol-static-white: #ffffff;
    --sol-static-black: #000000;
  }
}
</style>
<g clip-path="url(#clip0_1248_158583)">
<mask id="path-1-inside-1_1248_158583" fill="var(--sol-static-white)">
<path d="M0 0H181V324.785H0V0Z"/>
</mask>
<path d="M0 0H181V324.785H0V0Z" fill="var(--sol-surface)"/>
<path d="M181 0H180.245V324.785H181H181.755V0H181Z" fill="var(--sol-border-solid-variant)" mask="url(#path-1-inside-1_1248_158583)"/>
<path d="M10.5693 13.5882C10.5693 11.9204 11.9213 10.5684 13.5891 10.5684H34.7277C36.3955 10.5684 37.7475 11.9204 37.7475 13.5882V34.7268C37.7475 36.3945 36.3955 37.7466 34.7277 37.7466H13.5891C11.9213 37.7466 10.5693 36.3945 10.5693 34.7268V13.5882Z" fill="var(--sol-primary)"/>
<path d="M31.2513 19.7088C31.2513 19.8347 31.1492 19.9368 31.0233 19.9368H22.1195C21.0994 19.9369 20.5928 21.1738 21.3196 21.8894L25.8113 26.3104L25.8242 26.3237H22.9257C22.7414 26.3237 22.5649 26.2493 22.4361 26.1175L19.4721 23.0808C17.4982 21.0588 18.9307 17.6582 21.7565 17.6582H31.0233C31.1492 17.6582 31.2513 17.7603 31.2513 17.8862V19.7088Z" fill="url(#paint0_linear_1248_158583)"/>
<path d="M18.5576 28.6059C18.5576 28.48 18.6597 28.3779 18.7857 28.3779H27.6895C28.7095 28.3778 29.2162 27.1409 28.4894 26.4253L23.9976 22.0043L23.9847 21.991H26.8832C27.0675 21.991 27.2441 22.0653 27.3728 22.1972L30.3369 25.2338C32.3107 27.2559 30.8782 30.6565 28.0524 30.6565H18.7857C18.6597 30.6565 18.5576 30.5544 18.5576 30.4284V28.6059Z" fill="url(#paint1_linear_1248_158583)"/>
<path d="M31.2513 19.7088C31.2513 19.8347 31.1492 19.9368 31.0233 19.9368H22.1195C21.0994 19.9369 20.5928 21.1738 21.3196 21.8894L25.8113 26.3104L25.8242 26.3237H22.9257C22.7414 26.3237 22.5649 26.2493 22.4361 26.1175L19.4721 23.0808C17.4982 21.0588 18.9307 17.6582 21.7565 17.6582H31.0233C31.1492 17.6582 31.2513 17.7603 31.2513 17.8862V19.7088Z" stroke="url(#paint2_linear_1248_158583)" stroke-width="0.0976994"/>
<path d="M18.5576 28.6059C18.5576 28.48 18.6597 28.3779 18.7857 28.3779H27.6895C28.7095 28.3778 29.2162 27.1409 28.4894 26.4253L23.9976 22.0043L23.9847 21.991H26.8832C27.0675 21.991 27.2441 22.0653 27.3728 22.1972L30.3369 25.2338C32.3107 27.2559 30.8782 30.6565 28.0524 30.6565H18.7857C18.6597 30.6565 18.5576 30.5544 18.5576 30.4284V28.6059Z" stroke="url(#paint3_linear_1248_158583)" stroke-width="0.0976994"/>
<path d="M52.2446 22.3559C52.1739 21.6245 51.5487 21.1999 50.6286 21.1999C49.6613 21.1999 49.0715 21.6717 49.0715 22.3087C49.0715 23.0283 49.8264 23.3232 50.5342 23.4883L51.3363 23.7006C52.6103 23.9955 53.8371 24.6679 53.8371 26.1542C53.8371 27.6523 52.6575 28.6786 50.605 28.6786C48.6114 28.6786 47.3611 27.7231 47.2903 26.0363H48.8002C48.871 26.9328 49.6259 27.3692 50.5932 27.3692C51.6076 27.3692 52.3036 26.8738 52.3036 26.1424C52.3036 25.47 51.6784 25.1869 50.7583 24.951L49.7911 24.7033C48.3873 24.3376 47.5144 23.6299 47.5144 22.4031C47.5144 20.8932 48.8592 19.8905 50.6522 19.8905C52.4688 19.8905 53.6956 20.9168 53.7191 22.3559H52.2446ZM62.7314 24.2786C62.7314 27.0389 61.0563 28.6668 58.8151 28.6668C56.5738 28.6668 54.8988 27.0271 54.8988 24.2786C54.8988 21.5184 56.5738 19.8905 58.8151 19.8905C61.0563 19.8905 62.7314 21.5184 62.7314 24.2786ZM61.1861 24.2786C61.1861 22.3323 60.207 21.2706 58.8151 21.2706C57.4231 21.2706 56.444 22.3323 56.444 24.2786C56.444 26.225 57.4231 27.2866 58.8151 27.2866C60.207 27.2866 61.1861 26.225 61.1861 24.2786ZM64.0997 28.5488V20.0085H65.6332V27.2513H69.408V28.5488H64.0997ZM76.0256 20.0085H77.5708V25.588C77.5708 27.4164 76.1789 28.6786 74.1028 28.6786C72.0149 28.6786 70.6347 27.4164 70.6347 25.588V20.0085H72.1682V25.4583C72.1682 26.5317 72.9232 27.3102 74.1028 27.3102C75.2824 27.3102 76.0256 26.5317 76.0256 25.4583V20.0085ZM79.1515 20.0085H81.0389L83.5751 26.2132H83.6812L86.2174 20.0085H88.1048V28.5488H86.6302V22.6744H86.5477L84.1767 28.5252H83.0796L80.7086 22.6508H80.6378V28.5488H79.1515V20.0085Z" fill="var(--sol-element-primary)"/>
<mask id="mask0_1248_158583" style="mask-type:alpha" maskUnits="userSpaceOnUse" x="152" y="15" width="19" height="19">
<path d="M164.731 22.2367L162.867 24.1012L164.731 25.9657L163.931 26.7664L161.666 24.5015C161.445 24.2804 161.445 23.922 161.666 23.7009L163.931 21.436L164.731 22.2367Z" fill="var(--sol-element-primary)"/>
<path fill-rule="evenodd" clip-rule="evenodd" d="M166.596 17.3066C167.43 17.3066 168.106 17.9826 168.106 18.8165V29.3858C168.106 30.1677 167.511 30.8104 166.75 30.8876L166.596 30.8957H156.027L155.872 30.8876C155.162 30.8156 154.597 30.2507 154.525 29.5399L154.517 29.3858V18.8165C154.517 17.9826 155.193 17.3066 156.027 17.3066H166.596ZM156.027 18.4391C155.818 18.4391 155.649 18.6081 155.649 18.8165V29.3858C155.649 29.5943 155.818 29.7633 156.027 29.7633H158.289V18.4391H156.027ZM159.422 29.7633H166.596C166.804 29.7633 166.973 29.5943 166.973 29.3858V18.8165C166.973 18.6081 166.804 18.4391 166.596 18.4391H159.422V29.7633Z" fill="var(--sol-element-primary)"/>
</mask>
<g mask="url(#mask0_1248_158583)">
<rect x="147.781" y="10.5703" width="27.1782" height="27.1782" fill="var(--sol-element-primary)"/>
</g>
<path d="M181 47.2441V47.9991H0V47.2441H181Z" fill="var(--sol-border-normal-variant)"/>
<path d="M27.8566 77.5519C27.8566 77.2507 27.8566 77.0511 27.8441 76.8979C27.832 76.7499 27.8105 76.6842 27.79 76.6439C27.7312 76.5286 27.6375 76.4349 27.5222 76.3761C27.4819 76.3556 27.416 76.3341 27.2681 76.322C27.115 76.3095 26.9153 76.3095 26.6142 76.3095H24.5321V80.6845H27.8566V77.5519ZM22.2568 77.5343V78.4093H20.6817V77.5343H22.2568ZM22.2568 75.4345V76.3095H20.6817V75.4345H22.2568ZM22.2568 73.3341V74.2091H20.6817V73.3341H22.2568ZM23.6571 73.3518C23.6571 73.0506 23.6565 72.851 23.644 72.6978C23.6319 72.5498 23.6104 72.4841 23.5898 72.4438C23.5311 72.3286 23.4378 72.2347 23.3227 72.176C23.2823 72.1555 23.2164 72.1346 23.0686 72.1225C22.9155 72.11 22.7153 72.1094 22.4141 72.1094H20.5245C20.2234 72.1094 20.0236 72.11 19.8705 72.1225C19.7227 72.1346 19.6568 72.1555 19.6165 72.176C19.5012 72.2347 19.4074 72.3286 19.3487 72.4438C19.3282 72.4841 19.3067 72.5498 19.2946 72.6978C19.2821 72.851 19.2821 73.0506 19.2821 73.3518V80.6845H23.6571V73.3518ZM24.5321 75.4345H26.6142C26.9009 75.4345 27.1424 75.4338 27.3394 75.4499C27.5415 75.4664 27.7356 75.5024 27.9198 75.5963C28.1997 75.7389 28.4272 75.967 28.5698 76.2468C28.6636 76.431 28.6997 76.6247 28.7162 76.8267C28.7323 77.0238 28.7316 77.2652 28.7316 77.5519V80.6845H29.2568V81.5595H17.8818V80.6845H18.4071V73.3518C18.4071 73.065 18.4063 72.8236 18.4224 72.6266C18.439 72.4245 18.475 72.2309 18.5688 72.0467C18.7114 71.7669 18.9391 71.5393 19.2188 71.3967C19.4031 71.3028 19.5972 71.2668 19.7993 71.2503C19.9963 71.2342 20.2378 71.2344 20.5245 71.2344H22.4141C22.7009 71.2344 22.9428 71.2342 23.1398 71.2503C23.3419 71.2668 23.5355 71.3029 23.7197 71.3967C23.9995 71.5393 24.2271 71.7669 24.3697 72.0467C24.4635 72.2309 24.4996 72.4245 24.5161 72.6266C24.5322 72.8236 24.5321 73.065 24.5321 73.3518V75.4345Z" fill="var(--sol-element-primary)"/>
<path d="M37.6631 71.498H39.1396L42.4756 79.6465H42.5986L45.9346 71.498H47.4111V81.3965H46.249V73.918H46.1533L43.0771 81.3965H41.9834L38.9072 73.918H38.8252V81.3965H37.6631V71.498ZM52.5654 81.5469C50.4189 81.5469 49.0928 80.0293 49.0928 77.7461C49.0928 75.4629 50.4326 73.877 52.4561 73.877C54.0146 73.877 55.6553 74.834 55.6553 77.582V78.0742H50.2686C50.3232 79.6465 51.2393 80.5078 52.5654 80.5078C53.4541 80.5078 54.0146 80.125 54.2881 79.6602H55.5459C55.1904 80.7812 54.0967 81.5469 52.5654 81.5469ZM50.2822 77.0762H54.4658C54.4658 75.832 53.6729 74.916 52.4561 74.916C51.1709 74.916 50.3506 75.9277 50.2822 77.0762ZM58.3623 76.9395V81.3965H57.1865V73.9727H58.3213V75.1348H58.417C58.7725 74.3828 59.4561 73.877 60.5908 73.877C62.0947 73.877 63.0928 74.793 63.0928 76.6797V81.3965H61.917V76.7617C61.917 75.6133 61.2881 74.9297 60.2354 74.9297C59.1553 74.9297 58.3623 75.6543 58.3623 76.9395ZM69.6689 78.3477V73.9727H70.8311V81.3965H69.6689V80.1387H69.5869C69.2314 80.8906 68.5068 81.4922 67.3857 81.4922C65.9775 81.4922 64.9795 80.5762 64.9795 78.6895V73.9727H66.1553V78.6074C66.1553 79.6738 66.8252 80.3574 67.7686 80.3574C68.6025 80.3574 69.6689 79.7285 69.6689 78.3477ZM77.6123 71.498V81.3965H76.3818V71.498H77.6123ZM82.8896 73.9727V74.957H81.3311V79.2637C81.3311 80.2207 81.7959 80.3711 82.3018 80.3711C82.5205 80.3711 82.8213 80.3574 82.999 80.3438V81.4375C82.8213 81.4648 82.5205 81.4922 82.1787 81.4922C81.1943 81.4922 80.1416 80.877 80.1416 79.5645V74.957H79.0205V73.9727H80.1416V72.1953H81.3311V73.9727H82.8896ZM87.4561 81.5469C85.3096 81.5469 83.9834 80.0293 83.9834 77.7461C83.9834 75.4629 85.3232 73.877 87.3467 73.877C88.9053 73.877 90.5459 74.834 90.5459 77.582V78.0742H85.1592C85.2139 79.6465 86.1299 80.5078 87.4561 80.5078C88.3447 80.5078 88.9053 80.125 89.1787 79.6602H90.4365C90.0811 80.7812 88.9873 81.5469 87.4561 81.5469ZM85.1729 77.0762H89.3564C89.3564 75.832 88.5635 74.916 87.3467 74.916C86.0615 74.916 85.2412 75.9277 85.1729 77.0762ZM92.0771 81.3965V73.9727H93.2119V75.1348H93.3076C93.6221 74.3418 94.333 73.877 95.3037 73.877C96.2744 73.877 96.9307 74.3418 97.2861 75.1348H97.3682C97.751 74.3691 98.5303 73.877 99.5967 73.877C100.923 73.877 101.866 74.6836 101.866 76.4336V81.3965H100.69V76.4473C100.69 75.3535 99.9932 74.9297 99.1865 74.9297C98.1475 74.9297 97.5596 75.627 97.5596 76.5703V81.3965H96.3701V76.3242C96.3701 75.4902 95.7686 74.9297 94.9209 74.9297C94.0322 74.9297 93.2529 75.6816 93.2529 76.7617V81.3965H92.0771Z" fill="var(--sol-element-primary)"/>
<rect x="10.5693" y="95.416" width="159.861" height="32" rx="4" fill="var(--sol-secondary-container)"/>
<path d="M27.8566 112.571C27.8566 112.27 27.8566 112.071 27.8441 111.917C27.832 111.769 27.8105 111.704 27.79 111.663C27.7312 111.548 27.6375 111.454 27.5222 111.396C27.4819 111.375 27.416 111.354 27.2681 111.342C27.115 111.329 26.9153 111.329 26.6142 111.329H24.5321V115.704H27.8566V112.571ZM22.2568 112.554V113.429H20.6817V112.554H22.2568ZM22.2568 110.454V111.329H20.6817V110.454H22.2568ZM22.2568 108.354V109.229H20.6817V108.354H22.2568ZM23.6571 108.371C23.6571 108.07 23.6565 107.87 23.644 107.717C23.6319 107.569 23.6104 107.504 23.5898 107.463C23.5311 107.348 23.4378 107.254 23.3227 107.196C23.2823 107.175 23.2164 107.154 23.0686 107.142C22.9155 107.129 22.7153 107.129 22.4141 107.129H20.5245C20.2234 107.129 20.0236 107.13 19.8705 107.142C19.7227 107.154 19.6568 107.175 19.6165 107.196C19.5012 107.254 19.4074 107.348 19.3487 107.463C19.3282 107.504 19.3067 107.569 19.2946 107.717C19.2821 107.87 19.2821 108.07 19.2821 108.371V115.704H23.6571V108.371ZM24.5321 110.454H26.6142C26.9009 110.454 27.1424 110.453 27.3394 110.469C27.5415 110.486 27.7356 110.522 27.9198 110.616C28.1997 110.758 28.4272 110.986 28.5698 111.266C28.6636 111.451 28.6997 111.644 28.7162 111.846C28.7323 112.043 28.7316 112.285 28.7316 112.571V115.704H29.2568V116.579H17.8818V115.704H18.4071V108.371C18.4071 108.085 18.4063 107.843 18.4224 107.646C18.439 107.444 18.475 107.25 18.5688 107.066C18.7114 106.786 18.9391 106.559 19.2188 106.416C19.4031 106.322 19.5972 106.286 19.7993 106.27C19.9963 106.254 20.2378 106.254 20.5245 106.254H22.4141C22.7009 106.254 22.9428 106.254 23.1398 106.27C23.3419 106.286 23.5355 106.322 23.7197 106.416C23.9995 106.559 24.2271 106.786 24.3697 107.066C24.4635 107.25 24.4996 107.444 24.5161 107.646C24.5322 107.843 24.5321 108.085 24.5321 108.371V110.454Z" fill="var(--sol-primary)"/>
<path d="M37.4854 106.518H39.6729L42.6123 113.709H42.7354L45.6748 106.518H47.8623V116.416H46.1533V109.607H46.0576L43.3096 116.389H42.0381L39.29 109.58H39.208V116.416H37.4854V106.518ZM52.9072 116.566C50.665 116.566 49.2979 115.076 49.2979 112.752C49.2979 110.455 50.6924 108.896 52.8115 108.896C54.6299 108.896 56.2021 110.031 56.2021 112.643V113.189H51.0205C51.041 114.454 51.7861 115.199 52.9209 115.199C53.6865 115.199 54.2061 114.871 54.4248 114.434H56.1338C55.8193 115.719 54.6299 116.566 52.9072 116.566ZM51.0342 112H54.5342C54.5205 110.988 53.8506 110.25 52.8389 110.25C51.7861 110.25 51.0889 111.05 51.0342 112ZM59.3057 112.068V116.416H57.5557V108.992H59.2236V110.25H59.3193C59.6611 109.416 60.4131 108.896 61.5205 108.896C63.0654 108.896 64.0771 109.908 64.0635 111.686V116.416H62.3271V111.959C62.3271 110.961 61.7939 110.373 60.8779 110.373C59.9482 110.373 59.3057 110.988 59.3057 112.068ZM70.4756 113.299V108.992H72.2119V116.416H70.5303V115.104H70.4482C70.1064 115.924 69.3271 116.512 68.2197 116.512C66.7568 116.512 65.7451 115.5 65.7314 113.723V108.992H67.4814V113.449C67.4814 114.393 68.042 114.994 68.8896 114.994C69.6553 114.994 70.4756 114.434 70.4756 113.299ZM79.0615 106.518V116.416H77.2842V106.518H79.0615ZM84.5303 108.992V110.332H83.0674V114.188C83.0674 114.898 83.4229 115.049 83.8604 115.049C84.0654 115.049 84.4072 115.035 84.626 115.021V116.443C84.4209 116.484 84.0791 116.512 83.6416 116.512C82.3291 116.512 81.3174 115.869 81.3311 114.475V110.332H80.2646V108.992H81.3311V107.215H83.0674V108.992H84.5303ZM89.0967 116.566C86.8545 116.566 85.4873 115.076 85.4873 112.752C85.4873 110.455 86.8818 108.896 89.001 108.896C90.8193 108.896 92.3916 110.031 92.3916 112.643V113.189H87.21C87.2305 114.454 87.9756 115.199 89.1104 115.199C89.876 115.199 90.3955 114.871 90.6143 114.434H92.3232C92.0088 115.719 90.8193 116.566 89.0967 116.566ZM87.2236 112H90.7236C90.71 110.988 90.04 110.25 89.0283 110.25C87.9756 110.25 87.2783 111.05 87.2236 112ZM93.7451 116.416V108.992H95.4131V110.25H95.5088C95.8096 109.402 96.5615 108.896 97.5459 108.896C98.5576 108.896 99.2686 109.402 99.5557 110.25H99.6377C99.9658 109.43 100.786 108.896 101.866 108.896C103.22 108.896 104.177 109.771 104.177 111.426V116.416H102.44V111.699C102.44 110.77 101.88 110.359 101.169 110.359C100.308 110.359 99.8154 110.947 99.8154 111.781V116.416H98.1201V111.631C98.1201 110.865 97.6006 110.359 96.8623 110.359C96.1104 110.359 95.4951 110.975 95.4951 111.904V116.416H93.7451Z" fill="var(--sol-primary)"/>
<path d="M27.8566 147.591C27.8566 147.29 27.8566 147.09 27.8441 146.937C27.832 146.789 27.8105 146.723 27.79 146.683C27.7312 146.568 27.6375 146.474 27.5222 146.415C27.4819 146.395 27.416 146.373 27.2681 146.361C27.115 146.349 26.9153 146.349 26.6142 146.349H24.5321V150.724H27.8566V147.591ZM22.2568 147.573V148.448H20.6817V147.573H22.2568ZM22.2568 145.474V146.349H20.6817V145.474H22.2568ZM22.2568 143.373V144.248H20.6817V143.373H22.2568ZM23.6571 143.391C23.6571 143.09 23.6565 142.89 23.644 142.737C23.6319 142.589 23.6104 142.523 23.5898 142.483C23.5311 142.368 23.4378 142.274 23.3227 142.215C23.2823 142.195 23.2164 142.174 23.0686 142.162C22.9155 142.149 22.7153 142.148 22.4141 142.148H20.5245C20.2234 142.148 20.0236 142.149 19.8705 142.162C19.7227 142.174 19.6568 142.195 19.6165 142.215C19.5012 142.274 19.4074 142.368 19.3487 142.483C19.3282 142.523 19.3067 142.589 19.2946 142.737C19.2821 142.89 19.2821 143.09 19.2821 143.391V150.724H23.6571V143.391ZM24.5321 145.474H26.6142C26.9009 145.474 27.1424 145.473 27.3394 145.489C27.5415 145.505 27.7356 145.541 27.9198 145.635C28.1997 145.778 28.4272 146.006 28.5698 146.286C28.6636 146.47 28.6997 146.664 28.7162 146.866C28.7323 147.063 28.7316 147.304 28.7316 147.591V150.724H29.2568V151.599H17.8818V150.724H18.4071V143.391C18.4071 143.104 18.4063 142.863 18.4224 142.666C18.439 142.464 18.475 142.27 18.5688 142.086C18.7114 141.806 18.9391 141.578 19.2188 141.436C19.4031 141.342 19.5972 141.306 19.7993 141.289C19.9963 141.273 20.2378 141.273 20.5245 141.273H22.4141C22.7009 141.273 22.9428 141.273 23.1398 141.289C23.3419 141.306 23.5355 141.342 23.7197 141.436C23.9995 141.578 24.2271 141.806 24.3697 142.086C24.4635 142.27 24.4996 142.464 24.5161 142.666C24.5322 142.863 24.5321 143.104 24.5321 143.391V145.474Z" fill="var(--sol-element-primary)"/>
<path d="M37.6631 141.537H39.1396L42.4756 149.686H42.5986L45.9346 141.537H47.4111V151.436H46.249V143.957H46.1533L43.0771 151.436H41.9834L38.9072 143.957H38.8252V151.436H37.6631V141.537ZM52.5654 151.586C50.4189 151.586 49.0928 150.068 49.0928 147.785C49.0928 145.502 50.4326 143.916 52.4561 143.916C54.0146 143.916 55.6553 144.873 55.6553 147.621V148.113H50.2686C50.3232 149.686 51.2393 150.547 52.5654 150.547C53.4541 150.547 54.0146 150.164 54.2881 149.699H55.5459C55.1904 150.82 54.0967 151.586 52.5654 151.586ZM50.2822 147.115H54.4658C54.4658 145.871 53.6729 144.955 52.4561 144.955C51.1709 144.955 50.3506 145.967 50.2822 147.115ZM58.3623 146.979V151.436H57.1865V144.012H58.3213V145.174H58.417C58.7725 144.422 59.4561 143.916 60.5908 143.916C62.0947 143.916 63.0928 144.832 63.0928 146.719V151.436H61.917V146.801C61.917 145.652 61.2881 144.969 60.2354 144.969C59.1553 144.969 58.3623 145.693 58.3623 146.979ZM69.6689 148.387V144.012H70.8311V151.436H69.6689V150.178H69.5869C69.2314 150.93 68.5068 151.531 67.3857 151.531C65.9775 151.531 64.9795 150.615 64.9795 148.729V144.012H66.1553V148.646C66.1553 149.713 66.8252 150.396 67.7686 150.396C68.6025 150.396 69.6689 149.768 69.6689 148.387ZM77.6123 141.537V151.436H76.3818V141.537H77.6123ZM82.8896 144.012V144.996H81.3311V149.303C81.3311 150.26 81.7959 150.41 82.3018 150.41C82.5205 150.41 82.8213 150.396 82.999 150.383V151.477C82.8213 151.504 82.5205 151.531 82.1787 151.531C81.1943 151.531 80.1416 150.916 80.1416 149.604V144.996H79.0205V144.012H80.1416V142.234H81.3311V144.012H82.8896ZM87.4561 151.586C85.3096 151.586 83.9834 150.068 83.9834 147.785C83.9834 145.502 85.3232 143.916 87.3467 143.916C88.9053 143.916 90.5459 144.873 90.5459 147.621V148.113H85.1592C85.2139 149.686 86.1299 150.547 87.4561 150.547C88.3447 150.547 88.9053 150.164 89.1787 149.699H90.4365C90.0811 150.82 88.9873 151.586 87.4561 151.586ZM85.1729 147.115H89.3564C89.3564 145.871 88.5635 144.955 87.3467 144.955C86.0615 144.955 85.2412 145.967 85.1729 147.115ZM92.0771 151.436V144.012H93.2119V145.174H93.3076C93.6221 144.381 94.333 143.916 95.3037 143.916C96.2744 143.916 96.9307 144.381 97.2861 145.174H97.3682C97.751 144.408 98.5303 143.916 99.5967 143.916C100.923 143.916 101.866 144.723 101.866 146.473V151.436H100.69V146.486C100.69 145.393 99.9932 144.969 99.1865 144.969C98.1475 144.969 97.5596 145.666 97.5596 146.609V151.436H96.3701V146.363C96.3701 145.529 95.7686 144.969 94.9209 144.969C94.0322 144.969 93.2529 145.721 93.2529 146.801V151.436H92.0771Z" fill="var(--sol-element-primary)"/>
<mask id="mask1_1248_158583" style="mask-type:alpha" maskUnits="userSpaceOnUse" x="152" y="140" width="13" height="13">
<path d="M161.678 145.194L158.658 148.214C158.511 148.361 158.272 148.361 158.124 148.214L155.104 145.194L155.638 144.66L158.391 147.413L161.144 144.66L161.678 145.194Z" fill="var(--sol-element-primary)"/>
</mask>
<g mask="url(#mask1_1248_158583)">
<rect x="152.352" y="140.396" width="12.0792" height="12.0792" fill="var(--sol-element-primary)"/>
</g>
<path d="M27.8566 182.611C27.8566 182.309 27.8566 182.11 27.8441 181.957C27.832 181.809 27.8105 181.743 27.79 181.702C27.7312 181.587 27.6375 181.493 27.5222 181.435C27.4819 181.414 27.416 181.393 27.2681 181.381C27.115 181.368 26.9153 181.368 26.6142 181.368H24.5321V185.743H27.8566V182.611ZM22.2568 182.593V183.468H20.6817V182.593H22.2568ZM22.2568 180.493V181.368H20.6817V180.493H22.2568ZM22.2568 178.393V179.268H20.6817V178.393H22.2568ZM23.6571 178.41C23.6571 178.109 23.6565 177.91 23.644 177.756C23.6319 177.608 23.6104 177.543 23.5898 177.502C23.5311 177.387 23.4378 177.293 23.3227 177.235C23.2823 177.214 23.2164 177.193 23.0686 177.181C22.9155 177.169 22.7153 177.168 22.4141 177.168H20.5245C20.2234 177.168 20.0236 177.169 19.8705 177.181C19.7227 177.193 19.6568 177.214 19.6165 177.235C19.5012 177.293 19.4074 177.387 19.3487 177.502C19.3282 177.543 19.3067 177.608 19.2946 177.756C19.2821 177.91 19.2821 178.109 19.2821 178.41V185.743H23.6571V178.41ZM24.5321 180.493H26.6142C26.9009 180.493 27.1424 180.492 27.3394 180.508C27.5415 180.525 27.7356 180.561 27.9198 180.655C28.1997 180.797 28.4272 181.026 28.5698 181.305C28.6636 181.49 28.6997 181.683 28.7162 181.885C28.7323 182.082 28.7316 182.324 28.7316 182.611V185.743H29.2568V186.618H17.8818V185.743H18.4071V178.41C18.4071 178.124 18.4063 177.882 18.4224 177.685C18.439 177.483 18.475 177.29 18.5688 177.105C18.7114 176.825 18.9391 176.598 19.2188 176.455C19.4031 176.361 19.5972 176.325 19.7993 176.309C19.9963 176.293 20.2378 176.293 20.5245 176.293H22.4141C22.7009 176.293 22.9428 176.293 23.1398 176.309C23.3419 176.325 23.5355 176.361 23.7197 176.455C23.9995 176.598 24.2271 176.825 24.3697 177.105C24.4635 177.29 24.4996 177.483 24.5161 177.685C24.5322 177.882 24.5321 178.124 24.5321 178.41V180.493Z" fill="var(--sol-element-primary)"/>
<path d="M37.6631 176.557H39.1396L42.4756 184.705H42.5986L45.9346 176.557H47.4111V186.455H46.249V178.977H46.1533L43.0771 186.455H41.9834L38.9072 178.977H38.8252V186.455H37.6631V176.557ZM52.5654 186.605C50.4189 186.605 49.0928 185.088 49.0928 182.805C49.0928 180.521 50.4326 178.936 52.4561 178.936C54.0146 178.936 55.6553 179.893 55.6553 182.641V183.133H50.2686C50.3232 184.705 51.2393 185.566 52.5654 185.566C53.4541 185.566 54.0146 185.184 54.2881 184.719H55.5459C55.1904 185.84 54.0967 186.605 52.5654 186.605ZM50.2822 182.135H54.4658C54.4658 180.891 53.6729 179.975 52.4561 179.975C51.1709 179.975 50.3506 180.986 50.2822 182.135ZM58.3623 181.998V186.455H57.1865V179.031H58.3213V180.193H58.417C58.7725 179.441 59.4561 178.936 60.5908 178.936C62.0947 178.936 63.0928 179.852 63.0928 181.738V186.455H61.917V181.82C61.917 180.672 61.2881 179.988 60.2354 179.988C59.1553 179.988 58.3623 180.713 58.3623 181.998ZM69.6689 183.406V179.031H70.8311V186.455H69.6689V185.197H69.5869C69.2314 185.949 68.5068 186.551 67.3857 186.551C65.9775 186.551 64.9795 185.635 64.9795 183.748V179.031H66.1553V183.666C66.1553 184.732 66.8252 185.416 67.7686 185.416C68.6025 185.416 69.6689 184.787 69.6689 183.406ZM77.6123 176.557V186.455H76.3818V176.557H77.6123ZM82.8896 179.031V180.016H81.3311V184.322C81.3311 185.279 81.7959 185.43 82.3018 185.43C82.5205 185.43 82.8213 185.416 82.999 185.402V186.496C82.8213 186.523 82.5205 186.551 82.1787 186.551C81.1943 186.551 80.1416 185.936 80.1416 184.623V180.016H79.0205V179.031H80.1416V177.254H81.3311V179.031H82.8896ZM87.4561 186.605C85.3096 186.605 83.9834 185.088 83.9834 182.805C83.9834 180.521 85.3232 178.936 87.3467 178.936C88.9053 178.936 90.5459 179.893 90.5459 182.641V183.133H85.1592C85.2139 184.705 86.1299 185.566 87.4561 185.566C88.3447 185.566 88.9053 185.184 89.1787 184.719H90.4365C90.0811 185.84 88.9873 186.605 87.4561 186.605ZM85.1729 182.135H89.3564C89.3564 180.891 88.5635 179.975 87.3467 179.975C86.0615 179.975 85.2412 180.986 85.1729 182.135ZM92.0771 186.455V179.031H93.2119V180.193H93.3076C93.6221 179.4 94.333 178.936 95.3037 178.936C96.2744 178.936 96.9307 179.4 97.2861 180.193H97.3682C97.751 179.428 98.5303 178.936 99.5967 178.936C100.923 178.936 101.866 179.742 101.866 181.492V186.455H100.69V181.506C100.69 180.412 99.9932 179.988 99.1865 179.988C98.1475 179.988 97.5596 180.686 97.5596 181.629V186.455H96.3701V181.383C96.3701 180.549 95.7686 179.988 94.9209 179.988C94.0322 179.988 93.2529 180.74 93.2529 181.82V186.455H92.0771Z" fill="var(--sol-element-primary)"/>
<rect y="140" width="302" height="52" fill="url(#paint4_linear_1248_158583)"/>
</g>
<defs>
<linearGradient id="paint0_linear_1248_158583" x1="24.9045" y1="21.3895" x2="24.9045" y2="30.6565" gradientUnits="userSpaceOnUse">
<stop stop-color="var(--sol-surface)"/>
<stop offset="1" stop-color="var(--sol-surface)" stop-opacity="0.4"/>
</linearGradient>
<linearGradient id="paint1_linear_1248_158583" x1="24.9045" y1="21.3895" x2="24.9045" y2="30.6565" gradientUnits="userSpaceOnUse">
<stop stop-color="var(--sol-surface)"/>
<stop offset="1" stop-color="var(--sol-surface)" stop-opacity="0.4"/>
</linearGradient>
<linearGradient id="paint2_linear_1248_158583" x1="19.0464" y1="30.3467" x2="28.1843" y2="23.5366" gradientUnits="userSpaceOnUse">
<stop stop-color="var(--sol-surface)"/>
<stop offset="1" stop-color="var(--sol-surface)" stop-opacity="0"/>
</linearGradient>
<linearGradient id="paint3_linear_1248_158583" x1="19.0464" y1="30.3467" x2="28.1843" y2="23.5366" gradientUnits="userSpaceOnUse">
<stop stop-color="var(--sol-surface)"/>
<stop offset="1" stop-color="var(--sol-surface)" stop-opacity="0"/>
</linearGradient>
<linearGradient id="paint4_linear_1248_158583" x1="259.531" y1="192" x2="259.531" y2="140" gradientUnits="userSpaceOnUse">
<stop stop-opacity="0.04"/>
<stop offset="1" stop-color="var(--sol-surface)" stop-opacity="0"/>
</linearGradient>
<clipPath id="clip0_1248_158583">
<rect width="288" height="192" fill="var(--sol-surface)"/>
</clipPath>
</defs>
</svg>
