<svg width="288" height="192" viewBox="0 0 288 192" fill="none" xmlns="http://www.w3.org/2000/svg">
<style>
:root {
  --sol-primary: #282363;
  --sol-element-brand-variant: #3a3480;
  --sol-fill-active: #4d469a;
  --sol-selected-container-variant: #f5f4fd;
  --sol-surface: #ffffff;
  --sol-surface-base-variant: #f5f5f5;
  --sol-secondary-container: #e8e6f8;
  --sol-element-primary: #161616;
  --sol-element-secondary: #484848;
  --sol-element-tertiary: #636363;
  --sol-element-quaternary: #858585;
  --sol-border-brand: #7b74c4;
  --sol-border-normal-variant: rgba(0, 0, 0, 0.08);
  --sol-border-solid-variant: #e0e0e0;
  --sol-border-solid: #d0d0d0;
  --sol-error: #e76067;
  --sol-error-container: #fdeaeb;
  --sol-static-white: #ffffff;
  --sol-static-black: #000000;
  --color-brand-400: #6058b4;
  --color-teal-500: #05a09a;
  --color-green-500: #35a142;
  --color-yellow-500: #d4ae00;
  --color-orange-500: #e06418;
  --color-blue-500: #3e9bca;
  --color-indigo-500: #3d5ed6;
  --color-pink-500: #d03e94;
}
@media (prefers-color-scheme: dark) {
  :root {
    --sol-primary: #9791d4;
    --sol-element-brand-variant: #ffffff;
    --sol-fill-active: #7b74c4;
    --sol-selected-container-variant: rgba(0, 0, 0, 0.08);
    --sol-surface: #161616;
    --sol-surface-base-variant: #1c1c1c;
    --sol-secondary-container: rgba(255, 255, 255, 0.16);
    --sol-element-primary: #ffffff;
    --sol-element-secondary: rgba(255, 255, 255, 0.8);
    --sol-element-tertiary: rgba(255, 255, 255, 0.6);
    --sol-element-quaternary: rgba(255, 255, 255, 0.5);
    --sol-border-brand: #7b74c4;
    --sol-border-normal-variant: rgba(255, 255, 255, 0.08);
    --sol-border-solid-variant: #3d3d3d;
    --sol-border-solid: #333333;
    --sol-error: #ee7a80;
    --sol-error-container: rgba(231, 96, 103, 0.24);
    --sol-static-white: #ffffff;
    --sol-static-black: #000000;
  }
}
</style>
<g clip-path="url(#clip0_1248_158344)">
<g filter="url(#filter0_dd_1248_158344)">
<rect x="40" y="40" width="327.894" height="277.194" rx="4" fill="var(--sol-surface)" shape-rendering="crispEdges"/>
<rect x="40.1911" y="40.1911" width="327.511" height="276.811" rx="3.80892" stroke="var(--sol-border-solid-variant)" stroke-width="0.38216" shape-rendering="crispEdges"/>
<path d="M64 66.699C64 65.8049 64.7248 65.0801 65.6189 65.0801H152.381C153.275 65.0801 154 65.8049 154 66.699V81.3027C154 82.1967 153.275 82.9215 152.381 82.9215H65.6189C64.7248 82.9215 64 82.1967 64 81.3026V66.699Z" fill="var(--sol-element-primary)" fill-opacity="0.08"/>
<path d="M64 93.2615C64 92.3674 64.7248 91.6426 65.6189 91.6426H106.631C107.525 91.6426 108.25 92.3674 108.25 93.2615V134.274C108.25 135.168 107.525 135.892 106.631 135.892H65.6189C64.7248 135.892 64 135.168 64 134.274V93.2615Z" fill="var(--sol-element-primary)" fill-opacity="0.08"/>
<path d="M116.884 94.9177C116.884 94.0236 117.609 93.2988 118.503 93.2988H277.694C278.589 93.2988 279.313 94.0236 279.313 94.9177V101.393C279.313 102.287 278.589 103.012 277.694 103.012H118.503C117.609 103.012 116.884 102.287 116.884 101.393V94.9177Z" fill="var(--sol-element-primary)" fill-opacity="0.08"/>
<path d="M116.884 111.107C116.884 110.213 117.609 109.488 118.503 109.488H207.049C207.943 109.488 208.668 110.213 208.668 111.107V117.007C208.668 117.901 207.943 118.626 207.049 118.626H118.503C117.609 118.626 116.884 117.901 116.884 117.007V111.107Z" fill="var(--sol-element-primary)" fill-opacity="0.08"/>
<path d="M116.884 126.72C116.884 125.826 117.609 125.102 118.503 125.102H207.049C207.943 125.102 208.668 125.826 208.668 126.72V132.621C208.668 133.515 207.943 134.24 207.049 134.24H118.503C117.609 134.24 116.884 133.515 116.884 132.621V126.72Z" fill="var(--sol-element-primary)" fill-opacity="0.08"/>
<path d="M64 145.156C64 144.262 64.7248 143.537 65.6189 143.537H106.631C107.525 143.537 108.25 144.262 108.25 145.156V186.168C108.25 187.062 107.525 187.787 106.631 187.787H65.6189C64.7248 187.787 64 187.062 64 186.168V145.156Z" fill="var(--sol-element-primary)" fill-opacity="0.08"/>
<path d="M116.884 146.812C116.884 145.918 117.609 145.193 118.503 145.193H277.694C278.589 145.193 279.313 145.918 279.313 146.812V153.288C279.313 154.182 278.589 154.907 277.694 154.907H118.503C117.609 154.907 116.884 154.182 116.884 153.288V146.812Z" fill="var(--sol-element-primary)" fill-opacity="0.08"/>
<path d="M116.884 163.002C116.884 162.108 117.609 161.383 118.503 161.383H207.049C207.943 161.383 208.668 162.108 208.668 163.002V168.902C208.668 169.796 207.943 170.521 207.049 170.521H118.503C117.609 170.521 116.884 169.796 116.884 168.902V163.002Z" fill="var(--sol-element-primary)" fill-opacity="0.08"/>
<path d="M116.884 178.615C116.884 177.721 117.609 176.996 118.503 176.996H207.049C207.943 176.996 208.668 177.721 208.668 178.615V184.515C208.668 185.409 207.943 186.134 207.049 186.134H118.503C117.609 186.134 116.884 185.409 116.884 184.515V178.615Z" fill="var(--sol-element-primary)" fill-opacity="0.08"/>
</g>
<rect y="140" width="302" height="52" fill="url(#paint0_linear_1248_158344)"/>
</g>
<defs>
<filter id="filter0_dd_1248_158344" x="32" y="36" width="343.894" height="293.193" filterUnits="userSpaceOnUse" color-interpolation-filters="sRGB">
<feFlood flood-opacity="0" result="BackgroundImageFix"/>
<feColorMatrix in="SourceAlpha" type="matrix" values="0 0 0 0 0 0 0 0 0 0 0 0 0 0 0 0 0 0 127 0" result="hardAlpha"/>
<feOffset dy="4"/>
<feGaussianBlur stdDeviation="4"/>
<feComposite in2="hardAlpha" operator="out"/>
<feColorMatrix type="matrix" values="0 0 0 0 0 0 0 0 0 0 0 0 0 0 0 0 0 0 0.08 0"/>
<feBlend mode="normal" in2="BackgroundImageFix" result="effect1_dropShadow_1248_158344"/>
<feColorMatrix in="SourceAlpha" type="matrix" values="0 0 0 0 0 0 0 0 0 0 0 0 0 0 0 0 0 0 127 0" result="hardAlpha"/>
<feOffset/>
<feGaussianBlur stdDeviation="0.5"/>
<feComposite in2="hardAlpha" operator="out"/>
<feColorMatrix type="matrix" values="0 0 0 0 0 0 0 0 0 0 0 0 0 0 0 0 0 0 0.08 0"/>
<feBlend mode="normal" in2="effect1_dropShadow_1248_158344" result="effect2_dropShadow_1248_158344"/>
<feBlend mode="normal" in="SourceGraphic" in2="effect2_dropShadow_1248_158344" result="shape"/>
</filter>
<linearGradient id="paint0_linear_1248_158344" x1="259.531" y1="192" x2="259.531" y2="140" gradientUnits="userSpaceOnUse">
<stop stop-opacity="0.04"/>
<stop offset="1" stop-color="var(--sol-surface)" stop-opacity="0"/>
</linearGradient>
<clipPath id="clip0_1248_158344">
<rect width="288" height="192" fill="var(--sol-surface)"/>
</clipPath>
</defs>
</svg>
