<svg width="288" height="192" viewBox="0 0 288 192" fill="none" xmlns="http://www.w3.org/2000/svg">
<style>
:root {
  --sol-primary: #282363;
  --sol-element-brand-variant: #3a3480;
  --sol-fill-active: #4d469a;
  --sol-selected-container-variant: #f5f4fd;
  --sol-surface: #ffffff;
  --sol-surface-base-variant: #f5f5f5;
  --sol-secondary-container: #e8e6f8;
  --sol-element-primary: #161616;
  --sol-element-secondary: #484848;
  --sol-element-tertiary: #636363;
  --sol-element-quaternary: #858585;
  --sol-border-brand: #7b74c4;
  --sol-border-normal-variant: rgba(0, 0, 0, 0.08);
  --sol-border-solid-variant: #e0e0e0;
  --sol-border-solid: #d0d0d0;
  --sol-error: #e76067;
  --sol-error-container: #fdeaeb;
  --sol-static-white: #ffffff;
  --sol-static-black: #000000;
  --color-brand-400: #6058b4;
  --color-teal-500: #05a09a;
  --color-green-500: #35a142;
  --color-yellow-500: #d4ae00;
  --color-orange-500: #e06418;
  --color-blue-500: #3e9bca;
  --color-indigo-500: #3d5ed6;
  --color-pink-500: #d03e94;
}
@media (prefers-color-scheme: dark) {
  :root {
    --sol-primary: #9791d4;
    --sol-element-brand-variant: #ffffff;
    --sol-fill-active: #7b74c4;
    --sol-selected-container-variant: rgba(0, 0, 0, 0.08);
    --sol-surface: #161616;
    --sol-surface-base-variant: #1c1c1c;
    --sol-secondary-container: rgba(255, 255, 255, 0.16);
    --sol-element-primary: #ffffff;
    --sol-element-secondary: rgba(255, 255, 255, 0.8);
    --sol-element-tertiary: rgba(255, 255, 255, 0.6);
    --sol-element-quaternary: rgba(255, 255, 255, 0.5);
    --sol-border-brand: #7b74c4;
    --sol-border-normal-variant: rgba(255, 255, 255, 0.08);
    --sol-border-solid-variant: #3d3d3d;
    --sol-border-solid: #333333;
    --sol-error: #ee7a80;
    --sol-error-container: rgba(231, 96, 103, 0.24);
    --sol-static-white: #ffffff;
    --sol-static-black: #000000;
  }
}
</style>
<path d="M93 83C93 79.2288 93 77.3431 94.1716 76.1716C95.3431 75 97.2288 75 101 75H152V117H101C97.2288 117 95.3431 117 94.1716 115.828C93 114.657 93 112.771 93 109V83Z" fill="var(--sol-primary)"/>
<path d="M110.227 102V90.6875H114.477C117.07 90.6875 118.461 92.1406 118.461 94.2969C118.461 95.8359 117.758 96.9766 116.43 97.5156L118.867 102H116.602L114.383 97.8594H112.258V102H110.227ZM112.258 96.1562H114.164C115.695 96.1562 116.383 95.5 116.383 94.2969C116.383 93.0938 115.695 92.3906 114.164 92.3906H112.258V96.1562ZM125.539 98.4375V93.5156H127.523V102H125.602V100.5H125.508C125.117 101.438 124.227 102.109 122.961 102.109C121.289 102.109 120.133 100.953 120.117 98.9219V93.5156H122.117V98.6094C122.117 99.6875 122.758 100.375 123.727 100.375C124.602 100.375 125.539 99.7344 125.539 98.4375ZM131.43 97.0312V102H129.43V93.5156H131.336V94.9531H131.445C131.836 94 132.695 93.4062 133.961 93.4062C135.727 93.4062 136.883 94.5625 136.867 96.5938V102H134.883V96.9062C134.883 95.7656 134.273 95.0938 133.227 95.0938C132.164 95.0938 131.43 95.7969 131.43 97.0312Z" fill="var(--sol-surface)"/>
<rect width="1" height="42" transform="translate(152 75)" fill="var(--sol-border-normal-variant)"/>
<path d="M153 75H187C190.771 75 192.657 75 193.828 76.1716C195 77.3431 195 79.2288 195 83V109C195 112.771 195 114.657 193.828 115.828C192.657 117 190.771 117 187 117H153V75Z" fill="var(--sol-primary)"/>
<path d="M178.442 93.9424L173.442 98.9424C173.198 99.1865 172.803 99.1865 172.559 98.9424L167.559 93.9424L168.442 93.0586L173 97.6167L177.559 93.0586L178.442 93.9424Z" fill="var(--sol-surface)"/>
</svg>
