<svg width="288" height="192" viewBox="0 0 288 192" fill="none" xmlns="http://www.w3.org/2000/svg">
<style>
:root {
  --sol-primary: #282363;
  --sol-element-brand-variant: #3a3480;
  --sol-fill-active: #4d469a;
  --sol-selected-container-variant: #f5f4fd;
  --sol-surface: #ffffff;
  --sol-surface-base-variant: #f5f5f5;
  --sol-secondary-container: #e8e6f8;
  --sol-element-primary: #161616;
  --sol-element-secondary: #484848;
  --sol-element-tertiary: #636363;
  --sol-element-quaternary: #858585;
  --sol-border-brand: #7b74c4;
  --sol-border-normal-variant: rgba(0, 0, 0, 0.08);
  --sol-border-solid-variant: #e0e0e0;
  --sol-border-solid: #d0d0d0;
  --sol-error: #e76067;
  --sol-error-container: #fdeaeb;
  --sol-static-white: #ffffff;
  --sol-static-black: #000000;
  --color-brand-400: #6058b4;
  --color-teal-500: #05a09a;
  --color-green-500: #35a142;
  --color-yellow-500: #d4ae00;
  --color-orange-500: #e06418;
  --color-blue-500: #3e9bca;
  --color-indigo-500: #3d5ed6;
  --color-pink-500: #d03e94;
}
@media (prefers-color-scheme: dark) {
  :root {
    --sol-primary: #9791d4;
    --sol-element-brand-variant: #ffffff;
    --sol-fill-active: #7b74c4;
    --sol-selected-container-variant: rgba(0, 0, 0, 0.08);
    --sol-surface: #161616;
    --sol-surface-base-variant: #1c1c1c;
    --sol-secondary-container: rgba(255, 255, 255, 0.16);
    --sol-element-primary: #ffffff;
    --sol-element-secondary: rgba(255, 255, 255, 0.8);
    --sol-element-tertiary: rgba(255, 255, 255, 0.6);
    --sol-element-quaternary: rgba(255, 255, 255, 0.5);
    --sol-border-brand: #7b74c4;
    --sol-border-normal-variant: rgba(255, 255, 255, 0.08);
    --sol-border-solid-variant: #3d3d3d;
    --sol-border-solid: #333333;
    --sol-error: #ee7a80;
    --sol-error-container: rgba(231, 96, 103, 0.24);
    --sol-static-white: #ffffff;
    --sol-static-black: #000000;
  }
}
</style>
<g clip-path="url(#clip0_1254_164212)">
<rect y="140" width="302" height="52" fill="url(#paint0_linear_1254_164212)"/>
<g filter="url(#filter0_dd_1254_164212)">
<rect x="40" y="40" width="391" height="273.886" rx="4" fill="var(--sol-surface)" shape-rendering="crispEdges"/>
<rect x="40.5" y="40.5" width="390" height="272.886" rx="3.5" stroke="var(--sol-border-solid-variant)" shape-rendering="crispEdges"/>
<path d="M61.2104 62.0662C61.1426 61.3655 60.5436 60.9586 59.662 60.9586C58.7352 60.9586 58.1701 61.4107 58.1701 62.021C58.1701 62.7105 58.8934 62.993 59.5716 63.1513L60.3401 63.3547C61.5608 63.6373 62.7362 64.2815 62.7362 65.7056C62.7362 67.141 61.606 68.1243 59.6394 68.1243C57.7293 68.1243 56.5312 67.2088 56.4634 65.5926H57.9101C57.9779 66.4516 58.7013 66.8698 59.6281 66.8698C60.6001 66.8698 61.2669 66.3951 61.2669 65.6943C61.2669 65.0501 60.6679 64.7788 59.7863 64.5528L58.8595 64.3154C57.5145 63.965 56.6781 63.2869 56.6781 62.1114C56.6781 60.6647 57.9666 59.704 59.6846 59.704C61.4252 59.704 62.6006 60.6873 62.6232 62.0662H61.2104ZM66.613 68.1243C64.7594 68.1243 63.6291 66.8924 63.6291 64.971C63.6291 63.0722 64.782 61.7837 66.5338 61.7837C68.0371 61.7837 69.3368 62.7218 69.3368 64.8805V65.3326H65.0532C65.0702 66.3781 65.6862 66.9941 66.6243 66.9941C67.2572 66.9941 67.6867 66.7228 67.8675 66.3612H69.2803C69.0204 67.4236 68.0371 68.1243 66.613 68.1243ZM65.0645 64.3493H67.9579C67.9466 63.5129 67.3928 62.9026 66.5564 62.9026C65.6862 62.9026 65.1097 63.5638 65.0645 64.3493ZM73.1344 68.1243C71.3034 68.1243 70.1958 66.8132 70.1958 64.9597C70.1958 63.0835 71.3374 61.7837 73.1344 61.7837C74.6264 61.7837 75.6662 62.654 75.7679 63.9763H74.389C74.276 63.3886 73.8465 62.9365 73.1457 62.9365C72.2529 62.9365 71.6538 63.6938 71.6538 64.9257C71.6538 66.1916 72.2415 66.9489 73.1457 66.9489C73.79 66.9489 74.2647 66.5759 74.389 65.9091H75.7679C75.6549 67.2088 74.6716 68.1243 73.1344 68.1243ZM79.9159 61.8628V62.9704H78.7065V66.1577C78.7065 66.7454 79.0004 66.8698 79.3621 66.8698C79.5316 66.8698 79.8142 66.8585 79.995 66.8472V68.0226C79.8255 68.0565 79.5429 68.0791 79.1812 68.0791C78.0962 68.0791 77.2598 67.5479 77.2711 66.3951V62.9704H76.3895V61.8628H77.2711V60.3935H78.7065V61.8628H79.9159ZM81.0235 68V61.8628H82.4702V68H81.0235ZM81.7582 60.9925C81.3061 60.9925 80.9218 60.6421 80.9218 60.2013C80.9218 59.7719 81.3061 59.4215 81.7582 59.4215C82.2216 59.4215 82.5945 59.7719 82.5945 60.2013C82.5945 60.6421 82.2216 60.9925 81.7582 60.9925ZM86.5278 68.1243C84.742 68.1243 83.5892 66.8585 83.5892 64.9597C83.5892 63.0495 84.742 61.7837 86.5278 61.7837C88.3249 61.7837 89.4664 63.0495 89.4664 64.9597C89.4664 66.8585 88.3249 68.1243 86.5278 68.1243ZM86.5391 66.9715C87.5224 66.9715 88.0084 66.0786 88.0084 64.9484C88.0084 63.8294 87.5224 62.9252 86.5391 62.9252C85.5332 62.9252 85.0472 63.8294 85.0472 64.9484C85.0472 66.0786 85.5332 66.9715 86.5391 66.9715ZM92.0321 64.4058V68H90.5853V61.8628H91.9642V62.9026H92.0434C92.3259 62.2132 92.9475 61.7837 93.863 61.7837C95.1402 61.7837 95.9766 62.6201 95.9653 64.0894V68H94.5299V64.3154C94.5299 63.4903 94.0891 63.0043 93.3318 63.0043C92.5633 63.0043 92.0321 63.5129 92.0321 64.4058ZM100.158 68V59.8171H101.628V63.2869H105.437V59.8171H106.917V68H105.437V64.5189H101.628V68H100.158ZM111.088 68.1243C109.234 68.1243 108.104 66.8924 108.104 64.971C108.104 63.0722 109.257 61.7837 111.009 61.7837C112.512 61.7837 113.812 62.7218 113.812 64.8805V65.3326H109.528C109.545 66.3781 110.161 66.9941 111.099 66.9941C111.732 66.9941 112.162 66.7228 112.342 66.3612H113.755C113.495 67.4236 112.512 68.1243 111.088 68.1243ZM109.539 64.3493H112.433C112.422 63.5129 111.868 62.9026 111.031 62.9026C110.161 62.9026 109.585 63.5638 109.539 64.3493ZM114.648 66.2707C114.648 64.8918 115.79 64.485 116.931 64.4171C117.355 64.3889 118.237 64.338 118.502 64.3267V63.8407C118.502 63.2304 118.107 62.88 117.395 62.88C116.75 62.88 116.355 63.1739 116.242 63.6147H114.852C114.953 62.5748 115.891 61.7837 117.429 61.7837C118.593 61.7837 119.938 62.2584 119.938 63.8972V68H118.559V67.1523H118.514C118.242 67.6722 117.666 68.1243 116.705 68.1243C115.53 68.1243 114.648 67.4801 114.648 66.2707ZM116.038 66.2594C116.038 66.7906 116.468 67.0619 117.078 67.0619C117.948 67.0619 118.514 66.4855 118.514 65.796V65.2874L117.157 65.3778C116.468 65.4344 116.038 65.7169 116.038 66.2594ZM123.577 68.113C122.13 68.113 121.045 66.9602 121.045 64.937C121.045 62.8913 122.164 61.7837 123.588 61.7837C124.673 61.7837 125.125 62.4279 125.34 62.8687H125.397V59.8171H126.832V68H125.419V67.028H125.34C125.114 67.4801 124.639 68.113 123.577 68.113ZM123.973 66.9263C124.899 66.9263 125.431 66.1238 125.431 64.9257C125.431 63.739 124.911 62.9591 123.973 62.9591C123.012 62.9591 122.515 63.7842 122.515 64.9257C122.515 66.0899 123.023 66.9263 123.973 66.9263ZM131.014 68.1243C129.16 68.1243 128.03 66.8924 128.03 64.971C128.03 63.0722 129.183 61.7837 130.935 61.7837C132.438 61.7837 133.738 62.7218 133.738 64.8805V65.3326H129.454C129.471 66.3781 130.087 66.9941 131.025 66.9941C131.658 66.9941 132.088 66.7228 132.269 66.3612H133.681C133.421 67.4236 132.438 68.1243 131.014 68.1243ZM129.466 64.3493H132.359C132.348 63.5129 131.794 62.9026 130.958 62.9026C130.087 62.9026 129.511 63.5638 129.466 64.3493ZM134.857 68V61.8628H136.258V62.88H136.326C136.541 62.1793 137.14 61.7724 137.841 61.7724C137.999 61.7724 138.225 61.7837 138.361 61.8063V63.14C138.236 63.0948 137.931 63.0495 137.694 63.0495C136.891 63.0495 136.304 63.6034 136.304 64.3832V68H134.857Z" fill="var(--sol-element-primary)"/>
<g clip-path="url(#clip1_1254_164212)">
<path d="M60.8789 88.0675C60.747 87.3028 60.1317 86.8632 59.3581 86.8632C58.312 86.8632 57.5823 87.6632 57.5823 89.1049C57.5823 90.5641 58.3208 91.3465 59.3581 91.3465C60.1141 91.3465 60.7294 90.9245 60.8789 90.1773H62.0305C61.8546 91.3992 60.8525 92.375 59.3405 92.375C57.6615 92.375 56.4307 91.1531 56.4307 89.1049C56.4307 87.0478 57.679 85.8347 59.3405 85.8347C60.747 85.8347 61.8371 86.6522 62.0305 88.0675H60.8789ZM65.0457 92.3838C63.6567 92.3838 62.7601 91.3992 62.7601 89.9224C62.7601 88.4368 63.6567 87.4522 65.0457 87.4522C66.4434 87.4522 67.3313 88.4368 67.3313 89.9224C67.3313 91.3992 66.4434 92.3838 65.0457 92.3838ZM65.0545 91.4872C65.8193 91.4872 66.1973 90.7927 66.1973 89.9136C66.1973 89.0433 65.8193 88.3401 65.0545 88.3401C64.2721 88.3401 63.8941 89.0433 63.8941 89.9136C63.8941 90.7927 64.2721 91.4872 65.0545 91.4872ZM69.3268 89.4916V92.2871H68.2016V87.5137H69.274V88.3225H69.3356C69.5553 87.7862 70.0388 87.4522 70.7509 87.4522C71.7442 87.4522 72.3948 88.1027 72.386 89.2455V92.2871H71.2695V89.4213C71.2695 88.7796 70.9267 88.4016 70.3377 88.4016C69.7399 88.4016 69.3268 88.7972 69.3268 89.4916ZM75.8407 87.5137V88.3752H74.9001V90.8542C74.9001 91.3113 75.1287 91.408 75.41 91.408C75.5418 91.408 75.7616 91.3992 75.9023 91.3905V92.3047C75.7704 92.3311 75.5506 92.3486 75.2693 92.3486C74.4254 92.3486 73.7749 91.9355 73.7837 91.0388V88.3752H73.098V87.5137H73.7837V86.3709H74.9001V87.5137H75.8407ZM78.7768 92.3838C77.3352 92.3838 76.4561 91.4256 76.4561 89.9312C76.4561 88.4543 77.3527 87.4522 78.7153 87.4522C79.8845 87.4522 80.8954 88.1818 80.8954 89.8609V90.2125H77.5637C77.5769 91.0256 78.056 91.5047 78.7856 91.5047C79.2779 91.5047 79.612 91.2938 79.7526 91.0124H80.8515C80.6493 91.8388 79.8845 92.3838 78.7768 92.3838ZM77.5725 89.4477H79.8229C79.8142 88.7972 79.3834 88.3225 78.7329 88.3225C78.056 88.3225 77.6077 88.8367 77.5725 89.4477ZM82.8909 89.4916V92.2871H81.7657V87.5137H82.8382V88.3225H82.8997C83.1195 87.7862 83.603 87.4522 84.315 87.4522C85.3084 87.4522 85.9589 88.1027 85.9501 89.2455V92.2871H84.8337V89.4213C84.8337 88.7796 84.4908 88.4016 83.9019 88.4016C83.3041 88.4016 82.8909 88.7972 82.8909 89.4916ZM89.4049 87.5137V88.3752H88.4643V90.8542C88.4643 91.3113 88.6928 91.408 88.9741 91.408C89.106 91.408 89.3258 91.3992 89.4664 91.3905V92.3047C89.3345 92.3311 89.1148 92.3486 88.8335 92.3486C87.9896 92.3486 87.339 91.9355 87.3478 91.0388V88.3752H86.6622V87.5137H87.3478V86.3709H88.4643V87.5137H89.4049Z" fill="var(--sol-element-secondary)"/>
<path d="M150.629 88.0675C150.497 87.3028 149.882 86.8632 149.108 86.8632C148.062 86.8632 147.332 87.6632 147.332 89.1049C147.332 90.5641 148.071 91.3465 149.108 91.3465C149.864 91.3465 150.479 90.9245 150.629 90.1773H151.78C151.605 91.3992 150.602 92.375 149.09 92.375C147.411 92.375 146.181 91.1531 146.181 89.1049C146.181 87.0478 147.429 85.8347 149.09 85.8347C150.497 85.8347 151.587 86.6522 151.78 88.0675H150.629ZM154.796 92.3838C153.407 92.3838 152.51 91.3992 152.51 89.9224C152.51 88.4368 153.407 87.4522 154.796 87.4522C156.193 87.4522 157.081 88.4368 157.081 89.9224C157.081 91.3992 156.193 92.3838 154.796 92.3838ZM154.804 91.4872C155.569 91.4872 155.947 90.7927 155.947 89.9136C155.947 89.0433 155.569 88.3401 154.804 88.3401C154.022 88.3401 153.644 89.0433 153.644 89.9136C153.644 90.7927 154.022 91.4872 154.804 91.4872ZM159.077 89.4916V92.2871H157.952V87.5137H159.024V88.3225H159.086C159.305 87.7862 159.789 87.4522 160.501 87.4522C161.494 87.4522 162.145 88.1027 162.136 89.2455V92.2871H161.02V89.4213C161.02 88.7796 160.677 88.4016 160.088 88.4016C159.49 88.4016 159.077 88.7972 159.077 89.4916ZM165.591 87.5137V88.3752H164.65V90.8542C164.65 91.3113 164.879 91.408 165.16 91.408C165.292 91.408 165.512 91.3992 165.652 91.3905V92.3047C165.52 92.3311 165.301 92.3486 165.019 92.3486C164.175 92.3486 163.525 91.9355 163.534 91.0388V88.3752H162.848V87.5137H163.534V86.3709H164.65V87.5137H165.591ZM168.527 92.3838C167.085 92.3838 166.206 91.4256 166.206 89.9312C166.206 88.4543 167.103 87.4522 168.465 87.4522C169.634 87.4522 170.645 88.1818 170.645 89.8609V90.2125H167.314C167.327 91.0256 167.806 91.5047 168.536 91.5047C169.028 91.5047 169.362 91.2938 169.503 91.0124H170.601C170.399 91.8388 169.634 92.3838 168.527 92.3838ZM167.323 89.4477H169.573C169.564 88.7972 169.133 88.3225 168.483 88.3225C167.806 88.3225 167.358 88.8367 167.323 89.4477ZM172.641 89.4916V92.2871H171.516V87.5137H172.588V88.3225H172.65C172.869 87.7862 173.353 87.4522 174.065 87.4522C175.058 87.4522 175.709 88.1027 175.7 89.2455V92.2871H174.584V89.4213C174.584 88.7796 174.241 88.4016 173.652 88.4016C173.054 88.4016 172.641 88.7972 172.641 89.4916ZM179.155 87.5137V88.3752H178.214V90.8542C178.214 91.3113 178.443 91.408 178.724 91.408C178.856 91.408 179.076 91.3992 179.216 91.3905V92.3047C179.085 92.3311 178.865 92.3486 178.583 92.3486C177.74 92.3486 177.089 91.9355 177.098 91.0388V88.3752H176.412V87.5137H177.098V86.3709H178.214V87.5137H179.155Z" fill="var(--sol-element-secondary)"/>
<path d="M240.379 88.0675C240.247 87.3028 239.632 86.8632 238.858 86.8632C237.812 86.8632 237.082 87.6632 237.082 89.1049C237.082 90.5641 237.821 91.3465 238.858 91.3465C239.614 91.3465 240.229 90.9245 240.379 90.1773H241.53C241.355 91.3992 240.352 92.375 238.84 92.375C237.161 92.375 235.931 91.1531 235.931 89.1049C235.931 87.0478 237.179 85.8347 238.84 85.8347C240.247 85.8347 241.337 86.6522 241.53 88.0675H240.379ZM244.546 92.3838C243.157 92.3838 242.26 91.3992 242.26 89.9224C242.26 88.4368 243.157 87.4522 244.546 87.4522C245.943 87.4522 246.831 88.4368 246.831 89.9224C246.831 91.3992 245.943 92.3838 244.546 92.3838ZM244.554 91.4872C245.319 91.4872 245.697 90.7927 245.697 89.9136C245.697 89.0433 245.319 88.3401 244.554 88.3401C243.772 88.3401 243.394 89.0433 243.394 89.9136C243.394 90.7927 243.772 91.4872 244.554 91.4872ZM248.827 89.4916V92.2871H247.702V87.5137H248.774V88.3225H248.836C249.055 87.7862 249.539 87.4522 250.251 87.4522C251.244 87.4522 251.895 88.1027 251.886 89.2455V92.2871H250.77V89.4213C250.77 88.7796 250.427 88.4016 249.838 88.4016C249.24 88.4016 248.827 88.7972 248.827 89.4916ZM255.341 87.5137V88.3752H254.4V90.8542C254.4 91.3113 254.629 91.408 254.91 91.408C255.042 91.408 255.262 91.3992 255.402 91.3905V92.3047C255.27 92.3311 255.051 92.3486 254.769 92.3486C253.925 92.3486 253.275 91.9355 253.284 91.0388V88.3752H252.598V87.5137H253.284V86.3709H254.4V87.5137H255.341ZM258.277 92.3838C256.835 92.3838 255.956 91.4256 255.956 89.9312C255.956 88.4543 256.853 87.4522 258.215 87.4522C259.384 87.4522 260.395 88.1818 260.395 89.8609V90.2125H257.064C257.077 91.0256 257.556 91.5047 258.286 91.5047C258.778 91.5047 259.112 91.2938 259.253 91.0124H260.351C260.149 91.8388 259.384 92.3838 258.277 92.3838ZM257.073 89.4477H259.323C259.314 88.7972 258.883 88.3225 258.233 88.3225C257.556 88.3225 257.108 88.8367 257.073 89.4477ZM262.391 89.4916V92.2871H261.266V87.5137H262.338V88.3225H262.4C262.619 87.7862 263.103 87.4522 263.815 87.4522C264.808 87.4522 265.459 88.1027 265.45 89.2455V92.2871H264.334V89.4213C264.334 88.7796 263.991 88.4016 263.402 88.4016C262.804 88.4016 262.391 88.7972 262.391 89.4916ZM268.905 87.5137V88.3752H267.964V90.8542C267.964 91.3113 268.193 91.408 268.474 91.408C268.606 91.408 268.826 91.3992 268.966 91.3905V92.3047C268.835 92.3311 268.615 92.3486 268.333 92.3486C267.49 92.3486 266.839 91.9355 266.848 91.0388V88.3752H266.162V87.5137H266.848V86.3709H267.964V87.5137H268.905Z" fill="var(--sol-element-secondary)"/>
<path d="M56 100.753C56 100.576 56.1439 100.432 56.3215 100.432L414.679 100.432C414.856 100.432 415 100.576 415 100.753C415 100.931 414.856 101.075 414.679 101.075L56.3215 101.075C56.144 101.075 56 100.931 56 100.753Z" fill="var(--sol-border-normal-variant)"/>
</g>
<g clip-path="url(#clip2_1254_164212)">
<path d="M61.0459 117.002C60.8613 116.123 60.1053 115.648 59.2702 115.648C58.1186 115.648 57.2219 116.536 57.2219 118.18C57.2219 119.824 58.1186 120.712 59.2702 120.712C60.1053 120.712 60.8525 120.237 61.0459 119.367H61.8371C61.6085 120.668 60.5624 121.45 59.2702 121.45C57.6351 121.45 56.4571 120.193 56.4571 118.18C56.4571 116.167 57.6351 114.91 59.2702 114.91C60.5536 114.91 61.5997 115.683 61.8371 117.002H61.0459ZM64.7995 121.459C63.4985 121.459 62.6194 120.483 62.6194 118.998C62.6194 117.512 63.4985 116.527 64.7995 116.527C66.0918 116.527 66.9621 117.512 66.9621 118.998C66.9621 120.483 66.0918 121.459 64.7995 121.459ZM64.7995 120.791C65.7577 120.791 66.2061 119.947 66.2061 118.998C66.2061 118.048 65.7577 117.195 64.7995 117.195C63.8238 117.195 63.3754 118.048 63.3754 118.998C63.3754 119.947 63.8238 120.791 64.7995 120.791ZM68.7114 118.497V121.362H67.9554V116.589H68.6851V117.336H68.7466C68.9752 116.853 69.4147 116.527 70.1443 116.527C71.1113 116.527 71.753 117.116 71.753 118.329V121.362H70.997V118.382C70.997 117.644 70.5927 117.204 69.9158 117.204C69.2213 117.204 68.7114 117.67 68.7114 118.497ZM75.0496 116.589V117.222H74.0474V119.991C74.0474 120.606 74.3463 120.703 74.6716 120.703C74.8122 120.703 75.0056 120.694 75.1199 120.685V121.389C75.0056 121.406 74.8122 121.424 74.5924 121.424C73.9595 121.424 73.2826 121.028 73.2826 120.184V117.222H72.5618V116.589H73.2826V115.446H74.0474V116.589H75.0496ZM77.9857 121.459C76.6055 121.459 75.7528 120.483 75.7528 119.015C75.7528 117.547 76.6143 116.527 77.9154 116.527C78.9175 116.527 79.9724 117.143 79.9724 118.91V119.226H76.5088C76.544 120.237 77.133 120.791 77.9857 120.791C78.5571 120.791 78.9175 120.545 79.0933 120.246H79.9021C79.6735 120.967 78.9702 121.459 77.9857 121.459ZM76.5176 118.584H79.2076C79.2076 117.784 78.6977 117.195 77.9154 117.195C77.089 117.195 76.5616 117.846 76.5176 118.584ZM81.713 118.497V121.362H80.957V116.589H81.6866V117.336H81.7481C81.9767 116.853 82.4162 116.527 83.1459 116.527C84.1128 116.527 84.7546 117.116 84.7546 118.329V121.362H83.9986V118.382C83.9986 117.644 83.5942 117.204 82.9173 117.204C82.2228 117.204 81.713 117.67 81.713 118.497ZM88.0511 116.589V117.222H87.0489V119.991C87.0489 120.606 87.3478 120.703 87.6731 120.703C87.8137 120.703 88.0071 120.694 88.1214 120.685V121.389C88.0071 121.406 87.8137 121.424 87.594 121.424C86.961 121.424 86.2842 121.028 86.2842 120.184V117.222H85.5633V116.589H86.2842V115.446H87.0489V116.589H88.0511Z" fill="var(--sol-element-secondary)"/>
<path d="M150.796 117.002C150.611 116.123 149.855 115.648 149.02 115.648C147.869 115.648 146.972 116.536 146.972 118.18C146.972 119.824 147.869 120.712 149.02 120.712C149.855 120.712 150.602 120.237 150.796 119.367H151.587C151.359 120.668 150.312 121.45 149.02 121.45C147.385 121.45 146.207 120.193 146.207 118.18C146.207 116.167 147.385 114.91 149.02 114.91C150.304 114.91 151.35 115.683 151.587 117.002H150.796ZM154.55 121.459C153.249 121.459 152.369 120.483 152.369 118.998C152.369 117.512 153.249 116.527 154.55 116.527C155.842 116.527 156.712 117.512 156.712 118.998C156.712 120.483 155.842 121.459 154.55 121.459ZM154.55 120.791C155.508 120.791 155.956 119.947 155.956 118.998C155.956 118.048 155.508 117.195 154.55 117.195C153.574 117.195 153.125 118.048 153.125 118.998C153.125 119.947 153.574 120.791 154.55 120.791ZM158.461 118.497V121.362H157.705V116.589H158.435V117.336H158.497C158.725 116.853 159.165 116.527 159.894 116.527C160.861 116.527 161.503 117.116 161.503 118.329V121.362H160.747V118.382C160.747 117.644 160.343 117.204 159.666 117.204C158.971 117.204 158.461 117.67 158.461 118.497ZM164.8 116.589V117.222H163.797V119.991C163.797 120.606 164.096 120.703 164.422 120.703C164.562 120.703 164.756 120.694 164.87 120.685V121.389C164.756 121.406 164.562 121.424 164.342 121.424C163.71 121.424 163.033 121.028 163.033 120.184V117.222H162.312V116.589H163.033V115.446H163.797V116.589H164.8ZM167.736 121.459C166.356 121.459 165.503 120.483 165.503 119.015C165.503 117.547 166.364 116.527 167.665 116.527C168.667 116.527 169.722 117.143 169.722 118.91V119.226H166.259C166.294 120.237 166.883 120.791 167.736 120.791C168.307 120.791 168.667 120.545 168.843 120.246H169.652C169.424 120.967 168.72 121.459 167.736 121.459ZM166.268 118.584H168.958C168.958 117.784 168.448 117.195 167.665 117.195C166.839 117.195 166.312 117.846 166.268 118.584ZM171.463 118.497V121.362H170.707V116.589H171.437V117.336H171.498C171.727 116.853 172.166 116.527 172.896 116.527C173.863 116.527 174.505 117.116 174.505 118.329V121.362H173.749V118.382C173.749 117.644 173.344 117.204 172.667 117.204C171.973 117.204 171.463 117.67 171.463 118.497ZM177.801 116.589V117.222H176.799V119.991C176.799 120.606 177.098 120.703 177.423 120.703C177.564 120.703 177.757 120.694 177.871 120.685V121.389C177.757 121.406 177.564 121.424 177.344 121.424C176.711 121.424 176.034 121.028 176.034 120.184V117.222H175.313V116.589H176.034V115.446H176.799V116.589H177.801Z" fill="var(--sol-element-secondary)"/>
<path d="M240.546 117.002C240.361 116.123 239.605 115.648 238.77 115.648C237.619 115.648 236.722 116.536 236.722 118.18C236.722 119.824 237.619 120.712 238.77 120.712C239.605 120.712 240.352 120.237 240.546 119.367H241.337C241.109 120.668 240.062 121.45 238.77 121.45C237.135 121.45 235.957 120.193 235.957 118.18C235.957 116.167 237.135 114.91 238.77 114.91C240.054 114.91 241.1 115.683 241.337 117.002H240.546ZM244.3 121.459C242.999 121.459 242.119 120.483 242.119 118.998C242.119 117.512 242.999 116.527 244.3 116.527C245.592 116.527 246.462 117.512 246.462 118.998C246.462 120.483 245.592 121.459 244.3 121.459ZM244.3 120.791C245.258 120.791 245.706 119.947 245.706 118.998C245.706 118.048 245.258 117.195 244.3 117.195C243.324 117.195 242.875 118.048 242.875 118.998C242.875 119.947 243.324 120.791 244.3 120.791ZM248.211 118.497V121.362H247.455V116.589H248.185V117.336H248.247C248.475 116.853 248.915 116.527 249.644 116.527C250.611 116.527 251.253 117.116 251.253 118.329V121.362H250.497V118.382C250.497 117.644 250.093 117.204 249.416 117.204C248.721 117.204 248.211 117.67 248.211 118.497ZM254.55 116.589V117.222H253.547V119.991C253.547 120.606 253.846 120.703 254.172 120.703C254.312 120.703 254.506 120.694 254.62 120.685V121.389C254.506 121.406 254.312 121.424 254.092 121.424C253.46 121.424 252.783 121.028 252.783 120.184V117.222H252.062V116.589H252.783V115.446H253.547V116.589H254.55ZM257.486 121.459C256.106 121.459 255.253 120.483 255.253 119.015C255.253 117.547 256.114 116.527 257.415 116.527C258.417 116.527 259.472 117.143 259.472 118.91V119.226H256.009C256.044 120.237 256.633 120.791 257.486 120.791C258.057 120.791 258.417 120.545 258.593 120.246H259.402C259.174 120.967 258.47 121.459 257.486 121.459ZM256.018 118.584H258.708C258.708 117.784 258.198 117.195 257.415 117.195C256.589 117.195 256.062 117.846 256.018 118.584ZM261.213 118.497V121.362H260.457V116.589H261.187V117.336H261.248C261.477 116.853 261.916 116.527 262.646 116.527C263.613 116.527 264.255 117.116 264.255 118.329V121.362H263.499V118.382C263.499 117.644 263.094 117.204 262.417 117.204C261.723 117.204 261.213 117.67 261.213 118.497ZM267.551 116.589V117.222H266.549V119.991C266.549 120.606 266.848 120.703 267.173 120.703C267.314 120.703 267.507 120.694 267.621 120.685V121.389C267.507 121.406 267.314 121.424 267.094 121.424C266.461 121.424 265.784 121.028 265.784 120.184V117.222H265.063V116.589H265.784V115.446H266.549V116.589H267.551Z" fill="var(--sol-element-secondary)"/>
<path d="M56 140.114C56 139.937 56.1439 139.793 56.3215 139.793L414.679 139.793C414.856 139.793 415 139.937 415 140.114C415 140.292 414.856 140.436 414.679 140.436L56.3215 140.436C56.144 140.436 56 140.292 56 140.114Z" fill="var(--sol-border-normal-variant)"/>
</g>
<g clip-path="url(#clip3_1254_164212)">
<path d="M61.0459 156.364C60.8613 155.485 60.1053 155.011 59.2702 155.011C58.1186 155.011 57.2219 155.898 57.2219 157.542C57.2219 159.186 58.1186 160.074 59.2702 160.074C60.1053 160.074 60.8525 159.599 61.0459 158.729H61.8371C61.6085 160.03 60.5624 160.813 59.2702 160.813C57.6351 160.813 56.4571 159.555 56.4571 157.542C56.4571 155.529 57.6351 154.272 59.2702 154.272C60.5536 154.272 61.5997 155.046 61.8371 156.364H61.0459ZM64.7995 160.821C63.4985 160.821 62.6194 159.846 62.6194 158.36C62.6194 156.874 63.4985 155.89 64.7995 155.89C66.0918 155.89 66.9621 156.874 66.9621 158.36C66.9621 159.846 66.0918 160.821 64.7995 160.821ZM64.7995 160.153C65.7577 160.153 66.2061 159.309 66.2061 158.36C66.2061 157.41 65.7577 156.558 64.7995 156.558C63.8238 156.558 63.3754 157.41 63.3754 158.36C63.3754 159.309 63.8238 160.153 64.7995 160.153ZM68.7114 157.859V160.725H67.9554V155.951H68.6851V156.698H68.7466C68.9752 156.215 69.4147 155.89 70.1443 155.89C71.1113 155.89 71.753 156.479 71.753 157.692V160.725H70.997V157.745C70.997 157.006 70.5927 156.567 69.9158 156.567C69.2213 156.567 68.7114 157.032 68.7114 157.859ZM75.0496 155.951V156.584H74.0474V159.353C74.0474 159.969 74.3463 160.065 74.6716 160.065C74.8122 160.065 75.0056 160.057 75.1199 160.048V160.751C75.0056 160.769 74.8122 160.786 74.5924 160.786C73.9595 160.786 73.2826 160.391 73.2826 159.547V156.584H72.5618V155.951H73.2826V154.808H74.0474V155.951H75.0496ZM77.9857 160.821C76.6055 160.821 75.7528 159.846 75.7528 158.377C75.7528 156.909 76.6143 155.89 77.9154 155.89C78.9175 155.89 79.9724 156.505 79.9724 158.272V158.588H76.5088C76.544 159.599 77.133 160.153 77.9857 160.153C78.5571 160.153 78.9175 159.907 79.0933 159.608H79.9021C79.6735 160.329 78.9702 160.821 77.9857 160.821ZM76.5176 157.947H79.2076C79.2076 157.147 78.6977 156.558 77.9154 156.558C77.089 156.558 76.5616 157.208 76.5176 157.947ZM81.713 157.859V160.725H80.957V155.951H81.6866V156.698H81.7481C81.9767 156.215 82.4162 155.89 83.1459 155.89C84.1128 155.89 84.7546 156.479 84.7546 157.692V160.725H83.9986V157.745C83.9986 157.006 83.5942 156.567 82.9173 156.567C82.2228 156.567 81.713 157.032 81.713 157.859ZM88.0511 155.951V156.584H87.0489V159.353C87.0489 159.969 87.3478 160.065 87.6731 160.065C87.8137 160.065 88.0071 160.057 88.1214 160.048V160.751C88.0071 160.769 87.8137 160.786 87.594 160.786C86.961 160.786 86.2842 160.391 86.2842 159.547V156.584H85.5633V155.951H86.2842V154.808H87.0489V155.951H88.0511Z" fill="var(--sol-element-secondary)"/>
<path d="M150.796 156.364C150.611 155.485 149.855 155.011 149.02 155.011C147.869 155.011 146.972 155.898 146.972 157.542C146.972 159.186 147.869 160.074 149.02 160.074C149.855 160.074 150.602 159.599 150.796 158.729H151.587C151.359 160.03 150.312 160.813 149.02 160.813C147.385 160.813 146.207 159.555 146.207 157.542C146.207 155.529 147.385 154.272 149.02 154.272C150.304 154.272 151.35 155.046 151.587 156.364H150.796ZM154.55 160.821C153.249 160.821 152.369 159.846 152.369 158.36C152.369 156.874 153.249 155.89 154.55 155.89C155.842 155.89 156.712 156.874 156.712 158.36C156.712 159.846 155.842 160.821 154.55 160.821ZM154.55 160.153C155.508 160.153 155.956 159.309 155.956 158.36C155.956 157.41 155.508 156.558 154.55 156.558C153.574 156.558 153.125 157.41 153.125 158.36C153.125 159.309 153.574 160.153 154.55 160.153ZM158.461 157.859V160.725H157.705V155.951H158.435V156.698H158.497C158.725 156.215 159.165 155.89 159.894 155.89C160.861 155.89 161.503 156.479 161.503 157.692V160.725H160.747V157.745C160.747 157.006 160.343 156.567 159.666 156.567C158.971 156.567 158.461 157.032 158.461 157.859ZM164.8 155.951V156.584H163.797V159.353C163.797 159.969 164.096 160.065 164.422 160.065C164.562 160.065 164.756 160.057 164.87 160.048V160.751C164.756 160.769 164.562 160.786 164.342 160.786C163.71 160.786 163.033 160.391 163.033 159.547V156.584H162.312V155.951H163.033V154.808H163.797V155.951H164.8ZM167.736 160.821C166.356 160.821 165.503 159.846 165.503 158.377C165.503 156.909 166.364 155.89 167.665 155.89C168.667 155.89 169.722 156.505 169.722 158.272V158.588H166.259C166.294 159.599 166.883 160.153 167.736 160.153C168.307 160.153 168.667 159.907 168.843 159.608H169.652C169.424 160.329 168.72 160.821 167.736 160.821ZM166.268 157.947H168.958C168.958 157.147 168.448 156.558 167.665 156.558C166.839 156.558 166.312 157.208 166.268 157.947ZM171.463 157.859V160.725H170.707V155.951H171.437V156.698H171.498C171.727 156.215 172.166 155.89 172.896 155.89C173.863 155.89 174.505 156.479 174.505 157.692V160.725H173.749V157.745C173.749 157.006 173.344 156.567 172.667 156.567C171.973 156.567 171.463 157.032 171.463 157.859ZM177.801 155.951V156.584H176.799V159.353C176.799 159.969 177.098 160.065 177.423 160.065C177.564 160.065 177.757 160.057 177.871 160.048V160.751C177.757 160.769 177.564 160.786 177.344 160.786C176.711 160.786 176.034 160.391 176.034 159.547V156.584H175.313V155.951H176.034V154.808H176.799V155.951H177.801Z" fill="var(--sol-element-secondary)"/>
<path d="M240.546 156.364C240.361 155.485 239.605 155.011 238.77 155.011C237.619 155.011 236.722 155.898 236.722 157.542C236.722 159.186 237.619 160.074 238.77 160.074C239.605 160.074 240.352 159.599 240.546 158.729H241.337C241.109 160.03 240.062 160.813 238.77 160.813C237.135 160.813 235.957 159.555 235.957 157.542C235.957 155.529 237.135 154.272 238.77 154.272C240.054 154.272 241.1 155.046 241.337 156.364H240.546ZM244.3 160.821C242.999 160.821 242.119 159.846 242.119 158.36C242.119 156.874 242.999 155.89 244.3 155.89C245.592 155.89 246.462 156.874 246.462 158.36C246.462 159.846 245.592 160.821 244.3 160.821ZM244.3 160.153C245.258 160.153 245.706 159.309 245.706 158.36C245.706 157.41 245.258 156.558 244.3 156.558C243.324 156.558 242.875 157.41 242.875 158.36C242.875 159.309 243.324 160.153 244.3 160.153ZM248.211 157.859V160.725H247.455V155.951H248.185V156.698H248.247C248.475 156.215 248.915 155.89 249.644 155.89C250.611 155.89 251.253 156.479 251.253 157.692V160.725H250.497V157.745C250.497 157.006 250.093 156.567 249.416 156.567C248.721 156.567 248.211 157.032 248.211 157.859ZM254.55 155.951V156.584H253.547V159.353C253.547 159.969 253.846 160.065 254.172 160.065C254.312 160.065 254.506 160.057 254.62 160.048V160.751C254.506 160.769 254.312 160.786 254.092 160.786C253.46 160.786 252.783 160.391 252.783 159.547V156.584H252.062V155.951H252.783V154.808H253.547V155.951H254.55ZM257.486 160.821C256.106 160.821 255.253 159.846 255.253 158.377C255.253 156.909 256.114 155.89 257.415 155.89C258.417 155.89 259.472 156.505 259.472 158.272V158.588H256.009C256.044 159.599 256.633 160.153 257.486 160.153C258.057 160.153 258.417 159.907 258.593 159.608H259.402C259.174 160.329 258.47 160.821 257.486 160.821ZM256.018 157.947H258.708C258.708 157.147 258.198 156.558 257.415 156.558C256.589 156.558 256.062 157.208 256.018 157.947ZM261.213 157.859V160.725H260.457V155.951H261.187V156.698H261.248C261.477 156.215 261.916 155.89 262.646 155.89C263.613 155.89 264.255 156.479 264.255 157.692V160.725H263.499V157.745C263.499 157.006 263.094 156.567 262.417 156.567C261.723 156.567 261.213 157.032 261.213 157.859ZM267.551 155.951V156.584H266.549V159.353C266.549 159.969 266.848 160.065 267.173 160.065C267.314 160.065 267.507 160.057 267.621 160.048V160.751C267.507 160.769 267.314 160.786 267.094 160.786C266.461 160.786 265.784 160.391 265.784 159.547V156.584H265.063V155.951H265.784V154.808H266.549V155.951H267.551Z" fill="var(--sol-element-secondary)"/>
<path d="M56 179.478C56 179.3 56.1439 179.156 56.3215 179.156L414.679 179.156C414.856 179.156 415 179.3 415 179.478C415 179.655 414.856 179.799 414.679 179.799L56.3215 179.799C56.144 179.799 56 179.655 56 179.478Z" fill="var(--sol-border-normal-variant)"/>
</g>
</g>
</g>
<defs>
<filter id="filter0_dd_1254_164212" x="32" y="36" width="407" height="289.886" filterUnits="userSpaceOnUse" color-interpolation-filters="sRGB">
<feFlood flood-opacity="0" result="BackgroundImageFix"/>
<feColorMatrix in="SourceAlpha" type="matrix" values="0 0 0 0 0 0 0 0 0 0 0 0 0 0 0 0 0 0 127 0" result="hardAlpha"/>
<feOffset dy="4"/>
<feGaussianBlur stdDeviation="4"/>
<feComposite in2="hardAlpha" operator="out"/>
<feColorMatrix type="matrix" values="0 0 0 0 0 0 0 0 0 0 0 0 0 0 0 0 0 0 0.08 0"/>
<feBlend mode="normal" in2="BackgroundImageFix" result="effect1_dropShadow_1254_164212"/>
<feColorMatrix in="SourceAlpha" type="matrix" values="0 0 0 0 0 0 0 0 0 0 0 0 0 0 0 0 0 0 127 0" result="hardAlpha"/>
<feOffset/>
<feGaussianBlur stdDeviation="0.5"/>
<feComposite in2="hardAlpha" operator="out"/>
<feColorMatrix type="matrix" values="0 0 0 0 0 0 0 0 0 0 0 0 0 0 0 0 0 0 0.08 0"/>
<feBlend mode="normal" in2="effect1_dropShadow_1254_164212" result="effect2_dropShadow_1254_164212"/>
<feBlend mode="normal" in="SourceGraphic" in2="effect2_dropShadow_1254_164212" result="shape"/>
</filter>
<linearGradient id="paint0_linear_1254_164212" x1="259.531" y1="192" x2="259.531" y2="140" gradientUnits="userSpaceOnUse">
<stop stop-opacity="0.04"/>
<stop offset="1" stop-color="var(--sol-surface)" stop-opacity="0"/>
</linearGradient>
<clipPath id="clip0_1254_164212">
<rect width="288" height="192" fill="var(--sol-surface)"/>
</clipPath>
<clipPath id="clip1_1254_164212">
<rect width="359" height="23.9307" fill="var(--sol-surface)" transform="translate(56 77.1436)"/>
</clipPath>
<clipPath id="clip2_1254_164212">
<rect width="359" height="39.3622" fill="var(--sol-surface)" transform="translate(56 101.074)"/>
</clipPath>
<clipPath id="clip3_1254_164212">
<rect width="359" height="39.3622" fill="var(--sol-surface)" transform="translate(56 140.437)"/>
</clipPath>
</defs>
</svg>
