<svg width="288" height="192" viewBox="0 0 288 192" fill="none" xmlns="http://www.w3.org/2000/svg">
<style>
:root {
  --sol-primary: #282363;
  --sol-element-brand-variant: #3a3480;
  --sol-fill-active: #4d469a;
  --sol-selected-container-variant: #f5f4fd;
  --sol-surface: #ffffff;
  --sol-surface-base-variant: #f5f5f5;
  --sol-secondary-container: #e8e6f8;
  --sol-element-primary: #161616;
  --sol-element-secondary: #484848;
  --sol-element-tertiary: #636363;
  --sol-element-quaternary: #858585;
  --sol-border-brand: #7b74c4;
  --sol-border-normal-variant: rgba(0, 0, 0, 0.08);
  --sol-border-solid-variant: #e0e0e0;
  --sol-border-solid: #d0d0d0;
  --sol-error: #e76067;
  --sol-error-container: #fdeaeb;
  --sol-static-white: #ffffff;
  --sol-static-black: #000000;
  --color-brand-400: #6058b4;
  --color-teal-500: #05a09a;
  --color-green-500: #35a142;
  --color-yellow-500: #d4ae00;
  --color-orange-500: #e06418;
  --color-blue-500: #3e9bca;
  --color-indigo-500: #3d5ed6;
  --color-pink-500: #d03e94;
}
@media (prefers-color-scheme: dark) {
  :root {
    --sol-primary: #9791d4;
    --sol-element-brand-variant: #ffffff;
    --sol-fill-active: #7b74c4;
    --sol-selected-container-variant: rgba(0, 0, 0, 0.08);
    --sol-surface: #161616;
    --sol-surface-base-variant: #1c1c1c;
    --sol-secondary-container: rgba(255, 255, 255, 0.16);
    --sol-element-primary: #ffffff;
    --sol-element-secondary: rgba(255, 255, 255, 0.8);
    --sol-element-tertiary: rgba(255, 255, 255, 0.6);
    --sol-element-quaternary: rgba(255, 255, 255, 0.5);
    --sol-border-brand: #7b74c4;
    --sol-border-normal-variant: rgba(255, 255, 255, 0.08);
    --sol-border-solid-variant: #3d3d3d;
    --sol-border-solid: #333333;
    --sol-error: #ee7a80;
    --sol-error-container: rgba(231, 96, 103, 0.24);
    --sol-static-white: #ffffff;
    --sol-static-black: #000000;
  }
}
</style>
<g clip-path="url(#clip0_1240_154629)">
<rect x="80" y="80" width="52" height="32" rx="16" fill="var(--sol-element-primary)" fill-opacity="0.24"/>
<rect x="83" y="83" width="26" height="26" rx="13" fill="var(--sol-surface)"/>
<path d="M101.12 91.9395L97.0609 95.9987L101.12 100.059L100.06 101.119L95.9997 97.0599L91.9404 101.119L90.8799 100.059L94.9385 95.9987L90.8799 91.9395L91.9404 90.8789L95.9997 94.9375L100.06 90.8789L101.12 91.9395Z" fill="var(--sol-element-quaternary)"/>
</g>
<g clip-path="url(#clip1_1240_154629)">
<rect x="156" y="80" width="52" height="32" rx="16" fill="var(--sol-fill-active)"/>
<rect x="179" y="83" width="26" height="26" rx="13" fill="var(--sol-surface)"/>
<path d="M198.056 92.7207L190.657 100.12C190.364 100.413 189.89 100.413 189.597 100.12L185.944 96.4674L187.005 95.4069L190.127 98.5286L196.996 91.6602L198.056 92.7207Z" fill="var(--sol-element-brand-variant)"/>
</g>
<defs>
<clipPath id="clip0_1240_154629">
<rect x="80" y="80" width="52" height="32" rx="16" fill="var(--sol-surface)"/>
</clipPath>
<clipPath id="clip1_1240_154629">
<rect x="156" y="80" width="52" height="32" rx="16" fill="var(--sol-surface)"/>
</clipPath>
</defs>
</svg>
