<svg width="288" height="192" viewBox="0 0 288 192" fill="none" xmlns="http://www.w3.org/2000/svg">
<style>
:root {
  --sol-primary: #282363;
  --sol-element-brand-variant: #3a3480;
  --sol-fill-active: #4d469a;
  --sol-selected-container-variant: #f5f4fd;
  --sol-surface: #ffffff;
  --sol-surface-base-variant: #f5f5f5;
  --sol-secondary-container: #e8e6f8;
  --sol-element-primary: #161616;
  --sol-element-secondary: #484848;
  --sol-element-tertiary: #636363;
  --sol-element-quaternary: #858585;
  --sol-border-brand: #7b74c4;
  --sol-border-normal-variant: rgba(0, 0, 0, 0.08);
  --sol-border-solid-variant: #e0e0e0;
  --sol-border-solid: #d0d0d0;
  --sol-error: #e76067;
  --sol-error-container: #fdeaeb;
  --sol-static-white: #ffffff;
  --sol-static-black: #000000;
  --color-brand-400: #6058b4;
  --color-teal-500: #05a09a;
  --color-green-500: #35a142;
  --color-yellow-500: #d4ae00;
  --color-orange-500: #e06418;
  --color-blue-500: #3e9bca;
  --color-indigo-500: #3d5ed6;
  --color-pink-500: #d03e94;
}
@media (prefers-color-scheme: dark) {
  :root {
    --sol-primary: #9791d4;
    --sol-element-brand-variant: #ffffff;
    --sol-fill-active: #7b74c4;
    --sol-selected-container-variant: rgba(0, 0, 0, 0.08);
    --sol-surface: #161616;
    --sol-surface-base-variant: #1c1c1c;
    --sol-secondary-container: rgba(255, 255, 255, 0.16);
    --sol-element-primary: #ffffff;
    --sol-element-secondary: rgba(255, 255, 255, 0.8);
    --sol-element-tertiary: rgba(255, 255, 255, 0.6);
    --sol-element-quaternary: rgba(255, 255, 255, 0.5);
    --sol-border-brand: #7b74c4;
    --sol-border-normal-variant: rgba(255, 255, 255, 0.08);
    --sol-border-solid-variant: #3d3d3d;
    --sol-border-solid: #333333;
    --sol-error: #ee7a80;
    --sol-error-container: rgba(231, 96, 103, 0.24);
    --sol-static-white: #ffffff;
    --sol-static-black: #000000;
  }
}
</style>
<g clip-path="url(#clip0_1248_158577)">
<rect width="580" height="173" transform="translate(-2 29)" fill="var(--sol-surface)"/>
<g clip-path="url(#clip1_1248_158577)">
<rect width="580" height="48" transform="translate(-2 29)" fill="var(--sol-surface)"/>
<path d="M36.2588 49.0918V47.6016H44.1475V49.0918H41.0986V57.5H39.3213V49.0918H36.2588ZM44.1201 55.4082C44.1201 53.7402 45.501 53.248 46.8818 53.166C47.3945 53.1318 48.4609 53.0703 48.7822 53.0566V52.4688C48.7822 51.7305 48.3037 51.3066 47.4424 51.3066C46.6631 51.3066 46.1846 51.6621 46.0479 52.1953H44.3662C44.4893 50.9375 45.624 49.9805 47.4834 49.9805C48.8916 49.9805 50.5186 50.5547 50.5186 52.5371V57.5H48.8506V56.4746H48.7959C48.4678 57.1035 47.7705 57.6504 46.6084 57.6504C45.1865 57.6504 44.1201 56.8711 44.1201 55.4082ZM45.8018 55.3945C45.8018 56.0371 46.3213 56.3652 47.0596 56.3652C48.1123 56.3652 48.7959 55.668 48.7959 54.834V54.2188L47.1553 54.3281C46.3213 54.3965 45.8018 54.7383 45.8018 55.3945ZM52.2412 57.5V47.6016H53.9912V51.293H54.0596C54.333 50.7598 54.8662 49.9805 56.1787 49.9805C57.9014 49.9805 59.2549 51.3203 59.2549 53.7949C59.2549 56.2422 57.9287 57.6367 56.1924 57.6367C54.9072 57.6367 54.333 56.8711 54.0596 56.3242H53.9502V57.5H52.2412ZM53.9502 53.7812C53.9502 55.2305 54.5791 56.2012 55.7002 56.2012C56.8623 56.2012 57.4775 55.1895 57.4775 53.7812C57.4775 52.4004 56.876 51.4023 55.7002 51.4023C54.5791 51.4023 53.9502 52.3457 53.9502 53.7812Z" fill="var(--sol-primary)"/>
<rect x="22" y="74.5" width="53" height="2" fill="var(--sol-primary)"/>
<path d="M97.3867 48.6953V47.6016H104.852V48.6953H101.748V57.5H100.504V48.6953H97.3867ZM104.988 55.3945C104.988 53.6855 106.492 53.3027 107.777 53.207C108.249 53.1729 109.452 53.1113 109.787 53.0977V52.4961C109.787 51.5527 109.227 51.0059 108.105 51.0059C107.162 51.0059 106.602 51.4434 106.438 52.0039H105.207C105.357 50.8145 106.52 49.9805 108.16 49.9805C109.131 49.9805 110.949 50.2676 110.949 52.6055V57.5H109.787V56.4883H109.732C109.486 56.9941 108.803 57.6777 107.518 57.6777C106.109 57.6777 104.988 56.8438 104.988 55.3945ZM106.164 55.4492C106.164 56.2285 106.82 56.625 107.723 56.625C109.049 56.625 109.787 55.7363 109.787 54.8066V54.0547L107.914 54.1914C106.848 54.2598 106.164 54.6426 106.164 55.4492ZM112.986 57.5V47.6016H114.162V51.252H114.258C114.518 50.8555 114.955 49.9805 116.404 49.9805C118.264 49.9805 119.576 51.457 119.576 53.8086C119.576 56.1602 118.264 57.6504 116.418 57.6504C114.996 57.6504 114.518 56.7754 114.258 56.3652H114.121V57.5H112.986ZM114.135 53.7812C114.135 55.4492 114.887 56.5977 116.24 56.5977C117.648 56.5977 118.387 55.3672 118.387 53.7812C118.387 52.2363 117.676 51.0332 116.24 51.0332C114.873 51.0332 114.135 52.1406 114.135 53.7812Z" fill="var(--sol-element-quaternary)"/>
<path d="M157.947 48.6953V47.6016H165.412V48.6953H162.309V57.5H161.064V48.6953H157.947ZM165.549 55.3945C165.549 53.6855 167.053 53.3027 168.338 53.207C168.81 53.1729 170.013 53.1113 170.348 53.0977V52.4961C170.348 51.5527 169.787 51.0059 168.666 51.0059C167.723 51.0059 167.162 51.4434 166.998 52.0039H165.768C165.918 50.8145 167.08 49.9805 168.721 49.9805C169.691 49.9805 171.51 50.2676 171.51 52.6055V57.5H170.348V56.4883H170.293C170.047 56.9941 169.363 57.6777 168.078 57.6777C166.67 57.6777 165.549 56.8438 165.549 55.3945ZM166.725 55.4492C166.725 56.2285 167.381 56.625 168.283 56.625C169.609 56.625 170.348 55.7363 170.348 54.8066V54.0547L168.475 54.1914C167.408 54.2598 166.725 54.6426 166.725 55.4492ZM173.547 57.5V47.6016H174.723V51.252H174.818C175.078 50.8555 175.516 49.9805 176.965 49.9805C178.824 49.9805 180.137 51.457 180.137 53.8086C180.137 56.1602 178.824 57.6504 176.979 57.6504C175.557 57.6504 175.078 56.7754 174.818 56.3652H174.682V57.5H173.547ZM174.695 53.7812C174.695 55.4492 175.447 56.5977 176.801 56.5977C178.209 56.5977 178.947 55.3672 178.947 53.7812C178.947 52.2363 178.236 51.0332 176.801 51.0332C175.434 51.0332 174.695 52.1406 174.695 53.7812Z" fill="var(--sol-element-quaternary)"/>
<path d="M218.507 48.6953V47.6016H225.972V48.6953H222.868V57.5H221.624V48.6953H218.507ZM226.108 55.3945C226.108 53.6855 227.612 53.3027 228.897 53.207C229.369 53.1729 230.572 53.1113 230.907 53.0977V52.4961C230.907 51.5527 230.347 51.0059 229.226 51.0059C228.282 51.0059 227.722 51.4434 227.558 52.0039H226.327C226.478 50.8145 227.64 49.9805 229.28 49.9805C230.251 49.9805 232.069 50.2676 232.069 52.6055V57.5H230.907V56.4883H230.853C230.606 56.9941 229.923 57.6777 228.638 57.6777C227.229 57.6777 226.108 56.8438 226.108 55.3945ZM227.284 55.4492C227.284 56.2285 227.94 56.625 228.843 56.625C230.169 56.625 230.907 55.7363 230.907 54.8066V54.0547L229.034 54.1914C227.968 54.2598 227.284 54.6426 227.284 55.4492ZM234.106 57.5V47.6016H235.282V51.252H235.378C235.638 50.8555 236.075 49.9805 237.524 49.9805C239.384 49.9805 240.696 51.457 240.696 53.8086C240.696 56.1602 239.384 57.6504 237.538 57.6504C236.116 57.6504 235.638 56.7754 235.378 56.3652H235.241V57.5H234.106ZM235.255 53.7812C235.255 55.4492 236.007 56.5977 237.36 56.5977C238.769 56.5977 239.507 55.3672 239.507 53.7812C239.507 52.2363 238.796 51.0332 237.36 51.0332C235.993 51.0332 235.255 52.1406 235.255 53.7812Z" fill="var(--sol-element-quaternary)"/>
<path d="M279.067 48.6953V47.6016H286.532V48.6953H283.429V57.5H282.185V48.6953H279.067ZM286.669 55.3945C286.669 53.6855 288.173 53.3027 289.458 53.207C289.93 53.1729 291.133 53.1113 291.468 53.0977V52.4961C291.468 51.5527 290.907 51.0059 289.786 51.0059C288.843 51.0059 288.282 51.4434 288.118 52.0039H286.888C287.038 50.8145 288.2 49.9805 289.841 49.9805C290.812 49.9805 292.63 50.2676 292.63 52.6055V57.5H291.468V56.4883H291.413C291.167 56.9941 290.483 57.6777 289.198 57.6777C287.79 57.6777 286.669 56.8438 286.669 55.3945ZM287.845 55.4492C287.845 56.2285 288.501 56.625 289.403 56.625C290.729 56.625 291.468 55.7363 291.468 54.8066V54.0547L289.595 54.1914C288.528 54.2598 287.845 54.6426 287.845 55.4492ZM294.667 57.5V47.6016H295.843V51.252H295.938C296.198 50.8555 296.636 49.9805 298.085 49.9805C299.944 49.9805 301.257 51.457 301.257 53.8086C301.257 56.1602 299.944 57.6504 298.099 57.6504C296.677 57.6504 296.198 56.7754 295.938 56.3652H295.802V57.5H294.667ZM295.815 53.7812C295.815 55.4492 296.567 56.5977 297.921 56.5977C299.329 56.5977 300.067 55.3672 300.067 53.7812C300.067 52.2363 299.356 51.0332 297.921 51.0332C296.554 51.0332 295.815 52.1406 295.815 53.7812Z" fill="var(--sol-element-quaternary)"/>
<rect width="580" height="0.999991" transform="translate(-2 76)" fill="var(--sol-border-solid-variant)"/>
</g>
<path d="M22 106C22 104.343 23.3431 103 25 103H173C174.657 103 176 104.343 176 106V125C176 126.657 174.657 128 173 128H25C23.3431 128 22 126.657 22 125V106Z" fill="var(--sol-element-primary)" fill-opacity="0.08"/>
<path d="M22 145C22 143.343 23.3431 142 25 142H551C552.657 142 554 143.343 554 145V164C554 165.657 552.657 167 551 167H25C23.3431 167 22 165.657 22 164V145Z" fill="var(--sol-element-primary)" fill-opacity="0.08"/>
<rect y="140" width="302" height="52" fill="url(#paint0_linear_1248_158577)"/>
</g>
<defs>
<linearGradient id="paint0_linear_1248_158577" x1="259.531" y1="192" x2="259.531" y2="140" gradientUnits="userSpaceOnUse">
<stop stop-opacity="0.04"/>
<stop offset="1" stop-color="var(--sol-surface)" stop-opacity="0"/>
</linearGradient>
<clipPath id="clip0_1248_158577">
<rect width="288" height="192" fill="var(--sol-surface)"/>
</clipPath>
<clipPath id="clip1_1248_158577">
<rect width="580" height="48" fill="var(--sol-surface)" transform="translate(-2 29)"/>
</clipPath>
</defs>
</svg>
