<svg width="288" height="192" viewBox="0 0 288 192" fill="none" xmlns="http://www.w3.org/2000/svg">
<style>
:root {
  --sol-primary: #282363;
  --sol-element-brand-variant: #3a3480;
  --sol-fill-active: #4d469a;
  --sol-selected-container-variant: #f5f4fd;
  --sol-surface: #ffffff;
  --sol-surface-base-variant: #f5f5f5;
  --sol-secondary-container: #e8e6f8;
  --sol-element-primary: #161616;
  --sol-element-secondary: #484848;
  --sol-element-tertiary: #636363;
  --sol-element-quaternary: #858585;
  --sol-border-brand: #7b74c4;
  --sol-border-normal-variant: rgba(0, 0, 0, 0.08);
  --sol-border-solid-variant: #e0e0e0;
  --sol-border-solid: #d0d0d0;
  --sol-error: #e76067;
  --sol-error-container: #fdeaeb;
  --sol-static-white: #ffffff;
  --sol-static-black: #000000;
  --color-brand-400: #6058b4;
  --color-teal-500: #05a09a;
  --color-green-500: #35a142;
  --color-yellow-500: #d4ae00;
  --color-orange-500: #e06418;
  --color-blue-500: #3e9bca;
  --color-indigo-500: #3d5ed6;
  --color-pink-500: #d03e94;
}
@media (prefers-color-scheme: dark) {
  :root {
    --sol-primary: #9791d4;
    --sol-element-brand-variant: #ffffff;
    --sol-fill-active: #7b74c4;
    --sol-selected-container-variant: rgba(0, 0, 0, 0.08);
    --sol-surface: #161616;
    --sol-surface-base-variant: #1c1c1c;
    --sol-secondary-container: rgba(255, 255, 255, 0.16);
    --sol-element-primary: #ffffff;
    --sol-element-secondary: rgba(255, 255, 255, 0.8);
    --sol-element-tertiary: rgba(255, 255, 255, 0.6);
    --sol-element-quaternary: rgba(255, 255, 255, 0.5);
    --sol-border-brand: #7b74c4;
    --sol-border-normal-variant: rgba(255, 255, 255, 0.08);
    --sol-border-solid-variant: #3d3d3d;
    --sol-border-solid: #333333;
    --sol-error: #ee7a80;
    --sol-error-container: rgba(231, 96, 103, 0.24);
    --sol-static-white: #ffffff;
    --sol-static-black: #000000;
  }
}
</style>
<g clip-path="url(#clip0_1240_147137)">
<g filter="url(#filter0_dd_1240_147137)">
<g clip-path="url(#clip1_1240_147137)">
<g clip-path="url(#clip2_1240_147137)">
<rect x="40" y="40" width="346" height="404.24" rx="4" fill="var(--sol-surface)"/>
<g clip-path="url(#clip3_1240_147137)">
<rect width="346" height="404.24" transform="translate(40 40)" fill="var(--sol-surface)"/>
<rect width="449.423" height="30" transform="translate(40 40)" fill="var(--sol-surface)"/>
<path d="M48.4024 58.5H47.1494L49.4481 51.9736H50.8904L53.1981 58.5H51.9451L51.4042 56.8864H48.9433L48.4024 58.5ZM49.2588 55.9399H51.0887L50.1963 53.3077H50.1422L49.2588 55.9399ZM55.0731 51.9736V58.5H53.9192V51.9736H55.0731ZM57.3267 51.9736V58.5H56.1729V51.9736H57.3267Z" fill="var(--sol-element-tertiary)"/>
<path d="M62.233 58.5V57.6526L64.5407 55.4261C65.1988 54.768 65.5413 54.3804 65.5413 53.8305C65.5413 53.2266 65.0636 52.8389 64.4235 52.8389C63.7474 52.8389 63.3148 53.2626 63.3238 53.9207H62.206C62.197 52.6857 63.1255 51.8834 64.4325 51.8834C65.7667 51.8834 66.6681 52.6767 66.6681 53.7764C66.6681 54.5156 66.3075 55.1106 65.0275 56.3185L63.8646 57.4724V57.5174H66.7673V58.5H62.233ZM67.5425 57.2831V56.3456L70.364 51.9736H71.8244V56.3185H72.6807V57.2831H71.8244V58.5H70.7066V57.2831H67.5425ZM68.7414 56.3185H70.7246V53.3077H70.6525L68.7414 56.2734V56.3185Z" fill="var(--sol-primary)"/>
<path d="M80.3076 51.8275C80.3076 51.6682 80.4368 51.5391 80.5961 51.5391C80.7554 51.5391 80.8845 51.6682 80.8845 51.8275L80.8845 58.1737C80.8845 58.333 80.7554 58.4621 80.5961 58.4621C80.4368 58.4621 80.3076 58.333 80.3076 58.1737L80.3076 51.8275Z" fill="var(--sol-border-solid-variant)"/>
<path d="M90.7283 51.9736V58.5H89.908V52.8209H89.8719L88.2854 53.8756V53.0553L89.908 51.9736H90.7283ZM94.6045 58.5901C93.1532 58.5901 92.3238 57.3732 92.3238 55.2368C92.3238 53.1184 93.1712 51.8834 94.6045 51.8834C96.0378 51.8834 96.8851 53.1184 96.8851 55.2368C96.8851 57.3732 96.0468 58.5901 94.6045 58.5901ZM94.6045 57.869C95.542 57.869 96.0919 56.9225 96.0919 55.2368C96.0919 53.5511 95.542 52.5865 94.6045 52.5865C93.667 52.5865 93.1081 53.5511 93.1081 55.2368C93.1081 56.9225 93.658 57.869 94.6045 57.869ZM100.293 60.3389V53.6052H101.041V54.3804H101.131C101.293 54.119 101.6 53.5421 102.546 53.5421C103.772 53.5421 104.629 54.5156 104.629 56.0661C104.629 57.6166 103.772 58.5992 102.555 58.5992C101.618 58.5992 101.293 58.0222 101.131 57.7518H101.068V60.3389H100.293ZM101.05 56.0481C101.05 57.1478 101.546 57.905 102.447 57.905C103.376 57.905 103.853 57.0938 103.853 56.0481C103.853 55.0294 103.385 54.2362 102.447 54.2362C101.528 54.2362 101.05 54.9663 101.05 56.0481ZM107.693 58.5992C106.278 58.5992 105.404 57.5986 105.404 56.0931C105.404 54.5877 106.287 53.5421 107.621 53.5421C108.649 53.5421 109.731 54.1731 109.731 55.985V56.3095H106.179C106.215 57.3462 106.819 57.9141 107.693 57.9141C108.279 57.9141 108.649 57.6617 108.829 57.3552H109.659C109.424 58.0944 108.703 58.5992 107.693 58.5992ZM106.188 55.6514H108.946C108.946 54.8311 108.424 54.2272 107.621 54.2272C106.774 54.2272 106.233 54.8942 106.188 55.6514ZM110.74 58.5V53.6052H111.489V54.3534H111.543C111.723 53.8576 112.228 53.524 112.805 53.524C112.922 53.524 113.12 53.5331 113.21 53.5421V54.3263C113.156 54.3083 112.94 54.2722 112.742 54.2722C112.038 54.2722 111.516 54.759 111.516 55.4171V58.5H110.74ZM116.284 60.3389V53.6052H117.032V54.3804H117.123C117.285 54.119 117.591 53.5421 118.538 53.5421C119.764 53.5421 120.62 54.5156 120.62 56.0661C120.62 57.6166 119.764 58.5992 118.547 58.5992C117.609 58.5992 117.285 58.0222 117.123 57.7518H117.059V60.3389H116.284ZM117.041 56.0481C117.041 57.1478 117.537 57.905 118.439 57.905C119.367 57.905 119.845 57.0938 119.845 56.0481C119.845 55.0294 119.376 54.2362 118.439 54.2362C117.519 54.2362 117.041 54.9663 117.041 56.0481ZM121.395 57.1118C121.395 55.985 122.387 55.7326 123.234 55.6695C123.545 55.6469 124.339 55.6064 124.559 55.5974V55.2007C124.559 54.5787 124.19 54.2181 123.451 54.2181C122.829 54.2181 122.459 54.5066 122.351 54.8762H121.54C121.639 54.0919 122.405 53.5421 123.487 53.5421C124.127 53.5421 125.326 53.7314 125.326 55.2728V58.5H124.559V57.8329H124.523C124.361 58.1665 123.91 58.6172 123.063 58.6172C122.135 58.6172 121.395 58.0673 121.395 57.1118ZM122.171 57.1478C122.171 57.6617 122.603 57.9231 123.198 57.9231C124.073 57.9231 124.559 57.3371 124.559 56.7242V56.2284L123.324 56.3185C122.621 56.3636 122.171 56.616 122.171 57.1478ZM128.553 60.4381C127.372 60.4381 126.57 59.9243 126.479 59.0138H127.291C127.399 59.5096 127.859 59.762 128.553 59.762C129.391 59.762 129.905 59.4014 129.905 58.5901V57.5986H129.842C129.68 57.869 129.364 58.4279 128.418 58.4279C127.228 58.4279 126.335 57.5264 126.335 55.985C126.335 54.4796 127.201 53.5421 128.427 53.5421C129.373 53.5421 129.68 54.119 129.86 54.3804H129.923V53.6052H130.68V58.6352C130.68 59.8972 129.743 60.4381 128.553 60.4381ZM128.526 57.7338C129.418 57.7338 129.923 57.0938 129.923 56.012C129.923 54.9663 129.436 54.2362 128.526 54.2362C127.588 54.2362 127.12 55.0294 127.12 56.012C127.12 57.0306 127.597 57.7338 128.526 57.7338ZM133.97 58.5992C132.555 58.5992 131.681 57.5986 131.681 56.0931C131.681 54.5877 132.564 53.5421 133.898 53.5421C134.926 53.5421 136.008 54.1731 136.008 55.985V56.3095H132.456C132.492 57.3462 133.096 57.9141 133.97 57.9141C134.556 57.9141 134.926 57.6617 135.106 57.3552H135.936C135.701 58.0944 134.98 58.5992 133.97 58.5992ZM132.465 55.6514H135.223C135.223 54.8311 134.701 54.2272 133.898 54.2272C133.051 54.2272 132.51 54.8942 132.465 55.6514Z" fill="var(--sol-element-primary)"/>
<mask id="mask0_1240_147137" style="mask-type:alpha" maskUnits="userSpaceOnUse" x="139" y="50" width="17" height="17">
<path d="M146.242 54.0505L143.934 56.3582C143.822 56.4708 143.639 56.4708 143.526 56.3582L141.219 54.0505L141.627 53.6426L143.73 55.7463L145.834 53.6426L146.242 54.0505Z" fill="var(--sol-element-primary)"/>
</mask>
<g mask="url(#mask0_1240_147137)">
<rect x="139.115" y="50.3848" width="9.23077" height="9.23077" fill="var(--sol-element-primary)"/>
</g>
<path d="M155.269 51.8275C155.269 51.6682 155.398 51.5391 155.557 51.5391C155.716 51.5391 155.845 51.6682 155.845 51.8275L155.845 58.1737C155.845 58.333 155.716 58.4621 155.557 58.4621C155.398 58.4621 155.269 58.333 155.269 58.1737L155.269 51.8275Z" fill="var(--sol-border-solid-variant)"/>
<path d="M172.144 58.1255V58.8466H164.932V58.1255H172.144ZM172.144 51.8755H164.932V58.8466L164.858 58.8428C164.495 58.8059 164.211 58.4988 164.211 58.1255V51.8755C164.211 51.4772 164.534 51.1543 164.932 51.1543H172.144C172.542 51.1543 172.865 51.4772 172.865 51.8755V58.1255C172.865 58.4988 172.581 58.8059 172.217 58.8428L172.144 58.8466V51.8755Z" fill="var(--sol-element-primary)"/>
<path d="M167.576 58.3297H166.855L166.855 51.7656L167.576 51.7656L167.576 58.3297Z" fill="var(--sol-element-primary)"/>
<path d="M170.221 58.3297H169.499L169.499 51.7656L170.221 51.7656L170.221 58.3297Z" fill="var(--sol-element-primary)"/>
<path d="M181.789 54.0288C181.599 53.1274 180.824 52.6406 179.968 52.6406C178.787 52.6406 177.867 53.5511 177.867 55.2368C177.867 56.9225 178.787 57.8329 179.968 57.8329C180.824 57.8329 181.59 57.3462 181.789 56.4537H182.6C182.365 57.7879 181.293 58.5901 179.968 58.5901C178.291 58.5901 177.083 57.3011 177.083 55.2368C177.083 53.1725 178.291 51.8834 179.968 51.8834C181.284 51.8834 182.356 52.6767 182.6 54.0288H181.789ZM185.638 58.5992C184.304 58.5992 183.402 57.5986 183.402 56.0751C183.402 54.5517 184.304 53.5421 185.638 53.5421C186.963 53.5421 187.855 54.5517 187.855 56.0751C187.855 57.5986 186.963 58.5992 185.638 58.5992ZM185.638 57.9141C186.62 57.9141 187.08 57.0487 187.08 56.0751C187.08 55.1016 186.62 54.2272 185.638 54.2272C184.637 54.2272 184.177 55.1016 184.177 56.0751C184.177 57.0487 184.637 57.9141 185.638 57.9141ZM189.649 51.9736V58.5H188.874V51.9736H189.649ZM193.976 56.4898V53.6052H194.742V58.5H193.976V57.6707H193.922C193.688 58.1665 193.21 58.5631 192.471 58.5631C191.542 58.5631 190.884 57.9591 190.884 56.7151V53.6052H191.659V56.6611C191.659 57.3642 192.101 57.8149 192.723 57.8149C193.273 57.8149 193.976 57.4002 193.976 56.4898ZM195.986 58.5V53.6052H196.734V54.3714H196.798C197.005 53.8486 197.474 53.5421 198.114 53.5421C198.754 53.5421 199.186 53.8486 199.421 54.3714H199.475C199.727 53.8666 200.241 53.5421 200.944 53.5421C201.819 53.5421 202.441 54.0739 202.441 55.2278V58.5H201.665V55.2368C201.665 54.5156 201.206 54.2362 200.674 54.2362C199.989 54.2362 199.601 54.6959 199.601 55.3179V58.5H198.817V55.1556C198.817 54.6058 198.42 54.2362 197.861 54.2362C197.275 54.2362 196.761 54.732 196.761 55.4441V58.5H195.986ZM204.46 55.5613V58.5H203.685V53.6052H204.433V54.3714H204.496C204.73 53.8756 205.181 53.5421 205.929 53.5421C206.921 53.5421 207.579 54.146 207.579 55.39V58.5H206.804V55.4441C206.804 54.6869 206.389 54.2362 205.695 54.2362C204.983 54.2362 204.46 54.7139 204.46 55.5613Z" fill="var(--sol-element-primary)"/>
<path d="M210.923 51.5386C210.923 50.9014 211.439 50.3848 212.077 50.3848H219.384C220.022 50.3848 220.538 50.9014 220.538 51.5386V58.4617C220.538 59.0989 220.022 59.6155 219.384 59.6155H212.077C211.439 59.6155 210.923 59.0989 210.923 58.4617V51.5386Z" fill="var(--sol-secondary-container)"/>
<path d="M215.737 57.5676C214.757 57.5676 214.04 56.9862 214.013 56.1749H214.872C214.899 56.5738 215.271 56.8577 215.737 56.8577C216.285 56.8577 216.677 56.4588 216.677 55.918C216.677 55.3568 216.271 54.9579 215.71 54.9579C215.332 54.9512 215.054 55.0864 214.899 55.3771H214.081L214.378 52.6052H217.272V53.3421H215.102L214.953 54.6402H215C215.19 54.4238 215.548 54.2683 215.947 54.2683C216.86 54.2683 217.529 54.9512 217.529 55.8909C217.529 56.8712 216.792 57.5676 215.737 57.5676Z" fill="var(--sol-element-brand-variant)"/>
<mask id="mask1_1240_147137" style="mask-type:alpha" maskUnits="userSpaceOnUse" x="222" y="50" width="17" height="17">
<path d="M229.973 54.0505L227.665 56.3582C227.552 56.4708 227.37 56.4708 227.257 56.3582L224.949 54.0505L225.357 53.6426L227.461 55.7463L229.565 53.6426L229.973 54.0505Z" fill="var(--sol-element-primary)"/>
</mask>
<g mask="url(#mask1_1240_147137)">
<rect x="222.846" y="50.3848" width="9.23077" height="9.23077" fill="var(--sol-element-primary)"/>
</g>
<mask id="path-21-inside-1_1240_147137" fill="var(--sol-static-white)">
<path d="M40 70H386V100.24H40V70Z"/>
</mask>
<path d="M40 70H386V100.24H40V70Z" fill="var(--sol-element-primary)" fill-opacity="0.04"/>
<path d="M40 70V70.84H386V70V69.16H40V70ZM386 100.24V99.4H40V100.24V101.08H386V100.24Z" fill="var(--sol-border-normal-variant)" mask="url(#path-21-inside-1_1240_147137)"/>
<path d="M54.7197 82.1191C54.7197 80.4623 56.0629 79.1191 57.7197 79.1191H122.28C123.937 79.1191 125.28 80.4623 125.28 82.1191V88.1191C125.28 89.776 123.937 91.1191 122.28 91.1191H57.7197C56.0629 91.1191 54.7197 89.776 54.7197 88.1191V82.1191Z" fill="var(--sol-element-primary)" fill-opacity="0.08"/>
<path d="M151.76 82.1191C151.76 80.4623 153.103 79.1191 154.76 79.1191H228.76C230.417 79.1191 231.76 80.4623 231.76 82.1191V88.1191C231.76 89.776 230.417 91.1191 228.76 91.1191H154.76C153.103 91.1191 151.76 89.776 151.76 88.1191V82.1191Z" fill="var(--sol-element-primary)" fill-opacity="0.08"/>
<g clip-path="url(#clip4_1240_147137)">
<path d="M54.7197 115.32C54.7197 113.663 56.0629 112.32 57.7197 112.32H122.28C123.937 112.32 125.28 113.663 125.28 115.32V127.32C125.28 128.977 123.937 130.32 122.28 130.32H57.7197C56.0629 130.32 54.7197 128.977 54.7197 127.32V115.32Z" fill="var(--sol-element-primary)" fill-opacity="0.08"/>
<path d="M153.44 115.32C153.44 113.663 154.784 112.32 156.44 112.32H369.56C371.217 112.32 372.56 113.663 372.56 115.32V127.32C372.56 128.977 371.217 130.32 369.56 130.32H156.44C154.784 130.32 153.44 128.977 153.44 127.32V115.32Z" fill="var(--sol-element-primary)" fill-opacity="0.08"/>
</g>
<path d="M40 142.82C40 142.588 40.188 142.4 40.42 142.4L385.58 142.4C385.812 142.4 386 142.588 386 142.82C386 143.052 385.812 143.24 385.58 143.24L40.42 143.24C40.188 143.24 40 143.052 40 142.82Z" fill="var(--sol-border-normal-variant)"/>
<g clip-path="url(#clip5_1240_147137)">
<path d="M54.7197 158.32C54.7197 156.663 56.0629 155.32 57.7197 155.32H122.28C123.937 155.32 125.28 156.663 125.28 158.32V170.32C125.28 171.977 123.937 173.32 122.28 173.32H57.7197C56.0629 173.32 54.7197 171.977 54.7197 170.32V158.32Z" fill="var(--sol-element-primary)" fill-opacity="0.08"/>
<path d="M153.44 158.32C153.44 156.663 154.784 155.32 156.44 155.32H369.56C371.217 155.32 372.56 156.663 372.56 158.32V170.32C372.56 171.977 371.217 173.32 369.56 173.32H156.44C154.784 173.32 153.44 171.977 153.44 170.32V158.32Z" fill="var(--sol-element-primary)" fill-opacity="0.08"/>
</g>
<path d="M40 185.82C40 185.588 40.188 185.4 40.42 185.4L385.58 185.4C385.812 185.4 386 185.588 386 185.82C386 186.052 385.812 186.24 385.58 186.24L40.42 186.24C40.188 186.24 40 186.052 40 185.82Z" fill="var(--sol-border-normal-variant)"/>
</g>
</g>
<rect x="40.5" y="40.5" width="345" height="403.24" rx="3.5" stroke="var(--sol-border-solid-variant)"/>
</g>
</g>
<rect y="140" width="302" height="52" fill="url(#paint0_linear_1240_147137)"/>
</g>
<defs>
<filter id="filter0_dd_1240_147137" x="32" y="36" width="362" height="176" filterUnits="userSpaceOnUse" color-interpolation-filters="sRGB">
<feFlood flood-opacity="0" result="BackgroundImageFix"/>
<feColorMatrix in="SourceAlpha" type="matrix" values="0 0 0 0 0 0 0 0 0 0 0 0 0 0 0 0 0 0 127 0" result="hardAlpha"/>
<feOffset dy="4"/>
<feGaussianBlur stdDeviation="4"/>
<feComposite in2="hardAlpha" operator="out"/>
<feColorMatrix type="matrix" values="0 0 0 0 0 0 0 0 0 0 0 0 0 0 0 0 0 0 0.08 0"/>
<feBlend mode="normal" in2="BackgroundImageFix" result="effect1_dropShadow_1240_147137"/>
<feColorMatrix in="SourceAlpha" type="matrix" values="0 0 0 0 0 0 0 0 0 0 0 0 0 0 0 0 0 0 127 0" result="hardAlpha"/>
<feOffset/>
<feGaussianBlur stdDeviation="0.5"/>
<feComposite in2="hardAlpha" operator="out"/>
<feColorMatrix type="matrix" values="0 0 0 0 0 0 0 0 0 0 0 0 0 0 0 0 0 0 0.08 0"/>
<feBlend mode="normal" in2="effect1_dropShadow_1240_147137" result="effect2_dropShadow_1240_147137"/>
<feBlend mode="normal" in="SourceGraphic" in2="effect2_dropShadow_1240_147137" result="shape"/>
</filter>
<linearGradient id="paint0_linear_1240_147137" x1="259.531" y1="192" x2="259.531" y2="140" gradientUnits="userSpaceOnUse">
<stop stop-opacity="0.04"/>
<stop offset="1" stop-color="var(--sol-surface)" stop-opacity="0"/>
</linearGradient>
<clipPath id="clip0_1240_147137">
<rect width="288" height="192" fill="var(--sol-surface)"/>
</clipPath>
<clipPath id="clip1_1240_147137">
<rect x="40" y="40" width="346" height="160" rx="4" fill="var(--sol-surface)"/>
</clipPath>
<clipPath id="clip2_1240_147137">
<rect x="40" y="40" width="346" height="404.24" rx="4" fill="var(--sol-surface)"/>
</clipPath>
<clipPath id="clip3_1240_147137">
<rect width="346" height="404.24" fill="var(--sol-surface)" transform="translate(40 40)"/>
</clipPath>
<clipPath id="clip4_1240_147137">
<rect width="346" height="42.16" fill="var(--sol-surface)" transform="translate(40 100.24)"/>
</clipPath>
<clipPath id="clip5_1240_147137">
<rect width="346" height="42.16" fill="var(--sol-surface)" transform="translate(40 143.24)"/>
</clipPath>
</defs>
</svg>
