<svg width="288" height="192" viewBox="0 0 288 192" fill="none" xmlns="http://www.w3.org/2000/svg">
<style>
:root {
  --sol-primary: #282363;
  --sol-element-brand-variant: #3a3480;
  --sol-fill-active: #4d469a;
  --sol-selected-container-variant: #f5f4fd;
  --sol-surface: #ffffff;
  --sol-surface-base-variant: #f5f5f5;
  --sol-secondary-container: #e8e6f8;
  --sol-element-primary: #161616;
  --sol-element-secondary: #484848;
  --sol-element-tertiary: #636363;
  --sol-element-quaternary: #858585;
  --sol-border-brand: #7b74c4;
  --sol-border-normal-variant: rgba(0, 0, 0, 0.08);
  --sol-border-solid-variant: #e0e0e0;
  --sol-border-solid: #d0d0d0;
  --sol-error: #e76067;
  --sol-error-container: #fdeaeb;
  --sol-static-white: #ffffff;
  --sol-static-black: #000000;
  --color-brand-400: #6058b4;
  --color-teal-500: #05a09a;
  --color-green-500: #35a142;
  --color-yellow-500: #d4ae00;
  --color-orange-500: #e06418;
  --color-blue-500: #3e9bca;
  --color-indigo-500: #3d5ed6;
  --color-pink-500: #d03e94;
}
@media (prefers-color-scheme: dark) {
  :root {
    --sol-primary: #9791d4;
    --sol-element-brand-variant: #ffffff;
    --sol-fill-active: #7b74c4;
    --sol-selected-container-variant: rgba(0, 0, 0, 0.08);
    --sol-surface: #161616;
    --sol-surface-base-variant: #1c1c1c;
    --sol-secondary-container: rgba(255, 255, 255, 0.16);
    --sol-element-primary: #ffffff;
    --sol-element-secondary: rgba(255, 255, 255, 0.8);
    --sol-element-tertiary: rgba(255, 255, 255, 0.6);
    --sol-element-quaternary: rgba(255, 255, 255, 0.5);
    --sol-border-brand: #7b74c4;
    --sol-border-normal-variant: rgba(255, 255, 255, 0.08);
    --sol-border-solid-variant: #3d3d3d;
    --sol-border-solid: #333333;
    --sol-error: #ee7a80;
    --sol-error-container: rgba(231, 96, 103, 0.24);
    --sol-static-white: #ffffff;
    --sol-static-black: #000000;
  }
}
</style>
<g clip-path="url(#clip0_1240_147014)">
<g filter="url(#filter0_dd_1240_147014)">
<g clip-path="url(#clip1_1240_147014)">
<g clip-path="url(#clip2_1240_147014)">
<rect x="40" y="40" width="346" height="196.24" rx="4" fill="var(--sol-surface)"/>
<g clip-path="url(#clip3_1240_147014)">
<rect width="346" height="196.24" transform="translate(40 40)" fill="var(--sol-surface)"/>
<mask id="path-4-inside-1_1240_147014" fill="var(--sol-static-white)">
<path d="M40 40H386V70.24H40V40Z"/>
</mask>
<path d="M40 40H386V70.24H40V40Z" fill="var(--sol-element-primary)" fill-opacity="0.04"/>
<path d="M40 40V40.84H386V40V39.16H40V40ZM386 70.24V69.4H40V70.24V71.08H386V70.24Z" fill="var(--sol-border-normal-variant)" mask="url(#path-4-inside-1_1240_147014)"/>
<path d="M72.7051 59.1191V50.6348H74.2285V54.2324H78.1777V50.6348H79.7129V59.1191H78.1777V55.5098H74.2285V59.1191H72.7051ZM84.0371 59.248C82.1152 59.248 80.9434 57.9707 80.9434 55.9785C80.9434 54.0098 82.1387 52.6738 83.9551 52.6738C85.5137 52.6738 86.8613 53.6465 86.8613 55.8848V56.3535H82.4199C82.4375 57.4375 83.0762 58.0762 84.0488 58.0762C84.7051 58.0762 85.1504 57.7949 85.3379 57.4199H86.8027C86.5332 58.5215 85.5137 59.248 84.0371 59.248ZM82.4316 55.334H85.4316C85.4199 54.4668 84.8457 53.834 83.9785 53.834C83.0762 53.834 82.4785 54.5195 82.4316 55.334ZM87.7285 57.3262C87.7285 55.8965 88.9121 55.4746 90.0957 55.4043C90.5352 55.375 91.4492 55.3223 91.7246 55.3105V54.8066C91.7246 54.1738 91.3145 53.8105 90.5762 53.8105C89.9082 53.8105 89.498 54.1152 89.3809 54.5723H87.9395C88.0449 53.4941 89.0176 52.6738 90.6113 52.6738C91.8184 52.6738 93.2129 53.166 93.2129 54.8652V59.1191H91.7832V58.2402H91.7363C91.4551 58.7793 90.8574 59.248 89.8613 59.248C88.6426 59.248 87.7285 58.5801 87.7285 57.3262ZM89.1699 57.3145C89.1699 57.8652 89.6152 58.1465 90.248 58.1465C91.1504 58.1465 91.7363 57.5488 91.7363 56.834V56.3066L90.3301 56.4004C89.6152 56.459 89.1699 56.752 89.1699 57.3145ZM96.9863 59.2363C95.4863 59.2363 94.3613 58.041 94.3613 55.9434C94.3613 53.8223 95.5215 52.6738 96.998 52.6738C98.123 52.6738 98.5918 53.3418 98.8145 53.7988H98.873V50.6348H100.361V59.1191H98.8965V58.1113H98.8145C98.5801 58.5801 98.0879 59.2363 96.9863 59.2363ZM97.3965 58.0059C98.3574 58.0059 98.9082 57.1738 98.9082 55.9316C98.9082 54.7012 98.3691 53.8926 97.3965 53.8926C96.4004 53.8926 95.8848 54.748 95.8848 55.9316C95.8848 57.1387 96.4121 58.0059 97.3965 58.0059ZM104.697 59.248C102.775 59.248 101.604 57.9707 101.604 55.9785C101.604 54.0098 102.799 52.6738 104.615 52.6738C106.174 52.6738 107.521 53.6465 107.521 55.8848V56.3535H103.08C103.098 57.4375 103.736 58.0762 104.709 58.0762C105.365 58.0762 105.811 57.7949 105.998 57.4199H107.463C107.193 58.5215 106.174 59.248 104.697 59.248ZM103.092 55.334H106.092C106.08 54.4668 105.506 53.834 104.639 53.834C103.736 53.834 103.139 54.5195 103.092 55.334ZM108.682 59.1191V52.7559H110.135V53.8105H110.205C110.428 53.084 111.049 52.6621 111.775 52.6621C111.939 52.6621 112.174 52.6738 112.314 52.6973V54.0801C112.186 54.0332 111.869 53.9863 111.623 53.9863C110.791 53.9863 110.182 54.5605 110.182 55.3691V59.1191H108.682Z" fill="var(--sol-element-tertiary)"/>
<path d="M152.545 59.1191V50.6348H154.068V54.2324H158.018V50.6348H159.553V59.1191H158.018V55.5098H154.068V59.1191H152.545ZM163.877 59.248C161.955 59.248 160.783 57.9707 160.783 55.9785C160.783 54.0098 161.979 52.6738 163.795 52.6738C165.354 52.6738 166.701 53.6465 166.701 55.8848V56.3535H162.26C162.277 57.4375 162.916 58.0762 163.889 58.0762C164.545 58.0762 164.99 57.7949 165.178 57.4199H166.643C166.373 58.5215 165.354 59.248 163.877 59.248ZM162.271 55.334H165.271C165.26 54.4668 164.686 53.834 163.818 53.834C162.916 53.834 162.318 54.5195 162.271 55.334ZM167.568 57.3262C167.568 55.8965 168.752 55.4746 169.936 55.4043C170.375 55.375 171.289 55.3223 171.564 55.3105V54.8066C171.564 54.1738 171.154 53.8105 170.416 53.8105C169.748 53.8105 169.338 54.1152 169.221 54.5723H167.779C167.885 53.4941 168.857 52.6738 170.451 52.6738C171.658 52.6738 173.053 53.166 173.053 54.8652V59.1191H171.623V58.2402H171.576C171.295 58.7793 170.697 59.248 169.701 59.248C168.482 59.248 167.568 58.5801 167.568 57.3262ZM169.01 57.3145C169.01 57.8652 169.455 58.1465 170.088 58.1465C170.99 58.1465 171.576 57.5488 171.576 56.834V56.3066L170.17 56.4004C169.455 56.459 169.01 56.752 169.01 57.3145ZM176.826 59.2363C175.326 59.2363 174.201 58.041 174.201 55.9434C174.201 53.8223 175.361 52.6738 176.838 52.6738C177.963 52.6738 178.432 53.3418 178.654 53.7988H178.713V50.6348H180.201V59.1191H178.736V58.1113H178.654C178.42 58.5801 177.928 59.2363 176.826 59.2363ZM177.236 58.0059C178.197 58.0059 178.748 57.1738 178.748 55.9316C178.748 54.7012 178.209 53.8926 177.236 53.8926C176.24 53.8926 175.725 54.748 175.725 55.9316C175.725 57.1387 176.252 58.0059 177.236 58.0059ZM184.537 59.248C182.615 59.248 181.443 57.9707 181.443 55.9785C181.443 54.0098 182.639 52.6738 184.455 52.6738C186.014 52.6738 187.361 53.6465 187.361 55.8848V56.3535H182.92C182.938 57.4375 183.576 58.0762 184.549 58.0762C185.205 58.0762 185.65 57.7949 185.838 57.4199H187.303C187.033 58.5215 186.014 59.248 184.537 59.248ZM182.932 55.334H185.932C185.92 54.4668 185.346 53.834 184.479 53.834C183.576 53.834 182.979 54.5195 182.932 55.334ZM188.521 59.1191V52.7559H189.975V53.8105H190.045C190.268 53.084 190.889 52.6621 191.615 52.6621C191.779 52.6621 192.014 52.6738 192.154 52.6973V54.0801C192.025 54.0332 191.709 53.9863 191.463 53.9863C190.631 53.9863 190.021 54.5605 190.021 55.3691V59.1191H188.521Z" fill="var(--sol-element-tertiary)"/>
<path d="M266.305 59.1191V50.6348H267.828V54.2324H271.777V50.6348H273.312V59.1191H271.777V55.5098H267.828V59.1191H266.305ZM277.637 59.248C275.715 59.248 274.543 57.9707 274.543 55.9785C274.543 54.0098 275.738 52.6738 277.555 52.6738C279.113 52.6738 280.461 53.6465 280.461 55.8848V56.3535H276.02C276.037 57.4375 276.676 58.0762 277.648 58.0762C278.305 58.0762 278.75 57.7949 278.938 57.4199H280.402C280.133 58.5215 279.113 59.248 277.637 59.248ZM276.031 55.334H279.031C279.02 54.4668 278.445 53.834 277.578 53.834C276.676 53.834 276.078 54.5195 276.031 55.334ZM281.328 57.3262C281.328 55.8965 282.512 55.4746 283.695 55.4043C284.135 55.375 285.049 55.3223 285.324 55.3105V54.8066C285.324 54.1738 284.914 53.8105 284.176 53.8105C283.508 53.8105 283.098 54.1152 282.98 54.5723H281.539C281.645 53.4941 282.617 52.6738 284.211 52.6738C285.418 52.6738 286.812 53.166 286.812 54.8652V59.1191H285.383V58.2402H285.336C285.055 58.7793 284.457 59.248 283.461 59.248C282.242 59.248 281.328 58.5801 281.328 57.3262ZM282.77 57.3145C282.77 57.8652 283.215 58.1465 283.848 58.1465C284.75 58.1465 285.336 57.5488 285.336 56.834V56.3066L283.93 56.4004C283.215 56.459 282.77 56.752 282.77 57.3145ZM290.586 59.2363C289.086 59.2363 287.961 58.041 287.961 55.9434C287.961 53.8223 289.121 52.6738 290.598 52.6738C291.723 52.6738 292.191 53.3418 292.414 53.7988H292.473V50.6348H293.961V59.1191H292.496V58.1113H292.414C292.18 58.5801 291.688 59.2363 290.586 59.2363ZM290.996 58.0059C291.957 58.0059 292.508 57.1738 292.508 55.9316C292.508 54.7012 291.969 53.8926 290.996 53.8926C290 53.8926 289.484 54.748 289.484 55.9316C289.484 57.1387 290.012 58.0059 290.996 58.0059ZM298.297 59.248C296.375 59.248 295.203 57.9707 295.203 55.9785C295.203 54.0098 296.398 52.6738 298.215 52.6738C299.773 52.6738 301.121 53.6465 301.121 55.8848V56.3535H296.68C296.697 57.4375 297.336 58.0762 298.309 58.0762C298.965 58.0762 299.41 57.7949 299.598 57.4199H301.062C300.793 58.5215 299.773 59.248 298.297 59.248ZM296.691 55.334H299.691C299.68 54.4668 299.105 53.834 298.238 53.834C297.336 53.834 296.738 54.5195 296.691 55.334ZM302.281 59.1191V52.7559H303.734V53.8105H303.805C304.027 53.084 304.648 52.6621 305.375 52.6621C305.539 52.6621 305.773 52.6738 305.914 52.6973V54.0801C305.785 54.0332 305.469 53.9863 305.223 53.9863C304.391 53.9863 303.781 54.5605 303.781 55.3691V59.1191H302.281Z" fill="var(--sol-element-tertiary)"/>
<g clip-path="url(#clip4_1240_147014)">
<path d="M56.1758 91.5557L59.1758 88.5557C59.3222 88.4092 59.5596 88.4092 59.7061 88.5557L62.7061 91.5557L62.1758 92.0859L59.4409 89.3511L56.7061 92.0859L56.1758 91.5557Z" fill="var(--sol-element-quaternary)"/>
<path d="M80.0078 88.5391C79.7207 87.1719 78.5449 86.4336 77.2461 86.4336C75.4551 86.4336 74.0605 87.8145 74.0605 90.3711C74.0605 92.9277 75.4551 94.3086 77.2461 94.3086C78.5449 94.3086 79.707 93.5703 80.0078 92.2168H81.2383C80.8828 94.2402 79.2559 95.457 77.2461 95.457C74.7031 95.457 72.8711 93.502 72.8711 90.3711C72.8711 87.2402 74.7031 85.2852 77.2461 85.2852C79.2422 85.2852 80.8691 86.4883 81.2383 88.5391H80.0078ZM85.9277 95.4707C83.7812 95.4707 82.4551 93.9531 82.4551 91.6699C82.4551 89.3867 83.7949 87.8008 85.8184 87.8008C87.377 87.8008 89.0176 88.7578 89.0176 91.5059V91.998H83.6309C83.6855 93.5703 84.6016 94.4316 85.9277 94.4316C86.8164 94.4316 87.377 94.0488 87.6504 93.584H88.9082C88.5527 94.7051 87.459 95.4707 85.9277 95.4707ZM83.6445 91H87.8281C87.8281 89.7559 87.0352 88.8398 85.8184 88.8398C84.5332 88.8398 83.7129 89.8516 83.6445 91ZM91.7246 85.4219V95.3203H90.5488V85.4219H91.7246ZM94.7734 85.4219V95.3203H93.5977V85.4219H94.7734Z" fill="var(--sol-element-tertiary)"/>
<path d="M161.288 88.5391C161.001 87.1719 159.825 86.4336 158.526 86.4336C156.735 86.4336 155.341 87.8145 155.341 90.3711C155.341 92.9277 156.735 94.3086 158.526 94.3086C159.825 94.3086 160.987 93.5703 161.288 92.2168H162.519C162.163 94.2402 160.536 95.457 158.526 95.457C155.983 95.457 154.151 93.502 154.151 90.3711C154.151 87.2402 155.983 85.2852 158.526 85.2852C160.522 85.2852 162.149 86.4883 162.519 88.5391H161.288ZM167.208 95.4707C165.062 95.4707 163.735 93.9531 163.735 91.6699C163.735 89.3867 165.075 87.8008 167.099 87.8008C168.657 87.8008 170.298 88.7578 170.298 91.5059V91.998H164.911C164.966 93.5703 165.882 94.4316 167.208 94.4316C168.097 94.4316 168.657 94.0488 168.931 93.584H170.188C169.833 94.7051 168.739 95.4707 167.208 95.4707ZM164.925 91H169.108C169.108 89.7559 168.315 88.8398 167.099 88.8398C165.813 88.8398 164.993 89.8516 164.925 91ZM173.005 85.4219V95.3203H171.829V85.4219H173.005ZM176.054 85.4219V95.3203H174.878V85.4219H176.054Z" fill="var(--sol-element-tertiary)"/>
<path d="M274.208 88.5391C273.921 87.1719 272.745 86.4336 271.446 86.4336C269.655 86.4336 268.261 87.8145 268.261 90.3711C268.261 92.9277 269.655 94.3086 271.446 94.3086C272.745 94.3086 273.907 93.5703 274.208 92.2168H275.438C275.083 94.2402 273.456 95.457 271.446 95.457C268.903 95.457 267.071 93.502 267.071 90.3711C267.071 87.2402 268.903 85.2852 271.446 85.2852C273.442 85.2852 275.069 86.4883 275.438 88.5391H274.208ZM280.128 95.4707C277.981 95.4707 276.655 93.9531 276.655 91.6699C276.655 89.3867 277.995 87.8008 280.019 87.8008C281.577 87.8008 283.218 88.7578 283.218 91.5059V91.998H277.831C277.886 93.5703 278.802 94.4316 280.128 94.4316C281.017 94.4316 281.577 94.0488 281.851 93.584H283.108C282.753 94.7051 281.659 95.4707 280.128 95.4707ZM277.845 91H282.028C282.028 89.7559 281.235 88.8398 280.019 88.8398C278.733 88.8398 277.913 89.8516 277.845 91ZM285.925 85.4219V95.3203H284.749V85.4219H285.925ZM288.974 85.4219V95.3203H287.798V85.4219H288.974Z" fill="var(--sol-element-tertiary)"/>
</g>
<path d="M40 110.82C40 110.588 40.188 110.4 40.42 110.4L385.58 110.4C385.812 110.4 386 110.588 386 110.82C386 111.052 385.812 111.24 385.58 111.24L40.42 111.24C40.188 111.24 40 111.052 40 110.82Z" fill="var(--sol-border-normal-variant)"/>
<g clip-path="url(#clip5_1240_147014)">
<path d="M76.6846 128.056L79.6846 131.056C79.831 131.202 79.831 131.439 79.6846 131.586L76.6846 134.586L76.1543 134.056L78.8892 131.321L76.1543 128.586L76.6846 128.056Z" fill="var(--sol-element-quaternary)"/>
<path d="M98.4873 129.539C98.2002 128.172 97.0244 127.434 95.7256 127.434C93.9346 127.434 92.54 128.814 92.54 131.371C92.54 133.928 93.9346 135.309 95.7256 135.309C97.0244 135.309 98.1865 134.57 98.4873 133.217H99.7178C99.3623 135.24 97.7354 136.457 95.7256 136.457C93.1826 136.457 91.3506 134.502 91.3506 131.371C91.3506 128.24 93.1826 126.285 95.7256 126.285C97.7217 126.285 99.3486 127.488 99.7178 129.539H98.4873ZM104.407 136.471C102.261 136.471 100.935 134.953 100.935 132.67C100.935 130.387 102.274 128.801 104.298 128.801C105.856 128.801 107.497 129.758 107.497 132.506V132.998H102.11C102.165 134.57 103.081 135.432 104.407 135.432C105.296 135.432 105.856 135.049 106.13 134.584H107.388C107.032 135.705 105.938 136.471 104.407 136.471ZM102.124 132H106.308C106.308 130.756 105.515 129.84 104.298 129.84C103.013 129.84 102.192 130.852 102.124 132ZM110.204 126.422V136.32H109.028V126.422H110.204ZM113.253 126.422V136.32H112.077V126.422H113.253Z" fill="var(--sol-element-tertiary)"/>
<path d="M161.288 129.539C161.001 128.172 159.825 127.434 158.526 127.434C156.735 127.434 155.341 128.814 155.341 131.371C155.341 133.928 156.735 135.309 158.526 135.309C159.825 135.309 160.987 134.57 161.288 133.217H162.519C162.163 135.24 160.536 136.457 158.526 136.457C155.983 136.457 154.151 134.502 154.151 131.371C154.151 128.24 155.983 126.285 158.526 126.285C160.522 126.285 162.149 127.488 162.519 129.539H161.288ZM167.208 136.471C165.062 136.471 163.735 134.953 163.735 132.67C163.735 130.387 165.075 128.801 167.099 128.801C168.657 128.801 170.298 129.758 170.298 132.506V132.998H164.911C164.966 134.57 165.882 135.432 167.208 135.432C168.097 135.432 168.657 135.049 168.931 134.584H170.188C169.833 135.705 168.739 136.471 167.208 136.471ZM164.925 132H169.108C169.108 130.756 168.315 129.84 167.099 129.84C165.813 129.84 164.993 130.852 164.925 132ZM173.005 126.422V136.32H171.829V126.422H173.005ZM176.054 126.422V136.32H174.878V126.422H176.054Z" fill="var(--sol-element-tertiary)"/>
<path d="M274.208 129.539C273.921 128.172 272.745 127.434 271.446 127.434C269.655 127.434 268.261 128.814 268.261 131.371C268.261 133.928 269.655 135.309 271.446 135.309C272.745 135.309 273.907 134.57 274.208 133.217H275.438C275.083 135.24 273.456 136.457 271.446 136.457C268.903 136.457 267.071 134.502 267.071 131.371C267.071 128.24 268.903 126.285 271.446 126.285C273.442 126.285 275.069 127.488 275.438 129.539H274.208ZM280.128 136.471C277.981 136.471 276.655 134.953 276.655 132.67C276.655 130.387 277.995 128.801 280.019 128.801C281.577 128.801 283.218 129.758 283.218 132.506V132.998H277.831C277.886 134.57 278.802 135.432 280.128 135.432C281.017 135.432 281.577 135.049 281.851 134.584H283.108C282.753 135.705 281.659 136.471 280.128 136.471ZM277.845 132H282.028C282.028 130.756 281.235 129.84 280.019 129.84C278.733 129.84 277.913 130.852 277.845 132ZM285.925 126.422V136.32H284.749V126.422H285.925ZM288.974 126.422V136.32H287.798V126.422H288.974Z" fill="var(--sol-element-tertiary)"/>
</g>
<path d="M40 151.82C40 151.588 40.188 151.4 40.42 151.4L385.58 151.4C385.812 151.4 386 151.588 386 151.82C386 152.052 385.812 152.24 385.58 152.24L40.42 152.24C40.188 152.24 40 152.052 40 151.82Z" fill="var(--sol-border-normal-variant)"/>
<g clip-path="url(#clip6_1240_147014)">
<path d="M98.4873 170.539C98.2002 169.172 97.0244 168.434 95.7256 168.434C93.9346 168.434 92.54 169.814 92.54 172.371C92.54 174.928 93.9346 176.309 95.7256 176.309C97.0244 176.309 98.1865 175.57 98.4873 174.217H99.7178C99.3623 176.24 97.7354 177.457 95.7256 177.457C93.1826 177.457 91.3506 175.502 91.3506 172.371C91.3506 169.24 93.1826 167.285 95.7256 167.285C97.7217 167.285 99.3486 168.488 99.7178 170.539H98.4873ZM104.407 177.471C102.261 177.471 100.935 175.953 100.935 173.67C100.935 171.387 102.274 169.801 104.298 169.801C105.856 169.801 107.497 170.758 107.497 173.506V173.998H102.11C102.165 175.57 103.081 176.432 104.407 176.432C105.296 176.432 105.856 176.049 106.13 175.584H107.388C107.032 176.705 105.938 177.471 104.407 177.471ZM102.124 173H106.308C106.308 171.756 105.515 170.84 104.298 170.84C103.013 170.84 102.192 171.852 102.124 173ZM110.204 167.422V177.32H109.028V167.422H110.204ZM113.253 167.422V177.32H112.077V167.422H113.253Z" fill="var(--sol-element-tertiary)"/>
<path d="M161.288 170.539C161.001 169.172 159.825 168.434 158.526 168.434C156.735 168.434 155.341 169.814 155.341 172.371C155.341 174.928 156.735 176.309 158.526 176.309C159.825 176.309 160.987 175.57 161.288 174.217H162.519C162.163 176.24 160.536 177.457 158.526 177.457C155.983 177.457 154.151 175.502 154.151 172.371C154.151 169.24 155.983 167.285 158.526 167.285C160.522 167.285 162.149 168.488 162.519 170.539H161.288ZM167.208 177.471C165.062 177.471 163.735 175.953 163.735 173.67C163.735 171.387 165.075 169.801 167.099 169.801C168.657 169.801 170.298 170.758 170.298 173.506V173.998H164.911C164.966 175.57 165.882 176.432 167.208 176.432C168.097 176.432 168.657 176.049 168.931 175.584H170.188C169.833 176.705 168.739 177.471 167.208 177.471ZM164.925 173H169.108C169.108 171.756 168.315 170.84 167.099 170.84C165.813 170.84 164.993 171.852 164.925 173ZM173.005 167.422V177.32H171.829V167.422H173.005ZM176.054 167.422V177.32H174.878V167.422H176.054Z" fill="var(--sol-element-tertiary)"/>
<path d="M274.208 170.539C273.921 169.172 272.745 168.434 271.446 168.434C269.655 168.434 268.261 169.814 268.261 172.371C268.261 174.928 269.655 176.309 271.446 176.309C272.745 176.309 273.907 175.57 274.208 174.217H275.438C275.083 176.24 273.456 177.457 271.446 177.457C268.903 177.457 267.071 175.502 267.071 172.371C267.071 169.24 268.903 167.285 271.446 167.285C273.442 167.285 275.069 168.488 275.438 170.539H274.208ZM280.128 177.471C277.981 177.471 276.655 175.953 276.655 173.67C276.655 171.387 277.995 169.801 280.019 169.801C281.577 169.801 283.218 170.758 283.218 173.506V173.998H277.831C277.886 175.57 278.802 176.432 280.128 176.432C281.017 176.432 281.577 176.049 281.851 175.584H283.108C282.753 176.705 281.659 177.471 280.128 177.471ZM277.845 173H282.028C282.028 171.756 281.235 170.84 280.019 170.84C278.733 170.84 277.913 171.852 277.845 173ZM285.925 167.422V177.32H284.749V167.422H285.925ZM288.974 167.422V177.32H287.798V167.422H288.974Z" fill="var(--sol-element-tertiary)"/>
</g>
</g>
</g>
<rect x="40.5" y="40.5" width="345" height="195.24" rx="3.5" stroke="var(--sol-border-solid-variant)"/>
</g>
</g>
<rect y="140" width="302" height="52" fill="url(#paint0_linear_1240_147014)"/>
</g>
<defs>
<filter id="filter0_dd_1240_147014" x="32" y="36" width="362" height="176" filterUnits="userSpaceOnUse" color-interpolation-filters="sRGB">
<feFlood flood-opacity="0" result="BackgroundImageFix"/>
<feColorMatrix in="SourceAlpha" type="matrix" values="0 0 0 0 0 0 0 0 0 0 0 0 0 0 0 0 0 0 127 0" result="hardAlpha"/>
<feOffset dy="4"/>
<feGaussianBlur stdDeviation="4"/>
<feComposite in2="hardAlpha" operator="out"/>
<feColorMatrix type="matrix" values="0 0 0 0 0 0 0 0 0 0 0 0 0 0 0 0 0 0 0.08 0"/>
<feBlend mode="normal" in2="BackgroundImageFix" result="effect1_dropShadow_1240_147014"/>
<feColorMatrix in="SourceAlpha" type="matrix" values="0 0 0 0 0 0 0 0 0 0 0 0 0 0 0 0 0 0 127 0" result="hardAlpha"/>
<feOffset/>
<feGaussianBlur stdDeviation="0.5"/>
<feComposite in2="hardAlpha" operator="out"/>
<feColorMatrix type="matrix" values="0 0 0 0 0 0 0 0 0 0 0 0 0 0 0 0 0 0 0.08 0"/>
<feBlend mode="normal" in2="effect1_dropShadow_1240_147014" result="effect2_dropShadow_1240_147014"/>
<feBlend mode="normal" in="SourceGraphic" in2="effect2_dropShadow_1240_147014" result="shape"/>
</filter>
<linearGradient id="paint0_linear_1240_147014" x1="259.531" y1="192" x2="259.531" y2="140" gradientUnits="userSpaceOnUse">
<stop stop-opacity="0.04"/>
<stop offset="1" stop-color="var(--sol-surface)" stop-opacity="0"/>
</linearGradient>
<clipPath id="clip0_1240_147014">
<rect width="288" height="192" fill="var(--sol-surface)"/>
</clipPath>
<clipPath id="clip1_1240_147014">
<rect x="40" y="40" width="346" height="160" rx="4" fill="var(--sol-surface)"/>
</clipPath>
<clipPath id="clip2_1240_147014">
<rect x="40" y="40" width="346" height="196.24" rx="4" fill="var(--sol-surface)"/>
</clipPath>
<clipPath id="clip3_1240_147014">
<rect width="346" height="196.24" fill="var(--sol-surface)" transform="translate(40 40)"/>
</clipPath>
<clipPath id="clip4_1240_147014">
<rect width="346" height="40.16" fill="var(--sol-surface)" transform="translate(40 70.2402)"/>
</clipPath>
<clipPath id="clip5_1240_147014">
<rect width="346" height="40.16" fill="var(--sol-surface)" transform="translate(40 111.24)"/>
</clipPath>
<clipPath id="clip6_1240_147014">
<rect width="346" height="40.16" fill="var(--sol-surface)" transform="translate(40 152.24)"/>
</clipPath>
</defs>
</svg>
