<svg width="288" height="192" viewBox="0 0 288 192" fill="none" xmlns="http://www.w3.org/2000/svg">
<style>
:root {
  --sol-primary: #282363;
  --sol-element-brand-variant: #3a3480;
  --sol-fill-active: #4d469a;
  --sol-selected-container-variant: #f5f4fd;
  --sol-surface: #ffffff;
  --sol-surface-base-variant: #f5f5f5;
  --sol-secondary-container: #e8e6f8;
  --sol-element-primary: #161616;
  --sol-element-secondary: #484848;
  --sol-element-tertiary: #636363;
  --sol-element-quaternary: #858585;
  --sol-border-brand: #7b74c4;
  --sol-border-normal-variant: rgba(0, 0, 0, 0.08);
  --sol-border-solid-variant: #e0e0e0;
  --sol-border-solid: #d0d0d0;
  --sol-error: #e76067;
  --sol-error-container: #fdeaeb;
  --sol-static-white: #ffffff;
  --sol-static-black: #000000;
  --color-brand-400: #6058b4;
  --color-teal-500: #05a09a;
  --color-green-500: #35a142;
  --color-yellow-500: #d4ae00;
  --color-orange-500: #e06418;
  --color-blue-500: #3e9bca;
  --color-indigo-500: #3d5ed6;
  --color-pink-500: #d03e94;
}
@media (prefers-color-scheme: dark) {
  :root {
    --sol-primary: #9791d4;
    --sol-element-brand-variant: #ffffff;
    --sol-fill-active: #7b74c4;
    --sol-selected-container-variant: rgba(0, 0, 0, 0.08);
    --sol-surface: #161616;
    --sol-surface-base-variant: #1c1c1c;
    --sol-secondary-container: rgba(255, 255, 255, 0.16);
    --sol-element-primary: #ffffff;
    --sol-element-secondary: rgba(255, 255, 255, 0.8);
    --sol-element-tertiary: rgba(255, 255, 255, 0.6);
    --sol-element-quaternary: rgba(255, 255, 255, 0.5);
    --sol-border-brand: #7b74c4;
    --sol-border-normal-variant: rgba(255, 255, 255, 0.08);
    --sol-border-solid-variant: #3d3d3d;
    --sol-border-solid: #333333;
    --sol-error: #ee7a80;
    --sol-error-container: rgba(231, 96, 103, 0.24);
    --sol-static-white: #ffffff;
    --sol-static-black: #000000;
  }
}
</style>
<g clip-path="url(#clip0_1248_157323)">
<g filter="url(#filter0_dd_1248_157323)">
<g clip-path="url(#clip1_1248_157323)">
<path d="M33 63.916C33 62.3056 34.3056 61 35.916 61H252.084C253.694 61 255 62.3056 255 63.916V128.084C255 129.694 253.694 131 252.084 131H35.916C34.3055 131 33 129.694 33 128.084V63.916Z" fill="var(--sol-surface)"/>
<path d="M56.6626 80.1624C56.6626 77.5621 54.5546 75.4542 51.9544 75.4542C49.3541 75.4542 47.2462 77.5621 47.2462 80.1624C47.2462 82.7627 49.3541 84.8706 51.9544 84.8706C54.5546 84.8706 56.6626 82.7627 56.6626 80.1624ZM51.4988 81.6207H52.41V82.5545H51.4988V81.6207ZM51.4988 77.1249H52.41V80.618H51.4988V77.1249ZM57.5738 80.1624C57.5738 83.2659 55.0579 85.7818 51.9544 85.7818C48.8509 85.7818 46.335 83.2659 46.335 80.1624C46.335 77.0589 48.8509 74.543 51.9544 74.543C55.0579 74.543 57.5738 77.0589 57.5738 80.1624Z" fill="var(--sol-error)"/>
<path d="M73.1323 76.448V83.6641H71.9761L68.5575 78.7304H68.4977V83.6641H67.202V76.448H68.3781L71.7768 81.3816H71.8465V76.448H73.1323ZM76.7702 83.7737C75.1954 83.7737 74.1788 82.6574 74.1788 80.983C74.1788 79.2986 75.1954 78.1823 76.7702 78.1823C78.3549 78.1823 79.3616 79.2986 79.3616 80.983C79.3616 82.6574 78.3549 83.7737 76.7702 83.7737ZM76.7802 82.7571C77.6473 82.7571 78.0759 81.9697 78.0759 80.973C78.0759 79.9863 77.6473 79.1889 76.7802 79.1889C75.8931 79.1889 75.4645 79.9863 75.4645 80.973C75.4645 81.9697 75.8931 82.7571 76.7802 82.7571ZM83.0493 78.252V79.2288H81.9829V82.0395C81.9829 82.5577 82.242 82.6674 82.561 82.6674C82.7105 82.6674 82.9596 82.6574 83.1191 82.6474V83.684C82.9696 83.7139 82.7204 83.7338 82.4015 83.7338C81.4447 83.7338 80.7071 83.2654 80.7171 82.2488V79.2288H79.9397V78.252H80.7171V76.9563H81.9829V78.252H83.0493ZM84.0261 83.6641V78.252H85.3019V83.6641H84.0261ZM84.6739 77.4846C84.2753 77.4846 83.9364 77.1756 83.9364 76.7869C83.9364 76.4082 84.2753 76.0992 84.6739 76.0992C85.0826 76.0992 85.4115 76.4082 85.4115 76.7869C85.4115 77.1756 85.0826 77.4846 84.6739 77.4846ZM89.2587 78.252V79.2288H88.1424V83.6641H86.8667V79.2288H86.0593V78.252H86.8667V77.7338C86.8667 76.6773 87.5245 76.1092 88.561 76.1092C88.86 76.1092 89.1291 76.1391 89.3683 76.1889V77.1955C89.159 77.1656 88.9996 77.1557 88.9099 77.1557C88.3916 77.1557 88.1424 77.365 88.1424 77.8534V78.252H89.2587ZM90.1657 83.6641V78.252H91.4415V83.6641H90.1657ZM90.8135 77.4846C90.4149 77.4846 90.076 77.1756 90.076 76.7869C90.076 76.4082 90.4149 76.0992 90.8135 76.0992C91.2222 76.0992 91.5511 76.4082 91.5511 76.7869C91.5511 77.1756 91.2222 77.4846 90.8135 77.4846ZM95.0196 83.7737C93.4049 83.7737 92.4282 82.6175 92.4282 80.983C92.4282 79.3285 93.4348 78.1823 95.0196 78.1823C96.3352 78.1823 97.2522 78.9497 97.3419 80.1158H96.1259C96.0262 79.5976 95.6475 79.1989 95.0295 79.1989C94.2422 79.1989 93.7139 79.8667 93.7139 80.9531C93.7139 82.0694 94.2322 82.7371 95.0295 82.7371C95.5977 82.7371 96.0163 82.4082 96.1259 81.8202H97.3419C97.2422 82.9664 96.3751 83.7737 95.0196 83.7737ZM98.0495 82.1391C98.0495 80.9232 99.0562 80.5644 100.063 80.5046C100.437 80.4796 101.214 80.4348 101.448 80.4248V79.9962C101.448 79.458 101.099 79.1491 100.471 79.1491C99.9034 79.1491 99.5545 79.4082 99.4549 79.7969H98.2289C98.3186 78.88 99.1459 78.1823 100.501 78.1823C101.528 78.1823 102.714 78.6009 102.714 80.0461V83.6641H101.498V82.9165H101.458C101.219 83.375 100.711 83.7737 99.8635 83.7737C98.8269 83.7737 98.0495 83.2056 98.0495 82.1391ZM99.2754 82.1292C99.2754 82.5976 99.6542 82.8368 100.192 82.8368C100.96 82.8368 101.458 82.3285 101.458 81.7205V81.272L100.262 81.3517C99.6542 81.4016 99.2754 81.6507 99.2754 82.1292ZM106.611 78.252V79.2288H105.545V82.0395C105.545 82.5577 105.804 82.6674 106.123 82.6674C106.272 82.6674 106.521 82.6574 106.681 82.6474V83.684C106.531 83.7139 106.282 83.7338 105.963 83.7338C105.006 83.7338 104.269 83.2654 104.279 82.2488V79.2288H103.501V78.252H104.279V76.9563H105.545V78.252H106.611ZM107.588 83.6641V78.252H108.864V83.6641H107.588ZM108.236 77.4846C107.837 77.4846 107.498 77.1756 107.498 76.7869C107.498 76.4082 107.837 76.0992 108.236 76.0992C108.644 76.0992 108.973 76.4082 108.973 76.7869C108.973 77.1756 108.644 77.4846 108.236 77.4846ZM112.442 83.7737C110.867 83.7737 109.85 82.6574 109.85 80.983C109.85 79.2986 110.867 78.1823 112.442 78.1823C114.026 78.1823 115.033 79.2986 115.033 80.983C115.033 82.6574 114.026 83.7737 112.442 83.7737ZM112.452 82.7571C113.319 82.7571 113.747 81.9697 113.747 80.973C113.747 79.9863 113.319 79.1889 112.452 79.1889C111.565 79.1889 111.136 79.9863 111.136 80.973C111.136 81.9697 111.565 82.7571 112.452 82.7571ZM117.296 80.4946V83.6641H116.02V78.252H117.236V79.169H117.306C117.555 78.561 118.103 78.1823 118.91 78.1823C120.037 78.1823 120.774 78.9198 120.764 80.2155V83.6641H119.498V80.4149C119.498 79.6873 119.11 79.2587 118.442 79.2587C117.764 79.2587 117.296 79.7072 117.296 80.4946Z" fill="var(--sol-element-primary)"/>
<path d="M177.45 82.6641V76.4789H178.561V81.7243H181.294V82.6641H177.45ZM184.19 82.758C182.789 82.758 181.935 81.8268 181.935 80.3745C181.935 78.9393 182.806 77.9654 184.131 77.9654C185.267 77.9654 186.249 78.6745 186.249 80.3062V80.6479H183.011C183.024 81.4381 183.49 81.9037 184.199 81.9037C184.677 81.9037 185.002 81.6987 185.139 81.4253H186.207C186.01 82.2284 185.267 82.758 184.19 82.758ZM183.02 79.9047H185.207C185.198 79.2725 184.78 78.8111 184.148 78.8111C183.49 78.8111 183.054 79.3109 183.02 79.9047ZM186.881 81.357C186.881 80.3147 187.744 80.0072 188.607 79.9559C188.928 79.9346 189.594 79.8961 189.795 79.8876V79.5202C189.795 79.0589 189.496 78.7941 188.957 78.7941C188.47 78.7941 188.171 79.0162 188.086 79.3494H187.035C187.112 78.5634 187.821 77.9654 188.983 77.9654C189.863 77.9654 190.88 78.3242 190.88 79.5629V82.6641H189.837V82.0233H189.803C189.598 82.4163 189.162 82.758 188.436 82.758C187.548 82.758 186.881 82.2711 186.881 81.357ZM187.932 81.3484C187.932 81.75 188.257 81.955 188.718 81.955C189.376 81.955 189.803 81.5193 189.803 80.9982V80.6137L188.778 80.6821C188.257 80.7248 187.932 80.9384 187.932 81.3484ZM191.905 82.6641V78.0252H192.964V78.7941H193.015C193.178 78.2644 193.63 77.9568 194.16 77.9568C194.28 77.9568 194.451 77.9654 194.553 77.9825V78.9905C194.459 78.9564 194.229 78.9222 194.049 78.9222C193.443 78.9222 192.998 79.3408 192.998 79.9303V82.6641H191.905ZM196.296 79.9474V82.6641H195.202V78.0252H196.245V78.8111H196.304C196.518 78.29 196.988 77.9654 197.68 77.9654C198.645 77.9654 199.277 78.5976 199.269 79.7082V82.6641H198.184V79.879C198.184 79.2554 197.851 78.888 197.278 78.888C196.697 78.888 196.296 79.2725 196.296 79.9474ZM202.387 82.6641V78.0252H203.429V78.8111H203.489C203.677 78.2815 204.147 77.9654 204.762 77.9654C205.394 77.9654 205.839 78.2815 206.018 78.8111H206.069C206.274 78.2986 206.787 77.9654 207.462 77.9654C208.307 77.9654 208.905 78.5121 208.905 79.5458V82.6641H207.821V79.7167C207.821 79.1358 207.47 78.8795 207.026 78.8795C206.488 78.8795 206.18 79.2468 206.18 79.768V82.6641H205.121V79.674C205.121 79.1956 204.796 78.8795 204.335 78.8795C203.865 78.8795 203.481 79.2639 203.481 79.8449V82.6641H202.387ZM211.972 82.758C210.623 82.758 209.751 81.8012 209.751 80.366C209.751 78.9222 210.623 77.9654 211.972 77.9654C213.331 77.9654 214.194 78.9222 214.194 80.366C214.194 81.8012 213.331 82.758 211.972 82.758ZM211.981 81.8866C212.724 81.8866 213.092 81.2117 213.092 80.3574C213.092 79.5117 212.724 78.8282 211.981 78.8282C211.221 78.8282 210.853 79.5117 210.853 80.3574C210.853 81.2117 211.221 81.8866 211.981 81.8866ZM215.039 82.6641V78.0252H216.099V78.7941H216.15C216.312 78.2644 216.765 77.9568 217.295 77.9568C217.414 77.9568 217.585 77.9654 217.688 77.9825V78.9905C217.594 78.9564 217.363 78.9222 217.184 78.9222C216.577 78.9222 216.133 79.3408 216.133 79.9303V82.6641H215.039ZM220.251 82.758C218.85 82.758 217.995 81.8268 217.995 80.3745C217.995 78.9393 218.867 77.9654 220.191 77.9654C221.327 77.9654 222.31 78.6745 222.31 80.3062V80.6479H219.072C219.085 81.4381 219.55 81.9037 220.259 81.9037C220.738 81.9037 221.062 81.6987 221.199 81.4253H222.267C222.07 82.2284 221.327 82.758 220.251 82.758ZM219.08 79.9047H221.267C221.259 79.2725 220.84 78.8111 220.208 78.8111C219.55 78.8111 219.114 79.3109 219.08 79.9047Z" fill="var(--sol-element-brand-variant)"/>
<path d="M176.878 84.0053H222.634V84.74H176.878V84.0053Z" fill="var(--sol-element-brand-variant)"/>
<mask id="mask0_1248_157323" style="mask-type:alpha" maskUnits="userSpaceOnUse" x="228" y="72" width="16" height="16">
<path d="M240.281 76.4646L236.581 80.1636L240.281 83.8632L239.637 84.5075L235.937 80.8079L232.238 84.5075L231.594 83.8632L235.293 80.1636L231.594 76.4646L232.238 75.8203L235.937 79.5193L239.637 75.8203L240.281 76.4646Z" fill="var(--sol-element-primary)"/>
</mask>
<g mask="url(#mask0_1248_157323)">
<rect x="228.756" y="72.873" width="14.5802" height="14.5802" fill="var(--sol-element-quaternary)"/>
</g>
<path d="M67.2373 99.5801V93.2168H68.0283V98.877H70.9814V99.5801H67.2373ZM73.8906 99.6768C72.5898 99.6768 71.7109 98.7012 71.7109 97.2158C71.7109 95.7305 72.5898 94.7461 73.8906 94.7461C75.1826 94.7461 76.0527 95.7305 76.0527 97.2158C76.0527 98.7012 75.1826 99.6768 73.8906 99.6768ZM73.8906 99.0088C74.8486 99.0088 75.2969 98.165 75.2969 97.2158C75.2969 96.2666 74.8486 95.4141 73.8906 95.4141C72.915 95.4141 72.4668 96.2666 72.4668 97.2158C72.4668 98.165 72.915 99.0088 73.8906 99.0088ZM77.0459 99.5801V94.8076H77.7754V95.5371H77.8281C78.0039 95.0537 78.4961 94.7285 79.0586 94.7285C79.1729 94.7285 79.3662 94.7373 79.4541 94.7461V95.5107C79.4014 95.4932 79.1904 95.458 78.9971 95.458C78.3115 95.458 77.8018 95.9326 77.8018 96.5742V99.5801H77.0459ZM82.0469 99.6768C80.667 99.6768 79.8145 98.7012 79.8145 97.2334C79.8145 95.7656 80.6758 94.7461 81.9766 94.7461C82.9785 94.7461 84.0332 95.3613 84.0332 97.1279V97.4443H80.5703C80.6055 98.4551 81.1943 99.0088 82.0469 99.0088C82.6182 99.0088 82.9785 98.7627 83.1543 98.4639H83.9629C83.7344 99.1846 83.0312 99.6768 82.0469 99.6768ZM80.5791 96.8027H83.2686C83.2686 96.0029 82.7588 95.4141 81.9766 95.4141C81.1504 95.4141 80.623 96.0645 80.5791 96.8027ZM85.0176 99.5801V94.8076H85.7471V95.5547H85.8086C86.0107 95.0449 86.4678 94.7461 87.0918 94.7461C87.7158 94.7461 88.1377 95.0449 88.3662 95.5547H88.4189C88.665 95.0625 89.166 94.7461 89.8516 94.7461C90.7041 94.7461 91.3105 95.2646 91.3105 96.3896V99.5801H90.5547V96.3984C90.5547 95.6953 90.1064 95.4229 89.5879 95.4229C88.9199 95.4229 88.542 95.8711 88.542 96.4775V99.5801H87.7773V96.3193C87.7773 95.7832 87.3906 95.4229 86.8457 95.4229C86.2744 95.4229 85.7734 95.9062 85.7734 96.6006V99.5801H85.0176ZM95.6699 93.2168V99.5801H94.8789V93.2168H95.6699ZM96.9795 101.373V94.8076H97.709V95.5635H97.7969C97.9551 95.3086 98.2539 94.7461 99.1768 94.7461C100.372 94.7461 101.207 95.6953 101.207 97.207C101.207 98.7188 100.372 99.6768 99.1855 99.6768C98.2715 99.6768 97.9551 99.1143 97.7969 98.8506H97.7354V101.373H96.9795ZM97.7178 97.1895C97.7178 98.2617 98.2012 99 99.0801 99C99.9854 99 100.451 98.209 100.451 97.1895C100.451 96.1963 99.9941 95.4229 99.0801 95.4229C98.1836 95.4229 97.7178 96.1348 97.7178 97.1895ZM104.846 96.0469C104.74 95.6514 104.441 95.3877 103.879 95.3877C103.29 95.3877 102.868 95.7041 102.868 96.1084C102.868 96.4248 103.123 96.6445 103.686 96.7764L104.397 96.9521C105.25 97.1543 105.672 97.5762 105.672 98.2441C105.672 99.0703 104.995 99.6768 103.8 99.6768C102.728 99.6768 102.086 99.2021 101.963 98.332H102.754C102.842 98.7979 103.185 99.0176 103.782 99.0176C104.459 99.0176 104.89 98.7363 104.89 98.2881C104.89 97.9541 104.652 97.7256 104.107 97.6025L103.387 97.4355C102.552 97.2422 102.112 96.7852 102.112 96.1523C102.112 95.335 102.824 94.7461 103.879 94.7461C104.863 94.7461 105.487 95.2734 105.584 96.0469H104.846ZM109.671 97.6201V94.8076H110.418V99.5801H109.671V98.7715H109.618C109.39 99.2549 108.924 99.6416 108.203 99.6416C107.298 99.6416 106.656 99.0527 106.656 97.8398V94.8076H107.412V97.7871C107.412 98.4727 107.843 98.9121 108.449 98.9121C108.985 98.9121 109.671 98.5078 109.671 97.6201ZM111.631 99.5801V94.8076H112.36V95.5547H112.422C112.624 95.0449 113.081 94.7461 113.705 94.7461C114.329 94.7461 114.751 95.0449 114.979 95.5547H115.032C115.278 95.0625 115.779 94.7461 116.465 94.7461C117.317 94.7461 117.924 95.2646 117.924 96.3896V99.5801H117.168V96.3984C117.168 95.6953 116.72 95.4229 116.201 95.4229C115.533 95.4229 115.155 95.8711 115.155 96.4775V99.5801H114.391V96.3193C114.391 95.7832 114.004 95.4229 113.459 95.4229C112.888 95.4229 112.387 95.9062 112.387 96.6006V99.5801H111.631ZM123.47 99.5801H121.492V93.2168H123.549C125.403 93.2168 126.502 94.4121 126.502 96.3896C126.502 98.376 125.403 99.5801 123.47 99.5801ZM122.283 98.877H123.417C124.981 98.877 125.729 97.9365 125.729 96.3896C125.729 94.8516 124.981 93.9199 123.496 93.9199H122.283V98.877ZM129.517 99.6768C128.216 99.6768 127.337 98.7012 127.337 97.2158C127.337 95.7305 128.216 94.7461 129.517 94.7461C130.809 94.7461 131.679 95.7305 131.679 97.2158C131.679 98.7012 130.809 99.6768 129.517 99.6768ZM129.517 99.0088C130.475 99.0088 130.923 98.165 130.923 97.2158C130.923 96.2666 130.475 95.4141 129.517 95.4141C128.541 95.4141 128.093 96.2666 128.093 97.2158C128.093 98.165 128.541 99.0088 129.517 99.0088ZM133.428 93.2168V99.5801H132.672V93.2168H133.428ZM136.583 99.6768C135.282 99.6768 134.403 98.7012 134.403 97.2158C134.403 95.7305 135.282 94.7461 136.583 94.7461C137.875 94.7461 138.745 95.7305 138.745 97.2158C138.745 98.7012 137.875 99.6768 136.583 99.6768ZM136.583 99.0088C137.541 99.0088 137.989 98.165 137.989 97.2158C137.989 96.2666 137.541 95.4141 136.583 95.4141C135.607 95.4141 135.159 96.2666 135.159 97.2158C135.159 98.165 135.607 99.0088 136.583 99.0088ZM139.738 99.5801V94.8076H140.468V95.5371H140.521C140.696 95.0537 141.188 94.7285 141.751 94.7285C141.865 94.7285 142.059 94.7373 142.146 94.7461V95.5107C142.094 95.4932 141.883 95.458 141.689 95.458C141.004 95.458 140.494 95.9326 140.494 96.5742V99.5801H139.738ZM148.712 94.8164C148.642 94.1924 148.07 93.832 147.306 93.832C146.462 93.832 145.908 94.2715 145.908 94.8779C145.908 95.5459 146.655 95.792 147.139 95.915L147.771 96.0908C148.457 96.2666 149.573 96.6621 149.573 97.8486C149.573 98.8857 148.738 99.6943 147.262 99.6943C145.891 99.6943 145.038 98.9824 144.968 97.9277H145.776C145.847 98.6396 146.506 98.9736 147.262 98.9736C148.141 98.9736 148.8 98.5254 148.8 97.8311C148.8 97.2158 148.211 96.9785 147.543 96.7852L146.761 96.5742C145.759 96.2842 145.144 95.7744 145.144 94.9131C145.144 93.8408 146.102 93.1289 147.332 93.1289C148.562 93.1289 149.45 93.8496 149.485 94.8164H148.712ZM150.61 99.5801V94.8076H151.366V99.5801H150.61ZM150.988 94.0166C150.698 94.0166 150.461 93.7969 150.461 93.5156C150.461 93.2344 150.698 93.0146 150.988 93.0146C151.278 93.0146 151.524 93.2344 151.524 93.5156C151.524 93.7969 151.278 94.0166 150.988 94.0166ZM154.653 94.8076V95.4404H153.651V98.209C153.651 98.8242 153.95 98.9209 154.275 98.9209C154.416 98.9209 154.609 98.9121 154.724 98.9033V99.6064C154.609 99.624 154.416 99.6416 154.196 99.6416C153.563 99.6416 152.887 99.2461 152.887 98.4023V95.4404H152.166V94.8076H152.887V93.665H153.651V94.8076H154.653ZM158.266 99.5801H157.439L159.769 93.2168H160.604L162.933 99.5801H162.098L161.465 97.7871H158.907L158.266 99.5801ZM159.145 97.0928H161.219L160.208 94.2451H160.155L159.145 97.0928ZM163.697 99.5801V94.8076H164.427V95.5547H164.488C164.69 95.0449 165.147 94.7461 165.771 94.7461C166.396 94.7461 166.817 95.0449 167.046 95.5547H167.099C167.345 95.0625 167.846 94.7461 168.531 94.7461C169.384 94.7461 169.99 95.2646 169.99 96.3896V99.5801H169.234V96.3984C169.234 95.6953 168.786 95.4229 168.268 95.4229C167.6 95.4229 167.222 95.8711 167.222 96.4775V99.5801H166.457V96.3193C166.457 95.7832 166.07 95.4229 165.525 95.4229C164.954 95.4229 164.453 95.9062 164.453 96.6006V99.5801H163.697ZM173.207 99.6768C171.827 99.6768 170.975 98.7012 170.975 97.2334C170.975 95.7656 171.836 94.7461 173.137 94.7461C174.139 94.7461 175.193 95.3613 175.193 97.1279V97.4443H171.73C171.766 98.4551 172.354 99.0088 173.207 99.0088C173.778 99.0088 174.139 98.7627 174.314 98.4639H175.123C174.895 99.1846 174.191 99.6768 173.207 99.6768ZM171.739 96.8027H174.429C174.429 96.0029 173.919 95.4141 173.137 95.4141C172.311 95.4141 171.783 96.0645 171.739 96.8027ZM178.261 94.8076V95.4404H177.259V98.209C177.259 98.8242 177.558 98.9209 177.883 98.9209C178.023 98.9209 178.217 98.9121 178.331 98.9033V99.6064C178.217 99.624 178.023 99.6416 177.804 99.6416C177.171 99.6416 176.494 99.2461 176.494 98.4023V95.4404H175.773V94.8076H176.494V93.665H177.259V94.8076H178.261ZM180.229 98.9912L179.544 101.382H178.894L179.377 98.9912H180.229ZM188.245 95.2207C188.061 94.3418 187.305 93.8672 186.47 93.8672C185.318 93.8672 184.422 94.7549 184.422 96.3984C184.422 98.042 185.318 98.9297 186.47 98.9297C187.305 98.9297 188.052 98.4551 188.245 97.585H189.036C188.808 98.8857 187.762 99.668 186.47 99.668C184.835 99.668 183.657 98.4111 183.657 96.3984C183.657 94.3857 184.835 93.1289 186.47 93.1289C187.753 93.1289 188.799 93.9023 189.036 95.2207H188.245ZM191.998 99.6768C190.697 99.6768 189.818 98.7012 189.818 97.2158C189.818 95.7305 190.697 94.7461 191.998 94.7461C193.29 94.7461 194.16 95.7305 194.16 97.2158C194.16 98.7012 193.29 99.6768 191.998 99.6768ZM191.998 99.0088C192.956 99.0088 193.404 98.165 193.404 97.2158C193.404 96.2666 192.956 95.4141 191.998 95.4141C191.022 95.4141 190.574 96.2666 190.574 97.2158C190.574 98.165 191.022 99.0088 191.998 99.0088ZM195.909 96.7148V99.5801H195.153V94.8076H195.883V95.5547H195.944C196.173 95.0713 196.612 94.7461 197.342 94.7461C198.309 94.7461 198.95 95.335 198.95 96.5479V99.5801H198.194V96.6006C198.194 95.8623 197.79 95.4229 197.113 95.4229C196.419 95.4229 195.909 95.8887 195.909 96.7148ZM202.817 96.0469C202.712 95.6514 202.413 95.3877 201.851 95.3877C201.262 95.3877 200.84 95.7041 200.84 96.1084C200.84 96.4248 201.095 96.6445 201.657 96.7764L202.369 96.9521C203.222 97.1543 203.644 97.5762 203.644 98.2441C203.644 99.0703 202.967 99.6768 201.771 99.6768C200.699 99.6768 200.058 99.2021 199.935 98.332H200.726C200.813 98.7979 201.156 99.0176 201.754 99.0176C202.431 99.0176 202.861 98.7363 202.861 98.2881C202.861 97.9541 202.624 97.7256 202.079 97.6025L201.358 97.4355C200.523 97.2422 200.084 96.7852 200.084 96.1523C200.084 95.335 200.796 94.7461 201.851 94.7461C202.835 94.7461 203.459 95.2734 203.556 96.0469H202.817ZM206.632 99.6768C205.252 99.6768 204.399 98.7012 204.399 97.2334C204.399 95.7656 205.261 94.7461 206.562 94.7461C207.563 94.7461 208.618 95.3613 208.618 97.1279V97.4443H205.155C205.19 98.4551 205.779 99.0088 206.632 99.0088C207.203 99.0088 207.563 98.7627 207.739 98.4639H208.548C208.319 99.1846 207.616 99.6768 206.632 99.6768ZM205.164 96.8027H207.854C207.854 96.0029 207.344 95.4141 206.562 95.4141C205.735 95.4141 205.208 96.0645 205.164 96.8027ZM211.554 99.6768C210.2 99.6768 209.374 98.6484 209.374 97.2158C209.374 95.7656 210.235 94.7461 211.536 94.7461C212.556 94.7461 213.312 95.3438 213.435 96.249H212.679C212.573 95.8096 212.187 95.4141 211.554 95.4141C210.701 95.4141 210.13 96.1172 210.13 97.1895C210.13 98.2969 210.684 99 211.554 99C212.116 99 212.547 98.7012 212.679 98.1738H213.435C213.312 99.0264 212.617 99.6768 211.554 99.6768ZM216.449 94.8076V95.4404H215.447V98.209C215.447 98.8242 215.746 98.9209 216.071 98.9209C216.212 98.9209 216.405 98.9121 216.52 98.9033V99.6064C216.405 99.624 216.212 99.6416 215.992 99.6416C215.359 99.6416 214.683 99.2461 214.683 98.4023V95.4404H213.962V94.8076H214.683V93.665H215.447V94.8076H216.449ZM219.385 99.6768C218.005 99.6768 217.152 98.7012 217.152 97.2334C217.152 95.7656 218.014 94.7461 219.314 94.7461C220.316 94.7461 221.371 95.3613 221.371 97.1279V97.4443H217.908C217.943 98.4551 218.532 99.0088 219.385 99.0088C219.956 99.0088 220.316 98.7627 220.492 98.4639H221.301C221.072 99.1846 220.369 99.6768 219.385 99.6768ZM217.917 96.8027H220.606C220.606 96.0029 220.097 95.4141 219.314 95.4141C218.488 95.4141 217.961 96.0645 217.917 96.8027ZM224.438 94.8076V95.4404H223.437V98.209C223.437 98.8242 223.735 98.9209 224.061 98.9209C224.201 98.9209 224.395 98.9121 224.509 98.9033V99.6064C224.395 99.624 224.201 99.6416 223.981 99.6416C223.349 99.6416 222.672 99.2461 222.672 98.4023V95.4404H221.951V94.8076H222.672V93.665H223.437V94.8076H224.438ZM228.429 97.6201V94.8076H229.176V99.5801H228.429V98.7715H228.376C228.147 99.2549 227.682 99.6416 226.961 99.6416C226.056 99.6416 225.414 99.0527 225.414 97.8398V94.8076H226.17V97.7871C226.17 98.4727 226.601 98.9121 227.207 98.9121C227.743 98.9121 228.429 98.5078 228.429 97.6201ZM230.389 99.5801V94.8076H231.118V95.5371H231.171C231.347 95.0537 231.839 94.7285 232.401 94.7285C232.516 94.7285 232.709 94.7373 232.797 94.7461V95.5107C232.744 95.4932 232.533 95.458 232.34 95.458C231.654 95.458 231.145 95.9326 231.145 96.5742V99.5801H230.389ZM67.5186 111.58H66.6924L69.0215 105.217H69.8564L72.1855 111.58H71.3506L70.7178 109.787H68.1602L67.5186 111.58ZM68.3975 109.093H70.4717L69.4609 106.245H69.4082L68.3975 109.093ZM74.7432 111.677C73.5566 111.677 72.7129 110.719 72.7129 109.207C72.7129 107.695 73.5566 106.746 74.752 106.746C75.6748 106.746 75.9736 107.309 76.1318 107.563H76.1846V105.217H76.9492V111.58H76.2109V110.851H76.1318C75.9648 111.114 75.6572 111.677 74.7432 111.677ZM74.8486 111C75.7188 111 76.2109 110.262 76.2109 109.189C76.2109 108.135 75.7363 107.423 74.8486 107.423C73.9346 107.423 73.4775 108.196 73.4775 109.189C73.4775 110.209 73.9434 111 74.8486 111ZM78.2588 111.58V106.808H79.0146V111.58H78.2588ZM78.6367 106.017C78.3467 106.017 78.1094 105.797 78.1094 105.516C78.1094 105.234 78.3467 105.015 78.6367 105.015C78.9268 105.015 79.1729 105.234 79.1729 105.516C79.1729 105.797 78.9268 106.017 78.6367 106.017ZM80.2188 113.373V106.808H80.9482V107.563H81.0361C81.1943 107.309 81.4932 106.746 82.416 106.746C83.6113 106.746 84.4463 107.695 84.4463 109.207C84.4463 110.719 83.6113 111.677 82.4248 111.677C81.5107 111.677 81.1943 111.114 81.0361 110.851H80.9746V113.373H80.2188ZM80.957 109.189C80.957 110.262 81.4404 111 82.3193 111C83.2246 111 83.6904 110.209 83.6904 109.189C83.6904 108.196 83.2334 107.423 82.3193 107.423C81.4229 107.423 80.957 108.135 80.957 109.189ZM85.4307 111.58V106.808H86.1865V111.58H85.4307ZM85.8086 106.017C85.5186 106.017 85.2812 105.797 85.2812 105.516C85.2812 105.234 85.5186 105.015 85.8086 105.015C86.0986 105.015 86.3447 105.234 86.3447 105.516C86.3447 105.797 86.0986 106.017 85.8086 106.017ZM90.0449 108.047C89.9395 107.651 89.6406 107.388 89.0781 107.388C88.4893 107.388 88.0674 107.704 88.0674 108.108C88.0674 108.425 88.3223 108.645 88.8848 108.776L89.5967 108.952C90.4492 109.154 90.8711 109.576 90.8711 110.244C90.8711 111.07 90.1943 111.677 88.999 111.677C87.9268 111.677 87.2852 111.202 87.1621 110.332H87.9531C88.041 110.798 88.3838 111.018 88.9814 111.018C89.6582 111.018 90.0889 110.736 90.0889 110.288C90.0889 109.954 89.8516 109.726 89.3066 109.603L88.5859 109.436C87.751 109.242 87.3115 108.785 87.3115 108.152C87.3115 107.335 88.0234 106.746 89.0781 106.746C90.0625 106.746 90.6865 107.273 90.7832 108.047H90.0449ZM93.8066 111.677C92.4531 111.677 91.627 110.648 91.627 109.216C91.627 107.766 92.4883 106.746 93.7891 106.746C94.8086 106.746 95.5645 107.344 95.6875 108.249H94.9316C94.8262 107.81 94.4395 107.414 93.8066 107.414C92.9541 107.414 92.3828 108.117 92.3828 109.189C92.3828 110.297 92.9365 111 93.8066 111C94.3691 111 94.7998 110.701 94.9316 110.174H95.6875C95.5645 111.026 94.8701 111.677 93.8066 111.677ZM96.6191 111.58V106.808H97.375V111.58H96.6191ZM96.9971 106.017C96.707 106.017 96.4697 105.797 96.4697 105.516C96.4697 105.234 96.707 105.015 96.9971 105.015C97.2871 105.015 97.5332 105.234 97.5332 105.516C97.5332 105.797 97.2871 106.017 96.9971 106.017ZM99.335 108.715V111.58H98.5791V106.808H99.3086V107.555H99.3701C99.5986 107.071 100.038 106.746 100.768 106.746C101.734 106.746 102.376 107.335 102.376 108.548V111.58H101.62V108.601C101.62 107.862 101.216 107.423 100.539 107.423C99.8447 107.423 99.335 107.889 99.335 108.715ZM105.522 113.47C104.371 113.47 103.589 112.969 103.501 112.081H104.292C104.397 112.564 104.846 112.811 105.522 112.811C106.34 112.811 106.841 112.459 106.841 111.668V110.701H106.779C106.621 110.965 106.313 111.51 105.391 111.51C104.23 111.51 103.36 110.631 103.36 109.128C103.36 107.66 104.204 106.746 105.399 106.746C106.322 106.746 106.621 107.309 106.797 107.563H106.858V106.808H107.597V111.712C107.597 112.942 106.683 113.47 105.522 113.47ZM105.496 110.833C106.366 110.833 106.858 110.209 106.858 109.154C106.858 108.135 106.384 107.423 105.496 107.423C104.582 107.423 104.125 108.196 104.125 109.154C104.125 110.147 104.591 110.833 105.496 110.833ZM111.156 111.58V105.217H115.015V105.92H111.947V108.047H114.812V108.741H111.947V110.877H115.059V111.58H111.156ZM116.922 105.217V111.58H116.166V105.217H116.922ZM118.126 111.58V106.808H118.882V111.58H118.126ZM118.504 106.017C118.214 106.017 117.977 105.797 117.977 105.516C117.977 105.234 118.214 105.015 118.504 105.015C118.794 105.015 119.04 105.234 119.04 105.516C119.04 105.797 118.794 106.017 118.504 106.017ZM122.169 106.808V107.44H121.167V110.209C121.167 110.824 121.466 110.921 121.791 110.921C121.932 110.921 122.125 110.912 122.239 110.903V111.606C122.125 111.624 121.932 111.642 121.712 111.642C121.079 111.642 120.402 111.246 120.402 110.402V107.44H119.682V106.808H120.402V105.665H121.167V106.808H122.169Z" fill="var(--sol-element-tertiary)"/>
<rect x="33" y="128.074" width="222" height="2.91603" fill="var(--sol-element-primary)" fill-opacity="0.12"/>
<rect x="33" y="128.074" width="62.6947" height="2.91603" fill="var(--sol-error)"/>
</g>
<path d="M35.916 61.3643H252.084C253.493 61.3643 254.636 62.5069 254.636 63.916V128.084C254.636 129.493 253.493 130.636 252.084 130.636H35.916C34.5069 130.636 33.3643 129.493 33.3643 128.084V63.916C33.3643 62.5069 34.5069 61.3643 35.916 61.3643Z" stroke="var(--sol-border-solid-variant)" stroke-width="0.729008"/>
</g>
<rect y="140" width="302" height="52" fill="url(#paint0_linear_1248_157323)"/>
</g>
<defs>
<filter id="filter0_dd_1248_157323" x="24.2519" y="56.626" width="239.496" height="87.4962" filterUnits="userSpaceOnUse" color-interpolation-filters="sRGB">
<feFlood flood-opacity="0" result="BackgroundImageFix"/>
<feColorMatrix in="SourceAlpha" type="matrix" values="0 0 0 0 0 0 0 0 0 0 0 0 0 0 0 0 0 0 127 0" result="hardAlpha"/>
<feOffset dy="4.37405"/>
<feGaussianBlur stdDeviation="4.37405"/>
<feComposite in2="hardAlpha" operator="out"/>
<feColorMatrix type="matrix" values="0 0 0 0 0 0 0 0 0 0 0 0 0 0 0 0 0 0 0.08 0"/>
<feBlend mode="normal" in2="BackgroundImageFix" result="effect1_dropShadow_1248_157323"/>
<feColorMatrix in="SourceAlpha" type="matrix" values="0 0 0 0 0 0 0 0 0 0 0 0 0 0 0 0 0 0 127 0" result="hardAlpha"/>
<feOffset dy="1.45802"/>
<feGaussianBlur stdDeviation="2.91603"/>
<feComposite in2="hardAlpha" operator="out"/>
<feColorMatrix type="matrix" values="0 0 0 0 0 0 0 0 0 0 0 0 0 0 0 0 0 0 0.08 0"/>
<feBlend mode="normal" in2="effect1_dropShadow_1248_157323" result="effect2_dropShadow_1248_157323"/>
<feBlend mode="normal" in="SourceGraphic" in2="effect2_dropShadow_1248_157323" result="shape"/>
</filter>
<linearGradient id="paint0_linear_1248_157323" x1="259.531" y1="192" x2="259.531" y2="140" gradientUnits="userSpaceOnUse">
<stop stop-opacity="0.04"/>
<stop offset="1" stop-color="var(--sol-surface)" stop-opacity="0"/>
</linearGradient>
<clipPath id="clip0_1248_157323">
<rect width="288" height="192" fill="var(--sol-surface)"/>
</clipPath>
<clipPath id="clip1_1248_157323">
<path d="M33 63.916C33 62.3056 34.3056 61 35.916 61H252.084C253.694 61 255 62.3056 255 63.916V128.084C255 129.694 253.694 131 252.084 131H35.916C34.3055 131 33 129.694 33 128.084V63.916Z" fill="var(--sol-surface)"/>
</clipPath>
</defs>
</svg>
