<svg width="288" height="192" viewBox="0 0 288 192" fill="none" xmlns="http://www.w3.org/2000/svg">
<style>
:root {
  --sol-primary: #282363;
  --sol-element-brand-variant: #3a3480;
  --sol-fill-active: #4d469a;
  --sol-selected-container-variant: #f5f4fd;
  --sol-surface: #ffffff;
  --sol-surface-base-variant: #f5f5f5;
  --sol-secondary-container: #e8e6f8;
  --sol-element-primary: #161616;
  --sol-element-secondary: #484848;
  --sol-element-tertiary: #636363;
  --sol-element-quaternary: #858585;
  --sol-border-brand: #7b74c4;
  --sol-border-normal-variant: rgba(0, 0, 0, 0.08);
  --sol-border-solid-variant: #e0e0e0;
  --sol-border-solid: #d0d0d0;
  --sol-error: #e76067;
  --sol-error-container: #fdeaeb;
  --sol-static-white: #ffffff;
  --sol-static-black: #000000;
  --color-brand-400: #6058b4;
  --color-teal-500: #05a09a;
  --color-green-500: #35a142;
  --color-yellow-500: #d4ae00;
  --color-orange-500: #e06418;
  --color-blue-500: #3e9bca;
  --color-indigo-500: #3d5ed6;
  --color-pink-500: #d03e94;
}
@media (prefers-color-scheme: dark) {
  :root {
    --sol-primary: #9791d4;
    --sol-element-brand-variant: #ffffff;
    --sol-fill-active: #7b74c4;
    --sol-selected-container-variant: rgba(0, 0, 0, 0.08);
    --sol-surface: #161616;
    --sol-surface-base-variant: #1c1c1c;
    --sol-secondary-container: rgba(255, 255, 255, 0.16);
    --sol-element-primary: #ffffff;
    --sol-element-secondary: rgba(255, 255, 255, 0.8);
    --sol-element-tertiary: rgba(255, 255, 255, 0.6);
    --sol-element-quaternary: rgba(255, 255, 255, 0.5);
    --sol-border-brand: #7b74c4;
    --sol-border-normal-variant: rgba(255, 255, 255, 0.08);
    --sol-border-solid-variant: #3d3d3d;
    --sol-border-solid: #333333;
    --sol-error: #ee7a80;
    --sol-error-container: rgba(231, 96, 103, 0.24);
    --sol-static-white: #ffffff;
    --sol-static-black: #000000;
  }
}
</style>
<g clip-path="url(#clip0_1254_161910)">
<g clip-path="url(#clip1_1254_161910)">
<path d="M24 96.0003C24 87.8291 30.624 81.2051 38.7952 81.2051H86.5904C94.7615 81.2051 101.386 87.8291 101.386 96.0003C101.386 104.171 94.7615 110.795 86.5904 110.795H38.7952C30.624 110.795 24 104.171 24 96.0003Z" fill="var(--sol-fill-active)"/>
<path d="M37.979 90.0393V100.5H36.1296V90.0393H37.979ZM39.3805 98.2894C39.3805 96.5267 40.8398 96.0065 42.2991 95.9199C42.8409 95.8837 43.9679 95.8187 44.3075 95.8043V95.183C44.3075 94.4028 43.8018 93.9549 42.8915 93.9549C42.0679 93.9549 41.5623 94.3305 41.4178 94.894H39.6406C39.7706 93.5648 40.9699 92.5534 42.9349 92.5534C44.423 92.5534 46.1424 93.1602 46.1424 95.2552V100.5H44.3797V99.4164H44.3219C43.9751 100.081 43.2383 100.659 42.0102 100.659C40.5075 100.659 39.3805 99.8354 39.3805 98.2894ZM41.1577 98.2749C41.1577 98.954 41.7067 99.3008 42.487 99.3008C43.5995 99.3008 44.3219 98.5639 44.3219 97.6826V97.0324L42.5881 97.148C41.7067 97.2202 41.1577 97.5814 41.1577 98.2749ZM47.9629 100.5V90.0393H49.8123V93.9404H49.8845C50.1735 93.3769 50.737 92.5534 52.124 92.5534C53.9445 92.5534 55.3749 93.9693 55.3749 96.5845C55.3749 99.1707 53.9734 100.644 52.1385 100.644C50.7803 100.644 50.1735 99.8354 49.8845 99.2574H49.769V100.5H47.9629ZM49.769 96.57C49.769 98.1016 50.4336 99.1274 51.6184 99.1274C52.8465 99.1274 53.4966 98.0582 53.4966 96.57C53.4966 95.1107 52.8609 94.056 51.6184 94.056C50.4336 94.056 49.769 95.0529 49.769 96.57ZM60.3019 100.659C57.9323 100.659 56.4875 99.0841 56.4875 96.6278C56.4875 94.2005 57.9612 92.5534 60.2007 92.5534C62.1224 92.5534 63.7839 93.7526 63.7839 96.5122V97.0902H58.308C58.3296 98.4267 59.1171 99.2141 60.3163 99.2141C61.1254 99.2141 61.6745 98.8673 61.9056 98.405H63.7117C63.3794 99.7631 62.1224 100.659 60.3019 100.659ZM58.3224 95.8332H62.0212C62.0068 94.764 61.2988 93.9838 60.2296 93.9838C59.1171 93.9838 58.3802 94.829 58.3224 95.8332ZM67.0637 90.0393V100.5H65.2143V90.0393H67.0637Z" fill="var(--sol-surface)"/>
<path d="M86.074 94.0985L81.4505 98.722C81.2248 98.9477 80.859 98.9477 80.6333 98.722L76.0098 94.0985L76.827 93.2812L81.0419 97.4961L85.2568 93.2812L86.074 94.0985Z" fill="var(--sol-surface)"/>
</g>
<g clip-path="url(#clip2_1254_161910)">
<path d="M108.783 96.0003C108.783 87.8291 115.407 81.2051 123.578 81.2051H152.181C160.352 81.2051 166.976 87.8291 166.976 96.0003C166.976 104.171 160.352 110.795 152.181 110.795H123.578C115.407 110.795 108.783 104.171 108.783 96.0003Z" fill="var(--sol-surface)"/>
<path d="M123.578 81.667H151.491C159.407 81.6671 165.824 88.0844 165.824 96C165.824 103.916 159.407 110.333 151.491 110.333H123.578C115.662 110.333 109.245 103.916 109.245 96C109.245 88.0844 115.663 81.6671 123.578 81.667Z" stroke="var(--sol-element-primary)" stroke-opacity="0.16" stroke-width="0.924699"/>
<path d="M121.062 100.5V90.0393H122.362V99.3441H127.217V100.5H121.062ZM128.416 98.2749C128.416 96.4689 130.005 96.0643 131.364 95.9632C131.862 95.9271 133.134 95.8621 133.488 95.8476V95.2119C133.488 94.2149 132.895 93.637 131.71 93.637C130.713 93.637 130.121 94.0994 129.948 94.6917H128.647C128.806 93.4347 130.034 92.5534 131.768 92.5534C132.794 92.5534 134.716 92.8568 134.716 95.3275V100.5H133.488V99.4308H133.43C133.17 99.9654 132.447 100.688 131.089 100.688C129.601 100.688 128.416 99.8065 128.416 98.2749ZM129.659 98.3327C129.659 99.1563 130.352 99.5753 131.306 99.5753C132.707 99.5753 133.488 98.6362 133.488 97.6537V96.859L131.508 97.0035C130.381 97.0757 129.659 97.4803 129.659 98.3327ZM136.868 100.5V90.0393H138.111V93.8971H138.212C138.487 93.4781 138.949 92.5534 140.481 92.5534C142.446 92.5534 143.833 94.1138 143.833 96.5989C143.833 99.0841 142.446 100.659 140.495 100.659C138.992 100.659 138.487 99.7342 138.212 99.3008H138.068V100.5H136.868ZM138.082 96.57C138.082 98.3327 138.877 99.5464 140.307 99.5464C141.795 99.5464 142.576 98.246 142.576 96.57C142.576 94.9374 141.824 93.6659 140.307 93.6659C138.862 93.6659 138.082 94.8362 138.082 96.57ZM148.745 100.659C146.477 100.659 145.075 99.0552 145.075 96.6423C145.075 94.2294 146.491 92.5534 148.63 92.5534C150.277 92.5534 152.01 93.5648 152.01 96.4689V96.989H146.318C146.376 98.6506 147.344 99.5609 148.745 99.5609C149.684 99.5609 150.277 99.1563 150.566 98.6651H151.895C151.519 99.8498 150.363 100.659 148.745 100.659ZM146.332 95.9343H150.753C150.753 94.6195 149.915 93.6514 148.63 93.6514C147.271 93.6514 146.404 94.7206 146.332 95.9343ZM154.871 90.0393V100.5H153.629V90.0393H154.871Z" fill="var(--sol-element-quaternary)"/>
</g>
<g clip-path="url(#clip3_1254_161910)">
<path d="M174.373 96.0003C174.373 87.8291 180.997 81.2051 189.168 81.2051H217.771C225.942 81.2051 232.566 87.8291 232.566 96.0003C232.566 104.171 225.942 110.795 217.771 110.795H189.168C180.997 110.795 174.373 104.171 174.373 96.0003Z" fill="var(--sol-surface)"/>
<path d="M189.168 81.667H217.081C224.997 81.6671 231.414 88.0844 231.414 96C231.414 103.916 224.997 110.333 217.081 110.333H189.168C181.252 110.333 174.835 103.916 174.835 96C174.835 88.0844 181.252 81.6671 189.168 81.667Z" stroke="var(--sol-element-primary)" stroke-opacity="0.16" stroke-width="0.924699"/>
<path d="M186.652 100.5V90.0393H187.952V99.3441H192.807V100.5H186.652ZM194.006 98.2749C194.006 96.4689 195.595 96.0643 196.953 95.9632C197.452 95.9271 198.723 95.8621 199.077 95.8476V95.2119C199.077 94.2149 198.485 93.637 197.3 93.637C196.303 93.637 195.711 94.0994 195.538 94.6917H194.237C194.396 93.4347 195.624 92.5534 197.358 92.5534C198.384 92.5534 200.306 92.8568 200.306 95.3275V100.5H199.077V99.4308H199.02C198.76 99.9654 198.037 100.688 196.679 100.688C195.191 100.688 194.006 99.8065 194.006 98.2749ZM195.249 98.3327C195.249 99.1563 195.942 99.5753 196.896 99.5753C198.297 99.5753 199.077 98.6362 199.077 97.6537V96.859L197.098 97.0035C195.971 97.0757 195.249 97.4803 195.249 98.3327ZM202.458 100.5V90.0393H203.701V93.8971H203.802C204.077 93.4781 204.539 92.5534 206.07 92.5534C208.035 92.5534 209.422 94.1138 209.422 96.5989C209.422 99.0841 208.035 100.659 206.085 100.659C204.582 100.659 204.077 99.7342 203.802 99.3008H203.658V100.5H202.458ZM203.672 96.57C203.672 98.3327 204.467 99.5464 205.897 99.5464C207.385 99.5464 208.165 98.246 208.165 96.57C208.165 94.9374 207.414 93.6659 205.897 93.6659C204.452 93.6659 203.672 94.8362 203.672 96.57ZM214.335 100.659C212.067 100.659 210.665 99.0552 210.665 96.6423C210.665 94.2294 212.081 92.5534 214.219 92.5534C215.866 92.5534 217.6 93.5648 217.6 96.4689V96.989H211.908C211.965 98.6506 212.933 99.5609 214.335 99.5609C215.274 99.5609 215.866 99.1563 216.155 98.6651H217.485C217.109 99.8498 215.953 100.659 214.335 100.659ZM211.922 95.9343H216.343C216.343 94.6195 215.505 93.6514 214.219 93.6514C212.861 93.6514 211.994 94.7206 211.922 95.9343ZM220.461 90.0393V100.5H219.218V90.0393H220.461Z" fill="var(--sol-element-quaternary)"/>
</g>
<g clip-path="url(#clip4_1254_161910)">
<path d="M239.964 96.0003C239.964 87.8291 246.588 81.2051 254.759 81.2051H283.361C291.533 81.2051 298.157 87.8291 298.157 96.0003C298.157 104.171 291.533 110.795 283.361 110.795H254.759C246.588 110.795 239.964 104.171 239.964 96.0003Z" fill="var(--sol-surface)"/>
<path d="M254.759 81.667H282.672C290.588 81.6671 297.005 88.0844 297.005 96C297.005 103.916 290.588 110.333 282.672 110.333H254.759C246.843 110.333 240.426 103.916 240.426 96C240.426 88.0844 246.843 81.6671 254.759 81.667Z" stroke="var(--sol-element-primary)" stroke-opacity="0.16" stroke-width="0.924699"/>
<path d="M252.243 100.5V90.0393H253.543V99.3441H258.398V100.5H252.243ZM259.597 98.2749C259.597 96.4689 261.186 96.0643 262.544 95.9632C263.043 95.9271 264.314 95.8621 264.668 95.8476V95.2119C264.668 94.2149 264.076 93.637 262.891 93.637C261.894 93.637 261.302 94.0994 261.128 94.6917H259.828C259.987 93.4347 261.215 92.5534 262.949 92.5534C263.975 92.5534 265.896 92.8568 265.896 95.3275V100.5H264.668V99.4308H264.61C264.35 99.9654 263.628 100.688 262.27 100.688C260.782 100.688 259.597 99.8065 259.597 98.2749ZM260.839 98.3327C260.839 99.1563 261.533 99.5753 262.487 99.5753C263.888 99.5753 264.668 98.6362 264.668 97.6537V96.859L262.689 97.0035C261.562 97.0757 260.839 97.4803 260.839 98.3327ZM268.049 100.5V90.0393H269.292V93.8971H269.393C269.667 93.4781 270.13 92.5534 271.661 92.5534C273.626 92.5534 275.013 94.1138 275.013 96.5989C275.013 99.0841 273.626 100.659 271.676 100.659C270.173 100.659 269.667 99.7342 269.393 99.3008H269.248V100.5H268.049ZM269.263 96.57C269.263 98.3327 270.057 99.5464 271.488 99.5464C272.976 99.5464 273.756 98.246 273.756 96.57C273.756 94.9374 273.005 93.6659 271.488 93.6659C270.043 93.6659 269.263 94.8362 269.263 96.57ZM279.926 100.659C277.657 100.659 276.256 99.0552 276.256 96.6423C276.256 94.2294 277.672 92.5534 279.81 92.5534C281.457 92.5534 283.191 93.5648 283.191 96.4689V96.989H277.498C277.556 98.6506 278.524 99.5609 279.926 99.5609C280.865 99.5609 281.457 99.1563 281.746 98.6651H283.076C282.7 99.8498 281.544 100.659 279.926 100.659ZM277.513 95.9343H281.934C281.934 94.6195 281.096 93.6514 279.81 93.6514C278.452 93.6514 277.585 94.7206 277.513 95.9343ZM286.052 90.0393V100.5H284.809V90.0393H286.052Z" fill="var(--sol-element-quaternary)"/>
</g>
</g>
<defs>
<clipPath id="clip0_1254_161910">
<rect width="288" height="192" fill="var(--sol-surface)"/>
</clipPath>
<clipPath id="clip1_1254_161910">
<path d="M24 96.0003C24 87.8291 30.624 81.2051 38.7952 81.2051H86.5904C94.7615 81.2051 101.386 87.8291 101.386 96.0003C101.386 104.171 94.7615 110.795 86.5904 110.795H38.7952C30.624 110.795 24 104.171 24 96.0003Z" fill="var(--sol-surface)"/>
</clipPath>
<clipPath id="clip2_1254_161910">
<path d="M108.783 96.0003C108.783 87.8291 115.407 81.2051 123.578 81.2051H152.181C160.352 81.2051 166.976 87.8291 166.976 96.0003C166.976 104.171 160.352 110.795 152.181 110.795H123.578C115.407 110.795 108.783 104.171 108.783 96.0003Z" fill="var(--sol-surface)"/>
</clipPath>
<clipPath id="clip3_1254_161910">
<path d="M174.373 96.0003C174.373 87.8291 180.997 81.2051 189.168 81.2051H217.771C225.942 81.2051 232.566 87.8291 232.566 96.0003C232.566 104.171 225.942 110.795 217.771 110.795H189.168C180.997 110.795 174.373 104.171 174.373 96.0003Z" fill="var(--sol-surface)"/>
</clipPath>
<clipPath id="clip4_1254_161910">
<path d="M239.964 96.0003C239.964 87.8291 246.588 81.2051 254.759 81.2051H283.361C291.533 81.2051 298.157 87.8291 298.157 96.0003C298.157 104.171 291.533 110.795 283.361 110.795H254.759C246.588 110.795 239.964 104.171 239.964 96.0003Z" fill="var(--sol-surface)"/>
</clipPath>
</defs>
</svg>
