<svg width="288" height="192" viewBox="0 0 288 192" fill="none" xmlns="http://www.w3.org/2000/svg">
<style>
:root {
  --sol-primary: #282363;
  --sol-element-brand-variant: #3a3480;
  --sol-fill-active: #4d469a;
  --sol-selected-container-variant: #f5f4fd;
  --sol-surface: #ffffff;
  --sol-surface-base-variant: #f5f5f5;
  --sol-secondary-container: #e8e6f8;
  --sol-element-primary: #161616;
  --sol-element-secondary: #484848;
  --sol-element-tertiary: #636363;
  --sol-element-quaternary: #858585;
  --sol-border-brand: #7b74c4;
  --sol-border-normal-variant: rgba(0, 0, 0, 0.08);
  --sol-border-solid-variant: #e0e0e0;
  --sol-border-solid: #d0d0d0;
  --sol-error: #e76067;
  --sol-error-container: #fdeaeb;
  --sol-static-white: #ffffff;
  --sol-static-black: #000000;
  --color-brand-400: #6058b4;
  --color-teal-500: #05a09a;
  --color-green-500: #35a142;
  --color-yellow-500: #d4ae00;
  --color-orange-500: #e06418;
  --color-blue-500: #3e9bca;
  --color-indigo-500: #3d5ed6;
  --color-pink-500: #d03e94;
}
@media (prefers-color-scheme: dark) {
  :root {
    --sol-primary: #9791d4;
    --sol-element-brand-variant: #ffffff;
    --sol-fill-active: #7b74c4;
    --sol-selected-container-variant: rgba(0, 0, 0, 0.08);
    --sol-surface: #161616;
    --sol-surface-base-variant: #1c1c1c;
    --sol-secondary-container: rgba(255, 255, 255, 0.16);
    --sol-element-primary: #ffffff;
    --sol-element-secondary: rgba(255, 255, 255, 0.8);
    --sol-element-tertiary: rgba(255, 255, 255, 0.6);
    --sol-element-quaternary: rgba(255, 255, 255, 0.5);
    --sol-border-brand: #7b74c4;
    --sol-border-normal-variant: rgba(255, 255, 255, 0.08);
    --sol-border-solid-variant: #3d3d3d;
    --sol-border-solid: #333333;
    --sol-error: #ee7a80;
    --sol-error-container: rgba(231, 96, 103, 0.24);
    --sol-static-white: #ffffff;
    --sol-static-black: #000000;
  }
}
</style>
<g clip-path="url(#clip0_1240_147137)">
<rect width="288" height="192" fill="var(--sol-surface-base-variant)"/>
<g filter="url(#filter0_dd_1240_147137)">
<g clip-path="url(#clip1_1240_147137)">
<g clip-path="url(#clip2_1240_147137)">
<rect x="40" y="40" width="346" height="404.24" rx="4" fill="var(--sol-surface)"/>
<g clip-path="url(#clip3_1240_147137)">
<rect width="346" height="404.24" transform="translate(40 40)" fill="var(--sol-surface)"/>
<rect width="449.423" height="30" transform="translate(40 40)" fill="var(--sol-surface)"/>
<path d="M48.4027 58.5H47.1497L49.4483 51.9736H50.8906L53.1983 58.5H51.9453L51.4045 56.8864H48.9435L48.4027 58.5ZM49.259 55.9399H51.089L50.1965 53.3077H50.1424L49.259 55.9399ZM55.0733 51.9736V58.5H53.9195V51.9736H55.0733ZM57.3269 51.9736V58.5H56.1731V51.9736H57.3269Z" fill="var(--sol-element-tertiary)"/>
<path d="M62.2328 58.5V57.6526L64.5405 55.4261C65.1985 54.768 65.5411 54.3804 65.5411 53.8305C65.5411 53.2266 65.0633 52.8389 64.4233 52.8389C63.7472 52.8389 63.3145 53.2626 63.3235 53.9207H62.2057C62.1967 52.6857 63.1252 51.8834 64.4323 51.8834C65.7664 51.8834 66.6679 52.6767 66.6679 53.7764C66.6679 54.5156 66.3073 55.1106 65.0273 56.3185L63.8644 57.4724V57.5174H66.767V58.5H62.2328ZM67.5423 57.2831V56.3456L70.3638 51.9736H71.8241V56.3185H72.6805V57.2831H71.8241V58.5H70.7063V57.2831H67.5423ZM68.7412 56.3185H70.7244V53.3077H70.6522L68.7412 56.2734V56.3185Z" fill="var(--sol-primary)"/>
<path d="M80.3076 51.8275C80.3076 51.6682 80.4368 51.5391 80.5961 51.5391V51.5391C80.7554 51.5391 80.8845 51.6682 80.8845 51.8275L80.8845 58.1737C80.8845 58.333 80.7554 58.4621 80.5961 58.4621V58.4621C80.4368 58.4621 80.3076 58.333 80.3076 58.1737L80.3076 51.8275Z" fill="var(--sol-border-solid-variant)"/>
<path d="M90.7283 51.9736V58.5H89.908V52.8209H89.8719L88.2854 53.8756V53.0553L89.908 51.9736H90.7283ZM94.6045 58.5901C93.1532 58.5901 92.3238 57.3732 92.3238 55.2368C92.3238 53.1184 93.1712 51.8834 94.6045 51.8834C96.0378 51.8834 96.8851 53.1184 96.8851 55.2368C96.8851 57.3732 96.0468 58.5901 94.6045 58.5901ZM94.6045 57.869C95.542 57.869 96.0919 56.9225 96.0919 55.2368C96.0919 53.5511 95.542 52.5865 94.6045 52.5865C93.667 52.5865 93.1081 53.5511 93.1081 55.2368C93.1081 56.9225 93.658 57.869 94.6045 57.869ZM100.293 60.3389V53.6052H101.041V54.3804H101.131C101.293 54.119 101.6 53.5421 102.546 53.5421C103.772 53.5421 104.629 54.5156 104.629 56.0661C104.629 57.6166 103.772 58.5992 102.555 58.5992C101.618 58.5992 101.293 58.0222 101.131 57.7518H101.068V60.3389H100.293ZM101.05 56.0481C101.05 57.1478 101.546 57.905 102.447 57.905C103.376 57.905 103.853 57.0938 103.853 56.0481C103.853 55.0294 103.385 54.2362 102.447 54.2362C101.528 54.2362 101.05 54.9663 101.05 56.0481ZM107.693 58.5992C106.278 58.5992 105.404 57.5986 105.404 56.0931C105.404 54.5877 106.287 53.5421 107.621 53.5421C108.649 53.5421 109.731 54.1731 109.731 55.985V56.3095H106.179C106.215 57.3462 106.819 57.9141 107.693 57.9141C108.279 57.9141 108.649 57.6617 108.829 57.3552H109.659C109.424 58.0944 108.703 58.5992 107.693 58.5992ZM106.188 55.6514H108.946C108.946 54.8311 108.424 54.2272 107.621 54.2272C106.774 54.2272 106.233 54.8942 106.188 55.6514ZM110.74 58.5V53.6052H111.489V54.3534H111.543C111.723 53.8576 112.228 53.524 112.805 53.524C112.922 53.524 113.12 53.5331 113.21 53.5421V54.3263C113.156 54.3083 112.94 54.2722 112.742 54.2722C112.038 54.2722 111.516 54.759 111.516 55.4171V58.5H110.74ZM116.284 60.3389V53.6052H117.032V54.3804H117.123C117.285 54.119 117.591 53.5421 118.538 53.5421C119.764 53.5421 120.62 54.5156 120.62 56.0661C120.62 57.6166 119.764 58.5992 118.547 58.5992C117.609 58.5992 117.285 58.0222 117.123 57.7518H117.059V60.3389H116.284ZM117.041 56.0481C117.041 57.1478 117.537 57.905 118.439 57.905C119.367 57.905 119.845 57.0938 119.845 56.0481C119.845 55.0294 119.376 54.2362 118.439 54.2362C117.519 54.2362 117.041 54.9663 117.041 56.0481ZM121.395 57.1118C121.395 55.985 122.387 55.7326 123.234 55.6695C123.545 55.6469 124.339 55.6064 124.559 55.5974V55.2007C124.559 54.5787 124.19 54.2181 123.451 54.2181C122.829 54.2181 122.459 54.5066 122.351 54.8762H121.54C121.639 54.0919 122.405 53.5421 123.487 53.5421C124.127 53.5421 125.326 53.7314 125.326 55.2728V58.5H124.559V57.8329H124.523C124.361 58.1665 123.91 58.6172 123.063 58.6172C122.135 58.6172 121.395 58.0673 121.395 57.1118ZM122.171 57.1478C122.171 57.6617 122.603 57.9231 123.198 57.9231C124.073 57.9231 124.559 57.3371 124.559 56.7242V56.2284L123.324 56.3185C122.621 56.3636 122.171 56.616 122.171 57.1478ZM128.553 60.4381C127.372 60.4381 126.57 59.9243 126.479 59.0138H127.291C127.399 59.5096 127.859 59.762 128.553 59.762C129.391 59.762 129.905 59.4014 129.905 58.5901V57.5986H129.842C129.68 57.869 129.364 58.4279 128.418 58.4279C127.228 58.4279 126.335 57.5264 126.335 55.985C126.335 54.4796 127.201 53.5421 128.427 53.5421C129.373 53.5421 129.68 54.119 129.86 54.3804H129.923V53.6052H130.68V58.6352C130.68 59.8972 129.743 60.4381 128.553 60.4381ZM128.526 57.7338C129.418 57.7338 129.923 57.0938 129.923 56.012C129.923 54.9663 129.436 54.2362 128.526 54.2362C127.588 54.2362 127.12 55.0294 127.12 56.012C127.12 57.0306 127.597 57.7338 128.526 57.7338ZM133.97 58.5992C132.555 58.5992 131.681 57.5986 131.681 56.0931C131.681 54.5877 132.564 53.5421 133.898 53.5421C134.926 53.5421 136.008 54.1731 136.008 55.985V56.3095H132.456C132.492 57.3462 133.096 57.9141 133.97 57.9141C134.556 57.9141 134.926 57.6617 135.106 57.3552H135.936C135.701 58.0944 134.98 58.5992 133.97 58.5992ZM132.465 55.6514H135.223C135.223 54.8311 134.701 54.2272 133.898 54.2272C133.051 54.2272 132.51 54.8942 132.465 55.6514Z" fill="var(--sol-element-primary)"/>
<mask id="mask0_1240_147137" style="mask-type:alpha" maskUnits="userSpaceOnUse" x="139" y="50" width="10" height="10">
<path d="M146.242 54.0485L143.935 56.3562C143.822 56.4689 143.639 56.4689 143.527 56.3562L141.219 54.0485L141.627 53.6406L143.731 55.7444L145.834 53.6406L146.242 54.0485Z" fill="var(--sol-element-primary)"/>
</mask>
<g mask="url(#mask0_1240_147137)">
<rect x="139.115" y="50.3828" width="9.23077" height="9.23077" fill="var(--sol-element-primary)"/>
</g>
<path d="M155.269 51.8275C155.269 51.6682 155.398 51.5391 155.558 51.5391V51.5391C155.717 51.5391 155.846 51.6682 155.846 51.8275L155.846 58.1737C155.846 58.333 155.717 58.4621 155.558 58.4621V58.4621C155.398 58.4621 155.269 58.333 155.269 58.1737L155.269 51.8275Z" fill="var(--sol-border-solid-variant)"/>
<path d="M172.144 58.1235V58.8447H164.933V58.1235H172.144ZM172.144 51.8735H164.933V58.8447L164.859 58.8409C164.495 58.804 164.212 58.4969 164.212 58.1235V51.8735C164.212 51.4752 164.535 51.1523 164.933 51.1523H172.144C172.543 51.1523 172.866 51.4752 172.866 51.8735V58.1235C172.866 58.4969 172.582 58.804 172.218 58.8409L172.144 58.8447V51.8735Z" fill="var(--sol-element-primary)"/>
<path d="M167.577 58.3277H166.856L166.856 51.7636L167.577 51.7636L167.577 58.3277Z" fill="var(--sol-element-primary)"/>
<path d="M170.221 58.3277H169.5L169.5 51.7636L170.221 51.7636L170.221 58.3277Z" fill="var(--sol-element-primary)"/>
<path d="M181.79 54.0288C181.6 53.1274 180.825 52.6406 179.969 52.6406C178.788 52.6406 177.868 53.5511 177.868 55.2368C177.868 56.9225 178.788 57.8329 179.969 57.8329C180.825 57.8329 181.591 57.3462 181.79 56.4537H182.601C182.367 57.7879 181.294 58.5901 179.969 58.5901C178.292 58.5901 177.084 57.3011 177.084 55.2368C177.084 53.1725 178.292 51.8834 179.969 51.8834C181.285 51.8834 182.358 52.6767 182.601 54.0288H181.79ZM185.639 58.5992C184.305 58.5992 183.403 57.5986 183.403 56.0751C183.403 54.5517 184.305 53.5421 185.639 53.5421C186.964 53.5421 187.856 54.5517 187.856 56.0751C187.856 57.5986 186.964 58.5992 185.639 58.5992ZM185.639 57.9141C186.621 57.9141 187.081 57.0487 187.081 56.0751C187.081 55.1016 186.621 54.2272 185.639 54.2272C184.638 54.2272 184.179 55.1016 184.179 56.0751C184.179 57.0487 184.638 57.9141 185.639 57.9141ZM189.65 51.9736V58.5H188.875V51.9736H189.65ZM193.977 56.4898V53.6052H194.743V58.5H193.977V57.6707H193.923C193.689 58.1665 193.211 58.5631 192.472 58.5631C191.543 58.5631 190.885 57.9591 190.885 56.7151V53.6052H191.661V56.6611C191.661 57.3642 192.102 57.8149 192.724 57.8149C193.274 57.8149 193.977 57.4002 193.977 56.4898ZM195.987 58.5V53.6052H196.736V54.3714H196.799C197.006 53.8486 197.475 53.5421 198.115 53.5421C198.755 53.5421 199.188 53.8486 199.422 54.3714H199.476C199.728 53.8666 200.242 53.5421 200.945 53.5421C201.82 53.5421 202.442 54.0739 202.442 55.2278V58.5H201.667V55.2368C201.667 54.5156 201.207 54.2362 200.675 54.2362C199.99 54.2362 199.602 54.6959 199.602 55.3179V58.5H198.818V55.1556C198.818 54.6058 198.421 54.2362 197.862 54.2362C197.277 54.2362 196.763 54.732 196.763 55.4441V58.5H195.987ZM204.461 55.5613V58.5H203.686V53.6052H204.434V54.3714H204.497C204.731 53.8756 205.182 53.5421 205.93 53.5421C206.922 53.5421 207.58 54.146 207.58 55.39V58.5H206.805V55.4441C206.805 54.6869 206.39 54.2362 205.696 54.2362C204.984 54.2362 204.461 54.7139 204.461 55.5613Z" fill="var(--sol-element-primary)"/>
<path d="M210.923 51.5367C210.923 50.8994 211.44 50.3828 212.077 50.3828H219.385C220.022 50.3828 220.538 50.8994 220.538 51.5367V58.4597C220.538 59.097 220.022 59.6136 219.385 59.6136H212.077C211.44 59.6136 210.923 59.097 210.923 58.4597V51.5367Z" fill="var(--sol-secondary-container)"/>
<path d="M215.737 57.5676C214.757 57.5676 214.041 56.9862 214.013 56.1749H214.872C214.899 56.5738 215.271 56.8577 215.737 56.8577C216.285 56.8577 216.677 56.4588 216.677 55.918C216.677 55.3568 216.272 54.9579 215.71 54.9579C215.332 54.9512 215.055 55.0864 214.899 55.3771H214.081L214.379 52.6052H217.272V53.3421H215.102L214.953 54.6402H215.001C215.19 54.4238 215.548 54.2683 215.947 54.2683C216.86 54.2683 217.529 54.9512 217.529 55.8909C217.529 56.8712 216.792 57.5676 215.737 57.5676Z" fill="var(--sol-element-brand-variant)"/>
<mask id="mask1_1240_147137" style="mask-type:alpha" maskUnits="userSpaceOnUse" x="222" y="50" width="11" height="10">
<path d="M229.973 54.0485L227.666 56.3562C227.553 56.4689 227.37 56.4689 227.258 56.3562L224.95 54.0485L225.358 53.6406L227.462 55.7444L229.565 53.6406L229.973 54.0485Z" fill="var(--sol-element-primary)"/>
</mask>
<g mask="url(#mask1_1240_147137)">
<rect x="222.846" y="50.3828" width="9.23077" height="9.23077" fill="var(--sol-element-primary)"/>
</g>
<mask id="path-21-inside-1_1240_147137" fill="var(--sol-static-white)">
<path d="M40 70H386V100.24H40V70Z"/>
</mask>
<path d="M40 70H386V100.24H40V70Z" fill="var(--sol-element-primary)" fill-opacity="0.04"/>
<path d="M40 70V70.84H386V70V69.16H40V70ZM386 100.24V99.4H40V100.24V101.08H386V100.24Z" fill="var(--sol-border-normal-variant)" mask="url(#path-21-inside-1_1240_147137)"/>
<path d="M54.72 82.1211C54.72 80.4642 56.0631 79.1211 57.72 79.1211H122.28C123.937 79.1211 125.28 80.4642 125.28 82.1211V88.1211C125.28 89.7779 123.937 91.1211 122.28 91.1211H57.72C56.0631 91.1211 54.72 89.7779 54.72 88.1211V82.1211Z" fill="var(--sol-element-primary)" fill-opacity="0.08"/>
<path d="M151.76 82.1211C151.76 80.4642 153.103 79.1211 154.76 79.1211H228.76C230.417 79.1211 231.76 80.4642 231.76 82.1211V88.1211C231.76 89.7779 230.417 91.1211 228.76 91.1211H154.76C153.103 91.1211 151.76 89.7779 151.76 88.1211V82.1211Z" fill="var(--sol-element-primary)" fill-opacity="0.08"/>
<g clip-path="url(#clip4_1240_147137)">
<path d="M54.72 115.316C54.72 113.66 56.0631 112.316 57.72 112.316H122.28C123.937 112.316 125.28 113.66 125.28 115.316V127.316C125.28 128.973 123.937 130.316 122.28 130.316H57.72C56.0631 130.316 54.72 128.973 54.72 127.316V115.316Z" fill="var(--sol-element-primary)" fill-opacity="0.08"/>
<path d="M153.44 115.316C153.44 113.66 154.783 112.316 156.44 112.316H369.56C371.217 112.316 372.56 113.66 372.56 115.316V127.316C372.56 128.973 371.217 130.316 369.56 130.316H156.44C154.783 130.316 153.44 128.973 153.44 127.316V115.316Z" fill="var(--sol-element-primary)" fill-opacity="0.08"/>
</g>
<path d="M40 142.818C40 142.586 40.188 142.398 40.42 142.398L385.58 142.398C385.812 142.398 386 142.587 386 142.818V142.818C386 143.05 385.812 143.238 385.58 143.238L40.42 143.238C40.188 143.238 40 143.05 40 142.818V142.818Z" fill="var(--sol-border-normal-variant)"/>
<g clip-path="url(#clip5_1240_147137)">
<path d="M54.72 158.316C54.72 156.66 56.0631 155.316 57.72 155.316H122.28C123.937 155.316 125.28 156.66 125.28 158.316V170.316C125.28 171.973 123.937 173.316 122.28 173.316H57.72C56.0631 173.316 54.72 171.973 54.72 170.316V158.316Z" fill="var(--sol-element-primary)" fill-opacity="0.08"/>
<path d="M153.44 158.316C153.44 156.66 154.783 155.316 156.44 155.316H369.56C371.217 155.316 372.56 156.66 372.56 158.316V170.316C372.56 171.973 371.217 173.316 369.56 173.316H156.44C154.783 173.316 153.44 171.973 153.44 170.316V158.316Z" fill="var(--sol-element-primary)" fill-opacity="0.08"/>
</g>
<path d="M40 185.818C40 185.586 40.188 185.398 40.42 185.398L385.58 185.398C385.812 185.398 386 185.587 386 185.818V185.818C386 186.05 385.812 186.238 385.58 186.238L40.42 186.238C40.188 186.238 40 186.05 40 185.818V185.818Z" fill="var(--sol-border-normal-variant)"/>
</g>
</g>
<rect x="40.5" y="40.5" width="345" height="403.24" rx="3.5" stroke="var(--sol-border-solid-variant)"/>
</g>
</g>
<rect y="152" width="288" height="40" fill="url(#paint0_linear_1240_147137)"/>
</g>
<defs>
<filter id="filter0_dd_1240_147137" x="32" y="36" width="362" height="176" filterUnits="userSpaceOnUse" color-interpolation-filters="sRGB">
<feFlood flood-opacity="0" result="BackgroundImageFix"/>
<feColorMatrix in="SourceAlpha" type="matrix" values="0 0 0 0 0 0 0 0 0 0 0 0 0 0 0 0 0 0 127 0" result="hardAlpha"/>
<feOffset dy="4"/>
<feGaussianBlur stdDeviation="4"/>
<feComposite in2="hardAlpha" operator="out"/>
<feColorMatrix type="matrix" values="0 0 0 0 0 0 0 0 0 0 0 0 0 0 0 0 0 0 0.08 0"/>
<feBlend mode="normal" in2="BackgroundImageFix" result="effect1_dropShadow_1240_147137"/>
<feColorMatrix in="SourceAlpha" type="matrix" values="0 0 0 0 0 0 0 0 0 0 0 0 0 0 0 0 0 0 127 0" result="hardAlpha"/>
<feOffset/>
<feGaussianBlur stdDeviation="0.5"/>
<feComposite in2="hardAlpha" operator="out"/>
<feColorMatrix type="matrix" values="0 0 0 0 0 0 0 0 0 0 0 0 0 0 0 0 0 0 0.08 0"/>
<feBlend mode="normal" in2="effect1_dropShadow_1240_147137" result="effect2_dropShadow_1240_147137"/>
<feBlend mode="normal" in="SourceGraphic" in2="effect2_dropShadow_1240_147137" result="shape"/>
</filter>
<linearGradient id="paint0_linear_1240_147137" x1="247.5" y1="192" x2="247.5" y2="152" gradientUnits="userSpaceOnUse">
<stop stop-color="var(--sol-surface-base-variant)"/>
<stop offset="1" stop-color="var(--sol-surface-base-variant)" stop-opacity="0"/>
</linearGradient>
<clipPath id="clip0_1240_147137">
<rect width="288" height="192" fill="var(--sol-surface)"/>
</clipPath>
<clipPath id="clip1_1240_147137">
<rect x="40" y="40" width="346" height="160" rx="4" fill="var(--sol-surface)"/>
</clipPath>
<clipPath id="clip2_1240_147137">
<rect x="40" y="40" width="346" height="404.24" rx="4" fill="var(--sol-surface)"/>
</clipPath>
<clipPath id="clip3_1240_147137">
<rect width="346" height="404.24" fill="var(--sol-surface)" transform="translate(40 40)"/>
</clipPath>
<clipPath id="clip4_1240_147137">
<rect width="346" height="42.16" fill="var(--sol-surface)" transform="translate(40 100.238)"/>
</clipPath>
<clipPath id="clip5_1240_147137">
<rect width="346" height="42.16" fill="var(--sol-surface)" transform="translate(40 143.238)"/>
</clipPath>
</defs>
</svg>
