<svg width="288" height="192" viewBox="0 0 288 192" fill="none" xmlns="http://www.w3.org/2000/svg">
<style>
:root {
  --sol-primary: #282363;
  --sol-element-brand-variant: #3a3480;
  --sol-fill-active: #4d469a;
  --sol-selected-container-variant: #f5f4fd;
  --sol-surface: #ffffff;
  --sol-surface-base-variant: #f5f5f5;
  --sol-secondary-container: #e8e6f8;
  --sol-element-primary: #161616;
  --sol-element-secondary: #484848;
  --sol-element-tertiary: #636363;
  --sol-element-quaternary: #858585;
  --sol-border-brand: #7b74c4;
  --sol-border-normal-variant: rgba(0, 0, 0, 0.08);
  --sol-border-solid-variant: #e0e0e0;
  --sol-border-solid: #d0d0d0;
  --sol-error: #e76067;
  --sol-error-container: #fdeaeb;
  --sol-static-white: #ffffff;
  --sol-static-black: #000000;
  --color-brand-400: #6058b4;
  --color-teal-500: #05a09a;
  --color-green-500: #35a142;
  --color-yellow-500: #d4ae00;
  --color-orange-500: #e06418;
  --color-blue-500: #3e9bca;
  --color-indigo-500: #3d5ed6;
  --color-pink-500: #d03e94;
}
@media (prefers-color-scheme: dark) {
  :root {
    --sol-primary: #9791d4;
    --sol-element-brand-variant: #ffffff;
    --sol-fill-active: #7b74c4;
    --sol-selected-container-variant: rgba(0, 0, 0, 0.08);
    --sol-surface: #161616;
    --sol-surface-base-variant: #1c1c1c;
    --sol-secondary-container: rgba(255, 255, 255, 0.16);
    --sol-element-primary: #ffffff;
    --sol-element-secondary: rgba(255, 255, 255, 0.8);
    --sol-element-tertiary: rgba(255, 255, 255, 0.6);
    --sol-element-quaternary: rgba(255, 255, 255, 0.5);
    --sol-border-brand: #7b74c4;
    --sol-border-normal-variant: rgba(255, 255, 255, 0.08);
    --sol-border-solid-variant: #3d3d3d;
    --sol-border-solid: #333333;
    --sol-error: #ee7a80;
    --sol-error-container: rgba(231, 96, 103, 0.24);
    --sol-static-white: #ffffff;
    --sol-static-black: #000000;
  }
}
</style>
<g clip-path="url(#clip0_1254_164221)">
<rect y="140" width="302" height="52" fill="url(#paint0_linear_1254_164221)"/>
<g filter="url(#filter0_dd_1254_164221)">
<rect width="243" height="384" transform="translate(22 -125)" fill="var(--sol-surface)"/>
<g clip-path="url(#clip1_1254_164221)">
<mask id="mask0_1254_164221" style="mask-type:alpha" maskUnits="userSpaceOnUse" x="36" y="11" width="16" height="16">
<path d="M48.3535 17.3535L44.3535 21.3535C44.1583 21.5488 43.8417 21.5488 43.6465 21.3535L39.6465 17.3535L40.3535 16.6465L44 20.293L47.6465 16.6465L48.3535 17.3535Z" fill="var(--sol-element-primary)"/>
</mask>
<g mask="url(#mask0_1254_164221)">
<rect x="36" y="11" width="16" height="16" fill="var(--sol-element-quaternary)"/>
</g>
<mask id="mask1_1254_164221" style="mask-type:alpha" maskUnits="userSpaceOnUse" x="58" y="11" width="16" height="16">
<path d="M59.7145 22.6204V16.7513C59.7145 16.1527 59.7141 15.2877 59.7139 14.694C59.7137 14.0492 60.2366 13.5275 60.8805 13.5273H64.5381L64.5895 13.5299C64.7088 13.5423 64.8206 13.5972 64.9033 13.6855L66.4827 15.373H71.5472C72.1915 15.3731 72.7139 15.896 72.7139 16.5404V22.6204C72.7138 23.6329 71.8929 24.4537 70.8805 24.4538H61.5479C60.5353 24.4538 59.7145 23.6329 59.7145 22.6204ZM60.7145 22.6204C60.7145 23.0807 61.0876 23.4538 61.5479 23.4538H70.8805C71.3407 23.4537 71.7139 23.0806 71.7139 22.6204V16.5397C71.7137 16.4478 71.6391 16.3731 71.5472 16.373H66.266C66.1277 16.373 65.9959 16.3158 65.9014 16.2148L64.3213 14.5273H60.8805C60.7883 14.5275 60.714 14.6019 60.7139 14.6934C60.7141 15.287 60.7145 16.1526 60.7145 16.7513V22.6204Z" fill="var(--sol-element-primary)"/>
</mask>
<g mask="url(#mask1_1254_164221)">
<rect x="58" y="11" width="16" height="16" fill="var(--sol-element-tertiary)"/>
</g>
<path d="M80.916 24V14.1016H84.6348C86.9043 14.1016 88.1211 15.4824 88.1211 17.3828C88.1211 19.2832 86.8906 20.6504 84.6074 20.6504H82.6934V24H80.916ZM82.6934 19.1875H84.3613C85.7012 19.1875 86.3027 18.4355 86.3027 17.3828C86.3027 16.3164 85.7012 15.5918 84.3613 15.5918H82.6934V19.1875ZM89.0098 21.9082C89.0098 20.2402 90.3906 19.748 91.7715 19.666C92.2842 19.6318 93.3506 19.5703 93.6719 19.5566V18.9688C93.6719 18.2305 93.1934 17.8066 92.332 17.8066C91.5527 17.8066 91.0742 18.1621 90.9375 18.6953H89.2559C89.3789 17.4375 90.5137 16.4805 92.373 16.4805C93.7812 16.4805 95.4082 17.0547 95.4082 19.0371V24H93.7402V22.9746H93.6855C93.3574 23.6035 92.6602 24.1504 91.498 24.1504C90.0762 24.1504 89.0098 23.3711 89.0098 21.9082ZM90.6914 21.8945C90.6914 22.5371 91.2109 22.8652 91.9492 22.8652C93.002 22.8652 93.6855 22.168 93.6855 21.334V20.7188L92.0449 20.8281C91.2109 20.8965 90.6914 21.2383 90.6914 21.8945ZM97.0488 24V16.5762H98.7441V17.8066H98.8262C99.0859 16.959 99.8105 16.4668 100.658 16.4668C100.85 16.4668 101.123 16.4805 101.287 16.5078V18.1211C101.137 18.0664 100.768 18.0117 100.48 18.0117C99.5098 18.0117 98.7988 18.6816 98.7988 19.625V24H97.0488ZM105.389 24.1504C103.146 24.1504 101.779 22.6602 101.779 20.3359C101.779 18.0391 103.174 16.4805 105.293 16.4805C107.111 16.4805 108.684 17.6152 108.684 20.2266V20.7734H103.502C103.522 22.0381 104.268 22.7832 105.402 22.7832C106.168 22.7832 106.688 22.4551 106.906 22.0176H108.615C108.301 23.3027 107.111 24.1504 105.389 24.1504ZM103.516 19.584H107.016C107.002 18.5723 106.332 17.834 105.32 17.834C104.268 17.834 103.57 18.6338 103.516 19.584ZM111.787 19.6523V24H110.037V16.5762H111.705V17.834H111.801C112.143 17 112.895 16.4805 114.002 16.4805C115.547 16.4805 116.559 17.4922 116.545 19.2695V24H114.809V19.543C114.809 18.5449 114.275 17.957 113.359 17.957C112.43 17.957 111.787 18.5723 111.787 19.6523ZM121.918 16.5762V17.916H120.455V21.7715C120.455 22.4824 120.811 22.6328 121.248 22.6328C121.453 22.6328 121.795 22.6191 122.014 22.6055V24.0273C121.809 24.0684 121.467 24.0957 121.029 24.0957C119.717 24.0957 118.705 23.4531 118.719 22.0586V17.916H117.652V16.5762H118.719V14.7988H120.455V16.5762H121.918ZM128.439 14.1016V24H126.662V14.1016H128.439ZM133.908 16.5762V17.916H132.445V21.7715C132.445 22.4824 132.801 22.6328 133.238 22.6328C133.443 22.6328 133.785 22.6191 134.004 22.6055V24.0273C133.799 24.0684 133.457 24.0957 133.02 24.0957C131.707 24.0957 130.695 23.4531 130.709 22.0586V17.916H129.643V16.5762H130.709V14.7988H132.445V16.5762H133.908ZM138.475 24.1504C136.232 24.1504 134.865 22.6602 134.865 20.3359C134.865 18.0391 136.26 16.4805 138.379 16.4805C140.197 16.4805 141.77 17.6152 141.77 20.2266V20.7734H136.588C136.608 22.0381 137.354 22.7832 138.488 22.7832C139.254 22.7832 139.773 22.4551 139.992 22.0176H141.701C141.387 23.3027 140.197 24.1504 138.475 24.1504ZM136.602 19.584H140.102C140.088 18.5723 139.418 17.834 138.406 17.834C137.354 17.834 136.656 18.6338 136.602 19.584ZM143.123 24V16.5762H144.791V17.834H144.887C145.188 16.9863 145.939 16.4805 146.924 16.4805C147.936 16.4805 148.646 16.9863 148.934 17.834H149.016C149.344 17.0137 150.164 16.4805 151.244 16.4805C152.598 16.4805 153.555 17.3555 153.555 19.0098V24H151.818V19.2832C151.818 18.3535 151.258 17.9434 150.547 17.9434C149.686 17.9434 149.193 18.5312 149.193 19.3652V24H147.498V19.2148C147.498 18.4492 146.979 17.9434 146.24 17.9434C145.488 17.9434 144.873 18.5586 144.873 19.4883V24H143.123Z" fill="var(--sol-element-primary)"/>
<path d="M159.684 21.9766V20.9648L164.141 14.1016H165.658V20.8965H167.039V21.9766H165.658V24H164.482V21.9766H159.684ZM161.01 20.8965H164.482V15.6602H164.359L161.01 20.8145V20.8965ZM168.666 24L168.652 23.0977L172.029 19.543C173.205 18.2988 173.766 17.6289 173.766 16.7129C173.766 15.7012 172.904 15.0312 171.797 15.0312C170.621 15.0312 169.869 15.7832 169.869 16.8906H168.707C168.693 15.1406 170.047 13.9648 171.838 13.9648C173.629 13.9648 174.914 15.168 174.914 16.7129C174.914 17.8203 174.395 18.6816 172.645 20.4863L170.375 22.8242V22.9062H175.092V24H168.666Z" fill="var(--sol-element-quaternary)"/>
</g>
<g clip-path="url(#clip2_1254_164221)">
<mask id="mask2_1254_164221" style="mask-type:alpha" maskUnits="userSpaceOnUse" x="64" y="43" width="16" height="16">
<path d="M74.3535 50.6465C74.5488 50.8417 74.5488 51.1583 74.3535 51.3535L70.3535 55.3535L69.6465 54.6465L73.293 51L69.6465 47.3535L70.3535 46.6465L74.3535 50.6465Z" fill="var(--sol-element-primary)"/>
</mask>
<g mask="url(#mask2_1254_164221)">
<rect x="64" y="43" width="16" height="16" fill="var(--sol-element-quaternary)"/>
</g>
<mask id="mask3_1254_164221" style="mask-type:alpha" maskUnits="userSpaceOnUse" x="86" y="43" width="16" height="16">
<path d="M87.7145 54.6204V48.7513C87.7145 48.1527 87.7141 47.2877 87.7139 46.694C87.7137 46.0492 88.2366 45.5275 88.8805 45.5273H92.5381L92.5895 45.5299C92.7088 45.5423 92.8206 45.5972 92.9033 45.6855L94.4827 47.373H99.5472C100.192 47.3731 100.714 47.896 100.714 48.5404V54.6204C100.714 55.6329 99.8929 56.4537 98.8805 56.4538H89.5479C88.5353 56.4538 87.7145 55.6329 87.7145 54.6204ZM88.7145 54.6204C88.7145 55.0807 89.0876 55.4538 89.5479 55.4538H98.8805C99.3407 55.4537 99.7139 55.0806 99.7139 54.6204V48.5397C99.7137 48.4478 99.6391 48.3731 99.5472 48.373H94.266C94.1277 48.373 93.9959 48.3158 93.9014 48.2148L92.3213 46.5273H88.8805C88.7883 46.5275 88.714 46.6019 88.7139 46.6934C88.7141 47.287 88.7145 48.1526 88.7145 48.7513V54.6204Z" fill="var(--sol-element-primary)"/>
</mask>
<g mask="url(#mask3_1254_164221)">
<rect x="86" y="43" width="16" height="16" fill="var(--sol-element-tertiary)"/>
</g>
<path d="M115.848 49.2188C115.561 47.8516 114.385 47.1133 113.086 47.1133C111.295 47.1133 109.9 48.4941 109.9 51.0508C109.9 53.6074 111.295 54.9883 113.086 54.9883C114.385 54.9883 115.547 54.25 115.848 52.8965H117.078C116.723 54.9199 115.096 56.1367 113.086 56.1367C110.543 56.1367 108.711 54.1816 108.711 51.0508C108.711 47.9199 110.543 45.9648 113.086 45.9648C115.082 45.9648 116.709 47.168 117.078 49.2188H115.848ZM119.826 51.543V56H118.65V46.1016H119.826V49.7383H119.922C120.264 48.9727 120.934 48.4805 122.109 48.4805C123.627 48.4805 124.639 49.3828 124.639 51.2832V56H123.463V51.3652C123.463 50.2031 122.82 49.5332 121.754 49.5332C120.646 49.5332 119.826 50.2578 119.826 51.543ZM126.525 56V48.5762H127.701V56H126.525ZM127.113 47.3457C126.662 47.3457 126.293 47.0039 126.293 46.5664C126.293 46.1289 126.662 45.7871 127.113 45.7871C127.564 45.7871 127.947 46.1289 127.947 46.5664C127.947 47.0039 127.564 47.3457 127.113 47.3457ZM130.75 46.1016V56H129.574V46.1016H130.75ZM135.426 56.1504C133.58 56.1504 132.268 54.6602 132.268 52.3086C132.268 49.957 133.58 48.4805 135.439 48.4805C136.875 48.4805 137.34 49.3555 137.586 49.752H137.668V46.1016H138.857V56H137.709V54.8652H137.586C137.326 55.2754 136.848 56.1504 135.426 56.1504ZM135.59 55.0977C136.943 55.0977 137.709 53.9492 137.709 52.2812C137.709 50.6406 136.971 49.5332 135.59 49.5332C134.168 49.5332 133.457 50.7363 133.457 52.2812C133.457 53.8672 134.182 55.0977 135.59 55.0977ZM145.789 46.1016V56H144.559V46.1016H145.789ZM151.066 48.5762V49.5605H149.508V53.8672C149.508 54.8242 149.973 54.9746 150.479 54.9746C150.697 54.9746 150.998 54.9609 151.176 54.9473V56.041C150.998 56.0684 150.697 56.0957 150.355 56.0957C149.371 56.0957 148.318 55.4805 148.318 54.168V49.5605H147.197V48.5762H148.318V46.7988H149.508V48.5762H151.066ZM155.633 56.1504C153.486 56.1504 152.16 54.6328 152.16 52.3496C152.16 50.0664 153.5 48.4805 155.523 48.4805C157.082 48.4805 158.723 49.4375 158.723 52.1855V52.6777H153.336C153.391 54.25 154.307 55.1113 155.633 55.1113C156.521 55.1113 157.082 54.7285 157.355 54.2637H158.613C158.258 55.3848 157.164 56.1504 155.633 56.1504ZM153.35 51.6797H157.533C157.533 50.4355 156.74 49.5195 155.523 49.5195C154.238 49.5195 153.418 50.5312 153.35 51.6797ZM160.254 56V48.5762H161.389V49.7383H161.484C161.799 48.9453 162.51 48.4805 163.48 48.4805C164.451 48.4805 165.107 48.9453 165.463 49.7383H165.545C165.928 48.9727 166.707 48.4805 167.773 48.4805C169.1 48.4805 170.043 49.2871 170.043 51.0371V56H168.867V51.0508C168.867 49.957 168.17 49.5332 167.363 49.5332C166.324 49.5332 165.736 50.2305 165.736 51.1738V56H164.547V50.9277C164.547 50.0938 163.945 49.5332 163.098 49.5332C162.209 49.5332 161.43 50.2852 161.43 51.3652V56H160.254ZM178.67 56.1367C176.469 56.1367 175.211 54.291 175.211 51.0508C175.211 47.8379 176.496 45.9648 178.67 45.9648C180.844 45.9648 182.129 47.8379 182.129 51.0508C182.129 54.291 180.857 56.1367 178.67 56.1367ZM178.67 55.043C180.092 55.043 180.926 53.6074 180.926 51.0508C180.926 48.4941 180.092 47.0312 178.67 47.0312C177.248 47.0312 176.4 48.4941 176.4 51.0508C176.4 53.6074 177.234 55.043 178.67 55.043ZM187.27 46.1016V56H186.025V47.3867H185.971L183.564 48.9863V47.7422L186.025 46.1016H187.27Z" fill="var(--sol-element-primary)"/>
<path d="M197.348 56.1367C195.379 56.1367 193.971 55.084 193.902 53.5117H195.146C195.215 54.4551 196.158 55.043 197.334 55.043C198.633 55.043 199.59 54.332 199.59 53.3066C199.59 52.2266 198.729 51.4609 197.184 51.4609H196.377V50.3809H197.184C198.387 50.3809 199.221 49.7109 199.221 48.6855C199.221 47.7012 198.496 47.0312 197.375 47.0312C196.322 47.0312 195.352 47.6191 195.297 48.5898H194.107C194.176 47.0176 195.625 45.9648 197.389 45.9648C199.275 45.9648 200.424 47.1953 200.41 48.6172C200.424 49.7383 199.768 50.5723 198.729 50.8594V50.9277C200.014 51.1328 200.807 52.0488 200.793 53.3066C200.807 54.9336 199.316 56.1367 197.348 56.1367ZM202.324 53.9766V52.9648L206.781 46.1016H208.299V52.8965H209.68V53.9766H208.299V56H207.123V53.9766H202.324ZM203.65 52.8965H207.123V47.6602H207L203.65 52.8145V52.8965Z" fill="var(--sol-element-quaternary)"/>
</g>
<g clip-path="url(#clip3_1254_164221)">
<mask id="mask4_1254_164221" style="mask-type:alpha" maskUnits="userSpaceOnUse" x="64" y="75" width="16" height="16">
<path d="M74.3535 82.6465C74.5488 82.8417 74.5488 83.1583 74.3535 83.3535L70.3535 87.3535L69.6465 86.6465L73.293 83L69.6465 79.3535L70.3535 78.6465L74.3535 82.6465Z" fill="var(--sol-element-primary)"/>
</mask>
<g mask="url(#mask4_1254_164221)">
<rect x="64" y="75" width="16" height="16" fill="var(--sol-element-quaternary)"/>
</g>
<mask id="mask5_1254_164221" style="mask-type:alpha" maskUnits="userSpaceOnUse" x="86" y="75" width="16" height="16">
<path d="M87.7145 86.6204V80.7513C87.7145 80.1527 87.7141 79.2877 87.7139 78.694C87.7137 78.0492 88.2366 77.5275 88.8805 77.5273H92.5381L92.5895 77.5299C92.7088 77.5423 92.8206 77.5972 92.9033 77.6855L94.4827 79.373H99.5472C100.192 79.3731 100.714 79.896 100.714 80.5404V86.6204C100.714 87.6329 99.8929 88.4537 98.8805 88.4538H89.5479C88.5353 88.4538 87.7145 87.6329 87.7145 86.6204ZM88.7145 86.6204C88.7145 87.0807 89.0876 87.4538 89.5479 87.4538H98.8805C99.3407 87.4537 99.7139 87.0806 99.7139 86.6204V80.5397C99.7137 80.4478 99.6391 80.3731 99.5472 80.373H94.266C94.1277 80.373 93.9959 80.3158 93.9014 80.2148L92.3213 78.5273H88.8805C88.7883 78.5275 88.714 78.6019 88.7139 78.6934C88.7141 79.287 88.7145 80.1526 88.7145 80.7513V86.6204Z" fill="var(--sol-element-primary)"/>
</mask>
<g mask="url(#mask5_1254_164221)">
<rect x="86" y="75" width="16" height="16" fill="var(--sol-element-tertiary)"/>
</g>
<path d="M115.848 81.2188C115.561 79.8516 114.385 79.1133 113.086 79.1133C111.295 79.1133 109.9 80.4941 109.9 83.0508C109.9 85.6074 111.295 86.9883 113.086 86.9883C114.385 86.9883 115.547 86.25 115.848 84.8965H117.078C116.723 86.9199 115.096 88.1367 113.086 88.1367C110.543 88.1367 108.711 86.1816 108.711 83.0508C108.711 79.9199 110.543 77.9648 113.086 77.9648C115.082 77.9648 116.709 79.168 117.078 81.2188H115.848ZM119.826 83.543V88H118.65V78.1016H119.826V81.7383H119.922C120.264 80.9727 120.934 80.4805 122.109 80.4805C123.627 80.4805 124.639 81.3828 124.639 83.2832V88H123.463V83.3652C123.463 82.2031 122.82 81.5332 121.754 81.5332C120.646 81.5332 119.826 82.2578 119.826 83.543ZM126.525 88V80.5762H127.701V88H126.525ZM127.113 79.3457C126.662 79.3457 126.293 79.0039 126.293 78.5664C126.293 78.1289 126.662 77.7871 127.113 77.7871C127.564 77.7871 127.947 78.1289 127.947 78.5664C127.947 79.0039 127.564 79.3457 127.113 79.3457ZM130.75 78.1016V88H129.574V78.1016H130.75ZM135.426 88.1504C133.58 88.1504 132.268 86.6602 132.268 84.3086C132.268 81.957 133.58 80.4805 135.439 80.4805C136.875 80.4805 137.34 81.3555 137.586 81.752H137.668V78.1016H138.857V88H137.709V86.8652H137.586C137.326 87.2754 136.848 88.1504 135.426 88.1504ZM135.59 87.0977C136.943 87.0977 137.709 85.9492 137.709 84.2812C137.709 82.6406 136.971 81.5332 135.59 81.5332C134.168 81.5332 133.457 82.7363 133.457 84.2812C133.457 85.8672 134.182 87.0977 135.59 87.0977ZM145.789 78.1016V88H144.559V78.1016H145.789ZM151.066 80.5762V81.5605H149.508V85.8672C149.508 86.8242 149.973 86.9746 150.479 86.9746C150.697 86.9746 150.998 86.9609 151.176 86.9473V88.041C150.998 88.0684 150.697 88.0957 150.355 88.0957C149.371 88.0957 148.318 87.4805 148.318 86.168V81.5605H147.197V80.5762H148.318V78.7988H149.508V80.5762H151.066ZM155.633 88.1504C153.486 88.1504 152.16 86.6328 152.16 84.3496C152.16 82.0664 153.5 80.4805 155.523 80.4805C157.082 80.4805 158.723 81.4375 158.723 84.1855V84.6777H153.336C153.391 86.25 154.307 87.1113 155.633 87.1113C156.521 87.1113 157.082 86.7285 157.355 86.2637H158.613C158.258 87.3848 157.164 88.1504 155.633 88.1504ZM153.35 83.6797H157.533C157.533 82.4355 156.74 81.5195 155.523 81.5195C154.238 81.5195 153.418 82.5312 153.35 83.6797ZM160.254 88V80.5762H161.389V81.7383H161.484C161.799 80.9453 162.51 80.4805 163.48 80.4805C164.451 80.4805 165.107 80.9453 165.463 81.7383H165.545C165.928 80.9727 166.707 80.4805 167.773 80.4805C169.1 80.4805 170.043 81.2871 170.043 83.0371V88H168.867V83.0508C168.867 81.957 168.17 81.5332 167.363 81.5332C166.324 81.5332 165.736 82.2305 165.736 83.1738V88H164.547V82.9277C164.547 82.0938 163.945 81.5332 163.098 81.5332C162.209 81.5332 161.43 82.2852 161.43 83.3652V88H160.254ZM178.67 88.1367C176.469 88.1367 175.211 86.291 175.211 83.0508C175.211 79.8379 176.496 77.9648 178.67 77.9648C180.844 77.9648 182.129 79.8379 182.129 83.0508C182.129 86.291 180.857 88.1367 178.67 88.1367ZM178.67 87.043C180.092 87.043 180.926 85.6074 180.926 83.0508C180.926 80.4941 180.092 79.0312 178.67 79.0312C177.248 79.0312 176.4 80.4941 176.4 83.0508C176.4 85.6074 177.234 87.043 178.67 87.043ZM187.27 78.1016V88H186.025V79.3867H185.971L183.564 80.9863V79.7422L186.025 78.1016H187.27Z" fill="var(--sol-element-primary)"/>
<path d="M193.93 88L193.916 87.0977L197.293 83.543C198.469 82.2988 199.029 81.6289 199.029 80.7129C199.029 79.7012 198.168 79.0312 197.061 79.0312C195.885 79.0312 195.133 79.7832 195.133 80.8906H193.971C193.957 79.1406 195.311 77.9648 197.102 77.9648C198.893 77.9648 200.178 79.168 200.178 80.7129C200.178 81.8203 199.658 82.6816 197.908 84.4863L195.639 86.8242V86.9062H200.355V88H193.93Z" fill="var(--sol-element-quaternary)"/>
</g>
<g clip-path="url(#clip4_1254_164221)">
<g clip-path="url(#clip5_1254_164221)">
<rect width="254" height="32" transform="translate(22 99)" fill="var(--sol-selected-container-variant)"/>
</g>
<rect width="4" height="32" transform="translate(22 99)" fill="var(--sol-fill-active)"/>
<mask id="mask6_1254_164221" style="mask-type:alpha" maskUnits="userSpaceOnUse" x="64" y="107" width="16" height="16">
<path d="M76.3535 113.354L72.3535 117.354C72.1583 117.549 71.8417 117.549 71.6465 117.354L67.6465 113.354L68.3535 112.646L72 116.293L75.6465 112.646L76.3535 113.354Z" fill="var(--sol-element-primary)"/>
</mask>
<g mask="url(#mask6_1254_164221)">
<rect x="64" y="107" width="16" height="16" fill="var(--sol-element-quaternary)"/>
</g>
<mask id="mask7_1254_164221" style="mask-type:alpha" maskUnits="userSpaceOnUse" x="86" y="107" width="16" height="16">
<path d="M87.7145 118.62V112.751C87.7145 112.153 87.7141 111.288 87.7139 110.694C87.7137 110.049 88.2366 109.527 88.8805 109.527H92.5381L92.5895 109.53C92.7088 109.542 92.8206 109.597 92.9033 109.686L94.4827 111.373H99.5472C100.192 111.373 100.714 111.896 100.714 112.54V118.62C100.714 119.633 99.8929 120.454 98.8805 120.454H89.5479C88.5353 120.454 87.7145 119.633 87.7145 118.62ZM88.7145 118.62C88.7145 119.081 89.0876 119.454 89.5479 119.454H98.8805C99.3407 119.454 99.7139 119.081 99.7139 118.62V112.54C99.7137 112.448 99.6391 112.373 99.5472 112.373H94.266C94.1277 112.373 93.9959 112.316 93.9014 112.215L92.3213 110.527H88.8805C88.7883 110.527 88.714 110.602 88.7139 110.693C88.7141 111.287 88.7145 112.153 88.7145 112.751V118.62Z" fill="var(--sol-element-primary)"/>
</mask>
<g mask="url(#mask7_1254_164221)">
<rect x="86" y="107" width="16" height="16" fill="var(--sol-element-tertiary)"/>
</g>
<path d="M115.588 113.438C115.383 112.248 114.426 111.564 113.223 111.564C111.596 111.564 110.461 112.809 110.461 115.051C110.461 117.32 111.609 118.537 113.223 118.537C114.398 118.537 115.355 117.881 115.588 116.719H117.379C117.105 118.619 115.547 120.137 113.195 120.137C110.584 120.137 108.67 118.236 108.67 115.051C108.67 111.852 110.611 109.965 113.195 109.965C115.383 109.965 117.078 111.236 117.379 113.438H115.588ZM120.578 115.652V120H118.828V110.102H120.537V113.834H120.633C120.975 113 121.686 112.48 122.834 112.48C124.379 112.48 125.391 113.479 125.391 115.27V120H123.654V115.543C123.654 114.531 123.107 113.957 122.191 113.957C121.248 113.957 120.578 114.572 120.578 115.652ZM127.045 120V112.576H128.795V120H127.045ZM127.934 111.523C127.387 111.523 126.922 111.1 126.922 110.566C126.922 110.047 127.387 109.623 127.934 109.623C128.494 109.623 128.945 110.047 128.945 110.566C128.945 111.1 128.494 111.523 127.934 111.523ZM132.213 110.102V120H130.463V110.102H132.213ZM136.643 120.137C134.893 120.137 133.58 118.742 133.58 116.295C133.58 113.82 134.934 112.48 136.656 112.48C137.969 112.48 138.516 113.26 138.775 113.793H138.844V110.102H140.58V120H138.871V118.824H138.775C138.502 119.371 137.928 120.137 136.643 120.137ZM137.121 118.701C138.242 118.701 138.885 117.73 138.885 116.281C138.885 114.846 138.256 113.902 137.121 113.902C135.959 113.902 135.357 114.9 135.357 116.281C135.357 117.689 135.973 118.701 137.121 118.701ZM147.525 110.102V120H145.748V110.102H147.525ZM152.994 112.576V113.916H151.531V117.771C151.531 118.482 151.887 118.633 152.324 118.633C152.529 118.633 152.871 118.619 153.09 118.605V120.027C152.885 120.068 152.543 120.096 152.105 120.096C150.793 120.096 149.781 119.453 149.795 118.059V113.916H148.729V112.576H149.795V110.799H151.531V112.576H152.994ZM157.561 120.15C155.318 120.15 153.951 118.66 153.951 116.336C153.951 114.039 155.346 112.48 157.465 112.48C159.283 112.48 160.855 113.615 160.855 116.227V116.773H155.674C155.694 118.038 156.439 118.783 157.574 118.783C158.34 118.783 158.859 118.455 159.078 118.018H160.787C160.473 119.303 159.283 120.15 157.561 120.15ZM155.688 115.584H159.188C159.174 114.572 158.504 113.834 157.492 113.834C156.439 113.834 155.742 114.634 155.688 115.584ZM162.209 120V112.576H163.877V113.834H163.973C164.273 112.986 165.025 112.48 166.01 112.48C167.021 112.48 167.732 112.986 168.02 113.834H168.102C168.43 113.014 169.25 112.48 170.33 112.48C171.684 112.48 172.641 113.355 172.641 115.01V120H170.904V115.283C170.904 114.354 170.344 113.943 169.633 113.943C168.771 113.943 168.279 114.531 168.279 115.365V120H166.584V115.215C166.584 114.449 166.064 113.943 165.326 113.943C164.574 113.943 163.959 114.559 163.959 115.488V120H162.209ZM181.268 120.137C178.889 120.137 177.467 118.291 177.467 115.051C177.467 111.824 178.889 109.965 181.268 109.965C183.633 109.965 185.068 111.824 185.068 115.051C185.068 118.291 183.646 120.137 181.268 120.137ZM181.268 118.646C182.512 118.646 183.277 117.43 183.277 115.051C183.277 112.686 182.498 111.441 181.268 111.441C180.037 111.441 179.258 112.686 179.258 115.051C179.258 117.43 180.023 118.646 181.268 118.646ZM190.154 120.137C188.035 120.137 186.531 118.988 186.49 117.32H188.281C188.336 118.113 189.129 118.633 190.154 118.633C191.248 118.633 192.027 118.031 192.027 117.156C192.027 116.268 191.262 115.625 189.977 115.625H189.088V114.258H189.977C191.029 114.258 191.768 113.67 191.754 112.809C191.768 111.975 191.139 111.414 190.168 111.414C189.238 111.414 188.432 111.934 188.404 112.768H186.695C186.736 111.1 188.24 109.965 190.182 109.965C192.191 109.965 193.49 111.195 193.477 112.713C193.49 113.82 192.752 114.627 191.672 114.846V114.928C193.066 115.119 193.859 116.008 193.846 117.252C193.859 118.92 192.301 120.137 190.154 120.137Z" fill="var(--sol-element-primary)"/>
<path d="M203.375 120.137C201.652 120.109 199.766 119.098 199.766 115.434C199.766 111.934 201.201 109.965 203.525 109.965C205.262 109.965 206.479 111.031 206.738 112.59H205.521C205.289 111.715 204.633 111.059 203.525 111.059C201.898 111.059 200.928 112.453 200.928 114.832H201.051C201.625 114.012 202.527 113.52 203.594 113.52C205.357 113.52 206.82 114.887 206.82 116.801C206.82 118.66 205.453 120.15 203.375 120.137ZM203.375 119.057C204.66 119.057 205.617 118.045 205.631 116.814C205.617 115.598 204.701 114.6 203.402 114.6C202.104 114.6 201.105 115.652 201.092 116.828C201.092 117.99 202.049 119.057 203.375 119.057Z" fill="var(--sol-element-quaternary)"/>
</g>
<g clip-path="url(#clip6_1254_164221)">
<mask id="mask8_1254_164221" style="mask-type:alpha" maskUnits="userSpaceOnUse" x="108" y="139" width="16" height="16">
<path d="M109.715 150.62V144.751C109.715 144.153 109.714 143.288 109.714 142.694C109.714 142.049 110.237 141.527 110.881 141.527H114.538L114.59 141.53C114.709 141.542 114.821 141.597 114.903 141.686L116.483 143.373H121.547C122.192 143.373 122.714 143.896 122.714 144.54V150.62C122.714 151.633 121.893 152.454 120.881 152.454H111.548C110.535 152.454 109.715 151.633 109.715 150.62ZM110.715 150.62C110.715 151.081 111.088 151.454 111.548 151.454H120.881C121.341 151.454 121.714 151.081 121.714 150.62V144.54C121.714 144.448 121.639 144.373 121.547 144.373H116.266C116.128 144.373 115.996 144.316 115.901 144.215L114.321 142.527H110.881C110.788 142.527 110.714 142.602 110.714 142.693C110.714 143.287 110.715 144.153 110.715 144.751V150.62Z" fill="var(--sol-element-primary)"/>
</mask>
<g mask="url(#mask8_1254_164221)">
<rect x="108" y="139" width="16" height="16" fill="var(--sol-element-tertiary)"/>
</g>
<path d="M132.324 142.102V152H131.094V142.102H132.324ZM135.537 147.543V152H134.361V144.576H135.496V145.738H135.592C135.947 144.986 136.631 144.48 137.766 144.48C139.27 144.48 140.268 145.396 140.268 147.283V152H139.092V147.365C139.092 146.217 138.463 145.533 137.41 145.533C136.33 145.533 135.537 146.258 135.537 147.543ZM144.957 152.15C143.111 152.15 141.799 150.66 141.799 148.309C141.799 145.957 143.111 144.48 144.971 144.48C146.406 144.48 146.871 145.355 147.117 145.752H147.199V142.102H148.389V152H147.24V150.865H147.117C146.857 151.275 146.379 152.15 144.957 152.15ZM145.121 151.098C146.475 151.098 147.24 149.949 147.24 148.281C147.24 146.641 146.502 145.533 145.121 145.533C143.699 145.533 142.988 146.736 142.988 148.281C142.988 149.867 143.713 151.098 145.121 151.098ZM153.543 152.15C151.396 152.15 150.07 150.633 150.07 148.35C150.07 146.066 151.41 144.48 153.434 144.48C154.992 144.48 156.633 145.438 156.633 148.186V148.678H151.246C151.301 150.25 152.217 151.111 153.543 151.111C154.432 151.111 154.992 150.729 155.266 150.264H156.523C156.168 151.385 155.074 152.15 153.543 152.15ZM151.26 147.68H155.443C155.443 146.436 154.65 145.52 153.434 145.52C152.148 145.52 151.328 146.531 151.26 147.68ZM159.34 147.543V152H158.164V144.576H159.299V145.738H159.395C159.75 144.986 160.434 144.48 161.568 144.48C163.072 144.48 164.07 145.396 164.07 147.283V152H162.895V147.365C162.895 146.217 162.266 145.533 161.213 145.533C160.133 145.533 159.34 146.258 159.34 147.543ZM169.197 144.576V145.561H167.639V149.867C167.639 150.824 168.104 150.975 168.609 150.975C168.828 150.975 169.129 150.961 169.307 150.947V152.041C169.129 152.068 168.828 152.096 168.486 152.096C167.502 152.096 166.449 151.48 166.449 150.168V145.561H165.328V144.576H166.449V142.799H167.639V144.576H169.197ZM173.764 152.15C171.617 152.15 170.291 150.633 170.291 148.35C170.291 146.066 171.631 144.48 173.654 144.48C175.213 144.48 176.854 145.438 176.854 148.186V148.678H171.467C171.521 150.25 172.438 151.111 173.764 151.111C174.652 151.111 175.213 150.729 175.486 150.264H176.744C176.389 151.385 175.295 152.15 173.764 152.15ZM171.48 147.68H175.664C175.664 146.436 174.871 145.52 173.654 145.52C172.369 145.52 171.549 146.531 171.48 147.68ZM181.188 152.15C179.342 152.15 178.029 150.66 178.029 148.309C178.029 145.957 179.342 144.48 181.201 144.48C182.637 144.48 183.102 145.355 183.348 145.752H183.43V142.102H184.619V152H183.471V150.865H183.348C183.088 151.275 182.609 152.15 181.188 152.15ZM181.352 151.098C182.705 151.098 183.471 149.949 183.471 148.281C183.471 146.641 182.732 145.533 181.352 145.533C179.93 145.533 179.219 146.736 179.219 148.281C179.219 149.867 179.943 151.098 181.352 151.098ZM191.551 142.102V152H190.32V142.102H191.551ZM196.828 144.576V145.561H195.27V149.867C195.27 150.824 195.734 150.975 196.24 150.975C196.459 150.975 196.76 150.961 196.938 150.947V152.041C196.76 152.068 196.459 152.096 196.117 152.096C195.133 152.096 194.08 151.48 194.08 150.168V145.561H192.959V144.576H194.08V142.799H195.27V144.576H196.828ZM201.395 152.15C199.248 152.15 197.922 150.633 197.922 148.35C197.922 146.066 199.262 144.48 201.285 144.48C202.844 144.48 204.484 145.438 204.484 148.186V148.678H199.098C199.152 150.25 200.068 151.111 201.395 151.111C202.283 151.111 202.844 150.729 203.117 150.264H204.375C204.02 151.385 202.926 152.15 201.395 152.15ZM199.111 147.68H203.295C203.295 146.436 202.502 145.52 201.285 145.52C200 145.52 199.18 146.531 199.111 147.68ZM206.016 152V144.576H207.15V145.738H207.246C207.561 144.945 208.271 144.48 209.242 144.48C210.213 144.48 210.869 144.945 211.225 145.738H211.307C211.689 144.973 212.469 144.48 213.535 144.48C214.861 144.48 215.805 145.287 215.805 147.037V152H214.629V147.051C214.629 145.957 213.932 145.533 213.125 145.533C212.086 145.533 211.498 146.23 211.498 147.174V152H210.309V146.928C210.309 146.094 209.707 145.533 208.859 145.533C207.971 145.533 207.191 146.285 207.191 147.365V152H206.016ZM224.432 152.137C222.23 152.137 220.973 150.291 220.973 147.051C220.973 143.838 222.258 141.965 224.432 141.965C226.605 141.965 227.891 143.838 227.891 147.051C227.891 150.291 226.619 152.137 224.432 152.137ZM224.432 151.043C225.854 151.043 226.688 149.607 226.688 147.051C226.688 144.494 225.854 143.031 224.432 143.031C223.01 143.031 222.162 144.494 222.162 147.051C222.162 149.607 222.996 151.043 224.432 151.043ZM233.031 142.102V152H231.787V143.387H231.732L229.326 144.986V143.742L231.787 142.102H233.031Z" fill="var(--sol-element-primary)"/>
</g>
<g clip-path="url(#clip7_1254_164221)">
<mask id="mask9_1254_164221" style="mask-type:alpha" maskUnits="userSpaceOnUse" x="108" y="171" width="16" height="16">
<path d="M109.715 182.62V176.751C109.715 176.153 109.714 175.288 109.714 174.694C109.714 174.049 110.237 173.527 110.881 173.527H114.538L114.59 173.53C114.709 173.542 114.821 173.597 114.903 173.686L116.483 175.373H121.547C122.192 175.373 122.714 175.896 122.714 176.54V182.62C122.714 183.633 121.893 184.454 120.881 184.454H111.548C110.535 184.454 109.715 183.633 109.715 182.62ZM110.715 182.62C110.715 183.081 111.088 183.454 111.548 183.454H120.881C121.341 183.454 121.714 183.081 121.714 182.62V176.54C121.714 176.448 121.639 176.373 121.547 176.373H116.266C116.128 176.373 115.996 176.316 115.901 176.215L114.321 174.527H110.881C110.788 174.527 110.714 174.602 110.714 174.693C110.714 175.287 110.715 176.153 110.715 176.751V182.62Z" fill="var(--sol-element-primary)"/>
</mask>
<g mask="url(#mask9_1254_164221)">
<rect x="108" y="171" width="16" height="16" fill="var(--sol-element-tertiary)"/>
</g>
<path d="M132.324 174.102V184H131.094V174.102H132.324ZM135.537 179.543V184H134.361V176.576H135.496V177.738H135.592C135.947 176.986 136.631 176.48 137.766 176.48C139.27 176.48 140.268 177.396 140.268 179.283V184H139.092V179.365C139.092 178.217 138.463 177.533 137.41 177.533C136.33 177.533 135.537 178.258 135.537 179.543ZM144.957 184.15C143.111 184.15 141.799 182.66 141.799 180.309C141.799 177.957 143.111 176.48 144.971 176.48C146.406 176.48 146.871 177.355 147.117 177.752H147.199V174.102H148.389V184H147.24V182.865H147.117C146.857 183.275 146.379 184.15 144.957 184.15ZM145.121 183.098C146.475 183.098 147.24 181.949 147.24 180.281C147.24 178.641 146.502 177.533 145.121 177.533C143.699 177.533 142.988 178.736 142.988 180.281C142.988 181.867 143.713 183.098 145.121 183.098ZM153.543 184.15C151.396 184.15 150.07 182.633 150.07 180.35C150.07 178.066 151.41 176.48 153.434 176.48C154.992 176.48 156.633 177.438 156.633 180.186V180.678H151.246C151.301 182.25 152.217 183.111 153.543 183.111C154.432 183.111 154.992 182.729 155.266 182.264H156.523C156.168 183.385 155.074 184.15 153.543 184.15ZM151.26 179.68H155.443C155.443 178.436 154.65 177.52 153.434 177.52C152.148 177.52 151.328 178.531 151.26 179.68ZM159.34 179.543V184H158.164V176.576H159.299V177.738H159.395C159.75 176.986 160.434 176.48 161.568 176.48C163.072 176.48 164.07 177.396 164.07 179.283V184H162.895V179.365C162.895 178.217 162.266 177.533 161.213 177.533C160.133 177.533 159.34 178.258 159.34 179.543ZM169.197 176.576V177.561H167.639V181.867C167.639 182.824 168.104 182.975 168.609 182.975C168.828 182.975 169.129 182.961 169.307 182.947V184.041C169.129 184.068 168.828 184.096 168.486 184.096C167.502 184.096 166.449 183.48 166.449 182.168V177.561H165.328V176.576H166.449V174.799H167.639V176.576H169.197ZM173.764 184.15C171.617 184.15 170.291 182.633 170.291 180.35C170.291 178.066 171.631 176.48 173.654 176.48C175.213 176.48 176.854 177.438 176.854 180.186V180.678H171.467C171.521 182.25 172.438 183.111 173.764 183.111C174.652 183.111 175.213 182.729 175.486 182.264H176.744C176.389 183.385 175.295 184.15 173.764 184.15ZM171.48 179.68H175.664C175.664 178.436 174.871 177.52 173.654 177.52C172.369 177.52 171.549 178.531 171.48 179.68ZM181.188 184.15C179.342 184.15 178.029 182.66 178.029 180.309C178.029 177.957 179.342 176.48 181.201 176.48C182.637 176.48 183.102 177.355 183.348 177.752H183.43V174.102H184.619V184H183.471V182.865H183.348C183.088 183.275 182.609 184.15 181.188 184.15ZM181.352 183.098C182.705 183.098 183.471 181.949 183.471 180.281C183.471 178.641 182.732 177.533 181.352 177.533C179.93 177.533 179.219 178.736 179.219 180.281C179.219 181.867 179.943 183.098 181.352 183.098ZM191.551 174.102V184H190.32V174.102H191.551ZM196.828 176.576V177.561H195.27V181.867C195.27 182.824 195.734 182.975 196.24 182.975C196.459 182.975 196.76 182.961 196.938 182.947V184.041C196.76 184.068 196.459 184.096 196.117 184.096C195.133 184.096 194.08 183.48 194.08 182.168V177.561H192.959V176.576H194.08V174.799H195.27V176.576H196.828ZM201.395 184.15C199.248 184.15 197.922 182.633 197.922 180.35C197.922 178.066 199.262 176.48 201.285 176.48C202.844 176.48 204.484 177.438 204.484 180.186V180.678H199.098C199.152 182.25 200.068 183.111 201.395 183.111C202.283 183.111 202.844 182.729 203.117 182.264H204.375C204.02 183.385 202.926 184.15 201.395 184.15ZM199.111 179.68H203.295C203.295 178.436 202.502 177.52 201.285 177.52C200 177.52 199.18 178.531 199.111 179.68ZM206.016 184V176.576H207.15V177.738H207.246C207.561 176.945 208.271 176.48 209.242 176.48C210.213 176.48 210.869 176.945 211.225 177.738H211.307C211.689 176.973 212.469 176.48 213.535 176.48C214.861 176.48 215.805 177.287 215.805 179.037V184H214.629V179.051C214.629 177.957 213.932 177.533 213.125 177.533C212.086 177.533 211.498 178.23 211.498 179.174V184H210.309V178.928C210.309 178.094 209.707 177.533 208.859 177.533C207.971 177.533 207.191 178.285 207.191 179.365V184H206.016ZM224.432 184.137C222.23 184.137 220.973 182.291 220.973 179.051C220.973 175.838 222.258 173.965 224.432 173.965C226.605 173.965 227.891 175.838 227.891 179.051C227.891 182.291 226.619 184.137 224.432 184.137ZM224.432 183.043C225.854 183.043 226.688 181.607 226.688 179.051C226.688 176.494 225.854 175.031 224.432 175.031C223.01 175.031 222.162 176.494 222.162 179.051C222.162 181.607 222.996 183.043 224.432 183.043ZM229.531 184L229.518 183.098L232.895 179.543C234.07 178.299 234.631 177.629 234.631 176.713C234.631 175.701 233.77 175.031 232.662 175.031C231.486 175.031 230.734 175.783 230.734 176.891H229.572C229.559 175.141 230.912 173.965 232.703 173.965C234.494 173.965 235.779 175.168 235.779 176.713C235.779 177.82 235.26 178.682 233.51 180.486L231.24 182.824V182.906H235.957V184H229.531Z" fill="var(--sol-element-primary)"/>
</g>
</g>
</g>
<defs>
<filter id="filter0_dd_1254_164221" x="14" y="-129" width="259" height="400" filterUnits="userSpaceOnUse" color-interpolation-filters="sRGB">
<feFlood flood-opacity="0" result="BackgroundImageFix"/>
<feColorMatrix in="SourceAlpha" type="matrix" values="0 0 0 0 0 0 0 0 0 0 0 0 0 0 0 0 0 0 127 0" result="hardAlpha"/>
<feOffset dy="4"/>
<feGaussianBlur stdDeviation="4"/>
<feComposite in2="hardAlpha" operator="out"/>
<feColorMatrix type="matrix" values="0 0 0 0 0 0 0 0 0 0 0 0 0 0 0 0 0 0 0.08 0"/>
<feBlend mode="normal" in2="BackgroundImageFix" result="effect1_dropShadow_1254_164221"/>
<feColorMatrix in="SourceAlpha" type="matrix" values="0 0 0 0 0 0 0 0 0 0 0 0 0 0 0 0 0 0 127 0" result="hardAlpha"/>
<feOffset/>
<feGaussianBlur stdDeviation="0.5"/>
<feComposite in2="hardAlpha" operator="out"/>
<feColorMatrix type="matrix" values="0 0 0 0 0 0 0 0 0 0 0 0 0 0 0 0 0 0 0.08 0"/>
<feBlend mode="normal" in2="effect1_dropShadow_1254_164221" result="effect2_dropShadow_1254_164221"/>
<feBlend mode="normal" in="SourceGraphic" in2="effect2_dropShadow_1254_164221" result="shape"/>
</filter>
<linearGradient id="paint0_linear_1254_164221" x1="259.531" y1="192" x2="259.531" y2="140" gradientUnits="userSpaceOnUse">
<stop stop-opacity="0.04"/>
<stop offset="1" stop-color="var(--sol-surface)" stop-opacity="0"/>
</linearGradient>
<clipPath id="clip0_1254_164221">
<rect width="288" height="192" fill="var(--sol-surface)"/>
</clipPath>
<clipPath id="clip1_1254_164221">
<rect width="243" height="32" fill="var(--sol-surface)" transform="translate(22 3)"/>
</clipPath>
<clipPath id="clip2_1254_164221">
<rect width="243" height="32" fill="var(--sol-surface)" transform="translate(22 35)"/>
</clipPath>
<clipPath id="clip3_1254_164221">
<rect width="243" height="32" fill="var(--sol-surface)" transform="translate(22 67)"/>
</clipPath>
<clipPath id="clip4_1254_164221">
<rect width="243" height="32" fill="var(--sol-surface)" transform="translate(22 99)"/>
</clipPath>
<clipPath id="clip5_1254_164221">
<rect width="254" height="32" fill="var(--sol-surface)" transform="translate(22 99)"/>
</clipPath>
<clipPath id="clip6_1254_164221">
<rect width="243" height="32" fill="var(--sol-surface)" transform="translate(22 131)"/>
</clipPath>
<clipPath id="clip7_1254_164221">
<rect width="243" height="32" fill="var(--sol-surface)" transform="translate(22 163)"/>
</clipPath>
</defs>
</svg>
