<svg width="288" height="192" viewBox="0 0 288 192" fill="none" xmlns="http://www.w3.org/2000/svg">
<style>
:root {
  --sol-primary: #282363;
  --sol-element-brand-variant: #3a3480;
  --sol-fill-active: #4d469a;
  --sol-selected-container-variant: #f5f4fd;
  --sol-surface: #ffffff;
  --sol-surface-base-variant: #f5f5f5;
  --sol-secondary-container: #e8e6f8;
  --sol-element-primary: #161616;
  --sol-element-secondary: #484848;
  --sol-element-tertiary: #636363;
  --sol-element-quaternary: #858585;
  --sol-border-brand: #7b74c4;
  --sol-border-normal-variant: rgba(0, 0, 0, 0.08);
  --sol-border-solid-variant: #e0e0e0;
  --sol-border-solid: #d0d0d0;
  --sol-error: #e76067;
  --sol-error-container: #fdeaeb;
  --sol-static-white: #ffffff;
  --sol-static-black: #000000;
  --color-brand-400: #6058b4;
  --color-teal-500: #05a09a;
  --color-green-500: #35a142;
  --color-yellow-500: #d4ae00;
  --color-orange-500: #e06418;
  --color-blue-500: #3e9bca;
  --color-indigo-500: #3d5ed6;
  --color-pink-500: #d03e94;
}
@media (prefers-color-scheme: dark) {
  :root {
    --sol-primary: #9791d4;
    --sol-element-brand-variant: #ffffff;
    --sol-fill-active: #7b74c4;
    --sol-selected-container-variant: rgba(0, 0, 0, 0.08);
    --sol-surface: #161616;
    --sol-surface-base-variant: #1c1c1c;
    --sol-secondary-container: rgba(255, 255, 255, 0.16);
    --sol-element-primary: #ffffff;
    --sol-element-secondary: rgba(255, 255, 255, 0.8);
    --sol-element-tertiary: rgba(255, 255, 255, 0.6);
    --sol-element-quaternary: rgba(255, 255, 255, 0.5);
    --sol-border-brand: #7b74c4;
    --sol-border-normal-variant: rgba(255, 255, 255, 0.08);
    --sol-border-solid-variant: #3d3d3d;
    --sol-border-solid: #333333;
    --sol-error: #ee7a80;
    --sol-error-container: rgba(231, 96, 103, 0.24);
    --sol-static-white: #ffffff;
    --sol-static-black: #000000;
  }
}
</style>
<g filter="url(#filter0_dd_1254_318303)">
<rect x="33" y="47" width="222" height="97.7692" fill="var(--sol-surface)" shape-rendering="crispEdges"/>
<rect x="33.3462" y="47.3462" width="221.308" height="97.0769" stroke="var(--sol-border-solid-variant)" stroke-width="0.692308" shape-rendering="crispEdges"/>
<rect x="46.8457" y="60.8457" width="64.3846" height="13.1538" rx="1.38462" fill="var(--sol-element-primary)" fill-opacity="0.04"/>
<rect x="47.8457" y="81.9229" width="191.154" height="48" rx="3" fill="var(--sol-selected-container-variant)" stroke="var(--sol-fill-active)" stroke-width="2" stroke-dasharray="3 3"/>
<path d="M142.739 107.343L140.674 109.408L139.95 108.684L142.888 105.746L142.966 105.682C143.05 105.627 143.149 105.596 143.251 105.596C143.386 105.596 143.517 105.65 143.612 105.746L146.55 108.684L145.827 109.408L143.762 107.343V112.417H142.739V107.343ZM136.297 105.141C136.297 102.191 138.689 99.7989 141.639 99.7988C143.579 99.7988 145.275 100.833 146.211 102.377C148.421 102.41 150.203 104.212 150.203 106.43C150.203 107.689 149.629 108.815 148.729 109.558L148.078 108.769C148.752 108.212 149.18 107.371 149.18 106.43C149.18 104.756 147.823 103.398 146.149 103.398C145.871 103.398 145.606 103.272 145.433 103.052L145.364 102.952C144.612 101.676 143.225 100.822 141.639 100.822C139.254 100.822 137.32 102.756 137.32 105.141C137.32 106.332 137.801 107.409 138.58 108.191L137.855 108.913C136.893 107.947 136.297 106.613 136.297 105.141Z" fill="var(--sol-element-quaternary)"/>
<path d="M152.078 99.0778C152.078 94.787 155.557 91.3086 159.847 91.3086H265.078C269.369 91.3086 272.847 94.787 272.847 99.0778C272.847 103.369 269.369 106.847 265.078 106.847H159.847C155.557 106.847 152.078 103.369 152.078 99.0778Z" fill="var(--sol-fill-active)"/>
<path d="M162.704 97.3441C162.704 97.3813 162.734 97.4117 162.771 97.4117H164.317C164.28 97.3432 164.232 97.2803 164.175 97.226L162.871 95.9925C162.82 95.9447 162.764 95.9047 162.704 95.8732L162.704 97.3441Z" fill="var(--sol-surface)"/>
<path fill-rule="evenodd" clip-rule="evenodd" d="M162.298 95.7891V97.3441C162.298 97.605 162.51 97.8173 162.771 97.8173H164.407V101.622C164.407 102.032 164.074 102.366 163.664 102.366H159.877C159.467 102.366 159.134 102.032 159.134 101.622V96.5328C159.134 96.1227 159.467 95.7891 159.877 95.7891H162.298ZM160.04 100.635V101.051H161.771V100.635H160.04ZM160.04 99.5968V100.012H163.501V99.5968H160.04ZM160.04 98.5583V98.9737H163.501V98.5583H160.04Z" fill="var(--sol-surface)"/>
<path d="M171.162 97.6809C171.097 97.1049 170.57 96.7722 169.864 96.7722C169.085 96.7722 168.574 97.1779 168.574 97.7377C168.574 98.3543 169.264 98.5814 169.71 98.695L170.294 98.8573C170.927 99.0195 171.957 99.3846 171.957 100.48C171.957 101.437 171.187 102.184 169.824 102.184C168.558 102.184 167.771 101.526 167.706 100.553H168.453C168.517 101.21 169.126 101.518 169.824 101.518C170.635 101.518 171.243 101.105 171.243 100.464C171.243 99.8957 170.7 99.6767 170.083 99.4982L169.361 99.3035C168.436 99.0358 167.868 98.5652 167.868 97.7701C167.868 96.7803 168.753 96.1232 169.889 96.1232C171.024 96.1232 171.844 96.7885 171.876 97.6809H171.162ZM175.697 100.269V97.6728H176.387V102.078H175.697V101.332H175.649C175.438 101.778 175.008 102.135 174.343 102.135C173.507 102.135 172.915 101.591 172.915 100.472V97.6728H173.612V100.423C173.612 101.056 174.01 101.462 174.57 101.462C175.065 101.462 175.697 101.088 175.697 100.269ZM177.507 103.733V97.6728H178.18V98.3705H178.261C178.407 98.1352 178.683 97.616 179.535 97.616C180.638 97.616 181.409 98.4922 181.409 99.8876C181.409 101.283 180.638 102.167 179.543 102.167C178.699 102.167 178.407 101.648 178.261 101.405H178.204V103.733H177.507ZM178.188 99.8714C178.188 100.861 178.634 101.543 179.446 101.543C180.281 101.543 180.711 100.812 180.711 99.8714C180.711 98.9546 180.289 98.2407 179.446 98.2407C178.618 98.2407 178.188 98.8978 178.188 99.8714ZM182.318 103.733V97.6728H182.991V98.3705H183.072C183.218 98.1352 183.494 97.616 184.346 97.616C185.449 97.616 186.22 98.4922 186.22 99.8876C186.22 101.283 185.449 102.167 184.354 102.167C183.51 102.167 183.218 101.648 183.072 101.405H183.015V103.733H182.318ZM182.999 99.8714C182.999 100.861 183.445 101.543 184.257 101.543C185.092 101.543 185.522 100.812 185.522 99.8714C185.522 98.9546 185.1 98.2407 184.257 98.2407C183.429 98.2407 182.999 98.8978 182.999 99.8714ZM188.93 102.167C187.729 102.167 186.918 101.267 186.918 99.8957C186.918 98.5246 187.729 97.616 188.93 97.616C190.122 97.616 190.925 98.5246 190.925 99.8957C190.925 101.267 190.122 102.167 188.93 102.167ZM188.93 101.551C189.814 101.551 190.228 100.772 190.228 99.8957C190.228 99.0195 189.814 98.2326 188.93 98.2326C188.029 98.2326 187.615 99.0195 187.615 99.8957C187.615 100.772 188.029 101.551 188.93 101.551ZM191.842 102.078V97.6728H192.516V98.3462H192.564C192.727 97.8999 193.181 97.5998 193.7 97.5998C193.806 97.5998 193.984 97.6079 194.065 97.616V98.3218C194.017 98.3056 193.822 98.2731 193.643 98.2731C193.011 98.2731 192.54 98.7112 192.54 99.3035V102.078H191.842ZM196.945 97.6728V98.2569H196.02V100.812C196.02 101.38 196.296 101.47 196.596 101.47C196.726 101.47 196.905 101.462 197.01 101.453V102.102C196.905 102.119 196.726 102.135 196.523 102.135C195.939 102.135 195.315 101.77 195.315 100.991V98.2569H194.649V97.6728H195.315V96.6181H196.02V97.6728H196.945ZM197.846 102.078V97.6728H198.544V102.078H197.846ZM198.195 96.9426C197.927 96.9426 197.708 96.7398 197.708 96.4802C197.708 96.2206 197.927 96.0177 198.195 96.0177C198.462 96.0177 198.69 96.2206 198.69 96.4802C198.69 96.7398 198.462 96.9426 198.195 96.9426ZM200.353 99.4333V102.078H199.655V97.6728H200.328V98.3624H200.385C200.596 97.9162 201.002 97.616 201.675 97.616C202.568 97.616 203.16 98.1596 203.16 99.2791V102.078H202.462V99.3278C202.462 98.6463 202.089 98.2407 201.464 98.2407C200.823 98.2407 200.353 98.6707 200.353 99.4333ZM206.064 103.822C205.002 103.822 204.279 103.36 204.198 102.541H204.928C205.026 102.987 205.44 103.214 206.064 103.214C206.819 103.214 207.281 102.889 207.281 102.159V101.267H207.224C207.078 101.51 206.794 102.013 205.943 102.013C204.872 102.013 204.069 101.202 204.069 99.8146C204.069 98.4597 204.847 97.616 205.951 97.616C206.803 97.616 207.078 98.1352 207.241 98.3705H207.297V97.6728H207.979V102.2C207.979 103.336 207.135 103.822 206.064 103.822ZM206.04 101.389C206.843 101.389 207.297 100.812 207.297 99.8389C207.297 98.8978 206.859 98.2407 206.04 98.2407C205.196 98.2407 204.774 98.9546 204.774 99.8389C204.774 100.756 205.204 101.389 206.04 101.389ZM212.409 102.078V102.719H208.733V102.078H212.409ZM214.559 102.167C213.463 102.167 212.684 101.283 212.684 99.8876C212.684 98.4922 213.463 97.616 214.567 97.616C215.419 97.616 215.694 98.1352 215.84 98.3705H215.889V96.2043H216.595V102.078H215.913V101.405H215.84C215.686 101.648 215.402 102.167 214.559 102.167ZM214.656 101.543C215.459 101.543 215.913 100.861 215.913 99.8714C215.913 98.8978 215.475 98.2407 214.656 98.2407C213.812 98.2407 213.39 98.9546 213.39 99.8714C213.39 100.812 213.82 101.543 214.656 101.543ZM219.605 102.167C218.404 102.167 217.593 101.267 217.593 99.8957C217.593 98.5246 218.404 97.616 219.605 97.616C220.797 97.616 221.601 98.5246 221.601 99.8957C221.601 101.267 220.797 102.167 219.605 102.167ZM219.605 101.551C220.489 101.551 220.903 100.772 220.903 99.8957C220.903 99.0195 220.489 98.2326 219.605 98.2326C218.704 98.2326 218.291 99.0195 218.291 99.8957C218.291 100.772 218.704 101.551 219.605 101.551ZM224.319 102.167C223.069 102.167 222.306 101.218 222.306 99.8957C222.306 98.5571 223.102 97.616 224.302 97.616C225.243 97.616 225.941 98.1677 226.055 99.0033H225.357C225.26 98.5977 224.903 98.2326 224.319 98.2326C223.532 98.2326 223.004 98.8816 223.004 99.8714C223.004 100.894 223.515 101.543 224.319 101.543C224.838 101.543 225.235 101.267 225.357 100.78H226.055C225.941 101.567 225.3 102.167 224.319 102.167ZM229.697 100.269V97.6728H230.387V102.078H229.697V101.332H229.649C229.438 101.778 229.008 102.135 228.343 102.135C227.507 102.135 226.915 101.591 226.915 100.472V97.6728H227.612V100.423C227.612 101.056 228.01 101.462 228.57 101.462C229.065 101.462 229.697 101.088 229.697 100.269ZM231.507 102.078V97.6728H232.18V98.3624H232.237C232.423 97.8918 232.845 97.616 233.421 97.616C233.997 97.616 234.387 97.8918 234.598 98.3624H234.646C234.873 97.9081 235.336 97.616 235.969 97.616C236.756 97.616 237.316 98.0947 237.316 99.1331V102.078H236.618V99.1412C236.618 98.4922 236.204 98.2407 235.725 98.2407C235.109 98.2407 234.76 98.6544 234.76 99.2142V102.078H234.054V99.0682C234.054 98.5733 233.697 98.2407 233.194 98.2407C232.667 98.2407 232.204 98.6869 232.204 99.3278V102.078H231.507ZM240.285 102.167C239.011 102.167 238.224 101.267 238.224 99.912C238.224 98.5571 239.019 97.616 240.22 97.616C241.145 97.616 242.118 98.1839 242.118 99.8146V100.107H238.922C238.954 101.04 239.498 101.551 240.285 101.551C240.812 101.551 241.145 101.324 241.307 101.048H242.053C241.843 101.713 241.194 102.167 240.285 102.167ZM238.93 99.5144H241.413C241.413 98.7761 240.942 98.2326 240.22 98.2326C239.457 98.2326 238.971 98.8329 238.93 99.5144ZM243.725 99.4333V102.078H243.027V97.6728H243.7V98.3624H243.757C243.968 97.9162 244.374 97.616 245.047 97.616C245.94 97.616 246.532 98.1596 246.532 99.2791V102.078H245.834V99.3278C245.834 98.6463 245.461 98.2407 244.836 98.2407C244.195 98.2407 243.725 98.6707 243.725 99.4333ZM249.574 97.6728V98.2569H248.649V100.812C248.649 101.38 248.925 101.47 249.225 101.47C249.355 101.47 249.534 101.462 249.639 101.453V102.102C249.534 102.119 249.355 102.135 249.152 102.135C248.568 102.135 247.944 101.77 247.944 100.991V98.2569H247.278V97.6728H247.944V96.6181H248.649V97.6728H249.574ZM250.97 102.127C250.686 102.127 250.442 101.892 250.45 101.599C250.442 101.316 250.686 101.08 250.97 101.08C251.254 101.08 251.489 101.316 251.489 101.599C251.489 101.892 251.254 102.127 250.97 102.127ZM253.047 96.2043L254.539 98.6301H254.588L256.089 96.2043H256.949L255.107 99.1412L256.949 102.078H256.089L254.588 99.701H254.539L253.038 102.078H252.178L254.069 99.1412L252.178 96.2043H253.047ZM258.369 96.2043V102.078H257.671V96.2043H258.369ZM261.93 98.8167C261.833 98.4516 261.557 98.2082 261.038 98.2082C260.494 98.2082 260.105 98.5003 260.105 98.8735C260.105 99.1656 260.34 99.3684 260.859 99.4901L261.517 99.6523C262.303 99.8389 262.693 100.228 262.693 100.845C262.693 101.608 262.068 102.167 260.965 102.167C259.975 102.167 259.383 101.729 259.269 100.926H259.999C260.081 101.356 260.397 101.559 260.949 101.559C261.573 101.559 261.971 101.299 261.971 100.886C261.971 100.577 261.752 100.366 261.249 100.253L260.584 100.099C259.813 99.9201 259.407 99.4982 259.407 98.9141C259.407 98.1596 260.064 97.616 261.038 97.616C261.947 97.616 262.523 98.1028 262.612 98.8167H261.93ZM264.129 97.6728L265.167 99.4657L266.214 97.6728H267.017L265.597 99.8714L267.017 102.078H266.222L265.167 100.374L264.129 102.078H263.326L264.713 99.8714L263.326 97.6728H264.129Z" fill="var(--sol-surface)"/>
<g filter="url(#filter1_dd_1254_318303)">
<g filter="url(#filter2_dd_1254_318303)">
<path d="M179.294 105.342L179.383 105.339L179.383 104.754C179.383 104.599 179.445 104.45 179.556 104.341C179.667 104.231 179.817 104.17 179.973 104.17C180.13 104.17 180.28 104.231 180.391 104.341C180.502 104.45 180.564 104.599 180.564 104.754L180.564 104.17C180.564 104.015 180.626 103.866 180.737 103.756C180.848 103.647 180.998 103.585 181.155 103.585C181.312 103.585 181.462 103.647 181.573 103.756C181.684 103.866 181.746 104.015 181.746 104.17L181.746 104.754C181.746 104.599 181.808 104.45 181.919 104.341C182.03 104.231 182.18 104.17 182.337 104.17C182.493 104.17 182.644 104.231 182.754 104.341C182.865 104.45 182.927 104.599 182.927 104.754L182.927 105.339C182.927 105.184 182.99 105.035 183.1 104.925C183.211 104.816 183.361 104.754 183.518 104.754C183.675 104.754 183.825 104.816 183.936 104.925C184.047 105.035 184.109 105.184 184.109 105.339L184.109 107.677C184.109 108.453 183.798 109.196 183.244 109.744C182.69 110.292 181.938 110.6 181.155 110.6H180.86C180.155 110.6 179.478 110.323 178.98 109.83C178.481 109.336 178.201 108.667 178.201 107.97L178.201 106.508C178.201 106.213 178.314 105.929 178.516 105.713C178.719 105.496 178.997 105.364 179.294 105.342ZM179.383 104.754L179.383 106.508L179.383 104.754ZM180.564 104.17L180.564 105.339L180.564 104.17ZM181.746 104.17L181.746 105.339L181.746 104.17ZM182.927 104.754L182.927 105.923L182.927 104.754Z" fill="var(--sol-surface)"/>
<path d="M179.383 104.754L179.383 105.339L179.294 105.342C178.997 105.364 178.719 105.496 178.516 105.713C178.314 105.929 178.201 106.213 178.201 106.508L178.201 107.97C178.201 108.667 178.481 109.336 178.98 109.83C179.478 110.323 180.155 110.6 180.86 110.6H181.155C181.938 110.6 182.69 110.292 183.244 109.744C183.798 109.196 184.109 108.453 184.109 107.677L184.109 105.339C184.109 105.184 184.047 105.035 183.936 104.925C183.825 104.816 183.675 104.754 183.518 104.754C183.361 104.754 183.211 104.816 183.1 104.925C182.99 105.035 182.927 105.184 182.927 105.339L182.927 104.754M179.383 104.754C179.383 104.599 179.445 104.45 179.556 104.341C179.667 104.231 179.817 104.17 179.973 104.17C180.13 104.17 180.28 104.231 180.391 104.341C180.502 104.45 180.564 104.599 180.564 104.754L180.564 104.17M179.383 104.754L179.383 106.508M180.564 104.17C180.564 104.015 180.626 103.866 180.737 103.756C180.848 103.647 180.998 103.585 181.155 103.585C181.312 103.585 181.462 103.647 181.573 103.756C181.684 103.866 181.746 104.015 181.746 104.17M180.564 104.17L180.564 105.339M181.746 104.17L181.746 104.754C181.746 104.599 181.808 104.45 181.919 104.341C182.03 104.231 182.18 104.17 182.337 104.17C182.493 104.17 182.644 104.231 182.754 104.341C182.865 104.45 182.927 104.599 182.927 104.754M181.746 104.17L181.746 105.339M182.927 104.754L182.927 105.923" stroke="var(--sol-element-primary)" stroke-width="0.553846" stroke-linecap="round" stroke-linejoin="round"/>
</g>
</g>
</g>
<defs>
<filter id="filter0_dd_1254_318303" x="27.4615" y="44.2308" width="250.925" height="108.846" filterUnits="userSpaceOnUse" color-interpolation-filters="sRGB">
<feFlood flood-opacity="0" result="BackgroundImageFix"/>
<feColorMatrix in="SourceAlpha" type="matrix" values="0 0 0 0 0 0 0 0 0 0 0 0 0 0 0 0 0 0 127 0" result="hardAlpha"/>
<feOffset dy="2.76923"/>
<feGaussianBlur stdDeviation="2.76923"/>
<feComposite in2="hardAlpha" operator="out"/>
<feColorMatrix type="matrix" values="0 0 0 0 0 0 0 0 0 0 0 0 0 0 0 0 0 0 0.08 0"/>
<feBlend mode="normal" in2="BackgroundImageFix" result="effect1_dropShadow_1254_318303"/>
<feColorMatrix in="SourceAlpha" type="matrix" values="0 0 0 0 0 0 0 0 0 0 0 0 0 0 0 0 0 0 127 0" result="hardAlpha"/>
<feOffset/>
<feGaussianBlur stdDeviation="0.346154"/>
<feComposite in2="hardAlpha" operator="out"/>
<feColorMatrix type="matrix" values="0 0 0 0 0 0 0 0 0 0 0 0 0 0 0 0 0 0 0.08 0"/>
<feBlend mode="normal" in2="effect1_dropShadow_1254_318303" result="effect2_dropShadow_1254_318303"/>
<feBlend mode="normal" in="SourceGraphic" in2="effect2_dropShadow_1254_318303" result="shape"/>
</filter>
<filter id="filter1_dd_1254_318303" x="172.662" y="99.5231" width="16.9848" height="16.9848" filterUnits="userSpaceOnUse" color-interpolation-filters="sRGB">
<feFlood flood-opacity="0" result="BackgroundImageFix"/>
<feColorMatrix in="SourceAlpha" type="matrix" values="0 0 0 0 0 0 0 0 0 0 0 0 0 0 0 0 0 0 127 0" result="hardAlpha"/>
<feOffset dy="1.47692"/>
<feGaussianBlur stdDeviation="1.47692"/>
<feComposite in2="hardAlpha" operator="out"/>
<feColorMatrix type="matrix" values="0 0 0 0 0 0 0 0 0 0 0 0 0 0 0 0 0 0 0.08 0"/>
<feBlend mode="normal" in2="BackgroundImageFix" result="effect1_dropShadow_1254_318303"/>
<feColorMatrix in="SourceAlpha" type="matrix" values="0 0 0 0 0 0 0 0 0 0 0 0 0 0 0 0 0 0 127 0" result="hardAlpha"/>
<feOffset/>
<feGaussianBlur stdDeviation="0.184615"/>
<feComposite in2="hardAlpha" operator="out"/>
<feColorMatrix type="matrix" values="0 0 0 0 0 0 0 0 0 0 0 0 0 0 0 0 0 0 0.08 0"/>
<feBlend mode="normal" in2="effect1_dropShadow_1254_318303" result="effect2_dropShadow_1254_318303"/>
<feBlend mode="normal" in="SourceGraphic" in2="effect2_dropShadow_1254_318303" result="shape"/>
</filter>
<filter id="filter2_dd_1254_318303" x="175.708" y="101.831" width="10.8927" height="12.0001" filterUnits="userSpaceOnUse" color-interpolation-filters="sRGB">
<feFlood flood-opacity="0" result="BackgroundImageFix"/>
<feColorMatrix in="SourceAlpha" type="matrix" values="0 0 0 0 0 0 0 0 0 0 0 0 0 0 0 0 0 0 127 0" result="hardAlpha"/>
<feOffset dy="0.738461"/>
<feGaussianBlur stdDeviation="1.10769"/>
<feComposite in2="hardAlpha" operator="out"/>
<feColorMatrix type="matrix" values="0 0 0 0 0 0 0 0 0 0 0 0 0 0 0 0 0 0 0.08 0"/>
<feBlend mode="normal" in2="BackgroundImageFix" result="effect1_dropShadow_1254_318303"/>
<feColorMatrix in="SourceAlpha" type="matrix" values="0 0 0 0 0 0 0 0 0 0 0 0 0 0 0 0 0 0 127 0" result="hardAlpha"/>
<feOffset/>
<feGaussianBlur stdDeviation="0.184615"/>
<feComposite in2="hardAlpha" operator="out"/>
<feColorMatrix type="matrix" values="0 0 0 0 0 0 0 0 0 0 0 0 0 0 0 0 0 0 0.04 0"/>
<feBlend mode="normal" in2="effect1_dropShadow_1254_318303" result="effect2_dropShadow_1254_318303"/>
<feBlend mode="normal" in="SourceGraphic" in2="effect2_dropShadow_1254_318303" result="shape"/>
</filter>
</defs>
</svg>
