<svg width="288" height="192" viewBox="0 0 288 192" fill="none" xmlns="http://www.w3.org/2000/svg">
<style>
:root {
  --sol-primary: #282363;
  --sol-element-brand-variant: #3a3480;
  --sol-fill-active: #4d469a;
  --sol-selected-container-variant: #f5f4fd;
  --sol-surface: #ffffff;
  --sol-surface-base-variant: #f5f5f5;
  --sol-secondary-container: #e8e6f8;
  --sol-element-primary: #161616;
  --sol-element-secondary: #484848;
  --sol-element-tertiary: #636363;
  --sol-element-quaternary: #858585;
  --sol-border-brand: #7b74c4;
  --sol-border-normal-variant: rgba(0, 0, 0, 0.08);
  --sol-border-solid-variant: #e0e0e0;
  --sol-border-solid: #d0d0d0;
  --sol-error: #e76067;
  --sol-error-container: #fdeaeb;
  --sol-static-white: #ffffff;
  --sol-static-black: #000000;
  --color-brand-400: #6058b4;
  --color-teal-500: #05a09a;
  --color-green-500: #35a142;
  --color-yellow-500: #d4ae00;
  --color-orange-500: #e06418;
  --color-blue-500: #3e9bca;
  --color-indigo-500: #3d5ed6;
  --color-pink-500: #d03e94;
}
@media (prefers-color-scheme: dark) {
  :root {
    --sol-primary: #9791d4;
    --sol-element-brand-variant: #ffffff;
    --sol-fill-active: #7b74c4;
    --sol-selected-container-variant: rgba(0, 0, 0, 0.08);
    --sol-surface: #161616;
    --sol-surface-base-variant: #1c1c1c;
    --sol-secondary-container: rgba(255, 255, 255, 0.16);
    --sol-element-primary: #ffffff;
    --sol-element-secondary: rgba(255, 255, 255, 0.8);
    --sol-element-tertiary: rgba(255, 255, 255, 0.6);
    --sol-element-quaternary: rgba(255, 255, 255, 0.5);
    --sol-border-brand: #7b74c4;
    --sol-border-normal-variant: rgba(255, 255, 255, 0.08);
    --sol-border-solid-variant: #3d3d3d;
    --sol-border-solid: #333333;
    --sol-error: #ee7a80;
    --sol-error-container: rgba(231, 96, 103, 0.24);
    --sol-static-white: #ffffff;
    --sol-static-black: #000000;
  }
}
</style>
<rect width="288" height="192" fill="var(--sol-surface-base-variant)"/>
<g filter="url(#filter0_dd_1344_143220)">
<rect x="30" y="36.2637" width="228" height="119.472" rx="2.20264" fill="var(--sol-surface)" shape-rendering="crispEdges"/>
<rect x="30.2753" y="36.539" width="227.449" height="118.921" rx="1.92731" stroke="var(--sol-border-solid-variant)" stroke-width="0.550661" shape-rendering="crispEdges"/>
<path d="M43.9336 55.2637L42.1406 48.9004H43.3711L44.5225 53.585H44.584L45.8057 48.9004H46.9307L48.1611 53.5938H48.2139L49.3652 48.9004H50.5957L48.8027 55.2637H47.6689L46.3945 50.79H46.3506L45.0674 55.2637H43.9336ZM51.2725 55.2637V50.4912H52.3975V55.2637H51.2725ZM51.8438 49.8145C51.4922 49.8145 51.1934 49.542 51.1934 49.1992C51.1934 48.8652 51.4922 48.5928 51.8438 48.5928C52.2041 48.5928 52.4941 48.8652 52.4941 49.1992C52.4941 49.542 52.2041 49.8145 51.8438 49.8145ZM55.2451 55.3516C54.1201 55.3516 53.2764 54.4551 53.2764 52.8818C53.2764 51.291 54.1465 50.4297 55.2539 50.4297C56.0977 50.4297 56.4492 50.9307 56.6162 51.2734H56.6602V48.9004H57.7764V55.2637H56.6777V54.5078H56.6162C56.4404 54.8594 56.0713 55.3516 55.2451 55.3516ZM55.5527 54.4287C56.2734 54.4287 56.6865 53.8047 56.6865 52.873C56.6865 51.9502 56.2822 51.3438 55.5527 51.3438C54.8057 51.3438 54.4189 51.9854 54.4189 52.873C54.4189 53.7783 54.8145 54.4287 55.5527 54.4287ZM60.9932 57.1533C59.7275 57.1533 58.9277 56.5908 58.8486 55.6943H59.9648C60.0439 56.1074 60.4395 56.3096 61.0107 56.3096C61.6787 56.3096 62.1182 56.0195 62.1182 55.3164V54.4023H62.0654C61.8896 54.7539 61.5117 55.1934 60.6855 55.1934C59.5869 55.1934 58.7168 54.3936 58.7168 52.8379C58.7168 51.2646 59.5869 50.4297 60.6943 50.4297C61.5381 50.4297 61.8896 50.9307 62.0654 51.2734H62.1182V50.4912H63.2256V55.3428C63.2256 56.5645 62.2852 57.1533 60.9932 57.1533ZM60.9932 54.3145C61.7139 54.3145 62.127 53.7695 62.127 52.8555C62.127 51.9502 61.7227 51.3438 60.9932 51.3438C60.2461 51.3438 59.8594 51.9854 59.8594 52.8555C59.8594 53.7344 60.2549 54.3145 60.9932 54.3145ZM66.416 55.3604C64.9746 55.3604 64.0957 54.4023 64.0957 52.9082C64.0957 51.4316 64.9922 50.4297 66.3545 50.4297C67.5234 50.4297 68.5342 51.1592 68.5342 52.8379V53.1895H65.2031C65.2163 54.0024 65.6953 54.4814 66.4248 54.4814C66.917 54.4814 67.251 54.2705 67.3916 53.9893H68.4902C68.2881 54.8154 67.5234 55.3604 66.416 55.3604ZM65.2119 52.4248H67.4619C67.4531 51.7744 67.0225 51.2998 66.3721 51.2998C65.6953 51.2998 65.2471 51.814 65.2119 52.4248ZM71.7861 50.4912V51.3525H70.8457V53.8311C70.8457 54.2881 71.0742 54.3848 71.3555 54.3848C71.4873 54.3848 71.707 54.376 71.8477 54.3672V55.2812C71.7158 55.3076 71.4961 55.3252 71.2148 55.3252C70.3711 55.3252 69.7207 54.9121 69.7295 54.0156V51.3525H69.0439V50.4912H69.7295V49.3486H70.8457V50.4912H71.7861ZM74.5547 49.8584V48.9004H79.626V49.8584H77.666V55.2637H76.5234V49.8584H74.5547ZM80.4697 55.2637V50.4912H81.5947V55.2637H80.4697ZM81.041 49.8145C80.6895 49.8145 80.3906 49.542 80.3906 49.1992C80.3906 48.8652 80.6895 48.5928 81.041 48.5928C81.4014 48.5928 81.6914 48.8652 81.6914 49.1992C81.6914 49.542 81.4014 49.8145 81.041 49.8145ZM85.0488 50.4912V51.3525H84.1084V53.8311C84.1084 54.2881 84.3369 54.3848 84.6182 54.3848C84.75 54.3848 84.9697 54.376 85.1104 54.3672V55.2812C84.9785 55.3076 84.7588 55.3252 84.4775 55.3252C83.6338 55.3252 82.9834 54.9121 82.9922 54.0156V51.3525H82.3066V50.4912H82.9922V49.3486H84.1084V50.4912H85.0488ZM87.1406 48.9004V55.2637H86.0156V48.9004H87.1406ZM90.3311 55.3604C88.8896 55.3604 88.0107 54.4023 88.0107 52.9082C88.0107 51.4316 88.9072 50.4297 90.2695 50.4297C91.4385 50.4297 92.4492 51.1592 92.4492 52.8379V53.1895H89.1182C89.1313 54.0024 89.6104 54.4814 90.3398 54.4814C90.832 54.4814 91.166 54.2705 91.3066 53.9893H92.4053C92.2031 54.8154 91.4385 55.3604 90.3311 55.3604ZM89.127 52.4248H91.377C91.3682 51.7744 90.9375 51.2998 90.2871 51.2998C89.6104 51.2998 89.1621 51.814 89.127 52.4248Z" fill="var(--sol-element-primary)"/>
<g opacity="0.3">
<path d="M43.4432 71.2946V74.5195H43.0378V71.7133H43.02L42.2361 72.2345V71.8291L43.0378 71.2946H43.4432ZM45.3585 74.5641C44.6414 74.5641 44.2316 73.9627 44.2316 72.9071C44.2316 71.8603 44.6503 71.2501 45.3585 71.2501C46.0668 71.2501 46.4855 71.8603 46.4855 72.9071C46.4855 73.9627 46.0712 74.5641 45.3585 74.5641ZM45.3585 74.2077C45.8218 74.2077 46.0935 73.74 46.0935 72.9071C46.0935 72.0741 45.8218 71.5975 45.3585 71.5975C44.8953 71.5975 44.6191 72.0741 44.6191 72.9071C44.6191 73.74 44.8908 74.2077 45.3585 74.2077ZM48.0757 74.5641C47.3585 74.5641 46.9487 73.9627 46.9487 72.9071C46.9487 71.8603 47.3674 71.2501 48.0757 71.2501C48.7839 71.2501 49.2026 71.8603 49.2026 72.9071C49.2026 73.9627 48.7883 74.5641 48.0757 74.5641ZM48.0757 74.2077C48.5389 74.2077 48.8106 73.74 48.8106 72.9071C48.8106 72.0741 48.5389 71.5975 48.0757 71.5975C47.6124 71.5975 47.3362 72.0741 47.3362 72.9071C47.3362 73.74 47.608 74.2077 48.0757 74.2077Z" fill="var(--sol-element-quaternary)"/>
<rect x="56.0815" y="73.3301" width="187.918" height="0.3801" fill="var(--sol-border-solid-variant)"/>
<path d="M43.3808 85.1109C42.7038 85.1109 42.2316 84.7368 42.2361 84.2112C42.2316 83.7925 42.5212 83.4495 42.8909 83.3916V83.3738C42.5701 83.2981 42.3608 83.0041 42.3608 82.6522C42.3608 82.1578 42.7929 81.797 43.3808 81.797C43.9688 81.797 44.4009 82.1578 44.4053 82.6522C44.4009 83.0041 44.1871 83.2981 43.8708 83.3738V83.3916C44.2361 83.4495 44.5256 83.7925 44.53 84.2112C44.5256 84.7368 44.0534 85.1109 43.3808 85.1109ZM43.3808 84.7591C43.8441 84.7591 44.1292 84.5274 44.1292 84.1889C44.1292 83.8326 43.8129 83.5698 43.3808 83.5698C42.9488 83.5698 42.6281 83.8326 42.637 84.1889C42.6281 84.5274 42.9176 84.7591 43.3808 84.7591ZM43.3808 83.2312C43.7461 83.2312 44.0133 83.0085 44.0133 82.6834C44.0133 82.3627 43.7594 82.1444 43.3808 82.1444C42.9978 82.1444 42.7483 82.3627 42.7483 82.6834C42.7483 83.0085 43.0111 83.2312 43.3808 83.2312ZM46.1247 85.1109C45.4075 85.1109 44.9977 84.5096 44.9977 83.454C44.9977 82.4072 45.4164 81.797 46.1247 81.797C46.8329 81.797 47.2516 82.4072 47.2516 83.454C47.2516 84.5096 46.8374 85.1109 46.1247 85.1109ZM46.1247 84.7546C46.5879 84.7546 46.8596 84.2869 46.8596 83.454C46.8596 82.621 46.5879 82.1444 46.1247 82.1444C45.6614 82.1444 45.3853 82.621 45.3853 83.454C45.3853 84.2869 45.657 84.7546 46.1247 84.7546Z" fill="var(--sol-element-quaternary)"/>
<rect x="57.9644" y="83.877" width="186.036" height="0.3801" fill="var(--sol-border-solid-variant)"/>
<path d="M43.4254 95.6559C42.8641 95.647 42.2494 95.3173 42.2494 94.1236C42.2494 92.9833 42.7171 92.3419 43.4744 92.3419C44.0401 92.3419 44.4365 92.6893 44.5211 93.1971H44.1247C44.049 92.912 43.8352 92.6982 43.4744 92.6982C42.9443 92.6982 42.6281 93.1526 42.6281 93.9276H42.6681C42.8552 93.6603 43.1492 93.5 43.4966 93.5C44.0712 93.5 44.5479 93.9454 44.5479 94.569C44.5479 95.1748 44.1024 95.6603 43.4254 95.6559ZM43.4254 95.304C43.8441 95.304 44.1559 94.9744 44.1603 94.5735C44.1559 94.177 43.8574 93.8519 43.4343 93.8519C43.0111 93.8519 42.686 94.1949 42.6815 94.5779C42.6815 94.9565 42.9933 95.304 43.4254 95.304ZM46.1559 95.6559C45.4387 95.6559 45.0289 95.0545 45.0289 93.9989C45.0289 92.9521 45.4476 92.3419 46.1559 92.3419C46.8641 92.3419 47.2828 92.9521 47.2828 93.9989C47.2828 95.0545 46.8685 95.6559 46.1559 95.6559ZM46.1559 95.2995C46.6191 95.2995 46.8908 94.8318 46.8908 93.9989C46.8908 93.1659 46.6191 92.6893 46.1559 92.6893C45.6926 92.6893 45.4164 93.1659 45.4164 93.9989C45.4164 94.8318 45.6882 95.2995 46.1559 95.2995Z" fill="var(--sol-element-quaternary)"/>
<rect x="57.9644" y="94.4219" width="186.036" height="0.3801" fill="var(--sol-border-solid-variant)"/>
<path d="M42.2227 105.497V105.167L43.6748 102.931H44.1692V105.145H44.6191V105.497H44.1692V106.156H43.7862V105.497H42.2227ZM42.6548 105.145H43.7862V103.439H43.7461L42.6548 105.118V105.145ZM46.2049 106.201C45.4877 106.201 45.0779 105.599 45.0779 104.544C45.0779 103.497 45.4966 102.887 46.2049 102.887C46.9131 102.887 47.3318 103.497 47.3318 104.544C47.3318 105.599 46.9175 106.201 46.2049 106.201ZM46.2049 105.844C46.6681 105.844 46.9398 105.377 46.9398 104.544C46.9398 103.711 46.6681 103.234 46.2049 103.234C45.7416 103.234 45.4654 103.711 45.4654 104.544C45.4654 105.377 45.7372 105.844 46.2049 105.844Z" fill="var(--sol-element-quaternary)"/>
<rect x="57.9644" y="104.967" width="186.036" height="0.3801" fill="var(--sol-border-solid-variant)"/>
<path d="M42.3029 116.701L42.2984 116.407L43.3986 115.249C43.7817 114.844 43.9643 114.625 43.9643 114.327C43.9643 113.997 43.6837 113.779 43.3229 113.779C42.9399 113.779 42.6949 114.024 42.6949 114.385H42.3163C42.3118 113.815 42.7528 113.432 43.3363 113.432C43.9198 113.432 44.3385 113.824 44.3385 114.327C44.3385 114.688 44.1692 114.968 43.5991 115.556L42.8597 116.318V116.345H44.3964V116.701H42.3029ZM46.0356 116.746C45.3184 116.746 44.9087 116.144 44.9087 115.089C44.9087 114.042 45.3274 113.432 46.0356 113.432C46.7438 113.432 47.1625 114.042 47.1625 115.089C47.1625 116.144 46.7483 116.746 46.0356 116.746ZM46.0356 116.389C46.4988 116.389 46.7705 115.922 46.7705 115.089C46.7705 114.256 46.4988 113.779 46.0356 113.779C45.5723 113.779 45.2962 114.256 45.2962 115.089C45.2962 115.922 45.5679 116.389 46.0356 116.389Z" fill="var(--sol-element-quaternary)"/>
<rect x="57.9644" y="115.512" width="186.036" height="0.3801" fill="var(--sol-border-solid-variant)"/>
<path d="M43.3586 127.291C42.6414 127.291 42.2316 126.689 42.2316 125.634C42.2316 124.587 42.6503 123.977 43.3586 123.977C44.0668 123.977 44.4855 124.587 44.4855 125.634C44.4855 126.689 44.0712 127.291 43.3586 127.291ZM43.3586 126.934C43.8218 126.934 44.0935 126.467 44.0935 125.634C44.0935 124.801 43.8218 124.324 43.3586 124.324C42.8953 124.324 42.6191 124.801 42.6191 125.634C42.6191 126.467 42.8909 126.934 43.3586 126.934Z" fill="var(--sol-element-quaternary)"/>
<rect x="57.9644" y="128.865" width="186.036" height="0.3801" fill="var(--sol-border-solid-variant)"/>
<path d="M67.9385 137.395C68.4952 137.4 69.1098 137.734 69.1098 138.923C69.1098 140.067 68.6422 140.709 67.8851 140.709C67.3195 140.709 66.9187 140.361 66.8385 139.849H67.2349C67.3061 140.139 67.5244 140.352 67.8851 140.352C68.4106 140.352 68.7313 139.898 68.7357 139.114H68.6912C68.5041 139.381 68.2102 139.542 67.8673 139.542C67.2883 139.542 66.8118 139.101 66.8118 138.477C66.8118 137.876 67.2527 137.391 67.9385 137.395ZM67.9385 137.747C67.5155 137.747 67.1992 138.077 67.2037 138.473C67.2037 138.874 67.5021 139.19 67.9252 139.19C68.3438 139.19 68.6734 138.843 68.6734 138.464C68.6734 138.094 68.3661 137.747 67.9385 137.747ZM69.9382 140.237C69.7823 140.237 69.6487 140.107 69.6532 139.947C69.6487 139.791 69.7823 139.662 69.9382 139.662C70.0941 139.662 70.2232 139.791 70.2232 139.947C70.2232 140.107 70.0941 140.237 69.9382 140.237ZM69.9382 138.446C69.7823 138.446 69.6487 138.317 69.6532 138.157C69.6487 138.001 69.7823 137.872 69.9382 137.872C70.0941 137.872 70.2232 138.001 70.2232 138.157C70.2232 138.317 70.0941 138.446 69.9382 138.446ZM71.8755 140.709C71.1585 140.709 70.7488 140.107 70.7488 139.052C70.7488 138.005 71.1674 137.395 71.8755 137.395C72.5836 137.395 73.0023 138.005 73.0023 139.052C73.0023 140.107 72.5881 140.709 71.8755 140.709ZM71.8755 140.352C72.3387 140.352 72.6104 139.885 72.6104 139.052C72.6104 138.219 72.3387 137.743 71.8755 137.743C71.4123 137.743 71.1362 138.219 71.1362 139.052C71.1362 139.885 71.4079 140.352 71.8755 140.352ZM74.5922 140.709C73.8752 140.709 73.4654 140.107 73.4654 139.052C73.4654 138.005 73.8841 137.395 74.5922 137.395C75.3003 137.395 75.719 138.005 75.719 139.052C75.719 140.107 75.3048 140.709 74.5922 140.709ZM74.5922 140.352C75.0554 140.352 75.327 139.885 75.327 139.052C75.327 138.219 75.0554 137.743 74.5922 137.743C74.129 137.743 73.8529 138.219 73.8529 139.052C73.8529 139.885 74.1246 140.352 74.5922 140.352Z" fill="var(--sol-element-quaternary)"/>
<path d="M90.0783 137.44V140.664H89.673V137.858H89.6552L88.8714 138.379V137.974L89.673 137.44H90.0783ZM91.9934 140.709C91.2763 140.709 90.8666 140.107 90.8666 139.052C90.8666 138.005 91.2852 137.395 91.9934 137.395C92.7015 137.395 93.1201 138.005 93.1201 139.052C93.1201 140.107 92.7059 140.709 91.9934 140.709ZM91.9934 140.352C92.4565 140.352 92.7282 139.885 92.7282 139.052C92.7282 138.219 92.4565 137.743 91.9934 137.743C91.5302 137.743 91.2541 138.219 91.2541 139.052C91.2541 139.885 91.5257 140.352 91.9934 140.352ZM93.9307 140.237C93.7748 140.237 93.6412 140.107 93.6456 139.947C93.6412 139.791 93.7748 139.662 93.9307 139.662C94.0865 139.662 94.2157 139.791 94.2157 139.947C94.2157 140.107 94.0865 140.237 93.9307 140.237ZM93.9307 138.446C93.7748 138.446 93.6412 138.317 93.6456 138.157C93.6412 138.001 93.7748 137.872 93.9307 137.872C94.0865 137.872 94.2157 138.001 94.2157 138.157C94.2157 138.317 94.0865 138.446 93.9307 138.446ZM95.868 140.709C95.1509 140.709 94.7412 140.107 94.7412 139.052C94.7412 138.005 95.1599 137.395 95.868 137.395C96.5761 137.395 96.9947 138.005 96.9947 139.052C96.9947 140.107 96.5805 140.709 95.868 140.709ZM95.868 140.352C96.3311 140.352 96.6028 139.885 96.6028 139.052C96.6028 138.219 96.3311 137.743 95.868 137.743C95.4048 137.743 95.1287 138.219 95.1287 139.052C95.1287 139.885 95.4003 140.352 95.868 140.352ZM98.5847 140.709C97.8676 140.709 97.4579 140.107 97.4579 139.052C97.4579 138.005 97.8765 137.395 98.5847 137.395C99.2928 137.395 99.7114 138.005 99.7114 139.052C99.7114 140.107 99.2972 140.709 98.5847 140.709ZM98.5847 140.352C99.0478 140.352 99.3195 139.885 99.3195 139.052C99.3195 138.219 99.0478 137.743 98.5847 137.743C98.1215 137.743 97.8454 138.219 97.8454 139.052C97.8454 139.885 98.117 140.352 98.5847 140.352Z" fill="var(--sol-element-quaternary)"/>
<path d="M113.469 137.44V140.664H113.064V137.858H113.046L112.262 138.379V137.974L113.064 137.44H113.469ZM115.469 137.44V140.664H115.063V137.858H115.046L114.262 138.379V137.974L115.063 137.44H115.469ZM116.604 140.237C116.449 140.237 116.315 140.107 116.319 139.947C116.315 139.791 116.449 139.662 116.604 139.662C116.76 139.662 116.889 139.791 116.889 139.947C116.889 140.107 116.76 140.237 116.604 140.237ZM116.604 138.446C116.449 138.446 116.315 138.317 116.319 138.157C116.315 138.001 116.449 137.872 116.604 137.872C116.76 137.872 116.889 138.001 116.889 138.157C116.889 138.317 116.76 138.446 116.604 138.446ZM118.542 140.709C117.825 140.709 117.415 140.107 117.415 139.052C117.415 138.005 117.834 137.395 118.542 137.395C119.25 137.395 119.668 138.005 119.668 139.052C119.668 140.107 119.254 140.709 118.542 140.709ZM118.542 140.352C119.005 140.352 119.277 139.885 119.277 139.052C119.277 138.219 119.005 137.743 118.542 137.743C118.079 137.743 117.802 138.219 117.802 139.052C117.802 139.885 118.074 140.352 118.542 140.352ZM121.258 140.709C120.541 140.709 120.132 140.107 120.132 139.052C120.132 138.005 120.55 137.395 121.258 137.395C121.966 137.395 122.385 138.005 122.385 139.052C122.385 140.107 121.971 140.709 121.258 140.709ZM121.258 140.352C121.722 140.352 121.993 139.885 121.993 139.052C121.993 138.219 121.722 137.743 121.258 137.743C120.795 137.743 120.519 138.219 120.519 139.052C120.519 139.885 120.791 140.352 121.258 140.352Z" fill="var(--sol-element-quaternary)"/>
<path d="M136.163 137.44V140.664H135.758V137.858H135.74L134.956 138.379V137.974L135.758 137.44H136.163ZM137.023 140.664L137.018 140.37L138.118 139.212C138.501 138.807 138.684 138.589 138.684 138.29C138.684 137.961 138.403 137.743 138.043 137.743C137.66 137.743 137.415 137.987 137.415 138.348H137.036C137.032 137.778 137.473 137.395 138.056 137.395C138.639 137.395 139.058 137.787 139.058 138.29C139.058 138.651 138.889 138.932 138.319 139.519L137.58 140.281V140.308H139.116V140.664H137.023ZM139.976 140.237C139.82 140.237 139.686 140.107 139.691 139.947C139.686 139.791 139.82 139.662 139.976 139.662C140.131 139.662 140.261 139.791 140.261 139.947C140.261 140.107 140.131 140.237 139.976 140.237ZM139.976 138.446C139.82 138.446 139.686 138.317 139.691 138.157C139.686 138.001 139.82 137.872 139.976 137.872C140.131 137.872 140.261 138.001 140.261 138.157C140.261 138.317 140.131 138.446 139.976 138.446ZM141.913 140.709C141.196 140.709 140.786 140.107 140.786 139.052C140.786 138.005 141.205 137.395 141.913 137.395C142.621 137.395 143.04 138.005 143.04 139.052C143.04 140.107 142.625 140.709 141.913 140.709ZM141.913 140.352C142.376 140.352 142.648 139.885 142.648 139.052C142.648 138.219 142.376 137.743 141.913 137.743C141.45 137.743 141.174 138.219 141.174 139.052C141.174 139.885 141.445 140.352 141.913 140.352ZM144.63 140.709C143.913 140.709 143.503 140.107 143.503 139.052C143.503 138.005 143.921 137.395 144.63 137.395C145.338 137.395 145.756 138.005 145.756 139.052C145.756 140.107 145.342 140.709 144.63 140.709ZM144.63 140.352C145.093 140.352 145.364 139.885 145.364 139.052C145.364 138.219 145.093 137.743 144.63 137.743C144.166 137.743 143.89 138.219 143.89 139.052C143.89 139.885 144.162 140.352 144.63 140.352Z" fill="var(--sol-element-quaternary)"/>
<path d="M159.126 137.44V140.664H158.721V137.858H158.703L157.92 138.379V137.974L158.721 137.44H159.126ZM161.099 140.709C160.458 140.709 159.999 140.366 159.977 139.854H160.382C160.405 140.161 160.712 140.352 161.095 140.352C161.518 140.352 161.83 140.121 161.83 139.787C161.83 139.435 161.549 139.185 161.046 139.185H160.783V138.834H161.046C161.438 138.834 161.71 138.615 161.71 138.281C161.71 137.961 161.474 137.743 161.108 137.743C160.765 137.743 160.449 137.934 160.431 138.25H160.044C160.066 137.738 160.538 137.395 161.113 137.395C161.727 137.395 162.101 137.796 162.097 138.259C162.101 138.624 161.888 138.896 161.549 138.99V139.012C161.968 139.079 162.226 139.377 162.222 139.787C162.226 140.317 161.741 140.709 161.099 140.709ZM163.077 140.237C162.921 140.237 162.787 140.107 162.792 139.947C162.787 139.791 162.921 139.662 163.077 139.662C163.233 139.662 163.362 139.791 163.362 139.947C163.362 140.107 163.233 140.237 163.077 140.237ZM163.077 138.446C162.921 138.446 162.787 138.317 162.792 138.157C162.787 138.001 162.921 137.872 163.077 137.872C163.233 137.872 163.362 138.001 163.362 138.157C163.362 138.317 163.233 138.446 163.077 138.446ZM165.014 140.709C164.297 140.709 163.887 140.107 163.887 139.052C163.887 138.005 164.306 137.395 165.014 137.395C165.722 137.395 166.141 138.005 166.141 139.052C166.141 140.107 165.727 140.709 165.014 140.709ZM165.014 140.352C165.477 140.352 165.749 139.885 165.749 139.052C165.749 138.219 165.477 137.743 165.014 137.743C164.551 137.743 164.275 138.219 164.275 139.052C164.275 139.885 164.547 140.352 165.014 140.352ZM167.731 140.709C167.014 140.709 166.604 140.107 166.604 139.052C166.604 138.005 167.023 137.395 167.731 137.395C168.439 137.395 168.858 138.005 168.858 139.052C168.858 140.107 168.443 140.709 167.731 140.709ZM167.731 140.352C168.194 140.352 168.466 139.885 168.466 139.052C168.466 138.219 168.194 137.743 167.731 137.743C167.268 137.743 166.992 138.219 166.992 139.052C166.992 139.885 167.263 140.352 167.731 140.352Z" fill="var(--sol-element-quaternary)"/>
<path d="M182.144 137.44V140.664H181.738V137.858H181.721L180.937 138.379V137.974L181.738 137.44H182.144ZM182.923 140.005V139.675L184.375 137.44H184.869V139.653H185.319V140.005H184.869V140.664H184.486V140.005H182.923ZM183.355 139.653H184.486V137.947H184.446L183.355 139.626V139.653ZM186.125 140.237C185.969 140.237 185.836 140.107 185.84 139.947C185.836 139.791 185.969 139.662 186.125 139.662C186.281 139.662 186.41 139.791 186.41 139.947C186.41 140.107 186.281 140.237 186.125 140.237ZM186.125 138.446C185.969 138.446 185.836 138.317 185.84 138.157C185.836 138.001 185.969 137.872 186.125 137.872C186.281 137.872 186.41 138.001 186.41 138.157C186.41 138.317 186.281 138.446 186.125 138.446ZM188.062 140.709C187.345 140.709 186.936 140.107 186.936 139.052C186.936 138.005 187.354 137.395 188.062 137.395C188.771 137.395 189.189 138.005 189.189 139.052C189.189 140.107 188.775 140.709 188.062 140.709ZM188.062 140.352C188.526 140.352 188.797 139.885 188.797 139.052C188.797 138.219 188.526 137.743 188.062 137.743C187.599 137.743 187.323 138.219 187.323 139.052C187.323 139.885 187.595 140.352 188.062 140.352ZM190.779 140.709C190.062 140.709 189.652 140.107 189.652 139.052C189.652 138.005 190.071 137.395 190.779 137.395C191.487 137.395 191.906 138.005 191.906 139.052C191.906 140.107 191.492 140.709 190.779 140.709ZM190.779 140.352C191.242 140.352 191.514 139.885 191.514 139.052C191.514 138.219 191.242 137.743 190.779 137.743C190.316 137.743 190.04 138.219 190.04 139.052C190.04 139.885 190.311 140.352 190.779 140.352Z" fill="var(--sol-element-quaternary)"/>
<path d="M205.238 137.44V140.664H204.833V137.858H204.815L204.031 138.379V137.974L204.833 137.44H205.238ZM207.149 140.709C206.565 140.709 206.124 140.348 206.102 139.854H206.49C206.521 140.143 206.801 140.357 207.149 140.357C207.567 140.357 207.87 140.049 207.87 139.644C207.87 139.226 207.554 138.918 207.122 138.914C206.85 138.909 206.641 138.994 206.521 139.203H206.133L206.36 137.44H208.106V137.796H206.695L206.574 138.74H206.605C206.748 138.629 206.966 138.553 207.193 138.553C207.808 138.553 208.262 139.007 208.262 139.635C208.262 140.259 207.79 140.709 207.149 140.709ZM209.095 140.237C208.939 140.237 208.806 140.107 208.81 139.947C208.806 139.791 208.939 139.662 209.095 139.662C209.251 139.662 209.38 139.791 209.38 139.947C209.38 140.107 209.251 140.237 209.095 140.237ZM209.095 138.446C208.939 138.446 208.806 138.317 208.81 138.157C208.806 138.001 208.939 137.872 209.095 137.872C209.251 137.872 209.38 138.001 209.38 138.157C209.38 138.317 209.251 138.446 209.095 138.446ZM211.032 140.709C210.315 140.709 209.906 140.107 209.906 139.052C209.906 138.005 210.324 137.395 211.032 137.395C211.74 137.395 212.159 138.005 212.159 139.052C212.159 140.107 211.745 140.709 211.032 140.709ZM211.032 140.352C211.495 140.352 211.767 139.885 211.767 139.052C211.767 138.219 211.495 137.743 211.032 137.743C210.569 137.743 210.293 138.219 210.293 139.052C210.293 139.885 210.565 140.352 211.032 140.352ZM213.749 140.709C213.032 140.709 212.622 140.107 212.622 139.052C212.622 138.005 213.041 137.395 213.749 137.395C214.457 137.395 214.876 138.005 214.876 139.052C214.876 140.107 214.462 140.709 213.749 140.709ZM213.749 140.352C214.212 140.352 214.484 139.885 214.484 139.052C214.484 138.219 214.212 137.743 213.749 137.743C213.286 137.743 213.01 138.219 213.01 139.052C213.01 139.885 213.281 140.352 213.749 140.352Z" fill="var(--sol-element-quaternary)"/>
<path d="M228.233 137.44V140.664H227.828V137.858H227.81L227.026 138.379V137.974L227.828 137.44H228.233ZM230.215 140.709C229.654 140.7 229.039 140.37 229.039 139.177C229.039 138.036 229.507 137.395 230.264 137.395C230.829 137.395 231.226 137.743 231.31 138.25H230.914C230.838 137.965 230.625 137.751 230.264 137.751C229.734 137.751 229.418 138.206 229.418 138.981H229.458C229.645 138.713 229.939 138.553 230.286 138.553C230.861 138.553 231.337 138.998 231.337 139.622C231.337 140.228 230.892 140.713 230.215 140.709ZM230.215 140.357C230.634 140.357 230.945 140.027 230.95 139.626C230.945 139.23 230.647 138.905 230.224 138.905C229.801 138.905 229.476 139.248 229.471 139.631C229.471 140.009 229.783 140.357 230.215 140.357ZM232.166 140.237C232.01 140.237 231.876 140.107 231.881 139.947C231.876 139.791 232.01 139.662 232.166 139.662C232.321 139.662 232.451 139.791 232.451 139.947C232.451 140.107 232.321 140.237 232.166 140.237ZM232.166 138.446C232.01 138.446 231.876 138.317 231.881 138.157C231.876 138.001 232.01 137.872 232.166 137.872C232.321 137.872 232.451 138.001 232.451 138.157C232.451 138.317 232.321 138.446 232.166 138.446ZM234.103 140.709C233.386 140.709 232.976 140.107 232.976 139.052C232.976 138.005 233.395 137.395 234.103 137.395C234.811 137.395 235.23 138.005 235.23 139.052C235.23 140.107 234.815 140.709 234.103 140.709ZM234.103 140.352C234.566 140.352 234.838 139.885 234.838 139.052C234.838 138.219 234.566 137.743 234.103 137.743C233.64 137.743 233.364 138.219 233.364 139.052C233.364 139.885 233.635 140.352 234.103 140.352ZM236.82 140.709C236.103 140.709 235.693 140.107 235.693 139.052C235.693 138.005 236.111 137.395 236.82 137.395C237.528 137.395 237.946 138.005 237.946 139.052C237.946 140.107 237.532 140.709 236.82 140.709ZM236.82 140.352C237.283 140.352 237.554 139.885 237.554 139.052C237.554 138.219 237.283 137.743 236.82 137.743C236.356 137.743 236.08 138.219 236.08 139.052C236.08 139.885 236.352 140.352 236.82 140.352Z" fill="var(--sol-element-quaternary)"/>
</g>
<rect width="6.71256" height="24.4529" transform="translate(67 104.547)" fill="var(--sol-element-primary)" fill-opacity="0.04"/>
<rect width="6.71256" height="34.5217" transform="translate(90.1841 94.4785)" fill="var(--sol-element-primary)" fill-opacity="0.04"/>
<rect width="6.71256" height="42.1932" transform="translate(113.368 86.8066)" fill="var(--sol-element-primary)" fill-opacity="0.04"/>
<rect width="6.71256" height="42.1932" transform="translate(136.552 86.8066)" fill="var(--sol-element-primary)" fill-opacity="0.04"/>
<rect width="6.71256" height="34.5217" transform="translate(159.736 94.4785)" fill="var(--sol-element-primary)" fill-opacity="0.04"/>
<rect width="6.71256" height="34.5217" transform="translate(182.919 94.4785)" fill="var(--sol-element-primary)" fill-opacity="0.04"/>
<rect width="6.71256" height="34.5217" transform="translate(206.104 94.4785)" fill="var(--sol-element-primary)" fill-opacity="0.04"/>
<rect width="6.71256" height="34.5217" transform="translate(229.288 94.4785)" fill="var(--sol-element-primary)" fill-opacity="0.04"/>
</g>
<defs>
<filter id="filter0_dd_1344_143220" x="25.5947" y="34.061" width="236.811" height="128.283" filterUnits="userSpaceOnUse" color-interpolation-filters="sRGB">
<feFlood flood-opacity="0" result="BackgroundImageFix"/>
<feColorMatrix in="SourceAlpha" type="matrix" values="0 0 0 0 0 0 0 0 0 0 0 0 0 0 0 0 0 0 127 0" result="hardAlpha"/>
<feOffset dy="2.20264"/>
<feGaussianBlur stdDeviation="2.20264"/>
<feComposite in2="hardAlpha" operator="out"/>
<feColorMatrix type="matrix" values="0 0 0 0 0 0 0 0 0 0 0 0 0 0 0 0 0 0 0.08 0"/>
<feBlend mode="normal" in2="BackgroundImageFix" result="effect1_dropShadow_1344_143220"/>
<feColorMatrix in="SourceAlpha" type="matrix" values="0 0 0 0 0 0 0 0 0 0 0 0 0 0 0 0 0 0 127 0" result="hardAlpha"/>
<feOffset/>
<feGaussianBlur stdDeviation="0.27533"/>
<feComposite in2="hardAlpha" operator="out"/>
<feColorMatrix type="matrix" values="0 0 0 0 0 0 0 0 0 0 0 0 0 0 0 0 0 0 0.08 0"/>
<feBlend mode="normal" in2="effect1_dropShadow_1344_143220" result="effect2_dropShadow_1344_143220"/>
<feBlend mode="normal" in="SourceGraphic" in2="effect2_dropShadow_1344_143220" result="shape"/>
</filter>
</defs>
</svg>
