<svg width="40" height="40" viewBox="0 0 40 40" fill="none" xmlns="http://www.w3.org/2000/svg">
<path d="M34.9998 7.95719V36C34.9998 38.2091 33.209 40 30.9998 40H9C6.79086 40 5 38.2091 5 36V4C5 1.79086 6.79086 0 9 0H26.3367L34.9998 7.95719Z" fill="white"/>
<path d="M5 36V4C5 1.79086 6.79085 1.61787e-07 8.99997 0H26.3368L34.9998 7.95703V36L34.994 36.2061C34.8902 38.2511 33.2509 39.8913 31.2059 39.9951L30.9998 40V38.5C32.3805 38.4999 33.4998 37.3806 33.4998 36V8.61523L25.7528 1.5H8.99997C7.61927 1.5 6.49999 2.61929 6.49999 4V36C6.49999 37.3807 7.61927 38.5 8.99997 38.5V40L8.79392 39.9951C6.74879 39.8913 5.10865 38.2512 5.00488 36.2061L5 36ZM30.9998 38.5V40H8.99997V38.5H30.9998Z" fill="#E0E0E0"/>
<path d="M26 8.5H33.5V9.5H26C25.4477 9.5 25 9.05228 25 8.5V1H26V8.5Z" fill="#E0E0E0"/>
<path d="M1 22C1 20.8954 1.89543 20 3 20H23.2998C24.4044 20 25.2998 20.8954 25.2998 22V31.53C25.2998 32.6346 24.4044 33.53 23.2998 33.53H3C1.89543 33.53 1 32.6346 1 31.53V22Z" fill="#E06418"/>
<path d="M18.3098 25.23C18.3365 24.5166 18.5698 23.9666 19.0098 23.58C19.4498 23.1933 20.0465 23 20.7998 23C21.2998 23 21.7265 23.0866 22.0798 23.26C22.4398 23.4333 22.7098 23.67 22.8898 23.97C23.0765 24.27 23.1698 24.6066 23.1698 24.98C23.1698 25.42 23.0598 25.78 22.8398 26.06C22.6198 26.3333 22.3631 26.52 22.0698 26.62V26.66C22.4498 26.7866 22.7498 26.9966 22.9698 27.29C23.1898 27.5833 23.2998 27.96 23.2998 28.42C23.2998 28.8333 23.2031 29.2 23.0098 29.52C22.8231 29.8333 22.5465 30.08 22.1798 30.26C21.8198 30.44 21.3898 30.53 20.8898 30.53C20.0898 30.53 19.4498 30.3333 18.9698 29.94C18.4965 29.5466 18.2465 28.9533 18.2198 28.16H19.8798C19.8865 28.4533 19.9698 28.6866 20.1298 28.86C20.2898 29.0266 20.5231 29.11 20.8298 29.11C21.0898 29.11 21.2898 29.0366 21.4298 28.89C21.5765 28.7366 21.6498 28.5366 21.6498 28.29C21.6498 27.97 21.5465 27.74 21.3398 27.6C21.1398 27.4533 20.8165 27.38 20.3698 27.38H20.0498V25.99H20.3698C20.7098 25.99 20.9831 25.9333 21.1898 25.82C21.4031 25.7 21.5098 25.49 21.5098 25.19C21.5098 24.95 21.4431 24.7633 21.3098 24.63C21.1765 24.4966 20.9931 24.43 20.7598 24.43C20.5065 24.43 20.3165 24.5066 20.1898 24.66C20.0698 24.8133 19.9998 25.0033 19.9798 25.23H18.3098Z" fill="white"/>
<path d="M17.5296 25.71C17.5296 26.1166 17.4362 26.49 17.2496 26.83C17.0629 27.1633 16.7762 27.4333 16.3896 27.64C16.0029 27.8466 15.5229 27.95 14.9496 27.95H13.8896V30.47H12.1796V23.45H14.9496C15.5096 23.45 15.9829 23.5466 16.3696 23.74C16.7562 23.9333 17.0462 24.2 17.2396 24.54C17.4329 24.88 17.5296 25.27 17.5296 25.71ZM14.8196 26.59C15.1462 26.59 15.3896 26.5133 15.5496 26.36C15.7096 26.2066 15.7896 25.99 15.7896 25.71C15.7896 25.43 15.7096 25.2133 15.5496 25.06C15.3896 24.9066 15.1462 24.83 14.8196 24.83H13.8896V26.59H14.8196Z" fill="white"/>
<path d="M10.9499 23.45V30.47H9.23988V26.26L7.66988 30.47H6.28988L4.70988 26.25V30.47H2.99988V23.45H5.01988L6.98988 28.31L8.93988 23.45H10.9499Z" fill="white"/>
</svg>
