<svg width="40" height="40" viewBox="0 0 40 40" fill="none" xmlns="http://www.w3.org/2000/svg">
<path d="M34.9998 7.95719V36C34.9998 38.2091 33.209 40 30.9998 40H9C6.79086 40 5 38.2091 5 36V4C5 1.79086 6.79086 0 9 0H26.3367L34.9998 7.95719Z" fill="white"/>
<path d="M5 36V4C5 1.79086 6.79085 1.61787e-07 8.99997 0H26.3368L34.9998 7.95703V36L34.994 36.2061C34.8902 38.2511 33.2509 39.8913 31.2059 39.9951L30.9998 40V38.5C32.3805 38.4999 33.4998 37.3806 33.4998 36V8.61523L25.7528 1.5H8.99997C7.61927 1.5 6.49999 2.61929 6.49999 4V36C6.49999 37.3807 7.61927 38.5 8.99997 38.5V40L8.79392 39.9951C6.74879 39.8913 5.10865 38.2512 5.00488 36.2061L5 36ZM30.9998 38.5V40H8.99997V38.5H30.9998Z" fill="#E0E0E0"/>
<path d="M26 8.5H33.5V9.5H26C25.4477 9.5 25 9.05228 25 8.5V1H26V8.5Z" fill="#E0E0E0"/>
<path d="M21.3379 19.9584C22.7106 19.9584 23.8368 21.0589 23.8379 22.4331L23.8395 23.0647L26.7887 21.7243C27.0921 21.5704 27.5172 21.4509 27.9215 21.6584C28.3038 21.8546 28.4529 22.2288 28.4993 22.5634L28.5132 22.7041L28.5148 22.7399L28.5417 29.475L28.536 29.6385C28.4998 30.0175 28.3058 30.3731 27.9207 30.5459C27.5415 30.716 27.1377 30.6315 26.8278 30.458L23.8411 28.9867L23.8379 29.5694C23.8354 30.9425 22.7098 32.0417 21.3379 32.0417H14.375C13.0016 32.0417 11.875 30.9397 11.875 29.5645V22.4356C11.875 21.0604 13.0016 19.9584 14.375 19.9584H21.3379ZM23.8444 24.4351L23.8542 27.1874V27.1939L23.8509 27.5983L27.2909 29.2919L27.2648 22.8807L23.8444 24.4351ZM20.7129 22.7359V23.9859H17.1712V22.7359H20.7129ZM13.125 29.5645C13.125 30.2348 13.6773 30.7917 14.375 30.7917H21.3379C22.0356 30.7917 22.5879 30.2348 22.5879 29.5645V29.5604L22.6042 27.1914L22.5879 22.4372V22.4356L22.5814 22.3111C22.5182 21.6976 21.992 21.2084 21.3379 21.2084H14.375C13.6773 21.2084 13.125 21.7653 13.125 22.4356V29.5645Z" fill="#3D5ED6"/>
</svg>
