<svg width="40" height="40" viewBox="0 0 40 40" fill="none" xmlns="http://www.w3.org/2000/svg">
<path d="M34.9998 7.95719V36C34.9998 38.2091 33.209 40 30.9998 40H9C6.79086 40 5 38.2091 5 36V4C5 1.79086 6.79086 0 9 0H26.3367L34.9998 7.95719Z" fill="white"/>
<path d="M5 36V4C5 1.79086 6.79085 1.61787e-07 8.99997 0H26.3368L34.9998 7.95703V36L34.994 36.2061C34.8902 38.2511 33.2509 39.8913 31.2059 39.9951L30.9998 40V38.5C32.3805 38.4999 33.4998 37.3806 33.4998 36V8.61523L25.7528 1.5H8.99997C7.61927 1.5 6.49999 2.61929 6.49999 4V36C6.49999 37.3807 7.61927 38.5 8.99997 38.5V40L8.79392 39.9951C6.74879 39.8913 5.10865 38.2512 5.00488 36.2061L5 36ZM30.9998 38.5V40H8.99997V38.5H30.9998Z" fill="#E0E0E0"/>
<path d="M26 8.5H33.5V9.5H26C25.4477 9.5 25 9.05228 25 8.5V1H26V8.5Z" fill="#E0E0E0"/>
<path d="M17.4896 21.284C17.4896 20.6023 17.9615 20.0116 18.6265 19.8615L27.3626 17.8905C27.5479 17.8487 27.7425 17.8931 27.8908 18.0117C28.0391 18.1304 28.1252 18.3102 28.1252 18.5V29.8631L28.113 30.1398C28.0581 30.7816 27.8146 31.3953 27.4098 31.9058C26.9476 32.4888 26.3021 32.9041 25.5764 33.0923C24.8507 33.2804 24.0806 33.232 23.3856 32.9532C22.6905 32.6743 22.1059 32.1792 21.7254 31.5412C21.3447 30.9026 21.1909 30.1573 21.2909 29.4229C21.3909 28.6887 21.7381 28.0104 22.2739 27.4917C22.8095 26.9734 23.504 26.6434 24.2482 26.5485C24.9744 26.4561 25.7117 26.5934 26.3535 26.9392L26.4496 26.988C26.5493 27.044 26.6561 27.1183 26.7507 27.1874C26.7907 27.2166 26.8322 27.2485 26.8752 27.2818V19.2813L18.9015 21.0806C18.8066 21.1021 18.7396 21.1867 18.7396 21.284V30.7836C18.7394 31.5244 18.486 32.242 18.0235 32.8254C17.5611 33.4085 16.9158 33.8246 16.19 34.0127C15.4643 34.2008 14.695 34.1515 14 33.8728C13.3048 33.5938 12.7195 33.099 12.339 32.4608C11.9584 31.8223 11.8054 31.0776 11.9053 30.3433C12.0052 29.6091 12.3518 28.9308 12.8875 28.4121C13.4231 27.8937 14.1176 27.563 14.8618 27.4681C15.606 27.3733 16.3632 27.5191 17.016 27.884H17.0152C17.1276 27.9417 17.2553 28.0268 17.3651 28.107C17.4052 28.1363 17.4465 28.1689 17.4896 28.2022V21.284ZM26.8752 29.0119C26.7851 28.884 26.6146 28.6982 26.3869 28.4976C26.2545 28.3809 26.1223 28.2761 26.0134 28.1965C25.903 28.1158 25.846 28.0831 25.84 28.0793C25.8237 28.0719 25.8077 28.0636 25.792 28.0549C25.3746 27.8216 24.887 27.7267 24.4061 27.788C23.9252 27.8492 23.4814 28.0627 23.1431 28.3902C22.8052 28.7173 22.5909 29.1404 22.5295 29.5922C22.4681 30.0436 22.5619 30.5033 22.7988 30.9007C23.0361 31.2986 23.4048 31.6136 23.8511 31.7927C24.2977 31.9718 24.7942 32.0035 25.2622 31.8822C25.7301 31.7609 26.1399 31.4945 26.43 31.1286C26.7198 30.7632 26.875 30.3184 26.8752 29.8631V29.0119ZM16.4056 28.9745C15.9882 28.7412 15.5006 28.6471 15.0197 28.7084C14.539 28.7697 14.0958 28.9825 13.7575 29.3098C13.4196 29.6369 13.2054 30.06 13.1439 30.5117C13.0824 30.9634 13.1762 31.4236 13.4133 31.8212C13.6505 32.219 14.0192 32.534 14.4655 32.7131C14.9121 32.8922 15.4087 32.9239 15.8766 32.8026C16.3444 32.6813 16.7543 32.4149 17.0444 32.049C17.3341 31.6836 17.4894 31.2387 17.4896 30.7836V29.9323C17.3997 29.8045 17.2291 29.6187 17.0013 29.418C16.869 29.3014 16.7367 29.1965 16.6278 29.1169C16.5045 29.0268 16.448 28.996 16.4544 28.9989C16.438 28.9915 16.4214 28.9833 16.4056 28.9745Z" fill="#3D5ED6"/>
</svg>
