<svg width="40" height="40" viewBox="0 0 40 40" fill="none" xmlns="http://www.w3.org/2000/svg">
<path d="M34.9998 7.95719V36C34.9998 38.2091 33.209 40 30.9998 40H9C6.79086 40 5 38.2091 5 36V4C5 1.79086 6.79086 0 9 0H26.3367L34.9998 7.95719Z" fill="white"/>
<path d="M5 36V4C5 1.79086 6.79085 1.61787e-07 8.99997 0H26.3368L34.9998 7.95703V36L34.994 36.2061C34.8902 38.2511 33.2509 39.8913 31.2059 39.9951L30.9998 40V38.5C32.3805 38.4999 33.4998 37.3806 33.4998 36V8.61523L25.7528 1.5H8.99997C7.61927 1.5 6.49999 2.61929 6.49999 4V36C6.49999 37.3807 7.61927 38.5 8.99997 38.5V40L8.79392 39.9951C6.74879 39.8913 5.10865 38.2512 5.00488 36.2061L5 36ZM30.9998 38.5V40H8.99997V38.5H30.9998Z" fill="#E0E0E0"/>
<path d="M26 8.5H33.5V9.5H26C25.4477 9.5 25 9.05228 25 8.5V1H26V8.5Z" fill="#E0E0E0"/>
<path d="M1 22C1 20.8954 1.89543 20 3 20H26C27.1046 20 28 20.8954 28 22V31C28 32.1046 27.1046 33 26 33H3C1.89543 33 1 32.1046 1 31V22Z" fill="#3D5ED6"/>
<path d="M11.9763 22.98V30H10.2663V25.79L8.69625 30H7.31625L5.73625 25.78V30H4.02625V22.98H6.04625L8.01625 27.84L9.96625 22.98H11.9763Z" fill="white"/>
<path d="M18.5559 25.24C18.5559 25.6467 18.4626 26.02 18.2759 26.36C18.0893 26.6933 17.8026 26.9633 17.4159 27.17C17.0293 27.3767 16.5493 27.48 15.9759 27.48H14.9159V30H13.2059V22.98H15.9759C16.5359 22.98 17.0093 23.0767 17.3959 23.27C17.7826 23.4633 18.0726 23.73 18.2659 24.07C18.4593 24.41 18.5559 24.8 18.5559 25.24ZM15.8459 26.12C16.1726 26.12 16.4159 26.0433 16.5759 25.89C16.7359 25.7367 16.8159 25.52 16.8159 25.24C16.8159 24.96 16.7359 24.7433 16.5759 24.59C16.4159 24.4367 16.1726 24.36 15.8459 24.36H14.9159V26.12H15.8459Z" fill="white"/>
<path d="M19.3162 28.7V27.32L22.4762 22.8H24.3862V27.22H25.2062V28.7H24.3862V30H22.6762V28.7H19.3162ZM22.7962 24.68L21.1162 27.22H22.7962V24.68Z" fill="white"/>
</svg>
