<svg width="40" height="40" viewBox="0 0 40 40" fill="none" xmlns="http://www.w3.org/2000/svg">
<path d="M34.9998 7.95719V36C34.9998 38.2091 33.209 40 30.9998 40H9C6.79086 40 5 38.2091 5 36V4C5 1.79086 6.79086 0 9 0H26.3367L34.9998 7.95719Z" fill="white"/>
<path d="M5 36V4C5 1.79086 6.79085 1.61787e-07 8.99997 0H26.3368L34.9998 7.95703V36L34.994 36.2061C34.8902 38.2511 33.2509 39.8913 31.2059 39.9951L30.9998 40V38.5C32.3805 38.4999 33.4998 37.3806 33.4998 36V8.61523L25.7528 1.5H8.99997C7.61927 1.5 6.49999 2.61929 6.49999 4V36C6.49999 37.3807 7.61927 38.5 8.99997 38.5V40L8.79392 39.9951C6.74879 39.8913 5.10865 38.2512 5.00488 36.2061L5 36ZM30.9998 38.5V40H8.99997V38.5H30.9998Z" fill="#E0E0E0"/>
<path d="M26 8.5H33.5V9.5H26C25.4477 9.5 25 9.05228 25 8.5V1H26V8.5Z" fill="#E0E0E0"/>
<path d="M1 22C1 20.8954 1.89543 20 3 20H29C30.1046 20 31 20.8954 31 22V31C31 32.1046 30.1046 33 29 33H3C1.89543 33 1 32.1046 1 31V22Z" fill="#E76067"/>
<path d="M9.20145 25.24C9.20145 25.6467 9.10811 26.02 8.92145 26.36C8.73478 26.6933 8.44811 26.9633 8.06145 27.17C7.67478 27.3767 7.19478 27.48 6.62145 27.48H5.56145V30H3.85145V22.98H6.62145C7.18145 22.98 7.65478 23.0767 8.04145 23.27C8.42811 23.4633 8.71811 23.73 8.91145 24.07C9.10478 24.41 9.20145 24.8 9.20145 25.24ZM6.49145 26.12C6.81811 26.12 7.06145 26.0433 7.22145 25.89C7.38145 25.7367 7.46145 25.52 7.46145 25.24C7.46145 24.96 7.38145 24.7433 7.22145 24.59C7.06145 24.4367 6.81811 24.36 6.49145 24.36H5.56145V26.12H6.49145Z" fill="white"/>
<path d="M15.4417 25.24C15.4417 25.6467 15.3483 26.02 15.1617 26.36C14.975 26.6933 14.6883 26.9633 14.3017 27.17C13.915 27.3767 13.435 27.48 12.8617 27.48H11.8017V30H10.0917V22.98H12.8617C13.4217 22.98 13.895 23.0767 14.2817 23.27C14.6683 23.4633 14.9583 23.73 15.1517 24.07C15.345 24.41 15.4417 24.8 15.4417 25.24ZM12.7317 26.12C13.0583 26.12 13.3017 26.0433 13.4617 25.89C13.6217 25.7367 13.7017 25.52 13.7017 25.24C13.7017 24.96 13.6217 24.7433 13.4617 24.59C13.3017 24.4367 13.0583 24.36 12.7317 24.36H11.8017V26.12H12.7317Z" fill="white"/>
<path d="M21.3819 22.98V24.35H19.5219V30H17.8119V24.35H15.9519V22.98H21.3819Z" fill="white"/>
<path d="M26.5401 30L25.1101 27.85L23.8501 30H21.9101L24.1601 26.43L21.8601 22.98H23.8501L25.2601 25.1L26.5001 22.98H28.4401L26.2101 26.52L28.5301 30H26.5401Z" fill="white"/>
</svg>
