<svg width="40" height="40" viewBox="0 0 40 40" fill="none" xmlns="http://www.w3.org/2000/svg">
<path d="M34.9998 7.95719V36C34.9998 38.2091 33.209 40 30.9998 40H9C6.79086 40 5 38.2091 5 36V4C5 1.79086 6.79086 0 9 0H26.3367L34.9998 7.95719Z" fill="white"/>
<path d="M5 36V4C5 1.79086 6.79085 1.61787e-07 8.99997 0H26.3368L34.9998 7.95703V36L34.994 36.2061C34.8902 38.2511 33.2509 39.8913 31.2059 39.9951L30.9998 40V38.5C32.3805 38.4999 33.4998 37.3806 33.4998 36V8.61523L25.7528 1.5H8.99997C7.61927 1.5 6.49999 2.61929 6.49999 4V36C6.49999 37.3807 7.61927 38.5 8.99997 38.5V40L8.79392 39.9951C6.74879 39.8913 5.10865 38.2512 5.00488 36.2061L5 36ZM30.9998 38.5V40H8.99997V38.5H30.9998Z" fill="#E0E0E0"/>
<path d="M26 8.5H33.5V9.5H26C25.4477 9.5 25 9.05228 25 8.5V1H26V8.5Z" fill="#E0E0E0"/>
<path d="M1 22C1 20.8954 1.89543 20 3 20H15C16.1046 20 17 20.8954 17 22V31C17 32.1046 16.1046 33 15 33H3C1.89543 33 1 32.1046 1 31V22Z" fill="#3E9BCA"/>
<path d="M11.9745 30.07C11.4611 30.07 11.0011 29.9867 10.5945 29.82C10.1878 29.6533 9.86112 29.4067 9.61445 29.08C9.37445 28.7533 9.24779 28.36 9.23445 27.9H11.0545C11.0811 28.16 11.1711 28.36 11.3245 28.5C11.4778 28.6333 11.6778 28.7 11.9245 28.7C12.1778 28.7 12.3778 28.6433 12.5245 28.53C12.6711 28.41 12.7445 28.2467 12.7445 28.04C12.7445 27.8667 12.6845 27.7233 12.5645 27.61C12.4511 27.4967 12.3078 27.4033 12.1345 27.33C11.9678 27.2567 11.7278 27.1733 11.4145 27.08C10.9611 26.94 10.5911 26.8 10.3045 26.66C10.0178 26.52 9.77112 26.3133 9.56445 26.04C9.35779 25.7667 9.25445 25.41 9.25445 24.97C9.25445 24.3167 9.49112 23.8067 9.96445 23.44C10.4378 23.0667 11.0545 22.88 11.8145 22.88C12.5878 22.88 13.2111 23.0667 13.6845 23.44C14.1578 23.8067 14.4111 24.32 14.4445 24.98H12.5945C12.5811 24.7533 12.4978 24.5767 12.3445 24.45C12.1911 24.3167 11.9945 24.25 11.7545 24.25C11.5478 24.25 11.3811 24.3067 11.2545 24.42C11.1278 24.5267 11.0645 24.6833 11.0645 24.89C11.0645 25.1167 11.1711 25.2933 11.3845 25.42C11.5978 25.5467 11.9311 25.6833 12.3845 25.83C12.8378 25.9833 13.2045 26.13 13.4845 26.27C13.7711 26.41 14.0178 26.6133 14.2245 26.88C14.4311 27.1467 14.5345 27.49 14.5345 27.91C14.5345 28.31 14.4311 28.6733 14.2245 29C14.0245 29.3267 13.7311 29.5867 13.3445 29.78C12.9578 29.9733 12.5011 30.07 11.9745 30.07Z" fill="white"/>
<path d="M8.0532 22.98V27.76C8.0532 28.5 7.8432 29.07 7.4232 29.47C7.00987 29.87 6.44987 30.07 5.7432 30.07C5.0032 30.07 4.40987 29.86 3.9632 29.44C3.51654 29.02 3.2932 28.4233 3.2932 27.65H4.9932C4.9932 27.9433 5.0532 28.1667 5.1732 28.32C5.2932 28.4667 5.46654 28.54 5.6932 28.54C5.89987 28.54 6.05987 28.4733 6.1732 28.34C6.28654 28.2067 6.3432 28.0133 6.3432 27.76V22.98H8.0532Z" fill="white"/>
</svg>
