<svg width="40" height="40" viewBox="0 0 40 40" fill="none" xmlns="http://www.w3.org/2000/svg">
<path d="M34.9998 7.95719V36C34.9998 38.2091 33.209 40 30.9998 40H9C6.79086 40 5 38.2091 5 36V4C5 1.79086 6.79086 0 9 0H26.3367L34.9998 7.95719Z" fill="white"/>
<path d="M5 36V4C5 1.79086 6.79085 1.61787e-07 8.99997 0H26.3368L34.9998 7.95703V36L34.994 36.2061C34.8902 38.2511 33.2509 39.8913 31.2059 39.9951L30.9998 40V38.5C32.3805 38.4999 33.4998 37.3806 33.4998 36V8.61523L25.7528 1.5H8.99997C7.61927 1.5 6.49999 2.61929 6.49999 4V36C6.49999 37.3807 7.61927 38.5 8.99997 38.5V40L8.79392 39.9951C6.74879 39.8913 5.10865 38.2512 5.00488 36.2061L5 36ZM30.9998 38.5V40H8.99997V38.5H30.9998Z" fill="#E0E0E0"/>
<path d="M26 8.5H33.5V9.5H26C25.4477 9.5 25 9.05228 25 8.5V1H26V8.5Z" fill="#E0E0E0"/>
<path d="M1 22C1 20.8954 1.89543 20 3 20H25C26.1046 20 27 20.8954 27 22V31C27 32.1046 26.1046 33 25 33H3C1.89543 33 1 32.1046 1 31V22Z" fill="#3E9BCA"/>
<path d="M22.1112 28.68H24.3512V30H20.4013V22.98H22.1112V28.68Z" fill="white"/>
<path d="M19.1716 22.98V30H17.4616V25.79L15.8916 30H14.5116L12.9316 25.78V30H11.2216V22.98H13.2416L15.2116 27.84L17.1616 22.98H19.1716Z" fill="white"/>
<path d="M8.37313 30L6.94312 27.85L5.68313 30H3.74312L5.99312 26.43L3.69313 22.98H5.68313L7.09313 25.1L8.33313 22.98H10.2731L8.04313 26.52L10.3631 30H8.37313Z" fill="white"/>
</svg>
