<svg width="40" height="40" viewBox="0 0 40 40" fill="none" xmlns="http://www.w3.org/2000/svg">
<path d="M34.9998 7.95719V36C34.9998 38.2091 33.209 40 30.9998 40H9C6.79086 40 5 38.2091 5 36V4C5 1.79086 6.79086 0 9 0H26.3367L34.9998 7.95719Z" fill="white"/>
<path d="M5 36V4C5 1.79086 6.79085 1.61787e-07 8.99997 0H26.3368L34.9998 7.95703V36L34.994 36.2061C34.8902 38.2511 33.2509 39.8913 31.2059 39.9951L30.9998 40V38.5C32.3805 38.4999 33.4998 37.3806 33.4998 36V8.61523L25.7528 1.5H8.99997C7.61927 1.5 6.49999 2.61929 6.49999 4V36C6.49999 37.3807 7.61927 38.5 8.99997 38.5V40L8.79392 39.9951C6.74879 39.8913 5.10865 38.2512 5.00488 36.2061L5 36ZM30.9998 38.5V40H8.99997V38.5H30.9998Z" fill="#E0E0E0"/>
<path d="M26 8.5H33.5V9.5H26C25.4477 9.5 25 9.05228 25 8.5V1H26V8.5Z" fill="#E0E0E0"/>
<path d="M23.5362 30.7892H20.8236V29.5392H23.5362V26.8293H24.7874V29.5392H27.5V30.7892H24.7874V33.5H23.5362V30.7892ZM18.4547 26.8765C18.8002 26.8765 19.0802 27.1563 19.0803 27.5015V32.8254C19.0803 33.1705 18.8002 33.4504 18.4547 33.4504H13.1256C12.7801 33.4504 12.5 33.1705 12.5 32.8254V27.5015L12.5033 27.438C12.5352 27.1227 12.8016 26.8765 13.1256 26.8765H18.4547ZM13.7512 32.2004H17.8291V28.1265H13.7512V32.2004ZM18.4547 18.5L18.5191 18.5033C18.8344 18.5354 19.0803 18.8015 19.0803 19.125V24.4489C19.0803 24.7941 18.8002 25.0739 18.4547 25.0739H13.1256C12.7801 25.0739 12.5 24.7941 12.5 24.4489V19.125L12.5033 19.0607C12.5355 18.7457 12.8018 18.5 13.1256 18.5H18.4547ZM26.8361 18.5L26.9005 18.5033C27.2158 18.5354 27.4617 18.8015 27.4617 19.125V24.4489C27.4617 24.7941 27.1816 25.0739 26.8361 25.0739H21.507C21.1615 25.0738 20.8814 24.794 20.8814 24.4489V19.125L20.8847 19.0607C20.9169 18.7458 21.1833 18.5001 21.507 18.5H26.8361ZM22.1326 23.8239H26.2105V19.75H22.1326V23.8239ZM13.7512 23.8239H17.8291V19.75H13.7512V23.8239Z" fill="#35A142"/>
</svg>
