<svg width="40" height="40" viewBox="0 0 40 40" fill="none" xmlns="http://www.w3.org/2000/svg">
<path d="M34.9998 7.95719V36C34.9998 38.2091 33.209 40 30.9998 40H9C6.79086 40 5 38.2091 5 36V4C5 1.79086 6.79086 0 9 0H26.3367L34.9998 7.95719Z" fill="white"/>
<path d="M5 36V4C5 1.79086 6.79085 1.61787e-07 8.99997 0H26.3368L34.9998 7.95703V36L34.994 36.2061C34.8902 38.2511 33.2509 39.8913 31.2059 39.9951L30.9998 40V38.5C32.3805 38.4999 33.4998 37.3806 33.4998 36V8.61523L25.7528 1.5H8.99997C7.61927 1.5 6.49999 2.61929 6.49999 4V36C6.49999 37.3807 7.61927 38.5 8.99997 38.5V40L8.79392 39.9951C6.74879 39.8913 5.10865 38.2512 5.00488 36.2061L5 36ZM30.9998 38.5V40H8.99997V38.5H30.9998Z" fill="#E0E0E0"/>
<path d="M26 8.5H33.5V9.5H26C25.4477 9.5 25 9.05228 25 8.5V1H26V8.5Z" fill="#E0E0E0"/>
<path d="M1 22C1 20.8954 1.89543 20 3 20H21C22.1046 20 23 20.8954 23 22V31C23 32.1046 22.1046 33 21 33H3C1.89543 33 1 32.1046 1 31V22Z" fill="#D4AE00"/>
<path d="M8.17652 28.76H5.55652L5.13652 30H3.34652L5.88652 22.98H7.86652L10.4065 30H8.59652L8.17652 28.76ZM7.73652 27.44L6.86652 24.87L6.00652 27.44H7.73652Z" fill="white"/>
<path d="M17.7696 22.98L15.2796 30H13.1396L10.6496 22.98H12.4696L14.2096 28.28L15.9596 22.98H17.7696Z" fill="white"/>
<path d="M20.1943 22.98V30H18.4843V22.98H20.1943Z" fill="white"/>
</svg>
