<svg width="40" height="40" viewBox="0 0 40 40" fill="none" xmlns="http://www.w3.org/2000/svg">
<path d="M34.9998 7.95719V36C34.9998 38.2091 33.209 40 30.9998 40H9C6.79086 40 5 38.2091 5 36V4C5 1.79086 6.79086 0 9 0H26.3367L34.9998 7.95719Z" fill="white"/>
<path d="M5 36V4C5 1.79086 6.79085 1.61787e-07 8.99997 0H26.3368L34.9998 7.95703V36L34.994 36.2061C34.8902 38.2511 33.2509 39.8913 31.2059 39.9951L30.9998 40V38.5C32.3805 38.4999 33.4998 37.3806 33.4998 36V8.61523L25.7528 1.5H8.99997C7.61927 1.5 6.49999 2.61929 6.49999 4V36C6.49999 37.3807 7.61927 38.5 8.99997 38.5V40L8.79392 39.9951C6.74879 39.8913 5.10865 38.2512 5.00488 36.2061L5 36ZM30.9998 38.5V40H8.99997V38.5H30.9998Z" fill="#E0E0E0"/>
<path d="M26 8.5H33.5V9.5H26C25.4477 9.5 25 9.05228 25 8.5V1H26V8.5Z" fill="#E0E0E0"/>
<path d="M1 22C1 20.8954 1.89543 20 3 20H21C22.1046 20 23 20.8954 23 22V31C23 32.1046 22.1046 33 21 33H3C1.89543 33 1 32.1046 1 31V22Z" fill="#3E9BCA"/>
<path d="M17.9042 24.35V25.77H20.1942V27.09H17.9042V28.63H20.4942V30H16.1942V22.98H20.4942V24.35H17.9042Z" fill="white"/>
<path d="M13.3458 30L11.9158 27.85L10.6558 30H8.71578L10.9658 26.43L8.66578 22.98H10.6558L12.0658 25.1L13.3058 22.98H15.2458L13.0158 26.52L15.3358 30H13.3458Z" fill="white"/>
<path d="M5.34562 24.35V25.77H7.63562V27.09H5.34562V28.63H7.93563V30H3.63562V22.98H7.93563V24.35H5.34562Z" fill="white"/>
</svg>
