<svg width="40" height="40" viewBox="0 0 40 40" fill="none" xmlns="http://www.w3.org/2000/svg">
<path d="M34.9998 7.95719V36C34.9998 38.2091 33.209 40 30.9998 40H9C6.79086 40 5 38.2091 5 36V4C5 1.79086 6.79086 0 9 0H26.3367L34.9998 7.95719Z" fill="white"/>
<path d="M5 36V4C5 1.79086 6.79085 1.61787e-07 8.99997 0H26.3368L34.9998 7.95703V36L34.994 36.2061C34.8902 38.2511 33.2509 39.8913 31.2059 39.9951L30.9998 40V38.5C32.3805 38.4999 33.4998 37.3806 33.4998 36V8.61523L25.7528 1.5H8.99997C7.61927 1.5 6.49999 2.61929 6.49999 4V36C6.49999 37.3807 7.61927 38.5 8.99997 38.5V40L8.79392 39.9951C6.74879 39.8913 5.10865 38.2512 5.00488 36.2061L5 36ZM30.9998 38.5V40H8.99997V38.5H30.9998Z" fill="#E0E0E0"/>
<path d="M26 8.5H33.5V9.5H26C25.4477 9.5 25 9.05228 25 8.5V1H26V8.5Z" fill="#E0E0E0"/>
<path d="M24.4403 27.0441C23.5669 27.0441 22.474 27.1964 22.1164 27.25C20.6365 25.7046 20.2155 24.8261 20.1208 24.5919C20.2491 24.2622 20.6957 23.0094 20.7591 21.4005C20.7904 20.595 20.6203 19.9931 20.2532 19.6115C19.8868 19.2306 19.4434 19.2009 19.3162 19.2009C18.8703 19.2009 18.1222 19.4264 18.1222 20.9364C18.1222 22.2466 18.7331 23.6369 18.9019 23.9961C18.0123 26.5864 17.0572 28.3597 16.8543 28.7244C13.2795 30.0703 13 31.3717 13 31.7405C13 32.4033 13.472 32.799 14.2627 32.799C16.1836 32.799 17.9366 29.574 18.2264 29.014C19.5908 28.4704 21.4168 28.1336 21.881 28.0533C23.2126 29.3217 24.7525 29.6601 25.392 29.6601C25.8732 29.6601 27 29.6601 27 28.5016C27 27.4258 25.6211 27.0441 24.4403 27.0441ZM24.3477 27.8046C25.3853 27.8046 25.6595 28.1478 25.6595 28.3292C25.6595 28.443 25.6163 28.8145 25.0601 28.8145C24.5614 28.8145 23.7003 28.5263 22.8531 27.9009C23.2064 27.8544 23.7292 27.8046 24.3477 27.8046ZM19.2617 19.9381C19.3563 19.9381 19.4186 19.9685 19.47 20.0398C19.7684 20.4538 19.5278 21.8069 19.2349 22.8657C18.9522 21.9578 18.74 20.5648 19.0385 20.0747C19.0969 19.979 19.1636 19.9381 19.2617 19.9381ZM18.7578 28.0425C19.1335 27.2836 19.5545 26.1776 19.7838 25.5521C20.2428 26.3202 20.86 27.0334 21.217 27.4201C20.1055 27.6544 19.2645 27.8885 18.7578 28.0425ZM13.7462 31.8418C13.7215 31.8124 13.7178 31.7506 13.7364 31.6763C13.7756 31.5206 14.0744 30.7489 16.2362 29.7819C15.9266 30.2695 15.4427 30.9662 14.9111 31.4866C14.5369 31.8369 14.2456 32.0145 14.0451 32.0145C13.9734 32.0145 13.8746 31.9949 13.7462 31.8418Z" fill="#E76067"/>
</svg>
