<svg width="40" height="40" viewBox="0 0 40 40" fill="none" xmlns="http://www.w3.org/2000/svg">
<path d="M34.9998 7.95719V36C34.9998 38.2091 33.209 40 30.9998 40H9C6.79086 40 5 38.2091 5 36V4C5 1.79086 6.79086 0 9 0H26.3367L34.9998 7.95719Z" fill="white"/>
<path d="M5 36V4C5 1.79086 6.79085 1.61787e-07 8.99997 0H26.3368L34.9998 7.95703V36L34.994 36.2061C34.8902 38.2511 33.2509 39.8913 31.2059 39.9951L30.9998 40V38.5C32.3805 38.4999 33.4998 37.3806 33.4998 36V8.61523L25.7528 1.5H8.99997C7.61927 1.5 6.49999 2.61929 6.49999 4V36C6.49999 37.3807 7.61927 38.5 8.99997 38.5V40L8.79392 39.9951C6.74879 39.8913 5.10865 38.2512 5.00488 36.2061L5 36ZM30.9998 38.5V40H8.99997V38.5H30.9998Z" fill="#E0E0E0"/>
<path d="M26 8.5H33.5V9.5H26C25.4477 9.5 25 9.05228 25 8.5V1H26V8.5Z" fill="#E0E0E0"/>
<path d="M1 22C1 20.8954 1.89543 20 3 20H28C29.1046 20 30 20.8954 30 22V31C30 32.1046 29.1046 33 28 33H3C1.89543 33 1 32.1046 1 31V22Z" fill="#3D5ED6"/>
<path d="M5.33 22.98V30H3.62V22.98H5.33Z" fill="white"/>
<path d="M12.8492 30H11.1392L8.27922 25.67V30H6.56922V22.98H8.27922L11.1392 27.33V22.98H12.8492V30Z" fill="white"/>
<path d="M16.7188 22.98C17.4587 22.98 18.1054 23.1267 18.6588 23.42C19.2121 23.7133 19.6388 24.1267 19.9387 24.66C20.2454 25.1867 20.3988 25.7967 20.3988 26.49C20.3988 27.1767 20.2454 27.7867 19.9387 28.32C19.6388 28.8533 19.2087 29.2667 18.6488 29.56C18.0954 29.8533 17.4521 30 16.7188 30H14.0887V22.98H16.7188ZM16.6088 28.52C17.2554 28.52 17.7587 28.3433 18.1187 27.99C18.4788 27.6367 18.6588 27.1367 18.6588 26.49C18.6588 25.8433 18.4788 25.34 18.1187 24.98C17.7587 24.62 17.2554 24.44 16.6088 24.44H15.7987V28.52H16.6088Z" fill="white"/>
<path d="M23.9844 22.98C24.7244 22.98 25.371 23.1267 25.9244 23.42C26.4777 23.7133 26.9044 24.1267 27.2044 24.66C27.511 25.1867 27.6644 25.7967 27.6644 26.49C27.6644 27.1767 27.511 27.7867 27.2044 28.32C26.9044 28.8533 26.4744 29.2667 25.9144 29.56C25.361 29.8533 24.7177 30 23.9844 30H21.3544V22.98H23.9844ZM23.8744 28.52C24.521 28.52 25.0244 28.3433 25.3844 27.99C25.7444 27.6367 25.9244 27.1367 25.9244 26.49C25.9244 25.8433 25.7444 25.34 25.3844 24.98C25.0244 24.62 24.521 24.44 23.8744 24.44H23.0644V28.52H23.8744Z" fill="white"/>
</svg>
