<svg width="40" height="40" viewBox="0 0 40 40" fill="none" xmlns="http://www.w3.org/2000/svg">
<path d="M34.9998 7.95719V36C34.9998 38.2091 33.209 40 30.9998 40H9C6.79086 40 5 38.2091 5 36V4C5 1.79086 6.79086 0 9 0H26.3367L34.9998 7.95719Z" fill="white"/>
<path d="M5 36V4C5 1.79086 6.79085 1.61787e-07 8.99997 0H26.3368L34.9998 7.95703V36L34.994 36.2061C34.8902 38.2511 33.2509 39.8913 31.2059 39.9951L30.9998 40V38.5C32.3805 38.4999 33.4998 37.3806 33.4998 36V8.61523L25.7528 1.5H8.99997C7.61927 1.5 6.49999 2.61929 6.49999 4V36C6.49999 37.3807 7.61927 38.5 8.99997 38.5V40L8.79392 39.9951C6.74879 39.8913 5.10865 38.2512 5.00488 36.2061L5 36ZM30.9998 38.5V40H8.99997V38.5H30.9998Z" fill="#E0E0E0"/>
<path d="M26 8.5H33.5V9.5H26C25.4477 9.5 25 9.05228 25 8.5V1H26V8.5Z" fill="#E0E0E0"/>
<path d="M26.25 28.5505L23.4782 25.7786C23.3197 25.6202 23.2269 25.5277 23.1535 25.4653C23.1203 25.4371 23.1007 25.4242 23.0924 25.4189C23.0679 25.4122 23.0421 25.412 23.0176 25.4189C23.0333 25.4129 23.0203 25.4126 22.9582 25.4653C22.9214 25.4965 22.8794 25.5351 22.8271 25.5858L22.6335 25.7786L16.1637 32.2467C16.3504 32.2481 16.5585 32.25 16.792 32.25H23.208L24.0487 32.2459C24.2866 32.2422 24.487 32.235 24.6623 32.2207C25.0058 32.1926 25.1979 32.141 25.3402 32.0685L25.4549 32.0042C25.716 31.8441 25.9287 31.6145 26.0685 31.3402L26.119 31.2222C26.1654 31.0922 26.1997 30.9197 26.2207 30.6623C26.2493 30.3115 26.25 29.8599 26.25 29.208V28.5505ZM18.2292 23.3267C18.2292 22.8282 17.8251 22.4235 17.3267 22.4233C16.8281 22.4233 16.4233 22.8281 16.4233 23.3267C16.4235 23.8251 16.8282 24.2292 17.3267 24.2292C17.825 24.229 18.229 23.825 18.2292 23.3267ZM26.25 22.792C26.25 22.1401 26.2493 21.6885 26.2207 21.3377C26.1926 20.9942 26.141 20.8021 26.0685 20.6598C25.9287 20.3855 25.716 20.1559 25.4549 19.9958L25.3402 19.9315C25.1979 19.859 25.0058 19.8074 24.6623 19.7793C24.3115 19.7507 23.8599 19.75 23.208 19.75H16.792C16.1401 19.75 15.6885 19.7507 15.3377 19.7793C15.0803 19.8003 14.9078 19.8346 14.7778 19.881L14.6598 19.9315C14.3855 20.0713 14.1559 20.284 13.9958 20.5451L13.9315 20.6598C13.859 20.8021 13.8074 20.9942 13.7793 21.3377C13.7507 21.6885 13.75 22.1401 13.75 22.792V29.208C13.75 29.8599 13.7507 30.3115 13.7793 30.6623C13.8074 31.0058 13.859 31.1979 13.9315 31.3402L13.9958 31.4549C14.1559 31.716 14.3855 31.9287 14.6598 32.0685C14.6635 32.0704 14.6675 32.0716 14.6712 32.0734C14.7284 31.9622 14.7977 31.8752 14.847 31.8162C14.9523 31.6905 15.0991 31.5447 15.2539 31.3898L21.7497 24.8949L21.958 24.6882C22.0246 24.6236 22.0886 24.5638 22.1493 24.5124C22.2761 24.4047 22.4295 24.2956 22.6261 24.2316L22.7319 24.2015C22.9801 24.1421 23.2407 24.1523 23.4847 24.2316C23.6816 24.2956 23.8354 24.4046 23.9624 24.5124C24.0838 24.6154 24.218 24.7509 24.362 24.8949L26.25 26.7829V22.792ZM19.4792 23.3267C19.479 24.5154 18.5154 25.479 17.3267 25.4792C16.1378 25.4792 15.1735 24.5155 15.1733 23.3267C15.1733 22.1377 16.1377 21.1733 17.3267 21.1733C18.5155 21.1735 19.4792 22.1378 19.4792 23.3267ZM27.5 29.208L27.4959 30.0682C27.4918 30.3264 27.4835 30.5574 27.4666 30.764C27.4323 31.1848 27.3591 31.5595 27.1818 31.9074C26.9022 32.4562 26.4562 32.9022 25.9074 33.1818C25.5595 33.3591 25.1848 33.4323 24.764 33.4666C24.5574 33.4835 24.3264 33.4918 24.0682 33.4959L23.208 33.5H16.1279C15.909 33.5 15.702 33.5006 15.5387 33.4862C15.5307 33.4854 15.5223 33.4838 15.5135 33.4829C15.4165 33.4785 15.324 33.4738 15.236 33.4666C14.8152 33.4323 14.4405 33.3591 14.0926 33.1818C13.5438 32.9022 13.0978 32.4562 12.8182 31.9074C12.6409 31.5595 12.5677 31.1848 12.5334 30.764C12.4996 30.3506 12.5 29.8392 12.5 29.208V22.792C12.5 22.1608 12.4996 21.6494 12.5334 21.236C12.5677 20.8152 12.6409 20.4405 12.8182 20.0926C13.0978 19.5438 13.5438 19.0978 14.0926 18.8182C14.4405 18.6409 14.8152 18.5677 15.236 18.5334C15.6494 18.4996 16.1608 18.5 16.792 18.5H23.208C23.8392 18.5 24.3506 18.4996 24.764 18.5334C25.1848 18.5677 25.5595 18.6409 25.9074 18.8182C26.4562 19.0978 26.9022 19.5438 27.1818 20.0926C27.3591 20.4405 27.4323 20.8152 27.4666 21.236C27.5004 21.6494 27.5 22.1608 27.5 22.792V29.208Z" fill="#3D5ED6"/>
</svg>
