<svg width="40" height="40" viewBox="0 0 40 40" fill="none" xmlns="http://www.w3.org/2000/svg">
<path d="M34.9998 7.95719V36C34.9998 38.2091 33.209 40 30.9998 40H9C6.79086 40 5 38.2091 5 36V4C5 1.79086 6.79086 0 9 0H26.3367L34.9998 7.95719Z" fill="white"/>
<path d="M5 36V4C5 1.79086 6.79085 1.61787e-07 8.99997 0H26.3368L34.9998 7.95703V36L34.994 36.2061C34.8902 38.2511 33.2509 39.8913 31.2059 39.9951L30.9998 40V38.5C32.3805 38.4999 33.4998 37.3806 33.4998 36V8.61523L25.7528 1.5H8.99997C7.61927 1.5 6.49999 2.61929 6.49999 4V36C6.49999 37.3807 7.61927 38.5 8.99997 38.5V40L8.79392 39.9951C6.74879 39.8913 5.10865 38.2512 5.00488 36.2061L5 36ZM30.9998 38.5V40H8.99997V38.5H30.9998Z" fill="#E0E0E0"/>
<path d="M26 8.5H33.5V9.5H26C25.4477 9.5 25 9.05228 25 8.5V1H26V8.5Z" fill="#E0E0E0"/>
<path d="M1 22C1 20.8954 1.89543 20 3 20H18.8208C19.9254 20 20.8208 20.8954 20.8208 22V31C20.8208 32.1046 19.9254 33 18.8208 33H3C1.89543 33 1 32.1046 1 31V22Z" fill="#3E9BCA"/>
<path d="M18.8209 30.02H17.1109L14.2509 25.69V30.02H12.5409V23H14.2509L17.1109 27.35V23H18.8209V30.02Z" fill="white"/>
<path d="M11.3017 23V30.02H9.59168V23H11.3017Z" fill="white"/>
<path d="M7.24988 26.42C7.65655 26.5067 7.98322 26.71 8.22988 27.03C8.47655 27.3434 8.59988 27.7034 8.59988 28.11C8.59988 28.6967 8.39322 29.1634 7.97988 29.51C7.57322 29.85 7.00322 30.02 6.26988 30.02H2.99988V23H6.15988C6.87322 23 7.42988 23.1634 7.82988 23.49C8.23655 23.8167 8.43988 24.26 8.43988 24.82C8.43988 25.2334 8.32988 25.5767 8.10988 25.85C7.89655 26.1234 7.60988 26.3134 7.24988 26.42ZM4.70988 25.84H5.82988C6.10988 25.84 6.32322 25.78 6.46988 25.66C6.62322 25.5334 6.69988 25.35 6.69988 25.11C6.69988 24.87 6.62322 24.6867 6.46988 24.56C6.32322 24.4334 6.10988 24.37 5.82988 24.37H4.70988V25.84ZM5.96988 28.64C6.25655 28.64 6.47655 28.5767 6.62988 28.45C6.78988 28.3167 6.86988 28.1267 6.86988 27.88C6.86988 27.6334 6.78655 27.44 6.61988 27.3C6.45988 27.16 6.23655 27.09 5.94988 27.09H4.70988V28.64H5.96988Z" fill="white"/>
</svg>
