<svg width="40" height="40" viewBox="0 0 40 40" fill="none" xmlns="http://www.w3.org/2000/svg">
<path d="M34.9998 7.95719V36C34.9998 38.2091 33.209 40 30.9998 40H9C6.79086 40 5 38.2091 5 36V4C5 1.79086 6.79086 0 9 0H26.3367L34.9998 7.95719Z" fill="white"/>
<path d="M5 36V4C5 1.79086 6.79085 1.61787e-07 8.99997 0H26.3368L34.9998 7.95703V36L34.994 36.2061C34.8902 38.2511 33.2509 39.8913 31.2059 39.9951L30.9998 40V38.5C32.3805 38.4999 33.4998 37.3806 33.4998 36V8.61523L25.7528 1.5H8.99997C7.61927 1.5 6.49999 2.61929 6.49999 4V36C6.49999 37.3807 7.61927 38.5 8.99997 38.5V40L8.79392 39.9951C6.74879 39.8913 5.10865 38.2512 5.00488 36.2061L5 36ZM30.9998 38.5V40H8.99997V38.5H30.9998Z" fill="#E0E0E0"/>
<path d="M26 8.5H33.5V9.5H26C25.4477 9.5 25 9.05228 25 8.5V1H26V8.5Z" fill="#E0E0E0"/>
<path d="M1 22C1 20.8954 1.89543 20 3 20H27C28.1046 20 29 20.8954 29 22V31C29 32.1046 28.1046 33 27 33H3C1.89543 33 1 32.1046 1 31V22Z" fill="#D4AE00"/>
<path d="M11.8415 22.98V30H10.1315V25.79L8.56148 30H7.18148L5.60148 25.78V30H3.89148V22.98H5.91148L7.88148 27.84L9.83148 22.98H11.8415Z" fill="white"/>
<path d="M17.1412 30L14.7812 26.9V30H13.0712V22.98H14.7812V26.06L17.1212 22.98H19.1312L16.4112 26.42L19.2312 30H17.1412Z" fill="white"/>
<path d="M26.6338 22.98L24.1438 30H22.0038L19.5138 22.98H21.3338L23.0738 28.28L24.8238 22.98H26.6338Z" fill="white"/>
</svg>
