<svg width="40" height="40" viewBox="0 0 40 40" fill="none" xmlns="http://www.w3.org/2000/svg">
<path d="M34.9998 7.95719V36C34.9998 38.2091 33.209 40 30.9998 40H9C6.79086 40 5 38.2091 5 36V4C5 1.79086 6.79086 0 9 0H26.3367L34.9998 7.95719Z" fill="white"/>
<path d="M5 36V4C5 1.79086 6.79085 1.61787e-07 8.99997 0H26.3368L34.9998 7.95703V36L34.994 36.2061C34.8902 38.2511 33.2509 39.8913 31.2059 39.9951L30.9998 40V38.5C32.3805 38.4999 33.4998 37.3806 33.4998 36V8.61523L25.7528 1.5H8.99997C7.61927 1.5 6.49999 2.61929 6.49999 4V36C6.49999 37.3807 7.61927 38.5 8.99997 38.5V40L8.79392 39.9951C6.74879 39.8913 5.10865 38.2512 5.00488 36.2061L5 36ZM30.9998 38.5V40H8.99997V38.5H30.9998Z" fill="#E0E0E0"/>
<path d="M26 8.5H33.5V9.5H26C25.4477 9.5 25 9.05228 25 8.5V1H26V8.5Z" fill="#E0E0E0"/>
<path d="M1 22C1 20.8954 1.89543 20 3 20H31C32.1046 20 33 20.8954 33 22V31C33 32.1046 32.1046 33 31 33H3C1.89543 33 1 32.1046 1 31V22Z" fill="#3D5ED6"/>
<path d="M5.30371 22.98C6.04371 22.98 6.69038 23.1267 7.24371 23.42C7.79704 23.7133 8.22371 24.1267 8.52371 24.66C8.83038 25.1867 8.98371 25.7967 8.98371 26.49C8.98371 27.1767 8.83038 27.7867 8.52371 28.32C8.22371 28.8533 7.79371 29.2667 7.23371 29.56C6.68038 29.8533 6.03704 30 5.30371 30H2.67371V22.98H5.30371ZM5.19371 28.52C5.84038 28.52 6.34371 28.3433 6.70371 27.99C7.06371 27.6367 7.24371 27.1367 7.24371 26.49C7.24371 25.8433 7.06371 25.34 6.70371 24.98C6.34371 24.62 5.84038 24.44 5.19371 24.44H4.38371V28.52H5.19371Z" fill="white"/>
<path d="M13.2593 30.07C12.5993 30.07 11.9927 29.9167 11.4393 29.61C10.8927 29.3033 10.456 28.8767 10.1293 28.33C9.80934 27.7767 9.64934 27.1567 9.64934 26.47C9.64934 25.7833 9.80934 25.1667 10.1293 24.62C10.456 24.0733 10.8927 23.6467 11.4393 23.34C11.9927 23.0333 12.5993 22.88 13.2593 22.88C13.9193 22.88 14.5227 23.0333 15.0693 23.34C15.6227 23.6467 16.056 24.0733 16.3693 24.62C16.6893 25.1667 16.8493 25.7833 16.8493 26.47C16.8493 27.1567 16.6893 27.7767 16.3693 28.33C16.0493 28.8767 15.616 29.3033 15.0693 29.61C14.5227 29.9167 13.9193 30.07 13.2593 30.07ZM13.2593 28.51C13.8193 28.51 14.266 28.3233 14.5993 27.95C14.9393 27.5767 15.1093 27.0833 15.1093 26.47C15.1093 25.85 14.9393 25.3567 14.5993 24.99C14.266 24.6167 13.8193 24.43 13.2593 24.43C12.6927 24.43 12.2393 24.6133 11.8993 24.98C11.566 25.3467 11.3993 25.8433 11.3993 26.47C11.3993 27.09 11.566 27.5867 11.8993 27.96C12.2393 28.3267 12.6927 28.51 13.2593 28.51Z" fill="white"/>
<path d="M17.5107 26.48C17.5107 25.7867 17.6607 25.17 17.9607 24.63C18.2607 24.0833 18.6773 23.66 19.2107 23.36C19.7507 23.0533 20.3607 22.9 21.0407 22.9C21.874 22.9 22.5873 23.12 23.1807 23.56C23.774 24 24.1707 24.6 24.3707 25.36H22.4907C22.3507 25.0667 22.1507 24.8433 21.8907 24.69C21.6373 24.5367 21.3473 24.46 21.0207 24.46C20.494 24.46 20.0673 24.6433 19.7407 25.01C19.414 25.3767 19.2507 25.8667 19.2507 26.48C19.2507 27.0933 19.414 27.5833 19.7407 27.95C20.0673 28.3167 20.494 28.5 21.0207 28.5C21.3473 28.5 21.6373 28.4233 21.8907 28.27C22.1507 28.1167 22.3507 27.8933 22.4907 27.6H24.3707C24.1707 28.36 23.774 28.96 23.1807 29.4C22.5873 29.8333 21.874 30.05 21.0407 30.05C20.3607 30.05 19.7507 29.9 19.2107 29.6C18.6773 29.2933 18.2607 28.87 17.9607 28.33C17.6607 27.79 17.5107 27.1733 17.5107 26.48Z" fill="white"/>
<path d="M29.7179 30L28.2879 27.85L27.0279 30H25.0879L27.3379 26.43L25.0379 22.98H27.0279L28.4379 25.1L29.6779 22.98H31.6179L29.3879 26.52L31.7079 30H29.7179Z" fill="white"/>
</svg>
