<svg width="40" height="40" viewBox="0 0 40 40" fill="none" xmlns="http://www.w3.org/2000/svg">
<path d="M34.9998 7.95719V36C34.9998 38.2091 33.209 40 30.9998 40H9C6.79086 40 5 38.2091 5 36V4C5 1.79086 6.79086 0 9 0H26.3367L34.9998 7.95719Z" fill="white"/>
<path d="M5 36V4C5 1.79086 6.79085 1.61787e-07 8.99997 0H26.3368L34.9998 7.95703V36L34.994 36.2061C34.8902 38.2511 33.2509 39.8913 31.2059 39.9951L30.9998 40V38.5C32.3805 38.4999 33.4998 37.3806 33.4998 36V8.61523L25.7528 1.5H8.99997C7.61927 1.5 6.49999 2.61929 6.49999 4V36C6.49999 37.3807 7.61927 38.5 8.99997 38.5V40L8.79392 39.9951C6.74879 39.8913 5.10865 38.2512 5.00488 36.2061L5 36ZM30.9998 38.5V40H8.99997V38.5H30.9998Z" fill="#E0E0E0"/>
<path d="M26 8.5H33.5V9.5H26C25.4477 9.5 25 9.05228 25 8.5V1H26V8.5Z" fill="#E0E0E0"/>
<path d="M1 22C1 20.8954 1.89543 20 3 20H23C24.1046 20 25 20.8954 25 22V31C25 32.1046 24.1046 33 23 33H3C1.89543 33 1 32.1046 1 31V22Z" fill="#3D5ED6"/>
<path d="M5.45695 22.98V30H3.74695V22.98H5.45695Z" fill="white"/>
<path d="M14.6462 22.98V30H12.9362V25.79L11.3662 30H9.98617L8.40617 25.78V30H6.69617V22.98H8.71617L10.6862 27.84L12.6362 22.98H14.6462Z" fill="white"/>
<path d="M20.5359 25.2C20.4092 24.9667 20.2259 24.79 19.9859 24.67C19.7525 24.5433 19.4759 24.48 19.1559 24.48C18.6025 24.48 18.1592 24.6633 17.8259 25.03C17.4925 25.39 17.3259 25.8733 17.3259 26.48C17.3259 27.1267 17.4992 27.6333 17.8459 28C18.1992 28.36 18.6825 28.54 19.2959 28.54C19.7159 28.54 20.0692 28.4333 20.3559 28.22C20.6492 28.0067 20.8625 27.7 20.9959 27.3H18.8259V26.04H22.5459V27.63C22.4192 28.0567 22.2025 28.4533 21.8959 28.82C21.5959 29.1867 21.2125 29.4833 20.7459 29.71C20.2792 29.9367 19.7525 30.05 19.1659 30.05C18.4725 30.05 17.8525 29.9 17.3059 29.6C16.7659 29.2933 16.3425 28.87 16.0359 28.33C15.7359 27.79 15.5859 27.1733 15.5859 26.48C15.5859 25.7867 15.7359 25.17 16.0359 24.63C16.3425 24.0833 16.7659 23.66 17.3059 23.36C17.8459 23.0533 18.4625 22.9 19.1559 22.9C19.9959 22.9 20.7025 23.1033 21.2759 23.51C21.8559 23.9167 22.2392 24.48 22.4259 25.2H20.5359Z" fill="white"/>
</svg>
