<svg width="40" height="40" viewBox="0 0 40 40" fill="none" xmlns="http://www.w3.org/2000/svg">
<path d="M34.9998 7.95719V36C34.9998 38.2091 33.209 40 30.9998 40H9C6.79086 40 5 38.2091 5 36V4C5 1.79086 6.79086 0 9 0H26.3367L34.9998 7.95719Z" fill="white"/>
<path d="M5 36V4C5 1.79086 6.79085 1.61787e-07 8.99997 0H26.3368L34.9998 7.95703V36L34.994 36.2061C34.8902 38.2511 33.2509 39.8913 31.2059 39.9951L30.9998 40V38.5C32.3805 38.4999 33.4998 37.3806 33.4998 36V8.61523L25.7528 1.5H8.99997C7.61927 1.5 6.49999 2.61929 6.49999 4V36C6.49999 37.3807 7.61927 38.5 8.99997 38.5V40L8.79392 39.9951C6.74879 39.8913 5.10865 38.2512 5.00488 36.2061L5 36ZM30.9998 38.5V40H8.99997V38.5H30.9998Z" fill="#E0E0E0"/>
<path d="M26 8.5H33.5V9.5H26C25.4477 9.5 25 9.05228 25 8.5V1H26V8.5Z" fill="#E0E0E0"/>
<path d="M1 22C1 20.8954 1.89543 20 3 20H28C29.1046 20 30 20.8954 30 22V31C30 32.1046 29.1046 33 28 33H3C1.89543 33 1 32.1046 1 31V22Z" fill="#3E9BCA"/>
<path d="M25.1941 25.2C25.0674 24.9667 24.8841 24.79 24.6441 24.67C24.4107 24.5433 24.1341 24.48 23.8141 24.48C23.2607 24.48 22.8174 24.6633 22.4841 25.03C22.1507 25.39 21.9841 25.8733 21.9841 26.48C21.9841 27.1267 22.1574 27.6333 22.5041 28C22.8574 28.36 23.3407 28.54 23.9541 28.54C24.3741 28.54 24.7274 28.4333 25.0141 28.22C25.3074 28.0067 25.5207 27.7 25.6541 27.3H23.4841V26.04H27.2041V27.63C27.0774 28.0567 26.8607 28.4533 26.5541 28.82C26.2541 29.1867 25.8707 29.4833 25.4041 29.71C24.9374 29.9367 24.4107 30.05 23.8241 30.05C23.1307 30.05 22.5107 29.9 21.9641 29.6C21.4241 29.2933 21.0007 28.87 20.6941 28.33C20.3941 27.79 20.2441 27.1733 20.2441 26.48C20.2441 25.7867 20.3941 25.17 20.6941 24.63C21.0007 24.0833 21.4241 23.66 21.9641 23.36C22.5041 23.0533 23.1207 22.9 23.8141 22.9C24.6541 22.9 25.3607 23.1033 25.9341 23.51C26.5141 23.9167 26.8974 24.48 27.0841 25.2H25.1941Z" fill="white"/>
<path d="M19.3044 22.98V30H17.5944V25.79L16.0244 30H14.6444L13.0644 25.78V30H11.3544V22.98H13.3744L15.3444 27.84L17.2944 22.98H19.3044Z" fill="white"/>
<path d="M6.71875 22.98C7.45875 22.98 8.10542 23.1267 8.65875 23.42C9.21208 23.7133 9.63875 24.1267 9.93875 24.66C10.2454 25.1867 10.3988 25.7967 10.3988 26.49C10.3988 27.1767 10.2454 27.7867 9.93875 28.32C9.63875 28.8533 9.20875 29.2667 8.64875 29.56C8.09542 29.8533 7.45208 30 6.71875 30H4.08875V22.98H6.71875ZM6.60875 28.52C7.25542 28.52 7.75875 28.3433 8.11875 27.99C8.47875 27.6367 8.65875 27.1367 8.65875 26.49C8.65875 25.8433 8.47875 25.34 8.11875 24.98C7.75875 24.62 7.25542 24.44 6.60875 24.44H5.79875V28.52H6.60875Z" fill="white"/>
</svg>
