<svg width="40" height="40" viewBox="0 0 40 40" fill="none" xmlns="http://www.w3.org/2000/svg">
<path d="M34.9998 7.95719V36C34.9998 38.2091 33.209 40 30.9998 40H9C6.79086 40 5 38.2091 5 36V4C5 1.79086 6.79086 0 9 0H26.3367L34.9998 7.95719Z" fill="white"/>
<path d="M5 36V4C5 1.79086 6.79085 1.61787e-07 8.99997 0H26.3368L34.9998 7.95703V36L34.994 36.2061C34.8902 38.2511 33.2509 39.8913 31.2059 39.9951L30.9998 40V38.5C32.3805 38.4999 33.4998 37.3806 33.4998 36V8.61523L25.7528 1.5H8.99997C7.61927 1.5 6.49999 2.61929 6.49999 4V36C6.49999 37.3807 7.61927 38.5 8.99997 38.5V40L8.79392 39.9951C6.74879 39.8913 5.10865 38.2512 5.00488 36.2061L5 36ZM30.9998 38.5V40H8.99997V38.5H30.9998Z" fill="#E0E0E0"/>
<path d="M26 8.5H33.5V9.5H26C25.4477 9.5 25 9.05228 25 8.5V1H26V8.5Z" fill="#E0E0E0"/>
<path d="M1 22C1 20.8954 1.89543 20 3 20H29.4351C30.5396 20 31.4351 20.8954 31.4351 22V31.1899C31.4351 32.2945 30.5396 33.1899 29.4351 33.1899H3C1.89543 33.1899 1 32.2945 1 31.1899V22Z" fill="#3E9BCA"/>
<path d="M29.4349 30.12H27.7249L24.8649 25.79V30.12H23.1549V23.1H24.8649L27.7249 27.45V23.1H29.4349V30.12Z" fill="white"/>
<path d="M18.6136 30.19C17.9536 30.19 17.3469 30.0367 16.7936 29.73C16.2469 29.4233 15.8103 28.9967 15.4836 28.45C15.1636 27.8967 15.0036 27.2767 15.0036 26.59C15.0036 25.9033 15.1636 25.2867 15.4836 24.74C15.8103 24.1933 16.2469 23.7667 16.7936 23.46C17.3469 23.1533 17.9536 23 18.6136 23C19.2736 23 19.8769 23.1533 20.4236 23.46C20.9769 23.7667 21.4103 24.1933 21.7236 24.74C22.0436 25.2867 22.2036 25.9033 22.2036 26.59C22.2036 27.2767 22.0436 27.8967 21.7236 28.45C21.4036 28.9967 20.9702 29.4233 20.4236 29.73C19.8769 30.0367 19.2736 30.19 18.6136 30.19ZM18.6136 28.63C19.1736 28.63 19.6203 28.4433 19.9536 28.07C20.2936 27.6967 20.4636 27.2033 20.4636 26.59C20.4636 25.97 20.2936 25.4767 19.9536 25.11C19.6203 24.7367 19.1736 24.55 18.6136 24.55C18.0469 24.55 17.5936 24.7333 17.2536 25.1C16.9203 25.4667 16.7536 25.9633 16.7536 26.59C16.7536 27.21 16.9203 27.7067 17.2536 28.08C17.5936 28.4467 18.0469 28.63 18.6136 28.63Z" fill="white"/>
<path d="M11.6812 30.19C11.1679 30.19 10.7079 30.1067 10.3012 29.94C9.89457 29.7733 9.56791 29.5267 9.32124 29.2C9.08124 28.8733 8.95457 28.48 8.94124 28.02H10.7612C10.7879 28.28 10.8779 28.48 11.0312 28.62C11.1846 28.7533 11.3846 28.82 11.6312 28.82C11.8846 28.82 12.0846 28.7633 12.2312 28.65C12.3779 28.53 12.4512 28.3667 12.4512 28.16C12.4512 27.9867 12.3912 27.8433 12.2712 27.73C12.1579 27.6167 12.0146 27.5233 11.8412 27.45C11.6746 27.3767 11.4346 27.2933 11.1212 27.2C10.6679 27.06 10.2979 26.92 10.0112 26.78C9.72457 26.64 9.47791 26.4333 9.27124 26.16C9.06457 25.8867 8.96124 25.53 8.96124 25.09C8.96124 24.4367 9.19791 23.9267 9.67124 23.56C10.1446 23.1867 10.7612 23 11.5212 23C12.2946 23 12.9179 23.1867 13.3912 23.56C13.8646 23.9267 14.1179 24.44 14.1512 25.1H12.3012C12.2879 24.8733 12.2046 24.6967 12.0512 24.57C11.8979 24.4367 11.7012 24.37 11.4612 24.37C11.2546 24.37 11.0879 24.4267 10.9612 24.54C10.8346 24.6467 10.7712 24.8033 10.7712 25.01C10.7712 25.2367 10.8779 25.4133 11.0912 25.54C11.3046 25.6667 11.6379 25.8033 12.0912 25.95C12.5446 26.1033 12.9112 26.25 13.1912 26.39C13.4779 26.53 13.7246 26.7333 13.9312 27C14.1379 27.2667 14.2412 27.61 14.2412 28.03C14.2412 28.43 14.1379 28.7933 13.9312 29.12C13.7312 29.4467 13.4379 29.7067 13.0512 29.9C12.6646 30.0933 12.2079 30.19 11.6812 30.19Z" fill="white"/>
<path d="M7.75999 23.1V27.88C7.75999 28.62 7.54999 29.19 7.12999 29.59C6.71666 29.99 6.15666 30.19 5.44999 30.19C4.70999 30.19 4.11666 29.98 3.66999 29.56C3.22332 29.14 2.99999 28.5433 2.99999 27.77H4.69999C4.69999 28.0633 4.75999 28.2867 4.87999 28.44C4.99999 28.5867 5.17332 28.66 5.39999 28.66C5.60666 28.66 5.76666 28.5933 5.87999 28.46C5.99332 28.3267 6.04999 28.1333 6.04999 27.88V23.1H7.75999Z" fill="white"/>
</svg>
