<svg width="40" height="40" viewBox="0 0 40 40" fill="none" xmlns="http://www.w3.org/2000/svg">
<path d="M34.9998 7.95719V36C34.9998 38.2091 33.209 40 30.9998 40H9C6.79086 40 5 38.2091 5 36V4C5 1.79086 6.79086 0 9 0H26.3367L34.9998 7.95719Z" fill="white"/>
<path d="M5 36V4C5 1.79086 6.79085 1.61787e-07 8.99997 0H26.3368L34.9998 7.95703V36L34.994 36.2061C34.8902 38.2511 33.2509 39.8913 31.2059 39.9951L30.9998 40V38.5C32.3805 38.4999 33.4998 37.3806 33.4998 36V8.61523L25.7528 1.5H8.99997C7.61927 1.5 6.49999 2.61929 6.49999 4V36C6.49999 37.3807 7.61927 38.5 8.99997 38.5V40L8.79392 39.9951C6.74879 39.8913 5.10865 38.2512 5.00488 36.2061L5 36ZM30.9998 38.5V40H8.99997V38.5H30.9998Z" fill="#E0E0E0"/>
<path d="M26 8.5H33.5V9.5H26C25.4477 9.5 25 9.05228 25 8.5V1H26V8.5Z" fill="#E0E0E0"/>
<path d="M1 22C1 20.8954 1.89543 20 3 20H22C23.1046 20 24 20.8954 24 22V31C24 32.1046 23.1046 33 22 33H3C1.89543 33 1 32.1046 1 31V22Z" fill="#E76067"/>
<path d="M21.7086 22.98V24.35H18.8486V25.83H20.9886V27.16H18.8486V30H17.1386V22.98H21.7086Z" fill="white"/>
<path d="M12.5029 22.98C13.2429 22.98 13.8896 23.1267 14.4429 23.42C14.9963 23.7133 15.4229 24.1267 15.7229 24.66C16.0296 25.1867 16.1829 25.7967 16.1829 26.49C16.1829 27.1767 16.0296 27.7867 15.7229 28.32C15.4229 28.8533 14.9929 29.2667 14.4329 29.56C13.8796 29.8533 13.2363 30 12.5029 30H9.87293V22.98H12.5029ZM12.3929 28.52C13.0396 28.52 13.5429 28.3433 13.9029 27.99C14.2629 27.6367 14.4429 27.1367 14.4429 26.49C14.4429 25.8433 14.2629 25.34 13.9029 24.98C13.5429 24.62 13.0396 24.44 12.3929 24.44H11.5829V28.52H12.3929Z" fill="white"/>
<path d="M8.9827 25.24C8.9827 25.6467 8.88936 26.02 8.7027 26.36C8.51603 26.6933 8.22936 26.9633 7.8427 27.17C7.45603 27.3767 6.97603 27.48 6.4027 27.48H5.3427V30H3.6327V22.98H6.4027C6.9627 22.98 7.43603 23.0767 7.8227 23.27C8.20936 23.4633 8.49936 23.73 8.6927 24.07C8.88603 24.41 8.9827 24.8 8.9827 25.24ZM6.2727 26.12C6.59936 26.12 6.8427 26.0433 7.0027 25.89C7.1627 25.7367 7.2427 25.52 7.2427 25.24C7.2427 24.96 7.1627 24.7433 7.0027 24.59C6.8427 24.4367 6.59936 24.36 6.2727 24.36H5.3427V26.12H6.2727Z" fill="white"/>
</svg>
