<svg width="40" height="40" viewBox="0 0 40 40" fill="none" xmlns="http://www.w3.org/2000/svg">
<path d="M34.9998 7.95719V36C34.9998 38.2091 33.209 40 30.9998 40H9C6.79086 40 5 38.2091 5 36V4C5 1.79086 6.79086 0 9 0H26.3367L34.9998 7.95719Z" fill="white"/>
<path d="M5 36V4C5 1.79086 6.79085 1.61787e-07 8.99997 0H26.3368L34.9998 7.95703V36L34.994 36.2061C34.8902 38.2511 33.2509 39.8913 31.2059 39.9951L30.9998 40V38.5C32.3805 38.4999 33.4998 37.3806 33.4998 36V8.61523L25.7528 1.5H8.99997C7.61927 1.5 6.49999 2.61929 6.49999 4V36C6.49999 37.3807 7.61927 38.5 8.99997 38.5V40L8.79392 39.9951C6.74879 39.8913 5.10865 38.2512 5.00488 36.2061L5 36ZM30.9998 38.5V40H8.99997V38.5H30.9998Z" fill="#E0E0E0"/>
<path d="M26 8.5H33.5V9.5H26C25.4477 9.5 25 9.05228 25 8.5V1H26V8.5Z" fill="#E0E0E0"/>
<path d="M17.342 22.4584L13.8003 26L17.342 29.5417L16.4582 30.4255L12.4746 26.4419C12.3574 26.3247 12.2915 26.1658 12.2915 26C12.2915 25.8343 12.3574 25.6754 12.4746 25.5581L16.4582 21.5746L17.342 22.4584ZM27.5251 25.5581L27.5682 25.6053C27.7685 25.8508 27.7539 26.2131 27.5251 26.4419L23.5415 30.4255L22.6577 29.5417L26.1994 26L22.6577 22.4584L23.5415 21.5746L27.5251 25.5581Z" fill="#E76067"/>
</svg>
