<svg width="40" height="40" viewBox="0 0 40 40" fill="none" xmlns="http://www.w3.org/2000/svg">
<path d="M34.9998 7.95719V36C34.9998 38.2091 33.209 40 30.9998 40H9C6.79086 40 5 38.2091 5 36V4C5 1.79086 6.79086 0 9 0H26.3367L34.9998 7.95719Z" fill="white"/>
<path d="M5 36V4C5 1.79086 6.79085 1.61787e-07 8.99997 0H26.3368L34.9998 7.95703V36L34.994 36.2061C34.8902 38.2511 33.2509 39.8913 31.2059 39.9951L30.9998 40V38.5C32.3805 38.4999 33.4998 37.3806 33.4998 36V8.61523L25.7528 1.5H8.99997C7.61927 1.5 6.49999 2.61929 6.49999 4V36C6.49999 37.3807 7.61927 38.5 8.99997 38.5V40L8.79392 39.9951C6.74879 39.8913 5.10865 38.2512 5.00488 36.2061L5 36ZM30.9998 38.5V40H8.99997V38.5H30.9998Z" fill="#E0E0E0"/>
<path d="M26 8.5H33.5V9.5H26C25.4477 9.5 25 9.05228 25 8.5V1H26V8.5Z" fill="#E0E0E0"/>
<path d="M1 22C1 20.8954 1.89543 20 3 20H17.3765C18.481 20 19.3765 20.8954 19.3765 22V31C19.3765 32.1046 18.481 33 17.3765 33H3C1.89543 33 1 32.1046 1 31V22Z" fill="#161616"/>
<path d="M17.3763 25.26C17.3763 25.6667 17.2829 26.04 17.0963 26.38C16.9096 26.7134 16.6229 26.9834 16.2362 27.19C15.8496 27.3967 15.3696 27.5 14.7963 27.5H13.7362V30.02H12.0262V23H14.7963C15.3563 23 15.8296 23.0967 16.2163 23.29C16.6029 23.4834 16.8929 23.75 17.0863 24.09C17.2796 24.43 17.3763 24.82 17.3763 25.26ZM14.6663 26.14C14.9929 26.14 15.2362 26.0634 15.3962 25.91C15.5562 25.7567 15.6363 25.54 15.6363 25.26C15.6363 24.98 15.5562 24.7634 15.3962 24.61C15.2362 24.4567 14.9929 24.38 14.6663 24.38H13.7362V26.14H14.6663Z" fill="white"/>
<path d="M10.787 23V30.02H9.07703V23H10.787Z" fill="white"/>
<path d="M4.94 28.62H7.96V30.02H3V28.72L6 24.4H3V23H7.96V24.3L4.94 28.62Z" fill="white"/>
</svg>
