<svg width="40" height="40" viewBox="0 0 40 40" fill="none" xmlns="http://www.w3.org/2000/svg">
<path d="M34.9998 7.95719V36C34.9998 38.2091 33.209 40 30.9998 40H9C6.79086 40 5 38.2091 5 36V4C5 1.79086 6.79086 0 9 0H26.3367L34.9998 7.95719Z" fill="white"/>
<path d="M5 36V4C5 1.79086 6.79085 1.61787e-07 8.99997 0H26.3368L34.9998 7.95703V36L34.994 36.2061C34.8902 38.2511 33.2509 39.8913 31.2059 39.9951L30.9998 40V38.5C32.3805 38.4999 33.4998 37.3806 33.4998 36V8.61523L25.7528 1.5H8.99997C7.61927 1.5 6.49999 2.61929 6.49999 4V36C6.49999 37.3807 7.61927 38.5 8.99997 38.5V40L8.79392 39.9951C6.74879 39.8913 5.10865 38.2512 5.00488 36.2061L5 36ZM30.9998 38.5V40H8.99997V38.5H30.9998Z" fill="#E0E0E0"/>
<path d="M26 8.5H33.5V9.5H26C25.4477 9.5 25 9.05228 25 8.5V1H26V8.5Z" fill="#E0E0E0"/>
<path d="M1 22C1 20.8954 1.89543 20 3 20H22C23.1046 20 24 20.8954 24 22V31C24 32.1046 23.1046 33 22 33H3C1.89543 33 1 32.1046 1 31V22Z" fill="#3E9BCA"/>
<path d="M19.4638 28.68H21.7038V30H17.7538V22.98H19.4638V28.68Z" fill="white"/>
<path d="M14.8729 31.2L13.9729 29.99C13.7063 30.0433 13.4463 30.07 13.1929 30.07C12.5329 30.07 11.9263 29.9167 11.3729 29.61C10.8263 29.3033 10.3896 28.8767 10.0629 28.33C9.74293 27.7767 9.58293 27.1567 9.58293 26.47C9.58293 25.7833 9.74293 25.1667 10.0629 24.62C10.3896 24.0733 10.8263 23.6467 11.3729 23.34C11.9263 23.0333 12.5329 22.88 13.1929 22.88C13.8529 22.88 14.4563 23.0333 15.0029 23.34C15.5563 23.6467 15.9896 24.0733 16.3029 24.62C16.6229 25.1667 16.7829 25.7833 16.7829 26.47C16.7829 27.07 16.6596 27.62 16.4129 28.12C16.1729 28.6133 15.8363 29.0233 15.4029 29.35L16.9429 31.2H14.8729ZM11.3329 26.47C11.3329 27.09 11.4996 27.5867 11.8329 27.96C12.1729 28.3267 12.6263 28.51 13.1929 28.51C13.7529 28.51 14.1996 28.3233 14.5329 27.95C14.8729 27.5767 15.0429 27.0833 15.0429 26.47C15.0429 25.85 14.8729 25.3567 14.5329 24.99C14.1996 24.6167 13.7529 24.43 13.1929 24.43C12.6263 24.43 12.1729 24.6133 11.8329 24.98C11.4996 25.3467 11.3329 25.8433 11.3329 26.47Z" fill="white"/>
<path d="M6.26059 30.07C5.74725 30.07 5.28725 29.9867 4.88059 29.82C4.47392 29.6533 4.14725 29.4067 3.90059 29.08C3.66059 28.7533 3.53392 28.36 3.52059 27.9H5.34059C5.36725 28.16 5.45725 28.36 5.61059 28.5C5.76392 28.6333 5.96392 28.7 6.21059 28.7C6.46392 28.7 6.66392 28.6433 6.81059 28.53C6.95725 28.41 7.03059 28.2467 7.03059 28.04C7.03059 27.8667 6.97059 27.7233 6.85059 27.61C6.73725 27.4967 6.59392 27.4033 6.42059 27.33C6.25392 27.2567 6.01392 27.1733 5.70059 27.08C5.24725 26.94 4.87725 26.8 4.59059 26.66C4.30392 26.52 4.05725 26.3133 3.85059 26.04C3.64392 25.7667 3.54059 25.41 3.54059 24.97C3.54059 24.3167 3.77725 23.8067 4.25059 23.44C4.72392 23.0667 5.34059 22.88 6.10059 22.88C6.87392 22.88 7.49725 23.0667 7.97059 23.44C8.44392 23.8067 8.69725 24.32 8.73059 24.98H6.88059C6.86725 24.7533 6.78392 24.5767 6.63059 24.45C6.47725 24.3167 6.28059 24.25 6.04059 24.25C5.83392 24.25 5.66725 24.3067 5.54059 24.42C5.41392 24.5267 5.35059 24.6833 5.35059 24.89C5.35059 25.1167 5.45725 25.2933 5.67059 25.42C5.88392 25.5467 6.21725 25.6833 6.67059 25.83C7.12392 25.9833 7.49059 26.13 7.77059 26.27C8.05725 26.41 8.30392 26.6133 8.51059 26.88C8.71725 27.1467 8.82059 27.49 8.82059 27.91C8.82059 28.31 8.71725 28.6733 8.51059 29C8.31059 29.3267 8.01725 29.5867 7.63059 29.78C7.24392 29.9733 6.78725 30.07 6.26059 30.07Z" fill="white"/>
</svg>
