<svg width="40" height="40" viewBox="0 0 40 40" fill="none" xmlns="http://www.w3.org/2000/svg">
<path d="M34.9998 7.95719V36C34.9998 38.2091 33.209 40 30.9998 40H9C6.79086 40 5 38.2091 5 36V4C5 1.79086 6.79086 0 9 0H26.3367L34.9998 7.95719Z" fill="white"/>
<path d="M5 36V4C5 1.79086 6.79085 1.61787e-07 8.99997 0H26.3368L34.9998 7.95703V36L34.994 36.2061C34.8902 38.2511 33.2509 39.8913 31.2059 39.9951L30.9998 40V38.5C32.3805 38.4999 33.4998 37.3806 33.4998 36V8.61523L25.7528 1.5H8.99997C7.61927 1.5 6.49999 2.61929 6.49999 4V36C6.49999 37.3807 7.61927 38.5 8.99997 38.5V40L8.79392 39.9951C6.74879 39.8913 5.10865 38.2512 5.00488 36.2061L5 36ZM30.9998 38.5V40H8.99997V38.5H30.9998Z" fill="#E0E0E0"/>
<path d="M26 8.5H33.5V9.5H26C25.4477 9.5 25 9.05228 25 8.5V1H26V8.5Z" fill="#E0E0E0"/>
<path d="M1 22C1 20.8954 1.89543 20 3 20H31C32.1046 20 33 20.8954 33 22V31C33 32.1046 32.1046 33 31 33H3C1.89543 33 1 32.1046 1 31V22Z" fill="#3E9BCA"/>
<path d="M28.1484 28.68H30.3884V30H26.4384V22.98H28.1484V28.68Z" fill="white"/>
<path d="M25.2087 22.98V30H23.4987V25.79L21.9287 30H20.5487L18.9687 25.78V30H17.2587V22.98H19.2787L21.2487 27.84L23.1987 22.98H25.2087Z" fill="white"/>
<path d="M16.4005 22.98V24.35H14.5405V30H12.8305V24.35H10.9705V22.98H16.4005Z" fill="white"/>
<path d="M10.116 22.98V30H8.40602V27.11H5.74602V30H4.03602V22.98H5.74602V25.73H8.40602V22.98H10.116Z" fill="white"/>
</svg>
