<svg width="40" height="40" viewBox="0 0 40 40" fill="none" xmlns="http://www.w3.org/2000/svg">
<path d="M34.9998 7.95719V36C34.9998 38.2091 33.209 40 30.9998 40H9C6.79086 40 5 38.2091 5 36V4C5 1.79086 6.79086 0 9 0H26.3367L34.9998 7.95719Z" fill="white"/>
<path d="M5 36V4C5 1.79086 6.79085 1.61787e-07 8.99997 0H26.3368L34.9998 7.95703V36L34.994 36.2061C34.8902 38.2511 33.2509 39.8913 31.2059 39.9951L30.9998 40V38.5C32.3805 38.4999 33.4998 37.3806 33.4998 36V8.61523L25.7528 1.5H8.99997C7.61927 1.5 6.49999 2.61929 6.49999 4V36C6.49999 37.3807 7.61927 38.5 8.99997 38.5V40L8.79392 39.9951C6.74879 39.8913 5.10865 38.2512 5.00488 36.2061L5 36ZM30.9998 38.5V40H8.99997V38.5H30.9998Z" fill="#E0E0E0"/>
<path d="M26 8.5H33.5V9.5H26C25.4477 9.5 25 9.05228 25 8.5V1H26V8.5Z" fill="#E0E0E0"/>
<path d="M1 22C1 20.8954 1.89543 20 3 20H31C32.1046 20 33 20.8954 33 22V31C33 32.1046 32.1046 33 31 33H3C1.89543 33 1 32.1046 1 31V22Z" fill="#3E9BCA"/>
<path d="M28.533 28.76H25.913L25.493 30H23.703L26.243 22.98H28.223L30.763 30H28.953L28.533 28.76ZM28.093 27.44L27.223 24.87L26.363 27.44H28.093Z" fill="white"/>
<path d="M23.4483 22.98L20.9583 30H18.8183L16.3283 22.98H18.1483L19.8883 28.28L21.6383 22.98H23.4483Z" fill="white"/>
<path d="M13.8552 28.76H11.2352L10.8152 30H9.02523L11.5652 22.98H13.5452L16.0852 30H14.2752L13.8552 28.76ZM13.4152 27.44L12.5452 24.87L11.6852 27.44H13.4152Z" fill="white"/>
<path d="M8.10398 22.98V27.76C8.10398 28.5 7.89398 29.07 7.47398 29.47C7.06065 29.87 6.50065 30.07 5.79398 30.07C5.05398 30.07 4.46065 29.86 4.01398 29.44C3.56732 29.02 3.34398 28.4233 3.34398 27.65H5.04398C5.04398 27.9433 5.10398 28.1667 5.22398 28.32C5.34398 28.4667 5.51732 28.54 5.74398 28.54C5.95065 28.54 6.11065 28.4733 6.22398 28.34C6.33732 28.2067 6.39398 28.0133 6.39398 27.76V22.98H8.10398Z" fill="white"/>
</svg>
