<svg width="40" height="40" viewBox="0 0 40 40" fill="none" xmlns="http://www.w3.org/2000/svg">
<path d="M34.9998 7.95719V36C34.9998 38.2091 33.209 40 30.9998 40H9C6.79086 40 5 38.2091 5 36V4C5 1.79086 6.79086 0 9 0H26.3367L34.9998 7.95719Z" fill="white"/>
<path d="M5 36V4C5 1.79086 6.79085 1.61787e-07 8.99997 0H26.3368L34.9998 7.95703V36L34.994 36.2061C34.8902 38.2511 33.2509 39.8913 31.2059 39.9951L30.9998 40V38.5C32.3805 38.4999 33.4998 37.3806 33.4998 36V8.61523L25.7528 1.5H8.99997C7.61927 1.5 6.49999 2.61929 6.49999 4V36C6.49999 37.3807 7.61927 38.5 8.99997 38.5V40L8.79392 39.9951C6.74879 39.8913 5.10865 38.2512 5.00488 36.2061L5 36ZM30.9998 38.5V40H8.99997V38.5H30.9998Z" fill="#E0E0E0"/>
<path d="M26 8.5H33.5V9.5H26C25.4477 9.5 25 9.05228 25 8.5V1H26V8.5Z" fill="#E0E0E0"/>
<path d="M1 22C1 20.8954 1.89543 20 3 20H24C25.1046 20 26 20.8954 26 22V31C26 32.1046 25.1046 33 24 33H3C1.89543 33 1 32.1046 1 31V22Z" fill="#161616"/>
<path d="M21.3865 30L19.9265 27.35H19.5165V30H17.8065V22.98H20.6765C21.2299 22.98 21.6999 23.0767 22.0865 23.27C22.4799 23.4633 22.7732 23.73 22.9665 24.07C23.1599 24.4033 23.2565 24.7767 23.2565 25.19C23.2565 25.6567 23.1232 26.0733 22.8565 26.44C22.5965 26.8067 22.2099 27.0667 21.6965 27.22L23.3165 30H21.3865ZM19.5165 26.14H20.5765C20.8899 26.14 21.1232 26.0633 21.2765 25.91C21.4365 25.7567 21.5165 25.54 21.5165 25.26C21.5165 24.9933 21.4365 24.7833 21.2765 24.63C21.1232 24.4767 20.8899 24.4 20.5765 24.4H19.5165V26.14Z" fill="white"/>
<path d="M14.8035 28.76H12.1835L11.7635 30H9.97348L12.5135 22.98H14.4935L17.0335 30H15.2235L14.8035 28.76ZM14.3635 27.44L13.4935 24.87L12.6335 27.44H14.3635Z" fill="white"/>
<path d="M7.49004 30L6.03004 27.35H5.62004V30H3.91004V22.98H6.78004C7.33337 22.98 7.80337 23.0767 8.19004 23.27C8.58337 23.4633 8.87671 23.73 9.07004 24.07C9.26337 24.4033 9.36004 24.7767 9.36004 25.19C9.36004 25.6567 9.22671 26.0733 8.96004 26.44C8.70004 26.8067 8.31337 27.0667 7.80004 27.22L9.42004 30H7.49004ZM5.62004 26.14H6.68004C6.99337 26.14 7.22671 26.0633 7.38004 25.91C7.54004 25.7567 7.62004 25.54 7.62004 25.26C7.62004 24.9933 7.54004 24.7833 7.38004 24.63C7.22671 24.4767 6.99337 24.4 6.68004 24.4H5.62004V26.14Z" fill="white"/>
</svg>
