<svg width="40" height="40" viewBox="0 0 40 40" fill="none" xmlns="http://www.w3.org/2000/svg">
<path d="M34.9998 7.95719V36C34.9998 38.2091 33.209 40 30.9998 40H9C6.79086 40 5 38.2091 5 36V4C5 1.79086 6.79086 0 9 0H26.3367L34.9998 7.95719Z" fill="white"/>
<path d="M5 36V4C5 1.79086 6.79085 1.61787e-07 8.99997 0H26.3368L34.9998 7.95703V36L34.994 36.2061C34.8902 38.2511 33.2509 39.8913 31.2059 39.9951L30.9998 40V38.5C32.3805 38.4999 33.4998 37.3806 33.4998 36V8.61523L25.7528 1.5H8.99997C7.61927 1.5 6.49999 2.61929 6.49999 4V36C6.49999 37.3807 7.61927 38.5 8.99997 38.5V40L8.79392 39.9951C6.74879 39.8913 5.10865 38.2512 5.00488 36.2061L5 36ZM30.9998 38.5V40H8.99997V38.5H30.9998Z" fill="#E0E0E0"/>
<path d="M26 8.5H33.5V9.5H26C25.4477 9.5 25 9.05228 25 8.5V1H26V8.5Z" fill="#E0E0E0"/>
<path d="M1 22C1 20.8954 1.89543 20 3 20H25C26.1046 20 27 20.8954 27 22V31C27 32.1046 26.1046 33 25 33H3C1.89543 33 1 32.1046 1 31V22Z" fill="#35A142"/>
<path d="M24.3247 23.005L21.8347 30.025H19.6947L17.2047 23.005H19.0247L20.7647 28.305L22.5147 23.005H24.3247Z" fill="white"/>
<path d="M14.1223 30.095C13.609 30.095 13.149 30.0117 12.7423 29.845C12.3357 29.6783 12.009 29.4317 11.7623 29.105C11.5223 28.7783 11.3957 28.385 11.3823 27.925H13.2023C13.229 28.185 13.319 28.385 13.4723 28.525C13.6257 28.6583 13.8257 28.725 14.0723 28.725C14.3257 28.725 14.5257 28.6683 14.6723 28.555C14.819 28.435 14.8923 28.2717 14.8923 28.065C14.8923 27.8917 14.8323 27.7483 14.7123 27.635C14.599 27.5217 14.4557 27.4283 14.2823 27.355C14.1157 27.2817 13.8757 27.1983 13.5623 27.105C13.109 26.965 12.739 26.825 12.4523 26.685C12.1657 26.545 11.919 26.3383 11.7123 26.065C11.5057 25.7917 11.4023 25.435 11.4023 24.995C11.4023 24.3417 11.639 23.8317 12.1123 23.465C12.5857 23.0917 13.2023 22.905 13.9623 22.905C14.7357 22.905 15.359 23.0917 15.8323 23.465C16.3057 23.8317 16.559 24.345 16.5923 25.005H14.7423C14.729 24.7783 14.6457 24.6017 14.4923 24.475C14.339 24.3417 14.1423 24.275 13.9023 24.275C13.6957 24.275 13.529 24.3317 13.4023 24.445C13.2757 24.5517 13.2123 24.7083 13.2123 24.915C13.2123 25.1417 13.319 25.3183 13.5323 25.445C13.7457 25.5717 14.079 25.7083 14.5323 25.855C14.9857 26.0083 15.3523 26.155 15.6323 26.295C15.919 26.435 16.1657 26.6383 16.3723 26.905C16.579 27.1717 16.6823 27.515 16.6823 27.935C16.6823 28.335 16.579 28.6983 16.3723 29.025C16.1723 29.3517 15.879 29.6117 15.4923 29.805C15.1057 29.9983 14.649 30.095 14.1223 30.095Z" fill="white"/>
<path d="M3.67515 26.505C3.67515 25.8117 3.82515 25.195 4.12515 24.655C4.42515 24.1083 4.84182 23.685 5.37515 23.385C5.91515 23.0783 6.52515 22.925 7.20515 22.925C8.03848 22.925 8.75182 23.145 9.34515 23.585C9.93848 24.025 10.3352 24.625 10.5352 25.385H8.65515C8.51515 25.0917 8.31515 24.8683 8.05515 24.715C7.80182 24.5617 7.51182 24.485 7.18515 24.485C6.65848 24.485 6.23182 24.6683 5.90515 25.035C5.57848 25.4017 5.41515 25.8917 5.41515 26.505C5.41515 27.1183 5.57848 27.6083 5.90515 27.975C6.23182 28.3417 6.65848 28.525 7.18515 28.525C7.51182 28.525 7.80182 28.4483 8.05515 28.295C8.31515 28.1417 8.51515 27.9183 8.65515 27.625H10.5352C10.3352 28.385 9.93848 28.985 9.34515 29.425C8.75182 29.8583 8.03848 30.075 7.20515 30.075C6.52515 30.075 5.91515 29.925 5.37515 29.625C4.84182 29.3183 4.42515 28.895 4.12515 28.355C3.82515 27.815 3.67515 27.1983 3.67515 26.505Z" fill="white"/>
</svg>
