<svg width="40" height="40" viewBox="0 0 40 40" fill="none" xmlns="http://www.w3.org/2000/svg">
<path d="M34.9998 7.95719V36C34.9998 38.2091 33.209 40 30.9998 40H9C6.79086 40 5 38.2091 5 36V4C5 1.79086 6.79086 0 9 0H26.3367L34.9998 7.95719Z" fill="white"/>
<path d="M5 36V4C5 1.79086 6.79085 1.61787e-07 8.99997 0H26.3368L34.9998 7.95703V36L34.994 36.2061C34.8902 38.2511 33.2509 39.8913 31.2059 39.9951L30.9998 40V38.5C32.3805 38.4999 33.4998 37.3806 33.4998 36V8.61523L25.7528 1.5H8.99997C7.61927 1.5 6.49999 2.61929 6.49999 4V36C6.49999 37.3807 7.61927 38.5 8.99997 38.5V40L8.79392 39.9951C6.74879 39.8913 5.10865 38.2512 5.00488 36.2061L5 36ZM30.9998 38.5V40H8.99997V38.5H30.9998Z" fill="#E0E0E0"/>
<path d="M26 8.5H33.5V9.5H26C25.4477 9.5 25 9.05228 25 8.5V1H26V8.5Z" fill="#E0E0E0"/>
<path d="M1.10059 22C1.10059 20.8954 1.99602 20 3.10059 20H23C24.1046 20 25 20.8954 25 22V31C25 32.1046 24.1046 33 23 33H3.10059C1.99602 33 1.10059 32.1046 1.10059 31V22Z" fill="#3D5ED6"/>
<path d="M20.5158 25.215C20.3892 24.9817 20.2058 24.805 19.9658 24.685C19.7325 24.5583 19.4558 24.495 19.1358 24.495C18.5825 24.495 18.1392 24.6783 17.8058 25.045C17.4725 25.405 17.3058 25.8883 17.3058 26.495C17.3058 27.1417 17.4792 27.6483 17.8258 28.015C18.1792 28.375 18.6625 28.555 19.2758 28.555C19.6958 28.555 20.0492 28.4483 20.3358 28.235C20.6292 28.0217 20.8425 27.715 20.9758 27.315H18.8058V26.055H22.5258V27.645C22.3992 28.0717 22.1825 28.4683 21.8758 28.835C21.5758 29.2017 21.1925 29.4983 20.7258 29.725C20.2592 29.9517 19.7325 30.065 19.1458 30.065C18.4525 30.065 17.8325 29.915 17.2858 29.615C16.7458 29.3083 16.3225 28.885 16.0158 28.345C15.7158 27.805 15.5658 27.1883 15.5658 26.495C15.5658 25.8017 15.7158 25.185 16.0158 24.645C16.3225 24.0983 16.7458 23.675 17.2858 23.375C17.8258 23.0683 18.4425 22.915 19.1358 22.915C19.9758 22.915 20.6825 23.1183 21.2558 23.525C21.8358 23.9317 22.2192 24.495 22.4058 25.215H20.5158Z" fill="white"/>
<path d="M14.9656 25.255C14.9656 25.6617 14.8723 26.035 14.6856 26.375C14.4989 26.7083 14.2123 26.9783 13.8256 27.185C13.4389 27.3917 12.9589 27.495 12.3856 27.495H11.3256V30.015H9.61559V22.995H12.3856C12.9456 22.995 13.4189 23.0917 13.8056 23.285C14.1923 23.4783 14.4823 23.745 14.6756 24.085C14.8689 24.425 14.9656 24.815 14.9656 25.255ZM12.2556 26.135C12.5823 26.135 12.8256 26.0583 12.9856 25.905C13.1456 25.7517 13.2256 25.535 13.2256 25.255C13.2256 24.975 13.1456 24.7583 12.9856 24.605C12.8256 24.4517 12.5823 24.375 12.2556 24.375H11.3256V26.135H12.2556Z" fill="white"/>
<path d="M8.23434 22.995V27.775C8.23434 28.515 8.02434 29.085 7.60434 29.485C7.191 29.885 6.631 30.085 5.92434 30.085C5.18434 30.085 4.591 29.875 4.14434 29.455C3.69767 29.035 3.47434 28.4383 3.47434 27.665H5.17434C5.17434 27.9583 5.23434 28.1817 5.35434 28.335C5.47434 28.4817 5.64767 28.555 5.87434 28.555C6.081 28.555 6.241 28.4883 6.35434 28.355C6.46767 28.2217 6.52434 28.0283 6.52434 27.775V22.995H8.23434Z" fill="white"/>
</svg>
