<svg width="40" height="40" viewBox="0 0 40 40" fill="none" xmlns="http://www.w3.org/2000/svg">
<path d="M34.9998 7.95719V36C34.9998 38.2091 33.209 40 30.9998 40H9C6.79086 40 5 38.2091 5 36V4C5 1.79086 6.79086 0 9 0H26.3367L34.9998 7.95719Z" fill="white"/>
<path d="M5 36V4C5 1.79086 6.79085 1.61787e-07 8.99997 0H26.3368L34.9998 7.95703V36L34.994 36.2061C34.8902 38.2511 33.2509 39.8913 31.2059 39.9951L30.9998 40V38.5C32.3805 38.4999 33.4998 37.3806 33.4998 36V8.61523L25.7528 1.5H8.99997C7.61927 1.5 6.49999 2.61929 6.49999 4V36C6.49999 37.3807 7.61927 38.5 8.99997 38.5V40L8.79392 39.9951C6.74879 39.8913 5.10865 38.2512 5.00488 36.2061L5 36ZM30.9998 38.5V40H8.99997V38.5H30.9998Z" fill="#E0E0E0"/>
<path d="M26 8.5H33.5V9.5H26C25.4477 9.5 25 9.05228 25 8.5V1H26V8.5Z" fill="#E0E0E0"/>
<path d="M1 22C1 20.8954 1.89543 20 3 20H20C21.1046 20 22 20.8954 22 22V31C22 32.1046 21.1046 33 20 33H3C1.89543 33 1 32.1046 1 31V22Z" fill="#3D5ED6"/>
<path d="M8.76242 25.2C8.63576 24.9667 8.45242 24.79 8.21242 24.67C7.97909 24.5433 7.70242 24.48 7.38242 24.48C6.82909 24.48 6.38576 24.6633 6.05242 25.03C5.71909 25.39 5.55242 25.8733 5.55242 26.48C5.55242 27.1267 5.72576 27.6333 6.07242 28C6.42576 28.36 6.90909 28.54 7.52242 28.54C7.94242 28.54 8.29576 28.4333 8.58242 28.22C8.87576 28.0067 9.08909 27.7 9.22242 27.3H7.05242V26.04H10.7724V27.63C10.6458 28.0567 10.4291 28.4533 10.1224 28.82C9.82242 29.1867 9.43909 29.4833 8.97242 29.71C8.50576 29.9367 7.97909 30.05 7.39242 30.05C6.69909 30.05 6.07909 29.9 5.53242 29.6C4.99242 29.2933 4.56909 28.87 4.26242 28.33C3.96242 27.79 3.81242 27.1733 3.81242 26.48C3.81242 25.7867 3.96242 25.17 4.26242 24.63C4.56909 24.0833 4.99242 23.66 5.53242 23.36C6.07242 23.0533 6.68909 22.9 7.38242 22.9C8.22242 22.9 8.92909 23.1033 9.50242 23.51C10.0824 23.9167 10.4658 24.48 10.6524 25.2H8.76242Z" fill="white"/>
<path d="M13.4296 22.98V30H11.7196V22.98H13.4296Z" fill="white"/>
<path d="M19.2388 22.98V24.35H16.3788V25.83H18.5188V27.16H16.3788V30H14.6688V22.98H19.2388Z" fill="white"/>
</svg>
