<svg width="40" height="40" viewBox="0 0 40 40" fill="none" xmlns="http://www.w3.org/2000/svg">
<path d="M34.9998 7.95719V36C34.9998 38.2091 33.209 40 30.9998 40H9C6.79086 40 5 38.2091 5 36V4C5 1.79086 6.79086 0 9 0H26.3367L34.9998 7.95719Z" fill="white"/>
<path d="M5 36V4C5 1.79086 6.79085 1.61787e-07 8.99997 0H26.3368L34.9998 7.95703V36L34.994 36.2061C34.8902 38.2511 33.2509 39.8913 31.2059 39.9951L30.9998 40V38.5C32.3805 38.4999 33.4998 37.3806 33.4998 36V8.61523L25.7528 1.5H8.99997C7.61927 1.5 6.49999 2.61929 6.49999 4V36C6.49999 37.3807 7.61927 38.5 8.99997 38.5V40L8.79392 39.9951C6.74879 39.8913 5.10865 38.2512 5.00488 36.2061L5 36ZM30.9998 38.5V40H8.99997V38.5H30.9998Z" fill="#E0E0E0"/>
<path d="M26 8.5H33.5V9.5H26C25.4477 9.5 25 9.05228 25 8.5V1H26V8.5Z" fill="#E0E0E0"/>
<path d="M1 22C1 20.8954 1.89543 20 3 20H32C33.1046 20 34 20.8954 34 22V31C34 32.1046 33.1046 33 32 33H3C1.89543 33 1 32.1046 1 31V22Z" fill="#3D5ED6"/>
<path d="M13.4001 22.98L11.5701 30H9.50012L8.38012 25.38L7.22012 30H5.15012L3.37012 22.98H5.20012L6.21012 28.09L7.46012 22.98H9.34012L10.5401 28.09L11.5601 22.98H13.4001Z" fill="white"/>
<path d="M15.9677 24.35V25.77H18.2577V27.09H15.9677V28.63H18.5577V30H14.2577V22.98H18.5577V24.35H15.9677Z" fill="white"/>
<path d="M23.9179 26.4C24.3245 26.4867 24.6512 26.69 24.8979 27.01C25.1445 27.3233 25.2679 27.6833 25.2679 28.09C25.2679 28.6767 25.0612 29.1433 24.6479 29.49C24.2412 29.83 23.6712 30 22.9379 30H19.6679V22.98H22.8279C23.5412 22.98 24.0979 23.1433 24.4979 23.47C24.9045 23.7967 25.1079 24.24 25.1079 24.8C25.1079 25.2133 24.9979 25.5567 24.7779 25.83C24.5645 26.1033 24.2779 26.2933 23.9179 26.4ZM21.3779 25.82H22.4979C22.7779 25.82 22.9912 25.76 23.1379 25.64C23.2912 25.5133 23.3679 25.33 23.3679 25.09C23.3679 24.85 23.2912 24.6667 23.1379 24.54C22.9912 24.4133 22.7779 24.35 22.4979 24.35H21.3779V25.82ZM22.6379 28.62C22.9245 28.62 23.1445 28.5567 23.2979 28.43C23.4579 28.2967 23.5379 28.1067 23.5379 27.86C23.5379 27.6133 23.4545 27.42 23.2879 27.28C23.1279 27.14 22.9045 27.07 22.6179 27.07H21.3779V28.62H22.6379Z" fill="white"/>
<path d="M31.6096 25.24C31.6096 25.6467 31.5163 26.02 31.3296 26.36C31.143 26.6933 30.8563 26.9633 30.4696 27.17C30.083 27.3767 29.603 27.48 29.0296 27.48H27.9696V30H26.2596V22.98H29.0296C29.5896 22.98 30.063 23.0767 30.4496 23.27C30.8363 23.4633 31.1263 23.73 31.3196 24.07C31.513 24.41 31.6096 24.8 31.6096 25.24ZM28.8996 26.12C29.2263 26.12 29.4696 26.0433 29.6296 25.89C29.7896 25.7367 29.8696 25.52 29.8696 25.24C29.8696 24.96 29.7896 24.7433 29.6296 24.59C29.4696 24.4367 29.2263 24.36 28.8996 24.36H27.9696V26.12H28.8996Z" fill="white"/>
</svg>
