<svg width="40" height="40" viewBox="0 0 40 40" fill="none" xmlns="http://www.w3.org/2000/svg">
<path d="M34.9998 7.95719V36C34.9998 38.2091 33.209 40 30.9998 40H9C6.79086 40 5 38.2091 5 36V4C5 1.79086 6.79086 0 9 0H26.3367L34.9998 7.95719Z" fill="white"/>
<path d="M5 36V4C5 1.79086 6.79085 1.61787e-07 8.99997 0H26.3368L34.9998 7.95703V36L34.994 36.2061C34.8902 38.2511 33.2509 39.8913 31.2059 39.9951L30.9998 40V38.5C32.3805 38.4999 33.4998 37.3806 33.4998 36V8.61523L25.7528 1.5H8.99997C7.61927 1.5 6.49999 2.61929 6.49999 4V36C6.49999 37.3807 7.61927 38.5 8.99997 38.5V40L8.79392 39.9951C6.74879 39.8913 5.10865 38.2512 5.00488 36.2061L5 36ZM30.9998 38.5V40H8.99997V38.5H30.9998Z" fill="#E0E0E0"/>
<path d="M26 8.5H33.5V9.5H26C25.4477 9.5 25 9.05228 25 8.5V1H26V8.5Z" fill="#E0E0E0"/>
<path d="M1 22C1 20.8954 1.89543 20 3 20H23C24.1046 20 25 20.8954 25 22V31C25 32.1046 24.1046 33 23 33H3C1.89543 33 1 32.1046 1 31V22Z" fill="#3D5ED6"/>
<path d="M8.47828 28.76H5.85828L5.43828 30H3.64828L6.18828 22.98H8.16828L10.7083 30H8.89828L8.47828 28.76ZM8.03828 27.44L7.16828 24.87L6.30828 27.44H8.03828Z" fill="white"/>
<path d="M13.1913 24.35V25.77H15.4813V27.09H13.1913V28.63H15.7813V30H11.4813V22.98H15.7813V24.35H13.1913Z" fill="white"/>
<path d="M22.2415 25.24C22.2415 25.6467 22.1482 26.02 21.9615 26.36C21.7748 26.6933 21.4882 26.9633 21.1015 27.17C20.7148 27.3767 20.2348 27.48 19.6615 27.48H18.6015V30H16.8915V22.98H19.6615C20.2215 22.98 20.6948 23.0767 21.0815 23.27C21.4682 23.4633 21.7582 23.73 21.9515 24.07C22.1448 24.41 22.2415 24.8 22.2415 25.24ZM19.5315 26.12C19.8582 26.12 20.1015 26.0433 20.2615 25.89C20.4215 25.7367 20.5015 25.52 20.5015 25.24C20.5015 24.96 20.4215 24.7433 20.2615 24.59C20.1015 24.4367 19.8582 24.36 19.5315 24.36H18.6015V26.12H19.5315Z" fill="white"/>
</svg>
