<svg width="40" height="40" viewBox="0 0 40 40" fill="none" xmlns="http://www.w3.org/2000/svg">
<path d="M34.9998 7.95719V36C34.9998 38.2091 33.209 40 30.9998 40H9C6.79086 40 5 38.2091 5 36V4C5 1.79086 6.79086 0 9 0H26.3367L34.9998 7.95719Z" fill="white"/>
<path d="M5 36V4C5 1.79086 6.79085 1.61787e-07 8.99997 0H26.3368L34.9998 7.95703V36L34.994 36.2061C34.8902 38.2511 33.2509 39.8913 31.2059 39.9951L30.9998 40V38.5C32.3805 38.4999 33.4998 37.3806 33.4998 36V8.61523L25.7528 1.5H8.99997C7.61927 1.5 6.49999 2.61929 6.49999 4V36C6.49999 37.3807 7.61927 38.5 8.99997 38.5V40L8.79392 39.9951C6.74879 39.8913 5.10865 38.2512 5.00488 36.2061L5 36ZM30.9998 38.5V40H8.99997V38.5H30.9998Z" fill="#E0E0E0"/>
<path d="M26 8.5H33.5V9.5H26C25.4477 9.5 25 9.05228 25 8.5V1H26V8.5Z" fill="#E0E0E0"/>
<path d="M12.1434 30.5262V23.1897C12.1434 22.4415 12.1428 21.3602 12.1426 20.6181C12.1423 19.8121 12.7959 19.16 13.6009 19.1598H18.1729L18.2371 19.163C18.3862 19.1785 18.526 19.2471 18.6294 19.3575L20.6037 21.4669H26.9342C27.7397 21.4669 28.3926 22.1206 28.3926 22.9261V30.5262C28.3925 31.7917 27.3664 32.8177 26.1009 32.8178H14.4351C13.1694 32.8178 12.1434 31.7918 12.1434 30.5262ZM13.3934 30.5262C13.3934 31.1014 13.8598 31.5678 14.4351 31.5678H26.1009C26.6761 31.5677 27.1426 31.1014 27.1426 30.5262V22.9253C27.1424 22.8104 27.0492 22.7169 26.9342 22.7169H20.3327C20.1599 22.7168 19.9951 22.6453 19.877 22.5192L17.9019 20.4098H13.6009C13.4856 20.41 13.3928 20.503 13.3926 20.6173C13.3928 21.3594 13.3934 22.4413 13.3934 23.1897V30.5262Z" fill="#3D5ED6"/>
</svg>
