<svg width="40" height="40" viewBox="0 0 40 40" fill="none" xmlns="http://www.w3.org/2000/svg">
<path d="M34.9998 7.95719V36C34.9998 38.2091 33.209 40 30.9998 40H9C6.79086 40 5 38.2091 5 36V4C5 1.79086 6.79086 0 9 0H26.3367L34.9998 7.95719Z" fill="white"/>
<path d="M5 36V4C5 1.79086 6.79085 1.61787e-07 8.99997 0H26.3368L34.9998 7.95703V36L34.994 36.2061C34.8902 38.2511 33.2509 39.8913 31.2059 39.9951L30.9998 40V38.5C32.3805 38.4999 33.4998 37.3806 33.4998 36V8.61523L25.7528 1.5H8.99997C7.61927 1.5 6.49999 2.61929 6.49999 4V36C6.49999 37.3807 7.61927 38.5 8.99997 38.5V40L8.79392 39.9951C6.74879 39.8913 5.10865 38.2512 5.00488 36.2061L5 36ZM30.9998 38.5V40H8.99997V38.5H30.9998Z" fill="#E0E0E0"/>
<path d="M26 8.5H33.5V9.5H26C25.4477 9.5 25 9.05228 25 8.5V1H26V8.5Z" fill="#E0E0E0"/>
<path d="M26.4582 26C26.4582 22.4331 23.5667 19.5416 19.9998 19.5416C16.433 19.5416 13.5415 22.4331 13.5415 26C13.5415 29.5668 16.433 32.4583 19.9998 32.4583C23.5667 32.4583 26.4582 29.5668 26.4582 26ZM18.0622 22.394C18.407 22.2331 18.7696 22.2948 19.055 22.4396L19.1722 22.5063L19.208 22.5307L22.7269 25.1219C23.0055 25.2928 23.335 25.5955 23.3356 26.0642C23.3362 26.5334 23.0033 26.848 22.7293 27.0302L22.7301 27.031L19.2381 29.4733C19.2203 29.4857 19.2018 29.4977 19.1828 29.5083C18.8988 29.6654 18.4642 29.81 18.0483 29.588C17.6261 29.3625 17.5079 28.9128 17.4876 28.5724C17.4869 28.5608 17.4869 28.549 17.4868 28.5374L17.4722 23.4251V23.4243C17.4671 23.0173 17.6375 22.5923 18.0622 22.394ZM18.736 28.2981L21.9147 26.0756L18.723 23.7254L18.736 28.2981ZM27.7082 26C27.7082 30.2572 24.257 33.7083 19.9998 33.7083C15.7426 33.7083 12.2915 30.2572 12.2915 26C12.2915 21.7428 15.7426 18.2916 19.9998 18.2916C24.257 18.2916 27.7082 21.7428 27.7082 26Z" fill="#3D5ED6"/>
</svg>
