<svg width="40" height="40" viewBox="0 0 40 40" fill="none" xmlns="http://www.w3.org/2000/svg">
<path d="M34.9998 7.95719V36C34.9998 38.2091 33.209 40 30.9998 40H9C6.79086 40 5 38.2091 5 36V4C5 1.79086 6.79086 0 9 0H26.3367L34.9998 7.95719Z" fill="white"/>
<path d="M5 36V4C5 1.79086 6.79085 1.61787e-07 8.99997 0H26.3368L34.9998 7.95703V36L34.994 36.2061C34.8902 38.2511 33.2509 39.8913 31.2059 39.9951L30.9998 40V38.5C32.3805 38.4999 33.4998 37.3806 33.4998 36V8.61523L25.7528 1.5H8.99997C7.61927 1.5 6.49999 2.61929 6.49999 4V36C6.49999 37.3807 7.61927 38.5 8.99997 38.5V40L8.79392 39.9951C6.74879 39.8913 5.10865 38.2512 5.00488 36.2061L5 36ZM30.9998 38.5V40H8.99997V38.5H30.9998Z" fill="#E0E0E0"/>
<path d="M26 8.5H33.5V9.5H26C25.4477 9.5 25 9.05228 25 8.5V1H26V8.5Z" fill="#E0E0E0"/>
<path d="M1 22C1 20.8954 1.89543 20 3 20H29C30.1046 20 31 20.8954 31 22V31C31 32.1046 30.1046 33 29 33H3C1.89543 33 1 32.1046 1 31V22Z" fill="#E06418"/>
<path d="M28.503 22.98L26.013 30H23.873L21.383 22.98H23.203L24.943 28.28L26.693 22.98H28.503Z" fill="white"/>
<path d="M18.9099 28.76H16.2899L15.8699 30H14.0799L16.6199 22.98H18.5999L21.1399 30H19.3299L18.9099 28.76ZM18.4699 27.44L17.5999 24.87L16.7399 27.44H18.4699Z" fill="white"/>
<path d="M13.6823 22.98L11.8523 30H9.78234L8.66234 25.38L7.50234 30H5.43234L3.65234 22.98H5.48234L6.49234 28.09L7.74234 22.98H9.62234L10.8223 28.09L11.8423 22.98H13.6823Z" fill="white"/>
</svg>
