<svg width="46" height="46" viewBox="0 0 46 46" fill="none" xmlns="http://www.w3.org/2000/svg">
<g clip-path="url(#clip0_10976_77077)">
<rect width="46" height="46" fill="#F5F4FD"/>
<path d="M30.3496 24.9801C30.3496 24.4638 30.3496 24.1215 30.3281 23.859C30.3074 23.6053 30.2706 23.4926 30.2354 23.4235C30.1347 23.2259 29.9739 23.0651 29.7764 22.9645C29.7072 22.9293 29.5943 22.8924 29.3408 22.8717C29.0783 22.8503 28.7359 22.8502 28.2197 22.8502H24.6504V30.3502H30.3496V24.9801ZM20.75 24.9498V26.4498H18.0498V24.9498H20.75ZM20.75 21.3502V22.8502H18.0498V21.3502H20.75ZM20.75 17.7496V19.2496H18.0498V17.7496H20.75ZM23.1504 17.7799C23.1504 17.2635 23.1494 16.9213 23.1279 16.6588C23.1072 16.4051 23.0704 16.2924 23.0352 16.2233C22.9345 16.0259 22.7745 15.8649 22.5771 15.7643C22.508 15.7291 22.395 15.6932 22.1416 15.6725C21.8791 15.651 21.536 15.65 21.0195 15.65H17.7803C17.2641 15.65 16.9217 15.6511 16.6592 15.6725C16.4058 15.6932 16.2928 15.7291 16.2236 15.7643C16.0261 15.8649 15.8653 16.0258 15.7646 16.2233C15.7294 16.2924 15.6926 16.4051 15.6719 16.6588C15.6504 16.9213 15.6504 17.2635 15.6504 17.7799V30.3502H23.1504V17.7799ZM24.6504 21.3502H28.2197C28.7112 21.3502 29.1252 21.349 29.4629 21.3766C29.8094 21.4049 30.1421 21.4666 30.458 21.6276C30.9378 21.872 31.3278 22.263 31.5723 22.7428C31.733 23.0585 31.7949 23.3906 31.8232 23.7369C31.8508 24.0747 31.8496 24.4885 31.8496 24.9801V30.3502H32.75V31.8502H13.25V30.3502H14.1504V17.7799C14.1504 17.2883 14.1492 16.8745 14.1768 16.5367C14.2051 16.1903 14.2669 15.8584 14.4277 15.5426C14.6721 15.0629 15.0624 14.6728 15.542 14.4283C15.8579 14.2674 16.1906 14.2057 16.5371 14.1774C16.8748 14.1498 17.2888 14.15 17.7803 14.15H21.0195C21.5112 14.15 21.9259 14.1498 22.2637 14.1774C22.6101 14.2057 22.9421 14.2675 23.2578 14.4283C23.7375 14.6728 24.1276 15.0629 24.3721 15.5426C24.5329 15.8584 24.5947 16.1903 24.623 16.5367C24.6506 16.8745 24.6504 17.2883 24.6504 17.7799V21.3502Z" fill="#4D469A"/>
</g>
<path d="M4 0.5H42C43.933 0.5 45.5 2.067 45.5 4V42C45.5 43.933 43.933 45.5 42 45.5H4C2.067 45.5 0.5 43.933 0.5 42V4C0.5 2.067 2.067 0.5 4 0.5Z" stroke="black" stroke-opacity="0.16"/>
<defs>
<clipPath id="clip0_10976_77077">
<path d="M0 4C0 1.79086 1.79086 0 4 0H42C44.2091 0 46 1.79086 46 4V42C46 44.2091 44.2091 46 42 46H4C1.79086 46 0 44.2091 0 42V4Z" fill="white"/>
</clipPath>
</defs>
</svg>
