<svg width="48" height="48" viewBox="0 0 48 48" fill="none" xmlns="http://www.w3.org/2000/svg">
<rect x="4" y="4" width="40" height="40" rx="20" fill="#D0D0D0"/>
<rect x="19.2388" y="26.8398" width="9.52303" height="8.36165" fill="#D0D0D0"/>
<path d="M33.9131 16.2148V33.8876C33.9131 34.6122 33.3583 35.1996 32.6739 35.1996H27.7172V29.4125C27.7172 28.6878 27.1625 28.1004 26.4781 28.1004H21.5214C20.837 28.1004 20.2823 28.6878 20.2823 29.4125V35.1996H15.3256C14.6412 35.1996 14.0864 34.6122 14.0864 33.8876V16.2148H33.9131Z" fill="#E0E0E0"/>
<path d="M12.2388 15.5643C12.2388 14.0359 13.4089 12.7969 14.8524 12.7969H20.0797V20.4389C20.0797 22.7315 18.3245 24.59 16.1592 24.59C13.994 24.59 12.2388 22.7315 12.2388 20.4389V15.5643Z" fill="#FAFAFA"/>
<path d="M20.0797 12.7969H27.9206V20.4389C27.9206 22.7315 26.1654 24.59 24.0002 24.59C21.835 24.59 20.0797 22.7315 20.0797 20.4389V12.7969Z" fill="#FAFAFA"/>
<path d="M27.9206 12.7969H33.1479C34.5914 12.7969 35.7616 14.0359 35.7616 15.5643V20.4389C35.7616 22.7315 34.0063 24.59 31.8411 24.59C29.6759 24.59 27.9206 22.7315 27.9206 20.4389V12.7969Z" fill="#FAFAFA"/>
</svg>
