<svg width="48" height="48" viewBox="0 0 48 48" fill="none" xmlns="http://www.w3.org/2000/svg">
<rect x="4" y="4" width="40" height="40" rx="20" fill="#D0D0D0"/>
<path d="M33.385 25.3086H24.9187C24.6726 25.3086 24.4731 25.5081 24.4731 25.7542V34.2205C24.4731 34.4666 24.6726 34.6661 24.9187 34.6661H33.385C33.6311 34.6661 33.8306 34.4666 33.8306 34.2205V25.7542C33.8306 25.5081 33.6311 25.3086 33.385 25.3086Z" fill="white"/>
<path fill-rule="evenodd" clip-rule="evenodd" d="M13.7791 25.3086H22.2454C22.4915 25.3086 22.691 25.5081 22.691 25.7542V34.2205C22.691 34.4666 22.4915 34.6661 22.2454 34.6661H13.7791C13.533 34.6661 13.3335 34.4666 13.3335 34.2205V25.7542C13.3335 25.5081 13.533 25.3086 13.7791 25.3086Z" fill="#E0E0E0"/>
<path d="M34.5362 18.5039L29.4949 13.4625C29.3208 13.2885 29.0387 13.2885 28.8647 13.4625L23.8234 18.5038C23.6494 18.6779 23.6494 18.96 23.8234 19.134L28.8647 24.1753C29.0387 24.3493 29.3208 24.3493 29.4948 24.1753L34.5362 19.134C34.7102 18.96 34.7102 18.6779 34.5362 18.5039Z" fill="#EBEBEB"/>
<path d="M22.2454 14.168H13.7791C13.533 14.168 13.3335 14.3675 13.3335 14.6136V23.0798C13.3335 23.326 13.533 23.5254 13.7791 23.5254H22.2454C22.4915 23.5254 22.691 23.326 22.691 23.0798V14.6136C22.691 14.3675 22.4915 14.168 22.2454 14.168Z" fill="white"/>
</svg>
