<svg width="46" height="46" viewBox="0 0 46 46" fill="none" xmlns="http://www.w3.org/2000/svg">
<rect width="46" height="46" rx="4" fill="white" fill-opacity="0.2"/>
<path d="M36.9162 13.2461C36.9162 13.5222 36.6923 13.7461 36.4162 13.7461H16.8937C14.6572 13.7462 13.5463 16.4582 15.1398 18.0273L24.9884 27.7207L25.0168 27.75H18.6614C18.2573 27.75 17.8703 27.5869 17.588 27.2978L11.089 20.6396C6.76108 16.2061 9.90208 8.75001 16.0978 8.75H36.4162C36.6923 8.75 36.9162 8.97386 36.9162 9.25V13.2461Z" fill="url(#paint0_linear_13907_173954)"/>
<path d="M9.08398 32.7539C9.08398 32.4778 9.30784 32.2539 9.58398 32.2539H29.1064C31.343 32.2538 32.4539 29.5418 30.8604 27.9727L21.0117 18.2793L20.9834 18.25H27.3387C27.7428 18.25 28.1299 18.4131 28.4121 18.7022L34.9111 25.3604C39.2391 29.7939 36.0981 37.25 29.9023 37.25H9.58398C9.30784 37.25 9.08398 37.0261 9.08398 36.75V32.7539Z" fill="url(#paint1_linear_13907_173954)"/>
<path d="M36.9162 13.2461C36.9162 13.5222 36.6923 13.7461 36.4162 13.7461H16.8937C14.6572 13.7462 13.5463 16.4582 15.1398 18.0273L24.9884 27.7207L25.0168 27.75H18.6614C18.2573 27.75 17.8703 27.5869 17.588 27.2978L11.089 20.6396C6.76108 16.2061 9.90208 8.75001 16.0978 8.75H36.4162C36.6923 8.75 36.9162 8.97386 36.9162 9.25V13.2461Z" stroke="url(#paint2_linear_13907_173954)" stroke-width="0.1"/>
<path d="M9.08398 32.7539C9.08398 32.4778 9.30784 32.2539 9.58398 32.2539H29.1064C31.343 32.2538 32.4539 29.5418 30.8604 27.9727L21.0117 18.2793L20.9834 18.25H27.3387C27.7428 18.25 28.1299 18.4131 28.4121 18.7022L34.9111 25.3604C39.2391 29.7939 36.0981 37.25 29.9023 37.25H9.58398C9.30784 37.25 9.08398 37.0261 9.08398 36.75V32.7539Z" stroke="url(#paint3_linear_13907_173954)" stroke-width="0.1"/>
<defs>
<linearGradient id="paint0_linear_13907_173954" x1="23.0001" y1="16.9313" x2="23.0001" y2="37.25" gradientUnits="userSpaceOnUse">
<stop stop-color="white"/>
<stop offset="1" stop-color="white" stop-opacity="0.4"/>
</linearGradient>
<linearGradient id="paint1_linear_13907_173954" x1="23.0001" y1="16.9313" x2="23.0001" y2="37.25" gradientUnits="userSpaceOnUse">
<stop stop-color="white"/>
<stop offset="1" stop-color="white" stop-opacity="0.4"/>
</linearGradient>
<linearGradient id="paint2_linear_13907_173954" x1="10.1556" y1="36.5707" x2="30.1915" y2="21.639" gradientUnits="userSpaceOnUse">
<stop stop-color="white"/>
<stop offset="1" stop-color="white" stop-opacity="0"/>
</linearGradient>
<linearGradient id="paint3_linear_13907_173954" x1="10.1556" y1="36.5707" x2="30.1915" y2="21.639" gradientUnits="userSpaceOnUse">
<stop stop-color="white"/>
<stop offset="1" stop-color="white" stop-opacity="0"/>
</linearGradient>
</defs>
</svg>
