<svg width="46" height="46" viewBox="0 0 46 46" fill="none" xmlns="http://www.w3.org/2000/svg">
<path d="M0 4C0 1.79086 1.79086 0 4 0H42C44.2091 0 46 1.79086 46 4V42C46 44.2091 44.2091 46 42 46H4C1.79086 46 0 44.2091 0 42V4Z" fill="#2F006D"/>
<path d="M34.4443 15.4707C34.4443 15.6838 34.2674 15.8566 34.0491 15.8566H18.6176C16.8497 15.8567 15.9716 17.9502 17.2312 19.1615L25.016 26.6441L25.0384 26.6667H20.0148C19.6954 26.6667 19.3895 26.5408 19.1664 26.3176L14.0292 21.178C10.6082 17.7556 13.091 12 17.9884 12H34.0491C34.2674 12 34.4443 12.1728 34.4443 12.386V15.4707Z" fill="url(#paint0_linear_11308_125881)"/>
<path d="M12.4443 30.5293C12.4443 30.3162 12.6213 30.1434 12.8396 30.1434H28.2711C30.039 30.1433 30.9171 28.0498 29.6575 26.8385L21.8726 19.3559L21.8502 19.3333H26.8738C27.1933 19.3333 27.4992 19.4592 27.7223 19.6824L32.8594 24.822C36.2805 28.2444 33.7977 34 28.9002 34H12.8396C12.6213 34 12.4443 33.8272 12.4443 33.614V30.5293Z" fill="url(#paint1_linear_11308_125881)"/>
<path d="M34.4443 15.4707C34.4443 15.6838 34.2674 15.8566 34.0491 15.8566H18.6176C16.8497 15.8567 15.9716 17.9502 17.2312 19.1615L25.016 26.6441L25.0384 26.6667H20.0148C19.6954 26.6667 19.3895 26.5408 19.1664 26.3176L14.0292 21.178C10.6082 17.7556 13.091 12 17.9884 12H34.0491C34.2674 12 34.4443 12.1728 34.4443 12.386V15.4707Z" stroke="url(#paint2_linear_11308_125881)" stroke-width="0.129412"/>
<path d="M12.4443 30.5293C12.4443 30.3162 12.6213 30.1434 12.8396 30.1434H28.2711C30.039 30.1433 30.9171 28.0498 29.6575 26.8385L21.8726 19.3559L21.8502 19.3333H26.8738C27.1933 19.3333 27.4992 19.4592 27.7223 19.6824L32.8594 24.822C36.2805 28.2444 33.7977 34 28.9002 34H12.8396C12.6213 34 12.4443 33.8272 12.4443 33.614V30.5293Z" stroke="url(#paint3_linear_11308_125881)" stroke-width="0.129412"/>
<defs>
<linearGradient id="paint0_linear_11308_125881" x1="23.4443" y1="18.3154" x2="23.4443" y2="34" gradientUnits="userSpaceOnUse">
<stop stop-color="white"/>
<stop offset="1" stop-color="white" stop-opacity="0.4"/>
</linearGradient>
<linearGradient id="paint1_linear_11308_125881" x1="23.4443" y1="18.3154" x2="23.4443" y2="34" gradientUnits="userSpaceOnUse">
<stop stop-color="white"/>
<stop offset="1" stop-color="white" stop-opacity="0.4"/>
</linearGradient>
<linearGradient id="paint2_linear_11308_125881" x1="13.2914" y1="33.4756" x2="28.8589" y2="21.5956" gradientUnits="userSpaceOnUse">
<stop stop-color="white"/>
<stop offset="1" stop-color="white" stop-opacity="0"/>
</linearGradient>
<linearGradient id="paint3_linear_11308_125881" x1="13.2914" y1="33.4756" x2="28.8589" y2="21.5956" gradientUnits="userSpaceOnUse">
<stop stop-color="white"/>
<stop offset="1" stop-color="white" stop-opacity="0"/>
</linearGradient>
</defs>
</svg>
