<svg width="46" height="46" viewBox="0 0 46 46" fill="none" xmlns="http://www.w3.org/2000/svg">
<g clip-path="url(#clip0_11313_125190)">
<rect width="48" height="48" transform="translate(-1 -0.881836)" fill="#FFB71B"/>
<path d="M18.1787 28.4159L28.673 25.2126C31.4106 24.227 35 21.8245 35 18.2824C35 12.6767 30.4981 8.11816 24.962 8.11816H21.9506C15.8973 8.11816 11 13.0771 11 19.2373V28.2311C11 33.7444 15.4106 38.1182 20.8555 38.1182H24.4753C29.403 38.1182 34.2091 34.3913 34.2091 29.0935H27.8821C27.8821 31.3728 26.057 33.19 23.8365 33.19H20.8859C18.9087 33.19 17.2966 31.5576 17.327 29.5555C17.327 29.0319 17.6616 28.5699 18.1787 28.4159ZM17.2966 23.6726V18.036C17.2966 15.3256 19.4867 13.1079 22.1635 13.1079H24.2624C26.6958 13.1079 28.6426 15.11 28.6426 17.5432C28.6426 19.1141 27.6388 20.5001 26.1483 20.9621L17.2966 23.6726Z" fill="white"/>
</g>
<path d="M4 0.5H42C43.933 0.5 45.5 2.067 45.5 4V42C45.5 43.933 43.933 45.5 42 45.5H4C2.067 45.5 0.5 43.933 0.5 42V4C0.5 2.067 2.067 0.5 4 0.5Z" stroke="black" stroke-opacity="0.16"/>
<defs>
<clipPath id="clip0_11313_125190">
<path d="M0 4C0 1.79086 1.79086 0 4 0H42C44.2091 0 46 1.79086 46 4V42C46 44.2091 44.2091 46 42 46H4C1.79086 46 0 44.2091 0 42V4Z" fill="white"/>
</clipPath>
</defs>
</svg>
