<svg width="46" height="46" viewBox="0 0 46 46" fill="none" xmlns="http://www.w3.org/2000/svg">
<g clip-path="url(#clip0_10976_77084)">
<rect width="46" height="46" fill="#F5F4FD"/>
<path d="M25.1621 27.3909C25.1619 27.2693 25.0629 27.1713 24.9414 27.1711H21.0586C20.937 27.1712 20.8381 27.2693 20.8379 27.3909V30.5237H25.1621V27.3909ZM25.1621 15.5237H20.8379V19.6262C20.8379 20.8201 21.8061 21.7883 23 21.7883C24.1939 21.7883 25.1621 20.8201 25.1621 19.6262V15.5237ZM26.6621 30.5237H29.7939C29.9158 30.5237 30.0146 30.4248 30.0146 30.303V23.0891C29.6411 23.2176 29.2404 23.2883 28.8232 23.2883C27.6355 23.2883 26.5801 22.7225 25.9111 21.8459C25.2421 22.7222 24.1876 23.2883 23 23.2883C21.8122 23.2883 20.7569 22.7225 20.0879 21.8459C19.4189 22.7222 18.3643 23.2882 17.1768 23.2883C16.7596 23.2883 16.3589 23.2176 15.9854 23.0891V30.303C15.9854 30.4248 16.0842 30.5237 16.2061 30.5237H19.3379V27.3909C19.3381 26.4409 20.1086 25.6712 21.0586 25.6711H24.9414C25.8914 25.6713 26.6619 26.4409 26.6621 27.3909V30.5237ZM26.6621 19.6262C26.6621 20.8201 27.6294 21.7882 28.8232 21.7883C30.0172 21.7883 30.9854 20.8201 30.9854 19.6262V16.7151C30.9854 16.0572 30.4518 15.5237 29.7939 15.5237H26.6621V19.6262ZM15.0146 19.6262C15.0146 20.8201 15.9828 21.7883 17.1768 21.7883C18.3705 21.7881 19.3379 20.82 19.3379 19.6262V15.5237H16.2061C15.5482 15.5237 15.0146 16.0572 15.0146 16.7151V19.6262ZM32.4854 19.6262C32.4854 20.5842 32.1168 21.4561 31.5146 22.1086V30.303C31.5146 31.2532 30.7442 32.0237 29.7939 32.0237H16.2061C15.2558 32.0237 14.4854 31.2532 14.4854 30.303V22.1086C13.8832 21.4561 13.5146 20.5842 13.5146 19.6262V16.7151C13.5146 15.2288 14.7198 14.0237 16.2061 14.0237H29.7939C31.2802 14.0237 32.4854 15.2288 32.4854 16.7151V19.6262Z" fill="#4D469A"/>
</g>
<path d="M4 0.5H42C43.933 0.5 45.5 2.067 45.5 4V42C45.5 43.933 43.933 45.5 42 45.5H4C2.067 45.5 0.5 43.933 0.5 42V4C0.5 2.067 2.067 0.5 4 0.5Z" stroke="black" stroke-opacity="0.16"/>
<defs>
<clipPath id="clip0_10976_77084">
<path d="M0 4C0 1.79086 1.79086 0 4 0H42C44.2091 0 46 1.79086 46 4V42C46 44.2091 44.2091 46 42 46H4C1.79086 46 0 44.2091 0 42V4Z" fill="white"/>
</clipPath>
</defs>
</svg>
