<svg width="32" height="32" viewBox="0 0 32 32" fill="none" xmlns="http://www.w3.org/2000/svg">
<path d="M32 16C32 18.9185 31.2275 21.6652 29.8541 24.0172C29.7968 24.1087 29.7453 24.2003 29.6996 24.2918C29.5622 24.5093 29.4249 24.721 29.2876 24.927C29.2303 25.0072 29.1731 25.093 29.1159 25.1845C27.0215 28.1717 23.9313 30.4034 20.3262 31.4163C20.2575 31.4392 20.1831 31.4564 20.103 31.4678C18.7983 31.8283 17.4249 32 16 32C10.4721 32 5.59657 29.2017 2.72961 24.927C2.45493 24.5379 2.20315 24.1316 1.97425 23.7082C0.703863 21.4249 0 18.7983 0 16C0 7.1588 7.1588 0 16 0C24.8412 0 32 7.1588 32 16Z" fill="#D9D9E4"/>
<mask id="mask0_1215_91099" style="mask-type:alpha" maskUnits="userSpaceOnUse" x="0" y="0" width="32" height="32">
<path d="M32 16C32 18.9185 31.2275 21.6652 29.8541 24.0172C29.7968 24.1087 29.7453 24.2003 29.6996 24.2918C29.5622 24.5093 29.4249 24.721 29.2876 24.927C29.2303 25.0072 29.1731 25.093 29.1159 25.1845C27.0215 28.1717 23.9313 30.4034 20.3262 31.4163C20.2575 31.4392 20.1831 31.4564 20.103 31.4678C18.7983 31.8283 17.4249 32 16 32C10.4721 32 5.59657 29.2017 2.72961 24.927C2.45493 24.5379 2.20315 24.1316 1.97425 23.7082C0.703863 21.4249 0 18.7983 0 16C0 7.1588 7.1588 0 16 0C24.8412 0 32 7.1588 32 16Z" fill="#D9D9E4"/>
</mask>
<g mask="url(#mask0_1215_91099)">
<path d="M20.3127 25.0033C21.2651 20.7175 21.9371 18.2275 22.8607 14.2126C22.9843 12.7283 23.3877 8.45205 20.1718 6.1025C16.956 3.75296 12.876 4.99008 11.3895 6.84412C9.90302 8.69817 10.2771 12.1623 9.78266 14.6355C9.28825 17.1086 9.61786 18.7903 11.1423 19.5818C12.529 20.3017 14.1608 19.8669 14.1608 19.8669L13.9873 22.4767C13.9873 22.4767 10.8431 22.5949 8.91636 23.292C4.27365 24.9726 -3.88307 36.498 -3.88307 36.498C-8.99309 36.2812 -13.7778 36.0643 -13.7778 36.0643L-11.2765 43.4588C-11.2765 43.4588 -4.97056 45.5243 -0.403749 44.3262C4.2292 43.113 8.62145 36.6065 8.62145 36.6065L10.1394 40.9553L7.52962 48.2403H30.2552L26.4496 41.4985C27.1077 35.5201 20.3127 25.0033 20.3127 25.0033Z" fill="#EAA58B"/>
<path d="M21.461 34.8948L21.1261 25.3708H6.22266L7.48346 34.8948H21.461Z" fill="#A5A9CB"/>
<path d="M20.8918 22.2056L14.9285 33.0187L12.4889 22.585C11.4166 22.6935 9.98759 22.9038 8.9272 23.2876C4.27365 24.9725 -3.88307 36.498 -3.88307 36.498C-8.99309 36.2811 -13.7778 36.0643 -13.7778 36.0643L-11.2765 43.4588C-11.2765 43.4588 -4.97056 45.5243 -0.403751 44.3262C4.2292 43.1129 8.62145 36.6064 8.62145 36.6064L10.1394 40.9553L7.52962 48.2403H30.2552L26.4496 41.4996C27.1001 35.5189 28.1844 23.884 28.1844 23.884C27.1776 23.2711 26.0752 22.8313 24.923 22.5829C23.6251 22.2901 22.1983 22.4647 20.8918 22.2056Z" fill="#6058B4"/>
<path d="M22.8669 14.2128C22.9905 12.7285 23.3938 8.45229 20.178 6.10275C16.9621 3.7532 12.8821 4.99032 11.3957 6.84437C10.7907 7.60333 10.4947 8.62469 10.3223 9.73928C11.3089 9.90517 12.7564 9.5658 12.7564 9.5658C14.7351 11.7917 16.5078 12.1452 16.5078 12.1452C17.8924 10.7606 20.3211 10.8062 20.7158 12.9042C21.1256 15.0824 17.6463 16.0615 17.6463 16.0615C17.6463 16.0615 17.321 19.9756 19.0558 21.3894C19.5882 21.8114 20.7215 22.3109 21.5193 22.3109C22.2133 19.2198 22.6119 17.2754 22.8669 14.2128Z" fill="#A15842"/>
<path d="M14.8195 8.77173C14.169 9.31385 13.41 9.63912 12.5361 9.85597" stroke="#EAA58B" stroke-width="0.487907" stroke-miterlimit="10" stroke-linecap="round"/>
<path d="M15.4709 19.2717C15.5748 19.2124 15.7075 19.2485 15.7669 19.3525C15.8263 19.4564 15.7901 19.589 15.6862 19.6485C15.2117 19.9198 14.7115 20.1431 14.1931 20.316C14.0795 20.3539 13.9567 20.2925 13.9188 20.1789C13.8812 20.0654 13.9425 19.9424 14.0559 19.9046C14.5472 19.7406 15.0213 19.5288 15.4709 19.2717Z" fill="#A15842"/>
<path d="M18.6519 13.0725C18.7534 13.0093 18.8871 13.0405 18.9505 13.142C19.0137 13.2434 18.9832 13.3771 18.882 13.4406L17.8924 14.0587C17.7909 14.1219 17.6572 14.0907 17.5938 13.9892C17.5305 13.8877 17.5617 13.754 17.6632 13.6906L18.6519 13.0725Z" fill="#A15842"/>
<path d="M13.1936 16.3133C13.2488 16.207 13.3799 16.1652 13.4861 16.2204C13.5922 16.2757 13.6333 16.4067 13.5782 16.5129C13.3833 16.8882 13.0393 17.0388 12.7353 17.078C12.5837 17.0976 12.4365 17.0905 12.3117 17.0694C12.1914 17.049 12.0746 17.0129 11.9905 16.9609C11.8887 16.8978 11.8571 16.7641 11.9202 16.6622C11.9832 16.5606 12.1162 16.5292 12.2179 16.5919C12.2361 16.6032 12.2926 16.6269 12.3837 16.6423C12.4706 16.657 12.5747 16.6619 12.6797 16.6484C12.8887 16.6214 13.0829 16.5265 13.1936 16.3133Z" fill="#A15842"/>
<path d="M14.1193 13.9943C14.3241 13.9943 14.4902 13.8283 14.4902 13.6235C14.4902 13.4187 14.3241 13.2527 14.1193 13.2527C13.9146 13.2527 13.7485 13.4187 13.7485 13.6235C13.7485 13.8283 13.9146 13.9943 14.1193 13.9943Z" fill="#30242A"/>
<path d="M11.0466 13.5043C11.2514 13.5043 11.4174 13.3383 11.4174 13.1335C11.4174 12.9287 11.2514 12.7627 11.0466 12.7627C10.8418 12.7627 10.6758 12.9287 10.6758 13.1335C10.6758 13.3383 10.8418 13.5043 11.0466 13.5043Z" fill="#30242A"/>
<path d="M11.8835 14.5C11.9197 14.3858 12.0419 14.3224 12.1561 14.3585C12.2701 14.3947 12.3335 14.5162 12.2976 14.6302C12.2616 14.744 12.2301 14.857 12.2125 14.9479C12.2037 14.9936 12.1994 15.0281 12.1986 15.0512V15.053C12.2363 15.1137 12.2883 15.164 12.3514 15.1979C12.4569 15.2545 12.4964 15.3859 12.44 15.4913C12.3833 15.5969 12.2521 15.6365 12.1466 15.5799C12.0019 15.5022 11.8828 15.384 11.8046 15.2396L11.8011 15.2335C11.7656 15.1626 11.764 15.0856 11.7655 15.0373C11.7672 14.982 11.7753 14.9227 11.7863 14.8655C11.8086 14.7503 11.8458 14.6193 11.8835 14.5Z" fill="#A15842"/>
<path d="M10.4798 11.0966C9.57801 10.9211 8.65018 11.5914 8.44414 12.6505C8.23827 13.7094 8.84717 14.6779 9.74883 14.8534C10.6504 15.0285 11.5773 14.3589 11.7834 13.3002C11.9894 12.2413 11.3813 11.2722 10.4798 11.0966ZM10.5626 10.6705C11.7403 10.8999 12.4528 12.1322 12.2095 13.383C11.966 14.6337 10.8435 15.5083 9.66594 15.2794C8.4882 15.0503 7.77489 13.8184 8.0181 12.5676C8.26149 11.3166 9.38481 10.4414 10.5626 10.6705Z" fill="#30242A"/>
<path d="M15.1897 11.6742C14.288 11.4987 13.3601 12.1691 13.1541 13.2281C12.9482 14.287 13.5571 15.2556 14.4588 15.431C15.3603 15.6062 16.2873 14.9365 16.4934 13.8778C16.6994 12.8189 16.0913 11.8498 15.1897 11.6742ZM15.2726 11.2482C16.4502 11.4775 17.1628 12.7098 16.9194 13.9607C16.6759 15.2113 15.5535 16.0859 14.3759 15.857C13.1982 15.6279 12.4848 14.3961 12.7281 13.1452C12.9714 11.8942 14.0948 11.019 15.2726 11.2482Z" fill="#30242A"/>
<path d="M12.1072 12.9519L12.8563 13.0318C12.9752 13.0447 13.0609 13.1515 13.0481 13.2705C13.0354 13.3896 12.9285 13.476 12.8094 13.4632L12.0603 13.3825C11.9414 13.3696 11.8557 13.2627 11.8684 13.1438C11.8814 13.0249 11.9882 12.9392 12.1072 12.9519Z" fill="#30242A"/>
<path d="M9.27537 22.9945C9.38491 22.9461 9.51342 22.9952 9.56183 23.1047L11.2129 26.8408C11.2442 26.9118 11.2353 26.9944 11.1894 27.057C11.1436 27.1195 11.0677 27.1523 10.9906 27.1438L9.49586 26.978L16.1964 37.0292C16.2628 37.1288 16.2361 37.264 16.1365 37.3304C16.0368 37.3968 15.9026 37.3693 15.8361 37.2696L8.87693 26.8321C8.83023 26.7621 8.82887 26.6715 8.87259 26.5995C8.9164 26.5275 8.99802 26.4869 9.08179 26.4962L10.6634 26.6715L9.16513 23.2801C9.11676 23.1706 9.16607 23.043 9.27537 22.9945Z" fill="#30242A"/>
<path d="M25.2737 22.6238C25.3428 22.526 25.4789 22.5026 25.5766 22.5717C25.6743 22.6409 25.697 22.7761 25.6279 22.8738L23.094 26.458L25.2398 26.2783C25.3329 26.2705 25.421 26.3235 25.4577 26.4094C25.4944 26.4951 25.4718 26.5948 25.4022 26.6568L15.8327 35.1377C15.7431 35.2171 15.6057 35.2091 15.5263 35.1195C15.447 35.0298 15.4549 34.8924 15.5445 34.813L24.6253 26.7644L22.6661 26.9285C22.5822 26.9354 22.5021 26.8931 22.4603 26.82C22.4186 26.7468 22.423 26.6561 22.4716 26.5873L25.2737 22.6238Z" fill="#30242A"/>
<path d="M36.566 47.0449C45.2648 42.9129 32.6552 27.4744 28.1935 23.8845L25.6933 33.9972L28.8462 38.3461C27.4649 38.1076 26.1443 37.9438 24.9321 37.8473V44.7203C27.6926 46.0626 33.4933 48.5087 36.566 47.0449Z" fill="#6058B4"/>
</g>
</svg>
