<svg width="48" height="48" viewBox="0 0 48 48" fill="none" xmlns="http://www.w3.org/2000/svg">
<rect x="4" y="4" width="40" height="40" rx="20" fill="#D0D0D0"/>
<path fill-rule="evenodd" clip-rule="evenodd" d="M17.7383 11.4453C18.5667 11.4453 19.2383 12.1169 19.2383 12.9453L19.2383 17.889C19.2383 18.7174 18.5667 19.389 17.7383 19.389C16.9099 19.389 16.2383 18.7174 16.2383 17.889L16.2383 12.9453C16.2383 12.1169 16.9099 11.4453 17.7383 11.4453Z" fill="#E0E0E0"/>
<path fill-rule="evenodd" clip-rule="evenodd" d="M30.2622 11.4453C31.0906 11.4453 31.7622 12.1169 31.7622 12.9453L31.7622 17.889C31.7622 18.7174 31.0906 19.389 30.2622 19.389C29.4338 19.389 28.7622 18.7174 28.7622 17.889L28.7622 12.9453C28.7622 12.1169 29.4338 11.4453 30.2622 11.4453Z" fill="#E0E0E0"/>
<path d="M12.6665 21.7031H35.3332V34.5544C35.3332 34.8305 35.1093 35.0544 34.8332 35.0544H13.1665C12.8904 35.0544 12.6665 34.8305 12.6665 34.5544V21.7031Z" fill="white"/>
<path d="M35.333 21.7031L12.6663 21.7031L12.6663 15.5374C12.6663 15.2613 12.8902 15.0374 13.1663 15.0374L34.833 15.0374C35.1092 15.0374 35.333 15.2613 35.333 15.5374L35.333 21.7031Z" fill="#E0E0E0"/>
<path fill-rule="evenodd" clip-rule="evenodd" d="M29.7071 23.8266C30.0963 24.2185 30.094 24.8517 29.7021 25.2408L23.7561 31.145C23.5666 31.3332 23.3095 31.4378 23.0424 31.4353C22.7752 31.4329 22.5202 31.3236 22.3341 31.132L19.094 27.7948C18.7093 27.3985 18.7187 26.7654 19.1149 26.3807C19.5112 25.996 20.1443 26.0054 20.529 26.4016L23.0646 29.0132L28.2929 23.8217C28.6848 23.4325 29.318 23.4347 29.7071 23.8266Z" fill="#E0E0E0"/>
</svg>
