<svg width="48" height="48" viewBox="0 0 48 48" fill="none" xmlns="http://www.w3.org/2000/svg">
<rect x="4" y="4" width="40" height="40" rx="20" fill="#D0D0D0"/>
<path d="M23.9998 27.5278C22.06 27.5278 20.4728 25.9406 20.4728 24.0008C20.4728 22.061 22.06 20.4738 23.9998 20.4738V12.832C17.8276 12.832 12.8311 17.8286 12.8311 24.0008C12.8311 30.173 17.8276 35.1696 23.9998 35.1696C26.5863 35.1696 28.9964 34.2878 30.9362 32.7595L26.2336 26.7636C25.587 27.2339 24.8228 27.5278 23.9998 27.5278Z" fill="white"/>
<path d="M27.527 24.0008H35.1688C35.1688 17.8286 30.1722 12.832 24 12.832V20.4738C25.9398 20.4738 27.527 22.061 27.527 24.0008Z" fill="#EBEBEB"/>
<path d="M35.1691 24H27.5273C27.5273 25.1169 26.9983 26.1162 26.1753 26.7628L30.8779 32.7587C33.5232 30.7013 35.1691 27.527 35.1691 24Z" fill="#E0E0E0"/>
</svg>
